<svg version="1.1" id="Layer_1" xmlns="http://www.w3.org/2000/svg" xmlns:xlink="http://www.w3.org/1999/xlink" x="0px" y="0px"
	 width="100%" viewBox="0 0 512 512" enable-background="new 0 0 512 512" xml:space="preserve">
<path fill="#000000" opacity="1.000000" stroke="none" 
	d="
M230.838181,97.088852 
	C228.676132,93.113197 226.525131,89.536003 224.754410,85.779564 
	C222.556503,81.116943 223.747086,79.062607 228.721542,78.996475 
	C238.875214,78.861496 249.032196,78.994797 259.187012,78.915581 
	C262.347534,78.890930 263.859802,80.104996 264.652191,83.324326 
	C269.024902,101.088943 274.461334,118.541847 280.599609,135.777420 
	C281.152679,137.330276 281.539795,138.978531 281.733398,140.614517 
	C282.014801,142.992737 281.026886,144.412750 278.386688,144.414749 
	C274.226196,144.417892 270.063934,144.477325 265.905975,144.617584 
	C263.266052,144.706619 262.175049,142.766876 260.871674,141.071289 
	C250.110123,127.071129 239.975693,112.641556 230.838181,97.088852 
z"/>
<path fill="#000000" opacity="1.000000" stroke="none" 
	d="
M226.247253,126.047630 
	C225.164474,142.301712 215.280243,150.015839 200.951782,146.253143 
	C195.582825,144.843216 191.855286,141.557434 189.764542,136.446594 
	C186.984818,129.651581 187.049988,122.787003 189.777191,116.031807 
	C192.533310,109.204987 199.472290,105.371689 207.637039,105.867088 
	C216.824051,106.424515 223.006210,110.735802 225.042908,118.238365 
	C225.690826,120.625076 225.858368,123.142189 226.247253,126.047630 
z"/>
<path fill="#000000" opacity="1.000000" stroke="none" 
	d="
M326.152191,94.361862 
	C326.358582,108.725571 320.511780,116.402405 308.692810,117.783989 
	C298.897461,118.929024 291.064728,113.418816 288.606049,103.890984 
	C287.272369,98.722572 287.583374,93.660980 289.023712,88.646652 
	C291.231628,80.959976 297.654785,76.664528 306.551086,76.712288 
	C316.038239,76.763214 322.945282,81.513100 325.152039,89.547203 
	C325.546997,90.985054 325.792084,92.464058 326.152191,94.361862 
z"/>
<path fill="#000000" opacity="1.000000" stroke="none" 
	d="
M332.324036,309.155212 
	C336.951416,305.831970 341.377441,306.018219 345.577667,308.942169 
	C349.089630,311.387024 350.828918,314.994781 350.104675,319.289856 
	C349.295166,324.090820 346.429565,327.331238 341.638855,328.681793 
	C337.287964,329.908356 332.185455,327.773926 329.683075,323.698273 
	C326.654297,318.765106 327.308228,314.760254 332.324036,309.155212 
z"/>
<path fill="#000000" opacity="1.000000" stroke="none" 
	d="
M246.527237,369.978027 
	C250.472229,363.056763 255.549164,360.897736 261.458313,363.312927 
	C266.318604,365.299469 269.214172,370.910797 267.960083,375.912689 
	C266.406189,382.110382 260.627960,385.607483 254.205505,384.237244 
	C248.337265,382.985260 245.089890,377.216125 246.527237,369.978027 
z"/>
<path fill="#000000" opacity="1.000000" stroke="none" 
	d="
M204.487396,224.150269 
	C201.349228,230.421021 196.874573,233.095016 191.800705,232.037323 
	C186.667572,230.967270 182.949615,226.643051 182.733551,221.491577 
	C182.523575,216.485611 185.966171,211.923355 191.098282,210.406357 
	C199.051086,208.055557 205.833954,214.767471 204.487396,224.150269 
z"/>
<path fill="#000000" opacity="1.000000" stroke="none" 
	d="
M310.989807,215.205780 
	C314.671631,210.520493 318.989716,208.669373 324.387207,210.852600 
	C329.029633,212.730408 331.411774,216.343277 331.303131,221.372299 
	C331.193237,226.459061 328.344208,229.747269 323.791840,231.524979 
	C319.460693,233.216293 315.430328,232.102936 312.371826,228.838821 
	C308.722809,224.944519 308.053436,220.351791 310.989807,215.205780 
z"/>
<path fill="#000000" opacity="1.000000" stroke="none" 
	d="
M175.006470,239.682510 
	C182.312698,240.794785 186.509811,245.209930 186.255783,251.076004 
	C186.027695,256.342834 181.362106,261.251526 176.115891,261.744171 
	C170.357452,262.284943 165.369370,258.540131 164.107666,252.729034 
	C162.757339,246.509735 167.257797,240.906174 175.006470,239.682510 
z"/>
<path fill="#000000" opacity="1.000000" stroke="none" 
	d="
M332.912720,241.609406 
	C339.492584,238.344803 345.304016,239.671585 348.497406,244.872284 
	C351.691345,250.073807 350.337799,256.250427 345.225555,259.802612 
	C340.504181,263.083221 334.028717,262.160095 330.435425,257.694214 
	C326.379944,252.653778 327.128021,247.129700 332.912720,241.609406 
z"/>
<path fill="#000000" opacity="1.000000" stroke="none" 
	d="
M167.992523,295.322693 
	C160.130142,294.155060 155.739075,288.894653 156.831573,282.455475 
	C157.902206,276.145081 164.195312,272.179169 170.738770,273.691132 
	C175.689316,274.834991 179.315308,279.594971 179.131210,284.708191 
	C178.939819,290.024292 174.643433,294.279083 167.992523,295.322693 
z"/>
<path fill="#000000" opacity="1.000000" stroke="none" 
	d="
M342.932892,273.734131 
	C348.327332,272.678009 352.621216,273.861176 355.527924,278.258514 
	C358.041351,282.060852 358.103119,286.109650 355.686646,290.022583 
	C353.165375,294.105255 349.424255,295.828308 344.657562,295.260864 
	C339.922607,294.697174 336.357422,291.162628 335.387421,286.113434 
	C334.411926,281.035645 336.732727,277.059082 342.932892,273.734131 
z"/>
<path fill="#000000" opacity="1.000000" stroke="none" 
	d="
M182.230835,326.309235 
	C175.101196,330.526978 168.540512,329.145660 165.298004,323.036285 
	C162.242538,317.279297 164.732407,310.468475 170.920303,307.656738 
	C175.284531,305.673676 180.909714,307.186279 183.895889,311.145844 
	C187.424072,315.824127 187.017471,320.320892 182.230835,326.309235 
z"/>
<path fill="#000000" opacity="1.000000" stroke="none" 
	d="
M301.607605,367.617584 
	C299.680237,374.598419 295.898163,377.620361 289.884521,377.311615 
	C285.194427,377.070831 280.796509,373.437592 279.830688,369.005920 
	C278.666107,363.662048 281.242676,358.404633 286.180176,356.214844 
	C293.021698,353.180664 302.409790,357.762695 301.607605,367.617584 
z"/>
<path fill="#000000" opacity="1.000000" stroke="none" 
	d="
M281.225403,196.615128 
	C284.755035,191.578659 289.332886,190.304565 294.578918,192.011536 
	C298.920471,193.424225 301.152832,196.744141 301.511749,201.384476 
	C301.905701,206.477417 299.768677,210.114792 295.307465,212.258743 
	C291.024567,214.316971 286.897430,213.698654 283.294037,210.521957 
	C279.372864,207.065125 278.664673,202.662872 281.225403,196.615128 
z"/>
<path fill="#000000" opacity="1.000000" stroke="none" 
	d="
M249.247665,187.256119 
	C253.694290,183.454880 258.191132,183.044083 262.882080,185.798523 
	C266.868378,188.139175 268.646545,191.874496 268.082520,196.318665 
	C267.494843,200.949249 264.717010,204.173798 260.174805,205.686737 
	C256.068726,207.054382 250.944061,205.338928 248.206284,201.686630 
	C244.895447,197.269852 245.107071,193.377594 249.247665,187.256119 
z"/>
<path fill="#000000" opacity="1.000000" stroke="none" 
	d="
M309.534485,350.199554 
	C308.700012,343.071930 312.184814,337.729095 317.971802,336.742432 
	C324.207275,335.679291 329.490234,338.939667 331.040710,344.807892 
	C332.441040,350.107819 329.100128,356.285461 323.892395,358.025818 
	C317.954041,360.010376 312.511993,357.171509 309.534485,350.199554 
z"/>
<path fill="#000000" opacity="1.000000" stroke="none" 
	d="
M214.196716,372.422943 
	C210.381119,363.160767 215.499084,354.535217 223.961411,355.254974 
	C229.248795,355.704681 233.387711,359.169769 234.251205,363.869537 
	C235.226135,369.175751 232.893784,373.956055 228.175598,376.321869 
	C223.562424,378.635010 218.973480,377.446777 214.196716,372.422943 
z"/>
<path fill="#000000" opacity="1.000000" stroke="none" 
	d="
M221.434387,213.193634 
	C215.993576,211.450836 212.687698,208.414291 212.632645,202.695786 
	C212.572128,196.411163 216.963394,191.416428 222.753387,191.292114 
	C229.123581,191.155350 233.969131,195.326523 234.333344,201.260406 
	C234.726364,207.663742 230.557526,212.697739 224.343506,213.281204 
	C223.519394,213.358582 222.679184,213.264679 221.434387,213.193634 
z"/>
<path fill="#000000" opacity="1.000000" stroke="none" 
	d="
M191.488541,358.213684 
	C186.102875,356.631561 183.147934,353.279816 182.815277,348.119202 
	C182.510773,343.395172 184.744507,339.727509 189.005463,337.657593 
	C193.051834,335.691895 197.076752,336.227905 200.726959,338.855713 
	C204.411896,341.508514 205.902634,346.532532 204.396164,350.816620 
	C202.528168,356.128662 198.669006,358.433685 191.488541,358.213684 
z"/>
</svg>