<svg version="1.1" id="Layer_1" xmlns="http://www.w3.org/2000/svg" xmlns:xlink="http://www.w3.org/1999/xlink" x="0px" y="0px"
	 width="100%" viewBox="0 0 512 512" enable-background="new 0 0 512 512" xml:space="preserve">
<path fill="#000000" opacity="1.000000" stroke="none" 
	d="
M278.014313,406.258331 
	C281.159698,414.554474 279.323975,419.863617 271.861969,424.217255 
	C268.321350,426.282990 264.577148,427.999817 261.068420,429.801178 
	C261.323120,432.040649 262.865356,432.128754 264.017426,432.566956 
	C265.410248,433.096741 266.914154,433.330353 268.317780,433.836792 
	C272.741516,435.433044 277.760803,436.936493 278.062469,442.539246 
	C278.375183,448.347504 273.266846,449.865326 268.974152,451.723175 
	C266.340027,452.863159 263.190369,452.938812 260.608612,455.409729 
	C264.463867,457.825256 268.277710,457.859406 272.001312,457.671204 
	C277.132263,457.411926 277.362152,460.401123 277.437531,464.346039 
	C277.516113,468.458618 275.751556,469.468536 272.041473,469.353455 
	C264.697479,469.125671 257.446320,468.460449 250.402344,466.256744 
	C248.003754,465.506409 245.731491,464.505768 243.921127,462.667297 
	C239.556564,458.234863 240.055954,452.768524 245.493988,449.761749 
	C248.958450,447.846191 252.836243,446.683319 256.510376,445.139313 
	C257.968994,444.526337 259.847137,444.588470 260.726624,442.569305 
	C258.229919,440.353882 254.904724,440.427521 252.019943,439.388489 
	C249.837006,438.602295 247.475037,438.202301 245.431366,437.161774 
	C240.121689,434.458405 239.680695,429.961090 244.161972,426.006866 
	C247.872925,422.732361 252.694122,421.587006 256.948425,419.354645 
	C258.783661,418.391632 261.173126,418.101868 262.170410,415.139435 
	C253.344696,410.883759 245.119537,414.872284 236.874130,416.922363 
	C236.455261,416.331268 236.039398,415.977905 235.921310,415.543579 
	C233.171997,405.430969 233.710953,404.528809 243.821716,401.929565 
	C252.121857,399.795715 260.467316,398.598572 268.950989,400.786285 
	C272.363739,401.666321 275.661560,402.827332 278.014313,406.258331 
z"/>
<path fill="#000000" opacity="1.000000" stroke="none" 
	d="
M328.474792,321.112427 
	C327.319916,313.974091 330.765442,308.339355 336.763580,306.963959 
	C342.153992,305.727936 347.895782,309.137451 349.712402,314.653137 
	C351.446838,319.919220 348.564606,325.890717 343.188324,328.169983 
	C337.439758,330.607117 332.095917,328.158905 328.474792,321.112427 
z"/>
<path fill="#000000" opacity="1.000000" stroke="none" 
	d="
M335.617065,287.093933 
	C333.671265,280.943542 338.600861,274.939514 342.922943,273.709198 
	C347.871948,272.300446 353.361511,274.348358 355.882843,278.748199 
	C358.545898,283.395355 357.500122,289.295563 353.398529,292.764740 
	C349.445984,296.107849 343.644867,296.281891 339.561462,293.156769 
	C337.652313,291.695648 336.390686,289.775848 335.617065,287.093933 
z"/>
<path fill="#000000" opacity="1.000000" stroke="none" 
	d="
M247.579178,367.854736 
	C251.067566,362.704376 255.746887,361.576996 260.967621,363.181000 
	C265.346222,364.526306 267.745422,368.057709 268.149139,372.538147 
	C268.554932,377.041321 266.601837,380.643311 262.677246,383.013153 
	C258.734406,385.393921 253.041260,384.832001 249.612244,381.806183 
	C245.793274,378.436279 245.031296,373.793579 247.579178,367.854736 
z"/>
<path fill="#000000" opacity="1.000000" stroke="none" 
	d="
M185.633240,321.138397 
	C182.474762,327.241119 178.157013,329.850311 173.310394,328.866272 
	C168.293640,327.847687 164.579071,323.959412 163.949570,319.067780 
	C163.365967,314.532898 166.441986,309.619202 171.113144,307.583679 
	C175.056152,305.865509 178.743286,306.730316 181.890411,309.224182 
	C185.551834,312.125610 187.039871,316.056549 185.633240,321.138397 
z"/>
<path fill="#000000" opacity="1.000000" stroke="none" 
	d="
M174.077209,293.363007 
	C168.295898,296.290436 163.695984,295.800354 160.008606,292.106934 
	C156.695206,288.788116 155.767242,283.661591 157.757462,279.670227 
	C160.008606,275.155579 164.284943,272.835693 169.209412,273.457581 
	C174.547546,274.131683 177.904404,277.285553 178.877869,282.698181 
	C179.673843,287.123993 177.591873,290.390594 174.077209,293.363007 
z"/>
<path fill="#000000" opacity="1.000000" stroke="none" 
	d="
M331.345612,258.688110 
	C327.539520,254.310837 326.731781,249.845703 329.635742,245.108444 
	C332.117065,241.060684 335.808075,239.091843 340.607361,239.774582 
	C345.368469,240.451904 348.479828,243.246536 349.782806,247.836975 
	C351.180084,252.759705 349.333618,256.675232 345.409821,259.638092 
	C341.251862,262.777771 336.965240,262.493774 331.345612,258.688110 
z"/>
<path fill="#000000" opacity="1.000000" stroke="none" 
	d="
M163.967773,249.373718 
	C167.305511,239.779129 175.801666,236.565292 182.251953,242.248459 
	C185.574402,245.175751 187.128448,248.978394 185.809540,253.485992 
	C184.442703,258.157349 180.152191,261.769867 175.640198,261.769165 
	C171.004028,261.768463 167.195450,259.981293 165.093567,255.561646 
	C164.232864,253.751801 163.625809,251.839462 163.967773,249.373718 
z"/>
<path fill="#000000" opacity="1.000000" stroke="none" 
	d="
M319.241791,232.181961 
	C311.135498,231.596130 306.737305,222.161682 310.552643,215.911697 
	C312.973938,211.945358 316.437134,209.511337 321.281219,210.033035 
	C326.329956,210.576767 330.218781,214.052429 331.125275,218.652542 
	C332.099121,223.594650 330.292297,227.482254 326.235077,230.331482 
	C324.284119,231.701569 322.083862,232.427765 319.241791,232.181961 
z"/>
<path fill="#000000" opacity="1.000000" stroke="none" 
	d="
M201.246490,229.364822 
	C196.626465,232.796173 192.104172,233.311157 187.581741,230.222885 
	C183.852509,227.676270 182.143066,223.918045 182.865341,219.463852 
	C183.617218,214.827118 186.516144,211.794617 191.045380,210.413681 
	C195.153748,209.161041 200.454193,211.045395 202.906418,214.606293 
	C206.156631,219.325943 205.777725,223.375702 201.246490,229.364822 
z"/>
<path fill="#000000" opacity="1.000000" stroke="none" 
	d="
M247.442291,189.743713 
	C251.559631,184.420486 255.047821,183.070297 260.063660,184.601151 
	C265.035400,186.118530 268.218262,189.871231 268.200958,194.753281 
	C268.183350,199.703018 265.721069,203.310883 261.199890,205.353561 
	C256.662964,207.403336 252.564056,206.040649 249.272110,202.846146 
	C245.575302,199.258759 244.711151,194.843658 247.442291,189.743713 
z"/>
<path fill="#000000" opacity="1.000000" stroke="none" 
	d="
M296.756470,357.022339 
	C301.471893,360.574646 302.664368,365.086792 301.010498,370.098450 
	C299.676331,374.141327 296.545990,376.678406 292.194519,377.249969 
	C287.440552,377.874359 283.595123,376.113159 281.172211,372.008575 
	C278.653168,367.741150 278.945648,363.388367 282.027191,359.433807 
	C285.389191,355.119415 290.115692,354.321350 296.756470,357.022339 
z"/>
<path fill="#000000" opacity="1.000000" stroke="none" 
	d="
M283.432404,210.674927 
	C279.380524,206.732605 278.534302,202.373138 280.671722,197.665436 
	C282.546173,193.536835 286.013580,191.290161 290.584076,191.328568 
	C295.505890,191.369934 299.255768,193.568222 301.020538,198.350449 
	C302.718445,202.951401 301.210846,208.087601 297.543060,210.940948 
	C293.412323,214.154449 288.987091,214.152206 283.432404,210.674927 
z"/>
<path fill="#000000" opacity="1.000000" stroke="none" 
	d="
M318.379578,336.713104 
	C328.728607,335.107300 333.773376,345.996735 330.225494,352.385437 
	C327.628052,357.062653 322.848633,359.365997 317.648621,358.258972 
	C313.152588,357.301880 309.589905,353.168030 309.113312,348.355255 
	C308.599243,343.164124 311.698700,339.094360 318.379578,336.713104 
z"/>
<path fill="#000000" opacity="1.000000" stroke="none" 
	d="
M219.987213,355.721863 
	C226.899414,354.719543 231.397858,356.834442 233.569107,361.841187 
	C235.529083,366.360748 234.203445,371.839050 230.407501,374.906769 
	C226.378784,378.162567 220.889191,378.124664 216.565063,375.025513 
	C210.833130,370.917328 210.762329,359.300354 219.987213,355.721863 
z"/>
<path fill="#000000" opacity="1.000000" stroke="none" 
	d="
M219.987015,191.735077 
	C225.353302,190.650116 229.694153,191.796417 232.607971,196.120010 
	C235.112808,199.836792 235.245514,203.952637 232.921600,207.857849 
	C230.494858,211.935944 226.774734,213.906189 222.022964,213.223206 
	C217.357712,212.552673 214.039185,209.929276 212.857132,205.262970 
	C211.401947,199.518387 213.581284,195.411102 219.987015,191.735077 
z"/>
<path fill="#000000" opacity="1.000000" stroke="none" 
	d="
M199.491302,356.949890 
	C192.570969,359.623077 186.905319,357.946808 184.120636,352.712830 
	C181.438126,347.670868 182.789810,341.903320 187.426529,338.607239 
	C192.160095,335.242249 199.010284,336.182587 202.597473,340.689789 
	C206.708817,345.855591 205.730881,351.537567 199.491302,356.949890 
z"/>
</svg>