<svg version="1.1" id="Layer_1" xmlns="http://www.w3.org/2000/svg" xmlns:xlink="http://www.w3.org/1999/xlink" x="0px" y="0px"
	 width="100%" viewBox="0 0 512 512" enable-background="new 0 0 512 512" xml:space="preserve">
<path fill="#000000" opacity="1.000000" stroke="none" 
	d="
M207.567566,105.841362 
	C211.265762,106.546600 210.631927,109.469337 211.009995,111.517662 
	C213.441742,124.692749 222.252029,130.768875 235.520325,128.291992 
	C250.829666,125.434074 264.937622,118.791924 279.738892,114.332054 
	C294.292938,109.946678 309.080292,107.174126 324.311615,106.600296 
	C329.254272,106.414085 330.734863,108.150398 330.424530,112.872704 
	C330.075745,118.180000 330.277466,123.529129 330.373108,128.857651 
	C330.423096,131.642105 329.617676,133.310349 326.478027,133.275467 
	C307.083588,133.059845 289.234497,139.477554 271.406494,146.075729 
	C256.578796,151.563522 241.778122,157.054718 225.481201,156.312256 
	C206.334549,155.439972 192.230545,146.553085 186.433990,131.159943 
	C183.800613,124.166847 183.420593,116.906425 183.591019,109.541161 
	C183.656342,106.717865 184.990143,105.755127 187.625168,105.779587 
	C194.120682,105.839859 200.617096,105.800858 207.567566,105.841362 
z"/>
<path fill="#000000" opacity="1.000000" stroke="none" 
	d="
M338.176575,306.758911 
	C348.900421,308.027130 353.595337,317.108978 347.751495,324.649536 
	C345.154968,327.999969 341.598572,329.693909 337.282928,328.846222 
	C332.443207,327.895569 329.303345,324.892700 328.175354,320.096069 
	C327.114807,315.586273 329.026703,312.015137 332.379211,309.138947 
	C333.907013,307.828217 335.738556,307.040039 338.176575,306.758911 
z"/>
<path fill="#000000" opacity="1.000000" stroke="none" 
	d="
M250.165924,364.926178 
	C256.521332,361.176605 262.867035,362.208313 266.265228,367.253448 
	C269.486481,372.035767 268.585663,378.419220 264.181152,382.021454 
	C259.641663,385.734192 252.803589,385.310120 248.862808,381.071625 
	C244.493317,376.371979 244.834396,370.893188 250.165924,364.926178 
z"/>
<path fill="#000000" opacity="1.000000" stroke="none" 
	d="
M184.271698,215.621185 
	C188.844955,210.094299 192.610168,208.857834 197.981430,210.876373 
	C202.840332,212.702377 204.758606,216.647141 205.029068,221.409302 
	C205.273438,225.712265 201.513611,230.251999 196.931931,231.719208 
	C192.689728,233.077713 188.936584,231.916214 185.974686,228.814819 
	C182.405029,225.076996 181.652100,220.690887 184.271698,215.621185 
z"/>
<path fill="#000000" opacity="1.000000" stroke="none" 
	d="
M310.470673,226.239014 
	C308.280579,219.053162 309.603485,214.817047 314.744629,211.624939 
	C318.978333,208.996246 324.447327,209.626633 328.035797,213.157013 
	C332.723907,217.769241 332.416168,225.141129 327.353851,229.493164 
	C322.057678,234.046234 315.353058,232.875946 310.470673,226.239014 
z"/>
<path fill="#000000" opacity="1.000000" stroke="none" 
	d="
M184.142242,256.894928 
	C179.453339,261.771179 175.436279,262.920258 170.571548,260.830780 
	C166.326462,259.007477 164.077484,255.498505 163.948898,251.050980 
	C163.812866,246.345673 166.238525,242.817291 170.493073,240.682648 
	C174.472092,238.686234 179.762054,239.634308 182.940079,242.861328 
	C186.627472,246.605621 187.072571,250.912872 184.142242,256.894928 
z"/>
<path fill="#000000" opacity="1.000000" stroke="none" 
	d="
M328.782379,254.837616 
	C327.019135,247.809662 329.932709,241.967133 335.838959,240.060974 
	C341.134796,238.351822 347.145416,241.259857 349.344543,246.595276 
	C351.499481,251.823547 349.216522,257.840607 344.035828,260.587189 
	C338.717377,263.406799 332.772797,261.293518 328.782379,254.837616 
z"/>
<path fill="#000000" opacity="1.000000" stroke="none" 
	d="
M179.126282,284.853760 
	C177.979187,290.395081 175.208420,294.190247 169.840668,295.170197 
	C165.200943,296.017242 161.249802,294.350189 158.614029,290.322205 
	C156.243454,286.699524 155.858017,282.804718 158.157303,279.002197 
	C160.588959,274.980774 164.124222,272.878510 169.002319,273.407196 
	C173.588516,273.904266 176.766846,276.186340 178.292221,280.568695 
	C178.725327,281.813019 178.871277,283.157318 179.126282,284.853760 
z"/>
<path fill="#000000" opacity="1.000000" stroke="none" 
	d="
M349.021942,273.698944 
	C355.679565,276.530975 358.547668,281.497772 357.078461,287.037354 
	C355.709747,292.198059 350.898987,295.624634 345.466522,295.308289 
	C340.101746,294.995850 335.982269,291.022339 335.241943,285.446045 
	C334.262360,278.067657 340.431763,272.630829 349.021942,273.698944 
z"/>
<path fill="#000000" opacity="1.000000" stroke="none" 
	d="
M182.824783,325.815552 
	C175.556137,330.602783 168.925201,329.513855 165.438507,323.273499 
	C162.239532,317.548096 164.539719,310.722778 170.664948,307.765320 
	C174.854294,305.742493 180.217957,306.912292 183.406128,310.544128 
	C187.239044,314.910492 187.145233,319.538971 182.824783,325.815552 
z"/>
<path fill="#000000" opacity="1.000000" stroke="none" 
	d="
M265.361481,187.715271 
	C268.836273,192.372665 269.261169,196.924759 266.057800,201.402313 
	C263.454620,205.040955 259.813019,207.005753 255.241974,205.997101 
	C250.490326,204.948547 247.143753,202.126587 246.138367,197.157867 
	C245.170486,192.374496 247.117172,188.655426 250.952881,185.968597 
	C255.455261,182.814758 259.423340,183.317032 265.361481,187.715271 
z"/>
<path fill="#000000" opacity="1.000000" stroke="none" 
	d="
M284.417969,357.249146 
	C290.175140,354.496765 295.133820,354.994263 298.533722,358.414429 
	C301.785553,361.685669 302.628937,367.288452 300.482452,371.359619 
	C298.201691,375.685486 293.743042,377.998962 288.826599,377.237518 
	C284.479523,376.564240 281.428833,373.937408 280.163879,369.877960 
	C278.654114,365.032806 279.831207,360.665039 284.417969,357.249146 
z"/>
<path fill="#000000" opacity="1.000000" stroke="none" 
	d="
M300.356873,196.950394 
	C302.433685,202.415924 302.098907,207.150848 297.630157,210.817459 
	C293.959534,213.829193 289.726013,214.332336 285.523956,212.085587 
	C281.154327,209.749237 279.114136,205.901627 279.719360,200.912338 
	C280.301208,196.115646 283.160370,192.929688 287.699829,191.763184 
	C292.815247,190.448685 297.222961,191.894852 300.356873,196.950394 
z"/>
<path fill="#000000" opacity="1.000000" stroke="none" 
	d="
M323.832886,358.045349 
	C313.591797,359.009888 307.275299,352.980743 309.546661,344.764893 
	C310.877197,339.952118 314.100372,337.119843 319.139435,336.690063 
	C324.573181,336.226562 328.321045,338.438507 330.361664,343.126007 
	C332.394409,347.795441 331.410278,351.927490 327.897552,355.442230 
	C326.865723,356.474670 325.434631,357.108032 323.832886,358.045349 
z"/>
<path fill="#000000" opacity="1.000000" stroke="none" 
	d="
M220.741180,191.570740 
	C229.578262,191.059265 234.424942,195.078751 234.352524,202.468231 
	C234.288025,209.048203 228.828003,213.922516 222.247742,213.274506 
	C217.743774,212.830963 213.603745,209.218765 212.772858,205.007645 
	C211.578171,198.952713 214.020752,194.652802 220.741180,191.570740 
z"/>
<path fill="#000000" opacity="1.000000" stroke="none" 
	d="
M212.635986,366.924500 
	C213.122421,360.237640 216.167633,356.371735 221.356262,355.412537 
	C226.423721,354.475739 231.546997,357.175079 233.573593,361.849487 
	C235.528381,366.358246 234.203995,371.819824 230.409836,374.896423 
	C226.389328,378.156555 220.848557,378.235901 216.607269,375.011963 
	C214.098740,373.105103 212.682678,370.569427 212.635986,366.924500 
z"/>
<path fill="#000000" opacity="1.000000" stroke="none" 
	d="
M194.790390,336.659790 
	C201.753952,338.257599 205.271774,342.246735 205.084869,347.868103 
	C204.915359,352.966370 200.471390,357.785126 195.437653,358.328949 
	C189.582291,358.961578 184.849503,355.922119 183.190674,350.463776 
	C181.050034,343.420013 186.206299,337.043335 194.790390,336.659790 
z"/>
</svg>