<svg version="1.1" id="Layer_1" xmlns="http://www.w3.org/2000/svg" xmlns:xlink="http://www.w3.org/1999/xlink" x="0px" y="0px"
	 width="100%" viewBox="0 0 512 512" enable-background="new 0 0 512 512" xml:space="preserve">
<path fill="#000000" opacity="1.000000" stroke="none" 
	d="
M291.999939,157.260559 
	C280.013367,157.259842 268.526215,157.193512 257.040649,157.301117 
	C253.933823,157.330231 251.210876,156.609650 248.493362,155.134033 
	C232.698730,146.557541 216.896790,137.991623 200.986679,129.632736 
	C197.148270,127.616104 195.801437,125.785004 198.377701,121.630875 
	C201.791199,116.126732 204.762894,110.324310 207.583267,104.485268 
	C209.421402,100.679779 211.440445,100.382202 214.990189,102.369736 
	C228.347809,109.848801 241.872391,117.029053 255.268890,124.439713 
	C258.433319,126.190193 261.632477,126.979416 265.248291,126.954758 
	C280.562988,126.850311 295.878845,126.902466 311.194244,126.925468 
	C317.637573,126.935143 317.854187,127.140289 317.923645,133.724472 
	C317.985107,139.550171 317.799957,145.381104 317.975342,151.202133 
	C318.105621,155.526688 316.780762,157.619522 311.972107,157.347702 
	C305.500427,156.981903 298.992371,157.259109 291.999939,157.260559 
z"/>
<path fill="#000000" opacity="1.000000" stroke="none" 
	d="
M327.993408,316.412842 
	C330.395599,309.704315 334.321411,306.492279 339.415924,306.735809 
	C344.912781,306.998566 349.593658,311.289246 350.214813,316.634521 
	C350.837097,321.989319 346.897949,327.381622 341.346741,328.774017 
	C336.483398,329.993896 330.973145,327.080658 328.839111,322.121582 
	C328.113159,320.434692 327.632782,318.681183 327.993408,316.412842 
z"/>
<path fill="#000000" opacity="1.000000" stroke="none" 
	d="
M252.165100,363.582581 
	C259.661682,361.673340 264.420624,363.348267 266.987640,368.483398 
	C269.309845,373.128815 268.169037,378.728271 264.237610,381.981812 
	C259.416382,385.971649 252.057129,385.234955 248.258896,380.382294 
	C243.962051,374.892578 245.261246,368.800446 252.165100,363.582581 
z"/>
<path fill="#000000" opacity="1.000000" stroke="none" 
	d="
M165.428574,323.265442 
	C162.623032,315.815704 165.285233,309.459564 171.794998,307.254852 
	C177.535736,305.310638 183.931274,308.861176 185.781906,315.019806 
	C187.255096,319.922394 184.709885,325.426453 179.845428,327.857513 
	C174.695938,330.431030 169.843811,328.977386 165.428574,323.265442 
z"/>
<path fill="#000000" opacity="1.000000" stroke="none" 
	d="
M338.431122,276.425232 
	C345.177673,271.805359 352.129791,272.718781 355.662628,278.385590 
	C359.014557,283.762238 357.242615,290.724609 351.695557,293.973053 
	C347.530243,296.412323 341.710449,295.603119 338.345001,292.116699 
	C334.302582,287.928955 334.239624,282.578186 338.431122,276.425232 
z"/>
<path fill="#000000" opacity="1.000000" stroke="none" 
	d="
M179.131195,284.854584 
	C178.001648,290.363800 175.247040,294.144928 169.937881,295.161469 
	C165.349121,296.040070 161.378784,294.447540 158.708466,290.483582 
	C156.193863,286.750702 155.810379,282.715637 158.220825,278.793335 
	C160.558380,274.989716 164.027695,272.972595 168.617599,273.353973 
	C173.332047,273.745697 176.741272,275.989410 178.300598,280.593567 
	C178.721024,281.834991 178.875977,283.166290 179.131195,284.854584 
z"/>
<path fill="#000000" opacity="1.000000" stroke="none" 
	d="
M163.852127,250.972107 
	C164.466827,245.015152 167.353043,241.096344 172.815216,239.900528 
	C177.573929,238.858749 181.724655,240.516953 184.447586,244.812134 
	C187.965454,250.361282 185.950516,257.441803 180.032333,260.565857 
	C174.484390,263.494537 167.498398,261.051025 164.930466,255.208908 
	C164.402161,254.006958 164.206696,252.658707 163.852127,250.972107 
z"/>
<path fill="#000000" opacity="1.000000" stroke="none" 
	d="
M350.080139,252.537598 
	C347.144836,262.862854 336.728516,263.832916 331.532104,258.817993 
	C328.160645,255.564285 326.840210,251.567352 328.706421,246.997787 
	C330.485870,242.640823 333.644196,239.909531 338.488831,239.709442 
	C343.478058,239.503418 347.119629,241.735855 349.234344,246.307571 
	C350.088348,248.153809 350.488647,250.092743 350.080139,252.537598 
z"/>
<path fill="#000000" opacity="1.000000" stroke="none" 
	d="
M322.392487,210.276794 
	C329.191132,212.652100 332.287537,217.342453 331.222168,223.179718 
	C330.318756,228.129288 325.100342,232.377182 320.095551,232.236954 
	C314.432556,232.078293 310.071503,228.115891 309.259735,222.391693 
	C308.262512,215.359695 314.165253,209.699982 322.392487,210.276794 
z"/>
<path fill="#000000" opacity="1.000000" stroke="none" 
	d="
M182.823776,219.370056 
	C184.434402,213.572739 188.021408,210.170807 193.568771,210.036514 
	C198.068893,209.927582 201.980804,211.961746 203.932083,216.527054 
	C206.637848,222.857529 203.608307,229.482559 196.981750,231.717422 
	C191.171692,233.676971 184.701019,230.007675 183.080765,223.735413 
	C182.754913,222.473938 182.860336,221.101089 182.823776,219.370056 
z"/>
<path fill="#000000" opacity="1.000000" stroke="none" 
	d="
M261.725464,205.137909 
	C254.515854,207.350021 248.544769,204.579102 246.497940,198.407394 
	C244.585510,192.640900 247.744675,186.630325 253.789124,184.535263 
	C258.507782,182.899765 264.712341,185.477753 266.950317,190.003677 
	C269.703491,195.571671 268.061401,200.623383 261.725464,205.137909 
z"/>
<path fill="#000000" opacity="1.000000" stroke="none" 
	d="
M279.941406,205.375061 
	C278.019989,197.082672 284.501007,191.234131 290.539764,191.277267 
	C296.067108,191.316757 300.307007,194.644577 301.338348,199.755112 
	C302.471771,205.371384 300.113708,210.122086 295.033966,212.456390 
	C290.356995,214.605591 285.029694,213.176834 281.735107,208.808273 
	C281.045044,207.893295 280.603333,206.791016 279.941406,205.375061 
z"/>
<path fill="#000000" opacity="1.000000" stroke="none" 
	d="
M279.928772,369.380615 
	C277.971466,360.337555 285.363373,354.923401 291.038422,355.273254 
	C296.593903,355.615662 300.517578,358.982025 301.409454,364.264740 
	C302.328217,369.706848 299.966003,374.231720 295.028809,376.487457 
	C290.340576,378.629395 285.004395,377.191071 281.718994,372.819061 
	C281.029755,371.901855 280.587280,370.799255 279.928772,369.380615 
z"/>
<path fill="#000000" opacity="1.000000" stroke="none" 
	d="
M312.552673,355.478394 
	C308.324219,349.829163 308.016937,345.512238 311.276428,341.078827 
	C314.324249,336.933319 319.837067,335.398315 324.658234,337.352783 
	C328.972748,339.101837 331.692169,343.661438 331.303741,348.580383 
	C330.650757,356.849701 320.201202,362.109253 312.552673,355.478394 
z"/>
<path fill="#000000" opacity="1.000000" stroke="none" 
	d="
M227.891495,212.418304 
	C222.598068,214.337967 218.315170,213.172699 214.944687,209.334335 
	C212.057312,206.046127 211.852020,202.007965 213.376633,198.111572 
	C215.010193,193.936707 218.284348,191.313599 222.872162,191.295685 
	C227.422440,191.277924 231.370117,192.952454 233.356934,197.457306 
	C235.157410,201.539642 234.959656,205.561111 232.034424,209.097336 
	C231.007004,210.339340 229.530090,211.209503 227.891495,212.418304 
z"/>
<path fill="#000000" opacity="1.000000" stroke="none" 
	d="
M230.611298,374.730682 
	C223.884201,378.818665 217.604095,377.800049 214.160461,372.363251 
	C210.926697,367.257782 212.430283,360.405212 217.539093,356.964905 
	C221.760986,354.121918 228.113968,354.936859 231.631454,358.772705 
	C235.568405,363.066010 235.301468,368.928406 230.611298,374.730682 
z"/>
<path fill="#000000" opacity="1.000000" stroke="none" 
	d="
M202.913574,353.734802 
	C199.262344,358.355652 194.865616,359.431488 189.806030,357.644867 
	C185.445206,356.104980 183.131088,352.700317 182.818680,348.231049 
	C182.488342,343.505676 184.717484,339.923431 188.900833,337.673462 
	C192.819885,335.565674 198.489044,336.513977 201.811386,339.739319 
	C205.285751,343.112244 205.755966,347.970154 202.913574,353.734802 
z"/>
</svg>