<svg version="1.1" id="Layer_1" xmlns="http://www.w3.org/2000/svg" xmlns:xlink="http://www.w3.org/1999/xlink" x="0px" y="0px"
	 width="100%" viewBox="0 0 512 512" enable-background="new 0 0 512 512" xml:space="preserve">
<path fill="#000000" opacity="1.000000" stroke="none" 
	d="
M254.688385,134.977631 
	C243.359833,133.740540 232.373322,134.545197 221.400848,134.347824 
	C214.408188,134.222031 207.410507,134.232681 200.417450,134.338593 
	C197.477371,134.383102 196.057068,133.226913 196.108826,130.277206 
	C196.237122,122.966156 196.416077,115.655075 196.439163,108.343575 
	C196.447906,105.575485 197.580612,104.669647 200.322266,104.541985 
	C219.799500,103.635101 239.284042,104.357269 258.762756,104.125343 
	C261.544128,104.092232 263.906403,105.300545 266.265381,106.578506 
	C282.075287,115.143471 297.838806,123.797203 313.751862,132.166428 
	C317.556946,134.167664 317.854401,136.101074 315.799194,139.561188 
	C312.486328,145.138718 309.292480,150.818054 306.533173,156.682495 
	C304.650085,160.684769 302.766479,161.208420 298.911285,159.049942 
	C284.386414,150.917664 269.689697,143.092361 254.688385,134.977631 
z"/>
<path fill="#000000" opacity="1.000000" stroke="none" 
	d="
M340.591064,328.965820 
	C335.087097,329.137848 331.227692,327.080933 328.961212,322.401337 
	C327.027496,318.408691 327.640869,314.600677 330.307251,311.221741 
	C333.206451,307.547729 337.014496,305.881165 341.725677,307.139191 
	C346.542267,308.425415 349.515076,311.647522 350.124298,316.520630 
	C350.705994,321.173462 348.717834,324.922791 344.629303,327.360107 
	C343.509491,328.027649 342.205170,328.385681 340.591064,328.965820 
z"/>
<path fill="#000000" opacity="1.000000" stroke="none" 
	d="
M165.309082,312.653046 
	C169.741104,307.056793 173.673767,305.625763 178.790573,307.491394 
	C183.349716,309.153748 186.394028,313.501190 186.256027,318.152466 
	C186.114822,322.911713 182.650024,327.183380 177.787598,328.636444 
	C173.688538,329.861420 170.126541,328.542236 167.323135,325.748413 
	C163.716599,322.154175 162.833954,317.761505 165.309082,312.653046 
z"/>
<path fill="#000000" opacity="1.000000" stroke="none" 
	d="
M267.830750,376.307953 
	C264.794586,382.891235 261.388672,385.038879 255.369278,384.345093 
	C250.279846,383.758484 247.426575,380.579468 246.139465,375.882660 
	C244.950363,371.543549 247.188217,366.529572 251.437592,364.034729 
	C255.157959,361.850403 259.142578,361.880554 262.768097,364.043793 
	C267.180603,366.676697 268.902161,370.795258 267.830750,376.307953 
z"/>
<path fill="#000000" opacity="1.000000" stroke="none" 
	d="
M171.253418,294.914490 
	C164.218185,295.613098 160.107147,293.807678 157.907654,289.169220 
	C155.878586,284.890198 156.241089,280.805389 159.418137,277.154633 
	C162.572479,273.529968 166.577209,272.568695 171.105606,273.767548 
	C175.587402,274.954071 177.965378,278.136078 178.855194,282.537384 
	C179.745026,286.938568 177.740082,290.233551 174.614639,292.995117 
	C173.764465,293.746307 172.639709,294.186707 171.253418,294.914490 
z"/>
<path fill="#000000" opacity="1.000000" stroke="none" 
	d="
M327.944824,213.053070 
	C332.030853,218.626251 332.469086,222.828400 329.477356,227.060028 
	C326.767975,230.892349 323.131561,232.909485 318.314423,232.005905 
	C313.320221,231.069077 310.048279,227.648239 309.322845,222.574707 
	C308.665741,217.979095 310.571320,214.489334 314.306915,211.915680 
	C318.978577,208.697128 323.397614,209.642990 327.944824,213.053070 
z"/>
<path fill="#000000" opacity="1.000000" stroke="none" 
	d="
M164.653854,247.069031 
	C169.362885,238.825775 177.895416,237.225754 183.274490,243.219238 
	C187.038742,247.413483 187.241730,252.877747 183.800888,257.391083 
	C180.639359,261.538116 175.267883,262.886932 170.372681,260.763062 
	C165.443726,258.624481 163.194290,253.487473 164.653854,247.069031 
z"/>
<path fill="#000000" opacity="1.000000" stroke="none" 
	d="
M341.484070,239.884140 
	C348.527039,242.861938 351.498077,247.949112 349.801910,253.510300 
	C348.110748,259.055023 343.092285,262.392761 337.669556,261.579498 
	C331.588104,260.667389 327.268921,255.436005 327.920319,249.771164 
	C328.655426,243.378632 333.673187,239.577499 341.484070,239.884140 
z"/>
<path fill="#000000" opacity="1.000000" stroke="none" 
	d="
M189.245270,231.178955 
	C183.278687,227.123642 181.372696,222.109756 183.556931,217.020248 
	C185.656769,212.127411 190.793823,209.233429 195.594269,210.238953 
	C202.174026,211.617188 206.232178,217.451660 204.743011,223.392258 
	C203.030212,230.224945 196.999695,233.390030 189.245270,231.178955 
z"/>
<path fill="#000000" opacity="1.000000" stroke="none" 
	d="
M335.614838,287.094421 
	C333.714935,281.671295 337.860291,275.467285 342.441925,273.855133 
	C347.233124,272.169159 352.915375,274.057678 355.619629,278.324585 
	C358.493347,282.858826 357.721802,288.797852 353.784027,292.454315 
	C350.009064,295.959686 344.229156,296.369812 339.960480,293.448425 
	C337.807953,291.975281 336.458771,289.939178 335.614838,287.094421 
z"/>
<path fill="#000000" opacity="1.000000" stroke="none" 
	d="
M299.293762,373.209320 
	C295.527008,377.408112 291.158417,378.455994 286.392792,376.502350 
	C282.260345,374.808350 279.844818,371.584961 279.649597,366.876465 
	C279.455841,362.203949 281.491760,358.869965 285.438080,356.630463 
	C289.521027,354.313416 295.099915,355.071625 298.407928,358.279572 
	C302.214508,361.971008 302.621307,367.380615 299.293762,373.209320 
z"/>
<path fill="#000000" opacity="1.000000" stroke="none" 
	d="
M290.092438,213.303925 
	C282.301239,211.748871 278.427704,206.461075 279.805786,199.825989 
	C280.996582,194.092560 287.043854,190.395203 293.184418,191.646194 
	C298.500702,192.729218 301.888672,197.219574 301.673828,202.897858 
	C301.452026,208.760040 297.300110,212.634003 290.092438,213.303925 
z"/>
<path fill="#000000" opacity="1.000000" stroke="none" 
	d="
M258.689423,206.157013 
	C253.171371,206.281616 249.282074,204.232864 246.962387,199.572632 
	C245.062836,195.756409 245.638290,192.074142 248.075500,188.767303 
	C250.595032,185.348785 253.997299,183.407654 258.402679,184.181900 
	C263.220032,185.028549 266.615662,187.623260 267.849640,192.568848 
	C268.984283,197.116394 267.336670,200.778152 263.924622,203.628891 
	C262.571442,204.759430 260.720032,205.293564 258.689423,206.157013 
z"/>
<path fill="#000000" opacity="1.000000" stroke="none" 
	d="
M320.902466,336.654358 
	C328.196869,337.943878 332.072754,342.799072 331.278687,349.131836 
	C330.587158,354.646881 325.486053,358.705292 319.594086,358.428101 
	C313.661804,358.148987 308.960114,353.195465 309.046631,347.315613 
	C309.135437,341.280640 313.547028,337.159027 320.902466,336.654358 
z"/>
<path fill="#000000" opacity="1.000000" stroke="none" 
	d="
M217.934937,192.732178 
	C223.881882,190.490112 228.791046,191.336823 231.848083,195.062469 
	C234.863998,198.738007 235.376862,202.952347 233.292206,207.141861 
	C231.110123,211.527191 227.368027,213.803101 222.334320,213.251999 
	C217.827362,212.758545 214.396820,210.374146 213.122604,206.027069 
	C211.596603,200.821060 212.841690,196.178238 217.934937,192.732178 
z"/>
<path fill="#000000" opacity="1.000000" stroke="none" 
	d="
M234.296265,364.369141 
	C234.283905,371.797272 231.028656,376.352020 225.438232,377.231995 
	C219.908661,378.102356 214.298721,374.741943 212.913681,369.729584 
	C211.382126,364.187103 214.131378,358.158966 219.179703,355.990417 
	C224.223312,353.823822 230.477127,356.103973 233.230698,361.168304 
	C233.697769,362.027313 233.925674,363.016388 234.296265,364.369141 
z"/>
<path fill="#000000" opacity="1.000000" stroke="none" 
	d="
M203.805527,342.525879 
	C205.946472,349.845276 204.019989,354.916748 198.424896,357.508728 
	C193.506989,359.786957 187.259842,357.907196 184.453705,353.304749 
	C181.269974,348.082947 182.628937,341.824158 187.687332,338.412079 
	C193.073090,334.779205 199.124359,336.206757 203.805527,342.525879 
z"/>
</svg>