<svg version="1.1" id="Layer_1" xmlns="http://www.w3.org/2000/svg" xmlns:xlink="http://www.w3.org/1999/xlink" x="0px" y="0px"
	 width="100%" viewBox="0 0 512 512" enable-background="new 0 0 512 512" xml:space="preserve">
<path fill="#000000" opacity="1.000000" stroke="none" 
	d="
M237.281189,112.228035 
	C247.385849,104.886414 258.427826,103.108025 270.242432,104.087700 
	C283.873657,105.218018 297.528168,103.821915 311.172882,104.126823 
	C317.572052,104.269821 317.840607,104.501831 317.884674,111.004021 
	C317.920807,116.332321 317.917572,121.661057 317.901367,126.989502 
	C317.879181,134.299881 317.866882,134.312698 310.789429,134.317596 
	C295.636322,134.328064 280.482788,134.385712 265.330444,134.278717 
	C261.888977,134.254440 258.868256,134.978897 255.841660,136.654648 
	C242.298904,144.152985 228.588425,151.351166 215.112503,158.965668 
	C211.204178,161.174042 209.334106,160.511475 207.456940,156.604080 
	C204.576859,150.609161 201.337051,144.775604 198.014740,139.009079 
	C196.175262,135.816284 196.789993,134.019287 200.030853,132.308670 
	C212.395996,125.782051 224.656845,119.057861 237.281189,112.228035 
z"/>
<path fill="#000000" opacity="1.000000" stroke="none" 
	d="
M328.177094,315.600464 
	C329.830353,310.305969 333.103577,307.220215 338.248505,306.821716 
	C342.915222,306.460297 346.627930,308.542725 348.921936,312.721832 
	C351.152802,316.785797 350.546783,320.713562 347.968811,324.407440 
	C345.247314,328.306885 340.129761,329.939392 335.677032,328.395721 
	C330.269287,326.520935 327.803345,322.500214 328.177094,315.600464 
z"/>
<path fill="#000000" opacity="1.000000" stroke="none" 
	d="
M249.409149,381.623535 
	C245.612000,377.336670 244.604172,372.962036 247.417801,368.142395 
	C250.072327,363.595245 254.157730,361.953522 259.230652,362.746552 
	C263.816559,363.463501 266.582550,366.378906 267.802948,370.702942 
	C269.114990,375.351746 267.527740,379.223877 263.896210,382.185333 
	C259.881775,385.459106 254.952667,385.263245 249.409149,381.623535 
z"/>
<path fill="#000000" opacity="1.000000" stroke="none" 
	d="
M169.628052,308.275635 
	C177.179855,305.303833 183.291229,307.836060 185.589233,314.536102 
	C187.602875,320.407043 184.276108,326.569641 178.020920,328.555908 
	C173.289520,330.058319 167.893509,327.771423 165.387222,323.201569 
	C162.459778,317.863739 163.707764,313.170105 169.628052,308.275635 
z"/>
<path fill="#000000" opacity="1.000000" stroke="none" 
	d="
M171.750977,273.910706 
	C178.253448,277.561188 180.473480,282.523132 178.332870,287.915436 
	C176.186340,293.322662 171.109955,296.239471 165.686905,295.181549 
	C160.348053,294.140106 156.472366,289.153290 156.722610,283.647339 
	C157.043381,276.589386 163.066986,272.540405 171.750977,273.910706 
z"/>
<path fill="#000000" opacity="1.000000" stroke="none" 
	d="
M310.845093,226.917725 
	C308.369904,220.525314 309.051453,216.367493 312.903381,212.958969 
	C316.682983,209.614471 320.904938,208.993362 325.372467,211.292847 
	C329.642731,213.490814 331.652069,217.185181 331.282532,221.953644 
	C330.891602,226.998535 327.901825,230.290634 323.242462,231.702866 
	C318.254791,233.214584 314.101440,231.496841 310.845093,226.917725 
z"/>
<path fill="#000000" opacity="1.000000" stroke="none" 
	d="
M170.272797,240.781815 
	C176.621964,238.819321 180.975052,239.969849 183.997223,244.134216 
	C187.123459,248.441986 187.016464,253.298141 183.702255,257.520081 
	C180.715637,261.324707 175.872940,262.741150 171.153763,261.066742 
	C166.980637,259.586060 164.610641,256.376190 164.035309,252.175171 
	C163.357971,247.229218 165.687195,243.514603 170.272797,240.781815 
z"/>
<path fill="#000000" opacity="1.000000" stroke="none" 
	d="
M345.216858,241.464600 
	C350.247528,246.273117 351.412567,250.306168 349.226654,254.967453 
	C347.127502,259.443726 343.595734,261.958862 338.571533,261.740540 
	C333.297638,261.511322 329.476593,258.222351 328.232727,253.140396 
	C327.170898,248.802216 328.723999,245.220947 331.911713,242.405426 
	C335.873779,238.906006 340.305511,238.809982 345.216858,241.464600 
z"/>
<path fill="#000000" opacity="1.000000" stroke="none" 
	d="
M204.496307,224.152313 
	C201.354233,230.419586 196.867844,233.100266 191.796051,232.044250 
	C186.675674,230.978134 182.945709,226.633133 182.730179,221.483566 
	C182.520401,216.471634 185.960403,211.916046 191.102646,210.395950 
	C199.060913,208.043427 205.846664,214.761032 204.496307,224.152313 
z"/>
<path fill="#000000" opacity="1.000000" stroke="none" 
	d="
M335.259705,285.562988 
	C335.762817,277.625031 340.196533,272.934113 346.443695,273.259094 
	C353.119873,273.606323 357.701660,278.574982 357.316772,285.050232 
	C357.016235,290.106354 352.852234,294.661285 347.973206,295.271027 
	C341.648010,296.061493 337.397858,292.924927 335.259705,285.562988 
z"/>
<path fill="#000000" opacity="1.000000" stroke="none" 
	d="
M268.242371,194.997620 
	C265.967468,205.758102 256.607269,209.670380 249.521362,203.113525 
	C246.250702,200.087067 244.916840,196.263382 246.509796,191.800415 
	C248.191940,187.087601 251.619324,184.178772 256.495483,184.045792 
	C260.997009,183.922989 264.971100,185.836334 267.017944,190.295517 
	C267.631073,191.631302 267.843597,193.150986 268.242371,194.997620 
z"/>
<path fill="#000000" opacity="1.000000" stroke="none" 
	d="
M279.787720,204.565826 
	C279.668182,196.590897 283.561737,191.658844 289.871948,191.303711 
	C295.284241,190.999115 299.951477,194.201096 301.228973,199.095245 
	C302.696625,204.717834 300.331512,209.917358 295.188782,212.374054 
	C290.382660,214.669968 284.732391,213.124908 281.562927,208.541061 
	C280.822784,207.470581 280.408081,206.175049 279.787720,204.565826 
z"/>
<path fill="#000000" opacity="1.000000" stroke="none" 
	d="
M289.259399,377.284058 
	C282.354736,375.240875 279.557617,371.803162 279.669373,365.986572 
	C279.766083,360.951996 283.139801,356.789886 288.090332,355.597687 
	C292.838531,354.454254 297.704193,356.447998 300.140747,360.535400 
	C304.782257,368.321960 299.404236,376.942749 289.259399,377.284058 
z"/>
<path fill="#000000" opacity="1.000000" stroke="none" 
	d="
M328.797607,340.364197 
	C332.352448,346.877991 332.123047,351.266693 328.124268,355.250549 
	C324.544220,358.817230 320.266144,359.399719 315.717041,357.524323 
	C311.438110,355.760284 309.248871,352.217804 309.130829,347.752777 
	C309.012573,343.277954 311.023468,339.608521 315.269104,337.743195 
	C320.108887,335.616760 324.671631,336.138458 328.797607,340.364197 
z"/>
<path fill="#000000" opacity="1.000000" stroke="none" 
	d="
M221.501892,191.405563 
	C232.735016,190.701492 236.536514,200.341446 233.385529,207.047531 
	C231.211533,211.674362 226.386230,214.056946 221.466187,213.200745 
	C216.678177,212.367538 213.053589,208.465424 212.667145,203.727997 
	C212.155838,197.460068 214.698151,193.780869 221.501892,191.405563 
z"/>
<path fill="#000000" opacity="1.000000" stroke="none" 
	d="
M212.634277,366.924683 
	C213.122330,360.229126 216.158981,356.372833 221.354050,355.408844 
	C226.435532,354.465912 231.541473,357.156281 233.573105,361.847168 
	C235.527069,366.358734 234.202957,371.828308 230.413391,374.899048 
	C226.393234,378.156647 220.848877,378.234863 216.604797,375.014282 
	C214.092239,373.107666 212.680908,370.570068 212.634277,366.924683 
z"/>
<path fill="#000000" opacity="1.000000" stroke="none" 
	d="
M182.915924,345.471619 
	C184.621353,340.303223 187.488495,336.999908 192.877747,336.650421 
	C197.393326,336.357544 201.101288,337.898682 203.405136,341.858246 
	C205.664169,345.740784 205.695602,349.736908 203.039627,353.559784 
	C200.422226,357.327209 196.816986,358.925018 192.297806,358.298035 
	C187.767090,357.669434 184.804291,355.085022 183.284378,350.776398 
	C182.715530,349.163849 182.662491,347.536346 182.915924,345.471619 
z"/>
</svg>