<svg version="1.1" id="Layer_1" xmlns="http://www.w3.org/2000/svg" xmlns:xlink="http://www.w3.org/1999/xlink" x="0px" y="0px"
	 width="100%" viewBox="0 0 512 512" enable-background="new 0 0 512 512" xml:space="preserve">
<path fill="#000000" opacity="1.000000" stroke="none" 
	d="
M305.903168,114.029480 
	C317.740967,120.229248 329.186188,126.394951 340.825012,132.170517 
	C344.695465,134.091156 345.027863,135.998306 342.973724,139.477036 
	C339.587708,145.211288 336.350708,151.053482 333.431763,157.036011 
	C331.699310,160.586807 329.970947,161.091904 326.509796,159.167542 
	C313.551880,151.963089 300.400208,145.107513 287.429504,137.925461 
	C284.465271,136.284134 282.031067,136.282379 279.020416,137.714142 
	C263.676849,145.011017 248.192352,152.013214 232.888336,159.390640 
	C229.166824,161.184631 226.222885,161.017227 222.644775,159.105743 
	C206.187042,150.313705 189.636963,141.691544 173.029037,133.186081 
	C169.577972,131.418686 168.781143,129.728745 170.861420,126.248466 
	C174.277267,120.533768 177.484924,114.668129 180.355042,108.662857 
	C182.324341,104.542374 184.504303,104.433197 188.172333,106.500732 
	C199.637085,112.962997 211.431259,118.857025 222.736969,125.578178 
	C228.167633,128.806641 232.542984,129.204895 238.330521,126.257156 
	C252.424881,119.078537 266.957733,112.765564 281.219879,105.908264 
	C284.704590,104.232803 287.639679,104.093567 291.025513,106.100006 
	C295.749603,108.899498 300.720734,111.282173 305.903168,114.029480 
z"/>
<path fill="#000000" opacity="1.000000" stroke="none" 
	d="
M341.355957,328.765076 
	C333.662109,329.155670 328.614014,325.298767 327.907928,318.897369 
	C327.333038,313.685394 331.686676,307.952820 337.022583,306.895813 
	C342.413300,305.827911 348.056488,309.320862 349.777893,314.790863 
	C351.561127,320.457550 348.474609,325.777100 341.355957,328.765076 
z"/>
<path fill="#000000" opacity="1.000000" stroke="none" 
	d="
M246.821136,369.242798 
	C251.071777,362.818237 256.133972,360.951447 261.724274,363.440277 
	C266.578094,365.601257 269.266235,371.183563 267.865936,376.194366 
	C266.143799,382.356903 260.230164,385.744049 253.912354,384.186493 
	C247.897156,382.703583 244.801010,376.474823 246.821136,369.242798 
z"/>
<path fill="#000000" opacity="1.000000" stroke="none" 
	d="
M202.762009,214.431427 
	C206.578293,222.580948 204.525177,228.790100 197.444077,231.510895 
	C191.593109,233.759018 185.172318,230.459549 183.224442,224.203781 
	C181.747589,219.460785 183.713928,214.455765 188.128662,211.720947 
	C192.882324,208.776123 197.441055,209.534378 202.762009,214.431427 
z"/>
<path fill="#000000" opacity="1.000000" stroke="none" 
	d="
M311.434631,214.582047 
	C317.499176,208.959534 323.260468,208.543243 327.966339,213.096436 
	C332.140808,217.135498 332.499634,223.493164 328.807465,227.998215 
	C325.051453,232.581177 318.946991,233.536392 314.022980,230.311646 
	C309.128448,227.106232 308.015015,221.001556 311.434631,214.582047 
z"/>
<path fill="#000000" opacity="1.000000" stroke="none" 
	d="
M173.513672,261.544342 
	C166.758835,259.750763 163.037430,254.762970 164.004837,249.226578 
	C165.072052,243.118927 170.627274,238.958389 176.640610,239.763138 
	C182.221603,240.510025 186.629883,245.806747 186.251678,251.311218 
	C185.826843,257.494354 181.006088,261.519714 173.513672,261.544342 
z"/>
<path fill="#000000" opacity="1.000000" stroke="none" 
	d="
M331.104645,243.105392 
	C336.329895,237.480988 345.043640,239.405457 348.316742,244.561783 
	C351.785858,250.026871 350.313568,256.657043 344.695709,260.157684 
	C340.348785,262.866364 334.531281,262.091034 331.005951,258.333130 
	C327.002472,254.065536 326.948639,249.339569 331.104645,243.105392 
z"/>
<path fill="#000000" opacity="1.000000" stroke="none" 
	d="
M156.836151,282.400696 
	C158.512238,276.908234 161.781052,273.590668 167.249573,273.324249 
	C171.674515,273.108643 175.443497,274.783386 177.623230,278.937897 
	C179.739395,282.971222 179.596985,286.914978 176.835709,290.665253 
	C174.108307,294.369537 170.435242,295.989990 165.947906,295.179291 
	C161.485962,294.373230 158.469833,291.626556 157.197113,287.241058 
	C156.790634,285.840393 156.901031,284.289734 156.836151,282.400696 
z"/>
<path fill="#000000" opacity="1.000000" stroke="none" 
	d="
M346.899170,295.316833 
	C339.269531,294.671326 334.622070,289.825043 335.131195,283.494720 
	C335.601105,277.651184 340.934570,272.915375 346.619598,273.293701 
	C353.278625,273.736847 357.790253,278.766785 357.312164,285.214630 
	C356.923859,290.451172 353.419952,293.991333 346.899170,295.316833 
z"/>
<path fill="#000000" opacity="1.000000" stroke="none" 
	d="
M185.910767,320.373535 
	C181.560165,329.995544 172.003662,331.988220 166.416946,324.799225 
	C163.191620,320.648865 163.109146,315.588409 166.198608,311.402618 
	C169.207809,307.325592 173.915405,305.813599 178.572174,307.428436 
	C183.948502,309.292877 186.383072,313.394653 185.910767,320.373535 
z"/>
<path fill="#000000" opacity="1.000000" stroke="none" 
	d="
M282.833160,374.158752 
	C279.110687,369.925049 278.528809,365.511963 281.025146,360.970367 
	C283.198975,357.015442 286.774506,355.002411 291.361542,355.350403 
	C296.323029,355.726837 299.820465,358.231903 301.214844,363.125061 
	C302.609406,368.018982 300.880219,372.664032 296.875610,375.392944 
	C292.494141,378.378784 288.294830,378.085846 282.833160,374.158752 
z"/>
<path fill="#000000" opacity="1.000000" stroke="none" 
	d="
M293.961853,191.778839 
	C300.141174,194.832993 302.186981,198.352036 301.455688,204.090714 
	C300.893616,208.501373 297.186462,212.380020 292.766052,213.182358 
	C287.982666,214.050552 283.275085,211.931320 280.979645,207.633209 
	C278.954956,203.842148 278.964142,199.967377 281.430054,196.336563 
	C284.374634,192.000900 288.523590,190.605957 293.961853,191.778839 
z"/>
<path fill="#000000" opacity="1.000000" stroke="none" 
	d="
M245.830887,195.005920 
	C246.697021,188.880157 249.884201,185.192734 255.587265,184.060196 
	C259.677826,183.247849 264.954742,186.144943 266.877960,189.890213 
	C269.785065,195.551575 267.514740,202.257675 261.737335,205.074844 
	C256.157135,207.795853 249.306992,205.156265 246.833527,199.254303 
	C246.327072,198.045853 246.159210,196.695480 245.830887,195.005920 
z"/>
<path fill="#000000" opacity="1.000000" stroke="none" 
	d="
M331.322754,347.954834 
	C329.952423,354.986389 326.200928,358.433807 320.357178,358.446442 
	C314.935516,358.458160 310.787292,355.241455 309.496063,350.024292 
	C308.236816,344.936310 310.597107,340.006134 315.428772,337.632080 
	C322.791595,334.014404 330.120087,338.580322 331.322754,347.954834 
z"/>
<path fill="#000000" opacity="1.000000" stroke="none" 
	d="
M219.986420,355.722046 
	C225.378036,354.570953 229.690475,355.796295 232.596985,360.117493 
	C235.095612,363.832275 235.260773,367.945709 232.935135,371.868164 
	C230.506165,375.964935 226.781525,377.912811 222.028915,377.237518 
	C217.358063,376.573883 214.029663,373.973206 212.855286,369.282776 
	C211.417236,363.539307 213.577423,359.443390 219.986420,355.722046 
z"/>
<path fill="#000000" opacity="1.000000" stroke="none" 
	d="
M231.163452,210.158127 
	C225.275665,214.259247 220.254700,214.265594 215.970108,210.453110 
	C212.585297,207.441238 211.494263,201.933975 213.544998,197.680389 
	C215.412247,193.807449 218.434143,191.330978 222.845978,191.343323 
	C227.198776,191.355499 231.084717,192.775864 233.142136,196.997925 
	C235.381073,201.592422 234.891266,205.966934 231.163452,210.158127 
z"/>
<path fill="#000000" opacity="1.000000" stroke="none" 
	d="
M197.266907,337.015442 
	C204.118149,340.659973 206.475037,345.702148 204.267731,351.277222 
	C202.123779,356.692200 196.547318,359.552887 190.946732,358.110687 
	C185.861496,356.801208 182.251160,351.673370 182.774414,346.503418 
	C183.336563,340.949158 187.802414,336.790283 193.408936,336.661407 
	C194.561111,336.634888 195.717865,336.806641 197.266907,337.015442 
z"/>
</svg>