<svg version="1.1" id="Layer_1" xmlns="http://www.w3.org/2000/svg" xmlns:xlink="http://www.w3.org/1999/xlink" x="0px" y="0px"
	 width="100%" viewBox="0 0 512 512" enable-background="new 0 0 512 512" xml:space="preserve">
<path fill="#000000" opacity="1.000000" stroke="none" 
	d="
M310.179810,115.120789 
	C315.919983,112.000748 321.380280,109.135178 326.734894,106.084122 
	C329.600586,104.451263 331.519165,104.641525 333.150818,107.819214 
	C336.421936,114.189819 339.878815,120.468704 343.403381,126.703835 
	C344.980988,129.494720 344.487091,131.210068 341.618195,132.699097 
	C324.023132,141.831360 306.455627,151.017410 288.934296,160.290176 
	C286.277863,161.696030 284.193604,160.748077 281.885773,159.667877 
	C266.346222,152.394455 250.747299,145.246216 235.264221,137.855103 
	C232.074997,136.332657 229.510605,136.281937 226.392227,138.010117 
	C213.425003,145.196518 200.279953,152.062668 187.332596,159.283813 
	C184.061050,161.108459 182.369965,160.670914 180.708969,157.381592 
	C177.481232,150.989594 174.046097,144.697586 170.531738,138.457169 
	C168.920685,135.596420 169.586075,134.078079 172.450058,132.597351 
	C189.912308,123.569069 207.328186,114.449509 224.681656,105.214081 
	C227.297073,103.822182 229.323547,104.387314 231.697372,105.509758 
	C247.358536,112.914978 263.112976,120.125580 278.703888,127.674675 
	C282.141968,129.339401 284.709290,129.120132 287.912262,127.248894 
	C295.100647,123.049309 302.526672,119.256508 310.179810,115.120789 
z"/>
<path fill="#000000" opacity="1.000000" stroke="none" 
	d="
M327.990784,316.385254 
	C330.406616,309.403290 334.937622,306.043121 340.411652,306.833984 
	C345.949585,307.634094 350.194214,312.291962 350.260162,317.641235 
	C350.325134,322.912262 346.209595,327.838959 340.846680,328.910034 
	C335.954224,329.887238 330.628845,326.704651 328.652344,321.635284 
	C328.041687,320.069122 327.679688,318.472565 327.990784,316.385254 
z"/>
<path fill="#000000" opacity="1.000000" stroke="none" 
	d="
M251.461639,363.987427 
	C258.583374,361.337921 264.037140,362.941620 266.847504,368.195007 
	C269.507019,373.166473 268.191162,379.063446 263.684174,382.371002 
	C258.924286,385.864197 252.165955,385.088654 248.459305,380.623871 
	C244.110779,375.385925 245.075043,369.442841 251.461639,363.987427 
z"/>
<path fill="#000000" opacity="1.000000" stroke="none" 
	d="
M166.194702,311.392700 
	C171.174271,306.514069 174.994034,305.612183 179.863083,307.909698 
	C184.006638,309.864929 186.689560,314.513855 186.204041,318.897186 
	C185.689102,323.546082 182.199829,327.526581 177.449646,328.713684 
	C173.121994,329.795135 169.453033,328.301239 166.704559,325.066040 
	C163.185883,320.924225 162.919876,316.339539 166.194702,311.392700 
z"/>
<path fill="#000000" opacity="1.000000" stroke="none" 
	d="
M338.657593,292.421021 
	C334.966827,288.052612 333.953766,283.630859 336.730042,278.801666 
	C338.909485,275.010498 342.300568,273.010529 346.636261,273.272003 
	C351.297119,273.553009 354.847137,275.792145 356.619598,280.346069 
	C358.339172,284.764099 356.938477,289.918030 353.192413,292.941650 
	C349.085785,296.256317 344.461029,296.175354 338.657593,292.421021 
z"/>
<path fill="#000000" opacity="1.000000" stroke="none" 
	d="
M309.683167,217.962738 
	C312.977478,211.716324 317.061523,209.224503 321.917145,210.170654 
	C326.982147,211.157639 330.528473,214.604645 331.222565,219.305634 
	C331.930664,224.101654 329.991180,227.756805 326.102081,230.406845 
	C322.239594,233.038757 318.143585,232.844116 314.360931,230.439621 
	C309.973175,227.650528 308.491974,223.435471 309.683167,217.962738 
z"/>
<path fill="#000000" opacity="1.000000" stroke="none" 
	d="
M180.196869,260.459808 
	C173.311691,262.683167 168.343643,261.195404 165.519974,256.364349 
	C162.942139,251.953918 163.588394,246.661469 167.146957,243.039856 
	C171.616943,238.490662 178.990326,238.537827 183.201843,243.142563 
	C188.141266,248.543182 187.097061,255.201614 180.196869,260.459808 
z"/>
<path fill="#000000" opacity="1.000000" stroke="none" 
	d="
M329.699219,244.964691 
	C333.125732,240.274414 337.360779,238.582123 342.582916,240.240326 
	C347.173309,241.697952 349.727203,245.169556 350.157959,249.832779 
	C350.575592,254.353592 348.431427,257.914459 344.548340,260.218414 
	C340.200684,262.797943 335.877930,262.220612 332.001801,259.223877 
	C327.875549,256.033722 327.123535,251.156494 329.699219,244.964691 
z"/>
<path fill="#000000" opacity="1.000000" stroke="none" 
	d="
M167.992477,295.324341 
	C160.115692,294.170288 155.741531,288.932831 156.824585,282.455872 
	C157.878922,276.150635 164.191040,272.170624 170.734726,273.685059 
	C175.691589,274.832245 179.315231,279.586304 179.135437,284.706451 
	C178.948288,290.036499 174.650726,294.292114 167.992477,295.324341 
z"/>
<path fill="#000000" opacity="1.000000" stroke="none" 
	d="
M204.734558,223.393402 
	C203.011810,228.970642 199.426727,231.874619 194.072983,232.202606 
	C188.462250,232.546356 183.441727,227.954071 182.775375,222.283417 
	C182.132874,216.815643 186.102417,211.476822 191.767792,210.189148 
	C196.952957,209.010635 202.602539,212.338699 204.286362,217.643936 
	C204.835983,219.375626 205.445267,221.146515 204.734558,223.393402 
z"/>
<path fill="#000000" opacity="1.000000" stroke="none" 
	d="
M301.677307,366.085754 
	C300.496948,373.925140 296.471771,377.626129 289.928223,377.312317 
	C284.583740,377.056000 280.126526,372.808624 279.694855,367.560577 
	C279.188690,361.407318 283.100464,356.298828 289.003784,355.403809 
	C295.573761,354.407776 300.333496,358.287964 301.677307,366.085754 
z"/>
<path fill="#000000" opacity="1.000000" stroke="none" 
	d="
M294.697876,191.988800 
	C300.561798,195.389343 302.543182,199.238907 301.320831,204.843948 
	C300.293365,209.555573 297.099762,212.292969 292.491364,213.179581 
	C287.692566,214.102844 283.029327,211.749390 280.849396,207.397125 
	C278.927704,203.560486 279.023926,199.689499 281.577728,196.108322 
	C284.777222,191.621704 289.183594,190.569397 294.697876,191.988800 
z"/>
<path fill="#000000" opacity="1.000000" stroke="none" 
	d="
M260.801025,184.804184 
	C266.730896,188.016495 269.156860,192.487442 267.934052,197.363907 
	C266.664734,202.426056 262.063629,206.227219 257.194702,206.236099 
	C252.007523,206.245560 247.350433,202.411560 246.127151,197.124634 
	C244.286255,189.168381 251.730179,182.696335 260.801025,184.804184 
z"/>
<path fill="#000000" opacity="1.000000" stroke="none" 
	d="
M329.245972,341.016968 
	C332.206604,346.009277 332.161316,350.490784 328.597290,354.724701 
	C325.583405,358.305054 321.581940,359.222229 317.307465,358.117065 
	C312.731964,356.934052 309.899933,353.702789 309.262878,348.955414 
	C308.593353,343.966156 310.729095,340.228210 315.085876,337.821747 
	C319.613464,335.321014 324.500885,336.370789 329.245972,341.016968 
z"/>
<path fill="#000000" opacity="1.000000" stroke="none" 
	d="
M234.353073,366.897552 
	C233.079163,374.269562 228.321716,378.078247 221.916870,377.270966 
	C216.104767,376.538391 212.402039,371.933716 212.634659,365.727783 
	C212.852707,359.910461 217.541519,355.185455 223.100189,355.181458 
	C229.650757,355.176727 233.827637,359.365051 234.353073,366.897552 
z"/>
<path fill="#000000" opacity="1.000000" stroke="none" 
	d="
M214.688507,209.063080 
	C209.177338,200.099197 215.670013,191.441101 222.648788,191.279175 
	C227.693436,191.162094 232.022446,193.812698 233.731964,198.148987 
	C235.463715,202.541656 234.137726,207.711517 230.497375,210.760361 
	C226.605362,214.019989 221.730713,214.243912 217.175690,211.309143 
	C216.353043,210.779129 215.667908,210.035721 214.688507,209.063080 
z"/>
<path fill="#000000" opacity="1.000000" stroke="none" 
	d="
M183.139008,350.315369 
	C182.482346,343.155426 185.567780,338.067657 190.963715,336.808960 
	C196.446136,335.530090 202.096786,338.308014 204.103134,343.268463 
	C206.392303,348.928192 203.709702,355.348694 198.076721,357.691895 
	C192.227127,360.125214 186.380005,357.364319 183.139008,350.315369 
z"/>
</svg>