<svg version="1.1" id="Layer_1" xmlns="http://www.w3.org/2000/svg" xmlns:xlink="http://www.w3.org/1999/xlink" x="0px" y="0px"
	 width="100%" viewBox="0 0 512 512" enable-background="new 0 0 512 512" xml:space="preserve">
<path fill="#000000" opacity="1.000000" stroke="none" 
	d="
M360.937317,96.572235 
	C368.328491,96.690201 368.335327,96.690178 368.354736,103.383324 
	C368.370178,108.714699 368.377625,114.046150 368.368011,119.377525 
	C368.355560,126.301064 368.346771,126.316582 361.584442,126.318985 
	C330.595581,126.330017 299.606262,126.418747 268.618439,126.241661 
	C264.024719,126.215416 261.080566,127.573364 258.094757,131.188187 
	C247.621140,143.868301 233.247253,149.452271 217.397858,150.957855 
	C202.022156,152.418472 186.800003,151.502548 172.642242,144.016678 
	C157.409805,135.962585 149.748276,122.772865 146.753220,106.423096 
	C146.206680,103.439644 144.757538,100.336563 146.363159,96.885460 
	C152.720657,96.475784 159.133270,95.792984 165.621536,96.363281 
	C167.844727,96.558701 168.761826,97.560059 169.261520,99.654099 
	C172.477142,113.129868 178.104156,118.598366 191.267426,120.492554 
	C202.855103,122.160027 214.471863,122.335983 225.991989,119.671791 
	C236.530457,117.234627 244.169159,111.584023 246.823730,100.609222 
	C247.597717,97.409340 249.381561,96.489693 252.515564,96.502937 
	C276.662537,96.605026 300.810120,96.577576 324.957489,96.583870 
	C336.786499,96.586960 348.615509,96.576347 360.937317,96.572235 
z"/>
<path fill="#000000" opacity="1.000000" stroke="none" 
	d="
M345.782227,309.016663 
	C350.528137,314.113739 351.415375,318.014069 349.004852,322.676117 
	C346.733124,327.069641 343.007751,329.465393 338.109375,328.960663 
	C333.060211,328.440369 329.592560,325.447113 328.257660,320.415253 
	C327.063782,315.915009 328.703766,312.212646 332.112488,309.354279 
	C336.339508,305.809723 340.887146,305.990479 345.782227,309.016663 
z"/>
<path fill="#000000" opacity="1.000000" stroke="none" 
	d="
M267.551025,377.074188 
	C264.257660,383.205261 260.849274,385.157745 255.053299,384.313263 
	C250.001328,383.577209 247.128754,380.319855 246.091995,375.568665 
	C245.009628,370.608490 247.221863,366.742432 251.306793,364.160400 
	C255.281662,361.647949 259.614288,361.791077 263.441986,364.491974 
	C267.626953,367.444885 269.152466,371.628296 267.551025,377.074188 
z"/>
<path fill="#000000" opacity="1.000000" stroke="none" 
	d="
M176.588715,328.957397 
	C166.913925,328.378937 161.761902,321.670990 164.723465,314.103424 
	C166.531281,309.484009 170.979263,306.461578 175.548218,306.747986 
	C180.723389,307.072388 184.983383,310.783539 186.068680,315.912994 
	C186.993515,320.284058 184.558990,325.229584 180.224945,327.604950 
	C179.215286,328.158325 178.066971,328.458679 176.588715,328.957397 
z"/>
<path fill="#000000" opacity="1.000000" stroke="none" 
	d="
M199.967407,230.253372 
	C192.367569,233.825378 185.759583,231.454132 183.366989,224.613556 
	C181.229034,218.501007 184.828842,212.068604 191.373901,210.306244 
	C195.759476,209.125351 201.103470,211.409027 203.362503,215.429352 
	C206.366364,220.775192 205.456207,225.136124 199.967407,230.253372 
z"/>
<path fill="#000000" opacity="1.000000" stroke="none" 
	d="
M310.469818,226.239777 
	C308.291290,219.063889 309.621002,214.808304 314.747162,211.623459 
	C318.834320,209.084122 324.085724,209.523254 327.665497,212.827148 
	C331.022980,215.925888 332.231567,219.863297 330.907043,224.176788 
	C329.596375,228.445267 326.475922,231.367737 322.026855,232.041611 
	C317.199799,232.772720 313.206299,230.978699 310.469818,226.239777 
z"/>
<path fill="#000000" opacity="1.000000" stroke="none" 
	d="
M180.526978,241.054657 
	C185.832809,245.330978 187.337006,249.522705 185.540543,254.230179 
	C183.671844,259.126953 179.111511,262.193054 174.365234,261.743744 
	C169.102921,261.245605 165.294434,258.022003 164.147659,252.950562 
	C163.212982,248.817093 164.681168,245.349869 167.666336,242.596161 
	C171.366241,239.183151 175.635315,238.774689 180.526978,241.054657 
z"/>
<path fill="#000000" opacity="1.000000" stroke="none" 
	d="
M339.005554,239.681000 
	C346.343506,240.812546 350.506195,245.195267 350.246979,251.076553 
	C350.013824,256.366486 345.368195,261.272980 340.129303,261.762482 
	C334.378418,262.299774 329.365601,258.533936 328.118835,252.739716 
	C326.780640,246.520752 331.291992,240.891724 339.005554,239.681000 
z"/>
<path fill="#000000" opacity="1.000000" stroke="none" 
	d="
M169.478363,273.499329 
	C176.409546,275.322662 180.160736,280.554810 178.917191,286.191681 
	C177.621262,292.066071 172.336060,295.937469 166.516327,295.275269 
	C160.727020,294.616577 156.363937,289.366547 156.729691,283.499207 
	C157.114105,277.332123 161.893921,273.440735 169.478363,273.499329 
z"/>
<path fill="#000000" opacity="1.000000" stroke="none" 
	d="
M343.567749,295.115662 
	C336.597137,291.899933 333.903290,286.938812 335.658386,281.211151 
	C337.353363,275.679535 342.269592,272.610962 347.948517,273.539856 
	C353.981293,274.526611 357.684204,279.085327 357.315918,285.072296 
	C356.964783,290.779968 352.408386,295.094330 346.464111,295.315887 
	C345.636505,295.346741 344.803925,295.242798 343.567749,295.115662 
z"/>
<path fill="#000000" opacity="1.000000" stroke="none" 
	d="
M300.538483,371.274658 
	C296.661499,376.722290 292.633331,378.576538 287.597961,376.985382 
	C283.142303,375.577423 280.213104,372.545319 279.713043,367.679749 
	C279.194611,362.635559 281.582947,358.277618 286.043213,356.296051 
	C290.202087,354.448364 294.315460,354.912018 297.758789,357.805359 
	C301.937988,361.316956 302.561554,365.925812 300.538483,371.274658 
z"/>
<path fill="#000000" opacity="1.000000" stroke="none" 
	d="
M248.131393,201.690506 
	C244.895508,196.741119 245.146011,192.153381 248.650970,188.013000 
	C251.235046,184.960464 254.605377,183.312164 258.853821,184.245544 
	C263.725769,185.315964 266.854523,188.130173 267.998260,193.018036 
	C269.014160,197.359634 266.567474,202.391144 262.327942,204.809326 
	C257.742645,207.424728 253.545670,206.580261 248.131393,201.690506 
z"/>
<path fill="#000000" opacity="1.000000" stroke="none" 
	d="
M279.863220,199.569763 
	C281.321869,195.549698 283.709076,192.908813 287.456512,191.756134 
	C293.609650,189.863480 300.108673,193.597061 301.297668,199.614410 
	C302.631165,206.363037 298.650421,212.396469 292.306122,213.242523 
	C285.694733,214.124222 280.083191,209.562500 279.693512,202.955719 
	C279.635223,201.967270 279.745209,200.968887 279.863220,199.569763 
z"/>
<path fill="#000000" opacity="1.000000" stroke="none" 
	d="
M331.066864,350.408325 
	C328.895142,355.375305 325.787811,358.454315 320.378021,358.465546 
	C315.974060,358.474701 312.617096,356.613800 310.542114,352.819611 
	C308.263275,348.652649 308.555786,344.500031 311.554657,340.707458 
	C314.725555,336.697357 319.031738,335.825745 323.670593,337.042236 
	C328.131836,338.212158 330.472229,341.603638 331.222809,346.039917 
	C331.440186,347.324738 331.201935,348.686676 331.066864,350.408325 
z"/>
<path fill="#000000" opacity="1.000000" stroke="none" 
	d="
M216.663208,193.604523 
	C222.788330,190.078308 229.076553,191.063538 232.442978,195.796066 
	C235.840424,200.572250 234.874359,207.323395 230.271652,210.969681 
	C225.811020,214.503464 219.295456,214.037857 215.359024,209.904007 
	C211.300232,205.641663 211.695908,199.253754 216.663208,193.604523 
z"/>
<path fill="#000000" opacity="1.000000" stroke="none" 
	d="
M214.539200,359.878815 
	C218.222473,355.235138 222.638794,354.186401 227.666138,356.135345 
	C231.704681,357.700897 233.980087,360.772064 234.355865,365.202484 
	C234.784546,370.256317 232.653412,373.879547 228.304276,376.237518 
	C224.326126,378.394348 218.724380,377.380646 215.438339,374.045441 
	C212.111374,370.668640 211.704163,365.649506 214.539200,359.878815 
z"/>
<path fill="#000000" opacity="1.000000" stroke="none" 
	d="
M182.919632,345.472504 
	C184.622345,340.302338 187.493042,337.003723 192.878952,336.652527 
	C197.394363,336.358032 201.099747,337.904205 203.403473,341.861847 
	C205.663406,345.744324 205.689743,349.739197 203.036301,353.561340 
	C200.419968,357.330017 196.813721,358.925049 192.296570,358.297150 
	C187.768555,357.667694 184.802689,355.087463 183.286545,350.775940 
	C182.719452,349.163269 182.662369,347.536865 182.919632,345.472504 
z"/>
</svg>