<svg version="1.1" id="Layer_1" xmlns="http://www.w3.org/2000/svg" xmlns:xlink="http://www.w3.org/1999/xlink" x="0px" y="0px"
	 width="100%" viewBox="0 0 512 512" enable-background="new 0 0 512 512" xml:space="preserve">
<path fill="#000000" opacity="1.000000" stroke="none" 
	d="
M229.000000,102.919258 
	C240.499908,102.924370 251.501404,103.036850 262.498810,102.873177 
	C266.023865,102.820717 267.658722,104.228355 268.264679,107.559624 
	C272.424957,130.430679 288.411865,136.469574 308.758881,135.323303 
	C320.389679,134.668076 330.669739,130.899658 336.467041,119.599678 
	C338.462616,115.709976 339.809174,111.544792 340.409363,107.285690 
	C340.905640,103.764183 342.660400,102.883530 345.748932,102.934692 
	C350.747467,103.017502 355.749969,103.039017 360.747620,102.934608 
	C364.185242,102.862793 365.590759,104.263855 365.203705,107.755203 
	C361.606018,140.207108 343.187500,162.965988 306.560760,163.373093 
	C288.698608,163.571625 272.581238,159.384186 259.866974,145.918457 
	C257.104919,142.993149 254.414719,139.932159 252.783112,136.294846 
	C250.739273,131.738617 247.501923,130.780212 242.826202,130.812683 
	C214.827805,131.006973 186.827423,130.915268 158.827698,130.915039 
	C157.161255,130.915024 155.494049,130.834183 153.828537,130.864731 
	C150.181213,130.931625 148.383331,129.552185 148.593735,125.531265 
	C148.880722,120.046310 148.970169,114.513290 148.577682,109.041534 
	C148.214218,103.974411 150.444260,102.840012 155.001205,102.870880 
	C176.833313,103.018791 198.667068,102.927963 220.500229,102.921951 
	C223.166824,102.921211 225.833405,102.920364 229.000000,102.919258 
z"/>
<path fill="#000000" opacity="1.000000" stroke="none" 
	d="
M340.590210,328.962555 
	C331.749817,328.461975 326.450287,322.559265 328.180420,315.660034 
	C329.460205,310.556671 333.929993,306.799286 338.797302,306.735260 
	C344.064697,306.665955 348.804291,310.386200 350.017975,315.542664 
	C351.121277,320.230347 348.501160,325.461914 343.780487,327.874207 
	C342.905334,328.321442 341.919312,328.551636 340.590210,328.962555 
z"/>
<path fill="#000000" opacity="1.000000" stroke="none" 
	d="
M254.483597,362.761017 
	C262.168915,362.599365 265.670319,364.599396 267.561584,369.983398 
	C269.268799,374.843323 267.763489,378.883667 264.036316,382.071350 
	C260.531433,385.069000 256.379791,385.259064 252.297699,383.499817 
	C248.073715,381.679443 245.830811,378.080292 245.882355,373.595154 
	C245.944305,368.204315 249.016434,364.648163 254.483597,362.761017 
z"/>
<path fill="#000000" opacity="1.000000" stroke="none" 
	d="
M183.344818,325.242126 
	C176.528427,330.382751 169.989258,329.927094 166.087097,324.361053 
	C162.369339,319.058044 163.675766,312.247803 169.107071,308.618652 
	C173.462204,305.708588 179.074600,306.261200 182.869675,309.973724 
	C186.984558,313.999084 187.218033,318.889282 183.344818,325.242126 
z"/>
<path fill="#000000" opacity="1.000000" stroke="none" 
	d="
M198.534454,211.089844 
	C204.170105,214.803665 206.120132,219.387558 204.447174,224.307831 
	C202.805695,229.135529 198.272461,232.431396 193.511368,232.258652 
	C188.574112,232.079514 184.295013,228.580490 183.032196,223.689789 
	C180.815247,215.103760 188.688614,208.468964 198.534454,211.089844 
z"/>
<path fill="#000000" opacity="1.000000" stroke="none" 
	d="
M314.654205,230.694458 
	C309.627991,226.456146 308.120880,222.043091 309.835327,217.371796 
	C311.322662,213.319290 316.135254,209.834167 320.164734,209.891602 
	C325.008209,209.960648 329.317566,213.021652 330.785248,217.591263 
	C332.189423,221.963181 331.175751,225.827805 327.872955,228.994400 
	C324.061432,232.648788 319.705444,233.108292 314.654205,230.694458 
z"/>
<path fill="#000000" opacity="1.000000" stroke="none" 
	d="
M169.146042,260.125366 
	C163.996155,255.455261 162.788284,251.510117 164.760590,246.705536 
	C166.622711,242.169373 170.978394,239.401443 175.785904,239.699219 
	C180.685562,240.002701 184.489883,243.128174 185.863220,248.003006 
	C187.088715,252.352997 185.534195,255.979630 182.449890,258.840881 
	C178.606079,262.406799 174.118408,262.576324 169.146042,260.125366 
z"/>
<path fill="#000000" opacity="1.000000" stroke="none" 
	d="
M343.791382,240.722656 
	C349.473999,244.553909 351.355560,249.037811 349.640472,253.941513 
	C347.930359,258.830811 343.391052,262.077240 338.676392,261.782806 
	C333.284241,261.446075 329.364471,257.995270 328.106018,252.771011 
	C326.506744,246.132019 333.932953,236.520035 343.791382,240.722656 
z"/>
<path fill="#000000" opacity="1.000000" stroke="none" 
	d="
M171.001190,273.729340 
	C177.213181,276.597595 180.025284,281.257507 178.897659,286.240967 
	C177.741821,291.349152 173.372787,295.145416 168.445435,295.322906 
	C163.149704,295.513672 158.806442,292.384949 157.173355,287.364868 
	C154.596451,279.443634 162.650299,271.116180 171.001190,273.729340 
z"/>
<path fill="#000000" opacity="1.000000" stroke="none" 
	d="
M355.566650,290.234344 
	C352.108856,295.035492 347.718658,296.387848 342.603424,294.751770 
	C338.010803,293.282867 335.604919,289.669312 335.234222,285.002655 
	C334.875244,280.483154 336.957184,276.959717 340.890869,274.664276 
	C344.930145,272.307220 350.369080,273.003540 353.863892,276.222931 
	C357.659607,279.719482 358.282288,284.146393 355.566650,290.234344 
z"/>
<path fill="#000000" opacity="1.000000" stroke="none" 
	d="
M282.832275,374.159912 
	C279.105347,369.924042 278.529602,365.507141 281.025116,360.964142 
	C283.199646,357.005554 286.779236,354.994171 291.369080,355.347839 
	C296.331207,355.730225 299.829010,358.235840 301.221405,363.134888 
	C302.607544,368.011780 300.868225,372.736572 296.906982,375.446198 
	C292.620300,378.378387 288.257477,378.058289 282.832275,374.159912 
z"/>
<path fill="#000000" opacity="1.000000" stroke="none" 
	d="
M301.653931,202.084625 
	C300.515594,209.869858 296.430115,213.629990 289.926849,213.298553 
	C284.613800,213.027786 280.153229,208.770172 279.701111,203.538086 
	C279.175812,197.459457 283.194061,192.237640 289.019592,191.428452 
	C295.729095,190.496475 300.342346,194.258850 301.653931,202.084625 
z"/>
<path fill="#000000" opacity="1.000000" stroke="none" 
	d="
M309.950012,351.703918 
	C308.197296,346.360779 309.310211,342.052216 313.419250,338.849457 
	C317.167419,335.927979 321.481842,335.734955 325.635986,337.881348 
	C329.919861,340.094849 331.672150,344.002472 331.257782,348.693481 
	C330.832886,353.503479 327.882507,356.649963 323.468536,358.106995 
	C318.207153,359.843750 313.782593,357.670990 309.950012,351.703918 
z"/>
<path fill="#000000" opacity="1.000000" stroke="none" 
	d="
M257.031250,206.232529 
	C247.108597,203.961823 243.215668,196.773010 247.637207,189.480072 
	C249.981323,185.613647 253.497086,183.505569 258.058228,184.132339 
	C263.073364,184.821487 266.687897,187.519272 267.882416,192.708481 
	C268.976013,197.459396 267.122986,201.169205 263.428467,204.035370 
	C261.703125,205.373871 259.669373,206.138336 257.031250,206.232529 
z"/>
<path fill="#000000" opacity="1.000000" stroke="none" 
	d="
M223.022278,355.178650 
	C232.754898,356.932831 237.205856,364.403748 233.163986,371.547058 
	C230.624451,376.035248 225.732254,378.412323 220.945572,377.091248 
	C216.481384,375.859131 213.295822,373.132141 212.693741,368.200867 
	C212.026093,362.732483 214.558945,357.986053 219.255630,355.990601 
	C220.306625,355.544037 221.503937,355.441895 223.022278,355.178650 
z"/>
<path fill="#000000" opacity="1.000000" stroke="none" 
	d="
M230.581146,210.697540 
	C223.888077,214.802628 217.656662,213.794907 214.175323,208.345947 
	C210.929642,203.265747 212.425140,196.411789 217.527283,192.983917 
	C221.662308,190.205795 228.187408,191.037842 231.638870,194.783356 
	C235.577515,199.057556 235.293549,204.946533 230.581146,210.697540 
z"/>
<path fill="#000000" opacity="1.000000" stroke="none" 
	d="
M204.108643,343.244751 
	C205.863647,350.145203 203.267563,355.839172 197.737335,357.873505 
	C192.274017,359.883270 185.971146,357.122955 183.677765,351.716248 
	C181.414124,346.379669 183.543320,340.529297 188.768341,337.728912 
	C194.229874,334.801788 200.083206,336.781799 204.108643,343.244751 
z"/>
</svg>