<svg version="1.1" id="Layer_1" xmlns="http://www.w3.org/2000/svg" xmlns:xlink="http://www.w3.org/1999/xlink" x="0px" y="0px"
	 width="100%" viewBox="0 0 512 512" enable-background="new 0 0 512 512" xml:space="preserve">
<path fill="#000000" opacity="1.000000" stroke="none" 
	d="
M513.000000,156.600006 
	C496.761841,158.503571 480.971741,156.340302 465.125977,152.545975 
	C426.168365,143.217361 387.320679,133.576630 349.400146,120.537399 
	C347.286224,119.810524 345.316284,119.759102 343.117767,120.446976 
	C298.663086,134.356140 253.533096,145.714249 208.155624,156.146347 
	C199.070282,158.235031 189.916992,156.969925 180.796829,157.280975 
	C179.416183,157.328049 178.154205,156.967209 177.880600,155.228333 
	C177.539017,153.057404 178.924789,152.276413 180.587738,151.677460 
	C187.942398,149.028503 195.303574,146.397552 202.652405,143.732544 
	C243.455521,128.935471 284.049774,113.626457 323.015839,94.354668 
	C325.309601,93.220245 327.611969,92.443665 330.191772,92.655106 
	C330.688019,92.695770 331.190582,92.657379 331.690216,92.658928 
	C343.180695,92.694542 355.120575,90.788254 366.035126,93.313522 
	C376.925476,95.833199 386.673401,103.048622 397.125031,107.754982 
	C421.394836,118.683685 446.140839,128.465363 471.118530,137.655502 
	C484.844910,142.705917 498.602325,147.671936 512.672852,152.837997 
	C513.000000,154.066666 513.000000,155.133347 513.000000,156.600006 
z"/>
<path fill="#000000" opacity="1.000000" stroke="none" 
	d="
M318.257294,317.929810 
	C317.541473,323.864410 314.571106,327.558502 309.123230,328.790588 
	C304.668549,329.798065 300.932343,328.060913 298.225159,324.496857 
	C295.495422,320.903107 294.965881,316.884491 297.215149,312.846649 
	C299.381104,308.958466 302.719788,306.569885 307.298431,306.783447 
	C311.956696,307.000763 315.500092,309.248505 317.332733,313.690552 
	C317.827545,314.889832 317.962616,316.237488 318.257294,317.929810 
z"/>
<path fill="#000000" opacity="1.000000" stroke="none" 
	d="
M213.880768,372.309631 
	C217.180237,362.774139 225.688599,359.483612 232.158600,364.989197 
	C235.743561,368.039825 237.209869,372.020386 235.680862,376.657532 
	C234.198639,381.152710 231.153732,383.942627 226.263870,384.372314 
	C221.284790,384.809845 217.451569,383.000793 215.103638,378.496704 
	C214.173004,376.711456 213.636749,374.777191 213.880768,372.309631 
z"/>
<path fill="#000000" opacity="1.000000" stroke="none" 
	d="
M147.723511,307.860718 
	C153.424927,311.688049 155.335739,316.153931 153.667511,321.060699 
	C152.049866,325.818665 147.349213,329.286530 142.771423,329.099213 
	C137.869675,328.898682 133.679092,325.466644 132.293579,320.505157 
	C131.138168,316.367706 132.563171,312.873657 135.426224,310.058167 
	C138.789307,306.750854 142.841522,305.750183 147.723511,307.860718 
z"/>
<path fill="#000000" opacity="1.000000" stroke="none" 
	d="
M318.134277,294.751099 
	C310.804352,295.811462 306.626587,294.010223 304.307739,289.123352 
	C302.144623,284.564697 303.230499,279.208008 306.979034,275.945496 
	C311.814636,271.736877 319.617859,272.646729 323.307831,277.849426 
	C327.420197,283.647675 325.535980,290.219360 318.134277,294.751099 
z"/>
<path fill="#000000" opacity="1.000000" stroke="none" 
	d="
M138.463455,295.130981 
	C132.949860,295.827118 128.804291,294.218201 126.207588,289.653534 
	C124.067757,285.891937 124.035248,282.033905 126.580795,278.353729 
	C129.433090,274.230042 133.298386,272.631989 138.255676,273.607635 
	C143.094330,274.559937 145.747498,277.620483 146.765289,282.263672 
	C147.827637,287.110107 145.650269,290.634949 141.945206,293.420837 
	C141.029617,294.109283 139.899887,294.512939 138.463455,295.130981 
z"/>
<path fill="#000000" opacity="1.000000" stroke="none" 
	d="
M315.692322,257.531067 
	C311.772919,261.934692 307.290710,262.779999 302.345093,260.699615 
	C298.283478,258.991058 296.160004,255.521820 295.963043,251.288071 
	C295.744202,246.584061 298.093414,243.011826 302.291809,240.786133 
	C306.374207,238.621964 311.898041,239.630234 315.122955,243.068497 
	C318.882385,247.076675 319.129181,251.414871 315.692322,257.531067 
z"/>
<path fill="#000000" opacity="1.000000" stroke="none" 
	d="
M137.150101,260.118927 
	C132.017197,255.456894 130.808334,251.504150 132.772018,246.705460 
	C134.622574,242.183228 138.999588,239.400253 143.786377,239.702347 
	C148.670700,240.010620 152.481491,243.142548 153.853256,248.006500 
	C155.078415,252.350555 153.527100,255.970001 150.444122,258.832336 
	C146.599808,262.401459 142.117325,262.550812 137.150101,260.118927 
z"/>
<path fill="#000000" opacity="1.000000" stroke="none" 
	d="
M278.472992,226.237671 
	C276.222229,220.877930 277.018188,216.453522 281.133728,212.801224 
	C284.762817,209.580612 288.886749,209.078644 293.175323,211.195282 
	C297.464447,213.312225 299.494507,216.942688 299.311951,221.734741 
	C299.139282,226.266266 295.598328,230.543579 291.003906,231.867065 
	C286.596893,233.136566 282.120636,231.218475 278.472992,226.237671 
z"/>
<path fill="#000000" opacity="1.000000" stroke="none" 
	d="
M160.367615,210.044266 
	C168.174316,210.787567 170.995880,212.903122 172.562241,218.617996 
	C173.887863,223.454514 172.039658,227.178513 168.333420,229.966507 
	C163.120026,233.888306 156.059723,232.517593 152.593628,227.189697 
	C148.968399,221.617172 150.763046,214.651321 156.725235,211.369598 
	C157.732407,210.815231 158.889175,210.532639 160.367615,210.044266 
z"/>
<path fill="#000000" opacity="1.000000" stroke="none" 
	d="
M231.597733,186.195892 
	C236.390793,191.001938 237.340897,195.112030 235.021530,199.844101 
	C232.962540,204.044891 228.329803,206.721497 224.060944,206.176651 
	C219.032776,205.534897 215.077805,201.950317 214.097076,197.002960 
	C213.229172,192.624603 214.996002,189.137711 218.273788,186.449249 
	C222.412521,183.054642 226.843170,183.412781 231.597733,186.195892 
z"/>
<path fill="#000000" opacity="1.000000" stroke="none" 
	d="
M291.412170,336.909515 
	C297.460785,339.838043 300.074158,343.921051 299.239746,349.157837 
	C298.526672,353.633209 295.833588,356.742432 291.532410,358.115997 
	C286.949097,359.579590 281.777252,357.723022 279.151184,353.829956 
	C276.617249,350.073517 276.291840,346.075195 278.588531,342.078400 
	C281.375793,337.227997 285.806000,336.067688 291.412170,336.909515 
z"/>
<path fill="#000000" opacity="1.000000" stroke="none" 
	d="
M253.056625,356.832825 
	C259.171844,354.456635 263.917755,355.207397 267.020386,358.998138 
	C270.030945,362.676392 270.556702,366.846680 268.577667,371.142029 
	C266.542114,375.559967 262.007751,377.906403 257.063599,377.255768 
	C252.472809,376.651672 249.316620,373.910736 248.085434,369.631317 
	C246.618378,364.531982 248.096222,360.094330 253.056625,356.832825 
z"/>
<path fill="#000000" opacity="1.000000" stroke="none" 
	d="
M265.643372,210.855011 
	C259.595551,214.358017 254.740921,214.024567 250.809723,210.089630 
	C247.242981,206.519547 246.532990,201.067612 249.080475,196.811172 
	C251.781616,192.298035 256.768036,190.351852 261.981262,191.776047 
	C269.987213,193.963211 271.964447,203.340591 265.643372,210.855011 
z"/>
<path fill="#000000" opacity="1.000000" stroke="none" 
	d="
M192.751373,213.275223 
	C185.531219,212.960175 181.308258,209.637100 180.687119,204.132004 
	C180.026291,198.275131 183.107132,193.193344 188.237534,191.677734 
	C193.419357,190.146942 199.308472,192.827271 201.510071,197.718506 
	C204.503891,204.369812 201.096497,210.715195 192.751373,213.275223 
z"/>
<path fill="#000000" opacity="1.000000" stroke="none" 
	d="
M185.657227,375.668549 
	C180.027802,370.995422 178.978165,364.736786 182.675156,359.692017 
	C186.105560,355.011017 192.164963,353.861633 197.311523,356.915741 
	C202.122299,359.770569 203.949127,366.358246 201.302887,371.308868 
	C198.242294,377.034698 192.686584,378.694397 185.657227,375.668549 
z"/>
<path fill="#000000" opacity="1.000000" stroke="none" 
	d="
M157.898102,357.719604 
	C151.948807,354.361664 149.617615,349.562775 151.205048,344.527527 
	C152.895432,339.165710 157.261551,336.242767 162.944260,336.668549 
	C168.110748,337.055695 172.017654,340.770660 172.912201,346.146820 
	C174.183380,353.786499 167.334717,359.282867 157.898102,357.719604 
z"/>
</svg>