<svg version="1.1" id="Layer_1" xmlns="http://www.w3.org/2000/svg" xmlns:xlink="http://www.w3.org/1999/xlink" x="0px" y="0px"
	 width="100%" viewBox="0 0 512 512" enable-background="new 0 0 512 512" xml:space="preserve">
<path fill="#000000" opacity="1.000000" stroke="none" 
	d="
M294.002136,433.899658 
	C290.380890,446.594635 286.755005,458.878540 283.452972,471.248871 
	C282.544250,474.653320 281.055115,475.930450 277.551056,475.520752 
	C272.140808,474.888184 266.629608,476.212860 260.732788,474.991241 
	C261.648346,466.414612 265.173737,458.607452 266.456421,450.453705 
	C264.702301,448.443970 262.567566,449.094086 260.672882,449.085785 
	C248.678406,449.033051 236.683472,449.086700 224.688721,449.078491 
	C218.620056,449.074341 218.092194,448.505859 219.648438,442.895721 
	C223.293930,429.753967 227.099258,416.656494 230.732758,403.511475 
	C231.550797,400.552063 232.961914,398.933289 236.260345,399.068909 
	C240.584427,399.246735 244.920990,399.146851 249.251953,399.124023 
	C252.841461,399.105103 253.946899,400.635864 252.930283,404.156647 
	C250.960693,410.977814 249.225784,417.866730 247.451797,424.509735 
	C249.540512,426.496368 251.644821,425.879730 253.554718,425.890839 
	C265.049347,425.957764 276.544556,425.939423 288.039551,425.930664 
	C296.118011,425.924500 296.118011,425.911041 294.002136,433.899658 
z"/>
<path fill="#000000" opacity="1.000000" stroke="none" 
	d="
M349.360352,321.866089 
	C345.865875,327.674530 341.739716,329.912811 337.029694,328.804291 
	C331.939392,327.606201 328.750244,324.339935 328.040497,319.255920 
	C327.350708,314.314667 329.752197,310.520050 334.010864,308.073578 
	C338.076721,305.737915 342.194305,306.352020 345.735565,309.085327 
	C349.787720,312.213013 351.360748,316.410889 349.360352,321.866089 
z"/>
<path fill="#000000" opacity="1.000000" stroke="none" 
	d="
M197.114319,231.660980 
	C189.810410,232.774399 184.904358,229.975632 183.151901,224.072220 
	C181.676453,219.101913 184.187958,213.491898 188.952209,211.115952 
	C194.121414,208.538040 200.871445,210.663742 203.523163,215.704575 
	C206.873810,222.074066 204.698288,227.766663 197.114319,231.660980 
z"/>
<path fill="#000000" opacity="1.000000" stroke="none" 
	d="
M170.240753,273.615540 
	C176.594803,275.881195 179.807404,280.443176 179.031845,285.605011 
	C178.283600,290.585052 173.798828,294.904877 168.969864,295.296875 
	C163.488968,295.741791 158.744476,292.518494 157.160110,287.273590 
	C154.832901,279.569580 161.040802,272.866760 170.240753,273.615540 
z"/>
<path fill="#000000" opacity="1.000000" stroke="none" 
	d="
M353.200439,275.651001 
	C357.727631,280.707428 358.502625,284.894806 356.019745,289.475067 
	C353.659637,293.828796 349.242462,295.997559 344.301788,295.228424 
	C339.672241,294.507721 336.071350,290.777100 335.326477,285.759796 
	C334.678619,281.396027 336.366058,277.893677 339.841675,275.361908 
	C344.135193,272.234406 348.552765,272.767120 353.200439,275.651001 
z"/>
<path fill="#000000" opacity="1.000000" stroke="none" 
	d="
M247.173859,368.532196 
	C251.372696,362.966400 255.361877,361.292694 260.607117,362.999664 
	C265.143707,364.475983 267.735168,367.888824 268.151123,372.542542 
	C268.569397,377.221527 266.550720,381.059570 262.301727,383.175781 
	C257.996857,385.319855 253.511368,385.202576 249.786179,381.886780 
	C245.811325,378.348816 244.644318,373.915649 247.173859,368.532196 
z"/>
<path fill="#000000" opacity="1.000000" stroke="none" 
	d="
M331.660156,242.559677 
	C338.445435,238.149124 344.931610,239.126465 348.464539,244.790405 
	C351.852417,250.221832 350.112732,256.977325 344.467529,260.311554 
	C340.082489,262.901489 334.241364,261.967468 330.813080,258.128174 
	C326.742249,253.569321 326.917725,248.704239 331.660156,242.559677 
z"/>
<path fill="#000000" opacity="1.000000" stroke="none" 
	d="
M163.848389,250.972198 
	C164.465744,245.017075 167.345901,241.090897 172.811127,239.897888 
	C177.565781,238.860001 181.725113,240.499649 184.447281,244.803497 
	C187.958908,250.355576 185.946152,257.438324 180.035522,260.561096 
	C174.486832,263.492645 167.502670,261.052795 164.928787,255.208878 
	C164.399551,254.007263 164.203613,252.658844 163.848389,250.972198 
z"/>
<path fill="#000000" opacity="1.000000" stroke="none" 
	d="
M321.612854,210.073395 
	C329.483215,212.443710 333.151306,218.577103 330.757416,224.799377 
	C328.383209,230.970367 321.589478,233.812973 315.557190,231.159378 
	C311.131714,229.212601 308.431946,224.030533 309.345703,219.236801 
	C310.407166,213.668579 314.682312,210.337082 321.612854,210.073395 
z"/>
<path fill="#000000" opacity="1.000000" stroke="none" 
	d="
M249.810425,186.737915 
	C256.666016,182.631592 263.887482,184.068604 266.869720,189.837570 
	C269.972748,195.840164 267.259918,202.925171 260.872589,205.500076 
	C256.750580,207.161789 251.220886,205.581955 248.293671,201.906372 
	C244.686478,197.376877 245.058289,192.799606 249.810425,186.737915 
z"/>
<path fill="#000000" opacity="1.000000" stroke="none" 
	d="
M175.781219,306.798645 
	C181.225357,307.767059 184.669922,310.491852 185.935913,315.594055 
	C186.963852,319.736938 185.433014,323.210724 182.562592,325.989532 
	C178.022781,330.384491 170.536743,329.812469 166.600494,325.008301 
	C162.376190,319.852570 163.376205,312.698822 168.867386,308.865997 
	C170.818085,307.504425 172.924652,306.592865 175.781219,306.798645 
z"/>
<path fill="#000000" opacity="1.000000" stroke="none" 
	d="
M284.675659,375.658173 
	C279.736481,371.135254 278.324646,366.722382 280.370056,362.180786 
	C282.399567,357.674469 285.968231,355.154907 290.974243,355.316010 
	C295.698822,355.468079 299.344757,357.724731 300.950867,362.281586 
	C302.496887,366.667877 301.875610,370.947968 298.346649,374.229889 
	C294.395569,377.904327 289.828918,378.393250 284.675659,375.658173 
z"/>
<path fill="#000000" opacity="1.000000" stroke="none" 
	d="
M299.974670,196.244659 
	C302.581543,202.736099 301.847839,207.311401 297.924683,210.655609 
	C294.249115,213.788788 288.822449,214.312103 284.922363,211.792099 
	C280.919952,209.206024 279.085052,205.480743 279.730469,200.731552 
	C280.351654,196.160782 283.090668,193.047134 287.401703,191.831589 
	C292.252014,190.464005 296.623291,191.600693 299.974670,196.244659 
z"/>
<path fill="#000000" opacity="1.000000" stroke="none" 
	d="
M315.711182,357.549255 
	C309.651917,353.613373 307.662598,348.265198 310.037384,343.020721 
	C312.258606,338.115356 317.948914,335.523132 323.421234,336.923706 
	C328.366699,338.189423 331.797058,343.349030 331.297028,348.769714 
	C330.650757,355.775879 324.253204,359.533173 315.711182,357.549255 
z"/>
<path fill="#000000" opacity="1.000000" stroke="none" 
	d="
M214.110641,360.554321 
	C217.465942,355.710236 221.734360,354.189972 226.918335,355.871246 
	C231.436951,357.336731 234.008987,360.529236 234.361893,365.400513 
	C234.728653,370.463257 232.558411,374.133820 228.120346,376.298218 
	C223.599716,378.502899 219.229538,377.580231 215.719696,374.197601 
	C211.766724,370.387909 211.713989,365.713898 214.110641,360.554321 
z"/>
<path fill="#000000" opacity="1.000000" stroke="none" 
	d="
M229.962540,211.181091 
	C223.139633,214.832520 216.848511,213.346817 213.775574,207.655396 
	C210.827759,202.195740 213.070816,195.087311 218.624649,192.288330 
	C223.852219,189.653778 230.861435,192.127930 233.414597,197.508987 
	C235.580276,202.073364 234.596115,206.317780 229.962540,211.181091 
z"/>
<path fill="#000000" opacity="1.000000" stroke="none" 
	d="
M196.452988,336.819305 
	C204.255997,340.339447 206.914185,346.262848 203.790390,352.324219 
	C200.784317,358.157196 193.737320,360.191956 188.071777,356.862854 
	C184.025177,354.485046 181.860519,349.290558 183.081726,344.888306 
	C184.676041,339.141022 188.794418,336.554321 196.452988,336.819305 
z"/>
</svg>