<svg version="1.1" id="Layer_1" xmlns="http://www.w3.org/2000/svg" xmlns:xlink="http://www.w3.org/1999/xlink" x="0px" y="0px"
	 width="100%" viewBox="0 0 512 512" enable-background="new 0 0 512 512" xml:space="preserve">
<path fill="#000000" opacity="1.000000" stroke="none" 
	d="
M172.815048,448.890564 
	C181.477524,428.451324 190.122742,408.416718 198.412964,388.236328 
	C200.170731,383.957489 202.481003,382.432678 207.004913,382.703278 
	C213.270950,383.078094 219.576202,382.797394 227.426346,382.797394 
	C221.481873,397.103821 215.986389,410.329712 210.580383,423.340271 
	C211.417999,424.398621 212.086304,424.074829 212.670807,423.838593 
	C232.925385,415.651978 251.767532,419.183319 269.733765,430.568604 
	C275.921844,434.489990 282.218658,438.246490 288.552429,441.929321 
	C295.202972,445.796387 302.419586,447.462067 310.125732,446.953552 
	C318.037537,446.431396 324.161163,442.246521 326.264832,435.661530 
	C328.790222,427.756348 326.932068,420.883148 320.949158,415.182343 
	C317.882141,412.259918 314.150208,410.363220 310.142609,409.100250 
	C306.715698,408.020294 306.195343,406.128632 307.795563,403.078125 
	C309.729462,399.391541 311.549805,395.635712 313.211853,391.819489 
	C314.368286,389.164215 315.853607,388.688171 318.697998,389.409058 
	C342.271332,395.383362 356.204071,419.876617 349.910309,444.577759 
	C345.830017,460.591553 333.080261,471.250549 316.672119,473.428833 
	C299.681458,475.684448 284.313873,471.388062 269.749298,463.230225 
	C261.903625,458.835785 254.367844,453.891205 246.566833,449.413300 
	C227.385529,438.402863 205.914368,443.414429 195.530228,462.956390 
	C190.460892,472.496399 184.602310,475.958832 174.569931,474.287903 
	C170.890244,473.675049 167.002335,474.911621 162.523727,473.198181 
	C165.974518,465.051941 169.322845,457.147552 172.815048,448.890564 
z"/>
<path fill="#000000" opacity="1.000000" stroke="none" 
	d="
M193.127045,232.229187 
	C183.120956,229.536148 179.591461,220.591232 185.570541,213.836365 
	C188.683578,210.319412 192.545441,209.155167 197.218765,210.614380 
	C202.175690,212.162125 204.496338,215.786423 204.948456,220.512955 
	C205.354828,224.761261 203.310333,228.167694 199.619736,230.447617 
	C197.760361,231.596298 195.776733,232.373901 193.127045,232.229187 
z"/>
<path fill="#000000" opacity="1.000000" stroke="none" 
	d="
M268.207672,194.187286 
	C268.037720,199.975708 265.467529,203.742355 260.426361,205.646225 
	C256.206543,207.239914 252.461517,205.811951 249.400848,202.968262 
	C246.286545,200.074753 244.994293,196.361725 246.405090,192.086685 
	C247.967758,187.351425 251.314346,184.361008 256.194000,184.049530 
	C260.517639,183.773529 264.378723,185.549973 266.663605,189.575806 
	C267.387756,190.851761 267.681305,192.372131 268.207672,194.187286 
z"/>
<path fill="#000000" opacity="1.000000" stroke="none" 
	d="
M332.378601,309.198975 
	C337.029327,305.827881 341.469574,306.024506 345.666473,309.029419 
	C349.167328,311.536011 350.813629,315.225800 350.043976,319.503784 
	C349.174774,324.335266 346.163879,327.497498 341.334442,328.746948 
	C336.965027,329.877380 331.917847,327.553314 329.489929,323.345978 
	C326.719299,318.544769 327.458679,314.557404 332.378601,309.198975 
z"/>
<path fill="#000000" opacity="1.000000" stroke="none" 
	d="
M157.920883,279.356873 
	C162.365738,270.917358 174.139053,271.820312 177.754761,279.130005 
	C179.931213,283.529999 179.252579,288.546722 175.730408,292.000092 
	C172.340927,295.323456 168.316681,296.319031 163.806625,294.527679 
	C159.241531,292.714447 156.420853,288.357391 156.764847,283.541626 
	C156.857315,282.247101 157.399857,280.984711 157.920883,279.356873 
z"/>
<path fill="#000000" opacity="1.000000" stroke="none" 
	d="
M330.818726,258.126801 
	C327.404175,253.693497 326.893646,249.325226 329.772095,244.872452 
	C332.353851,240.878540 336.109558,239.024796 340.873749,239.806198 
	C345.387695,240.546555 348.335175,243.249496 349.727875,247.609451 
	C351.150665,252.063553 349.325378,256.958801 345.205994,259.809753 
	C340.810822,262.851654 336.190094,262.394897 330.818726,258.126801 
z"/>
<path fill="#000000" opacity="1.000000" stroke="none" 
	d="
M180.527924,241.052216 
	C185.836975,245.335144 187.329346,249.503113 185.531204,254.227631 
	C183.667221,259.125092 179.130539,262.169891 174.353592,261.729462 
	C169.108658,261.245850 165.294601,258.012421 164.148453,252.934860 
	C163.215530,248.801804 164.690170,245.340179 167.671509,242.586197 
	C171.371719,239.168198 175.640671,238.781464 180.527924,241.052216 
z"/>
<path fill="#000000" opacity="1.000000" stroke="none" 
	d="
M311.251190,227.568359 
	C308.539795,222.973328 308.301117,218.681763 311.402008,214.646011 
	C313.854309,211.454437 317.091492,209.484863 321.319183,210.026917 
	C326.584045,210.701981 330.449432,214.349365 331.226166,219.188568 
	C332.008789,224.064514 329.453644,228.890717 324.904694,231.128632 
	C320.356079,233.366409 315.796722,232.263824 311.251190,227.568359 
z"/>
<path fill="#000000" opacity="1.000000" stroke="none" 
	d="
M186.207016,318.779358 
	C183.361679,327.999115 176.543442,331.386963 169.555573,327.438507 
	C165.582840,325.193726 163.220642,320.250610 164.118256,316.060455 
	C165.117722,311.394867 169.083786,307.506683 173.523102,306.840332 
	C177.968445,306.173035 183.114334,308.919464 185.021362,313.089691 
	C185.778336,314.745026 186.423843,316.478210 186.207016,318.779358 
z"/>
<path fill="#000000" opacity="1.000000" stroke="none" 
	d="
M298.266022,374.373962 
	C290.924133,379.064758 284.370422,377.889374 280.867706,371.568268 
	C277.918915,366.246826 279.978790,359.562988 285.487579,356.577698 
	C289.759216,354.262848 295.570282,355.184509 298.784973,358.686707 
	C302.614563,362.858795 302.530609,368.444885 298.266022,374.373962 
z"/>
<path fill="#000000" opacity="1.000000" stroke="none" 
	d="
M255.318207,362.689453 
	C262.739563,361.333923 268.643188,367.613617 268.207336,374.205841 
	C267.778564,380.691193 262.085876,385.087646 255.281281,384.313141 
	C250.427200,383.760651 246.551254,379.806000 245.892609,374.733765 
	C245.207428,369.457214 248.676682,364.824432 255.318207,362.689453 
z"/>
<path fill="#000000" opacity="1.000000" stroke="none" 
	d="
M289.261597,213.268524 
	C281.869141,211.052933 278.591064,206.259247 279.780029,199.985458 
	C280.730560,194.969574 285.821075,191.064255 291.059113,191.332382 
	C297.531769,191.663727 301.827667,196.276459 301.676453,202.732819 
	C301.530121,208.982346 296.965851,213.000381 289.261597,213.268524 
z"/>
<path fill="#000000" opacity="1.000000" stroke="none" 
	d="
M344.361389,295.231049 
	C337.230377,292.590179 334.140472,287.775909 335.479309,281.994598 
	C336.777100,276.390472 341.661285,272.783936 347.140564,273.383728 
	C353.429565,274.072205 357.529175,278.640442 357.321655,284.728668 
	C357.105225,291.078217 352.225983,295.179535 344.361389,295.231049 
z"/>
<path fill="#000000" opacity="1.000000" stroke="none" 
	d="
M328.209503,355.134460 
	C324.055573,358.909180 319.711426,359.466156 315.062866,357.192596 
	C310.868591,355.141113 309.089691,351.429230 309.185333,347.006104 
	C309.278534,342.694458 311.574066,339.504425 315.505737,337.600067 
	C319.852875,335.494507 325.733032,336.695068 328.704742,340.277161 
	C332.241730,344.540619 332.161041,349.460144 328.209503,355.134460 
z"/>
<path fill="#000000" opacity="1.000000" stroke="none" 
	d="
M212.710388,364.391479 
	C215.051590,357.816315 218.811935,354.865814 223.858017,355.250549 
	C229.111832,355.651123 233.304642,359.092712 234.226929,363.761658 
	C235.257309,368.977844 232.939545,373.915131 228.272720,376.260345 
	C220.513321,380.159607 210.775787,373.379395 212.710388,364.391479 
z"/>
<path fill="#000000" opacity="1.000000" stroke="none" 
	d="
M223.922150,213.301361 
	C216.896057,212.551605 213.136368,209.252731 212.670090,203.803391 
	C212.162384,197.869919 215.395340,192.870239 220.549088,191.618790 
	C225.795990,190.344711 231.307632,192.831238 233.429077,197.582336 
	C236.912476,205.383560 231.199127,213.103180 223.922150,213.301361 
z"/>
<path fill="#000000" opacity="1.000000" stroke="none" 
	d="
M200.155655,356.499207 
	C193.150940,359.865295 186.936920,358.217926 184.034454,352.546600 
	C181.206909,347.021667 183.270676,340.644531 188.837769,337.704163 
	C193.323395,335.334991 199.586288,336.746368 202.719772,340.832581 
	C206.511688,345.777435 205.763855,350.921478 200.155655,356.499207 
z"/>
</svg>