<svg version="1.1" id="Layer_1" xmlns="http://www.w3.org/2000/svg" xmlns:xlink="http://www.w3.org/1999/xlink" x="0px" y="0px"
	 width="100%" viewBox="0 0 512 512" enable-background="new 0 0 512 512" xml:space="preserve">
<path fill="#000000" opacity="1.000000" stroke="none" 
	d="
M290.651947,83.905441 
	C290.655334,80.420334 290.779510,77.414505 290.631500,74.422134 
	C290.458008,70.914268 291.944275,69.641518 295.412872,69.955292 
	C328.735657,72.969666 341.230072,100.514351 334.829041,126.438072 
	C328.733551,151.124435 305.758698,160.493439 284.276611,157.889893 
	C267.089752,155.806915 254.226593,147.559387 248.450851,130.376602 
	C246.412628,124.312912 246.239960,117.947487 245.740463,111.665199 
	C244.905472,101.163147 238.400604,92.755196 228.957535,90.421524 
	C218.585159,87.858192 207.812531,91.665146 202.940796,99.615631 
	C197.526840,108.451027 198.227936,120.521423 204.620941,128.191238 
	C208.080154,132.341324 212.559723,135.031815 217.854904,135.478714 
	C221.777328,135.809769 222.529373,137.586151 222.372635,140.920166 
	C222.200653,144.578522 222.179230,148.260025 222.382019,151.915375 
	C222.581558,155.512344 220.973862,156.580353 217.615448,156.358673 
	C202.092896,155.334091 189.652969,149.157547 182.212158,134.952072 
	C171.954681,115.369232 176.173508,90.652390 192.874771,77.844856 
	C208.575012,65.804962 226.419662,65.430130 243.983383,73.049812 
	C260.432434,80.185898 267.069824,94.280136 267.335754,111.695107 
	C267.608185,129.535324 280.241150,140.107483 296.898438,136.375076 
	C307.050415,134.100342 313.580444,125.534264 313.649078,114.401543 
	C313.720642,102.802261 307.403320,93.963570 296.407898,91.920326 
	C291.376068,90.985283 290.019928,88.858925 290.651947,83.905441 
z"/>
<path fill="#000000" opacity="1.000000" stroke="none" 
	d="
M338.218384,329.057617 
	C329.619202,326.438843 326.032562,320.430511 328.783630,313.867371 
	C330.753540,309.167816 335.506470,306.224701 340.193420,306.802338 
	C345.319061,307.433990 349.482788,311.445740 350.183136,316.427399 
	C350.853180,321.193756 347.739746,326.382874 342.950867,328.211426 
	C341.589935,328.731079 340.064667,328.820282 338.218384,329.057617 
z"/>
<path fill="#000000" opacity="1.000000" stroke="none" 
	d="
M261.132843,383.814453 
	C255.662750,385.062622 251.063950,384.447418 247.889633,379.809570 
	C245.569229,376.419312 245.063446,372.758789 246.951492,368.936462 
	C249.218903,364.346100 253.515610,362.089966 258.891663,362.701752 
	C263.358673,363.210114 267.002655,366.671265 268.039856,371.390930 
	C269.058929,376.028046 266.730377,380.396759 261.132843,383.814453 
z"/>
<path fill="#000000" opacity="1.000000" stroke="none" 
	d="
M166.728973,325.184570 
	C163.234482,320.500916 162.893768,315.962463 166.173035,311.511810 
	C168.697586,308.085449 172.153397,306.153687 176.553101,306.898895 
	C181.444046,307.727295 184.624817,310.619324 185.917572,315.459015 
	C187.045303,319.680847 184.988525,324.577850 181.067841,327.107208 
	C176.294022,330.186951 172.491409,329.748718 166.728973,325.184570 
z"/>
<path fill="#000000" opacity="1.000000" stroke="none" 
	d="
M339.606567,275.496063 
	C345.813751,272.177338 351.697815,273.066376 355.120544,277.575378 
	C358.453339,281.965881 357.996002,288.228271 354.055054,292.165527 
	C350.254486,295.962524 344.274170,296.473602 339.880432,293.376923 
	C333.988190,289.224091 333.748108,281.910248 339.606567,275.496063 
z"/>
<path fill="#000000" opacity="1.000000" stroke="none" 
	d="
M158.796631,278.050293 
	C162.426605,273.316620 166.935638,272.361023 171.965103,274.041077 
	C176.605408,275.591125 178.822495,279.404175 179.023010,284.010681 
	C179.218597,288.504639 176.822922,291.929871 172.867157,294.121429 
	C168.782761,296.384277 163.368851,295.496552 159.987503,292.084900 
	C156.275818,288.339935 155.815460,283.880493 158.796631,278.050293 
z"/>
<path fill="#000000" opacity="1.000000" stroke="none" 
	d="
M328.546661,254.080292 
	C327.260437,246.965714 330.667084,241.198944 336.606842,239.854874 
	C342.128479,238.605423 347.695679,241.814667 349.602417,247.346237 
	C351.399231,252.558960 348.576416,258.691620 343.339081,260.953522 
	C337.779602,263.354553 331.971802,260.785828 328.546661,254.080292 
z"/>
<path fill="#000000" opacity="1.000000" stroke="none" 
	d="
M172.537109,239.865295 
	C178.253693,239.205032 182.475647,240.909393 185.008347,245.802994 
	C187.143448,249.928391 186.564743,253.908035 183.701508,257.460388 
	C180.868912,260.974731 177.227722,262.391449 172.652451,261.416290 
	C167.806534,260.383484 165.153061,257.258240 164.148590,252.705063 
	C163.199585,248.403168 164.930298,244.860992 168.242676,242.142471 
	C169.375626,241.212601 170.826645,240.670258 172.537109,239.865295 
z"/>
<path fill="#000000" opacity="1.000000" stroke="none" 
	d="
M318.461487,210.089188 
	C330.444611,209.516953 333.813995,221.119598 329.670624,226.816345 
	C326.918030,230.600891 323.443237,232.851212 318.641846,232.038101 
	C313.749695,231.209625 310.576874,228.347244 309.532074,223.378143 
	C308.482666,218.386917 310.359833,214.600189 314.485565,211.858017 
	C315.571991,211.135910 316.870331,210.732620 318.461487,210.089188 
z"/>
<path fill="#000000" opacity="1.000000" stroke="none" 
	d="
M184.712128,214.967865 
	C189.538849,209.891449 193.116394,208.904770 198.246445,210.972549 
	C202.305573,212.608673 205.459747,217.288742 205.009369,221.689117 
	C204.510529,226.562988 201.858124,230.019653 197.119965,231.639847 
	C192.684647,233.156479 188.788071,231.927139 185.781158,228.599670 
	C182.174271,224.608307 181.579697,220.050674 184.712128,214.967865 
z"/>
<path fill="#000000" opacity="1.000000" stroke="none" 
	d="
M298.807495,373.821594 
	C291.600342,379.084595 284.763916,378.191254 281.001892,371.817200 
	C277.809540,366.408386 279.933655,359.457458 285.687714,356.483368 
	C290.025909,354.241089 295.770142,355.271820 298.935425,358.860504 
	C302.470764,362.868744 302.515350,368.048737 298.807495,373.821594 
z"/>
<path fill="#000000" opacity="1.000000" stroke="none" 
	d="
M248.264893,188.434448 
	C252.303589,183.940384 256.796600,182.828583 261.972443,185.287186 
	C266.358826,187.370804 268.461975,191.106262 268.120544,195.772583 
	C267.764099,200.644104 264.965118,204.083389 260.217407,205.655655 
	C255.525604,207.209396 251.595627,205.564972 248.605606,202.059845 
	C245.075150,197.921127 244.937866,193.323517 248.264893,188.434448 
z"/>
<path fill="#000000" opacity="1.000000" stroke="none" 
	d="
M301.125305,205.894196 
	C297.379974,212.181366 293.331909,214.444031 288.068146,213.073364 
	C283.519257,211.888840 280.541473,208.864395 279.767578,204.148590 
	C278.728088,197.814407 283.191406,192.019699 289.380798,191.376495 
	C296.186768,190.669250 301.268402,195.118057 301.526642,202.074707 
	C301.569244,203.221832 301.337585,204.379120 301.125305,205.894196 
z"/>
<path fill="#000000" opacity="1.000000" stroke="none" 
	d="
M318.380005,336.713745 
	C328.805023,335.112823 333.749512,346.044037 330.234436,352.383636 
	C327.639923,357.062866 322.865265,359.366089 317.659424,358.260284 
	C313.155792,357.303650 309.592987,353.176239 309.114990,348.361908 
	C308.599823,343.173096 311.702850,339.095917 318.380005,336.713745 
z"/>
<path fill="#000000" opacity="1.000000" stroke="none" 
	d="
M217.926025,356.714172 
	C223.915695,354.455872 228.767456,355.297546 231.844711,359.054382 
	C234.860245,362.735840 235.376709,366.958130 233.311111,371.157349 
	C231.139618,375.571869 227.371750,377.815582 222.335724,377.267670 
	C217.825775,376.776978 214.371170,374.427002 213.109650,370.047058 
	C211.607758,364.832489 212.830414,360.175446 217.926025,356.714172 
z"/>
<path fill="#000000" opacity="1.000000" stroke="none" 
	d="
M229.627823,193.138672 
	C235.106201,198.282181 235.953308,203.828125 232.319016,208.753891 
	C228.904205,213.382156 223.173615,214.685043 218.214386,211.960632 
	C212.906387,209.044601 210.963165,202.856110 213.651917,197.430878 
	C216.623138,191.435715 221.882736,189.925583 229.627823,193.138672 
z"/>
<path fill="#000000" opacity="1.000000" stroke="none" 
	d="
M205.002548,348.682861 
	C203.646423,353.939789 200.941788,357.495575 195.698746,358.266296 
	C191.287949,358.914642 187.432434,357.614838 184.817169,353.812012 
	C182.118912,349.888519 181.961502,345.771332 184.527115,341.686218 
	C186.975845,337.787170 190.576538,336.181885 195.108017,336.682831 
	C199.649460,337.184937 202.796661,339.576843 204.272141,343.924622 
	C204.742462,345.310516 204.814865,346.831451 205.002548,348.682861 
z"/>
</svg>