<svg version="1.1" id="Layer_1" xmlns="http://www.w3.org/2000/svg" xmlns:xlink="http://www.w3.org/1999/xlink" x="0px" y="0px"
	 width="100%" viewBox="0 0 512 512" enable-background="new 0 0 512 512" xml:space="preserve">
<path fill="#000000" opacity="1.000000" stroke="none" 
	d="
M221.435638,29.458363 
	C235.817291,14.663781 253.062897,11.710292 271.771362,16.975086 
	C287.800323,21.485836 297.196594,33.014179 300.402527,49.145927 
	C305.407898,74.332314 302.183929,98.190269 286.818726,119.441444 
	C280.763428,127.816322 272.747314,134.035324 262.786285,137.414032 
	C261.688599,137.786362 260.572205,138.133499 259.437683,138.355148 
	C258.822235,138.475388 258.150238,138.306000 256.834869,138.227158 
	C256.834869,132.041885 256.807129,125.944611 256.857269,119.847977 
	C256.867828,118.566917 257.854462,117.787796 258.850983,117.140671 
	C271.529572,108.907173 275.965973,95.955437 278.555389,82.119316 
	C280.214050,73.256401 280.626129,64.234100 278.517914,55.368778 
	C276.399933,46.462326 271.919006,39.190228 262.316589,36.929214 
	C254.118439,34.998859 246.397293,36.067497 240.247253,42.586395 
	C232.236008,51.078121 232.390839,67.208557 240.554169,75.494286 
	C246.527527,81.557198 253.822510,81.611580 261.464111,80.003197 
	C263.044769,79.670517 264.495239,78.493156 266.984955,79.552452 
	C267.560730,85.436172 267.550049,91.687134 266.919434,97.903206 
	C266.688202,100.182419 264.222443,100.742638 262.303131,101.154991 
	C239.988770,105.949135 214.602478,94.873680 211.562714,64.725533 
	C210.246918,51.675602 212.797272,39.967922 221.435638,29.458363 
z"/>
<path fill="#000000" opacity="1.000000" stroke="none" 
	d="
M337.361755,306.843384 
	C344.485168,307.094116 348.442139,309.693878 349.846985,315.032806 
	C351.124298,319.886963 349.417572,323.898346 345.510315,326.818085 
	C340.475922,330.579987 333.706024,329.429077 330.134613,324.437408 
	C326.395447,319.211273 327.566772,312.379028 332.925018,308.764008 
	C334.134796,307.947784 335.602417,307.513824 337.361755,306.843384 
z"/>
<path fill="#000000" opacity="1.000000" stroke="none" 
	d="
M266.945221,378.546448 
	C263.830200,383.878113 259.289764,385.351990 253.984558,384.125580 
	C249.335785,383.050903 246.677094,379.606903 245.970535,374.985901 
	C245.243057,370.228058 247.422943,366.495270 251.396225,364.106262 
	C255.595291,361.581451 259.982666,361.886536 263.950684,364.820343 
	C267.949493,367.776917 268.982758,372.516602 266.945221,378.546448 
z"/>
<path fill="#000000" opacity="1.000000" stroke="none" 
	d="
M201.757080,213.246460 
	C205.168243,217.696777 206.290268,222.078186 203.263809,226.811874 
	C200.712112,230.802979 197.016586,232.759354 192.327225,232.085495 
	C187.666092,231.415695 184.493225,228.625702 183.179413,224.052170 
	C181.782791,219.190338 183.437851,215.229279 187.350128,212.245605 
	C191.696518,208.930832 195.752945,209.212387 201.757080,213.246460 
z"/>
<path fill="#000000" opacity="1.000000" stroke="none" 
	d="
M313.321106,229.863937 
	C308.699280,224.380829 307.906189,219.995331 310.791779,215.559509 
	C313.315247,211.680450 316.829254,209.314667 321.705414,210.118271 
	C328.628082,211.259125 332.868317,217.683075 331.036194,224.051254 
	C329.252533,230.251007 322.608276,233.587112 316.312622,231.403809 
	C315.378937,231.080017 314.519623,230.541901 313.321106,229.863937 
z"/>
<path fill="#000000" opacity="1.000000" stroke="none" 
	d="
M168.265442,242.062546 
	C174.240173,238.642838 179.400146,239.077408 183.121292,243.049438 
	C186.718430,246.889114 187.235718,251.925659 184.489746,256.373383 
	C181.686874,260.913330 176.735153,262.685913 171.511276,261.210449 
	C165.374161,259.477020 159.870148,249.734055 168.265442,242.062546 
z"/>
<path fill="#000000" opacity="1.000000" stroke="none" 
	d="
M349.868134,253.326080 
	C346.468903,263.292969 336.062927,263.447388 331.267029,258.626434 
	C327.509918,254.849640 326.871490,249.448898 329.711334,244.918442 
	C332.399841,240.629395 337.504822,238.663452 342.267944,240.082779 
	C347.695068,241.700012 350.457214,246.296036 349.868134,253.326080 
z"/>
<path fill="#000000" opacity="1.000000" stroke="none" 
	d="
M156.721710,284.034119 
	C158.026199,277.498627 161.071945,274.082672 166.125168,273.463043 
	C170.980362,272.867706 175.041718,274.364502 177.546875,278.818329 
	C180.766663,284.542694 178.442413,291.435577 172.404221,294.373840 
	C166.849411,297.076874 160.010773,294.314026 157.596664,288.306335 
	C157.111237,287.098328 157.003082,285.738708 156.721710,284.034119 
z"/>
<path fill="#000000" opacity="1.000000" stroke="none" 
	d="
M345.223633,295.299316 
	C338.435333,293.564575 334.863770,289.337891 335.106720,283.807037 
	C335.326935,278.793274 339.360718,274.255188 344.332336,273.428070 
	C349.735931,272.529053 354.796722,275.423950 356.687408,280.495514 
	C359.427307,287.844879 354.206207,294.852020 345.223633,295.299316 
z"/>
<path fill="#000000" opacity="1.000000" stroke="none" 
	d="
M180.284561,327.593018 
	C173.649918,329.997437 168.570496,328.509460 165.637665,323.607880 
	C162.844086,318.938965 163.547211,313.638885 167.451126,309.937988 
	C171.395309,306.198944 176.638611,305.719543 181.216949,308.679413 
	C188.149582,313.161346 187.867569,321.889801 180.284561,327.593018 
z"/>
<path fill="#000000" opacity="1.000000" stroke="none" 
	d="
M301.613281,367.615906 
	C299.661713,374.671112 295.976227,377.620239 289.902740,377.313385 
	C285.201385,377.075867 280.804321,373.453949 279.832642,369.018585 
	C278.660400,363.667816 281.235077,358.409912 286.171204,356.213531 
	C292.949921,353.197205 302.392517,357.683472 301.613281,367.615906 
z"/>
<path fill="#000000" opacity="1.000000" stroke="none" 
	d="
M283.793182,193.702362 
	C289.445953,190.517090 294.838593,190.719681 298.326630,194.230087 
	C301.842834,197.768890 302.546906,202.098373 300.820312,206.651199 
	C299.090118,211.213470 294.143524,213.877136 289.116974,213.241638 
	C284.742645,212.688583 281.711548,210.131119 280.286285,206.123108 
	C278.642548,201.500763 279.724762,197.289017 283.793182,193.702362 
z"/>
<path fill="#000000" opacity="1.000000" stroke="none" 
	d="
M259.283569,184.396545 
	C265.785797,186.785278 268.888641,191.099228 268.159973,196.326431 
	C267.438293,201.503311 262.763550,205.966782 257.778595,206.238693 
	C252.473343,206.528091 247.441238,202.617416 246.154358,197.205002 
	C244.411728,189.875885 250.669342,183.532867 259.283569,184.396545 
z"/>
<path fill="#000000" opacity="1.000000" stroke="none" 
	d="
M327.099915,356.175659 
	C321.415466,359.424835 316.392151,359.108917 312.568970,355.502625 
	C309.065491,352.197937 308.105011,346.949371 310.219147,342.662292 
	C312.398071,338.243805 317.018890,335.956543 322.329498,336.749939 
	C326.519012,337.375885 329.209869,339.862244 330.633911,343.772827 
	C332.379852,348.567383 331.014954,352.563751 327.099915,356.175659 
z"/>
<path fill="#000000" opacity="1.000000" stroke="none" 
	d="
M231.480118,358.608276 
	C235.152863,364.212677 235.357849,368.589661 232.396225,372.706329 
	C229.568802,376.636414 225.661377,378.028015 221.042114,377.126068 
	C214.668793,375.881622 211.023193,369.273346 212.979492,362.863220 
	C214.795029,356.914246 221.397293,353.726410 227.401581,356.020569 
	C228.764496,356.541290 229.943878,357.542358 231.480118,358.608276 
z"/>
<path fill="#000000" opacity="1.000000" stroke="none" 
	d="
M230.898712,194.056122 
	C234.838928,198.308624 235.570694,202.839447 233.057205,207.568832 
	C230.846863,211.727814 227.163132,213.706924 222.351151,213.279068 
	C215.985107,212.713058 211.942032,207.430130 212.690155,200.657501 
	C213.333511,194.833420 218.705566,190.763504 224.666672,191.482071 
	C226.874130,191.748169 228.820297,192.524918 230.898712,194.056122 
z"/>
<path fill="#000000" opacity="1.000000" stroke="none" 
	d="
M188.410461,357.056335 
	C183.012787,352.765320 181.570023,348.393646 183.627319,343.475555 
	C185.684464,338.557770 189.647415,336.205963 195.092300,336.671600 
	C200.125565,337.102051 203.816055,340.533264 204.829300,345.790894 
	C205.636368,349.978607 203.918533,353.294647 200.876266,355.916046 
	C197.214661,359.071136 193.058807,359.098297 188.410461,357.056335 
z"/>
</svg>