<svg version="1.1" id="Layer_1" xmlns="http://www.w3.org/2000/svg" xmlns:xlink="http://www.w3.org/1999/xlink" x="0px" y="0px"
	 width="100%" viewBox="0 0 512 512" enable-background="new 0 0 512 512" xml:space="preserve">
<path fill="#000000" opacity="1.000000" stroke="none" 
	d="
M268.864624,104.157310 
	C271.471802,118.240692 278.204834,124.751701 293.524261,126.348938 
	C303.745483,127.414635 314.149139,127.694527 324.377930,125.650940 
	C335.839142,123.361130 344.443970,117.741432 347.093719,105.486488 
	C347.679993,102.775078 349.246368,101.671326 352.053284,101.749466 
	C357.045135,101.888420 362.045380,101.840897 367.039642,101.743828 
	C370.706757,101.672539 371.583252,103.448875 371.089417,106.796318 
	C366.931213,134.983475 346.901855,153.668961 318.601288,156.455048 
	C306.834656,157.613434 295.364716,157.076660 283.984924,154.115280 
	C273.042084,151.267639 263.851746,145.551865 256.511841,136.303925 
	C254.242310,138.436340 252.317795,140.420090 250.214996,142.192322 
	C234.513412,155.425568 215.922714,158.234436 196.282867,156.773560 
	C183.447311,155.818817 171.448532,152.327423 161.283905,143.890747 
	C149.188705,133.851654 144.579056,120.288490 142.867950,105.321312 
	C142.606155,103.031349 143.718933,101.834373 145.989395,101.823051 
	C151.650650,101.794823 157.312332,101.795563 162.973450,101.838066 
	C164.938049,101.852821 165.989258,102.981682 166.267990,104.903656 
	C168.217896,118.348679 176.766068,125.044678 189.549103,126.215591 
	C201.279709,127.290115 213.138062,127.978729 224.777130,124.836281 
	C234.704437,122.155991 241.653946,116.418961 244.050217,106.067749 
	C244.753494,103.029831 246.212204,101.541321 249.549011,101.697609 
	C254.367828,101.923325 259.205292,101.738976 264.034729,101.754524 
	C265.863953,101.760422 267.786957,101.616798 268.864624,104.157310 
z"/>
<path fill="#000000" opacity="1.000000" stroke="none" 
	d="
M335.152893,328.222321 
	C329.266083,324.839325 326.945404,320.414215 328.209167,315.559906 
	C329.489441,310.642181 333.715759,306.988983 338.407196,306.744873 
	C343.513794,306.479187 348.110382,309.728943 349.747406,314.703583 
	C351.083435,318.763672 349.907776,322.365326 347.219391,325.279144 
	C344.102753,328.657135 340.150604,330.108398 335.152893,328.222321 
z"/>
<path fill="#000000" opacity="1.000000" stroke="none" 
	d="
M264.577637,365.300476 
	C268.791840,370.754547 269.307861,374.697296 266.537720,379.225037 
	C263.898499,383.538849 259.914459,385.024689 255.053360,384.316040 
	C250.231308,383.613068 247.410110,380.564758 246.200119,376.048523 
	C244.936066,371.330414 246.852753,367.603455 250.490234,364.706879 
	C254.355591,361.628937 259.075043,361.807861 264.577637,365.300476 
z"/>
<path fill="#000000" opacity="1.000000" stroke="none" 
	d="
M175.011337,329.109314 
	C165.926376,326.921326 162.000305,320.910828 164.752502,314.015228 
	C166.656662,309.244354 171.416504,306.227448 176.137665,306.799042 
	C181.318741,307.426300 185.393799,311.367218 186.165512,316.496765 
	C186.825623,320.884674 184.069794,325.871490 179.707764,327.882263 
	C178.371155,328.498383 176.850235,328.714630 175.011337,329.109314 
z"/>
<path fill="#000000" opacity="1.000000" stroke="none" 
	d="
M182.824829,219.371201 
	C184.443466,213.597260 187.945404,210.121689 193.546341,210.023346 
	C198.050354,209.944275 201.966049,211.930344 203.923828,216.505325 
	C206.639069,222.850357 203.634705,229.458755 196.995605,231.709824 
	C191.175812,233.683090 184.705612,230.021759 183.083603,223.738434 
	C182.757751,222.476135 182.862534,221.102661 182.824829,219.371201 
z"/>
<path fill="#000000" opacity="1.000000" stroke="none" 
	d="
M309.500763,223.311401 
	C309.079132,215.933975 312.900543,210.764771 319.002563,209.966461 
	C324.211578,209.284973 329.758667,213.148788 331.065186,218.368698 
	C332.472382,223.990753 329.100983,229.843964 323.372925,231.723648 
	C317.547089,233.635422 312.141327,230.486069 309.500763,223.311401 
z"/>
<path fill="#000000" opacity="1.000000" stroke="none" 
	d="
M179.056961,240.387360 
	C184.824631,243.685959 187.244064,248.388489 185.928345,253.189758 
	C184.558823,258.187439 179.754059,261.970551 174.971130,261.817108 
	C169.604904,261.645020 165.615601,258.270142 164.152191,253.071213 
	C162.346741,246.657181 169.294098,237.006271 179.056961,240.387360 
z"/>
<path fill="#000000" opacity="1.000000" stroke="none" 
	d="
M349.997925,248.506012 
	C350.197449,255.494217 347.167694,260.041687 341.776581,261.401642 
	C336.685944,262.685791 331.493927,260.348999 329.171265,255.728287 
	C326.335327,250.086441 328.708710,243.471008 334.588104,240.629700 
	C340.585449,237.731384 346.874664,240.806442 349.997925,248.506012 
z"/>
<path fill="#000000" opacity="1.000000" stroke="none" 
	d="
M160.261658,276.254425 
	C166.987717,271.794678 174.028320,272.843781 177.380768,278.499420 
	C180.719437,284.131897 178.721832,291.009186 172.831650,294.160767 
	C168.435791,296.512817 162.616364,295.315948 159.347519,291.387421 
	C155.669022,286.966583 155.879868,282.065796 160.261658,276.254425 
z"/>
<path fill="#000000" opacity="1.000000" stroke="none" 
	d="
M352.919067,293.124634 
	C346.382080,296.721375 340.613647,295.703613 337.187225,290.633087 
	C333.792450,285.609436 334.829224,279.099762 339.596985,275.502655 
	C344.125641,272.085938 350.757629,272.700165 354.549286,276.887451 
	C358.668457,281.436401 358.179657,287.432007 352.919067,293.124634 
z"/>
<path fill="#000000" opacity="1.000000" stroke="none" 
	d="
M248.135895,201.687149 
	C244.911209,196.739639 245.146500,192.155518 248.656601,188.013779 
	C251.243195,184.961761 254.608307,183.312668 258.855438,184.246155 
	C263.725677,185.316589 266.853180,188.131790 267.996674,193.017090 
	C269.011810,197.354111 266.562592,202.389450 262.327972,204.806778 
	C257.751709,207.419144 253.543777,206.571854 248.135895,201.687149 
z"/>
<path fill="#000000" opacity="1.000000" stroke="none" 
	d="
M301.006470,198.301697 
	C302.313843,203.785934 301.462891,208.224167 296.827667,211.377655 
	C293.016296,213.970673 289.033203,214.082138 285.089539,211.860138 
	C280.852234,209.472717 278.677979,204.663925 279.833038,199.929947 
	C280.949432,195.354279 283.960693,192.409225 288.666382,191.516525 
	C293.881042,190.527267 297.583557,192.539307 301.006470,198.301697 
z"/>
<path fill="#000000" opacity="1.000000" stroke="none" 
	d="
M279.851227,363.566254 
	C283.094818,356.966736 286.864380,354.658722 292.377258,355.513214 
	C297.392212,356.290558 300.459412,359.120941 301.377655,364.131531 
	C302.560211,370.584045 298.455231,376.483795 292.306763,377.265045 
	C285.398682,378.142822 279.925385,373.470886 279.675934,366.462555 
	C279.646454,365.634796 279.734619,364.802795 279.851227,363.566254 
z"/>
<path fill="#000000" opacity="1.000000" stroke="none" 
	d="
M311.060303,353.732910 
	C308.324829,347.580109 308.773529,343.126312 312.420532,339.694855 
	C316.067902,336.263062 320.427032,335.640472 324.910583,337.536072 
	C329.565399,339.503998 331.518768,343.459991 331.284760,348.384094 
	C331.063965,353.031311 328.352753,356.304352 324.217010,357.792084 
	C319.262970,359.574127 314.706848,358.358978 311.060303,353.732910 
z"/>
<path fill="#000000" opacity="1.000000" stroke="none" 
	d="
M232.001602,195.207016 
	C235.242828,200.944275 235.175674,205.481598 231.921677,209.326019 
	C228.829544,212.979218 224.835434,214.196457 220.287476,212.898743 
	C214.158905,211.150009 210.997284,204.678787 213.075729,198.583359 
	C215.099655,192.647812 221.654434,189.704788 227.651489,192.190826 
	C229.138428,192.807251 230.394821,193.979797 232.001602,195.207016 
z"/>
<path fill="#000000" opacity="1.000000" stroke="none" 
	d="
M233.286789,361.238892 
	C235.287659,366.390594 234.758270,370.787109 230.961960,374.383026 
	C227.660416,377.510315 223.683655,378.232086 219.432022,376.573242 
	C214.621765,374.696503 212.378677,370.990723 212.642670,365.607269 
	C212.891312,360.537109 215.624023,357.242096 220.302475,355.688385 
	C225.090225,354.098419 229.403412,355.966797 233.286789,361.238892 
z"/>
<path fill="#000000" opacity="1.000000" stroke="none" 
	d="
M200.191376,338.471130 
	C204.906158,342.865997 206.082916,347.000793 204.177444,351.522369 
	C202.197433,356.220795 197.781891,358.876007 192.642929,358.327972 
	C187.626160,357.792938 184.455231,354.914398 183.115311,350.148254 
	C181.920700,345.898926 183.317291,342.161072 186.484253,339.346802 
	C190.544388,335.738892 195.161087,335.712128 200.191376,338.471130 
z"/>
</svg>