<svg version="1.1" id="Layer_1" xmlns="http://www.w3.org/2000/svg" xmlns:xlink="http://www.w3.org/1999/xlink" x="0px" y="0px"
	 width="100%" viewBox="0 0 512 512" enable-background="new 0 0 512 512" xml:space="preserve">
<path fill="#000000" opacity="1.000000" stroke="none" 
	d="
M244.847382,64.800217 
	C250.291336,66.478546 254.362137,69.574532 258.398163,73.822990 
	C264.267822,68.930992 270.837616,65.493752 278.325806,64.169708 
	C296.987305,60.870026 314.552307,62.416454 327.527557,78.152328 
	C337.420776,90.150505 338.660583,104.588737 335.759583,119.312828 
	C330.503693,145.989670 308.898834,154.448715 286.139374,152.814331 
	C273.144958,151.881195 262.056946,146.666977 254.336578,136.234268 
	C253.113907,135.909286 252.626328,136.344894 252.228561,136.905151 
	C240.368500,153.610519 217.465347,156.216614 199.730667,150.317200 
	C189.653793,146.965149 184.449829,139.258118 183.882660,128.823013 
	C183.333099,118.712143 187.234985,110.648460 196.486389,105.689140 
	C206.294617,100.431320 217.040451,99.316216 227.869827,98.726135 
	C232.520782,98.472725 237.195282,98.567436 241.857300,98.631729 
	C244.817154,98.672539 245.927628,97.416649 245.997482,94.433624 
	C246.281708,82.296394 239.744202,75.564934 227.471664,75.283272 
	C218.973068,75.088226 211.017349,77.209152 203.185593,80.173157 
	C201.553955,80.790665 199.578354,82.137085 198.234467,80.019989 
	C196.307663,76.984627 193.888901,74.058739 193.819427,70.224976 
	C193.801239,69.221077 195.162842,68.908958 196.101898,68.548920 
	C211.844208,62.513100 227.891953,60.330528 244.847382,64.800217 
M310.626190,82.861099 
	C301.449799,74.961899 290.990906,74.652740 280.115967,78.058708 
	C273.695099,80.069695 269.456299,84.677498 267.157257,90.996048 
	C263.201202,101.868622 263.212677,112.782715 266.919403,123.718185 
	C270.013611,132.846680 276.662994,138.075195 285.882324,139.372452 
	C295.983978,140.793869 305.428345,139.196228 312.545990,130.599670 
	C321.097015,120.271973 321.255005,92.294014 310.626190,82.861099 
M214.931595,139.822327 
	C218.257080,139.767822 221.608643,139.961243 224.903366,139.614441 
	C237.002045,138.340912 245.329315,129.286743 245.669830,117.272224 
	C245.890366,109.491051 245.891769,109.516411 237.964127,109.949249 
	C234.472687,110.139877 230.966064,110.092224 227.480957,110.350197 
	C221.666687,110.780556 215.879196,111.480652 210.541702,114.076546 
	C203.812958,117.349091 201.363556,121.976021 202.275253,129.491943 
	C202.955734,135.101791 206.700912,138.359695 214.931595,139.822327 
z"/>
<path fill="#000000" opacity="1.000000" stroke="none" 
	d="
M347.820007,324.621246 
	C344.089600,328.609924 340.035950,330.183838 335.064850,328.189056 
	C330.603851,326.398926 328.169281,322.917114 327.945251,318.297485 
	C327.728760,313.833893 330.024109,310.366394 333.901123,308.114258 
	C337.963776,305.754272 343.264130,306.524567 346.765106,309.854828 
	C350.818420,313.710510 351.225281,318.303070 347.820007,324.621246 
z"/>
<path fill="#000000" opacity="1.000000" stroke="none" 
	d="
M266.536743,379.249268 
	C263.212830,384.213074 258.670319,385.297241 253.669403,384.012909 
	C249.059219,382.828918 246.503036,379.292419 245.930176,374.652100 
	C245.369110,370.107361 247.561249,366.651093 251.235733,364.156921 
	C254.923218,361.653931 260.740143,362.091980 264.226898,364.992279 
	C268.184875,368.284515 269.052032,373.075531 266.536743,379.249268 
z"/>
<path fill="#000000" opacity="1.000000" stroke="none" 
	d="
M183.342041,325.239441 
	C176.327271,330.519897 169.665314,329.901154 165.835617,323.940521 
	C162.124130,318.163879 164.142670,311.104736 170.423019,307.897461 
	C174.578964,305.775116 179.940094,306.797516 183.223816,310.338623 
	C187.029160,314.442261 187.141129,319.018738 183.342041,325.239441 
z"/>
<path fill="#000000" opacity="1.000000" stroke="none" 
	d="
M336.776764,289.956482 
	C334.409271,283.675964 335.131165,279.274536 338.958588,275.997375 
	C342.805298,272.703613 347.148499,272.430084 351.515472,274.639832 
	C355.806335,276.811035 357.718506,280.605591 357.268311,285.359558 
	C356.816589,290.129303 354.064697,293.527496 349.591248,294.862457 
	C344.504883,296.380310 340.060577,294.896149 336.776764,289.956482 
z"/>
<path fill="#000000" opacity="1.000000" stroke="none" 
	d="
M174.490112,275.333618 
	C178.713287,279.191376 180.296448,283.450012 178.050598,288.568054 
	C176.023666,293.187286 171.682098,295.782715 166.862518,295.274231 
	C161.865036,294.746948 158.614563,291.909668 157.159241,287.162140 
	C155.784973,282.679016 157.302887,278.861938 160.705261,275.947998 
	C164.880371,272.372284 169.512787,272.582153 174.490112,275.333618 
z"/>
<path fill="#000000" opacity="1.000000" stroke="none" 
	d="
M335.998901,261.275452 
	C329.663879,258.362854 326.980438,253.858810 328.157227,248.696701 
	C329.339691,243.509933 333.702209,239.780457 338.701996,239.682205 
	C344.061096,239.576874 348.175964,242.781586 349.858368,247.908066 
	C352.013580,254.475342 345.066376,263.964325 335.998901,261.275452 
z"/>
<path fill="#000000" opacity="1.000000" stroke="none" 
	d="
M173.513519,261.535828 
	C166.768570,259.748840 163.044922,254.754349 164.013168,249.224701 
	C165.083984,243.109222 170.631363,238.952316 176.637680,239.764542 
	C182.222031,240.519699 186.622528,245.806183 186.245712,251.307022 
	C185.822235,257.488739 181.005463,261.509674 173.513519,261.535828 
z"/>
<path fill="#000000" opacity="1.000000" stroke="none" 
	d="
M321.609436,210.101074 
	C329.462494,212.455902 333.143036,218.599991 330.744446,224.787979 
	C328.350616,230.963531 321.612549,233.790573 315.588165,231.146942 
	C311.156311,229.202148 308.523773,224.137650 309.404724,219.251129 
	C310.401794,213.720581 314.697845,210.360352 321.609436,210.101074 
z"/>
<path fill="#000000" opacity="1.000000" stroke="none" 
	d="
M201.739532,213.265121 
	C205.210922,217.743347 206.256561,222.173462 203.187820,226.896942 
	C200.596848,230.885025 196.855438,232.812424 192.130554,232.045807 
	C187.434006,231.283798 184.320023,228.383499 183.105042,223.773514 
	C181.868362,219.081146 183.521332,215.229141 187.269135,212.323883 
	C191.607330,208.960938 195.722458,209.217682 201.739532,213.265121 
z"/>
<path fill="#000000" opacity="1.000000" stroke="none" 
	d="
M301.470398,368.383789 
	C299.015259,375.113708 295.415802,377.720428 289.608551,377.303772 
	C284.952881,376.969727 280.638672,373.200470 279.796906,368.731445 
	C278.806061,363.470947 281.245911,358.585266 285.980682,356.309082 
	C292.551392,353.150269 302.827423,357.436127 301.470398,368.383789 
z"/>
<path fill="#000000" opacity="1.000000" stroke="none" 
	d="
M282.128052,195.316544 
	C286.168610,191.095078 290.654144,190.308197 295.559021,192.430939 
	C299.864716,194.294357 301.541656,197.971069 301.574463,202.461639 
	C301.608307,207.089539 299.288574,210.310989 295.235321,212.327377 
	C290.994354,214.437149 285.804962,213.363358 282.499268,209.774139 
	C278.907013,205.873779 278.699127,201.092560 282.128052,195.316544 
z"/>
<path fill="#000000" opacity="1.000000" stroke="none" 
	d="
M262.364746,204.733932 
	C255.622849,207.262619 249.884796,205.355545 247.167267,200.002563 
	C244.644104,195.032455 246.226929,189.104370 250.910904,185.981583 
	C255.742828,182.760162 262.635193,183.926773 266.019165,188.538879 
	C269.914856,193.848343 268.690460,199.741669 262.364746,204.733932 
z"/>
<path fill="#000000" opacity="1.000000" stroke="none" 
	d="
M325.701477,337.854248 
	C330.983002,342.054871 332.606415,346.845428 330.629852,351.522156 
	C328.568604,356.399292 323.966034,359.014160 318.591705,358.361359 
	C313.730377,357.770874 309.919464,353.887421 309.194824,348.785645 
	C307.985168,340.269104 315.993225,334.755615 325.701477,337.854248 
z"/>
<path fill="#000000" opacity="1.000000" stroke="none" 
	d="
M214.197144,372.422791 
	C210.381699,363.160278 215.496735,354.538483 223.960251,355.255310 
	C229.242340,355.702667 233.386093,359.170990 234.250900,363.868622 
	C235.226898,369.170380 232.892426,373.953979 228.174591,376.319763 
	C223.558655,378.634369 218.974792,377.448029 214.197144,372.422791 
z"/>
<path fill="#000000" opacity="1.000000" stroke="none" 
	d="
M223.736633,191.361160 
	C230.240448,192.570923 233.559235,195.333069 234.250565,200.041687 
	C234.960892,204.879669 233.519592,208.895752 229.274307,211.604645 
	C225.001297,214.331238 220.761032,213.889603 216.765289,211.031708 
	C212.557083,208.021851 211.719772,203.578384 213.046066,199.057587 
	C214.464081,194.224152 218.006409,191.349411 223.736633,191.361160 
z"/>
<path fill="#000000" opacity="1.000000" stroke="none" 
	d="
M201.436584,339.445740 
	C205.247070,343.738617 206.250916,348.125854 203.413315,352.922058 
	C200.981995,357.031586 197.312119,358.889069 192.539581,358.320984 
	C187.769058,357.753143 184.627167,355.081573 183.238083,350.524689 
	C181.823212,345.883301 183.358780,341.983429 186.935318,338.965637 
	C190.932144,335.593140 195.598083,335.767395 201.436584,339.445740 
z"/>
</svg>