<svg version="1.1" id="Layer_1" xmlns="http://www.w3.org/2000/svg" xmlns:xlink="http://www.w3.org/1999/xlink" x="0px" y="0px"
	 width="100%" viewBox="0 0 512 512" enable-background="new 0 0 512 512" xml:space="preserve">
<path fill="#000000" opacity="1.000000" stroke="none" 
	d="
M224.500702,64.106682 
	C234.652161,62.368893 244.432877,61.658966 254.184036,63.646194 
	C269.097046,66.685379 277.069458,76.468887 277.309937,91.821754 
	C277.414337,98.486229 277.345764,105.153458 277.349884,111.819435 
	C277.354004,118.481110 277.350800,125.142776 277.350800,133.050705 
	C281.126740,125.848541 284.322540,119.652023 287.609100,113.504021 
	C295.619873,98.518921 303.715790,83.579147 311.670319,68.564369 
	C313.168427,65.736526 315.042786,64.368103 318.356323,64.547379 
	C322.806000,64.788132 327.278503,64.607048 331.528473,64.607048 
	C332.723175,67.245804 331.187256,68.653374 330.356964,70.153534 
	C316.239532,95.659836 302.012726,121.105957 288.003265,146.671234 
	C286.049561,150.236450 283.740417,151.979721 279.742188,151.368637 
	C279.579437,151.343735 279.409332,151.369690 279.242706,151.367203 
	C274.913025,151.302582 270.304840,152.147369 266.327606,150.930420 
	C261.854126,149.561615 263.878540,143.472168 260.788452,140.113968 
	C254.885086,145.141647 248.913040,150.163895 240.942657,151.807114 
	C230.747894,153.908936 220.737808,153.886032 211.109497,149.493225 
	C201.834732,145.261749 198.112213,137.298553 197.850739,127.712364 
	C197.596954,118.408554 201.348251,110.863052 209.719925,106.108986 
	C219.736969,100.420555 230.852539,99.375595 242.015457,98.728745 
	C246.667328,98.459175 251.345917,98.583000 256.011108,98.637276 
	C258.711914,98.668701 259.828430,97.568512 259.971558,94.791451 
	C260.592896,82.737679 253.926498,75.616150 241.819366,75.282768 
	C233.492554,75.053474 225.671738,77.045609 217.948807,79.828392 
	C216.187088,80.463196 214.085632,82.309258 212.467010,80.250534 
	C210.224213,77.397903 208.242706,74.202927 207.712479,70.512474 
	C207.541245,69.320778 209.197021,68.965858 210.267975,68.483948 
	C214.702103,66.488739 219.432419,65.482941 224.500702,64.106682 
M216.430740,123.272293 
	C215.461975,134.730392 219.792542,139.615097 231.319031,139.960541 
	C233.478073,140.025238 235.651077,139.892227 237.807800,139.724274 
	C252.143265,138.607925 261.679901,126.635315 259.718689,112.364822 
	C259.478577,110.617523 259.002411,109.440964 257.032288,109.616013 
	C247.605743,110.453598 238.000381,109.596428 228.785904,112.427574 
	C223.380890,114.088272 218.531769,116.540947 216.430740,123.272293 
z"/>
<path fill="#000000" opacity="1.000000" stroke="none" 
	d="
M347.481384,310.618103 
	C350.997528,315.282043 351.175964,319.781982 348.048340,324.241455 
	C345.581421,327.758759 342.042358,329.561371 337.772430,328.930237 
	C332.954529,328.218170 329.680420,325.363373 328.291077,320.573273 
	C327.039368,316.257690 329.095398,311.233612 333.194458,308.553192 
	C337.663330,305.631042 341.986206,306.176636 347.481384,310.618103 
z"/>
<path fill="#000000" opacity="1.000000" stroke="none" 
	d="
M262.604401,383.072388 
	C256.272614,385.352386 251.729431,384.591003 248.586685,380.726074 
	C245.750046,377.237579 244.798218,373.299164 246.914551,369.086945 
	C249.235199,364.467987 252.927368,362.168213 258.247681,362.646667 
	C263.166870,363.089081 266.234589,365.778198 267.653259,370.316376 
	C269.313538,375.627258 267.329987,379.733063 262.604401,383.072388 
z"/>
<path fill="#000000" opacity="1.000000" stroke="none" 
	d="
M185.956985,315.575256 
	C186.275497,322.458801 183.748459,326.550568 178.375214,328.429138 
	C174.002914,329.957703 168.714905,328.210358 166.050720,324.291473 
	C163.484512,320.516693 163.065674,316.547699 165.473923,312.565643 
	C167.789658,308.736572 171.185593,306.396179 175.784775,306.826172 
	C180.909821,307.305359 184.361786,310.146454 185.956985,315.575256 
z"/>
<path fill="#000000" opacity="1.000000" stroke="none" 
	d="
M335.185364,283.252075 
	C337.027252,276.873993 340.454132,273.437103 345.281952,273.305939 
	C350.109467,273.174774 354.069580,274.931915 356.282654,279.561310 
	C358.975861,285.194916 356.346283,292.028992 350.521454,294.567078 
	C344.793884,297.062744 337.938873,294.049286 335.893280,288.034576 
	C335.419586,286.641693 335.368896,285.105011 335.185364,283.252075 
z"/>
<path fill="#000000" opacity="1.000000" stroke="none" 
	d="
M171.999588,294.574066 
	C166.439575,296.239838 162.021927,295.032532 158.831940,290.610626 
	C156.309509,287.114075 155.867477,283.242554 157.970322,279.315826 
	C160.370178,274.834442 164.609467,272.792450 169.622986,273.517059 
	C174.710968,274.252441 177.587723,277.258820 178.737122,282.131104 
	C179.860199,286.891907 177.778076,290.902832 171.999588,294.574066 
z"/>
<path fill="#000000" opacity="1.000000" stroke="none" 
	d="
M332.914948,241.613068 
	C339.503357,238.349518 345.297852,239.671951 348.494659,244.873810 
	C351.689972,250.073242 350.338501,256.244324 345.226257,259.797699 
	C340.497864,263.084259 334.033722,262.163971 330.439880,257.692657 
	C326.384705,252.647308 327.130951,247.132950 332.914948,241.613068 
z"/>
<path fill="#000000" opacity="1.000000" stroke="none" 
	d="
M173.514221,261.539612 
	C166.765671,259.742584 163.047180,254.756226 164.010452,249.224609 
	C165.073990,243.117264 170.630707,238.955002 176.639236,239.764999 
	C182.226089,240.518143 186.624298,245.803833 186.244766,251.308731 
	C185.818146,257.497009 181.001358,261.519958 173.514221,261.539612 
z"/>
<path fill="#000000" opacity="1.000000" stroke="none" 
	d="
M331.272644,222.656937 
	C328.738770,229.701508 324.185364,232.989716 318.734497,232.102417 
	C313.178864,231.198074 309.151215,226.541916 309.158722,221.032379 
	C309.166260,215.498611 314.492218,209.982010 319.913269,209.892883 
	C326.573761,209.783386 331.022278,214.604660 331.272644,222.656937 
z"/>
<path fill="#000000" opacity="1.000000" stroke="none" 
	d="
M182.751236,221.828583 
	C183.476547,214.859741 187.063400,210.709320 192.601257,209.993835 
	C197.475891,209.364014 202.636566,212.684845 204.262558,217.497696 
	C206.273483,223.449936 203.453278,229.221405 197.409241,231.522751 
	C192.092911,233.547012 186.223679,231.016022 183.766724,225.570724 
	C183.294556,224.524277 183.097061,223.353882 182.751236,221.828583 
z"/>
<path fill="#000000" opacity="1.000000" stroke="none" 
	d="
M281.642517,359.936768 
	C285.377411,355.416382 289.831421,354.255005 294.860260,356.092010 
	C299.418884,357.757294 301.542542,361.457428 301.653442,366.182220 
	C301.760864,370.756348 299.551758,374.110504 295.512329,376.226959 
	C291.272766,378.448181 286.108856,377.537964 282.684265,374.012207 
	C279.102295,370.324432 278.680054,365.715973 281.642517,359.936768 
z"/>
<path fill="#000000" opacity="1.000000" stroke="none" 
	d="
M293.209015,191.652130 
	C299.601929,194.162048 301.905975,197.533096 301.541046,203.336380 
	C301.247009,208.012192 297.628296,212.183563 293.025330,213.152664 
	C288.303101,214.146851 283.515533,212.111801 281.109039,207.863434 
	C278.987427,204.118027 278.903198,200.238144 281.291962,196.562012 
	C284.001434,192.392319 287.869232,190.665268 293.209015,191.652130 
z"/>
<path fill="#000000" opacity="1.000000" stroke="none" 
	d="
M256.154175,183.962952 
	C262.156097,184.477448 266.418976,186.813095 267.869659,192.682739 
	C268.990753,197.218597 267.288574,200.893311 263.841034,203.707321 
	C258.703430,207.900848 251.381210,206.596619 247.784546,201.025772 
	C244.277802,195.594193 245.916031,188.811966 251.604813,185.597534 
	C252.883316,184.875122 254.369049,184.519501 256.154175,183.962952 
z"/>
<path fill="#000000" opacity="1.000000" stroke="none" 
	d="
M315.036194,357.216553 
	C309.363220,352.912598 307.732971,347.791229 310.153381,342.790344 
	C312.511139,337.918884 318.267944,335.445892 323.678131,336.980469 
	C328.417358,338.324677 331.679291,343.260834 331.310638,348.530548 
	C330.783905,356.060699 323.565735,360.069794 315.036194,357.216553 
z"/>
<path fill="#000000" opacity="1.000000" stroke="none" 
	d="
M219.839752,376.772888 
	C213.568878,373.296753 211.589233,369.455261 212.796173,363.666321 
	C213.688446,359.386597 217.831909,355.675232 222.195358,355.247345 
	C226.930359,354.783051 231.698959,357.413940 233.482880,361.744110 
	C235.098404,365.665558 234.903625,369.523865 232.189026,372.998596 
	C229.086136,376.970337 225.010788,378.069916 219.839752,376.772888 
z"/>
<path fill="#000000" opacity="1.000000" stroke="none" 
	d="
M232.637772,208.297714 
	C229.252533,212.834259 225.053543,214.382263 220.086945,212.776093 
	C216.043167,211.468353 213.252304,208.667267 212.706299,204.184418 
	C212.134583,199.490540 213.593735,195.649124 217.625992,192.956558 
	C221.303055,190.501144 227.093536,190.916656 230.699539,193.888962 
	C234.639496,197.136536 235.426559,202.248657 232.637772,208.297714 
z"/>
<path fill="#000000" opacity="1.000000" stroke="none" 
	d="
M203.410797,341.868134 
	C207.493805,348.817017 202.947281,355.839630 197.782501,357.830322 
	C191.971619,360.070129 185.384872,356.853546 183.334335,350.850830 
	C181.674515,345.991852 183.686920,340.780029 188.286011,338.026825 
	C193.241226,335.060394 198.548859,336.305573 203.410797,341.868134 
z"/>
</svg>