<svg version="1.1" id="Layer_1" xmlns="http://www.w3.org/2000/svg" xmlns:xlink="http://www.w3.org/1999/xlink" x="0px" y="0px"
	 width="100%" viewBox="0 0 512 512" enable-background="new 0 0 512 512" xml:space="preserve">
<path fill="#000000" opacity="1.000000" stroke="none" 
	d="
M293.540833,39.793869 
	C288.150513,38.962418 283.121277,37.895580 278.069397,36.949539 
	C260.080322,33.580811 246.629578,43.851295 245.439560,62.105930 
	C245.073669,67.718536 244.971130,73.360771 246.210480,78.999214 
	C249.503067,93.978882 260.329773,100.307465 274.864868,99.394302 
	C281.186432,98.997154 287.396667,97.768166 293.324890,95.390686 
	C294.257965,95.016487 295.221710,94.734520 296.585419,95.347115 
	C298.057922,98.755684 297.201263,102.570786 297.210022,106.295166 
	C297.214294,108.126221 295.690002,108.713158 294.292297,109.305428 
	C289.960907,111.140862 285.455536,112.132431 280.750824,112.476830 
	C277.210388,112.736015 273.638489,113.322258 273.157471,118.349335 
	C275.465698,119.397568 277.917938,120.344124 280.212463,121.582817 
	C289.052032,126.354889 290.054871,138.841049 281.765594,144.436050 
	C272.838928,150.461273 262.630920,150.860138 252.433731,149.059433 
	C248.524780,148.369141 250.295029,144.437454 250.301483,141.843750 
	C250.308197,139.147888 252.118896,138.595474 254.458115,139.102020 
	C258.951324,140.074997 263.405487,139.735016 267.816345,138.604996 
	C270.197418,137.994995 272.218018,136.856384 272.617157,134.151382 
	C273.047302,131.236115 271.381653,129.506699 269.020447,128.191116 
	C265.360718,126.152016 260.991608,126.289711 257.092743,124.540222 
	C257.606079,120.046349 261.492462,117.300331 262.322144,112.820190 
	C260.440155,112.282379 258.737793,111.741325 257.008057,111.310043 
	C239.659744,106.984512 228.926758,93.797638 227.525574,75.991745 
	C226.985031,69.122971 226.750427,62.349121 228.197662,55.656609 
	C232.552017,35.520428 245.244125,24.953558 267.370422,22.910376 
	C276.584534,22.059525 285.616394,23.295052 294.530243,25.699417 
	C298.154541,26.677008 299.786316,28.219301 297.581360,32.005112 
	C296.166779,34.433846 295.109192,37.070473 293.540833,39.793869 
z"/>
<path fill="#000000" opacity="1.000000" stroke="none" 
	d="
M330.657043,310.770020 
	C335.906097,306.315277 339.840973,305.593292 344.461273,308.217407 
	C348.582886,310.558289 350.735138,314.233276 350.135681,318.953766 
	C349.494263,324.004730 346.514160,327.437469 341.484344,328.711945 
	C337.002502,329.847534 333.279785,328.211609 330.441193,324.788788 
	C326.973297,320.607208 327.073639,316.737579 330.657043,310.770020 
z"/>
<path fill="#000000" opacity="1.000000" stroke="none" 
	d="
M250.799957,364.445404 
	C258.346802,360.788086 264.957001,363.028137 267.474548,369.746704 
	C269.642975,375.533569 266.321320,382.358459 260.479248,384.119629 
	C253.981598,386.078461 247.415039,382.234955 246.060547,375.567230 
	C245.137009,371.020935 247.048141,367.518616 250.799957,364.445404 
z"/>
<path fill="#000000" opacity="1.000000" stroke="none" 
	d="
M195.561813,232.128296 
	C188.484039,231.939743 184.551529,229.218216 183.077164,223.837387 
	C181.833679,219.299179 183.839691,214.401459 188.019684,211.770020 
	C192.962555,208.658310 199.956375,210.079575 203.039276,214.822266 
	C206.577759,220.265839 205.087601,227.156418 199.599655,230.436905 
	C198.469452,231.112488 197.182510,231.525848 195.561813,232.128296 
z"/>
<path fill="#000000" opacity="1.000000" stroke="none" 
	d="
M312.951324,212.890808 
	C318.974884,208.956497 324.531219,209.281723 328.440826,213.545364 
	C332.098053,217.533813 332.365570,223.377121 329.086365,227.647003 
	C325.563324,232.234375 320.046600,233.415298 314.901001,230.890518 
	C310.021088,228.496124 306.046844,219.431702 312.951324,212.890808 
z"/>
<path fill="#000000" opacity="1.000000" stroke="none" 
	d="
M173.348831,239.742889 
	C178.930008,239.394547 182.835709,241.357025 185.146912,246.096283 
	C187.102554,250.106461 186.488953,253.910919 183.811493,257.322205 
	C181.032440,260.862915 177.437363,262.368347 172.830902,261.450897 
	C167.968857,260.482544 165.272995,257.428436 164.185638,252.882446 
	C163.156250,248.578751 164.877350,245.053909 168.087570,242.235168 
	C169.465424,241.025360 171.087234,240.144302 173.348831,239.742889 
z"/>
<path fill="#000000" opacity="1.000000" stroke="none" 
	d="
M349.213684,246.214874 
	C351.225220,253.239502 348.523010,259.154358 342.680481,261.199249 
	C337.287506,263.086792 331.229645,260.457489 328.899628,255.217911 
	C326.579102,249.999649 328.630341,244.029358 333.769836,241.042816 
	C339.182495,237.897568 344.854950,239.677383 349.213684,246.214874 
z"/>
<path fill="#000000" opacity="1.000000" stroke="none" 
	d="
M176.710144,277.475159 
	C180.606232,285.248596 178.486252,292.074921 171.678528,294.743866 
	C165.981735,296.977264 159.272247,293.627747 157.262726,287.547150 
	C155.700577,282.820251 157.583237,277.788116 161.965530,274.977112 
	C166.453690,272.098206 171.620453,272.878815 176.710144,277.475159 
z"/>
<path fill="#000000" opacity="1.000000" stroke="none" 
	d="
M349.367065,295.034607 
	C343.942505,295.891296 339.655670,294.722443 336.895660,290.139404 
	C334.671783,286.446625 334.429779,282.597260 336.717499,278.799805 
	C339.070740,274.893555 342.489990,272.938019 347.120850,273.375153 
	C351.892883,273.825592 355.270782,276.233368 356.784668,280.805817 
	C358.291718,285.357788 357.045502,289.365845 353.568054,292.582703 
	C352.496185,293.574280 351.043457,294.154114 349.367065,295.034607 
z"/>
<path fill="#000000" opacity="1.000000" stroke="none" 
	d="
M168.373199,309.192932 
	C173.029160,305.793793 177.466812,306.034912 181.668625,309.032318 
	C185.181946,311.538574 186.823166,315.223724 186.060577,319.508453 
	C185.238449,324.127563 182.409134,327.249695 177.814667,328.616089 
	C173.438522,329.917572 168.253464,327.844055 165.738373,323.783264 
	C162.659760,318.812622 163.335007,314.643250 168.373199,309.192932 
z"/>
<path fill="#000000" opacity="1.000000" stroke="none" 
	d="
M246.663757,198.931580 
	C245.000031,191.647461 248.209137,185.947266 254.588242,184.269272 
	C259.977600,182.851608 266.027618,186.510498 267.730988,192.217621 
	C269.370361,197.710342 266.109650,203.684784 260.380524,205.685425 
	C255.336426,207.446869 250.265625,205.069901 246.663757,198.931580 
z"/>
<path fill="#000000" opacity="1.000000" stroke="none" 
	d="
M301.459167,204.381561 
	C299.082214,211.033813 295.375549,213.716232 289.608826,213.290207 
	C284.974335,212.947815 280.655579,209.169769 279.804382,204.713257 
	C278.839874,199.663635 281.077179,194.930542 285.555969,192.545563 
	C293.550140,188.288635 301.510712,194.000397 301.459167,204.381561 
z"/>
<path fill="#000000" opacity="1.000000" stroke="none" 
	d="
M301.225952,363.028503 
	C302.346588,368.461151 301.065094,372.625427 296.617523,375.546143 
	C292.751068,378.085266 288.751282,378.057190 284.855957,375.753937 
	C280.680206,373.284943 278.769867,368.441681 279.827454,363.671783 
	C280.760376,359.464264 284.934479,355.825500 289.399475,355.327362 
	C294.518433,354.756317 298.205780,357.053589 301.225952,363.028503 
z"/>
<path fill="#000000" opacity="1.000000" stroke="none" 
	d="
M331.223846,349.602753 
	C327.920746,360.334778 316.813354,360.284393 312.176453,355.082031 
	C308.859039,351.360046 308.137756,347.143555 310.273499,342.617188 
	C312.309601,338.301880 316.686005,336.157867 321.883240,336.704224 
	C326.509521,337.190552 330.129272,340.460205 331.110016,345.219757 
	C331.373993,346.500793 331.231903,347.865509 331.223846,349.602753 
z"/>
<path fill="#000000" opacity="1.000000" stroke="none" 
	d="
M229.307739,375.642151 
	C222.326767,378.749939 215.941193,376.735992 213.409439,370.959015 
	C210.921783,365.282654 213.713013,358.210175 219.343719,355.922607 
	C224.656250,353.764313 231.190277,356.460968 233.539505,361.781372 
	C235.701645,366.678040 234.435486,371.098694 229.307739,375.642151 
z"/>
<path fill="#000000" opacity="1.000000" stroke="none" 
	d="
M212.857269,205.429016 
	C210.896912,195.860550 218.939636,190.009399 225.254349,191.515610 
	C230.324951,192.725082 233.811081,195.871674 234.314270,200.670975 
	C234.879150,206.058456 232.228699,210.675598 227.444611,212.638031 
	C223.285965,214.343948 217.760300,212.927216 214.875046,209.288010 
	C214.067017,208.268784 213.580170,206.994904 212.857269,205.429016 
z"/>
<path fill="#000000" opacity="1.000000" stroke="none" 
	d="
M204.761902,345.537720 
	C204.995056,352.332123 201.658142,357.169464 196.389236,358.223846 
	C190.555374,359.391266 185.250793,356.406921 183.344940,350.885071 
	C181.620255,345.888062 183.838898,340.437256 188.678284,337.781952 
	C194.988724,334.319580 202.065903,337.584686 204.761902,345.537720 
z"/>
</svg>