<svg version="1.1" id="Layer_1" xmlns="http://www.w3.org/2000/svg" xmlns:xlink="http://www.w3.org/1999/xlink" x="0px" y="0px"
	 width="100%" viewBox="0 0 512 512" enable-background="new 0 0 512 512" xml:space="preserve">
<path fill="#000000" opacity="1.000000" stroke="none" 
	d="
M268.601013,60.378696 
	C277.805023,66.419838 286.881409,71.990219 294.439850,79.673195 
	C311.750519,97.269073 308.156372,127.700516 295.441956,140.372925 
	C283.864380,151.912262 269.290161,154.132980 253.866852,152.594742 
	C238.643661,151.076508 226.328491,144.448135 219.827927,129.980164 
	C210.185684,108.519920 216.199417,75.019638 252.450134,70.693375 
	C253.757782,70.537300 255.130646,70.667061 256.701569,69.308975 
	C244.192368,60.742409 231.941666,52.041607 221.491531,40.678772 
	C224.605881,37.330288 228.390762,36.009499 231.979996,34.501720 
	C234.195557,33.571003 235.697205,35.550663 237.157028,36.802757 
	C247.032257,45.272770 257.521576,52.916443 268.601013,60.378696 
M282.491089,130.948868 
	C287.989227,123.462708 288.320892,114.880829 287.711273,106.118889 
	C286.988403,95.729233 280.883331,87.096001 271.246857,84.520775 
	C260.228485,81.576241 249.396912,81.801041 240.517654,90.554016 
	C239.240967,91.812553 238.159821,93.426842 237.447647,95.075020 
	C232.952774,105.477730 232.689835,116.038254 236.915024,126.573570 
	C239.060760,131.923935 243.143158,135.526688 248.358398,137.868210 
	C259.055664,142.671021 273.733154,139.900970 282.491089,130.948868 
z"/>
<path fill="#000000" opacity="1.000000" stroke="none" 
	d="
M331.164764,310.185913 
	C335.488403,306.264618 339.982819,305.646942 344.689819,308.375610 
	C348.786835,310.750702 350.815002,314.521881 350.103302,319.228668 
	C349.376190,324.037292 346.507904,327.366882 341.692383,328.649628 
	C337.005280,329.898132 333.166229,328.219788 330.279968,324.561249 
	C326.796936,320.146301 327.078094,316.179260 331.164764,310.185913 
z"/>
<path fill="#000000" opacity="1.000000" stroke="none" 
	d="
M246.249176,376.287720 
	C245.530487,369.421448 248.816559,364.033936 254.111572,362.809082 
	C260.192322,361.402496 265.597992,364.311615 267.596527,370.066101 
	C269.388519,375.225922 267.001984,380.893158 261.969025,383.429535 
	C255.790176,386.543457 249.639023,383.876984 246.249176,376.287720 
z"/>
<path fill="#000000" opacity="1.000000" stroke="none" 
	d="
M203.176239,215.080688 
	C206.400894,223.206055 204.144699,229.132248 197.193253,231.624100 
	C191.517090,233.658783 185.291809,230.427582 183.299591,224.412628 
	C181.667145,219.483932 183.710114,214.291534 188.353775,211.566971 
	C193.336807,208.643250 198.212830,209.698685 203.176239,215.080688 
z"/>
<path fill="#000000" opacity="1.000000" stroke="none" 
	d="
M315.497559,211.144730 
	C322.572205,208.836456 328.340942,211.244110 330.626801,217.122147 
	C332.678558,222.398239 330.283112,228.397369 325.062561,231.057144 
	C320.140442,233.564880 313.990112,231.878265 311.008698,227.203094 
	C307.467651,221.650345 308.962799,215.929718 315.497559,211.144730 
z"/>
<path fill="#000000" opacity="1.000000" stroke="none" 
	d="
M186.085556,252.537842 
	C183.208130,262.701416 172.793716,263.911163 167.519043,258.808990 
	C164.162292,255.562012 162.832779,251.563492 164.700623,246.986740 
	C166.483826,242.617416 169.662491,239.941116 174.491440,239.708405 
	C179.275177,239.477875 182.854019,241.590790 185.031494,245.856140 
	C186.022308,247.796982 186.565491,249.903671 186.085556,252.537842 
z"/>
<path fill="#000000" opacity="1.000000" stroke="none" 
	d="
M339.006104,239.679672 
	C346.336121,240.793808 350.504517,245.182892 350.244934,251.073044 
	C350.011169,256.378510 345.378632,261.273895 340.132660,261.759064 
	C334.376556,262.291412 329.358154,258.525848 328.113922,252.740768 
	C326.776886,246.524200 331.295898,240.887482 339.006104,239.679672 
z"/>
<path fill="#000000" opacity="1.000000" stroke="none" 
	d="
M178.579712,287.174622 
	C174.978897,294.400177 169.926285,296.900177 164.054504,294.667328 
	C158.615814,292.599182 155.508362,286.675049 157.074936,281.361237 
	C158.755768,275.659882 164.354279,272.408295 170.377914,273.634857 
	C176.437546,274.868774 179.542191,279.771637 178.579712,287.174622 
z"/>
<path fill="#000000" opacity="1.000000" stroke="none" 
	d="
M338.660522,292.418213 
	C334.964386,288.052643 333.953979,283.626282 336.734955,278.805969 
	C338.913879,275.029175 342.254333,273.050598 346.640564,273.324982 
	C351.336182,273.618683 354.856567,275.802429 356.627289,280.356232 
	C358.342926,284.768372 356.929626,289.935608 353.189209,292.945282 
	C349.074066,296.256470 344.449493,296.173309 338.660522,292.418213 
z"/>
<path fill="#000000" opacity="1.000000" stroke="none" 
	d="
M181.778534,309.045288 
	C186.508682,314.134064 187.403900,318.162628 184.954361,322.788147 
	C182.727112,326.993835 179.098022,329.360779 174.400833,328.983398 
	C169.330688,328.576019 165.764008,325.686646 164.332550,320.613525 
	C163.051636,316.073944 164.703873,312.375000 168.079529,309.469360 
	C172.286423,305.848236 176.849136,305.943359 181.778534,309.045288 
z"/>
<path fill="#000000" opacity="1.000000" stroke="none" 
	d="
M281.813354,208.951965 
	C278.267456,202.342773 279.283569,196.792999 284.397064,193.260239 
	C288.921265,190.134598 295.392181,190.838516 298.922180,194.840302 
	C302.505432,198.902466 302.570709,205.364426 299.070190,209.490326 
	C294.673615,214.672379 287.857056,214.586517 281.813354,208.951965 
z"/>
<path fill="#000000" opacity="1.000000" stroke="none" 
	d="
M301.572479,365.326599 
	C301.083069,372.565643 297.766083,376.628387 292.192688,377.277374 
	C286.579865,377.930939 281.213287,374.448700 279.908875,369.306702 
	C278.568634,364.023224 281.058594,358.818970 285.889832,356.326569 
	C290.968109,353.706726 300.782318,356.006805 301.572479,365.326599 
z"/>
<path fill="#000000" opacity="1.000000" stroke="none" 
	d="
M260.800598,184.804718 
	C266.757904,188.029068 269.165588,192.460861 267.939148,197.360703 
	C266.672974,202.419434 262.071991,206.223099 257.203827,206.235733 
	C252.020172,206.249176 247.362671,202.413940 246.141449,197.126373 
	C244.301422,189.159531 251.735352,182.688461 260.800598,184.804718 
z"/>
<path fill="#000000" opacity="1.000000" stroke="none" 
	d="
M329.642334,353.302185 
	C326.262177,358.244843 321.756287,359.467712 316.712952,357.937927 
	C311.960358,356.496338 309.318542,352.780670 309.132050,347.846252 
	C308.953156,343.112061 311.251892,339.431641 315.658356,337.573761 
	C320.128876,335.688873 324.498230,336.148132 328.130981,339.660217 
	C331.685883,343.097046 332.201599,347.610901 329.642334,353.302185 
z"/>
<path fill="#000000" opacity="1.000000" stroke="none" 
	d="
M218.582092,356.302826 
	C225.520813,354.387390 230.481094,356.063293 233.136017,360.909698 
	C235.562820,365.339661 234.562149,371.214630 230.810089,374.565216 
	C226.153351,378.723602 218.680099,378.135895 214.809128,373.306824 
	C210.725662,368.212677 212.169418,361.172089 218.582092,356.302826 
z"/>
<path fill="#000000" opacity="1.000000" stroke="none" 
	d="
M212.711456,200.391785 
	C215.156967,193.620407 218.644531,190.956879 223.972168,191.396057 
	C229.221786,191.828812 233.157150,194.951553 234.180908,199.496811 
	C235.348541,204.680878 233.080719,209.678497 228.408463,212.161682 
	C220.700836,216.258087 210.746384,209.373901 212.711456,200.391785 
z"/>
<path fill="#000000" opacity="1.000000" stroke="none" 
	d="
M205.065338,347.091339 
	C203.801758,354.014679 200.718399,357.673737 195.799377,358.278198 
	C190.955322,358.873444 186.905731,357.420746 184.323181,353.061035 
	C180.961288,347.385681 183.201355,340.381866 189.197983,337.498749 
	C194.945282,334.735504 202.075668,337.705597 204.271881,343.805817 
	C204.607254,344.737366 204.781219,345.727051 205.065338,347.091339 
z"/>
</svg>