<svg version="1.1" id="Layer_1" xmlns="http://www.w3.org/2000/svg" xmlns:xlink="http://www.w3.org/1999/xlink" x="0px" y="0px"
	 width="100%" viewBox="0 0 512 512" enable-background="new 0 0 512 512" xml:space="preserve">
<path fill="#000000" opacity="1.000000" stroke="none" 
	d="
M253.053131,30.821491 
	C254.902573,31.683651 256.647614,32.116024 257.871185,33.159737 
	C265.121948,39.344566 272.221954,38.310757 279.390289,33.080303 
	C280.321014,32.401196 281.449585,31.994164 282.483673,31.455667 
	C289.225983,27.944799 292.340332,29.126085 295.515381,36.066856 
	C296.714722,38.688610 294.915009,39.273502 293.344147,40.154434 
	C289.192413,42.482731 284.524506,43.887512 280.338806,47.197334 
	C284.937531,52.133385 289.583038,56.650192 293.150848,62.064308 
	C304.765167,79.688873 308.916901,98.981865 305.219971,119.689003 
	C302.041687,137.491043 291.156586,148.343964 273.354706,151.759720 
	C258.316406,154.645203 243.648499,153.679260 230.861267,144.288589 
	C217.059052,134.152527 213.690994,119.827080 216.922791,103.807762 
	C219.864532,89.226181 229.045532,79.972549 243.514481,76.462746 
	C257.759979,73.007149 271.789673,73.231041 285.717712,81.202042 
	C281.301117,71.067131 275.115753,63.419399 267.606018,56.725052 
	C265.630157,54.963734 263.744324,55.347427 261.652069,56.426487 
	C256.176880,59.250233 250.681778,62.037239 245.154160,64.756660 
	C241.292465,66.656494 239.126740,65.176964 235.638107,59.019382 
	C233.454193,55.164673 236.897293,54.845787 238.773575,53.775734 
	C243.080627,51.319405 247.532547,49.117126 252.411789,46.556606 
	C248.955139,43.441952 245.176483,42.121811 241.681961,40.418407 
	C238.659302,38.945019 238.163681,37.200764 240.094162,34.581184 
	C240.291260,34.313732 240.452576,34.019741 240.627899,33.736454 
	C244.874634,26.874760 244.874573,26.874720 253.053131,30.821491 
M239.424500,94.938004 
	C226.555344,112.609848 233.941101,135.800919 254.100586,139.155807 
	C270.338379,141.858078 284.758423,137.477966 288.312408,118.984596 
	C290.596008,107.101746 287.355042,97.525566 279.139648,91.910591 
	C269.809235,85.533501 248.251068,85.081459 239.424500,94.938004 
z"/>
<path fill="#000000" opacity="1.000000" stroke="none" 
	d="
M335.151978,328.224243 
	C329.265167,324.850433 326.942963,320.420502 328.210480,315.561615 
	C329.493958,310.641479 333.719238,306.989380 338.411530,306.744324 
	C343.523102,306.477386 348.118225,309.724091 349.752411,314.707153 
	C351.083252,318.765289 349.912201,322.371552 347.223236,325.286804 
	C344.104889,328.667603 340.149170,330.109772 335.151978,328.224243 
z"/>
<path fill="#000000" opacity="1.000000" stroke="none" 
	d="
M252.904968,363.213135 
	C263.322113,361.778015 270.088043,367.777588 267.923828,376.022217 
	C266.662109,380.828827 262.765900,384.146545 258.059143,384.422272 
	C252.604416,384.741791 248.550385,382.280487 246.662750,377.503296 
	C244.861053,372.943604 246.051300,368.485748 250.058548,365.032013 
	C250.802216,364.391083 251.704529,363.934235 252.904968,363.213135 
z"/>
<path fill="#000000" opacity="1.000000" stroke="none" 
	d="
M202.766830,214.427765 
	C206.585739,222.587311 204.531616,228.798264 197.445358,231.514679 
	C191.583984,233.761536 185.163422,230.461227 183.218231,224.201614 
	C181.739883,219.444199 183.706741,214.436447 188.123444,211.712448 
	C192.896805,208.768509 197.442001,209.525375 202.766830,214.427765 
z"/>
<path fill="#000000" opacity="1.000000" stroke="none" 
	d="
M323.931458,210.693634 
	C330.163727,214.027939 332.608154,218.968689 330.966736,224.231537 
	C329.476532,229.009521 324.290344,232.621185 319.515076,232.206512 
	C314.027069,231.729950 309.980652,227.819046 309.266785,222.301468 
	C308.273834,214.626678 315.395721,208.791550 323.931458,210.693634 
z"/>
<path fill="#000000" opacity="1.000000" stroke="none" 
	d="
M186.173157,249.297241 
	C185.755539,256.260834 182.777725,260.250122 177.455933,261.461487 
	C172.520309,262.584961 167.561234,260.320221 165.243759,255.884399 
	C162.389801,250.421677 164.418503,244.004303 169.970215,240.933273 
	C175.082687,238.105240 181.730011,239.992920 184.664017,245.187775 
	C185.309494,246.330673 185.638321,247.652420 186.173157,249.297241 
z"/>
<path fill="#000000" opacity="1.000000" stroke="none" 
	d="
M334.273926,240.781784 
	C342.073822,238.378677 348.120514,241.369400 349.913666,248.159500 
	C351.400177,253.788300 347.430298,260.094238 341.543549,261.454956 
	C335.313843,262.894928 329.304535,259.081970 328.146423,252.671265 
	C327.208771,247.480804 329.581635,243.679794 334.273926,240.781784 
z"/>
<path fill="#000000" opacity="1.000000" stroke="none" 
	d="
M176.706482,277.478210 
	C180.608917,285.243866 178.489822,292.069916 171.678940,294.740967 
	C165.982224,296.975067 159.274353,293.628265 157.264465,287.549011 
	C155.702713,282.825226 157.585449,277.792053 161.966110,274.979889 
	C166.453293,272.099335 171.624283,272.881042 176.706482,277.478210 
z"/>
<path fill="#000000" opacity="1.000000" stroke="none" 
	d="
M353.795197,276.154419 
	C357.936127,281.573883 358.400665,285.708466 355.628174,290.148499 
	C353.036835,294.298401 348.284882,296.342957 343.544739,295.074188 
	C338.695374,293.776123 335.921692,290.401550 335.296936,285.489258 
	C334.717957,280.936829 336.635406,277.313263 340.485657,274.934479 
	C344.969208,272.164490 349.361664,272.904144 353.795197,276.154419 
z"/>
<path fill="#000000" opacity="1.000000" stroke="none" 
	d="
M179.600403,327.974365 
	C172.385086,330.095306 166.946457,327.640717 164.642029,321.557007 
	C162.595993,316.155487 165.360336,310.114532 171.025162,307.607941 
	C175.931793,305.436859 182.124893,307.642242 184.767319,312.501465 
	C187.847000,318.164795 186.143036,323.583466 179.600403,327.974365 
z"/>
<path fill="#000000" opacity="1.000000" stroke="none" 
	d="
M300.534241,371.279724 
	C296.594482,376.726135 292.565857,378.573761 287.574921,376.978271 
	C283.127716,375.556641 280.202698,372.524689 279.711792,367.658539 
	C279.203491,362.620056 281.598267,358.259766 286.056946,356.288422 
	C290.216034,354.449524 294.328278,354.916260 297.767426,357.812317 
	C301.941071,361.326813 302.561310,365.933929 300.534241,371.279724 
z"/>
<path fill="#000000" opacity="1.000000" stroke="none" 
	d="
M301.007751,198.343628 
	C302.172089,203.794907 301.503510,208.280655 296.778564,211.412094 
	C292.934662,213.959686 288.969177,214.067703 285.040680,211.833908 
	C280.827850,209.438446 278.671326,204.593491 279.847961,199.882278 
	C280.987579,195.319244 283.999298,192.378418 288.708740,191.503830 
	C293.918640,190.536346 297.618317,192.567078 301.007751,198.343628 
z"/>
<path fill="#000000" opacity="1.000000" stroke="none" 
	d="
M245.898743,195.800354 
	C246.860626,188.770279 249.934280,184.853455 255.306519,184.159042 
	C259.905792,183.564529 263.871490,185.223221 266.444855,189.229294 
	C269.893555,194.598053 268.024231,201.498856 262.434845,204.688187 
	C256.995056,207.792160 250.019257,205.669968 247.182663,199.971588 
	C246.599060,198.799164 246.348419,197.460999 245.898743,195.800354 
z"/>
<path fill="#000000" opacity="1.000000" stroke="none" 
	d="
M328.797455,340.364441 
	C332.351135,346.881592 332.122070,351.258423 328.126343,355.245178 
	C324.549835,358.813660 320.273346,359.397369 315.726044,357.528015 
	C311.448608,355.769562 309.271515,352.232391 309.127258,347.767212 
	C308.981537,343.256378 311.109619,339.646240 315.282623,337.758881 
	C320.104736,335.577911 324.671143,336.153564 328.797455,340.364441 
z"/>
<path fill="#000000" opacity="1.000000" stroke="none" 
	d="
M230.310364,357.564880 
	C234.674316,361.507751 235.546906,366.097260 233.413803,370.917480 
	C231.436752,375.385101 227.673508,377.655334 222.597809,377.308167 
	C215.970154,376.854858 211.772385,371.384766 212.708008,364.403137 
	C213.507751,358.435455 219.364395,354.294861 225.397629,355.573944 
	C226.983566,355.910156 228.466278,356.733063 230.310364,357.564880 
z"/>
<path fill="#000000" opacity="1.000000" stroke="none" 
	d="
M234.348129,202.048981 
	C233.633453,209.350586 229.360046,213.473892 223.132477,213.300766 
	C217.158279,213.134689 212.787033,208.769928 212.642654,202.826538 
	C212.494400,196.723190 216.550247,191.810745 222.121231,191.346146 
	C228.752853,190.793076 233.305603,194.621490 234.348129,202.048981 
z"/>
<path fill="#000000" opacity="1.000000" stroke="none" 
	d="
M204.099976,351.709167 
	C199.957489,357.960724 195.623398,359.764984 190.118256,357.830994 
	C184.688110,355.923370 181.550156,349.993103 183.150146,344.662384 
	C185.003662,338.487091 191.155655,335.152527 197.265350,337.011505 
	C203.278641,338.841156 206.037521,344.503540 204.099976,351.709167 
z"/>
</svg>