<svg version="1.1" id="Layer_1" xmlns="http://www.w3.org/2000/svg" xmlns:xlink="http://www.w3.org/1999/xlink" x="0px" y="0px"
	 width="100%" viewBox="0 0 512 512" enable-background="new 0 0 512 512" xml:space="preserve">
<path fill="#000000" opacity="1.000000" stroke="none" 
	d="
M286.816833,29.680397 
	C287.760773,27.503046 287.109802,24.572777 290.143158,24.350538 
	C293.926666,24.073341 297.843353,23.300219 301.403870,25.186386 
	C302.649139,25.846087 302.271332,27.599483 302.271484,28.902077 
	C302.274872,57.048752 302.486633,85.198235 302.142059,113.340858 
	C301.984192,126.233986 297.989563,137.683624 285.631256,144.305145 
	C276.538971,149.176804 266.487701,150.010193 256.529663,149.894974 
	C247.262558,149.787766 237.956543,149.100388 228.881271,146.436035 
	C224.033920,145.012955 221.893997,142.639313 222.622086,137.613190 
	C222.948853,135.357544 222.341110,132.983414 223.158325,130.875626 
	C225.565430,130.070511 227.275757,131.405823 229.136215,131.989471 
	C241.151764,135.758804 253.353073,138.151596 265.949554,135.777451 
	C277.031586,133.688751 283.456879,126.524925 284.519775,115.289780 
	C284.887909,111.398560 284.578369,107.443237 284.578369,102.470856 
	C277.151123,109.041542 269.283875,111.700455 260.434082,112.829010 
	C236.458725,115.886391 216.859070,99.746254 215.529388,75.710983 
	C215.103333,68.009758 215.055237,60.430672 216.806747,52.958015 
	C221.724808,31.975733 239.436081,20.017365 260.850555,23.021545 
	C270.850098,24.424355 271.354950,24.637798 284.843262,33.173149 
	C286.512451,32.780994 286.479584,31.325449 286.816833,29.680397 
M236.672028,49.275448 
	C233.220169,56.938229 233.033463,65.047623 233.316544,73.242584 
	C233.945831,91.459465 245.211868,101.395294 263.283997,99.604950 
	C274.736938,98.470352 281.324432,92.556969 283.877533,81.279053 
	C285.445435,74.353294 285.068878,67.334206 284.502899,60.413216 
	C283.375580,46.627872 277.030060,39.242035 265.003662,36.687881 
	C252.400940,34.011330 243.273880,37.900299 236.672028,49.275448 
z"/>
<path fill="#000000" opacity="1.000000" stroke="none" 
	d="
M342.983948,307.544525 
	C348.844269,310.878235 351.192261,315.321442 349.975250,320.190338 
	C348.754883,325.072845 344.032776,329.018860 339.292145,329.117706 
	C334.324524,329.221252 329.908752,325.682098 328.273743,320.633179 
	C325.896637,313.292633 334.439148,303.853363 342.983948,307.544525 
z"/>
<path fill="#000000" opacity="1.000000" stroke="none" 
	d="
M267.830597,370.697021 
	C268.482361,377.450134 265.984802,382.055786 261.009094,383.916290 
	C256.187408,385.719208 250.644180,383.962982 247.803558,379.732513 
	C244.079224,374.185944 246.033951,366.805634 252.067505,363.633484 
	C258.108063,360.457672 264.495392,363.189453 267.830597,370.697021 
z"/>
<path fill="#000000" opacity="1.000000" stroke="none" 
	d="
M199.917328,211.822876 
	C204.868851,216.329666 206.144989,220.721130 204.123413,225.316193 
	C202.201721,229.684250 197.430252,232.630981 192.952682,232.214951 
	C188.165115,231.770111 184.182404,228.366409 183.032364,223.624878 
	C181.986282,219.311890 183.367157,215.661499 186.599045,212.824661 
	C190.560883,209.347061 194.989670,209.189667 199.917328,211.822876 
z"/>
<path fill="#000000" opacity="1.000000" stroke="none" 
	d="
M309.880249,217.223389 
	C313.583771,211.271149 317.402130,209.185104 322.173065,210.214310 
	C327.245331,211.308502 330.676514,214.828583 331.263580,219.564804 
	C331.862915,224.400208 329.814484,228.004700 325.870209,230.558640 
	C321.746185,233.228989 317.436798,232.800461 313.695923,230.036911 
	C309.566589,226.986343 308.286255,222.618851 309.880249,217.223389 
z"/>
<path fill="#000000" opacity="1.000000" stroke="none" 
	d="
M166.101120,244.295120 
	C169.870300,239.887985 174.174500,238.517059 179.307037,240.520752 
	C183.636795,242.211044 185.886292,245.667587 186.182877,250.111801 
	C186.485703,254.649719 184.202911,258.093506 180.307877,260.374115 
	C176.238510,262.756805 170.777481,262.017395 167.375214,258.733093 
	C163.547302,255.037949 163.062744,250.474777 166.101120,244.295120 
z"/>
<path fill="#000000" opacity="1.000000" stroke="none" 
	d="
M342.840210,261.149109 
	C335.943970,262.393494 331.368286,260.420685 329.026581,255.463806 
	C326.979095,251.129669 327.992218,245.971603 331.538971,242.672821 
	C335.265564,239.206787 340.614227,238.551178 344.907593,241.300919 
	C353.263214,246.652390 351.215973,257.699097 342.840210,261.149109 
z"/>
<path fill="#000000" opacity="1.000000" stroke="none" 
	d="
M178.325012,287.914978 
	C174.392563,294.610016 169.798370,296.739227 164.254517,294.754547 
	C158.607925,292.733032 155.389267,286.525269 157.170319,281.091431 
	C159.084518,275.251373 165.037323,272.129791 171.157745,273.756622 
	C176.926285,275.289948 179.917038,280.948456 178.325012,287.914978 
z"/>
<path fill="#000000" opacity="1.000000" stroke="none" 
	d="
M350.520294,274.090576 
	C356.453796,277.768616 358.577057,282.463287 356.905334,287.561432 
	C355.211060,292.728424 350.390808,295.833496 344.914673,295.285431 
	C339.853607,294.778961 335.928040,290.756073 335.227814,285.391998 
	C334.350952,278.674103 341.296906,270.715240 350.520294,274.090576 
z"/>
<path fill="#000000" opacity="1.000000" stroke="none" 
	d="
M179.599762,327.973083 
	C172.393799,330.091003 166.943695,327.631317 164.642838,321.556793 
	C162.599274,316.161499 165.367523,310.113983 171.027603,307.608673 
	C175.929871,305.438782 182.129532,307.647369 184.767075,312.503265 
	C187.846542,318.172821 186.145874,323.579254 179.599762,327.973083 
z"/>
<path fill="#000000" opacity="1.000000" stroke="none" 
	d="
M281.346985,208.301331 
	C278.601898,202.034973 279.363068,197.443146 283.437561,193.967514 
	C287.051849,190.884460 292.336945,190.427246 296.470215,192.840027 
	C300.461365,195.169876 302.465698,200.058411 301.351105,204.914215 
	C300.363434,209.217148 297.502991,211.955582 293.402344,212.994873 
	C288.640900,214.201630 284.553528,212.698166 281.346985,208.301331 
z"/>
<path fill="#000000" opacity="1.000000" stroke="none" 
	d="
M301.683807,366.085266 
	C300.492279,373.934570 296.473663,377.627838 289.927979,377.312592 
	C284.580048,377.055054 280.123718,372.807770 279.694031,367.558716 
	C279.189606,361.396942 283.096130,356.294617 289.003906,355.398956 
	C295.568115,354.403839 300.329163,358.284485 301.683807,366.085266 
z"/>
<path fill="#000000" opacity="1.000000" stroke="none" 
	d="
M247.345139,200.317474 
	C244.651459,192.656769 247.359863,186.583008 254.067612,184.452637 
	C259.828217,182.623077 266.244354,186.426651 267.872925,192.636597 
	C269.111694,197.360123 266.517761,202.693619 261.817566,205.087265 
	C256.876282,207.603668 251.810181,206.028763 247.345139,200.317474 
z"/>
<path fill="#000000" opacity="1.000000" stroke="none" 
	d="
M309.950073,351.703735 
	C308.192230,346.359589 309.305450,342.051971 313.417145,338.848633 
	C317.166626,335.927399 321.481232,335.735138 325.636169,337.878571 
	C329.923523,340.090332 331.670471,344.000702 331.258270,348.691620 
	C330.835419,353.504242 327.882324,356.648712 323.469116,358.106628 
	C318.206543,359.845093 313.782013,357.672150 309.950073,351.703735 
z"/>
<path fill="#000000" opacity="1.000000" stroke="none" 
	d="
M219.986481,355.721863 
	C226.890701,354.726959 231.402573,356.848694 233.571075,361.844482 
	C235.531113,366.359985 234.203384,371.827362 230.399414,374.904816 
	C226.370041,378.164612 220.899780,378.118317 216.556870,375.024628 
	C210.866440,370.971069 210.729599,359.288971 219.986481,355.721863 
z"/>
<path fill="#000000" opacity="1.000000" stroke="none" 
	d="
M232.466370,195.843994 
	C235.322769,201.775909 234.949982,206.289642 231.400742,209.911270 
	C228.070038,213.309891 224.026016,214.330780 219.582840,212.590271 
	C215.204376,210.875076 212.722321,207.691010 212.603653,202.746506 
	C212.481384,197.652634 214.744080,193.903030 219.240662,192.115784 
	C224.105759,190.182068 228.672241,191.431931 232.466370,195.843994 
z"/>
<path fill="#000000" opacity="1.000000" stroke="none" 
	d="
M193.993271,358.387939 
	C187.400223,357.508911 183.925522,354.774353 182.981155,349.618408 
	C182.084503,344.722900 183.895432,340.765686 188.126022,338.167786 
	C192.388138,335.550537 196.752884,335.979614 200.681274,338.868042 
	C204.331985,341.552246 205.824768,345.424530 204.654755,349.825653 
	C203.296738,354.933990 199.980942,358.106812 193.993271,358.387939 
z"/>
</svg>