<svg version="1.1" id="Layer_1" xmlns="http://www.w3.org/2000/svg" xmlns:xlink="http://www.w3.org/1999/xlink" x="0px" y="0px"
	 width="100%" viewBox="0 0 512 512" enable-background="new 0 0 512 512" xml:space="preserve">
<path fill="#000000" opacity="1.000000" stroke="none" 
	d="
M253.096741,79.008217 
	C244.693237,82.441078 240.095413,88.572624 238.089935,96.862320 
	C236.344299,104.077965 236.124176,111.361961 237.679688,118.591705 
	C240.876999,133.452255 252.119370,141.463242 268.048523,139.445953 
	C286.311035,137.133118 282.420868,139.793839 282.780731,123.292603 
	C282.956055,115.254128 282.806366,115.250900 274.633301,115.246849 
	C273.301025,115.246193 271.968719,115.247498 270.636444,115.243813 
	C262.491089,115.221275 262.002563,114.580704 262.642975,106.266899 
	C262.833038,103.799805 263.672241,102.617355 266.222443,102.626884 
	C276.380524,102.664856 286.538940,102.653297 296.697052,102.616325 
	C299.172516,102.607323 300.333649,103.642509 300.325562,106.195641 
	C300.285980,118.685486 300.278412,131.175751 300.349335,143.665344 
	C300.363037,146.080658 299.280243,147.359680 297.092377,147.981644 
	C282.073029,152.251160 266.856720,154.914322 251.274124,151.962997 
	C233.546494,148.605408 222.497772,137.187592 219.652863,119.122292 
	C217.101181,102.918915 218.501099,87.489418 231.073792,75.125061 
	C237.207230,69.093254 244.790970,65.856194 253.117752,64.224785 
	C267.101379,61.485062 280.892090,62.233002 294.509216,66.502350 
	C298.133484,67.638649 299.233673,69.193001 297.410736,73.024864 
	C293.222107,81.829544 293.359833,82.069595 284.284332,79.119919 
	C273.988403,75.773590 263.761200,75.271080 253.096741,79.008217 
z"/>
<path fill="#000000" opacity="1.000000" stroke="none" 
	d="
M329.348877,312.692505 
	C333.649628,307.097687 337.659790,305.618774 342.795044,307.479156 
	C347.379517,309.140015 350.425629,313.488708 350.254700,318.128876 
	C350.076538,322.966583 346.678650,327.208893 341.811676,328.631622 
	C337.521484,329.885742 333.843109,328.476440 330.994293,325.411774 
	C327.673920,321.839844 326.836975,317.589050 329.348877,312.692505 
z"/>
<path fill="#000000" opacity="1.000000" stroke="none" 
	d="
M245.814240,373.921570 
	C247.617844,363.469879 256.739594,359.048737 263.933655,364.818298 
	C267.589600,367.750305 269.138458,371.678101 267.789429,376.304199 
	C266.480896,380.791382 263.549866,383.765106 258.738770,384.359802 
	C253.648422,384.989014 249.593430,383.247498 247.162384,378.566010 
	C246.490891,377.272919 246.263977,375.748962 245.814240,373.921570 
z"/>
<path fill="#000000" opacity="1.000000" stroke="none" 
	d="
M203.177490,226.962189 
	C198.763290,232.057770 194.627441,233.344528 189.783325,231.395554 
	C185.262604,229.576706 182.438049,225.154846 182.738724,220.367264 
	C183.027618,215.767685 186.452805,211.645096 191.222519,210.381485 
	C195.486816,209.251755 199.318497,210.519989 202.071320,213.720490 
	C205.358063,217.541763 206.195496,222.000458 203.177490,226.962189 
z"/>
<path fill="#000000" opacity="1.000000" stroke="none" 
	d="
M310.460846,226.244034 
	C305.816193,216.702133 315.237183,208.918152 321.373871,209.994904 
	C326.793030,210.945770 330.713409,214.648117 331.282288,219.734604 
	C331.853699,224.843811 328.888580,229.597885 323.936493,231.512375 
	C319.083771,233.388474 314.439117,231.665771 310.460846,226.244034 
z"/>
<path fill="#000000" opacity="1.000000" stroke="none" 
	d="
M168.267090,242.064484 
	C174.240891,238.643555 179.394547,239.077881 183.116760,243.051712 
	C186.714020,246.892120 187.232437,251.925079 184.488754,256.371643 
	C181.690598,260.906555 176.733902,262.681915 171.512466,261.210419 
	C165.389786,259.484955 159.876526,249.739700 168.267090,242.064484 
z"/>
<path fill="#000000" opacity="1.000000" stroke="none" 
	d="
M333.582031,241.173737 
	C340.526215,238.354034 346.440521,240.317825 349.124634,246.007233 
	C351.574493,251.200150 349.662018,257.176270 344.567078,260.248444 
	C339.707672,263.178589 333.213959,261.761505 329.959106,257.060669 
	C326.308228,251.787781 327.477448,246.214691 333.582031,241.173737 
z"/>
<path fill="#000000" opacity="1.000000" stroke="none" 
	d="
M158.083038,289.506744 
	C155.400360,281.807068 158.313721,275.392883 164.926392,273.665131 
	C171.608871,271.919128 177.709396,275.915833 178.940125,282.846100 
	C179.728226,287.283905 176.729980,292.428314 172.144196,294.506531 
	C167.232529,296.732483 162.478622,295.140167 158.083038,289.506744 
z"/>
<path fill="#000000" opacity="1.000000" stroke="none" 
	d="
M349.365906,295.032104 
	C343.940460,295.895081 339.651855,294.717957 336.899658,290.137604 
	C334.569794,286.260040 334.426117,282.257751 336.991333,278.382996 
	C339.506561,274.583740 342.971954,272.848694 347.615387,273.449463 
	C352.457733,274.075989 355.609833,276.733276 356.939850,281.279297 
	C358.215393,285.639099 356.934906,289.532379 353.566467,292.579742 
	C352.481384,293.561371 351.041290,294.150574 349.365906,295.032104 
z"/>
<path fill="#000000" opacity="1.000000" stroke="none" 
	d="
M182.826279,325.817261 
	C175.555817,330.602753 168.916977,329.512115 165.437866,323.274170 
	C162.238144,317.537170 164.534073,310.723480 170.664032,307.764313 
	C174.856979,305.740234 180.213318,306.909271 183.406265,310.545380 
	C187.244263,314.916046 187.151123,319.526978 182.826279,325.817261 
z"/>
<path fill="#000000" opacity="1.000000" stroke="none" 
	d="
M293.393555,213.072021 
	C287.422760,213.976471 283.087646,212.045547 280.643250,206.948898 
	C278.700867,202.898926 279.200195,198.821686 282.151672,195.306351 
	C285.239044,191.629196 289.273438,190.548523 293.828857,191.779053 
	C298.046875,192.918427 300.601929,195.736694 301.380219,200.100708 
	C302.218445,204.800537 300.855499,208.616318 296.858551,211.342163 
	C295.907776,211.990570 294.820068,212.438171 293.393555,213.072021 
z"/>
<path fill="#000000" opacity="1.000000" stroke="none" 
	d="
M295.400757,356.292175 
	C300.850464,359.944366 302.709534,363.964539 301.312714,369.105774 
	C300.062744,373.706635 296.962311,376.548279 292.238068,377.234192 
	C287.277039,377.954437 283.343842,375.986694 280.948120,371.617279 
	C278.779694,367.662415 278.951447,363.556305 281.714966,359.880676 
	C285.156891,355.302734 289.767853,354.377930 295.400757,356.292175 
z"/>
<path fill="#000000" opacity="1.000000" stroke="none" 
	d="
M268.212219,195.809723 
	C267.098572,201.685471 263.892975,205.320312 258.365997,206.081207 
	C253.719025,206.720947 249.923737,204.613144 247.500229,200.521988 
	C244.140457,194.850342 246.434265,187.930908 252.521683,185.038071 
	C258.072235,182.400360 265.087250,185.219269 267.290710,191.066299 
	C267.807190,192.436737 267.934967,193.953644 268.212219,195.809723 
z"/>
<path fill="#000000" opacity="1.000000" stroke="none" 
	d="
M318.379120,336.710724 
	C328.842041,335.115692 333.739899,346.062195 330.234070,352.385712 
	C327.634460,357.074677 322.874420,359.370636 317.654602,358.260895 
	C313.152008,357.303589 309.590515,353.177582 309.107086,348.358398 
	C308.587036,343.174225 311.703369,339.083130 318.379120,336.710724 
z"/>
<path fill="#000000" opacity="1.000000" stroke="none" 
	d="
M230.915009,358.062439 
	C234.826309,362.333679 235.591263,366.863159 233.058594,371.608551 
	C230.830048,375.784088 227.124466,377.725189 222.312927,377.290436 
	C215.912933,376.712189 211.904709,371.428650 212.690826,364.614624 
	C213.383026,358.614777 219.151291,354.444214 225.200912,355.473785 
	C227.226288,355.818451 228.996780,356.606293 230.915009,358.062439 
z"/>
<path fill="#000000" opacity="1.000000" stroke="none" 
	d="
M217.917999,192.749664 
	C223.838104,190.532272 228.823608,191.387344 231.842773,195.062469 
	C234.860001,198.735214 235.377243,202.943344 233.290909,207.132202 
	C231.109955,211.511032 227.379776,213.798065 222.346313,213.252518 
	C217.839569,212.764053 214.415054,210.376892 213.131927,206.040421 
	C211.592972,200.839401 212.838593,196.200714 217.917999,192.749664 
z"/>
<path fill="#000000" opacity="1.000000" stroke="none" 
	d="
M188.410965,357.055237 
	C183.014603,352.767456 181.570511,348.392365 183.627426,343.475281 
	C185.684464,338.557922 189.648788,336.205200 195.091965,336.671387 
	C200.125916,337.102509 203.817093,340.533936 204.828629,345.790009 
	C205.634399,349.976898 203.918823,353.294891 200.876297,355.915558 
	C197.215332,359.068970 193.059357,359.100281 188.410965,357.055237 
z"/>
</svg>