<svg version="1.1" id="Layer_1" xmlns="http://www.w3.org/2000/svg" xmlns:xlink="http://www.w3.org/1999/xlink" x="0px" y="0px"
	 width="100%" viewBox="0 0 512 512" enable-background="new 0 0 512 512" xml:space="preserve">
<path fill="#000000" opacity="1.000000" stroke="none" 
	d="
M269.962463,65.000000 
	C269.965790,91.631485 269.978638,117.762978 269.967377,143.894455 
	C269.964172,151.344543 269.931519,151.408218 262.544983,151.348816 
	C251.105881,151.256821 252.127853,152.877686 252.110565,140.981934 
	C252.059799,106.028954 252.037796,71.075905 252.024231,36.122879 
	C252.021255,28.459261 252.105911,28.403900 259.793488,28.118008 
	C261.123260,28.068554 262.465363,28.200607 263.785858,28.077732 
	C268.604797,27.629316 270.164948,29.862394 270.046295,34.542274 
	C269.793243,44.522472 269.965118,54.513443 269.962463,65.000000 
z"/>
<path fill="#000000" opacity="1.000000" stroke="none" 
	d="
M350.220886,318.744568 
	C349.117859,324.370697 346.093384,327.858215 340.821747,328.866302 
	C336.570404,329.679260 332.977051,328.008484 330.323029,324.649353 
	C327.173279,320.662811 327.007446,315.742615 329.911926,311.733734 
	C332.777191,307.779022 336.625397,305.891571 341.578796,307.092896 
	C346.853851,308.372192 349.601990,311.988312 350.220886,318.744568 
z"/>
<path fill="#000000" opacity="1.000000" stroke="none" 
	d="
M256.284302,384.418030 
	C249.298721,383.184662 245.189041,378.306976 245.857574,372.473145 
	C246.543625,366.486298 251.757690,362.298981 258.075714,362.661041 
	C263.792450,362.988586 268.252808,367.718658 268.259430,373.460602 
	C268.266632,379.690887 263.727661,383.988770 256.284302,384.418030 
z"/>
<path fill="#000000" opacity="1.000000" stroke="none" 
	d="
M337.166687,290.621613 
	C333.725861,283.055634 335.678619,276.717834 341.956879,274.050018 
	C347.503357,271.693207 354.055725,274.355743 356.466095,279.945892 
	C358.564514,284.812531 356.877319,290.449097 352.408447,293.501526 
	C347.534271,296.830811 342.252686,295.931122 337.166687,290.621613 
z"/>
<path fill="#000000" opacity="1.000000" stroke="none" 
	d="
M157.545410,280.039978 
	C161.935410,270.852814 173.584167,271.988464 177.288635,278.302979 
	C179.821701,282.620789 179.661911,287.281464 176.417191,291.217041 
	C173.246048,295.063354 169.134567,296.271362 164.396362,294.794617 
	C159.795410,293.360626 156.751205,289.110840 156.752884,284.289276 
	C156.753342,282.996307 157.168442,281.703430 157.545410,280.039978 
z"/>
<path fill="#000000" opacity="1.000000" stroke="none" 
	d="
M309.871765,217.220276 
	C313.520111,211.311615 317.352753,209.187698 322.067474,210.169174 
	C327.110962,211.219101 330.605011,214.687134 331.244293,219.352783 
	C331.928741,224.347641 329.846130,228.078827 325.706451,230.666550 
	C321.573303,233.250183 317.286163,232.760818 313.604706,229.981934 
	C309.549255,226.920792 308.248779,222.584122 309.871765,217.220276 
z"/>
<path fill="#000000" opacity="1.000000" stroke="none" 
	d="
M170.519958,260.834839 
	C164.666306,256.964081 162.818298,252.774246 164.449402,247.702728 
	C166.119293,242.510605 170.512222,239.396408 175.740814,239.698105 
	C180.790970,239.989502 184.749939,243.402878 186.004669,248.432236 
	C187.875702,255.932022 179.469421,264.747345 170.519958,260.834839 
z"/>
<path fill="#000000" opacity="1.000000" stroke="none" 
	d="
M340.582458,261.682831 
	C330.849731,262.634155 325.170074,252.795700 329.293274,245.566299 
	C331.797241,241.175980 336.663147,238.821518 341.531860,239.885696 
	C346.304291,240.928848 350.018860,245.328140 350.249695,250.210449 
	C350.493988,255.377640 346.976959,259.689850 340.582458,261.682831 
z"/>
<path fill="#000000" opacity="1.000000" stroke="none" 
	d="
M183.540375,217.032043 
	C185.951614,212.325317 189.479019,209.680374 194.405899,210.047699 
	C198.718445,210.369186 202.274689,212.401245 204.059860,216.757477 
	C205.984665,221.454422 205.045059,225.673401 201.524902,229.028397 
	C198.200241,232.197067 194.096741,233.318604 189.613617,231.330963 
	C185.058868,229.311600 182.804672,225.718216 182.757248,220.784134 
	C182.746445,219.659363 183.167191,218.530457 183.540375,217.032043 
z"/>
<path fill="#000000" opacity="1.000000" stroke="none" 
	d="
M175.011688,306.733582 
	C185.462082,308.867218 189.454391,317.978821 183.466858,325.087524 
	C179.447723,329.859222 171.976654,330.271118 167.437012,325.971283 
	C162.682281,321.467712 162.842667,313.888031 167.844376,309.626862 
	C169.773453,307.983398 171.961273,306.797150 175.011688,306.733582 
z"/>
<path fill="#000000" opacity="1.000000" stroke="none" 
	d="
M252.399017,205.044861 
	C246.586685,201.176529 244.710480,196.795151 246.472931,191.881897 
	C248.146408,187.216721 252.595627,183.819519 256.901947,183.918777 
	C262.307556,184.043411 266.825989,187.747696 268.008087,193.023849 
	C269.882507,201.389816 261.672424,207.952316 252.399017,205.044861 
z"/>
<path fill="#000000" opacity="1.000000" stroke="none" 
	d="
M294.181549,212.847534 
	C283.819702,213.987793 276.999939,206.806717 280.229706,198.556259 
	C282.023468,193.974197 285.557251,191.309845 290.576416,191.327072 
	C295.492218,191.343948 299.249786,193.555054 301.018921,198.334000 
	C302.803101,203.153732 301.227448,208.170364 297.144989,211.191299 
	C296.349854,211.779694 295.429901,212.199387 294.181549,212.847534 
z"/>
<path fill="#000000" opacity="1.000000" stroke="none" 
	d="
M284.414307,357.243896 
	C290.173035,354.494965 295.140228,354.993500 298.535614,358.410004 
	C301.790955,361.685608 302.634308,367.283875 300.486206,371.358154 
	C298.203217,375.688293 293.752411,377.997925 288.827423,377.238342 
	C284.477631,376.567535 281.423035,373.940491 280.161194,369.879059 
	C278.656586,365.036194 279.821899,360.660828 284.414307,357.243896 
z"/>
<path fill="#000000" opacity="1.000000" stroke="none" 
	d="
M317.845276,358.287720 
	C310.796936,355.287750 308.095062,350.916870 309.403503,345.193268 
	C310.609589,339.917419 314.707062,336.660828 320.162048,336.642609 
	C326.688995,336.620789 331.237549,341.040039 331.324707,347.487885 
	C331.404907,353.420044 326.861481,358.122437 320.714630,358.435242 
	C319.887665,358.477325 319.053284,358.372528 317.845276,358.287720 
z"/>
<path fill="#000000" opacity="1.000000" stroke="none" 
	d="
M212.657684,201.229828 
	C214.114792,194.941223 217.629517,191.524261 222.519806,191.233994 
	C227.482819,190.939407 232.303101,194.011475 233.877197,198.472305 
	C235.535370,203.171432 233.900208,208.340485 229.827103,211.275711 
	C225.768860,214.200241 220.506470,214.058899 216.458237,210.873276 
	C213.473160,208.524261 212.350266,205.374908 212.657684,201.229828 
z"/>
<path fill="#000000" opacity="1.000000" stroke="none" 
	d="
M215.149017,373.721863 
	C211.712128,368.812103 211.549225,364.074677 214.829269,359.552673 
	C217.639313,355.678680 221.610077,354.439362 226.289963,355.680542 
	C230.532349,356.805695 233.308502,359.510345 234.177261,363.762329 
	C235.065033,368.107300 234.003326,372.042999 230.365112,374.915131 
	C226.780411,377.744934 222.829361,378.189667 218.704193,376.225708 
	C217.524307,375.663940 216.505142,374.764618 215.149017,373.721863 
z"/>
<path fill="#000000" opacity="1.000000" stroke="none" 
	d="
M185.347275,340.449890 
	C189.531372,335.265259 197.365616,335.799042 201.325943,339.275604 
	C204.946854,342.454163 206.031967,348.074036 203.745544,352.416168 
	C200.755524,358.094452 194.028595,360.124268 188.395355,357.048004 
	C182.640671,353.905457 181.363464,347.586792 185.347275,340.449890 
z"/>
</svg>