<svg version="1.1" id="Layer_1" xmlns="http://www.w3.org/2000/svg" xmlns:xlink="http://www.w3.org/1999/xlink" x="0px" y="0px"
	 width="100%" viewBox="0 0 512 512" enable-background="new 0 0 512 512" xml:space="preserve">
<path fill="#000000" opacity="1.000000" stroke="none" 
	d="
M236.062073,113.000000 
	C236.059128,98.522171 236.155045,84.543198 235.994781,70.567177 
	C235.944656,66.195862 237.303604,64.657860 241.968079,64.390450 
	C256.578888,63.552830 253.842224,64.754128 253.915863,75.704193 
	C254.043442,94.673149 254.092072,113.645996 253.814423,132.611954 
	C253.744812,137.368118 255.552811,138.682190 259.835358,138.577377 
	C270.310791,138.320999 280.790497,138.194626 291.269073,138.151428 
	C293.469238,138.142349 296.454926,137.387100 297.426422,140.128372 
	C298.536652,143.261185 298.401733,146.709259 297.358032,149.941452 
	C296.852051,151.508453 295.239044,151.331253 293.931702,151.332184 
	C275.960327,151.344910 257.988831,151.295929 240.017761,151.366119 
	C236.376083,151.380341 236.082199,149.169907 236.084244,146.447739 
	C236.092484,135.465179 236.071945,124.482582 236.062073,113.000000 
z"/>
<path fill="#000000" opacity="1.000000" stroke="none" 
	d="
M343.729797,307.829041 
	C349.425842,311.662964 351.335236,316.057800 349.729950,320.946716 
	C348.173645,325.686462 343.570496,329.189240 338.992493,329.117371 
	C334.009949,329.039215 329.542419,325.410645 328.211823,320.336639 
	C327.128510,316.205597 328.635193,312.755249 331.457123,309.948944 
	C334.819855,306.604767 338.896301,305.830505 343.729797,307.829041 
z"/>
<path fill="#000000" opacity="1.000000" stroke="none" 
	d="
M249.559525,365.434265 
	C256.193085,360.945129 263.283752,362.073730 266.644287,367.839355 
	C269.963379,373.533905 267.852905,380.506073 261.916992,383.456482 
	C257.391052,385.706055 251.589600,384.459015 248.398331,380.550568 
	C244.705978,376.028442 244.980606,371.349426 249.559525,365.434265 
z"/>
<path fill="#000000" opacity="1.000000" stroke="none" 
	d="
M357.226715,282.363953 
	C357.216705,289.118134 354.577454,293.358856 349.713257,294.936890 
	C345.189941,296.404266 340.003113,294.676331 337.289185,290.797943 
	C334.327454,286.565521 334.424133,281.366638 337.681458,277.366455 
	C340.151978,274.332520 343.364807,272.844452 347.343567,273.343536 
	C352.550842,273.996704 355.782715,276.926025 357.226715,282.363953 
z"/>
<path fill="#000000" opacity="1.000000" stroke="none" 
	d="
M202.284302,213.815262 
	C205.571625,218.691452 206.168198,223.346771 202.538040,227.854568 
	C199.605591,231.495956 195.732773,233.104797 191.087921,231.835876 
	C186.297928,230.527313 183.452881,227.215057 182.825058,222.334869 
	C182.213745,217.582916 184.356781,213.938065 188.413498,211.561737 
	C193.398743,208.641510 197.916458,209.900085 202.284302,213.815262 
z"/>
<path fill="#000000" opacity="1.000000" stroke="none" 
	d="
M310.451904,226.248474 
	C305.829926,217.141571 314.816833,208.904495 321.367859,209.990112 
	C326.801544,210.890579 330.728882,214.641388 331.286743,219.725479 
	C331.851105,224.868744 328.907806,229.594193 323.941223,231.518753 
	C319.105103,233.392746 314.412292,231.653168 310.451904,226.248474 
z"/>
<path fill="#000000" opacity="1.000000" stroke="none" 
	d="
M171.996704,261.283142 
	C165.662628,258.376709 162.947784,253.833710 164.128387,248.698242 
	C165.324005,243.497467 169.672180,239.786240 174.692047,239.681961 
	C180.082886,239.570007 184.161911,242.734421 185.865585,247.897598 
	C188.071411,254.582474 180.940384,263.953064 171.996704,261.283142 
z"/>
<path fill="#000000" opacity="1.000000" stroke="none" 
	d="
M333.578186,241.167175 
	C340.522034,238.346283 346.450500,240.314285 349.130585,246.002914 
	C351.581757,251.205673 349.668030,257.181671 344.567017,260.253479 
	C339.705322,263.181152 333.206421,261.762604 329.949463,257.062805 
	C326.295258,251.789825 327.466370,246.213470 333.578186,241.167175 
z"/>
<path fill="#000000" opacity="1.000000" stroke="none" 
	d="
M158.933578,290.850250 
	C155.969482,286.097961 155.853165,281.753265 159.163086,277.543427 
	C162.322388,273.525085 166.500168,272.526611 171.238861,273.802734 
	C175.751282,275.017883 178.175552,278.320892 178.878021,282.762817 
	C179.675247,287.803986 177.265533,291.469574 173.096130,293.982513 
	C168.535736,296.731049 164.040970,295.738647 158.933578,290.850250 
z"/>
<path fill="#000000" opacity="1.000000" stroke="none" 
	d="
M168.403595,326.765747 
	C163.471329,321.378387 162.709900,317.399963 165.421082,312.586975 
	C167.831299,308.308258 172.739502,305.962250 177.227203,307.008423 
	C181.886627,308.094727 184.860016,311.008148 185.956039,315.640381 
	C186.979340,319.965240 185.375732,323.594391 182.119080,326.331757 
	C177.919388,329.861816 173.338058,329.902985 168.403595,326.765747 
z"/>
<path fill="#000000" opacity="1.000000" stroke="none" 
	d="
M290.927185,213.309341 
	C284.172638,212.549301 280.189636,208.981522 279.702209,203.637314 
	C279.216522,198.312195 282.146637,193.565872 286.962677,191.876587 
	C291.805420,190.177917 297.492950,192.084167 300.044281,196.392853 
	C304.312866,203.601624 299.864380,212.823288 290.927185,213.309341 
z"/>
<path fill="#000000" opacity="1.000000" stroke="none" 
	d="
M282.103271,359.296112 
	C286.165131,355.109894 290.632904,354.243988 295.569366,356.414337 
	C299.650604,358.208679 301.477692,361.673737 301.645630,365.970734 
	C301.824799,370.552521 299.706238,373.941925 295.697662,376.127625 
	C291.481567,378.426392 286.304718,377.615631 282.830261,374.157928 
	C278.924744,370.271210 278.589996,365.252930 282.103271,359.296112 
z"/>
<path fill="#000000" opacity="1.000000" stroke="none" 
	d="
M268.244324,194.997498 
	C266.811584,201.928360 263.318420,205.874939 258.209290,206.170975 
	C253.320023,206.454269 249.454666,204.363113 247.149216,199.952087 
	C244.232346,194.371216 246.764648,187.662674 252.669312,184.951981 
	C258.029388,182.491287 264.935669,185.213028 267.213043,190.755051 
	C267.711548,191.968140 267.906708,193.305862 268.244324,194.997498 
z"/>
<path fill="#000000" opacity="1.000000" stroke="none" 
	d="
M309.165894,348.665131 
	C309.746735,341.640045 312.509003,337.892456 317.541229,336.811798 
	C322.752625,335.692688 327.614655,337.725189 329.900024,342.118011 
	C331.980011,346.115997 332.019287,350.045746 329.273773,353.853851 
	C326.411804,357.823486 322.480438,359.180817 317.888885,358.236938 
	C312.999969,357.231903 310.155853,353.969879 309.165894,348.665131 
z"/>
<path fill="#000000" opacity="1.000000" stroke="none" 
	d="
M221.501587,355.378906 
	C227.386475,355.056702 231.798706,356.974457 233.753662,362.368195 
	C235.327515,366.710449 234.612320,370.954651 231.086563,374.270660 
	C227.617203,377.533630 223.533203,378.319641 219.124756,376.428955 
	C214.480988,374.437347 212.315720,370.825806 212.632721,365.755981 
	C212.975739,360.270050 215.883240,356.906677 221.501587,355.378906 
z"/>
<path fill="#000000" opacity="1.000000" stroke="none" 
	d="
M227.895370,212.426544 
	C222.394653,214.346863 217.944550,213.174820 214.665466,208.935379 
	C211.765030,205.185455 211.769455,200.878784 214.005402,196.786240 
	C217.137894,191.052719 224.350418,189.567307 229.924774,193.310562 
	C234.764801,196.560730 235.889343,203.821396 232.370743,208.735947 
	C231.275604,210.265549 229.851181,211.339676 227.895370,212.426544 
z"/>
<path fill="#000000" opacity="1.000000" stroke="none" 
	d="
M195.630066,336.708984 
	C203.658920,339.440613 206.843109,345.253784 204.164017,351.557434 
	C201.592697,357.607513 194.704529,360.166412 188.821548,357.257019 
	C184.397446,355.069122 181.860992,349.847870 182.972519,345.216949 
	C184.329224,339.564545 188.390137,336.729919 195.630066,336.708984 
z"/>
</svg>