<svg version="1.1" id="Layer_1" xmlns="http://www.w3.org/2000/svg" xmlns:xlink="http://www.w3.org/1999/xlink" x="0px" y="0px"
	 width="100%" viewBox="0 0 512 512" enable-background="new 0 0 512 512" xml:space="preserve">
<path fill="#000000" opacity="1.000000" stroke="none" 
	d="
M276.264343,63.437283 
	C293.956696,65.418739 302.239044,74.551643 303.004181,94.447945 
	C303.675659,111.909065 303.141663,129.415573 303.210693,146.901749 
	C303.222961,150.011261 302.083893,151.444489 298.812927,151.393753 
	C283.178558,151.151215 285.906799,153.209412 285.753632,139.123322 
	C285.596100,124.635948 285.783112,110.144997 285.656860,95.657036 
	C285.545441,82.869263 278.972870,76.428108 266.134125,76.214577 
	C261.462036,76.136871 256.837341,76.297379 252.368301,77.977585 
	C240.046036,82.610321 237.806473,93.157219 237.456146,104.316345 
	C237.022644,118.125809 237.183121,131.961578 237.423904,145.780121 
	C237.501038,150.205948 236.064880,151.568039 231.702682,151.440079 
	C217.720795,151.029938 219.816528,153.147278 219.743881,139.544373 
	C219.622925,116.895470 219.680222,94.245491 219.712723,71.596039 
	C219.717468,68.287537 218.594315,64.483307 224.253403,64.119942 
	C232.944931,63.561863 234.101715,63.902321 235.291794,70.074310 
	C235.547775,71.401985 235.812393,72.642227 236.949799,74.000214 
	C248.047562,63.571987 261.362518,61.273666 276.264343,63.437283 
z"/>
<path fill="#000000" opacity="1.000000" stroke="none" 
	d="
M329.346436,312.691193 
	C333.641663,307.095581 337.649139,305.618073 342.795288,307.478546 
	C347.386017,309.138153 350.426880,313.479065 350.255646,318.128387 
	C350.077240,322.972626 346.683319,327.212006 341.812805,328.634216 
	C337.521912,329.887268 333.840210,328.477570 330.992584,325.412506 
	C327.674896,321.841431 326.826935,317.589600 329.346436,312.691193 
z"/>
<path fill="#000000" opacity="1.000000" stroke="none" 
	d="
M246.771576,377.812012 
	C244.971405,371.008484 247.567398,365.218597 253.045746,363.138611 
	C258.620392,361.022095 264.820129,363.594696 267.215698,369.018494 
	C269.634674,374.495300 267.449219,380.600372 262.075531,383.377441 
	C256.546417,386.234894 250.911606,384.304535 246.771576,377.812012 
z"/>
<path fill="#000000" opacity="1.000000" stroke="none" 
	d="
M164.012177,316.417297 
	C167.443314,306.806183 175.824524,303.763336 182.340668,309.543457 
	C185.684341,312.509399 187.134064,316.348511 185.755768,320.816437 
	C184.283829,325.587982 180.875656,328.491455 176.012497,328.965179 
	C171.581909,329.396820 167.897644,327.471283 165.564972,323.478088 
	C164.367722,321.428558 163.617905,319.242737 164.012177,316.417297 
z"/>
<path fill="#000000" opacity="1.000000" stroke="none" 
	d="
M160.841583,275.750732 
	C167.086349,272.121399 173.218918,272.890900 176.725784,277.482422 
	C180.061539,281.849884 179.671585,287.967743 175.800400,292.000916 
	C172.002899,295.957336 165.834061,296.475189 161.299713,293.218201 
	C155.557419,289.093536 155.247696,282.156128 160.841583,275.750732 
z"/>
<path fill="#000000" opacity="1.000000" stroke="none" 
	d="
M315.495667,211.140717 
	C322.908447,208.723923 329.188690,211.667053 330.996033,218.050568 
	C332.707611,224.095810 328.522858,230.809143 322.248718,232.083405 
	C316.166779,233.318619 310.226105,229.002884 309.321838,222.547653 
	C308.613586,217.491547 310.987549,213.917633 315.495667,211.140717 
z"/>
<path fill="#000000" opacity="1.000000" stroke="none" 
	d="
M169.577545,241.169327 
	C174.968521,237.806473 182.623917,240.369675 185.149338,246.001953 
	C187.511856,251.270981 185.679230,257.178345 180.551788,260.241119 
	C175.645203,263.171967 169.175797,261.761963 165.937195,257.055847 
	C162.283569,251.746582 163.454498,246.192322 169.577545,241.169327 
z"/>
<path fill="#000000" opacity="1.000000" stroke="none" 
	d="
M328.274963,253.319489 
	C327.654144,245.921204 331.429840,240.526779 337.396484,239.730072 
	C343.548187,238.908661 349.105560,242.979309 350.136505,249.061844 
	C351.072784,254.586014 346.846313,260.444641 341.120728,261.559235 
	C335.454926,262.662170 331.094666,259.968079 328.274963,253.319489 
z"/>
<path fill="#000000" opacity="1.000000" stroke="none" 
	d="
M185.165024,214.329742 
	C189.259247,209.824265 193.797073,208.884567 198.955414,211.302658 
	C203.238068,213.310257 205.074371,217.151611 204.970383,221.473541 
	C204.853256,226.341385 202.064804,229.864410 197.326675,231.564728 
	C192.685028,233.230438 188.763535,231.855728 185.560364,228.414825 
	C181.977463,224.566040 181.870941,220.118958 185.165024,214.329742 
z"/>
<path fill="#000000" opacity="1.000000" stroke="none" 
	d="
M348.261292,273.584259 
	C354.952972,275.707336 358.003235,279.998749 357.277191,285.785461 
	C356.669250,290.630890 352.489380,294.792328 347.735626,295.284851 
	C341.865082,295.893158 337.174316,292.748840 335.628326,287.169098 
	C334.236572,282.145996 336.480469,276.949097 341.128845,274.500641 
	C343.253876,273.381317 345.491272,272.903351 348.261292,273.584259 
z"/>
<path fill="#000000" opacity="1.000000" stroke="none" 
	d="
M281.325562,372.316559 
	C278.630646,367.177246 278.972290,362.615326 282.728363,358.655579 
	C286.034241,355.170441 290.246826,354.434052 294.672943,356.009674 
	C299.241150,357.635895 301.487518,361.230255 301.641968,365.979523 
	C301.805023,370.994049 299.365509,374.579773 294.826355,376.598328 
	C290.249512,378.633667 285.878143,377.250183 281.325562,372.316559 
z"/>
<path fill="#000000" opacity="1.000000" stroke="none" 
	d="
M282.300873,209.568115 
	C278.842804,204.056702 278.824341,199.419678 281.983826,195.457687 
	C284.945251,191.744003 289.944672,190.273056 294.583649,191.956985 
	C299.380920,193.698410 301.584198,197.448807 301.656860,202.357422 
	C301.724518,206.928696 299.459503,210.351410 295.334351,212.258713 
	C290.602783,214.446396 286.280334,213.539276 282.300873,209.568115 
z"/>
<path fill="#000000" opacity="1.000000" stroke="none" 
	d="
M267.105530,199.665009 
	C264.198700,204.587097 260.364136,207.124985 254.899200,205.925919 
	C248.781036,204.583511 244.696793,198.331604 246.114151,192.853073 
	C247.766541,186.465973 253.764801,182.816193 259.784393,184.535095 
	C266.678741,186.503769 269.452820,191.980637 267.105530,199.665009 
z"/>
<path fill="#000000" opacity="1.000000" stroke="none" 
	d="
M316.394836,357.890411 
	C310.156036,354.311462 308.057068,350.112762 309.528076,344.696869 
	C310.886871,339.693939 314.902100,336.656219 320.174255,336.642456 
	C326.699188,336.625427 331.244354,341.051544 331.325012,347.501160 
	C331.401520,353.618317 326.519562,358.444183 320.202484,358.429901 
	C319.048920,358.427307 317.895874,358.178619 316.394836,357.890411 
z"/>
<path fill="#000000" opacity="1.000000" stroke="none" 
	d="
M231.174591,210.170013 
	C224.453918,214.814880 218.096237,214.096283 214.345062,208.577347 
	C210.943115,203.572205 212.259842,196.704346 217.302979,193.149368 
	C221.444077,190.230225 227.817062,190.866425 231.434280,194.560074 
	C235.365219,198.574066 235.372803,204.289383 231.174591,210.170013 
z"/>
<path fill="#000000" opacity="1.000000" stroke="none" 
	d="
M212.654358,365.231689 
	C214.462662,357.632446 219.111298,354.269379 225.478989,355.543243 
	C231.920853,356.831970 235.526764,362.322357 234.238708,368.880920 
	C233.199783,374.170929 227.512405,378.019745 221.846252,377.267273 
	C216.128067,376.507904 212.915421,372.458588 212.654358,365.231689 
z"/>
<path fill="#000000" opacity="1.000000" stroke="none" 
	d="
M184.466232,341.754639 
	C187.660553,336.974365 191.996338,335.766052 196.878769,336.960754 
	C201.489502,338.089020 204.193344,341.392792 204.892227,346.112244 
	C205.541092,350.493927 203.602173,353.868652 200.229645,356.433350 
	C196.447311,359.309692 190.606720,359.050110 186.800232,356.009979 
	C182.768936,352.790283 181.878708,347.915680 184.466232,341.754639 
z"/>
</svg>