<svg version="1.1" id="Layer_1" xmlns="http://www.w3.org/2000/svg" xmlns:xlink="http://www.w3.org/1999/xlink" x="0px" y="0px"
	 width="100%" viewBox="0 0 512 512" enable-background="new 0 0 512 512" xml:space="preserve">
<path fill="#000000" opacity="1.000000" stroke="none" 
	d="
M253.143829,82.882957 
	C264.394104,98.371826 275.443970,113.565674 286.864105,129.268600 
	C288.026825,126.950157 287.718414,125.126869 287.569946,123.446785 
	C285.997986,105.659393 287.286438,87.835373 286.768250,70.039711 
	C286.638000,65.566055 288.592834,64.323380 292.626770,64.111336 
	C303.171967,63.557026 303.348206,63.608639 303.348328,73.851997 
	C303.348541,97.665260 303.224701,121.479675 303.449249,145.290817 
	C303.494812,150.122742 301.902100,151.020935 297.270569,151.583542 
	C286.439209,152.899261 279.710022,149.117157 273.725525,139.765915 
	C262.612061,122.400253 249.969193,106.012894 237.937225,89.236771 
	C237.301010,88.349709 236.978928,87.097115 235.335190,86.748085 
	C235.335190,91.266891 235.335175,95.694389 235.335205,100.121887 
	C235.335312,115.442299 235.261765,130.763321 235.389465,146.082672 
	C235.419861,149.729370 234.620102,151.555283 230.429947,151.438461 
	C216.407043,151.047592 218.793121,152.966553 218.708923,139.875732 
	C218.560059,116.729515 218.807434,93.580048 218.546921,70.435799 
	C218.490555,65.428345 220.385956,64.254211 224.887299,64.212006 
	C239.410782,64.075867 239.408691,63.958603 247.941956,75.726120 
	C249.603531,78.017448 251.276016,80.300865 253.143829,82.882957 
z"/>
<path fill="#000000" opacity="1.000000" stroke="none" 
	d="
M341.358643,328.773346 
	C333.646790,329.156097 328.610931,325.308319 327.904755,318.900177 
	C327.330475,313.688416 331.688934,307.950775 337.024750,306.894287 
	C342.434082,305.823212 348.062286,309.306610 349.783813,314.791046 
	C351.563721,320.461426 348.467255,325.799713 341.358643,328.773346 
z"/>
<path fill="#000000" opacity="1.000000" stroke="none" 
	d="
M250.165314,364.925476 
	C256.524139,361.174408 262.873108,362.206299 266.266296,367.252136 
	C269.483368,372.036102 268.581482,378.431030 264.183228,382.022522 
	C259.639526,385.732666 252.802368,385.308716 248.861404,381.072418 
	C244.482559,376.365448 244.822510,370.908051 250.165314,364.925476 
z"/>
<path fill="#000000" opacity="1.000000" stroke="none" 
	d="
M193.127441,232.226791 
	C183.075531,229.503021 179.542511,220.339478 185.697327,213.725449 
	C188.903107,210.280487 192.829422,209.119659 197.489532,210.697998 
	C202.202927,212.294373 204.468658,215.818558 204.916885,220.393860 
	C205.359573,224.912537 203.168015,228.397293 199.225845,230.683655 
	C197.478180,231.697250 195.610901,232.381485 193.127441,232.226791 
z"/>
<path fill="#000000" opacity="1.000000" stroke="none" 
	d="
M311.423553,214.573273 
	C317.504700,208.936417 323.245789,208.520493 327.970825,213.083206 
	C332.156342,217.124939 332.514709,223.491867 328.810211,227.996918 
	C325.026306,232.598526 318.950714,233.552155 314.013092,230.319473 
	C309.122131,227.117371 308.008667,221.009384 311.423553,214.573273 
z"/>
<path fill="#000000" opacity="1.000000" stroke="none" 
	d="
M166.099670,244.294281 
	C169.870575,239.890472 174.175339,238.514404 179.306793,240.522385 
	C183.631790,242.214844 185.889252,245.668732 186.181915,250.115128 
	C186.480453,254.650909 184.203125,258.097534 180.304749,260.376556 
	C176.233932,262.756409 170.775864,262.016449 167.372833,258.730927 
	C163.536926,255.027481 163.054474,250.481552 166.099670,244.294281 
z"/>
<path fill="#000000" opacity="1.000000" stroke="none" 
	d="
M350.243896,250.104370 
	C349.235016,257.021820 346.371490,260.643250 341.159943,261.509369 
	C336.316406,262.314423 332.274384,260.784729 329.607025,256.479645 
	C326.261719,251.080276 328.146576,244.285645 333.811096,241.020081 
	C339.032776,238.009827 345.984528,240.017639 348.816071,245.459045 
	C349.494141,246.762085 349.765961,248.276505 350.243896,250.104370 
z"/>
<path fill="#000000" opacity="1.000000" stroke="none" 
	d="
M178.409805,280.960815 
	C179.781067,287.630402 176.501450,293.487335 170.821167,295.064026 
	C165.231079,296.615692 159.212036,293.308929 157.291351,287.630951 
	C155.480270,282.277039 158.296265,276.234222 163.623703,274.042480 
	C169.378067,271.675110 175.107086,274.220673 178.409805,280.960815 
z"/>
<path fill="#000000" opacity="1.000000" stroke="none" 
	d="
M352.270996,293.590332 
	C346.133698,296.389496 341.291687,295.623810 337.890747,291.597748 
	C334.599884,287.701996 334.293762,282.426270 337.112183,278.179657 
	C339.926514,273.939087 344.728149,272.264191 349.811066,273.869232 
	C353.807587,275.131256 356.318970,277.971222 357.122955,281.995850 
	C358.050476,286.639191 356.451782,290.506500 352.270996,293.590332 
z"/>
<path fill="#000000" opacity="1.000000" stroke="none" 
	d="
M176.636841,306.879211 
	C182.122040,308.135254 185.253143,311.325836 186.101868,316.417267 
	C186.786057,320.521759 185.087921,323.948212 181.903519,326.515320 
	C177.815598,329.810791 172.633652,329.994781 168.527481,326.788177 
	C164.870224,323.932281 163.024872,320.139832 164.324219,315.368744 
	C165.815872,309.891571 169.866394,307.017822 176.636841,306.879211 
z"/>
<path fill="#000000" opacity="1.000000" stroke="none" 
	d="
M297.401123,357.444824 
	C303.085022,363.710541 302.956940,370.882080 297.398773,375.081299 
	C292.101013,379.083862 284.886169,377.805969 281.261444,372.223114 
	C278.705261,368.286041 279.087219,362.851440 282.176178,359.208252 
	C285.804871,354.928497 290.892639,354.249329 297.401123,357.444824 
z"/>
<path fill="#000000" opacity="1.000000" stroke="none" 
	d="
M263.069397,204.323334 
	C255.878784,207.684036 249.245697,205.364685 246.710754,198.930481 
	C244.412582,193.097260 247.508896,186.759903 253.728745,184.566467 
	C258.068695,183.035995 263.890564,185.114395 266.403748,189.091431 
	C269.642151,194.216110 268.655762,199.146255 263.069397,204.323334 
z"/>
<path fill="#000000" opacity="1.000000" stroke="none" 
	d="
M279.686798,201.224762 
	C281.436493,194.594467 285.397186,191.181396 290.722961,191.305222 
	C296.061432,191.429352 300.243744,194.654861 301.278473,199.445877 
	C302.499176,205.097900 300.285217,209.860855 295.300110,212.307404 
	C287.848816,215.964279 280.154175,210.714249 279.686798,201.224762 
z"/>
<path fill="#000000" opacity="1.000000" stroke="none" 
	d="
M331.066284,350.408447 
	C328.897034,355.382202 325.782776,358.457214 320.372375,358.466797 
	C315.967316,358.474579 312.613983,356.608368 310.534698,352.812256 
	C308.247650,348.636749 308.584930,344.476410 311.531586,340.675781 
	C314.536011,336.800598 318.698517,335.961121 323.184784,336.913849 
	C327.732574,337.879639 330.200836,341.164551 331.145538,345.548126 
	C331.452423,346.972260 331.179535,348.521362 331.066284,350.408447 
z"/>
<path fill="#000000" opacity="1.000000" stroke="none" 
	d="
M231.740051,373.614014 
	C225.934982,378.199951 220.713654,378.462860 216.161758,374.688049 
	C212.561218,371.702179 211.442291,365.924988 213.604599,361.485413 
	C216.453613,355.635895 222.916412,353.576263 228.774994,356.650696 
	C234.785568,359.804962 236.112778,366.672668 231.740051,373.614014 
z"/>
<path fill="#000000" opacity="1.000000" stroke="none" 
	d="
M227.889740,212.415558 
	C222.600906,214.332687 218.324295,213.174286 214.951294,209.336456 
	C212.061844,206.048782 211.858521,202.018036 213.369324,198.122925 
	C214.907913,194.156174 217.959641,191.517242 222.363571,191.366058 
	C227.112030,191.203064 231.244400,192.751953 233.347794,197.461029 
	C235.168060,201.536240 234.948380,205.556946 232.025375,209.090134 
	C230.998108,210.331848 229.525665,211.205261 227.889740,212.415558 
z"/>
<path fill="#000000" opacity="1.000000" stroke="none" 
	d="
M203.438171,341.830109 
	C207.640289,349.221436 202.511200,356.314789 197.333084,357.993286 
	C191.519638,359.877777 185.333832,356.691498 183.335007,350.860474 
	C181.669708,346.002411 183.681274,340.784027 188.282364,338.026062 
	C193.215637,335.069000 198.568771,336.307983 203.438171,341.830109 
z"/>
</svg>