<svg version="1.1" id="Layer_1" xmlns="http://www.w3.org/2000/svg" xmlns:xlink="http://www.w3.org/1999/xlink" x="0px" y="0px"
	 width="100%" viewBox="0 0 512 512" enable-background="new 0 0 512 512" xml:space="preserve">
<path fill="#000000" opacity="1.000000" stroke="none" 
	d="
M285.185791,66.490051 
	C300.574524,71.977623 306.889801,82.868446 303.302551,97.140030 
	C301.359283,104.871140 296.206146,109.727531 289.211792,112.949776 
	C287.425323,113.772781 285.356384,114.047920 283.440765,116.161125 
	C291.771423,127.311249 300.166016,138.546906 309.659424,151.253265 
	C302.332123,151.253265 296.483093,151.555878 290.685333,151.141510 
	C287.119202,150.886642 286.153992,147.031006 284.318115,144.605377 
	C278.591187,137.038788 273.022156,129.349304 267.537964,121.604057 
	C265.440491,118.641838 263.059143,117.008545 259.231262,117.306564 
	C255.258499,117.615852 251.232788,117.545929 247.248611,117.319092 
	C243.592636,117.110947 242.192810,118.426537 242.286453,122.174141 
	C242.490219,130.329514 242.255280,138.495087 242.391953,146.653275 
	C242.447891,149.992340 241.378525,151.469666 237.820068,151.406372 
	C222.399536,151.132141 224.971237,153.246353 224.881241,139.017593 
	C224.735886,116.035812 224.836365,93.052475 224.833603,70.069794 
	C224.833267,67.358841 224.585922,64.409897 228.570526,64.407379 
	C247.334473,64.395546 266.165619,62.525940 285.185791,66.490051 
M242.369064,99.134407 
	C241.706635,103.278389 244.083038,104.445419 247.598694,104.394241 
	C251.424820,104.338547 255.249741,104.200928 259.075256,104.101990 
	C264.882477,103.951782 270.757751,104.479469 276.422028,102.739479 
	C283.632751,100.524452 287.769531,95.504074 287.395081,89.640724 
	C287.031372,83.946236 282.562775,79.802826 275.184967,78.351463 
	C265.443085,76.435020 255.596222,77.705971 245.800751,77.412849 
	C242.781403,77.322495 242.332016,79.304466 242.350250,81.729950 
	C242.391556,87.224648 242.367310,92.719841 242.369064,99.134407 
z"/>
<path fill="#000000" opacity="1.000000" stroke="none" 
	d="
M327.991730,316.412598 
	C330.393799,309.710266 334.327606,306.493652 339.419525,306.736542 
	C344.915802,306.998718 349.596863,311.293457 350.215607,316.641693 
	C350.835938,322.003296 346.896118,327.394501 341.343903,328.781555 
	C336.471924,329.998688 330.963013,327.083221 328.837006,322.122742 
	C328.113617,320.434875 327.629547,318.681641 327.991730,316.412598 
z"/>
<path fill="#000000" opacity="1.000000" stroke="none" 
	d="
M252.594940,383.714111 
	C246.860687,380.000214 244.782837,375.557495 246.260590,370.718292 
	C247.865784,365.461731 252.291565,362.393860 257.893158,362.654938 
	C262.959900,362.891052 266.867981,366.229156 268.023834,371.308014 
	C269.908112,379.587646 262.803864,385.512024 252.594940,383.714111 
z"/>
<path fill="#000000" opacity="1.000000" stroke="none" 
	d="
M165.053375,322.578613 
	C162.788925,315.262054 165.836655,308.964783 172.195282,307.104462 
	C178.008591,305.403656 184.398819,309.322906 185.958771,315.545837 
	C187.373260,321.188538 183.443420,327.221130 177.347885,328.764221 
	C172.830383,329.907806 168.643768,327.893036 165.053375,322.578613 
z"/>
<path fill="#000000" opacity="1.000000" stroke="none" 
	d="
M191.525604,231.972260 
	C182.697433,228.320923 180.128448,220.257187 185.436935,213.992294 
	C188.701630,210.139404 193.754166,209.024521 198.542023,211.100525 
	C202.536163,212.832352 205.426819,217.678146 205.049118,222.008759 
	C204.652603,226.555099 200.607788,231.069077 195.881241,232.029358 
	C194.609695,232.287689 193.241440,232.070129 191.525604,231.972260 
z"/>
<path fill="#000000" opacity="1.000000" stroke="none" 
	d="
M327.380249,229.473450 
	C320.459137,233.689453 314.022522,232.500259 310.717072,226.706909 
	C307.532196,221.124832 309.465088,214.517685 315.224365,211.299820 
	C319.598969,208.855637 325.492432,210.001328 328.775909,213.934311 
	C332.528015,218.428635 332.141113,223.799545 327.380249,229.473450 
z"/>
<path fill="#000000" opacity="1.000000" stroke="none" 
	d="
M181.471863,259.615082 
	C174.295151,263.354706 167.572952,261.386383 164.853882,255.060440 
	C162.326767,249.181091 165.529419,242.199707 171.711319,240.112076 
	C177.712616,238.085403 184.437759,241.922775 185.945770,248.366791 
	C187.007919,252.905548 185.195908,256.483032 181.471863,259.615082 
z"/>
<path fill="#000000" opacity="1.000000" stroke="none" 
	d="
M350.079529,252.537201 
	C347.142365,262.851868 336.741852,263.838440 331.530426,258.815796 
	C328.154053,255.561737 326.843658,251.561813 328.708588,246.995575 
	C330.487457,242.640137 333.646515,239.905075 338.491730,239.708389 
	C343.477356,239.506027 347.125153,241.729813 349.237061,246.306396 
	C350.089478,248.153625 350.486755,250.092896 350.079529,252.537201 
z"/>
<path fill="#000000" opacity="1.000000" stroke="none" 
	d="
M157.155304,287.261658 
	C156.384644,279.885773 159.534149,274.863220 165.354218,273.580353 
	C171.015732,272.332428 176.359116,275.146759 178.257477,280.376434 
	C180.347885,286.135101 177.510101,292.394989 171.761566,294.705780 
	C166.152969,296.960327 160.466736,294.185516 157.155304,287.261658 
z"/>
<path fill="#000000" opacity="1.000000" stroke="none" 
	d="
M355.356293,277.907166 
	C358.368011,282.953949 358.001434,287.497223 354.522064,291.641937 
	C351.550293,295.182007 347.509705,296.157745 343.198059,294.969849 
	C338.592468,293.700958 335.922791,290.340973 335.316101,285.627289 
	C334.672577,280.627411 336.888245,276.886536 341.209656,274.485504 
	C345.641510,272.023132 350.534637,273.189423 355.356293,277.907166 
z"/>
<path fill="#000000" opacity="1.000000" stroke="none" 
	d="
M295.402527,356.288879 
	C300.851440,359.944122 302.699677,363.967499 301.317322,369.111237 
	C300.136353,373.505585 297.243103,376.330963 292.748322,377.192688 
	C287.862579,378.129333 283.201019,375.953125 280.934845,371.635254 
	C278.835999,367.636200 278.949371,363.560791 281.709961,359.882782 
	C285.150543,355.298859 289.767639,354.381134 295.402527,356.288879 
z"/>
<path fill="#000000" opacity="1.000000" stroke="none" 
	d="
M294.172882,212.825745 
	C286.921539,213.692917 282.777252,211.767899 280.514618,206.813232 
	C278.561340,202.536026 279.711670,197.241623 283.297485,194.093964 
	C286.769684,191.046082 290.794434,190.580673 294.943237,192.127502 
	C299.268951,193.740311 301.373016,197.211975 301.607880,201.752228 
	C301.881592,207.043488 299.207611,210.517029 294.172882,212.825745 
z"/>
<path fill="#000000" opacity="1.000000" stroke="none" 
	d="
M309.337402,349.427917 
	C309.189911,341.238983 313.281799,336.629181 320.248383,336.641754 
	C326.945160,336.653839 331.534790,341.391907 331.321259,348.072693 
	C331.158142,353.176025 327.100464,357.726501 322.149323,358.358582 
	C315.843536,359.163605 311.689758,356.369781 309.337402,349.427917 
z"/>
<path fill="#000000" opacity="1.000000" stroke="none" 
	d="
M246.200958,192.645462 
	C248.865295,183.481583 259.510986,180.984268 265.681610,188.206375 
	C268.587402,191.607285 269.143005,195.705536 266.999237,199.850479 
	C264.920074,203.870560 261.551544,206.237915 257.031799,206.158920 
	C252.579987,206.081085 249.084900,203.885056 247.083527,199.779465 
	C246.056244,197.672119 245.438995,195.417831 246.200958,192.645462 
z"/>
<path fill="#000000" opacity="1.000000" stroke="none" 
	d="
M227.571869,192.102539 
	C234.693253,196.190811 236.535553,202.733765 232.500534,208.504669 
	C228.667908,213.986130 221.611786,214.985580 216.376282,210.788574 
	C212.645065,207.797470 211.422028,202.208755 213.510605,197.693954 
	C215.934479,192.454391 220.315475,190.616898 227.571869,192.102539 
z"/>
<path fill="#000000" opacity="1.000000" stroke="none" 
	d="
M231.998077,359.207886 
	C235.249146,364.970215 235.193008,369.498260 231.940201,373.353699 
	C228.844147,377.023376 224.820953,378.202209 220.278885,376.917297 
	C213.945877,375.125732 210.797348,368.270081 213.273438,362.127106 
	C215.663284,356.198090 222.205887,353.599121 228.120346,356.347168 
	C229.441208,356.960876 230.547989,358.035309 231.998077,359.207886 
z"/>
<path fill="#000000" opacity="1.000000" stroke="none" 
	d="
M189.894806,357.728149 
	C183.939758,354.355072 181.610229,349.554016 183.199951,344.518219 
	C184.894821,339.149384 189.257538,336.235413 194.956345,336.665741 
	C200.201401,337.061798 204.014023,340.685638 204.919815,346.135895 
	C206.189926,353.778381 199.344467,359.277161 189.894806,357.728149 
z"/>
</svg>