<svg version="1.1" id="Layer_1" xmlns="http://www.w3.org/2000/svg" xmlns:xlink="http://www.w3.org/1999/xlink" x="0px" y="0px"
	 width="100%" viewBox="0 0 512 512" enable-background="new 0 0 512 512" xml:space="preserve">
<path fill="#000000" opacity="1.000000" stroke="none" 
	d="
M247.623932,64.260010 
	C262.038635,61.393299 275.790161,62.661114 289.441589,66.566505 
	C293.972992,67.862839 294.755371,69.753792 292.652222,74.042656 
	C288.238007,83.044357 289.106415,81.141022 281.776337,78.957756 
	C272.647186,76.238640 263.396027,74.121941 253.796265,76.378227 
	C251.869583,76.831070 249.892029,77.365646 248.155960,78.277580 
	C241.929367,81.548340 241.390961,87.653877 246.992142,91.915489 
	C251.559891,95.390800 257.028412,97.064301 262.348877,98.992180 
	C270.314850,101.878662 278.300171,104.564781 285.906128,108.517090 
	C300.681244,116.194733 299.930847,139.942337 283.926697,147.667740 
	C272.884003,152.998199 261.205658,153.720779 249.296417,152.878159 
	C243.987930,152.502563 238.720551,151.633408 233.584793,150.155197 
	C226.372620,148.079346 225.958267,147.548019 226.062897,140.118912 
	C226.092499,138.017014 225.617249,135.768234 227.493561,133.636810 
	C230.989990,134.752502 234.597092,135.869476 238.181824,137.054092 
	C247.200302,140.034317 256.465179,140.429153 265.817963,139.596252 
	C267.771057,139.422333 269.735077,138.807892 271.580261,138.099869 
	C275.837616,136.466309 279.257874,133.916367 279.602112,128.894485 
	C279.939972,123.966057 276.606873,121.353561 272.908875,119.216057 
	C265.361877,114.853783 256.923920,112.643852 248.877533,109.483955 
	C245.475861,108.148079 242.069855,106.759193 238.839813,105.063034 
	C230.891174,100.889038 225.959610,94.782578 226.380112,85.209908 
	C226.812500,75.366829 232.604675,69.851700 241.055359,66.377480 
	C243.047073,65.558640 245.165192,65.047234 247.623932,64.260010 
z"/>
<path fill="#000000" opacity="1.000000" stroke="none" 
	d="
M344.444092,308.182068 
	C349.770386,312.362091 351.310730,316.459869 349.614288,321.223236 
	C347.934174,325.940704 343.220215,329.345215 338.690796,329.112396 
	C333.828461,328.862427 329.642883,325.426483 328.271667,320.521271 
	C327.063080,316.197754 328.650146,312.634094 331.682739,309.747192 
	C335.313080,306.291260 339.580017,305.883667 344.444092,308.182068 
z"/>
<path fill="#000000" opacity="1.000000" stroke="none" 
	d="
M266.579254,367.736267 
	C269.547272,375.339874 267.093811,381.843109 260.778412,384.004791 
	C254.565781,386.131317 248.108261,382.727173 246.264862,376.353851 
	C244.899567,371.633545 247.266098,366.296387 251.856735,363.742645 
	C256.551697,361.130890 262.020691,362.510010 266.579254,367.736267 
z"/>
<path fill="#000000" opacity="1.000000" stroke="none" 
	d="
M188.685608,211.363388 
	C195.008743,209.146576 200.377533,210.601501 203.120865,214.981583 
	C205.922775,219.455185 205.408691,225.078705 201.858322,228.792130 
	C198.234833,232.582031 192.655350,233.304260 188.103653,230.572571 
	C180.869568,226.231094 180.989227,217.266022 188.685608,211.363388 
z"/>
<path fill="#000000" opacity="1.000000" stroke="none" 
	d="
M311.875061,213.963654 
	C318.133789,208.942520 323.760223,208.798584 328.160217,213.255096 
	C332.101105,217.246658 332.439697,223.417908 328.958710,227.808868 
	C325.124573,232.645294 318.759155,233.644104 313.782013,230.190231 
	C308.849731,226.767502 307.980469,220.304169 311.875061,213.963654 
z"/>
<path fill="#000000" opacity="1.000000" stroke="none" 
	d="
M184.572662,256.247925 
	C180.255997,261.465271 176.417770,262.860260 171.298309,261.102417 
	C166.696640,259.522339 164.250000,255.957245 163.963715,251.326736 
	C163.673462,246.631805 166.011551,242.986679 170.251907,240.822617 
	C174.578674,238.614441 178.715515,239.390854 182.361740,242.344101 
	C186.257721,245.499619 187.005249,250.319595 184.572662,256.247925 
z"/>
<path fill="#000000" opacity="1.000000" stroke="none" 
	d="
M344.209534,260.483704 
	C337.330048,262.683777 332.358948,261.189941 329.518799,256.372162 
	C326.940033,251.997681 327.590607,246.692551 331.153656,243.040421 
	C335.591736,238.491364 342.986969,238.537918 347.210480,243.141464 
	C352.127411,248.500778 351.075165,255.225830 344.209534,260.483704 
z"/>
<path fill="#000000" opacity="1.000000" stroke="none" 
	d="
M175.896545,291.887054 
	C169.869476,296.282349 164.519806,296.350891 160.261795,292.369781 
	C156.396164,288.755524 155.597687,283.063141 158.342651,278.688507 
	C161.757904,273.245667 168.758224,271.614410 174.060410,275.025848 
	C179.447693,278.492035 180.290894,285.154144 175.896545,291.887054 
z"/>
<path fill="#000000" opacity="1.000000" stroke="none" 
	d="
M346.060181,295.321228 
	C338.486267,294.117035 334.222626,288.906006 335.284241,282.662720 
	C336.310944,276.624786 341.538330,272.662750 347.450256,273.441559 
	C353.941284,274.296661 357.950775,279.231415 357.292755,285.555481 
	C356.725403,291.008179 352.791748,294.563202 346.060181,295.321228 
z"/>
<path fill="#000000" opacity="1.000000" stroke="none" 
	d="
M168.374817,309.194885 
	C173.029770,305.793365 177.468094,306.036377 181.668228,309.033264 
	C185.179550,311.538696 186.823166,315.224426 186.060257,319.508820 
	C185.237976,324.126678 182.411163,327.249847 177.814957,328.614166 
	C173.434586,329.914429 168.258987,327.846344 165.739578,323.783295 
	C162.661362,318.819061 163.338043,314.642609 168.374817,309.194885 
z"/>
<path fill="#000000" opacity="1.000000" stroke="none" 
	d="
M285.371582,212.064484 
	C279.920959,207.650864 278.250977,203.233475 280.266785,198.460083 
	C282.177368,193.935852 285.653320,191.285599 290.682312,191.334564 
	C295.166962,191.378204 298.823395,193.254684 300.633911,197.545395 
	C302.439545,201.824615 302.177948,206.102036 298.895905,209.626251 
	C295.223267,213.569870 290.716400,214.394119 285.371582,212.064484 
z"/>
<path fill="#000000" opacity="1.000000" stroke="none" 
	d="
M284.033630,375.194153 
	C279.548309,371.374725 278.433289,366.880707 280.542908,361.935791 
	C282.480316,357.394379 286.252808,355.052673 291.272278,355.337585 
	C296.021606,355.607147 299.575531,357.963013 301.055023,362.559479 
	C302.549042,367.200928 301.678314,371.576080 297.752350,374.751526 
	C293.558258,378.143768 288.979523,378.372589 284.033630,375.194153 
z"/>
<path fill="#000000" opacity="1.000000" stroke="none" 
	d="
M330.700989,343.902222 
	C331.809906,350.802826 329.788300,355.271759 324.852844,357.590668 
	C320.687347,359.547760 315.205200,358.461365 312.054108,354.932678 
	C309.015167,351.529541 308.191925,347.548737 309.953491,343.351105 
	C311.696869,339.196869 314.922974,336.828156 319.583282,336.641998 
	C324.827271,336.432587 328.562775,338.555878 330.700989,343.902222 
z"/>
<path fill="#000000" opacity="1.000000" stroke="none" 
	d="
M264.223938,186.657654 
	C268.688416,191.915924 269.367249,195.903198 266.626038,200.493942 
	C264.201996,204.553482 260.529358,206.776413 255.795517,206.069183 
	C250.767624,205.318024 247.365311,202.295410 246.168167,197.193176 
	C245.141891,192.819183 246.886536,189.290787 250.114624,186.583984 
	C254.565491,182.851883 259.277405,183.394272 264.223938,186.657654 
z"/>
<path fill="#000000" opacity="1.000000" stroke="none" 
	d="
M224.561066,355.367249 
	C230.114624,356.270508 233.412277,359.171417 234.258728,364.380157 
	C235.052460,369.264404 233.337036,373.230927 229.016846,375.819214 
	C224.863937,378.307312 220.749084,377.835510 216.864807,375.167175 
	C212.549286,372.202667 211.965683,367.809875 212.935562,363.189270 
	C213.942169,358.393616 218.154114,355.630768 224.561066,355.367249 
z"/>
<path fill="#000000" opacity="1.000000" stroke="none" 
	d="
M227.147583,212.761688 
	C221.783875,214.068787 217.526993,212.873337 214.459366,208.679138 
	C212.011337,205.332077 211.911301,201.506607 213.500534,197.828568 
	C215.281281,193.707291 218.532883,191.220322 223.177963,191.339386 
	C227.999344,191.462997 231.971405,193.389267 233.694656,198.195099 
	C235.257584,202.553818 234.631149,206.720215 231.185760,210.085526 
	C230.143646,211.103378 228.754471,211.765915 227.147583,212.761688 
z"/>
<path fill="#000000" opacity="1.000000" stroke="none" 
	d="
M188.410965,357.055237 
	C183.014694,352.767517 181.570129,348.391052 183.627426,343.475372 
	C185.685669,338.557434 189.649368,336.205109 195.092255,336.671387 
	C200.125946,337.102600 203.816559,340.533325 204.828918,345.790192 
	C205.635239,349.977173 203.918549,353.294586 200.876129,355.915161 
	C197.215164,359.068573 193.059418,359.100525 188.410965,357.055237 
z"/>
</svg>