<svg version="1.1" id="Layer_1" xmlns="http://www.w3.org/2000/svg" xmlns:xlink="http://www.w3.org/1999/xlink" x="0px" y="0px"
	 width="100%" viewBox="0 0 512 512" enable-background="new 0 0 512 512" xml:space="preserve">
<path fill="#000000" opacity="1.000000" stroke="none" 
	d="
M246.042938,126.999985 
	C246.033752,105.677376 245.972229,84.854553 246.056427,64.032310 
	C246.075226,59.384628 246.201355,54.670303 246.976929,50.105392 
	C249.257446,36.682495 258.011230,29.058950 272.568207,27.798103 
	C279.709290,27.179579 286.838043,27.545429 293.832520,29.622046 
	C296.925659,30.540379 298.086945,31.892443 296.710571,34.981068 
	C296.102478,36.345692 295.564240,37.763298 295.195099,39.208153 
	C294.356995,42.488895 292.470337,43.431534 289.288177,42.318436 
	C285.620392,41.035454 281.761505,40.908585 277.933533,41.020920 
	C269.754486,41.260944 265.019409,45.760494 264.309143,53.946083 
	C264.035980,57.093830 263.969818,60.267456 263.966492,63.429455 
	C263.937958,90.582039 263.856293,117.735207 264.024475,144.886765 
	C264.054596,149.749725 262.767090,151.689606 257.551056,151.468689 
	C244.859528,150.931091 246.089722,153.246979 246.052887,139.993378 
	C246.041321,135.828918 246.045975,131.664444 246.042938,126.999985 
z"/>
<path fill="#000000" opacity="1.000000" stroke="none" 
	d="
M328.466125,321.105469 
	C327.294281,313.935516 330.611267,308.440369 336.626007,306.986023 
	C342.152893,305.649658 348.091187,309.199677 349.821777,314.874664 
	C351.420380,320.116791 348.437744,326.011017 343.066650,328.224091 
	C337.327087,330.589020 332.034607,328.123047 328.466125,321.105469 
z"/>
<path fill="#000000" opacity="1.000000" stroke="none" 
	d="
M251.239227,383.001282 
	C246.092010,378.549255 244.728897,374.404785 246.614197,369.746002 
	C248.618515,364.793091 252.895401,362.221405 258.430847,362.679504 
	C263.569519,363.104736 266.516052,366.194214 267.862823,370.882385 
	C269.079681,375.118164 267.658356,378.844482 264.517181,381.679565 
	C260.672485,385.149658 256.193970,385.317871 251.239227,383.001282 
z"/>
<path fill="#000000" opacity="1.000000" stroke="none" 
	d="
M204.387543,217.960083 
	C205.782059,224.919128 202.485031,230.378647 196.245956,231.979843 
	C190.967865,233.334412 185.199677,230.001022 183.329971,224.515778 
	C181.441940,218.976822 184.288010,213.046448 189.925186,210.773239 
	C195.701843,208.443787 201.205963,211.047256 204.387543,217.960083 
z"/>
<path fill="#000000" opacity="1.000000" stroke="none" 
	d="
M329.898499,215.526367 
	C332.306549,220.606522 331.816498,224.984299 328.116455,228.748367 
	C324.938904,231.980927 321.151276,233.072632 316.691833,231.580963 
	C312.216309,230.083923 309.990265,226.832230 309.265076,222.408417 
	C308.497681,217.727112 311.424927,212.914902 316.155762,210.811829 
	C320.893188,208.705826 325.467560,210.181381 329.898499,215.526367 
z"/>
<path fill="#000000" opacity="1.000000" stroke="none" 
	d="
M183.694824,257.532288 
	C179.760223,261.903168 175.284714,262.796509 170.327850,260.699524 
	C166.265442,258.980957 164.137451,255.508011 163.940216,251.273926 
	C163.720917,246.566376 166.072983,242.990982 170.291061,240.777313 
	C174.400284,238.620743 179.925278,239.625275 183.135574,243.060349 
	C186.908188,247.097107 187.151184,251.425705 183.694824,257.532288 
z"/>
<path fill="#000000" opacity="1.000000" stroke="none" 
	d="
M343.058899,240.382996 
	C349.602051,244.110703 351.755432,249.509979 349.215485,255.057846 
	C346.673492,260.610138 340.856415,263.076233 335.069733,261.054779 
	C329.990295,259.280396 326.852844,253.307404 328.294922,248.157089 
	C330.080994,241.778244 335.207855,238.948578 343.058899,240.382996 
z"/>
<path fill="#000000" opacity="1.000000" stroke="none" 
	d="
M161.783813,293.533386 
	C156.766800,288.868347 155.524521,284.580566 157.598480,280.023895 
	C159.756882,275.281708 164.233139,272.780334 169.325729,273.470581 
	C174.645126,274.191589 178.004837,277.405762 178.922241,282.810699 
	C179.637405,287.024078 177.795792,290.350281 174.702454,292.900421 
	C170.805771,296.112793 166.493835,296.145844 161.783813,293.533386 
z"/>
<path fill="#000000" opacity="1.000000" stroke="none" 
	d="
M335.432251,286.329895 
	C335.122925,279.139099 338.401093,274.507751 344.179810,273.458252 
	C349.572449,272.478821 354.692535,275.315033 356.640961,280.360870 
	C358.610535,285.461426 356.425934,291.318665 351.525543,294.075958 
	C345.167603,297.653412 338.328461,294.503143 335.432251,286.329895 
z"/>
<path fill="#000000" opacity="1.000000" stroke="none" 
	d="
M179.601044,327.976044 
	C172.382095,330.102325 166.950455,327.650604 164.639786,321.556641 
	C162.590927,316.153137 165.354828,310.111084 171.022339,307.604156 
	C175.933365,305.431793 182.121994,307.634308 184.770996,312.497223 
	C187.848526,318.146820 186.136597,323.589569 179.601044,327.976044 
z"/>
<path fill="#000000" opacity="1.000000" stroke="none" 
	d="
M249.744385,203.372314 
	C245.753113,199.201370 244.598404,194.840240 247.356781,189.934906 
	C249.680969,185.801682 253.246826,183.495239 258.036041,184.123917 
	C263.061279,184.783600 266.674561,187.497787 267.891052,192.701019 
	C268.954926,197.251389 267.290161,200.929825 263.824127,203.752625 
	C259.272186,207.459824 254.607941,206.809494 249.744385,203.372314 
z"/>
<path fill="#000000" opacity="1.000000" stroke="none" 
	d="
M300.914429,206.603943 
	C296.128540,213.758423 289.369965,215.391525 283.866699,211.034653 
	C278.653046,206.907074 278.083405,199.498138 282.613281,194.732346 
	C286.005463,191.163498 291.410309,190.278061 295.923340,192.551880 
	C300.689178,194.953079 302.327484,199.310883 300.914429,206.603943 
z"/>
<path fill="#000000" opacity="1.000000" stroke="none" 
	d="
M329.646637,353.300476 
	C326.313080,358.359802 321.748169,359.432037 316.729462,357.940674 
	C311.965088,356.524872 309.304901,352.795502 309.135345,347.855103 
	C308.973999,343.153381 311.148560,339.408569 315.629089,337.567688 
	C320.118042,335.723328 324.480927,336.135803 328.122437,339.648376 
	C331.683777,343.083649 332.203857,347.600403 329.646637,353.300476 
z"/>
<path fill="#000000" opacity="1.000000" stroke="none" 
	d="
M296.343048,375.738434 
	C289.203400,378.774658 283.147217,376.763824 280.466827,370.799652 
	C278.055847,365.434937 280.406647,359.097961 285.808777,356.399567 
	C290.922424,353.845276 297.311157,355.709747 300.181610,360.594116 
	C303.151978,365.648499 301.857880,371.148926 296.343048,375.738434 
z"/>
<path fill="#000000" opacity="1.000000" stroke="none" 
	d="
M223.788208,191.271332 
	C229.473038,192.018860 233.240540,194.642502 234.224518,200.099991 
	C235.092850,204.916046 233.524597,208.966888 229.241318,211.655945 
	C224.942261,214.354919 220.694763,213.866928 216.692963,211.024902 
	C212.637878,208.145035 211.822632,203.854691 212.922318,199.470322 
	C214.221329,194.291229 217.906052,191.425995 223.788208,191.271332 
z"/>
<path fill="#000000" opacity="1.000000" stroke="none" 
	d="
M215.004028,359.237183 
	C218.837509,355.028961 223.179672,354.257172 227.932053,356.247406 
	C231.933914,357.923370 234.087692,361.057678 234.374283,365.493622 
	C234.688339,370.354523 232.601532,373.820923 228.480179,376.136353 
	C224.509323,378.367218 218.975632,377.474915 215.586823,374.179749 
	C211.930389,370.624329 211.622375,365.136871 215.004028,359.237183 
z"/>
<path fill="#000000" opacity="1.000000" stroke="none" 
	d="
M198.781708,337.680420 
	C205.006195,341.969574 206.601913,347.366211 203.550629,352.736328 
	C200.541412,358.032410 194.449112,359.944672 188.961182,357.315704 
	C183.867767,354.875702 181.492981,349.139221 183.428177,343.950439 
	C185.760300,337.697388 190.956894,335.464417 198.781708,337.680420 
z"/>
</svg>