<svg version="1.1" id="Layer_1" xmlns="http://www.w3.org/2000/svg" xmlns:xlink="http://www.w3.org/1999/xlink" x="0px" y="0px"
	 width="100%" viewBox="0 0 512 512" enable-background="new 0 0 512 512" xml:space="preserve">
<path fill="#000000" opacity="1.000000" stroke="none" 
	d="
M226.576263,73.588387 
	C242.974030,59.187901 260.544434,59.100185 284.993591,73.073608 
	C286.469177,72.187698 286.547333,70.624550 286.736877,69.179802 
	C287.208923,65.581383 289.270447,64.280685 292.809204,64.105766 
	C301.959747,63.653484 302.289764,63.850525 302.291779,73.095016 
	C302.295685,91.078270 302.287292,109.061531 302.299225,127.044777 
	C302.306824,138.498688 302.630035,138.858139 313.771606,140.032501 
	C314.881195,142.817764 314.275360,145.818115 314.271790,148.746048 
	C314.268616,151.369202 312.194122,151.816757 310.194550,152.288437 
	C298.644257,155.013077 291.998993,152.113586 285.020142,140.941864 
	C277.626129,149.904678 267.576019,152.827957 256.625031,153.140961 
	C232.872375,153.819916 217.007294,138.743347 215.528214,115.014793 
	C214.866364,104.396820 215.528290,94.172119 219.531769,84.230988 
	C221.123474,80.278618 223.693756,77.065201 226.576263,73.588387 
M284.658295,108.527184 
	C285.054077,104.164108 284.172882,99.893631 283.476135,95.649994 
	C281.621307,84.352623 273.995117,77.247986 263.123596,76.347885 
	C248.804123,75.162315 240.228775,79.931160 235.868942,91.276703 
	C232.856171,99.116768 232.562027,107.298019 233.505737,115.366333 
	C236.202301,138.421341 252.753723,143.392181 270.575623,137.696609 
	C276.243591,135.885254 280.122772,131.811523 282.166504,126.119232 
	C284.100830,120.731781 284.822510,115.169662 284.658295,108.527184 
z"/>
<path fill="#000000" opacity="1.000000" stroke="none" 
	d="
M346.836365,325.825195 
	C339.611328,330.590515 333.035980,329.549530 329.494629,323.394348 
	C326.363831,317.952728 328.337158,311.153351 333.944916,308.060211 
	C338.211029,305.707092 343.727051,306.623627 347.160797,310.256104 
	C351.254700,314.586945 351.239471,319.364166 346.836365,325.825195 
z"/>
<path fill="#000000" opacity="1.000000" stroke="none" 
	d="
M252.164978,363.582092 
	C259.660156,361.673157 264.421661,363.348694 266.986847,368.481750 
	C269.309326,373.129181 268.170135,378.724304 264.238251,381.981201 
	C259.421448,385.971069 252.054550,385.233765 248.260712,380.382111 
	C243.963348,374.886566 245.260757,368.799561 252.164978,363.582092 
z"/>
<path fill="#000000" opacity="1.000000" stroke="none" 
	d="
M183.551788,217.036163 
	C185.989227,212.312958 189.518127,209.653854 194.500244,210.071304 
	C198.857971,210.436447 202.385986,212.525528 204.119705,216.936188 
	C205.908340,221.486526 205.019028,225.594162 201.667770,228.874298 
	C198.363556,232.108429 194.272812,233.321075 189.727585,231.367737 
	C185.106659,229.381897 182.841309,225.770157 182.763397,220.809128 
	C182.745651,219.679184 183.178406,218.542175 183.551788,217.036163 
z"/>
<path fill="#000000" opacity="1.000000" stroke="none" 
	d="
M310.989197,215.205536 
	C314.672424,210.523422 318.988342,208.671967 324.387482,210.852829 
	C329.034760,212.730011 331.405670,216.349457 331.302307,221.372299 
	C331.197571,226.459915 328.341278,229.745453 323.791748,231.523758 
	C319.461365,233.216385 315.431976,232.098801 312.372772,228.837112 
	C308.720978,224.943604 308.056732,220.351044 310.989197,215.205536 
z"/>
<path fill="#000000" opacity="1.000000" stroke="none" 
	d="
M186.252884,250.105331 
	C185.234924,256.999573 182.360596,260.619659 177.144043,261.494293 
	C172.302856,262.305939 168.255707,260.800690 165.602203,256.470612 
	C162.160797,250.854782 164.250961,243.921051 170.250381,240.795517 
	C175.582977,238.017365 182.381454,240.327057 185.045898,245.901367 
	C185.611481,247.084656 185.846069,248.426147 186.252884,250.105331 
z"/>
<path fill="#000000" opacity="1.000000" stroke="none" 
	d="
M327.998535,249.378189 
	C329.236603,244.205856 332.082642,240.844879 336.923492,239.856644 
	C341.079041,239.008316 344.905945,240.229996 347.633453,243.694336 
	C350.568024,247.421738 351.218994,251.521545 348.833923,255.790970 
	C346.630066,259.735901 343.229279,262.009735 338.658051,261.731293 
	C333.769806,261.433502 330.131256,259.037018 328.598969,254.162888 
	C328.160400,252.767868 328.140381,251.241287 327.998535,249.378189 
z"/>
<path fill="#000000" opacity="1.000000" stroke="none" 
	d="
M159.425385,291.464661 
	C156.073776,286.743042 155.629440,282.260162 158.999283,277.779114 
	C161.902008,273.919220 165.780426,272.640625 170.474014,273.643402 
	C175.301102,274.674713 177.925003,277.837708 178.812119,282.488373 
	C179.777267,287.548340 177.424606,291.215210 173.329941,293.820862 
	C168.959351,296.602081 164.803833,295.882812 159.425385,291.464661 
z"/>
<path fill="#000000" opacity="1.000000" stroke="none" 
	d="
M357.320923,284.854553 
	C355.687744,292.075836 352.099304,295.340424 346.266937,295.322266 
	C340.850311,295.305389 336.821075,292.075684 335.538635,286.722717 
	C334.375549,281.868011 336.616516,276.944031 341.087372,274.530670 
	C348.394043,270.586548 356.339355,275.432007 357.320923,284.854553 
z"/>
<path fill="#000000" opacity="1.000000" stroke="none" 
	d="
M169.733505,327.548798 
	C164.203278,323.271637 162.735489,319.027191 164.767227,313.977325 
	C166.573166,309.488708 171.232605,306.416260 175.706940,306.763733 
	C180.740250,307.154633 184.756607,310.583893 185.961121,315.592682 
	C186.959244,319.743317 185.492538,323.293701 182.537338,325.985260 
	C178.922897,329.277222 174.644989,330.130005 169.733505,327.548798 
z"/>
<path fill="#000000" opacity="1.000000" stroke="none" 
	d="
M297.999207,357.917847 
	C303.117310,364.495605 302.673767,371.252563 297.172424,375.217468 
	C291.918854,379.003723 285.042725,377.781281 281.399017,372.413300 
	C278.659058,368.376740 279.059692,362.691193 282.343842,359.003632 
	C286.200500,354.673401 291.620117,354.204407 297.999207,357.917847 
z"/>
<path fill="#000000" opacity="1.000000" stroke="none" 
	d="
M301.007477,198.343933 
	C302.180481,203.798172 301.496277,208.275406 296.781830,211.417480 
	C293.119629,213.858276 289.307648,214.042175 285.473755,212.076660 
	C281.160187,209.865219 278.882202,205.248016 279.780365,200.373215 
	C280.643494,195.688690 283.599213,192.708786 288.220062,191.604843 
	C293.544647,190.332748 297.533234,192.420700 301.007477,198.343933 
z"/>
<path fill="#000000" opacity="1.000000" stroke="none" 
	d="
M264.299927,203.398956 
	C259.823883,206.834152 255.486206,207.113113 251.053650,204.253342 
	C247.384949,201.886414 245.498505,198.340164 245.976059,194.102829 
	C246.494125,189.506134 249.167755,186.172455 253.696793,184.574951 
	C257.849762,183.110077 263.488159,184.951492 266.110626,188.644379 
	C269.369507,193.233490 268.909302,197.654770 264.299927,203.398956 
z"/>
<path fill="#000000" opacity="1.000000" stroke="none" 
	d="
M313.872253,338.536987 
	C320.369354,335.343048 326.126099,336.399994 329.291473,341.087677 
	C332.624451,346.023560 331.857880,352.137329 327.430481,355.930542 
	C323.011017,359.716858 316.107452,359.298187 312.094299,355.000488 
	C307.588501,350.175232 308.117554,344.225037 313.872253,338.536987 
z"/>
<path fill="#000000" opacity="1.000000" stroke="none" 
	d="
M214.655640,373.091644 
	C209.197479,364.077118 215.604355,355.210052 223.153656,355.186646 
	C228.041290,355.171539 232.605042,358.199890 233.880081,362.617920 
	C235.221375,367.265564 234.382202,371.513092 230.517944,374.792419 
	C226.793533,377.953003 221.962036,378.254211 217.578995,375.591278 
	C216.602509,374.998016 215.780396,374.150696 214.655640,373.091644 
z"/>
<path fill="#000000" opacity="1.000000" stroke="none" 
	d="
M226.033539,191.693924 
	C231.151703,193.235062 233.959061,196.263611 234.351715,201.371231 
	C234.723984,206.214127 232.663055,209.740982 228.561783,212.035309 
	C224.550827,214.279083 220.580765,213.723495 216.887665,211.138046 
	C212.878479,208.331329 211.391281,202.969025 213.230530,198.254578 
	C215.154541,193.322876 219.504349,191.005081 226.033539,191.693924 
z"/>
<path fill="#000000" opacity="1.000000" stroke="none" 
	d="
M191.488525,358.213989 
	C186.103592,356.630585 183.147202,353.280243 182.814163,348.118378 
	C182.509308,343.393280 184.742279,339.726807 189.004807,337.656830 
	C193.052109,335.691315 197.076782,336.225250 200.727386,338.853729 
	C204.415176,341.508911 205.905090,346.530243 204.397095,350.815277 
	C202.526993,356.129181 198.668747,358.434021 191.488525,358.213989 
z"/>
</svg>