<svg version="1.1" id="Layer_1" xmlns="http://www.w3.org/2000/svg" xmlns:xlink="http://www.w3.org/1999/xlink" x="0px" y="0px"
	 width="100%" viewBox="0 0 512 512" enable-background="new 0 0 512 512" xml:space="preserve">
<path fill="#000000" opacity="1.000000" stroke="none" 
	d="
M237.991180,34.255814 
	C238.038971,47.314892 238.159439,59.902798 237.173492,73.746651 
	C246.343536,65.531250 256.155396,62.660069 266.958038,62.679661 
	C287.783905,62.717438 301.220947,73.442024 305.838562,93.663361 
	C308.382996,104.805977 308.005371,115.922989 304.598175,126.719719 
	C298.218506,146.935486 281.820557,154.476685 261.599884,152.803345 
	C252.311996,152.034729 243.759689,148.926926 237.415283,141.799911 
	C235.048431,143.102966 235.150360,145.193054 234.728012,146.838242 
	C233.899246,150.066544 232.325821,151.444824 228.800797,151.434464 
	C220.088257,151.408813 220.108032,151.581207 220.102905,142.712234 
	C220.082382,107.213219 220.041092,71.714211 220.024445,36.215191 
	C220.020737,28.282982 220.150375,28.182142 228.121597,28.080191 
	C229.454651,28.063141 230.794998,28.163904 232.120117,28.059654 
	C236.292938,27.731365 238.510132,29.335310 237.991180,34.255814 
M247.108597,80.539566 
	C242.824692,83.855049 240.501968,88.354996 239.323563,93.524139 
	C237.411789,101.910286 237.458954,110.459198 238.726028,118.815460 
	C240.792938,132.446732 248.742737,139.355209 261.361816,139.665588 
	C276.787445,140.044983 284.734894,134.324600 287.996094,119.921547 
	C290.152802,110.396561 289.959534,100.810921 286.987488,91.404457 
	C284.390991,83.186646 278.707581,78.049904 270.356506,76.699501 
	C262.599274,75.445114 254.729874,75.536476 247.108597,80.539566 
z"/>
<path fill="#000000" opacity="1.000000" stroke="none" 
	d="
M349.653564,321.121399 
	C346.628235,326.987396 342.495636,329.670837 337.908173,329.021606 
	C332.864258,328.307770 328.712830,324.246155 327.954132,319.282959 
	C327.298584,314.994446 330.079346,310.006836 334.330475,307.869934 
	C338.302185,305.873474 342.166779,306.451111 345.578674,308.949371 
	C349.524475,311.838501 351.103790,315.844452 349.653564,321.121399 
z"/>
<path fill="#000000" opacity="1.000000" stroke="none" 
	d="
M267.268188,369.171143 
	C269.219757,376.194061 266.460663,382.142334 260.675995,384.043030 
	C255.180466,385.848724 249.269699,383.310181 246.895844,378.124756 
	C244.465439,372.815857 246.652267,366.571686 251.949387,363.695099 
	C257.314911,360.781433 263.176208,362.748962 267.268188,369.171143 
z"/>
<path fill="#000000" opacity="1.000000" stroke="none" 
	d="
M183.247971,217.791962 
	C185.433716,212.661987 189.035095,209.809906 194.194687,210.047287 
	C198.527588,210.246628 202.163544,212.268707 204.002533,216.644623 
	C205.888443,221.132233 205.173401,225.274414 201.889679,228.650711 
	C198.668228,231.962997 194.633194,233.290726 190.023911,231.484634 
	C185.533859,229.725250 183.192856,226.343536 182.770157,221.625900 
	C182.668594,220.492508 182.977585,219.322327 183.247971,217.791962 
z"/>
<path fill="#000000" opacity="1.000000" stroke="none" 
	d="
M323.167908,210.498062 
	C330.092102,213.466064 332.972198,219.222198 330.705261,224.893585 
	C328.380096,230.710693 322.209961,233.538574 316.407349,231.446533 
	C310.846466,229.441650 307.862183,223.279465 309.736298,217.671616 
	C311.499542,212.395523 316.797089,209.440887 323.167908,210.498062 
z"/>
<path fill="#000000" opacity="1.000000" stroke="none" 
	d="
M181.218033,241.462158 
	C186.259140,246.290817 187.421875,250.321106 185.230804,254.963455 
	C183.119766,259.436188 179.576141,261.934174 174.560852,261.729492 
	C169.296188,261.514618 165.478348,258.234436 164.224854,253.130646 
	C163.160492,248.796936 164.702057,245.205826 167.905075,242.400314 
	C171.870789,238.926727 176.305099,238.803024 181.218033,241.462158 
z"/>
<path fill="#000000" opacity="1.000000" stroke="none" 
	d="
M350.200500,251.731232 
	C348.356476,261.501160 338.176331,264.611694 331.775940,259.013245 
	C328.268341,255.945175 326.873260,251.936798 328.612610,247.295715 
	C330.272614,242.866364 333.374756,240.074860 338.177460,239.726089 
	C343.143219,239.365448 346.883789,241.507431 349.108337,246.018234 
	C349.920227,247.664505 350.432678,249.434280 350.200500,251.731232 
z"/>
<path fill="#000000" opacity="1.000000" stroke="none" 
	d="
M178.203476,280.199738 
	C179.923065,287.139496 176.913422,293.136017 171.095245,294.968445 
	C165.774918,296.644073 159.788956,293.717957 157.583786,288.363708 
	C155.387283,283.030457 157.670715,277.058807 162.923309,274.399750 
	C168.343216,271.655975 174.347870,273.803589 178.203476,280.199738 
z"/>
<path fill="#000000" opacity="1.000000" stroke="none" 
	d="
M335.615173,287.094666 
	C333.729462,281.488708 337.996185,275.417847 342.445007,273.854858 
	C347.236450,272.171539 352.920715,274.061554 355.620758,278.326385 
	C358.505493,282.882935 357.737366,288.791992 353.784332,292.453888 
	C349.997772,295.961548 344.231049,296.369446 339.962860,293.446198 
	C337.811218,291.972595 336.459991,289.938751 335.615173,287.094666 
z"/>
<path fill="#000000" opacity="1.000000" stroke="none" 
	d="
M182.961395,310.066467 
	C186.588699,314.534027 187.421082,318.965424 184.397659,323.691742 
	C181.940521,327.532806 178.338715,329.533325 173.842972,328.928558 
	C168.992050,328.276062 165.622635,325.415649 164.318787,320.548645 
	C163.045410,315.795502 164.851868,312.019257 168.524887,309.121613 
	C172.906830,305.664703 176.931503,305.940704 182.961395,310.066467 
z"/>
<path fill="#000000" opacity="1.000000" stroke="none" 
	d="
M284.053467,211.166946 
	C279.586731,207.356277 278.452759,202.893890 280.552490,197.936859 
	C282.393311,193.591003 285.974976,191.243195 290.776886,191.334473 
	C295.503021,191.424286 299.215973,193.536942 300.868713,198.087738 
	C302.519714,202.633728 301.842560,206.971786 298.146088,210.429337 
	C294.368530,213.962738 289.841949,214.228989 284.053467,211.166946 
z"/>
<path fill="#000000" opacity="1.000000" stroke="none" 
	d="
M285.726318,356.450928 
	C292.841431,354.337311 298.036652,356.138885 300.561279,361.289307 
	C302.821472,365.900299 301.586426,371.715607 297.677277,374.869019 
	C292.645752,378.927795 285.660400,378.070038 281.757172,372.914001 
	C277.721313,367.582764 279.147247,361.204224 285.726318,356.450928 
z"/>
<path fill="#000000" opacity="1.000000" stroke="none" 
	d="
M254.638306,205.866013 
	C245.007965,201.687302 242.969864,192.140198 250.147995,186.499115 
	C254.313843,183.225311 259.651062,183.211472 263.975403,186.463211 
	C267.596893,189.186432 269.075775,194.197052 267.526825,198.495819 
	C265.572906,203.918457 261.458099,206.383820 254.638306,205.866013 
z"/>
<path fill="#000000" opacity="1.000000" stroke="none" 
	d="
M324.209534,337.164856 
	C330.246033,340.638855 332.650665,345.832153 330.899445,350.939240 
	C329.234436,355.794891 324.559479,358.787598 319.235260,358.406067 
	C314.062714,358.035400 310.047760,354.238373 309.218597,348.933075 
	C307.996185,341.111725 314.340057,335.933746 324.209534,337.164856 
z"/>
<path fill="#000000" opacity="1.000000" stroke="none" 
	d="
M224.753967,377.286285 
	C217.489288,376.981201 213.303055,373.688538 212.684235,368.143402 
	C212.004761,362.054779 215.296005,356.900665 220.723068,355.554504 
	C225.890350,354.272797 231.338013,356.899689 233.505524,361.718262 
	C236.514633,368.407776 233.102448,374.772736 224.753967,377.286285 
z"/>
<path fill="#000000" opacity="1.000000" stroke="none" 
	d="
M222.258301,213.272675 
	C214.457123,210.896881 211.335449,206.152893 212.818573,199.538742 
	C214.004150,194.251617 219.326324,190.727173 224.898254,191.539398 
	C231.100433,192.443466 234.574493,196.631912 234.342621,202.925827 
	C234.116699,209.058151 229.746292,212.942215 222.258301,213.272675 
z"/>
<path fill="#000000" opacity="1.000000" stroke="none" 
	d="
M184.431610,353.265320 
	C181.712677,348.273529 182.378998,343.907379 185.753418,340.035400 
	C188.793427,336.547150 192.888321,335.852112 197.134171,337.033661 
	C201.502670,338.249298 204.043060,341.387848 204.866959,345.885040 
	C205.666977,350.251953 203.052628,355.183624 198.741577,357.359589 
	C193.971817,359.767090 188.964905,358.431793 184.431610,353.265320 
z"/>
</svg>