<svg version="1.1" id="Layer_1" xmlns="http://www.w3.org/2000/svg" xmlns:xlink="http://www.w3.org/1999/xlink" x="0px" y="0px"
	 width="100%" viewBox="0 0 512 512" enable-background="new 0 0 512 512" xml:space="preserve">
<path fill="#000000" opacity="1.000000" stroke="none" 
	d="
M233.918518,78.995987 
	C232.712585,79.280006 231.891449,79.630684 231.087418,79.595032 
	C228.375732,79.474815 225.053101,84.136314 223.069122,79.293404 
	C220.783340,73.713821 223.175797,68.276932 227.947235,66.733154 
	C243.024750,61.854889 258.304169,61.042984 273.619141,65.348206 
	C290.880768,70.200676 301.955505,85.101425 302.371429,103.089584 
	C302.569427,111.652519 302.080475,120.049477 298.762695,128.063354 
	C290.872681,147.121231 274.110077,153.793472 256.186859,152.946701 
	C239.347687,152.151169 226.518555,144.804352 220.790726,127.914635 
	C218.618958,121.510727 218.581070,114.857475 218.644821,108.179146 
	C218.677673,104.735184 220.795639,104.674332 223.282196,104.561760 
	C242.416916,103.695511 261.557526,104.147423 280.696594,104.236633 
	C281.657745,104.241112 282.618958,104.237206 283.536285,104.237206 
	C284.908844,94.382492 279.729370,84.603561 270.901184,80.093056 
	C260.661407,74.861351 249.923553,75.984604 239.159225,77.723602 
	C237.523315,77.987900 235.926208,78.492279 233.918518,78.995987 
M254.501907,117.245270 
	C250.018433,117.249733 245.533051,117.336098 241.052155,117.230522 
	C237.948318,117.157387 236.836121,118.555672 237.292328,121.505455 
	C238.310608,128.089355 241.308945,133.461365 247.162659,136.859711 
	C261.179321,144.996994 279.251282,137.207336 283.204193,121.520653 
	C284.010773,118.319839 283.013275,117.223244 279.911041,117.241364 
	C271.774628,117.288879 263.637726,117.250114 254.501907,117.245270 
z"/>
<path fill="#000000" opacity="1.000000" stroke="none" 
	d="
M345.618195,326.789032 
	C340.700165,330.088013 336.094238,329.756866 331.990448,326.351135 
	C328.619873,323.553894 327.016205,319.769348 328.312347,315.243713 
	C329.669189,310.506134 333.717407,306.940033 338.250275,306.787537 
	C343.146820,306.622772 346.919495,308.700256 349.135529,313.175507 
	C351.413208,317.775238 350.429321,321.714325 345.618195,326.789032 
z"/>
<path fill="#000000" opacity="1.000000" stroke="none" 
	d="
M267.544312,369.929077 
	C268.908478,376.951111 265.957855,382.535980 260.380188,384.145569 
	C254.962967,385.708862 249.341049,383.254395 246.974060,378.292633 
	C244.528671,373.166534 246.369858,367.192566 251.363525,364.050446 
	C257.149170,360.409973 263.733795,362.667847 267.544312,369.929077 
z"/>
<path fill="#000000" opacity="1.000000" stroke="none" 
	d="
M201.178101,212.729233 
	C204.977203,216.951736 206.309326,221.326309 203.607681,226.239471 
	C201.315033,230.408859 197.639526,232.587082 192.901443,232.148315 
	C187.965240,231.691238 184.596375,228.852249 183.182251,224.040146 
	C181.805984,219.356842 183.348404,215.451767 187.042664,212.487869 
	C191.578110,208.849030 196.266006,209.409851 201.178101,212.729233 
z"/>
<path fill="#000000" opacity="1.000000" stroke="none" 
	d="
M326.083008,211.640900 
	C331.324799,216.274139 332.646454,220.794495 330.421112,225.479187 
	C328.207916,230.138260 323.331299,232.879730 318.654663,232.093948 
	C313.512390,231.229919 310.112823,227.623642 309.267792,222.432068 
	C307.988068,214.570297 317.671906,206.287491 326.083008,211.640900 
z"/>
<path fill="#000000" opacity="1.000000" stroke="none" 
	d="
M185.203339,246.220840 
	C187.237091,253.205093 184.530228,259.117401 178.667130,261.179138 
	C173.058060,263.151550 166.971741,260.333496 164.746475,254.733658 
	C162.568008,249.251617 165.086823,243.224960 170.656113,240.593918 
	C175.888931,238.121841 181.061920,240.009308 185.203339,246.220840 
z"/>
<path fill="#000000" opacity="1.000000" stroke="none" 
	d="
M334.272339,240.778244 
	C342.077393,238.377762 348.129761,241.372177 349.918762,248.161255 
	C351.402832,253.793121 347.438080,260.086639 341.540222,261.461060 
	C335.327789,262.908813 329.292206,259.078552 328.137482,252.671417 
	C327.201660,247.478958 329.576599,243.676041 334.272339,240.778244 
z"/>
<path fill="#000000" opacity="1.000000" stroke="none" 
	d="
M173.170349,274.543518 
	C178.587585,278.718353 180.163925,282.855652 178.425613,287.601288 
	C176.590164,292.612122 172.422318,295.527832 167.399033,295.315186 
	C162.552353,295.109985 158.532440,291.943115 157.145569,287.207977 
	C155.951721,283.131805 157.075241,279.583954 159.937790,276.642731 
	C163.632980,272.845886 168.069214,272.525238 173.170349,274.543518 
z"/>
<path fill="#000000" opacity="1.000000" stroke="none" 
	d="
M338.117737,291.854736 
	C334.819214,287.436157 334.058533,283.092529 336.879700,278.566559 
	C339.288818,274.701721 342.764191,272.876648 347.411896,273.419281 
	C351.995239,273.954437 355.129028,276.308594 356.728821,280.618896 
	C358.369415,285.039154 356.780212,290.177826 352.955475,293.108368 
	C348.572327,296.466797 343.799133,296.151520 338.117737,291.854736 
z"/>
<path fill="#000000" opacity="1.000000" stroke="none" 
	d="
M168.374771,309.194824 
	C173.029480,305.793671 177.467163,306.034546 181.668015,309.032349 
	C185.179764,311.538452 186.821609,315.224426 186.060318,319.508240 
	C185.239471,324.127014 182.411270,327.249084 177.815582,328.613831 
	C173.435898,329.914459 168.259598,327.846191 165.739700,323.783356 
	C162.661285,318.820068 163.338135,314.642151 168.374771,309.194824 
z"/>
<path fill="#000000" opacity="1.000000" stroke="none" 
	d="
M279.776001,368.571167 
	C279.669067,360.403412 283.878754,355.294922 290.373962,355.228546 
	C295.767365,355.173431 300.232208,358.585449 301.325745,363.597870 
	C302.571167,369.306396 299.981415,374.434082 294.742004,376.633728 
	C290.011444,378.619781 284.604553,376.996552 281.540161,372.555115 
	C280.800568,371.483154 280.390045,370.184174 279.776001,368.571167 
z"/>
<path fill="#000000" opacity="1.000000" stroke="none" 
	d="
M279.787781,204.566147 
	C279.673248,196.588257 283.557587,191.665695 289.865326,191.307281 
	C295.265625,191.000443 300.002563,194.250824 301.210327,199.091980 
	C302.634613,204.800980 300.305969,209.931747 295.180328,212.378143 
	C290.379242,214.669647 284.737579,213.123657 281.562225,208.538834 
	C280.821777,207.469711 280.407684,206.174545 279.787781,204.566147 
z"/>
<path fill="#000000" opacity="1.000000" stroke="none" 
	d="
M258.510193,184.181183 
	C263.777496,185.285049 266.922180,188.164032 267.981903,193.050949 
	C268.874725,197.168076 267.313110,200.603226 264.324799,203.337967 
	C260.433533,206.899063 255.517426,207.150543 251.005798,204.242157 
	C247.112946,201.732681 245.048752,196.707626 246.222610,192.597977 
	C247.801132,187.071426 251.766586,184.234131 258.510193,184.181183 
z"/>
<path fill="#000000" opacity="1.000000" stroke="none" 
	d="
M309.147644,346.329224 
	C311.102875,339.601501 314.385223,336.746948 319.902374,336.646301 
	C325.247620,336.548767 328.860840,338.958344 330.659973,343.820374 
	C332.764740,349.508209 329.671295,356.049713 323.951263,358.006897 
	C318.196594,359.975891 311.651550,356.840881 309.793060,351.115417 
	C309.339935,349.719482 309.306763,348.187256 309.147644,346.329224 
z"/>
<path fill="#000000" opacity="1.000000" stroke="none" 
	d="
M213.089996,370.227539 
	C212.059326,360.673737 216.607895,354.644623 223.939728,355.252411 
	C229.438797,355.708252 233.610504,359.368439 234.292984,364.336182 
	C235.071472,370.002960 231.968811,375.254822 226.851852,376.931671 
	C221.615463,378.647675 216.605148,376.322998 213.089996,370.227539 
z"/>
<path fill="#000000" opacity="1.000000" stroke="none" 
	d="
M234.346771,202.049286 
	C233.646774,209.351044 229.375778,213.473633 223.134445,213.301376 
	C217.159622,213.136475 212.786972,208.770691 212.642395,202.825790 
	C212.494064,196.726974 216.555771,191.806778 222.123322,191.340912 
	C228.753906,190.786087 233.310211,194.620316 234.346771,202.049286 
z"/>
<path fill="#000000" opacity="1.000000" stroke="none" 
	d="
M187.711273,356.646942 
	C182.609787,351.895020 181.530502,347.610809 183.928970,342.725098 
	C186.175705,338.148468 190.619537,335.924347 195.900604,336.733276 
	C200.586807,337.451111 204.107147,341.043671 204.891571,346.097626 
	C205.539642,350.273102 203.773026,353.589905 200.630112,356.112335 
	C196.685974,359.277893 192.386429,359.054657 187.711273,356.646942 
z"/>
</svg>