<svg version="1.1" id="Layer_1" xmlns="http://www.w3.org/2000/svg" xmlns:xlink="http://www.w3.org/1999/xlink" x="0px" y="0px"
	 width="100%" viewBox="0 0 512 512" enable-background="new 0 0 512 512" xml:space="preserve">
<path fill="#000000" opacity="1.000000" stroke="none" 
	d="
M250.633514,47.021385 
	C254.114258,34.575684 262.999878,29.226746 274.579498,27.863115 
	C282.012604,26.987787 289.492371,27.644136 296.852020,29.505632 
	C299.938660,30.286345 300.713531,31.603130 299.564758,34.424931 
	C298.938690,35.962849 298.380554,37.543892 297.970734,39.151119 
	C297.126068,42.463497 295.147339,43.265198 292.007690,42.289429 
	C287.825836,40.989758 283.499176,40.888557 279.157593,41.100883 
	C273.477844,41.378647 269.760193,44.354244 268.176453,49.672970 
	C266.857391,54.102886 265.854309,58.662563 266.716125,63.816509 
	C272.621857,65.169044 278.586945,63.745319 284.478912,64.088898 
	C288.680176,64.333885 290.779327,65.481606 290.476074,70.267334 
	C290.073029,76.628670 290.219025,76.876610 283.576263,76.859589 
	C279.751190,76.849785 275.927185,76.621391 272.101654,76.542549 
	C268.133240,76.460770 266.220032,77.872215 266.269623,82.415337 
	C266.494934,103.056511 266.368317,123.701569 266.359589,144.345230 
	C266.356628,151.340729 266.344604,151.397568 259.150452,151.354553 
	C247.949158,151.287582 248.871323,152.710999 248.854858,141.323196 
	C248.826965,122.011421 248.848587,102.699577 248.826981,83.387787 
	C248.820023,77.165062 248.180801,76.525131 242.050720,76.501007 
	C240.390121,76.494469 238.725571,76.778671 237.068604,76.730614 
	C234.697250,76.661850 232.207352,76.570763 232.126938,73.217949 
	C232.064041,70.595749 232.240479,68.105942 235.574265,67.527702 
	C235.898575,67.471451 236.202148,67.255196 236.524063,67.231430 
	C246.795593,66.473099 250.620789,60.573738 249.777130,50.806919 
	C249.682404,49.710381 250.278610,48.554153 250.633514,47.021385 
z"/>
<path fill="#000000" opacity="1.000000" stroke="none" 
	d="
M344.297058,327.612244 
	C336.665314,330.366486 330.640656,327.723450 328.430176,321.003571 
	C326.601074,315.442963 330.009277,309.131836 335.876221,307.215302 
	C341.482758,305.383850 347.769043,308.743195 349.718109,314.612335 
	C351.276337,319.304596 349.536591,323.676483 344.297058,327.612244 
z"/>
<path fill="#000000" opacity="1.000000" stroke="none" 
	d="
M253.670013,362.923981 
	C263.763000,362.284546 269.889313,368.036407 267.971588,375.860931 
	C266.792969,380.670013 262.903442,384.085693 258.231293,384.414612 
	C252.783340,384.798126 248.657837,382.380371 246.719467,377.668152 
	C244.791183,372.980499 246.098709,368.206665 250.313370,364.840851 
	C251.207870,364.126526 252.277527,363.631592 253.670013,362.923981 
z"/>
<path fill="#000000" opacity="1.000000" stroke="none" 
	d="
M205.084778,221.055084 
	C204.345001,227.239334 201.156296,231.021622 195.438416,232.075546 
	C190.964813,232.900162 187.190033,231.051849 184.671417,227.256775 
	C182.169083,223.486252 181.868225,219.461349 184.356094,215.498276 
	C186.655045,211.836121 190.038956,209.657257 194.345795,210.034180 
	C198.890274,210.431885 202.649078,212.515640 204.194611,217.269699 
	C204.554062,218.375397 204.778809,219.524872 205.084778,221.055084 
z"/>
<path fill="#000000" opacity="1.000000" stroke="none" 
	d="
M312.378052,213.386719 
	C316.707642,209.521683 321.174774,208.859756 325.902557,211.568954 
	C329.858643,213.835922 331.628113,217.441177 331.296814,221.969147 
	C330.960602,226.564255 328.294678,229.569534 324.247803,231.378784 
	C319.975525,233.288803 314.615753,231.857498 311.705048,228.200775 
	C308.200409,223.797897 308.326752,219.209000 312.378052,213.386719 
z"/>
<path fill="#000000" opacity="1.000000" stroke="none" 
	d="
M164.050003,252.555634 
	C164.154236,245.694412 167.104477,241.321732 172.208298,239.931152 
	C176.711639,238.704147 181.872589,240.730240 184.405151,244.719391 
	C187.872391,250.180801 186.208267,256.871063 180.543091,260.246002 
	C175.267227,263.389008 168.528931,261.604858 165.434067,256.184265 
	C164.864014,255.185837 164.566971,254.031555 164.050003,252.555634 
z"/>
<path fill="#000000" opacity="1.000000" stroke="none" 
	d="
M348.577393,256.252930 
	C344.240997,261.519562 340.490509,262.884430 335.308777,261.103973 
	C330.712097,259.524567 328.233643,255.983368 327.954010,251.335861 
	C327.671143,246.634933 330.014740,242.986191 334.246002,240.814392 
	C338.571350,238.594330 342.715759,239.388596 346.366241,242.332794 
	C350.272949,245.483627 351.010437,250.260635 348.577393,256.252930 
z"/>
<path fill="#000000" opacity="1.000000" stroke="none" 
	d="
M170.465210,295.135864 
	C164.948151,295.834351 160.793472,294.229523 158.199402,289.659943 
	C156.064972,285.900024 156.021347,282.031494 158.571213,278.350311 
	C161.425125,274.230225 165.286331,272.620148 170.252548,273.602539 
	C175.093674,274.560211 177.750748,277.612732 178.768234,282.261841 
	C179.829391,287.110626 177.659164,290.640533 173.951126,293.429230 
	C173.035202,294.118073 171.903412,294.519836 170.465210,295.135864 
z"/>
<path fill="#000000" opacity="1.000000" stroke="none" 
	d="
M355.574768,290.240662 
	C352.123505,295.077820 347.705414,296.376770 342.599030,294.759369 
	C337.997009,293.301758 335.591888,289.668243 335.221100,285.001770 
	C334.862061,280.483215 336.940491,276.944611 340.882263,274.650513 
	C344.911835,272.305267 350.405304,273.009552 353.879425,276.206757 
	C357.665558,279.691101 358.288239,284.140320 355.574768,290.240662 
z"/>
<path fill="#000000" opacity="1.000000" stroke="none" 
	d="
M186.219818,318.780426 
	C185.045761,324.678741 181.724731,328.228241 176.206177,328.940338 
	C171.788147,329.510437 168.071472,327.589752 165.670395,323.652100 
	C162.125504,317.838715 164.379669,310.764832 170.699936,307.741852 
	C176.278763,305.073517 183.105057,307.947479 185.370956,314.020447 
	C185.882492,315.391418 185.972748,316.919525 186.219818,318.780426 
z"/>
<path fill="#000000" opacity="1.000000" stroke="none" 
	d="
M253.861359,184.504089 
	C261.675476,183.389114 267.192902,187.114822 268.167816,193.780609 
	C268.959198,199.191208 264.424774,205.190506 258.822601,206.144913 
	C253.185898,207.105194 247.143341,202.686356 246.031021,196.790619 
	C245.116165,191.941467 247.735825,187.671783 253.861359,184.504089 
z"/>
<path fill="#000000" opacity="1.000000" stroke="none" 
	d="
M293.211365,191.643005 
	C299.532654,194.078720 302.142273,197.760941 301.634125,203.311935 
	C301.172180,208.358383 298.192352,211.538116 293.536743,213.007858 
	C288.972198,214.448837 284.031006,212.446487 281.369171,208.310898 
	C279.010040,204.645599 278.840912,200.725967 281.017181,196.984360 
	C283.623108,192.504074 287.622528,190.608231 293.211365,191.643005 
z"/>
<path fill="#000000" opacity="1.000000" stroke="none" 
	d="
M330.791565,351.177734 
	C327.082489,359.922394 317.904724,359.647247 313.546051,356.347839 
	C308.527710,352.549072 307.645111,345.308228 311.699402,340.413330 
	C314.698425,336.792511 320.427765,335.510284 324.902100,337.458588 
	C329.732117,339.561768 331.747009,344.001495 330.791565,351.177734 
z"/>
<path fill="#000000" opacity="1.000000" stroke="none" 
	d="
M301.575012,365.326477 
	C301.086395,372.565460 297.766876,376.630310 292.192596,377.278107 
	C286.777832,377.907379 281.570465,374.701263 280.031219,369.790497 
	C278.418823,364.646179 280.660858,359.204254 285.467529,356.595581 
	C292.337494,352.867096 299.753784,356.729187 301.575012,365.326477 
z"/>
<path fill="#000000" opacity="1.000000" stroke="none" 
	d="
M213.339691,197.981842 
	C217.179443,191.941269 220.831116,190.205963 226.314438,191.724762 
	C230.894775,192.993454 233.767960,195.931839 234.307419,200.770737 
	C234.893433,206.027283 232.437561,210.442047 227.790421,212.460297 
	C223.783508,214.200485 219.960358,213.529999 216.563019,210.924805 
	C212.284653,207.644012 212.000473,203.160873 213.339691,197.981842 
z"/>
<path fill="#000000" opacity="1.000000" stroke="none" 
	d="
M215.149017,373.721863 
	C211.712128,368.812103 211.549225,364.074677 214.829269,359.552673 
	C217.639313,355.678680 221.610077,354.439362 226.289963,355.680542 
	C230.532349,356.805695 233.308502,359.510345 234.177261,363.762329 
	C235.065033,368.107300 234.003326,372.042999 230.365112,374.915131 
	C226.780411,377.744934 222.829361,378.189667 218.704193,376.225708 
	C217.524307,375.663940 216.505142,374.764618 215.149017,373.721863 
z"/>
<path fill="#000000" opacity="1.000000" stroke="none" 
	d="
M203.342926,353.081116 
	C200.028473,357.972900 195.659683,359.380737 190.527527,357.923920 
	C185.931137,356.619171 183.284683,353.214050 182.835739,348.511780 
	C182.385101,343.791748 184.517120,340.157928 188.652390,337.809875 
	C192.550003,335.596771 198.163040,336.386719 201.605209,339.543701 
	C205.020233,342.675781 205.702713,347.320923 203.342926,353.081116 
z"/>
</svg>