<svg version="1.1" id="Layer_1" xmlns="http://www.w3.org/2000/svg" xmlns:xlink="http://www.w3.org/1999/xlink" x="0px" y="0px"
	 width="100%" viewBox="0 0 512 512" enable-background="new 0 0 512 512" xml:space="preserve">
<path fill="#000000" opacity="1.000000" stroke="none" 
	d="
M217.371521,94.670898 
	C221.910980,75.631645 233.872711,65.735550 255.298782,63.003872 
	C274.903076,60.504456 292.883698,68.541565 301.067535,83.840385 
	C310.410187,101.305489 308.899017,132.004593 289.888611,144.561234 
	C273.190613,155.590500 255.245544,155.786606 237.114716,147.680054 
	C235.914474,147.143402 234.773224,146.474823 233.374496,145.748093 
	C229.958878,149.613174 228.269150,154.341751 225.890259,158.646118 
	C223.394745,163.161484 220.996918,167.731232 218.585480,172.292572 
	C214.791214,179.469589 212.990189,180.169296 204.653580,177.610626 
	C204.151749,175.753540 205.470154,174.496628 206.221176,173.077194 
	C211.825668,162.484848 217.416946,151.884995 223.116272,141.343689 
	C224.405228,138.959656 224.735199,137.047226 223.187302,134.467010 
	C215.826599,122.197449 214.144714,108.968643 217.371521,94.670898 
M282.316925,85.238213 
	C274.329376,75.745605 263.855499,74.825241 252.759964,77.142036 
	C241.661316,79.459480 236.723083,87.589226 234.752502,97.976830 
	C233.659302,103.739418 233.957581,109.596634 234.410095,115.385803 
	C235.386948,127.883263 243.367874,137.118454 254.801315,139.400146 
	C267.162964,141.867050 279.587860,137.077576 284.309723,126.860970 
	C290.656097,113.129395 290.700653,99.220772 282.316925,85.238213 
z"/>
<path fill="#000000" opacity="1.000000" stroke="none" 
	d="
M328.220398,320.349304 
	C327.722107,312.818878 331.741516,307.417175 337.916260,306.779144 
	C343.623444,306.189362 349.165375,310.430328 350.142670,316.135376 
	C351.078094,321.596130 347.092590,327.325134 341.355194,328.767059 
	C335.992432,330.114838 331.176971,327.141449 328.220398,320.349304 
z"/>
<path fill="#000000" opacity="1.000000" stroke="none" 
	d="
M247.913971,379.894348 
	C243.144928,372.932800 247.426239,365.283478 253.276062,363.079071 
	C259.462219,360.747925 266.029327,364.319641 267.851868,370.757507 
	C269.167053,375.403351 266.924225,380.613556 262.534271,383.110291 
	C257.913269,385.738373 252.755096,384.704163 247.913971,379.894348 
z"/>
<path fill="#000000" opacity="1.000000" stroke="none" 
	d="
M185.052887,322.619446 
	C181.293976,328.035248 177.346558,329.899231 172.739120,328.710602 
	C167.727905,327.417786 163.993515,323.308777 163.924591,318.474152 
	C163.854095,313.528290 166.304398,309.899445 170.749298,307.746216 
	C175.002274,305.685974 179.037964,306.660187 182.349915,309.602753 
	C186.169250,312.996094 187.358154,317.340088 185.052887,322.619446 
z"/>
<path fill="#000000" opacity="1.000000" stroke="none" 
	d="
M342.212708,273.962189 
	C349.197083,272.626465 353.714447,274.447906 356.168457,279.308594 
	C358.411255,283.750885 357.389160,289.175720 353.677155,292.531555 
	C348.983826,296.774567 341.566742,296.210205 337.687500,291.314911 
	C333.086609,285.508942 334.748596,278.652832 342.212708,273.962189 
z"/>
<path fill="#000000" opacity="1.000000" stroke="none" 
	d="
M157.927765,279.361389 
	C162.427719,270.875946 174.185715,271.869293 177.766052,279.142700 
	C179.926575,283.531738 179.247910,288.595703 175.735306,292.019897 
	C172.173920,295.491669 167.982559,296.392303 163.348419,294.333923 
	C158.873871,292.346436 156.283600,287.905701 156.791718,283.047638 
	C156.910202,281.914795 157.414764,280.822327 157.927765,279.361389 
z"/>
<path fill="#000000" opacity="1.000000" stroke="none" 
	d="
M332.915253,241.613113 
	C339.499481,238.349503 345.296844,239.671082 348.497437,244.870377 
	C351.694550,250.063980 350.340271,256.253937 345.231415,259.798523 
	C340.497589,263.082916 334.042084,262.163910 330.443481,257.693329 
	C326.387268,252.654266 327.133240,247.133301 332.915253,241.613113 
z"/>
<path fill="#000000" opacity="1.000000" stroke="none" 
	d="
M169.823761,260.486023 
	C164.199905,256.113678 162.737961,252.037872 164.693924,246.965530 
	C166.477951,242.339035 170.717560,239.488052 175.513916,239.689468 
	C180.594910,239.902847 184.601532,243.178497 185.919144,248.224686 
	C187.002991,252.375763 185.509766,255.857010 182.645844,258.654877 
	C179.059402,262.158630 174.736404,262.530151 169.823761,260.486023 
z"/>
<path fill="#000000" opacity="1.000000" stroke="none" 
	d="
M310.127136,225.544128 
	C308.291107,220.036331 309.410278,215.719894 313.747314,212.314911 
	C317.628601,209.267715 321.737183,209.250809 325.855164,211.572357 
	C329.852631,213.825974 331.576447,217.460159 331.303314,222.010986 
	C331.034210,226.494354 327.320587,230.762955 322.743774,231.949081 
	C318.153503,233.138702 313.592957,230.923187 310.127136,225.544128 
z"/>
<path fill="#000000" opacity="1.000000" stroke="none" 
	d="
M202.764496,214.429443 
	C206.581940,222.580261 204.527084,228.790863 197.442871,231.509903 
	C191.582764,233.759125 185.173935,230.462158 183.225754,224.196014 
	C181.749863,219.448990 183.720016,214.432693 188.129181,211.711227 
	C192.901550,208.765579 197.442429,209.523132 202.764496,214.429443 
z"/>
<path fill="#000000" opacity="1.000000" stroke="none" 
	d="
M280.527344,370.909729 
	C277.213837,361.164673 284.518250,355.351410 290.389771,355.243866 
	C295.576416,355.148895 300.020874,358.423981 301.241852,363.130554 
	C302.611664,368.410706 300.627930,373.291412 296.034210,375.943329 
	C291.646027,378.476532 286.469696,377.776154 282.775940,374.062561 
	C281.967651,373.249878 281.386475,372.211273 280.527344,370.909729 
z"/>
<path fill="#000000" opacity="1.000000" stroke="none" 
	d="
M280.928772,207.618668 
	C278.157104,199.459290 281.472076,192.807495 288.581177,191.509949 
	C293.834686,190.551071 298.942780,193.202255 300.819061,197.861633 
	C302.763733,202.690735 301.214417,208.291458 297.129150,211.200211 
	C292.716064,214.342392 287.454926,214.140762 283.396484,210.592499 
	C282.535065,209.839355 281.879211,208.851059 280.928772,207.618668 
z"/>
<path fill="#000000" opacity="1.000000" stroke="none" 
	d="
M267.584961,191.847092 
	C268.853516,199.207031 265.298126,204.807831 258.938232,206.076813 
	C253.574615,207.147003 247.674500,203.109589 246.219177,197.373199 
	C244.831787,191.904602 248.462555,186.077866 254.321487,184.370377 
	C259.507599,182.858978 264.659424,185.646912 267.584961,191.847092 
z"/>
<path fill="#000000" opacity="1.000000" stroke="none" 
	d="
M312.031067,354.919617 
	C308.218475,349.042206 308.203430,344.654510 311.728638,340.460297 
	C314.855591,336.739990 320.366333,335.487823 324.899353,337.467560 
	C329.215485,339.352661 331.831329,343.921051 331.277313,348.845215 
	C330.808533,353.011749 328.422485,356.015839 324.701843,357.581757 
	C320.194824,359.478729 315.913239,358.664886 312.031067,354.919617 
z"/>
<path fill="#000000" opacity="1.000000" stroke="none" 
	d="
M228.979889,356.754822 
	C235.104248,361.690735 236.188034,367.762451 232.198120,372.993988 
	C228.536469,377.795135 222.260147,378.770996 217.124908,375.337646 
	C212.591522,372.306671 211.135117,366.187927 213.757004,361.188171 
	C216.697327,355.581177 221.475601,354.102631 228.979889,356.754822 
z"/>
<path fill="#000000" opacity="1.000000" stroke="none" 
	d="
M230.572693,210.688599 
	C223.850998,214.814377 217.588760,213.762711 214.123810,208.229645 
	C211.009064,203.255814 212.428696,196.587219 217.333817,193.150787 
	C221.454514,190.263916 228.023590,190.984879 231.546356,194.710648 
	C235.576019,198.972519 235.323166,204.891693 230.572693,210.688599 
z"/>
<path fill="#000000" opacity="1.000000" stroke="none" 
	d="
M201.945267,354.958313 
	C195.315262,360.030212 188.070618,359.218536 184.463959,353.314117 
	C181.002945,347.648224 182.989014,340.700470 188.944824,337.638794 
	C193.135101,335.484802 198.912903,336.589874 202.165634,340.167480 
	C205.844360,344.213623 205.859421,349.041168 201.945267,354.958313 
z"/>
</svg>