<svg version="1.1" id="Layer_1" xmlns="http://www.w3.org/2000/svg" xmlns:xlink="http://www.w3.org/1999/xlink" x="0px" y="0px"
	 width="100%" viewBox="0 0 512 512" enable-background="new 0 0 512 512" xml:space="preserve">
<path fill="#000000" opacity="1.000000" stroke="none" 
	d="
M285.531616,1.000000 
	C290.372742,4.644986 287.634949,9.197193 288.215942,13.827053 
	C285.426697,13.487940 283.304871,13.249055 281.188446,12.969180 
	C274.001709,12.018817 270.403046,14.649437 269.502502,21.780293 
	C269.191223,24.245270 269.309509,26.770187 269.308319,29.267761 
	C269.293030,60.922745 269.294006,92.577736 269.282288,124.232719 
	C269.281433,126.564621 269.323853,128.904114 269.161713,131.227203 
	C267.881683,149.567108 254.149551,158.769913 236.545746,153.190582 
	C231.105103,151.466263 232.903198,147.078232 233.095276,143.574463 
	C233.323059,139.419113 236.398956,141.070236 238.746414,141.442993 
	C247.198456,142.785095 250.768387,140.271790 252.276367,131.756668 
	C252.650192,129.645767 252.637100,127.449333 252.638657,125.292099 
	C252.663239,91.471260 252.643280,57.650379 252.676041,23.829554 
	C252.685593,13.963555 255.936966,5.880499 265.748932,1.225174 
	C272.354401,1.000000 278.708801,1.000000 285.531616,1.000000 
z"/>
<path fill="#000000" opacity="1.000000" stroke="none" 
	d="
M248.117554,372.481628 
	C244.844528,364.040192 248.831772,356.609863 256.381622,356.346283 
	C261.309906,356.174194 265.649323,358.872528 267.036682,362.971741 
	C268.668793,367.794128 267.232574,372.518311 263.258057,375.401367 
	C259.377228,378.216400 254.320023,378.095551 250.330292,375.012115 
	C249.559860,374.416748 248.988495,373.563751 248.117554,372.481628 
z"/>
<path fill="#000000" opacity="1.000000" stroke="none" 
	d="
M181.947113,277.440063 
	C185.232910,283.452942 180.816696,290.708710 175.510330,292.251038 
	C169.737411,293.929016 164.023193,290.775757 162.221893,284.901062 
	C160.788437,280.226044 163.014542,275.105988 167.521820,272.711212 
	C172.380508,270.129700 177.695892,271.757874 181.947113,277.440063 
z"/>
<path fill="#000000" opacity="1.000000" stroke="none" 
	d="
M248.281586,191.620102 
	C253.115997,186.565048 256.918915,185.557449 261.740021,187.858749 
	C266.202728,189.988983 267.817657,193.668060 267.434845,198.442886 
	C267.038025,203.392303 264.139984,206.275421 259.634888,207.585846 
	C255.610596,208.756409 251.978607,207.506165 249.327499,204.411316 
	C246.128021,200.676315 245.654221,196.389374 248.281586,191.620102 
z"/>
<path fill="#000000" opacity="1.000000" stroke="none" 
	d="
M325.137268,349.067810 
	C318.706146,354.082520 312.177185,353.600861 308.475952,348.154266 
	C305.066254,343.136749 306.359131,336.702423 311.458099,333.312378 
	C315.472229,330.643616 321.310272,331.240631 324.731201,334.669708 
	C328.317444,338.264496 328.554962,343.507385 325.137268,349.067810 
z"/>
<path fill="#000000" opacity="1.000000" stroke="none" 
	d="
M168.889114,252.471954 
	C168.651566,244.712631 172.424988,239.948318 178.609741,239.686707 
	C184.638214,239.431702 189.082230,243.315445 189.686951,249.367371 
	C190.169067,254.192261 186.928711,258.909485 182.174301,260.304108 
	C176.472488,261.976654 171.956268,259.434723 168.889114,252.471954 
z"/>
<path fill="#000000" opacity="1.000000" stroke="none" 
	d="
M214.769440,202.359192 
	C217.207596,196.028366 220.675110,193.358871 225.764389,193.729782 
	C230.534256,194.077423 233.913208,196.493088 235.220810,201.154907 
	C236.434204,205.480835 235.461533,209.358246 231.842422,212.314117 
	C228.443756,215.089966 224.625427,215.716110 220.717758,213.783752 
	C216.257904,211.578339 214.309647,207.756836 214.769440,202.359192 
z"/>
<path fill="#000000" opacity="1.000000" stroke="none" 
	d="
M352.265625,280.338196 
	C352.165497,288.526031 347.710724,293.156921 340.959686,292.550354 
	C334.594849,291.978424 330.731964,286.991791 331.562805,280.419830 
	C332.141785,275.839996 335.791718,272.244507 340.399109,271.715271 
	C346.096954,271.060791 349.839569,273.656555 352.265625,280.338196 
z"/>
<path fill="#000000" opacity="1.000000" stroke="none" 
	d="
M309.149017,215.268097 
	C315.392609,210.200317 322.211578,210.669937 325.912781,216.103897 
	C329.261475,221.020279 327.832825,227.739304 322.749542,230.980865 
	C318.809174,233.493576 313.213928,232.921066 309.832275,229.659103 
	C306.003204,225.965546 305.677704,221.092987 309.149017,215.268097 
z"/>
<path fill="#000000" opacity="1.000000" stroke="none" 
	d="
M278.734375,202.381836 
	C281.242157,195.657471 285.210175,192.945969 290.720612,193.796570 
	C295.820160,194.583740 299.217651,198.528061 299.349701,203.814484 
	C299.498138,209.757492 295.221954,214.571030 289.524841,214.873993 
	C283.917694,215.172165 279.108124,210.712265 278.680359,204.798080 
	C278.632507,204.136398 278.689514,203.467133 278.734375,202.381836 
z"/>
<path fill="#000000" opacity="1.000000" stroke="none" 
	d="
M329.181427,258.997650 
	C324.212982,254.092819 323.274628,249.063232 326.196930,244.502548 
	C328.909424,240.269272 334.250031,238.528244 338.897919,240.362152 
	C344.408600,242.536453 347.071991,249.040924 344.682373,254.488968 
	C342.162476,260.234192 336.279114,262.064728 329.181427,258.997650 
z"/>
<path fill="#000000" opacity="1.000000" stroke="none" 
	d="
M205.448975,335.656738 
	C208.336029,341.183685 208.050583,345.871094 204.875519,349.287231 
	C201.732468,352.668915 196.682617,353.765106 192.592972,351.716095 
	C188.092911,349.461487 186.203308,345.630859 186.719620,340.678406 
	C187.159500,336.459137 189.714584,333.604828 193.503403,332.252136 
	C197.925354,330.673401 201.975143,331.794464 205.448975,335.656738 
z"/>
<path fill="#000000" opacity="1.000000" stroke="none" 
	d="
M235.272842,356.991089 
	C236.130783,363.947052 233.325699,368.893921 228.053452,370.217194 
	C222.719391,371.556000 217.428101,368.947754 215.422394,363.990875 
	C213.391327,358.971283 215.356277,353.485321 220.153564,350.781860 
	C225.701309,347.655396 231.809677,350.017548 235.272842,356.991089 
z"/>
<path fill="#000000" opacity="1.000000" stroke="none" 
	d="
M183.149475,323.816284 
	C178.052002,325.010162 173.750900,324.461609 170.722855,320.249817 
	C168.308945,316.892212 167.825119,313.161896 169.762512,309.418243 
	C172.091965,304.916992 175.943192,303.015167 180.931671,303.759399 
	C185.275177,304.407410 188.186386,306.871368 189.297394,311.224060 
	C190.673141,316.613892 189.087036,319.997070 183.149475,323.816284 
z"/>
<path fill="#000000" opacity="1.000000" stroke="none" 
	d="
M206.836334,226.150574 
	C203.081406,231.878296 199.379227,233.663696 194.125320,232.201279 
	C189.887527,231.021698 187.364731,228.035980 186.758057,223.687149 
	C186.059174,218.677368 188.069901,214.836838 192.577805,212.596802 
	C196.100037,210.846588 199.713028,211.235138 203.004593,213.389542 
	C207.626007,216.414383 207.946823,220.912048 206.836334,226.150574 
z"/>
<path fill="#000000" opacity="1.000000" stroke="none" 
	d="
M292.684631,369.948822 
	C284.423187,371.083801 279.359070,367.869934 278.701569,361.447723 
	C278.167755,356.233429 281.078156,351.374023 285.580688,349.961884 
	C290.541107,348.406189 296.190643,350.677948 298.434601,355.130646 
	C300.761505,359.747864 299.458801,365.163330 295.174652,368.515778 
	C294.524963,369.024261 293.751740,369.374908 292.684631,369.948822 
z"/>
<path fill="#000000" opacity="1.000000" stroke="none" 
	d="
M327.574585,306.582703 
	C332.795135,302.871155 338.292999,302.765137 342.047180,306.022644 
	C345.209351,308.766510 346.410706,314.526337 344.634491,318.427917 
	C342.688354,322.702789 338.056610,325.083038 333.078857,324.366272 
	C325.169525,323.227448 322.298096,314.543518 327.574585,306.582703 
z"/>
</svg>