<svg version="1.1" id="Layer_1" xmlns="http://www.w3.org/2000/svg" xmlns:xlink="http://www.w3.org/1999/xlink" x="0px" y="0px"
	 width="100%" viewBox="0 0 512 512" enable-background="new 0 0 512 512" xml:space="preserve">
<path fill="#000000" opacity="1.000000" stroke="none" 
	d="
M250.820770,76.827377 
	C245.982391,77.817497 241.732941,79.285316 237.637634,81.146477 
	C234.994156,82.347839 233.235291,81.999115 232.203217,79.090462 
	C231.212250,76.297653 229.274475,73.860771 228.936096,70.335487 
	C236.362976,66.109314 244.601776,64.485115 252.997620,63.362171 
	C262.516907,62.088974 271.933411,62.309929 281.103760,65.482567 
	C290.907135,68.874207 296.729492,76.843834 297.360840,87.229790 
	C298.544464,106.701195 297.629486,126.189804 297.927795,145.668060 
	C297.966461,148.191315 298.473022,151.083817 294.280029,151.396957 
	C286.202057,152.000244 284.807373,151.549896 283.650909,146.766357 
	C283.193817,144.875748 282.688416,142.996811 282.232544,141.219925 
	C279.990417,141.104568 279.243378,142.629044 278.177612,143.560410 
	C266.380402,153.869980 244.691742,156.335190 230.714737,148.981583 
	C221.900345,144.344116 218.545456,136.728088 218.404953,127.194656 
	C218.267151,117.844696 222.160126,110.804230 230.290146,106.218025 
	C240.612839,100.394913 252.069977,99.378693 263.562836,98.725639 
	C267.880890,98.480278 272.224396,98.567749 276.552887,98.660957 
	C279.553864,98.725578 280.580048,97.407600 280.702362,94.464607 
	C281.221985,81.961868 273.029602,74.300262 260.123749,75.498352 
	C257.145599,75.774826 254.189774,76.292160 250.820770,76.827377 
M273.628845,133.160126 
	C279.495239,127.697998 280.668854,120.621078 280.684357,113.076263 
	C280.690308,110.175034 279.433167,109.291763 276.699768,109.485207 
	C271.217255,109.873215 265.702820,109.886612 260.237640,110.422523 
	C254.614685,110.973907 248.952316,111.725487 243.883743,114.513672 
	C238.157501,117.663635 235.339279,123.547974 236.455093,129.611359 
	C237.362381,134.541626 241.548447,138.767548 247.114914,139.525452 
	C256.442749,140.795486 265.446869,140.036591 273.628845,133.160126 
z"/>
<path fill="#000000" opacity="1.000000" stroke="none" 
	d="
M350.257935,317.930176 
	C349.538300,323.855774 346.582703,327.555145 341.133789,328.786926 
	C336.681488,329.793488 332.947113,328.065613 330.238434,324.506256 
	C327.505859,320.915466 326.992737,316.932831 329.260132,312.877319 
	C331.438354,308.981293 334.724548,306.589752 339.306793,306.783356 
	C343.761078,306.971558 347.228577,309.083282 349.131683,313.240631 
	C349.736572,314.562042 349.898682,316.086121 350.257935,317.930176 
z"/>
<path fill="#000000" opacity="1.000000" stroke="none" 
	d="
M267.548981,377.073120 
	C264.252960,383.203491 260.840332,385.159302 255.054001,384.312286 
	C250.005402,383.573212 247.134399,380.316467 246.097000,375.566681 
	C245.013626,370.606415 247.228699,366.743835 251.310287,364.162262 
	C255.283371,361.649323 259.614716,361.792084 263.440552,364.495453 
	C267.619995,367.448792 269.156738,371.626373 267.548981,377.073120 
z"/>
<path fill="#000000" opacity="1.000000" stroke="none" 
	d="
M176.577484,261.651642 
	C170.875473,261.831848 166.853363,259.841644 164.728867,254.695694 
	C163.008560,250.528748 163.964172,246.771561 166.747192,243.549515 
	C169.997299,239.786774 174.195740,238.676758 178.942261,240.359024 
	C183.429993,241.949585 186.514496,246.624863 186.251953,251.203339 
	C185.973679,256.056000 182.661072,259.750000 176.577484,261.651642 
z"/>
<path fill="#000000" opacity="1.000000" stroke="none" 
	d="
M186.218430,318.780396 
	C185.042496,324.674561 181.724121,328.195038 176.208527,328.943512 
	C171.983627,329.516846 168.381439,327.695557 165.932343,324.079529 
	C163.354767,320.273834 163.142578,316.290344 165.597961,312.357788 
	C167.864365,308.727875 171.148987,306.480316 175.527832,306.806763 
	C180.173203,307.153076 183.762344,309.394928 185.368134,314.021393 
	C185.849548,315.408356 185.970184,316.920593 186.218430,318.780396 
z"/>
<path fill="#000000" opacity="1.000000" stroke="none" 
	d="
M347.501465,273.452698 
	C354.612335,275.169128 358.170532,279.905701 357.259888,286.010193 
	C356.399994,291.774475 351.028595,295.844147 345.015045,295.287476 
	C339.413116,294.768890 334.986145,289.723999 335.113068,284.003387 
	C335.250488,277.810699 339.973846,273.629395 347.501465,273.452698 
z"/>
<path fill="#000000" opacity="1.000000" stroke="none" 
	d="
M159.954712,292.048645 
	C156.340118,287.569244 155.453293,283.120331 158.556488,278.427734 
	C161.318069,274.251678 165.213440,272.643982 170.191574,273.595184 
	C175.289917,274.569336 177.965912,277.858704 178.858734,282.693329 
	C179.709076,287.297974 177.607300,290.801666 173.991364,293.394348 
	C169.699951,296.471283 165.770279,296.087067 159.954712,292.048645 
z"/>
<path fill="#000000" opacity="1.000000" stroke="none" 
	d="
M342.838867,261.144928 
	C335.925018,262.383667 331.371979,260.420288 329.031464,255.462097 
	C326.988464,251.134140 328.003204,245.964371 331.541443,242.674652 
	C335.265106,239.212570 340.608459,238.564774 344.904510,241.305908 
	C353.128693,246.553452 351.346405,257.575195 342.838867,261.144928 
z"/>
<path fill="#000000" opacity="1.000000" stroke="none" 
	d="
M324.681793,210.926819 
	C330.553558,214.681427 332.626343,219.462341 330.872772,224.501907 
	C329.197479,229.316406 324.023224,232.725754 319.229431,232.173798 
	C313.889740,231.558990 310.105072,227.871475 309.308167,222.507187 
	C308.110840,214.447418 315.578369,208.613220 324.681793,210.926819 
z"/>
<path fill="#000000" opacity="1.000000" stroke="none" 
	d="
M189.983704,231.468704 
	C183.642822,227.818573 181.348495,222.587723 183.450546,217.292450 
	C185.399506,212.382751 190.558121,209.284378 195.312057,210.168167 
	C201.883118,211.389755 206.145309,217.182938 204.837173,223.114731 
	C203.379059,229.726456 197.625931,233.100189 189.983704,231.468704 
z"/>
<path fill="#000000" opacity="1.000000" stroke="none" 
	d="
M292.591248,377.234985 
	C286.725952,377.823334 282.662537,375.612579 280.490112,370.675293 
	C278.689117,366.582092 279.267944,362.475006 282.340210,359.053223 
	C285.533264,355.496948 289.616852,354.444336 294.134125,355.838928 
	C298.980591,357.335205 301.342957,360.932190 301.651489,365.898071 
	C301.972076,371.057343 299.171112,374.664307 292.591248,377.234985 
z"/>
<path fill="#000000" opacity="1.000000" stroke="none" 
	d="
M282.123718,195.312439 
	C286.165100,191.084351 290.652435,190.306320 295.559387,192.428635 
	C299.868744,194.292496 301.548187,197.975922 301.586823,202.461823 
	C301.626678,207.089508 299.296509,210.312973 295.242004,212.329926 
	C291.008331,214.435989 285.815399,213.361481 282.499512,209.775177 
	C278.913666,205.896881 278.703064,201.087601 282.123718,195.312439 
z"/>
<path fill="#000000" opacity="1.000000" stroke="none" 
	d="
M247.751160,200.987854 
	C243.238617,194.424347 247.842514,186.409561 253.782639,184.514771 
	C259.736084,182.615753 266.364532,186.402603 267.939697,192.821854 
	C269.057343,197.376602 266.537048,202.573517 262.073181,204.918762 
	C257.198914,207.479599 252.665268,206.326080 247.751160,200.987854 
z"/>
<path fill="#000000" opacity="1.000000" stroke="none" 
	d="
M310.643799,353.085175 
	C308.339813,346.655426 309.083710,342.347565 312.993408,339.180176 
	C316.869873,336.039703 321.245453,335.655334 325.603333,337.864441 
	C329.904907,340.045013 331.633179,343.957642 331.266571,348.652832 
	C330.906342,353.266907 328.098755,356.300293 323.983032,357.942871 
	C319.366089,359.785431 314.938538,358.114166 310.643799,353.085175 
z"/>
<path fill="#000000" opacity="1.000000" stroke="none" 
	d="
M214.655624,373.091644 
	C209.194626,364.064575 215.613464,355.210999 223.153778,355.186707 
	C228.039810,355.170929 232.605682,358.201294 233.880203,362.618256 
	C235.221252,367.265778 234.382263,371.513214 230.517593,374.792267 
	C226.792465,377.952942 221.962067,378.254272 217.578964,375.591248 
	C216.602493,374.997955 215.780365,374.150696 214.655624,373.091644 
z"/>
<path fill="#000000" opacity="1.000000" stroke="none" 
	d="
M229.947952,211.164871 
	C223.135208,214.832336 216.886932,213.360306 213.793701,207.657883 
	C210.848053,202.227509 213.074280,195.151382 218.622879,192.308151 
	C223.766739,189.672318 230.860275,192.172165 233.404663,197.517441 
	C235.580887,202.089279 234.604126,206.283447 229.947952,211.164871 
z"/>
<path fill="#000000" opacity="1.000000" stroke="none" 
	d="
M202.568848,340.537506 
	C206.593506,348.316559 204.580490,355.208527 197.863647,357.804108 
	C191.871521,360.119629 185.085068,356.722778 183.186676,350.457764 
	C181.819443,345.945709 183.683182,341.058289 187.808975,338.336395 
	C192.288849,335.380920 197.049011,336.004791 202.568848,340.537506 
z"/>
<path fill="#000000" opacity="1.000000" stroke="none" 
	d="
M242.560516,33.484421 
	C247.104721,33.141064 251.048325,33.534946 252.940033,37.995861 
	C255.012421,42.882847 252.716919,48.468704 248.200836,50.013050 
	C242.661194,51.907421 237.023865,49.514416 235.524033,44.631840 
	C233.851303,39.186409 236.148895,35.361656 242.560516,33.484421 
z"/>
<path fill="#000000" opacity="1.000000" stroke="none" 
	d="
M286.724731,45.170952 
	C283.274506,50.211910 278.835907,51.797024 274.178528,49.799057 
	C270.091125,48.045597 268.623657,44.748852 269.296051,40.490215 
	C270.100800,35.393085 273.426514,32.993229 278.919525,33.380947 
	C284.454407,33.771622 287.234894,36.556183 287.285248,41.851528 
	C287.294586,42.833412 287.032288,43.817883 286.724731,45.170952 
z"/>
</svg>