<svg version="1.1" id="Layer_1" xmlns="http://www.w3.org/2000/svg" xmlns:xlink="http://www.w3.org/1999/xlink" x="0px" y="0px"
	 width="100%" viewBox="0 0 512 512" enable-background="new 0 0 512 512" xml:space="preserve">
<path fill="#000000" opacity="1.000000" stroke="none" 
	d="
M239.990753,66.758904 
	C258.926514,60.268562 276.711029,60.690594 292.709290,73.431297 
	C300.658264,79.761703 304.513428,88.654549 305.782959,98.498680 
	C307.716461,113.491356 306.062866,127.756073 295.489655,139.701691 
	C289.618439,146.334946 282.069519,149.850906 273.535553,151.612808 
	C260.940796,154.213120 248.708237,153.509399 237.127167,147.514542 
	C219.637222,138.460983 214.055984,117.708679 216.177582,100.831947 
	C217.700531,88.717438 222.172409,78.045250 232.606506,70.655861 
	C234.814758,69.091980 237.220398,68.025528 239.990753,66.758904 
M276.849487,135.423065 
	C280.789398,132.700027 283.737610,129.129654 285.456726,124.680580 
	C289.361176,114.575615 289.772034,104.262489 286.630493,93.900528 
	C282.821228,81.336174 273.746307,75.743073 258.398651,76.269096 
	C246.275665,76.684601 238.183716,83.586624 235.232056,95.772720 
	C233.918045,101.197632 234.087494,106.655037 234.264542,112.131836 
	C235.019440,135.483887 255.752151,147.171814 276.849487,135.423065 
z"/>
<path fill="#000000" opacity="1.000000" stroke="none" 
	d="
M339.816101,306.768585 
	C345.518188,307.702118 349.007660,310.712433 350.064423,315.974304 
	C350.915955,320.214172 349.249634,323.860229 345.928864,326.516479 
	C342.243652,329.464294 338.142395,329.958527 333.878174,327.639954 
	C329.862122,325.456268 327.738159,321.934052 327.945343,317.502502 
	C328.161682,312.874664 330.706696,309.401184 335.073914,307.587891 
	C336.406250,307.034668 337.955933,307.004883 339.816101,306.768585 
z"/>
<path fill="#000000" opacity="1.000000" stroke="none" 
	d="
M266.941040,378.543823 
	C263.827850,383.875549 259.290680,385.349945 253.985001,384.123932 
	C249.334213,383.049316 246.683945,379.601166 245.975388,374.984192 
	C245.245300,370.226898 247.427887,366.496155 251.398422,364.106903 
	C255.596588,361.580688 259.982513,361.888367 263.949158,364.823120 
	C267.948303,367.781921 268.981506,372.519257 266.941040,378.543823 
z"/>
<path fill="#000000" opacity="1.000000" stroke="none" 
	d="
M199.966431,230.252625 
	C192.347946,233.827316 185.778244,231.467422 183.375992,224.611099 
	C181.232788,218.494156 184.824356,212.069580 191.370255,210.311050 
	C195.757538,209.132431 201.100006,211.412613 203.360245,215.428391 
	C206.362915,220.763184 205.452698,225.125122 199.966431,230.252625 
z"/>
<path fill="#000000" opacity="1.000000" stroke="none" 
	d="
M324.004059,231.486252 
	C316.481445,233.045883 311.309418,230.215607 309.634888,223.969543 
	C308.048767,218.053238 311.415222,212.216461 317.485748,210.357742 
	C322.738068,208.749527 328.751526,211.926575 330.721008,217.350143 
	C332.736450,222.900360 330.620789,227.568863 324.004059,231.486252 
z"/>
<path fill="#000000" opacity="1.000000" stroke="none" 
	d="
M185.757339,247.740204 
	C186.643677,254.919464 183.449615,260.029053 177.574463,261.437897 
	C171.877487,262.804047 166.495041,259.791687 164.546158,254.146362 
	C162.703171,248.807709 165.340622,243.031952 170.758789,240.541367 
	C176.510376,237.897522 182.426071,240.613297 185.757339,247.740204 
z"/>
<path fill="#000000" opacity="1.000000" stroke="none" 
	d="
M331.666687,242.567062 
	C338.447601,238.157288 344.921997,239.135315 348.458557,244.803238 
	C351.848358,250.235947 350.109558,256.983124 344.461639,260.312561 
	C340.073364,262.899445 334.241974,261.965302 330.814240,258.126343 
	C326.746918,253.571060 326.923920,248.708511 331.666687,242.567062 
z"/>
<path fill="#000000" opacity="1.000000" stroke="none" 
	d="
M161.470978,275.315430 
	C167.865082,272.160553 173.701981,273.199707 176.950592,277.792908 
	C180.050034,282.175171 179.574005,288.054901 175.801178,291.990112 
	C172.087585,295.863586 166.189606,296.464233 161.637512,293.432587 
	C155.333252,289.234039 155.135361,281.766998 161.470978,275.315430 
z"/>
<path fill="#000000" opacity="1.000000" stroke="none" 
	d="
M335.337585,282.488892 
	C337.592499,276.063232 341.490631,272.967712 346.558868,273.279816 
	C352.045074,273.617615 356.263062,277.143097 357.198853,282.172882 
	C358.099182,287.011963 355.664032,292.007874 351.165894,294.250214 
	C343.850281,297.897003 334.373566,292.592712 335.337585,282.488892 
z"/>
<path fill="#000000" opacity="1.000000" stroke="none" 
	d="
M175.803787,329.075623 
	C170.109741,328.704132 166.293839,326.312500 164.476273,321.111786 
	C163.044525,317.015045 164.266846,313.458313 166.982361,310.510101 
	C169.990326,307.244324 173.763123,305.817902 178.288956,307.312225 
	C183.110779,308.904297 185.787201,312.337921 186.161636,317.212860 
	C186.506927,321.708618 184.385254,325.270508 180.386551,327.484344 
	C179.099533,328.196899 177.602798,328.530609 175.803787,329.075623 
z"/>
<path fill="#000000" opacity="1.000000" stroke="none" 
	d="
M284.034058,375.193787 
	C279.553680,371.373688 278.429871,366.882477 280.542908,361.936737 
	C282.482147,357.397919 286.252228,355.055847 291.272034,355.339630 
	C296.022858,355.608215 299.575439,357.965393 301.053680,362.559967 
	C302.546265,367.199097 301.678833,371.575317 297.751251,374.750946 
	C293.556702,378.142395 288.979431,378.371826 284.034058,375.193787 
z"/>
<path fill="#000000" opacity="1.000000" stroke="none" 
	d="
M267.585876,191.846695 
	C268.859711,199.219498 265.309814,204.812958 258.939026,206.080246 
	C253.743256,207.113800 247.983063,203.347107 246.356918,197.852570 
	C244.731430,192.360245 248.021973,186.505173 253.846481,184.525940 
	C259.209625,182.703506 264.574310,185.443390 267.585876,191.846695 
z"/>
<path fill="#000000" opacity="1.000000" stroke="none" 
	d="
M287.862488,191.648956 
	C293.277405,190.818832 297.614685,192.021332 300.155701,196.704926 
	C302.254150,200.572861 302.363495,204.671326 299.751373,208.481201 
	C297.161957,212.257996 293.486816,213.765747 288.982452,213.235641 
	C284.617523,212.721939 280.560577,208.864532 279.792023,204.588577 
	C278.754059,198.813446 281.153198,194.801468 287.862488,191.648956 
z"/>
<path fill="#000000" opacity="1.000000" stroke="none" 
	d="
M330.055206,342.406860 
	C332.419006,349.290985 330.731903,354.378906 325.419006,357.286560 
	C320.872223,359.774902 314.781433,358.468353 311.488434,354.298340 
	C308.138855,350.056549 308.351196,344.133514 311.996735,340.124969 
	C316.944763,334.684113 325.095276,335.556915 330.055206,342.406860 
z"/>
<path fill="#000000" opacity="1.000000" stroke="none" 
	d="
M217.925354,356.713287 
	C223.915359,354.456146 228.769867,355.297699 231.844864,359.052979 
	C234.859497,362.734558 235.376709,366.957153 233.311539,371.156494 
	C231.140472,375.571198 227.372894,377.815704 222.336548,377.267242 
	C217.826920,376.776154 214.372086,374.426300 213.109650,370.046783 
	C211.606354,364.831696 212.832001,360.175629 217.925354,356.713287 
z"/>
<path fill="#000000" opacity="1.000000" stroke="none" 
	d="
M226.033722,191.694046 
	C231.153992,193.234100 233.961243,196.262695 234.351929,201.372665 
	C234.722122,206.214371 232.671677,209.747787 228.565399,212.040649 
	C224.552887,214.281113 220.581390,213.722565 216.886810,211.140121 
	C212.879654,208.339188 211.389420,202.971573 213.226028,198.254227 
	C215.145493,193.324097 219.491104,191.009613 226.033722,191.694046 
z"/>
<path fill="#000000" opacity="1.000000" stroke="none" 
	d="
M191.488480,358.213715 
	C186.103851,356.630646 183.146988,353.280884 182.814880,348.119080 
	C182.510941,343.394989 184.742905,339.727386 189.004822,337.657440 
	C193.051315,335.692047 197.075974,336.223755 200.726135,338.854156 
	C204.413330,341.511261 205.902374,346.528137 204.396255,350.815582 
	C202.530533,356.126740 198.670258,358.432739 191.488480,358.213715 
z"/>
<path fill="#000000" opacity="1.000000" stroke="none" 
	d="
M235.835236,38.157623 
	C238.668320,33.042030 243.000458,32.866367 247.642700,33.692684 
	C250.742844,34.244511 252.699692,36.133190 253.262665,39.220222 
	C253.949661,42.987228 253.743805,46.730888 250.133301,48.968540 
	C246.319473,51.332207 242.115234,51.290775 238.401031,48.766502 
	C234.739273,46.277863 234.505844,42.503918 235.835236,38.157623 
z"/>
<path fill="#000000" opacity="1.000000" stroke="none" 
	d="
M277.172546,33.274887 
	C282.178986,33.436413 286.174347,34.616604 287.201141,39.928406 
	C288.180023,44.992577 285.170929,49.492748 280.368378,50.326122 
	C274.476501,51.348522 270.397949,48.978363 269.288330,43.887196 
	C268.075592,38.322861 270.644196,34.706398 277.172546,33.274887 
z"/>
</svg>