<svg version="1.1" id="Layer_1" xmlns="http://www.w3.org/2000/svg" xmlns:xlink="http://www.w3.org/1999/xlink" x="0px" y="0px"
	 width="100%" viewBox="0 0 512 512" enable-background="new 0 0 512 512" xml:space="preserve">
<path fill="#000000" opacity="1.000000" stroke="none" 
	d="
M302.289734,73.094147 
	C302.292145,97.239433 302.302246,120.899551 302.290466,144.559662 
	C302.287079,151.309464 302.258026,151.309448 295.765808,151.357330 
	C288.481232,151.411057 288.481232,151.411057 285.383423,142.403061 
	C284.964142,142.521500 284.435303,142.520508 284.124359,142.780319 
	C270.092163,154.505798 254.074509,155.314789 237.467422,150.554428 
	C225.271378,147.058502 219.366058,137.755875 218.971985,121.722038 
	C218.542267,104.237495 218.905777,86.734314 218.816406,69.239807 
	C218.799347,65.900154 220.137497,64.570580 223.446045,64.213791 
	C235.294815,62.936054 236.345291,63.751045 236.344864,75.286476 
	C236.344360,89.115982 236.399399,102.945862 236.304199,116.774719 
	C236.279831,120.316002 236.769669,123.780556 237.530548,127.166328 
	C239.150208,134.373322 244.257126,138.182022 251.195984,139.298035 
	C258.002655,140.392807 264.855713,140.062363 271.285645,137.164505 
	C282.317810,132.192490 284.204376,122.121796 284.547211,111.736816 
	C284.981232,98.587952 284.658936,85.414192 284.667694,72.251175 
	C284.672577,64.873825 284.676971,64.873917 292.216949,64.290077 
	C292.549164,64.264351 292.880585,64.227104 293.213104,64.207100 
	C301.836273,63.688511 302.249420,64.071266 302.289734,73.094147 
z"/>
<path fill="#000000" opacity="1.000000" stroke="none" 
	d="
M349.056152,322.606537 
	C346.119904,327.497314 342.251221,329.886810 336.847626,328.724274 
	C331.749115,327.627380 328.690063,324.192139 328.017303,319.163116 
	C327.361053,314.257416 329.773499,310.483948 334.005432,308.070221 
	C338.239044,305.655579 342.487579,306.376587 346.062164,309.319580 
	C350.170319,312.701904 351.421478,317.142853 349.056152,322.606537 
z"/>
<path fill="#000000" opacity="1.000000" stroke="none" 
	d="
M245.886948,374.724518 
	C245.764908,369.117767 248.205551,365.271179 252.862778,363.346954 
	C256.670959,361.773560 260.731903,362.085297 264.085083,364.924316 
	C267.506134,367.820801 269.054260,371.580688 267.882141,376.009827 
	C266.689545,380.516357 263.818909,383.614197 259.043579,384.322052 
	C254.238281,385.034332 250.155396,383.632019 247.556412,379.262909 
	C246.809845,378.007904 246.468109,376.512085 245.886948,374.724518 
z"/>
<path fill="#000000" opacity="1.000000" stroke="none" 
	d="
M184.998749,227.784851 
	C181.888229,222.858139 181.806473,218.285645 185.419342,214.088821 
	C188.177567,210.884735 191.629593,209.299561 196.084366,210.339508 
	C201.076462,211.504898 203.819138,214.586136 204.801605,219.466965 
	C205.660751,223.735046 203.314743,228.443558 199.183853,230.730179 
	C194.303131,233.431885 190.189026,232.655914 184.998749,227.784851 
z"/>
<path fill="#000000" opacity="1.000000" stroke="none" 
	d="
M312.210266,228.782135 
	C308.736633,224.215164 307.950562,219.675247 311.110138,215.105408 
	C313.618744,211.477112 317.092468,209.330414 321.762207,210.126923 
	C326.678894,210.965561 329.984192,213.785263 331.091187,218.663391 
	C332.206360,223.577545 330.295074,227.505295 326.228058,230.330017 
	C321.959290,233.294876 317.791992,232.855865 312.210266,228.782135 
z"/>
<path fill="#000000" opacity="1.000000" stroke="none" 
	d="
M179.056976,240.388550 
	C184.829636,243.688919 187.239059,248.372269 185.924942,253.184586 
	C184.558487,258.188599 179.776276,261.954102 174.975754,261.805969 
	C169.607758,261.640320 165.624832,258.273590 164.162064,253.070526 
	C162.360138,246.661118 169.276749,237.016708 179.056976,240.388550 
z"/>
<path fill="#000000" opacity="1.000000" stroke="none" 
	d="
M349.208740,246.217285 
	C351.231506,253.256073 348.540863,259.149170 342.681702,261.196686 
	C337.289978,263.080841 331.232239,260.450806 328.907654,255.216537 
	C326.590332,249.998596 328.640076,244.028702 333.773041,241.046127 
	C339.183136,237.902496 344.845612,239.679871 349.208740,246.217285 
z"/>
<path fill="#000000" opacity="1.000000" stroke="none" 
	d="
M179.123505,284.853516 
	C177.889145,290.574768 175.028641,294.456207 169.346146,295.226227 
	C164.424057,295.893188 160.520691,293.858795 158.093430,289.471466 
	C154.921829,283.738647 157.550491,276.553558 163.614517,274.051392 
	C169.492584,271.625946 176.242294,274.593872 178.291687,280.568024 
	C178.719406,281.814911 178.868713,283.157288 179.123505,284.853516 
z"/>
<path fill="#000000" opacity="1.000000" stroke="none" 
	d="
M342.211273,273.959045 
	C349.204620,272.620850 353.717499,274.440643 356.172089,279.308838 
	C358.410645,283.748535 357.385254,289.195038 353.680786,292.541382 
	C348.990570,296.778198 341.546173,296.209106 337.679718,291.318176 
	C333.079010,285.498566 334.742065,278.644470 342.211273,273.959045 
z"/>
<path fill="#000000" opacity="1.000000" stroke="none" 
	d="
M184.814423,312.590332 
	C187.464600,320.156525 185.036240,325.983765 178.576340,328.363647 
	C172.877304,330.463257 166.755844,327.402344 164.577042,321.363647 
	C162.802979,316.446686 164.996719,310.994659 169.876114,308.194153 
	C174.958725,305.277008 180.211014,306.720032 184.814423,312.590332 
z"/>
<path fill="#000000" opacity="1.000000" stroke="none" 
	d="
M255.455811,206.078430 
	C250.097290,204.667480 246.869629,201.593872 246.024582,196.470703 
	C245.340408,192.322922 247.150116,188.971375 250.296738,186.429367 
	C254.290848,183.202713 259.464325,183.137009 263.680115,186.298553 
	C267.474884,189.144348 269.027405,193.047897 267.805450,197.714996 
	C266.377258,203.169769 262.180511,206.031555 255.455811,206.078430 
z"/>
<path fill="#000000" opacity="1.000000" stroke="none" 
	d="
M297.000122,211.284363 
	C290.536682,215.682343 283.628296,212.279465 281.071991,207.928650 
	C278.188751,203.021423 279.527252,196.705276 284.290558,193.337860 
	C288.779663,190.164307 295.263062,190.789566 298.839233,194.740906 
	C303.079254,199.425705 302.493896,205.814240 297.000122,211.284363 
z"/>
<path fill="#000000" opacity="1.000000" stroke="none" 
	d="
M292.448364,355.526855 
	C299.677246,357.646393 302.872650,362.689728 301.351807,369.036774 
	C300.035431,374.530579 294.664215,378.057312 288.831512,377.257599 
	C283.126953,376.475403 279.130096,371.099792 279.692139,364.965424 
	C280.235016,359.040405 285.071899,355.325500 292.448364,355.526855 
z"/>
<path fill="#000000" opacity="1.000000" stroke="none" 
	d="
M321.752411,336.696808 
	C328.897156,338.658264 332.483459,343.934723 331.175964,349.965057 
	C329.967834,355.537140 324.256073,359.239960 318.263184,358.336090 
	C312.945404,357.534027 308.782501,352.392731 309.068512,346.980408 
	C309.397156,340.760956 314.060303,336.840302 321.752411,336.696808 
z"/>
<path fill="#000000" opacity="1.000000" stroke="none" 
	d="
M222.256821,191.278702 
	C232.352905,192.467514 237.252701,199.865784 233.280197,207.292831 
	C230.775787,211.975098 225.648743,214.328049 220.719086,213.057495 
	C215.940201,211.825821 212.806000,207.911011 212.644089,202.971344 
	C212.442123,196.809631 215.319733,193.179993 222.256821,191.278702 
z"/>
<path fill="#000000" opacity="1.000000" stroke="none" 
	d="
M234.359558,366.052246 
	C233.700241,373.334747 229.504120,377.430542 223.258072,377.316467 
	C217.236526,377.206512 212.862091,372.984650 212.640472,367.069214 
	C212.405457,360.796234 216.497055,355.763428 222.258789,355.238342 
	C228.634201,354.657318 233.307907,358.670258 234.359558,366.052246 
z"/>
<path fill="#000000" opacity="1.000000" stroke="none" 
	d="
M189.152374,357.392365 
	C183.536758,353.634125 181.632965,349.098328 183.315567,344.226776 
	C185.160889,338.884094 189.551315,336.113434 195.272217,336.681335 
	C200.263229,337.176788 203.924561,340.714600 204.878708,345.963715 
	C206.355225,354.086639 198.612869,359.928162 189.152374,357.392365 
z"/>
<path fill="#000000" opacity="1.000000" stroke="none" 
	d="
M269.805908,38.126282 
	C272.476318,32.683208 276.919556,32.873550 281.465698,33.800842 
	C284.940002,34.509499 286.793610,36.973808 287.235870,40.407452 
	C287.692078,43.949123 286.743195,47.105339 283.519318,48.954414 
	C279.835968,51.067013 275.796173,51.337875 272.282837,48.809174 
	C268.759766,46.273407 268.554108,42.451015 269.805908,38.126282 
z"/>
<path fill="#000000" opacity="1.000000" stroke="none" 
	d="
M252.997818,44.399536 
	C249.883575,50.004574 245.484741,51.887798 240.472626,49.935112 
	C236.348389,48.328323 234.688828,45.085449 235.219421,40.813194 
	C235.902283,35.314808 239.523621,32.833202 245.576370,33.492691 
	C251.395004,34.126671 253.459122,37.006660 252.997818,44.399536 
z"/>
</svg>