<svg version="1.1" id="Layer_1" xmlns="http://www.w3.org/2000/svg" xmlns:xlink="http://www.w3.org/1999/xlink" x="0px" y="0px"
	 width="100%" viewBox="0 0 512 512" enable-background="new 0 0 512 512" xml:space="preserve">
<path fill="#000000" opacity="1.000000" stroke="none" 
	d="
M242.828323,121.971420 
	C242.846176,114.152664 242.961319,106.826561 242.838516,99.504448 
	C242.778000,95.895706 244.132202,94.443245 247.831802,94.548279 
	C253.984283,94.722961 260.150238,94.611015 266.305298,94.436615 
	C269.909546,94.334488 271.328033,95.720490 271.265503,99.420708 
	C271.096771,109.405754 271.363220,119.398857 271.145966,129.382004 
	C271.066437,133.036118 272.138397,134.482101 275.892303,134.351776 
	C282.028229,134.138733 288.183990,134.473312 294.317780,134.231125 
	C298.351562,134.071854 300.153717,135.415543 299.982910,139.616379 
	C299.773438,144.768158 299.890076,149.935944 299.962402,155.095444 
	C300.007080,158.280563 298.947418,160.089325 295.382782,160.081894 
	C269.747101,160.028442 244.111221,160.037216 218.475540,160.089569 
	C215.228592,160.096207 213.995438,158.539703 214.023178,155.507767 
	C214.073441,150.014969 214.095718,144.521774 214.096283,139.028748 
	C214.096603,135.979950 215.362976,134.509872 218.619064,134.582764 
	C224.774811,134.720566 230.945908,134.381775 237.092377,134.653610 
	C241.417572,134.844940 243.307922,133.374161 242.852432,128.953812 
	C242.631851,126.812981 242.822891,124.629738 242.828323,121.971420 
z"/>
<path fill="#000000" opacity="1.000000" stroke="none" 
	d="
M350.170471,316.306976 
	C349.832855,323.474731 346.908875,327.422119 341.276062,328.795624 
	C337.130737,329.806427 332.162140,327.656433 329.747009,323.806854 
	C326.333496,318.365906 327.959595,311.710815 333.528625,308.329803 
	C338.706696,305.186157 345.479126,306.904877 348.621399,312.239624 
	C349.283142,313.363129 349.626251,314.674347 350.170471,316.306976 
z"/>
<path fill="#000000" opacity="1.000000" stroke="none" 
	d="
M260.357086,384.099121 
	C254.318039,385.057648 249.640488,383.704529 246.971603,378.234314 
	C244.726288,373.632294 245.753738,369.438354 249.174698,365.843170 
	C253.524719,361.271606 261.006775,361.390778 265.246948,365.972809 
	C269.722046,370.808594 269.077179,378.238098 263.784210,382.256256 
	C262.866516,382.952911 261.772888,383.417847 260.357086,384.099121 
z"/>
<path fill="#000000" opacity="1.000000" stroke="none" 
	d="
M184.660522,323.311646 
	C180.561096,328.528564 176.740326,330.012756 171.980759,328.479034 
	C167.286957,326.966431 163.814133,322.766693 163.909912,318.179260 
	C164.012909,313.245331 166.502731,309.654419 171.021606,307.627747 
	C175.329483,305.695740 179.349075,306.761932 182.573013,309.798859 
	C186.468994,313.468842 187.408463,318.013275 184.660522,323.311646 
z"/>
<path fill="#000000" opacity="1.000000" stroke="none" 
	d="
M356.333374,288.816193 
	C352.554504,294.516724 348.796326,296.396790 343.656616,295.097473 
	C338.789948,293.867218 335.979034,290.517975 335.312683,285.606201 
	C334.665131,280.832703 336.720215,277.137146 340.796875,274.735168 
	C344.956970,272.284027 349.246948,272.755341 352.965942,275.558990 
	C357.295807,278.823181 358.432373,283.295502 356.333374,288.816193 
z"/>
<path fill="#000000" opacity="1.000000" stroke="none" 
	d="
M176.841263,290.654541 
	C171.917679,295.624146 167.596970,296.597717 162.766312,294.095215 
	C158.473984,291.871582 156.031403,287.066772 156.829437,282.416656 
	C157.612869,277.851776 161.671036,273.906982 166.337265,273.412231 
	C170.580017,272.962372 174.377502,274.102020 176.867569,277.752441 
	C179.636520,281.811646 180.003525,286.095825 176.841263,290.654541 
z"/>
<path fill="#000000" opacity="1.000000" stroke="none" 
	d="
M330.312561,257.540039 
	C327.159332,252.874100 327.094513,248.473312 330.206696,244.236603 
	C332.898590,240.572098 336.633423,238.979218 341.149048,239.847443 
	C345.638184,240.710587 348.512695,243.512741 349.815338,247.884262 
	C351.177246,252.454636 348.972107,257.597198 344.559143,260.254639 
	C340.124969,262.924866 335.267792,262.087646 330.312561,257.540039 
z"/>
<path fill="#000000" opacity="1.000000" stroke="none" 
	d="
M165.452301,256.252625 
	C162.631195,248.659805 165.266083,242.247696 171.755569,240.093750 
	C177.422760,238.212723 183.663345,241.518143 185.656677,247.456680 
	C187.306274,252.371109 184.938629,257.930115 180.090347,260.525879 
	C175.194702,263.147003 169.950958,261.716217 165.452301,256.252625 
z"/>
<path fill="#000000" opacity="1.000000" stroke="none" 
	d="
M330.246704,216.244659 
	C332.193970,222.793991 330.924194,227.106155 326.391602,230.248276 
	C322.436066,232.990372 317.026123,232.954742 313.370178,229.835052 
	C309.630310,226.643768 308.207916,222.484695 309.767761,217.713501 
	C311.181122,213.390320 314.451874,210.649017 318.834595,210.083145 
	C323.645172,209.462051 327.592010,211.500061 330.246704,216.244659 
z"/>
<path fill="#000000" opacity="1.000000" stroke="none" 
	d="
M197.112579,231.655182 
	C190.281830,232.702759 185.822495,230.504150 183.651062,225.364182 
	C181.642181,220.608978 182.979004,215.601669 187.090164,212.413132 
	C190.755386,209.570496 194.682693,209.336380 198.811249,211.231735 
	C203.110458,213.205414 204.995346,216.984421 204.962128,221.308929 
	C204.924652,226.183441 202.198608,229.725204 197.112579,231.655182 
z"/>
<path fill="#000000" opacity="1.000000" stroke="none" 
	d="
M282.123108,195.312317 
	C286.167358,191.082687 290.651123,190.307434 295.568390,192.425247 
	C299.890625,194.286774 301.620300,198.011032 301.652191,202.453445 
	C301.685059,207.025635 299.327332,210.308502 295.260010,212.328979 
	C291.030243,214.430161 285.814758,213.365677 282.502136,209.786072 
	C278.911224,205.905731 278.699371,201.091309 282.123108,195.312317 
z"/>
<path fill="#000000" opacity="1.000000" stroke="none" 
	d="
M301.676270,366.085693 
	C300.498047,373.923553 296.471069,377.626770 289.928558,377.312195 
	C284.584595,377.055267 280.126495,372.807495 279.694489,367.561035 
	C279.187897,361.408691 283.099579,356.299713 289.002502,355.403992 
	C295.569611,354.407471 300.335327,358.292358 301.676270,366.085693 
z"/>
<path fill="#000000" opacity="1.000000" stroke="none" 
	d="
M247.339294,200.319534 
	C244.630417,192.660507 247.333939,186.586945 254.054031,184.442734 
	C259.800110,182.609299 266.243835,186.423203 267.873077,192.621918 
	C269.117432,197.356522 266.532379,202.683319 261.825592,205.083237 
	C256.883240,207.603256 251.825699,206.034485 247.339294,200.319534 
z"/>
<path fill="#000000" opacity="1.000000" stroke="none" 
	d="
M311.527954,354.343140 
	C308.264984,348.329346 308.574951,343.634003 312.218842,339.874115 
	C315.395813,336.596008 320.966705,335.546356 325.132355,337.595734 
	C329.672791,339.829468 331.598145,343.698792 331.270416,348.611481 
	C330.976379,353.019653 328.393768,356.156097 324.461578,357.685791 
	C319.733032,359.525269 315.308655,358.545044 311.527954,354.343140 
z"/>
<path fill="#000000" opacity="1.000000" stroke="none" 
	d="
M219.258789,355.960663 
	C225.722382,354.635773 230.246887,356.071564 232.735962,360.296539 
	C235.106186,364.319763 235.249924,368.484039 232.540146,372.474274 
	C228.802856,377.977539 221.686020,379.005310 216.394745,374.862915 
	C211.682648,371.173950 211.146530,363.435791 215.383942,358.847137 
	C216.378708,357.769928 217.719971,357.012726 219.258789,355.960663 
z"/>
<path fill="#000000" opacity="1.000000" stroke="none" 
	d="
M232.469620,195.840927 
	C235.321442,201.783463 234.946838,206.294800 231.395142,209.906769 
	C228.063095,213.295380 224.027588,214.336990 219.578903,212.584183 
	C215.203293,210.860168 212.720383,207.679001 212.603882,202.736115 
	C212.483887,197.645569 214.737823,193.885559 219.241516,192.108261 
	C224.102188,190.190094 228.676437,191.424622 232.469620,195.840927 
z"/>
<path fill="#000000" opacity="1.000000" stroke="none" 
	d="
M200.178650,338.478210 
	C205.063812,343.151489 206.165909,347.377747 203.978653,351.994202 
	C201.878647,356.426483 197.601868,358.864380 192.633408,358.326782 
	C187.622208,357.784546 184.453171,354.908234 183.114105,350.144989 
	C181.919815,345.896759 183.319290,342.161530 186.483292,339.350006 
	C190.538773,335.746338 195.151474,335.703278 200.178650,338.478210 
z"/>
</svg>