<svg version="1.1" id="Layer_1" xmlns="http://www.w3.org/2000/svg" xmlns:xlink="http://www.w3.org/1999/xlink" x="0px" y="0px"
	 width="100%" viewBox="0 0 512 512" enable-background="new 0 0 512 512" xml:space="preserve">
<path fill="#000000" opacity="1.000000" stroke="none" 
	d="
M358.628510,101.964523 
	C364.556183,101.834412 370.050049,101.836357 375.542389,101.745735 
	C378.857391,101.691040 380.314972,102.668152 379.800323,106.481453 
	C376.012054,134.550110 355.850464,153.703796 327.691986,156.414032 
	C310.583649,158.060715 294.035950,157.061752 278.918823,148.126114 
	C262.912872,138.665115 256.344330,123.528740 254.685364,105.727356 
	C254.433014,103.019432 255.637970,101.668396 258.430878,101.766937 
	C260.259888,101.831467 262.093628,101.745865 263.924561,101.773102 
	C267.748108,101.829979 271.853760,101.063278 275.321869,102.211113 
	C279.513306,103.598358 278.155121,108.793427 279.704590,112.142403 
	C282.984314,119.231140 288.325165,123.660881 295.749390,125.114471 
	C309.246002,127.756989 322.846649,128.040573 336.314667,124.798370 
	C346.548492,122.334755 353.353119,116.156792 355.802277,105.640129 
	C356.141022,104.185608 356.621582,102.732582 358.628510,101.964523 
z"/>
<path fill="#000000" opacity="1.000000" stroke="none" 
	d="
M337.362518,306.840790 
	C344.487030,307.095612 348.457214,309.704193 349.850037,315.039459 
	C351.117462,319.894287 349.414703,323.908813 345.496857,326.825500 
	C340.445374,330.586090 333.684204,329.428223 330.119446,324.420807 
	C326.367493,319.150421 327.538361,312.356995 332.921295,308.755615 
	C334.135315,307.943359 335.602051,307.508759 337.362518,306.840790 
z"/>
<path fill="#000000" opacity="1.000000" stroke="none" 
	d="
M265.144409,365.853333 
	C268.748199,370.366760 269.302826,374.833038 266.376190,379.470642 
	C263.665283,383.766388 259.566345,385.078064 254.762024,384.275757 
	C250.203323,383.514465 247.458801,380.567139 246.254532,376.240570 
	C244.880249,371.303162 246.871704,367.472198 250.729630,364.531281 
	C254.754700,361.463013 259.776276,361.905792 265.144409,365.853333 
z"/>
<path fill="#000000" opacity="1.000000" stroke="none" 
	d="
M343.728943,273.543518 
	C352.334656,273.041565 357.531891,277.450714 357.323639,284.674316 
	C357.135590,291.196838 351.500061,295.985321 344.840332,295.281281 
	C339.915680,294.760681 336.184753,291.052246 335.306915,285.805328 
	C334.434662,280.591736 337.279175,276.286987 343.728943,273.543518 
z"/>
<path fill="#000000" opacity="1.000000" stroke="none" 
	d="
M205.078705,221.055176 
	C204.340912,227.239014 201.149902,231.019165 195.434845,232.071747 
	C190.964081,232.895187 187.188919,231.046555 184.671234,227.252411 
	C182.169922,223.482956 181.866531,219.460220 184.357986,215.498489 
	C186.658676,211.840118 190.039230,209.658600 194.345367,210.035645 
	C198.889023,210.433472 202.645142,212.519531 204.191864,217.269913 
	C204.551712,218.375076 204.773590,219.525162 205.078705,221.055176 
z"/>
<path fill="#000000" opacity="1.000000" stroke="none" 
	d="
M328.490967,228.372711 
	C321.989288,233.666290 315.233673,233.239594 311.294800,227.597565 
	C307.358734,221.959549 309.068878,214.771790 315.164886,211.331451 
	C319.424652,208.927429 325.002014,209.847794 328.395142,213.514633 
	C332.163879,217.587387 332.284943,222.570572 328.490967,228.372711 
z"/>
<path fill="#000000" opacity="1.000000" stroke="none" 
	d="
M173.513824,261.542877 
	C166.750900,259.743896 163.033005,254.762222 164.002197,249.225342 
	C165.071823,243.114716 170.616333,238.962524 176.640610,239.760666 
	C182.221329,240.500031 186.628250,245.795303 186.250092,251.307190 
	C185.825500,257.495880 181.011337,261.517120 173.513824,261.542877 
z"/>
<path fill="#000000" opacity="1.000000" stroke="none" 
	d="
M334.522552,260.829773 
	C328.667572,256.940460 326.837860,252.779602 328.469147,247.698380 
	C330.132202,242.518234 334.561584,239.377151 339.751099,239.697815 
	C344.789795,240.009171 348.757172,243.450195 349.999847,248.446152 
	C351.812897,255.734833 343.731384,264.762390 334.522552,260.829773 
z"/>
<path fill="#000000" opacity="1.000000" stroke="none" 
	d="
M178.583374,287.175842 
	C175.905701,295.838440 165.452667,298.152222 159.558655,291.607880 
	C156.088959,287.755341 155.765533,282.438660 158.641037,278.251312 
	C161.776764,273.685059 167.112579,272.072205 172.305145,274.121063 
	C177.089783,276.008972 179.433807,280.643127 178.583374,287.175842 
z"/>
<path fill="#000000" opacity="1.000000" stroke="none" 
	d="
M164.996017,313.391052 
	C169.481903,306.901337 174.417664,305.228729 180.033417,307.989655 
	C184.882141,310.373505 187.352417,316.051514 185.695877,321.004974 
	C183.678513,327.037384 177.608322,330.320343 171.915634,328.457764 
	C165.460983,326.345917 162.808365,320.835022 164.996017,313.391052 
z"/>
<path fill="#000000" opacity="1.000000" stroke="none" 
	d="
M287.122162,355.829346 
	C292.483490,354.633423 296.856018,355.628387 299.774963,360.064209 
	C302.359650,363.991974 302.480499,368.195435 299.921753,372.276459 
	C297.329803,376.410431 293.432373,377.940826 288.771027,377.204285 
	C284.035919,376.456116 280.969421,373.468750 279.860352,368.865204 
	C278.526154,363.326965 280.746887,359.435181 287.122162,355.829346 
z"/>
<path fill="#000000" opacity="1.000000" stroke="none" 
	d="
M246.422546,198.169281 
	C245.292603,191.014603 248.698746,185.608780 254.874634,184.176666 
	C260.088348,182.967667 265.938629,186.560333 267.657806,192.026855 
	C269.337616,197.368225 266.484436,203.139633 261.032745,205.428192 
	C255.479141,207.759506 249.724319,205.028046 246.422546,198.169281 
z"/>
<path fill="#000000" opacity="1.000000" stroke="none" 
	d="
M279.950745,205.371277 
	C278.064941,197.114090 284.411133,191.506653 290.044464,191.300339 
	C295.489624,191.100906 300.049438,194.326874 301.261749,199.268692 
	C302.611542,204.770905 300.410797,209.696548 295.473633,212.223587 
	C290.918243,214.555191 285.350586,213.348938 282.037964,209.203278 
	C281.222839,208.183151 280.710480,206.921097 279.950745,205.371277 
z"/>
<path fill="#000000" opacity="1.000000" stroke="none" 
	d="
M317.112305,358.143768 
	C310.438599,354.743561 308.076202,350.494141 309.464111,344.947418 
	C310.771454,339.722534 314.922089,336.575500 320.420929,336.639862 
	C326.883820,336.715515 331.369995,341.289154 331.323761,347.755402 
	C331.281036,353.736969 326.664948,358.299988 320.465759,358.443542 
	C319.472107,358.466553 318.474335,358.313263 317.112305,358.143768 
z"/>
<path fill="#000000" opacity="1.000000" stroke="none" 
	d="
M216.071167,194.101074 
	C221.942383,190.193161 228.294052,190.737717 231.977554,195.182785 
	C235.434189,199.354050 235.253693,205.732346 231.564667,209.773346 
	C227.695938,214.011246 221.431747,214.550369 216.694702,211.053146 
	C211.582214,207.278717 211.215317,200.545624 216.071167,194.101074 
z"/>
<path fill="#000000" opacity="1.000000" stroke="none" 
	d="
M223.022171,355.180115 
	C232.750793,356.928680 237.205963,364.404968 233.164413,371.546387 
	C230.624619,376.034180 225.731918,378.411499 220.946533,377.090790 
	C216.482315,375.858734 213.297745,373.130798 212.694061,368.201050 
	C212.024796,362.735779 214.559708,357.986359 219.255814,355.991333 
	C220.306732,355.544861 221.503952,355.442749 223.022171,355.180115 
z"/>
<path fill="#000000" opacity="1.000000" stroke="none" 
	d="
M204.827911,349.455414 
	C201.177750,358.767303 191.805115,361.453644 185.879364,355.108307 
	C182.690430,351.693573 181.726456,347.644531 183.744995,343.168793 
	C185.841202,338.520966 189.678757,336.207336 194.924423,336.687561 
	C199.659363,337.121033 202.953415,339.528534 204.379684,344.199280 
	C204.864700,345.787628 205.363800,347.379669 204.827911,349.455414 
z"/>
</svg>