<svg version="1.1" id="Layer_1" xmlns="http://www.w3.org/2000/svg" xmlns:xlink="http://www.w3.org/1999/xlink" x="0px" y="0px"
	 width="100%" viewBox="0 0 512 512" enable-background="new 0 0 512 512" xml:space="preserve">
<path fill="#000000" opacity="1.000000" stroke="none" 
	d="
M234.866669,102.409096 
	C241.350998,101.278038 247.510056,101.920204 253.653503,101.794991 
	C257.806854,101.710335 257.615631,104.709885 257.192444,107.364136 
	C254.185089,126.227264 245.449600,141.579254 227.673538,149.738632 
	C204.519394,160.366577 180.865738,160.484436 157.907669,148.879242 
	C142.574814,141.128571 135.285843,127.337303 132.790298,110.890022 
	C131.414749,101.824478 131.747849,101.773949 141.303604,101.766457 
	C141.802933,101.766060 142.302551,101.753807 142.801529,101.766823 
	C146.287247,101.857788 150.070831,101.132477 153.181366,102.260910 
	C156.889526,103.606171 155.707626,108.305153 156.951080,111.417648 
	C160.960968,121.454865 169.186569,125.257233 178.865982,126.218903 
	C189.939011,127.319023 201.121292,127.738037 212.149460,125.321541 
	C223.390945,122.858307 230.887421,116.411491 233.594391,104.933586 
	C233.779968,104.146645 234.199585,103.414886 234.866669,102.409096 
z"/>
<path fill="#000000" opacity="1.000000" stroke="none" 
	d="
M340.627075,306.871582 
	C346.057281,308.119110 349.279388,311.210663 350.107941,316.290253 
	C350.801575,320.542572 349.068939,324.108490 345.677277,326.711731 
	C341.694855,329.768494 336.880646,329.798615 332.732697,326.998474 
	C329.035126,324.502319 327.108978,319.380676 328.312042,315.243744 
	C329.897339,309.792450 333.827759,307.006195 340.627075,306.871582 
z"/>
<path fill="#000000" opacity="1.000000" stroke="none" 
	d="
M179.729355,307.841797 
	C185.377808,311.651581 187.314240,316.121246 185.716736,320.970184 
	C184.172089,325.658691 179.502304,329.193909 174.962250,329.111694 
	C169.989319,329.021667 165.523865,325.392944 164.224991,320.303192 
	C163.180115,316.208771 164.557693,312.729340 167.453293,309.933502 
	C170.854050,306.649933 174.897385,305.811279 179.729355,307.841797 
z"/>
<path fill="#000000" opacity="1.000000" stroke="none" 
	d="
M259.539612,362.759644 
	C266.161072,365.466309 269.142761,370.112274 268.063843,375.436615 
	C267.004028,380.666687 262.764801,384.303162 257.565399,384.442291 
	C251.828705,384.595825 247.717453,381.367828 246.099380,376.009857 
	C244.406494,370.404144 250.014267,360.788879 259.539612,362.759644 
z"/>
<path fill="#000000" opacity="1.000000" stroke="none" 
	d="
M178.591507,287.177856 
	C175.987396,295.725677 165.636398,298.166229 159.656021,291.738159 
	C156.204254,288.028015 155.736359,282.529602 158.423126,278.437653 
	C161.377686,273.937836 166.765625,272.159271 171.943863,273.974487 
	C176.936203,275.724518 179.465637,280.506958 178.591507,287.177856 
z"/>
<path fill="#000000" opacity="1.000000" stroke="none" 
	d="
M202.300812,228.239471 
	C196.283463,233.054855 191.363449,233.422852 186.810776,229.697800 
	C182.954163,226.542267 181.636566,221.054565 183.684174,216.675552 
	C186.505005,210.642899 193.128677,208.367447 199.118927,211.373230 
	C204.978073,214.313202 206.424988,221.350220 202.300812,228.239471 
z"/>
<path fill="#000000" opacity="1.000000" stroke="none" 
	d="
M329.890198,215.531708 
	C332.388885,222.198547 331.302246,226.661148 326.634949,230.072876 
	C322.728271,232.928604 317.480011,232.921219 313.572357,230.054581 
	C309.924225,227.378281 308.182373,221.802582 309.797821,217.512665 
	C311.323395,213.461441 314.354523,210.801849 318.545441,210.130173 
	C323.167938,209.389359 327.010742,211.213928 329.890198,215.531708 
z"/>
<path fill="#000000" opacity="1.000000" stroke="none" 
	d="
M181.474945,259.619324 
	C174.291412,263.358185 167.568878,261.390045 164.851456,255.063812 
	C162.324997,249.182190 165.528610,242.194046 171.708817,240.105637 
	C177.708557,238.078201 184.434265,241.918182 185.948654,248.366425 
	C187.015442,252.908859 185.197708,256.484833 181.474945,259.619324 
z"/>
<path fill="#000000" opacity="1.000000" stroke="none" 
	d="
M349.866425,253.325317 
	C346.340149,263.488464 335.869751,263.296661 331.265991,258.625458 
	C327.527161,254.831848 326.878387,249.437683 329.715637,244.915451 
	C332.406219,240.626968 337.509033,238.663376 342.269775,240.084549 
	C347.697144,241.704727 350.455750,246.295975 349.866425,253.325317 
z"/>
<path fill="#000000" opacity="1.000000" stroke="none" 
	d="
M347.733276,295.285583 
	C342.069580,295.651398 338.259979,293.451141 336.128693,288.671783 
	C334.256195,284.472687 335.001740,280.484100 337.955170,277.038666 
	C341.106445,273.362488 345.192902,272.563019 349.733521,273.847046 
	C354.120514,275.087646 357.172119,279.182159 357.323517,283.884979 
	C357.503479,289.474548 354.541138,293.149078 347.733276,295.285583 
z"/>
<path fill="#000000" opacity="1.000000" stroke="none" 
	d="
M247.448303,189.747528 
	C250.703674,185.014679 254.639084,182.915268 260.068481,184.598877 
	C265.016052,186.133041 268.219086,189.883453 268.201813,194.755127 
	C268.184296,199.703629 265.718750,203.307388 261.201569,205.349487 
	C256.666229,207.399841 252.570831,206.032410 249.279083,202.841232 
	C245.581284,199.256409 244.711868,194.846130 247.448303,189.747528 
z"/>
<path fill="#000000" opacity="1.000000" stroke="none" 
	d="
M300.542755,207.282150 
	C296.545776,212.715027 292.523376,214.543747 287.573456,212.954575 
	C283.125824,211.526672 280.239441,208.477798 279.712067,203.636505 
	C279.164886,198.613800 281.221985,194.825562 285.643494,192.541138 
	C289.869232,190.357895 294.182129,190.814224 297.785339,193.813370 
	C301.976929,197.302216 302.514618,201.950394 300.542755,207.282150 
z"/>
<path fill="#000000" opacity="1.000000" stroke="none" 
	d="
M301.564911,365.327759 
	C301.089355,372.551300 297.763763,376.626953 292.192322,377.277008 
	C286.582092,377.931580 281.214539,374.449341 279.909302,369.308350 
	C278.568176,364.026062 281.056213,358.828644 285.890106,356.331268 
	C290.987305,353.697876 300.798706,356.036499 301.564911,365.327759 
z"/>
<path fill="#000000" opacity="1.000000" stroke="none" 
	d="
M330.698975,343.903442 
	C331.812103,350.796753 329.795624,355.258179 324.860138,357.584076 
	C320.701477,359.543884 315.219757,358.463348 312.066772,354.942139 
	C309.024078,351.544128 308.173737,347.549255 309.965332,343.374207 
	C311.722260,339.279907 314.911530,336.822052 319.588623,336.642883 
	C324.829193,336.442108 328.559235,338.564972 330.698975,343.903442 
z"/>
<path fill="#000000" opacity="1.000000" stroke="none" 
	d="
M216.667206,193.609283 
	C222.593048,190.182144 228.694397,190.994110 232.147644,195.396591 
	C235.600800,199.798950 235.101334,206.450531 231.026794,210.323303 
	C227.011337,214.139908 220.965393,214.373795 216.477417,210.886139 
	C211.344604,206.897385 211.294128,199.707138 216.667206,193.609283 
z"/>
<path fill="#000000" opacity="1.000000" stroke="none" 
	d="
M217.289932,357.146790 
	C223.605698,354.109131 229.421280,355.309174 232.596832,360.014465 
	C235.525696,364.354218 234.922943,370.508667 231.208572,374.189545 
	C227.281296,378.081421 221.297440,378.340851 216.622101,375.079010 
	C211.285294,371.355713 211.014618,361.110077 217.289932,357.146790 
z"/>
<path fill="#000000" opacity="1.000000" stroke="none" 
	d="
M204.950470,346.309204 
	C204.447876,352.786346 201.647125,356.795410 197.074142,358.086670 
	C192.512604,359.374664 187.265076,357.562195 184.744919,353.731445 
	C182.120926,349.742859 181.995544,345.653076 184.582687,341.588562 
	C187.192154,337.489014 191.063828,336.012238 195.714951,336.751526 
	C200.897186,337.575226 203.869080,340.815277 204.950470,346.309204 
z"/>
</svg>