<svg version="1.1" id="Layer_1" xmlns="http://www.w3.org/2000/svg" xmlns:xlink="http://www.w3.org/1999/xlink" x="0px" y="0px"
	 width="100%" viewBox="0 0 512 512" enable-background="new 0 0 512 512" xml:space="preserve">
<path fill="#000000" opacity="1.000000" stroke="none" 
	d="
M197.137421,135.428238 
	C195.538101,129.658661 195.337601,124.285133 196.652283,118.803406 
	C199.098129,108.605309 207.320404,102.471748 217.887695,103.177696 
	C230.059875,103.990860 237.555099,110.894386 238.273026,122.136658 
	C238.473511,125.276031 238.589554,128.491318 238.151520,131.587906 
	C236.763977,141.396820 229.783020,148.279083 220.610703,149.265411 
	C209.109985,150.502121 201.265396,145.979202 197.137421,135.428238 
z"/>
<path fill="#000000" opacity="1.000000" stroke="none" 
	d="
M349.479492,313.994507 
	C351.097687,321.441467 348.098541,326.852264 341.690552,328.673035 
	C336.391876,330.178619 330.705383,327.069458 328.614136,321.523376 
	C326.641998,316.293152 329.144958,310.402802 334.442230,307.807800 
	C339.888550,305.139771 345.610901,307.371979 349.479492,313.994507 
z"/>
<path fill="#000000" opacity="1.000000" stroke="none" 
	d="
M176.627869,306.873901 
	C182.131226,308.116272 185.256561,311.318481 186.103134,316.414886 
	C186.785263,320.521210 185.093338,323.954895 181.899246,326.523010 
	C177.797043,329.821350 172.625397,330.000427 168.508987,326.780975 
	C164.846817,323.916840 163.038315,320.111389 164.309128,315.337616 
	C165.772232,309.841553 169.765320,307.007660 176.627869,306.873901 
z"/>
<path fill="#000000" opacity="1.000000" stroke="none" 
	d="
M258.700775,362.688965 
	C265.773224,364.732056 269.290680,369.819000 268.030457,375.591064 
	C266.695770,381.704224 261.365570,385.251495 254.914001,384.320099 
	C249.613525,383.554901 245.439941,378.301056 245.821503,372.874207 
	C246.251541,366.758057 251.127869,362.761658 258.700775,362.688965 
z"/>
<path fill="#000000" opacity="1.000000" stroke="none" 
	d="
M340.880737,274.635132 
	C347.548004,272.282562 352.685242,273.662842 355.626831,278.319458 
	C358.479889,282.835907 357.741486,288.728912 353.863281,292.393738 
	C349.335205,296.672699 341.859985,296.304291 337.889404,291.606415 
	C333.365784,286.254272 334.393127,279.777252 340.880737,274.635132 
z"/>
<path fill="#000000" opacity="1.000000" stroke="none" 
	d="
M171.252533,294.911926 
	C164.148697,295.615021 160.069916,293.790222 157.866150,289.064148 
	C155.840286,284.719574 156.310303,280.627289 159.553894,276.998230 
	C163.893204,272.143250 171.616745,272.009094 176.021042,276.675537 
	C180.487991,281.408356 179.881683,288.861572 174.642868,292.986908 
	C173.736603,293.700562 172.645645,294.179688 171.252533,294.911926 
z"/>
<path fill="#000000" opacity="1.000000" stroke="none" 
	d="
M193.127136,232.231064 
	C182.929184,229.487427 179.467407,220.104797 185.888916,213.453552 
	C189.165894,210.059341 193.140289,209.152176 197.701157,210.760422 
	C202.366501,212.405518 204.532578,216.000183 204.948959,220.520081 
	C205.340744,224.773087 203.304565,228.171768 199.618622,230.452881 
	C197.760468,231.602859 195.776825,232.378998 193.127136,232.231064 
z"/>
<path fill="#000000" opacity="1.000000" stroke="none" 
	d="
M169.576889,241.168152 
	C174.991394,237.803436 182.633347,240.383545 185.149185,246.001266 
	C187.511597,251.276428 185.681183,257.180328 180.551971,260.239624 
	C175.638412,263.170288 169.177551,261.761932 165.937439,257.053925 
	C162.280350,251.740051 163.448853,246.196350 169.576889,241.168152 
z"/>
<path fill="#000000" opacity="1.000000" stroke="none" 
	d="
M342.840302,261.150696 
	C335.969086,262.407959 331.358948,260.423340 329.017426,255.470032 
	C326.885712,250.960571 328.060852,245.615158 331.903473,242.342392 
	C335.779755,239.040939 341.094879,238.721909 345.343323,241.535645 
	C352.699799,246.407806 351.689758,255.624771 342.840302,261.150696 
z"/>
<path fill="#000000" opacity="1.000000" stroke="none" 
	d="
M321.613647,210.068146 
	C329.493439,212.457489 333.149811,218.577835 330.754456,224.801895 
	C328.378845,230.974640 321.577881,233.818893 315.551117,231.160126 
	C311.121857,229.206100 308.420715,224.019485 309.339905,219.233475 
	C310.409119,213.666153 314.682587,210.337402 321.613647,210.068146 
z"/>
<path fill="#000000" opacity="1.000000" stroke="none" 
	d="
M258.691956,206.169373 
	C251.696945,205.785263 248.035461,203.288086 246.406189,198.200943 
	C244.884537,193.449814 246.574585,189.613480 250.074387,186.594467 
	C254.781784,182.533722 262.395691,183.560135 266.017365,188.479568 
	C269.801849,193.620209 268.568298,200.660431 263.156097,204.248947 
	C261.930328,205.061707 260.457703,205.502197 258.691956,206.169373 
z"/>
<path fill="#000000" opacity="1.000000" stroke="none" 
	d="
M301.229736,199.024994 
	C302.333954,204.450958 301.083771,208.614182 296.615143,211.530945 
	C292.740356,214.060120 288.751740,214.046692 284.859589,211.735733 
	C280.668091,209.247009 278.605042,204.377319 279.879120,199.671799 
	C281.110870,195.122726 284.170685,192.222076 288.918915,191.448730 
	C294.326385,190.567978 298.158752,192.880157 301.229736,199.024994 
z"/>
<path fill="#000000" opacity="1.000000" stroke="none" 
	d="
M284.415863,357.245850 
	C290.175995,354.495361 295.134064,354.993469 298.533844,358.413055 
	C301.788727,361.686890 302.632355,367.285065 300.484680,371.358978 
	C298.201965,375.689026 293.749695,377.999420 288.827393,377.238007 
	C284.479523,376.565521 281.425781,373.939941 280.161926,369.879059 
	C278.654053,365.034149 279.829346,360.663757 284.415863,357.245850 
z"/>
<path fill="#000000" opacity="1.000000" stroke="none" 
	d="
M317.845642,358.285309 
	C310.805939,355.291168 308.101044,350.915771 309.408508,345.199677 
	C310.600067,339.990295 314.792847,336.659027 320.176025,336.644653 
	C326.690430,336.627228 331.238892,341.054718 331.324463,347.496429 
	C331.403137,353.420837 326.854797,358.122711 320.713654,358.431702 
	C319.887085,358.473297 319.053192,358.369507 317.845642,358.285309 
z"/>
<path fill="#000000" opacity="1.000000" stroke="none" 
	d="
M234.265015,204.570786 
	C232.476959,209.979141 229.254715,213.161224 223.716812,213.289169 
	C219.159332,213.394470 215.604080,211.406662 213.660965,207.300934 
	C211.767044,203.299133 212.069672,199.228867 214.761047,195.561447 
	C217.630920,191.650772 222.427979,190.293060 227.197388,191.929977 
	C232.183441,193.641266 234.346451,197.359863 234.265015,204.570786 
z"/>
<path fill="#000000" opacity="1.000000" stroke="none" 
	d="
M218.582184,356.302734 
	C225.759155,354.322540 230.775757,356.151245 233.340698,361.363556 
	C235.603546,365.961975 234.373276,371.672699 230.427856,374.884277 
	C225.731033,378.707489 218.557373,377.984161 214.807541,373.309235 
	C210.726974,368.222015 212.173813,361.168823 218.582184,356.302734 
z"/>
<path fill="#000000" opacity="1.000000" stroke="none" 
	d="
M192.264847,336.676697 
	C199.191483,336.831879 202.628098,339.034943 204.333771,343.937256 
	C206.031311,348.816162 204.515976,352.788239 200.819916,355.950470 
	C196.983414,359.232788 192.582245,359.257477 188.297775,356.943298 
	C184.278244,354.772186 182.337769,351.053314 182.841736,346.586304 
	C183.435394,341.324341 186.460342,337.825104 192.264847,336.676697 
z"/>
</svg>