<svg version="1.1" id="Layer_1" xmlns="http://www.w3.org/2000/svg" xmlns:xlink="http://www.w3.org/1999/xlink" x="0px" y="0px"
	 width="100%" viewBox="0 0 512 512" enable-background="new 0 0 512 512" xml:space="preserve">
<path fill="#000000" opacity="1.000000" stroke="none" 
	d="
M229.890594,61.139961 
	C209.545349,93.824654 189.317795,126.174202 169.223312,158.606232 
	C167.149445,161.953445 164.815735,163.618698 160.777954,163.338928 
	C156.299332,163.028625 151.782639,163.301895 147.283463,163.245529 
	C141.716980,163.175781 141.276749,162.433685 143.732086,157.522018 
	C154.681534,135.618744 165.625488,113.712723 176.586243,91.815117 
	C181.581924,81.834663 186.676804,71.903107 191.578812,61.877071 
	C192.741257,59.499546 194.232956,58.175774 196.893280,58.177864 
	C206.725510,58.185600 216.558502,58.105396 226.389160,58.226128 
	C227.904099,58.244732 230.492905,57.656864 229.890594,61.139961 
z"/>
<path fill="#000000" opacity="1.000000" stroke="none" 
	d="
M241.619232,102.641602 
	C248.407364,89.062065 255.040588,75.822327 261.656616,62.573986 
	C262.704163,60.476337 263.548309,58.289032 266.518616,58.301121 
	C277.163849,58.344440 287.809387,58.308655 298.454620,58.349636 
	C299.065186,58.351982 299.674164,58.770847 300.222778,58.973324 
	C301.105072,61.039299 299.634003,62.249844 298.812561,63.568474 
	C279.193268,95.063126 259.482269,126.500908 239.969208,158.061127 
	C237.592270,161.905533 234.984558,163.786636 230.378174,163.351044 
	C226.253372,162.960999 222.062897,163.304688 217.902756,163.239258 
	C212.410065,163.152893 211.894196,162.335663 214.305298,157.485168 
	C223.340637,139.308456 232.405106,121.146225 241.619232,102.641602 
z"/>
<path fill="#000000" opacity="1.000000" stroke="none" 
	d="
M287.590790,151.631302 
	C302.332642,122.124535 317.003845,92.999123 331.422699,63.749302 
	C333.314880,59.910919 335.558380,58.322369 339.772339,58.390671 
	C349.077454,58.541500 358.388550,58.303429 367.697357,58.269363 
	C368.840973,58.265175 370.044922,58.378647 370.864685,59.427330 
	C371.235565,61.131767 369.997955,62.212349 369.234711,63.437504 
	C349.791138,94.648552 330.241272,125.793999 310.961761,157.105927 
	C308.202728,161.586868 305.277771,163.921585 299.854218,163.336945 
	C294.463196,162.755798 288.953369,163.687012 283.317230,162.772781 
	C283.215637,158.294189 286.124115,155.429367 287.590790,151.631302 
z"/>
<path fill="#000000" opacity="1.000000" stroke="none" 
	d="
M341.356964,328.767883 
	C333.654846,329.153137 328.618073,325.304108 327.910889,318.899109 
	C327.336060,313.692810 331.692444,307.957581 337.026947,306.897675 
	C342.414337,305.827209 348.055969,309.321167 349.777344,314.794159 
	C351.559845,320.461456 348.475525,325.778412 341.356964,328.767883 
z"/>
<path fill="#000000" opacity="1.000000" stroke="none" 
	d="
M203.174927,226.960297 
	C198.685654,232.157593 194.346603,233.423965 189.412476,231.247696 
	C185.024536,229.312332 182.321548,224.775070 182.750488,220.064789 
	C183.164062,215.523285 186.717819,211.403503 191.389099,210.305298 
	C195.621506,209.310257 199.436539,210.563705 202.137589,213.785614 
	C205.344727,217.611206 206.205154,222.037750 203.174927,226.960297 
z"/>
<path fill="#000000" opacity="1.000000" stroke="none" 
	d="
M247.580688,367.856079 
	C251.072769,362.713715 255.743759,361.569244 260.970001,363.184845 
	C265.345276,364.537384 267.761566,368.063232 268.155579,372.542725 
	C268.571320,377.268982 266.511047,381.095703 262.227570,383.220886 
	C257.855072,385.390228 253.464523,385.035553 249.630203,381.790619 
	C245.748276,378.505463 245.037781,373.798218 247.580688,367.856079 
z"/>
<path fill="#000000" opacity="1.000000" stroke="none" 
	d="
M177.433273,307.059998 
	C185.235413,310.255432 188.102524,316.308838 185.098007,322.523773 
	C182.187653,328.543945 175.321152,330.702179 169.510208,327.423187 
	C165.171127,324.974731 162.991165,319.685425 164.414978,315.060455 
	C166.146072,309.437317 170.531372,306.621002 177.433273,307.059998 
z"/>
<path fill="#000000" opacity="1.000000" stroke="none" 
	d="
M335.337402,282.488525 
	C337.596710,276.033142 341.457001,272.966583 346.552612,273.280975 
	C352.026520,273.618744 356.249817,277.146606 357.195404,282.171143 
	C358.101044,286.983459 355.656860,292.005188 351.162720,294.249634 
	C343.839874,297.906769 334.363708,292.558258 335.337402,282.488525 
z"/>
<path fill="#000000" opacity="1.000000" stroke="none" 
	d="
M158.080948,289.507996 
	C155.392197,281.787537 158.294296,275.399323 164.927231,273.663116 
	C171.605499,271.915039 177.709244,275.913269 178.945450,282.845673 
	C179.736710,287.282745 176.733322,292.433655 172.146469,294.506378 
	C167.221313,296.731934 162.478821,295.144531 158.080948,289.507996 
z"/>
<path fill="#000000" opacity="1.000000" stroke="none" 
	d="
M339.822327,261.800323 
	C330.725128,262.326050 324.758057,252.336548 329.716064,244.927963 
	C332.358582,240.979355 336.028229,239.040543 340.800659,239.809814 
	C345.773041,240.611328 348.856720,243.703140 349.958466,248.520325 
	C350.990112,253.030807 349.132416,256.619812 345.665039,259.491730 
	C344.068542,260.814117 342.206757,261.437347 339.822327,261.800323 
z"/>
<path fill="#000000" opacity="1.000000" stroke="none" 
	d="
M166.302002,257.548157 
	C163.154327,252.883331 163.051331,248.473694 166.172150,244.232986 
	C168.866241,240.572189 172.613068,238.990555 177.130310,239.842255 
	C181.633850,240.691376 184.492401,243.504166 185.806808,247.871246 
	C187.140457,252.302292 185.153763,257.230469 180.974594,259.960052 
	C176.345047,262.983826 171.476624,262.271851 166.302002,257.548157 
z"/>
<path fill="#000000" opacity="1.000000" stroke="none" 
	d="
M309.676025,217.961548 
	C312.960022,211.712814 317.058105,209.210693 321.913330,210.163513 
	C326.986908,211.159180 330.539459,214.613190 331.227142,219.303101 
	C331.930969,224.102997 329.993744,227.761002 326.095276,230.406097 
	C322.233002,233.026672 318.135345,232.873550 314.348999,230.445435 
	C309.980408,227.643921 308.454865,223.445801 309.676025,217.961548 
z"/>
<path fill="#000000" opacity="1.000000" stroke="none" 
	d="
M279.851929,363.566467 
	C283.094238,356.966248 286.861481,354.660645 292.377075,355.512482 
	C297.395294,356.287537 300.457031,359.125092 301.381226,364.129395 
	C302.570831,370.570892 298.456451,376.481079 292.308380,377.264404 
	C285.404846,378.143982 279.926697,373.468719 279.676178,366.462555 
	C279.646576,365.634827 279.734924,364.802887 279.851929,363.566467 
z"/>
<path fill="#000000" opacity="1.000000" stroke="none" 
	d="
M257.071594,206.246674 
	C251.401642,205.497055 247.759842,202.831543 246.245789,197.573700 
	C245.043152,193.397278 246.607529,189.930115 249.430054,187.154022 
	C252.797653,183.841843 256.915680,183.105423 261.398529,184.997513 
	C265.691101,186.809265 267.946686,190.191238 268.160858,194.639877 
	C268.377594,199.141037 266.122040,202.595917 262.213043,204.865662 
	C260.768890,205.704208 259.202545,206.279785 257.071594,206.246674 
z"/>
<path fill="#000000" opacity="1.000000" stroke="none" 
	d="
M298.576141,194.447159 
	C303.231415,201.379562 302.313324,207.929855 296.475616,211.610413 
	C291.198303,214.937668 284.624420,213.442169 281.246429,208.145874 
	C278.517761,203.867645 279.227173,197.997772 282.903687,194.433090 
	C287.082275,190.381622 292.469574,190.289474 298.576141,194.447159 
z"/>
<path fill="#000000" opacity="1.000000" stroke="none" 
	d="
M309.154419,346.330200 
	C311.101105,339.602966 314.379059,336.750824 319.903931,336.648041 
	C325.244873,336.548676 328.858612,338.958740 330.660248,343.821564 
	C332.764832,349.501892 329.668213,356.050446 323.952606,358.006531 
	C318.200714,359.975098 311.650269,356.837799 309.795502,351.116089 
	C309.343018,349.720245 309.311615,348.187897 309.154419,346.330200 
z"/>
<path fill="#000000" opacity="1.000000" stroke="none" 
	d="
M214.989716,195.226471 
	C218.833832,191.038239 223.165421,190.315857 227.918030,192.275620 
	C231.945694,193.936462 234.075806,197.049515 234.363403,201.479996 
	C234.679077,206.342575 232.554977,209.790894 228.466080,212.113922 
	C224.501312,214.366425 219.006241,213.462570 215.605240,210.141830 
	C211.927826,206.551193 211.611191,201.132599 214.989716,195.226471 
z"/>
<path fill="#000000" opacity="1.000000" stroke="none" 
	d="
M213.793564,371.725006 
	C210.872437,362.440887 215.756256,354.692078 223.773895,355.230774 
	C229.027817,355.583771 233.260208,359.008911 234.216049,363.681183 
	C235.324356,369.098755 232.826004,374.149323 227.898727,376.452057 
	C223.004730,378.739258 218.190964,377.230927 213.793564,371.725006 
z"/>
<path fill="#000000" opacity="1.000000" stroke="none" 
	d="
M204.101135,351.709778 
	C199.954590,357.964264 195.631699,359.763306 190.119980,357.829987 
	C184.690125,355.925385 181.550140,349.993805 183.150070,344.663544 
	C185.004120,338.486786 191.154648,335.153046 197.264481,337.013214 
	C203.277740,338.843964 206.037994,344.507355 204.101135,351.709778 
z"/>
</svg>