<svg version="1.1" id="Layer_1" xmlns="http://www.w3.org/2000/svg" xmlns:xlink="http://www.w3.org/1999/xlink" x="0px" y="0px"
	 width="100%" viewBox="0 0 512 512" enable-background="new 0 0 512 512" xml:space="preserve">
<path fill="#000000" opacity="1.000000" stroke="none" 
	d="
M271.615784,419.452759 
	C291.112915,412.484894 310.970551,409.893463 331.135986,408.547272 
	C350.289093,407.268677 369.409790,407.272705 388.503632,408.785248 
	C412.966522,410.723114 437.082733,414.331177 459.132385,426.249481 
	C476.065125,435.401917 487.013000,449.050110 491.007263,468.020538 
	C492.327911,474.292816 491.785156,474.924377 485.311615,474.960541 
	C479.815308,474.991241 474.318481,474.941742 468.821899,474.921692 
	C466.532623,474.913361 464.529633,474.541504 463.792236,471.853302 
	C460.918335,461.376312 453.297089,455.114471 444.162628,450.461914 
	C431.242340,443.881104 417.176788,441.237762 402.971863,439.354187 
	C377.459198,435.971191 351.801270,436.570984 326.200928,437.467102 
	C308.091736,438.101013 289.982727,439.729401 272.955872,446.976624 
	C261.690430,451.771606 253.007492,458.889343 250.208405,471.496033 
	C249.700760,473.782349 248.311432,474.907776 245.981400,474.909912 
	C239.485855,474.915894 232.990295,474.941345 226.494797,474.928436 
	C222.485718,474.920502 222.578186,472.562103 223.156738,469.502808 
	C226.781555,450.335052 238.022751,436.827637 254.461227,427.206146 
	C259.776123,424.095367 265.393707,421.556702 271.615784,419.452759 
z"/>
<path fill="#000000" opacity="1.000000" stroke="none" 
	d="
M346.238281,326.320862 
	C338.980347,330.576569 332.275696,329.050171 329.115509,322.724762 
	C326.355957,317.201324 328.840729,310.440582 334.628113,307.725769 
	C338.956512,305.695312 344.569885,307.033295 347.655151,310.830780 
	C351.417419,315.461670 351.072296,320.221680 346.238281,326.320862 
z"/>
<path fill="#000000" opacity="1.000000" stroke="none" 
	d="
M199.969910,230.257263 
	C195.119263,233.265213 190.729813,232.814285 186.735962,229.573868 
	C183.397659,226.865356 181.996262,223.096405 182.953629,218.897018 
	C183.988281,214.358551 186.942947,211.357742 191.572357,210.225983 
	C195.977341,209.149109 201.221786,211.510895 203.425613,215.525970 
	C206.368362,220.887268 205.455139,225.150818 199.969910,230.257263 
z"/>
<path fill="#000000" opacity="1.000000" stroke="none" 
	d="
M344.439148,273.404236 
	C355.675018,272.580017 359.312714,282.964508 356.395081,288.754303 
	C353.961792,293.582947 349.392395,296.131195 344.116455,295.210083 
	C339.384308,294.383850 335.673553,290.183319 335.178101,285.091797 
	C334.676056,279.932770 338.023224,275.560059 344.439148,273.404236 
z"/>
<path fill="#000000" opacity="1.000000" stroke="none" 
	d="
M169.649750,295.250397 
	C164.051941,295.638123 160.117493,293.633392 157.832260,288.921112 
	C155.823227,284.778320 156.393448,280.846497 159.360657,277.290009 
	C162.484070,273.546295 166.482620,272.629395 171.052582,273.752594 
	C175.600525,274.870361 178.873230,279.103271 179.113022,284.033936 
	C179.336685,288.633118 175.909546,292.867035 169.649750,295.250397 
z"/>
<path fill="#000000" opacity="1.000000" stroke="none" 
	d="
M330.306122,257.544312 
	C327.150574,252.876083 327.079285,248.480759 330.194336,244.229965 
	C332.893097,240.547150 336.634247,238.984726 341.147339,239.837692 
	C345.647278,240.688202 348.527008,243.495453 349.830292,247.869446 
	C351.198120,252.460022 348.995087,257.583527 344.567139,260.255920 
	C340.140167,262.927734 335.267181,262.089661 330.306122,257.544312 
z"/>
<path fill="#000000" opacity="1.000000" stroke="none" 
	d="
M164.044479,252.556488 
	C164.144516,245.706146 167.108078,241.309723 172.200272,239.925278 
	C176.706741,238.700058 181.875977,240.726440 184.401993,244.708405 
	C187.873367,250.180634 186.217209,256.851837 180.546524,260.238495 
	C175.272263,263.388428 168.532471,261.607880 165.431900,256.184570 
	C164.861130,255.186188 164.562134,254.032425 164.044479,252.556488 
z"/>
<path fill="#000000" opacity="1.000000" stroke="none" 
	d="
M320.872681,232.237518 
	C315.533936,232.009857 311.807831,229.897232 309.957947,225.173859 
	C308.365021,221.106583 308.951935,217.213303 311.902710,213.988068 
	C315.028595,210.571426 318.805084,208.942062 323.577301,210.560043 
	C328.188782,212.123520 330.741882,215.254913 331.278381,220.000031 
	C331.828735,224.868088 329.493225,228.351349 325.491211,230.767212 
	C324.248352,231.517517 322.694183,231.752136 320.872681,232.237518 
z"/>
<path fill="#000000" opacity="1.000000" stroke="none" 
	d="
M266.749878,200.372986 
	C262.459167,205.844925 258.665253,207.291290 253.765259,205.580307 
	C248.829971,203.856995 245.663330,199.544617 245.814590,194.752960 
	C245.956848,190.245850 249.259872,185.989929 253.919983,184.486328 
	C258.347687,183.057724 262.228241,184.519730 265.209198,187.655426 
	C268.573944,191.194824 269.209290,195.510406 266.749878,200.372986 
z"/>
<path fill="#000000" opacity="1.000000" stroke="none" 
	d="
M167.767380,309.690125 
	C172.384018,305.883789 176.963272,305.943634 181.436874,308.897430 
	C185.051147,311.283783 186.728287,314.978973 186.088333,319.243713 
	C185.360916,324.091370 182.404190,327.314087 177.594940,328.666046 
	C173.396179,329.846405 168.397827,327.852264 165.887772,324.017181 
	C162.784058,319.275024 163.215988,315.429108 167.767380,309.690125 
z"/>
<path fill="#000000" opacity="1.000000" stroke="none" 
	d="
M280.538483,206.903381 
	C278.546997,198.340744 282.271820,192.083145 289.400604,191.358902 
	C294.566223,190.834091 299.337524,193.633347 300.985657,198.155563 
	C302.872864,203.333801 301.052551,208.751846 296.455170,211.640076 
	C291.925262,214.485931 286.633820,213.903610 282.789368,210.052841 
	C281.979767,209.241913 281.397614,208.203918 280.538483,206.903381 
z"/>
<path fill="#000000" opacity="1.000000" stroke="none" 
	d="
M289.260071,377.275452 
	C282.364044,375.240936 279.563812,371.799652 279.672058,365.980621 
	C279.762146,361.140533 282.919037,357.040863 287.593994,355.692963 
	C292.432770,354.297821 297.582092,356.285645 300.124542,360.530121 
	C304.775940,368.295441 299.395905,376.931671 289.260071,377.275452 
z"/>
<path fill="#000000" opacity="1.000000" stroke="none" 
	d="
M251.461807,363.987579 
	C258.453033,361.391663 263.730377,362.843719 266.644897,367.855316 
	C269.375031,372.549896 268.395721,378.340729 264.272217,381.885681 
	C259.688446,385.826263 252.435715,385.282867 248.539841,380.706940 
	C244.102829,375.495453 245.042267,369.494446 251.461807,363.987579 
z"/>
<path fill="#000000" opacity="1.000000" stroke="none" 
	d="
M311.052856,353.737091 
	C308.355042,347.649384 308.785828,342.996552 312.369843,339.662811 
	C316.019501,336.267975 320.399811,335.636566 324.887146,337.523163 
	C329.550598,339.483765 331.504517,343.441620 331.284302,348.365112 
	C331.076080,353.020752 328.347931,356.274780 324.217773,357.779236 
	C319.253906,359.587463 314.710602,358.346130 311.052856,353.737091 
z"/>
<path fill="#000000" opacity="1.000000" stroke="none" 
	d="
M212.633850,366.075867 
	C213.561142,359.566254 217.055771,355.758606 222.183594,355.249115 
	C227.076813,354.762939 231.953369,357.682983 233.726227,362.160767 
	C235.536880,366.733978 234.041245,372.098389 230.121185,375.091339 
	C226.125473,378.141968 220.913895,378.162048 216.735260,375.085114 
	C213.857269,372.965881 212.499237,370.079559 212.633850,366.075867 
z"/>
<path fill="#000000" opacity="1.000000" stroke="none" 
	d="
M233.101639,207.633591 
	C229.909424,212.543991 225.659439,214.347107 220.463425,212.918503 
	C216.401520,211.801682 213.438553,209.104294 212.760773,204.677704 
	C212.027740,199.890152 213.289810,195.795395 217.518036,192.969971 
	C221.268661,190.463669 226.825378,190.795883 230.546082,193.739059 
	C234.410690,196.796051 235.326965,201.292679 233.101639,207.633591 
z"/>
<path fill="#000000" opacity="1.000000" stroke="none" 
	d="
M193.993118,358.380066 
	C186.608994,357.390778 182.545959,353.177338 182.749542,347.159576 
	C182.935013,341.676819 187.393600,336.994995 192.745743,336.662872 
	C199.051544,336.271606 203.726624,339.849670 204.862564,345.936401 
	C205.983994,351.945374 201.461578,357.332458 193.993118,358.380066 
z"/>
</svg>