<svg version="1.1" id="Layer_1" xmlns="http://www.w3.org/2000/svg" xmlns:xlink="http://www.w3.org/1999/xlink" x="0px" y="0px"
	 width="100%" viewBox="0 0 512 512" enable-background="new 0 0 512 512" xml:space="preserve">
<path fill="#000000" opacity="1.000000" stroke="none" 
	d="
M285.122284,446.280151 
	C274.204193,445.902496 264.342987,443.093140 254.754120,439.149445 
	C247.985519,436.365631 241.162399,433.797974 234.010147,432.086487 
	C220.405136,428.830933 208.738083,432.587097 198.339355,441.406158 
	C196.818237,442.696198 195.289444,443.978607 193.725677,445.215881 
	C193.360336,445.504913 192.837662,445.595093 192.451248,445.750977 
	C190.690689,445.123505 190.877991,443.653015 190.853424,442.383575 
	C190.789062,439.056335 191.297974,435.645203 190.735291,432.414337 
	C189.149124,423.306824 193.868118,418.193207 201.068634,414.011322 
	C215.353836,405.714844 230.352966,406.261627 245.510620,410.305817 
	C252.874466,412.270538 259.992615,415.196808 267.151794,417.875427 
	C273.093201,420.098419 279.130463,421.842102 285.424500,422.668762 
	C297.170837,424.211487 306.896088,419.715302 315.755157,412.569672 
	C317.661682,411.031860 319.187897,408.935089 321.646179,408.274597 
	C323.364563,408.978943 323.172913,410.439178 323.193604,411.715027 
	C323.250305,415.208923 322.725311,418.787811 323.306976,422.182892 
	C324.806030,430.932800 320.238251,435.764801 313.342651,439.710510 
	C304.691956,444.660431 295.466522,446.710083 285.122284,446.280151 
z"/>
<path fill="#000000" opacity="1.000000" stroke="none" 
	d="
M191.867584,497.937469 
	C190.000031,490.520142 190.967178,483.213257 191.055161,475.939301 
	C191.083389,473.606689 193.170303,472.249939 194.804947,470.856873 
	C205.751053,461.528625 218.545944,458.659760 232.564148,460.169983 
	C244.783997,461.486450 256.066711,465.973083 267.425629,470.306976 
	C276.935211,473.935333 286.644806,476.994232 297.062836,474.676056 
	C304.041504,473.123169 309.988068,469.542480 315.517395,465.127075 
	C317.519653,463.528198 319.142181,461.250336 322.611633,460.683258 
	C323.722839,468.285858 323.977325,475.799469 322.656555,482.984497 
	C321.811127,487.583679 316.642731,489.818878 312.705597,492.287781 
	C301.613831,499.243164 289.378662,499.371918 276.971191,497.924072 
	C267.625092,496.833496 258.959991,493.353882 250.360184,489.746307 
	C243.120102,486.709106 235.667740,484.339081 227.860718,483.417358 
	C215.671997,481.978271 205.899277,487.285156 197.004852,494.886047 
	C195.538147,496.139496 194.495636,498.100952 191.867584,497.937469 
z"/>
<path fill="#000000" opacity="1.000000" stroke="none" 
	d="
M349.750122,314.756775 
	C350.619507,321.777191 348.173065,326.260956 342.699707,328.329742 
	C338.327026,329.982513 333.060181,328.412201 330.253510,324.544098 
	C327.707062,321.034668 327.020874,317.253876 329.067322,313.276581 
	C331.123657,309.279968 334.345367,306.709076 338.953094,306.797119 
	C344.082550,306.895081 347.789032,309.411377 349.750122,314.756775 
z"/>
<path fill="#000000" opacity="1.000000" stroke="none" 
	d="
M184.253937,215.615051 
	C188.727524,210.098831 192.438522,208.870209 197.853653,210.822113 
	C202.711151,212.573013 204.664139,216.453262 205.039490,221.179504 
	C205.378845,225.452438 201.798325,229.974106 197.232071,231.605255 
	C192.833115,233.176620 188.967911,231.979752 185.899017,228.754868 
	C182.359634,225.035538 181.657608,220.649750 184.253937,215.615051 
z"/>
<path fill="#000000" opacity="1.000000" stroke="none" 
	d="
M169.738373,327.542175 
	C164.201828,323.240112 162.743164,319.023346 164.775085,313.980774 
	C166.578384,309.505585 171.247238,306.426025 175.706421,306.770538 
	C180.726639,307.158447 184.718719,310.579407 185.941345,315.600159 
	C186.952240,319.751373 185.481812,323.298767 182.529388,325.980042 
	C178.922470,329.255768 174.646362,330.132690 169.738373,327.542175 
z"/>
<path fill="#000000" opacity="1.000000" stroke="none" 
	d="
M354.890350,277.271301 
	C358.157074,282.085114 358.267700,286.629120 355.008667,291.015778 
	C352.123749,294.898834 348.049744,296.163422 343.483490,295.028381 
	C338.853180,293.877441 336.107483,290.622070 335.373291,285.906677 
	C334.594116,280.902100 336.716858,277.142365 340.967133,274.630707 
	C345.197906,272.130615 349.814728,273.001221 354.890350,277.271301 
z"/>
<path fill="#000000" opacity="1.000000" stroke="none" 
	d="
M173.170959,274.541595 
	C178.580109,278.712402 180.165024,282.874664 178.424179,287.602386 
	C176.585663,292.595337 172.388351,295.527222 167.384918,295.313416 
	C162.544907,295.106628 158.512329,291.927612 157.138107,287.195099 
	C155.955780,283.123505 157.059082,279.569580 159.931717,276.628326 
	C163.634750,272.836823 168.072296,272.529694 173.170959,274.541595 
z"/>
<path fill="#000000" opacity="1.000000" stroke="none" 
	d="
M342.839966,261.148193 
	C335.933533,262.390656 331.367767,260.420441 329.026733,255.458450 
	C326.901367,250.953583 328.079498,245.600128 331.915039,242.333862 
	C335.789612,239.034363 341.103546,238.718979 345.352661,241.536331 
	C352.701324,246.408844 351.686890,255.620636 342.839966,261.148193 
z"/>
<path fill="#000000" opacity="1.000000" stroke="none" 
	d="
M169.145828,260.125244 
	C163.989365,255.451981 162.780945,251.510742 164.754059,246.703934 
	C166.617661,242.163910 170.960617,239.404816 175.781784,239.697968 
	C180.695572,239.996735 184.487625,243.108444 185.862930,247.994934 
	C187.087082,252.344437 185.542374,255.974701 182.454315,258.837891 
	C178.608521,262.403717 174.120193,262.574921 169.145828,260.125244 
z"/>
<path fill="#000000" opacity="1.000000" stroke="none" 
	d="
M330.641113,225.036987 
	C328.069397,229.894638 324.520081,232.642593 319.240448,232.135788 
	C314.740601,231.703857 311.466492,229.311142 309.887604,224.951370 
	C308.316895,220.614136 309.228699,216.716934 312.380676,213.427444 
	C315.978668,209.672501 321.034607,208.963608 325.643494,211.392914 
	C330.214905,213.802475 331.891632,218.104370 330.641113,225.036987 
z"/>
<path fill="#000000" opacity="1.000000" stroke="none" 
	d="
M260.990784,205.454453 
	C254.405182,206.919510 249.098434,204.580887 246.876389,199.542847 
	C244.708130,194.626740 246.403503,188.932327 250.926651,185.938766 
	C255.628830,182.826706 262.254211,183.819763 265.754272,188.161224 
	C269.332733,192.599945 268.892975,199.096802 264.650635,203.075989 
	C263.696106,203.971344 262.466309,204.573212 260.990784,205.454453 
z"/>
<path fill="#000000" opacity="1.000000" stroke="none" 
	d="
M279.933136,369.378815 
	C277.970856,360.430023 285.265991,354.912354 291.027496,355.267303 
	C296.584961,355.609741 300.509125,358.972778 301.407013,364.248596 
	C302.333008,369.689575 299.979767,374.199860 295.031830,376.467285 
	C290.340546,378.617096 285.016449,377.188416 281.725037,372.815491 
	C281.035278,371.899109 280.592712,370.796600 279.933136,369.378815 
z"/>
<path fill="#000000" opacity="1.000000" stroke="none" 
	d="
M255.317505,362.686462 
	C262.946564,361.333862 268.647980,367.807373 268.211761,374.203491 
	C267.769012,380.694672 262.098358,385.084808 255.277161,384.322449 
	C250.429260,383.780609 246.540482,379.809906 245.888641,374.736084 
	C245.211594,369.466217 248.707550,364.797363 255.317505,362.686462 
z"/>
<path fill="#000000" opacity="1.000000" stroke="none" 
	d="
M296.774109,193.001343 
	C301.517578,196.545883 302.623352,201.100296 301.020172,206.080811 
	C299.717194,210.128830 296.537354,212.644638 292.210358,213.235336 
	C287.458313,213.884064 283.630371,212.088516 281.193878,208.001999 
	C278.650208,203.735687 278.961334,199.395386 282.033417,195.440750 
	C285.380981,191.131500 290.058502,190.333969 296.774109,193.001343 
z"/>
<path fill="#000000" opacity="1.000000" stroke="none" 
	d="
M313.728424,356.442627 
	C308.735687,351.333771 307.836060,346.612335 310.689484,341.928680 
	C313.468048,337.367889 319.044342,335.393188 324.156677,337.159576 
	C328.689117,338.725616 331.672455,343.476868 331.307037,348.547241 
	C330.719330,356.702026 322.309326,360.652283 313.728424,356.442627 
z"/>
<path fill="#000000" opacity="1.000000" stroke="none" 
	d="
M213.803436,371.718872 
	C210.873367,362.464417 215.771317,354.694977 223.779526,355.234650 
	C229.018524,355.587708 233.258209,359.021057 234.214066,363.684631 
	C235.321747,369.089081 232.816223,374.154846 227.899155,376.452240 
	C223.008087,378.737457 218.212219,377.231171 213.803436,371.718872 
z"/>
<path fill="#000000" opacity="1.000000" stroke="none" 
	d="
M221.432434,213.199524 
	C213.448395,209.923553 210.631119,204.331192 213.359451,197.938568 
	C215.511597,192.896011 220.523010,190.394760 225.960800,191.649124 
	C231.622604,192.955170 234.729263,197.305298 234.338181,203.379593 
	C234.014908,208.400635 229.952072,212.648117 224.824142,213.254211 
	C223.844772,213.369980 222.838745,213.260162 221.432434,213.199524 
z"/>
<path fill="#000000" opacity="1.000000" stroke="none" 
	d="
M191.490784,358.204956 
	C185.912735,356.530182 182.937973,353.026642 182.806137,347.631134 
	C182.696274,343.134613 184.905853,339.628754 188.992554,337.668152 
	C193.045090,335.723969 197.056473,336.205231 200.689987,338.869843 
	C204.403717,341.593231 205.883255,346.553772 204.386581,350.815765 
	C202.527176,356.110718 198.641068,358.431946 191.490784,358.204956 
z"/>
</svg>