<svg version="1.1" id="Layer_1" xmlns="http://www.w3.org/2000/svg" xmlns:xlink="http://www.w3.org/1999/xlink" x="0px" y="0px"
	 width="100%" viewBox="0 0 512 512" enable-background="new 0 0 512 512" xml:space="preserve">
<path fill="#000000" opacity="1.000000" stroke="none" 
	d="
M228.716553,138.288818 
	C224.481827,137.531647 223.370483,135.211990 223.531448,131.446732 
	C223.801331,125.133324 223.733139,118.795410 223.535416,112.476311 
	C223.436203,109.306084 224.541443,107.633720 227.622650,106.721199 
	C246.050858,101.263588 263.267975,92.933105 280.329437,84.249969 
	C281.663422,83.571053 282.980255,82.818275 284.384094,82.324371 
	C288.697662,80.806732 290.199585,81.858688 290.320953,86.434677 
	C290.391541,89.096161 289.953735,91.831444 290.421814,94.410637 
	C291.779083,101.889252 288.326965,106.049309 281.859741,109.104973 
	C273.172272,113.209686 264.764221,117.905716 255.397659,122.784706 
	C259.372650,124.844002 262.716919,126.499222 265.988525,128.287384 
	C272.995422,132.117142 279.936157,136.068542 286.964752,139.857483 
	C289.458435,141.201752 290.513489,143.005020 290.381561,145.868530 
	C290.190277,150.020905 290.385559,154.189545 290.324738,158.349899 
	C290.252960,163.257751 288.420898,164.616745 283.776215,162.750946 
	C279.773895,161.143204 275.985809,159.002777 272.100647,157.102676 
	C258.046417,150.229218 243.833496,143.720108 228.716553,138.288818 
z"/>
<path fill="#000000" opacity="1.000000" stroke="none" 
	d="
M347.975433,311.224243 
	C352.752197,317.171814 349.347717,325.920837 342.832275,328.323761 
	C336.823090,330.539948 330.331390,327.234100 328.349579,320.774506 
	C326.970947,316.281006 329.108032,311.074615 333.432373,308.391632 
	C338.106567,305.491730 342.760712,306.311096 347.975433,311.224243 
z"/>
<path fill="#000000" opacity="1.000000" stroke="none" 
	d="
M246.529755,369.978943 
	C250.482849,363.053314 255.549927,360.898743 261.457001,363.315704 
	C266.319977,365.305450 269.211823,370.908875 267.957855,375.912018 
	C266.404541,382.109467 260.622711,385.610260 254.206833,384.238037 
	C248.338257,382.982849 245.091125,377.212830 246.529755,369.978943 
z"/>
<path fill="#000000" opacity="1.000000" stroke="none" 
	d="
M335.434509,286.329651 
	C335.128021,279.129669 338.339935,274.585022 344.183289,273.438141 
	C349.623993,272.370300 355.057281,275.537903 356.826935,280.809326 
	C358.557648,285.964783 356.087769,291.782928 351.095978,294.309448 
	C344.805359,297.493408 338.257294,294.295380 335.434509,286.329651 
z"/>
<path fill="#000000" opacity="1.000000" stroke="none" 
	d="
M203.173080,215.082764 
	C206.400253,223.212967 204.147491,229.132767 197.193954,231.623550 
	C191.517624,233.656830 185.294312,230.427826 183.300644,224.414948 
	C181.667618,219.489731 183.709625,214.298004 188.352737,211.570190 
	C193.331604,208.645096 198.212906,209.701553 203.173080,215.082764 
z"/>
<path fill="#000000" opacity="1.000000" stroke="none" 
	d="
M331.168884,223.477661 
	C329.083405,228.981979 325.615143,232.325241 319.887146,232.169434 
	C315.397430,232.047272 311.932678,229.826355 310.130829,225.552765 
	C308.354675,221.340088 308.862213,217.302582 311.963684,213.928040 
	C315.099670,210.515900 318.908997,208.942444 323.654480,210.590973 
	C328.241486,212.184418 330.730591,215.339188 331.282684,220.081955 
	C331.397034,221.064056 331.263031,222.075058 331.168884,223.477661 
z"/>
<path fill="#000000" opacity="1.000000" stroke="none" 
	d="
M169.148361,260.121765 
	C163.998123,255.436920 162.798264,251.514633 164.768082,246.706528 
	C166.624084,242.176254 170.983627,239.404526 175.786011,239.701492 
	C180.674774,240.003784 184.491348,243.138931 185.857193,248.002686 
	C187.077286,252.347473 185.533798,255.977280 182.449753,258.837311 
	C178.606796,262.401093 174.118362,262.560242 169.148361,260.121765 
z"/>
<path fill="#000000" opacity="1.000000" stroke="none" 
	d="
M335.000153,240.416626 
	C342.206543,238.999130 346.796448,240.952744 349.170197,246.112366 
	C351.272125,250.681274 350.048584,255.917313 346.117065,259.177460 
	C341.218292,263.239685 333.942200,262.419983 330.178223,257.381866 
	C325.900024,251.655441 327.638306,245.109360 335.000153,240.416626 
z"/>
<path fill="#000000" opacity="1.000000" stroke="none" 
	d="
M164.709183,294.931244 
	C158.364960,291.739716 155.642014,286.860382 156.988312,281.652222 
	C158.317444,276.510406 163.337357,272.916473 168.591095,273.345490 
	C174.760300,273.849243 179.224457,278.584564 179.143051,284.538300 
	C179.066040,290.168365 173.968872,295.151611 168.075043,295.307129 
	C167.084824,295.333282 166.089172,295.153046 164.709183,294.931244 
z"/>
<path fill="#000000" opacity="1.000000" stroke="none" 
	d="
M171.901428,328.457092 
	C165.844254,325.502533 163.102081,321.045074 164.060593,316.220215 
	C165.111237,310.931458 169.826904,306.785736 174.849899,306.734863 
	C179.993378,306.682770 184.358871,310.125275 185.878342,315.238403 
	C188.146347,322.870331 179.754959,331.287140 171.901428,328.457092 
z"/>
<path fill="#000000" opacity="1.000000" stroke="none" 
	d="
M301.441376,200.556549 
	C301.588135,207.788513 298.211487,212.387634 292.469452,213.230469 
	C287.135590,214.013397 281.897980,210.946930 280.163605,206.025757 
	C278.326843,200.814072 280.657074,195.081329 285.667816,192.484543 
	C292.212646,189.092743 299.140808,192.480042 301.441376,200.556549 
z"/>
<path fill="#000000" opacity="1.000000" stroke="none" 
	d="
M292.591248,377.234802 
	C286.726105,377.822723 282.662262,375.612762 280.489929,370.675018 
	C278.689026,366.581696 279.267273,362.474823 282.340149,359.053070 
	C285.533203,355.497528 289.614868,354.441132 294.133240,355.838379 
	C298.978210,357.336578 301.343109,360.931000 301.651520,365.897614 
	C301.971832,371.055878 299.169678,374.664886 292.591248,377.234802 
z"/>
<path fill="#000000" opacity="1.000000" stroke="none" 
	d="
M268.239655,194.997864 
	C267.541260,201.196716 264.372742,205.045609 258.668457,206.025818 
	C253.815521,206.859772 249.882462,204.652267 247.403717,200.360916 
	C244.193359,194.802902 246.380280,188.145050 252.238510,185.181213 
	C257.744080,182.395828 264.841858,185.007950 267.209839,190.758652 
	C267.708740,191.970245 267.902679,193.307404 268.239655,194.997864 
z"/>
<path fill="#000000" opacity="1.000000" stroke="none" 
	d="
M316.750031,337.017334 
	C322.039093,336.161743 326.502747,336.729218 329.422607,341.338715 
	C331.601929,344.779236 332.170746,348.448425 330.287903,352.218872 
	C327.975800,356.848999 323.481995,359.209564 318.325500,358.307281 
	C313.402588,357.445831 310.394531,354.407562 309.362427,349.494629 
	C308.276520,344.325470 310.452881,340.510681 316.750031,337.017334 
z"/>
<path fill="#000000" opacity="1.000000" stroke="none" 
	d="
M223.923279,377.314148 
	C216.853943,376.571014 213.140396,373.310303 212.668823,367.808441 
	C212.161118,361.885284 215.337662,356.968933 220.563660,355.589600 
	C225.707291,354.231934 231.245575,356.758087 233.420425,361.576202 
	C236.843155,369.158905 231.467300,377.048401 223.923279,377.314148 
z"/>
<path fill="#000000" opacity="1.000000" stroke="none" 
	d="
M230.579605,210.695953 
	C223.881363,214.803513 217.687393,213.799286 214.184540,208.339523 
	C210.933533,203.272354 212.427429,196.438141 217.538651,192.995224 
	C221.668365,190.213409 228.186783,191.042587 231.637344,194.788620 
	C235.574722,199.063171 235.290955,204.943375 230.579605,210.695953 
z"/>
<path fill="#000000" opacity="1.000000" stroke="none" 
	d="
M195.665833,358.309509 
	C188.607010,358.215729 184.978638,355.939026 183.299072,350.747009 
	C181.797424,346.104950 183.250549,342.165802 186.751663,339.112091 
	C190.348511,335.974854 194.573669,335.794006 198.840088,337.733704 
	C203.299484,339.761108 205.330017,343.640442 204.950058,348.199097 
	C204.515350,353.414307 201.406296,356.993896 195.665833,358.309509 
z"/>
</svg>