<svg version="1.1" id="Layer_1" xmlns="http://www.w3.org/2000/svg" xmlns:xlink="http://www.w3.org/1999/xlink" x="0px" y="0px"
	 width="100%" viewBox="0 0 512 512" enable-background="new 0 0 512 512" xml:space="preserve">
<path fill="#000000" opacity="1.000000" stroke="none" 
	d="
M305.068665,144.915955 
	C294.214325,136.506577 281.965393,133.430984 268.876251,133.018250 
	C255.227600,132.587845 241.861572,133.917831 229.853790,141.118011 
	C214.366592,150.404541 206.613449,164.835327 203.351700,182.119659 
	C202.141312,188.533539 201.926910,195.005981 201.924393,201.498077 
	C201.917023,220.491653 202.056519,239.486588 201.851822,258.477875 
	C201.800613,263.228210 203.261749,264.765106 208.105484,264.749939 
	C257.755096,264.594666 307.405365,264.652283 357.055450,264.654205 
	C364.195129,264.654510 364.274689,264.664520 364.205048,271.776215 
	C364.071991,285.366211 365.797974,283.302826 352.473511,283.324890 
	C304.323090,283.404572 256.172089,283.431091 208.022324,283.230804 
	C202.898712,283.209503 201.752899,284.518372 201.814178,289.638214 
	C202.109268,314.291992 201.855881,338.952087 201.865921,363.609924 
	C201.867340,367.093414 202.013962,370.609436 202.496460,374.053955 
	C203.827820,383.558624 207.157486,386.939148 216.711807,387.481720 
	C221.045181,387.727783 221.946396,389.520996 222.020416,393.304230 
	C222.217484,403.377136 222.334702,403.377625 212.192276,403.377319 
	C196.697449,403.376831 181.200836,403.240723 165.708954,403.452362 
	C161.297577,403.512604 159.993866,401.988342 160.002762,397.679230 
	C160.127716,337.033051 160.043930,276.386444 160.179550,215.740311 
	C160.214508,200.107590 160.567108,184.442184 166.182068,169.498077 
	C176.639420,141.666031 197.350876,125.388893 225.332840,117.760269 
	C247.492737,111.718880 269.947021,111.518532 292.594055,115.325584 
	C311.421051,118.490456 328.579987,125.028053 342.686066,138.173218 
	C356.519928,151.064697 363.551941,167.538864 366.224365,185.946793 
	C368.527649,201.811584 367.800018,217.830078 367.995850,233.799377 
	C368.046082,237.894745 366.625153,239.370407 362.472992,239.275284 
	C352.314972,239.042587 342.143219,239.004990 331.987122,239.272812 
	C327.231171,239.398224 325.990631,237.375381 326.000458,233.031723 
	C326.034668,217.874908 326.784027,202.687286 325.587433,187.567169 
	C324.272888,170.956573 318.843689,156.056564 305.068665,144.915955 
z"/>
</svg>