<svg version="1.1" id="Layer_1" xmlns="http://www.w3.org/2000/svg" xmlns:xlink="http://www.w3.org/1999/xlink" x="0px" y="0px"
	 width="100%" viewBox="0 0 512 512" enable-background="new 0 0 512 512" xml:space="preserve">
<path fill="#000000" opacity="1.000000" stroke="none" 
	d="
M146.924805,155.021835 
	C158.834518,134.150665 177.115707,122.534683 199.558929,117.170799 
	C227.131058,110.581123 254.782257,110.328049 281.728882,119.937157 
	C311.587097,130.584518 327.555878,152.392853 331.510162,183.807571 
	C334.649811,208.750336 332.568115,233.715027 333.125610,258.661133 
	C333.233582,263.492218 334.581543,264.894775 339.372284,264.820984 
	C356.528931,264.556702 373.693359,264.828796 390.851929,264.638153 
	C395.651184,264.584839 397.321472,266.368225 397.265411,271.092896 
	C397.100555,284.984802 398.003906,283.297760 385.289459,283.344604 
	C369.628479,283.402283 353.965576,283.477264 338.306976,283.275299 
	C334.280090,283.223358 333.163788,284.625610 333.184967,288.477997 
	C333.335297,315.800964 333.256073,343.125092 333.363647,370.448425 
	C333.410553,382.363922 338.061920,387.243500 349.919708,387.622803 
	C353.862305,387.748962 355.124023,389.237518 355.200165,392.989075 
	C355.411438,403.395264 355.518311,403.393585 345.146759,403.390594 
	C330.318604,403.386292 315.490417,403.383179 300.662262,403.375732 
	C291.602997,403.371155 291.607666,403.367950 291.607971,394.054871 
	C291.609039,359.566895 291.609497,325.078888 291.603455,290.590912 
	C291.602203,283.385712 291.589020,283.384857 284.515900,283.373138 
	C269.521210,283.348267 254.519699,283.600128 239.533524,283.230377 
	C220.806107,282.768219 202.423737,280.154022 185.029053,272.596588 
	C158.736862,261.173462 142.122665,241.750992 138.131454,213.163910 
	C135.359100,193.307053 137.116180,173.610840 146.924805,155.021835 
M191.159744,150.678955 
	C190.375519,151.753326 189.514633,152.780472 188.819031,153.909439 
	C182.467697,164.217712 180.086884,175.599762 178.922287,187.531082 
	C177.675064,200.308929 178.392441,212.907486 182.075134,225.036392 
	C189.198090,248.495697 206.209595,260.638336 229.922668,263.652161 
	C249.154068,266.096344 268.536743,264.225464 287.844757,264.704865 
	C290.655579,264.774628 291.695892,263.521271 291.621063,260.787537 
	C290.833496,232.009262 293.671875,203.124451 289.529755,174.458771 
	C288.035614,164.118744 284.056885,154.598526 276.492554,146.910950 
	C266.061523,136.309952 253.018204,133.335342 238.715271,133.092499 
	C220.748962,132.787460 204.188919,135.790741 191.159744,150.678955 
z"/>
</svg>