<svg version="1.1" id="Layer_1" xmlns="http://www.w3.org/2000/svg" xmlns:xlink="http://www.w3.org/1999/xlink" x="0px" y="0px"
	 width="100%" viewBox="0 0 512 512" enable-background="new 0 0 512 512" xml:space="preserve">
<path fill="#000000" opacity="1.000000" stroke="none" 
	d="
M135.009216,206.189392 
	C135.374954,192.519653 136.722046,179.508621 141.503738,167.044312 
	C151.016556,142.247482 169.083130,126.787079 194.025314,118.886993 
	C214.364044,112.444977 235.140121,111.336060 256.202942,114.198929 
	C273.232635,116.513611 289.289581,121.368340 303.500244,131.487610 
	C318.007416,141.818039 326.542664,156.055847 331.345978,172.863831 
	C334.763123,184.821365 335.549866,197.052048 335.440735,209.419846 
	C335.302521,225.079727 335.407410,240.741760 335.411499,256.402863 
	C335.413574,264.372620 335.698090,264.655151 343.445984,264.653503 
	C361.273010,264.649689 379.101593,264.780670 396.925934,264.560974 
	C401.401428,264.505829 402.938141,266.170593 402.629089,270.362152 
	C401.571838,284.699585 405.710693,283.312195 389.529053,283.354889 
	C373.368225,283.397552 357.206635,283.434265 341.046661,283.309601 
	C337.388824,283.281403 335.291748,284.180634 335.497589,288.287872 
	C336.666046,311.602203 335.172363,334.916595 335.455109,358.230438 
	C335.523590,363.876556 335.859283,369.542572 336.485443,375.153320 
	C337.390839,383.266479 341.545410,386.917877 350.050629,387.673370 
	C356.042236,388.205597 356.316589,389.014832 356.203156,397.848907 
	C356.139771,402.784698 353.618683,403.478577 349.516327,403.444031 
	C332.856720,403.303589 316.195129,403.344696 299.534607,403.406799 
	C296.297180,403.418854 294.374847,403.068298 294.387238,398.849518 
	C294.580383,333.040771 294.678680,267.231354 294.554169,201.422531 
	C294.538177,192.975250 293.529266,184.470871 291.729279,176.164993 
	C286.827454,153.545593 274.000427,137.999969 250.504868,134.261658 
	C230.893417,131.141327 211.484543,132.011414 195.577713,146.696442 
	C183.925797,157.453400 178.966599,171.376038 177.366577,186.624969 
	C174.997406,209.204041 176.799530,231.881516 176.328903,254.510223 
	C176.186295,261.367554 176.267380,261.411194 169.285339,261.425690 
	C159.965683,261.444977 150.639771,261.225189 141.328781,261.509033 
	C136.517334,261.655701 134.824585,259.894196 134.879883,255.147125 
	C135.068115,238.988998 134.980087,222.827621 135.009216,206.189392 
z"/>
</svg>