<svg version="1.1" id="Layer_1" xmlns="http://www.w3.org/2000/svg" xmlns:xlink="http://www.w3.org/1999/xlink" x="0px" y="0px"
	 width="100%" viewBox="0 0 512 512" enable-background="new 0 0 512 512" xml:space="preserve">
<path fill="#000000" opacity="1.000000" stroke="none" 
	d="
M262.000000,226.189926 
	C244.336136,226.191406 227.170074,226.343475 210.009811,226.095810 
	C205.298309,226.027802 204.098694,227.671463 204.121323,232.146072 
	C204.276505,262.806915 204.204926,293.468872 204.196152,324.130493 
	C204.192825,335.787903 206.508698,346.980988 211.553284,357.467468 
	C219.425507,373.832031 232.888077,383.101318 250.422516,386.487701 
	C261.487213,388.624634 272.635315,388.192047 283.580994,385.363617 
	C304.880829,379.859650 316.456177,365.185272 321.592346,344.584656 
	C323.250275,337.934845 323.870117,331.172577 323.809784,324.306793 
	C323.702911,312.143188 323.857330,299.977386 323.778290,287.813324 
	C323.757507,284.609772 324.603973,282.769348 328.232025,282.802399 
	C339.229309,282.902710 350.228088,282.867493 361.226105,282.834625 
	C363.768280,282.827026 365.417084,283.543030 365.329224,286.483368 
	C364.763641,305.403015 366.894714,324.404266 362.468231,343.194794 
	C356.345551,369.185638 341.681335,388.567535 316.822327,397.977875 
	C279.864594,411.968140 242.451157,412.189575 206.325821,394.603760 
	C182.838501,383.170135 170.195679,362.926392 164.780136,337.858917 
	C163.445801,331.682465 162.687164,325.407501 162.687256,319.059448 
	C162.688004,266.234772 162.676605,213.410080 162.664108,160.585403 
	C162.662720,154.749664 162.244034,148.918777 160.903336,143.254486 
	C159.235397,136.207626 156.422775,133.698059 149.104538,133.381027 
	C143.915665,133.156265 142.332703,131.209412 142.542603,126.091209 
	C142.960663,115.897324 141.825897,116.840805 151.665680,116.819412 
	C166.829773,116.786446 181.994019,116.814278 197.158188,116.829117 
	C204.086472,116.835892 204.218872,116.945030 204.222748,123.735313 
	C204.237305,149.231125 204.218933,174.726944 204.231522,200.222748 
	C204.234879,207.018219 204.265350,207.034714 211.250107,207.034073 
	C258.908997,207.029663 306.567902,207.017090 354.226776,207.008881 
	C362.303711,207.007492 362.303680,207.011383 362.317627,214.781693 
	C362.338135,226.205856 362.338165,226.205399 350.984314,226.203552 
	C321.489532,226.198746 291.994781,226.194366 262.000000,226.189926 
z"/>
</svg>