<svg version="1.1" id="Layer_1" xmlns="http://www.w3.org/2000/svg" xmlns:xlink="http://www.w3.org/1999/xlink" x="0px" y="0px"
	 width="100%" viewBox="0 0 512 512" enable-background="new 0 0 512 512" xml:space="preserve">
<path fill="#000000" opacity="1.000000" stroke="none" 
	d="
M314.631744,372.317078 
	C308.896332,368.121155 302.657745,366.409912 296.056610,366.380890 
	C264.734192,366.243164 233.410889,366.300385 202.088593,366.148010 
	C198.317825,366.129669 197.187302,367.496826 197.262985,371.126587 
	C197.450470,380.119720 197.191086,389.122009 197.370117,398.115479 
	C197.444290,401.840668 196.483231,403.543518 192.354996,403.445892 
	C182.197266,403.205780 172.027313,403.236053 161.867844,403.437500 
	C157.869324,403.516785 156.725967,401.954193 156.747513,398.140320 
	C156.873657,375.814758 156.882416,353.487732 156.752380,331.162231 
	C156.727951,326.968109 158.340195,325.657898 162.383987,325.738129 
	C172.210175,325.933167 182.045654,325.915436 191.872086,325.718597 
	C195.991684,325.636078 197.619522,327.158356 197.372879,331.273376 
	C197.144043,335.091125 197.427872,338.936768 197.326843,342.765900 
	C197.250473,345.660278 198.225739,346.978271 201.374252,346.927582 
	C220.720444,346.616150 238.970276,341.907623 255.866486,332.643555 
	C275.097229,322.099548 289.158325,306.367065 299.283295,287.033478 
	C299.943604,285.772705 301.004944,284.548157 300.515961,282.424011 
	C293.212982,285.278625 285.719818,287.250031 278.100739,288.587463 
	C250.069199,293.508179 222.509476,292.492432 196.860352,278.929169 
	C168.807770,264.094971 154.416946,240.120163 152.638474,208.462433 
	C151.585907,189.726456 154.946014,172.002747 164.580765,155.756210 
	C175.541229,137.274261 192.027924,125.408966 212.101944,119.045319 
	C241.998245,109.567917 272.205139,109.495705 301.685760,120.732727 
	C332.596710,132.514938 350.028015,155.700241 354.278015,188.315735 
	C358.323151,219.358978 353.772797,249.457016 340.562805,277.824493 
	C327.825714,305.176453 307.606842,325.935028 281.274963,340.694916 
	C277.688660,342.705200 274.059631,344.639282 269.715820,347.009460 
	C281.241241,347.009460 292.008392,346.755920 302.758423,347.076721 
	C314.879913,347.438446 327.009155,347.894135 338.567474,352.484711 
	C353.405182,358.377686 361.620453,369.348358 364.294189,384.810150 
	C365.117676,389.572357 365.406433,394.369873 365.351776,399.213928 
	C365.318634,402.156311 364.298920,403.415375 361.255493,403.388092 
	C350.259888,403.289581 339.262360,403.281555 328.266846,403.383423 
	C325.063751,403.413086 323.800659,402.147949 323.765289,398.970520 
	C323.717377,394.663940 323.870911,390.356171 322.794983,386.071655 
	C321.456329,380.741028 319.249390,376.054901 314.631744,372.317078 
M196.141998,196.610580 
	C195.839325,204.927780 195.785690,213.229523 197.371216,221.456711 
	C200.073532,235.478760 205.216446,248.244339 216.304657,257.879730 
	C228.777588,268.718414 243.646515,271.969116 259.600708,270.555328 
	C279.343323,268.805847 294.527039,259.784729 303.638733,241.532410 
	C310.918732,226.949234 312.594788,211.484161 312.017761,195.488342 
	C311.567871,183.017044 309.300568,171.028931 303.483856,159.923523 
	C294.513367,142.796768 279.684174,134.117462 260.945038,132.561279 
	C241.599731,130.954758 224.168396,135.981842 211.354126,151.627426 
	C200.944458,164.337112 196.859909,179.458267 196.141998,196.610580 
z"/>
</svg>