<svg version="1.1" id="Layer_1" xmlns="http://www.w3.org/2000/svg" xmlns:xlink="http://www.w3.org/1999/xlink" x="0px" y="0px"
	 width="100%" viewBox="0 0 512 512" enable-background="new 0 0 512 512" xml:space="preserve">
<path fill="#000000" opacity="1.000000" stroke="none" 
	d="
M185.024231,161.004150 
	C184.948212,154.689514 185.194717,148.860123 183.742996,143.133881 
	C182.068710,136.529602 179.125092,134.035873 172.324173,133.260681 
	C169.850143,132.978668 166.216370,134.067902 165.448700,130.705215 
	C164.498749,126.543983 164.336929,122.090096 165.830811,117.919708 
	C166.343582,116.488152 168.126633,116.817490 169.423386,116.816032 
	C187.089203,116.796127 204.755402,116.863289 222.420685,116.764412 
	C226.905838,116.739311 227.024017,119.547760 227.022049,122.751930 
	C227.009796,142.584366 227.018890,162.416824 227.018158,182.249268 
	C227.017914,188.415604 227.240250,194.593613 226.929611,200.744507 
	C226.689651,205.495667 228.351257,207.116394 233.192169,207.093582 
	C267.523224,206.931900 301.855438,207.012466 336.187286,207.016907 
	C337.520508,207.017090 338.853729,207.034271 340.186951,207.033524 
	C342.767273,207.032089 344.337616,208.065399 344.183105,210.895050 
	C344.164978,211.226913 344.202759,211.561417 344.199860,211.894562 
	C344.049957,229.013016 346.323853,226.100983 330.601715,226.171997 
	C298.270447,226.318039 265.937592,226.299179 233.606613,226.121521 
	C228.792969,226.095062 226.881989,227.139343 226.905167,232.443634 
	C227.099548,276.940704 227.003159,321.438965 227.030182,365.936890 
	C227.031372,367.893188 226.652695,369.940369 227.713470,371.845978 
	C229.580063,372.968323 231.290787,371.791809 232.933228,371.324615 
	C253.885132,365.364685 275.206482,362.025970 296.982391,363.810608 
	C313.845154,365.192596 329.515564,369.704620 339.243225,385.454163 
	C343.270569,391.974640 345.079651,399.243195 346.110718,406.656769 
	C346.863922,412.072174 346.678101,417.614075 347.009338,423.093658 
	C347.234497,426.819183 345.946228,428.484863 341.879578,428.397003 
	C331.218292,428.166718 320.546967,428.199493 309.883636,428.373047 
	C306.111633,428.434387 304.880646,426.924530 304.977051,423.348328 
	C305.098114,418.857422 304.908203,414.355560 304.773529,409.860779 
	C304.274841,393.220856 295.327423,384.282074 278.598480,383.236816 
	C256.744965,381.871399 236.028427,387.178680 215.497665,393.636169 
	C207.251740,396.229736 199.099274,399.119598 190.891617,401.836334 
	C189.362991,402.342285 187.773987,402.665863 185.023010,403.384369 
	C185.023010,322.277344 185.023010,241.890228 185.024231,161.004150 
z"/>
</svg>