<svg version="1.1" id="Layer_1" xmlns="http://www.w3.org/2000/svg" xmlns:xlink="http://www.w3.org/1999/xlink" x="0px" y="0px"
	 width="100%" viewBox="0 0 512 512" enable-background="new 0 0 512 512" xml:space="preserve">
<path fill="#000000" opacity="1.000000" stroke="none" 
	d="
M202.218048,206.000885 
	C202.217789,263.495575 202.216843,320.490479 202.218445,377.485352 
	C202.218643,384.634552 202.224884,384.648071 209.281616,384.648956 
	C259.610443,384.655273 309.939301,384.654236 360.268127,384.659515 
	C367.331299,384.660248 367.331329,384.670258 367.348083,391.767975 
	C367.375488,403.381622 367.375458,403.376099 355.758331,403.375549 
	C293.097260,403.372589 230.436203,403.375336 167.775131,403.367859 
	C160.677063,403.367004 160.661011,403.342957 160.661484,396.273285 
	C160.665939,330.779175 160.060242,265.276764 160.938431,199.794327 
	C161.394669,165.774445 175.742950,138.559052 207.827499,123.373940 
	C228.012848,113.820526 249.639969,111.675697 271.704620,113.264778 
	C286.705414,114.345131 301.315674,116.978806 315.156738,123.370987 
	C340.795044,135.211487 354.710876,155.753296 359.176819,182.915833 
	C363.280212,207.873138 360.593933,233.126114 361.177185,258.241852 
	C361.256256,261.647522 359.248444,262.357697 356.329620,262.337769 
	C345.997681,262.267181 335.661041,262.139008 325.334473,262.383820 
	C320.923859,262.488403 319.571136,260.904999 319.605286,256.581635 
	C319.767212,236.084854 319.844727,215.583618 319.577179,195.088852 
	C319.446686,185.095779 317.851593,175.281738 314.260986,165.796341 
	C306.792023,146.065384 291.908844,136.030701 271.718384,133.536560 
	C259.444305,132.020325 247.079575,132.438431 235.394135,137.532135 
	C215.683578,146.123993 206.874588,162.450714 203.315689,182.587723 
	C201.970184,190.200989 202.315674,197.851410 202.218048,206.000885 
z"/>
</svg>