<svg version="1.1" id="Layer_1" xmlns="http://www.w3.org/2000/svg" xmlns:xlink="http://www.w3.org/1999/xlink" x="0px" y="0px"
	 width="100%" viewBox="0 0 512 512" enable-background="new 0 0 512 512" xml:space="preserve">
<path fill="#000000" opacity="1.000000" stroke="none" 
	d="
M173.116943,243.093811 
	C189.427551,229.728409 207.985703,222.591537 228.351990,219.716614 
	C247.871506,216.961243 267.509460,216.941956 287.157104,217.044006 
	C294.574921,217.082535 294.688416,217.014420 294.596130,209.498962 
	C294.367065,190.846878 295.292786,172.180405 293.901489,153.542175 
	C293.678772,150.558929 293.640747,147.589096 292.993652,144.618118 
	C291.214142,136.448029 288.237396,133.793808 279.785736,133.108719 
	C277.408234,132.916016 273.968353,133.822479 273.210266,130.872269 
	C272.148956,126.742188 271.969757,122.269585 273.467255,118.103203 
	C274.033020,116.529213 275.980347,116.716393 277.474701,116.715477 
	C295.306183,116.704559 313.137939,116.763496 330.968964,116.676399 
	C335.904205,116.652298 336.097260,119.816833 336.094788,123.383812 
	C336.077850,147.548004 336.076385,171.712204 336.071259,195.876404 
	C336.070160,201.209167 336.236359,206.548431 336.022827,211.872559 
	C335.865234,215.802155 337.429413,217.130783 341.300171,217.088211 
	C354.630402,216.941589 367.963593,217.016174 381.295349,217.074677 
	C387.417511,217.101532 388.253571,217.938660 388.272736,224.006271 
	C388.316833,237.978455 389.271179,236.351852 375.996277,236.406113 
	C364.664276,236.452438 353.327820,236.590347 342.001770,236.326111 
	C337.481323,236.220642 335.927887,237.542389 335.975677,242.239944 
	C336.197815,264.068787 336.273468,285.903717 336.003754,307.731537 
	C335.791626,324.894806 334.500336,341.884857 327.874969,358.147797 
	C318.129089,382.070404 300.384949,396.711151 275.942017,403.133484 
	C247.351730,410.645508 218.880432,409.531189 191.150299,398.798767 
	C171.171631,391.066437 157.627518,376.443817 150.420776,356.613739 
	C140.589996,329.563293 138.844650,302.023499 149.557953,274.658997 
	C154.438232,262.193512 162.398102,251.775574 173.116943,243.093811 
M204.252365,374.249329 
	C207.962891,377.613892 211.835953,380.703430 216.519318,382.696869 
	C227.525635,387.381500 238.871887,388.485382 250.691925,386.833130 
	C266.995056,384.554199 279.320007,376.929962 286.613892,361.792419 
	C291.992706,350.629333 294.327545,338.675018 294.519714,326.533478 
	C294.964966,298.404022 294.592499,270.262421 294.748016,242.126816 
	C294.771973,237.799377 293.437225,236.228973 289.043823,236.332199 
	C276.237671,236.633087 263.427032,236.172318 250.620789,237.205444 
	C233.939026,238.551239 219.247787,244.347351 207.032089,255.866272 
	C192.701553,269.379364 187.739655,286.897980 186.384399,305.791351 
	C185.606613,316.634186 186.903381,327.431122 188.489822,338.105591 
	C190.439011,351.220642 194.355835,363.714691 204.252365,374.249329 
z"/>
</svg>