<svg version="1.1" id="Layer_1" xmlns="http://www.w3.org/2000/svg" xmlns:xlink="http://www.w3.org/1999/xlink" x="0px" y="0px"
	 width="100%" viewBox="0 0 512 512" enable-background="new 0 0 512 512" xml:space="preserve">
<path fill="#000000" opacity="1.000000" stroke="none" 
	d="
M195.830978,314.000000 
	C195.778244,260.178864 195.726471,206.857742 195.670288,153.536606 
	C195.668533,151.870743 195.735382,150.193985 195.576981,148.540817 
	C194.455444,136.836761 191.954819,134.177505 180.397720,133.060181 
	C177.078674,132.739304 175.701126,131.564331 175.744461,128.146042 
	C175.908463,115.207008 174.732803,116.879478 186.386337,116.815750 
	C201.049316,116.735573 215.713196,116.796875 230.376617,116.826866 
	C237.281815,116.840988 237.318024,116.873306 237.318604,123.835403 
	C237.325653,208.317032 237.321152,292.798645 237.320786,377.280273 
	C237.320755,384.635651 237.324463,384.647369 244.627792,384.649109 
	C268.789215,384.654907 292.950836,384.600952 317.111847,384.697998 
	C321.470276,384.715546 325.745758,384.228363 330.027588,383.650360 
	C334.898163,382.992950 337.821747,380.216278 338.616089,375.306305 
	C338.908600,373.498596 339.244446,371.696442 339.480927,369.881378 
	C340.399780,362.829559 340.387909,362.828003 347.813110,362.820068 
	C357.320343,362.809906 357.324921,362.809906 357.324371,372.226990 
	C357.323883,381.058380 357.208771,389.891510 357.357849,398.720276 
	C357.415497,402.136536 356.248657,403.416168 352.746490,403.410950 
	C302.091003,403.335083 251.435226,403.309937 200.779938,403.439697 
	C196.073364,403.451752 195.760651,401.053070 195.769516,397.480164 
	C195.838058,369.820221 195.821472,342.160095 195.830978,314.000000 
z"/>
</svg>