<svg version="1.1" id="Layer_1" xmlns="http://www.w3.org/2000/svg" xmlns:xlink="http://www.w3.org/1999/xlink" x="0px" y="0px"
	 width="100%" viewBox="0 0 512 512" enable-background="new 0 0 512 512" xml:space="preserve">
<path fill="#000000" opacity="1.000000" stroke="none" 
	d="
M351.242218,209.807129 
	C349.130219,198.605209 346.170227,195.860046 335.283752,195.352371 
	C331.566956,195.179047 329.784393,193.854874 329.783539,189.996170 
	C329.780518,176.557068 329.213348,178.741821 340.409302,178.676346 
	C355.908386,178.585693 371.410553,178.805222 386.906860,178.580231 
	C391.731293,178.510193 393.329956,180.247803 393.306183,184.967911 
	C393.164276,213.133255 393.565887,241.305435 393.084564,269.463348 
	C392.808044,285.640686 389.479248,301.189758 378.684570,314.223236 
	C366.470764,328.970215 350.097656,335.498108 331.815338,338.207245 
	C319.739807,339.996643 307.573700,340.311432 295.491943,338.349213 
	C263.902161,333.218719 242.917068,317.327667 237.619995,282.889771 
	C236.854782,277.914917 236.742844,272.945892 236.739304,267.950775 
	C236.724091,246.451248 236.615479,224.950851 236.797226,203.452927 
	C236.836075,198.857300 235.303970,197.290771 230.740479,197.346985 
	C215.409851,197.535919 200.073730,197.537399 184.743454,197.331406 
	C180.268600,197.271271 179.040543,199.005432 179.051956,203.231537 
	C179.200928,258.396210 179.228958,313.561249 179.266541,368.726196 
	C179.268707,371.911652 179.558868,375.040131 180.408951,378.112915 
	C182.020569,383.938538 184.919907,386.219666 191.002625,386.908051 
	C193.684784,387.211548 197.516220,385.869019 198.698944,389.005707 
	C200.214233,393.024292 199.625839,397.552917 198.910721,401.823944 
	C198.641846,403.429718 196.891815,403.344208 195.582870,403.345673 
	C177.583496,403.365814 159.584076,403.343262 141.584717,403.371002 
	C138.859177,403.375214 137.610443,402.149719 137.685135,399.437805 
	C137.735580,397.606262 137.666809,395.771729 137.666794,393.938538 
	C137.666748,323.440094 137.604965,252.941544 137.731308,182.443314 
	C137.752823,170.434814 136.979675,158.471817 136.628799,146.486710 
	C136.377502,137.903183 132.084106,133.526093 123.546112,133.341293 
	C119.038605,133.243744 117.008789,131.741562 117.533279,127.160873 
	C117.664352,126.016144 117.444862,124.833771 117.417458,123.667976 
	C117.269684,117.379990 117.863281,116.720467 124.052208,116.713615 
	C140.385147,116.695541 156.719162,116.818153 173.050446,116.654762 
	C177.596130,116.609291 179.242035,118.273201 179.193298,122.812973 
	C179.014359,139.477402 179.232834,156.146439 179.008102,172.809784 
	C178.946060,177.409683 180.443130,178.773483 185.041824,178.743729 
	C213.873276,178.557190 242.706589,178.646973 271.539276,178.665054 
	C278.142212,178.669205 278.294342,178.823151 278.299469,185.374969 
	C278.323517,216.207581 278.188629,247.041245 278.421478,277.872192 
	C278.494690,287.570862 280.250641,297.121979 285.100952,305.749023 
	C290.064331,314.577209 297.852692,319.155060 307.881134,319.665100 
	C313.019318,319.926453 318.236603,320.329407 323.327698,319.227112 
	C338.943115,315.846161 347.204742,306.602631 349.724457,290.569733 
	C351.491730,279.324524 351.784241,268.044342 351.665558,256.709778 
	C351.503418,241.217163 351.444763,225.723465 351.242218,209.807129 
z"/>
</svg>