<svg version="1.1" id="Layer_1" xmlns="http://www.w3.org/2000/svg" xmlns:xlink="http://www.w3.org/1999/xlink" x="0px" y="0px"
	 width="100%" viewBox="0 0 512 512" enable-background="new 0 0 512 512" xml:space="preserve">
<path fill="#000000" opacity="1.000000" stroke="none" 
	d="
M310.118408,112.833099 
	C325.066956,110.520676 339.044006,112.523605 352.674500,117.779587 
	C365.715851,122.808388 374.662109,135.863159 374.286865,149.643463 
	C374.133789,155.264450 371.928192,160.091125 367.811401,163.784393 
	C360.532623,170.314423 351.638000,172.744293 342.058502,173.085388 
	C338.825378,173.200500 338.233917,170.830185 338.036652,168.431183 
	C337.640686,163.615494 337.122589,158.863754 335.777893,154.173553 
	C332.210205,141.729965 323.739319,135.049286 310.882019,134.115433 
	C290.863892,132.661438 275.311737,142.143021 260.753479,154.104660 
	C256.563873,157.546997 252.051788,160.756348 248.674484,165.864059 
	C256.312042,168.518097 263.647217,170.986588 270.926331,173.610626 
	C300.346863,184.216400 326.095123,200.349731 345.595459,225.144547 
	C358.223267,241.200897 366.224884,259.480194 369.467926,279.880676 
	C372.201538,297.076172 372.034271,313.953735 367.455627,330.814545 
	C362.003540,350.891693 351.408844,367.637634 335.477844,380.934082 
	C313.875916,398.963715 288.676300,406.956116 260.778137,407.353760 
	C240.836365,407.637970 221.101105,405.865387 202.305191,399.045868 
	C171.221481,387.768066 152.832489,365.343597 146.534805,332.901123 
	C143.183716,315.637878 141.393036,298.338226 144.776108,280.869812 
	C147.993774,264.255371 153.795547,248.521469 161.315796,233.404938 
	C170.645248,214.651703 182.454651,197.570389 196.279800,181.859619 
	C197.378937,180.610580 198.400467,179.290543 199.408386,177.965698 
	C199.696304,177.587250 199.809387,177.075790 200.143585,176.296799 
	C196.419876,173.889130 191.977310,173.804459 187.982513,172.518723 
	C177.024200,168.991730 166.157700,165.484375 156.628784,158.646530 
	C144.120575,149.670822 137.687180,137.577301 136.695862,122.336823 
	C136.434998,118.326462 137.705154,116.566681 141.987289,116.659622 
	C151.815628,116.872948 161.652359,116.790085 171.484390,116.694382 
	C174.749084,116.662613 176.159943,117.719154 176.429993,121.252457 
	C177.462448,134.760956 184.114899,144.706680 196.220551,150.925034 
	C201.857147,153.820404 207.730713,156.079361 213.775513,158.002869 
	C217.235550,159.103897 219.651855,158.401962 222.346466,156.036667 
	C238.721756,141.662521 256.573608,129.587708 276.955811,121.494789 
	C287.529327,117.296494 298.438538,114.495102 310.118408,112.833099 
M324.787079,274.512360 
	C323.899261,270.630981 323.292511,266.659454 322.080444,262.882111 
	C308.938904,221.926086 279.336761,198.423477 239.946548,184.971634 
	C233.813278,182.877136 230.908768,184.737961 227.693771,189.346802 
	C213.802124,209.261078 202.436142,230.395691 194.872131,253.563873 
	C185.435898,282.466614 184.164871,311.680756 191.404404,341.118713 
	C195.963470,359.657104 206.199310,374.039764 224.336105,381.904938 
	C232.748108,385.552917 241.637680,386.228058 250.586227,387.263275 
	C277.741974,390.404846 304.114105,376.647644 316.371307,352.214355 
	C328.677460,327.683441 330.013153,301.859894 324.787079,274.512360 
z"/>
</svg>