<svg version="1.1" id="Layer_1" xmlns="http://www.w3.org/2000/svg" xmlns:xlink="http://www.w3.org/1999/xlink" x="0px" y="0px"
	 width="100%" viewBox="0 0 512 512" enable-background="new 0 0 512 512" xml:space="preserve">
<path fill="#000000" opacity="1.000000" stroke="none" 
	d="
M305.293701,280.330505 
	C309.758240,266.595978 310.738281,252.865555 309.101837,239.024429 
	C308.111176,230.645294 304.788971,227.643539 296.261871,227.531036 
	C290.895233,227.460220 289.363251,225.649597 289.592743,220.534882 
	C290.037140,210.629272 288.143646,211.063141 298.992340,211.046646 
	C314.157928,211.023590 329.323608,211.025238 344.489227,211.038269 
	C351.182434,211.044006 351.233887,211.092636 351.238525,217.673248 
	C351.274536,268.836151 351.299316,319.999023 351.328247,371.161926 
	C351.328552,371.661865 351.330994,372.161987 351.344238,372.661713 
	C351.617523,382.947754 354.784210,386.971588 364.855591,387.361908 
	C370.696564,387.588257 372.056000,389.869324 371.370728,394.895538 
	C371.214539,396.041046 371.242920,397.236115 371.362152,398.390228 
	C371.728760,401.937469 370.479279,403.466553 366.631714,403.432068 
	C349.300964,403.276886 331.967560,403.296875 314.636292,403.419342 
	C311.004089,403.445007 309.621399,402.215881 309.641602,398.514008 
	C309.777985,373.516754 309.658936,348.517670 309.883881,323.521576 
	C309.934204,317.928284 311.133453,312.348206 310.508972,305.826050 
	C307.357880,309.892914 304.771423,313.437103 301.973785,316.805908 
	C289.872192,331.378235 273.658295,338.097809 255.389862,339.933228 
	C238.250397,341.655212 221.158615,341.054474 204.673172,334.992371 
	C185.337082,327.882111 172.940964,314.256561 166.658127,294.819702 
	C163.041763,283.631958 161.695755,272.112823 161.688568,260.407776 
	C161.666550,224.576904 161.676788,188.746033 161.628738,152.915207 
	C161.625626,150.602066 161.398392,148.260544 160.995895,145.981583 
	C159.214722,135.896118 157.368454,134.016190 147.084961,133.215546 
	C142.736923,132.877029 141.485931,131.169006 141.593933,126.977318 
	C141.899612,115.111359 140.607407,116.899605 151.740219,116.819397 
	C166.571686,116.712547 181.404617,116.804222 196.236923,116.820229 
	C203.217209,116.827759 203.247833,116.837883 203.252518,123.731491 
	C203.284592,170.894669 203.260696,218.057953 203.360550,265.220978 
	C203.380753,274.769043 205.058044,284.139221 208.508698,293.043518 
	C214.874924,309.471405 227.363968,318.259827 244.627197,319.471283 
	C271.630432,321.366211 295.396851,309.281189 305.293701,280.330505 
z"/>
</svg>