<svg version="1.1" id="Layer_1" xmlns="http://www.w3.org/2000/svg" xmlns:xlink="http://www.w3.org/1999/xlink" x="0px" y="0px"
	 width="100%" viewBox="0 0 512 512" enable-background="new 0 0 512 512" xml:space="preserve">
<path fill="#000000" opacity="1.000000" stroke="none" 
	d="
M182.805679,216.972443 
	C190.393311,192.100555 199.611969,168.434204 215.721664,148.097656 
	C236.479675,121.893219 263.265106,109.628052 296.924622,112.456345 
	C310.526978,113.599304 323.656830,115.740463 335.633026,122.658272 
	C347.233948,129.359314 353.212067,139.600845 354.137085,152.791611 
	C354.935455,164.176392 348.433807,172.630722 335.856476,177.159225 
	C331.267639,178.811447 326.468994,179.283478 321.673096,179.782043 
	C317.992065,180.164719 317.711304,177.748276 317.686035,174.997635 
	C317.602783,165.953217 316.477448,157.105865 312.697571,148.748642 
	C307.852692,138.036621 299.135254,133.361359 287.848175,132.283630 
	C272.446655,130.813034 260.859985,137.429276 251.306046,148.822220 
	C240.402252,161.824829 233.786865,177.083954 228.456116,192.899384 
	C218.157730,223.452896 212.797333,255.049713 209.145737,287.008545 
	C206.858139,307.029510 205.306259,327.089508 204.174255,347.199646 
	C203.923859,351.647614 205.290283,353.144775 209.810135,353.825409 
	C241.199783,358.552460 272.881653,361.315552 304.024658,367.682892 
	C314.388306,369.801788 324.277496,373.280457 332.919708,379.541626 
	C346.110901,389.098602 350.089355,403.061218 350.971985,418.393188 
	C351.543549,428.321991 351.522278,428.323761 341.783264,428.319519 
	C332.783936,428.315582 323.781433,428.168365 314.786804,428.371521 
	C310.885498,428.459656 309.548767,427.106964 309.556335,423.186768 
	C309.566223,418.049988 309.122223,412.894653 307.997925,407.826630 
	C304.880219,393.772369 297.841705,386.608826 283.594543,384.467804 
	C259.593536,380.860931 235.527634,377.684570 211.484283,374.361389 
	C196.331528,372.267059 181.174667,370.200897 166.009491,368.199127 
	C162.232880,367.700623 161.690262,365.468689 161.897202,362.182556 
	C163.204239,341.426880 164.329941,320.654968 166.816956,299.997620 
	C170.177307,272.086243 174.745056,244.395828 182.805679,216.972443 
z"/>
</svg>