<svg version="1.1" id="Layer_1" xmlns="http://www.w3.org/2000/svg" xmlns:xlink="http://www.w3.org/1999/xlink" x="0px" y="0px"
	 width="100%" viewBox="0 0 512 512" enable-background="new 0 0 512 512" xml:space="preserve">
<path fill="#000000" opacity="1.000000" stroke="none" 
	d="
M263.856506,112.692902 
	C283.356903,114.103912 301.479431,118.496170 317.561066,129.243835 
	C337.005646,142.239014 348.167542,161.006683 353.145355,183.330490 
	C361.487671,220.742905 356.607941,257.382416 344.924591,293.385742 
	C336.653503,318.873932 323.747711,341.785065 306.149658,362.026947 
	C305.947113,362.259918 305.896179,362.624664 305.617706,363.318604 
	C308.469696,366.581451 312.175629,369.079407 315.920929,371.407837 
	C329.017487,379.549896 343.135895,384.530121 358.729736,384.848724 
	C365.626190,384.989624 366.356201,386.117920 364.413940,392.635498 
	C361.614929,402.028168 354.757050,407.083893 344.886169,407.365082 
	C323.028839,407.987671 305.302094,398.785828 289.687866,384.437134 
	C288.601318,383.438629 287.484680,382.472870 286.112488,381.252075 
	C277.445312,387.382446 268.886963,393.380737 259.279175,397.660858 
	C234.934601,408.506134 209.907135,410.827087 184.328461,403.111969 
	C165.978226,397.577118 155.264572,384.240021 153.768814,366.450989 
	C152.201263,347.808105 162.306076,330.066803 178.477661,321.417603 
	C207.584457,305.850189 248.033386,309.522736 273.761810,333.792725 
	C276.639465,336.507294 279.788788,338.933868 282.768005,341.456604 
	C291.745239,333.529083 308.004059,288.212433 308.827698,262.841278 
	C296.043854,269.859619 282.471100,274.001892 268.259308,275.821838 
	C239.592834,279.492737 211.620850,278.249634 186.419952,261.866821 
	C167.783020,249.751175 156.125153,232.798050 152.616638,210.585052 
	C149.559799,191.231750 152.058624,172.831207 162.013641,155.715897 
	C170.234619,141.581818 182.247757,131.701004 196.801865,124.610992 
	C217.880173,114.342697 240.340118,111.949295 263.856506,112.692902 
M310.308044,181.131287 
	C310.083160,180.161163 309.873047,179.187347 309.631134,178.221466 
	C305.071350,160.013718 296.629669,144.656860 278.400696,136.852676 
	C267.083588,132.007584 255.236877,131.267181 243.161865,133.327103 
	C222.788330,136.802719 208.031082,147.434525 200.094498,166.893509 
	C193.768372,182.403900 193.655441,198.472961 196.705612,214.494537 
	C200.097626,232.311630 209.523056,246.210236 226.678055,253.625229 
	C237.419769,258.268188 248.765533,259.082428 260.416199,257.884735 
	C277.789734,256.098724 293.797058,250.820145 308.383148,241.116959 
	C311.261841,239.201950 312.484283,236.793167 312.569702,233.696564 
	C313.046722,216.402924 313.989929,199.083755 310.308044,181.131287 
M260.266205,353.239532 
	C250.944962,344.378815 241.461548,335.732666 228.347427,332.854706 
	C209.689392,328.760101 194.839783,335.422424 191.953094,353.492950 
	C188.723343,373.711243 195.852478,388.355072 219.487778,387.569244 
	C234.848404,387.058533 248.097656,380.885620 259.597046,370.794159 
	C270.329041,361.376160 269.589905,363.282593 260.266205,353.239532 
z"/>
</svg>