<svg version="1.1" id="Layer_1" xmlns="http://www.w3.org/2000/svg" xmlns:xlink="http://www.w3.org/1999/xlink" x="0px" y="0px"
	 width="100%" viewBox="0 0 512 512" enable-background="new 0 0 512 512" xml:space="preserve">
<path fill="#000000" opacity="1.000000" stroke="none" 
	d="
M134.967957,236.000000 
	C134.951172,220.506271 134.307999,205.463028 135.769043,190.540054 
	C139.370590,153.754395 160.310516,126.116150 199.657013,116.873390 
	C222.840271,111.427498 246.223953,110.913307 269.405975,116.721718 
	C310.196655,126.942078 333.285797,155.793076 335.177826,196.215225 
	C337.959595,255.646591 335.725983,315.150055 336.293518,374.619232 
	C336.309418,376.285583 336.457275,377.968964 336.277252,379.615265 
	C335.841125,383.604492 337.589966,384.764282 341.462616,384.730682 
	C359.625732,384.573181 377.790955,384.660461 395.955444,384.665192 
	C403.293762,384.667114 403.367645,384.673523 403.295868,392.116364 
	C403.171356,405.026672 405.000427,403.333069 392.295776,403.363434 
	C361.966278,403.435852 331.636505,403.389923 301.306824,403.371948 
	C294.720184,403.368042 294.685120,403.329681 294.683929,396.639038 
	C294.672424,330.813660 294.798737,264.987854 294.574036,199.163254 
	C294.524231,184.569870 291.869049,170.318497 284.071289,157.546997 
	C276.766602,145.583054 266.345978,137.688324 252.565918,134.905334 
	C237.671234,131.897202 222.788940,131.573669 208.509750,137.966873 
	C188.417206,146.962860 179.568130,163.763336 177.409683,184.563766 
	C174.877151,208.969131 176.805328,233.496429 176.328506,257.964752 
	C176.191147,265.012482 176.160873,265.154968 168.950012,265.164673 
	C159.617828,265.177246 150.281830,265.008759 140.955032,265.233002 
	C136.320831,265.344421 134.754196,263.457184 134.888397,258.993866 
	C135.113693,251.501892 134.961197,243.998550 134.967957,236.000000 
z"/>
</svg>