<svg version="1.1" id="Layer_1" xmlns="http://www.w3.org/2000/svg" xmlns:xlink="http://www.w3.org/1999/xlink" x="0px" y="0px"
	 width="100%" viewBox="0 0 512 512" enable-background="new 0 0 512 512" xml:space="preserve">
<path fill="#000000" opacity="1.000000" stroke="none" 
	d="
M196.561127,398.635620 
	C172.893463,393.462677 153.704300,382.793213 143.701935,359.845337 
	C136.952118,344.359528 135.361984,327.941803 137.254166,311.416351 
	C141.737000,272.265045 159.794037,238.674805 181.551224,206.749741 
	C187.367966,198.214645 193.711853,190.064575 200.336456,182.135910 
	C201.265274,181.024261 202.488266,179.981461 201.944946,177.791916 
	C197.530441,177.275162 192.973923,176.684586 188.404739,176.217636 
	C174.642960,174.811279 160.850632,174.057297 147.008362,174.079758 
	C140.323776,174.090591 139.647476,173.272400 139.700516,166.460236 
	C139.819153,151.223190 137.713760,152.533157 153.229797,152.966263 
	C174.337784,153.555420 195.498413,153.987106 216.295227,158.406937 
	C219.900482,159.173126 222.966873,158.505737 225.896255,155.817307 
	C241.578903,141.424591 258.730255,129.126419 278.559418,121.055061 
	C302.079254,111.481445 326.108459,107.978439 350.436798,117.771538 
	C365.999939,124.036331 374.042084,136.341370 374.955536,152.940842 
	C375.305725,159.304871 372.622772,165.080505 367.434235,169.133087 
	C360.364166,174.655258 352.031830,176.748245 343.230011,177.339386 
	C340.179443,177.544250 338.843109,176.450928 338.544586,173.147049 
	C337.887604,165.876617 337.250702,158.588898 334.837402,151.566483 
	C330.748596,139.668869 322.993256,134.166672 310.554199,134.070389 
	C290.487457,133.915085 274.533844,143.443344 259.586975,155.333069 
	C256.266968,157.974030 252.470108,160.301193 250.312759,164.472092 
	C252.643127,167.709534 256.473328,167.602539 259.611572,168.669876 
	C305.599762,184.310776 335.760986,215.538422 351.099426,261.363892 
	C360.233917,288.654236 364.405060,316.819427 366.528961,345.462219 
	C367.848724,363.260590 367.889038,381.059357 368.691498,398.849121 
	C368.888458,403.214752 366.644470,403.395233 363.512115,403.390442 
	C345.349274,403.362640 327.186310,403.387024 309.023407,403.380707 
	C285.028412,403.372375 261.033264,403.391083 237.038437,403.321442 
	C223.519745,403.282196 210.163589,401.670654 196.561127,398.635620 
M327.569000,371.767090 
	C327.264160,365.115875 326.970032,358.464111 326.651855,351.813538 
	C326.238403,343.171143 326.171906,334.492523 325.300568,325.895966 
	C323.776306,310.857605 322.059143,295.819885 318.631226,281.058319 
	C313.462952,258.802246 305.813721,237.669327 290.569427,220.040878 
	C275.978271,203.167725 257.494934,192.501114 236.459030,185.719604 
	C232.957260,184.590714 230.857910,185.184326 228.752701,187.913330 
	C223.861801,194.253418 219.408005,200.887589 215.416183,207.811523 
	C192.416824,247.704590 176.966675,289.705750 181.484360,336.734863 
	C183.334259,355.992401 191.887558,371.259674 211.219482,378.617004 
	C220.394394,382.108826 229.880890,383.511536 239.563736,383.559753 
	C265.377441,383.688416 291.192322,383.598450 317.006714,383.583160 
	C328.134552,383.576599 327.773560,384.915283 327.569000,371.767090 
z"/>
</svg>