<svg version="1.1" id="Layer_1" xmlns="http://www.w3.org/2000/svg" xmlns:xlink="http://www.w3.org/1999/xlink" x="0px" y="0px"
	 width="100%" viewBox="0 0 512 512" enable-background="new 0 0 512 512" xml:space="preserve">
<path fill="#000000" opacity="1.000000" stroke="none" 
	d="
M353.337738,221.000092 
	C353.331299,254.496262 353.783081,287.501007 353.162842,320.485626 
	C352.721954,343.934265 344.920288,364.864502 327.475067,381.403931 
	C316.083130,392.204376 302.378815,398.751953 287.365082,402.783386 
	C267.954803,407.995422 248.177597,408.730804 228.389084,406.358124 
	C209.539413,404.098022 191.640625,398.780853 176.250565,386.793945 
	C158.000793,372.579712 148.222427,353.477631 146.930145,331.024719 
	C143.826843,277.106110 146.302628,223.088760 145.610382,169.117645 
	C145.514313,161.627441 145.204666,154.132904 144.738754,146.656281 
	C144.170639,137.539474 140.465637,133.655411 131.440521,133.166443 
	C126.798645,132.914963 125.542206,130.891006 125.583527,126.574600 
	C125.678040,116.702904 125.518494,116.693962 135.291092,116.691505 
	C150.289352,116.687737 165.287628,116.678886 180.285843,116.705688 
	C186.880478,116.717468 187.297791,117.146927 187.299469,123.898399 
	C187.316498,192.057098 187.073959,260.217316 187.497269,328.373444 
	C187.607681,346.151489 193.022491,362.477295 207.307114,374.656250 
	C215.073074,381.277496 224.339905,384.477814 234.055969,386.187134 
	C248.503311,388.728882 262.912140,388.310028 276.739716,382.706635 
	C295.146149,375.247742 304.918640,360.675568 309.647369,342.080994 
	C311.634644,334.266541 311.843201,326.292480 311.831940,318.285431 
	C311.753845,262.792450 311.700653,207.299454 311.675781,151.806427 
	C311.674347,148.610138 311.366394,145.481400 310.493408,142.423065 
	C308.755798,136.335724 305.409027,133.696030 299.035492,133.179367 
	C296.458252,132.970444 293.054016,133.626816 292.301025,130.284592 
	C291.401367,126.291573 290.864044,122.022873 292.878876,118.109215 
	C293.649719,116.611855 295.423798,116.713951 296.929962,116.714821 
	C320.760040,116.728683 344.595551,116.471504 368.417297,116.928192 
	C376.682800,117.086662 385.010620,118.843826 392.700806,122.178299 
	C404.477356,127.284653 411.387665,136.082397 412.450073,149.265930 
	C412.855713,154.299622 413.286835,159.260803 411.507568,164.027222 
	C406.957733,176.215836 398.111023,180.035065 386.377960,181.265991 
	C382.655243,181.656540 381.867004,179.388245 381.810516,176.333298 
	C381.677979,169.166840 381.136444,162.031097 379.650604,155.005905 
	C377.053131,142.724609 370.133942,136.975372 358.697449,136.991974 
	C354.604767,136.997910 353.239563,138.360535 353.264191,142.511017 
	C353.418335,168.506607 353.339355,194.503571 353.337738,221.000092 
z"/>
</svg>