<svg version="1.1" id="Layer_1" xmlns="http://www.w3.org/2000/svg" xmlns:xlink="http://www.w3.org/1999/xlink" x="0px" y="0px"
	 width="100%" viewBox="0 0 512 512" enable-background="new 0 0 512 512" xml:space="preserve">
<path fill="#000000" opacity="1.000000" stroke="none" 
	d="
M182.021515,140.043152 
	C196.584869,124.693871 214.879471,117.888382 234.852203,114.675858 
	C256.450470,111.201866 277.985199,111.625740 299.266724,116.787529 
	C317.333130,121.169510 333.357300,129.189545 344.551453,144.789124 
	C352.392853,155.716476 355.415924,168.046494 355.540680,181.405869 
	C355.704254,198.931427 351.361206,214.773422 339.011292,227.617920 
	C329.434692,237.578079 317.251282,243.311661 304.191315,247.310349 
	C302.647369,247.783051 301.106689,248.266235 298.696106,249.013931 
	C305.255157,250.749771 311.028076,252.011414 316.628967,253.809052 
	C334.483093,259.539337 349.348328,269.360596 359.013824,285.914093 
	C365.583069,297.164917 367.525513,309.438324 367.517059,322.353699 
	C367.492767,359.433441 343.590210,386.139862 310.211853,398.385712 
	C285.947998,407.287628 260.932220,408.662659 235.452637,406.594086 
	C218.378876,405.207947 201.789917,402.024536 186.370682,394.358490 
	C167.160675,384.807770 154.766006,370.139282 153.741898,347.861755 
	C153.185150,335.750336 159.102081,327.843536 170.706894,323.774170 
	C174.817139,322.332855 179.098343,321.730591 183.371674,321.031708 
	C186.676407,320.491272 188.347473,321.531647 188.657867,325.040894 
	C189.330994,332.650513 190.007736,340.249023 192.247116,347.646210 
	C199.209641,370.644928 215.994156,384.158264 240.000488,386.782410 
	C258.460724,388.800293 276.205902,387.271545 292.964935,378.782867 
	C312.930695,368.669922 322.498718,351.594086 324.577606,330.014923 
	C325.683807,318.532562 325.007782,307.049316 320.344788,296.165375 
	C311.488922,275.494751 294.264343,266.412231 273.463501,262.406677 
	C264.454590,260.671875 255.322662,260.228668 246.134659,260.263336 
	C216.302719,260.375793 186.470108,260.309479 156.637756,260.301422 
	C149.881927,260.299622 149.755478,260.242889 149.807953,253.764923 
	C149.931671,238.497635 147.766479,240.904373 162.695221,240.831711 
	C193.692917,240.680817 224.692474,240.847595 255.689392,240.624908 
	C266.929291,240.544144 277.985962,238.553436 288.084991,233.412415 
	C300.168640,227.261093 307.964355,217.255798 311.108032,204.094925 
	C314.319946,190.648468 314.786652,177.063232 310.492798,163.678894 
	C305.773315,148.967926 295.943329,139.189499 281.201385,134.682770 
	C267.174469,130.394623 252.931229,130.289749 238.893082,134.514603 
	C220.979538,139.905762 211.435364,152.930496 207.378220,170.582611 
	C205.958389,176.760071 204.898865,182.997635 205.246277,189.364029 
	C205.442123,192.953156 203.706161,194.107483 200.418488,193.905228 
	C194.233032,193.524719 188.155441,192.617676 182.418549,190.165558 
	C173.801147,186.482224 168.702179,176.903885 169.876953,166.695160 
	C171.034317,156.637726 174.860840,147.769318 182.021515,140.043152 
z"/>
</svg>