<svg version="1.1" id="Layer_1" xmlns="http://www.w3.org/2000/svg" xmlns:xlink="http://www.w3.org/1999/xlink" x="0px" y="0px"
	 width="100%" viewBox="0 0 512 512" enable-background="new 0 0 512 512" xml:space="preserve">
<path fill="#000000" opacity="1.000000" stroke="none" 
	d="
M297.497620,144.468964 
	C279.849060,131.455109 260.218506,131.485260 240.272064,134.693771 
	C224.994370,137.151260 213.250671,145.535522 204.973083,158.579620 
	C199.339432,167.457275 196.783157,177.408798 195.314957,187.726425 
	C194.584778,192.857697 194.355774,197.978699 194.358994,203.146484 
	C194.391174,254.971848 194.398087,306.797211 194.359909,358.622559 
	C194.355606,364.475281 194.774460,370.282318 195.875351,376.007111 
	C197.447052,384.180206 200.789017,387.393768 208.998428,387.553345 
	C214.208847,387.654572 215.109299,389.900726 214.732925,394.378510 
	C213.976059,403.383148 214.118195,403.394104 204.877640,403.391846 
	C189.713303,403.388123 174.548935,403.401794 159.384644,403.374786 
	C153.607666,403.364502 153.090286,402.636078 153.236526,397.123962 
	C153.806625,375.637726 153.481934,354.151825 153.308517,332.661072 
	C153.129807,310.515411 152.939270,288.365540 153.393188,266.210419 
	C153.857330,243.556168 153.578339,220.887146 153.672241,198.224777 
	C153.815247,163.713913 174.350586,134.153793 206.483017,121.748749 
	C230.066940,112.643936 254.378372,111.012146 279.170410,114.276466 
	C296.670685,116.580711 313.208099,121.463669 327.891937,131.944977 
	C347.160217,145.698624 355.901581,165.050797 359.326721,187.644333 
	C360.458618,195.110977 360.349548,202.575226 360.353821,210.054916 
	C360.382202,259.880585 360.375885,309.706268 360.351074,359.531952 
	C360.348328,365.048492 360.827820,370.505341 361.954712,375.896912 
	C363.674988,384.127441 366.686890,387.236328 374.992950,387.514008 
	C380.268677,387.690399 381.802704,389.858490 381.247620,394.556549 
	C381.228180,394.720856 381.244812,394.889526 381.245331,395.056152 
	C381.271637,403.373474 381.271637,403.381714 373.131470,403.383728 
	C357.467194,403.387543 341.802948,403.391083 326.138672,403.374146 
	C319.172699,403.366608 318.913177,403.106232 318.913239,395.963470 
	C318.913849,331.640015 318.916748,267.316559 318.941284,202.993103 
	C318.945343,192.316925 318.401123,181.752213 315.338593,171.391556 
	C312.164490,160.653366 306.353882,151.796722 297.497620,144.468964 
z"/>
</svg>