<svg version="1.1" id="Layer_1" xmlns="http://www.w3.org/2000/svg" xmlns:xlink="http://www.w3.org/1999/xlink" x="0px" y="0px"
	 width="100%" viewBox="0 0 512 512" enable-background="new 0 0 512 512" xml:space="preserve">
<path fill="#000000" opacity="1.000000" stroke="none" 
	d="
M316.825989,221.991669 
	C318.297546,206.485168 317.547516,191.541000 313.730438,176.942932 
	C305.913422,147.047409 287.465210,133.082016 256.577698,132.965668 
	C244.080414,132.918610 231.950729,134.584259 221.005829,140.988739 
	C205.853271,149.855362 199.336227,164.244141 196.339264,180.762573 
	C194.778961,189.362457 195.223862,198.036606 195.311295,206.683380 
	C195.352493,210.758987 193.967453,212.341675 189.815750,212.262177 
	C179.487091,212.064423 169.152237,212.206680 158.820129,212.158371 
	C156.528732,212.147644 153.872681,212.479095 153.714294,208.970490 
	C152.813232,189.010605 155.091370,169.730225 165.952332,152.316711 
	C175.910385,136.350861 190.453796,126.102104 207.967575,120.326042 
	C237.166977,110.696053 266.827576,109.923058 296.397858,118.543297 
	C331.501648,128.776642 352.632843,152.201752 359.243591,188.145691 
	C365.681915,223.152008 357.265533,255.165497 338.087036,284.642426 
	C319.275787,313.554901 293.478882,335.076569 264.739502,353.436981 
	C263.661133,354.125916 262.178833,354.376312 261.671967,356.262085 
	C264.274689,359.639679 268.381531,361.295380 272.056000,363.286316 
	C295.898987,376.205017 321.133270,384.553741 348.436523,385.904114 
	C355.230072,386.240143 355.313019,386.484711 355.326416,393.227386 
	C355.331390,395.727142 355.333893,398.226959 355.320770,400.726654 
	C355.284973,407.554993 355.266724,407.745697 348.256195,407.204681 
	C337.142914,406.347107 326.087036,404.983612 315.114899,402.924225 
	C278.510742,396.053986 244.555313,382.557800 213.212311,362.458832 
	C188.931839,346.888733 167.396515,328.159149 148.561523,306.318268 
	C147.891418,305.541229 147.352264,304.727112 147.488358,302.998077 
	C160.692459,296.736328 174.182724,290.316437 187.697769,283.949158 
	C190.320602,282.713501 191.199677,284.937164 192.262589,286.565857 
	C202.112564,301.658905 213.098923,315.809021 226.023773,328.448669 
	C230.798920,333.118469 236.057755,337.208710 240.850235,341.826355 
	C243.201920,344.092255 244.897324,342.828156 246.905426,341.374298 
	C262.787628,329.875916 276.977936,316.683136 288.474701,300.687836 
	C305.305634,277.271210 314.872345,251.261383 316.825989,221.991669 
z"/>
</svg>