<svg version="1.1" id="Layer_1" xmlns="http://www.w3.org/2000/svg" xmlns:xlink="http://www.w3.org/1999/xlink" x="0px" y="0px"
	 width="100%" viewBox="0 0 512 512" enable-background="new 0 0 512 512" xml:space="preserve">
<path fill="#000000" opacity="1.000000" stroke="none" 
	d="
M315.464294,150.525192 
	C303.789001,140.706955 290.108276,136.973358 275.767731,134.835724 
	C272.513000,134.350555 271.520660,135.876465 271.458862,138.663956 
	C271.399811,141.329010 271.388306,143.995560 271.388367,146.661453 
	C271.389801,207.816269 271.349518,268.971191 271.494873,330.125671 
	C271.505646,334.655060 270.381500,336.363129 265.656708,336.220886 
	C255.834381,335.925201 245.991776,335.962585 236.167297,336.226929 
	C231.478302,336.353088 229.953033,334.362915 230.038864,330.010742 
	C230.295044,317.020264 230.530731,304.027100 230.550659,291.034637 
	C230.617371,247.543152 230.550415,204.051468 230.631668,160.560028 
	C230.644104,153.903702 229.767288,147.276566 230.429062,140.588684 
	C230.837372,136.462219 229.266708,134.223541 224.257614,135.033554 
	C203.739746,138.351562 185.694580,145.657059 174.781891,164.751556 
	C168.753723,175.299332 166.980331,186.885498 167.056412,198.912262 
	C167.201904,221.906860 167.156769,244.902725 167.168091,267.898071 
	C167.171326,274.458099 166.652420,274.983765 160.023926,275.010254 
	C150.525940,275.048218 141.025848,274.904663 131.530334,275.061523 
	C127.438408,275.129089 125.541473,273.995239 125.577858,269.417908 
	C125.768631,245.424011 124.727615,221.379181 125.949142,197.445694 
	C127.283447,171.302612 139.805542,150.435410 161.539352,135.699936 
	C180.553131,122.808632 202.093735,117.280083 224.733261,114.438591 
	C244.271744,111.986313 263.653351,112.345451 282.993896,114.828590 
	C309.778564,118.267479 335.437866,125.117722 355.144104,145.311813 
	C366.907776,157.366745 373.013489,172.234985 375.439636,188.876694 
	C377.349884,201.979828 377.168762,215.102234 377.178772,228.248886 
	C377.214325,274.906281 377.236664,321.563690 377.259460,368.221100 
	C377.260773,370.891724 377.535339,373.498657 378.141815,376.128082 
	C379.928009,383.872009 383.449921,387.367554 391.543427,387.542267 
	C396.333679,387.645630 397.445312,389.514465 397.371613,393.861969 
	C397.210205,403.381744 397.383667,403.387054 387.977112,403.387207 
	C372.813385,403.387482 357.649628,403.392151 342.485901,403.379089 
	C335.245514,403.372833 334.972107,403.100342 334.973328,395.717621 
	C334.983887,331.396729 334.958344,267.075806 335.059753,202.755035 
	C335.078583,190.810959 334.083588,179.123459 328.897430,168.168365 
	C325.726227,161.469650 321.389709,155.600372 315.464294,150.525192 
z"/>
</svg>