<svg version="1.1" id="Layer_1" xmlns="http://www.w3.org/2000/svg" xmlns:xlink="http://www.w3.org/1999/xlink" x="0px" y="0px"
	 width="100%" viewBox="0 0 512 512" enable-background="new 0 0 512 512" xml:space="preserve">
<path fill="#000000" opacity="1.000000" stroke="none" 
	d="
M185.991409,403.375366 
	C178.328415,403.368164 171.161301,403.257660 163.999222,403.400024 
	C160.760162,403.464386 159.612457,402.212830 159.623383,399.012329 
	C159.701920,376.017761 159.691162,353.022736 159.638000,330.028015 
	C159.631241,327.099701 160.714844,325.787506 163.728775,325.804932 
	C174.225922,325.865448 184.724548,325.870270 195.220947,325.750916 
	C198.735596,325.710968 199.980652,327.396820 199.934738,330.627747 
	C199.882675,334.292877 200.042679,337.965393 199.869141,341.623230 
	C199.688339,345.433777 201.074875,347.024200 205.093781,346.827026 
	C216.576340,346.263702 227.305832,343.040070 237.705597,338.376129 
	C240.296844,337.214020 240.822372,335.275055 240.696701,332.717194 
	C239.867081,315.829865 232.269104,302.579559 219.210693,292.158112 
	C209.547546,284.446289 198.418106,278.941864 188.540726,271.552002 
	C173.863846,260.571411 161.155411,247.985275 156.552612,229.517014 
	C147.032898,191.320038 159.159012,145.455902 199.023468,125.070114 
	C219.841293,114.424347 241.748413,111.181763 264.734314,112.508629 
	C281.339142,113.467140 297.313507,116.596039 312.388184,123.993904 
	C336.808838,135.978256 351.631409,155.558563 357.174957,181.779282 
	C365.750031,222.338699 355.754181,258.614380 329.850555,290.664795 
	C312.005798,312.744019 289.552612,329.157898 264.941895,342.859253 
	C263.223389,343.816040 261.166748,344.268799 259.608276,346.603302 
	C261.212921,346.747528 262.543396,346.959717 263.875885,346.972870 
	C281.527832,347.146729 299.194794,346.490173 316.827423,347.705719 
	C331.214020,348.697449 344.921448,351.700104 355.432709,362.670227 
	C363.886627,371.493103 366.177155,382.638123 366.982513,394.307892 
	C367.608490,403.378357 367.652893,403.376740 358.541443,403.374390 
	C349.210175,403.372009 339.876740,403.247925 330.548767,403.421600 
	C326.895874,403.489624 325.570923,402.229401 325.564270,398.530823 
	C325.556854,394.392578 325.188629,390.183441 324.359070,386.131744 
	C321.967255,374.450104 312.531769,366.601746 299.471710,366.457764 
	C267.816010,366.108734 236.154572,366.301758 204.495895,366.170135 
	C200.895081,366.155182 199.875443,367.766388 199.912140,371.014954 
	C200.011932,379.845245 199.792236,388.682587 200.059891,397.506195 
	C200.198959,402.090729 198.580292,403.937378 193.979767,403.422729 
	C191.512070,403.146667 188.987991,403.374695 185.991409,403.375366 
M314.644623,182.823837 
	C313.315857,177.674194 312.418518,172.364136 310.574951,167.405914 
	C305.650238,154.161362 297.578278,143.651520 284.230194,137.598557 
	C272.261993,132.171326 259.721741,131.327423 247.058853,132.523697 
	C229.972610,134.137833 216.579163,142.390884 207.465698,157.128052 
	C196.933975,174.158615 196.059036,193.000366 197.789810,212.130219 
	C198.957733,225.038925 204.384811,236.377396 212.493896,246.478668 
	C218.147812,253.521606 224.747787,259.601379 231.327118,265.728729 
	C241.769409,275.453674 250.815430,286.184875 255.578094,299.965027 
	C258.016113,307.019043 259.134369,314.325562 259.684052,321.884766 
	C262.515259,321.241486 264.130981,319.527985 265.797699,317.976166 
	C281.426971,303.424652 294.182159,286.774597 303.248718,267.329926 
	C315.712006,240.600433 319.492859,212.746292 314.644623,182.823837 
z"/>
</svg>