<svg version="1.1" id="Layer_1" xmlns="http://www.w3.org/2000/svg" xmlns:xlink="http://www.w3.org/1999/xlink" x="0px" y="0px"
	 width="100%" viewBox="0 0 512 512" enable-background="new 0 0 512 512" xml:space="preserve">
<path fill="#000000" opacity="1.000000" stroke="none" 
	d="
M271.454041,139.547485 
	C249.246765,130.100372 227.082138,130.033600 205.800659,140.080368 
	C188.329620,148.328247 180.579605,164.378036 177.315704,182.833206 
	C176.321594,188.454163 176.258698,194.081116 176.261215,199.740112 
	C176.286011,255.724899 176.298996,311.709686 176.324112,367.694458 
	C176.325317,370.353271 176.431625,372.972443 177.046249,375.619293 
	C179.060654,384.294434 182.090271,387.236542 191.004150,387.620453 
	C194.905762,387.788513 196.258682,389.179230 196.214539,393.004730 
	C196.076416,404.974945 196.913712,403.309357 186.193542,403.365112 
	C171.197998,403.443115 156.199036,403.220398 141.207336,403.472229 
	C136.307404,403.554535 134.525040,402.200531 134.538635,397.018982 
	C134.709259,331.870361 134.496628,266.720367 134.785980,201.572510 
	C134.891525,177.809280 141.820480,156.241302 159.254013,139.148041 
	C171.492294,127.148598 186.632309,120.455009 203.141739,116.691299 
	C223.668503,112.011765 244.439804,111.249580 265.127869,114.842865 
	C295.372070,120.095940 321.050934,132.544159 334.078278,162.728745 
	C339.753937,175.879333 341.694244,189.902420 342.203430,204.087570 
	C342.555878,213.906036 342.270660,223.746658 342.331573,233.576996 
	C342.342651,235.362503 341.867126,237.246704 343.100983,239.143204 
	C346.327545,239.654419 349.479492,238.273575 352.734711,238.069885 
	C363.790588,237.378067 374.678864,238.309860 385.345551,241.368301 
	C404.585693,246.884964 411.980042,259.605286 415.341156,276.854889 
	C418.397064,292.538147 416.980560,308.389771 417.365845,324.176788 
	C417.461731,328.106995 415.827148,329.485962 412.022491,329.431793 
	C402.360443,329.294220 392.694000,329.302307 383.031647,329.428711 
	C379.193542,329.478943 377.645355,327.930695 377.677490,324.089539 
	C377.769470,313.093658 377.612854,302.095947 377.655701,291.099335 
	C377.678650,285.215912 376.610687,279.483704 375.165039,273.860107 
	C372.983337,265.373047 366.742462,260.825500 357.119354,260.133606 
	C342.316376,259.069336 342.305664,259.069336 342.308411,273.671936 
	C342.314270,305.163391 342.337494,336.654877 342.335968,368.146332 
	C342.335815,370.820343 342.527985,373.433289 343.191345,376.055267 
	C345.283539,384.324860 348.422150,387.294495 357.066772,387.590820 
	C361.307373,387.736237 362.479828,389.323181 362.395233,393.303375 
	C362.155640,404.569946 363.395630,403.331879 352.602234,403.370728 
	C337.439880,403.425323 322.273956,403.203156 307.116333,403.475494 
	C302.078949,403.566040 300.553589,401.959076 300.564606,396.917084 
	C300.709320,330.768555 300.819000,264.619019 300.544098,198.471329 
	C300.481598,183.433014 298.278473,168.600708 289.391785,155.638626 
	C284.767059,148.893005 278.836761,143.715958 271.454041,139.547485 
z"/>
</svg>