<svg version="1.1" id="Layer_1" xmlns="http://www.w3.org/2000/svg" xmlns:xlink="http://www.w3.org/1999/xlink" x="0px" y="0px"
	 width="100%" viewBox="0 0 512 512" enable-background="new 0 0 512 512" xml:space="preserve">
<path fill="#000000" opacity="1.000000" stroke="none" 
	d="
M360.362488,223.000092 
	C360.353394,255.492508 360.357086,287.484894 360.331482,319.477295 
	C360.297638,361.712891 332.466003,394.945526 291.202332,403.589783 
	C269.825195,408.068085 248.533386,409.004639 227.264648,405.105652 
	C198.097198,399.758728 173.762238,386.744629 160.925781,358.052307 
	C154.475937,343.635468 152.775818,328.260376 152.742798,312.690674 
	C152.630768,259.870087 152.681686,207.049149 152.624847,154.228394 
	C152.621994,151.582245 152.371246,148.906082 151.928665,146.296005 
	C150.197052,136.083984 148.035767,134.002777 137.777176,133.098862 
	C134.284683,132.791153 132.516159,131.411865 132.708160,127.839828 
	C132.717087,127.673843 132.707321,127.506584 132.701324,127.340103 
	C132.317505,116.708893 132.320938,116.696434 142.770889,116.691551 
	C157.600708,116.684616 172.430573,116.676857 187.260345,116.700363 
	C194.032166,116.711098 194.319946,116.997498 194.321136,123.752449 
	C194.332932,191.069855 194.275864,258.387360 194.390930,325.704590 
	C194.410141,336.945129 196.680710,347.837555 201.630203,358.059418 
	C207.094223,369.343903 215.487183,377.588837 227.223740,382.078339 
	C245.419662,389.038696 263.957397,389.859406 282.348663,383.240997 
	C301.375610,376.393799 311.733856,361.790833 316.671112,342.726013 
	C318.571747,335.386871 318.914185,327.950104 318.904877,320.450226 
	C318.834351,263.631165 318.770111,206.812103 318.661102,149.993118 
	C318.656982,147.852051 318.458038,145.649857 317.932281,143.582352 
	C316.046112,136.165161 312.988312,133.707916 305.373413,133.140976 
	C299.187927,132.680466 298.653961,131.848587 298.910583,123.071854 
	C299.078217,117.336784 299.712494,116.709312 305.817322,116.701073 
	C321.980133,116.679268 338.145325,116.850677 354.304443,116.606544 
	C359.234100,116.532066 360.481598,118.356125 360.458374,123.025734 
	C360.293518,156.183182 360.365570,189.341827 360.362488,223.000092 
z"/>
</svg>