<svg version="1.1" id="Layer_1" xmlns="http://www.w3.org/2000/svg" xmlns:xlink="http://www.w3.org/1999/xlink" x="0px" y="0px"
	 width="100%" viewBox="0 0 512 512" enable-background="new 0 0 512 512" xml:space="preserve">
<path fill="#000000" opacity="1.000000" stroke="none" 
	d="
M332.402283,170.000122 
	C332.405182,239.331940 332.406158,308.163727 332.413635,376.995544 
	C332.414459,384.644104 332.431702,384.646515 340.188690,384.648865 
	C359.521576,384.654663 378.855743,384.777496 398.186462,384.574768 
	C402.768646,384.526703 404.403381,386.001373 404.288513,390.585693 
	C403.910950,405.656036 406.123779,403.293304 391.640137,403.347137 
	C360.307953,403.463593 328.975006,403.382690 297.642365,403.365936 
	C290.952087,403.362335 290.892456,403.329529 290.935364,396.704681 
	C291.105896,370.378998 290.448975,344.047607 291.599426,317.725983 
	C291.749451,314.294006 293.172638,310.906006 292.203461,307.149292 
	C289.612152,307.367096 289.029144,309.577820 288.021545,311.055389 
	C275.355988,329.628204 257.316162,338.228729 235.386795,340.357819 
	C219.905777,341.860870 204.674637,340.629822 189.991089,336.098694 
	C167.452408,329.143585 153.036819,313.718353 146.799515,290.880310 
	C142.940735,276.751282 142.803986,262.255585 142.797379,247.754501 
	C142.796249,245.260559 142.801025,242.727844 142.398193,240.279663 
	C140.794617,230.534241 137.863571,227.838058 127.872269,227.385376 
	C124.155426,227.216980 123.012466,225.630219 122.881699,222.168671 
	C122.446800,210.655746 122.367691,210.661118 133.580551,210.665771 
	C148.413544,210.671921 163.248871,210.822449 178.078186,210.590729 
	C182.771835,210.517380 184.527588,211.873825 184.444534,216.784637 
	C184.185272,232.113159 184.025879,247.458511 184.468658,262.778839 
	C184.810165,274.595215 186.345642,286.320404 191.866226,297.121613 
	C198.001038,309.124603 207.879074,315.980164 220.956955,318.420166 
	C254.920258,324.756897 279.130859,306.843231 287.614716,274.213013 
	C290.097656,264.663269 290.976929,254.884216 290.963989,245.031876 
	C290.924896,215.199722 290.835968,185.367630 290.819916,155.535477 
	C290.817932,151.847275 290.284515,148.249115 289.762421,144.620224 
	C288.703339,137.258759 285.103821,133.824448 277.620300,133.243073 
	C275.227631,133.057205 271.925385,133.848755 271.315521,130.630295 
	C270.524872,126.457947 269.926178,122.018417 272.016296,117.971947 
	C272.773254,116.506424 274.632172,116.731323 276.126923,116.730644 
	C293.126526,116.722946 310.126709,116.804848 327.125336,116.678085 
	C331.415436,116.646095 332.480896,118.615784 332.449249,122.504173 
	C332.321686,138.168579 332.399994,153.834656 332.402283,170.000122 
z"/>
</svg>