<svg version="1.1" id="Layer_1" xmlns="http://www.w3.org/2000/svg" xmlns:xlink="http://www.w3.org/1999/xlink" x="0px" y="0px"
	 width="100%" viewBox="0 0 512 512" enable-background="new 0 0 512 512" xml:space="preserve">
<path fill="#000000" opacity="1.000000" stroke="none" 
	d="
M260.684326,237.258972 
	C282.100739,246.157532 303.259186,254.770447 322.228271,267.697510 
	C336.259491,277.259491 348.233826,288.871216 352.638794,305.938385 
	C361.487976,340.224609 348.989563,376.526306 313.821930,394.385162 
	C296.738129,403.060608 278.423035,406.699982 259.436493,407.312225 
	C238.509262,407.987122 217.798752,406.586517 197.937881,399.239136 
	C186.893799,395.153473 176.632446,389.575165 168.807053,380.519073 
	C160.700623,371.137726 155.987320,360.555054 157.505783,347.639832 
	C158.655090,337.864227 163.936584,331.434540 172.275497,327.200409 
	C177.050476,324.775879 182.255203,323.723450 187.695251,323.562683 
	C191.221497,323.458527 192.376190,324.666168 192.365845,328.118866 
	C192.340225,336.668091 193.945679,344.993530 196.870499,353.015594 
	C203.149353,370.236786 215.738495,380.404327 233.224579,384.721588 
	C251.906647,389.334076 270.554932,389.075958 288.720215,382.455658 
	C305.322327,376.405029 315.684113,364.684235 318.663971,346.916077 
	C321.937256,327.398285 314.606140,312.523590 298.951538,301.136932 
	C285.098175,291.060394 269.592529,284.123688 253.997452,277.399597 
	C232.436874,268.103394 210.949783,258.878571 191.661469,245.039230 
	C156.814346,220.036469 156.347656,173.567245 175.934845,146.850281 
	C188.013092,130.375504 204.717880,120.799568 224.322388,116.524170 
	C255.870178,109.644173 286.881500,111.488144 316.525879,125.063217 
	C328.326233,130.466965 337.435822,139.224655 339.788818,152.615112 
	C343.726379,175.023163 328.534241,184.983887 309.824768,185.243195 
	C306.984253,185.282547 306.670715,183.407410 306.666992,181.225861 
	C306.657562,175.693375 305.565308,170.299744 304.219421,164.986801 
	C300.612610,150.748932 291.512482,141.092026 277.772552,136.749527 
	C260.398407,131.258408 242.678528,130.825516 225.378494,137.501923 
	C195.440582,149.055527 188.908844,189.171814 213.310074,210.064865 
	C227.317535,222.058502 243.826813,229.543030 260.684326,237.258972 
z"/>
</svg>