<svg version="1.1" id="Layer_1" xmlns="http://www.w3.org/2000/svg" xmlns:xlink="http://www.w3.org/1999/xlink" x="0px" y="0px"
	 width="100%" viewBox="0 0 512 512" enable-background="new 0 0 512 512" xml:space="preserve">
<path fill="#000000" opacity="1.000000" stroke="none" 
	d="
M231.215576,141.230499 
	C215.060455,151.995834 208.092148,167.678864 205.301804,185.821274 
	C204.206390,192.943573 204.312805,200.092896 204.313217,207.248108 
	C204.316269,259.903687 204.328964,312.559235 204.367569,365.214813 
	C204.369141,367.368469 204.490433,369.549927 204.842270,371.670929 
	C207.043549,384.940277 207.650787,385.571106 220.947235,387.628632 
	C223.157074,387.970551 224.322266,388.775757 224.269119,391.049347 
	C224.265244,391.215607 224.286011,391.382324 224.286087,391.548828 
	C224.293121,406.071747 225.515869,403.201965 213.381012,403.339813 
	C198.386154,403.510193 183.385742,403.233521 168.392197,403.453339 
	C163.933151,403.518677 162.733643,401.939270 162.741364,397.645447 
	C162.857315,333.159149 162.649094,268.671814 162.938065,204.186615 
	C163.033295,182.934631 168.234879,162.939346 181.881119,145.936981 
	C191.944763,133.398346 204.761887,124.613174 219.995438,119.666588 
	C250.800964,109.663536 281.763092,110.136497 312.104279,120.988914 
	C341.690643,131.571350 358.161407,153.638748 363.400787,184.393509 
	C366.360413,201.766129 364.905396,219.278549 365.207855,236.734451 
	C365.334839,244.063919 365.124817,251.399277 365.255737,258.728607 
	C365.317017,262.160492 363.972015,263.454407 360.534119,263.410736 
	C350.038025,263.277405 339.536072,263.212891 329.042908,263.431519 
	C324.862549,263.518646 323.593994,261.966675 323.619141,257.910370 
	C323.750244,236.749084 324.005432,215.578766 323.535034,194.426758 
	C323.189606,178.892288 319.952545,163.870789 309.588470,151.570221 
	C298.285522,138.155350 283.075409,133.312683 266.021576,132.953308 
	C253.804092,132.695892 242.135635,134.541763 231.215576,141.230499 
z"/>
</svg>