<svg version="1.1" id="Layer_1" xmlns="http://www.w3.org/2000/svg" xmlns:xlink="http://www.w3.org/1999/xlink" x="0px" y="0px"
	 width="100%" viewBox="0 0 512 512" enable-background="new 0 0 512 512" xml:space="preserve">
<path fill="#000000" opacity="1.000000" stroke="none" 
	d="
M286.124695,379.089142 
	C307.190430,366.859924 313.339722,347.714172 313.082764,325.134552 
	C312.720917,293.338470 294.805939,275.086731 266.952454,264.342072 
	C248.138580,257.084534 248.188843,257.387939 229.254654,265.131805 
	C208.320267,273.693665 187.210098,281.825989 166.164932,290.116119 
	C164.796661,290.655121 163.329636,290.943512 161.970825,291.330750 
	C159.728775,289.576172 159.909012,287.094116 159.370224,284.902344 
	C158.457184,281.188080 157.495514,277.484253 156.666580,273.751099 
	C154.178299,262.545105 154.187439,262.488525 165.522034,259.853973 
	C181.713730,256.090424 197.923782,252.405807 214.130920,248.709015 
	C215.413162,248.416534 216.767929,248.375504 217.919144,247.040253 
	C207.225372,242.638412 196.836578,237.995285 187.172424,231.709595 
	C155.381332,211.032227 155.129517,161.574448 178.924210,138.141632 
	C193.786453,123.505440 211.948746,116.563927 231.941910,113.969643 
	C253.203064,111.210823 274.488953,111.775040 295.316742,117.585640 
	C310.703400,121.878265 324.299774,129.115280 334.148102,142.312897 
	C352.556549,166.981827 351.460327,213.154343 312.144043,233.282471 
	C302.027313,238.461746 291.489166,242.428741 279.529266,245.894745 
	C286.554657,248.073807 292.692566,249.749878 298.670990,251.874619 
	C316.681396,258.275421 333.436157,266.833313 344.281677,283.368500 
	C358.860260,305.595154 361.267212,329.738159 352.217987,354.469971 
	C343.074280,379.460052 323.208069,393.603302 298.745270,400.678314 
	C262.670135,411.111908 226.394516,410.711670 190.967438,397.239563 
	C173.830368,390.722748 160.404755,379.704102 154.528015,361.394897 
	C150.008667,347.314667 152.949417,334.800293 162.267654,328.296295 
	C169.349136,323.353455 180.078201,320.866913 189.839218,322.084351 
	C190.492920,329.856812 190.628342,337.783325 192.157333,345.611542 
	C197.093002,370.881256 214.219559,385.601349 240.111237,386.761841 
	C255.917526,387.470306 271.420807,386.955475 286.124695,379.089142 
M295.098114,148.409805 
	C290.422791,142.709961 284.325684,139.090439 277.546387,136.509415 
	C266.670380,132.368668 255.298355,132.183075 244.039978,133.477249 
	C225.773590,135.577011 211.057083,143.533722 205.296600,162.278931 
	C199.713776,180.446060 200.632629,198.376877 212.511200,214.052124 
	C221.948090,226.505264 235.922409,232.303360 250.489151,236.577148 
	C251.808426,236.964218 253.514603,236.643143 254.877319,236.174576 
	C265.443390,232.541519 275.511108,227.997055 284.663391,221.373749 
	C309.743164,203.224045 309.320709,165.272675 295.098114,148.409805 
z"/>
</svg>