<svg version="1.1" id="Layer_1" xmlns="http://www.w3.org/2000/svg" xmlns:xlink="http://www.w3.org/1999/xlink" x="0px" y="0px"
	 width="100%" viewBox="0 0 512 514" enable-background="new 0 0 512 514" xml:space="preserve">
<path fill="#FFFFFF" opacity="1.000000" stroke="none" 
	d="
M284.000000,515.000000 
	C189.356262,515.000000 95.212524,515.000000 1.034392,515.000000 
	C1.034392,343.731323 1.034392,172.462631 1.034392,1.096968 
	C171.560410,1.096968 342.120911,1.096968 512.840698,1.096968 
	C512.840698,172.333221 512.840698,343.666595 512.840698,515.000000 
	C436.795898,515.000000 360.647949,515.000000 284.000000,515.000000 
M217.844330,269.500061 
	C217.844330,251.189194 217.844330,232.878326 217.844330,214.371460 
	C225.187424,214.371460 232.141632,214.281372 239.092590,214.393219 
	C248.786240,214.549194 255.898743,219.531525 260.651855,227.475220 
	C265.985565,236.389206 270.640656,245.715530 275.445374,254.938339 
	C283.675415,270.736115 291.471680,286.769836 300.077026,302.358398 
	C305.226410,311.686523 313.386017,319.136841 323.943817,320.504211 
	C339.820038,322.560333 355.975555,322.459991 372.251221,323.288635 
	C372.251221,316.383057 372.251221,310.804596 372.251221,304.917908 
	C367.989471,304.917908 363.998596,304.949219 360.008392,304.911438 
	C351.508575,304.831024 344.995605,300.826813 340.333832,294.057007 
	C336.797150,288.921051 333.631531,283.473480 330.827301,277.899658 
	C322.204224,260.760071 314.083801,243.364563 305.298706,226.310272 
	C295.622131,207.525436 280.163300,197.316147 258.745697,196.834793 
	C246.600098,196.561829 234.452347,196.384644 222.305878,196.148087 
	C220.874817,196.120209 219.445770,195.989197 217.774399,195.891922 
	C217.774399,169.714783 217.774399,143.921692 217.774399,117.803329 
	C197.622452,117.803329 177.739273,117.803329 157.733002,117.803329 
	C157.733002,122.689850 157.733002,127.260689 157.733002,132.181335 
	C158.963882,132.181335 159.941650,132.133301 160.913559,132.188660 
	C172.274414,132.835831 175.951584,136.192230 176.890778,147.569962 
	C177.423752,154.026443 177.450195,160.536850 177.453156,167.023087 
	C177.488205,243.688004 177.475693,320.352936 177.475708,397.017883 
	C177.475708,398.948090 177.475708,400.878296 177.475708,402.772919 
	C198.059509,402.772919 217.992157,402.772919 237.850784,402.772919 
	C237.850784,397.802063 237.850784,393.071747 237.850784,388.369873 
	C223.717377,387.609497 218.348541,387.017456 218.107300,367.988129 
	C217.695404,335.496216 217.899170,302.996490 217.844330,269.500061 
z"/>
<path fill="#050505" opacity="1.000000" stroke="none" 
	d="
M217.844330,270.000061 
	C217.899170,302.996490 217.695404,335.496216 218.107300,367.988129 
	C218.348541,387.017456 223.717377,387.609497 237.850784,388.369873 
	C237.850784,393.071747 237.850784,397.802063 237.850784,402.772919 
	C217.992157,402.772919 198.059509,402.772919 177.475708,402.772919 
	C177.475708,400.878296 177.475708,398.948090 177.475708,397.017883 
	C177.475693,320.352936 177.488205,243.688004 177.453156,167.023087 
	C177.450195,160.536850 177.423752,154.026443 176.890778,147.569962 
	C175.951584,136.192230 172.274414,132.835831 160.913559,132.188660 
	C159.941650,132.133301 158.963882,132.181335 157.733002,132.181335 
	C157.733002,127.260689 157.733002,122.689850 157.733002,117.803329 
	C177.739273,117.803329 197.622452,117.803329 217.774399,117.803329 
	C217.774399,143.921692 217.774399,169.714783 217.774399,195.891922 
	C219.445770,195.989197 220.874817,196.120209 222.305878,196.148087 
	C234.452347,196.384644 246.600098,196.561829 258.745697,196.834793 
	C280.163300,197.316147 295.622131,207.525436 305.298706,226.310272 
	C314.083801,243.364563 322.204224,260.760071 330.827301,277.899658 
	C333.631531,283.473480 336.797150,288.921051 340.333832,294.057007 
	C344.995605,300.826813 351.508575,304.831024 360.008392,304.911438 
	C363.998596,304.949219 367.989471,304.917908 372.251221,304.917908 
	C372.251221,310.804596 372.251221,316.383057 372.251221,323.288635 
	C355.975555,322.459991 339.820038,322.560333 323.943817,320.504211 
	C313.386017,319.136841 305.226410,311.686523 300.077026,302.358398 
	C291.471680,286.769836 283.675415,270.736115 275.445374,254.938339 
	C270.640656,245.715530 265.985565,236.389206 260.651855,227.475220 
	C255.898743,219.531525 248.786240,214.549194 239.092590,214.393219 
	C232.141632,214.281372 225.187424,214.371460 217.844330,214.371460 
	C217.844330,232.878326 217.844330,251.189194 217.844330,270.000061 
z"/>
</svg>