<svg version="1.1" id="Layer_1" xmlns="http://www.w3.org/2000/svg" xmlns:xlink="http://www.w3.org/1999/xlink" x="0px" y="0px"
	 width="100%" viewBox="0 0 512 512" enable-background="new 0 0 512 512" xml:space="preserve">
<path fill="#000000" opacity="1.000000" stroke="none" 
	d="
M251.015320,403.384521 
	C236.222305,403.073517 236.972076,406.059174 236.975967,389.667023 
	C236.978699,378.167114 236.781662,366.660950 237.118988,355.170654 
	C237.238846,351.087524 235.960022,350.111237 232.119339,349.999176 
	C215.317261,349.508759 198.490311,348.908508 182.255447,343.832855 
	C149.838715,333.698212 130.281708,311.751007 123.953857,278.570343 
	C119.929802,257.469879 120.691177,236.424896 129.601944,216.365906 
	C140.149094,192.623276 158.861404,178.625381 183.446793,171.717987 
	C199.326553,167.256500 215.544525,166.119736 231.918671,166.724289 
	C236.051147,166.876877 237.570984,165.737274 237.087555,161.404449 
	C236.572311,156.786407 236.902725,152.080200 236.705032,147.419235 
	C236.309784,138.100357 232.550537,133.964828 223.292023,133.507629 
	C219.018265,133.296600 217.938492,131.439972 217.841995,127.641495 
	C217.566025,116.777542 217.536240,116.709167 228.248917,116.707596 
	C242.248856,116.705536 256.250092,116.826103 270.248016,116.661308 
	C274.795624,116.607758 276.433075,118.323387 276.359650,122.853859 
	C276.159821,135.183884 276.283539,147.519333 276.299194,159.852600 
	C276.307770,166.604736 276.329407,166.760681 283.291107,166.615540 
	C299.183594,166.284241 314.771820,167.933136 330.298889,171.621109 
	C360.167633,178.715530 384.385925,204.325317 389.427948,234.662155 
	C392.904236,255.578308 392.546234,276.105499 384.527496,296.029663 
	C373.622894,323.124573 352.829773,338.296692 325.156006,345.341034 
	C310.817383,348.990906 296.176392,349.317963 281.569946,349.992096 
	C277.369263,350.185974 275.967072,351.562622 276.259644,355.593079 
	C276.787994,362.872772 275.293762,370.275177 277.412811,377.457581 
	C279.366302,384.079010 282.443420,386.694153 289.326569,386.549652 
	C294.416138,386.442841 296.342163,388.526733 296.104156,393.307495 
	C296.037933,394.637421 296.026611,395.977936 296.110413,397.306030 
	C296.386139,401.674896 294.713531,403.564667 290.011017,403.470734 
	C277.182709,403.214508 264.345947,403.383820 251.015320,403.384521 
M284.632202,330.837250 
	C287.130829,330.825348 289.630768,330.862488 292.127838,330.794067 
	C319.934143,330.031952 340.662994,314.154510 348.277191,287.383972 
	C353.481506,269.086182 353.435333,250.421021 349.300598,232.054749 
	C345.689331,216.013779 337.611725,202.460022 322.821777,193.685638 
	C310.402618,186.317764 296.870941,184.835663 282.889709,185.065948 
	C276.370331,185.173325 276.358459,185.153290 276.358826,191.842087 
	C276.361298,235.819809 276.368164,279.797546 276.376160,323.775269 
	C276.377441,330.766571 276.383392,330.766571 284.632202,330.837250 
M237.044006,245.500000 
	C237.044006,225.575241 237.044006,205.650482 237.044006,185.169266 
	C228.700470,185.144135 220.995438,185.004425 213.214417,186.115753 
	C189.319382,189.528580 171.379852,205.627258 165.184937,228.828827 
	C160.704559,245.608978 161.063950,262.507904 163.689072,279.282776 
	C166.523056,297.392303 174.981903,312.577759 191.154633,322.510193 
	C204.564636,330.745941 219.451782,331.375427 234.556381,330.792511 
	C237.197784,330.690521 237.114334,328.903748 237.110123,326.911102 
	C237.053452,300.107483 237.056107,273.303711 237.044006,245.500000 
z"/>
</svg>