<svg version="1.1" id="Layer_1" xmlns="http://www.w3.org/2000/svg" xmlns:xlink="http://www.w3.org/1999/xlink" x="0px" y="0px"
	 width="100%" viewBox="0 0 512 512" enable-background="new 0 0 512 512" xml:space="preserve">
<path fill="#000000" opacity="1.000000" stroke="none" 
	d="
M282.131561,113.673660 
	C302.156342,115.887413 320.463745,120.947327 334.687592,135.849701 
	C345.535126,147.214676 350.244904,161.170425 352.190247,176.281738 
	C353.774994,188.592377 353.308105,200.889526 349.957123,212.895523 
	C342.905853,238.158813 325.082367,252.195908 300.831085,259.272736 
	C288.298584,262.929871 275.420685,264.246826 262.403503,264.298065 
	C250.241165,264.345917 238.077667,264.394043 225.916565,264.265320 
	C222.474655,264.228882 221.183029,265.431854 221.257431,268.917969 
	C221.435135,277.244751 221.569000,285.587799 221.230499,293.904297 
	C221.041473,298.548553 222.595306,299.872742 227.172745,299.853760 
	C265.325745,299.695343 303.479675,299.736542 341.633270,299.772797 
	C351.991760,299.782654 352.047394,298.259491 351.952972,309.993195 
	C351.946259,310.826172 351.957977,311.659332 351.953888,312.492340 
	C351.920959,319.196075 351.920410,319.217499 345.331329,319.217682 
	C306.178040,319.218781 267.024750,319.206848 227.871460,319.205353 
	C221.323044,319.205109 221.317749,319.218903 221.316803,325.841156 
	C221.313400,349.666351 221.188324,373.492706 221.416656,397.315704 
	C221.463516,402.204987 219.895538,403.620880 215.150269,403.467987 
	C205.330414,403.151611 195.486771,403.154572 185.666245,403.457794 
	C180.953888,403.603271 179.694717,401.826294 179.724335,397.369568 
	C179.883728,373.378815 179.686676,349.385437 179.897675,325.395508 
	C179.939804,320.606750 178.508011,318.902222 173.676315,319.118103 
	C166.360443,319.444977 159.017303,319.106567 151.688339,319.219421 
	C148.122742,319.274292 146.573303,317.948303 146.651978,314.231384 
	C147.024933,296.612000 144.196030,300.180054 160.519958,299.772949 
	C165.015610,299.660828 169.541733,299.459137 174.008057,299.838257 
	C178.813660,300.246185 179.885391,298.201599 179.865387,293.785461 
	C179.725662,262.963348 179.639267,232.138962 179.878876,201.317963 
	C179.999695,185.776993 181.985672,170.479507 188.329346,156.014267 
	C198.144806,133.632416 215.745880,121.035660 239.014862,115.760841 
	C253.067657,112.575233 267.336456,111.906723 282.131561,113.673660 
M309.185455,166.302811 
	C302.152191,137.196945 273.362030,123.352654 246.190842,136.300705 
	C230.752502,143.657608 225.921158,158.085510 223.462051,173.420151 
	C219.883606,195.734863 221.688782,218.288498 221.293930,240.744278 
	C221.235077,244.091202 222.748337,245.083832 225.831512,245.042099 
	C238.822586,244.866211 251.835144,245.220886 264.802612,244.601639 
	C285.536865,243.611481 302.091522,230.314163 308.299988,210.523880 
	C312.808411,196.152664 312.063782,181.656845 309.185455,166.302811 
z"/>
</svg>