<svg version="1.1" id="Layer_1" xmlns="http://www.w3.org/2000/svg" xmlns:xlink="http://www.w3.org/1999/xlink" x="0px" y="0px"
	 width="100%" viewBox="0 0 512 512" enable-background="new 0 0 512 512" xml:space="preserve">
<path fill="#000000" opacity="1.000000" stroke="none" 
	d="
M186.289551,388.792480 
	C159.663986,371.942963 145.759705,346.819855 137.635742,317.747894 
	C131.021301,294.077881 129.735138,269.839508 130.789383,245.504791 
	C132.027527,216.925140 137.796158,189.375626 153.279495,164.722351 
	C168.675827,140.207596 190.501709,124.575928 218.671844,117.397072 
	C245.279114,110.616501 271.793549,110.655663 298.086548,117.932632 
	C325.491058,125.517235 347.233368,141.179214 361.693359,166.126923 
	C373.231689,186.033981 378.856079,207.664246 381.571411,230.416122 
	C384.136993,251.913086 384.227386,273.316193 381.109436,294.614197 
	C376.843719,323.752075 367.261749,350.844360 346.608978,372.825592 
	C331.937531,388.440826 313.682617,398.077423 293.055939,403.171417 
	C273.468109,408.008820 253.673523,408.741180 233.653397,405.612366 
	C216.868927,402.989227 200.942612,398.320984 186.289551,388.792480 
M212.060104,373.434570 
	C213.402557,374.415375 214.684799,375.494171 216.096710,376.361969 
	C231.757202,385.987274 248.803848,388.734589 266.897522,386.900940 
	C288.137848,384.748444 305.306732,375.733826 317.547546,357.936279 
	C331.927032,337.029175 336.114899,312.955811 338.511993,288.522400 
	C340.037903,272.968781 339.672974,257.304993 338.938721,241.638535 
	C338.258331,227.121216 336.703217,212.776596 333.534027,198.648483 
	C329.972168,182.769897 324.584808,167.506653 313.470673,155.154419 
	C293.806000,133.299088 268.303925,129.512192 241.141006,133.937744 
	C214.510468,138.276566 197.380112,155.054901 187.260849,179.475754 
	C180.845428,194.958115 177.497116,211.152924 175.877792,227.818512 
	C172.534729,262.224365 173.608124,296.299347 183.504471,329.633972 
	C188.567352,346.687653 197.145370,361.783020 212.060104,373.434570 
z"/>
</svg>