<svg version="1.1" id="Layer_1" xmlns="http://www.w3.org/2000/svg" xmlns:xlink="http://www.w3.org/1999/xlink" x="0px" y="0px"
	 width="100%" viewBox="0 0 512 512" enable-background="new 0 0 512 512" xml:space="preserve">
<path fill="#000000" opacity="1.000000" stroke="none" 
	d="
M258.644867,207.580963 
	C235.261063,199.508728 227.196152,179.555740 229.161194,157.919189 
	C231.773880,129.151367 249.390991,111.175751 274.271881,99.102638 
	C276.644135,97.951508 278.063080,98.305069 279.499390,100.748055 
	C286.179169,112.109650 286.248871,112.061211 275.835999,119.770180 
	C264.868347,127.889885 257.509888,138.133148 257.384216,152.325363 
	C257.272675,164.919769 264.308624,173.019821 276.808441,174.785721 
	C280.680115,175.332672 282.640839,176.529297 282.447815,180.998657 
	C282.074707,189.639404 282.255768,198.308716 282.377686,206.963776 
	C282.422333,210.133850 281.331421,211.454346 278.040466,211.363266 
	C271.479004,211.181671 265.207703,209.714569 258.644867,207.580963 
z"/>
</svg>