<svg version="1.1" id="Layer_1" xmlns="http://www.w3.org/2000/svg" xmlns:xlink="http://www.w3.org/1999/xlink" x="0px" y="0px"
	 width="100%" viewBox="0 0 512 512" enable-background="new 0 0 512 512" xml:space="preserve">
<path fill="#000000" opacity="1.000000" stroke="none" 
	d="
M245.322083,207.437408 
	C234.795883,212.941193 237.041916,212.311050 232.578293,203.651993 
	C228.591660,195.918259 228.686615,195.889938 236.005890,190.862000 
	C245.910843,184.057877 253.496124,175.607346 256.181549,163.415222 
	C259.567474,148.042740 252.291321,136.727585 236.996964,134.287872 
	C233.326904,133.702423 231.451935,132.442093 231.587296,128.289413 
	C231.869339,119.636200 231.683533,110.967598 231.679764,102.305313 
	C231.678757,99.991890 231.851990,97.719437 234.994156,97.927376 
	C249.210510,98.868195 262.964966,101.498070 273.231110,112.424644 
	C285.781708,125.782623 287.361664,142.116150 283.862030,159.122162 
	C279.266205,181.455063 264.598389,196.144714 245.322083,207.437408 
z"/>
</svg>