<svg version="1.1" id="Layer_1" xmlns="http://www.w3.org/2000/svg" xmlns:xlink="http://www.w3.org/1999/xlink" x="0px" y="0px"
	 width="100%" viewBox="0 0 512 514" enable-background="new 0 0 512 514" xml:space="preserve">
<path fill="#FFFFFF" opacity="1.000000" stroke="none" 
	d="
M237.000000,515.000000 
	C158.019119,515.000000 79.538231,515.000000 1.028670,515.000000 
	C1.028670,343.727509 1.028670,172.455002 1.028670,1.091246 
	C171.564240,1.091246 342.128571,1.091246 512.846436,1.091246 
	C512.846436,172.333221 512.846436,343.666595 512.846436,515.000000 
	C421.121613,515.000000 329.310822,515.000000 237.000000,515.000000 
M234.158752,151.616074 
	C233.760696,154.828674 233.362640,158.041260 232.888779,161.865707 
	C239.984543,161.865707 246.272339,161.694611 252.543533,161.943115 
	C255.371552,162.055191 256.686615,161.077286 257.645966,158.518372 
	C261.721039,147.649063 266.223114,136.934174 270.083221,125.991440 
	C274.882202,112.387161 279.241669,98.626755 283.706146,84.906189 
	C285.189117,80.348656 283.440765,76.974525 279.555511,76.922150 
	C270.452087,76.799393 261.345886,76.882889 253.254944,76.882889 
	C246.869537,101.953194 240.646500,126.386040 234.158752,151.616074 
z"/>
<path fill="#030303" opacity="1.000000" stroke="none" 
	d="
M234.291107,151.217468 
	C240.646500,126.386040 246.869537,101.953194 253.254944,76.882889 
	C261.345886,76.882889 270.452087,76.799393 279.555511,76.922150 
	C283.440765,76.974525 285.189117,80.348656 283.706146,84.906189 
	C279.241669,98.626755 274.882202,112.387161 270.083221,125.991440 
	C266.223114,136.934174 261.721039,147.649063 257.645966,158.518372 
	C256.686615,161.077286 255.371552,162.055191 252.543533,161.943115 
	C246.272339,161.694611 239.984543,161.865707 232.888779,161.865707 
	C233.362640,158.041260 233.760696,154.828674 234.291107,151.217468 
z"/>
</svg>