<svg version="1.1" id="Layer_1" xmlns="http://www.w3.org/2000/svg" xmlns:xlink="http://www.w3.org/1999/xlink" x="0px" y="0px"
	 width="100%" viewBox="0 0 512 514" enable-background="new 0 0 512 514" xml:space="preserve">
<path fill="#FFFFFF" opacity="1.000000" stroke="none" 
	d="
M221.000000,515.000000 
	C147.351151,515.000000 74.202293,515.000000 1.026722,515.000000 
	C1.026722,343.726196 1.026722,172.452393 1.026722,1.089298 
	C171.565536,1.089298 342.131134,1.089298 512.848389,1.089298 
	C512.848389,172.333237 512.848389,343.666595 512.848389,515.000000 
	C415.785675,515.000000 318.642853,515.000000 221.000000,515.000000 
M237.145370,152.610016 
	C237.145370,155.551559 237.145370,158.493118 237.145370,161.640930 
	C246.324692,161.640930 255.079041,161.640930 263.998901,161.640930 
	C264.086212,160.361038 264.256866,159.211578 264.228485,158.067047 
	C263.938202,146.366852 269.133057,137.630035 278.692017,131.264267 
	C282.842529,128.500259 287.127075,125.931702 291.211029,123.074677 
	C305.930054,112.777557 312.721741,94.941612 308.800690,77.118584 
	C300.039459,77.118584 291.272308,77.118584 282.027740,77.118584 
	C282.027740,80.294670 281.968994,83.256546 282.038574,86.215401 
	C282.261688,95.704689 278.302460,102.896835 270.281860,107.913147 
	C267.040283,109.940529 263.863159,112.072899 260.593262,114.052704 
	C246.414429,122.637428 237.657913,134.567123 237.145370,152.610016 
z"/>
<path fill="#020202" opacity="1.000000" stroke="none" 
	d="
M237.186417,152.144470 
	C237.657913,134.567123 246.414429,122.637428 260.593262,114.052704 
	C263.863159,112.072899 267.040283,109.940529 270.281860,107.913147 
	C278.302460,102.896835 282.261688,95.704689 282.038574,86.215401 
	C281.968994,83.256546 282.027740,80.294670 282.027740,77.118584 
	C291.272308,77.118584 300.039459,77.118584 308.800690,77.118584 
	C312.721741,94.941612 305.930054,112.777557 291.211029,123.074677 
	C287.127075,125.931702 282.842529,128.500259 278.692017,131.264267 
	C269.133057,137.630035 263.938202,146.366852 264.228485,158.067047 
	C264.256866,159.211578 264.086212,160.361038 263.998901,161.640930 
	C255.079041,161.640930 246.324692,161.640930 237.145370,161.640930 
	C237.145370,158.493118 237.145370,155.551559 237.186417,152.144470 
z"/>
</svg>