<svg version="1.1" id="Layer_1" xmlns="http://www.w3.org/2000/svg" xmlns:xlink="http://www.w3.org/1999/xlink" x="0px" y="0px"
	 width="100%" viewBox="0 0 512 514" enable-background="new 0 0 512 514" xml:space="preserve">
<path fill="#FFFFFF" opacity="1.000000" stroke="none" 
	d="
M237.000000,515.000000 
	C158.019119,515.000000 79.538231,515.000000 1.028670,515.000000 
	C1.028670,343.727509 1.028670,172.455002 1.028670,1.091246 
	C171.564240,1.091246 342.128571,1.091246 512.846436,1.091246 
	C512.846436,172.333221 512.846436,343.666595 512.846436,515.000000 
	C421.121613,515.000000 329.310822,515.000000 237.000000,515.000000 
M253.348145,151.272018 
	C254.493088,154.025223 255.511322,156.842224 256.848999,159.498367 
	C257.343719,160.480743 258.571838,161.732819 259.495758,161.758148 
	C266.419373,161.947891 273.350616,161.861404 281.812744,161.861404 
	C274.677399,133.119354 267.756989,105.243111 260.716278,76.882195 
	C252.928345,76.882195 244.636337,76.874779 236.344360,76.884674 
	C230.326141,76.891853 228.331284,79.498543 230.342606,85.336006 
	C237.842163,107.101883 245.477844,128.820862 253.348145,151.272018 
z"/>
<path fill="#030303" opacity="1.000000" stroke="none" 
	d="
M253.205292,150.914734 
	C245.477844,128.820862 237.842163,107.101883 230.342606,85.336006 
	C228.331284,79.498543 230.326141,76.891853 236.344360,76.884674 
	C244.636337,76.874779 252.928345,76.882195 260.716278,76.882195 
	C267.756989,105.243111 274.677399,133.119354 281.812744,161.861404 
	C273.350616,161.861404 266.419373,161.947891 259.495758,161.758148 
	C258.571838,161.732819 257.343719,160.480743 256.848999,159.498367 
	C255.511322,156.842224 254.493088,154.025223 253.205292,150.914734 
z"/>
</svg>