<svg version="1.1" id="Layer_1" xmlns="http://www.w3.org/2000/svg" xmlns:xlink="http://www.w3.org/1999/xlink" x="0px" y="0px"
	 width="100%" viewBox="0 0 512 514" enable-background="new 0 0 512 514" xml:space="preserve">
<path fill="#FFFFFF" opacity="1.000000" stroke="none" 
	d="
M353.000000,515.000000 
	C235.361862,515.000000 118.223724,515.000000 1.042793,515.000000 
	C1.042793,343.736908 1.042793,172.473831 1.042793,1.105368 
	C171.554810,1.105368 342.109711,1.105368 512.832275,1.105368 
	C512.832275,172.333191 512.832275,343.666595 512.832275,515.000000 
	C459.807129,515.000000 406.653564,515.000000 353.000000,515.000000 
M238.980667,139.845276 
	C241.679153,130.319855 243.254135,120.278893 247.334152,111.387413 
	C253.778610,97.343155 266.638702,91.169800 281.221252,93.000916 
	C291.446808,94.284920 297.435760,101.364372 297.124878,111.800301 
	C296.832275,121.622635 291.078613,127.747398 280.658081,127.962784 
	C274.197388,128.096313 267.705902,126.740059 260.985413,126.026749 
	C261.133118,133.491455 263.506073,140.839935 271.276459,144.282822 
	C277.175415,146.896515 283.830048,148.629944 290.258453,149.043167 
	C301.867584,149.789429 312.917633,147.058044 321.080322,137.976776 
	C337.699493,119.487373 331.665131,89.163597 309.156433,78.215279 
	C280.563141,64.307365 231.602341,69.868805 212.995697,114.898155 
	C207.540665,128.099686 205.325989,141.862534 205.482162,156.361771 
	C216.491348,156.361771 227.067383,156.361771 237.653534,156.361771 
	C238.081116,150.993362 238.488846,145.874084 238.980667,139.845276 
z"/>
<path fill="#030303" opacity="1.000000" stroke="none" 
	d="
M238.938629,140.300049 
	C238.488846,145.874084 238.081116,150.993362 237.653534,156.361771 
	C227.067383,156.361771 216.491348,156.361771 205.482162,156.361771 
	C205.325989,141.862534 207.540665,128.099686 212.995697,114.898155 
	C231.602341,69.868805 280.563141,64.307365 309.156433,78.215279 
	C331.665131,89.163597 337.699493,119.487373 321.080322,137.976776 
	C312.917633,147.058044 301.867584,149.789429 290.258453,149.043167 
	C283.830048,148.629944 277.175415,146.896515 271.276459,144.282822 
	C263.506073,140.839935 261.133118,133.491455 260.985413,126.026749 
	C267.705902,126.740059 274.197388,128.096313 280.658081,127.962784 
	C291.078613,127.747398 296.832275,121.622635 297.124878,111.800301 
	C297.435760,101.364372 291.446808,94.284920 281.221252,93.000916 
	C266.638702,91.169800 253.778610,97.343155 247.334152,111.387413 
	C243.254135,120.278893 241.679153,130.319855 238.938629,140.300049 
z"/>
</svg>