<svg version="1.1" id="Layer_1" xmlns="http://www.w3.org/2000/svg" xmlns:xlink="http://www.w3.org/1999/xlink" x="0px" y="0px"
	 width="100%" viewBox="0 0 512 514" enable-background="new 0 0 512 514" xml:space="preserve">
<path fill="#FFFFFF" opacity="1.000000" stroke="none" 
	d="
M337.000000,515.000000 
	C224.693893,515.000000 112.887794,515.000000 1.040845,515.000000 
	C1.040845,343.735626 1.040845,172.471237 1.040845,1.103420 
	C171.556122,1.103420 342.112305,1.103420 512.834229,1.103420 
	C512.834229,172.333206 512.834229,343.666595 512.834229,515.000000 
	C454.471191,515.000000 395.985596,515.000000 337.000000,515.000000 
M272.502380,160.118713 
	C289.273712,160.118713 306.045044,160.118713 322.767395,160.118713 
	C322.767395,152.645248 322.767395,145.603683 322.767395,138.377640 
	C303.270752,138.377640 284.122009,138.577255 264.981171,138.275558 
	C257.717194,138.161072 250.299042,137.630463 243.255798,135.985275 
	C231.219559,133.173828 226.599426,125.745834 227.973572,113.559891 
	C229.058044,103.942917 236.308701,97.182465 247.247116,97.063454 
	C254.758667,96.981720 262.287476,98.483948 270.212494,99.320824 
	C270.246674,90.316559 266.112305,83.085358 257.888214,78.275040 
	C243.431564,69.819275 218.238998,74.360558 207.406067,87.219238 
	C186.280792,112.294922 196.976883,147.762512 228.367630,156.742325 
	C242.519455,160.790680 257.039673,160.090637 272.502380,160.118713 
z"/>
<path fill="#030303" opacity="1.000000" stroke="none" 
	d="
M272.003418,160.118698 
	C257.039673,160.090637 242.519455,160.790680 228.367630,156.742325 
	C196.976883,147.762512 186.280792,112.294922 207.406067,87.219238 
	C218.238998,74.360558 243.431564,69.819275 257.888214,78.275040 
	C266.112305,83.085358 270.246674,90.316559 270.212494,99.320824 
	C262.287476,98.483948 254.758667,96.981720 247.247116,97.063454 
	C236.308701,97.182465 229.058044,103.942917 227.973572,113.559891 
	C226.599426,125.745834 231.219559,133.173828 243.255798,135.985275 
	C250.299042,137.630463 257.717194,138.161072 264.981171,138.275558 
	C284.122009,138.577255 303.270752,138.377640 322.767395,138.377640 
	C322.767395,145.603683 322.767395,152.645248 322.767395,160.118713 
	C306.045044,160.118713 289.273712,160.118713 272.003418,160.118698 
z"/>
</svg>