<svg version="1.1" id="Layer_1" xmlns="http://www.w3.org/2000/svg" xmlns:xlink="http://www.w3.org/1999/xlink" x="0px" y="0px"
	 width="100%" viewBox="0 0 512 512" enable-background="new 0 0 512 512" xml:space="preserve">
<path fill="#000000" opacity="1.000000" stroke="none" 
	d="
M333.182739,241.121582 
	C335.979309,251.690964 337.339081,262.032440 337.353241,272.575195 
	C337.361267,278.562256 336.781494,284.585907 337.799622,290.534363 
	C339.055145,297.870148 341.584564,300.075348 349.052826,300.739502 
	C359.424713,301.661835 359.230835,301.663635 359.327148,312.242188 
	C359.368683,316.809021 357.856293,318.350800 353.264984,318.293182 
	C336.436676,318.082001 319.602600,318.083252 302.774200,318.289734 
	C298.160461,318.346313 296.680664,316.751709 296.738586,312.197845 
	C296.918793,298.036835 296.915680,283.867126 296.611877,269.708801 
	C296.447449,262.045502 294.957428,254.484726 292.330841,247.252563 
	C286.166412,230.279282 272.577423,224.955322 256.094543,226.701340 
	C238.876755,228.525208 230.227234,240.181244 225.304428,255.467087 
	C221.540268,267.155182 220.564987,279.305969 220.440094,291.430878 
	C220.141418,320.423706 220.472046,349.422760 220.222763,378.416504 
	C220.177917,383.633453 221.853348,384.782867 226.784653,384.757202 
	C263.778381,384.564636 300.774048,384.742889 337.767792,384.551849 
	C342.757172,384.526123 344.428986,385.859680 344.333496,390.981873 
	C344.102448,403.380585 344.342804,403.381317 331.842255,403.377716 
	C296.847229,403.367645 261.852203,403.359100 226.857193,403.354645 
	C220.370575,403.353821 220.354874,403.363861 220.351318,410.069733 
	C220.340820,429.900238 220.413528,449.731171 220.290527,469.560944 
	C220.261398,474.258423 220.909988,478.859467 221.407990,483.484619 
	C221.860397,487.686310 224.242538,490.451172 228.373459,491.690948 
	C230.796295,492.418121 233.255386,492.952118 235.755051,492.646820 
	C240.304855,492.091156 241.946030,493.977112 242.005569,498.518768 
	C242.147644,509.359680 242.310226,509.358826 231.431747,509.361328 
	C216.600525,509.364746 201.769302,509.373535 186.938080,509.364868 
	C180.020950,509.360840 180.024628,509.344666 180.026428,502.395905 
	C180.047455,421.407501 180.073853,340.419128 180.075867,259.430725 
	C180.076050,252.434540 180.094879,245.430267 179.785019,238.443954 
	C179.255554,226.506470 175.969086,222.939911 164.074539,222.555099 
	C158.882767,222.387100 157.595810,220.548416 157.710709,215.731781 
	C157.976486,204.590424 157.060364,205.710098 167.659332,205.693665 
	C181.990585,205.671432 196.323196,205.805313 210.652374,205.633362 
	C214.730072,205.584427 216.191147,207.036972 216.410873,211.087509 
	C216.752106,217.377411 217.690338,223.636444 218.430649,229.902039 
	C218.604355,231.372192 218.902939,232.860764 220.207153,233.867493 
	C221.943710,233.755234 222.167282,232.228363 222.777710,231.149231 
	C232.048386,214.760162 245.466049,204.562897 264.605560,202.398132 
	C278.762573,200.796936 292.545044,201.670441 305.670807,207.540848 
	C320.228027,214.051468 328.252747,226.110886 333.182739,241.121582 
z"/>
</svg>