<svg version="1.1" id="Layer_1" xmlns="http://www.w3.org/2000/svg" xmlns:xlink="http://www.w3.org/1999/xlink" x="0px" y="0px"
	 width="100%" viewBox="0 0 512 512" enable-background="new 0 0 512 512" xml:space="preserve">
<path fill="#000000" opacity="1.000000" stroke="none" 
	d="
M330.777710,482.104919 
	C332.635773,490.560638 335.448059,493.117950 344.959686,493.468292 
	C349.782043,493.645905 351.377014,495.297241 351.353485,499.965027 
	C351.305969,509.384796 351.481293,509.384979 341.883850,509.383667 
	C326.552216,509.381561 311.218567,509.240967 295.890228,509.464417 
	C291.318817,509.531036 289.701385,507.989441 289.720123,503.440094 
	C289.856171,470.444458 289.690063,437.447144 289.933105,404.452667 
	C290.004028,394.819977 291.119629,385.196381 291.680969,375.564209 
	C291.763336,374.150757 292.276642,372.599579 291.014954,371.061157 
	C288.576416,372.282318 287.864105,374.837952 286.740662,376.880005 
	C272.837158,402.152161 246.233627,410.921997 219.731079,405.936157 
	C210.101898,404.124664 201.015915,401.209412 192.865906,395.796173 
	C177.917313,385.867371 169.801804,371.100861 164.921066,354.451172 
	C157.307846,328.480103 156.924316,302.000916 160.517853,275.349945 
	C162.909225,257.614716 167.887802,240.898987 179.333481,226.647354 
	C192.043671,210.821259 209.104568,203.619583 228.781387,201.903625 
	C238.605255,201.046921 248.328995,201.758652 257.841125,205.037247 
	C271.667145,209.802734 281.381409,219.034653 288.410736,231.541626 
	C289.562775,233.591385 289.931580,236.375061 293.283997,237.393661 
	C295.618683,231.207214 295.663330,224.700165 296.613251,218.423325 
	C298.988922,202.724976 296.995789,206.003571 310.642120,205.682465 
	C315.805145,205.560959 320.975037,205.745422 326.139313,205.652939 
	C329.078339,205.600311 330.420074,206.759216 330.327393,209.781830 
	C330.209961,213.610886 330.318390,217.446655 330.318390,221.279541 
	C330.318604,272.940430 330.316162,324.601318 330.316345,376.262207 
	C330.316376,383.714966 330.321198,383.721283 337.539154,383.725922 
	C349.037872,383.733246 360.538300,383.846649 372.034393,383.674072 
	C376.387787,383.608704 378.043671,385.487518 378.030518,389.620087 
	C377.976685,406.539246 379.236115,403.067322 365.269592,403.339661 
	C355.274597,403.534607 345.272491,403.394958 335.273773,403.354645 
	C332.537811,403.343597 330.286316,403.565918 330.309509,407.227509 
	C330.466736,432.049957 330.551025,456.872833 330.777710,482.104919 
M290.168823,325.849579 
	C291.338013,314.916962 291.555939,303.980042 290.803986,292.996246 
	C289.859802,279.204498 288.599670,265.461365 283.565125,252.454010 
	C273.680634,226.916382 252.877899,219.232452 229.325272,227.147964 
	C219.206589,230.548615 212.708008,238.568130 208.317581,248.076233 
	C201.800964,262.188904 199.338943,277.183197 199.196854,292.645782 
	C199.002899,313.748993 198.356369,334.834808 205.244064,355.308624 
	C211.372940,373.526794 223.370132,384.520905 241.497635,385.357666 
	C258.908081,386.161316 272.454681,378.567230 280.473297,362.618469 
	C286.132599,351.362274 289.144836,339.320343 290.168823,325.849579 
z"/>
</svg>