<svg version="1.1" id="Layer_1" xmlns="http://www.w3.org/2000/svg" xmlns:xlink="http://www.w3.org/1999/xlink" x="0px" y="0px"
	 width="100%" viewBox="0 0 512 514" enable-background="new 0 0 512 514" xml:space="preserve">
<path fill="#FFFFFF" opacity="1.000000" stroke="none" 
	d="
M280.000000,515.000000 
	C186.689270,515.000000 93.878540,515.000000 1.033905,515.000000 
	C1.033905,343.730988 1.033905,172.461975 1.033905,1.096481 
	C171.560745,1.096481 342.121552,1.096481 512.841187,1.096481 
	C512.841187,172.333221 512.841187,343.666595 512.841187,515.000000 
	C435.461914,515.000000 357.980957,515.000000 280.000000,515.000000 
M235.858276,208.305954 
	C223.908890,214.838562 216.263916,225.499649 208.852112,236.769852 
	C207.142899,228.185898 205.781586,219.863983 205.240143,211.489044 
	C204.949112,206.987167 203.230438,205.944000 199.102936,206.000122 
	C184.943054,206.192734 170.778915,206.055664 156.616455,206.078629 
	C146.208160,206.095505 148.369232,205.332367 147.862106,214.936050 
	C147.595383,219.987076 148.425476,222.183914 154.336853,222.319824 
	C165.555130,222.577759 168.553406,225.958771 169.487854,237.153351 
	C169.944458,242.623367 170.240967,248.124222 170.247528,253.611572 
	C170.304916,301.597382 170.277191,349.583313 170.292801,397.569214 
	C170.293365,399.302948 170.481308,401.036591 170.577744,402.698669 
	C190.820068,402.698669 210.405014,402.698669 230.462128,402.698669 
	C230.462128,399.438812 230.137589,396.427002 230.536057,393.514130 
	C231.179062,388.813751 229.401413,387.374725 224.745224,386.954620 
	C211.642242,385.772308 209.655792,383.342163 209.246063,370.122131 
	C209.199631,368.623840 209.223053,367.123291 209.221161,365.623779 
	C209.188599,339.798370 209.034500,313.972260 209.180283,288.147858 
	C209.247223,276.292358 210.930801,264.629303 214.884247,253.345367 
	C223.622269,228.405396 246.139206,220.769043 268.824341,229.004761 
	C279.274841,232.798752 284.674744,241.912979 286.653198,252.098160 
	C288.922455,263.780273 290.377197,275.812744 290.432892,287.701233 
	C290.767731,359.178650 290.596100,430.658417 290.613983,502.137421 
	C290.614563,504.377747 290.831757,506.618042 290.941162,508.726898 
	C311.222595,508.726898 330.960754,508.726898 350.775085,508.726898 
	C350.775085,503.746521 350.775085,499.151306 350.775085,494.288116 
	C349.430267,494.098236 348.319580,493.858673 347.198975,493.795776 
	C332.930481,492.994873 330.071777,490.121826 330.022339,475.989685 
	C329.940704,452.663574 329.962341,429.337067 329.968384,406.010742 
	C329.968628,405.085449 330.255798,404.160248 330.447937,403.001801 
	C342.018280,403.001801 353.330444,403.001801 364.642609,403.001801 
	C378.150604,403.001801 378.042023,403.004883 377.652802,389.355804 
	C377.542847,385.499451 376.177673,384.175873 372.318970,384.230286 
	C359.491974,384.411285 346.660797,384.308838 333.831299,384.284180 
	C332.591919,384.281799 331.352936,384.064880 329.961609,383.933167 
	C329.961609,382.129303 329.961639,380.812408 329.961639,379.495514 
	C329.961823,346.838440 330.291473,314.176331 329.788849,281.526978 
	C329.605408,269.612091 328.474701,257.504791 325.963715,245.876663 
	C321.070099,223.215179 307.904327,207.529877 284.036163,203.386887 
	C267.901611,200.586273 251.855911,201.167328 235.858276,208.305954 
z"/>
<path fill="#020202" opacity="1.000000" stroke="none" 
	d="
M236.200470,208.158173 
	C251.855911,201.167328 267.901611,200.586273 284.036163,203.386887 
	C307.904327,207.529877 321.070099,223.215179 325.963715,245.876663 
	C328.474701,257.504791 329.605408,269.612091 329.788849,281.526978 
	C330.291473,314.176331 329.961823,346.838440 329.961639,379.495514 
	C329.961639,380.812408 329.961609,382.129303 329.961609,383.933167 
	C331.352936,384.064880 332.591919,384.281799 333.831299,384.284180 
	C346.660797,384.308838 359.491974,384.411285 372.318970,384.230286 
	C376.177673,384.175873 377.542847,385.499451 377.652802,389.355804 
	C378.042023,403.004883 378.150604,403.001801 364.642609,403.001801 
	C353.330444,403.001801 342.018280,403.001801 330.447937,403.001801 
	C330.255798,404.160248 329.968628,405.085449 329.968384,406.010742 
	C329.962341,429.337067 329.940704,452.663574 330.022339,475.989685 
	C330.071777,490.121826 332.930481,492.994873 347.198975,493.795776 
	C348.319580,493.858673 349.430267,494.098236 350.775085,494.288116 
	C350.775085,499.151306 350.775085,503.746521 350.775085,508.726898 
	C330.960754,508.726898 311.222595,508.726898 290.941162,508.726898 
	C290.831757,506.618042 290.614563,504.377747 290.613983,502.137421 
	C290.596100,430.658417 290.767731,359.178650 290.432892,287.701233 
	C290.377197,275.812744 288.922455,263.780273 286.653198,252.098160 
	C284.674744,241.912979 279.274841,232.798752 268.824341,229.004761 
	C246.139206,220.769043 223.622269,228.405396 214.884247,253.345367 
	C210.930801,264.629303 209.247223,276.292358 209.180283,288.147858 
	C209.034500,313.972260 209.188599,339.798370 209.221161,365.623779 
	C209.223053,367.123291 209.199631,368.623840 209.246063,370.122131 
	C209.655792,383.342163 211.642242,385.772308 224.745224,386.954620 
	C229.401413,387.374725 231.179062,388.813751 230.536057,393.514130 
	C230.137589,396.427002 230.462128,399.438812 230.462128,402.698669 
	C210.405014,402.698669 190.820068,402.698669 170.577744,402.698669 
	C170.481308,401.036591 170.293365,399.302948 170.292801,397.569214 
	C170.277191,349.583313 170.304916,301.597382 170.247528,253.611572 
	C170.240967,248.124222 169.944458,242.623367 169.487854,237.153351 
	C168.553406,225.958771 165.555130,222.577759 154.336853,222.319824 
	C148.425476,222.183914 147.595383,219.987076 147.862106,214.936050 
	C148.369232,205.332367 146.208160,206.095505 156.616455,206.078629 
	C170.778915,206.055664 184.943054,206.192734 199.102936,206.000122 
	C203.230438,205.944000 204.949112,206.987167 205.240143,211.489044 
	C205.781586,219.863983 207.142899,228.185898 208.852112,236.769852 
	C216.263916,225.499649 223.908890,214.838562 236.200470,208.158173 
z"/>
</svg>