<svg version="1.1" id="Layer_1" xmlns="http://www.w3.org/2000/svg" xmlns:xlink="http://www.w3.org/1999/xlink" x="0px" y="0px"
	 width="100%" viewBox="0 0 512 512" enable-background="new 0 0 512 512" xml:space="preserve">
<path fill="#000000" opacity="1.000000" stroke="none" 
	d="
M292.000000,224.932114 
	C268.167450,224.931442 244.834076,225.034973 221.503067,224.845062 
	C216.745728,224.806335 215.220032,226.252487 215.249146,231.107101 
	C215.442978,263.438202 215.143768,295.773071 215.465469,328.102112 
	C215.572617,338.870483 216.923416,349.564087 220.067642,360.070496 
	C227.544159,385.053406 252.617981,387.793121 268.865814,379.865143 
	C283.189545,372.875946 288.926178,359.619537 292.594269,345.223480 
	C296.041077,331.695892 295.784027,317.839661 295.693939,304.015442 
	C295.640686,295.849426 295.795105,287.680786 295.642639,279.517334 
	C295.581696,276.253937 296.897491,275.028381 300.032288,275.044281 
	C310.364868,275.096710 320.699097,275.137726 331.030273,275.000916 
	C335.206299,274.945587 335.381622,277.407288 335.375732,280.543610 
	C335.325287,307.375946 335.360657,334.208435 335.335083,361.040863 
	C335.330933,365.380920 335.567352,369.679504 336.230255,373.980438 
	C337.571503,382.682892 341.176453,386.061584 350.092194,386.646301 
	C357.209137,387.113007 357.235809,387.113037 357.229431,393.975555 
	C357.219635,404.496857 358.001526,403.331360 347.821533,403.362854 
	C333.655487,403.406677 319.487976,403.261505 305.323792,403.427765 
	C301.316986,403.474792 299.960815,402.117798 299.506134,398.062195 
	C298.550262,389.536163 298.441681,380.878143 296.402527,371.840851 
	C292.994598,374.602173 291.990448,378.263672 290.139374,381.248993 
	C278.652313,399.774567 261.734802,407.972565 240.364502,408.304993 
	C231.300629,408.445984 222.394226,407.729156 213.766922,404.895142 
	C197.686432,399.612732 187.726685,388.121857 181.866760,372.720703 
	C177.686295,361.733551 175.902512,350.262817 175.648224,338.533173 
	C174.189011,271.219971 175.458221,203.898758 175.038803,136.582581 
	C175.022202,133.917938 174.948807,131.250763 174.801086,128.590347 
	C174.260422,118.854225 170.994461,115.785667 161.101120,115.302589 
	C158.773911,115.188957 155.310211,116.583153 154.428635,113.581757 
	C153.125702,109.145935 153.248718,104.364151 154.425644,99.803131 
	C154.735077,98.603951 156.359390,98.687660 157.517807,98.686798 
	C175.517029,98.673347 193.516556,98.736259 211.515213,98.635124 
	C215.712006,98.611542 215.344299,101.319695 215.344528,104.013191 
	C215.346130,122.345909 215.347656,140.678635 215.348450,159.011353 
	C215.349014,172.177582 215.345718,185.343811 215.349457,198.510040 
	C215.351501,205.678024 215.356491,205.691193 222.335907,205.691956 
	C264.001190,205.696426 305.666473,205.693787 347.331757,205.694946 
	C355.244019,205.695175 355.312714,205.698776 355.237427,213.608185 
	C355.124786,225.446472 356.965851,224.973160 343.996490,224.954437 
	C326.831024,224.929642 309.665497,224.938324 292.000000,224.932114 
z"/>
</svg>