<svg version="1.1" id="Layer_1" xmlns="http://www.w3.org/2000/svg" xmlns:xlink="http://www.w3.org/1999/xlink" x="0px" y="0px"
	 width="100%" viewBox="0 0 512 512" enable-background="new 0 0 512 512" xml:space="preserve">
<path fill="#000000" opacity="1.000000" stroke="none" 
	d="
M292.651917,440.999939 
	C292.547150,417.396759 292.383301,394.292450 294.727631,370.043732 
	C289.987427,374.251556 288.006836,378.866119 285.431641,382.891693 
	C272.111481,403.713806 244.211731,410.197479 222.678085,406.087891 
	C204.498413,402.618469 189.442398,394.823700 178.929443,379.195282 
	C172.620682,369.816742 168.206116,359.549713 165.881134,348.598755 
	C159.266083,317.441284 158.542694,286.285858 167.360779,255.327499 
	C178.650360,215.692352 209.972076,198.393845 247.858459,202.145599 
	C266.931366,204.034302 281.416443,214.099564 290.763763,231.134705 
	C291.929230,233.258759 292.503174,235.858551 294.897064,237.280060 
	C297.427856,236.436630 297.064362,233.999115 297.340546,232.281479 
	C298.341400,226.057480 299.069824,219.784866 299.735596,213.513046 
	C300.511597,206.202560 300.993408,205.669220 308.145996,205.663452 
	C314.643097,205.658218 321.148224,205.858292 327.634399,205.592148 
	C331.869934,205.418365 333.338257,207.151520 333.086670,211.164734 
	C332.899445,214.151550 333.054108,217.159714 333.054077,220.158371 
	C333.052490,307.286011 333.049835,394.413666 333.050354,481.541321 
	C333.050415,489.779846 333.059631,489.786926 341.161285,489.785797 
	C353.822266,489.784027 366.484253,489.858002 379.143738,489.716278 
	C383.512421,489.667389 385.520386,491.131927 385.399231,495.804321 
	C384.978424,512.032593 387.573059,509.225616 372.082825,509.333740 
	C347.761566,509.503571 323.437256,509.263855 299.116638,509.474487 
	C294.145111,509.517578 292.455139,508.087830 292.521271,502.969086 
	C292.785828,482.482239 292.643890,461.990112 292.651917,440.999939 
M234.640472,225.970932 
	C224.544968,229.441849 217.186310,236.103226 212.210739,245.437073 
	C206.331619,256.465912 203.681564,268.449158 202.368637,280.737640 
	C200.666016,296.673462 201.008621,312.656097 202.392151,328.583923 
	C203.549072,341.903046 206.359619,354.879364 213.072632,366.681641 
	C220.559067,379.843658 235.598465,386.831390 250.602524,385.126556 
	C269.742218,382.951874 280.527313,371.428192 286.696014,354.364288 
	C294.208374,333.583618 294.593872,312.003387 293.239136,290.330811 
	C292.429443,277.377350 290.928192,264.458130 286.020966,252.253860 
	C281.116241,240.055847 273.828186,230.049118 260.538086,226.029709 
	C252.228821,223.516708 243.802567,223.877945 234.640472,225.970932 
z"/>
</svg>