<svg version="1.1" id="Layer_1" xmlns="http://www.w3.org/2000/svg" xmlns:xlink="http://www.w3.org/1999/xlink" x="0px" y="0px"
	 width="100%" viewBox="0 0 512 512" enable-background="new 0 0 512 512" xml:space="preserve">
<path fill="#000000" opacity="1.000000" stroke="none" 
	d="
M192.822296,230.000000 
	C192.776962,196.508026 192.751892,163.516022 192.676041,130.524124 
	C192.648636,118.601379 189.272751,114.813950 177.389557,114.496887 
	C172.563660,114.368126 171.486771,112.498451 171.608643,108.196014 
	C171.918259,97.267586 170.642075,98.722290 181.363052,98.668106 
	C196.692566,98.590622 212.025223,98.803650 227.351212,98.559502 
	C231.986771,98.485657 233.336227,100.039055 233.312927,104.575607 
	C233.151230,136.067764 233.213379,167.561127 233.220749,199.054092 
	C233.222305,205.681305 233.254837,205.693375 239.796524,205.694427 
	C269.789856,205.699203 299.783936,205.804214 329.775757,205.591843 
	C334.828125,205.556076 336.476013,207.046387 336.301880,212.106705 
	C335.812653,226.322021 338.406555,224.912888 323.532898,224.938370 
	C295.872528,224.985748 268.212006,224.929001 240.551529,224.923325 
	C233.198395,224.921814 233.190582,224.934708 233.191422,231.968796 
	C233.196884,277.958527 233.197906,323.948273 233.237961,369.937958 
	C233.239944,372.224762 232.791107,374.588959 234.021164,377.263550 
	C241.210434,374.888977 248.336243,372.196960 255.873657,371.096802 
	C274.190277,368.423309 292.305359,367.989319 309.739685,375.719391 
	C341.608246,389.849365 341.640717,432.678589 318.029022,451.463684 
	C299.255798,466.399414 277.421448,470.580750 254.028198,466.178253 
	C246.777588,464.813690 240.714005,460.958923 237.240082,453.988251 
	C234.795456,449.082916 235.561142,447.883392 240.987701,447.647064 
	C255.153122,447.030273 269.223297,445.937897 282.350708,439.769257 
	C292.513794,434.993561 301.309570,424.781250 298.746704,410.397156 
	C297.284393,402.190125 292.395874,396.991791 284.763580,394.326904 
	C273.492340,390.391388 261.831024,390.906281 250.181717,391.797119 
	C234.312271,393.010712 219.077942,396.841125 204.247055,402.607697 
	C197.841568,405.098297 192.812256,401.049164 192.811188,393.962891 
	C192.803070,339.475250 192.816055,284.987640 192.822296,230.000000 
z"/>
</svg>