<svg version="1.1" id="Layer_1" xmlns="http://www.w3.org/2000/svg" xmlns:xlink="http://www.w3.org/1999/xlink" x="0px" y="0px"
	 width="100%" viewBox="0 0 512 512" enable-background="new 0 0 512 512" xml:space="preserve">
<path fill="#000000" opacity="1.000000" stroke="none" 
	d="
M193.872070,205.661957 
	C201.227585,205.739914 202.018158,206.322662 202.219833,213.379288 
	C202.455826,221.636642 203.685989,229.730606 204.814117,237.790146 
	C206.368088,237.764206 206.829010,237.010895 207.269333,236.330811 
	C226.867584,206.060532 255.429855,198.412003 289.309265,203.289505 
	C306.946777,205.828720 321.648865,213.527008 333.217865,226.778427 
	C344.639160,239.860672 350.972321,255.537537 354.333344,272.488861 
	C356.054047,281.167145 356.584290,289.968384 357.233643,298.752136 
	C357.444458,301.603821 358.813660,302.800720 361.280792,303.649445 
	C366.629242,305.489380 371.861023,307.673248 377.227722,309.453644 
	C380.833435,310.649872 381.195282,312.739868 380.151367,316.003662 
	C376.232880,328.255035 376.292542,328.274109 364.280090,323.920319 
	C357.017181,321.287994 356.783051,321.692627 356.240326,329.531891 
	C355.084076,346.232269 352.187531,362.608185 344.311371,377.621063 
	C334.211823,396.871979 317.952484,406.509155 296.357300,407.320740 
	C286.678040,407.684479 277.086731,407.424377 267.856262,403.792328 
	C254.792206,398.651886 245.726791,389.549072 241.432709,376.283447 
	C235.985382,359.455170 234.437805,342.257477 241.336929,325.486969 
	C249.355713,305.994812 264.989685,296.785004 285.470551,294.553436 
	C294.481659,293.571533 303.408844,293.544769 312.371765,294.648041 
	C316.447205,295.149628 318.001740,293.911133 317.355988,289.365479 
	C315.719391,277.845459 314.396759,266.344055 310.050354,255.367264 
	C299.959961,229.884232 279.775421,222.212891 255.702484,224.754868 
	C229.933441,227.475952 216.686096,243.770370 210.086075,267.257996 
	C207.177505,277.608826 206.022705,288.092072 206.046524,298.809937 
	C206.179840,358.803558 206.170532,418.797485 206.330383,478.790985 
	C206.358566,489.372589 210.754074,493.400604 221.400589,493.669800 
	C223.772934,493.729736 227.040222,492.808655 227.728012,496.103546 
	C228.565735,500.116516 229.081375,504.376862 227.266312,508.328033 
	C226.642838,509.685272 224.912033,509.352142 223.612076,509.353760 
	C205.947052,509.375641 188.281616,509.308838 170.617218,509.417480 
	C166.880966,509.440460 165.484421,507.841461 165.679688,504.315369 
	C165.771683,502.654022 165.692078,500.983246 165.691864,499.316742 
	C165.680832,413.824371 165.670074,328.332031 165.657928,242.839661 
	C165.657730,241.506500 165.694092,240.170456 165.622772,238.840622 
	C164.985214,226.953094 160.581802,222.133484 148.729492,221.598007 
	C144.121765,221.389832 142.916229,219.435226 143.015686,215.517639 
	C143.036819,214.685043 142.999237,213.851120 143.010315,213.018097 
	C143.101852,206.130753 143.566742,205.654373 150.396576,205.651886 
	C164.727676,205.646637 179.058777,205.657898 193.872070,205.661957 
M273.553101,361.873444 
	C274.442627,366.768280 275.065735,371.718170 277.282257,376.285400 
	C281.784515,385.562500 286.755493,388.487885 297.191498,387.855743 
	C303.490112,387.474213 308.951904,382.076172 311.641876,373.835938 
	C316.828308,357.947968 316.956329,341.428955 317.551178,325.019073 
	C318.044373,311.413452 318.636810,313.694763 306.933838,312.960876 
	C305.937927,312.898468 304.940094,312.596100 303.956543,312.649994 
	C291.797180,313.316162 281.290192,315.821808 275.664490,331.827820 
	C272.325989,341.326324 272.994568,351.169891 273.553101,361.873444 
z"/>
</svg>