<svg version="1.1" id="Layer_1" xmlns="http://www.w3.org/2000/svg" xmlns:xlink="http://www.w3.org/1999/xlink" x="0px" y="0px"
	 width="100%" viewBox="0 0 512 512" enable-background="new 0 0 512 512" xml:space="preserve">
<path fill="#000000" opacity="1.000000" stroke="none" 
	d="
M330.392975,144.000092 
	C330.394196,162.997208 330.480774,181.495010 330.327728,199.990829 
	C330.294647,203.989853 331.138733,205.422104 335.628784,205.251312 
	C347.109924,204.814651 358.619965,205.029419 370.116669,205.150635 
	C376.635590,205.219376 377.290802,205.913040 377.173981,212.422287 
	C376.957397,224.490860 379.772491,224.997070 364.819092,224.948761 
	C354.987427,224.916992 345.147156,225.182724 335.327728,224.835205 
	C331.159241,224.687653 330.304871,226.122589 330.316986,229.926636 
	C330.403076,256.921417 330.762939,283.928009 330.114319,310.908691 
	C329.532928,335.090607 324.265228,358.098114 308.601349,377.587433 
	C295.656403,393.693756 278.764801,402.376801 258.445892,405.505859 
	C247.099045,407.253235 236.044861,407.496490 224.712967,405.531342 
	C199.131088,401.095032 180.054916,387.956604 168.769043,364.435791 
	C157.651672,341.266083 155.683823,316.532013 157.467346,291.293518 
	C158.719650,273.572388 163.059387,256.771088 173.232758,241.963730 
	C186.204651,223.083145 204.638702,212.978912 226.855301,208.549973 
	C245.493454,204.834381 264.258820,205.106110 283.061462,205.076675 
	C289.776489,205.066162 289.936859,204.962921 289.928101,198.510971 
	C289.897522,176.015335 289.893341,153.519287 289.734741,131.024399 
	C289.646759,118.544456 286.611908,115.429459 274.310822,114.453804 
	C267.669983,113.927078 267.668121,113.927078 267.656586,107.068260 
	C267.654358,105.735214 267.734650,104.399109 267.669373,103.069687 
	C267.510529,99.834770 269.122986,98.646248 272.223694,98.654900 
	C290.054047,98.704681 307.884796,98.730202 325.714844,98.641464 
	C329.624023,98.622009 330.443298,100.664993 330.424286,104.007164 
	C330.349335,117.171104 330.392883,130.335724 330.392975,144.000092 
M236.210114,387.562592 
	C237.707809,387.616882 239.210999,387.607300 240.702393,387.735046 
	C262.937836,389.639648 277.197815,377.060791 283.435669,358.457428 
	C287.278656,346.996338 289.324707,335.151733 289.527222,323.219971 
	C290.055725,292.081818 289.829285,260.931183 289.985352,229.785965 
	C290.003906,226.087051 288.439117,224.819214 284.861816,224.883545 
	C272.873779,225.099060 260.860260,224.704910 248.897308,225.327820 
	C229.652039,226.329941 215.617599,235.796280 207.100113,253.123672 
	C201.213669,265.098633 198.416489,277.882355 198.130875,291.183228 
	C197.655396,313.324951 197.200089,335.479156 205.215485,356.715332 
	C210.755264,371.392609 219.257309,383.134186 236.210114,387.562592 
z"/>
</svg>