<svg version="1.1" id="Layer_1" xmlns="http://www.w3.org/2000/svg" xmlns:xlink="http://www.w3.org/1999/xlink" x="0px" y="0px"
	 width="100%" viewBox="0 0 512 512" enable-background="new 0 0 512 512" xml:space="preserve">
<path fill="#000000" opacity="1.000000" stroke="none" 
	d="
M296.713043,203.934479 
	C322.859344,211.114105 333.361145,230.323807 337.273376,254.673904 
	C339.179688,266.538879 339.313416,278.519775 339.276947,290.516205 
	C339.194855,317.511017 339.206299,344.506683 339.326935,371.501343 
	C339.378357,383.003052 342.890503,386.660156 354.213470,386.591644 
	C359.191223,386.561523 360.402618,388.410675 360.292389,393.027679 
	C360.005432,405.046326 360.986115,403.288666 350.231934,403.354004 
	C335.235107,403.445129 320.237244,403.383331 305.239868,403.357452 
	C298.741638,403.346222 298.713226,403.312836 298.709351,396.618713 
	C298.686188,356.625671 298.824097,316.631683 298.562775,276.640259 
	C298.495483,266.342255 297.285400,255.995621 292.983063,246.414764 
	C286.076843,231.035324 272.675446,223.968933 256.045471,226.658066 
	C236.911209,229.752182 226.219101,240.885712 221.365448,262.818237 
	C219.160995,272.779572 218.476395,282.953125 218.444504,293.070007 
	C218.254852,353.225647 218.367661,413.382233 218.307587,473.538422 
	C218.304047,477.079865 218.868149,480.516205 219.473297,483.939301 
	C220.446655,489.445190 224.523849,492.315460 231.232178,492.652649 
	C239.980865,493.092407 239.980865,493.092438 239.926483,501.871185 
	C239.880112,509.354279 239.880112,509.358673 232.585464,509.361359 
	C216.754883,509.367157 200.924286,509.374969 185.093704,509.367676 
	C178.028427,509.364410 178.009262,509.348785 178.012695,502.069794 
	C178.022247,481.740082 178.061554,461.410339 178.067032,441.080627 
	C178.084305,376.925079 178.047501,312.769470 178.123398,248.614014 
	C178.155334,221.623657 178.463242,194.633728 178.554138,167.643311 
	C178.597290,154.830444 178.502335,142.018234 177.731537,129.216644 
	C177.172241,119.927773 173.006058,115.773521 163.636536,115.298698 
	C161.125641,115.171455 157.371140,116.594673 156.420746,113.675415 
	C154.997528,109.303757 155.292953,104.448776 156.356781,99.882324 
	C156.683456,98.480034 158.583267,98.678062 159.897842,98.676941 
	C178.061279,98.661385 196.224884,98.707741 214.388000,98.629097 
	C217.508942,98.615585 218.368637,100.016396 218.361938,102.877602 
	C218.268753,142.703354 218.272141,182.529358 218.135193,222.354904 
	C218.120438,226.647202 216.820984,230.911911 217.642654,235.805725 
	C219.943985,234.463242 220.770615,232.268997 221.801758,230.412628 
	C232.211594,211.672012 248.427094,202.681641 269.518463,201.814438 
	C278.525146,201.444092 287.491760,201.696564 296.713043,203.934479 
z"/>
</svg>