<svg version="1.1" id="Layer_1" xmlns="http://www.w3.org/2000/svg" xmlns:xlink="http://www.w3.org/1999/xlink" x="0px" y="0px"
	 width="100%" viewBox="0 0 512 512" enable-background="new 0 0 512 512" xml:space="preserve">
<path fill="#000000" opacity="1.000000" stroke="none" 
	d="
M269.350403,282.000122 
	C269.350250,349.469543 269.349060,416.438995 269.350433,483.408417 
	C269.350586,490.625671 269.358673,490.713104 276.779175,490.610565 
	C284.091980,490.509552 291.420135,491.148315 298.713074,489.849548 
	C305.101318,488.711914 307.708038,486.264954 308.586914,479.857727 
	C308.722351,478.870483 308.545349,477.815887 308.808624,476.875275 
	C309.669922,473.798401 307.325653,469.274109 310.917236,467.749054 
	C315.151215,465.951233 320.102692,466.769775 324.718475,467.430634 
	C326.818817,467.731384 326.946289,469.700165 326.948364,471.384216 
	C326.962341,482.711578 326.896912,494.039124 326.932159,505.366394 
	C326.941559,508.385742 325.553375,509.392578 322.635620,509.386810 
	C292.982605,509.328339 263.329346,509.312073 233.676529,509.402710 
	C230.159561,509.413452 228.977707,508.012756 229.017624,504.670685 
	C229.129074,495.342926 229.081589,486.013184 229.081253,476.684204 
	C229.078415,397.553680 229.072189,318.423157 229.065979,239.292618 
	C229.065903,238.293213 229.084732,237.292435 229.041672,236.294601 
	C228.548950,224.873856 226.024826,222.561127 214.458557,222.272568 
	C211.655502,222.202637 207.578857,223.902435 206.308533,220.575989 
	C204.732040,216.447739 205.348495,211.706100 206.102417,207.267975 
	C206.375427,205.660797 208.120438,205.736298 209.428650,205.734619 
	C228.086548,205.710739 246.744644,205.758331 265.402283,205.682419 
	C269.434021,205.666031 269.359711,208.219742 269.357422,211.032455 
	C269.338318,234.521652 269.348694,258.010864 269.350403,282.000122 
z"/>
</svg>