<svg version="1.1" id="Layer_1" xmlns="http://www.w3.org/2000/svg" xmlns:xlink="http://www.w3.org/1999/xlink" x="0px" y="0px"
	 width="100%" viewBox="0 0 512 512" enable-background="new 0 0 512 512" xml:space="preserve">
<path fill="#000000" opacity="1.000000" stroke="none" 
	d="
M209.605377,398.508301 
	C188.805374,388.684418 176.032974,372.373352 170.357544,350.905426 
	C161.431732,317.142822 163.140442,283.764832 178.968689,252.305450 
	C192.591324,225.229767 215.685318,210.537735 245.677582,206.672867 
	C249.950226,206.122284 254.245132,205.744995 258.527802,205.270020 
	C258.647675,205.256744 258.745392,205.043793 259.233673,204.502197 
	C256.377045,198.986786 251.261734,195.097641 247.380692,190.259262 
	C236.149414,176.257553 224.145813,162.838562 216.381699,146.371307 
	C209.065414,130.853928 211.316147,114.072502 222.297531,103.955002 
	C236.317352,91.038094 262.130371,93.227119 272.080872,108.081985 
	C273.581482,110.322258 273.881897,111.644035 271.267090,113.248688 
	C254.843658,123.327477 251.296249,137.017746 261.331818,153.843552 
	C272.196899,172.060196 285.791840,188.232162 300.311951,203.645126 
	C302.176025,205.623856 304.325287,205.698380 306.679840,205.697174 
	C323.841492,205.688370 341.005249,205.845627 358.163513,205.606400 
	C362.997650,205.539001 364.904846,207.124191 364.347931,211.903412 
	C364.118134,213.875961 364.314911,215.897781 364.311401,217.897202 
	C364.299011,224.923035 364.298035,224.935776 357.016113,224.941391 
	C344.078247,224.951385 331.140381,224.944214 317.204315,224.944214 
	C323.472687,233.203262 328.049011,241.411728 332.254974,249.853851 
	C344.130798,273.690704 347.114075,298.922272 344.560852,325.120728 
	C342.974091,341.402710 338.959351,356.830750 330.102875,370.814941 
	C316.655914,392.047394 296.579132,402.602722 272.477875,406.123932 
	C253.504990,408.895844 234.626328,408.115845 216.356461,401.415680 
	C214.177505,400.616577 212.089264,399.570129 209.605377,398.508301 
M290.706879,369.191528 
	C296.316895,360.940521 299.618469,351.761505 301.694061,342.071686 
	C305.428406,324.638062 305.765228,307.043945 303.522552,289.455536 
	C301.294403,271.981201 296.584076,255.108917 286.768646,240.275543 
	C274.317902,221.459579 279.082642,224.206818 257.320282,225.502762 
	C237.688889,226.671783 223.278580,236.706512 215.287811,255.211121 
	C210.271744,266.827087 207.795334,279.031799 206.954636,291.523956 
	C205.600708,311.642242 204.897385,331.794891 210.344101,351.538635 
	C213.746872,363.873230 219.368713,374.796906 230.775940,381.758179 
	C247.895996,392.205719 276.867279,389.385040 290.706879,369.191528 
z"/>
</svg>