<svg version="1.1" id="Layer_1" xmlns="http://www.w3.org/2000/svg" xmlns:xlink="http://www.w3.org/1999/xlink" x="0px" y="0px"
	 width="100%" viewBox="0 0 512 512" enable-background="new 0 0 512 512" xml:space="preserve">
<path fill="#000000" opacity="1.000000" stroke="none" 
	d="
M335.349854,263.000122 
	C335.349518,331.999420 335.370972,400.498718 335.296692,468.997925 
	C335.291931,473.369904 335.850250,477.650238 336.533112,481.900848 
	C337.662445,488.930237 341.794220,492.408997 349.449738,492.586975 
	C357.714417,492.779053 357.211517,492.490753 357.233002,500.718964 
	C357.235626,501.718933 357.119934,502.733368 357.248108,503.716431 
	C357.815826,508.070068 356.034821,509.507812 351.618347,509.450592 
	C334.787994,509.232513 317.952240,509.267334 301.120728,509.434113 
	C297.069519,509.474274 295.587585,508.233948 295.603760,504.043182 
	C295.754639,464.877502 295.726929,425.711151 295.779663,386.545044 
	C295.785889,381.926361 297.420837,377.365173 296.248322,372.187469 
	C294.126160,373.755951 293.326843,375.929077 292.226807,377.837433 
	C283.685486,392.655426 271.894867,403.313538 254.645721,406.693359 
	C243.440369,408.888916 232.117355,409.151123 220.902069,406.831177 
	C196.958344,401.878265 184.608810,385.586853 178.778091,363.109436 
	C175.573563,350.755920 175.090515,338.084717 175.064972,325.452881 
	C174.937622,262.453827 175.034332,199.454330 175.030472,136.455002 
	C175.030273,133.291550 174.950272,130.118134 174.694641,126.966614 
	C174.059402,119.135094 170.404358,115.705658 162.495026,115.358742 
	C160.830643,115.285744 159.106995,115.557243 157.506088,115.218704 
	C150.606415,113.759613 154.681412,108.250092 153.918686,104.619705 
	C153.387772,102.092682 152.943832,98.645325 157.558777,98.656960 
	C175.558304,98.702354 193.558075,98.705696 211.557541,98.651283 
	C214.362869,98.642799 215.480453,99.846985 215.344101,102.557121 
	C215.260483,104.219162 215.347198,105.889481 215.347229,107.556076 
	C215.348541,179.388657 215.265121,251.221451 215.436783,323.053619 
	C215.463348,334.166351 216.198563,345.292358 219.075134,356.194763 
	C223.474014,372.866821 232.487991,381.763275 247.527161,383.588745 
	C262.789337,385.441223 277.685059,377.616028 285.308868,364.248871 
	C293.173798,350.458984 295.226746,335.291107 295.511536,319.959747 
	C296.012878,292.969391 295.685516,265.962952 295.633209,238.963394 
	C295.608765,226.352661 292.455536,222.859970 279.760132,222.519928 
	C274.725494,222.385056 273.603668,220.468063 273.727753,215.937256 
	C274.047791,204.250671 272.723511,205.766708 283.870972,205.711426 
	C298.870422,205.637039 313.873596,205.870514 328.868652,205.604324 
	C333.771667,205.517288 335.562958,206.791611 335.465363,212.004333 
	C335.150238,228.831085 335.348938,245.667435 335.349854,263.000122 
z"/>
</svg>