<svg version="1.1" id="Layer_1" xmlns="http://www.w3.org/2000/svg" xmlns:xlink="http://www.w3.org/1999/xlink" x="0px" y="0px"
	 width="100%" viewBox="0 0 512 512" enable-background="new 0 0 512 512" xml:space="preserve">
<path fill="#000000" opacity="1.000000" stroke="none" 
	d="
M219.199219,210.939819 
	C216.312820,226.590317 214.662827,241.966644 213.378510,257.377472 
	C212.535950,267.487488 212.065994,277.629059 211.482422,287.759583 
	C211.400909,289.174500 210.831131,290.737274 212.354233,292.235474 
	C216.306824,289.524689 217.860062,284.941772 220.650604,281.405670 
	C231.850662,267.213135 246.363449,259.931091 264.302185,258.524689 
	C277.998505,257.450958 291.256226,258.703644 303.803101,264.364563 
	C322.226990,272.677094 329.852539,288.678314 333.278137,307.343445 
	C336.731384,326.159210 334.871521,345.196228 335.330292,364.136810 
	C335.426666,368.117065 335.234253,372.075317 336.111969,376.057434 
	C337.790100,383.671082 340.432617,386.176819 348.233093,386.658264 
	C355.935852,387.133636 355.937775,387.133636 355.956726,395.067627 
	C355.960297,396.566864 355.933289,398.066193 355.935181,399.565460 
	C355.938599,402.249481 354.676666,403.395142 351.929047,403.385345 
	C334.267975,403.322235 316.606232,403.284973 298.945587,403.390137 
	C294.539917,403.416351 294.812531,400.614319 294.814819,397.692352 
	C294.831604,376.198792 294.817688,354.705231 294.843262,333.211700 
	C294.854614,323.664124 293.721588,314.296265 290.694885,305.203339 
	C284.595306,286.878723 269.142120,280.521606 250.996658,282.836761 
	C229.581879,285.569061 219.921173,300.773132 214.372208,319.609497 
	C213.025894,324.179657 212.334396,328.942688 211.196808,334.299805 
	C201.075226,331.822723 191.220886,329.618591 181.485550,326.976105 
	C169.236725,323.651398 170.558548,326.678864 170.735016,313.030884 
	C171.250122,273.189514 174.334290,233.611267 184.844360,194.976791 
	C190.911636,172.673859 199.350281,151.359375 213.910889,133.025208 
	C230.490891,112.148285 251.731247,99.463654 278.548706,96.571892 
	C297.952606,94.479546 316.859497,95.603531 334.361359,105.137001 
	C345.060089,110.964752 352.606659,119.500198 354.401398,132.132065 
	C356.640015,147.888000 348.634552,158.527237 332.819153,160.175079 
	C320.388763,161.470230 320.226959,164.529160 319.658295,148.970840 
	C319.419250,142.430298 317.956085,136.048141 315.189331,130.147263 
	C311.047760,121.314095 303.750732,116.555397 294.123291,115.352371 
	C272.312836,112.627007 256.426483,122.346306 244.510025,139.599152 
	C232.078339,157.597946 226.250519,178.265060 221.526535,199.293304 
	C220.690536,203.014664 220.019272,206.773041 219.199219,210.939819 
z"/>
</svg>