<svg version="1.1" id="Layer_1" xmlns="http://www.w3.org/2000/svg" xmlns:xlink="http://www.w3.org/1999/xlink" x="0px" y="0px"
	 width="100%" viewBox="0 0 512 512" enable-background="new 0 0 512 512" xml:space="preserve">
<path fill="#000000" opacity="1.000000" stroke="none" 
	d="
M195.329559,398.786621 
	C175.398102,388.531647 166.548355,371.389038 163.785828,350.474640 
	C162.073608,337.511780 162.886154,324.575623 165.736496,311.801086 
	C169.216278,296.205505 177.504150,283.249176 188.378555,271.907715 
	C209.132996,250.261948 233.988190,233.795761 258.502625,216.903488 
	C274.649963,205.776779 291.363739,195.416168 306.065399,182.298798 
	C306.810669,181.633865 307.532928,180.938919 308.222626,180.216599 
	C314.085541,174.076050 312.603882,168.073532 304.437805,165.537125 
	C296.482819,163.066254 288.276031,161.671860 280.067139,160.317886 
	C256.284149,156.395172 232.167007,154.436951 208.765305,148.279907 
	C202.798615,146.710052 196.982941,144.703094 191.616104,141.539474 
	C182.614883,136.233490 180.049683,127.908722 180.445343,118.139969 
	C180.839157,108.417328 185.408264,101.387665 194.198288,97.266304 
	C199.361862,94.845261 204.795746,93.398460 210.610077,93.620415 
	C212.992462,93.711357 214.271362,94.369911 214.398636,97.018867 
	C215.136124,112.368393 224.911850,119.731964 238.243958,124.207603 
	C253.783447,129.424286 269.943848,131.605652 285.943604,134.638840 
	C302.257660,137.731644 318.573914,140.602203 334.349823,146.282074 
	C351.389374,152.416885 350.150238,171.383270 341.740021,180.070328 
	C335.334778,186.686432 327.972015,192.135590 320.698120,197.686996 
	C315.677399,201.518799 310.478851,205.125275 305.261627,208.688721 
	C302.718964,210.425385 302.022614,212.256989 302.842407,215.406937 
	C311.257446,247.740997 319.473755,280.126678 327.792755,312.485840 
	C332.634796,331.320251 337.467438,350.158081 342.497803,368.942566 
	C344.550201,376.606720 347.047302,384.187592 356.374115,386.098022 
	C357.025970,386.231567 357.684204,386.359039 358.315704,386.562927 
	C360.851685,387.381805 364.866699,385.013794 365.871216,388.421021 
	C367.119843,392.656219 366.675446,397.343201 365.960785,401.796051 
	C365.691101,403.476166 363.958862,403.317719 362.663757,403.320068 
	C347.498474,403.347900 332.332275,403.257721 317.168335,403.405884 
	C313.437927,403.442352 312.825256,400.935699 312.092682,398.393372 
	C309.927582,390.879791 307.872437,383.334564 305.749847,375.808624 
	C305.354492,374.406921 305.179749,372.871338 303.662537,371.719055 
	C274.778381,408.960266 238.073776,415.377441 195.329559,398.786621 
M294.076111,357.570892 
	C297.259918,353.832336 297.467255,349.914612 296.205292,345.104675 
	C288.829956,316.993774 281.837952,288.782440 274.666382,260.617828 
	C272.592651,252.473831 270.353729,244.371933 268.003265,235.547775 
	C255.152512,244.328186 244.161255,253.829361 233.636063,264.030212 
	C212.685913,284.334747 202.639175,308.780609 203.881332,337.937042 
	C204.377945,349.593781 206.004974,360.930939 213.959961,370.091858 
	C225.021591,382.830383 239.839767,383.930817 255.189758,382.247589 
	C271.797760,380.426361 284.184784,371.527374 294.076111,357.570892 
z"/>
</svg>