<svg version="1.1" id="Layer_1" xmlns="http://www.w3.org/2000/svg" xmlns:xlink="http://www.w3.org/1999/xlink" x="0px" y="0px"
	 width="100%" viewBox="0 0 512 512" enable-background="new 0 0 512 512" xml:space="preserve">
<path fill="#000000" opacity="1.000000" stroke="none" 
	d="
M224.267349,241.286316 
	C217.404633,251.337860 214.257248,262.343231 213.370560,273.921021 
	C210.886597,306.355042 212.807098,338.852997 212.378769,371.319885 
	C212.342056,374.102966 212.855606,376.994934 213.668442,379.667511 
	C215.651718,386.188568 221.658615,386.404022 226.769211,386.580109 
	C232.177353,386.766388 233.579803,388.778656 233.395889,393.826172 
	C233.011429,404.378571 234.374725,403.345764 223.546204,403.375122 
	C208.548859,403.415833 193.551285,403.397186 178.553848,403.375702 
	C172.041748,403.366364 171.914474,403.235565 171.914413,396.569366 
	C171.914001,348.077576 171.940323,299.585785 171.914505,251.094009 
	C171.912018,246.432693 171.892578,241.741272 171.394012,237.116318 
	C170.171066,225.771866 168.309097,224.064590 157.053619,222.356293 
	C154.620529,221.987000 150.930984,223.570358 150.119278,220.079895 
	C149.150452,215.913788 149.211792,211.454926 150.184341,207.208786 
	C150.587494,205.448563 152.573654,205.684174 154.038971,205.682404 
	C170.369461,205.662811 186.700577,205.749649 203.030121,205.625290 
	C207.286407,205.592880 207.885223,208.266983 208.230743,211.412567 
	C208.938049,217.851730 209.618484,224.293884 210.292633,230.736633 
	C210.447678,232.218292 210.495453,233.721985 212.138748,234.969528 
	C214.393036,231.716629 216.542130,228.431808 218.874390,225.282639 
	C227.854889,213.156555 239.189468,204.932510 254.631866,202.931671 
	C267.976746,201.202637 281.057465,200.884735 294.113037,205.116592 
	C314.438721,211.704971 324.475494,226.885391 329.170959,246.421890 
	C332.290649,259.401825 333.018402,272.753021 333.038910,286.065308 
	C333.138977,351.054169 333.071136,416.043274 333.091461,481.032288 
	C333.094513,490.756439 332.279572,489.755005 342.081390,489.779358 
	C354.245911,489.809570 366.410614,489.750000 378.575134,489.775848 
	C384.507324,489.788422 385.296875,490.503510 385.245331,496.381073 
	C385.110321,511.778198 387.141388,509.251831 372.363190,509.340454 
	C348.701355,509.482361 325.038025,509.399902 301.375397,509.374023 
	C292.264008,509.364044 292.475983,510.383820 292.522491,500.508911 
	C292.700714,462.682770 292.623444,424.855377 292.632019,387.028473 
	C292.639709,353.034210 292.856354,319.037781 292.518311,285.046875 
	C292.396332,272.779358 291.780243,260.413574 287.399261,248.648422 
	C281.947235,234.006866 273.621124,228.003372 257.893036,227.059097 
	C244.407715,226.249481 232.865570,229.753571 224.267349,241.286316 
z"/>
</svg>