<svg version="1.1" id="Layer_1" xmlns="http://www.w3.org/2000/svg" xmlns:xlink="http://www.w3.org/1999/xlink" x="0px" y="0px"
	 width="100%" viewBox="0 0 512 512" enable-background="new 0 0 512 512" xml:space="preserve">
<path fill="#000000" opacity="1.000000" stroke="none" 
	d="
M296.100403,137.228653 
	C294.723633,151.128342 299.195618,162.536850 307.981598,172.536118 
	C317.798035,183.708099 327.048126,195.198410 331.488556,209.847015 
	C334.232635,218.899658 335.112579,228.124146 335.139099,237.437958 
	C335.254272,277.935913 335.188721,318.434387 335.198883,358.932648 
	C335.199799,362.598846 335.187164,366.268280 335.327667,369.930603 
	C335.772003,381.514130 339.256775,385.565857 350.812836,386.517792 
	C355.707825,386.921021 357.290710,388.908936 356.967651,393.375824 
	C356.847778,395.033447 356.922699,396.708252 356.965088,398.373779 
	C357.054321,401.877869 355.569885,403.449921 351.873230,403.421692 
	C336.041534,403.300873 320.207916,403.302216 304.376129,403.413696 
	C301.009003,403.437378 299.449707,402.039612 299.166504,398.847076 
	C298.666809,393.214081 298.113251,387.585480 297.663330,381.948578 
	C297.417267,378.865692 297.337616,375.769470 295.628998,372.634491 
	C292.180634,375.262970 291.054657,379.099670 288.992218,382.185608 
	C278.588959,397.751587 264.347931,406.424774 245.573883,407.828217 
	C233.675552,408.717682 221.964905,408.658691 210.672104,404.161774 
	C190.948013,396.307404 182.204315,380.095642 177.814255,360.702209 
	C175.379715,349.947296 174.748001,338.982147 174.746643,327.969940 
	C174.743088,298.804749 174.689514,269.639557 174.650803,240.474350 
	C174.649033,239.141647 174.674911,237.802216 174.557846,236.477402 
	C173.583755,225.454498 170.581131,222.499710 159.451477,222.437805 
	C155.159882,222.413910 153.572220,220.949265 153.552856,216.611786 
	C153.504639,205.803467 153.346497,205.802170 164.319336,205.804428 
	C178.985367,205.807465 193.651398,205.814713 208.317429,205.818680 
	C214.884918,205.820465 215.298294,206.209015 215.302307,213.005219 
	C215.326355,253.836792 215.228867,294.668884 215.425659,335.499542 
	C215.470596,344.824341 217.381958,353.951447 220.618881,362.786469 
	C228.813751,385.153931 252.518387,387.024933 267.000458,380.368530 
	C281.367371,373.765045 287.556427,361.080719 291.560059,346.917419 
	C294.846039,335.292969 295.414703,323.283478 295.513306,311.305817 
	C295.706757,287.808380 295.517578,264.308044 295.599640,240.809326 
	C295.669800,220.715775 289.909088,202.855347 276.391113,187.623184 
	C268.344849,178.556610 262.340210,168.418777 260.122894,156.103256 
	C256.004395,133.228027 264.847168,113.031212 285.856934,103.404480 
	C312.262390,91.305458 338.904358,92.496254 364.435516,106.634560 
	C372.760590,111.244698 378.865814,118.359329 381.420837,127.967743 
	C384.398621,139.165756 380.722626,149.029007 371.001068,155.207199 
	C365.718262,158.564468 359.709045,160.152115 353.645630,161.156021 
	C348.188354,162.059586 347.098938,160.956085 346.938507,155.430771 
	C346.710754,147.584045 345.888641,139.848312 343.593323,132.309174 
	C340.278076,121.420074 332.619354,115.497009 321.260223,115.069641 
	C308.878540,114.603790 301.504272,119.357170 297.164764,130.400208 
	C296.339691,132.499969 296.346832,134.622604 296.100403,137.228653 
z"/>
</svg>