<svg version="1.1" id="Layer_1" xmlns="http://www.w3.org/2000/svg" xmlns:xlink="http://www.w3.org/1999/xlink" x="0px" y="0px"
	 width="100%" viewBox="0 0 512 512" enable-background="new 0 0 512 512" xml:space="preserve">
<path fill="#000000" opacity="1.000000" stroke="none" 
	d="
M246.000061,205.688675 
	C254.666336,205.688232 262.846497,205.976746 270.993835,205.584152 
	C276.205933,205.333008 277.437164,207.313110 277.421753,212.216522 
	C277.267365,261.380280 277.535767,310.546082 277.213287,359.708191 
	C277.085968,379.114136 280.709839,397.715210 286.424042,416.068665 
	C290.445038,428.983704 293.374573,442.069763 293.342896,455.711334 
	C293.274170,485.300720 280.051544,501.384796 250.974380,507.196533 
	C241.110382,509.168060 231.163040,509.506348 221.150803,509.398865 
	C217.914444,509.364136 216.877045,508.109985 216.745026,504.949677 
	C216.175552,491.318695 216.093246,491.322144 229.640015,489.664246 
	C242.743301,488.060608 251.300003,478.815125 252.816391,465.544434 
	C254.677963,449.252869 251.361404,433.730743 246.367004,418.494324 
	C239.878510,398.699768 236.718414,378.485962 236.783325,357.668304 
	C236.905457,318.503967 236.814865,279.338989 236.812515,240.174255 
	C236.812454,239.174301 236.818115,238.174271 236.807388,237.174423 
	C236.677826,225.095657 234.112030,222.504593 222.122513,222.344864 
	C220.956039,222.329330 219.780258,222.231750 218.624466,222.339844 
	C215.057037,222.673508 213.515320,221.323456 213.603333,217.533813 
	C213.931732,203.394974 211.887207,205.943604 225.002045,205.709564 
	C231.832657,205.587662 238.667267,205.688736 246.000061,205.688675 
z"/>
</svg>