<svg version="1.1" id="Layer_1" xmlns="http://www.w3.org/2000/svg" xmlns:xlink="http://www.w3.org/1999/xlink" x="0px" y="0px"
	 width="100%" viewBox="0 0 512 512" enable-background="new 0 0 512 512" xml:space="preserve">
<path fill="#000000" opacity="1.000000" stroke="none" 
	d="
M201.310974,151.615845 
	C202.183548,164.335831 209.510681,171.682953 220.115204,176.312027 
	C224.058304,178.033264 228.250244,179.233246 232.400528,180.419617 
	C238.587372,182.188126 239.646530,183.984634 237.011047,190.094818 
	C232.663223,200.174896 228.147476,210.178528 224.378067,220.501404 
	C215.902267,243.713226 209.846970,267.487274 207.235992,292.108429 
	C205.970245,304.044128 204.791260,316.004852 205.434082,327.990326 
	C206.222977,342.699249 208.215836,357.236572 217.395935,369.560944 
	C226.137054,381.295959 238.239868,384.830994 252.260956,383.373901 
	C278.342712,380.663391 290.219452,362.436279 294.594543,339.703522 
	C296.169952,331.517792 296.757202,323.235687 296.724274,314.882416 
	C296.631653,291.384521 296.696869,267.886017 296.683411,244.387741 
	C296.681885,241.722961 296.770599,239.037170 296.484680,236.397156 
	C295.311890,225.567947 292.543335,223.005219 281.677948,222.388733 
	C274.814545,221.999313 274.811188,221.999329 274.814545,215.437607 
	C274.820343,204.162827 274.656006,205.756363 284.533173,205.714096 
	C299.865082,205.648499 315.200043,205.859848 330.528137,205.610764 
	C335.188416,205.535049 336.442230,207.124817 336.429474,211.628983 
	C336.293640,259.625061 336.347961,307.621674 336.332336,355.618134 
	C336.330414,361.449799 336.494843,367.250916 337.150055,373.067810 
	C338.189056,382.292145 341.821320,385.924072 351.142334,386.705597 
	C353.761658,386.925232 357.631958,385.144928 358.702667,388.600830 
	C360.015961,392.839752 359.658539,397.514130 358.742035,401.937622 
	C358.423676,403.474091 356.641174,403.343506 355.329010,403.344879 
	C338.497009,403.362244 321.664886,403.321014 304.833130,403.384430 
	C301.811401,403.395813 300.903168,401.999786 300.607391,399.174652 
	C299.731262,390.806396 298.575195,382.467468 297.459045,373.561859 
	C294.518219,375.225983 293.688904,377.701019 292.481537,379.701141 
	C280.879639,398.920807 263.751862,408.004913 241.481857,408.345367 
	C228.518082,408.543549 215.845657,407.446777 203.908340,402.048737 
	C183.600266,392.865448 172.889145,376.119934 167.701859,355.230560 
	C163.504974,338.329620 164.236404,321.199860 165.932755,304.092651 
	C168.525742,277.943024 174.886459,252.688812 184.585587,228.277802 
	C188.643066,218.065826 193.129974,208.042953 198.221893,198.297165 
	C199.060089,196.692886 199.773132,195.023193 200.599960,193.264740 
	C197.829681,190.075760 193.908768,189.277039 190.627472,187.498230 
	C170.614792,176.649368 162.706451,156.151764 166.324188,135.003235 
	C170.180511,112.460007 186.063766,98.254555 208.099777,95.555710 
	C218.026413,94.339958 227.694931,94.620667 237.196060,97.733162 
	C243.354950,99.750778 247.961548,103.563431 250.217438,109.870010 
	C252.048920,114.990089 251.333435,116.228340 245.960495,116.179657 
	C238.602325,116.112968 231.327087,116.757935 224.162033,118.380280 
	C207.473434,122.158997 201.207336,130.074738 201.230820,147.165833 
	C201.232651,148.498520 201.273056,149.831131 201.310974,151.615845 
z"/>
</svg>