<svg version="1.1" id="Layer_1" xmlns="http://www.w3.org/2000/svg" xmlns:xlink="http://www.w3.org/1999/xlink" x="0px" y="0px"
	 width="100%" viewBox="0 0 512 512" enable-background="new 0 0 512 512" xml:space="preserve">
<path fill="#000000" opacity="1.000000" stroke="none" 
	d="
M173.824738,252.434021 
	C178.687973,229.195557 194.424927,216.414032 214.849899,208.776184 
	C241.672409,198.745956 268.868378,199.290680 295.231781,210.240402 
	C317.813812,219.619568 330.303497,237.448181 333.332916,261.756226 
	C337.458710,294.861694 326.319885,323.594971 308.073669,350.369995 
	C296.325287,367.609955 282.563202,383.229797 269.479156,399.404633 
	C254.731873,417.635468 238.977310,435.122986 227.189896,455.592560 
	C223.419235,462.140503 221.758835,469.134033 222.354355,476.653870 
	C222.779465,482.022125 225.288284,484.728577 230.621216,485.693268 
	C234.232819,486.346588 237.855865,486.685822 241.544373,486.677917 
	C267.038483,486.623322 292.533569,486.755920 318.026245,486.557220 
	C322.765839,486.520264 324.698334,487.844482 324.292999,492.731842 
	C323.936066,497.035400 324.168640,501.390228 324.194244,505.722137 
	C324.208801,508.187561 323.149872,509.469238 320.594971,509.339386 
	C319.930786,509.305664 319.262512,509.361023 318.596100,509.360901 
	C279.938232,509.354431 241.280334,509.381439 202.622589,509.315765 
	C191.993271,509.297699 183.546600,504.277252 181.080978,496.180420 
	C178.272568,486.957825 179.251450,477.729462 182.564148,468.771088 
	C188.782745,451.954498 199.513626,437.860840 210.402710,423.982910 
	C225.302017,404.993958 240.998459,386.627777 255.795029,367.561493 
	C272.258575,346.347229 285.726135,323.418060 290.950684,296.616882 
	C294.280060,279.537598 296.276947,262.289581 289.697815,245.454605 
	C284.019714,230.925293 272.674652,223.844254 257.515015,222.374207 
	C229.105743,219.619278 214.888458,238.006119 210.356308,263.784271 
	C209.183487,270.455109 208.758316,277.257355 207.999451,283.913879 
	C191.554810,286.240570 177.872238,278.402588 174.281967,264.813751 
	C173.242752,260.880432 173.741425,256.866791 173.824738,252.434021 
z"/>
</svg>