<svg version="1.1" id="Layer_1" xmlns="http://www.w3.org/2000/svg" xmlns:xlink="http://www.w3.org/1999/xlink" x="0px" y="0px"
	 width="100%" viewBox="0 0 512 512" enable-background="new 0 0 512 512" xml:space="preserve">
<path fill="#000000" opacity="1.000000" stroke="none" 
	d="
M317.528015,213.425613 
	C329.757629,223.655167 334.591370,237.311401 337.287781,251.987228 
	C339.035706,261.500702 339.423676,271.129059 339.386841,280.805847 
	C339.277100,309.634888 339.347992,338.464630 339.350342,367.294098 
	C339.350464,368.793823 339.291077,370.298859 339.392670,371.792389 
	C340.095947,382.130554 343.198395,385.217041 353.536316,385.932251 
	C360.330811,386.402344 360.405060,386.403198 360.326996,393.216888 
	C360.194611,404.769989 361.723724,403.295959 350.241241,403.356079 
	C334.910431,403.436310 319.576752,403.230042 304.248871,403.456451 
	C299.809265,403.522034 298.576813,402.023193 298.591766,397.699158 
	C298.726654,358.704865 298.727875,319.709686 298.613861,280.715240 
	C298.588074,271.896301 297.729584,263.105988 295.543091,254.507385 
	C291.074219,236.932968 281.363281,227.885239 265.416412,226.426620 
	C248.111389,224.843796 233.699921,233.067520 226.557907,248.694351 
	C221.924530,258.832275 219.644211,269.681824 219.493042,280.653870 
	C219.072998,311.143036 219.273071,341.641785 219.361115,372.136353 
	C219.389725,382.046356 222.596573,385.220367 232.401245,385.885193 
	C240.265213,386.418427 240.267548,386.418427 240.273880,394.236877 
	C240.275375,396.069794 240.215393,397.903564 240.254517,399.735413 
	C240.307877,402.235138 239.150650,403.363098 236.634750,403.359314 
	C218.304169,403.331909 199.973541,403.330536 181.642975,403.359650 
	C179.079529,403.363708 178.050934,402.038635 177.983261,399.675507 
	C177.945114,398.343414 177.921783,397.010345 177.922287,395.677734 
	C177.940613,346.517700 177.966492,297.357666 177.974716,248.197647 
	C177.975250,245.032669 177.900620,241.865173 177.762833,238.703125 
	C177.248398,226.896347 173.784851,222.903183 162.153702,222.573349 
	C156.625366,222.416580 155.425491,220.353592 155.597092,215.411896 
	C155.994751,203.959778 154.117706,204.985367 166.055206,204.941620 
	C180.219772,204.889740 194.385223,204.998276 208.549072,204.884033 
	C212.252762,204.854156 214.288116,205.544128 214.602707,209.977661 
	C215.163300,217.878601 216.528961,225.722427 217.656067,234.340179 
	C244.656662,195.542099 278.403778,191.924133 317.528015,213.425613 
z"/>
</svg>