<svg version="1.1" id="Layer_1" xmlns="http://www.w3.org/2000/svg" xmlns:xlink="http://www.w3.org/1999/xlink" x="0px" y="0px"
	 width="100%" viewBox="0 0 512 512" enable-background="new 0 0 512 512" xml:space="preserve">
<path fill="#000000" opacity="1.000000" stroke="none" 
	d="
M275.971313,258.000000 
	C276.078949,286.329559 276.102203,314.159912 276.350159,341.988220 
	C276.418823,349.691742 278.278839,357.157501 281.176056,364.304138 
	C285.673615,375.398376 294.143890,381.479919 305.872681,382.627411 
	C318.772949,383.889496 329.532410,379.328186 337.282318,368.844086 
	C346.071259,356.954437 350.198364,343.095551 350.505096,328.631592 
	C351.144501,298.481018 350.826080,268.308807 350.780884,238.145676 
	C350.763062,226.266449 348.180450,223.635895 336.337585,222.423950 
	C333.976990,222.182373 330.661682,223.126892 330.067352,219.814743 
	C329.312256,215.606445 328.873291,211.171616 330.469666,207.026047 
	C331.051758,205.514435 333.036407,205.716125 334.526978,205.714111 
	C351.858948,205.690552 369.191071,205.718414 386.522827,205.653580 
	C389.857208,205.641098 391.538361,206.938431 391.329254,210.390945 
	C391.248810,211.719025 391.327301,213.056519 391.327271,214.389725 
	C391.325500,298.550232 391.320068,382.710754 391.328491,466.871246 
	C391.328979,471.858582 391.320557,476.820831 392.069122,481.808960 
	C393.295471,489.980957 395.781708,492.649658 404.135956,493.558960 
	C413.392639,494.566467 413.261078,494.596069 412.916412,503.976440 
	C412.760559,508.218353 410.967957,510.019531 406.864838,510.002655 
	C398.699066,509.969055 390.533020,510.013550 382.367065,510.020020 
	C374.034393,510.026642 365.700928,509.960297 357.369324,510.055206 
	C352.751587,510.107758 350.816589,508.065918 350.833099,503.408661 
	C350.959167,467.911926 350.865631,432.414124 351.095673,396.918304 
	C351.148163,388.819885 352.194519,380.727905 352.101776,372.186096 
	C343.431519,385.592712 334.727905,398.770813 318.617462,403.849487 
	C303.123688,408.733673 287.612335,408.975250 272.059204,403.791351 
	C255.825714,398.380646 246.255951,386.389374 239.817734,370.185516 
	C235.408173,375.005432 233.280853,379.931366 230.099762,384.071381 
	C219.102905,398.383148 204.095703,405.214050 186.820145,407.052948 
	C174.746063,408.338165 162.583344,407.865601 151.071091,402.627350 
	C134.687897,395.172699 126.928978,381.395233 122.799049,364.902466 
	C120.650879,356.323792 119.730339,347.572113 119.628517,338.702820 
	C119.332024,312.876831 119.846634,287.049896 119.273109,261.220154 
	C119.084961,252.746140 118.916924,244.262268 118.701797,235.783737 
	C118.460800,226.286072 115.235680,223.044312 105.754333,222.385101 
	C103.104111,222.200851 99.320808,223.734909 98.203323,220.303024 
	C96.876266,216.227448 97.246284,211.737534 98.132645,207.475891 
	C98.447334,205.962845 100.060326,205.747055 101.418968,205.744858 
	C119.250397,205.716034 137.081863,205.710388 154.913330,205.711090 
	C157.769119,205.711197 159.203888,207.194199 159.241943,210.038452 
	C159.264236,211.704666 159.287766,213.371063 159.288528,215.037369 
	C159.306946,255.200989 159.266586,295.364777 159.381866,335.528107 
	C159.407242,344.368256 160.567078,353.105133 163.496719,361.536469 
	C169.351334,378.385651 182.817902,385.710388 200.414230,382.286652 
	C220.338455,378.410034 228.154724,364.114288 232.700958,346.516296 
	C234.728745,338.666962 234.855530,330.712372 234.849289,322.723969 
	C234.827042,294.226624 234.787155,265.729187 234.687057,237.232025 
	C234.649551,226.552307 230.876129,222.736481 220.360291,222.398529 
	C213.891022,222.190613 213.697296,221.990952 213.652084,215.483719 
	C213.583984,205.683670 213.584000,205.680878 223.377441,205.677933 
	C238.043030,205.673538 252.708618,205.672974 267.374207,205.671890 
	C275.619781,205.671280 275.955933,206.003647 275.963654,214.506531 
	C275.976685,228.837692 275.970123,243.168839 275.971313,258.000000 
z"/>
</svg>