<svg version="1.1" id="Layer_1" xmlns="http://www.w3.org/2000/svg" xmlns:xlink="http://www.w3.org/1999/xlink" x="0px" y="0px"
	 width="100%" viewBox="0 0 512 512" enable-background="new 0 0 512 512" xml:space="preserve">
<path fill="#000000" opacity="1.000000" stroke="none" 
	d="
M181.000000,204.909866 
	C190.997589,204.916351 200.500900,205.120468 209.990387,204.846573 
	C214.765121,204.708771 215.924591,206.753479 215.937347,211.099228 
	C216.060501,253.077896 215.375824,295.060608 216.359604,337.034149 
	C216.558792,345.532166 218.262070,353.824432 221.159210,361.879791 
	C230.815384,388.728241 263.007050,386.783264 276.641266,373.920013 
	C286.904968,364.236664 291.789703,351.781281 293.369385,338.472809 
	C297.423035,304.322174 295.939911,269.985382 294.797333,235.717667 
	C294.462585,225.678268 291.204681,222.712982 281.087341,222.547623 
	C272.267426,222.403473 273.682404,220.185837 273.705170,214.819504 
	C273.750061,204.226669 272.165253,204.959076 283.624786,204.930710 
	C299.287354,204.891937 314.951294,205.032028 330.612061,204.860336 
	C334.657318,204.815979 335.734009,206.422745 335.733429,210.182022 
	C335.726318,256.830261 335.824524,303.478546 335.898132,350.126801 
	C335.909668,357.440125 335.362946,364.726868 336.206635,372.071381 
	C337.279510,381.410553 340.622620,385.125824 349.954468,385.839478 
	C357.337891,386.404144 357.393250,386.404663 357.325653,393.623016 
	C357.222168,404.672455 358.613159,403.303040 347.345367,403.357635 
	C333.182648,403.426270 319.018585,403.286957 304.856720,403.416626 
	C301.439911,403.447876 299.733917,402.619904 299.418671,398.833130 
	C298.691132,390.092743 297.526825,381.388733 296.432465,371.723328 
	C293.410736,376.293976 290.885468,380.091064 288.382874,383.903046 
	C278.173767,399.453430 263.290833,406.773193 245.182526,408.102966 
	C233.474823,408.962738 221.829361,408.278290 210.774872,403.893372 
	C192.529984,396.656311 183.371078,381.972717 178.741470,363.806671 
	C175.766235,352.132233 174.812393,340.210510 174.812683,328.194855 
	C174.813324,302.201416 174.815598,276.207977 174.804214,250.214554 
	C174.802322,245.882629 174.793777,241.549271 174.686081,237.219116 
	C174.424973,226.719849 170.972214,223.098282 160.669952,222.398422 
	C153.708237,221.925491 153.649277,221.925110 153.692612,214.908203 
	C153.759460,204.082565 152.235916,204.982254 163.505966,204.921219 
	C169.170502,204.890549 174.835312,204.912064 181.000000,204.909866 
z"/>
</svg>