<svg version="1.1" id="Layer_1" xmlns="http://www.w3.org/2000/svg" xmlns:xlink="http://www.w3.org/1999/xlink" x="0px" y="0px"
	 width="100%" viewBox="0 0 512 512" enable-background="new 0 0 512 512" xml:space="preserve">
<path fill="#000000" opacity="1.000000" stroke="none" 
	d="
M290.832764,151.000015 
	C290.774384,143.334503 290.868530,136.163712 290.620392,129.004761 
	C290.287079,119.388374 286.215729,115.545204 276.588715,115.328224 
	C268.979126,115.156723 268.979706,115.156723 269.037872,107.401146 
	C269.047882,106.068039 269.119171,104.730949 269.042999,103.402527 
	C268.855499,100.132790 270.032318,98.575241 273.624146,98.600380 
	C291.288300,98.723984 308.954071,98.712326 326.618530,98.614967 
	C329.956512,98.596565 331.073456,100.075485 330.975616,103.133049 
	C330.895752,105.630280 330.956451,108.132034 330.956329,110.631783 
	C330.951019,234.786942 330.945709,358.942108 330.941284,483.097260 
	C330.941071,489.733765 331.024445,489.842682 337.574219,489.847839 
	C350.906311,489.858276 364.240479,489.965790 377.569275,489.751312 
	C381.797821,489.683289 383.814423,490.819702 383.403320,495.363647 
	C383.104187,498.669983 383.229462,502.028717 383.363342,505.356171 
	C383.486664,508.420959 382.103882,509.389374 379.171265,509.382843 
	C351.174072,509.320465 323.176575,509.315155 295.179382,509.385681 
	C291.933014,509.393860 290.757019,508.115265 290.795074,504.943604 
	C291.282990,464.293793 289.900085,423.632080 291.585083,382.988647 
	C291.727661,379.549835 291.603973,376.099976 291.603973,371.796600 
	C287.751099,375.600677 286.315063,379.930878 283.824188,383.536163 
	C273.002319,399.199860 258.059296,407.176208 239.206940,408.122559 
	C227.308731,408.719818 215.598099,408.074097 204.471054,403.097778 
	C186.704163,395.151886 178.242142,380.227539 173.897507,362.324188 
	C171.538193,352.601959 170.576904,342.690155 170.619965,332.639771 
	C170.748444,302.643127 170.672302,272.645477 170.633377,242.648300 
	C170.630142,240.163101 170.499741,237.646149 170.095322,235.199005 
	C168.457260,225.286850 165.887695,222.689270 155.670609,222.561050 
	C150.356644,222.494370 148.786057,220.816208 148.913010,215.639542 
	C149.207336,203.639267 148.907364,205.788574 158.934601,205.714935 
	C173.765747,205.606003 188.598312,205.692917 203.430283,205.698044 
	C210.949081,205.700638 210.938095,205.702255 210.951828,213.037201 
	C211.027298,253.365921 211.123093,293.694611 211.176254,334.023407 
	C211.187531,342.583130 212.899567,350.830383 215.069244,359.066925 
	C222.568375,387.535461 253.933151,388.762482 270.062500,376.199188 
	C281.350433,367.406982 285.991943,354.809082 288.621429,341.288940 
	C290.793762,330.119293 290.843414,318.810669 290.834229,307.484955 
	C290.792175,255.490005 290.826202,203.494995 290.832764,151.000015 
z"/>
</svg>