<svg version="1.1" id="Layer_1" xmlns="http://www.w3.org/2000/svg" xmlns:xlink="http://www.w3.org/1999/xlink" x="0px" y="0px"
	 width="100%" viewBox="0 0 512 512" enable-background="new 0 0 512 512" xml:space="preserve">
<path fill="#000000" opacity="1.000000" stroke="none" 
	d="
M302.340820,208.153961 
	C322.712494,199.202484 343.211334,198.873001 363.413635,206.473190 
	C378.780884,212.254395 387.504547,224.807419 392.268951,240.184052 
	C396.401825,253.522552 397.261230,267.311981 397.328217,281.137207 
	C397.465454,309.468567 397.374146,337.801117 397.337311,366.133118 
	C397.332520,369.810211 397.566132,373.437469 398.195099,377.068634 
	C399.259918,383.216248 402.720306,386.390533 408.959656,386.662964 
	C419.169525,387.108673 421.045258,389.628418 419.095184,399.968414 
	C418.634399,402.411682 417.295929,403.353516 414.975098,403.352295 
	C397.142883,403.342957 379.310638,403.326416 361.478485,403.356384 
	C358.285706,403.361725 357.605286,401.505890 357.630188,398.818176 
	C357.679596,393.485626 357.636536,388.152222 357.636444,382.819183 
	C357.636078,350.653961 357.706146,318.488556 357.600250,286.323669 
	C357.562927,274.995544 356.740509,263.715851 353.764801,252.693344 
	C348.470093,233.080750 335.598053,225.315720 316.218384,226.680283 
	C298.515381,227.926804 287.887085,238.421234 282.194122,254.642120 
	C278.685577,264.638885 276.996277,274.962341 276.985596,285.507233 
	C276.957489,313.171661 277.059875,340.836578 277.221588,368.500641 
	C277.286804,379.653900 279.583221,386.255707 294.148773,386.689209 
	C297.052124,386.775604 298.366974,388.100342 298.360382,391.007935 
	C298.326538,405.912231 299.722931,403.196899 286.884399,403.350769 
	C274.220123,403.502594 261.552612,403.387451 248.886505,403.377594 
	C241.466431,403.371857 241.379990,403.273926 240.678787,396.077118 
	C240.033630,389.455505 239.364914,382.836121 238.699005,376.216553 
	C238.585785,375.090973 238.829773,373.827637 237.503082,373.045074 
	C235.222824,373.590546 234.909348,375.829376 233.956253,377.464935 
	C225.572052,391.852264 214.341202,402.975006 197.539062,406.372955 
	C181.366653,409.643585 165.046844,410.071838 149.606995,402.791840 
	C133.869827,395.371582 125.155876,382.116730 120.821289,365.810669 
	C117.777565,354.360687 116.515900,342.649384 116.603645,330.728760 
	C116.817093,301.731659 116.668655,272.731903 116.664009,243.733215 
	C116.663742,242.066696 116.705780,240.397354 116.626778,238.734131 
	C116.033142,226.236801 112.754395,222.856461 100.277557,222.410767 
	C96.701050,222.283020 95.241051,220.889984 94.989769,217.377045 
	C94.183197,206.101486 94.537415,205.648361 105.945320,205.649872 
	C120.611320,205.651810 135.277344,205.642044 149.943329,205.656113 
	C156.837967,205.662735 157.231995,206.036530 157.239792,213.077423 
	C157.285934,254.742035 157.018982,296.410187 157.518738,338.069214 
	C157.666336,350.373840 160.185211,362.582001 168.325729,372.703552 
	C173.035248,378.559143 179.080124,381.883575 186.601562,382.730103 
	C215.552719,385.988586 227.604065,368.486725 233.580627,346.067444 
	C235.556915,338.654053 236.709625,331.061951 236.724472,323.381561 
	C236.779282,295.051086 236.824081,266.719635 236.638168,238.390091 
	C236.556427,225.935425 233.193924,222.785431 220.878647,222.350616 
	C220.545593,222.338837 220.211182,222.316879 219.879089,222.333633 
	C216.948090,222.481415 215.638702,221.129578 215.660172,218.162567 
	C215.769821,203.012512 214.186157,205.840622 226.952438,205.686386 
	C240.283203,205.525360 253.617477,205.642654 266.950195,205.661102 
	C273.790833,205.670547 273.987518,206.064560 274.373749,213.110703 
	C274.769409,220.329819 274.836731,227.612625 276.776123,236.106995 
	C283.535156,224.193954 291.042450,214.613022 302.340820,208.153961 
z"/>
</svg>