<svg version="1.1" id="Layer_1" xmlns="http://www.w3.org/2000/svg" xmlns:xlink="http://www.w3.org/1999/xlink" x="0px" y="0px"
	 width="100%" viewBox="0 0 512 512" enable-background="new 0 0 512 512" xml:space="preserve">
<path fill="#000000" opacity="1.000000" stroke="none" 
	d="
M225.411057,247.432846 
	C219.670349,259.231476 217.467041,271.564606 217.422684,284.077820 
	C217.194656,348.390625 217.296570,412.704651 217.330811,477.018250 
	C217.337128,488.881470 220.871033,492.493683 232.831696,492.601410 
	C236.876968,492.637878 238.488022,493.858612 238.386581,498.060638 
	C238.063614,511.440704 239.807465,509.219086 227.405167,509.334656 
	C212.744141,509.471283 198.080826,509.377960 183.418533,509.364014 
	C176.800171,509.357727 176.777512,509.335510 176.777939,502.755981 
	C176.783417,418.947571 176.798233,335.139130 176.799973,251.330719 
	C176.800064,246.999329 176.831772,242.661880 176.626801,238.337753 
	C176.111374,227.464478 172.187134,223.077560 161.423325,222.550278 
	C153.930832,222.183243 154.645844,221.698318 154.670578,214.888901 
	C154.707825,204.633179 153.607559,205.733627 163.654282,205.698578 
	C177.483322,205.650330 191.312683,205.691193 205.141907,205.697968 
	C212.338181,205.701492 212.523041,205.909698 213.254593,213.145462 
	C213.922791,219.754837 214.676651,226.355515 215.386765,232.960678 
	C215.479034,233.819046 215.720413,234.578217 216.610168,235.063080 
	C218.665070,234.816193 218.829880,232.851151 219.594894,231.499191 
	C230.203430,212.751572 246.062469,202.581955 267.756104,201.773163 
	C279.818146,201.323456 291.765472,201.780457 303.097595,206.483795 
	C320.835632,213.845871 329.846252,228.232574 334.168823,246.093781 
	C336.600372,256.141174 337.449860,266.391998 337.397675,276.763123 
	C337.255951,304.920715 337.353699,333.079468 337.344299,361.237762 
	C337.342804,365.734375 337.467468,370.198029 338.098541,374.680847 
	C339.323395,383.381134 342.281067,386.197540 350.926910,386.735565 
	C353.513550,386.896545 357.271545,385.110535 358.391479,388.741913 
	C359.709869,393.016754 359.527283,397.644257 358.335938,402.038635 
	C357.919769,403.573578 356.167969,403.347809 354.867554,403.349243 
	C337.039581,403.368774 319.211060,403.284515 301.383972,403.410522 
	C296.186188,403.447266 297.052460,399.894623 297.051117,396.875671 
	C297.034332,359.553467 296.994415,322.230927 297.159027,284.909363 
	C297.184021,279.242126 297.045471,273.592499 296.605682,267.970856 
	C295.981140,259.987305 294.302246,252.155792 291.056000,244.793304 
	C285.470825,232.126083 272.517700,225.176422 256.920380,226.420517 
	C242.715561,227.553558 232.018936,234.132538 225.411057,247.432846 
z"/>
</svg>