<svg version="1.1" id="Layer_1" xmlns="http://www.w3.org/2000/svg" xmlns:xlink="http://www.w3.org/1999/xlink" x="0px" y="0px"
	 width="100%" viewBox="0 0 512 512" enable-background="new 0 0 512 512" xml:space="preserve">
<path fill="#000000" opacity="1.000000" stroke="none" 
	d="
M328.551208,462.413818 
	C317.144775,487.907776 297.586914,502.861969 270.900116,508.104797 
	C248.215240,512.561340 225.671677,511.939453 203.701096,503.375610 
	C184.847794,496.026886 172.866302,476.087128 175.731049,455.902161 
	C177.189987,445.622650 189.820587,436.714081 199.830795,438.718506 
	C202.850021,439.323059 202.155609,441.463409 202.334259,443.314484 
	C203.246140,452.763580 204.280655,462.135559 208.703308,470.819153 
	C215.589233,484.339172 227.051422,490.543091 241.618210,491.644165 
	C253.259995,492.524139 264.620117,491.489410 274.563690,484.400360 
	C286.460083,475.919037 291.622681,463.481842 294.583923,449.846985 
	C296.031403,443.182159 296.796448,436.412048 296.855438,429.562500 
	C297.025665,409.795319 297.177704,390.024994 299.485596,369.830994 
	C296.620697,370.728119 296.266815,373.048401 295.299347,374.765839 
	C290.089355,384.014465 283.683655,392.222473 274.682068,398.075439 
	C247.306519,415.875275 203.418396,407.095093 184.650452,380.420288 
	C173.037323,363.914642 168.736206,345.194244 166.689148,325.638733 
	C164.931274,308.845978 165.219742,292.071777 167.711533,275.398346 
	C171.100220,252.723419 177.877167,231.534378 196.691269,216.451355 
	C217.645248,199.652817 251.949997,196.605789 275.354889,209.641800 
	C284.434875,214.699158 290.901093,222.554901 295.687927,231.788315 
	C296.805634,233.944336 297.341034,236.527298 299.784790,238.181915 
	C302.768127,235.462891 301.726471,231.622391 302.427460,228.442749 
	C303.637665,222.953293 304.050568,217.282822 304.701508,211.677094 
	C305.160095,207.727951 306.461090,205.311081 311.244843,205.595490 
	C318.052246,206.000198 324.911041,205.912613 331.729950,205.618942 
	C336.136322,205.429153 337.455200,207.011353 337.430237,211.368927 
	C337.269165,239.527206 337.352875,267.686859 337.348328,295.846069 
	C337.341522,337.834900 337.483582,379.824677 337.229736,421.812042 
	C337.145721,435.709503 334.280609,449.224823 328.551208,462.413818 
M255.327271,224.210007 
	C237.683502,223.250244 224.831268,230.702591 216.752838,246.347534 
	C213.065430,253.488678 210.830124,261.147797 209.342194,269.024048 
	C205.574280,288.969482 205.459534,309.074707 207.498627,329.158539 
	C208.706543,341.055695 211.243515,352.693665 216.554123,363.682800 
	C228.103058,387.580811 255.066269,388.685089 270.317230,380.945953 
	C283.550537,374.230682 289.599976,362.135895 293.593689,348.753113 
	C299.390625,329.327759 299.357849,309.315399 298.436951,289.365631 
	C297.800293,275.573822 295.823792,261.826202 290.050354,249.053497 
	C283.483154,234.524857 272.952850,225.105225 255.327271,224.210007 
z"/>
</svg>