<svg version="1.1" id="Layer_1" xmlns="http://www.w3.org/2000/svg" xmlns:xlink="http://www.w3.org/1999/xlink" x="0px" y="0px"
	 width="100%" viewBox="0 0 512 512" enable-background="new 0 0 512 512" xml:space="preserve">
<path fill="#000000" opacity="1.000000" stroke="none" 
	d="
M265.404236,224.003510 
	C265.401581,275.333435 265.398834,326.164062 265.395477,376.994690 
	C265.395050,383.729614 265.393524,383.748047 271.942932,383.753815 
	C277.609192,383.758759 283.276184,383.762604 288.941650,383.682983 
	C298.398529,383.550079 302.128387,379.881683 302.644196,370.321991 
	C303.164673,360.676208 303.164673,360.676208 312.930847,360.678284 
	C321.126526,360.680023 321.122772,360.680023 321.128937,368.918610 
	C321.136200,378.584747 321.028473,388.253296 321.220367,397.915833 
	C321.300964,401.974548 319.907990,403.466034 315.726593,403.445801 
	C287.228729,403.308105 258.729004,403.255310 230.232300,403.480896 
	C225.027328,403.522125 224.709686,401.020172 224.715530,397.028839 
	C224.789703,346.364929 224.773849,295.700897 224.769653,245.036896 
	C224.769318,241.037506 224.857483,237.027054 224.601517,233.041183 
	C224.152939,226.055832 221.283508,223.187469 214.391327,222.456787 
	C213.400101,222.351700 212.376251,222.495987 211.398041,222.337006 
	C208.238480,221.823486 203.620331,224.065414 202.182678,220.806488 
	C200.361206,216.677475 201.419601,211.625641 201.856842,206.992767 
	C202.034683,205.108307 203.887207,204.980560 205.396179,204.978043 
	C224.228210,204.946640 243.060364,204.973923 261.892273,204.915970 
	C264.853058,204.906860 265.525696,206.406769 265.460663,209.006226 
	C265.339813,213.836334 265.412079,218.671280 265.404236,224.003510 
z"/>
</svg>