<svg version="1.1" id="Layer_1" xmlns="http://www.w3.org/2000/svg" xmlns:xlink="http://www.w3.org/1999/xlink" x="0px" y="0px"
	 width="100%" viewBox="0 0 512 512" enable-background="new 0 0 512 512" xml:space="preserve">
<path fill="#000000" opacity="1.000000" stroke="none" 
	d="
M277.242554,406.000000 
	C277.247284,429.497192 277.197113,452.494598 277.277618,475.491547 
	C277.323029,488.467987 280.787720,492.089905 293.806549,492.637695 
	C297.293030,492.784424 298.446899,494.045380 298.382019,497.428406 
	C298.106964,511.772339 300.035400,509.184875 287.091705,509.329742 
	C272.428650,509.493835 257.759949,509.218506 243.098846,509.453827 
	C238.496368,509.527710 236.670517,508.400208 236.698883,503.386536 
	C236.893112,469.058441 236.702805,434.728271 236.876129,400.399963 
	C236.912933,393.105865 237.957901,385.818268 238.491394,378.524231 
	C238.621552,376.744598 239.107925,374.859802 237.491089,373.117126 
	C235.036423,373.726318 234.747620,376.166779 233.727554,377.874512 
	C225.189911,392.167816 213.821945,402.945587 197.037079,406.472443 
	C184.192993,409.171265 171.206726,409.367401 158.445526,405.883301 
	C137.463806,400.154724 126.141670,385.245667 120.797470,365.069855 
	C118.064148,354.750763 116.748825,344.178131 116.727089,333.492218 
	C116.665741,303.329285 116.686241,273.166229 116.672844,243.003220 
	C116.672096,241.336792 116.698990,239.668869 116.640800,238.004181 
	C116.232330,226.320419 113.021278,222.840515 101.243225,222.492722 
	C96.899033,222.364426 95.423538,221.110382 95.570602,216.718048 
	C96.000999,203.862625 93.953407,205.812622 106.302292,205.715073 
	C121.132904,205.597931 135.969208,205.886185 150.794479,205.581558 
	C155.928940,205.476059 157.322998,207.227844 157.307571,212.181747 
	C157.179825,253.176208 157.162003,294.172058 157.400345,335.165802 
	C157.456436,344.813202 159.220123,354.287109 162.787872,363.417053 
	C173.128647,389.879425 206.183197,387.557037 219.783508,373.101654 
	C229.582230,362.686829 233.430466,349.743439 235.651001,336.071045 
	C236.966492,327.971313 236.795975,319.815674 236.800217,311.668304 
	C236.830795,253.008713 236.826218,194.349136 236.822266,135.689545 
	C236.822083,133.024094 236.830780,130.350983 236.645889,127.694618 
	C236.074081,119.479378 232.200623,115.581177 223.941452,115.400864 
	C215.142242,115.208748 215.671219,115.773201 215.650253,106.751205 
	C215.646759,105.251518 215.723984,103.749275 215.660461,102.252609 
	C215.553207,99.725166 216.689194,98.655121 219.229904,98.660240 
	C237.227478,98.696495 255.225296,98.707809 273.222687,98.637505 
	C276.318481,98.625404 277.361359,100.061340 277.244720,102.920303 
	C277.156525,105.082771 277.247742,107.252274 277.247467,109.418648 
	C277.243500,140.081619 277.307953,170.744858 277.189484,201.407379 
	C277.153473,210.726242 276.602173,220.042831 276.308960,229.361176 
	C276.253052,231.138031 276.300934,232.918167 276.300934,235.112656 
	C278.990753,234.295624 279.424957,232.356491 280.254578,230.897964 
	C290.763885,212.421509 306.773712,202.932617 327.841858,201.829010 
	C340.066101,201.188660 352.200043,201.805573 363.645844,206.721497 
	C383.555176,215.272461 391.739716,232.195419 395.267761,252.128601 
	C397.155121,262.792023 397.409302,273.612762 397.364288,284.451630 
	C397.246643,312.781006 397.335266,341.111237 397.360809,369.441132 
	C397.362457,371.268280 397.346893,373.125458 397.646545,374.917267 
	C399.104767,383.637268 402.471802,386.384705 411.428253,386.727753 
	C413.939606,386.823944 417.731476,385.418640 418.651001,388.300415 
	C420.046112,392.672699 419.738251,397.535004 418.666962,402.103760 
	C418.332428,403.530426 416.459137,403.347168 415.143555,403.348236 
	C397.312439,403.362610 379.481018,403.296387 361.650452,403.393890 
	C357.125732,403.418610 357.668762,400.395721 357.667297,397.599548 
	C357.651733,367.936462 357.692566,338.273315 357.635559,308.610321 
	C357.610291,295.455566 358.153870,282.283386 356.750854,269.158661 
	C356.008331,262.212555 355.140015,255.311768 352.688629,248.678741 
	C346.651672,232.343597 333.042755,224.484177 315.741241,226.523209 
	C296.971100,228.735336 286.903778,240.189377 281.457733,257.006714 
	C278.675385,265.598511 277.342651,274.491241 277.325714,283.516479 
	C277.249359,324.177551 277.261871,364.838806 277.242554,406.000000 
z"/>
</svg>