<svg version="1.1" id="Layer_1" xmlns="http://www.w3.org/2000/svg" xmlns:xlink="http://www.w3.org/1999/xlink" x="0px" y="0px"
	 width="100%" viewBox="0 0 512 512" enable-background="new 0 0 512 512" xml:space="preserve">
<path fill="#000000" opacity="1.000000" stroke="none" 
	d="
M337.003693,444.790955 
	C337.419189,449.796173 334.722046,450.282166 331.047791,450.273132 
	C295.381561,450.185364 259.715027,450.209045 224.048584,450.205322 
	C217.370316,450.204651 217.381226,450.213715 217.348862,456.688995 
	C217.313095,463.846130 217.433716,470.977386 218.212357,478.121063 
	C219.304886,488.144592 223.504105,492.340240 233.611435,492.677734 
	C240.174088,492.896851 240.228302,492.896973 240.211823,499.524506 
	C240.183380,510.967224 241.067352,509.286682 230.285797,509.348480 
	C214.619766,509.438263 198.950867,509.230103 183.287476,509.451752 
	C178.876434,509.514160 177.528061,508.072754 177.589539,503.717621 
	C177.805939,488.387421 177.676971,473.052338 177.675323,457.719086 
	C177.674500,450.225403 177.670776,450.226562 169.933319,450.219910 
	C163.433395,450.214294 156.932220,450.127747 150.434036,450.230438 
	C147.077240,450.283478 145.766296,448.961853 145.617584,445.519348 
	C144.982208,430.811798 144.894836,430.814362 159.695679,430.791473 
	C164.028961,430.784760 168.374756,430.581573 172.691910,430.844482 
	C176.753601,431.091858 177.777939,429.364624 177.746277,425.551086 
	C177.594208,407.219147 177.685486,388.885223 177.682556,370.552002 
	C177.675735,328.052277 177.665344,285.552582 177.651154,243.052872 
	C177.650650,241.553650 177.709229,240.041840 177.546112,238.557220 
	C176.184296,226.161469 173.043579,222.964050 160.489944,222.502838 
	C155.954468,222.336182 154.864731,220.627762 154.939011,216.493042 
	C155.171890,203.530487 154.434433,205.826309 165.589279,205.718018 
	C178.421280,205.593414 191.255508,205.684769 204.088730,205.705887 
	C210.174057,205.715897 210.601242,206.273926 211.296265,212.520432 
	C212.301407,221.554382 213.500732,230.566727 214.675354,240.058014 
	C217.796127,236.778061 218.858429,232.994888 220.899551,229.798126 
	C230.044388,215.475739 242.695190,206.309525 259.556396,203.182129 
	C277.096436,199.928848 294.190399,201.534454 310.299805,209.124390 
	C328.801697,217.841553 339.256470,233.568481 345.416748,252.476379 
	C350.564423,268.276245 352.165314,284.571198 352.473450,301.139954 
	C352.843903,321.059845 351.446320,340.678406 345.140564,359.693481 
	C339.150848,377.755554 328.703156,392.343445 311.295135,401.030884 
	C301.605591,405.866516 291.057739,407.712982 280.348358,407.922791 
	C269.668610,408.132019 259.070312,406.881683 249.000763,402.972900 
	C235.692047,397.806824 226.110596,388.460297 219.325500,376.049286 
	C218.559891,374.648865 218.164642,372.958649 216.033646,371.573364 
	C217.176727,382.939758 217.483994,393.826141 217.362793,404.724884 
	C217.286819,411.557312 217.593750,418.403046 217.265167,425.220428 
	C217.050156,429.681458 218.657623,430.903259 222.989594,430.884521 
	C256.488739,430.739471 289.989014,430.741486 323.488495,430.844421 
	C338.710571,430.891205 336.898865,428.443237 337.003693,444.790955 
M260.899445,385.684814 
	C263.064636,385.726868 265.229706,385.775208 267.395020,385.810028 
	C284.677917,386.088135 296.606049,377.797058 303.561615,362.404938 
	C308.460876,351.563263 310.514069,339.892700 311.648651,328.082672 
	C313.037720,313.623566 312.830292,299.149811 311.607941,284.708038 
	C310.452118,271.052277 307.697174,257.803894 301.518402,245.335876 
	C287.842377,217.739365 247.746094,218.434860 233.222824,238.605942 
	C227.980301,245.887192 224.582214,253.936050 222.368713,262.545990 
	C217.755936,280.488556 217.973068,298.801697 218.293106,317.113220 
	C218.497375,328.801758 220.054092,340.345337 223.417404,351.526031 
	C228.945419,369.903015 239.501785,383.173401 260.899445,385.684814 
z"/>
</svg>