<svg version="1.1" id="Layer_1" xmlns="http://www.w3.org/2000/svg" xmlns:xlink="http://www.w3.org/1999/xlink" x="0px" y="0px"
	 width="100%" viewBox="0 0 512 512" enable-background="new 0 0 512 512" xml:space="preserve">
<path fill="#000000" opacity="1.000000" stroke="none" 
	d="
M280.418884,203.360291 
	C308.185638,208.728989 326.647034,224.707870 336.431305,250.515366 
	C344.776825,272.527893 346.271637,295.469208 344.568359,318.804962 
	C343.481384,333.696747 340.960785,348.177734 335.001892,361.923645 
	C323.546631,388.348633 302.670349,402.170959 274.813538,406.190643 
	C259.043335,408.466248 243.256180,408.224792 227.785507,403.872406 
	C199.582306,395.937897 182.300720,376.811646 174.558640,349.300507 
	C165.428192,316.855988 165.584717,284.123016 176.395569,252.037811 
	C186.173325,223.018692 207.503525,207.289474 237.342651,202.711273 
	C251.553421,200.530945 265.818787,200.492798 280.418884,203.360291 
M261.933289,221.620743 
	C245.133652,220.746902 231.028534,225.551590 221.786667,240.640350 
	C216.564911,249.165634 213.950500,258.597870 212.318939,268.328217 
	C209.053848,287.800568 208.496506,307.408173 210.490936,327.018433 
	C211.753525,339.432770 214.213089,351.613495 219.449539,363.156647 
	C233.592957,394.334167 273.098999,393.508514 288.477692,372.944794 
	C293.248016,366.566101 296.450562,359.500458 298.587494,351.912994 
	C304.681763,330.274261 304.348969,308.100769 303.387146,285.984467 
	C302.867767,274.042908 301.019104,262.146210 296.854614,250.778854 
	C290.960571,234.690628 280.645142,223.813507 261.933289,221.620743 
z"/>
</svg>