<svg version="1.1" id="Layer_1" xmlns="http://www.w3.org/2000/svg" xmlns:xlink="http://www.w3.org/1999/xlink" x="0px" y="0px"
	 width="100%" viewBox="0 0 512 512" enable-background="new 0 0 512 512" xml:space="preserve">
<path fill="#000000" opacity="1.000000" stroke="none" 
	d="
M234.801880,503.851379 
	C234.792603,473.873596 234.786606,444.381165 234.778214,414.888702 
	C234.775894,406.794342 234.612564,406.862030 226.449509,406.309753 
	C206.995728,404.993622 188.220978,400.865601 171.090683,391.161194 
	C156.335037,382.802063 145.331894,371.194855 141.383957,354.106537 
	C140.601608,350.720184 140.034012,347.224579 139.899796,343.758728 
	C139.392838,330.667572 148.941193,320.539612 162.090790,319.620667 
	C166.351074,319.322937 168.293716,320.657623 168.169434,325.060608 
	C168.023621,330.226166 168.735535,335.322601 169.827744,340.387695 
	C175.481247,366.605896 193.001007,380.119812 218.070969,385.537720 
	C222.126205,386.414062 226.247818,386.999664 230.353882,387.619293 
	C233.544205,388.100708 234.978699,386.694305 234.793839,383.401428 
	C234.635330,380.578003 234.772903,377.738129 234.773132,374.905548 
	C234.776550,332.749664 234.711411,290.593475 234.880539,248.438263 
	C234.898453,243.972733 233.464081,242.122711 229.212143,240.788696 
	C211.580093,235.256821 194.280792,229.082520 178.270386,219.367325 
	C142.798248,197.842621 142.266556,150.368439 159.992401,126.802330 
	C171.259598,111.822853 186.925018,103.845924 204.799316,99.800026 
	C213.885498,97.743347 223.101929,96.502823 232.483521,96.629181 
	C243.478699,96.777267 254.479080,96.767960 265.473663,96.598320 
	C269.126678,96.541946 270.595245,97.751434 270.385437,101.477966 
	C270.151733,105.630066 270.347504,109.806046 270.347656,113.971634 
	C270.348938,150.129059 270.422424,186.286850 270.249512,222.443451 
	C270.229034,226.725876 271.652924,228.541489 275.659088,229.814850 
	C297.803040,236.853302 319.285889,245.388107 337.948669,259.692810 
	C355.965637,273.502533 364.978088,291.856903 366.475861,314.494598 
	C367.451721,329.244385 366.259857,343.444611 359.854126,356.817871 
	C349.476013,378.484283 331.143585,390.740479 309.255951,398.593781 
	C298.074829,402.605560 286.508850,404.916016 274.741364,406.162781 
	C271.267944,406.530792 270.285675,407.999969 270.303497,411.267670 
	C270.410767,430.928711 270.320129,450.590881 270.437195,470.251831 
	C270.459869,474.063385 270.916748,477.901123 271.507568,481.674438 
	C272.644440,488.935364 276.690369,492.318634 285.300598,492.584564 
	C292.984589,492.821869 292.369995,493.209045 292.330048,499.960205 
	C292.266998,510.614685 293.436310,509.287476 283.048157,509.343719 
	C268.718964,509.421326 254.388016,509.269470 240.059952,509.419189 
	C236.280609,509.458710 234.314026,508.356720 234.801880,503.851379 
M287.886292,382.371002 
	C308.334839,374.922028 320.946289,360.792694 324.930206,339.180328 
	C326.363190,331.406525 325.911072,323.614655 325.664215,315.816528 
	C325.174500,300.347290 319.684296,286.968689 308.568329,276.090118 
	C299.996704,267.701538 289.696411,261.967377 278.747620,257.331146 
	C276.240570,256.269531 273.855835,254.541107 270.940247,254.970032 
	C269.997467,256.957489 270.365021,258.816406 270.362335,260.615295 
	C270.331360,281.251770 270.337677,301.888336 270.338623,322.524872 
	C270.339478,342.162872 270.414185,361.801300 270.293549,381.438538 
	C270.268524,385.512573 271.019623,387.549408 275.648956,385.894501 
	C279.392426,384.556305 283.305298,383.692047 287.886292,382.371002 
M234.795837,181.500015 
	C234.792480,162.858749 234.799484,144.217484 234.781616,125.576241 
	C234.771942,115.469215 234.719330,115.187828 224.851746,116.363571 
	C208.125122,118.356598 195.865509,126.320953 190.541672,143.150330 
	C187.929520,151.407700 187.917099,159.827499 188.236130,168.329651 
	C188.702789,180.765854 193.156845,191.155579 202.892120,199.291733 
	C211.213745,206.246445 220.997513,210.371445 230.693832,214.738770 
	C231.826706,215.249039 232.959137,216.283951 234.795273,215.134918 
	C234.795273,204.419830 234.795273,193.459930 234.795837,181.500015 
z"/>
</svg>