<svg version="1.1" id="Layer_1" xmlns="http://www.w3.org/2000/svg" xmlns:xlink="http://www.w3.org/1999/xlink" x="0px" y="0px"
	 width="100%" viewBox="0 0 512 512" enable-background="new 0 0 512 512" xml:space="preserve">
<path fill="#000000" opacity="1.000000" stroke="none" 
	d="
M328.374573,242.000092 
	C328.377014,287.157257 328.374756,331.814392 328.385162,376.471527 
	C328.386841,383.688873 328.412811,383.699310 335.554230,383.702972 
	C348.218201,383.709473 360.886261,383.887024 373.544098,383.607178 
	C378.460327,383.498505 380.061615,385.472412 379.980865,390.047211 
	C379.698181,406.058685 381.855682,403.227081 366.899475,403.335388 
	C344.405457,403.498230 321.908325,403.259338 299.414978,403.463287 
	C294.390717,403.508820 292.754303,401.691742 292.571167,396.809509 
	C292.297302,389.508789 291.277588,382.235840 290.564453,374.952118 
	C290.480927,374.098877 290.200775,373.336945 289.125092,372.944427 
	C286.993896,373.564697 286.649323,375.792786 285.709686,377.408905 
	C271.026001,402.664154 251.947525,410.132355 223.620422,407.796234 
	C210.183411,406.688049 197.748428,403.155853 187.875183,393.345123 
	C177.893677,383.426849 173.467926,370.837555 170.688278,357.426849 
	C168.195511,345.400269 168.681854,333.237671 168.678818,321.092438 
	C168.664642,264.104553 168.654816,207.116684 168.697601,150.128845 
	C168.702988,142.959869 168.434799,135.822067 167.840988,128.676102 
	C167.025421,118.861687 163.905533,115.754189 154.110504,115.320129 
	C151.791397,115.217361 148.465912,116.403549 147.735168,113.042206 
	C146.755646,108.536362 146.074127,103.765312 148.328110,99.404907 
	C149.124649,97.863991 151.283737,98.075455 152.935944,98.072594 
	C169.598923,98.043701 186.262604,98.129822 202.924622,97.998878 
	C207.895966,97.959808 208.449860,100.651184 208.445465,104.720436 
	C208.368530,176.038483 208.256119,247.357086 208.505142,318.674347 
	C208.552567,332.257996 208.676270,345.969940 212.984085,359.196075 
	C216.932602,371.319153 224.110413,379.858307 237.064346,382.627594 
	C252.159073,385.854584 264.836517,381.710480 274.535217,369.727661 
	C282.754395,359.572815 285.913727,347.312073 287.654266,334.638458 
	C289.886658,318.383392 288.466187,302.037262 288.704590,285.734863 
	C288.928741,270.408478 288.747131,255.075562 288.682404,239.745789 
	C288.634247,228.341980 286.699371,222.339432 272.079498,222.393600 
	C268.665558,222.406250 267.336700,221.236740 267.492462,217.693115 
	C268.083313,204.251831 264.735565,205.803116 279.283844,205.739716 
	C293.447205,205.677994 307.611084,205.717911 321.774719,205.727631 
	C328.317780,205.732117 328.373077,205.788681 328.380646,212.508148 
	C328.391571,222.172119 328.377533,231.836105 328.374573,242.000092 
z"/>
</svg>