<svg version="1.1" id="Layer_1" xmlns="http://www.w3.org/2000/svg" xmlns:xlink="http://www.w3.org/1999/xlink" x="0px" y="0px"
	 width="100%" viewBox="0 0 512 512" enable-background="new 0 0 512 512" xml:space="preserve">
<path fill="#000000" opacity="1.000000" stroke="none" 
	d="
M203.750320,350.665527 
	C212.823517,348.952881 221.659576,349.698059 230.448212,349.831512 
	C235.570068,349.909271 236.939835,348.291382 236.912567,343.287933 
	C236.720963,308.122375 236.813629,272.955322 236.808105,237.788727 
	C236.807877,236.289429 236.786835,234.786743 236.688004,233.291412 
	C236.211426,226.081375 233.864334,223.562241 226.727554,222.572983 
	C225.904709,222.458908 225.058975,222.501312 224.239914,222.370544 
	C220.881439,221.834290 216.214371,224.073303 214.396179,220.927277 
	C212.306808,217.312057 213.616104,212.457062 213.813568,208.149490 
	C213.952545,205.118057 216.546112,205.739700 218.397690,205.730591 
	C231.064026,205.668228 243.730774,205.694046 256.397400,205.691803 
	C261.564056,205.690887 266.740021,205.881989 271.894379,205.630203 
	C276.033081,205.428024 277.418549,207.013000 277.389862,211.125290 
	C277.244415,231.957535 277.321899,252.791367 277.322754,273.624634 
	C277.323700,297.124573 277.429779,320.625366 277.236206,344.123688 
	C277.199677,348.555511 278.572754,349.943634 282.945343,349.774261 
	C290.766754,349.471252 298.610962,349.811523 306.440857,349.650421 
	C310.141510,349.574249 311.443481,351.058655 311.363831,354.676971 
	C310.992035,371.565826 313.919891,368.622711 297.763611,368.942047 
	C292.765594,369.040833 287.762909,368.893250 282.764252,368.973816 
	C277.485870,369.058929 276.940765,369.996704 277.516510,375.336212 
	C279.075012,389.789703 282.741669,403.736206 286.974579,417.595917 
	C291.170715,431.335205 293.937561,445.339935 293.327026,459.841949 
	C292.891327,470.190491 290.555237,479.905792 284.433411,488.470459 
	C276.419220,499.682587 264.539917,504.105591 251.813797,506.988922 
	C241.671249,509.286896 231.364136,509.557739 221.014877,509.384949 
	C218.117569,509.336578 216.937317,508.335358 216.748032,505.315338 
	C215.878448,491.442108 215.800583,491.446991 229.779449,489.654297 
	C242.669281,488.001282 251.220123,478.794464 252.797043,465.905334 
	C255.136337,446.784637 249.628311,429.013855 244.262878,411.159119 
	C240.809998,399.668854 238.169601,388.029022 237.602081,375.979340 
	C237.292450,369.405426 236.751968,368.991699 230.175507,368.970856 
	C223.008972,368.948120 215.834579,368.767487 208.678482,369.042389 
	C204.056976,369.219971 202.271271,367.489655 202.775299,362.925812 
	C203.211349,358.977448 202.222412,354.935455 203.750320,350.665527 
z"/>
</svg>