<svg version="1.1" id="Layer_1" xmlns="http://www.w3.org/2000/svg" xmlns:xlink="http://www.w3.org/1999/xlink" x="0px" y="0px"
	 width="100%" viewBox="0 0 512 512" enable-background="new 0 0 512 512" xml:space="preserve">
<path fill="#000000" opacity="1.000000" stroke="none" 
	d="
M278.985352,393.624939 
	C273.490204,404.233185 262.985260,408.449615 249.888931,405.593323 
	C239.205566,403.263245 233.197556,395.849518 232.737778,384.193115 
	C232.600555,380.714111 232.438629,377.152344 232.995605,373.744141 
	C235.376297,359.176147 245.095901,354.117065 258.546600,355.304962 
	C278.467041,357.064209 286.285919,372.118805 278.985352,393.624939 
z"/>
<path fill="#000000" opacity="1.000000" stroke="none" 
	d="
M232.681030,225.095337 
	C232.954819,216.073151 234.915833,208.002106 243.292938,204.059296 
	C252.966080,199.506470 263.232422,199.350037 272.396973,205.313828 
	C284.637726,213.279465 284.573151,239.171707 272.725983,247.801102 
	C260.243164,256.893494 239.728546,252.339661 234.612564,239.285614 
	C232.891159,234.893311 232.445190,230.262314 232.681030,225.095337 
z"/>
</svg>