<svg version="1.1" id="Layer_1" xmlns="http://www.w3.org/2000/svg" xmlns:xlink="http://www.w3.org/1999/xlink" x="0px" y="0px"
	 width="100%" viewBox="0 0 512 512" enable-background="new 0 0 512 512" xml:space="preserve">
<path fill="#000000" opacity="1.000000" stroke="none" 
	d="
M199.040359,266.663818 
	C205.361954,266.665161 211.208313,266.966187 217.007523,266.572601 
	C221.500458,266.267700 222.910904,268.310425 223.098022,272.250946 
	C223.192154,274.233398 223.350540,276.256104 223.838181,278.169281 
	C226.368347,288.096222 233.301224,292.992859 242.995682,294.630341 
	C253.464111,296.398590 263.890289,295.062775 274.308777,294.120758 
	C288.927673,292.798950 303.199005,289.751343 317.097809,285.021973 
	C319.756042,284.117462 321.161346,285.083435 321.957977,287.601257 
	C323.311859,291.880157 324.712128,296.145630 326.175568,300.388184 
	C327.125793,303.142883 326.113983,304.657135 323.556427,305.844208 
	C305.748688,314.109619 287.072479,319.256317 267.575256,321.269104 
	C253.853653,322.685608 240.113068,323.662170 226.331146,321.431763 
	C206.003647,318.142059 193.859024,306.158600 190.784348,285.882019 
	C190.112488,281.451324 189.738281,276.996429 189.533936,272.497864 
	C189.320358,267.795593 191.064575,266.084930 195.550858,266.646484 
	C196.534180,266.769562 197.546082,266.664398 199.040359,266.663818 
z"/>
</svg>