<svg version="1.1" id="Layer_1" xmlns="http://www.w3.org/2000/svg" xmlns:xlink="http://www.w3.org/1999/xlink" x="0px" y="0px"
	 width="100%" viewBox="0 0 512 512" enable-background="new 0 0 512 512" xml:space="preserve">
<path fill="#000000" opacity="1.000000" stroke="none" 
	d="
M404.368225,272.075317 
	C402.508514,284.623657 397.756744,295.592468 390.321198,305.186279 
	C386.506561,310.108154 384.807068,315.134613 383.754669,321.276428 
	C378.844727,349.931274 362.516907,369.840271 335.587799,380.912292 
	C330.201294,383.126984 324.644409,384.847046 318.798645,385.497620 
	C313.439148,386.094086 308.872772,388.108276 304.356964,391.415894 
	C273.724030,413.852783 235.869965,412.823517 206.513107,389.039459 
	C203.601166,386.680298 200.330795,385.804230 196.873917,385.441193 
	C161.970612,381.775238 132.337402,352.437286 129.678619,315.899353 
	C129.478928,313.155212 128.028442,311.264648 126.448364,309.335480 
	C114.843498,295.166840 108.599342,278.777435 108.468475,260.625153 
	C108.346848,243.754074 113.618881,228.144974 123.980560,214.608444 
	C127.392639,210.150925 129.092865,205.614166 130.086304,199.907730 
	C135.478104,168.936798 153.038300,147.814606 183.149277,137.683807 
	C188.988174,135.719315 194.993317,134.344955 201.130081,133.780334 
	C203.518158,133.560623 205.125824,132.245743 206.779922,130.887299 
	C220.929016,119.267197 237.310806,113.257858 255.447174,112.904839 
	C273.604187,112.551430 290.272430,117.898529 304.578583,129.337448 
	C308.397736,132.391159 312.328094,134.055740 317.078949,134.792984 
	C346.122986,139.300171 366.957001,154.689804 378.736359,181.872086 
	C381.675903,188.655502 383.180573,195.857895 383.988739,203.109009 
	C384.410858,206.896790 385.994080,209.639236 388.226501,212.353928 
	C400.138916,226.839935 405.546936,243.589706 405.364471,262.215424 
	C405.333679,265.358124 404.728058,268.495239 404.368225,272.075317 
M300.381775,231.689957 
	C338.776794,229.975174 364.741211,248.109940 380.400818,282.612427 
	C388.422760,271.533936 388.079651,243.430084 375.315735,225.447815 
	C361.402649,205.846497 335.629791,195.732788 312.401794,201.577499 
	C292.925354,206.478226 273.279144,224.372421 271.654236,239.426376 
	C280.780823,235.470840 289.821564,232.339035 300.381775,231.689957 
M255.658966,179.108414 
	C244.060623,196.320389 243.984329,225.198395 252.237228,233.719955 
	C260.624176,212.059570 275.259491,196.352585 296.837708,187.778854 
	C318.321045,179.242844 339.721863,181.020676 360.935883,190.463821 
	C357.068695,172.476776 337.002838,154.215866 316.830322,151.667664 
	C292.468933,148.590302 271.844421,155.222748 255.658966,179.108414 
M164.727234,315.790314 
	C202.054535,331.480408 236.792023,305.177948 242.271149,281.036957 
	C221.129013,290.352692 199.985550,292.028473 178.625992,283.512177 
	C157.238922,274.984863 142.899872,259.334045 134.280258,238.354080 
	C133.347763,238.726181 132.912979,238.759720 132.777145,238.978699 
	C132.256073,239.818741 131.747574,240.685074 131.382843,241.600739 
	C127.634247,251.011368 127.028664,260.950134 128.847473,270.607574 
	C132.768387,291.426758 144.473419,306.660614 164.727234,315.790314 
M251.458603,349.941345 
	C269.439178,330.965912 270.386780,298.599945 262.361572,287.039703 
	C238.671921,332.961365 202.768875,348.544922 152.802719,330.573700 
	C159.787750,349.433716 172.554855,361.857819 191.255508,367.239868 
	C214.306107,373.873749 234.239502,367.360168 251.458603,349.941345 
M186.715057,267.774567 
	C203.074341,274.001221 226.878983,272.715637 232.253418,265.031494 
	C210.134781,257.146088 193.619873,242.879807 184.112854,221.373886 
	C174.494446,199.615967 176.108688,177.767227 185.758392,156.385742 
	C183.795288,155.470825 182.668381,156.413498 181.529144,156.941071 
	C155.426270,169.028595 141.709076,202.485382 151.330032,229.661804 
	C157.574127,247.299561 168.907867,259.976746 186.715057,267.774567 
M356.473236,340.977264 
	C372.402191,314.762451 366.104706,280.523376 341.546661,261.034546 
	C322.925537,246.257187 296.072449,244.428360 281.199371,254.742828 
	C329.758545,276.766296 346.225830,312.780121 328.391266,364.596497 
	C340.728607,359.938446 349.445801,352.062195 356.473236,340.977264 
M201.556473,169.043259 
	C190.256287,200.247238 209.279633,243.974976 235.445969,245.907333 
	C224.688049,224.436447 223.895264,202.644577 233.157532,180.750656 
	C242.406601,158.887955 259.072876,144.774399 281.764069,136.988190 
	C262.063171,123.528976 217.684433,128.093155 201.556473,169.043259 
M261.168640,366.695496 
	C252.787399,374.468262 242.718307,379.428284 231.802200,383.485962 
	C242.531494,392.131165 271.295380,392.677307 288.228149,381.078827 
	C310.187378,366.037445 319.044556,342.425598 315.066040,319.193542 
	C311.412720,297.860321 299.001495,282.691864 278.868866,273.574768 
	C278.618042,274.709991 278.408417,275.075958 278.505463,275.319916 
	C278.932800,276.394104 279.445923,277.434387 279.932709,278.484711 
	C284.993469,289.404419 287.542511,301.055084 286.778625,312.896667 
	C285.433014,333.755646 277.281433,351.840393 261.168640,366.695496 
z"/>
</svg>