<svg version="1.1" id="Layer_1" xmlns="http://www.w3.org/2000/svg" xmlns:xlink="http://www.w3.org/1999/xlink" x="0px" y="0px"
	 width="100%" viewBox="0 0 512 512" enable-background="new 0 0 512 512" xml:space="preserve">
<path fill="#000000" opacity="1.000000" stroke="none" 
	d="
M124.840897,307.139221 
	C114.081543,292.829315 108.199997,276.966278 108.427727,259.504639 
	C108.654549,242.111969 114.218399,226.108582 125.333099,212.437073 
	C128.196136,208.915421 129.228821,205.262894 129.926651,200.788940 
	C134.436676,171.874039 150.233871,151.420883 177.261383,139.888306 
	C184.030914,136.999771 191.174500,135.366547 198.470139,134.518967 
	C202.256454,134.079102 205.282608,132.489990 208.276703,130.124985 
	C220.278503,120.644943 233.725906,114.976257 249.213394,113.502495 
	C271.150696,111.414970 290.262970,117.681427 307.244629,131.112457 
	C311.844818,134.750839 317.298950,134.469421 322.347046,135.411713 
	C355.821350,141.659927 382.039551,170.624146 384.290100,204.636505 
	C384.526276,208.205978 386.759521,210.373077 388.674957,212.791489 
	C395.175995,220.999619 399.824768,230.089020 402.545837,240.212082 
	C408.667786,262.987213 405.295898,284.329071 391.437927,303.285217 
	C386.384979,310.197021 384.170959,317.384918 382.530945,325.365265 
	C376.996918,352.294189 360.782745,370.441254 335.647675,380.846069 
	C329.664978,383.322662 323.460327,385.179626 316.850983,385.510101 
	C313.203827,385.692505 309.954010,387.072296 306.886780,389.498291 
	C276.247925,413.731537 237.271225,413.562927 206.520538,389.192841 
	C204.324997,387.452850 201.972122,386.658173 199.252380,386.278015 
	C170.677597,382.284027 149.286179,367.934753 136.391541,341.863129 
	C132.395752,333.784088 129.849716,325.091614 129.701904,315.953339 
	C129.640213,312.137939 127.116135,309.982941 124.840897,307.139221 
M239.956055,231.543869 
	C226.787415,208.441025 206.713287,197.780273 180.487350,200.566345 
	C158.009399,202.954239 141.902161,215.570709 132.904037,236.230988 
	C126.330711,251.323730 126.080956,266.878326 132.769485,283.125092 
	C156.981064,235.822556 193.289871,221.204056 242.422760,238.748550 
	C242.956635,236.095749 240.908524,234.374252 239.956055,231.543869 
M255.721283,175.777710 
	C239.613831,154.134109 214.727859,146.334885 189.171646,153.615189 
	C171.689499,158.595398 153.703979,177.265640 153.365128,189.416809 
	C202.189102,172.568146 238.536118,186.751114 262.615387,234.454376 
	C269.992157,213.073257 268.088013,194.180008 255.721283,175.777710 
M385.793518,258.590393 
	C385.753906,251.312241 384.225952,244.444092 380.274414,236.509598 
	C371.443726,259.370850 356.902588,274.849213 335.552917,283.384491 
	C314.076416,291.970459 292.759430,290.680573 271.772675,280.968842 
	C271.134491,282.553619 271.581879,283.570618 272.035065,284.657288 
	C283.683563,312.587952 316.381409,327.096497 345.004578,317.404724 
	C367.670654,309.730011 386.502716,287.591309 385.793518,258.590393 
M336.551300,361.062622 
	C347.708191,353.672211 356.089722,344.178314 360.535492,329.978943 
	C338.450684,340.002838 317.220764,341.099426 295.910767,332.260925 
	C274.647644,323.441864 260.471619,307.562653 251.998718,286.002258 
	C242.271439,302.011383 244.833786,332.373962 263.551605,351.397766 
	C281.778748,369.922913 310.807648,376.398254 336.551300,361.062622 
M185.719284,295.346222 
	C195.702927,275.535461 211.832489,262.735321 232.758408,255.274902 
	C222.564087,245.729263 196.240265,246.399185 179.556717,255.893753 
	C157.133621,268.654694 142.859207,297.059296 150.326340,325.685638 
	C154.740021,342.606140 172.708389,362.869812 185.982437,363.919067 
	C175.293167,341.231659 174.831375,318.618591 185.719284,295.346222 
M333.370483,172.360229 
	C342.101593,218.076157 322.044739,247.680298 281.128937,265.596802 
	C290.946472,274.420044 318.420563,273.709930 334.255493,264.260406 
	C358.347595,249.883377 370.039001,222.423706 363.459595,195.668472 
	C359.009399,177.571716 340.469757,156.854004 327.953674,156.067764 
	C329.741241,161.239304 331.520020,166.385452 333.370483,172.360229 
M275.340363,133.139511 
	C260.554901,128.706696 246.131516,128.591736 230.817230,136.772614 
	C254.548203,144.782837 271.226807,158.897781 280.459900,180.879929 
	C289.633118,202.719574 288.717072,224.470688 278.305908,245.517822 
	C279.878265,246.704193 280.805695,245.995087 281.625061,245.592804 
	C306.780518,233.242401 319.795227,207.317688 315.029297,180.239883 
	C311.033936,157.540207 297.668732,141.845734 275.340363,133.139511 
M225.014526,278.519012 
	C201.913742,294.387207 194.585617,317.985870 199.034500,342.528778 
	C203.307877,366.103516 225.582748,390.021515 254.988800,390.151154 
	C264.352386,390.192413 273.422089,389.010834 282.400970,383.533417 
	C259.186188,375.900360 242.583618,361.714722 233.192215,339.763550 
	C223.763718,317.725708 224.999481,295.814240 235.503952,273.838196 
	C231.240891,274.623383 228.494492,276.520172 225.014526,278.519012 
z"/>
</svg>