<svg version="1.1" id="Layer_1" xmlns="http://www.w3.org/2000/svg" xmlns:xlink="http://www.w3.org/1999/xlink" x="0px" y="0px"
	 width="100%" viewBox="0 0 336 592" enable-background="new 0 0 336 592" xml:space="preserve">
<path fill="#000000" opacity="1.000000" stroke="none" 
	d="
M225.295349,276.883118 
	C236.692352,301.057495 232.601730,327.340363 214.823868,343.987671 
	C204.808411,353.366211 192.423798,357.629486 179.061798,358.965698 
	C165.988754,360.273102 153.020065,359.067657 140.782120,354.047333 
	C119.174698,345.183411 108.267761,326.671112 110.845108,303.016846 
	C113.119621,282.141846 122.531578,265.271301 140.891464,254.296478 
	C167.777390,238.225067 209.238113,243.202713 225.295349,276.883118 
M187.018005,271.410156 
	C167.089188,264.429504 146.059738,274.372223 137.737366,291.050873 
	C130.252701,306.050720 132.841751,327.682556 155.035614,332.927429 
	C167.076355,335.772888 179.117401,335.907776 190.821045,331.367889 
	C199.585281,327.968170 205.342163,321.680725 207.711792,312.420898 
	C211.912094,296.007355 203.766174,279.315857 187.018005,271.410156 
z"/>
</svg>