<svg version="1.1" id="Layer_1" xmlns="http://www.w3.org/2000/svg" xmlns:xlink="http://www.w3.org/1999/xlink" x="0px" y="0px"
	 width="100%" viewBox="0 0 336 592" enable-background="new 0 0 336 592" xml:space="preserve">
<path fill="#000000" opacity="1.000000" stroke="none" 
	d="
M164.934433,274.352905 
	C143.615662,274.356018 122.783943,274.239197 101.955650,274.454376 
	C97.289597,274.502594 96.239014,272.788300 95.828186,268.401489 
	C94.959229,259.122772 97.977234,252.379898 104.543427,245.479034 
	C118.881844,230.409729 132.088364,214.253372 145.530579,198.349487 
	C148.379227,194.979141 150.596848,194.235931 154.128876,197.110794 
	C156.826797,199.306747 159.863754,201.128372 162.896759,202.859192 
	C166.260971,204.779007 166.937057,206.629684 164.129486,209.812820 
	C153.115128,222.300598 143.033447,235.615753 130.897705,247.108109 
	C130.101120,247.862457 128.915588,248.441071 129.121948,249.964981 
	C130.520157,251.198761 132.265335,250.620453 133.843124,250.622925 
	C159.672852,250.663223 185.503403,250.756134 211.332001,250.580399 
	C218.969223,250.528427 226.650192,250.021255 234.136520,248.273911 
	C247.204575,245.223709 252.514435,238.446640 252.637131,224.837997 
	C252.695770,218.333679 251.996719,211.868591 250.958878,205.466949 
	C250.318527,201.517227 251.083557,199.186646 255.469849,198.345932 
	C260.028229,197.472244 264.470673,195.972153 268.940247,194.665344 
	C271.431824,193.936874 273.050629,194.161789 273.511353,197.254547 
	C275.902954,213.310333 277.421967,229.382034 272.076630,245.129471 
	C266.863007,260.488922 254.563614,267.540802 239.802734,271.249817 
	C228.077606,274.196045 216.091476,274.692810 204.080811,274.294708 
	C199.800385,274.152832 198.163467,275.459259 198.270508,279.948730 
	C198.540558,291.274109 198.356491,302.610168 198.369400,313.941925 
	C198.377304,320.895874 198.389709,320.898102 205.169434,320.900116 
	C231.499161,320.907990 257.828888,320.907837 284.158600,320.925476 
	C291.305359,320.930237 291.312103,320.954010 291.333099,328.145874 
	C291.344788,332.145264 291.157959,336.154114 291.375916,340.141449 
	C291.581177,343.896759 290.446259,345.935394 286.342804,345.359222 
	C285.689301,345.267487 285.011475,345.350159 284.344910,345.350159 
	C208.855255,345.349182 133.365601,345.349030 57.875942,345.345276 
	C50.800888,345.344910 50.795105,345.334259 50.777122,338.139130 
	C50.767544,334.306366 50.998508,330.458252 50.729313,326.644714 
	C50.412598,322.158020 52.466145,320.662079 56.634476,320.900421 
	C59.457722,321.061829 62.298473,320.910370 65.131393,320.910522 
	C99.460030,320.912445 133.788666,320.919891 168.117294,320.917114 
	C174.682587,320.916565 174.692184,320.898926 174.701004,314.244781 
	C174.715561,303.246307 174.720337,292.247803 174.721481,281.249329 
	C174.722214,274.375122 174.715851,274.374847 167.921463,274.352875 
	C167.088562,274.350189 166.255646,274.352722 164.934433,274.352905 
z"/>
</svg>