<svg version="1.1" id="Layer_1" xmlns="http://www.w3.org/2000/svg" xmlns:xlink="http://www.w3.org/1999/xlink" x="0px" y="0px"
	 width="100%" viewBox="0 0 336 592" enable-background="new 0 0 336 592" xml:space="preserve">
<path fill="#000000" opacity="1.000000" stroke="none" 
	d="
M166.877182,284.074219 
	C153.577148,265.611908 141.930801,246.627441 134.572830,225.327286 
	C127.161087,203.871445 124.962357,182.388901 133.439774,160.489685 
	C145.202576,130.103577 181.505478,119.661491 205.426453,140.125107 
	C220.593491,153.100052 226.451157,178.986908 217.944717,196.863373 
	C211.509705,210.386688 199.345947,215.645782 185.557861,218.294647 
	C178.295425,219.689835 170.965576,219.281509 163.647263,219.342163 
	C161.868042,219.356903 160.005463,218.815277 158.204788,219.893188 
	C157.966629,222.690979 159.377167,225.017532 160.519363,227.360291 
	C172.645386,252.232132 189.017227,274.273529 206.353333,295.642700 
	C212.749649,303.527039 219.512527,311.114746 226.145538,318.805573 
	C227.487076,320.361053 228.546448,321.909729 228.477463,324.115173 
	C228.316406,329.264526 228.743484,334.406097 228.654724,339.572449 
	C228.575592,344.178040 227.261505,345.467682 222.694809,345.444611 
	C188.383835,345.271301 154.071121,345.261963 119.760315,345.450104 
	C114.942238,345.476501 113.161530,344.071960 113.568657,339.247620 
	C113.917595,335.113007 113.932961,330.899689 113.565575,326.768311 
	C113.137283,321.951965 115.292435,320.830048 119.655235,320.856567 
	C142.473419,320.995392 165.292923,320.930695 188.111923,320.903748 
	C190.043869,320.901459 192.062820,321.250366 194.536774,319.986206 
	C185.247131,307.933441 176.164917,296.149780 166.877182,284.074219 
M177.545807,196.981964 
	C194.128799,194.550247 201.339828,184.857224 197.487198,169.830475 
	C195.407837,161.720123 190.596741,155.693329 182.224670,153.581314 
	C173.625275,151.411957 165.951859,153.540558 160.282639,160.605743 
	C152.675369,170.086212 150.833588,181.166702 152.105148,192.971420 
	C152.353287,195.275101 153.432343,196.407639 155.848862,196.789581 
	C162.795853,197.887650 169.729294,198.053391 177.545807,196.981964 
z"/>
</svg>