<svg version="1.1" id="Layer_1" xmlns="http://www.w3.org/2000/svg" xmlns:xlink="http://www.w3.org/1999/xlink" x="0px" y="0px"
	 width="100%" viewBox="0 0 336 592" enable-background="new 0 0 336 592" xml:space="preserve">
<path fill="#000000" opacity="1.000000" stroke="none" 
	d="
M162.644928,250.547455 
	C181.239395,250.616959 199.402802,250.546921 217.563843,250.722748 
	C221.546204,250.761276 222.754471,249.323792 222.713058,245.468414 
	C222.555634,230.806595 222.779053,216.140366 222.580536,201.479568 
	C222.521515,197.120728 223.958588,195.427307 228.353470,195.744934 
	C232.498138,196.044449 236.689392,195.996490 240.843658,195.781921 
	C244.921616,195.571335 246.398453,197.113297 246.369675,201.277435 
	C246.218842,223.105042 246.300751,244.934250 246.303177,266.762909 
	C246.305847,290.924377 246.195541,315.086884 246.410217,339.246490 
	C246.453110,344.074249 244.948593,345.459595 240.158661,345.444611 
	C190.669754,345.289978 141.180069,345.305267 91.690971,345.425537 
	C87.298424,345.436188 85.219643,344.394684 85.587608,339.598907 
	C85.943527,334.960327 85.813118,330.267670 85.625473,325.609680 
	C85.484657,322.114288 86.974380,320.843018 90.335464,320.895142 
	C96.998985,320.998444 103.665390,320.909851 110.330605,320.910370 
	C145.656357,320.913208 180.982697,320.821472 216.307220,321.032806 
	C221.399796,321.063263 222.916534,319.579468 222.761719,314.523804 
	C222.409958,303.037048 222.483246,291.528412 222.737686,280.036499 
	C222.834122,275.682068 221.474747,274.246246 217.062683,274.277496 
	C192.569168,274.451172 168.073792,274.367157 143.579041,274.357697 
	C136.695969,274.355042 136.676773,274.333893 136.674164,267.493317 
	C136.665833,245.664658 136.787994,223.834946 136.585052,202.008179 
	C136.540222,197.186935 138.127777,195.363876 142.917053,195.732727 
	C146.892944,196.038940 150.920425,195.981201 154.906982,195.759460 
	C159.113586,195.525482 160.374237,197.365005 160.329117,201.390747 
	C160.166626,215.885788 160.228531,230.384018 160.312744,244.880402 
	C160.324265,246.862030 159.375885,249.382553 162.644928,250.547455 
z"/>
</svg>