<svg version="1.1" id="Layer_1" xmlns="http://www.w3.org/2000/svg" xmlns:xlink="http://www.w3.org/1999/xlink" x="0px" y="0px"
	 width="100%" viewBox="0 0 336 592" enable-background="new 0 0 336 592" xml:space="preserve">
<path fill="#000000" opacity="1.000000" stroke="none" 
	d="
M210.991074,284.708435 
	C222.355438,283.788177 222.367310,283.788208 222.337418,294.909668 
	C222.329376,297.900299 222.216965,300.858215 221.710510,303.851624 
	C220.539734,310.771332 227.354431,318.909698 235.360535,320.548187 
	C247.599258,323.052979 258.522430,316.819031 262.651367,304.982697 
	C264.947906,298.399384 265.144226,291.577423 264.679718,284.746796 
	C264.418549,280.906067 265.518555,278.893494 269.617523,278.371643 
	C273.721527,277.849213 277.725861,276.579742 281.798370,275.759338 
	C284.160431,275.283539 285.942627,275.604370 286.357239,278.710876 
	C288.231720,292.755432 288.329956,306.604736 282.379303,319.860809 
	C275.224426,335.799469 262.773346,344.175140 245.431152,345.284576 
	C239.773148,345.646484 234.101669,345.461884 228.608978,343.756622 
	C220.668076,341.291229 214.377014,336.634430 209.788925,328.764587 
	C200.662613,339.709534 189.498413,345.486786 175.413223,345.407257 
	C161.383514,345.328003 149.607376,340.980499 141.111740,328.645142 
	C136.523926,332.294891 132.420761,336.176788 127.231400,338.504333 
	C117.517830,342.861084 107.323555,345.100372 96.743340,345.265656 
	C82.916870,345.481628 69.081924,345.183533 55.256798,345.439850 
	C50.800411,345.522491 49.296345,343.996918 49.599125,339.672546 
	C49.889362,335.527313 49.921417,331.325195 49.593140,327.185669 
	C49.217854,322.453369 50.855507,320.719360 55.747749,320.813019 
	C69.072243,321.068115 82.405403,320.872314 95.735130,320.851929 
	C104.154167,320.839050 112.340179,319.867004 119.720032,315.302246 
	C128.367249,309.953613 131.280548,301.372101 132.403671,292.057404 
	C132.841675,288.424866 134.447556,287.153229 137.626328,286.842072 
	C141.929733,286.420837 146.255463,286.141541 150.525696,285.497101 
	C153.484436,285.050598 154.559708,286.299316 154.548584,288.951752 
	C154.533966,292.438904 154.810043,295.986969 154.276154,299.401794 
	C152.074982,313.480316 165.473557,324.642792 182.119812,319.809052 
	C192.534729,316.784760 198.657150,308.027771 199.646255,295.573395 
	C199.698990,294.909576 199.779800,294.233337 199.712097,293.576904 
	C199.147217,288.100616 201.108963,284.960236 207.104141,285.290344 
	C208.237289,285.352722 209.397049,284.931366 210.991074,284.708435 
z"/>
</svg>