<svg version="1.1" id="Layer_1" xmlns="http://www.w3.org/2000/svg" xmlns:xlink="http://www.w3.org/1999/xlink" x="0px" y="0px"
	 width="100%" viewBox="0 0 336 592" enable-background="new 0 0 336 592" xml:space="preserve">
<path fill="#000000" opacity="1.000000" stroke="none" 
	d="
M179.468781,278.456207 
	C176.509506,272.067932 173.782669,265.992432 170.794891,260.048096 
	C169.516449,257.504547 169.695511,255.809906 172.124359,254.151230 
	C176.661011,251.053116 181.112976,247.824219 185.501617,244.518860 
	C187.771088,242.809601 189.297867,243.138077 190.735382,245.533386 
	C200.718155,262.167267 206.878281,280.094727 209.372955,299.338104 
	C210.238358,306.013672 210.199768,312.674469 208.896759,319.179718 
	C206.065720,333.313751 197.118088,341.427856 181.196640,343.961365 
	C163.011444,346.855072 144.635406,344.879089 126.349319,345.320068 
	C124.016159,345.376312 123.012421,344.086304 123.001442,341.923950 
	C122.972679,336.262238 122.973534,330.600067 123.009895,324.938385 
	C123.034256,321.145630 125.670197,320.906677 128.543091,320.911896 
	C139.868484,320.932434 151.194031,320.930359 162.519379,320.894897 
	C166.182297,320.883453 169.855652,320.895081 173.505417,320.633514 
	C183.021347,319.951599 187.655258,313.796417 186.309311,304.325195 
	C185.061371,295.543701 182.713425,287.091339 179.468781,278.456207 
z"/>
</svg>