<svg version="1.1" id="Layer_1" xmlns="http://www.w3.org/2000/svg" xmlns:xlink="http://www.w3.org/1999/xlink" x="0px" y="0px"
	 width="100%" viewBox="0 0 336 592" enable-background="new 0 0 336 592" xml:space="preserve">
<path fill="#000000" opacity="1.000000" stroke="none" 
	d="
M267.558258,319.200623 
	C265.662292,331.857788 257.142578,337.651367 246.492279,341.236969 
	C238.711670,343.856354 230.595245,344.953064 222.437256,345.201141 
	C205.461075,345.717346 188.476471,345.979828 171.493851,346.255524 
	C149.848129,346.606903 128.200562,346.844299 106.554688,347.187225 
	C101.867554,347.261475 97.188026,346.940918 92.659622,345.949982 
	C75.133453,342.114960 66.424011,325.090393 72.545998,307.598602 
	C76.568413,296.105682 83.973778,287.342163 93.711334,280.515411 
	C116.947746,264.224976 143.084427,254.521027 170.382553,247.710892 
	C184.435867,244.204971 198.585556,241.542603 213.284332,243.487473 
	C236.085159,246.504410 251.978592,258.640778 261.250824,279.360992 
	C266.830566,291.829803 268.798401,305.107697 267.558258,319.200623 
M149.507523,321.945709 
	C161.159561,321.854218 172.813309,321.595062 184.463211,321.713745 
	C198.950882,321.861298 213.414642,321.257080 227.875519,320.648041 
	C238.935532,320.182251 244.071396,314.845947 242.593475,304.537811 
	C238.935074,279.021210 221.981995,263.608032 197.041061,266.791992 
	C165.409058,270.830200 135.928772,282.301086 108.302536,298.301666 
	C104.099159,300.736206 100.318428,303.788177 97.339211,307.645813 
	C92.738533,313.602875 94.979057,319.950836 102.169250,321.874695 
	C104.449921,322.484894 106.740570,322.695282 109.083160,322.652222 
	C122.225960,322.410675 135.369034,322.184204 149.507523,321.945709 
z"/>
</svg>