<svg version="1.1" id="Layer_1" xmlns="http://www.w3.org/2000/svg" xmlns:xlink="http://www.w3.org/1999/xlink" x="0px" y="0px"
	 width="100%" viewBox="0 0 336 592" enable-background="new 0 0 336 592" xml:space="preserve">
<path fill="#000000" opacity="1.000000" stroke="none" 
	d="
M219.999908,345.349304 
	C175.500031,345.349091 131.500168,345.351013 87.500298,345.345612 
	C80.667435,345.344788 80.664719,345.329315 80.654648,338.517365 
	C80.649223,334.850708 80.642380,331.184021 80.658424,327.517426 
	C80.686996,320.986816 80.693901,320.948822 87.465767,320.919281 
	C96.465569,320.880005 105.469444,320.755127 114.463806,320.978943 
	C118.198456,321.071899 120.153343,319.783936 121.523796,316.265564 
	C140.502319,267.542175 159.596771,218.863953 178.673920,170.179001 
	C182.953400,159.257721 188.007263,148.758240 196.455521,140.352097 
	C208.511520,128.356247 222.924805,124.070419 239.486694,128.171997 
	C254.713486,131.942947 264.519562,145.696136 265.368500,162.816757 
	C266.343506,182.480026 260.324097,200.667252 253.896652,218.684113 
	C242.372345,250.987976 230.288544,283.092133 218.476105,315.293549 
	C217.920105,316.809235 216.864975,318.261963 217.572708,320.917236 
	C223.912537,320.917236 230.490372,320.916443 237.068207,320.917389 
	C250.354691,320.919342 250.354691,320.919739 250.358688,334.000244 
	C250.362167,345.355530 250.362167,345.354187 238.999481,345.348969 
	C232.832962,345.346161 226.666428,345.348816 219.999908,345.349304 
M195.875900,192.270676 
	C179.263763,234.785294 162.651627,277.299927 146.123367,319.599915 
	C148.554565,321.232788 150.266342,320.901489 151.900528,320.905548 
	C162.560226,320.932037 173.223602,320.757111 183.877960,320.996124 
	C187.970245,321.087921 190.134628,319.842224 191.596924,315.832184 
	C196.955231,301.138153 202.797028,286.621368 208.268295,271.967438 
	C218.392044,244.852509 230.021820,218.285828 238.125626,190.434311 
	C240.500336,182.272812 242.379501,174.025299 241.732925,165.394424 
	C240.756271,152.358017 228.503662,146.237457 217.488556,153.292938 
	C213.717224,155.708603 211.180740,159.157959 208.842743,162.824951 
	C203.150162,171.753418 200.135147,181.865402 195.875900,192.270676 
z"/>
</svg>