<svg version="1.1" id="Layer_1" xmlns="http://www.w3.org/2000/svg" xmlns:xlink="http://www.w3.org/1999/xlink" x="0px" y="0px"
	 width="100%" viewBox="0 0 336 592" enable-background="new 0 0 336 592" xml:space="preserve">
<path fill="#000000" opacity="1.000000" stroke="none" 
	d="
M179.158005,273.141235 
	C166.358063,287.774658 153.825302,302.164124 145.486450,319.509003 
	C147.811829,321.530609 149.897751,320.881592 151.801727,320.885681 
	C173.300247,320.931854 194.798935,320.906616 216.297562,320.911133 
	C223.903336,320.912720 223.912247,320.925903 223.937119,328.774902 
	C223.950333,332.941101 223.906418,337.107483 223.926071,341.273621 
	C223.939621,344.144958 222.721649,345.406830 219.691574,345.397095 
	C192.693649,345.310486 165.693329,345.517822 138.698181,345.224945 
	C126.046677,345.087677 119.355240,334.676025 122.049408,320.617279 
	C124.496208,307.849335 130.916885,296.926514 138.348846,286.653320 
	C149.216980,271.630310 161.700226,258.006653 175.735077,245.812302 
	C179.437042,242.595764 182.296219,241.966980 185.690201,246.077301 
	C187.903946,248.758255 190.596832,251.067734 193.220016,253.379166 
	C195.540359,255.423706 195.361511,256.927399 193.117661,259.039856 
	C188.389893,263.490784 183.941513,268.238495 179.158005,273.141235 
z"/>
</svg>