<svg version="1.1" id="Layer_1" xmlns="http://www.w3.org/2000/svg" xmlns:xlink="http://www.w3.org/1999/xlink" x="0px" y="0px"
	 width="100%" viewBox="0 0 336 592" enable-background="new 0 0 336 592" xml:space="preserve">
<path fill="#000000" opacity="1.000000" stroke="none" 
	d="
M187.790314,241.999969 
	C187.780777,208.526657 187.766464,175.553345 187.766052,142.580032 
	C187.765961,135.702377 187.789658,135.691971 194.746094,135.680344 
	C199.075684,135.673111 203.405655,135.740143 207.734833,135.702194 
	C210.242264,135.680222 211.424789,136.805176 211.322708,139.325333 
	C211.275589,140.488495 211.347015,141.656052 211.347046,142.821609 
	C211.348114,207.935577 211.349533,273.049561 211.343582,338.163513 
	C211.342926,345.355865 211.322952,345.364380 204.370071,345.364594 
	C176.892319,345.365417 149.413925,345.264404 121.937416,345.448853 
	C117.166069,345.480835 115.285805,344.047546 115.673187,339.207672 
	C116.004288,335.070892 115.955162,330.872498 115.682297,326.727142 
	C115.392998,322.332001 117.236946,320.854248 121.489220,320.881622 
	C139.806900,320.999542 158.126099,320.977814 176.444229,320.895844 
	C189.716034,320.836426 187.657547,322.459686 187.730194,309.445129 
	C187.854767,287.130676 187.780991,264.815094 187.790314,241.999969 
z"/>
</svg>