<svg version="1.1" id="Layer_1" xmlns="http://www.w3.org/2000/svg" xmlns:xlink="http://www.w3.org/1999/xlink" x="0px" y="0px"
	 width="100%" viewBox="0 0 336 592" enable-background="new 0 0 336 592" xml:space="preserve">
<path fill="#000000" opacity="1.000000" stroke="none" 
	d="
M120.088638,227.056900 
	C132.401001,217.090668 144.504013,207.429932 156.437286,197.563889 
	C158.878555,195.545502 160.474289,195.289246 162.655930,197.725037 
	C166.192139,201.673233 170.507095,204.898666 174.010788,209.698792 
	C157.239655,224.520981 140.374832,238.955032 120.057106,249.978043 
	C122.292282,251.342407 124.068642,250.992599 125.721649,250.993546 
	C172.214874,251.020111 218.708115,251.025131 265.201355,251.025558 
	C271.764374,251.025620 271.777710,251.006332 271.786774,244.287231 
	C271.805695,230.289276 271.940002,216.289413 271.741150,202.294403 
	C271.679230,197.937576 273.100342,196.281815 277.500793,196.593353 
	C281.977936,196.910355 286.498260,196.783081 290.992615,196.635422 
	C294.247498,196.528488 295.590118,197.915146 295.324615,201.084641 
	C295.255341,201.911682 295.325409,202.750092 295.325470,203.583282 
	C295.328644,264.241211 295.332184,324.899139 295.332550,385.557068 
	C295.332611,393.301086 295.324799,393.307404 287.789337,393.315704 
	C283.789978,393.320129 279.790009,393.251312 275.791504,393.304718 
	C273.048615,393.341309 271.830231,392.005066 271.834137,389.356995 
	C271.836334,387.857361 271.810028,386.357727 271.809906,384.858093 
	C271.807404,350.196442 271.808136,315.534821 271.804474,280.873169 
	C271.803802,274.363403 271.796295,274.360504 265.111603,274.362366 
	C249.947128,274.366608 234.782639,274.374023 219.618164,274.379913 
	C217.818619,274.380615 216.019089,274.380035 213.413788,274.380035 
	C216.524673,281.395966 219.244156,287.700562 219.732224,294.739319 
	C221.371414,318.379303 210.222610,339.145386 184.241058,344.231262 
	C180.313293,345.000122 176.355698,345.370575 172.332138,345.366852 
	C129.171738,345.327087 86.011032,345.282288 42.851196,345.445953 
	C38.152447,345.463776 36.166695,344.293884 36.579285,339.342316 
	C36.965473,334.707672 36.729488,330.016724 36.675720,325.351624 
	C36.646904,322.851562 37.704941,321.636719 40.244499,321.715881 
	C41.742233,321.762604 43.243347,321.689453 44.742943,321.689484 
	C85.903679,321.690033 127.064423,321.696106 168.225159,321.690063 
	C171.551636,321.689575 174.846802,321.652069 178.150345,320.872589 
	C191.044815,317.830048 197.085907,309.937531 196.668198,296.382019 
	C196.301804,284.491669 189.507004,277.021332 177.021805,274.970551 
	C174.408325,274.541260 171.721741,274.398315 169.068466,274.394623 
	C141.905762,274.356842 114.742989,274.381104 87.580238,274.373474 
	C80.825363,274.371582 81.222755,274.314545 80.687859,267.849518 
	C80.103584,260.787720 81.816505,255.973450 88.401466,251.933334 
	C99.748695,244.971420 109.335564,235.505676 120.088638,227.056900 
z"/>
</svg>