<svg version="1.1" id="Layer_1" xmlns="http://www.w3.org/2000/svg" xmlns:xlink="http://www.w3.org/1999/xlink" x="0px" y="0px"
	 width="100%" viewBox="0 0 336 592" enable-background="new 0 0 336 592" xml:space="preserve">
<path fill="#000000" opacity="1.000000" stroke="none" 
	d="
M138.909973,334.309509 
	C146.495132,364.281311 157.006027,392.786407 168.860443,420.703278 
	C171.081528,420.688568 171.330505,419.126526 171.904007,418.073395 
	C190.040115,384.769226 205.386765,350.345123 214.159805,313.254486 
	C216.804596,302.072906 216.137680,290.813416 215.712173,279.518311 
	C215.455597,272.707306 215.583847,272.690979 222.300064,271.794464 
	C225.593903,271.354797 228.981689,271.302185 232.171295,270.474548 
	C236.668762,269.307556 237.871796,270.982361 238.454727,275.285187 
	C241.476562,297.590637 237.693207,319.096680 230.988144,340.192566 
	C218.603851,379.156860 201.261307,415.755341 177.750824,449.313629 
	C174.800766,453.524414 162.816681,455.915466 158.307785,453.328522 
	C156.718048,452.416382 156.263123,450.757324 155.567139,449.273071 
	C133.707840,402.655853 117.450668,354.189575 107.628967,303.613953 
	C105.982529,295.135803 104.772346,286.571655 103.056473,278.108887 
	C102.363869,274.692963 103.840233,273.568512 106.694778,273.050537 
	C111.110428,272.249298 115.610390,271.737701 119.910103,270.521698 
	C124.234016,269.298889 125.506226,271.259979 126.197464,274.938599 
	C127.977356,284.410675 129.800766,293.877625 131.819855,303.300934 
	C134.012619,313.534668 136.445908,323.716919 138.909973,334.309509 
z"/>
</svg>