<svg version="1.1" id="Layer_1" xmlns="http://www.w3.org/2000/svg" xmlns:xlink="http://www.w3.org/1999/xlink" x="0px" y="0px"
	 width="100%" viewBox="0 0 336 592" enable-background="new 0 0 336 592" xml:space="preserve">
<path fill="#000000" opacity="1.000000" stroke="none" 
	d="
M85.967987,320.910950 
	C103.805519,318.950287 112.807693,310.122223 114.540344,292.769409 
	C114.885910,289.308533 115.820869,287.679657 119.498947,287.536163 
	C123.468765,287.381226 127.439194,286.742004 131.362762,286.049835 
	C134.906677,285.424622 136.420273,286.792419 136.292343,290.250977 
	C136.181671,293.243011 136.246323,296.262054 135.856079,299.219360 
	C134.715271,307.865021 142.969757,317.863403 151.684860,318.226227 
	C153.919617,318.319244 154.344666,316.487518 155.021866,315.065399 
	C159.752502,305.131317 165.418213,295.742584 171.810455,286.815857 
	C184.910233,268.522156 200.625381,253.297485 223.448288,248.433426 
	C245.513672,243.730820 266.679230,246.052948 282.998596,263.507507 
	C298.532318,280.121796 303.009125,300.314117 297.517120,322.341248 
	C294.672638,333.749786 285.595825,339.141113 275.094025,342.259552 
	C268.225555,344.299103 261.118713,345.304169 253.919937,345.307587 
	C225.602585,345.321075 197.283737,345.484070 168.968445,345.241821 
	C153.145462,345.106445 138.271469,341.530884 126.115013,330.473389 
	C124.313934,328.835144 122.873489,327.931396 120.686272,330.126678 
	C109.483154,341.371063 95.047310,344.469879 80.044167,345.177734 
	C67.245789,345.781647 54.395824,345.213806 41.572800,345.420166 
	C37.519924,345.485413 35.767338,344.214752 35.992195,340.023895 
	C36.232826,335.539093 36.139858,331.029968 36.035595,326.535095 
	C35.952156,322.938019 37.435844,321.582947 41.114429,321.626648 
	C53.938534,321.779053 66.765953,321.693207 79.591705,321.623016 
	C81.574028,321.612183 83.554199,321.209015 85.967987,320.910950 
M264.924438,320.581726 
	C270.812317,319.126007 275.818054,316.248657 276.471100,309.739655 
	C277.464874,299.833984 275.241913,290.469238 268.994263,282.490723 
	C259.837128,270.796631 242.472305,266.628448 226.684296,272.036224 
	C205.317841,279.354706 192.121811,295.485809 181.331573,314.161682 
	C180.150421,316.205994 178.604599,318.280823 178.656006,320.707794 
	C180.253418,322.012360 181.812073,321.666046 183.265762,321.667542 
	C207.748718,321.693024 232.231766,321.715179 256.714539,321.644073 
	C259.179596,321.636932 261.642853,321.023438 264.924438,320.581726 
z"/>
</svg>