<svg version="1.1" id="Layer_1" xmlns="http://www.w3.org/2000/svg" xmlns:xlink="http://www.w3.org/1999/xlink" x="0px" y="0px"
	 width="100%" viewBox="0 0 336 592" enable-background="new 0 0 336 592" xml:space="preserve">
<path fill="#000000" opacity="1.000000" stroke="none" 
	d="
M205.999878,274.358826 
	C172.849228,274.361847 140.198578,274.368378 107.547935,274.364197 
	C100.849487,274.363312 101.434402,274.275787 100.668610,267.783569 
	C99.696312,259.540741 102.990654,255.323776 110.018570,250.979904 
	C132.830246,236.880264 153.832947,220.095840 175.710114,204.595200 
	C179.650864,201.803040 183.610260,199.034805 187.488327,196.157486 
	C189.654861,194.550003 191.322540,194.813416 193.072418,196.829727 
	C195.909927,200.099304 198.788910,203.350266 201.871185,206.384811 
	C204.549103,209.021301 204.473206,210.801392 201.282028,213.042160 
	C183.579773,225.472153 166.760574,239.210709 147.388550,249.150040 
	C147.108398,249.293762 146.889313,249.556442 146.319687,250.033081 
	C148.308472,251.002167 150.247559,250.628723 152.080536,250.631775 
	C177.901077,250.674713 203.722504,250.564789 229.541870,250.749527 
	C239.845856,250.823242 249.710953,253.178894 258.461792,258.917389 
	C269.651703,266.255341 274.457245,277.323395 275.780609,290.108734 
	C277.394684,305.702637 275.457367,320.410980 263.739197,332.244629 
	C254.766846,341.305359 243.392303,345.104828 231.138596,345.168793 
	C174.667862,345.463745 118.194832,345.307739 61.722786,345.402130 
	C58.102772,345.408173 56.578072,344.249695 56.732075,340.516083 
	C56.937847,335.527313 56.866108,330.520599 56.729057,325.526642 
	C56.642509,322.372894 57.908211,320.858398 61.094254,320.925537 
	C63.425102,320.974670 65.758232,320.906128 68.090347,320.906036 
	C119.731682,320.903931 171.373016,320.907166 223.014343,320.898987 
	C228.338623,320.898163 233.680649,320.988373 238.765976,318.981537 
	C248.727600,315.050385 253.851807,305.966370 252.598877,294.445343 
	C251.492722,284.273865 244.810654,277.245850 234.419617,275.313507 
	C225.160431,273.591614 215.807144,274.655212 205.999878,274.358826 
z"/>
</svg>