<svg version="1.1" id="Layer_1" xmlns="http://www.w3.org/2000/svg" xmlns:xlink="http://www.w3.org/1999/xlink" x="0px" y="0px"
	 width="100%" viewBox="0 0 336 592" enable-background="new 0 0 336 592" xml:space="preserve">
<path fill="#000000" opacity="1.000000" stroke="none" 
	d="
M38.727871,284.020996 
	C37.787731,274.338837 37.787731,274.338837 46.955376,272.604462 
	C59.098530,270.307220 59.226082,270.283081 61.495056,282.270844 
	C68.217560,317.788086 77.265099,352.683228 89.330315,386.768127 
	C93.267365,397.890594 97.518288,408.902435 101.686256,419.941986 
	C102.188911,421.273376 103.071922,422.461121 104.003738,424.114960 
	C111.186562,413.633942 116.308105,402.614899 121.340790,391.623718 
	C131.319016,369.831726 139.993500,347.513336 145.169647,324.024261 
	C147.492035,313.485413 149.587997,302.852081 148.174423,291.924438 
	C147.743713,288.594788 148.788391,286.629547 152.602707,286.340179 
	C156.733139,286.026855 160.857788,285.299377 164.910843,284.413483 
	C168.000397,283.738129 169.007156,284.916534 169.607819,287.768494 
	C170.681183,292.864960 170.498611,298.031219 170.902313,303.157410 
	C171.599655,312.012207 176.691437,318.974365 185.314651,320.698242 
	C203.176987,324.269073 214.221375,315.165802 216.610962,297.487579 
	C218.033173,286.966064 217.944656,286.954102 228.518784,285.339722 
	C239.449509,283.670898 239.465546,283.671234 239.238129,294.425568 
	C239.196106,296.413391 239.284286,298.483887 238.771408,300.369049 
	C235.135239,313.734833 246.623367,321.338531 256.180786,321.663025 
	C270.901367,322.162842 280.470581,313.467194 281.801086,298.836090 
	C282.226746,294.155579 282.014862,289.553741 281.687683,284.923126 
	C281.470428,281.848358 282.212494,280.027527 285.785767,279.456604 
	C291.014404,278.621124 296.132172,277.091858 301.128601,275.898560 
	C304.011078,278.434204 303.406311,281.731415 303.745880,284.553375 
	C305.760132,301.293030 303.558380,317.101532 292.630890,330.774261 
	C279.307739,347.444550 249.556412,350.562408 233.613037,336.805359 
	C231.019501,334.567505 229.011658,331.650848 226.656464,328.960388 
	C208.385391,347.901062 188.454803,351.665833 165.878876,335.698364 
	C163.994400,341.346191 162.144180,346.974792 160.239777,352.585052 
	C149.231003,385.016235 135.332535,416.046448 115.717171,444.300262 
	C115.054916,445.254181 114.407143,446.220551 113.699318,447.140106 
	C108.717278,453.612122 102.021439,455.824951 94.218849,453.762360 
	C91.721260,453.102142 90.966064,451.053619 90.026909,449.154694 
	C77.239677,423.299652 66.953697,396.459045 58.456684,368.913361 
	C49.915176,341.223450 43.275558,313.092041 38.727871,284.020996 
z"/>
</svg>