<svg version="1.1" id="Layer_1" xmlns="http://www.w3.org/2000/svg" xmlns:xlink="http://www.w3.org/1999/xlink" x="0px" y="0px"
	 width="100%" viewBox="0 0 336 592" enable-background="new 0 0 336 592" xml:space="preserve">
<path fill="#000000" opacity="1.000000" stroke="none" 
	d="
M252.700943,229.999420 
	C252.701569,220.669022 252.820618,211.836166 252.648148,203.008987 
	C252.574234,199.225861 253.770401,197.459335 257.783722,197.672287 
	C262.103485,197.901489 266.454010,197.896591 270.774261,197.671021 
	C274.837097,197.458862 276.441559,198.969620 276.367310,203.139008 
	C276.174561,213.965515 276.298889,224.797699 276.298401,235.627609 
	C276.296936,269.783569 276.300201,303.939514 276.292145,338.095459 
	C276.290436,345.327423 276.271851,345.345795 269.289764,345.346222 
	C200.311401,345.350464 131.333054,345.349823 62.354694,345.344940 
	C55.703472,345.344482 55.693043,345.326935 55.662621,338.763275 
	C55.644089,334.764648 55.953140,330.739471 55.591988,326.773834 
	C55.152328,321.946106 57.337959,320.792938 61.698997,320.859741 
	C73.692329,321.043457 85.690498,320.933502 97.686668,320.903564 
	C115.013573,320.860321 132.347092,321.063538 149.665405,320.646729 
	C167.611725,320.214752 177.438171,305.661469 171.607391,288.738586 
	C168.809708,280.618713 162.575287,276.523193 154.462921,275.321075 
	C140.549606,273.259369 126.518730,274.692505 112.543098,274.385620 
	C99.105080,274.090576 101.130493,276.067230 100.717369,262.737946 
	C100.586418,258.512909 102.037239,255.742065 105.030167,252.807892 
	C122.295357,235.881561 137.630478,217.176376 153.638931,199.097504 
	C157.073334,195.218948 159.671143,194.150726 163.807510,197.663635 
	C166.456802,199.913635 169.489197,201.751343 172.490967,203.536560 
	C175.495331,205.323334 175.919296,206.801041 173.363708,209.660431 
	C161.602386,222.819992 150.530762,236.613129 137.219620,248.324936 
	C136.773376,248.717590 136.497192,249.303513 136.107666,249.846832 
	C137.795563,251.154312 139.521286,250.625198 141.110199,250.626816 
	C176.099167,250.662537 211.088211,250.656799 246.077225,250.652069 
	C252.661392,250.651169 252.669540,250.637619 252.693802,243.993942 
	C252.710236,239.495773 252.699738,234.997482 252.700943,229.999420 
M252.697205,298.499969 
	C252.694595,292.339630 252.455276,286.167114 252.770218,280.023071 
	C252.990707,275.721069 251.700424,274.195007 247.198868,274.255676 
	C229.553421,274.493408 211.903030,274.352661 194.254532,274.386688 
	C192.205673,274.390656 190.157211,274.607422 187.255753,274.774719 
	C194.494980,281.582794 196.674362,289.312714 196.582626,298.013000 
	C196.491180,306.685760 193.744202,314.160278 186.764359,320.158691 
	C188.050934,320.568329 188.506180,320.839355 188.961960,320.840271 
	C208.940659,320.880188 228.919464,320.877838 248.898071,320.936218 
	C251.689713,320.944366 252.743393,319.681763 252.708267,316.981476 
	C252.632477,311.155243 252.692459,305.327179 252.697205,298.499969 
z"/>
</svg>