<svg version="1.1" id="Layer_1" xmlns="http://www.w3.org/2000/svg" xmlns:xlink="http://www.w3.org/1999/xlink" x="0px" y="0px"
	 width="100%" viewBox="0 0 336 592" enable-background="new 0 0 336 592" xml:space="preserve">
<path fill="#000000" opacity="1.000000" stroke="none" 
	d="
M213.999939,274.352112 
	C179.667450,274.354797 145.834351,274.257477 112.003143,274.465790 
	C106.920479,274.497070 105.906097,272.870300 105.426697,267.973328 
	C104.481720,258.320618 107.836739,251.643463 114.864838,245.008820 
	C129.769409,230.938629 142.247253,214.540756 155.981018,199.330154 
	C160.731293,194.069061 160.718033,194.062881 166.748260,198.229202 
	C169.490158,200.123596 172.172073,202.118408 175.011673,203.854202 
	C178.166901,205.782944 177.971832,207.602142 175.626266,210.166061 
	C163.832352,223.057785 153.309631,237.154404 139.476532,248.106094 
	C138.973648,248.504211 138.592361,249.055923 138.132385,249.560211 
	C139.260605,251.309494 140.903397,250.612000 142.244797,250.613785 
	C175.577225,250.658218 208.910202,250.564560 242.241669,250.750534 
	C246.839172,250.776184 247.812149,249.148041 247.746613,244.943756 
	C247.528397,230.947586 247.766266,216.944702 247.609268,202.946869 
	C247.566299,199.115036 248.760193,197.459869 252.743759,197.671021 
	C257.230927,197.908890 261.747925,197.881714 266.238251,197.673752 
	C270.198975,197.490326 271.452087,199.181946 271.403351,203.005951 
	C271.246124,215.336960 271.348694,227.671234 271.348724,240.004257 
	C271.348877,273.003418 271.247253,306.003235 271.454163,339.001099 
	C271.485626,344.019653 270.120758,345.471710 265.021301,345.458954 
	C198.856720,345.293549 132.691589,345.356262 66.526604,345.354706 
	C59.996532,345.354553 59.961506,345.304749 59.935184,338.561432 
	C59.920876,334.894928 60.134567,331.214569 59.885014,327.565094 
	C59.550266,322.669830 61.352985,320.700256 66.470268,320.832581 
	C77.629036,321.121124 88.800674,320.906372 99.967049,320.907135 
	C146.965851,320.910309 193.964661,320.920319 240.963470,320.919098 
	C247.627014,320.918915 247.643845,320.896637 247.652496,314.347717 
	C247.667923,302.681335 247.521301,291.012390 247.739395,279.350037 
	C247.814713,275.322937 246.348618,274.175659 242.495499,274.267151 
	C233.168243,274.488617 223.832352,274.346832 213.999939,274.352112 
z"/>
</svg>