<svg version="1.1" id="Layer_1" xmlns="http://www.w3.org/2000/svg" xmlns:xlink="http://www.w3.org/1999/xlink" x="0px" y="0px"
	 width="100%" viewBox="0 0 336 592" enable-background="new 0 0 336 592" xml:space="preserve">
<path fill="#000000" opacity="1.000000" stroke="none" 
	d="
M188.538849,381.414307 
	C185.719086,392.101715 182.890015,402.364014 180.355713,412.698639 
	C179.487457,416.239319 177.829849,417.658722 174.140259,417.419891 
	C169.659714,417.129852 165.136734,417.170074 160.649841,417.405548 
	C156.994644,417.597412 155.299469,416.304657 154.574142,412.586945 
	C150.723236,392.848206 146.585464,373.165588 142.669846,353.439209 
	C141.074142,345.400269 141.209839,345.554321 132.880753,345.317444 
	C119.095657,344.925323 105.222816,346.679077 91.538979,343.667664 
	C62.890533,337.363007 48.579060,314.893707 55.028179,286.238953 
	C57.524399,275.147736 62.650959,265.566833 70.160110,256.865601 
	C87.790512,236.436310 131.350937,236.567123 145.663513,268.143585 
	C151.713303,281.490662 154.602112,295.613586 157.279282,309.825714 
	C161.000793,329.581787 163.857697,349.476349 166.066849,369.457153 
	C166.732330,375.476135 166.992279,381.539948 167.896774,387.591675 
	C170.589706,382.596527 170.683746,377.084839 171.509796,371.810394 
	C175.654007,345.348633 180.778748,319.092194 188.077179,293.318756 
	C191.023331,282.914673 194.877502,272.759125 201.054291,263.686432 
	C213.015518,246.117294 229.895081,240.078949 250.183670,243.820816 
	C269.751526,247.429749 281.259644,260.220154 286.235291,279.031860 
	C290.028259,293.372131 289.225952,307.586243 282.102142,320.767273 
	C274.255219,335.286224 260.832092,341.806335 245.144943,344.256561 
	C231.237000,346.428864 217.202499,345.144043 203.228287,345.225311 
	C199.036087,345.249664 197.376434,346.703064 196.456635,350.566559 
	C194.030060,360.759094 191.271469,370.872589 188.538849,381.414307 
M131.646210,300.739227 
	C130.418610,295.038879 128.675934,289.487671 126.568207,284.062897 
	C119.917641,266.945953 103.154060,261.093536 89.221390,271.194794 
	C80.797501,277.302155 77.228073,286.058807 77.135750,296.274841 
	C77.035858,307.327850 82.012932,314.533417 92.349800,318.404846 
	C94.509499,319.213715 96.809982,319.800629 99.096275,320.091553 
	C110.982742,321.604156 122.883598,320.732025 135.601746,320.850769 
	C134.206268,313.845306 132.983368,307.706177 131.646210,300.739227 
M263.544647,287.221344 
	C261.364319,277.610291 257.236450,269.621338 246.617584,267.147919 
	C234.880768,264.414093 224.499069,269.696991 217.909500,281.820496 
	C212.468781,291.830383 209.221970,302.665588 206.241714,313.586884 
	C205.648743,315.759827 204.452728,317.874634 205.424622,320.851593 
	C218.742599,320.385834 232.236389,322.490936 245.463745,319.120331 
	C254.638336,316.782440 261.107697,311.049927 263.358551,301.525482 
	C264.396362,297.134064 263.939636,292.581818 263.544647,287.221344 
z"/>
</svg>