<svg version="1.1" id="Layer_1" xmlns="http://www.w3.org/2000/svg" xmlns:xlink="http://www.w3.org/1999/xlink" x="0px" y="0px"
	 width="100%" viewBox="0 0 336 592" enable-background="new 0 0 336 592" xml:space="preserve">
<path fill="#000000" opacity="1.000000" stroke="none" 
	d="
M105.643829,270.675903 
	C113.835129,261.416931 122.278862,252.932053 131.391052,245.088211 
	C134.527939,242.387955 136.872650,242.061066 139.878906,245.138931 
	C142.779510,248.108688 146.021027,250.764572 149.252640,253.385956 
	C151.916077,255.546494 151.567612,257.100739 149.148849,259.343384 
	C133.839676,273.537537 120.026382,289.073883 108.042313,306.190765 
	C105.103706,310.387970 102.169746,314.631989 100.703758,319.591034 
	C102.231895,321.527588 104.204056,320.882507 105.929260,320.885406 
	C131.748291,320.928589 157.568436,320.799805 183.385605,321.023529 
	C188.436584,321.067291 189.987305,319.582275 189.826233,314.498871 
	C189.462112,303.006409 194.521988,293.141846 200.798355,284.003479 
	C211.060181,269.062286 223.976974,256.585358 237.935013,245.103638 
	C241.173538,242.439651 243.538742,242.391846 246.468948,245.349686 
	C249.038223,247.943146 251.889862,250.300827 254.833847,252.467712 
	C258.289886,255.011429 258.374115,257.020721 254.911636,259.753845 
	C243.492035,268.768005 233.454834,279.192902 224.365738,290.540314 
	C220.605896,295.234344 217.111115,300.104156 214.821396,305.710510 
	C211.224304,314.518066 214.722961,320.347351 224.229706,320.629547 
	C236.379852,320.990173 248.545425,320.812378 260.703918,320.916992 
	C273.028503,321.023041 271.248993,319.708984 271.326996,331.574493 
	C271.417572,345.353882 271.347534,345.348877 257.463867,345.347809 
	C203.493622,345.343781 149.523346,345.362457 95.553116,345.327332 
	C83.419693,345.319427 77.755142,340.399445 76.332787,328.410828 
	C75.422020,320.734283 77.916550,313.609833 81.036797,306.755188 
	C87.101776,293.431519 95.966438,281.984863 105.643829,270.675903 
z"/>
</svg>