<svg version="1.1" id="Layer_1" xmlns="http://www.w3.org/2000/svg" xmlns:xlink="http://www.w3.org/1999/xlink" x="0px" y="0px"
	 width="100%" viewBox="0 0 336 592" enable-background="new 0 0 336 592" xml:space="preserve">
<path fill="#000000" opacity="1.000000" stroke="none" 
	d="
M165.197021,296.696106 
	C160.303635,283.890747 155.437698,271.495178 149.701065,259.466858 
	C148.040756,255.985641 148.892227,253.916290 152.486435,252.458405 
	C156.493607,250.833038 160.440002,248.986847 164.217590,246.885727 
	C168.285110,244.623367 170.463074,245.778366 172.259338,249.862122 
	C179.567947,266.477814 186.240173,283.349548 192.248474,300.462738 
	C206.739227,341.736176 220.968567,383.101410 235.322235,424.423065 
	C236.014969,426.417297 236.888657,428.348694 238.187500,431.574615 
	C261.577698,404.844177 281.067291,376.790649 297.944092,347.077911 
	C295.807678,344.746429 293.852020,345.411072 292.116577,345.400360 
	C281.283905,345.333435 270.450562,345.394592 259.617645,345.351593 
	C245.470459,345.295441 237.543976,336.488251 238.293533,322.429657 
	C238.837952,312.218628 243.110535,303.460693 247.994736,294.932648 
	C258.361877,276.831146 271.742828,261.182800 287.610809,247.670883 
	C294.032013,242.203094 294.193176,242.284683 300.117950,248.245605 
	C309.016479,257.198456 308.955658,257.133453 299.800568,265.699493 
	C287.099365,277.583496 275.597443,290.500977 266.614594,305.486145 
	C264.650482,308.762695 262.867523,312.177979 261.334351,315.675385 
	C259.224335,320.488708 260.030426,321.657837 265.197906,321.673676 
	C279.364105,321.717133 293.530518,321.682007 307.696838,321.696259 
	C320.791412,321.709442 327.029510,329.563446 323.527679,342.325623 
	C320.826141,352.171234 315.822510,361.102600 310.687042,369.859650 
	C292.313324,401.190430 270.034790,429.566345 245.015869,455.828583 
	C241.147842,459.888794 231.076050,461.572784 225.944901,459.424683 
	C223.781754,458.519104 223.222122,456.565277 222.489685,454.775787 
	C213.598129,433.051788 205.683029,410.959137 197.761185,388.870819 
	C193.155334,376.028381 188.527588,363.189911 184.226990,350.244232 
	C182.925690,346.327057 180.828094,345.279572 176.917877,345.289398 
	C131.419266,345.403625 85.916794,345.038116 40.423248,345.530365 
	C24.350077,345.704285 17.923378,334.553528 20.516479,320.609222 
	C22.641655,309.181152 28.224323,299.301910 34.786804,290.057007 
	C46.491943,273.567261 59.921215,258.582062 75.556908,245.630463 
	C78.287956,243.368240 80.218513,243.115753 82.808014,245.591278 
	C85.451431,248.118347 88.341721,250.404755 91.248405,252.634216 
	C94.575157,255.185898 94.599358,257.474579 91.431747,260.271027 
	C78.890160,271.343079 68.443604,284.349579 57.775188,297.140350 
	C52.958763,302.914948 48.957478,309.256287 45.343887,315.840210 
	C44.547432,317.291382 43.782188,318.788025 44.133183,321.128510 
	C86.877533,321.128510 129.686371,321.128510 173.193619,321.128510 
	C171.799103,312.541748 167.997101,304.970306 165.197021,296.696106 
z"/>
</svg>