<svg version="1.1" id="Layer_1" xmlns="http://www.w3.org/2000/svg" xmlns:xlink="http://www.w3.org/1999/xlink" x="0px" y="0px"
	 width="100%" viewBox="0 0 336 592" enable-background="new 0 0 336 592" xml:space="preserve">
<path fill="#000000" opacity="1.000000" stroke="none" 
	d="
M136.322861,336.918945 
	C124.207962,329.075958 121.999527,314.776947 130.916168,301.698029 
	C140.400009,287.787109 153.056915,276.864105 165.674744,265.972900 
	C177.291565,255.945740 189.569351,246.765228 202.427216,238.377823 
	C207.642471,234.975800 207.841522,235.045944 211.236389,240.361099 
	C213.568237,244.011932 215.771530,247.748596 218.204727,251.329727 
	C219.987350,253.953384 219.626007,255.679260 216.950989,257.498779 
	C199.573639,269.318634 183.088104,282.316833 167.231598,296.086670 
	C160.638687,301.811981 153.711578,307.316376 148.299698,315.015472 
	C155.020798,318.255463 161.792450,319.170532 168.370773,320.549927 
	C182.526062,323.518097 196.735718,326.238617 210.961716,328.850250 
	C214.857758,329.565491 216.044495,331.135712 216.539200,335.299683 
	C217.839828,346.247375 214.089722,352.939575 204.428040,359.005310 
	C183.280075,372.282318 163.295319,387.372589 144.607285,404.052124 
	C143.861420,404.717773 143.125336,405.396118 142.413239,406.097504 
	C138.354111,410.095337 138.413116,410.933228 143.672089,413.451080 
	C163.704391,423.042023 184.749466,429.953033 205.846954,436.705902 
	C210.441742,438.176605 215.080200,439.523956 219.739944,440.773834 
	C222.612732,441.544342 223.511993,442.864716 222.332123,445.817322 
	C220.109070,451.380524 218.108780,457.036346 216.148636,462.699585 
	C215.147461,465.592102 213.664780,466.484711 210.518311,465.596588 
	C183.395844,457.940765 156.670609,449.162445 131.480865,436.379425 
	C115.321999,428.179321 111.346832,413.028107 120.418747,397.291382 
	C125.804939,387.948181 133.907715,381.250183 142.275589,374.911591 
	C154.218048,365.865265 166.435760,357.182312 179.279037,347.801392 
	C164.783951,343.690216 150.108276,342.678558 136.322861,336.918945 
z"/>
</svg>