<svg version="1.1" id="Layer_1" xmlns="http://www.w3.org/2000/svg" xmlns:xlink="http://www.w3.org/1999/xlink" x="0px" y="0px"
	 width="100%" viewBox="0 0 348 592" enable-background="new 0 0 348 592" xml:space="preserve">
<path fill="#FFFFFF" opacity="1.000000" stroke="none" 
	d="
M341.084229,593.000000 
	C227.406326,593.000000 114.241234,593.000000 1.038073,593.000000 
	C1.038073,395.694794 1.038073,198.389603 1.038073,1.042202 
	C116.970230,1.042202 232.940491,1.042202 348.955383,1.042202 
	C348.955383,198.300812 348.955383,395.601654 348.955383,593.000000 
	C346.532684,593.000000 344.064880,593.000000 341.084229,593.000000 
M147.771210,393.794525 
	C155.820251,399.776001 166.565369,397.757355 169.206635,389.117279 
	C170.533661,384.776398 170.424622,379.551025 169.440079,375.059906 
	C168.163422,369.236298 162.559021,366.086395 156.513550,366.272461 
	C150.518372,366.456970 145.995270,369.426605 144.482452,374.920074 
	C142.714340,381.340637 142.620193,387.723999 147.771210,393.794525 
M120.523987,380.693726 
	C120.049950,374.277985 117.795189,369.007507 111.092445,366.947021 
	C103.794563,364.703644 96.796478,368.072021 94.401344,374.785706 
	C91.291573,383.502563 94.366196,393.063751 101.215820,395.976685 
	C111.451019,400.329407 119.421417,394.387939 120.523987,380.693726 
z"/>
<path fill="#050505" opacity="1.000000" stroke="none" 
	d="
M147.500580,393.543396 
	C142.620193,387.723999 142.714340,381.340637 144.482452,374.920074 
	C145.995270,369.426605 150.518372,366.456970 156.513550,366.272461 
	C162.559021,366.086395 168.163422,369.236298 169.440079,375.059906 
	C170.424622,379.551025 170.533661,384.776398 169.206635,389.117279 
	C166.565369,397.757355 155.820251,399.776001 147.500580,393.543396 
z"/>
<path fill="#050505" opacity="1.000000" stroke="none" 
	d="
M120.557205,381.113922 
	C119.421417,394.387939 111.451019,400.329407 101.215820,395.976685 
	C94.366196,393.063751 91.291573,383.502563 94.401344,374.785706 
	C96.796478,368.072021 103.794563,364.703644 111.092445,366.947021 
	C117.795189,369.007507 120.049950,374.277985 120.557205,381.113922 
z"/>
</svg>