<svg version="1.1" id="Layer_1" xmlns="http://www.w3.org/2000/svg" xmlns:xlink="http://www.w3.org/1999/xlink" x="0px" y="0px"
	 width="100%" viewBox="0 0 348 592" enable-background="new 0 0 348 592" xml:space="preserve">
<path fill="#FFFFFF" opacity="1.000000" stroke="none" 
	d="
M344.210083,593.000000 
	C229.521332,593.000000 115.357773,593.000000 1.097113,593.000000 
	C1.097113,395.736847 1.097113,198.473618 1.097113,1.105193 
	C116.926620,1.105193 232.853378,1.105193 348.890076,1.105193 
	C348.890076,198.254608 348.890076,395.509277 348.890076,593.000000 
	C347.581146,593.000000 346.158234,593.000000 344.210083,593.000000 
M136.499802,393.633850 
	C147.383972,393.633850 158.268127,393.633850 169.224152,393.633850 
	C169.224152,385.407990 169.224152,377.982574 169.224152,370.372894 
	C144.315109,370.372894 119.648506,370.372894 94.860413,370.372894 
	C94.860413,378.183899 94.860413,385.741364 94.860413,393.633820 
	C108.618011,393.633820 122.058899,393.633820 136.499802,393.633850 
z"/>
<path fill="#070707" opacity="1.000000" stroke="none" 
	d="
M135.999786,393.633850 
	C122.058899,393.633820 108.618011,393.633820 94.860413,393.633820 
	C94.860413,385.741364 94.860413,378.183899 94.860413,370.372894 
	C119.648506,370.372894 144.315109,370.372894 169.224152,370.372894 
	C169.224152,377.982574 169.224152,385.407990 169.224152,393.633850 
	C158.268127,393.633850 147.383972,393.633850 135.999786,393.633850 
z"/>
</svg>