<svg version="1.1" id="Layer_1" xmlns="http://www.w3.org/2000/svg" xmlns:xlink="http://www.w3.org/1999/xlink" x="0px" y="0px"
	 width="100%" viewBox="0 0 348 592" enable-background="new 0 0 348 592" xml:space="preserve">
<path fill="#FFFFFF" opacity="1.000000" stroke="none" 
	d="
M339.042267,593.000000 
	C226.035095,593.000000 113.536064,593.000000 1.018518,593.000000 
	C1.018518,395.680725 1.018518,198.361435 1.018518,1.021076 
	C116.984940,1.021076 232.969894,1.021076 348.977417,1.021076 
	C348.977417,198.316574 348.977417,395.633148 348.977417,593.000000 
	C345.850220,593.000000 342.700317,593.000000 339.042267,593.000000 
M126.506607,396.078796 
	C132.091476,398.037415 137.525894,397.807861 141.620804,393.256592 
	C146.557114,387.770020 146.414276,381.056152 144.061157,374.548279 
	C141.800766,368.296814 136.344101,365.498535 129.804749,366.484528 
	C123.670425,367.409485 120.157341,370.749542 118.800461,376.946960 
	C116.904419,385.606964 119.098999,391.556244 126.506607,396.078796 
z"/>
<path fill="#050505" opacity="1.000000" stroke="none" 
	d="
M126.144890,395.977539 
	C119.098999,391.556244 116.904419,385.606964 118.800461,376.946960 
	C120.157341,370.749542 123.670425,367.409485 129.804749,366.484528 
	C136.344101,365.498535 141.800766,368.296814 144.061157,374.548279 
	C146.414276,381.056152 146.557114,387.770020 141.620804,393.256592 
	C137.525894,397.807861 132.091476,398.037415 126.144890,395.977539 
z"/>
</svg>