<svg version="1.1" id="Layer_1" xmlns="http://www.w3.org/2000/svg" xmlns:xlink="http://www.w3.org/1999/xlink" x="0px" y="0px"
	 width="100%" viewBox="0 0 336 592" enable-background="new 0 0 336 592" xml:space="preserve">
<path fill="#000000" opacity="1.000000" stroke="none" 
	d="
M189.037369,387.334656 
	C164.818542,393.027466 143.199509,389.349518 125.639023,371.272308 
	C115.773460,361.116425 111.435440,348.379883 110.476707,334.197327 
	C109.105728,313.916260 115.348862,296.789490 130.403992,283.174622 
	C159.512909,256.850403 210.244217,266.249115 226.146484,301.460236 
	C241.124359,334.624512 227.864517,375.132111 189.037369,387.334656 
M139.289673,289.777496 
	C122.702248,303.680603 117.314476,321.475677 121.974113,342.204559 
	C127.824104,368.228851 151.828720,383.330750 179.932755,378.585480 
	C198.468246,375.455841 211.684143,364.632782 218.008606,347.005737 
	C224.392029,329.214386 222.817642,311.653961 210.481171,296.593292 
	C193.258026,275.566864 161.888519,272.631897 139.289673,289.777496 
z"/>
<path fill="#000000" opacity="1.000000" stroke="none" 
	d="
M186.017136,360.266418 
	C165.672974,368.875793 144.963974,360.335602 138.370407,340.923279 
	C131.742889,321.410950 142.606842,300.906952 162.280289,295.797272 
	C178.946030,291.468781 197.191956,300.060791 202.913071,314.931244 
	C209.828812,332.906799 203.246780,350.873871 186.017136,360.266418 
M152.500626,314.015961 
	C145.016342,323.985168 145.272079,336.869812 153.126785,345.565857 
	C160.201035,353.397858 173.535294,355.269867 182.896973,349.745300 
	C192.775024,343.915985 197.168976,331.813477 193.574463,320.787201 
	C188.361420,304.796021 165.753616,298.985718 152.500626,314.015961 
z"/>
</svg>