<svg enable-background="new 0 0 512 512" viewBox="0 0 512 512" xmlns="http://www.w3.org/2000/svg"><path d="m226.332916 115.604919c-3.802734-3.867721-3.068466-6.960441.270447-10.474868 2.456894-2.586022 4.236481-2.426094 6.734787-.437775 3.977951 3.165909 8.008423 6.309761 13.615768 8.312057 1.670472-9.143684 5.979432-16.193 12.439545-22.038597 6.620484-5.990707 6.878327-6.156028 13.42041-.445915 5.746155 5.015419 10.330048 10.807892 11.687531 18.616165.564056 3.244706 2.179169 4.369995 5.171814 2.337967 3.024231-2.053482 6.056335-4.095588 9.065429-6.171028 2.112214-1.456818 4.031983-3.985123 6.721528-.779457 2.410888 2.87355 5.558929 5.108658 2.119842 9.69799-7.969971 10.635735-18.350738 17.415566-31.228455 19.871071-20.064575 3.825867-36.615692-2.789642-50.018646-18.48761m32.157166-2.735618c-.495728 2.807472.479767 4.812202 3.491211 4.728981 4.143127-.114479 8.660827 1.740318 12.268188-1.901528.105469-.106483.128388-.304.168671-.464378.846374-3.369354-4.202271-13.973663-7.24115-13.96035-5.062653.022179-6.007629 4.845268-7.75589 8.46389-.35672.738381-.48822 1.585571-.93103 3.133385z"/><path d="m264.558502 147.512512c4.909394.455429 9.371308.880829 13.839295 1.229111 2.934936.228821 3.604278 1.639557 2.802734 4.373871-2.32428 7.928756-3.310791 8.551361-11.584656 7.43042-2.623169-.355393-5.312347-.205719-7.968902-.336319-5.461579-.268463-6.039109-1.383515-5.86908-8.416718.113434-4.691788 2.881134-4.984421 6.364899-4.652832.660766.062897 1.314087.204437 2.41571.372467z"/><path d="m198.805313 176.868546c-.559219.396087-.845657.566345-1.10553.770446-6.784408 5.328644-13.067596 5.63179-20.469055 1.115006-1.984924-1.211304-2.017547-2.453079-.476501-3.922241 3.844284-3.665009 7.925079-7.038498 12.465027-9.823105 1.057678-.648743 2.253097-.853867 3.316467-.224671 3.794632 2.245285 7.533783 4.58432 11.081863 6.75795-.533401 3.289002-3.071762 3.665726-4.812271 5.326615z"/><path d="m213.368317 253.500275c-2.059357 2.588256-4.14769 2.834137-6.810105 1.590606-5.496917-2.567505-11.383178-4.389663-16.067413-8.491928 5.121078-7.367004 11.811356-9.257309 19.273987-5.455612 3.186523 1.623352 6.884125 2.270111 9.803055 4.8564-1.025635 3.351486-4.02565 4.868316-6.199524 7.500534z"/><path d="m258.136719 260.680115c-.452912 3.335693-2.519791 3.694946-4.836457 3.474548-5.924026-.56369-11.834259-1.284515-17.76419-1.768982-2.884033-.235626-3.742874-1.226593-2.813156-4.140564 2.531082-7.933044 3.163681-8.423614 11.579818-7.554062 1.646607.170121 3.308976.224793 4.9655.255204 8.97023.164611 8.970383.156219 8.868485 9.733856z"/><path d="m225.257843 164.2323c-7.402222 2.315765-10.435852.669754-15.521988-8.477905 6.907425-3.809083 14.471954-5.902833 22.077301-5.928315 4.090805-.013702 4.326721 5.751191 5.37616 9.169617.935409 3.046982-2.332504 2.878311-4.301453 3.377686-2.408493.61087-4.828171 1.177658-7.63002 1.858917z"/><path d="m333.8974 231.805481c1.75058.908981 3.690704.799881 4.718811 3.118744-3.705475 4.941162-8.945587 8.402344-14.374146 11.486023-2.583038 1.46727-4.669586-1.056488-6.697448-2.282608-8.129303-4.915299-7.395722-4.30867-.903565-11.097885 5.926697-6.197876 11.072113-3.685273 17.256348-1.224274z"/><path d="m339.112427 176.810455c3.976043 4.23523 7.240997 8.52948 9.124511 14.335038-5.480468 2.012085-10.967041 2.810333-16.494812 2.993392-2.817169.093308-3.243011-2.961593-4.461914-4.812744-5.144958-7.813339-5.138824-7.879837 3.95044-11.031479 2.432953-.843582 4.721954-2.60559 7.881775-1.484207z"/><path d="m277.310181 249.981354c3.895538-1.019776 7.46405-1.782791 10.985229-2.722962 7.835663-2.092147 10.541718-1.067688 14.85025 5.514405 1.358338 2.075103.993012 3.413818-1.236328 4.207306-6.10437 2.172699-12.368835 3.728057-18.802429 4.537109-.763184.096008-2.055603.074341-2.287872-.344544-1.905518-3.436492-5.30954-6.401535-3.50885-11.191314z"/><path d="m296.487671 166.59938c-.655487-.550521-1.295288-.912506-1.286682-1.2583.129333-5.172425 8.417267-10.608475 13.163635-8.629608 5.288788 2.205032 10.64975 4.302581 15.759888 8.503784-4.043061 3.378784-8.121369 5.733719-12.374024 7.77092-1.466064.702316-2.861389-.384934-4.200805-1.033143-3.576081-1.73056-7.162476-3.439834-11.062012-5.353653z"/><path d="m177.829788 217.675507c4.598587-1.302201 7.228363.180084 9.037415 4.175003 1.127746 2.490341 3.090484 4.602554 4.989944 7.332016-4.834198 2.904907-9.814422 4.149841-14.579605 5.860336-1.19487.428909-2.30098-.222885-3.08374-1.185104-3.234299-3.975769-6.644165-7.849656-8.230026-13.096482 3.478439-2.778778 7.793625-1.746856 11.866012-3.085769z"/><path d="m340.827423 204.575836c1.117981-.009018 1.798615-.114807 2.441132-.002533 2.679962.468323 6.209228-2.018142 7.881897 1.917069 1.33966 3.151733-.988648 12.518814-3.205445 14.103683-1.026184.733658-2.20346.726273-3.343536.586304-1.47345-.180908-2.916901-.594544-4.387238-.81427-10.604889-1.584747-10.297302-1.507767-7.96286-11.88237 1.236664-5.49588 5.081818-3.35408 8.57605-3.907883z"/><path d="m163.616974 196.024231c.912002-5.002335 3.279343-7.132584 8.078888-5.488297.614181.210419 1.307358.190995 1.964157.2762 10.791229 1.399765 10.632416 1.361313 8.12793 11.726562-.755738 3.127838-2.21222 4.059967-5.10579 3.869309-1.978393-.130356-3.97232-.024445-5.959304-.024872-8.824768-.001892-9.476822-.903488-7.105881-10.358902z"/></svg>