<svg enable-background="new 0 0 512 512" viewBox="0 0 512 512" xmlns="http://www.w3.org/2000/svg"><path d="m261.390686 129.898682c-6.556778-3.867104-9.90628-9.148102-9.781586-16.555619.117081-6.956413 2.737793-11.642883 8.48993-13.863845 5.452056-2.105103 10.958526-2.083794 15.388732 2.152191 4.66684 4.462234 4.670655 9.974182 2.167206 15.650795-.248382.563224-.276031 1.223808-.484619 2.210693 6.311401.405251 9.617706-3.326881 12.387329-7.803535 2.937195-4.747513 8.066834-5.154534 11.793457-.940163 1.538239 1.739555.331055 3.117203-.344696 4.530723-7.509552 15.70868-22.859405 21.477768-39.615753 14.61876z"/><path d="m256.051575 149.545227c1.094635-2.438141 2.957184-2.613739 4.808441-2.457092 5.792328.490066 11.57016 1.153106 17.363434 1.629562 3.280182.269791 3.809448 1.834503 2.867157 4.718063-2.595764 7.943253-3.186463 8.319703-11.30835 7.136521-2.291534-.333832-4.646545-.249466-6.973541-.319016-6.550324-.1958-7.006119-.659912-6.971207-7.293335.005249-.997558.067688-1.994812.214066-3.414703z"/><path d="m248.127884 250.933655c1.295502.015106 2.126602.013061 2.957168.032867 6.403321.152619 9.68332 5.833679 6.66211 11.464386-.98288 1.831787-2.644303 1.884491-4.300354 1.732453-6.101318-.56012-12.18927-1.267517-18.291962-1.810456-2.763428-.245819-3.249023-1.445678-2.480606-3.989288 2.42337-8.021652 2.931137-8.33284 15.453644-7.429962z"/><path d="m219.149384 247.397827c-10.806855 10.797821-6.161057 10.370392-20.794846 4.055481-2.2742-.981384-4.394867-2.331741-6.538376-3.593323-.526459-.30989-.863388-.941864-1.263031-1.397903 5.21904-7.308289 11.685974-9.037933 19.281723-5.346268 2.235642 1.086563 4.587402 1.93277 6.834778 2.997162 1.255615.594681 3.079605.822983 2.479752 3.284851z"/><path d="m194.306427 165.671875c3.132416 2.424347 6.724945 3.596756 9.189667 6.312958-6.052857 10.461914-17.777344 12.655304-28.298599 4.95047 4.174575-5.231873 9.280364-9.210495 15.08374-12.33635 1.265732-.681762 2.559372.221848 4.025192 1.072922z"/><path d="m226.032104 164.03891c-8.134963 2.438156-11.887084.494919-16.186584-8.417923 6.784973-3.657745 14.232681-4.966995 21.69194-6.075241 1.965119-.291977 5.829071 6.388672 5.823532 9.594604-.0056 3.242417-2.712783 2.758667-4.660369 3.266114-2.085114.543289-4.188141 1.017807-6.668519 1.632446z"/><path d="m319.645264 245.431274c-9.889496-6.068664-9.598908-5.767501-1.866181-13.228759 3.960144-3.821137 7.443848-4.234726 11.928437-1.911148 2.760772 1.430404 6.089874 1.603256 9.319122 4.293502-4.28949 5.275589-9.610718 8.965317-15.372162 12.077835-1.247589.673981-2.519928-.452835-4.009216-1.23143z"/><path d="m346.463135 186.745422c2.427887 3.691986 1.650909 5.490067-2.501831 5.685974-.974854.04599-1.924958.480134-2.901551.647599-10.975769 1.881881-12.133087 1.260483-17.450164-8.477997-1.222443-2.238907-.573304-3.393677 1.541107-4.166443 3.57489-1.306473 7.158874-2.588348 10.747253-3.857346 2.014191-.712295 3.589508.022065 4.756134 1.668442 1.911499 2.697541 3.757965 5.441147 5.809052 8.499771z"/><path d="m295.559937 245.801483c3.803161 2.459595 6.621337 5.369782 8.756591 9.189194-1.982483 2.676376-4.961975 2.883469-7.55075 3.596237-4.142975 1.140625-8.406586 1.835083-12.586274 2.853333-2.539062.61856-3.989563-.21399-5.077789-2.58368-4.445587-9.680664-4.424316-8.712448 4.972046-10.503509 3.727478-.71051 7.394684-1.737091 11.486176-2.551575z"/><path d="m315.090271 171.311325c-2.659729 2.088028-4.970947 2.175278-7.655396.654877-3.163177-1.791535-6.556793-3.173111-9.825653-4.782791-1.148193-.565384-2.592834-.950486-2.542907-2.668747.103058-3.548157 8.936279-9.578934 12.232025-8.237458 5.631256 2.292145 11.332519 4.491822 16.389435 8.515641-1.975129 3.479797-5.666443 4.224823-8.597504 6.518478z"/><path d="m349.406677 204.588776c2.788819 4.145416 2.063172 12.26474-.877533 15.440521-1.49118 1.610351-3.315643 1.291778-5.099487 1.006363-3.103943-.496613-6.166382-1.366913-9.284363-1.632477-3.810669-.324524-4.181518-2.082809-3.281067-5.341675 2.638062-9.547272 2.544525-9.596466 12.664093-9.888412 1.813843-.052307 3.635926.179947 5.878357.41568z"/><path d="m167.89592 219.519379c1.51532-.370453 2.633667-.700104 3.775772-.858322 12.931381-1.791443 12.932358-1.784409 19.911804 10.590087-4.593674 2.876831-9.769638 4.308411-14.886642 5.815293-.5952.175277-1.675949-.372452-2.165757-.915177-3.223648-3.571716-6.222488-7.320861-8.177398-11.780227-.570771-1.302048-.220993-2.240738 1.542221-2.851654z"/><path d="m181.647614 202.68576c-.360795 1.197709-.37822 2.194947-.884232 2.730744-1.159287 1.227524-15.729981 1.528412-16.992157.372864-.538422-.49292-.939499-1.394089-.972977-2.129319-.082428-1.809982-.14743-3.67572.190583-5.440506 1.54985-8.091873 2.222549-8.524475 10.422546-7.445526 10.61792 1.397126 10.61792 1.39711 8.236237 11.911743z"/></svg>