<svg enable-background="new 0 0 512 512" viewBox="0 0 512 512" xmlns="http://www.w3.org/2000/svg"><path d="m337.536804.999996c-18.803131 45.30996-38.129883 90.594464-57.239197 135.970539-1.84497 4.381012-3.602081 5.407471-8.083313 3.48671-4.575988-1.961395-4.84848-4.124512-3.016784-8.404617 18.586975-43.431923 36.977844-86.947781 55.613098-130.746366 4.213928-.306262 8.238495-.306262 12.726196-.306266z"/><path d="m276.425781 161.078781c-5.715515-.243942-11.021515-.534607-16.318542-.942001-5.900833-.453827-3.965149-5.039887-4.258454-8.372254-.303604-3.449371 1.549439-4.954971 4.835022-4.679641 5.965607.499954 11.920838 1.123092 17.880982 1.68872 2.172851.206208 3.71463 1.139099 2.788849 3.523941-1.17984 3.039261-1.623444 6.516678-4.927857 8.781235z"/><path d="m258.197418 259.781464c-.047119 3.820617-2.079712 4.680267-4.992218 4.387146-5.933563-.597229-11.858063-1.3013-17.800598-1.785981-3.046173-.248413-3.553772-1.487182-2.646896-4.254913 2.637405-8.049255 3.159897-8.442825 11.683777-7.460983 1.811309.208618 3.647155.245712 5.47319.277893 8.25647.145553 8.256653.134704 8.282745 8.836838z"/><path d="m192.824631 243.635712c6.118011-5.129807 12.06488-7.104874 18.881027-1.717652 2.237183 1.768204 5.572754 1.898667 8.086716 4.320877-2.401612 3.796128-5.504776 6.753754-8.883637 9.288041-2.055252 1.541534-19.599304-6.55011-20.196884-9.046143-.340424-1.421845.899246-1.984558 2.112778-2.845123z"/><path d="m230.779099 162.972412c-1.852311.429993-3.327744.691834-4.765107 1.09082-8.149933 2.262177-12.363434.1241-16.089798-8.517761 6.676682-3.4832 13.955826-5.470077 21.285263-5.807174 5.020737-.230896 5.096116 5.686508 5.911118 9.132659 1.053909 4.456391-3.86525 2.682892-6.341476 4.101456z"/><path d="m202.676147 171.019897c.346497.369721.531418.525315.511216.646805-.484757 2.915879-11.046418 11.644486-13.781723 10.950989-4.741852-1.202225-9.544632-2.434662-14.532807-5.270843 4.489655-5.668885 9.607834-9.638535 15.417221-12.746674 1.451599-.776642 2.873291.375305 4.135117 1.151535 2.682587 1.650162 5.331253 3.355453 8.250976 5.268188z"/><path d="m320.925476 246.140869c-3.020477-1.807327-5.716492-3.449814-8.40332-5.107086-2.303406-1.420761-2.44516-2.908081-.225891-4.613236 2.893829-2.223449 5.741424-4.508743 8.565063-6.820968 1.109528-.908569 2.310425-1.442124 3.675385-.975662 4.662353 1.593277 9.296142 3.27008 13.957641 4.920959-2.566803 6.067307-12.45993 13.156204-17.568878 12.595993z"/><path d="m345.357361 184.797058c3.713531 6.658463 3.713714 6.659348-3.06958 8.025986-.648865.130722-1.298981.259979-1.953186.358841-9.960358 1.505203-12.427124.167602-16.858521-8.790222-.99942-2.020295-.456543-3.148041 1.451081-3.85318 3.726806-1.377549 7.465026-2.726029 11.21875-4.028244 1.8096-.627777 3.265808.091049 4.35614 1.538696 1.593322 2.115478 3.121643 4.279922 4.855316 6.748123z"/><path d="m291.575989 246.354111c5.300354-.871125 8.907379 1.728378 12.489044 8.659317-1.231812 2.611908-4.023071 2.563568-6.25296 3.270813-3.147461.99826-6.418518 1.618683-9.652069 2.331146-7.574494 1.668884-7.385071 1.557556-10.722901-5.257736-1.917114-3.914459-1.267181-5.687042 3.108948-6.376206 3.588379-.565094 7.096802-1.638122 11.029938-2.627334z"/><path d="m295.131622 164.271545c7.473816-10.095581 8.000305-10.31842 18.6969-5.237518 3.355102 1.593674 6.990326 2.91742 9.62027 5.774735-7.112275 9.456039-20.458924 9.277237-28.31717-.537217z"/><path d="m351.337524 209.065704c-.006866 1.111252.036347 1.780976-.035034 2.438263-.962829 8.866654-2.548218 10.1167-11.181183 8.848542-10.99649-1.615326-11.677124-2.857316-7.44989-13.418503.312836-.781555.466339-1.818894 1.34903-1.910462 5.096741-.528717 10.202209-1.511902 15.331817-.42662 2.216187.468857 1.901398 2.390762 1.98526 4.46878z"/><path d="m186.134857 220.800354c1.924347 2.872589 3.665054 5.430954 5.65387 8.353943-4.767014 2.969086-9.754379 4.154327-14.492249 5.893463-.965667.354462-2.027496-.006073-2.720199-.815811-3.51799-4.112396-7.153473-8.163468-8.758408-13.79715 5.429291-2.434555 10.968628-2.361114 16.292725-3.248611 2.33136-.388626 2.852386 1.847259 4.024261 3.614166z"/><path d="m166.581497 190.256149c4.809448.41864 9.232743 1.029221 13.665451 1.56131 3.370636.404617 3.865113 2.070053 2.962906 5.163834-2.731811 9.367721-2.626648 9.398391-11.216797 9.401397-10.043854.003495-11.31868-1.807418-8.066345-11.615234.514832-1.552597.950714-3.198471 2.654785-4.511307z"/></svg>