<svg enable-background="new 0 0 512 512" viewBox="0 0 512 512" xmlns="http://www.w3.org/2000/svg"><path d="m379.577209 323.330261c-7.778564-20.305511-17.042633-39.469452-27.963867-57.817718-1.898102-3.188874-2.094726-5.798859-.148925-9.202759 7.118194-12.452087 12.935119-25.504456 17.263183-39.225052 1.128357-3.576965.7547-5.716141-2.540832-7.875183-16.30185-10.6801-19.598053-31.513397-15.644501-44.061539 3.263397-10.357559 10.342529-15.01918 22.115997-14.509186 9.021362.390778 16.545319 7.248215 18.569184 16.728058 2.373168 11.115799.416839 21.859055-2.714051 32.474015-5.026214 17.040954-13.234894 32.675918-21.630371 48.216613-.949707 1.757965-1.678894 3.720322-2.959106 5.199448-5.046143 5.830353-2.655518 10.293976 1.556335 15.534698 24.03833 29.910065 41.394531 63.147126 47.348114 101.425477 4.403809 28.314148 4.942566 56.637146-4.357147 84.343902-.158997.473663-.193878 1.039642-.481964 1.411072-1.751587 2.258148-.992737 6.994324-5.452576 6.505829-4.414245-.483582-6.227264-3.806214-5.650909-9.380188 1.442535-13.951203 1.180389-27.932251 1.029205-41.923493-.270691-25.0419-5.59259-49.151672-13.12677-72.86679-1.56073-4.912568-3.386108-9.741059-5.210999-14.977204m-4.892242-142.708969c.147675-3.341919-.051788-6.651626-1.218994-9.818497-.964264-2.616134-2.567688-4.973541-5.476563-5.205383-3.06723-.244461-5.337371 1.723877-6.733581 4.354859-4.66864 8.797241.020019 25.629776 11.31839 29.787918 1.794189-5.951722 2.260864-12.023865 2.110748-19.118897z"/><path d="m221.77597 147.239731c5.393433.540848 10.34459 1.081802 15.307953 1.463959 3.584549.276001 4.006287 1.915649 2.862442 5.021194-2.871826 7.797104-2.95076 7.888458-11.034942 6.792221-2.294739-.311172-4.647248-.205734-6.973847-.270538-6.470916-.180252-9.498871-5.127365-6.72113-11.089279 1.294754-2.778977 3.856506-2.009736 6.559524-1.917557z"/><path d="m135.964294 178.552521c-2.127548-1.504517-1.227783-2.730377-.102706-3.856217 3.641754-3.64421 7.742797-6.71492 12.057693-9.509643 1.012741-.655945 2.176147-1.154206 3.270447-.517411 3.946213 2.296479 8.107071 4.302613 12.039581 7.890671-4.378937 3.468094-8.299652 6.661286-12.325226 9.716309-1.518036 1.152008-3.216095.248245-4.759338-.237869-3.311066-1.043-6.586319-2.199677-10.180451-3.48584z"/><path d="m154.932922 250.208298c-2.114441-1.273072-4.280594-1.863831-5.509719-3.724991 7.011535-9.400971 16.980834-9.481796 29.038726-.22638-1.821258 3.782242-5.212036 6.215394-8.117584 9.044007-1.319061 1.284149-2.864212.480759-4.195846-.082581-3.656937-1.547043-7.259507-3.222595-11.215577-5.010055z"/><path d="m302.361267 181.725677c1.792694 3.139176 4.082245 5.651261 4.680634 9.429596-5.235413 2.036454-10.628418 2.584382-15.992737 3.037384-2.95105.249238-3.479279-2.719268-4.686157-4.559555-5.280945-8.052658-5.108246-7.757797 3.763763-11.548568 5.349792-2.285813 9.152405-1.891724 12.234497 3.641143z"/><path d="m217.075165 254.417999c.075332 1.268509.117248 2.09549.114502 2.922364-.022553 6.79132-.776856 7.369934-7.548569 6.438842-6.002548-.825348-12.194962-.16098-18.035629-2.171417.147888-8.804459 3.12767-11.589798 11.369674-10.908585 2.964142.24498 5.955002.161377 8.92099.391129 2.09343.162186 4.464554.074341 5.179032 3.327667z"/><path d="m170.612869 159.194458c-2.631576-2.766617-1.731155-4.211929 1.214279-5.18222 5.503037-1.812836 11.075821-3.358643 16.793671-4.285965 3.631836-.58899 6.59375 2.922851 7.469483 8.532135.604187 3.869964-2.407486 3.646362-4.71637 4.209945-1.766724.431229-3.717911.47728-5.28772 1.280014-6.488754 3.317978-11.343475 1.384232-15.473343-4.553909z"/><path d="m278.704773 230.714783c1.481506-1.417343 2.766754-2.322296 4.638245-2.117432 2.312255.253098 11.695983 4.095062 14.291107 6.130982-3.662659 5.332214-9.281555 8.243606-14.424347 11.695053-.468414.314361-1.406677.417785-1.878266.161651-4.13385-2.245117-8.574401-4.060394-12.109863-7.627151 2.648285-3.655289 6.640106-5.035507 9.483124-8.243103z"/><path d="m258.263885 167.857513c-1.617126-.870315-2.896621-1.578994-4.118515-2.255783 2.982499-8.618209 8.008133-11.12384 15.644669-7.854339 3.653717 1.5643 7.164215 3.468826 10.704315 5.287903.695313.357284 1.228638 1.029876 1.815491 1.538711-4.814819 7.269226-11.922699 9.244537-19.182098 5.516266-1.474427-.757217-3.015747-1.384155-4.863862-2.232758z"/><path d="m248.194824 246.957764c7.103333-1.943924 10.797272.162628 15.070893 8.658172-7.002839 3.544678-14.500885 5.170807-22.178849 5.811676-2.944992.245789-2.966095-3.167663-4.035217-5.062835-.948593-1.681549-1.995224-3.482178-1.409302-6.118042 3.924774-1.02005 8.042755-2.090317 12.552475-3.288971z"/><path d="m132.669281 218.529236c10.148026-2.380875 11.880646-1.32634 17.598038 10.788727-4.428803 2.805572-9.492005 4.150116-14.456711 5.6846-.513199.158631-1.439255-.134338-1.813065-.545593-3.755157-4.131256-7.555465-8.255539-9.221214-13.747009 2.495491-1.856644 4.99572-1.939133 7.892952-2.180725z"/><path d="m305.167847 204.529175c4.163299-.474747 5.615295 1.254089 5.163879 4.873779-.122467.981949-.020386 1.994522-.171112 2.96991-1.288513 8.337051-2.592773 9.279098-10.92392 7.979034-10.58908-1.652405-10.431976-1.614303-7.966736-11.782669.74173-3.05957 2.072419-4.139786 5.03006-4.00116 2.807007.131562 5.62674-.007125 8.867829-.038894z"/><path d="m140.825134 201.810394c-.266998 3.411881-1.66101 4.813004-4.841308 4.607224-3.298325-.213394-6.629914-.19783-9.931-.006714-3.599526.208374-4.742943-1.503174-4.385887-4.781281.107277-.985.022171-1.996688.186645-2.968811 1.384087-8.180511 2.400399-8.922622 10.594094-7.85559.328415.042755.656555.087966.984466.134536 9.444855 1.341324 9.44484 1.341385 7.39299 10.870636z"/></svg>