<svg enable-background="new 0 0 512 512" viewBox="0 0 512 512" xmlns="http://www.w3.org/2000/svg"><path d="m370.027191 258.690552c-.555267 2.675506-2.315094 2.625671-3.994446 2.634491-4.499786.023651-9.003997-.10968-13.498291.049865-3.41864.121338-4.815612-1.244903-4.745849-4.686523.131653-6.497055-.063141-13.000549.054382-19.498184.058991-3.261048-1.014374-4.899124-4.5289-5.040436-3.302795-.132797-6.663605-.561081-9.850739-1.413315-4.394928-1.175247-5.960876.854874-6.007721 4.69159-.04721 3.869781-.580352 7.638656-1.65979 11.31871-3.057495 10.423782-10.709899 15.042404-20.911041 16.578689-10.487244 1.579377-20.602966-.122467-30.452698-3.462066-12.497406-4.23729-24.957275-8.259705-38.430084-7.595902-8.294174.408661-16.257873 1.718842-22.871933 7.167466-3.600998 2.966522-5.234833.057556-7.356247-1.937317-2.722336-2.559922-.63295-3.864167 1.184845-5.506974 22.202896-20.06546 44.529007-22.603759 73.663513-8.413833 7.023804 3.420944 14.040223 7.04599 22.116089 7.234268 8.161286.190277 12.829529-3.179993 13.722901-11.212723 1.169433-10.51503 3.703918-10.327179-8.210694-11.593536-11.363098-1.207733-22.887603-2.447251-33.004455-8.736267-9.915406-6.163773-11.146027-20.383011-2.333466-27.741516 6.777313-5.659089 20.950226-4.383164 26.627869 2.306808 1.319916 1.555283 1.694549 3.002625.021026 4.257767-2.025055 1.518814-2.886352 5.43016-6.696502 3.555755-1.63086-.802322-3.159272-1.827774-4.823609-2.544159-3.544891-1.525848-6.633697-.911254-8.542633 2.638993-1.91278 3.557403-.318451 6.533996 2.398102 8.790207 3.836151 3.186126 8.705322 4.159393 13.418274 4.997314 5.87973 1.045319 11.812439 1.857041 17.771637 2.505325 3.866638.420639 4.627136-.678405 4.603668-4.101181-.099396-14.499115.298371-29.009689-.146362-43.495788-.346527-11.286438 6.003326-19.694672 17.909576-20.020462 4.1568-.113754 8.293335-.3526 12.459992-.155167 13.19104.625031 19.940338 10.006088 21.43454 21.594574 1.734344 13.450684 1.233612 27.000656.600647 40.43013-.500947 10.628235 1.071502 17.47496 12.589508 21.762756 11.925689 4.439591 20.331665 14.216752 24.49121 26.815873.53592 1.623413 2.028199 3.868988-.584442 4.648925-2.950164.880738-6.81961 4.177369-9.091735.709717-3.618439-5.522491-8.003846-4.920288-13.079224-3.761474-4.902985 1.119445-7.736603-1.396759-7.739349-6.431336-.00113-2.078689 1.342315-2.484863 2.761688-2.937271 2.488342-.793152 5.005676-1.4953 8.14508-2.422974-4.614532-5.625503-10.09613-8.662567-17.345276-11.329269 0 6.745468 0 12.813568-.069061 19.34845m-23.187958-88.858338c-.271972-.956817-.449585-1.953247-.831726-2.863815-1.922516-4.580749-5.488006-6.453415-10.883117-5.882919-4.856446.51355-6.636567 3.406006-7.139222 8.024032-.365203 3.354874-.023162 6.634446-.042541 9.943299-.069092 11.808685-.020721 23.618087-.008087 35.427215.002746 2.559204-.029755 5.102646 3.463562 5.56807 5.213348.69458 10.412964 1.492706 16.41922 2.362777 0-6.871246.102264-13.141021-.022736-19.406265-.215301-10.789368.725556-21.606766-.955353-33.172394z"/><path d="m200.034698 187.595444c-1.993942 6.352905-5.794097 10.833847-10.733718 13.818557-.309098 1.335419.205795 1.838624.785232 2.128586 13.86467 6.938004 15.916779 27.619446 10.975037 40.92894-4.925156 13.264801-18.239655 21.864502-33.917801 21.785614-16.793778-.084503-30.092865-10.509003-36.365433-29.064407-4.795578-14.186218-5.727508-28.883393-5.345695-43.806351.407089-15.910843 2.341888-31.515137 7.283668-46.645081 5.852921-17.919464 14.928055-33.794807 30.666382-44.954437 9.974411-7.072578 21.228439-10.968773 33.416153-12.059974 2.957519-.264794 5.774795-.345063 5.588333 4.09127-.144867 3.447121.295029 6.205521-4.850662 6.643326-21.680023 1.844604-37.10141 13.499321-47.451935 32.135589-12.82785 23.096741-14.73851 48.353196-14.062805 74.074112.3004 11.434815 2.164047 22.513337 7.357193 32.798996 5.154724 10.209504 13.675873 15.004608 23.222839 13.522156 6.744477-1.047287 11.254425-4.657669 13.251801-11.236053 2.133514-7.026734 2.297119-14.129624.080703-21.123566-2.258392-7.126434-7.141922-11.662598-14.701873-12.456009-4.802445-.504013-4.60257-3.415619-4.637268-6.940918-.037964-3.857056 2.303131-4.178024 5.148422-4.48439 8.949432-.963562 12.714661-4.991593 13.020126-13.873306.183136-5.325516.524246-10.70546-1.448272-15.808259-1.161866-3.005722-2.697541-5.795303-6.581498-5.949111-3.78247-.149765-6.293182 1.617569-7.984832 4.88623-2.263581 4.373779-3.557557 9.007889-3.386841 13.917282.161651 4.649109-2.852982 4.319504-5.981217 4.40889-3.387787.096802-4.70552-1.134613-4.653167-4.67804.223571-15.13446 8.538452-26.997299 20.493484-28.845276 20.134293-3.112335 35.886993 13.899277 31.440964 33.951539-.180145.812545-.337235 1.630188-.62732 2.834091z"/></svg>