<svg enable-background="new 0 0 512 512" viewBox="0 0 512 512" xmlns="http://www.w3.org/2000/svg"><path d="m356.849335 195.001556c-.171173-6.648086.480041-12.839752-.736481-18.934051-2.162048-10.830704-5.482239-13.905594-16.532013-15.309448-2.300964-.292343-4.650543-.292313-6.975922-.266938-1.29483.014145-2.586059.358475-3.865661.552033-1.254486 3.592331.408111 6.774368.670563 10.016479 2.019928 24.950348.597351 49.93393.827117 74.897995.09311 10.119522-5.51065 15.18303-15.68869 15.370499-3.663757.067474-7.329773.034393-10.994598.016235-11.482544-.056915-16.787384-5.24237-16.846405-16.857208-.101654-19.990173-.055634-39.981201-.025421-59.971802.006347-4.216781-.703827-8.293274-2.180481-12.205871-3.187714-8.446121-9.901215-12.063812-20.535492-11.219162-8.296936.658996-12.671814 4.932235-14.92012 13.621979-.665467 2.572067.88388 6.783767-4.17035 7.239608-5.778518.521179-7.117691-.149032-8.005477-5.889312-2.090958-13.519532-14.495957-16.411911-24.186814-14.575837-1.714035.324738-3.106659 1.394211-3.427963 3.23552-.387024 2.217956.807709 3.773651 2.45285 5.12091 5.834687 4.778229 5.822129 4.793564 1.444611 12.249619-5.744354-1.635605-11.086411-3.961731-14.426163-9.455658-5.02774-8.270721-1.622513-18.073029 7.595963-20.995651 12.05397-3.821594 23.728058-2.246353 34.6362 3.978668 2.566085 1.464432 4.173401 1.839996 6.502456-.215668 2.632767-2.323761 5.907944-3.793838 9.383957-4.442566 10.915436-2.03717 21.879822-2.191513 32.701599.395111 11.362336 2.715851 16.303406 11.302414 18.637116 21.834412.935119 4.220215 1.193359 8.542603 1.17633 12.898041-.072845 18.657638-.031677 37.31578.001892 55.973694.002961 1.650344.042511 3.352234.436921 4.937667.535308 2.151856 2.188964 3.448975 4.385315 3.415833 2.085052-.031479 3.934143-.9422 4.56903-3.197067.401612-1.426285.85907-2.916474.835877-4.370743-.33963-21.309174.697754-42.623779-.596375-63.935822-.632599-10.417251-2.505157-20.124969-10.340545-27.532287 1.22995-2.404389 3.118347-1.63971 4.621704-1.647553 12.32724-.064224 24.656555-.158355 36.982147-.000961 21.673676.276764 28.251617 10.369125 28.85141 28.499664.864319 26.125916.18753 52.301636.280945 78.455704.012024 3.365021-.985077 4.903412-4.55365 4.696076-3.818604-.221833-7.685822-.327973-11.485291.021484-4.995514.459442-6.672149-1.297547-6.603759-6.433655.263824-19.820419.105133-39.646469.103668-59.969971z"/><path d="m165.808411 244.741394c-1.335862-5.997757-1.077927-11.673309-1.082245-17.331726-.014267-18.660584.039657-37.321548-.076416-55.981461-.024109-3.877548.509338-8.392776-4.440293-10.077041-3.85968-1.31337-8.447189 1.418426-11.263382 6.453705-2.402557 4.2957-3.56015 8.983856-3.578445 13.877853-.060974 16.327728-.148666 32.657242.03154 48.983231.097244 8.810287 3.222671 16.4841 11.140808 21.075576 5.121902 2.970002 2.475998 5.660172.768723 8.88057-2.205445 4.160034-4.556473 1.836548-6.883927.369324-10.406708-6.560318-15.732742-15.989182-15.755554-28.318757-.032059-17.327575.022232-34.65538-.031631-51.982849-.016861-5.427337 1.065551-10.617065 3.286972-15.503265 4.531799-9.968109 11.880462-15.870377 23.349731-15.494003 2.163651.071014 4.331604.005462 6.497559.011871 12.953613.0383 19.417739 6.229324 19.516677 19.295288.162735 21.491821.058304 42.985718.054718 64.478729-.000427 2.502091.118424 4.95221.807633 7.407593 1.759674 6.269165 5.100281 9.431717 11.662689 9.654282 8.448441.286514 16.913956.069732 26.788056.069732-7.374268-4.275802-13.896164-6.662613-21.007096-7.435119-5.26651-.572144-7.577911-4.62413-5.487732-9.475052.974869-2.262512 2.910767-1.9534 4.683518-1.83075 8.408004.581711 16.475708 2.534455 23.777755 6.849991 11.021607 6.513855 22.448487 11.647705 35.546982 12.007401 4.339875.119171 2.941071 3.605652 3.120545 6.005203.189361 2.532501-.236725 4.647491-3.63144 4.615326-8.163085-.077423-16.32756.001251-24.491485.0018-16.994476.001191-33.989197.044861-50.983368-.029785-12.059341-.052978-18.304535-4.669464-22.320892-16.577667z"/><path d="m255.324402 283.770691c.153122 2.887237-1.374451 3.344574-3.382507 3.803863-3.643494.833313-6.893464 2.56543-8.972886 5.858704-3.755111 5.947174-.554916 12.462036 6.426331 13.221741 3.96608.43161 7.987625.616028 11.879715 1.418487 15.017731 3.096283 23.882538 13.134888 29.168732 26.800049 5.54422 14.332306 7.096862 29.337586 6.915832 44.59726-.032379 2.728668-1.044403 3.939666-3.834717 3.868835-4.163055-.105682-8.349853-.261932-12.491943.055481-4.717377.36145-6.514465-1.264862-6.340271-6.169311.426422-12.007111-.644775-23.936463-3.050171-35.729462-3.254669-15.956635-9.694397-21.857605-25.732696-23.455109-3.310593-.329742-6.637757-.491852-9.956727-.738617-12.311965-.915405-19.518554-10.107666-16.483306-20.925689 1.068145-3.807038 3.040268-7.002594 5.89183-9.685791 6.458283-6.076996 14.370606-8.938752 22.975418-9.921692 6.672501-.762207 6.932373-.331055 6.987366 7.001251z"/></svg>