<svg enable-background="new 0 0 512 512" viewBox="0 0 512 512" xmlns="http://www.w3.org/2000/svg"><path d="m216.110306 481.222961c-8.694611 4.29538-16.983795 8.578522-25.67189 12.008667-.928574.366608-1.84694.782746-2.805802 1.04538-17.339508 4.749176-24.317367-.934265-22.400986-18.457275 2.183182-19.962586 12.827652-35.441834 26.163926-49.361603 19.717651-20.580383 43.418823-36.254517 66.230331-53.019928 17.583832-12.923401 35.271454-25.755951 49.695068-42.39914 12.501313-14.425079 20.086945-30.377166 19.598053-50.260986-.769836-31.309036-.201751-62.650848-.220001-93.97879-.001465-2.495636.071777-5.02385-.278473-7.481537-2.516601-17.66095-13.76239-20.563522-29.413849-17.346054-6.880035 1.414322-10.110199 7.240265-10.740539 14.138351-.323883 3.544022-1.099396 5.924088-5.525513 5.887299-4.259582-.035416-5.665863-1.629669-6.141937-5.807022-1.300995-11.415115-14.935517-18.997254-25.445618-14.484528-1.620254.695694-2.819732 1.756806-2.884674 3.702225-.089615 2.684677 1.382004 4.649277 3.574082 5.552689 4.251754 1.752334 4.132568 4.351577 2.493179 7.904373-1.005768 2.179642-2.126328 3.295028-4.54065 2.352814-6.330505-2.470536-11.60971-6.103501-13.044448-13.255494-1.83696-9.157013 4.029663-16.11058 14.843734-17.121719 10.596955-.990845 21.025635-.247574 30.15268 6.217636 1.407135.996796 2.613647 1.343445 4.015808.134705 9.65979-8.327286 21.389252-7.00856 32.819153-6.956192 2.819397.012909 5.675171.229675 8.448761.721664 13.880218 2.462021 22.004882 12.025696 23.364166 26.55043.934601 9.986618.781525 19.966278.794403 29.955765.031128 24.16246-.388947 48.333573.132782 72.484772.406311 18.806915-8.177734 33.624023-19.032043 47.647369-14.438324 18.653717-31.602448 34.68982-49.061463 50.433197-27.5858 24.874909-57.02623 47.624665-83.921615 73.287293-6.876542 6.561432-13.715073 13.2052-18.65799 21.410858-1.976486 3.281158-5.064468 7.17041-1.896622 10.915802 3.38321 3.999939 7.548615.898102 10.915345-.746918 15.112274-7.384002 30.057022-15.109802 45.109512-22.617431 25.337692-12.637482 51.914169-21.842102 79.862564-26.239197 25.125977-3.953034 50.401916-3.858216 75.441467 1.600708 1.783234.388763 3.516327 1.003937 5.279297 1.490082 3.147553.867889 3.218506 2.88034 2.035858 5.381988-1.052154 2.225556-.919189 5.165375-5.202728 4.208923-36.097412-8.059845-71.643005-5.658325-106.810547 5.614533-23.256409 7.454773-45.144516 17.940948-67.272781 28.886291z"/><path d="m208.796387 259.613678c-10.112915-4.270386-12.901352-12.6651-13.02684-22.079803-.284256-21.326005-.093918-42.658143-.14415-63.987687-.005051-2.148712-.091858-4.351394-.560272-6.434692-1.401185-6.23201-6.481736-8.082748-11.627106-4.136063-4.469391 3.428177-6.475754 8.360382-7.212891 13.804428-1.84227 13.60582-.570221 27.285904-.821136 40.92978-.112854 6.136886-.369858 12.279464.765228 18.429794 1.150101 6.231781 3.982956 11.188385 8.893204 15.093353 6.05365 4.81424 6.046051 5.550812-.037079 11.851746-9.842209-4.900544-17.659332-12.147232-18.799988-23.396546-2.284592-22.531128-3.213882-45.265899.584824-67.702118 2.511749-14.835006 12.201019-21.837844 27.1828-21.886795 3.320511-.010849 6.669189.218582 9.958404.673493 7.953385 1.100036 12.869584 7.690475 13.406571 17.356567 1.184021 21.312973.350479 42.640412.534164 63.960037.139954 16.242401 2.693756 18.974488 18.77829 18.978104 6.459107.00145 12.918198.000229 19.458923-.474747-5.874877-4.388473-12.463073-6.595001-19.593368-7.374923-3.036362-.332154-5.857651-.486222-5.954086-4.928162-.094345-4.345963 1.211715-5.997543 5.68692-5.675598 9.001266.647537 17.359329 3.236496 24.967407 7.937927 9.820038 6.068329 20.148285 10.330277 31.874756 10.283798 4.730743-.018753 4.023834 3.238266 4.209015 6.223603.203461 3.28009-1.186188 4.33847-4.382172 4.326507-25.495239-.095428-50.990875-.081299-76.486404-.072204-2.558029.000915-4.902207-.837769-7.655014-1.699799z"/></svg>