<svg enable-background="new 0 0 512 512" viewBox="0 0 512 512" xmlns="http://www.w3.org/2000/svg"><path d="m295.325928 241.973831c1.069427-21.878082.294067-43.372421.535278-64.860382.016815-1.499451.00058-2.999206.009613-4.498779.10199-16.891907 6.122009-22.915756 22.899445-22.91687.833099-.000061 1.669616.050171 2.49884-.006409 21.391571-1.459686 27.428253 11.630463 27.786285 26.710861.636475 26.810898.147461 53.647659.245331 80.473175.013031 3.57428-1.473999 4.655304-4.801697 4.510254-4.157806-.181305-8.343261-.266113-12.490783.00528-4.157715.272094-5.438172-1.33783-5.414307-5.442627.145233-24.992417.027374-49.986267.107483-74.979264.012939-4.033218-.348053-7.995773-1.244385-11.883148-1.318847-5.719955-5.237762-8.446991-10.949554-7.95256-4.855744.420318-7.174286 2.905472-7.207794 8.337448-.101685 16.494888-.021607 32.990845-.106232 49.485886-.041809 8.151489.285095 16.298934-.798554 24.445861-1.504547 11.311295-7.586761 17.655091-19.076171 17.805939-22.989624.30191-45.988587.299194-68.97844.007996-12.493271-.158264-20.403351-9.326554-20.566864-23.556107-.243118-21.158264-.087936-42.321045-.121872-63.481872-.003204-1.995224.072937-4.028016-.263382-5.978577-1.240844-7.196579-7.107315-9.414887-12.823227-4.780731-5.559951 4.507721-7.840301 10.934341-8.117813 17.66214-.733612 17.785644-1.480758 35.5979-.110687 53.394348.595184 7.731018 4.630737 13.59111 11.050476 17.479721 4.606262 2.79013 2.205246 5.205444.69072 8.172912-1.86969 3.663361-4.020767 2.874451-6.836029 1.162232-10.590714-6.441208-16.007294-16.068039-16.229218-28.144837-.333237-18.135055-1.238174-36.304702.643891-54.419967.665359-6.404129 2.829086-12.368073 6.377807-17.691345 4.833664-7.250763 11.649246-11.291871 20.534805-11.316742 4.494477-.012589 9.053879-.309616 13.470856.317871 9.385834 1.333358 14.121292 7.94191 14.214981 19.808166.160462 20.326615.055008 40.655289.070404 60.983109.012757 16.843658 2.978516 19.821029 19.703232 19.820129 13.996246-.000748 27.992691.0448 41.988632-.021438 7.648255-.036179 10.82013-2.113816 13.30893-8.651673z"/><path d="m241.8284 288.665466c-3.881134 1.779297-6.406174 4.331635-7.25734 8.187744-1.067261 4.835144 2.709397 9.463227 8.135651 9.760041 4.171829.22821 8.289474.688415 12.347778 1.614624 16.764328 3.826111 25.129563 15.909942 29.987351 31.109558 4.081237 12.769775 5.552673 25.959625 5.359893 39.370575-.04953 3.442932-1.186462 4.814483-4.656158 4.661651-4.323273-.19046-8.67218-.235626-12.989868.010254-4.120972.234681-5.122589-1.744751-5.048065-5.416351.24707-12.175201-.560059-24.286072-3.045166-36.233429-2.332978-11.215973-6.883637-20.765228-19.552826-23.115692-4.721222-.875916-9.6008-.997223-14.419419-1.227997-9.25325-.443176-15.587677-4.236908-17.953598-10.98468-2.612091-7.449738-.269684-14.801087 6.890671-20.847229 6.725952-5.679382 14.685074-8.365479 23.388306-8.827515 2.123459-.112732 5.248642-.874328 5.173935 2.808258-.062439 3.077179 2.022186 7.437867-3.672608 8.120606-.804321.096435-1.565796.550049-2.688537 1.009582z"/></svg>