<svg enable-background="new 0 0 512 512" viewBox="0 0 512 512" xmlns="http://www.w3.org/2000/svg"><path d="m318.812012 492.07077c-14.160431 5.985016-28.083496 3.811798-42.035492.812928-6.167542-1.325623-12.259979-3.021515-18.573609-3.641633-9.183853-.902038-17.921249 1.345551-26.447662 4.147736-27.017487 8.879334-57.828308-6.104034-64.235916-37.996887-7.40741-36.869202 1.055069-69.576843 31.636413-94.004334 14.79036-11.814087 32.309876-18.424316 50.315445-23.719787 23.821106-7.005799 48.375489-10.650788 72.616883-15.720887 3.529144-.738128 4.650818-2.151916 4.644958-5.60205-.075653-44.495117.006836-88.99054-.11264-133.485459-.017151-6.392608-1.200745-12.791641-6.325501-17.328506-7.042022-6.234177-15.566101-5.563568-23.687774-3.403336-7.081147 1.883454-10.025879 7.879227-10.447754 14.916916-.238037 3.970993-2.288086 4.98291-5.868195 4.901245-3.320495-.075729-5.109588-.970016-5.578247-4.712906-1.536072-12.267761-13.454315-19.615554-25.048965-15.712616-1.638626.551606-3.060593 1.441102-3.333786 3.344925-.415818 2.897934 1.081833 5.130387 3.473785 6.060013 5.271134 2.048599 3.704819 5.303574 2.118774 8.801438-.754669 1.664352-1.865448 1.993637-3.615142 1.645279-6.276947-1.249726-12.748474-7.735871-13.652329-13.867585-1.340469-9.093704 4.244675-15.66278 14.906479-16.660293 10.593536-.991104 21.029175-.273209 30.161133 6.191391 1.399902.991028 2.609009 1.38356 4.015869.169479 9.657379-8.333908 21.386353-7.026001 32.818481-6.972183 2.819672.013275 5.674988.231537 8.449616.720444 13.856079 2.441574 22.225525 12.139556 23.35556 26.538742.665344 8.478363.860932 16.95343.849335 25.451782-.047363 34.662948-.010681 69.326004-.005035 103.989029.000366 2.145508.00003 4.291046.00003 6.5932 3.462463.760926 5.785278-1.163818 8.233734-2.268066 9.650635-4.352325 17.917572-10.229431 22.0625-20.561645 1.677368-4.181244 4.670258-1.465241 7.180664-1.124909 3.235077.438599 3.003052 2.576447 2.268402 4.826569-3.701202 11.336181-10.804412 20.166198-20.333923 27.109131-4.582092 3.338287-9.425903 6.371643-14.73703 8.366424-3.792542 1.424347-4.770264 3.755432-4.753906 7.594025.12857 30.162933.150848 60.327057.021393 90.48999-.055909 13.023651-1.190857 25.933533-6.181458 38.199066-4.711883 11.580628-12.299957 20.470429-24.15509 25.91333m-39.084259-142.725921c-1.62439.351654-3.248963.702636-4.873169 1.055084-18.85698 4.091705-37.686829 8.223205-55.225632 16.724396-17.393356 8.430664-31.115814 20.424194-38.309265 38.831298-5.501114 14.076661-7.145386 28.70163-4.795944 43.587311 1.56192 9.895996 5.711303 18.827637 13.344162 25.637665 11.891372 10.609497 25.615158 12.376709 40.557083 7.955719 8.606155-2.546326 17.214142-5.059967 26.401733-4.517914 9.554321.56366 18.557251 3.642243 27.794983 5.642639 20.834961 4.511689 33.901489-3.513946 39.148773-24.142456 1.934937-7.60675 2.935852-15.334076 2.936585-23.183716.002838-30.471862.003814-60.943725-.033051-91.415557-.002167-1.769471.483765-3.657135-.799865-5.456391-15.08014 3.057038-30.192353 6.120575-46.146393 9.281922z"/><path d="m175.610901 180.678253c.036972 18.743057-1.261154 37.065705.641937 55.341294.657227 6.31137 3.817276 11.22908 8.721985 15.150283 6.1474 4.914704 6.139633 5.369751.148056 11.907227-10.634735-5.190155-18.205124-13.146179-19.251389-25.272049-1.775894-20.582443-2.199966-41.300217.032456-61.845978 1.462677-13.461441 8.753143-26.620834 28.982361-25.881332 3.322265.12146 6.68425.225601 9.942535.81192 7.358017 1.324081 12.036072 7.949493 12.517944 17.110931 1.164811 22.145874.447373 44.30571.450379 66.458054.001663 12.309982 3.422867 16.302627 15.675079 16.57428 7.480591.165863 14.967865.030609 22.566147-.445237-5.857483-4.474761-12.529022-6.615707-19.739212-7.409942-2.820999-.310761-5.543381-.438492-5.702331-4.629761-.172013-4.535965 1.242553-6.30072 5.92456-5.927521 8.993027.716874 17.317398 3.405838 24.934799 8.069657 9.687531 5.931259 19.837403 10.241852 31.401093 10.135528 4.537597-.041732 4.336639 2.83075 4.493103 6.012284.17511 3.562896-1.297882 4.569976-4.686005 4.555633-25.161529-.106415-50.324371.040039-75.485229-.127136-13.131119-.08725-21.335541-9.187088-21.45105-23.723633-.169479-21.328049-.051056-42.65831-.102356-63.987518-.005173-2.148682-.086853-4.352524-.558472-6.434387-1.443039-6.369934-6.880401-8.159241-12.027328-3.849289-5.217072 4.368683-6.660828 10.543808-7.429062 17.406692z"/></svg>