<svg enable-background="new 0 0 512 512" viewBox="0 0 512 512" xmlns="http://www.w3.org/2000/svg"><path d="m263.14798 180.274399c-5.070862 3.479568-10.410172 5.232986-16.080811 6.032425-3.43013.483581-5.540207-.719696-5.282486-4.581116.033188-.497177-.006714-.999374-.015396-1.499191-.190964-10.982727-.182571-10.930863 10.528931-12.683823 1.75592-.287369 3.554519-1.014862 5.061371-1.968704 2.64801-1.676224 4.074371-4.14682 2.338806-7.212845-1.612885-2.849243-4.153092-2.11174-6.594696-1.121551-4.562256 1.850189-8.348236 4.872268-11.872681 8.180953-18.240784 17.123978-32.12326 37.269669-41.592453 60.439469-1.721619 4.21257-2.606171 8.560852-2.319611 13.152801.341874 5.478379 2.790665 8.219895 8.308304 8.645874 11.565049.892868 22.841645-.914718 34.075455-3.541977 25.19252-5.891754 50.561111-7.995636 76.138199-2.534072 20.811066 4.443863 32.500061 17.705474 36.336548 38.256164 1.188232 6.364929 2.047668 12.797852 2.070587 19.313477.009704 2.758545-.718537 4.810821-3.900452 4.25119-2.783203-.489533-7.180511 2.404846-7.731445-3.349945-2.765747-28.888092-34.095215-49.903809-61.846344-49.850556-14.748566.028305-28.555145 4.220169-42.551972 7.825623-8.358886 2.153168-16.570907 4.751099-25.24916 5.750732-6.632248.764008-13.00911.197602-19.222061-1.589202-10.491745-3.017365-16.278199-11.713624-17.157807-22.634766-1.47673-18.335556 5.891846-33.591538 16.180802-47.632584 13.507446-18.433227 30.779846-32.659759 51.348236-42.772049 3.757309-1.847244 7.671203-3.267517 11.812759-3.931778 12.394531-1.98793 20.793854 7.151764 17.890137 19.403962-1.528748 6.4505-5.237366 11.423828-10.67276 15.651489z"/></svg>