<svg enable-background="new 0 0 512 512" viewBox="0 0 512 512" xmlns="http://www.w3.org/2000/svg"><path d="m254.685822 146.146637c9.170532-1.020126 15.074005 1.580566 17.772949 7.520599 3.111572 6.848206.54953 17.088456-5.962738 23.292679-5.206421 4.960129-11.473267 7.852127-18.529312 9.150528-3.855652.709488-5.766007-.578461-5.31514-4.680511.072357-.65831.007141-1.331787.004547-1.998261-.036255-9.341598-.029465-9.301636 9.225449-10.884735 2.635269-.450775 5.194625-1.277695 7.176376-3.24469 2.012268-1.997314 2.371735-4.569427 1.319672-6.928039-1.172638-2.629044-3.86728-2.366913-6.145981-1.743439-5.818314 1.59198-10.282944 5.548172-14.447983 9.527466-17.187729 16.421127-30.18364 35.844223-39.916229 57.471481-1.922577 4.272247-2.769104 8.919815-3.271851 13.550796-.768219 7.07634 3.126297 11.169129 10.51062 11.494874 13.796051.608596 27.023728-2.818009 40.405136-5.40799 22.86287-4.425095 45.864609-5.951797 68.816117-.660446 22.627777 5.216705 32.333435 18.939377 35.907165 40.734421.888855 5.420837 1.237793 10.894165 1.16156 16.411285-.042236 3.052826-1.356537 4.215729-4.202392 4.1716-2.831665-.043945-6.034546.449585-6.320984-3.738495-1.986725-29.047271-34.836609-51.022323-63.871491-50.212982-17.95581.500534-34.527847 6.570191-51.552185 10.896241-9.279892 2.358093-18.555786 3.595275-28.113235 2.422546-13.787094-1.691681-21.88678-10.919632-22.540406-26.004471-.609802-14.074203 4.433793-26.542129 11.908707-37.976288 14.342621-21.939499 33.448502-38.651504 57.138703-49.987671 2.682876-1.283798 5.615997-2.044693 8.842926-3.176498z"/><path d="m233.840637 47.136612c10.441117-16.369797 26.244812-22.736347 44.121186-25.410469 3.157318-.472307 5.452178.135038 5.44104 4.314697-.010346 3.875826-.488526 6.306935-5.277131 6.314652-7.305816.011772-14.087616 2.207046-19.959259 6.719585-7.675109 5.898544-10.609405 13.894024-9.695541 23.303944.45256 4.660011 3.127899 8.049293 7.677261 9.548118 3.938904 1.297707 7.953217 2.37574 11.959137 3.458664 7.612824 2.057991 10.836426 7.641525 12.21698 14.842118 3.237213 16.884178-5.529571 28.602233-18.71878 36.224319-9.876862 5.70787-20.778107 7.71228-32.014389 8.414536-3.008332.188034-3.930786-1.36966-3.730927-3.907135.199509-2.533082-1.297271-5.934845 3.396195-6.323891 5.616485-.465546 11.257843-.775406 16.751648-2.361954 14.329498-4.138176 18.066314-13.503616 17.208404-27.599754-.617004-10.137123-3.327911-12.349045-13.263351-14.593201-18.733612-4.23143-23.653122-14.083717-16.112473-32.944229z"/></svg>