<svg enable-background="new 0 0 512 512" viewBox="0 0 512 512" xmlns="http://www.w3.org/2000/svg"><path d="m304.404785 170.897125c2.369538 5.843704 3.186371 11.633209 3.305512 17.450424.354065 17.286728 1.999542 34.673996-1.367035 51.798188-2.564637 13.045044-12.161194 20.860824-25.510376 21.071548-19.490509.307678-38.994583.339325-58.483444-.02124-14.957337-.276733-25.414582-10.367371-26.287858-26.663269-.924148-17.244751-1.564773-34.618363 1.53032-51.819534 1.379471-7.666504 4.334289-14.594742 9.379303-20.70253-10.490769-3.368943-22.098008 1.635345-26.851883 11.142715-3.367096 6.733902-4.364426 14.070923-4.509033 21.333176-.287964 14.461029-1.218613 28.966629.730926 43.399734.817337 6.051132 3.349213 11.35289 8.494049 14.67453 5.073715 3.275742 1.43512 5.891617-.10524 8.606644-2.122711 3.741394-4.310577.828339-6.100616-.420715-6.123352-4.272827-10.57518-10.135468-11.629959-17.447052-3.149597-21.832383-4.011399-43.803467.716736-65.507294 3.846191-17.655396 14.855804-26.067856 32.832138-27.246018 8.166717-.535247 16.311706-.359588 24.466049-.439682 2.201599-.021621 5.419555-1.013992 6.21402 1.689087.895431 3.046601 1.591079 7.106186-.806488 9.544632-10.062928 10.234497-11.955765 23.065689-12.221573 36.41568-.248154 12.463181-1.370667 24.938752.098602 37.401688 1.139877 9.669067 6.690872 15.154663 16.349075 15.554642 15.152603.627533 30.320404.566757 45.473542.008941 9.603881-.353546 15.487945-5.321212 16.488311-14.804428 1.889435-17.912155 1.985413-35.925918-.140411-53.814712-1.42804-12.016907-10.519775-19.556076-23.378143-20.767945-1.325409-.124893-2.663697-.196365-3.993805-.171814-4.194764.077439-5.596344-1.754989-5.602539-6.079528-.006806-4.75824 2.491943-5.066727 5.985443-5.016755 17.983429.257264 35.972503-.546737 53.954712.589173 14.377014.908172 23.234344 9.172683 25.04422 23.59732.521118 4.153565.726287 8.285706.724182 12.4534-.014557 28.827011-.81958 57.684128.253784 86.470993.783783 21.020294-6.341583 38.331329-18.948883 54.25116-14.747803 18.622711-31.888001 34.876007-49.450867 50.753692-29.279053 26.469757-60.837356 50.349579-88.869598 78.225678-3.886597 3.864929-7.422852 8.10553-10.890671 12.360199-2.414932 2.962921-4.438416 6.225738-5.316086 10.077148-1.049194 4.604126 1.251999 7.096344 5.817337 6.173706 3.640381-.735687 6.895676-2.429077 10.163376-4.084717 24.206497-12.264465 47.972626-25.431335 73.64444-34.618499 30.770965-11.012024 62.346771-16.517334 95.054199-14.45282 10.278534.648804 20.589813 1.512207 30.509949 4.630432 2.473388.777496 6.044342.732391 4.53601 5.299469-1.21466 3.677918-2.185546 5.873413-7.197509 4.559296-19.717865-5.170075-39.953797-5.250946-60.026123-3.477936-36.427796 3.217743-69.54007 17.207794-101.937638 33.173553-12.242569 6.033234-24.250793 12.57779-37.018341 17.506226-4.882522 1.884735-9.795578 2.794189-15.128021 1.916931-5.23053-.860474-7.996948-3.65387-8.800278-8.69516-1.974182-12.388885 1.289749-23.799103 6.90181-34.621277 9.650253-18.609405 24.717087-32.445678 40.64653-45.503631 20.63295-16.913605 43.084503-31.389252 64.014893-47.900543 14.160217-11.170563 27.814697-22.847809 38.032745-37.967957 7.238953-10.711792 11.673248-22.21048 11.58963-35.447784-.216858-34.324448-.533447-68.659974.12674-102.973053.30722-15.966813-10.143738-23.946473-27.05539-20.610016 1.508057 2.979751 2.973114 5.874603 4.549225 9.145904z"/></svg>