<svg enable-background="new 0 0 512 512" viewBox="0 0 512 512" xmlns="http://www.w3.org/2000/svg"><path d="m356.853821 195.001556c-.208954-6.977111.48175-13.489471-.928436-19.919632-2.217072-10.109436-6.469086-13.737548-16.874604-14.142746-2.64035-.102813-5.288147-.015396-7.811798-.015396-1.761932 2.385117-.050964 4.410355.117859 6.444153 2.235443 26.934128 1.815613 53.898255.919922 80.860748-.24527 7.38379-5.301819 12.479111-12.710602 12.941605-5.808807.362579-11.671631.354157-17.484161.0336-6.71933-.370544-11.314484-4.822784-12.419281-11.588806-.480561-2.942795-.775482-5.949204-.793244-8.928864-.112365-18.828064-.141082-37.656723-.15448-56.485214-.003143-4.417984-1.088684-8.564331-2.844207-12.558334-2.785462-6.337174-7.533753-10.230316-14.554535-10.453629-8.151123-.259231-16.330292-.356003-24.472626.016159-9.136826.417603-14.860275 5.673172-16.373398 14.642624-1.924286 11.406799-.846954 22.940964-1.102478 34.419403-.060608 2.721802 1.898102 3.633911 3.815964 4.693207 6.182175 3.414688 11.610748 7.769928 16.270645 13.086868 2.889542 3.296952 5.155594 6.982422 6.629501 11.09111 5.265534 14.678071-3.416336 25.90181-18.999008 24.643479-12.445206-1.004974-17.853866-6.558289-18.319595-19.157395-.227616-6.157318-.173493-12.330795-.046662-18.492843.055741-2.707825-.903961-4.324478-3.409439-5.388474-7.413589-3.148361-15.007385-5.323349-23.131164-5.671158-3.788071-.16217-4.932144 1.242951-4.885773 4.895203.154373 12.161865-.04245 24.32814.108612 36.490082.044937 3.616791-1.083923 5.161194-4.853104 4.936706-4.150985-.247222-8.341461-.266143-12.48999.000611-4.222366.271484-5.409271-1.484253-5.3889-5.537049.130645-25.993316.059036-51.98767.047927-77.981674-.001205-2.832519.1167-5.677353-.104217-8.494247-.245087-3.124878-.301621-6.659348-3.98349-7.907959-3.753952-1.273071-6.857453.407348-9.364456 3.17308-4.25943 4.69896-5.779267 10.530152-5.846695 16.601609-.18689 16.82727-.28209 33.662216.037567 50.485565.152069 8.002685 2.305023 15.564667 9.473617 20.504989 4.683808 3.227906 1.16063 5.9944-.37503 8.843766-1.970307 3.655761-4.154755 1.348358-6.123306.014892-9.542893-6.464325-13.376328-16.097091-13.608658-27.02214-.396713-18.653733-.361298-37.325623-.053848-55.982392.223068-13.53685 8.736907-25.28421 19.695236-27.681732 6.537323-1.430282 13.300461-1.33139 19.854461-.081344 8.142212 1.552978 12.791871 8.28424 12.969986 18.309921.177567 9.994644.219086 19.998566-.018631 29.990356-.094986 3.992432 1.291031 5.109452 5.166794 5.196961 7.152481.161483 14.220108 1.389862 21.134354 3.323181 1.436844.401764 2.83905.960831 5.094848.252533 0-5.38823-.065261-10.997284.01886-16.60408.079773-5.317932-.279541-10.635315.711182-15.944245 2.819565-15.109375 10.211746-23.11824 25.25917-24.636612 13.568329-1.369125 27.363526-1.495834 40.916565.058884 16.491974 1.891846 25.578766 13.508087 25.733185 31.414276.168152 19.494064.057495 38.990555.067963 58.485977.00116 2.165085.069824 4.296006.634491 6.43515.64621 2.447922 2.110107 3.889145 4.53006 3.854767 2.604675-.036987 4.388031-1.625213 4.910675-4.188308.32846-1.610535.260223-3.314972.260833-4.977326.006318-17.162689.03653-34.325577-.033935-51.488022-.056854-13.853836.313141-27.856369-10.725311-38.548828 1.579315-2.246292 3.582245-1.513183 5.271423-1.5242 11.330231-.07396 22.662689-.15622 33.991577-.012406 21.710663.27562 28.289887 10.391037 28.896698 28.479691.876618 26.131302.189545 52.313827.282257 78.474106.011902 3.362487-.978424 4.909485-4.550171 4.703918-3.819702-.219818-7.687347-.324035-11.488159.023346-4.984039.455536-6.680664-1.277985-6.610962-6.426681.268463-19.823945.110901-39.653672.112122-59.98079m-118.87352 45.60817c-2.038986-3.419525-3.76236-7.12851-7.96109-9.077637-.810532 4.187546-1.000153 7.945328-.24643 11.707916 1.046387 5.223542 4.059861 8.323044 7.100113 6.976426 4.732056-2.095993 2.347718-5.71666 1.107407-9.606705z"/></svg>