<svg enable-background="new 0 0 512 512" viewBox="0 0 512 512" xmlns="http://www.w3.org/2000/svg"><path d="m379.361206 203.000046c-.004883 17.995498-.113037 35.491989.059998 52.985702.040496 4.096222-1.206971 5.734619-5.391571 5.413086-3.809967-.292816-7.6763-.287445-11.488007-.007934-4.376526.320892-5.794006-1.368195-5.760315-5.736283.169617-21.992996.107117-43.988128.049255-65.982315-.013122-4.981354.187989-9.970413-.955383-14.918258-2.213226-9.577256-6.406586-13.298676-16.160278-13.775452-2.946808-.144043-5.906647-.022278-9.544403-.022278 2.317291 10.300369 2.351227 20.239212 2.376983 30.154114.049775 19.151855.013123 38.307266-.329467 57.455093-.126587 7.07367-5.312256 12.093994-12.510651 12.580506-5.805084.392334-11.668884.365142-17.482575.062622-6.708129-.34906-11.433593-4.82428-12.546813-11.478775-.491883-2.940354-.788208-5.948014-.806489-8.927369-.116455-18.99411-.140075-37.988861-.171539-56.983428-.007629-4.594986-1.221527-8.909058-3.187744-12.978653-2.823822-5.844422-7.479217-9.281296-14.077484-9.684555-8.155182-.498383-16.325409-.530716-24.474213.000442-9.321441.60762-15.128647 5.945679-16.56488 15.091827-1.767899 11.258271-.769272 22.615067-1.033203 33.927643-.063019 2.701523 1.796158 3.681504 3.740402 4.74585 6.195541 3.391662 11.6147 7.758179 16.293396 13.057022 2.79068 3.160599 4.962601 6.704376 6.475143 10.612289 5.733674 14.813843-2.865493 26.379151-18.682632 25.197937-12.531677-.935852-17.901505-6.381836-18.414139-19.036468-.242645-5.989212-.257294-12.001679-.029938-17.990479.128464-3.383896-1.175308-5.168121-4.229492-6.385986-7.161087-2.855514-14.432678-4.966949-22.212311-5.291855-3.643035-.15216-5.069061.962616-5.014801 4.760849.171326 11.994415-.123214 23.997086.15123 35.987656.102967 4.498367-1.462448 5.933517-5.76857 5.57225-3.640167-.305389-7.34404-.292267-10.98735-.006775-4.510162.353394-6.069122-1.236389-6.037171-5.913757.184479-26.991684.076767-53.985413.057328-80.978439-.001557-2.16507.138519-4.363938-.185135-6.486435-.395523-2.59375-.719101-5.513214-3.766678-6.536286-3.119705-1.047271-5.945251-.098083-8.321976 2.052307-4.904388 4.437333-6.83612 10.40178-6.945923 16.619126-.308883 17.489776-.378326 34.99472.017975 52.480987.172608 7.616776 2.474533 14.875183 9.348877 19.539963 4.677124 3.173782 1.310913 5.937103-.247589 8.830475-1.949768 3.619751-4.099182 1.495666-6.114517.133453-9.5504-6.455413-13.420166-16.074112-13.66008-26.997711-.409683-18.652725-.356049-37.324035-.067444-55.980896.209152-13.520676 8.689163-25.308334 19.624283-27.742523 6.53624-1.454971 13.301681-1.327606 19.854843-.113419 8.191193 1.517701 12.857025 8.218415 13.043259 18.23494.185821 9.99408.200927 19.996979-.005783 29.989883-.079499 3.843033 1.03157 5.250977 5.060745 5.297943 6.98706.081452 13.873642 1.409272 20.669266 3.108063 5.341201 1.33516 5.493972 1.102356 5.671035-4.52185.293045-9.308533-.830658-18.659684.82425-27.927018 2.629287-14.723678 10.121475-22.702224 25.020843-24.255966 13.56482-1.414535 27.359833-1.479721 40.915772.020249 16.526367 1.828628 25.695617 13.440307 25.860595 31.298675.180115 19.493332.062836 38.989426.069184 58.484314.000763 2.334168.068664 4.629944.738403 6.920746.659241 2.254761 2.10965 3.463058 4.278046 3.516388 2.385864.058655 4.238861-1.248611 4.852417-3.570602.458191-1.733857.465637-3.618821.466461-5.4366.008575-19.161667.117645-38.324936-.099091-57.484421-.130981-11.577972-.989196-23.08223-10.013519-31.957474-.279083-.27446-.223602-.889084-.309387-1.278351.331909-.306015.558533-.699508.790954-.702926 15.964051-.235413 31.993592-1.632279 47.854554.812759 10.574188 1.630036 16.603057 9.119629 18.452514 20.249207 1.736115 10.447632.583863 20.935867.98053 31.897171m-141.724167 46.95108c1.880524-1.068527 2.27417-2.810013 1.876129-4.708603-1.196823-5.708694-4.42192-10.089828-9.236953-14.228714-1.328705 5.239838-1.224671 9.729325-.046448 14.241898.915024 3.504547 2.979721 5.409363 7.407272 4.695419z"/><path d="m263.30069 346.632874c-.955109-5.874146-2.301636-11.184632-4.754761-16.158936-3.713455-7.529877-9.859497-11.488861-18.158493-12.176727-4.647247-.385193-9.318237-.53653-13.948883-1.056977-6.958603-.782043-13.217865-3.182251-15.83429-10.320343-2.639969-7.202331-.90245-13.884857 4.480957-19.312042 7.275452-7.334595 16.373902-10.559204 26.575394-10.934601 2.314362-.085174 4.645676.123932 4.412964 3.243408-.209305 2.805756 1.776184 6.607636-3.223023 7.575135-3.32373.643249-6.250518 2.244781-8.482818 4.927307-2.36882 2.846649-2.684982 6.118439-1.508408 9.405945 1.204346 3.365082 4.125305 4.695831 7.509964 4.812927 4.178177.144562 8.28534.682098 12.348953 1.623566 17.215622 3.988556 25.424515 16.617584 30.31279 32.116211 3.828797 12.139465 4.710022 24.771637 5.26944 37.427337.177216 4.009217-1.038544 5.856598-5.314941 5.584778-4.315552-.274322-8.665619-.176422-12.99347-.030792-3.257385.109649-4.428405-1.295654-4.360382-4.461304.229401-10.676636-.988983-21.264038-2.330993-32.264892z"/></svg>