<svg enable-background="new 0 0 512 512" viewBox="0 0 512 512" xmlns="http://www.w3.org/2000/svg"><path d="m360.491455 195.435791c-6.99118 13.641052-10.101562 28.185974-14.193024 42.405334-1.611572 5.600922-3.196045 11.221238-6.360595 16.213151-5.070832 7.998886-12.65036 11.108383-22.416077 9.217575-7.431-1.438782-12.495728-7.218781-14.016449-16.283112-.465362-2.773743-.645569-5.623566-.660217-8.440094-.093537-17.99501-.113983-35.990448-.13617-53.985779-.005829-4.748031-1.108581-9.247162-3.125427-13.498565-2.789001-5.879075-7.450409-9.35466-13.985351-9.8517-8.147706-.619721-16.322449-.554779-24.473023-.050171-9.232239.571564-14.966461 5.433136-16.570373 14.456741-2.053864 11.555008-.928971 23.269577-1.13089 34.916611-.047348 2.730652 2.164703 3.481491 4.020218 4.558136 9.095199 5.277435 16.827957 11.898483 21.62178 21.530044 2.404816 4.831681 2.819458 9.930298 2.157013 15.099396-.539032 4.206207-2.993195 7.379364-6.807831 9.307129-6.911926 3.493042-14.109894 3.671722-21.312378 1.190399-8.157791-2.810394-9.796371-9.885895-10.287842-17.248413-.398712-5.973236-.327453-12.000656-.065887-17.986618.157867-3.6129-1.26561-5.446945-4.502701-6.715515-7.179459-2.813568-14.46048-4.911758-22.237045-5.216766-3.466629-.135971-4.74617 1.063949-4.706894 4.566742.134491 11.995636-.160156 23.998992.143478 35.988403.119995 4.738602-1.567398 6.189743-6.036941 5.795395-3.472199-.306336-7.015122-.311035-10.486756-.002014-4.759704.423706-6.324646-1.315247-6.288009-6.179993.202057-26.825501.092804-53.653366.081207-80.480423-.000931-2.165482.138565-4.360367-.161331-6.488876-.366059-2.597931-.604279-5.559815-3.57843-6.666825-3.271668-1.217697-6.247971-.220306-8.746613 2.107483-4.837479 4.506729-6.651474 10.489929-6.756042 16.704666-.291489 17.324219-.354767 34.661972.013229 51.983307.170441 8.022522 2.745285 15.395066 9.945145 20.281998 4.679733 3.176391.338836 5.740738-.830658 8.378006-1.473923 3.323791-3.605408 1.799499-5.660843.452118-9.825867-6.44101-13.864365-16.147843-14.123108-27.259262-.434326-18.652085-.3396-37.324356-.068756-55.982346.196167-13.512894 8.636001-25.338119 19.541916-27.817276 6.53862-1.486389 13.304992-1.329529 19.856949-.157455 8.23767 1.473617 12.896987 8.102981 13.114868 18.164749.216385 9.99321.198501 19.996338.024765 29.990631-.064591 3.715134.811172 5.3629 4.967239 5.389511 8.653412.055405 17.070892 2.190765 25.386459 4.184067 1.688691-2.000778.920289-4.076096 1.005631-5.97255.418655-9.302642-.839356-18.666031.926697-27.91922 2.782654-14.579864 10.067611-22.319 24.826019-23.871032 13.725037-1.44336 27.698608-1.574814 41.406799.060531 16.354279 1.951035 25.296967 13.405365 25.486939 31.116776.203705 18.993316.026184 37.990494.10022 56.985657.010955 2.812179.451354 5.627044.77243 8.431564.130127 1.136856.258362 2.418106 1.72821 2.717377 1.330323.270858 2.237549-.544831 2.981232-1.453537 1.939392-2.369767 2.91153-5.222351 3.788452-8.092972 4.177857-13.676712 7.073609-27.745377 12.788849-40.952271 6.238525-14.416122 14.83606-27.126815 26.43692-37.789856 2.432862-2.236236 4.278198-3.291931 6.951935-.15802 2.383392 2.793579 2.903229 4.676346-.195129 7.38704-8.503571 7.439651-14.859375 16.583068-20.153809 26.940124m-107.106323 52.278961c.35968-7.474975-4.406052-12.025207-9.633515-17.511505-.468597 5.96199-.898346 10.881943.677201 15.687943 1.442901 4.401519 5.057968 5.372238 8.956314 1.823562z"/></svg>