<svg enable-background="new 0 0 512 512" viewBox="0 0 512 512" xmlns="http://www.w3.org/2000/svg"><path d="m194.856232 232.804047c-.016556-20.97464-.001648-41.471314-.07106-61.967698-.012223-3.61293.476165-7.926269-4.034058-9.257858-4.708511-1.390106-7.964386 1.651337-10.435593 5.203064-2.827743 4.064163-4.100158 8.787491-4.129913 13.689591-.102173 16.829635-.154724 33.661407.009979 50.490066.086914 8.881638 3.547501 16.356125 11.368195 21.001724 4.987793 2.962815 2.059372 5.607682.484024 8.59871-1.988373 3.775146-4.283844 2.375671-6.949921.772888-11.010574-6.619324-16.100189-16.676087-16.32663-29.113602-.312393-17.158112-.205505-34.327621-.016159-51.489365.084107-7.622345 2.24141-14.81842 6.692673-21.111206 4.606247-6.511856 10.729447-10.330551 19.024033-9.934662 2.327743.1111 4.676605.17212 6.996185-.003128 13.823746-1.044494 20.429459 6.050827 20.706421 20.686921.387741 20.489471.108963 40.991516.118637 61.488189.000855 1.832917-.052597 3.67038.052887 5.498001.512802 8.883561 4.354279 12.554856 13.257339 12.674515 3.832078.051514 7.665314.020905 11.498017.023682 3.812179.002777 7.624359.00061 12.77388.00061-7.029556-3.747299-13.253266-6.267319-20.144013-6.732391-3.545745-.239334-5.58789-1.401489-5.637283-5.323548-.068207-5.415741 1.220535-6.863067 6.750717-6.230194 8.680115.993347 16.928452 3.387909 24.489548 7.951813 9.803467 5.917374 20.033386 10.59166 31.862762 10.353027 4.610291-.093017 4.63794 3.177094 4.768158 6.527359.14502 3.730988-1.52185 4.831574-5.115692 4.815308-25.495331-.115326-50.991882.019165-76.487076-.112396-11.151535-.057556-19.10556-7.411743-20.599227-18.586029-.41832-3.129456-.608979-6.289368-.90683-9.913391z"/><path d="m251.230255 170.945099c5.476227 2.795273 1.856537 6.229095.913437 9.10881-1.13176 3.455765-3.715713 1.708557-5.773025.809647-2.592148-1.132599-5.160767-2.340653-7.243302-4.348969-4.725067-4.556671-6.645416-10.030044-4.594894-16.346038 2.430282-7.48581 8.952469-9.644211 15.737915-10.278046 10.070923-.940704 20.013946-.098297 28.80014 5.786102 1.964966 1.315979 3.607086 1.143662 5.45694-.228592 5.998169-4.449554 12.806183-6.143203 20.215362-5.762466 7.135987.366699 14.334443-.758011 21.420349.689651 12.464509 2.546555 19.866639 10.19133 22.09488 22.692124.729828 4.094421 1.135833 8.205368 1.120422 12.394424-.085937 23.319962-.138428 46.641022.028717 69.960037.031525 4.392609-.988678 6.477784-5.80777 6.008667-3.959991-.385528-8.005401-.308227-11.980896-.009582-4.496399.337799-5.721313-1.627533-5.68988-5.839172.154266-20.654007.139496-41.309784.076141-61.9646-.019836-6.472733.493317-13.003113-1.280853-19.369293-2.820404-10.120392-9.554169-13.881943-23.18045-12.94693-8.618531.591385-14.266053 6.115539-15.037415 15.663925-.332642 4.118027-2.159332 5.087967-5.658478 5.024872-3.321747-.059876-5.876556-.049515-6.380859-4.781693-1.239777-11.634048-12.687592-18.878524-23.866348-15.638412-1.753235.508163-3.78653 1.27774-3.856171 3.413467-.091049 2.792771 1.957336 4.429474 4.486038 5.962067z"/></svg>