<svg enable-background="new 0 0 512 512" viewBox="0 0 512 512" xmlns="http://www.w3.org/2000/svg"><path d="m302.771454 218.999023c-.37381-11.633697.83612-22.812103-.968231-33.906326-2.668518-16.407394-9.652649-22.739227-26.259735-23.749634-1.32959-.080902-2.665741-.049682-3.998536-.082794-5.81018-.144348-8.058136-3.695114-6.045196-9.250946.737518-2.035492 2.184204-2.281067 3.917877-2.279846 18.498749.013061 37.010651-.389954 55.491974.186783 14.321533.446884 24.131409 10.847687 24.302582 25.42778.318847 27.161484.050537 54.329483.156158 81.494278.013733 3.527832-1.273865 4.719604-4.69043 4.556915-4.323303-.205871-8.680053-.283447-12.992492.015198-4.439514.307434-5.779053-1.514618-5.749512-5.788056.147339-21.331268.079681-42.664108.067597-63.996383-.002839-4.998993.05838-10.004074-.156983-14.995697-.503052-11.65857-7.817261-17.144608-19.825317-14.673889 8.353088 13.674896 8.173126 28.943954 8.228363 44.059509.046753 12.795441.769073 25.604706-1.577545 38.375854-3.887787 21.158677-23.71872 23.363083-37.816346 15.577317-8.148101-4.500046-13.155243-12.1232-18.640319-19.23555-5.094925-6.606507-10.152558-13.229569-17.300629-17.844605-1.683441-1.086883-3.322724-2.221008-5.496719-2.249786-1.858124 1.564834-1.015427 3.712234-1.083939 5.592453-.272339 7.473877.523529 14.990646-1.128052 22.405533-2.018692 9.063003-7.486069 14.409286-15.996139 15.494461-7.576401.966125-15.907349-3.824158-19.46814-11.34169-5.808884-12.263733-4.283264-35.655625 10.730637-43.722489 2.143798-1.151855 2.390106-2.986465 2.381546-5.065735-.041169-9.998855.077377-20.000869-.138535-29.995758-.178604-8.267593-4.620911-12.511016-12.806961-12.781478-12.324387-.407197-18.735245 4.106292-19.301346 16.255737-.929214 19.942734-1.402328 39.959717.372238 59.916504.545655 6.136383 3.253861 11.26773 8.449082 14.649338 5.194824 3.381332 1.385147 6.202575-.263535 9.10324-2.118927 3.728089-4.469452 1.402588-6.614029-.054046-10.473114-7.11348-13.43074-17.979782-13.722473-29.603729-.434708-17.321244-.37561-34.666962-.024658-51.992096.296219-14.62352 8.239716-26.571076 20.180008-28.866013 10.736374-2.063522 21.937164-2.24675 32.690811.506195 8.915756 2.28244 14.332092 11.29332 14.543228 22.771485.177735 9.663192.073746 19.331634.08873 28.997741.003372 2.176697-.209595 4.291794 2.634155 5.19542 13.540757 4.302673 22.812439 13.957748 30.925629 24.998718 3.36203 4.575332 6.853394 9.023269 11.176361 12.752044 2.31134 1.993653 4.848419 3.489014 7.928528 3.974183 10.812347 1.703125 17.173157-3.563248 17.645111-14.834763.215973-5.15831.113281-10.329987.155182-15.995377m-98.465454 19.921021c.581909 2.244553.286316 5.007996 3.991546 6.186798 0-7.473892 0-14.52301 0-22.518509-3.693801 5.263825-4.114898 10.314621-3.991546 16.331711z"/></svg>