<svg enable-background="new 0 0 512 512" viewBox="0 0 512 512" xmlns="http://www.w3.org/2000/svg"><path d="m194.862701 198c-.03572-9.998688-.060974-19.497421-.113021-28.996017-.016022-2.924241-.354737-5.944733-3.381089-7.235367-3.261169-1.390778-6.204437-.044617-8.664612 2.262741-4.549636 4.267029-6.363159 9.872085-6.442916 15.789734-.233582 17.327545-.247269 34.662735-.002411 51.990051.120132 8.501266 3.720382 15.648453 11.186157 20.06369 4.872803 2.88176 2.375534 5.474167.693191 8.571823-1.979599 3.64505-4.145706 2.640534-6.925155.968598-10.997406-6.615418-16.195557-16.617874-16.433975-29.058625-.332016-17.325088-.228516-34.663391-.003174-51.992019.09671-7.435791 2.267227-14.475785 6.598877-20.638153 4.585418-6.523423 10.666549-10.405716 18.967972-10.04036 2.162323.095185 4.34526.172486 6.496643-.006897 14.202453-1.184158 21.160751 5.634278 21.369323 21.560059.259674 19.828003.063263 39.661987.065964 59.493377.000244 1.8331-.018967 3.667161.030762 5.499146.272217 10.026947 4.107529 13.762314 14.163818 13.800247 4.308548.016251 8.617188.002732 12.874802.002732.093948-.795166.284591-1.240952.145767-1.400986-7.383697-8.512558-8.626801-18.779877-8.580704-29.468247.03804-8.822906-.433517-17.688568.852082-26.433365 2.329849-15.847976 10.616928-27.688827 24.689712-35.523834 14.380829-8.006454 29.966675-8.552582 45.677063-7.082519 14.819672 1.386718 28.654144 5.985458 40.175659 15.978042 4.012177 3.479782 7.593567 7.336899 9.924927 12.279847-2.833771 2.61026-5.9758 1.649383-8.824829 1.715194-25.191773.581726-49.700195 4.577484-73.015045 14.508591-7.756989 3.304153-15.257141 7.112366-22.605347 13.476913 35.106201 2.650315 66.022003 12.444977 89.737854 38.505417 3.546173 3.89679 6.586792 8.268158 7.846497 14.624359-7.417633 0-14.311676.038117-21.204529-.033813-1.297241-.013519-1.927155-1.169067-2.435242-2.256409-3.350433-7.170532-8.844971-12.487732-15.174316-16.921524-18.392548-12.884231-38.73465-20.51651-61.217118-22.15953-.470535-.034394-.958129.164474-1.403442.248077-3.180679 10.485535 1.172943 19.904632 11.649124 25.134872 8.124359 4.056122 16.898804 4.834534 25.783051 4.752976 4.080963-.037445 5.98587 1.292053 6.013244 5.794815.026947 4.435013-1.480468 5.69844-5.810669 5.66597-23.496368-.176148-46.994995-.023835-70.492355-.111664-12.40564-.046387-20.291824-7.93335-21.484329-20.383957-1.355011-14.146942-.374375-28.299698-.728211-42.943985m107.024872-23.784698c4.914246-1.13498 9.828491-2.269944 14.742737-3.404923-15.850037-8.853912-31.906982-10.197159-47.970703-1.990005-10.95517 5.597152-17.111954 14.944458-19.429947 28.461013 16.738693-11.073349 33.475266-18.892654 52.657913-23.066085z"/></svg>