<svg enable-background="new 0 0 512 512" viewBox="0 0 512 512" xmlns="http://www.w3.org/2000/svg"><path d="m217.328461 165.093124c1.715103 16.55188.443542 32.720398.791046 48.863266.17569 8.161057-.014664 16.331208.228653 24.489243.197433 6.619705 3.558151 10.969513 10.049454 11.74649 6.000412.718232 12.154449.15297 19.405868.15297-10.120346-9.344239-10.672974-20.682602-10.178894-32.370301.372513-8.811935-1.005661-17.74237.593811-26.437606 4.096909-22.272004 19.750565-37.055802 43.014023-40.631882 18.632263-2.864182 36.877075-1.207489 54.166931 6.85498 9.540009 4.448624 17.094147 11.220139 23.269653 21.363923-37.552856 1.783752-73.676544 5.794708-105.813995 28.862167 8.087402 1.024094 14.828156 1.591354 21.460724 2.768265 25.510834 4.526779 48.451355 14.337921 66.769714 33.317001 4.512909 4.675644 8.302979 9.819687 10.379975 17.121994-7.459626 0-14.199707.015472-20.939606-.015289-1.12207-.005127-1.774109-.82312-2.229248-1.755616-6.465637-13.246505-18.426453-20.304855-30.729126-26.72647-13.384216-6.986115-27.737335-11.203705-42.731796-13.154496-5.813202-.756271-6.552063-.165619-6.477326 5.478226.131058 9.895966 5.057633 16.556396 13.878678 20.669968 8.209838 3.828521 17.060668 4.399994 25.837036 4.804824 4.536499.209244 5.075073 2.218186 5.11972 5.91272.049408 4.088318-1.811096 5.012726-5.502594 4.994049-23.326996-.118072-46.655212.007569-69.982223-.107086-13.218125-.064972-21.3611-8.178024-22.06427-21.407761-1.132859-21.31427-.22435-42.642318-.542832-63.961303-.042267-2.829712-.012161-5.681275-.353363-8.481552-.772385-6.338776-5.517074-8.333161-10.768188-4.549164-5.125336 3.693329-7.34787 9.171661-7.600617 15.119552-.551285 12.973389-.773514 25.970978-.692123 38.955933.032165 5.130447-.107331 10.275086.339248 15.444763.71315 8.25586 4.001145 14.879395 10.907151 19.20636 4.841064 3.033157 2.744522 5.692551.813522 9.007645-2.327454 3.995758-4.668198 1.704071-6.998215.278198-10.039962-6.143982-15.362167-15.383423-15.64566-26.89418-.487595-19.797669-1.547394-39.653153.650894-59.402375 1.433502-12.878463 9.146744-22.110809 19.709793-24.310897 6.218308-1.295166 12.634278-1.084641 18.886231-.112275 8.067703 1.254792 11.71968 6.884812 12.977951 14.905716m86.246032 8.704514c4.413636-.954819 8.827301-1.909638 13.782288-2.981583-11.541473-9.393249-35.335602-10.096985-49.445038-1.861587-10.57431 6.171997-16.85701 15.259475-18.170929 27.688553 16.364777-10.977662 34.176697-18.024155 53.833679-22.845383z"/><path d="m254.416702 322.504089c-7.592621-5.415405-16.194595-4.454681-24.390274-5.090728-9.402008-.729737-15.719406-4.90799-17.766907-12.610291-1.593826-5.995605.167984-11.310455 4.017975-15.808166 7.285797-8.511628 17.016953-11.838013 27.920685-12.305817 2.126892-.091278 4.355835.169464 4.014816 3.03009-.314621 2.639191 1.923172 6.326905-2.45523 7.574188-2.765778.787873-5.44458 1.762116-7.584229 3.649903-2.904785 2.562836-4.572052 5.726471-3.286438 9.772095 1.196991 3.766662 3.801697 5.830017 7.741898 5.931366 28.163574.724395 38.784454 16.750335 44.52063 40.320678 2.52124 10.359986 3.4729 20.9693 3.254394 31.680115-.068847 3.373566-1.074524 4.904449-4.604522 4.717865-3.654694-.193207-7.327912-.024811-10.992981-.035858-6.982727-.021027-7.067109-.027619-7.042054-6.828583.043-11.679321-.679321-23.290558-3.107635-34.7323-1.535706-7.236053-3.727448-14.217346-10.240128-19.264557z"/></svg>