<svg enable-background="new 0 0 512 512" viewBox="0 0 512 512" xmlns="http://www.w3.org/2000/svg"><path d="m325.906006 174.137756c-5.666412-4.430008-10.925232-8.754516-15.351654-14.039627-5.399384-6.446823-6.226349-13.452789-2.863739-20.973022 3.097778-6.927902 8.954956-9.293686 16.169464-9.565521 17.782165-.670044 30.490082 10.729644 33.41098 30.198165.369965 2.465668 1.221588 5.035294.855866 7.403183-1.267609 8.207581 2.498199 12.87909 9.136444 17.341416 13.060363 8.779404 24.633423 19.33342 32.254333 33.538055 13.708069 25.550537 1.933197 56.977265-25.039154 67.484894-4.61145 1.796448-5.755646-.643402-7.631439-3.575622-2.018951-3.156098-1.61261-4.99051 1.547851-7.295563 8.432953-6.150482 12.003296-15.188812 13.895691-25.140381 3.409607-17.929932-7.124664-40.662613-23.195373-49.528458-1.41684 1.755219-.73526 3.829376-.736237 5.721466-.041778 81.330063-.05368 162.660141-.011688 243.990219.003662 7.065796-.75589 13.990815-3.208466 20.606568-5.758026 15.532135-17.320007 23.323791-33.536895 25.090607-16.119416 1.756225-31.52121-1.926484-46.600708-6.531403-19.378052-5.917542-38.071045-5.34491-57.234055 1.160736-21.231445 7.207886-42.996338 8.632446-64.700531 1.376007-28.444626-9.509949-43.458031-35.451538-38.742737-65.11673 3.691407-23.223693 17.770539-38.422485 36.435624-50.552917 17.991363-11.692627 37.955123-19.317413 57.49327-27.835327 16.339875-7.123505 32.619507-14.375031 46.632798-25.777039 14.28714-11.624817 20.821411-26.277923 20.406128-44.90744-.653504-29.317688-.164521-58.660416-.210602-87.992477-.008087-5.15416.020416-10.327668-1.458985-15.362259-2.274261-7.739609-7.378326-11.990967-15.458892-12.655777-2.318985-.190781-4.665253-.308411-6.984909-.187958-9.941636.51622-15.657532 5.698044-16.687287 15.675247-.354797 3.437592-1.219086 5.199707-4.923721 5.236267-3.578812.035324-5.653259-.512359-6.282028-4.914429-2.195298-15.369125-14.370987-16.940963-24.362824-15.638626-2.10347.274201-3.992599 1.340332-4.334381 3.558121-.477371 3.097794 1.651901 5.239899 4.047501 6.29274 3.817443 1.677719 3.461502 3.941864 2.363021 7.150192-1.076522 3.144119-2.659469 3.940735-5.537643 2.46576-1.037521-.531693-2.113296-.992203-3.131775-1.557053-7.192413-3.988953-10.794082-10.637573-9.310058-17.141266 1.449432-6.352097 7.219543-10.822052 15.343414-11.369797 10.611786-.715484 21.0242-.119171 30.05394 6.567215 1.215072.899765 2.30957 1.103485 3.566955.000748 9.446656-8.284683 21.014328-7.139084 32.290421-7.121368 3.151184.004959 6.346222.230606 9.444885.782867 14.868591 2.649918 23.227173 12.72316 23.426209 30.187744.398742 34.993866.621063 70.005402-.074952 104.989929-.390289 19.615174-12.142242 33.248719-27.686401 43.891754-14.253677 9.759461-30.024124 16.549347-45.889603 23.099152-16.476928 6.802307-33.038314 13.417175-48.382995 22.60968-17.150284 10.27417-31.550217 23.040619-37.083527 43.23523-3.183243 11.617645-3.130951 23.452636-.187836 35.067932 4.483231 17.693481 19.031632 28.794311 37.669724 30.760925 13.761612 1.452027 26.980698-.211731 39.757736-4.821258 20.519226-7.402771 40.912918-7.812897 61.665543-1.199036 11.753631 3.745819 23.857513 6.283508 36.230438 6.56253 18.339142.413544 32.973663-6.828491 34.303558-30.304901 1.007019-17.777679.319611-35.653381.324677-53.485443.01947-68.330627-.047974-136.661407.142151-204.991485.014343-5.160355-1.611176-8.324448-5.83252-10.998978-5.479889-3.47197-10.624603-7.473053-16.195007-11.464188m10.028381-31.735016c-2.860657-2.000946-6.123138-2.516265-9.500366-2.455474-2.919525.052566-5.562317.598709-7.123169 3.606918-1.623077 3.128174-.245392 5.608093 1.649017 7.710815 7.30362 8.106705 16.752259 13.257126 26.747864 19.743287-.371033-11.705918-2.409363-21.259995-11.773346-28.605546z"/><path d="m143.790192 172.180771c-.240204-4.528595.720199-9.232803-4.609192-10.890625-4.041855-1.257324-8.698532 1.582931-11.614136 6.815674-2.051544 3.681961-3.293236 7.644409-3.299339 11.898575-.025101 17.488327-.114296 34.977462.024139 52.464691.064613 8.162597 3.528526 14.71231 10.303978 19.499466 4.437042 3.134964 4.392334 6.172805.37001 9.902053-1.497222 1.388123-2.656662.787446-3.999801.011841-10.992508-6.347732-16.98056-15.906601-17.195885-28.542618-.303612-17.816894-.200691-35.643951-.018837-53.464096.065346-6.403274 2.013695-12.471069 5.416031-17.948867 4.182991-6.734665 9.905838-10.884751 18.170258-11.543946 5.206909-.415313 10.322616-.24089 15.4263.432007 6.272705.827042 11.062622 5.784134 12.369659 12.740585.641235 3.412873 1.001694 6.927979 1.023193 10.399704.130036 20.985672.040482 41.972809.203217 62.958085.076019 9.803115 3.729004 13.584182 13.509903 13.983612 7.481491.305511 14.984207.100555 22.477432.092514.616257-.000656 1.232269-.232666 2.817108-.552948-6.84584-4.197388-13.294632-6.792832-20.512817-7.20691-3.413864-.195831-5.63028-1.104782-5.615692-5.236877.014343-4.060623 1.399902-5.656357 5.578842-5.376465 9.35463.626541 17.971207 3.480271 25.836548 8.390503 9.527572 5.947998 19.640076 9.843323 30.97319 9.792877 4.721161-.021042 4.112808 2.995026 4.316559 6.059128.239273 3.598389-1.240799 4.556915-4.641403 4.54187-24.983826-.110626-49.968781.016846-74.952408-.115509-12.505966-.066253-19.928665-7.182892-21.599335-19.720535-1.306503-9.80455-.589706-19.625519-.704788-29.43692-.154297-13.156403-.044968-26.315918-.052734-39.946869z"/></svg>