<svg enable-background="new 0 0 512 512" viewBox="0 0 512 512" xmlns="http://www.w3.org/2000/svg"><path d="m194.855408 215.998688c-.021195-15.656357-.022293-30.813141-.079605-45.969727-.01268-3.354141.080047-7.120804-3.835221-8.415802-3.969497-1.312927-7.075515.858689-9.577972 3.835465-3.716644 4.421142-5.127213 9.743316-5.175568 15.315063-.144531 16.654419-.146591 33.311829-.002716 49.966309.078385 9.074814 3.588638 16.629287 11.582459 21.389953 4.743454 2.824936 1.846512 5.376145.394424 8.226181-1.622116 3.183655-3.563232 3.120087-6.446335 1.417725-11.195282-6.610413-16.686065-16.611618-16.930908-29.276123-.338013-17.481979-.235855-34.977753.006409-52.463059.097992-7.07254 2.205612-13.7928 6.208465-19.740722 4.674576-6.94606 10.953461-11.026673 19.659867-10.598709 2.326294.114349 4.673446.166198 6.992935-.002213 13.772339-.999939 20.20874 6.215241 20.503921 20.35344.434525 20.810989.117096 41.637542.133957 62.457473.002152 2.657166.101548 5.275269.70372 7.923554 1.990601 8.754501 7.0029 12.280334 16.459046 11.0737.096908-3.566376-1.089478-7.101242-.288407-10.770752 3.218323-14.742279 21.334015-23.094528 36.342896-16.626557 9.77951 4.214417 13.099213 17.101502 6.65567 25.704468-3.286194 4.387512-7.51236 7.536087-12.56897 9.521805-10.556976 4.145721-21.606506 5.424133-32.814987 4.694305-6.761734-.440246-13.548843-1.134674-20.029434-3.643249-10.592178-4.100098-15.956726-11.778717-17.170868-22.941193-.759567-6.983169-.665939-13.949173-.722778-21.431335m72.728821 22.752243c-.890656-4.002121-3.746155-5.388809-7.403534-4.981308-4.98555.555481-8.702897 4.61557-8.954682 9.251938-.299057 5.506927 3.124115 8.152084 8.249176 6.254882 4.546662-1.683074 7.534973-4.76448 8.10904-10.525512z"/><path d="m348.35199 174.034515c.346008 2.898285.92572 5.364975.932464 7.833252.0672 24.646698-.05841 49.294388.130371 73.93982.033814 4.41867-1.309234 5.990905-5.696838 5.613281-3.801849-.327271-7.676605-.320435-11.479309.004486-4.798584.410065-6.377136-1.405762-6.328857-6.223099.213592-21.314148.121612-42.631531.107208-63.947693-.002472-3.66217-.071289-7.329361-.270111-10.985473-.889679-16.360733-18.166413-25.317993-32.097229-16.554703-4.883789 3.072189-6.952362 8.113449-7.174958 13.607758-.179992 4.442489-2.778167 4.661544-5.981903 4.667205-3.195739.005646-5.490631-.240341-6.006775-4.624267-1.703308-14.467606-13.532745-17.174973-23.73056-15.798371-1.795318.242341-3.758728 1.190827-3.998886 3.263428-.274139 2.365845 1.424133 3.90329 3.169968 5.308365 1.760635 1.416946 4.861252 1.618393 4.02391 5.341263-1.548248 6.883438-3.034714 7.686264-9.481735 4.536178-5.74176-2.805542-9.801056-6.953231-10.567078-13.526138-1.070587-9.186111 5.440384-15.886673 16.429612-16.669037 10.095657-.718704 20.015274-.008941 28.790603 5.890015 1.980469 1.331299 3.620331 1.058105 5.452637-.297669 6.00357-4.442108 12.815155-6.058425 20.221863-5.750579 4.488769.186569 8.991455.025833 13.487793.043777 17.179626.068604 26.069702 7.146011 30.06781 24.328201z"/></svg>