<svg enable-background="new 0 0 512 512" viewBox="0 0 512 512" xmlns="http://www.w3.org/2000/svg"><path d="m349.342346 223.000092c-.008758 11.496749-.126465 22.495086.03479 33.489318.053345 3.63617-1.092224 5.128754-4.85379 4.916443-4.484497-.253082-9.001801-.227295-13.490204-.01355-3.680237.175232-5.128601-1.308166-5.054809-4.92984.132324-6.495575.076965-12.995407.065094-19.493423-.037049-20.326813-.083252-40.653595-.145417-60.980347-.009186-3.00473-.187805-5.996292-1.403473-8.819717-2.042328-4.743363-6.314697-6.986954-11.428131-5.72348-4.527618 1.118744-5.737243 4.604736-5.738617 8.78952-.006469 19.494232-.011627 38.988479-.028747 58.482712-.005158 5.867523-1.050904 11.54956-2.854706 17.138137-2.608276 8.080948-7.505951 13.919678-16.148377 15.205536-9.608215 1.429505-18.63211.02475-25.474334-7.968231-3.437653-4.015808-5.059174-8.95134-7.219574-13.623611-.809601-1.750962-1.170075-3.844742-3.401551-4.966233-3.377288 2.95163-3.967163 7.261124-5.630798 10.928467-3.182815 7.01622-7.767044 12.727326-15.33641 14.723236-16.715241 4.407532-34.571808-1.291992-35.731781-23.487549-.992508-18.991073-1.082169-37.877975 2.193557-56.66336 1.156174-6.630203 4.168503-12.513703 8.121765-18.047241-12.380889-2.441666-22.340271 2.970977-26.509277 14.210525-2.106781 5.679871-3.146149 11.622025-3.11026 17.629776.085541 14.312103-.904144 28.641693.656967 42.93689.709198 6.49411 3.321686 11.868011 8.818573 15.525757 4.89795 3.259216 1.068543 5.953582-.40567 8.75235-1.734054 3.292053-3.879364 1.982421-6.172058.480407-10.791656-7.069885-14.043686-17.99852-14.229477-29.816833-.245605-15.624466-1.386413-31.325821.853699-46.892258 1.937485-13.463379 6.225967-25.71315 19.971435-31.826218 4.586106-2.039596 9.416687-3.2621 14.509583-3.242874 8.330704.031449 16.662857-.081146 24.991745.043854 2.325729.034882 5.678345-1.236877 6.613525 1.8311.984772 3.230591 1.84935 7.393143-.907089 10.002182-11.18927 10.591019-11.70549 24.607544-12.464447 38.355271-.641907 11.627945-.083252 23.319595-.178131 34.98204-.026154 3.214676.503235 6.332962 1.294723 9.368546 1.6167 6.200485 8.437439 7.77008 12.88382 3.081253 1.979858-2.087814 3.246582-4.631989 4.243591-7.299576 2.097412-5.611771 4.040238-11.283905 6.251938-16.84964 2.121338-5.338302 5.303909-10.115784 11.627579-10.285965 6.390518-.171982 10.367233 4.045532 12.81514 9.560929 2.226776 5.01715 4.114563 10.184371 6.171325 15.277557.560608 1.388275 1.110169 2.790954 1.805359 4.113113 2.315491 4.403687 4.919159 8.70015 10.833649 7.967896 6.068207-.751297 7.128815-5.976517 8.252472-10.615387.932617-3.850189 1.349853-7.837876 1.329956-11.877365-.092743-18.827301-.057739-37.655381-.023346-56.483094.0271-14.839035 6.469604-21.178634 21.424316-21.182922 3.332367-.000961 6.664765.018753 9.997071.003479 9.248535-.042358 15.384887 4.63327 19.071075 12.790665 2.142761 4.741897 3.142426 9.769439 3.124817 15.016067-.050354 14.995087-.017456 29.990433-.01709 45.485688z"/></svg>