<svg enable-background="new 0 0 512 512" viewBox="0 0 512 512" xmlns="http://www.w3.org/2000/svg"><path d="m194.853912 230.762741c.039109-17.265518-.485824-34.086777 2.806382-50.695755 1.308853-6.603195 4.077606-12.569122 8.151107-18.043442-12.128997-2.599502-22.238861 2.913819-26.506332 14.112564-1.560715 4.095612-2.532211 8.376404-2.709991 12.659165-.669693 16.1324-1.230469 32.280319.365386 48.403519.627808 6.343063 3.393586 11.501434 8.708786 15.038162 4.862031 3.235183 1.190873 5.977768-.32164 8.774093-1.954071 3.61261-4.281707 1.814728-6.593978.265778-10.529709-7.053696-13.704667-17.863144-13.885865-29.486786-.24353-15.622879-1.307983-31.310532.816986-46.892929 2.697861-19.783356 11.896546-35.723511 38.361756-35.220459 6.99498.13298 13.996475-.068527 20.990921.077805 2.33934.04895 5.679138-1.250534 6.708282 1.676437 1.123795 3.196243 1.928788 7.424103-.736129 10.005829-11.746659 11.379913-11.88379 26.239044-12.623215 40.825836-.505448 9.97081-.068192 19.987991-.119217 29.984116-.01622 3.179016.300125 6.284866.942825 9.404129 2.118622 10.282516 12.291687 14.017364 20.578034 7.445587 3.170501-2.514481 5.487121-5.770294 7.679931-9.139511 3.813385-5.859162 7.379288-11.923691 11.667527-17.419449 6.909729-8.855393 15.631866-9.336228 24.091827-1.86554 5.538422 4.890793 9.616272 11.037873 14.246307 16.707321 2.844239 3.482758 5.51236 7.117539 8.984986 10.031372 10.335662 8.672486 23.88092 5.385285 29.085754-7.039062 2.078125-4.960648 3.382172-10.164001 3.736969-15.474518.887573-13.284073 1.880035-26.617767-1.60852-39.727905-4.073548-15.308502-12.300232-22.3732-28.152192-23.805649-4.152649-.375259-4.384491-2.885391-4.29071-5.833221.095581-3.003388.022522-6.125016 4.676361-5.839081 13.750214.844833 25.300781 5.748123 32.832153 17.803863 5.580445 8.932877 8.147309 18.908432 8.552796 29.372422.579498 14.953949.879577 29.911621-4.015503 44.38562-5.649109 16.703369-16.597901 23.146789-32.875092 22.808227-11.99823-.249572-22.053222-5.764709-30.468139-14.212417-3.408448-3.421738-6.585328-7.079026-10.065827-10.422776-4.460205-4.284988-6.765167-4.223266-10.785736.404511-3.272095 3.766235-6.101959 7.913605-9.312576 11.736908-11.321243 13.481659-30.439057 15.947143-44.970688 8.299774-7.925201-4.17067-11.726669-11.537521-13.070694-20.199997-.432465-2.787384-.58577-5.618103-.873032-8.904541z"/></svg>