<svg enable-background="new 0 0 512 512" viewBox="0 0 512 512" xmlns="http://www.w3.org/2000/svg"><path d="m353.350647 184.068268c-.000488 20.656372.022583 40.822571-.011444 60.988647-.018829 11.168457-5.018463 16.173554-16.154022 16.283173-3.666199.036072-7.333435.038788-10.999573-.000671-9.990112-.107544-15.444916-5.457047-15.48819-15.538636-.089355-20.832428-.01654-41.665497-.045257-62.49826-.003662-2.660813.054626-5.366089-.378113-7.974045-1.644531-9.910645-6.539765-14.124023-16.565094-14.38974-3.661652-.097046-7.344452-.138641-10.992066.134827-6.628112.496933-9.470214 3.315292-10.52594 9.838195-.614013 3.793717-.873596 7.593293-.864746 11.440461.048035 20.832687.04422 41.665573.011902 62.498321-.01773 11.431473-5.009948 16.392746-16.474121 16.491623-3.166351.027283-6.333237.020325-9.499695.000946-11.638839-.071289-16.665939-5.009796-16.724579-16.842209-.104049-20.998947-.034484-41.998703-.074508-62.998077-.004105-2.154541-.04419-4.348358-.434204-6.456116-1.869782-10.10495-6.389908-13.924896-16.731491-14.114548-3.991822-.073196-8.005219-.025573-11.980286.307328-5.109421.427932-8.277954 3.337616-9.026032 8.456878-.528137 3.614243-.982605 7.278153-.998443 10.921936-.092713 21.332383-.022019 42.665406-.056854 63.998124-.019226 11.770294-4.952134 16.655548-16.759171 16.726196-3.833023.022949-7.668198.066376-11.499237-.027832-8.624329-.212067-14.203644-5.321381-14.344086-14.00943-.282699-17.489731-.193237-34.986557-.128235-52.479996.014405-3.876282-.565704-7.642364-1.364151-11.370239-1.657867-7.740448-5.849639-12.169281-11.9729-13.038452-7.94751-1.128144-15.566635 2.551651-19.431076 9.470825-5.645981 10.108978-6.39061 21.234558-6.391067 32.436295-.000245 5.977081.646385 11.943267 2.308273 17.738983 2.14476 7.479736 6.275505 13.068771 14.04602 15.59851 4.627015 1.506363 5.74968 5.623856 3.185677 9.760758-1.282761 2.069687-3.0038 1.083053-4.450295.722732-11.297012-2.814041-18.869346-9.92276-21.979087-21.014053-5.1568-18.39238-5.350014-37.032944 1.514488-54.947449 10.151733-26.49321 39.987655-27.428192 55.853088-16.472809 8.473801 5.851304 10.117707 15.806855 10.283432 25.471909.311432 18.161102.093018 36.330856.166153 54.496719.022934 5.693772 1.604798 7.440445 5.894303 7.116272 2.476623-.187179 4.140991-1.275161 4.429977-3.852188.240097-2.140991.411118-4.300277.434357-6.453384.251587-23.321655-.81897-46.659958.57434-69.963699.752167-12.580109 7.9655-19.115418 20.605179-19.936814 8.329026-.54126 16.614502-.266403 24.941422-.098495 13.402695.270263 24.885513 9.145096 25.021713 26.580658.171829 21.998123.018433 43.998642.121567 65.997589.016784 3.581787-.279343 7.777481 5.318756 7.730057 2.918747-.024735 4.819748-1.206849 5.040878-4.310746.165589-2.324753.328186-4.656387.33017-6.985092.016968-19.999451-.033508-39.998993.010376-59.998367.010589-4.824707.212036-9.663407 1.573639-14.348328 2.561279-8.8125 8.5578-13.75769 17.607696-14.454346 8.972687-.69075 17.927674-.591079 26.938141-.201995 16.055023.693252 24.882202 11.129974 25.05072 26.504623.235566 21.496933.069001 42.998215.087189 64.497635.001831 2.156067-.032196 4.285385.671784 6.418442.791076 2.396972 2.456634 2.903518 4.625396 2.886398 2.372223-.018723 4.388062-.674667 4.916443-3.268845.395569-1.942215.625763-3.954177.626526-5.935196.007996-20.832107-.122436-41.664596-.023041-62.496078.022888-4.797775.133606-9.65892 1.58786-14.344101 2.531128-8.154465 8.021912-12.99295 16.45221-13.949982 10.779693-1.223755 21.627716-1.252624 32.404816.02594 11.852356 1.406128 20.490661 11.41037 20.617095 24.51033.262208 27.163453.049195 54.331208.155335 81.49672.013824 3.540771-1.344208 4.709473-4.729004 4.543762-3.990326-.195343-8.011688-.255615-11.9935.012543-4.038299.271942-5.092407-1.454285-5.07254-5.250275.12439-23.832046.06308-47.665085.058502-71.497787-.000366-1.832978.066132-3.673859-.073425-5.497681-1.053894-13.773361-5.810028-18.188477-19.57724-18.246582-16.993713-.071732-19.593231 2.529831-19.652344 19.669403-.003448.999496-.000549 1.999039-.000366 3.488785z"/></svg>