<svg enable-background="new 0 0 512 512" viewBox="0 0 512 512" xmlns="http://www.w3.org/2000/svg"><path d="m379.353333 191.002167c-.000947 21.827423-.114838 43.156311.086212 64.482254.042724 4.531326-1.238556 6.359695-5.90152 5.932571-3.800781-.348083-7.66861-.253845-11.487732-.030884-3.88208.226715-5.3815-1.260742-5.26358-5.187469.20993-6.991943.075378-13.99466.061157-20.992828-.036224-17.828248-.105103-35.656434-.113739-53.484696-.001801-3.722351-.780975-7.285248-1.960816-10.758575-1.948944-5.737458-5.912109-9.249359-12.038971-9.702164-4.641967-.343048-9.318084-.27919-13.979156-.287109-2.490387-.004227-3.331543.989273-2.890411 3.798416 4.211242 26.818344 2.04895 53.840988 2.118469 80.777374.028595 11.073654-5.7081 15.709396-16.875305 15.792007-3.998688.029572-7.999695.069489-11.996399-.028411-8.877167-.217377-14.347626-5.549057-14.419342-14.436112-.13852-17.161194.013794-34.324722-.118683-51.486008-.046173-5.981414-.385285-11.992431-1.72641-17.85321-2.276795-9.949539-8.67511-15.749084-18.901306-16.174469-13.143143-.546738-26.314209-.610718-39.471634-.547485-6.547775.031448-10.737915 4.336181-11.026489 11.148895-.309967 7.317902-.235489 14.663971-.015442 21.988327.150726 5.017075 2.588485 7.230576 8.090835 7.540604 4.818375.271514 9.662216.053329 14.492035.167617 9.301941.220108 13.90683 4.906556 14.383072 14.266266.508347 9.990906.567902 19.970444-.034546 29.959793-.558761 9.26503-5.806961 15.126007-15.100754 15.310608-16.655258.33075-33.330337.408478-49.981124-.023773-12.504624-.324585-20.013993-9.226837-20.404969-23.778152-.366852-13.653672-.126907-27.323624-.154007-40.98642-.017517-8.830963.057755-17.66359-.100784-26.49202-.059097-3.292709-.109436-7.078857-3.969284-8.4113-4.185913-1.444977-7.43663.706039-10.002441 3.900802-3.704483 4.612534-5.187195 10.098343-5.241028 15.836838-.156205 16.660828-.23465 33.326782.019134 49.985214.13118 8.611481 3.41594 16.102967 11.176483 20.547898 5.242447 3.002655 2.332489 5.737503.666565 8.894699-2.179428 4.13031-4.579803 1.850647-6.906326.349426-10.474243-6.758545-15.795547-16.295837-15.729721-28.865982.090744-17.328262.038635-34.657379.016479-51.986084-.007171-5.600815 1.254715-10.930924 3.686676-15.910156 4.637955-9.495835 11.957078-14.965424 22.951294-14.566422 1.996842.072464 3.998597.007309 5.998078.010574 13.58371.022202 19.945938 6.178895 20.022354 19.824875.119431 21.327195.034027 42.655518.041229 63.983368.000794 2.327088.059326 4.615052.684723 6.922379 1.846802 6.813324 5.261093 9.975448 12.321106 10.13446 9.992279.225037 19.996002.198044 29.989731.008637 6.310409-.119629 9.203262-3.142777 9.300735-9.294709.113495-7.163024.10167-14.330032.010254-21.493621-.069717-5.464264-2.034363-7.329789-7.687576-7.453415-4.496948-.098328-9.001755.076156-13.494934-.090317-9.949402-.368637-15.45488-5.661713-15.759506-15.620606-.27974-9.145233-.272034-18.312942.012985-27.45816.329239-10.564087 7.462356-18.817581 18.086746-19.120361 19.12349-.544998 38.330521-1.600586 57.405869.643448 17.181213 2.021209 26.99002 13.525863 28.191955 30.903564 1.393372 20.145966.35257 40.295395.785919 60.437134.07663 3.561905-.726898 8.308044 4.631562 8.292999 5.443695-.01532 5.056488-4.75119 5.056152-8.589706-.001709-18.828293.067413-37.657852-.129395-56.484436-.124969-11.95578-1.241027-23.716904-10.559234-32.786789-.391358-.38089-.392578-1.162522-.54245-1.649948 1.379455-1.535813 2.973572-1.083161 4.395142-1.086655 13.82965-.033981 27.661529-.154953 41.488281.050659 7.059723.104965 14.010223 1.220017 19.478241 6.367111 6.439911 6.061921 7.572082 14.19455 8.260986 22.372284.334412 3.969849.068268 7.990265.074555 12.487351z"/></svg>