<svg enable-background="new 0 0 512 512" viewBox="0 0 512 512" xmlns="http://www.w3.org/2000/svg"><path d="m164.664474 203.005646c-.254837-10.87735.618134-21.089569 4.149048-30.966141 4.910797-13.736282 16.064621-21.980972 30.632386-22.266739 8.663345-.169952 17.332931-.115478 25.998245-.023697 2.197555.02327 5.310608-1.073822 6.265625 1.627716 1.142013 3.2305 1.935638 7.471207-.690949 10.008805-11.929916 11.525787-12.194534 26.544891-12.581939 41.323639-.295639 11.277954-1.26709 22.663452.841156 33.891922 1.628387 8.672744 6.6772 12.902481 15.545425 13.347274 2.993179.150116 6.032761-.222564 8.990555.13913 4.948822.605194 6.536651-2.047363 6.79158-6.273819.150421-2.494202.229187-4.994644.265839-7.493378.090072-6.143707-3.660935-8.810653-9.424088-6.529251-1.82225.721344-3.414627 2.04596-5.072479 3.153946-1.878388 1.255371-3.531921 3.371506-5.921494.602188-2.084228-2.41542-3.586929-4.468506-1.356384-7.866913 7.911835-12.054336 25.372666-12.285751 34.028336-7.169708 4.528503 2.676636 6.023681 7.295151 6.24707 12.39212.269745 6.154847-.424042 12.257325-1.421173 19.189301 6.456573-.275543 12.365143.760681 18.174438-1.229797 6.492249-2.224518 9.640686-7.423966 10.061127-13.689011 1.148682-17.11702 1.84964-34.380691-.188507-51.379883-1.871735-15.611374-10.609741-22.049392-26.814423-22.429168-4.340149-.101731-6.402923-1.307663-6.364532-6.013672.035461-4.344376 1.606995-5.773301 5.929291-5.725617 17.497589.193085 34.999389-.021545 52.497772.129502 17.648773.152328 28.028351 10.599197 28.071167 28.130477.062653 25.665986.01828 51.332261-.000763 76.998414-.004761 6.445358-.040192 6.450607-6.690521 6.46492-3.666565.007904-7.35257-.244294-10.994843.051422-4.531128.36795-5.697052-1.681732-5.671997-5.860611.136994-22.832077.083252-45.665329.083435-68.498169 0-2.999359.017212-6.002533-.118072-8.997391-.434265-9.610901-5.817383-15.556702-15.301575-16.604217-3.274475-.361649-6.622467-.057526-10.532532-.057526 3.469269 6.05307 6.441834 11.816345 7.382752 18.493576 1.499389 10.640655.6828 21.295334.723571 31.93486.034363 8.967453.884461 17.979141-.831451 26.917908-2.662506 13.869705-12.812378 22.445892-26.982422 22.617126-2.499603.030213-4.999817.0094-7.499756.012574-6.813507.008697-7.063629.163055-7.518463 6.783508-.216614 3.153198-.113495 6.329498-.121124 9.495422-.004608 1.90802.341675 3.745667 2.256348 4.664582 2.10263 1.009094 3.894561.03421 5.503173-1.271912 2.507966-2.036438 4.146912-4.765045 5.707093-7.521729 1.937744-3.423797 4.178955-1.725647 6.239868-.333191 1.984192 1.340668 5.486725 1.69452 3.848053 5.690583-4.631134 11.293457-18.67569 18.174286-30.711701 14.939544-6.802078-1.828125-10.466308-6.162139-11.171463-13.631866-.454712-4.816803-.464508-9.68457.394684-14.457214.623184-3.461762-.707107-4.45987-3.95729-4.391205-6.330231.133728-12.665665.058532-18.998627.018616-17.285339-.108979-27.616882-10.554184-28.820404-27.804719-1.117218-16.013259-.581894-31.908081 1.134643-47.804641.926819-8.583039 3.782151-16.503983 9.069397-23.474793-9.735839-3.334518-21.022659 1.901703-25.573227 11.707672-2.062072 4.443573-3.345199 9.193787-3.560623 13.979386-.741455 16.470764-1.250351 32.960602.334259 49.425186.594071 6.172653 3.29007 11.257126 8.449631 14.642044 5.141006 3.372772 1.478394 6.182587-.201324 9.111481-2.128678 3.711761-4.464066 1.448364-6.616791-.023682-10.801499-7.386139-13.343521-18.625519-13.805847-30.601547-.346878-8.986176-.08815-17.995743-.099183-27.493637z"/></svg>