<svg enable-background="new 0 0 512 512" viewBox="0 0 512 512" xmlns="http://www.w3.org/2000/svg"><path d="m349.342712 217.000092c-.008056 13.495422-.110992 26.491897.036438 39.485534.041169 3.627838-1.079498 5.165894-4.847808 4.919922-3.815522-.249023-7.66034-.041199-11.49228-.048462-7.035217-.013305-7.044036-.017883-7.045104-6.853866-.001191-7.497345.020446-14.994675.024353-22.49202.007782-14.994721.021331-29.989441.005706-44.984131-.003112-2.997696-.043853-5.999725-.207824-8.992065-.568055-10.36615-6.416382-16.309662-16.759461-16.693055-6.988525-.259063-13.993652-.178619-20.989715-.100738-9.791809.108993-15.384308 5.057281-15.619873 14.968323-.383851 16.151077-.042023 32.318313-.166932 48.477493-.026214 3.391495 2.141724 4.064499 4.563385 4.912353 8.674714 3.037125 16.311707 7.5262 21.44867 15.488236 2.205383 3.418198 3.558319 7.124268 4.01004 11.158936.440125 3.931732-1.158386 6.205291-5.152771 7.1763-10.173309 2.473083-21.134155-1.582032-27.734375-10.515595-2.395294-3.242081-4.128387-6.823181-5.605255-10.559174-1.77655-4.49411-4.155457-4.932327-7.754089-1.526062-1.867325 1.767487-3.048203 4.008759-3.826691 6.373841-4.710907 14.311798-18.513351 18.335357-31.105423 16.649597-18.414078-2.465118-24.763107-9.827042-26.008133-31.489212-1.000305-17.404007-.808945-34.929153 2.543549-52.20784 1.285064-6.623199 4.058853-12.598007 8.139679-18.056076-11.145157-2.744171-21.544419 2.358704-25.896027 12.544174-2.456223 5.749115-3.621857 11.856918-3.641174 18.017212-.046418 14.809113-1.010224 29.638687.647262 44.42868.707474 6.312729 3.302872 11.569443 8.654938 15.073731 4.855164 3.17894 1.386795 5.915924-.15123 8.759949-1.926971 3.563263-4.203369 1.99179-6.579452.404052-10.538117-7.041717-13.757218-17.828979-13.95575-29.456466-.266739-15.622666-1.313385-31.309815.803742-46.89386 2.74504-20.205872 12.254272-35.749787 38.320327-35.29039 7.161957.126221 14.329163-.050598 21.491394.067459 2.192734.036148 5.317902-1.08934 6.244812 1.641952 1.097199 3.233124 1.920365 7.458481-.711761 10.01146-11.887924 11.530502-11.997803 26.538482-12.647614 41.31221-.45346 10.309799-.026916 20.656128-.125518 30.984878-.033844 3.547699.60675 6.970673 1.445633 10.346543 1.010055 4.064834 2.970626 7.715194 7.648193 8.191757 4.650558.473831 9.107986-.507568 11.806625-4.857544 1.746186-2.814728 3.072083-5.894516 4.528763-8.883591 2.763138-5.669769 6.625351-9.972519 13.269608-10.908905 2.788543-.392975 3.774658-1.875747 3.740142-4.788452-.152008-12.824737-.068176-25.652344-.060089-38.478897.003815-6.018127.379944-11.998688 2.224121-17.781174 3.379548-10.596542 11.625977-16.732528 22.772248-16.807769 11.662018-.07872 23.325531-.089661 34.987396-.001984 17.661194.132782 28.362305 10.615036 28.657318 28.287353.214081 12.825272.059815 25.656693.070007 38.985383m-64.899444 33.73172c.872864.230133 1.716888 1.194244 2.928253-.190079-2.407196-3.316773-5.373749-5.886017-9.775085-7.512024 1.494445 3.423477 3.577209 5.664123 6.846832 7.702103z"/></svg>