<svg enable-background="new 0 0 512 512" viewBox="0 0 512 512" xmlns="http://www.w3.org/2000/svg"><path d="m308.280579 216.999847c-.194855 9.952591.782074 19.471283-2.521149 28.693528-3.052368 8.521835-8.237488 14.541366-17.620575 15.550338-11.010498 1.183991-20.668396-1.414306-26.55069-11.773101-2.751159-4.844788-4.886932-10.039002-7.180923-14.823166-2.366684-.012696-2.749054 1.364685-3.260117 2.566467-.847275 1.992432-1.754318 3.968155-2.454178 6.013199-5.91629 17.287811-21.561416 21.431885-37.405838 16.315338-9.42575-3.043854-14.397003-10.54332-15.377731-19.816071-2.105408-19.90654-1.637573-39.855316 1.782044-59.646713 1.147354-6.640488 4.19876-12.521377 8.102493-18.065994-11.845154-2.616348-22.089478 2.753143-26.310913 13.608459-2.075058 5.335968-3.192078 10.947434-3.212158 16.605011-.053742 15.145813-1.06778 30.313126.698226 45.436249.697297 5.971268 3.248734 10.969254 8.268845 14.205475 5.055893 3.259323 1.867569 6.057526.091583 9.092133-2.336609 3.992584-4.721222 1.540283-6.986694-.021027-10.24501-7.060577-13.286026-17.774353-13.471726-29.210205-.253784-15.62767-1.343856-31.32486.827515-46.904572 2.785568-19.986709 12.082581-35.451126 37.978974-35.135803 7.164901.08725 14.333511-.074783 21.496612.068161 2.327896.046478 5.681229-1.24115 6.624695 1.815613.996155 3.227463 1.861603 7.400757-.891892 10.003052-11.203567 10.588256-11.721923 24.600952-12.477142 38.356903-.629394 11.464508-.091858 22.99089-.172226 34.489151-.022491 3.216919.640549 6.307647 1.441513 9.342346.795654 3.014587 2.571625 5.425812 5.964203 6.064178 3.456787.650467 6.186417-.535492 8.385529-3.215789 2.8181-3.434769 4.007949-7.641037 5.586471-11.656998 1.764694-4.489639 3.19307-9.12561 5.187134-13.50705 2.079987-4.570266 5.327942-8.412109 10.777603-8.518417 5.465759-.106644 9.5495 2.937073 11.876648 7.778397 2.519592 5.241668 4.601379 10.695297 6.829865 16.074829 1.405334 3.392502 2.796844 6.794494 5.137847 9.673217 4.362763 5.36493 11.198456 4.734848 14.263001-1.448669 2.170685-4.379959 2.984344-9.176758 3.003815-14.045868.054565-13.664795.109924-27.330841-.013947-40.994766-.169983-18.749832-9.119324-28.036575-27.781189-28.588196-4.583191-.135452-6.156006-1.804642-6.091369-6.272461.059082-4.083618 1.531463-5.514953 5.64273-5.475098 17.829895.172913 35.664551-.084793 53.493073.149018 17.016021.22316 27.304535 10.788132 27.353454 27.80928.074738 25.997101-.093811 51.995392.105591 77.991165.035828 4.670258-1.45755 6.217163-5.99237 5.83722-3.971894-.332764-8.007813-.286774-11.989045-.017395-4.229095.286132-5.539886-1.536957-5.473175-5.547196.174591-10.496216.093293-20.996872.093201-31.495758-.000153-13.831909.004211-27.66391-.037872-41.495727-.051728-16.992447-8.256073-23.798813-26.042939-21.056809 10.023896 12.939056 8.1857 27.995239 8.299805 42.69725.031037 3.998734.003662 7.997941.003388 12.496872z"/></svg>