<svg enable-background="new 0 0 512 512" viewBox="0 0 512 512" xmlns="http://www.w3.org/2000/svg"><path d="m326.036682 219c-.083313-12.331223.050873-24.169098-.309479-35.991882-.385406-12.643967-6.269043-22.762741-22.458374-21.864487-7.310699.405624-14.662506.032547-21.995025.091263-13.610871.109009-20.210633 6.027603-20.836243 19.476684-.4487 9.645401.005249 19.329789-.155853 28.993256-.053223 3.191788 2.027862 4.245743 4.190582 5.541275 8.8591 5.306931 16.553925 11.786957 21.142578 21.329193 1.750824 3.6409 2.886597 7.415604 2.721314 11.53595-.266114 6.633118-3.226044 11.483322-9.404236 14.030166-4.028321 1.660584-8.300934 2.516907-12.693268 1.950806-11.610565-1.49646-16.934357-7.557007-17.343185-19.91835-.198227-5.993713-.126984-11.998871-.06041-17.997543.026779-2.413254-.645004-4.131333-3.024979-5.142518-6.927658-2.943359-13.995758-5.149017-21.580719-5.755249-4.517181-.361038-6.179107.929627-6.050674 5.704483.313583 11.657624-.027496 23.331559.167786 34.99437.069 4.121735-1.349274 5.723724-5.489808 5.433533-3.814209-.267273-7.686782-.323975-11.489318.018676-4.992737.449921-6.653428-1.32077-6.609284-6.45137.225113-26.163421.102616-52.329849.088028-78.495239-.001572-2.832459-.064941-5.665665-.14862-8.49707-.077561-2.624649-.746766-5.132111-3.342515-6.236832-2.647125-1.126556-5.229324-.358444-7.510757 1.34491-4.768372 3.560058-7.105301 8.749954-7.284622 14.267028-.643585 19.802124-1.255921 39.627625.32988 59.424164.521942 6.515839 3.33583 11.847229 8.8264 15.513794 4.922562 3.287293.950348 5.981323-.488632 8.755005-1.736404 3.346954-3.92569 1.876221-6.17334.400147-10.785492-7.083085-13.913284-18.026474-14.216934-29.849747-.444855-17.320694-.386795-34.667526.005631-51.990799.187271-8.266922 2.86737-16.031586 8.544036-22.427811 4.442765-5.005935 9.878724-7.767471 16.709671-7.500732 2.662522.103973 5.332413.019104 7.998948.020767 13.474868.008392 19.792602 6.085342 20.117019 19.792221.228668 9.660935.208557 19.334488-.002472 28.995819-.084762 3.880142 1.076401 5.306687 5.105728 5.21373 6.691422-.154388 13.237443 1.290299 19.73581 2.856552 1.54927.373398 3.098373 1.392899 4.885422.557282 1.38359-1.726471.752685-3.80159.829711-5.73111.364899-9.141418-.66539-18.324814.942109-27.431473 2.6138-14.807556 13.500976-24.1483 28.514801-24.23291 13.498901-.076065 26.998748-.06308 40.497863-.009537 16.391236.065003 26.900483 9.151017 29.591767 25.357148.738708 4.448425 1.061157 8.895187 1.049255 13.403869-.059479 22.498764-.115906 44.998261.032898 67.49614.026825 4.054504-1.11383 5.788269-5.351044 5.438904-3.64151-.300232-7.327819-.049164-10.994262-.057068-7.035218-.015168-7.045716-.019654-7.04422-6.859345.002594-11.665359.019836-23.330704.031036-35.496063m-63.106354 29.642731c1.911805 1.317856 4.031739 2.02832 5.865143.23999 1.587616-1.548615 1.190064-3.832245.473358-5.628433-1.742981-4.368073-3.784118-8.624329-8.963867-11.653244.479401 6.08023-1.425384 11.541244 2.625366 17.041687z"/></svg>