<svg enable-background="new 0 0 512 512" viewBox="0 0 512 512" xmlns="http://www.w3.org/2000/svg"><path d="m309.331726 193.002167c.004822 16.659118.003845 32.818695.022308 48.978241.001709 1.495605-.076385 3.036163.242188 4.476318.513885 2.32341 2.068726 3.937058 4.517364 3.949738 2.327271.012054 4.194153-1.125641 4.782105-3.600571.342712-1.442535.725952-2.933533.701965-4.396347-.35495-21.642471.798218-43.296402-.701599-64.934403-.649689-9.373489-2.399292-18.156982-9.374084-25.089965-.465668-.462891-.83899-1.060608-.378968-1.885468.145935-.132477.380463-.532471.61792-.534195 16.299805-.119247 32.654999-1.45697 48.873474.709519 11.150452 1.489486 17.465363 8.113617 19.50467 19.14447.751068 4.062622 1.287109 8.171142 1.267059 12.377197-.115936 24.322083-.165192 48.64592.039337 72.966858.039337 4.674881-1.111847 6.788345-6.084473 6.251602-3.293731-.35553-6.656555-.059296-9.988372-.076477-6.503418-.033508-6.521454-.039795-6.523621-6.819458-.006958-21.990341.032105-43.980759-.023712-65.970962-.011383-4.480896.137634-8.96901-.872315-13.424439-2.190399-9.662872-5.504058-12.811172-15.334076-14.234344-3.971649-.574997-7.911132-.73024-11.961059.126144-1.062073 4.063644.553894 7.754318.834473 11.489883 1.861908 24.790818.61618 49.604538.682891 74.402375.024994 9.285629-5.69754 14.163925-15.068664 14.407242-3.995636.10379-7.996185.053009-11.994171.026733-10.862458-.071381-16.302765-5.295654-16.38498-16.302261-.149322-19.990128-.054199-39.982071-.056732-59.973267-.000305-2.499985-.208496-4.94632-.731994-7.424072-2.801514-13.2594-11.633362-19.117951-24.892243-16.203904-8.323501 1.829346-11.469131 8.149247-12.365295 15.679642-.474426 3.986542-2.17363 4.808716-5.743286 4.932495-4.115525.142685-5.605545-1.69197-6.036026-5.430023-1.457093-12.652801-12.31218-16.960678-23.676606-15.305145-1.973358.287475-3.540832 1.266632-3.944564 3.290573-.535401 2.684006 1.134323 4.331039 3.132843 5.753311 4.395797 3.128327 4.834793 5.634659 2.022644 10.035629-.742859 1.162537-1.447708 1.510605-2.819641 1.324433-7.673005-1.041336-14.854432-8.92659-14.947434-16.544602-.084778-6.944656 2.83696-11.410125 9.540192-13.50885 12.066803-3.778015 23.719543-2.275253 34.661667 3.892884 2.48442 1.400466 4.118026 2.071319 6.514007-.072464 2.341049-2.094635 5.251633-3.484604 8.408478-4.189133 11.225861-2.50528 22.510834-2.551773 33.658386.052826 11.575012 2.704498 16.489502 11.49498 18.822357 22.245239 1.355042 6.244202 1.030549 12.586655 1.057587 19.406998z"/><path d="m246.502167 247.540939c5.785278 1.933228 11.382293 2.834595 17.04013 3.063782 4.608857.186737 3.575837 3.378967 3.725098 6.054886.161285 2.890716-.570709 4.730316-4.093964 4.716766-25.991668-.099884-51.988494.204529-77.97377-.222717-12.632599-.207733-20.113785-9.442154-20.345855-24.342072-.29834-19.156387-.10109-38.320449-.124985-57.481216-.004151-3.332153.111419-6.675095-.116242-9.993301-.214447-3.125794-.30043-6.652649-4.007248-7.880707-3.761856-1.246308-6.845123.442322-9.359497 3.201355-4.150451 4.554336-5.726974 10.22821-5.805298 16.109314-.226348 16.991806-.307052 33.992904.016816 50.981552.160125 8.400131 3.547973 15.730316 11.155365 20.043899 5.282928 2.99556 2.290542 5.754242.640411 8.896546-2.209869 4.208191-4.614471 1.699463-6.893967.260193-10.403747-6.568787-15.68222-16.020554-15.693313-28.350449-.015732-17.494705.002228-34.989426-.008637-52.484146-.00357-5.772964 1.343521-11.262817 3.934555-16.354172 4.599076-9.037201 11.706345-14.336975 22.270539-14.061218 2.16455.056519 4.331833.004303 6.497863.008087 13.525177.023606 19.877091 6.225601 19.949128 19.897156.112381 21.326416.042022 42.653839.031448 63.980835-.001251 2.505661.148666 4.953339.840668 7.403503 1.715149 6.072922 4.902084 9.252991 11.239258 9.512345 8.594726.351745 17.21466.087539 27.254211.087539-7.457382-4.225769-13.986801-6.680236-21.121979-7.419738-3.164657-.327988-5.843811-.798462-5.809524-5.110932.045791-5.756561.813995-6.69725 6.676376-6.114319 8.743515.869446 16.881805 3.56717 24.504944 7.955063 4.902145 2.821655 9.797958 5.694275 15.577469 7.642166z"/></svg>