<svg enable-background="new 0 0 512 512" viewBox="0 0 512 512" xmlns="http://www.w3.org/2000/svg"><path d="m308.94986 161.211945c-6.821839.027893-13.153565.04245-19.485077.087448-4.55481.032364-6.960022 2.226028-7.57193 6.868149-.486725 3.692718.030334 7.312438-.017792 10.963378-.158112 11.99112.523438 23.9944-.412598 35.972138-.299499 3.83258.792756 5.652923 5.078797 6.065658 13.59259 1.308854 27.121826 3.148209 39.827881 8.671677 11.414886 4.962189 20.179596 12.26387 22.639068 25.238571 1.002197 5.286881.270142 6.230454-5.015442 6.273209-4.665222.03772-9.331634-.052979-13.996307.007721-2.353638.030609-3.880402-.771546-4.079712-3.293335-.972382-12.301453-9.66275-17.514481-19.758728-21.254044-6.573791-2.434952-13.557129-3.234741-20.437561-4.374237-2.863373-.474228-4.303406.562165-4.307312 3.76532-.005096 4.148361-.033173 8.380356-.817444 12.427918-2.101654 10.846603-6.9776 14.821701-17.576782 12.437728-16.25441-3.655975-31.626221-10.262649-47.129364-16.308639-.388443-.151459-.599747-.757111-1.032959-1.337586 2.06308-4.112228 6.385193-6.710189 8.206528-11.700866-6.282166-.456253-12.336716-.926895-18.39589-1.327515-6.344009-.419479-12.584503-1.419662-18.481872-3.835464-5.152237-2.11055-9.193558-5.177185-9.575958-11.530747-.401139-6.665039 2.432617-11.207291 8.170761-14.156219 6.207946-3.190369 12.849273-4.280091 19.79779-4.238938 3.849289.022827 4.381653 2.250534 4.28331 5.190018-.099869 2.985992.261658 6.341019-4.301178 6.348068-2.833099.004379-5.644348.109482-8.398727.970368-2.422654.757202-5.354691 1.340362-5.537262 4.249862-.218872 3.487824 3.147567 4.017334 5.626754 4.545288 7.686097 1.636719 15.542054 1.63324 23.356171 1.795609 12.441254.258484 12.592163.222183 15.401062-11.94458 2.46022-10.656479 2.991882-21.42186.001785-32.097687-2.578582-9.206543-9.088562-14.220566-18.619018-14.390274-6.829025-.121613-13.662079-.025009-20.493225.000565-.452713.001678-.904602.226913-2.032074.52922 2.758224 2.429382 5.49881 3.693039 8.651825 3.83519 4.987854.224899 4.023391 3.825043 4.170715 6.895035.160309 3.340469-1.211594 4.814972-4.70253 4.761459-10.092651-.154739-19.443283-2.439377-27.525421-8.796478-4.317856-3.396286-8.557968-6.602326-14.376022-7.52002-4.296418-.677688-2.107071-4.880981-2.416306-7.568115-.323532-2.811401 1.439438-3.740539 4.035065-3.732956 10.1642.029617 20.328552-.006332 30.492859-.009781 11.497375-.003891 22.994827-.02391 34.492126.007721 18.861191.051895 29.764466 9.530579 32.657654 28.195511 1.912659 12.33902 1.101013 24.505997-1.816406 36.59903-.336334 1.394088-1.175263 2.798385-.487458 4.611999 3.359437 1.51738 7.03653.993485 10.578827.581574 2.80481-.326157 2.168702-2.970948 2.177338-4.849778.054352-11.830383.151276-23.66307-.031586-35.49089-.080261-5.189667.469666-10.307739.998536-15.424484.857147-8.292755 7.312561-14.010819 16.680725-14.118119 21.492279-.246124 42.989166-.076156 64.4841-.11473 2.66156-.004776 4.936859.571182 4.494293 3.761032-.398254 2.870086 1.856293 7.203628-3.591186 7.821075-4.519349.512253-8.100525 2.92009-11.394776 5.791687-8.335174 7.265839-18.225433 9.993591-29.032226 10.208191-2.901429.057617-5.085663-.675156-4.750977-4.115982.287689-2.957611-1.668335-7.132629 3.886139-7.504303 3.02301-.202286 5.843414-1.147003 8.995636-4.441971-4.345825 0-7.72113 0-11.586639.000321m-41.125245 70.308624c-2.655883-.053085-5.311615-.142166-7.967681-.15271-9.389847-.037293-11.450852 1.464645-15.118439 11.34404 5.594452 1.976501 11.148987 4.092819 16.809784 5.87088 2.644775.830734 5.599945.672104 6.808777-2.419693 1.82724-4.673431 2.509094-9.515732-.532441-14.642517z"/></svg>