<svg enable-background="new 0 0 512 512" viewBox="0 0 512 512" xmlns="http://www.w3.org/2000/svg"><path d="m326.049316 211c-.068664-12.494522-.141296-24.489029-.202362-36.483582-.012848-2.524322-.364257-4.98529-1.349121-7.320114-2.009002-4.762771-6.282806-7.00357-11.404266-5.756118-4.529938 1.103363-5.764832 4.577697-5.76593 8.766769-.005677 21.491928-.024262 42.983887-.005982 64.475784.002991 3.504303-.266693 6.945679-.94226 10.404785-2.007233 10.277497-8.11319 16.072327-18.506104 16.17862-21.989319.224823-43.982864.116058-65.973831-.005524-3.120148-.017273-6.285126-.659607-9.345154-1.373535-17.284485-4.032745-24.073608-17.061295-18.03804-34.208969 3.090988-8.78183 8.366653-15.773041 17.50264-20.935043-8.208115-4.741608-12.840149-11.265976-14.123337-19.743454-1.26976-8.388871.721802-16.146485 6.118118-23.090546-15.746765.167694-26.688904 10.031753-27.54303 25.996246-.790969 14.784317-.448913 29.646256-.15419 44.465027.165238 8.30719 3.894318 15.248261 11.177903 19.542221 4.942428 2.913788 2.224121 5.545563.598052 8.58371-1.977844 3.695495-4.214981 2.510956-6.943374.87442-10.092178-6.053406-15.812439-15.133804-16.158829-26.589813-.512436-16.946854-1.71463-34.00943.664047-50.878235 2.861512-20.292908 17.657395-33.507492 38.13031-34.014053 20.313645-.502625 40.648941-.076203 60.973206-.244034 4.45047-.036759 4.681702 2.401687 4.65509 5.748413-.026001 3.277328-.089569 5.933945-4.593261 5.842468-8.325928-.169113-16.659195-.033905-24.988755.044312-20.38092.191314-21.928924 15.792022-16.462616 28.899856 2.921265 7.00499 10.139191 8.193421 16.934677 8.406662 9.653824.302933 19.328553.277527 28.98465.023514 4.545471-.119568 5.092529 2.102966 5.131165 5.82196.040161 3.865387-.881134 5.76384-5.246857 5.798935-10.811523.086884-21.654373-.855621-32.435196.755371-15.810532 2.36258-22.426758 16.909348-20.121475 30.977601.544205 3.321075 3.176605 5.379913 6.334411 6.532836 3.331498 1.216324 6.800126 1.528534 10.324082 1.526093 16.160583-.011215 32.321213.024796 48.481766.00354 10.604004-.013946 13.927246-3.342026 13.955566-14.177139.055725-21.325196.008606-42.65065.023956-63.975998.011505-16.007507 6.128479-22.173401 21.939759-22.168762 1.832641.000534 3.665283.002823 5.497924.003067 16.24759.002151 25.55774 7.939682 25.930451 24.313003.633026 27.808289.161102 55.641144.237854 83.46344.008789 3.185425-1.487549 3.976074-4.302796 3.890961-3.99472-.120819-7.996063-.014771-11.994506-.023285-7.021912-.014923-7.033692-.020508-7.03125-6.868805.005096-14.32753.023925-28.655075.036895-43.482605z"/></svg>