<svg enable-background="new 0 0 512 512" viewBox="0 0 512 512" xmlns="http://www.w3.org/2000/svg"><path d="m166.936432 192c-.018494-7.499298.002701-14.499008-.07077-21.497726-.039124-3.727066-.098694-7.744339-4.562928-9.013993-4.558014-1.296341-8.166717.912567-10.871933 4.423981-4.113296 5.339127-5.853439 11.698227-5.973449 18.231216-.290726 15.826767-.319367 31.666809-.008103 47.492737.16536 8.407196 3.489319 15.756378 11.075608 20.096451 5.122406 2.930511 2.538681 5.608063.813003 8.854553-2.196106 4.131531-4.520874 1.922333-6.879745.434265-10.403077-6.562591-15.764923-15.970169-15.788651-28.3096-.031387-16.33194-.187836-32.666749.06192-48.994935.146057-9.548004 2.99289-18.341156 9.352371-25.75682 3.485474-4.064331 7.739838-6.772827 13.068284-7.675888 6.128143-1.038636 12.337295-1.046967 18.415741-.194901 8.690521 1.218231 13.266662 7.485474 13.822418 16.918915 1.13855 19.326248.110061 38.641678.033066 57.961273-.018601 4.668442.133606 9.304688.774627 13.947861.999268 7.238174 4.760895 11.272079 11.970719 11.633392 6.150634.308228 12.339874.299515 18.492126.009217 8.006027-.377762 11.926895-4.845551 11.970306-13.584885.105958-21.331253.049378-42.663315.067032-63.995041.001648-1.999191-.056427-4.009232.12117-5.995651.940506-10.520874 6.775208-16.440277 17.277588-17.151245 4.976303-.336869 10.011231-.336609 14.989075-.015839 11.524292.742615 19.354797 9.847046 20.292908 22.745544 1.40451 19.310486.42807 38.636689.629516 57.953873.184204 17.665192 2.536072 20.128571 20.32547 20.130264 17.911835.001709 20.317536-2.42778 20.318878-20.527038.001526-20.165207-.025726-40.330444.011628-60.49559.024292-13.108399 6.575103-19.724182 19.60733-19.913254 2.665924-.038696 5.332855-.013245 7.999329-.008576 15.302551.02678 24.740631 8.512604 24.950195 23.791062.381653 27.826034.081238 55.661102.159912 83.492126.009033 3.194367-1.077606 4.531494-4.343384 4.392823-4.158813-.176606-8.346191-.265473-12.492981.01947-4.370941.300323-5.796325-1.358643-5.768005-5.732163.160828-24.83049.10083-49.662597.054443-74.494034-.007751-4.146804.214081-8.318801-1.059631-12.393615-1.836578-5.875458-5.643952-8.425781-11.653626-7.584839-4.636169.648758-6.732727 3.607254-6.746643 9.980667-.046234 21.165039-.015747 42.330231-.029388 63.495361-.001526 2.331879.095947 4.687149-.182373 6.991715-1.675995 13.876617-8.104096 19.578461-22.158142 19.665649-9.665558.059937-19.332642.085419-28.997528-.015503-13.578034-.141754-21.645203-8.115112-22.380158-21.621231-1.060303-19.48648-.265716-38.984115-.582031-58.473358-.072632-4.475479.281586-9.021515-1.351715-13.348572-1.894257-5.018448-5.174927-7.035736-10.35759-6.790222-5.347549.253357-7.07814 3.631424-7.566009 8.207733-.211151 1.980484-.348832 3.979111-.352646 5.969803-.04094 21.331696-.016876 42.663529-.075806 63.995148-.041351 14.967224-7.084656 21.98114-22.154282 22.075958-10.498764.06604-20.999343.096008-31.497283-.02066-13.163758-.146271-20.970704-7.686386-22.074845-20.85083-1.339798-15.974121-.330231-31.972214-.675018-48.455048z"/></svg>