<svg enable-background="new 0 0 512 512" viewBox="0 0 512 512" xmlns="http://www.w3.org/2000/svg"><path d="m349.343628 202.000092c-.005829 18.326477-.110443 36.153869.056518 53.978714.037995 4.0569-1.121917 5.762924-5.354217 5.439773-3.974976-.303467-8.018066-.345032-11.983734.017304-5.049225.461364-6.174408-1.826874-6.141297-6.409333.167389-23.15654.088776-46.314926.073487-69.472656-.002289-3.497482-.022125-7.00058-.213349-10.491241-.454712-8.29953-4.819793-13.271607-13.002685-13.614243-10.310669-.431778-20.655518-.271576-30.979584-.065216-5.083557.101608-7.354706 3.094803-7.424927 9.276901-.115387 10.161484-.04129 20.325134-.043518 30.487869-.002685 12.495194-.009796 24.990403.002991 37.485581.003418 3.332886-.225159 6.607132-.866394 9.913666-2.048828 10.565338-6.378052 14.643432-16.953644 12.547882-16.817428-3.332428-32.378479-10.747483-48.169021-16.310471-.612107-2.946762 1.188049-3.999771 2.352966-5.265823 12.192749-13.251557 18.955932-28.838898 19.758392-46.819748.296845-6.651627-.603088-13.299835-3.144333-19.576035-2.585632-6.385818-7.420379-10.760711-14.088485-11.370865-8.504822-.778213-17.134766-.188644-26.400391-.188644 2.629303 3.219238 5.67778 3.869171 8.77179 4.120346 5.201431.422257 3.410736 4.316971 3.721328 7.153137.346909 3.167755-1.086822 4.518586-4.324981 4.463471-10.246476-.174423-19.757676-2.366059-27.876267-9.102219-3.977325-3.300064-8.181656-6.126816-13.545822-7.063034-4.819855-.841202-2.418762-5.041077-2.820114-7.821564-.421555-2.920349 1.489029-3.627349 4.031585-3.622268 23.157456.046188 46.320359-.243576 69.470521.178085 14.206359.258774 25.020965 10.397675 27.581069 25.717911 3.750428 22.443497.87117 43.821426-12.243286 63.1017-.560028.823333-1.090957 1.666809-1.619583 2.510818-.081894.130737-.078277.315033-.29367 1.271195 6.115448 2.384262 12.109848 5.471008 18.892318 6.369339 2.64148.349853 4.326905-1.161454 5.304199-3.635712 1.077973-2.729218.98227-5.557968.984986-8.37912.020538-21.325088.011474-42.650238.011658-63.975357.00003-2.832062.10321-5.63443.671325-8.444046 1.892853-9.360977 7.306732-14.452545 16.77945-14.610855 14.656677-.244934 29.329284-.371948 43.978943.034073 14.333679.397247 24.637176 11.657821 24.989563 26.682464.195251 8.325257.048492 16.658554.056213 25.488221z"/></svg>