<svg enable-background="new 0 0 512 512" viewBox="0 0 512 512" xmlns="http://www.w3.org/2000/svg"><path d="m214.89534 258.237976c-4.415405-4.106613-5.198196-9.173004-5.211105-14.421646-.05246-21.331192-.055405-42.662628-.006546-63.993805.00737-3.213623-.437302-6.291214-1.500977-9.307846-2.041977-5.791122-6.062057-8.866974-12.227341-9.38916-16.746307-1.418289-20.594497 2.047989-20.598846 18.818817-.00557 21.497971.018188 42.995987-.011566 64.493912-.016281 11.767959-5.022019 16.827163-16.62938 16.905044-3.999359.026856-8.001449.074433-11.998245-.034881-7.796661-.213318-12.8703-4.621918-13.925049-12.273209-.383041-2.778641-.290908-5.636444-.259216-8.45639.205963-18.328873.022263-36.653946-.837891-54.962784-.425796-9.063538-3.630554-13.747528-9.703163-15.09166-6.993591-1.547989-14.57492 2.159272-17.961036 9.662125-8.047531 17.831467-7.624909 36.188324-1.941689 54.502624 1.669952 5.38144 5.753052 9.313431 11.312424 11.286988 5.259659 1.867172 2.72377 5.642761 1.889107 8.697616-1.022873 3.743729-3.792122 1.603134-5.721276 1.013214-9.629814-2.944641-15.436104-10.000183-18.035682-19.204818-5.968338-21.132874-6.003838-42.150101 4.142166-62.229737 9.976288-19.743759 35.51416-20.348343 48.029815-11.654998 9.030716 6.27272 10.248917 16.490081 10.485077 26.352096.438736 18.321304.122956 36.660248.172211 54.99173.008087 3.007782-.127319 6.232086 4.105301 6.790375 4.463562.588729 6.311798-1.16594 6.325867-6.523941.055557-21.164536.023849-42.329285.045471-63.493927.005462-5.343811.489456-10.646866 1.850464-15.829911 2.205246-8.398025 7.954162-12.970596 16.291656-14.068878 9.103195-1.199158 18.28302-1.126999 27.411347-.036865 11.830932 1.412857 20.097168 10.920441 20.974166 23.685974 1.07518 15.650345.330872 31.31456.508896 46.971146.087128 7.663009-.137054 15.329116-.117706 22.99356.008072 3.199402.713364 6.056397 4.757858 6.339905 3.880356.272003 5.354935-2.154724 5.892578-5.401916.296601-1.791382.23729-3.651337.23877-5.480454.017929-22.164551-.061371-44.329513.051742-66.493515.065278-12.788086 6.203599-20.543319 17.57959-22.482803 3.105591-.52945 6.298432-.797257 9.447419-.768402 5.990173.054901 12.001251.153015 17.960754.700424 9.242126.848938 17.22525 7.827744 19.658569 16.805374 1.26651 4.672882 1.896637 9.44252 1.89151 14.304443-.02185 20.664567-.045624 41.329392.038361 61.993668.02359 5.802902 2.736816 8.139481 7.119964 6.524719 3.424195-1.261505 3.279084-4.220062 3.279755-7.087372.004913-21.49797.023682-42.995956.000458-64.493896-.005249-4.850937.416626-9.598404 1.765167-14.307022 2.48407-8.673477 8.590057-12.760086 17.062256-13.84491 8.957855-1.146988 17.955017-.948547 26.910431.046067 12.240784 1.359497 20.783264 12.08818 20.875122 26.434555.137573 21.497116.046661 42.995651.071869 64.49356.009155 7.802903 1.274566 9.092408 8.907165 9.116608 4.665619.014801 9.337891.101425 13.995148-.109878 3.692932-.167557 6.414917-1.675675 6.411347-6.028824-.028718-34.996109-.030884-69.992234-.055329-104.988343-.000213-.309784-.194214-.61943-.411529-1.269607-3.656983-.188568-7.294403 1.087448-11.074555.995468-11.923981-.290085-20.129974-7.49202-21.1073-18.977425-.878326-10.322151 6.535645-19.330429 17.626953-21.368263 5.956727-1.094444 11.667817-.058861 16.967408 2.6623 6.338134 3.254441 8.628601 9.10495 8.641876 15.793617.084015 42.329133.104523 84.658646.003448 126.987702-.02359 9.883652-6.852691 16.611496-16.709747 16.770431-9.996338.161164-19.999329.153138-29.995697-.009491-8.135376-.132415-13.802826-5.332153-14.852051-13.382019-.38623-2.963287-.576294-5.972168-.586456-8.961181-.066956-19.664627-.043365-39.329544-.089386-58.994263-.01178-5.028732-.194183-10.04245-3.774475-14.145294-4.325104-4.956421-19.384583-7.028458-24.782929-3.210388-4.421112 3.126938-5.126434 7.956421-5.133758 12.906692-.032135 21.664581-.009186 43.329224-.023926 64.993851-.001587 2.331634.056366 4.683548-.21228 6.991241-1.054413 9.05719-6.175507 13.685212-15.259094 13.834717-4.664734.076782-9.336701.13208-13.996918-.037292-6.805023-.247345-11.808472-4.71698-13.245484-11.431275-.597259-2.790634-.784698-5.585647-.786163-8.431213-.011352-21.663971-.009094-43.328308-.152923-64.991577-.041474-6.249817-2.377411-11.556641-8.518525-14.056397-6.065551-2.469009-12.526855-2.164215-18.639556-.412246-5.07898 1.455688-6.194016 6.229507-6.237412 10.90866-.199341 21.493424-.236618 42.988297-.386826 64.48227-.025558 3.657623-.135055 7.333053-.525024 10.965988-.864441 8.05307-5.761459 12.969818-13.772812 12.872497-7.835129-.095184-16.055969 2.14087-23.682617-2.950256m194.753281-131.823669c6.897461-3.226113 8.378082-11.442093 2.727172-15.376839-3.527191-2.455994-7.275787-2.499825-10.707366.011879-3.532074 2.585289-4.086854 6.32856-2.7995 10.307175 1.597595 4.937553 5.455444 5.808654 10.779694 5.057785z"/></svg>