<svg enable-background="new 0 0 512 512" viewBox="0 0 512 512" xmlns="http://www.w3.org/2000/svg"><path d="m349.34256 220.000122c-.008606 12.495621-.1185 24.492539.034942 36.486054.046418 3.630737-1.084564 5.139587-4.850311 4.919036-4.316986-.252899-8.671966-.25946-12.988373-.002258-4.100006.244232-5.69931-1.301514-5.584503-5.435242.2081-7.491729.084809-14.992935.083771-22.490173-.002319-16.660599.003479-33.321213-.027832-49.981766-.033417-17.772384-7.258728-23.995071-26.102905-21.812683 9.80783 12.647003 8.526306 27.30661 8.319122 41.687653-.169983 11.800613 1.170654 23.665817-.914337 35.395675-2.468353 13.886399-12.768891 22.489075-26.962128 22.558136-18.992584.092377-37.986465.107758-56.978882-.001861-16.193283-.093445-26.601379-11.001801-27.872757-27.240677-1.097946-14.02359-.419204-27.956741.316193-41.890823.570953-10.818451 3.113129-21.309464 10.170853-30.297898-13.344162-2.248504-23.028244 3.275421-27.002778 15.30513-1.192352 3.608918-2.191726 7.433396-2.364517 11.201096-.747513 16.298645-1.231842 32.612182.322266 48.904709.588989 6.174698 3.235275 11.286102 8.40007 14.657562 5.079575 3.315811 1.668655 6.15683-.049393 9.127289-2.085739 3.606231-4.39302 1.613678-6.630661.100555-10.486175-7.091064-13.618316-17.913009-13.797027-29.541961-.240097-15.624115-1.383331-31.325013.86-46.888764 1.939972-13.459167 6.235871-25.712021 19.991623-31.809418 4.58754-2.033493 9.418198-3.254135 14.511429-3.234054 8.330094.032837 16.661682-.084397 24.98999.039734 2.323319.034622 5.682434-1.236435 6.601029 1.845352.963363 3.232056 1.858291 7.417313-.927887 9.995575-10.453171 9.673065-11.703262 22.623199-12.309296 35.361389-.622406 13.082459-1.525177 26.315949.695053 39.364471 1.547562 9.095231 6.609528 13.466782 15.758484 13.60962 14.990525.234039 29.990189.227356 44.980759-.009659 9.476593-.149842 15.302673-4.791519 16.141846-15.002121 1.402862-17.069336 1.967498-34.363632-.227021-51.350189-2.00943-15.554322-10.496093-21.741669-26.987396-22.192704-4.554871-.124588-6.193664-1.747421-6.119598-6.242813.066742-4.048996 1.467956-5.543716 5.611206-5.502899 17.658569.173966 35.320831-.038055 52.979645.123077 17.626892.160843 27.840087 10.598008 27.912811 28.262818.056915 13.827469.014587 27.655334.01651 41.983032z"/></svg>