<svg enable-background="new 0 0 512 512" viewBox="0 0 512 512" xmlns="http://www.w3.org/2000/svg"><path d="m211.272446 203.000031c.018509 11.665283-.029648 22.831192.075363 33.995636.085419 9.084686 4.046371 12.996505 13.221329 13.030303 16.497894.060791 32.996627.070099 49.494216-.031021 9.461213-.057998 16.067292-10.418945 12.358155-19.198776-1.056977-2.501999-3.463562-2.176392-5.572357-2.395935-9.774781-1.017654-19.591462-1.921905-28.927643-5.225571-6.059387-2.144149-11.66304-5.166305-14.392319-11.505798-2.888122-6.708389-2.05217-13.192764 2.498901-18.792557 5.233872-6.439911 12.542618-6.071335 19.783432-4.82251 2.073304.35759 4.111725 1.374283 5.971558 2.431138 6.673309 3.79219 6.551056 7.561691-.142364 11.537872-1.900147 1.128769-3.043549.100601-4.47165-.812409-5.488494-3.508895-9.414611-3.431045-11.368911.113877-2.241578 4.065994-.029984 8.163421 5.906646 10.71225 8.696946 3.733947 18.094773 4.100158 27.270737 5.473556 3.863434.578262 3.672943-2.348526 3.672546-4.927338-.002197-14.165084-.005065-28.3302.012207-42.495269.016938-13.896103 6.551545-20.356202 20.584809-20.384034 1.666473-.003311 3.332977-.000579 4.999451-.000213 18.732177.004211 27.487457 8.397217 27.84024 27.274978.280212 14.993287.198822 29.996903.021484 44.99289-.048126 4.069259 1.19574 6.141037 5.161591 7.734955 14.773163 5.937484 26.522766 15.272491 31.905487 30.981689.594879 1.736054 2.214386 4.234314-.65979 5.086121-3.134979.929138-7.411224 4.194031-9.624115.933319-3.970764-5.850952-8.773529-5.580048-13.948181-3.680145-5.91452 2.171539-5.67099-2.559327-7.064881-5.520844-1.895782-4.027771 1.111542-4.798477 3.920197-5.644257 1.729828-.520935 3.455566-1.055404 5.218445-1.594604-2.324677-4.443497-8.067505-8.279556-14.136078-9.434967-1.371704 4.34024-.589722 8.819473-.671875 13.214142-.136353 7.290619-.054901 7.295959-7.574829 7.311554-3.499573.007263-7.014282-.209381-10.494965.04602-4.259765.312653-5.544494-1.572815-5.381073-5.584503.230408-5.656494-.128631-11.337219.107941-16.993195.174713-4.177001-.768005-6.585586-5.615418-6.72203-4.224304-.118927-8.42279-1.155853-12.87622-1.823654-.420838 4.880859-.636994 9.168441-1.186005 13.412964-1.494446 11.554824-8.071747 17.545745-19.785461 17.614563-22.663285.133148-45.328385.112884-67.991852-.007752-10.464325-.055695-18.034241-6.360321-20.343521-16.549469-.848435-3.743515-1.171234-7.550735-1.163391-11.409241.040634-19.99765.007766-39.995453-.015564-59.993194-.002137-1.831116.023513-3.6801-.206803-5.489853-.758987-5.96373-5.068954-8.232117-10.455993-5.494522-3.074784 1.562561-5.193573 4.107483-6.699738 7.17897-2.836853 5.78505-4.082443 11.969483-4.140579 18.34288-.11705 12.830826.011917 25.663666-.04335 38.495331-.046311 10.752533 2.789383 20.041809 12.486724 26.149964 4.806901 3.027771.561661 5.70935-.608963 8.349151-1.299774 2.931-3.407363 2.431122-5.738632.969452-10.455551-6.555542-16.533478-15.573639-16.937713-28.249817-.54187-16.992248-.846726-33.978607.11499-50.956741.448852-7.924332 2.45845-15.475678 7.181641-22.033844 5.181457-7.194473 11.908218-11.478012 21.165695-10.934342 3.32167.195069 6.664917-.010101 9.996902.048325 9.285141.16272 15.119644 5.579422 16.379685 14.849258 1.715133 12.617752.500045 25.287919.889862 38.427247m86.721328-23.489838c.006653 9.827392.020874 19.65477.017762 29.482162-.003174 9.925095-.01001 9.919266 9.559326 11.091416 1.321167.161819 2.642914.359482 3.944092.636123 3.976287.845398 5.375366-.788223 5.32611-4.759674-.173522-13.989364-.146667-27.981399-.15689-41.972458-.002106-2.908248-.716187-5.625976-2.098786-8.122512-2.15744-3.89563-6.657287-5.637253-11.245148-4.391129-4.071258 1.105789-5.261291 4.239594-5.308044 8.048401-.036774 2.997543-.028015 5.995636-.038422 9.987671z"/></svg>