<svg enable-background="new 0 0 512 514" viewBox="0 0 512 514" xmlns="http://www.w3.org/2000/svg"><path d="m290 515c-96.64325 0-192.786507 0-288.964877 0 0-171.268188 0-342.536392 0-513.902302h511.804843v513.902302c-74.043091 0-148.191528 0-222.839966 0m-85.669479-416.056717c-7.271775 2.506744-10.866623 6.864433-11.197602 13.573761-.348098 7.056091 3.983979 14.111748 10.605255 17.272812 15.468918 7.38501 34.499146-1.409271 39.469742-18.524124-2.901306-1.315003-5.843643-2.648606-8.888031-4.028458-4.196411 6.713539-7.408081 14.19809-17.223724 13.01976 7.333633-14.317764-1.004746-23.443626-12.76564-21.313751m8.537567-34.294121c-1.464966-.622413-2.929932-1.244827-4.454712-1.89265-4.076721 6.854938-7.486954 13.969539-17.421494 13.106807.806015-1.487587 1.49318-2.439567 1.868027-3.501762 1.732025-4.908203 2.280243-9.916851-1.301422-14.162437-3.2453-3.846871-7.761887-5.035096-12.680725-3.889466-5.634293 1.312256-9.647171 4.650883-10.888397 10.430405-2.172715 10.11689 3.419952 18.974693 13.49974 21.856445 15.732727 4.49791 30.57042-3.548775 35.889588-19.726776-1.24968-.621056-2.545823-1.265205-4.510605-2.220566m-37.627793 43.253784c-3.812179 6.344269-7.044052 13.480851-16.852676 12.351418.598785-1.213943 1.038437-2.079025 1.455414-2.954887 2.334213-4.903023 1.728439-11.656533-1.460465-15.001152-4.093231-4.293091-9.259155-4.234101-14.346985-2.78444-5.598785 1.595253-8.942825 6.540589-9.112121 12.34237-.31311 10.729301 5.609314 17.976081 16.213486 19.839057 15.510604 2.724976 27.590286-4.458518 33.721389-20.401016-2.988342-1.234062-5.998993-2.47734-9.618042-3.39135z" fill="#fff"/><g fill="#060606"><path d="m204.717667 98.921028c11.373748-2.10762 19.712127 7.018242 12.378494 21.336006 9.815643 1.17833 13.027313-6.306221 17.223724-13.01976 3.044388 1.379852 5.986725 2.713455 8.888031 4.028458-4.970596 17.114853-24.000824 25.909134-39.469742 18.524124-6.621276-3.161064-10.953353-10.216721-10.605255-17.272812.330979-6.709328 3.925827-11.067017 11.584748-13.596016z"/><path d="m213.202408 64.804764c1.630462.799759 2.926605 1.443908 4.176285 2.064964-5.319168 16.178001-20.156861 24.224686-35.889588 19.726776-10.079788-2.881752-15.672455-11.739555-13.49974-21.856445 1.241226-5.779522 5.254104-9.118149 10.888397-10.430405 4.918838-1.14563 9.435425.042595 12.680725 3.889466 3.581665 4.245586 3.033447 9.254234 1.301422 14.162437-.374847 1.062195-1.062012 2.014175-1.868027 3.501762 9.93454.862732 13.344773-6.251869 17.421494-13.106807 1.52478.647823 2.989746 1.270237 4.789032 2.048252z"/><path d="m175.544495 107.738312c3.314849 1.078644 6.3255 2.321922 9.313842 3.555984-6.131103 15.942498-18.210785 23.125992-33.721389 20.401016-10.604172-1.862976-16.526596-9.109756-16.213486-19.839057.169296-5.801781 3.513336-10.747117 9.112121-12.34237 5.08783-1.449661 10.253754-1.508651 14.346985 2.78444 3.188904 3.344619 3.794678 10.098129 1.460465 15.001152-.416977.875862-.856629 1.740944-1.455414 2.954887 9.808624 1.129433 13.040497-6.007149 17.156876-12.516052z"/></g></svg>