<svg enable-background="new 0 0 512 512" viewBox="0 0 512 512" xmlns="http://www.w3.org/2000/svg"><path d="m371.952667 261.373718c-11.618042.001038-22.743835.001038-33.711395.001038-.989563-2.964142.89209-4.306061 1.935974-5.859863 12.829285-19.095536 25.597809-38.227387 34.366638-59.651627 2.397248-5.857025 4.49289-11.823578 4.201325-18.345566-.297394-6.653274-3.681885-10.521423-10.314118-11.280624-2.306274-.264023-4.662445-.265137-6.986358-.16536-4.70813.202179-8.256867 2.216355-10.155487 6.765946-1.864045 4.466598-.397217 8.045379 2.64154 11.365692 2.283508 2.495117 1.418457 6.822128-2.023804 9.769775-3.106811 2.660431-4.622497-.643768-5.981933-2.205993-6.944153-7.979828-8.491425-17.224381-4.883118-27.056183 3.577973-9.749253 11.65564-13.803147 21.321442-14.846421 5.090301-.549407 10.273834-.406082 15.399505.786805 14.685334 3.417663 22.357422 15.744217 18.983735 30.576233-2.475312 10.882415-7.378113 20.683761-13.303193 29.982315-5.906219 9.26889-12.176513 18.305618-18.274536 27.45256-.818023 1.227066-1.56192 2.50354-2.746582 4.411804 7.499359 1.111511 14.3508 1.051331 20.651428-2.228637 3.696656-1.924378 4.513886-6.046677 4.695984-9.970032.247132-5.324997.289307-10.660843.346955-15.992829.043976-4.069976 2.675354-4.334014 5.786651-4.227111 2.862091.098343 5.965607-.376587 6.083924 3.894897.276733 9.994263.33078 20.039917-2.012452 29.785355-3.022979 12.572342-10.055053 16.985428-26.022125 17.037826z"/><path d="m232.855225 148.791534c1.40921.232987 2.497894.39856 2.898864 1.44867 1.500046 3.928558-4.268936 11.597519-8.361984 10.827041-4.127914-.777053-8.252914-.805938-12.391418-.85765-6.154831-.076905-4.844818-4.530182-4.990754-8.202301-.158294-3.982117 1.915635-5.316361 5.601624-4.933426 5.60498.582306 11.215057 1.115616 17.243668 1.717666z"/><path d="m150.555908 241.491669c4.299042-3.954087 8.319061-3.884308 12.876633-.928803 3.144379 2.039063 6.784561 3.313553 10.487106 5.063965-1.878662 4.253891-5.402908 6.60585-8.092682 9.616303-.458023.512634-1.648025.884429-2.264282.663665-6.639557-2.378738-13.328201-4.709793-18.820206-9.397049 1.277939-2.825851 3.717774-3.433853 5.813431-5.018081z"/><path d="m130.855774 178.25473c-1.276917-1.405517-.728439-2.398987.160049-3.268829 1.30484-1.277451 2.648774-2.517014 4.011536-3.732956 9.321884-8.317612 13.681274-8.105118 23.189301 1.62738-4.158082 3.232285-8.125687 6.648087-12.447525 9.533219-2.093689 1.397674-4.470017-.451523-6.64003-1.119049-2.689927-.827469-5.31305-1.872162-8.273331-3.039765z"/><path d="m172.605896 152.358337c3.920761-.98027 7.477448-1.770034 11.007431-2.665039 2.674286-.67807 4.223068.180588 5.494034 2.734848 4.296814 8.63527 4.383285 8.608612-4.950882 10.722214-1.130905.256088-2.267014.49588-3.3853.799942-8.898193 2.419479-12.18219.84433-16.617035-8.18927 2.314743-1.95845 5.336884-2.287979 8.451752-3.402695z"/><path d="m265.015045 238.931839c2.933441-4.207703 7.419617-6.308289 10.791046-9.707932.738129-.744308 1.825806-.893463 2.813446-.598693 4.87793 1.45581 9.794556 2.835174 14.803864 5.783157-4.405762 5.529037-9.822571 8.969162-15.288849 12.29718-1.229645.748642-2.591675-.275543-3.66391-1.023453-3.108856-2.168472-6.890808-3.347763-9.455597-6.750259z"/><path d="m278.114441 180.988434c2.49939-.983246 4.634582-1.92572 6.862945-2.517319 2.904419-.771088 5.914246-3.658691 8.832612-1.20311 3.821228 3.215241 6.388885 7.579728 8.155609 12.275818.607086 1.613587-.711945 2.346909-2.163575 2.626099-1.78479.343231-3.563446.729675-5.3591 1.003021-9.495636 1.445389-13.475494-.829147-17.2099-9.772446-.374511-.896926-.081299-1.5914.881409-2.412063z"/><path d="m198.91687 263.343018c-2.114075-.112824-3.862274.079193-5.399002-.402924-2.194778-.688538-4.688614.016541-6.835159-1.556702-.000824-3.620544 1.905533-6.58493 3.482483-9.62326.774627-1.492447 2.368194-1.674515 3.931762-1.569687 4.634507.31073 9.276734.537613 13.9012.959228 6.571197.599137 3.983398 5.722092 4.245926 9.216416.294403 3.918243-2.593399 4.000671-5.44925 3.730377-2.474044-.234192-4.945205-.498627-7.87796-.753448z"/><path d="m298.142456 221.131531c-3.526672-.640381-6.606201-1.393463-9.731049-1.761292-3.166839-.372772-4.366882-1.459945-3.446289-4.887604 2.822632-10.509674 2.72345-10.664993 13.888764-9.976379 2.612579.161133 7.015899-1.945068 7.013214 3.622559-.003906 8.070907-2.542023 12.558517-7.72464 13.002716z"/><path d="m264.447021 157.525482c4.934601 1.986618 9.457764 3.946991 13.279419 7.219849-7.529296 9.419861-15.839111 9.553085-28.160873.669723 2.945511-8.272278 7.781754-10.943283 14.881454-7.889572z"/><path d="m142.043152 231.326691c-1.141113.399887-1.896134.838302-2.700638.966736-3.360245.536438-6.171387 3.848449-9.879517 2.278854-2.766067-1.170853-8.123695-9.989105-8.941787-14.291092 5.02668-2.270493 10.586776-2.169418 15.917099-3.088257 1.56195-.269256 2.295212 1.012406 3.049484 2.152954 1.468323 2.220246 2.83963 4.536026 4.554886 6.554047 2.407684 2.832672 1.536072 4.356644-1.999527 5.426758z"/><path d="m235.244873 249.051224c2.663269-.635208 4.948502-1.064942 7.181397-1.683579 8.328781-2.30748 12.346237-.314895 16.120147 8.391922-6.935333 3.304795-14.33197 5.49321-21.865188 5.552811-4.397782.03482-4.57898-5.480087-5.693024-8.878723-.96875-2.955368 2.203613-2.553498 4.256668-3.382431z"/><path d="m136.294693 201.282318c-.179276 3.946213-1.97966 5.398316-5.507248 5.136704-2.639816-.195771-5.30632-.019013-7.960831-.031754-6.112793-.029343-6.822311-.898437-5.78994-7.061996.082032-.489792.218857-.970261.325997-1.455994 1.765625-8.003738 1.999184-8.165817 10.21418-7.102142.658119.085205 1.319496.146072 1.976509.238601 8.896729 1.252899 8.896606 1.253784 6.741333 10.276581z"/></svg>