<svg enable-background="new 0 0 512 512" viewBox="0 0 512 512" xmlns="http://www.w3.org/2000/svg"><path d="m381.063232 187.978912c8.041047 12.200257 14.595948 24.710846 16.720429 38.985184 1.756531 11.802139 1.054382 23.462982-9.738403 31.04454-11.600861 8.149201-24.452607 8.466004-36.75998 1.654999-12.779968-7.072571-14.511383-28.850189-3.564178-38.714935 1.502411-1.353851 3.542358-3.649506 5.371826-.901535 1.658569 2.491379 5.729706 5.153992 2.769623 8.523544-3.984894 4.536041-5.86145 8.870682-2.312988 14.265793 3.014038 4.582626 9.721771 6.319397 16.810211 4.599884 5.219207-1.266098 8.736053-5.600922 9.313202-11.663727 1.105316-11.611099-1.83255-22.496261-6.554535-32.895111-7.214752-15.888504-17.3349-29.890777-28.823578-42.953018-3.484955-3.962296-3.148316-5.07222.991852-8.327759 2.60202-2.046036 4.259857-1.369583 6.346466.744721 10.783661 10.926727 20.694671 22.558822 29.430053 35.63742z"/><path d="m158.510498 253.580902c-4.711288-2.007309-9.1465-3.738541-12.716476-7.045898 8.027908-9.667099 14.793212-9.73964 28.945388-.70932-3.47351 8.719528-8.323516 11.135345-16.228912 7.755218z"/><path d="m234.73819 148.88208c4.576111 2.328308 1.27446 4.917023.55513 7.192535-.824936 2.609604-1.749024 5.796021-5.566605 5.103776-4.759796-.863083-9.557892-.754166-14.340439-1.075943-5.450592-.366715-4.016525-4.670517-4.216537-7.909073-.20723-3.355408 1.110092-5.506729 4.87764-5.157547 6.093902.564758 12.183013 1.181457 18.690811 1.846252z"/><path d="m137.825119 169.777893c8.748932-6.199936 13.588791-5.6819 20.901611 2.013947.190995.201004.157746.615081.337891 1.409896-3.703659 2.910202-7.551559 5.984848-11.473846 8.961487-.597931.453797-1.634156.794907-2.308152.609192-4.883636-1.345535-9.8143-2.616867-14.521728-5.119018 1.449432-3.766709 4.605194-5.282425 7.064224-7.875504z"/><path d="m288.532501 177.562225c5.312378-3.078262 7.597077.63945 10.074616 3.786362 7.056762 8.963333 6.590942 10.172409-4.453095 12.008652-11.456421 1.904831-6.210022 2.633682-16.200043-11.086151 2.816407-2.837036 6.803986-3.112458 10.578522-4.708863z"/><path d="m189.094254 162.283722c-2.511673.55069-4.634324.975922-6.716568 1.548263-9.571747 2.630906-12.33899 1.369645-17.211014-8.233963 6.755432-3.31044 13.98677-4.838485 21.283127-6.166534 1.575882-.286835 2.557388.405457 3.165695 1.773026 1.08136 2.43103 2.279358 4.821777 3.177887 7.319549 1.085556 3.017746-1.450592 3.11937-3.699127 3.759659z"/><path d="m299.062012 204.137375c8.479553.217117 8.755493.550232 7.370636 8.352264-1.593231 8.975708-1.995606 9.265473-10.927674 7.874207-.164306-.025589-.333038-.022598-.497497-.047562-9.839356-1.494903-11.370148-4.492462-7.05304-13.70459.657898-1.4039 1.754975-1.887039 3.180481-1.973571 2.494202-.151413 4.986908-.328415 7.927094-.500748z"/><path d="m285.618896 242.683685c-7.491058 5.085205-12.2294 4.104782-19.925964-4.250137 3.915436-3.196732 7.789734-6.425858 11.763825-9.527115.541503-.422562 1.65689-.459457 2.378631-.244812 4.859223 1.445297 9.794525 2.744629 14.304718 5.449905-1.799835 4.208344-5.42279 5.879792-8.52121 8.572159z"/><path d="m268.259705 172.628418c-7.277039.305328-11.716706-5.172348-18.155243-6.683487 1.828918-4.582184 5.003158-6.863632 7.497253-9.663559.708984-.795898 1.822357-.944275 2.802399-.653122 6.689697 1.987351 12.888397 4.963638 19.048645 9.015717-3.155365 4.053054-7.361267 5.441879-11.193054 7.984451z"/><path d="m130.096603 234.226944c-3.069503-3.323349-5.584518-6.573319-7.59439-10.23317-1.479668-2.694381-1.2118-4.40419 2.07653-4.900207 4.077446-.615036 8.172005-1.117783 12.246056-1.753174 1.263717-.197067 2.29187-.013657 3.1147.977081.315918.380356.593658.7948.865707 1.208863 2.059586 3.13475 4.113449 6.273285 6.622284 10.102279-6.08934 1.666489-10.730118 5.825104-17.330887 4.598328z"/><path d="m212.742493 263.215454c-7.887436 1.192566-15.382569-.106262-22.899674-.994476-.856491-.101227-1.529617-.513245-1.868789-1.403198-1.230622-3.229126 4.427139-10.791062 7.918731-10.562912 3.973603.259643 7.946671.703964 11.921433.720535 4.209701.017547 6.168808 1.695892 5.619995 6.018768-.248596 1.958038-.288864 3.942475-.691696 6.221283z"/><path d="m231.979462 252.670181c1.699676-3.457702 17.957199-8.202194 20.431915-6.066253 2.831406 2.443771 5.741089 4.988296 7.521057 8.940002-7.057831 3.70546-14.578934 4.857864-22.05043 6.097275-2.10701.349518-2.665512-1.639954-3.371918-3.106293-.866775-1.799194-1.633209-3.646759-2.530624-5.864731z"/><path d="m137.636322 200.686676c-.05925 4.345779-1.813278 6.10582-5.908325 5.75351-3.298203-.283753-6.639771-.047165-9.961693-.08107-1.154015-.011795-2.735352.131759-3.159317-1.00351-1.697067-4.544327.338272-8.748901 1.689667-12.94426.967209-3.0027 3.495399-2.479415 5.844589-2.101944 1.967674.316132 3.944069.578614 5.910393.902604 7.830642 1.290222 7.829742 1.2957 5.584686 9.47467z"/></svg>