<svg enable-background="new 0 0 512 512" viewBox="0 0 512 512" xmlns="http://www.w3.org/2000/svg"><path d="m293.379456 26.524719c12.485199 9.802441 17.978179 23.034611 19.638397 37.843895 2.268402 20.233917 2.216583 40.589859.330414 60.853852-.921082 9.895515-7.124176 13.725135-16.92273 11.741416-4.62204-.935699-8.838135-3.024581-13.023163-5.035369-9.23349-4.436379-18.481781-4.709839-28.083587-1.31456-7.691147 2.71968-15.45337 4.836319-23.858384 4.628173-22.428146-.555435-36.636627-12.699462-38.467086-35.050201-1.681366-20.530159 1.994918-40.367924 13.931625-57.598831 14.130783-20.398092 34.052032-28.794768 58.784744-26.16565 10.018708 1.065001 19.087158 4.279595 27.66977 10.097275m-80.795929 90.412277c2.120071 1.297631 4.131576 2.835778 6.379333 3.850594 8.950882 4.041153 18.097412 3.839272 27.173737.522652 13.357971-4.881165 26.79306-6.306725 40.544433-1.745415 1.143921.37944 2.522644 1.082588 4.307678-.539551 0-13.296982.002167-27.076607-.001098-40.856232-.001251-5.327339-.327606-10.615997-1.404297-15.86005-3.727875-18.156154-14.691162-29.753689-30.608704-31.87475-18.267593-2.434206-32.651138 4.133036-42.901825 19.414713-9.989807 14.89275-12.292968 31.747768-11.576232 49.14127.270843 6.572578 2.670745 12.678093 8.086975 17.946769z"/><path d="m256.05127 149.542221c.956329-2.231293 2.595123-2.601288 4.301239-2.459137 6.122406.510056 12.235199 1.134918 18.352844 1.703385 2.735779.254226 3.437652 1.813278 2.491516 4.151458-3.480499 8.601212-2.8591 9.312226-11.42926 7.642288-2.258332-.440063-4.640381-.263412-6.966736-.332885-6.553375-.195679-7.00145-.651993-6.966004-7.290924.005326-.997208.069779-1.99408.216401-3.414185z"/><path d="m186.27533 181.800598c-3.844635-1.467087-7.694016-1.976593-11.274323-4.596161 4.39975-5.564956 9.520859-9.361068 15.14241-12.537399.594864-.33609 1.754944-.221817 2.384949.144363 3.828964 2.225495 7.580261 4.58461 12.150238 7.384873-4.791992 3.797378-8.706253 7.026153-12.768295 10.056869-1.668305 1.244706-3.530411.172226-5.634979-.452545z"/><path d="m211.176529 255.46051c-8.110474-.557617-14.298554-4.852264-20.925095-8.475998 5.218491-7.685287 12.053086-9.635345 19.476487-5.861343 3.191711 1.622681 6.870117 2.306503 9.91217 4.908478-1.817612 4.02359-5.396179 6.273361-8.463562 9.428863z"/><path d="m242.155853 263.312805c-3.230133-.455932-6.004425-.887665-8.770645-1.365875-.286239-.049469-.524658-.37561-.996261-.733429-.148087-3.509552 1.818832-6.441345 3.327545-9.492615.891922-1.803894 2.678299-1.699219 4.361465-1.585418 4.295334.29039 8.591263.575012 12.883743.903793 5.081025.389191 5.717133 1.741943 5.275666 8.907059-.275543 4.472259-3.000717 4.431518-6.228211 4.113769-3.12558-.307709-6.262954-.495788-9.853302-.747284z"/><path d="m229.956711 163.127747c-1.368439.284256-2.350159.455352-3.306397.718826-9.026687 2.486969-12.165451 1.029846-16.833404-8.229431 6.8013-3.601136 14.220215-4.962097 21.667618-6.065827 2.008285-.297622 5.813842 6.209763 5.867172 9.53566.052322 3.263977-2.661804 2.766846-4.598358 3.311264-.798066.224365-1.598648.439743-2.796631.729508z"/><path d="m335.578156 176.674408c4.873168-1.239822 5.93753 2.790909 7.760498 5.194122 6.884094 9.075272 6.522735 9.804795-4.529145 11.447708-7.449615 1.107438-12.971161-2.264953-15.586517-9.382309-.844605-2.298538.60022-2.997512 2.206299-3.604797 3.247223-1.227844 6.526184-2.371628 10.148865-3.654724z"/><path d="m310.742249 238.880463c2.89331-4.215363 7.566589-6.095719 10.75415-9.700898.697449-.788803 1.826965-.872894 2.809967-.582305 4.87796 1.441955 9.748657 2.918655 14.82431 5.667511-4.227264 5.575149-9.556366 8.863616-14.837372 12.198425-1.136505.717682-2.305786.278183-3.302642-.330445-3.511933-2.144119-7.348328-3.819259-10.248413-7.252288z"/><path d="m281.450317 261.565735c-3.056091-3.142212-4.397216-6.773056-5.469268-11.212418 6.289367-1.585647 12.287445-4.072586 18.381164-4.334488 5.136261-.220764 7.205872 5.305558 10.447785 9.502838-7.746125 3.692353-15.304352 5.155915-23.359681 6.044068z"/><path d="m312.448364 158.427185c3.994629 1.986649 7.864441 3.456253 10.969696 6.227402-6.396057 9.391983-16.864837 9.539108-28.27771.603851 3.304352-8.801224 8.014801-10.738754 17.308014-6.831253z"/><path d="m174.313538 234.000107c-3.431153-4.250946-6.925614-8.034897-8.444092-13.510605 5.319443-2.616653 11.037292-2.328201 16.460754-3.30365.633621-.113968 1.696518.43634 2.092392 1.0047 2.427887 3.485656 4.720932 7.065246 7.541062 11.345337-6.169602 1.702881-10.759949 6.410141-17.650116 4.464218z"/><path d="m343.227509 221.001984c-1.228363-.272202-2.030152-.483216-2.844056-.623917-13.34497-2.306747-10.356292-.449173-7.968383-12.214844.543212-2.676544 1.779998-3.628616 4.334869-3.552139 2.482849.074295 4.972778.005218 7.457001-.078888 7.220184-.244461 8.049255.664841 7.024994 7.83757-.981049 6.870041-2.547974 8.673081-8.004425 8.632218z"/><path d="m162.890945 198.524673c.58191-2.003616 1.124512-3.565353 1.569291-5.154495.749786-2.678894 2.331085-3.743973 5.169189-3.197265 3.733795.719253 7.518814 1.168258 11.271591 1.794769 2.438935.40715 3.486847 1.722763 2.463654 4.207077-.062302.151321-.0551.333084-.125244.479065-1.418869 2.952515-.314331 7.796265-3.145722 8.978851-4.658478 1.945694-10.179687 1.235291-15.170044.419281-3.998413-.653824-1.667206-4.602798-2.032715-7.527283z"/></svg>