<svg enable-background="new 0 0 512 512" viewBox="0 0 512 512" xmlns="http://www.w3.org/2000/svg"><path d="m228.267365 23.121807c15.361007-8.032699 31.132019-9.280859 47.333526-4.951431 20.692383 5.529501 32.571167 19.605457 36.306671 40.200531 4.005738 22.084957 3.236573 44.461437 1.425812 66.713802-.825623 10.145744-7.244446 13.982124-17.268616 11.787026-4.599518-1.007218-8.795013-3.121796-12.99649-5.107254-9.089081-4.295159-18.199616-4.495705-27.623169-1.197159-7.697006 2.694229-15.442459 4.87146-23.848175 4.674362-22.491257-.52739-36.595902-12.47757-38.577728-34.912056-1.781769-20.169998 2.148666-39.479355 13.223922-56.817925 5.457413-8.543701 12.602783-15.473392 22.024247-20.389896m62.71875 74.378147c-.330842-11.624397 1.159698-23.356758-1.422211-34.846962-3.12854-13.922794-9.103363-26.119968-24.021942-30.522266-16.13971-4.762638-31.140274-2.450289-43.210739 10.274975-16.014908 16.883697-19.610062 37.605003-17.169037 59.766746 1.258514 11.425728 8.473419 17.918839 19.52539 20.573357 7.396729 1.776581 14.552903 1.092552 21.545822-1.471756 13.373902-4.904198 26.829071-6.234734 40.573395-1.661324 1.056092.35141 2.229096.781761 4.177643-.207878 0-6.691025 0-13.797981.001679-21.904892z"/><path d="m267.658508 160.331543c-2.45169-.05777-4.443908-.163467-6.433624-.12793-3.663727.065445-5.397797-1.446747-5.449646-5.338119-.100189-7.518906.632843-8.276978 8.24707-7.43103 4.77298.530258 9.560456.940704 14.347596 1.329071 2.937896.238327 3.823394 1.727722 2.756958 4.353927-3.852143 9.48674-2.835755 8.84523-13.468354 7.214081z"/><path d="m238.584137 262.828461c-2.27066-1.348236-6.563095 1.275085-6.105667-3.474182.532074-5.52443 3.987869-9.428437 7.739181-9.188569 4.459015.285141 8.923661.523087 13.370758.94188 4.454743.419494 5.145203 2.141678 4.633973 8.985-.306611 4.10373-2.779618 4.289948-5.873688 3.998688-4.442383-.418213-8.891342-.766693-13.764557-1.262817z"/><path d="m195.813004 241.712814c4.608963-3.921798 8.862319-4.177719 13.719665-.850372 2.930222 2.007248 6.521652 3.049271 9.768112 4.503555-2.464615 8.125962-8.745788 11.32898-15.847244 8.351197-4.548523-1.907288-9.142944-3.749619-12.906097-7.050095.584182-2.969269 3.320602-3.282684 5.265564-4.954285z"/><path d="m227.565323 163.544281c-9.946747 2.896729-12.730759 1.681656-17.770447-7.876053 6.764191-3.677948 14.183167-5.661575 21.60585-5.891144 4.73169-.146331 4.623169 5.827652 5.757309 9.300812.973526 2.981262-2.413879 2.785812-4.358307 3.290497-1.599685.415207-3.228332.718903-5.234405 1.175888z"/><path d="m199.90863 176.023956c-.838134.575501-1.545135.834381-1.915023 1.33992-6.077469 8.306931-13.170075 4.016007-20.064957 1.603897-2.549439-.891891-3.000336-2.463317-.88591-4.420425 3.666321-3.393539 7.50148-6.570618 11.727203-9.258362 1.20015-.763336 2.509384-1.213745 3.760376-.482834 3.817658 2.230454 7.560211 4.589463 10.984741 6.685852-.22322 2.893204-2.107269 3.29805-3.60643 4.531952z"/><path d="m342.484131 192.746002c-.731537.183411-1.054138.273255-1.382813.31546-11.241882 1.443573-11.185058 1.407105-17.193664-8.143646-1.465698-2.329712-1.086579-3.640823 1.388489-4.534347 3.437439-1.240998 6.875732-2.47963 10.316711-3.710755 1.719208-.615097 3.335449-.475006 4.526123 1.019333 3.181244 3.992584 6.506653 7.914398 7.832916 12.853256-1.309723 2.196717-3.449127 1.464753-5.487762 2.200699z"/><path d="m319.180847 231.186707c2.338379-2.781708 4.776734-3.153504 7.798248-1.884049 3.768158 1.58316 7.66449 2.861176 12.565644 4.660034-4.878815 5.912705-10.087555 9.832627-16.014405 12.620972-2.165954 1.018997-4.233764-1.465988-6.173492-2.629944-7.897766-4.739136-7.867157-4.779983-.656799-10.530319.77713-.619736 1.484436-1.327026 2.480804-2.236694z"/><path d="m309.459747 172.843857c-5.063049-2.484604-9.765716-4.832932-14.415344-7.154755 3.018555-8.73941 8.152985-11.148727 16.059845-7.826721 4.377411 1.839142 8.607941 3.929626 13.357391 7.348877-5.282531 3.106689-8.843536 7.326782-15.001892 7.632599z"/><path d="m286.805389 247.67543c9.890992-2.863586 12.534913-1.711563 17.326355 7.505616-2.349578 2.848007-6.029327 2.906356-9.194305 3.94194-2.501373.818481-5.219757.980804-7.710785 1.822265-4.841461 1.635376-7.582214.169007-9.403412-4.691772-2.248108-6.000092-2.403778-6.183563 3.741425-7.422379 1.617798-.32611 3.223846-.710433 5.240722-1.15567z"/><path d="m171.014557 229.942154c-2.020325-3.189682-4.563492-5.720368-4.884033-9.662857 5.1604-2.232468 10.697174-2.094895 15.987518-3.112549 1.089554-.209564 1.941711.364838 2.522568 1.236099 2.27359 3.410279 4.512741 6.843506 7.110092 10.793488-4.726883 2.900345-9.709519 4.572311-14.721512 5.757675-3.098602.732819-3.924087-3.009979-6.014633-5.011856z"/><path d="m331.649384 211.624115c.179504-5.985794 3.21585-7.84317 8.436889-7.053497 1.133148.171386 2.328247-.101563 3.475952.01535 2.592743.264145 5.842072-1.682754 7.54657 1.722977 1.413574 2.824508-.863373 12.44107-3.039154 14.154892-1.316131 1.036712-2.82959.850723-4.285461.620132-2.611389-.413589-5.202973-.955444-7.79776-1.469467-6.334076-1.254807-6.332886-1.260742-4.337036-7.990387z"/><path d="m165.925873 190.742645c5.475998-1.012161 10.41304.624085 15.443771 1.365372.618759.091156 1.567322.423965 1.712586.860992 1.294067 3.89296-1.449784 7.19664-1.730851 10.886155-.17012 2.232803-1.812484 2.489074-3.569519 2.500137-2.97911.018768-5.958419.038086-8.937469.022705-6.167084-.03186-6.910523-.807907-6.037415-6.944931.418015-2.938263 1.215027-5.824493 3.118897-8.69043z"/><path d="m254.010071 65.907097c5.369934 5.679054 4.008087 11.825806 2.04599 18.306007 3.873962 1.125916 6.56015-.768539 8.823364-3.141502 1.816315-1.904419 3.337006-4.155625 4.667786-6.440003 1.325439-2.275207 2.716278-2.877632 5.271667-1.858779 7.217133 2.877532 7.360291 3.515541 3.45697 10.268257-8.171447 14.136535-23.007827 17.250305-36.195053 12.32386-8.802002-3.288223-13.18396-11.691757-11.389892-20.886925 2.031128-10.410225 13.100586-14.651558 23.319168-8.570915z"/></svg>