<svg enable-background="new 0 0 512 512" viewBox="0 0 512 512" xmlns="http://www.w3.org/2000/svg"><path d="m213.464294 468.405212c21.310578-11.551605 41.59198-23.959076 59.75058-39.628326 28.896027-24.934753 45.465149-56.326752 50.572724-94.099487 3.071319-22.713868 2.879913-45.499176 2.876434-68.30838-.001007-6.593262.030823-6.596161 6.736023-6.603058 3.333038-.003418 6.678039.185699 9.996063-.035645 4.199799-.280151 6.013794 1.165405 5.950836 5.652344-.268493 19.138061.233307 38.268219-1.845916 57.379883-2.328736 21.4057-7.357087 41.891113-17.558869 60.978973-10.373993 19.410065-24.780731 35.396149-41.565124 49.397705-2.672242 2.229187-5.324585 4.482239-7.872681 6.895081 18.850891-8.384522 37.470398-17.171448 52.443176-31.897217 12.399445-12.194946 17.612885-27.484375 18.74347-44.494324 1.227844-18.473327.903594-36.965881.90155-55.456238-.000611-5.756103 1.98706-7.283569 7.67807-6.150482 1.899933.378235 3.058624 1.262421 3.008331 3.290894-.638702 25.749969 2.359223 51.675415-3.391907 77.180572-4.514556 20.02118-16.985046 34.293793-33.605438 45.413422-17.67691 11.826446-37.107879 20.22525-56.440277 28.817413-32.874725 14.610962-65.751327 29.217926-98.585312 43.919953-3.13536 1.40393-5.360382 2.171325-7.042129-1.935913-1.484665-3.625885-1.763459-5.734101 2.616745-7.687165 15.669006-6.986572 31.167038-14.364746 46.633651-22.630005z"/><path d="m268.568329 160.382111c-1.949341-.060868-3.444611-.089524-4.939819-.122025-7.335907-.159439-9.684601-3.413177-7.66774-10.456558.638443-2.229584 2.260238-2.849594 4.178177-2.69896 6.281341.493317 12.551849 1.127671 18.823425 1.739594 1.435547.140076 2.490051.711472 2.61499 2.419708.43158 5.899994-4.766357 10.609741-10.603302 9.545777-.652954-.119019-1.301208-.2641-2.405731-.427536z"/><path d="m203.102722 171.544205c-2.455459 6.811035-12.37973 11.823684-18.652878 9.614166-3.020248-1.063782-6.501327-1.250122-9.25412-4.268509 4.156922-5.184631 9.222428-9.008148 14.790192-12.205536 1.456177-.836243 2.894547.119766 4.164261.926148 2.93428 1.863601 5.846695 3.761642 8.952545 5.933731z"/><path d="m214.697983 162.32251c-1.773041-2.170822-4.093888-3.478043-4.866806-6.661148 6.883529-3.684952 14.451187-5.875779 22.076996-5.847641 3.983612.014694 4.37297 5.76152 5.30223 9.248047.824204 3.092331-2.440017 2.810607-4.395324 3.326522-3.208832.846665-6.518738 1.412598-9.6138 2.561051-3.50821 1.301758-6.127915.614456-8.503296-2.626831z"/><path d="m218.77507 247.97731c-8.945846 9.160752-8.97113 9.210953-20.127334 3.591202-2.866562-1.443985-6.139206-2.412918-8.407166-5.676605 3.476578-3.333634 7.589722-5.384995 11.583633-7.572266.612778-.335586 1.697114-.250839 2.3797.052628 4.684845 2.082763 9.329849 4.256317 13.966538 6.445434 1.293991.610962 1.494873 1.65828.604629 3.159607z"/><path d="m334.863098 176.904907c2.005493-.700256 3.731995-1.006058 4.981842.496857 3.36731 4.049103 6.788086 8.096023 8.224426 13.762375-5.205902 1.976013-10.459747 2.420761-15.665405 3.063598-1.736114.214386-2.776062-.844421-3.572815-2.219909-.50061-.864212-.963867-1.752518-1.50534-2.590302-5.108979-7.904999-5.112-7.90036 3.9151-11.144211 1.096313-.393982 2.178833-.826522 3.622192-1.368408z"/><path d="m245.823547 263.353485c-3.471115.138184-6.404022-.728058-9.35057-.853454-4.800049-.204224-4.313126-2.175629-3.15065-5.764527 1.746185-5.390945 4.629318-7.605972 10.314178-6.141449 2.203873.567749 4.626053.324539 6.95047.381394 7.116394.174102 9.578949 3.773254 7.389893 10.671585-.712433 2.245025-2.328354 2.639862-4.270035 2.489959-2.479813-.191436-4.949661-.511566-7.883286-.783508z"/><path d="m298.725647 159.776306c3.052551-4.35585 6.362823-4.956741 10.880585-2.658279 4.678192 2.380081 9.542022 4.36177 13.907348 7.339599-6.301117 9.531418-16.936187 9.698227-28.41275.771698-.067932-2.481399 2.089111-3.565323 3.624817-5.453018z"/><path d="m318.152588 232.160721c3.009186-3.948822 6.461212-4.298569 10.362793-2.30661 3.20108 1.634308 7.069244 1.824432 10.256622 4.693603-3.864868 5.406784-9.349884 8.523941-14.654815 11.820786-.577424.358841-1.72696.316421-2.359284-.017227-3.925354-2.071152-7.842102-4.185624-11.335907-7.16185 1.550354-3.712647 5.413818-4.265381 7.730591-7.028702z"/><path d="m189.838074 230.37558c-1.541382.653869-2.741516 1.215301-3.978073 1.679687-11.125245 4.178131-11.148163 4.186249-17.507981-6.021682-1.022384-1.641007-2.413147-3.206314-2.102829-5.871781 5.109085-2.039017 10.761856-2.09288 16.232041-2.951813.622024-.097671 1.622421.529496 2.042526 1.112381 2.22319 3.084488 4.357849 6.235672 6.430817 9.423829.635192.976882.218734 1.89653-1.116501 2.629379z"/><path d="m292.442596 259.739868c-2.994232.624451-5.609771 1.051544-8.18753 1.643006-2.482819.569732-4.025238-.170655-5.130982-2.565308-4.777221-10.345795-3.762542-8.538773 4.665101-10.271774 1.29718-.266755 2.570648-.651429 3.850952-.996918 9.259033-2.498627 11.611999-1.424942 16.438537 7.748459-3.184387 2.838592-7.464966 2.974273-11.636078 4.442535z"/><path d="m339.006104 220.24881c-9.048127-1.988159-8.815827-1.940705-7.052674-10.570542.842621-4.124176 2.759796-5.544296 6.736542-5.10643 2.132446.234803 4.313538.013962 6.472595.023407 6.106384.026719 6.598633.514923 6.122559 6.536728-.116059 1.468094-.516663 2.93039-.924652 4.355789-1.683991 5.883576-2.447937 6.323151-8.466034 5.139664-.811768-.159637-1.641754-.226333-2.888336-.378616z"/><path d="m163.607727 196.020233c.902603-5.00885 3.256561-7.156296 8.070297-5.494583.614106.211975 1.307999.19368 1.965241.279694 11.001541 1.439697 10.877014 1.406402 7.998581 12.200546-.715897 2.68457-1.973816 3.493179-4.456757 3.389587-2.150436-.089706-4.30777-.013199-6.462051-.011841-8.89119.005585-9.514633-.855789-7.115311-10.363403z"/></svg>