<svg enable-background="new 0 0 512 512" viewBox="0 0 512 512" xmlns="http://www.w3.org/2000/svg"><path d="m198.262573 476.178131c27.040161-13.579681 52.910996-28.305145 75.603699-48.029907 27.067993-23.527802 43.830688-52.747437 48.947601-88.436157.46576-3.248322 1.34845-6.43628 1.024292-10.399598-3.769653 0-7.393585.062378-11.01474-.011901-10.247162-.210114-16.103149-4.386567-18.294281-12.965485-2.577392-10.091034.806427-18.820221 9.019867-23.808807 5.634125-3.421997 11.918885-4.283936 18.223023-4.48938 4.133697-.134766 5.075256-1.783295 4.942993-5.47699-.214539-5.989594.048462-11.995026-.08905-17.989197-.075715-3.29898.989227-4.981903 4.552673-4.85199 4.492218.163727 8.997375.146363 13.491821.022248 3.503906-.09671 4.691345 1.572113 4.635559 4.874725-.104095 6.162079.179108 12.335327-.073333 18.488587-.163239 3.979461.930023 5.931335 5.208435 6.759094 6.419403 1.242035 12.198181 4.191925 16.564056 9.301391-.742279 2.845185-3.118866 4.085114-4.669006 5.971894-1.72168 2.095489-3.407196 2.024292-5.505432.259491-3.043061-2.559479-6.454346-4.544556-11.077485-4.924347-.815216 5.868652-1.616943 11.393615-1.392761 17.031433.043732 1.099457.516052 2.010223 1.53888 2.358337 9.590179 3.263642 12.422943 11.169464 12.960266 20.006501 1.252716 20.603118.367706 41.013916-9.560791 59.822113-8.335572 15.790588-22.106964 25.964965-37.187012 34.532409-27.428284 15.582886-56.863922 26.910309-85.491135 39.946015-19.545379 8.900207-39.247818 17.455078-58.854767 26.220825-2.991317 1.337372-5.469467 3.006256-7.553253-1.582215-2.040497-4.493103-.775879-6.29013 3.462418-8.149505 10.212189-4.480255 20.186432-9.502869 30.587463-14.479584m91.904694-44.488525c-3.233551 2.732422-6.467102 5.464874-10.601166 8.958252 14.577637-6.534821 27.700775-13.174866 40.041229-21.415467 31.410797-20.975341 34.150544-49.069366 31.829224-79.957306-.194153-2.583038-1.241058-5.446258-5.233093-6.835723-5.369751 40.612548-24.845917 72.897613-56.036194 99.250244m16.057861-126.643738c-2.944183 8.411743-.157837 12.917755 8.488342 13.533966 2.635834.187897 5.295899.032166 7.944886.039764 1.732971.004975 2.852783-.687439 2.98764-2.555236.321442-4.453522.677582-8.904725.964722-13.360413.118561-1.839874-.414368-3.420197-2.603729-3.440918-6.298035-.05954-12.730683-.464355-17.781861 5.782837z"/><path d="m281.324524 150.182114c.230072 3.487442-1.601868 5.999511-2.670258 8.764007-.6987 1.807923-2.190887 2.415589-4.016296 2.279389-5.131043-.382859-10.303223-.509232-15.377319-1.277405-5.009323-.758392-3.071289-5.060181-3.382492-8.08342-.273499-2.657059.672866-4.978577 3.701553-4.695831 7.211212.673187 14.619507-.09964 21.744812 3.01326z"/><path d="m197.299973 167.641647c2.210052 1.703644 4.875289 2.21901 6.15895 4.536759-6.55188 10.358307-18.406418 12.474991-28.218277 4.642456 4.07071-5.071549 9.030106-9.076706 14.699936-12.041199 2.748795-1.437179 4.797745 1.458756 7.359391 2.861984z"/><path d="m217.234756 244.391754c1.105958.457367 1.993439.797638 2.045166 1.733185.144471 2.612228-8.30812 10.412598-10.657608 9.576294-6.35498-2.262055-12.645156-4.749008-18.068405-8.916351 4.289795-7.090393 11.792923-9.36348 18.651337-5.968445 2.517212 1.246078 5.138306 2.282303 8.02951 3.575317z"/><path d="m234.361633 254.416794c1.149613-3.57547 3.180573-4.611923 6.588425-4.1315 4.082001.575485 8.255142.469986 12.375793.814895 4.650315.389221 5.57399 2.476425 4.844284 9.26529-.452148 4.206634-3.18135 3.923217-6.128067 3.648345-4.438842-.414062-8.921508-.531402-13.314437-1.225158-7.220963-1.140412-7.196946-1.29245-4.365998-8.371872z"/><path d="m216.724182 164.410034c-2.498596-2.847397-5.3965-4.911697-7.190246-8.615875 7.052444-3.84848 14.517471-5.104157 21.964462-6.257752 1.995804-.309173 5.823654 6.250153 5.860855 9.560563.036667 3.263763-2.679916 2.777191-4.624527 3.300933-3.364105.906067-6.73674 1.780411-10.104981 2.671174-1.928955.510101-3.871429 1.238967-5.905563-.659043z"/><path d="m324.047058 180.981445c1.572998-.669799 2.780121-1.305557 4.064667-1.583252 3.652984-.789657 7.380524-4.673614 10.738129-2.434066 4.648132 3.100326 7.29071 8.344772 9.487213 14.137756-5.580506 1.968582-10.933991 2.671509-16.332215 3.080856-.71228.054016-1.764068-.373611-2.16983-.9328-2.337219-3.221268-4.564972-6.524719-6.739044-9.859482-.503906-.772949-.023041-1.59256.95108-2.409012z"/><path d="m322.163086 163.463501c.571472.75647 1.252869 1.470077 1.100769 1.850449-1.781586 4.455902-12.645477 8.204467-16.868591 6.001007-3.766114-1.964981-7.617768-3.766007-11.56778-5.706223 1.464569-4.42279 4.815216-6.741943 7.610443-9.424972 1.512787-1.452073 3.422455-.468399 5.142487.193496 4.957428 1.907669 9.690552 4.273484 14.582672 7.086243z"/><path d="m336.583923 232.828064c2.145081 1.131302 2.052979 2.334549.735993 3.713226-3.718842 3.89299-8.20871 6.768357-12.691132 9.654557-1.093323.703964-2.268005.664093-3.320617.034347-3.66153-2.190506-7.280884-4.451569-11.693635-7.163589 4.618348-3.798767 8.451661-7.092652 12.456452-10.162842 1.254547-.961746 2.894775-.257355 4.320007.25592 3.286438 1.183533 6.574249 2.363236 10.192932 3.668381z"/><path d="m179.278687 234.441071c-1.813691.714492-3.389466 1.199478-4.548905-.147339-3.545257-4.11818-7.275024-8.155365-8.841843-13.952973 5.407792-2.310501 10.98433-2.141144 16.300751-3.180694 1.092102-.213578 1.932648.440582 2.509445 1.313537 2.267334 3.431443 4.501496 6.884796 6.864594 10.508866-3.626038 3.077423-8.086273 3.52565-12.284042 5.458603z"/><path d="m295.563904 245.837067c3.92633 2.38002 6.355408 5.63861 9.111786 9.575897-7.554474 3.66864-15.038544 5.388763-22.732453 6.071594-2.359039.209351-2.713134-2.617645-3.516876-4.338257-.894623-1.915054-2.190826-3.739349-2.072418-6.886093 6.13916-1.467972 12.478729-2.983856 19.209961-4.423141z"/><path d="m341.54834 220.544312c-.586395-.111817-.751496-.129105-.916382-.148514-11.226624-1.32222-12.117493-2.958725-7.932922-13.552521.944152-2.390259 2.725738-2.346466 4.418975-2.143662 4.616395.552872 10.614686-2.557388 13.545777 1.651764 2.574524 3.697144.416687 9.081543-1.926239 13.196701-1.57251 2.76204-4.359436 1.580613-7.189209.996232z"/><path d="m168.19487 190.04158c4.509552.650345 8.607605 1.249039 12.693649 1.92067 2.435288.400268 3.509659 1.702423 2.478989 4.200348-.0625.151474-.055374.333511-.125717.479614-1.422959 2.955383-.313004 7.808548-3.147721 8.989685-4.665008 1.94371-10.103363.711288-15.217804.570358-.826705-.022796-1.478988-.488067-1.907806-1.340576-1.775024-3.528702 1.16156-12.695465 5.22641-14.820099z"/></svg>