<svg enable-background="new 0 0 512 512" viewBox="0 0 512 512" xmlns="http://www.w3.org/2000/svg"><path d="m201.302872 285.000061c.001846 51.487213.081146 102.474609-.029785 153.461578-.050248 23.09787 1.767181 34.723755 13.29216 51.029328-.109696.311004-.139435.69815-.34639.919952-7.688919 8.242706-7.658112 8.495423-16.392685-.177643-13.166397-13.073639-18.795899-29.485199-18.789902-47.966156.027924-86.14505.009766-172.2901-.007568-258.435135-.000778-3.830474-.094925-7.663299-.249619-11.490844-.27684-6.849213-3.041107-10.174073-9.114746-11.117188-8.179367-1.270096-13.293289 1.05362-15.69371 7.258896-1.086701 2.809189-1.663651 5.759888-1.663147 8.790238.00328 19.493759-.240952 38.993011.174042 58.478164.13861 6.5094.89447 13.104889 9.487152 15.628906 3.787094 1.112427.914749 6.116486 1.188019 9.668885-11.954972 0-23.608323.583038-35.168427-.203797-7.783257-.529754-12.049553-6.926925-12.157806-16.353637-.21045-18.326203-.110161-36.655945-.143639-54.984223-.007912-4.332077.135704-8.673706-.105881-12.993301-.213485-3.817215-1.310814-7.508286-5.790741-8.203674-4.346451-.674683-6.151848 2.619995-7.559089 5.937927-2.566162 6.050323-3.7165 12.470672-3.840104 18.974075-.218429 11.491913-.20993 22.993607-.006172 34.486069.133095 7.50711 1.760697 14.54013 8.413307 19.353134 4.446213 3.216705.511986 5.909485-.942031 8.425125-1.737534 3.00621-3.782296.71254-5.374466-.477966-8.549652-6.392883-12.067795-15.624268-12.409569-25.674408-.564636-16.603531-1.776779-33.301773 1.619354-49.802567 1.085686-5.275009 3.018929-10.267883 6.047043-14.693298 7.335571-10.72052 24.99968-13.188141 35.184563-5.035919 4.19165 3.355087 5.50444 8.176437 6.376251 13.155685 1.126785 6.435379.905929 12.939408.896393 19.434235-.025208 17.16217-.007233 34.324402-.006928 51.486618.000061 3.608429.670395 6.672088 5.499634 6.75441.974838-2.894516-.629654-5.294236-1.054672-7.776139-1.418305-8.282211-.8452-16.615051-.898484-24.92836-.083297-12.996231-.171875-25.995224-.000869-38.989654.269226-20.457367 10.417145-29.893128 30.808212-28.878815 3.321014.165192 6.670746.303711 9.940445.85231 12.395279 2.079758 18.372406 9.25 18.682754 23.118302.316834 14.156204.134446 28.323944.141434 42.486648.01117 22.660736-.001739 45.321472-.004333 68.482239z"/><path d="m356.71698 148.880508c4.996521 2.928513.620239 5.51677.046173 8.122239-.612671 2.780532-2.287476 4.963272-5.654266 4.182479-4.424469-1.026046-8.913483-.825164-13.385529-1.023178-6.196777-.274383-4.460541-4.968307-4.65979-8.505523-.214538-3.808503 2.014191-4.917954 5.402527-4.585099 5.945068.584015 11.89093 1.159531 18.250885 1.809082z"/><path d="m296.317383 247.365021c-8.984039 9.881256-9.007965 9.92865-20.778504 3.988876-2.704742-1.364883-5.878906-2.214722-7.711975-5.391876 3.176941-3.427063 7.192505-5.338074 11.037079-7.462555.644257-.356033 1.73053-.495377 2.361756-.19957 5.070343 2.376129 10.087677 4.866547 15.08612 7.391464.229065.115708.122772.895203.005524 1.673661z"/><path d="m373.205627 163.104492c8.456849-9.551239 5.867371-9.154053 17.805481-4.159637 3.444947 1.441223 6.921204 3.035476 9.811798 5.524719-4.992095 7.371979-12.028656 9.360992-19.223144 5.733566-2.214722-1.116653-4.533905-2.024566-6.766357-3.108169-1.522034-.73877-3.141633-1.535691-1.627778-3.990479z"/><path d="m266.782837 164.915405c6.219055.054871 9.811279 4.386048 14.999573 7.506104-4.624268 3.63005-8.60022 6.806717-12.6456 9.892395-1.185852.90448-2.612762.461716-3.831665-.035813-4.066559-1.659881-8.71228-1.933639-12.589676-5.067001 3.582413-5.441864 8.800339-8.645981 14.067368-12.295685z"/><path d="m406.610046 192.787048c-2.388244-3.638931-4.544677-6.957168-6.965332-10.681961 4.73111-2.991546 9.812378-4.464523 14.908051-5.614578 2.70758-.611069 3.815338 2.282623 5.200806 4.042603 7.880523 10.01065 7.569488 10.814132-4.852295 12.925445-2.694977.458069-5.469422 1.926193-8.29123-.671509z"/><path d="m293.34491 163.724457c-2.085358-2.76474-4.910431-4.486344-6.366028-8.068436 6.92865-3.425598 14.252106-5.24057 21.713196-6.097961 3.630462-.417176 3.563354 3.800842 4.71762 6.096481 2.603516 5.177994 2.320099 5.44072-3.359375 6.778793-3.546447.835541-7.066375 1.7874-10.585174 2.735352-2.175751.586136-4.258362.918411-6.120239-1.444229z"/><path d="m402.176392 246.260208c-4.23877.111557-10.303162-3.18602-14.530243-7.808716 3.896423-3.18515 7.751678-6.407104 11.698639-9.512451.960083-.755325 2.271667-.464416 3.367767-.075561 4.455933 1.580856 9.092163 2.757934 13.581787 5.443466-3.862396 5.322433-8.964142 8.401245-14.11795 11.953262z"/><path d="m319.647095 250.580963c4.083832.192612 7.738861.263535 11.379883.527481 6.748077.489182 3.842651 5.734177 4.237335 9.148697.453857 3.926636-2.384552 4.105499-5.290161 3.813385-5.76352-.579498-11.521363-1.227814-17.293427-1.704376-2.731872-.225586-3.393097-1.362824-2.601898-3.927765 2.198273-7.126434 3.597565-8.405365 9.568268-7.857422z"/><path d="m263.600464 231.815796c-11.75647 4.19368-12.883423 3.748962-18.726029-7.189468-.687973-1.288025-1.716781-2.526017-.856872-4.492707 4.768539-1.900863 10.107513-2.05954 15.30159-2.900879 1.109405-.179702 1.953796.418152 2.539856 1.274277 2.321441 3.391388 4.599335 6.812576 6.785827 10.062882-1.046844 2.390731-3.075561 2.403091-5.044372 3.245895z"/><path d="m355.058777 255.644608c-2.471436-4.312058-.861206-6.084397 3.227753-6.680588 2.124572-.309784 4.22647-.85167 6.298645-1.431488 9.361969-2.619553 11.878234-1.516022 17.107116 8.056732-6.980652 3.662048-14.541168 5.153595-22.174988 5.888885-2.955078.284577-3.071533-3.433807-4.458526-5.833541z"/><path d="m428.610321 209.508743c-.156464 1.075577-.194153 1.738709-.274567 2.396607-1.085571 8.880905-2.239074 9.775207-10.875152 8.446884-10.919403-1.67952-11.635834-2.996658-7.635559-13.47554.666839-1.746903 1.888153-2.185013 3.452209-2.204376 3.980591-.049271 7.961945-.047181 11.942993-.047501 3.054383-.000244 4.218476 1.501877 3.390076 4.883926z"/><path d="m239.988388 200.384033c2.442276-10.784424 2.442841-10.788406 12.75621-9.317871 1.31543.187576 2.613404.550781 3.932984.646393 4.147766.300583 4.752411 2.217026 3.553863 6.012817-2.716919 8.604355-2.539245 8.660675-11.725937 8.650727-1.163375-.001267-2.336227-.103775-3.488418.008178-4.216538.409623-5.864411-1.456558-5.028702-6.000244z"/></svg>