<svg enable-background="new 0 0 512 512" viewBox="0 0 512 512" xmlns="http://www.w3.org/2000/svg"><path d="m179.099792 340c-.015914-52.492401-.026351-104.484787-.059356-156.477188-.002426-3.830673-.10202-7.664154-.27182-11.491211-.282227-6.361237-2.914002-9.668564-8.382553-10.719696-8.098908-1.556686-13.508347.576858-16.137284 6.489349-1.368484 3.077713-1.954529 6.363266-1.954147 9.731049.002258 19.329147-.241638 38.664062.182541 57.984192.141891 6.46257.550995 13.479522 9.324661 15.632644 3.579666.878479 1.563873 4.913269 1.77832 7.521546.214966 2.614563-1.865676 2.673614-3.802078 2.670502-8.998642-.014435-17.997635.041748-26.99591-.01764-11.019951-.072723-16.777779-5.379715-16.925515-16.498474-.278946-20.993149-.126297-41.991897-.184669-62.988235-.00692-2.490967.049637-5.028656-.390267-7.460175-.560165-3.096237-2.107269-5.707077-5.649955-6.139343-3.350808-.40889-5.283081 1.703796-6.615593 4.354065-3.281967 6.527634-4.45929 13.620575-4.621262 20.794708-.255684 11.324921-.183014 22.661377-.0299 33.989975.104218 7.711075 2.028183 14.559647 8.48922 19.8862 5.031677 4.148163-1.046806 6.532776-2.107803 10.241882-8.237969-4.190063-12.650826-10.558364-14.950279-18.512786-1.340355-4.636643-2.152756-9.420945-2.065186-14.280442.269508-14.956085-1.270271-29.987518 1.909706-44.825409 1.236702-5.770508 3.177628-11.292572 6.794556-15.949508 7.619316-9.810181 23.731628-11.925263 33.82357-4.645264 4.702942 3.392548 6.131424 8.503326 7.048431 13.842972 1.392029 8.105728.818818 16.28598.850724 24.438476.060623 15.497345.025329 30.995072.032989 46.49263.001801 3.662949.876633 6.575318 5.70102 6.525467-4.10318-23.378952-1.43306-46.668792-2.165864-69.864029-.169448-5.363723.890366-10.542617 2.561463-15.672012 2.596512-7.970016 8.261459-12.370239 16.059097-14.092133 7.565949-1.670715 15.305878-1.204132 22.837616.173584 11.836533 2.165192 16.99321 8.648713 17.972809 21.638565.212616 2.819428.14743 5.662629.147629 8.494874.006149 87.653869.024673 175.307739-.014496 262.961608-.007065 15.803925 2.523682 30.812561 12.490402 43.739289.383881.497864.591797 1.131378.798355 1.53775-.132202.405395-.139618.602905-.241272.714874-7.729873 8.516144-7.857528 8.636139-16.700119-.191559-12.873779-12.852172-18.564178-28.945587-18.576538-47.047576-.023346-34.161133.021912-68.322358.038757-102.983521z"/><path d="m137.766022 136.040436c-6.817612 1.829269-13.271569 3.326111-20.007492 3.3246-3.018761-.000671-4.302163-1.181168-4.09594-4.14595.185158-2.662064-.939781-5.961685 3.621071-6.153748 6.648575-.279953 13.24675-.709961 19.581222-3.253311 8.069642-3.240036 12.491028-9.201057 13.649094-17.566811.498032-3.59758.408341-7.335312.113525-10.971092-.544311-6.712509-4.136718-10.528328-10.718917-12.000427-2.918778-.652786-5.826462-1.355232-8.745575-2.006432-7.406037-1.652168-11.537522-6.525253-12.502495-14.223694-1.779205-14.194118 5.050484-23.993492 16.125709-31.415336 9.233384-6.187569 19.38115-10.199827 30.606995-11.142197 2.611252-.219208 5.283356-.817274 5.521835 2.953694.222962 3.525425.589966 7.261104-4.704467 7.483173-7.632248.320114-14.827317 2.132221-20.907212 7.026974-8.058777 6.487873-10.569885 15.066665-8.868423 25.003689.763046 4.456428 4.057678 6.714004 8.098129 7.9663 4.128937 1.279725 8.336746 2.312699 12.439636 3.666916 5.715485 1.886467 8.95488 6.060448 10.355698 11.813797 4.385254 18.011086-5.27768 34.519753-24.493774 41.799126-1.555726.58934-3.126572 1.138733-5.068619 1.840729z"/><path d="m333.035339 152.200104c-.127655-4.163376 1.85553-5.473419 5.322113-5.130417 5.769715.570907 11.53769 1.163025 17.312836 1.673477 3.165253.27977 4.087219 1.70961 2.771301 4.646118-3.939941 8.791916-3.241943 8.845703-11.789154 7.077973-1.919677-.397019-3.96997-.170151-5.96051-.215256-7.296722-.165405-7.551239-.415588-7.656586-8.051895z"/><path d="m287.672394 241.29924c3.149139 1.78746 6.478058 2.461624 9.213714 4.763672-1.925323 3.812988-5.224273 6.113907-7.882019 8.950058-.691131.737518-1.707428 1.085693-2.743194.708328-6.462616-2.354339-12.972138-4.627197-18.440338-9.068939 5.870208-7.755997 11.939209-9.375473 19.851837-5.353119z"/><path d="m415.285889 193.412476c-5.464325 1.917373-9.100098.724639-11.089417-4.580506-.912079-2.432388-3.779632-3.759704-4.150299-7.077911 4.402252-2.528473 9.333466-3.864212 14.209686-5.297058 1.414307-.415604 2.55951.407333 3.448426 1.50917.93872 1.16362 1.906097 2.30597 2.803375 3.500824 6.880493 9.162369 6.360382 10.443207-5.221771 11.945481z"/><path d="m293.349487 163.717651c-2.08136-2.762176-4.915802-4.473922-6.33963-8.068664 6.922943-3.403839 14.231171-5.250076 21.690857-6.090027 3.623688-.40802 3.554657 3.804642 4.708466 6.098282 2.597625 5.163711 2.306488 5.439728-3.36496 6.774261-3.543579.833817-7.060486 1.784607-10.576874 2.729294-2.173614.583939-4.255493.912323-6.117859-1.443146z"/><path d="m275.047241 167.923676c2.128784 1.552627 4.577179 2.107574 5.733826 4.319976-7.022156 10.324509-16.977448 12.195969-28.045654 4.943863 3.825164-5.596863 9.029907-9.569626 14.952636-12.390121 2.602661-1.239426 4.665039 1.943985 7.359192 3.126282z"/><path d="m405.776398 243.847656c-3.988068 4.119782-7.579529 2.760651-11.222504.072403-2.214752-1.634369-5.103271-2.400986-6.853973-5.557724 3.908142-3.160385 7.776794-6.396591 11.780334-9.456268 1.102356-.842484 2.5737-.299301 3.834137.152359 4.160706 1.490982 8.313629 3.003815 13.175018 4.763657-2.976196 4.622833-6.749633 7.16658-10.713012 10.025573z"/><path d="m398.270081 162.605896c2.479553 1.384415 3.449859 2.744141.811523 4.507339-.275146.183869-.558411.355759-.830811.543519-9.672088 6.667221-15.159027 6.148178-25.870391-2.610352 1.463012-3.75621 4.676147-6.188705 7.393585-8.946106 1.314056-1.333359 3.176086-.596115 4.682953.082214 4.520446 2.034897 8.995941 4.169739 13.813141 6.423386z"/><path d="m331.957916 264.147034c-6.545044-.581055-12.627807-1.320832-18.732818-1.726899-3.743134-.248992-4.002167-1.762725-2.758515-4.846252 3.016388-7.47905 2.91919-7.494415 11.165741-6.845627 2.313904.182022 4.651673.081055 6.960724.298691 2.340149.220566 5.697052-.792313 6.367096 2.352585.693176 3.253342 1.419769 6.895584-.748871 10.06224-.298401.435791-1.18576.468201-2.253357.705262z"/><path d="m267.048157 230.485962c-1.556916.628494-2.755005 1.25972-4.030304 1.541595-3.470276.767044-7.078202 4.534623-10.15445 2.43512-4.55281-3.107254-7.792679-7.92363-9.591339-14.062225 5.444626-2.230698 11.029556-2.414872 16.483582-3.105591.627685-.079468 1.585357.577362 2.020935 1.165939 2.160156 2.9189 4.236511 5.90268 6.255188 8.921906.727173 1.087555.635376 2.205505-.983612 3.103256z"/><path d="m357.427612 249.240723c2.654969-.644257 4.93628-1.087113 7.167145-1.710511 9.350494-2.612991 11.864258-1.511077 17.092468 8.050644-6.971649 3.668076-14.538787 5.578781-22.1474 5.753281-4.00476.091797-4.139862-5.392273-5.515075-8.580566-1.062317-2.462754 1.141357-3.002457 3.402862-3.512848z"/><path d="m422.005127 221.192032c-4.009552-.654572-7.579651-1.367111-11.177856-1.88414-2.822846-.405594-3.7193-1.828049-2.849091-4.477509.103393-.314804.18454-.646972.346405-.930954 1.596741-2.801376-.227142-7.652908 3.334442-8.735748 4.852814-1.475372 10.183899-.681122 15.306488-.299286.538147.040131 1.182068.632462 1.514801 1.140305 2.315033 3.533355-1.956604 14.205276-6.475189 15.187332z"/><path d="m260.934052 194.099701c-.192688 1.366348-.267731 2.426987-.732392 3.273865-1.495727 2.726074.410065 7.398773-3.011169 8.44693-4.871781 1.492553-10.203797.601913-15.340912.322006-.310303-.016907-.694611-.166489-.899918-.388214-2.028778-2.190872-1.225097-4.771958-.556473-7.070175.881424-3.029603.500641-8.019623 4.280121-8.154908 5.408249-.193588 11.297608-.335495 16.260743 3.570496z"/></svg>