<svg enable-background="new 0 0 512 512" viewBox="0 0 512 512" xmlns="http://www.w3.org/2000/svg"><path d="m242.429596 129.541718c7.600021.430709 14.746704 1.132415 21.889374 1.093704 5.033752-.027268 4.983734 2.750808 5.105957 6.393615.135895 4.048569-1.551789 5.230408-5.341889 5.075715-26.690841-1.089463-53.009994-4.512574-78.656356-12.252976-18.265976-5.512924-35.828507-12.551102-51.266785-24.086052-6.303818-4.709984-12.0187-10.008018-16.550095-16.516357-15.814628-22.714203-10.69149-49.233162 12.569397-64.190491 13.051926-8.392717 27.604202-12.862595 42.942368-13.244153 71.039047-1.767198 128.638656 27.155984 176.344681 78.224141 4.593719 4.917458-1.011597 6.893746-2.745423 9.853653-2.092804 3.572769-4.350891 1.38694-6.510345-.301056-9.269165-7.245422-18.962738-13.603363-31.130799-14.769104-9.134887-.875137-17.848724 1.213608-26.508422 3.678589-5.563233 1.583572-5.527222 1.393234-8.164063-5.85955-1.782318-4.902428 1.581024-5.259858 4.577942-6.201264 6.973083-2.190422 14.121399-3.518722 22.83783-4.087074-4.531373-2.844078-7.887848-5.120651-11.398591-7.12735-28.048217-16.031967-57.340255-29.052902-89.207382-35.334791-18.108322-3.569647-36.328705-4.433407-54.315613 1.190943-4.790191 1.497848-9.36885 3.452365-13.512222 6.343967-14.698555 10.257938-18.01989 26.831825-8.522331 42.05072 7.043144 11.285935 17.448387 18.667526 28.834312 24.804558 21.781403 11.740189 45.350983 18.073837 69.545136 22.362457 6.216019 1.101837 12.4841 1.909798 19.183319 2.898156z"/><path d="m281.144653 153.14978c-3.453918 8.251877-3.451202 8.226456-12.352722 7.27211-1.803711-.193374-3.636566-.118774-5.456146-.160354-7.029999-.160675-9.542267-3.874909-7.30249-10.652924.724304-2.191833 2.38327-2.687607 4.279022-2.53305 6.089477.496444 12.166443 1.14418 18.251526 1.697418 2.601196.23648 3.51477 1.526733 2.58081 4.3768z"/><path d="m236.698898 161.222015c-5.26445 1.545288-10.252746 2.811432-15.206726 4.199967-1.960312.549438-3.641952.384994-4.98439-1.206619-2.215805-2.627091-5.272064-4.581177-6.835938-8.499375 6.913056-3.691223 14.327378-5.106705 21.807694-6.251129 1.843582-.282043 2.699326 1.247772 3.169144 2.661484.963424 2.898849 3.477951 5.412567 2.050216 9.095672z"/><path d="m195.97052 179.009811c-3.179245 3.872925-6.628464 4.450379-10.821899 2.450684-3.07692-1.467255-6.743119-1.606979-9.973374-4.335556 4.080124-5.502182 9.337128-9.287445 15.04625-12.52301 1.086425-.615708 2.340789-.05597 3.282943.620529 3.315644 2.38063 7.275681 3.866058 10.200577 7.041656-1.630157 3.378785-5.169556 4.245362-7.734497 6.745697z"/><path d="m193.386093 248.836609c-3.009674-1.611557-3.898712-3.182129-.715774-5.114243 1.275558-.774337 2.623581-1.478943 3.753936-2.433883 4.045472-3.417649 8.046845-3.933472 12.531418-.646134 3.148712 2.308151 7.443939 2.601364 10.831543 5.551087-2.352524 3.847061-5.597534 6.613769-8.816864 9.354904-1.349594 1.149109-2.891205.144607-4.211471-.451203-4.378128-1.975875-8.713272-4.047012-13.372788-6.260528z"/><path d="m237.634003 250.252197c5.524368.202591 10.662933.420349 15.785873.832382 4.624008.371872 5.233109 1.878983 4.822739 8.843583-.238068 4.040283-2.538636 4.529266-5.733048 4.190612-5.761947-.610778-11.521911-1.249389-17.292785-1.76297-2.701218-.240387-3.650345-1.447113-2.486481-3.921234 1.313873-2.792984 1.597504-6.179351 4.903702-8.182373z"/><path d="m328.350372 179.255524c11.607972-3.999604 11.607972-3.999604 17.605622 6.55693 3.064117 5.393204 2.978729 5.584229-3.000672 6.815964-.64743.133377-1.280365.343903-1.930938.454452-11.006867 1.870453-12.295899 1.325577-17.346314-8.549667-2.363586-4.621597 2.321991-3.867996 4.672302-5.277679z"/><path d="m318.133972 232.136414c3.002258-3.902985 6.403107-4.318833 10.34137-2.343995 3.215088 1.612198 6.974151 2.025101 10.549988 4.699036-4.192231 5.363892-9.426667 9.049896-15.083161 12.003433-2.457641 1.283249-4.493744-1.497543-6.689636-2.511306-.298157-.13765-.547424-.377228-.834473-.543503-8.112274-4.69925-7.208618-5.46077-.452942-9.467728.704224-.417709 1.276215-1.058441 2.168854-1.835937z"/><path d="m284.537659 261.380005c-3.774323.031097-9.427979-7.538208-8.180512-10.403015.557434-1.280182 1.8302-1.289078 2.92331-1.57312 4.486114-1.165711 8.959808-2.387879 13.474426-3.432221 3.880279-.897629 8.659057 3.132355 11.398834 9.721207-5.952606 3.389358-12.710754 4.140732-19.616058 5.687149z"/><path d="m311.055359 157.830658c4.570404 1.97525 8.712921 3.946564 12.430084 6.697403-6.243591 9.462784-16.786194 9.633697-28.34137.762878 3.055787-8.335037 8.067231-10.782425 15.911286-7.460281z"/><path d="m349.40741 204.589478c2.787567 4.141861 2.053772 12.253692-.874695 15.44075-1.338715 1.456955-2.987213 1.328537-4.610962 1.08023-3.433899-.525055-6.828095-1.333511-10.271057-1.76889-3.193085-.403793-3.636444-1.937439-2.917542-4.802551 2.718781-10.835465 3.908203-11.551377 18.674256-9.949539z"/><path d="m185.005508 218.874908c2.271363 3.47258 4.339203 6.628022 6.752945 10.311295-4.72586 2.914154-9.788879 4.254471-14.712371 5.879379-.990387.326859-1.978943-.199127-2.652955-1.007019-3.367858-4.036667-6.942565-7.952087-8.590576-13.889374 6.481644-1.176864 12.416718-4.128601 19.202957-1.294281z"/><path d="m182.093201 201.050018c-.424073 4.234253-2.342408 5.902939-6.301819 5.390061-2.281159-.295502-4.631897-.043228-6.951203-.056961-6.165542-.03653-6.863037-.798889-6.04692-6.962006.215484-1.627258.770889-3.20961 1.171661-4.812195.900726-3.601852 2.81424-5.468429 6.803558-4.249496 1.406372.429718 2.944504.426758 4.421845.626007 8.991333 1.212723 8.991272 1.21318 6.902878 10.06459z"/></svg>