<svg enable-background="new 0 0 512 512" viewBox="0 0 512 512" xmlns="http://www.w3.org/2000/svg"><path d="m217.675629 464.119934c2.272766-10.100952 8.829971-17.457703 14.213638-26.085205-7.040314-4.238403-12.134262-9.738922-13.103882-18.001282-.416061-3.545318.05893-7.008697 1.891327-10.142059 3.707886-6.340393 12.643219-8.771668 21.440369-5.898224 9.04924 2.955719 11.253494 9.309174 9.907196 29.12973 7.916061 2.575196 16.183334 2.81836 24.439529 2.476013 14.102814-.584716 27.752197-3.238372 40.240662-10.249572 20.022125-11.240692 28.939667-28.716584 28.226898-51.284943-.857971-27.167114-15.355499-41.855743-43.800629-44.571136-3.285247-.313599-5.271148-.819092-5.3125-4.753724-.040893-3.891723.714936-6.315368 5.207215-6.601348 16.080505-1.023621 22.414459-10.569031 24.713836-27.435456 1.154358-8.467285.996827-16.950958.85083-25.431915-.068878-4.002655 1.12677-5.848084 5.379731-5.583801 4.316284.268188 8.661407.084625 12.993866.073608 2.474121-.006317 4.246765.715942 4.27597 3.6232.108612 10.818817.540527 21.648132-2.413818 32.249664-3.168427 11.369751-9.752259 20.209808-20.369477 26.908508 8.225495 3.065888 15.320435 6.604248 21.622467 11.589691 14.97345 11.845581 20.991761 27.666626 19.547028 46.221131-2.363861 30.358276-20.730896 48.38266-47.652069 58.85852-22.817719 8.879059-46.497223 9.074219-70.307739 4.850586-2.972489-.527283-4.597046-.065887-6.174988 2.396942-5.667725 8.84607-11.762329 17.450989-11.248917 28.747864.296051 6.514252 2.554306 10.645874 6.753052 11.51062 5.435928 1.119599 10.444427-1.802398 12.801315-7.953766 1.31929-3.443359 2.246262-5.737762 6.988953-4.325622 4.71106 1.40271 5.169434 3.350128 3.637451 7.499756-4.52887 12.266967-14.31897 18.237884-26.997803 16.091186-12.525894-2.120788-18.770736-9.965546-18.772705-23.598724-.000473-3.326264-.184982-6.673523 1.023194-10.310242m15.186386-49.621521c-4.713028 4.201996-2.419541 10.182221 4.917816 12.82309 3.617477-5.858033 1.913574-11.113465-4.917816-12.82309z"/><path d="m264.901855 160.280396c-3.866058-.574357-8.630493 1.53955-9.084381-4.681-.583007-7.989777.428925-9.003052 8.470917-8.137787 4.779572.514267 9.571991.91156 14.361206 1.332336 2.706085.237748 3.512207 1.741776 2.553192 4.098679-3.318817 8.156158-2.787903 9.588547-11.373291 7.675262-1.438232-.320526-2.975036-.198639-4.927643-.28749z"/><path d="m203.389923 172.17572c-2.995239 4.522858-7.77623 6.714874-11.557403 10.102158-1.368653 1.226089-3.242737.389358-4.7547-.211212-3.793701-1.506958-8.031586-1.946717-12.020783-4.91864 4.22461-5.434983 9.39795-9.310486 15.118073-12.533982 1.093078-.615982 2.325378-.069107 3.283493.604096 3.236404 2.274063 7.004669 3.759231 9.93132 6.95758z"/><path d="m202.71228 253.408142c-3.749481-1.853256-7.142853-3.571777-10.532943-5.296768-.739274-.37616-1.466889-.775253-2.695252-1.426407 4.123032-4.078415 8.191132-6.178863 12.201233-8.325012.634705-.339676 1.718292-.355637 2.378098-.051727 5.194519 2.392517 10.336441 4.899246 15.47966 7.363693-4.384446 9.121628-8.796647 11.131973-16.830796 7.736221z"/><path d="m256.946777 252.093216c1.306366 1.567596 1.180603 3.085403 1.22699 4.565903.230866 7.363433-.575226 8.050659-7.838486 7.046905-4.902313-.67746-9.871612-.402649-14.796753-1.256836-3.405502-.590667-3.601257-1.875213-2.603042-4.669922 2.815475-7.882614 2.806137-8.019424 11.368088-7.024841 4.093307.475479 8.302047-.448624 12.643203 1.338791z"/><path d="m235.3237 161.876251c-3.27359.78447-6.214447 1.335465-9.094086 2.113129-8.586761 2.318939-11.792434.800079-16.438873-8.346665 6.785187-3.673599 14.231186-5.008865 21.681381-6.100723 2.76181-.404754 3.411392 2.465531 3.90271 4.417801.629761 2.502319 4.284195 5.070908-.051132 7.916458z"/><path d="m329.015503 192.300903c-1.732086-2.51213-3.152466-4.768768-4.78772-6.857162-1.936493-2.473129-1.699981-4.179138 1.393433-5.220032.630462-.212143 1.258117-.432785 1.884552-.65657 11.993652-4.284607 16.589264-1.769348 20.552704 11.897171-6.348145.606704-12.173035 4.867889-19.042969.836593z"/><path d="m323.29718 165.039978c-2.894775 3.889572-7.197052 5.433762-10.966034 7.739578-.707489.432801-2.055206.392868-2.847503.019486-4.896241-2.307282-9.718079-4.772431-14.714508-7.259735 1.523468-4.382737 4.979248-6.589951 7.657623-9.401398.879791-.923523 2.216644-.833542 3.300964-.398682 6.11734 2.453339 12.438782 4.527039 17.569458 9.300751z"/><path d="m321.601746 246.373276c-3.965088-2.334122-7.592591-4.541611-12.10669-7.288635 4.792053-3.875397 8.747803-7.209916 12.874359-10.317688 1.048462-.789643 2.602082-.200882 3.833191.311752 4.057709 1.68959 8.486756 2.530121 12.865753 5.347915-5.170044 5.383484-9.82727 10.506379-17.466613 11.946656z"/><path d="m189.210419 230.69458c-1.082535.472794-1.83606.846939-2.633118 1.050522-3.774628.964233-7.760879 4.851807-11.116714 2.76561-4.680863-2.909958-7.612168-8.078644-9.72197-13.999054 5.544571-2.562134 11.370834-2.427552 16.95697-3.292847.591217-.091583 1.53714.645706 1.971314 1.248535 2.127761 2.954224 4.190582 5.959122 6.167221 9.016678.965881 1.494095.186935 2.480667-1.623703 3.210556z"/><path d="m302.223328 251.90744c2.418731 2.609345 2.205474 4.271057-1.027954 5.295532-5.552002 1.759064-11.156037 3.287781-16.921387 4.160187-1.61853.244934-3.46225.822235-4.378052-1.206665-1.346252-2.982452-3.611481-5.678665-3.414429-9.172958.062439-1.107132 1.438355-1.179062 2.405884-1.406174 2.912781-.683685 6.03241-.932907 8.689148-2.171432 6.23346-2.905915 10.825562-1.357209 14.64679 4.50151z"/><path d="m332.426849 208.388c.469361-1.306335.659821-2.854064 1.211945-2.996109 5.365753-1.380462 10.827179-1.002899 16.253723-.336593 1.092468.134125 1.362732 1.369476 1.369019 2.393844.011169 1.824707.268371 3.734299-.1651 5.460846-2.267304 9.031296-3.203827 9.499253-10.48523 7.488266-.157989-.04364-.330658-.031051-.494965-.055069-10.199737-1.491958-10.199707-1.492065-7.689392-11.955185z"/><path d="m183.75 194.043503c-.211014 1.350982-.359604 2.358261-.746506 3.263717-1.211975 2.836457-.194534 7.479813-3.067459 8.457001-4.788177 1.628662-10.162826.720978-15.287948.38501-1.393403-.091324-1.78331-1.231705-1.911377-2.496796-.432404-4.270843.723465-8.212433 2.467117-12.0233.427002-.933243 1.228302-1.78154 2.317657-1.561539 5.415375 1.093628 11.297364.111908 16.228516 3.975907z"/></svg>