<svg enable-background="new 0 0 512 512" viewBox="0 0 512 512" xmlns="http://www.w3.org/2000/svg"><path d="m317.683533 496.024719c-14.938355.269409-28.967438-2.916809-42.590943-7.116211-19.22174-5.92511-37.866897-5.694397-56.756485 1.020569-9.726486 3.457581-19.92839 5.707123-30.263931 5.947571-20.72525.482178-40.666275-2.589752-56.888672-17.073273-11.256912-10.050232-16.560409-23.176605-17.458008-38.043548-1.528946-25.324036 9.452034-44.606263 29.216339-59.585846 15.844819-12.008911 34.033997-19.535309 51.993668-27.519837 18.107163-8.050079 36.568771-15.406616 53.207749-26.390686 13.087615-8.639618 22.985168-19.845764 26.091308-35.680816 1.572723-8.017762.996369-16.28534.76651-24.435944-.135803-4.815186 1.19046-7.135498 6.465576-6.567291 3.954895.425995 7.990906.097931 11.990814.106628 1.995545.004334 3.729554.383942 3.761963 2.900055.214447 16.646301 1.55954 33.468048-8.854065 48.204224-7.904266 11.185302-18.739563 18.804046-30.42395 25.369842-16.308761 9.164429-33.854797 15.641541-50.980011 23.015961-17.493911 7.533173-34.715362 15.504242-49.187011 28.22525-20.557999 18.071167-25.859589 41.050995-19.418549 66.660584 4.493195 17.865051 19.412949 27.845367 38.332535 29.855621 15.757538 1.674286 30.464676-1.90921 45.014816-6.679962 16.725372-5.483978 33.209274-5.60138 50.055237-.647492 13.077698 3.845765 26.35379 7.073121 40.083923 7.761475 20.259552 1.015747 35.359467-7.725952 35.581024-30.934296.733399-76.826172.365509-153.662811.415345-230.495437.010284-15.833267.005584-31.666519-.005555-47.499787-.002594-3.665634.14563-7.294815.713288-10.945327 1.28659-8.274048 5.815063-13.289429 14.022857-14.616181 6.609681-1.068451 13.289307-1.194732 19.909607-.081543 7.159546 1.203903 11.982941 5.536759 14.817841 12.06279 2.565308 5.905411 3.083496 12.166886 3.080078 18.569672-.050171 93.832901-.018799 187.665848-.067871 281.498733-.002289 4.364106.477203 8.659363 1.153656 12.921448.580841 3.65979 2.083466 6.945099 5.354156 9.251587 2.547211 1.796295 1.503418 9.695709-1.355529 11.024811-1.265168.588165-2.604859.116394-3.908722-.195099-14.958954-3.573425-22.862152-13.504486-22.867035-29.078644-.029877-94.66626-.026489-189.332519-.003205-283.998764.001191-4.863052-.396148-9.672852-1.798645-14.309845-1.806701-5.973297-5.691803-8.248276-11.81311-7.311218-4.838867.740738-6.738891 3.444412-6.740051 9.901092-.016907 92.166245-.032501 184.332505.006378 276.498764.003265 7.727021-.605133 15.398499-3.286163 22.615082-5.56485 14.978974-16.651734 23.199127-32.465607 25.129791-1.485535.181305-2.966278.401917-4.90155.665497z"/><path d="m152.61377 238.297256c5.261901 2.483841 10.16864 4.845307 15.430923 7.377884-1.995697 4.014176-5.157593 6.650437-8.007111 9.507767-.494278.495621-1.63005.826706-2.276214.622437-6.762909-2.138092-13.216583-4.917221-19.723755-9.70665 5.039474-3.326401 8.730362-7.109467 14.576157-7.801438z"/><path d="m226.976425 159.127045c-.943405 1.649231-2.101684 2.193374-3.538605 2.087051-5.28749-.391266-10.604721-.581802-15.848312-1.302338-4.359131-.598999-3.316238-4.152511-3.177231-7.094375.138596-2.933792.166245-6.019394 4.329712-5.703095 6.283035.477326 12.553803 1.129761 18.821884 1.783417 2.458069.256317 3.004715 1.733612 2.106415 3.897751-.827545 1.993729-1.657333 3.986526-2.693863 6.331589z"/><path d="m141.146683 164.903687c3.969787 2.369049 7.786438 4.351852 11.480896 7.740371-4.37764 3.411179-8.339691 6.591797-12.412323 9.623871-1.523606 1.134308-3.258774.321945-4.766968-.289886-3.76265-1.526322-8.129944-1.641129-11.891106-5.090485 5.278344-5.044922 9.449181-11.013657 17.589501-11.983871z"/><path d="m279.693359 241.760056c-5.344238 5.451049-10.552856 5.908462-16.102569.900451-1.426087-1.286896-3.570557-1.727737-4.950501-4.161133 3.890015-3.197067 7.739502-6.424713 11.685273-9.530014.548461-.43161 1.648925-.529007 2.36267-.324127 4.880433 1.400833 9.749421 2.864746 14.451416 5.281326-1.214355 4.050034-4.750915 5.3051-7.446289 7.833497z"/><path d="m168.809113 165.589264c-5.701004-.933518-7.268662-5.955139-11.413941-9.539002 7.735886-3.825683 15.184937-6.356018 22.793579-6.261856 4.229096.052369 4.545044 5.983887 5.576096 9.512101.830795 2.842971-2.634537 2.580749-4.574967 3.091461-3.999572 1.052643-8.007156 2.074829-12.380767 3.197296z"/><path d="m294.805389 186.516693c2.158783 3.658981 1.416474 5.152878-2.606689 5.975464-13.799316 2.821472-14.376679 2.684021-21.396484-10.597702 4.605835-2.555603 9.60559-4.067627 14.642608-5.391266 2.117584-.556488 3.30362 1.27005 4.377197 2.71518 1.679291 2.260482 3.202179 4.637161 4.983368 7.298324z"/><path d="m206.476456 254.362427c.030838 1.072418.026153 1.73703.009308 2.401306-.201264 7.933105-.191544 7.852447-7.929795 6.876678-4.927749-.621338-9.931717-.23352-14.862808-1.252899-2.69902-.557953-3.223587-1.573883-2.445724-4.079773 2.386001-7.686523 3.336654-8.348053 11.182739-7.632095 3.138687.286392 6.309418.205078 9.456543.421829 1.962723.135193 4.144119.14328 4.589737 3.264954z"/><path d="m268.585632 162.267227c1.407074.890808 2.720856 1.365738 3.080658 2.825623-7.767975 9.106994-16.530349 9.157455-28.196747.002105 1.464707-3.778274 4.693055-6.205764 7.461197-8.920242 1.29242-1.267349 3.145707-.584152 4.69635.119934 4.220932 1.916519 8.432847 3.852799 12.958542 5.97258z"/><path d="m116.254242 219.591156c2.160004-.406692 3.948273-.745758 5.746391-1.020218 10.732201-1.638061 13.543755.077759 17.667305 10.947205-4.24411 2.571563-9.135177 3.634521-13.720451 5.412918-.642044.249008-1.831932.068054-2.30735-.391098-3.841202-3.709641-7.203598-7.798462-8.954399-12.952164-.298363-.878265.331794-1.558624 1.568504-1.996643z"/><path d="m291.939117 204.603851c2.939881.446747 6.776825-1.364822 7.551575 1.789063 1.104401 4.496109-.073364 9.282516-2.511932 13.32695-1.611267 2.672302-4.426728 1.369949-6.821045.908249-.487793-.094055-.978729-.172043-1.468292-.256928-13.323304-2.310272-9.871125-.60057-7.835816-13.065933.330078-2.0215 1.809632-2.613815 3.640167-2.635162 2.321625-.027069 4.643372-.044403 7.445343-.066239z"/><path d="m248.276169 257.562561c-4.531586 1.195038-8.741715 2.130737-12.850266 3.39624-4.632721 1.426911-7.639267.242829-8.985763-4.612854-.51709-1.864685-2.015702-3.486328-1.205307-6.002533 5.367798-1.482849 10.903167-3.062454 16.468323-4.528915 2.956756-.779114 4.599945 1.348724 6.217834 3.227035 1.597549 1.854721 3.813889 3.243149 4.584808 5.804291-.540405 2.00766-2.376449 2.051331-4.229629 2.716736z"/><path d="m114.106895 190.98381c5.792672-1.329605 11.034989.356675 16.328743 1.445755 1.315934.270737 1.795121 1.352265 1.501618 2.703003-.668091 3.074463-1.252731 6.169632-2.019821 9.21901-.449982 1.788742-2.033058 1.987213-3.587006 1.998657-2.986587.021988-5.973366.032135-8.960037.027679-6.776703-.010131-7.486687-.816131-5.995484-7.554977.568215-2.567764 1.629998-5.026291 2.731987-7.839127z"/></svg>