<svg enable-background="new 0 0 512 512" viewBox="0 0 512 512" xmlns="http://www.w3.org/2000/svg"><path d="m388.534119 93.585503c7.404785-11.957459 15.706115-22.760544 25.045044-32.793103 2.404937-2.583534 4.306274-2.093372 6.126312.257813 1.759827 2.27338 6.37912 3.666195 2.387695 7.910953-10.654449 11.330689-19.889892 23.700631-27.316284 37.423531-12.108246 22.374306-19.476959 46.173653-22.603516 71.412392-2.827514 22.824951-2.843414 45.45639 3.202729 67.806884 2.993347 11.065461 7.556335 21.354218 16.151062 29.378266 5.446594 5.084961 11.919952 7.930328 19.337951 8.268646 7.648926.348816 13.721802-2.95932 17.497132-9.496643 2.69873-4.673126 5.41098-1.985504 8.376037-.979126 3.617768 1.227875 3.70636 3.486267 2.521759 6.654816-9.391601 25.120391-31.871155 25.847168-49.167175 16.93695-14.564514-7.503021-21.996368-20.898712-26.403809-36.075103-6.099639-21.00322-7.352813-42.46135-6.166504-64.242127 1.993775-36.605896 12.052613-70.663422 31.011567-102.464149z"/><path d="m240.055237 161.107727c-4.328598-1.220932-8.344956-.77121-12.30568-.923416-6.193038-.238037-4.608245-4.777481-4.784759-8.359314-.203201-4.123398 2.192215-5.101379 5.739655-4.733246 5.267105.546585 10.529251 1.225067 15.811752 1.514755 4.83667.265229 5.153381 2.423035 3.234207 6.128342-1.611115 3.110504-2.042358 7.42981-7.695175 6.372879z"/><path d="m196.513275 149.724579c3.876419.040451 9.279465 7.405502 8.081009 10.528931-.542969 1.415115-1.956802 1.648742-3.251114 1.945816-2.580932.592407-5.187668 1.088012-7.741669 1.779159-8.706024 2.355957-12.46997.555115-16.696044-8.429535 6.101394-2.992431 12.685195-4.316986 19.607818-5.824371z"/><path d="m166.499176 176.527908c-7.091125 8.866257-14.803345 5.265381-22.494415 1.851609-.451966-.200608-.853302-.515244-1.782608-1.087326 4.199356-5.671494 9.471588-9.247315 14.916641-12.606705.893906-.551483 1.998276-.31044 2.856644.263367 3.654541 2.442962 7.951934 4.001022 10.862304 7.303741-.777313 2.364288-2.707626 2.90979-4.358566 4.275314z"/><path d="m181.706314 243.211975c1.875214 1.02269 3.898346 1.100906 5.034729 3.142593-2.023849 3.600281-5.31813 6.136582-8.286774 8.93599-.497116.46875-1.646392.719055-2.286529.489914-6.499756-2.326752-12.970642-4.747177-18.936905-9.426438 3.703033-3.877121 7.769211-6.077255 11.869019-8.054351 2.347351-1.131958 4.350418 1.047821 6.427536 1.956375 1.977737.865082 3.899856 1.85733 6.178924 2.955917z"/><path d="m224.11261 252.00824c1.798553 2.912307 1.034515 5.775024 1.134598 8.546631.102066 2.82611-1.602814 3.753234-4.153931 3.628509-.496079-.024231-1.004807.010407-1.485977-.088165-6.461258-1.323731-13.22287-.20578-19.57161-2.381226-.657837-7.792053 3.225602-12.012298 10.399491-11.056564 4.427398.589844 8.967361-.367004 13.677429 1.350815z"/><path d="m312.000061 192.274231c-1.717133.322342-3.009918.650619-4.32196.855926-10.500824 1.643219-13.550507-.273788-17.710694-11.407867 4.223206-2.578064 9.109986-3.642441 13.746552-5.27037 1.584137-.556199 2.837433.391387 3.89505 1.61119 2.631714 3.035279 4.850311 6.336411 6.71878 9.890168 1.207154 2.295974.91156 3.825134-2.327728 4.320953z"/><path d="m271.738831 170.335876c-3.216584-2.017944-6.954682-2.368469-9.500672-5.259231 1.457733-3.803497 4.582703-6.111328 7.148682-8.84285.887359-.944595 2.109009-1.005234 3.256286-.585708 6.346741 2.320953 12.632752 4.771591 18.106995 8.947265-5.778625 7.394745-12.345428 9.375183-19.011291 5.740524z"/><path d="m295.680542 243.752014c-5.698334 3.902512-11.995148 2.023148-18.045258-5.398804 3.771729-3.11119 7.535126-6.269638 11.368805-9.340332.975342-.781219 2.270142-.610763 3.369843-.219375 4.472809 1.591858 9.17749 2.65805 13.44516 5.488601-2.458985 4.257645-6.188538 6.720276-10.13855 9.46991z"/><path d="m256.268951 260.425781c-8.768829 2.15918-12.318603-.814697-12.318786-10.187607 5.358139-1.440155 10.782608-2.909576 16.214142-4.352432 2.172607-.577164 3.870941.1931 5.313751 1.858048 2.036407 2.349899 4.155029 4.628601 6.60556 7.344528-5.073028 3.445434-10.386352 3.963348-15.814667 5.337463z"/><path d="m142.366928 218.175186c9.684815-1.413467 10.089096-1.13443 16.287476 11.207306-4.515152 2.677017-9.566407 4.069534-14.524765 5.626648-.606003.190323-1.734681-.2742-2.199677-.804672-3.581344-4.085739-7.357895-8.078522-8.821564-13.496338 2.817917-2.302597 5.988236-1.763519 9.25853-2.532944z"/><path d="m314.680725 204.545135c3.134491-.013092 4.420685 1.218628 3.957825 4.038025-.16098.980545-.20163 1.980484-.308441 2.970368-.973908 9.025955-2.350953 10.11174-11.138367 8.788727-10.680359-1.608048-11.533783-3.253861-7.402405-13.613099.823059-2.063766 2.380036-2.063827 4.020416-2.100219 3.488373-.077408 6.97873-.067017 10.870972-.083802z"/><path d="m133.647018 190.333801c4.959671.405884 9.555893.953385 14.140717 1.583908 2.689804.369934 3.480057 1.642212 2.682861 4.493348-2.779648 9.941543-2.671417 9.971786-12.77539 9.970291-8.533615-.001267-9.453095-1.213959-7.161377-9.587723.607147-2.218475.982239-4.560242 3.113189-6.459824z"/></svg>