<svg enable-background="new 0 0 512 512" viewBox="0 0 512 512" xmlns="http://www.w3.org/2000/svg"><path d="m282.197449 279c.002655 47.322327.00653 94.144684.005645 140.96701-.000122 6.836518-.227294 13.646454-2.322601 20.247284-2.427826 7.648346-7.605438 12.129303-15.346374 14.187958-10.973755 2.918366-21.912766 1.639588-32.629929-.559967-16.193802-3.323639-31.944809-2.967834-47.77005 1.972168-15.264664 4.765076-30.929977 6.606903-46.776916 3.266266-14.831345-3.126526-24.954796-12.992249-26.694581-25.030365-2.648208-18.323822 5.226372-31.581635 19.894288-41.47467 5.397781-3.640656 11.529007-5.851288 17.711685-7.958893 4.504135-1.535431 6.918136-.326447 8.28688 4.007355.491425 1.555999 1.308365 3.009185 2.120865 4.832763-4.033752 2.441223-7.965362 4.55658-11.613754 7.081207-8.753388 6.057282-14.834778 13.766327-14.783875 25.095093.058777 13.080628 8.20929 21.267975 21.281586 22.149781 11.954773.806457 23.059006-2.696412 34.240433-5.796387 14.984222-4.154236 29.780319-4.426514 44.741256.134979 6.482987 1.976654 13.046433 3.812622 20.043122 3.607666 12.751053-.373505 18.589035-5.876984 19.041519-18.646973.106201-2.995849.04361-5.998016.043671-8.997284.001892-81.147613.000793-162.295211.006836-243.442825.000183-2.498627-.089631-5.011963.137329-7.493286.902252-9.863419 6.345794-15.411285 16.21936-16.47493 3.631195-.391189 7.298279-.613418 10.949829-.623993 18.185455-.052673 23.653656 10.666474 25.231049 24.812836.312164 2.799698.093048 5.660324.093383 8.492859.010102 88.479187-.073547 176.958588.119721 265.437378.029816 13.642547 2.806732 26.8479 11.740234 37.886658 1.98935 2.458099 1.537262 4.240783-.816162 5.73471-2.598572 1.649628-4.109283 6.325775-8.611755 2.954529-12.631745-9.457916-19.743988-22.269409-23.016754-37.432465-1.446472-6.70169-1.632477-13.550262-1.636292-20.364349-.04718-84.313477-.023071-168.627014-.042053-252.940536-.000855-3.829056-.176941-7.661408-.392853-11.485383-.083435-1.47792-.365784-2.979095-.796844-4.396926-1.816315-5.973969-5.563568-8.339737-11.707489-7.511582-4.883942.658325-6.891083 3.339081-6.900025 9.788849-.04953 35.824432-.040008 71.648972-.050384 107.973465z"/></svg>