<svg enable-background="new 0 0 512 512" viewBox="0 0 512 512" xmlns="http://www.w3.org/2000/svg"><path d="m393.692383 390.640991c-7.703003-4.623016-10.57193-10.978271-8.904572-19.15979 1.591187-7.807739 7.017548-11.257812 20.903565-13.128052-1.289643-4.70108-4.462708-8.084564-7.648621-11.35205-15.880798-16.287629-35.913391-24.98349-57.433533-30.595246-29.402465-7.667236-59.369171-8.825775-89.606277-7.553344-27.77005 1.16864-55.445328 3.169006-83.027435 6.537414-1.150986.140534-2.293808.405212-3.417908.698425-3.928848 1.02475-6.155762.027619-6.836655-4.452392-.671402-4.417633 1.517304-5.430908 5.094727-5.923554 28.188309-3.881805 56.494873-6.055572 84.934082-7.244934 20.175537-.84378 40.282013-.883301 60.304016 1.315277 30.149689 3.3107 59.472198 9.761078 85.168518 27.121888 13.241425 8.946136 24.398163 19.874664 28.319611 36.067779 2.176208 8.986328 2.074493 18.050964-5.510682 24.99408-6.547729 5.99353-14.190307 5.539245-22.338836 2.674499z"/><path d="m238.506561 206.34729c19.266114-6.073822 37.95636-6.727112 56.218598 2.148468 7.777588 3.779968 12.265106 9.952316 13.038421 18.702637.643921 7.286194-3.511596 14.799591-10.112518 18.074981-7.004181 3.47548-15.733978 2.563065-21.095245-2.204788-7.461731-6.635833-5.984101-19.874786 2.806579-24.875885 1.387573-.789413 2.893616-1.370559 5.181-2.438324-10.052124-3.433029-19.489899-4.238205-29.104385-2.914108-24.415772 3.362488-45.12883 15.394028-65.413666 28.301331-17.166458 10.92308-33.113419 23.517211-48.679871 36.572021-3.269958 2.74231-5.028625 2.36322-7.670974-.655243-2.852585-3.258606-1.595276-4.933777 1.162445-7.176758 26.803054-21.800094 54.613678-42.059829 86.086792-56.75856 5.572341-2.602417 11.223846-5.064636 17.582824-6.775772z"/><path d="m250.755539 446.340576c3.480118-13.106506 9.930801-16.338043 26.200088-13.323181-.021575-6.613312-2.335296-12.353882-5.916534-17.669006-7.872498-11.683991-19.028671-19.458557-31.243591-25.867585-22.391205-11.748382-46.346878-19.329711-70.568375-26.167633-6.402954-1.807556-12.781967-3.720153-19.242386-5.295837-3.450348-.841492-4.226715-2.517395-3.164764-5.726166.944137-2.852783 1.55484-5.317932 5.696701-4.148163 32.20549 9.095612 64.5336 17.809266 94.512375 33.233857 13.501343 6.946685 25.918152 15.318542 34.149109 28.437133 7.986267 12.728608 11.087738 26.406098 4.908142 40.863922-3.911499 9.151337-13.300782 13.980103-22.359375 12.148743-9.046479-1.828918-12.977097-6.681091-12.97139-16.486084z"/><path d="m120.361969 165.382248c11.001419-11.710342 23.660812-17.684128 39.644882-13.643982 4.267014 1.078522 8.099198 3.142181 10.780945 6.804687 4.498138 6.143235 4.694626 14.25322.566345 19.597367-4.268615 5.525818-13.448425 7.603668-21.027679 4.759613-6.872086-2.57872-10.055588-7.759415-9.633347-15.69513.050553-.950164.149048-1.89775.265885-3.351196-9.687653 4.645447-15.644471 12.347519-20.530205 20.923065-10.143242 17.80365-14.689232 37.317017-17.176727 57.461762-.880654 7.131958-1.214623 14.274994-1.209679 21.41925.004013 5.801117-3.86863 4.613404-7.214501 4.678925-4.207389.082397-3.458747-2.647736-3.430641-5.480866.169022-17.036193 1.969399-33.85289 6.263718-50.361511 4.440292-17.069824 10.680344-33.290741 22.701004-47.111984z"/><path d="m157.673264 441.62854c2.261383 11.720764 3.515564 23.036194 1.669067 34.584259-2.459625 15.382538-16.124817 23.870026-29.090302 17.760529-6.464721-3.046265-9.695777-9.489869-8.263092-16.478852 1.540474-7.514831 6.775452-12.248077 13.959397-12.830719 4.547699-.368835 8.863907.605347 13.597503 2.303253.615097-12.094726-1.683532-23.201751-5.472519-34.073242-6.8414-19.629669-18.319595-36.507446-31.270599-52.501068-3.645225-4.501617-3.404838-5.627167 1.468125-8.848633 1.933166-1.277984 3.317573-1.108123 4.724121.605683 16.998092 20.711365 32.421798 42.299103 38.678299 69.47879z"/><path d="m98.201523 334.932495c-7.728188-7.709656-8.931984-17.492462-3.329994-24.877869 5.576019-7.351226 15.229797-9.470886 23.136955-5.080169 8.99778 4.996368 11.996994 15.922516 6.835472 24.901611-5.269455 9.166809-16.320381 11.380921-26.642433 5.056427z"/></svg>