<svg enable-background="new 0 0 512 512" viewBox="0 0 512 512" xmlns="http://www.w3.org/2000/svg"><path d="m412.720215 450.277893c-5.341767-5.738739-6.79657-12.524261-6.868469-19.651062-.134461-13.331909-.368195-26.678039.108581-39.994263.222931-6.226379-1.299316-10.209381-7.603027-11.891571-2.68985-.717834-4.989136-2.670166-7.972107-2.897094-1.823547 1.601989-1.022797 3.744812-1.029785 5.609191-.067536 17.999695-.047058 35.999726-.029755 53.999665.002899 3.005218-.239349 5.948669-.855835 8.917389-2.37326 11.428924-11.579803 16.088501-21.652099 10.121673-5.11139-3.028076-8.76941-3.762634-13.705048.381134-4.558991 3.827607-10.102356 1.951569-13.059052-3.249695-.328613-.578063-.682312-1.167175-.868225-1.797241-3.296386-11.172088-1.123291-21.897522 2.044129-32.581146 8.652618 1.294281 8.954376 1.744019 6.890411 8.956482-1.053192 3.680328-2.125275 7.382904-1.724518 11.273865.406922 3.950988 2.744965 5.158691 6.22992 3.256012 1.017456-.555451 1.979156-1.249115 2.869293-1.995331 3.493622-2.928558 6.852173-2.846466 10.31604.127624 3.259735 2.798829 6.720459 6.752777 11.326965 4.253693 4.126496-2.238678 3.370789-7.372528 3.415406-11.370789.206359-18.49768.094055-36.99884.1026-55.498779.001037-2.199768.114288-4.28656-2.660889-5.223358-15.640961-5.279846-31.658325-8.811768-47.62027-10.907135-1.438782.941284-1.387359 1.990417-1.384338 2.97052.075683 24.495605.149109 48.991272.270263 73.486694.023102 4.675049 1.20636 8.796296 5.403534 11.704743 3.065522 2.124237.186402 4.472259-.327941 6.657898-.545502 2.318176-2.303895 2.421295-4.340882 2.045776-11.032257-2.033661-18.556763-9.950195-19.272796-21.243164-1.445771-22.802032-.287995-45.644958-.707428-68.465454-.055237-3.004913 1.544433-6.932526-1.674378-8.789429-3.840454-2.215545-8.475433-1.317383-12.755859-.916656-2.104859.197052-1.914948 2.297546-1.906647 4.019195.092407 19.163788.340485 38.330078.110352 57.490479-.085511 7.11734.110412 14.326599-1.54245 21.369018-2.323609 9.900177-8.432587 15.452607-18.552704 15.816529-33.309754 1.197906-66.697037 1.975982-99.923706-.262665-46.538544-3.135559-81.801194-25.627503-105.225701-66.250336-5.507145-9.550537-10.262176-19.438507-14.177807-29.734497-.639602-1.681763-1.58488-3.315979-1.308002-5.436737.461952-.300201.968884-.719177 1.545303-.990662 7.662644-3.609069 7.602181-3.578155 10.835488 4.316163 9.269043 22.630828 21.369377 43.348876 40.709022 59.012176 18.645691 15.101227 40.087471 23.747284 63.89695 25.705414 33.088867 2.721313 66.277008.759552 99.419876 1.034454 9.718994.080658 14.833496-5.130279 15.038361-16.058899.415436-22.158874.156585-44.330414.177246-66.496734.001861-2.006287-.370972-3.665955-2.906616-3.755432-12.508515-.441254-24.957001.92929-37.440247 1.250396-.919678.023621-1.968704.426209-2.470917 1.505097-.148254 1.491943 1.046372 2.350708 1.744568 3.426544 5.02536 7.743439 3.473938 16.440246-3.995102 22.021912-7.504013 5.607849-16.34758 7.350463-25.32785 8.227783-13.712052 1.33966-27.348343.948547-40.131439-5.038697-16.301316-7.635101-20.984925-24.064086-11.281998-39.169952 7.434799-11.574799 18.13266-19.457519 30.192368-25.500793 14.736816-7.384736 30.335601-11.921448 46.926986-12.346711 2.765229-.070892 6.772873-1.65509 6.89029 3.772583.110351 5.101838-3.251084 4.70337-6.734665 4.855042-17.11409.745026-33.252808 4.832672-47.50322 14.761139-6.365601 4.435058-11.673843 9.930084-15.094315 17.021698-7.703826 15.972168-1.184616 29.167999 16.224854 32.235412 9.90155 1.744568 19.890839 1.67508 29.719315-.885955 2.899398-.755494 5.73706-1.761414 8.293746-3.398041 3.493073-2.236084 6.693512-4.760712 5.774033-9.546265-.831558-4.327881-4.169907-6.178833-8.056229-7.240845-6.9458-1.898071-13.869079-1.052246-20.775619.268921-1.469666.281098-2.921356.666657-4.368988 1.050598-6.478714 1.718079-6.477112 1.724122-8.19664-4.87326.635773-1.614197 2.228287-1.83197 3.595169-2.323669 18.261581-6.568757 36.997848-10.73108 56.437103-11.878296 7.654724-.451752 15.307801-1.171173 22.950745-.774689 5.153442.267364 5.603607-2.278992 5.596649-6.365784-.083832-49.166351-.054047-98.332931-.05603-147.499435-.000733-18.305161 3.948395-22.237061 22.323486-22.211548 13.694367.019012 20.71817 6.31395 21.281159 20.179214 1.332153 32.806092.555816 65.629166.315673 98.448426-.135315 18.491241.253418 36.986175.388428 55.479614.019226 2.630371.774811 4.457123 3.801392 4.843018 14.892273 1.898864 29.438507 5.356506 43.743408 9.882293 1.066894.337555 2.239014.756745 3.488617.08313 1.150451-1.948242.595978-4.165222.597381-6.271057.036255-54.83313.02591-109.666306.032258-164.499466.001495-13.201309 4.905761-18.103821 18.096221-18.143616.833344-.002517 1.67096.053696 2.49936-.010681 15.667083-1.217834 23.008667 7.747376 23.036621 23.218338.107879 59.666291.144928 119.333222-.087189 178.99878-.023041 5.925445 1.861389 9.197784 6.807983 12.34143 22.580567 14.35022 41.281525 32.562134 53.740143 56.590424 1.605377 3.096283 2.893768 6.360473 4.248871 9.580627.375153.89148.46167 1.904419.672028 2.824188-1.736786 1.704285-3.920014 2.106629-5.906128 2.883118-2.081543.813721-3.51294.117462-4.300049-2.02243-5.086365-13.828736-16.455048-17.302094-29.542694-17.66687-3.483002-.097077-5.339325-1.010773-5.104279-4.860535.162506-2.661835 1.117066-3.937775 3.906189-3.927246 4.62735.017456 9.245636.085998 14.154755.383331-9.765473-14.157928-22.836884-24.480041-37.134094-33.612823-.644227.731872-1.227753 1.086456-1.224488 1.435516.140045 14.971344-1.159881 29.968842.775238 44.908813.401551 3.10019 1.480286 5.976502 4.16034 7.652222 3.710022 2.319702 1.500061 4.874848.644867 7.367371-1.074189 3.130798-3.363007 2.432434-5.755982 1.754699-4.231201-1.198425-8.130829-2.943145-11.625488-6.250671m-23.403473-94.064087c.267303 2.062958-.945343 4.833679 1.338654 5.992279 4.636474 2.352082 9.540374 4.177002 14.746704 6.394989.185608-2.167785.394836-3.473511.395233-4.779266.017181-56.939728.022094-113.87944.001129-170.819168-.001221-3.320053.015045-6.672043-1.262543-9.841843-2.015014-4.999359-7.442444-7.080154-11.894317-4.508011-3.480286 2.010819-3.332123 5.43483-3.331635 8.807404.008301 55.940887.006165 111.881759.006775 168.753616m-79.253388-16.939422c.008057-47.818482.024415-95.636979.005341-143.45546-.001251-3.161011-.137695-6.335602-.455078-9.479248-.349274-3.459412-1.665405-6.475876-5.127502-7.974671-6.347809-2.748092-10.672913 1.022492-10.571351 9.395417.589966 48.641128-1.323577 97.280746-.028503 145.923507.339844 12.766114-1.303436 10.651062 11.397064 11.091706 3.443787.119476 5.021515-1.119812 4.780029-5.501251z"/><path d="m98.312927 221.997467c.310913 6.630859-.500496 12.774902.732834 18.9142.974289 4.849884 3.346077 8.620544 7.023941 11.715408 5.205834 4.380646 5.226715 4.695313.339363 9.877289-9.633247-3.469086-16.436279-12.77063-16.638115-23.845261-.279129-15.315796-.456192-30.651657.007675-45.95816.562485-18.560196 16.856911-29.191391 34.525879-23.048431 5.818329 2.022842 8.977021 7.340316 9.012925 15.722488.074905 17.48558.032089 34.971695.031021 52.457581-.000138 2.332504.182144 4.608383.726135 6.915695 1.217407 5.16362 4.575561 7.688766 9.590103 7.83844 7.145447.213241 14.302002.054245 22.931854.054245-6.162338-3.967087-11.649475-5.876862-17.517959-6.269196-3.952072-.264221-5.268738-1.905365-4.958985-5.643616.335358-4.046981 2.963486-3.601974 5.758362-3.361465 7.099518.610916 13.704956 2.747757 19.726608 6.489151 8.204743 5.097809 16.929413 8.52977 26.678803 8.77832 3.202972.081665 3.843842 1.828339 3.888885 4.511872.048371 2.883148-1.006378 4.231994-4.082458 4.219848-21.482147-.084839-42.968903.177979-64.445282-.189789-10.379768-.177764-16.668732-8.417266-16.78373-20.943206-.137588-14.986695-.034439-29.975541-.048942-44.963456-.003067-3.163711-.076447-6.327301-.095062-9.491073-.019059-3.237808.027572-6.842179-3.778008-7.843903-3.8013-1.000595-6.71656 1.311676-8.757431 4.359391-2.65567 3.965835-3.804916 8.467849-3.829323 13.225814-.044418 8.659333-.029548 17.31894-.039093 26.477814z"/><path d="m224.112549 213.000046c-.148178-7.327637.016708-14.180054-.520569-20.976944-.73822-9.338761-6.882431-14.391251-17.010071-14.649368-9.335464-.237916-14.757294 4.083175-16.099335 13.466369-.449691 3.144089-1.515914 4.323929-4.632598 4.392349-3.437867.075486-4.819214-1.541229-5.091248-4.70317-.9039-10.506302-11.288834-13.811295-18.667953-12.696961-1.944306.29361-4.124619.738281-4.580323 3.191269-.43013 2.31543 1.028565 3.790299 2.803406 4.863236 1.928101 1.165634 3.745392 2.12059 2.754364 4.995895-1.180725 3.425644-2.704147 5.145569-6.536499 3.013855-4.246506-2.362137-7.764648-5.198578-8.843201-10.187149-1.440033-6.660523 1.598526-11.842682 8.388062-13.707459 9.756653-2.679672 19.187042-1.531936 27.923172 3.614884 2.181122 1.284973 3.579437 1.637039 5.623382-.140656 2.536942-2.206497 5.666108-3.503036 9.037919-3.98114 9.11972-1.293152 18.289062-1.65126 27.29425.448563 9.7146 2.265243 15.513382 10.467727 16.403351 21.953735 1.160583 14.978302.330582 29.973969.531524 44.960022.0849 6.331665-.128173 12.669174.044938 18.997162.107772 3.939743-1.106614 5.972641-5.413758 5.541244-2.639999-.264404-5.344879-.238861-7.990692-.005004-4.131302.365142-5.549118-1.284485-5.49379-5.428727.188935-14.151825.074433-28.307693.075669-42.962005z"/></svg>