<svg enable-background="new 0 0 512 512" viewBox="0 0 512 512" xmlns="http://www.w3.org/2000/svg"><path d="m513 454.535339c-2.160828.47107-4.804596 2.029084-6.001617-1.212097-5.171265-14.0018-16.638337-17.528778-29.914765-17.925903-2.840942-.084931-4.926971-.49881-4.93866-3.98407-.010711-3.191894.969666-5.066009 4.617432-4.786377 4.566986.350159 9.153107.450501 14.647675.700317-10.993622-14.176818-23.942078-24.859527-38.103363-33.821929-1.186707.270751-1.418915.887939-1.412659 1.569213.129944 14.161713.229095 28.323975.448456 42.484375.06427 4.147187 1.413513 7.874085 4.886169 10.484742 3.191803 2.399505.770905 4.799408-.008911 7.107421-.882477 2.611908-2.929413 2.047089-4.988708 1.544587-13.106446-3.198243-19.019226-11.764435-19.168702-28.253174-.119354-13.164551-.277649-26.336945.062561-39.493378.131928-5.10318-1.284454-8.223602-6.283264-9.721893-2.976349-.89209-5.570953-2.966248-8.881683-3.074158-1.593262 1.758515-.955994 3.851227-.963623 5.748596-.06424 15.998413.056183 31.99823-.111694 47.995179-.053833 5.132782-.306916 10.360626-1.337891 15.365936-2.200928 10.684936-11.284454 15.004669-20.850555 9.507446-5.410126-3.108978-9.338624-4.09555-14.626984.314301-4.630737 3.861572-11.046753 1.255584-13.296692-4.734406-3.970825-10.571442-1.42984-21.014435 1.328796-31.338806.784851-2.937256 3.179444-1.628967 4.967865-.96936 2.111512.778778 4.762879 1.205932 3.44336 4.715637-1.649475 4.387482-2.648682 8.944702-2.50647 13.673248.054504 1.813049-.062103 3.85199 1.876587 4.85672 1.895721.982483 3.505585-.105652 5.078583-1.124695 7.544647-4.887634 7.575805-4.911865 14.730926.659851 2.587494 2.014893 5.31839 3.999359 8.614411 2.474701 3.159942-1.461761 3.26419-4.910553 3.280761-7.842743.112793-19.99765.01706-39.996521.142487-59.994018.018341-2.925507-1.266266-4.147156-3.771179-4.951019-14.120636-4.531525-28.513092-7.873078-43.172943-10.090394-3.172791-.479888-4.524353.609589-4.510773 4.013794.095276 23.830872-.00177 47.662507.103515 71.493287.020264 4.583221 1.169678 8.969757 5.146058 11.947479 3.162017 2.367828.895355 4.785736.112365 7.125549-.978393 2.923584-3.175018 2.221069-5.364837 1.617462-12.152466-3.349518-18.474854-11.246887-18.556305-23.977478-.146057-22.830475-.221955-45.66449.056671-68.492309.063538-5.203308-1.963989-6.775757-6.603882-6.788758-11.726746-.032806-9.909943-.923584-9.95047 9.693451-.073852 19.331391-.000427 38.66333-.023498 57.994995-.006592 5.504181-.469391 10.99173-1.905365 16.311402-2.58313 9.569458-8.345917 14.294677-18.185212 14.933929-5.645446.366791-11.309692.595368-16.966308.61258-21.33133.06491-42.663178.073028-63.994461-.003052-21.618302-.077118-42.829193-2.654297-63.016648-10.967255-28.32077-11.66217-48.794494-31.918915-63.472816-58.386444-14.15358-25.521332-21.46798-53.242279-26.050003-81.8396-4.224278-26.364532-5.797676-52.921341-5.48571-79.56842.214161-18.292709 1.834949-36.528366 4.152771-54.690796.415275-3.254089 1.237396-5.229797 5.200256-4.679657 4.060799.563751 5.315926 2.51416 4.763985 6.393555-1.806801 12.699493-2.559456 25.497421-2.869065 38.302185-.620323 25.654556-.230903 51.296234 3.015282 76.793762 4.27282 33.56134 11.701408 66.205017 29.567818 95.558167 21.363754 35.09906 52.571342 54.697998 93.433037 58.991302 18.784942 1.973724 37.618194.634522 56.426971.920502 13.328949.202667 26.664551.114685 39.995575-.011688 10.493652-.099457 15.695679-5.095185 15.844055-15.699219.305451-21.825287.249878-43.655396.46695-65.4823.037628-3.784973-1.159272-5.453918-5.180848-5.26886-11.310028.520416-22.63269.760193-33.947723 1.182312-1.609528.060059-3.275055.290894-4.941498 1.555908 6.21344 6.480286 8.231995 13.59195 2.882477 21.522828-2.411072 3.574554-5.882629 5.984161-9.809814 7.465271-18.399872 6.939453-37.197266 7.718078-55.720353 1.276428-21.414932-7.447266-26.573013-27.533875-12.109054-45.03067 12.807922-15.493531 29.8255-24.216065 48.821014-29.511872 8.825653-2.46051 17.779602-4.233703 27.033356-4.135101 2.990814.031891 5.154144.120514 5.12027 4.087341-.033844 3.958557-2.045288 4.616547-5.375244 4.673401-14.69458.250702-28.699143 3.492279-41.773301 10.316864-8.564819 4.470764-15.786285 10.463226-20.885589 18.839508-3.830216 6.291687-4.817307 13.116791-3.730118 20.204926.775955 5.058899 3.713898 9.101776 8.429154 11.092682 15.811447 6.676147 31.730758 6.416351 47.468338-.307984 4.027923-1.721008 7.062835-4.686615 6.380035-9.659179-.645783-4.702637-4.240112-6.559754-8.271545-7.58783-8.854645-2.258057-17.526719-.730835-26.042359 1.8284-3.07019.922668-5.204285 1.396759-6.458343-2.5625-1.238755-3.91095 1.127929-4.534455 3.756744-5.480347 24.071197-8.661041 48.973694-12.215515 74.465698-12.393097 10.352112-.072083 9.799011 1.922455 9.809052-10.004913.040558-48.162568.011841-96.32518.026489-144.487778.00531-17.467865 4.052032-21.02565 21.471619-21.601181 15.525756-.512955 22.087799 8.541794 22.625885 23.508026.418853 11.651093.12796 23.32814.13208 34.993652.013214 37.496827.01532 74.993653.025848 112.490479.002014 7.128357.005066 7.161499 6.978699 8.367767 13.612701 2.354737 27.10144 5.21933 40.2547 9.517395 1.066772.348572 2.197937.500092 3.24179.73053 1.432251-2.096588.837799-4.150421.839264-6.073029.040955-53.828765.037476-107.657547.048615-161.486343.000488-2.332413-.052796-4.674576.130188-6.995544.740936-9.397828 6.091858-14.535111 15.475647-14.888337 2.662811-.100219 5.332336-.038421 7.998687-.026626 11.568177.051147 18.761231 6.44043 19.989869 17.936584.406036 3.79921.605041 7.638749.608215 11.460068.048492 58.161667.106628 116.323532-.046936 174.484787-.012634 4.776825 1.544342 7.437988 5.55069 9.973175 23.1987 14.68042 42.325988 33.351013 55.399627 58.194916.213013 4.619232.213013 8.976135.213013 13.797668m-96.044525-251.035278c-.011566 34.624146-.0289 69.248291-.032196 103.872437-.001587 16.646148.006378 33.292358.057525 49.938385.00644 2.09082-.44461 4.488983 2.202057 5.577301 4.260132 1.751739 8.52771 3.48526 12.669007 5.176208 1.587829-1.821472 1.116668-3.569153 1.11853-5.151306.067444-56.763458.105072-113.526932.089844-170.29039-.000885-3.302628.019226-6.667374-1.339234-9.824616-1.675934-3.895095-4.808288-5.454528-8.788391-5.043945-4.18164.431366-5.933349 3.201233-5.927185 7.269486.00882 5.82547-.031067 11.651031-.049957 18.47644m-92.058472-25.081207c-4.024719 1.868866-3.675171 5.515442-3.675171 9.025924-.000335 49.115128-.025543 98.230301.012512 147.345383.008729 11.253143-1.315979 9.730835 9.800904 9.901825 6.598755.101532 6.612121.075836 6.612671-6.467926.003936-48.11618-.009735-96.232376.031036-144.348511.002564-3.023803-.315185-5.97145-.988129-8.895599-1.313598-5.707871-5.236114-8.102753-11.793823-6.561096z"/><path d="m126.304886 190.626465c-.100418 15.932525-.183579 31.426895-.212914 46.921371-.013023 6.879349 3.049965 12.273133 8.687584 15.979706 3.306977 2.17424 2.854553 4.141617 1.06279 6.982864-2.168213 3.438202-4.111084 1.525605-6.154877.145539-6.817718-4.603607-11.508308-10.647766-12.161735-19.110703-1.347298-17.449524-2.329742-35.037841.282089-52.326034 3.188423-21.104767 17.734795-22.97049 34.317543-19.311402 5.621994 1.24054 7.615311 6.539475 8.216278 11.999421 1.353516 12.297027.397248 24.638671.646347 36.957672.161667 7.994812.0038 16.00029.342697 23.985977.264176 6.225067 3.546616 9.472214 9.817353 9.721756 6.951004.276611 13.921509.063263 21.992157.063263-5.547043-3.953156-10.749573-5.970215-16.375763-6.23288-4.27974-.199798-5.419724-2.02536-5.133133-5.923096.358078-4.870086 3.630798-3.188003 6.228699-3.016403 7.150711.472306 13.647384 3.039505 19.675323 6.703858 8.121628 4.937072 16.750427 8.159408 26.300415 8.476181 3.463089.114868 3.446427 2.258484 3.492874 4.749023.049332 2.644837-.823944 3.981751-3.719146 3.97171-21.498551-.074493-43.00026.138611-64.494812-.16925-9.348038-.133911-15.35077-6.599182-16.434708-16.319382-1.223038-10.96759-.422211-21.973526-.608063-32.960464-.155014-9.162857-.106979-18.328995-.19162-27.493286-.025772-2.791977-.59993-5.489975-3.619384-6.500794-2.898865-.970459-5.171601.674698-7.099579 2.578247-2.687027 2.653031-4.121796 6.006027-4.856415 10.127106z"/><path d="m257.336487 171.346863c10.205871 5.195022 12.500763 14.51384 12.736175 24.150909.49997 20.466919.156891 40.953507.288239 61.431214.023102 3.603118-1.573731 4.413482-4.844391 4.478851-13.869873.277283-13.867279.361206-13.866837-13.411759.000519-16.149887.017045-32.299835-.022659-48.44963-.005295-2.151688-.287826-4.30362-.462021-6.453812-1.203506-14.85437-13.651657-17.643051-24.451584-14.514664-6.0168 1.742905-8.35234 6.885926-9.001983 12.639542-.419235 3.713013-2.460678 4.071365-5.480606 3.985336-2.940567-.08377-3.309006-1.865112-3.857544-4.152679-2.133118-8.895401-5.686356-12.071732-14.44487-13.443756-1.680954-.263321-3.299134-.208573-4.933335.264999-1.77452.514267-3.77803.87233-4.320343 2.920471-.614975 2.322602 1.243317 3.557541 2.692658 4.938095 1.301208 1.239472 3.934097 1.284012 3.346512 4.248276-.944641 4.765579-2.750168 5.714569-7.263657 3.534165-3.755798-1.814377-6.585174-4.476685-8.064224-8.437104-2.589951-6.935012.788803-13.279434 8.447693-15.232254 9.590271-2.445266 18.866531-1.360199 27.408294 3.775498 2.18863 1.315903 3.650528 1.665893 5.670807-.14032 2.529145-2.261154 5.708664-3.501709 9.049118-3.90683 10.423035-1.264099 20.857041-2.200973 31.374558 1.775452z"/></svg>