<svg enable-background="new 0 0 512 512" viewBox="0 0 512 512" xmlns="http://www.w3.org/2000/svg"><path d="m303.237244 190.015701c3.432068 16.967194 2.695068 32.985703-7.28946 47.323242-9.445373 13.56337-23.345428 17.969788-39.170166 17.472626-4.125335-.129623-8.257766-.863205-12.332901-1.613083-15.790359-2.905639-25.808899-12.43309-30.437744-27.553619-3.371307-11.012711-3.509048-22.392044-1.118957-33.556061 4.515243-21.090607 20.986343-34.567962 42.575485-35.408981 12.773254-.497574 24.904449 1.402588 34.929718 10.287262 6.848694 6.069519 10.705994 13.85347 12.844025 23.048614m-66.028458-.270752c-3.401199 10.20929-3.642075 20.567551-.709549 30.845978 3.21843 11.280487 9.750458 19.799515 21.996918 21.943787 12.718689 2.226959 23.138641-2.52443 29.263244-14.125794 8.443604-15.994049 8.340882-32.472107-1.410186-47.852234-10.536774-16.619339-32.407532-16.700347-44.050888-.807129-2.087006 2.848755-3.466965 6.045273-5.089539 9.995392z"/></svg>