<svg enable-background="new 0 0 512 512" viewBox="0 0 512 512" xmlns="http://www.w3.org/2000/svg"><path d="m262.026489 244.113647c-.556732 1.582489-1.328216 2.723511-.893127 4.381897 5.946564.278016 9.086609-3.487274 11.805878-7.73793 3.202362-5.005829 7.594268-5.523895 11.894622-1.364609 1.443665 1.396271.874329 2.669403.232666 4.04982-8.195526 17.630509-24.167328 21.581986-39.431717 15.523392-6.851715-2.719513-11.177703-10.442734-10.733123-17.695236.406417-6.630371 4.373962-11.769974 10.561126-13.681015 9.651306-2.981018 17.036148 2.54187 16.905655 12.66069-.014984 1.160889-.152008 2.320191-.34198 3.862991z"/><path d="m266.85675 169.936691c3.498932-2.235916 5.508545-5.311645 7.306946-8.499832 3.081757-5.463348 6.316986-1.017486 9.269471-.055557 3.590789 1.169876 2.210266 3.727249.980621 6.05069-8.224762 15.540863-25.550476 21.417984-40.053665 13.632522-6.614762-3.550842-9.263108-9.535904-9.34523-16.473389-.064988-5.490127 2.106521-10.435653 7.518707-13.12091 5.303268-2.63121 10.665405-2.851059 15.557983.709854 5.046936 3.673294 4.721588 9.129776 3.914093 14.535263-.212707 1.423721-1.489471 2.621445-.966675 4.299576 2.090973 1.322754 3.756043-.09343 5.817749-1.078217z"/></svg>