<svg enable-background="new 0 0 512 512" viewBox="0 0 512 512" xmlns="http://www.w3.org/2000/svg"><path d="m269.507385 196.490387c16.480408 15.810074 30.144074 33.344192 40.833527 53.150467 3.206604 5.941421-.331604 11.351181-7.205261 11.202957-1.418702-.030609-2.181305-.895416-2.619049-1.962341-7.312317-17.82193-22.724579-20.277939-39.17212-20.504303-4.039062-.055573-5.733184-1.324799-5.613601-5.492615.160949-5.608871.546615-6.315323 6.344162-6.08815 5.604858.219589 11.196777.768204 17.406799 1.216507-3.448029-5.851929-7.851257-10.155548-12.026001-14.557221-17.965881-18.942443-37.918198-35.475662-60.31543-48.991653-1.740203-1.050171-4.689392-1.567581-4.336135-4.221191.44165-3.317566 2.371093-6.228394 4.805709-8.524094 1.328431-1.252609 2.784073.133179 4.044861.883698 20.827286 12.398483 40.230347 26.677429 57.852539 43.887939z"/></svg>