<svg enable-background="new 0 0 512 512" viewBox="0 0 512 512" xmlns="http://www.w3.org/2000/svg"><path d="m285.949951 192.048904c17.387299 16.055405 32.092468 33.813584 43.581391 54.156006.573089 1.014694 1.154937 2.025879 1.68634 3.062455 3.275482 6.389099.605682 10.956481-6.650787 11.535308-2.252991.179688-2.916169-1.536682-3.524445-2.939758-6.974396-16.087448-20.802246-19.184982-36.245422-19.263626-.260437-.001328-.522614.343689-1.18927.811417 2.32135 4.455276 4.61676 8.999084 7.044494 13.471069 1.586762 2.922913.181275 4.624573-2.390137 5.233124-2.881134.681793-6.445007 5.926391-8.764678.548431-7.558045-17.522583-22.611207-19.957397-38.860444-20.305298-3.666397-.078476-6.054718-.605942-5.93811-5.146499.152268-5.928742.490891-6.48909 6.524506-6.444947 5.581924.040833 11.094589 1.49495 17.258453.869507-8.146088-10.845795-17.393707-20.140777-27.056244-28.993255-14.150055-12.963807-29.330337-24.606858-45.867493-34.42894-1.720214-1.021714-4.598999-1.80336-3.760498-4.567658.901658-2.972458 2.19072-6.072647 4.855378-7.935669 1.573654-1.10025 3.144836.539475 4.507705 1.363861 32.060608 19.393708 60.740143 42.64502 83.138443 73.041565.391571.531388.84314 1.018601 1.401154 1.687592 8.056274-2.866638 16.214508.811081 24.899811-.226563-6.713684-9.164611-14.432129-16.929077-22.317688-24.492019-15.186554-14.565277-31.611405-27.568665-49.745987-38.334137-5.312714-3.153855-5.448075-8.796967-.35849-12.586228 1.95581-1.456131 3.494232-.067596 5.009674.809403 15.317047 8.864212 29.682113 19.085571 43.174637 30.529587 3.173431 2.691665 6.223083 5.529281 9.587707 8.545272z"/></svg>