<svg enable-background="new 0 0 512 512" viewBox="0 0 512 512" xmlns="http://www.w3.org/2000/svg"><path d="m245.836304 309c-.006287-45.320068-.007141-90.140121-.022476-134.960175-.003403-9.936569-.0056-9.996643-9.171586-13.25151-3.089645-1.097138-2.540496-3.544113-2.528518-5.785004.011963-2.235016.316253-4.467239 3.271148-4.714874 6.840409-.573273 13.73317-.593643 20.261795 1.579544 8.035218 2.674652 9.833619 9.687698 10.537232 17.120697.125091 1.321594.033905 2.664154.033783 3.99704-.008118 89.640106.005371 179.280243-.054688 268.920318-.007537 11.21988.800995 22.231934 4.842163 32.862488 1.624482 4.273255 3.83368 8.192017 6.619111 11.659058 2.335998 2.907745 1.662689 4.781952-.867981 6.560821-2.591553 1.821595-4.439026 5.52652-8.797852 2.0112-11.772949-9.494476-19.159134-21.515045-22.308426-36.209411-1.221908-5.701233-1.845154-11.477661-1.84111-17.32959.030334-43.986878.023117-87.973725.027405-132.460602z"/></svg>