<svg enable-background="new 0 0 512 514" viewBox="0 0 512 514" xmlns="http://www.w3.org/2000/svg"><path d="m237 515c-78.980881 0-157.461769 0-235.97133 0 0-171.272491 0-342.544998 0-513.908754h511.817766v513.908754c-91.724823 0-183.535614 0-275.846436 0m19.194092-20.487274c1.713287-1.568604 3.426575-3.137207 4.493927-4.114411-3.170227-6.363128-7.436783-12.055053-8.838639-18.381744-2.383377-10.756317-4.085205-21.908295-4.123886-32.900848-.314972-89.481842-.177078-178.965241-.177703-268.448181-.000016-1.49968.10234-3.0094-.031891-4.497391-.73703-8.169358-6.082352-14.229416-14.078781-14.956497-6.061692-.551148-12.213669-.109238-18.375672-.109238v8.839279c9.563706.91922 11.388077 2.987274 11.388428 12.723312.003067 87.15004-.00473 174.300095.017624 261.45015.001373 5.321197-.074463 10.670319.410232 15.958374 1.665543 18.171722 9.13472 33.320648 23.77266 44.666748 1.839248 1.425629 3.249221 2.140503 5.543701-.229553m9.951568-63.012818c.105256 5.320252.023987 10.651947.348816 15.958771 1.255463 20.508759 9.640778 37.161835 26.754395 49.264282 2.859436-2.430358 5.491577-4.667541 7.929352-6.739532-2.223389-3.43338-4.352661-6.384888-6.134125-9.533234-6.174164-10.911651-7.468109-22.942657-7.475433-35.146606-.054261-90.611084-.024415-181.222199-.05127-271.833313-.000885-2.985092-.152466-5.992447-.53479-8.950531-.82193-6.359314-4.179138-11.247437-10.534668-12.375534-7.044403-1.250366-14.313995-1.231964-21.449066-1.763352v9.415162c10.193542 1.722808 11.146454 2.880111 11.146515 13.361694.000458 85.780731.000274 171.561493.000274 258.342193z" fill="#fff"/><path d="m255.926102 494.728699c-2.02649 2.154083-3.436463 1.439209-5.275711.01358-14.63794-11.3461-22.107117-26.495026-23.77266-44.666748-.484695-5.288055-.408859-10.637177-.410232-15.958374-.022354-87.150055-.014557-174.30011-.017624-261.45015-.000351-9.736038-1.824722-11.804092-11.388428-12.723312 0-2.875626 0-5.784317 0-8.839279 6.162003 0 12.31398-.44191 18.375672.109238 7.996429.727081 13.341751 6.787139 14.078781 14.956497.134231 1.487991.031875 2.997711.031891 4.497391.000625 89.48294-.137269 178.966339.177703 268.448181.038681 10.992553 1.740509 22.144531 4.123886 32.900848 1.401856 6.326691 5.668412 12.018616 8.838639 18.381744-1.067352.977204-2.78064 2.545807-4.761917 4.330384z" fill="#0b0b0b"/><path d="m266.14566 430.999939c0-86.280731.000184-172.061493-.000274-257.842224-.000061-10.481583-.952973-11.638886-11.146515-13.361694 0-2.751236 0-5.539353 0-9.415162 7.135071.531388 14.404663.512986 21.449066 1.763352 6.35553 1.128097 9.712738 6.01622 10.534668 12.375534.382324 2.958084.533905 5.965439.53479 8.950531.026855 90.611114-.002991 181.222229.05127 271.833313.007324 12.203949 1.301269 24.234955 7.475433 35.146606 1.781464 3.148346 3.910736 6.099854 6.134125 9.533234-2.437775 2.071991-5.069916 4.309174-7.929352 6.739532-17.113617-12.102447-25.498932-28.755523-26.754395-49.264282-.324829-5.306824-.24356-10.638519-.348816-16.45874z" fill="#080808"/></svg>