<svg enable-background="new 0 0 512 512" viewBox="0 0 512 512" xmlns="http://www.w3.org/2000/svg"><path d="m268.282227 447.927277c.188537 14.422058 2.961364 27.620727 11.615173 38.940094 1.991424 2.604797 1.379272 4.285797-.800446 5.767486-2.474456 1.682007-4.298065 5.978821-8.319275 2.917481-13.817138-10.518799-21.517684-24.615876-24.055816-41.67099-.959412-6.446839-.911728-12.934815-.909851-19.430573.024841-85.640289.02156-171.280578.021179-256.920853-.000015-2.665527-.117966-5.332839-.052475-7.99617.122391-4.976486-2.128265-8.03833-7.154724-8.400131-4.179123-.300827-4.643311-2.770401-4.587204-6.14682.061462-3.699676 1.947571-5.060516 5.342209-4.906219 4.98323.226501 10.020736.113647 14.934082.834182 8.570389 1.256821 13.086532 7.433503 13.853409 18.112534.107147 1.492172.029754 2.997925.029724 4.497391-.001892 89.639038-.005005 179.278106-.003785 268.917144 0 1.665558.051087 3.331086.0878 5.485444z"/><path d="m278.761169 97.945801c-6.933349-4.602974-6.992553-4.644165-2.269622-11.430802 14.166717-20.357032 28.435089-40.643604 42.529663-61.050306 2.26004-3.272186 4.170318-3.50275 7.271362-1.170006 2.884766 2.170071 4.498322 3.760529 1.827759 7.505284-14.977478 21.001932-29.716278 42.173967-44.587738 63.251817-1.055664 1.496186-1.702271 3.918633-4.771424 2.894013z"/><path d="m243.176987 134.777817c-8.441513-10.393433-3.581482-26.242493 7.512756-35.003868.651978-.514878 1.37001-.945336 2.047562-1.428742 7.357635-5.249206 8.212585-4.967186 11.137573 3.976288-3.401062 2.385689-6.788818 4.96051-9.660629 8.189133-3.050187 3.429115-4.187256 7.499984-4.773713 11.822304-.34909 2.572807.79419 4.825401 3.05037 5.811187 3.212204 1.403504 6.582977 1.023255 9.468445-1.131218 3.805572-2.841484 6.496795-6.643676 8.713104-10.795654 1.018829-1.908699 2.186981-3.766907 2.951294-5.775887 1.371582-3.605148 3.163788-4.221923 6.83548-2.518417 4.249298 1.97152 4.768981 4.001145 2.526519 7.928337-3.56018 6.235001-7.091278 12.392769-12.394287 17.397423-8.104553 7.64856-18.065979 8.389542-27.414474 1.529114z"/></svg>