<svg enable-background="new 0 0 512 514" viewBox="0 0 512 514" xmlns="http://www.w3.org/2000/svg"><path d="m241 515c-80.313889 0-160.127792 0-239.970843 0 0-171.272186 0-342.544357 0-513.908267h511.81679v513.908267c-90.39035 0-180.868133 0-271.845947 0m25.011658-143.812439h13.18518c0-1.868957 0-3.338837 0-4.808746 0-1.444214 0-2.888428 0-4.275452-9.491882-.958313-11.525512-3.181183-11.646423-12.25235-.015564-1.165954-.002289-2.332336-.002289-3.498504 0-89.129975.032715-178.259934-.023163-267.38987-.013885-22.109207-8.19754-40.281712-26.785186-53.732395-2.797013 2.387014-5.487656 4.683248-7.598832 6.484947 3.015244 5.580845 5.998414 10.357227 8.264069 15.452656 4.559189 10.253685 4.968094 21.291679 5.007568 32.27169.112 31.153442.039261 62.307533.039261 93.461372 0 59.308915-.010666 118.617829.007813 177.926728.004379 14.078155 5.328247 19.815551 19.552002 20.359924m-34.687836 55.468689c-15.709991 22.397705-31.419998 44.79541-47.298111 67.43277 2.66124 1.972687 5.007553 3.711944 7.763123 5.754547 16.592544-23.70639 33.011123-47.164276 49.63919-70.921448-2.178756-1.521484-3.928421-3.124084-5.987045-4.003357-.888763-.379577-2.416275.736298-4.117157 1.737488m18.529022-30.459473c4.560639-3.925567 9.231262-4.922119 12.563629-2.680633 2.958344 1.989898 3.636719 7.014404 1.35196 12.382355-2.673188 6.280517-7.371613 10.777191-13.594559 13.91278 1.282242 2.615052 2.419937 4.935303 3.658066 7.460419 9.575164-4.24469 16.266693-10.664642 19.669281-20.241333 2.767395-7.78891.590545-17.006714-4.825226-20.934937-6.299286-4.569-16.372223-4.249938-22.707169 1.062836-7.629959 6.398804-12.571228 14.724945-16.635345 23.999481 2.903976 1.455811 5.506821 2.760651 7.763397 3.891907 4.208588-6.307312 8.217178-12.31488 12.755966-18.852875z" fill="#fff"/><path d="m265.564575 371.15094c-13.776672-.507752-19.10054-6.245148-19.104919-20.323303-.018479-59.308899-.007813-118.617813-.007813-177.926728 0-31.153839.072739-62.30793-.039261-93.461372-.039474-10.980011-.448379-22.018005-5.007568-32.27169-2.265655-5.095429-5.248825-9.871811-8.264069-15.452656 2.111176-1.801699 4.801819-4.097933 7.598832-6.484947 18.587646 13.450683 26.771301 31.623188 26.785186 53.732395.055878 89.129936.023163 178.259895.023163 267.38987 0 1.166168-.013275 2.33255.002289 3.498504.120911 9.071167 2.154541 11.294037 11.646423 12.25235v4.275452 4.808746c-4.608093 0-8.896637 0-13.632263-.036621z" fill="#0b0b0b"/><path d="m231.555603 426.373901c1.469101-.718841 2.996613-1.834716 3.885376-1.455139 2.058624.879273 3.808289 2.481873 5.987045 4.003357-16.628067 23.757172-33.046646 47.215058-49.63919 70.921448-2.75557-2.042603-5.101883-3.78186-7.763123-5.754547 15.878113-22.63736 31.58812-45.035065 47.529892-67.715119z" fill="#0b0b0b"/><path d="m249.587738 396.461975c-4.273682 6.272797-8.282272 12.280365-12.49086 18.587677-2.256576-1.131256-4.859421-2.436096-7.763397-3.891907 4.064117-9.274536 9.005386-17.600677 16.635345-23.999481 6.334946-5.312774 16.407883-5.631836 22.707169-1.062836 5.415771 3.928223 7.592621 13.146027 4.825226 20.934937-3.402588 9.576691-10.094117 15.996643-19.669281 20.241333-1.238129-2.525116-2.375824-4.845367-3.658066-7.460419 6.222946-3.135589 10.921371-7.632263 13.594559-13.91278 2.284759-5.367951 1.606384-10.392457-1.35196-12.382355-3.332367-2.241486-8.00299-1.244934-12.828735 2.945831z" fill="#0c0c0c"/></svg>