<svg enable-background="new 0 0 512 512" viewBox="0 0 512 512" xmlns="http://www.w3.org/2000/svg"><path d="m271.802429 189.143585c-2.500244.436905-4.739654-.492416-7.084717 1.016266 2.996338 8.90065 5.63559 17.930344 6.983826 27.310242 1.895538 13.18721 2.733765 26.410827 2.686432 39.726898-.015595 4.389862-2.641937 4.168488-5.60379 4.201385-3.187897.03537-5.881562.122284-5.981476-4.448028-.240997-11.02829-2.084015-21.798676-5.623505-32.318344-7.14537-21.236679-19.750808-38.692093-36.302383-53.497483-5.462265-4.886001-5.516022-4.858917-.827698-10.584381 2.320465-2.833786 4.867111-5.494629 7.036118-8.436691 2.081619-2.823532 3.94934-2.788742 6.592819-.699066 8.692612 6.871521 18.149383 12.403305 28.997177 15.138367 4.976471 1.254715 10.046692 2.164459 15.230926 1.34198 7.676087-1.217835 11.411499-4.875809 12.757538-12.453034.924195-5.202545 5.074097-7.46962 9.898438-5.523483 2.131927.860016 1.779205 2.647232 1.732208 4.20636-.528625 17.544876-7.123444 33.118957-28.114899 34.529922-.655456.044068-1.297363.289353-2.377014.48909z"/></svg>