<svg enable-background="new 0 0 512 512" viewBox="0 0 512 512" xmlns="http://www.w3.org/2000/svg"><path d="m216.565964 183.813202c3.214981-11.002625 8.245575-20.429382 16.941162-27.558304 22.338806-18.314056 55.417709-8.839004 64.463638 18.937027 6.61792 20.320587 6.314667 41.016266-.624634 61.270432-5.798034 16.923126-17.889648 26.911209-35.959777 27.600875-17.678177.674683-31.678727-6.450805-40.003541-22.825088-6.616104-13.013367-7.997711-26.909882-7.028976-41.234757.359695-5.319122.791596-10.607605 2.212128-16.190185m20.566681 24.635696c.073379 2.327408.009491 4.668717.243728 6.979813 1.062897 10.487717 2.619385 20.8228 9.706436 29.33371 7.80098 9.368255 21.185532 10.323532 30.102128 2.088806 2.838043-2.620957 5.021667-5.748856 6.799163-9.165833 7.626313-14.660248 7.974854-30.332641 6.136811-46.211624-1.047181-9.04657-3.978821-17.514923-10.005463-24.583801-9.155579-10.738999-21.948608-10.993164-31.545715-.722443-1.941544 2.07782-3.511658 4.406128-4.854676 6.918457-5.765472 10.78505-6.771484 22.467163-6.582412 35.362915z"/></svg>