<svg enable-background="new 0 0 512 512" viewBox="0 0 512 512" xmlns="http://www.w3.org/2000/svg"><path d="m148.165909 164.100983c14.328689-9.872589 29.109024-9.174759 44.013-2.885208 6.729874 2.840026 10.255127 8.806777 12.071839 15.697204 1.447464 5.489945 2.087188 11.097687 2.070099 16.796829-.049469 16.496521.021942 32.993454-.036576 49.48993-.012176 3.432037.364578 6.834808 4.44458 7.115356 4.326447.297485 5.299225-3.312836 5.778855-6.762146.227737-1.637863.112808-3.326553.114105-4.992249.016754-21.6622-.040894-43.324707.060318-64.98648.074676-15.985565 7.718109-23.808899 23.592911-23.809281 10.642563-.000259 21.354629-1.077209 31.925369.725418 11.8125 2.014374 18.74942 9.745362 20.12677 21.610367.576904 4.969803.828949 9.937775.807587 14.944016-.075318 17.662826-.044098 35.326126-.033753 52.989258.00116 1.997589.096192 3.996688.201294 5.992279.148834 2.826385 1.893524 4.355941 4.499664 4.375213 2.563172.018967 4.443848-1.476089 4.793335-4.186264.254548-1.973984.259003-3.988739.26117-5.985443.022034-20.162613-.03125-40.325516.068451-60.487671.020508-4.147964.326446-8.333221.954529-12.431762 1.517028-9.898911 7.062103-15.89357 17.510711-16.999634 12.402313-1.312897 24.997864-1.603928 37.378937.193908 12.533478 1.819947 20.396698 11.155289 20.499023 23.926285.220276 27.492707.020386 54.988571.126984 82.482636.014038 3.621643-1.478851 4.639404-4.781952 4.470092-3.490112-.178894-6.996551-.032257-10.495819-.040893-7.253754-.017853-7.261078-.021423-7.261047-7.085617.000122-23.995194.022186-47.990402-.007843-71.985565-.004578-3.650727.118103-7.307175-.96106-10.903199-1.699737-5.664062-5.337799-9.087249-11.138489-10.127197-6.443756-1.155243-12.931671-1.213058-19.399902-.283707-8.016388 1.15178-10.952484 4.34842-11.015747 12.624955-.154114 20.161285-.097992 40.324142-.131958 60.486374-.00589 3.499008.098694 7.005127-.082947 10.495697-.620483 11.920044-5.702484 16.726013-17.59555 16.779693-3.832428.017304-7.666901.068421-11.497254-.025818-8.666809-.213256-14.046051-5.415573-14.344024-13.998581-.282776-8.146225-.480988-16.298217-.535401-24.448883-.088989-13.330093-.006561-26.66127-.054016-39.991775-.010681-2.995011-.104492-6.006287-.434387-8.97966-.480042-4.326523-2.134766-8.48758-6.138489-10.327896-9.971954-4.583588-20.567917-3.96431-30.621719-.839005-5.349488 1.662949-5.507447 7.869003-5.523468 12.93338-.070679 22.328659-.029007 44.657639-.041291 66.986512-.001464 2.658798-.026336 5.285339-.809585 7.910202-2.066422 6.924865-6.026886 10.336883-13.280258 10.690063-4.655274.226654-9.329697.13028-13.994416.078339-9.936004-.110596-15.486114-5.533203-15.556289-15.542603-.119171-16.995773-.04654-33.99295-.037064-50.989532.00177-3.170121-.297089-6.291077-.737625-9.44072-1.047455-7.488754-4.439041-12.776459-12.197464-14.589859-7.941086-1.85611-15.740753.899704-20.32608 7.357254-3.752533 5.284744-5.771439 11.309189-6.44693 17.64595-1.237549 11.60933-1.773575 23.268891 1.479339 34.686173 1.821137 6.391937 5.695191 11.194199 11.944657 13.921539 7.387512 3.223984 7.801574 4.50029 4.050628 12.526077-10.18898-1.463409-19.243606-5.699264-23.248443-15.486709-9.093369-22.223313-8.740097-44.71312 1.183944-66.779358 1.865616-4.148209 4.998459-7.440765 8.808747-10.538284z"/></svg>