<svg enable-background="new 0 0 512 512" viewBox="0 0 512 512" xmlns="http://www.w3.org/2000/svg"><path d="m318.616333 392.096436c-13.711975 1.641723-26.633942-.027314-39.211212-4.461121-16.350525-5.763977-32.597046-5.29837-48.914566.274963-16.952622 5.790253-34.272614 6.557862-51.624405 2.232605-19.253723-4.799255-29.564987-17.981628-29.075516-36.519134.351883-13.327515 7.393814-22.89502 17.910736-30.105927 13.399002-9.187072 28.873474-13.483886 44.243546-17.90625 15.186874-4.369629 30.625442-7.915222 45.344238-13.808258 8.888763-3.558868 17.227051-7.923919 23.328034-15.709198 3.329101-4.24823 5.052185-8.954071 5.055694-14.291351.017243-26.162201.142243-52.325653-.086304-78.485901-.07138-8.171036-1.65335-16.254257-10.082733-20.28891-6.396942-3.061874-13.363373-2.9664-20.009659-.896438-6.608841 2.058273-9.582687 7.398468-10.267532 14.035339-.363846 3.526123-1.257095 5.882355-5.641724 5.832916-4.343628-.048996-5.557418-1.855301-6.013336-5.945465-1.266433-11.361679-15.173431-18.951553-25.544708-14.267456-3.838043 1.733429-3.773071 5.624084.145966 8.742035 5.411087 4.304977 5.433441 4.470093 1.247467 11.340515-5.284592-1.438095-10.132538-3.709213-13.463471-8.417068-5.917221-8.36316-2.031174-19.180085 8.213593-21.605408 11.690307-2.767517 23.16159-1.92009 33.690323 4.654159 1.546814.965836 2.875045 2.282441 4.853012.627701 9.710876-8.124069 21.410858-7.037567 32.867462-6.90126 2.985412.035522 6.010895.23233 8.941101.772125 13.455994 2.478867 21.615539 12.133347 22.846954 26.507797 1.653504 19.301438.470093 38.634278.800781 57.949539.111207 6.496949-.305725 13.015839.06836 19.492951 1.119385 19.380661-8.484924 31.802383-25.226868 39.732559-15.754608 7.462525-32.690109 11.217865-49.405762 15.67981-15.429794 4.118713-31.004364 7.897278-44.792144 16.495392-12.52385 7.809967-18.31717 18.883544-16.418686 33.730896 1.523163 11.912139 10.785537 19.902191 24.199447 21.118652 12.13794 1.100738 23.906357-.197968 35.37645-4.397766 16.975845-6.215729 33.955246-5.558075 50.843857.377655 8.898285 3.127441 17.997589 4.536896 27.443603 4.374206 16.206726-.279144 25.349121-8.744201 26.420227-24.958801.230469-3.488464.314637-6.99234.316651-10.489227.032013-55.99057.025451-111.98114.081054-167.971665.004273-4.321197.225464-8.660446.662964-12.959045.85907-8.440399 6.96872-14.26973 15.422699-15.032898 4.974732-.449081 9.923645-.894119 14.94223-.262848 12.626984 1.588303 19.677582 8.526398 21.182648 21.263458.605408 5.123337.953003 10.260208.948334 15.442887-.052673 58.490112-.024536 116.980285-.010925 175.470428.000976 4.157288-.145996 8.328522 1.165313 12.37143.730164 2.25119 1.710968 4.320983 3.483612 5.962982 3.687348 3.41568 4.018647 6.793762 1.289917 10.854706-1.363098 2.028564-3.073608 1.46524-4.876617 1.055786-14.64209-3.325409-22.469452-12.738221-23.46579-28.324982-.159241-2.491333-.132873-4.996765-.133087-7.495697-.005341-59.323334-.009979-118.646698.017365-177.970032.001617-3.514267-.119721-6.98822-1.06952-10.392212-1.390625-4.983886-4.690643-7.547042-9.795196-7.601181-5.599365-.059387-7.665772 1.817276-8.80127 7.320175-.76065 3.686173-.10202 7.310181-.104003 10.956559-.029572 54.490799.043273 108.981704-.062104 163.472305-.012481 6.457153-.279632 12.945679-1.493957 19.367676-2.960327 15.656219-10.862854 26.653076-27.762543 29.955292z"/><path d="m205.514542 245.458618c-3.863846-1.240692-7.357697-2.274048-11.076722-2.339447-4.323089-.076034-4.826187-2.830444-4.8246-6.443176.001785-4.046158 2.399353-4.102341 5.260956-4.00676 8.504883.284119 16.463928 2.694779 23.69635 6.985764 10.594559 6.285782 21.467407 11.32959 34.133072 11.257065 4.513107-.025864 3.39888 3.546325 3.58635 6.207412.201568 2.860596-.89473 4.25647-3.993256 4.247284-25.816208-.076599-51.635605.16153-77.447754-.175964-12.117874-.158386-20.010681-9.660202-20.117203-23.452149-.164642-21.318222-.056366-42.638504-.08229-63.957901-.002213-1.828018.101974-3.707977-.274018-5.471969-.610153-2.862564-.831634-6.192276-4.568451-7.022644-3.578064-.795075-6.588943.44992-9.024185 3.043091-4.211853 4.485-6.036468 10.183868-6.115433 16.009552-.250106 18.453766-1.273971 36.929138.554718 55.368286.729889 7.35968 4.470337 12.935791 10.605301 16.623245 4.947678 2.973831 2.044052 5.606613.428208 8.547928-2.005142 3.649994-4.112458 1.373932-6.106079.08844-9.391831-6.055893-15.001305-14.364365-15.623818-25.808777-1.067772-19.630188-1.476639-39.264954.218613-58.863998 1.436851-16.611695 12.179115-26.233933 28.739372-26.218049 3.318024.00319 6.66745.218216 9.947083.706864 7.742828 1.153564 12.360977 7.854812 12.944564 17.754577 1.206772 20.471589.272278 40.953827.53183 61.428818.033768 2.664459-.073333 5.336014.082642 7.992676.532165 9.064621 3.920303 12.607269 13.021194 12.891739 8.771378.27417 17.558045.059326 26.614579.059326-3.400086-2.446106-7.073822-3.87886-11.111023-5.451233z"/></svg>