<svg enable-background="new 0 0 512 512" viewBox="0 0 512 512" xmlns="http://www.w3.org/2000/svg"><path d="m261.804138 209.012817c-3.057342-1.587799-7.914337.812912-8.212158-4.939819-.339005-6.548431.108353-7.356888 6.667603-8.312332 7.739349-1.12735 11.192718-4.751877 11.548217-12.475784.252075-5.477463.635132-10.998185-1.369995-16.306504-1.051483-2.783722-2.55069-5.080795-5.779175-5.576416-3.302002-.506927-5.361236 1.477967-7.062194 3.818405-3.385041 4.657639-3.779648 10.235749-4.227158 15.676606-.317322 3.857803-2.850296 3.51297-5.324554 3.458191-2.53093-.056-5.475434.761627-6.170289-3.230286-1.984863-11.402924 6.719864-26.488907 17.585251-30.226608 17.413086-5.990082 34.991059 6.395797 35.91153 25.070373.522674 10.603745-2.797302 19.280472-11.903076 25.828034 2.488861 2.878753 5.920318 4.239196 7.902282 7.132431 8.195191 11.963409 8.331665 24.821594 2.891175 37.526901-5.48996 12.820846-16.387421 19.112228-30.030609 19.733047-19.005051.864716-31.905991-8.002227-38.989289-25.738525-3.993973-10.000763-5.834595-20.531845-6.36148-31.138947-1.240143-24.965621.971054-49.601211 10.7285-72.936767 11.082214-26.503891 30.093796-43.43364 59.328354-47.419724 6.605682-.900673 10.015716 3.261025 7.669616 9.452355-.482696 1.273842-1.404083 1.753273-2.667388 1.860969-30.849396 2.629769-47.816254 21.546677-56.942414 49.154053-8.15358 24.665207-8.953766 49.938797-4.568359 75.412003 1.108246 6.437317 3.697998 12.455108 7.383026 17.877533 5.57428 8.202453 13.024979 11.175613 22.449829 9.015258 8.40625-1.926864 10.704681-8.581558 12.102722-15.942764 2.312622-12.176803-2.405578-22.604111-12.559967-26.771683z"/></svg>