<svg enable-background="new 0 0 512 512" viewBox="0 0 512 512" xmlns="http://www.w3.org/2000/svg"><path d="m275.39505 185.986221c-1.839874 6.943222-5.347382 12.208054-11.241669 15.473175-.262451 1.512452.798249 1.963868 1.556122 2.487046 12.46814 8.606277 14.345856 21.110016 11.887451 34.579849-2.698059 14.78302-12.098449 23.728683-26.795379 26.723831-20.729218 4.224487-37.470658-6.080353-44.966172-27.814499-4.828979-14.002151-5.758346-28.542938-5.350204-43.295471.394089-14.24501 2.040558-28.232636 7.067566-41.589935 6.237213-16.572998 16.066711-30.579499 34.156204-34.943848 20.710129-4.996613 40.882675-3.641762 56.734879 13.224548 8.900238 9.469635 12.085449 21.594284 13.877166 34.128327 1.323029 9.255356 1.210267 18.553787 1.168854 27.878219-.139099 31.314392-.146972 62.630143-.019378 93.944641.084808 20.82016.38388 41.641053.784423 62.457795.242371 12.598419 3.568756 24.333191 11.362854 34.453705 1.88385 2.446105 1.679535 3.781311-.673401 5.693054-6.470092 5.256775-6.692321 5.342834-13.018188-.62909-13.738098-12.969543-20.134125-29.150024-20.185669-47.79068-.146881-53.152313.065613-106.305938-.18689-159.457504-.064117-13.492416-1.50589-26.906326-8.06372-39.222565-5.142487-9.658096-13.279633-14.358833-23.829529-16.018554-22.63266-3.560593-35.743698 10.974411-42.406906 28.977035-6.144943 16.602356-6.702896 33.798981-6.160767 51.186814.361557 11.59555 2.07991 22.85675 7.426621 33.293731 5.263473 10.274552 13.694839 14.742646 23.90715 13.131852 5.245895-.827439 9.017517-3.654221 11.121551-8.284379 4.143113-9.117446 4.23848-18.466049-.185714-27.500793-2.565476-5.238983-7.126252-8.451904-13.045975-8.878616-4.901367-.353287-4.647293-3.441513-4.717392-6.946183-.076096-3.804016 2.146378-4.238678 5.089584-4.488174 8.766236-.743103 12.698014-4.932861 13.066132-13.840897.206222-4.989914.450378-10.020187-1.169983-14.855651-1.081039-3.226044-2.50444-6.364853-6.443436-6.84552-4.2509-.518738-6.928466 1.904891-8.724746 5.392013-2.088639 4.054703-3.18396 8.451828-3.050156 12.992142.142792 4.845474-2.8853 4.682251-6.273254 4.728378-3.675431.050003-4.69336-1.806274-4.292542-5.02536 1.14418-9.188797 2.522644-18.397644 10.786881-24.29483 12.698013-9.061066 35.209152-5.248795 40.503189 15.266204 1.294647 5.01677 1.936248 10.156693.304443 15.71019z"/></svg>