<svg enable-background="new 0 0 512 512" viewBox="0 0 512 512" xmlns="http://www.w3.org/2000/svg"><path d="m263.147858 180.274292c-5.070771 3.479767-10.410126 5.233078-16.08075 6.032532-3.430176.483581-5.540176-.719818-5.28244-4.581177.033188-.497177-.006699-.999374-.015381-1.499191-.190979-10.982605-.182571-10.930771 10.528977-12.683792 1.755935-.287369 3.554565-1.014786 5.061386-1.968659 2.64801-1.676254 4.07431-4.146881 2.338684-7.21289-1.612915-2.849228-4.153107-2.11168-6.594696-1.121506-4.562241 1.850204-8.348236 4.872299-11.872696 8.180969-18.240738 17.124023-32.123276 37.269669-41.592453 60.439499-1.721619 4.212601-2.606095 8.560867-2.319504 13.152832.341934 5.478516 2.790497 8.219589 8.30835 8.64566 11.565063.893051 22.841629-.914627 34.075439-3.541885 25.19252-5.891754 50.561111-7.995621 76.138199-2.534058 20.811127 4.443894 32.5 17.705582 36.336548 38.256272 1.188232 6.364929 2.047607 12.797851 2.070526 19.313476.009704 2.758667-.71875 4.81073-3.900543 4.251129-2.783203-.489532-7.180359 2.404786-7.731385-3.350067-2.766052-28.888733-34.095764-49.903763-61.846435-49.850479-14.748566.028336-28.55513 4.2202-42.551956 7.825638-8.358902 2.153198-16.570908 4.75119-25.249176 5.750793-6.632248.763916-13.00911.197571-19.222077-1.589263-10.491668-3.017426-16.278137-11.713715-17.157684-22.634888-1.476654-18.335556 5.891922-33.591538 16.180908-47.632584 13.507462-18.433197 30.779892-32.659698 51.348282-42.771988 3.757294-1.847259 7.671219-3.267471 11.812775-3.931732 12.394806-1.987915 20.79367 7.151474 17.890014 19.404022-1.528656 6.450638-5.237823 11.423508-10.672912 15.651337z"/></svg>