<svg enable-background="new 0 0 512 512" viewBox="0 0 512 512" xmlns="http://www.w3.org/2000/svg"><path d="m379.353394 188.001373c-.001679 22.82605-.110657 45.153351.084411 67.478028.03952 4.522339-1.222168 6.357666-5.894653 5.94046-3.96759-.354248-7.996063-.209076-11.988251-.049591-3.415832.136444-4.81958-1.223664-4.740723-4.674286.144623-6.328049.043946-12.661743.042634-18.993088-.004029-19.160705.010223-38.321442-.030549-57.482071-.008483-3.985885.116639-7.991592-1.160461-11.878265-1.810425-5.509674-5.73288-7.988815-11.49762-7.134094-4.581451.67926-6.764892 3.513214-6.783874 9.457717-.068665 21.493103-.02124 42.986542-.049133 64.479813-.004059 3.152939-.070618 6.271912-.738099 9.426087-2.431335 11.489532-8.246521 16.585388-20.055572 16.720672-12.661011.14505-25.325989.137177-37.987335.00824-12.954743-.131897-21.125061-8.171219-21.921021-21.047485-1.203857-19.4758-.293884-38.968125-.611786-58.449784-.048889-2.9962-.020538-6.015625-.38623-8.980118-.751923-6.095382-5.578949-10.801727-12.076828-11.4458-4.791611-.474961-9.654358-.562012-14.470444-.393738-10.783005.376724-17.795456 5.869827-19.346115 16.552002-2.689026 18.524338-2.014252 37.255646-.776077 55.83461.762222 11.43721 4.815292 14.56813 16.178665 17.032394 1.132828.245667 2.272079.461579 3.284241.666229 1.045089 1.259674.866684 2.634308.900955 3.94806.163742 6.274871.135483 6.31903-6.304337 6.326263-12.995926.014587-25.992111.045929-38.987762-.016541-10.389878-.049957-15.274018-4.360839-16.64502-14.610077-.976349-7.298843-.331878-14.641906-.394592-21.963027-.114151-13.328263-.038788-26.658127-.059021-39.987275-.003784-2.49852-.033615-4.999145-.142181-7.494842-.164963-3.792099-.707474-7.685791-5.032502-8.801987-4.306488-1.11142-7.278579 1.54802-9.587494 4.859696-3.707244 5.317321-5.662872 11.338424-6.191986 17.716461-1.073501 12.940002-1.364135 25.914184.1651 38.837265.996521 8.421356 5.271927 15.104675 12.451493 19.562378 5.434677 3.374313 1.191192 6.177856-.149124 9.062072-1.75734 3.781556-4.086121 1.426514-6.087967.159668-10.590851-6.702529-16.790756-16.531982-17.363465-28.825302-.687591-14.759811-1.77742-29.683609.824753-44.353866 2.372528-13.375656 8.209015-24.775406 22.206314-29.567108 6.656906-2.27884 13.50882-1.990525 20.057541.595138 8.543976 3.373444 10.715744 10.807694 11.233414 18.978989 1.296783 20.469742.306656 40.966583.572647 61.449539.021622 1.665863-.032776 3.333481.019257 4.998062.247695 7.923538 3.345748 10.092148 11.227584 7.889862-6.503158-21.67984-2.539688-43.907928-3.311752-65.881058-.228027-6.489944 1.698013-12.832824 4.664673-18.726699 4.778839-9.49408 12.784408-14.571808 23.080383-15.184311 11.441681-.68068 22.978424-1.244294 34.38768.727661 11.279663 1.949524 17.652436 9.509628 18.429261 20.947449 1.322662 19.474609.270172 38.964309.636749 58.442855.021942 1.165772-.027558 2.332947-.003205 3.498612.285096 13.652237 3.699921 16.986038 17.388092 16.988357 4.831849.000824 9.663727.013871 14.495514-.002441 11.649384-.039352 15.676392-3.936966 15.7193-15.601654.07843-21.326416.018707-42.65332.028656-63.980011.007019-15.091034 6.179718-21.320343 21.159179-21.35614 3.664917-.008759 7.34845-.181641 10.991517.114227 11.909576.967194 20.092132 10.656799 20.509368 24.188232.13855 4.49405.030823 8.995728.035798 13.993561z"/></svg>