<svg enable-background="new 0 0 512 512" viewBox="0 0 512 512" xmlns="http://www.w3.org/2000/svg"><path d="m307.140015 226.136749c2.514465-8.047806.709961-13.430008-6.301484-18.468109-9.67984-6.955505-19.15863-14.465622-26.776367-23.889877-7.193603-8.899536-8.394439-18.247391-3.341827-26.214447 4.375946-6.90004 14.242096-9.755768 24.765106-7.168137 13.638458 3.353775 22.645538 14.542603 24.870819 30.446289.74173 5.300888 1.235535 10.595368.897736 15.903565-.239624 3.765121 1.232818 6.124527 4.10553 8.408004 12.245941 9.734025 22.917205 20.823121 29.213928 35.49878 2.188843 5.101623 3.532135 10.358719 3.965423 15.906143.262848 3.365509-.70346 4.999145-4.347046 4.845398-4.490112-.189514-8.999694-.187988-13.490417-.008362-3.504913.140259-4.827515-1.029175-5.222229-4.759827-1.292297-12.214462-7.372375-22.09761-16.255218-31.406753-.998292 3.803574-1.699616 6.810959-2.587342 9.762268-.861542 2.864136-1.760254 5.734909-2.908508 8.49205-6.962158 16.717224-19.558106 21.186829-37.147827 16.105011-4.659516-1.346191-8.80127-3.910919-12.857331-6.572952-5.873474-3.854843-7.995788-3.962296-13.484573.393066-10.527832 8.353836-22.409515 9.633713-34.954208 6.885391-11.24086-2.462677-18.205124-9.833801-19.38057-21.351791-1.963745-19.242798-1.626526-38.502746 1.574387-57.653244 1.177475-7.044632 3.998749-13.337631 8.227035-19.077072-10.01622-3.141769-21.092682 2.001511-25.538025 11.835586-2.790023 6.172089-3.962539 12.783951-3.944274 19.456406.0401 14.640762-1.015198 29.305618.739013 43.922882.735794 6.131134 3.307587 11.238922 8.48555 14.632111 5.138336 3.367248 1.430573 6.235946-.246673 9.131943-2.116379 3.654144-4.475388 1.39569-6.641999-.075684-10.47113-7.110992-13.527542-17.971146-13.701141-29.586441-.23346-15.622986-1.393402-31.325943.86441-46.885758 2.808136-19.352249 10.661377-31.070785 28.192597-34.135894 11.683517-2.042679 23.591507-.670548 35.395706-.620606 3.149933.013321 4.915649 8.325318 1.833679 11.369538-12.462723 12.31018-12.46318 28.164917-12.7211 43.769912-.19191 11.611573-1.311081 23.319474.86174 34.877503 1.928818 10.260071 9.134598 13.254745 18.063172 7.577911 3.370483-2.142959 6.619217-4.486404 9.846527-6.84378 7.528946-5.499527 15.411499-5.673569 23.512024-1.546692 3.704773 1.887405 7.250152 4.086914 10.874481 6.133102 8.33667 4.706665 15.370514 2.981888 20.516724-5.153717 2.612518-4.130142 4.043274-8.74234 5.042572-13.933716m-.836609-52.813339c-3.846497-7.482498-9.257202-12.625122-18.363037-12.004745-4.73938.322876-7.033142 3.986969-5.384552 8.447158.767028 2.075104 2.236755 3.676682 3.787475 5.210556 6.426758 6.356858 13.956726 11.302796 21.212555 16.598191.538208.392776 1.199097.542389 2.025177-.239456.517975-5.880265-1.217285-11.594117-3.277618-18.011704z"/></svg>