<svg enable-background="new 0 0 512 512" viewBox="0 0 512 512" xmlns="http://www.w3.org/2000/svg"><path d="m301.029449 195.169586c3.154969 9.459046 4.920411 18.635864 3.353425 28.320099-2.443543 15.101242-11.128968 24.634399-25.558442 28.793396-13.928802 4.01471-27.98851 3.468552-41.737609-.957779-21.282837-6.8517-29.437638-24.748596-24.495163-44.918472 6.048446-24.683273 23.462616-40.294357 45.802322-50.876389 4.385284-2.07724 8.435638-.618637 12.230255 1.86261 14.103333 9.22197 24.05719 21.800858 30.405212 37.776535m-62.665832 3.682572c-2.45224 6.393371-4.743515 12.977218-3.674927 19.846634 2.573502 16.543914 12.996063 24.934509 30.280701 24.469589 20.948852-.563462 29.723602-13.960419 28.385132-29.717316-1.476593-17.382538-10.830017-31.075882-23.74411-42.473419-3.363282-2.968308-6.211792-2.78006-9.640412-.028336-9.250213 7.423935-16.596878 16.260712-21.606384 27.902848z"/></svg>