<svg enable-background="new 0 0 512 512" viewBox="0 0 512 512" xmlns="http://www.w3.org/2000/svg"><path d="m261.471405 174.834473c1.736786-10.615174 7.703095-16.687149 17.91861-17.696488 11.106872-1.097381 22.381012-1.387802 33.413452.017807 14.201507 1.809387 22.151703 11.118042 22.396484 25.552658.367188 21.65683.07193 43.324311.184174 64.986603.018463 3.555481-1.492401 4.717819-4.806275 4.599854-3.827758-.136292-7.664184-.014893-11.496765-.032166-6.944916-.031311-7.080353-.16008-7.089813-6.930756-.016693-11.997894.005463-23.99591-.031464-35.993713-.02716-8.830749.04715-17.666717-.234771-26.490417-.28946-9.059082-5.263062-14.092789-14.297943-14.690537-4.147126-.274368-8.333344-.287277-12.485688-.08577-9.048706.439148-12.553497 4.057709-12.614685 13.088593-.111755 16.496399-.055847 32.993866-.135284 49.490585-.011963 2.48349-.218018 4.990555-.607178 7.443436-1.649963 10.400513-5.965027 14.111938-16.339233 14.179703-4.165711.027206-8.335389.101425-12.496964-.036423-7.909332-.262009-12.588028-4.479828-14.186981-12.158829-1.06839-5.130951-.792831-10.28154-.815949-15.433807-.060546-13.497376.031113-26.99585-.096923-40.492371-.094239-9.936844-5.350052-15.361328-15.234497-16.097061-18.139267-1.350159-24.08313 3.868134-24.272278 22.163178-.134095 12.972015-.916031 25.985458.815597 38.919967.767273 5.73114 3.499314 10.444901 8.400101 13.5961 5.305893 3.411698 1.001709 6.189148-.450485 9.077576-1.785416 3.551224-4.069306 1.675171-6.132019.250458-9.2043-6.357514-13.492417-15.493439-13.990311-26.343872-.617233-13.451813-1.148437-26.888688-.239456-40.401856 1.197525-17.803131 11.932678-28.628113 29.766998-28.65741 5.332398-.008773 10.664871-.016891 15.997208.002106 18.347961.065369 28.484543 9.876724 28.777069 28.34079.245453 15.493439.056564 30.993698.070877 46.490936.001541 1.66536.020233 3.334335.129852 4.995102.148438 2.248596 1.234421 3.788086 3.589646 4.106812 2.460373.332946 4.357803-.662766 5.134628-2.992218.510803-1.531647.591858-3.258683.596374-4.898941.042267-15.330567-.022491-30.661576.061646-45.991791.020966-3.818909.468201-7.635514.802246-11.877838z"/></svg>