<svg version="1.1" id="Layer_1" xmlns="http://www.w3.org/2000/svg" xmlns:xlink="http://www.w3.org/1999/xlink" x="0px" y="0px"
	 width="100%" viewBox="0 0 336 592" enable-background="new 0 0 336 592" xml:space="preserve">
<path fill="#000000" opacity="1.000000" stroke="none" 
	d="
M215.726730,406.075989 
	C184.979706,408.062714 154.664627,407.402710 124.361649,407.076782 
	C114.409950,406.969757 104.377960,406.698029 94.626404,404.242310 
	C88.483925,402.695435 85.548126,398.890686 85.761879,393.313904 
	C85.954590,388.286072 88.727486,385.597870 95.518799,384.642120 
	C112.361298,382.271790 129.355499,382.206696 146.310898,381.752136 
	C162.456253,381.319305 178.612976,381.325623 194.761078,380.973785 
	C203.681244,380.779480 205.584854,378.813477 205.626801,369.882385 
	C205.748169,344.039612 218.599747,324.014343 234.849167,305.524689 
	C235.465012,304.823944 236.452652,304.449921 237.453842,303.802979 
	C241.523163,309.112579 244.204361,313.773315 240.839584,320.972351 
	C234.324097,334.912415 230.683975,349.811340 230.387558,365.325317 
	C230.238617,373.121002 231.896042,374.306793 239.153412,372.278046 
	C244.117783,370.890350 249.069870,369.458588 254.025833,368.040955 
	C257.595428,367.019928 259.723877,368.696167 260.041504,372.030121 
	C260.902039,381.062958 259.408508,389.629028 253.797318,397.088745 
	C251.326431,400.373566 247.685089,401.681946 243.851395,402.252838 
	C234.647873,403.623474 225.413635,404.788055 215.726730,406.075989 
z"/>
</svg>