<svg version="1.1" id="Layer_1" xmlns="http://www.w3.org/2000/svg" xmlns:xlink="http://www.w3.org/1999/xlink" x="0px" y="0px"
	 width="100%" viewBox="0 0 336 592" enable-background="new 0 0 336 592" xml:space="preserve">
<path fill="#000000" opacity="1.000000" stroke="none" 
	d="
M92.613632,329.563507 
	C104.168839,320.145966 117.029083,315.716003 131.481430,318.066101 
	C150.757034,321.200531 162.500732,338.468781 159.902420,358.555786 
	C158.912567,366.208099 156.536438,373.415283 153.115906,381.295898 
	C194.526230,389.150482 235.073273,389.372772 275.268768,377.890472 
	C278.301910,387.772247 274.831421,394.647491 265.704407,397.472229 
	C250.022659,402.325562 233.818039,404.010254 217.555542,405.308105 
	C196.427505,406.994354 175.278809,406.922272 154.176315,405.216400 
	C133.091125,403.511963 112.146278,400.806061 92.351479,392.597870 
	C88.021324,390.802277 83.912735,388.640625 80.097900,385.923279 
	C69.475868,378.357086 66.396500,367.700226 71.611320,355.673828 
	C76.154747,345.195740 83.611931,336.962341 92.613632,329.563507 
M133.029373,373.468384 
	C139.912231,364.045868 138.638870,352.852203 129.861679,345.622528 
	C122.476166,339.539154 112.204460,340.371674 105.189987,347.622131 
	C99.068642,353.949402 99.710457,361.688660 106.886673,366.726379 
	C113.394867,371.295197 120.978004,373.218597 128.508499,375.253418 
	C130.200134,375.710510 131.401596,375.084198 133.029373,373.468384 
z"/>
</svg>