<svg version="1.1" id="Layer_1" xmlns="http://www.w3.org/2000/svg" xmlns:xlink="http://www.w3.org/1999/xlink" x="0px" y="0px"
	 width="100%" viewBox="0 0 336 592" enable-background="new 0 0 336 592" xml:space="preserve">
<path fill="#000000" opacity="1.000000" stroke="none" 
	d="
M210.093445,344.169617 
	C221.846497,325.525146 235.305481,308.931732 253.635345,296.849823 
	C259.115356,293.237762 265.059998,290.613068 271.627167,289.825470 
	C287.667145,287.901886 298.282440,298.045319 299.424103,315.115723 
	C301.583801,347.407410 284.837280,362.858582 260.573792,372.652191 
	C244.382385,379.187653 227.327759,382.074951 209.993378,383.274902 
	C206.185547,383.538513 203.719727,384.795135 202.407196,388.428009 
	C200.608261,393.407104 198.643082,398.326202 196.760880,403.240326 
	C190.395187,401.455933 189.445450,397.406921 192.443024,384.901215 
	C186.688934,383.646057 181.742889,381.142761 175.817596,386.609100 
	C167.542450,394.243286 156.274445,396.245667 145.531754,398.602570 
	C115.141136,405.270020 84.816788,405.524048 54.647522,397.210266 
	C51.932808,396.462158 49.138145,395.762939 46.894493,393.903870 
	C45.840191,393.030273 44.991074,391.893066 45.642715,390.430267 
	C46.216934,389.141174 47.494171,389.189026 48.677902,389.263031 
	C74.449081,390.874207 99.836433,387.856598 124.985878,382.588531 
	C137.061386,380.059082 148.844803,376.428009 159.541580,370.000946 
	C166.449295,365.850525 171.774124,360.305939 174.502838,352.538452 
	C175.151077,350.693176 175.450226,348.212463 177.715591,347.857819 
	C180.386032,347.439758 181.167572,350.204895 182.241257,351.889374 
	C184.580765,355.559723 187.136063,358.443054 191.908112,358.816376 
	C201.392853,359.558502 201.839432,359.415466 206.264923,351.027832 
	C207.429932,348.819763 208.682846,346.658051 210.093445,344.169617 
M219.513931,358.569458 
	C232.440247,357.561279 245.304901,356.241730 257.601135,351.703186 
	C265.455902,348.803986 273.033569,345.399689 278.955322,339.270020 
	C283.701599,334.357117 283.226807,330.386810 277.735565,326.406525 
	C272.521851,322.627380 266.451172,321.377594 260.275940,321.503937 
	C242.740524,321.862762 219.648575,340.584442 214.960068,357.881226 
	C216.023651,359.047974 217.431900,358.468536 219.513931,358.569458 
z"/>
</svg>