<svg version="1.1" id="Layer_1" xmlns="http://www.w3.org/2000/svg" xmlns:xlink="http://www.w3.org/1999/xlink" x="0px" y="0px"
	 width="100%" viewBox="0 0 336 592" enable-background="new 0 0 336 592" xml:space="preserve">
<path fill="#000000" opacity="1.000000" stroke="none" 
	d="
M337.000000,296.531372 
	C334.658691,302.847595 333.036743,308.933716 330.135132,314.613892 
	C320.748535,332.988892 301.804443,329.334351 292.299164,319.225616 
	C290.295624,317.094879 288.990753,314.223114 285.715698,312.667358 
	C282.778412,317.929810 279.955536,323.164948 276.284546,327.880829 
	C262.494537,345.595947 243.255096,348.647797 224.809921,335.821167 
	C220.300018,332.684998 216.117981,329.066467 211.538025,326.044312 
	C203.843277,320.966827 197.950882,322.904785 195.597626,331.871307 
	C191.950134,345.769196 196.110596,358.207184 204.648178,369.255219 
	C210.967514,377.432709 219.943466,381.934692 229.288605,385.721039 
	C236.028046,388.451660 236.167496,388.633514 235.380188,396.066437 
	C234.887894,400.714325 233.891159,405.251862 232.388748,409.671387 
	C230.429123,415.436035 228.801926,416.200378 223.126114,414.362183 
	C213.730606,411.319366 205.991959,405.677612 199.224045,398.951965 
	C174.587341,417.972717 145.989227,417.609863 117.489227,416.890564 
	C90.303619,416.204407 63.471916,412.418243 37.180614,405.292328 
	C27.698740,402.722382 18.303711,399.828705 9.677812,394.953033 
	C7.639327,393.800842 5.585690,392.613312 5.687662,389.739929 
	C5.805483,386.420013 6.605436,384.258698 10.765471,385.187256 
	C48.635574,393.640167 87.085609,393.586212 125.552711,392.520721 
	C136.490753,392.217773 147.493500,391.402863 158.214249,388.684998 
	C164.229767,387.159973 169.993240,385.082489 175.101822,381.463867 
	C181.030258,377.264435 183.598206,372.866119 182.044479,364.434082 
	C177.841461,341.624329 181.974564,319.966248 196.979797,301.455963 
	C203.574051,293.321381 212.672531,292.184082 221.522614,297.867279 
	C226.837555,301.280396 231.858627,305.174835 236.858032,309.051239 
	C253.683960,322.097626 267.015808,316.833099 277.452789,301.700684 
	C281.945740,295.186432 284.657562,287.847260 286.693695,280.241760 
	C287.122894,278.638519 287.424500,276.928833 288.219055,275.511566 
	C289.638367,272.979797 291.522400,272.801727 293.162018,275.364288 
	C293.768066,276.311523 294.144928,277.507080 294.289246,278.632568 
	C296.040100,292.289276 309.796265,298.118652 319.831055,299.409485 
	C322.469788,299.748932 324.856506,298.324799 326.050507,295.978333 
	C327.367523,293.390076 325.047211,291.828003 323.338715,290.793274 
	C318.505829,287.866211 317.629333,284.073547 319.547546,278.973602 
	C321.417664,274.001617 322.630707,268.779205 324.560822,263.834045 
	C325.991241,260.169159 328.275635,259.965973 330.927185,262.924286 
	C333.640076,265.951080 334.998322,269.768158 336.838287,273.694305 
	C337.000000,281.354248 337.000000,288.708496 337.000000,296.531372 
z"/>
</svg>