<svg version="1.1" id="Layer_1" xmlns="http://www.w3.org/2000/svg" xmlns:xlink="http://www.w3.org/1999/xlink" x="0px" y="0px"
	 width="100%" viewBox="0 0 336 592" enable-background="new 0 0 336 592" xml:space="preserve">
<path fill="#000000" opacity="1.000000" stroke="none" 
	d="
M194.252930,204.575897 
	C177.523254,207.068970 162.426132,203.616135 148.315689,195.354294 
	C147.310669,194.765839 146.342087,194.115509 145.349777,193.504990 
	C138.961853,189.574707 138.961243,189.575714 135.623871,196.289215 
	C132.226791,203.122833 128.868286,205.750488 122.371185,204.048050 
	C116.249321,202.443924 113.012970,205.174896 109.609871,209.139221 
	C108.250565,210.722687 107.573196,213.028107 105.096169,213.791946 
	C102.529243,211.759216 102.314522,209.119354 103.200546,206.231110 
	C104.960381,200.494461 107.193817,194.951370 109.908554,189.589951 
	C112.086380,185.288956 115.151619,183.308945 120.254677,183.581299 
	C130.596756,184.133255 130.669205,183.841736 133.886963,174.006454 
	C134.300461,172.742569 134.731857,171.480713 135.234726,170.250519 
	C137.715332,164.182068 141.378357,162.970551 147.012238,166.562927 
	C150.375824,168.707672 153.615265,171.065292 156.789291,173.486145 
	C176.711853,188.681259 210.061493,186.940643 225.266174,176.310150 
	C226.901215,175.166977 228.430771,173.873764 230.052521,172.710495 
	C231.788956,171.464996 233.872910,170.765945 235.575943,172.231430 
	C237.151718,173.587448 237.338928,175.689362 236.582047,177.777313 
	C235.592392,180.507416 233.884155,182.785461 231.925476,184.806473 
	C221.662048,195.396530 209.379562,202.237915 194.252930,204.575897 
z"/>
</svg>