<svg version="1.1" id="Layer_1" xmlns="http://www.w3.org/2000/svg" xmlns:xlink="http://www.w3.org/1999/xlink" x="0px" y="0px"
	 width="100%" viewBox="0 0 336 592" enable-background="new 0 0 336 592" xml:space="preserve">
<path fill="#000000" opacity="1.000000" stroke="none" 
	d="
M115.794342,278.025970 
	C108.637680,251.453033 101.488777,225.300415 94.588875,199.082291 
	C93.472084,194.838730 91.718086,192.623825 87.123550,193.307205 
	C85.494156,193.549576 83.797714,193.350342 82.131996,193.337601 
	C76.081566,193.291260 75.886650,192.874008 75.755318,186.767288 
	C75.669624,182.782303 77.257996,181.482483 81.077644,181.618301 
	C86.900520,181.825348 92.751625,181.927704 98.561508,181.582535 
	C102.846230,181.327957 104.663887,182.886887 105.780876,187.038620 
	C115.843018,224.438568 126.098389,261.786652 136.342133,299.137573 
	C143.245255,324.307953 150.218842,349.458954 157.171265,374.615784 
	C157.521683,375.883759 157.970322,377.124603 158.691620,379.368652 
	C160.321228,376.349091 161.596313,374.092285 162.775146,371.786316 
	C181.800781,334.569214 200.818375,297.348053 219.826324,260.121948 
	C223.048233,253.812027 223.035355,253.775742 229.511642,257.003021 
	C239.647598,262.054016 249.721542,267.232178 259.917480,272.158295 
	C263.102783,273.697266 263.792816,275.391907 261.751801,278.295013 
	C260.896576,279.511505 260.238586,280.887878 259.633942,282.254822 
	C258.418884,285.001678 256.708496,285.377411 254.067505,284.011841 
	C248.619415,281.194885 243.054001,278.604797 237.651611,275.977173 
	C235.686722,277.231567 235.284683,279.123749 234.480331,280.704681 
	C212.131088,324.632599 189.801620,368.570587 167.519913,412.532776 
	C166.027695,415.476929 164.655457,417.916534 160.675491,417.965057 
	C154.126465,418.044922 153.527832,417.774811 151.798920,411.368469 
	C139.838654,367.050842 127.858574,322.738525 115.794342,278.025970 
z"/>
<path fill="#000000" opacity="1.000000" stroke="none" 
	d="
M150.878403,230.082794 
	C149.435471,227.413879 148.271271,225.008545 146.856354,222.761063 
	C142.814468,216.340912 143.109680,207.227783 147.925980,200.305710 
	C153.215286,204.507202 155.055908,213.384171 163.937790,212.664658 
	C172.868851,211.941162 173.454697,203.321671 176.986832,197.748840 
	C179.958130,198.944992 179.605515,201.292236 180.273773,203.032196 
	C181.376724,205.903961 182.353500,208.806458 186.161545,208.855240 
	C189.862457,208.902649 191.143204,206.151047 192.498810,203.387787 
	C193.404785,201.541061 193.173843,198.980743 195.624939,198.032303 
	C199.432678,201.782867 197.851959,213.967880 192.703873,220.830368 
	C188.483139,226.456680 182.373398,227.065689 174.221085,222.476715 
	C171.450348,224.796387 168.727722,227.428757 164.923859,228.483948 
	C162.764221,229.083038 163.273453,231.089096 163.721146,232.711899 
	C167.390717,246.013382 167.811844,259.602417 167.270523,273.263855 
	C167.126022,276.910400 166.643326,280.543854 166.306519,284.182434 
	C166.166733,285.692596 166.078293,287.495728 164.075241,287.457458 
	C161.786789,287.413727 161.720428,285.417145 161.742935,283.755646 
	C161.855820,275.418091 161.300751,267.151154 159.752594,258.938934 
	C157.898148,249.101959 155.378357,239.488174 150.878403,230.082794 
z"/>
</svg>