<svg version="1.1" id="Layer_1" xmlns="http://www.w3.org/2000/svg" xmlns:xlink="http://www.w3.org/1999/xlink" x="0px" y="0px"
	 width="100%" viewBox="0 0 336 592" enable-background="new 0 0 336 592" xml:space="preserve">
<path fill="#000000" opacity="1.000000" stroke="none" 
	d="
M248.010468,281.046326 
	C244.535629,279.345428 241.397766,277.804596 238.243149,276.298889 
	C237.978409,276.172485 237.600983,276.282135 236.756790,276.282135 
	C234.019791,281.640167 231.149902,287.232971 228.302216,292.837036 
	C207.934540,332.919525 187.481812,372.959351 167.322128,413.146179 
	C164.848984,418.076263 161.270660,417.897308 157.037994,417.885925 
	C152.664734,417.874115 152.661499,414.439758 151.921951,411.705933 
	C132.767288,340.899048 113.619484,270.090210 94.624794,199.240356 
	C93.423225,194.758530 91.548927,192.523270 86.778862,193.313995 
	C85.482117,193.528946 84.118828,193.345200 82.786087,193.339798 
	C75.920876,193.311905 75.192291,192.407211 75.796631,185.431641 
	C76.003845,183.039856 76.828835,181.689713 79.392632,181.699738 
	C86.722191,181.728424 94.052071,181.734039 101.381569,181.697739 
	C104.632454,181.681656 104.885056,184.164429 105.498604,186.401688 
	C111.433846,208.044159 117.375824,229.684769 123.311005,251.327255 
	C134.655014,292.692902 145.994370,334.059814 157.347260,375.423035 
	C157.608643,376.375366 158.007935,377.289886 158.706253,379.233185 
	C160.436157,376.045258 161.856232,373.556427 163.159271,371.007751 
	C182.112259,333.936981 201.052734,296.859802 219.987457,259.779694 
	C223.019119,253.842743 223.027481,253.798813 228.938736,256.735077 
	C239.081833,261.773346 249.157806,266.949860 259.362396,271.859589 
	C262.770813,273.499481 264.162354,275.245331 261.552429,278.612518 
	C261.049774,279.261017 260.663849,280.037933 260.381775,280.813019 
	C258.922485,284.822449 256.591003,285.950012 252.829315,283.399078 
	C251.466858,282.475159 249.845993,281.932343 248.010468,281.046326 
z"/>
<path fill="#000000" opacity="1.000000" stroke="none" 
	d="
M174.788254,248.739532 
	C172.044022,252.541412 169.547043,256.079407 166.967682,259.556274 
	C164.859573,262.397919 165.519409,264.324310 168.605606,265.871796 
	C174.006439,268.579865 179.694016,270.461029 185.577835,271.632019 
	C189.094833,272.331970 189.750641,274.214111 189.196014,277.337769 
	C187.258148,288.251709 185.940903,289.044952 175.484818,285.588989 
	C170.261444,283.862457 165.063721,282.119904 160.275909,279.329742 
	C157.056732,277.453674 155.733490,275.076965 156.295395,271.095917 
	C157.288254,264.061462 160.598282,258.211487 164.428741,252.521057 
	C166.001999,250.183838 167.717484,247.942368 169.515839,245.453049 
	C166.595078,242.127609 162.583771,240.715424 159.166229,238.530731 
	C154.696625,235.673538 153.109711,232.074234 154.885666,227.101776 
	C158.725693,216.350159 165.146118,207.355881 173.730942,199.893631 
	C174.950455,198.833618 176.485168,197.534637 178.179321,198.712723 
	C179.657486,199.740585 178.863617,201.390564 178.621994,202.869049 
	C177.632935,208.920990 176.152008,214.076569 169.459320,216.991348 
	C163.825394,219.445023 164.274307,222.453018 169.728104,225.751785 
	C172.435410,227.389328 175.255447,228.841782 177.948776,230.500885 
	C182.937042,233.573669 183.512817,235.826859 180.449326,240.682068 
	C178.763626,243.353638 176.824692,245.865417 174.788254,248.739532 
z"/>
</svg>