<svg version="1.1" id="Layer_1" xmlns="http://www.w3.org/2000/svg" xmlns:xlink="http://www.w3.org/1999/xlink" x="0px" y="0px"
	 width="100%" viewBox="0 0 336 592" enable-background="new 0 0 336 592" xml:space="preserve">
<path fill="#000000" opacity="1.000000" stroke="none" 
	d="
M250.507935,364.485382 
	C254.696274,361.861603 256.859802,357.799347 259.700378,354.452850 
	C267.296478,359.013672 269.330353,364.924286 266.076233,372.319427 
	C262.258270,380.995972 256.776398,388.192596 247.660065,391.693634 
	C244.431351,392.933594 244.045212,395.431061 243.670792,397.955780 
	C239.978577,422.851410 226.973129,442.607544 209.272614,459.572693 
	C195.508545,472.764893 178.643509,478.975311 159.705734,480.443176 
	C146.944427,481.432281 134.800430,480.290649 123.533684,473.778839 
	C103.490753,462.194672 96.425728,442.885406 98.065956,421.267731 
	C98.922516,409.978455 102.239693,399.497833 108.031288,388.475433 
	C98.435356,392.604675 89.601143,395.192169 80.275818,395.753387 
	C77.796562,395.902618 74.737419,396.805359 74.036568,393.514862 
	C73.334839,390.220245 76.488579,389.456146 78.850372,388.924438 
	C94.951477,385.299805 108.061996,376.347412 120.373199,365.919159 
	C122.228996,364.347168 124.016495,361.862946 126.733841,364.276794 
	C129.233627,366.497375 128.386841,369.074524 126.816856,371.490723 
	C122.361191,378.347961 118.332397,385.440979 115.347672,393.068268 
	C104.197441,421.562134 115.163986,442.173676 145.189255,448.479370 
	C175.088364,454.758606 200.809280,447.046661 221.906052,424.596649 
	C228.502747,417.576843 230.556992,409.097137 230.813568,399.865265 
	C230.901489,396.701843 229.395157,396.574310 226.695251,396.865784 
	C217.885056,397.816956 209.078140,397.849670 200.512100,394.993500 
	C189.157578,391.207458 184.447815,383.445160 187.087540,371.868317 
	C190.213058,358.160919 196.279968,345.850800 205.958710,335.495819 
	C214.724808,326.117310 224.834702,326.770691 232.577255,336.976624 
	C238.323837,344.551575 241.769302,353.136322 244.227859,362.193542 
	C244.576614,363.478363 244.668121,364.821716 245.736237,365.936279 
	C247.481232,366.654816 248.767532,365.349457 250.507935,364.485382 
M204.460815,366.065552 
	C210.247055,369.369690 216.344070,370.521149 223.665695,369.022980 
	C221.044342,362.263947 216.568832,358.112671 210.665680,355.597565 
	C207.960648,354.445068 205.485641,356.049957 203.800079,358.390442 
	C202.085602,360.771057 201.612106,363.218781 204.460815,366.065552 
z"/>
</svg>