<svg version="1.1" id="Layer_1" xmlns="http://www.w3.org/2000/svg" xmlns:xlink="http://www.w3.org/1999/xlink" x="0px" y="0px"
	 width="100%" viewBox="0 0 336 592" enable-background="new 0 0 336 592" xml:space="preserve">
<path fill="#000000" opacity="1.000000" stroke="none" 
	d="
M200.185028,191.077118 
	C168.087830,275.782959 136.075333,360.107697 104.259537,444.506561 
	C102.394875,449.453064 99.557198,450.383698 94.882812,450.263092 
	C84.416817,449.993073 84.461304,450.208252 88.174889,440.501129 
	C108.809578,386.563232 129.421875,332.616730 150.034302,278.670319 
	C162.270569,246.645874 174.537170,214.632828 186.652390,182.562622 
	C187.844620,179.406677 189.553452,177.910400 192.834717,178.081314 
	C196.437286,178.268982 200.132996,177.386154 203.907608,179.018524 
	C203.983093,183.339798 201.544205,186.855804 200.185028,191.077118 
z"/>
<path fill="#000000" opacity="1.000000" stroke="none" 
	d="
M179.265900,397.728729 
	C186.182358,401.903870 187.175613,407.378601 185.090210,414.573242 
	C182.425934,423.764862 180.691879,433.226166 178.668213,442.084198 
	C177.371750,443.059692 176.552429,442.835358 175.813477,442.455536 
	C165.283417,437.042572 155.281601,430.795074 146.048492,423.366180 
	C144.342331,421.993408 142.903534,420.309113 143.313004,417.829559 
	C145.477402,404.722778 149.267822,392.055359 153.502487,378.291290 
	C162.958252,384.353210 170.924789,390.997559 179.265900,397.728729 
z"/>
<path fill="#000000" opacity="1.000000" stroke="none" 
	d="
M79.178421,181.541840 
	C87.110146,184.616440 92.995338,190.379196 99.289734,195.466644 
	C115.770470,208.787170 112.677521,204.098663 108.910583,223.042984 
	C107.459442,230.340897 105.607933,237.559219 104.007675,244.514603 
	C102.036293,245.270813 100.925575,244.370163 99.785133,243.764160 
	C90.360779,238.756348 81.433983,232.973099 72.878120,226.593964 
	C69.250961,223.889633 68.063797,220.705597 69.215584,216.183685 
	C72.161072,204.619614 74.365204,192.857071 79.178421,181.541840 
z"/>
<path fill="#000000" opacity="1.000000" stroke="none" 
	d="
M258.620544,383.336914 
	C266.531952,389.182373 273.984009,395.023102 281.081360,401.317413 
	C283.711761,403.650238 284.557983,406.082855 283.676819,409.683990 
	C281.005615,420.600708 278.728790,431.613922 276.395020,442.152863 
	C274.304993,443.197998 273.170685,442.312103 272.043579,441.722290 
	C262.597626,436.779388 253.691483,430.996887 245.170303,424.588470 
	C241.586060,421.892975 240.315216,418.946716 241.441086,414.297821 
	C243.980408,403.812500 246.661530,393.373718 249.682816,383.020447 
	C250.044266,381.781799 250.676422,380.622192 251.175125,379.444763 
	C254.359238,379.555359 256.117096,381.784088 258.620544,383.336914 
z"/>
<path fill="#000000" opacity="1.000000" stroke="none" 
	d="
M198.159470,392.397095 
	C199.800232,387.842804 200.184647,383.278229 202.439468,379.517609 
	C204.249237,379.136292 205.225586,380.197327 206.281021,380.937836 
	C215.152832,387.161865 223.631073,393.889862 231.864014,400.934937 
	C234.819016,403.463623 235.697723,406.245880 234.705185,410.221375 
	C232.290512,419.893005 230.373444,429.688995 228.272781,439.438568 
	C228.024551,440.590698 227.775543,441.716248 226.757034,442.601105 
	C225.201370,443.205902 223.947006,442.223846 222.681030,441.521881 
	C214.079559,436.752594 205.836609,431.435913 197.741165,425.836151 
	C192.697708,422.347565 191.357834,418.286987 192.977386,412.593048 
	C194.841110,406.040649 196.349274,399.387115 198.159470,392.397095 
z"/>
</svg>