<svg version="1.1" id="Layer_1" xmlns="http://www.w3.org/2000/svg" xmlns:xlink="http://www.w3.org/1999/xlink" x="0px" y="0px"
	 width="100%" viewBox="0 0 336 592" enable-background="new 0 0 336 592" xml:space="preserve">
<path fill="#000000" opacity="1.000000" stroke="none" 
	d="
M205.855469,288.217590 
	C214.871033,302.125885 221.627487,316.745178 222.003967,333.080444 
	C222.672394,362.084381 212.873199,375.031769 191.011688,386.199097 
	C171.772522,396.026886 151.273636,397.908325 130.252396,395.773804 
	C118.771423,394.608002 118.815781,394.171051 119.636536,382.442383 
	C120.711349,367.083038 120.779915,366.742096 136.160751,367.933441 
	C157.013763,369.548645 176.943787,366.517426 195.928589,357.639465 
	C199.713058,355.869720 203.276031,353.736053 206.576859,351.167633 
	C212.629166,346.458191 213.343445,343.187042 209.630615,336.628021 
	C208.490631,334.614166 207.402588,332.526367 205.101303,330.857056 
	C202.683456,334.381744 200.464569,338.001709 197.868668,341.327362 
	C190.532501,350.725830 177.335327,354.050018 166.366257,349.342926 
	C157.988129,345.747650 156.153656,337.882477 155.890488,330.303558 
	C155.202087,310.479523 161.968613,292.682953 173.544434,276.860077 
	C179.075333,269.299988 186.075363,268.987549 193.576447,274.684174 
	C198.405197,278.351349 202.142044,283.035797 205.855469,288.217590 
M174.120483,305.768860 
	C171.379639,307.812347 170.396851,310.563416 171.813751,313.628052 
	C173.227814,316.686493 175.405502,319.611481 179.156937,319.466644 
	C182.953690,319.319977 185.880127,316.931091 188.214798,313.985779 
	C188.753571,313.306061 188.679993,312.485352 188.285858,311.651855 
	C186.868866,308.655426 178.277481,304.650116 174.120483,305.768860 
z"/>
<path fill="#000000" opacity="1.000000" stroke="none" 
	d="
M181.021591,503.638916 
	C180.442856,505.813751 180.039505,507.597076 179.492432,509.335205 
	C178.951904,511.052612 177.935913,512.363281 175.881149,512.010681 
	C173.989914,511.686188 173.046539,510.342346 172.865448,508.526001 
	C172.717346,507.040588 172.676468,505.532562 172.734863,504.040314 
	C173.369431,487.824463 170.830963,471.919312 168.073654,456.035126 
	C165.464142,441.002380 169.417511,427.066376 175.201218,413.443420 
	C175.653595,412.377930 176.307480,411.360077 178.972961,411.118774 
	C181.078583,426.363281 180.261246,441.938141 182.464157,457.168549 
	C184.706039,472.668304 183.776321,487.939087 181.021591,503.638916 
z"/>
<path fill="#000000" opacity="1.000000" stroke="none" 
	d="
M185.370041,249.493073 
	C183.722763,251.137695 182.218079,251.168045 180.592361,250.190308 
	C175.178528,246.934326 169.978485,243.384995 165.152771,239.288513 
	C162.839890,237.325119 162.612793,235.159454 164.126221,232.685699 
	C167.419708,227.302353 170.828674,222.003006 174.767899,217.050705 
	C176.690201,214.634033 178.705658,214.366272 181.234863,215.966797 
	C186.153900,219.079605 190.842407,222.490585 195.285065,226.257874 
	C197.695511,228.301910 198.209412,230.501434 196.575058,233.253647 
	C193.270370,238.818710 190.147491,244.502991 185.370041,249.493073 
z"/>
</svg>