<svg version="1.1" id="Layer_1" xmlns="http://www.w3.org/2000/svg" xmlns:xlink="http://www.w3.org/1999/xlink" x="0px" y="0px"
	 width="100%" viewBox="0 0 336 592" enable-background="new 0 0 336 592" xml:space="preserve">
<path fill="#000000" opacity="1.000000" stroke="none" 
	d="
M169.734375,299.691101 
	C170.747543,298.783508 171.417068,297.977356 172.270172,297.497711 
	C174.637009,296.167023 176.780930,292.765625 179.811661,296.714600 
	C182.290573,299.944580 184.723557,302.326630 180.558517,306.738037 
	C170.909912,316.957458 162.844208,328.326019 158.991455,342.243896 
	C156.454102,351.410004 157.292313,360.353180 159.554276,369.329773 
	C160.598984,373.475647 162.768692,373.282104 166.196045,371.506836 
	C179.320145,364.708862 192.587296,369.849060 197.184250,383.453552 
	C199.974640,391.711670 198.167145,399.346985 192.477997,405.805450 
	C186.258224,412.866302 177.942139,413.488983 169.453156,411.806183 
	C157.817322,409.499512 151.179474,401.093170 146.972397,390.918182 
	C136.496674,365.582275 139.839584,341.431885 154.469238,318.606689 
	C158.793259,311.860382 163.788132,305.612885 169.734375,299.691101 
z"/>
</svg>