<svg version="1.1" id="Layer_1" xmlns="http://www.w3.org/2000/svg" xmlns:xlink="http://www.w3.org/1999/xlink" x="0px" y="0px"
	 width="100%" viewBox="0 0 336 592" enable-background="new 0 0 336 592" xml:space="preserve">
<path fill="#000000" opacity="1.000000" stroke="none" 
	d="
M170.323822,324.331268 
	C177.825653,316.949524 185.323074,310.099121 194.439957,305.352112 
	C203.873093,300.440399 209.445999,301.843719 214.249054,310.099060 
	C216.209793,313.469086 216.774002,316.899811 215.219910,320.584625 
	C213.334030,325.056091 211.089371,329.310425 207.876419,332.987701 
	C206.193481,334.913818 204.295334,336.475647 201.521042,336.440521 
	C178.448959,336.148407 163.655289,350.649506 149.394119,365.877686 
	C144.857513,370.721924 140.913757,376.137482 136.883163,381.432007 
	C135.136902,383.725830 133.498535,385.011078 130.671768,383.262756 
	C127.657166,381.398285 129.688492,379.540344 130.669708,377.810760 
	C141.642883,358.468048 154.582291,340.574463 170.323822,324.331268 
z"/>
</svg>