<svg version="1.1" id="Layer_1" xmlns="http://www.w3.org/2000/svg" xmlns:xlink="http://www.w3.org/1999/xlink" x="0px" y="0px"
	 width="100%" viewBox="0 0 336 592" enable-background="new 0 0 336 592" xml:space="preserve">
<path fill="#000000" opacity="1.000000" stroke="none" 
	d="
M66.360680,296.280579 
	C74.128838,290.473602 82.365715,286.604889 91.755829,285.820557 
	C109.075912,284.373871 122.404182,293.740082 128.077515,311.580078 
	C130.949570,320.611389 132.845825,329.905334 133.380386,339.426514 
	C133.776657,346.484467 134.420166,347.445374 141.271149,348.431305 
	C194.317734,356.065216 245.448624,350.148285 294.041077,326.567017 
	C295.364410,325.924835 296.741425,325.393311 297.858887,324.911377 
	C299.686188,325.710236 300.177582,327.091217 299.906555,328.359192 
	C298.302765,335.862061 296.720337,342.926727 288.293121,346.693542 
	C259.486633,359.569550 229.580658,368.493805 198.174606,371.239471 
	C161.559586,374.440613 125.040253,372.934906 88.941223,365.327179 
	C76.235672,362.649536 64.461571,357.704865 54.138626,349.732056 
	C42.288307,340.579590 40.234119,328.643433 48.218220,315.907043 
	C52.956074,308.349060 59.165848,302.089264 66.360680,296.280579 
M103.336220,319.208405 
	C102.472855,317.988647 101.674332,316.716400 100.735825,315.557495 
	C93.583801,306.725647 80.392426,308.107147 75.138824,318.252594 
	C73.407852,321.595337 72.823967,325.161743 76.019661,327.830811 
	C86.042099,336.201660 97.814880,340.453339 111.153122,342.578552 
	C110.064697,333.978302 107.441757,326.734802 103.336220,319.208405 
z"/>
</svg>