<svg version="1.1" id="Layer_1" xmlns="http://www.w3.org/2000/svg" xmlns:xlink="http://www.w3.org/1999/xlink" x="0px" y="0px"
	 width="100%" viewBox="0 0 336 592" enable-background="new 0 0 336 592" xml:space="preserve">
<path fill="#000000" opacity="1.000000" stroke="none" 
	d="
M222.498688,300.442627 
	C213.465042,316.560120 202.228699,329.268616 185.058334,337.284149 
	C168.498398,345.014679 153.876862,356.478333 140.367905,368.984344 
	C123.373695,384.716858 110.029297,402.782257 106.936417,426.491180 
	C104.285355,446.813416 106.715240,466.369049 118.299164,483.990479 
	C119.019302,485.085938 119.651276,486.298035 121.631874,487.063843 
	C122.995010,485.057739 124.455879,482.918610 125.905914,480.772217 
	C138.796463,461.690735 152.108643,442.937134 169.694519,427.757965 
	C180.451950,418.472778 192.225632,411.552338 207.014343,410.419464 
	C224.859924,409.052429 241.161118,417.950531 248.598068,434.612457 
	C258.867004,457.619171 256.255737,479.991730 244.406357,501.640717 
	C235.028137,518.774841 222.011871,532.473999 205.541138,543.107910 
	C178.456009,560.594849 135.731949,553.468750 114.953827,527.519897 
	C113.831749,526.118591 113.016701,524.380127 111.120148,523.665283 
	C109.132164,524.009827 108.792320,525.878967 107.981232,527.228943 
	C101.804840,537.508911 95.739624,547.856201 89.496887,558.095398 
	C88.414093,559.871338 87.390198,563.141541 84.391518,561.248413 
	C81.814636,559.621521 83.355469,556.985291 84.387794,554.963745 
	C90.523178,542.949036 96.652679,530.928955 103.012665,519.032837 
	C104.771736,515.742493 104.662415,513.089600 103.118683,509.704773 
	C90.189796,481.356598 89.338005,452.039978 97.538712,422.427094 
	C104.937180,395.711121 118.037888,371.917908 136.718323,351.305267 
	C137.251282,350.717194 137.663132,350.019318 138.216476,349.255219 
	C135.753006,347.236725 132.806824,347.181305 130.208176,346.264343 
	C123.891235,344.035248 117.932823,341.244843 112.542320,337.154724 
	C104.563179,331.100403 101.772911,323.008606 104.240120,313.733185 
	C108.910080,296.176636 116.623901,279.914185 128.476471,266.007111 
	C143.651443,248.201752 164.318176,251.001404 180.468262,266.676605 
	C181.424774,267.604980 182.426865,268.735199 181.860672,270.179504 
	C181.027603,272.304535 178.980316,272.189331 177.176071,272.218842 
	C163.189651,272.448029 150.348267,276.761810 138.137756,283.220764 
	C129.725449,287.670563 122.579285,293.460175 118.530853,302.437683 
	C116.896561,306.061798 116.954475,309.495911 120.152695,311.922974 
	C132.646378,321.404144 146.166794,328.062836 162.521454,325.648132 
	C167.058838,324.978180 170.865173,322.368286 174.786697,320.200989 
	C189.365845,312.143677 203.899826,304.004639 218.450775,295.896301 
	C220.023407,295.019958 221.522552,293.907135 223.438431,294.157227 
	C225.469254,296.576996 223.477661,298.273163 222.498688,300.442627 
M221.903976,502.395996 
	C228.134308,497.486847 233.175308,491.554840 236.916931,484.570892 
	C245.900238,467.803040 238.404663,447.094452 220.913361,441.539032 
	C203.435410,435.987854 186.928589,437.822540 171.714035,449.067383 
	C155.962692,460.708984 143.856308,475.630981 131.974289,490.892670 
	C128.954285,494.771667 129.659851,496.847137 133.159332,499.726532 
	C153.938354,516.823792 194.285934,525.926819 221.903976,502.395996 
z"/>
</svg>