<svg version="1.1" id="Layer_1" xmlns="http://www.w3.org/2000/svg" xmlns:xlink="http://www.w3.org/1999/xlink" x="0px" y="0px"
	 width="100%" viewBox="0 0 336 592" enable-background="new 0 0 336 592" xml:space="preserve">
<path fill="#000000" opacity="1.000000" stroke="none" 
	d="
M181.159210,239.368515 
	C172.713791,242.196915 164.489624,244.043823 155.947235,244.422653 
	C152.601532,244.571014 149.310516,244.940308 148.018066,249.071777 
	C147.464935,250.839966 147.725204,254.027100 144.399918,253.420990 
	C141.424057,252.878586 138.570389,251.791000 137.731476,248.294510 
	C137.552719,247.549484 137.406235,246.796707 136.460083,245.731079 
	C135.446564,255.460114 133.979889,264.800934 123.579758,269.020721 
	C122.103951,267.629211 122.663498,265.855316 122.909821,264.348724 
	C124.383194,255.336960 123.105652,246.451889 121.904320,237.556732 
	C121.164200,232.076599 124.007858,227.919540 127.173538,224.051437 
	C129.134842,221.654984 130.508484,223.473480 131.686005,225.366501 
	C136.196060,232.616943 143.613083,232.558105 148.277649,225.517197 
	C157.048340,212.278229 168.408279,202.146286 183.649658,196.809677 
	C188.193420,195.218735 192.868179,195.276337 197.467896,195.837997 
	C204.423157,196.687317 208.493332,203.862015 207.794571,213.319885 
	C207.276184,220.336258 204.297989,226.023666 198.758469,230.420120 
	C193.594559,234.518463 187.746384,237.221375 181.159210,239.368515 
M161.493210,226.623260 
	C160.554291,229.881989 163.012863,228.867706 164.370377,228.737198 
	C172.705261,227.935776 180.682480,225.691208 188.189468,222.024292 
	C190.794846,220.751633 195.337204,220.037186 194.132919,216.023819 
	C193.055435,212.433075 188.698914,212.966904 185.455582,212.590866 
	C184.981155,212.535873 184.478821,212.759659 183.985443,212.824097 
	C174.685226,214.038925 167.850616,219.345169 161.493210,226.623260 
z"/>
</svg>