<svg version="1.1" id="Layer_1" xmlns="http://www.w3.org/2000/svg" xmlns:xlink="http://www.w3.org/1999/xlink" x="0px" y="0px"
	 width="100%" viewBox="0 0 336 592" enable-background="new 0 0 336 592" xml:space="preserve">
<path fill="#000000" opacity="1.000000" stroke="none" 
	d="
M123.952789,235.820786 
	C123.856567,229.644012 126.911491,225.589752 131.495392,221.223526 
	C137.510315,235.019455 147.618240,238.819122 161.186157,235.386459 
	C155.768875,217.614639 168.959854,201.414383 187.310165,202.726929 
	C194.439163,203.236847 198.891281,208.168396 202.807800,213.416306 
	C204.613464,215.835800 203.169388,217.441330 200.368881,217.772079 
	C198.281967,218.018555 196.504318,216.962296 194.622681,216.333649 
	C188.086044,214.149796 181.791641,215.632477 175.620850,217.820663 
	C172.574020,218.901093 171.966507,221.125916 174.031219,223.684601 
	C177.465408,227.940384 181.850098,230.594101 187.462982,229.785172 
	C192.382111,229.076218 197.196686,227.669861 202.092239,226.758499 
	C204.858063,226.243591 208.163376,224.472015 209.965714,228.267731 
	C210.961411,230.364685 207.099731,237.689331 204.809174,238.222687 
	C187.985474,242.139969 171.546417,247.694778 154.373032,250.119904 
	C148.882568,250.895233 143.603104,248.796158 138.043030,248.502518 
	C136.500748,253.660385 138.578522,259.480865 134.725830,263.516449 
	C132.086761,266.280823 129.422073,269.325745 124.424911,271.673157 
	C126.992195,259.051483 126.862228,247.586761 123.952789,235.820786 
z"/>
</svg>