<svg version="1.1" id="Layer_1" xmlns="http://www.w3.org/2000/svg" xmlns:xlink="http://www.w3.org/1999/xlink" x="0px" y="0px"
	 width="100%" viewBox="0 0 336 592" enable-background="new 0 0 336 592" xml:space="preserve">
<path fill="#000000" opacity="1.000000" stroke="none" 
	d="
M142.512405,214.515335 
	C131.053558,222.785248 123.911667,233.139664 122.150856,247.210327 
	C121.463921,252.699539 115.738480,254.456055 111.586868,257.636627 
	C107.212036,239.415421 119.666916,218.547806 146.658051,198.099716 
	C136.622589,194.219620 126.772049,197.808807 117.046021,198.392548 
	C115.338051,188.891846 118.899879,183.232605 127.440605,180.611404 
	C139.191025,177.005112 150.879120,178.898956 162.495056,180.926010 
	C173.737289,182.887863 184.932190,183.297760 196.235840,181.923798 
	C198.374756,181.663803 200.557343,181.662903 202.717377,181.696625 
	C208.184387,181.781952 208.600372,183.087814 206.899109,188.070343 
	C203.619156,197.676422 195.454498,197.404358 187.815659,198.284897 
	C171.561630,200.158539 156.156250,204.325058 142.512405,214.515335 
z"/>
<path fill="#000000" opacity="1.000000" stroke="none" 
	d="
M224.611237,176.507294 
	C227.458374,175.321243 228.132935,177.505569 228.936371,178.959198 
	C243.243454,204.844315 237.571121,236.147827 211.881073,253.662476 
	C198.490509,262.791718 183.565338,260.270813 169.347794,253.933701 
	C167.833145,253.258575 166.379547,252.080276 167.132233,250.020111 
	C167.804993,248.178665 169.395218,247.660919 171.189972,247.847534 
	C173.005814,248.036362 174.801605,248.409592 176.613464,248.646408 
	C186.547882,249.944778 195.412796,247.143967 203.481567,241.488297 
	C211.563889,235.823120 219.153488,229.618073 224.876724,221.422882 
	C227.564438,217.574265 228.366745,213.718262 225.948273,209.306686 
	C223.791275,205.372101 222.405701,201.001266 220.126617,197.150269 
	C217.227203,192.251175 217.377075,187.779861 220.466812,183.158859 
	C221.851990,181.087189 223.045639,178.887466 224.611237,176.507294 
z"/>
</svg>