<svg version="1.1" id="Layer_1" xmlns="http://www.w3.org/2000/svg" xmlns:xlink="http://www.w3.org/1999/xlink" x="0px" y="0px"
	 width="100%" viewBox="0 0 336 592" enable-background="new 0 0 336 592" xml:space="preserve">
<path fill="#000000" opacity="1.000000" stroke="none" 
	d="
M126.184677,251.701050 
	C122.930199,254.695053 120.491623,258.093231 116.743256,260.159058 
	C114.704269,256.918884 116.576515,254.225372 116.675804,251.528992 
	C116.928238,244.674576 116.283081,237.846069 115.161186,231.165802 
	C114.141327,225.093124 116.372833,220.440094 119.416656,215.798798 
	C121.326714,212.886292 122.989761,213.714783 124.681084,216.232605 
	C129.317871,223.135315 137.308197,223.168747 142.268753,216.488571 
	C150.463989,205.452408 159.395233,195.168182 172.250443,189.296356 
	C178.083160,186.632126 184.187988,185.300919 190.658371,186.667740 
	C195.352615,187.659332 198.243317,190.494095 199.697571,194.989914 
	C203.090775,205.479919 199.466660,215.863586 189.710938,222.398682 
	C176.604279,231.178497 161.743805,234.490753 146.275177,235.220398 
	C142.130966,235.415863 139.631363,236.589401 138.615173,240.597595 
	C138.120819,242.547455 137.793549,244.667999 134.947449,244.358688 
	C132.397751,244.081573 131.228790,242.480225 130.705414,240.151703 
	C130.468002,239.095490 131.097672,237.763245 129.132736,236.641922 
	C127.584282,241.568130 128.491974,246.826965 126.184677,251.701050 
M154.211746,214.658722 
	C152.904770,216.226028 151.136963,217.532272 150.898315,220.104248 
	C163.223007,219.685135 174.463455,216.384491 185.335052,211.629715 
	C187.095810,210.859634 189.567795,210.194153 189.365738,207.783783 
	C189.152802,205.243515 186.755646,204.612137 184.566605,204.227539 
	C172.827301,202.165054 163.001083,205.889984 154.211746,214.658722 
z"/>
<path fill="#000000" opacity="1.000000" stroke="none" 
	d="
M221.050934,189.442474 
	C222.988922,185.928436 224.335815,182.485962 227.515335,179.643204 
	C232.463669,184.066071 234.343933,189.971924 235.886047,195.736343 
	C242.130981,219.079697 235.483139,238.853775 217.829025,254.794495 
	C207.781967,263.866425 195.398117,264.916626 182.629440,262.122101 
	C179.091019,261.347687 175.713348,259.758240 172.334854,258.365814 
	C170.522705,257.618927 168.283661,256.694427 168.972855,254.150299 
	C169.662781,251.603577 171.871948,251.925507 173.926865,252.326218 
	C174.901810,252.516342 175.911758,252.519394 176.895386,252.673813 
	C193.789764,255.326202 205.727203,246.002106 217.322510,235.905762 
	C219.200745,234.270340 220.958664,232.477615 222.635437,230.633255 
	C229.946121,222.591843 230.388260,219.527740 225.781967,209.769211 
	C224.219757,206.459641 222.679413,203.138702 221.052124,199.861176 
	C219.389923,196.513397 219.163895,193.184952 221.050934,189.442474 
z"/>
<path fill="#000000" opacity="1.000000" stroke="none" 
	d="
M142.510300,181.368942 
	C148.115646,185.958817 147.165115,194.139633 140.850113,197.172989 
	C137.131348,198.959229 135.129196,195.541870 132.653244,193.867401 
	C130.509293,192.417496 128.592285,190.462524 129.996719,187.629440 
	C131.315018,184.970169 132.852722,182.300812 134.823578,180.113083 
	C137.458664,177.188065 139.919922,179.459763 142.510300,181.368942 
z"/>
</svg>