<svg version="1.1" id="Layer_1" xmlns="http://www.w3.org/2000/svg" xmlns:xlink="http://www.w3.org/1999/xlink" x="0px" y="0px"
	 width="100%" viewBox="0 0 336 592" enable-background="new 0 0 336 592" xml:space="preserve">
<path fill="#000000" opacity="1.000000" stroke="none" 
	d="
M201.413559,225.211609 
	C171.176270,229.529587 141.368011,227.672012 111.425362,225.825729 
	C98.806725,225.047653 92.165703,218.193085 84.538902,209.827621 
	C88.076965,208.120178 90.984375,209.592514 93.690552,209.932770 
	C120.365417,213.286423 147.021774,213.765594 173.797211,210.955261 
	C188.086426,209.455475 202.083038,206.927338 215.687302,202.380417 
	C219.588058,201.076675 220.809250,202.407349 221.035416,206.116043 
	C221.277451,210.085114 221.026932,214.075195 222.015564,218.022263 
	C224.192490,226.713593 227.807877,230.940964 233.951080,231.498703 
	C241.648483,232.197556 250.035477,227.397675 253.050995,220.410278 
	C255.405991,214.953369 256.193146,209.150742 255.469284,203.311401 
	C255.049698,199.926743 256.185944,197.981323 258.949188,196.408966 
	C262.932617,194.142334 266.315063,190.855515 270.903534,188.866623 
	C273.532440,195.182587 272.173981,201.149384 271.189636,206.910416 
	C268.986023,219.807175 263.985352,231.426529 254.256256,240.651581 
	C238.538177,255.555374 213.457199,249.596954 206.386780,229.246277 
	C205.641541,227.101257 205.784683,223.753342 201.413559,225.211609 
z"/>
</svg>