<svg version="1.1" id="Layer_1" xmlns="http://www.w3.org/2000/svg" xmlns:xlink="http://www.w3.org/1999/xlink" x="0px" y="0px"
	 width="100%" viewBox="0 0 336 592" enable-background="new 0 0 336 592" xml:space="preserve">
<path fill="#000000" opacity="1.000000" stroke="none" 
	d="
M165.320801,221.921951 
	C173.064392,214.312927 181.171066,207.710999 190.737595,203.097824 
	C194.530273,201.268921 198.561905,200.109238 202.768036,200.262497 
	C213.299026,200.646194 219.890320,209.469131 218.040512,220.377029 
	C216.828583,227.523636 212.971130,232.865936 207.193237,237.070007 
	C195.975739,245.232040 182.945496,248.510056 169.694565,251.263092 
	C162.020966,252.857361 154.212646,253.322617 146.440857,254.038269 
	C138.386017,254.779984 131.865891,251.385223 126.380020,245.774338 
	C125.005890,244.368912 123.404510,242.642593 124.539429,240.521683 
	C125.572784,238.590546 127.674210,239.119507 129.506363,239.332932 
	C133.640305,239.814468 137.770905,240.256683 141.953705,239.883820 
	C149.695908,239.193665 154.282257,234.920471 155.704926,227.167221 
	C158.000839,214.655029 156.189819,202.288025 154.260696,189.975815 
	C152.848190,180.960876 150.818268,172.041321 149.008270,163.090439 
	C147.819458,157.211456 149.441467,151.856979 152.057343,146.737915 
	C153.535599,143.845108 155.607010,143.914780 157.447220,146.445038 
	C159.305511,149.000153 160.993454,151.681702 162.699905,154.343826 
	C163.927811,156.259415 163.726471,158.057312 162.225235,159.827438 
	C159.042053,163.580795 158.638565,168.190231 159.513306,172.619446 
	C162.838409,189.455933 164.392853,206.379654 162.711029,224.271774 
	C163.915710,223.195251 164.506241,222.667542 165.320801,221.921951 
M172.811401,224.261978 
	C168.045441,228.071472 163.446701,232.024933 160.807022,237.534851 
	C161.784485,238.897217 162.875305,238.686707 163.809982,238.605881 
	C177.841217,237.392365 191.402634,234.478729 203.623199,227.069290 
	C205.364349,226.013596 208.224289,225.364090 208.010529,222.841843 
	C207.787521,220.210373 205.012344,219.502258 202.846848,218.755966 
	C192.118973,215.058914 182.647156,218.840347 172.811401,224.261978 
z"/>
</svg>