<svg version="1.1" id="Layer_1" xmlns="http://www.w3.org/2000/svg" xmlns:xlink="http://www.w3.org/1999/xlink" x="0px" y="0px"
	 width="100%" viewBox="0 0 336 592" enable-background="new 0 0 336 592" xml:space="preserve">
<path fill="#000000" opacity="1.000000" stroke="none" 
	d="
M226.923950,243.108154 
	C209.477661,250.235931 191.605423,252.349091 173.292419,252.392136 
	C153.627579,252.438354 133.990219,252.301102 114.612122,248.529861 
	C109.604897,247.555374 103.170135,247.843491 101.401665,241.419449 
	C99.381996,234.082962 100.116272,226.708618 105.342613,220.687073 
	C111.904762,213.126495 120.169563,207.887589 129.551605,204.410355 
	C133.454056,202.964005 137.290848,201.312622 141.256622,200.071136 
	C148.642929,197.758835 151.257751,192.073532 151.595871,185.174927 
	C152.372208,169.335281 150.547607,153.601364 149.212265,137.847183 
	C148.440598,128.743378 147.463898,119.556183 150.814102,110.679337 
	C151.480804,108.912766 151.665833,106.661415 154.193375,106.199554 
	C155.961838,107.134583 156.156815,108.820259 156.226501,110.460793 
	C157.179306,132.891373 160.539627,155.170410 160.383301,177.672882 
	C160.271988,193.693817 146.207123,212.630783 130.809265,217.302795 
	C125.400398,218.943970 119.797295,219.976929 114.623734,222.353149 
	C112.067741,223.527145 108.937057,224.545242 109.381042,228.139053 
	C109.825081,231.733276 113.243233,232.192474 115.896378,232.484100 
	C127.135536,233.719482 138.398575,234.794083 149.675476,235.618546 
	C177.303574,237.638474 204.941696,236.235779 232.576050,235.611694 
	C234.276611,235.573273 236.672852,234.547440 237.284882,236.995117 
	C237.888046,239.407364 235.403351,239.755020 233.806381,240.445801 
	C231.669647,241.370026 229.468826,242.146072 226.923950,243.108154 
z"/>
<path fill="#000000" opacity="1.000000" stroke="none" 
	d="
M180.358582,204.997986 
	C179.292252,207.817871 180.315643,212.385345 176.723541,212.043961 
	C172.849014,211.675720 174.924835,207.411026 174.738556,204.923264 
	C173.397461,187.013550 171.955643,169.101410 171.179825,151.162613 
	C170.603683,137.840805 166.855820,124.328598 172.529297,111.190109 
	C173.292999,109.421547 173.435028,107.200455 175.829132,106.677269 
	C177.685181,107.240372 177.312683,108.782486 177.317551,110.019012 
	C177.421768,136.494125 180.695465,162.789230 181.751862,189.206268 
	C181.956589,194.326370 181.619614,199.520432 180.358582,204.997986 
z"/>
</svg>