<svg version="1.1" id="Layer_1" xmlns="http://www.w3.org/2000/svg" xmlns:xlink="http://www.w3.org/1999/xlink" x="0px" y="0px"
	 width="100%" viewBox="0 0 336 592" enable-background="new 0 0 336 592" xml:space="preserve">
<path fill="#000000" opacity="1.000000" stroke="none" 
	d="
M151.214813,250.277496 
	C162.735397,244.521042 172.294785,236.940399 180.115829,227.156738 
	C183.799835,222.548248 184.869415,217.851639 181.821991,212.427170 
	C179.789322,208.809021 178.183350,204.951523 176.379059,201.204666 
	C172.857651,193.891953 175.449646,185.003632 182.870972,179.826050 
	C188.384995,186.614471 190.974426,194.638763 192.144058,203.049438 
	C195.145325,224.631332 187.647339,242.256851 170.960953,255.961655 
	C159.252274,265.578247 139.523315,265.832153 125.289429,257.445251 
	C123.857582,256.601562 122.866524,255.564087 123.639481,253.810593 
	C124.459045,251.951355 126.106560,251.686966 127.849495,252.053970 
	C131.786438,252.882950 135.776978,252.950287 139.764374,252.964554 
	C143.641632,252.978439 147.339371,252.035263 151.214813,250.277496 
z"/>
<path fill="#000000" opacity="1.000000" stroke="none" 
	d="
M170.396683,148.204605 
	C174.836533,148.615311 177.498337,151.434204 180.047379,154.226730 
	C182.683960,157.115189 180.208527,159.528534 178.687515,161.755753 
	C177.163208,163.987839 176.044983,167.552002 172.666336,166.892410 
	C169.050934,166.186584 166.072754,163.623825 164.010147,160.534760 
	C162.469635,158.227570 164.352158,156.108810 165.403748,154.082474 
	C166.557602,151.859024 167.858688,149.730621 170.396683,148.204605 
z"/>
</svg>