<svg version="1.1" id="Layer_1" xmlns="http://www.w3.org/2000/svg" xmlns:xlink="http://www.w3.org/1999/xlink" x="0px" y="0px"
	 width="100%" viewBox="0 0 348 592" enable-background="new 0 0 348 592" xml:space="preserve">
<path fill="#FFFFFF" opacity="1.000000" stroke="none" 
	d="
M1.000000,588.000000 
	C1.000000,392.388062 1.000000,196.776108 1.000000,1.082082 
	C116.912788,1.082082 232.825653,1.082082 349.000000,1.082082 
	C349.000000,196.358154 349.000000,391.716431 348.791199,588.048523 
	C346.283569,589.230652 343.984772,589.620605 341.685852,589.621216 
	C230.527115,589.650879 119.368378,589.647278 8.209643,589.643250 
	C6.543861,589.643188 4.852860,589.750549 3.223078,589.493835 
	C2.423455,589.367920 1.737434,588.520752 1.000000,588.000000 
M184.112808,237.629791 
	C176.106750,241.954987 168.054230,246.197052 160.111084,250.634842 
	C154.884903,253.554688 153.673965,256.034546 154.727585,261.025085 
	C164.459015,255.903976 174.166550,250.964294 183.690994,245.693710 
	C187.129730,243.790817 189.127686,240.601059 188.582489,235.725739 
	C187.049759,236.309967 185.892212,236.751175 184.112808,237.629791 
z"/>
<path fill="#0B0B0B" opacity="1.000000" stroke="none" 
	d="
M184.423737,237.411087 
	C185.892212,236.751175 187.049759,236.309967 188.582489,235.725739 
	C189.127686,240.601059 187.129730,243.790817 183.690994,245.693710 
	C174.166550,250.964294 164.459015,255.903976 154.727585,261.025085 
	C153.673965,256.034546 154.884903,253.554688 160.111084,250.634842 
	C168.054230,246.197052 176.106750,241.954987 184.423737,237.411087 
z"/>
</svg>