<svg version="1.1" id="Layer_1" xmlns="http://www.w3.org/2000/svg" xmlns:xlink="http://www.w3.org/1999/xlink" x="0px" y="0px"
	 width="100%" viewBox="0 0 336 592" enable-background="new 0 0 336 592" xml:space="preserve">
<path fill="#000000" opacity="1.000000" stroke="none" 
	d="
M161.872482,244.863144 
	C163.724823,243.411621 165.256805,242.124893 166.861893,240.936951 
	C169.964020,238.641052 170.954605,236.557785 168.306549,232.733597 
	C163.959641,226.456009 168.874054,213.404373 176.071564,210.617645 
	C180.655838,208.842697 183.770355,210.368027 185.388947,215.029358 
	C186.819504,219.149246 186.590622,223.233109 185.274246,227.276093 
	C184.503891,229.642105 184.167450,231.558456 186.522400,233.449554 
	C190.031860,236.267685 188.020767,239.540344 186.458649,242.427948 
	C184.650009,245.771286 182.143967,243.884003 180.059418,242.704376 
	C178.042099,241.562805 176.756760,242.087051 175.303864,243.641510 
	C172.350357,246.801514 169.410065,250.013580 165.567993,252.168457 
	C160.555847,254.979614 156.942947,254.766373 152.678436,251.269531 
	C155.165756,248.468323 158.850403,247.417297 161.872482,244.863144 
z"/>
</svg>