<svg version="1.1" id="Layer_1" xmlns="http://www.w3.org/2000/svg" xmlns:xlink="http://www.w3.org/1999/xlink" x="0px" y="0px"
	 width="100%" viewBox="0 0 348 592" enable-background="new 0 0 348 592" xml:space="preserve">
<path fill="#FFFFFF" opacity="1.000000" stroke="none" 
	d="
M0.999997,588.000000 
	C1.000000,392.388062 1.000000,196.776108 1.000000,1.082082 
	C116.912788,1.082082 232.825653,1.082082 349.000000,1.082082 
	C349.000000,196.358154 349.000000,391.716431 348.791199,588.048584 
	C346.116882,589.231628 343.651459,589.623047 341.185883,589.623718 
	C230.360443,589.653870 119.535011,589.650024 8.709576,589.645752 
	C6.877142,589.645691 5.023901,589.742004 3.221841,589.493042 
	C2.427641,589.383362 1.737420,588.520752 0.999997,588.000000 
M190.002960,429.662842 
	C182.244156,433.809052 174.438004,437.869904 166.746048,442.136627 
	C162.749222,444.353699 159.320969,447.165955 159.966003,453.598114 
	C170.668335,447.804932 180.959885,442.559326 190.840317,436.628815 
	C192.978394,435.345459 193.638428,431.599609 194.979263,428.987976 
	C194.558136,428.698517 194.137009,428.409058 193.715881,428.119598 
	C192.673599,428.493317 191.631332,428.867004 190.002960,429.662842 
z"/>
<path fill="#0A0A0A" opacity="1.000000" stroke="none" 
	d="
M190.296005,429.451782 
	C191.631332,428.867004 192.673599,428.493317 193.715881,428.119598 
	C194.137009,428.409058 194.558136,428.698517 194.979263,428.987976 
	C193.638428,431.599609 192.978394,435.345459 190.840317,436.628815 
	C180.959885,442.559326 170.668335,447.804932 159.966003,453.598114 
	C159.320969,447.165955 162.749222,444.353699 166.746048,442.136627 
	C174.438004,437.869904 182.244156,433.809052 190.296005,429.451782 
z"/>
</svg>