<svg version="1.1" id="Layer_1" xmlns="http://www.w3.org/2000/svg" xmlns:xlink="http://www.w3.org/1999/xlink" x="0px" y="0px"
	 width="100%" viewBox="0 0 336 592" enable-background="new 0 0 336 592" xml:space="preserve">
<path fill="#000000" opacity="1.000000" stroke="none" 
	d="
M142.839722,317.852386 
	C134.941483,289.431519 143.572189,265.441742 160.955231,243.641602 
	C164.270340,239.484131 167.585983,235.290955 172.063705,232.241806 
	C174.194351,230.790939 176.504593,229.019653 178.397430,232.171631 
	C179.984039,234.813721 183.924438,237.022507 180.081833,241.100662 
	C172.990540,248.626663 166.738052,256.801056 162.148605,266.176910 
	C156.461380,277.795410 154.303772,289.686768 158.111389,302.381348 
	C160.107620,309.036804 159.920197,309.109741 166.373322,306.256561 
	C178.074097,301.083160 189.129028,304.891083 195.062454,316.138580 
	C200.258286,325.987885 196.895386,338.669464 187.473907,344.755127 
	C177.608398,351.127655 163.008835,348.636871 154.332138,339.092651 
	C148.852539,333.065186 145.292313,325.985809 142.839722,317.852386 
z"/>
<path fill="#000000" opacity="1.000000" stroke="none" 
	d="
M173.776642,408.520264 
	C160.372818,409.700104 151.331833,396.343475 154.206161,385.332977 
	C157.010803,374.589478 165.401688,369.068848 176.844513,370.695923 
	C186.130402,372.016266 192.604065,380.454803 192.323441,390.872864 
	C192.063889,400.509552 184.718552,407.638702 173.776642,408.520264 
z"/>
</svg>