<svg version="1.1" id="Layer_1" xmlns="http://www.w3.org/2000/svg" xmlns:xlink="http://www.w3.org/1999/xlink" x="0px" y="0px"
	 width="100%" viewBox="0 0 348 592" enable-background="new 0 0 348 592" xml:space="preserve">
<path fill="#FDFDFD" opacity="1.000000" stroke="none" 
	d="
M349.000000,223.000000 
	C349.000000,346.666656 349.000000,469.833344 349.000000,593.000000 
	C233.000000,593.000000 117.000000,593.000000 1.000000,593.000000 
	C1.000000,395.666656 1.000000,198.333328 1.000000,1.000000 
	C117.000000,1.000000 233.000000,1.000000 349.000000,1.000000 
	C349.000000,74.833336 349.000000,148.666672 349.000000,223.000000 
M247.050308,354.220581 
	C247.572433,349.078796 248.094559,343.936981 248.714508,338.196686 
	C248.733215,337.793121 248.751923,337.389557 249.284149,336.427704 
	C249.682388,332.532928 250.080627,328.638184 250.610367,324.061493 
	C250.651321,323.369049 250.692291,322.676636 251.225418,321.408569 
	C251.605865,317.845032 251.986313,314.281494 252.496475,309.977875 
	C252.565750,308.978607 252.635025,307.979340 253.232819,306.454407 
	C253.591766,302.963226 253.950714,299.472046 254.437714,295.270844 
	C254.493774,294.311584 254.549835,293.352295 255.116180,291.921265 
	C255.502701,288.273590 255.889221,284.625885 256.370514,280.436890 
	C256.388214,280.071289 256.405884,279.705719 257.231079,279.253845 
	C257.632660,281.071533 258.376190,282.887878 258.383484,284.707153 
	C258.466278,305.367279 258.405151,326.027924 258.449829,346.688293 
	C258.473022,357.414978 256.992859,356.463318 268.244781,356.817810 
	C273.156433,356.972565 274.489105,355.357117 274.457855,350.595673 
	C274.272888,322.438690 274.366302,294.279877 274.367340,266.121674 
	C274.367676,257.457611 274.263489,248.791519 274.426300,240.130463 
	C274.495026,236.475510 273.219727,235.001923 269.471985,235.235336 
	C265.322693,235.493744 261.144806,235.284393 256.979431,235.296158 
	C250.380936,235.314789 249.950180,235.851913 250.612778,243.565338 
	C250.597321,243.932755 250.581863,244.300156 249.985016,245.081116 
	C249.614227,248.724380 249.243454,252.367661 248.773315,256.740326 
	C248.714706,257.719788 248.656097,258.699280 247.963928,260.045044 
	C246.939499,266.877655 245.819870,273.697815 244.921707,280.546967 
	C244.240860,285.738922 243.842255,290.967896 243.194366,296.781921 
	C243.173233,297.190247 243.152100,297.598572 242.680206,298.613068 
	C241.905792,304.035278 241.300400,309.490326 240.258484,314.860626 
	C239.927109,316.568573 238.434311,318.051178 237.467590,319.091125 
	C237.415497,318.731323 237.363403,318.371552 237.720642,317.361969 
	C237.029816,313.919464 236.338989,310.476929 235.632645,306.277985 
	C235.521469,305.276337 235.410278,304.274719 235.678284,302.464905 
	C235.020203,299.318909 234.362122,296.172943 233.702606,292.325836 
	C233.633774,291.628601 233.564926,290.931335 233.829849,289.383301 
	C233.132172,285.596680 232.434494,281.810089 231.725922,277.418610 
	C231.668015,277.019897 231.610092,276.621185 231.884918,275.371307 
	C231.183746,271.587341 230.482574,267.803406 229.779175,263.408691 
	C229.726089,263.005280 229.673019,262.601898 229.971313,261.343506 
	C228.941422,253.771530 228.072754,246.170715 226.728348,238.654999 
	C226.495056,237.350922 224.311005,235.546707 222.923813,235.448746 
	C217.624039,235.074509 212.274841,235.163269 206.961090,235.424698 
	C205.902039,235.476791 204.917770,237.049286 203.812073,238.741928 
	C203.841049,277.187805 203.870026,315.633698 203.618118,354.898163 
	C206.355865,358.760010 209.662949,357.450500 213.865143,355.772003 
	C217.672241,356.431396 218.569336,354.705750 218.552673,351.070374 
	C218.435516,325.497498 218.530182,299.923706 219.099716,274.365112 
	C219.438004,274.238068 219.776291,274.111023 220.289108,274.654694 
	C220.367096,275.343079 220.445084,276.031494 220.178192,277.564850 
	C220.869385,281.372131 221.560577,285.179443 222.291672,289.576050 
	C222.337433,289.967102 222.383194,290.358185 222.075531,291.604370 
	C222.781189,295.733093 223.486847,299.861786 224.235855,304.582825 
	C224.289429,304.974976 224.343018,305.367157 224.050415,306.619934 
	C224.999435,313.944824 225.843445,321.285461 226.935730,328.588928 
	C227.623215,333.185760 228.682663,337.726990 229.637619,343.098816 
	C229.791351,344.711304 229.945084,346.323792 229.741455,348.437927 
	C229.961243,348.953064 230.181015,349.468201 230.521317,350.800354 
	C230.580872,354.980743 232.665726,356.603973 236.805374,356.105408 
	C239.400604,355.792847 242.048203,355.915039 245.080276,356.352844 
	C245.627487,355.887421 246.174698,355.421997 247.050308,354.220581 
M122.220284,356.106415 
	C128.273483,356.040253 128.608887,355.758362 127.373497,349.896667 
	C125.043015,338.838989 122.506485,327.824860 120.146301,316.773254 
	C115.254890,293.869019 110.570107,270.919464 105.508011,248.053268 
	C102.724716,235.480759 102.458298,235.645905 89.727943,235.815567 
	C86.622490,235.856964 85.222183,236.924316 84.638252,239.886719 
	C83.258675,246.885574 81.676041,253.844284 80.189117,260.822144 
	C76.693291,277.227356 73.196114,293.632294 69.717194,310.041138 
	C66.754898,324.013275 63.768051,337.980774 60.949703,351.982025 
	C60.685543,353.294373 61.456242,356.044250 61.911770,356.081024 
	C66.198921,356.427490 70.640366,356.893585 74.765831,356.029388 
	C76.078026,355.754486 76.736588,351.642334 77.401680,349.206207 
	C78.011551,346.972290 78.221214,344.629700 78.617393,342.336761 
	C80.610855,330.799103 80.612022,330.799316 92.424156,330.799316 
	C93.755768,330.799316 95.087379,330.799316 96.418991,330.799316 
	C106.860909,330.799316 106.851570,330.801117 108.873695,341.253571 
	C109.284081,343.374817 109.968887,345.455505 110.228745,347.591187 
	C111.480255,357.877411 111.616989,355.948456 120.331818,356.103851 
	C120.664619,356.109802 120.997612,356.105286 122.220284,356.106415 
M170.499847,356.033264 
	C176.498962,356.032440 182.499893,355.944489 188.496399,356.069092 
	C191.316620,356.127655 192.347855,355.038757 192.255737,352.238495 
	C192.102417,347.577576 192.007996,342.895630 192.282257,338.245758 
	C192.500626,334.543610 190.884232,333.742615 187.567276,333.808411 
	C179.071869,333.977051 170.564804,333.672974 162.074554,333.941620 
	C157.622772,334.082489 156.059937,332.844574 156.101822,328.071381 
	C156.340088,300.910736 156.218735,273.746918 156.219467,246.584198 
	C156.219772,235.774353 156.219528,235.893860 145.323090,235.895828 
	C141.959976,235.896423 140.679276,236.697189 140.691650,240.348236 
	C140.817551,277.509094 140.805023,314.670624 140.706360,351.831665 
	C140.697586,355.139008 141.755905,356.166748 145.004868,356.093536 
	C153.166199,355.909698 161.334457,356.033112 170.499847,356.033264 
M305.282501,83.668289 
	C305.282135,82.006432 305.165283,80.334549 305.307251,78.684944 
	C305.551453,75.847488 304.209686,74.766357 301.528351,74.780434 
	C294.714996,74.816223 287.892365,74.618431 281.095978,74.961006 
	C279.863586,75.023125 277.720490,77.205002 277.718079,78.411690 
	C277.688507,93.272446 275.593079,90.569252 288.751129,90.848946 
	C288.917236,90.852478 289.086334,90.869591 289.249237,90.846550 
	C293.253113,90.280212 294.937408,91.726570 294.702881,96.031029 
	C294.368835,102.161667 294.882751,108.339409 294.528381,114.467758 
	C294.277588,118.805107 296.342590,119.397591 299.893555,119.374825 
	C303.363556,119.352562 305.501312,118.924950 305.373993,114.534576 
	C305.085052,104.571846 305.282471,94.594994 305.282501,83.668289 
M305.281372,505.439697 
	C305.281372,495.785797 305.170929,486.130096 305.328186,476.478760 
	C305.406281,471.685028 302.069489,472.828979 299.453186,472.725311 
	C296.859406,472.622589 293.981110,471.968201 294.138031,476.389648 
	C294.374023,483.039124 294.012543,489.710449 294.272461,496.358124 
	C294.415100,500.006104 293.389557,501.257538 289.560516,501.244568 
	C277.284149,501.203003 277.359985,501.356445 278.029602,513.391418 
	C278.184967,516.184021 279.249268,517.280823 281.957123,517.229980 
	C286.116791,517.151733 290.279022,517.209656 294.440186,517.209656 
	C305.282318,517.209717 305.282318,517.209656 305.281372,505.439697 
M46.103752,490.449402 
	C46.103531,485.791901 45.905964,481.123383 46.164375,476.480286 
	C46.378281,472.636871 44.158680,472.581635 41.433609,472.710510 
	C38.687672,472.840332 35.600216,471.962555 35.658089,476.616028 
	C35.809074,488.756927 35.795647,500.901978 35.654907,513.043152 
	C35.615204,516.468384 37.104546,517.321960 40.181557,517.224365 
	C45.166733,517.066223 50.160892,517.217163 55.150700,517.173645 
	C64.538910,517.091736 63.392803,518.390015 63.413288,509.016907 
	C63.432503,500.226990 64.280830,501.217133 55.785339,501.187103 
	C46.103806,501.152863 46.103714,501.178802 46.103752,490.449402 
M46.094559,116.954697 
	C46.099411,109.956482 46.290035,102.951485 46.034527,95.962784 
	C45.896835,92.196693 46.743217,90.713013 50.939892,90.716644 
	C63.900177,90.727844 61.906872,93.434067 62.178589,78.874680 
	C62.235741,75.812492 61.012112,74.715981 58.045956,74.775017 
	C52.216404,74.891068 46.375774,74.983894 40.553650,74.745857 
	C36.874249,74.595428 35.559570,75.813034 35.627136,79.584717 
	C35.827061,90.744980 35.626862,101.912003 35.764374,113.074158 
	C35.788754,115.053375 36.528675,118.648521 37.203350,118.712769 
	C40.071384,118.985870 43.039200,118.211105 46.094559,116.954697 
M294.201416,356.296082 
	C293.478668,360.825592 294.871735,362.634552 299.966736,362.657501 
	C305.134766,362.680786 305.871948,360.765320 305.791321,356.274689 
	C305.531769,341.817719 305.504517,327.349213 305.802063,312.893707 
	C305.900269,308.123077 303.325317,308.403900 300.177032,308.479187 
	C297.058594,308.553741 293.971069,307.707947 294.091187,312.958221 
	C294.414276,327.080017 294.201477,341.214081 294.201416,356.296082 
M301.231171,441.402954 
	C304.752075,441.948669 305.795410,440.399109 305.760071,436.939423 
	C305.606995,421.969421 305.492401,406.992706 305.806915,392.027740 
	C305.913269,386.965851 303.162903,387.472961 299.858063,387.376923 
	C296.277771,387.272919 293.987549,387.446381 294.090729,392.233246 
	C294.399017,406.532745 294.423065,420.848511 294.080994,435.146484 
	C293.961487,440.141418 295.179535,442.412476 301.231171,441.402954 
M299.466522,283.507385 
	C303.952667,284.132355 305.503326,282.442505 305.401337,277.709290 
	C305.086548,263.099976 305.138580,248.477249 305.370117,233.864853 
	C305.446899,229.020493 302.518555,229.591522 299.498993,229.519119 
	C296.533875,229.448044 294.039062,229.172943 294.107239,233.659943 
	C294.339264,248.936859 294.282318,264.220337 294.131042,279.499298 
	C294.096497,282.992340 295.577972,283.900024 299.466522,283.507385 
M294.195587,166.500641 
	C294.195862,176.827621 294.320587,187.156921 294.128967,197.480347 
	C294.061707,201.103989 295.812195,201.832947 298.723816,201.384720 
	C301.290192,200.989655 305.289398,203.068207 305.287689,197.842270 
	C305.282562,182.185226 305.317230,166.528091 305.265137,150.871216 
	C305.247681,145.624420 301.095551,147.919281 298.568939,147.478638 
	C295.966553,147.024811 294.014130,147.556671 294.149261,151.011841 
	C294.337891,155.834824 294.196045,160.670700 294.195587,166.500641 
M35.710522,249.500946 
	C35.710670,259.490601 35.849968,269.483032 35.648853,279.468628 
	C35.556316,284.063324 38.475750,283.426117 41.312103,283.491852 
	C44.138485,283.557373 46.503002,283.723724 46.452957,279.545746 
	C46.269493,264.230499 46.266041,248.910309 46.456799,233.595230 
	C46.507629,229.514221 44.340988,229.425095 41.411041,229.552750 
	C38.617722,229.674484 35.494766,228.908264 35.668819,233.519196 
	C35.857101,238.506897 35.711117,243.507217 35.710522,249.500946 
M46.121410,427.491302 
	C46.121410,414.272491 46.121410,401.053680 46.121410,387.734253 
	C44.210804,387.587646 43.235512,387.465454 42.258114,387.445343 
	C35.046474,387.296814 35.044956,387.303253 35.044388,394.362915 
	C35.043335,407.345978 35.043957,420.329010 35.044144,433.312073 
	C35.044266,441.890533 35.062847,441.914215 43.602253,441.377197 
	C44.240490,441.337036 44.866585,441.103729 46.121418,440.818665 
	C46.121418,436.713928 46.121418,432.599762 46.121410,427.491302 
M35.044098,156.576981 
	C35.044094,169.063156 35.043629,181.549347 35.044262,194.035522 
	C35.044643,201.555099 35.045841,201.572342 42.331604,201.390396 
	C43.445648,201.362595 44.553604,201.090912 46.111355,200.868088 
	C46.111355,183.872009 46.128147,167.084808 46.063034,150.297928 
	C46.059685,149.435455 45.407532,147.863495 44.967220,147.830627 
	C42.180344,147.622604 39.243469,147.302246 36.631050,148.019867 
	C35.705780,148.274033 35.484802,151.317123 35.074455,153.117111 
	C34.894070,153.908401 35.044102,154.775009 35.044098,156.576981 
M35.044975,314.706116 
	C35.045086,329.024170 35.241226,343.346375 34.938316,357.658020 
	C34.833191,362.624847 37.526249,362.365295 40.919678,362.528229 
	C44.576622,362.703796 46.296265,361.975830 46.220322,357.695160 
	C45.960484,343.048737 46.042084,328.394104 46.177586,313.744324 
	C46.210304,310.206909 45.795444,308.096405 41.399296,308.387695 
	C37.622871,308.637909 34.114986,308.338837 35.044975,314.706116 
M209.453171,90.810913 
	C209.952896,86.700058 210.459320,82.590012 210.950058,78.478081 
	C211.288513,75.642120 209.973816,74.682190 207.195206,74.751083 
	C201.385483,74.895126 195.569702,74.794968 189.756409,74.794991 
	C177.831970,74.795021 177.949020,74.792099 178.245026,86.780075 
	C178.327667,90.126640 179.550995,91.035568 182.699860,90.976654 
	C191.333755,90.815109 199.972565,90.914848 209.453171,90.810913 
M229.531891,88.662224 
	C230.940887,89.417137 232.322723,90.756264 233.763687,90.823219 
	C239.248825,91.078056 244.753922,90.984413 250.249969,90.907578 
	C263.923950,90.716415 261.385284,92.846123 261.734009,78.664024 
	C261.803650,75.833458 260.642578,74.745682 257.925873,74.777283 
	C252.762665,74.837357 247.598221,74.790916 242.434296,74.790657 
	C229.457230,74.790009 229.457230,74.790443 229.531891,88.662224 
M137.554276,90.840279 
	C141.053543,90.840286 144.553436,90.883827 148.051956,90.832581 
	C161.439056,90.636467 159.000412,92.690002 159.446808,79.492867 
	C159.581284,75.517166 157.873779,74.681534 154.415939,74.752304 
	C147.087234,74.902321 139.738998,75.075630 132.426682,74.698395 
	C127.729477,74.456078 126.377769,76.002739 126.548042,80.633736 
	C126.980453,92.394722 125.169586,90.693176 137.554276,90.840279 
M89.580254,517.201355 
	C93.079887,517.201416 96.580765,517.262268 100.078934,517.190613 
	C113.298065,516.919800 111.071815,519.659607 111.397705,505.370270 
	C111.474411,502.006958 110.058769,501.051544 106.916100,501.112823 
	C99.419731,501.258972 91.908928,501.389709 84.422951,501.074860 
	C79.819458,500.881256 78.323288,502.388458 78.532539,507.045929 
	C79.037575,518.286316 76.663734,517.104431 89.580254,517.201355 
M251.448944,517.189575 
	C254.858871,517.189575 258.268799,517.189575 261.706055,517.189575 
	C261.706055,511.463928 261.706055,506.581238 261.706055,501.171143 
	C254.527695,501.171143 247.742569,501.171112 240.957428,501.171112 
	C228.620346,501.171112 228.689102,501.166992 229.448151,513.706848 
	C229.601974,516.248230 230.401291,517.275635 232.990326,517.225220 
	C238.812607,517.111938 244.638611,517.189453 251.448944,517.189575 
M110.823730,82.554985 
	C110.770378,73.728737 111.599464,74.844246 103.125954,74.797882 
	C98.636871,74.773323 94.146530,74.731590 89.658524,74.805267 
	C76.535400,75.020683 78.966370,72.762314 78.565018,86.319717 
	C78.458359,89.922600 79.925949,90.956894 83.257492,90.887016 
	C90.071442,90.744102 96.890503,90.845215 103.707458,90.844978 
	C110.818474,90.844734 110.818474,90.844292 110.823730,82.554985 
M154.080048,517.206360 
	C158.160965,517.756348 159.956497,516.145203 159.423965,511.903992 
	C159.156738,509.775726 159.223328,507.572754 159.412201,505.427582 
	C159.710007,502.045258 158.075485,501.058807 154.986313,501.123779 
	C149.501114,501.239227 144.011734,501.154999 138.524094,501.154907 
	C126.625969,501.154694 126.723175,501.151764 127.110214,513.274353 
	C127.207527,516.322388 128.208450,517.328857 131.221359,517.260803 
	C138.534485,517.095520 145.853851,517.206360 154.080048,517.206360 
M200.455780,501.171143 
	C193.355942,501.171143 186.256104,501.171143 179.109390,501.171143 
	C179.109390,506.904144 179.109390,511.933533 179.109390,517.189880 
	C187.914215,517.189880 196.235779,517.190735 204.557343,517.189575 
	C210.942047,517.188660 210.942047,517.187500 210.945358,510.623383 
	C210.950134,501.170990 210.950134,501.170990 200.455780,501.171143 
z"/>
<path fill="#030303" opacity="1.000000" stroke="none" 
	d="
M250.566406,244.667572 
	C250.581863,244.300156 250.597321,243.932755 250.948608,243.050583 
	C252.563599,240.667786 253.683105,237.349503 255.150116,237.188019 
	C260.862335,236.559235 266.684753,236.931686 272.678223,236.931686 
	C272.678223,276.533905 272.678223,315.579803 272.678223,354.733612 
	C268.613373,354.733612 264.880463,354.733612 260.651764,354.733612 
	C260.550293,323.817047 260.714691,293.236145 260.562958,262.662323 
	C259.660767,262.627533 258.758606,262.592773 257.856415,262.558014 
	C257.378815,268.152039 256.901184,273.746094 256.423553,279.340118 
	C256.405884,279.705719 256.388214,280.071289 256.041504,280.968781 
	C255.343597,285.131470 254.974747,288.762238 254.605896,292.393036 
	C254.549835,293.352295 254.493774,294.311584 254.061371,295.843689 
	C253.358124,299.937714 253.031219,303.458893 252.704315,306.980072 
	C252.635025,307.979340 252.565750,308.978607 252.136536,310.527649 
	C251.428802,314.713043 251.081024,318.348602 250.733246,321.984192 
	C250.692291,322.676636 250.651321,323.369049 250.224884,324.553619 
	C249.483124,329.025818 249.126877,333.005920 248.770630,336.985992 
	C248.751923,337.389557 248.733215,337.793121 248.343903,338.652161 
	C247.181549,344.331207 246.389816,349.554810 245.406662,354.840759 
	C245.034271,355.216156 244.853287,355.529175 244.672302,355.842194 
	C242.048203,355.915039 239.400604,355.792847 236.805374,356.105408 
	C232.665726,356.603973 230.580872,354.980743 230.760422,350.409882 
	C230.699295,349.325043 230.399063,348.630646 230.098816,347.936279 
	C229.945084,346.323792 229.791351,344.711304 229.805389,342.272064 
	C228.577179,330.168976 227.200562,318.890076 225.736420,307.622620 
	C225.649643,306.954742 224.859467,306.378296 224.396606,305.759308 
	C224.343018,305.367157 224.289429,304.974976 224.429459,303.965515 
	C223.891678,299.148560 223.160309,294.948914 222.428940,290.749237 
	C222.383194,290.358185 222.337433,289.967102 222.497131,288.964417 
	C221.976089,284.475159 221.249573,280.597534 220.523056,276.719879 
	C220.445084,276.031494 220.367096,275.343079 220.484039,274.056854 
	C220.507736,270.571228 220.336487,267.683472 220.165237,264.795685 
	C219.629211,264.806519 219.093201,264.817322 218.557175,264.828156 
	C218.557175,268.002167 218.557175,271.176178 218.557159,274.350189 
	C218.530182,299.923706 218.435516,325.497498 218.552673,351.070374 
	C218.569336,354.705750 217.672241,356.431396 213.184753,355.547546 
	C209.635910,354.908539 206.767471,354.494049 203.899017,354.079559 
	C203.870026,315.633698 203.841049,277.187805 204.280685,238.303177 
	C211.408447,237.422485 218.067596,236.980545 224.967331,236.522644 
	C225.839096,242.922668 226.469879,248.464325 227.393814,253.956680 
	C227.863663,256.749756 228.861038,259.454071 229.619934,262.198486 
	C229.673019,262.601898 229.726089,263.005280 229.534454,264.017273 
	C230.043884,268.491425 230.798035,272.356934 231.552185,276.222473 
	C231.610092,276.621185 231.668015,277.019897 231.496765,278.032623 
	C232.010437,282.509125 232.753265,286.371613 233.496094,290.234100 
	C233.564926,290.931335 233.633774,291.628601 233.469620,292.975342 
	C233.924133,296.840912 234.611618,300.057007 235.299103,303.273071 
	C235.410278,304.274719 235.521469,305.276337 235.411285,306.970520 
	C235.897064,311.112640 236.604187,314.562195 237.311310,318.011749 
	C237.363403,318.371552 237.415497,318.731323 237.285553,319.781128 
	C237.103531,322.740967 237.103531,325.010773 237.103531,327.280609 
	C237.637558,327.329895 238.171585,327.379150 238.705612,327.428436 
	C239.678497,324.774231 240.983887,322.188416 241.546844,319.449951 
	C242.406601,315.267700 242.916031,310.993164 243.261597,306.732483 
	C243.495667,303.846466 243.193390,300.916962 243.130981,298.006897 
	C243.152100,297.598572 243.173233,297.190247 243.596970,296.356232 
	C244.808121,291.396057 245.830048,286.887115 246.376953,282.321289 
	C247.278717,274.793121 247.873383,267.228180 248.597504,259.678741 
	C248.656097,258.699280 248.714706,257.719788 249.106415,256.120422 
	C249.815140,251.889526 250.190765,248.278549 250.566406,244.667572 
z"/>
<path fill="#0B0B0B" opacity="1.000000" stroke="none" 
	d="
M121.775398,356.106049 
	C120.997612,356.105286 120.664619,356.109802 120.331818,356.103851 
	C111.616989,355.948456 111.480255,357.877411 110.228745,347.591187 
	C109.968887,345.455505 109.284081,343.374817 108.873695,341.253571 
	C106.851570,330.801117 106.860909,330.799316 96.418991,330.799316 
	C95.087379,330.799316 93.755768,330.799316 92.424156,330.799316 
	C80.612022,330.799316 80.610855,330.799103 78.617393,342.336761 
	C78.221214,344.629700 78.011551,346.972290 77.401680,349.206207 
	C76.736588,351.642334 76.078026,355.754486 74.765831,356.029388 
	C70.640366,356.893585 66.198921,356.427490 61.911770,356.081024 
	C61.456242,356.044250 60.685543,353.294373 60.949703,351.982025 
	C63.768051,337.980774 66.754898,324.013275 69.717194,310.041138 
	C73.196114,293.632294 76.693291,277.227356 80.189117,260.822144 
	C81.676041,253.844284 83.258675,246.885574 84.638252,239.886719 
	C85.222183,236.924316 86.622490,235.856964 89.727943,235.815567 
	C102.458298,235.645905 102.724716,235.480759 105.508011,248.053268 
	C110.570107,270.919464 115.254890,293.869019 120.146301,316.773254 
	C122.506485,327.824860 125.043015,338.838989 127.373497,349.896667 
	C128.608887,355.758362 128.273483,356.040253 121.775398,356.106049 
M100.534302,312.053253 
	C101.324425,310.983398 102.844063,309.850433 102.758080,308.856323 
	C102.557625,306.538635 101.584770,304.287750 100.927391,301.378845 
	C100.852798,300.965637 100.778206,300.552460 101.009857,299.382782 
	C100.343231,296.921417 99.676605,294.460083 99.024788,291.357788 
	C98.954414,290.937103 98.884041,290.516449 99.111984,289.288727 
	C97.963432,284.359528 96.814880,279.430298 95.621758,273.867584 
	C95.496941,273.245789 95.372131,272.623993 95.597404,271.536682 
	C95.311516,270.321747 95.025635,269.106812 94.739746,267.891846 
	C94.340202,267.876587 93.940666,267.861298 93.541130,267.846008 
	C92.931778,271.573975 92.322426,275.301910 91.553467,279.713318 
	C91.449516,280.641754 91.345566,281.570160 90.683571,282.889069 
	C90.355949,285.269836 90.028320,287.650604 89.546097,290.641296 
	C89.477432,291.266174 89.408768,291.891022 88.748039,292.869171 
	C88.411301,295.256012 88.074562,297.642822 87.594528,300.538208 
	C87.571297,300.888763 87.548065,301.239349 86.901894,301.975037 
	C86.812126,305.105743 86.722351,308.236420 87.573006,311.648895 
	C91.715271,311.625153 95.857529,311.601410 100.534302,312.053253 
z"/>
<path fill="#070707" opacity="1.000000" stroke="none" 
	d="
M169.999893,356.033264 
	C161.334457,356.033112 153.166199,355.909698 145.004868,356.093536 
	C141.755905,356.166748 140.697586,355.139008 140.706360,351.831665 
	C140.805023,314.670624 140.817551,277.509094 140.691650,240.348236 
	C140.679276,236.697189 141.959976,235.896423 145.323090,235.895828 
	C156.219528,235.893860 156.219772,235.774353 156.219467,246.584198 
	C156.218735,273.746918 156.340088,300.910736 156.101822,328.071381 
	C156.059937,332.844574 157.622772,334.082489 162.074554,333.941620 
	C170.564804,333.672974 179.071869,333.977051 187.567276,333.808411 
	C190.884232,333.742615 192.500626,334.543610 192.282257,338.245758 
	C192.007996,342.895630 192.102417,347.577576 192.255737,352.238495 
	C192.347855,355.038757 191.316620,356.127655 188.496399,356.069092 
	C182.499893,355.944489 176.498962,356.032440 169.999893,356.033264 
z"/>
<path fill="#131313" opacity="1.000000" stroke="none" 
	d="
M305.282349,84.146088 
	C305.282471,94.594994 305.085052,104.571846 305.373993,114.534576 
	C305.501312,118.924950 303.363556,119.352562 299.893555,119.374825 
	C296.342590,119.397591 294.277588,118.805107 294.528381,114.467758 
	C294.882751,108.339409 294.368835,102.161667 294.702881,96.031029 
	C294.937408,91.726570 293.253113,90.280212 289.249237,90.846550 
	C289.086334,90.869591 288.917236,90.852478 288.751129,90.848946 
	C275.593079,90.569252 277.688507,93.272446 277.718079,78.411690 
	C277.720490,77.205002 279.863586,75.023125 281.095978,74.961006 
	C287.892365,74.618431 294.714996,74.816223 301.528351,74.780434 
	C304.209686,74.766357 305.551453,75.847488 305.307251,78.684944 
	C305.165283,80.334549 305.282135,82.006432 305.282349,84.146088 
z"/>
<path fill="#131313" opacity="1.000000" stroke="none" 
	d="
M305.281189,505.925842 
	C305.282318,517.209656 305.282318,517.209717 294.440186,517.209656 
	C290.279022,517.209656 286.116791,517.151733 281.957123,517.229980 
	C279.249268,517.280823 278.184967,516.184021 278.029602,513.391418 
	C277.359985,501.356445 277.284149,501.203003 289.560516,501.244568 
	C293.389557,501.257538 294.415100,500.006104 294.272461,496.358124 
	C294.012543,489.710449 294.374023,483.039124 294.138031,476.389648 
	C293.981110,471.968201 296.859406,472.622589 299.453186,472.725311 
	C302.069489,472.828979 305.406281,471.685028 305.328186,476.478760 
	C305.170929,486.130096 305.281372,495.785797 305.281189,505.925842 
z"/>
<path fill="#0F0F0F" opacity="1.000000" stroke="none" 
	d="
M46.103756,490.940674 
	C46.103714,501.178802 46.103806,501.152863 55.785339,501.187103 
	C64.280830,501.217133 63.432503,500.226990 63.413288,509.016907 
	C63.392803,518.390015 64.538910,517.091736 55.150700,517.173645 
	C50.160892,517.217163 45.166733,517.066223 40.181557,517.224365 
	C37.104546,517.321960 35.615204,516.468384 35.654907,513.043152 
	C35.795647,500.901978 35.809074,488.756927 35.658089,476.616028 
	C35.600216,471.962555 38.687672,472.840332 41.433609,472.710510 
	C44.158680,472.581635 46.378281,472.636871 46.164375,476.480286 
	C45.905964,481.123383 46.103531,485.791901 46.103756,490.940674 
z"/>
<path fill="#101010" opacity="1.000000" stroke="none" 
	d="
M46.032570,117.386848 
	C43.039200,118.211105 40.071384,118.985870 37.203350,118.712769 
	C36.528675,118.648521 35.788754,115.053375 35.764374,113.074158 
	C35.626862,101.912003 35.827061,90.744980 35.627136,79.584717 
	C35.559570,75.813034 36.874249,74.595428 40.553650,74.745857 
	C46.375774,74.983894 52.216404,74.891068 58.045956,74.775017 
	C61.012112,74.715981 62.235741,75.812492 62.178589,78.874680 
	C61.906872,93.434067 63.900177,90.727844 50.939892,90.716644 
	C46.743217,90.713013 45.896835,92.196693 46.034527,95.962784 
	C46.290035,102.951485 46.099411,109.956482 46.032570,117.386848 
z"/>
<path fill="#131313" opacity="1.000000" stroke="none" 
	d="
M294.201416,355.819702 
	C294.201477,341.214081 294.414276,327.080017 294.091187,312.958221 
	C293.971069,307.707947 297.058594,308.553741 300.177032,308.479187 
	C303.325317,308.403900 305.900269,308.123077 305.802063,312.893707 
	C305.504517,327.349213 305.531769,341.817719 305.791321,356.274689 
	C305.871948,360.765320 305.134766,362.680786 299.966736,362.657501 
	C294.871735,362.634552 293.478668,360.825592 294.201416,355.819702 
z"/>
<path fill="#131313" opacity="1.000000" stroke="none" 
	d="
M300.801636,441.402893 
	C295.179535,442.412476 293.961487,440.141418 294.080994,435.146484 
	C294.423065,420.848511 294.399017,406.532745 294.090729,392.233246 
	C293.987549,387.446381 296.277771,387.272919 299.858063,387.376923 
	C303.162903,387.472961 305.913269,386.965851 305.806915,392.027740 
	C305.492401,406.992706 305.606995,421.969421 305.760071,436.939423 
	C305.795410,440.399109 304.752075,441.948669 300.801636,441.402893 
z"/>
<path fill="#141414" opacity="1.000000" stroke="none" 
	d="
M299.042480,283.507324 
	C295.577972,283.900024 294.096497,282.992340 294.131042,279.499298 
	C294.282318,264.220337 294.339264,248.936859 294.107239,233.659943 
	C294.039062,229.172943 296.533875,229.448044 299.498993,229.519119 
	C302.518555,229.591522 305.446899,229.020493 305.370117,233.864853 
	C305.138580,248.477249 305.086548,263.099976 305.401337,277.709290 
	C305.503326,282.442505 303.952667,284.132355 299.042480,283.507324 
z"/>
<path fill="#141414" opacity="1.000000" stroke="none" 
	d="
M294.195618,166.000854 
	C294.196045,160.670700 294.337891,155.834824 294.149261,151.011841 
	C294.014130,147.556671 295.966553,147.024811 298.568939,147.478638 
	C301.095551,147.919281 305.247681,145.624420 305.265137,150.871216 
	C305.317230,166.528091 305.282562,182.185226 305.287689,197.842270 
	C305.289398,203.068207 301.290192,200.989655 298.723816,201.384720 
	C295.812195,201.832947 294.061707,201.103989 294.128967,197.480347 
	C294.320587,187.156921 294.195862,176.827621 294.195618,166.000854 
z"/>
<path fill="#0E0E0E" opacity="1.000000" stroke="none" 
	d="
M35.710724,249.001495 
	C35.711117,243.507217 35.857101,238.506897 35.668819,233.519196 
	C35.494766,228.908264 38.617722,229.674484 41.411041,229.552750 
	C44.340988,229.425095 46.507629,229.514221 46.456799,233.595230 
	C46.266041,248.910309 46.269493,264.230499 46.452957,279.545746 
	C46.503002,283.723724 44.138485,283.557373 41.312103,283.491852 
	C38.475750,283.426117 35.556316,284.063324 35.648853,279.468628 
	C35.849968,269.483032 35.710670,259.490601 35.710724,249.001495 
z"/>
<path fill="#6C6C6C" opacity="1.000000" stroke="none" 
	d="
M256.827332,279.296997 
	C256.901184,273.746094 257.378815,268.152039 257.856415,262.558014 
	C258.758606,262.592773 259.660767,262.627533 260.562958,262.662323 
	C260.714691,293.236145 260.550293,323.817047 260.651764,354.733612 
	C264.880463,354.733612 268.613373,354.733612 272.678223,354.733612 
	C272.678223,315.579803 272.678223,276.533905 272.678223,236.931686 
	C266.684753,236.931686 260.862335,236.559235 255.150116,237.188019 
	C253.683105,237.349503 252.563599,240.667786 250.997284,242.778870 
	C249.950180,235.851913 250.380936,235.314789 256.979431,235.296158 
	C261.144806,235.284393 265.322693,235.493744 269.471985,235.235336 
	C273.219727,235.001923 274.495026,236.475510 274.426300,240.130463 
	C274.263489,248.791519 274.367676,257.457611 274.367340,266.121674 
	C274.366302,294.279877 274.272888,322.438690 274.457855,350.595673 
	C274.489105,355.357117 273.156433,356.972565 268.244781,356.817810 
	C256.992859,356.463318 258.473022,357.414978 258.449829,346.688293 
	C258.405151,326.027924 258.466278,305.367279 258.383484,284.707153 
	C258.376190,282.887878 257.632660,281.071533 256.827332,279.296997 
z"/>
<path fill="#141414" opacity="1.000000" stroke="none" 
	d="
M46.121414,427.988464 
	C46.121418,432.599762 46.121418,436.713928 46.121418,440.818665 
	C44.866585,441.103729 44.240490,441.337036 43.602253,441.377197 
	C35.062847,441.914215 35.044266,441.890533 35.044144,433.312073 
	C35.043957,420.329010 35.043335,407.345978 35.044388,394.362915 
	C35.044956,387.303253 35.046474,387.296814 42.258114,387.445343 
	C43.235512,387.465454 44.210804,387.587646 46.121410,387.734253 
	C46.121410,401.053680 46.121410,414.272491 46.121414,427.988464 
z"/>
<path fill="#141414" opacity="1.000000" stroke="none" 
	d="
M35.044106,156.092194 
	C35.044102,154.775009 34.894070,153.908401 35.074455,153.117111 
	C35.484802,151.317123 35.705780,148.274033 36.631050,148.019867 
	C39.243469,147.302246 42.180344,147.622604 44.967220,147.830627 
	C45.407532,147.863495 46.059685,149.435455 46.063034,150.297928 
	C46.128147,167.084808 46.111355,183.872009 46.111355,200.868088 
	C44.553604,201.090912 43.445648,201.362595 42.331604,201.390396 
	C35.045841,201.572342 35.044643,201.555099 35.044262,194.035522 
	C35.043629,181.549347 35.044094,169.063156 35.044106,156.092194 
z"/>
<path fill="#131313" opacity="1.000000" stroke="none" 
	d="
M35.044937,314.240601 
	C34.114986,308.338837 37.622871,308.637909 41.399296,308.387695 
	C45.795444,308.096405 46.210304,310.206909 46.177586,313.744324 
	C46.042084,328.394104 45.960484,343.048737 46.220322,357.695160 
	C46.296265,361.975830 44.576622,362.703796 40.919678,362.528229 
	C37.526249,362.365295 34.833191,362.624847 34.938316,357.658020 
	C35.241226,343.346375 35.045086,329.024170 35.044937,314.240601 
z"/>
<path fill="#131313" opacity="1.000000" stroke="none" 
	d="
M209.031296,90.861038 
	C199.972565,90.914848 191.333755,90.815109 182.699860,90.976654 
	C179.550995,91.035568 178.327667,90.126640 178.245026,86.780075 
	C177.949020,74.792099 177.831970,74.795021 189.756409,74.794991 
	C195.569702,74.794968 201.385483,74.895126 207.195206,74.751083 
	C209.973816,74.682190 211.288513,75.642120 210.950058,78.478081 
	C210.459320,82.590012 209.952896,86.700058 209.031296,90.861038 
z"/>
<path fill="#131313" opacity="1.000000" stroke="none" 
	d="
M229.510468,88.241104 
	C229.457230,74.790443 229.457230,74.790009 242.434296,74.790657 
	C247.598221,74.790916 252.762665,74.837357 257.925873,74.777283 
	C260.642578,74.745682 261.803650,75.833458 261.734009,78.664024 
	C261.385284,92.846123 263.923950,90.716415 250.249969,90.907578 
	C244.753922,90.984413 239.248825,91.078056 233.763687,90.823219 
	C232.322723,90.756264 230.940887,89.417137 229.510468,88.241104 
z"/>
<path fill="#121212" opacity="1.000000" stroke="none" 
	d="
M137.066711,90.840240 
	C125.169586,90.693176 126.980453,92.394722 126.548042,80.633736 
	C126.377769,76.002739 127.729477,74.456078 132.426682,74.698395 
	C139.738998,75.075630 147.087234,74.902321 154.415939,74.752304 
	C157.873779,74.681534 159.581284,75.517166 159.446808,79.492867 
	C159.000412,92.690002 161.439056,90.636467 148.051956,90.832581 
	C144.553436,90.883827 141.053543,90.840286 137.066711,90.840240 
z"/>
<path fill="#121212" opacity="1.000000" stroke="none" 
	d="
M89.097595,517.201172 
	C76.663734,517.104431 79.037575,518.286316 78.532539,507.045929 
	C78.323288,502.388458 79.819458,500.881256 84.422951,501.074860 
	C91.908928,501.389709 99.419731,501.258972 106.916100,501.112823 
	C110.058769,501.051544 111.474411,502.006958 111.397705,505.370270 
	C111.071815,519.659607 113.298065,516.919800 100.078934,517.190613 
	C96.580765,517.262268 93.079887,517.201416 89.097595,517.201172 
z"/>
<path fill="#101010" opacity="1.000000" stroke="none" 
	d="
M250.956024,517.189453 
	C244.638611,517.189453 238.812607,517.111938 232.990326,517.225220 
	C230.401291,517.275635 229.601974,516.248230 229.448151,513.706848 
	C228.689102,501.166992 228.620346,501.171112 240.957428,501.171112 
	C247.742569,501.171112 254.527695,501.171143 261.706055,501.171143 
	C261.706055,506.581238 261.706055,511.463928 261.706055,517.189575 
	C258.268799,517.189575 254.858871,517.189575 250.956024,517.189453 
z"/>
<path fill="#131313" opacity="1.000000" stroke="none" 
	d="
M110.823700,83.016586 
	C110.818474,90.844292 110.818474,90.844734 103.707458,90.844978 
	C96.890503,90.845215 90.071442,90.744102 83.257492,90.887016 
	C79.925949,90.956894 78.458359,89.922600 78.565018,86.319717 
	C78.966370,72.762314 76.535400,75.020683 89.658524,74.805267 
	C94.146530,74.731590 98.636871,74.773323 103.125954,74.797882 
	C111.599464,74.844246 110.770378,73.728737 110.823700,83.016586 
z"/>
<path fill="#131313" opacity="1.000000" stroke="none" 
	d="
M153.625366,517.206177 
	C145.853851,517.206360 138.534485,517.095520 131.221359,517.260803 
	C128.208450,517.328857 127.207527,516.322388 127.110214,513.274353 
	C126.723175,501.151764 126.625969,501.154694 138.524094,501.154907 
	C144.011734,501.154999 149.501114,501.239227 154.986313,501.123779 
	C158.075485,501.058807 159.710007,502.045258 159.412201,505.427582 
	C159.223328,507.572754 159.156738,509.775726 159.423965,511.903992 
	C159.956497,516.145203 158.160965,517.756348 153.625366,517.206177 
z"/>
<path fill="#101010" opacity="1.000000" stroke="none" 
	d="
M200.945587,501.171173 
	C210.950134,501.170990 210.950134,501.170990 210.945358,510.623383 
	C210.942047,517.187500 210.942047,517.188660 204.557343,517.189575 
	C196.235779,517.190735 187.914215,517.189880 179.109390,517.189880 
	C179.109390,511.933533 179.109390,506.904144 179.109390,501.171143 
	C186.256104,501.171143 193.355942,501.171143 200.945587,501.171173 
z"/>
<path fill="#6C6C6C" opacity="1.000000" stroke="none" 
	d="
M229.795624,261.770996 
	C228.861038,259.454071 227.863663,256.749756 227.393814,253.956680 
	C226.469879,248.464325 225.839096,242.922668 224.967331,236.522644 
	C218.067596,236.980545 211.408447,237.422485 204.324158,237.892563 
	C204.917770,237.049286 205.902039,235.476791 206.961090,235.424698 
	C212.274841,235.163269 217.624039,235.074509 222.923813,235.448746 
	C224.311005,235.546707 226.495056,237.350922 226.728348,238.654999 
	C228.072754,246.170715 228.941422,253.771530 229.795624,261.770996 
z"/>
<path fill="#6C6C6C" opacity="1.000000" stroke="none" 
	d="
M248.280701,259.861877 
	C247.873383,267.228180 247.278717,274.793121 246.376953,282.321289 
	C245.830048,286.887115 244.808121,291.396057 243.658813,296.055481 
	C243.842255,290.967896 244.240860,285.738922 244.921707,280.546967 
	C245.819870,273.697815 246.939499,266.877655 248.280701,259.861877 
z"/>
<path fill="#6C6C6C" opacity="1.000000" stroke="none" 
	d="
M242.905594,298.309998 
	C243.193390,300.916962 243.495667,303.846466 243.261597,306.732483 
	C242.916031,310.993164 242.406601,315.267700 241.546844,319.449951 
	C240.983887,322.188416 239.678497,324.774231 238.705612,327.428436 
	C238.171585,327.379150 237.637558,327.329895 237.103531,327.280609 
	C237.103531,325.010773 237.103531,322.740967 237.288239,320.054016 
	C238.434311,318.051178 239.927109,316.568573 240.258484,314.860626 
	C241.300400,309.490326 241.905792,304.035278 242.905594,298.309998 
z"/>
<path fill="#797979" opacity="1.000000" stroke="none" 
	d="
M224.223511,306.189636 
	C224.859467,306.378296 225.649643,306.954742 225.736420,307.622620 
	C227.200562,318.890076 228.577179,330.168976 229.774200,341.869232 
	C228.682663,337.726990 227.623215,333.185760 226.935730,328.588928 
	C225.843445,321.285461 224.999435,313.944824 224.223511,306.189636 
z"/>
<path fill="#6C6C6C" opacity="1.000000" stroke="none" 
	d="
M245.598083,354.778412 
	C246.389816,349.554810 247.181549,344.331207 248.294983,338.951416 
	C248.094559,343.936981 247.572433,349.078796 246.603790,354.552979 
	C245.970886,354.849731 245.784485,354.814087 245.598083,354.778412 
z"/>
<path fill="#797979" opacity="1.000000" stroke="none" 
	d="
M222.252228,291.176819 
	C223.160309,294.948914 223.891678,299.148560 224.407776,303.669373 
	C223.486847,299.861786 222.781189,295.733093 222.252228,291.176819 
z"/>
<path fill="#6C6C6C" opacity="1.000000" stroke="none" 
	d="
M233.662964,289.808716 
	C232.753265,286.371613 232.010437,282.509125 231.502228,278.335052 
	C232.434494,281.810089 233.132172,285.596680 233.662964,289.808716 
z"/>
<path fill="#6C6C6C" opacity="1.000000" stroke="none" 
	d="
M231.718552,275.796875 
	C230.798035,272.356934 230.043884,268.491425 229.535553,264.322662 
	C230.482574,267.803406 231.183746,271.587341 231.718552,275.796875 
z"/>
<path fill="#6C6C6C" opacity="1.000000" stroke="none" 
	d="
M249.027390,336.706848 
	C249.126877,333.005920 249.483124,329.025818 250.159119,324.894592 
	C250.080627,328.638184 249.682388,332.532928 249.027390,336.706848 
z"/>
<path fill="#6C6C6C" opacity="1.000000" stroke="none" 
	d="
M237.515991,317.686859 
	C236.604187,314.562195 235.897064,311.112640 235.419037,307.348755 
	C236.338989,310.476929 237.029816,313.919464 237.515991,317.686859 
z"/>
<path fill="#797979" opacity="1.000000" stroke="none" 
	d="
M220.350616,277.142365 
	C221.249573,280.597534 221.976089,284.475159 222.477173,288.669769 
	C221.560577,285.179443 220.869385,281.372131 220.350616,277.142365 
z"/>
<path fill="#6C6C6C" opacity="1.000000" stroke="none" 
	d="
M250.979340,321.696381 
	C251.081024,318.348602 251.428802,314.713043 252.071686,310.897705 
	C251.986313,314.281494 251.605865,317.845032 250.979340,321.696381 
z"/>
<path fill="#6C6C6C" opacity="1.000000" stroke="none" 
	d="
M252.968567,306.717224 
	C253.031219,303.458893 253.358124,299.937714 253.997345,296.198700 
	C253.950714,299.472046 253.591766,302.963226 252.968567,306.717224 
z"/>
<path fill="#797979" opacity="1.000000" stroke="none" 
	d="
M218.828445,274.357666 
	C218.557175,271.176178 218.557175,268.002167 218.557175,264.828156 
	C219.093201,264.817322 219.629211,264.806519 220.165237,264.795685 
	C220.336487,267.683472 220.507736,270.571228 220.396774,273.721497 
	C219.776291,274.111023 219.438004,274.238068 218.828445,274.357666 
z"/>
<path fill="#6C6C6C" opacity="1.000000" stroke="none" 
	d="
M254.861038,292.157166 
	C254.974747,288.762238 255.343597,285.131470 255.994095,281.239441 
	C255.889221,284.625885 255.502701,288.273590 254.861038,292.157166 
z"/>
<path fill="#6C6C6C" opacity="1.000000" stroke="none" 
	d="
M250.275696,244.874344 
	C250.190765,248.278549 249.815140,251.889526 249.156097,255.755707 
	C249.243454,252.367661 249.614227,248.724380 250.275696,244.874344 
z"/>
<path fill="#6C6C6C" opacity="1.000000" stroke="none" 
	d="
M235.488693,302.868988 
	C234.611618,300.057007 233.924133,296.840912 233.470337,293.325897 
	C234.362122,296.172943 235.020203,299.318909 235.488693,302.868988 
z"/>
<path fill="#6C6C6C" opacity="1.000000" stroke="none" 
	d="
M203.758575,354.488861 
	C206.767471,354.494049 209.635910,354.908539 212.748795,355.626678 
	C209.662949,357.450500 206.355865,358.760010 203.758575,354.488861 
z"/>
<path fill="#797979" opacity="1.000000" stroke="none" 
	d="
M245.406662,354.840759 
	C245.784485,354.814087 245.970886,354.849731 246.439590,354.920959 
	C246.174698,355.421997 245.627487,355.887421 244.876282,356.097534 
	C244.853287,355.529175 245.034271,355.216156 245.406662,354.840759 
z"/>
<path fill="#6C6C6C" opacity="1.000000" stroke="none" 
	d="
M229.920135,348.187103 
	C230.399063,348.630646 230.699295,349.325043 230.700165,350.001373 
	C230.181015,349.468201 229.961243,348.953064 229.920135,348.187103 
z"/>
<path fill="#FBFBFB" opacity="1.000000" stroke="none" 
	d="
M87.524834,301.589905 
	C87.548065,301.239349 87.571297,300.888763 87.968979,300.043274 
	C88.675659,297.204193 89.007881,294.860046 89.340103,292.515900 
	C89.408768,291.891022 89.477432,291.266174 89.934937,290.100311 
	C90.629723,287.205750 90.935661,284.852173 91.241608,282.498596 
	C91.345566,281.570160 91.449516,280.641754 91.930069,279.150909 
	C93.286880,276.393066 94.267097,274.197632 95.247314,272.002197 
	C95.372131,272.623993 95.496941,273.245789 95.429535,274.591370 
	C96.429428,280.242004 97.621544,285.168884 98.813660,290.095764 
	C98.884041,290.516449 98.954414,290.937103 98.778030,291.930359 
	C99.255386,295.048340 99.979500,297.593811 100.703613,300.139252 
	C100.778206,300.552460 100.852798,300.965637 100.673721,301.963867 
	C100.279961,305.558472 100.139877,308.568085 99.999794,311.577667 
	C95.857529,311.601410 91.715271,311.625153 87.168877,311.058167 
	C87.018112,307.508270 87.271469,304.549072 87.524834,301.589905 
z"/>
<path fill="#A4A4A4" opacity="1.000000" stroke="none" 
	d="
M98.962822,289.692261 
	C97.621544,285.168884 96.429428,280.242004 95.451813,274.908112 
	C96.814880,279.430298 97.963432,284.359528 98.962822,289.692261 
z"/>
<path fill="#A4A4A4" opacity="1.000000" stroke="none" 
	d="
M95.422363,271.769440 
	C94.267097,274.197632 93.286880,276.393066 92.009872,278.809204 
	C92.322426,275.301910 92.931778,271.573975 93.541130,267.846008 
	C93.940666,267.861298 94.340202,267.876587 94.739746,267.891846 
	C95.025635,269.106812 95.311516,270.321747 95.422363,271.769440 
z"/>
<path fill="#A4A4A4" opacity="1.000000" stroke="none" 
	d="
M100.267044,311.815460 
	C100.139877,308.568085 100.279961,305.558472 100.672432,302.279358 
	C101.584770,304.287750 102.557625,306.538635 102.758080,308.856323 
	C102.844063,309.850433 101.324425,310.983398 100.267044,311.815460 
z"/>
<path fill="#A4A4A4" opacity="1.000000" stroke="none" 
	d="
M87.213364,301.782471 
	C87.271469,304.549072 87.018112,307.508270 86.698662,310.917297 
	C86.722351,308.236420 86.812126,305.105743 87.213364,301.782471 
z"/>
<path fill="#A4A4A4" opacity="1.000000" stroke="none" 
	d="
M100.856735,299.761017 
	C99.979500,297.593811 99.255386,295.048340 98.770630,292.250793 
	C99.676605,294.460083 100.343231,296.921417 100.856735,299.761017 
z"/>
<path fill="#A4A4A4" opacity="1.000000" stroke="none" 
	d="
M90.962585,282.693848 
	C90.935661,284.852173 90.629723,287.205750 90.012238,289.795349 
	C90.028320,287.650604 90.355949,285.269836 90.962585,282.693848 
z"/>
<path fill="#A4A4A4" opacity="1.000000" stroke="none" 
	d="
M89.044075,292.692535 
	C89.007881,294.860046 88.675659,297.204193 88.040627,299.789001 
	C88.074562,297.642822 88.411301,295.256012 89.044075,292.692535 
z"/>
</svg>