<svg version="1.1" id="Layer_1" xmlns="http://www.w3.org/2000/svg" xmlns:xlink="http://www.w3.org/1999/xlink" x="0px" y="0px"
	 width="100%" viewBox="0 0 348 592" enable-background="new 0 0 348 592" xml:space="preserve">
<path fill="#FFFFFF" opacity="1.000000" stroke="none" 
	d="
M98.000000,593.000000 
	C65.341888,593.000000 33.183773,593.000000 1.019244,593.000000 
	C1.012830,395.727692 1.012830,198.455383 1.012830,1.091535 
	C116.908066,1.091535 232.816238,1.091535 348.862183,1.091535 
	C348.862183,198.333267 348.862183,395.666626 348.862183,593.000000 
	C265.455414,593.000000 181.977707,593.000000 98.000000,593.000000 
M199.571304,242.396057 
	C200.131927,243.194229 200.692551,243.992401 201.402267,245.304108 
	C201.465576,245.470718 201.528870,245.637344 201.272644,246.716232 
	C201.386398,252.880753 201.500153,259.045288 201.444885,265.812073 
	C201.443848,266.227600 201.442810,266.643127 200.961166,267.597473 
	C200.267502,273.792908 195.583801,279.905518 200.813522,287.110107 
	C201.940094,284.745880 202.881561,283.060272 203.570938,281.277252 
	C208.806580,267.735443 209.754135,253.476593 210.282074,239.197708 
	C210.645432,229.370987 210.171555,219.522003 205.421356,210.590042 
	C202.249954,204.626755 197.642487,200.413101 190.141525,200.918732 
	C182.085495,201.461761 176.368896,206.275665 171.616440,211.912064 
	C161.452728,223.966309 154.895874,238.079788 150.168716,253.034912 
	C149.242004,255.966736 149.072891,259.138000 148.384933,262.802002 
	C148.388733,263.217865 148.392532,263.633728 147.951675,264.630768 
	C148.169434,271.771088 148.387177,278.911438 148.574615,286.634277 
	C148.688126,287.003021 148.801636,287.371796 148.493042,288.401276 
	C148.594055,289.171997 148.695068,289.942688 148.424622,291.495087 
	C149.804764,297.111786 150.144333,303.284637 152.785934,308.227142 
	C157.971207,317.928864 164.122696,327.165955 170.438599,336.200897 
	C184.074951,355.707703 190.796234,377.986511 197.264145,400.453064 
	C199.995651,409.941101 202.881088,419.449951 206.664612,428.546722 
	C209.133514,434.482697 213.539154,439.190735 221.065918,439.521179 
	C226.759567,439.771179 230.715759,437.353638 233.990158,433.093903 
	C239.092575,426.456024 240.768112,418.667786 242.508438,410.657990 
	C244.895218,399.672852 243.114182,389.590851 238.037216,379.986206 
	C234.027878,372.401337 226.278137,371.734589 221.798569,378.952148 
	C218.952484,383.537781 217.628708,389.238068 216.433731,394.618713 
	C215.641068,398.187927 216.283478,402.075806 216.283478,405.821045 
	C215.800491,406.099854 215.317490,406.378632 214.834503,406.657440 
	C213.293427,405.305786 210.952545,404.239349 210.351074,402.552612 
	C207.876663,395.613739 205.903427,388.494476 203.800262,381.425385 
	C202.372955,376.627930 201.036148,371.803558 199.534332,366.476013 
	C199.497864,366.125000 199.461395,365.773956 199.801559,364.571472 
	C199.736603,363.084961 199.853622,361.563904 199.579300,360.117096 
	C195.729218,339.812134 187.187775,321.589630 174.736603,305.196533 
	C172.822830,302.676880 169.982422,300.861053 167.412277,298.577332 
	C167.412277,298.577332 167.294785,298.399780 167.654083,297.713135 
	C166.559692,295.773895 165.721893,293.623260 164.327576,291.931152 
	C157.389572,283.511414 157.038361,274.757935 162.359390,265.423615 
	C163.170517,264.000702 163.082550,262.065277 163.481949,259.993317 
	C163.481949,259.993317 163.654221,259.654236 164.346191,259.627106 
	C165.287827,257.661011 166.229462,255.694916 167.443848,253.155075 
	C167.513519,252.955124 167.583206,252.755157 168.322998,252.514816 
	C169.215927,250.920242 170.108856,249.325684 171.349854,247.087006 
	C171.437988,246.859436 171.526138,246.631866 172.279877,246.525299 
	C173.914536,244.409195 175.549210,242.293076 177.917633,240.021255 
	C180.752823,238.696259 183.662979,237.503616 186.377762,235.966049 
	C187.197815,235.501602 187.476059,234.080566 188.642029,232.972473 
	C189.071350,233.020401 189.500656,233.068314 189.955063,233.828796 
	C192.979416,235.745773 196.003769,237.662750 199.338211,239.615219 
	C199.338211,239.615219 199.583801,239.422638 199.639099,239.790176 
	C199.639099,239.790176 199.878754,240.074234 199.628387,240.702988 
	C199.749741,241.135223 199.871078,241.567474 199.571304,242.396057 
z"/>
<path fill="#050505" opacity="1.000000" stroke="none" 
	d="
M148.915131,287.740540 
	C148.801636,287.371796 148.688126,287.003021 148.784805,285.979065 
	C148.795441,278.232452 148.595886,271.141022 148.396332,264.049591 
	C148.392532,263.633728 148.388733,263.217865 148.782288,262.354706 
	C152.100037,254.011902 154.677826,245.967987 158.019043,238.254776 
	C163.368317,225.906052 169.613373,214.092484 181.662811,206.659012 
	C187.321075,203.168350 197.231018,204.276855 201.839462,209.070023 
	C206.812485,214.242371 207.936111,220.983871 208.031998,227.516235 
	C208.197357,238.782211 207.759689,250.110352 206.658630,261.322388 
	C205.954102,268.496460 204.765411,275.878754 200.133606,283.280823 
	C200.636581,277.043671 201.039185,272.051178 201.441772,267.058655 
	C201.442810,266.643127 201.443848,266.227600 201.838165,265.342102 
	C204.626740,258.428650 205.130386,252.048553 201.592178,245.803955 
	C201.528870,245.637344 201.465576,245.470718 201.473602,244.714569 
	C201.431305,243.410919 201.317657,242.696793 201.378448,241.775238 
	C200.994843,241.069962 200.436798,240.572098 199.878754,240.074234 
	C199.878754,240.074234 199.639099,239.790176 199.762650,239.237946 
	C198.822830,237.662323 197.759445,236.638931 196.457275,235.504929 
	C196.055527,235.329361 195.892563,235.264389 195.727875,234.885223 
	C194.817841,234.013809 193.909546,233.456619 192.607773,232.816864 
	C191.452850,232.861588 190.691406,232.988907 189.929977,233.116211 
	C189.500656,233.068314 189.071350,233.020401 188.187881,232.756485 
	C186.914200,232.546951 186.094666,232.553406 184.918793,232.406281 
	C182.497177,233.911819 180.431900,235.570938 178.252411,237.396133 
	C178.138199,237.562210 177.897400,237.885513 177.544128,237.904602 
	C176.418900,238.913742 175.646942,239.903793 174.670654,241.162857 
	C173.283875,242.815903 172.101410,244.199951 170.648743,245.704788 
	C169.460449,247.321640 168.542374,248.817688 167.471893,250.582367 
	C167.158401,251.229675 166.997299,251.608322 166.527649,252.058594 
	C165.994019,252.855026 165.768906,253.579834 165.401703,254.553070 
	C165.125259,255.158157 164.990875,255.514832 164.604065,255.933472 
	C164.110855,256.660614 163.870102,257.325775 163.548187,258.271240 
	C163.529434,258.919128 163.591827,259.286682 163.654221,259.654236 
	C163.654221,259.654236 163.481949,259.993317 163.325592,260.055878 
	C163.169220,260.118439 162.834885,260.208771 162.577606,260.195312 
	C162.080612,260.880341 161.840881,261.578827 161.462219,262.630493 
	C159.717010,267.548370 158.110748,272.113098 156.232651,276.859070 
	C156.143143,278.803162 156.325470,280.565948 156.661850,282.651886 
	C160.308853,288.116608 163.801819,293.258179 167.294785,298.399780 
	C167.294785,298.399780 167.412277,298.577332 167.458191,298.987579 
	C169.254791,301.980438 170.824982,304.709869 172.786118,307.121368 
	C183.800903,320.665619 191.740570,335.719116 195.793060,352.774048 
	C196.806091,357.037292 198.203949,361.209106 199.424927,365.422943 
	C199.461395,365.773956 199.497864,366.125000 199.418854,367.055481 
	C200.957443,375.735229 202.346298,383.902374 204.363480,391.911224 
	C205.603973,396.836304 207.278809,401.824860 209.805069,406.177521 
	C210.998840,408.234283 214.649750,408.864929 217.187378,410.141724 
	C217.654388,407.854584 218.271378,405.586151 218.559891,403.276703 
	C219.375671,396.746582 219.610886,390.106323 220.952835,383.693207 
	C221.801559,379.637207 225.687485,377.844116 229.715729,377.568573 
	C233.202621,377.330078 235.512360,379.379181 237.139206,382.402466 
	C242.403839,392.186005 242.121231,402.609161 240.253967,413.008209 
	C238.904892,420.521484 236.640579,427.964722 230.395920,433.119415 
	C226.915741,435.992157 223.312027,439.349396 218.058090,436.609894 
	C211.526276,433.204132 207.410614,427.745941 205.282562,420.921783 
	C201.929276,410.168365 199.004059,399.282227 195.817673,388.475861 
	C190.257690,369.619568 183.448547,351.297974 172.315781,334.886993 
	C166.731628,326.655304 161.065857,318.478943 155.563385,309.984680 
	C155.242569,309.043060 154.795364,308.394287 154.263550,307.391846 
	C153.467300,304.692413 152.755676,302.346680 152.231140,299.829895 
	C152.023270,299.042358 151.628326,298.425781 151.129211,297.448547 
	C150.710709,295.056244 150.396393,293.024597 150.287170,290.801971 
	C149.966553,289.654175 149.440842,288.697357 148.915131,287.740540 
z"/>
<path fill="#9D9D9D" opacity="1.000000" stroke="none" 
	d="
M152.044067,300.000916 
	C152.755676,302.346680 153.467300,304.692413 154.195709,307.692017 
	C154.620667,308.989746 155.028824,309.633667 155.436981,310.277557 
	C161.065857,318.478943 166.731628,326.655304 172.315781,334.886993 
	C183.448547,351.297974 190.257690,369.619568 195.817673,388.475861 
	C199.004059,399.282227 201.929276,410.168365 205.282562,420.921783 
	C207.410614,427.745941 211.526276,433.204132 218.058090,436.609894 
	C223.312027,439.349396 226.915741,435.992157 230.395920,433.119415 
	C236.640579,427.964722 238.904892,420.521484 240.253967,413.008209 
	C242.121231,402.609161 242.403839,392.186005 237.139206,382.402466 
	C235.512360,379.379181 233.202621,377.330078 229.715729,377.568573 
	C225.687485,377.844116 221.801559,379.637207 220.952835,383.693207 
	C219.610886,390.106323 219.375671,396.746582 218.559891,403.276703 
	C218.271378,405.586151 217.654388,407.854584 217.187378,410.141724 
	C214.649750,408.864929 210.998840,408.234283 209.805069,406.177521 
	C207.278809,401.824860 205.603973,396.836304 204.363480,391.911224 
	C202.346298,383.902374 200.957443,375.735229 199.481140,367.313049 
	C201.036148,371.803558 202.372955,376.627930 203.800262,381.425385 
	C205.903427,388.494476 207.876663,395.613739 210.351074,402.552612 
	C210.952545,404.239349 213.293427,405.305786 214.834503,406.657440 
	C215.317490,406.378632 215.800491,406.099854 216.283478,405.821045 
	C216.283478,402.075806 215.641068,398.187927 216.433731,394.618713 
	C217.628708,389.238068 218.952484,383.537781 221.798569,378.952148 
	C226.278137,371.734589 234.027878,372.401337 238.037216,379.986206 
	C243.114182,389.590851 244.895218,399.672852 242.508438,410.657990 
	C240.768112,418.667786 239.092575,426.456024 233.990158,433.093903 
	C230.715759,437.353638 226.759567,439.771179 221.065918,439.521179 
	C213.539154,439.190735 209.133514,434.482697 206.664612,428.546722 
	C202.881088,419.449951 199.995651,409.941101 197.264145,400.453064 
	C190.796234,377.986511 184.074951,355.707703 170.438599,336.200897 
	C164.122696,327.165955 157.971207,317.928864 152.785934,308.227142 
	C150.144333,303.284637 149.804764,297.111786 148.828430,291.139862 
	C149.493149,290.945251 149.776428,291.014709 150.082077,290.992950 
	C150.396393,293.024597 150.710709,295.056244 151.062515,297.763855 
	C151.414688,298.960205 151.729385,299.480560 152.044067,300.000916 
z"/>
<path fill="#575757" opacity="1.000000" stroke="none" 
	d="
M201.201477,267.328064 
	C201.039185,272.051178 200.636581,277.043671 200.133606,283.280823 
	C204.765411,275.878754 205.954102,268.496460 206.658630,261.322388 
	C207.759689,250.110352 208.197357,238.782211 208.031998,227.516235 
	C207.936111,220.983871 206.812485,214.242371 201.839462,209.070023 
	C197.231018,204.276855 187.321075,203.168350 181.662811,206.659012 
	C169.613373,214.092484 163.368317,225.906052 158.019043,238.254776 
	C154.677826,245.967987 152.100037,254.011902 148.867020,262.053101 
	C149.072891,259.138000 149.242004,255.966736 150.168716,253.034912 
	C154.895874,238.079788 161.452728,223.966309 171.616440,211.912064 
	C176.368896,206.275665 182.085495,201.461761 190.141525,200.918732 
	C197.642487,200.413101 202.249954,204.626755 205.421356,210.590042 
	C210.171555,219.522003 210.645432,229.370987 210.282074,239.197708 
	C209.754135,253.476593 208.806580,267.735443 203.570938,281.277252 
	C202.881561,283.060272 201.940094,284.745880 200.813522,287.110107 
	C195.583801,279.905518 200.267502,273.792908 201.201477,267.328064 
z"/>
<path fill="#9D9D9D" opacity="1.000000" stroke="none" 
	d="
M199.613251,364.997192 
	C198.203949,361.209106 196.806091,357.037292 195.793060,352.774048 
	C191.740570,335.719116 183.800903,320.665619 172.786118,307.121368 
	C170.824982,304.709869 169.254791,301.980438 167.537323,299.058777 
	C169.982422,300.861053 172.822830,302.676880 174.736603,305.196533 
	C187.187775,321.589630 195.729218,339.812134 199.579300,360.117096 
	C199.853622,361.563904 199.736603,363.084961 199.613251,364.997192 
z"/>
<path fill="#9D9D9D" opacity="1.000000" stroke="none" 
	d="
M167.474426,298.056458 
	C163.801819,293.258179 160.308853,288.116608 156.779327,282.188751 
	C156.663345,279.827606 156.583908,278.252686 156.504486,276.677795 
	C158.110748,272.113098 159.717010,267.548370 161.727783,262.450287 
	C162.366470,261.347504 162.600677,260.778137 162.834869,260.208771 
	C162.834885,260.208771 163.169220,260.118439 163.289825,260.242676 
	C163.082550,262.065277 163.170517,264.000702 162.359390,265.423615 
	C157.038361,274.757935 157.389572,283.511414 164.327576,291.931152 
	C165.721893,293.623260 166.559692,295.773895 167.474426,298.056458 
z"/>
<path fill="#575757" opacity="1.000000" stroke="none" 
	d="
M148.173996,264.340179 
	C148.595886,271.141022 148.795441,278.232452 148.799957,285.687805 
	C148.387177,278.911438 148.169434,271.771088 148.173996,264.340179 
z"/>
<path fill="#575757" opacity="1.000000" stroke="none" 
	d="
M201.432404,246.260101 
	C205.130386,252.048553 204.626740,258.428650 201.922668,265.040985 
	C201.500153,259.045288 201.386398,252.880753 201.432404,246.260101 
z"/>
<path fill="#9D9D9D" opacity="1.000000" stroke="none" 
	d="
M177.897400,237.885513 
	C177.897400,237.885513 178.138199,237.562210 178.567841,237.303589 
	C181.090042,235.549942 183.182587,234.054901 185.275131,232.559875 
	C186.094666,232.553406 186.914200,232.546951 187.868103,232.819122 
	C187.476059,234.080566 187.197815,235.501602 186.377762,235.966049 
	C183.662979,237.503616 180.752823,238.696259 177.433228,239.983215 
	C176.948807,239.945175 176.715485,239.712479 176.901382,239.502335 
	C177.357315,238.823288 177.627350,238.354401 177.897400,237.885513 
z"/>
<path fill="#9D9D9D" opacity="1.000000" stroke="none" 
	d="
M195.729599,235.199432 
	C195.892563,235.264389 196.055527,235.329361 196.599213,235.798111 
	C197.662659,237.327835 198.345398,238.453766 199.028137,239.579712 
	C196.003769,237.662750 192.979416,235.745773 189.942520,233.472504 
	C190.691406,232.988907 191.452850,232.861588 192.695953,233.126587 
	C194.028259,234.079071 194.878922,234.639252 195.729599,235.199432 
z"/>
<path fill="#9D9D9D" opacity="1.000000" stroke="none" 
	d="
M170.918945,245.583984 
	C172.101410,244.199951 173.283875,242.815903 174.940857,241.096161 
	C175.848755,240.411133 176.282120,240.061798 176.715485,239.712479 
	C176.715485,239.712479 176.948807,239.945175 177.066345,240.061066 
	C175.549210,242.293076 173.914536,244.409195 171.793945,246.242401 
	C171.178329,245.834335 171.048645,245.709152 170.918945,245.583984 
z"/>
<path fill="#9D9D9D" opacity="1.000000" stroke="none" 
	d="
M166.836182,251.986984 
	C166.997299,251.608322 167.158401,251.229675 167.721191,250.480057 
	C169.082535,249.316437 170.042160,248.523788 171.001801,247.731125 
	C170.108856,249.325684 169.215927,250.920242 167.857880,252.421005 
	C167.285629,252.085480 167.100098,251.972076 166.836182,251.986984 
z"/>
<path fill="#9D9D9D" opacity="1.000000" stroke="none" 
	d="
M164.856506,255.871506 
	C164.990875,255.514832 165.125259,255.158157 165.615204,254.514130 
	C166.370880,254.060806 166.770981,253.894806 167.171082,253.728821 
	C166.229462,255.694916 165.287827,257.661011 164.000214,259.640686 
	C163.591827,259.286682 163.529434,258.919128 163.860886,258.134460 
	C164.455338,257.102051 164.655914,256.486786 164.856506,255.871506 
z"/>
<path fill="#575757" opacity="1.000000" stroke="none" 
	d="
M171.175827,247.409058 
	C170.042160,248.523788 169.082535,249.316437 167.873596,250.211426 
	C168.542374,248.817688 169.460449,247.321640 170.648743,245.704788 
	C171.048645,245.709152 171.178329,245.834335 171.461151,246.181885 
	C171.526138,246.631866 171.437988,246.859436 171.175827,247.409058 
z"/>
<path fill="#575757" opacity="1.000000" stroke="none" 
	d="
M150.287170,290.801971 
	C149.776428,291.014709 149.493149,290.945251 149.014160,290.749023 
	C148.695068,289.942688 148.594055,289.171997 148.704102,288.070923 
	C149.440842,288.697357 149.966553,289.654175 150.287170,290.801971 
z"/>
<path fill="#575757" opacity="1.000000" stroke="none" 
	d="
M199.183167,239.597473 
	C198.345398,238.453766 197.662659,237.327835 196.838013,235.908722 
	C197.759445,236.638931 198.822830,237.662323 199.735001,239.054169 
	C199.583801,239.422638 199.338211,239.615219 199.183167,239.597473 
z"/>
<path fill="#575757" opacity="1.000000" stroke="none" 
	d="
M167.307465,253.441940 
	C166.770981,253.894806 166.370880,254.060806 165.757294,254.265717 
	C165.768906,253.579834 165.994019,252.855026 166.527649,252.058594 
	C167.100098,251.972076 167.285629,252.085480 167.522827,252.441193 
	C167.583206,252.755157 167.513519,252.955124 167.307465,253.441940 
z"/>
<path fill="#9D9D9D" opacity="1.000000" stroke="none" 
	d="
M201.204025,241.982681 
	C201.317657,242.696793 201.431305,243.410919 201.399078,244.457794 
	C200.692551,243.992401 200.131927,243.194229 200.084595,242.182373 
	C200.799957,241.973358 201.001999,241.978027 201.204025,241.982681 
z"/>
<path fill="#575757" opacity="1.000000" stroke="none" 
	d="
M201.378448,241.775238 
	C201.001999,241.978027 200.799957,241.973358 200.295166,241.984207 
	C199.871078,241.567474 199.749741,241.135223 199.753571,240.388611 
	C200.436798,240.572098 200.994843,241.069962 201.378448,241.775238 
z"/>
<path fill="#575757" opacity="1.000000" stroke="none" 
	d="
M184.918793,232.406281 
	C183.182587,234.054901 181.090042,235.549942 178.682053,237.137512 
	C180.431900,235.570938 182.497177,233.911819 184.918793,232.406281 
z"/>
<path fill="#575757" opacity="1.000000" stroke="none" 
	d="
M156.232651,276.859070 
	C156.583908,278.252686 156.663345,279.827606 156.625290,281.865631 
	C156.325470,280.565948 156.143143,278.803162 156.232651,276.859070 
z"/>
<path fill="#575757" opacity="1.000000" stroke="none" 
	d="
M195.727875,234.885223 
	C194.878922,234.639252 194.028259,234.079071 193.089417,233.209167 
	C193.909546,233.456619 194.817841,234.013809 195.727875,234.885223 
z"/>
<path fill="#575757" opacity="1.000000" stroke="none" 
	d="
M176.901382,239.502335 
	C176.282120,240.061798 175.848755,240.411133 175.145187,240.827148 
	C175.646942,239.903793 176.418900,238.913742 177.544128,237.904602 
	C177.627350,238.354401 177.357315,238.823288 176.901382,239.502335 
z"/>
<path fill="#575757" opacity="1.000000" stroke="none" 
	d="
M162.577606,260.195312 
	C162.600677,260.778137 162.366470,261.347504 161.866714,262.097107 
	C161.840881,261.578827 162.080612,260.880341 162.577606,260.195312 
z"/>
<path fill="#575757" opacity="1.000000" stroke="none" 
	d="
M152.231140,299.829895 
	C151.729385,299.480560 151.414688,298.960205 151.166702,298.124542 
	C151.628326,298.425781 152.023270,299.042358 152.231140,299.829895 
z"/>
<path fill="#575757" opacity="1.000000" stroke="none" 
	d="
M164.604065,255.933472 
	C164.655914,256.486786 164.455338,257.102051 163.942047,257.854126 
	C163.870102,257.325775 164.110855,256.660614 164.604065,255.933472 
z"/>
<path fill="#575757" opacity="1.000000" stroke="none" 
	d="
M155.563385,309.984680 
	C155.028824,309.633667 154.620667,308.989746 154.280334,308.045715 
	C154.795364,308.394287 155.242569,309.043060 155.563385,309.984680 
z"/>
</svg>