<svg version="1.1" id="Layer_1" xmlns="http://www.w3.org/2000/svg" xmlns:xlink="http://www.w3.org/1999/xlink" x="0px" y="0px"
	 width="100%" viewBox="0 0 336 592" enable-background="new 0 0 336 592" xml:space="preserve">
<path fill="#000000" opacity="1.000000" stroke="none" 
	d="
M170.515076,342.802582 
	C163.748184,338.759094 157.873489,334.143890 152.178436,329.265411 
	C149.307037,326.805695 148.762405,324.321960 150.760742,320.997437 
	C154.452164,314.856293 158.419067,308.925964 162.852280,303.294495 
	C165.000854,300.565155 167.232162,300.266815 170.176041,302.105438 
	C176.274490,305.914307 181.779572,310.454010 187.130249,315.213959 
	C189.122070,316.985901 189.707306,318.933929 188.408539,321.416107 
	C184.772171,328.365875 180.573196,334.945282 175.626190,341.032379 
	C174.437012,342.495605 172.966248,343.598114 170.515076,342.802582 
z"/>
<path fill="#000000" opacity="1.000000" stroke="none" 
	d="
M161.100464,359.875641 
	C162.274185,360.842560 163.121582,361.657074 164.076752,362.315155 
	C168.098328,365.085968 168.664581,368.315613 166.021866,372.501831 
	C162.382889,378.266235 159.051361,384.213776 154.666092,389.489105 
	C152.452133,392.152374 150.304901,392.539764 147.378983,390.555573 
	C141.590317,386.629944 135.890015,382.617889 130.656830,377.952667 
	C128.028519,375.609619 127.395447,373.262146 129.334503,370.104156 
	C133.168762,363.859497 137.233276,357.792480 141.767059,352.030548 
	C143.807968,349.436798 146.083557,349.087860 148.686813,350.914581 
	C152.766937,353.777649 156.781387,356.734283 161.100464,359.875641 
z"/>
<path fill="#000000" opacity="1.000000" stroke="none" 
	d="
M201.859146,351.994324 
	C206.710587,355.811432 211.263474,359.416718 215.810776,363.028992 
	C218.097153,364.845215 218.477356,366.932983 217.112885,369.593842 
	C213.613251,376.418457 209.399216,382.765289 204.700745,388.804077 
	C202.752197,391.308533 200.548203,391.699768 197.801697,389.835754 
	C192.026260,385.915955 186.402924,381.821533 181.098648,377.268494 
	C178.150955,374.738373 177.820572,372.088379 179.856339,368.970673 
	C183.212143,363.831268 186.423981,358.586578 190.006729,353.609589 
	C194.486267,347.386749 194.910065,347.439667 201.859146,351.994324 
z"/>
</svg>