<svg version="1.1" id="Layer_1" xmlns="http://www.w3.org/2000/svg" xmlns:xlink="http://www.w3.org/1999/xlink" x="0px" y="0px"
	 width="100%" viewBox="0 0 336 592" enable-background="new 0 0 336 592" xml:space="preserve">
<path fill="#000000" opacity="1.000000" stroke="none" 
	d="
M235.214890,257.774048 
	C240.767838,257.204773 245.856384,256.545959 250.928726,258.376373 
	C254.842072,259.788574 256.556580,261.985809 255.557724,266.316040 
	C253.625885,274.691040 251.980804,283.132141 250.142700,291.899689 
	C248.780655,291.325195 247.870987,291.200287 247.351898,290.683258 
	C240.919220,284.276093 232.783646,283.774902 224.915222,285.674103 
	C206.435806,290.134399 190.715042,299.425354 179.185898,314.959473 
	C176.481552,318.603271 174.612534,322.685577 173.676285,327.160583 
	C172.332245,333.584869 173.646622,336.792908 179.191589,340.210358 
	C188.482025,345.936279 199.003632,347.837402 209.502396,349.619751 
	C217.036057,350.898712 224.659592,351.642242 232.235336,352.680878 
	C241.104691,353.896790 244.497086,358.571228 245.487946,367.333588 
	C247.513657,385.247467 238.674225,397.447144 225.258682,406.947296 
	C199.653488,425.079529 171.339920,437.268158 140.440369,443.035156 
	C115.529930,447.684326 95.779175,436.595490 77.508522,421.534637 
	C75.987137,420.280548 74.483887,418.702087 75.549713,416.371582 
	C76.546692,414.191620 78.619125,414.598145 80.363876,414.713806 
	C88.821465,415.274506 97.208038,416.504272 105.707756,416.824890 
	C144.298569,418.280640 180.189804,408.476013 214.327347,391.226837 
	C218.323441,389.207672 222.040619,386.611145 225.780334,384.121857 
	C227.397812,383.045227 229.564285,381.816650 229.204163,379.590546 
	C228.814926,377.184631 226.368637,376.498718 224.282043,375.897308 
	C215.944214,373.494171 207.335281,372.551392 198.783661,371.335663 
	C189.229156,369.977325 179.637985,368.825195 170.689636,364.866638 
	C158.773636,359.595367 153.550522,349.190826 156.168442,336.379852 
	C158.454224,325.194092 163.866516,315.495148 170.279984,306.295990 
	C183.078873,287.937958 199.158386,273.252289 219.226364,263.093933 
	C224.172241,260.590332 229.416824,259.044556 235.214890,257.774048 
z"/>
</svg>