<svg version="1.1" id="Layer_1" xmlns="http://www.w3.org/2000/svg" xmlns:xlink="http://www.w3.org/1999/xlink" x="0px" y="0px"
	 width="100%" viewBox="0 0 336 592" enable-background="new 0 0 336 592" xml:space="preserve">
<path fill="#000000" opacity="1.000000" stroke="none" 
	d="
M170.269379,333.630249 
	C161.586609,328.515991 154.348602,329.691681 146.589249,337.213348 
	C134.711273,348.727417 136.283356,357.991882 151.285233,364.703278 
	C171.637802,373.808502 192.052994,374.763397 212.561630,365.161133 
	C214.301849,364.346344 216.338760,362.787140 218.117325,364.412292 
	C220.061295,366.188477 217.950211,368.041962 217.415390,369.840240 
	C214.705444,378.952271 208.427963,384.274994 199.933289,388.275330 
	C176.137772,399.481110 152.632507,411.302612 128.995911,422.846802 
	C123.446495,425.557159 122.389008,424.756287 122.657547,418.560730 
	C122.901543,412.931244 126.056709,409.366608 130.677353,406.779510 
	C138.941147,402.152710 147.220200,397.553131 156.490387,392.386169 
	C151.609482,390.838409 147.756271,389.692657 143.953659,388.398224 
	C120.581856,380.442322 114.986221,366.828674 125.940407,344.841949 
	C132.629837,331.415222 141.087784,319.388245 153.012726,310.050964 
	C158.782898,305.532928 165.125122,302.498505 172.643967,302.442078 
	C184.035568,302.356567 193.788132,314.684906 190.896484,325.817230 
	C189.468033,331.316559 186.888626,336.393219 184.012268,341.291168 
	C182.298752,344.209015 180.393143,344.454102 178.257050,341.662201 
	C176.020889,338.739563 173.448364,336.135986 170.269379,333.630249 
z"/>
</svg>