<svg version="1.1" id="Layer_1" xmlns="http://www.w3.org/2000/svg" xmlns:xlink="http://www.w3.org/1999/xlink" x="0px" y="0px"
	 width="100%" viewBox="0 0 336 592" enable-background="new 0 0 336 592" xml:space="preserve">
<path fill="#000000" opacity="1.000000" stroke="none" 
	d="
M183.324142,294.923065 
	C184.898590,309.242157 186.379059,323.116760 188.050568,336.968323 
	C188.944962,344.379944 187.507233,351.551666 186.331787,358.763153 
	C184.621323,369.256958 182.913940,379.760132 179.697723,389.928467 
	C178.974747,392.214233 178.419708,395.288879 174.896484,394.394958 
	C171.431168,393.515747 171.547714,390.753754 172.294434,387.954926 
	C176.660919,371.588623 174.112915,355.222992 172.128830,338.897186 
	C169.442780,316.795441 166.485870,294.726593 163.647644,272.643341 
	C161.974380,259.624207 160.736771,246.530365 158.513824,233.605896 
	C156.300598,220.737961 159.720657,208.861404 163.298676,196.907547 
	C164.392441,193.253403 165.914520,189.718552 167.389023,186.191193 
	C168.071274,184.559067 168.774155,182.731171 171.480774,182.507324 
	C174.097595,186.860291 174.111542,192.004562 174.122574,196.748062 
	C174.182220,222.441452 178.539337,247.711868 181.102173,273.155945 
	C181.817963,280.262329 182.572754,287.364746 183.324142,294.923065 
z"/>
<path fill="#000000" opacity="1.000000" stroke="none" 
	d="
M220.520020,139.263397 
	C213.840195,145.833572 205.402359,148.235611 197.313873,151.190796 
	C178.688202,157.995819 159.583557,160.349304 139.934067,156.603851 
	C136.428848,155.935699 134.484451,157.233948 134.286148,160.933945 
	C134.215363,162.254440 134.011047,163.592880 133.667145,164.869080 
	C132.530426,169.087250 129.237808,170.171310 126.407768,166.911591 
	C121.447456,161.198196 118.626450,154.324020 119.192566,146.755142 
	C119.816940,138.407242 128.437668,133.567062 138.980713,134.917465 
	C143.922714,135.550476 148.865341,136.184586 153.816589,136.738495 
	C173.062057,138.891541 191.989944,137.450790 210.528183,131.657974 
	C211.795395,131.261993 213.092087,130.931564 214.397400,130.692764 
	C216.649292,130.280807 219.181183,129.238663 220.894104,131.531052 
	C222.653412,133.885513 222.496872,136.519684 220.520020,139.263397 
z"/>
</svg>