<svg version="1.1" id="Layer_1" xmlns="http://www.w3.org/2000/svg" xmlns:xlink="http://www.w3.org/1999/xlink" x="0px" y="0px"
	 width="100%" viewBox="0 0 336 592" enable-background="new 0 0 336 592" xml:space="preserve">
<path fill="#000000" opacity="1.000000" stroke="none" 
	d="
M171.246857,330.576843 
	C167.042068,299.175751 163.251953,268.168121 158.724197,237.268631 
	C156.074722,219.187439 160.663239,202.676071 167.336975,186.358063 
	C168.013153,184.704727 168.704330,182.904144 171.395813,182.479294 
	C174.210663,186.752869 174.083649,191.959869 174.095978,196.643448 
	C174.164017,222.501709 178.511902,247.933289 181.168533,273.529388 
	C183.431595,295.333832 186.109406,317.097870 188.132263,338.923492 
	C189.186478,350.298157 185.819992,361.338348 183.900482,372.448669 
	C182.855652,378.496277 181.672363,384.547913 179.560394,390.351166 
	C178.767288,392.530457 178.156509,395.180298 174.942703,394.419495 
	C171.741592,393.661682 171.443802,391.120056 172.159302,388.489014 
	C176.698593,371.797363 173.998428,355.134338 172.086273,338.461884 
	C171.802124,335.984344 171.594666,333.498016 171.246857,330.576843 
z"/>
<path fill="#000000" opacity="1.000000" stroke="none" 
	d="
M179.889496,118.595741 
	C176.949615,118.417793 174.814499,116.995621 172.492096,116.107216 
	C169.835709,115.091064 167.155869,113.957848 164.266296,114.480064 
	C161.067383,115.058197 157.674225,116.318871 156.791382,119.557732 
	C155.910400,122.789719 159.612061,123.565567 161.636414,125.033333 
	C170.164169,131.216446 179.296112,132.777023 189.405334,129.070511 
	C191.729965,128.218170 195.197754,125.981163 197.218231,128.910645 
	C199.078140,131.607300 196.649689,134.612778 195.539490,137.316040 
	C194.274414,140.396423 191.900192,142.277039 188.729218,143.475418 
	C174.088242,149.008484 159.331345,154.249084 145.017197,160.624359 
	C143.151077,161.455505 140.990082,162.954071 138.972244,161.092133 
	C136.887100,159.168076 138.568695,157.061325 139.157181,155.076965 
	C140.972595,148.955536 145.245071,144.975372 150.895767,142.430161 
	C150.533569,141.728973 150.463638,141.318100 150.237000,141.194427 
	C139.650330,135.418152 139.303787,125.566559 146.594360,115.188721 
	C151.016464,108.894020 156.140488,103.202324 162.099228,98.292839 
	C165.115372,95.807808 168.415222,94.130516 172.380600,93.580406 
	C182.459732,92.182159 187.778152,97.074173 186.321228,107.207298 
	C185.701508,111.517555 184.766327,116.127785 179.889496,118.595741 
z"/>
</svg>