<svg version="1.1" id="Layer_1" xmlns="http://www.w3.org/2000/svg" xmlns:xlink="http://www.w3.org/1999/xlink" x="0px" y="0px"
	 width="100%" viewBox="0 0 336 592" enable-background="new 0 0 336 592" xml:space="preserve">
<path fill="#000000" opacity="1.000000" stroke="none" 
	d="
M102.411850,478.651489 
	C100.344719,477.189026 98.530945,475.998444 96.853149,474.639984 
	C95.518524,473.559357 95.440254,472.004059 96.074913,470.532135 
	C96.814880,468.816010 98.273949,468.787201 99.879837,469.188019 
	C102.300697,469.792267 104.803146,470.126221 107.166275,470.896179 
	C125.843300,476.981873 143.120667,473.367767 159.068008,462.839661 
	C184.266174,446.204315 202.447189,424.125946 209.929993,394.311584 
	C211.959122,386.226776 213.019623,377.959930 209.177170,369.934265 
	C206.973938,369.742371 206.252838,371.556641 205.146881,372.626984 
	C196.247971,381.239990 188.404297,383.046234 179.052078,378.516022 
	C168.900253,373.598480 162.597229,362.750946 163.881241,352.045990 
	C165.973358,334.603790 172.522217,318.935425 183.292679,305.099121 
	C190.877243,295.355621 198.625656,295.267090 206.886520,304.627136 
	C214.976974,313.794098 219.144150,324.951355 221.145523,336.651306 
	C229.933563,388.025909 215.769180,433.194000 182.545090,472.597778 
	C167.479385,490.465729 148.034531,495.325745 125.656532,488.599823 
	C117.643242,486.191376 109.950211,483.083832 102.411850,478.651489 
M187.659164,347.311279 
	C189.587967,347.292938 191.166870,346.341919 192.644821,345.280396 
	C194.261734,344.119049 196.408997,342.736481 195.999557,340.681824 
	C195.325516,337.299164 192.276962,335.766357 189.278564,334.673370 
	C187.162048,333.901825 184.923309,333.870728 183.534363,336.133240 
	C181.852051,338.873566 181.555405,341.750305 183.415543,344.549805 
	C184.260223,345.821075 185.567795,346.593567 187.659164,347.311279 
z"/>
<path fill="#000000" opacity="1.000000" stroke="none" 
	d="
M170.025360,251.736877 
	C166.065811,246.021332 166.484283,240.397507 169.457672,234.947647 
	C174.555267,225.604385 181.632828,217.931305 190.210144,211.655899 
	C194.682449,208.383850 199.867218,208.118408 205.037033,208.887146 
	C209.477646,209.547455 213.067688,216.644775 212.086136,222.265839 
	C211.802887,223.888092 211.221024,225.478394 210.616974,227.021057 
	C207.553329,234.845093 206.818176,235.143585 198.976959,231.865295 
	C193.919937,229.751053 188.917908,228.174759 183.987946,232.234085 
	C181.286713,234.458252 181.121613,236.308701 184.134430,238.514420 
	C193.654617,245.484268 203.662781,248.908661 215.388489,244.259171 
	C217.568268,243.394852 220.774521,241.453506 222.732025,244.082596 
	C224.479645,246.429779 222.287338,249.128647 221.420319,251.586731 
	C220.115402,255.286224 217.543777,257.515808 213.830032,258.906769 
	C199.349319,264.330414 184.758072,269.479004 170.638351,275.833832 
	C168.758392,276.679932 166.512131,278.254822 164.617813,276.360504 
	C162.631088,274.373810 164.083145,272.025574 164.856842,269.848175 
	C166.844513,264.254333 170.488403,260.149933 176.107025,257.880615 
	C174.717148,254.892502 171.790329,254.164139 170.025360,251.736877 
z"/>
</svg>