<svg version="1.1" id="Layer_1" xmlns="http://www.w3.org/2000/svg" xmlns:xlink="http://www.w3.org/1999/xlink" x="0px" y="0px"
	 width="100%" viewBox="0 0 336 592" enable-background="new 0 0 336 592" xml:space="preserve">
<path fill="#000000" opacity="1.000000" stroke="none" 
	d="
M173.633148,351.280884 
	C169.952271,322.150116 166.297165,293.475525 162.620087,264.803772 
	C161.119751,253.104980 159.640518,241.402786 158.024719,229.719696 
	C156.611191,219.499008 159.567871,209.920975 162.226685,200.326096 
	C163.510483,195.693161 165.340759,191.200165 167.119308,186.721527 
	C167.820953,184.954651 168.506622,182.889389 171.311127,182.451172 
	C174.276428,186.530380 174.074875,191.601974 174.081833,196.122955 
	C174.121964,222.148972 178.492264,247.746613 181.167572,273.507935 
	C183.432022,295.313019 186.108490,317.078064 188.124542,338.904999 
	C189.175171,350.279633 185.817978,361.323883 183.888229,372.434265 
	C182.809326,378.646088 181.582443,384.857300 179.384766,390.812683 
	C178.605728,392.923706 177.763763,395.079071 174.897568,394.392059 
	C171.959152,393.687805 171.456360,391.313873 172.100189,388.890564 
	C175.363922,376.606354 175.115189,364.204132 173.633148,351.280884 
z"/>
<path fill="#000000" opacity="1.000000" stroke="none" 
	d="
M160.288696,459.972717 
	C153.275528,464.032501 153.294724,465.271973 159.550430,469.472870 
	C167.937469,475.105072 176.549179,477.980865 186.709915,474.188171 
	C189.383133,473.190308 193.714279,470.563477 195.738251,474.136017 
	C197.579132,477.385406 194.671204,481.065948 192.927811,484.250641 
	C191.840424,486.237000 189.937317,487.325775 187.862457,488.090851 
	C172.889465,493.611664 157.918274,499.136078 143.311920,505.591156 
	C141.464813,506.407471 139.322632,507.333313 137.656326,505.876740 
	C135.704529,504.170563 136.896179,501.900879 137.580872,499.865692 
	C139.533737,494.060913 143.332916,489.880768 148.773575,487.650421 
	C148.799652,485.678925 147.537827,485.222443 146.697906,484.524048 
	C140.149200,479.079041 138.363144,472.600311 142.246887,465.079346 
	C147.365677,455.166687 154.857605,447.148590 163.974426,440.747620 
	C167.168213,438.505219 171.037842,437.790192 174.909592,437.820190 
	C181.022141,437.867523 184.682114,441.885895 185.230850,448.993195 
	C185.595490,453.715759 183.556641,457.794434 181.179092,461.594086 
	C179.309570,464.581848 176.485092,463.232147 174.013824,462.220001 
	C169.714600,460.459290 165.529449,458.190582 160.288696,459.972717 
z"/>
</svg>