<svg version="1.1" id="Layer_1" xmlns="http://www.w3.org/2000/svg" xmlns:xlink="http://www.w3.org/1999/xlink" x="0px" y="0px"
	 width="100%" viewBox="0 0 336 592" enable-background="new 0 0 336 592" xml:space="preserve">
<path fill="#000000" opacity="1.000000" stroke="none" 
	d="
M160.848694,252.854630 
	C159.968567,245.313019 159.212051,238.205933 158.315735,231.116531 
	C156.223160,214.565643 161.940659,199.671173 168.049179,184.859528 
	C168.349442,184.131485 169.026428,183.519775 169.635483,182.973801 
	C169.963303,182.679947 170.519699,182.641083 171.379410,182.349152 
	C174.131561,186.821060 174.109085,191.978394 174.119263,196.712967 
	C174.174423,222.410065 178.515869,247.684814 181.111496,273.128143 
	C183.134613,292.959595 185.078827,312.802277 187.419830,332.597198 
	C189.746887,352.274292 184.129639,370.800964 179.812256,389.529053 
	C179.261032,391.920166 178.648010,395.409302 174.824844,394.361298 
	C171.088806,393.337189 171.679871,390.284393 172.435120,387.389984 
	C176.621811,371.344574 174.120209,355.294006 172.206284,339.299225 
	C169.540970,317.024963 166.531113,294.791748 163.629654,272.546082 
	C162.791626,266.120789 161.819458,259.713013 160.848694,252.854630 
z"/>
</svg>