<svg version="1.1" id="Layer_1" xmlns="http://www.w3.org/2000/svg" xmlns:xlink="http://www.w3.org/1999/xlink" x="0px" y="0px"
	 width="100%" viewBox="0 0 336 592" enable-background="new 0 0 336 592" xml:space="preserve">
<path fill="#000000" opacity="1.000000" stroke="none" 
	d="
M71.412735,353.589600 
	C83.143814,363.687286 97.180771,367.212769 111.551674,369.584106 
	C131.901169,372.941925 152.294525,372.121765 172.734283,369.869507 
	C202.273911,366.614563 231.180939,360.680817 259.224670,350.780426 
	C266.773041,348.115601 274.162659,345.006622 280.713043,340.297455 
	C287.078094,335.721588 287.602112,333.254303 283.851685,326.503296 
	C282.154541,323.448334 280.385925,320.415588 278.413147,317.534760 
	C273.651154,310.580719 273.203552,303.356598 276.664886,295.782745 
	C278.980621,290.715637 280.081512,285.095764 283.556519,279.984283 
	C289.091034,285.068420 291.420258,291.434753 293.801605,297.798218 
	C299.499878,313.025269 299.835449,328.358673 294.623047,343.740051 
	C290.278198,356.561310 281.390747,365.421173 269.701263,371.819275 
	C247.681030,383.871796 223.773666,390.195801 199.434219,395.304749 
	C180.321426,399.316559 160.983749,401.657593 141.500381,401.784821 
	C118.156075,401.937317 94.839798,400.973694 73.141479,390.620636 
	C58.266590,383.523285 48.672749,372.513458 47.104279,355.533997 
	C46.314224,346.981354 48.762310,339.031494 51.921768,331.317596 
	C55.079372,323.608246 58.887135,316.186676 63.700199,309.336212 
	C64.273323,308.520477 64.871521,307.707581 65.559029,306.990112 
	C66.847076,305.645935 68.213501,304.193756 70.253075,305.674133 
	C72.195435,307.084015 71.633919,308.847229 70.681969,310.555145 
	C67.273819,316.669586 64.148849,322.788757 63.071079,329.930603 
	C61.651989,339.334259 64.401459,346.944458 71.412735,353.589600 
z"/>
<path fill="#000000" opacity="1.000000" stroke="none" 
	d="
M151.912811,445.610413 
	C153.872192,437.073822 159.365524,431.014496 164.521362,424.791077 
	C166.055756,422.938965 168.166016,423.696259 169.971924,424.831146 
	C174.904343,427.930786 179.586502,431.365356 184.034897,435.135315 
	C186.507095,437.230438 186.710327,439.463409 185.154633,442.169922 
	C182.085922,447.508728 178.843018,452.721191 174.912567,457.482574 
	C173.417816,459.293335 171.709946,460.674683 169.375641,459.176636 
	C163.245743,455.242920 156.783310,451.724030 151.912811,445.610413 
z"/>
</svg>