<svg version="1.1" id="Layer_1" xmlns="http://www.w3.org/2000/svg" xmlns:xlink="http://www.w3.org/1999/xlink" x="0px" y="0px"
	 width="100%" viewBox="0 0 336 592" enable-background="new 0 0 336 592" xml:space="preserve">
<path fill="#000000" opacity="1.000000" stroke="none" 
	d="
M142.187637,332.314209 
	C147.983429,318.072479 153.889450,304.299713 161.631561,291.424316 
	C166.693909,283.005402 170.830902,281.664062 179.992889,285.370605 
	C192.668518,290.498627 200.317276,300.656799 205.956665,312.484406 
	C215.027328,331.508514 216.213531,351.055389 207.283661,370.326782 
	C197.349152,391.766266 179.348114,397.780457 159.162643,394.880188 
	C146.372910,393.042542 137.357040,380.209686 135.508453,365.488068 
	C134.016525,353.606781 138.023743,343.235138 142.187637,332.314209 
M196.893005,343.774017 
	C189.088730,334.568420 178.979965,329.054810 167.588318,325.713776 
	C163.171204,324.418335 159.413071,325.684723 156.589996,329.498199 
	C152.958069,334.404205 150.554764,339.863403 149.483154,345.830780 
	C148.177612,353.100708 149.863937,356.283234 156.809616,359.100464 
	C169.960709,364.434692 182.596024,362.601318 194.533279,355.451630 
	C199.184464,352.665924 199.667343,349.758087 196.893005,343.774017 
z"/>
<path fill="#000000" opacity="1.000000" stroke="none" 
	d="
M169.775467,251.737549 
	C167.311417,255.115570 165.042877,258.195374 162.798492,261.292725 
	C160.983917,263.796875 158.821152,264.010925 156.314850,262.379364 
	C151.572372,259.291992 146.951279,256.052429 142.600006,252.413315 
	C139.763626,250.041168 139.460022,247.615585 141.504364,244.623138 
	C144.692520,239.956451 147.844513,235.262589 150.896851,230.506439 
	C153.103333,227.068329 155.679443,226.756149 158.809158,229.153732 
	C163.673080,232.879852 168.543137,236.597916 173.702682,240.542725 
	C177.983063,236.696198 180.683426,231.877686 183.840561,227.489471 
	C186.646942,223.588791 189.330078,222.660828 193.262985,225.872650 
	C197.379868,229.234726 201.758530,232.274475 205.976013,235.515930 
	C208.064850,237.121368 208.794922,239.098099 207.393845,241.623123 
	C204.325027,247.153824 201.082001,252.563126 197.223862,257.593750 
	C195.098526,260.364960 192.823761,260.767761 190.004929,258.602448 
	C186.312790,255.766266 182.299637,253.303360 178.854584,250.202194 
	C175.096146,246.818924 172.344604,246.754120 169.775467,251.737549 
z"/>
</svg>