<svg version="1.1" id="Layer_1" xmlns="http://www.w3.org/2000/svg" xmlns:xlink="http://www.w3.org/1999/xlink" x="0px" y="0px"
	 width="100%" viewBox="0 0 336 592" enable-background="new 0 0 336 592" xml:space="preserve">
<path fill="#000000" opacity="1.000000" stroke="none" 
	d="
M291.176941,291.028717 
	C297.415497,305.783081 300.139252,320.464630 296.732391,336.153717 
	C293.237640,352.247345 284.277252,363.770355 270.050415,371.619293 
	C247.916550,383.830475 223.846420,390.175812 199.342697,395.308167 
	C180.392365,399.277405 161.228683,401.601990 141.905502,401.768127 
	C118.380119,401.970367 94.914726,400.988220 73.061249,390.571716 
	C58.175354,383.476379 48.640747,372.411621 47.099976,355.439148 
	C46.339756,347.064819 48.721680,339.275818 51.781971,331.698059 
	C54.966114,323.813599 58.865372,316.260529 63.747471,309.258667 
	C64.317337,308.441406 64.928574,307.638397 65.617447,306.921844 
	C66.920464,305.566437 68.329018,304.181091 70.324638,305.718109 
	C72.212334,307.171997 71.598549,308.929871 70.649460,310.627899 
	C67.233948,316.738708 64.152122,322.869751 63.065437,330.008606 
	C61.396976,340.969482 65.493904,349.147766 73.883034,355.649567 
	C83.360008,362.994537 94.536575,366.314392 106.018158,368.592468 
	C133.337784,374.013092 160.629471,371.993469 187.911545,367.944946 
	C214.145111,364.052032 239.909592,358.351013 264.668457,348.657318 
	C270.563416,346.349243 276.337219,343.701782 281.399231,339.798889 
	C286.956543,335.514191 287.494354,333.185272 284.157349,327.081238 
	C282.002380,323.139435 279.578827,319.344421 277.272430,315.485474 
	C274.093445,310.166534 273.382324,304.619232 275.639801,298.759064 
	C278.013855,292.596344 279.919708,286.235321 283.223785,280.172607 
	C287.419586,282.841919 288.962769,286.955170 291.176941,291.028717 
z"/>
<path fill="#000000" opacity="1.000000" stroke="none" 
	d="
M174.289307,281.754303 
	C171.000885,278.494537 168.667007,279.239899 166.458588,282.623138 
	C164.188904,286.100281 161.595734,289.364532 159.217316,292.773041 
	C157.215714,295.641479 154.846390,296.169586 152.007645,294.096649 
	C147.445114,290.764923 142.900436,287.408478 138.369354,284.034088 
	C135.782150,282.107361 135.454758,279.797272 137.254990,277.112061 
	C140.585938,272.143555 143.917160,267.174347 147.168015,262.153442 
	C149.310333,258.844666 151.860443,258.839264 154.731049,261.019897 
	C158.702271,264.036591 162.794083,266.924957 166.522339,270.221100 
	C169.294128,272.671631 170.929062,272.135101 172.833755,269.321350 
	C175.441406,265.469116 178.365097,261.832397 181.080414,258.050934 
	C183.028519,255.337967 185.344330,255.032227 187.929504,256.921173 
	C192.626556,260.353241 197.265182,263.865936 201.902390,267.379028 
	C204.226761,269.139954 204.763412,271.274536 203.259323,273.919312 
	C200.298248,279.126160 197.184753,284.224915 193.668915,289.085144 
	C191.166733,292.544098 188.554901,292.702454 185.314316,290.085754 
	C181.824020,287.267426 178.158798,284.665710 174.289307,281.754303 
z"/>
</svg>