<svg version="1.1" id="Layer_1" xmlns="http://www.w3.org/2000/svg" xmlns:xlink="http://www.w3.org/1999/xlink" x="0px" y="0px"
	 width="100%" viewBox="0 0 336 592" enable-background="new 0 0 336 592" xml:space="preserve">
<path fill="#000000" opacity="1.000000" stroke="none" 
	d="
M284.218994,337.222961 
	C287.155334,334.154205 286.430450,331.188080 284.784729,328.249695 
	C281.938354,323.167511 278.952423,318.162323 276.168457,313.046783 
	C274.459778,309.907104 273.792511,306.518250 274.607422,302.925140 
	C276.381134,295.104675 279.789703,287.920593 282.773743,280.608704 
	C285.628296,280.715454 286.484497,282.798920 287.387115,284.373352 
	C299.848175,306.109100 302.627014,328.497986 291.074249,351.494080 
	C286.433594,360.731445 278.573730,366.928864 269.645172,371.828979 
	C247.493622,383.986176 223.408615,390.271118 198.892349,395.374786 
	C180.092621,399.288483 161.099045,401.578064 141.947052,401.761047 
	C118.422485,401.985779 94.955795,400.995911 73.100182,390.586456 
	C58.217857,383.498230 48.650230,372.456665 47.117630,355.473694 
	C46.442574,347.993286 48.301193,340.954071 50.895542,334.065887 
	C54.195053,325.305450 58.462929,317.031982 63.738270,309.290253 
	C64.298943,308.467407 64.918045,307.669678 65.604568,306.950531 
	C66.901260,305.592255 68.297531,304.192474 70.305084,305.714935 
	C72.211433,307.160583 71.593872,308.919617 70.644325,310.615601 
	C67.306000,316.578278 64.272820,322.566040 63.108505,329.497650 
	C61.240654,340.617706 65.291100,349.017822 73.859444,355.638641 
	C83.478752,363.071594 94.817696,366.363159 106.483910,368.658417 
	C133.654968,374.004150 160.769333,371.930634 187.887222,367.959717 
	C212.141968,364.408051 235.976196,359.153595 259.053864,350.817383 
	C267.971863,347.595978 276.889526,344.201813 284.218994,337.222961 
z"/>
<path fill="#000000" opacity="1.000000" stroke="none" 
	d="
M193.973633,260.961853 
	C206.889801,271.120453 207.474899,268.554779 198.104584,283.299561 
	C191.176910,294.200653 191.075348,294.136108 180.655914,286.395752 
	C170.008026,278.485687 170.012497,278.488861 162.306519,289.364349 
	C161.248276,290.857880 160.156647,292.331085 159.014435,293.760986 
	C157.411072,295.768097 155.512695,296.078491 153.304276,294.682190 
	C148.374191,291.565033 143.587570,288.261475 139.098404,284.519684 
	C136.494308,282.349091 135.885132,279.981903 137.779099,277.112000 
	C141.078369,272.112671 144.432098,267.149048 147.703232,262.131500 
	C149.701767,259.066010 152.074631,258.892212 154.844879,260.987030 
	C159.871628,264.788147 164.891342,268.598572 170.251144,272.660675 
	C173.934052,269.394226 176.246719,265.143951 179.091537,261.354126 
	C184.355194,254.341980 184.312454,254.304169 191.649460,259.303192 
	C192.337189,259.771759 193.010330,260.261780 193.973633,260.961853 
z"/>
<path fill="#000000" opacity="1.000000" stroke="none" 
	d="
M174.055237,224.891357 
	C183.228882,232.926651 185.530075,230.604767 177.320190,243.809677 
	C175.395004,246.906219 173.228104,249.859619 171.059097,252.795135 
	C169.398651,255.042343 167.361938,255.293320 165.005875,253.660538 
	C160.088745,250.252899 155.178482,246.851120 150.647675,242.919083 
	C148.227936,240.819092 147.853638,238.612717 149.483658,235.894394 
	C152.735748,230.470993 156.403275,225.342682 160.247742,220.329544 
	C161.891602,218.185989 163.843567,218.063828 165.930374,219.376587 
	C168.598816,221.055222 171.161819,222.901505 174.055237,224.891357 
z"/>
</svg>