<svg version="1.1" id="Layer_1" xmlns="http://www.w3.org/2000/svg" xmlns:xlink="http://www.w3.org/1999/xlink" x="0px" y="0px"
	 width="100%" viewBox="0 0 336 592" enable-background="new 0 0 336 592" xml:space="preserve">
<path fill="#000000" opacity="1.000000" stroke="none" 
	d="
M164.451263,313.451843 
	C178.048569,315.604523 191.259903,317.410309 204.625107,316.591400 
	C215.082001,315.950684 225.477493,314.375000 235.996521,314.637939 
	C242.456253,314.799408 243.353500,316.228149 240.576065,322.243134 
	C233.501770,337.563690 232.559921,338.197998 212.748505,340.297211 
	C186.982681,343.027344 162.318008,349.445526 139.719482,362.491730 
	C123.433662,371.893555 108.686401,383.172394 97.542664,398.630157 
	C73.001930,432.671234 77.829002,484.486694 127.183487,506.579193 
	C144.048050,514.128296 161.875351,517.939453 180.201599,519.774109 
	C189.982590,520.753296 199.778152,521.629089 209.592834,521.583069 
	C224.243759,521.514343 238.789474,519.698975 253.348099,518.191467 
	C259.467590,517.557678 265.616333,517.190369 271.757782,516.795044 
	C273.506989,516.682434 275.232483,517.235962 275.752594,519.117065 
	C276.359406,521.311890 274.456390,522.003113 272.970490,522.607056 
	C248.592484,532.515381 224.041046,542.117615 198.224380,547.447754 
	C187.875366,549.584412 176.991043,547.408142 166.405548,546.286011 
	C147.271545,544.257690 128.607285,540.430420 111.312462,531.456909 
	C85.063232,517.837219 71.174110,496.274902 69.759285,466.786713 
	C67.151329,412.430878 93.835533,374.370453 137.375000,345.762543 
	C138.891296,344.766235 140.638611,344.078308 142.267456,341.671051 
	C121.429138,335.498566 100.991913,336.685211 80.602287,341.864227 
	C78.727371,329.769104 85.196625,317.976685 95.195312,313.838562 
	C111.025932,307.286835 127.377136,307.761261 143.857986,310.042786 
	C150.603683,310.976654 157.302689,312.247711 164.451263,313.451843 
z"/>
</svg>