<svg version="1.1" id="Layer_1" xmlns="http://www.w3.org/2000/svg" xmlns:xlink="http://www.w3.org/1999/xlink" x="0px" y="0px"
	 width="100%" viewBox="0 0 336 592" enable-background="new 0 0 336 592" xml:space="preserve">
<path fill="#000000" opacity="1.000000" stroke="none" 
	d="
M205.230621,521.635925 
	C221.876404,521.748108 237.890518,519.766418 253.930649,518.077637 
	C259.717163,517.468506 265.535645,517.146667 271.344940,516.778870 
	C273.255798,516.657959 275.219940,517.061768 275.773041,519.198425 
	C276.333862,521.364868 274.379120,522.040039 272.896271,522.645264 
	C249.001953,532.397339 224.872391,541.609558 199.650848,547.230591 
	C188.750076,549.659973 177.432159,547.391052 166.364624,546.262146 
	C147.229080,544.310486 128.579285,540.417908 111.292877,531.446167 
	C85.055962,517.828918 71.174942,496.268463 69.758263,466.794556 
	C67.146774,412.463104 93.817093,374.409607 137.319000,345.788177 
	C138.569580,344.965332 139.846298,344.179474 141.062408,343.308746 
	C141.423553,343.050140 141.618927,342.560028 142.325989,341.559235 
	C121.515007,335.782532 101.129158,336.432037 80.250465,342.067688 
	C79.499146,336.733185 82.010307,332.685516 82.381813,328.382050 
	C83.073341,320.371643 88.163322,316.669952 94.920631,313.908875 
	C111.098969,307.298431 127.722076,307.752533 144.546082,310.163849 
	C164.104340,312.967102 183.464661,317.659027 203.434525,316.634491 
	C214.225784,316.080872 224.940002,314.325287 235.792282,314.633545 
	C242.403183,314.821381 243.345245,316.162720 240.664581,322.064514 
	C233.699997,337.397858 232.538925,338.213379 212.960785,340.276123 
	C187.029144,343.008301 162.213135,349.455048 139.493729,362.618774 
	C123.231262,372.041382 108.500427,383.335236 97.403755,398.824768 
	C72.809090,433.155731 78.174950,485.132660 127.819405,506.846924 
	C144.594437,514.184204 162.212708,518.096313 180.378098,519.727295 
	C188.495728,520.456299 196.629715,521.002991 205.230621,521.635925 
z"/>
<path fill="#000000" opacity="1.000000" stroke="none" 
	d="
M164.600189,282.462463 
	C153.506287,274.501892 153.473312,274.480560 160.677032,263.347321 
	C162.567978,260.424927 164.733658,257.680420 166.771164,254.852753 
	C168.673813,252.212234 171.030655,251.868713 173.690659,253.590668 
	C178.571609,256.750397 183.287567,260.125549 187.692383,263.947632 
	C190.155838,266.085175 190.384705,268.228821 188.767487,270.932648 
	C185.954453,275.635834 183.072067,280.276550 179.840103,284.718018 
	C177.038193,288.568481 174.092636,289.376770 170.239807,286.319916 
	C168.554016,284.982391 166.682037,283.879486 164.600189,282.462463 
z"/>
</svg>