<svg version="1.1" id="Layer_1" xmlns="http://www.w3.org/2000/svg" xmlns:xlink="http://www.w3.org/1999/xlink" x="0px" y="0px"
	 width="100%" viewBox="0 0 336 592" enable-background="new 0 0 336 592" xml:space="preserve">
<path fill="#000000" opacity="1.000000" stroke="none" 
	d="
M178.033401,270.861694 
	C203.859253,285.437225 217.992844,307.700409 223.396835,336.034668 
	C225.429398,346.691742 225.356506,357.163818 221.139740,367.360596 
	C219.441071,371.468231 216.865997,374.605682 212.984879,377.079742 
	C186.713425,393.826569 157.809677,397.193787 127.598015,394.473602 
	C123.464310,394.101410 122.077873,392.186493 122.624283,388.263794 
	C123.723679,380.371155 124.724670,372.464752 125.755875,364.562683 
	C126.218201,361.019867 128.490189,360.449615 131.535690,360.871826 
	C155.651932,364.215088 178.989731,360.269836 201.760529,352.642273 
	C214.847534,348.258514 216.799240,347.534180 208.669220,333.118408 
	C200.342010,318.352997 186.262665,309.729065 171.087875,303.030121 
	C166.996689,301.224091 162.730133,299.678284 158.398880,298.592010 
	C154.140137,297.523926 153.029602,294.940063 153.851181,291.199860 
	C155.528137,283.565582 157.533279,276.013306 160.123947,268.623749 
	C161.224258,265.485229 163.126236,264.413055 166.245560,265.757324 
	C170.064026,267.402893 173.883636,269.045807 178.033401,270.861694 
z"/>
<path fill="#000000" opacity="1.000000" stroke="none" 
	d="
M159.769226,235.216339 
	C155.585129,232.461060 155.369019,229.402847 157.972260,225.740814 
	C161.146301,221.275757 164.198120,216.723145 167.266983,212.184174 
	C169.184387,209.348267 171.485031,208.699875 174.474106,210.580978 
	C179.548080,213.774170 184.337082,217.337219 188.878662,221.248138 
	C191.018448,223.090775 191.078278,225.024780 189.747665,227.419357 
	C186.754501,232.805908 183.441406,237.961884 179.653610,242.826599 
	C177.510437,245.579086 175.126755,245.934357 172.317184,243.983673 
	C168.224884,241.142334 164.138046,238.293121 159.769226,235.216339 
z"/>
</svg>