<svg version="1.1" id="Layer_1" xmlns="http://www.w3.org/2000/svg" xmlns:xlink="http://www.w3.org/1999/xlink" x="0px" y="0px"
	 width="100%" viewBox="0 0 336 592" enable-background="new 0 0 336 592" xml:space="preserve">
<path fill="#000000" opacity="1.000000" stroke="none" 
	d="
M198.714340,434.619934 
	C193.484894,443.801697 187.499710,451.914459 180.626450,459.509918 
	C163.839218,478.060974 142.681824,480.709106 119.746063,476.749268 
	C111.700577,475.360229 104.138840,472.033630 96.924034,468.146271 
	C95.178009,467.205505 92.315300,466.580963 93.512688,463.594727 
	C94.570465,460.956787 97.119629,461.634460 99.203453,461.945892 
	C108.426132,463.324249 117.638847,464.817841 126.977173,463.061401 
	C136.987152,461.178650 145.918442,456.708496 154.199631,451.018250 
	C171.529221,439.110565 186.685791,425.010529 197.654251,406.802032 
	C203.105148,397.753143 204.388382,388.730011 199.272858,378.916351 
	C194.812973,370.360535 191.240067,361.346893 187.061264,352.638214 
	C184.825684,347.979248 184.328262,343.542297 186.717392,338.798035 
	C189.337219,333.595673 191.656708,328.242706 194.231873,323.016815 
	C194.929718,321.600677 195.419189,319.809875 197.387985,319.438263 
	C212.599579,339.005341 223.902328,393.436127 198.714340,434.619934 
z"/>
</svg>