<svg version="1.1" id="Layer_1" xmlns="http://www.w3.org/2000/svg" xmlns:xlink="http://www.w3.org/1999/xlink" x="0px" y="0px"
	 width="100%" viewBox="0 0 336 592" enable-background="new 0 0 336 592" xml:space="preserve">
<path fill="#000000" opacity="1.000000" stroke="none" 
	d="
M212.185272,398.808899 
	C206.820572,422.466675 196.262970,442.814911 179.890030,460.304443 
	C169.222275,471.699738 156.228195,476.983093 141.034851,478.224274 
	C125.022797,479.532318 110.387352,475.255463 96.436150,467.901703 
	C94.910942,467.097778 92.678734,466.421387 93.347961,464.014191 
	C94.138771,461.169739 96.621056,461.625824 98.752502,461.877136 
	C103.206696,462.402344 107.633125,463.180878 112.093567,463.631622 
	C123.360489,464.770142 133.954544,462.425842 143.868546,457.033081 
	C165.965546,445.013214 183.936462,428.537201 197.385178,407.222473 
	C203.226013,397.965393 204.481491,388.610687 199.074020,378.469635 
	C194.773346,370.404266 191.561478,361.765625 187.504700,353.560211 
	C184.881363,348.254120 184.287476,343.288483 187.130264,337.900604 
	C189.690506,333.048279 191.798615,327.959320 194.236603,323.039398 
	C194.937057,321.625885 195.421539,319.835663 198.232422,319.277557 
	C212.320557,343.893768 215.738190,370.488495 212.185272,398.808899 
z"/>
<path fill="#000000" opacity="1.000000" stroke="none" 
	d="
M213.278885,279.463745 
	C210.133148,285.726166 206.614792,291.340027 202.359451,296.483429 
	C200.361404,298.898438 198.296692,299.477509 195.482040,297.611603 
	C190.773911,294.490479 186.068069,291.391266 181.685028,287.808411 
	C179.118362,285.710358 178.312683,283.479645 180.126740,280.474915 
	C183.392853,275.065094 186.863815,269.800812 190.825394,264.873962 
	C192.022385,263.385315 193.510239,262.103790 195.530579,263.185730 
	C201.856781,266.573578 207.633255,270.744293 212.716370,275.830414 
	C213.615814,276.730347 213.590179,277.934082 213.278885,279.463745 
z"/>
</svg>