<svg version="1.1" id="Layer_1" xmlns="http://www.w3.org/2000/svg" xmlns:xlink="http://www.w3.org/1999/xlink" x="0px" y="0px"
	 width="100%" viewBox="0 0 336 592" enable-background="new 0 0 336 592" xml:space="preserve">
<path fill="#000000" opacity="1.000000" stroke="none" 
	d="
M186.899597,351.207520 
	C188.405746,354.212982 190.162460,356.776306 190.936920,359.608246 
	C191.994843,363.476715 194.386536,364.004486 197.712631,363.594482 
	C216.182373,361.317932 235.227386,343.452301 238.677399,325.155426 
	C238.922195,323.857178 239.292633,322.573547 239.715240,321.320435 
	C240.163940,319.989990 240.971405,318.907166 242.538376,318.899261 
	C244.112549,318.891296 244.868988,319.973846 245.355576,321.308624 
	C245.640533,322.090393 245.969055,322.858887 246.207642,323.654480 
	C249.997391,336.290436 259.351959,344.166260 272.267548,345.561401 
	C273.941406,345.742188 275.548431,345.583618 277.146240,344.885101 
	C281.934143,342.791992 282.738403,340.348572 278.417419,337.477722 
	C271.641815,332.976044 271.851685,327.609009 274.348602,321.141724 
	C275.844116,317.268158 276.895691,313.225250 278.297607,309.312531 
	C278.951996,307.486115 279.483276,305.174164 281.937073,305.043823 
	C284.386597,304.913727 285.856842,306.776947 286.937561,308.670959 
	C290.861481,315.547760 293.943420,322.732788 293.253357,330.893921 
	C292.305908,342.099518 289.635132,352.781189 284.139435,362.768616 
	C275.295959,378.840027 259.024872,377.866516 248.325974,370.413025 
	C243.917877,367.342041 240.711792,363.007446 236.194626,359.397644 
	C231.442520,364.883881 227.825775,371.073212 222.892563,376.218201 
	C216.542801,382.840576 209.759872,388.620941 200.264252,389.774323 
	C196.587631,390.220856 196.234451,392.322693 196.248199,395.303772 
	C196.313980,409.561707 193.829681,423.457062 189.597488,437.013519 
	C181.634933,462.518860 165.155151,480.227509 140.046158,489.462097 
	C118.935402,497.226227 97.072113,500.054840 74.821655,496.197723 
	C54.390179,492.655884 37.473125,472.814362 35.605042,452.202057 
	C33.425297,428.150879 42.993557,408.067169 56.156349,389.114532 
	C57.389431,387.339081 59.006924,384.738678 61.787773,386.542419 
	C64.600586,388.366943 63.276123,391.010406 62.113941,393.205994 
	C58.998737,399.091125 55.736874,404.884155 53.187710,411.066895 
	C49.608250,419.748566 48.356018,428.764923 49.403763,437.985199 
	C50.719269,449.561859 58.349274,456.675171 68.009415,461.727661 
	C79.292923,467.629181 91.402771,469.717194 104.186775,469.130310 
	C119.724602,468.416992 134.989517,466.487091 149.846680,461.777557 
	C154.303009,460.364990 158.574173,458.579437 162.623337,456.182098 
	C175.100662,448.794647 181.182709,437.601410 182.669998,423.473145 
	C184.436676,406.690857 182.928848,390.566650 173.782333,375.833649 
	C172.710327,374.106873 171.953125,372.123962 172.445129,370.118225 
	C174.288345,362.604034 177.617249,355.690277 182.024841,349.398773 
	C184.207184,346.283600 185.521423,349.137634 186.899597,351.207520 
z"/>
</svg>