<svg version="1.1" id="Layer_1" xmlns="http://www.w3.org/2000/svg" xmlns:xlink="http://www.w3.org/1999/xlink" x="0px" y="0px"
	 width="100%" viewBox="0 0 336 592" enable-background="new 0 0 336 592" xml:space="preserve">
<path fill="#000000" opacity="1.000000" stroke="none" 
	d="
M68.788277,462.205200 
	C84.339218,470.074982 100.559387,470.073181 116.934067,468.380798 
	C129.194138,467.113770 141.306534,464.967346 152.946793,460.723053 
	C171.633316,453.909607 181.492081,440.784729 182.911407,420.707550 
	C184.034332,404.823303 182.288589,389.843506 173.885941,376.036896 
	C172.916885,374.444611 172.037048,372.622559 172.420181,370.836060 
	C174.247772,362.314240 178.129532,354.771576 183.486450,347.396790 
	C187.658417,351.117188 189.639709,355.323029 190.966614,359.698975 
	C192.035553,363.224243 194.061798,363.948669 197.283905,363.646790 
	C215.037186,361.983246 235.067169,343.816284 238.564194,326.112732 
	C238.692917,325.461182 238.609451,324.750519 238.822403,324.135834 
	C239.550888,322.032928 239.488464,319.007996 242.582169,319.008331 
	C245.352386,319.008667 245.593567,321.802246 246.196320,323.771973 
	C250.037064,336.322662 259.530121,344.281067 272.365997,345.581085 
	C274.235443,345.770386 275.987000,345.485046 277.692474,344.640137 
	C281.947418,342.532196 282.690186,340.338776 278.799011,337.819794 
	C271.592163,333.154388 271.783325,327.438232 274.497284,320.600159 
	C275.967285,316.896362 276.968201,313.009003 278.327515,309.257629 
	C278.989197,307.431610 279.525543,305.149841 282.004059,305.038147 
	C284.231995,304.937836 285.674988,306.576843 286.695953,308.316223 
	C290.794891,315.299591 293.998932,322.634613 293.233185,330.966522 
	C292.064117,343.686432 289.531036,356.082336 281.435577,366.448822 
	C273.343750,376.810669 260.615387,378.469513 249.521439,371.175690 
	C244.617111,367.951324 240.857452,363.475098 236.397736,359.282806 
	C231.449219,364.497864 228.192749,370.550537 223.525635,375.502655 
	C216.874619,382.559845 209.794083,388.696655 199.723648,389.913330 
	C196.102127,390.350922 196.286575,392.778717 196.267059,395.353668 
	C196.151352,410.616516 193.530319,425.463165 188.591187,439.886871 
	C180.289719,464.129639 163.937729,480.661652 139.999069,489.477051 
	C119.052460,497.190643 97.352554,500.013916 75.270332,496.248596 
	C54.195518,492.655029 37.395329,472.924530 35.587269,451.656158 
	C33.558189,427.787964 43.121826,407.879791 56.186180,389.081940 
	C57.423489,387.301636 59.057297,384.719391 61.825367,386.566162 
	C64.605110,388.420746 63.257496,391.055634 62.092838,393.245361 
	C58.965794,399.124573 55.723560,404.926849 53.172073,411.107971 
	C49.587849,419.791016 48.336372,428.812195 49.412594,438.027161 
	C50.787758,449.801727 58.736652,456.702881 68.788277,462.205200 
z"/>
<path fill="#000000" opacity="1.000000" stroke="none" 
	d="
M243.167389,247.844376 
	C248.950592,251.230759 253.938599,255.112350 258.800385,259.182587 
	C261.263397,261.244598 261.747467,263.461273 259.994781,266.162323 
	C256.732147,271.190247 253.503815,276.240662 250.210632,281.248474 
	C248.297165,284.158203 246.033203,284.672974 243.122910,282.386627 
	C239.327026,279.404541 235.163895,276.864777 231.533890,273.703949 
	C228.003433,270.629761 225.580948,270.302612 223.071426,274.815491 
	C221.221008,278.143066 218.686340,281.088684 216.474960,284.217468 
	C214.266632,287.341949 211.707397,288.117615 208.454071,285.656616 
	C204.336792,282.542114 200.146881,279.523651 195.991089,276.459961 
	C192.987946,274.246002 192.095596,271.725494 194.437836,268.375488 
	C197.681381,263.736450 200.833542,259.026764 203.845840,254.234833 
	C206.244034,250.419830 208.931702,250.592255 212.116394,253.087280 
	C216.826218,256.777191 221.573105,260.419769 226.958099,264.588715 
	C230.313202,260.090637 233.588135,255.586609 236.995651,251.185211 
	C238.445221,249.312836 239.524384,246.554718 243.167389,247.844376 
z"/>
<path fill="#000000" opacity="1.000000" stroke="none" 
	d="
M229.267090,215.673065 
	C242.495193,226.048172 240.866348,223.457809 233.132416,236.560196 
	C226.011353,248.624298 225.434433,248.595551 214.160812,240.106461 
	C201.668945,230.700058 202.917999,232.382538 210.859879,219.999054 
	C211.758530,218.597809 212.728989,217.239838 213.715958,215.898438 
	C219.220367,208.417374 219.333649,208.404831 226.975922,213.965073 
	C227.649521,214.455139 228.309982,214.963287 229.267090,215.673065 
z"/>
</svg>