<svg version="1.1" id="Layer_1" xmlns="http://www.w3.org/2000/svg" xmlns:xlink="http://www.w3.org/1999/xlink" x="0px" y="0px"
	 width="100%" viewBox="0 0 336 592" enable-background="new 0 0 336 592" xml:space="preserve">
<path fill="#000000" opacity="1.000000" stroke="none" 
	d="
M16.596317,474.286316 
	C7.487090,459.876160 6.203526,444.557678 10.129225,428.821289 
	C13.536386,415.163452 19.383402,402.446136 27.722458,390.986084 
	C28.407915,390.044098 29.091202,389.087280 29.885832,388.240936 
	C31.272228,386.764130 32.815887,385.077271 34.993176,386.622620 
	C37.010315,388.054291 36.477383,390.211609 35.600861,392.062164 
	C34.247841,394.918701 32.661648,397.664062 31.201422,400.470642 
	C26.408484,409.682770 22.805210,419.120270 22.069088,429.754517 
	C20.981911,445.460175 28.691229,455.434937 41.687519,462.091187 
	C53.004173,467.887238 65.168602,469.811859 77.960175,469.126495 
	C93.325089,468.303223 108.447823,466.455963 123.109421,461.689850 
	C144.738464,454.658752 154.120956,442.241486 155.904831,419.708893 
	C157.134247,404.179932 155.170837,389.510498 146.876312,376.043976 
	C145.898422,374.456360 144.978439,372.600464 145.388504,370.851410 
	C147.371338,362.393646 151.005157,354.701233 156.426498,347.419128 
	C160.453949,350.709229 162.355698,354.573822 163.558411,358.657471 
	C164.805603,362.892303 167.540741,364.428650 171.590103,364.595093 
	C178.579483,364.882385 185.580368,365.058655 192.548523,365.624756 
	C196.225784,365.923523 197.874207,363.913727 199.638763,361.284882 
	C214.537033,339.089294 232.413116,319.663361 254.302063,304.218353 
	C268.334900,294.316681 283.360168,286.550873 301.238068,286.658783 
	C313.298798,286.731598 322.490540,292.641357 326.908966,303.882904 
	C333.768555,321.335327 331.041718,337.111908 318.046539,350.957275 
	C305.670319,364.143158 289.781982,371.303986 273.183594,377.117249 
	C249.622391,385.369141 225.191864,389.371704 200.345840,390.876068 
	C196.292725,391.121460 194.471313,392.886475 193.272705,396.444672 
	C190.625732,404.302551 187.959030,412.151550 185.871231,420.499023 
	C181.293976,419.558655 180.609848,415.946472 179.594788,412.798065 
	C178.388153,409.055420 180.333359,405.653412 181.176651,402.131073 
	C181.981552,398.769135 183.764816,395.645905 183.796661,391.725708 
	C179.953552,391.301208 176.216431,390.780884 172.461365,390.503845 
	C168.698700,390.226196 169.308044,393.134674 169.285507,395.361755 
	C169.141312,409.614502 166.630753,423.525238 162.649887,437.125214 
	C155.220856,462.505249 138.877014,479.973389 114.176666,489.217773 
	C93.116234,497.099915 71.241882,499.885193 48.954742,496.326691 
	C35.126602,494.118774 24.475174,486.338623 16.596317,474.286316 
M226.183517,363.612000 
	C233.876297,362.293030 241.641006,361.295288 249.247849,359.592377 
	C268.772522,355.221313 287.944733,349.681854 305.619965,339.994568 
	C314.967834,334.871307 315.024567,330.754608 306.210419,324.539368 
	C295.825836,317.216736 284.350250,317.273865 272.682587,319.920227 
	C250.239548,325.010559 232.222321,337.280396 217.630341,354.811005 
	C215.362717,357.535248 212.553391,360.030121 211.764160,364.003448 
	C216.515259,365.635956 220.878372,363.547577 226.183517,363.612000 
z"/>
</svg>