<svg version="1.1" id="Layer_1" xmlns="http://www.w3.org/2000/svg" xmlns:xlink="http://www.w3.org/1999/xlink" x="0px" y="0px"
	 width="100%" viewBox="0 0 336 592" enable-background="new 0 0 336 592" xml:space="preserve">
<path fill="#000000" opacity="1.000000" stroke="none" 
	d="
M151.301117,284.565063 
	C148.521088,256.929108 142.503723,230.327240 137.212189,203.594208 
	C134.883331,191.828751 138.697678,181.209229 144.336212,171.144867 
	C146.121323,167.958588 148.866379,167.740356 151.196289,170.676453 
	C156.384735,177.214798 160.850052,184.241806 164.680725,191.664337 
	C165.640121,193.523315 165.440079,195.246582 163.862793,196.647186 
	C154.126038,205.293335 154.980988,216.324341 156.786301,227.614594 
	C160.960556,253.719833 165.653336,279.782806 164.256668,306.412170 
	C163.752579,316.023132 163.082855,325.625366 162.456039,335.759827 
	C165.060211,334.541595 166.559708,332.572968 168.282730,330.922119 
	C184.811371,315.085754 201.876923,299.971039 223.017166,290.368500 
	C234.234787,285.273102 245.786865,283.606537 257.355621,288.734985 
	C269.968048,294.326080 276.548462,310.108032 273.852234,326.228729 
	C271.294952,341.518616 261.942596,351.989960 249.776276,360.312866 
	C230.174469,373.722290 207.889465,380.308105 184.960159,385.223053 
	C160.121109,390.547333 134.936829,392.303070 109.634445,393.256561 
	C97.932320,393.697510 87.647873,391.062653 79.087082,382.553131 
	C74.492905,377.986481 69.094414,374.243958 64.730072,369.397797 
	C63.494038,368.025269 62.191181,366.449402 63.020851,364.489777 
	C63.902828,362.406555 66.021378,362.755615 67.826714,362.709961 
	C74.855812,362.532013 81.729012,363.962921 88.649513,364.833221 
	C101.472031,366.445679 114.205025,366.098083 126.890930,363.663483 
	C132.876450,362.514801 138.306229,360.111206 143.231018,356.537018 
	C145.722443,354.728882 147.653564,352.539856 148.433762,349.451813 
	C150.635788,340.736023 152.517746,331.974365 152.724823,322.935303 
	C153.015015,310.269409 152.331741,297.638763 151.301117,284.565063 
M234.202118,346.672485 
	C240.798889,343.498444 247.400146,340.337219 253.138458,335.678619 
	C257.819611,331.878296 257.910980,329.620239 252.967697,326.019257 
	C245.002213,320.216675 235.888885,317.821045 226.153381,318.458557 
	C205.873703,319.786560 188.002380,327.006836 173.291916,341.274414 
	C166.772339,347.597717 160.751938,354.373840 156.317612,362.586975 
	C166.241074,365.090027 210.233307,357.769257 234.202118,346.672485 
z"/>
</svg>