<svg version="1.1" id="Layer_1" xmlns="http://www.w3.org/2000/svg" xmlns:xlink="http://www.w3.org/1999/xlink" x="0px" y="0px"
	 width="100%" viewBox="0 0 336 592" enable-background="new 0 0 336 592" xml:space="preserve">
<path fill="#000000" opacity="1.000000" stroke="none" 
	d="
M144.083923,391.324310 
	C131.986084,391.961182 120.350906,392.565186 108.718262,393.214569 
	C97.554306,393.837769 87.750427,390.955658 79.541809,382.921021 
	C74.791847,378.271759 69.285568,374.406403 64.792091,369.453522 
	C63.558216,368.093445 62.223797,366.550354 63.001938,364.563568 
	C63.840279,362.423004 65.953278,362.759552 67.753906,362.712341 
	C74.782806,362.528076 81.656517,363.958344 88.577705,364.825745 
	C101.397797,366.432312 114.129929,366.109467 126.818604,363.675964 
	C132.806976,362.527466 138.229706,360.128510 143.175415,356.586945 
	C145.837738,354.680511 147.776993,352.306763 148.563034,349.048218 
	C150.787872,339.825226 152.613861,330.579041 152.775208,321.012848 
	C153.360199,286.328278 147.437637,252.465851 140.221329,218.750366 
	C139.108582,213.551498 137.933731,208.357803 137.072128,203.114960 
	C135.164963,191.510025 138.754822,181.048080 144.335220,171.144135 
	C146.126709,167.964645 148.865906,167.735474 151.195770,170.676163 
	C156.378738,177.218002 160.854675,184.238235 164.682312,191.662613 
	C165.639496,193.519211 165.439774,195.246353 163.865417,196.648636 
	C154.151535,205.300781 154.992142,216.319260 156.793961,227.614868 
	C160.958115,253.720016 165.663193,279.781952 164.258148,306.411285 
	C163.751038,316.022369 163.083557,325.625000 162.422791,336.306091 
	C165.249893,333.684082 167.494568,331.632935 169.705902,329.546478 
	C185.863770,314.300903 202.472733,299.667450 223.001465,290.373260 
	C234.226395,285.291260 245.769241,283.607452 257.339935,288.732056 
	C269.965698,294.323914 276.543762,310.084564 273.852661,326.213104 
	C271.300964,341.506134 261.951416,351.977448 249.785812,360.301025 
	C230.185410,373.711304 207.915573,380.365143 184.971024,385.208801 
	C171.610245,388.029297 158.116882,389.905182 144.083923,391.324310 
M172.950531,362.394135 
	C185.004471,360.872742 196.975601,358.879791 208.677094,355.557861 
	C224.432083,351.085205 239.854324,345.794373 253.084839,335.689453 
	C257.910919,332.003510 257.903229,329.669556 253.003021,326.029327 
	C246.096985,320.898987 238.127899,318.319000 229.638855,318.453156 
	C202.404755,318.883514 180.608612,330.467377 163.788040,351.661407 
	C161.066315,355.090820 157.951477,358.352081 156.431381,363.154175 
	C161.969162,364.424713 166.988754,362.248444 172.950531,362.394135 
z"/>
<path fill="#000000" opacity="1.000000" stroke="none" 
	d="
M208.763794,254.288361 
	C199.255753,247.198654 199.220566,247.175705 205.392197,237.717453 
	C207.571396,234.377808 209.950989,231.167862 212.271973,227.922211 
	C214.113937,225.346420 216.336502,224.734970 219.140518,226.535706 
	C224.048645,229.687653 228.757233,233.094955 233.211639,236.866013 
	C235.489029,238.794037 235.889969,240.967575 234.425095,243.492081 
	C231.336578,248.814774 228.241882,254.119095 224.226578,258.848480 
	C221.939606,261.542175 219.669083,261.824432 216.879211,259.854309 
	C214.297699,258.031342 211.670532,256.273010 208.763794,254.288361 
z"/>
</svg>