<svg version="1.1" id="Layer_1" xmlns="http://www.w3.org/2000/svg" xmlns:xlink="http://www.w3.org/1999/xlink" x="0px" y="0px"
	 width="100%" viewBox="0 0 336 592" enable-background="new 0 0 336 592" xml:space="preserve">
<path fill="#000000" opacity="1.000000" stroke="none" 
	d="
M129.879303,256.573914 
	C144.688431,251.762558 155.815216,258.186829 166.172180,267.115540 
	C167.434555,268.203857 168.721756,269.659149 167.811615,271.451752 
	C166.720978,273.599854 164.439453,273.218475 162.471405,273.303192 
	C145.004333,274.055328 129.247787,279.634155 115.227417,290.076263 
	C110.716965,293.435577 107.496231,297.841980 105.156258,302.915802 
	C103.254578,307.039246 103.708885,310.704346 107.422813,313.628906 
	C117.340874,321.438995 128.588242,326.115509 141.114517,327.571075 
	C146.048050,328.144379 150.684616,326.850922 155.024963,324.440948 
	C171.624466,315.224243 188.222229,306.004181 204.863892,296.864105 
	C206.463120,295.985779 208.258850,293.861053 210.195496,295.786041 
	C212.160904,297.739624 209.875732,299.392395 209.097000,301.081573 
	C208.751877,301.830200 208.166687,302.464142 207.765106,303.191315 
	C199.291656,318.535553 187.802353,330.132721 171.736267,338.345703 
	C151.399765,348.741669 133.034897,362.547821 117.439568,379.526337 
	C102.218117,396.097809 92.552200,415.118103 92.274376,438.224670 
	C91.943779,465.719513 104.524765,485.607544 127.777534,499.240021 
	C147.427139,510.760132 169.138931,515.384827 191.487885,517.708496 
	C204.744507,519.086731 218.029221,519.828918 231.336670,518.747559 
	C244.260117,517.697327 257.160370,516.363953 270.076996,515.225281 
	C273.554108,514.918701 277.052521,514.830566 280.543579,514.716003 
	C282.291321,514.658630 283.994659,514.974487 284.402588,517.061462 
	C284.826843,519.232117 283.130188,519.927856 281.585754,520.577515 
	C277.444153,522.319763 273.328247,524.139648 269.114868,525.691833 
	C252.249237,531.905090 235.165466,537.475281 218.108154,543.137207 
	C207.259430,546.738220 196.341568,545.808960 185.471268,545.115723 
	C166.163574,543.884460 147.132797,540.804688 129.060959,533.358276 
	C105.253365,523.548462 87.845978,507.564301 81.349327,481.966461 
	C76.106789,461.310059 77.973503,440.685638 84.326195,420.465118 
	C92.424675,394.687897 105.225677,371.557892 123.579529,351.608551 
	C124.002243,351.149078 124.322601,350.595459 124.897575,349.799286 
	C114.895164,347.249695 105.571266,343.929230 97.850769,337.213654 
	C91.104675,331.345673 88.236153,324.138275 90.483292,315.337158 
	C94.989189,297.689575 102.686485,281.566742 114.211136,267.400757 
	C118.248672,262.437866 123.036789,258.310760 129.879303,256.573914 
z"/>
<path fill="#000000" opacity="1.000000" stroke="none" 
	d="
M132.829010,200.891357 
	C137.687210,204.433258 142.203583,207.815247 146.749695,211.156799 
	C149.548187,213.213776 149.782288,215.622238 148.064789,218.514221 
	C145.094757,223.515259 142.045441,228.451111 138.462830,233.052658 
	C136.283676,235.851608 134.058380,236.792252 130.899033,234.432190 
	C126.513626,231.156281 121.966393,228.097549 117.504272,224.923584 
	C114.567406,222.834549 114.073280,220.332016 116.014107,217.196289 
	C119.163452,212.108017 122.376244,207.077286 126.136734,202.406342 
	C127.892006,200.226105 129.759933,198.958969 132.829010,200.891357 
z"/>
</svg>