<svg version="1.1" id="Layer_1" xmlns="http://www.w3.org/2000/svg" xmlns:xlink="http://www.w3.org/1999/xlink" x="0px" y="0px"
	 width="100%" viewBox="0 0 336 592" enable-background="new 0 0 336 592" xml:space="preserve">
<path fill="#000000" opacity="1.000000" stroke="none" 
	d="
M337.000000,178.562500 
	C333.377594,182.093231 332.090179,186.498291 330.854767,190.763504 
	C329.222595,196.398544 325.983154,199.562332 320.242371,201.409836 
	C283.936493,213.093872 248.029663,225.892334 213.104004,241.302551 
	C205.476669,244.667923 197.973160,248.290085 190.881088,252.682220 
	C188.348099,254.250916 186.004852,256.154907 183.702209,258.059601 
	C180.524307,260.688324 181.100983,263.306152 184.371979,265.215820 
	C189.257904,268.068329 194.258438,270.739532 199.309555,273.291260 
	C217.290314,282.374756 232.865829,294.254730 244.467407,311.014496 
	C253.759369,324.437744 258.086945,339.229431 256.148468,355.378296 
	C254.251160,371.184052 242.828598,379.307190 229.509247,385.135223 
	C214.249878,391.812073 197.948502,394.494751 181.542343,396.177887 
	C156.174881,398.780334 130.699860,399.661407 105.206337,399.210846 
	C89.064301,398.925568 73.008354,397.796234 57.249405,393.615051 
	C29.321283,386.205200 21.822147,366.117432 24.001261,341.557556 
	C25.039480,329.856232 28.225809,318.328613 32.056313,307.134949 
	C32.921951,304.605316 33.368950,300.047333 37.322796,301.254974 
	C40.952812,302.363678 39.359554,306.346252 38.732204,309.116821 
	C36.849651,317.430664 35.050396,325.788116 36.675896,334.302551 
	C39.436066,348.760468 49.235584,356.833191 62.379429,361.674133 
	C75.510078,366.510193 89.250633,368.334503 103.054756,368.522247 
	C133.545410,368.937073 164.048019,368.869202 194.540726,368.537628 
	C206.328568,368.409485 218.156052,367.435913 229.496353,363.558411 
	C234.102402,361.983459 238.509689,360.064514 242.270081,356.904694 
	C247.161545,352.794373 247.909454,349.485168 245.045227,343.720917 
	C242.649887,338.900177 239.089447,334.898590 235.516907,330.933228 
	C222.843201,316.866058 208.024658,305.791870 190.435242,298.552185 
	C188.135651,297.605682 185.977539,296.311035 183.768036,295.150726 
	C175.320816,290.714569 171.225113,283.661774 170.833786,274.180481 
	C170.550797,267.323639 171.136353,260.529724 171.894119,253.752991 
	C172.396255,249.262543 174.821564,245.827789 178.458649,242.994766 
	C194.072571,230.832611 211.504761,221.751205 229.069824,212.910873 
	C262.207275,196.233124 297.368713,184.725571 332.350250,172.773972 
	C333.599335,172.347198 334.931030,172.162140 336.612122,171.932220 
	C337.000000,174.041672 337.000000,176.083328 337.000000,178.562500 
z"/>
<path fill="#000000" opacity="1.000000" stroke="none" 
	d="
M191.966034,421.862549 
	C194.252869,418.341919 196.777313,418.117157 199.743698,420.349121 
	C204.129852,423.649323 208.557297,426.894684 212.940994,430.198120 
	C215.588409,432.193176 216.222687,434.596558 214.478241,437.595306 
	C211.463470,442.777618 208.364334,447.894348 204.737228,452.683624 
	C202.635162,455.459167 200.386490,455.971832 197.525589,453.779846 
	C193.166870,450.440186 188.662476,447.288544 184.346481,443.896088 
	C181.948090,442.010864 180.328735,442.296234 178.655762,444.810791 
	C176.168304,448.549591 173.436493,452.124847 170.863617,455.808105 
	C168.761627,458.817291 166.280914,459.454803 163.249634,457.215973 
	C158.835480,453.955841 154.425247,450.690338 150.023483,447.413513 
	C147.257553,445.354431 146.912979,442.847137 148.782242,440.019867 
	C151.992706,435.163971 155.254898,430.342224 158.457245,425.481018 
	C160.543686,422.313751 163.101364,421.944916 166.054031,424.158783 
	C171.084396,427.930389 176.070953,431.760406 181.537903,435.917145 
	C185.064789,431.162354 188.404099,426.660400 191.966034,421.862549 
z"/>
<path fill="#000000" opacity="1.000000" stroke="none" 
	d="
M199.640030,479.536133 
	C196.763351,484.653015 193.687119,489.195099 190.393753,493.604767 
	C187.900085,496.943604 185.244766,498.026154 181.573410,495.222168 
	C177.475647,492.092499 173.179077,489.224457 169.006332,486.191223 
	C165.954346,483.972626 165.351562,481.424927 167.574432,478.068970 
	C170.791351,473.212372 173.802353,468.235352 177.451874,463.661133 
	C179.761002,460.766937 182.073318,460.187622 185.116852,462.348572 
	C189.732956,465.626099 194.427750,468.787354 198.586197,472.670624 
	C200.661652,474.608765 201.597534,476.621704 199.640030,479.536133 
z"/>
</svg>