<svg version="1.1" id="Layer_1" xmlns="http://www.w3.org/2000/svg" xmlns:xlink="http://www.w3.org/1999/xlink" x="0px" y="0px"
	 width="100%" viewBox="0 0 336 592" enable-background="new 0 0 336 592" xml:space="preserve">
<path fill="#000000" opacity="1.000000" stroke="none" 
	d="
M110.860062,441.384033 
	C92.764900,436.984131 77.694519,428.785858 69.142494,411.868744 
	C62.123318,397.983856 62.167789,383.255463 65.922585,368.516724 
	C71.654808,346.015900 82.187126,325.629364 94.232773,305.954163 
	C95.381142,304.078430 96.820358,302.697571 99.119469,303.845398 
	C101.810272,305.188782 101.030510,307.420135 100.089638,309.443024 
	C94.543526,321.366852 88.705284,333.152740 84.667870,345.731171 
	C81.354523,356.053741 79.724274,366.611572 81.881996,377.219330 
	C85.574738,395.373566 98.913460,404.296844 115.225754,409.600159 
	C133.704178,415.607758 152.564285,415.666168 171.396484,411.565674 
	C196.543167,406.090302 220.862045,398.153503 243.484802,385.620300 
	C246.016251,384.217804 249.827774,383.009369 249.491287,379.658600 
	C249.109909,375.860901 244.971283,375.887207 241.979462,375.149689 
	C230.332642,372.278625 218.342545,371.482452 206.571091,369.350952 
	C202.133469,368.547394 197.781845,367.450714 193.610168,365.779572 
	C178.944168,359.904419 173.738297,349.663635 177.435516,334.316681 
	C180.883636,320.003693 188.713165,308.023926 197.990967,297.022400 
	C211.569870,280.920624 227.256683,267.323425 247.458328,260.093170 
	C255.473694,257.224396 263.823730,255.612839 272.341583,258.639221 
	C275.454468,259.745239 277.118378,261.602020 276.424164,265.016174 
	C274.643555,273.772949 272.831940,282.523407 271.128906,290.808350 
	C269.579865,291.547729 268.767975,291.362366 268.129547,290.765472 
	C260.481201,283.615204 251.368713,283.777130 242.328400,286.464752 
	C225.512009,291.464111 211.009567,300.261688 200.272385,314.537933 
	C197.736801,317.909271 195.917892,321.609528 194.839630,325.691437 
	C192.786270,333.464691 194.334320,337.152863 201.269165,341.011688 
	C210.309326,346.041962 220.293442,347.947815 230.305252,349.633972 
	C237.513428,350.847992 244.788635,351.669983 252.040176,352.619232 
	C261.803955,353.897400 265.303101,358.203979 266.374359,367.954651 
	C268.204346,384.611389 259.933105,396.256042 247.805191,405.483032 
	C218.624603,427.683929 185.673630,440.422668 148.987259,443.476746 
	C136.262634,444.536011 123.737030,444.167297 110.860062,441.384033 
z"/>
<path fill="#000000" opacity="1.000000" stroke="none" 
	d="
M138.700699,245.617981 
	C134.782913,251.254745 131.097397,256.647736 125.200409,259.868408 
	C119.741432,262.849884 118.003273,261.593567 117.578194,255.455017 
	C117.154732,249.339951 118.652596,245.357086 124.454559,241.754608 
	C136.044266,234.558456 140.739090,222.450668 143.608551,209.633942 
	C144.320190,206.455399 144.275864,206.445480 146.282074,204.131302 
	C148.739059,204.603729 148.454636,206.889526 148.861572,208.469727 
	C152.539307,222.750549 160.762268,233.537506 173.389008,241.075760 
	C178.047104,243.856689 180.243073,255.027878 177.247818,259.651398 
	C176.105576,261.414581 174.712906,260.833679 173.302536,260.420868 
	C168.993744,259.159760 165.759857,256.346588 162.760391,253.145355 
	C156.349838,246.303604 151.485947,238.421722 147.031189,229.393799 
	C144.238602,235.163895 142.208694,240.586227 138.700699,245.617981 
z"/>
</svg>