<svg version="1.1" id="Layer_1" xmlns="http://www.w3.org/2000/svg" xmlns:xlink="http://www.w3.org/1999/xlink" x="0px" y="0px"
	 width="100%" viewBox="0 0 336 592" enable-background="new 0 0 336 592" xml:space="preserve">
<path fill="#000000" opacity="1.000000" stroke="none" 
	d="
M201.248444,313.246857 
	C197.924301,317.335907 195.760818,321.630371 194.626740,326.395081 
	C192.895309,333.669525 194.535721,337.224060 201.030655,340.889557 
	C210.045975,345.977509 220.033157,347.892517 230.037201,349.604828 
	C237.404770,350.865845 244.851303,351.671448 252.268372,352.636017 
	C261.670197,353.858704 265.249298,358.193207 266.356079,367.687653 
	C268.294067,384.312408 260.149750,396.055908 248.017868,405.319122 
	C218.875488,427.570435 185.932785,440.329926 149.260330,443.450409 
	C132.624405,444.865967 116.296356,444.144440 100.537758,438.318726 
	C70.236763,427.116974 59.085266,402.009308 65.107376,372.538818 
	C70.009560,348.548859 81.392517,327.232910 93.903252,306.481689 
	C95.057594,304.567017 96.360374,302.557617 99.008942,303.811798 
	C102.036995,305.245758 100.913200,307.664612 99.920250,309.797455 
	C94.440353,321.568024 88.733086,333.224701 84.694244,345.624847 
	C81.599442,355.126587 80.203484,364.822357 81.437576,374.665924 
	C83.247818,389.105011 91.808525,398.920563 104.524040,405.157837 
	C123.567421,414.499115 143.727097,416.202698 164.387711,412.683929 
	C192.153824,407.954987 218.572418,399.122681 243.371811,385.677368 
	C246.042435,384.229492 250.142838,382.907990 249.692703,379.457153 
	C249.236053,375.956268 244.993454,375.873474 241.965790,375.135712 
	C230.312393,372.296051 218.329025,371.466125 206.556274,369.345032 
	C202.118622,368.545502 197.767776,367.445129 193.596771,365.769684 
	C178.948624,359.885559 173.743835,349.633667 177.446838,334.286102 
	C180.899475,319.976074 188.733109,307.998199 198.013657,297.000732 
	C211.596252,280.905334 227.274277,267.297546 247.484955,260.084076 
	C255.501953,257.222687 263.851654,255.613464 272.367432,258.646606 
	C275.490509,259.758972 277.114563,261.639801 276.421692,265.041443 
	C274.638458,273.796173 272.825470,282.544861 271.117249,290.844727 
	C269.554840,291.536743 268.745087,291.345947 268.106750,290.748871 
	C260.625488,283.751312 251.711807,283.809296 242.788040,286.357788 
	C226.409912,291.035126 212.306564,299.542358 201.248444,313.246857 
z"/>
<path fill="#000000" opacity="1.000000" stroke="none" 
	d="
M164.092529,254.271011 
	C159.222748,250.714828 154.626190,247.415833 150.161911,243.946594 
	C147.791794,242.104736 146.075089,242.330154 144.391602,244.801544 
	C141.863907,248.512314 139.134995,252.086288 136.618011,255.803986 
	C134.697113,258.641205 132.538971,259.438934 129.497299,257.460022 
	C124.612457,254.281921 119.808250,251.015121 115.429100,247.144394 
	C113.236130,245.206055 112.587730,243.079086 114.246689,240.558456 
	C117.629410,235.418716 121.054077,230.306335 124.493515,225.204300 
	C126.502899,222.223587 129.026901,222.113861 131.747513,224.152542 
	C136.780655,227.924042 141.769241,231.755020 147.332382,235.983871 
	C150.738754,231.415970 153.932770,227.040421 157.225937,222.740799 
	C161.080261,217.708542 161.540894,217.606491 166.847992,221.371246 
	C170.913498,224.255234 174.812622,227.373428 178.793671,230.376953 
	C181.522278,232.435547 181.866592,234.865280 180.159058,237.786331 
	C177.135544,242.958572 174.102890,248.115067 170.350204,252.813629 
	C168.732452,254.839111 167.009048,256.110138 164.092529,254.271011 
z"/>
</svg>