<svg version="1.1" id="Layer_1" xmlns="http://www.w3.org/2000/svg" xmlns:xlink="http://www.w3.org/1999/xlink" x="0px" y="0px"
	 width="100%" viewBox="0 0 336 592" enable-background="new 0 0 336 592" xml:space="preserve">
<path fill="#000000" opacity="1.000000" stroke="none" 
	d="
M148.716507,414.463013 
	C180.015518,412.191956 208.703690,402.342468 236.501511,389.452728 
	C240.257751,387.710999 243.867416,385.528351 247.245895,383.128815 
	C251.307373,380.244263 250.924606,378.032043 246.131027,376.300446 
	C239.842514,374.028778 233.176025,373.389526 226.617676,372.330170 
	C216.779510,370.740936 206.737350,370.185669 197.200592,367.054352 
	C187.154922,363.755920 178.281570,358.922241 176.760635,347.002472 
	C175.838318,339.774139 176.939240,332.637024 180.017761,326.021027 
	C194.224960,295.488525 216.264908,272.798004 247.706177,260.053955 
	C255.395004,256.937408 263.747101,255.611664 272.096863,258.578278 
	C274.633514,259.479523 276.908783,260.693695 276.500885,263.773621 
	C275.263611,273.116302 273.026794,282.246857 270.850281,290.981720 
	C269.269348,291.575378 268.512878,291.158966 267.907410,290.595947 
	C260.544617,283.749084 251.773575,283.817139 243.024765,286.303955 
	C225.773102,291.207672 211.042847,300.204376 200.093155,314.768219 
	C197.446564,318.288391 195.623108,322.196442 194.617950,326.449799 
	C192.899933,333.719757 194.545380,337.238617 201.083160,340.917816 
	C210.105377,345.995148 220.094009,347.911804 230.103699,349.613129 
	C237.475021,350.865997 244.922897,351.673340 252.341431,352.642670 
	C261.346954,353.819336 265.146515,357.844788 266.246857,366.778748 
	C267.857330,379.854370 263.580322,390.654388 254.247604,399.703827 
	C241.490509,412.073730 226.241013,420.547943 210.219925,427.745911 
	C187.004028,438.176331 162.652618,443.835052 137.169144,444.133881 
	C124.619034,444.281097 112.247063,442.758240 100.397430,438.305450 
	C70.272148,426.985168 59.044754,401.948975 65.144325,372.386963 
	C70.094620,348.394958 81.498604,327.094482 93.996887,306.332764 
	C95.184090,304.360596 96.591255,302.555023 99.173813,303.886627 
	C101.828163,305.255249 100.974129,307.511322 100.042763,309.523468 
	C94.588104,321.307922 88.848289,332.950958 84.791573,345.351715 
	C81.628838,355.019714 80.167862,364.876678 81.459618,374.880615 
	C83.294861,389.093750 91.851616,398.642303 104.254417,405.086487 
	C118.063469,412.261322 133.038925,414.007141 148.716507,414.463013 
z"/>
<path fill="#000000" opacity="1.000000" stroke="none" 
	d="
M138.312531,254.264313 
	C133.429337,259.912994 133.178406,260.008240 127.583801,256.076660 
	C123.775833,253.400665 120.106064,250.526642 116.398750,247.709259 
	C113.772682,245.713608 112.955513,243.365707 114.965637,240.392822 
	C118.319130,235.433167 121.599792,230.424316 124.913406,225.437683 
	C126.877914,222.481308 129.285080,222.137146 132.078979,224.257538 
	C135.921082,227.173416 140.014236,229.824432 143.513840,233.107040 
	C146.994736,236.372086 148.943726,235.423660 151.210587,231.893356 
	C153.631577,228.123016 156.487625,224.632492 159.143188,221.012070 
	C160.826828,218.716721 162.773987,218.384033 165.139847,220.025757 
	C170.061691,223.441193 174.990631,226.835938 179.521851,230.780746 
	C181.930801,232.877899 182.356155,235.122574 180.625000,237.804596 
	C177.469513,242.693253 174.355927,247.609146 171.175522,252.481476 
	C168.994476,255.822815 166.417358,256.137482 163.246307,253.622131 
	C159.207062,250.418076 154.947296,247.492386 150.899750,244.298248 
	C148.235062,242.195374 146.363510,242.265594 144.521103,245.379578 
	C142.747635,248.377045 140.533997,251.114075 138.312531,254.264313 
z"/>
<path fill="#000000" opacity="1.000000" stroke="none" 
	d="
M140.909088,181.809540 
	C147.574921,184.701981 152.603378,189.310654 157.820831,193.659210 
	C159.794327,195.304047 160.104065,197.345596 158.945938,199.455353 
	C155.833176,205.125885 152.560257,210.696808 148.467346,215.754791 
	C146.545120,218.130249 144.558426,218.614105 142.085999,216.768066 
	C137.304565,213.198013 132.500732,209.657150 127.761429,206.031998 
	C126.409416,204.997803 125.047523,203.403900 125.846741,201.770874 
	C129.529160,194.246567 133.240677,186.679520 140.909088,181.809540 
z"/>
</svg>