<svg version="1.1" id="Layer_1" xmlns="http://www.w3.org/2000/svg" xmlns:xlink="http://www.w3.org/1999/xlink" x="0px" y="0px"
	 width="100%" viewBox="0 0 348 592" enable-background="new 0 0 348 592" xml:space="preserve">
<path fill="#FFFFFF" opacity="1.000000" stroke="none" 
	d="
M339.042267,593.000000 
	C226.035095,593.000000 113.536064,593.000000 1.018518,593.000000 
	C1.018518,395.680725 1.018518,198.361435 1.018518,1.021076 
	C116.984940,1.021076 232.969894,1.021076 348.977417,1.021076 
	C348.977417,198.316574 348.977417,395.633148 348.977417,593.000000 
	C345.850220,593.000000 342.700317,593.000000 339.042267,593.000000 
M194.059799,388.311066 
	C194.140335,382.868317 194.359711,377.422943 194.255936,371.983704 
	C194.177933,367.894592 191.520081,366.055023 187.695923,366.022217 
	C177.874252,365.937988 168.050461,365.922516 158.229416,366.038910 
	C154.684235,366.080902 152.036850,367.768616 151.869217,371.653015 
	C151.656143,376.590393 151.622681,381.543854 151.741776,386.484802 
	C151.851807,391.049805 154.763626,392.920624 158.970901,392.953644 
	C168.293640,393.026886 177.629181,393.233246 186.932449,392.801758 
	C189.301773,392.691895 191.569855,390.399536 194.059799,388.311066 
z"/>
<path fill="#020202" opacity="1.000000" stroke="none" 
	d="
M193.972137,388.710510 
	C191.569855,390.399536 189.301773,392.691895 186.932449,392.801758 
	C177.629181,393.233246 168.293640,393.026886 158.970901,392.953644 
	C154.763626,392.920624 151.851807,391.049805 151.741776,386.484802 
	C151.622681,381.543854 151.656143,376.590393 151.869217,371.653015 
	C152.036850,367.768616 154.684235,366.080902 158.229416,366.038910 
	C168.050461,365.922516 177.874252,365.937988 187.695923,366.022217 
	C191.520081,366.055023 194.177933,367.894592 194.255936,371.983704 
	C194.359711,377.422943 194.140335,382.868317 193.972137,388.710510 
z"/>
</svg>