<svg version="1.1" id="Layer_1" xmlns="http://www.w3.org/2000/svg" xmlns:xlink="http://www.w3.org/1999/xlink" x="0px" y="0px"
	 width="100%" viewBox="0 0 336 592" enable-background="new 0 0 336 592" xml:space="preserve">
<path fill="#000000" opacity="1.000000" stroke="none" 
	d="
M293.056519,250.032990 
	C305.621002,271.339233 310.970734,293.956207 308.346375,318.240509 
	C306.469513,335.607849 296.884949,347.817017 281.474182,355.367859 
	C247.927002,371.805176 212.564301,382.678284 175.845276,389.372467 
	C156.957123,392.816010 137.913254,394.578827 118.765526,394.837738 
	C99.783165,395.094452 81.206726,392.443237 64.075897,383.570709 
	C40.637486,371.431274 32.425026,350.620270 40.185875,323.561340 
	C43.013229,313.703522 47.449146,304.608582 53.568199,296.358398 
	C54.361233,295.289185 55.181507,294.230560 56.083122,293.253815 
	C57.360233,291.870209 58.783577,290.484894 60.795750,291.907623 
	C62.915607,293.406494 61.821045,295.227386 60.843868,296.742554 
	C56.559467,303.385773 53.127663,310.396576 51.879475,318.258911 
	C51.152279,322.839539 50.086655,327.434021 50.549480,332.123291 
	C51.361126,340.346863 55.791561,346.295013 62.468651,350.839172 
	C75.939308,360.006836 91.302170,364.167816 107.083237,365.480774 
	C167.579727,370.513947 224.382370,356.709900 278.423767,330.095123 
	C285.299194,326.709045 291.788177,322.619049 297.381744,317.240234 
	C300.277679,314.455505 301.069824,311.489288 299.159088,307.842804 
	C297.181366,304.068420 295.867096,299.914154 292.557495,296.197144 
	C288.139862,301.335297 284.111053,306.383972 279.262512,310.641327 
	C272.153229,316.883728 264.166290,317.986298 255.530472,314.555054 
	C247.188599,311.240601 242.048782,305.339996 240.504562,296.210724 
	C239.548935,290.561127 240.394699,285.233612 242.029419,279.996887 
	C245.984283,267.327728 251.876511,255.636978 260.348145,245.320633 
	C270.205627,233.316650 279.823334,233.310989 289.509247,245.371155 
	C290.656586,246.799759 291.742340,248.277817 293.056519,250.032990 
M257.808014,270.392242 
	C254.770355,273.956055 254.556305,277.417175 257.853943,281.045044 
	C262.943634,286.644440 271.854858,285.730347 275.717651,279.190918 
	C276.892151,277.202576 276.184753,275.778595 275.006653,274.230530 
	C271.629089,269.792328 264.046051,267.806366 257.808014,270.392242 
z"/>
<path fill="#000000" opacity="1.000000" stroke="none" 
	d="
M254.162292,206.855194 
	C247.619614,201.354721 247.534180,201.300140 251.878601,194.499374 
	C254.557999,190.305038 257.535583,186.300537 260.399017,182.224655 
	C262.265320,179.568115 264.515289,179.221649 267.257599,180.986130 
	C272.156555,184.138290 276.872833,187.519272 281.287537,191.330383 
	C283.519958,193.257599 284.005493,195.352036 282.526917,197.929794 
	C279.465118,203.267761 276.224945,208.479477 272.394470,213.316818 
	C270.252167,216.022186 268.010651,216.485748 265.138214,214.403366 
	C261.642456,211.869125 258.019745,209.510025 254.162292,206.855194 
z"/>
</svg>