<svg version="1.1" id="Layer_1" xmlns="http://www.w3.org/2000/svg" xmlns:xlink="http://www.w3.org/1999/xlink" x="0px" y="0px"
	 width="100%" viewBox="0 0 336 592" enable-background="new 0 0 336 592" xml:space="preserve">
<path fill="#000000" opacity="1.000000" stroke="none" 
	d="
M242.455215,320.032562 
	C233.117676,330.648407 222.086029,336.459290 207.854935,334.350647 
	C194.445267,332.363708 185.560974,320.056641 187.265091,306.494141 
	C189.497589,288.726410 195.462799,272.572632 207.263916,258.913116 
	C216.660034,248.037277 225.647171,247.578613 235.766937,257.748566 
	C249.328659,271.377563 255.912613,288.575989 259.071777,307.101868 
	C261.803741,323.122437 261.674774,339.207458 257.782349,355.143585 
	C251.853104,379.418793 236.612228,396.865601 216.263092,409.913544 
	C186.003906,429.315826 153.190750,434.426147 118.805428,423.204254 
	C93.572418,414.969330 82.731186,394.256195 85.389175,368.513031 
	C87.787735,345.282471 98.030212,324.898773 109.357513,304.990723 
	C110.503716,302.976257 111.729317,299.817352 114.951790,301.750702 
	C117.825760,303.474915 116.363350,306.202972 115.328720,308.423645 
	C109.840477,320.203186 104.015434,331.912689 101.922073,344.866150 
	C99.795120,358.027496 100.313110,370.999756 109.795151,381.654633 
	C118.061211,390.943146 129.185913,395.247498 141.156876,396.523529 
	C176.965851,400.340607 208.688721,389.737823 236.274124,367.156677 
	C252.075119,354.222107 254.950455,339.435822 246.497009,322.718109 
	C245.827133,321.393341 245.888840,318.132080 242.455215,320.032562 
M207.978455,286.331970 
	C203.650101,291.464935 204.659698,295.625977 210.850327,297.602020 
	C216.129837,299.287201 220.374054,296.990173 225.079346,293.821014 
	C220.135498,288.943787 216.241425,283.701233 207.978455,286.331970 
z"/>
<path fill="#000000" opacity="1.000000" stroke="none" 
	d="
M234.126617,221.909897 
	C231.047440,219.593445 228.157745,217.602966 225.503723,215.336502 
	C223.131897,213.311020 221.526855,213.712738 219.839447,216.166443 
	C217.105713,220.141708 214.160217,223.970612 211.367157,227.906052 
	C209.555939,230.458084 207.450226,230.723557 204.952591,229.004562 
	C200.155151,225.702728 195.236694,222.575043 190.875671,218.667252 
	C188.501892,216.540146 188.060516,214.254669 189.827332,211.608932 
	C193.061172,206.766373 196.453140,202.024124 199.539902,197.090347 
	C201.951706,193.235382 204.559357,193.437775 207.754944,195.941956 
	C212.578094,199.721512 217.468704,203.415009 222.673416,207.408066 
	C226.183228,202.682388 229.657761,198.253738 232.848511,193.629272 
	C235.402832,189.927139 238.113785,189.566803 241.584503,192.271255 
	C245.653397,195.441833 249.794037,198.522964 253.960938,201.564270 
	C256.897827,203.707809 257.486053,206.175690 255.488434,209.275925 
	C252.694641,213.611786 250.119720,218.097595 247.162766,222.317139 
	C243.298431,227.831543 242.258026,227.883423 236.832886,223.889420 
	C236.028732,223.297394 235.223419,222.706955 234.126617,221.909897 
z"/>
</svg>