<svg version="1.1" id="Layer_1" xmlns="http://www.w3.org/2000/svg" xmlns:xlink="http://www.w3.org/1999/xlink" x="0px" y="0px"
	 width="100%" viewBox="0 0 336 592" enable-background="new 0 0 336 592" xml:space="preserve">
<path fill="#000000" opacity="1.000000" stroke="none" 
	d="
M191.975464,395.311218 
	C173.495041,395.608032 155.511002,396.805908 137.524612,396.062378 
	C125.407600,395.561493 113.184952,396.024933 101.228584,393.402222 
	C91.676918,391.306946 88.206436,385.719025 89.301712,375.932983 
	C90.215782,367.766022 92.216774,359.924683 94.832993,352.194397 
	C95.480995,350.279724 96.211411,348.060699 98.831612,348.669708 
	C101.514297,349.293152 100.992020,351.444244 100.652184,353.529755 
	C99.876633,358.289154 102.534019,361.086823 106.560867,362.757111 
	C111.702026,364.889679 117.192238,365.470856 122.684502,365.638702 
	C147.508698,366.397614 172.345444,366.297150 197.157532,365.522858 
	C209.418716,365.140259 221.789856,364.516876 233.734192,361.115692 
	C242.831970,358.525055 244.480011,355.515686 243.131927,346.063629 
	C237.493347,306.529541 227.825638,267.787109 220.187286,228.646683 
	C217.545273,215.108475 214.347488,201.641968 213.225891,187.873917 
	C212.505096,179.025879 214.903793,170.659424 220.052109,163.343658 
	C223.214630,158.849716 225.045395,159.040054 228.206894,163.565475 
	C232.119019,169.165359 235.971359,174.807465 239.926605,180.376572 
	C241.376724,182.418381 242.424301,184.356689 240.546692,186.675171 
	C231.737152,197.553192 232.885925,209.759613 235.577072,222.301178 
	C241.153412,248.288574 247.430649,274.134399 251.718140,300.386505 
	C254.236893,315.808685 256.620575,331.241394 256.428558,346.957825 
	C256.372284,351.563019 255.719513,355.902313 253.700180,360.011780 
	C251.057755,365.389343 248.186203,370.660309 245.706635,376.110657 
	C240.725861,387.058807 232.264374,392.527466 220.344025,393.199646 
	C211.042526,393.724121 201.760376,394.591156 191.975464,395.311218 
z"/>
<path fill="#000000" opacity="1.000000" stroke="none" 
	d="
M150.251556,242.316986 
	C156.681152,233.513000 163.758377,226.015823 174.072861,221.539932 
	C176.828552,227.884644 177.131592,234.211807 178.116302,240.356537 
	C178.438248,242.365570 176.453400,242.997986 174.900040,243.639465 
	C170.272751,245.550354 165.734100,247.633789 161.653915,250.584579 
	C159.392105,252.220322 157.576904,254.123962 158.287186,257.247192 
	C158.942123,260.126984 161.205688,261.127563 163.751343,261.680573 
	C167.163345,262.421783 170.590866,263.091675 174.012192,263.789886 
	C183.891953,265.806183 187.422226,270.370056 187.364639,280.498657 
	C187.282074,295.022491 170.483765,318.388519 150.574768,316.297211 
	C139.676468,315.152466 129.662491,311.583588 119.989494,305.095490 
	C122.757500,302.891693 125.411575,303.041138 127.919334,302.714294 
	C137.978989,301.403168 148.066635,300.194763 157.807755,297.215698 
	C160.396744,296.423950 164.470779,296.008209 164.203400,292.731049 
	C163.897202,288.978149 159.672440,289.822784 156.877853,289.323547 
	C154.749741,288.943329 152.591446,288.733490 150.460968,288.364746 
	C139.783157,286.516663 135.984192,281.030487 137.972458,270.325684 
	C139.860397,260.160950 144.113281,251.019470 150.251556,242.316986 
z"/>
</svg>