<svg version="1.1" id="Layer_1" xmlns="http://www.w3.org/2000/svg" xmlns:xlink="http://www.w3.org/1999/xlink" x="0px" y="0px"
	 width="100%" viewBox="0 0 336 592" enable-background="new 0 0 336 592" xml:space="preserve">
<path fill="#000000" opacity="1.000000" stroke="none" 
	d="
M143.222427,328.200256 
	C139.790161,327.440277 140.011353,325.363678 140.709595,323.092621 
	C143.418854,314.280823 147.047729,305.910431 152.740295,298.572235 
	C162.874191,285.508698 180.553619,282.714294 194.168076,292.054962 
	C204.345657,299.037659 212.447083,307.959808 218.854538,318.508850 
	C226.044983,330.346985 223.915482,342.084442 218.819595,353.845978 
	C217.572464,356.724396 215.066528,357.211060 212.193893,357.237762 
	C201.214966,357.339722 190.233368,356.928070 179.269150,358.211639 
	C167.845200,359.549042 157.112579,362.777130 147.408798,368.962128 
	C136.513321,375.906738 133.030273,384.379364 135.755508,397.034332 
	C143.376038,432.421082 150.938751,467.821533 158.853745,503.142761 
	C160.675201,511.271210 160.585800,518.914429 157.332748,526.526428 
	C156.681885,528.049438 156.004196,529.874573 153.904221,529.494080 
	C152.121399,529.171021 151.991135,527.397339 151.754639,525.924194 
	C146.899048,495.679199 138.202194,466.320923 131.144287,436.584412 
	C128.533936,425.586365 125.675125,414.567871 125.137428,403.267365 
	C124.289406,385.444550 127.663116,368.167084 134.207245,351.611542 
	C136.941513,344.694244 142.593216,340.129089 149.101379,336.707520 
	C157.095551,332.504669 165.625656,329.673218 174.212006,326.998230 
	C175.929230,326.463257 177.775940,326.235992 179.073853,324.812592 
	C174.794769,318.293976 164.783249,316.307800 158.390808,320.515472 
	C153.732819,323.581512 149.852921,328.162933 143.222427,328.200256 
z"/>
</svg>