<svg version="1.1" id="Layer_1" xmlns="http://www.w3.org/2000/svg" xmlns:xlink="http://www.w3.org/1999/xlink" x="0px" y="0px"
	 width="100%" viewBox="0 0 336 592" enable-background="new 0 0 336 592" xml:space="preserve">
<path fill="#000000" opacity="1.000000" stroke="none" 
	d="
M239.241074,340.987793 
	C243.862701,361.082428 246.060486,380.934265 240.104263,400.610199 
	C231.523849,428.954987 204.056412,450.459717 174.627777,453.442078 
	C159.457397,454.979492 144.723068,454.621704 130.614975,448.162476 
	C108.058640,437.835266 99.671135,417.719238 102.115860,394.930084 
	C103.966286,377.680908 110.321426,361.722168 118.168510,346.354187 
	C118.697647,345.317902 119.310898,344.317017 119.965118,343.354095 
	C120.783234,342.149994 121.936226,341.461823 123.390617,342.014069 
	C125.088310,342.658722 125.538788,344.175140 125.080162,345.717804 
	C124.467148,347.779755 123.593636,349.776123 122.700508,351.740875 
	C118.892197,360.118683 116.140518,368.807770 114.622307,377.898346 
	C111.718178,395.287262 120.099724,409.573944 137.713882,417.066528 
	C149.809631,422.211761 162.311813,423.868286 175.339508,421.669891 
	C190.221161,419.158569 204.572754,415.129883 217.705353,407.469513 
	C230.975220,399.729004 235.397919,389.663696 232.118149,374.694611 
	C228.300888,357.272186 220.543396,341.417511 212.468567,325.697479 
	C211.327316,323.475647 210.083618,321.306519 208.889343,319.111877 
	C205.815628,313.463470 205.492981,307.782410 208.386444,301.910461 
	C210.918152,296.772614 212.391968,291.075989 216.610687,285.777924 
	C227.957932,303.099762 234.263031,321.543243 239.241074,340.987793 
z"/>
<path fill="#000000" opacity="1.000000" stroke="none" 
	d="
M184.706848,276.357269 
	C185.127319,277.590881 185.759964,278.719116 185.457657,279.471832 
	C182.576660,286.645416 178.284378,292.957764 173.051987,298.604980 
	C171.580933,300.192719 169.599884,299.663818 167.996399,298.560760 
	C163.199738,295.261017 158.436768,291.910217 153.719772,288.497589 
	C150.992386,286.524414 150.574219,284.126129 152.382034,281.135956 
	C155.401871,276.141113 158.594345,271.278687 162.095291,266.607330 
	C164.405365,263.524963 166.902237,262.914337 170.200333,265.186127 
	C175.141495,268.589691 180.113876,271.934113 184.706848,276.357269 
z"/>
</svg>