<svg version="1.1" id="Layer_1" xmlns="http://www.w3.org/2000/svg" xmlns:xlink="http://www.w3.org/1999/xlink" x="0px" y="0px"
	 width="100%" viewBox="0 0 336 592" enable-background="new 0 0 336 592" xml:space="preserve">
<path fill="#000000" opacity="1.000000" stroke="none" 
	d="
M223.767990,360.401733 
	C224.632568,386.864410 218.388184,411.329254 207.396240,434.671021 
	C199.979584,450.420624 190.833847,464.955475 178.057907,477.156525 
	C162.944397,491.589874 145.534821,494.147308 126.232948,488.747650 
	C116.402351,485.997589 107.046028,482.099426 98.669685,476.106018 
	C96.822708,474.784546 95.021378,473.412842 95.966827,470.844147 
	C97.089256,467.794617 99.487206,469.207367 101.492943,469.593994 
	C109.312035,471.101166 116.885368,473.918182 125.002380,473.832214 
	C142.044586,473.651611 156.249313,466.264343 168.966583,455.842804 
	C188.870743,439.531799 203.988647,419.809418 209.985458,394.196747 
	C211.883606,386.089691 212.979324,377.863556 209.123169,369.857025 
	C206.777863,369.984009 205.942001,371.861572 204.707825,373.063599 
	C191.120316,386.297699 170.341202,380.668213 164.803619,362.334961 
	C162.982483,356.305695 163.736343,350.372192 164.991760,344.558990 
	C168.087555,330.223846 173.912079,317.028931 182.995621,305.413330 
	C190.931793,295.264954 198.823364,295.110901 207.229355,305.043884 
	C216.494415,315.992065 219.907211,329.319550 222.358780,343.039246 
	C223.361313,348.649719 223.127777,354.318146 223.767990,360.401733 
M182.838699,337.523346 
	C182.675110,338.158813 182.456894,338.785797 182.356888,339.431122 
	C181.757339,343.299927 183.442307,346.224182 187.060349,347.006287 
	C190.846146,347.824677 193.774261,345.241302 195.522171,342.196320 
	C197.403992,338.918030 194.129852,337.414612 192.089020,336.148315 
	C189.171112,334.337738 185.809067,332.433472 182.838699,337.523346 
z"/>
</svg>