<svg version="1.1" id="Layer_1" xmlns="http://www.w3.org/2000/svg" xmlns:xlink="http://www.w3.org/1999/xlink" x="0px" y="0px"
	 width="100%" viewBox="0 0 336 592" enable-background="new 0 0 336 592" xml:space="preserve">
<path fill="#000000" opacity="1.000000" stroke="none" 
	d="
M183.770813,317.909515 
	C196.167923,295.692841 213.130722,278.389893 234.765335,265.790161 
	C245.124695,259.756958 256.228821,255.754425 268.507538,257.696228 
	C276.488342,258.958344 277.540405,260.959473 275.776855,268.981628 
	C274.143585,276.411102 272.535004,283.845978 270.998383,290.898346 
	C269.548340,291.536957 268.740295,291.340393 268.102234,290.744324 
	C260.618011,283.752380 251.694839,283.790009 242.782349,286.363983 
	C225.563858,291.336700 210.815811,300.322113 199.963623,314.964905 
	C196.940826,319.043549 195.017410,323.580811 194.280670,328.647461 
	C193.483307,334.131104 195.579819,337.890503 200.381195,340.584290 
	C209.713013,345.819855 219.971283,347.902740 230.316650,349.638580 
	C237.525055,350.848114 244.799118,351.671967 252.050034,352.621033 
	C261.794891,353.896515 265.308411,358.205566 266.368073,367.971893 
	C268.173492,384.611481 259.871399,396.187195 247.796448,405.500763 
	C221.823578,425.533936 192.322739,437.560486 159.891129,442.328339 
	C141.961685,444.964203 124.023926,445.412079 106.436089,440.259857 
	C85.825386,434.222168 70.342148,422.476868 65.079071,400.466644 
	C61.329865,384.787445 64.667397,369.703583 69.995514,354.978302 
	C76.021164,338.325256 83.977859,322.581940 93.263260,307.508484 
	C93.787010,306.658234 94.356049,305.835480 94.914558,305.007080 
	C96.039482,303.338593 97.612946,303.044098 99.278992,303.911957 
	C101.056824,304.837982 101.291862,306.465851 100.552528,308.200317 
	C99.443184,310.802734 98.316658,313.402069 97.077538,315.944275 
	C91.306793,327.783539 86.003311,339.792938 82.821640,352.644287 
	C75.922768,380.509949 87.902481,401.423187 115.342766,409.714966 
	C133.947891,415.337006 152.722931,415.656311 171.534973,411.539429 
	C196.666077,406.039642 221.019104,398.182098 243.598846,385.554688 
	C246.209274,384.094879 250.290680,382.843567 249.643158,379.220703 
	C249.075119,376.042603 245.102005,375.883240 242.211212,375.176056 
	C230.558060,372.325256 218.572876,371.501221 206.801636,369.365265 
	C202.036209,368.500610 197.374191,367.327209 192.906616,365.463928 
	C178.936066,359.637146 173.848892,349.382751 177.363983,334.508423 
	C178.715775,328.788116 180.866226,323.411621 183.770813,317.909515 
z"/>
<path fill="#000000" opacity="1.000000" stroke="none" 
	d="
M106.899734,486.026611 
	C110.452339,480.564178 113.822899,475.421478 117.248535,470.315765 
	C119.198250,467.409851 121.644997,466.984558 124.446091,469.139954 
	C128.529312,472.281921 132.686508,475.337280 136.634567,478.641785 
	C139.086594,480.694122 140.735184,480.773895 142.633133,477.927856 
	C145.305588,473.920410 148.368530,470.175568 151.181290,466.258636 
	C153.129440,463.545685 155.288132,463.272491 157.976501,465.168518 
	C162.734268,468.523895 167.508041,471.843414 171.900452,475.690369 
	C174.067932,477.588715 174.903992,479.548157 173.334610,482.213806 
	C170.129257,487.658295 166.997513,493.134369 163.023773,498.094269 
	C160.893692,500.753021 158.779510,500.909729 156.196136,498.961212 
	C152.478806,496.157440 148.719055,493.409973 145.000427,490.607941 
	C139.639359,486.568359 139.665024,486.568512 135.907272,491.909607 
	C133.610886,495.173523 131.272217,498.408264 128.916046,501.629425 
	C127.341171,503.782501 125.429619,504.662048 122.936646,503.017212 
	C117.800751,499.628571 112.648422,496.265625 108.106789,492.070038 
	C106.362564,490.458649 105.387177,488.697937 106.899734,486.026611 
z"/>
</svg>