<svg version="1.1" id="Layer_1" xmlns="http://www.w3.org/2000/svg" xmlns:xlink="http://www.w3.org/1999/xlink" x="0px" y="0px"
	 width="100%" viewBox="0 0 336 592" enable-background="new 0 0 336 592" xml:space="preserve">
<path fill="#000000" opacity="1.000000" stroke="none" 
	d="
M146.347336,258.244812 
	C163.722961,248.997406 180.774185,239.927521 197.833588,230.873077 
	C199.299286,230.095139 200.755722,229.198517 202.328369,228.745804 
	C205.025146,227.969543 206.955322,229.065720 206.089844,231.986099 
	C204.143097,238.554962 201.914841,245.081741 195.207367,248.612061 
	C177.822830,257.762024 160.453903,266.941681 143.058807,276.071472 
	C141.151306,277.072632 138.902130,278.299377 137.002563,276.624634 
	C134.978653,274.840302 136.484634,272.533417 137.193100,270.590759 
	C138.969360,265.720276 140.801102,260.821472 146.347336,258.244812 
z"/>
<path fill="#000000" opacity="1.000000" stroke="none" 
	d="
M199.258270,214.257629 
	C184.714340,223.767044 169.006668,230.365494 154.191223,238.621872 
	C150.123001,240.889008 146.002747,243.066269 141.858826,245.192123 
	C140.394714,245.943207 138.707825,246.784988 137.162140,245.558228 
	C135.582275,244.304321 136.168594,242.560272 136.625839,240.935532 
	C138.539459,234.136108 141.826828,228.827728 148.658569,225.404633 
	C165.164566,217.134186 181.322906,208.169998 197.624710,199.491714 
	C198.945877,198.788422 200.280273,198.107361 201.630722,197.462479 
	C202.865509,196.872849 204.183899,196.437790 205.373154,197.458633 
	C206.555969,198.473953 206.421555,199.905457 205.981339,201.168076 
	C204.393066,205.723511 202.807693,210.297424 199.258270,214.257629 
z"/>
</svg>