<svg version="1.1" id="Layer_1" xmlns="http://www.w3.org/2000/svg" xmlns:xlink="http://www.w3.org/1999/xlink" x="0px" y="0px"
	 width="100%" viewBox="0 0 336 592" enable-background="new 0 0 336 592" xml:space="preserve">
<path fill="#000000" opacity="1.000000" stroke="none" 
	d="
M202.845123,236.477509 
	C206.088028,241.476486 205.684830,246.716385 205.154434,251.827393 
	C204.681335,256.386200 201.168823,258.060547 197.214691,255.757828 
	C194.643936,254.260712 192.241318,252.387756 190.024078,250.393372 
	C187.402786,248.035507 185.390945,248.140839 182.792908,250.604218 
	C175.412201,257.602386 167.560226,264.042084 158.751709,269.222839 
	C154.126907,271.942932 149.282196,274.095184 143.959579,275.021606 
	C141.928070,275.375183 139.884811,275.438019 138.455978,273.628082 
	C137.038834,271.832947 138.265350,270.132843 138.969986,268.495728 
	C141.851898,261.799927 145.704803,255.393555 144.747772,247.621063 
	C144.137665,242.666138 141.580704,239.991150 137.611877,240.380325 
	C133.846130,240.749557 132.595627,243.613037 131.168808,246.555481 
	C130.115005,248.728683 130.856354,253.250427 127.464539,252.546616 
	C124.109543,251.850464 125.756699,247.702087 125.711632,245.065735 
	C125.602074,238.656281 127.135643,232.553024 129.850906,226.739700 
	C132.145386,221.827255 135.904114,219.306503 141.373123,219.745865 
	C147.041382,220.201248 151.813232,222.161865 153.689651,228.165390 
	C155.742279,234.732620 156.486115,241.480301 156.241928,248.350540 
	C156.171677,250.326691 156.231155,252.307480 156.231155,255.167068 
	C164.399582,252.142548 170.026749,246.858612 175.255630,241.555893 
	C175.101196,239.576065 174.040878,238.906189 173.078461,238.348068 
	C164.177368,233.186096 162.360596,225.395401 164.671753,216.031769 
	C167.387650,205.028366 172.896881,196.291077 184.510834,193.183701 
	C194.446365,190.525421 202.500458,196.649368 203.332764,206.934677 
	C203.773178,212.377029 203.031464,217.685974 200.506439,222.443283 
	C197.675766,227.776520 197.306015,232.296356 202.845123,236.477509 
M181.183441,208.740585 
	C176.800034,208.966675 176.637558,211.494537 178.332748,214.514603 
	C180.221863,217.880157 183.054199,220.354813 186.701019,221.936584 
	C188.646729,215.405685 187.307892,211.954544 181.183441,208.740585 
z"/>
</svg>