<svg version="1.1" id="Layer_1" xmlns="http://www.w3.org/2000/svg" xmlns:xlink="http://www.w3.org/1999/xlink" x="0px" y="0px"
	 width="100%" viewBox="0 0 336 592" enable-background="new 0 0 336 592" xml:space="preserve">
<path fill="#000000" opacity="1.000000" stroke="none" 
	d="
M210.517365,432.233917 
	C208.387833,438.433136 204.447449,442.312988 198.961105,445.127716 
	C182.383606,453.632751 165.942490,462.403473 149.433975,471.043427 
	C147.530899,472.039459 145.293015,473.502594 143.395584,471.905243 
	C141.477631,470.290588 142.754440,467.928528 143.325180,465.859406 
	C145.109192,459.391602 148.954575,454.956726 155.047119,451.835815 
	C171.481125,443.417419 187.689011,434.558136 204.010269,425.918518 
	C206.285583,424.714050 208.855453,422.130371 211.256577,424.116150 
	C213.942368,426.337372 211.428375,429.288330 210.517365,432.233917 
z"/>
<path fill="#000000" opacity="1.000000" stroke="none" 
	d="
M178.639877,474.589905 
	C187.462051,469.847443 195.937012,465.242249 204.446503,460.701752 
	C206.591248,459.557343 209.066422,457.327393 211.286362,459.162140 
	C213.831619,461.265808 211.576141,464.080994 210.786911,466.488007 
	C208.779327,472.610809 204.958191,476.993164 199.068359,480.001770 
	C182.483780,488.473358 166.084641,497.307556 149.587830,505.951904 
	C147.565750,507.011475 145.141205,508.602386 143.148529,506.694397 
	C141.405258,505.025208 142.735855,502.613220 143.386765,500.585541 
	C145.344864,494.485657 148.711472,489.832306 154.874451,486.996429 
	C162.870026,483.317230 170.511536,478.868591 178.639877,474.589905 
z"/>
</svg>