<svg version="1.1" id="Layer_1" xmlns="http://www.w3.org/2000/svg" xmlns:xlink="http://www.w3.org/1999/xlink" x="0px" y="0px"
	 width="100%" viewBox="0 0 336 592" enable-background="new 0 0 336 592" xml:space="preserve">
<path fill="#000000" opacity="1.000000" stroke="none" 
	d="
M169.151611,241.286072 
	C157.240738,229.466949 155.409332,221.209351 167.834564,200.818451 
	C171.310471,195.114197 175.594254,189.825577 183.316833,189.672272 
	C189.663315,189.546265 193.081848,191.735550 195.588989,197.841568 
	C199.639862,207.707260 198.132797,217.493439 194.286163,226.911362 
	C192.553665,231.153122 192.940445,233.886642 197.049332,235.732269 
	C202.601273,238.226074 202.854446,242.338440 200.915237,247.264648 
	C200.610641,248.038376 200.345230,248.827621 200.036728,249.599716 
	C196.681778,257.996582 194.732849,258.969788 187.307846,253.917740 
	C182.513031,250.655289 179.805359,250.746948 176.072556,255.466553 
	C170.602524,262.382660 163.872345,268.172180 156.179184,272.702637 
	C148.118729,277.449402 140.178833,277.060486 131.980316,272.473724 
	C132.828827,269.647430 135.295502,269.030731 137.174026,267.933380 
	C147.570084,261.860229 157.208435,254.800171 165.749405,246.298264 
	C167.128586,244.925369 168.827789,243.703125 169.151611,241.286072 
M175.608170,210.184372 
	C173.298615,210.243332 171.981720,211.219086 173.147095,213.582977 
	C175.091751,217.527527 177.658600,220.978073 181.762482,223.164276 
	C184.466400,216.075836 183.125076,213.080627 175.608170,210.184372 
z"/>
</svg>