<svg version="1.1" id="Layer_1" xmlns="http://www.w3.org/2000/svg" xmlns:xlink="http://www.w3.org/1999/xlink" x="0px" y="0px"
	 width="100%" viewBox="0 0 348 592" enable-background="new 0 0 348 592" xml:space="preserve">
<path fill="#FFFFFF" opacity="1.000000" stroke="none" 
	d="
M340.061615,593.000000 
	C226.719666,593.000000 113.887505,593.000000 1.027675,593.000000 
	C1.027675,395.687164 1.027675,198.374359 1.027675,1.030762 
	C116.978271,1.030762 232.956558,1.030762 348.967407,1.030762 
	C348.967407,198.309540 348.967407,395.619110 348.967407,593.000000 
	C346.190643,593.000000 343.381042,593.000000 340.061615,593.000000 
M163.883179,462.270142 
	C176.066895,455.889221 188.308197,449.615143 200.413025,443.087921 
	C207.845154,439.080353 209.863037,431.876465 211.626312,423.333466 
	C209.010193,424.126373 207.365646,424.353027 205.988190,425.083405 
	C187.981155,434.631348 170.028763,444.282379 152.024902,453.836365 
	C144.842026,457.648041 143.305542,464.436798 141.561752,472.505524 
	C150.274796,470.937195 156.238113,465.555359 163.883179,462.270142 
z"/>
<path fill="#050505" opacity="1.000000" stroke="none" 
	d="
M163.575348,462.479736 
	C156.238113,465.555359 150.274796,470.937195 141.561752,472.505524 
	C143.305542,464.436798 144.842026,457.648041 152.024902,453.836365 
	C170.028763,444.282379 187.981155,434.631348 205.988190,425.083405 
	C207.365646,424.353027 209.010193,424.126373 211.626312,423.333466 
	C209.863037,431.876465 207.845154,439.080353 200.413025,443.087921 
	C188.308197,449.615143 176.066895,455.889221 163.575348,462.479736 
z"/>
</svg>