<svg version="1.1" id="Layer_1" xmlns="http://www.w3.org/2000/svg" xmlns:xlink="http://www.w3.org/1999/xlink" x="0px" y="0px"
	 width="100%" viewBox="0 0 336 592" enable-background="new 0 0 336 592" xml:space="preserve">
<path fill="#000000" opacity="1.000000" stroke="none" 
	d="
M143.382538,238.403275 
	C147.238510,243.861343 151.415771,243.829605 155.454559,238.448502 
	C159.953308,232.454529 161.791962,225.314896 163.631592,218.215958 
	C164.381897,215.320541 165.089600,212.404663 165.606857,209.461212 
	C166.041504,206.987869 167.687744,206.156281 169.810135,205.978287 
	C172.077820,205.788132 172.966934,207.272507 173.462372,209.270111 
	C174.500687,213.456665 175.451538,217.684402 176.840561,221.758072 
	C177.880630,224.808365 179.684326,227.523071 183.494843,227.635742 
	C187.362137,227.750092 188.951767,224.985596 190.366333,222.047012 
	C193.900269,214.705658 194.655975,206.708298 195.550476,198.801208 
	C195.923920,195.499985 196.980453,193.277786 200.298828,192.855011 
	C203.906082,192.395432 204.036240,195.366180 204.560364,197.780945 
	C207.761917,212.531464 206.990799,227.018661 200.182648,240.601242 
	C195.096939,250.747467 185.748886,253.832642 175.384857,249.173538 
	C171.450989,247.405106 169.462982,247.954971 167.400040,251.531601 
	C165.835922,254.243423 163.703537,256.672821 161.585617,259.012024 
	C152.515900,269.029358 137.163757,266.569244 132.069122,254.100143 
	C127.359879,242.574326 130.128281,231.216156 133.824463,220.021942 
	C134.585587,217.716827 136.524323,217.194031 138.681839,217.556961 
	C141.042419,217.954086 141.306076,219.873413 141.293472,221.765747 
	C141.256744,227.277359 141.640701,232.728165 143.382538,238.403275 
z"/>
</svg>