<svg version="1.1" id="Layer_1" xmlns="http://www.w3.org/2000/svg" xmlns:xlink="http://www.w3.org/1999/xlink" x="0px" y="0px"
	 width="100%" viewBox="0 0 336 592" enable-background="new 0 0 336 592" xml:space="preserve">
<path fill="#000000" opacity="1.000000" stroke="none" 
	d="
M196.511261,244.137787 
	C189.837219,258.919891 179.550171,265.719727 164.892532,265.329071 
	C158.568100,265.160522 153.758667,262.340027 150.424408,257.001526 
	C143.154068,245.360992 144.265930,224.789429 152.729950,213.935944 
	C165.887909,197.063385 187.735992,200.074905 195.974274,219.884659 
	C199.252167,227.766602 199.210938,235.723663 196.511261,244.137787 
M168.783371,244.704147 
	C173.716492,245.145798 178.347412,244.007858 182.713745,241.823288 
	C187.017471,239.670029 187.901047,237.045624 185.327927,232.946671 
	C181.285049,226.506378 175.443817,222.178726 168.019577,220.504150 
	C161.877441,219.118759 157.541290,221.894562 155.186081,227.961639 
	C152.936310,233.757111 154.653702,238.864929 159.976974,242.048096 
	C162.420853,243.509415 165.064972,244.433380 168.783371,244.704147 
z"/>
</svg>