<svg version="1.1" id="Layer_1" xmlns="http://www.w3.org/2000/svg" xmlns:xlink="http://www.w3.org/1999/xlink" x="0px" y="0px"
	 width="100%" viewBox="0 0 336 592" enable-background="new 0 0 336 592" xml:space="preserve">
<path fill="#000000" opacity="1.000000" stroke="none" 
	d="
M204.012146,261.206055 
	C187.808533,267.083160 171.897476,272.535675 154.645828,271.266266 
	C149.509109,270.888306 144.347626,270.516907 139.277939,269.664154 
	C135.349014,269.003296 133.127228,269.895355 132.807587,274.107422 
	C132.707275,275.429352 132.517075,276.761353 132.198135,278.046600 
	C131.228668,281.953583 128.227936,282.882477 125.095718,280.298645 
	C120.157005,276.224518 116.229912,262.849243 118.179138,256.741486 
	C119.928482,251.260040 126.775139,247.368698 135.029175,247.794754 
	C141.155014,248.110962 147.238190,249.191605 153.351562,249.823471 
	C171.578354,251.707352 189.542847,250.466858 207.161514,245.193314 
	C209.226898,244.575104 211.328949,244.045044 213.446091,243.643204 
	C215.874298,243.182343 218.746582,242.313828 219.923523,245.446762 
	C221.042175,248.424576 220.456604,251.394363 217.885666,253.635406 
	C213.923019,257.089569 208.997726,258.813507 204.012146,261.206055 
z"/>
</svg>