<svg version="1.1" id="Layer_1" xmlns="http://www.w3.org/2000/svg" xmlns:xlink="http://www.w3.org/1999/xlink" x="0px" y="0px"
	 width="100%" viewBox="0 0 336 592" enable-background="new 0 0 336 592" xml:space="preserve">
<path fill="#000000" opacity="1.000000" stroke="none" 
	d="
M155.582397,254.756943 
	C146.730591,248.062424 145.247009,241.475845 150.781525,232.133636 
	C155.751465,223.744370 162.298065,216.664398 170.085464,210.763367 
	C173.850510,207.910355 178.296112,207.105423 182.809448,207.028656 
	C187.866974,206.942657 191.215118,210.143143 192.203278,215.638763 
	C192.862839,219.306885 192.454651,222.869736 190.969360,226.383545 
	C188.038177,233.317978 187.159088,233.754730 180.245651,230.894806 
	C175.438919,228.906372 170.677841,226.767349 165.590088,230.333908 
	C161.793930,232.995056 161.600311,234.744278 165.358170,237.499115 
	C174.210449,243.988678 183.594131,247.443573 194.684143,243.232651 
	C197.229065,242.266327 200.931854,240.056702 203.044647,242.739059 
	C205.337326,245.649796 202.473480,248.969955 201.262787,251.954529 
	C200.135422,254.733658 197.938553,256.324371 195.109177,257.380829 
	C180.299133,262.910706 165.434113,268.303101 150.960831,274.700714 
	C149.096664,275.524719 146.920288,276.993103 144.909012,275.139404 
	C142.834366,273.227234 144.372070,271.052826 145.068848,269.120575 
	C146.801468,264.315887 149.328445,260.129547 154.217789,257.754395 
	C154.961594,257.393066 158.050858,257.380219 155.582397,254.756943 
z"/>
</svg>