<svg version="1.1" id="Layer_1" xmlns="http://www.w3.org/2000/svg" xmlns:xlink="http://www.w3.org/1999/xlink" x="0px" y="0px"
	 width="100%" viewBox="0 0 348 592" enable-background="new 0 0 348 592" xml:space="preserve">
<path fill="#FFFFFF" opacity="1.000000" stroke="none" 
	d="
M345.267517,593.000000 
	C230.242233,593.000000 115.745789,593.000000 1.124673,593.000000 
	C1.124673,395.755981 1.124673,198.511856 1.124673,1.133865 
	C116.907021,1.133865 232.814240,1.133865 348.860718,1.133865 
	C348.860718,198.234268 348.860718,395.468658 348.860718,593.000000 
	C347.937164,593.000000 346.866760,593.000000 345.267517,593.000000 
M158.584335,480.010803 
	C159.427811,480.526276 160.271271,481.041748 162.010727,482.104767 
	C152.625122,485.059570 148.469757,491.630035 146.865631,501.653625 
	C149.921707,500.887024 152.133026,500.574554 154.158630,499.785339 
	C168.383636,494.243195 182.549713,488.549713 196.779037,483.018799 
	C202.811600,480.673981 206.276062,475.162872 205.651413,467.242645 
	C190.419922,473.327240 176.093933,473.242188 164.182663,460.367615 
	C167.632858,453.573822 173.000824,452.023285 181.427414,455.386383 
	C190.736908,459.101929 191.276077,458.834198 194.324753,448.988342 
	C194.521194,448.353912 194.806412,447.735870 194.916336,447.087494 
	C196.033417,440.498657 191.994766,433.402924 186.525467,433.609467 
	C182.214783,433.772247 176.797180,434.308441 173.919067,436.928406 
	C166.494919,443.686737 159.459900,451.165131 153.678558,459.351044 
	C148.184967,467.129425 150.317871,473.760559 158.584335,480.010803 
z"/>
<path fill="#040404" opacity="1.000000" stroke="none" 
	d="
M158.284790,479.797943 
	C150.317871,473.760559 148.184967,467.129425 153.678558,459.351044 
	C159.459900,451.165131 166.494919,443.686737 173.919067,436.928406 
	C176.797180,434.308441 182.214783,433.772247 186.525467,433.609467 
	C191.994766,433.402924 196.033417,440.498657 194.916336,447.087494 
	C194.806412,447.735870 194.521194,448.353912 194.324753,448.988342 
	C191.276077,458.834198 190.736908,459.101929 181.427414,455.386383 
	C173.000824,452.023285 167.632858,453.573822 164.183228,460.364594 
	C176.093933,473.242188 190.419922,473.327240 205.651413,467.242645 
	C206.276062,475.162872 202.811600,480.673981 196.779037,483.018799 
	C182.549713,488.549713 168.383636,494.243195 154.158630,499.785339 
	C152.133026,500.574554 149.921707,500.887024 146.865631,501.653625 
	C148.469757,491.630035 152.625122,485.059570 162.010727,482.104767 
	C160.271271,481.041748 159.427811,480.526276 158.284790,479.797943 
z"/>
</svg>