<svg version="1.1" id="Layer_1" xmlns="http://www.w3.org/2000/svg" xmlns:xlink="http://www.w3.org/1999/xlink" x="0px" y="0px"
	 width="100%" viewBox="0 0 348 592" enable-background="new 0 0 348 592" xml:space="preserve">
<path fill="#FFFFFF" opacity="1.000000" stroke="none" 
	d="
M344.210083,593.000000 
	C229.521332,593.000000 115.357773,593.000000 1.097113,593.000000 
	C1.097113,395.736847 1.097113,198.473618 1.097113,1.105193 
	C116.926620,1.105193 232.853378,1.105193 348.890076,1.105193 
	C348.890076,198.254608 348.890076,395.509277 348.890076,593.000000 
	C347.581146,593.000000 346.158234,593.000000 344.210083,593.000000 
M168.954773,499.916168 
	C169.591019,511.048431 170.150299,522.186218 170.956680,533.306152 
	C171.062668,534.767761 172.432831,536.137634 173.217499,537.549988 
	C174.423843,536.516479 176.565689,535.586487 176.693344,534.433472 
	C178.134338,521.418457 180.173813,508.373688 180.238434,495.327942 
	C180.309982,480.881195 178.517563,466.423859 177.499222,451.973816 
	C177.153702,447.070953 176.693634,442.176178 176.285904,437.277710 
	C175.833694,437.189209 175.381470,437.100708 174.929245,437.012177 
	C173.959396,438.635803 172.625412,440.147034 172.083450,441.902740 
	C169.883530,449.029877 167.590210,456.156464 165.956238,463.423706 
	C163.235382,475.524872 167.551910,487.181732 168.954773,499.916168 
z"/>
<path fill="#060606" opacity="1.000000" stroke="none" 
	d="
M168.917572,499.471985 
	C167.551910,487.181732 163.235382,475.524872 165.956238,463.423706 
	C167.590210,456.156464 169.883530,449.029877 172.083450,441.902740 
	C172.625412,440.147034 173.959396,438.635803 174.929245,437.012177 
	C175.381470,437.100708 175.833694,437.189209 176.285904,437.277710 
	C176.693634,442.176178 177.153702,447.070953 177.499222,451.973816 
	C178.517563,466.423859 180.309982,480.881195 180.238434,495.327942 
	C180.173813,508.373688 178.134338,521.418457 176.693344,534.433472 
	C176.565689,535.586487 174.423843,536.516479 173.217499,537.549988 
	C172.432831,536.137634 171.062668,534.767761 170.956680,533.306152 
	C170.150299,522.186218 169.591019,511.048431 168.917572,499.471985 
z"/>
</svg>