<svg version="1.1" id="Layer_1" xmlns="http://www.w3.org/2000/svg" xmlns:xlink="http://www.w3.org/1999/xlink" x="0px" y="0px"
	 width="100%" viewBox="0 0 336 592" enable-background="new 0 0 336 592" xml:space="preserve">
<path fill="#000000" opacity="1.000000" stroke="none" 
	d="
M161.470306,258.468567 
	C154.683151,249.466965 155.440750,239.471725 156.172989,229.457397 
	C157.376892,212.992355 164.980637,198.979065 173.076706,185.158417 
	C175.093582,181.715469 177.319885,178.395340 179.443924,175.014984 
	C180.552109,173.251312 181.726425,171.514938 184.194473,172.719833 
	C187.009796,174.094299 185.494415,176.124817 184.664688,177.787247 
	C179.228546,188.678848 174.811432,199.963226 171.534439,211.680099 
	C170.106430,216.785950 169.024857,221.980423 168.907898,227.323029 
	C169.173477,227.280304 169.566010,227.335220 169.690750,227.177856 
	C172.785110,223.274628 176.549728,220.599167 181.742203,222.019485 
	C186.907486,223.432358 188.117447,228.025558 188.810745,232.534683 
	C190.251083,241.902359 189.423080,250.827042 182.527954,258.184509 
	C175.971298,265.180878 168.615402,265.357208 161.470306,258.468567 
z"/>
</svg>