<svg version="1.1" id="Layer_1" xmlns="http://www.w3.org/2000/svg" xmlns:xlink="http://www.w3.org/1999/xlink" x="0px" y="0px"
	 width="100%" viewBox="0 0 336 592" enable-background="new 0 0 336 592" xml:space="preserve">
<path fill="#000000" opacity="1.000000" stroke="none" 
	d="
M197.241241,241.101868 
	C192.414169,249.062241 187.035828,256.032257 178.352066,259.372467 
	C167.558868,263.524109 156.942596,259.705353 150.238953,249.507126 
	C143.760071,239.650848 141.599533,228.376907 139.802750,217.024231 
	C139.336655,214.079254 145.705688,208.322433 148.407883,208.954559 
	C150.264145,209.388794 150.197266,211.159775 150.631149,212.526978 
	C153.062317,220.187912 156.318771,227.432800 161.204468,233.878723 
	C168.825134,243.932999 179.795029,244.442780 188.450928,235.306778 
	C193.870651,229.586456 197.469009,223.022644 198.875946,215.262238 
	C199.023819,214.446579 199.353043,213.663345 199.494934,212.847137 
	C199.818192,210.987579 200.579269,209.696777 202.766251,209.998840 
	C205.038574,210.312668 205.622940,211.578033 205.531219,213.833191 
	C205.136658,223.534210 202.066452,232.381912 197.241241,241.101868 
z"/>
</svg>