<svg version="1.1" id="Layer_1" xmlns="http://www.w3.org/2000/svg" xmlns:xlink="http://www.w3.org/1999/xlink" x="0px" y="0px"
	 width="100%" viewBox="0 0 348 592" enable-background="new 0 0 348 592" xml:space="preserve">
<path fill="#FFFFFF" opacity="1.000000" stroke="none" 
	d="
M144.000000,593.000000 
	C96.012627,593.000000 48.525261,593.000000 1.018945,593.000000 
	C1.018945,395.731781 1.018945,198.463531 1.018945,1.097651 
	C116.903976,1.097651 232.808075,1.097651 348.856079,1.097651 
	C348.856079,198.333252 348.856079,395.666626 348.856079,593.000000 
	C280.796906,593.000000 212.648453,593.000000 144.000000,593.000000 
M148.508713,253.436844 
	C165.297379,253.320923 182.089172,253.359161 198.873291,253.019272 
	C206.431076,252.866211 213.615585,247.261749 215.999161,240.150482 
	C214.340469,239.903290 212.772354,239.452576 211.209366,239.469681 
	C192.099762,239.678741 172.990540,239.933334 153.882339,240.244583 
	C151.401031,240.285004 148.884827,240.505203 146.456085,240.995438 
	C140.212723,242.255676 134.020874,247.838150 133.135162,253.438004 
	C138.004272,253.438004 142.759476,253.438004 148.508713,253.436844 
z"/>
<path fill="#060606" opacity="1.000000" stroke="none" 
	d="
M148.011688,253.437424 
	C142.759476,253.438004 138.004272,253.438004 133.135162,253.438004 
	C134.020874,247.838150 140.212723,242.255676 146.456085,240.995438 
	C148.884827,240.505203 151.401031,240.285004 153.882339,240.244583 
	C172.990540,239.933334 192.099762,239.678741 211.209366,239.469681 
	C212.772354,239.452576 214.340469,239.903290 215.999161,240.150482 
	C213.615585,247.261749 206.431076,252.866211 198.873291,253.019272 
	C182.089172,253.359161 165.297379,253.320923 148.011688,253.437424 
z"/>
</svg>