<svg version="1.1" id="Layer_1" xmlns="http://www.w3.org/2000/svg" xmlns:xlink="http://www.w3.org/1999/xlink" x="0px" y="0px"
	 width="100%" viewBox="0 0 336 592" enable-background="new 0 0 336 592" xml:space="preserve">
<path fill="#000000" opacity="1.000000" stroke="none" 
	d="
M185.312561,244.304810 
	C180.810547,250.412521 177.408997,256.619110 176.097290,263.856628 
	C175.800217,265.495758 175.725647,267.918152 173.228394,267.869049 
	C171.211792,267.829437 170.847168,265.785522 170.307785,264.253754 
	C166.553864,253.593170 161.315994,243.858871 152.771057,236.212219 
	C150.794907,234.443832 148.732620,232.728271 146.522324,231.273514 
	C141.003708,227.641327 138.870117,221.104462 141.196442,214.778503 
	C142.488220,211.265778 144.702469,212.554352 146.800522,213.579254 
	C157.877487,218.990463 165.681931,227.537170 170.693207,238.723923 
	C171.412979,240.330688 172.113251,241.946182 173.179688,244.369019 
	C176.771027,232.381821 183.245728,223.308838 192.369293,216.211533 
	C195.125748,214.067261 198.296997,210.184891 201.847672,212.431717 
	C204.938187,214.387344 202.990967,218.907120 202.926956,222.285980 
	C202.868088,225.393051 201.407349,227.867889 198.924774,229.959061 
	C193.958344,234.142456 189.397827,238.766052 185.312561,244.304810 
z"/>
</svg>