<svg version="1.1" id="Layer_1" xmlns="http://www.w3.org/2000/svg" xmlns:xlink="http://www.w3.org/1999/xlink" x="0px" y="0px"
	 width="100%" viewBox="0 0 336 592" enable-background="new 0 0 336 592" xml:space="preserve">
<path fill="#000000" opacity="1.000000" stroke="none" 
	d="
M186.580490,257.391235 
	C181.121719,251.045868 177.031326,244.226822 173.080872,236.108215 
	C170.161530,242.682343 167.610687,248.552231 163.906158,253.782150 
	C160.524155,258.556702 156.907867,263.113159 151.888443,266.253571 
	C149.822433,267.546173 147.411270,269.188202 144.945923,267.684326 
	C142.765137,266.354065 143.995911,263.723938 143.661514,261.676025 
	C142.668396,255.594086 144.901581,251.922058 150.408524,248.488617 
	C161.990723,241.267395 166.751602,229.274124 169.619217,216.464020 
	C169.800278,215.655197 169.782715,214.787567 170.054398,214.016678 
	C170.476089,212.820145 170.556824,211.181915 172.261642,211.058563 
	C174.083466,210.926773 174.283783,212.542404 174.578003,213.779388 
	C178.340012,229.595413 187.622726,241.163422 201.661194,249.081589 
	C203.619278,250.186005 204.409729,251.820129 204.330841,254.025543 
	C204.253601,256.184906 204.337387,258.349518 204.292053,260.510620 
	C204.132034,268.137115 202.018326,269.236755 195.258209,265.344055 
	C191.865814,263.390564 189.414444,260.454529 186.580490,257.391235 
z"/>
</svg>