<svg version="1.1" id="Layer_1" xmlns="http://www.w3.org/2000/svg" xmlns:xlink="http://www.w3.org/1999/xlink" x="0px" y="0px"
	 width="100%" viewBox="0 0 348 592" enable-background="new 0 0 348 592" xml:space="preserve">
<path fill="#FFFFFF" opacity="1.000000" stroke="none" 
	d="
M344.210083,593.000000 
	C229.521332,593.000000 115.357773,593.000000 1.097113,593.000000 
	C1.097113,395.736847 1.097113,198.473618 1.097113,1.105193 
	C116.926620,1.105193 232.853378,1.105193 348.890076,1.105193 
	C348.890076,198.254608 348.890076,395.509277 348.890076,593.000000 
	C347.581146,593.000000 346.158234,593.000000 344.210083,593.000000 
M159.363495,493.189789 
	C164.473801,497.931213 170.569199,497.918243 176.707489,496.325531 
	C192.045258,492.345917 200.694733,473.920593 194.572235,458.087006 
	C191.707169,450.677673 187.278290,444.475830 178.416168,443.658875 
	C169.306519,442.819153 161.726944,445.695374 156.318115,453.388702 
	C148.217255,464.911072 149.239487,481.096191 159.363495,493.189789 
z"/>
<path fill="#020202" opacity="1.000000" stroke="none" 
	d="
M159.086136,492.957642 
	C149.239487,481.096191 148.217255,464.911072 156.318115,453.388702 
	C161.726944,445.695374 169.306519,442.819153 178.416168,443.658875 
	C187.278290,444.475830 191.707169,450.677673 194.572235,458.087006 
	C200.694733,473.920593 192.045258,492.345917 176.707489,496.325531 
	C170.569199,497.918243 164.473801,497.931213 159.086136,492.957642 
z"/>
</svg>