<svg version="1.1" id="Layer_1" xmlns="http://www.w3.org/2000/svg" xmlns:xlink="http://www.w3.org/1999/xlink" x="0px" y="0px"
	 width="100%" viewBox="0 0 336 592" enable-background="new 0 0 336 592" xml:space="preserve">
<path fill="#000000" opacity="1.000000" stroke="none" 
	d="
M146.017700,244.460556 
	C149.242020,242.030136 153.353714,240.453247 154.807144,237.546967 
	C156.478195,234.205521 152.152649,231.256653 150.856094,227.926086 
	C145.610306,214.450470 153.199188,196.089264 166.571533,190.563232 
	C175.691132,186.794617 185.546875,192.352020 187.267670,202.345490 
	C189.073120,212.830627 187.034149,222.575134 180.700974,231.146118 
	C178.468887,234.166901 178.643875,236.181625 181.095612,238.862076 
	C189.904022,248.492279 199.872299,256.754791 210.373428,264.429138 
	C214.762619,267.636810 214.710419,269.059448 210.206680,271.916718 
	C202.229019,276.977936 195.716278,276.711029 188.258652,270.924561 
	C181.004669,265.296082 174.554794,258.800690 168.242813,252.162247 
	C167.000824,250.855988 165.961533,249.308441 164.256348,248.580963 
	C159.665329,251.179199 155.215363,253.739365 150.723602,256.223938 
	C148.033401,257.711975 146.090515,257.018188 145.805313,253.839249 
	C145.534668,250.822617 143.395737,247.771164 146.017700,244.460556 
M165.013504,215.526810 
	C166.320679,217.974915 167.065186,220.787125 169.452026,222.593704 
	C172.499863,218.086685 172.231262,212.674133 168.755463,208.925995 
	C167.358932,207.420029 165.566757,206.015945 163.525909,207.230377 
	C161.300888,208.554413 163.040283,210.499359 163.471359,212.136169 
	C163.721741,213.086884 164.268112,213.959625 165.013504,215.526810 
z"/>
</svg>