<svg version="1.1" id="Layer_1" xmlns="http://www.w3.org/2000/svg" xmlns:xlink="http://www.w3.org/1999/xlink" x="0px" y="0px"
	 width="100%" viewBox="0 0 336 592" enable-background="new 0 0 336 592" xml:space="preserve">
<path fill="#000000" opacity="1.000000" stroke="none" 
	d="
M184.121078,242.238052 
	C172.001633,248.582809 160.224777,254.780273 148.431412,260.946167 
	C146.817200,261.790100 145.181839,262.690094 143.448120,263.186554 
	C140.784836,263.949158 139.012604,262.979492 139.666290,259.946991 
	C140.905106,254.200165 142.455170,248.314163 148.040024,245.264038 
	C166.580811,235.138153 185.261917,225.269028 203.903091,215.327469 
	C205.391373,214.533752 207.143784,213.839859 208.553329,215.194351 
	C209.905243,216.493500 209.463440,218.347305 208.905716,219.899551 
	C206.443359,226.752762 203.330475,233.033859 195.987671,236.133911 
	C192.015671,237.810837 188.293381,240.079224 184.121078,242.238052 
z"/>
<path fill="#000000" opacity="1.000000" stroke="none" 
	d="
M190.347443,250.469055 
	C195.590836,245.823288 197.716476,251.573380 200.878998,253.296112 
	C203.837189,254.907516 203.613403,257.490356 201.823151,260.046112 
	C201.539459,260.451111 201.333847,260.910919 201.048737,261.314758 
	C199.470703,263.549927 198.563522,267.224243 195.407639,266.941711 
	C191.575531,266.598633 188.611603,263.702789 186.181564,260.757782 
	C184.846359,259.139557 185.836472,257.292114 186.859421,255.713089 
	C187.937592,254.048889 189.038925,252.399689 190.347443,250.469055 
z"/>
<path fill="#000000" opacity="1.000000" stroke="none" 
	d="
M149.599243,213.634979 
	C151.780228,209.689087 154.283218,209.371796 157.392517,212.037033 
	C160.333252,214.557770 165.513931,215.892807 162.136002,221.542816 
	C161.965958,221.827240 161.785156,222.105438 161.622116,222.393753 
	C157.327682,229.988510 151.147308,229.966293 146.612610,222.245071 
	C144.438736,218.543625 148.279236,216.654770 149.599243,213.634979 
z"/>
</svg>