<svg version="1.1" id="Layer_1" xmlns="http://www.w3.org/2000/svg" xmlns:xlink="http://www.w3.org/1999/xlink" x="0px" y="0px"
	 width="100%" viewBox="0 0 348 592" enable-background="new 0 0 348 592" xml:space="preserve">
<path fill="#FFFFFF" opacity="1.000000" stroke="none" 
	d="
M340.061615,593.000000 
	C226.719666,593.000000 113.887505,593.000000 1.027675,593.000000 
	C1.027675,395.687164 1.027675,198.374359 1.027675,1.030762 
	C116.978271,1.030762 232.956558,1.030762 348.967407,1.030762 
	C348.967407,198.309540 348.967407,395.619110 348.967407,593.000000 
	C346.190643,593.000000 343.381042,593.000000 340.061615,593.000000 
M159.302429,476.093994 
	C161.983887,478.187592 164.665359,480.281189 167.312927,482.348297 
	C164.382248,484.273010 161.639908,486.153625 158.818832,487.907593 
	C154.875229,490.359467 150.762878,490.933960 146.536148,488.600220 
	C134.035187,481.697845 122.478004,484.087219 111.779533,492.475128 
	C109.701019,494.104767 106.752182,497.995178 107.354767,499.059631 
	C109.395195,502.664062 112.530952,499.663544 115.064552,498.645416 
	C121.456841,496.076843 128.059311,494.210327 134.195374,498.359009 
	C143.323730,504.530762 152.093811,503.379608 161.594086,499.326660 
	C174.714493,493.729279 188.111008,488.766907 201.466919,483.738831 
	C208.194702,481.206055 211.439560,476.924744 211.755402,468.360565 
	C208.094620,468.966400 204.345490,468.981873 201.071960,470.237366 
	C189.298340,474.752930 180.554306,468.372131 171.702469,462.465790 
	C170.925751,461.947540 170.694672,459.103668 171.365875,458.177917 
	C174.705276,453.572174 180.206680,452.738953 186.728836,455.406158 
	C196.970825,459.594513 197.602066,459.257996 200.262848,448.200623 
	C200.418579,447.553406 200.666595,446.919037 200.743271,446.263672 
	C201.505234,439.751556 197.440414,433.193085 192.031403,433.311310 
	C188.175842,433.395569 183.742462,434.039276 180.629196,436.065491 
	C171.001511,442.331482 163.555893,450.895355 158.442947,461.237701 
	C156.143204,465.889526 155.777054,470.837036 159.302429,476.093994 
z"/>
<path fill="#040404" opacity="1.000000" stroke="none" 
	d="
M159.089432,475.796692 
	C155.777054,470.837036 156.143204,465.889526 158.442947,461.237701 
	C163.555893,450.895355 171.001511,442.331482 180.629196,436.065491 
	C183.742462,434.039276 188.175842,433.395569 192.031403,433.311310 
	C197.440414,433.193085 201.505234,439.751556 200.743271,446.263672 
	C200.666595,446.919037 200.418579,447.553406 200.262848,448.200623 
	C197.602066,459.257996 196.970825,459.594513 186.728836,455.406158 
	C180.206680,452.738953 174.705276,453.572174 171.365875,458.177917 
	C170.694672,459.103668 170.925751,461.947540 171.702469,462.465790 
	C180.554306,468.372131 189.298340,474.752930 201.071960,470.237366 
	C204.345490,468.981873 208.094620,468.966400 211.755402,468.360565 
	C211.439560,476.924744 208.194702,481.206055 201.466919,483.738831 
	C188.111008,488.766907 174.714493,493.729279 161.594086,499.326660 
	C152.093811,503.379608 143.323730,504.530762 134.195374,498.359009 
	C128.059311,494.210327 121.456841,496.076843 115.064552,498.645416 
	C112.530952,499.663544 109.395195,502.664062 107.354767,499.059631 
	C106.752182,497.995178 109.701019,494.104767 111.779533,492.475128 
	C122.478004,484.087219 134.035187,481.697845 146.536148,488.600220 
	C150.762878,490.933960 154.875229,490.359467 158.818832,487.907593 
	C161.639908,486.153625 164.382248,484.273010 167.312927,482.348297 
	C164.665359,480.281189 161.983887,478.187592 159.089432,475.796692 
z"/>
</svg>