<svg version="1.1" id="Layer_1" xmlns="http://www.w3.org/2000/svg" xmlns:xlink="http://www.w3.org/1999/xlink" x="0px" y="0px"
	 width="100%" viewBox="0 0 336 592" enable-background="new 0 0 336 592" xml:space="preserve">
<path fill="#000000" opacity="1.000000" stroke="none" 
	d="
M148.170044,284.794220 
	C146.377319,282.155975 145.070297,279.535858 143.119629,277.546997 
	C137.988617,272.315521 137.279419,266.611725 139.635437,259.824799 
	C142.247284,252.300903 144.169113,244.538727 146.452271,236.898499 
	C146.915543,235.348236 147.195694,233.387360 149.115768,233.000229 
	C151.363953,232.546936 152.214523,234.598129 153.252945,236.016388 
	C163.671402,250.246201 170.609665,266.272827 177.192398,282.485016 
	C185.227127,302.273224 191.535095,322.564117 193.915070,343.851288 
	C195.651871,359.385681 196.458191,374.994904 195.649155,390.657745 
	C195.194672,399.456268 194.616486,408.226715 193.442352,416.964935 
	C193.081589,419.649902 192.839951,422.210876 189.444443,422.085205 
	C186.038696,421.959167 185.760666,419.225037 185.764297,416.626282 
	C185.792267,396.597992 183.520981,376.858826 178.920776,357.346710 
	C172.829132,331.508545 162.862381,307.357727 148.170044,284.794220 
z"/>
</svg>