<svg version="1.1" id="Layer_1" xmlns="http://www.w3.org/2000/svg" xmlns:xlink="http://www.w3.org/1999/xlink" x="0px" y="0px"
	 width="100%" viewBox="0 0 336 592" enable-background="new 0 0 336 592" xml:space="preserve">
<path fill="#000000" opacity="1.000000" stroke="none" 
	d="
M130.991165,254.009369 
	C140.305344,264.107574 150.997345,269.473389 164.694366,266.089508 
	C176.780609,263.103577 183.136368,254.300858 187.232208,243.344833 
	C187.813049,241.791138 188.287659,240.176056 188.599884,238.548782 
	C189.042633,236.241165 190.345856,234.967911 192.648346,234.897446 
	C195.162384,234.820511 195.998581,236.457733 196.415161,238.680634 
	C197.278015,243.284760 198.763123,247.688019 201.120865,251.774460 
	C206.458160,261.025085 218.278320,262.554565 225.784775,254.971359 
	C230.392868,250.316193 232.837082,244.518997 234.542587,238.360321 
	C235.161285,236.126175 236.299622,234.762283 238.693207,234.926727 
	C240.946228,235.081497 241.843369,236.671295 241.940765,238.681213 
	C242.639435,253.098297 240.796448,266.777832 232.190323,279.101562 
	C220.920380,295.239838 196.287811,296.287506 185.969818,283.668030 
	C185.570831,283.180054 184.926727,282.892487 183.858109,282.124176 
	C180.236954,286.621826 177.213013,291.728424 171.732254,294.259369 
	C166.533859,296.659973 160.841614,297.133026 154.799500,298.708374 
	C156.397354,305.042511 157.775620,311.297119 159.558380,317.434235 
	C166.720169,342.088867 167.674698,367.173065 165.535034,392.590271 
	C164.865738,400.540741 164.438385,408.506256 163.351456,416.420135 
	C162.959991,419.270325 162.227509,421.984650 158.743698,421.766327 
	C155.210068,421.544861 154.814514,418.596863 154.863953,415.827209 
	C155.203537,396.797546 154.203598,377.891083 149.658371,359.321228 
	C142.452515,329.881073 131.757370,302.089294 111.021370,279.191803 
	C108.137291,276.007141 107.358269,272.959290 108.528099,268.773407 
	C110.898277,260.292328 112.576332,251.615524 115.554832,243.302475 
	C117.075180,239.059143 118.426254,238.765717 121.295578,242.115982 
	C124.544914,245.909943 127.602501,249.868118 130.991165,254.009369 
z"/>
</svg>