<svg version="1.1" id="Layer_1" xmlns="http://www.w3.org/2000/svg" xmlns:xlink="http://www.w3.org/1999/xlink" x="0px" y="0px"
	 width="100%" viewBox="0 0 336 592" enable-background="new 0 0 336 592" xml:space="preserve">
<path fill="#000000" opacity="1.000000" stroke="none" 
	d="
M188.142944,262.904083 
	C187.207092,265.802094 185.250931,266.680725 182.851486,267.387085 
	C176.392181,269.288788 170.541351,272.470398 165.411484,276.841583 
	C159.770798,281.648010 160.047150,285.545929 166.347687,289.368561 
	C175.196335,294.737213 184.879044,298.466339 194.047302,303.213287 
	C206.567749,309.695831 207.478821,312.984894 198.434509,323.862335 
	C188.535233,335.768005 178.002289,347.144531 167.972504,358.944611 
	C158.439285,370.160492 159.050156,372.588379 173.060745,377.782928 
	C186.970062,382.939880 201.470459,386.010010 216.030655,388.715698 
	C222.723251,389.959351 223.121704,390.243896 221.359482,396.751190 
	C219.709259,402.844879 217.474579,408.780182 215.820557,414.872986 
	C214.488113,419.781128 211.532303,421.013153 206.863510,420.108643 
	C190.824493,417.001343 175.101273,412.801208 159.892853,406.797058 
	C156.025711,405.270294 152.186554,403.626099 148.480164,401.748413 
	C140.940750,397.928925 139.805313,395.132172 141.117401,386.911591 
	C142.789200,376.437164 147.650070,367.407959 153.320648,358.718658 
	C158.067917,351.444183 163.700928,344.862427 169.560776,338.466583 
	C171.231781,336.642700 173.133270,334.963593 174.102219,332.489899 
	C173.008347,329.854584 170.366470,329.346649 168.198975,328.315125 
	C159.631897,324.238159 150.895309,320.527557 142.956055,315.208618 
	C134.334549,309.432587 132.801498,305.167084 136.486374,295.362610 
	C140.117096,285.702271 146.475937,277.727814 152.658264,269.666931 
	C161.523239,258.108307 171.488617,247.641922 183.443100,239.199738 
	C184.800812,238.240891 186.197876,237.311020 187.670166,236.548096 
	C189.401382,235.651001 191.300873,233.989792 193.205078,235.250809 
	C195.211349,236.579437 194.106583,238.880890 193.764893,240.785095 
	C192.441483,248.160110 190.598862,255.406387 188.142944,262.904083 
z"/>
</svg>