<svg version="1.1" id="Layer_1" xmlns="http://www.w3.org/2000/svg" xmlns:xlink="http://www.w3.org/1999/xlink" x="0px" y="0px"
	 width="100%" viewBox="0 0 336 592" enable-background="new 0 0 336 592" xml:space="preserve">
<path fill="#000000" opacity="1.000000" stroke="none" 
	d="
M192.483490,278.382294 
	C198.427200,281.205505 203.538223,284.635590 208.136688,288.771881 
	C225.489273,304.380432 228.900391,323.150818 219.546753,344.924042 
	C208.742493,370.074036 190.082367,382.753174 164.747482,382.229980 
	C155.132477,382.031433 145.990387,379.487000 137.596191,374.738617 
	C123.448059,366.735413 118.635689,355.692596 123.124435,339.280121 
	C128.022675,321.370331 136.218765,304.785095 145.442215,288.713043 
	C155.728302,270.789246 175.481445,269.793488 192.483490,278.382294 
M154.686172,348.816864 
	C166.039871,352.218750 177.697586,352.192749 189.326965,351.424622 
	C195.120026,351.042023 200.827087,349.513428 205.748062,346.047333 
	C211.420517,342.051971 212.231308,337.604034 208.125717,332.051941 
	C203.142044,325.312378 197.073532,319.586151 190.538757,314.414124 
	C182.310455,307.901733 173.888489,301.619324 163.451553,298.908997 
	C159.735580,297.943970 156.076904,297.819946 153.112793,300.631805 
	C143.894440,309.376770 139.676132,320.620453 137.480728,332.796082 
	C137.317902,333.699097 137.809021,334.737976 138.064178,335.695587 
	C140.229080,343.820740 147.118576,346.161530 154.686172,348.816864 
z"/>
</svg>