<svg version="1.1" id="Layer_1" xmlns="http://www.w3.org/2000/svg" xmlns:xlink="http://www.w3.org/1999/xlink" x="0px" y="0px"
	 width="100%" viewBox="0 0 336 592" enable-background="new 0 0 336 592" xml:space="preserve">
<path fill="#000000" opacity="1.000000" stroke="none" 
	d="
M202.936646,259.817902 
	C198.490952,279.822418 199.354599,299.531006 201.912033,319.235565 
	C203.452026,331.101013 205.633667,342.853455 209.124359,354.335938 
	C211.747650,362.965118 215.807205,370.648010 222.976227,376.389984 
	C225.511673,378.420837 226.421631,380.943176 226.414856,384.231476 
	C226.393921,394.395721 225.547729,404.495209 224.708557,414.608124 
	C224.311020,419.399078 222.022537,419.513367 218.366272,417.939056 
	C211.757553,415.093506 207.337753,409.985474 203.839096,404.007721 
	C197.247910,392.745972 194.354431,380.290680 192.718826,367.516174 
	C190.216766,347.974548 191.035202,328.303284 190.637436,308.678772 
	C190.499268,301.862610 189.890213,295.056335 189.735565,288.240112 
	C189.655228,284.699554 187.768219,283.932861 184.876877,284.424866 
	C182.756775,284.785614 180.653244,285.348663 178.606308,286.017426 
	C164.793884,290.530182 150.802032,290.464478 136.726044,287.641693 
	C126.623924,285.615784 121.178413,279.032806 119.848885,269.124481 
	C118.629272,260.035339 118.436333,250.875992 119.621254,241.731674 
	C119.817017,240.220963 119.786766,238.572113 121.500893,237.988480 
	C123.070045,237.454178 124.517838,238.149765 125.537338,239.343185 
	C140.789413,257.197540 160.789154,255.999146 181.086914,252.961807 
	C186.635666,252.131500 192.017853,250.133087 197.445770,248.564499 
	C203.968628,246.679474 205.786133,248.382782 204.223129,255.086411 
	C203.883362,256.543732 203.461548,257.981934 202.936646,259.817902 
z"/>
</svg>