<svg version="1.1" id="Layer_1" xmlns="http://www.w3.org/2000/svg" xmlns:xlink="http://www.w3.org/1999/xlink" x="0px" y="0px"
	 width="100%" viewBox="0 0 336 592" enable-background="new 0 0 336 592" xml:space="preserve">
<path fill="#000000" opacity="1.000000" stroke="none" 
	d="
M131.231323,273.338165 
	C135.322708,263.420776 139.412109,253.919113 146.476562,246.138992 
	C154.595825,237.197205 172.063477,233.762329 183.028580,238.805252 
	C190.882874,242.417496 193.642700,249.584610 195.245514,257.199677 
	C198.639465,273.324738 199.474899,289.795868 201.352631,306.127319 
	C203.552017,325.256348 205.363266,344.454010 210.304321,363.156372 
	C212.295578,370.693481 215.584824,377.223175 223.492874,380.155029 
	C226.259872,381.180878 226.575348,383.415497 226.318726,385.861969 
	C225.591064,392.799408 224.952866,399.752228 223.966019,406.654175 
	C223.395889,410.641754 223.463409,414.621399 223.245880,418.605713 
	C223.121490,420.883942 223.489624,423.672546 221.072327,424.837006 
	C218.837463,425.913605 217.071960,423.874054 215.305054,422.694824 
	C209.512024,418.828583 206.004639,413.239624 203.677475,406.861328 
	C197.991989,391.278503 196.100861,374.886993 193.715912,358.622589 
	C192.034149,347.153595 190.775436,335.622559 189.252136,323.517578 
	C184.748825,325.759155 180.721939,327.969421 176.531982,329.808075 
	C166.635498,334.150879 156.595657,337.174866 145.579224,333.884094 
	C132.245239,329.900970 123.021744,316.027740 124.135139,302.140961 
	C124.930931,292.215454 127.383080,282.838287 131.231323,273.338165 
M167.462906,270.925995 
	C161.239578,269.659637 155.123428,270.248596 149.411575,272.867126 
	C143.213074,275.708740 137.513748,279.657074 136.977661,287.144257 
	C136.584061,292.641357 143.994766,299.617249 151.197784,301.638672 
	C162.369110,304.773743 172.537064,301.880219 182.237259,296.315186 
	C184.218079,295.178772 184.762604,293.470795 184.707916,291.280457 
	C184.477524,282.053864 177.442322,273.372437 167.462906,270.925995 
z"/>
</svg>