<svg version="1.1" id="Layer_1" xmlns="http://www.w3.org/2000/svg" xmlns:xlink="http://www.w3.org/1999/xlink" x="0px" y="0px"
	 width="100%" viewBox="0 0 336 592" enable-background="new 0 0 336 592" xml:space="preserve">
<path fill="#000000" opacity="1.000000" stroke="none" 
	d="
M172.493591,287.579102 
	C186.051498,252.055695 199.575775,216.934875 212.779678,181.694016 
	C214.669907,176.649002 217.218887,174.280823 222.562592,175.038712 
	C225.290176,175.425552 228.215576,174.373962 230.769592,176.060898 
	C231.523346,178.117340 230.384628,179.734131 229.762421,181.375137 
	C196.820679,268.255310 163.806015,355.107941 130.993805,442.036957 
	C129.230881,446.707428 126.501076,447.314240 122.311829,447.251678 
	C111.100250,447.084229 111.187431,447.970062 115.290131,437.272522 
	C134.371643,387.518768 153.345169,337.723602 172.493591,287.579102 
z"/>
<path fill="#000000" opacity="1.000000" stroke="none" 
	d="
M249.142426,409.844055 
	C246.782608,420.079926 244.509476,429.906403 242.262878,439.618134 
	C239.378586,440.082520 237.669113,438.565857 235.845779,437.567535 
	C227.222488,432.846252 219.016754,427.475281 211.142349,421.583221 
	C207.740433,419.037659 206.433167,416.218842 207.428635,411.726471 
	C209.838303,400.852142 212.923386,390.171112 215.853088,379.443176 
	C216.147461,378.365265 216.865814,377.403198 217.330536,376.498138 
	C219.686569,376.068390 220.980469,377.603363 222.368149,378.668121 
	C229.760376,384.339935 236.985138,390.234222 244.463760,395.787750 
	C249.285828,399.368530 251.616455,403.493927 249.142426,409.844055 
z"/>
<path fill="#000000" opacity="1.000000" stroke="none" 
	d="
M108.983719,230.107513 
	C105.332642,227.437119 101.958633,224.997406 98.643501,222.480148 
	C96.342285,220.732773 95.141350,218.368896 95.793633,215.483093 
	C98.543228,203.318512 101.639748,191.242050 105.402611,179.346069 
	C105.536621,178.922394 106.047905,178.618042 106.369957,178.272461 
	C108.587570,178.415237 110.021935,179.917267 111.600815,181.090729 
	C119.758316,187.153595 127.822128,193.332886 135.480347,200.031143 
	C138.229126,202.435349 139.388885,204.960327 138.451721,208.787170 
	C135.770248,219.736816 133.455688,230.776337 130.825165,242.548859 
	C122.687042,239.302048 116.215187,234.376129 108.983719,230.107513 
z"/>
</svg>