<svg version="1.1" id="Layer_1" xmlns="http://www.w3.org/2000/svg" xmlns:xlink="http://www.w3.org/1999/xlink" x="0px" y="0px"
	 width="100%" viewBox="0 0 336 592" enable-background="new 0 0 336 592" xml:space="preserve">
<path fill="#000000" opacity="1.000000" stroke="none" 
	d="
M215.102509,359.388214 
	C215.760681,375.685516 215.725006,391.448883 210.195053,406.642517 
	C205.951981,418.300507 199.212082,428.330719 189.985199,436.524292 
	C179.816818,445.553925 167.159302,446.509796 154.350876,446.454712 
	C145.927185,446.418488 138.339462,443.787750 131.652191,438.666595 
	C130.093857,437.473175 128.180252,436.216461 129.190247,433.790039 
	C130.038864,431.751312 132.025894,431.754089 133.887482,431.730072 
	C134.220383,431.725769 134.557648,431.690948 134.885681,431.730316 
	C158.264587,434.533813 174.945221,422.592255 189.717010,406.657013 
	C193.778870,402.275269 197.903214,397.889496 201.065231,392.752777 
	C205.271545,385.919647 205.586639,379.005463 201.360275,372.055237 
	C198.507187,367.363342 195.630142,362.685547 192.714417,358.032410 
	C190.311264,354.197296 190.010834,350.254303 191.923798,346.158234 
	C195.195419,339.153015 197.967163,331.859344 203.551102,325.117737 
	C209.717682,336.186615 213.526108,347.151093 215.102509,359.388214 
z"/>
</svg>