<svg version="1.1" id="Layer_1" xmlns="http://www.w3.org/2000/svg" xmlns:xlink="http://www.w3.org/1999/xlink" x="0px" y="0px"
	 width="100%" viewBox="0 0 336 592" enable-background="new 0 0 336 592" xml:space="preserve">
<path fill="#000000" opacity="1.000000" stroke="none" 
	d="
M168.425247,272.822479 
	C166.870560,272.095825 165.660767,271.540955 164.464386,270.958527 
	C155.116302,266.407654 151.861404,259.242126 154.835114,249.774353 
	C157.375214,241.687103 166.520370,236.441299 175.328369,237.345963 
	C184.213577,238.258591 189.374298,243.090851 192.467392,251.117569 
	C197.196335,263.389313 195.442093,275.352081 190.911423,287.078400 
	C185.165283,301.950592 175.973969,314.383179 163.627258,324.593750 
	C160.077423,327.529419 158.267395,326.919556 155.657608,323.667999 
	C153.074036,320.449127 151.400192,318.235413 155.635757,314.747589 
	C162.471191,309.118896 167.979568,302.198425 172.344543,294.422150 
	C173.902496,291.646637 175.135040,288.787079 175.903458,285.685242 
	C178.158875,276.580902 177.646439,275.605743 168.425247,272.822479 
z"/>
</svg>