<svg version="1.1" id="Layer_1" xmlns="http://www.w3.org/2000/svg" xmlns:xlink="http://www.w3.org/1999/xlink" x="0px" y="0px"
	 width="100%" viewBox="0 0 336 592" enable-background="new 0 0 336 592" xml:space="preserve">
<path fill="#000000" opacity="1.000000" stroke="none" 
	d="
M94.060158,267.076569 
	C104.668144,266.427216 115.103615,266.721405 125.543869,267.170929 
	C134.190781,267.543243 142.853546,267.546478 151.500687,267.915192 
	C155.226624,268.074066 155.796021,265.527252 156.549881,262.938690 
	C161.245926,246.813614 165.938126,230.687408 170.633331,214.562088 
	C171.137726,212.829819 171.359634,210.980820 172.788193,209.350494 
	C174.970779,210.314392 174.882675,212.492386 175.390015,214.243423 
	C180.016418,230.211075 184.729950,246.155731 189.100479,262.193665 
	C190.208344,266.259064 191.881165,267.921082 196.271957,267.745758 
	C213.567291,267.055054 230.876266,266.706421 248.179932,266.222229 
	C249.493042,266.185516 250.848221,265.864349 252.158920,267.211395 
	C251.874557,269.183655 249.971252,269.765015 248.572601,270.703857 
	C234.745514,279.985260 221.007568,289.407990 206.979584,298.376526 
	C202.555771,301.204803 202.004364,303.875427 203.813477,308.551270 
	C209.756821,323.912506 215.297287,339.429993 220.935013,354.908417 
	C221.472778,356.384827 222.643585,357.854614 221.662827,359.702393 
	C219.097488,360.196106 217.812927,358.096588 216.224701,356.861816 
	C203.340714,346.845215 190.360443,336.940399 177.778580,326.554443 
	C173.885513,323.340820 171.540970,324.014923 168.060181,326.809479 
	C155.076981,337.233093 141.886307,347.398651 128.738525,357.616058 
	C127.472984,358.599579 126.376038,360.020203 124.474884,360.016327 
	C122.923798,358.391602 124.191444,356.878784 124.712296,355.440735 
	C130.435547,339.638794 136.029938,323.785919 142.080917,308.109619 
	C143.863998,303.490173 142.981537,301.134491 138.884964,298.483368 
	C124.908234,289.438202 111.196022,279.984100 97.394905,270.668213 
	C96.057770,269.765625 94.314934,269.254364 94.060158,267.076569 
z"/>
</svg>