<svg version="1.1" id="Layer_1" xmlns="http://www.w3.org/2000/svg" xmlns:xlink="http://www.w3.org/1999/xlink" x="0px" y="0px"
	 width="100%" viewBox="0 0 336 592" enable-background="new 0 0 336 592" xml:space="preserve">
<path fill="#000000" opacity="1.000000" stroke="none" 
	d="
M274.177612,305.900299 
	C275.587372,296.553925 279.434113,288.509705 283.056458,280.255280 
	C286.205261,281.581268 287.459229,284.052643 288.679199,286.326691 
	C298.296600,304.253510 301.308746,323.020203 295.020233,342.702362 
	C290.797302,355.919586 281.846893,365.179626 269.805756,371.764771 
	C247.633835,383.890381 223.575958,390.238739 199.064041,395.350647 
	C180.269730,399.270203 161.276627,401.571228 142.122955,401.756226 
	C118.598656,401.983398 95.131233,401.022064 73.256805,390.672607 
	C58.372257,383.630249 48.742439,372.653046 47.114830,355.667633 
	C46.294083,347.102448 48.731041,339.164459 51.870964,331.445312 
	C55.009720,323.729004 58.809532,316.303497 63.628311,309.458344 
	C64.391853,308.373749 65.227524,307.318481 66.161606,306.380920 
	C67.264877,305.273560 68.545547,304.484711 70.145065,305.578857 
	C71.884140,306.768494 71.805305,308.357361 70.981430,309.982330 
	C69.551086,312.803436 67.910667,315.521942 66.558540,318.378235 
	C58.374920,335.665588 62.576801,349.484192 79.079552,359.150726 
	C90.801331,366.016846 103.848198,369.270020 117.097977,370.440491 
	C168.227005,374.957214 217.459335,365.773712 265.376160,348.357910 
	C271.153015,346.258240 276.719818,343.492249 281.612152,339.636719 
	C286.884430,335.481873 287.427063,333.134125 284.261505,327.282776 
	C282.362000,323.771606 280.174561,320.416077 278.112396,316.993134 
	C276.117096,313.681152 274.593628,310.197845 274.177612,305.900299 
z"/>
</svg>