<svg version="1.1" id="Layer_1" xmlns="http://www.w3.org/2000/svg" xmlns:xlink="http://www.w3.org/1999/xlink" x="0px" y="0px"
	 width="100%" viewBox="0 0 336 592" enable-background="new 0 0 336 592" xml:space="preserve">
<path fill="#000000" opacity="1.000000" stroke="none" 
	d="
M226.971069,251.446442 
	C237.923965,257.162811 244.103668,266.639191 249.244598,276.828400 
	C256.386383,290.983246 259.798737,306.058441 260.532532,321.969849 
	C261.377289,340.287598 259.596741,358.071686 250.412796,374.124725 
	C234.151672,402.548279 208.857590,419.178772 177.362427,426.113434 
	C156.063934,430.803009 134.642136,430.366516 114.204941,421.422699 
	C91.387894,411.437408 83.243057,391.834961 85.258682,369.547638 
	C87.391556,345.963867 97.760422,325.218536 109.315407,305.039307 
	C110.461166,303.038330 111.642441,299.852783 114.890656,301.702850 
	C117.832466,303.378479 116.403732,306.115540 115.368530,308.338989 
	C109.883553,320.119873 104.077690,331.833740 101.952499,344.779541 
	C99.792656,357.936371 100.296898,370.896942 109.731354,381.579865 
	C117.966629,390.904877 129.090927,395.223328 141.052643,396.511536 
	C176.849869,400.366608 208.459717,389.647736 236.205368,367.267639 
	C245.581985,359.704285 252.155365,350.214325 250.690689,337.125519 
	C249.959564,330.591980 247.975281,324.559296 244.238312,318.670776 
	C242.147141,320.706482 240.458435,322.459137 238.656525,324.086395 
	C228.773071,333.011871 217.544434,337.303955 204.246887,333.442535 
	C193.448166,330.306732 186.011169,320.034912 187.036926,308.757263 
	C188.765991,289.747223 195.122604,272.451508 208.040909,258.002411 
	C212.972443,252.486526 218.769608,248.998764 226.971069,251.446442 
M215.164169,298.202881 
	C218.508377,297.370697 221.905029,296.645386 224.592148,293.769470 
	C221.515762,289.642639 218.092072,286.353241 213.081848,285.455505 
	C209.633102,284.837585 206.742340,285.983734 205.615646,289.663544 
	C204.467834,293.412201 206.343765,295.759033 209.642395,297.108063 
	C211.154755,297.726562 212.832458,297.940735 215.164169,298.202881 
z"/>
</svg>