<svg version="1.1" id="Layer_1" xmlns="http://www.w3.org/2000/svg" xmlns:xlink="http://www.w3.org/1999/xlink" x="0px" y="0px"
	 width="100%" viewBox="0 0 336 592" enable-background="new 0 0 336 592" xml:space="preserve">
<path fill="#000000" opacity="1.000000" stroke="none" 
	d="
M167.464066,300.418701 
	C164.185577,275.764771 160.375519,251.609848 158.003662,227.314529 
	C156.552597,212.451019 162.165054,198.534744 167.976044,185.013275 
	C168.487793,183.822495 169.297211,182.666000 171.470779,182.522675 
	C174.196930,186.714264 174.084106,191.913544 174.098267,196.594879 
	C174.176605,222.456451 178.507736,247.894806 181.165802,273.495697 
	C183.430099,295.304260 186.105469,317.072754 188.132767,338.902283 
	C189.189392,350.279755 185.823700,361.321228 183.905594,372.433289 
	C182.861588,378.481415 181.679947,384.535217 179.564590,390.338318 
	C178.772217,392.512054 178.176147,395.174927 174.956833,394.424591 
	C171.751114,393.677460 171.439133,391.135071 172.155258,388.504028 
	C176.698990,371.809814 174.028549,355.141510 172.069580,338.471802 
	C170.595657,325.929779 169.051880,313.395935 167.464066,300.418701 
z"/>
<path fill="#000000" opacity="1.000000" stroke="none" 
	d="
M179.190491,124.166351 
	C185.069260,118.146797 192.149765,116.923698 199.695190,117.829178 
	C204.328156,118.385155 207.890884,121.099289 209.153580,125.664513 
	C212.142029,136.469284 211.916473,141.442978 203.477798,149.616837 
	C197.523773,155.384064 190.083115,158.244431 181.755249,158.315247 
	C171.106033,158.405823 160.449371,158.565002 149.820648,157.596664 
	C144.550842,157.116547 140.144882,158.864258 136.954468,163.318787 
	C133.750565,158.522430 136.519867,150.495560 141.951797,147.480209 
	C147.115158,144.613968 152.795563,144.216003 158.452148,144.738495 
	C163.849792,145.237061 167.037552,143.283356 169.328171,138.341354 
	C171.698349,133.227646 175.049744,128.589920 179.190491,124.166351 
M196.926620,139.417709 
	C198.010971,134.209213 194.400085,131.205688 189.007019,133.034546 
	C183.612442,134.863892 180.274170,139.155518 176.084152,144.011597 
	C183.813049,143.651031 190.634811,144.474136 196.926620,139.417709 
z"/>
</svg>