<svg version="1.1" id="Layer_1" xmlns="http://www.w3.org/2000/svg" xmlns:xlink="http://www.w3.org/1999/xlink" x="0px" y="0px"
	 width="100%" viewBox="0 0 336 592" enable-background="new 0 0 336 592" xml:space="preserve">
<path fill="#000000" opacity="1.000000" stroke="none" 
	d="
M179.533051,261.555176 
	C181.181915,276.031708 182.777390,290.058411 184.321686,304.090790 
	C185.375244,313.664062 185.853897,323.332703 187.499557,332.800537 
	C189.531143,344.488800 186.848175,355.647217 184.952133,366.905273 
	C183.630676,374.751526 182.278702,382.639893 179.616333,390.196686 
	C178.791183,392.538757 178.109711,395.427673 174.626419,394.332855 
	C171.535797,393.361511 171.516830,390.777344 172.238312,388.167236 
	C176.711853,371.983002 174.156281,355.762695 172.271851,339.605652 
	C170.000885,320.134460 167.245071,300.720123 164.745789,281.275177 
	C162.627960,264.798004 160.969864,248.249786 158.365143,231.851059 
	C156.449722,219.792053 160.041473,208.793076 163.057800,197.597290 
	C164.048706,193.919342 165.588913,190.375275 167.064224,186.847885 
	C167.807709,185.070297 168.481415,183.034607 171.548798,182.370148 
	C176.374176,195.059097 173.268478,208.542908 175.198425,221.477676 
	C177.157440,234.607239 178.080856,247.891342 179.533051,261.555176 
z"/>
<path fill="#000000" opacity="1.000000" stroke="none" 
	d="
M155.697922,127.049812 
	C157.308533,115.653473 164.807800,108.389648 171.987457,100.995300 
	C175.342072,97.540375 178.947861,94.198235 183.793839,92.880096 
	C188.351273,91.640457 193.136978,90.487823 196.977707,94.358772 
	C201.019287,98.432152 200.924316,103.646660 199.922195,108.882439 
	C199.736847,109.850815 199.280472,110.770340 198.922562,111.702187 
	C196.051193,119.178383 195.520798,119.408470 188.089920,116.100243 
	C183.263367,113.951447 178.476242,112.190834 173.467712,115.662567 
	C169.671219,118.294159 169.566406,120.214531 173.348282,122.759399 
	C182.322281,128.798096 191.624176,132.973709 202.750702,128.530869 
	C205.399292,127.473282 209.152191,125.873062 211.107101,128.454269 
	C213.149551,131.151047 210.573730,134.405487 209.275909,137.229584 
	C207.952515,140.109375 205.696075,141.901566 202.672653,142.904205 
	C187.977173,147.777603 173.587479,153.457336 159.429230,159.706558 
	C150.788071,163.520615 142.553406,163.796600 134.248932,158.581177 
	C127.715225,154.477814 120.897224,155.763687 114.155197,158.608597 
	C111.586052,159.692688 108.318123,162.288284 106.270576,158.517319 
	C104.496765,155.250473 107.950493,153.508469 110.054756,151.841003 
	C121.164963,143.037003 133.102386,140.353287 146.203888,147.366577 
	C149.724380,149.251129 153.298462,149.146225 156.715851,147.270935 
	C159.601898,145.687241 162.317169,143.792313 166.103516,141.408325 
	C160.203476,138.017273 155.420639,134.383316 155.697922,127.049812 
z"/>
</svg>