<svg version="1.1" id="Layer_1" xmlns="http://www.w3.org/2000/svg" xmlns:xlink="http://www.w3.org/1999/xlink" x="0px" y="0px"
	 width="100%" viewBox="0 0 336 592" enable-background="new 0 0 336 592" xml:space="preserve">
<path fill="#000000" opacity="1.000000" stroke="none" 
	d="
M165.955872,189.181061 
	C167.450912,186.500305 167.791550,183.368729 171.402130,182.249115 
	C174.055511,186.900162 174.121780,192.027512 174.128815,196.789856 
	C174.166840,222.487915 178.498642,247.765305 181.125381,273.205902 
	C183.394547,295.183258 186.123642,317.116486 188.121643,339.117157 
	C189.153961,350.484406 185.781067,361.535583 183.832123,372.648407 
	C182.770569,378.701477 181.557571,384.740601 179.471573,390.556488 
	C178.653488,392.837372 177.796432,395.235748 174.673584,394.324646 
	C171.809723,393.489136 171.495178,391.062256 172.151321,388.645721 
	C177.423859,369.226990 173.442154,349.927521 171.201553,330.676971 
	C168.339340,306.085571 164.838043,281.568542 161.613144,257.019348 
	C160.401154,247.793045 159.172684,238.568878 157.986206,229.339294 
	C156.561829,218.258881 160.167862,207.957260 163.029144,197.555725 
	C163.777847,194.833969 164.874115,192.207825 165.955872,189.181061 
z"/>
<path fill="#000000" opacity="1.000000" stroke="none" 
	d="
M175.436020,446.571411 
	C184.930099,453.706390 194.915848,454.085327 205.445404,450.492096 
	C207.267365,449.870331 209.474594,448.855072 211.032547,450.743958 
	C212.652481,452.707886 211.320114,454.875397 210.624146,456.874786 
	C209.059830,461.368530 206.273270,464.341125 201.478180,465.920532 
	C187.556915,470.505798 173.894836,475.818634 160.545074,481.899170 
	C151.531662,486.004639 142.767807,486.840027 133.983734,480.937714 
	C127.600998,476.648987 120.930336,478.502167 114.366272,481.082642 
	C111.762703,482.106140 108.470680,484.813019 106.384109,481.195618 
	C104.366844,477.698364 108.171516,475.886871 110.361870,474.185333 
	C121.345970,465.652679 133.142471,462.624847 146.078476,469.801758 
	C150.200775,472.088837 154.072647,471.553619 157.870056,469.209747 
	C160.272736,467.726807 162.590836,466.106812 164.876495,464.594849 
	C164.929077,462.654480 163.319794,462.413208 162.358688,461.681763 
	C155.474655,456.442627 153.684250,451.296753 157.221268,443.387024 
	C162.167542,432.325836 170.125793,423.510040 180.271484,417.037842 
	C185.110825,413.950684 191.043518,412.928406 196.352219,416.462341 
	C200.349823,419.123535 201.477478,426.482513 199.418655,432.644348 
	C198.839615,434.377350 198.107040,436.059692 197.427292,437.758240 
	C196.267929,440.655304 194.209518,441.375122 191.402649,440.195343 
	C188.947128,439.163208 186.518875,438.063721 184.044510,437.079681 
	C181.485947,436.062195 178.799042,435.803070 176.249176,436.891907 
	C173.972626,437.863983 171.230865,438.902161 170.765305,441.581482 
	C170.260406,444.487213 173.386963,445.004761 175.436020,446.571411 
z"/>
</svg>