<svg version="1.1" id="Layer_1" xmlns="http://www.w3.org/2000/svg" xmlns:xlink="http://www.w3.org/1999/xlink" x="0px" y="0px"
	 width="100%" viewBox="0 0 336 592" enable-background="new 0 0 336 592" xml:space="preserve">
<path fill="#000000" opacity="1.000000" stroke="none" 
	d="
M177.744507,241.858429 
	C168.437744,245.621506 159.503860,249.273026 150.518646,252.793564 
	C148.456223,253.601669 146.101746,255.440857 144.020447,253.407516 
	C141.731857,251.171646 143.848160,248.754532 144.573105,246.485947 
	C146.404678,240.754333 150.667801,237.189529 155.842682,234.692780 
	C155.055832,232.697144 153.441742,232.325241 152.315109,231.415329 
	C147.417419,227.459900 145.272598,222.168610 147.410507,216.348969 
	C152.064224,203.681015 161.024094,194.426559 172.250031,187.341034 
	C175.724014,185.148346 179.953705,185.290146 183.945465,185.772217 
	C188.838150,186.363083 192.060455,191.866409 191.626511,198.619949 
	C191.385513,202.370300 189.710846,205.656311 187.917908,208.861023 
	C186.622360,211.176697 184.700317,211.349197 182.345627,210.487671 
	C179.230301,209.347809 176.356934,207.555283 172.990982,207.073914 
	C171.515686,206.862915 170.099640,206.360825 168.571823,206.879547 
	C165.691010,207.857651 162.388214,208.818787 161.728714,212.032501 
	C161.105255,215.070679 164.609756,215.681473 166.477020,217.110840 
	C175.086243,223.701126 184.478912,224.854233 194.699799,221.297836 
	C197.026535,220.488220 200.196243,218.588440 202.183197,220.775055 
	C204.585464,223.418716 201.768066,226.374130 200.884537,229.073303 
	C199.795609,232.399963 197.428635,234.586349 193.997849,235.767624 
	C188.651215,237.608551 183.393890,239.708878 177.744507,241.858429 
z"/>
</svg>