<svg version="1.1" id="Layer_1" xmlns="http://www.w3.org/2000/svg" xmlns:xlink="http://www.w3.org/1999/xlink" x="0px" y="0px"
	 width="100%" viewBox="0 0 336 592" enable-background="new 0 0 336 592" xml:space="preserve">
<path fill="#000000" opacity="1.000000" stroke="none" 
	d="
M162.054703,330.260193 
	C164.599152,350.985779 159.360260,370.269684 154.495148,389.589752 
	C153.864868,392.092682 153.278870,395.353149 149.459747,394.277679 
	C145.956299,393.291107 146.329971,390.176971 147.048248,387.627411 
	C151.375610,372.267334 149.062103,356.875580 147.248840,341.543396 
	C144.594498,319.099670 141.543213,296.702728 138.636612,274.289032 
	C136.820465,260.284302 134.846344,246.299149 133.147049,232.280487 
	C131.065613,215.109192 136.261459,199.402481 143.304214,184.122696 
	C143.728149,183.202927 144.402542,182.441132 146.082260,182.346573 
	C149.306854,187.319138 148.911331,193.379974 149.003372,198.881882 
	C149.488617,227.887909 154.321518,256.450592 157.168076,285.210388 
	C158.640778,300.089600 160.366821,314.943787 162.054703,330.260193 
z"/>
<path fill="#000000" opacity="1.000000" stroke="none" 
	d="
M219.862701,221.701843 
	C222.066254,221.267136 223.846176,220.842224 225.643021,220.508469 
	C230.023621,219.694733 231.060913,220.869919 229.781418,225.256088 
	C228.210602,230.640945 225.313614,234.477234 219.584274,236.496628 
	C205.468445,241.471909 191.466766,246.790390 177.750671,252.823563 
	C175.751251,253.703018 173.294571,255.541290 171.363312,253.174347 
	C169.680984,251.112473 171.197128,248.754776 172.008911,246.583145 
	C174.064072,241.085327 177.711700,237.002136 183.453537,234.824310 
	C171.834167,223.041641 171.532516,217.284866 181.433884,204.334076 
	C185.693359,198.762772 190.445633,193.644653 196.113724,189.444366 
	C199.416321,186.997009 203.041214,185.651398 207.224335,185.627518 
	C215.952255,185.577698 221.157257,192.308578 218.802292,200.827591 
	C218.449356,202.104263 217.933380,203.342300 217.417252,204.566345 
	C214.352676,211.834442 213.747833,212.058990 206.349152,208.983673 
	C201.501190,206.968582 196.632614,205.167892 191.708710,208.802750 
	C188.206696,211.387985 188.064407,213.198563 191.635757,215.643433 
	C200.047821,221.402115 208.743027,226.259949 219.862701,221.701843 
z"/>
</svg>