<svg version="1.1" id="Layer_1" xmlns="http://www.w3.org/2000/svg" xmlns:xlink="http://www.w3.org/1999/xlink" x="0px" y="0px"
	 width="100%" viewBox="0 0 336 592" enable-background="new 0 0 336 592" xml:space="preserve">
<path fill="#000000" opacity="1.000000" stroke="none" 
	d="
M170.567154,299.116394 
	C175.767441,296.297974 179.977432,298.131104 183.867599,301.042297 
	C191.255554,306.571045 195.192978,314.506836 198.194702,322.879028 
	C204.298264,339.902710 205.882034,357.512421 204.427826,375.472748 
	C201.719940,408.916443 189.867172,438.911743 169.691208,465.511383 
	C160.520035,477.602539 149.468018,487.777191 133.693802,490.735291 
	C125.181442,492.331543 116.708374,491.237335 108.468956,489.109436 
	C98.427368,486.516083 88.937851,482.429535 80.286041,476.593536 
	C79.327461,475.946930 78.419838,475.183319 77.625603,474.344299 
	C76.446487,473.098633 76.470894,471.611816 77.288834,470.194427 
	C78.085220,468.814423 79.399246,468.753082 80.795349,469.092377 
	C85.158089,470.152710 89.531448,471.170898 93.883675,472.272675 
	C104.562737,474.976074 115.219025,474.604950 125.228249,470.203033 
	C159.560593,455.104004 181.606750,429.182251 191.270554,392.981689 
	C193.282135,385.446259 193.646286,377.541931 190.322098,369.982941 
	C188.153717,369.775421 187.364960,371.518585 186.250397,372.590302 
	C177.317612,381.179596 169.443817,383.025208 160.150970,378.605804 
	C150.227707,373.886597 143.900772,363.471832 144.827301,352.696045 
	C145.988831,339.187469 150.752502,326.814117 157.458801,315.139893 
	C160.873444,309.195679 164.601242,303.483215 170.567154,299.116394 
M176.992477,339.960938 
	C175.728912,337.697906 173.724731,336.284607 171.448639,335.221222 
	C168.852707,334.008392 166.215454,333.582214 164.446625,336.421814 
	C162.642410,339.318176 162.562820,342.408997 164.883926,345.138306 
	C166.864136,347.466797 169.317673,347.864136 171.954285,346.181549 
	C174.162399,344.772430 176.636383,343.583466 176.992477,339.960938 
z"/>
<path fill="#000000" opacity="1.000000" stroke="none" 
	d="
M200.835938,237.867386 
	C202.662445,236.695694 204.193970,235.719727 205.535309,234.864960 
	C205.909714,233.789627 205.345551,233.424210 204.824066,233.019836 
	C195.784729,226.010147 194.407776,219.568451 200.434875,209.814362 
	C205.363220,201.838440 211.551956,194.872269 219.107788,189.217484 
	C222.268234,186.852203 225.848297,185.732422 229.796661,185.647461 
	C237.680481,185.477783 239.987350,187.441940 241.541168,195.311066 
	C242.601486,200.680939 240.201599,205.024155 237.733276,209.348297 
	C236.489716,211.526840 234.473114,211.189575 232.445618,210.423996 
	C229.188980,209.194260 226.090317,207.576721 222.604141,206.903580 
	C220.517120,206.500610 218.624176,206.712646 216.774384,207.521591 
	C214.626755,208.460770 212.212296,209.515045 211.724503,211.975266 
	C211.187012,214.685974 214.043671,215.250458 215.643234,216.527237 
	C224.750900,223.797012 234.726425,225.012634 245.639282,221.158920 
	C247.737350,220.417999 250.695190,218.609619 252.577316,221.044937 
	C254.292496,223.264221 252.258377,225.793045 251.466080,228.082458 
	C250.145020,231.899796 247.644989,234.452347 243.704010,235.905472 
	C229.198624,241.253922 214.664047,246.535721 200.507675,252.790817 
	C198.534500,253.662674 196.135010,255.517883 194.107590,253.202576 
	C192.443726,251.302444 193.780197,249.079300 194.584473,247.104507 
	C195.968826,243.705353 197.450912,240.348221 200.835938,237.867386 
z"/>
</svg>