<svg version="1.1" id="Layer_1" xmlns="http://www.w3.org/2000/svg" xmlns:xlink="http://www.w3.org/1999/xlink" x="0px" y="0px"
	 width="100%" viewBox="0 0 336 592" enable-background="new 0 0 336 592" xml:space="preserve">
<path fill="#000000" opacity="1.000000" stroke="none" 
	d="
M195.537155,421.623352 
	C168.425949,435.973846 139.946289,443.801605 109.585487,444.133820 
	C95.679916,444.285950 82.061348,442.337524 69.162018,436.649628 
	C46.991024,426.873474 35.865158,409.099854 36.480663,384.928253 
	C36.853592,370.283173 41.680908,356.885132 47.186611,343.641388 
	C52.181805,331.625671 58.291561,320.162903 65.040237,309.043152 
	C65.987640,307.482117 67.060532,305.982300 68.210373,304.563599 
	C69.167961,303.382111 70.565079,303.371246 71.888802,303.829742 
	C73.470749,304.377655 73.514702,305.778015 73.435776,307.145355 
	C73.306396,309.386963 72.089592,311.239166 71.146179,313.171844 
	C64.714378,326.347961 58.550896,339.618317 55.258942,354.022095 
	C49.059624,381.146851 61.234665,401.621796 87.933006,409.696289 
	C110.183205,416.425476 132.239868,415.040863 154.331497,409.270752 
	C173.868057,404.167969 192.890991,397.649078 210.951065,388.518158 
	C213.178116,387.392242 215.440613,386.272339 217.475250,384.847687 
	C219.549164,383.395569 222.998276,382.477509 222.358063,379.245728 
	C221.766861,376.261322 218.477264,375.953400 215.926514,375.351044 
	C205.880234,372.978546 195.615692,371.905518 185.434647,370.332306 
	C178.533981,369.265991 171.614304,368.236694 165.180435,365.290039 
	C151.266449,358.917542 146.478806,349.005219 150.172180,334.097900 
	C153.578812,320.347961 161.036972,308.729034 169.913528,298.029358 
	C183.481354,281.674927 199.253693,267.991699 219.447586,260.350983 
	C227.115433,257.449707 235.123932,255.778778 243.366058,258.093842 
	C248.927597,259.655975 250.115540,261.658691 248.913940,267.233948 
	C247.178375,275.286713 245.387405,283.327545 243.717331,290.930695 
	C241.799286,291.647552 241.004761,290.920685 240.294525,290.271057 
	C233.339615,283.909698 225.002228,283.922241 216.763306,286.019867 
	C200.729095,290.102051 187.033508,298.399628 175.991379,310.832031 
	C171.388245,316.014771 168.115570,321.808594 166.972672,328.871887 
	C166.151260,333.948303 167.971283,337.203461 171.986267,339.768982 
	C181.497406,345.846527 192.340302,347.784668 203.166702,349.625824 
	C210.533615,350.878662 217.978638,351.674866 225.391510,352.654083 
	C233.974503,353.787872 237.170181,357.086060 238.723236,365.516541 
	C242.008804,383.352051 233.062531,395.573761 220.252426,405.877991 
	C212.721039,411.936066 204.494125,417.042908 195.537155,421.623352 
z"/>
<path fill="#000000" opacity="1.000000" stroke="none" 
	d="
M294.033752,240.138046 
	C283.095428,244.289124 272.459381,248.147797 262.147644,252.841446 
	C260.179993,253.737076 257.809570,255.434998 255.722244,253.138306 
	C253.886826,251.118774 255.557144,249.048538 256.230927,247.083237 
	C258.222321,241.274475 262.132141,237.160568 267.741180,234.861435 
	C267.522888,234.167419 267.521881,233.713303 267.323273,233.597229 
	C255.960190,226.955109 257.158386,217.105927 262.926056,208.456879 
	C267.390442,201.762131 272.772339,195.893539 278.906647,190.699020 
	C281.487366,188.513687 284.314117,186.673233 287.671204,186.162048 
	C292.067261,185.492676 296.897949,184.213654 300.340942,188.181198 
	C304.014740,192.414688 304.150299,197.588409 302.544220,202.797546 
	C302.105713,204.219818 301.324127,205.532471 300.793671,206.930984 
	C299.281830,210.916885 296.654602,211.752945 292.892151,209.962708 
	C290.345001,208.750763 287.743500,207.701752 284.964935,207.006516 
	C281.963776,206.255585 279.351959,206.856918 276.854340,208.364655 
	C272.488464,211.000229 272.489258,212.971085 276.590363,216.069794 
	C285.679993,222.937637 295.438354,225.411621 306.518738,221.360504 
	C308.830872,220.515167 312.004578,218.690384 313.975830,220.899796 
	C316.368866,223.581955 313.530945,226.493942 312.605560,229.190964 
	C311.458344,232.534531 308.991302,234.626083 305.601837,235.778564 
	C301.824188,237.063019 298.125275,238.579071 294.033752,240.138046 
z"/>
</svg>