<svg version="1.1" id="Layer_1" xmlns="http://www.w3.org/2000/svg" xmlns:xlink="http://www.w3.org/1999/xlink" x="0px" y="0px"
	 width="100%" viewBox="0 0 336 592" enable-background="new 0 0 336 592" xml:space="preserve">
<path fill="#000000" opacity="1.000000" stroke="none" 
	d="
M195.778107,395.977203 
	C177.872910,399.652832 160.162231,401.583588 142.349747,401.741302 
	C118.664597,401.951080 95.034309,401.058594 73.029694,390.547882 
	C58.151768,383.441254 48.611160,372.369751 47.116344,355.398102 
	C46.380482,347.043365 48.702942,339.231171 51.804958,331.664490 
	C55.156040,323.490265 59.117069,315.583771 64.394371,308.449615 
	C65.761772,306.601105 67.303886,303.593628 70.320763,305.804993 
	C72.962578,307.741425 70.955498,310.000488 69.854546,311.967743 
	C65.335251,320.043213 61.647282,328.315582 62.887539,337.945587 
	C63.892281,345.747009 68.170753,351.431458 74.293228,355.973663 
	C85.329842,364.161591 98.227013,367.410431 111.422440,369.580261 
	C131.936096,372.953491 152.490616,372.162506 173.083008,369.866211 
	C202.441071,366.592529 231.186508,360.694122 259.063995,350.839905 
	C266.766266,348.117279 274.317413,344.968597 280.971893,340.110626 
	C287.099487,335.637268 287.585907,333.289276 283.956329,326.673828 
	C281.395660,322.006683 278.625946,317.454498 276.046204,312.797424 
	C274.650513,310.277924 273.893127,307.464386 274.361877,304.625061 
	C275.780792,296.030487 279.553986,288.284088 283.020996,280.315247 
	C286.180542,281.552734 287.423248,284.030212 288.638916,286.293762 
	C298.261047,304.209869 301.311493,322.965149 295.030670,342.653961 
	C290.814453,355.870667 281.890045,365.147736 269.852173,371.733917 
	C246.786163,384.353729 221.738205,390.857819 195.778107,395.977203 
z"/>
<path fill="#000000" opacity="1.000000" stroke="none" 
	d="
M153.642578,262.649597 
	C154.089523,249.725830 150.268768,237.884781 148.251572,225.774765 
	C147.047882,218.548660 145.722183,211.300110 147.628601,203.993225 
	C148.129196,202.074493 148.728745,200.122223 149.657990,198.386169 
	C152.134903,193.758698 154.799164,193.652802 157.706436,197.964523 
	C159.009018,199.896393 160.038834,202.018936 161.408798,203.897125 
	C163.668549,206.995178 163.899063,209.699402 161.172409,212.818100 
	C158.267548,216.140594 158.749710,220.601028 159.559753,224.342606 
	C162.064316,235.911209 164.323303,247.447998 163.070999,259.745514 
	C165.890228,259.364166 166.891327,257.475983 168.187683,256.160309 
	C173.604401,250.663010 179.462631,245.780655 186.486938,242.448990 
	C189.196991,241.163620 191.959610,239.938171 194.991501,239.707840 
	C201.671188,239.200348 208.226791,239.405457 212.230270,245.996628 
	C216.966736,253.794617 216.575562,261.975586 212.691711,269.856171 
	C208.656311,278.044250 201.258499,282.801056 193.201324,286.249298 
	C177.703674,292.881866 161.274734,295.444885 144.545135,296.115570 
	C137.703049,296.389923 128.243896,289.632874 125.640434,283.197388 
	C124.133507,279.472443 125.141861,277.737122 129.152954,277.770264 
	C132.133957,277.794891 135.104919,278.411438 138.090759,278.596863 
	C147.310410,279.169464 150.803711,276.527161 152.864517,267.509399 
	C153.196594,266.056244 153.383606,264.569946 153.642578,262.649597 
M197.901871,268.445068 
	C200.000687,267.004059 202.768051,266.272522 203.580154,263.431946 
	C192.806519,253.981827 172.765320,262.917969 164.939865,276.726166 
	C176.559357,276.243134 187.201843,273.828064 197.901871,268.445068 
z"/>
</svg>