<svg version="1.1" id="Layer_1" xmlns="http://www.w3.org/2000/svg" xmlns:xlink="http://www.w3.org/1999/xlink" x="0px" y="0px"
	 width="100%" viewBox="0 0 336 592" enable-background="new 0 0 336 592" xml:space="preserve">
<path fill="#000000" opacity="1.000000" stroke="none" 
	d="
M296.580078,336.312927 
	C293.389069,352.737549 283.994873,363.933197 269.960236,371.668060 
	C247.828659,383.865356 223.760254,390.196350 199.260422,395.320831 
	C180.312531,399.284027 161.154327,401.626923 141.836243,401.766693 
	C118.493805,401.935577 95.191093,401.008881 73.462708,390.775482 
	C58.387405,383.675568 48.643761,372.591766 47.097473,355.397919 
	C46.344482,347.025085 48.732151,339.234863 51.803574,331.665558 
	C54.999027,323.790558 58.891537,316.234894 63.773281,309.234406 
	C64.153709,308.688843 64.528084,308.125824 64.988480,307.651733 
	C66.460800,306.135559 67.835945,303.884338 70.348320,305.779938 
	C72.519333,307.417938 71.268593,309.330566 70.303566,311.110260 
	C67.128601,316.965607 64.202705,322.825287 63.093746,329.588837 
	C61.270695,340.707672 65.349678,349.076447 73.922798,355.692535 
	C83.410591,363.014496 94.584511,366.318268 106.064301,368.601562 
	C133.210556,374.000763 160.339783,372.019989 187.447708,368.027740 
	C213.840286,364.140869 239.770859,358.425079 264.677460,348.658051 
	C270.570343,346.347168 276.341736,343.699524 281.403137,339.799408 
	C286.973328,335.507263 287.497864,333.212799 284.172699,327.083038 
	C281.634521,322.404053 278.872437,317.846924 276.237091,313.220154 
	C274.803467,310.703156 273.898315,307.881683 274.308289,305.088165 
	C275.598572,296.296936 279.491302,288.409180 283.626038,278.948181 
	C296.127930,297.039276 301.037079,315.362946 296.580078,336.312927 
z"/>
<path fill="#000000" opacity="1.000000" stroke="none" 
	d="
M176.130524,244.925018 
	C169.827576,239.907425 169.897476,239.957809 165.443344,246.136734 
	C155.232300,260.301819 157.865677,259.993378 143.448242,249.766602 
	C134.516861,243.431259 134.590942,243.248535 140.338287,234.014267 
	C142.357254,230.770401 144.776566,227.771118 146.725189,224.489227 
	C149.138901,220.424057 151.997238,220.508560 155.352493,223.073273 
	C160.096954,226.699905 164.819305,230.355469 170.247314,234.534698 
	C173.485733,230.159256 176.682648,225.805206 179.916901,221.479065 
	C183.747803,216.354889 184.658295,216.182541 189.969711,219.997696 
	C193.885086,222.810059 197.670486,225.802841 201.530228,228.693283 
	C204.406876,230.847504 204.914871,233.359314 203.029373,236.484299 
	C199.935822,241.611481 196.939316,246.794724 193.241043,251.528244 
	C191.279846,254.038437 189.187012,254.655472 186.462112,252.520370 
	C183.191284,249.957458 179.763885,247.594360 176.130524,244.925018 
z"/>
<path fill="#000000" opacity="1.000000" stroke="none" 
	d="
M177.285583,294.201233 
	C175.375458,295.770844 173.620514,295.659668 171.920227,294.625977 
	C166.652725,291.423553 161.461700,288.111572 156.819595,284.009186 
	C154.790298,282.215851 154.189941,280.284760 155.664139,277.849762 
	C158.942108,272.435272 162.222855,267.032135 166.287949,262.143707 
	C168.648590,259.304962 171.136642,259.058655 174.121094,261.144928 
	C178.492767,264.200989 182.791046,267.330353 186.801270,270.866577 
	C189.505859,273.251526 189.941681,275.715546 188.044479,278.776520 
	C184.796982,284.016113 181.618286,289.296082 177.285583,294.201233 
z"/>
</svg>