<svg version="1.1" id="Layer_1" xmlns="http://www.w3.org/2000/svg" xmlns:xlink="http://www.w3.org/1999/xlink" x="0px" y="0px"
	 width="100%" viewBox="0 0 336 592" enable-background="new 0 0 336 592" xml:space="preserve">
<path fill="#000000" opacity="1.000000" stroke="none" 
	d="
M275.633453,298.873474 
	C278.065247,292.476440 279.942352,286.270264 282.985260,280.569427 
	C285.654816,280.798218 286.531036,282.838470 287.446747,284.436005 
	C299.301697,305.118134 302.337189,326.547729 292.371796,348.885010 
	C287.766937,359.206726 279.695496,366.239655 269.992889,371.615112 
	C247.882568,383.864685 223.791336,390.160461 199.295013,395.323059 
	C179.855331,399.419952 160.180130,401.733917 140.372162,401.806213 
	C117.373718,401.890167 94.389198,400.834625 73.036133,390.561646 
	C58.376888,383.509064 48.838783,372.684265 47.149300,355.910309 
	C46.570072,350.159454 47.485615,344.633362 49.154724,339.209961 
	C52.560490,328.143738 57.711842,317.901367 64.382492,308.456940 
	C65.704979,306.584503 67.273117,303.603882 70.302803,305.789429 
	C72.975990,307.717804 70.958961,309.963043 69.880699,311.945557 
	C66.772522,317.660400 64.073235,323.420654 63.061398,330.032104 
	C61.384521,340.988922 65.475929,349.205750 73.910004,355.650391 
	C85.120232,364.216461 98.380852,367.454834 111.925621,369.641052 
	C132.286484,372.927460 152.669769,372.107971 173.099686,369.835602 
	C202.629211,366.551147 231.534836,360.610565 259.561615,350.674591 
	C267.101746,348.001526 274.488861,344.876312 280.997223,340.100616 
	C287.108368,335.616364 287.595978,333.276825 283.937225,326.653351 
	C281.764740,322.720428 279.375214,318.907623 277.093933,315.034515 
	C274.139740,310.018951 273.369720,304.784515 275.633453,298.873474 
z"/>
<path fill="#000000" opacity="1.000000" stroke="none" 
	d="
M135.208725,447.256531 
	C138.360245,440.765991 142.385544,435.262604 146.325165,429.687500 
	C148.627960,426.428741 150.988312,426.460144 153.851700,428.684509 
	C158.706055,432.455444 163.576096,436.206146 168.881882,440.307312 
	C172.766434,436.564331 175.487274,431.811188 178.790787,427.552704 
	C182.945908,422.196472 183.581223,421.999908 189.182053,426.048828 
	C193.090591,428.874359 196.829697,431.933441 200.665558,434.860565 
	C203.343216,436.903931 203.895309,439.263641 202.129196,442.236847 
	C199.067276,447.391510 195.967682,452.509491 192.350616,457.308594 
	C190.209518,460.149414 187.996689,460.461365 185.164627,458.312347 
	C179.893570,454.312561 174.531281,450.433014 168.771652,446.182159 
	C165.313797,450.961792 162.045288,455.316345 158.959534,459.796783 
	C156.503510,463.362885 153.846634,464.153076 150.245804,461.345581 
	C146.310654,458.277435 142.177444,455.464600 138.199890,452.449036 
	C136.620911,451.251892 135.008072,449.947998 135.208725,447.256531 
z"/>
<path fill="#000000" opacity="1.000000" stroke="none" 
	d="
M166.342819,497.793274 
	C162.719345,495.107605 159.363144,492.678741 156.095093,490.136566 
	C153.646011,488.231476 153.134857,485.924347 154.886719,483.172302 
	C158.271271,477.855408 161.612900,472.520172 165.655899,467.653961 
	C167.593552,465.321777 169.622589,464.970276 172.163101,466.579254 
	C177.220001,469.781921 181.971069,473.373535 186.398590,477.402008 
	C188.587387,479.393585 188.794937,481.631165 187.355133,484.102203 
	C184.347794,489.263367 181.220734,494.349121 177.416519,498.975342 
	C173.373215,503.892395 170.099701,499.863251 166.342819,497.793274 
z"/>
</svg>