<svg version="1.1" id="Layer_1" xmlns="http://www.w3.org/2000/svg" xmlns:xlink="http://www.w3.org/1999/xlink" x="0px" y="0px"
	 width="100%" viewBox="0 0 336 592" enable-background="new 0 0 336 592" xml:space="preserve">
<path fill="#000000" opacity="1.000000" stroke="none" 
	d="
M202.722183,365.619568 
	C224.057175,361.454407 244.793304,356.689026 264.628662,348.687592 
	C270.962677,346.132568 277.173126,343.295776 282.541412,338.916351 
	C286.311707,335.840546 287.314056,332.367340 284.712433,328.002594 
	C281.816071,323.143311 279.050232,318.205444 276.276123,313.274445 
	C274.775970,310.607910 273.882935,307.669830 274.348328,304.654877 
	C275.679810,296.028870 279.754272,288.387482 282.925690,280.079498 
	C287.028442,282.436920 288.648682,285.934448 290.257538,289.321960 
	C299.559509,308.907532 301.591797,328.799652 292.322449,349.023651 
	C287.616150,359.291901 279.571167,366.320038 269.861725,371.680573 
	C247.737991,383.894989 223.658066,390.207581 199.155380,395.339020 
	C180.206573,399.307343 161.043549,401.625458 141.732681,401.774414 
	C118.392105,401.954468 95.083916,401.000488 73.369339,390.718323 
	C58.499363,383.677216 48.847710,372.764954 47.101284,355.784149 
	C46.630531,351.206970 47.179958,346.756134 48.274082,342.454071 
	C51.340580,330.396576 56.852802,319.392914 63.872898,309.164948 
	C65.263145,307.139404 66.744514,303.744171 69.971375,305.624237 
	C73.444832,307.647980 70.745529,310.281342 69.551186,312.467346 
	C65.192101,320.445923 61.716049,328.608704 62.923187,338.041840 
	C63.899235,345.669098 68.065369,351.244415 73.992218,355.727997 
	C85.103539,364.133575 98.175186,367.391602 111.537933,369.590881 
	C131.381973,372.856812 151.284119,372.234894 171.217026,370.065674 
	C181.633606,368.932129 191.981857,367.455536 202.722183,365.619568 
z"/>
<path fill="#000000" opacity="1.000000" stroke="none" 
	d="
M151.963364,464.034088 
	C146.609268,460.650513 141.404373,457.062164 136.486053,453.058136 
	C133.555618,450.672424 132.888565,448.016724 135.048248,444.787445 
	C138.195099,440.082092 141.310425,435.355621 144.454819,430.648621 
	C146.651871,427.359741 149.256027,426.886444 152.420532,429.411011 
	C156.065628,432.319061 160.031082,434.870483 163.415253,438.047699 
	C166.651917,441.086456 168.595581,440.472656 170.797302,437.030151 
	C173.127060,433.387482 175.848999,429.997314 178.351532,426.462799 
	C180.374237,423.605957 182.724854,423.121796 185.554810,425.265015 
	C190.066544,428.681854 194.570053,432.109894 199.106232,435.494019 
	C201.922134,437.594818 201.994797,440.013306 200.356949,442.914612 
	C196.839722,449.144989 193.059326,455.196075 188.132889,461.161957 
	C192.511414,464.582092 196.583984,467.924896 200.829483,471.031342 
	C204.615723,473.801788 205.394989,476.820038 202.651840,480.798615 
	C199.817535,484.909363 197.180908,489.157898 194.507202,493.377502 
	C192.065674,497.230560 189.357742,498.061676 185.570511,494.885071 
	C181.747253,491.678284 177.542664,488.930664 173.612061,485.845673 
	C171.084198,483.861664 169.225555,484.123413 167.423508,486.796875 
	C164.910400,490.525360 162.183472,494.109009 159.621857,497.805786 
	C157.739822,500.521851 155.481964,500.912048 152.763123,499.182739 
	C147.839249,496.050903 143.043030,492.746857 138.682068,488.844330 
	C137.217316,487.533569 135.896286,485.806946 136.869736,484.052521 
	C140.867645,476.847229 144.227890,469.124817 151.932831,464.260315 
	C158.972656,467.905914 164.130981,473.181702 170.447769,477.746002 
	C175.055634,471.604492 179.496246,465.685913 184.151932,459.480652 
	C182.041901,457.894897 180.175140,456.237793 178.074112,454.968536 
	C174.286530,452.680511 171.348053,447.183716 167.124725,448.064026 
	C163.061859,448.910980 161.839645,454.880981 158.856064,458.204926 
	C156.824707,460.468048 155.850342,463.968536 151.963364,464.034088 
z"/>
</svg>