<svg version="1.1" id="Layer_1" xmlns="http://www.w3.org/2000/svg" xmlns:xlink="http://www.w3.org/1999/xlink" x="0px" y="0px"
	 width="100%" viewBox="0 0 336 592" enable-background="new 0 0 336 592" xml:space="preserve">
<path fill="#000000" opacity="1.000000" stroke="none" 
	d="
M80.669006,504.221008 
	C69.722351,486.066193 68.424774,466.549011 70.321686,446.468079 
	C74.662285,400.517792 101.254921,369.487030 138.123627,345.345795 
	C139.098114,344.707703 140.081787,344.078766 141.011368,343.379364 
	C141.382050,343.100403 141.617310,342.641418 142.451416,341.582184 
	C121.579330,335.790314 101.208572,336.411835 80.821327,341.886505 
	C78.978355,338.178558 81.290146,335.344421 81.434441,332.357147 
	C82.053856,319.534363 90.579300,314.725800 101.431015,311.590698 
	C115.726349,307.460754 130.053085,308.140350 144.475998,310.167206 
	C164.047028,312.917511 183.403885,317.651215 203.380142,316.639130 
	C214.174377,316.092255 224.889572,314.323120 235.744934,314.633087 
	C242.544632,314.827301 243.695938,316.323242 240.393814,322.449799 
	C230.531174,340.748352 235.998840,336.973602 212.954102,340.095581 
	C187.122406,343.595093 162.191711,349.394623 139.500671,362.623383 
	C119.835564,374.088043 102.255470,387.919708 91.431572,408.638733 
	C73.206718,443.524628 85.445465,483.656860 119.830132,502.770264 
	C135.515625,511.489349 152.520386,515.841125 170.018768,518.545166 
	C194.999435,522.405334 220.031677,522.322388 245.101059,519.048828 
	C253.832047,517.908813 262.656158,517.468323 271.443787,516.786377 
	C273.365326,516.637268 275.333160,517.141541 275.799591,519.294067 
	C276.260681,521.422058 274.289978,522.081421 272.802582,522.692688 
	C249.229813,532.380676 225.339127,541.278870 200.522842,547.127991 
	C189.297592,549.773743 177.636658,547.401306 166.240372,546.242920 
	C148.122269,544.401184 130.447769,540.735779 113.845299,532.742981 
	C100.304985,526.224365 89.148209,517.101685 80.669006,504.221008 
z"/>
<path fill="#000000" opacity="1.000000" stroke="none" 
	d="
M180.667023,258.155518 
	C186.754669,258.326080 192.026367,256.011139 197.576965,255.130875 
	C202.760757,254.308777 203.744492,255.302078 202.271362,260.194519 
	C200.620712,265.676544 197.396057,269.201263 191.772018,271.182495 
	C177.806351,276.102295 163.972473,281.406281 150.389008,287.334839 
	C148.355621,288.222321 146.024765,289.967102 143.927841,287.874268 
	C141.812119,285.762726 143.792313,283.523621 144.484344,281.410034 
	C146.357193,275.689972 150.264694,271.794556 156.065735,269.312286 
	C155.444077,268.542450 155.151718,267.918091 154.660858,267.611115 
	C143.990234,260.937927 145.576630,251.465027 150.778687,243.468918 
	C155.540604,236.149292 161.423157,229.827576 168.213852,224.358246 
	C170.568954,222.461441 173.220306,221.196030 176.250900,220.559662 
	C187.591782,218.178284 194.412521,225.638031 190.904160,236.773239 
	C190.307678,238.666428 189.342545,240.444397 188.534988,242.269958 
	C187.195938,245.297134 184.925613,245.933548 181.979584,244.795822 
	C179.650940,243.896530 177.303284,243.041809 175.003906,242.072739 
	C172.922638,241.195572 170.732224,241.043854 168.625015,241.465576 
	C165.622986,242.066391 162.506287,243.317032 161.725250,246.488174 
	C160.948318,249.642578 164.369705,250.301315 166.304626,251.589554 
	C170.614502,254.458954 175.215439,256.794434 180.667023,258.155518 
z"/>
</svg>