<svg version="1.1" id="Layer_1" xmlns="http://www.w3.org/2000/svg" xmlns:xlink="http://www.w3.org/1999/xlink" x="0px" y="0px"
	 width="100%" viewBox="0 0 336 592" enable-background="new 0 0 336 592" xml:space="preserve">
<path fill="#000000" opacity="1.000000" stroke="none" 
	d="
M106.620346,310.383362 
	C121.800766,306.934357 136.490570,308.816010 151.137787,311.158539 
	C168.540894,313.941742 185.857727,317.538879 203.628510,316.627747 
	C214.254593,316.082947 224.804688,314.366821 235.490494,314.632141 
	C242.621384,314.809235 243.757477,316.281403 240.291946,322.671143 
	C230.526855,340.675873 236.047150,336.960571 212.718430,340.124023 
	C187.061066,343.603180 162.322037,349.434143 139.730881,362.484589 
	C123.452621,371.888245 108.704430,383.159271 97.558380,398.606842 
	C72.700813,433.057465 78.151085,485.284576 128.040527,506.939392 
	C144.829910,514.226868 162.500137,517.691040 180.607407,519.868958 
	C205.628754,522.878601 230.408630,520.976562 255.220840,517.906677 
	C260.496552,517.253967 265.834564,517.084961 271.148499,516.772034 
	C273.036316,516.660889 275.053955,516.923035 275.704254,519.018127 
	C276.476837,521.507202 274.205170,522.122375 272.620636,522.773926 
	C249.205399,532.402954 225.449417,541.173096 200.827835,547.091980 
	C189.604309,549.790100 177.949265,547.392822 166.549957,546.265930 
	C147.234650,544.356445 128.430298,540.385986 111.000748,531.316345 
	C91.202621,521.014282 77.029358,505.689728 72.214821,483.719574 
	C66.348450,456.949585 69.401009,430.675049 81.409943,405.855225 
	C93.899628,380.041809 113.813866,360.971588 137.623367,345.626862 
	C139.142181,344.647980 140.899155,343.965057 142.325058,341.589874 
	C121.518456,335.671326 101.022720,336.550842 80.565971,341.858307 
	C78.815811,329.242493 85.163155,317.761292 95.744278,313.723358 
	C99.149261,312.424011 102.721458,311.562805 106.620346,310.383362 
z"/>
<path fill="#000000" opacity="1.000000" stroke="none" 
	d="
M157.883728,270.166168 
	C161.133224,264.678711 164.159378,259.483826 168.144928,254.971878 
	C170.357758,252.466766 169.895065,250.674576 167.360611,248.807526 
	C163.877838,246.241882 160.524185,243.500839 157.117615,240.831894 
	C154.444992,238.737976 154.008423,236.179535 155.794464,233.359238 
	C158.999268,228.298599 162.270096,223.278778 165.579315,218.285645 
	C167.329391,215.645035 169.612518,214.970520 172.405716,216.797150 
	C177.430344,220.083038 182.254440,223.620209 186.719376,227.654434 
	C188.968369,229.686478 189.092056,231.745346 187.697632,234.304962 
	C184.663193,239.874969 181.498795,245.367279 177.259796,250.108627 
	C174.816650,252.841324 175.340286,254.446869 178.293732,256.352325 
	C181.918289,258.690765 185.227371,261.520966 188.652481,264.164948 
	C191.146896,266.090546 191.620453,268.270691 189.860291,271.089478 
	C186.684265,276.175629 183.597076,281.308228 179.946411,286.083649 
	C177.991318,288.641113 175.905426,289.224060 173.097748,287.394836 
	C168.351776,284.302765 163.624802,281.200317 159.338165,277.473389 
	C157.098206,275.525909 155.923904,273.373444 157.883728,270.166168 
z"/>
</svg>