<svg version="1.1" id="Layer_1" xmlns="http://www.w3.org/2000/svg" xmlns:xlink="http://www.w3.org/1999/xlink" x="0px" y="0px"
	 width="100%" viewBox="0 0 336 592" enable-background="new 0 0 336 592" xml:space="preserve">
<path fill="#000000" opacity="1.000000" stroke="none" 
	d="
M202.810089,316.653595 
	C214.243210,316.020691 225.128571,314.287201 236.149612,314.636719 
	C242.329239,314.832672 243.270462,316.259979 240.710510,321.940338 
	C233.802078,337.269745 232.537567,338.192841 213.076691,340.255463 
	C187.142731,343.004059 162.317780,349.407532 139.581223,362.559448 
	C123.453178,371.888672 108.839287,383.073181 97.757484,398.345856 
	C72.628242,432.978394 78.178017,485.091614 127.757095,506.817535 
	C144.524506,514.165161 162.191010,517.667358 180.299728,519.858398 
	C205.656158,522.926453 230.771118,520.938721 255.918991,517.869873 
	C261.194794,517.226013 266.535217,517.083374 271.851105,516.812500 
	C273.614838,516.722595 275.288239,517.353882 275.771088,519.242065 
	C276.257416,521.143860 274.650360,521.875854 273.275269,522.434998 
	C249.215973,532.217773 224.984802,541.649048 199.563583,547.193420 
	C188.654968,549.572632 177.337814,547.381653 166.269592,546.242737 
	C147.304520,544.291199 128.808609,540.453735 111.642517,531.618286 
	C84.980980,517.895569 71.026558,496.076538 69.729195,466.169891 
	C67.380173,412.020721 94.095436,374.184174 137.457245,345.723145 
	C138.570007,344.992798 139.708160,344.298981 140.793686,343.530518 
	C141.182861,343.254974 141.451416,342.809113 142.436996,341.687988 
	C121.434357,335.555145 100.971184,336.629913 80.537704,341.846161 
	C78.882881,328.797333 85.250366,317.918243 96.236954,313.497894 
	C111.970894,307.167542 128.136078,307.870056 144.435257,310.154358 
	C163.675323,312.850830 182.694580,317.509613 202.810089,316.653595 
z"/>
<path fill="#000000" opacity="1.000000" stroke="none" 
	d="
M146.875488,448.167603 
	C137.404861,441.062408 137.380188,441.046753 143.648102,431.170441 
	C145.516464,428.226410 147.687256,425.471436 149.502289,422.497284 
	C152.061859,418.303131 154.976151,418.411438 158.494263,421.243988 
	C163.123260,424.970917 167.847977,428.579010 172.961929,432.574524 
	C176.567795,427.722412 180.135880,423.178375 183.407715,418.430206 
	C185.672226,415.143890 188.016266,414.605255 191.286713,416.925476 
	C196.032806,420.292633 200.801880,423.614410 205.146927,427.506287 
	C206.974365,429.143097 207.678406,430.856964 206.327255,433.192566 
	C203.080734,438.804443 199.826370,444.392822 195.817062,449.525604 
	C193.658585,452.288971 191.560883,452.167694 189.030136,450.237946 
	C185.066071,447.215332 180.918533,444.418243 177.097946,441.227234 
	C173.868393,438.529846 171.609314,438.214539 169.282379,442.321350 
	C167.326523,445.773254 164.681320,448.829224 162.423752,452.117096 
	C160.228409,455.314331 157.729446,456.042786 154.486420,453.560822 
	C152.113342,451.744690 149.610977,450.097443 146.875488,448.167603 
z"/>
</svg>