<svg version="1.1" id="Layer_1" xmlns="http://www.w3.org/2000/svg" xmlns:xlink="http://www.w3.org/1999/xlink" x="0px" y="0px"
	 width="100%" viewBox="0 0 336 592" enable-background="new 0 0 336 592" xml:space="preserve">
<path fill="#000000" opacity="1.000000" stroke="none" 
	d="
M240.290268,315.086182 
	C242.935730,317.086945 242.047104,319.222198 241.056778,321.142883 
	C238.767944,325.581848 236.268982,329.911926 233.905731,334.313263 
	C232.129791,337.620758 228.836441,337.737549 225.756592,338.291260 
	C209.077301,341.289825 192.037720,342.267975 175.717972,347.286346 
	C147.137711,356.074890 121.836479,370.167847 101.940834,392.955994 
	C82.557632,415.157196 77.614113,447.344391 89.878937,472.301453 
	C97.983299,488.792542 111.554855,499.506195 127.956039,506.855896 
	C144.664200,514.343201 162.392975,517.700623 180.511322,519.870178 
	C205.541763,522.867554 230.331451,520.990417 255.155029,517.927551 
	C260.596802,517.256165 266.104919,517.095154 271.587952,516.800720 
	C273.528473,516.696472 275.429199,517.275818 275.817139,519.461060 
	C276.144714,521.306152 274.446106,521.976196 273.071289,522.539001 
	C249.176468,532.321411 225.036270,541.527893 199.818573,547.210144 
	C188.911469,549.667847 177.591721,547.377258 166.518890,546.263855 
	C147.541870,544.355652 129.042648,540.522583 111.853951,531.729614 
	C84.960655,517.972168 70.970856,496.014160 69.720108,465.888062 
	C67.479782,411.926727 94.157135,374.229523 137.296173,345.797424 
	C138.918884,344.727966 140.909348,344.101532 142.196960,341.526611 
	C121.520355,335.763733 101.129295,336.431763 80.169014,342.068176 
	C79.709312,336.050934 82.152802,331.348511 82.829277,326.389954 
	C83.581406,320.876801 86.925400,317.670135 91.787605,315.344635 
	C106.300095,308.403625 121.588280,307.550598 137.200714,309.239197 
	C159.157089,311.613953 180.697647,317.686462 203.037949,316.651215 
	C213.340042,316.173828 223.557587,314.376617 233.908188,314.653992 
	C235.903152,314.707458 237.896545,314.820770 240.290268,315.086182 
z"/>
<path fill="#000000" opacity="1.000000" stroke="none" 
	d="
M186.758087,419.624512 
	C183.558334,424.723053 180.940430,429.782898 176.955429,433.879059 
	C174.607269,436.292633 175.508209,437.811310 178.010681,439.320587 
	C182.005249,441.729767 185.690292,444.578247 189.139603,447.731689 
	C191.114044,449.536743 191.788925,451.479004 190.208954,453.886353 
	C186.834244,459.028381 183.530533,464.217682 180.102173,469.323456 
	C178.554733,471.627960 176.586975,472.807922 173.789398,471.001984 
	C168.754898,467.752075 163.773880,464.445709 159.208878,460.535217 
	C156.804474,458.475525 156.332596,456.301483 157.958511,453.528320 
	C161.074463,448.213745 164.160736,442.865631 168.279770,438.260590 
	C170.616348,435.648254 170.555328,433.973694 167.513824,431.961060 
	C163.918793,429.582123 160.627609,426.738159 157.248108,424.041412 
	C154.869904,422.143677 154.164932,419.915771 155.789795,417.052460 
	C158.912979,411.548798 162.163635,406.144989 166.078079,401.150970 
	C167.966888,398.741241 170.018311,398.369171 172.544510,400.036652 
	C177.689789,403.432953 182.573792,407.150024 187.155685,411.291168 
	C190.344131,414.172882 188.163239,416.671265 186.758087,419.624512 
z"/>
</svg>