<svg version="1.1" id="Layer_1" xmlns="http://www.w3.org/2000/svg" xmlns:xlink="http://www.w3.org/1999/xlink" x="0px" y="0px"
	 width="100%" viewBox="0 0 336 592" enable-background="new 0 0 336 592" xml:space="preserve">
<path fill="#000000" opacity="1.000000" stroke="none" 
	d="
M160.871735,516.957275 
	C185.984268,521.421082 210.768799,522.987244 235.768463,519.897522 
	C246.160538,518.613098 256.617462,517.849426 267.048767,516.890991 
	C268.702789,516.738892 270.379181,516.747192 272.041962,516.794983 
	C273.826965,516.846191 275.489960,517.473938 275.838440,519.385803 
	C276.174591,521.230469 274.541107,521.954407 273.161652,522.517883 
	C266.999451,525.034973 260.893494,527.726440 254.611649,529.906738 
	C239.837448,535.034485 224.925156,539.765137 210.161362,544.921692 
	C195.753601,549.953918 181.166245,547.595825 166.653076,546.249634 
	C147.499313,544.473083 128.855667,540.496216 111.545296,531.573853 
	C85.082489,517.933960 71.118965,496.259674 69.752777,466.569580 
	C67.252541,412.234375 93.964386,374.213287 137.539093,345.681030 
	C139.056870,344.687195 140.805252,343.998535 142.384003,341.628754 
	C121.535248,335.613220 101.071739,336.568420 80.659813,341.847687 
	C78.625076,330.086121 85.204582,317.987915 95.155991,313.866241 
	C111.146301,307.243347 127.648415,307.758759 144.296310,310.119873 
	C163.861435,312.894684 183.213333,317.620361 203.187057,316.643433 
	C213.981247,316.115448 224.694336,314.339294 235.547760,314.630493 
	C242.458191,314.815948 243.393677,316.147064 240.538803,322.302032 
	C233.421692,337.646240 232.689987,338.154541 212.678467,340.294922 
	C186.922791,343.049622 162.235489,349.403351 139.681152,362.520416 
	C120.156456,373.875519 102.641022,387.537781 91.778954,408.011230 
	C72.968163,443.466858 85.304642,483.846039 120.496902,503.138031 
	C133.068039,510.029358 146.570282,513.934082 160.871735,516.957275 
z"/>
<path fill="#000000" opacity="1.000000" stroke="none" 
	d="
M177.788483,275.260986 
	C174.314697,271.852905 171.741699,271.960144 169.268082,276.084351 
	C167.134766,279.641235 164.444962,282.861542 162.051422,286.265991 
	C160.289566,288.771942 158.219177,289.175232 155.625732,287.543915 
	C150.544907,284.347961 145.666595,280.886902 141.114868,276.963806 
	C139.056808,275.190002 138.487076,273.247406 139.913635,270.814240 
	C143.199493,265.209839 146.668274,259.735626 150.674942,254.604019 
	C152.860291,251.805069 155.187302,252.231613 157.600601,254.032288 
	C162.641296,257.793365 167.625122,261.630615 173.122009,265.808777 
	C176.644470,261.097382 180.108734,256.684509 183.321762,252.095749 
	C185.848358,248.487274 188.524384,247.858795 192.053024,250.658752 
	C196.093185,253.864609 200.216064,256.969757 204.371429,260.025604 
	C207.272995,262.159454 208.016602,264.559998 205.949844,267.701721 
	C202.841721,272.426392 199.848175,277.226349 196.745193,281.954437 
	C194.497162,285.379852 191.859283,286.035706 188.464401,283.252655 
	C185.121109,280.511932 181.543869,278.056580 177.788483,275.260986 
z"/>
<path fill="#000000" opacity="1.000000" stroke="none" 
	d="
M157.484833,220.528778 
	C165.187408,209.525314 165.187408,209.525314 175.882095,217.381531 
	C187.011185,225.556854 187.011185,225.556854 179.657516,237.351288 
	C171.770996,250.000397 171.341599,250.091904 159.719803,241.105499 
	C147.730896,231.835297 149.284363,233.317032 156.450790,222.073151 
	C156.718994,221.652359 157.001709,221.240799 157.484833,220.528778 
z"/>
</svg>