<svg version="1.1" id="Layer_1" xmlns="http://www.w3.org/2000/svg" xmlns:xlink="http://www.w3.org/1999/xlink" x="0px" y="0px"
	 width="100%" viewBox="0 0 336 592" enable-background="new 0 0 336 592" xml:space="preserve">
<path fill="#000000" opacity="1.000000" stroke="none" 
	d="
M82.887589,326.196747 
	C83.702721,320.649200 86.982277,317.737732 91.441742,315.540344 
	C105.883316,308.424164 121.198456,307.515320 136.793732,309.175110 
	C158.909729,311.528900 180.600555,317.704834 203.097061,316.637024 
	C214.057022,316.116791 224.936523,314.308014 235.955490,314.634918 
	C242.455490,314.827728 243.349838,316.200989 240.585922,322.213898 
	C233.559036,337.500885 232.547256,338.192078 212.787125,340.288055 
	C187.029724,343.020264 162.376602,349.436920 139.776062,362.460388 
	C123.634109,371.762146 109.017410,382.934845 97.883369,398.158875 
	C72.629669,432.689331 78.001228,485.175842 127.985786,506.916199 
	C144.769455,514.216125 162.430023,517.704895 180.541245,519.873047 
	C205.562164,522.868347 230.341370,520.987183 255.155029,517.929565 
	C260.594818,517.259216 266.100616,517.097412 271.581421,516.801270 
	C273.522552,516.696411 275.421112,517.276794 275.814270,519.456482 
	C276.146729,521.299927 274.452271,521.974548 273.075348,522.535522 
	C249.176788,532.272217 225.064941,541.525574 199.857788,547.208374 
	C188.952240,549.666870 177.640625,547.372314 166.572342,546.267639 
	C147.601227,544.374329 129.115463,540.530396 111.921303,531.769409 
	C92.244179,521.743286 78.308937,506.820312 72.553787,485.198303 
	C68.514931,470.024414 68.742821,454.539856 71.145714,439.128632 
	C77.691071,397.149323 103.167305,368.489014 137.149170,345.889862 
	C138.395874,345.060791 139.683731,344.292511 140.914215,343.440765 
	C141.306549,343.169189 141.575134,342.718872 142.485336,341.687378 
	C132.077301,338.343597 121.735741,337.630737 111.399445,337.427521 
	C100.960548,337.222321 90.763779,339.757355 80.093811,341.742065 
	C79.775505,335.991455 82.095749,331.420990 82.887589,326.196747 
z"/>
<path fill="#000000" opacity="1.000000" stroke="none" 
	d="
M189.999725,396.853912 
	C195.244751,400.163544 199.896347,403.659973 204.444687,407.318481 
	C207.424820,409.715607 208.094772,412.287720 206.008026,415.537109 
	C203.130310,420.018158 200.236816,424.489899 197.424072,429.011627 
	C194.984406,432.933685 192.230850,433.657959 188.467484,430.563477 
	C184.741425,427.499664 180.563202,424.973206 176.930725,421.811829 
	C173.764404,419.056213 171.927734,419.792511 169.899673,423.022644 
	C167.690308,426.541565 165.087311,429.811829 162.694534,433.217590 
	C160.631973,436.153351 158.410233,436.949066 155.171310,434.646423 
	C150.693573,431.463104 146.102509,428.455505 141.901688,424.885956 
	C139.274429,422.653503 138.887955,420.209839 140.718536,417.417145 
	C143.911636,412.545898 147.265961,407.778687 150.392044,402.865662 
	C152.677872,399.273163 155.304932,399.425507 158.295578,401.733856 
	C163.155258,405.484802 167.983765,409.276184 173.369217,413.474396 
	C176.946533,408.682739 180.427628,403.894470 184.057877,399.222107 
	C185.414093,397.476593 186.673981,395.005371 189.999725,396.853912 
z"/>
<path fill="#000000" opacity="1.000000" stroke="none" 
	d="
M170.494736,470.628174 
	C153.678909,458.973053 155.728271,461.459869 165.747513,446.031433 
	C172.063126,436.306152 172.761215,436.250305 181.810028,443.270996 
	C196.046936,454.316956 195.072067,451.123596 186.006744,465.896423 
	C185.486343,466.744446 184.885513,467.545013 184.295441,468.348083 
	C178.928223,475.652405 178.483871,475.732635 170.494736,470.628174 
z"/>
</svg>