<svg version="1.1" id="Layer_1" xmlns="http://www.w3.org/2000/svg" xmlns:xlink="http://www.w3.org/1999/xlink" x="0px" y="0px"
	 width="100%" viewBox="0 0 336 592" enable-background="new 0 0 336 592" xml:space="preserve">
<path fill="#000000" opacity="1.000000" stroke="none" 
	d="
M250.667633,518.602295 
	C257.913177,517.973022 264.700104,517.327881 271.496124,516.799744 
	C273.430908,516.649414 275.344574,517.225830 275.806000,519.374023 
	C276.200775,521.212036 274.538330,521.944153 273.153198,522.502075 
	C248.911285,532.265442 224.582520,541.964661 198.927368,547.257629 
	C187.528656,549.609375 175.692795,547.371948 164.141846,546.054810 
	C146.048355,543.991638 128.382141,540.187866 111.960503,531.789856 
	C85.080429,518.043274 71.010216,496.146057 69.727623,466.022980 
	C67.430992,412.083954 94.040009,374.349854 137.153244,345.887360 
	C138.784836,344.810181 140.765244,344.168488 142.143997,341.562164 
	C121.473007,335.688812 101.107788,336.509613 80.830040,341.860382 
	C78.511414,332.343048 84.781372,318.648743 92.715004,314.941071 
	C106.935501,308.295410 121.941132,307.584412 137.201920,309.237701 
	C159.152863,311.615753 180.689499,317.704559 203.023422,316.642639 
	C213.985626,316.121429 224.866058,314.308258 235.887192,314.633575 
	C242.471497,314.827972 243.367233,316.156464 240.617050,322.153015 
	C233.600861,337.451355 232.552856,338.203186 212.846909,340.273987 
	C186.901978,343.000336 162.055496,349.437531 139.394745,362.696625 
	C118.093414,375.160309 99.156517,390.226837 89.094879,413.758453 
	C74.452087,448.004242 87.067612,484.355682 119.516365,502.587219 
	C135.458969,511.544739 152.791168,515.943542 170.643661,518.643372 
	C195.643265,522.424011 220.684708,522.393616 245.727066,518.915955 
	C247.206863,518.710449 248.716629,518.720825 250.667633,518.602295 
z"/>
<path fill="#000000" opacity="1.000000" stroke="none" 
	d="
M155.961990,437.038788 
	C150.601425,433.679993 145.416214,430.087708 140.516510,426.066193 
	C137.569275,423.647217 136.879410,421.062378 139.011917,417.836121 
	C142.129593,413.119476 145.283844,408.426483 148.352234,403.678009 
	C150.594513,400.207916 153.266006,400.135498 156.316177,402.481812 
	C160.402313,405.625122 164.549393,408.697479 168.507248,411.995972 
	C170.712891,413.834167 172.148697,413.631042 173.756256,411.306122 
	C176.310165,407.612518 179.198654,404.147430 181.697510,400.419373 
	C184.129059,396.791687 186.670502,395.964874 190.281235,398.875336 
	C194.033463,401.899841 197.944443,404.738403 201.894135,407.503815 
	C205.870712,410.288055 205.995300,413.447693 203.559021,417.347748 
	C199.960800,423.107880 196.568954,428.996674 191.758179,434.195190 
	C196.446014,437.781921 200.895569,441.222809 205.386139,444.609283 
	C208.384903,446.870758 209.111618,449.526855 207.133636,452.839142 
	C204.147720,457.839294 201.153671,462.823029 197.601105,467.462769 
	C195.481201,470.231354 193.378845,470.844421 190.483841,468.568878 
	C186.430588,465.383057 182.122940,462.515228 178.136185,459.252258 
	C175.063217,456.737183 173.016846,457.105103 170.928299,460.443695 
	C168.726349,463.963562 166.099808,467.215088 163.738617,470.638947 
	C161.765671,473.499756 159.440125,474.019073 156.495850,472.138214 
	C151.581451,468.998901 146.790375,465.700867 142.468460,461.763458 
	C141.184906,460.594086 139.867615,459.154541 140.733154,457.445221 
	C144.539795,449.927765 148.227600,442.282043 155.900681,437.272125 
	C162.771179,441.150665 168.066483,446.222473 174.457611,450.758453 
	C179.015198,444.690674 183.446030,438.791626 188.137344,432.545837 
	C186.095963,431.000610 184.157822,429.510376 182.195831,428.052246 
	C170.928574,419.678711 170.955780,419.701965 162.857361,431.101105 
	C161.072708,433.613159 159.638535,436.666107 155.961990,437.038788 
z"/>
</svg>