<svg version="1.1" id="Layer_1" xmlns="http://www.w3.org/2000/svg" xmlns:xlink="http://www.w3.org/1999/xlink" x="0px" y="0px"
	 width="100%" viewBox="0 0 336 592" enable-background="new 0 0 336 592" xml:space="preserve">
<path fill="#000000" opacity="1.000000" stroke="none" 
	d="
M179.826431,307.204224 
	C172.698227,303.481873 165.784424,300.158447 158.250656,298.477722 
	C154.231339,297.581024 152.979050,295.050049 153.859650,291.498535 
	C155.699936,284.076508 157.861145,276.734375 159.860123,269.351196 
	C161.039459,264.995331 163.598694,264.735931 167.446320,266.176544 
	C193.231262,275.830994 209.766037,294.433838 219.072922,319.789978 
	C224.356369,334.184540 227.085693,348.966003 222.289612,364.196289 
	C220.476837,369.952850 217.324631,374.394135 211.991928,377.718597 
	C196.241089,387.537994 179.123840,392.701294 160.754868,394.433685 
	C149.768494,395.469818 138.843018,395.691650 127.859512,394.514862 
	C123.850517,394.085358 122.301155,392.343353 122.633202,388.369812 
	C123.312225,380.243988 124.505745,372.195251 125.870056,364.165680 
	C126.433624,360.848846 128.710480,360.506134 131.480698,360.888031 
	C155.785751,364.238586 179.307648,360.268585 202.221924,352.500519 
	C214.744186,348.255402 216.452774,347.988556 209.253799,334.016571 
	C202.966370,321.813721 191.904068,314.025116 179.826431,307.204224 
z"/>
<path fill="#000000" opacity="1.000000" stroke="none" 
	d="
M134.233398,239.763397 
	C131.340134,236.577408 127.031761,233.513626 129.211105,229.438614 
	C131.271820,225.585480 136.186279,227.801636 139.757156,228.230240 
	C150.884964,229.565872 156.083450,225.394852 156.726730,214.203613 
	C157.325333,203.789734 155.393341,193.688141 153.161926,183.607117 
	C151.148026,174.508865 149.670776,165.350571 150.636185,155.974579 
	C150.670258,155.643570 150.629807,155.297470 150.709229,154.979675 
	C151.673111,151.121689 152.155182,146.225082 156.392441,145.168793 
	C160.926102,144.038589 161.621948,149.307922 163.646576,152.064713 
	C166.284760,155.656937 168.468948,159.218964 164.122559,163.454926 
	C162.448074,165.086884 162.013260,168.064423 162.459763,170.571228 
	C164.752060,183.441406 167.815262,196.214249 166.107864,209.535629 
	C166.518356,209.691238 166.928864,209.846863 167.339355,210.002472 
	C169.542648,207.875565 171.676544,205.670700 173.961975,203.636047 
	C181.465088,196.956299 189.144501,190.577362 199.755112,189.556519 
	C212.263519,188.353073 220.350815,196.905167 219.000977,209.482147 
	C217.936920,219.396439 212.920425,226.517487 204.750763,231.738464 
	C192.975189,239.263855 179.687561,242.203247 166.151138,244.279526 
	C161.723557,244.958649 157.178482,244.911530 152.772751,245.684464 
	C145.612106,246.940704 139.629974,244.990265 134.233398,239.763397 
M206.111130,215.061966 
	C208.529495,212.062775 205.546448,211.829132 203.971436,211.112061 
	C190.276215,204.876923 172.709259,217.050430 168.356567,226.945984 
	C181.794769,225.612579 194.506546,223.274460 206.111130,215.061966 
z"/>
</svg>