<svg version="1.1" id="Layer_1" xmlns="http://www.w3.org/2000/svg" xmlns:xlink="http://www.w3.org/1999/xlink" x="0px" y="0px"
	 width="100%" viewBox="0 0 336 592" enable-background="new 0 0 336 592" xml:space="preserve">
<path fill="#000000" opacity="1.000000" stroke="none" 
	d="
M212.918213,343.583740 
	C209.670776,329.604980 200.074432,320.879211 189.409515,313.211487 
	C180.166489,306.566040 170.011780,301.455963 158.891708,298.718842 
	C154.199524,297.563904 152.860382,294.908264 153.939041,290.711121 
	C155.718643,283.786469 157.825867,276.946320 159.631638,270.027924 
	C160.849808,265.360779 163.195435,264.554962 167.694794,266.260681 
	C193.449432,276.024445 209.889969,294.658997 219.155014,320.035645 
	C224.118362,333.630035 226.742111,347.599548 222.938797,362.054199 
	C221.096771,369.054871 217.790497,374.757294 210.980377,378.411133 
	C205.009338,381.614685 198.891144,384.567413 192.595978,387.807373 
	C195.013657,391.852448 197.602432,395.303314 199.033981,399.419830 
	C206.254990,420.183990 192.633194,441.321899 170.773071,443.160706 
	C158.551819,444.188721 149.829819,435.835358 148.708954,421.975861 
	C148.348099,417.513794 147.988159,413.100647 148.510132,408.556488 
	C149.011215,404.194275 151.020111,400.350433 152.104065,395.257111 
	C146.652756,395.257111 141.581345,395.339203 136.513412,395.241577 
	C121.934891,394.960815 121.880020,394.898956 123.586029,380.640778 
	C124.197609,375.529388 125.081825,370.450104 125.661911,365.335754 
	C126.061104,361.816223 127.687134,360.345978 131.292526,360.850067 
	C155.589188,364.246979 179.028580,360.042328 202.067429,352.628021 
	C205.057266,351.665833 207.907196,350.213501 210.727859,348.800476 
	C212.639374,347.842896 213.938416,346.350861 212.918213,343.583740 
M169.964371,399.811218 
	C163.718384,399.532379 160.110168,402.102112 158.046280,407.993683 
	C156.456375,412.532288 158.035385,415.927948 161.852142,418.152771 
	C169.092392,422.373138 176.606628,422.564453 184.138214,418.744293 
	C187.674271,416.950775 188.559280,414.409698 186.088989,411.113159 
	C182.120468,405.817200 177.305038,401.661682 169.964371,399.811218 
z"/>
</svg>