<svg version="1.1" id="Layer_1" xmlns="http://www.w3.org/2000/svg" xmlns:xlink="http://www.w3.org/1999/xlink" x="0px" y="0px"
	 width="100%" viewBox="0 0 336 592" enable-background="new 0 0 336 592" xml:space="preserve">
<path fill="#000000" opacity="1.000000" stroke="none" 
	d="
M157.561722,276.735840 
	C162.141891,261.988892 161.108643,263.243805 173.959335,268.987457 
	C196.483704,279.054718 210.834488,296.960205 219.099182,319.834320 
	C224.307312,334.248779 227.090973,349.001953 222.289780,364.223114 
	C220.474854,369.976929 217.280457,374.369232 211.993500,377.740601 
	C193.747299,389.375916 173.543198,394.077087 152.331039,395.174347 
	C144.044342,395.603027 135.702393,395.718811 127.396202,394.487488 
	C123.611275,393.926392 122.096634,392.346283 122.615883,388.576508 
	C123.703247,380.682159 124.726433,372.778564 125.705452,364.870026 
	C126.125702,361.475250 128.001602,360.386658 131.226196,360.837555 
	C155.334854,364.208496 178.678131,360.335266 201.467316,352.735840 
	C214.752060,348.305878 217.188690,347.975403 208.351044,332.583801 
	C200.100540,318.214813 186.263992,309.784271 171.430496,303.178680 
	C167.345078,301.359436 163.093460,299.710938 158.749771,298.728027 
	C153.886566,297.627533 152.993103,294.741821 153.944504,290.638062 
	C154.995209,286.105927 156.287735,281.629883 157.561722,276.735840 
z"/>
<path fill="#000000" opacity="1.000000" stroke="none" 
	d="
M168.070312,447.011810 
	C152.639496,436.035278 153.419022,438.242004 163.642502,423.010956 
	C170.180145,413.271118 170.510269,413.237030 180.033310,420.209930 
	C194.742065,430.979889 192.422516,428.378082 184.202850,442.460144 
	C183.701965,443.318268 183.063309,444.096497 182.482407,444.907349 
	C176.888519,452.715210 176.434723,452.789276 168.070312,447.011810 
z"/>
</svg>