<svg version="1.1" id="Layer_1" xmlns="http://www.w3.org/2000/svg" xmlns:xlink="http://www.w3.org/1999/xlink" x="0px" y="0px"
	 width="100%" viewBox="0 0 336 592" enable-background="new 0 0 336 592" xml:space="preserve">
<path fill="#000000" opacity="1.000000" stroke="none" 
	d="
M208.861740,299.212708 
	C218.946259,314.631317 224.571625,331.271088 224.707993,349.271851 
	C224.809372,362.654663 220.561646,373.895050 207.142105,380.820679 
	C181.934616,393.829834 155.401077,397.024963 127.679276,394.482025 
	C123.573418,394.105377 122.098747,392.266876 122.643028,388.324005 
	C123.732491,380.431641 124.746933,372.528839 125.775070,364.628082 
	C126.230827,361.125763 128.405319,360.454346 131.503250,360.881409 
	C155.611053,364.205170 178.952042,360.310089 201.719238,352.666565 
	C214.885422,348.246368 216.896561,347.866058 208.766052,333.240417 
	C200.530731,318.426270 186.402481,309.856171 171.278870,303.045563 
	C167.183014,301.201080 163.042297,299.385864 158.603821,298.564056 
	C154.021240,297.715546 152.943832,294.826874 153.956131,290.873322 
	C155.769470,283.791260 157.858368,276.780243 159.733185,269.713257 
	C160.927902,265.209930 163.391357,264.681244 167.555664,266.206299 
	C184.923447,272.566803 198.380127,283.709351 208.861740,299.212708 
z"/>
<path fill="#000000" opacity="1.000000" stroke="none" 
	d="
M138.864105,243.368591 
	C134.810379,240.594406 131.348648,237.685928 129.352478,233.521500 
	C127.566811,229.796249 128.863022,227.773071 132.924866,227.722015 
	C135.245148,227.692841 137.588104,227.873505 139.889252,228.189621 
	C150.903580,229.702576 156.087631,225.335144 156.739441,214.081802 
	C157.422150,202.294876 154.637497,190.986191 152.338699,179.583618 
	C150.764023,171.772842 149.692734,163.874771 150.642410,155.858719 
	C150.701096,155.363327 150.637054,154.835007 150.785049,154.371475 
	C151.932739,150.776688 152.297653,146.046005 156.490051,145.104614 
	C160.868454,144.121445 161.451477,149.143600 163.467285,151.724518 
	C166.535782,155.653168 167.880020,159.414062 163.881332,164.020706 
	C161.779999,166.441513 162.009186,170.265564 162.842117,173.654510 
	C165.551727,184.679367 167.140472,195.829315 166.371918,207.227036 
	C166.320389,207.991135 166.544662,208.773834 166.766022,210.558426 
	C169.588226,207.831955 171.732681,205.606262 174.037766,203.561661 
	C181.551743,196.896729 189.237701,190.536194 199.858185,189.544083 
	C211.964676,188.413132 219.983505,196.355377 219.056137,208.586319 
	C218.373215,217.593140 214.445129,224.717346 207.128220,230.085449 
	C196.764816,237.688599 184.699036,240.703827 172.451797,243.289444 
	C164.783234,244.908417 156.967361,245.294617 149.191025,246.003326 
	C145.582458,246.332184 142.264725,245.434921 138.864105,243.368591 
M201.568970,218.170151 
	C203.546371,216.760773 206.059982,215.961517 207.098892,213.463150 
	C195.947250,203.503555 175.698334,213.421417 168.134567,226.734879 
	C179.930252,226.257446 190.706268,223.576645 201.568970,218.170151 
z"/>
<path fill="#000000" opacity="1.000000" stroke="none" 
	d="
M168.663513,447.441589 
	C165.411835,445.075378 162.491043,442.874695 159.492218,440.786041 
	C156.019745,438.367432 155.199173,435.563934 157.747467,431.940552 
	C160.996017,427.321411 164.175354,422.652313 167.311813,417.956207 
	C169.251022,415.052704 171.488708,414.563843 174.475876,416.448914 
	C179.407333,419.561005 184.093384,422.978149 188.533157,426.759735 
	C191.014282,428.872986 191.245148,431.069580 189.503754,433.742676 
	C187.055832,437.500305 184.875656,441.439819 182.306824,445.109650 
	C177.046814,452.624023 176.496597,452.661072 168.663513,447.441589 
z"/>
</svg>