<svg version="1.1" id="Layer_1" xmlns="http://www.w3.org/2000/svg" xmlns:xlink="http://www.w3.org/1999/xlink" x="0px" y="0px"
	 width="100%" viewBox="0 0 336 592" enable-background="new 0 0 336 592" xml:space="preserve">
<path fill="#000000" opacity="1.000000" stroke="none" 
	d="
M206.931503,330.101807 
	C194.709015,314.143585 178.570145,304.696838 159.995956,299.023407 
	C153.634537,297.080322 152.687500,295.938080 154.323898,289.415955 
	C155.981689,282.808411 157.956558,276.280975 159.738754,269.703888 
	C160.827942,265.684296 162.916245,264.390839 167.082916,266.013367 
	C199.166245,278.507050 216.651337,302.745453 223.334808,335.678284 
	C225.273819,345.232788 225.494186,354.789856 222.302505,364.208649 
	C220.382446,369.874786 217.405701,374.343445 212.055893,377.729523 
	C193.625107,389.394989 173.288315,394.144501 151.897095,395.186890 
	C143.605667,395.590942 135.259781,395.738586 126.969757,394.420197 
	C123.704369,393.900879 122.357285,392.472626 122.598373,389.115967 
	C123.194328,380.818512 124.433777,372.614777 125.778069,364.418335 
	C126.302246,361.222229 128.282944,360.434509 131.187714,360.842010 
	C155.471207,364.248444 178.975082,360.304291 201.898743,352.600189 
	C214.945053,348.215637 215.767807,347.840149 209.284790,333.760590 
	C208.733459,332.563202 207.860886,331.513733 206.931503,330.101807 
z"/>
<path fill="#000000" opacity="1.000000" stroke="none" 
	d="
M148.117599,238.950470 
	C137.707901,230.881271 137.693665,230.871902 144.617783,220.337173 
	C146.262024,217.835571 147.970032,215.369720 149.765396,212.974915 
	C153.436066,208.078644 154.361649,207.902832 159.423004,211.649399 
	C164.074615,215.092651 168.569855,218.747162 173.480438,222.578918 
	C177.161148,217.600494 180.679520,213.006836 184.009796,208.280609 
	C186.334671,204.981247 188.845581,204.633667 191.979477,207.063019 
	C196.317169,210.425552 200.704315,213.724594 205.085510,217.030640 
	C207.642242,218.959946 208.053574,221.271866 206.473175,224.017776 
	C203.483398,229.212494 200.365616,234.315384 196.752777,239.117523 
	C194.484665,242.132278 192.141602,242.454224 189.158539,240.194107 
	C184.007843,236.291641 178.770355,232.503723 173.414597,228.553650 
	C169.419510,232.106079 167.155838,236.611038 164.169769,240.538284 
	C159.780060,246.311600 159.270828,246.435684 153.372864,242.517792 
	C151.709167,241.412659 150.066025,240.276596 148.117599,238.950470 
z"/>
</svg>