<svg version="1.1" id="Layer_1" xmlns="http://www.w3.org/2000/svg" xmlns:xlink="http://www.w3.org/1999/xlink" x="0px" y="0px"
	 width="100%" viewBox="0 0 336 592" enable-background="new 0 0 336 592" xml:space="preserve">
<path fill="#000000" opacity="1.000000" stroke="none" 
	d="
M164.230255,361.087463 
	C179.047989,359.113251 193.233627,356.379456 206.716248,350.855377 
	C213.916061,347.905518 214.296616,346.926208 211.823029,339.657562 
	C207.929962,328.217834 199.451569,320.437683 190.079285,313.662292 
	C180.730438,306.903748 170.494125,301.606201 159.210861,298.833618 
	C154.403641,297.652374 152.781296,295.068054 153.964462,290.567596 
	C155.823074,283.497925 157.888489,276.482849 159.817947,269.431458 
	C160.979431,265.186646 163.373169,264.635071 167.329437,266.115021 
	C193.273193,275.819763 209.881821,294.507172 219.155624,320.067719 
	C224.322098,334.307556 227.024155,348.894043 222.359482,363.957520 
	C220.515991,369.910583 217.246170,374.407684 211.803619,377.855225 
	C193.535873,389.426758 173.342834,394.114960 152.133148,395.178528 
	C143.844955,395.594147 135.505829,395.709106 127.209778,394.451202 
	C123.683205,393.916412 122.325287,392.417358 122.603691,388.853485 
	C123.238365,380.729248 124.467575,372.694489 125.730339,364.655396 
	C126.404121,360.365875 129.226913,360.560394 132.435440,361.011139 
	C142.874268,362.477509 153.331543,362.313141 164.230255,361.087463 
z"/>
<path fill="#000000" opacity="1.000000" stroke="none" 
	d="
M146.448517,427.496948 
	C153.571945,416.945557 153.743317,416.908905 163.555405,424.649963 
	C166.672455,427.109039 169.723511,429.651764 173.341080,432.592102 
	C176.989136,427.688324 180.535538,423.143524 183.828049,418.421692 
	C186.253860,414.942810 188.800949,414.453979 192.141434,417.089142 
	C196.322861,420.387726 200.594437,423.573181 204.858231,426.765808 
	C207.572937,428.798523 208.128128,431.174194 206.382965,434.140198 
	C203.341034,439.310150 200.251083,444.438293 196.600388,449.219177 
	C194.456253,452.027069 192.231415,452.384430 189.394669,450.243805 
	C184.112930,446.258148 178.748520,442.382080 173.039078,438.181183 
	C169.461502,443.074921 166.046967,447.541138 162.864868,452.167206 
	C160.577423,455.492676 158.107346,455.924042 154.926178,453.520630 
	C150.676849,450.310211 146.365601,447.181702 142.079514,444.019928 
	C139.096527,441.819427 138.884384,439.203766 140.847992,436.206573 
	C142.673279,433.420441 144.447769,430.601074 146.448517,427.496948 
z"/>
</svg>