<svg version="1.1" id="Layer_1" xmlns="http://www.w3.org/2000/svg" xmlns:xlink="http://www.w3.org/1999/xlink" x="0px" y="0px"
	 width="100%" viewBox="0 0 336 592" enable-background="new 0 0 336 592" xml:space="preserve">
<path fill="#000000" opacity="1.000000" stroke="none" 
	d="
M209.320679,333.761353 
	C197.540207,315.658875 180.451233,305.557739 160.790329,299.258759 
	C153.448257,296.906494 152.719864,296.399292 154.560089,288.763763 
	C156.078690,282.462708 158.040329,276.269745 159.654144,269.989929 
	C160.869873,265.259155 163.323685,264.603699 167.760696,266.296631 
	C193.474487,276.107544 209.964584,294.704559 219.176437,320.111603 
	C224.285461,334.202728 226.973511,348.628326 222.473022,363.558075 
	C220.620102,369.704895 217.345840,374.369202 211.725052,377.913330 
	C193.418259,389.456543 173.206161,394.138855 151.975021,395.179993 
	C143.846375,395.578613 135.669983,395.690582 127.525589,394.496094 
	C123.730026,393.939392 122.344391,392.240967 122.636009,388.544769 
	C123.277351,380.415955 124.453163,372.364899 125.806717,364.332489 
	C126.351883,361.097382 128.429581,360.459167 131.291245,360.857086 
	C155.416061,364.211456 178.710831,360.161743 201.587860,352.772766 
	C214.760391,348.518250 215.503204,346.557648 209.320679,333.761353 
z"/>
<path fill="#000000" opacity="1.000000" stroke="none" 
	d="
M192.381485,241.831299 
	C185.962494,237.396301 179.892120,233.094696 173.383591,228.482620 
	C170.097763,233.019806 166.890793,237.222687 163.936462,241.596252 
	C161.398865,245.352890 158.606583,246.278885 154.825897,243.378403 
	C150.736832,240.241287 146.546585,237.236420 142.420258,234.147430 
	C139.731400,232.134552 139.099899,229.709579 141.058563,226.806061 
	C144.406509,221.843048 147.779510,216.896255 151.066635,211.893143 
	C153.076721,208.833694 155.488342,208.664215 158.229813,210.717575 
	C163.275970,214.497147 168.275131,218.339447 173.685181,222.453140 
	C177.630157,218.718460 180.160934,214.018280 183.333359,209.861145 
	C187.387756,204.548309 188.273712,204.263611 193.772141,208.218613 
	C197.821884,211.131577 201.778122,214.179276 205.696381,217.267944 
	C207.286758,218.521576 208.814056,220.090332 207.688217,222.374863 
	C204.369949,229.108185 200.461334,235.477005 195.466522,241.118652 
	C194.799194,241.872391 193.810532,242.226379 192.381485,241.831299 
z"/>
<path fill="#000000" opacity="1.000000" stroke="none" 
	d="
M153.455200,184.690842 
	C156.670059,179.989410 159.745239,175.647903 162.685104,171.216599 
	C164.717636,168.152939 167.089233,167.444138 170.227280,169.535767 
	C175.078323,172.769150 179.668411,176.330688 184.028427,180.199051 
	C185.912262,181.870438 186.339096,183.737885 185.119736,185.973099 
	C182.091843,191.523499 178.943512,196.995773 174.977066,201.950333 
	C172.899567,204.545364 170.672455,205.340973 167.741852,203.047119 
	C163.554489,199.769531 159.212708,196.689575 154.948944,193.509064 
	C151.844498,191.193298 150.663193,188.473099 153.455200,184.690842 
z"/>
</svg>