<svg version="1.1" id="Layer_1" xmlns="http://www.w3.org/2000/svg" xmlns:xlink="http://www.w3.org/1999/xlink" x="0px" y="0px"
	 width="100%" viewBox="0 0 336 592" enable-background="new 0 0 336 592" xml:space="preserve">
<path fill="#000000" opacity="1.000000" stroke="none" 
	d="
M224.491425,346.447144 
	C224.613831,361.858093 221.776337,373.010742 207.481888,380.592163 
	C190.003159,389.862457 171.466110,394.243744 151.977264,395.182587 
	C143.680771,395.582245 135.326675,395.771454 127.039146,394.410370 
	C124.187546,393.942017 122.398689,392.982910 122.593468,389.673737 
	C123.102364,381.027710 124.414856,372.492096 125.899788,363.977356 
	C126.423950,360.971710 128.551590,360.485809 131.155212,360.849182 
	C155.276001,364.215485 178.620911,360.338806 201.427261,352.751984 
	C214.930298,348.259979 216.966049,347.511780 208.340714,332.566650 
	C200.057327,318.213989 186.230667,309.803314 171.422256,303.116547 
	C167.173019,301.197784 162.859909,299.387146 158.265991,298.472961 
	C154.580139,297.739532 153.076294,295.488586 153.768997,292.010376 
	C155.394516,283.848419 157.552032,275.820251 160.448441,268.000824 
	C161.942062,263.968475 164.699265,265.254425 167.410263,266.227234 
	C186.034210,272.910339 200.210052,285.076874 210.487442,301.782532 
	C218.810150,315.311005 223.865280,329.981964 224.491425,346.447144 
z"/>
<path fill="#000000" opacity="1.000000" stroke="none" 
	d="
M160.380310,206.660217 
	C151.774231,204.947174 145.994461,199.219711 140.260895,193.557617 
	C138.860153,192.174316 139.833405,190.025528 140.868500,188.448990 
	C144.150879,183.449615 147.525803,178.511002 150.809998,173.512787 
	C152.803009,170.479614 155.164490,170.275589 157.933746,172.370407 
	C163.075836,176.260178 168.215744,180.152832 173.662979,184.276230 
	C177.234344,179.459030 180.792572,174.895172 184.082031,170.145172 
	C186.543854,166.590302 189.068604,166.380783 192.357758,168.975616 
	C196.401627,172.165833 200.596344,175.165665 204.743652,178.223663 
	C207.785461,180.466522 208.499466,183.072906 206.326767,186.370361 
	C203.493484,190.670364 200.925613,195.152420 197.961212,199.357101 
	C194.167618,204.737915 193.217728,204.799423 188.045044,200.991394 
	C183.251251,197.462311 178.483841,193.897461 173.385284,190.111084 
	C168.973984,195.797592 164.835892,201.131897 160.380310,206.660217 
z"/>
<path fill="#000000" opacity="1.000000" stroke="none" 
	d="
M164.237656,219.305298 
	C173.524109,206.266418 172.111633,207.059509 183.956039,215.539566 
	C194.850708,223.339676 194.883286,223.428955 187.556458,234.599701 
	C177.765823,249.526810 179.014648,246.777588 166.973099,238.991837 
	C156.089737,231.954941 156.187134,231.788071 164.237656,219.305298 
z"/>
</svg>