<svg version="1.1" id="Layer_1" xmlns="http://www.w3.org/2000/svg" xmlns:xlink="http://www.w3.org/1999/xlink" x="0px" y="0px"
	 width="100%" viewBox="0 0 336 592" enable-background="new 0 0 336 592" xml:space="preserve">
<path fill="#000000" opacity="1.000000" stroke="none" 
	d="
M141.964783,457.963257 
	C165.125519,445.927704 183.421738,429.110596 197.261459,407.438599 
	C203.262939,398.040741 204.578110,388.558563 199.000137,378.236115 
	C194.656219,370.197388 191.472351,361.540436 187.416290,353.334534 
	C184.776947,347.994843 184.490021,343.072845 187.227173,337.666138 
	C190.346481,331.504578 192.528229,324.853363 197.105133,318.746796 
	C201.512650,323.802094 203.929199,329.294373 205.802170,334.829559 
	C221.404099,380.937347 214.427094,424.450928 177.748169,462.362366 
	C167.618011,472.832916 155.050339,476.951630 141.059875,478.196838 
	C125.056656,479.621185 110.410492,475.266327 96.460236,467.910522 
	C94.809731,467.040192 92.375648,466.272797 93.522606,463.557007 
	C94.534317,461.161438 96.801025,461.665009 98.756813,461.880096 
	C103.874969,462.443024 108.971756,463.220734 114.097420,463.690704 
	C123.807251,464.580963 132.948792,462.447144 141.964783,457.963257 
z"/>
<path fill="#000000" opacity="1.000000" stroke="none" 
	d="
M189.350281,252.010101 
	C189.369354,255.824005 189.379456,259.152771 189.422989,262.481110 
	C189.426819,262.774292 189.649368,263.064545 189.969055,263.835236 
	C193.538284,260.474182 196.903076,257.150543 200.434952,254.015167 
	C206.099380,248.986664 212.381882,244.971909 219.871475,243.225540 
	C233.052505,240.152100 242.985565,249.111176 241.898087,262.601196 
	C240.968414,274.133667 234.451828,281.511841 224.977997,286.826447 
	C212.725494,293.699799 199.226166,296.504303 185.475128,298.271545 
	C181.197067,298.821350 176.868408,298.977020 172.563095,299.315338 
	C163.165848,300.053772 157.444550,294.486420 152.574036,287.564667 
	C151.514664,286.059143 150.747223,284.189606 151.786774,282.415741 
	C152.910339,280.498505 154.924408,280.992035 156.749084,281.146149 
	C159.396347,281.369720 162.060440,281.429993 164.697266,281.734070 
	C173.194427,282.714020 178.542175,280.021759 179.643265,267.564087 
	C180.684174,255.787445 177.490204,244.493973 175.320984,233.080597 
	C173.773926,224.940720 172.074402,216.726547 173.741486,208.404907 
	C174.543381,204.402100 175.058441,199.144363 179.732559,198.358459 
	C183.971191,197.645798 184.710800,202.962021 186.795868,205.743576 
	C189.420654,209.245102 190.512024,212.558487 187.212128,216.895462 
	C183.575211,221.675354 185.753937,227.499008 186.829590,232.830734 
	C188.077530,239.016464 189.819687,245.114868 189.350281,252.010101 
M226.712601,270.373322 
	C227.896515,269.306854 229.724487,268.824158 229.943008,266.881805 
	C220.731552,258.755310 201.543549,263.449677 190.852798,280.230042 
	C203.461380,279.502594 215.254669,276.938812 226.712601,270.373322 
z"/>
</svg>