<svg version="1.1" id="Layer_1" xmlns="http://www.w3.org/2000/svg" xmlns:xlink="http://www.w3.org/1999/xlink" x="0px" y="0px"
	 width="100%" viewBox="0 0 336 592" enable-background="new 0 0 336 592" xml:space="preserve">
<path fill="#000000" opacity="1.000000" stroke="none" 
	d="
M212.378571,363.801880 
	C216.346313,388.718384 211.294266,411.508575 199.600677,433.063721 
	C192.463898,446.219147 183.816330,458.274658 171.861771,467.410828 
	C156.135712,479.429382 138.008652,480.031860 119.485085,476.677490 
	C111.612465,475.251862 104.211128,472.042755 97.142502,468.252686 
	C95.391159,467.313660 92.481689,466.751892 93.454025,463.819122 
	C94.451317,460.811005 97.232353,461.679230 99.465797,461.995544 
	C108.685326,463.301208 117.888779,464.896484 127.215324,462.993073 
	C141.494064,460.078918 153.413330,452.522369 164.460922,443.521790 
	C177.293976,433.066589 188.980591,421.513763 197.523331,407.089081 
	C202.990280,397.857971 204.496368,388.762878 199.222717,378.760315 
	C194.727158,370.233551 191.193893,361.204590 187.030411,352.495544 
	C184.796844,347.823486 184.504272,343.429169 186.812424,338.664581 
	C189.972549,332.141327 192.382431,325.235474 197.213104,318.514587 
	C206.802277,332.538788 210.529709,347.612671 212.378571,363.801880 
z"/>
<path fill="#000000" opacity="1.000000" stroke="none" 
	d="
M191.482162,262.660095 
	C193.363281,266.518250 195.051407,270.060760 197.092651,274.344269 
	C200.821732,262.010010 207.443024,252.509811 217.291214,245.341461 
	C217.829666,244.949539 218.330643,244.483551 218.916306,244.183121 
	C221.061798,243.082504 223.167984,240.630249 225.675491,242.254425 
	C227.940018,243.721237 226.489334,246.519424 226.699097,248.751968 
	C227.279358,254.928268 224.151993,258.654388 219.726868,262.568481 
	C210.134766,271.052826 202.500534,281.081909 199.685638,294.044922 
	C199.362320,295.533813 199.567810,297.767242 197.221252,297.784851 
	C195.136887,297.800537 194.709244,295.813995 194.175049,294.294891 
	C190.656784,284.290192 185.937881,275.036407 178.188324,267.546600 
	C175.298859,264.754028 172.401688,261.957489 168.773254,260.214783 
	C165.075592,258.438873 164.332306,255.857117 164.316467,251.821243 
	C164.279739,242.464859 164.359512,239.129333 175.746536,246.355865 
	C182.190475,250.445358 187.167084,255.985489 191.482162,262.660095 
z"/>
</svg>