<svg version="1.1" id="Layer_1" xmlns="http://www.w3.org/2000/svg" xmlns:xlink="http://www.w3.org/1999/xlink" x="0px" y="0px"
	 width="100%" viewBox="0 0 336 592" enable-background="new 0 0 336 592" xml:space="preserve">
<path fill="#000000" opacity="1.000000" stroke="none" 
	d="
M200.019104,380.959930 
	C195.802414,371.666748 191.999786,362.597382 187.595032,353.830566 
	C184.733353,348.134949 184.450134,342.909485 187.357864,337.237732 
	C190.434418,331.236633 192.504242,324.697815 197.421753,318.443573 
	C209.864624,337.769257 212.912796,358.667572 213.599335,380.193298 
	C214.301926,402.222107 206.160995,421.723206 195.601151,440.564240 
	C210.129990,445.775085 216.456116,456.753571 216.840317,470.605042 
	C217.194397,483.370148 211.218231,493.676178 199.677444,500.128815 
	C193.429108,503.622375 186.607346,504.135284 179.786636,503.066376 
	C171.729324,501.803711 166.198242,494.457825 164.751999,484.057037 
	C164.296631,480.782196 163.941620,477.493439 163.484329,473.749695 
	C157.028824,474.700439 151.119766,476.813629 144.938202,477.706879 
	C127.314613,480.253540 111.297523,475.794464 95.968124,467.644958 
	C94.547722,466.889832 92.743988,466.138641 93.337860,463.971985 
	C93.964882,461.684326 95.903908,461.567413 97.788940,461.781982 
	C102.902969,462.364105 107.995140,463.152435 113.115700,463.660004 
	C123.878487,464.726776 133.984528,462.335541 143.426270,457.246582 
	C166.175537,444.985077 184.674896,428.112885 198.085114,405.924591 
	C202.766647,398.178589 204.867111,389.971985 200.019104,380.959930 
M202.258728,477.881500 
	C204.017166,476.363403 203.656891,474.631683 202.662415,472.927551 
	C198.961792,466.586273 193.570663,462.236847 186.471909,460.497040 
	C180.952469,459.144348 175.755905,462.793579 173.918732,468.604858 
	C172.323120,473.652039 174.305313,477.222717 180.210999,479.853302 
	C187.637344,483.161224 194.789825,482.378662 202.258728,477.881500 
z"/>
</svg>