<svg version="1.1" id="Layer_1" xmlns="http://www.w3.org/2000/svg" xmlns:xlink="http://www.w3.org/1999/xlink" x="0px" y="0px"
	 width="100%" viewBox="0 0 336 592" enable-background="new 0 0 336 592" xml:space="preserve">
<path fill="#000000" opacity="1.000000" stroke="none" 
	d="
M213.366943,375.700195 
	C215.158463,404.238068 204.480835,428.149261 188.524323,450.273743 
	C184.214172,456.249908 178.898575,461.305206 173.465836,466.240204 
	C164.335220,474.534363 153.022293,476.977966 141.285629,478.149475 
	C125.123589,479.762695 110.311966,475.269836 96.228737,467.779633 
	C94.695000,466.963928 92.561806,466.224060 93.422981,463.774780 
	C94.301292,461.276764 96.545799,461.612274 98.512291,461.845428 
	C102.966263,462.373413 107.390984,463.164459 111.850708,463.624329 
	C123.109207,464.785217 133.717804,462.514069 143.649734,457.144897 
	C165.779892,445.181396 183.730576,428.701691 197.268494,407.449371 
	C203.282227,398.008820 204.473740,388.545135 198.978104,378.248444 
	C194.596222,370.038452 191.231186,361.291718 187.194107,352.889282 
	C184.889084,348.091736 184.333282,343.528992 186.776779,338.592285 
	C189.989868,332.100677 192.264374,325.116119 197.371719,318.411774 
	C208.914856,336.227966 212.389435,355.370056 213.366943,375.700195 
z"/>
<path fill="#000000" opacity="1.000000" stroke="none" 
	d="
M185.212662,515.813232 
	C177.556808,509.863373 177.477493,509.750122 182.443970,502.030487 
	C185.050537,497.979004 187.909149,494.087708 190.706558,490.161621 
	C192.453674,487.709534 194.616379,487.365234 197.172546,489.016174 
	C202.210129,492.269836 207.003418,495.840729 211.571365,499.726288 
	C213.684845,501.524048 214.017471,503.571960 212.727081,505.939453 
	C209.697952,511.497040 206.359970,516.843811 202.282990,521.718323 
	C200.023163,524.420227 197.783142,524.570129 194.988937,522.478516 
	C191.930878,520.189392 188.671402,518.169373 185.212662,515.813232 
z"/>
</svg>