<svg version="1.1" id="Layer_1" xmlns="http://www.w3.org/2000/svg" xmlns:xlink="http://www.w3.org/1999/xlink" x="0px" y="0px"
	 width="100%" viewBox="0 0 336 592" enable-background="new 0 0 336 592" xml:space="preserve">
<path fill="#000000" opacity="1.000000" stroke="none" 
	d="
M213.192886,368.303192 
	C216.207886,398.430511 206.652054,424.313995 190.050583,448.409515 
	C167.427109,481.245483 134.172974,484.470978 103.322296,471.243561 
	C100.877144,470.195190 98.483086,469.004761 96.150230,467.725494 
	C94.611107,466.881470 92.533363,466.123505 93.458626,463.673950 
	C94.289764,461.473602 96.293694,461.593170 98.127937,461.813538 
	C102.746193,462.368500 107.338943,463.153015 111.964195,463.629028 
	C123.226067,464.787964 133.822601,462.475281 143.749100,457.102570 
	C165.874390,445.127228 183.840881,428.648254 197.296936,407.348663 
	C203.113083,398.142273 204.607178,388.806732 199.138107,378.612610 
	C194.660843,370.267212 191.257599,361.352356 187.133621,352.808044 
	C184.805267,347.984009 184.400803,343.426331 186.801056,338.507324 
	C189.974472,332.003784 192.373886,325.095459 197.180420,318.548187 
	C201.711853,324.471039 204.226044,330.535583 206.523773,336.693939 
	C210.272690,346.741760 211.579956,357.322601 213.192886,368.303192 
z"/>
<path fill="#000000" opacity="1.000000" stroke="none" 
	d="
M137.705078,384.140869 
	C136.549850,381.859772 137.681107,380.276428 138.548782,378.712616 
	C141.373352,373.621765 144.772903,368.916077 148.256531,364.257996 
	C150.468155,361.300751 152.943787,360.704041 155.919510,362.870636 
	C160.479431,366.190643 164.983185,369.588074 169.497330,372.970612 
	C171.882965,374.758179 172.249069,376.984863 170.782455,379.530731 
	C167.714798,384.855743 164.519272,390.097626 160.673294,394.912231 
	C158.770569,397.294159 156.562515,398.279083 153.787094,396.357574 
	C148.342209,392.587891 142.456528,389.404053 137.705078,384.140869 
z"/>
<path fill="#000000" opacity="1.000000" stroke="none" 
	d="
M186.616623,495.672607 
	C193.446030,486.200714 193.466125,486.172882 202.491730,492.689209 
	C205.454910,494.828522 208.278351,497.160919 211.176727,499.390656 
	C213.469391,501.154419 214.187103,503.275146 212.735352,505.924927 
	C209.694992,511.474213 206.399780,516.849915 202.284409,521.691406 
	C200.271835,524.059082 198.215439,524.808716 195.432266,522.755615 
	C191.154266,519.599792 186.728088,516.644897 182.366364,513.602478 
	C178.919357,511.198181 178.074799,508.388397 180.698242,504.749481 
	C182.737549,501.920898 184.519882,498.907074 186.616623,495.672607 
z"/>
</svg>