<svg version="1.1" id="Layer_1" xmlns="http://www.w3.org/2000/svg" xmlns:xlink="http://www.w3.org/1999/xlink" x="0px" y="0px"
	 width="100%" viewBox="0 0 336 592" enable-background="new 0 0 336 592" xml:space="preserve">
<path fill="#000000" opacity="1.000000" stroke="none" 
	d="
M212.652740,395.358948 
	C207.169418,424.632050 194.425842,449.674530 171.114639,467.719299 
	C153.621719,481.260223 133.021759,480.753845 112.493797,474.729065 
	C107.223671,473.182343 102.127525,471.052643 97.330437,468.346375 
	C95.494057,467.310394 92.226814,466.808289 93.560837,463.566071 
	C94.726120,460.733978 97.498154,461.772980 99.741661,462.040161 
	C103.864510,462.531097 107.965645,463.221863 112.095268,463.635162 
	C123.362640,464.762787 133.953461,462.423706 143.866623,457.033936 
	C165.964264,445.019470 183.929611,428.540985 197.378357,407.231079 
	C203.216400,397.980530 204.510147,388.619873 199.082809,378.483704 
	C194.926208,370.720734 191.906052,362.356201 187.919174,354.493134 
	C184.910233,348.558746 184.150787,343.029297 187.521820,336.996246 
	C190.032166,332.503540 191.929230,327.671875 194.235092,323.058960 
	C194.940659,321.647491 195.423019,319.858490 198.146805,319.296783 
	C211.992523,342.696503 215.058273,368.269287 212.652740,395.358948 
z"/>
<path fill="#000000" opacity="1.000000" stroke="none" 
	d="
M193.643982,274.220978 
	C196.089111,276.351379 197.400208,275.076385 198.719147,273.241638 
	C201.629761,269.192780 204.675919,265.241302 207.581467,261.188904 
	C209.392410,258.663177 211.453094,258.253021 213.937042,260.090729 
	C218.611282,263.548920 223.288010,267.004242 227.929245,270.506378 
	C230.646637,272.556854 230.888611,275.061340 229.230942,277.963837 
	C226.260269,283.165344 223.129364,288.249603 219.485428,293.020203 
	C217.475342,295.651825 215.338699,296.071564 212.678192,294.093353 
	C208.410034,290.919830 203.992096,287.932892 199.876465,284.574219 
	C197.056107,282.272552 195.196106,282.167114 193.146515,285.482361 
	C190.878967,289.150146 188.169067,292.543976 185.662109,296.064423 
	C183.576904,298.992615 181.246582,299.761414 178.128342,297.368683 
	C173.780823,294.032745 169.262024,290.921021 164.858582,287.656616 
	C162.105469,285.615631 161.791122,283.049164 163.638916,280.242462 
	C166.927979,275.246582 170.281525,270.293213 173.588226,265.308899 
	C175.596558,262.281647 178.059723,262.146210 180.778656,264.217163 
	C185.009262,267.439514 189.184326,270.734802 193.643982,274.220978 
z"/>
</svg>