<svg version="1.1" id="Layer_1" xmlns="http://www.w3.org/2000/svg" xmlns:xlink="http://www.w3.org/1999/xlink" x="0px" y="0px"
	 width="100%" viewBox="0 0 336 592" enable-background="new 0 0 336 592" xml:space="preserve">
<path fill="#000000" opacity="1.000000" stroke="none" 
	d="
M123.553726,463.654022 
	C138.270782,461.446533 150.350388,454.521240 161.478378,445.847443 
	C175.738464,434.732300 188.617844,422.284790 197.869965,406.463379 
	C203.122879,397.480774 204.324600,388.640411 199.353348,379.017670 
	C194.926880,370.449524 191.347763,361.447815 187.154846,352.753113 
	C184.825150,347.922119 184.469482,343.388184 186.897079,338.466370 
	C190.092728,331.987335 192.381073,325.032379 197.196579,318.637726 
	C201.489365,324.105530 204.132889,329.678070 206.036255,335.411926 
	C221.597168,382.289062 213.402878,424.153351 179.480209,460.664551 
	C168.969650,471.977112 155.987137,476.985046 141.001236,478.222076 
	C124.993561,479.543488 110.363625,475.244598 96.417053,467.893341 
	C94.891632,467.089294 92.668564,466.399719 93.358749,463.991547 
	C94.171501,461.155731 96.667572,461.556030 98.776451,461.892761 
	C106.838821,463.180237 114.905823,464.257629 123.553726,463.654022 
z"/>
<path fill="#000000" opacity="1.000000" stroke="none" 
	d="
M195.287628,283.550720 
	C191.927734,288.100006 188.788696,292.405945 185.670837,296.727112 
	C183.912659,299.163849 181.782547,299.801025 179.258347,297.978607 
	C174.534241,294.567902 169.836960,291.119110 165.169373,287.631470 
	C162.620789,285.727173 162.184021,283.353546 163.960190,280.660217 
	C167.259506,275.657257 170.593887,270.677246 173.869736,265.658997 
	C176.165756,262.141785 178.814072,262.322479 181.818817,264.698151 
	C186.639084,268.509247 191.494492,272.275909 196.781723,276.410645 
	C200.281479,271.680603 203.858673,267.140076 207.100006,262.371216 
	C209.649246,258.620575 212.287048,258.273438 215.746735,261.035645 
	C220.039795,264.463226 224.459229,267.732117 228.806107,271.092804 
	C231.155945,272.909546 231.501816,275.017120 229.951080,277.636078 
	C226.893723,282.799469 223.774536,287.906555 220.220810,292.757019 
	C217.788361,296.077087 215.352631,296.189392 212.254684,293.721130 
	C208.347855,290.608398 204.325424,287.635406 200.268982,284.718811 
	C198.910797,283.742279 197.685760,281.767059 195.287628,283.550720 
z"/>
<path fill="#000000" opacity="1.000000" stroke="none" 
	d="
M185.314804,225.238251 
	C187.843384,221.384644 190.607147,221.102036 193.891312,223.660065 
	C197.956253,226.826248 202.090942,229.902725 206.170013,233.050949 
	C208.767517,235.055710 209.433716,237.348679 207.640854,240.404282 
	C204.609726,245.570236 201.641968,250.753113 197.950119,255.501755 
	C195.841568,258.213867 193.706543,258.970428 190.796844,256.733154 
	C186.448654,253.389801 182.051376,250.107880 177.615189,246.882050 
	C174.201904,244.400040 174.110886,241.544083 176.350662,238.279770 
	C179.266113,234.030731 182.169601,229.773483 185.314804,225.238251 
z"/>
</svg>