<svg version="1.1" id="Layer_1" xmlns="http://www.w3.org/2000/svg" xmlns:xlink="http://www.w3.org/1999/xlink" x="0px" y="0px"
	 width="100%" viewBox="0 0 336 592" enable-background="new 0 0 336 592" xml:space="preserve">
<path fill="#000000" opacity="1.000000" stroke="none" 
	d="
M96.365677,461.763702 
	C101.563499,462.366577 106.327538,463.114014 111.118263,463.596497 
	C122.153778,464.707794 132.668076,462.883148 142.544113,457.697601 
	C165.152893,445.826447 183.347641,429.145996 197.129379,407.651428 
	C203.248901,398.107178 204.543930,388.488617 198.903030,378.011444 
	C194.414032,369.673706 190.971497,360.777618 186.910675,352.202209 
	C184.777496,347.697418 184.437607,343.404236 186.763885,338.838562 
	C189.406387,333.652283 191.688095,328.283173 194.257172,323.057739 
	C194.951065,321.646362 195.427795,319.845306 197.856415,319.389221 
	C201.382996,324.061615 204.012360,329.470337 205.901413,335.063324 
	C221.660141,381.720795 213.968506,426.031982 176.492310,463.528442 
	C166.703613,473.322449 154.571625,476.904877 141.354126,478.166290 
	C125.187759,479.709198 110.364349,475.322296 96.289368,467.820557 
	C92.108322,465.592041 92.132439,464.442017 96.365677,461.763702 
z"/>
<path fill="#000000" opacity="1.000000" stroke="none" 
	d="
M200.862152,250.168518 
	C194.538788,245.370377 194.538513,245.370178 190.088181,251.576447 
	C188.438171,253.877411 186.662247,256.100189 185.169250,258.498962 
	C182.618881,262.596649 179.567093,263.341095 175.654205,260.408417 
	C171.792038,257.513733 167.902496,254.655075 164.000168,251.814682 
	C160.758072,249.454834 160.020493,246.826294 162.492508,243.334961 
	C165.472717,239.125839 168.099014,234.667633 171.027496,230.419983 
	C174.471832,225.424133 175.572800,225.207031 180.652924,228.844452 
	C185.358917,232.214035 189.875854,235.847626 194.928040,239.710556 
	C198.495819,234.928360 201.968124,230.513260 205.166809,225.908112 
	C207.563187,222.458099 210.123825,221.814911 213.504425,224.410126 
	C217.597397,227.552216 221.704681,230.680069 225.896942,233.686966 
	C229.210297,236.063446 229.739212,238.653397 227.548889,242.186630 
	C223.864990,248.129105 220.225906,254.088165 215.391205,259.940399 
	C219.659821,263.201569 223.733322,266.529541 228.032089,269.535339 
	C232.084717,272.369019 232.849075,275.454834 229.977310,279.591797 
	C227.131607,283.691254 224.676987,288.064819 221.783203,292.127502 
	C218.348297,296.949921 217.532074,296.980255 212.585098,293.345795 
	C208.827438,290.585114 204.994553,287.898712 201.462265,284.867889 
	C198.380569,282.223694 196.475571,282.725922 194.405579,286.059387 
	C192.126923,289.728912 189.367218,293.097778 186.858459,296.627014 
	C184.973419,299.278778 182.812592,299.745941 180.040573,297.896454 
	C175.190002,294.660187 170.336609,291.445526 165.966309,287.551361 
	C163.765091,285.589935 163.228409,283.473694 164.882858,280.947540 
	C168.165680,275.935059 171.474472,270.939545 174.738998,265.915253 
	C176.779434,262.774902 179.211166,262.235016 182.238174,264.561859 
	C187.241104,268.407532 192.272003,272.216766 197.828384,276.450775 
	C202.298431,270.480316 206.725250,264.567627 211.277237,258.487732 
	C208.343857,255.098633 204.337494,253.232666 200.862152,250.168518 
z"/>
</svg>