<svg version="1.1" id="Layer_1" xmlns="http://www.w3.org/2000/svg" xmlns:xlink="http://www.w3.org/1999/xlink" x="0px" y="0px"
	 width="100%" viewBox="0 0 336 592" enable-background="new 0 0 336 592" xml:space="preserve">
<path fill="#000000" opacity="1.000000" stroke="none" 
	d="
M40.919380,469.878082 
	C31.557676,450.046936 34.634319,430.986786 42.869041,412.152771 
	C46.344135,404.204712 50.214909,396.442047 55.720291,389.660278 
	C57.276058,387.743835 58.853489,384.392609 62.017780,386.727020 
	C64.803413,388.782013 63.013191,391.617981 61.745384,393.914551 
	C57.557594,401.500305 53.441330,409.089813 51.055218,417.506561 
	C44.420895,440.908386 53.748260,458.130585 76.933380,465.671234 
	C89.086502,469.623871 101.457474,469.737000 113.939781,468.636414 
	C127.390465,467.450409 140.676193,465.274780 153.402954,460.557343 
	C171.864395,453.714264 181.516998,440.578186 182.905045,420.735382 
	C184.015488,404.861053 182.297852,389.871674 173.888855,376.065948 
	C172.920593,374.476257 172.024246,372.649902 172.402512,370.869537 
	C174.215286,362.337463 178.125824,354.798584 183.434891,347.404572 
	C187.544815,350.908661 189.479706,354.952881 190.754364,359.165039 
	C191.906921,362.973816 193.990936,364.087402 197.723511,363.617157 
	C216.181946,361.291687 235.235840,343.459045 238.665878,325.161102 
	C238.757812,324.670685 238.708817,324.133026 238.890106,323.683807 
	C239.664062,321.765869 239.672272,319.009552 242.536407,318.978119 
	C245.116180,318.949860 245.674088,321.427307 246.015640,323.250702 
	C248.606110,337.080231 258.749359,342.275726 270.859039,345.265411 
	C272.127594,345.578583 273.542908,345.752502 274.807922,345.527924 
	C277.284729,345.088196 280.043793,344.328857 280.912170,341.800720 
	C281.738068,339.396210 279.398254,337.748413 277.688416,336.692139 
	C272.305786,333.366821 271.641785,328.955139 273.668121,323.427460 
	C275.384064,318.746643 276.712463,313.924957 278.353455,309.214783 
	C278.991425,307.383728 279.560944,305.105408 282.057678,305.040009 
	C284.275360,304.981964 285.711273,306.623016 286.727051,308.366272 
	C290.712921,315.206726 293.923157,322.370972 293.243988,330.523865 
	C292.168915,343.429352 289.083221,355.606567 281.553436,366.593811 
	C273.888123,377.778778 259.110931,376.991943 250.753922,371.970032 
	C247.009277,369.719788 243.794815,366.847412 240.774506,363.716431 
	C239.411438,362.303436 238.327972,360.538422 236.010254,359.649231 
	C231.618088,364.485901 228.346802,370.312531 223.843414,375.186584 
	C217.140747,382.440948 209.940201,388.674286 199.701141,389.940094 
	C196.042831,390.392395 196.306183,392.843842 196.278198,395.392609 
	C196.090027,412.529785 193.141586,429.203247 186.661942,445.056702 
	C177.030304,468.622070 159.253525,483.530823 135.305450,491.227509 
	C117.368729,496.992188 98.847649,499.113098 80.147705,497.156860 
	C62.521366,495.312897 49.622223,485.704590 40.919380,469.878082 
z"/>
<path fill="#000000" opacity="1.000000" stroke="none" 
	d="
M218.095276,280.973633 
	C207.507950,273.218842 207.468613,273.193573 214.333145,262.503052 
	C216.212570,259.576141 218.457123,256.886261 220.438980,254.021759 
	C222.400223,251.187057 224.681274,250.596054 227.637314,252.518631 
	C232.373718,255.599152 236.959335,258.869659 241.312958,262.480682 
	C243.906357,264.631714 244.474319,266.890656 242.655136,269.841797 
	C239.693634,274.645935 236.752426,279.443695 233.363312,283.979828 
	C230.726578,287.508972 228.081833,288.085541 224.583328,285.353668 
	C222.626007,283.825256 220.461594,282.562042 218.095276,280.973633 
z"/>
<path fill="#000000" opacity="1.000000" stroke="none" 
	d="
M241.148178,441.966797 
	C236.677826,438.748596 232.492599,435.754303 228.352356,432.699097 
	C225.702530,430.743744 224.933273,428.340302 226.787903,425.360962 
	C229.946243,420.287262 233.086426,415.213196 236.803604,410.505859 
	C239.069305,407.636627 241.420761,406.964020 244.446457,409.216827 
	C248.839386,412.487518 253.258865,415.722656 257.672333,418.965759 
	C260.448547,421.005768 260.763641,423.429230 258.985931,426.321198 
	C256.030243,431.129517 253.128616,435.954681 249.733307,440.492584 
	C247.301041,443.743286 244.868790,444.830475 241.148178,441.966797 
z"/>
</svg>