<svg version="1.1" id="Layer_1" xmlns="http://www.w3.org/2000/svg" xmlns:xlink="http://www.w3.org/1999/xlink" x="0px" y="0px"
	 width="100%" viewBox="0 0 336 592" enable-background="new 0 0 336 592" xml:space="preserve">
<path fill="#000000" opacity="1.000000" stroke="none" 
	d="
M291.813904,341.487549 
	C289.846344,350.776184 286.665985,358.989777 281.505035,366.620178 
	C273.929352,377.820740 259.063202,376.998535 250.685730,371.929657 
	C246.946121,369.666962 243.736832,366.789581 240.706528,363.666290 
	C239.348129,362.266174 238.312805,360.441864 236.026184,359.723175 
	C232.051529,364.741760 228.166779,369.892548 224.021439,374.824280 
	C217.552216,382.520782 210.008636,388.671295 199.576202,389.969482 
	C195.843658,390.433929 196.303116,393.049713 196.289200,395.520142 
	C196.208847,409.776855 193.798706,423.684143 189.513428,437.226532 
	C179.372040,469.275635 156.494156,487.184509 124.524727,494.128571 
	C108.254036,497.662720 91.675446,499.574982 75.015709,496.316864 
	C54.375183,492.280212 37.400764,472.805511 35.599335,451.877533 
	C33.545654,428.018982 43.027519,408.059967 56.073872,389.231812 
	C57.299839,387.462524 58.887966,384.774078 61.666054,386.492188 
	C64.804924,388.433411 63.189438,391.240967 61.929527,393.533142 
	C57.834160,400.983978 53.769684,408.427734 51.256958,416.614105 
	C44.059124,440.064270 53.278667,457.886780 76.558502,465.527527 
	C87.820602,469.223907 99.318886,469.821747 111.060028,468.843597 
	C125.878349,467.609070 140.502029,465.508942 154.450485,460.151489 
	C172.294128,453.297974 181.422836,440.242889 182.874542,421.102478 
	C184.091583,405.056305 182.330032,389.903503 173.867355,375.904297 
	C173.037903,374.532227 172.523636,372.800079 172.410294,371.196381 
	C172.069748,366.378082 179.818329,351.196838 184.198303,347.988251 
	C187.523483,351.098877 189.565338,355.082367 190.833435,359.329803 
	C191.907104,362.925964 193.867279,364.010651 197.409210,363.643768 
	C215.277939,361.792816 235.122803,343.688995 238.581650,325.945770 
	C238.772430,324.967041 238.758148,323.921997 239.099594,323.004730 
	C239.716339,321.347900 239.947754,319.153381 242.264420,318.980164 
	C244.973846,318.777588 245.590988,321.179565 245.925873,322.987701 
	C248.476898,336.761688 258.391174,342.223694 270.584320,345.232605 
	C272.394684,345.679382 274.238617,345.944092 276.000397,345.297485 
	C278.012848,344.558960 280.473541,343.927460 281.065887,341.641388 
	C281.647430,339.397064 279.568817,337.881836 277.989258,336.932770 
	C272.145416,333.421295 271.640106,328.642792 273.817566,322.803345 
	C275.560394,318.129547 276.810333,313.268372 278.628387,308.627228 
	C280.430237,304.027527 283.438812,303.600525 286.196564,307.716980 
	C291.531464,315.680389 294.356598,324.445740 293.063538,334.190857 
	C292.757721,336.495667 292.313110,338.782074 291.813904,341.487549 
z"/>
<path fill="#000000" opacity="1.000000" stroke="none" 
	d="
M257.183716,440.900269 
	C252.379822,437.328156 247.863907,433.971741 242.675339,430.115387 
	C239.643494,434.365295 236.825150,438.378540 233.941147,442.343994 
	C229.615372,448.291809 228.793106,448.473969 222.821777,444.314819 
	C219.005951,441.657104 215.317841,438.813660 211.610275,436.003571 
	C208.947647,433.985474 208.343521,431.605621 210.336136,428.677002 
	C213.607269,423.869385 216.846207,419.036530 219.959625,414.126099 
	C222.157944,410.658966 224.718384,410.371033 227.824127,412.765564 
	C232.684906,416.513214 237.536133,420.273224 242.833649,424.369995 
	C246.767639,420.604370 249.472397,415.841949 252.762207,411.574615 
	C256.786652,406.354340 257.445709,406.107880 262.749573,409.832733 
	C266.689178,412.599396 270.346924,415.764252 274.238190,418.603790 
	C277.648834,421.092621 277.751038,423.835205 275.526978,427.152710 
	C272.844147,431.154510 270.429169,435.338867 267.680084,439.292480 
	C263.674683,445.052856 263.257294,445.054077 257.183716,440.900269 
z"/>
<path fill="#000000" opacity="1.000000" stroke="none" 
	d="
M261.110809,462.263947 
	C263.063782,464.656677 262.175171,466.704590 261.000946,468.540375 
	C257.962952,473.289856 254.794098,477.956177 251.643707,482.632965 
	C249.613754,485.646423 247.017273,486.266510 243.976837,484.167816 
	C239.470901,481.057526 234.983704,477.918793 230.535187,474.727112 
	C227.673141,472.673706 226.958450,470.144531 228.965622,466.996552 
	C232.267456,461.818085 235.514008,456.616638 239.429642,451.852051 
	C241.506882,449.324463 243.620697,448.919769 246.321899,450.705322 
	C251.454224,454.097900 256.406677,457.714294 261.110809,462.263947 
z"/>
</svg>