<svg version="1.1" id="Layer_1" xmlns="http://www.w3.org/2000/svg" xmlns:xlink="http://www.w3.org/1999/xlink" x="0px" y="0px"
	 width="100%" viewBox="0 0 336 592" enable-background="new 0 0 336 592" xml:space="preserve">
<path fill="#000000" opacity="1.000000" stroke="none" 
	d="
M139.360153,474.388916 
	C123.549232,487.818726 105.151253,493.972015 85.244598,496.248199 
	C71.859230,497.778717 58.430645,499.323792 45.141068,495.509247 
	C24.458202,489.572540 10.222839,471.826721 8.596380,450.367889 
	C6.816738,426.888000 16.476702,407.329163 29.393923,388.865723 
	C30.600395,387.141205 32.265102,385.037170 34.730865,386.503174 
	C37.381100,388.078796 36.403290,390.632446 35.308758,392.707855 
	C30.804783,401.248199 25.722738,409.572052 23.607029,419.110565 
	C18.342581,442.844940 25.486473,456.714264 50.127216,465.650696 
	C62.493366,470.135559 75.320518,469.782196 88.117783,468.578430 
	C100.383202,467.424683 112.512436,465.356995 124.234467,461.372498 
	C144.789108,454.385620 154.216080,441.676514 155.891403,420.050720 
	C157.107559,404.351929 155.159103,389.538910 146.845581,375.880188 
	C146.012177,374.510986 145.494064,372.777130 145.382477,371.174011 
	C145.060715,366.551819 152.964890,351.063904 157.175354,347.937469 
	C160.742020,351.098480 162.548874,355.370819 164.034576,359.720245 
	C165.036987,362.654877 166.783539,364.150787 169.773865,364.309021 
	C177.918533,364.740143 186.064545,365.145905 194.209961,365.563141 
	C197.371353,365.725067 198.315292,363.121429 199.676773,361.110718 
	C214.567429,339.119812 232.328430,319.826172 254.024826,304.425385 
	C268.026093,294.486877 283.020813,286.658386 300.883484,286.664276 
	C313.662415,286.668518 322.815674,292.994476 327.327637,304.938995 
	C335.097076,325.506989 328.300446,345.490692 308.712921,359.425232 
	C289.025055,373.431122 266.475281,380.252472 243.238388,385.279053 
	C229.067612,388.344391 214.696228,390.061493 200.244949,390.922363 
	C196.405594,391.151093 194.632217,392.758789 193.437958,396.119568 
	C190.607391,404.085052 188.029999,412.129425 185.886978,420.319916 
	C180.801727,418.633972 178.274261,413.321533 179.734573,407.320435 
	C180.981155,402.197571 182.625381,397.171478 184.192978,391.759949 
	C180.039124,391.301086 176.449280,390.832825 172.845718,390.525665 
	C168.871399,390.186890 169.305801,393.139526 169.283401,395.606842 
	C169.155624,409.691284 166.521317,423.399506 162.752182,436.882324 
	C158.667755,451.493042 151.034317,464.023346 139.360153,474.388916 
M239.270142,361.643768 
	C246.727921,359.978241 254.266464,358.606995 261.626892,356.586731 
	C277.688782,352.178131 293.641052,347.344330 307.984436,338.537109 
	C314.172516,334.737427 314.296722,331.230896 308.759521,326.497559 
	C300.501221,319.438110 290.749725,317.273071 280.266846,318.677673 
	C252.231522,322.434143 230.950211,337.405518 214.016998,359.326935 
	C212.989212,360.657501 211.457550,362.034271 212.336029,364.612488 
	C221.069992,364.354889 229.756760,363.220245 239.270142,361.643768 
z"/>
<path fill="#000000" opacity="1.000000" stroke="none" 
	d="
M240.429520,429.456116 
	C247.192749,420.394196 247.220673,420.356384 255.907745,426.771851 
	C259.112335,429.138489 262.165588,431.711884 265.260010,434.225250 
	C267.167267,435.774414 267.800323,437.616211 266.497955,439.925110 
	C263.311371,445.574463 260.015137,451.141693 255.980331,456.252167 
	C253.842514,458.959991 251.637329,458.844360 249.110382,456.949646 
	C244.855179,453.759003 240.471710,450.729279 236.341629,447.385498 
	C233.588638,445.156677 231.813217,445.508453 229.938538,448.425659 
	C227.604782,452.057220 224.931793,455.468964 222.475235,459.023956 
	C220.408417,462.015076 218.140991,462.715424 214.962036,460.455811 
	C210.359070,457.184021 205.589935,454.157867 201.360458,450.371521 
	C199.003586,448.261566 198.481674,446.101990 200.312088,443.396851 
	C203.663361,438.444092 206.924438,433.430420 210.250122,428.460205 
	C212.185211,425.568237 214.608566,425.059204 217.424072,427.201050 
	C221.390457,430.218445 225.578918,433.006958 229.196716,436.400452 
	C232.344772,439.353302 234.140488,438.700958 236.109482,435.387726 
	C237.292603,433.396851 238.834351,431.619141 240.429520,429.456116 
z"/>
</svg>