<svg version="1.1" id="Layer_1" xmlns="http://www.w3.org/2000/svg" xmlns:xlink="http://www.w3.org/1999/xlink" x="0px" y="0px"
	 width="100%" viewBox="0 0 336 592" enable-background="new 0 0 336 592" xml:space="preserve">
<path fill="#000000" opacity="1.000000" stroke="none" 
	d="
M44.852306,495.452332 
	C20.491495,487.695160 5.651353,464.509613 8.396963,439.747192 
	C10.418044,421.519165 17.734629,405.553101 27.951561,390.670471 
	C28.515785,389.848572 29.130978,389.047516 29.816422,388.326019 
	C31.201786,386.867920 32.686996,385.119507 34.908310,386.574493 
	C37.010822,387.951660 36.501698,390.125092 35.640091,391.973328 
	C32.827824,398.005829 29.355356,403.695648 26.690105,409.826050 
	C22.656767,419.103210 21.204056,428.760834 22.473526,438.638611 
	C23.956137,450.174896 31.976198,457.082825 41.591553,462.033600 
	C52.901031,467.856659 65.059250,469.789673 77.843605,469.129333 
	C93.377274,468.327057 108.660759,466.431305 123.472176,461.587433 
	C144.713837,454.640778 154.160080,442.037415 155.898010,419.838318 
	C157.113144,404.317261 155.233994,389.638916 146.945282,376.161560 
	C145.881012,374.431061 144.911758,372.429291 145.414124,370.487366 
	C147.545425,362.248871 151.043015,354.640076 156.426514,347.379486 
	C160.358551,350.678528 162.305527,354.490570 163.520508,358.572815 
	C164.759872,362.736969 167.363541,364.446350 171.489182,364.600342 
	C178.477478,364.861115 185.470276,365.118469 192.442993,365.626862 
	C195.745590,365.867706 197.606628,364.454498 199.320999,361.825897 
	C212.447800,341.698395 228.555099,324.204712 247.357727,309.325745 
	C260.767334,298.714355 275.307495,290.160767 292.642609,287.200348 
	C317.730469,282.915924 328.922302,299.261719 330.266449,318.254120 
	C331.800446,339.929108 318.946411,353.251495 302.221039,363.671021 
	C282.562988,375.917511 260.571808,381.906128 238.075119,386.294220 
	C225.481247,388.750732 212.748199,390.148224 199.960648,390.905609 
	C196.321228,391.121185 194.514969,392.662231 193.496979,395.863373 
	C191.329758,402.678436 188.613876,409.316193 187.044357,416.327789 
	C186.738129,417.695709 186.721039,419.349213 185.302277,420.278809 
	C180.527863,418.134674 178.284592,413.071625 179.782242,407.058472 
	C181.020325,402.087433 182.643539,397.212341 184.249573,391.775177 
	C179.884979,391.308319 176.005096,390.725861 172.105652,390.526428 
	C168.658951,390.350159 169.307663,393.169647 169.290802,395.198242 
	C169.172318,409.452484 166.697815,423.376373 162.701584,436.965576 
	C154.422379,465.119049 135.598282,483.109985 107.741623,491.415161 
	C87.319366,497.503815 66.475609,500.188446 44.852306,495.452332 
M219.081955,364.353119 
	C242.237122,362.145325 264.661743,356.787781 286.458527,348.724274 
	C294.285004,345.829010 301.970917,342.608826 308.921417,337.926758 
	C313.803284,334.638184 314.024414,331.591522 309.786407,327.437012 
	C308.254120,325.934937 306.485107,324.617676 304.658966,323.481445 
	C294.449310,317.128845 283.428802,317.440002 272.299194,320.014923 
	C250.036560,325.165588 232.166733,337.373322 217.664780,354.755920 
	C215.386185,357.487152 212.598694,359.999969 211.744675,363.780731 
	C213.958694,365.215271 216.135803,364.475861 219.081955,364.353119 
z"/>
<path fill="#000000" opacity="1.000000" stroke="none" 
	d="
M177.622498,267.876831 
	C180.708191,263.280792 183.672455,259.058533 186.472717,254.730209 
	C188.721970,251.253601 191.340866,251.123840 194.399216,253.492935 
	C198.213638,256.447723 202.201370,259.219086 205.741745,262.474792 
	C208.683365,265.179840 210.421066,264.547150 212.427322,261.550232 
	C214.924713,257.819733 217.743134,254.305786 220.351166,250.647202 
	C222.330505,247.870575 224.483093,247.117752 227.457962,249.320541 
	C232.135269,252.783875 237.035431,255.934433 241.402969,259.826630 
	C243.653946,261.832642 244.016800,263.894440 242.605927,266.447845 
	C239.624435,271.843719 236.386978,277.071442 232.670685,281.999725 
	C230.546967,284.816010 228.309402,285.120239 225.472778,282.891327 
	C221.417984,279.705261 217.057098,276.898895 213.095505,273.607086 
	C209.970108,271.010101 208.059830,271.551727 206.002335,274.843323 
	C203.714142,278.503998 201.009796,281.904633 198.486038,285.418030 
	C196.591064,288.056091 194.337936,288.500977 191.658386,286.570679 
	C187.475403,283.557281 183.285675,280.553131 179.083847,277.566101 
	C175.444397,274.978882 174.698166,271.905243 177.622498,267.876831 
z"/>
<path fill="#000000" opacity="1.000000" stroke="none" 
	d="
M206.300812,212.436462 
	C210.724640,215.759262 214.855042,218.850372 218.929352,222.013733 
	C221.357498,223.898987 222.012161,226.230453 220.421494,229.038162 
	C217.384827,234.398254 214.392258,239.771164 210.461807,244.572662 
	C208.417633,247.069870 206.418945,247.752792 203.693298,245.658081 
	C199.207092,242.210358 194.634506,238.875137 190.107925,235.479752 
	C187.204346,233.301788 186.729004,230.661392 188.781616,227.663971 
	C191.978836,222.995071 195.285156,218.400009 198.433624,213.698929 
	C200.521881,210.580872 202.945969,210.037201 206.300812,212.436462 
z"/>
</svg>