<svg version="1.1" id="Layer_1" xmlns="http://www.w3.org/2000/svg" xmlns:xlink="http://www.w3.org/1999/xlink" x="0px" y="0px"
	 width="100%" viewBox="0 0 336 592" enable-background="new 0 0 336 592" xml:space="preserve">
<path fill="#000000" opacity="1.000000" stroke="none" 
	d="
M101.592926,286.659302 
	C106.137375,278.052521 110.944504,270.077057 117.829185,263.576416 
	C128.127090,253.852921 142.965424,252.116806 155.162766,259.347107 
	C158.590271,261.378815 161.844940,263.728485 165.034363,266.124664 
	C166.718475,267.389954 168.843079,268.930115 167.780823,271.433655 
	C166.850403,273.626556 164.437378,273.216339 162.468674,273.300201 
	C144.999298,274.044342 129.241409,279.622986 115.221603,290.065979 
	C110.569977,293.530853 107.248322,298.082611 104.950630,303.364410 
	C103.221786,307.338593 103.884354,310.863403 107.398422,313.627167 
	C117.320740,321.430939 128.562958,326.118744 141.090286,327.574249 
	C146.021896,328.147217 150.662918,326.872406 155.005280,324.460205 
	C171.457886,315.320740 187.905197,306.171326 204.409180,297.125427 
	C206.134613,296.179718 208.134811,293.715027 210.145386,295.801758 
	C212.373093,298.113861 209.368393,299.916016 208.576950,301.917389 
	C208.397095,302.372162 208.011093,302.740814 207.770050,303.176758 
	C199.290024,318.512970 187.815948,330.124695 171.744553,338.336975 
	C151.406235,348.729645 133.041702,362.539703 117.444939,379.517242 
	C102.222404,396.087433 92.557503,415.108337 92.274414,438.214783 
	C91.937523,465.712646 104.520035,485.599396 127.770325,499.235504 
	C147.418976,510.759277 169.132080,515.382629 191.481110,517.707947 
	C204.737915,519.087341 218.023041,519.829956 231.330963,518.748047 
	C244.254807,517.697266 257.155518,516.364746 270.072571,515.226074 
	C273.549805,514.919556 277.048248,514.830750 280.539398,514.715942 
	C282.286346,514.658508 283.990936,514.970642 284.401703,517.057556 
	C284.828918,519.228333 283.134338,519.925964 281.589264,520.575867 
	C277.447510,522.317993 273.331604,524.138184 269.118164,525.690491 
	C252.252213,531.904297 235.167877,537.474365 218.110184,543.136719 
	C207.261215,546.737976 196.343109,545.809265 185.472458,545.115906 
	C166.164230,543.884399 147.132904,540.804749 129.060593,533.358154 
	C105.252228,523.547974 87.832741,507.565613 81.351860,481.963470 
	C76.079659,461.136047 78.024544,440.373657 84.489044,419.989563 
	C92.608498,394.387054 105.375336,371.440308 123.584076,351.603394 
	C124.005829,351.143921 124.325005,350.590302 124.894272,349.799713 
	C115.231140,347.313721 106.213203,344.137787 98.606941,337.853180 
	C91.243896,331.769562 88.348663,324.298431 90.512459,314.810760 
	C92.758049,304.964478 97.149345,296.013184 101.592926,286.659302 
z"/>
<path fill="#000000" opacity="1.000000" stroke="none" 
	d="
M155.841248,229.760666 
	C153.528687,233.048080 151.135330,232.931061 148.411804,230.856628 
	C144.047836,227.532715 139.531143,224.403534 135.253098,220.974823 
	C132.815536,219.021210 131.323196,219.364365 129.654999,221.892548 
	C127.093468,225.774597 124.276833,229.489014 121.547539,233.259430 
	C119.569618,235.991882 117.301834,236.706039 114.383125,234.476761 
	C110.026810,231.149445 105.563675,227.962280 101.159859,224.696777 
	C98.422607,222.667068 97.943108,220.120010 99.789917,217.298172 
	C103.155563,212.155548 106.607895,207.069260 110.056938,201.981766 
	C111.801842,199.407959 114.042534,199.145432 116.465721,200.945450 
	C120.200737,203.719910 123.882462,206.567078 127.556618,209.422226 
	C132.623917,213.359955 132.593994,213.362503 136.238327,208.317368 
	C138.672272,204.947861 141.179886,201.631653 143.628464,198.272598 
	C145.360474,195.896591 147.307724,195.042725 149.934769,197.026001 
	C154.576309,200.530106 159.244354,204.000336 163.947784,207.420837 
	C167.004227,209.643555 167.079407,212.222839 165.171768,215.194565 
	C162.120163,219.948318 159.096466,224.720001 155.841248,229.760666 
z"/>
<path fill="#000000" opacity="1.000000" stroke="none" 
	d="
M115.479095,185.535980 
	C109.033661,180.236542 108.939857,179.817825 113.401474,173.178162 
	C116.085480,169.183868 118.926567,165.295486 121.643951,161.323166 
	C123.655861,158.382156 126.121758,158.057022 128.860291,160.098465 
	C133.382614,163.469635 137.842072,166.927048 142.274582,170.416000 
	C144.378464,172.072083 144.801743,174.147217 143.526550,176.600876 
	C140.611832,182.209335 137.435181,187.637146 133.430786,192.560989 
	C131.237244,195.258209 129.024002,195.617554 126.209755,193.404251 
	C122.819435,190.737885 119.250237,188.298965 115.479095,185.535980 
z"/>
</svg>