<svg version="1.1" id="Layer_1" xmlns="http://www.w3.org/2000/svg" xmlns:xlink="http://www.w3.org/1999/xlink" x="0px" y="0px"
	 width="100%" viewBox="0 0 336 592" enable-background="new 0 0 336 592" xml:space="preserve">
<path fill="#000000" opacity="1.000000" stroke="none" 
	d="
M264.888794,336.827087 
	C274.729218,332.193146 284.183380,327.628967 292.644806,321.305542 
	C301.552216,314.648773 301.952972,313.006775 296.866241,303.134583 
	C295.745270,300.959076 295.113159,298.436371 292.621063,296.524384 
	C288.840607,300.602386 285.050934,304.672180 281.281097,308.760254 
	C269.471008,321.567169 251.957321,316.780945 244.390701,306.093781 
	C239.327164,298.942017 238.975540,290.848755 241.257401,282.666656 
	C245.290192,268.206116 251.912430,255.038437 261.771210,243.628754 
	C270.178650,233.898788 279.516113,233.875900 288.034973,243.618622 
	C299.272644,256.470734 304.334106,272.076813 307.254517,288.469086 
	C308.944641,297.955841 309.788910,307.481628 308.578949,317.249329 
	C306.351471,335.231140 296.995087,347.800232 281.036560,355.591583 
	C245.937149,372.728088 208.911911,383.808502 170.452408,390.318420 
	C153.176514,393.242645 135.756012,394.607178 118.280327,394.850800 
	C101.700531,395.081970 85.465302,392.692993 69.946999,386.375610 
	C42.422234,375.170410 31.665108,352.264893 40.334927,323.100311 
	C43.112988,313.755157 47.257862,305.085144 52.980892,297.184906 
	C53.956924,295.837524 54.974342,294.509766 56.082298,293.271057 
	C57.337528,291.867676 58.780422,290.495697 60.791187,291.909332 
	C62.914742,293.402252 61.818214,295.225830 60.840492,296.742218 
	C56.556911,303.385712 53.123253,310.396698 51.878815,318.259338 
	C51.153851,322.839813 50.082832,327.433716 50.549305,332.123474 
	C51.366966,340.343933 55.782310,346.304810 62.469681,350.837830 
	C76.097687,360.075562 91.613083,364.096863 107.580261,365.533661 
	C162.457260,370.471619 214.349152,358.196350 264.888794,336.827087 
M262.506775,268.784180 
	C258.963593,268.620178 257.026489,270.623779 255.839828,273.683380 
	C254.525406,277.072235 256.388702,279.375946 258.463898,281.649292 
	C261.367706,284.830414 264.962433,285.748749 268.866272,284.245850 
	C272.123444,282.991882 275.267639,281.171143 276.336975,277.471680 
	C276.789398,275.906403 275.412964,274.707062 274.445160,273.601501 
	C271.491241,270.227142 267.406830,269.457001 262.506775,268.784180 
z"/>
<path fill="#000000" opacity="1.000000" stroke="none" 
	d="
M263.407471,433.339813 
	C262.189758,434.955505 261.176300,436.272705 260.174347,437.598602 
	C257.963196,440.524506 255.505112,440.894836 252.494370,438.646149 
	C248.237244,435.466553 243.828766,432.490448 239.534103,429.359985 
	C236.472519,427.128326 235.889893,424.396790 238.119308,421.180420 
	C241.525543,416.266235 244.868286,411.307953 248.289627,406.404388 
	C250.004944,403.945984 252.075378,403.543793 254.694122,405.259857 
	C259.705536,408.543732 264.589813,411.971558 269.138641,415.889923 
	C271.456329,417.886322 271.736847,419.959167 270.185791,422.454254 
	C267.992523,425.982330 265.806274,429.514740 263.407471,433.339813 
z"/>
</svg>