<svg version="1.1" id="Layer_1" xmlns="http://www.w3.org/2000/svg" xmlns:xlink="http://www.w3.org/1999/xlink" x="0px" y="0px"
	 width="100%" viewBox="0 0 336 592" enable-background="new 0 0 336 592" xml:space="preserve">
<path fill="#000000" opacity="1.000000" stroke="none" 
	d="
M56.767235,303.762512 
	C52.498547,311.935547 50.917973,320.464478 50.510204,329.131989 
	C50.075218,338.378082 54.573978,345.335480 62.038311,350.573364 
	C73.661873,358.729828 87.011627,362.196167 100.666489,364.613007 
	C120.687149,368.156525 140.773514,367.090912 160.861389,364.903290 
	C192.990921,361.404297 223.961197,353.324829 253.967911,341.470886 
	C266.375458,336.569397 278.452240,330.925415 289.571594,323.455505 
	C292.051300,321.789673 294.346832,319.840210 296.664337,317.944580 
	C300.188019,315.062347 301.327423,311.682495 298.985779,307.400635 
	C297.019470,303.805054 295.649994,299.870117 292.670990,296.005524 
	C288.059845,301.451447 283.841278,306.532684 278.924072,310.956024 
	C265.931183,322.644012 244.851028,314.023346 241.078506,299.180847 
	C239.700134,293.757812 239.640686,288.295013 241.168427,282.906769 
	C245.310272,268.298737 251.917816,254.945480 261.938293,243.445496 
	C270.225983,233.934158 279.476532,233.922119 287.861725,243.439621 
	C299.266846,256.384918 304.373077,272.139648 307.284546,288.719543 
	C308.952637,298.218658 309.790558,307.735840 308.548096,317.500946 
	C306.286560,335.275635 297.028168,347.759705 281.260010,355.478821 
	C247.857849,371.830292 212.653793,382.669861 176.103851,389.336945 
	C157.552185,392.720947 138.843948,394.461731 120.026985,394.840546 
	C102.930977,395.184692 86.206215,392.905426 70.178444,386.461731 
	C42.618553,375.381805 31.721704,352.531860 40.264477,323.332306 
	C43.386299,312.661713 48.263702,302.874023 55.283455,294.220184 
	C56.692223,292.483521 58.268677,289.940002 60.948021,292.109070 
	C63.375965,294.074615 61.113308,296.022980 60.202026,297.816986 
	C59.223373,299.743683 58.037708,301.565155 56.767235,303.762512 
M256.229248,272.814423 
	C254.871643,277.764282 257.639893,282.870056 262.565155,284.500488 
	C266.979950,285.961884 274.687561,282.500610 276.074371,278.359863 
	C276.314392,277.643219 276.395752,276.645630 276.082062,276.008362 
	C274.063904,271.908539 270.373871,270.159027 266.134186,269.337738 
	C262.473999,268.628754 258.767975,267.925232 256.229248,272.814423 
z"/>
<path fill="#000000" opacity="1.000000" stroke="none" 
	d="
M249.447510,198.737152 
	C252.713638,192.682770 256.362122,187.344315 260.359070,182.225632 
	C262.346680,179.680206 264.479401,179.201752 267.234161,180.971115 
	C272.134949,184.118896 276.846924,187.504089 281.265076,191.308578 
	C283.489349,193.223907 284.027557,195.312027 282.541260,197.899307 
	C279.393860,203.378067 276.129791,208.776382 272.072571,213.649933 
	C270.390564,215.670364 268.538605,216.533234 266.026154,214.935623 
	C260.834930,211.634689 255.696625,208.263977 251.000946,204.273010 
	C249.410507,202.921249 248.189438,201.364792 249.447510,198.737152 
z"/>
<path fill="#000000" opacity="1.000000" stroke="none" 
	d="
M265.423767,430.331604 
	C257.401855,442.251129 257.401855,442.251129 245.952454,434.310364 
	C234.622620,426.452484 234.591934,426.432617 242.039856,414.962372 
	C243.847687,412.178223 245.993286,409.615601 247.869919,406.873352 
	C250.021393,403.729431 252.455948,403.486664 255.429947,405.714081 
	C259.551331,408.800873 263.707336,411.844269 267.913361,414.814392 
	C271.400818,417.277130 272.143524,420.047852 269.521729,423.648682 
	C268.059631,425.656738 266.911102,427.893097 265.423767,430.331604 
z"/>
</svg>