<svg version="1.1" id="Layer_1" xmlns="http://www.w3.org/2000/svg" xmlns:xlink="http://www.w3.org/1999/xlink" x="0px" y="0px"
	 width="100%" viewBox="0 0 336 592" enable-background="new 0 0 336 592" xml:space="preserve">
<path fill="#000000" opacity="1.000000" stroke="none" 
	d="
M180.314484,388.444763 
	C166.863449,391.357910 153.642960,393.026062 140.378250,393.924194 
	C121.944962,395.172302 103.453888,395.898132 85.269753,391.319244 
	C75.869652,388.952271 66.781364,385.786804 58.623272,380.362488 
	C41.425972,368.928009 34.555798,352.334839 38.312466,332.006256 
	C40.652626,319.342865 45.415283,307.778778 52.882198,297.314972 
	C53.944427,295.826416 55.083359,294.380585 56.305206,293.021423 
	C57.450970,291.746918 58.801331,290.622620 60.641060,291.797333 
	C62.848351,293.206665 61.938835,295.019775 60.945084,296.571838 
	C56.687801,303.221008 53.443001,310.242584 51.854107,318.050262 
	C48.028107,336.850891 52.376186,346.646576 69.592972,355.045654 
	C87.095833,363.584351 105.913780,366.771606 125.271751,366.776855 
	C178.279190,366.791199 228.464233,354.629913 276.011200,331.388733 
	C283.645477,327.657043 290.942291,323.311920 297.215881,317.418945 
	C300.320892,314.502289 301.050842,311.407074 299.057098,307.614502 
	C297.140656,303.969025 295.818512,299.991852 292.785248,296.335236 
	C288.837128,300.596405 285.049927,304.668579 281.279510,308.756226 
	C269.398499,321.636993 251.896667,316.669037 244.390503,306.090302 
	C239.412079,299.074036 239.060913,291.141998 241.216095,283.143890 
	C245.166168,268.484772 251.809021,255.140915 261.807007,243.617264 
	C270.262543,233.871475 279.558533,233.883606 288.058746,243.648468 
	C299.263733,256.520477 304.341248,272.111664 307.260895,288.504150 
	C308.980530,298.159088 309.870239,307.855957 308.545380,317.779694 
	C306.289490,334.677460 297.766602,347.153595 282.783081,354.663513 
	C250.450531,370.868988 216.262238,381.708588 180.314484,388.444763 
M275.482452,274.865234 
	C272.329041,270.217468 267.402466,269.231934 262.367157,268.813293 
	C258.454376,268.487976 255.005005,272.275909 255.450226,276.241699 
	C255.857635,279.870636 258.364868,282.217468 261.331146,283.852295 
	C265.095184,285.926788 268.843231,285.013367 272.092499,282.571014 
	C274.356598,280.869171 277.495880,279.343994 275.482452,274.865234 
z"/>
<path fill="#000000" opacity="1.000000" stroke="none" 
	d="
M243.785828,211.280594 
	C228.934845,200.302612 230.606628,202.535675 239.625854,188.453201 
	C246.692581,177.419327 246.998108,177.560165 257.144409,185.763153 
	C260.111694,188.162109 263.101685,190.532959 266.671692,193.389053 
	C270.043854,188.811676 273.496918,184.433548 276.599487,179.819763 
	C279.301422,175.801727 282.019012,175.017685 285.934113,178.282120 
	C290.018066,181.687332 294.422760,184.705948 298.651062,187.940842 
	C300.990723,189.730835 301.367859,191.900909 299.867035,194.506134 
	C296.789886,199.847549 293.555054,205.076401 289.843567,210.009399 
	C287.701599,212.856277 285.415222,213.099533 282.623199,210.945572 
	C278.538727,207.794540 274.200958,204.949844 270.291962,201.600250 
	C267.156830,198.913757 265.285095,199.484573 263.275238,202.788773 
	C261.377136,205.909286 259.133270,208.826935 256.944946,211.761810 
	C252.943710,217.128143 252.630371,217.156281 246.971039,213.452850 
	C245.996368,212.815033 245.044281,212.142700 243.785828,211.280594 
z"/>
<path fill="#000000" opacity="1.000000" stroke="none" 
	d="
M268.526306,171.584930 
	C265.859009,175.796371 263.046967,175.728104 259.629364,172.975113 
	C255.611877,169.738876 251.372375,166.779465 247.258514,163.661285 
	C244.377426,161.477524 243.933640,158.783020 245.941055,155.800339 
	C249.194687,150.965988 252.527679,146.185059 255.822357,141.378296 
	C257.810577,138.477631 260.247894,138.052063 263.052368,140.141510 
	C267.591858,143.523605 272.085480,146.967224 276.616150,150.361282 
	C279.073090,152.201859 279.224243,154.382629 277.783264,156.924164 
	C274.989410,161.851700 272.237640,166.802917 268.526306,171.584930 
z"/>
</svg>