<svg version="1.1" id="Layer_1" xmlns="http://www.w3.org/2000/svg" xmlns:xlink="http://www.w3.org/1999/xlink" x="0px" y="0px"
	 width="100%" viewBox="0 0 336 592" enable-background="new 0 0 336 592" xml:space="preserve">
<path fill="#000000" opacity="1.000000" stroke="none" 
	d="
M52.394794,339.449768 
	C57.472824,349.353851 66.227211,354.150146 75.653084,357.797241 
	C91.479630,363.920898 107.966454,366.814331 124.950401,366.795197 
	C179.178421,366.734039 230.440659,354.272461 278.838470,329.913055 
	C284.648621,326.988739 290.171783,323.535553 295.158905,319.327637 
	C301.067413,314.342285 301.478729,312.515808 298.115845,305.660004 
	C296.606079,302.582062 295.498993,299.217834 292.723907,296.361694 
	C288.858582,300.549927 285.157288,304.510254 281.510956,308.520538 
	C269.490509,321.740997 252.016449,316.606293 244.583679,306.347504 
	C239.417206,299.216705 238.939926,291.142578 241.174774,282.972473 
	C245.179810,268.331116 251.885162,255.006989 261.887268,243.490860 
	C270.151825,233.975266 279.420868,233.916962 287.815643,243.390747 
	C299.265472,256.312225 304.326385,272.093994 307.272675,288.656128 
	C308.961090,298.147369 309.787445,307.671600 308.550903,317.436646 
	C306.300659,335.207001 297.065063,347.714600 281.303741,355.441925 
	C247.911331,371.813354 212.702606,382.635956 176.159454,389.328857 
	C157.112686,392.817291 137.899216,394.545685 118.582840,394.844421 
	C101.827591,395.103607 85.419724,392.723541 69.762932,386.298279 
	C42.519501,375.118011 31.813269,352.363983 40.255394,323.376709 
	C43.363972,312.702911 48.244389,302.915588 55.257164,294.257416 
	C56.662075,292.522858 58.222832,289.964386 60.918526,292.085388 
	C63.388599,294.028839 61.310265,296.129547 60.198959,297.765594 
	C53.917099,307.013580 51.383076,317.418091 50.471809,328.342285 
	C50.162296,332.052704 51.089771,335.604095 52.394794,339.449768 
M258.945374,269.519043 
	C254.124969,274.556915 254.229767,278.073730 259.331421,282.474335 
	C264.270935,286.735077 273.230103,284.651093 275.983521,278.702240 
	C276.870667,276.785583 276.045776,275.468109 274.941254,274.211823 
	C270.832184,269.538086 265.519348,268.458801 258.945374,269.519043 
z"/>
<path fill="#000000" opacity="1.000000" stroke="none" 
	d="
M220.101395,428.103485 
	C223.074860,421.324066 227.323395,415.766998 231.378967,410.080383 
	C233.498993,407.107758 235.852905,407.009369 238.573761,409.144165 
	C242.628464,412.325562 246.804871,415.365051 250.705154,418.725311 
	C253.251389,420.919006 254.795547,420.652924 256.635712,417.894165 
	C259.309357,413.885803 262.363556,410.133057 265.194031,406.226807 
	C267.125793,403.560791 269.292114,403.102875 271.969788,405.133514 
	C276.606812,408.650085 281.283447,412.114319 285.932861,415.614685 
	C288.291443,417.390350 288.739044,419.519714 287.274048,422.155212 
	C284.279480,427.542328 281.004364,432.733551 277.301147,437.669434 
	C275.157898,440.526093 272.847382,440.822296 270.073181,438.756165 
	C265.937927,435.676300 261.678497,432.746429 257.710510,429.464264 
	C254.891724,427.132751 252.971252,427.105286 250.900040,430.327942 
	C248.565018,433.961090 245.780899,437.303101 243.380585,440.897583 
	C241.279434,444.044037 238.829758,444.694092 235.899857,442.298950 
	C230.466431,437.857178 223.218750,435.483887 220.101395,428.103485 
z"/>
<path fill="#000000" opacity="1.000000" stroke="none" 
	d="
M266.288574,474.208527 
	C259.173645,483.669556 259.156525,483.694702 249.786896,477.308990 
	C247.040054,475.436951 244.435165,473.357758 241.738968,471.409851 
	C238.671875,469.193939 237.866653,466.585541 240.127075,463.302734 
	C243.522095,458.372101 246.853653,453.397675 250.259476,448.474579 
	C252.234787,445.619293 254.653336,445.274384 257.513885,447.285004 
	C262.141724,450.537842 266.758270,453.789001 271.010132,457.546417 
	C273.595642,459.831329 273.862274,462.209595 272.051788,465.027649 
	C270.163818,467.966248 268.336853,470.944000 266.288574,474.208527 
z"/>
</svg>