<svg version="1.1" id="Layer_1" xmlns="http://www.w3.org/2000/svg" xmlns:xlink="http://www.w3.org/1999/xlink" x="0px" y="0px"
	 width="100%" viewBox="0 0 336 592" enable-background="new 0 0 336 592" xml:space="preserve">
<path fill="#000000" opacity="1.000000" stroke="none" 
	d="
M253.483917,367.604797 
	C218.134460,381.137512 182.119934,390.174591 144.716446,393.424255 
	C124.757423,395.158356 104.839958,396.056824 85.148117,391.280121 
	C75.896904,389.035980 66.975929,385.856445 58.935905,380.558228 
	C41.443832,369.031281 34.542770,352.490723 38.347179,331.873016 
	C40.685173,319.202423 45.491394,307.658081 52.958809,297.196198 
	C53.925201,295.842316 54.945347,294.515320 56.053963,293.277405 
	C57.302147,291.883667 58.718410,290.474884 60.754726,291.863617 
	C62.900417,293.326904 61.866753,295.154480 60.883141,296.683990 
	C56.609459,303.329529 53.156635,310.326782 51.892113,318.190002 
	C51.155262,322.771912 50.105434,327.368469 50.538845,332.053589 
	C51.300755,340.289642 55.741154,346.245178 62.408974,350.798584 
	C75.865860,359.988129 91.232338,364.152985 107.009621,365.476440 
	C167.507248,370.551239 224.301956,356.706726 278.356140,330.140015 
	C285.233856,326.759735 291.724396,322.669189 297.323456,317.298340 
	C300.198151,314.540802 301.132233,311.596252 299.195923,307.922577 
	C297.205658,304.146515 295.891876,299.986755 292.741394,296.361145 
	C288.751862,300.671539 285.103119,304.918457 281.135315,308.842743 
	C269.944031,319.911224 253.545883,318.689392 244.306168,305.948364 
	C239.382919,299.159546 239.056610,291.292847 241.121780,283.464752 
	C245.040024,268.612640 251.776657,255.122208 261.917175,243.493851 
	C270.362488,233.809448 279.681793,233.941605 288.175110,243.773880 
	C299.331696,256.689270 304.359772,272.292511 307.277374,288.685577 
	C308.967041,298.179260 309.793335,307.700409 308.557587,317.465302 
	C306.335052,335.028168 297.187958,347.318848 281.753113,355.265045 
	C272.714874,359.918121 263.335114,363.829071 253.483917,367.604797 
M273.666718,272.725830 
	C270.635773,270.051025 266.888641,269.264709 263.055359,268.869965 
	C259.001770,268.452606 255.773682,270.998779 255.499725,275.058685 
	C255.183487,279.745026 258.417236,282.356873 262.047699,284.211700 
	C265.827850,286.143066 271.747528,283.955231 275.019653,280.161804 
	C277.408447,277.392426 276.133942,275.331421 273.666718,272.725830 
z"/>
<path fill="#000000" opacity="1.000000" stroke="none" 
	d="
M249.964767,180.053894 
	C244.256134,176.605698 238.788788,172.824890 233.620987,168.593628 
	C230.666138,166.174271 230.051117,163.619003 232.251083,160.389435 
	C235.437531,155.711700 238.577499,151.000885 241.655289,146.251038 
	C243.721664,143.062073 246.224472,142.609024 249.201874,144.837357 
	C254.244156,148.611084 259.240723,152.445908 264.572815,156.495285 
	C268.839996,152.540009 271.551880,147.520004 274.850983,143.031693 
	C277.682037,139.180130 280.258423,138.730469 283.898468,141.648361 
	C287.923340,144.874741 292.103943,147.907745 296.235352,151.000107 
	C299.100098,153.144440 299.599304,155.400665 297.622589,158.677719 
	C293.846710,164.937546 290.185699,171.245941 285.135681,176.832642 
	C289.723328,180.362411 294.126068,183.866638 298.656006,187.197922 
	C302.201630,189.805359 302.440491,192.659912 300.043182,196.174164 
	C297.043121,200.571960 294.251984,205.111710 291.286774,209.533951 
	C289.015228,212.921722 286.443634,213.576416 283.031525,210.697617 
	C279.346802,207.588882 275.143951,205.088959 271.501068,201.937485 
	C268.169830,199.055542 266.168884,199.829453 264.040222,203.254105 
	C261.846527,206.783401 259.216553,210.038559 256.869659,213.476593 
	C255.044189,216.150818 252.952576,216.818207 250.122787,214.966949 
	C245.240631,211.773056 240.428955,208.489624 236.004120,204.674454 
	C234.074570,203.010757 232.931442,201.033554 234.401337,198.541458 
	C237.870361,192.659988 241.451538,186.845184 245.835144,181.579376 
	C246.703918,180.535767 247.734528,179.684143 249.893845,180.140732 
	C256.195923,184.639313 261.857117,188.886490 267.793457,193.340134 
	C272.393707,187.184326 276.807556,181.277954 281.416016,175.111160 
	C277.051208,171.842407 272.764771,168.985687 268.905884,165.636414 
	C265.502777,162.682755 263.520081,163.265503 260.992889,166.801346 
	C257.660034,171.464432 255.333557,177.059784 249.964767,180.053894 
z"/>
</svg>