<svg version="1.1" id="Layer_1" xmlns="http://www.w3.org/2000/svg" xmlns:xlink="http://www.w3.org/1999/xlink" x="0px" y="0px"
	 width="100%" viewBox="0 0 336 592" enable-background="new 0 0 336 592" xml:space="preserve">
<path fill="#000000" opacity="1.000000" stroke="none" 
	d="
M187.404419,312.391602 
	C186.553192,302.095245 189.378143,292.867065 192.737900,283.822784 
	C196.354156,274.088043 201.186295,265.002686 208.519485,257.426910 
	C216.945389,248.722260 225.393295,248.154907 234.261292,256.336243 
	C247.383972,268.442780 254.187225,284.162323 257.885773,301.151764 
	C262.561584,322.630249 262.773132,344.271332 254.633926,365.016876 
	C244.521011,390.793182 224.828873,407.650146 200.169403,418.688324 
	C174.014694,430.395752 146.834457,432.462799 119.394547,423.461029 
	C94.394241,415.259583 82.533249,394.795105 85.439140,368.177185 
	C87.972733,344.969543 98.138062,324.590973 109.520691,304.716736 
	C110.615120,302.805847 111.831398,299.997559 114.800224,301.646149 
	C117.794662,303.308990 116.442696,306.015411 115.401291,308.244781 
	C109.830414,320.170471 103.937073,332.047699 101.858864,345.160400 
	C99.775139,358.307892 100.388680,371.300446 109.984337,381.878906 
	C118.200104,390.936127 129.156784,395.234711 140.943451,396.503601 
	C176.921524,400.376648 208.678268,389.613861 236.488617,367.011261 
	C245.842346,359.409058 252.306854,349.811249 250.664276,336.743683 
	C249.867264,330.403076 248.013535,324.456146 244.280594,318.874268 
	C241.825180,319.944946 240.762085,322.151886 239.120621,323.675842 
	C230.382751,331.788269 220.408066,336.191193 208.229950,334.402283 
	C196.725388,332.712311 188.834030,324.541809 187.404419,312.391602 
M222.371964,291.001984 
	C219.189362,287.993530 215.947281,285.125336 211.123260,285.370575 
	C208.015961,285.528564 206.192184,287.250000 205.476059,290.122253 
	C204.788193,292.881104 205.883011,294.962402 208.282333,296.468231 
	C212.238983,298.951385 219.938797,298.226746 223.324310,295.144806 
	C225.088516,293.538788 223.903824,292.574493 222.371964,291.001984 
z"/>
<path fill="#000000" opacity="1.000000" stroke="none" 
	d="
M218.761597,194.819763 
	C223.883530,193.829025 226.629593,197.580261 229.904297,199.822723 
	C242.040802,208.133575 242.005783,208.418793 234.004486,220.560501 
	C226.245255,232.334854 226.245239,232.334885 214.844727,224.394562 
	C203.458282,216.464050 203.447479,216.457031 210.934753,204.868408 
	C213.184814,201.385818 215.503571,197.946442 218.761597,194.819763 
z"/>
</svg>