<svg version="1.1" id="Layer_1" xmlns="http://www.w3.org/2000/svg" xmlns:xlink="http://www.w3.org/1999/xlink" x="0px" y="0px"
	 width="100%" viewBox="0 0 348 592" enable-background="new 0 0 348 592" xml:space="preserve">
<path fill="#FFFFFF" opacity="1.000000" stroke="none" 
	d="
M153.000000,593.000000 
	C102.013420,593.000000 51.526844,593.000000 1.020133,593.000000 
	C1.020133,395.732544 1.020133,198.465073 1.020133,1.098803 
	C116.903229,1.098803 232.806564,1.098803 348.854950,1.098803 
	C348.854950,198.333252 348.854950,395.666626 348.854950,593.000000 
	C283.798370,593.000000 218.649185,593.000000 153.000000,593.000000 
M163.500076,293.162964 
	C148.168884,293.162964 132.837662,293.175842 117.506485,293.158234 
	C108.008720,293.147339 98.500298,293.361877 89.015892,292.987640 
	C76.024734,292.474945 69.530334,282.276123 74.704300,270.424286 
	C76.395424,266.550507 78.920181,262.766296 81.902527,259.778412 
	C94.259354,247.398514 109.426460,240.799469 126.840820,239.700012 
	C134.211853,239.234650 141.756821,239.236938 144.993454,247.699905 
	C149.682297,241.299454 153.983307,234.959534 158.783218,229.022995 
	C162.702316,224.175827 161.809875,220.792908 158.355087,216.570969 
	C152.477951,209.388840 144.742386,206.704758 135.603867,208.397186 
	C101.164497,214.775269 75.529045,233.304016 59.343018,264.409668 
	C53.985271,274.705933 52.658043,286.068542 54.205986,297.483002 
	C56.241199,312.490448 67.798904,320.396820 82.120354,320.343811 
	C149.443176,320.094543 216.767593,320.170959 284.090912,320.339600 
	C290.162292,320.354797 296.339111,321.388916 302.276459,322.769287 
	C314.564178,325.626099 317.222687,341.977325 309.355804,349.700012 
	C305.742859,353.246735 301.427704,356.376740 296.901825,358.635498 
	C285.992432,364.080200 274.101105,366.028015 262.025940,365.846222 
	C177.584366,364.574890 93.077606,369.117920 8.684304,363.101105 
	C7.062549,362.985474 5.338860,364.299591 3.662727,364.946655 
	C4.585692,366.896210 4.995959,369.602570 6.533850,370.644470 
	C10.214391,373.137970 14.349101,375.019287 18.435263,376.846252 
	C42.178253,387.462219 67.291878,392.373230 93.089699,392.646149 
	C144.076340,393.185577 195.071793,393.021088 246.063126,392.915314 
	C263.252228,392.879639 279.640015,389.104431 295.023071,381.035095 
	C319.134064,368.387390 332.622101,344.155029 329.912445,317.220917 
	C328.919006,307.345795 324.095032,299.652588 314.496735,296.431427 
	C308.621094,294.459595 302.177673,293.337341 295.980560,293.300751 
	C252.154999,293.041870 208.327194,293.163025 163.500076,293.162964 
z"/>
<path fill="#020202" opacity="1.000000" stroke="none" 
	d="
M164.000092,293.162964 
	C208.327194,293.163025 252.154999,293.041870 295.980560,293.300751 
	C302.177673,293.337341 308.621094,294.459595 314.496735,296.431427 
	C324.095032,299.652588 328.919006,307.345795 329.912445,317.220917 
	C332.622101,344.155029 319.134064,368.387390 295.023071,381.035095 
	C279.640015,389.104431 263.252228,392.879639 246.063126,392.915314 
	C195.071793,393.021088 144.076340,393.185577 93.089699,392.646149 
	C67.291878,392.373230 42.178253,387.462219 18.435263,376.846252 
	C14.349101,375.019287 10.214391,373.137970 6.533850,370.644470 
	C4.995959,369.602570 4.585692,366.896210 3.662727,364.946655 
	C5.338860,364.299591 7.062549,362.985474 8.684304,363.101105 
	C93.077606,369.117920 177.584366,364.574890 262.025940,365.846222 
	C274.101105,366.028015 285.992432,364.080200 296.901825,358.635498 
	C301.427704,356.376740 305.742859,353.246735 309.355804,349.700012 
	C317.222687,341.977325 314.564178,325.626099 302.276459,322.769287 
	C296.339111,321.388916 290.162292,320.354797 284.090912,320.339600 
	C216.767593,320.170959 149.443176,320.094543 82.120354,320.343811 
	C67.798904,320.396820 56.241199,312.490448 54.205986,297.483002 
	C52.658043,286.068542 53.985271,274.705933 59.343018,264.409668 
	C75.529045,233.304016 101.164497,214.775269 135.603867,208.397186 
	C144.742386,206.704758 152.477951,209.388840 158.355087,216.570969 
	C161.809875,220.792908 162.702316,224.175827 158.783218,229.022995 
	C153.983307,234.959534 149.682297,241.299454 144.993454,247.699905 
	C141.756821,239.236938 134.211853,239.234650 126.840820,239.700012 
	C109.426460,240.799469 94.259354,247.398514 81.902527,259.778412 
	C78.920181,262.766296 76.395424,266.550507 74.704300,270.424286 
	C69.530334,282.276123 76.024734,292.474945 89.015892,292.987640 
	C98.500298,293.361877 108.008720,293.147339 117.506485,293.158234 
	C132.837662,293.175842 148.168884,293.162964 164.000092,293.162964 
z"/>
</svg>