<svg version="1.1" id="Layer_1" xmlns="http://www.w3.org/2000/svg" xmlns:xlink="http://www.w3.org/1999/xlink" x="0px" y="0px"
	 width="100%" viewBox="0 0 336 592" enable-background="new 0 0 336 592" xml:space="preserve">
<path fill="#000000" opacity="1.000000" stroke="none" 
	d="
M337.000000,178.562500 
	C333.522797,181.976181 332.201874,186.174438 331.034027,190.299591 
	C329.342804,196.273392 325.987152,199.766815 319.770569,201.573410 
	C308.113831,204.960968 296.709442,209.216782 285.199860,213.110809 
	C283.314819,213.748596 281.364136,214.253128 279.612213,215.984573 
	C281.307648,218.690353 283.185822,221.367432 284.740906,224.220566 
	C296.611969,246.000687 282.466492,271.516907 257.768250,272.952057 
	C246.291321,273.618958 237.813126,265.069550 236.723969,251.645340 
	C236.455719,248.339081 236.078232,244.988449 236.347595,241.707199 
	C236.602524,238.601547 236.271667,235.405884 237.689529,232.827820 
	C236.453186,231.304367 235.441483,231.892609 234.579102,232.233810 
	C219.549179,238.180176 204.608429,244.358383 190.742645,252.752625 
	C178.508804,260.158936 178.557205,262.428284 191.022720,268.953400 
	C205.954498,276.769470 220.922607,284.483734 232.747253,296.904968 
	C243.693634,308.403595 252.483322,321.008484 255.545807,337.120911 
	C259.920593,360.137482 251.770676,375.791565 229.916901,385.043243 
	C214.417679,391.604767 198.030350,394.487579 181.460388,396.175476 
	C156.094238,398.759430 130.618835,399.632172 105.128334,399.202087 
	C88.822319,398.927032 72.599228,397.788757 56.698109,393.474030 
	C28.666006,385.867584 21.713934,364.978699 24.059031,341.012634 
	C25.170872,329.650055 28.203547,318.445679 31.906345,307.565979 
	C32.816288,304.892365 33.216278,299.996216 37.350132,301.297791 
	C41.092495,302.476166 39.248245,306.659607 38.592106,309.632721 
	C36.538101,318.939606 34.710613,328.287750 37.485455,337.727814 
	C41.210125,350.399200 50.618832,357.319885 62.416298,361.673950 
	C75.864540,366.637390 89.944740,368.359222 104.087120,368.539459 
	C134.241287,368.923676 164.406082,368.860840 194.561829,368.540649 
	C206.352905,368.415497 218.171875,367.409424 229.509552,363.546844 
	C233.632172,362.142365 237.596893,360.451416 241.104034,357.819763 
	C247.389359,353.103424 248.289017,349.162170 244.320557,342.383514 
	C240.066010,335.116150 233.956177,329.401855 228.124634,323.448944 
	C217.331146,312.430817 204.415298,304.689453 190.412201,298.551483 
	C188.131195,297.551666 185.957672,296.303314 183.749237,295.141754 
	C175.305084,290.700500 171.222137,283.643433 170.834137,274.163818 
	C170.553497,267.307190 171.155914,260.516479 171.897369,253.738449 
	C172.413010,249.024567 175.116714,245.584488 178.875061,242.678497 
	C194.393723,230.679321 211.675690,221.675644 229.088608,212.909760 
	C262.219727,196.231110 297.372101,184.715103 332.350555,172.770218 
	C333.599579,172.343658 334.931274,172.159210 336.612244,171.930969 
	C337.000000,174.041672 337.000000,176.083328 337.000000,178.562500 
M246.265488,244.118225 
	C251.947067,251.745590 265.430450,253.698502 273.170410,248.080994 
	C275.622772,246.301132 276.159332,244.267685 274.567505,241.680923 
	C271.226440,236.251511 266.547424,232.403000 260.547577,230.337357 
	C251.776627,227.317657 244.343857,234.059586 246.265488,244.118225 
z"/>
</svg>