<svg version="1.1" id="Layer_1" xmlns="http://www.w3.org/2000/svg" xmlns:xlink="http://www.w3.org/1999/xlink" x="0px" y="0px"
	 width="100%" viewBox="0 0 336 592" enable-background="new 0 0 336 592" xml:space="preserve">
<path fill="#000000" opacity="1.000000" stroke="none" 
	d="
M231.486282,390.881836 
	C219.739151,393.923828 208.066177,394.656158 196.454712,395.096069 
	C169.322617,396.123962 142.165756,397.032166 115.026657,395.201447 
	C109.897110,394.855408 104.730484,394.226410 99.723389,393.096741 
	C92.584946,391.486176 88.550117,386.131500 88.993866,378.860199 
	C89.564003,369.517609 91.819695,360.472687 95.005196,351.672882 
	C95.653465,349.882080 96.555237,348.082550 98.884628,348.660522 
	C101.240845,349.245178 101.155594,351.143219 100.747215,353.092987 
	C99.693932,358.121857 102.407303,360.999542 106.611588,362.774536 
	C111.586258,364.874695 116.923477,365.455597 122.241760,365.621338 
	C147.236938,366.400238 172.245422,366.295563 197.229843,365.524902 
	C209.330017,365.151672 221.530685,364.484589 233.337067,361.252716 
	C242.751175,358.675690 244.487839,355.599701 243.115982,345.981995 
	C237.475601,306.439056 227.791702,267.690918 220.168701,228.538467 
	C217.595993,215.324814 214.539459,202.184769 213.318573,188.745377 
	C212.492126,179.647903 214.735565,171.191544 219.840881,163.653015 
	C223.108124,158.828598 225.002014,158.978806 228.282562,163.680008 
	C232.192459,169.283127 236.084473,174.898743 239.992584,180.503113 
	C241.155045,182.170135 242.583572,183.954681 240.966965,185.917557 
	C230.509705,198.614471 233.464737,212.670517 236.544968,226.833435 
	C241.877121,251.350632 247.714035,275.767975 251.751495,300.549469 
	C254.237656,315.809174 256.601410,331.082397 256.426422,346.635498 
	C256.372742,351.408997 255.573471,355.838806 253.663254,360.193726 
	C250.105774,368.303955 246.013077,376.107697 240.995789,383.408234 
	C238.699219,386.749908 236.069473,389.743958 231.486282,390.881836 
z"/>
<path fill="#000000" opacity="1.000000" stroke="none" 
	d="
M170.397156,223.130615 
	C173.482590,221.276657 174.950623,221.964325 175.474609,225.235077 
	C176.209839,229.824219 177.166107,234.379364 178.092026,238.936020 
	C178.656113,241.712067 177.033890,242.802475 174.824554,243.692032 
	C170.495819,245.434952 166.256805,247.364655 162.411087,250.074402 
	C160.029251,251.752640 157.707581,253.439285 158.208038,256.828064 
	C158.717331,260.276703 161.404022,261.202301 164.291595,261.808624 
	C167.382431,262.457703 170.470535,263.122040 173.570587,263.724426 
	C183.965469,265.744324 187.654175,270.400146 187.334976,281.053650 
	C186.900742,295.547852 170.299164,318.382690 150.526672,316.289429 
	C139.647385,315.137634 129.622360,311.612030 119.959076,305.008270 
	C122.818192,302.936615 125.454628,303.030731 127.973839,302.710052 
	C137.706924,301.471130 147.436401,300.186737 156.911133,297.529938 
	C158.820374,296.994568 160.665665,296.175507 162.466293,295.329468 
	C163.519073,294.834778 164.512634,294.016388 164.437180,292.673340 
	C164.346832,291.065491 163.133972,290.417542 161.748657,290.180145 
	C157.983551,289.534973 154.198578,289.005402 150.434357,288.355438 
	C139.789764,286.517517 135.761307,280.933380 138.031860,270.301086 
	C142.296555,250.330795 152.884445,234.542709 170.397156,223.130615 
z"/>
<path fill="#000000" opacity="1.000000" stroke="none" 
	d="
M153.097809,203.954758 
	C149.466705,201.285797 146.127151,198.826370 142.796982,196.354294 
	C140.448257,194.610733 139.862030,192.485672 141.330887,189.845673 
	C144.484207,184.178146 147.981506,178.748489 152.085434,173.712051 
	C153.841980,171.556366 155.839462,171.115570 158.207672,172.532822 
	C163.635376,175.780960 168.679642,179.549194 173.406769,183.752899 
	C175.370758,185.499466 175.448532,187.399643 174.117447,189.512283 
	C171.552505,193.583160 169.153564,197.771088 166.385315,201.698715 
	C161.283157,208.937775 160.896225,208.929428 153.097809,203.954758 
z"/>
</svg>