<svg version="1.1" id="Layer_1" xmlns="http://www.w3.org/2000/svg" xmlns:xlink="http://www.w3.org/1999/xlink" x="0px" y="0px"
	 width="100%" viewBox="0 0 336 592" enable-background="new 0 0 336 592" xml:space="preserve">
<path fill="#000000" opacity="1.000000" stroke="none" 
	d="
M173.654388,395.863342 
	C150.869247,396.428192 128.563919,396.480774 106.315155,394.325348 
	C103.846573,394.086151 101.353935,393.643646 98.983620,392.927521 
	C92.152367,390.863556 88.360191,385.186340 89.012314,378.090973 
	C89.822327,369.277649 91.791061,360.708191 94.783752,352.379089 
	C95.456467,350.506775 96.028969,348.172455 98.670860,348.692047 
	C101.342804,349.217529 100.991844,351.369171 100.644356,353.480865 
	C99.861778,358.236633 102.490189,361.034851 106.503906,362.742126 
	C111.474823,364.856598 116.810173,365.452515 122.121284,365.613617 
	C147.269043,366.376282 172.429993,366.271210 197.568054,365.521240 
	C209.332397,365.170288 221.181091,364.424591 232.692032,361.470215 
	C242.635437,358.918152 244.499756,355.782684 243.070114,345.695435 
	C237.490646,306.327606 227.829803,267.760406 220.244064,228.786819 
	C217.609512,215.251236 214.405838,201.794952 213.244736,188.033463 
	C212.497559,179.178070 214.862961,170.821243 219.976547,163.489395 
	C223.166946,158.914993 225.030655,159.051697 228.127289,163.489471 
	C232.130173,169.225983 236.079346,174.999924 240.070068,180.744980 
	C241.250946,182.444977 242.434753,184.194626 240.810593,186.170105 
	C230.350006,198.893341 233.525574,212.969131 236.599731,227.091248 
	C241.933578,251.593994 247.716049,276.008728 251.788040,300.767700 
	C254.350021,316.345276 256.715179,331.952087 256.417725,347.833466 
	C256.341003,351.928467 255.687531,355.795166 253.937607,359.435669 
	C251.198639,365.133850 248.097900,370.665009 245.518356,376.431488 
	C240.251816,388.204773 230.697464,392.360748 218.475861,393.444885 
	C203.703934,394.755219 188.912369,395.122925 173.654388,395.863342 
z"/>
<path fill="#000000" opacity="1.000000" stroke="none" 
	d="
M161.113617,322.314209 
	C162.860031,321.296600 164.680298,320.559082 164.242157,318.510071 
	C163.823349,316.551514 161.890366,316.334320 160.258484,316.056946 
	C157.149780,315.528503 154.003281,315.209686 150.907547,314.619873 
	C139.394669,312.426331 135.867462,308.677917 137.889847,297.112488 
	C141.584000,275.986603 153.408691,259.945404 171.540634,248.549759 
	C171.952820,248.290695 172.453003,248.136353 172.933624,248.034378 
	C173.232742,247.970917 173.572327,248.098190 174.441910,248.210922 
	C176.636490,253.883011 177.451447,260.091370 178.257980,266.282898 
	C178.595123,268.871063 176.439529,269.563324 174.577515,270.317413 
	C169.937622,272.196442 165.365494,274.196014 161.295685,277.181335 
	C159.138611,278.763580 157.692917,280.686676 158.260803,283.525269 
	C158.795135,286.196106 160.856674,287.310303 163.211578,287.877258 
	C166.115158,288.576355 169.054520,289.145966 171.998749,289.653625 
	C185.337250,291.953278 189.569763,297.557831 187.129898,310.860474 
	C184.682343,324.205078 170.645050,342.116791 154.625427,342.754242 
	C142.488312,343.237183 131.425293,339.202393 121.344841,332.503235 
	C120.812622,332.149567 120.329185,331.598999 120.864891,330.262695 
	C133.952026,327.803009 147.815842,327.292053 161.113617,322.314209 
z"/>
<path fill="#000000" opacity="1.000000" stroke="none" 
	d="
M179.798172,228.017792 
	C177.189484,230.145706 175.446625,228.449890 173.739441,227.215332 
	C169.558884,224.192108 165.368988,221.171143 161.341354,217.951004 
	C158.820511,215.935547 157.053329,216.074722 155.208740,218.791977 
	C152.686340,222.507660 149.878525,226.028259 147.293320,229.703018 
	C145.303650,232.531219 143.023560,233.236252 140.118011,231.122513 
	C135.677887,227.892410 131.238602,224.661179 126.794434,221.436661 
	C123.813011,219.273438 123.478882,216.726501 125.523331,213.700470 
	C128.690155,209.013138 131.848480,204.317764 134.892624,199.550598 
	C137.237213,195.878906 139.996460,195.718704 143.226410,198.232315 
	C148.052994,201.988510 152.861710,205.767685 158.102707,209.869446 
	C161.678665,205.073166 165.157562,200.661499 168.346390,196.049286 
	C170.879654,192.385284 173.560577,191.846970 177.072556,194.608276 
	C181.256409,197.897858 185.545654,201.053146 189.776016,204.283920 
	C192.256912,206.178604 192.886124,208.431732 191.194992,211.238770 
	C187.762222,216.936707 184.630905,222.832321 179.798172,228.017792 
z"/>
<path fill="#000000" opacity="1.000000" stroke="none" 
	d="
M136.320221,177.362183 
	C136.198105,171.391953 140.388062,167.829742 143.186981,163.685318 
	C150.158295,153.362701 150.439545,153.323044 160.177277,160.773148 
	C173.141830,170.692017 172.395020,168.342682 164.055695,182.140488 
	C156.985016,193.839264 156.724274,193.706863 145.917419,185.785400 
	C142.573593,183.334366 139.026657,181.100540 136.320221,177.362183 
z"/>
</svg>