<svg version="1.1" id="Layer_1" xmlns="http://www.w3.org/2000/svg" xmlns:xlink="http://www.w3.org/1999/xlink" x="0px" y="0px"
	 width="100%" viewBox="0 0 336 592" enable-background="new 0 0 336 592" xml:space="preserve">
<path fill="#000000" opacity="1.000000" stroke="none" 
	d="
M191.978043,395.318665 
	C173.501038,395.767700 155.513687,396.752167 137.529816,396.054047 
	C125.412636,395.583710 113.190521,396.015442 101.232574,393.398193 
	C91.702026,391.312164 88.267609,385.761139 89.324654,375.923615 
	C90.203270,367.746704 92.249794,359.918976 94.845840,352.184662 
	C95.489403,350.267334 96.236557,348.050018 98.857323,348.690613 
	C101.533051,349.344666 100.946739,351.508057 100.629669,353.581604 
	C99.903000,358.333710 102.573639,361.109253 106.602470,362.783142 
	C111.587975,364.854462 116.914452,365.452148 122.232002,365.622467 
	C147.220901,366.422668 172.222778,366.270447 197.201248,365.521301 
	C209.134033,365.163391 221.158386,364.461395 232.829559,361.429382 
	C242.693405,358.866882 244.499939,355.745941 243.048904,345.547058 
	C237.447433,306.175781 227.787827,267.602081 220.184158,228.624954 
	C217.543228,215.087280 214.341583,201.621979 213.221817,187.854599 
	C212.502197,179.007095 214.910492,170.641418 220.061325,163.329590 
	C223.222534,158.842102 225.046066,159.040009 228.213318,163.574753 
	C232.124664,169.174820 235.977005,174.816528 239.933243,180.384537 
	C241.385880,182.429001 242.417953,184.366394 240.542511,186.682861 
	C231.734833,197.561646 232.883392,209.768280 235.582520,222.307480 
	C241.210388,248.452652 247.508911,274.465179 251.816101,300.878052 
	C254.276428,315.965485 256.601318,331.077271 256.422760,346.461731 
	C256.365326,351.408691 255.691849,356.062256 253.489166,360.472382 
	C250.812057,365.832367 247.917435,371.092285 245.446457,376.544861 
	C240.525101,387.404480 231.975922,392.483124 220.341858,393.201294 
	C211.043808,393.775269 201.761261,394.600342 191.978043,395.318665 
z"/>
<path fill="#000000" opacity="1.000000" stroke="none" 
	d="
M152.937988,316.323242 
	C140.777069,315.714417 130.275223,311.781616 119.792343,305.045471 
	C122.865128,302.962219 125.494034,303.033447 128.019073,302.710785 
	C137.746078,301.467651 147.471039,300.185089 156.939835,297.526428 
	C158.847549,296.990753 160.689667,296.165527 162.487656,295.316315 
	C163.540558,294.819000 164.526611,293.989929 164.436188,292.649261 
	C164.328262,291.049011 163.110977,290.411774 161.725098,290.175751 
	C157.961395,289.534821 154.178864,289.003784 150.416870,288.353485 
	C140.289383,286.602875 136.256393,282.188721 137.861694,272.286865 
	C141.291519,251.131027 152.466064,234.750793 170.485397,223.104950 
	C171.417892,222.502304 172.585754,222.263840 174.076218,221.689194 
	C176.859436,227.849319 177.211700,234.309204 178.075150,240.610382 
	C178.347214,242.595840 176.189514,243.112991 174.674271,243.737869 
	C170.046463,245.646408 165.524826,247.752747 161.464905,250.724854 
	C159.362671,252.263855 157.711685,254.077576 158.228241,256.982910 
	C158.748947,259.911560 160.930511,261.037048 163.478729,261.619690 
	C166.879547,262.397278 170.304642,263.072327 173.728333,263.745483 
	C183.880997,265.741669 187.588257,270.392456 187.343323,280.696014 
	C186.984573,295.788605 170.468491,316.737762 152.937988,316.323242 
z"/>
<path fill="#000000" opacity="1.000000" stroke="none" 
	d="
M207.512390,447.488464 
	C200.233154,457.847656 200.233170,457.847626 190.205505,450.993835 
	C177.691742,442.440826 177.683975,442.401978 185.993958,429.868103 
	C194.101746,417.639221 194.107880,417.631592 205.599548,426.850189 
	C208.184402,428.923737 210.710037,431.071106 213.893814,433.706757 
	C217.217392,429.142731 220.380707,424.754517 223.591476,420.401306 
	C227.375031,415.271515 228.455566,415.050903 233.654541,418.833191 
	C237.823303,421.866058 241.849289,425.096191 245.917877,428.265411 
	C248.019272,429.902313 248.732315,431.852173 247.299225,434.362152 
	C244.160202,439.859985 240.914185,445.282684 237.113281,450.360596 
	C234.998337,453.186188 232.756714,453.473022 229.914154,451.303925 
	C224.651566,447.288055 219.267105,443.431854 213.947754,439.519684 
	C210.979965,441.796173 209.701355,444.781586 207.512390,447.488464 
z"/>
<path fill="#000000" opacity="1.000000" stroke="none" 
	d="
M213.000153,492.064148 
	C208.798294,489.049408 204.866287,486.268951 201.010040,483.387085 
	C198.500916,481.511932 198.014938,479.094421 199.643936,476.377747 
	C202.890106,470.964081 206.205048,465.602722 210.277145,460.739227 
	C212.381516,458.225952 214.592361,458.007263 217.254456,459.709381 
	C222.164810,462.848969 226.744965,466.411346 231.125565,470.247864 
	C233.543503,472.365540 233.755692,474.669647 232.022675,477.296051 
	C229.188766,481.591003 226.359573,485.889557 223.578293,490.218689 
	C220.837845,494.484131 217.543259,495.690399 213.000153,492.064148 
z"/>
</svg>