<svg version="1.1" id="Layer_1" xmlns="http://www.w3.org/2000/svg" xmlns:xlink="http://www.w3.org/1999/xlink" x="0px" y="0px"
	 width="100%" viewBox="0 0 336 592" enable-background="new 0 0 336 592" xml:space="preserve">
<path fill="#000000" opacity="1.000000" stroke="none" 
	d="
M337.000000,178.562500 
	C333.371826,182.085800 332.066193,186.486023 330.837158,190.751053 
	C329.210449,196.396088 325.961731,199.555756 320.227509,201.395355 
	C284.703827,212.791641 249.607071,225.380569 215.369324,240.265900 
	C207.878220,243.522781 200.501816,247.017593 193.447784,251.140564 
	C190.579910,252.816788 187.723694,254.597351 185.163483,256.697723 
	C180.141968,260.817322 180.334152,263.138092 186.016266,266.315674 
	C196.912125,272.408905 208.482147,277.350494 218.538101,284.874268 
	C236.424957,298.257111 250.859360,314.140106 255.456268,336.990692 
	C260.102295,360.085419 251.858383,375.676361 230.046844,384.997253 
	C217.068405,390.543427 203.388382,393.457520 189.510406,395.198334 
	C161.544601,398.706329 133.408890,399.587799 105.252312,399.200409 
	C88.774902,398.973724 72.376793,397.804840 56.329563,393.377289 
	C28.410458,385.674225 21.602976,364.435486 24.118273,340.637848 
	C25.319462,329.273193 28.298643,318.074524 32.033909,307.203217 
	C32.905548,304.666321 33.324600,300.122009 37.259998,301.240906 
	C40.981583,302.299072 39.373604,306.303467 38.748539,309.049683 
	C36.856033,317.364502 35.051094,325.727112 36.667599,334.234497 
	C39.454502,348.901550 49.430401,356.986206 62.791870,361.808533 
	C75.952591,366.558441 89.680740,368.355621 103.488609,368.532562 
	C133.812759,368.921204 164.147598,368.861267 194.473373,368.540833 
	C206.264206,368.416260 218.085068,367.430634 229.429779,363.575287 
	C234.201584,361.953644 238.756836,359.960815 242.592621,356.616028 
	C247.066833,352.714508 247.814484,349.594574 245.277802,344.225128 
	C242.830673,339.045258 239.013275,334.815735 235.199768,330.617004 
	C222.707123,316.862457 208.211563,305.896912 190.932724,298.787628 
	C188.936005,297.966095 187.043350,296.890472 185.107056,295.923431 
	C175.948929,291.349518 171.069519,284.142456 170.818558,273.714478 
	C170.657501,267.021790 171.192368,260.398315 171.910904,253.786270 
	C172.399124,249.293564 174.828506,245.852219 178.460770,243.016953 
	C193.930130,230.941757 211.201965,221.910110 228.615952,213.140900 
	C262.048492,196.305176 297.503845,184.635406 332.834900,172.666397 
	C333.928345,172.295959 335.092255,172.133667 336.611664,171.937164 
	C337.000000,174.041672 337.000000,176.083328 337.000000,178.562500 
z"/>
<path fill="#000000" opacity="1.000000" stroke="none" 
	d="
M191.895691,187.837494 
	C229.766296,161.342987 271.249878,142.979767 314.160095,127.515289 
	C316.145172,126.799896 318.422791,125.463623 320.124207,127.610451 
	C321.621613,129.499847 319.960724,131.383728 319.158020,133.160004 
	C316.965454,138.012054 314.719574,142.840195 312.553833,147.704071 
	C310.882416,151.457825 307.970520,153.552078 304.167023,154.978409 
	C257.091278,172.631958 212.433517,195.240372 169.309845,220.979797 
	C167.807632,221.876419 166.555099,223.539749 163.587280,222.695389 
	C166.629959,205.932602 179.048965,196.934982 191.895691,187.837494 
z"/>
<path fill="#000000" opacity="1.000000" stroke="none" 
	d="
M158.519531,149.542603 
	C155.712891,147.407486 153.224930,145.451996 150.672409,143.584717 
	C147.234818,141.069977 146.611298,138.196213 149.118408,134.608704 
	C152.265488,130.105423 155.358337,125.558975 158.311813,120.927361 
	C160.569717,117.386497 163.164551,117.365982 166.200439,119.718956 
	C171.059006,123.484619 175.900269,127.272636 181.291763,131.474304 
	C184.674911,126.933701 188.213226,122.591713 191.284546,117.941307 
	C194.023087,113.794785 196.756393,113.245987 200.603912,116.438095 
	C204.571930,119.730202 208.787415,122.723679 212.888229,125.856209 
	C215.375961,127.756538 215.948715,130.016541 214.362854,132.841141 
	C211.342056,138.221558 208.149353,143.480560 204.382874,148.383591 
	C202.372879,151.000107 200.208557,151.347702 197.556152,149.338440 
	C193.307220,146.119781 188.841537,143.166733 184.768494,139.743271 
	C181.815430,137.261200 180.025558,137.628387 178.080444,140.798187 
	C176.167969,143.914795 173.923737,146.832748 171.752930,149.784821 
	C167.859268,155.079727 167.164734,155.191086 161.733093,151.683319 
	C160.753433,151.050644 159.783737,150.402496 158.519531,149.542603 
z"/>
</svg>