<svg version="1.1" id="Layer_1" xmlns="http://www.w3.org/2000/svg" xmlns:xlink="http://www.w3.org/1999/xlink" x="0px" y="0px"
	 width="100%" viewBox="0 0 336 592" enable-background="new 0 0 336 592" xml:space="preserve">
<path fill="#000000" opacity="1.000000" stroke="none" 
	d="
M337.000000,178.562500 
	C333.386597,182.096771 332.077118,186.490524 330.845276,190.759125 
	C329.218353,196.396759 325.971893,199.561783 320.232574,201.402161 
	C284.706360,212.794128 249.605133,225.374146 215.370193,240.270126 
	C207.879730,243.529282 200.508774,247.034424 193.447815,251.146713 
	C190.719299,252.735794 188.001236,254.412918 185.541519,256.379120 
	C180.030365,260.784424 180.245285,263.130035 186.468857,266.568817 
	C197.250793,272.526276 208.570496,277.541595 218.570663,284.862732 
	C233.921478,296.101135 246.706665,309.607971 253.003250,327.884125 
	C257.581024,341.171265 259.349030,354.895447 251.640839,367.928284 
	C246.569550,376.502747 238.315430,381.319244 229.529037,385.134705 
	C214.251099,391.769073 197.969269,394.489594 181.565155,396.186798 
	C156.197998,398.811340 130.720993,399.652313 105.227806,399.214569 
	C88.918594,398.934509 72.696075,397.790833 56.789932,393.494690 
	C28.747669,385.920746 21.720316,365.150482 24.049040,341.099152 
	C25.165283,329.570435 28.247141,318.202301 32.039841,307.172180 
	C32.912052,304.635590 33.333729,300.089355 37.281635,301.240906 
	C40.974995,302.318207 39.368763,306.314972 38.745804,309.067169 
	C36.863701,317.382050 35.043224,325.740051 36.667515,334.251770 
	C39.467007,348.921936 49.456158,356.985199 62.809109,361.816376 
	C75.807755,366.519379 89.373901,368.336151 103.008255,368.521576 
	C133.499283,368.936310 164.002213,368.869263 194.495331,368.539001 
	C206.283173,368.411346 218.109314,367.437042 229.452423,363.569244 
	C234.222443,361.942719 238.778534,359.949890 242.613464,356.604553 
	C247.072296,352.715027 247.810028,349.575623 245.279907,344.204163 
	C242.910675,339.174225 239.221359,335.052460 235.537766,330.963287 
	C222.866653,316.897034 208.064362,305.795593 190.465057,298.573303 
	C188.468964,297.754150 186.577393,296.675873 184.652969,295.687317 
	C175.707077,291.092010 171.071426,283.891998 170.815094,273.707245 
	C170.646637,267.014954 171.181381,260.390564 171.905624,253.778854 
	C172.397461,249.288834 174.817276,245.847824 178.452866,243.009659 
	C194.056091,230.828842 211.488373,221.740433 229.060867,212.915970 
	C262.361389,196.193344 297.659973,184.573914 332.835602,172.660522 
	C333.929199,172.290131 335.092957,172.126999 336.612000,171.933624 
	C337.000000,174.041672 337.000000,176.083328 337.000000,178.562500 
z"/>
<path fill="#000000" opacity="1.000000" stroke="none" 
	d="
M195.513336,185.464569 
	C232.083374,160.401962 272.050476,143.098999 313.061951,127.935013 
	C314.306030,127.475021 315.580933,126.968582 316.880646,126.814842 
	C320.020996,126.443382 321.519196,127.919769 320.224060,130.929367 
	C317.529541,137.190826 314.614807,143.360260 311.673920,149.511765 
	C310.202515,152.589584 307.267487,153.892761 304.256500,155.032761 
	C257.102448,172.885605 212.228439,195.384125 169.074951,221.388977 
	C167.689835,222.223663 166.441330,223.524673 164.403442,222.995743 
	C162.716782,220.938232 164.127380,219.008377 164.880112,217.099380 
	C168.865509,206.991989 175.903244,199.391510 184.631287,193.194016 
	C188.160919,190.687759 191.687195,188.176773 195.513336,185.464569 
z"/>
<path fill="#000000" opacity="1.000000" stroke="none" 
	d="
M173.541443,430.419373 
	C175.989120,432.442596 178.159439,434.244415 180.786896,436.425720 
	C184.791534,432.563782 187.484116,427.796814 190.735596,423.511353 
	C194.886856,418.039948 195.525665,417.832825 201.051880,421.885406 
	C204.941772,424.738068 208.728806,427.730743 212.572250,430.647064 
	C215.440475,432.823486 215.968826,435.379364 213.977798,438.446320 
	C210.987946,443.051849 207.985733,447.650909 205.090424,452.315796 
	C202.503891,456.483246 199.638535,456.327850 196.055557,453.484192 
	C191.258179,449.676758 186.246719,446.139069 180.736679,442.047028 
	C177.555008,446.509338 174.643280,450.691833 171.627502,454.797913 
	C167.773148,460.045837 166.845764,460.171448 161.565536,456.674774 
	C157.397034,453.914276 153.333557,451.028870 149.560501,447.727631 
	C147.209534,445.670685 146.430450,443.514343 148.275116,440.764587 
	C151.705032,435.651825 155.141495,430.543304 158.541275,425.410522 
	C160.388596,422.621552 162.642014,422.239410 165.290604,424.185425 
	C167.972916,426.156281 170.608200,428.191101 173.541443,430.419373 
z"/>
</svg>