<svg version="1.1" id="Layer_1" xmlns="http://www.w3.org/2000/svg" xmlns:xlink="http://www.w3.org/1999/xlink" x="0px" y="0px"
	 width="100%" viewBox="0 0 336 592" enable-background="new 0 0 336 592" xml:space="preserve">
<path fill="#000000" opacity="1.000000" stroke="none" 
	d="
M337.000000,178.562500 
	C333.364014,182.080612 332.065826,186.483841 330.834747,190.748184 
	C329.206482,196.388153 325.968445,199.554596 320.230194,201.396255 
	C284.708801,212.796707 249.604279,225.362747 215.369797,240.256287 
	C207.725906,243.581741 200.219925,247.186935 193.010071,251.372131 
	C190.423721,252.873459 187.868851,254.495605 185.542496,256.364868 
	C180.038376,260.787567 180.239731,263.130493 186.449326,266.563293 
	C197.229736,272.522949 208.550873,277.537903 218.550858,284.855743 
	C233.901169,296.088898 246.695938,309.588043 252.998367,327.864197 
	C257.580536,341.151855 259.344788,354.873260 251.657303,367.910553 
	C246.596436,376.493256 238.336182,381.301849 229.554459,385.126282 
	C214.279861,391.778381 197.989716,394.482971 181.588181,396.165466 
	C156.221130,398.767578 130.742599,399.623566 105.249283,399.205719 
	C88.771622,398.935638 72.373825,397.803131 56.326687,393.375977 
	C28.408974,385.673981 21.601383,364.424286 24.119041,340.634491 
	C25.321741,329.269989 28.296717,318.070465 32.035553,307.200195 
	C32.907555,304.664978 33.326660,300.117981 37.262470,301.239899 
	C40.979935,302.299622 39.373154,306.303833 38.748108,309.051056 
	C36.856350,317.365753 35.052017,325.727386 36.668659,334.235596 
	C39.455822,348.904236 49.433365,356.985992 62.793434,361.808563 
	C75.953720,366.558929 89.681831,368.355957 103.489662,368.532715 
	C133.813553,368.920868 164.148117,368.861053 194.473633,368.540619 
	C206.264297,368.416046 218.090225,367.450348 229.428452,363.572235 
	C232.908646,362.381897 236.301102,361.029816 239.392975,359.010468 
	C247.726944,353.567383 248.728455,349.023163 243.329407,340.745148 
	C239.110748,334.276978 233.555756,328.975220 228.186401,323.501923 
	C217.510971,312.619843 204.805725,304.846954 190.937637,298.794983 
	C188.956314,297.930328 187.050400,296.891968 185.114639,295.923889 
	C175.962921,291.347198 171.075043,284.143066 170.821609,273.717773 
	C170.658920,267.025299 171.188538,260.401184 171.911316,253.789047 
	C172.402466,249.295929 174.826889,245.853958 178.458893,243.018112 
	C193.927200,230.940674 211.205521,221.920074 228.617783,213.148727 
	C262.047882,196.308456 297.502045,184.635880 332.833527,172.668472 
	C333.927490,172.297913 335.091858,172.135056 336.611694,171.937683 
	C337.000000,174.041672 337.000000,176.083328 337.000000,178.562500 
z"/>
<path fill="#000000" opacity="1.000000" stroke="none" 
	d="
M244.060028,156.961212 
	C266.457245,145.735535 289.562439,137.145752 312.504028,128.168228 
	C313.894135,127.624260 315.321198,127.044792 316.781555,126.837326 
	C319.900055,126.394325 321.492126,127.871750 320.203522,130.881241 
	C317.455566,137.298828 314.455017,143.612457 311.407104,149.895493 
	C310.000793,152.794495 307.117310,153.937683 304.279022,155.008728 
	C257.411987,172.693924 212.872391,195.132782 169.893951,220.767670 
	C168.251801,221.747131 166.830292,223.488373 164.507202,222.863251 
	C163.090530,221.104263 163.907455,219.375778 164.643997,217.725937 
	C168.139053,209.897186 172.549698,202.847183 179.459610,197.365677 
	C199.397720,181.549118 221.405029,169.099670 244.060028,156.961212 
z"/>
<path fill="#000000" opacity="1.000000" stroke="none" 
	d="
M194.100525,133.923386 
	C185.335358,127.141373 185.305893,127.122368 190.970657,118.337341 
	C193.131699,114.985939 195.581329,111.817787 197.683884,108.432243 
	C200.021469,104.668274 202.710434,104.637688 205.936981,107.147270 
	C208.430313,109.086571 210.918625,111.038086 213.494354,112.863991 
	C215.903839,114.572044 217.719528,117.095886 221.139618,118.379150 
	C224.543411,113.801353 228.128403,109.268173 231.380875,104.507805 
	C233.683640,101.137421 236.138855,100.721329 239.270905,103.106361 
	C243.765320,106.528839 248.257233,109.954628 252.741562,113.390297 
	C255.032730,115.145676 255.691086,117.109383 254.093597,119.844521 
	C250.988159,125.161385 247.840958,130.433167 244.148682,135.375961 
	C242.088394,138.134048 240.009003,138.859207 237.063660,136.549225 
	C233.009872,133.369888 228.671768,130.549484 224.661514,127.319458 
	C221.696762,124.931503 219.591080,124.793861 217.440491,128.313568 
	C215.364716,131.710815 212.847198,134.836517 210.556564,138.104538 
	C208.231522,141.421677 205.553253,142.177963 202.142578,139.582306 
	C199.631210,137.671066 196.977783,135.946503 194.100525,133.923386 
z"/>
<path fill="#000000" opacity="1.000000" stroke="none" 
	d="
M226.580139,91.499191 
	C219.269714,102.256035 219.269714,102.256027 209.081268,94.973694 
	C196.415649,85.920784 196.295227,85.833069 205.572220,73.100548 
	C213.188934,62.646736 211.148026,60.647354 223.890442,70.402779 
	C236.249207,79.864494 234.714172,77.377663 226.580139,91.499191 
z"/>
</svg>