<svg version="1.1" id="Layer_1" xmlns="http://www.w3.org/2000/svg" xmlns:xlink="http://www.w3.org/1999/xlink" x="0px" y="0px"
	 width="100%" viewBox="0 0 336 592" enable-background="new 0 0 336 592" xml:space="preserve">
<path fill="#000000" opacity="1.000000" stroke="none" 
	d="
M220.012619,283.722473 
	C216.342041,259.969482 212.738892,236.652817 209.197769,213.326736 
	C207.676453,203.305603 205.912186,193.300385 204.951065,183.221863 
	C204.190125,175.242279 206.256546,167.606964 211.288620,161.172409 
	C214.862640,156.602264 217.729675,156.612244 221.462082,160.940796 
	C226.046066,166.256958 229.803421,172.155106 233.104980,178.353653 
	C234.656219,181.266037 234.286209,183.410080 231.786499,185.819260 
	C225.885559,191.506561 224.202789,198.595795 224.858612,206.769470 
	C227.598297,240.914764 234.319641,274.529297 238.116913,308.522614 
	C240.294617,328.017517 242.442078,347.540924 242.286499,367.215942 
	C242.210831,376.785675 240.404892,386.039642 237.534241,395.135284 
	C232.986038,409.546204 222.527634,418.773132 210.272018,426.451447 
	C185.854721,441.749298 159.502609,447.220306 131.431122,440.147003 
	C114.674004,435.924622 101.424095,426.359406 96.231117,408.734955 
	C92.981499,397.706085 94.821693,386.583862 97.225380,375.659302 
	C100.355598,361.432648 105.701340,347.994965 112.684242,335.214417 
	C113.641510,333.462372 114.662437,331.736450 115.777000,330.081299 
	C117.073128,328.156647 118.541626,325.557892 121.230225,327.176514 
	C123.968422,328.825043 122.151352,331.336700 121.146996,333.342010 
	C114.465164,346.682800 109.130630,360.262573 109.097610,375.637512 
	C109.066116,390.302979 115.920700,400.435608 128.052841,407.295624 
	C138.899551,413.428802 150.665161,415.306549 163.224060,414.071594 
	C182.267487,412.198975 199.706619,405.907135 216.834427,397.728760 
	C229.052704,391.894623 232.647552,382.548035 231.548050,370.145294 
	C228.992188,341.314087 224.350296,312.761078 220.012619,283.722473 
z"/>
<path fill="#000000" opacity="1.000000" stroke="none" 
	d="
M199.545517,125.424423 
	C194.325653,114.634491 187.040237,106.217896 176.954330,100.286682 
	C173.499664,98.255104 172.315613,86.782639 175.228821,83.990639 
	C176.960022,82.331451 178.703217,83.736900 180.259796,84.502144 
	C190.829834,89.698517 198.356979,97.880386 203.406647,108.427071 
	C204.409378,110.521355 205.275040,112.681259 206.407852,115.278488 
	C209.827057,103.928345 215.960892,94.763542 224.924545,87.556595 
	C226.347244,86.412712 227.852219,85.354095 229.403290,84.391617 
	C231.082184,83.349808 232.890381,81.899185 234.926865,82.910118 
	C237.213806,84.045372 236.034668,86.461273 236.265259,88.327370 
	C237.026947,94.491890 234.506989,98.881248 229.818665,103.017365 
	C219.847839,111.813828 211.450378,121.876976 209.150497,135.663467 
	C208.928909,136.991776 208.511475,138.426941 206.934875,138.637589 
	C205.027344,138.892502 204.460114,137.286911 203.881287,135.910156 
	C202.463699,132.538376 201.091705,129.147446 199.545517,125.424423 
z"/>
</svg>