<svg version="1.1" id="Layer_1" xmlns="http://www.w3.org/2000/svg" xmlns:xlink="http://www.w3.org/1999/xlink" x="0px" y="0px"
	 width="100%" viewBox="0 0 336 592" enable-background="new 0 0 336 592" xml:space="preserve">
<path fill="#000000" opacity="1.000000" stroke="none" 
	d="
M205.384094,186.420120 
	C203.817841,177.162750 205.792725,169.025345 210.798294,161.789902 
	C214.539185,156.382538 217.738251,156.427490 221.925949,161.458679 
	C226.306290,166.721298 230.033981,172.438141 233.184158,178.531815 
	C234.584274,181.240204 234.400208,183.329865 232.010239,185.602310 
	C225.917953,191.395020 224.221893,198.583832 224.876694,206.958542 
	C227.327057,238.298355 233.409317,269.145233 237.102142,300.307190 
	C239.664597,321.930450 242.209702,343.572418 242.307388,365.406738 
	C242.350983,375.150146 240.723129,384.601685 237.973801,393.902893 
	C233.589432,408.735657 223.120071,418.376556 210.537582,426.291840 
	C186.142502,441.638214 159.825836,447.171082 131.732651,440.216766 
	C114.758400,436.014893 101.377892,426.395020 96.172798,408.555359 
	C93.003860,397.694336 94.787697,386.713959 97.143593,375.958008 
	C100.331558,361.403229 105.799149,347.651184 113.021614,334.613281 
	C114.068840,332.722839 115.259445,330.907379 116.456734,329.105774 
	C117.648071,327.313110 119.275246,325.841125 121.417976,327.230042 
	C123.352623,328.484039 122.558823,330.495605 121.721138,332.171265 
	C116.574440,342.466553 111.972076,352.903137 109.927643,364.389191 
	C104.548836,394.608582 122.288544,409.633575 146.544418,413.540375 
	C167.851746,416.972260 187.712463,410.419220 207.067383,402.328308 
	C211.354614,400.536102 215.289719,397.916443 219.532578,396.000153 
	C228.697098,391.860962 231.828674,384.261932 231.596649,374.950592 
	C231.243988,360.799011 229.269592,346.777405 227.269730,332.791992 
	C223.247299,304.662506 218.950714,276.571960 214.710678,248.473877 
	C211.934341,230.075424 209.050735,211.693176 206.238220,193.300156 
	C205.911804,191.165451 205.732788,189.008194 205.384094,186.420120 
z"/>
<path fill="#000000" opacity="1.000000" stroke="none" 
	d="
M189.227386,126.821228 
	C187.917114,124.231552 189.008606,122.258171 190.181747,120.465775 
	C193.274689,115.740219 196.524002,111.117104 199.705307,106.449272 
	C201.635742,103.616753 204.013611,102.982628 206.927490,104.961266 
	C211.741684,108.230293 216.585785,111.458275 220.925690,115.367096 
	C222.644806,116.915443 223.879120,118.539246 222.516403,120.988190 
	C219.279694,126.804840 215.957993,132.549713 211.547226,137.602234 
	C209.580154,139.855499 207.684219,140.322342 205.067352,138.607742 
	C199.643188,135.053772 194.108078,131.671051 189.227386,126.821228 
z"/>
</svg>