<svg version="1.1" id="Layer_1" xmlns="http://www.w3.org/2000/svg" xmlns:xlink="http://www.w3.org/1999/xlink" x="0px" y="0px"
	 width="100%" viewBox="0 0 336 592" enable-background="new 0 0 336 592" xml:space="preserve">
<path fill="#000000" opacity="1.000000" stroke="none" 
	d="
M103.339981,422.603912 
	C95.184685,412.792480 93.774918,401.515198 94.943062,389.798492 
	C96.972916,369.438751 103.960670,350.632080 114.045143,332.964539 
	C115.572395,330.288818 116.964882,324.831543 121.237480,327.418274 
	C124.942009,329.661102 120.996368,333.388550 119.702232,336.122589 
	C113.816528,348.556732 109.236282,361.168823 109.101295,375.276855 
	C108.954765,390.592560 116.293663,400.826660 129.040436,407.874695 
	C142.036514,415.060669 156.087189,415.668976 170.327148,413.367889 
	C186.713440,410.719971 202.023727,404.917206 216.984116,397.665131 
	C229.177460,391.754364 232.652313,382.313110 231.524811,369.979523 
	C228.465485,336.513763 222.976929,303.377197 217.945572,270.178711 
	C213.587723,241.424072 209.074890,212.690918 205.029190,183.892273 
	C203.889343,175.778534 206.130386,167.932297 211.173599,161.301392 
	C214.826462,156.498566 217.760773,156.567902 221.678238,161.183762 
	C226.111633,166.407501 229.800293,172.153534 233.018570,178.207199 
	C234.522568,181.036316 234.481918,183.237869 231.896194,185.704651 
	C225.818863,191.502411 224.218491,198.740891 224.880676,207.106369 
	C227.361679,238.449234 233.422195,269.305206 237.123367,300.472870 
	C239.652237,321.768616 242.114349,343.086517 242.308655,364.584930 
	C242.387497,373.305664 241.068436,381.797760 239.070786,390.252686 
	C235.154968,406.826324 224.279434,417.738556 210.385971,426.407776 
	C185.932922,441.665863 159.690002,446.942017 131.514145,440.247131 
	C120.450569,437.618347 110.867020,431.912384 103.339981,422.603912 
z"/>
<path fill="#000000" opacity="1.000000" stroke="none" 
	d="
M178.436172,113.491142 
	C186.413651,101.503235 186.413651,101.503242 197.511475,110.400040 
	C206.267029,117.419121 206.359711,117.484764 212.919479,108.224266 
	C221.332230,96.347878 220.238739,98.740433 229.896255,105.401039 
	C242.508011,114.099152 242.472961,114.149979 234.246384,127.022530 
	C226.929947,138.470947 226.923004,138.480438 216.114365,130.562912 
	C213.699173,128.793747 211.272675,127.025085 208.994537,125.087860 
	C206.623596,123.071739 205.039810,123.533478 203.384445,126.047005 
	C200.916214,129.794769 198.131561,133.332474 195.575104,137.024338 
	C193.511963,140.003784 191.208908,140.867157 188.075272,138.515305 
	C183.955429,135.423279 179.772476,132.413589 175.573395,129.429413 
	C172.098541,126.959923 171.426682,124.116776 173.964005,120.536224 
	C175.500244,118.368362 176.816254,116.044426 178.436172,113.491142 
z"/>
<path fill="#000000" opacity="1.000000" stroke="none" 
	d="
M193.892578,93.143776 
	C182.031372,84.721947 182.031372,84.721947 189.925140,72.857742 
	C198.250061,60.345524 198.329529,60.332031 210.137405,69.427795 
	C219.911591,76.956978 219.933334,76.970337 213.359192,87.669022 
	C211.704529,90.361809 209.837997,92.923515 208.111267,95.573112 
	C205.566330,99.478241 202.603943,99.935371 199.020294,96.889297 
	C197.502502,95.599174 195.796951,94.529976 193.892578,93.143776 
z"/>
</svg>