<svg version="1.1" id="Layer_1" xmlns="http://www.w3.org/2000/svg" xmlns:xlink="http://www.w3.org/1999/xlink" x="0px" y="0px"
	 width="100%" viewBox="0 0 336 592" enable-background="new 0 0 336 592" xml:space="preserve">
<path fill="#000000" opacity="1.000000" stroke="none" 
	d="
M231.329437,186.160065 
	C225.826370,192.226425 224.338989,198.943954 224.897141,206.721069 
	C226.969925,235.603256 232.558640,264.007263 236.106323,292.682861 
	C239.147964,317.268127 242.242661,341.861725 242.283844,366.704437 
	C242.294937,373.396667 241.227020,379.944275 239.980576,386.494202 
	C236.565125,404.441986 225.797668,416.737122 210.716995,426.245972 
	C187.389694,440.954651 162.276779,446.095551 135.247925,441.197021 
	C124.057922,439.169037 114.148766,433.995514 106.070229,425.801758 
	C96.325836,415.918243 93.586655,403.714874 94.894402,390.344940 
	C96.905197,369.787262 103.924896,350.843018 114.038162,333.004272 
	C115.554260,330.330017 116.939301,324.857849 121.209396,327.417542 
	C124.913528,329.637909 120.990669,333.380798 119.692589,336.116638 
	C113.794212,348.548187 109.221199,361.166321 109.091766,375.274750 
	C108.951370,390.579620 116.266945,400.825897 129.022537,407.880402 
	C142.025757,415.071899 156.086182,415.651276 170.313675,413.356750 
	C186.525101,410.742310 201.968903,405.609375 216.449844,397.735870 
	C229.912872,390.415771 232.965408,384.164032 231.486160,369.015564 
	C228.236221,335.734467 222.883255,302.752045 217.862488,269.719269 
	C213.542664,241.298141 209.127777,212.890366 205.040054,184.435715 
	C203.839722,176.080322 206.038300,168.141830 211.105469,161.328506 
	C214.691727,156.506439 217.755875,156.554199 221.630295,161.085083 
	C226.084808,166.294357 229.685028,172.100418 233.030609,178.075134 
	C234.759674,181.163010 234.618408,183.755463 231.329437,186.160065 
z"/>
<path fill="#000000" opacity="1.000000" stroke="none" 
	d="
M209.604492,490.494507 
	C207.688599,492.842041 205.744858,492.800323 203.619202,491.490875 
	C198.362320,488.252411 193.342804,484.695190 188.731201,480.574280 
	C186.829819,478.875214 186.552765,477.034149 187.800095,474.793945 
	C190.967758,469.104858 194.566406,463.712585 198.533417,458.551575 
	C200.650742,455.796967 202.985458,456.004242 205.454071,457.861176 
	C210.496353,461.654053 215.493881,465.506439 221.047363,469.744507 
	C224.393097,465.279175 227.611847,460.904022 230.916092,456.594391 
	C234.634705,451.744354 235.694260,451.550446 240.684326,455.167694 
	C244.861526,458.195709 248.890091,461.428864 252.981812,464.574677 
	C255.351929,466.396912 255.675583,468.489349 254.160461,471.117035 
	C251.161575,476.317993 247.966110,481.374481 244.436020,486.237274 
	C242.027954,489.554443 239.592392,489.675598 236.488663,487.224701 
	C232.437790,484.025848 228.173172,481.098145 224.112656,477.910919 
	C221.592712,475.932922 219.799881,476.123718 217.980225,478.861053 
	C215.400925,482.741241 212.564804,486.450714 209.604492,490.494507 
z"/>
<path fill="#000000" opacity="1.000000" stroke="none" 
	d="
M239.654633,512.295227 
	C236.650696,518.115540 233.171051,523.155640 229.434540,528.045471 
	C227.216003,530.948730 224.830872,531.569458 221.790649,529.401245 
	C217.336060,526.224304 212.816116,523.138123 208.389343,519.923401 
	C205.502563,517.827026 205.080795,515.264282 207.006241,512.139832 
	C210.056488,507.190125 213.253311,502.357574 216.779572,497.728821 
	C219.117737,494.659515 221.669128,493.941986 224.824738,496.344421 
	C229.179291,499.659607 233.532318,502.977753 237.836853,506.357178 
	C239.628281,507.763641 240.870560,509.481140 239.654633,512.295227 
z"/>
</svg>