<svg version="1.1" id="Layer_1" xmlns="http://www.w3.org/2000/svg" xmlns:xlink="http://www.w3.org/1999/xlink" x="0px" y="0px"
	 width="100%" viewBox="0 0 336 592" enable-background="new 0 0 336 592" xml:space="preserve">
<path fill="#000000" opacity="1.000000" stroke="none" 
	d="
M213.669434,289.997864 
	C214.497406,288.549774 214.999161,287.259247 216.991653,286.624756 
	C220.112732,290.465424 222.515854,295.018585 224.614899,299.601929 
	C236.079849,324.636200 243.364670,350.529816 243.539352,378.487305 
	C243.763992,414.440369 215.312943,446.104706 181.575500,452.267059 
	C164.257538,455.430237 147.166656,455.703644 130.700134,448.198364 
	C108.169388,437.929138 99.697784,417.832825 102.117729,395.055420 
	C103.949867,377.810638 110.313759,361.867767 118.107353,346.488251 
	C118.483101,345.746765 118.915398,345.031677 119.355232,344.325378 
	C120.359268,342.713135 121.488693,341.033813 123.691338,342.217651 
	C125.743652,343.320679 125.456779,345.274567 124.700005,347.048065 
	C122.022484,353.322937 119.188499,359.531616 117.257950,366.099945 
	C114.795502,374.477936 113.119026,383.040100 114.782829,391.688263 
	C117.251915,404.522003 126.315895,411.933350 137.564224,416.960510 
	C149.555313,422.319611 162.109024,423.878937 175.135300,421.708130 
	C190.347809,419.172974 205.034714,415.104706 218.353455,407.084412 
	C231.204605,399.345703 235.382736,389.607635 232.198730,374.964050 
	C228.376617,357.385742 220.629211,341.355042 212.386017,325.536102 
	C211.155396,323.174530 209.851227,320.851257 208.619659,318.490143 
	C205.818939,313.120636 205.643707,307.715546 208.262939,302.188507 
	C210.115494,298.279358 211.776642,294.279480 213.669434,289.997864 
z"/>
<path fill="#000000" opacity="1.000000" stroke="none" 
	d="
M151.807587,263.943848 
	C152.184341,250.823135 147.675049,238.918625 146.234192,226.561478 
	C145.315338,218.681305 144.029617,210.655411 147.760635,203.035065 
	C148.710709,201.094635 149.627686,198.919022 152.233521,198.865952 
	C154.630157,198.817154 155.486389,200.930359 156.564087,202.558670 
	C157.757858,204.362366 158.728210,206.314194 159.926392,208.114655 
	C161.852249,211.008453 162.571915,213.583801 159.736176,216.570633 
	C157.756744,218.655518 157.173355,221.755356 157.590195,224.571320 
	C159.503250,237.494781 163.110901,250.222290 161.130646,263.623505 
	C163.989792,263.537994 164.812775,261.646088 166.049622,260.466888 
	C171.858932,254.928482 177.850098,249.658310 185.208817,246.218002 
	C188.237503,244.802032 191.342102,243.789017 194.749725,243.539627 
	C206.733917,242.662567 214.639648,250.087616 214.081100,262.063965 
	C213.652649,271.250824 209.805008,278.635712 202.227341,284.097992 
	C190.074341,292.858398 175.967438,295.951813 161.617676,298.286835 
	C156.373825,299.140076 151.032181,299.392975 145.734894,299.917084 
	C137.493103,300.732544 127.925026,295.272736 124.463905,287.781616 
	C122.603539,283.755127 123.807884,281.685608 128.213684,281.763000 
	C131.031479,281.812439 133.836823,282.361755 136.655975,282.581360 
	C145.692749,283.285248 150.468887,279.409332 151.587433,270.409180 
	C151.832977,268.433502 151.751648,266.417236 151.807587,263.943848 
M171.674484,271.162048 
	C168.609482,273.862183 165.552078,276.569153 163.004044,280.148682 
	C174.933319,281.911224 198.245529,273.966095 201.851196,267.181824 
	C194.570145,260.425903 180.019562,263.598297 171.674484,271.162048 
z"/>
</svg>