<svg version="1.1" id="Layer_1" xmlns="http://www.w3.org/2000/svg" xmlns:xlink="http://www.w3.org/1999/xlink" x="0px" y="0px"
	 width="100%" viewBox="0 0 336 592" enable-background="new 0 0 336 592" xml:space="preserve">
<path fill="#000000" opacity="1.000000" stroke="none" 
	d="
M125.108986,344.132324 
	C125.123985,347.302032 123.645432,349.585815 122.556374,351.994354 
	C118.766342,360.376251 115.991211,369.069122 114.563957,378.163544 
	C111.842285,395.505859 120.099968,409.453766 137.474777,416.960022 
	C149.709656,422.245728 162.377075,423.885010 175.554291,421.639160 
	C190.249756,419.134491 204.434311,415.146790 217.441772,407.626770 
	C231.040039,399.765198 235.455612,389.859283 232.079468,374.534882 
	C228.244995,357.130066 220.560654,341.256226 212.410522,325.577759 
	C211.105453,323.067139 209.726944,320.594604 208.429092,318.080322 
	C205.821411,313.028442 205.588135,307.893494 208.052979,302.720093 
	C210.644592,297.280579 212.227844,291.291901 216.386093,286.066315 
	C220.127106,290.476257 222.441986,294.907471 224.495438,299.364594 
	C236.020523,324.380371 243.920212,350.264130 243.386841,378.229614 
	C242.769119,410.617950 226.428070,432.557831 198.468155,446.987793 
	C196.844376,447.825806 195.144333,448.515106 193.499466,449.314148 
	C193.230698,449.444733 193.064682,449.786835 192.533920,450.394257 
	C195.866364,456.756958 197.804871,463.603210 197.402008,471.166016 
	C196.458694,488.874603 179.547531,502.976105 162.064789,500.500977 
	C153.956787,499.353088 149.161514,494.629181 146.899780,487.210388 
	C143.550003,476.222565 143.528320,465.247559 148.311096,454.681488 
	C147.216568,452.723083 145.280487,452.990204 143.809174,452.605530 
	C111.624725,444.190308 96.964447,421.661835 102.942276,389.026184 
	C105.748520,373.705627 111.313400,359.258911 118.671768,345.535614 
	C120.045372,342.973907 121.566040,339.522583 125.108986,344.132324 
M183.046082,469.632355 
	C179.261627,463.616455 173.925308,459.578461 167.113663,457.698883 
	C161.867615,456.251312 156.700348,459.518372 154.751663,465.131561 
	C152.939102,470.352631 154.809814,474.218201 160.213562,476.751312 
	C166.788223,479.833313 173.331970,479.655914 179.923996,476.865265 
	C182.893982,475.607910 184.582092,473.721069 183.046082,469.632355 
z"/>
<path fill="#000000" opacity="1.000000" stroke="none" 
	d="
M178.699951,291.614075 
	C170.842484,302.660645 171.042145,300.857910 162.298706,294.788849 
	C147.567734,284.563690 148.923294,286.336365 157.703598,272.864868 
	C165.167130,261.413696 165.383774,261.554901 176.242599,269.343109 
	C187.550354,277.453308 187.550598,277.453461 180.240097,289.207001 
	C179.800674,289.913513 179.352417,290.614532 178.699951,291.614075 
z"/>
</svg>