<svg version="1.1" id="Layer_1" xmlns="http://www.w3.org/2000/svg" xmlns:xlink="http://www.w3.org/1999/xlink" x="0px" y="0px"
	 width="100%" viewBox="0 0 336 592" enable-background="new 0 0 336 592" xml:space="preserve">
<path fill="#000000" opacity="1.000000" stroke="none" 
	d="
M234.438538,329.760193 
	C239.286484,340.962982 239.538483,352.072662 236.345383,363.309937 
	C233.657471,372.769348 227.958450,376.940308 218.153122,377.332336 
	C202.463730,377.959625 187.909256,372.966339 173.462143,367.998016 
	C167.214127,365.849365 162.897141,366.566711 157.758148,370.731445 
	C149.359695,377.537811 140.257172,383.763489 129.255936,385.587738 
	C118.114326,387.435303 107.028679,386.725677 96.385101,382.468048 
	C95.161957,381.978760 94.021858,381.242584 92.914589,380.512634 
	C91.437088,379.538635 90.354073,378.227753 90.974449,376.336060 
	C91.561760,374.545227 93.076736,373.841980 94.864304,373.731293 
	C95.860115,373.669647 96.897408,373.543274 97.856781,373.737915 
	C112.288292,376.666107 123.683517,369.667786 134.948853,362.361237 
	C137.004135,361.028198 139.238022,359.784729 140.897049,357.270752 
	C129.065857,350.373566 130.690506,340.289978 134.743637,329.858582 
	C138.438477,320.349304 143.625519,311.604767 149.235352,303.108917 
	C150.505875,301.184784 151.718369,299.222290 153.034607,297.156586 
	C152.383759,296.704590 152.039871,296.293213 151.626587,296.204224 
	C143.131241,294.375671 141.656784,292.260345 144.824356,283.924164 
	C153.162338,261.980927 162.914764,259.105560 180.652878,270.203278 
	C203.996338,284.807922 222.169815,304.452148 234.438538,329.760193 
M183.519302,345.372711 
	C184.004929,346.900909 185.408813,347.189117 186.653748,347.481537 
	C197.470398,350.022125 208.372955,352.149475 219.391891,353.570618 
	C221.868942,353.890076 224.628204,354.574615 227.226273,352.729614 
	C226.850937,351.668457 226.678894,350.674591 226.189590,349.874847 
	C218.840240,337.862610 209.837997,327.280701 198.575760,318.765747 
	C194.093613,315.376953 193.082825,315.754395 191.414658,321.158844 
	C188.975494,329.061096 187.766129,337.366547 183.519302,345.372711 
M169.626465,340.166504 
	C173.442062,337.340698 176.372391,333.720215 178.516434,329.547852 
	C181.583084,323.579987 174.480392,310.190460 167.837616,309.205475 
	C166.166534,308.957703 164.495987,309.142120 163.000824,310.008209 
	C156.801636,313.599243 151.851593,318.457062 148.853195,324.995331 
	C146.536087,330.048035 147.920593,333.623169 152.946198,336.063904 
	C156.826828,337.948578 160.872787,339.491211 164.831024,341.218475 
	C166.397461,341.902039 167.742508,341.461029 169.626465,340.166504 
z"/>
</svg>