<svg version="1.1" id="Layer_1" xmlns="http://www.w3.org/2000/svg" xmlns:xlink="http://www.w3.org/1999/xlink" x="0px" y="0px"
	 width="100%" viewBox="0 0 336 592" enable-background="new 0 0 336 592" xml:space="preserve">
<path fill="#000000" opacity="1.000000" stroke="none" 
	d="
M188.314026,547.833191 
	C170.855865,547.176147 153.959534,545.613403 137.473053,541.268433 
	C115.919762,535.588135 96.513817,526.310364 82.971832,507.551483 
	C74.176643,495.368042 70.533211,481.535126 69.760773,466.818939 
	C67.277008,419.499298 87.728127,383.273895 124.273483,354.979126 
	C130.005447,350.541229 136.114258,346.590057 143.010254,341.737274 
	C121.508583,335.770172 101.110191,336.455750 80.806221,341.879395 
	C78.489845,331.910950 84.846130,318.555847 93.200012,314.728394 
	C107.309380,308.263947 122.154060,307.620239 137.240646,309.246796 
	C159.197159,311.614044 180.739029,317.718262 203.075790,316.639374 
	C214.039093,316.109833 224.922836,314.308655 235.945740,314.637421 
	C242.465027,314.831879 243.356689,316.196136 240.588547,322.211823 
	C233.544250,337.520386 232.570816,338.189392 212.778397,340.289032 
	C187.010803,343.022522 162.338303,349.424164 139.747086,362.483612 
	C122.427330,372.495789 106.786308,384.524536 95.600418,401.511932 
	C73.629822,434.877563 78.614609,484.765808 127.163109,506.567230 
	C144.016006,514.135254 161.840012,517.987488 180.176620,519.773682 
	C190.290237,520.758789 200.414474,521.728210 210.567276,521.591553 
	C225.047058,521.396729 239.430069,519.654602 253.824539,518.175354 
	C259.779572,517.563354 265.761108,517.192749 271.736755,516.807922 
	C273.486908,516.695312 275.214050,517.258484 275.729980,519.134705 
	C276.335815,521.337891 274.415802,521.983276 272.926331,522.594299 
	C249.346008,532.267273 225.379349,540.821838 200.703644,547.289185 
	C196.791428,548.314575 192.777954,548.184814 188.314026,547.833191 
z"/>
<path fill="#000000" opacity="1.000000" stroke="none" 
	d="
M201.769531,422.664551 
	C192.585587,436.393768 193.996429,434.438354 182.754883,426.253632 
	C172.945450,419.111694 173.004654,419.030365 165.852936,428.926331 
	C159.471191,437.756836 159.451065,437.785248 150.506241,431.448212 
	C147.656204,429.429108 144.953049,427.203430 142.166824,425.093231 
	C139.274124,422.902405 138.793716,420.277130 140.789581,417.267578 
	C144.008957,412.413086 147.345993,407.635376 150.503922,402.741760 
	C152.642822,399.427277 155.127075,399.356171 158.008347,401.565704 
	C163.002747,405.395691 167.968094,409.263611 173.393890,413.462524 
	C177.030273,408.588226 180.664719,403.887695 184.101822,399.047058 
	C186.262207,396.004456 188.481903,395.380981 191.556061,397.767761 
	C195.630554,400.931274 199.804672,403.971375 204.011978,406.957458 
	C207.764328,409.620605 208.068985,412.679260 205.563278,416.361450 
	C204.254166,418.285248 203.162048,420.356720 201.769531,422.664551 
z"/>
<path fill="#000000" opacity="1.000000" stroke="none" 
	d="
M169.703003,440.749329 
	C171.810211,437.961304 174.027557,438.056213 176.483612,439.571381 
	C181.594589,442.724457 186.221786,446.507843 190.777039,450.394653 
	C192.895737,452.202454 193.150314,454.174164 191.770233,456.563843 
	C188.691101,461.895447 185.414963,467.084503 181.554230,471.897064 
	C179.567780,474.373230 177.350906,474.898224 174.590210,473.228943 
	C169.748428,470.301300 165.103851,467.103790 160.693085,463.553925 
	C157.919739,461.321899 157.324692,458.988007 159.356812,455.817749 
	C162.584778,450.781860 165.630600,445.632996 169.703003,440.749329 
z"/>
<path fill="#000000" opacity="1.000000" stroke="none" 
	d="
M186.246689,275.147858 
	C183.717514,278.882080 181.423096,282.338623 178.986618,285.691956 
	C176.883850,288.585999 174.288254,289.136749 171.262726,286.949463 
	C166.961395,283.839874 162.650070,280.742950 158.298630,277.704163 
	C155.108154,275.476105 154.598038,272.750824 156.705673,269.582184 
	C159.920532,264.748993 163.225189,259.975464 166.498154,255.181015 
	C168.605225,252.094421 171.219482,251.810654 174.182495,253.879318 
	C177.447723,256.158936 180.777588,258.361847 183.904602,260.820374 
	C191.391861,266.707092 191.350510,266.759705 186.246689,275.147858 
z"/>
</svg>