<svg version="1.1" id="Layer_1" xmlns="http://www.w3.org/2000/svg" xmlns:xlink="http://www.w3.org/1999/xlink" x="0px" y="0px"
	 width="100%" viewBox="0 0 336 592" enable-background="new 0 0 336 592" xml:space="preserve">
<path fill="#000000" opacity="1.000000" stroke="none" 
	d="
M196.444855,297.595642 
	C213.773804,320.088165 218.747742,344.437744 207.167435,370.417603 
	C197.490692,392.126892 179.028275,397.818451 159.018768,394.843414 
	C146.355591,392.960632 137.303421,380.357330 135.564682,365.829041 
	C134.478134,356.750092 136.037811,348.335754 139.208679,339.980896 
	C145.478958,323.459564 152.325195,307.195068 161.296295,291.933136 
	C166.651291,282.823090 170.963226,281.628052 180.835464,285.651733 
	C187.020615,288.172699 191.844543,292.435394 196.444855,297.595642 
M194.208466,355.734222 
	C199.981232,350.898407 200.297470,346.921295 195.035004,341.592468 
	C187.387833,333.848877 178.148483,328.726837 167.724701,325.750824 
	C163.063232,324.419983 159.253082,325.786926 156.378113,329.794739 
	C152.927063,334.605652 150.593231,339.908447 149.510773,345.693604 
	C148.143158,353.002686 149.777847,356.164185 156.686234,359.036072 
	C169.429077,364.333405 181.712280,362.549469 194.208466,355.734222 
z"/>
</svg>