<svg version="1.1" id="Layer_1" xmlns="http://www.w3.org/2000/svg" xmlns:xlink="http://www.w3.org/1999/xlink" x="0px" y="0px"
	 width="100%" viewBox="0 0 336 592" enable-background="new 0 0 336 592" xml:space="preserve">
<path fill="#000000" opacity="1.000000" stroke="none" 
	d="
M154.468140,304.568115 
	C157.381897,299.288269 159.898911,294.197754 162.923355,289.429016 
	C166.625122,283.592346 170.314514,282.424133 177.046539,284.380432 
	C188.087585,287.588959 195.684601,295.164307 201.528015,304.560822 
	C214.498810,325.418457 217.549591,347.551605 207.292679,370.221130 
	C197.557999,391.736450 179.512253,397.741058 159.256958,394.905457 
	C146.446747,393.112091 137.229248,380.377930 135.549240,365.578827 
	C134.537735,356.668427 136.106491,348.419220 139.157898,340.223816 
	C143.633499,328.203308 148.740509,316.456177 154.468140,304.568115 
M181.227646,331.273682 
	C176.991302,328.920685 172.547821,327.061401 167.876404,325.773773 
	C163.210205,324.487579 159.381866,325.652191 156.464081,329.660522 
	C152.872910,334.593842 150.465744,340.053314 149.452042,346.033997 
	C148.242844,353.168121 149.842087,356.185089 156.543396,358.979767 
	C169.661407,364.450378 182.309921,362.664215 194.291550,355.611145 
	C199.701797,352.426422 200.291809,347.860535 196.290085,343.020477 
	C192.316574,338.214569 187.260254,334.690094 181.227646,331.273682 
z"/>
<path fill="#000000" opacity="1.000000" stroke="none" 
	d="
M149.490234,223.810242 
	C154.274719,213.563858 161.624557,205.942993 169.959534,199.160095 
	C173.462006,196.309799 177.680023,195.290710 182.046280,195.008163 
	C188.462234,194.592941 192.636963,198.856430 193.157410,206.421143 
	C193.480026,211.110352 191.344940,215.153732 188.982635,218.994141 
	C187.697693,221.083084 185.565628,220.780289 183.596298,220.062988 
	C181.097092,219.152664 178.649948,218.100220 176.173431,217.126648 
	C173.772629,216.182831 171.283569,215.903259 168.857056,216.820740 
	C166.351166,217.768219 163.485062,218.921631 162.939758,221.712540 
	C162.391006,224.521149 165.536240,225.216873 167.310867,226.525696 
	C176.044968,232.967285 185.403732,234.933792 195.925293,231.042404 
	C198.191498,230.204254 201.693649,227.986267 203.719574,230.947998 
	C205.432068,233.451553 203.147842,236.337692 202.168503,238.928696 
	C200.991821,242.041809 198.800781,244.106049 195.591156,245.291428 
	C180.612228,250.823441 165.620880,256.327576 150.993942,262.765259 
	C149.249603,263.533020 147.163834,264.867981 145.450546,262.999359 
	C143.888489,261.295685 144.955933,259.289978 145.549500,257.365753 
	C147.423950,251.289215 151.310135,247.009521 158.099365,244.211884 
	C150.097107,239.134399 145.953369,233.077911 149.490234,223.810242 
z"/>
</svg>