<svg version="1.1" id="Layer_1" xmlns="http://www.w3.org/2000/svg" xmlns:xlink="http://www.w3.org/1999/xlink" x="0px" y="0px"
	 width="100%" viewBox="0 0 336 592" enable-background="new 0 0 336 592" xml:space="preserve">
<path fill="#000000" opacity="1.000000" stroke="none" 
	d="
M165.512817,364.105957 
	C162.640442,357.399567 163.625244,350.885284 164.993668,344.568115 
	C168.097672,330.238800 173.922073,317.048981 182.992004,305.429443 
	C190.921692,295.270691 198.744308,295.166412 207.233902,305.026459 
	C215.087006,314.147278 219.166824,325.140961 221.144104,336.661621 
	C229.888885,387.613373 215.907776,432.476471 183.245499,471.792480 
	C167.613937,490.608490 147.530579,495.576233 124.293434,488.200806 
	C115.198898,485.314270 106.498047,481.630493 98.663849,476.081268 
	C96.809227,474.767578 95.008385,473.385742 95.980782,470.821991 
	C97.126328,467.801727 99.533813,469.196014 101.530106,469.608368 
	C110.622238,471.486511 119.505569,474.615295 129.034317,473.730072 
	C134.877945,473.187195 140.469254,471.860870 146.928925,469.034271 
	C139.728897,464.885315 136.318970,458.873932 135.172516,451.529144 
	C133.353104,439.872986 133.728195,428.639862 141.310242,418.717438 
	C147.735168,410.309296 156.291534,406.766846 166.663055,407.788513 
	C173.864655,408.497925 177.788895,413.874420 181.600204,419.235474 
	C185.117035,424.182281 186.148666,430.093567 187.624359,436.055298 
	C203.135010,422.442017 218.087723,383.640106 208.416626,369.414459 
	C201.522308,376.792755 194.105621,383.403717 182.948593,380.019684 
	C174.852249,377.563995 169.258331,372.061768 165.512817,364.105957 
M172.608994,438.834137 
	C168.789810,432.622375 163.437607,428.400909 156.299652,426.747772 
	C150.971878,425.513855 146.313858,428.655212 144.196320,434.573944 
	C142.529114,439.233948 144.050186,443.092682 148.984955,445.597076 
	C156.093842,449.204803 163.331085,449.112213 170.428421,445.468719 
	C172.823792,444.239044 174.505585,442.469086 172.608994,438.834137 
M183.521011,344.725769 
	C184.433624,345.424500 185.248001,346.374878 186.276611,346.776428 
	C189.873047,348.180237 192.176544,345.719330 194.485748,343.644440 
	C195.727005,342.529114 196.666794,341.190552 195.633698,339.290039 
	C193.976929,336.242096 187.950699,333.141693 185.469406,334.613861 
	C181.709702,336.844513 181.577240,340.369415 183.521011,344.725769 
z"/>
</svg>