<svg version="1.1" id="Layer_1" xmlns="http://www.w3.org/2000/svg" xmlns:xlink="http://www.w3.org/1999/xlink" x="0px" y="0px"
	 width="100%" viewBox="0 0 336 592" enable-background="new 0 0 336 592" xml:space="preserve">
<path fill="#000000" opacity="1.000000" stroke="none" 
	d="
M203.319427,374.376068 
	C194.834808,381.588135 186.875153,382.720367 178.270096,378.151703 
	C168.526993,372.978790 162.660110,362.644104 163.864929,352.214050 
	C165.880051,334.769623 172.450928,319.114014 183.167648,305.255676 
	C190.884384,295.276764 198.731689,295.188049 207.062317,304.848846 
	C216.087784,315.315460 220.101700,328.058350 222.012787,341.311432 
	C228.888077,388.990540 215.131561,430.814392 184.490555,467.287170 
	C175.164871,478.387878 163.604828,486.975098 148.757339,489.647217 
	C140.829086,491.074066 132.849976,490.984497 125.031372,488.760284 
	C114.647194,485.806213 110.399185,477.847809 108.797890,468.061981 
	C105.734230,449.339355 113.243973,435.259949 128.589874,425.059601 
	C143.078629,415.429016 159.477524,411.504822 176.549667,409.594330 
	C185.359131,408.608398 194.155685,408.682526 202.973145,408.696777 
	C204.483200,408.699219 206.208664,408.889435 206.831161,407.134460 
	C211.155762,394.942322 213.472214,382.617737 209.477676,369.643890 
	C206.379349,370.418152 205.382431,372.783051 203.319427,374.376068 
M176.607361,451.101288 
	C183.714310,445.331329 190.167358,438.980865 195.455643,430.460846 
	C192.266968,430.046356 189.850082,429.511963 187.421814,429.453827 
	C175.577591,429.170227 163.761414,430.008026 152.058746,431.618927 
	C143.341904,432.818848 134.603104,434.629333 127.264030,440.106171 
	C122.678955,443.527832 119.902748,448.334503 120.665138,453.879395 
	C121.416267,459.342255 126.704414,460.609650 131.292419,461.524872 
	C147.637177,464.785309 162.753754,462.149384 176.607361,451.101288 
M193.775375,344.401062 
	C196.429688,342.176727 197.047485,339.872986 193.987183,337.491272 
	C191.083038,335.231079 188.069077,332.677185 184.263748,335.389648 
	C181.688141,337.225555 181.568542,342.454315 183.695572,344.903534 
	C186.893143,348.585449 190.082657,347.323578 193.775375,344.401062 
z"/>
</svg>