<svg version="1.1" id="Layer_1" xmlns="http://www.w3.org/2000/svg" xmlns:xlink="http://www.w3.org/1999/xlink" x="0px" y="0px"
	 width="100%" viewBox="0 0 336 592" enable-background="new 0 0 336 592" xml:space="preserve">
<path fill="#000000" opacity="1.000000" stroke="none" 
	d="
M103.757957,470.033234 
	C128.792862,478.701477 150.052948,471.451691 169.164917,455.714233 
	C189.032059,439.354950 204.123077,419.592896 210.039017,393.961029 
	C211.900665,385.895111 213.093170,377.661407 208.938431,369.653473 
	C206.370453,370.640533 205.072708,372.678741 203.460495,374.280151 
	C188.243088,389.395599 168.898041,375.619965 164.753250,362.086121 
	C162.960449,356.232086 163.744537,350.434692 164.953568,344.795624 
	C168.063583,330.290131 173.936127,316.932709 183.185425,305.215363 
	C190.996201,295.320404 198.776688,295.181732 207.094681,304.909241 
	C216.421295,315.816284 220.341660,329.071716 222.234970,342.875122 
	C228.499191,388.544647 215.602295,429.185760 188.538651,465.661682 
	C179.493332,477.852875 168.355896,488.101288 152.502441,490.738922 
	C139.274582,492.939697 126.707237,489.674866 114.530540,484.710327 
	C109.125793,482.506744 103.919632,479.878815 99.134346,476.484222 
	C97.049301,475.005188 94.702209,473.519623 96.128395,470.494293 
	C97.473831,467.640289 99.890816,469.505554 101.881813,469.652039 
	C102.377357,469.688477 102.865761,469.821960 103.757957,470.033234 
M193.881989,337.379822 
	C192.631500,336.581787 191.456497,335.612000 190.114487,335.022217 
	C187.492249,333.869843 184.831131,333.561340 183.258774,336.647919 
	C181.618103,339.868683 181.544052,343.037354 184.503311,345.685272 
	C188.057236,348.865204 190.956039,346.634583 193.725952,344.412415 
	C196.072098,342.530212 197.275482,340.347626 193.881989,337.379822 
z"/>
<path fill="#000000" opacity="1.000000" stroke="none" 
	d="
M210.965576,245.966858 
	C203.996765,253.783340 198.563446,262.056152 196.450699,272.150635 
	C196.144577,273.613251 196.119049,275.418304 194.303329,275.697693 
	C192.085968,276.038910 191.646408,273.953735 191.121918,272.490173 
	C187.955719,263.655121 184.046707,255.276199 177.563721,248.287537 
	C173.806732,244.237488 169.950653,240.330322 164.921371,237.882980 
	C161.330017,236.135376 160.362259,233.314880 161.056091,229.640198 
	C161.179565,228.986252 161.368958,228.342743 161.460266,227.685028 
	C162.607056,219.424179 163.773605,218.868362 171.073074,223.461365 
	C180.487900,229.385437 187.591492,237.303696 191.659531,247.782639 
	C192.134750,249.006775 192.805634,250.154984 193.721130,252.022354 
	C199.041718,237.106049 207.492966,225.703568 221.826935,219.017761 
	C225.136551,227.649780 223.632095,234.095520 217.984497,239.074631 
	C215.616653,241.162170 213.460846,243.490234 210.965576,245.966858 
z"/>
</svg>