<svg version="1.1" id="Layer_1" xmlns="http://www.w3.org/2000/svg" xmlns:xlink="http://www.w3.org/1999/xlink" x="0px" y="0px"
	 width="100%" viewBox="0 0 336 592" enable-background="new 0 0 336 592" xml:space="preserve">
<path fill="#000000" opacity="1.000000" stroke="none" 
	d="
M106.190521,470.664307 
	C125.596542,477.117249 143.199173,473.419220 159.409622,462.633148 
	C184.533920,445.915985 202.672867,423.780670 210.024765,393.940765 
	C212.002167,385.914825 213.103989,377.649109 208.976700,369.745514 
	C206.874786,370.191650 206.022964,371.762299 204.867615,372.889526 
	C190.899261,386.518250 169.813553,380.532440 164.625992,361.587952 
	C163.055008,355.850922 163.787491,350.248108 164.959061,344.784973 
	C168.105682,330.112000 174.049561,316.602539 183.505981,304.819336 
	C190.891113,295.617096 197.815063,295.300446 206.052551,303.863281 
	C214.948730,313.110809 219.095123,324.811371 221.184845,337.015808 
	C229.919479,388.027985 215.710342,432.844147 182.990738,472.108917 
	C168.056824,490.030182 148.743103,495.321259 126.299210,488.796021 
	C116.980728,486.086823 108.031868,482.501282 99.955803,477.016937 
	C97.684166,475.474335 94.430077,474.057465 96.172165,470.494171 
	C97.767044,467.232025 100.613823,469.863007 102.887772,469.855530 
	C103.850800,469.852325 104.815414,470.334412 106.190521,470.664307 
M184.012329,345.251068 
	C184.829102,345.807800 185.574158,346.569855 186.475433,346.884766 
	C189.890823,348.078125 192.082199,345.748138 194.301727,343.831390 
	C195.538055,342.763702 196.655838,341.473877 195.767014,339.520569 
	C194.312210,336.323425 187.957016,333.325989 185.189590,334.603607 
	C182.256500,335.957733 181.562012,340.136993 184.012329,345.251068 
z"/>
<path fill="#000000" opacity="1.000000" stroke="none" 
	d="
M196.995178,263.969452 
	C193.131348,269.074768 188.539337,272.910248 183.929337,276.754242 
	C181.023026,279.177643 178.946106,278.445526 176.852509,275.704987 
	C172.139648,269.535889 172.484604,266.030853 178.081390,260.815826 
	C184.680481,254.666931 190.824722,248.086487 194.398712,239.620483 
	C197.001144,233.455887 196.170044,232.309235 189.679245,232.316162 
	C176.915146,232.329788 170.086258,227.166687 168.758926,216.499008 
	C167.183075,203.833893 174.298050,192.800781 185.727753,190.185608 
	C193.384079,188.433807 202.178635,191.758423 206.824570,198.387161 
	C214.196808,208.905670 214.811432,220.718033 212.687637,232.806763 
	C210.620697,244.571991 204.734024,254.578491 196.995178,263.969452 
z"/>
</svg>