<svg version="1.1" id="Layer_1" xmlns="http://www.w3.org/2000/svg" xmlns:xlink="http://www.w3.org/1999/xlink" x="0px" y="0px"
	 width="100%" viewBox="0 0 336 592" enable-background="new 0 0 336 592" xml:space="preserve">
<path fill="#000000" opacity="1.000000" stroke="none" 
	d="
M224.051239,365.998260 
	C222.355759,406.225769 209.208557,441.596832 183.243317,471.913788 
	C167.628799,490.145294 148.136703,495.508575 125.173759,488.448029 
	C116.533012,485.791199 108.200325,482.478638 100.650536,477.460327 
	C98.296021,475.895233 94.484978,474.600128 96.070534,470.794464 
	C97.702049,466.878479 101.124710,469.614960 103.520790,470.078033 
	C110.850815,471.494598 117.972023,473.990295 125.585953,473.823090 
	C142.417419,473.453491 156.462646,466.110260 169.031082,455.793518 
	C188.920837,439.467133 204.030365,419.735931 209.996414,394.118805 
	C211.880508,386.028870 213.040176,377.799683 209.064911,369.825195 
	C206.759476,370.077698 205.897369,371.907043 204.650192,373.118927 
	C191.065186,386.320099 170.252075,380.606354 164.784088,362.259277 
	C162.985825,356.225433 163.763885,350.294189 165.020172,344.483795 
	C168.082703,330.319336 173.832138,317.269348 182.747406,305.748322 
	C190.976044,295.114532 198.941605,295.022491 207.609665,305.515839 
	C216.505066,316.284332 219.937393,329.269531 222.295670,342.654663 
	C223.629044,350.222626 223.347473,357.912720 224.051239,365.998260 
M183.092300,344.097321 
	C185.094116,346.633240 187.374985,348.375153 190.711472,346.437256 
	C193.134598,345.029846 196.435486,343.555389 195.902786,340.477325 
	C195.308395,337.042877 191.909424,335.311737 188.612442,334.496735 
	C183.941299,333.342102 181.751297,336.766418 183.092300,344.097321 
z"/>
<path fill="#000000" opacity="1.000000" stroke="none" 
	d="
M202.016907,246.999451 
	C202.013428,250.824570 202.175064,254.160049 201.967468,257.472382 
	C201.744202,261.034668 203.071350,264.870361 200.552658,268.082886 
	C199.114777,269.916809 188.003006,275.740387 185.446854,276.203583 
	C184.243454,274.785339 184.679947,273.053284 184.677567,271.454468 
	C184.645142,249.673508 184.733398,227.891983 184.583450,206.112015 
	C184.558563,202.497314 185.665375,200.197968 188.849136,198.523239 
	C192.778809,196.456131 196.213699,193.474289 202.019485,191.410660 
	C202.019485,210.243042 202.019485,228.371338 202.016907,246.999451 
z"/>
</svg>