<svg version="1.1" id="Layer_1" xmlns="http://www.w3.org/2000/svg" xmlns:xlink="http://www.w3.org/1999/xlink" x="0px" y="0px"
	 width="100%" viewBox="0 0 336 592" enable-background="new 0 0 336 592" xml:space="preserve">
<path fill="#000000" opacity="1.000000" stroke="none" 
	d="
M171.855438,323.983765 
	C175.135910,316.983734 178.743561,310.623260 183.400528,304.894562 
	C191.024902,295.515503 198.488052,295.329803 206.711395,304.422485 
	C213.126556,311.515839 216.858582,320.067932 219.268082,329.147614 
	C228.157028,362.643463 224.045898,395.146118 210.917068,426.727325 
	C203.132538,445.452850 193.083405,462.746094 178.198502,477.028931 
	C163.125778,491.491913 145.734650,494.141510 126.398857,488.813629 
	C117.530319,486.369934 109.012947,482.955414 101.303474,477.872498 
	C98.750015,476.188934 94.179398,474.887299 96.207108,470.613190 
	C98.008133,466.816895 101.593575,469.782928 104.226669,470.272644 
	C111.404251,471.607605 118.370888,474.024872 125.827019,473.825165 
	C142.666214,473.374115 156.692719,465.981628 169.233017,455.638123 
	C189.084518,439.264252 204.199081,419.514374 210.078644,393.857605 
	C211.902023,385.900879 212.958328,377.796722 209.152756,369.936066 
	C206.985199,369.715332 206.268387,371.541138 205.165970,372.609100 
	C196.194733,381.300232 188.000732,383.096832 178.622574,378.313110 
	C168.512314,373.155975 162.585693,362.301361 163.898849,351.569672 
	C165.061523,342.067688 167.743698,333.019897 171.855438,323.983765 
M195.675323,339.374847 
	C194.348297,337.632996 192.763992,336.206207 190.763672,335.259827 
	C185.690887,332.859863 182.186295,335.139618 182.239120,340.749176 
	C182.272568,344.301941 184.265198,346.378998 187.406586,347.181396 
	C190.561050,347.987152 194.886276,344.135193 195.675323,339.374847 
z"/>
<path fill="#000000" opacity="1.000000" stroke="none" 
	d="
M203.175568,264.772888 
	C199.182373,259.394135 195.987488,253.954529 193.161438,247.726303 
	C185.948578,260.642670 181.446716,275.647614 164.502716,280.075043 
	C163.110275,274.778900 163.824936,270.466187 163.729294,266.201141 
	C163.689484,264.425598 164.908493,263.538788 166.252350,262.798645 
	C180.273544,255.076370 186.382980,242.138626 189.619202,227.323532 
	C190.036560,225.412872 189.906479,223.278671 192.225571,222.415527 
	C194.789673,223.176773 194.542419,225.599701 195.012573,227.344070 
	C198.454559,240.114487 205.615753,250.128067 216.597061,257.494202 
	C225.064072,263.173737 226.639114,269.206909 222.189651,279.226990 
	C213.163315,278.208649 208.633881,271.142242 203.175568,264.772888 
z"/>
</svg>