<svg version="1.1" id="Layer_1" xmlns="http://www.w3.org/2000/svg" xmlns:xlink="http://www.w3.org/1999/xlink" x="0px" y="0px"
	 width="100%" viewBox="0 0 336 592" enable-background="new 0 0 336 592" xml:space="preserve">
<path fill="#000000" opacity="1.000000" stroke="none" 
	d="
M223.425812,357.663605 
	C225.369949,381.739441 219.945099,404.059174 211.334717,425.759583 
	C205.782623,439.752258 198.576401,452.884613 189.332932,464.808105 
	C168.151657,492.130890 146.663177,497.864685 114.682350,484.787628 
	C108.969017,482.451447 103.483360,479.646332 98.449013,476.020172 
	C96.574234,474.669800 94.979614,473.128265 96.031349,470.638519 
	C97.140015,468.013947 99.304352,469.154785 101.216331,469.529327 
	C108.062714,470.870575 114.705284,473.291290 121.721825,473.700073 
	C139.987030,474.764191 155.145157,467.070648 168.732162,456.005096 
	C188.821381,439.643921 204.079880,419.812775 210.034180,393.990936 
	C211.895752,385.917908 213.090622,377.686829 208.989456,369.778320 
	C206.878540,370.118744 206.004745,371.692322 204.918137,372.854462 
	C198.887299,379.304504 191.710724,382.730530 182.960037,379.969604 
	C173.656967,377.034393 167.447678,370.677765 164.571335,361.146179 
	C162.848740,355.437897 163.890671,349.815247 165.068695,344.355927 
	C168.161880,330.021149 174.023590,316.838165 183.144760,305.248474 
	C190.946014,295.335907 198.766464,295.168884 207.053238,304.849579 
	C216.384109,315.750000 219.922318,329.053467 222.304169,342.788116 
	C223.131271,347.557465 223.510178,352.358704 223.425812,357.663605 
M182.254669,340.475708 
	C182.218826,344.438416 184.362244,346.744598 188.087784,347.237122 
	C190.893570,347.608032 196.550949,342.972198 196.013611,340.781647 
	C195.093903,337.032379 191.891586,335.282440 188.438110,334.478760 
	C184.348907,333.527191 182.787689,336.128021 182.254669,340.475708 
z"/>
<path fill="#000000" opacity="1.000000" stroke="none" 
	d="
M197.675903,263.396362 
	C194.147247,259.710968 191.707245,260.323608 189.323868,264.342987 
	C187.210236,267.907471 184.544922,271.144897 182.121674,274.525635 
	C180.397537,276.931000 178.437195,277.510468 175.740051,275.826569 
	C170.645264,272.645721 165.858795,269.074982 161.257431,265.229309 
	C158.958527,263.307922 158.540085,261.142090 160.181061,258.656158 
	C163.570602,253.521240 167.007370,248.417480 170.417633,243.296188 
	C172.441986,240.256180 174.906433,240.212585 177.620941,242.275970 
	C181.724548,245.395233 185.894516,248.439133 189.844467,251.744308 
	C192.373383,253.860443 194.007126,253.634064 195.844849,250.906326 
	C198.537582,246.909485 201.539444,243.121750 204.379654,239.223129 
	C206.143631,236.801804 208.213394,236.124481 210.748123,238.018738 
	C215.543488,241.602371 220.330109,245.197998 225.095154,248.821793 
	C227.447220,250.610535 227.857132,252.830765 226.382385,255.407196 
	C223.322845,260.752258 220.110016,265.983978 216.354630,270.892395 
	C214.153366,273.769501 211.950912,274.058228 209.163620,271.953918 
	C205.446533,269.147675 201.693710,266.388733 197.675903,263.396362 
z"/>
</svg>