<svg version="1.1" id="Layer_1" xmlns="http://www.w3.org/2000/svg" xmlns:xlink="http://www.w3.org/1999/xlink" x="0px" y="0px"
	 width="100%" viewBox="0 0 336 592" enable-background="new 0 0 336 592" xml:space="preserve">
<path fill="#000000" opacity="1.000000" stroke="none" 
	d="
M124.100922,473.816528 
	C141.807526,473.805878 156.170471,466.348022 169.011734,455.802734 
	C188.889160,439.479401 204.056915,419.787720 209.997757,394.148712 
	C211.874649,386.048615 213.018814,377.823456 209.082306,369.837891 
	C206.763428,370.025024 205.844940,371.832855 204.685211,373.092743 
	C189.736862,389.331879 170.871658,377.055847 165.535873,364.150543 
	C162.891785,357.755463 163.572052,351.315674 164.916107,344.995392 
	C168.074432,330.143890 174.096481,316.494598 183.682236,304.600830 
	C190.895737,295.650482 197.766083,295.371521 205.893311,303.703705 
	C214.862503,312.899048 219.049454,324.600983 221.151825,336.788635 
	C229.945938,387.769012 215.804672,432.607788 183.158463,471.917938 
	C167.822739,490.384064 148.070908,495.505920 125.122780,488.432922 
	C115.839539,485.571655 106.952438,481.912781 98.930748,476.343201 
	C96.949905,474.967896 94.890610,473.496216 96.007515,470.714294 
	C97.197830,467.749634 99.634201,469.236633 101.624596,469.621704 
	C108.956818,471.040283 116.061531,473.649414 124.100922,473.816528 
M182.781448,337.444702 
	C182.605713,338.415680 182.331650,339.380615 182.271683,340.358704 
	C182.041504,344.112640 184.118790,346.325348 187.484360,347.211060 
	C189.992523,347.871063 195.746750,343.861877 195.946518,341.352509 
	C196.200607,338.160980 193.519653,336.827820 191.293182,335.585602 
	C188.436661,333.991882 185.357040,332.963531 182.781448,337.444702 
z"/>
<path fill="#000000" opacity="1.000000" stroke="none" 
	d="
M218.964050,267.897827 
	C213.729950,275.064667 213.603638,275.097076 206.704163,270.008911 
	C203.085449,267.340179 199.476288,264.655609 195.934586,261.886444 
	C193.933594,260.321899 192.504562,260.471954 191.011368,262.634186 
	C188.174591,266.742065 185.159073,270.727020 182.196899,274.747620 
	C180.407486,277.176392 178.380219,277.482178 175.757996,275.805023 
	C170.836060,272.656952 166.129196,269.243408 161.675827,265.467224 
	C159.600754,263.707672 159.078735,261.595398 160.384506,259.235382 
	C163.615097,253.396561 167.387543,247.909821 171.439026,242.609985 
	C173.355530,240.102966 175.499573,240.727356 177.538620,242.234238 
	C182.748428,246.084335 187.879135,250.041489 193.613998,254.389923 
	C197.038605,249.712143 200.586426,245.189819 203.765030,240.421341 
	C206.288162,236.636215 208.843582,236.213837 212.355881,239.042511 
	C216.244736,242.174423 220.274658,245.138779 224.335358,248.047379 
	C227.907623,250.606125 228.190491,253.531967 225.868820,257.060760 
	C223.580780,260.538452 221.401611,264.087738 218.964050,267.897827 
z"/>
<path fill="#000000" opacity="1.000000" stroke="none" 
	d="
M197.951599,207.019226 
	C206.965271,214.425385 207.011230,214.454010 201.007019,224.094147 
	C198.902725,227.472763 196.553238,230.702530 194.237076,233.944061 
	C192.497452,236.378738 190.371490,236.876633 187.839813,234.981918 
	C183.316986,231.597000 178.766602,228.248627 174.209564,224.909760 
	C171.068069,222.608063 170.699295,219.889343 172.871490,216.734238 
	C176.168045,211.945984 179.492310,207.176407 182.745667,202.358963 
	C184.607712,199.601730 186.840942,199.225998 189.512314,201.072693 
	C192.244797,202.961639 194.950516,204.889297 197.951599,207.019226 
z"/>
</svg>