<svg version="1.1" id="Layer_1" xmlns="http://www.w3.org/2000/svg" xmlns:xlink="http://www.w3.org/1999/xlink" x="0px" y="0px"
	 width="100%" viewBox="0 0 336 592" enable-background="new 0 0 336 592" xml:space="preserve">
<path fill="#000000" opacity="1.000000" stroke="none" 
	d="
M184.093903,317.238373 
	C196.490433,295.429535 213.239838,278.353455 234.561035,265.905121 
	C245.063248,259.773407 256.308533,255.677689 268.779785,257.729950 
	C276.456268,258.993195 277.564697,261.077576 275.859375,268.740173 
	C274.178223,276.294312 272.521667,283.853943 270.948669,290.983734 
	C269.052094,291.676819 268.222168,291.002045 267.505554,290.346985 
	C260.390930,283.843353 251.929428,283.877533 243.520203,286.195801 
	C226.048523,291.012451 211.154037,300.056000 200.110657,314.773560 
	C196.959534,318.973053 194.959244,323.645874 194.256851,328.909027 
	C193.552200,334.189026 195.524277,337.920776 200.074814,340.552826 
	C209.346863,345.915771 219.623230,347.970795 229.989746,349.622528 
	C237.538971,350.825439 245.164993,351.538818 252.729248,352.656708 
	C261.918396,354.014679 265.264557,358.360779 266.356354,367.632751 
	C268.314178,384.259125 260.193268,396.020203 248.056961,405.290833 
	C218.911743,427.554199 185.959976,440.302887 149.281708,443.458801 
	C133.146118,444.847168 117.326103,444.115326 101.960579,438.806854 
	C70.432137,427.914398 58.756321,401.971985 65.298141,371.057556 
	C68.033455,358.131409 72.877640,345.900696 78.420868,333.941040 
	C79.110405,332.453278 79.763618,330.948700 80.442101,329.433075 
	C78.807449,328.348999 77.709038,329.443298 76.596069,329.909180 
	C69.300919,332.962769 61.651051,334.514587 53.822174,335.136597 
	C51.581123,335.314667 48.293358,336.517975 47.728470,332.792267 
	C47.218483,329.428650 50.213753,328.783569 52.622154,328.268341 
	C64.084549,325.816467 74.188560,320.501556 83.598701,313.733765 
	C86.704895,311.499817 89.626228,309.006744 92.606071,306.599915 
	C94.637466,304.959137 96.639404,302.134125 99.461151,304.093353 
	C102.726845,306.360870 100.196381,309.306061 99.075737,311.668793 
	C93.792557,322.807831 88.564140,333.946777 84.683014,345.691406 
	C81.544464,355.188965 80.208244,364.904785 81.449463,374.741119 
	C83.271111,389.177216 91.864029,398.982605 104.597328,405.198090 
	C123.658546,414.502380 143.820862,416.203674 164.486237,412.677551 
	C192.260513,407.938416 218.665405,399.047791 243.477341,385.620483 
	C246.020279,384.244293 249.821625,383.013916 249.489120,379.662567 
	C249.111786,375.859314 244.971680,375.884247 241.979797,375.149353 
	C230.328629,372.287567 218.337524,371.476685 206.564621,369.338287 
	C201.800476,368.472931 197.124619,367.302673 192.681488,365.376678 
	C176.778503,358.483124 175.189468,349.071686 177.219650,335.243378 
	C178.143509,328.950714 180.946625,323.181244 184.093903,317.238373 
z"/>
</svg>