<svg version="1.1" id="Layer_1" xmlns="http://www.w3.org/2000/svg" xmlns:xlink="http://www.w3.org/1999/xlink" x="0px" y="0px"
	 width="100%" viewBox="0 0 336 592" enable-background="new 0 0 336 592" xml:space="preserve">
<path fill="#000000" opacity="1.000000" stroke="none" 
	d="
M217.380905,424.483154 
	C191.814957,436.851776 165.278763,443.796936 137.179703,444.139038 
	C124.800507,444.289764 112.606163,442.791016 100.881950,438.480743 
	C70.410172,427.278046 59.013096,402.121216 65.129890,372.414337 
	C70.069107,348.426453 81.460442,327.117004 93.977821,306.366058 
	C95.159714,304.406799 96.557358,302.527191 99.134514,303.876434 
	C102.074203,305.415558 100.833244,307.829590 99.848770,309.939667 
	C94.357933,321.708221 88.670319,333.377777 84.641373,345.781555 
	C81.554352,355.285461 80.192726,365.002441 81.455856,374.835449 
	C83.282082,389.052063 91.726097,398.805878 104.242409,405.012817 
	C123.416206,414.521362 143.747162,416.223175 164.580139,412.664490 
	C192.181824,407.949585 218.428040,399.101471 243.114059,385.813416 
	C245.795410,384.370056 249.887878,383.110931 249.460114,379.582001 
	C248.982193,375.639404 244.543365,375.778412 241.404541,375.023346 
	C229.908203,372.257965 218.089569,371.437134 206.481277,369.332245 
	C201.717865,368.468506 197.043610,367.288361 192.605072,365.353516 
	C177.134659,358.609619 174.691422,349.495483 177.323914,335.208008 
	C180.018250,320.584900 188.360657,308.498840 197.742874,297.335663 
	C211.410538,281.073547 227.178146,267.334412 247.554092,260.048584 
	C255.242218,257.299500 263.252808,255.796021 271.497101,258.343811 
	C275.533875,259.591339 277.330811,261.803558 276.375458,266.094086 
	C274.506409,274.487671 272.745544,282.905396 271.027313,290.906128 
	C269.511963,291.553802 268.711517,291.331024 268.076935,290.736664 
	C260.592316,283.726715 251.660370,283.794006 242.753250,286.371338 
	C225.710617,291.302826 211.076401,300.176117 200.240280,314.602020 
	C197.085938,318.801300 195.034378,323.452118 194.277649,328.697571 
	C193.483749,334.200684 195.646713,337.924622 200.436951,340.606232 
	C209.774429,345.833282 220.033295,347.917236 230.383148,349.643402 
	C237.594284,350.846069 244.868469,351.676575 252.120865,352.624451 
	C261.822510,353.892365 265.329468,358.255096 266.377930,368.035858 
	C268.188049,384.922211 259.395508,396.221619 247.389404,405.899811 
	C238.281540,413.241699 228.162094,419.069885 217.380905,424.483154 
z"/>
<path fill="#000000" opacity="1.000000" stroke="none" 
	d="
M132.683578,231.320404 
	C128.433411,226.324814 123.947540,222.136398 118.376648,219.290314 
	C115.588860,217.866089 114.697784,215.639008 115.062546,212.709488 
	C115.124062,212.215439 115.264091,211.731415 115.331146,211.237762 
	C116.766884,200.667725 117.814056,200.154465 126.969833,206.461868 
	C135.358597,212.240891 141.846008,219.681793 145.587173,229.312820 
	C146.118942,230.681793 146.821045,231.984604 147.791809,234.061493 
	C153.193207,218.978851 161.564774,207.370743 176.372543,201.591537 
	C177.134598,209.098465 178.907928,215.823120 171.606888,221.649475 
	C161.083679,230.047165 153.180481,240.816895 150.459488,254.560104 
	C150.195160,255.895111 150.012436,257.368317 148.340179,257.512909 
	C146.133926,257.703735 145.696106,255.801483 145.145462,254.283936 
	C142.181213,246.114761 138.694763,238.237289 132.683578,231.320404 
z"/>
</svg>