<svg version="1.1" id="Layer_1" xmlns="http://www.w3.org/2000/svg" xmlns:xlink="http://www.w3.org/1999/xlink" x="0px" y="0px"
	 width="100%" viewBox="0 0 336 592" enable-background="new 0 0 336 592" xml:space="preserve">
<path fill="#000000" opacity="1.000000" stroke="none" 
	d="
M198.743164,316.767670 
	C198.369232,317.358490 198.186859,317.638062 198.026138,317.929565 
	C190.598480,331.403442 192.686584,337.920868 206.737244,343.602631 
	C218.713928,348.445740 231.464600,350.044250 244.173294,351.666718 
	C247.472061,352.087891 250.807831,352.272156 254.080521,352.833740 
	C260.827515,353.991425 264.335083,357.392975 265.686035,364.084076 
	C268.485657,377.950348 264.526306,389.692596 254.439331,399.513245 
	C241.585342,412.027832 226.184586,420.563354 210.016357,427.821930 
	C186.962982,438.171478 162.777328,443.797150 137.473907,444.132965 
	C125.099876,444.297180 112.943428,442.768921 101.177200,438.539734 
	C71.157089,427.749390 59.078030,402.790466 64.976868,373.168121 
	C69.824158,348.826416 81.350227,327.196594 94.086937,306.182709 
	C95.315948,304.154968 96.839439,302.543091 99.326317,303.947021 
	C101.910599,305.405884 100.923401,307.665039 100.000175,309.651672 
	C94.529030,321.424622 88.797523,333.068329 84.751205,345.467010 
	C81.597481,355.130676 80.127739,364.989075 81.461288,374.992645 
	C83.353615,389.187897 91.817024,398.913300 104.355988,405.085175 
	C123.550606,414.533020 143.879776,416.237183 164.699738,412.650146 
	C192.281876,407.898010 218.550201,399.127014 243.209946,385.780396 
	C245.912292,384.317810 250.046906,382.959076 249.705139,379.638336 
	C249.311096,375.809784 244.818512,375.842316 241.663925,375.072235 
	C230.174576,372.267578 218.353470,371.467621 206.746490,369.358856 
	C201.981552,368.493164 197.308945,367.338898 192.856766,365.440186 
	C177.224075,358.773376 174.620621,349.295044 177.377258,334.966156 
	C180.153259,320.536560 188.341934,308.600037 197.598022,297.548889 
	C211.238434,281.263092 226.960022,267.492584 247.307022,260.144562 
	C255.149658,257.312286 263.297577,255.757904 271.713409,258.422882 
	C275.614685,259.658264 277.194183,261.873322 276.352814,265.851624 
	C274.570831,274.277313 272.799927,282.705383 271.123016,290.664978 
	C269.246735,291.852997 268.277893,291.023407 267.456207,290.248962 
	C260.858643,284.031067 252.711731,283.801575 244.895294,285.828125 
	C226.164810,290.684418 210.270279,300.267395 198.743164,316.767670 
z"/>
<path fill="#000000" opacity="1.000000" stroke="none" 
	d="
M122.709312,486.992371 
	C121.322639,485.020538 122.072083,483.468689 122.860718,481.996399 
	C125.772972,476.559479 129.051697,471.356842 132.718353,466.385925 
	C134.975571,463.325775 137.458237,463.035339 140.387222,465.224243 
	C144.787018,468.512268 149.155212,471.842590 153.557037,475.127838 
	C156.312546,477.184418 156.597870,479.560913 154.939178,482.520416 
	C151.283829,489.042419 147.322189,495.352112 142.289398,501.082367 
	C145.014938,504.615723 148.819382,506.163391 151.853317,508.656891 
	C159.646149,515.061646 159.761856,515.229065 154.419312,523.567932 
	C152.264236,526.931641 149.939026,530.185852 147.747559,533.526794 
	C145.608429,536.787964 143.095444,537.505005 139.803223,535.088562 
	C135.778519,532.134521 131.654510,529.316162 127.587608,526.419189 
	C124.037819,523.890564 123.249611,520.972229 125.734650,517.057678 
	C128.681442,512.415710 131.437317,507.641083 135.047485,503.483673 
	C137.540131,500.613312 137.741516,498.636871 134.170914,496.381134 
	C130.105057,493.812469 126.271553,490.824982 122.709312,486.992371 
z"/>
</svg>