<svg version="1.1" id="Layer_1" xmlns="http://www.w3.org/2000/svg" xmlns:xlink="http://www.w3.org/1999/xlink" x="0px" y="0px"
	 width="100%" viewBox="0 0 336 592" enable-background="new 0 0 336 592" xml:space="preserve">
<path fill="#000000" opacity="1.000000" stroke="none" 
	d="
M212.963013,323.541809 
	C207.804550,319.490540 208.845566,313.520966 207.773941,308.309906 
	C206.837280,303.755035 206.452957,299.096497 204.357849,294.841736 
	C200.619629,287.250061 192.074646,285.498077 185.644333,291.092529 
	C182.215118,294.075958 179.680511,297.809662 177.407425,301.706085 
	C172.540634,310.048584 167.763306,318.443420 162.876205,326.773895 
	C149.584396,349.430908 128.564850,360.997711 104.038170,367.205872 
	C87.919670,371.285797 71.507614,374.301056 56.484509,381.899780 
	C53.035339,383.644348 49.840206,385.744476 47.127930,388.481567 
	C41.239975,394.423401 42.057144,399.898560 49.589756,403.421082 
	C59.054272,407.847046 69.342331,409.266479 79.553047,410.604767 
	C111.127136,414.743195 142.912628,415.172882 174.692810,416.098053 
	C205.523788,416.995636 236.314026,415.903168 267.117126,415.538025 
	C282.578186,415.354767 298.025085,413.983582 313.478699,413.154938 
	C316.215607,413.008179 319.144012,412.916565 320.023895,416.231110 
	C320.846527,419.330017 317.997528,420.118561 316.004761,421.089478 
	C295.034729,431.306885 272.772064,437.381989 249.880188,441.258209 
	C214.459808,447.255920 178.686264,448.194244 142.885574,447.823273 
	C117.600441,447.561310 92.283623,446.925049 67.208359,443.157990 
	C57.853130,441.752594 48.545601,439.928345 39.678513,436.330963 
	C33.276470,433.733704 29.832628,429.467896 28.369095,422.455505 
	C25.030596,406.459320 31.529533,394.046570 41.694702,382.991333 
	C60.298538,362.758484 81.930420,346.711761 107.615265,336.342377 
	C121.648087,330.677063 135.742050,325.137390 148.586502,316.836853 
	C159.032516,310.086273 166.453918,301.054443 171.655304,289.932343 
	C175.673401,281.340454 179.090561,272.452484 184.090317,264.338745 
	C185.049713,262.781799 186.024872,261.218781 187.151932,259.783569 
	C193.492416,251.709717 202.098953,252.391586 207.338959,261.328308 
	C212.393234,269.948242 214.756363,279.455933 216.278091,289.180389 
	C217.687424,298.186646 219.700195,307.214264 217.359100,316.386749 
	C216.658218,319.132843 216.018265,321.919434 212.963013,323.541809 
z"/>
</svg>