<svg version="1.1" id="Layer_1" xmlns="http://www.w3.org/2000/svg" xmlns:xlink="http://www.w3.org/1999/xlink" x="0px" y="0px"
	 width="100%" viewBox="0 0 336 592" enable-background="new 0 0 336 592" xml:space="preserve">
<path fill="#000000" opacity="1.000000" stroke="none" 
	d="
M64.554276,442.733215 
	C55.785770,441.107758 47.482601,439.483948 39.550289,436.286377 
	C33.116314,433.692871 29.783926,429.317505 28.340801,422.325928 
	C25.035984,406.314728 31.588886,393.929596 41.773922,382.882996 
	C60.293774,362.796509 81.797623,346.837799 107.304733,336.485352 
	C121.330849,330.792633 135.436295,325.274719 148.308624,317.013824 
	C158.929153,310.198151 166.467484,301.069611 171.728683,289.767242 
	C175.732361,281.166382 179.138275,272.263641 184.214005,264.191711 
	C185.626541,261.945343 187.116821,259.682831 188.928665,257.765320 
	C193.552261,252.872055 200.159134,252.999969 204.811096,257.892242 
	C207.744873,260.977600 209.560791,264.822510 210.945328,268.696442 
	C215.734924,282.097717 218.396027,295.960968 218.236755,310.226044 
	C218.181976,315.133423 217.421967,320.120148 213.185699,323.956268 
	C209.562256,321.599854 209.324081,318.024353 208.697830,314.689240 
	C207.655426,309.138062 207.037277,303.483917 205.623550,298.033112 
	C204.489304,293.660004 202.460434,289.485291 197.287231,288.355469 
	C191.705383,287.136444 187.157059,288.842468 183.466537,293.189941 
	C177.258179,300.503448 172.850952,308.969543 168.583221,317.412506 
	C154.108490,346.048248 130.328537,361.751709 99.634567,368.333405 
	C84.819107,371.510254 70.079788,375.015289 56.432442,381.949249 
	C52.534893,383.929504 48.901981,386.288879 46.074417,389.648712 
	C41.659901,394.894257 42.416355,399.404419 48.380611,402.730255 
	C56.089878,407.029205 64.729744,408.317200 73.261337,409.623383 
	C107.419434,414.852936 141.883408,415.113190 176.331131,416.120972 
	C206.506912,417.003815 236.635803,415.855408 266.781342,415.538879 
	C282.247162,415.376495 297.700287,414.017914 313.159576,413.208191 
	C314.153687,413.156128 315.171021,413.044312 316.143463,413.189087 
	C318.051819,413.473114 319.706573,414.248596 320.119568,416.394012 
	C320.512299,418.434143 319.122681,419.416290 317.612640,420.253784 
	C311.767120,423.495605 305.579437,425.974365 299.322632,428.264954 
	C272.250214,438.176178 244.200058,443.201538 215.521759,445.439331 
	C191.920258,447.281036 168.297729,448.248047 144.647385,447.862823 
	C118.024414,447.429138 91.379997,446.920868 64.554276,442.733215 
z"/>
<path fill="#000000" opacity="1.000000" stroke="none" 
	d="
M74.978867,249.498383 
	C72.389153,243.397552 73.603851,238.017746 76.703987,232.987305 
	C81.725708,224.838821 88.072746,217.841278 95.682785,212.012848 
	C99.739159,208.906128 104.471985,208.284637 109.371727,208.405380 
	C113.102051,208.497299 115.543861,210.424789 116.974770,213.847687 
	C118.733192,218.054031 118.758034,222.195877 117.111176,226.452591 
	C113.958557,234.601318 113.225243,234.962311 105.224205,231.684616 
	C100.518410,229.756821 95.843399,228.088684 91.029305,231.501724 
	C87.303146,234.143448 87.143585,236.162918 90.880951,238.606155 
	C93.658455,240.421906 96.592857,242.013260 99.532578,243.561829 
	C104.699997,246.283890 110.038307,247.597443 115.803177,245.343033 
	C117.333755,244.744492 119.014877,244.297043 120.643936,244.236084 
	C123.463737,244.130569 126.890129,241.089111 128.901932,244.028717 
	C130.753448,246.734116 128.408615,250.087692 127.091560,252.920654 
	C125.775505,255.751480 123.467590,257.487091 120.486305,258.609650 
	C105.708908,264.173981 90.831467,269.487854 76.406586,275.955811 
	C74.667206,276.735718 72.654747,278.068329 70.803658,276.431915 
	C68.708939,274.580109 70.110512,272.415649 70.833549,270.446228 
	C72.904388,264.805542 76.071655,260.063965 82.377518,257.944366 
	C80.411797,254.274368 76.549835,253.138336 74.978867,249.498383 
z"/>
</svg>