<svg version="1.1" id="Layer_1" xmlns="http://www.w3.org/2000/svg" xmlns:xlink="http://www.w3.org/1999/xlink" x="0px" y="0px"
	 width="100%" viewBox="0 0 348 592" enable-background="new 0 0 348 592" xml:space="preserve">
<path fill="#FFFFFF" opacity="1.000000" stroke="none" 
	d="
M339.042267,593.000000 
	C226.035095,593.000000 113.536064,593.000000 1.018518,593.000000 
	C1.018518,395.680725 1.018518,198.361435 1.018518,1.021076 
	C116.984940,1.021076 232.969894,1.021076 348.977417,1.021076 
	C348.977417,198.316574 348.977417,395.633148 348.977417,593.000000 
	C345.850220,593.000000 342.700317,593.000000 339.042267,593.000000 
M183.483124,393.001892 
	C187.594910,393.001892 191.706680,393.001892 195.801804,393.001892 
	C197.920609,383.847290 199.936996,375.135193 202.014893,366.157318 
	C183.965973,366.157318 166.195251,366.157318 148.161850,366.157318 
	C145.990585,374.947174 143.818680,383.739594 141.530716,393.001892 
	C155.562683,393.001892 169.025085,393.001892 183.483124,393.001892 
z"/>
<path fill="#010101" opacity="1.000000" stroke="none" 
	d="
M182.985306,393.001892 
	C169.025085,393.001892 155.562683,393.001892 141.530716,393.001892 
	C143.818680,383.739594 145.990585,374.947174 148.161850,366.157318 
	C166.195251,366.157318 183.965973,366.157318 202.014893,366.157318 
	C199.936996,375.135193 197.920609,383.847290 195.801804,393.001892 
	C191.706680,393.001892 187.594910,393.001892 182.985306,393.001892 
z"/>
</svg>