<svg version="1.1" id="Layer_1" xmlns="http://www.w3.org/2000/svg" xmlns:xlink="http://www.w3.org/1999/xlink" x="0px" y="0px"
	 width="100%" viewBox="0 0 336 592" enable-background="new 0 0 336 592" xml:space="preserve">
<path fill="#000000" opacity="1.000000" stroke="none" 
	d="
M155.379532,199.191589 
	C157.285782,195.341278 157.765411,191.607193 157.809280,187.714890 
	C157.986053,172.037399 156.617767,156.466034 155.101776,140.883240 
	C154.313431,132.779922 154.118347,124.599426 154.690613,116.446716 
	C154.870132,113.889359 154.516891,110.338860 158.184692,110.360680 
	C161.425781,110.379936 162.112610,113.577202 162.279984,116.319031 
	C163.020020,128.442413 163.429932,140.590561 164.406570,152.693665 
	C165.488495,166.101562 165.869095,179.595963 168.385132,192.856567 
	C170.334274,203.129349 174.709763,206.058167 185.264923,205.078873 
	C194.750488,204.198807 204.190521,203.185944 212.877686,198.950806 
	C218.377335,196.269623 218.822388,193.419312 214.646271,188.958176 
	C211.352753,192.265442 209.231613,196.826492 203.744873,197.706619 
	C195.444412,199.038116 190.188919,195.530289 189.774979,187.179871 
	C189.307220,177.743622 192.035675,169.030350 197.261307,161.235626 
	C200.843338,155.892502 205.191452,155.161087 209.876373,159.578186 
	C221.900330,170.914764 227.277451,188.709290 220.835907,203.812927 
	C218.155685,210.097321 212.758759,213.939438 206.544601,216.342529 
	C197.238052,219.941513 187.478302,220.966125 177.580841,220.223877 
	C172.104156,219.813156 167.790497,217.069977 165.039062,212.228653 
	C163.580765,209.662674 162.365860,206.958389 160.849579,203.934631 
	C157.798126,207.778000 155.897614,212.117813 152.246353,215.084259 
	C146.926041,219.406723 140.597488,221.421310 134.161270,223.211578 
	C129.189682,224.594467 124.168762,225.832108 119.523972,228.160889 
	C117.558662,229.146240 115.430840,230.345688 115.594543,232.838913 
	C115.776352,235.607925 118.201889,236.752487 120.514038,237.075058 
	C127.756668,238.085495 135.022537,239.043457 142.311874,239.583313 
	C163.410721,241.145889 184.541840,242.061249 205.706024,241.628662 
	C216.527786,241.407486 227.344223,240.934753 238.165207,240.660172 
	C240.058472,240.612137 242.187439,239.998352 243.785645,241.884354 
	C243.841782,244.923523 241.203003,245.074310 239.387314,245.778717 
	C224.444702,251.575745 209.269730,256.361511 193.033157,256.915527 
	C168.871826,257.739990 144.731888,258.118378 120.860825,253.441010 
	C105.892189,250.508041 101.659904,237.380417 111.766212,225.438553 
	C118.502228,217.479080 127.159477,212.304398 136.977371,208.954330 
	C141.072861,207.556870 145.117142,206.008133 149.174637,204.501068 
	C151.752151,203.543686 153.878006,202.012619 155.379532,199.191589 
M200.661880,174.952316 
	C198.983841,175.457901 198.115860,176.588013 198.581528,178.298538 
	C198.950195,179.652679 200.021011,180.587875 201.485672,180.605835 
	C203.419556,180.629547 205.067795,180.073639 205.322281,177.629105 
	C204.274872,176.293945 202.918961,175.433578 200.661880,174.952316 
z"/>
<path fill="#000000" opacity="1.000000" stroke="none" 
	d="
M196.842270,123.883995 
	C198.638901,125.080307 199.728882,126.703903 201.764893,127.110756 
	C204.952362,125.397873 205.493866,120.275894 209.505585,120.003067 
	C212.561844,119.795212 214.616211,122.836922 216.971939,124.611160 
	C221.796417,128.244751 217.847137,131.396378 216.092010,134.447433 
	C210.687347,143.842789 207.104187,133.387680 202.382538,133.142685 
	C201.286118,133.426239 200.948746,134.694397 200.144928,135.494873 
	C198.343796,137.288544 197.609604,141.066986 194.467072,140.379974 
	C190.714676,139.559647 187.379608,136.910004 185.437836,133.709290 
	C183.425659,130.392609 187.269684,128.110275 188.639282,125.440994 
	C190.494049,121.826050 193.089584,120.556580 196.842270,123.883995 
z"/>
</svg>