<svg version="1.1" id="Layer_1" xmlns="http://www.w3.org/2000/svg" xmlns:xlink="http://www.w3.org/1999/xlink" x="0px" y="0px"
	 width="100%" viewBox="0 0 336 592" enable-background="new 0 0 336 592" xml:space="preserve">
<path fill="#000000" opacity="1.000000" stroke="none" 
	d="
M182.143921,251.034546 
	C175.042267,247.056442 174.965317,247.003571 170.628693,253.314316 
	C165.395905,260.929230 159.553268,267.476501 149.364853,267.885437 
	C144.911667,268.064178 140.826630,266.944519 136.915283,265.025848 
	C135.125824,264.148071 134.106888,262.604065 134.556503,260.535919 
	C134.973450,258.618042 136.588104,257.897125 138.300186,257.786102 
	C155.814590,256.650421 165.302444,244.298386 174.567093,231.752502 
	C177.718201,227.485382 180.091614,222.639648 183.285110,218.409119 
	C188.999939,210.838425 197.916687,211.437958 202.186462,219.881699 
	C207.052170,229.503922 210.702881,239.528107 205.032516,250.239029 
	C201.633347,256.659821 198.313538,257.929840 191.543503,255.317261 
	C188.450424,254.123657 185.491318,252.582901 182.143921,251.034546 
M183.632599,232.175949 
	C186.293961,235.016190 189.492340,235.981415 193.568344,235.234344 
	C193.477219,231.700302 191.778458,229.518982 188.948029,228.612427 
	C186.527222,227.837067 184.354309,228.714951 183.632599,232.175949 
z"/>
</svg>