<svg version="1.1" id="Layer_1" xmlns="http://www.w3.org/2000/svg" xmlns:xlink="http://www.w3.org/1999/xlink" x="0px" y="0px"
	 width="100%" viewBox="0 0 336 592" enable-background="new 0 0 336 592" xml:space="preserve">
<path fill="#000000" opacity="1.000000" stroke="none" 
	d="
M184.031891,211.967529 
	C185.299133,213.913254 185.921082,215.899048 188.019760,217.210434 
	C191.043106,212.778519 191.694656,207.590454 192.323929,202.659485 
	C193.946533,189.944733 194.624023,177.172577 192.944626,164.349091 
	C192.099426,157.895493 192.207458,151.386734 194.610657,145.142410 
	C196.578903,140.028259 198.178543,139.663345 201.807541,143.574112 
	C202.826309,144.671982 203.664444,145.958817 204.774185,146.947006 
	C208.359085,150.139206 210.232010,153.063858 206.118454,157.617203 
	C203.428848,160.594360 203.379425,165.143875 203.440933,169.084747 
	C203.751038,188.947845 199.991943,208.127609 194.050354,226.937988 
	C192.973694,230.346558 193.994019,233.127441 195.081558,236.081161 
	C198.033295,244.097809 199.150436,251.867889 192.742935,258.984619 
	C190.418076,261.566772 187.991287,263.618256 184.321198,263.628906 
	C176.663284,263.651154 169.005447,263.725372 161.347580,263.723694 
	C154.941132,263.722290 156.396484,258.618073 156.082642,255.038635 
	C155.777252,251.555527 156.385422,248.521103 161.350555,248.574173 
	C168.649994,248.652206 172.666397,243.369064 177.059067,238.405533 
	C181.768875,233.083679 181.916458,228.566574 178.107391,222.509476 
	C168.747681,207.625839 157.917252,193.979706 145.926804,181.188690 
	C144.680542,179.859207 143.492676,178.873627 141.671890,180.197189 
	C138.809113,182.278152 136.692123,180.779541 134.731689,178.693497 
	C132.564804,176.387741 130.293045,174.165100 128.290451,171.722992 
	C119.040535,160.443054 121.326347,158.070755 127.172417,146.071945 
	C129.058502,142.200836 131.551788,144.282028 133.562408,146.141724 
	C143.735168,155.550842 153.016281,165.788452 161.321487,176.875275 
	C169.618195,187.950745 177.066010,199.594315 184.031891,211.967529 
M187.752151,245.381546 
	C187.720139,244.269882 188.097855,243.054184 186.606491,241.928314 
	C184.805176,243.911270 182.995056,245.903946 181.184921,247.896622 
	C183.716476,248.024994 186.151886,248.486206 187.752151,245.381546 
z"/>
</svg>