<svg version="1.1" id="Layer_1" xmlns="http://www.w3.org/2000/svg" xmlns:xlink="http://www.w3.org/1999/xlink" x="0px" y="0px"
	 width="100%" viewBox="0 0 336 592" enable-background="new 0 0 336 592" xml:space="preserve">
<path fill="#000000" opacity="1.000000" stroke="none" 
	d="
M131.874725,200.236557 
	C137.085510,183.028214 148.884262,171.566605 163.483139,161.543015 
	C153.327194,157.206161 143.907364,160.422379 134.641312,161.503525 
	C133.476303,152.885742 136.554092,147.698288 143.653107,144.996902 
	C154.167252,140.995926 164.719193,142.820816 175.182938,144.827713 
	C185.763412,146.857010 196.299210,147.145569 206.975128,145.990936 
	C209.790192,145.686493 213.530182,144.325714 215.358932,147.265457 
	C216.994247,149.894211 214.054367,152.425034 213.119919,154.994171 
	C211.738373,158.792511 208.828796,159.964081 204.993790,160.391144 
	C188.649185,162.211243 172.730057,165.532333 159.065948,175.502991 
	C148.986038,182.858292 140.965973,191.593765 139.082016,204.693436 
	C136.669434,221.468765 144.674606,235.396210 160.592514,241.521408 
	C177.146759,247.891449 194.348648,248.471802 211.743744,247.214905 
	C216.887573,246.843231 222.009750,246.165070 227.154770,245.820312 
	C229.017487,245.695496 231.202774,245.011215 232.632599,247.119339 
	C232.621796,249.584778 230.555496,249.946976 228.976944,250.644516 
	C219.378128,254.886078 209.631195,258.754150 199.716629,262.206573 
	C193.844788,264.251251 187.800369,263.546661 181.876343,263.180817 
	C173.068817,262.636810 164.355988,261.063263 156.034470,257.961365 
	C137.768066,251.152435 129.066818,238.037308 129.459030,218.387802 
	C129.579193,212.367355 130.220123,206.449951 131.874725,200.236557 
z"/>
<path fill="#000000" opacity="1.000000" stroke="none" 
	d="
M168.454590,205.253479 
	C167.736725,200.039032 171.535873,197.315659 173.958099,193.937134 
	C174.867249,192.669052 176.451965,193.162201 177.594131,193.914276 
	C179.528015,195.187698 181.334671,196.652527 183.228088,197.989746 
	C185.614426,199.675095 185.501297,201.621109 184.286392,204.044403 
	C179.596283,213.399445 177.652344,213.619385 168.454590,205.253479 
z"/>
</svg>