<svg version="1.1" id="Layer_1" xmlns="http://www.w3.org/2000/svg" xmlns:xlink="http://www.w3.org/1999/xlink" x="0px" y="0px"
	 width="100%" viewBox="0 0 336 592" enable-background="new 0 0 336 592" xml:space="preserve">
<path fill="#000000" opacity="1.000000" stroke="none" 
	d="
M166.713638,257.080231 
	C165.955704,256.709991 165.506531,256.485748 165.093857,256.207336 
	C156.508118,250.415146 156.514221,249.878769 162.672272,241.728714 
	C165.063919,238.563400 167.235382,238.350662 170.067627,240.865723 
	C171.542053,242.175003 173.143250,243.341537 174.621414,244.520126 
	C177.580246,243.627655 178.582108,241.170258 179.992279,239.221008 
	C181.990494,236.458939 184.105682,236.174103 186.700424,238.291168 
	C187.988525,239.342148 189.314697,240.354294 190.683884,241.296448 
	C193.598022,243.301666 193.916641,245.696533 191.934662,248.535355 
	C190.982697,249.898880 190.040283,251.272629 189.168915,252.688141 
	C187.001221,256.209503 184.695480,256.313446 181.468521,253.708145 
	C176.155670,249.418823 176.003098,249.567459 171.590271,254.947906 
	C170.384521,256.418030 169.232620,257.810791 166.713638,257.080231 
z"/>
<path fill="#000000" opacity="1.000000" stroke="none" 
	d="
M169.714966,220.475952 
	C175.225357,216.456558 177.624939,221.752151 180.791153,223.887238 
	C183.776260,225.900208 181.952118,228.551651 180.513962,230.836578 
	C180.250061,231.255859 179.987579,231.676544 179.708328,232.085556 
	C175.742905,237.893616 167.966660,237.098633 164.824402,230.570038 
	C163.983337,228.822556 164.680206,227.356644 165.666916,225.965088 
	C166.908707,224.213730 168.195892,222.494553 169.714966,220.475952 
z"/>
</svg>