<svg version="1.1" id="Layer_1" xmlns="http://www.w3.org/2000/svg" xmlns:xlink="http://www.w3.org/1999/xlink" x="0px" y="0px"
	 width="100%" viewBox="0 0 336 592" enable-background="new 0 0 336 592" xml:space="preserve">
<path fill="#000000" opacity="1.000000" stroke="none" 
	d="
M183.287415,222.833984 
	C182.473053,228.894669 181.444565,234.462051 179.604355,239.820282 
	C173.462234,257.704651 159.740646,265.694977 142.010330,268.268188 
	C138.228943,268.817017 134.392654,269.212250 130.576599,269.257996 
	C114.913795,269.445801 103.232323,257.754211 102.579590,242.104080 
	C102.124344,231.188690 106.015488,221.923599 111.838066,213.162750 
	C112.833534,211.664948 114.055641,209.611099 116.147507,210.870682 
	C118.386200,212.218719 116.716957,214.180008 115.919579,215.679108 
	C113.336250,220.535782 110.797569,225.311905 110.277519,231.000534 
	C109.533295,239.141327 113.361595,244.261292 120.225983,247.776962 
	C128.556458,252.043503 137.411621,251.081238 146.187607,250.301041 
	C150.132172,249.950363 154.083389,249.084045 157.899796,247.991394 
	C169.959534,244.538559 175.313187,237.677002 175.556885,225.152069 
	C175.653732,220.174835 175.080261,215.182877 172.714676,210.597885 
	C168.856430,203.119766 170.007629,197.946487 176.827148,191.979691 
	C178.945190,192.439972 179.576401,194.371918 180.091873,195.985092 
	C181.438797,200.200424 184.145676,200.320648 187.514328,198.862778 
	C195.391586,195.453674 201.116974,190.004578 203.651901,181.593903 
	C204.164871,179.891907 204.164047,177.599701 206.657959,177.699814 
	C208.765076,177.784393 208.835526,179.834274 209.349640,181.398987 
	C211.455429,187.808105 219.383362,191.875549 224.862183,188.814178 
	C218.692963,184.300247 221.641663,178.959412 223.388947,173.700211 
	C223.857651,172.289490 224.196472,170.640747 226.082001,170.517914 
	C228.062988,170.388855 229.070663,171.841354 229.791672,173.373093 
	C231.287292,176.550339 232.556320,179.807190 232.257355,183.440292 
	C231.830673,188.625946 230.719315,193.658890 228.411987,198.329147 
	C223.862976,207.536789 215.428802,209.189804 207.501831,202.584045 
	C206.137543,201.447128 205.117722,199.731339 202.558517,199.572586 
	C200.977402,201.550430 199.204895,203.709229 197.497757,205.918518 
	C195.531052,208.463760 193.330719,211.347183 190.260269,211.787292 
	C183.495483,212.756927 182.591995,216.867722 183.287415,222.833984 
z"/>
</svg>