<svg version="1.1" id="Layer_1" xmlns="http://www.w3.org/2000/svg" xmlns:xlink="http://www.w3.org/1999/xlink" x="0px" y="0px"
	 width="100%" viewBox="0 0 336 592" enable-background="new 0 0 336 592" xml:space="preserve">
<path fill="#000000" opacity="1.000000" stroke="none" 
	d="
M127.034058,159.916122 
	C137.562698,155.718460 148.272720,152.769516 156.231400,144.438904 
	C161.711441,138.702789 165.545776,131.899200 169.652679,125.246368 
	C170.584976,123.736137 171.162033,121.907936 173.202209,120.968903 
	C175.808655,123.036957 177.040939,125.985733 178.484619,128.692780 
	C186.045395,142.869995 197.141907,152.617172 212.631912,157.570892 
	C233.551422,164.261017 252.039291,175.472534 268.447693,189.925385 
	C278.631226,198.895248 289.275848,206.516327 303.112122,208.433380 
	C303.901276,208.542740 304.648346,208.955948 305.414734,209.227646 
	C303.224548,215.459473 294.839142,222.463669 281.489441,229.204727 
	C307.326416,275.059723 307.542694,321.113708 281.374115,367.432770 
	C291.682709,371.270966 299.400818,377.923401 305.586639,386.449829 
	C303.626465,388.946411 301.174500,388.594421 299.205383,388.933411 
	C288.649017,390.750488 279.820404,395.739136 272.061218,402.898163 
	C254.691315,418.924347 235.010559,431.286743 212.536285,438.613434 
	C196.808975,443.740631 185.812286,453.681152 178.168289,467.949799 
	C176.851379,470.408051 175.762543,473.085510 173.282623,475.049103 
	C170.094452,473.354584 169.126465,469.976471 167.580704,467.205231 
	C160.059586,453.721313 149.722473,443.729584 134.632309,439.079865 
	C129.718048,437.565613 125.014603,435.351898 120.246780,433.380615 
	C103.888466,426.617065 89.451378,416.748627 76.426430,404.964905 
	C66.610863,396.084656 55.819695,389.866089 42.585793,388.199615 
	C41.832722,388.104828 41.131248,387.600281 39.581398,386.929840 
	C46.546078,378.151733 54.314934,371.326904 65.015762,367.307678 
	C51.759510,345.743469 45.419834,322.947876 45.443970,298.129852 
	C45.468082,273.333679 51.900383,250.570404 65.041077,229.072845 
	C54.260944,225.238724 46.649677,218.339294 39.694443,210.026779 
	C41.735008,208.313400 43.682148,207.994766 45.583057,207.668304 
	C55.713478,205.928543 64.401421,201.414841 72.086319,194.602661 
	C88.398819,180.142624 106.144356,167.881500 127.034058,159.916122 
M218.345749,381.978912 
	C223.757904,378.613159 228.195343,374.039734 233.107117,370.054199 
	C237.807602,366.240051 243.431534,364.761810 248.421097,367.895538 
	C253.654633,371.182465 258.093018,371.005768 263.136078,368.493805 
	C264.150391,367.988586 265.367615,367.727234 266.507690,367.667847 
	C270.372375,367.466522 272.867371,365.533112 274.798035,362.221130 
	C299.088165,320.552399 299.556488,278.656464 276.247284,236.444153 
	C273.906372,232.204865 271.395081,228.752899 265.773895,228.760147 
	C263.423157,228.763153 260.927582,227.507263 258.756287,226.342133 
	C256.261841,225.003601 254.454132,225.087265 251.976273,226.717026 
	C244.969360,231.325668 238.722336,230.708771 232.290573,225.315018 
	C229.992432,223.387756 227.555557,221.572678 225.526367,219.386734 
	C214.164963,207.147659 190.951523,209.525375 181.037659,219.999420 
	C179.320953,221.813110 177.375977,223.412277 175.678970,225.242676 
	C173.742798,227.330978 172.132004,227.092422 170.252243,225.120453 
	C167.955750,222.711304 165.552948,220.381821 163.022736,218.220886 
	C152.096390,208.889252 134.034943,208.707382 122.911194,217.776993 
	C119.426720,220.618011 116.066025,223.611053 112.576088,226.445129 
	C108.520386,229.738632 103.164017,231.514481 99.087509,228.834473 
	C92.484909,224.493744 86.809258,226.160233 80.669838,228.729324 
	C80.213158,228.920425 79.695427,229.143112 79.227715,229.102417 
	C75.301018,228.760727 73.240036,231.075363 71.437622,234.143784 
	C46.968765,275.799530 46.852890,317.719543 69.904480,359.951874 
	C72.330582,364.396667 75.199135,367.892517 80.874771,368.024902 
	C82.790047,368.069550 84.803154,368.918365 86.555763,369.819397 
	C89.508942,371.337646 91.972313,371.459076 94.740112,369.191193 
	C97.845978,366.646301 101.727753,366.285675 105.665298,366.682037 
	C110.504524,367.169128 113.663353,370.451721 117.088463,373.366241 
	C122.511497,377.980896 127.426437,383.671936 135.044922,384.510132 
	C147.123978,385.839050 158.162918,383.877045 167.027939,374.324615 
	C173.902679,366.916809 172.800430,367.799408 179.155029,374.190277 
	C190.298492,385.397400 203.219727,387.349426 218.345749,381.978912 
M238.129440,415.617737 
	C255.233414,405.924011 267.953552,390.145966 285.884399,381.492462 
	C284.587128,379.390961 282.470978,379.141449 280.651367,378.544312 
	C271.993988,375.703400 264.286591,378.787811 256.785309,382.679321 
	C254.565277,383.831085 252.885345,384.533752 250.630386,382.341614 
	C243.279907,375.195709 243.182465,375.296173 235.382111,381.933899 
	C234.748077,382.473389 234.099564,382.996490 233.477478,383.549377 
	C216.043961,399.042664 193.986160,399.852356 175.827942,385.523926 
	C173.790314,383.916046 172.473206,383.459106 170.361710,385.399139 
	C158.832413,395.992126 144.902542,396.766205 130.540909,394.249847 
	C122.009979,392.755157 115.933990,386.621033 109.711563,381.082550 
	C103.228004,375.311737 102.037872,375.207458 96.306984,381.475403 
	C93.955025,384.047821 92.058067,384.478607 89.070946,382.598969 
	C84.813133,379.919769 80.003891,378.415527 75.034897,377.644257 
	C69.842476,376.838287 65.092751,377.928162 59.478680,381.695374 
	C70.862160,385.601990 78.234642,392.954956 86.016212,399.633850 
	C102.176567,413.504150 120.448883,423.426331 140.585846,430.121033 
	C151.460098,433.736298 160.334198,440.288696 167.670654,449.023132 
	C169.436752,451.125763 170.556961,453.851044 173.292801,455.301086 
	C174.217484,454.275391 175.067642,453.478119 175.747940,452.555573 
	C183.784454,441.657745 194.015884,433.849091 206.986404,429.569122 
	C217.591202,426.069824 227.788513,421.547272 238.129440,415.617737 
M104.525444,183.062744 
	C89.055901,192.483063 77.288094,206.947067 59.853886,214.992523 
	C63.163822,217.387177 65.957680,218.452866 69.148483,218.788010 
	C75.900818,219.497238 82.203247,217.855209 87.748558,214.287003 
	C91.834549,211.657837 94.274506,212.204132 97.376869,215.769852 
	C101.664513,220.697891 103.281990,220.531418 108.204521,216.417816 
	C110.378082,214.601456 112.467422,212.683365 114.658897,210.889526 
	C130.333694,198.058746 154.386612,197.783585 169.987076,210.426910 
	C172.472656,212.441315 173.987778,212.358643 176.278320,210.234253 
	C180.490097,206.327927 185.479065,203.665802 191.211716,202.602829 
	C208.185959,199.455307 223.557388,201.691040 236.288147,214.805618 
	C242.672226,221.382187 243.528992,221.100052 249.912720,214.475006 
	C252.130112,212.173828 253.900589,211.500305 256.716705,213.502487 
	C259.987915,215.828262 263.786560,217.324326 267.706787,218.148743 
	C274.095642,219.492310 280.379486,219.571808 286.752869,214.791992 
	C277.457977,211.154480 270.431580,205.581818 263.602448,199.730576 
	C247.129761,185.616684 229.091232,174.146057 208.416977,167.178665 
	C194.422379,162.462372 182.618301,154.853424 174.513611,142.176575 
	C174.186676,141.665207 173.594513,141.323441 172.926804,140.723846 
	C172.142578,141.632233 171.433411,142.308487 170.894012,143.100372 
	C163.413376,154.082596 153.355164,161.566116 140.812073,165.984558 
	C128.386810,170.361511 116.271667,175.494766 104.525444,183.062744 
z"/>
<path fill="#000000" opacity="1.000000" stroke="none" 
	d="
M186.908234,408.563110 
	C189.527649,417.651001 187.103592,424.450378 180.212402,428.172119 
	C174.161987,431.439789 166.704330,430.206116 161.977142,425.155487 
	C156.103287,418.879822 156.391205,409.427399 162.628677,403.763855 
	C168.779602,398.178986 178.618759,398.503876 184.182007,404.545349 
	C185.180588,405.629761 185.896652,406.974304 186.908234,408.563110 
z"/>
<path fill="#000000" opacity="1.000000" stroke="none" 
	d="
M141.704575,414.885010 
	C137.000381,416.125397 132.839996,415.185638 128.712814,413.718658 
	C119.187065,410.332764 110.576271,405.453491 103.379082,398.270264 
	C100.967743,395.863617 99.196037,392.956421 102.043694,390.013885 
	C104.605934,387.366211 107.764236,388.451965 110.040779,390.734100 
	C117.970634,398.683380 127.855370,402.697479 138.433624,405.524414 
	C143.841980,406.969757 144.717896,409.448151 141.704575,414.885010 
z"/>
<path fill="#000000" opacity="1.000000" stroke="none" 
	d="
M245.202820,393.728455 
	C244.865356,394.886871 244.748962,395.847534 244.209137,396.373840 
	C234.275024,406.058899 223.082474,413.472290 208.969223,415.410339 
	C206.019196,415.815491 203.115982,415.712708 202.451172,411.866913 
	C201.802704,408.115540 203.896240,406.465118 207.247147,405.600586 
	C217.982590,402.830872 227.952713,398.693604 236.087173,390.686646 
	C240.004257,386.830994 243.611389,388.151428 245.202820,393.728455 
z"/>
<path fill="#000000" opacity="1.000000" stroke="none" 
	d="
M172.204208,166.202042 
	C179.581207,166.415970 184.720215,169.505707 187.168060,176.187775 
	C189.348648,182.140335 188.380890,187.631439 183.796829,192.244080 
	C179.352081,196.716522 171.934845,197.947449 166.305222,195.193726 
	C160.627106,192.416245 157.091614,186.151505 157.794922,180.113831 
	C158.580551,173.369614 162.953552,168.281082 169.357758,166.689346 
	C170.161133,166.489685 170.990234,166.393539 172.204208,166.202042 
z"/>
<path fill="#000000" opacity="1.000000" stroke="none" 
	d="
M237.460724,193.491180 
	C239.627380,195.339386 241.591385,196.888336 243.347473,198.645142 
	C245.592346,200.890930 246.433884,203.719391 244.107681,206.175293 
	C241.657013,208.762634 238.687256,208.189194 236.085648,205.966232 
	C234.067627,204.241913 232.217300,202.306686 230.111984,200.701935 
	C223.931702,195.991028 216.858444,193.186493 209.368500,191.332367 
	C208.081894,191.013885 206.764862,190.736359 205.549347,190.230026 
	C203.104980,189.211838 201.954391,187.291199 202.423920,184.659027 
	C202.896439,182.010147 204.563583,180.777771 207.316956,180.654160 
	C212.137177,180.437805 216.494186,182.037079 220.768341,183.875748 
	C226.583984,186.377563 232.069946,189.503250 237.460724,193.491180 
z"/>
<path fill="#000000" opacity="1.000000" stroke="none" 
	d="
M109.076675,193.018265 
	C115.757690,188.201157 122.690842,184.648468 130.118881,182.044159 
	C132.813446,181.099411 135.555328,180.562393 138.432465,180.639145 
	C140.800934,180.702332 142.792664,181.242264 143.283768,183.915375 
	C143.777039,186.600388 143.252899,188.960281 140.445724,190.122787 
	C139.074722,190.690536 137.602081,191.023560 136.161362,191.410400 
	C126.528038,193.997009 117.754478,198.165482 110.586746,205.288437 
	C108.125549,207.734253 105.408974,209.434647 102.416733,206.390991 
	C99.356964,203.278625 100.706398,200.322174 103.489311,197.775940 
	C105.204720,196.206421 107.015991,194.741653 109.076675,193.018265 
z"/>
</svg>