<svg version="1.1" id="Layer_1" xmlns="http://www.w3.org/2000/svg" xmlns:xlink="http://www.w3.org/1999/xlink" x="0px" y="0px"
	 width="100%" viewBox="0 0 336 592" enable-background="new 0 0 336 592" xml:space="preserve">
<path fill="#000000" opacity="1.000000" stroke="none" 
	d="
M149.645309,236.340408 
	C148.954041,226.526047 151.399582,218.066422 156.008774,209.796600 
	C162.500259,198.149612 183.866074,196.071808 192.194992,210.823807 
	C199.007553,222.890076 198.459717,242.333206 191.251740,254.139160 
	C183.841293,266.276703 161.857422,267.853027 154.270752,251.912567 
	C151.981400,247.102356 150.056259,242.157394 149.645309,236.340408 
M182.520752,212.118439 
	C180.937195,207.915771 178.415970,204.947998 173.459473,204.976974 
	C168.359528,205.006790 165.967712,208.527496 164.664001,212.531631 
	C160.511688,225.284531 159.800797,238.216446 164.074814,251.129166 
	C165.577988,255.670563 168.139801,259.068115 173.660324,258.949921 
	C178.985565,258.835938 181.269974,255.385834 182.617737,251.033493 
	C186.547562,238.342911 186.754730,225.600250 182.520752,212.118439 
z"/>
</svg>