<svg version="1.1" id="Layer_1" xmlns="http://www.w3.org/2000/svg" xmlns:xlink="http://www.w3.org/1999/xlink" x="0px" y="0px"
	 width="100%" viewBox="0 0 336 592" enable-background="new 0 0 336 592" xml:space="preserve">
<path fill="#000000" opacity="1.000000" stroke="none" 
	d="
M160.859451,251.710129 
	C171.022690,249.529282 180.387878,246.486618 189.415009,240.174210 
	C181.204468,237.060150 174.739304,232.350784 166.914047,230.194733 
	C158.310547,227.824265 152.337723,233.271805 145.597046,237.379730 
	C144.201904,225.008606 155.793640,213.498825 166.905075,214.945129 
	C171.737198,215.574112 176.247162,217.134293 180.558380,219.448944 
	C188.755600,223.849976 196.824768,228.560196 206.218918,230.193146 
	C207.929581,230.490494 209.610062,231.592972 211.058121,232.658569 
	C216.879593,236.942566 217.001953,239.936005 211.314117,244.259064 
	C198.318054,254.136765 184.443253,262.120117 167.758728,263.904999 
	C159.149872,264.825989 150.839096,263.531616 142.700592,260.867126 
	C141.055923,260.328644 138.789948,259.775238 139.071411,257.412811 
	C139.330307,255.239609 141.368469,254.832718 143.238831,254.532867 
	C148.973434,253.613510 154.705322,252.677185 160.859451,251.710129 
z"/>
</svg>