<svg version="1.1" id="Layer_1" xmlns="http://www.w3.org/2000/svg" xmlns:xlink="http://www.w3.org/1999/xlink" x="0px" y="0px"
	 width="100%" viewBox="0 0 336 592" enable-background="new 0 0 336 592" xml:space="preserve">
<path fill="#000000" opacity="1.000000" stroke="none" 
	d="
M162.326080,259.897919 
	C164.181778,265.257446 165.460022,270.209961 162.376389,275.163513 
	C161.739685,276.186340 161.101837,277.188873 159.707382,277.010773 
	C158.787354,276.893280 158.180435,276.158752 158.044647,275.348206 
	C155.965134,262.936707 148.832825,251.744202 149.540161,238.604233 
	C149.838165,233.068405 150.759796,227.721054 151.959564,222.377060 
	C153.452789,215.725983 157.389999,211.079132 163.745117,208.536560 
	C167.420059,207.066269 171.104538,205.619812 175.790924,203.764221 
	C172.083817,200.960083 169.249512,200.512314 165.904465,202.833176 
	C163.525711,204.483643 160.784943,207.449524 157.977127,205.135483 
	C155.204071,202.850082 158.416397,199.970413 159.202805,197.513290 
	C164.265396,181.695618 180.093658,181.260147 189.132935,190.742950 
	C195.590164,197.517044 201.632111,204.242615 198.522537,214.826080 
	C197.353333,218.805420 195.489059,220.550201 191.168625,220.454224 
	C182.518295,220.262070 173.842590,220.492020 165.744553,224.255951 
	C156.911957,228.361313 154.784088,232.780228 157.302353,242.247269 
	C158.839478,248.025833 160.582001,253.749786 162.326080,259.897919 
z"/>
</svg>