<svg version="1.1" id="Layer_1" xmlns="http://www.w3.org/2000/svg" xmlns:xlink="http://www.w3.org/1999/xlink" x="0px" y="0px"
	 width="100%" viewBox="0 0 336 592" enable-background="new 0 0 336 592" xml:space="preserve">
<path fill="#000000" opacity="1.000000" stroke="none" 
	d="
M112.411926,500.304260 
	C116.219994,512.009399 125.656761,514.559814 135.803421,515.087219 
	C143.754883,515.500427 151.720367,514.425903 159.513672,512.427368 
	C178.709045,507.504791 180.725998,489.093628 174.652679,474.760254 
	C171.401169,467.086456 172.292313,461.672577 178.904587,456.175323 
	C180.838516,456.549316 181.484329,458.305450 181.942596,459.753174 
	C183.435455,464.469147 186.461807,464.403839 190.153000,462.771973 
	C197.506393,459.521027 202.836029,454.338318 205.467072,446.613678 
	C206.082489,444.806824 205.802032,442.133575 208.362595,441.950714 
	C211.103516,441.754974 210.882416,444.476471 211.529221,446.258209 
	C213.595642,451.950592 221.149689,455.617981 226.993881,453.075714 
	C220.852753,448.583191 223.413910,443.284485 225.328400,438.039856 
	C225.833771,436.655396 226.201889,435.050659 228.068832,434.861450 
	C229.843140,434.681641 230.731567,435.933960 231.580399,437.210632 
	C236.509964,444.624817 233.205872,463.264404 226.020020,468.552368 
	C222.210358,471.355835 215.522720,471.104004 211.000488,467.873322 
	C209.122910,466.531952 207.398132,464.976715 205.572021,463.492859 
	C202.792465,465.061768 201.613052,467.749817 199.820114,469.861816 
	C197.077545,473.092407 194.092468,476.243530 189.821243,476.910645 
	C185.770859,477.543274 185.184540,479.736725 185.316879,483.126038 
	C185.600098,490.379944 183.807205,497.341217 181.523773,504.112000 
	C175.707657,521.357727 162.590378,529.402161 145.438614,532.319275 
	C139.813034,533.276062 134.183395,533.544495 128.529663,533.271179 
	C116.582817,532.693420 105.711128,520.793030 104.656174,507.709442 
	C103.736198,496.299927 107.587097,486.462036 113.907524,477.332733 
	C114.943764,475.835968 116.355026,473.875183 118.306046,475.206635 
	C120.324081,476.583771 118.737679,478.575592 117.845169,480.062469 
	C114.173347,486.179596 111.591621,492.563446 112.411926,500.304260 
z"/>
</svg>