<svg version="1.1" id="Layer_1" xmlns="http://www.w3.org/2000/svg" xmlns:xlink="http://www.w3.org/1999/xlink" x="0px" y="0px"
	 width="100%" viewBox="0 0 336 592" enable-background="new 0 0 336 592" xml:space="preserve">
<path fill="#000000" opacity="1.000000" stroke="none" 
	d="
M158.164154,274.269714 
	C155.705276,274.050781 153.689514,273.996399 151.744034,273.598450 
	C148.377762,272.909882 146.475250,273.942902 145.460693,277.410767 
	C144.297531,281.386627 141.970566,281.802399 138.984833,278.973938 
	C135.649185,275.813995 133.505905,268.673035 135.175461,265.169006 
	C137.360901,260.582275 141.820984,259.776978 146.192657,259.781769 
	C152.333817,259.788483 158.472183,260.420624 164.615601,260.700867 
	C176.997696,261.265686 189.216431,260.450104 201.083984,256.450287 
	C203.524017,255.627930 206.679398,254.295334 208.028976,257.686920 
	C209.373413,261.065552 206.563950,262.905518 203.954865,264.148010 
	C189.631424,270.969055 174.680222,275.091461 158.164154,274.269714 
z"/>
</svg>