<svg version="1.1" id="Layer_1" xmlns="http://www.w3.org/2000/svg" xmlns:xlink="http://www.w3.org/1999/xlink" x="0px" y="0px"
	 width="100%" viewBox="0 0 336 592" enable-background="new 0 0 336 592" xml:space="preserve">
<path fill="#000000" opacity="1.000000" stroke="none" 
	d="
M166.669006,332.192047 
	C167.266983,325.156097 170.261597,319.696320 174.668900,314.936310 
	C177.934921,311.408875 181.674469,310.868561 185.941376,313.187714 
	C192.917633,316.979523 196.039490,323.534424 197.030197,330.701874 
	C199.824203,350.915863 194.376297,368.686401 179.138550,382.742035 
	C168.082825,392.940033 155.228592,392.591217 144.286209,382.278076 
	C143.015244,381.080170 141.241394,380.023468 142.105789,376.648560 
	C161.034378,381.971924 174.510025,373.561462 184.645462,358.156128 
	C187.331421,354.073639 188.383560,349.394562 187.181870,343.709961 
	C183.144562,348.153290 178.840805,349.751190 173.657501,346.876923 
	C167.992554,343.735565 165.981552,338.864990 166.669006,332.192047 
M177.417603,329.823883 
	C177.783676,331.598297 178.500519,333.055054 180.647125,332.132446 
	C181.643265,331.704315 181.919708,330.528625 181.142471,329.682007 
	C180.135803,328.585449 179.000641,326.737030 177.417603,329.823883 
z"/>
</svg>