<svg version="1.1" id="Layer_1" xmlns="http://www.w3.org/2000/svg" xmlns:xlink="http://www.w3.org/1999/xlink" x="0px" y="0px"
	 width="100%" viewBox="0 0 336 592" enable-background="new 0 0 336 592" xml:space="preserve">
<path fill="#000000" opacity="1.000000" stroke="none" 
	d="
M176.667023,307.686462 
	C178.516006,305.024933 180.235626,302.533112 183.563293,303.030792 
	C187.025970,303.548645 188.246643,306.457153 189.266449,309.342865 
	C191.163773,314.711639 192.171341,320.267334 192.162491,325.948242 
	C192.159225,328.046082 191.811508,330.297668 189.486282,331.713654 
	C186.646606,330.203735 187.129303,327.319977 186.637146,324.854309 
	C186.086899,322.097534 185.902130,318.939209 182.339386,318.308472 
	C178.751312,317.673248 177.185745,320.397736 176.187103,323.046082 
	C169.659424,340.357605 157.068802,349.603455 138.895737,351.960144 
	C135.170425,352.443268 131.557785,354.049591 127.989967,355.394806 
	C125.945107,356.165833 123.825890,357.628448 123.882904,359.966705 
	C123.947968,362.634705 126.683586,363.113861 128.700180,363.485168 
	C133.594940,364.386475 138.535233,365.315125 143.490906,365.565582 
	C171.278412,366.969757 199.074692,366.546692 226.867218,365.568146 
	C228.787796,365.500519 230.864532,364.711853 232.410568,366.688049 
	C232.560196,369.582916 230.063110,370.117218 228.317474,371.118195 
	C216.215973,378.057495 202.867630,380.906982 189.207321,382.003143 
	C168.425003,383.670807 147.648148,383.364594 127.088646,379.317261 
	C114.295822,376.798889 110.578056,367.099274 118.603889,356.747070 
	C125.641518,347.669556 134.151611,339.788055 145.081604,336.142426 
	C159.898743,331.200256 170.848053,322.784637 176.667023,307.686462 
z"/>
</svg>