<svg version="1.1" id="Layer_1" xmlns="http://www.w3.org/2000/svg" xmlns:xlink="http://www.w3.org/1999/xlink" x="0px" y="0px"
	 width="100%" viewBox="0 0 336 592" enable-background="new 0 0 336 592" xml:space="preserve">
<path fill="#000000" opacity="1.000000" stroke="none" 
	d="
M147.895966,234.125031 
	C142.410416,235.165817 137.377396,236.309113 132.754181,238.718475 
	C131.123489,239.568314 129.456573,240.696548 129.549118,242.812454 
	C129.649887,245.116638 131.756775,245.615204 133.440018,246.128525 
	C139.699631,248.037476 146.241608,248.389313 152.679749,248.567001 
	C177.155090,249.242538 201.640869,249.215897 226.121658,248.630554 
	C228.612137,248.571014 231.092773,248.154297 233.584061,248.052948 
	C235.210663,247.986771 237.254974,247.755905 237.865021,249.712952 
	C238.503479,251.761139 236.545502,252.554520 235.156128,253.368301 
	C226.877121,258.217590 217.927109,261.531158 208.521194,262.967773 
	C183.517899,266.786682 158.477570,266.581818 133.504272,262.370361 
	C132.685867,262.232361 131.872284,262.050537 131.068832,261.841553 
	C120.265404,259.031708 116.727188,249.758438 123.504387,240.608292 
	C130.219589,231.541885 138.771057,224.391998 149.066025,219.520111 
	C150.718887,218.737930 152.401718,217.964645 154.146759,217.440445 
	C166.268494,213.798981 175.590424,207.115906 179.983826,194.635757 
	C180.900635,192.031372 182.508377,189.558594 184.638794,187.599197 
	C187.324158,185.129471 190.012939,185.169632 192.534378,187.789078 
	C196.300583,191.701706 199.038345,208.165298 196.812180,213.142197 
	C196.536102,213.759399 196.217316,214.357483 196.154694,214.484589 
	C193.368134,214.161270 193.076050,212.625610 192.773056,211.168686 
	C192.401184,209.380615 192.044800,207.581772 191.832062,205.769943 
	C191.524658,203.151962 190.251846,201.257080 187.637360,200.868561 
	C185.093857,200.490555 183.838120,202.540848 182.679199,204.385910 
	C181.972809,205.510513 181.285706,206.682663 180.825272,207.920959 
	C175.177414,223.110321 164.020462,231.407837 147.895966,234.125031 
z"/>
</svg>