<svg version="1.1" id="Layer_1" xmlns="http://www.w3.org/2000/svg" xmlns:xlink="http://www.w3.org/1999/xlink" x="0px" y="0px"
	 width="100%" viewBox="0 0 336 592" enable-background="new 0 0 336 592" xml:space="preserve">
<path fill="#000000" opacity="1.000000" stroke="none" 
	d="
M202.125854,230.877899 
	C205.589569,221.866089 202.221970,213.855179 199.581207,205.863724 
	C198.390045,202.259109 196.374741,198.918121 194.646561,195.501434 
	C190.796265,187.889114 191.913910,182.352219 198.801804,176.039124 
	C201.950516,178.727463 203.252914,182.619354 204.778961,186.165329 
	C210.635849,199.774658 213.946228,213.850891 212.382828,228.887161 
	C210.838364,243.741562 195.023758,258.506989 178.563217,260.389008 
	C170.258301,261.338593 162.357666,260.943420 154.723679,257.203369 
	C143.950150,251.925201 140.654221,243.116638 141.051254,232.640701 
	C141.414719,223.050034 145.080338,214.170517 149.428497,205.657379 
	C150.169235,204.207092 150.853516,202.293427 153.059540,203.248444 
	C155.323990,204.228760 154.935562,206.112305 154.146896,207.920944 
	C151.680237,213.577606 149.306442,219.214127 149.260178,225.587540 
	C149.232452,229.406967 150.592377,232.356796 153.364334,234.809769 
	C164.053940,244.269333 192.507278,242.158829 202.125854,230.877899 
z"/>
<path fill="#000000" opacity="1.000000" stroke="none" 
	d="
M172.776459,159.340393 
	C173.489105,159.799957 173.912766,160.059570 174.314377,160.349701 
	C181.084824,165.240463 181.185562,170.683426 174.692261,176.094528 
	C173.337402,177.223587 172.045273,177.423004 170.646164,176.481430 
	C168.592484,175.099319 166.574753,173.658569 164.600250,172.165405 
	C162.524887,170.595978 162.086853,168.392441 163.762680,166.553284 
	C166.324982,163.741287 166.113785,157.490265 172.776459,159.340393 
z"/>
</svg>