<svg version="1.1" id="Layer_1" xmlns="http://www.w3.org/2000/svg" xmlns:xlink="http://www.w3.org/1999/xlink" x="0px" y="0px"
	 width="100%" viewBox="0 0 336 592" enable-background="new 0 0 336 592" xml:space="preserve">
<path fill="#000000" opacity="1.000000" stroke="none" 
	d="
M168.961121,176.058563 
	C170.099167,170.318375 171.128616,164.976944 172.316986,158.811005 
	C175.118958,162.116394 174.785919,165.505859 175.276428,168.534821 
	C176.588425,176.636490 178.635971,184.460495 182.501663,191.762939 
	C186.334000,199.002426 191.658432,204.778015 198.635071,209.100159 
	C203.867584,212.341782 209.259964,215.303894 214.242966,218.982010 
	C225.679169,227.423386 226.454758,245.796234 219.505402,256.063599 
	C217.275711,259.357849 214.305527,261.995453 210.482986,262.768555 
	C206.262146,263.622253 206.390411,266.297424 206.415344,269.424255 
	C206.597183,292.227203 206.776962,315.030396 206.851486,337.833832 
	C206.884125,347.820679 206.850769,357.814758 206.498932,367.793243 
	C206.279770,374.008575 208.501633,378.630981 213.363022,382.437134 
	C218.226532,386.244934 223.893631,388.669312 228.930923,392.763245 
	C191.632462,392.763245 154.334015,392.763245 116.874504,392.763245 
	C117.484894,390.565491 119.299210,390.310364 120.669312,389.526123 
	C123.701881,387.790253 126.785736,386.141235 129.783615,384.348022 
	C136.343719,380.424103 139.108093,374.963562 139.012848,366.970245 
	C138.627762,334.658447 138.807846,302.339203 138.921539,270.023193 
	C138.935226,266.139496 138.263290,263.788055 134.090271,262.135956 
	C124.900795,258.497833 119.935287,246.339157 122.000748,235.023392 
	C123.232224,228.276627 126.426353,222.860687 131.944000,218.887283 
	C135.179108,216.557571 138.480423,214.248993 141.994965,212.390427 
	C156.660400,204.634903 165.454010,192.586075 168.961121,176.058563 
M200.758301,357.498962 
	C200.754715,326.346069 200.749771,295.193207 200.749878,264.040314 
	C200.749893,261.217712 200.369385,258.529968 204.402435,257.568390 
	C211.718201,255.824081 217.190948,251.565598 218.363739,243.693893 
	C219.547943,235.745743 217.282913,228.766678 210.526138,223.881470 
	C206.621536,221.058395 202.561188,218.406830 198.370132,216.032532 
	C188.125397,210.228714 180.967590,201.715958 175.938980,191.246307 
	C174.959274,189.206558 174.132492,187.093338 172.980774,184.424454 
	C172.216370,185.696625 171.692200,186.318802 171.433395,187.036667 
	C166.270264,201.356888 156.883072,211.840988 143.218857,218.603790 
	C139.497894,220.445389 136.051575,222.840561 133.057037,225.795837 
	C122.385712,236.327225 125.683708,252.376846 139.884644,257.074463 
	C144.416412,258.573578 145.279434,260.832733 145.264450,264.983734 
	C145.149567,296.802643 145.144897,328.622284 145.231003,360.441345 
	C145.257202,370.122192 146.220428,379.958527 136.113800,387.383545 
	C161.090286,387.383545 184.628479,387.383545 209.232010,387.383545 
	C202.099335,381.416595 199.980194,374.235474 200.722305,365.991699 
	C200.945450,363.512878 200.757492,360.997009 200.758301,357.498962 
z"/>
<path fill="#000000" opacity="1.000000" stroke="none" 
	d="
M156.838409,375.714966 
	C156.746933,337.245667 156.667694,299.246765 156.776459,261.248383 
	C156.788406,257.073639 156.122604,254.882446 151.447479,253.519287 
	C139.475235,250.028351 137.334351,239.711792 146.441010,231.144775 
	C148.845703,228.882599 151.700516,227.065735 154.475281,225.236481 
	C161.883835,220.352417 167.931381,214.367203 170.974838,205.788040 
	C171.294754,204.886215 171.933853,204.097610 172.350037,203.384674 
	C173.903397,203.318665 174.368027,204.307129 174.677536,205.219131 
	C177.854263,214.580261 184.498688,220.834015 192.717148,225.802948 
	C195.263840,227.342712 197.741837,229.158401 199.830399,231.265030 
	C208.083298,239.589386 205.790787,249.947006 194.578232,253.358170 
	C189.928314,254.772812 188.897293,256.910614 188.917786,261.359741 
	C189.085175,297.691559 189.029709,334.024506 189.022934,370.357086 
	C189.021454,378.311859 188.986343,378.310272 180.936005,378.307831 
	C174.602798,378.305878 168.269119,378.352417 161.936707,378.282196 
	C160.041245,378.261169 157.769226,378.820129 156.838409,375.714966 
z"/>
</svg>