<svg version="1.1" id="Layer_1" xmlns="http://www.w3.org/2000/svg" xmlns:xlink="http://www.w3.org/1999/xlink" x="0px" y="0px"
	 width="100%" viewBox="0 0 348 592" enable-background="new 0 0 348 592" xml:space="preserve">
<path fill="#FFFFFF" opacity="1.000000" stroke="none" 
	d="
M346.330231,593.000000 
	C230.969116,593.000000 116.139702,593.000000 1.155144,593.000000 
	C1.155144,395.776947 1.155144,198.553726 1.155144,1.165254 
	C116.885658,1.165254 232.771622,1.165254 349.000000,1.165254 
	C349.000000,2.873754 349.000000,4.765578 349.000000,6.657402 
	C349.000000,200.650772 349.006012,394.644135 348.872406,588.637451 
	C348.871521,589.937012 351.194305,593.319824 346.330231,593.000000 
M186.272781,469.772949 
	C190.178040,466.238525 194.083313,462.704102 197.033234,460.034302 
	C188.381836,450.994904 180.610641,442.875153 172.772751,434.685730 
	C165.009872,442.774872 157.217484,450.894745 150.092865,458.318817 
	C157.599152,465.862579 165.634628,473.938141 174.102951,482.448730 
	C177.734421,478.659821 181.753586,474.466400 186.272781,469.772949 
z"/>
<path fill="#0D0D0D" opacity="1.000000" stroke="none" 
	d="
M186.022766,470.022949 
	C181.753586,474.466400 177.734421,478.659821 174.102951,482.448730 
	C165.634628,473.938141 157.599152,465.862579 150.092865,458.318817 
	C157.217484,450.894745 165.009872,442.774872 172.772751,434.685730 
	C180.610641,442.875153 188.381836,450.994904 197.033234,460.034302 
	C194.083313,462.704102 190.178040,466.238525 186.022766,470.022949 
M170.468613,443.845734 
	C165.644791,448.663818 160.820969,453.481903 156.588226,457.709625 
	C162.310959,463.477936 167.890259,469.101715 172.919388,474.170898 
	C178.298889,469.013489 183.988983,463.558319 189.721710,458.062256 
	C184.830963,453.156189 179.970581,448.125946 174.873657,443.348083 
	C174.175949,442.694092 172.300079,443.296875 170.468613,443.845734 
z"/>
<path fill="#FFFFFF" opacity="1.000000" stroke="none" 
	d="
M170.719162,443.581726 
	C172.300079,443.296875 174.175949,442.694092 174.873657,443.348083 
	C179.970581,448.125946 184.830963,453.156189 189.721710,458.062256 
	C183.988983,463.558319 178.298889,469.013489 172.919388,474.170898 
	C167.890259,469.101715 162.310959,463.477936 156.588226,457.709625 
	C160.820969,453.481903 165.644791,448.663818 170.719162,443.581726 
z"/>
</svg>