<svg version="1.1" id="Layer_1" xmlns="http://www.w3.org/2000/svg" xmlns:xlink="http://www.w3.org/1999/xlink" x="0px" y="0px"
	 width="100%" viewBox="0 0 336 592" enable-background="new 0 0 336 592" xml:space="preserve">
<path fill="#000000" opacity="1.000000" stroke="none" 
	d="
M187.369568,252.369400 
	C184.412155,255.327591 181.652847,257.986572 179.017334,260.763092 
	C177.108063,262.774536 175.475449,262.715820 173.544418,260.748749 
	C167.013885,254.096359 160.427780,247.497772 153.804062,240.938049 
	C151.784668,238.938171 151.420486,237.335968 153.729935,235.136993 
	C160.239731,228.938629 166.665482,222.643097 172.907181,216.176254 
	C175.582123,213.404861 177.413788,213.862167 179.866562,216.386185 
	C185.899063,222.593918 192.039108,228.705612 198.334351,234.645630 
	C201.079071,237.235504 200.957794,239.113800 198.263748,241.575394 
	C194.579910,244.941422 191.156021,248.591965 187.369568,252.369400 
M180.154724,250.596268 
	C183.417450,247.282547 186.646652,243.934845 189.956711,240.669098 
	C191.673752,238.975037 192.036713,237.420212 190.167511,235.581879 
	C186.259552,231.738403 182.380630,227.863922 178.558380,223.935425 
	C176.676682,222.001389 175.184357,222.543381 173.529434,224.245117 
	C169.823868,228.055527 166.087723,231.840027 162.252914,235.519287 
	C160.390152,237.306519 160.430832,238.758072 162.241699,240.517303 
	C165.815460,243.989212 169.433578,247.434158 172.759872,251.135986 
	C175.275803,253.935959 177.368225,253.905853 180.154724,250.596268 
z"/>
</svg>