<svg version="1.1" id="Layer_1" xmlns="http://www.w3.org/2000/svg" xmlns:xlink="http://www.w3.org/1999/xlink" x="0px" y="0px"
	 width="100%" viewBox="0 0 348 592" enable-background="new 0 0 348 592" xml:space="preserve">
<path fill="#FFFFFF" opacity="1.000000" stroke="none" 
	d="
M141.000000,593.000000 
	C94.012367,593.000000 47.524727,593.000000 1.018546,593.000000 
	C1.018546,395.731506 1.018546,198.462997 1.018546,1.097252 
	C116.904243,1.097252 232.808594,1.097252 348.856476,1.097252 
	C348.856476,198.333252 348.856476,395.666626 348.856476,593.000000 
	C279.796387,593.000000 210.648193,593.000000 141.000000,593.000000 
M163.069092,254.492844 
	C172.884399,260.569092 183.422226,260.030518 191.146515,253.057861 
	C198.250031,246.645523 200.394852,235.453644 195.892899,227.065979 
	C191.458542,218.804245 184.314819,214.850693 175.018616,215.282639 
	C165.840790,215.709091 157.938309,221.542465 155.470825,229.800659 
	C152.645050,239.257950 154.785324,247.518143 163.069092,254.492844 
z"/>
<path fill="#030303" opacity="1.000000" stroke="none" 
	d="
M162.793274,254.260315 
	C154.785324,247.518143 152.645050,239.257950 155.470825,229.800659 
	C157.938309,221.542465 165.840790,215.709091 175.018616,215.282639 
	C184.314819,214.850693 191.458542,218.804245 195.892899,227.065979 
	C200.394852,235.453644 198.250031,246.645523 191.146515,253.057861 
	C183.422226,260.030518 172.884399,260.569092 162.793274,254.260315 
z"/>
</svg>