<svg version="1.1" id="Layer_1" xmlns="http://www.w3.org/2000/svg" xmlns:xlink="http://www.w3.org/1999/xlink" x="0px" y="0px"
	 width="100%" viewBox="0 0 348 592" enable-background="new 0 0 348 592" xml:space="preserve">
<path fill="#FFFFFF" opacity="1.000000" stroke="none" 
	d="
M345.267517,593.000000 
	C230.242233,593.000000 115.745789,593.000000 1.124673,593.000000 
	C1.124673,395.755981 1.124673,198.511856 1.124673,1.133865 
	C116.907021,1.133865 232.814240,1.133865 348.860718,1.133865 
	C348.860718,198.234268 348.860718,395.468658 348.860718,593.000000 
	C347.937164,593.000000 346.866760,593.000000 345.267517,593.000000 
M186.798462,469.010681 
	C189.964722,468.970062 193.158386,469.157806 196.284515,468.782715 
	C197.640747,468.619995 199.494370,467.596069 200.028992,466.452362 
	C202.433258,461.309052 203.721878,455.663177 200.122742,450.766724 
	C196.329590,445.606232 191.880554,440.835388 187.170395,436.487701 
	C185.330917,434.789703 182.016281,434.073883 179.344498,434.002869 
	C169.123367,433.731079 161.788116,441.865021 160.910965,455.051331 
	C163.683640,453.742218 166.095749,452.918518 168.160248,451.564667 
	C172.827728,448.503876 175.533035,448.635406 180.297089,452.876740 
	C178.793137,453.466461 177.489899,454.200226 176.094391,454.490356 
	C161.413513,457.542999 155.278061,466.988281 153.467514,481.483490 
	C151.472519,497.455353 159.211212,510.899017 162.423355,525.499695 
	C162.462387,525.677124 162.975937,525.750244 163.590698,526.006592 
	C166.209488,522.293091 168.017197,518.632385 166.421936,513.683228 
	C163.926254,505.940643 161.888275,498.048340 159.741562,490.196167 
	C157.530426,482.108246 159.251175,476.864227 166.732162,473.786377 
	C172.747772,471.311432 179.466873,470.546356 186.798462,469.010681 
z"/>
<path fill="#050505" opacity="1.000000" stroke="none" 
	d="
M186.336136,469.016663 
	C179.466873,470.546356 172.747772,471.311432 166.732162,473.786377 
	C159.251175,476.864227 157.530426,482.108246 159.741562,490.196167 
	C161.888275,498.048340 163.926254,505.940643 166.421936,513.683228 
	C168.017197,518.632385 166.209488,522.293091 163.590698,526.006592 
	C162.975937,525.750244 162.462387,525.677124 162.423355,525.499695 
	C159.211212,510.899017 151.472519,497.455353 153.467514,481.483490 
	C155.278061,466.988281 161.413513,457.542999 176.094391,454.490356 
	C177.489899,454.200226 178.793137,453.466461 180.297089,452.876740 
	C175.533035,448.635406 172.827728,448.503876 168.160248,451.564667 
	C166.095749,452.918518 163.683640,453.742218 160.910965,455.051331 
	C161.788116,441.865021 169.123367,433.731079 179.344498,434.002869 
	C182.016281,434.073883 185.330917,434.789703 187.170395,436.487701 
	C191.880554,440.835388 196.329590,445.606232 200.122742,450.766724 
	C203.721878,455.663177 202.433258,461.309052 200.028992,466.452362 
	C199.494370,467.596069 197.640747,468.619995 196.284515,468.782715 
	C193.158386,469.157806 189.964722,468.970062 186.336136,469.016663 
z"/>
</svg>