<svg version="1.1" id="Layer_1" xmlns="http://www.w3.org/2000/svg" xmlns:xlink="http://www.w3.org/1999/xlink" x="0px" y="0px"
	 width="100%" viewBox="0 0 336 592" enable-background="new 0 0 336 592" xml:space="preserve">
<path fill="#000000" opacity="1.000000" stroke="none" 
	d="
M162.456985,265.390503 
	C177.454453,268.495239 189.334793,276.482697 199.384506,287.274689 
	C215.449127,304.525848 224.037949,325.173859 224.667648,348.627777 
	C225.023972,361.900208 221.240875,373.453003 207.764954,380.493683 
	C190.244980,389.647278 171.783920,394.194489 152.310654,395.172821 
	C144.190643,395.580780 136.021515,395.687531 127.877228,394.549194 
	C124.003265,394.007751 122.217003,392.679718 122.599739,388.532166 
	C123.348244,380.421143 124.435158,372.366455 125.796593,364.341095 
	C126.344200,361.113068 128.404877,360.452087 131.267853,360.852081 
	C155.550644,364.244659 179.053192,360.295685 201.968948,352.577271 
	C214.815369,348.250397 216.732864,347.572968 208.822037,333.364410 
	C200.574448,318.551025 186.497940,309.943451 171.386917,303.103912 
	C166.987656,301.112671 162.492249,299.370392 157.755310,298.329407 
	C154.890076,297.699768 153.165527,295.915497 153.748123,292.995239 
	C155.626144,283.581970 157.150940,274.035034 162.456985,265.390503 
z"/>
<path fill="#000000" opacity="1.000000" stroke="none" 
	d="
M191.652557,242.434235 
	C183.749756,234.811188 178.001190,226.106522 173.064865,215.460098 
	C170.416687,222.563309 167.549072,228.602707 163.616150,234.053024 
	C160.088470,238.941772 156.354309,243.673279 150.990692,246.637680 
	C145.659714,249.584030 144.070099,248.345688 143.604202,242.436417 
	C143.106781,236.127090 144.595764,231.970413 150.590012,228.277359 
	C162.047623,221.218292 166.748688,209.295212 169.614090,196.643326 
	C169.723892,196.158463 169.642624,195.608917 169.831940,195.167343 
	C170.505707,193.595932 170.036499,190.937286 172.407471,190.870071 
	C174.864090,190.800446 174.660583,193.486374 175.072037,195.064590 
	C178.743362,209.146545 186.805679,219.854095 199.254532,227.355026 
	C203.922485,230.167664 206.351883,241.181702 203.556335,245.841705 
	C202.412888,247.747757 200.759537,247.421692 199.176971,246.973328 
	C196.405670,246.188171 194.121094,244.483505 191.652557,242.434235 
z"/>
</svg>