<svg version="1.1" id="Layer_1" xmlns="http://www.w3.org/2000/svg" xmlns:xlink="http://www.w3.org/1999/xlink" x="0px" y="0px"
	 width="100%" viewBox="0 0 336 592" enable-background="new 0 0 336 592" xml:space="preserve">
<path fill="#000000" opacity="1.000000" stroke="none" 
	d="
M212.920776,364.413177 
	C217.847580,400.684875 205.444763,430.929443 182.626862,457.655670 
	C164.689133,478.665802 141.555984,481.635101 116.250214,475.787018 
	C109.279388,474.176056 102.701866,471.204773 96.370834,467.811218 
	C94.736282,466.935089 92.912140,466.001068 93.733856,463.666046 
	C94.522263,461.425690 96.566986,461.601929 98.388214,461.818665 
	C103.005409,462.368073 107.597885,463.133545 112.219353,463.637329 
	C126.284058,465.170563 138.895889,460.866241 150.568420,453.507568 
	C168.231567,442.372253 183.317276,428.443085 195.161682,411.151031 
	C196.476151,409.231995 197.590149,407.174164 198.770447,405.164978 
	C203.659012,396.843323 204.429520,388.563141 199.816116,379.631409 
	C195.162827,370.622437 191.433609,361.140747 187.084656,351.968079 
	C184.827805,347.207977 184.958038,342.735809 187.278702,338.112732 
	C190.454132,331.786835 192.522552,324.860321 197.737823,318.579224 
	C207.117889,332.772186 210.744720,348.105530 212.920776,364.413177 
z"/>
<path fill="#000000" opacity="1.000000" stroke="none" 
	d="
M194.677979,272.952454 
	C191.377411,281.428009 186.742340,288.664276 180.772690,295.058716 
	C178.943054,297.018585 176.914658,298.734558 174.542587,300.000519 
	C168.846191,303.040680 167.089111,301.775879 166.725845,295.386322 
	C166.386627,289.420074 167.829590,285.596069 173.497360,282.094238 
	C184.898727,275.049988 189.853638,263.303131 192.744965,250.605026 
	C193.253326,248.372437 192.833389,245.534729 195.518738,244.123367 
	C197.840012,245.127197 197.913574,247.240631 198.416733,249.112106 
	C202.082901,262.748749 209.785156,273.359253 221.936630,280.702423 
	C223.990250,281.943420 226.952209,282.640747 227.158371,285.587341 
	C227.482117,290.214874 228.122833,294.995850 226.738754,299.462494 
	C225.822281,302.420227 223.022690,300.942352 221.176300,300.145782 
	C214.815613,297.401672 210.745377,292.048309 206.646072,286.797241 
	C202.654190,281.683746 199.607635,275.967163 196.772659,270.278290 
	C195.075699,270.572784 195.377182,271.905060 194.677979,272.952454 
z"/>
</svg>