<svg version="1.1" id="Layer_1" xmlns="http://www.w3.org/2000/svg" xmlns:xlink="http://www.w3.org/1999/xlink" x="0px" y="0px"
	 width="100%" viewBox="0 0 336 592" enable-background="new 0 0 336 592" xml:space="preserve">
<path fill="#000000" opacity="1.000000" stroke="none" 
	d="
M158.339722,260.647827 
	C174.733841,270.427124 191.048141,268.414856 201.948578,255.572678 
	C205.434021,251.466324 207.118973,246.648087 207.582306,241.441681 
	C207.845871,238.480026 209.192169,237.183746 211.939194,237.187302 
	C214.875031,237.191116 215.237045,239.207687 215.371338,241.618164 
	C215.880768,250.761169 216.200974,259.881958 214.690613,268.977600 
	C211.462906,288.415405 196.826965,298.893036 176.926025,298.650116 
	C175.311234,298.630402 173.632980,298.000702 171.914978,299.292328 
	C174.859024,309.414154 178.061005,319.524628 180.724777,329.774933 
	C185.702530,348.929504 190.679016,368.129242 189.154694,388.226227 
	C188.400833,398.164948 188.363632,408.169647 186.344391,417.999847 
	C185.849823,420.407471 185.041382,422.163513 182.319916,422.147430 
	C179.521027,422.130920 178.827911,420.337158 178.596054,417.861023 
	C177.124039,402.141418 175.591492,386.453888 171.890808,371.020325 
	C163.102066,334.367218 147.884827,300.855713 123.917389,271.595520 
	C120.600159,267.545746 119.415459,264.028992 121.514084,259.010284 
	C124.009331,253.043106 125.584526,246.698410 127.815254,240.611420 
	C130.093872,234.393753 131.509277,234.209625 135.618942,239.291153 
	C142.141495,247.356216 149.141891,254.904099 158.339722,260.647827 
z"/>
</svg>