<svg version="1.1" id="Layer_1" xmlns="http://www.w3.org/2000/svg" xmlns:xlink="http://www.w3.org/1999/xlink" x="0px" y="0px"
	 width="100%" viewBox="0 0 336 592" enable-background="new 0 0 336 592" xml:space="preserve">
<path fill="#000000" opacity="1.000000" stroke="none" 
	d="
M228.454895,336.766602 
	C231.570312,356.977478 227.033951,374.736511 213.270691,389.363617 
	C202.526764,400.781860 188.888962,401.776703 175.706360,393.264313 
	C173.489746,391.832977 171.405502,390.196686 169.098557,388.539001 
	C163.043854,392.814789 157.040024,397.114166 149.590118,398.245453 
	C133.886398,400.630157 122.665398,393.253632 117.537254,377.845917 
	C113.187630,364.777313 114.561592,351.770538 118.060608,339.030304 
	C127.632980,304.176300 145.790833,274.383118 172.374313,249.819626 
	C178.052765,244.572678 178.237305,244.575668 183.456284,249.954544 
	C206.036194,273.226318 220.638138,300.832947 227.946350,332.358307 
	C228.244598,333.644867 228.256821,334.997742 228.454895,336.766602 
M165.573044,295.072021 
	C156.668594,303.432648 148.594925,312.526001 142.139069,322.912262 
	C137.218719,330.828217 132.294693,338.839508 132.035980,348.628876 
	C131.803726,357.417938 136.386353,363.589325 143.418472,367.862244 
	C149.792297,371.735168 155.994354,369.252686 161.714172,365.662323 
	C164.100403,364.164520 166.384003,362.426147 168.443344,360.506531 
	C170.463974,358.622955 172.009354,358.703247 174.003036,360.514191 
	C176.957718,363.198029 179.983124,365.845764 183.226425,368.161560 
	C190.265762,373.187805 197.562820,372.920746 204.441483,367.681366 
	C216.427063,358.552155 218.995987,347.263702 212.041397,333.774902 
	C204.395630,318.945496 194.051056,306.142456 181.901978,294.827667 
	C173.416214,286.924591 175.024124,286.796967 165.573044,295.072021 
z"/>
</svg>