<svg version="1.1" id="Layer_1" xmlns="http://www.w3.org/2000/svg" xmlns:xlink="http://www.w3.org/1999/xlink" x="0px" y="0px"
	 width="100%" viewBox="0 0 336 592" enable-background="new 0 0 336 592" xml:space="preserve">
<path fill="#000000" opacity="1.000000" stroke="none" 
	d="
M134.452057,277.610413 
	C138.605698,263.489563 145.330002,251.480011 156.709503,242.395172 
	C165.995911,234.981354 176.003693,232.264023 187.385849,237.198959 
	C191.659485,239.051865 196.116577,240.505707 200.012985,243.142502 
	C201.948822,244.452530 204.301254,245.829941 203.436935,248.594040 
	C202.669876,251.047165 199.996170,250.937927 197.925186,251.184113 
	C195.454178,251.477844 192.898148,251.135376 190.448364,251.515640 
	C172.614838,254.283813 159.436325,264.503754 148.523956,278.157623 
	C146.547058,280.631195 145.851776,283.793396 144.990417,286.876617 
	C143.696243,291.509033 145.258392,295.057007 148.949783,297.205139 
	C164.201523,306.080475 179.934280,311.545074 196.895111,301.475525 
	C204.051193,297.226990 211.048080,292.710938 218.144821,288.361359 
	C219.614670,287.460510 221.094330,285.636658 222.997375,287.332031 
	C224.784302,288.923981 223.497604,290.769257 222.871872,292.405640 
	C220.612946,298.313232 218.005432,304.099945 216.007324,310.091644 
	C213.545975,317.472534 208.085693,322.359772 202.495193,327.051971 
	C174.908890,350.205475 155.246964,379.198425 139.830917,411.371948 
	C138.824402,413.472534 137.872055,415.618256 136.651718,417.592896 
	C134.670853,420.798279 129.081177,422.605621 125.601517,421.454651 
	C123.724876,420.833893 123.754974,419.352600 123.668526,417.841309 
	C123.354866,412.357361 125.164825,407.312897 127.122185,402.372284 
	C136.563309,378.541840 149.753342,356.787231 164.276657,335.783813 
	C165.127899,334.552765 166.001251,333.336273 166.819763,332.083923 
	C166.980499,331.837952 166.935593,331.457611 167.068588,330.609894 
	C161.028473,328.721527 154.609421,327.915771 148.633926,325.465424 
	C132.769150,318.959869 127.977150,310.803223 130.568130,293.991058 
	C131.406311,288.552429 132.665421,283.227997 134.452057,277.610413 
z"/>
</svg>