<svg version="1.1" id="Layer_1" xmlns="http://www.w3.org/2000/svg" xmlns:xlink="http://www.w3.org/1999/xlink" x="0px" y="0px"
	 width="100%" viewBox="0 0 336 592" enable-background="new 0 0 336 592" xml:space="preserve">
<path fill="#000000" opacity="1.000000" stroke="none" 
	d="
M139.677368,268.403900 
	C156.978912,299.168121 167.409500,332.124359 176.232895,365.683258 
	C176.862289,368.077087 177.498444,370.469147 178.376633,373.788879 
	C183.310669,348.955353 189.264236,325.359375 197.607056,302.426178 
	C203.995087,284.866364 211.199738,267.670990 221.390594,251.904556 
	C224.373734,247.289261 227.469681,242.652267 232.562378,240.026260 
	C236.898239,237.790527 239.357758,239.474945 238.936615,244.371063 
	C238.052063,254.654892 237.171600,264.934845 237.314178,275.272156 
	C237.362320,278.762970 236.485870,282.029205 233.582794,284.154510 
	C221.259842,293.175964 214.316330,306.081421 208.249084,319.491302 
	C195.397736,347.895355 187.993240,377.866608 183.363358,408.591431 
	C183.091125,410.398041 182.622055,412.183197 182.466187,413.997345 
	C182.212677,416.947693 180.811325,418.686676 177.783386,418.743866 
	C174.623993,418.803619 173.538574,416.611694 172.984299,413.976410 
	C171.205444,405.518799 169.693375,396.995392 167.614609,388.612366 
	C160.313446,359.169067 150.359848,330.840820 131.676712,306.365753 
	C126.187836,299.175262 119.989182,292.657166 112.187477,287.909149 
	C109.761459,286.432709 108.700043,284.474670 108.784653,281.739319 
	C109.145012,270.089233 109.338875,258.430847 109.927528,246.792389 
	C110.195038,241.503311 112.293472,240.552567 117.225883,243.013275 
	C124.968208,246.875793 129.985001,253.563858 134.751526,260.440765 
	C136.457260,262.901733 137.909363,265.538483 139.677368,268.403900 
z"/>
</svg>