<svg version="1.1" id="Layer_1" xmlns="http://www.w3.org/2000/svg" xmlns:xlink="http://www.w3.org/1999/xlink" x="0px" y="0px"
	 width="100%" viewBox="0 0 336 592" enable-background="new 0 0 336 592" xml:space="preserve">
<path fill="#000000" opacity="1.000000" stroke="none" 
	d="
M186.269196,287.828339 
	C193.342133,309.685303 201.865967,330.431885 215.461594,348.698822 
	C221.354874,356.616974 228.092117,363.797852 236.484924,369.153107 
	C240.214478,371.532837 241.756866,374.962616 241.092926,378.916962 
	C239.234207,389.987061 239.352615,401.126160 239.192902,412.269348 
	C239.169205,413.923523 239.150467,415.640198 237.078857,417.236969 
	C228.509430,412.815399 220.596069,407.257111 215.176498,398.740967 
	C202.848495,379.369202 194.496918,358.147064 186.579971,336.728851 
	C180.531143,320.364624 175.559235,303.666748 170.823837,285.334259 
	C167.786835,300.488861 164.992508,314.226654 161.303253,327.747406 
	C154.268219,353.530090 145.236420,378.511261 131.555328,401.633728 
	C128.030624,407.590851 123.720428,412.807068 118.375229,417.160980 
	C116.698051,418.527130 114.752502,419.979126 112.475204,418.936493 
	C110.222702,417.905212 110.803978,415.546051 110.746948,413.601624 
	C110.434669,402.954224 112.484329,392.338440 111.142242,381.667633 
	C110.904846,379.780121 111.666916,378.088531 113.352211,376.921997 
	C126.032150,368.145020 133.460373,355.348022 139.778519,341.829559 
	C151.845200,316.011169 158.430084,288.541809 163.671875,260.694763 
	C164.654633,255.473877 165.712814,250.263290 166.516846,245.014359 
	C166.908524,242.457382 167.613144,240.386917 170.511154,240.145691 
	C173.948746,239.859543 174.558456,242.570282 175.067688,245.007736 
	C177.925659,258.687164 181.437408,272.194916 185.492874,285.564484 
	C185.685959,286.201050 185.943878,286.817963 186.269196,287.828339 
z"/>
</svg>