<svg version="1.1" id="Layer_1" xmlns="http://www.w3.org/2000/svg" xmlns:xlink="http://www.w3.org/1999/xlink" x="0px" y="0px"
	 width="100%" viewBox="0 0 336 592" enable-background="new 0 0 336 592" xml:space="preserve">
<path fill="#000000" opacity="1.000000" stroke="none" 
	d="
M57.240280,453.751221 
	C66.636818,463.188843 78.180969,467.441254 90.650009,468.574615 
	C112.629761,470.572418 134.180328,467.640656 154.865524,459.907745 
	C172.368896,453.364288 181.272598,440.325775 182.834778,421.635895 
	C184.204346,405.250702 182.344818,389.779724 173.663177,375.500793 
	C172.915878,374.271667 172.215546,372.580811 172.438828,371.264832 
	C173.934387,362.450714 178.149094,354.913422 183.520950,347.394226 
	C187.632980,351.198395 189.695343,355.355133 190.992661,359.760712 
	C192.045731,363.336792 194.175888,363.948212 197.354599,363.635986 
	C215.181229,361.885162 235.096848,343.754608 238.573120,326.035309 
	C238.733078,325.220032 238.650742,324.327972 238.944031,323.573853 
	C239.688812,321.658691 239.721313,318.886444 242.660446,318.993073 
	C245.206345,319.085449 245.711411,321.556976 246.056229,323.377502 
	C248.727966,337.483398 259.221741,342.468811 271.477844,345.396271 
	C272.877411,345.730591 274.524963,345.689667 275.903931,345.291168 
	C277.952515,344.699158 280.365326,343.968292 281.037781,341.726929 
	C281.720673,339.450836 279.613678,337.931885 278.052490,336.999969 
	C271.949860,333.357117 271.748291,328.343384 273.927704,322.419128 
	C275.534912,318.050323 276.808228,313.559448 278.368744,309.172241 
	C279.019562,307.342468 279.586182,305.062897 282.100098,305.036102 
	C284.311218,305.012482 285.738953,306.653259 286.753143,308.400238 
	C290.728607,315.248230 293.927734,322.416321 293.243317,330.570221 
	C292.159851,343.478149 289.054504,355.647552 281.516693,366.633026 
	C273.878418,377.764923 259.055115,376.994080 250.700485,371.934845 
	C246.962387,369.671173 243.751862,366.796936 240.732834,363.664276 
	C239.375549,362.255890 238.319244,360.458954 235.985428,359.671021 
	C231.602722,364.531128 228.304977,370.340973 223.801926,375.223999 
	C217.101517,382.489746 209.872391,388.678558 199.637680,389.951538 
	C195.946655,390.410614 196.305603,392.943359 196.280212,395.454132 
	C196.124176,410.885895 193.478348,425.894653 188.397339,440.453156 
	C180.081894,464.279358 163.908737,480.591309 140.370270,489.333221 
	C119.290413,497.162079 97.428238,500.062958 75.166016,496.239441 
	C54.153824,492.630585 37.373764,472.864197 35.588039,451.547913 
	C33.588917,427.684296 43.154705,407.773315 56.257874,388.994202 
	C57.508972,387.201172 59.174324,384.702667 61.928249,386.619141 
	C64.400230,388.339386 63.382175,390.824371 62.252228,392.897858 
	C57.069344,402.408539 51.460461,411.809082 49.863277,422.714233 
	C48.242535,433.780182 47.983036,444.778168 57.240280,453.751221 
z"/>
<path fill="#000000" opacity="1.000000" stroke="none" 
	d="
M209.851349,286.466248 
	C204.938171,282.960419 200.352295,279.644775 195.799515,276.284302 
	C192.971603,274.196991 192.138580,271.746307 194.315231,268.586304 
	C197.619812,263.788788 200.871964,258.951080 203.998444,254.036316 
	C206.288834,250.435883 208.892395,250.617310 211.900833,252.943268 
	C216.756256,256.697205 221.615356,260.446381 227.008957,264.611542 
	C230.337540,260.117950 233.570618,255.747696 236.809738,251.381958 
	C240.444687,246.482758 241.397308,246.225586 246.491623,249.814667 
	C250.706528,252.784210 254.694962,256.074707 258.792328,259.211761 
	C261.349640,261.169678 261.644653,263.420532 260.007111,266.183075 
	C256.947815,271.344055 253.812042,276.443390 250.232224,281.269775 
	C248.151794,284.074677 246.014359,284.644531 243.114655,282.373444 
	C239.184509,279.295288 234.928406,276.616516 231.130386,273.391632 
	C227.885742,270.636627 225.708282,270.343201 223.355103,274.414398 
	C221.281769,278.001404 218.645370,281.274597 216.131699,284.590973 
	C214.670609,286.518646 212.909973,288.106873 209.851349,286.466248 
z"/>
<path fill="#000000" opacity="1.000000" stroke="none" 
	d="
M237.260941,410.062378 
	C239.404037,407.273773 241.668335,407.277405 244.022156,408.979645 
	C248.726028,412.381287 253.385880,415.844421 258.035919,419.319611 
	C260.438141,421.114899 260.687164,423.331787 259.201263,425.879547 
	C256.021820,431.331146 252.783768,436.734528 248.772507,441.641968 
	C246.856964,443.985474 244.810471,444.438324 242.316971,442.653442 
	C237.596634,439.274506 232.838943,435.946899 228.153717,432.520111 
	C225.406647,430.510956 225.100571,427.993378 226.914642,425.127411 
	C230.109177,420.080475 233.129242,414.916779 237.260941,410.062378 
z"/>
<path fill="#000000" opacity="1.000000" stroke="none" 
	d="
M219.358704,243.837067 
	C215.074341,240.605255 211.078690,237.608612 207.123413,234.559616 
	C204.609894,232.622009 204.133087,230.285522 205.973175,227.593124 
	C209.448486,222.508057 212.907501,217.411774 216.397141,212.336563 
	C218.117233,209.834900 220.220871,209.437286 222.804077,211.138489 
	C227.820389,214.442001 232.590652,218.049957 237.111328,222.010696 
	C239.242752,223.878113 239.566269,225.841019 238.119110,228.167694 
	C235.130356,232.972885 232.132187,237.772385 229.108353,242.555542 
	C226.541992,246.615082 223.418976,247.385147 219.358704,243.837067 
z"/>
</svg>