<svg version="1.1" id="Layer_1" xmlns="http://www.w3.org/2000/svg" xmlns:xlink="http://www.w3.org/1999/xlink" x="0px" y="0px"
	 width="100%" viewBox="0 0 336 592" enable-background="new 0 0 336 592" xml:space="preserve">
<path fill="#000000" opacity="1.000000" stroke="none" 
	d="
M39.808083,461.238708 
	C55.959595,469.970001 72.956078,470.235687 90.221123,468.365143 
	C101.312813,467.163483 112.259712,465.203430 122.929001,461.813934 
	C144.276672,455.032074 154.168884,442.149872 155.897995,419.934235 
	C157.106247,404.410522 155.208618,389.748474 147.013931,376.223724 
	C146.176514,374.841614 145.232330,373.006958 145.473206,371.573090 
	C146.973846,362.639862 151.009323,354.865265 156.516663,347.270142 
	C160.480423,350.987793 162.403839,354.831970 163.692581,358.930084 
	C164.780853,362.390808 166.775696,364.275116 170.400101,364.444519 
	C178.217560,364.809906 186.037460,365.138275 193.849335,365.600616 
	C196.749115,365.772278 197.931000,363.827942 199.224213,361.860779 
	C212.424088,341.781921 228.495590,324.269226 247.290512,309.376984 
	C260.834534,298.645355 275.513153,289.928467 293.043823,287.119690 
	C317.095306,283.266205 328.529816,298.039581 330.229523,317.641388 
	C332.124969,339.500366 319.245392,353.061157 302.329926,363.613708 
	C282.676636,375.874176 260.689819,381.868805 238.201630,386.282623 
	C225.448380,388.785736 212.545074,390.125519 199.596863,390.974213 
	C196.443787,391.180878 194.839859,392.467621 193.770996,395.321045 
	C190.691605,403.541809 188.173462,411.945251 185.733414,420.618439 
	C181.263855,419.357910 180.472519,415.820221 179.529800,412.579163 
	C178.438919,408.828735 180.387390,405.440308 181.239304,401.919312 
	C182.048126,398.576385 183.787369,395.442627 183.856476,391.479279 
	C181.786392,391.373901 179.986984,391.305664 178.190933,391.186951 
	C169.400360,390.606018 169.693085,390.618469 169.158096,399.693390 
	C168.203751,415.881500 165.461060,431.812408 159.185608,446.835083 
	C151.688416,464.782471 138.865707,478.028656 121.215584,486.189758 
	C97.940872,496.951538 73.309959,500.296661 48.161102,496.132416 
	C26.538589,492.552094 10.393548,472.970581 8.597859,450.984802 
	C6.664345,427.311523 16.290215,407.571869 29.320145,388.957062 
	C30.614832,387.107483 32.430218,384.779816 35.042652,386.703156 
	C37.411587,388.447174 36.226196,390.978546 35.173752,393.063446 
	C32.474369,398.410950 29.497889,403.602112 27.026325,409.084747 
	C22.797337,418.465881 21.417850,428.218872 22.392117,438.334625 
	C23.181358,446.529327 28.085426,452.350250 34.178429,457.319153 
	C35.851746,458.683716 37.714703,459.815735 39.808083,461.238708 
M312.731934,332.576569 
	C312.326355,329.496155 310.185944,327.621490 307.967010,325.843567 
	C299.662262,319.189514 290.078827,317.373962 279.786987,318.741302 
	C255.178345,322.010712 235.643997,334.485687 219.429810,352.649689 
	C216.458328,355.978516 212.871643,359.161316 211.825439,363.911621 
	C213.855148,365.005371 215.708878,364.716400 217.484314,364.493195 
	C226.371796,363.375824 235.294739,362.571472 244.089035,360.707214 
	C264.958282,356.283234 285.407349,350.623413 304.405182,340.644226 
	C307.695343,338.915955 311.526917,337.528046 312.731934,332.576569 
z"/>
<path fill="#000000" opacity="1.000000" stroke="none" 
	d="
M211.832352,287.924561 
	C204.781677,285.193573 199.324203,280.572784 193.774185,276.102081 
	C191.846222,274.549072 191.421997,272.649780 192.677979,270.363953 
	C195.887573,264.522705 199.600189,259.028381 203.756195,253.824249 
	C205.492798,251.649704 207.448181,251.276352 209.848679,252.784073 
	C214.924591,255.972183 219.726288,259.522308 224.276291,263.419067 
	C225.922134,264.828644 227.079834,266.655334 225.978546,268.671509 
	C222.181030,275.623901 218.893829,282.983765 211.832352,287.924561 
z"/>
<path fill="#000000" opacity="1.000000" stroke="none" 
	d="
M243.339325,429.627563 
	C251.836700,436.332336 251.889099,436.365356 246.213028,445.376312 
	C244.005524,448.880798 241.560074,452.241211 239.114471,455.587952 
	C237.264877,458.119019 234.998398,458.696228 232.269928,456.728088 
	C227.831482,453.526459 223.327148,450.416260 218.857925,447.257172 
	C215.800339,445.095856 215.055084,442.598755 217.171066,439.186279 
	C220.323090,434.102997 223.550522,429.095306 227.244171,424.379425 
	C229.249985,421.818481 231.347733,421.269165 234.051270,423.177063 
	C237.033295,425.281433 240.054306,427.330566 243.339325,429.627563 
z"/>
</svg>