<svg version="1.1" id="Layer_1" xmlns="http://www.w3.org/2000/svg" xmlns:xlink="http://www.w3.org/1999/xlink" x="0px" y="0px"
	 width="100%" viewBox="0 0 336 592" enable-background="new 0 0 336 592" xml:space="preserve">
<path fill="#000000" opacity="1.000000" stroke="none" 
	d="
M234.765396,518.671143 
	C246.820877,517.517029 258.400238,516.335754 269.988739,515.252319 
	C273.464417,514.927429 276.964233,514.834717 280.455719,514.716370 
	C282.182892,514.657898 283.925934,514.896179 284.350281,517.000671 
	C284.787109,519.167175 283.081055,519.894165 281.553375,520.547363 
	C277.421967,522.313904 273.303741,524.129028 269.092743,525.688354 
	C252.234512,531.931213 235.132004,537.455933 218.079529,543.138428 
	C207.232910,546.752869 196.302872,545.790283 185.436554,545.104065 
	C166.297256,543.895264 147.435013,540.833374 129.487030,533.517700 
	C105.453674,523.721558 87.850288,507.710297 81.346756,481.904877 
	C76.055183,460.908447 78.090332,439.995880 84.662697,419.445068 
	C92.954903,393.516541 106.117409,370.427124 124.969757,349.960052 
	C117.960327,347.867737 111.152588,345.986237 105.087288,342.331635 
	C98.101463,338.122437 91.915688,333.295227 90.137146,324.588928 
	C89.301308,320.497345 89.753914,316.542755 90.946083,312.766022 
	C96.143570,296.300476 103.013092,280.604584 114.306145,267.300354 
	C129.178421,249.779465 150.071014,251.720398 166.416595,267.354858 
	C167.500870,268.391998 168.583618,269.680786 167.861191,271.314697 
	C166.956207,273.361511 164.933594,273.239685 163.110519,273.281799 
	C149.165176,273.604004 136.233521,277.542328 124.068741,284.208099 
	C116.339119,288.443604 109.574280,293.697601 105.610641,301.877625 
	C102.873001,307.527557 103.528816,310.734039 108.474510,314.484955 
	C117.684395,321.469940 128.102310,325.685608 139.485229,327.440186 
	C144.906693,328.275879 150.072128,327.183807 154.904556,324.498718 
	C171.503922,315.275360 188.109146,306.062195 204.755676,296.924469 
	C206.366714,296.040161 208.193741,293.892395 210.103806,295.717621 
	C212.328369,297.843414 209.654648,299.573395 208.900208,301.417145 
	C208.652359,302.022888 208.155212,302.521393 207.832031,303.102264 
	C199.319427,318.402954 187.944595,330.114075 171.830841,338.303040 
	C151.614990,348.576691 133.412186,362.341309 117.853416,379.112244 
	C102.302757,395.874359 92.434235,415.150879 92.269104,438.658417 
	C92.077332,465.956085 104.646881,485.681366 127.723007,499.212708 
	C147.373795,510.735504 169.085968,515.362671 191.436554,517.715759 
	C205.698257,519.217346 219.978073,519.659485 234.765396,518.671143 
z"/>
<path fill="#000000" opacity="1.000000" stroke="none" 
	d="
M136.523254,203.385803 
	C140.239563,206.231567 143.664948,208.856064 147.092300,211.477982 
	C149.478821,213.303619 149.741928,215.462341 148.286423,218.035797 
	C145.256546,223.392868 142.006744,228.595413 138.146973,233.405029 
	C136.221588,235.804199 134.175934,236.741486 131.347580,234.695770 
	C127.044525,231.583435 122.652992,228.592178 118.269310,225.592941 
	C114.587891,223.074173 113.797249,220.156921 116.519608,216.353592 
	C119.127106,212.710754 121.358109,208.795868 124.007011,205.185776 
	C128.962753,198.431747 129.370239,198.433395 136.523254,203.385803 
z"/>
<path fill="#000000" opacity="1.000000" stroke="none" 
	d="
M183.248230,397.434448 
	C180.159637,403.715118 176.702499,409.356293 172.412109,414.476257 
	C170.279083,417.021759 168.120880,417.830566 165.179535,415.635986 
	C160.660110,412.263947 155.980057,409.108124 151.416733,405.793671 
	C148.880798,403.951782 148.342392,401.636230 150.056137,398.870605 
	C153.379898,393.506622 156.690536,388.137238 160.673706,383.220703 
	C162.162354,381.383240 163.850861,380.163666 166.223221,381.622711 
	C171.887375,385.106201 177.299164,388.939056 182.201889,393.455536 
	C183.284256,394.452637 183.553955,395.689545 183.248230,397.434448 
z"/>
</svg>