<svg version="1.1" id="Layer_1" xmlns="http://www.w3.org/2000/svg" xmlns:xlink="http://www.w3.org/1999/xlink" x="0px" y="0px"
	 width="100%" viewBox="0 0 336 592" enable-background="new 0 0 336 592" xml:space="preserve">
<path fill="#000000" opacity="1.000000" stroke="none" 
	d="
M131.222198,335.293030 
	C137.310501,325.407928 144.246506,316.739441 153.251587,309.864990 
	C158.932327,305.528351 165.112396,302.553223 172.449646,302.461060 
	C184.392227,302.311035 194.051590,315.050018 190.646072,326.586884 
	C189.177444,331.562073 186.872284,336.177734 184.359299,340.699615 
	C182.551117,343.953247 180.597580,344.827820 178.040405,341.404907 
	C177.046936,340.075073 175.897888,338.855652 174.764603,337.637177 
	C169.257248,331.715790 162.822525,328.185699 154.737762,331.711273 
	C146.147171,335.457458 140.402557,342.077881 138.721024,351.414062 
	C138.016449,355.326019 140.911774,358.292542 144.039963,360.423828 
	C153.890228,367.135162 164.950195,370.714355 176.708267,371.629944 
	C189.325058,372.612366 201.618988,370.899017 213.069672,364.954865 
	C214.617432,364.151398 216.535110,362.889465 218.161804,364.456268 
	C219.887573,366.118561 218.082306,367.811554 217.580154,369.468475 
	C214.781967,378.701172 208.506485,384.244690 199.825363,388.319977 
	C176.320465,399.354156 153.115326,411.026489 129.772934,422.408051 
	C127.888405,423.326904 125.796722,425.209381 123.776924,423.775146 
	C121.609261,422.235931 122.612015,419.434326 122.828728,417.232147 
	C123.290611,412.538452 126.177628,409.413452 130.168945,407.173859 
	C138.712494,402.380005 147.244904,397.566315 156.713150,392.236481 
	C152.697189,391.056458 149.734879,390.193756 146.777267,389.315155 
	C142.457809,388.031982 138.257111,386.444000 134.301300,384.268982 
	C121.922020,377.462494 118.007507,367.524292 122.255005,354.038727 
	C124.323227,347.472229 127.516655,341.466156 131.222198,335.293030 
z"/>
<path fill="#000000" opacity="1.000000" stroke="none" 
	d="
M146.134064,505.474670 
	C142.632126,506.447815 142.990509,503.936493 142.984665,502.334595 
	C142.924454,485.852905 142.968338,469.370758 143.011627,452.888824 
	C143.015610,451.371796 143.241852,449.792145 144.641235,448.886353 
	C149.342621,445.843109 153.964005,442.643280 159.017151,440.339050 
	C160.945953,442.134094 160.302246,444.074951 160.308655,445.787598 
	C160.365341,460.937958 160.186722,476.091187 160.439606,491.237549 
	C160.510025,495.454590 159.254257,498.118713 155.505524,499.975800 
	C152.383484,501.522491 149.477676,503.505676 146.134064,505.474670 
z"/>
<path fill="#000000" opacity="1.000000" stroke="none" 
	d="
M180.800720,458.118469 
	C179.741241,451.709167 182.121857,447.825592 187.639999,445.497162 
	C190.938995,444.105164 193.527496,441.248718 197.031830,440.353516 
	C198.885376,441.822235 198.293442,443.610443 198.298782,445.155975 
	C198.352768,460.775909 198.236572,476.397278 198.417648,492.015289 
	C198.459961,495.664886 197.254013,497.928253 194.028061,499.502960 
	C189.937851,501.499573 186.472504,504.740845 180.802002,506.230011 
	C180.802002,489.968475 180.802002,474.283752 180.800720,458.118469 
z"/>
</svg>