<svg version="1.1" id="Layer_1" xmlns="http://www.w3.org/2000/svg" xmlns:xlink="http://www.w3.org/1999/xlink" x="0px" y="0px"
	 width="100%" viewBox="0 0 336 592" enable-background="new 0 0 336 592" xml:space="preserve">
<path fill="#000000" opacity="1.000000" stroke="none" 
	d="
M217.392029,300.239105 
	C229.452316,292.946838 236.889465,294.814697 243.679688,306.744781 
	C249.292007,316.605286 251.410385,327.583740 253.142365,338.590149 
	C255.050293,350.714691 254.171158,362.799316 251.319199,374.713928 
	C247.630585,390.123779 237.994080,396.081482 222.391113,392.823761 
	C211.310623,390.510254 201.236740,385.814514 191.865570,379.646179 
	C188.018021,377.113678 185.701584,377.173553 183.122528,381.395081 
	C179.124313,387.939514 173.859283,393.530121 168.418045,398.970642 
	C156.945801,410.441254 142.400024,413.893524 127.050041,415.155426 
	C116.102409,416.055389 105.115646,416.591858 94.119255,416.236877 
	C91.474709,416.151489 88.838722,415.677765 86.208649,415.311798 
	C84.550652,415.081116 83.328812,414.146362 83.371521,412.391602 
	C83.414658,410.619537 84.703026,409.910828 86.371338,409.640869 
	C92.929092,408.579559 99.444290,407.176880 106.034462,406.408722 
	C128.179337,403.827332 144.827652,391.623901 159.685089,376.198334 
	C172.742905,362.641113 181.752914,346.215179 191.947586,330.622864 
	C199.151093,319.605377 206.488739,308.660004 217.392029,300.239105 
M205.941696,341.446350 
	C204.554352,344.786346 201.047104,348.200134 205.758972,351.519287 
	C213.527298,356.991516 222.089600,360.517487 231.688919,360.886200 
	C237.146317,361.095856 239.259552,359.042542 238.715408,353.723328 
	C237.819397,344.964539 234.082443,337.368195 227.513428,331.494476 
	C222.486984,327.000031 217.801559,327.419556 212.855927,332.043060 
	C210.147919,334.574677 208.065598,337.570923 205.941696,341.446350 
z"/>
<path fill="#000000" opacity="1.000000" stroke="none" 
	d="
M234.351685,486.800629 
	C235.035309,491.450134 233.363968,494.209747 229.530060,496.012390 
	C225.689697,497.818054 222.468948,500.862915 218.360886,502.002228 
	C216.552994,500.354584 216.945374,498.422333 216.941544,496.653229 
	C216.908661,481.506439 217.030960,466.358337 216.858307,451.213470 
	C216.812805,447.222839 218.085693,444.614685 221.692291,442.850983 
	C225.656677,440.912262 229.032883,437.832153 234.350891,435.924927 
	C234.350891,453.246277 234.350891,469.787720 234.351685,486.800629 
z"/>
<path fill="#000000" opacity="1.000000" stroke="none" 
	d="
M193.770737,494.678772 
	C189.255508,497.406586 185.213409,500.229980 180.715515,502.073242 
	C179.157776,500.022980 179.618195,498.140961 179.614258,496.379181 
	C179.580475,481.262421 179.741028,466.143341 179.509094,451.030090 
	C179.447296,447.004456 180.708450,444.457642 184.220413,442.672516 
	C188.026352,440.737885 191.281860,437.760651 195.409256,436.504608 
	C197.412094,438.137207 196.953445,440.246948 196.955582,442.166809 
	C196.972137,457.117462 196.948654,472.068207 196.907562,487.018860 
	C196.899841,489.830414 197.144135,492.788391 193.770737,494.678772 
z"/>
</svg>