<svg version="1.1" id="Layer_1" xmlns="http://www.w3.org/2000/svg" xmlns:xlink="http://www.w3.org/1999/xlink" x="0px" y="0px"
	 width="100%" viewBox="0 0 336 592" enable-background="new 0 0 336 592" xml:space="preserve">
<path fill="#000000" opacity="1.000000" stroke="none" 
	d="
M140.153931,318.264465 
	C144.512436,310.980560 148.699081,304.025299 152.849854,297.129639 
	C152.421356,296.704254 152.229965,296.339264 151.970947,296.282379 
	C143.005035,294.314514 141.559067,292.122040 145.036865,283.283630 
	C153.353806,262.147186 162.920364,259.178101 180.384628,270.028564 
	C203.485916,284.381195 221.519958,303.737976 233.708954,328.226929 
	C239.309021,339.478027 239.741638,351.264923 236.367371,363.228424 
	C233.684402,372.740875 228.018326,377.006805 218.242310,377.317383 
	C208.138824,377.638367 198.364273,375.783844 188.744919,372.935120 
	C183.320175,371.328613 177.782089,369.944855 172.588120,367.763092 
	C167.189453,365.495361 163.207718,366.342072 158.619049,370.069489 
	C149.952576,377.109344 140.665573,383.619476 129.336929,385.561798 
	C118.204514,387.470459 107.107048,386.788330 96.464363,382.498749 
	C95.091560,381.945435 93.819527,381.095978 92.584084,380.260529 
	C91.252045,379.359802 90.447304,378.061401 90.940582,376.410828 
	C91.414490,374.825012 92.693291,373.999878 94.289658,373.810303 
	C95.441399,373.673553 96.660240,373.520538 97.775246,373.743805 
	C112.400566,376.672333 123.917244,369.590515 135.288956,362.113464 
	C137.205795,360.853088 139.282013,359.691437 140.825989,357.388000 
	C138.636398,355.039032 135.381149,353.794067 133.816971,350.666840 
	C131.158447,345.351746 131.561157,340.074310 133.098969,334.634979 
	C134.697327,328.981415 137.400574,323.816803 140.153931,318.264465 
M218.644211,338.845184 
	C211.398026,330.318695 204.328857,321.592499 193.678009,315.826477 
	C188.813080,325.987823 188.822693,336.876709 182.347137,346.395569 
	C197.926865,349.881927 212.081253,353.762299 227.641159,353.699310 
	C225.507339,347.414551 222.042130,343.562073 218.644211,338.845184 
M178.232315,320.369812 
	C176.742020,316.980347 174.703033,313.981781 172.016663,311.411957 
	C169.258392,308.773376 166.124344,308.309937 162.867584,310.098602 
	C156.566772,313.559174 151.739059,318.573792 148.782318,325.123322 
	C146.510330,330.155975 147.973206,333.689056 153.054688,336.135803 
	C156.793442,337.936035 160.661667,339.474609 164.513748,341.026733 
	C165.382660,341.376862 166.487595,341.576660 167.375961,341.373535 
	C173.975082,339.864899 180.746918,327.450836 178.232315,320.369812 
z"/>
<path fill="#000000" opacity="1.000000" stroke="none" 
	d="
M134.728333,234.429855 
	C134.647659,232.120270 135.492676,230.806351 137.116043,229.944366 
	C151.119705,222.508789 157.315475,209.802200 160.611954,195.137894 
	C161.073242,193.085800 161.070953,190.835648 162.974533,189.322495 
	C165.829208,189.663559 165.627029,192.221100 166.045975,193.877167 
	C169.727997,208.432007 178.347046,219.125046 191.100464,226.736221 
	C195.129623,229.140808 197.122986,241.473877 194.205536,245.096924 
	C192.968170,246.633545 191.546432,246.086029 190.135208,245.617416 
	C185.890732,244.207947 182.638763,241.404831 179.680313,238.162064 
	C173.383347,231.259964 168.313370,223.526840 163.975189,214.126099 
	C160.421600,223.884201 155.762100,231.844711 149.645386,238.937134 
	C147.101593,241.886719 144.256134,244.421143 140.603058,245.842667 
	C136.343567,247.500153 134.796646,246.420914 134.703461,241.870743 
	C134.655701,239.539062 134.710449,237.205276 134.728333,234.429855 
z"/>
</svg>