<svg version="1.1" id="Layer_1" xmlns="http://www.w3.org/2000/svg" xmlns:xlink="http://www.w3.org/1999/xlink" x="0px" y="0px"
	 width="100%" viewBox="0 0 512 512" enable-background="new 0 0 512 512" xml:space="preserve">
<path fill="#000000" opacity="1.000000" stroke="none" 
	d="
M234.000122,80.657547 
	C272.989441,80.656219 311.479187,80.741402 349.967560,80.548347 
	C354.966644,80.523277 356.861694,81.836441 356.437286,86.973473 
	C356.013367,92.104164 356.198151,97.301010 356.376465,102.459854 
	C356.489899,105.742279 355.068298,107.028549 351.968445,106.927811 
	C350.803711,106.889969 349.636169,106.946091 348.469910,106.946198 
	C287.320251,106.952019 226.170593,106.958252 165.020935,106.958588 
	C157.660233,106.958626 157.658188,106.943459 157.652374,99.465370 
	C157.648880,94.966621 157.879074,90.453171 157.587830,85.973404 
	C157.315857,81.789772 158.926529,80.556175 163.020401,80.582985 
	C186.512802,80.736816 210.006714,80.657761 234.000122,80.657547 
z"/>
<path fill="#000000" opacity="1.000000" stroke="none" 
	d="
M242.114334,383.997925 
	C242.267670,350.021179 242.448257,316.544159 242.547211,283.066925 
	C242.566406,276.576019 242.313385,270.082642 242.096039,263.593414 
	C241.979263,260.106964 243.190720,258.435059 247.012070,258.587952 
	C253.165558,258.834106 259.350372,258.909058 265.494843,258.568207 
	C270.118378,258.311737 271.428253,259.965332 271.410217,264.522308 
	C271.253143,304.333740 271.316528,344.145996 271.314301,383.958038 
	C271.314056,388.289001 271.202148,392.623718 271.348694,396.949677 
	C271.454956,400.087067 270.366486,401.477020 267.046173,401.395050 
	C260.220612,401.226471 253.385788,401.234802 246.559494,401.384796 
	C243.323349,401.455902 241.998886,400.126221 242.057251,396.990326 
	C242.134720,392.827148 242.099777,388.661926 242.114334,383.997925 
z"/>
<path fill="#000000" opacity="1.000000" stroke="none" 
	d="
M242.573105,146.198044 
	C242.424408,141.396240 242.272568,137.071869 242.131958,132.747131 
	C242.037796,129.851440 243.322250,128.573593 246.340576,128.630432 
	C253.332993,128.762131 260.330719,128.749359 267.323853,128.639709 
	C270.409515,128.591354 271.341888,130.008759 271.337555,132.887497 
	C271.287109,166.363022 271.281006,199.838669 271.330780,233.314194 
	C271.335266,236.335281 270.130890,237.434967 267.161713,237.376312 
	C260.668945,237.248047 254.159607,237.089996 247.680862,237.416458 
	C243.146835,237.644928 241.955124,235.785400 242.035599,231.586792 
	C242.348190,215.276749 242.471237,198.962463 242.572937,182.649185 
	C242.647690,170.658356 242.579315,158.666641 242.573105,146.198044 
z"/>
<path fill="#000000" opacity="1.000000" stroke="none" 
	d="
M157.653931,159.999908 
	C157.656906,150.667953 157.746765,141.834747 157.617813,133.004745 
	C157.570786,129.785202 158.762634,128.553177 161.992844,128.625900 
	C168.655045,128.775879 175.325195,128.770523 181.987640,128.625488 
	C185.200317,128.555542 186.370667,129.760284 186.363998,132.996490 
	C186.295273,166.324448 186.305237,199.652649 186.375519,232.980621 
	C186.382202,236.150711 185.315125,237.476013 182.032471,237.389069 
	C175.704559,237.221497 169.360352,237.136902 163.039886,237.410660 
	C158.899811,237.589951 157.557861,236.116913 157.583405,231.988373 
	C157.730804,208.159653 157.654648,184.329544 157.653931,159.999908 
z"/>
<path fill="#000000" opacity="1.000000" stroke="none" 
	d="
M356.342346,219.998550 
	C356.332672,224.830353 356.219391,229.165512 356.347321,233.493530 
	C356.442322,236.707352 354.749817,237.394608 351.986115,237.357208 
	C345.489075,237.269272 338.984589,237.174759 332.493835,237.396622 
	C328.745331,237.524765 327.575470,236.042938 327.604736,232.434891 
	C327.727631,217.273270 327.650635,202.110046 327.649811,186.947403 
	C327.648834,169.285431 327.759369,151.622299 327.572021,133.962311 
	C327.527710,129.784500 328.926178,128.402542 333.027344,128.589996 
	C339.013153,128.863541 345.030731,128.864349 351.015961,128.582230 
	C355.183685,128.385788 356.439148,129.918533 356.418793,134.021912 
	C356.277618,162.513641 356.343079,191.006409 356.342346,219.998550 
z"/>
</svg>