<svg version="1.1" id="Layer_1" xmlns="http://www.w3.org/2000/svg" xmlns:xlink="http://www.w3.org/1999/xlink" x="0px" y="0px"
	 width="100%" viewBox="0 0 512 512" enable-background="new 0 0 512 512" xml:space="preserve">
<path fill="#000000" opacity="1.000000" stroke="none" 
	d="
M280.142944,379.316254 
	C238.906738,385.948181 202.296341,375.769653 170.160873,350.432343 
	C141.047653,327.477936 123.440437,297.039917 119.091789,260.220276 
	C113.329597,211.432404 129.188675,169.996933 165.900436,137.132339 
	C184.920685,120.105309 207.370483,109.053017 232.610733,105.257706 
	C282.881592,97.698616 326.052887,111.777901 360.676575,149.800064 
	C379.994812,171.014496 391.836304,196.058243 394.933807,224.342133 
	C400.108521,271.593445 386.052246,312.359711 350.266235,344.765594 
	C330.281921,362.862305 307.178436,374.591705 280.142944,379.316254 
M356.541229,289.033081 
	C360.548492,280.037109 363.359589,270.698242 365.211121,261.009216 
	C366.037903,256.682892 365.259521,254.830139 360.516815,254.848206 
	C331.891693,254.957260 303.265747,254.960281 274.640656,254.849686 
	C270.504822,254.833710 269.165161,256.340607 269.184509,260.423615 
	C269.322723,289.547852 269.360321,318.673401 269.209015,347.797363 
	C269.185364,352.345490 271.051788,353.338562 274.925354,352.576508 
	C286.242096,350.350159 297.072723,346.765533 307.304199,341.359772 
	C329.454895,329.656525 345.223175,311.952881 356.541229,289.033081 
M362.669983,211.753036 
	C360.391266,202.819839 356.841064,194.396637 352.008606,186.573151 
	C333.753052,157.018356 308.247437,137.869934 273.476501,131.984100 
	C270.160095,131.422714 269.269318,132.467041 269.271820,135.461441 
	C269.296692,165.100433 269.299805,194.739487 269.258026,224.378464 
	C269.253784,227.377411 270.372589,228.295670 273.463562,228.283020 
	C302.932587,228.162308 332.402740,228.151505 361.871399,228.315567 
	C365.332764,228.334839 366.036743,226.946869 365.517059,224.192383 
	C364.778564,220.278183 363.821594,216.405197 362.669983,211.753036 
M228.485443,254.908112 
	C201.645203,254.908112 174.804977,254.908112 147.549973,254.908112 
	C150.629425,278.344788 159.243790,297.869476 173.640778,314.730804 
	C190.181305,334.102600 210.958252,346.549835 235.953110,351.903442 
	C241.997574,353.198090 242.626053,352.943146 242.633987,346.744751 
	C242.667465,320.583008 242.767929,294.420837 242.646286,268.259735 
	C242.576675,253.292831 244.954651,255.010895 228.485443,254.908112 
M155.532272,199.960526 
	C152.391266,207.693756 150.184082,215.685165 148.674301,223.894684 
	C148.146667,226.763748 149.100494,228.018951 151.927734,228.027374 
	C153.260803,228.031342 154.593857,228.045029 155.926926,228.045868 
	C182.423599,228.062393 208.920486,228.026825 235.416840,228.126526 
	C242.653473,228.153748 242.661255,228.339874 242.666504,221.092957 
	C242.675049,209.261093 242.675812,197.429245 242.671585,185.597382 
	C242.665848,169.599380 242.676727,153.601318 242.629593,137.603424 
	C242.611694,131.522629 242.427841,131.411301 236.326736,132.376648 
	C234.682861,132.636749 233.025375,132.899582 231.427902,133.351227 
	C195.853714,143.408783 170.710266,165.442307 155.532272,199.960526 
z"/>
</svg>