<svg version="1.1" id="Layer_1" xmlns="http://www.w3.org/2000/svg" xmlns:xlink="http://www.w3.org/1999/xlink" x="0px" y="0px"
	 width="100%" viewBox="0 0 512 512" enable-background="new 0 0 512 512" xml:space="preserve">
<path fill="#000000" opacity="1.000000" stroke="none" 
	d="
M161.786804,386.052399 
	C151.845428,364.088806 152.414749,341.783844 157.229980,319.201660 
	C161.677490,298.343994 169.367142,278.386505 174.250748,257.638947 
	C179.669678,234.617065 180.269928,211.585724 175.979004,188.328445 
	C175.218231,184.205048 173.414688,183.150955 169.650986,183.302322 
	C164.327118,183.516449 158.987885,183.403992 153.656311,183.340729 
	C151.876678,183.319611 149.964081,183.747787 148.103302,182.149689 
	C149.027740,174.954834 150.031418,167.574844 150.915863,160.180618 
	C153.880615,135.394760 153.811661,110.730225 147.846085,86.310524 
	C146.411072,80.436493 146.452545,80.502541 152.598907,79.595497 
	C158.519180,78.721817 164.438858,77.802681 170.310516,76.656265 
	C173.957306,75.944252 175.718567,77.059349 176.697052,80.748009 
	C179.397064,90.926376 181.037704,101.263573 181.256027,111.746971 
	C181.563904,126.530083 181.884766,141.347946 178.659790,155.651718 
	C180.817413,157.533447 182.908905,156.992981 184.832245,156.994873 
	C231.657181,157.040802 278.482208,157.010880 325.306976,157.110260 
	C329.750092,157.119690 331.557465,156.678726 331.019592,151.071259 
	C328.789886,127.826439 328.793945,104.555756 332.673004,81.399979 
	C333.330994,77.472008 334.923370,75.963440 338.908508,76.686035 
	C345.449585,77.872063 352.033752,78.820763 358.601135,79.860939 
	C361.395966,80.303596 362.486847,81.531410 361.883423,84.652328 
	C355.869995,115.755386 357.369293,146.877838 362.050049,177.966705 
	C362.632538,181.835709 361.765594,183.558868 357.551270,183.402512 
	C351.394165,183.174103 345.216064,183.512115 339.059113,183.281754 
	C335.279175,183.140320 333.717224,184.561264 334.422241,188.232117 
	C336.733795,200.267441 336.275421,212.444183 336.312836,224.589996 
	C336.461884,272.984741 344.894440,319.866974 361.844849,365.207367 
	C364.758850,373.001984 367.508667,380.862640 370.632324,388.572021 
	C371.912659,391.731873 371.419617,393.311218 368.240570,394.714905 
	C362.149475,397.404388 356.165161,400.361328 350.274292,403.468506 
	C346.930939,405.232025 345.204285,405.013428 343.561707,401.130707 
	C328.916107,366.511047 317.161621,331.029449 312.009277,293.673767 
	C310.240173,280.847168 309.262054,267.896820 308.513855,254.924805 
	C307.354614,234.826752 308.998077,214.598434 305.687378,194.610886 
	C305.660370,194.447693 305.678040,194.277603 305.662048,194.111969 
	C304.623993,183.348694 304.623871,183.351303 293.747437,183.356918 
	C287.581879,183.360107 281.405914,183.569992 275.254395,183.274979 
	C271.109955,183.076218 269.775269,184.745468 270.442993,188.554474 
	C272.761475,201.780899 272.300629,215.036530 271.504730,228.380951 
	C270.472412,245.688385 267.773865,262.745056 264.806458,279.762634 
	C261.421326,299.175568 259.132019,318.676971 260.490356,338.355316 
	C261.595856,354.370850 265.342834,369.889679 272.333588,384.496002 
	C273.543182,387.023285 275.166290,389.420654 275.521301,393.044373 
	C267.814697,396.785828 259.914368,400.613129 252.022720,404.458191 
	C249.955139,405.465637 248.976578,404.325348 248.142273,402.655121 
	C240.502670,387.361145 235.001770,371.380402 232.685242,354.387848 
	C229.378738,330.133667 233.301544,306.321594 237.145660,282.506805 
	C240.697723,260.501312 244.204742,238.490448 243.660950,216.083054 
	C243.430450,206.585846 242.211197,197.198441 240.609100,187.846222 
	C240.083618,184.778656 238.807343,183.229828 235.354843,183.309708 
	C226.694550,183.510086 218.025146,183.440186 209.361740,183.315811 
	C206.329086,183.272278 204.878677,184.396912 205.430710,187.427765 
	C211.621780,221.419006 203.235947,253.486588 192.615311,285.275848 
	C185.994049,305.094391 181.023941,325.134552 182.197678,346.370178 
	C183.022476,361.292664 185.867661,375.367188 194.627731,387.798370 
	C195.296524,388.747437 195.853073,389.781250 196.396851,390.809998 
	C196.622131,391.236176 196.676346,391.752777 197.024231,393.005920 
	C189.683594,396.850952 182.243439,400.791687 174.756729,404.641846 
	C172.647766,405.726410 171.808456,403.898682 170.860306,402.564453 
	C167.272583,397.515839 164.614975,391.951813 161.786804,386.052399 
z"/>
</svg>