<svg version="1.1" id="Layer_1" xmlns="http://www.w3.org/2000/svg" xmlns:xlink="http://www.w3.org/1999/xlink" x="0px" y="0px"
	 width="100%" viewBox="0 0 512 512" enable-background="new 0 0 512 512" xml:space="preserve">
<path fill="#000000" opacity="1.000000" stroke="none" 
	d="
M231.000122,80.656326 
	C267.833099,80.654144 304.166046,80.647820 340.498993,80.654175 
	C347.214783,80.655342 347.240265,80.678986 347.239960,87.204147 
	C347.235565,189.536392 347.225830,291.868652 347.210419,394.200897 
	C347.209320,401.336060 347.183990,401.344208 340.034760,401.344482 
	C284.701996,401.346588 229.369263,401.346649 174.036514,401.343445 
	C166.840088,401.343018 166.824829,401.332886 166.824417,394.251801 
	C166.818497,292.252869 166.815979,190.253952 166.816559,88.255035 
	C166.816605,80.654854 166.830582,80.654007 174.501099,80.654152 
	C193.167435,80.654495 211.833786,80.655693 231.000122,80.656326 
M317.822937,196.515198 
	C317.818420,194.516571 317.814148,192.517929 317.809387,190.519302 
	C317.792328,183.376953 317.792267,183.367920 310.742737,183.366425 
	C274.267365,183.358749 237.791565,183.440445 201.317184,183.250427 
	C196.477829,183.225220 195.100433,184.674881 195.126434,189.459686 
	C195.310196,223.269196 195.226547,257.080139 195.233780,290.890625 
	C195.235260,297.823914 195.246094,297.851227 202.039825,297.851654 
	C238.515182,297.853882 274.991058,297.746460 311.465332,297.943146 
	C316.548309,297.970520 317.975281,296.480042 317.941010,291.445282 
	C317.727814,260.134552 317.827728,228.821655 317.822937,196.515198 
M200.753021,324.298767 
	C196.821152,323.789764 195.074142,325.124237 195.147446,329.471802 
	C195.377762,343.133453 195.286835,356.801636 195.202881,370.466553 
	C195.183624,373.599640 195.645874,375.227448 199.545883,375.209930 
	C237.375031,375.040070 275.205383,375.034973 313.034698,375.173492 
	C316.828552,375.187378 317.950897,374.099762 317.901611,370.402252 
	C317.726196,357.238983 317.830109,344.072021 317.807770,330.906525 
	C317.796600,324.323700 317.776550,324.309204 311.182709,324.308044 
	C274.685822,324.301636 238.188934,324.302887 200.753021,324.298767 
M317.818237,136.499725 
	C317.815704,128.506653 317.668518,120.509895 317.871429,112.522049 
	C317.973358,108.509682 316.668060,106.892891 312.460327,106.905815 
	C275.159546,107.020447 237.858200,107.020325 200.557358,106.926102 
	C196.386261,106.915573 195.110474,108.493683 195.174225,112.547348 
	C195.373199,125.199966 195.453094,137.862518 195.150085,150.510941 
	C195.031464,155.462494 196.404053,157.227463 201.578201,157.126938 
	C217.225418,156.822876 232.882339,157.019669 248.535492,157.020584 
	C269.350830,157.021805 290.166199,157.033966 310.981537,157.016632 
	C317.769104,157.010971 317.778290,156.975525 317.811676,149.988586 
	C317.831573,145.825607 317.817047,141.662460 317.818237,136.499725 
z"/>
</svg>