<svg version="1.1" id="Layer_1" xmlns="http://www.w3.org/2000/svg" xmlns:xlink="http://www.w3.org/1999/xlink" x="0px" y="0px"
	 width="100%" viewBox="0 0 512 512" enable-background="new 0 0 512 512" xml:space="preserve">
<path fill="#000000" opacity="1.000000" stroke="none" 
	d="
M187.000122,80.654953 
	C196.496674,80.655098 205.532440,81.193588 214.481415,80.541344 
	C231.885803,79.272820 243.122131,87.830956 251.288498,102.045937 
	C259.100830,115.644661 264.561249,130.346542 271.266815,144.464203 
	C277.295898,157.157639 284.112518,169.366180 294.004944,179.479355 
	C309.405792,195.223892 328.241730,203.237778 350.309326,203.619431 
	C358.281219,203.757294 358.295593,203.832047 358.296478,211.860779 
	C358.303192,272.837341 358.305542,333.813873 358.302094,394.790436 
	C358.301727,401.313995 358.280518,401.345612 351.586823,401.346771 
	C289.444061,401.357483 227.301285,401.359528 165.158508,401.354462 
	C158.584412,401.353912 158.074936,400.901794 158.074387,394.229126 
	C158.065872,291.935181 158.076187,189.641220 158.106384,87.347267 
	C158.108246,81.013939 158.540497,80.673134 165.008591,80.659019 
	C172.172394,80.643379 179.336273,80.655296 187.000122,80.654953 
M186.777191,373.652313 
	C188.674698,375.675812 191.161926,374.874542 193.388672,374.877472 
	C234.530457,374.931580 275.672424,374.966370 316.814148,374.894196 
	C331.603119,374.868225 329.560883,376.897888 329.586090,362.312134 
	C329.660706,319.171661 329.576324,276.030853 329.653778,232.890366 
	C329.660858,228.932785 328.998169,226.095398 324.428894,225.384995 
	C303.444702,222.122559 286.741058,211.250778 272.341522,196.141632 
	C258.873108,182.009460 250.575958,164.815842 242.696976,147.322556 
	C238.191284,137.318756 234.433456,126.968559 228.590256,117.582794 
	C224.199265,110.529655 218.457428,106.392914 209.723984,106.992554 
	C204.418472,107.356842 199.068192,107.053520 193.738190,107.080597 
	C186.321152,107.118271 186.314301,107.130493 186.314606,114.500160 
	C186.317917,194.618500 186.320526,274.736816 186.334763,354.855164 
	C186.335815,360.849426 186.424713,366.843719 186.777191,373.652313 
z"/>
<path fill="#000000" opacity="1.000000" stroke="none" 
	d="
M337.582642,100.925827 
	C351.038727,105.147781 360.686951,112.727608 363.749817,126.789856 
	C365.843262,136.401352 363.283508,145.279846 358.814941,153.680573 
	C353.058350,164.502686 345.061768,173.633469 336.608521,182.403000 
	C334.744263,184.336990 333.095825,184.630020 331.070496,182.759644 
	C327.648895,179.599808 324.191711,176.477310 320.700653,173.394363 
	C318.299500,171.273911 318.395386,169.161255 320.549896,166.998428 
	C323.955322,163.579880 327.407471,160.207779 330.806641,156.783127 
	C335.445892,152.109161 338.908783,146.767746 340.844116,140.369980 
	C343.810425,130.564117 334.886414,121.416687 324.899261,124.147667 
	C315.879181,126.614197 308.985077,132.220657 302.030731,137.903717 
	C300.873840,138.849121 299.839081,139.943665 298.744324,140.965469 
	C293.561768,145.802643 293.173126,145.795151 288.496002,140.653793 
	C285.921082,137.823273 283.413818,134.929565 280.786865,132.148575 
	C278.849030,130.097092 278.524567,128.279892 280.833282,126.236565 
	C292.242310,116.139046 304.364410,107.168633 318.914734,102.037399 
	C324.869659,99.937370 331.029907,100.322685 337.582642,100.925827 
z"/>
</svg>