<svg version="1.1" id="Layer_1" xmlns="http://www.w3.org/2000/svg" xmlns:xlink="http://www.w3.org/1999/xlink" x="0px" y="0px"
	 width="100%" viewBox="0 0 512 512" enable-background="new 0 0 512 512" xml:space="preserve">
<path fill="#000000" opacity="1.000000" stroke="none" 
	d="
M223.606842,135.720734 
	C229.642563,114.834358 238.033691,95.203651 244.998398,75.068390 
	C245.842773,72.627274 247.364761,71.746872 249.869598,71.812218 
	C254.366196,71.929535 258.874695,71.995079 263.365479,71.795403 
	C266.618835,71.650757 268.107452,73.186378 269.167786,76.046463 
	C281.258667,108.660423 294.350616,140.922623 303.563049,174.542572 
	C303.858948,175.622375 304.355957,176.647049 305.210327,178.872559 
	C307.394257,170.631531 309.261871,163.507309 311.170929,156.394226 
	C317.457764,132.969467 327.316376,110.933769 337.406525,88.988167 
	C339.285034,84.902534 341.203918,80.832298 342.948151,76.689270 
	C343.990204,74.214081 345.261353,73.342781 347.888672,74.717758 
	C354.234894,78.038956 360.657623,81.215775 367.082672,84.383568 
	C369.338470,85.495766 370.157684,87.198212 368.691467,89.197113 
	C359.830444,101.277489 364.637695,113.966278 366.906647,126.521904 
	C370.507996,146.450775 374.179413,166.367218 377.913177,186.271652 
	C378.380310,188.762100 377.815155,190.074463 375.236786,190.499222 
	C368.054230,191.682526 360.884277,192.942108 353.114868,194.273422 
	C349.330109,174.170639 347.004883,154.358398 346.228455,133.020325 
	C336.841553,157.735443 326.454010,180.422150 316.398804,203.252670 
	C315.203400,205.966919 313.584351,207.047211 310.716797,206.992462 
	C304.886078,206.881088 299.051086,206.907059 293.219208,206.983231 
	C290.609253,207.017319 288.824036,206.243774 287.844086,203.582687 
	C278.585693,178.440689 267.322235,154.025101 260.455322,128.018845 
	C259.198792,123.260040 258.195557,118.434349 256.817169,112.534233 
	C255.297699,119.309990 254.126495,125.079788 252.702881,130.786606 
	C246.389038,156.097153 235.364426,179.711639 226.266876,204.021072 
	C225.288818,206.634491 223.618896,207.474121 220.941025,207.411819 
	C214.944595,207.272324 208.940887,207.264496 202.944275,207.394089 
	C200.218933,207.453003 198.711182,206.384628 197.643280,203.896194 
	C187.799149,180.957336 177.279984,158.297333 168.980301,134.560089 
	C167.059280,154.385681 164.523697,174.095108 160.935547,194.245300 
	C153.271530,192.919662 146.126755,191.626312 138.959534,190.472382 
	C136.078934,190.008606 135.597107,188.514221 136.091705,185.882645 
	C139.803253,166.135269 143.406998,146.367630 147.065979,126.610321 
	C148.214783,120.407150 149.138321,114.141724 150.698608,108.041275 
	C152.152924,102.355080 149.094391,98.078499 147.100845,93.437988 
	C143.888748,85.960945 143.821960,85.987885 150.915695,82.427177 
	C156.975143,79.385620 163.036530,76.347916 169.477982,73.117477 
	C184.949478,107.859741 201.490265,141.413773 212.394638,177.490906 
	C216.023575,163.571732 218.821869,149.584610 223.606842,135.720734 
z"/>
<path fill="#000000" opacity="1.000000" stroke="none" 
	d="
M313.999847,217.698181 
	C319.997803,217.704391 325.496674,217.771713 330.993408,217.692413 
	C333.915161,217.650284 335.269470,218.842438 335.233429,221.830139 
	C335.157074,228.160156 335.153015,234.492432 335.236115,240.822235 
	C335.266510,243.139679 334.038513,244.411652 332.318329,245.654800 
	C313.756683,259.069153 297.977448,275.645813 280.962585,290.821350 
	C277.646027,293.779388 278.884766,295.516724 281.360352,298.001678 
	C299.113403,315.821655 316.828796,333.695282 331.694153,354.097748 
	C339.838226,365.275360 347.382965,376.862305 354.349548,388.816620 
	C354.837982,389.654694 355.178375,390.579010 355.934967,392.213776 
	C347.616333,396.264404 339.461853,400.286285 331.255676,404.199768 
	C328.785431,405.377838 328.099640,403.188416 327.258026,401.632019 
	C316.426453,381.601135 302.879608,363.484924 288.159760,346.201172 
	C280.601044,337.325897 272.924469,328.550995 265.378052,319.665436 
	C262.290436,316.029877 259.829742,311.921509 257.457886,307.535614 
	C242.367874,328.986908 222.668381,345.846802 208.426147,367.261597 
	C201.038101,378.370361 193.971954,389.646027 187.433075,401.252869 
	C185.635605,404.443420 183.981491,404.964111 180.741440,403.242157 
	C173.570740,399.431335 166.200195,395.996521 158.280823,392.098053 
	C178.558685,354.589081 206.577637,324.041748 235.942215,295.161255 
	C235.904297,293.199402 234.876007,292.496979 234.042557,291.738586 
	C217.052750,276.278503 201.246674,259.483948 182.553665,245.946548 
	C180.448700,244.422165 179.563568,242.629898 179.620346,240.049255 
	C179.741272,234.553909 179.920868,229.037109 179.572266,223.561188 
	C179.276291,218.912140 181.028687,217.603378 185.546143,217.625687 
	C216.867462,217.780548 248.189926,217.703735 279.512024,217.701248 
	C290.841309,217.700333 302.170593,217.699326 313.999847,217.698181 
M241.504608,242.183060 
	C232.450089,242.726120 223.415131,240.674484 213.772736,241.573425 
	C230.632034,252.933365 245.105896,265.879089 257.397919,281.634338 
	C269.128448,265.040222 284.267426,252.835403 300.427643,241.451508 
	C281.066345,242.592407 261.782196,242.131241 241.504608,242.183060 
z"/>
</svg>