<svg version="1.1" id="Layer_1" xmlns="http://www.w3.org/2000/svg" xmlns:xlink="http://www.w3.org/1999/xlink" x="0px" y="0px"
	 width="100%" viewBox="0 0 512 512" enable-background="new 0 0 512 512" xml:space="preserve">
<path fill="#000000" opacity="1.000000" stroke="none" 
	d="
M241.036270,213.030212 
	C269.195099,213.032272 296.859467,213.024643 324.523834,213.039215 
	C331.198975,213.042725 331.224182,213.088913 331.248230,219.700363 
	C331.265198,224.366562 331.013062,229.047195 331.303253,233.695023 
	C331.574707,238.042572 330.035095,239.467804 325.612915,239.443008 
	C296.282959,239.278473 266.951599,239.364578 237.620712,239.359268 
	C230.229416,239.357941 230.209656,239.341415 230.209702,246.644882 
	C230.209976,295.807465 230.221863,344.970032 230.222916,394.132599 
	C230.223068,401.335449 230.205795,401.341095 223.164902,401.351044 
	C217.332077,401.359283 211.493683,401.198273 205.668350,401.407257 
	C201.926819,401.541473 200.627884,400.028839 200.779053,396.411469 
	C200.973724,391.753326 200.827332,387.080902 200.827118,382.414642 
	C200.822586,284.922729 200.817749,187.430786 200.814941,89.938866 
	C200.814880,88.105858 200.894577,86.271126 200.838150,84.440247 
	C200.752487,81.660820 202.085983,80.611214 204.800842,80.643204 
	C211.965851,80.727623 219.132980,80.719307 226.298264,80.648483 
	C229.041199,80.621376 230.264252,81.794289 230.200867,84.525871 
	C230.139038,87.190407 230.225113,89.858086 230.225357,92.524384 
	C230.228638,129.188004 230.198196,165.851654 230.246292,202.515198 
	C230.261627,214.206802 228.769287,212.908615 241.036270,213.030212 
z"/>
</svg>