<svg version="1.1" id="Layer_1" xmlns="http://www.w3.org/2000/svg" xmlns:xlink="http://www.w3.org/1999/xlink" x="0px" y="0px"
	 width="100%" viewBox="0 0 512 512" enable-background="new 0 0 512 512" xml:space="preserve">
<path fill="#000000" opacity="1.000000" stroke="none" 
	d="
M196.683029,171.678055 
	C191.292709,175.995560 186.652985,180.527420 183.871658,186.577362 
	C182.646286,189.242813 180.796722,189.827560 178.211502,189.033997 
	C177.893066,188.936234 177.584717,188.803009 177.263260,188.718094 
	C161.834961,184.642365 161.823563,184.642746 161.814209,168.718613 
	C161.798141,141.392593 161.903610,114.065758 161.692398,86.741318 
	C161.654755,81.873543 163.232178,80.550560 167.972443,80.560852 
	C230.288834,80.696060 292.605652,80.691315 354.922119,80.572998 
	C359.409943,80.564484 361.271484,81.757156 360.991028,86.473358 
	C360.655396,92.117783 360.738556,97.807617 361.003510,103.460762 
	C361.215485,107.984909 359.600342,109.466980 354.961761,109.441353 
	C322.804718,109.263603 290.646179,109.359657 258.488098,109.362190 
	C237.993576,109.363808 217.497406,109.493706 197.005768,109.248253 
	C192.293808,109.191811 191.004623,110.721443 191.131256,115.246872 
	C191.419647,125.553307 191.222229,135.873337 191.222229,147.335373 
	C198.299545,141.892548 205.478165,138.584244 213.326645,137.195724 
	C232.929382,133.727707 251.921921,135.075607 265.638336,151.286407 
	C280.425446,168.762589 281.351929,189.209000 273.009613,209.976318 
	C267.572235,223.511993 258.433319,234.934814 250.168427,246.830627 
	C242.376938,258.045074 234.652283,269.309723 232.805008,283.430145 
	C231.348892,294.560394 233.285492,305.361359 235.823898,316.014465 
	C242.625885,344.560822 253.745071,371.311493 270.155548,395.763458 
	C271.100067,397.170807 272.889221,398.424530 271.890289,401.222565 
	C261.851715,401.222565 251.595779,401.276184 241.341415,401.173492 
	C239.478897,401.154846 238.658127,399.346497 237.822495,397.928528 
	C220.940567,369.281647 208.294037,339.010986 203.988022,305.811920 
	C200.991501,282.708862 206.287613,261.589783 220.897064,243.002213 
	C228.093781,233.845871 235.401184,224.752594 241.639221,214.867020 
	C247.378052,205.772537 249.707153,195.845490 248.520905,185.301407 
	C246.750931,169.568909 237.149612,162.292007 219.709167,163.446213 
	C211.502411,163.989334 203.669144,166.294342 196.683029,171.678055 
z"/>
</svg>