<svg version="1.1" id="Layer_1" xmlns="http://www.w3.org/2000/svg" xmlns:xlink="http://www.w3.org/1999/xlink" x="0px" y="0px"
	 width="100%" viewBox="0 0 512 512" enable-background="new 0 0 512 512" xml:space="preserve">
<path fill="#000000" opacity="1.000000" stroke="none" 
	d="
M337.393677,208.726166 
	C327.305664,208.796005 317.662354,208.796005 307.513245,208.796005 
	C306.998688,216.056183 308.708862,222.686646 309.712341,229.285904 
	C311.758972,242.745712 312.019775,242.693665 298.668152,244.370392 
	C295.535889,244.763763 292.359741,245.033615 289.307861,245.783752 
	C285.506989,246.717987 284.200684,245.157410 283.757843,241.622055 
	C282.539276,231.894028 281.027832,222.202316 279.845581,212.470337 
	C279.485321,209.504593 278.301727,208.594986 275.351257,208.627487 
	C257.859772,208.820358 240.366348,208.839523 222.873505,208.900574 
	C215.360275,208.926788 215.350983,208.908737 215.350616,216.210449 
	C215.347702,275.528259 215.350067,334.846100 215.346161,394.163910 
	C215.345688,401.340118 215.332870,401.343323 208.362900,401.349091 
	C203.530838,401.353088 198.698761,401.345703 193.866699,401.345398 
	C186.672638,401.344940 186.662384,401.345673 186.661636,394.364990 
	C186.659393,373.203857 186.664963,352.042725 186.669006,330.881592 
	C186.678574,280.728119 186.397293,230.572052 186.841263,180.422409 
	C187.021301,160.084976 189.559677,139.848145 197.750854,120.909958 
	C207.725739,97.847847 224.842651,83.236404 250.111572,79.742081 
	C270.549011,76.915871 290.950012,78.907791 311.256958,81.961792 
	C314.884216,82.507309 316.020966,84.179077 315.325195,87.682922 
	C314.160278,93.549202 313.113098,99.442101 312.175842,105.349098 
	C311.637817,108.740005 309.389954,108.536743 306.965637,108.200577 
	C302.722260,107.612183 298.482056,107.000732 293.410370,106.281166 
	C294.170410,113.037674 294.744751,119.056557 295.540863,125.045959 
	C297.772461,141.835098 300.155701,158.604187 302.354584,175.397507 
	C303.300232,182.619370 303.160583,182.640030 310.562073,182.647888 
	C319.226440,182.657089 327.891052,182.697205 336.555084,182.645828 
	C339.051300,182.631027 340.901276,183.217987 340.878784,186.131027 
	C340.831238,192.291367 340.771301,198.452454 340.614136,204.610626 
	C340.567169,206.451584 340.312134,208.374893 337.393677,208.726166 
M271.669434,149.635010 
	C269.974457,136.474792 268.270538,123.315704 266.590668,110.153549 
	C266.157501,106.759438 264.924194,104.996338 260.862793,105.082344 
	C243.113693,105.458237 229.720215,115.091202 223.313751,131.974289 
	C217.556900,147.145416 216.981812,163.091232 215.439438,178.920715 
	C215.151093,181.880112 216.613708,182.664673 219.263626,182.658112 
	C236.728500,182.614899 254.194016,182.574707 271.658142,182.699081 
	C275.179108,182.724152 276.007324,181.171158 275.574982,178.120132 
	C274.271881,168.924225 272.999512,159.723953 271.669434,149.635010 
z"/>
</svg>