<svg version="1.1" id="Layer_1" xmlns="http://www.w3.org/2000/svg" xmlns:xlink="http://www.w3.org/1999/xlink" x="0px" y="0px"
	 width="100%" viewBox="0 0 512 512" enable-background="new 0 0 512 512" xml:space="preserve">
<path fill="#000000" opacity="1.000000" stroke="none" 
	d="
M315.968964,183.368378 
	C302.976257,183.363083 290.477234,183.353912 277.978210,183.352844 
	C271.320374,183.352264 271.309418,183.358582 271.309753,189.859970 
	C271.313354,257.354736 271.331726,324.849487 271.315521,392.344269 
	C271.313019,402.700470 272.174316,401.230804 262.149567,401.344421 
	C257.317261,401.399200 252.466797,401.098297 247.655746,401.422119 
	C243.114975,401.727692 241.874786,399.762451 242.009933,395.574982 
	C242.343063,385.252991 242.532913,374.922150 242.542084,364.594635 
	C242.593155,307.099182 242.576645,249.603607 242.574020,192.108078 
	C242.573624,183.368118 242.551376,183.368134 233.630402,183.366516 
	C219.631500,183.363998 205.630768,183.486450 191.634796,183.282578 
	C187.446655,183.221558 186.244598,184.683212 186.270264,188.775894 
	C186.425964,213.606323 186.229736,238.439255 186.448517,263.268738 
	C186.491058,268.096466 185.071869,269.747528 180.237259,269.437042 
	C174.262100,269.053223 168.239532,269.196289 162.246231,269.387299 
	C158.735214,269.499176 157.437714,268.109192 157.624054,264.696869 
	C157.796432,261.540039 157.652039,258.366089 157.652008,255.199692 
	C157.651367,199.370682 157.649841,143.541687 157.653488,87.712677 
	C157.653946,80.674156 157.666916,80.667961 164.782806,80.655792 
	C170.282364,80.646385 175.791611,80.854607 181.278275,80.588737 
	C185.250931,80.396248 186.435074,81.897537 186.409531,85.777298 
	C186.268036,107.274681 186.342300,128.773514 186.349625,150.271835 
	C186.351898,156.948502 186.361816,156.990128 192.908264,156.993561 
	C235.571579,157.015930 278.234894,157.025314 320.898193,157.021301 
	C327.623871,157.020660 327.643219,156.979248 327.646149,150.430237 
	C327.655701,129.098557 327.776703,107.765541 327.550812,86.436256 
	C327.501221,81.752708 329.054016,80.332214 333.554565,80.579674 
	C339.369781,80.899429 345.226685,80.869179 351.045349,80.580643 
	C355.246338,80.372314 356.442078,81.968971 356.419006,86.044083 
	C356.273773,111.707932 356.347870,137.373016 356.346863,163.037689 
	C356.345551,196.368423 356.236938,229.699844 356.450043,263.029205 
	C356.482758,268.148621 354.934937,269.792389 349.922180,269.428131 
	C344.451385,269.030518 338.908661,269.038361 333.436279,269.423462 
	C328.628784,269.761749 327.548462,267.745148 327.577057,263.358551 
	C327.732361,239.528091 327.677399,215.696030 327.636444,191.864624 
	C327.620605,182.658997 328.777313,183.426910 318.960266,183.365448 
	C318.127747,183.360229 317.295197,183.366806 315.968964,183.368378 
z"/>
</svg>