<svg version="1.1" id="Layer_1" xmlns="http://www.w3.org/2000/svg" xmlns:xlink="http://www.w3.org/1999/xlink" x="0px" y="0px"
	 width="100%" viewBox="0 0 512 512" enable-background="new 0 0 512 512" xml:space="preserve">
<path fill="#000000" opacity="1.000000" stroke="none" 
	d="
M161.359772,402.720642 
	C155.924988,399.412720 150.875977,396.159424 145.631378,393.259949 
	C142.242935,391.386658 142.307343,389.586853 144.291656,386.555298 
	C160.714325,361.465637 177.021774,336.300354 193.315552,311.126526 
	C208.251495,288.050537 223.020233,264.857239 239.577576,242.890564 
	C242.100876,239.542892 240.597885,237.413376 238.810699,234.973083 
	C218.712219,207.529480 200.837357,178.604996 182.297607,150.124268 
	C169.664795,130.717728 157.213409,111.192337 144.462524,91.864143 
	C142.259827,88.525223 142.401138,86.830330 145.922379,84.908997 
	C151.475220,81.879143 156.962051,78.682983 162.217072,75.168785 
	C165.648544,72.874054 167.307816,73.918076 169.298050,77.019310 
	C188.374878,106.745041 207.573730,136.392426 226.727539,166.068771 
	C236.927399,181.872162 247.475586,197.457703 256.327545,213.912979 
	C258.217285,213.919388 258.410248,212.557846 258.953186,211.627777 
	C276.264893,181.972382 295.814270,153.742661 314.272247,124.818031 
	C324.309082,109.089798 334.642975,93.550575 344.616272,77.782784 
	C347.066956,73.908203 349.034424,72.841995 353.174835,75.727753 
	C359.152985,79.894356 365.611420,83.371925 371.413910,86.871490 
	C371.896423,88.665222 371.276062,89.472275 370.733093,90.309799 
	C344.179962,131.267334 317.679718,172.259338 291.030914,213.154526 
	C286.033417,220.823654 280.596130,228.223038 275.049438,235.509079 
	C272.860504,238.384399 272.741486,240.288635 274.912170,243.324677 
	C308.549225,290.370941 338.568878,339.818817 370.678589,387.881744 
	C371.130585,388.558380 371.405914,389.353027 372.172028,390.936584 
	C364.678223,395.506256 357.252777,400.111603 349.738281,404.566803 
	C347.631287,405.816010 346.830780,403.787598 345.954407,402.441559 
	C328.773621,376.052002 311.566376,349.679504 294.450470,323.247925 
	C282.319366,304.514221 269.542969,286.184875 258.744812,266.609100 
	C258.368622,265.927155 257.769226,265.368317 256.834595,264.205658 
	C252.499741,271.381470 248.566513,278.248749 244.297501,284.900543 
	C219.372742,323.737152 194.326096,362.495667 169.462158,401.371094 
	C167.089325,405.081055 164.951569,405.836456 161.359772,402.720642 
z"/>
<path fill="#000000" opacity="1.000000" stroke="none" 
	d="
M152.031036,241.217834 
	C145.907028,239.544266 139.767395,239.862686 133.718582,237.417984 
	C139.132645,207.654510 144.496643,178.166306 149.969925,148.077316 
	C158.800262,149.773712 167.048813,151.358337 175.991287,153.076279 
	C174.395386,161.698563 172.862732,169.943741 171.344009,178.191467 
	C167.854797,197.140396 164.420212,216.099533 160.862350,235.035522 
	C159.546677,242.037994 159.417419,242.013702 152.031036,241.217834 
z"/>
<path fill="#000000" opacity="1.000000" stroke="none" 
	d="
M351.726929,227.091614 
	C347.167755,202.368042 342.660217,178.070618 338.038055,153.155441 
	C346.711548,151.415451 354.949158,149.762894 363.969635,147.953293 
	C369.437927,177.968475 374.831696,207.574783 380.295135,237.563431 
	C372.369446,239.842422 364.585632,240.455933 356.967712,241.876877 
	C354.629730,242.312943 354.251404,240.400101 353.916443,238.777878 
	C353.144043,235.036835 352.484100,231.272598 351.726929,227.091614 
z"/>
</svg>