<svg version="1.1" id="Layer_1" xmlns="http://www.w3.org/2000/svg" xmlns:xlink="http://www.w3.org/1999/xlink" x="0px" y="0px"
	 width="100%" viewBox="0 0 512 512" enable-background="new 0 0 512 512" xml:space="preserve">
<path fill="#000000" opacity="1.000000" stroke="none" 
	d="
M241.810730,382.998840 
	C241.810211,339.018982 241.015625,295.517670 242.167206,252.067932 
	C242.694077,232.188980 234.387955,219.264221 218.887817,208.984589 
	C211.687759,204.209518 204.706787,199.092392 197.779800,193.888351 
	C176.841583,178.158081 176.407257,149.067535 193.499634,131.623596 
	C199.714691,125.280678 206.747162,119.996628 213.714767,114.617134 
	C227.101074,104.281982 240.248535,93.799637 246.257248,76.436211 
	C254.553223,79.164764 262.427917,81.672745 270.240021,84.362579 
	C273.593048,85.517090 271.738434,88.112808 271.048950,89.801880 
	C267.218292,99.185806 261.511108,107.172913 253.726089,113.857620 
	C245.359467,121.041718 236.059296,126.854637 227.122986,133.201096 
	C223.162827,136.013550 219.490829,139.121170 216.109100,142.563904 
	C207.129379,151.705688 207.497238,165.320908 216.920105,174.079590 
	C226.104843,182.616928 237.059036,188.807251 246.838181,196.581818 
	C262.843231,209.306076 271.317047,225.397156 271.263245,246.050888 
	C271.134857,295.361450 271.236481,344.672607 271.241180,393.983521 
	C271.241882,401.349609 271.231812,401.354279 263.825348,401.355103 
	C257.994690,401.355774 252.161743,401.242706 246.334305,401.376160 
	C243.145309,401.449188 241.749802,400.185608 241.811142,396.991791 
	C241.897491,392.495667 241.819412,387.996399 241.810730,382.998840 
z"/>
<path fill="#000000" opacity="1.000000" stroke="none" 
	d="
M279.826233,175.308655 
	C283.052399,164.617676 290.338074,157.255661 297.707367,150.026703 
	C301.150757,146.648911 304.825012,143.512375 307.807129,139.690643 
	C313.826447,131.976456 312.227173,124.129791 303.549744,119.470543 
	C297.587891,116.269379 290.977142,115.214218 284.377045,114.355469 
	C277.665649,113.482246 277.556458,113.470222 279.255646,107.125450 
	C280.630676,101.991180 282.129730,96.886658 283.353119,91.716743 
	C283.944641,89.216850 285.245575,88.432755 287.615631,88.887535 
	C298.227081,90.923744 308.690247,93.218575 318.753693,97.522232 
	C339.774658,106.511902 347.549866,133.607254 327.563812,151.991074 
	C324.138550,155.141724 320.589203,158.159164 317.056854,161.191208 
	C314.399048,163.472580 311.818207,165.812485 309.747101,168.667282 
	C304.660950,175.677963 306.598999,181.932083 314.807007,184.554977 
	C321.970581,186.844116 329.431885,187.726974 336.860657,188.478745 
	C340.721771,188.869461 341.687408,190.092392 340.668396,193.831436 
	C339.228851,199.113663 338.284668,204.531372 337.144470,209.894516 
	C336.605713,212.428696 335.576111,214.076172 332.473755,213.824783 
	C322.200256,212.992249 311.957855,212.194458 301.960632,209.334930 
	C288.049713,205.355988 275.667389,196.619385 279.826233,175.308655 
z"/>
</svg>