<svg version="1.1" id="Layer_1" xmlns="http://www.w3.org/2000/svg" xmlns:xlink="http://www.w3.org/1999/xlink" x="0px" y="0px"
	 width="100%" viewBox="0 0 512 512" enable-background="new 0 0 512 512" xml:space="preserve">
<path fill="#000000" opacity="1.000000" stroke="none" 
	d="
M242.657150,183.999878 
	C242.657990,151.337234 242.764816,119.173882 242.548965,87.012711 
	C242.514893,81.933807 243.982803,80.215965 249.043518,80.567574 
	C254.848190,80.970871 260.708221,80.824265 266.532684,80.607231 
	C270.278107,80.467674 271.419861,81.960571 271.394196,85.579407 
	C271.068146,131.567566 271.888031,177.559753 270.895935,223.545441 
	C270.857056,225.349167 270.631561,227.095413 273.024170,227.181625 
	C275.381714,227.266556 277.986786,228.102966 279.038605,224.490585 
	C281.221527,216.993423 283.618622,209.551315 286.166107,202.168839 
	C296.972900,170.851440 309.617828,140.234467 321.670135,109.391991 
	C325.305267,100.089531 329.120178,90.856026 332.649780,81.514244 
	C334.056976,77.789795 335.806458,76.561302 339.756134,78.376656 
	C345.492828,81.013344 351.479828,83.102966 357.344360,85.464981 
	C359.935577,86.508614 361.483948,87.832489 360.044037,91.134552 
	C341.552094,133.540527 323.932831,176.326431 304.614075,218.372192 
	C303.455841,220.892960 302.048279,223.299164 300.282257,226.662216 
	C306.328583,226.662216 311.570801,226.913803 316.777161,226.589676 
	C321.736664,226.280899 323.328400,228.495926 323.128052,233.084946 
	C322.931946,237.576218 322.969879,242.084473 323.085907,246.580612 
	C323.192535,250.711395 321.434814,252.850021 317.217926,252.821182 
	C303.558746,252.727768 289.896545,252.784500 276.241730,252.491623 
	C270.842957,252.375824 270.515808,252.471466 270.920502,257.826019 
	C271.233948,261.973297 271.294006,266.147156 271.297699,270.309326 
	C271.334412,311.804108 271.340210,353.298889 271.343170,394.793671 
	C271.343628,401.344330 271.316895,401.352875 264.706177,401.362854 
	C259.040222,401.371399 253.367004,401.180542 247.710815,401.413391 
	C243.715210,401.577942 242.579071,399.941803 242.603485,396.121643 
	C242.737762,375.125122 242.550125,354.126465 242.700012,333.130157 
	C242.884323,307.308167 241.978424,281.476807 243.281479,255.665863 
	C243.449554,252.336426 241.501007,252.146576 239.146851,252.347321 
	C225.835190,253.482330 212.499878,252.707916 199.176758,252.851181 
	C191.748627,252.931061 190.958023,251.995193 190.930695,244.471191 
	C190.916168,240.471863 191.043884,236.469406 190.925720,232.473740 
	C190.802536,228.309494 192.401871,226.366898 196.824615,226.591232 
	C202.111694,226.859421 207.422745,226.654510 213.632095,226.654510 
	C210.833466,220.780380 208.251404,215.508102 205.793594,210.178513 
	C188.152252,171.924332 172.355164,132.867249 155.398712,94.314476 
	C152.316132,87.305794 152.434708,87.252907 159.559128,84.373932 
	C164.649078,82.317078 169.818817,80.434509 174.803711,78.148666 
	C178.404022,76.497726 179.972565,77.983383 181.201340,81.126465 
	C191.974045,108.682373 202.817734,136.210541 213.585678,163.768311 
	C220.419495,181.257690 227.367233,198.710434 232.351639,216.854874 
	C232.967407,219.096420 233.776184,221.315018 234.099518,223.600281 
	C234.690964,227.780731 237.750259,227.334747 240.527542,227.200272 
	C244.298431,227.017670 243.129089,224.221802 243.097687,221.985077 
	C242.922287,209.490402 242.798279,196.995026 242.657150,183.999878 
z"/>
</svg>