<svg version="1.1" id="Layer_1" xmlns="http://www.w3.org/2000/svg" xmlns:xlink="http://www.w3.org/1999/xlink" x="0px" y="0px"
	 width="100%" viewBox="0 0 512 512" enable-background="new 0 0 512 512" xml:space="preserve">
<path fill="#000000" opacity="1.000000" stroke="none" 
	d="
M315.807983,165.869431 
	C313.862122,164.458145 313.738556,166.209122 313.387421,167.072006 
	C303.309479,191.835861 289.606995,214.765228 276.786285,238.096298 
	C271.968018,246.864502 270.722015,255.391281 271.437012,264.806458 
	C271.777252,269.286682 272.119812,273.781281 272.127411,278.269928 
	C272.193085,317.099365 272.186188,355.928955 272.191559,394.758484 
	C272.192444,401.327026 272.171783,401.336853 265.516144,401.348724 
	C259.683411,401.359131 253.844177,401.176025 248.020142,401.399475 
	C244.137421,401.548401 242.645538,400.146790 242.762924,396.213837 
	C242.976669,389.054199 242.829254,381.883698 242.829407,374.717743 
	C242.830185,338.387939 242.813477,302.058105 242.857681,265.728363 
	C242.861725,262.408539 243.191605,259.083710 243.485352,255.771408 
	C243.709274,253.246567 243.695633,250.852173 242.459412,248.494034 
	C228.154266,221.206390 212.755310,194.482101 200.085083,166.350723 
	C199.894394,165.927368 199.515869,165.588593 198.767303,164.615143 
	C191.708542,181.735809 180.292908,195.562439 169.547867,210.438126 
	C162.403687,205.086838 155.654068,200.031097 148.354065,194.563095 
	C152.778671,188.586472 156.873047,182.981094 161.046310,177.435089 
	C168.659637,167.317505 176.214996,157.153061 184.023117,147.187256 
	C186.412781,144.137253 186.721619,141.747269 184.760605,138.269531 
	C176.333359,123.324402 168.294815,108.160408 159.907990,93.191940 
	C157.952362,89.701607 158.417953,88.099892 162.154388,86.513481 
	C168.433060,83.847672 174.538010,80.743538 180.584702,77.573273 
	C183.488495,76.050819 185.106369,76.548370 186.401413,79.524742 
	C192.366592,93.234444 200.818893,105.804131 205.385834,121.675247 
	C214.750076,105.978127 223.801529,91.257057 234.218063,76.382309 
	C241.142105,81.387688 247.793015,86.195618 254.544846,91.076492 
	C253.125656,94.784454 250.798599,97.398163 248.844086,100.237633 
	C239.498535,113.814636 230.830292,127.903091 219.195007,139.756363 
	C216.660568,142.338287 217.473495,144.682449 219.084320,147.357086 
	C228.372681,162.779694 236.757462,178.697449 244.719971,194.836700 
	C249.282196,204.083939 253.424744,213.516327 256.511963,224.543747 
	C258.662262,219.263718 260.182343,214.834290 262.215973,210.654709 
	C272.638702,189.233566 283.473663,168.016602 295.239594,147.301926 
	C297.223999,143.808212 296.838104,141.665802 294.272400,139.118637 
	C280.786591,125.730156 271.344849,109.333191 260.710052,93.825317 
	C260.251129,93.156143 259.951355,92.377853 259.359314,91.225922 
	C265.456573,86.776680 271.496460,82.403511 277.495605,77.975151 
	C279.965485,76.152008 281.109619,77.911751 282.213593,79.637009 
	C290.111725,91.979950 298.636017,103.934029 305.404205,116.980530 
	C306.310394,118.727348 307.391602,120.383377 308.409668,122.111839 
	C310.468018,121.125168 310.659485,119.307442 311.214264,117.848312 
	C316.131714,104.914597 322.219910,92.489738 327.607666,79.763550 
	C329.066681,76.317261 330.733704,76.210693 333.703003,77.734703 
	C339.777435,80.852432 345.911682,83.882706 352.177551,86.586967 
	C355.716431,88.114296 356.051086,89.748062 354.235382,93.009613 
	C345.809113,108.146111 337.693176,123.455849 329.216644,138.563568 
	C327.378448,141.839767 327.546661,144.052628 329.820953,147.007050 
	C340.796906,161.265579 351.551910,175.694336 362.362946,190.079498 
	C363.347931,191.390121 364.174347,192.819946 365.377899,194.657990 
	C358.430511,199.892746 351.708893,204.957413 344.477234,210.406357 
	C334.205353,195.761627 323.201599,182.186310 315.807983,165.869431 
z"/>
</svg>