<svg version="1.1" id="Layer_1" xmlns="http://www.w3.org/2000/svg" xmlns:xlink="http://www.w3.org/1999/xlink" x="0px" y="0px"
	 width="100%" viewBox="0 0 512 512" enable-background="new 0 0 512 512" xml:space="preserve">
<path fill="#000000" opacity="1.000000" stroke="none" 
	d="
M332.334900,188.973877 
	C332.165466,200.632843 333.633057,199.296387 322.484009,199.345856 
	C307.153503,199.413895 291.821381,199.453064 276.492371,199.284500 
	C272.662354,199.242386 271.186646,200.329971 271.243164,204.365723 
	C271.446136,218.860611 271.444550,233.361252 271.268158,247.856659 
	C271.220154,251.802444 272.583801,253.103806 276.465271,253.072617 
	C292.961426,252.940018 309.461395,253.176575 325.955536,252.952896 
	C330.946899,252.885193 332.858978,254.450806 332.432617,259.551758 
	C332.017578,264.517059 332.158783,269.549774 332.369965,274.539581 
	C332.527893,278.270966 331.033630,279.440002 327.402618,279.411011 
	C310.739716,279.278076 294.072540,279.517212 277.412933,279.248871 
	C272.603851,279.171448 271.183258,280.592529 271.208557,285.427429 
	C271.399597,321.920563 271.242249,358.415466 271.423370,394.908691 
	C271.447479,399.767212 270.365631,401.903625 265.081299,401.459686 
	C259.620605,401.000946 254.091629,401.362091 248.592545,401.349762 
	C242.075516,401.335144 242.001602,401.304382 242.068436,394.526154 
	C242.201477,381.033081 242.508667,367.540894 242.542236,354.047852 
	C242.599442,331.062134 242.464081,308.075958 242.501770,285.090149 
	C242.508575,280.939301 241.065125,279.222076 236.618088,279.281097 
	C220.123672,279.500122 203.623550,279.265930 187.128021,279.437439 
	C183.103241,279.479279 181.355148,278.347656 181.588425,274.095367 
	C181.870926,268.945068 181.918686,263.749786 181.575195,258.606873 
	C181.269119,254.024231 183.255768,252.958481 187.421326,252.999634 
	C203.250412,253.156006 219.082153,253.050735 234.912903,253.031967 
	C241.986481,253.023590 242.049805,252.949188 242.085510,245.704605 
	C242.152008,232.208817 242.113281,218.711334 242.337067,205.218185 
	C242.412292,200.681992 240.784058,199.193054 236.171524,199.267914 
	C220.178345,199.527466 204.178329,199.372818 188.180923,199.362854 
	C181.680511,199.358810 181.672211,199.343719 181.654480,192.658386 
	C181.641678,187.825867 181.863937,182.981461 181.591614,178.164383 
	C181.363205,174.124359 183.083801,172.993042 186.856964,173.019806 
	C203.020111,173.134521 219.184662,173.061874 235.348679,173.038742 
	C241.898376,173.029373 242.077820,172.885696 242.084076,166.288757 
	C242.109009,139.959778 242.088348,113.630760 242.099747,87.301750 
	C242.102615,80.695503 242.147049,80.669708 248.791504,80.656914 
	C254.457245,80.646004 260.138672,80.914169 265.783783,80.573021 
	C270.280579,80.301262 271.431366,82.020119 271.405823,86.319534 
	C271.247498,112.980873 271.333191,139.643692 271.348053,166.306015 
	C271.351776,172.990234 271.368896,173.001465 277.909454,173.007797 
	C294.073486,173.023438 310.238495,173.126572 326.400970,172.972153 
	C330.837799,172.929749 332.911896,174.259155 332.406250,178.991577 
	C332.071808,182.121323 332.337860,185.315231 332.334900,188.973877 
z"/>
</svg>