<svg version="1.1" id="Layer_1" xmlns="http://www.w3.org/2000/svg" xmlns:xlink="http://www.w3.org/1999/xlink" x="0px" y="0px"
	 width="100%" viewBox="0 0 512 512" enable-background="new 0 0 512 512" xml:space="preserve">
<path fill="#000000" opacity="1.000000" stroke="none" 
	d="
M311.671265,376.208374 
	C311.151733,373.384155 310.204163,371.024231 310.705841,368.346863 
	C314.727051,367.136261 318.760651,366.155457 322.618988,364.707550 
	C328.978149,362.321106 333.832336,358.248352 335.930908,351.477417 
	C338.080261,344.542633 335.583984,338.137451 329.304657,334.343445 
	C324.149139,331.228455 318.457855,330.211426 312.575012,329.970459 
	C308.769897,329.814575 306.532837,328.516388 306.271606,324.165039 
	C305.964508,319.049316 304.911041,313.978394 304.141907,308.613678 
	C310.183746,306.602539 316.105042,306.213318 321.984772,307.320770 
	C325.908020,308.059692 327.380981,306.628845 328.250427,303.080872 
	C332.370148,286.269684 335.293854,269.249573 337.662964,252.115753 
	C339.627869,237.905151 340.282074,223.572495 340.257843,209.302399 
	C340.229950,192.861893 339.160400,176.400665 336.376587,160.103043 
	C334.814941,150.960480 333.872009,141.710449 333.438629,132.136108 
	C331.543365,132.716385 331.103607,134.202118 330.479645,135.417862 
	C311.770264,171.870636 293.103333,208.345215 274.358673,244.779831 
	C272.782623,247.843292 272.117645,250.921249 272.122345,254.347748 
	C272.185883,301.008545 272.175812,347.669434 272.180328,394.330292 
	C272.181000,401.326813 272.172546,401.334991 265.423676,401.347839 
	C259.924377,401.358307 254.406921,401.069031 248.931076,401.426575 
	C244.027969,401.746735 242.719864,399.844055 242.736710,395.118713 
	C242.892853,351.291260 242.650543,307.461609 242.997070,263.636322 
	C243.071976,254.163559 241.075180,245.871414 236.681458,237.489502 
	C218.431183,202.673340 200.663086,167.604462 182.706573,132.634216 
	C181.959396,131.179123 181.097519,129.782944 179.964020,127.786858 
	C177.570450,134.400772 178.183716,140.789413 177.613235,146.925613 
	C175.504471,169.608337 172.494461,192.251801 173.338089,215.129761 
	C174.438202,244.963196 178.523499,274.372070 185.594681,303.375397 
	C186.399643,306.677002 187.854095,308.166656 191.552216,307.371246 
	C197.488144,306.094513 203.410095,306.886597 209.451309,308.294434 
	C209.649124,314.691803 207.622818,320.586609 206.955322,326.650787 
	C206.709503,328.884125 204.893448,329.407349 202.944794,329.653778 
	C198.987076,330.154327 194.942413,330.360626 191.108597,331.359741 
	C184.569885,333.063843 178.843491,336.185089 177.451782,343.620972 
	C176.005447,351.348785 179.563034,358.280609 186.593216,362.570099 
	C191.669586,365.667511 197.482910,366.532532 203.525040,368.278351 
	C202.788239,376.533661 200.601074,384.445831 198.928909,392.387299 
	C180.220306,391.854401 155.782639,377.026062 151.424393,356.894012 
	C148.359726,342.737305 150.779785,330.409912 161.696915,320.527588 
	C165.176285,317.378052 165.731003,314.661072 164.405716,310.146576 
	C156.624573,283.640442 149.707260,256.863281 146.975754,229.316315 
	C144.985962,209.249557 146.140701,189.134552 149.177917,169.137115 
	C152.598801,146.613724 157.085052,124.311218 162.318054,102.152573 
	C162.962509,99.423676 162.009857,97.281311 160.907959,95.026657 
	C157.891846,88.855202 157.891739,88.835129 164.128494,85.603493 
	C169.304993,82.921249 174.560303,80.385208 179.671265,77.584679 
	C182.541061,76.012184 184.009949,76.631744 185.450378,79.568375 
	C206.870544,123.237976 228.474213,166.817810 249.796494,210.534943 
	C253.355927,217.832840 255.999329,225.611420 257.452606,233.753464 
	C262.134430,212.426086 273.296722,193.826523 282.516418,174.478165 
	C297.204468,143.653961 312.721466,113.224518 327.931488,82.649826 
	C328.951233,80.599907 329.605896,78.281349 332.032623,76.254379 
	C339.520569,80.012733 347.230591,83.859070 354.915466,87.755028 
	C357.032135,88.828094 356.596619,90.653374 355.491974,91.973557 
	C350.275635,98.207581 351.998169,104.791939 353.725220,111.736015 
	C359.143494,133.522049 363.283447,155.588348 366.080292,177.853424 
	C369.592010,205.809631 368.117126,233.608307 361.948792,261.141785 
	C358.095825,278.340271 354.224670,295.532867 348.611542,312.263672 
	C347.616974,315.228119 348.107208,317.062744 350.638611,319.039276 
	C371.027008,334.958862 365.890472,364.627411 349.432831,377.883667 
	C338.217407,386.917419 326.390289,391.956421 315.384430,392.440308 
	C313.281006,387.430145 313.197906,381.849335 311.671265,376.208374 
z"/>
</svg>