<svg version="1.1" id="Layer_1" xmlns="http://www.w3.org/2000/svg" xmlns:xlink="http://www.w3.org/1999/xlink" x="0px" y="0px"
	 width="100%" viewBox="0 0 512 512" enable-background="new 0 0 512 512" xml:space="preserve">
<path fill="#000000" opacity="1.000000" stroke="none" 
	d="
M347.213959,341.000000 
	C347.215424,359.496979 347.098145,377.495300 347.299957,395.490021 
	C347.351288,400.064056 345.888214,401.692139 341.273224,401.436554 
	C334.959961,401.086884 328.611511,401.241302 322.282043,401.370087 
	C319.032043,401.436218 317.715057,400.023193 317.836853,396.900574 
	C317.901764,395.237030 317.827698,393.568390 317.827667,391.902039 
	C317.826660,290.752350 317.826691,189.602631 317.827209,88.452934 
	C317.827240,80.656174 317.829285,80.653847 325.804260,80.653938 
	C331.469940,80.653999 337.138031,80.761299 342.800415,80.626755 
	C346.012207,80.550438 347.332062,81.852211 347.253448,85.043716 
	C347.134460,89.873390 347.211395,94.707977 347.211395,99.540482 
	C347.211578,179.860321 347.212738,260.180176 347.213959,341.000000 
z"/>
<path fill="#000000" opacity="1.000000" stroke="none" 
	d="
M171.195282,80.664413 
	C177.669449,80.655884 183.677887,80.890221 189.657166,80.573792 
	C194.122437,80.337486 195.339005,82.049088 195.322784,86.351479 
	C195.184570,122.992676 195.240067,159.634598 195.238113,196.276306 
	C195.234573,262.064819 195.232330,327.853363 195.226974,393.641876 
	C195.226349,401.344208 195.218826,401.347931 187.655548,401.351166 
	C182.325851,401.353424 176.990036,401.186646 171.668518,401.393005 
	C167.912872,401.538666 166.643082,399.961456 166.785156,396.371887 
	C166.969437,391.715607 166.837265,387.046661 166.837143,382.383179 
	C166.834778,284.283295 166.816010,186.183380 166.908737,88.083572 
	C166.911407,85.264503 165.000397,80.823059 171.195282,80.664413 
z"/>
<path fill="#000000" opacity="1.000000" stroke="none" 
	d="
M277.704712,249.827759 
	C277.751190,244.978012 279.875610,243.349411 284.335449,243.605576 
	C290.310516,243.948792 296.320892,243.777100 302.313477,243.673752 
	C305.363525,243.621170 306.619720,244.954697 306.253571,247.892853 
	C303.895020,266.819733 297.053436,283.539276 278.794983,291.926208 
	C260.262909,300.438812 242.264267,297.509369 226.665939,284.095764 
	C215.991074,274.916046 209.293137,263.277344 207.520752,249.018799 
	C207.036316,245.121658 207.955460,243.492172 212.122437,243.639877 
	C218.774506,243.875671 225.443024,243.789902 232.100861,243.655502 
	C234.968262,243.597610 236.342377,244.679688 236.730820,247.535934 
	C237.177551,250.820557 237.946808,254.031952 239.027054,257.214172 
	C242.432907,267.247284 251.208313,271.550354 262.595459,270.083252 
	C268.668823,269.300751 272.410858,265.594543 274.811737,260.289276 
	C276.255524,257.098907 277.318390,253.769928 277.704712,249.827759 
z"/>
<path fill="#000000" opacity="1.000000" stroke="none" 
	d="
M262.655060,157.040192 
	C290.819000,159.457184 303.945892,182.317535 306.254059,204.946762 
	C306.585052,208.191666 305.297882,209.454727 302.031311,209.378113 
	C295.703491,209.229706 289.364777,209.178802 283.040436,209.387009 
	C279.356873,209.508286 277.941223,207.927048 277.795624,204.449936 
	C277.590851,199.560410 276.415985,194.811050 273.785950,190.706528 
	C266.971252,180.071304 248.876434,180.095184 241.745667,190.642090 
	C238.795227,195.006012 237.301315,199.965622 236.738373,205.133942 
	C236.406174,208.183899 235.320984,209.494904 232.077789,209.397675 
	C225.252716,209.193115 218.415588,209.236465 211.587051,209.368011 
	C208.319305,209.430923 207.234985,208.296890 207.505066,204.934875 
	C209.363251,181.803452 230.827606,154.797607 262.655060,157.040192 
z"/>
</svg>