<svg version="1.1" id="Layer_1" xmlns="http://www.w3.org/2000/svg" xmlns:xlink="http://www.w3.org/1999/xlink" x="0px" y="0px"
	 width="100%" viewBox="0 0 512 512" enable-background="new 0 0 512 512" xml:space="preserve">
<path fill="#000000" opacity="1.000000" stroke="none" 
	d="
M295.602295,353.430939 
	C302.316345,367.606201 308.290436,381.673981 313.461792,396.092316 
	C314.946808,400.232666 313.929291,401.527069 309.676544,401.391052 
	C303.516449,401.194031 297.336639,401.136841 291.182373,401.408356 
	C287.245117,401.582031 285.177765,400.200592 283.786224,396.439880 
	C276.616821,377.063782 268.487457,358.087738 259.041534,339.701538 
	C254.321167,330.513519 249.347763,321.474670 243.045776,313.214661 
	C240.453033,309.816376 238.732620,309.978699 236.339661,313.414429 
	C226.068466,328.161407 219.089325,344.553497 212.467361,361.093353 
	C207.830246,372.675659 203.639038,384.442993 199.520782,396.222809 
	C198.214233,399.960052 196.257416,401.562622 192.253555,401.406006 
	C185.930389,401.158691 179.589355,401.282623 173.257614,401.371826 
	C169.466263,401.425232 168.617691,400.014435 169.983749,396.469116 
	C180.580292,368.967468 191.286743,341.524719 206.359818,316.047089 
	C213.110748,304.636169 217.583878,300.031342 228.583542,293.703796 
	C224.598587,292.159241 220.866425,293.144470 217.338898,293.463806 
	C196.727188,295.329803 176.075943,294.888489 155.429428,294.953766 
	C151.576248,294.965942 149.712738,293.424286 149.280396,289.473816 
	C147.562241,273.774933 145.648743,258.097412 143.805222,242.412247 
	C141.087708,219.291199 138.413254,196.164993 135.636963,173.050995 
	C132.781586,149.278656 129.738144,125.528534 126.980583,101.745079 
	C126.348503,96.293480 126.026054,90.807091 125.026329,85.396408 
	C124.456650,82.313187 125.515472,80.619530 128.922958,80.654030 
	C136.255066,80.728264 143.588867,80.723373 150.921082,80.655525 
	C153.704910,80.629768 155.051025,81.543427 155.424408,84.590950 
	C157.749527,103.567917 159.547699,122.595528 161.385513,141.622772 
	C162.999710,158.334824 165.015488,175.007690 166.752701,191.708374 
	C168.351624,207.079651 169.799515,222.466599 171.345062,237.843506 
	C172.342560,247.767868 173.410095,257.685181 174.413086,267.609009 
	C174.616638,269.623047 175.646225,270.606018 177.648514,270.608887 
	C184.147873,270.618195 190.647232,270.622620 197.146576,270.637604 
	C199.959854,270.644104 201.004715,269.146545 200.762512,266.486450 
	C199.253616,249.915237 200.177414,233.212997 198.081467,216.670929 
	C197.852081,214.860535 197.808792,213.013504 197.835388,211.185745 
	C198.118942,191.691879 196.164062,172.275223 195.231750,152.843872 
	C194.244720,132.272202 193.734177,111.637596 191.810425,91.102776 
	C191.624512,89.118179 191.819641,87.100052 191.681625,85.108315 
	C191.461853,81.936592 192.764359,80.576927 196.018936,80.635078 
	C203.016220,80.760101 210.019592,80.774323 217.016022,80.625381 
	C220.698364,80.546989 222.124603,82.255066 222.176147,85.713142 
	C222.282913,92.876167 222.353821,100.042549 222.640335,107.199516 
	C223.431976,126.973366 224.267227,146.745911 225.200684,166.513504 
	C225.891861,181.150070 225.615479,195.855286 226.699188,210.423843 
	C228.082504,229.019760 227.576035,247.659897 229.107193,266.227112 
	C229.392700,269.689240 230.838593,270.800903 234.153992,270.685852 
	C239.480484,270.500977 244.820267,270.555145 250.150574,270.677124 
	C253.264038,270.748383 254.644897,269.646027 254.710861,266.346222 
	C254.966995,253.533005 255.325058,240.719788 255.836227,227.914185 
	C257.050232,197.502686 258.381622,167.095901 259.648682,136.686508 
	C260.348236,119.896767 261.130463,103.108978 261.614380,86.312790 
	C261.739349,81.975143 263.287659,80.410980 267.585266,80.594582 
	C273.740326,80.857544 279.925232,80.876579 286.077850,80.586136 
	C290.341064,80.384880 291.607452,82.089119 291.388275,86.114914 
	C290.312439,105.874252 289.353790,125.640160 288.409241,145.406403 
	C287.225739,170.172989 286.525757,194.972397 284.785370,219.699097 
	C283.709930,234.978394 283.953156,250.313461 282.311401,265.546783 
	C281.923615,269.144958 283.156036,270.812408 286.983032,270.690643 
	C292.810211,270.505219 298.649048,270.553619 304.479828,270.664856 
	C307.453857,270.721619 308.435394,269.473389 308.743195,266.549133 
	C311.928589,236.289597 315.329254,206.052750 318.526764,175.794449 
	C321.690125,145.859161 324.718323,115.909439 327.720215,85.957474 
	C328.071289,82.454666 329.090424,80.451111 333.150482,80.600746 
	C339.974091,80.852242 346.818848,80.824715 353.644745,80.604790 
	C357.488251,80.480949 358.762573,82.080467 358.329437,85.660683 
	C357.250732,94.577339 356.226288,103.500549 355.155670,112.418198 
	C352.540222,134.203949 349.898224,155.986511 347.289948,177.773117 
	C342.900726,214.435791 338.527100,251.100342 334.152588,287.764771 
	C333.333344,294.631348 333.030029,294.920715 326.174072,294.971222 
	C304.188538,295.133209 282.212891,294.953918 260.278198,293.191254 
	C258.709778,293.065186 257.019989,292.440521 255.510178,293.665466 
	C275.531647,306.472076 283.104340,327.892609 293.181763,347.554291 
	C294.087402,349.321228 294.703735,351.236420 295.602295,353.430939 
z"/>
<path fill="#000000" opacity="1.000000" stroke="none" 
	d="
M356.807556,270.101013 
	C346.411957,255.415588 348.049042,237.742401 360.628540,228.816681 
	C368.521179,223.216492 377.859131,221.039612 387.089966,218.843979 
	C391.447266,217.807556 395.962372,217.445129 400.338257,216.472626 
	C403.473633,215.775818 405.106354,216.971939 405.952911,219.795792 
	C407.337524,224.414337 408.812988,229.009277 410.048065,233.667755 
	C410.952332,237.078461 409.694702,239.047363 405.890900,239.321060 
	C399.407349,239.787567 393.047913,240.962494 386.882233,243.138962 
	C376.249390,246.892334 374.789734,253.215240 382.910339,261.162323 
	C389.679993,267.787292 397.353516,273.507080 402.818085,281.427368 
	C407.991425,288.925476 410.932465,296.896637 409.511566,306.246857 
	C407.974518,316.361328 402.101044,322.681000 392.979980,326.413818 
	C381.555115,331.089478 369.501801,332.335663 357.313721,332.765778 
	C353.970734,332.883759 352.180298,331.413055 351.590759,327.929413 
	C350.872131,323.683197 349.719788,319.497589 348.545166,315.345093 
	C347.428497,311.397339 348.824799,309.971130 352.822845,309.591064 
	C359.921021,308.916321 367.019958,307.974670 373.845581,305.722839 
	C383.166656,302.647705 384.717010,295.685516 377.302063,288.880310 
	C370.564606,282.696930 362.889862,277.540710 356.807556,270.101013 
z"/>
<path fill="#000000" opacity="1.000000" stroke="none" 
	d="
M216.938065,380.352753 
	C216.824219,376.150391 219.055252,374.981964 222.337219,374.980072 
	C235.138824,374.972748 247.940460,374.982697 260.742035,374.957855 
	C264.650665,374.950256 266.483093,376.634644 266.326843,380.736328 
	C266.118164,386.214905 266.210693,391.708374 266.298279,397.193451 
	C266.345459,400.147919 265.101837,401.370697 262.129700,401.356262 
	C248.496964,401.289978 234.863495,401.286560 221.230820,401.359802 
	C217.951843,401.377411 216.838318,399.837555 216.892914,396.771545 
	C216.987640,391.452942 216.924683,386.131500 216.938065,380.352753 
z"/>
</svg>