<svg version="1.1" id="Layer_1" xmlns="http://www.w3.org/2000/svg" xmlns:xlink="http://www.w3.org/1999/xlink" x="0px" y="0px"
	 width="100%" viewBox="0 0 512 512" enable-background="new 0 0 512 512" xml:space="preserve">
<path fill="#000000" opacity="1.000000" stroke="none" 
	d="
M315.971527,172.164825 
	C306.346802,176.974930 296.117645,177.147415 285.733948,177.965210 
	C286.183899,179.068085 286.235077,179.703888 286.540253,179.868393 
	C303.175964,188.835800 309.940094,204.204987 313.332642,221.592926 
	C316.143127,235.997437 317.023132,250.646652 317.105713,265.274658 
	C317.349274,308.423157 317.254913,351.573639 317.273102,394.723328 
	C317.275848,401.256592 317.151367,401.341431 310.476166,401.363708 
	C305.144958,401.381470 299.813599,401.384125 294.482422,401.366943 
	C288.063477,401.346252 287.995026,401.256409 287.999207,395.019592 
	C288.023529,358.867035 288.054443,322.714478 288.058105,286.561920 
	C288.059998,267.753387 287.930725,248.952988 284.682098,230.334366 
	C282.075806,215.397339 276.133728,202.460114 263.481781,193.203796 
	C260.107635,190.735260 257.832794,190.971817 254.882645,193.843735 
	C246.412445,202.089264 236.671677,208.410599 225.049698,211.237198 
	C208.036652,215.374969 191.722260,213.471771 176.181824,205.169861 
	C168.618347,201.129318 161.909836,196.071396 155.928192,189.935989 
	C153.810074,187.763474 153.281525,186.033615 155.339584,183.537781 
	C158.622055,179.557114 161.797470,175.474442 164.788025,171.271194 
	C167.122131,167.990570 169.267044,168.010071 172.089844,170.657516 
	C177.686783,175.906784 183.600845,180.897842 190.416306,184.407104 
	C204.819794,191.823425 219.073898,190.383759 232.628174,182.073654 
	C238.199417,178.657959 237.935867,176.492554 232.327789,173.372147 
	C216.757004,164.708359 201.203598,156.010574 185.525162,147.545059 
	C181.901932,145.588730 181.030548,143.653702 183.268372,140.114197 
	C185.936249,135.894501 188.407303,131.542633 190.796539,127.156982 
	C192.677383,123.704529 194.638870,122.936867 198.287460,125.230606 
	C213.792496,134.978058 229.469238,144.452454 245.090576,154.014648 
	C245.918976,154.521729 246.814041,154.919891 248.257233,155.669647 
	C250.899353,147.823517 250.584900,140.380264 247.493210,133.235764 
	C242.416595,121.504295 232.123535,115.237694 221.438660,109.546318 
	C216.424698,106.875587 211.071243,105.027054 205.589981,103.615898 
	C202.716232,102.876038 202.183060,101.178017 203.134460,98.783058 
	C205.407715,93.060623 207.797531,87.384399 210.151093,81.693985 
	C211.115982,79.361107 212.652206,78.347801 215.272980,79.199554 
	C235.373032,85.732162 253.712448,94.575356 266.247131,112.903778 
	C275.690277,126.711716 276.465149,141.670044 274.865814,157.344238 
	C274.799133,157.997513 274.676025,158.644958 274.605865,159.298004 
	C274.589294,159.452408 274.680725,159.618439 274.793549,160.052704 
	C277.477539,161.455063 279.777222,159.649384 282.061981,158.650558 
	C298.979919,151.254486 313.660797,140.229843 328.658295,129.726639 
	C331.657196,127.626427 334.610413,125.458984 337.542236,123.265816 
	C340.182556,121.290749 342.245636,121.348900 344.072327,124.449066 
	C347.368561,130.043243 350.806335,135.556519 354.290405,141.036560 
	C356.257996,144.131378 355.803864,146.252640 352.804474,148.607803 
	C341.378601,157.579681 329.697876,166.099335 315.971527,172.164825 
z"/>
</svg>