<svg version="1.1" id="Layer_1" xmlns="http://www.w3.org/2000/svg" xmlns:xlink="http://www.w3.org/1999/xlink" x="0px" y="0px"
	 width="100%" viewBox="0 0 512 512" enable-background="new 0 0 512 512" xml:space="preserve">
<path fill="#000000" opacity="1.000000" stroke="none" 
	d="
M364.906097,170.632828 
	C360.761292,183.242676 351.900879,191.359360 340.817841,196.499634 
	C320.051086,206.131165 299.065735,206.621582 278.477478,195.256561 
	C275.393280,193.554031 273.708221,190.120026 270.295715,188.962494 
	C268.870209,189.767929 269.201508,191.097824 269.328735,192.140182 
	C271.498383,209.915482 270.240784,227.760071 270.322021,245.566284 
	C270.550079,295.561096 270.399841,345.557587 270.592346,395.552704 
	C270.610229,400.203369 269.228271,401.711029 264.652802,401.457001 
	C258.504791,401.115601 252.322983,401.276550 246.158463,401.382904 
	C243.001221,401.437347 241.461578,400.206909 241.677307,396.979980 
	C241.732742,396.150757 241.671173,395.314026 241.671982,394.480743 
	C241.731339,332.649933 241.766846,270.819031 241.907318,208.988403 
	C241.916702,204.859421 242.601334,200.714584 243.199921,196.610367 
	C243.607681,193.814560 243.905319,191.080994 243.388474,188.461716 
	C242.125336,187.856583 241.491013,188.489914 240.925201,189.065140 
	C226.250275,203.984375 207.958694,205.104141 188.924545,202.152451 
	C173.576019,199.772308 160.646317,192.450912 152.832947,178.741333 
	C143.339157,162.083252 144.776764,145.316940 155.096573,129.228668 
	C158.042068,124.636734 161.773788,120.505295 162.922531,114.861328 
	C164.244308,108.367279 161.502365,103.835876 155.014771,102.267159 
	C151.738663,101.474983 148.426422,101.302200 145.089584,101.387383 
	C141.555008,101.477608 140.309021,99.720711 140.782043,96.372658 
	C141.503036,91.269424 142.163101,86.157616 142.864594,81.051590 
	C143.222672,78.445229 144.252869,76.565704 147.370758,77.014824 
	C156.765717,78.368103 166.171265,79.584412 174.880356,83.814758 
	C186.739990,89.575432 192.395340,101.059448 191.107849,114.248314 
	C190.096573,124.607681 185.184296,132.732788 179.386887,140.757889 
	C171.795517,151.266342 171.458817,160.740051 178.116913,169.244720 
	C182.575974,174.940491 188.855072,176.964874 195.659225,177.504288 
	C210.889771,178.711700 225.519882,176.619690 239.155594,169.186417 
	C242.384949,167.425980 244.072815,164.894653 243.456802,161.500671 
	C240.604752,145.786728 242.023636,129.938446 241.689484,114.148849 
	C241.541183,107.142204 241.648407,107.153542 234.417175,107.128983 
	C218.873352,107.076202 220.683456,108.624725 220.673752,93.079910 
	C220.664749,78.658577 219.156113,80.777527 233.241180,80.690376 
	C250.573471,80.583145 267.908142,80.769150 285.238983,80.577019 
	C289.704498,80.527504 291.657410,81.787865 291.335266,86.529045 
	C290.985809,91.672386 291.144653,96.859161 291.266754,102.022629 
	C291.353363,105.685631 289.626129,107.173309 286.130890,107.126122 
	C282.798431,107.081131 279.451843,107.324303 276.134613,107.099533 
	C271.845184,106.808899 270.266022,108.411621 270.322021,112.840904 
	C270.511597,127.837524 271.180023,142.905746 269.983521,157.811600 
	C269.320312,166.073486 272.361145,169.296707 279.098785,172.101028 
	C293.231140,177.983139 307.725220,179.506668 322.559204,176.408661 
	C335.939270,173.614304 342.437164,158.437164 336.112885,145.968353 
	C332.646942,139.135010 327.079498,133.549301 324.440918,126.229744 
	C320.283417,114.696678 319.767731,103.376350 327.076385,92.829254 
	C332.578796,84.888710 341.254089,82.062080 350.033661,79.846825 
	C355.179993,78.548302 360.533203,78.090385 365.761780,77.089333 
	C368.980042,76.473160 370.495453,77.893669 370.923706,80.848030 
	C371.710327,86.274559 372.481110,91.704636 373.148041,97.146767 
	C373.516571,100.153725 371.859833,101.274590 369.002563,101.403496 
	C365.686035,101.553131 362.338684,101.745987 359.082153,102.342796 
	C352.852081,103.484543 349.869476,108.236046 351.006134,114.422523 
	C351.945587,119.535912 354.859741,123.588173 357.793091,127.631523 
	C367.241455,140.655334 369.367950,154.902420 364.906097,170.632828 
z"/>
</svg>