<svg version="1.1" id="Layer_1" xmlns="http://www.w3.org/2000/svg" xmlns:xlink="http://www.w3.org/1999/xlink" x="0px" y="0px"
	 width="100%" viewBox="0 0 512 512" enable-background="new 0 0 512 512" xml:space="preserve">
<path fill="#000000" opacity="1.000000" stroke="none" 
	d="
M329.311340,101.650078 
	C344.586548,114.475151 355.359283,129.673264 358.390961,149.469437 
	C362.391632,175.593460 354.448364,197.760254 335.734009,216.183975 
	C325.828247,225.935928 314.233276,232.967773 300.898682,236.996826 
	C298.759247,237.643250 297.443665,238.450546 297.267700,240.962158 
	C296.023682,258.720032 294.658722,276.469482 293.335602,294.221832 
	C291.902039,313.455780 290.265747,332.663269 287.730469,351.797424 
	C286.374207,362.033386 284.918549,372.240387 282.157501,382.174133 
	C279.313416,392.406586 275.002899,401.558960 263.246460,404.581146 
	C250.329559,407.901672 239.100906,403.331726 232.793915,391.641937 
	C226.501450,379.979004 224.543396,367.106110 222.729187,354.252869 
	C218.191925,322.107697 216.249252,289.717438 213.935593,257.366302 
	C213.555603,252.053223 213.609207,246.709976 213.419861,241.382156 
	C213.294495,237.854950 211.796432,236.022171 208.037552,234.862137 
	C167.685272,222.408890 144.195419,175.584457 158.920181,136.587143 
	C166.626953,116.176422 181.609924,101.982834 200.421860,91.653763 
	C220.752670,80.490723 242.560715,75.015800 265.745850,76.815704 
	C289.200958,78.636559 310.446930,86.773987 329.311340,101.650078 
M209.784424,135.692215 
	C209.774170,132.791550 211.803406,132.677887 213.910416,132.676041 
	C219.576126,132.671097 225.251480,132.869553 230.904312,132.597961 
	C235.033401,132.399567 236.323685,133.915497 236.393265,138.027710 
	C236.937027,170.166901 237.498260,202.308487 238.491226,234.435806 
	C238.799759,244.418503 238.937485,254.420654 239.509445,264.389252 
	C241.014877,290.627228 241.568863,316.929016 244.377472,343.082001 
	C245.404510,352.645569 245.946747,362.327362 248.948929,371.559753 
	C250.190887,375.378998 250.856903,380.642883 256.119781,380.524506 
	C261.470703,380.404083 261.827728,375.111511 262.667511,371.186096 
	C266.015961,355.534546 266.794067,339.592377 268.000275,323.675232 
	C270.126099,295.623505 271.010162,267.512573 272.558472,239.435135 
	C273.777435,217.330063 273.837097,195.160538 275.091187,173.058182 
	C275.780090,160.916748 274.934326,148.719681 276.629913,136.631378 
	C276.855530,135.022812 276.510376,132.891068 278.878754,132.854294 
	C286.617706,132.734146 294.359680,132.809219 302.684296,132.809219 
	C301.481476,159.625748 300.316223,185.604645 299.113037,212.429611 
	C308.942474,208.696030 315.291962,202.809937 320.482849,195.149597 
	C337.719910,169.712402 334.085297,129.933853 299.834167,112.866425 
	C277.567719,101.770981 254.592972,100.445374 230.909271,106.796112 
	C216.213348,110.736778 203.635483,118.198242 193.862503,130.047424 
	C176.866516,150.654068 182.574615,188.200775 199.972839,204.947647 
	C203.375351,208.222778 207.145813,211.220810 212.515808,211.785248 
	C211.587433,186.503677 210.672119,161.577652 209.784424,135.692215 
z"/>
</svg>