<svg version="1.1" id="Layer_1" xmlns="http://www.w3.org/2000/svg" xmlns:xlink="http://www.w3.org/1999/xlink" x="0px" y="0px"
	 width="100%" viewBox="0 0 512 512" enable-background="new 0 0 512 512" xml:space="preserve">
<path fill="#000000" opacity="1.000000" stroke="none" 
	d="
M291.461395,216.755798 
	C299.275848,237.677307 298.614624,257.626709 286.393921,276.303925 
	C277.414978,290.026581 264.201691,298.512268 249.097839,304.287628 
	C243.322861,306.495819 237.337906,307.982452 231.264389,308.925629 
	C228.014099,309.430389 227.264313,310.912903 227.273041,313.903046 
	C227.316360,328.719086 227.709961,343.548431 226.313080,358.333374 
	C225.710098,364.715271 225.041733,371.090942 224.309067,378.408325 
	C237.271606,367.669220 250.227554,358.451111 263.619080,349.840668 
	C276.866913,341.322662 290.082672,332.754761 303.741974,323.931335 
	C309.459778,332.151978 314.817169,339.854431 320.434906,347.931244 
	C315.130371,352.366058 309.395020,355.332275 303.954620,358.682037 
	C279.334534,373.840851 254.611572,388.832794 230.017685,404.033691 
	C227.471588,405.607391 225.474777,405.485870 223.093994,404.219910 
	C215.891525,400.390015 208.705704,396.524017 201.418701,392.860443 
	C198.758194,391.522858 197.985580,389.564117 198.025711,386.821014 
	C198.111023,380.991272 198.065125,375.159485 198.065002,369.328552 
	C198.063232,278.698425 198.095352,188.068253 197.957138,97.438339 
	C197.949982,92.742920 199.440552,90.175385 203.680969,88.271500 
	C209.742661,85.549843 215.675705,82.450562 221.359375,79.009842 
	C225.199402,76.685204 228.219345,77.066536 231.859940,79.333366 
	C251.079269,91.300331 270.416656,103.077583 289.702057,114.938538 
	C298.918701,120.606995 308.062836,126.395523 317.344757,131.954391 
	C320.012573,133.552109 320.356476,134.929306 318.514008,137.432907 
	C314.468353,142.930252 310.460388,148.473297 306.795441,154.226013 
	C304.622009,157.637497 302.854401,158.149536 299.319916,155.791061 
	C274.681030,139.349976 248.983368,124.451683 226.215073,105.299034 
	C225.985382,105.105812 225.600159,105.097496 225.028412,104.924416 
	C223.224716,107.665016 225.075455,110.374634 225.385483,112.952301 
	C227.779663,132.857712 227.384338,152.844193 227.229431,172.812881 
	C227.191147,177.747696 228.309937,179.314438 233.709152,179.958023 
	C254.294373,182.411774 272.805511,189.574982 285.703735,207.032776 
	C287.858185,209.948822 289.478088,213.259766 291.461395,216.755798 
M261.720032,263.144287 
	C262.042419,262.561768 262.397003,261.994598 262.682465,261.394531 
	C274.925232,235.659393 262.750092,212.815262 233.191864,207.456345 
	C230.260788,206.924942 227.201660,206.577759 227.238892,211.504684 
	C227.404938,233.484299 227.369904,255.466019 227.278549,277.446442 
	C227.262909,281.211273 228.644333,281.888031 232.145203,281.242981 
	C244.101273,279.040009 254.050171,273.673187 261.720032,263.144287 
z"/>
</svg>