<svg version="1.1" id="Layer_1" xmlns="http://www.w3.org/2000/svg" xmlns:xlink="http://www.w3.org/1999/xlink" x="0px" y="0px"
	 width="100%" viewBox="0 0 512 512" enable-background="new 0 0 512 512" xml:space="preserve">
<path fill="#000000" opacity="1.000000" stroke="none" 
	d="
M228.600388,367.999878 
	C228.603928,317.174011 228.611252,266.848206 228.606934,216.522369 
	C228.606277,208.798737 228.194824,208.421539 220.342804,208.420593 
	C210.177658,208.419388 200.012421,208.392517 189.847458,208.433670 
	C188.058167,208.440918 186.183548,207.987656 183.930969,209.320892 
	C185.461288,216.713181 187.014603,224.282562 188.597244,231.845825 
	C190.966858,243.169891 190.722702,243.606155 179.269760,244.217331 
	C175.249512,244.431854 171.330643,245.094742 167.416122,245.866272 
	C163.873169,246.564590 162.189545,245.298889 161.670914,241.654480 
	C156.446930,204.946106 151.114792,168.253128 145.854050,131.549957 
	C144.934174,125.132133 144.164810,118.691734 143.402832,112.252663 
	C142.962433,108.531143 141.445557,106.386070 137.253265,107.194679 
	C135.634262,107.506958 133.921768,107.296028 132.269836,107.482552 
	C124.442284,108.366364 124.416267,108.391556 122.932304,100.931709 
	C122.220200,97.351936 121.867424,93.685783 120.939117,90.167671 
	C119.769203,85.733986 121.332756,83.459846 125.733551,82.884079 
	C133.803436,81.828293 141.868118,80.729042 149.946945,79.746353 
	C162.052353,78.273880 174.222687,78.409866 186.366974,78.806633 
	C193.858826,79.051399 201.161148,80.652283 208.163086,83.592430 
	C223.469971,90.019897 231.776764,102.438873 237.273148,117.262131 
	C238.911804,121.681427 240.114166,126.262512 241.943573,130.738556 
	C244.382629,121.838028 246.029068,112.820389 250.600433,104.837677 
	C263.398743,82.488762 279.129669,75.363411 303.381683,79.726250 
	C319.215118,82.574615 330.554993,90.439056 333.745575,107.117233 
	C335.886444,118.308304 333.138824,128.538635 326.844910,137.975906 
	C322.153992,145.009567 316.634033,151.542557 314.105865,159.896393 
	C311.393951,168.857376 313.739807,177.611069 320.484680,182.273575 
	C322.012299,183.329590 323.551086,184.266724 325.911072,184.027069 
	C328.750397,178.665054 327.908203,172.505096 328.541626,166.714890 
	C329.869965,154.571960 329.600281,154.382477 341.490845,156.527115 
	C353.696503,158.728592 353.070984,156.193344 349.914215,169.681549 
	C348.747375,174.667236 347.597809,179.656982 346.367828,184.957458 
	C350.726318,186.761826 354.871246,186.041504 358.792816,185.203918 
	C361.078186,184.715805 361.602631,181.953705 361.569031,179.792358 
	C361.464752,173.081024 363.513397,166.626495 363.721558,159.966187 
	C363.824524,156.672745 365.271698,155.052261 368.775940,155.621078 
	C373.695587,156.419647 378.647186,157.022568 383.563721,157.838196 
	C386.577911,158.338242 386.526123,160.553879 385.941833,162.837479 
	C384.993744,166.542908 383.964355,170.227448 382.979340,173.923492 
	C382.432587,175.975113 381.654968,178.013046 382.414398,180.284210 
	C385.679993,180.677734 388.191010,178.810959 390.924255,177.767563 
	C393.801636,176.669128 395.585815,177.229889 396.574402,180.454590 
	C398.084015,185.378799 399.902496,190.211533 401.688812,195.046524 
	C402.821686,198.112823 401.770294,199.688278 398.711487,200.563431 
	C392.632294,202.302734 386.651184,204.392883 380.549957,206.044052 
	C377.612030,206.839172 376.542969,208.479065 376.323700,211.336441 
	C375.738647,218.960678 374.920563,226.566864 374.314270,234.189713 
	C374.065735,237.314011 372.619568,238.840530 369.488068,238.355347 
	C364.401154,237.567200 359.309570,236.771576 354.268250,235.742432 
	C351.600555,235.197815 350.441528,233.579056 351.333466,230.577271 
	C352.847839,225.480789 353.995850,220.276489 355.360809,215.134232 
	C356.271912,211.701843 355.235138,209.959396 351.488007,210.323914 
	C350.825928,210.388306 350.156433,210.382828 349.490082,210.395493 
	C341.545624,210.546524 341.650787,210.553406 341.101013,218.199020 
	C340.695709,223.834824 339.863464,229.439453 339.431519,235.074066 
	C339.209320,237.972733 337.833862,238.849197 335.182861,238.395569 
	C330.106506,237.526932 325.010681,236.761185 319.954956,235.786591 
	C316.729279,235.164795 316.282349,232.866287 316.990295,230.057312 
	C318.372437,224.573303 319.575958,219.038574 321.150269,213.610947 
	C322.043640,210.530899 321.211823,209.138748 318.214111,208.024353 
	C306.527802,203.679916 297.223480,196.274414 291.800354,184.914368 
	C284.786438,170.221985 286.555054,155.840118 294.624146,142.006668 
	C297.811279,136.542755 301.973236,131.689697 304.651184,125.900330 
	C305.638214,123.766495 306.463379,121.634132 306.671783,119.261856 
	C307.454071,110.355362 303.579865,106.166069 294.579956,105.259438 
	C275.322235,103.319466 267.568024,113.649551 263.250214,128.518982 
	C258.612946,144.488464 257.549408,160.991638 257.479858,177.416321 
	C257.175079,249.404312 257.348755,321.394318 257.345917,393.383575 
	C257.345612,401.353058 257.336884,401.356293 249.151382,401.357727 
	C243.652237,401.358673 238.150146,401.237549 232.655014,401.383514 
	C229.062088,401.478912 228.065948,399.766815 228.152054,396.478729 
	C228.396194,387.154938 228.463455,377.826477 228.600388,367.999878 
M188.609818,181.989182 
	C200.749100,182.056732 212.892303,181.972183 225.025314,182.284088 
	C228.688522,182.378250 228.769531,180.592514 228.575195,178.002640 
	C227.556534,164.426392 226.308380,150.879257 222.229935,137.795914 
	C219.205902,128.095047 214.371384,119.610245 206.184204,113.149925 
	C195.667557,104.851463 183.462875,104.768707 171.065109,105.236656 
	C168.022430,105.351494 168.246674,107.275467 168.762711,109.467567 
	C173.830017,130.993576 175.605392,153.052689 179.265945,174.808548 
	C180.449707,181.844009 180.166580,181.891647 188.609818,181.989182 
z"/>
</svg>