<svg version="1.1" id="Layer_1" xmlns="http://www.w3.org/2000/svg" xmlns:xlink="http://www.w3.org/1999/xlink" x="0px" y="0px"
	 width="100%" viewBox="0 0 512 512" enable-background="new 0 0 512 512" xml:space="preserve">
<path fill="#000000" opacity="1.000000" stroke="none" 
	d="
M312.953308,127.774246 
	C312.509827,105.999260 323.231018,90.786011 339.596985,78.626221 
	C341.590179,77.145287 343.206024,77.206818 344.861511,78.915588 
	C349.728790,83.939507 354.560547,88.998093 359.456390,93.993927 
	C362.648438,97.251175 360.035919,99.111412 357.722931,100.730721 
	C352.009644,104.730537 347.101532,109.441368 344.610809,116.057724 
	C341.072723,125.456192 341.285461,133.231384 348.884583,140.257980 
	C352.673859,143.761734 356.204468,147.544586 359.866577,151.186615 
	C368.711029,159.982529 369.322571,170.562180 366.044312,181.694199 
	C362.413208,194.024567 355.109222,204.497910 347.765839,214.779785 
	C304.305328,275.631287 260.657837,336.349243 217.147888,397.165527 
	C214.984909,400.188843 212.588013,401.583801 208.836182,401.433289 
	C202.680939,401.186401 196.506271,401.250641 190.344879,401.397095 
	C186.896973,401.479034 185.435974,400.089508 185.656693,396.668793 
	C185.785141,394.677887 185.670013,392.671478 185.670120,390.672028 
	C185.674774,304.695221 185.680099,218.718414 185.685043,132.741608 
	C185.685135,131.075394 185.748230,129.406036 185.669785,127.743446 
	C184.797974,109.269333 182.030792,109.298576 168.334976,105.720070 
	C164.441452,104.702736 163.530273,103.227654 164.094284,99.554596 
	C164.951080,93.974869 165.427383,88.334236 165.980148,82.711113 
	C166.400833,78.431702 168.066238,76.550476 172.827179,77.618553 
	C179.460434,79.106659 186.219666,79.824875 192.725174,82.128250 
	C206.119415,86.870697 211.430847,97.306648 213.281403,110.257294 
	C214.792969,120.835678 214.416199,131.511490 214.446152,142.164764 
	C214.585312,191.647141 215.150070,241.131866 214.808975,290.610565 
	C214.642807,314.713318 214.735367,338.898895 211.400864,362.884796 
	C211.289627,363.684875 211.386765,364.513885 212.124954,365.581848 
	C215.211884,359.473633 218.147446,353.283173 221.413834,347.272430 
	C231.631607,328.469849 244.874573,311.686737 257.191254,294.298309 
	C281.358795,260.179108 305.764252,226.228546 330.033813,192.181488 
	C332.157349,189.202408 334.172302,186.119446 335.946564,182.923126 
	C340.255554,175.160660 339.549072,170.455597 333.390564,164.114777 
	C330.721375,161.366592 327.954712,158.708511 325.370697,155.882980 
	C318.198578,148.040390 313.491974,139.062515 312.953308,127.774246 
z"/>
</svg>