<svg version="1.1" id="Layer_1" xmlns="http://www.w3.org/2000/svg" xmlns:xlink="http://www.w3.org/1999/xlink" x="0px" y="0px"
	 width="100%" viewBox="0 0 512 512" enable-background="new 0 0 512 512" xml:space="preserve">
<path fill="#000000" opacity="1.000000" stroke="none" 
	d="
M270.349182,370.000122 
	C270.343811,379.331940 270.256927,388.164856 270.375702,396.994995 
	C270.418579,400.181885 269.283234,401.478699 266.019012,401.398041 
	C259.524078,401.237488 253.017273,401.191559 246.525589,401.406738 
	C242.829224,401.529297 241.551865,400.173431 241.600754,396.501038 
	C241.755997,384.838440 241.630554,373.172363 241.656845,361.507751 
	C241.709427,338.179413 241.738297,314.850739 241.899368,291.523071 
	C241.936554,286.137024 238.814362,282.093964 236.530548,277.760193 
	C227.841583,261.271851 218.886841,244.923645 210.042694,228.517014 
	C205.619827,220.312225 201.200531,212.105362 196.826416,203.874573 
	C195.745148,201.839966 194.329834,199.927628 193.979919,196.779007 
	C201.901047,192.810989 210.017334,188.745224 218.760895,184.365219 
	C232.323624,209.436005 246.054199,233.864441 255.627502,262.005737 
	C262.923401,239.032608 273.815887,219.381073 283.726807,199.280045 
	C285.714417,195.248840 287.955475,191.342667 289.946533,187.313049 
	C291.100372,184.977768 292.436615,184.000412 295.044220,185.347656 
	C301.407806,188.635406 307.806091,191.862061 314.268188,194.950623 
	C317.777222,196.627777 316.439331,198.777527 315.244904,201.063873 
	C303.295715,223.937439 291.650085,246.976730 279.280487,269.620575 
	C273.081482,280.968445 269.419861,292.209656 270.064911,305.524048 
	C271.095886,326.804047 270.346008,348.170288 270.349182,370.000122 
z"/>
<path fill="#000000" opacity="1.000000" stroke="none" 
	d="
M311.999939,158.317841 
	C267.871216,158.318542 224.242508,158.322968 180.613800,158.314407 
	C173.915970,158.313095 173.853287,158.239212 173.809784,151.729568 
	C173.778625,147.067139 174.024475,142.389374 173.722473,137.746063 
	C173.427017,133.203598 175.034882,131.575912 179.690857,131.665894 
	C192.841156,131.920029 205.999557,131.755371 219.154755,131.756958 
	C256.955200,131.761490 294.755646,131.764114 332.556091,131.773621 
	C340.182465,131.775543 340.187714,131.788010 340.197327,139.596329 
	C340.202850,144.092392 340.051025,148.593781 340.224518,153.082947 
	C340.372314,156.907944 338.918030,158.479843 334.978668,158.373016 
	C327.490784,158.169937 319.993378,158.316147 311.999939,158.317841 
z"/>
<path fill="#000000" opacity="1.000000" stroke="none" 
	d="
M335.816589,80.662415 
	C338.645660,80.572517 340.160553,81.392097 340.152527,84.036560 
	C340.133301,90.368271 340.127930,96.700203 340.159637,103.031830 
	C340.172089,105.517120 338.902008,106.704979 336.532593,106.837471 
	C334.870361,106.930412 333.203064,106.969833 331.538025,106.970444 
	C281.212769,106.988861 230.887543,107.002785 180.562302,107.007233 
	C173.966599,107.007820 173.830612,106.857567 173.800415,100.321983 
	C173.777313,95.322876 173.912872,90.318878 173.730469,85.326088 
	C173.605469,81.904900 174.873550,80.530411 178.363693,80.613274 
	C185.358566,80.779343 192.360229,80.657837 199.359100,80.657646 
	C244.685165,80.656456 290.011230,80.655960 335.816589,80.662415 
z"/>
</svg>