<svg version="1.1" id="Layer_1" xmlns="http://www.w3.org/2000/svg" xmlns:xlink="http://www.w3.org/1999/xlink" x="0px" y="0px"
	 width="100%" viewBox="0 0 512 512" enable-background="new 0 0 512 512" xml:space="preserve">
<path fill="#000000" opacity="1.000000" stroke="none" 
	d="
M374.091522,165.204590 
	C375.407684,172.487915 376.536560,179.370163 377.882324,186.209732 
	C378.367706,188.676773 377.865906,190.001160 375.241333,190.435684 
	C368.057465,191.625015 360.891541,192.922958 353.122742,194.282135 
	C349.343079,174.159561 347.067719,154.337234 346.168945,133.077408 
	C336.855865,157.710861 326.414062,180.368561 316.397797,203.209671 
	C315.208038,205.922867 313.574188,207.005249 310.710693,206.954971 
	C304.881042,206.852631 299.048126,206.918427 293.216705,206.945129 
	C290.912811,206.955673 289.000183,206.554794 288.052582,204.010681 
	C278.470154,178.283463 267.072968,153.213089 259.990509,126.583771 
	C258.854889,122.313995 258.089539,117.945732 256.869507,112.314232 
	C255.295212,119.321678 254.119232,125.093452 252.694946,130.803284 
	C246.382614,156.108917 235.360413,179.718109 226.243805,204.014450 
	C225.380981,206.313919 224.043793,207.460388 221.439392,207.402695 
	C215.277588,207.266174 209.108826,207.261597 202.946960,207.393784 
	C200.218887,207.452316 198.715500,206.376419 197.649048,203.893539 
	C187.799759,180.962738 177.312531,158.295578 168.979218,134.575546 
	C167.035095,154.383804 164.527039,174.087158 160.932053,194.240479 
	C153.285675,192.911606 146.144043,191.615250 138.980682,190.452713 
	C136.118378,189.988205 135.614868,188.533096 136.114914,185.874359 
	C139.828308,166.130112 143.419739,146.362961 147.071533,126.607086 
	C148.217987,120.404770 149.139832,114.140175 150.700363,108.041206 
	C152.155228,102.355270 149.095993,98.082008 147.101334,93.443314 
	C143.884354,85.961998 143.818863,85.988724 150.908813,82.429993 
	C156.969513,79.387894 163.031754,76.348907 169.486404,73.111374 
	C184.923340,107.853775 201.473816,141.399902 212.884216,177.447083 
	C214.279617,171.197128 215.582474,164.924789 217.086548,158.701111 
	C223.357666,132.752045 232.853287,107.864845 242.187042,82.928612 
	C246.345459,71.818893 246.400848,71.813622 258.506134,71.842308 
	C269.434784,71.868202 267.129211,71.057373 270.699158,80.415993 
	C282.621094,111.669380 294.795502,142.838196 303.763519,175.124786 
	C304.012054,176.019623 304.436218,176.865662 305.272186,178.987717 
	C307.047546,172.041916 308.493256,166.329102 309.968506,160.623947 
	C316.417511,135.684067 326.688080,112.208282 337.446106,88.918716 
	C339.331390,84.837357 341.254425,80.769295 342.984314,76.621803 
	C344.053162,74.059204 345.416168,73.431152 347.962585,74.762337 
	C354.161316,78.002861 360.428162,81.115578 366.709778,84.193695 
	C369.052307,85.341576 370.296173,86.930389 368.652130,89.285141 
	C361.314972,99.794189 363.550598,110.822151 366.056824,122.209579 
	C369.158234,136.301331 371.385162,150.585571 374.091522,165.204590 
z"/>
<path fill="#000000" opacity="1.000000" stroke="none" 
	d="
M206.000000,217.696930 
	C252.332825,217.702545 298.165649,217.707703 343.998474,217.716187 
	C351.301727,217.717529 351.307343,217.724365 351.321594,225.222366 
	C351.330780,230.055588 351.206116,234.892471 351.359192,239.720795 
	C351.461212,242.939133 350.152863,244.201889 346.964447,244.185989 
	C324.484009,244.073883 301.979065,244.677124 279.613678,241.585541 
	C278.470734,241.427551 277.298584,241.184753 275.424622,242.479752 
	C301.541992,291.366516 319.943573,343.560120 338.416809,396.281189 
	C333.026825,399.259369 327.311218,400.392700 321.907288,402.271759 
	C311.826263,405.777191 311.684418,405.747162 308.222717,395.421814 
	C295.138947,356.396576 280.750580,317.873840 264.287994,280.135986 
	C260.538239,271.540222 259.087494,262.262970 256.773163,253.245270 
	C256.369202,251.671234 255.991531,250.090454 254.889679,248.497559 
	C253.871918,253.108124 252.841232,257.715881 251.838684,262.329742 
	C247.988312,280.049896 239.699036,296.140228 233.155380,312.859772 
	C222.043213,341.252167 212.108505,370.037354 203.195343,399.184875 
	C201.191040,405.739227 201.199905,405.726959 194.671555,403.623962 
	C189.125183,401.837341 183.602875,399.961273 178.000885,398.367462 
	C174.591599,397.397522 173.536865,395.958435 174.789917,392.307465 
	C191.616028,343.283081 209.554260,294.713989 232.724747,248.241730 
	C233.812851,246.059357 235.359161,243.998352 235.357285,241.035843 
	C231.870804,239.811539 228.477707,241.196213 225.234726,241.681778 
	C203.863647,244.881668 182.363647,244.027832 160.890503,244.165680 
	C157.847244,244.185211 156.774277,242.787033 156.821838,239.895065 
	C156.914993,234.230011 157.047623,228.553452 156.789566,222.898727 
	C156.590775,218.542496 158.608093,217.604385 162.501694,217.646317 
	C176.832993,217.800735 191.167007,217.701431 206.000000,217.696930 
z"/>
<path fill="#000000" opacity="1.000000" stroke="none" 
	d="
M270.196533,352.012329 
	C270.193512,366.975861 270.091217,381.442322 270.251373,395.905853 
	C270.295837,399.922638 269.084930,401.610077 264.851654,401.418152 
	C258.546295,401.132294 252.215363,401.218475 245.901657,401.385437 
	C242.394379,401.478180 240.755966,400.418304 240.782669,396.601440 
	C240.907150,378.811646 240.879074,361.020325 240.801041,343.229980 
	C240.787170,340.068054 241.917145,338.727966 245.166473,338.795746 
	C251.980591,338.937927 258.802795,338.972168 265.615265,338.798553 
	C269.141602,338.708649 270.394501,340.177246 270.205292,343.535065 
	C270.055847,346.186493 270.188873,348.853882 270.196533,352.012329 
z"/>
</svg>