<svg version="1.1" id="Layer_1" xmlns="http://www.w3.org/2000/svg" xmlns:xlink="http://www.w3.org/1999/xlink" x="0px" y="0px"
	 width="100%" viewBox="0 0 512 512" enable-background="new 0 0 512 512" xml:space="preserve">
<path fill="#000000" opacity="1.000000" stroke="none" 
	d="
M295.999939,239.356567 
	C289.667328,239.355911 283.834747,239.353607 278.002136,239.354477 
	C271.331757,239.355484 271.316528,239.356689 271.316315,245.856918 
	C271.314758,294.517487 271.339752,343.178070 271.307251,391.838654 
	C271.299927,402.814026 272.419983,401.226135 261.658112,401.348511 
	C256.826080,401.403473 251.986267,401.194855 247.162262,401.397766 
	C243.588837,401.548035 241.986252,400.325867 242.020844,396.589783 
	C242.178207,379.593994 242.054657,362.594940 242.294464,345.600769 
	C242.696503,317.110962 242.806656,288.624664 242.257462,260.135956 
	C242.158020,254.977417 242.309464,249.812195 242.427628,244.651947 
	C242.511230,241.000046 241.232239,239.254486 237.175797,239.296875 
	C220.846329,239.467606 204.513962,239.366684 188.182678,239.357025 
	C181.679657,239.353180 181.671432,239.342453 181.654083,232.658096 
	C181.641525,227.825409 181.864227,222.980774 181.591461,218.163589 
	C181.362488,214.119751 183.090561,212.995407 186.860016,213.021545 
	C203.023788,213.133743 219.188904,213.060654 235.353500,213.033554 
	C241.890656,213.022598 242.041794,212.861069 242.080429,206.284088 
	C242.247803,177.792694 242.469116,149.301392 242.535706,120.809738 
	C242.562561,109.316628 242.350006,97.819687 242.025757,86.330719 
	C241.905609,82.073586 243.295822,80.327988 247.760696,80.573532 
	C253.741821,80.902451 259.768372,80.901237 265.749451,80.570938 
	C270.189728,80.325737 271.442657,81.921021 271.412201,86.278534 
	C271.231506,112.107399 271.311066,137.938126 271.312408,163.768219 
	C271.313171,177.766449 271.327820,191.764694 271.345093,205.762924 
	C271.354034,213.012375 271.362793,213.019684 278.866394,213.023224 
	C294.531097,213.030624 310.197571,213.163651 325.859406,212.952072 
	C330.713287,212.886520 332.892303,214.221298 332.436432,219.452133 
	C332.003998,224.414597 332.175537,229.448761 332.368713,234.440292 
	C332.508820,238.060303 331.238678,239.470917 327.493042,239.405365 
	C317.164886,239.224579 306.831360,239.351257 295.999939,239.356567 
z"/>
</svg>