<svg version="1.1" id="Layer_1" xmlns="http://www.w3.org/2000/svg" xmlns:xlink="http://www.w3.org/1999/xlink" x="0px" y="0px"
	 width="100%" viewBox="0 0 512 512" enable-background="new 0 0 512 512" xml:space="preserve">
<path fill="#000000" opacity="1.000000" stroke="none" 
	d="
M328.852173,157.477966 
	C332.548248,187.243637 337.004364,216.459686 342.024292,245.607941 
	C347.548309,277.683380 353.362152,309.692352 360.062073,341.543793 
	C363.889160,359.737885 367.381042,378.002411 371.175873,396.203522 
	C371.904785,399.699554 371.173309,401.650665 367.463318,402.177002 
	C360.880096,403.110992 354.307831,404.123535 347.735107,405.130157 
	C343.178314,405.828064 342.490112,402.526062 341.898315,399.358124 
	C339.550171,386.789215 337.265625,374.208160 335.016968,361.621002 
	C329.290344,329.565094 323.562714,297.509277 317.913330,265.439697 
	C316.644897,258.239197 315.664642,250.986984 314.612366,243.749771 
	C314.156281,240.613037 312.695099,239.244858 309.295197,239.307114 
	C298.967285,239.496277 288.632141,239.461258 278.302826,239.307938 
	C274.703857,239.254532 273.198364,240.473587 273.214355,244.201126 
	C273.312286,267.029938 273.302002,289.859436 273.242371,312.688477 
	C273.232819,316.344086 274.557007,317.667145 278.350647,317.426147 
	C284.658752,317.025452 291.001923,317.190063 297.329651,317.079987 
	C300.848175,317.018799 302.486969,318.534729 302.376251,322.207642 
	C302.210663,327.701630 302.207001,333.208252 302.379578,338.701813 
	C302.487274,342.131012 301.206390,343.493835 297.729309,343.400421 
	C291.401794,343.230469 285.058777,343.545410 278.736877,343.291962 
	C274.601593,343.126160 273.149078,344.632141 273.192230,348.768250 
	C273.353821,364.263794 273.091583,379.764709 273.349365,395.257629 
	C273.430939,400.160828 271.704071,401.705750 266.982056,401.429810 
	C261.335663,401.099854 255.644165,401.131317 249.993118,401.418304 
	C245.308990,401.656158 243.865112,399.612640 243.900848,395.219055 
	C244.025558,379.889587 243.789062,364.556152 244.017639,349.229126 
	C244.086273,344.627258 242.653900,343.003815 238.014709,343.289978 
	C232.204834,343.648407 226.350723,343.222168 220.525009,343.415344 
	C216.803864,343.538727 215.487595,342.026245 215.611328,338.410492 
	C215.793579,333.084381 215.807907,327.741760 215.606857,322.416992 
	C215.467850,318.735809 217.116272,317.180145 220.580994,317.199860 
	C226.903000,317.235809 233.234863,317.123505 239.542572,317.454803 
	C242.987411,317.635712 243.967545,316.215332 243.962387,313.131622 
	C243.923569,289.969208 243.905609,266.806610 243.967682,243.644333 
	C243.976486,240.360138 242.569870,239.309097 239.426346,239.336380 
	C227.762711,239.437637 216.095673,239.482941 204.434158,239.291153 
	C200.842300,239.232071 199.807068,241.109039 199.327820,244.024323 
	C197.684570,254.020096 196.057922,264.018799 194.361343,274.005554 
	C192.135864,287.105713 189.929337,300.209900 187.571899,313.286591 
	C183.859299,333.880310 180.080444,354.462433 176.221771,375.029236 
	C174.567612,383.845856 172.611099,392.605408 170.858093,401.404083 
	C170.260849,404.401672 168.638443,405.687836 165.581299,405.193207 
	C159.181320,404.157593 152.776093,403.153900 146.369247,402.161469 
	C143.142502,401.661621 141.878754,400.285370 142.718216,396.701935 
	C149.763977,366.624878 155.500443,336.270294 161.302292,305.940308 
	C167.074265,275.766663 172.409836,245.502136 177.400986,215.189240 
	C180.394943,197.006027 182.496979,178.669983 184.698486,160.366394 
	C185.257889,155.715485 187.000946,153.893738 191.653091,154.656998 
	C196.900955,155.517975 202.191269,156.120758 207.464142,156.828415 
	C210.667572,157.258331 211.563766,159.290466 211.171143,162.185349 
	C209.138855,177.169785 207.306366,192.186310 204.927841,207.115768 
	C204.211914,211.609467 204.986526,213.181961 209.652191,213.117996 
	C219.811905,212.978683 229.980057,213.080292 240.137650,213.350571 
	C244.079941,213.455444 243.932358,211.056427 243.937561,208.470169 
	C243.961426,196.638977 243.990768,184.807800 243.989914,172.976608 
	C243.987854,144.815002 243.956665,116.653381 243.966980,88.491776 
	C243.969772,80.877663 244.226730,80.667152 251.819031,80.659576 
	C257.151398,80.654251 262.492432,80.845078 267.813385,80.598892 
	C271.973145,80.406448 273.357361,82.063049 273.328003,86.138191 
	C273.188629,105.467094 273.251709,124.797485 273.252319,144.127350 
	C273.252960,165.123581 273.354767,186.120499 273.200684,207.115540 
	C273.166504,211.773422 274.291870,213.606293 279.466064,213.259918 
	C287.927124,212.693497 296.453186,213.013184 304.950195,213.107498 
	C308.673096,213.148834 309.806580,211.978317 309.201752,208.013290 
	C306.896393,192.900330 304.998444,177.725388 302.920258,162.577454 
	C302.456635,159.197906 303.502502,157.158722 307.194489,156.698669 
	C312.799286,156.000275 318.395599,155.182037 323.953369,154.180740 
	C326.618958,153.700500 328.141968,154.449829 328.852173,157.477966 
z"/>
</svg>