<svg version="1.1" id="Layer_1" xmlns="http://www.w3.org/2000/svg" xmlns:xlink="http://www.w3.org/1999/xlink" x="0px" y="0px"
	 width="100%" viewBox="0 0 512 512" enable-background="new 0 0 512 512" xml:space="preserve">
<path fill="#000000" opacity="1.000000" stroke="none" 
	d="
M310.999939,401.339355 
	C267.680481,401.342682 224.861023,401.347290 182.041580,401.347046 
	C175.120728,401.347015 175.071548,401.336975 175.069183,394.508423 
	C175.033859,292.041718 175.037704,189.574951 174.909897,87.108360 
	C174.903809,82.219147 176.214676,80.164230 181.414154,80.552101 
	C187.213638,80.984734 193.072052,80.760803 198.900162,80.623878 
	C202.163162,80.547226 203.374649,81.943962 203.272263,85.094406 
	C203.142441,89.088928 203.236511,93.090775 203.236481,97.089462 
	C203.235825,187.393509 203.234573,277.697540 203.236938,368.001587 
	C203.237137,375.120026 203.249084,375.074219 210.093002,375.071320 
	C261.409698,375.049683 312.726532,375.100861 364.042816,374.952332 
	C368.885498,374.938324 370.588837,376.521484 370.274811,381.291412 
	C369.947174,386.268372 370.027557,391.290955 370.249817,396.279327 
	C370.425751,400.227173 368.847717,401.448242 364.981018,401.414276 
	C347.155151,401.257721 329.327179,401.341461 310.999939,401.339355 
z"/>
<path fill="#000000" opacity="1.000000" stroke="none" 
	d="
M295.526520,305.544128 
	C297.378082,299.931183 296.162598,295.235168 292.403137,291.443756 
	C288.301575,287.307343 283.019470,287.501221 277.887756,288.880981 
	C269.563080,291.119202 263.489075,296.975403 257.328369,302.536743 
	C255.136139,304.515686 253.448090,307.053192 251.285782,309.626190 
	C244.538071,303.773285 240.311935,297.386993 235.332977,291.701233 
	C234.063492,290.251495 235.381180,288.852783 236.473297,287.824280 
	C252.756058,272.489410 271.056274,261.884033 294.441437,263.744354 
	C308.646393,264.874359 320.601379,278.106781 321.358063,292.616333 
	C322.207306,308.901123 315.800507,322.396667 306.001282,334.692413 
	C302.480408,339.110260 298.731750,343.347015 295.068634,347.650787 
	C293.920990,348.999146 292.556274,350.217621 290.889557,348.552185 
	C285.737946,343.404541 279.575989,339.299377 274.851898,333.217834 
	C282.058350,324.290070 291.408295,317.068176 295.526520,305.544128 
z"/>
</svg>