<svg version="1.1" id="Layer_1" xmlns="http://www.w3.org/2000/svg" xmlns:xlink="http://www.w3.org/1999/xlink" x="0px" y="0px"
	 width="100%" viewBox="0 0 512 512" enable-background="new 0 0 512 512" xml:space="preserve">
<path fill="#000000" opacity="1.000000" stroke="none" 
	d="
M271.190979,169.890259 
	C270.605042,178.599564 270.038788,186.824142 269.426025,195.724442 
	C284.624725,192.422806 296.049316,185.019318 304.626038,172.923950 
	C316.199860,156.602005 321.500641,138.025604 324.637268,118.646454 
	C326.445557,107.474396 327.673279,96.225586 327.616974,84.889099 
	C327.600433,81.555344 329.050781,80.568703 332.151031,80.626160 
	C338.981812,80.752785 345.817627,80.729378 352.649353,80.628891 
	C355.615479,80.585258 356.561310,81.535507 356.526184,84.725845 
	C356.234131,111.255623 352.415070,137.122986 342.366455,161.823639 
	C333.749573,183.004944 320.915833,200.931458 300.829437,212.680618 
	C291.578278,218.091888 281.283691,220.990082 270.486572,222.537201 
	C269.480225,227.685944 271.233948,232.540878 271.232697,237.463699 
	C271.219543,290.129333 271.190430,342.795074 271.316467,395.460449 
	C271.327301,399.982849 270.003113,401.725098 265.335999,401.445282 
	C259.357330,401.086884 253.333939,401.166351 247.344116,401.409454 
	C243.276886,401.574554 241.612106,400.171967 241.758514,395.991943 
	C241.985870,389.500122 241.811249,382.994354 241.810974,376.494476 
	C241.809204,334.495270 241.727310,292.495789 241.871613,250.497070 
	C241.902863,241.399826 242.748047,232.305359 243.233337,222.919189 
	C238.172623,221.735413 233.153351,220.714020 228.218170,219.381317 
	C202.552231,212.450531 185.922882,195.206802 174.681274,172.002213 
	C162.073669,145.978043 158.198105,118.104683 157.666931,89.573311 
	C157.500900,80.654243 157.592255,80.652977 166.454971,80.654541 
	C171.288208,80.655396 176.133255,80.863182 180.951080,80.590576 
	C185.060028,80.358078 186.282425,81.857483 186.449707,85.983780 
	C187.190994,104.268829 188.263626,122.540657 193.284439,140.305511 
	C197.632935,155.691559 203.647171,170.212509 215.376602,181.589752 
	C222.293060,188.298523 230.471725,192.991547 239.904663,195.330017 
	C240.892105,195.574814 241.860504,195.752655 242.644440,195.314148 
	C242.644440,188.651138 242.995575,182.065552 242.579178,175.528839 
	C241.285110,155.214371 242.000397,134.886429 241.816666,114.565727 
	C241.729263,104.900085 241.913574,95.231285 241.760574,85.567307 
	C241.702927,81.926826 242.978836,80.484818 246.691574,80.604225 
	C253.018173,80.807709 259.368317,80.895760 265.685303,80.574463 
	C270.213379,80.344162 271.333710,82.168022 271.310150,86.409729 
	C271.156494,114.074326 271.218903,141.740112 271.190979,169.890259 
z"/>
</svg>