<svg version="1.1" id="Layer_1" xmlns="http://www.w3.org/2000/svg" xmlns:xlink="http://www.w3.org/1999/xlink" x="0px" y="0px"
	 width="100%" viewBox="0 0 512 512" enable-background="new 0 0 512 512" xml:space="preserve">
<path fill="#000000" opacity="1.000000" stroke="none" 
	d="
M359.300964,336.275940 
	C338.261505,358.420105 313.238251,372.926147 283.546906,378.672302 
	C268.646118,381.556091 253.624390,381.866638 238.369171,379.743225 
	C204.379028,375.012085 176.129181,359.862701 153.435394,334.498932 
	C132.606232,311.219147 120.773499,284.002777 118.540154,252.508499 
	C115.983582,216.456116 125.540535,184.226776 148.027634,156.192139 
	C174.215332,123.543938 208.394012,105.758858 250.481277,103.662216 
	C286.542358,101.865791 318.433228,112.693016 346.057098,135.652847 
	C370.128632,155.660141 386.308228,181.102097 392.663818,211.751602 
	C401.964203,256.602448 392.367157,297.260529 362.407959,332.548401 
	C361.437927,333.690979 360.495056,334.856537 359.300964,336.275940 
M148.500214,261.056396 
	C151.732193,278.688904 158.226578,295.014130 169.369400,309.097595 
	C196.832794,343.808716 232.664062,360.017792 276.546478,352.077545 
	C324.610962,343.380585 361.762665,303.585938 366.387909,253.149887 
	C370.158691,212.031631 354.955872,178.072144 322.147705,152.666428 
	C283.681335,122.879089 229.923187,123.135376 191.823395,152.805817 
	C156.756088,180.114685 142.913742,216.325012 148.500214,261.056396 
z"/>
<path fill="#000000" opacity="1.000000" stroke="none" 
	d="
M231.976685,189.057892 
	C234.205688,196.811371 233.081543,204.449707 232.993347,212.044189 
	C232.966278,214.376114 230.664780,214.763046 228.847122,214.774292 
	C215.856476,214.854752 202.865112,214.844452 189.874069,214.820084 
	C186.591141,214.813934 185.101639,213.063095 185.135040,209.775558 
	C185.192596,204.112808 185.128296,198.448822 185.112320,192.785355 
	C185.105499,190.370880 185.672668,188.517349 188.658493,188.493240 
	C202.965118,188.377686 217.278610,187.309784 231.976685,189.057892 
z"/>
<path fill="#000000" opacity="1.000000" stroke="none" 
	d="
M302.000916,294.967773 
	C296.337372,294.952362 291.173523,294.948395 286.009796,294.917175 
	C282.909485,294.898407 280.884521,293.710785 280.907410,290.228729 
	C280.945770,284.398895 280.953522,278.568573 280.929871,272.738647 
	C280.918060,269.829681 282.243652,268.563751 285.199127,268.578247 
	C298.683899,268.644318 312.169250,268.641022 325.654114,268.589783 
	C328.388153,268.579407 329.706909,269.859589 329.742554,272.453278 
	C329.825012,278.447083 329.860565,284.442474 329.821960,290.436615 
	C329.799561,293.913422 327.525116,294.932861 324.488770,294.938232 
	C317.159393,294.951172 309.830048,294.958252 302.000916,294.967773 
z"/>
<path fill="#000000" opacity="1.000000" stroke="none" 
	d="
M329.552795,197.674454 
	C329.631775,201.712479 329.636627,205.364685 329.786407,209.010910 
	C329.933075,212.581467 328.667664,214.840286 324.772858,214.841965 
	C311.806396,214.847565 298.839874,214.843399 285.873474,214.812531 
	C282.375885,214.804199 280.819000,213.014984 280.899628,209.482193 
	C281.024811,203.998367 280.997253,198.509567 280.944336,193.023743 
	C280.914398,189.918854 282.191559,188.551559 285.422638,188.574600 
	C298.556366,188.668304 311.691406,188.652130 324.825500,188.588058 
	C331.967010,188.553223 328.518585,194.094376 329.552795,197.674454 
z"/>
<path fill="#000000" opacity="1.000000" stroke="none" 
	d="
M207.000519,294.957581 
	C201.182785,294.949005 195.864258,294.886841 190.547180,294.949524 
	C186.846725,294.993134 185.024414,293.441589 185.109589,289.587189 
	C185.227036,284.272064 185.188461,278.951172 185.101578,273.634644 
	C185.045395,270.197998 186.220657,268.502716 190.025848,268.550385 
	C202.820206,268.710754 215.618790,268.701630 228.413559,268.560242 
	C232.153580,268.518890 233.401962,270.032928 233.284515,273.602386 
	C233.109726,278.914612 233.065628,284.244232 233.293777,289.552368 
	C233.465515,293.547852 231.542374,294.919037 227.940826,294.917908 
	C221.127319,294.915710 214.313828,294.942535 207.000519,294.957581 
z"/>
</svg>