<svg version="1.1" id="Layer_1" xmlns="http://www.w3.org/2000/svg" xmlns:xlink="http://www.w3.org/1999/xlink" x="0px" y="0px"
	 width="100%" viewBox="0 0 512 512" enable-background="new 0 0 512 512" xml:space="preserve">
<path fill="#000000" opacity="1.000000" stroke="none" 
	d="
M179.054184,391.909851 
	C179.030212,394.059235 179.035858,395.726379 178.975464,397.391113 
	C178.881256,399.988251 177.603973,401.350250 174.904160,401.347687 
	C156.572403,401.330322 138.240601,401.325500 119.908852,401.354431 
	C117.199577,401.358734 115.882172,400.089722 115.871666,397.439972 
	C115.847893,391.440948 115.858284,385.441742 115.850365,379.442627 
	C115.846191,376.280487 117.653702,374.958038 120.578102,374.876740 
	C123.242699,374.802704 125.938736,374.577026 128.570038,374.872040 
	C133.130295,375.383331 134.517334,372.892853 134.621536,369.038330 
	C135.199951,347.642365 138.732498,326.710663 144.667130,306.184631 
	C155.976273,267.069794 176.395782,234.323898 210.468613,210.750824 
	C231.201828,196.406723 254.125702,186.655380 277.111389,176.891174 
	C291.505066,170.776779 306.346802,165.496933 318.926636,155.842178 
	C329.566071,147.676651 333.752014,133.907379 329.348297,121.452896 
	C326.736725,114.066917 321.260925,109.438599 313.721222,107.227364 
	C305.194214,104.726585 296.574615,105.447746 287.959290,106.426834 
	C280.008148,107.330452 272.259216,109.230545 264.732788,111.910873 
	C261.923798,112.911209 260.272217,112.466354 259.450378,109.513161 
	C257.846130,103.748672 256.266388,97.975677 254.534836,92.249039 
	C253.682343,89.429642 254.605911,87.779770 257.275208,86.847824 
	C280.824707,78.625916 304.683990,74.922112 329.126801,82.584351 
	C344.536865,87.415039 353.846008,98.033073 357.799408,113.675201 
	C361.433441,128.053497 361.281036,142.092972 354.349060,155.441910 
	C348.928375,165.880539 340.410767,173.580948 330.655060,179.944366 
	C324.368225,184.045166 317.785278,187.643814 310.954620,190.735870 
	C307.868591,192.132874 306.748535,193.999542 307.415649,197.369370 
	C317.342285,247.513901 329.859955,296.958740 347.227844,345.093262 
	C350.331970,353.696228 353.762451,362.180969 356.943542,370.756927 
	C357.998535,373.601166 359.590912,375.062683 362.852600,374.871979 
	C367.003693,374.629272 371.181793,374.881012 375.347656,374.848053 
	C378.908478,374.819885 380.452881,376.466248 380.363831,380.063751 
	C380.223663,385.726593 380.253845,391.396271 380.340790,397.061066 
	C380.384521,399.911316 379.428192,401.367371 376.330139,401.357361 
	C358.165131,401.298645 339.999786,401.311493 321.834717,401.365356 
	C318.826752,401.374268 317.654144,400.008118 317.688599,397.110107 
	C317.752045,391.778076 317.859436,386.437469 317.632812,381.113892 
	C317.445129,376.705017 319.003265,374.435486 323.648956,374.790283 
	C324.414001,374.848694 325.211182,374.485870 326.323730,374.246765 
	C308.192017,318.126190 288.107422,262.736877 284.039734,203.371338 
	C283.076721,202.763565 282.178802,203.270233 281.271210,203.677490 
	C270.337158,208.583939 259.461670,213.627716 248.439529,218.327606 
	C244.164780,220.150406 243.019577,222.722183 243.553543,227.258667 
	C245.068588,240.130737 245.892120,253.083817 247.384460,265.959045 
	C248.874817,278.817230 250.624146,291.655029 252.662262,304.437622 
	C255.067795,319.524719 257.497864,334.620728 261.293884,349.448700 
	C263.148224,356.692108 264.999054,363.937592 266.722076,371.212769 
	C267.380554,373.993042 268.916443,374.967682 271.698639,374.860107 
	C275.691467,374.705688 279.696014,374.849915 283.695526,374.874969 
	C286.597290,374.893127 288.407623,376.003815 288.557312,379.236603 
	C288.827179,385.064392 289.090149,390.882019 288.731201,396.718811 
	C288.533478,399.933960 287.246307,401.421875 283.780121,401.399017 
	C265.948944,401.281342 248.116455,401.302460 230.284851,401.375885 
	C227.052917,401.389191 225.781281,400.024628 225.823563,396.892853 
	C225.897797,391.394440 225.967560,385.889069 225.772415,380.396118 
	C225.623749,376.210968 227.596558,374.497681 231.498795,374.872711 
	C236.297394,375.333862 237.116562,373.289246 236.196335,368.948273 
	C231.576126,347.153168 227.998138,325.152802 225.220490,303.069275 
	C223.004028,285.447357 220.342209,267.794922 220.960739,249.912415 
	C221.130051,245.017136 222.783936,240.228439 222.286697,234.650177 
	C217.831253,237.108658 214.694992,240.292908 211.606216,243.388916 
	C191.320007,263.722534 178.815964,288.464600 171.525787,315.937744 
	C166.871658,333.476929 164.217438,351.387939 163.229156,369.545685 
	C162.991501,373.912292 164.636520,375.273376 168.645401,374.838959 
	C169.962921,374.696167 171.315308,374.903107 172.641525,374.807861 
	C177.445007,374.462921 179.271683,376.863953 179.084778,381.431061 
	C178.948654,384.757721 179.055618,388.094330 179.054184,391.909851 
z"/>
</svg>