<svg version="1.1" id="Layer_1" xmlns="http://www.w3.org/2000/svg" xmlns:xlink="http://www.w3.org/1999/xlink" x="0px" y="0px"
	 width="100%" viewBox="0 0 512 512" enable-background="new 0 0 512 512" xml:space="preserve">
<path fill="#000000" opacity="1.000000" stroke="none" 
	d="
M289.993774,200.658997 
	C304.345947,200.660034 304.345947,200.660034 304.347748,214.498840 
	C304.349365,226.943085 304.349365,226.943130 291.920563,226.943909 
	C286.754852,226.944244 281.584412,227.079544 276.424957,226.900162 
	C272.568481,226.766098 271.165833,228.225662 271.233521,232.167648 
	C271.436615,243.995331 271.302429,255.828751 271.304382,267.659943 
	C271.311310,309.652344 271.320923,351.644745 271.327545,393.637146 
	C271.328766,401.362091 271.324554,401.362885 263.359985,401.359863 
	C258.360901,401.357971 253.361801,401.364227 248.362762,401.346985 
	C242.174042,401.325623 242.021408,401.214569 242.073486,394.791840 
	C242.208557,378.132996 242.505951,361.474884 242.541351,344.816010 
	C242.618896,308.322784 242.584869,271.829315 242.571579,235.335922 
	C242.568634,227.215149 242.222672,226.924408 234.118088,226.923782 
	C227.619339,226.923279 221.118149,226.794083 214.622742,226.936462 
	C210.657013,227.023392 209.416061,225.259583 209.592255,221.478333 
	C209.832413,216.323776 209.873123,211.137314 209.584427,205.987808 
	C209.350723,201.819565 210.899658,200.564697 215.009491,200.589645 
	C239.837341,200.740326 264.666595,200.661377 289.993774,200.658997 
z"/>
<path fill="#000000" opacity="1.000000" stroke="none" 
	d="
M192.000000,183.371826 
	C185.672974,183.368057 179.843658,183.265442 174.019745,183.398727 
	C170.806656,183.472275 169.551147,182.188004 169.625351,178.985229 
	C169.764130,172.994904 169.739777,166.997940 169.638367,161.006180 
	C169.591187,158.218170 170.833954,157.063889 173.504974,157.081329 
	C176.667831,157.101990 179.831131,157.060318 182.994232,157.043930 
	C189.933670,157.007996 190.054535,156.909683 190.056580,150.137650 
	C190.062775,129.659668 190.052078,109.181679 190.046463,88.703697 
	C190.044266,80.656349 190.042450,80.654816 197.850372,80.652748 
	C202.845001,80.651428 207.850983,80.863960 212.830765,80.592911 
	C217.020721,80.364876 218.286942,82.050980 218.262787,86.095329 
	C218.134491,107.571419 218.354034,129.050293 218.118103,150.524521 
	C218.063461,155.495224 219.387436,157.575546 224.555771,157.072403 
	C228.347519,156.703247 232.206970,157.059998 236.035797,157.031418 
	C238.946915,157.009674 240.253128,158.342331 240.207687,161.291046 
	C240.120453,166.950195 240.021317,172.617340 240.229340,178.270050 
	C240.373840,182.197037 238.817184,183.474518 234.953293,183.430099 
	C220.803833,183.267426 206.651337,183.369232 192.000000,183.371826 
z"/>
<path fill="#000000" opacity="1.000000" stroke="none" 
	d="
M293.812103,96.004883 
	C293.807953,80.666374 293.807953,80.666382 308.706451,80.655769 
	C321.898254,80.646370 321.909119,80.646355 321.917023,93.784286 
	C321.928436,112.777603 322.031677,131.772003 321.846100,150.763504 
	C321.800110,155.471237 323.252380,157.501938 328.141693,157.087646 
	C331.945221,156.765366 335.801025,157.110229 339.631439,157.040451 
	C342.887848,156.981140 344.524170,158.142670 344.395691,161.716156 
	C344.186218,167.540268 344.245789,173.377899 344.338837,179.207474 
	C344.385803,182.151321 343.258057,183.380630 340.228180,183.371048 
	C319.569000,183.305679 298.909424,183.308426 278.250305,183.386444 
	C275.029816,183.398605 273.742401,182.093521 273.793060,178.936020 
	C273.886597,173.106308 273.876221,167.273270 273.796234,161.443161 
	C273.755798,158.495697 275.145050,157.134689 277.982330,157.092514 
	C281.147278,157.045441 284.344696,156.742599 287.470886,157.079971 
	C292.684387,157.642532 293.962189,155.395355 293.896118,150.483948 
	C293.654083,132.493484 293.807770,114.497719 293.812103,96.004883 
z"/>
</svg>