<svg version="1.1" id="Layer_1" xmlns="http://www.w3.org/2000/svg" xmlns:xlink="http://www.w3.org/1999/xlink" x="0px" y="0px"
	 width="100%" viewBox="0 0 512 512" enable-background="new 0 0 512 512" xml:space="preserve">
<path fill="#000000" opacity="1.000000" stroke="none" 
	d="
M338.857178,157.077255 
	C348.791351,157.153015 349.110687,157.472977 349.130432,166.957458 
	C349.137360,170.290054 348.985199,173.630768 349.167908,176.953354 
	C349.420166,181.540924 347.793152,183.825897 342.838165,183.439560 
	C340.077393,183.224289 337.199615,182.896164 334.156372,183.943634 
	C333.931458,189.024597 336.116730,193.608383 337.588989,198.187729 
	C343.801483,217.511108 348.356842,237.271652 352.695557,257.034943 
	C356.962585,276.471710 360.482422,296.089355 363.635498,315.777618 
	C366.421631,333.174622 368.285339,350.670135 370.712921,368.098145 
	C372.040192,377.626587 371.630219,387.366974 373.053650,396.940460 
	C373.469025,399.734131 372.046692,401.347534 369.039398,401.335999 
	C361.874573,401.308563 354.709076,401.274536 347.544861,401.345703 
	C343.431946,401.386536 343.026276,398.430695 342.968323,395.574341 
	C342.795746,387.067413 341.644470,378.656464 340.904327,370.202606 
	C339.120636,349.829712 336.197998,329.625275 333.185272,309.403961 
	C329.778015,286.534302 325.373047,263.874146 320.528870,241.296127 
	C316.624939,223.100494 311.656006,205.154648 306.310608,187.322861 
	C305.489166,184.582596 303.776154,183.309402 300.786011,183.346542 
	C292.122681,183.454163 283.455688,183.452667 274.792755,183.320145 
	C271.346954,183.267441 269.911530,184.758041 269.973663,188.079407 
	C270.020416,190.577408 269.935303,193.077606 269.935059,195.576828 
	C269.929810,253.064484 269.928284,310.552124 269.925842,368.039795 
	C269.925537,375.277100 269.924072,375.216919 276.931366,375.111237 
	C282.928711,375.020782 288.930176,375.176300 294.926605,375.058929 
	C299.379822,374.971741 301.793518,376.369171 301.427917,381.423889 
	C301.056244,386.562897 301.234406,391.751831 301.370605,396.913635 
	C301.453094,400.040558 300.397156,401.392212 297.072723,401.382233 
	C269.745544,401.300201 242.417923,401.315308 215.090622,401.376129 
	C211.952637,401.383118 210.542252,400.287811 210.632019,397.010315 
	C210.782486,391.515778 210.817398,386.008209 210.611038,380.517029 
	C210.465500,376.644165 212.076080,375.016174 215.862076,375.058838 
	C222.359558,375.131989 228.883347,374.738525 235.348022,375.205902 
	C239.739883,375.523376 240.757141,374.005249 240.744339,369.939789 
	C240.633118,334.614349 240.685043,299.288422 240.685959,263.962616 
	C240.686615,239.134583 240.566559,214.305557 240.781693,189.479401 
	C240.824051,184.589996 239.222519,183.089310 234.476135,183.296097 
	C226.992020,183.622177 219.482605,183.430481 211.985046,183.350388 
	C209.335632,183.322083 207.805786,184.078217 206.907135,186.901505 
	C201.561203,203.696503 197.180099,220.747055 193.401398,237.942123 
	C190.088501,253.017654 187.041397,268.159454 184.266312,283.343140 
	C181.459015,298.703003 179.256119,314.165100 177.165359,329.646759 
	C175.050720,345.305359 173.482101,361.014862 171.774353,376.714325 
	C171.036301,383.499420 171.487122,390.347229 170.345215,397.125275 
	C169.823196,400.223816 168.643616,401.459076 165.533707,401.399567 
	C158.870895,401.272125 152.202438,401.268738 145.539413,401.388306 
	C141.689880,401.457367 140.466995,399.548431 140.943878,396.075348 
	C143.182144,379.774872 144.227310,363.351349 146.237778,347.011200 
	C150.100189,315.619080 156.056442,284.655579 163.037613,253.886200 
	C167.816742,232.822235 173.301056,211.894241 179.686218,191.232315 
	C180.374252,189.005951 181.013931,186.802658 180.884201,184.269699 
	C177.678391,182.607712 174.306488,183.473434 171.090775,183.417923 
	C167.941803,183.363541 166.560684,182.250168 166.642151,178.995682 
	C166.783844,173.333939 166.774307,167.663376 166.632675,162.001404 
	C166.546906,158.572067 168.101471,157.109894 171.386154,157.107391 
	C175.718323,157.104111 180.054306,156.942932 184.381424,157.079132 
	C187.849121,157.188263 189.760803,155.870026 191.094955,152.511978 
	C198.123169,134.822144 206.541672,117.817131 217.732895,102.348137 
	C223.801773,93.959465 230.457962,85.997147 239.858475,81.051048 
	C257.772308,71.625641 275.922607,78.718864 288.127625,91.765991 
	C304.111847,108.853111 314.372406,129.333633 322.910309,150.747589 
	C324.863586,155.646713 327.264496,157.778229 332.392639,157.096161 
	C334.355743,156.835052 336.384705,157.068771 338.857178,157.077255 
M218.552170,149.960175 
	C217.780212,151.935181 216.586319,153.806793 216.950546,156.025375 
	C218.425537,157.423981 220.169556,156.960312 221.776031,156.981125 
	C226.768677,157.045776 231.762497,157.024414 236.755859,157.027176 
	C255.064880,157.037323 273.373962,157.066437 291.682861,157.025360 
	C294.230072,157.019653 297.765472,157.643509 295.888794,152.948853 
	C290.232941,138.800385 283.326721,125.375305 272.706329,114.220062 
	C262.197815,103.182304 251.427597,103.092255 240.829514,113.877464 
	C230.862991,124.019974 224.469360,136.406830 218.552170,149.960175 
z"/>
</svg>