<svg version="1.1" id="Layer_1" xmlns="http://www.w3.org/2000/svg" xmlns:xlink="http://www.w3.org/1999/xlink" x="0px" y="0px"
	 width="100%" viewBox="0 0 512 512" enable-background="new 0 0 512 512" xml:space="preserve">
<path fill="#000000" opacity="1.000000" stroke="none" 
	d="
M293.359894,91.779037 
	C295.656952,94.984428 298.763000,94.562675 301.751007,94.739372 
	C314.106903,95.470047 326.251984,97.261627 337.417572,103.036766 
	C352.188049,110.676468 359.278412,122.720161 358.504944,139.511902 
	C357.725525,156.431702 348.170807,166.782608 333.556854,173.063354 
	C323.250977,177.492599 312.236053,179.358307 300.971924,179.311508 
	C298.389679,179.300766 296.003571,179.491028 294.203552,181.684799 
	C288.861084,188.195984 281.676697,192.062134 274.095734,195.192444 
	C271.174957,196.398468 269.988220,197.931992 270.161682,201.148941 
	C272.970856,253.242447 270.725464,305.379456 271.416199,357.492859 
	C271.583954,370.146942 271.455750,382.805817 271.718292,395.457214 
	C271.805084,399.637939 270.686066,401.640076 266.132080,401.434967 
	C259.978882,401.157806 253.796875,401.175751 247.641129,401.418945 
	C243.346329,401.588654 241.979645,399.500183 242.111359,395.696686 
	C242.255402,391.536957 242.552826,387.378052 242.556274,383.218567 
	C242.601410,328.728851 242.605774,274.239105 242.622070,219.749374 
	C242.623764,214.085754 242.546982,208.422760 243.545929,202.806686 
	C244.243851,198.882965 243.099838,196.526199 238.851074,194.924362 
	C231.681992,192.221481 224.928192,188.384354 219.907288,182.335159 
	C217.545120,179.489212 214.645340,179.347488 211.406128,179.281647 
	C198.116425,179.011566 185.213058,176.839218 173.652374,169.857025 
	C161.429352,162.474823 155.139435,151.428009 155.263626,137.105759 
	C155.390686,122.450485 161.737473,111.227402 174.691208,104.000450 
	C186.467743,97.430244 199.373383,95.327293 212.588989,94.786713 
	C216.312592,94.634407 219.167145,93.689194 221.906311,91.033646 
	C242.695465,70.879089 273.957031,72.993820 293.359894,91.779037 
M279.852936,158.301834 
	C285.834625,142.786789 286.095123,127.359459 277.982574,112.571877 
	C268.667114,95.591591 246.732605,95.349831 236.296326,111.645775 
	C230.916824,120.045738 229.850891,129.204056 229.738907,138.845642 
	C229.609009,150.031281 232.854279,159.860809 240.345413,168.084045 
	C243.991928,172.086945 248.643478,174.365997 254.353149,174.816559 
	C266.842438,175.802155 274.347778,169.333008 279.852936,158.301834 
M331.328613,123.319321 
	C324.404266,115.090408 312.165955,110.859215 305.309570,114.596397 
	C310.292114,130.365814 309.662659,146.295700 304.747681,162.254669 
	C332.634033,161.109299 339.118042,142.476135 331.328613,123.319321 
M186.656494,154.860184 
	C193.081604,160.114304 200.660461,161.800217 209.438644,162.539062 
	C204.494843,146.051437 204.146423,130.058563 208.622986,114.137589 
	C199.723740,111.944534 186.951721,116.888748 182.740738,123.830322 
	C177.244507,132.890533 178.705475,146.084167 186.656494,154.860184 
z"/>
</svg>