<svg version="1.1" id="Layer_1" xmlns="http://www.w3.org/2000/svg" xmlns:xlink="http://www.w3.org/1999/xlink" x="0px" y="0px"
	 width="100%" viewBox="0 0 512 512" enable-background="new 0 0 512 512" xml:space="preserve">
<path fill="#000000" opacity="1.000000" stroke="none" 
	d="
M264.998047,208.921906 
	C242.667038,208.918243 220.835464,208.904022 199.003906,208.918839 
	C192.163345,208.923477 192.161819,208.959244 192.168396,215.960083 
	C192.173569,221.459610 191.950912,226.972321 192.261627,232.454666 
	C192.528122,237.156860 190.613998,238.620193 186.112915,238.388123 
	C180.295456,238.088165 174.434235,238.039902 168.623306,238.396225 
	C163.870422,238.687683 162.729294,236.775436 162.746185,232.323883 
	C162.887161,195.160767 162.826019,157.996887 162.826157,120.833244 
	C162.826202,109.334183 162.962402,97.832718 162.757751,86.337303 
	C162.681503,82.055084 164.019409,80.335266 168.484329,80.570274 
	C174.633499,80.893929 180.818680,80.821091 186.976273,80.591507 
	C190.850128,80.447067 192.324753,81.817039 192.250809,85.749855 
	C192.072250,95.245483 192.460876,104.756271 192.113800,114.242393 
	C191.931503,119.224442 193.359451,120.788063 198.524612,120.765236 
	C243.853394,120.564873 289.183441,120.647881 334.513092,120.650055 
	C342.304474,120.650421 342.307556,120.657257 342.319794,128.580734 
	C342.326508,132.913696 342.093903,137.261978 342.384644,141.575348 
	C342.674194,145.870834 340.751190,147.027420 336.805054,146.996674 
	C321.640594,146.878494 306.474609,146.975510 291.309174,146.972351 
	C260.478363,146.965958 229.647522,146.940201 198.816696,146.937790 
	C192.220856,146.937286 192.206787,146.967346 192.195648,153.672134 
	C192.183456,161.004837 192.197769,168.337555 192.206070,175.670273 
	C192.213943,182.635712 192.217087,182.645523 199.442154,182.646332 
	C235.272583,182.650284 271.102997,182.646347 306.933441,182.650772 
	C314.290070,182.651672 314.316864,182.662659 314.317657,189.989288 
	C314.325287,258.317078 314.274841,326.644989 314.422882,394.972473 
	C314.433716,399.975342 313.096252,401.809967 307.962250,401.453125 
	C301.825470,401.026642 295.634155,401.235779 289.471802,401.387482 
	C286.195435,401.468109 285.025330,400.075684 285.053284,396.938965 
	C285.126099,388.773834 285.033539,380.607422 285.038788,372.441498 
	C285.073120,318.946167 285.116852,265.450806 285.147217,211.955475 
	C285.147675,211.144562 285.017487,210.333588 284.897064,208.922577 
	C278.359375,208.922577 271.928436,208.922577 264.998047,208.921906 
z"/>
</svg>