<svg version="1.1" id="Layer_1" xmlns="http://www.w3.org/2000/svg" xmlns:xlink="http://www.w3.org/1999/xlink" x="0px" y="0px"
	 width="100%" viewBox="0 0 512 512" enable-background="new 0 0 512 512" xml:space="preserve">
<path fill="#000000" opacity="1.000000" stroke="none" 
	d="
M264.394165,158.438599 
	C252.240082,164.365601 240.944885,171.166534 228.781204,176.246887 
	C210.972214,183.685104 192.809540,185.509491 174.177170,179.789108 
	C157.612869,174.703659 147.182343,163.520706 141.759369,147.229691 
	C138.141357,136.361038 137.002762,125.145325 136.656570,113.831161 
	C136.528458,109.644836 135.400803,107.748016 130.885620,108.111061 
	C126.416901,108.470367 121.894226,108.106316 117.397369,108.184029 
	C113.477348,108.251755 111.552849,106.673576 111.692345,102.530472 
	C111.871635,97.205162 111.873383,91.864052 111.681961,86.539436 
	C111.547516,82.799484 113.140427,81.334648 116.732979,81.669250 
	C117.558830,81.746170 118.397987,81.680016 119.231026,81.680038 
	C203.700806,81.682358 288.170563,81.684174 372.640350,81.687950 
	C380.335449,81.688293 380.340637,81.694122 380.352722,89.513008 
	C380.359680,94.011337 380.246338,98.512550 380.374054,103.007149 
	C380.478119,106.668732 378.689423,108.165764 375.241882,108.151909 
	C374.075745,108.147224 372.909546,108.172173 371.743378,108.172157 
	C305.600403,108.171425 239.457413,108.170105 173.314423,108.166801 
	C165.924896,108.166435 166.093231,108.161209 166.078705,115.693634 
	C166.066071,122.244980 166.872238,128.640869 168.816742,134.861862 
	C174.007996,151.470139 186.601654,158.721237 204.857864,156.454742 
	C222.084717,154.316040 236.527939,145.805038 251.186493,137.536209 
	C260.595673,132.228546 269.954254,126.484131 281.133545,125.736717 
	C298.167419,124.597878 313.168610,130.260651 326.896484,139.940186 
	C337.810547,147.635696 347.447693,156.888092 357.849945,165.205276 
	C360.700073,167.484116 360.267242,169.491364 357.920349,171.798370 
	C353.881683,175.768433 349.827698,179.735733 346.013672,183.917206 
	C343.276672,186.917847 341.173126,186.942825 338.154114,184.091431 
	C330.287109,176.661209 322.289856,169.364197 313.659454,162.785690 
	C298.251068,151.040726 282.036255,148.960632 264.394165,158.438599 
z"/>
<path fill="#000000" opacity="1.000000" stroke="none" 
	d="
M301.877106,256.000000 
	C301.919159,301.312531 301.963654,346.125092 301.998932,390.937622 
	C302.000641,393.101929 301.985352,395.269958 301.863007,397.429718 
	C301.719879,399.956787 300.507294,401.385223 297.761688,401.362335 
	C290.599030,401.302551 283.435486,401.311523 276.272552,401.345459 
	C273.240845,401.359833 272.134460,399.614838 272.080872,396.926086 
	C272.017822,393.762360 272.067047,390.596344 272.067657,387.431335 
	C272.080444,320.628876 272.091705,253.826431 272.107849,187.023972 
	C272.109985,178.188766 272.317169,177.979935 280.937531,177.946899 
	C285.435394,177.929672 289.933868,177.902618 294.431152,177.956009 
	C301.000366,178.034027 301.881042,178.814651 301.902679,185.532730 
	C301.963806,204.523666 301.901031,223.514999 301.887085,242.506180 
	C301.883911,246.837448 301.880859,251.168732 301.877106,256.000000 
z"/>
</svg>