<svg version="1.1" id="Layer_1" xmlns="http://www.w3.org/2000/svg" xmlns:xlink="http://www.w3.org/1999/xlink" x="0px" y="0px"
	 width="100%" viewBox="0 0 512 512" enable-background="new 0 0 512 512" xml:space="preserve">
<path fill="#000000" opacity="1.000000" stroke="none" 
	d="
M292.886230,142.945786 
	C305.982574,120.595810 320.925385,99.965088 336.411255,79.699295 
	C338.709076,76.692230 340.504303,76.069016 343.652740,78.647881 
	C349.813843,83.694389 356.277466,88.371552 363.121582,93.586998 
	C358.523956,99.241425 354.175842,104.432701 350.002472,109.760811 
	C344.662567,116.578209 339.649506,123.660774 334.113525,130.311020 
	C331.847076,133.033646 331.840729,135.500107 332.577515,138.542694 
	C340.282104,170.359833 347.829803,202.215576 355.711639,233.988556 
	C356.950073,238.980698 355.879730,240.827164 350.847412,241.663803 
	C344.815125,242.666687 338.927185,244.537598 331.816620,246.324066 
	C325.801147,215.359772 314.030670,185.847031 316.322388,154.098663 
	C301.522736,183.146011 285.098938,211.814423 277.060486,244.166168 
	C274.239716,255.518570 272.455658,267.017456 272.394409,278.658997 
	C272.191101,317.317505 272.315826,355.977692 272.304718,394.637238 
	C272.302795,401.318176 272.280273,401.332031 265.782501,401.344940 
	C259.617004,401.357208 253.449692,401.246277 247.286728,401.368134 
	C244.263657,401.427917 243.067703,400.119385 243.092239,397.217682 
	C243.135925,392.052490 243.091537,386.886444 243.066376,381.720856 
	C242.884491,344.397278 243.631027,307.070374 242.715683,269.749786 
	C242.377213,255.950027 238.453049,242.858948 234.346695,229.852173 
	C228.711319,212.002228 220.785980,195.130264 211.904922,178.687347 
	C207.559250,170.641556 203.090622,162.650452 199.630753,153.899780 
	C201.487946,185.829147 189.697327,215.273071 184.079102,246.349792 
	C176.107590,244.399689 168.878677,242.620270 161.643478,240.866760 
	C158.796021,240.176651 158.737381,238.503189 159.362885,235.975540 
	C163.394409,219.684052 167.272491,203.354553 171.186554,187.034058 
	C175.101501,170.709915 178.906342,154.358337 182.987244,138.075882 
	C183.763550,134.978531 183.263229,132.722870 181.450256,130.227036 
	C173.027390,118.631668 164.528946,107.104851 154.894623,96.463860 
	C154.131958,95.621490 153.553726,94.612137 152.556610,93.212822 
	C160.186600,87.414825 167.663803,81.732933 175.426285,75.834267 
	C211.501480,118.845535 242.884445,163.793793 258.714600,218.355911 
	C266.724274,191.635330 278.866730,167.061401 292.886230,142.945786 
z"/>
</svg>