<svg version="1.1" id="Layer_1" xmlns="http://www.w3.org/2000/svg" xmlns:xlink="http://www.w3.org/1999/xlink" x="0px" y="0px"
	 width="100%" viewBox="0 0 512 512" enable-background="new 0 0 512 512" xml:space="preserve">
<path fill="#000000" opacity="1.000000" stroke="none" 
	d="
M305.146423,200.802063 
	C318.124664,200.741501 330.623962,200.835876 343.116272,200.583771 
	C347.250427,200.500336 348.339264,202.257797 348.197235,205.948471 
	C348.030792,210.274277 348.172729,214.611694 348.169037,218.944077 
	C348.162323,226.816925 348.106934,226.978287 339.980042,226.898056 
	C325.659119,226.756683 311.330261,226.704437 297.023193,226.143661 
	C288.438934,225.807205 279.889709,224.577530 271.434723,223.759949 
	C270.618500,224.707108 270.925018,225.548370 271.475555,226.161072 
	C282.179596,238.074402 286.838531,252.925781 291.171875,267.774384 
	C303.109192,308.678680 310.256042,350.616669 317.397400,392.544067 
	C317.840912,395.147919 318.861481,397.700531 317.824677,401.218109 
	C309.521820,401.218109 300.948425,401.307739 292.379059,401.160797 
	C289.969238,401.119476 289.937195,398.821716 289.622711,397.032959 
	C286.975769,381.977875 284.464355,366.897583 281.659180,351.872070 
	C276.047424,321.813477 271.080688,291.613434 262.697723,262.141144 
	C261.788849,258.945740 260.632874,255.813416 259.445068,252.707855 
	C258.921173,251.338165 258.242401,249.656403 256.548889,249.575592 
	C254.343002,249.470322 253.557739,251.454300 252.788971,253.078476 
	C248.923279,261.245361 246.580124,269.941010 244.444458,278.656616 
	C235.018158,317.125183 229.252792,356.266083 223.477203,395.392700 
	C222.799393,399.984497 221.235748,401.679962 216.556808,401.444977 
	C209.475540,401.089355 202.363220,401.352112 194.686478,401.352112 
	C196.151077,391.359711 197.330353,382.335846 198.814728,373.362427 
	C204.186310,340.890167 210.026688,308.511047 218.606781,276.692810 
	C222.167435,263.488464 226.580017,250.618988 232.685135,238.337418 
	C235.207565,233.263062 239.242538,229.306137 242.725571,224.290024 
	C236.993011,223.682312 231.985291,224.928162 226.972992,225.427933 
	C208.532059,227.266693 190.047958,226.813721 171.569809,226.983826 
	C167.305222,227.023087 165.509399,225.604523 165.767151,221.182800 
	C166.057571,216.201035 166.074509,211.172928 165.751343,206.194778 
	C165.457993,201.675980 167.318893,200.486130 171.572189,200.591965 
	C195.306702,201.182556 219.234634,198.506241 242.824448,205.738480 
	C242.408920,203.472107 240.997910,203.113586 239.946091,202.575119 
	C229.423096,197.187851 222.240387,188.585754 216.962402,178.321884 
	C201.886795,149.005112 221.898178,115.459450 254.801392,114.673141 
	C259.485687,114.561203 264.114288,114.799370 268.696320,115.809448 
	C270.957214,116.307846 272.166107,117.269836 271.629364,119.964989 
	C270.689484,124.684586 269.973083,129.458145 269.399261,134.237457 
	C269.080872,136.889206 267.714844,137.562668 265.348419,137.350952 
	C263.027161,137.143265 260.693634,136.969559 258.365051,136.963837 
	C245.952347,136.933350 239.296509,142.222809 237.605728,154.547852 
	C236.227402,164.595200 237.266342,174.480164 242.980820,183.372635 
	C245.295547,186.974655 248.304886,189.868195 252.066269,191.728027 
	C256.476166,193.908508 260.766205,193.392639 264.501038,189.873444 
	C269.731384,184.945053 273.279663,178.921402 275.210724,172.111374 
	C279.497345,156.994385 280.244934,141.585556 277.398865,126.147499 
	C273.825958,106.766930 260.037201,100.422913 243.288055,101.582832 
	C237.658768,101.972672 232.063644,102.956322 226.478165,103.829979 
	C224.232758,104.181206 222.410126,104.140770 221.873383,101.497559 
	C220.749008,95.960564 219.701401,90.408012 218.611145,84.864037 
	C218.137741,82.456696 218.989441,81.170242 221.511261,80.660713 
	C237.153229,77.500298 252.851593,75.995987 268.487030,80.248055 
	C286.266602,85.083229 296.827271,97.352600 300.877075,114.822906 
	C306.530792,139.212143 304.068726,162.799011 291.087616,184.678894 
	C287.253296,191.141769 282.325409,196.809067 276.499847,201.642288 
	C275.143311,202.767746 273.405701,203.584274 272.631317,206.117767 
	C283.512299,204.095566 293.917755,201.304276 305.146423,200.802063 
z"/>
</svg>