<svg version="1.1" id="Layer_1" xmlns="http://www.w3.org/2000/svg" xmlns:xlink="http://www.w3.org/1999/xlink" x="0px" y="0px"
	 width="100%" viewBox="0 0 512 512" enable-background="new 0 0 512 512" xml:space="preserve">
<path fill="#000000" opacity="1.000000" stroke="none" 
	d="
M246.696457,369.999939 
	C246.690704,309.670166 246.688675,249.840408 246.674728,190.010651 
	C246.673187,183.370895 246.641647,183.364456 240.106186,183.360733 
	C227.606949,183.353607 215.101349,183.584366 202.611572,183.239532 
	C197.593246,183.100998 196.078049,184.501724 196.091141,189.639191 
	C196.258224,255.134888 196.202209,320.631134 196.202042,386.127228 
	C196.202026,389.793640 196.138229,393.461151 196.208618,397.126160 
	C196.263321,399.973755 195.234085,401.426819 192.133789,401.373566 
	C185.136322,401.253296 178.133636,401.244598 171.136597,401.377136 
	C167.839279,401.439545 166.612900,399.977905 166.813049,396.863312 
	C166.898346,395.535797 166.816360,394.197784 166.816345,392.864532 
	C166.814743,291.537231 166.813736,190.209930 166.812912,88.882629 
	C166.812897,87.882690 166.895767,86.875381 166.803848,85.884132 
	C166.457809,82.152428 167.756454,80.079285 171.857742,80.642197 
	C172.511963,80.731987 173.189255,80.653259 173.855881,80.653252 
	C232.519058,80.652283 291.182251,80.650177 349.845428,80.652016 
	C357.194153,80.652245 357.208618,80.661942 357.208984,88.095543 
	C357.213806,189.922806 357.215424,291.750061 357.213928,393.577332 
	C357.213806,401.344574 357.200104,401.347656 349.200348,401.349854 
	C343.867340,401.351288 338.531769,401.240479 333.202301,401.375946 
	C329.946045,401.458679 328.731689,400.055847 328.818268,396.901001 
	C328.941681,392.404785 328.840149,387.902466 328.839752,383.402771 
	C328.834198,319.073273 328.834137,254.743790 328.817902,190.414307 
	C328.816132,183.373779 328.773438,183.368179 321.633850,183.364090 
	C307.968018,183.356247 294.301239,183.442093 280.636932,183.295639 
	C276.847595,183.255035 275.248596,184.124634 275.655334,188.401855 
	C276.189575,194.020035 275.900665,199.720001 275.902466,205.384811 
	C275.922180,268.047729 275.934082,330.710632 275.934937,393.373566 
	C275.935059,401.347015 275.900391,401.350861 268.074982,401.352875 
	C262.408661,401.354340 256.739899,401.241791 251.077011,401.378693 
	C247.880478,401.455963 246.616867,400.233948 246.662643,396.995911 
	C246.787476,388.165527 246.700027,379.332153 246.696457,369.999939 
M196.209030,144.480957 
	C196.213120,146.980316 196.359818,149.489563 196.187225,151.976654 
	C195.940247,155.535706 197.210907,157.077866 200.997910,157.070450 
	C241.987534,156.990097 282.977417,157.005005 323.967133,157.065948 
	C327.247284,157.070831 328.878143,156.104691 328.849152,152.526047 
	C328.738556,138.863724 328.732727,125.199463 328.844452,111.537209 
	C328.873322,108.011093 327.367249,106.903412 324.040405,106.909027 
	C283.050720,106.978195 242.060898,107.001541 201.071213,106.944130 
	C197.372482,106.938950 196.116776,108.373505 196.168411,111.994965 
	C196.318039,122.490135 196.213638,132.988922 196.209030,144.480957 
z"/>
</svg>