<svg version="1.1" id="Layer_1" xmlns="http://www.w3.org/2000/svg" xmlns:xlink="http://www.w3.org/1999/xlink" x="0px" y="0px"
	 width="100%" viewBox="0 0 512 512" enable-background="new 0 0 512 512" xml:space="preserve">
<path fill="#000000" opacity="1.000000" stroke="none" 
	d="
M175.087036,389.802338 
	C174.179581,401.358521 174.179581,401.358307 163.320541,401.352936 
	C158.654297,401.350616 153.971100,401.101624 149.326752,401.419556 
	C144.973862,401.717560 143.523727,400.227478 143.569168,395.787048 
	C143.743134,378.784454 145.254532,361.918274 147.471741,345.072449 
	C149.777954,327.550323 153.425690,310.380646 158.680664,293.491028 
	C168.116150,263.165070 182.082367,235.125198 200.222122,209.116470 
	C221.501785,178.605743 246.990173,151.917908 274.580780,127.117798 
	C293.306274,110.286156 312.767517,94.368774 332.962494,79.340752 
	C334.419342,78.256660 335.906799,77.213684 338.098206,75.633827 
	C343.472565,83.258453 348.679596,90.645676 354.223389,98.510681 
	C347.891052,103.295128 341.912048,107.727051 336.026489,112.279800 
	C327.465820,118.901901 319.018097,125.670769 310.420746,132.244308 
	C308.050049,134.056961 307.217346,136.124557 307.293701,139.061539 
	C307.851624,160.526672 309.748352,181.877045 312.073242,203.216400 
	C315.610901,235.687347 322.084747,267.576813 330.524384,299.076050 
	C338.509949,328.880524 348.742767,357.899689 362.040680,385.794647 
	C363.373383,388.590179 365.235687,391.250336 365.392792,394.996918 
	C357.582062,398.156982 349.721985,401.287811 341.904907,404.522430 
	C338.510712,405.926910 337.917877,403.261383 336.924286,401.264130 
	C327.926483,383.177734 320.749146,364.380585 314.772522,345.091309 
	C303.190094,307.709381 294.072266,269.728821 287.109589,231.237061 
	C284.119232,214.705353 281.795898,198.038467 281.868652,181.189011 
	C281.913696,170.753708 282.244293,160.254303 287.820312,149.687744 
	C268.311462,171.024200 248.017120,190.073669 231.673523,212.638748 
	C203.841644,251.065308 185.705688,293.441772 179.118530,340.635651 
	C176.860718,356.811798 175.185913,372.992462 175.087036,389.802338 
z"/>
<path fill="#000000" opacity="1.000000" stroke="none" 
	d="
M250.999908,401.340515 
	C234.670349,401.338898 218.839447,401.222168 203.012207,401.412415 
	C198.852112,401.462402 197.387451,400.059692 197.590836,395.950775 
	C197.854126,390.631714 197.841736,385.281219 197.594193,379.960724 
	C197.418350,376.181122 198.995560,374.980194 202.554398,375.022552 
	C211.884048,375.133636 221.218002,374.930359 230.546204,375.089325 
	C234.339630,375.153931 235.865997,373.940369 235.852707,369.936340 
	C235.750397,339.110809 235.783142,308.284546 235.889572,277.458923 
	C235.902557,273.698608 234.536255,272.494507 230.829300,272.759552 
	C226.186508,273.091522 221.504486,272.868073 216.839478,272.898346 
	C213.995224,272.916809 212.602020,271.717651 212.668182,268.679840 
	C212.798737,262.684143 212.796799,256.681976 212.677307,250.685898 
	C212.616119,247.616150 213.989151,246.630432 216.894196,246.638474 
	C238.222183,246.697479 259.550476,246.695618 280.878510,246.645691 
	C283.786896,246.638885 285.202332,247.750961 285.175629,250.735016 
	C285.121918,256.732910 285.088409,262.732849 285.190063,268.729492 
	C285.241699,271.774170 283.771606,272.897400 280.937622,272.891846 
	C276.105988,272.882416 271.273834,272.993439 266.442627,272.956909 
	C263.515167,272.934784 262.307495,274.173676 262.313416,277.175415 
	C262.374786,308.334503 262.397003,339.493835 262.300415,370.652710 
	C262.288635,374.445129 264.204956,375.056274 267.291107,375.037109 
	C276.955017,374.977051 286.621826,375.150085 296.282867,374.975067 
	C300.308197,374.902161 302.093750,376.280090 301.935272,380.441711 
	C301.738922,385.599121 301.758545,390.775848 301.958313,395.933624 
	C302.113800,399.947113 300.713318,401.487488 296.487640,401.426208 
	C281.494476,401.208710 266.496216,401.340576 250.999908,401.340515 
z"/>
</svg>