<svg version="1.1" id="Layer_1" xmlns="http://www.w3.org/2000/svg" xmlns:xlink="http://www.w3.org/1999/xlink" x="0px" y="0px"
	 width="100%" viewBox="0 0 512 512" enable-background="new 0 0 512 512" xml:space="preserve">
<path fill="#000000" opacity="1.000000" stroke="none" 
	d="
M180.652527,200.066956 
	C179.016281,166.351959 177.954086,133.089203 173.917603,100.024063 
	C173.293472,94.911331 173.236404,89.726921 172.548325,84.625397 
	C172.142395,81.615616 173.223480,80.263474 175.997375,79.851166 
	C182.735107,78.849701 189.473663,77.853691 196.212723,76.861290 
	C198.590881,76.511086 200.027496,77.286659 200.277023,79.920639 
	C201.263290,90.331818 202.489609,100.722878 203.309723,111.146362 
	C203.980682,119.674286 203.918915,119.831337 212.166351,119.829796 
	C243.991562,119.823860 275.817230,119.727081 307.641510,119.896477 
	C312.626495,119.923012 314.631165,118.751564 314.868988,113.294640 
	C315.317078,103.010963 316.771301,92.771156 317.805939,82.512978 
	C318.186493,78.739906 319.244476,76.480247 324.045898,77.413116 
	C330.062286,78.582039 336.267090,78.795891 342.395905,79.364609 
	C345.265320,79.630875 346.412292,80.906013 346.079193,83.942329 
	C343.487701,107.566528 340.986511,131.200729 338.503906,154.836716 
	C337.704773,162.445328 336.898407,170.058685 336.383331,177.689301 
	C336.126892,181.488647 334.597412,182.498322 330.937683,181.935226 
	C324.697327,180.975052 318.398560,180.369736 312.110931,179.752243 
	C309.215546,179.467865 308.146057,178.378174 308.503845,175.260345 
	C309.432007,167.172134 309.915527,159.033936 310.735046,150.931732 
	C311.091797,147.404755 309.749817,146.245834 306.263458,146.254959 
	C274.438446,146.338272 242.613052,146.334137 210.788071,146.247467 
	C207.296158,146.237961 206.007904,147.471680 206.275467,150.950867 
	C208.216583,176.190628 208.458633,201.498764 208.674072,226.785706 
	C208.857010,248.257797 208.200928,269.742645 207.617157,291.213684 
	C207.224762,305.645386 206.311203,320.062927 205.628372,334.538696 
	C208.566452,335.827087 211.415848,334.994720 214.171814,335.000427 
	C244.164032,335.062561 274.156433,335.036041 304.148804,335.020508 
	C310.860443,335.017029 311.189941,334.689484 310.608154,327.858795 
	C310.015808,320.904297 309.339783,313.955841 308.598389,307.015625 
	C308.301331,304.234436 309.489685,303.049683 312.153900,302.791138 
	C318.438629,302.181244 324.719757,301.522156 330.989807,300.777405 
	C334.439941,300.367584 336.015045,301.366150 336.398621,305.211029 
	C339.498505,336.283112 342.795929,367.335632 346.109741,398.385956 
	C346.463989,401.705292 345.586884,403.232971 341.983734,403.498413 
	C334.539185,404.046814 327.125793,405.018372 319.998474,405.783752 
	C318.210846,404.289948 318.072174,402.583832 317.902863,400.959656 
	C316.782532,390.214020 315.674896,379.466797 314.641327,368.712555 
	C313.936859,361.382538 313.978088,361.354828 306.612885,361.353882 
	C274.454407,361.349854 242.295929,361.346222 210.137451,361.353729 
	C203.766953,361.355225 203.749039,361.661377 203.274246,368.144073 
	C202.448181,379.423126 201.253082,390.674805 200.281921,401.943909 
	C200.059784,404.521545 198.792496,405.469696 196.332840,405.114563 
	C189.421127,404.116608 182.506805,403.136658 175.596466,402.129364 
	C172.883118,401.733887 172.242294,400.159149 172.488251,397.504578 
	C173.700623,384.419647 174.748291,371.319305 175.821869,358.221741 
	C177.262573,340.645111 178.184677,323.037903 179.191330,305.431488 
	C181.189514,270.483490 180.607956,235.520187 180.652527,200.066956 
z"/>
</svg>