<svg version="1.1" id="Layer_1" xmlns="http://www.w3.org/2000/svg" xmlns:xlink="http://www.w3.org/1999/xlink" x="0px" y="0px"
	 width="100%" viewBox="0 0 512 512" enable-background="new 0 0 512 512" xml:space="preserve">
<path fill="#000000" opacity="1.000000" stroke="none" 
	d="
M327.424225,81.205017 
	C335.184021,83.237656 335.264526,83.248421 334.257874,90.774658 
	C333.663300,95.220009 332.737030,99.620148 332.013428,104.049355 
	C331.431793,107.609421 329.633240,108.419441 326.022430,107.878059 
	C316.834961,106.500565 307.666595,105.192047 298.277863,105.051537 
	C277.438202,104.739677 274.188751,114.541344 272.534607,129.635208 
	C271.016510,143.487930 270.855988,157.501511 270.425049,171.454346 
	C270.285980,175.958527 268.058258,180.106888 268.446716,185.262573 
	C271.328949,183.698914 272.450470,181.197357 274.033234,179.244400 
	C290.008331,159.532806 307.679382,155.520279 333.698486,162.334274 
	C356.521698,168.311310 367.722656,185.778259 373.252808,207.151581 
	C378.445831,227.221741 378.798767,247.594940 373.418365,267.839233 
	C369.363342,283.096527 361.559174,296.358032 351.481384,308.313324 
	C340.244873,321.643219 326.378662,332.036407 312.625275,342.557159 
	C300.612549,351.746429 288.059967,360.328522 278.445038,372.309662 
	C272.908875,379.208221 268.768951,386.649506 268.252136,395.682526 
	C268.024109,399.667725 266.439972,401.980743 262.052002,401.387146 
	C261.233887,401.276459 260.385620,401.412384 259.555176,401.365295 
	C255.746765,401.149384 251.327362,402.710266 248.279144,400.639801 
	C245.029572,398.432556 246.522919,393.583893 245.530350,389.987854 
	C242.518127,379.074463 235.238602,371.065521 227.172516,363.760223 
	C213.321335,351.215546 197.400253,341.310760 182.918396,329.550995 
	C163.897324,314.105255 148.857697,295.681641 141.582214,272.016266 
	C135.618256,252.617020 135.395752,232.728394 139.373734,212.793472 
	C141.348206,202.898895 144.725540,193.619736 150.107483,185.046600 
	C159.648453,169.848312 173.634949,161.813126 191.167526,159.993942 
	C198.068695,159.277863 205.086319,159.197189 212.067307,160.520706 
	C224.506027,162.878967 233.307907,170.293274 240.540329,180.095001 
	C241.800583,181.802994 242.645050,183.854843 245.123947,185.302170 
	C243.419907,175.348007 241.174438,165.858734 241.829193,156.089096 
	C242.894760,140.189331 243.548340,124.229408 249.334961,109.075478 
	C257.036469,88.906837 272.561035,80.067230 293.234161,78.720322 
	C304.592163,77.980324 315.830994,79.206627 327.424225,81.205017 
M271.106689,311.489014 
	C270.633270,325.987610 270.159882,340.486206 269.684937,355.031830 
	C271.171783,355.062653 271.620026,354.365021 271.989197,353.624023 
	C275.166046,347.247528 280.156586,342.340485 285.047394,337.329346 
	C296.439972,325.656525 309.018860,315.253784 320.329895,303.451904 
	C345.721100,276.958771 353.363739,246.139252 344.476562,210.938995 
	C342.724792,204.000732 339.740356,197.598663 334.363037,192.341248 
	C324.964874,183.152542 300.265656,184.543076 289.828369,191.162659 
	C276.906982,199.357697 271.956909,212.255402 271.584869,226.524780 
	C270.855469,254.499222 271.206512,282.501831 271.106689,311.489014 
M242.511932,355.036133 
	C245.735474,355.093079 244.287384,352.885040 244.198227,351.438507 
	C243.421936,338.845001 242.077148,326.260925 241.911407,313.660767 
	C241.563278,287.195831 241.836914,260.722839 241.835876,234.253143 
	C241.835617,227.438080 241.736053,220.667313 239.758026,214.005722 
	C236.598557,203.365280 231.311447,194.514099 220.908554,189.509140 
	C214.755615,186.548904 208.033249,185.640884 201.468399,185.760925 
	C186.713562,186.030731 177.954575,189.102341 171.500565,204.864410 
	C168.777863,211.513855 167.276337,218.532898 166.707718,225.674789 
	C165.307129,243.266006 166.137909,260.437195 174.519241,276.684753 
	C183.477661,294.051086 196.587570,307.776184 210.832336,320.678375 
	C222.277725,331.045044 234.547958,340.661011 242.511932,355.036133 
z"/>
</svg>