<svg version="1.1" id="Layer_1" xmlns="http://www.w3.org/2000/svg" xmlns:xlink="http://www.w3.org/1999/xlink" x="0px" y="0px"
	 width="100%" viewBox="0 0 512 512" enable-background="new 0 0 512 512" xml:space="preserve">
<path fill="#000000" opacity="1.000000" stroke="none" 
	d="
M142.014099,386.218475 
	C142.768875,370.307983 144.992981,354.999817 146.750793,339.652252 
	C148.073944,328.099854 149.963486,316.610168 151.703796,305.108124 
	C155.907242,277.326447 161.613770,249.839172 168.709320,222.665009 
	C177.714233,188.178467 188.200272,154.178131 205.085358,122.553352 
	C211.852509,109.878891 219.654282,97.893456 230.354340,88.042610 
	C246.107803,73.539391 264.485352,72.803802 281.550873,85.794540 
	C294.920319,95.971756 303.699646,109.686806 311.228302,124.223206 
	C325.899506,152.550476 335.673340,182.679199 343.637177,213.509857 
	C348.621490,232.805786 353.140533,252.197830 356.869659,271.743713 
	C360.540131,290.982147 363.459106,310.380463 366.128571,329.788330 
	C368.413391,346.399780 370.881531,363.014282 371.412445,379.832733 
	C371.569427,384.805267 372.454620,389.754425 372.996613,394.715332 
	C373.610168,400.331696 372.815308,401.306702 367.358093,401.349152 
	C361.193054,401.397095 355.022095,401.203369 348.863861,401.413544 
	C345.134003,401.540863 343.090607,400.169098 343.028748,396.403748 
	C342.754913,379.732849 340.621063,363.223145 338.616486,346.712891 
	C337.134491,334.507141 335.238251,322.350311 333.437347,310.184906 
	C330.005127,287.000397 325.610016,263.975037 320.461243,241.131210 
	C314.870422,216.326096 308.386169,191.726059 299.708588,167.759033 
	C294.430420,153.181015 288.934021,138.737213 280.719177,125.483833 
	C278.252228,121.503792 275.730560,117.538681 272.441956,114.235428 
	C260.751038,102.492569 250.514267,102.613258 239.607788,115.985466 
	C228.220886,129.946701 221.487534,146.540512 215.331024,163.323380 
	C205.585129,189.890991 197.942703,217.088562 191.883759,244.689041 
	C185.793350,272.432739 180.807480,300.388245 177.094131,328.588318 
	C174.140015,351.022461 171.901062,373.498749 170.362579,396.054291 
	C170.086121,400.107361 168.601868,401.600189 164.547333,401.430115 
	C158.392700,401.171906 152.214325,401.209625 146.055573,401.411713 
	C141.713287,401.554230 140.407211,399.568146 140.958771,395.598724 
	C141.370697,392.634064 141.625229,389.647583 142.014099,386.218475 
z"/>
<path fill="#000000" opacity="1.000000" stroke="none" 
	d="
M269.899597,312.000000 
	C269.915100,326.817383 269.822601,341.136169 270.009644,355.451324 
	C270.068420,359.952026 268.554321,361.712463 263.912964,361.440369 
	C257.939941,361.090179 251.927429,361.218689 245.939224,361.392456 
	C242.042633,361.505554 240.615540,359.875732 240.651901,356.056946 
	C240.767578,343.904938 240.680298,331.751007 240.680252,319.597839 
	C240.680115,276.645416 240.679306,233.693008 240.689880,190.740601 
	C240.691757,183.147415 241.080917,182.770248 248.530197,182.752716 
	C253.691132,182.740570 258.859558,182.918686 264.010742,182.693466 
	C268.391968,182.501907 270.058929,184.510010 269.948303,188.636765 
	C269.863556,191.797623 269.927979,194.962509 269.927216,198.125595 
	C269.917908,235.917068 269.908813,273.708527 269.899597,312.000000 
z"/>
</svg>