<svg version="1.1" id="Layer_1" xmlns="http://www.w3.org/2000/svg" xmlns:xlink="http://www.w3.org/1999/xlink" x="0px" y="0px"
	 width="100%" viewBox="0 0 512 512" enable-background="new 0 0 512 512" xml:space="preserve">
<path fill="#000000" opacity="1.000000" stroke="none" 
	d="
M280.999939,401.346130 
	C249.178696,401.346161 217.857483,401.349609 186.536270,401.341705 
	C179.842819,401.340027 179.819580,401.321045 179.818726,394.719177 
	C179.805573,292.258820 179.797119,189.798492 179.794800,87.338142 
	C179.794662,80.678429 179.822037,80.656204 186.387238,80.655334 
	C236.534500,80.648682 286.681946,80.708344 336.828766,80.559753 
	C341.644135,80.545486 343.479431,81.578537 343.448853,86.863670 
	C343.225281,125.514091 343.332581,164.166397 343.319977,202.818100 
	C343.317871,209.323044 343.283234,209.328629 336.652405,209.337402 
	C331.654327,209.344009 326.633240,209.033920 321.664642,209.415344 
	C316.652527,209.800110 315.281464,207.698090 315.579590,203.057739 
	C315.899353,198.080322 315.502869,193.060532 315.698303,188.070190 
	C315.830597,184.692642 314.745483,183.317230 311.173035,183.326660 
	C278.685883,183.412506 246.197998,183.440948 213.711411,183.274185 
	C208.554230,183.247726 209.200256,186.405350 209.199844,189.548737 
	C209.193329,238.029984 209.190430,286.511230 209.192505,334.992462 
	C209.192993,346.321411 209.423813,357.655762 209.130096,368.976776 
	C209.002213,373.905609 210.819122,375.158356 215.503036,375.140167 
	C255.653580,374.984222 295.804962,375.038300 335.956085,375.037750 
	C343.308624,375.037628 343.314209,375.054565 343.325958,382.535736 
	C343.333282,387.200592 343.147156,391.873810 343.372223,396.527618 
	C343.550903,400.223022 342.165375,401.440247 338.475220,401.412964 
	C319.484344,401.272522 300.491852,401.346405 280.999939,401.346130 
M209.219177,146.455933 
	C209.225479,148.453156 209.345718,150.457962 209.213013,152.445908 
	C208.978271,155.962265 210.646591,157.058060 213.992798,157.050903 
	C246.282410,156.981842 278.572327,156.975143 310.861877,157.055252 
	C314.578766,157.064468 315.748657,155.605377 315.706635,151.991837 
	C315.553802,138.844681 315.485077,125.691696 315.730957,112.547386 
	C315.814880,108.058891 314.134003,106.863541 309.907562,106.880127 
	C278.284088,107.004189 246.659576,107.022217 215.036362,106.870651 
	C210.368057,106.848274 209.033554,108.545647 209.137955,113.013336 
	C209.390594,123.826164 209.219574,134.648880 209.219177,146.455933 
z"/>
</svg>