<svg version="1.1" id="Layer_1" xmlns="http://www.w3.org/2000/svg" xmlns:xlink="http://www.w3.org/1999/xlink" x="0px" y="0px"
	 width="100%" viewBox="0 0 512 512" enable-background="new 0 0 512 512" xml:space="preserve">
<path fill="#000000" opacity="1.000000" stroke="none" 
	d="
M242.669510,192.999725 
	C242.138504,165.941025 244.259048,139.468353 245.284424,112.878792 
	C239.664719,129.352203 232.951889,145.210251 222.856186,159.419983 
	C206.651810,182.227707 190.393021,204.996780 174.158203,227.782883 
	C170.889404,232.370712 167.625031,236.961700 163.859711,242.252243 
	C156.722260,236.977646 149.893738,232.062668 143.231262,226.932083 
	C141.081055,225.276245 143.022781,223.650223 144.027176,222.233414 
	C159.054565,201.035614 174.086578,179.841064 189.146698,158.666504 
	C207.972137,132.197876 226.874634,105.783760 245.599762,79.244438 
	C247.873734,76.021507 250.447601,75.114212 254.252914,74.657822 
	C262.434692,73.676537 267.130371,77.063072 271.760040,83.670586 
	C303.589539,129.098145 335.863007,174.214600 367.985809,219.436676 
	C369.326385,221.323975 370.589691,223.266190 372.334381,225.839813 
	C364.972351,231.266220 357.832031,236.529205 350.192200,242.160355 
	C344.776093,234.573380 339.666473,227.435974 334.577728,220.283691 
	C319.512512,199.109253 304.427338,177.948898 289.405457,156.743698 
	C279.891296,143.313293 273.085602,128.546646 268.104797,112.210648 
	C266.777008,114.817101 267.848053,116.755554 268.036163,118.700653 
	C268.228363,120.688148 268.195709,122.697533 268.391876,124.684471 
	C270.913513,150.226303 271.471344,175.840424 271.366241,201.485733 
	C271.282928,221.812332 271.477478,242.140991 271.252777,262.465454 
	C271.200989,267.148407 272.374329,268.868164 277.339172,268.767944 
	C292.328369,268.465332 307.330475,268.824066 322.321167,268.561646 
	C327.020203,268.479401 328.516724,270.145416 328.239044,274.616333 
	C327.960785,279.097443 328.192322,283.609680 328.183533,288.108215 
	C328.170288,294.899597 328.160370,294.932037 321.111725,294.944183 
	C306.949554,294.968597 292.787292,294.961853 278.625092,294.960754 
	C271.361664,294.960205 271.352539,294.953156 271.351532,301.985260 
	C271.347198,332.975525 271.248383,363.966461 271.450348,394.955414 
	C271.482513,399.894165 270.272278,401.888489 265.063385,401.449280 
	C259.769287,401.002838 254.387939,401.058319 249.082703,401.431976 
	C244.144699,401.779785 242.500381,400.258911 242.540070,395.073914 
	C242.777390,364.085480 242.658676,333.094269 242.651764,302.104004 
	C242.650162,294.950531 242.636475,294.950684 235.470978,294.951691 
	C221.808609,294.953613 208.144577,294.835541 194.484863,295.026886 
	C190.139587,295.087708 188.492233,293.596985 188.749924,289.215363 
	C189.052673,284.067688 189.003967,278.882141 188.786102,273.726624 
	C188.618790,269.767731 190.225555,268.557861 194.071030,268.601624 
	C208.397964,268.764679 222.730286,268.514252 237.055389,268.743866 
	C241.492630,268.814941 242.762741,267.296661 242.731888,262.975189 
	C242.566589,239.817734 242.663162,216.658432 242.669510,192.999725 
z"/>
</svg>