<svg version="1.1" id="Layer_1" xmlns="http://www.w3.org/2000/svg" xmlns:xlink="http://www.w3.org/1999/xlink" x="0px" y="0px"
	 width="100%" viewBox="0 0 512 512" enable-background="new 0 0 512 512" xml:space="preserve">
<path fill="#000000" opacity="1.000000" stroke="none" 
	d="
M311.884155,370.340637 
	C313.715118,380.550720 315.418671,390.348572 317.146851,400.288025 
	C313.946411,402.094238 310.742584,401.236938 307.699371,401.310059 
	C302.037231,401.446136 296.365448,401.211609 290.705048,401.379578 
	C287.337097,401.479523 286.114685,400.087982 285.614288,396.813263 
	C281.022278,366.764252 276.304108,336.734314 271.561371,306.708527 
	C267.958679,283.900421 264.258087,261.107758 260.616882,238.305725 
	C256.634399,213.366776 252.591553,188.436890 248.778336,163.472015 
	C248.171600,159.499725 246.576141,158.158203 242.627258,158.208649 
	C238.721085,158.258530 236.166458,158.617996 235.424179,163.421234 
	C230.222214,197.083115 224.803009,230.711746 219.367554,264.337128 
	C214.806885,292.550751 210.084213,320.738190 205.522903,348.951691 
	C203.004700,364.527832 200.616928,380.125732 198.293030,395.732117 
	C197.730316,399.511047 196.568680,401.709198 192.053558,401.448944 
	C185.243866,401.056396 178.394745,401.278839 171.563690,401.355927 
	C168.408951,401.391510 167.540222,400.136719 168.093414,397.045715 
	C173.477661,366.960358 178.778687,336.860077 184.075287,306.759064 
	C189.974609,273.232666 195.832291,239.698975 201.733322,206.172897 
	C204.209030,192.107300 206.652969,178.034744 209.321075,164.005249 
	C210.094833,159.936646 209.321793,157.799316 204.777527,158.305496 
	C204.612946,158.323837 204.444504,158.309265 204.277893,158.307648 
	C190.809601,158.177353 190.762177,158.177109 190.822723,144.470078 
	C190.889679,129.310608 189.510925,131.923660 203.648773,131.850327 
	C231.476044,131.705994 259.304535,131.785538 287.132538,131.794525 
	C293.543610,131.796600 293.850342,132.112518 293.916565,138.599243 
	C293.965912,143.431030 293.774536,148.269333 293.959747,153.094376 
	C294.105255,156.885361 292.800568,158.489044 288.791260,158.392181 
	C284.197449,158.281189 279.524902,157.748352 274.360077,158.987946 
	C286.850586,229.442215 299.303650,299.685333 311.884155,370.340637 
z"/>
<path fill="#000000" opacity="1.000000" stroke="none" 
	d="
M344.126770,133.005859 
	C341.197968,138.504807 337.082275,142.622650 332.761353,147.255783 
	C343.380920,151.761810 349.647736,159.628235 353.335907,170.021545 
	C360.474670,190.138565 347.325073,219.371323 322.463013,222.308807 
	C320.980652,222.483948 319.522186,222.853088 318.043030,223.065079 
	C314.394562,223.587967 312.040741,222.577621 311.328094,218.430206 
	C310.400482,213.031754 309.090973,207.686768 307.693665,202.385239 
	C306.685120,198.558823 307.180450,196.899292 311.811035,196.416656 
	C320.805664,195.479126 326.375977,189.450699 327.512909,180.825974 
	C328.369537,174.327545 323.302246,165.607224 316.798309,162.479004 
	C315.760681,161.979950 314.641388,161.603653 313.520813,161.331558 
	C306.094177,159.528214 306.093170,159.542496 306.114899,152.108444 
	C306.121216,149.942856 306.266937,147.763000 306.073334,145.614502 
	C305.648804,140.902786 306.728546,138.069183 312.237579,136.987610 
	C319.660706,135.530258 322.545990,126.499680 322.293549,118.878143 
	C321.972931,109.195198 317.353363,103.231621 306.727600,102.380638 
	C308.501404,94.350746 310.139069,86.772308 311.863556,79.213676 
	C312.532959,76.279480 314.988281,76.693947 317.119659,76.730698 
	C338.253784,77.095024 353.988983,96.540070 349.933167,117.294838 
	C348.874268,122.713615 347.201019,127.926079 344.126770,133.005859 
z"/>
</svg>