<svg version="1.1" id="Layer_1" xmlns="http://www.w3.org/2000/svg" xmlns:xlink="http://www.w3.org/1999/xlink" x="0px" y="0px"
	 width="100%" viewBox="0 0 512 512" enable-background="new 0 0 512 512" xml:space="preserve">
<path fill="#000000" opacity="1.000000" stroke="none" 
	d="
M304.084595,143.910828 
	C291.520447,133.476822 277.229980,125.927269 265.713867,114.654068 
	C258.420258,107.514313 253.147705,99.262146 249.522629,89.793274 
	C248.413193,86.895325 249.128677,85.506462 251.976120,84.595299 
	C259.101654,82.315193 266.210663,79.973869 273.259521,77.469109 
	C275.689117,76.605759 277.043915,77.223793 277.969635,79.473602 
	C281.686707,88.507431 289.152496,94.186470 296.441559,100.004723 
	C306.971405,108.409836 318.431244,115.704247 327.632507,125.697792 
	C341.226807,140.462708 345.252014,157.567612 338.348328,176.451340 
	C334.427795,187.175171 325.251434,193.807953 316.212311,200.164398 
	C306.837830,206.756668 297.001099,212.741150 289.308838,221.473724 
	C284.533356,226.895035 281.309723,232.962585 281.228607,240.314667 
	C280.796753,279.452637 279.843506,318.587311 280.768707,357.733398 
	C281.075653,370.722015 280.847412,383.722626 280.947052,396.717163 
	C280.972595,400.046417 279.750183,401.519745 276.227142,401.402710 
	C270.069458,401.198212 263.882690,401.062042 257.741028,401.436920 
	C252.781769,401.739563 251.578873,399.770447 251.592148,395.102814 
	C251.732513,345.787292 251.679550,296.471222 251.701584,247.155289 
	C251.703278,243.333160 251.821518,239.533401 252.296967,235.704590 
	C254.383148,218.904037 263.587524,206.651428 276.357391,196.355438 
	C285.164673,189.254349 294.964142,183.542877 303.488953,176.029541 
	C314.354645,166.453079 314.906219,154.367508 304.084595,143.910828 
z"/>
<path fill="#000000" opacity="1.000000" stroke="none" 
	d="
M239.622223,136.885483 
	C226.992004,136.907196 214.824722,137.004074 202.660126,136.865891 
	C198.657379,136.820435 197.035233,138.151489 197.113541,142.357635 
	C197.333786,154.186584 197.311081,166.023773 197.139221,177.854172 
	C197.084763,181.603134 198.439499,182.760010 202.094864,182.709213 
	C214.092117,182.542450 226.098877,182.868149 238.090164,182.553833 
	C243.028870,182.424377 244.553619,184.193222 244.246567,188.885681 
	C243.931656,193.698227 243.976822,198.558350 244.238358,203.377350 
	C244.466400,207.579163 242.669449,208.978851 238.674789,208.937302 
	C227.009796,208.815964 215.338364,209.081345 203.678452,208.809692 
	C198.754715,208.694962 196.688873,210.148178 197.079910,215.322601 
	C197.480698,220.625961 196.905075,226.001053 197.266739,231.310013 
	C197.604568,236.269028 195.585770,237.699890 190.901093,237.420502 
	C185.254639,237.083755 179.554626,237.058304 173.911804,237.423569 
	C168.935287,237.745728 167.731308,235.697906 167.745834,231.044281 
	C167.876419,189.212631 167.808563,147.380356 167.801300,105.548271 
	C167.800125,98.715179 167.894302,91.880669 167.778259,85.049637 
	C167.724060,81.858292 168.961472,80.558884 172.192108,80.622093 
	C179.022583,80.755722 185.860641,80.785461 192.689316,80.611359 
	C196.306564,80.519142 197.288956,82.203995 197.230988,85.466454 
	C197.115555,91.964058 197.433472,98.475609 197.137466,104.961548 
	C196.941895,109.247002 198.201218,110.848106 202.723404,110.742729 
	C214.716476,110.463226 226.722641,110.783531 238.718903,110.583618 
	C242.798691,110.515633 244.438934,111.819870 244.238220,115.996498 
	C243.982498,121.317238 244.105453,126.661293 244.212372,131.992340 
	C244.271805,134.956345 243.403671,136.883591 239.622223,136.885483 
z"/>
</svg>