<svg version="1.1" id="Layer_1" xmlns="http://www.w3.org/2000/svg" xmlns:xlink="http://www.w3.org/1999/xlink" x="0px" y="0px"
	 width="100%" viewBox="0 0 512 512" enable-background="new 0 0 512 512" xml:space="preserve">
<path fill="#000000" opacity="1.000000" stroke="none" 
	d="
M177.112274,80.655502 
	C182.764038,80.655083 187.938492,80.843521 193.091843,80.594597 
	C197.088547,80.401550 198.275894,82.052010 198.247223,85.865692 
	C198.119507,102.860420 198.307678,119.857819 198.133179,136.851700 
	C198.087982,141.253937 199.125153,143.157150 204.023041,143.885895 
	C223.165573,146.734085 240.469147,153.467590 252.000732,170.255234 
	C259.656799,181.400925 261.515564,194.059738 261.554077,207.318207 
	C261.655396,242.211548 238.109039,265.470581 203.293320,272.068359 
	C199.203873,272.843323 198.099487,274.406433 198.146194,278.226654 
	C198.333572,293.553986 197.983994,308.894440 198.484650,324.208740 
	C198.754898,332.475006 200.026443,340.714600 202.112549,348.827026 
	C205.952286,363.758972 215.880173,371.309662 230.577774,373.699371 
	C237.352310,374.800873 244.161682,375.039307 250.987320,375.045624 
	C281.146393,375.073669 311.305573,375.038300 341.464691,375.042664 
	C348.327057,375.043640 348.334991,375.074432 348.344666,382.045013 
	C348.351379,386.877106 348.162262,391.716888 348.379730,396.538879 
	C348.548218,400.274506 347.054291,401.432159 343.419891,401.399597 
	C327.758423,401.259155 312.094940,401.346924 296.432190,401.339508 
	C277.770264,401.330688 259.106201,401.473175 240.447144,401.233276 
	C228.937134,401.085327 217.495804,399.800262 206.572464,395.868225 
	C188.259735,389.276215 179.385666,374.811615 174.961533,356.952606 
	C172.195374,345.786316 170.827728,334.401672 170.646576,322.869568 
	C169.432236,245.568390 170.443710,168.262115 170.066681,90.959213 
	C170.060181,89.626236 170.203476,88.275917 170.039749,86.963272 
	C169.402161,81.851662 171.663651,79.869064 177.112274,80.655502 
M230.800522,196.706116 
	C227.544968,181.779083 213.748138,170.227051 198.661087,170.083344 
	C198.661087,195.367203 198.661087,220.646591 198.661087,246.187714 
	C205.042664,245.725784 210.501114,243.987076 215.460541,240.788422 
	C228.478363,232.392456 234.651443,215.092804 230.800522,196.706116 
z"/>
<path fill="#000000" opacity="1.000000" stroke="none" 
	d="
M329.999084,132.656769 
	C335.160919,132.664169 339.824341,132.740509 344.484711,132.653046 
	C347.228271,132.601547 348.390350,133.741852 348.348328,136.500183 
	C348.262146,142.159973 348.111511,147.833313 348.403412,153.479553 
	C348.619781,157.663696 346.991669,159.021469 342.944214,158.991165 
	C326.294495,158.866531 309.643158,158.956161 292.992432,158.958939 
	C287.997314,158.959778 283.001770,158.891312 278.007202,158.936981 
	C274.888885,158.965469 273.520966,157.662659 273.614136,154.422256 
	C273.776825,148.765717 273.828369,143.094131 273.597046,137.442322 
	C273.443298,133.685715 274.934082,132.580460 278.548584,132.608383 
	C295.531311,132.739548 312.515625,132.660721 329.999084,132.656769 
z"/>
<path fill="#000000" opacity="1.000000" stroke="none" 
	d="
M296.000153,192.656342 
	C311.985718,192.656311 327.472717,192.768860 342.956024,192.581360 
	C347.043396,192.531860 348.646881,193.781769 348.403534,197.968002 
	C348.114136,202.946625 348.057434,207.974457 348.412384,212.944382 
	C348.741455,217.552139 347.048065,219.086639 342.493164,219.026825 
	C327.676178,218.832199 312.855011,218.957230 298.035461,218.953598 
	C291.541534,218.951996 285.046173,218.852234 278.554230,218.961288 
	C274.983246,219.021271 273.449615,217.679260 273.598877,213.951035 
	C273.825165,208.298615 273.778564,202.627335 273.619934,196.970474 
	C273.528809,193.719879 274.820404,192.542343 278.017609,192.624832 
	C283.841553,192.775101 289.672272,192.660675 296.000153,192.656342 
z"/>
<path fill="#000000" opacity="1.000000" stroke="none" 
	d="
M295.000183,252.662811 
	C311.315033,252.662689 327.131104,252.771896 342.943848,252.588257 
	C347.021851,252.540909 348.651001,253.782333 348.402344,257.970673 
	C348.116730,262.781464 348.014893,267.649017 348.419403,272.442444 
	C348.845734,277.494385 347.044556,279.129791 341.996460,279.045654 
	C326.352386,278.784943 310.701294,278.948669 295.052948,278.939056 
	C289.393066,278.935577 283.733032,278.876587 278.073364,278.903412 
	C275.026672,278.917847 273.519928,277.751160 273.613800,274.447937 
	C273.783966,268.459747 273.734375,262.462494 273.644867,256.470978 
	C273.603333,253.689972 274.789001,252.615723 277.520660,252.658096 
	C283.179169,252.745865 288.840179,252.671051 295.000183,252.662811 
z"/>
</svg>