<svg version="1.1" id="Layer_1" xmlns="http://www.w3.org/2000/svg" xmlns:xlink="http://www.w3.org/1999/xlink" x="0px" y="0px"
	 width="100%" viewBox="0 0 512 512" enable-background="new 0 0 512 512" xml:space="preserve">
<path fill="#000000" opacity="1.000000" stroke="none" 
	d="
M281.198456,202.785278 
	C301.831238,199.805573 322.168976,200.903442 342.462921,200.577606 
	C346.798737,200.507965 348.496429,201.842957 348.246185,206.261200 
	C347.954529,211.410477 348.032532,216.594177 348.224274,221.752762 
	C348.361816,225.453766 346.679047,226.853821 343.203735,226.891342 
	C326.213715,227.074768 309.229950,226.970825 292.276428,225.708496 
	C285.839417,225.229218 279.417816,224.543350 273.050598,223.957306 
	C271.650787,226.166626 272.202393,228.388397 272.201416,230.493347 
	C272.175903,284.983704 272.189240,339.474060 272.195618,393.964417 
	C272.196503,401.339081 272.195892,401.343964 264.808105,401.349640 
	C259.309082,401.353851 253.801773,401.157135 248.313736,401.400940 
	C244.263779,401.580872 242.618591,400.217133 242.751358,396.004822 
	C242.997971,388.180511 242.834122,380.343109 242.833878,372.511169 
	C242.832336,324.686340 242.788925,276.861389 242.894531,229.036804 
	C242.903915,224.783966 242.248184,223.181900 237.330414,223.964600 
	C215.377533,227.458588 193.203629,226.969391 171.064392,226.974823 
	C167.294403,226.975739 165.598618,225.676056 165.769943,221.706284 
	C165.999664,216.384003 165.947510,211.039764 165.770157,205.713150 
	C165.653732,202.216446 166.680115,200.555130 170.538483,200.608475 
	C192.992279,200.918900 215.511337,199.521881 237.814774,203.468262 
	C239.211609,203.715408 240.690216,203.500381 243.361374,203.500381 
	C235.848083,198.929413 230.065933,194.049606 225.644562,187.755066 
	C214.693802,172.164825 212.439285,154.379456 212.509018,135.962357 
	C212.541916,127.273087 213.206039,118.639656 215.092865,110.197502 
	C220.761963,84.832481 237.952759,75.798035 263.027679,78.098404 
	C280.646210,79.714722 292.199585,90.325577 297.993042,106.238022 
	C307.219666,131.580078 305.574585,156.920059 294.318115,181.427765 
	C289.524261,191.864960 283.352234,197.785370 272.840424,203.622345 
	C275.862610,204.073746 278.296600,203.195908 281.198456,202.785278 
M240.355530,167.205978 
	C241.908157,175.112045 244.625473,182.554993 249.322296,189.164078 
	C253.855362,195.542755 259.990021,195.875626 265.151367,190.032684 
	C267.706268,187.140366 269.529633,183.778152 271.038208,180.230286 
	C274.199066,172.796494 275.604462,164.942169 276.208344,156.981323 
	C277.253967,143.196609 277.916229,129.361649 273.697113,115.915771 
	C271.832581,109.973633 269.309204,104.271523 262.399719,102.419533 
	C252.391571,99.736977 245.078613,103.925331 241.691269,115.018921 
	C236.522980,131.945084 237.643875,149.155670 240.355530,167.205978 
z"/>
</svg>