<svg version="1.1" id="Layer_1" xmlns="http://www.w3.org/2000/svg" xmlns:xlink="http://www.w3.org/1999/xlink" x="0px" y="0px"
	 width="100%" viewBox="0 0 512 512" enable-background="new 0 0 512 512" xml:space="preserve">
<path fill="#000000" opacity="1.000000" stroke="none" 
	d="
M331.250153,380.961578 
	C332.512146,386.372131 333.737183,391.375305 334.864288,396.400421 
	C335.620148,399.770111 334.308746,401.424988 330.717224,401.381897 
	C323.051880,401.289856 315.384094,401.280182 307.718781,401.365875 
	C304.606781,401.400696 303.142670,399.978210 302.815063,396.993134 
	C300.831848,378.920654 294.020538,362.230347 287.508698,345.541199 
	C278.739410,323.066559 269.233398,300.879791 260.102539,278.545349 
	C258.861450,275.509674 257.961365,272.334595 256.822693,268.986786 
	C253.815323,270.888672 254.346512,273.926697 253.374039,276.235931 
	C245.235413,295.561768 237.037659,314.866180 229.217178,334.321533 
	C221.532532,353.438965 213.691345,372.533691 209.706619,392.896545 
	C208.049271,401.365997 208.046860,401.367798 199.096985,401.368561 
	C193.930496,401.368988 188.763382,401.310822 183.597717,401.374146 
	C180.321045,401.414307 178.820770,400.580658 179.325180,396.686584 
	C181.466919,380.152161 187.653763,364.871399 193.744415,349.605927 
	C206.389740,317.912079 219.817352,286.546967 235.392395,256.155548 
	C237.585022,251.877075 240.420013,247.922897 243.033371,243.867386 
	C244.069672,242.259262 244.994080,240.828552 243.612610,238.900101 
	C230.051605,219.969452 221.490799,198.288422 210.272049,178.066284 
	C204.205307,167.130768 195.193649,163.232361 183.014832,163.650406 
	C166.534592,164.216110 150.021698,163.797821 133.523331,163.890976 
	C129.181656,163.915497 127.101776,162.125168 127.109711,157.650848 
	C127.151711,133.985229 127.127075,110.319374 127.054100,86.653816 
	C127.040703,82.307648 128.616791,80.266090 133.302185,80.582695 
	C138.445374,80.930244 143.631973,80.756775 148.795532,80.635223 
	C151.857956,80.563141 153.361725,81.503235 153.345337,84.884811 
	C153.275116,99.365166 152.943893,113.828308 151.526016,128.249496 
	C151.493439,128.580917 151.462067,128.912521 151.433960,129.244370 
	C150.509018,140.164276 153.706558,142.904373 164.535828,140.658798 
	C167.064224,140.134491 167.745102,138.621414 167.660614,136.371307 
	C167.192551,123.904739 166.717880,111.438408 166.261597,98.971397 
	C166.079025,93.982994 165.931885,88.993256 165.780228,84.003769 
	C165.720428,82.036797 166.548721,80.757545 168.648270,80.745232 
	C175.147003,80.707108 181.646530,80.671837 188.144775,80.735687 
	C191.722015,80.770844 191.304871,83.535187 191.252243,85.814491 
	C190.941040,99.293037 190.568573,112.770157 190.212463,126.247650 
	C190.181671,127.413223 190.093048,128.577606 190.076920,129.743164 
	C189.919174,141.157333 191.924271,142.750214 203.408005,140.691238 
	C206.346863,140.164352 206.587830,138.358063 206.483063,135.969543 
	C205.761337,119.516518 205.107315,103.060539 204.390472,86.607292 
	C204.215591,82.593407 205.427917,80.306534 210.048233,80.594421 
	C214.862595,80.894402 219.730484,80.931305 224.537933,80.578537 
	C229.349411,80.225464 230.418030,82.326309 230.383820,86.717155 
	C230.217545,108.048477 230.399673,129.382446 230.249863,150.714020 
	C230.220612,154.881943 231.410156,158.448013 233.102875,162.134262 
	C239.978287,177.106903 248.046494,191.523605 253.926208,206.964554 
	C255.028564,209.859528 255.129425,213.144028 257.664154,216.529037 
	C259.847015,210.245667 261.745056,204.554901 263.797455,198.920380 
	C268.424896,186.216507 274.338257,174.077713 280.758484,162.219040 
	C283.386658,157.364532 283.761627,152.494431 283.525574,147.297028 
	C282.587463,126.641090 284.149139,105.986160 283.573547,85.331009 
	C283.477600,81.887283 284.985321,80.555443 288.368927,80.637375 
	C293.865417,80.770485 299.371826,80.797287 304.865845,80.617966 
	C308.432983,80.501549 309.368469,82.089180 309.405609,85.417114 
	C309.591583,102.079262 309.028442,118.723541 308.098907,135.346619 
	C307.875183,139.348160 308.752625,140.716614 312.767334,140.796021 
	C323.960144,141.017395 324.057220,141.137894 323.826477,130.295471 
	C323.518372,115.817245 323.156372,101.337791 322.562042,86.869362 
	C322.365234,82.078583 324.029327,80.260262 328.854309,80.582657 
	C333.831940,80.915237 338.854584,80.799568 343.846985,80.606560 
	C347.231995,80.475685 348.536011,81.635513 348.626617,85.150681 
	C348.897217,95.647568 348.980011,106.129303 348.585510,116.628494 
	C348.323273,123.608177 348.652069,130.608917 348.650452,137.600235 
	C348.649963,139.722916 349.688690,140.630310 351.677856,140.709122 
	C352.343750,140.735504 353.010315,140.746628 353.676605,140.761475 
	C362.065613,140.948349 361.848236,140.948593 361.832886,132.725647 
	C361.804596,117.563713 361.166229,102.425133 360.640839,87.279129 
	C360.424591,81.044777 360.921875,80.696526 366.988068,80.666016 
	C371.987732,80.640877 376.988586,80.725075 381.987122,80.646469 
	C384.790497,80.602379 386.333984,81.483742 386.327820,84.620499 
	C386.278931,109.452881 386.282104,134.285477 386.342499,159.117844 
	C386.353149,163.506271 383.421661,163.832855 380.279175,163.847748 
	C368.446533,163.903839 356.613434,163.855591 344.780670,163.895493 
	C338.116486,163.917969 331.450378,164.181168 324.789154,164.077698 
	C314.812103,163.922699 308.188660,169.236343 303.266296,177.142426 
	C295.859589,189.038757 290.844025,202.172821 284.278168,214.512024 
	C280.130524,222.306686 275.993408,230.099503 271.111084,237.471497 
	C270.010315,239.133606 268.837982,240.748627 270.398743,242.906357 
	C280.837219,257.337524 287.061768,273.942810 294.371796,289.963440 
	C307.912323,319.638977 321.036163,349.498383 331.250153,380.961578 
z"/>
</svg>