<svg version="1.1" id="Layer_1" xmlns="http://www.w3.org/2000/svg" xmlns:xlink="http://www.w3.org/1999/xlink" x="0px" y="0px"
	 width="100%" viewBox="0 0 512 512" enable-background="new 0 0 512 512" xml:space="preserve">
<path fill="#000000" opacity="1.000000" stroke="none" 
	d="
M184.891266,341.000000 
	C184.889847,286.001648 184.826874,231.503082 184.990219,177.005203 
	C185.005142,172.024612 183.797028,169.438293 178.612793,168.349197 
	C168.575729,166.240616 159.231537,162.110504 151.040253,155.919876 
	C138.564255,146.491058 132.028351,133.497849 129.732178,118.224663 
	C128.440506,109.633003 127.719978,101.012230 129.703796,92.428497 
	C131.733566,83.645935 137.680527,77.819702 146.529327,76.953499 
	C159.593430,75.674667 172.516327,76.908295 184.795731,81.845535 
	C200.874313,88.310356 207.588440,101.947090 211.184402,117.662399 
	C212.970535,125.468269 213.967194,133.434586 213.281677,141.455856 
	C212.871552,146.255081 215.100449,148.330734 219.476288,148.416275 
	C226.994232,148.563293 234.371231,150.012085 241.831436,150.590469 
	C255.599487,151.657944 269.404663,152.592606 282.999084,154.941467 
	C292.385651,156.563309 300.786804,161.380417 309.303284,165.559082 
	C318.411346,170.028015 327.454346,174.614014 336.788025,178.629745 
	C350.279785,184.434433 364.276733,182.267914 378.192169,181.846237 
	C381.855469,181.735229 385.524933,181.816895 389.187164,181.685974 
	C392.548431,181.565781 393.909088,183.291763 393.208496,186.327698 
	C389.581696,202.044067 386.292511,217.885605 379.190826,232.534286 
	C376.327606,238.440277 371.394501,242.008041 364.962250,243.251999 
	C362.417358,243.744171 360.539856,244.913239 359.622284,247.227203 
	C351.825439,266.889893 333.794373,269.956482 316.150757,268.643616 
	C293.917389,266.989227 271.699493,265.122681 249.481827,263.264771 
	C240.036362,262.474915 230.595490,261.590271 221.177185,260.529694 
	C214.838135,259.815857 214.262985,260.133087 214.262573,266.524261 
	C214.259872,309.022980 214.270813,351.521698 214.273849,394.020416 
	C214.274368,401.304810 214.238113,401.343781 207.117599,401.361084 
	C201.617813,401.374451 196.108566,401.160736 190.621063,401.419708 
	C186.171341,401.629700 184.792694,399.680084 184.820679,395.496643 
	C184.941010,377.498413 184.883789,359.498993 184.891266,341.000000 
M324.545685,241.255951 
	C327.328522,240.390671 330.046021,239.123505 331.220642,236.394775 
	C332.820496,232.678131 335.509735,231.880463 339.185516,231.866394 
	C351.498871,231.819321 351.511658,231.737610 356.042480,220.386429 
	C356.781738,218.534286 357.275269,216.584366 358.007843,214.729172 
	C359.487305,210.982468 358.392242,209.245911 354.251740,208.901550 
	C338.143738,207.561813 323.714966,201.428345 309.989288,193.227051 
	C302.116821,188.523163 293.906586,184.311600 284.944000,182.201233 
	C279.520935,180.924316 273.997162,179.069992 267.698395,179.623993 
	C271.004120,186.659302 277.522278,188.399124 283.288574,191.991486 
	C275.806732,199.313293 268.649933,205.488052 259.083649,208.384140 
	C253.397812,210.105484 248.941071,208.416107 245.111237,204.377075 
	C240.926636,199.963867 239.615112,194.245789 238.139435,188.582840 
	C237.152832,184.796707 238.088333,182.606705 242.115387,181.658569 
	C245.981018,180.748444 249.966278,180.003311 254.293808,177.566223 
	C241.794449,176.325439 230.211029,175.260147 218.652023,173.975250 
	C215.301163,173.602783 214.193954,174.717255 214.212296,178.008224 
	C214.307053,195.003494 214.296158,211.999710 214.231323,228.995239 
	C214.219513,232.090607 215.437561,233.531921 218.556274,233.807892 
	C228.326691,234.672501 238.077621,235.756653 247.847305,236.630386 
	C268.715027,238.496613 289.599091,240.186600 310.454346,242.180283 
	C315.000153,242.614868 319.399506,242.791855 324.545685,241.255951 
M176.728027,139.683456 
	C179.001114,140.523010 180.968033,142.291290 183.387314,142.110168 
	C184.415070,141.441437 184.601639,140.627594 184.596756,139.785187 
	C184.547379,131.257996 183.601273,122.837662 180.620041,114.811676 
	C178.324570,108.631874 173.739670,104.642479 167.282883,103.201302 
	C158.301056,101.196541 154.031967,105.724655 155.650696,114.741196 
	C157.833466,126.899612 165.317062,134.424576 176.728027,139.683456 
z"/>
</svg>