<svg version="1.1" id="Layer_1" xmlns="http://www.w3.org/2000/svg" xmlns:xlink="http://www.w3.org/1999/xlink" x="0px" y="0px"
	 width="100%" viewBox="0 0 512 512" enable-background="new 0 0 512 512" xml:space="preserve">
<path fill="#000000" opacity="1.000000" stroke="none" 
	d="
M287.346619,391.631165 
	C277.932068,380.172729 267.832275,369.676636 261.073608,356.665985 
	C258.267822,351.264771 256.325958,345.485229 254.054962,339.199951 
	C251.218918,342.444183 251.011459,345.904663 249.849167,348.900238 
	C244.796982,361.920776 235.611816,372.101257 227.043472,382.713440 
	C223.068634,387.636414 218.821823,392.349640 215.029465,397.406311 
	C212.782761,400.402100 210.231247,401.578491 206.541290,401.408722 
	C201.053452,401.156158 195.544662,401.257050 190.047379,401.354034 
	C187.317856,401.402191 186.216278,400.160858 185.877258,397.563354 
	C179.895050,351.728516 167.923309,307.286835 154.480103,263.194489 
	C153.970978,261.524597 154.027557,259.510742 151.906662,257.936401 
	C146.932663,264.961395 141.981812,271.953705 136.542084,279.636444 
	C129.039062,274.279938 121.815300,269.122803 114.060669,263.586670 
	C119.710388,255.531052 125.093094,247.785126 130.547729,240.090195 
	C167.445251,188.038300 204.358002,135.997223 241.264572,83.951752 
	C241.553665,83.544067 241.817566,83.118530 242.106094,82.710434 
	C247.664886,74.847832 252.914764,72.877762 262.474670,74.904518 
	C264.696869,75.375633 265.801849,76.989532 266.958771,78.597435 
	C301.305420,126.332710 335.641724,174.075439 369.975555,221.819931 
	C378.923676,234.263092 387.861938,246.713348 396.793396,259.168427 
	C397.749969,260.502380 398.630768,261.890656 399.816254,263.654877 
	C392.431671,268.936188 385.295532,274.039795 377.477295,279.631195 
	C371.825989,271.781433 366.382416,264.220215 360.290100,255.757904 
	C358.692871,259.992859 357.428711,263.018097 356.400146,266.121399 
	C343.206329,305.929047 330.501495,345.878571 321.945251,387.006805 
	C321.236053,390.415741 320.612213,393.872528 320.358521,397.337067 
	C320.141235,400.304749 318.916748,401.503082 315.990723,401.363098 
	C313.330780,401.235901 310.600525,400.986938 308.003998,401.414917 
	C298.946075,402.907959 292.206451,399.753296 287.346619,391.631165 
M285.659088,152.798996 
	C275.448395,138.694733 265.158600,124.645569 255.937622,108.769119 
	C252.013977,114.966194 248.783813,120.356812 245.276474,125.560623 
	C222.745956,158.988815 198.933258,191.518585 175.782898,224.512802 
	C174.036118,227.002365 173.299927,229.084534 174.403198,232.236557 
	C187.054718,268.381470 197.130188,305.259796 205.280380,342.666321 
	C206.880341,350.009583 208.122421,357.430786 209.739334,365.916992 
	C220.199966,352.024750 230.357788,339.444183 239.429977,326.124207 
	C244.383820,318.850861 249.813568,315.543549 258.667725,316.429230 
	C262.969238,316.859528 265.640900,318.117188 268.022461,321.536072 
	C276.971893,334.383759 286.111359,347.099274 295.206726,359.844971 
	C297.051971,362.430817 299.015137,364.932495 301.331299,368.015167 
	C302.468506,361.973145 303.246338,356.879059 304.398560,351.871124 
	C313.583160,311.952240 325.464600,272.803925 338.431671,233.978302 
	C339.731171,230.087311 339.365662,227.266235 336.926056,223.918182 
	C319.856476,200.492905 302.995422,176.915680 285.659088,152.798996 
z"/>
<path fill="#000000" opacity="1.000000" stroke="none" 
	d="
M303.219666,241.853256 
	C303.682465,246.318497 301.778015,247.442902 297.976410,247.426163 
	C271.030731,247.307404 244.083893,247.289368 217.138412,247.428940 
	C212.884064,247.450989 211.595688,245.790894 211.773514,241.820786 
	C211.989120,237.006851 212.158997,232.145172 211.727585,227.360153 
	C211.248611,222.047424 213.599258,220.905807 218.366898,220.971191 
	C233.500320,221.178711 248.638596,221.031647 263.774994,221.024292 
	C275.085754,221.018814 286.398041,221.122986 297.706421,220.957382 
	C301.706299,220.898804 303.513153,222.178253 303.292877,226.402557 
	C303.033386,231.379257 303.225281,236.379501 303.219666,241.853256 
z"/>
<path fill="#000000" opacity="1.000000" stroke="none" 
	d="
M281.999756,269.010193 
	C287.998962,269.016907 293.498444,269.057922 298.997345,269.017059 
	C301.887756,268.995605 303.274017,270.235413 303.234924,273.216949 
	C303.156250,279.215088 303.149658,285.215668 303.227722,291.213776 
	C303.265869,294.147430 302.081818,295.394592 299.072601,295.388062 
	C271.409576,295.328400 243.746323,295.327057 216.083237,295.370422 
	C213.142242,295.375031 211.795395,294.198608 211.820129,291.246094 
	C211.869003,285.413940 211.989563,279.574921 211.767456,273.750641 
	C211.615860,269.775208 213.673447,269.002136 217.008087,269.023010 
	C227.506241,269.088776 238.005203,269.020874 248.503845,269.014221 
	C259.502502,269.007263 270.501160,269.011261 281.999756,269.010193 
z"/>
<path fill="#000000" opacity="1.000000" stroke="none" 
	d="
M230.187073,198.954285 
	C225.212921,199.424789 223.434631,197.540054 223.742569,192.921890 
	C224.084595,187.792252 223.924606,182.619461 223.784607,177.470871 
	C223.696365,174.225510 224.639893,172.598846 228.267532,172.619568 
	C247.713150,172.730652 267.160004,172.723267 286.605774,172.624786 
	C290.055878,172.607330 291.378021,173.898911 291.273315,177.315475 
	C291.110474,182.629272 291.000031,187.963409 291.285675,193.266388 
	C291.522522,197.664291 289.795288,199.067581 285.508362,199.030212 
	C267.226898,198.870834 248.943253,198.958557 230.187073,198.954285 
z"/>
</svg>