<svg version="1.1" id="Layer_1" xmlns="http://www.w3.org/2000/svg" xmlns:xlink="http://www.w3.org/1999/xlink" x="0px" y="0px"
	 width="100%" viewBox="0 0 512 512" enable-background="new 0 0 512 512" xml:space="preserve">
<path fill="#000000" opacity="1.000000" stroke="none" 
	d="
M335.493958,336.398132 
	C334.415558,357.106812 333.354218,377.360291 332.456177,397.621002 
	C332.328613,400.499451 331.197083,401.395020 328.521912,401.359436 
	C322.190643,401.275208 315.853638,401.208160 309.526581,401.394073 
	C306.259064,401.490143 304.272827,400.165009 302.717133,397.409668 
	C290.862701,376.414642 275.910797,357.686371 260.138641,339.571960 
	C255.157059,333.850555 254.550613,333.895416 249.676544,339.908203 
	C235.280319,357.667755 221.995102,376.183716 211.585663,396.613312 
	C209.895615,399.930206 207.814407,401.650452 203.844757,401.439514 
	C197.862289,401.121674 191.847214,401.224091 185.853012,401.394653 
	C182.381927,401.493439 181.027267,399.973969 181.012085,396.682831 
	C180.991333,392.184875 180.834930,387.687744 180.763489,383.189850 
	C180.345703,356.883606 178.301468,330.690125 175.973068,304.489136 
	C173.660446,278.465759 170.329285,252.577774 166.645966,226.743118 
	C162.940216,200.751129 158.673569,174.835602 153.990402,148.986984 
	C150.201233,128.072830 146.691010,107.109764 142.137527,86.344406 
	C141.235718,82.231857 142.197128,80.597328 146.673050,80.602272 
	C220.162827,80.683403 293.652740,80.675728 367.142517,80.601738 
	C371.529327,80.597321 372.472229,82.068771 371.684143,86.333755 
	C366.548584,114.125488 361.483643,141.932770 356.737213,169.793182 
	C352.438019,195.028412 348.566132,220.334579 345.313660,245.733810 
	C342.294373,269.312103 339.409058,292.902069 337.316559,316.583527 
	C336.746155,323.038666 336.148376,329.491394 335.493958,336.398132 
M180.328918,135.340454 
	C181.071655,140.435791 181.688446,145.553238 182.578491,150.622711 
	C186.890457,175.182419 189.955429,199.923996 193.242355,224.627518 
	C196.465042,248.848236 199.376892,273.116364 201.987152,297.410736 
	C204.366928,319.560150 205.883698,341.776031 203.406815,364.056641 
	C203.241470,365.543945 202.776047,367.226410 204.058090,368.948608 
	C208.272949,361.499420 212.121735,354.325043 216.317154,347.359497 
	C225.171127,332.659393 234.662430,318.384064 245.848511,305.319916 
	C251.423172,298.809296 262.771362,298.503113 268.235138,304.828857 
	C279.378845,317.730621 288.376984,332.144836 297.121948,346.708588 
	C301.245178,353.575470 305.068359,360.622559 309.543152,368.495178 
	C310.206726,360.439056 308.635712,353.702698 308.605164,346.884308 
	C308.442078,310.503174 313.580139,274.602966 318.432373,238.687042 
	C321.679596,214.651581 325.224609,190.654541 328.847961,166.672272 
	C331.527832,148.934494 334.003174,131.161011 337.462982,113.545258 
	C338.564240,107.938194 337.693176,107.040855 332.044342,107.040649 
	C281.895111,107.038864 231.745773,107.104897 181.596863,106.983932 
	C176.983963,106.972809 175.587387,108.660545 176.366058,112.893578 
	C177.688431,120.082214 178.978668,127.276779 180.328918,135.340454 
z"/>
<path fill="#000000" opacity="1.000000" stroke="none" 
	d="
M228.201859,277.207703 
	C223.238068,277.647461 221.523254,275.687866 221.573273,271.135132 
	C221.746689,255.348648 221.747620,239.557800 221.565674,223.771454 
	C221.513214,219.218552 223.168274,217.454590 227.696716,217.694427 
	C232.502945,217.948975 237.334488,217.830185 242.152023,217.731201 
	C245.623657,217.659882 247.369766,218.952759 247.352951,222.666779 
	C247.277710,239.285767 247.276840,255.905563 247.371063,272.524384 
	C247.390503,275.953949 246.028519,277.340820 242.638290,277.245422 
	C237.988510,277.114624 233.332382,277.209198 228.201859,277.207703 
z"/>
<path fill="#000000" opacity="1.000000" stroke="none" 
	d="
M291.276245,235.003983 
	C291.275452,247.492447 291.136383,259.484344 291.345276,271.470154 
	C291.422272,275.888489 289.683472,277.422516 285.452423,277.254791 
	C280.298309,277.050507 275.129944,277.175964 269.968079,277.211121 
	C267.068878,277.230865 265.718719,275.903137 265.723175,272.969116 
	C265.748901,255.984146 265.744537,238.999039 265.703064,222.014099 
	C265.695892,219.088516 266.982788,217.745728 269.915741,217.769547 
	C275.410400,217.814163 280.906525,217.817108 286.400574,217.736694 
	C289.725739,217.688034 291.332520,219.130310 291.274445,222.515945 
	C291.205933,226.511124 291.269592,230.508545 291.276245,235.003983 
z"/>
<path fill="#000000" opacity="1.000000" stroke="none" 
	d="
M287.720276,177.980652 
	C287.720123,164.012726 287.831268,150.539291 287.653229,137.069672 
	C287.598572,132.934509 289.078033,131.411057 293.183441,131.603729 
	C298.494110,131.852997 303.825500,131.715424 309.147003,131.657288 
	C312.068146,131.625381 313.395966,132.938263 313.394257,135.861572 
	C313.384247,152.821991 313.411133,169.782471 313.442261,186.742889 
	C313.446899,189.268555 312.148163,190.351562 309.729095,190.348495 
	C303.741760,190.340927 297.754150,190.311340 291.767151,190.357361 
	C288.723389,190.380753 287.666656,188.757523 287.723083,185.960693 
	C287.773376,183.467010 287.725067,180.971375 287.720276,177.980652 
z"/>
<path fill="#000000" opacity="1.000000" stroke="none" 
	d="
M223.713348,190.033691 
	C216.947754,190.253693 210.634079,190.250961 204.323257,190.383194 
	C201.130936,190.450073 199.791229,188.945663 199.793228,185.874100 
	C199.804031,169.253784 199.815033,152.633408 199.762222,136.013245 
	C199.752029,132.806473 201.212341,131.567947 204.334503,131.627563 
	C209.983429,131.735458 215.636154,131.710846 221.286392,131.653931 
	C223.883972,131.627747 225.343826,132.493484 225.335052,135.362183 
	C225.282181,152.646881 225.296967,169.931747 225.272766,187.216553 
	C225.271362,188.224030 225.073441,189.208633 223.713348,190.033691 
z"/>
<path fill="#000000" opacity="1.000000" stroke="none" 
	d="
M269.315613,169.999817 
	C269.306488,175.661880 269.191711,180.826797 269.326263,185.985229 
	C269.410522,189.215454 268.074371,190.472794 264.888428,190.399155 
	C259.396088,190.272247 253.896347,190.260040 248.404465,190.394257 
	C244.841904,190.481323 243.814194,188.748657 243.829361,185.481277 
	C243.905167,169.162460 243.944458,152.842484 243.811325,136.524429 
	C243.780640,132.764282 245.269348,131.505585 248.852005,131.626953 
	C253.841751,131.795975 258.851074,131.844269 263.834656,131.595932 
	C267.910187,131.392853 269.463409,132.848053 269.382599,137.029327 
	C269.173401,147.849258 269.314270,158.675949 269.315613,169.999817 
z"/>
</svg>