<svg version="1.1" id="Layer_1" xmlns="http://www.w3.org/2000/svg" xmlns:xlink="http://www.w3.org/1999/xlink" x="0px" y="0px"
	 width="100%" viewBox="0 0 512 512" enable-background="new 0 0 512 512" xml:space="preserve">
<path fill="#000000" opacity="1.000000" stroke="none" 
	d="
M190.960419,381.159729 
	C201.089050,341.640320 211.160492,302.531219 221.039398,263.373566 
	C223.111694,255.159409 224.648712,246.793030 223.137283,238.208237 
	C221.877243,231.051208 217.983429,225.550842 212.200912,221.513885 
	C205.925186,217.132599 199.321259,213.223038 192.885269,209.069351 
	C184.542953,203.685333 177.855377,196.912689 175.090912,187.050766 
	C174.249771,184.050003 172.398651,183.290649 169.532562,183.334656 
	C161.702164,183.454895 153.865524,183.243271 146.037811,183.431519 
	C142.366196,183.519821 140.908157,182.137970 140.999466,178.501846 
	C141.137466,173.006287 141.129440,167.501648 140.982620,162.006241 
	C140.886551,158.409805 142.269608,156.926331 145.969513,157.001419 
	C153.964813,157.163635 161.966217,157.006027 169.965027,157.025726 
	C172.239578,157.031326 174.258148,156.894135 175.124374,154.212799 
	C179.366394,141.082092 189.281509,132.270370 198.947357,123.335915 
	C208.725449,114.297691 219.155655,105.965889 227.623367,95.547935 
	C232.180817,89.940872 235.025269,83.406929 238.489609,76.409126 
	C246.061691,80.707222 253.284790,84.755203 260.449005,88.904823 
	C262.663940,90.187729 261.577148,92.070969 260.943970,93.764847 
	C256.501556,105.648590 248.802063,115.182220 239.057678,123.021263 
	C229.587753,130.639526 219.722076,137.763840 210.128571,145.231445 
	C206.380661,148.148834 202.712891,151.254471 200.757187,155.695328 
	C202.271942,157.351303 203.861801,156.963013 205.292984,156.966431 
	C220.290863,157.002258 235.289398,156.922821 250.286377,157.044769 
	C253.552368,157.071335 255.466354,156.196793 256.507721,152.831497 
	C258.822784,145.350067 263.363281,139.093140 268.915710,133.750137 
	C278.636353,124.396141 288.689636,115.388252 298.578705,106.208611 
	C306.726013,98.645760 313.457733,90.056976 317.681641,79.658829 
	C318.044586,78.765358 318.704010,77.992325 319.676910,76.446457 
	C327.093018,80.778351 334.402405,84.954933 341.601105,89.314255 
	C343.546906,90.492569 342.263458,92.256721 341.699768,93.781273 
	C336.140564,108.815826 324.864532,119.121910 312.722198,128.666397 
	C305.391418,134.428772 297.865387,139.942322 290.506073,145.669144 
	C286.844574,148.518417 283.353546,151.589813 281.195435,156.228912 
	C283.194550,157.398560 285.208466,156.972580 287.104370,156.976334 
	C309.101288,157.019958 331.099091,157.124527 353.094635,156.954987 
	C357.748260,156.919113 359.819672,158.166779 359.429443,163.140930 
	C359.052643,167.944077 359.055908,172.822495 359.428680,177.626190 
	C359.799042,182.398987 357.819794,183.481354 353.396118,183.445068 
	C331.067352,183.261917 308.736237,183.361053 286.405945,183.361145 
	C284.629150,183.361160 282.852386,183.361145 280.542908,183.361145 
	C281.922150,187.945862 285.145905,189.782639 288.093384,191.662415 
	C296.657135,197.123962 305.518158,202.133392 313.939362,207.800507 
	C322.521362,213.575836 329.816620,220.772583 332.006683,231.392319 
	C334.443054,243.206284 332.509247,254.981384 329.736694,266.451965 
	C318.841522,311.527161 306.347076,356.188934 294.548645,401.031097 
	C293.621887,404.553375 292.125977,405.678619 288.593903,404.981903 
	C283.219147,403.921692 277.801239,402.931458 272.353943,402.435272 
	C268.043884,402.042694 267.021912,400.428833 268.097504,396.300140 
	C274.841034,370.414276 281.508911,344.507782 288.017059,318.561768 
	C293.111389,298.252258 299.266266,278.196289 303.109955,257.591919 
	C304.102661,252.270462 304.722412,246.829254 304.363373,241.248810 
	C303.667053,230.426834 296.986176,224.199738 288.657867,219.004364 
	C281.460327,214.514374 273.782135,210.750732 267.512146,204.876816 
	C262.317108,200.009949 258.314117,194.357407 256.213867,187.485321 
	C255.482208,185.091324 254.500076,183.332870 251.472061,183.350327 
	C235.142212,183.444534 218.811584,183.400803 202.481277,183.431534 
	C202.027542,183.432404 201.574356,183.735947 200.826553,184.003799 
	C201.065262,186.957184 203.491394,188.151978 205.409897,189.410889 
	C213.761810,194.891342 222.156631,200.316284 230.689087,205.509659 
	C250.414200,217.515564 255.299774,235.123764 250.870026,256.730042 
	C244.620377,287.212921 235.590485,316.978363 227.999924,347.113770 
	C223.536072,364.835724 218.676254,382.457794 214.183243,400.172668 
	C213.121674,404.358124 211.452255,405.965729 206.883179,404.836945 
	C201.583145,403.527618 196.085526,402.925995 190.639267,402.333191 
	C187.063858,401.944031 186.043549,400.321716 186.915039,397.008606 
	C188.267090,391.868622 189.532562,386.705902 190.960419,381.159729 
z"/>
</svg>