<svg version="1.1" id="Layer_1" xmlns="http://www.w3.org/2000/svg" xmlns:xlink="http://www.w3.org/1999/xlink" x="0px" y="0px"
	 width="100%" viewBox="0 0 512 512" enable-background="new 0 0 512 512" xml:space="preserve">
<path fill="#000000" opacity="1.000000" stroke="none" 
	d="
M212.586487,383.979797 
	C212.585663,374.984894 212.633865,366.485901 212.564011,357.987823 
	C212.524170,353.141754 211.630249,352.562866 207.302185,354.486176 
	C201.661163,356.992920 195.897339,359.095856 189.827026,360.293274 
	C176.756607,362.871552 164.993698,359.842773 154.748749,351.512421 
	C149.136429,346.948975 146.997192,340.468811 146.626602,333.362213 
	C146.016525,321.662903 148.151672,310.516571 153.184158,299.918274 
	C154.539154,297.064667 155.614868,294.113983 156.245483,290.972534 
	C158.091171,281.778046 153.878235,276.209991 144.425461,275.327576 
	C140.688583,274.978760 136.234909,276.770294 133.374161,273.759644 
	C130.298828,270.523193 133.464935,266.485962 133.692856,262.808929 
	C134.515335,249.541443 134.679886,249.626266 147.488876,252.153427 
	C153.911163,253.420517 160.007538,255.329468 165.873016,258.245850 
	C179.578201,265.060181 182.846802,275.347076 182.682678,288.404785 
	C182.546844,299.212189 178.626343,308.853729 173.657516,318.172485 
	C171.845795,321.570312 170.258133,325.045135 169.482376,328.818878 
	C168.479065,333.699585 170.784210,337.610352 175.636581,338.575836 
	C188.242447,341.084198 199.617218,337.364624 210.401474,331.148376 
	C212.409714,329.990784 212.581070,327.966461 212.580383,325.897797 
	C212.570816,297.069122 212.488373,268.239990 212.644608,239.412186 
	C212.673706,234.045532 210.270020,231.415237 205.548035,229.467026 
	C187.610077,222.066116 174.268890,209.394135 165.455826,192.252151 
	C152.399780,166.857315 157.898819,133.203827 177.633484,112.430328 
	C197.204666,91.828957 221.316711,80.819221 249.238647,77.648071 
	C283.314758,73.777969 313.321655,83.809937 338.578156,106.411659 
	C363.210083,128.454453 370.488647,163.157700 356.277344,191.574478 
	C347.170929,209.783569 332.691315,222.864655 313.976044,230.854767 
	C309.014343,232.973068 307.629944,235.414612 307.690063,240.831055 
	C307.982269,267.140961 307.636414,293.457947 307.525391,319.772461 
	C307.513489,322.597717 307.604828,325.423920 307.562317,328.248413 
	C307.534729,330.082520 308.144714,331.593445 309.757507,332.432495 
	C320.000092,337.761047 330.682861,341.052063 342.363647,338.603424 
	C347.366943,337.554565 349.381409,333.866302 348.312195,328.883179 
	C347.154419,323.487305 343.671021,319.352936 340.865417,314.865173 
	C334.850220,305.243347 330.492462,295.275879 331.519409,283.461792 
	C332.824432,268.448395 340.306732,259.069855 354.955261,254.725250 
	C360.882355,252.967316 366.966431,252.082092 373.002441,250.913483 
	C376.738739,250.190140 379.083221,251.292603 379.532623,255.530212 
	C380.075012,260.644714 380.992096,265.718628 381.695038,270.817261 
	C382.085846,273.651794 380.249176,274.790070 377.906006,275.068024 
	C375.434448,275.361206 372.915161,275.231293 370.419434,275.345306 
	C358.946259,275.869232 354.267639,283.391266 359.102509,293.793182 
	C360.568787,296.947693 362.573303,299.856781 364.388641,302.843414 
	C370.119904,312.272797 372.324249,322.656219 371.483093,333.458954 
	C370.438019,346.880798 362.323914,355.663300 349.390015,359.243622 
	C336.223694,362.888245 323.720459,361.122833 311.550415,355.439514 
	C310.662231,355.024719 309.797302,354.422180 308.683502,354.874420 
	C307.105652,356.055786 307.417206,357.810486 307.492523,359.438538 
	C308.062317,371.754913 307.805939,384.065582 307.491852,396.383667 
	C307.399597,400.001312 306.176392,401.415283 302.499573,401.403534 
	C274.171051,401.312775 245.841949,401.300781 217.513458,401.392731 
	C213.507950,401.405701 212.209564,399.796509 212.477554,395.969696 
	C212.744720,392.154694 212.568085,388.308563 212.586487,383.979797 
M238.768661,133.905090 
	C239.671707,135.621719 239.367752,137.487579 239.407242,139.302078 
	C239.936371,163.617264 239.461685,187.936218 239.722702,212.256729 
	C240.087448,246.242020 240.435410,280.242920 239.457932,314.231140 
	C239.372711,317.194733 239.689377,319.656860 243.498734,319.653656 
	C254.497910,319.644379 265.497101,319.668610 276.496216,319.642242 
	C279.100006,319.635986 280.361053,318.422363 280.363861,315.618835 
	C280.399323,280.305328 280.525299,244.991959 280.585815,209.678467 
	C280.626373,186.013092 280.683746,162.347076 280.529297,138.682678 
	C280.499756,134.158371 281.935730,132.289856 286.579285,132.604568 
	C291.058350,132.908112 295.574341,132.659042 300.074097,132.667160 
	C307.358002,132.680298 307.389343,132.685242 307.395172,139.770126 
	C307.412018,160.268967 307.372559,180.767944 307.446411,201.266525 
	C307.453735,203.289551 306.589569,205.635651 308.613342,207.281647 
	C310.389832,207.578674 311.539154,206.537170 312.703461,205.623993 
	C332.961792,189.735107 339.158905,164.036270 330.458862,141.412064 
	C322.287384,120.162323 304.177307,110.406685 283.246490,105.385712 
	C266.399445,101.344360 249.494934,102.180016 232.987335,107.443527 
	C208.872833,115.132530 190.830032,128.634430 187.819519,156.071030 
	C185.893265,173.626160 191.769257,188.484070 203.391510,201.280640 
	C205.412628,203.505951 208.006866,205.507828 210.979111,206.304245 
	C213.093964,204.787323 212.559296,202.820557 212.575607,201.057968 
	C212.629639,195.225388 212.609390,189.392090 212.608856,183.559067 
	C212.607422,168.393204 212.595001,153.227325 212.603241,138.061462 
	C212.604630,135.515762 212.464661,132.690018 216.166931,132.748169 
	C223.472916,132.862900 230.803589,131.998749 238.768661,133.905090 
M280.110931,354.678558 
	C280.200165,352.522125 280.204163,350.357910 280.399994,348.211212 
	C280.651154,345.457642 279.461914,344.146240 276.737793,344.139404 
	C265.608337,344.111481 254.478912,344.072418 243.349457,344.061676 
	C240.730392,344.059143 239.350342,345.224579 239.568161,348.054108 
	C240.155457,355.683563 240.050858,363.318634 239.488007,370.945709 
	C239.261948,374.009003 240.400803,375.681274 243.675568,375.671356 
	C254.473282,375.638702 265.271149,375.659851 276.068970,375.672211 
	C279.168762,375.675751 280.523407,374.375061 280.339569,371.074402 
	C280.053558,365.939453 280.166534,360.782257 280.110931,354.678558 
z"/>
</svg>