<svg version="1.1" id="Layer_1" xmlns="http://www.w3.org/2000/svg" xmlns:xlink="http://www.w3.org/1999/xlink" x="0px" y="0px"
	 width="100%" viewBox="0 0 512 512" enable-background="new 0 0 512 512" xml:space="preserve">
<path fill="#000000" opacity="1.000000" stroke="none" 
	d="
M170.261017,81.123856 
	C175.026642,79.448318 179.515808,78.124756 183.805878,76.326241 
	C187.400787,74.819160 189.471085,76.077507 191.128021,79.145317 
	C196.636795,89.344635 196.959793,100.265739 194.548645,111.134361 
	C192.682327,119.547096 189.180359,127.582474 186.885605,135.917770 
	C182.576752,151.568893 183.095810,166.953430 191.342255,181.345612 
	C197.552750,192.184540 207.632843,198.309494 219.183884,202.000320 
	C246.245041,210.646973 273.357788,210.515442 299.915009,200.352707 
	C321.533295,192.079971 331.889832,174.691208 331.017090,151.389236 
	C330.661652,141.898956 327.960480,133.057739 324.992004,124.215332 
	C321.692139,114.385582 319.078186,104.461411 320.681946,93.934898 
	C320.931976,92.293785 321.051666,90.621529 321.442352,89.014915 
	C324.298279,77.270950 326.213409,76.117897 337.628845,79.212158 
	C343.524628,80.810265 349.407745,82.455315 355.022400,84.003563 
	C355.392426,85.675636 354.803558,86.512405 354.237274,87.330841 
	C348.371429,95.808243 348.027649,105.031609 350.742310,114.567360 
	C352.244781,119.845177 354.060638,125.035446 355.794403,130.245483 
	C367.790283,166.293793 353.877258,201.300659 320.395447,219.331299 
	C305.822357,227.179230 290.170929,231.437332 273.810913,233.224854 
	C270.506805,233.585861 269.066681,234.273193 269.868286,238.144730 
	C270.907837,243.165466 271.383362,248.320770 271.376770,253.517410 
	C271.316986,300.680145 271.272461,347.843262 271.453339,395.005402 
	C271.472595,400.033417 270.130951,401.845917 265.009644,401.440063 
	C259.544281,401.006958 254.003647,401.091797 248.523193,401.414520 
	C243.966431,401.682831 242.537262,400.106659 242.563782,395.496216 
	C242.743927,364.166473 242.661667,332.835205 242.663483,301.504425 
	C242.664307,287.172272 242.765366,272.839050 242.618622,258.508392 
	C242.550156,251.821640 242.940857,245.167862 243.949966,238.600830 
	C244.543243,234.739853 243.284805,233.644257 239.721970,233.231888 
	C224.035294,231.416229 209.094864,227.009995 195.127075,219.565140 
	C166.833481,204.484573 152.118484,176.634811 155.838852,144.885483 
	C156.676239,137.739151 159.712479,131.134277 162.105591,124.389153 
	C164.382629,117.971176 166.601379,111.612030 166.891769,104.602119 
	C167.193359,97.321587 163.442108,91.599091 160.669586,85.338432 
	C163.474823,82.856476 166.924149,82.583000 170.261017,81.123856 
z"/>
<path fill="#000000" opacity="1.000000" stroke="none" 
	d="
M251.118652,114.820816 
	C264.614807,112.063690 271.634857,117.848892 276.826691,129.768723 
	C283.321411,144.679825 291.918457,158.674744 299.595001,173.072052 
	C300.998749,175.704758 302.340454,178.370560 304.109711,181.792603 
	C296.413025,185.715256 288.958099,189.582581 281.432892,193.307907 
	C279.219757,194.403503 278.557129,192.375687 277.833801,190.932602 
	C269.553223,174.412018 261.221680,157.911026 256.565552,139.878342 
	C256.365509,139.103561 255.976822,138.377502 255.336182,136.782913 
	C253.704178,143.001755 252.580338,148.471771 250.826538,153.731750 
	C246.548203,166.563202 240.264893,178.513809 234.149368,190.532715 
	C232.843948,193.098251 231.272842,193.280716 228.922104,192.099152 
	C222.971664,189.108292 216.998444,186.157425 210.963181,183.343124 
	C208.422729,182.158493 207.939606,180.782745 209.282440,178.286621 
	C220.089142,158.198822 230.896759,138.110489 241.505005,117.917755 
	C243.763931,113.617905 247.383865,115.194839 251.118652,114.820816 
z"/>
<path fill="#000000" opacity="1.000000" stroke="none" 
	d="
M175.002121,245.099564 
	C187.160324,245.081360 198.823914,245.255829 210.475159,244.953949 
	C215.560333,244.822205 217.317383,246.642395 216.964081,251.630264 
	C216.611954,256.601532 216.838577,261.618378 216.913666,266.613708 
	C216.962570,269.866913 215.798462,271.418823 212.238571,271.392395 
	C195.584366,271.268738 178.928558,271.298492 162.273758,271.371033 
	C159.191208,271.384460 157.623779,270.392975 157.686462,267.081268 
	C157.799911,261.087708 157.788071,255.088898 157.675079,249.095184 
	C157.622650,246.313828 158.834625,245.136856 161.512131,245.142700 
	C165.842194,245.152145 170.172363,245.115814 175.002121,245.099564 
z"/>
<path fill="#000000" opacity="1.000000" stroke="none" 
	d="
M160.262207,323.218079 
	C157.651337,322.548798 157.741470,320.754028 157.728973,319.113159 
	C157.683411,313.130737 157.807037,307.145264 157.658463,301.166138 
	C157.580475,298.028015 159.118881,297.117523 161.902069,297.120483 
	C178.687027,297.138245 195.472198,297.153656 212.256851,297.075562 
	C215.674088,297.059662 217.026703,298.519806 216.959564,301.874451 
	C216.849884,307.356232 216.843140,312.844910 216.991714,318.325317 
	C217.097382,322.223328 215.401596,323.461548 211.586411,323.422516 
	C194.637070,323.249237 177.685318,323.309814 160.262207,323.218079 
z"/>
<path fill="#000000" opacity="1.000000" stroke="none" 
	d="
M157.729095,371.796570 
	C157.700287,365.494324 157.835663,359.669708 157.635864,353.856598 
	C157.519058,350.458435 158.723648,349.035370 162.182632,349.050293 
	C178.810272,349.122070 195.438538,349.102173 212.066315,349.040741 
	C215.310654,349.028748 217.037582,350.126984 216.956863,353.657410 
	C216.827713,359.307678 216.871506,364.963806 216.946182,370.616089 
	C216.989044,373.861633 215.843369,375.429352 212.288864,375.404297 
	C195.661636,375.287018 179.033142,375.358795 162.405090,375.350128 
	C160.203140,375.348969 157.885025,375.449402 157.729095,371.796570 
z"/>
<path fill="#000000" opacity="1.000000" stroke="none" 
	d="
M330.999939,271.348694 
	C321.171021,271.350433 311.837494,271.178955 302.515381,271.430908 
	C298.291229,271.545044 296.883301,269.926941 297.072723,265.902039 
	C297.338745,260.250427 297.369934,254.583908 297.349335,248.924316 
	C297.339600,246.250244 298.221619,245.011032 301.096832,245.027588 
	C317.921570,245.124542 334.746979,245.120041 351.572174,245.107300 
	C354.826752,245.104843 356.457886,246.322556 356.342285,249.849426 
	C356.156860,255.507523 356.157166,261.178955 356.312225,266.838348 
	C356.409485,270.389252 354.814423,271.456268 351.489410,271.381775 
	C344.829346,271.232635 338.163422,271.344238 330.999939,271.348694 
z"/>
<path fill="#000000" opacity="1.000000" stroke="none" 
	d="
M299.887756,297.159241 
	C316.917419,297.120087 333.541962,297.235687 350.162811,297.039215 
	C354.909851,296.983093 356.732300,298.570709 356.387726,303.394073 
	C356.021454,308.522034 356.202911,313.696045 356.296265,318.847260 
	C356.352081,321.927490 355.256195,323.388306 351.964355,323.372528 
	C335.009155,323.291229 318.053375,323.334106 301.097778,323.345673 
	C299.082062,323.347076 297.350708,322.930023 297.261414,320.492554 
	C296.999756,313.350220 296.855530,306.206207 297.528931,299.073730 
	C297.642517,297.870544 298.403229,297.377289 299.887756,297.159241 
z"/>
<path fill="#000000" opacity="1.000000" stroke="none" 
	d="
M307.044067,375.360168 
	C297.017273,375.188477 297.068115,377.063751 297.130859,365.940155 
	C297.155273,361.611603 297.442383,357.281219 297.359070,352.956482 
	C297.298859,349.827606 298.728424,349.033966 301.604279,349.049927 
	C318.099274,349.141449 334.595215,349.143250 351.090393,349.073395 
	C354.820099,349.057587 356.562561,350.349701 356.368134,354.348511 
	C356.109558,359.668152 356.108154,365.017456 356.345886,370.338409 
	C356.526093,374.371490 354.802185,375.454651 351.023407,375.415375 
	C336.528870,375.264862 322.031830,375.358337 307.044067,375.360168 
z"/>
</svg>