<svg version="1.1" id="Layer_1" xmlns="http://www.w3.org/2000/svg" xmlns:xlink="http://www.w3.org/1999/xlink" x="0px" y="0px"
	 width="100%" viewBox="0 0 512 512" enable-background="new 0 0 512 512" xml:space="preserve">
<path fill="#000000" opacity="1.000000" stroke="none" 
	d="
M215.016266,183.375427 
	C201.554077,183.369614 201.484039,183.369049 201.586151,170.561020 
	C201.705566,155.583725 199.694977,157.887619 214.680679,157.709808 
	C221.845963,157.624802 229.016251,157.566818 236.178207,157.743179 
	C240.497269,157.849533 242.031937,156.081528 242.005524,151.791626 
	C241.873123,130.293594 241.938400,108.794296 241.956680,87.295456 
	C241.962265,80.729225 242.037277,80.679382 248.714310,80.662666 
	C254.047333,80.649323 259.380524,80.639137 264.713440,80.664703 
	C270.930328,80.694511 271.277039,81.005981 271.284576,87.124016 
	C271.310608,108.289528 271.299103,129.455078 271.304932,150.620621 
	C271.306885,157.664581 271.311157,157.675247 278.571289,157.685257 
	C288.070801,157.698349 297.571930,157.796509 307.069000,157.645447 
	C311.081421,157.581635 312.843719,158.922318 312.648804,163.173386 
	C312.420563,168.151962 312.780792,173.156631 312.858643,178.150421 
	C312.915955,181.827118 311.336548,183.501541 307.404480,183.426178 
	C297.408722,183.234604 287.399017,183.598526 277.410645,183.266922 
	C272.544495,183.105362 271.170319,184.744553 271.183746,189.523087 
	C271.328949,241.186630 271.381744,292.851135 271.188599,344.514343 
	C271.148926,355.125549 269.969391,365.731598 269.362640,376.342712 
	C269.280334,377.782471 269.475983,379.238098 269.586273,381.624969 
	C274.248596,377.757721 278.180847,374.310577 282.307678,371.114624 
	C289.209808,365.769348 297.428162,362.751099 305.001068,358.587189 
	C325.675781,347.219269 340.328400,330.775879 345.984314,307.572876 
	C348.665771,296.572388 349.141907,285.156250 346.193542,273.930847 
	C343.737915,264.581421 336.244415,260.665070 328.188934,257.400116 
	C324.799347,256.026276 321.280670,254.932785 317.992157,253.354492 
	C302.758423,246.043274 298.452911,236.653137 302.993958,220.488098 
	C305.173218,212.730438 309.009216,205.727554 313.459167,199.029251 
	C315.312469,196.239563 317.312103,195.724091 320.147858,197.489426 
	C323.964905,199.865692 327.818909,202.195572 331.764648,204.348114 
	C335.208771,206.227020 336.218414,208.557068 334.096191,212.073441 
	C332.278046,215.085953 331.443207,218.510971 330.247009,221.791489 
	C328.453979,226.708740 330.360748,229.944778 334.563599,232.063858 
	C338.120026,233.857010 341.871216,235.275284 345.575317,236.762054 
	C359.956268,242.534363 370.889069,251.836014 374.547607,267.419037 
	C377.326752,279.256500 378.037872,291.281342 376.134308,303.555359 
	C371.286743,334.812378 352.740601,356.530487 328.025085,373.968994 
	C307.257538,388.621887 283.905060,397.800751 259.652283,404.870575 
	C258.004425,405.350952 256.386200,405.366119 254.740662,404.851898 
	C230.367813,397.235107 206.550110,388.444244 185.461060,373.513123 
	C165.855942,359.632599 149.904221,342.694427 141.838104,319.698425 
	C135.227661,300.852509 134.593369,281.500427 141.279556,262.465637 
	C145.836624,249.492188 156.108215,241.945679 168.365799,236.782318 
	C172.352142,235.103134 176.408142,233.565216 180.292816,231.675934 
	C183.880142,229.931244 185.169861,226.986893 184.074265,222.969116 
	C182.972473,218.928619 181.533325,215.044144 179.576019,211.352936 
	C178.026413,208.430588 178.763870,206.295898 181.592514,204.679443 
	C185.930801,202.200256 190.204071,199.606995 194.550751,197.142944 
	C196.203552,196.206024 197.974167,195.586060 199.417725,197.602066 
	C206.598221,207.630035 212.215134,218.374100 212.598907,230.978729 
	C212.922638,241.610748 206.832184,248.314606 197.640930,252.565628 
	C194.023026,254.238937 190.337769,255.790207 186.604172,257.185730 
	C169.461182,263.593414 167.013962,270.381744 166.172897,285.470520 
	C164.289825,319.252563 181.210587,342.441040 209.235489,358.545807 
	C220.750565,365.163025 233.218384,370.143768 242.962219,380.401886 
	C244.812714,376.518677 243.307129,373.073059 243.256531,369.800293 
	C243.097260,359.495514 242.048767,349.199707 242.019730,338.898499 
	C241.880219,289.401520 241.964218,239.903946 241.964569,190.406570 
	C241.964615,183.538040 241.819824,183.393997 235.011917,183.380646 
	C228.512375,183.367905 222.012787,183.376312 215.016266,183.375427 
z"/>
</svg>