<svg version="1.1" id="Layer_1" xmlns="http://www.w3.org/2000/svg" xmlns:xlink="http://www.w3.org/1999/xlink" x="0px" y="0px"
	 width="100%" viewBox="0 0 512 512" enable-background="new 0 0 512 512" xml:space="preserve">
<path fill="#000000" opacity="1.000000" stroke="none" 
	d="
M241.711472,341.999939 
	C241.867569,327.689423 241.085968,313.852509 242.710541,300.083344 
	C243.231613,295.667175 241.481201,294.285553 237.107147,294.316772 
	C213.942032,294.482330 190.775101,294.405640 167.608810,294.394928 
	C160.891510,294.391815 160.831879,294.309326 160.829407,287.766937 
	C160.827698,283.267029 161.028503,278.756683 160.785736,274.270142 
	C160.546295,269.844971 162.443756,268.272736 166.699036,268.559021 
	C170.016251,268.782135 173.362274,268.573242 176.695511,268.563080 
	C179.615677,268.554169 180.999832,267.315826 180.515259,264.211761 
	C178.413345,250.747299 176.213669,237.294861 174.374985,223.793732 
	C173.253998,215.562500 172.624435,207.258484 171.979218,198.971191 
	C171.719315,195.632843 170.741058,194.301529 167.035736,194.862411 
	C157.000626,196.381393 146.873871,197.300262 136.846146,198.860184 
	C132.485352,199.538544 130.572891,198.019608 130.060669,193.935074 
	C129.377563,188.487991 128.654495,183.045944 127.954758,177.600937 
	C127.537186,174.351547 129.325729,173.099792 132.249817,172.765839 
	C141.009674,171.765396 149.749191,170.555054 158.525986,169.744370 
	C166.570404,169.001343 167.190643,168.433014 165.292435,160.870270 
	C160.547668,141.966522 158.702454,122.577843 155.641739,103.392738 
	C154.830399,98.307129 154.380920,93.148537 153.284088,88.128586 
	C152.412430,84.139221 153.753738,82.820625 157.591599,82.312981 
	C163.843887,81.485954 170.034866,80.175957 176.235718,78.986290 
	C180.402740,78.186821 181.521561,80.784355 182.027786,84.036018 
	C183.458527,93.226242 184.910950,102.414154 186.215836,111.622673 
	C188.104156,124.948685 189.883423,138.290237 191.675415,151.629715 
	C191.963364,153.773193 192.159744,155.936646 192.253525,158.097137 
	C192.554977,165.041229 192.843323,165.174301 200.015961,164.188828 
	C207.430466,163.170135 214.902939,162.568787 222.311768,161.515457 
	C225.785782,161.021515 227.186722,162.212006 227.556824,165.598953 
	C228.206482,171.544083 229.135727,177.458542 229.937546,183.387222 
	C230.275040,185.882675 229.095078,187.065109 226.656448,187.377182 
	C219.232315,188.327286 211.822159,189.386337 204.398178,190.337601 
	C201.799652,190.670563 199.101868,190.521072 196.552399,192.348206 
	C199.435303,203.082016 201.970825,213.878006 203.519791,224.895706 
	C205.300552,237.562119 207.543060,250.164124 209.278976,262.836029 
	C209.835190,266.896301 211.379562,268.626221 215.578354,268.515411 
	C222.729324,268.326660 229.896759,268.383209 237.045914,268.645752 
	C241.359253,268.804108 242.999313,267.319885 242.766708,262.859436 
	C240.805008,225.238922 242.018738,187.584091 241.770737,149.944260 
	C241.735794,144.640900 242.293060,139.326324 242.731094,134.029724 
	C243.023712,130.491379 241.472153,129.308273 238.077850,129.351837 
	C228.579544,129.473755 219.075974,129.269440 209.580276,129.469223 
	C205.891357,129.546829 204.478561,128.334763 204.657181,124.591728 
	C204.895218,119.603386 204.905060,114.584442 204.643906,109.597977 
	C204.418915,105.301750 205.908829,103.627983 210.367889,103.774849 
	C218.858459,104.054504 227.364929,103.868942 235.864716,103.844559 
	C242.617706,103.825188 242.629471,103.804047 242.647003,97.284744 
	C242.658646,92.951645 242.750229,88.613602 242.575333,84.287102 
	C242.470718,81.698830 243.416367,80.634827 245.990265,80.658356 
	C252.822815,80.720818 259.657257,80.749176 266.489044,80.654373 
	C270.166840,80.603333 271.112396,82.730667 270.912170,85.790237 
	C270.629822,90.104790 270.525330,94.471527 269.729645,98.700203 
	C268.977966,102.694862 270.514099,103.870392 274.118896,103.852592 
	C282.951813,103.808968 291.787933,103.982903 300.617126,103.798843 
	C304.943359,103.708656 306.651978,105.392738 306.457245,109.701241 
	C306.231720,114.691109 306.294556,119.701447 306.429016,124.697609 
	C306.521362,128.130280 305.081299,129.464554 301.671753,129.419891 
	C292.673462,129.302017 283.666138,129.580399 274.675415,129.293564 
	C269.946442,129.142685 268.986725,131.255356 269.376038,135.350403 
	C272.727295,170.600433 270.249756,205.939590 270.826691,241.233932 
	C270.948517,248.687515 269.904633,256.164429 269.309052,263.623505 
	C269.041718,266.971191 270.309784,268.636932 273.789581,268.601654 
	C281.455048,268.523895 289.122711,268.614624 296.786987,268.487122 
	C300.217407,268.430054 302.277344,267.374329 302.936005,263.080109 
	C305.880890,243.881500 309.360718,224.764297 312.720367,205.630524 
	C313.294769,202.359207 313.983459,199.068161 315.051697,195.933563 
	C316.354492,192.110641 314.863403,190.786362 311.265625,190.345230 
	C303.832764,189.433884 296.433807,188.246384 289.000885,187.335632 
	C285.353210,186.888702 284.017761,185.592255 284.392059,181.497238 
	C284.908783,175.844391 286.027222,170.300186 286.582458,164.681000 
	C286.924927,161.214920 288.632568,160.585449 291.608765,160.993011 
	C299.846863,162.121124 308.114899,163.040558 316.336639,164.272690 
	C319.449219,164.739166 320.604614,163.800430 320.658051,160.692169 
	C320.990845,141.322357 325.512024,122.479439 327.994324,103.378555 
	C328.807739,97.119286 329.878113,90.893661 330.717438,84.637413 
	C331.436096,79.280647 332.596313,78.406357 337.825500,79.373062 
	C343.875732,80.491539 349.926575,81.641853 356.016968,82.493309 
	C359.080536,82.921608 359.949005,84.326790 359.514587,87.198006 
	C357.625793,99.681931 355.768311,112.170967 353.982788,124.670052 
	C352.101654,137.838303 350.013794,150.972839 346.773010,163.879578 
	C345.890350,167.394821 347.811798,168.049774 350.274506,168.374268 
	C359.342285,169.568954 368.412170,170.773056 377.506683,171.732605 
	C387.547638,172.792023 386.401276,174.380203 385.345520,180.562134 
	C384.534119,185.313385 383.888428,190.105438 383.459900,194.905319 
	C383.157410,198.293640 381.542725,198.976791 378.456848,198.568909 
	C367.901520,197.173706 357.320190,195.975647 346.750458,194.688736 
	C341.010895,193.989914 340.468506,194.512253 340.295013,200.356583 
	C339.904633,213.504440 338.343079,226.520401 336.023407,239.468750 
	C334.587463,247.484238 333.609070,255.580750 332.329407,263.625641 
	C331.812805,266.873291 333.244965,268.392181 336.306030,268.520660 
	C339.467499,268.653381 342.658417,268.834167 345.798096,268.558014 
	C350.333740,268.159088 351.663055,270.181946 351.417877,274.411499 
	C351.148224,279.062805 351.035858,283.766846 351.420959,288.400848 
	C351.843048,293.479279 349.591156,294.508209 345.020508,294.472656 
	C322.188934,294.294800 299.355194,294.390350 276.522217,294.396973 
	C269.051422,294.399170 268.626923,295.001404 269.737335,302.493774 
	C270.468811,307.429199 270.989197,312.386993 270.983215,317.406616 
	C270.953491,342.406067 271.013763,367.405640 271.045013,392.405151 
	C271.056183,401.356720 271.059540,401.359589 262.372711,401.363770 
	C257.539459,401.366089 252.686813,401.085144 247.878311,401.428192 
	C242.899017,401.783447 241.585434,399.602936 241.631577,394.993134 
	C241.806641,377.496918 241.708191,359.997925 241.711472,341.999939 
z"/>
</svg>