<svg version="1.1" id="Layer_1" xmlns="http://www.w3.org/2000/svg" xmlns:xlink="http://www.w3.org/1999/xlink" x="0px" y="0px"
	 width="100%" viewBox="0 0 512 512" enable-background="new 0 0 512 512" xml:space="preserve">
<path fill="#000000" opacity="1.000000" stroke="none" 
	d="
M174.001816,80.651314 
	C179.333160,80.651024 184.179489,80.895912 188.993759,80.607010 
	C206.977005,79.527863 215.775070,88.423866 222.117218,103.207672 
	C227.933395,116.765427 229.860535,131.342728 232.277145,145.765671 
	C234.553131,159.349472 235.722336,173.152908 240.207245,186.304871 
	C240.582870,187.406357 240.987030,188.499176 241.412918,189.582275 
	C243.658936,195.294189 246.886551,200.340622 253.690521,200.381973 
	C260.738831,200.424774 264.732422,195.544769 267.359558,189.612595 
	C273.549713,175.635010 275.488892,160.533615 278.687592,145.770081 
	C282.139221,129.838898 285.282288,113.808922 293.258667,99.307205 
	C299.945496,87.149940 309.462158,79.822639 324.159668,80.572678 
	C332.800659,81.013634 341.482666,80.641991 350.146240,80.651390 
	C357.173676,80.659012 357.192535,80.669296 357.193848,87.932373 
	C357.202057,132.749710 357.201660,177.567047 357.203003,222.384384 
	C357.204681,279.364044 357.207855,336.343689 357.203552,393.323334 
	C357.202942,401.338104 357.185059,401.343079 349.417389,401.343109 
	C287.606110,401.343414 225.794846,401.342896 163.983566,401.338959 
	C156.846130,401.338501 156.833344,401.327850 156.833115,394.178589 
	C156.829742,292.381592 156.828156,190.584595 156.833206,88.787598 
	C156.833603,80.649826 156.857803,80.649879 165.006073,80.650917 
	C167.838074,80.651276 170.670074,80.651283 174.001816,80.651314 
M185.189255,348.500000 
	C185.202850,355.997009 185.318817,363.495911 185.182587,370.990204 
	C185.123306,374.251160 186.271652,375.211395 189.570923,375.201263 
	C233.888870,375.064850 278.207428,375.012268 322.525299,375.132385 
	C327.203339,375.145081 328.918152,373.935699 328.910675,368.999023 
	C328.781494,283.694519 328.817413,198.389786 328.801483,113.085106 
	C328.800323,106.865845 325.998291,105.307793 320.302917,108.195038 
	C317.788788,109.469582 316.222717,111.615585 314.942322,113.957298 
	C312.376587,118.649742 310.485199,123.635345 309.293091,128.845703 
	C306.253662,142.130142 303.500031,155.482986 300.267578,168.719467 
	C296.434875,184.413757 292.182007,199.928162 282.148804,213.204803 
	C270.972473,227.994080 251.337875,229.291809 238.466675,223.414246 
	C226.679794,218.031815 220.936172,207.464920 216.707626,196.024017 
	C209.452286,176.393646 207.289825,155.631729 203.655197,135.200104 
	C202.226700,127.170013 200.668808,119.131584 196.623810,111.908577 
	C194.675446,108.429466 191.381104,106.333282 187.449509,107.306374 
	C183.540512,108.273857 185.272278,112.070297 185.269211,114.578285 
	C185.174438,192.218781 185.190475,269.859406 185.189255,348.500000 
z"/>
</svg>