<svg version="1.1" id="Layer_1" xmlns="http://www.w3.org/2000/svg" xmlns:xlink="http://www.w3.org/1999/xlink" x="0px" y="0px"
	 width="100%" viewBox="0 0 512 512" enable-background="new 0 0 512 512" xml:space="preserve">
<path fill="#000000" opacity="1.000000" stroke="none" 
	d="
M169.634308,303.267456 
	C169.422012,298.967743 171.778137,297.582397 174.994690,297.983643 
	C180.618973,298.685181 183.574493,295.382141 187.093002,291.743866 
	C202.493958,275.818634 216.639984,258.694702 232.921936,243.623306 
	C235.754532,241.001328 236.053223,239.090775 233.101517,236.326172 
	C217.155975,221.391281 203.166260,204.591843 188.211380,188.711578 
	C185.002167,185.303833 181.868073,183.939941 177.382599,184.059219 
	C170.147247,184.251617 169.659073,183.595154 169.622803,176.515884 
	C169.599747,172.016159 169.802826,167.506348 169.563202,163.019287 
	C169.337601,158.794327 171.173248,157.565704 175.187439,157.599854 
	C192.352234,157.745865 209.518997,157.660736 226.685043,157.661026 
	C262.517090,157.661621 298.349121,157.659195 334.181183,157.667145 
	C341.027008,157.668671 341.253937,157.892059 341.285889,164.626083 
	C341.308838,169.459030 341.240204,174.292526 341.277954,179.125259 
	C341.299377,181.869522 340.031158,184.324783 337.375275,183.832031 
	C325.539307,181.636047 320.126221,190.418442 313.694824,197.284698 
	C301.057922,210.776047 288.736053,224.563797 275.394989,237.382660 
	C274.696411,238.053894 274.180328,238.915085 273.431610,239.877731 
	C275.626221,243.423965 279.187103,245.471817 281.873413,248.353363 
	C295.271301,262.725006 308.772614,277.001465 322.048523,291.484711 
	C325.820587,295.599792 329.531036,298.813110 335.655396,298.012482 
	C339.474243,297.513245 341.478302,299.536499 341.327515,303.663330 
	C341.145111,308.656403 341.104126,313.670258 341.345825,318.658478 
	C341.557709,323.031372 339.787811,324.450806 335.481079,324.427612 
	C309.316101,324.286469 283.149994,324.353760 256.984283,324.351410 
	C230.485245,324.349030 203.986206,324.350433 177.487167,324.341858 
	C169.626724,324.339294 169.622284,324.326416 169.612686,316.234802 
	C169.607742,312.068634 169.621948,307.902496 169.634308,303.267456 
M256.500000,297.906158 
	C268.867157,297.906158 281.234283,297.906158 294.982056,297.906158 
	C279.251190,283.556427 264.103088,270.677856 254.255875,251.507339 
	C245.667252,271.317780 230.087799,283.487152 214.905045,297.906281 
	C229.372421,297.906281 242.436203,297.906281 256.500000,297.906158 
M218.758453,185.232635 
	C232.648331,197.156357 245.005737,210.439621 255.140121,227.832031 
	C263.324738,208.652649 278.444794,197.178146 292.900055,183.392044 
	C288.579651,183.392044 285.624786,183.238007 282.690247,183.417130 
	C264.226654,184.544205 245.774338,184.473358 227.299850,183.532776 
	C224.440887,183.387238 220.934341,181.510071 218.758453,185.232635 
z"/>
<path fill="#000000" opacity="1.000000" stroke="none" 
	d="
M145.793365,336.652222 
	C145.642914,348.615936 145.580704,360.111664 145.362930,371.604431 
	C145.304657,374.679413 146.761826,375.053192 149.390396,375.027863 
	C163.221115,374.894531 177.053726,374.901978 190.885391,374.946259 
	C197.003433,374.965851 197.749939,375.716858 197.897308,381.887970 
	C198.012650,386.717651 197.824966,391.554199 197.918365,396.384888 
	C197.986343,399.901886 196.678787,401.428558 192.921326,401.410339 
	C169.090668,401.294586 145.258926,401.301971 121.428200,401.410217 
	C117.589195,401.427643 115.862045,399.998627 115.974449,396.175323 
	C116.062569,393.178131 115.997101,390.176422 115.996910,387.176697 
	C115.990829,288.352081 115.983154,189.527496 115.979881,90.702888 
	C115.979553,80.657860 115.991699,80.658836 126.077515,80.658630 
	C147.908936,80.658188 169.741608,80.781128 191.570770,80.558525 
	C196.377762,80.509506 198.224442,82.036461 197.944031,86.816666 
	C197.681030,91.300087 197.950546,95.812599 197.906860,100.311554 
	C197.850403,106.125137 197.040359,107.023468 191.256409,107.057785 
	C178.424652,107.133911 165.592163,107.088905 152.759979,107.094101 
	C145.901947,107.096878 145.920639,107.097687 145.904053,113.736862 
	C145.744644,177.559021 145.556778,241.381134 145.436066,305.203369 
	C145.416534,315.529694 145.686905,325.856537 145.793365,336.652222 
z"/>
<path fill="#000000" opacity="1.000000" stroke="none" 
	d="
M368.652161,151.999878 
	C368.647278,138.505112 368.519379,125.508560 368.709991,112.516670 
	C368.770447,108.392097 367.354370,106.984512 363.239990,107.038521 
	C349.914490,107.213425 336.584869,107.119186 323.257141,107.057381 
	C317.106628,107.028854 316.667419,106.537064 316.648743,100.545761 
	C316.632111,95.214714 316.724091,89.882507 316.639832,84.552841 
	C316.596344,81.802429 317.755066,80.658257 320.496887,80.662445 
	C344.986755,80.699814 369.476685,80.697853 393.966583,80.669991 
	C396.726959,80.666847 397.889099,82.108879 398.020721,84.640266 
	C398.115814,86.468849 398.136017,88.302971 398.136017,90.134621 
	C398.136749,190.594086 398.131836,291.053528 398.127045,391.513000 
	C398.127014,392.345978 398.125427,393.179016 398.117920,394.011963 
	C398.053680,401.151978 397.882050,401.352448 390.856659,401.356171 
	C368.199127,401.368164 345.540741,401.253693 322.884827,401.443207 
	C318.227875,401.482178 316.165955,400.278290 316.561737,395.297913 
	C316.943298,390.496735 316.853180,385.630249 316.587280,380.813629 
	C316.343903,376.404907 318.266602,374.880981 322.450806,374.910645 
	C335.444794,375.002747 348.440002,374.921448 361.434723,374.915497 
	C368.617401,374.912231 368.642731,374.919525 368.643524,367.912048 
	C368.651550,296.108002 368.650726,224.303940 368.652161,151.999878 
z"/>
</svg>