<svg version="1.1" id="Layer_1" xmlns="http://www.w3.org/2000/svg" xmlns:xlink="http://www.w3.org/1999/xlink" x="0px" y="0px"
	 width="100%" viewBox="0 0 512 512" enable-background="new 0 0 512 512" xml:space="preserve">
<path fill="#000000" opacity="1.000000" stroke="none" 
	d="
M205.036957,401.339172 
	C201.438705,401.185699 198.258606,401.769012 194.819168,400.611603 
	C196.171143,391.340363 197.333130,382.311279 198.824280,373.336853 
	C204.217941,340.875580 210.027222,308.496246 218.607773,276.684296 
	C222.168594,263.482666 226.542725,250.597488 232.700119,238.343658 
	C235.236191,233.296616 239.020538,229.155640 243.010666,224.299179 
	C236.835342,223.714706 231.661133,224.955704 226.484909,225.464859 
	C208.044037,227.278671 189.563812,226.833298 171.088257,226.956833 
	C167.331909,226.981949 165.611328,225.690628 165.778076,221.707932 
	C166.007858,216.219833 165.913971,210.712906 165.795380,205.217575 
	C165.729553,202.167221 166.669434,200.539078 170.041275,200.645386 
	C192.941025,201.367218 216.039200,198.404495 238.657425,204.419083 
	C239.869492,204.741409 241.241913,204.460693 243.733307,204.460693 
	C233.245224,197.147812 225.502274,188.686157 219.760925,178.436127 
	C211.742142,164.120224 208.248474,148.883759 209.405869,132.430649 
	C209.875137,125.759705 210.629410,119.179649 212.093506,112.700806 
	C218.251953,85.448540 237.267517,75.343483 263.301300,78.224457 
	C285.179443,80.645546 300.566528,96.309120 305.115356,121.060402 
	C311.181610,154.068283 301.175568,181.777115 274.979858,203.247360 
	C274.100861,203.967789 272.934631,204.416855 272.985840,206.371567 
	C274.935822,206.034637 276.857574,205.886917 278.669159,205.360199 
	C292.231964,201.416748 306.083496,200.234909 320.149384,200.618805 
	C327.807373,200.827805 335.478790,200.785751 343.138062,200.603363 
	C346.745636,200.517471 348.350769,201.730972 348.195984,205.463425 
	C348.016663,209.787369 348.170319,214.124863 348.169373,218.456482 
	C348.167542,226.886810 348.163788,226.980545 339.471710,226.901382 
	C326.652313,226.784622 313.831909,226.612900 301.016541,226.284348 
	C291.870087,226.049850 282.754608,225.274597 273.724792,223.703156 
	C272.903290,223.560211 272.080719,223.373581 271.360229,224.005371 
	C270.761230,224.826416 271.018951,225.672623 271.568787,226.282455 
	C282.180267,238.051819 286.785858,252.758255 291.090820,267.429993 
	C303.462372,309.593445 310.454651,352.917053 318.172516,396.077484 
	C318.970367,400.539490 316.959229,401.417114 312.986115,401.405518 
	C277.167603,401.301208 241.348663,401.341187 205.036957,401.339172 
M273.746948,312.553833 
	C272.369568,305.374969 271.152924,298.160706 269.579529,291.025055 
	C266.790741,278.377716 264.627441,265.557281 259.891205,253.415436 
	C259.254364,251.782745 258.718658,249.589828 256.511261,249.506439 
	C254.195740,249.418976 253.098907,251.398834 252.251297,253.207779 
	C249.558777,258.954224 247.788757,265.022522 246.286942,271.170044 
	C239.738541,297.975677 235.470551,325.229279 230.560043,352.350861 
	C229.245132,359.613312 227.322647,366.869415 227.233444,374.182526 
	C227.868729,374.547974 228.150528,374.851593 228.433472,374.852661 
	C246.075989,374.919525 263.718597,374.959381 281.361206,375.008179 
	C284.410461,375.016602 285.001465,373.193146 284.535767,370.685516 
	C280.989563,351.589783 277.420685,332.498291 273.746948,312.553833 
M260.503296,102.038818 
	C252.476608,100.756203 246.796082,103.586472 243.423874,110.824409 
	C242.166702,113.522751 241.069443,116.372009 240.431503,119.269630 
	C237.096222,134.418808 237.730804,149.658722 239.957565,164.866592 
	C241.247131,173.673874 244.167465,181.934341 249.397629,189.261124 
	C253.791016,195.415695 259.818024,195.865631 264.899750,190.312119 
	C267.623077,187.335922 269.525146,183.824432 271.092407,180.114548 
	C274.169739,172.830063 275.638672,165.137863 276.203308,157.348648 
	C277.214264,143.401871 278.028076,129.375412 273.663422,115.772171 
	C271.648041,109.490845 268.902283,103.518211 260.503296,102.038818 
z"/>
</svg>