<svg version="1.1" id="Layer_1" xmlns="http://www.w3.org/2000/svg" xmlns:xlink="http://www.w3.org/1999/xlink" x="0px" y="0px"
	 width="100%" viewBox="0 0 512 512" enable-background="new 0 0 512 512" xml:space="preserve">
<path fill="#000000" opacity="1.000000" stroke="none" 
	d="
M350.110016,338.000000 
	C350.109955,357.163300 350.131073,375.826630 350.098297,394.489868 
	C350.086548,401.180267 349.904022,401.340027 343.457581,401.341095 
	C272.136963,401.352966 200.816360,401.356812 129.495743,401.352753 
	C122.860428,401.352386 122.680344,401.190704 122.679306,394.701050 
	C122.665047,305.550293 122.660873,216.399521 122.669296,127.248764 
	C122.669891,120.973106 123.277870,120.284286 129.417480,120.123505 
	C134.745834,119.983963 140.084335,119.990211 145.412292,120.143410 
	C151.366028,120.314598 152.197525,121.239540 152.203522,127.373619 
	C152.228424,152.868973 152.205475,178.364349 152.210159,203.859726 
	C152.213776,223.522873 152.341461,243.187012 152.160294,262.848389 
	C152.119904,267.233826 153.129532,269.080963 157.941696,269.024536 
	C177.602188,268.793884 197.267563,268.838470 216.929535,268.990173 
	C221.230118,269.023376 222.758133,267.618835 222.728912,263.217682 
	C222.565231,238.556503 222.643494,213.893677 222.658066,189.231415 
	C222.659607,186.630188 222.824982,184.312729 219.036224,184.087219 
	C197.243561,182.790237 183.485382,170.135071 173.842773,151.767105 
	C168.507828,141.604691 163.576950,131.211212 156.121841,122.304840 
	C148.718704,113.460579 139.573761,107.941971 127.899452,107.374802 
	C124.069862,107.188751 122.523659,105.706406 122.632164,101.895081 
	C122.793335,96.234154 122.698906,90.565041 122.661476,84.899757 
	C122.642372,82.006859 123.921898,80.666405 126.889549,80.664230 
	C144.437073,80.651360 159.307709,86.905983 171.515259,99.512901 
	C182.455429,110.810974 188.773148,125.114471 196.860519,138.277161 
	C201.385635,145.642075 205.990570,153.139420 215.035843,155.941559 
	C221.453323,157.929657 222.634308,157.047012 222.648590,150.250061 
	C222.665390,142.251511 222.901901,134.242844 222.570862,126.258156 
	C222.374847,121.530037 224.414383,119.979362 228.700668,120.047791 
	C233.865097,120.130241 239.034363,119.979256 244.196503,120.117538 
	C250.597061,120.288994 251.303467,121.087936 251.305115,127.463730 
	C251.316803,172.289047 251.318756,217.114349 251.327972,261.939667 
	C251.329407,268.910156 251.339279,268.920319 258.100342,268.922272 
	C277.263580,268.927826 296.427551,268.836884 315.589569,268.990326 
	C319.967804,269.025330 321.797455,267.855347 321.756836,263.064911 
	C321.549225,238.571045 321.613342,214.074280 321.716522,189.579071 
	C321.731445,186.037552 321.087097,184.210846 316.942108,183.861496 
	C296.952454,182.176666 283.913605,170.556992 274.559357,153.694122 
	C268.435638,142.654907 263.513885,130.869400 254.908173,121.325745 
	C247.475983,113.083527 238.564606,107.696831 227.217255,107.364792 
	C223.701935,107.261940 222.545395,105.842514 222.631744,102.506294 
	C222.778259,96.844528 222.824722,91.170036 222.607910,85.512596 
	C222.466309,81.817787 223.838409,80.539223 227.526993,80.626564 
	C245.271042,81.046692 260.107819,87.712952 272.227478,100.671654 
	C282.503754,111.659302 288.613159,125.288986 296.209869,137.977661 
	C299.042175,142.708450 302.322235,147.101654 306.145233,151.055374 
	C307.395538,152.348450 309.023651,153.330475 310.600983,154.244064 
	C319.052917,159.139374 321.652039,157.667755 321.660309,148.056793 
	C321.666748,140.558151 321.797852,133.056305 321.613953,125.562241 
	C321.524933,121.933487 323.050964,120.258392 326.513702,120.224373 
	C332.675598,120.163834 338.838257,120.177483 345.000610,120.180908 
	C348.556732,120.182884 350.064087,122.156181 350.071198,125.541115 
	C350.076141,127.873825 350.112457,130.206497 350.112488,132.539185 
	C350.113373,200.859451 350.111450,269.179718 350.110016,338.000000 
M152.222717,340.500000 
	C152.235229,350.162842 152.405365,359.829315 152.185394,369.486847 
	C152.092834,373.550781 153.325546,375.026642 157.547043,374.990112 
	C177.537659,374.817230 197.531296,374.843506 217.522324,374.997101 
	C221.434402,375.027161 222.741776,373.750244 222.717743,369.817963 
	C222.577240,346.827820 222.591385,323.836151 222.701736,300.845673 
	C222.721085,296.814331 221.363663,295.199982 217.190613,295.228210 
	C197.199402,295.363678 177.206085,295.364258 157.215073,295.211517 
	C153.193527,295.180786 152.082733,296.693573 152.136688,300.516266 
	C152.320145,313.508667 152.216385,326.505096 152.222717,340.500000 
M290.500000,374.921021 
	C299.162201,374.922791 307.827820,374.783630 316.485077,374.990906 
	C320.313477,375.082581 321.764069,373.912598 321.737518,369.891632 
	C321.584839,346.737946 321.593445,323.582306 321.727570,300.428406 
	C321.750519,296.469849 320.311920,295.200256 316.469788,295.224731 
	C296.480896,295.352081 276.490417,295.365448 256.501556,295.244904 
	C252.642822,295.221649 251.218369,296.488983 251.241623,300.437195 
	C251.377975,323.591125 251.395065,346.746704 251.250946,369.900452 
	C251.225861,373.929047 252.695618,375.044586 256.518219,374.979004 
	C267.509247,374.790527 278.505676,374.917908 290.500000,374.921021 
z"/>
<path fill="#000000" opacity="1.000000" stroke="none" 
	d="
M404.840515,150.163452 
	C408.616180,154.331558 413.237274,156.165375 418.264587,156.844299 
	C421.668396,157.304016 422.804993,159.146179 422.752045,162.206284 
	C422.657043,167.693542 422.340546,173.184814 422.473297,178.665787 
	C422.587006,183.361877 420.073181,184.424118 416.156647,183.981354 
	C400.314545,182.190369 388.096283,174.489151 379.033295,161.440247 
	C371.797058,151.021454 367.216370,139.097031 360.136871,128.603149 
	C351.935913,116.446991 341.471222,107.884125 326.048431,107.287178 
	C322.933197,107.166595 321.613586,105.626785 321.657593,102.539635 
	C321.740662,96.716072 321.751556,90.889404 321.657440,85.066208 
	C321.605713,81.865158 323.017883,80.636398 326.170380,80.647614 
	C344.090363,80.711403 359.142242,87.269615 371.467133,100.257896 
	C381.337769,110.659828 387.411377,123.503212 394.446716,135.727722 
	C397.364227,140.797226 400.820312,145.458466 404.840515,150.163452 
z"/>
</svg>