<svg version="1.1" id="Layer_1" xmlns="http://www.w3.org/2000/svg" xmlns:xlink="http://www.w3.org/1999/xlink" x="0px" y="0px"
	 width="100%" viewBox="0 0 512 512" enable-background="new 0 0 512 512" xml:space="preserve">
<path fill="#000000" opacity="1.000000" stroke="none" 
	d="
M269.661163,369.310028 
	C254.516785,350.486420 242.490219,330.265381 234.564728,307.756226 
	C233.091660,303.572540 230.623886,301.999420 226.342422,301.260895 
	C187.840363,294.619476 159.405121,262.369995 168.121033,219.149826 
	C173.641891,191.773087 197.797012,171.699738 225.917252,166.881012 
	C231.537888,165.917862 234.709030,163.939713 237.040970,158.329865 
	C248.773102,130.106354 265.917847,106.001717 292.013641,89.042152 
	C300.594055,83.465782 309.796967,79.332802 319.421387,76.029160 
	C321.397552,75.350845 323.335052,74.946114 324.471649,77.483238 
	C327.716003,84.725403 331.346924,91.805885 333.974823,99.566849 
	C328.254517,102.146980 322.755463,104.441460 317.418762,107.066078 
	C292.149109,119.493904 274.793884,139.441162 262.757629,164.527130 
	C260.670715,168.876694 263.146912,169.601639 266.186310,170.719864 
	C280.815552,176.102234 292.879547,185.112717 301.658508,197.901672 
	C321.486084,226.785904 313.335785,267.913361 284.400452,287.704071 
	C276.794373,292.906342 268.487244,296.543579 259.660431,299.790314 
	C264.524902,314.638123 271.769348,327.853607 280.882782,340.004700 
	C293.406189,356.702393 308.312408,370.803772 327.078796,380.406769 
	C329.907928,381.854462 329.969269,383.461639 328.329346,385.954987 
	C325.037048,390.960663 321.797760,396.019379 318.885773,401.250580 
	C316.950256,404.727631 315.067169,405.398071 311.399506,403.446411 
	C296.371368,395.449432 283.196228,385.220184 272.223053,372.183990 
	C271.472961,371.292847 270.678375,370.439148 269.661163,369.310028 
M270.334412,198.155441 
	C267.286163,195.506241 263.859100,193.531952 260.035095,192.206985 
	C254.996429,190.461166 253.875061,190.935883 252.874191,196.122833 
	C250.380966,209.043793 249.088699,222.099716 248.973770,235.261490 
	C248.861862,248.077911 249.522247,260.816071 252.126724,273.433350 
	C252.928619,277.318085 254.507568,277.974670 257.969635,276.815918 
	C262.957611,275.146423 267.503479,272.701630 271.119873,268.963959 
	C289.115601,250.364578 288.933838,216.964706 270.334412,198.155441 
M226.476318,204.160233 
	C227.112579,199.824997 227.748825,195.489761 228.398834,191.060852 
	C206.831635,192.244934 193.034668,212.081573 194.404495,240.031982 
	C195.390732,260.155884 210.750153,277.508148 227.383408,277.454895 
	C223.275574,253.339066 222.235092,229.198944 226.476318,204.160233 
z"/>
</svg>