<svg version="1.1" id="Layer_1" xmlns="http://www.w3.org/2000/svg" xmlns:xlink="http://www.w3.org/1999/xlink" x="0px" y="0px"
	 width="100%" viewBox="0 0 512 512" enable-background="new 0 0 512 512" xml:space="preserve">
<path fill="#000000" opacity="1.000000" stroke="none" 
	d="
M338.001404,346.247864 
	C317.395630,354.292114 297.394165,351.550079 277.649384,344.615662 
	C251.555939,335.451599 229.509323,319.727203 209.640961,300.915924 
	C185.062653,277.645264 164.872742,251.121460 152.890533,219.117432 
	C145.726669,199.983063 143.515182,180.241318 150.016220,160.457474 
	C156.124741,141.868179 172.259308,131.173721 191.845642,129.481842 
	C220.735352,126.986351 246.032364,136.326614 269.539673,151.517044 
	C311.153656,178.408066 343.065674,213.837631 361.615723,260.281036 
	C368.138733,276.612640 370.720154,293.689301 366.315002,311.118317 
	C362.321259,326.919861 353.520935,339.116272 338.001404,346.247864 
M337.610840,278.856293 
	C333.411194,261.203003 324.465973,245.808517 314.200745,231.200668 
	C300.108185,211.146454 282.973328,193.921738 262.840729,179.921783 
	C247.918762,169.545227 232.371628,160.290558 214.102173,156.645233 
	C189.805908,151.797379 175.029877,163.622147 175.434174,188.468689 
	C175.640762,201.164337 179.996262,212.923965 185.762604,224.094727 
	C204.173248,259.760529 230.792618,287.810211 265.073242,308.545258 
	C278.826752,316.864288 293.258087,323.665314 309.761383,324.371124 
	C319.659790,324.794464 328.138275,322.035919 333.930664,313.358246 
	C340.994751,302.775391 340.180573,291.335724 337.610840,278.856293 
z"/>
<path fill="#000000" opacity="1.000000" stroke="none" 
	d="
M238.763397,348.221252 
	C243.094681,351.459839 242.727341,353.841003 239.011917,357.410217 
	C223.785370,372.037659 208.840576,386.962524 193.989365,401.973145 
	C190.924927,405.070496 188.885406,405.381561 186.024124,401.966034 
	C181.764099,396.880737 177.205933,392.045135 173.139557,387.510254 
	C190.095901,370.759644 207.747086,353.322601 226.327057,334.968048 
	C229.718185,338.586731 234.116821,343.280548 238.763397,348.221252 
z"/>
<path fill="#000000" opacity="1.000000" stroke="none" 
	d="
M327.269226,157.269089 
	C340.268982,144.152466 353.019623,131.286743 365.831909,118.358780 
	C372.058289,124.917641 377.827057,130.994461 383.595856,137.071274 
	C384.304779,137.996536 382.930023,138.833542 381.908844,139.857620 
	C366.516663,155.293304 351.027100,170.633011 335.753143,186.184540 
	C332.775757,189.216003 330.908264,189.137527 328.192291,186.050201 
	C324.460754,181.808487 320.398773,177.847824 316.348663,173.899826 
	C314.196869,171.802307 314.214050,170.127350 316.395111,168.069626 
	C320.024139,164.645706 323.487122,161.045792 327.269226,157.269089 
z"/>
<path fill="#000000" opacity="1.000000" stroke="none" 
	d="
M283.109131,140.880249 
	C278.823883,136.926971 274.786774,133.223526 271.281219,130.007706 
	C271.832977,126.709358 273.544952,125.749954 274.791473,124.506233 
	C289.761871,109.569450 304.847687,94.747360 319.717896,79.711899 
	C322.912231,76.482086 325.181152,76.286682 328.259430,79.687256 
	C331.941559,83.754883 336.002625,87.480431 339.917145,91.336334 
	C341.463226,92.859253 342.597900,94.299530 340.548889,96.353798 
	C323.748932,113.196693 306.981873,130.072342 290.222626,146.920090 
	C286.950989,145.451645 285.450195,142.936691 283.109131,140.880249 
z"/>
<path fill="#000000" opacity="1.000000" stroke="none" 
	d="
M386.893738,219.893646 
	C382.844269,224.077209 379.044952,228.010910 375.657349,231.518341 
	C369.181854,225.174728 363.190674,219.305573 356.673065,212.920731 
	C356.614075,212.255524 357.902588,211.544785 358.803528,210.641525 
	C374.190948,195.213852 389.671844,179.878143 404.929138,164.323074 
	C407.897217,161.297089 409.746582,161.384583 412.510101,164.379669 
	C415.998505,168.160370 419.781647,171.706253 423.708344,175.034012 
	C427.012512,177.834183 427.105957,179.825348 423.870148,182.976303 
	C411.477448,195.044144 399.362488,207.397186 386.893738,219.893646 
z"/>
<path fill="#000000" opacity="1.000000" stroke="none" 
	d="
M137.770294,335.770447 
	C151.434418,322.095093 164.923737,308.743622 178.212402,295.195374 
	C181.143753,292.206787 183.067001,292.147125 185.818100,295.311829 
	C190.274719,300.438446 195.092499,305.251099 199.367554,309.782654 
	C181.754379,327.400787 164.394638,344.765381 146.761642,362.403320 
	C141.709457,357.575867 136.189194,352.308807 130.679062,347.031128 
	C129.147507,345.564148 129.371384,344.160828 130.821854,342.741730 
	C133.082611,340.529877 135.292068,338.265594 137.770294,335.770447 
z"/>
<path fill="#000000" opacity="1.000000" stroke="none" 
	d="
M143.482025,253.554871 
	C147.468994,257.588013 151.138458,261.446106 154.975922,265.129181 
	C157.157928,267.223419 157.676712,268.852509 155.232819,271.279816 
	C139.425079,286.980194 123.733299,302.797302 108.002373,318.575012 
	C106.804184,319.776764 105.522232,321.222382 103.819115,319.502228 
	C98.234703,313.862000 92.735970,308.136963 87.388611,302.634186 
	C104.844299,285.193207 122.211617,267.840515 139.713577,250.353287 
	C141.139908,250.704559 142.008606,252.234100 143.482025,253.554871 
z"/>
</svg>