<svg version="1.1" id="Layer_1" xmlns="http://www.w3.org/2000/svg" xmlns:xlink="http://www.w3.org/1999/xlink" x="0px" y="0px"
	 width="100%" viewBox="0 0 512 512" enable-background="new 0 0 512 512" xml:space="preserve">
<path fill="#000000" opacity="1.000000" stroke="none" 
	d="
M160.870819,400.350464 
	C159.347763,396.013977 160.601761,392.037384 160.599625,388.067383 
	C160.554794,304.595947 160.702103,221.124008 160.435852,137.653366 
	C160.382736,121.001381 160.285736,104.340675 160.125259,87.684700 
	C160.057755,80.678001 160.182449,80.669441 166.999039,80.657547 
	C172.830353,80.647369 178.667496,80.814491 184.490936,80.600609 
	C188.235748,80.463066 189.696854,81.970161 189.315933,85.582680 
	C189.229095,86.406303 189.310074,87.247375 189.310059,88.080421 
	C189.307770,190.045593 189.306351,292.010742 189.299942,393.975922 
	C189.299484,401.335297 189.279175,401.476501 182.008957,401.308411 
	C175.047623,401.147522 168.050583,402.096588 160.870819,400.350464 
z"/>
<path fill="#000000" opacity="1.000000" stroke="none" 
	d="
M353.870209,392.619202 
	C353.880737,394.377441 353.837646,395.711761 353.883667,397.043030 
	C353.992004,400.176422 352.647064,401.485077 349.388397,401.397644 
	C342.561401,401.214478 335.725677,401.268402 328.895050,401.349823 
	C325.969727,401.384674 324.559204,400.267365 324.704803,397.237335 
	C324.816681,394.910278 324.708466,392.572906 324.708374,390.240143 
	C324.703583,289.596771 324.699341,188.953400 324.697205,88.310028 
	C324.697052,80.665573 324.704590,80.662392 332.276855,80.657402 
	C339.084381,80.652916 345.891907,80.656456 352.300842,80.656456 
	C353.931030,82.294830 353.662964,83.879265 353.661102,85.318054 
	C353.605438,128.472244 353.477539,171.626373 353.439697,214.780579 
	C353.392944,268.091400 353.402710,321.402313 353.429413,374.713196 
	C353.432343,380.540161 353.707977,386.367035 353.870209,392.619202 
z"/>
<path fill="#000000" opacity="1.000000" stroke="none" 
	d="
M270.999878,183.364349 
	C255.348892,183.362305 240.196594,183.248428 225.047821,183.430130 
	C220.944687,183.479355 219.373764,182.150284 219.589539,178.000961 
	C219.857224,172.853607 219.866684,167.669891 219.584137,162.524048 
	C219.356262,158.373581 220.921646,156.990723 225.018845,157.022064 
	C242.999084,157.159576 260.982025,156.962097 278.961853,157.121689 
	C283.870270,157.165253 290.097961,154.848419 293.357178,158.438934 
	C296.307312,161.688950 294.302490,167.709290 294.290527,172.494263 
	C294.259155,185.070801 295.934875,183.164536 283.487305,183.354004 
	C279.492401,183.414825 275.495728,183.363617 270.999878,183.364349 
z"/>
<path fill="#000000" opacity="1.000000" stroke="none" 
	d="
M226.159088,217.097656 
	C247.117523,217.083725 267.598236,217.175262 288.076111,216.976059 
	C292.711060,216.930969 294.801849,218.135315 294.418091,223.143906 
	C294.024933,228.275299 294.218445,233.463654 294.371948,238.620621 
	C294.470337,241.925949 293.432495,243.413010 289.838043,243.394241 
	C268.026947,243.280258 246.214539,243.271820 224.403595,243.401047 
	C220.582703,243.423691 219.480255,241.876129 219.609253,238.346344 
	C219.791550,233.358032 219.916733,228.339645 219.573242,223.368179 
	C219.248245,218.664322 220.754883,216.380066 226.159088,217.097656 
z"/>
<path fill="#000000" opacity="1.000000" stroke="none" 
	d="
M293.510437,302.530365 
	C291.691833,303.028381 290.213501,303.321808 288.734741,303.323914 
	C267.593353,303.354218 246.451035,303.243652 225.311218,303.429260 
	C220.967682,303.467407 219.315155,302.173645 219.578766,297.746979 
	C219.894882,292.438751 219.766861,287.094269 219.614594,281.771698 
	C219.526962,278.708679 220.466568,277.099182 223.782227,277.103058 
	C245.922287,277.128937 268.062439,277.073700 290.202576,277.086975 
	C292.280823,277.088226 294.340790,277.444855 294.280396,280.275452 
	C294.124512,287.580170 294.920654,294.903809 293.510437,302.530365 
z"/>
</svg>