<svg version="1.1" id="Layer_1" xmlns="http://www.w3.org/2000/svg" xmlns:xlink="http://www.w3.org/1999/xlink" x="0px" y="0px"
	 width="100%" viewBox="0 0 512 512" enable-background="new 0 0 512 512" xml:space="preserve">
<path fill="#000000" opacity="1.000000" stroke="none" 
	d="
M309.872009,87.999512 
	C316.902069,90.306587 316.951813,90.323708 314.624237,97.087212 
	C309.426544,112.190445 304.233337,127.295860 298.890717,142.348022 
	C297.899506,145.140686 298.149933,147.006653 300.069366,149.503204 
	C311.011139,163.734756 312.975677,180.349808 310.788879,197.380676 
	C308.115326,218.202637 294.900085,231.982086 277.666595,242.318146 
	C273.804474,244.634491 271.661072,247.013046 272.119843,251.725189 
	C272.521637,255.852142 272.316101,260.051270 272.187164,264.212555 
	C272.090820,267.322235 273.145233,269.018311 276.491180,268.657379 
	C276.820404,268.621857 277.157166,268.652893 277.490356,268.658081 
	C295.704620,268.940460 295.570251,268.819489 308.344696,254.635574 
	C316.920380,245.113693 326.001007,236.048203 334.724823,226.656906 
	C336.845734,224.373749 338.304321,224.267929 340.317871,226.674377 
	C344.375061,231.523087 348.467529,236.358124 352.821594,240.936188 
	C355.173645,243.409225 354.568665,244.928696 352.501740,247.138535 
	C340.496582,259.974091 327.928741,272.036224 311.462402,279.145782 
	C309.955353,279.796478 308.594910,280.786713 306.365509,282.086029 
	C312.612671,285.305115 318.657837,287.498230 324.160950,290.779510 
	C335.662933,297.637604 344.202881,307.722351 353.605133,316.882416 
	C354.795959,318.042511 355.379456,319.249634 354.001648,320.755127 
	C348.630066,326.624451 343.297394,332.529419 339.209259,337.033844 
	C330.871613,329.558685 322.566895,322.424622 314.634247,314.898407 
	C308.721832,309.288910 303.252075,303.208405 297.669128,297.258881 
	C296.031830,295.514069 294.132355,294.946777 291.859192,294.967102 
	C287.194214,295.008789 282.515167,295.193695 277.867126,294.908447 
	C273.494812,294.640167 272.088074,296.274200 272.114594,300.654602 
	C272.269836,326.313232 272.173920,351.973358 272.167480,377.632996 
	C272.165985,383.631348 271.984589,389.638733 272.258118,395.624939 
	C272.452118,399.870239 271.168335,401.688782 266.631683,401.430725 
	C260.652588,401.090576 254.623962,401.076904 248.646362,401.428406 
	C243.894058,401.707886 242.725052,399.781250 242.745712,395.339996 
	C242.890579,364.182526 242.822250,333.024109 242.822647,301.865967 
	C242.822723,294.960327 242.812073,294.939758 235.870529,294.937988 
	C214.709671,294.932678 193.547974,294.834961 172.388565,295.009918 
	C167.571579,295.049744 165.304291,293.760773 165.738113,288.521515 
	C166.135452,283.722900 166.016785,278.852936 165.743057,274.036133 
	C165.506546,269.874573 167.112244,268.565796 171.212128,268.593628 
	C193.038483,268.741974 214.867752,268.529633 236.692642,268.760986 
	C241.521576,268.812164 242.505005,267.228516 243.016479,262.566956 
	C244.288101,250.977264 241.327530,243.103790 230.466965,236.549377 
	C216.714767,228.249847 207.453461,215.114426 205.266541,198.654785 
	C203.107239,182.403046 204.964920,166.409088 212.855774,151.658264 
	C214.214584,149.118164 214.144272,147.068848 213.307892,144.607910 
	C207.792328,128.379288 202.438034,112.094719 196.773544,95.918610 
	C195.262314,91.603020 196.059769,89.478477 200.636658,88.429764 
	C205.165436,87.392067 209.645935,85.992500 213.987564,84.332993 
	C218.045395,82.781967 220.131500,83.773056 221.154404,88.026802 
	C224.605560,102.378258 230.744263,116.074547 231.611862,131.061752 
	C231.657715,131.854187 232.108017,132.623199 232.459274,133.668747 
	C236.716141,133.946655 240.498489,131.848328 244.551025,131.320297 
	C246.595337,131.053940 246.644516,129.223999 246.225128,127.346558 
	C243.142303,113.546051 244.271744,99.520988 244.077759,85.564026 
	C244.029282,82.076942 245.250793,80.387886 249.053848,80.593689 
	C253.871735,80.854416 258.722778,80.830986 263.543762,80.600327 
	C267.282745,80.421440 268.541351,81.900612 268.385010,85.543106 
	C267.751862,100.294762 269.997162,115.190598 265.723999,130.222595 
	C270.171051,131.536774 274.392242,132.784210 279.437256,134.275116 
	C281.926666,116.879585 287.285065,100.542168 292.204620,83.686287 
	C298.410095,83.444740 303.698792,86.808510 309.872009,87.999512 
M233.193130,190.413025 
	C233.144913,203.670456 238.197937,214.625931 248.153244,223.318054 
	C254.522034,228.878754 259.698029,228.953400 266.553131,223.891006 
	C268.991241,222.090485 271.017242,219.942932 272.931580,217.622299 
	C285.471954,202.420395 284.499054,176.297256 275.428314,161.593689 
	C267.837982,149.289841 248.200974,149.325912 240.253433,161.392426 
	C234.643021,169.910553 232.927979,179.442276 233.193130,190.413025 
z"/>
</svg>