<svg version="1.1" id="Layer_1" xmlns="http://www.w3.org/2000/svg" xmlns:xlink="http://www.w3.org/1999/xlink" x="0px" y="0px"
	 width="100%" viewBox="0 0 512 512" enable-background="new 0 0 512 512" xml:space="preserve">
<path fill="#000000" opacity="1.000000" stroke="none" 
	d="
M273.132263,335.024597 
	C273.128540,347.510712 273.232452,359.503479 273.060211,371.492340 
	C273.005157,375.326630 274.200195,376.729431 278.197571,376.739197 
	C291.127991,376.770721 291.142365,376.916870 291.120697,389.737946 
	C291.098022,403.133911 291.956512,401.292114 279.726959,401.340912 
	C263.572266,401.405396 247.415451,401.227142 231.263275,401.438721 
	C226.824509,401.496826 225.328186,399.946259 225.583649,395.635162 
	C225.868866,390.821869 225.770416,385.976044 225.627213,381.150665 
	C225.534180,378.016235 226.628265,376.385345 229.923096,376.670685 
	C230.253372,376.699249 230.588928,376.670624 230.921906,376.663147 
	C243.720123,376.375977 243.722290,376.375885 243.729507,363.285858 
	C243.735931,351.627686 243.595840,339.966827 243.815353,328.312714 
	C243.894089,324.132507 242.395432,322.775879 238.306641,322.841766 
	C223.195602,323.085419 225.797409,322.913239 225.677155,310.284424 
	C225.558640,297.836975 225.666306,297.630707 237.910919,297.794159 
	C242.651871,297.857452 243.804474,296.146973 243.791046,291.679535 
	C243.663925,249.377319 243.726837,207.074524 243.742065,164.771896 
	C243.744583,157.766006 243.795303,157.718811 250.621155,157.701859 
	C256.450195,157.687378 262.282288,157.814743 268.107300,157.661835 
	C271.528595,157.572037 273.028198,159.101593 273.056488,162.361923 
	C273.081055,165.192886 273.077942,168.024124 273.079315,170.855240 
	C273.098541,210.826187 273.109650,250.797150 273.141266,290.768097 
	C273.146729,297.668976 273.187012,297.617798 280.110596,297.705841 
	C291.000793,297.844330 291.236908,295.533875 291.140594,308.739288 
	C291.041321,322.342377 291.098480,322.419495 277.913147,322.883057 
	C274.621399,322.998779 272.887634,324.002502 273.109314,327.537354 
	C273.254974,329.859497 273.134338,332.198364 273.132263,335.024597 
z"/>
<path fill="#000000" opacity="1.000000" stroke="none" 
	d="
M177.711441,156.148590 
	C189.294098,157.681305 189.247910,157.673828 187.434601,168.864929 
	C180.813644,209.727020 174.239014,250.596664 167.596161,291.455200 
	C167.175903,294.040222 167.605789,295.502869 170.518875,296.043091 
	C173.337509,296.565765 176.142242,296.607147 178.964371,296.725128 
	C182.137512,296.857758 184.023956,298.038086 183.490952,301.670837 
	C182.670425,307.263153 181.964890,312.873444 181.291000,318.485779 
	C180.980438,321.072174 179.614502,321.746521 177.166214,321.473999 
	C174.691757,321.198608 172.111633,321.642456 169.688263,321.185425 
	C164.406189,320.189270 162.262421,322.241028 161.537979,327.484406 
	C159.513092,342.139832 157.112289,356.744385 154.747116,371.350800 
	C154.287720,374.187866 155.318344,375.417450 158.013718,375.691895 
	C159.834686,375.877289 161.644516,376.173004 163.458527,376.425140 
	C170.726578,377.435211 170.770096,377.439087 170.248947,384.999054 
	C170.020432,388.314056 169.502029,391.608368 169.240082,394.921936 
	C168.770355,400.864105 167.867569,401.787292 161.757553,401.209869 
	C152.649979,400.349182 143.562180,399.279114 134.466187,398.296051 
	C125.372887,397.313263 116.285393,396.271637 107.183388,395.377686 
	C104.422226,395.106476 102.679085,394.234222 103.131569,391.092865 
	C103.960594,385.337402 104.905205,379.594940 105.558952,373.819580 
	C105.853584,371.216766 107.006203,370.410889 109.465561,370.590820 
	C112.946877,370.845428 116.464485,370.545746 119.904388,371.423309 
	C123.154518,372.252502 125.009560,370.928375 125.579994,367.639008 
	C128.219711,352.417450 130.875458,337.198669 133.534836,321.980499 
	C134.059219,318.979736 133.303238,317.418243 129.796448,317.142914 
	C125.520653,316.807159 120.222809,317.484009 117.316071,314.637390 
	C114.070770,311.459259 117.414299,306.547516 117.694130,302.389893 
	C118.535080,289.895081 118.613914,289.900421 131.270905,291.657501 
	C138.479156,292.658142 138.470184,292.656647 139.523636,286.402649 
	C142.585709,268.223938 145.632584,250.042633 148.728210,231.869614 
	C152.689606,208.614029 156.650223,185.358124 160.701065,162.118027 
	C162.115631,154.002502 162.485199,153.866989 170.837372,155.203644 
	C172.973785,155.545547 175.127792,155.777451 177.711441,156.148590 
z"/>
<path fill="#000000" opacity="1.000000" stroke="none" 
	d="
M332.975647,156.668945 
	C338.799347,155.776062 344.221558,154.968597 349.614624,153.999069 
	C353.015717,153.387665 354.877563,154.245773 355.474060,158.032898 
	C358.628326,178.058640 361.998383,198.050293 365.242828,218.061981 
	C368.992065,241.187195 372.715576,264.316681 376.376251,287.456024 
	C376.879669,290.638123 378.262085,292.315063 381.648438,291.878082 
	C384.779785,291.474030 387.916931,291.113831 391.053772,290.753967 
	C394.014679,290.414337 395.857086,291.488342 396.215912,294.676056 
	C396.829346,300.125153 397.490051,305.570007 398.224457,311.003998 
	C398.663391,314.251740 396.992737,315.562225 394.096069,315.983490 
	C390.181183,316.552765 386.272339,317.163727 382.035919,317.806091 
	C382.210175,326.948975 384.494049,335.494202 385.562714,344.179932 
	C386.515411,351.923309 388.211426,359.573822 389.225677,367.311676 
	C389.673004,370.724457 390.983978,371.956329 394.387299,371.582153 
	C410.461639,369.814636 407.872955,368.755157 409.313904,383.804321 
	C410.345093,394.573639 410.268677,394.849884 399.526459,396.148254 
	C383.676544,398.063995 367.764221,399.458405 351.903290,401.289917 
	C347.186768,401.834595 345.122986,400.002380 344.814026,395.488068 
	C344.496002,390.841705 344.060303,386.203278 343.668701,381.562042 
	C343.396149,378.331512 344.514557,376.651093 348.110535,376.546570 
	C351.410095,376.450653 354.690735,375.646301 357.975861,375.129639 
	C360.759155,374.691925 361.771179,373.495331 361.218323,370.330322 
	C358.587708,355.270172 356.059052,340.184631 353.967285,325.042725 
	C353.353729,320.601349 351.437592,319.668854 347.727112,320.514526 
	C344.441284,321.263397 341.105560,321.126465 337.794556,321.414337 
	C334.828156,321.672302 333.380157,320.394775 333.046967,317.645935 
	C332.346558,311.867371 331.625641,306.088104 331.112885,300.291443 
	C330.883972,297.703369 332.828125,296.960449 335.019318,296.752960 
	C338.330811,296.439392 341.638336,296.075348 344.954437,295.822357 
	C347.893616,295.598083 349.080292,294.193237 348.626801,291.214569 
	C347.451416,283.494507 346.448822,275.747864 345.249390,268.031708 
	C341.420013,243.397247 337.541504,218.770401 333.663025,194.143600 
	C332.085663,184.128143 330.377167,174.132446 328.904572,164.101898 
	C328.446991,160.985153 327.098267,157.049240 332.975647,156.668945 
z"/>
<path fill="#000000" opacity="1.000000" stroke="none" 
	d="
M266.706787,136.912323 
	C260.241180,136.904144 254.241776,136.911758 248.242584,136.878693 
	C245.349548,136.862747 243.022903,136.029388 242.237122,132.789719 
	C236.965042,111.053543 222.371796,102.898674 198.423660,102.968925 
	C176.846069,103.032242 164.034744,114.259407 156.173599,132.752838 
	C153.997299,137.872604 151.348938,138.617233 146.663589,136.906326 
	C141.514343,135.026001 136.239456,133.481964 130.991577,131.882385 
	C127.926529,130.948151 127.027802,129.162033 128.332809,126.226875 
	C137.423660,105.780388 150.029556,88.308586 172.163589,80.961716 
	C195.608795,73.179634 218.724121,74.552765 240.422592,87.564201 
	C247.022934,91.522079 251.890244,97.126060 255.596481,103.813683 
	C256.299377,105.082024 256.560333,106.698952 258.399933,107.559654 
	C261.393616,105.697800 262.464020,102.197418 264.373108,99.473495 
	C272.513580,87.858330 284.117798,81.883850 297.437378,78.747223 
	C310.757568,75.610474 324.157379,75.716873 337.514130,78.739471 
	C355.396088,82.786102 368.500519,93.522224 378.713531,108.266777 
	C382.232849,113.347580 385.212250,118.737648 387.658447,124.417389 
	C390.055481,129.982910 389.945435,130.480789 384.426544,132.329590 
	C378.910187,134.177536 373.271362,135.657379 367.735840,137.451691 
	C364.559387,138.481323 362.876831,137.570648 361.632965,134.409912 
	C357.790649,124.646370 352.326569,115.973534 343.503662,109.863403 
	C337.464600,105.681152 330.702545,103.462585 323.379486,103.344620 
	C316.243042,103.229683 309.125275,102.893196 301.990265,104.325104 
	C287.144745,107.304420 278.979004,116.931526 275.159576,130.770462 
	C273.911896,135.291229 271.770172,137.370636 266.706787,136.912323 
z"/>
</svg>