<svg version="1.1" id="Layer_1" xmlns="http://www.w3.org/2000/svg" xmlns:xlink="http://www.w3.org/1999/xlink" x="0px" y="0px"
	 width="100%" viewBox="0 0 512 512" enable-background="new 0 0 512 512" xml:space="preserve">
<path fill="#000000" opacity="1.000000" stroke="none" 
	d="
M247.000000,79.967331 
	C271.995514,79.962761 296.491058,79.943703 320.986572,79.962402 
	C328.180786,79.967896 328.352661,80.184746 328.357239,87.162537 
	C328.360413,91.994987 328.183441,96.836327 328.423035,101.656990 
	C328.605896,105.337097 327.376953,106.578682 323.578613,106.526688 
	C308.417511,106.319176 293.252045,106.407288 278.088257,106.429230 
	C271.805298,106.438324 271.320068,106.945068 271.317841,113.353104 
	C271.308777,139.514969 271.393616,165.677170 271.265076,191.838364 
	C271.243591,196.213058 272.536774,197.333313 277.067200,197.280991 
	C303.225067,196.978882 329.388184,197.057495 355.549042,197.149796 
	C361.481201,197.170731 362.237427,198.263031 362.239655,204.995132 
	C362.256653,256.652344 362.328552,308.309845 362.137299,359.966370 
	C362.118164,365.131653 363.464233,367.795715 368.594818,369.297638 
	C376.739166,371.681824 384.925354,373.806580 393.251129,375.364777 
	C397.822296,376.220306 398.890808,378.290039 397.357910,382.722900 
	C395.353363,388.519623 393.920410,394.522736 392.425171,400.483093 
	C391.709595,403.335571 390.283295,404.110474 387.381897,403.731659 
	C375.464630,402.175751 364.621552,397.370728 354.006653,392.291595 
	C322.365906,377.151917 296.658936,354.716766 276.784790,325.992706 
	C266.932495,311.753113 259.081177,296.219330 257.437531,278.390778 
	C257.314331,277.054230 257.400177,275.411194 255.587006,274.095490 
	C254.138794,285.245178 251.734299,295.827728 247.343399,305.921997 
	C235.806854,332.443390 217.287827,353.217682 194.706619,370.769196 
	C178.125763,383.656891 160.021881,393.689880 140.094910,400.321686 
	C135.701294,401.783875 131.035660,402.408508 126.565239,403.667267 
	C123.585114,404.506409 122.298820,403.484406 121.585274,400.629059 
	C120.093552,394.659668 118.361092,388.750702 116.748367,382.811218 
	C115.221764,377.188934 115.718987,376.204224 121.582458,375.092346 
	C129.605499,373.570892 137.384018,371.206879 145.157333,368.787384 
	C153.822769,366.090271 153.828232,366.098328 153.828598,357.050323 
	C153.830597,307.392731 153.829468,257.735107 153.833176,208.077515 
	C153.833984,197.149689 153.841110,197.093384 164.496109,197.111008 
	C189.155197,197.151794 213.814407,197.218430 238.472916,197.376495 
	C241.246765,197.394257 242.376404,196.589096 242.377167,193.698395 
	C242.382477,173.544006 242.472748,153.389481 242.597519,133.235382 
	C242.640808,126.243874 241.676865,119.278923 242.344925,112.262390 
	C242.736328,108.151421 240.632492,106.321449 236.327316,106.365105 
	C221.164948,106.518867 205.998459,106.313950 190.837433,106.524544 
	C186.826569,106.580254 185.482452,105.187225 185.642609,101.327881 
	C185.849716,96.337555 185.944519,91.314423 185.608932,86.337700 
	C185.278366,81.435516 187.362091,79.860680 192.011215,79.895409 
	C210.173309,80.031113 228.336945,79.960915 247.000000,79.967331 
M304.596344,318.929993 
	C312.259094,329.719238 320.749664,339.684937 331.881226,347.354156 
	C333.221771,345.003937 332.825317,343.135925 332.826447,341.347229 
	C332.849152,305.219055 332.825684,269.090881 332.846069,232.962723 
	C332.852356,221.817413 332.737244,223.777359 323.881439,223.812973 
	C308.403778,223.875214 292.923553,223.648300 277.446899,223.390396 
	C273.536194,223.325226 272.006500,224.337769 272.883789,228.611481 
	C274.483673,236.404968 274.649017,244.404556 276.256073,252.250748 
	C281.158112,276.184540 290.027435,298.360138 304.596344,318.929993 
M224.683350,289.239868 
	C225.766022,286.809540 226.929398,284.411530 227.918396,281.943665 
	C234.897385,264.528625 238.564621,246.336319 240.648117,227.763428 
	C241.032593,224.336090 239.606552,223.457184 236.398834,223.473312 
	C220.246216,223.554581 204.089798,223.620529 187.941360,223.326157 
	C183.127365,223.238388 182.036667,225.104523 182.051971,229.484924 
	C182.179382,265.960876 182.124100,302.437439 182.174881,338.913757 
	C182.177277,340.636566 181.532104,342.595886 183.153275,344.049591 
	C194.336487,338.515961 213.670578,313.099060 224.683350,289.239868 
z"/>
</svg>