<svg version="1.1" id="Layer_1" xmlns="http://www.w3.org/2000/svg" xmlns:xlink="http://www.w3.org/1999/xlink" x="0px" y="0px"
	 width="100%" viewBox="0 0 512 512" enable-background="new 0 0 512 512" xml:space="preserve">
<path fill="#000000" opacity="1.000000" stroke="none" 
	d="
M343.652344,91.653915 
	C347.568390,87.532516 351.285034,83.708458 354.904938,79.794876 
	C357.101471,77.420090 359.057556,76.826469 361.473877,79.618454 
	C365.397217,84.151848 369.479584,88.550385 373.574402,92.931496 
	C375.522888,95.016205 375.671997,96.932014 373.650269,99.013550 
	C363.903992,109.048294 354.482300,119.438171 342.927307,127.513153 
	C338.840118,130.369400 334.425232,132.627609 329.096924,133.868042 
	C331.485443,136.256882 334.466858,136.279892 336.921326,137.408936 
	C343.523193,140.445801 349.126068,144.979660 354.424316,149.749405 
	C360.976318,155.647827 366.952179,162.183502 373.235748,168.384247 
	C375.440857,170.560257 375.580017,172.398163 373.299500,174.721848 
	C369.452942,178.641235 365.658081,182.646301 362.216766,186.917694 
	C359.277161,190.566345 357.059570,189.964020 354.185913,186.900146 
	C343.700928,175.721069 332.867737,164.861221 322.602570,153.486877 
	C318.449982,148.885651 314.180328,146.895508 307.917389,147.139343 
	C295.227814,147.633438 295.201324,147.293411 295.203369,159.797562 
	C295.208069,188.792252 295.317474,217.787491 295.146271,246.781097 
	C295.119324,251.347794 296.427460,252.715820 301.053253,252.817947 
	C314.886139,253.123383 328.621765,254.485001 341.599579,259.898041 
	C358.469421,266.934448 366.987976,280.548645 371.392609,297.505524 
	C375.149719,311.969818 375.808044,326.752136 376.002594,341.555511 
	C376.236908,359.382690 375.974121,377.216309 376.193970,395.043854 
	C376.251068,399.674194 375.042542,401.766479 370.037048,401.432495 
	C364.396454,401.056122 358.708405,401.228851 353.047150,401.385284 
	C349.608063,401.480286 348.464294,400.247101 348.506378,396.705475 
	C348.700562,380.377411 349.027252,364.032990 348.508575,347.719757 
	C348.049744,333.289429 347.783020,318.734344 342.624329,304.879608 
	C337.824158,291.987915 328.853821,284.292847 315.407379,281.041962 
	C307.321198,279.087006 299.235352,279.010742 291.118317,278.992035 
	C241.794220,278.878235 192.469757,278.932007 143.145416,278.927551 
	C140.645950,278.927307 138.143997,278.973267 135.647491,278.881409 
	C129.704391,278.662689 128.839539,277.754303 128.777512,271.689209 
	C128.733200,267.357117 128.904572,263.018768 128.730865,258.693207 
	C128.551941,254.237610 130.300735,252.551224 134.908600,252.584625 
	C158.736343,252.757324 182.565994,252.665131 206.394989,252.659439 
	C213.771759,252.657669 213.804428,252.649216 213.806503,245.176468 
	C213.814957,214.682037 213.696396,184.186905 213.899750,153.693863 
	C213.933746,148.596024 212.214966,147.608124 207.346756,147.083862 
	C197.018112,145.971542 189.908783,149.704544 183.369934,157.580566 
	C174.768677,167.940765 164.892548,177.235413 155.724152,187.136002 
	C152.767563,190.328674 150.527039,190.550659 147.668808,187.070465 
	C144.183533,182.826797 140.401215,178.820694 136.640427,174.812195 
	C134.520081,172.552200 134.497910,170.664612 136.696396,168.384491 
	C144.905823,159.870209 152.897293,151.160004 162.414932,143.999954 
	C167.935760,139.846664 173.890488,136.677322 181.137985,134.385742 
	C161.958084,127.498695 149.745926,112.873253 136.665344,99.331329 
	C134.616043,97.209763 134.321777,95.139755 136.523071,92.807701 
	C140.410065,88.689812 144.273270,84.537369 147.919525,80.208260 
	C150.679092,76.931885 152.773422,77.299980 155.568268,80.289886 
	C166.828995,92.336464 178.335373,104.153374 189.597427,116.198723 
	C192.515030,119.319260 195.521637,120.844070 199.982651,120.822578 
	C236.641769,120.645927 273.302368,120.668060 309.961792,120.813919 
	C314.156891,120.830612 317.174927,119.617676 320.001404,116.543007 
	C327.665955,108.205376 335.590607,100.106850 343.652344,91.653915 
M241.208374,239.478653 
	C241.212021,242.308182 241.333923,245.143784 241.188812,247.965652 
	C241.014816,251.349030 242.338470,252.817734 245.837692,252.702896 
	C251.158066,252.528305 256.504395,252.406189 261.809845,252.738663 
	C266.400696,253.026367 267.950836,251.375000 267.890350,246.778687 
	C267.691162,231.635208 267.849945,216.487167 267.851471,201.340881 
	C267.853088,185.195953 267.716614,169.049744 267.897095,152.906967 
	C267.946320,148.504318 266.391418,146.961182 262.066254,147.221237 
	C257.256714,147.510391 252.388336,147.616623 247.597427,147.202484 
	C242.533676,146.764740 241.042847,148.513123 241.084259,153.599823 
	C241.314575,181.893250 241.201202,210.189468 241.208374,239.478653 
z"/>
<path fill="#000000" opacity="1.000000" stroke="none" 
	d="
M328.114075,392.917938 
	C328.085236,401.337799 328.085236,401.340332 320.196564,401.347595 
	C315.367615,401.352051 310.533386,401.208344 305.711456,401.392059 
	C302.026978,401.532379 300.420288,400.590302 300.492828,396.369843 
	C300.767578,380.388977 300.619049,364.400879 300.628479,348.415466 
	C300.631134,343.903595 300.033966,339.478394 298.978668,335.085144 
	C297.727539,329.876617 294.841614,327.049622 289.204987,327.058594 
	C268.392822,327.091766 247.580399,326.985229 226.768112,326.920563 
	C223.938446,326.911774 221.106979,326.894653 218.279968,326.786713 
	C215.532501,326.681885 213.911057,325.272949 213.889420,322.426178 
	C213.843842,316.432556 213.867783,310.438416 213.850098,304.444550 
	C213.841904,301.665314 215.345840,300.667725 217.964249,300.672546 
	C244.273102,300.721191 270.602112,300.116302 296.884277,300.967072 
	C316.286957,301.595184 326.531189,313.938446 327.467560,333.514771 
	C328.407227,353.161041 327.757385,372.795410 328.114075,392.917938 
z"/>
</svg>