<svg version="1.1" id="Layer_1" xmlns="http://www.w3.org/2000/svg" xmlns:xlink="http://www.w3.org/1999/xlink" x="0px" y="0px"
	 width="100%" viewBox="0 0 512 514" enable-background="new 0 0 512 514" xml:space="preserve">
<path fill="#FFFFFF" opacity="1.000000" stroke="none" 
	d="
M241.000000,515.000000 
	C160.686111,515.000000 80.872208,515.000000 1.029157,515.000000 
	C1.029157,343.727814 1.029157,172.455643 1.029157,1.091733 
	C171.563919,1.091733 342.127899,1.091733 512.845947,1.091733 
	C512.845947,172.333221 512.845947,343.666595 512.845947,515.000000 
	C422.455597,515.000000 331.977814,515.000000 241.000000,515.000000 
M237.500000,401.002930 
	C267.490356,401.002930 297.480957,400.942230 327.470703,401.078827 
	C331.270111,401.096100 333.874329,400.079102 336.418793,397.121033 
	C353.786743,376.929993 371.363678,356.918823 388.854797,336.833588 
	C402.845856,320.767548 416.823303,304.689545 430.768616,288.583801 
	C432.195038,286.936371 434.349670,285.471863 431.611084,282.824158 
	C426.490967,277.873901 421.674103,272.609955 415.131042,265.814850 
	C414.092468,267.957001 413.672546,269.542603 412.716736,270.676331 
	C407.030243,277.421387 401.076111,283.945404 395.521729,290.794952 
	C393.299622,293.535217 390.935852,294.579681 387.473846,294.575623 
	C323.660553,294.500610 259.847046,294.560120 196.034164,294.382843 
	C193.405670,294.375549 190.146255,292.987213 188.257599,291.140839 
	C172.534622,275.769653 156.987000,260.215485 141.621658,244.486771 
	C139.797668,242.619644 138.467896,239.374725 138.458160,236.762695 
	C138.273193,187.112244 138.326080,137.460922 138.303543,87.809792 
	C138.302582,85.703735 138.050827,83.597801 137.880447,80.938194 
	C130.844894,80.938194 124.190887,81.246986 117.581200,80.838562 
	C112.474556,80.523003 111.081680,82.290924 111.088158,87.329086 
	C111.220032,189.963486 111.215546,292.598114 111.091537,395.232544 
	C111.085915,399.887054 112.445274,401.123108 117.037788,401.103210 
	C156.857925,400.930664 196.679123,401.003265 237.500000,401.002930 
z"/>
<path fill="#030303" opacity="1.000000" stroke="none" 
	d="
M237.000000,401.002930 
	C196.679123,401.003265 156.857925,400.930664 117.037788,401.103210 
	C112.445274,401.123108 111.085915,399.887054 111.091537,395.232544 
	C111.215546,292.598114 111.220032,189.963486 111.088158,87.329086 
	C111.081680,82.290924 112.474556,80.523003 117.581200,80.838562 
	C124.190887,81.246986 130.844894,80.938194 137.880447,80.938194 
	C138.050827,83.597801 138.302582,85.703735 138.303543,87.809792 
	C138.326080,137.460922 138.273193,187.112244 138.458160,236.762695 
	C138.467896,239.374725 139.797668,242.619644 141.621658,244.486771 
	C156.987000,260.215485 172.534622,275.769653 188.257599,291.140839 
	C190.146255,292.987213 193.405670,294.375549 196.034164,294.382843 
	C259.847046,294.560120 323.660553,294.500610 387.473846,294.575623 
	C390.935852,294.579681 393.299622,293.535217 395.521729,290.794952 
	C401.076111,283.945404 407.030243,277.421387 412.716736,270.676331 
	C413.672546,269.542603 414.092468,267.957001 415.131042,265.814850 
	C421.674103,272.609955 426.490967,277.873901 431.611084,282.824158 
	C434.349670,285.471863 432.195038,286.936371 430.768616,288.583801 
	C416.823303,304.689545 402.845856,320.767548 388.854797,336.833588 
	C371.363678,356.918823 353.786743,376.929993 336.418793,397.121033 
	C333.874329,400.079102 331.270111,401.096100 327.470703,401.078827 
	C297.480957,400.942230 267.490356,401.002930 237.000000,401.002930 
M340.632324,353.126678 
	C350.825104,341.427368 361.017883,329.728088 371.766083,317.391266 
	C369.834076,317.282104 369.019653,317.127533 368.229218,317.208099 
	C359.991760,318.047791 351.762207,319.626587 343.522736,319.674744 
	C300.381104,319.927094 257.236969,319.856567 214.094376,319.700867 
	C209.647614,319.684845 208.355209,321.126404 208.407532,325.391083 
	C208.589355,340.214111 208.459732,355.040741 208.496292,369.865906 
	C208.500626,371.628540 208.799194,373.390411 208.954529,375.078094 
	C210.161545,375.265656 210.813019,375.455414 211.464493,375.455414 
	C246.944839,375.454773 282.425446,375.484802 317.904877,375.298096 
	C319.868744,375.287811 322.303040,373.912140 323.697723,372.410034 
	C329.355103,366.316895 334.691711,359.925903 340.632324,353.126678 
M138.303177,340.499817 
	C138.298096,350.820679 138.460663,361.145874 138.194946,371.460022 
	C138.104660,374.964874 139.257111,375.584320 142.459030,375.528595 
	C153.775345,375.331512 165.099823,375.312744 176.415161,375.534760 
	C179.672745,375.598663 180.693512,374.957825 180.640427,371.482208 
	C180.414230,356.670197 180.286606,341.846741 180.656387,327.040802 
	C180.787933,321.774414 179.171936,318.254364 175.479797,314.522949 
	C162.892151,301.801361 148.771271,290.375183 139.913742,274.333649 
	C139.842728,274.204987 139.334702,274.317657 138.303177,274.317657 
	C138.303177,296.033966 138.303177,317.766876 138.303177,340.499817 
z"/>
<path fill="#FEFEFE" opacity="1.000000" stroke="none" 
	d="
M340.389465,353.385742 
	C334.691711,359.925903 329.355103,366.316895 323.697723,372.410034 
	C322.303040,373.912140 319.868744,375.287811 317.904877,375.298096 
	C282.425446,375.484802 246.944839,375.454773 211.464493,375.455414 
	C210.813019,375.455414 210.161545,375.265656 208.954529,375.078094 
	C208.799194,373.390411 208.500626,371.628540 208.496292,369.865906 
	C208.459732,355.040741 208.589355,340.214111 208.407532,325.391083 
	C208.355209,321.126404 209.647614,319.684845 214.094376,319.700867 
	C257.236969,319.856567 300.381104,319.927094 343.522736,319.674744 
	C351.762207,319.626587 359.991760,318.047791 368.229218,317.208099 
	C369.019653,317.127533 369.834076,317.282104 371.766083,317.391266 
	C361.017883,329.728088 350.825104,341.427368 340.389465,353.385742 
z"/>
<path fill="#FAFAFA" opacity="1.000000" stroke="none" 
	d="
M138.303177,339.999786 
	C138.303177,317.766876 138.303177,296.033966 138.303177,274.317657 
	C139.334702,274.317657 139.842728,274.204987 139.913742,274.333649 
	C148.771271,290.375183 162.892151,301.801361 175.479797,314.522949 
	C179.171936,318.254364 180.787933,321.774414 180.656387,327.040802 
	C180.286606,341.846741 180.414230,356.670197 180.640427,371.482208 
	C180.693512,374.957825 179.672745,375.598663 176.415161,375.534760 
	C165.099823,375.312744 153.775345,375.331512 142.459030,375.528595 
	C139.257111,375.584320 138.104660,374.964874 138.194946,371.460022 
	C138.460663,361.145874 138.298096,350.820679 138.303177,339.999786 
z"/>
</svg>