<svg version="1.1" id="Layer_1" xmlns="http://www.w3.org/2000/svg" xmlns:xlink="http://www.w3.org/1999/xlink" x="0px" y="0px"
	 width="100%" viewBox="0 0 512 512" enable-background="new 0 0 512 512" xml:space="preserve">
<path fill="#000000" opacity="1.000000" stroke="none" 
	d="
M303.265137,378.000000 
	C303.270233,384.499390 303.147217,390.502625 303.326904,396.496796 
	C303.437836,400.197571 301.933014,401.526703 298.299408,401.419556 
	C291.972046,401.232941 285.630676,401.208374 279.304443,401.408569 
	C275.353271,401.533600 273.869446,399.741669 273.924286,396.063232 
	C273.971466,392.897644 273.933716,389.730774 273.933624,386.564484 
	C273.930847,288.740234 273.928101,190.916000 273.925354,93.091759 
	C273.925323,92.258507 273.924408,91.425247 273.926147,90.591995 
	C273.946777,80.628929 273.947418,80.553810 283.723846,80.620834 
	C297.026764,80.712029 310.370911,79.865295 323.538483,82.822517 
	C339.444153,86.394653 351.461700,95.651459 361.339691,108.145172 
	C368.596375,117.323456 374.160339,127.609306 380.487610,137.397430 
	C385.263184,144.785248 390.062500,152.206268 398.465393,156.344543 
	C406.540100,160.321228 406.442047,160.531021 403.562408,169.577255 
	C402.906616,171.637344 402.193298,173.679062 401.530487,175.736969 
	C398.733459,184.421173 398.409546,184.447815 389.564240,181.650772 
	C373.528473,176.580017 363.666779,164.766495 355.451813,151.038834 
	C349.814758,141.618988 345.332062,131.500900 338.212463,122.976135 
	C331.119812,114.483665 322.624390,108.545181 311.310638,107.363235 
	C303.906403,106.589714 303.277496,107.114494 303.277069,114.524231 
	C303.271820,202.182816 303.268616,289.841400 303.265137,378.000000 
z"/>
<path fill="#000000" opacity="1.000000" stroke="none" 
	d="
M113.522949,138.601807 
	C134.521744,120.078171 155.241379,101.782150 176.015961,83.548744 
	C182.223633,78.100418 198.225693,78.223747 204.412888,83.659210 
	C224.682617,101.466187 244.878479,119.358009 265.251099,137.046341 
	C268.599365,139.953445 268.817047,142.061539 265.734497,145.154617 
	C261.152435,149.752319 256.773071,154.558685 252.440964,159.395828 
	C250.462662,161.604782 248.715271,161.791031 246.567886,159.744705 
	C228.518005,142.544189 207.849945,128.046112 192.805756,107.752655 
	C190.638809,104.829605 189.056015,105.165558 187.069031,107.802544 
	C172.091705,127.679260 151.875534,142.192413 134.231033,159.340393 
	C131.903000,161.602905 129.894608,161.805771 127.550255,159.113419 
	C123.177261,154.091354 118.525734,149.312637 114.033295,144.393219 
	C112.548500,142.767319 110.968422,141.051147 113.522949,138.601807 
z"/>
</svg>