<svg version="1.1" id="Layer_1" xmlns="http://www.w3.org/2000/svg" xmlns:xlink="http://www.w3.org/1999/xlink" x="0px" y="0px"
	 width="100%" viewBox="0 0 512 512" enable-background="new 0 0 512 512" xml:space="preserve">
<path fill="#000000" opacity="1.000000" stroke="none" 
	d="
M149.683350,83.681816 
	C152.430695,80.980339 155.111221,78.685608 157.378601,76.037186 
	C159.966476,73.014458 161.926514,73.324371 164.761734,75.911415 
	C180.145615,89.948708 195.974472,103.510010 209.999893,118.974251 
	C210.660431,119.702560 211.439423,120.323456 212.326431,121.145645 
	C217.551758,118.804283 221.802643,115.002274 226.780167,112.362534 
	C250.860962,99.591759 273.882172,102.427750 296.267517,116.489708 
	C303.189972,120.838234 303.220825,121.033760 309.040680,114.931480 
	C322.400818,100.923027 337.276062,88.530327 351.209656,75.136330 
	C353.134827,73.285721 354.872253,72.429008 357.133942,74.693161 
	C362.197571,79.762314 367.361115,84.731720 372.484863,89.740799 
	C375.749176,92.932091 372.484558,94.510208 370.673553,96.025520 
	C356.089783,108.228264 342.426971,121.415695 328.855621,134.709167 
	C321.981476,141.442581 322.022339,141.341400 326.738892,149.598587 
	C347.233429,185.477997 344.047882,220.291901 321.567719,253.987381 
	C318.968048,257.884033 318.714630,260.665894 321.051636,264.678345 
	C344.007080,304.090759 362.789673,345.425140 377.834229,388.485382 
	C379.298767,392.677216 378.880524,394.793579 374.573761,396.378296 
	C368.797577,398.503723 363.095917,400.915344 357.587555,403.656738 
	C353.671722,405.605560 352.122253,404.570129 350.822601,400.635773 
	C342.928101,376.737732 333.711487,353.333496 323.609131,330.292267 
	C315.787659,312.453156 307.131409,295.008575 297.206116,277.334473 
	C285.108124,285.346466 272.279236,291.098572 257.722626,291.060272 
	C243.319977,291.022400 230.373901,286.138733 218.524063,276.997345 
	C195.179977,318.206451 177.300140,360.907288 162.831772,405.781158 
	C154.021011,401.922394 145.952438,398.442261 137.936249,394.845398 
	C135.521027,393.761658 136.583878,391.855957 137.186234,390.123505 
	C144.080032,370.295044 151.647934,350.733093 160.088211,331.506348 
	C170.614349,307.527985 182.607864,284.298889 195.705841,261.639679 
	C197.352921,258.790253 197.331924,256.775116 195.488647,253.998856 
	C185.107483,238.363113 178.065201,221.482101 177.035187,202.457611 
	C176.061646,184.476379 180.632935,167.836914 189.106522,152.147232 
	C194.275757,142.575867 194.467941,142.469620 186.616013,135.103668 
	C172.519989,121.880074 158.245667,108.846611 144.060959,95.717361 
	C143.097870,94.825928 142.261032,93.798080 141.219986,92.677010 
	C143.506256,89.189491 146.765945,86.828217 149.683350,83.681816 
M232.330795,261.345520 
	C249.680542,268.136292 266.969482,268.045105 284.234100,260.980225 
	C287.740936,259.545166 288.856506,257.859833 286.395538,254.296570 
	C279.783661,244.723206 273.566589,234.876678 266.929321,225.321594 
	C264.134247,221.297760 261.659210,216.934570 257.778839,213.519089 
	C257.078766,214.128479 256.484711,214.473557 256.125031,214.983826 
	C246.836884,228.162186 237.738983,241.466507 229.109253,255.091919 
	C226.808289,258.724884 229.319229,259.711578 232.330795,261.345520 
M295.286560,225.255112 
	C298.097595,229.106812 300.908661,232.958511 304.291260,237.593338 
	C314.157959,211.012543 315.171875,185.602554 303.353455,159.652939 
	C292.257477,170.240829 282.639496,181.221252 272.826141,192.019821 
	C270.675232,194.386673 272.310028,196.039719 273.578247,197.663162 
	C280.636932,206.698807 287.783722,215.665634 295.286560,225.255112 
M208.962692,228.553864 
	C209.767929,230.972122 209.898254,233.755844 212.634689,235.568176 
	C222.962982,222.239990 233.128525,209.107071 243.317963,195.992706 
	C244.516968,194.449524 243.889984,193.225998 242.868164,191.987961 
	C233.566193,180.717758 222.969894,170.693237 212.588913,159.922852 
	C211.966690,161.303009 211.529617,162.186874 211.165283,163.099777 
	C210.548813,164.644531 209.919128,166.188080 209.397446,167.765991 
	C202.806168,187.702362 204.121902,207.735184 208.962692,228.553864 
M254.302307,172.158325 
	C255.413040,173.312820 256.024597,175.063309 258.193909,175.293732 
	C268.142883,163.488556 278.152435,151.611511 288.152039,139.746292 
	C270.930420,124.249908 237.942581,127.601173 227.640030,140.335983 
	C236.374313,150.744034 245.126053,161.172882 254.302307,172.158325 
z"/>
</svg>