<svg version="1.1" id="Layer_1" xmlns="http://www.w3.org/2000/svg" xmlns:xlink="http://www.w3.org/1999/xlink" x="0px" y="0px"
	 width="100%" viewBox="0 0 512 512" enable-background="new 0 0 512 512" xml:space="preserve">
<path fill="#000000" opacity="1.000000" stroke="none" 
	d="
M374.799316,260.106934 
	C368.335541,248.225006 362.101990,236.645584 354.046265,226.158951 
	C339.822479,207.643036 309.658478,207.378387 295.120422,225.726990 
	C289.061127,233.374481 289.408966,242.192505 291.031982,250.985901 
	C293.891510,266.478577 300.497559,280.739502 306.365234,295.216888 
	C315.552856,317.885529 324.981598,340.456604 334.122559,363.143860 
	C337.249817,370.905548 338.502991,379.161591 339.085815,387.493561 
	C340.086365,401.797607 330.056000,412.075592 313.983704,413.220520 
	C312.157990,413.350555 310.319366,413.327423 308.486725,413.327942 
	C266.991760,413.340332 225.495621,413.174957 184.002457,413.453613 
	C170.952667,413.541260 161.913956,408.264343 156.777542,396.409454 
	C148.704803,377.777557 140.828537,359.060577 132.769638,340.422638 
	C125.768692,324.231415 118.865280,308.011871 113.840935,291.062805 
	C111.114006,281.863831 110.092247,272.488098 110.707077,262.933655 
	C111.024498,258.000885 113.014420,253.579773 115.337929,249.327621 
	C127.349930,227.345016 156.203568,217.259903 175.142136,225.428574 
	C185.260757,229.792984 191.929810,237.834320 197.480560,246.860764 
	C209.988525,267.200806 219.114014,289.247040 229.274185,310.768616 
	C229.771362,311.821777 230.238205,312.889160 230.728836,313.945435 
	C234.552933,322.178528 232.821213,325.278870 223.724365,327.006836 
	C220.451599,327.628479 219.710175,325.364868 218.722168,323.297943 
	C212.400299,310.072052 205.818634,296.977753 198.329117,284.371155 
	C193.955978,277.010132 189.079498,269.928986 180.540619,266.847137 
	C166.870529,261.913300 148.551682,267.006073 140.876099,278.932251 
	C136.399139,285.888458 136.687271,293.540009 137.807999,301.168488 
	C139.961258,315.825317 145.813202,329.272430 151.997101,342.579865 
	C155.711441,350.572937 159.360306,358.597015 163.143936,366.557098 
	C166.215042,373.018127 170.924133,375.942505 178.586334,375.878937 
	C219.411972,375.540131 260.243439,375.517273 301.069305,375.839752 
	C312.543854,375.930389 316.087738,370.554291 312.577454,360.026917 
	C303.775726,333.630310 292.011261,308.406891 281.576233,282.656342 
	C274.644348,265.550476 267.047882,248.693161 262.958984,230.560471 
	C255.813904,198.874954 272.135712,178.663040 300.487335,170.806091 
	C328.996552,162.905457 346.545166,175.606155 361.341217,198.164627 
	C374.815369,218.707611 384.942413,241.031708 395.099854,263.316589 
	C399.724060,273.461884 404.170593,283.689850 408.926575,293.772400 
	C410.540894,297.194702 409.616364,298.815552 406.390594,300.282898 
	C397.017487,304.546539 397.085754,304.621185 392.431305,295.287567 
	C386.632660,283.659668 380.781982,272.057678 374.799316,260.106934 
z"/>
</svg>