<svg version="1.1" id="Layer_1" xmlns="http://www.w3.org/2000/svg" xmlns:xlink="http://www.w3.org/1999/xlink" x="0px" y="0px"
	 width="100%" viewBox="0 0 512 512" enable-background="new 0 0 512 512" xml:space="preserve">
<path fill="#000000" opacity="1.000000" stroke="none" 
	d="
M211.350739,292.766998 
	C213.047028,320.161652 214.349289,347.096649 214.426956,374.080475 
	C214.438934,378.238220 215.364334,382.463379 214.873260,386.537537 
	C213.943695,394.249847 207.627472,390.057739 203.718857,390.734100 
	C200.743073,391.248993 196.568542,391.850006 196.733017,386.383240 
	C196.818161,383.553223 196.698441,380.717712 196.726929,377.885254 
	C197.020355,348.724426 195.571243,319.599182 194.449600,290.481812 
	C193.765228,272.715881 193.038025,254.900360 190.876999,237.204330 
	C190.528519,234.350739 189.871033,231.342621 193.317474,229.266190 
	C196.754562,227.195404 198.916519,229.253571 201.439606,230.794037 
	C234.457764,250.953110 268.557739,253.704788 303.736267,236.874664 
	C310.183655,233.790131 316.308136,230.028122 322.564453,226.547928 
	C327.027954,224.065033 327.970062,224.406540 328.370148,229.550293 
	C329.247040,240.824905 329.813232,252.123627 330.678925,263.399231 
	C330.893158,266.189697 329.147003,267.228821 327.333588,268.399933 
	C313.500183,277.333649 298.186035,282.098999 282.001312,284.282684 
	C257.337585,287.610413 235.233887,280.794647 214.887802,267.129395 
	C213.698517,266.330627 212.742737,264.979279 210.639145,265.147095 
	C209.319077,274.219147 211.818085,283.239380 211.350739,292.766998 
z"/>
<path fill="#000000" opacity="1.000000" stroke="none" 
	d="
M229.266113,368.744141 
	C228.069016,367.558075 227.093292,366.649139 226.179840,365.681427 
	C218.903946,357.973236 218.909912,355.295197 225.911850,347.418640 
	C227.384064,345.762512 228.740891,345.454437 230.692322,346.441193 
	C261.794769,362.167603 291.512177,357.238312 320.415314,340.363922 
	C322.283356,339.273285 324.144318,338.167603 326.045624,337.137329 
	C329.995239,334.997101 331.503357,335.577606 331.939819,340.116730 
	C332.909363,350.199982 333.518097,360.317719 334.306244,370.418854 
	C334.481659,372.667633 333.639771,374.154572 331.615265,375.246857 
	C308.056946,387.957031 283.509979,393.361389 257.159088,385.368286 
	C246.625122,382.172974 237.420364,376.664093 229.266113,368.744141 
z"/>
</svg>