<svg version="1.1" id="Layer_1" xmlns="http://www.w3.org/2000/svg" xmlns:xlink="http://www.w3.org/1999/xlink" x="0px" y="0px"
	 width="100%" viewBox="0 0 512 512" enable-background="new 0 0 512 512" xml:space="preserve">
<path fill="#000000" opacity="1.000000" stroke="none" 
	d="
M132.381195,238.342743 
	C120.234520,259.825317 111.080055,282.349915 101.024170,304.139221 
	C100.155785,304.206573 99.800766,304.329773 99.507805,304.243134 
	C86.677574,300.447784 86.622536,300.421722 91.792381,288.312408 
	C102.906166,262.280579 113.090973,235.844406 125.674652,210.451202 
	C128.861450,204.020401 132.511276,197.866501 136.532043,191.931946 
	C149.996155,172.059341 167.058029,166.320770 191.381668,171.246399 
	C217.861908,176.608719 227.962753,198.585968 224.799667,223.825058 
	C220.918732,254.792145 211.515854,284.521393 203.830231,314.629822 
	C199.881607,330.098541 195.602966,345.487854 191.942001,361.023468 
	C189.395401,371.830109 192.627548,375.707855 203.624130,375.731781 
	C239.115387,375.808990 274.607056,375.777466 310.098358,375.694550 
	C318.933746,375.673889 321.207123,373.397522 320.640778,364.593323 
	C319.888550,352.899078 315.948883,341.827362 313.120209,330.558868 
	C304.740234,297.176117 295.873291,263.913910 287.693512,230.482986 
	C278.859406,194.377747 303.371155,175.373230 328.971344,170.661224 
	C348.881287,166.996582 364.639709,173.361664 376.254395,190.009369 
	C387.587311,206.253220 395.146881,224.434784 403.042847,242.411880 
	C410.608185,259.636292 417.546844,277.135101 424.968781,294.424072 
	C426.473938,297.930267 425.625519,299.407898 422.298889,300.768555 
	C410.692657,305.515656 413.272614,306.135193 408.318817,295.332153 
	C397.910889,272.635010 388.602234,249.381119 374.987549,228.285355 
	C362.358551,208.716904 334.485931,206.639389 318.795288,224.064880 
	C311.511108,232.154510 311.397156,241.923737 312.813873,251.874161 
	C316.411804,277.145172 324.421173,301.361481 330.744476,325.980255 
	C335.293243,343.690277 340.867584,361.130249 344.712494,379.026184 
	C345.811371,384.140686 345.789948,389.350952 345.132416,394.439880 
	C343.822998,404.574310 336.933838,409.643799 327.650513,411.879791 
	C323.960724,412.768494 320.172363,413.359528 316.295715,413.354126 
	C276.138336,413.298248 235.980850,413.311462 195.823380,413.322418 
	C191.285080,413.323669 186.865646,412.578094 182.569168,411.211548 
	C170.488480,407.369171 166.282318,399.587463 167.258774,386.510223 
	C168.389084,371.372253 173.174835,356.905426 177.219299,342.335876 
	C184.560410,315.890503 191.923874,289.450470 199.041199,262.944611 
	C200.626755,257.039734 201.462387,250.950119 201.793579,244.745926 
	C202.703384,227.702499 192.468842,218.803116 180.973557,214.803375 
	C165.065094,209.268143 148.754440,211.787491 138.408676,228.722366 
	C136.499542,231.847412 134.503250,234.919235 132.381195,238.342743 
z"/>
</svg>