<svg version="1.1" id="Layer_1" xmlns="http://www.w3.org/2000/svg" xmlns:xlink="http://www.w3.org/1999/xlink" x="0px" y="0px"
	 width="100%" viewBox="0 0 512 512" enable-background="new 0 0 512 512" xml:space="preserve">
<path fill="#000000" opacity="1.000000" stroke="none" 
	d="
M306.778259,197.703278 
	C308.714874,196.365448 310.347290,195.208939 312.044464,194.156906 
	C323.832611,186.849899 335.062592,188.616257 344.196075,198.962921 
	C352.544312,208.419998 358.578308,219.353348 364.292450,230.439392 
	C370.695709,242.862396 376.509979,255.587692 382.759064,268.092224 
	C384.718048,272.012177 384.004089,273.932709 379.770996,275.519897 
	C354.009735,285.178589 329.300293,297.121552 305.552155,310.977753 
	C299.230957,314.665924 294.490479,314.402893 288.530487,309.829987 
	C273.373932,298.200806 257.986053,286.820648 241.404099,277.211853 
	C230.225967,270.734436 218.771179,267.133331 206.588654,274.510254 
	C199.162537,279.007019 192.426346,284.461914 186.269577,290.583435 
	C173.040619,303.736633 159.787079,316.867584 146.748138,330.207581 
	C143.531372,333.498627 141.205902,334.077454 137.713547,330.650421 
	C130.360397,323.434845 122.696503,316.535950 114.547478,308.935699 
	C118.871597,304.500366 123.156586,300.198212 127.338722,295.798340 
	C140.871292,281.561188 154.103043,267.019287 169.011459,254.167542 
	C174.583740,249.363968 180.515976,245.037155 187.915344,243.418655 
	C192.083832,242.506851 193.411545,238.882553 195.318405,235.866089 
	C204.300369,221.657578 213.462021,207.570862 225.521133,195.705963 
	C232.039047,189.292999 239.512787,184.260284 249.007111,183.733414 
	C260.407867,183.100739 268.407440,189.586655 275.512909,197.394791 
	C280.181763,202.525330 284.529816,207.947815 289.453827,213.748840 
	C295.036438,207.942764 300.525330,202.658096 306.778259,197.703278 
M334.706421,223.393814 
	C327.674835,222.061035 322.034943,225.223907 316.750763,229.171936 
	C310.614349,233.756653 304.822052,238.781036 299.615692,244.406937 
	C296.878998,247.364166 295.119324,247.267471 292.645172,243.927948 
	C286.796082,236.033142 280.319031,228.638596 273.071777,221.964905 
	C267.412292,216.753326 261.183136,215.628998 255.831192,219.366730 
	C244.464493,227.305038 238.062958,239.139618 230.922882,251.024460 
	C248.787170,260.901733 265.185822,271.869781 281.320587,283.241547 
	C283.582581,284.835785 285.542114,284.174774 287.772858,282.996338 
	C302.478333,275.227905 316.782867,266.677429 332.166473,260.224518 
	C339.620361,257.097839 347.015808,253.831894 354.563538,250.574692 
	C353.212433,245.863525 350.831818,242.063126 348.619720,238.186783 
	C345.300964,232.371140 341.806793,226.707123 334.706421,223.393814 
z"/>
<path fill="#000000" opacity="1.000000" stroke="none" 
	d="
M347.146301,333.101440 
	C358.596802,327.553314 369.155670,321.245239 378.978424,313.770813 
	C382.506226,311.086395 384.640198,311.375336 386.522247,315.594208 
	C389.908051,323.183685 393.562439,330.656403 397.245239,338.108429 
	C398.416351,340.478149 398.099792,342.011871 395.943451,343.602112 
	C378.729309,356.296844 360.293671,366.241882 338.666809,368.809174 
	C322.422760,370.737518 308.270691,365.164642 295.270111,355.969940 
	C293.106049,354.439362 291.042175,352.733917 289.101440,350.927277 
	C283.789124,345.982025 283.946289,342.723297 289.347076,337.766296 
	C290.526733,336.683563 291.699707,336.385468 292.945526,336.954285 
	C311.577118,345.461365 329.300934,341.015778 347.146301,333.101440 
z"/>
</svg>