<svg version="1.1" id="Layer_1" xmlns="http://www.w3.org/2000/svg" xmlns:xlink="http://www.w3.org/1999/xlink" x="0px" y="0px"
	 width="100%" viewBox="0 0 512 512" enable-background="new 0 0 512 512" xml:space="preserve">
<path fill="#000000" opacity="1.000000" stroke="none" 
	d="
M235.822784,280.096985 
	C229.434387,263.786072 222.669525,248.058044 218.489120,231.318649 
	C209.324173,194.619919 234.841171,174.859192 260.640869,169.749374 
	C280.127106,165.889954 296.382751,171.889847 309.162628,187.272903 
	C318.281799,198.249573 325.269409,210.543701 331.795441,223.126770 
	C343.766052,246.207764 354.143982,270.042175 365.018372,293.642395 
	C366.652527,297.188965 366.069153,299.012909 362.365448,300.451141 
	C349.442291,305.469604 352.582123,307.026855 346.190826,294.548645 
	C336.016754,274.684906 326.766937,254.328491 314.704834,235.477020 
	C312.374481,231.834991 309.874939,228.266327 307.128723,224.931168 
	C293.393066,208.249680 266.680634,207.923584 252.307892,224.193359 
	C245.323685,232.099380 245.137146,241.524551 246.943466,251.081070 
	C250.375778,269.240051 258.770966,285.669250 265.538788,302.658386 
	C273.918213,323.692993 283.730042,344.163208 290.858490,365.683228 
	C293.937866,374.979584 296.348724,384.506775 294.443939,394.567261 
	C292.971344,402.344971 288.575745,407.480957 281.349152,410.253326 
	C276.193726,412.231079 270.820679,413.324158 265.258179,413.324463 
	C230.593506,413.326447 195.928482,413.266113 161.264587,413.433685 
	C156.852005,413.454987 155.432846,412.100464 155.569427,407.731171 
	C155.845261,398.907043 155.858612,390.060913 155.558121,381.238281 
	C155.407516,376.816498 156.895859,375.543365 161.260880,375.565308 
	C192.424988,375.721893 223.590286,375.645813 254.755203,375.637512 
	C268.928497,375.633728 271.956573,371.795044 267.402924,358.252808 
	C259.646484,335.185791 249.246353,313.157745 240.158371,290.611847 
	C238.788681,287.213837 237.364471,283.837830 235.822784,280.096985 
z"/>
</svg>