<svg version="1.1" id="Layer_1" xmlns="http://www.w3.org/2000/svg" xmlns:xlink="http://www.w3.org/1999/xlink" x="0px" y="0px"
	 width="100%" viewBox="0 0 512 512" enable-background="new 0 0 512 512" xml:space="preserve">
<path fill="#000000" opacity="1.000000" stroke="none" 
	d="
M322.802246,230.922195 
	C322.135223,215.305023 321.459961,200.176117 320.847992,185.044632 
	C320.727386,182.063385 320.393890,179.056854 321.255646,176.103058 
	C322.254944,172.677658 324.328918,170.699493 328.059845,170.658340 
	C342.715454,170.496689 357.371216,170.331009 372.025726,170.093842 
	C375.786011,170.032974 377.272797,171.555939 377.372162,175.438858 
	C377.640167,185.912109 378.164124,196.383972 378.859436,206.838211 
	C379.087585,210.268158 377.804474,211.298325 374.656921,211.273254 
	C364.994568,211.196259 355.328491,211.369431 345.669586,211.169281 
	C341.544861,211.083832 340.114838,212.116379 340.768829,216.616302 
	C342.061615,225.511398 341.477386,234.554153 341.985748,243.534821 
	C343.180145,264.636810 343.501526,285.786621 344.371582,306.908997 
	C345.768585,340.825989 347.282593,374.738373 348.872528,408.646820 
	C349.038330,412.183075 347.827972,413.064514 344.431610,413.460144 
	C336.062561,414.434967 330.519928,411.723083 325.233917,404.641663 
	C307.406067,380.758453 289.489624,356.894623 269.402374,334.797394 
	C268.171417,333.443237 266.862732,332.153839 265.526642,330.902161 
	C256.285522,322.244873 251.062363,321.948517 241.138718,329.863739 
	C228.164642,340.212036 217.601074,352.929077 206.931961,365.489105 
	C193.240753,381.606873 179.790939,397.931244 166.375290,414.279968 
	C164.059845,417.101624 162.397949,416.897278 159.895538,414.670685 
	C153.301117,408.803070 146.579987,403.075043 139.819366,397.398590 
	C137.543686,395.487885 136.712021,393.910492 138.954956,391.238098 
	C162.080078,363.685120 184.027985,335.129242 208.930634,309.093353 
	C214.343719,303.433929 219.990845,298.005066 226.633362,293.734222 
	C238.842087,285.884552 250.055313,286.457764 261.057159,295.852386 
	C274.720581,307.519775 285.243774,321.983307 296.129120,336.081146 
	C306.903748,350.035614 317.364044,364.232758 329.147919,378.168762 
	C327.037354,329.249023 324.926758,280.329285 322.802246,230.922195 
z"/>
</svg>