<svg version="1.1" id="Layer_1" xmlns="http://www.w3.org/2000/svg" xmlns:xlink="http://www.w3.org/1999/xlink" x="0px" y="0px"
	 width="100%" viewBox="0 0 512 512" enable-background="new 0 0 512 512" xml:space="preserve">
<path fill="#000000" opacity="1.000000" stroke="none" 
	d="
M373.701782,268.606323 
	C347.940186,284.952209 323.544495,302.626740 299.230774,320.415405 
	C295.437286,323.190887 292.244110,322.362762 288.846130,319.716553 
	C273.490540,307.758301 258.106262,295.832367 241.963150,284.937347 
	C238.799118,282.801910 235.525406,280.802612 232.173325,278.977417 
	C224.182098,274.626221 216.320801,274.001648 208.089905,278.984436 
	C195.657089,286.510895 185.713638,296.801178 175.818527,307.126862 
	C165.690369,317.695679 155.970078,328.655731 146.100220,339.470978 
	C145.317169,340.329071 144.760162,341.393494 144.268112,342.113312 
	C140.453506,341.203949 138.967224,338.569916 136.904526,336.778351 
	C130.874161,331.540619 125.034264,326.084167 119.029167,320.816650 
	C116.380722,318.493469 115.465446,316.650024 118.347069,313.498108 
	C135.977844,294.213867 152.879959,274.240417 171.982010,256.352020 
	C180.080627,248.767929 189.776382,244.648056 201.108887,245.815475 
	C204.542465,246.169189 206.300186,245.150574 208.286758,242.225662 
	C219.324661,225.974121 230.706802,209.975723 246.448517,197.709442 
	C270.691528,178.818787 297.290436,179.497253 320.540863,199.522476 
	C339.132751,215.535355 353.224823,235.375443 367.965179,254.675674 
	C369.884705,257.189026 371.682312,259.796906 373.494507,262.390289 
	C374.804962,264.265625 375.568665,266.226898 373.701782,268.606323 
M305.219177,272.670166 
	C316.906372,264.821777 328.584198,256.959381 341.193054,249.532257 
	C332.917236,238.486145 325.374176,227.929535 315.305939,219.578308 
	C301.914215,208.470367 290.734406,210.829956 277.581909,221.364639 
	C264.029877,232.219345 254.563660,246.591156 244.969681,260.807220 
	C242.959625,263.785706 243.781479,265.330505 246.516190,267.213470 
	C256.234375,273.904938 265.905151,280.679840 275.331665,287.771759 
	C278.326965,290.025238 280.536438,289.955719 283.338470,287.956879 
	C290.386963,282.928741 297.509644,278.004547 305.219177,272.670166 
z"/>
<path fill="#000000" opacity="1.000000" stroke="none" 
	d="
M396.739746,329.330383 
	C398.137665,331.345093 399.966461,332.836060 397.674500,335.186981 
	C382.291565,350.965515 365.434967,364.370667 343.772522,370.720947 
	C322.807404,376.866821 298.834015,364.124237 288.797150,351.912720 
	C290.535858,349.442322 292.354218,346.897491 294.129639,344.323090 
	C295.376953,342.514435 296.932495,342.169220 298.885773,343.095490 
	C315.263824,350.861816 329.925079,346.243286 343.917480,336.831909 
	C354.879913,329.458496 364.531769,320.549896 373.887146,311.289185 
	C377.693909,307.520935 378.762207,307.607727 382.191010,311.751770 
	C386.963348,317.519562 391.739532,323.284210 396.739746,329.330383 
z"/>
</svg>