<svg version="1.1" id="Layer_1" xmlns="http://www.w3.org/2000/svg" xmlns:xlink="http://www.w3.org/1999/xlink" x="0px" y="0px"
	 width="100%" viewBox="0 0 512 512" enable-background="new 0 0 512 512" xml:space="preserve">
<path fill="#000000" opacity="1.000000" stroke="none" 
	d="
M424.057617,242.002472 
	C432.715668,256.239777 441.182739,270.168762 449.997528,284.669800 
	C445.047974,287.927032 440.401825,290.984558 435.351227,294.308289 
	C428.897888,283.648010 422.828735,273.338226 416.471466,263.209320 
	C411.250366,254.890610 406.177948,246.429596 399.806519,238.914261 
	C391.421906,229.024338 384.551056,227.830887 373.705719,234.963547 
	C356.874023,246.033264 344.413757,261.474365 332.579407,277.453949 
	C330.703033,279.987579 332.812744,281.866974 333.827942,283.802704 
	C343.363281,301.984222 351.761017,320.621887 356.650909,340.657501 
	C360.116699,354.858124 361.845306,369.239258 358.164703,383.605164 
	C354.420441,398.219482 346.677338,409.860138 331.361267,414.558289 
	C315.988983,419.273712 299.287231,412.304047 291.815582,398.074524 
	C283.608246,382.443878 282.441284,365.535736 284.134186,348.446777 
	C286.752228,322.018677 295.390472,297.214172 305.877655,272.995453 
	C306.526825,271.496216 307.606415,270.072083 306.447998,268.330383 
	C298.985504,257.110046 292.264526,245.326874 282.244537,236.033585 
	C274.651306,228.991058 270.433746,228.479080 261.869446,234.347931 
	C247.560135,244.153595 236.681961,257.448792 225.372910,270.380127 
	C220.064850,276.449646 220.255539,281.027649 224.123489,287.751190 
	C235.313889,307.203278 243.350891,328.021332 246.837769,350.289490 
	C249.096725,364.715668 249.327423,379.223541 242.955475,392.920441 
	C235.380829,409.202576 223.065567,416.393036 208.678009,415.996216 
	C192.603317,415.552795 180.702072,405.127075 175.712570,388.603241 
	C169.720047,368.757812 170.874512,348.885559 175.237350,328.946289 
	C179.417603,309.841431 185.748993,291.463318 193.673676,273.623413 
	C194.876266,270.916168 194.959747,268.945007 193.166473,266.352966 
	C186.252655,256.359650 180.069290,245.833267 171.295059,237.245285 
	C162.610809,228.745346 156.438522,228.057724 146.581314,235.361755 
	C136.228607,243.032944 127.942436,252.940811 119.086960,262.205750 
	C109.764343,271.959412 100.557625,281.823822 91.294144,291.634033 
	C90.502739,292.472107 89.781029,293.436523 87.908928,293.605042 
	C80.697151,285.590973 73.247932,277.315887 65.802757,269.037231 
	C64.179893,267.232697 64.980431,265.670105 66.352356,264.218719 
	C84.309669,245.221176 100.661865,224.706024 120.056801,207.073257 
	C129.939499,198.088470 141.320145,193.506485 154.916870,196.701675 
	C161.302658,198.202332 166.432114,201.862091 170.961182,206.378403 
	C182.263611,217.649063 190.706177,231.047409 199.046967,244.512970 
	C200.441162,246.763779 201.935318,248.952667 203.516586,251.374329 
	C206.064926,250.097137 206.833221,247.798660 207.964645,245.896500 
	C217.119537,230.505203 227.500961,216.089264 240.979141,204.125320 
	C253.623734,192.901337 268.911682,192.820114 281.627197,203.984756 
	C294.631012,215.402466 302.782593,230.422043 311.699432,244.863770 
	C312.994049,246.960571 313.863190,249.352875 316.334747,251.360184 
	C321.478363,243.734344 325.654083,235.608597 331.201355,228.394730 
	C337.815765,219.793137 344.563416,211.320175 353.062775,204.479034 
	C369.413574,191.318253 386.452423,193.120880 400.177216,208.917557 
	C409.071838,219.154831 416.410889,230.451340 424.057617,242.002472 
M195.431610,324.841736 
	C191.472672,336.950378 189.180161,349.269958 190.274017,362.098969 
	C191.166748,372.569275 199.127106,379.993744 208.783981,378.576782 
	C216.706543,377.414307 221.218460,371.947693 223.674622,364.749786 
	C227.214661,354.375641 226.558197,343.724701 224.660965,333.214233 
	C222.170807,319.419159 217.314499,306.430542 209.701294,293.835052 
	C203.740036,303.805176 198.973526,313.595917 195.431610,324.841736 
M315.524139,305.007996 
	C306.882111,323.074005 300.688019,341.700409 302.289246,362.146484 
	C303.109711,372.623260 311.197083,380.055817 320.842987,378.583588 
	C328.752747,377.376404 333.268463,371.925507 335.711395,364.699890 
	C339.169128,354.472717 338.532990,343.999481 336.683502,333.629059 
	C334.188507,319.639221 329.190430,306.531952 321.565491,293.674347 
	C319.447235,297.646149 317.659943,300.997406 315.524139,305.007996 
z"/>
</svg>