<svg version="1.1" id="Layer_1" xmlns="http://www.w3.org/2000/svg" xmlns:xlink="http://www.w3.org/1999/xlink" x="0px" y="0px"
	 width="100%" viewBox="0 0 512 512" enable-background="new 0 0 512 512" xml:space="preserve">
<path fill="#000000" opacity="1.000000" stroke="none" 
	d="
M222.016937,308.017090 
	C209.005188,322.969543 196.143433,337.584473 183.476471,352.366302 
	C169.621902,368.534027 155.939285,384.849213 142.199539,401.115173 
	C138.229248,405.815460 134.300873,410.551636 130.393311,415.304260 
	C128.959625,417.048004 127.567284,417.320465 125.751404,415.788025 
	C117.997101,409.244141 110.190971,402.761719 102.408257,396.251495 
	C99.621117,393.920105 101.720940,392.160980 103.159790,390.394562 
	C113.875359,377.239563 124.574867,364.071259 135.348785,350.964142 
	C150.243896,332.843353 164.994156,314.597717 180.186615,296.728760 
	C195.833130,278.325775 211.844604,260.190277 231.039108,245.303726 
	C240.289062,238.129776 250.053909,231.688843 262.507355,231.684219 
	C270.491577,231.681259 277.498901,234.642899 283.860199,239.105850 
	C298.962311,249.701111 309.882996,264.318542 320.979462,278.666809 
	C351.256226,317.816071 379.050598,358.749451 407.222015,399.408569 
	C414.121582,409.366516 414.104980,409.386292 404.141266,416.393982 
	C403.205536,417.052124 402.180481,417.583160 400.539368,418.567657 
	C395.058411,411.184692 389.630188,403.902130 384.232574,396.596985 
	C357.513519,360.434906 331.316711,323.874603 302.807587,289.072906 
	C297.435638,282.515259 291.839996,276.090851 285.037323,270.874146 
	C278.939117,266.197632 272.660126,264.956757 265.561249,268.802704 
	C256.191986,273.878662 248.592972,281.076111 241.146927,288.473663 
	C234.764175,294.814880 228.544571,301.320312 222.016937,308.017090 
z"/>
</svg>