<svg version="1.1" id="Layer_1" xmlns="http://www.w3.org/2000/svg" xmlns:xlink="http://www.w3.org/1999/xlink" x="0px" y="0px"
	 width="100%" viewBox="0 0 512 512" enable-background="new 0 0 512 512" xml:space="preserve">
<path fill="#000000" opacity="1.000000" stroke="none" 
	d="
M304.384369,201.226105 
	C322.342377,192.107834 335.842896,194.269180 350.011261,208.193069 
	C367.736816,225.612747 380.753174,246.648819 395.024841,266.719299 
	C398.112701,271.061859 400.921265,275.602539 403.985321,279.962799 
	C405.155548,281.628143 406.029541,283.077118 404.112122,284.703857 
	C400.460754,287.801727 396.797424,290.885437 392.825623,294.239716 
	C387.301422,288.300598 383.458344,281.672394 378.953247,275.571808 
	C370.246002,263.780762 361.804169,251.802658 352.306824,240.604706 
	C341.418274,227.766434 332.359619,227.101303 319.197571,238.666351 
	C307.665771,248.798981 297.747986,260.499023 287.423157,271.795837 
	C281.250244,278.549866 275.288971,285.496918 269.176300,292.306702 
	C266.405762,295.393250 263.906372,295.122406 261.058197,291.314850 
	C254.274994,282.246613 247.585327,273.108398 240.863358,263.994415 
	C234.633423,255.547516 228.192474,247.268463 221.276123,239.368225 
	C220.508560,238.491486 219.685028,237.660950 218.853622,236.843384 
	C211.330521,229.445633 206.070358,228.503998 196.999374,233.771027 
	C186.479675,239.879288 178.648590,249.098053 170.424088,257.820160 
	C159.028076,269.905640 147.622162,281.981812 135.761627,294.548187 
	C126.888748,286.360992 118.483627,278.602386 110.074486,270.848145 
	C107.924957,268.865997 109.263542,267.335114 110.685234,265.776062 
	C122.014839,253.351440 133.295685,240.882019 144.677292,228.505264 
	C151.210724,221.400635 157.429764,213.995941 164.945007,207.828201 
	C185.672226,190.817474 203.832794,191.416031 222.853226,210.313065 
	C233.639755,221.029587 242.294266,233.523010 250.949844,245.970810 
	C251.981720,247.454788 252.713699,249.211258 255.189117,250.493088 
	C258.106689,247.258621 261.155548,243.848511 264.236877,240.468002 
	C275.554932,228.051147 286.067963,214.840118 299.563751,204.568832 
	C301.020477,203.460144 302.566833,202.469238 304.384369,201.226105 
z"/>
<path fill="#000000" opacity="1.000000" stroke="none" 
	d="
M219.001526,388.000305 
	C202.048233,371.458496 187.095642,353.557678 171.420166,336.320679 
	C169.152954,333.827576 169.074539,332.168457 171.844589,329.821716 
	C179.707748,323.160278 179.535446,323.106628 186.956604,330.010162 
	C201.692154,343.717987 215.806381,358.095245 231.551529,370.714661 
	C245.143738,381.608582 253.386902,382.504791 268.306793,373.528107 
	C282.469666,365.006836 295.148254,354.420868 308.124207,344.263123 
	C317.428680,336.979431 326.718658,329.675079 335.900970,322.238983 
	C338.232208,320.351044 339.894562,319.859283 342.177246,322.327026 
	C348.845612,329.535828 355.653870,336.617249 362.499268,343.659180 
	C365.420746,346.664551 362.819092,348.042633 360.929199,349.520020 
	C348.213989,359.459656 335.454803,369.343048 322.708160,379.242493 
	C310.352386,388.838318 298.143738,398.639099 284.541290,406.490326 
	C267.825500,416.138580 251.797012,416.061768 236.328888,403.575989 
	C230.354645,398.753601 224.682236,393.650818 219.001526,388.000305 
z"/>
</svg>