<svg version="1.1" id="Layer_1" xmlns="http://www.w3.org/2000/svg" xmlns:xlink="http://www.w3.org/1999/xlink" x="0px" y="0px"
	 width="100%" viewBox="0 0 512 512" enable-background="new 0 0 512 512" xml:space="preserve">
<path fill="#000000" opacity="1.000000" stroke="none" 
	d="
M113.604263,262.637573 
	C128.585983,246.303131 143.213638,230.126114 158.097916,214.188751 
	C163.672363,208.219894 170.034470,203.101059 177.534210,199.528915 
	C192.190933,192.547867 205.353622,195.233307 217.315720,205.543442 
	C230.180573,216.631699 239.807968,230.459213 249.619888,244.121140 
	C251.154373,246.257751 252.251434,248.769531 255.149872,250.610809 
	C261.064606,243.986008 266.963043,237.290909 272.959229,230.684525 
	C281.574280,221.192780 290.041260,211.538727 300.447601,203.882767 
	C316.755463,191.885071 334.150879,193.082626 348.866150,207.049469 
	C362.502350,219.992111 373.062073,235.392059 383.843018,250.605804 
	C390.584167,260.118713 396.859253,269.963593 403.668243,279.425812 
	C405.796997,282.384094 405.298065,284.106934 402.770447,286.018616 
	C401.309235,287.123749 399.848145,288.235992 398.460938,289.430847 
	C392.364929,294.681580 392.523895,294.585663 387.986481,288.271057 
	C376.424255,272.180115 365.212097,255.830093 352.369843,240.685989 
	C341.431030,227.786484 332.442627,227.052719 319.284729,238.603867 
	C307.627045,248.837982 297.579651,260.643280 287.196442,272.111176 
	C281.054382,278.894867 275.095703,285.845886 268.895325,292.574921 
	C265.980652,295.738098 263.368530,294.489197 261.098999,291.424774 
	C251.485367,278.444153 241.973251,265.384247 232.128891,252.580276 
	C226.975250,245.877289 221.909927,239.054016 215.111725,233.739944 
	C210.136032,229.850494 205.209198,229.743546 199.746796,232.301422 
	C193.290955,235.324524 187.921356,239.809509 183.057053,244.841858 
	C168.938187,259.448486 154.975510,274.206390 140.995895,288.946960 
	C139.407867,290.621399 138.101730,292.563202 136.212494,294.953400 
	C126.818375,286.266235 118.015457,278.682281 109.939728,270.390106 
	C106.605263,266.966248 112.207443,265.454437 113.604263,262.637573 
z"/>
<path fill="#000000" opacity="1.000000" stroke="none" 
	d="
M281.000000,387.034851 
	C261.104034,387.034882 241.708069,387.034882 221.971695,387.034882 
	C222.178726,385.229126 222.080078,384.519714 222.346237,383.995544 
	C231.005936,366.941376 238.496567,349.261536 249.449646,333.431976 
	C251.461273,330.524719 253.847504,327.977936 256.487457,325.701813 
	C263.012665,320.075836 271.354340,320.303467 277.796234,325.987274 
	C286.636932,333.787567 291.629425,344.238007 297.190826,354.248260 
	C302.364868,363.561218 307.070923,373.134888 311.933807,382.618988 
	C312.436493,383.599396 312.604309,384.751556 313.292450,387.034851 
	C302.290405,387.034851 291.895203,387.034851 281.000000,387.034851 
M281.871155,361.454071 
	C278.968811,356.634308 276.922607,351.285858 273.142853,347.011627 
	C270.079620,343.547607 265.763092,343.100403 262.723816,346.415405 
	C257.536835,352.072937 254.609207,359.064941 251.457397,366.591583 
	C262.698547,366.591583 273.164795,366.591583 283.581055,366.591583 
	C284.005157,364.507233 282.703430,363.432465 281.871155,361.454071 
z"/>
</svg>