<svg version="1.1" id="Layer_1" xmlns="http://www.w3.org/2000/svg" xmlns:xlink="http://www.w3.org/1999/xlink" x="0px" y="0px"
	 width="100%" viewBox="0 0 512 512" enable-background="new 0 0 512 512" xml:space="preserve">
<path fill="#000000" opacity="1.000000" stroke="none" 
	d="
M373.697144,268.277924 
	C366.712006,258.914673 360.055054,249.757538 352.716370,241.107681 
	C341.385925,227.752884 332.608795,226.924683 319.320099,238.581406 
	C307.660034,248.809509 297.594147,260.598114 287.219666,272.073486 
	C281.083282,278.861053 275.103851,285.790833 268.943451,292.556152 
	C266.285095,295.475494 263.778229,294.974213 260.843231,291.049286 
	C251.270355,278.247589 241.888107,265.300415 232.149185,252.626938 
	C226.997070,245.922379 221.933578,239.100967 215.149017,233.774704 
	C210.188934,229.880783 205.265076,229.722290 199.792328,232.278839 
	C193.334000,235.295792 187.958313,239.773392 183.095139,244.806564 
	C168.169388,260.254028 153.411011,275.863190 138.576157,291.398590 
	C137.789612,292.222260 136.898041,292.945679 135.675003,294.063324 
	C126.716530,286.468536 118.122581,278.702362 109.854897,270.572571 
	C107.709450,268.462921 109.623772,266.984100 110.936760,265.530701 
	C118.189705,257.502075 125.293945,249.330200 132.769196,241.513474 
	C142.664093,231.166565 151.506454,219.828293 162.185593,210.227570 
	C171.154572,202.164246 180.933350,195.753693 193.598587,195.690704 
	C202.939331,195.644241 210.619263,199.749603 217.459183,205.668823 
	C230.300827,216.781921 239.928131,230.601822 249.727615,244.269135 
	C250.988525,246.027725 252.235504,247.797852 253.555908,249.511017 
	C253.822281,249.856628 254.391891,249.968552 255.266846,250.415726 
	C261.094452,243.918594 266.934021,237.358978 272.828033,230.848679 
	C281.318604,221.470337 289.681122,211.957138 299.879456,204.317917 
	C316.720001,191.703247 334.277283,192.919601 349.426422,207.590012 
	C365.226837,222.891113 377.136932,241.218246 389.697571,259.039459 
	C394.590759,265.982025 399.245026,273.092651 404.070709,280.083496 
	C405.089081,281.558807 406.068878,282.937775 404.349640,284.433594 
	C400.617615,287.680664 396.820831,290.853241 392.548859,294.482452 
	C386.094879,285.519897 379.994385,277.048157 373.697144,268.277924 
z"/>
<path fill="#000000" opacity="1.000000" stroke="none" 
	d="
M225.989136,332.950256 
	C233.226837,327.272949 240.511383,322.292572 248.381683,318.252991 
	C265.879791,309.271820 281.091705,313.756561 295.094818,326.142151 
	C314.757324,343.533447 331.067688,363.977936 348.077789,383.790375 
	C352.737579,389.217865 357.201111,394.817322 361.959625,400.155151 
	C364.360229,402.847992 364.473480,404.605865 361.442688,407.007141 
	C353.359436,413.411469 353.504486,413.491943 346.396912,406.176910 
	C333.634949,393.042419 320.853485,379.926270 307.993774,366.887695 
	C302.848999,361.671387 297.075226,357.194489 291.186432,352.810730 
	C282.439301,346.299164 273.882538,346.355957 264.834442,351.970184 
	C254.472015,358.399963 245.041656,366.028870 235.865097,373.990540 
	C222.044968,385.980988 208.272141,398.026611 194.556595,410.136444 
	C191.462296,412.868439 189.257233,413.502502 186.066147,409.826904 
	C179.429199,402.182465 172.229553,395.026550 164.686661,387.063263 
	C184.810516,368.506775 204.583206,350.088470 225.989136,332.950256 
z"/>
</svg>