<svg version="1.1" id="Layer_1" xmlns="http://www.w3.org/2000/svg" xmlns:xlink="http://www.w3.org/1999/xlink" x="0px" y="0px"
	 width="100%" viewBox="0 0 512 512" enable-background="new 0 0 512 512" xml:space="preserve">
<path fill="#000000" opacity="1.000000" stroke="none" 
	d="
M337.288361,302.738770 
	C351.501923,320.075073 364.412170,337.792786 372.126465,358.766785 
	C375.513306,367.975067 377.195892,377.434662 376.217377,387.176147 
	C375.036377,398.933380 369.362823,407.852905 358.400330,412.996094 
	C345.961823,418.831787 321.491333,418.519806 309.581268,405.011871 
	C302.583893,397.075684 299.161987,387.728210 297.679871,377.508606 
	C294.143890,353.126770 300.616302,330.645477 311.209473,309.089142 
	C312.986145,305.473663 312.835571,303.259796 310.171509,300.374390 
	C302.603302,292.177368 295.882751,283.211243 287.877625,275.405426 
	C276.172455,263.991730 267.339355,263.344940 254.367996,273.200226 
	C242.111115,282.512695 232.018692,294.130798 221.169617,304.942749 
	C218.871170,307.233337 219.974609,308.925507 221.172104,311.058685 
	C229.138550,325.250031 235.771072,340.084747 236.700470,356.500671 
	C237.809509,376.090179 234.436539,394.702911 217.543518,407.505737 
	C194.161148,425.226593 148.200806,419.125488 140.774109,376.332886 
	C137.119614,355.275665 144.753326,337.034912 156.816513,320.311127 
	C165.048035,308.899323 175.600616,299.591339 185.386963,289.612946 
	C201.011948,273.681366 216.133438,257.231140 232.873642,242.424454 
	C238.664536,237.302414 244.986832,232.964676 252.841263,231.682556 
	C265.023773,229.693878 274.896393,234.683365 283.907104,242.199921 
	C297.446533,253.494293 307.810913,267.673401 319.157074,280.956482 
	C325.215607,288.049255 331.099091,295.291443 337.288361,302.738770 
M165.320480,382.325989 
	C165.984116,392.262512 172.007431,398.181244 181.919968,398.637207 
	C192.783600,399.136932 201.877045,392.646912 206.469452,380.987274 
	C211.766663,367.538177 212.501907,353.470215 211.324585,339.316162 
	C210.791122,332.902832 210.276474,326.266907 206.949265,320.026764 
	C199.351959,327.447021 191.931610,334.364044 185.601196,342.314514 
	C181.981293,346.860809 178.284409,351.391327 175.149582,356.267975 
	C170.203033,363.963043 165.580002,371.896851 165.320480,382.325989 
M317.628754,348.088043 
	C317.338409,349.553436 317.003937,351.011627 316.764771,352.485321 
	C314.943695,363.706665 313.545044,374.958649 318.595551,385.745392 
	C322.125946,393.285400 329.290100,397.519562 336.061768,396.564301 
	C342.623535,395.638641 347.494904,390.363434 349.319000,382.121521 
	C349.604279,380.832581 349.719208,379.493835 349.790680,378.171539 
	C350.944336,356.833832 342.567017,339.033875 329.267517,323.081024 
	C328.775299,322.490631 328.015259,322.123505 326.844208,321.254913 
	C322.797241,329.854980 320.058807,338.468567 317.628754,348.088043 
z"/>
</svg>