<svg version="1.1" id="Layer_1" xmlns="http://www.w3.org/2000/svg" xmlns:xlink="http://www.w3.org/1999/xlink" x="0px" y="0px"
	 width="100%" viewBox="0 0 512 512" enable-background="new 0 0 512 512" xml:space="preserve">
<path fill="#000000" opacity="1.000000" stroke="none" 
	d="
M306.415833,242.412231 
	C295.860291,252.163010 286.536987,262.539001 278.099823,273.741150 
	C275.588837,277.075043 275.300873,279.620117 277.716034,283.448090 
	C290.380341,303.520660 300.740692,324.669586 305.670044,348.110382 
	C309.025787,364.068268 309.542877,379.843506 301.396545,394.713440 
	C293.684448,408.790649 281.477722,415.990448 265.591888,416.221405 
	C249.811325,416.450836 238.360825,408.639252 230.802094,395.093750 
	C223.489349,381.989044 221.637527,367.746460 223.234100,353.031708 
	C226.168442,325.987244 234.214600,300.382446 245.828568,275.883209 
	C247.886780,271.541473 247.637268,268.338043 244.605331,264.593597 
	C236.550125,254.645477 229.503998,243.835922 219.697845,235.405060 
	C212.341827,229.080719 207.245636,228.835373 198.884964,233.956329 
	C192.441025,237.903229 186.891418,242.991852 181.727814,248.381149 
	C168.487045,262.200653 155.478775,276.245819 142.542908,290.352386 
	C139.438782,293.737457 137.291275,294.328156 133.721268,290.725433 
	C127.402519,284.348846 120.551994,278.493652 113.835045,272.520294 
	C111.567657,270.503876 110.329247,269.019348 113.014389,266.086945 
	C129.759720,247.799698 145.870010,228.926971 163.517166,211.473740 
	C171.608841,203.470993 180.660568,197.040268 192.352188,195.821106 
	C206.503677,194.345428 216.884140,201.770111 225.968018,211.279449 
	C235.532974,221.292374 243.483932,232.637604 251.477600,243.916901 
	C253.194855,246.339981 254.707611,248.934021 257.301056,251.073486 
	C261.547943,246.898041 263.766113,241.435471 267.124390,236.790390 
	C275.519226,225.178909 283.932312,213.621231 295.373413,204.691895 
	C310.853394,192.610382 326.539948,192.724716 341.881409,204.977921 
	C355.573242,215.913559 365.996094,229.758560 376.216492,243.725388 
	C384.866852,255.546616 392.931854,267.794739 401.414276,279.741486 
	C403.275543,282.362946 403.222900,284.012329 400.540192,285.856201 
	C398.219116,287.451538 396.008881,289.277344 394.020966,291.271698 
	C391.151184,294.150696 389.295990,293.666931 387.004700,290.395599 
	C377.834259,277.302734 368.320404,264.459015 358.001923,252.230530 
	C353.374695,246.746796 348.426270,241.575089 343.013763,236.877151 
	C333.435791,228.563766 324.478668,228.571136 313.259094,236.817703 
	C310.982239,238.491226 308.863953,240.380478 306.415833,242.412231 
M271.941315,304.513885 
	C269.919983,301.319763 268.509949,297.712585 265.657135,294.936432 
	C263.865845,296.228058 262.925781,297.960175 262.018402,299.700562 
	C256.248749,310.766998 250.627197,321.891388 246.708420,333.800140 
	C243.831055,342.544159 241.669861,351.337250 242.275833,360.669891 
	C243.016418,372.075592 251.508118,379.696472 262.889740,378.899323 
	C274.674225,378.073944 283.652527,367.429077 284.772522,353.680908 
	C286.212555,336.004395 280.559601,320.273041 271.941315,304.513885 
z"/>
</svg>