<svg version="1.1" id="Layer_1" xmlns="http://www.w3.org/2000/svg" xmlns:xlink="http://www.w3.org/1999/xlink" x="0px" y="0px"
	 width="100%" viewBox="0 0 512 512" enable-background="new 0 0 512 512" xml:space="preserve">
<path fill="#000000" opacity="1.000000" stroke="none" 
	d="
M271.386536,231.792282 
	C283.890228,230.866272 293.351471,236.442551 301.861664,244.078171 
	C315.429047,256.251312 326.658997,270.559021 338.163696,284.585602 
	C351.244690,300.534058 365.058319,315.919098 376.174286,333.408386 
	C383.986145,345.699127 390.688568,358.481781 393.816467,372.836304 
	C395.880341,382.307922 395.774658,391.645264 391.201172,400.540924 
	C386.132629,410.399384 377.239746,414.469421 367.019257,416.131042 
	C347.817627,419.252899 330.129852,411.777893 321.327911,396.568451 
	C313.962006,383.840424 312.635071,369.825256 314.236450,355.470306 
	C316.157013,338.254272 321.326477,322.026825 329.660980,306.830109 
	C330.388123,305.504242 330.545074,304.440613 329.454651,303.233582 
	C319.648865,292.379456 311.168945,280.261444 299.471649,271.210083 
	C291.409088,264.971222 286.196838,264.758514 277.537567,270.255920 
	C264.913177,278.270691 254.571091,288.924408 244.443054,299.753540 
	C229.670441,315.548706 215.395767,331.790436 201.459015,348.330109 
	C187.636810,364.733826 173.759216,381.090881 159.890427,397.455292 
	C154.945724,403.289764 149.928024,409.062469 145.001068,414.911774 
	C143.291901,416.940887 141.756805,417.312683 139.580490,415.422272 
	C132.425491,409.207123 125.236496,403.024231 117.878258,397.053619 
	C115.284454,394.948914 115.267960,393.343048 117.278259,390.900238 
	C138.729309,364.834229 160.135895,338.731506 181.519516,312.610138 
	C197.444794,293.156403 213.612167,273.914764 231.765259,256.466553 
	C240.301193,248.262054 249.242950,240.549011 260.043976,235.300720 
	C263.542938,233.600555 267.238342,232.768570 271.386536,231.792282 
M356.307037,338.191193 
	C352.640350,332.154175 349.051117,326.058533 343.640625,320.908813 
	C342.988159,321.970673 342.448486,322.618317 342.153656,323.362885 
	C336.445312,337.777679 331.963470,352.528198 331.466278,368.143524 
	C331.270294,374.297729 332.475525,380.371826 335.555969,385.911194 
	C340.131042,394.138184 349.266724,398.561005 357.774353,396.596375 
	C364.557617,395.029907 368.627319,388.076111 368.674164,377.888519 
	C368.739777,363.624481 363.265869,351.047333 356.307037,338.191193 
z"/>
</svg>