<svg version="1.1" id="Layer_1" xmlns="http://www.w3.org/2000/svg" xmlns:xlink="http://www.w3.org/1999/xlink" x="0px" y="0px"
	 width="100%" viewBox="0 0 512 512" enable-background="new 0 0 512 512" xml:space="preserve">
<path fill="#000000" opacity="1.000000" stroke="none" 
	d="
M260.065125,197.885559 
	C266.529297,204.393188 272.630371,210.767776 279.004211,216.856857 
	C281.903564,219.626724 282.260864,221.612961 279.175110,224.556580 
	C272.676697,230.755692 266.415009,237.209717 260.208099,243.704330 
	C257.807098,246.216599 255.958099,246.836411 253.253326,244.011398 
	C247.041275,237.523209 240.647263,231.204330 234.190323,224.958115 
	C231.854370,222.698395 231.904709,221.117279 234.232544,218.824020 
	C241.105469,212.053238 247.778931,205.079269 254.494202,198.149689 
	C256.175964,196.414230 257.782928,195.168335 260.065125,197.885559 
z"/>
<path fill="#000000" opacity="1.000000" stroke="none" 
	d="
M275.010742,372.995789 
	C283.805664,381.894836 283.912903,379.471497 275.401886,388.232300 
	C270.179138,393.608368 264.803864,398.838562 259.662659,404.290436 
	C257.409607,406.679657 255.754852,406.623352 253.500702,404.294067 
	C247.130630,397.711761 240.591873,391.292786 234.121399,384.807648 
	C232.651642,383.334564 231.219543,381.931061 233.334442,379.803223 
	C240.964752,372.126343 248.538055,364.392792 256.159088,356.706604 
	C256.474945,356.388031 257.054291,356.330719 258.117981,355.913696 
	C263.563110,361.420319 269.161774,367.082184 275.010742,372.995789 
z"/>
<path fill="#000000" opacity="1.000000" stroke="none" 
	d="
M242.162079,312.837799 
	C239.208237,309.885376 236.494461,307.192719 233.810623,304.470520 
	C232.610535,303.253326 231.316238,301.891876 233.013290,300.232819 
	C241.183578,292.245453 249.409012,284.314484 257.992737,275.997345 
	C265.446198,283.462708 273.054779,291.075684 280.652618,298.699432 
	C282.388275,300.441040 281.631836,301.929962 280.173065,303.401428 
	C273.269012,310.365509 266.346710,317.312469 259.523376,324.355103 
	C257.444153,326.501129 255.747513,326.539276 253.679016,324.385620 
	C249.995468,320.550385 246.176605,316.845123 242.162079,312.837799 
z"/>
</svg>