<svg version="1.1" id="Layer_1" xmlns="http://www.w3.org/2000/svg" xmlns:xlink="http://www.w3.org/1999/xlink" x="0px" y="0px"
	 width="100%" viewBox="0 0 512 512" enable-background="new 0 0 512 512" xml:space="preserve">
<path fill="#000000" opacity="1.000000" stroke="none" 
	d="
M125.377777,328.000122 
	C125.386925,354.818115 125.308144,381.136719 125.488503,407.453522 
	C125.519241,411.938446 124.298615,413.522339 119.608109,413.455811 
	C106.788086,413.273895 106.785973,413.480255 106.784889,400.855164 
	C106.780724,352.383270 106.774681,303.911377 106.775787,255.439499 
	C106.775841,253.274872 106.692734,251.096039 106.901222,248.948380 
	C107.432892,243.471603 109.717079,240.896347 115.131592,240.819611 
	C130.452805,240.602386 145.778763,240.736649 161.102615,240.673172 
	C163.859589,240.661758 165.072266,241.941055 165.069855,244.588165 
	C165.059906,255.581207 165.033981,266.574280 165.049240,277.567291 
	C165.053635,280.727997 163.230545,281.388336 160.499710,281.369049 
	C150.506027,281.298431 140.508850,281.476624 130.518677,281.276672 
	C126.565697,281.197601 125.290894,282.652405 125.335258,286.524872 
	C125.491699,300.181641 125.384453,313.841431 125.377777,328.000122 
z"/>
<path fill="#000000" opacity="1.000000" stroke="none" 
	d="
M380.003967,340.563660 
	C373.561951,336.730225 371.753448,329.313843 375.442688,323.271454 
	C378.216858,318.727814 386.079163,317.314545 391.537537,320.378357 
	C396.225342,323.009674 397.904510,330.930084 394.927338,336.367828 
	C392.527863,340.750397 387.874420,342.143250 380.003967,340.563660 
z"/>
<path fill="#000000" opacity="1.000000" stroke="none" 
	d="
M344.141968,223.363770 
	C333.992950,228.137787 325.534943,223.875687 325.468353,214.347229 
	C325.413544,206.503281 329.629547,202.471085 337.616730,202.728439 
	C344.494843,202.950058 348.496338,207.671753 347.880737,215.131485 
	C347.635803,218.099396 347.045776,221.082047 344.141968,223.363770 
z"/>
<path fill="#000000" opacity="1.000000" stroke="none" 
	d="
M280.261230,215.706757 
	C279.533325,221.195053 276.750031,224.409912 271.647339,225.121567 
	C267.052368,225.762421 262.447174,225.540222 259.592651,221.107529 
	C256.716461,216.641190 257.025238,211.872314 259.503723,207.338562 
	C261.731628,203.263123 265.797211,202.601669 269.884491,202.847412 
	C274.029480,203.096603 277.708679,204.511932 279.394806,208.906113 
	C280.191498,210.982346 280.403107,213.099213 280.261230,215.706757 
z"/>
<path fill="#000000" opacity="1.000000" stroke="none" 
	d="
M381.047668,251.726898 
	C390.387299,250.338257 395.366302,253.306290 396.240967,260.489197 
	C397.042084,267.068024 394.148682,272.019196 388.764038,273.283630 
	C381.723083,274.937012 376.390778,272.597198 374.423431,266.990997 
	C372.156006,260.529480 374.529999,254.732330 381.047668,251.726898 
z"/>
<path fill="#000000" opacity="1.000000" stroke="none" 
	d="
M229.844727,228.269623 
	C233.552811,221.988861 240.620453,220.193710 246.680466,223.637985 
	C251.228821,226.223099 253.056686,233.890625 250.384094,239.174011 
	C248.032166,243.823471 241.857803,245.835907 235.496643,244.026352 
	C231.198822,242.803726 228.443954,238.341232 228.842545,233.027573 
	C228.952942,231.556030 229.423294,230.111511 229.844727,228.269623 
z"/>
<path fill="#000000" opacity="1.000000" stroke="none" 
	d="
M236.015045,348.649170 
	C246.840775,346.214233 253.691864,352.999817 251.087234,363.232849 
	C250.039032,367.351013 247.166351,369.794037 242.934952,370.245270 
	C238.205872,370.749542 233.471054,370.901489 230.570618,365.971375 
	C226.897263,359.727509 229.206909,351.848999 236.015045,348.649170 
z"/>
<path fill="#000000" opacity="1.000000" stroke="none" 
	d="
M231.083130,267.651489 
	C227.423996,273.657379 219.906448,275.511139 214.166367,272.172882 
	C209.724930,269.589874 207.888031,261.840637 210.475388,256.602051 
	C212.726807,252.043625 218.490906,250.084061 224.808182,251.729431 
	C229.666077,252.994705 232.365540,257.374084 231.895493,263.360199 
	C231.792343,264.673950 231.441681,265.968292 231.083130,267.651489 
z"/>
<path fill="#000000" opacity="1.000000" stroke="none" 
	d="
M209.634583,332.417236 
	C209.563980,323.423553 211.247437,320.691498 217.513031,319.196381 
	C223.180115,317.844116 228.432007,319.752289 230.558624,323.936310 
	C232.882187,328.507812 231.907181,335.949707 228.606033,338.839813 
	C225.046936,341.955719 217.734970,342.266785 213.589355,339.433563 
	C211.267426,337.846741 209.923401,335.637085 209.634583,332.417236 
z"/>
<path fill="#000000" opacity="1.000000" stroke="none" 
	d="
M277.932983,385.807404 
	C272.736084,389.810303 266.303467,390.519562 261.987671,387.655304 
	C257.627838,384.761810 257.155365,380.326294 257.970734,375.722870 
	C259.065094,369.544281 263.696259,366.550110 270.471313,367.294800 
	C277.257294,368.040649 280.314850,371.380310 280.316620,377.973755 
	C280.317352,380.696716 279.720642,383.223022 277.932983,385.807404 
z"/>
<path fill="#000000" opacity="1.000000" stroke="none" 
	d="
M335.421753,367.375214 
	C344.184082,367.635345 346.356018,369.241943 347.454651,375.789001 
	C348.233978,380.433289 348.230896,385.036285 343.694183,387.722260 
	C339.086975,390.449921 334.050293,390.139130 329.470428,387.435516 
	C324.536255,384.522736 325.091736,379.541260 325.829590,374.956085 
	C326.626648,370.003174 330.219360,367.823334 335.421753,367.375214 
z"/>
<path fill="#000000" opacity="1.000000" stroke="none" 
	d="
M203.158722,291.802612 
	C206.622849,285.793274 213.580444,283.598389 219.569641,286.278137 
	C224.093857,288.302460 226.264023,294.251251 224.582275,300.018738 
	C222.939957,305.651031 218.554016,308.103851 211.644119,307.254242 
	C206.240433,306.589874 202.974701,303.150360 202.716049,297.651123 
	C202.630920,295.841125 202.905624,294.014221 203.158722,291.802612 
z"/>
<path fill="#000000" opacity="1.000000" stroke="none" 
	d="
M306.196045,374.492065 
	C311.989929,376.566284 314.139435,379.765747 313.942047,385.532593 
	C313.747131,391.227722 311.082855,395.067963 306.582153,396.140991 
	C300.770630,397.526550 295.554535,395.843262 293.270081,391.845032 
	C290.778656,387.484528 291.100159,380.359131 294.268555,377.259369 
	C297.462311,374.134888 301.444885,373.287811 306.196045,374.492065 
z"/>
<path fill="#000000" opacity="1.000000" stroke="none" 
	d="
M299.002686,196.599030 
	C305.871216,195.091248 311.120819,197.127609 312.934509,201.764725 
	C315.254608,207.696777 313.335693,214.817169 308.768097,217.224792 
	C303.136749,220.193115 295.453247,218.269638 292.996033,213.276489 
	C289.711334,206.601685 292.038879,199.714874 299.002686,196.599030 
z"/>
<path fill="#000000" opacity="1.000000" stroke="none" 
	d="
M376.292053,362.551025 
	C374.142670,369.027222 371.777374,370.531647 365.075256,370.466492 
	C360.212128,370.419220 356.694000,368.509766 355.115021,363.763611 
	C353.416138,358.656799 355.006622,352.540588 358.541565,350.084717 
	C362.526276,347.316315 369.659576,347.269318 373.140961,350.104340 
	C377.075562,353.308502 376.359772,357.817932 376.292053,362.551025 
z"/>
<path fill="#000000" opacity="1.000000" stroke="none" 
	d="
M369.212585,222.485657 
	C375.694031,224.881363 377.968353,230.131561 376.153137,237.690292 
	C374.959595,242.660248 370.852722,244.878448 363.848541,244.336288 
	C358.153595,243.895462 354.992798,240.520935 354.680450,234.548264 
	C354.292694,227.134399 356.764557,223.730087 363.421204,222.262390 
	C365.271729,221.854370 367.030548,221.819275 369.212585,222.485657 
z"/>
<path fill="#000000" opacity="1.000000" stroke="none" 
	d="
M388.102600,285.755554 
	C398.820129,284.444183 403.837006,288.378906 403.216766,297.239288 
	C402.773926,303.564728 399.252075,307.065979 393.076447,307.320251 
	C385.965881,307.613037 382.000061,304.641754 380.962891,298.244476 
	C380.057739,292.661316 382.393738,288.354492 388.102600,285.755554 
z"/>
</svg>