<svg version="1.1" id="Layer_1" xmlns="http://www.w3.org/2000/svg" xmlns:xlink="http://www.w3.org/1999/xlink" x="0px" y="0px"
	 width="100%" viewBox="0 0 512 512" enable-background="new 0 0 512 512" xml:space="preserve">
<path fill="#000000" opacity="1.000000" stroke="none" 
	d="
M225.073700,239.852753 
	C259.036377,253.464798 290.935669,248.996994 321.530212,230.843063 
	C324.108887,229.312988 326.637268,227.693100 329.260712,226.244812 
	C333.141510,224.102402 334.771515,224.879288 335.085175,229.353317 
	C335.643616,237.319351 335.930573,245.304535 336.318146,253.282349 
	C336.390839,254.779495 336.304993,256.289795 336.459534,257.776642 
	C337.374817,266.582245 337.499298,266.787872 329.552582,270.923889 
	C292.252808,290.337311 255.662354,290.942505 220.124847,266.445984 
	C219.211166,265.816193 218.428116,264.774384 216.707306,265.222015 
	C215.905472,267.812531 216.249176,270.637299 216.461914,273.372833 
	C217.945831,292.454285 218.886948,311.557739 219.387741,330.691345 
	C219.858200,348.665405 220.500015,366.637146 221.315353,384.598602 
	C221.536118,389.462006 219.737442,391.053619 215.026825,390.971710 
	C200.814102,390.724640 202.865463,391.764374 202.912704,378.957825 
	C203.026428,348.133789 201.870148,317.339417 200.491364,286.565521 
	C199.725357,269.468445 199.230179,252.311096 196.888092,235.307388 
	C196.546082,232.824326 196.891113,230.827286 199.401505,229.399429 
	C201.720871,228.080231 203.686005,227.980804 205.869537,229.507462 
	C211.759277,233.625412 218.028351,237.059982 225.073700,239.852753 
z"/>
</svg>