<svg version="1.1" id="Layer_1" xmlns="http://www.w3.org/2000/svg" xmlns:xlink="http://www.w3.org/1999/xlink" x="0px" y="0px"
	 width="100%" viewBox="0 0 512 512" enable-background="new 0 0 512 512" xml:space="preserve">
<path fill="#000000" opacity="1.000000" stroke="none" 
	d="
M251.183289,223.082291 
	C240.809341,230.968430 238.382843,238.231400 241.813690,250.354599 
	C244.849899,261.083313 250.446625,270.548279 256.617004,279.665070 
	C263.057800,289.181458 269.716766,298.557159 276.528717,307.811523 
	C278.875336,310.999542 278.762115,313.081055 275.848358,315.826202 
	C270.014160,321.322876 270.126648,321.542786 263.010529,318.168152 
	C254.912186,314.327667 246.360107,313.165741 237.678421,314.701355 
	C225.446716,316.864868 218.234009,326.533966 216.231171,340.882324 
	C213.975159,357.044556 217.097488,372.687256 219.746399,388.407013 
	C220.877182,395.117554 222.296387,401.787323 223.828644,408.419189 
	C224.616943,411.831024 223.958847,413.460968 220.128403,413.377319 
	C213.467056,413.231842 206.798676,413.248749 200.136551,413.373749 
	C197.245132,413.427979 196.086899,412.167938 195.433090,409.444061 
	C189.637283,385.297028 184.400452,361.075012 185.772583,336.006500 
	C186.319473,326.015137 187.912888,316.185791 191.774841,306.838593 
	C198.732681,289.998322 211.623199,281.104156 229.356613,278.679260 
	C231.464005,278.391113 233.679794,278.562531 235.533813,276.695984 
	C234.379303,272.996948 231.727127,270.168549 229.730194,266.986206 
	C222.384521,255.280075 214.451508,243.840439 211.404678,230.046616 
	C204.875122,200.485657 231.172836,178.578583 252.502029,177.573334 
	C268.783020,176.806000 279.918182,185.011581 289.227386,197.017242 
	C300.921234,212.098236 309.768127,228.930984 318.925385,245.559326 
	C325.593536,257.667786 331.839264,270.009705 338.563904,282.085693 
	C340.733459,285.981720 340.051117,287.856873 336.133728,289.773621 
	C326.457642,294.507935 328.356628,295.731415 322.709961,285.651062 
	C313.433350,269.090607 304.769989,252.162155 293.584778,236.741592 
	C291.729401,234.183640 289.752533,231.695023 287.644409,229.342255 
	C276.725037,217.155777 266.138123,215.294022 251.183289,223.082291 
z"/>
</svg>