<svg version="1.1" id="Layer_1" xmlns="http://www.w3.org/2000/svg" xmlns:xlink="http://www.w3.org/1999/xlink" x="0px" y="0px"
	 width="100%" viewBox="0 0 512 512" enable-background="new 0 0 512 512" xml:space="preserve">
<path fill="#000000" opacity="1.000000" stroke="none" 
	d="
M329.862183,298.137604 
	C333.874023,302.148163 337.574951,305.972321 341.418640,309.647186 
	C343.426758,311.567078 343.418488,313.100311 341.450439,315.062714 
	C334.506012,321.987000 327.618500,328.970032 320.809357,336.027222 
	C318.733704,338.178497 317.137482,338.219055 315.025970,336.049683 
	C308.650085,329.499054 302.185333,323.032379 295.645111,316.645721 
	C293.427124,314.479828 293.086761,312.845367 295.498260,310.470306 
	C302.364777,303.707581 309.065338,296.773956 315.736603,289.816864 
	C317.790344,287.675140 319.451233,287.523773 321.519501,289.762695 
	C324.111450,292.568573 326.904358,295.188843 329.862183,298.137604 
z"/>
<path fill="#000000" opacity="1.000000" stroke="none" 
	d="
M246.474792,258.464508 
	C250.556900,254.868408 253.197052,248.384476 258.050415,248.504303 
	C262.513885,248.614487 265.388000,254.685135 268.997528,258.086914 
	C272.876312,261.742432 276.494568,265.673248 280.340912,269.364746 
	C282.466980,271.405182 282.578156,273.121552 280.443573,275.248108 
	C273.478516,282.186951 266.559448,289.173737 259.729004,296.244812 
	C257.728607,298.315704 256.221344,298.100830 254.327728,296.178223 
	C247.779800,289.529968 241.183075,282.928619 234.526169,276.389557 
	C232.339142,274.241272 232.626770,272.530640 234.692429,270.503693 
	C238.616394,266.653320 242.393814,262.653595 246.474792,258.464508 
z"/>
<path fill="#000000" opacity="1.000000" stroke="none" 
	d="
M271.980316,333.020081 
	C275.051453,336.102539 277.842834,338.965515 280.706390,341.754364 
	C282.500946,343.502136 282.515686,345.116302 280.755615,346.889252 
	C273.596954,354.100098 266.445282,361.318176 259.340210,368.581696 
	C257.649017,370.310699 256.266083,370.033936 254.696732,368.455688 
	C247.884933,361.605194 241.045639,354.781921 234.189270,347.976013 
	C232.340988,346.141327 232.704178,344.553955 234.390671,342.845032 
	C241.410187,335.732117 248.410095,328.599518 255.367722,321.426147 
	C257.154785,319.583679 258.673676,319.659607 260.428284,321.457886 
	C264.150482,325.272644 267.958344,329.003784 271.980316,333.020081 
z"/>
<path fill="#000000" opacity="1.000000" stroke="none" 
	d="
M211.977982,373.022430 
	C215.048477,376.104950 217.839951,378.967224 220.702820,381.756226 
	C222.496658,383.503815 222.510345,385.120331 220.752365,386.892670 
	C213.597610,394.105957 206.447968,401.324585 199.348175,408.591858 
	C197.652145,410.327881 196.275558,410.036469 194.711029,408.460693 
	C187.905029,401.606049 181.076904,394.773193 174.219086,387.970428 
	C172.363144,386.129395 172.708008,384.569061 174.400787,382.854980 
	C181.422165,375.745148 188.422897,368.614532 195.376862,361.438843 
	C197.165329,359.593384 198.674683,359.656189 200.431320,361.457275 
	C204.152328,365.272430 207.958130,369.004822 211.977982,373.022430 
z"/>
<path fill="#000000" opacity="1.000000" stroke="none" 
	d="
M180.125107,249.869659 
	C171.736282,241.547104 171.741913,241.552628 179.649521,233.508423 
	C184.668793,228.402435 189.723557,223.329453 194.650406,218.135437 
	C196.718124,215.955551 198.384628,215.282379 200.807663,217.790848 
	C207.169571,224.377136 213.665329,230.837570 220.227097,237.225555 
	C222.546890,239.483902 222.486343,241.236816 220.223007,243.478607 
	C213.361389,250.274826 206.554626,257.130127 199.880295,264.109528 
	C197.650665,266.441071 196.101883,265.945770 194.133133,263.914520 
	C189.613907,259.251892 184.968842,254.711212 180.125107,249.869659 
z"/>
<path fill="#000000" opacity="1.000000" stroke="none" 
	d="
M205.428955,330.429596 
	C197.079224,338.830170 197.080429,338.828979 188.918076,330.660980 
	C184.327896,326.067627 179.806702,321.401672 175.109329,316.920563 
	C172.728088,314.648987 172.280701,312.864410 174.870285,310.324951 
	C181.764038,303.564514 188.501999,296.642365 195.192856,289.679718 
	C197.131317,287.662537 198.619644,287.589691 200.582275,289.589478 
	C207.113220,296.244293 213.679108,302.867615 220.360947,309.370087 
	C222.811325,311.754669 222.226089,313.517883 220.086975,315.623260 
	C215.221817,320.411682 210.473785,325.319122 205.428955,330.429596 
z"/>
</svg>