<svg version="1.1" id="Layer_1" xmlns="http://www.w3.org/2000/svg" xmlns:xlink="http://www.w3.org/1999/xlink" x="0px" y="0px"
	 width="100%" viewBox="0 0 512 512" enable-background="new 0 0 512 512" xml:space="preserve">
<path fill="#000000" opacity="1.000000" stroke="none" 
	d="
M284.189392,112.815521 
	C293.173431,121.892670 291.840698,119.660881 284.491821,127.347809 
	C279.211182,132.871384 273.672272,138.148605 268.412476,143.691315 
	C266.251068,145.969009 264.667023,146.298981 262.326996,143.879242 
	C255.975540,137.311401 249.491592,130.867249 242.920471,124.518661 
	C240.539841,122.218658 240.770828,120.576950 243.026932,118.355400 
	C249.773941,111.711777 256.435303,104.975861 262.956848,98.111382 
	C265.365997,95.575577 267.157745,95.619576 269.517883,98.084557 
	C274.227905,103.003883 279.121216,107.747765 284.189392,112.815521 
z"/>
<path fill="#000000" opacity="1.000000" stroke="none" 
	d="
M338.339355,251.291290 
	C350.075226,251.239670 351.426819,258.536163 349.992340,266.545593 
	C349.005859,272.053680 343.363922,274.705353 336.518921,273.462738 
	C330.722473,272.410461 327.289551,267.670746 327.863220,261.511963 
	C328.465851,255.041946 331.012817,252.477707 338.339355,251.291290 
z"/>
<path fill="#000000" opacity="1.000000" stroke="none" 
	d="
M178.950897,251.723175 
	C185.732178,254.790619 188.043365,261.598755 185.007355,268.464783 
	C182.843826,273.357666 175.340393,275.364624 169.368408,272.647736 
	C164.216248,270.303802 161.909134,262.883453 164.534332,257.100006 
	C166.744034,252.231964 171.195236,250.505005 178.950897,251.723175 
z"/>
<path fill="#000000" opacity="1.000000" stroke="none" 
	d="
M298.800781,205.092972 
	C301.085663,207.338333 301.803955,209.910858 302.153351,212.550018 
	C303.066772,219.449692 299.473297,224.532578 293.328674,225.239746 
	C285.634491,226.125244 280.427917,222.697632 279.719818,216.280716 
	C278.833771,208.251282 282.411285,203.525299 289.962769,202.796844 
	C293.029358,202.501038 295.909912,203.074005 298.800781,205.092972 
z"/>
<path fill="#000000" opacity="1.000000" stroke="none" 
	d="
M327.816772,330.059082 
	C328.628418,324.673279 330.074219,320.305084 335.931580,319.099670 
	C341.441895,317.965729 346.767609,319.705841 349.053009,323.725189 
	C351.365479,327.792236 350.781799,335.229950 347.910309,338.285645 
	C344.846313,341.546204 337.395172,342.439270 332.992920,340.070099 
	C329.161865,338.008362 328.236450,334.372986 327.816772,330.059082 
z"/>
<path fill="#000000" opacity="1.000000" stroke="none" 
	d="
M188.151306,243.386261 
	C182.763718,238.915695 181.602051,231.687210 185.062775,226.281036 
	C187.694778,222.169510 194.304230,220.726044 199.882141,223.044617 
	C204.249359,224.859940 206.175674,229.534775 205.378296,236.173080 
	C204.799194,240.994263 201.924210,243.602875 197.332230,244.204010 
	C194.411346,244.586380 191.381393,244.818573 188.151306,243.386261 
z"/>
<path fill="#000000" opacity="1.000000" stroke="none" 
	d="
M223.013641,225.316437 
	C215.234146,224.575378 211.390137,220.418854 211.835922,213.700653 
	C212.303467,206.654739 216.591751,202.601364 223.447769,202.724838 
	C230.172729,202.845947 234.144257,206.636230 234.339890,213.119873 
	C234.589127,221.379364 231.716614,224.594971 223.013641,225.316437 
z"/>
<path fill="#000000" opacity="1.000000" stroke="none" 
	d="
M170.902039,319.408203 
	C179.804718,317.843903 184.129227,320.240631 185.821701,327.335846 
	C187.336807,333.687439 184.422836,339.417725 178.894913,340.957397 
	C172.422852,342.760040 166.187836,340.129547 164.274612,334.789185 
	C161.918488,328.212524 164.365051,322.218170 170.902039,319.408203 
z"/>
<path fill="#000000" opacity="1.000000" stroke="none" 
	d="
M189.454956,369.842285 
	C183.315231,365.989532 181.424744,358.717804 184.701584,352.811371 
	C187.296997,348.133148 194.399384,346.489227 200.269989,349.207916 
	C204.480835,351.157990 206.370880,356.167725 205.323517,362.680237 
	C204.586014,367.266022 201.644485,369.613098 197.261795,370.268433 
	C194.790390,370.637970 192.276245,370.654755 189.454956,369.842285 
z"/>
<path fill="#000000" opacity="1.000000" stroke="none" 
	d="
M328.519958,367.397583 
	C323.798309,371.593994 318.717987,371.338715 313.831055,369.153717 
	C309.758331,367.332703 308.658569,363.346497 308.732971,359.113190 
	C308.858337,351.978455 313.462128,347.571655 320.435791,347.840607 
	C327.551727,348.114990 331.866577,353.224823 330.972565,360.584778 
	C330.697662,362.847961 330.349426,365.213562 328.519958,367.397583 
z"/>
<path fill="#000000" opacity="1.000000" stroke="none" 
	d="
M279.685608,377.210266 
	C281.170288,369.387939 285.490997,366.456390 293.374786,367.498230 
	C299.439911,368.299744 302.727966,372.805328 302.219818,379.618408 
	C301.701324,386.570038 298.148956,389.518585 290.516785,389.332153 
	C282.953156,389.147430 279.851807,385.804352 279.685608,377.210266 
z"/>
<path fill="#000000" opacity="1.000000" stroke="none" 
	d="
M245.836548,385.896606 
	C247.140778,376.078125 251.958374,372.383179 260.197784,374.442383 
	C265.791962,375.840546 268.624603,379.886414 268.222595,385.904266 
	C267.803131,392.183685 264.867096,395.710999 259.530609,396.346771 
	C252.139404,397.227417 248.208557,394.955750 246.417847,388.747681 
	C246.187653,387.949677 246.047562,387.125671 245.836548,385.896606 
z"/>
<path fill="#000000" opacity="1.000000" stroke="none" 
	d="
M310.020996,227.429916 
	C314.307129,221.715363 321.755981,220.303589 326.982513,223.882782 
	C331.146057,226.734024 332.380127,235.369949 329.286957,240.312897 
	C326.520355,244.733902 322.108490,244.582336 317.719330,244.307037 
	C313.627136,244.050354 310.951141,241.834335 309.518738,238.041611 
	C308.211456,234.580154 308.586609,231.173645 310.020996,227.429916 
z"/>
<path fill="#000000" opacity="1.000000" stroke="none" 
	d="
M167.273926,285.312439 
	C176.511871,286.035980 179.957504,289.756531 179.302460,297.801636 
	C178.894989,302.806122 175.847885,306.290802 171.112732,307.167419 
	C165.053680,308.289124 159.868896,306.185333 157.835068,301.779938 
	C155.630707,297.005127 156.805267,290.350464 160.326797,287.463776 
	C162.245209,285.891205 164.567795,285.676575 167.273926,285.312439 
z"/>
<path fill="#000000" opacity="1.000000" stroke="none" 
	d="
M217.593735,368.244202 
	C218.920090,367.867157 219.887054,367.633636 220.866974,367.486328 
	C227.637680,366.468536 232.891418,369.111206 234.148941,374.147797 
	C235.756454,380.586304 233.377396,386.505707 228.375153,388.513672 
	C222.594620,390.834045 215.760437,389.075378 213.265472,384.625427 
	C210.302368,379.340546 212.067261,372.148529 217.593735,368.244202 
z"/>
<path fill="#000000" opacity="1.000000" stroke="none" 
	d="
M267.505249,202.954224 
	C269.451385,212.651764 265.765289,218.186859 257.617859,218.373810 
	C250.749969,218.531403 247.284317,215.811554 246.088303,209.325333 
	C244.977966,203.303940 247.710114,198.272354 252.971649,196.648727 
	C259.606720,194.601257 264.435791,196.580582 267.505249,202.954224 
z"/>
<path fill="#000000" opacity="1.000000" stroke="none" 
	d="
M335.698303,299.973206 
	C334.004578,290.220581 338.239685,284.874969 346.995361,285.243622 
	C352.927887,285.493408 356.348602,288.270203 357.190887,293.520020 
	C358.195709,299.782684 356.045380,304.693604 351.467438,306.591431 
	C346.238403,308.759186 339.574310,307.002167 336.722107,302.651672 
	C336.276733,301.972321 336.071655,301.135345 335.698303,299.973206 
z"/>
</svg>