<svg version="1.1" id="Layer_1" xmlns="http://www.w3.org/2000/svg" xmlns:xlink="http://www.w3.org/1999/xlink" x="0px" y="0px"
	 width="100%" viewBox="0 0 348 592" enable-background="new 0 0 348 592" xml:space="preserve">
<path fill="#FEFEFE" opacity="1.000000" stroke="none" 
	d="
M90.000000,593.000000 
	C60.007839,593.000000 30.515680,593.000000 1.017641,593.000000 
	C1.011761,395.726959 1.011761,198.453903 1.011761,1.090431 
	C116.908821,1.090431 232.817734,1.090431 348.863342,1.090431 
	C348.863342,198.333267 348.863342,395.666626 348.863342,593.000000 
	C262.787201,593.000000 176.643600,593.000000 90.000000,593.000000 
M122.381561,493.941559 
	C122.607445,493.157043 122.833328,492.372528 123.341492,490.986359 
	C123.483131,490.566711 123.624771,490.147034 124.429428,489.635742 
	C125.941727,487.346527 126.649498,485.190155 123.052696,483.238556 
	C122.777641,482.956451 122.502594,482.674377 122.463867,481.756653 
	C121.366341,480.766022 120.268806,479.775421 119.171272,478.784790 
	C118.776192,479.518738 118.381111,480.252686 117.999199,480.999451 
	C117.999199,480.999451 117.985825,480.987122 117.302094,481.144226 
	C116.464317,482.243927 115.626549,483.343597 114.637024,484.642487 
	C112.856529,482.724640 111.349319,481.101135 109.797272,479.429382 
	C103.466393,487.968292 103.065346,491.582001 107.879715,496.572083 
	C108.697655,497.419922 109.995743,497.804474 111.072029,498.403046 
	C111.543846,497.167053 112.015663,495.931030 112.654358,494.256592 
	C112.654358,494.256592 112.837036,493.824493 113.689049,493.802246 
	C115.175949,494.312927 116.752892,494.653595 118.125313,495.380432 
	C119.601006,496.161957 121.056992,498.170532 121.632332,494.438538 
	C121.632332,494.438538 121.712532,494.206635 122.381561,493.941559 
M165.171539,462.353973 
	C165.292603,461.924438 165.413681,461.494904 166.166473,460.910065 
	C169.516571,456.072266 169.877502,454.274902 167.759995,451.468018 
	C167.652390,451.105988 167.544785,450.743988 167.711868,449.676147 
	C166.575241,446.946991 165.633789,444.173218 161.790421,444.165680 
	C157.278717,444.156860 154.323059,446.482239 151.253006,450.105438 
	C149.646790,452.176239 148.040573,454.247040 146.146057,456.865875 
	C145.920441,457.418213 145.694839,457.970520 145.030258,458.878082 
	C144.840576,459.403717 144.650879,459.929321 143.787613,460.589020 
	C143.477982,461.366699 143.168350,462.144409 142.594284,463.217255 
	C142.594284,463.217255 142.450638,463.586609 141.789352,463.659973 
	C140.907455,466.108429 140.025558,468.556915 138.959518,471.591614 
	C138.897293,471.996185 138.835083,472.400787 138.153229,473.039551 
	C137.775787,475.358429 137.398361,477.677338 136.859329,480.703979 
	C136.970276,481.160767 137.081223,481.617584 137.026825,482.927368 
	C137.085403,484.952179 137.143982,486.977020 136.760086,489.475983 
	C137.829620,497.880585 139.835236,499.309784 147.968796,499.771667 
	C168.764633,500.952667 189.774979,496.711304 210.624634,502.662750 
	C210.624634,502.662750 210.935425,503.037994 210.703735,503.674805 
	C210.793594,504.114838 210.883453,504.554840 210.686096,505.677399 
	C210.486404,512.930725 208.567642,515.527344 201.892410,518.020752 
	C199.848236,518.784363 197.953644,519.948425 195.078766,520.931030 
	C171.882523,520.959290 148.686279,520.987488 125.290138,520.387695 
	C123.556824,517.566833 121.823509,514.745911 120.000381,511.924347 
	C120.000381,511.924347 119.981461,512.012146 120.308647,511.305328 
	C120.175476,510.546844 120.042305,509.788361 120.000046,508.435699 
	C118.517418,505.060211 117.131790,507.952698 116.912857,508.843109 
	C115.268890,515.529053 109.882301,518.213684 104.110229,521.118225 
	C104.110229,521.118225 103.950485,521.509705 103.594788,521.259949 
	C103.594788,521.259949 103.177132,521.381653 103.127724,520.659119 
	C97.226295,520.904358 96.287155,516.201294 94.286095,512.229431 
	C93.313431,510.298859 91.094177,507.803497 89.370773,507.749542 
	C87.272354,507.683807 84.245209,509.392883 83.105751,511.247375 
	C77.068794,521.072205 74.847916,532.087402 74.342224,543.484924 
	C74.300430,544.426758 74.910515,545.397461 75.217712,546.354797 
	C77.084473,543.745483 77.715904,541.072571 78.525314,538.454590 
	C79.737816,534.532898 80.740822,530.489624 82.500198,526.817749 
	C83.386436,524.968079 85.741440,523.822205 87.432289,522.358154 
	C88.784874,524.087341 90.651871,525.623108 91.388908,527.583679 
	C93.240402,532.508789 95.920181,534.840454 101.698120,534.743164 
	C107.695694,534.642273 112.453819,533.714417 115.299576,527.978943 
	C115.448837,527.678101 116.155914,527.654053 115.414551,527.907410 
	C118.997932,530.425293 121.867310,534.176514 124.808876,534.233948 
	C148.464020,534.696289 172.133286,534.526855 195.796539,534.337646 
	C198.063644,534.319519 200.734528,533.369751 202.495956,531.954102 
	C206.500549,528.735657 210.055679,524.958008 213.681229,521.514282 
	C216.426392,526.237000 215.046631,534.229187 224.192108,534.626038 
	C231.069733,534.924500 237.063293,534.234070 240.517548,526.591370 
	C242.342545,529.061829 243.489960,530.834656 244.856262,532.418640 
	C247.651657,535.659363 252.341293,535.344666 254.695129,531.731995 
	C254.695129,531.731995 254.777115,531.419983 255.337830,531.515442 
	C255.658981,530.959229 255.980118,530.402954 256.707642,529.277039 
	C256.762817,529.050476 256.817993,528.823853 257.486847,528.430176 
	C258.863647,526.095764 260.240417,523.761292 261.878296,520.984192 
	C263.230042,522.516968 264.212738,523.757812 265.324921,524.869080 
	C268.859192,528.400391 271.682037,528.421997 274.073608,524.114441 
	C275.738037,521.116577 276.095215,517.392822 277.227173,513.290588 
	C277.377167,512.582458 277.527161,511.874329 278.397522,511.024689 
	C281.077118,506.724121 280.014435,495.014404 276.457214,492.365845 
	C275.929352,491.972839 273.848206,492.875305 273.167114,493.724792 
	C272.605835,494.424805 273.053894,495.934082 272.891998,497.500702 
	C272.891998,497.500702 272.770813,497.930573 272.156860,498.106812 
	C272.156891,499.079193 272.156952,500.051544 272.116333,501.857269 
	C272.100281,503.233643 272.084229,504.610046 271.497375,506.263275 
	C271.360504,507.407562 271.223633,508.551849 271.125824,509.369537 
	C269.343292,508.538971 267.682831,507.765289 265.691193,506.421661 
	C265.663513,505.987457 265.635834,505.553284 266.257874,504.754578 
	C266.100647,502.997803 266.246552,501.126038 265.644318,499.538025 
	C265.385681,498.856110 263.573364,498.763458 262.466949,498.403076 
	C262.618164,499.428040 262.769348,500.453003 262.237091,501.931335 
	C262.204285,502.981049 262.171478,504.030762 261.939941,505.054504 
	C261.939941,505.054504 261.809387,504.902466 261.137115,505.073151 
	C259.642975,508.125793 257.944794,511.098206 256.704926,514.250854 
	C255.053802,518.449219 251.724136,517.294983 248.857254,516.779419 
	C247.497131,516.534790 246.384674,514.912964 245.016052,514.077271 
	C245.016052,514.077271 244.801666,514.109924 245.093201,513.299805 
	C245.060120,511.866852 245.027039,510.433929 245.510361,508.570679 
	C244.822235,507.152191 244.134109,505.733704 243.446014,504.315216 
	C242.746552,505.686188 242.047089,507.057159 241.256760,508.953613 
	C241.137192,509.287842 241.017624,509.622040 240.207260,510.161194 
	C240.037918,510.976440 239.868561,511.791687 239.566772,513.117004 
	C239.385941,513.415466 239.205124,513.713989 238.291962,514.091614 
	C238.025787,514.898254 237.759628,515.704956 237.260391,516.922974 
	C237.063217,517.179993 236.814148,517.368469 235.614014,517.170288 
	C230.009750,517.251160 224.260971,519.506104 218.667786,515.221924 
	C217.957794,511.845367 217.247803,508.468811 216.641495,504.273041 
	C216.514175,502.909668 216.386856,501.546295 216.623749,499.426910 
	C216.488647,497.774292 216.353546,496.121643 216.614273,493.810486 
	C216.054352,492.889801 215.494415,491.969086 214.788696,490.669952 
	C214.788696,490.669952 214.691498,490.276184 214.850510,489.563538 
	C213.589264,487.869385 214.000610,483.989288 209.391281,485.831604 
	C208.980743,485.782715 208.570221,485.733826 207.815720,485.005402 
	C206.055252,484.759674 204.295547,484.307373 202.534180,484.300751 
	C187.474838,484.244080 172.415039,484.231018 157.355698,484.288910 
	C152.269669,484.308472 147.125748,484.832062 142.753113,480.230225 
	C142.802643,479.136200 142.852158,478.042206 143.627304,476.788483 
	C143.855759,475.697998 144.084213,474.607544 144.473663,472.959076 
	C144.598236,472.592773 144.722794,472.226501 145.509827,471.734039 
	C149.924545,466.777008 154.704361,462.595306 162.538162,464.105988 
	C162.538162,464.105988 163.021469,464.179749 163.337616,464.674438 
	C163.887085,464.115509 164.436554,463.556580 165.171539,462.353973 
M151.879807,405.858795 
	C153.699585,406.478119 155.492630,407.339935 157.357986,407.545746 
	C157.822586,407.596985 158.520889,405.529877 159.377243,404.053925 
	C159.377243,404.053925 159.702881,403.721100 160.479324,403.731750 
	C160.790558,402.336060 161.101791,400.940369 161.414169,398.755829 
	C161.392517,396.658447 161.370880,394.561035 161.738144,391.723450 
	C160.377670,389.306213 159.430603,386.426941 157.473785,384.676300 
	C156.562286,383.860840 152.998154,384.575226 151.869843,385.765411 
	C150.067047,387.667206 149.292694,390.543915 147.944778,393.883514 
	C147.801575,398.075623 147.343857,402.369995 151.879807,405.858795 
M230.895767,286.836426 
	C231.449692,284.149811 232.513626,281.449799 232.443604,278.779541 
	C232.324692,274.246246 232.386993,268.671600 226.620499,267.637878 
	C220.876221,266.608154 219.927185,272.122223 217.975479,276.885315 
	C217.437729,281.132935 218.362488,284.905853 221.082138,288.349609 
	C224.826401,293.090790 227.400726,292.846741 230.895767,286.836426 
M131.220764,379.288208 
	C130.897293,383.735687 132.521698,387.384827 136.824600,388.686066 
	C140.835464,389.898987 143.183136,386.794128 144.111069,383.507446 
	C145.731918,377.766327 146.062332,371.760773 141.379745,367.191833 
	C140.116272,365.959045 136.179535,365.482300 135.072998,366.464569 
	C132.343704,368.887238 129.607086,372.064209 131.730927,376.976959 
	C131.725266,377.505554 131.719604,378.034119 131.220764,379.288208 
M235.758148,309.694336 
	C235.741867,306.034180 234.333817,303.134277 230.568604,302.371613 
	C226.143951,301.475403 223.908005,304.789734 223.335464,308.158936 
	C222.641434,312.243073 222.715027,316.694031 223.602325,320.734650 
	C224.294540,323.886841 226.875778,327.001282 230.899414,325.666046 
	C234.442322,324.490326 236.467010,321.697998 235.434006,316.783966 
	C235.418137,314.669800 235.402252,312.555603 235.758148,309.694336 
M161.445633,234.763000 
	C161.409164,232.664566 161.372696,230.566147 161.728775,227.728500 
	C160.362244,225.288895 159.358231,222.484451 157.450836,220.589157 
	C156.687653,219.830826 153.442947,220.476257 152.174774,221.515869 
	C147.568481,225.291931 146.517105,234.729980 149.814255,239.776917 
	C151.585602,242.488327 153.856842,245.186325 157.377823,243.515045 
	C160.366638,242.096344 162.573853,239.470337 161.445633,234.763000 
M195.871948,221.226120 
	C188.923615,225.584305 187.664444,236.803040 193.745529,241.441635 
	C194.847565,242.282257 197.828705,242.740707 197.997070,242.403702 
	C199.775574,238.843887 202.108643,235.158142 202.393188,231.364944 
	C202.695770,227.331528 201.532272,222.793442 195.871948,221.226120 
M202.638062,395.748199 
	C201.755569,393.138428 201.163788,390.380249 199.924622,387.952515 
	C197.904770,383.995331 195.510727,384.336487 192.886780,387.718994 
	C189.618607,391.932007 189.138062,399.850922 192.179260,404.106140 
	C194.747406,407.699432 198.122314,407.854584 200.459747,403.997803 
	C201.762115,401.848907 201.944611,399.021332 202.638062,395.748199 
M209.596817,243.070892 
	C206.808777,247.691788 206.579361,252.532990 208.804871,257.353333 
	C211.119431,262.366516 215.109329,262.849670 218.071686,258.684418 
	C220.939926,254.651520 220.779510,246.449951 217.610092,242.683670 
	C215.240921,239.868332 212.666946,238.590851 209.596817,243.070892 
M122.779854,340.298218 
	C118.721535,347.090515 119.032616,354.143982 123.911057,358.243469 
	C124.848862,359.031555 127.282318,359.235779 128.263016,358.575836 
	C133.267090,355.208344 133.752319,345.490082 129.715225,340.334930 
	C127.532669,337.547913 125.628273,337.379181 122.779854,340.298218 
M142.880951,244.599869 
	C138.672806,239.233917 137.193848,238.950333 133.910980,242.879944 
	C130.999222,246.365341 130.794800,255.334000 133.547012,258.848602 
	C136.471924,262.583740 139.497681,262.649017 142.108658,258.577484 
	C144.744492,254.467194 145.061539,249.910599 142.880951,244.599869 
M124.987999,323.442505 
	C129.406525,318.631042 128.778320,312.907990 127.004234,307.552582 
	C125.306870,302.428741 120.821815,302.119202 117.783951,306.377167 
	C115.345581,309.794861 115.131546,318.323822 117.738045,321.559753 
	C119.407227,323.632019 121.263138,326.317993 124.987999,323.442505 
M121.888458,286.650970 
	C125.787170,290.704681 127.925430,290.833099 130.553146,287.171326 
	C132.686096,284.199005 132.819855,274.792511 130.772034,271.779999 
	C128.039108,267.759674 122.816353,267.936462 121.678421,272.601166 
	C120.649300,276.819824 121.558151,281.511230 121.888458,286.650970 
M178.790207,233.252625 
	C179.855972,230.359146 181.575363,227.526978 181.853653,224.559647 
	C182.463562,218.056427 179.659500,214.074631 175.422958,214.214294 
	C171.891296,214.330719 169.319183,218.961533 169.586716,224.721878 
	C169.914078,231.770615 172.207870,234.131714 178.790207,233.252625 
M171.355545,396.827271 
	C168.961441,401.420502 168.828400,406.169708 171.178970,410.691376 
	C171.928818,412.133820 174.091019,413.750671 175.536270,413.686798 
	C177.240250,413.611572 180.077652,412.007660 180.303314,410.700531 
	C181.006912,406.625000 181.496994,402.198029 180.599579,398.240784 
	C179.494553,393.368073 175.880600,392.861633 171.355545,396.827271 
M208.043320,371.511841 
	C205.720901,376.852356 206.389084,381.902740 209.855392,386.469818 
	C212.243149,389.615845 214.977234,389.659760 217.691864,386.641754 
	C220.875000,383.102814 222.166214,375.659424 219.671188,371.278748 
	C218.401901,369.050201 216.097900,366.237885 214.011429,366.013184 
	C212.293732,365.828247 210.207199,369.068512 208.043320,371.511841 
M219.935989,356.467377 
	C224.637772,362.168793 228.429825,362.468445 230.954117,356.832703 
	C233.557251,351.021027 233.682190,344.901947 229.795166,339.353485 
	C227.675400,336.327698 224.018661,336.338684 221.613327,339.154572 
	C217.262909,344.247528 217.005661,349.824554 219.935989,356.467377 
z"/>
<path fill="#030303" opacity="1.000000" stroke="none" 
	d="
M142.450638,463.586609 
	C142.450638,463.586609 142.594284,463.217255 143.097351,463.037842 
	C143.887344,462.057251 144.174255,461.256073 144.461182,460.454926 
	C144.650879,459.929321 144.840576,459.403717 145.605835,458.835602 
	C147.124695,457.533051 148.067963,456.272980 149.161530,454.828278 
	C149.530792,454.411835 149.772385,454.206696 150.396561,454.003418 
	C154.921005,450.159241 160.178360,449.744995 165.494812,449.349121 
	C165.572342,449.424835 165.714203,449.588715 165.551849,449.936035 
	C165.972870,451.158569 166.556259,452.033783 167.090424,453.286743 
	C166.386963,455.794098 165.732727,457.923767 164.617767,460.097534 
	C162.942871,460.306549 161.728729,460.471436 160.154419,460.618042 
	C158.358566,460.645111 156.922852,460.690460 155.118469,460.530090 
	C149.174835,460.612030 142.534042,468.237946 142.782654,474.368225 
	C142.779984,475.477814 142.840836,476.213013 142.901672,476.948181 
	C142.852158,478.042206 142.802643,479.136200 142.690674,480.942871 
	C142.707657,482.102997 142.787094,482.550507 142.646194,483.225220 
	C142.744705,487.525177 145.524490,487.870819 148.784027,487.861847 
	C167.208405,487.811249 185.633026,487.834625 204.057556,487.849335 
	C210.263992,487.854309 213.329224,490.675568 214.261353,496.792969 
	C214.444733,497.996521 215.569138,499.056641 216.259537,500.182922 
	C216.386856,501.546295 216.514175,502.909668 216.349808,505.000793 
	C216.073074,508.202087 215.627594,510.792358 216.217712,513.120056 
	C216.982086,516.135132 217.803665,519.875427 219.960892,521.649048 
	C225.017456,525.806274 236.296539,522.714111 239.992340,517.209167 
	C240.968475,515.755188 243.165359,515.120728 244.801666,514.109924 
	C244.801666,514.109924 245.016052,514.077271 244.953369,514.363464 
	C244.982086,515.425964 245.073502,516.202209 244.903198,517.161438 
	C244.711563,521.124329 246.669540,523.074829 250.416809,522.985718 
	C253.397644,522.914856 256.524231,522.795166 256.752991,518.355835 
	C257.170990,517.926514 257.421112,517.692078 258.067383,517.697815 
	C258.891541,518.717468 259.319489,519.497009 259.362427,520.323975 
	C258.778412,521.293823 258.579376,522.216248 258.274841,523.450073 
	C258.017700,524.400574 257.866058,525.039734 257.383698,525.810913 
	C253.278915,529.252686 249.372314,531.961853 244.086395,528.456421 
	C243.762039,527.494629 243.518448,526.862915 243.412964,525.950317 
	C242.602844,525.095764 241.654617,524.522156 240.364365,524.102539 
	C236.478638,529.603638 231.632019,531.450317 225.164658,531.164673 
	C220.387970,530.953674 217.700577,529.588013 216.647827,524.896301 
	C216.007233,522.041443 214.930344,519.284485 213.744263,515.513245 
	C211.897675,518.193848 210.611115,520.215027 209.171005,522.120117 
	C206.113373,526.165161 203.236572,530.521057 197.060425,530.145264 
	C193.591705,529.870544 190.353073,529.988464 187.114319,529.991333 
	C167.410675,530.008728 147.706711,529.956543 128.003784,530.078308 
	C126.336861,530.088623 124.676773,531.204529 122.691925,531.702515 
	C121.157043,529.647644 119.761131,527.784668 118.773003,525.726013 
	C117.273888,522.602844 115.997459,522.442139 114.003571,525.374573 
	C112.787056,527.163696 111.012077,528.573120 108.990051,530.108154 
	C104.249969,530.172424 100.007774,530.281555 95.419250,530.267456 
	C94.098755,528.500244 93.218758,526.790283 92.125870,525.229370 
	C90.847351,523.403320 89.383331,521.707214 87.959236,519.660034 
	C87.508835,519.058655 87.098984,518.751892 86.689133,518.445129 
	C86.459442,518.959656 86.229752,519.474182 85.737579,520.100952 
	C84.783363,520.522583 84.091629,520.831970 82.948982,521.096436 
	C81.893845,521.036682 81.289627,521.021729 80.686646,520.635498 
	C81.993347,517.795959 83.298813,515.327759 85.046371,512.897583 
	C87.509178,512.563843 89.529884,512.192078 91.833450,511.963562 
	C92.745331,513.367249 93.374336,514.627625 94.006065,516.184204 
	C94.015236,516.677734 94.021675,516.875122 94.047272,517.374878 
	C94.463783,518.071716 94.861153,518.466187 95.260529,519.184082 
	C95.822334,520.032654 96.382149,520.557739 97.147064,521.205811 
	C97.636108,521.485474 97.873924,521.694580 98.110207,522.240417 
	C98.684044,523.277527 99.213287,524.030396 100.141632,524.839783 
	C101.677299,523.767456 102.813889,522.638550 103.950485,521.509705 
	C103.950485,521.509705 104.110229,521.118225 104.669586,521.349976 
	C106.758003,521.533203 108.287079,521.484802 110.126083,521.545166 
	C110.877129,521.065125 111.318230,520.476379 112.003250,519.644043 
	C114.088203,516.729919 115.929237,514.059326 118.124443,511.548889 
	C118.979561,511.810120 119.480507,511.911133 119.981461,512.012146 
	C119.981461,512.012146 120.000381,511.924347 119.865303,512.306946 
	C120.419647,515.060791 121.109062,517.432068 121.624435,520.093262 
	C122.032234,520.728516 122.614067,521.073914 123.605377,521.537354 
	C124.506569,521.442139 124.998291,521.228943 125.490021,521.015747 
	C148.686279,520.987488 171.882523,520.959290 195.709198,521.247314 
	C207.340332,521.444824 213.104568,515.365112 212.226227,504.809570 
	C211.916489,504.093262 211.425964,503.565643 210.935425,503.037994 
	C210.935425,503.037994 210.624634,502.662750 210.517487,502.090881 
	C209.236816,498.587860 206.949356,497.995514 204.005630,498.004730 
	C184.348541,498.066315 164.691055,497.998444 144.914505,497.664185 
	C143.464127,496.756592 142.132935,496.157440 140.520844,495.339355 
	C139.227478,493.080872 138.215027,491.041351 137.202576,489.001831 
	C137.143982,486.977020 137.085403,484.952179 137.373993,482.491638 
	C137.821609,481.370789 137.922073,480.685699 138.078949,479.716248 
	C138.180817,479.048065 138.226242,478.664276 138.527374,478.137329 
	C138.860870,476.995331 138.938660,475.996460 139.068939,474.621307 
	C139.005234,473.765106 138.889053,473.285248 138.772858,472.805359 
	C138.835083,472.400787 138.897293,471.996185 139.373657,471.286133 
	C140.235535,470.038330 140.683304,469.096008 141.412354,468.015564 
	C141.849777,467.185944 142.005920,466.494507 142.348801,465.453857 
	C142.507233,464.598663 142.478943,464.092621 142.450638,463.586609 
z"/>
<path fill="#717171" opacity="1.000000" stroke="none" 
	d="
M87.999786,519.954712 
	C89.383331,521.707214 90.847351,523.403320 92.125870,525.229370 
	C93.218758,526.790283 94.098755,528.500244 95.550667,530.651733 
	C100.666916,532.857361 105.251167,533.829712 109.487930,530.153076 
	C111.012077,528.573120 112.787056,527.163696 114.003571,525.374573 
	C115.997459,522.442139 117.273888,522.602844 118.773003,525.726013 
	C119.761131,527.784668 121.157043,529.647644 123.026237,531.962646 
	C124.160988,532.448669 124.640312,532.678589 125.118652,532.676575 
	C147.964355,532.579529 170.810226,532.490601 193.654831,532.268921 
	C194.872360,532.257080 196.078842,531.105652 197.290466,530.484680 
	C203.236572,530.521057 206.113373,526.165161 209.171005,522.120117 
	C210.611115,520.215027 211.897675,518.193848 213.744263,515.513245 
	C214.930344,519.284485 216.007233,522.041443 216.647827,524.896301 
	C217.700577,529.588013 220.387970,530.953674 225.164658,531.164673 
	C231.632019,531.450317 236.478638,529.603638 240.562103,524.406006 
	C241.826218,525.114014 242.550537,525.672607 243.274841,526.231262 
	C243.518448,526.862915 243.762039,527.494629 244.161728,528.809814 
	C246.902283,533.583313 250.394455,533.826477 254.404846,531.873657 
	C252.341293,535.344666 247.651657,535.659363 244.856262,532.418640 
	C243.489960,530.834656 242.342545,529.061829 240.517548,526.591370 
	C237.063293,534.234070 231.069733,534.924500 224.192108,534.626038 
	C215.046631,534.229187 216.426392,526.237000 213.681229,521.514282 
	C210.055679,524.958008 206.500549,528.735657 202.495956,531.954102 
	C200.734528,533.369751 198.063644,534.319519 195.796539,534.337646 
	C172.133286,534.526855 148.464020,534.696289 124.808876,534.233948 
	C121.867310,534.176514 118.997932,530.425293 115.414551,527.907410 
	C116.155914,527.654053 115.448837,527.678101 115.299576,527.978943 
	C112.453819,533.714417 107.695694,534.642273 101.698120,534.743164 
	C95.920181,534.840454 93.240402,532.508789 91.388908,527.583679 
	C90.651871,525.623108 88.784874,524.087341 87.432289,522.358154 
	C85.741440,523.822205 83.386436,524.968079 82.500198,526.817749 
	C80.740822,530.489624 79.737816,534.532898 78.525314,538.454590 
	C77.715904,541.072571 77.084473,543.745483 75.217712,546.354797 
	C74.910515,545.397461 74.300430,544.426758 74.342224,543.484924 
	C74.847916,532.087402 77.068794,521.072205 83.105751,511.247375 
	C84.245209,509.392883 87.272354,507.683807 89.370773,507.749542 
	C91.094177,507.803497 93.313431,510.298859 94.286095,512.229431 
	C96.287155,516.201294 97.226295,520.904358 102.869247,521.243347 
	C102.151413,521.956909 101.692055,522.086304 100.840202,522.141968 
	C99.653679,522.030884 98.859642,521.993530 98.065613,521.956177 
	C97.873924,521.694580 97.636108,521.485474 97.148666,520.887878 
	C96.382950,519.918152 95.820740,519.389404 95.258530,518.860596 
	C94.861153,518.466187 94.463783,518.071716 94.265800,517.273682 
	C94.541527,516.728760 94.714020,516.499878 94.678223,516.460510 
	C94.481407,516.244080 94.233627,516.074036 94.003342,515.888062 
	C93.374336,514.627625 92.745331,513.367249 91.712402,511.579102 
	C88.068512,507.926910 86.401672,510.635223 84.604279,512.859558 
	C83.298813,515.327759 81.993347,517.795959 80.510658,520.935547 
	C79.752487,523.526001 79.171539,525.445068 78.590591,527.364075 
	C78.935356,527.505920 79.280113,527.647766 79.624870,527.789612 
	C80.883209,525.573486 82.141541,523.357422 83.399887,521.141296 
	C84.091629,520.831970 84.783363,520.522583 86.070450,520.148987 
	C87.110466,520.041382 87.555130,519.998047 87.999786,519.954712 
z"/>
<path fill="#212121" opacity="1.000000" stroke="none" 
	d="
M196.176270,221.226654 
	C201.532272,222.793442 202.695770,227.331528 202.393188,231.364944 
	C202.108643,235.158142 199.775574,238.843887 197.997070,242.403702 
	C197.828705,242.740707 194.847565,242.282257 193.745529,241.441635 
	C187.664444,236.803040 188.923615,225.584305 196.176270,221.226654 
z"/>
<path fill="#232323" opacity="1.000000" stroke="none" 
	d="
M202.634918,396.123901 
	C201.944611,399.021332 201.762115,401.848907 200.459747,403.997803 
	C198.122314,407.854584 194.747406,407.699432 192.179260,404.106140 
	C189.138062,399.850922 189.618607,391.932007 192.886780,387.718994 
	C195.510727,384.336487 197.904770,383.995331 199.924622,387.952515 
	C201.163788,390.380249 201.755569,393.138428 202.634918,396.123901 
z"/>
<path fill="#222222" opacity="1.000000" stroke="none" 
	d="
M209.861404,242.831879 
	C212.666946,238.590851 215.240921,239.868332 217.610092,242.683670 
	C220.779510,246.449951 220.939926,254.651520 218.071686,258.684418 
	C215.109329,262.849670 211.119431,262.366516 208.804871,257.353333 
	C206.579361,252.532990 206.808777,247.691788 209.861404,242.831879 
z"/>
<path fill="#232323" opacity="1.000000" stroke="none" 
	d="
M123.032211,340.074890 
	C125.628273,337.379181 127.532669,337.547913 129.715225,340.334930 
	C133.752319,345.490082 133.267090,355.208344 128.263016,358.575836 
	C127.282318,359.235779 124.848862,359.031555 123.911057,358.243469 
	C119.032616,354.143982 118.721535,347.090515 123.032211,340.074890 
z"/>
<path fill="#222222" opacity="1.000000" stroke="none" 
	d="
M142.993240,244.959030 
	C145.061539,249.910599 144.744492,254.467194 142.108658,258.577484 
	C139.497681,262.649017 136.471924,262.583740 133.547012,258.848602 
	C130.794800,255.334000 130.999222,246.365341 133.910980,242.879944 
	C137.193848,238.950333 138.672806,239.233917 142.993240,244.959030 
z"/>
<path fill="#212121" opacity="1.000000" stroke="none" 
	d="
M124.822601,323.719177 
	C121.263138,326.317993 119.407227,323.632019 117.738045,321.559753 
	C115.131546,318.323822 115.345581,309.794861 117.783951,306.377167 
	C120.821815,302.119202 125.306870,302.428741 127.004234,307.552582 
	C128.778320,312.907990 129.406525,318.631042 124.822601,323.719177 
z"/>
<path fill="#232323" opacity="1.000000" stroke="none" 
	d="
M121.750458,286.322571 
	C121.558151,281.511230 120.649300,276.819824 121.678421,272.601166 
	C122.816353,267.936462 128.039108,267.759674 130.772034,271.779999 
	C132.819855,274.792511 132.686096,284.199005 130.553146,287.171326 
	C127.925430,290.833099 125.787170,290.704681 121.750458,286.322571 
z"/>
<path fill="#212121" opacity="1.000000" stroke="none" 
	d="
M178.510773,233.436432 
	C172.207870,234.131714 169.914078,231.770615 169.586716,224.721878 
	C169.319183,218.961533 171.891296,214.330719 175.422958,214.214294 
	C179.659500,214.074631 182.463562,218.056427 181.853653,224.559647 
	C181.575363,227.526978 179.855972,230.359146 178.510773,233.436432 
z"/>
<path fill="#212121" opacity="1.000000" stroke="none" 
	d="
M171.499847,396.508606 
	C175.880600,392.861633 179.494553,393.368073 180.599579,398.240784 
	C181.496994,402.198029 181.006912,406.625000 180.303314,410.700531 
	C180.077652,412.007660 177.240250,413.611572 175.536270,413.686798 
	C174.091019,413.750671 171.928818,412.133820 171.178970,410.691376 
	C168.828400,406.169708 168.961441,401.420502 171.499847,396.508606 
z"/>
<path fill="#464646" opacity="1.000000" stroke="none" 
	d="
M216.441650,499.804932 
	C215.569138,499.056641 214.444733,497.996521 214.261353,496.792969 
	C213.329224,490.675568 210.263992,487.854309 204.057556,487.849335 
	C185.633026,487.834625 167.208405,487.811249 148.784027,487.861847 
	C145.524490,487.870819 142.744705,487.525177 142.999039,483.370789 
	C145.861862,484.254730 148.137283,486.015137 150.443451,486.056366 
	C164.889145,486.314545 179.341904,486.230652 193.791901,486.167755 
	C198.581787,486.146912 203.370453,485.853638 208.159683,485.684906 
	C208.570221,485.733826 208.980743,485.782715 209.849838,486.140503 
	C211.769424,487.724976 213.230469,489.000580 214.691498,490.276184 
	C214.691498,490.276184 214.788696,490.669952 214.795807,491.183105 
	C215.274765,492.620483 215.746597,493.544739 216.218445,494.469025 
	C216.353546,496.121643 216.488647,497.774292 216.441650,499.804932 
z"/>
<path fill="#717171" opacity="1.000000" stroke="none" 
	d="
M145.033691,497.972626 
	C164.691055,497.998444 184.348541,498.066315 204.005630,498.004730 
	C206.949356,497.995514 209.236816,498.587860 210.400482,501.877197 
	C189.774979,496.711304 168.764633,500.952667 147.968796,499.771667 
	C139.835236,499.309784 137.829620,497.880585 136.981323,489.238892 
	C138.215027,491.041351 139.227478,493.080872 140.629791,495.645081 
	C142.357666,496.770752 143.695679,497.371704 145.033691,497.972626 
z"/>
<path fill="#151515" opacity="1.000000" stroke="none" 
	d="
M161.336243,228.467712 
	C161.372696,230.566147 161.409164,232.664566 161.122070,235.324829 
	C159.684143,239.012009 157.836990,240.890900 154.154114,240.303696 
	C150.299286,239.689087 150.210632,236.677307 150.036697,233.922623 
	C149.892654,231.641037 149.914185,229.173843 150.661514,227.073196 
	C151.153427,225.690506 152.979797,224.057281 154.360977,223.903366 
	C156.016357,223.718887 157.949768,224.790009 159.534470,225.710480 
	C160.382736,226.203171 160.751236,227.521805 161.336243,228.467712 
z"/>
<path fill="#151515" opacity="1.000000" stroke="none" 
	d="
M159.702881,403.721100 
	C159.702881,403.721100 159.377243,404.053925 159.088898,404.193939 
	C158.567139,404.299835 158.363541,404.362518 157.811859,404.438416 
	C151.210358,404.328583 150.305862,403.504395 149.959259,397.416809 
	C149.875519,395.945953 149.920975,394.467773 150.060333,392.648743 
	C151.699402,390.804077 153.574249,387.827728 154.593521,388.096466 
	C157.057922,388.746216 159.123108,390.910126 161.349228,392.463654 
	C161.370880,394.561035 161.392517,396.658447 161.107635,399.304138 
	C160.435028,401.142029 160.068954,402.431549 159.702881,403.721100 
z"/>
<path fill="#151515" opacity="1.000000" stroke="none" 
	d="
M235.386383,310.441437 
	C235.402252,312.555603 235.418137,314.669800 235.154800,317.380127 
	C233.758820,321.125214 231.898865,323.020905 228.200729,322.319214 
	C224.439972,321.605682 224.269577,318.630798 224.133469,315.842804 
	C224.021790,313.555542 224.030655,311.071533 224.827438,308.998047 
	C225.355728,307.623291 227.269424,306.167328 228.744751,305.942932 
	C230.214584,305.719360 232.036316,306.787109 233.462341,307.675964 
	C234.338089,308.221771 234.760437,309.494904 235.386383,310.441437 
z"/>
<path fill="#151515" opacity="1.000000" stroke="none" 
	d="
M131.713943,378.562714 
	C131.719604,378.034119 131.725266,377.505554 131.997589,376.501526 
	C132.540848,374.902161 132.492996,373.501831 133.164200,372.714142 
	C134.413223,371.248260 136.160477,369.052765 137.554688,369.154572 
	C139.329407,369.284271 141.387711,371.099335 142.517807,372.742218 
	C143.439362,374.081940 143.570831,376.285980 143.352676,378.018646 
	C142.959076,381.144531 143.358093,385.089233 138.780319,385.720215 
	C134.293610,386.338654 133.186340,383.228638 132.530518,379.710815 
	C132.452423,379.291931 131.995346,378.943695 131.713943,378.562714 
z"/>
<path fill="#888888" opacity="1.000000" stroke="none" 
	d="
M208.163727,371.151306 
	C210.207199,369.068512 212.293732,365.828247 214.011429,366.013184 
	C216.097900,366.237885 218.401901,369.050201 219.671188,371.278748 
	C222.166214,375.659424 220.875000,383.102814 217.691864,386.641754 
	C214.977234,389.659760 212.243149,389.615845 209.855392,386.469818 
	C206.389084,381.902740 205.720901,376.852356 208.163727,371.151306 
M218.634995,380.862518 
	C218.550095,378.249847 218.961685,375.478668 218.196884,373.083069 
	C217.726852,371.610809 215.457504,369.804901 213.996292,369.805084 
	C212.444046,369.805267 209.971420,371.487915 209.541779,372.926147 
	C208.772827,375.500305 208.728806,378.566132 209.371109,381.183685 
	C209.756775,382.755371 212.013611,384.909546 213.433807,384.912781 
	C215.079773,384.916565 216.730484,382.848755 218.634995,380.862518 
z"/>
<path fill="#050505" opacity="1.000000" stroke="none" 
	d="
M265.608154,505.119080 
	C265.635834,505.553284 265.663513,505.987457 265.783966,507.049164 
	C267.210358,509.160889 268.544006,510.645111 269.783875,512.339355 
	C269.690125,512.549316 269.638367,513.006287 269.473328,513.287231 
	C271.247986,514.379578 273.187744,515.190979 275.106232,516.403320 
	C273.956940,522.845947 269.808167,525.570312 266.219879,522.575012 
	C263.604156,520.391602 261.104034,518.069824 258.755981,515.518860 
	C259.766663,513.537048 260.573792,511.846161 261.647308,510.121521 
	C261.961700,509.393829 262.009705,508.699860 262.072479,507.610046 
	C261.994629,506.443634 261.902008,505.673035 261.809387,504.902466 
	C261.809387,504.902466 261.939941,505.054504 262.450867,505.032471 
	C263.486145,504.843445 264.010468,504.676483 264.685425,504.688416 
	C264.836090,504.867340 265.149689,505.215210 265.149689,505.215210 
	C265.149689,505.215210 265.608154,505.119080 265.608154,505.119080 
z"/>
<path fill="#A4A4A4" opacity="1.000000" stroke="none" 
	d="
M219.770905,356.109985 
	C217.005661,349.824554 217.262909,344.247528 221.613327,339.154572 
	C224.018661,336.338684 227.675400,336.327698 229.795166,339.353485 
	C233.682190,344.901947 233.557251,351.021027 230.954117,356.832703 
	C228.429825,362.468445 224.637772,362.168793 219.770905,356.109985 
M230.883560,346.080597 
	C229.981155,342.973267 229.187820,339.786438 224.785446,340.381348 
	C220.501801,340.960205 220.310028,344.297333 220.075516,347.462097 
	C219.942154,349.261780 219.756134,351.383270 220.548019,352.841766 
	C221.494614,354.585236 223.236771,356.454102 225.036865,357.047516 
	C227.803207,357.959442 229.856079,356.227753 230.380234,353.307068 
	C230.757065,351.207275 230.805237,349.048523 230.883560,346.080597 
z"/>
<path fill="#B3B3B3" opacity="1.000000" stroke="none" 
	d="
M207.987701,485.345154 
	C203.370453,485.853638 198.581787,486.146912 193.791901,486.167755 
	C179.341904,486.230652 164.889145,486.314545 150.443451,486.056366 
	C148.137283,486.015137 145.861862,484.254730 143.219376,483.143555 
	C142.787094,482.550507 142.707657,482.102997 142.775269,481.347473 
	C147.125748,484.832062 152.269669,484.308472 157.355698,484.288910 
	C172.415039,484.231018 187.474838,484.244080 202.534180,484.300751 
	C204.295547,484.307373 206.055252,484.759674 207.987701,485.345154 
z"/>
<path fill="#9D9D9D" opacity="1.000000" stroke="none" 
	d="
M131.467346,378.925476 
	C131.995346,378.943695 132.452423,379.291931 132.530518,379.710815 
	C133.186340,383.228638 134.293610,386.338654 138.780319,385.720215 
	C143.358093,385.089233 142.959076,381.144531 143.352676,378.018646 
	C143.570831,376.285980 143.439362,374.081940 142.517807,372.742218 
	C141.387711,371.099335 139.329407,369.284271 137.554688,369.154572 
	C136.160477,369.052765 134.413223,371.248260 133.164200,372.714142 
	C132.492996,373.501831 132.540848,374.902161 131.983032,376.237549 
	C129.607086,372.064209 132.343704,368.887238 135.072998,366.464569 
	C136.179535,365.482300 140.116272,365.959045 141.379745,367.191833 
	C146.062332,371.760773 145.731918,377.766327 144.111069,383.507446 
	C143.183136,386.794128 140.835464,389.898987 136.824600,388.686066 
	C132.521698,387.384827 130.897293,383.735687 131.467346,378.925476 
z"/>
<path fill="#A4A4A4" opacity="1.000000" stroke="none" 
	d="
M235.572266,310.067871 
	C234.760437,309.494904 234.338089,308.221771 233.462341,307.675964 
	C232.036316,306.787109 230.214584,305.719360 228.744751,305.942932 
	C227.269424,306.167328 225.355728,307.623291 224.827438,308.998047 
	C224.030655,311.071533 224.021790,313.555542 224.133469,315.842804 
	C224.269577,318.630798 224.439972,321.605682 228.200729,322.319214 
	C231.898865,323.020905 233.758820,321.125214 235.171936,317.777100 
	C236.467010,321.697998 234.442322,324.490326 230.899414,325.666046 
	C226.875778,327.001282 224.294540,323.886841 223.602325,320.734650 
	C222.715027,316.694031 222.641434,312.243073 223.335464,308.158936 
	C223.908005,304.789734 226.143951,301.475403 230.568604,302.371613 
	C234.333817,303.134277 235.741867,306.034180 235.572266,310.067871 
z"/>
<path fill="#464646" opacity="1.000000" stroke="none" 
	d="
M244.947449,513.704834 
	C243.165359,515.120728 240.968475,515.755188 239.992340,517.209167 
	C236.296539,522.714111 225.017456,525.806274 219.960892,521.649048 
	C217.803665,519.875427 216.982086,516.135132 216.217712,513.120056 
	C215.627594,510.792358 216.073074,508.202087 216.297974,505.410400 
	C217.247803,508.468811 217.957794,511.845367 218.756104,516.011475 
	C222.990891,522.281189 231.576202,522.615112 236.513168,517.488281 
	C236.814148,517.368469 237.063217,517.179993 237.659958,516.577148 
	C238.381119,515.491699 238.702713,514.752075 239.024292,514.012451 
	C239.205124,513.713989 239.385941,513.415466 239.915039,512.715149 
	C240.474899,511.527618 240.686478,510.741943 240.898056,509.956268 
	C241.017624,509.622040 241.137192,509.287842 241.621002,508.653870 
	C242.988159,508.569733 243.991058,508.785339 244.993958,509.000977 
	C245.027039,510.433929 245.060120,511.866852 244.947449,513.704834 
z"/>
<path fill="#A4A4A4" opacity="1.000000" stroke="none" 
	d="
M161.532501,228.098114 
	C160.751236,227.521805 160.382736,226.203171 159.534470,225.710480 
	C157.949768,224.790009 156.016357,223.718887 154.360977,223.903366 
	C152.979797,224.057281 151.153427,225.690506 150.661514,227.073196 
	C149.914185,229.173843 149.892654,231.641037 150.036697,233.922623 
	C150.210632,236.677307 150.299286,239.689087 154.154114,240.303696 
	C157.836990,240.890900 159.684143,239.012009 161.115646,235.719696 
	C162.573853,239.470337 160.366638,242.096344 157.377823,243.515045 
	C153.856842,245.186325 151.585602,242.488327 149.814255,239.776917 
	C146.517105,234.729980 147.568481,225.291931 152.174774,221.515869 
	C153.442947,220.476257 156.687653,219.830826 157.450836,220.589157 
	C159.358231,222.484451 160.362244,225.288895 161.532501,228.098114 
z"/>
<path fill="#696969" opacity="1.000000" stroke="none" 
	d="
M258.552368,515.809753 
	C261.104034,518.069824 263.604156,520.391602 266.219879,522.575012 
	C269.808167,525.570312 273.956940,522.845947 275.324280,516.222046 
	C276.054504,515.090942 276.545441,514.542114 277.036377,513.993347 
	C276.095215,517.392822 275.738037,521.116577 274.073608,524.114441 
	C271.682037,528.421997 268.859192,528.400391 265.324921,524.869080 
	C264.212738,523.757812 263.230042,522.516968 261.878296,520.984192 
	C260.240417,523.761292 258.863647,526.095764 257.206665,528.207031 
	C257.189117,527.215515 257.451752,526.447205 257.714417,525.678894 
	C257.866058,525.039734 258.017700,524.400574 258.524231,523.365662 
	C259.168579,522.072144 259.458008,521.174316 259.747467,520.276550 
	C259.319489,519.497009 258.891541,518.717468 258.044434,517.442139 
	C257.934326,516.567505 258.243347,516.188599 258.552368,515.809753 
z"/>
<path fill="#888888" opacity="1.000000" stroke="none" 
	d="
M112.487473,494.695038 
	C112.015663,495.931030 111.543846,497.167053 111.072021,498.403046 
	C109.995743,497.804474 108.697655,497.419922 107.879715,496.572083 
	C103.065346,491.582001 103.466393,487.968292 109.797272,479.429382 
	C111.349319,481.101135 112.856529,482.724640 114.637024,484.642487 
	C115.626549,483.343597 116.464317,482.243927 117.727669,481.422607 
	C117.334213,483.429626 116.515190,485.158295 115.439018,486.879181 
	C114.838142,486.887451 114.494400,486.903503 113.798080,486.812714 
	C111.973984,485.763275 110.502472,484.820648 109.030945,483.878021 
	C108.347557,486.468384 106.980492,489.112091 107.177101,491.633850 
	C107.365852,494.054840 109.177025,496.346191 112.487473,494.695038 
z"/>
<path fill="#212121" opacity="1.000000" stroke="none" 
	d="
M277.131775,513.641968 
	C276.545441,514.542114 276.054504,515.090942 275.345520,515.821045 
	C273.187744,515.190979 271.247986,514.379578 269.804932,513.368652 
	C271.264557,512.876465 272.227509,512.583801 273.356567,511.967468 
	C273.037842,509.757996 272.553009,507.872223 272.068176,505.986420 
	C272.084229,504.610046 272.100281,503.233643 272.389832,501.221130 
	C272.699188,499.700165 272.735016,498.815369 272.770813,497.930573 
	C272.770813,497.930573 272.891998,497.500702 273.330780,497.141785 
	C274.548737,496.941620 275.973480,497.008606 276.011047,497.272797 
	C276.667358,501.889587 277.153778,506.530518 277.677124,511.166199 
	C277.527161,511.874329 277.377167,512.582458 277.131775,513.641968 
z"/>
<path fill="#A4A4A4" opacity="1.000000" stroke="none" 
	d="
M218.124710,276.011871 
	C219.927185,272.122223 220.876221,266.608154 226.620499,267.637878 
	C232.386993,268.671600 232.324692,274.246246 232.443604,278.779541 
	C232.513626,281.449799 231.449692,284.149811 230.402405,286.872162 
	C229.909042,286.907898 229.535904,286.609100 229.619507,286.216522 
	C230.151184,283.103882 230.995239,280.375702 230.939865,277.665924 
	C230.880402,274.755066 230.301605,271.555054 226.517868,270.945496 
	C222.655655,270.323334 220.838669,272.598480 219.676910,275.997437 
	C218.952454,276.001251 218.538589,276.006561 218.124710,276.011871 
z"/>
<path fill="#151515" opacity="1.000000" stroke="none" 
	d="
M115.696152,486.886963 
	C116.515190,485.158295 117.334213,483.429626 118.069534,481.344055 
	C117.985825,480.987122 117.999199,480.999451 118.331024,481.000793 
	C119.851082,481.465515 121.039307,481.928894 122.227539,482.392273 
	C122.502594,482.674377 122.777641,482.956451 123.151413,483.833069 
	C123.422226,486.194214 123.594315,487.960785 123.766418,489.727386 
	C123.624771,490.147034 123.483131,490.566711 122.965675,491.274597 
	C122.309013,491.922821 122.028160,492.282745 121.416794,492.779480 
	C120.380302,492.972046 119.674332,493.027802 118.762238,492.859619 
	C117.763458,491.718903 116.970810,490.802124 116.121193,489.510620 
	C115.941544,488.386261 115.818848,487.636597 115.696152,486.886963 
z"/>
<path fill="#C8C8C8" opacity="1.000000" stroke="none" 
	d="
M258.755981,515.518860 
	C258.243347,516.188599 257.934326,516.567505 257.648254,517.202026 
	C257.421112,517.692078 257.170990,517.926514 256.397369,518.412903 
	C251.626694,522.405029 248.224899,520.777100 245.164932,516.978516 
	C245.073502,516.202209 244.982086,515.425964 245.025330,514.282349 
	C246.384674,514.912964 247.497131,516.534790 248.857254,516.779419 
	C251.724136,517.294983 255.053802,518.449219 256.704926,514.250854 
	C257.944794,511.098206 259.642975,508.125793 261.473267,504.987793 
	C261.902008,505.673035 261.994629,506.443634 261.824738,507.803009 
	C261.501801,508.979645 261.441345,509.567444 261.380920,510.155273 
	C260.573792,511.846161 259.766663,513.537048 258.755981,515.518860 
z"/>
<path fill="#717171" opacity="1.000000" stroke="none" 
	d="
M212.045441,504.998260 
	C213.104568,515.365112 207.340332,521.444824 196.165085,521.246338 
	C197.953644,519.948425 199.848236,518.784363 201.892410,518.020752 
	C208.567642,515.527344 210.486404,512.930725 211.097748,505.338013 
	C211.688080,504.998505 211.866760,504.998383 212.045441,504.998260 
z"/>
<path fill="#C8C8C8" opacity="1.000000" stroke="none" 
	d="
M278.037354,511.095459 
	C277.153778,506.530518 276.667358,501.889587 276.011047,497.272797 
	C275.973480,497.008606 274.548737,496.941620 273.412109,496.933807 
	C273.053894,495.934082 272.605835,494.424805 273.167114,493.724792 
	C273.848206,492.875305 275.929352,491.972839 276.457214,492.365845 
	C280.014435,495.014404 281.077118,506.724121 278.037354,511.095459 
z"/>
<path fill="#0D0D0D" opacity="1.000000" stroke="none" 
	d="
M112.570915,494.475830 
	C109.177025,496.346191 107.365852,494.054840 107.177101,491.633850 
	C106.980492,489.112091 108.347557,486.468384 109.030945,483.878021 
	C110.502472,484.820648 111.973984,485.763275 113.799042,487.214783 
	C114.194656,488.524628 114.236725,489.325592 114.003052,490.336914 
	C113.430565,491.639648 113.133804,492.732086 112.837036,493.824493 
	C112.837036,493.824493 112.654358,494.256592 112.570915,494.475830 
z"/>
<path fill="#A4A4A4" opacity="1.000000" stroke="none" 
	d="
M161.543686,392.093567 
	C159.123108,390.910126 157.057922,388.746216 154.593521,388.096466 
	C153.574249,387.827728 151.699402,390.804077 149.756409,392.646393 
	C148.893967,392.994965 148.488754,393.001740 148.083557,393.008484 
	C149.292694,390.543915 150.067047,387.667206 151.869843,385.765411 
	C152.998154,384.575226 156.562286,383.860840 157.473785,384.676300 
	C159.430603,386.426941 160.377670,389.306213 161.543686,392.093567 
z"/>
<path fill="#717171" opacity="1.000000" stroke="none" 
	d="
M109.816147,521.436340 
	C108.287079,521.484802 106.758003,521.533203 104.869652,521.281555 
	C109.882301,518.213684 115.268890,515.529053 116.912857,508.843109 
	C117.131790,507.952698 118.517418,505.060211 119.648521,508.773132 
	C118.788086,509.869965 118.279175,510.629333 117.770264,511.388702 
	C115.929237,514.059326 114.088203,516.729919 111.742096,519.694458 
	C110.763390,520.471069 110.289764,520.953674 109.816147,521.436340 
z"/>
<path fill="#9D9D9D" opacity="1.000000" stroke="none" 
	d="
M218.050095,276.448608 
	C218.538589,276.006561 218.952454,276.001251 219.724548,276.428345 
	C219.845093,287.158051 221.981979,289.361664 229.535904,286.609100 
	C229.535904,286.609100 229.909042,286.907898 230.095703,287.058197 
	C227.400726,292.846741 224.826401,293.090790 221.082138,288.349609 
	C218.362488,284.905853 217.437729,281.132935 218.050095,276.448608 
z"/>
<path fill="#B3B3B3" opacity="1.000000" stroke="none" 
	d="
M155.487152,460.735779 
	C156.922852,460.690460 158.358566,460.645111 160.284515,460.899719 
	C161.210495,462.109894 161.646240,463.020142 162.081970,463.930359 
	C154.704361,462.595306 149.924545,466.777008 145.175888,471.444092 
	C148.390350,467.681396 151.938751,464.208588 155.487152,460.735779 
z"/>
<path fill="#C8C8C8" opacity="1.000000" stroke="none" 
	d="
M236.063599,517.329285 
	C231.576202,522.615112 222.990891,522.281189 218.867844,516.429871 
	C224.260971,519.506104 230.009750,517.251160 236.063599,517.329285 
z"/>
<path fill="#B3B3B3" opacity="1.000000" stroke="none" 
	d="
M151.954407,449.955292 
	C154.323059,446.482239 157.278717,444.156860 161.790421,444.165680 
	C165.633789,444.173218 166.575241,446.946991 167.347931,449.939575 
	C166.560745,449.998199 166.137482,449.793457 165.714203,449.588715 
	C165.714203,449.588715 165.572342,449.424835 165.388885,449.010803 
	C160.265442,444.593323 156.591843,448.637665 152.429504,450.425476 
	C152.271179,450.268707 151.954407,449.955292 151.954407,449.955292 
z"/>
<path fill="#464646" opacity="1.000000" stroke="none" 
	d="
M155.118484,460.530090 
	C151.938751,464.208588 148.390350,467.681396 144.844666,471.507202 
	C144.722794,472.226501 144.598236,472.592773 144.141678,473.303406 
	C143.488525,473.763092 143.167358,473.878448 142.846191,473.993835 
	C142.534042,468.237946 149.174835,460.612030 155.118484,460.530090 
z"/>
<path fill="#464646" opacity="1.000000" stroke="none" 
	d="
M257.383698,525.810913 
	C257.451752,526.447205 257.189117,527.215515 256.899841,528.290527 
	C256.817993,528.823853 256.762817,529.050476 256.273163,529.615112 
	C255.484818,530.442078 255.130966,530.931030 254.777130,531.419983 
	C254.777115,531.419983 254.695129,531.731995 254.549988,531.802856 
	C250.394455,533.826477 246.902283,533.583313 244.242477,529.139954 
	C249.372314,531.961853 253.278915,529.252686 257.383698,525.810913 
z"/>
<path fill="#9D9D9D" opacity="1.000000" stroke="none" 
	d="
M148.014160,393.445984 
	C148.488754,393.001740 148.893967,392.994965 149.603088,392.990601 
	C149.920975,394.467773 149.875519,395.945953 149.959259,397.416809 
	C150.305862,403.504395 151.210358,404.328583 157.607224,404.789673 
	C155.720642,405.193604 153.660797,405.162720 151.600952,405.131836 
	C147.343857,402.369995 147.801575,398.075623 148.014160,393.445984 
z"/>
<path fill="#888888" opacity="1.000000" stroke="none" 
	d="
M113.263046,493.813354 
	C113.133804,492.732086 113.430565,491.639648 114.319885,490.310181 
	C115.334343,490.010559 115.756248,489.947968 116.178154,489.885345 
	C116.970810,490.802124 117.763458,491.718903 118.832634,493.208282 
	C119.905632,494.031555 120.702103,494.282227 121.515137,494.562866 
	C121.531685,494.592804 121.529259,494.661224 121.529259,494.661224 
	C121.056992,498.170532 119.601006,496.161957 118.125313,495.380432 
	C116.752892,494.653595 115.175949,494.312927 113.263046,493.813354 
z"/>
<path fill="#C8C8C8" opacity="1.000000" stroke="none" 
	d="
M271.782776,506.124847 
	C272.553009,507.872223 273.037842,509.757996 272.945709,511.874603 
	C271.538361,512.113342 270.708008,512.121338 269.877655,512.129272 
	C268.544006,510.645111 267.210358,509.160889 265.949554,507.334137 
	C267.682831,507.765289 269.343292,508.538971 271.125824,509.369537 
	C271.223633,508.551849 271.360504,507.407562 271.782776,506.124847 
z"/>
<path fill="#B3B3B3" opacity="1.000000" stroke="none" 
	d="
M165.078491,460.053406 
	C165.732727,457.923767 166.386963,455.794098 167.224976,453.119934 
	C167.441330,452.241058 167.623688,452.049164 167.955780,451.999725 
	C169.877502,454.274902 169.516571,456.072266 165.735260,460.735291 
	C165.228836,460.391510 165.153656,460.222443 165.078491,460.053406 
z"/>
<path fill="#C8C8C8" opacity="1.000000" stroke="none" 
	d="
M265.933014,504.936829 
	C265.608154,505.119080 265.149689,505.215210 265.149689,505.215210 
	C265.149689,505.215210 264.836090,504.867340 264.723328,504.309601 
	C264.047211,502.993896 263.483887,502.235931 262.920563,501.477966 
	C262.769348,500.453003 262.618164,499.428040 262.466949,498.403076 
	C263.573364,498.763458 265.385681,498.856110 265.644318,499.538025 
	C266.246552,501.126038 266.100647,502.997803 265.933014,504.936829 
z"/>
<path fill="#717171" opacity="1.000000" stroke="none" 
	d="
M121.798477,519.803345 
	C121.109062,517.432068 120.419647,515.060791 119.910202,512.307251 
	C121.823509,514.745911 123.556824,517.566833 125.390076,520.701721 
	C124.998291,521.228943 124.506569,521.442139 123.530136,521.330017 
	C122.629776,520.604187 122.214127,520.203796 121.798477,519.803345 
z"/>
<path fill="#C8C8C8" opacity="1.000000" stroke="none" 
	d="
M245.252167,508.785828 
	C243.991058,508.785339 242.988159,508.569733 241.666443,508.391113 
	C242.047089,507.057159 242.746552,505.686188 243.446014,504.315216 
	C244.134109,505.733704 244.822235,507.152191 245.252167,508.785828 
z"/>
<path fill="#A4A4A4" opacity="1.000000" stroke="none" 
	d="
M151.740387,405.495300 
	C153.660797,405.162720 155.720642,405.193604 157.985138,404.873230 
	C158.363541,404.362518 158.567139,404.299835 158.956161,404.385193 
	C158.520889,405.529877 157.822586,407.596985 157.357986,407.545746 
	C155.492630,407.339935 153.699585,406.478119 151.740387,405.495300 
z"/>
<path fill="#717171" opacity="1.000000" stroke="none" 
	d="
M141.131073,468.153687 
	C140.683304,469.096008 140.235535,470.038330 139.465729,470.993011 
	C140.025558,468.556915 140.907455,466.108429 142.119995,463.623291 
	C142.478943,464.092621 142.507233,464.598663 142.124817,465.601868 
	C141.519745,466.783905 141.325409,467.468811 141.131073,468.153687 
z"/>
<path fill="#B3B3B3" opacity="1.000000" stroke="none" 
	d="
M150.036560,454.028168 
	C149.772385,454.206696 149.530792,454.411835 148.864426,454.846558 
	C147.756134,455.472290 147.095245,455.895081 146.434341,456.317841 
	C148.040573,454.247040 149.646790,452.176239 151.603699,450.030365 
	C151.954407,449.955292 152.271179,450.268707 152.228668,450.677063 
	C151.469620,452.066315 150.753082,453.047241 150.036560,454.028168 
z"/>
<path fill="#888888" opacity="1.000000" stroke="none" 
	d="
M124.097916,489.681580 
	C123.594315,487.960785 123.422226,486.194214 123.347969,484.053711 
	C126.649498,485.190155 125.941727,487.346527 124.097916,489.681580 
z"/>
<path fill="#B3B3B3" opacity="1.000000" stroke="none" 
	d="
M214.770996,489.919861 
	C213.230469,489.000580 211.769424,487.724976 210.159775,486.155029 
	C214.000610,483.989288 213.589264,487.869385 214.770996,489.919861 
z"/>
<path fill="#717171" opacity="1.000000" stroke="none" 
	d="
M138.463043,472.922455 
	C138.889053,473.285248 139.005234,473.765106 138.810181,474.864960 
	C138.423203,476.416779 138.347443,477.348633 138.271683,478.280487 
	C138.226242,478.664276 138.180817,479.048065 137.828537,479.716522 
	C137.354782,479.999542 137.187866,479.997894 137.020935,479.996216 
	C137.398361,477.677338 137.775787,475.358429 138.463043,472.922455 
z"/>
<path fill="#888888" opacity="1.000000" stroke="none" 
	d="
M122.345703,482.074463 
	C121.039307,481.928894 119.851082,481.465515 118.324448,480.994385 
	C118.381111,480.252686 118.776192,479.518738 119.171280,478.784790 
	C120.268806,479.775421 121.366341,480.766022 122.345703,482.074463 
z"/>
<path fill="#464646" opacity="1.000000" stroke="none" 
	d="
M164.617767,460.097534 
	C165.153656,460.222443 165.228836,460.391510 165.419403,460.812958 
	C165.413681,461.494904 165.292603,461.924438 164.758743,462.672424 
	C163.904449,463.387146 163.462952,463.783447 163.021454,464.179749 
	C163.021469,464.179749 162.538162,464.105988 162.310059,464.018188 
	C161.646240,463.020142 161.210495,462.109894 160.644669,460.917999 
	C161.728729,460.471436 162.942871,460.306549 164.617767,460.097534 
z"/>
<path fill="#4B4B4B" opacity="1.000000" stroke="none" 
	d="
M146.290192,456.591858 
	C147.095245,455.895081 147.756134,455.472290 148.714127,455.031219 
	C148.067963,456.272980 147.124695,457.533051 145.825317,458.657959 
	C145.694839,457.970520 145.920441,457.418213 146.290192,456.591858 
z"/>
<path fill="#050505" opacity="1.000000" stroke="none" 
	d="
M101.232681,522.215637 
	C101.692055,522.086304 102.151413,521.956909 102.893951,521.604614 
	C103.177132,521.381653 103.594788,521.259949 103.772629,521.384827 
	C102.813889,522.638550 101.677299,523.767456 100.311928,524.594788 
	C100.466324,523.600708 100.849503,522.908203 101.232681,522.215637 
z"/>
<path fill="#4B4B4B" opacity="1.000000" stroke="none" 
	d="
M167.857880,451.733887 
	C167.623688,452.049164 167.441330,452.241058 167.274200,452.742218 
	C166.556259,452.033783 165.972870,451.158569 165.551849,449.936035 
	C166.137482,449.793457 166.560745,449.998199 167.210602,450.292480 
	C167.544785,450.743988 167.652390,451.105988 167.857880,451.733887 
z"/>
<path fill="#A4A4A4" opacity="1.000000" stroke="none" 
	d="
M160.091110,403.726440 
	C160.068954,402.431549 160.435028,401.142029 161.107056,399.698578 
	C161.101791,400.940369 160.790558,402.336060 160.091110,403.726440 
z"/>
<path fill="#B3B3B3" opacity="1.000000" stroke="none" 
	d="
M216.416351,494.139771 
	C215.746597,493.544739 215.274765,492.620483 214.868713,491.372314 
	C215.494415,491.969086 216.054352,492.889801 216.416351,494.139771 
z"/>
<path fill="#B3B3B3" opacity="1.000000" stroke="none" 
	d="
M142.782654,474.368225 
	C143.167358,473.878448 143.488525,473.763092 144.061188,473.582397 
	C144.084213,474.607544 143.855759,475.697998 143.264496,476.868347 
	C142.840836,476.213013 142.779984,475.477814 142.782654,474.368225 
z"/>
<path fill="#B3B3B3" opacity="1.000000" stroke="none" 
	d="
M163.179535,464.427094 
	C163.462952,463.783447 163.904449,463.387146 164.665985,462.994263 
	C164.436554,463.556580 163.887085,464.115509 163.179535,464.427094 
z"/>
<path fill="#C8C8C8" opacity="1.000000" stroke="none" 
	d="
M272.463837,498.018677 
	C272.735016,498.815369 272.699188,499.700165 272.410187,500.804443 
	C272.156952,500.051544 272.156891,499.079193 272.463837,498.018677 
z"/>
<path fill="#4B4B4B" opacity="1.000000" stroke="none" 
	d="
M118.124435,511.548889 
	C118.279175,510.629333 118.788086,509.869965 119.603065,509.070251 
	C120.042305,509.788361 120.175476,510.546844 120.145050,511.658752 
	C119.480507,511.911133 118.979561,511.810120 118.124435,511.548889 
z"/>
<path fill="#464646" opacity="1.000000" stroke="none" 
	d="
M262.578827,501.704651 
	C263.483887,502.235931 264.047211,502.993896 264.572662,504.130676 
	C264.010468,504.676483 263.486145,504.843445 262.550232,505.045471 
	C262.171478,504.030762 262.204285,502.981049 262.578827,501.704651 
z"/>
<path fill="#717171" opacity="1.000000" stroke="none" 
	d="
M255.057480,531.467712 
	C255.130966,530.931030 255.484818,530.442078 256.069977,529.899902 
	C255.980118,530.402954 255.658981,530.959229 255.057480,531.467712 
z"/>
<path fill="#4B4B4B" opacity="1.000000" stroke="none" 
	d="
M136.940125,480.350098 
	C137.187866,479.997894 137.354782,479.999542 137.772095,480.000916 
	C137.922073,480.685699 137.821609,481.370789 137.456665,482.065125 
	C137.081223,481.617584 136.970276,481.160767 136.940125,480.350098 
z"/>
<path fill="#4B4B4B" opacity="1.000000" stroke="none" 
	d="
M144.124390,460.521973 
	C144.174255,461.256073 143.887344,462.057251 143.229568,462.890259 
	C143.168350,462.144409 143.477982,461.366699 144.124390,460.521973 
z"/>
<path fill="#888888" opacity="1.000000" stroke="none" 
	d="
M121.747314,492.642670 
	C122.028160,492.282745 122.309013,491.922821 122.824539,491.575439 
	C122.833328,492.372528 122.607445,493.157043 122.036285,494.220978 
	C121.691010,494.500397 121.395874,494.507507 121.535034,494.050964 
	C121.698570,493.277191 121.722939,492.959930 121.747314,492.642670 
z"/>
<path fill="#C8C8C8" opacity="1.000000" stroke="none" 
	d="
M238.658142,514.052002 
	C238.702713,514.752075 238.381119,515.491699 237.776489,516.371460 
	C237.759628,515.704956 238.025787,514.898254 238.658142,514.052002 
z"/>
<path fill="#C8C8C8" opacity="1.000000" stroke="none" 
	d="
M240.552658,510.058716 
	C240.686478,510.741943 240.474899,511.527618 239.981262,512.460083 
	C239.868561,511.791687 240.037918,510.976440 240.552658,510.058716 
z"/>
<path fill="#4B4B4B" opacity="1.000000" stroke="none" 
	d="
M212.226227,504.809570 
	C211.866760,504.998383 211.688080,504.998505 211.241364,504.996765 
	C210.883453,504.554840 210.793594,504.114838 210.819580,503.356384 
	C211.425964,503.565643 211.916489,504.093262 212.226227,504.809570 
z"/>
<path fill="#151515" opacity="1.000000" stroke="none" 
	d="
M121.580795,494.549866 
	C121.529259,494.661224 121.531685,494.592804 121.486450,494.544556 
	C121.441208,494.496307 121.395874,494.507507 121.395874,494.507507 
	C121.395874,494.507507 121.691010,494.500397 121.701767,494.353516 
	C121.712532,494.206635 121.632332,494.438538 121.580795,494.549866 
z"/>
<path fill="#050505" opacity="1.000000" stroke="none" 
	d="
M197.060440,530.145264 
	C196.078842,531.105652 194.872360,532.257080 193.654831,532.268921 
	C170.810226,532.490601 147.964355,532.579529 125.118652,532.676575 
	C124.640312,532.678589 124.160988,532.448669 123.347809,532.066895 
	C124.676773,531.204529 126.336861,530.088623 128.003784,530.078308 
	C147.706711,529.956543 167.410675,530.008728 187.114319,529.991333 
	C190.353073,529.988464 193.591705,529.870544 197.060440,530.145264 
z"/>
<path fill="#4B4B4B" opacity="1.000000" stroke="none" 
	d="
M150.396545,454.003418 
	C150.753082,453.047241 151.469620,452.066315 152.386993,450.833832 
	C156.591843,448.637665 160.265442,444.593323 165.311356,448.935089 
	C160.178360,449.744995 154.921005,450.159241 150.396545,454.003418 
z"/>
<path fill="#464646" opacity="1.000000" stroke="none" 
	d="
M244.903198,517.161438 
	C248.224899,520.777100 251.626694,522.405029 256.229462,518.607849 
	C256.524231,522.795166 253.397644,522.914856 250.416809,522.985718 
	C246.669540,523.074829 244.711563,521.124329 244.903198,517.161438 
z"/>
<path fill="#050505" opacity="1.000000" stroke="none" 
	d="
M108.990051,530.108154 
	C105.251167,533.829712 100.666916,532.857361 95.896988,530.774902 
	C100.007774,530.281555 104.249969,530.172424 108.990051,530.108154 
z"/>
<path fill="#050505" opacity="1.000000" stroke="none" 
	d="
M82.948975,521.096436 
	C82.141541,523.357422 80.883209,525.573486 79.624870,527.789612 
	C79.280113,527.647766 78.935356,527.505920 78.590591,527.364075 
	C79.171539,525.445068 79.752487,523.526001 80.509422,521.306885 
	C81.289627,521.021729 81.893845,521.036682 82.948975,521.096436 
z"/>
<path fill="#050505" opacity="1.000000" stroke="none" 
	d="
M85.046387,512.897583 
	C86.401672,510.635223 88.068512,507.926910 91.429535,511.435852 
	C89.529884,512.192078 87.509178,512.563843 85.046387,512.897583 
z"/>
<path fill="#4B4B4B" opacity="1.000000" stroke="none" 
	d="
M144.914505,497.664185 
	C143.695679,497.371704 142.357666,496.770752 140.910706,495.864044 
	C142.132935,496.157440 143.464127,496.756592 144.914505,497.664185 
z"/>
<path fill="#464646" opacity="1.000000" stroke="none" 
	d="
M243.412964,525.950317 
	C242.550537,525.672607 241.826218,525.114014 240.904144,524.251953 
	C241.654617,524.522156 242.602844,525.095764 243.412964,525.950317 
z"/>
<path fill="#464646" opacity="1.000000" stroke="none" 
	d="
M259.362427,520.323975 
	C259.458008,521.174316 259.168579,522.072144 258.629761,523.054321 
	C258.579376,522.216248 258.778412,521.293823 259.362427,520.323975 
z"/>
<path fill="#4B4B4B" opacity="1.000000" stroke="none" 
	d="
M100.840195,522.141968 
	C100.849503,522.908203 100.466324,523.600708 99.912842,524.538269 
	C99.213287,524.030396 98.684044,523.277527 98.110207,522.240479 
	C98.859642,521.993530 99.653679,522.030884 100.840195,522.141968 
z"/>
<path fill="#4B4B4B" opacity="1.000000" stroke="none" 
	d="
M138.527374,478.137329 
	C138.347443,477.348633 138.423203,476.416779 138.757721,475.241272 
	C138.938660,475.996460 138.860870,476.995331 138.527374,478.137329 
z"/>
<path fill="#4B4B4B" opacity="1.000000" stroke="none" 
	d="
M141.412354,468.015564 
	C141.325409,467.468811 141.519745,466.783905 141.938080,465.951050 
	C142.005920,466.494507 141.849777,467.185944 141.412354,468.015564 
z"/>
<path fill="#4B4B4B" opacity="1.000000" stroke="none" 
	d="
M121.624435,520.093262 
	C122.214127,520.203796 122.629776,520.604187 123.120667,521.211975 
	C122.614067,521.073914 122.032234,520.728516 121.624435,520.093262 
z"/>
<path fill="#4B4B4B" opacity="1.000000" stroke="none" 
	d="
M110.126083,521.545166 
	C110.289764,520.953674 110.763390,520.471069 111.498169,519.937988 
	C111.318230,520.476379 110.877129,521.065125 110.126083,521.545166 
z"/>
<path fill="#4B4B4B" opacity="1.000000" stroke="none" 
	d="
M95.260529,519.184082 
	C95.820740,519.389404 96.382950,519.918152 96.943558,520.764893 
	C96.382149,520.557739 95.822334,520.032654 95.260529,519.184082 
z"/>
<path fill="#050505" opacity="1.000000" stroke="none" 
	d="
M87.959236,519.660034 
	C87.555130,519.998047 87.110466,520.041382 86.332932,520.036743 
	C86.229752,519.474182 86.459442,518.959656 86.689133,518.445129 
	C87.098984,518.751892 87.508835,519.058655 87.959236,519.660034 
z"/>
<path fill="#050505" opacity="1.000000" stroke="none" 
	d="
M94.006058,516.184204 
	C94.233627,516.074036 94.481407,516.244080 94.678223,516.460510 
	C94.714020,516.499878 94.541527,516.728760 94.246658,516.971313 
	C94.021675,516.875122 94.015236,516.677734 94.006058,516.184204 
z"/>
<path fill="#0D0D0D" opacity="1.000000" stroke="none" 
	d="
M218.507050,381.271362 
	C216.730484,382.848755 215.079773,384.916565 213.433807,384.912781 
	C212.013611,384.909546 209.756775,382.755371 209.371109,381.183685 
	C208.728806,378.566132 208.772827,375.500305 209.541779,372.926147 
	C209.971420,371.487915 212.444046,369.805267 213.996292,369.805084 
	C215.457504,369.804901 217.726852,371.610809 218.196884,373.083069 
	C218.961685,375.478668 218.550095,378.249847 218.507050,381.271362 
z"/>
<path fill="#696969" opacity="1.000000" stroke="none" 
	d="
M269.783875,512.339294 
	C270.708008,512.121338 271.538361,512.113342 272.779602,512.198242 
	C272.227509,512.583801 271.264557,512.876465 269.969971,513.087708 
	C269.638367,513.006287 269.690125,512.549316 269.783875,512.339294 
z"/>
<path fill="#464646" opacity="1.000000" stroke="none" 
	d="
M261.647308,510.121521 
	C261.441345,509.567444 261.501801,508.979645 261.809967,508.198853 
	C262.009705,508.699860 261.961700,509.393829 261.647308,510.121521 
z"/>
<path fill="#151515" opacity="1.000000" stroke="none" 
	d="
M230.941803,346.498352 
	C230.805237,349.048523 230.757065,351.207275 230.380234,353.307068 
	C229.856079,356.227753 227.803207,357.959442 225.036865,357.047516 
	C223.236771,356.454102 221.494614,354.585236 220.548019,352.841766 
	C219.756134,351.383270 219.942154,349.261780 220.075516,347.462097 
	C220.310028,344.297333 220.501801,340.960205 224.785446,340.381348 
	C229.187820,339.786438 229.981155,342.973267 230.941803,346.498352 
z"/>
<path fill="#696969" opacity="1.000000" stroke="none" 
	d="
M116.121193,489.510620 
	C115.756248,489.947968 115.334343,490.010559 114.595612,490.099854 
	C114.236725,489.325592 114.194656,488.524628 114.151627,487.321594 
	C114.494400,486.903503 114.838142,486.887451 115.439011,486.879181 
	C115.818848,487.636597 115.941544,488.386261 116.121193,489.510620 
z"/>
<path fill="#151515" opacity="1.000000" stroke="none" 
	d="
M229.619507,286.216522 
	C221.981979,289.361664 219.845093,287.158051 220.035126,276.429871 
	C220.838669,272.598480 222.655655,270.323334 226.517868,270.945496 
	C230.301605,271.555054 230.880402,274.755066 230.939865,277.665924 
	C230.995239,280.375702 230.151184,283.103882 229.619507,286.216522 
z"/>
<path fill="#696969" opacity="1.000000" stroke="none" 
	d="
M121.535034,494.050964 
	C121.395874,494.507507 121.441208,494.496307 121.469894,494.514587 
	C120.702103,494.282227 119.905632,494.031555 119.038757,493.432190 
	C119.674332,493.027802 120.380302,492.972046 121.416794,492.779480 
	C121.722939,492.959930 121.698570,493.277191 121.535034,494.050964 
z"/>
</svg>