<svg version="1.1" id="Layer_1" xmlns="http://www.w3.org/2000/svg" xmlns:xlink="http://www.w3.org/1999/xlink" x="0px" y="0px"
	 width="100%" viewBox="0 0 336 592" enable-background="new 0 0 336 592" xml:space="preserve">
<path fill="#000000" opacity="1.000000" stroke="none" 
	d="
M170.153198,498.903137 
	C171.094788,508.121460 172.227982,516.843384 174.130341,525.446655 
	C174.866928,528.777710 177.177124,530.940857 180.344330,531.056091 
	C184.678543,531.213806 189.459549,532.036987 192.479370,527.272156 
	C196.353897,521.158752 198.000046,514.146118 200.694672,507.560150 
	C201.834152,504.775116 202.942093,502.006775 204.922333,499.721710 
	C207.024612,497.295868 209.108032,497.477966 211.175690,499.922943 
	C212.850220,501.903015 213.765549,504.271667 214.252228,506.670410 
	C215.908142,514.832214 219.129349,522.859497 215.255707,531.408386 
	C212.803650,536.819885 210.963013,541.030762 204.329453,534.918823 
	C202.935349,533.634399 201.704010,531.828796 199.242554,531.523926 
	C196.234314,533.944641 195.149536,537.769958 193.619965,541.124573 
	C190.368027,548.256714 184.343750,547.519287 178.367142,547.247803 
	C173.076141,547.007446 171.304871,542.920776 169.534760,538.910095 
	C168.398895,536.336548 168.587006,533.307373 166.474258,530.520691 
	C165.597092,532.357544 164.801453,534.025879 164.003891,535.693359 
	C160.774918,542.444397 149.726273,548.634521 142.751404,544.279236 
	C141.751526,543.654907 140.810928,543.084839 140.048187,542.171448 
	C136.170197,537.527893 137.125504,525.991516 141.966629,521.490173 
	C142.361572,522.004822 142.842331,522.451294 143.105576,523.001709 
	C146.370789,529.829468 147.628098,530.443909 155.661011,529.044922 
	C160.603683,528.184021 164.336777,523.993774 164.680283,518.553711 
	C165.260086,509.371124 163.331253,500.399963 161.468323,491.540588 
	C159.989456,484.507660 161.521454,478.087921 163.141464,471.510315 
	C163.397842,470.469482 164.149200,469.807678 165.292877,469.746735 
	C166.690720,469.672241 167.426575,470.495605 167.828461,471.698853 
	C167.984848,472.167114 168.152267,472.688568 168.098969,473.161499 
	C167.134293,481.722351 170.150467,489.957489 170.153198,498.903137 
z"/>
<path fill="#000000" opacity="1.000000" stroke="none" 
	d="
M130.847992,394.480225 
	C131.911331,391.474762 132.319580,388.334229 135.340225,387.265411 
	C137.947067,386.342987 140.624573,386.539642 142.570541,389.003021 
	C146.086166,393.453400 146.218506,401.802277 142.893997,406.377686 
	C140.871475,409.161224 138.038986,409.293549 135.307388,408.202606 
	C132.207855,406.964752 131.445572,403.800354 130.905182,400.877930 
	C130.548340,398.948273 130.818558,396.902679 130.847992,394.480225 
z"/>
<path fill="#000000" opacity="1.000000" stroke="none" 
	d="
M183.219177,244.910858 
	C183.297287,247.410385 182.285187,249.135651 181.498383,250.958237 
	C180.335999,253.650864 178.915619,256.250702 175.628281,256.132019 
	C172.422607,256.016235 170.836517,253.394867 169.814972,250.726593 
	C167.953629,245.864807 167.978104,240.993286 170.808685,236.450363 
	C173.709122,231.795349 177.619827,231.636734 180.509171,236.172195 
	C182.082138,238.641342 183.602737,241.301880 183.219177,244.910858 
z"/>
<path fill="#000000" opacity="1.000000" stroke="none" 
	d="
M221.201416,271.063110 
	C220.761871,279.527557 218.114563,282.855560 212.716614,282.232544 
	C211.157196,282.052612 209.918121,281.530792 208.947128,280.186279 
	C205.980011,276.077728 205.813217,267.384369 208.716187,263.119934 
	C210.965057,259.816345 216.796387,259.760590 218.835632,263.160980 
	C220.189590,265.418610 221.474304,267.804565 221.201416,271.063110 
z"/>
<path fill="#000000" opacity="1.000000" stroke="none" 
	d="
M137.974838,282.240875 
	C134.876709,282.444366 133.315277,281.159607 132.219162,278.733704 
	C130.114548,274.075867 130.166458,269.496277 131.971725,264.799347 
	C133.057114,261.975403 134.908035,260.685028 138.021393,260.717133 
	C140.943268,260.747284 142.491577,262.044769 143.680923,264.601288 
	C145.949982,269.478638 145.850800,274.118622 143.393677,278.888580 
	C142.279861,281.050842 140.835815,282.277588 137.974838,282.240875 
z"/>
<path fill="#000000" opacity="1.000000" stroke="none" 
	d="
M189.474854,251.472626 
	C190.072678,242.974762 194.799362,238.918106 199.782516,242.603470 
	C203.419846,245.293533 203.948257,249.903656 203.629395,254.285049 
	C203.512360,255.893250 202.729187,257.457520 202.217896,259.031464 
	C201.370255,261.640717 199.785263,263.156677 196.825607,263.285919 
	C193.805862,263.417786 191.776215,262.346680 190.428726,259.636414 
	C189.185150,257.135193 189.098907,254.557388 189.474854,251.472626 
z"/>
<path fill="#000000" opacity="1.000000" stroke="none" 
	d="
M149.807648,244.876740 
	C154.037857,240.243256 158.657349,240.556183 161.045807,245.585907 
	C163.189682,250.100571 162.961731,254.894547 161.094910,259.535370 
	C159.971649,262.327728 157.904144,263.452515 154.809921,263.312958 
	C151.840302,263.178986 150.534729,261.671173 149.334915,259.152130 
	C147.052231,254.359619 147.445984,249.837906 149.807648,244.876740 
z"/>
<path fill="#000000" opacity="1.000000" stroke="none" 
	d="
M217.830261,299.108154 
	C219.886642,290.649933 222.046814,288.318542 226.789612,289.039642 
	C230.704529,289.634827 232.273621,293.020844 232.327087,300.392792 
	C232.348221,303.305542 231.909409,305.996002 230.228210,308.412201 
	C227.665466,312.095306 221.751892,311.741608 220.126862,307.579681 
	C219.123230,305.009277 217.579834,302.488556 217.830261,299.108154 
z"/>
<path fill="#000000" opacity="1.000000" stroke="none" 
	d="
M183.143555,422.409180 
	C183.712677,426.293091 182.547729,429.398987 180.907425,432.300781 
	C178.148819,437.180908 173.971298,437.251556 170.777863,432.595947 
	C167.853638,428.332764 167.978577,420.567932 171.043503,416.084015 
	C173.970581,411.801849 177.623810,411.752167 180.471771,416.148254 
	C181.620270,417.921051 182.244400,420.033569 183.143555,422.409180 
z"/>
<path fill="#000000" opacity="1.000000" stroke="none" 
	d="
M119.299896,366.641541 
	C121.484535,359.279816 125.470764,356.527649 129.661163,359.504028 
	C133.040329,361.904175 133.306763,366.083374 133.629150,369.820465 
	C133.871780,372.632782 132.626205,375.392792 131.209808,377.808197 
	C129.226730,381.189911 123.839645,381.184998 121.504936,377.942627 
	C119.147911,374.669189 118.551834,370.981293 119.299896,366.641541 
z"/>
<path fill="#000000" opacity="1.000000" stroke="none" 
	d="
M208.410995,390.624329 
	C212.295364,385.248260 216.705002,385.610168 219.491058,390.994568 
	C222.078125,395.994415 221.737091,400.748199 219.157379,405.632965 
	C217.979782,407.862732 216.266479,408.701141 213.978622,408.730988 
	C211.466141,408.763733 209.646988,407.788025 208.472473,405.344543 
	C206.165115,400.544342 206.097641,395.817078 208.410995,390.624329 
z"/>
<path fill="#000000" opacity="1.000000" stroke="none" 
	d="
M148.835205,421.872742 
	C146.604065,416.912903 148.279266,412.734222 150.178131,408.652527 
	C151.311386,406.216522 153.643326,405.849945 156.078491,405.852142 
	C159.368347,405.855103 160.888229,408.293854 161.665527,410.717560 
	C162.882675,414.512817 162.853210,418.627289 161.636078,422.429443 
	C160.804153,425.028198 159.422791,427.396027 155.735840,427.440765 
	C151.809570,427.488373 149.985168,425.620209 148.835205,421.872742 
z"/>
<path fill="#000000" opacity="1.000000" stroke="none" 
	d="
M121.491058,291.521027 
	C126.928093,287.399811 130.535461,288.614441 132.497223,294.465149 
	C133.967087,298.848816 133.162567,302.944489 131.869537,307.092468 
	C131.145844,309.414093 129.464417,310.599518 127.096085,310.790253 
	C124.606377,310.990723 122.603142,310.287201 121.302147,307.892639 
	C118.383049,302.520020 118.131927,297.206238 121.491058,291.521027 
z"/>
<path fill="#000000" opacity="1.000000" stroke="none" 
	d="
M231.474945,375.972595 
	C229.908875,379.565643 227.447144,380.564026 224.077606,380.222260 
	C220.926773,379.902649 220.518280,377.450439 219.320663,375.259644 
	C216.752243,370.561249 218.176010,366.333130 219.985031,361.973480 
	C220.840454,359.911957 222.211700,358.761230 224.483002,358.757202 
	C226.804123,358.753113 228.961105,358.631714 230.461227,361.186829 
	C233.214325,365.875946 232.428635,370.705963 231.474945,375.972595 
z"/>
<path fill="#000000" opacity="1.000000" stroke="none" 
	d="
M115.652313,330.004456 
	C116.597504,326.047119 118.352310,323.574585 122.510956,323.798828 
	C126.763657,324.028076 127.576988,327.041473 128.619812,330.405975 
	C130.190765,335.474457 129.180588,340.069580 126.188698,343.926697 
	C123.531944,347.351807 117.489761,345.316040 115.986748,340.720398 
	C114.891693,337.372101 114.871788,333.882629 115.652313,330.004456 
z"/>
<path fill="#000000" opacity="1.000000" stroke="none" 
	d="
M233.623657,325.262085 
	C237.416138,330.873016 237.069992,336.409302 234.813904,342.016510 
	C233.733047,344.702881 231.558090,345.414978 228.796143,345.315063 
	C226.033676,345.215057 224.751678,343.618591 223.656158,341.388397 
	C221.260742,336.511993 221.701096,331.708221 224.085129,327.093628 
	C226.219116,322.963013 229.653641,323.054810 233.623657,325.262085 
z"/>
<path fill="#000000" opacity="1.000000" stroke="none" 
	d="
M203.364288,413.785583 
	C204.609314,418.027405 203.061935,421.485687 201.412399,424.689880 
	C199.393158,428.612183 193.279282,428.414703 191.201904,424.506073 
	C188.793716,419.974976 189.036346,415.158691 190.495728,410.440460 
	C191.396286,407.528870 193.358734,405.643707 196.791000,405.830170 
	C200.191711,406.014984 201.907150,407.803711 202.426239,411.047363 
	C202.555511,411.855164 202.966904,412.617828 203.364288,413.785583 
z"/>
</svg>