<svg enable-background="new 0 0 336 592" viewBox="0 0 336 592" xmlns="http://www.w3.org/2000/svg"><path d="m176.41803 137.517105c7.614166 15.165939 21.617065 22.806976 38.297561 21.154724 13.546936-1.341842 26.686219-13.002609 30.729126-27.284118.180695-.638276.184235-1.334275.414429-1.949463.57251-1.52993.924408-3.404114 3.098435-3.36641 2.437042.042252 2.902542 2.093781 3.168075 3.842652.901657 5.938583 1.075607 11.880432-.306579 17.8125-4.705338 20.19487-19.408921 32.116256-39.167313 32.719085-22.417389.683945-38.802582-12.95047-43.66153-32.118911-1.492813-5.889084-1.69609-11.847534-1.005691-17.837189.18277-1.585678.496261-3.418839 2.750381-3.583038 2.281678-.166191 2.652726 1.640182 3.197022 3.174591.831741 2.344696 1.557953 4.726837 2.486084 7.435577z"/><path d="m220.2108 115.726105c5.275513 6.116546 6.473587 12.619827 3.173035 19.6445-2.484696 5.288239-8.655075 8.400132-14.990418 7.742585-6.628021-.687897-11.701538-3.637085-13.810318-10.364319-1.989944-6.348137-1.337097-12.359413 3.790558-16.932388 5.160874-4.602601 11.324539-5.173043 17.707871-2.617859 1.366852.547134 2.569076 1.505561 4.129272 2.527481z"/><path d="m231.729462 275.098328c-2.423004-5.331513-1.481568-9.58191 2.364868-12.014344 3.558914-2.25061 8.043472-1.665557 10.847992 1.415223 2.849914 3.130645 2.990661 7.469085.353821 10.907318-3.202073 4.175262-8.791245 4.174652-13.566681-.308197z"/><path d="m118.138397 278.272949c-6.371269.531922-10.285591-2.076996-10.981025-6.988678-.586182-4.140045 2.306533-8.357025 6.421875-9.361786 4.29029-1.047516 8.981399 1.469666 10.146469 5.819397 1.302292 4.862061-.756188 8.323395-5.587319 10.531067z"/><path d="m182.226044 221.71759c3.651367 4.32724 4.204879 8.677262 1.487533 11.939194-2.719116 3.264008-6.316147 4.4841-10.24292 2.502701-3.804794-1.919861-5.458603-5.293961-4.5578-9.57222 1.208572-5.739944 6.642853-7.830551 13.313187-4.869675z"/><path d="m104.410294 301.544464c-3.236878-3.505096-3.598-7.067718-1.294953-10.724487 1.938912-3.078583 4.916763-4.410187 8.51944-3.761658 3.332809.599884 5.868225 2.474243 6.603874 5.906586.766937 3.578338.318344 7.049408-3.025902 9.294769-3.533973 2.372711-7.12429 2.333008-10.802459-.71521z"/><path d="m245.537567 303.651001c-4.792297.59198-7.91391-1.43747-9.404663-5.383636-1.245087-3.295777-.665466-6.674836 2.184036-9.127869 2.73169-2.351654 5.903229-3.058167 9.284897-1.420227 3.326813 1.611419 4.957688 4.289032 4.716629 8.043854-.266067 4.144378-2.2574 6.845977-6.780899 7.887878z"/><path d="m226.530365 351.088654c-4.718521.728607-7.75943-1.027802-9.712906-4.853791-1.526153-2.989074-.942047-5.78009.846695-8.404876 2.146027-3.149079 5.315811-3.736084 8.775299-3.124482 3.932999.695404 6.192597 3.476593 6.551987 7.131867.428695 4.359802-1.820145 7.574035-6.461075 9.251282z"/><path d="m107.101845 320.181946c.77185-4.897248 3.49794-7.555145 7.93251-8.029083 3.612015-.386078 6.358383 1.456268 8.099709 4.640258 1.8022 3.29538 1.289291 6.456879-1.038048 9.22696-2.172768 2.586151-5.072525 3.785736-8.432724 2.844635-4.114105-1.152222-6.308205-4.016724-6.561447-8.68277z"/><path d="m232.602814 314.60321c3.647964-2.845977 7.262115-3.394043 10.828079-.94638 2.74826 1.886413 4.254349 4.705658 3.606308 8.137268-.660645 3.498352-2.735901 5.992706-6.252503 7.020172-3.615554 1.056427-6.533889-.291229-8.792587-3.041809-3.00679-3.661591-2.212265-7.338318.610703-11.169251z"/><path d="m130.736389 351.204102c-5.872948-.431-9.349296-3.471131-9.506286-7.910981-.153824-4.350464 2.609275-7.902099 6.721313-8.639434 4.593246-.823609 8.370758 1.32666 9.875916 5.621704 1.593948 4.548401-.966294 8.719696-7.090943 10.928711z"/><path d="m231.233871 242.824493c2.952637 4.463074 2.192643 8.27678-1.210281 11.516968-2.967743 2.825806-7.893387 2.730835-10.962936.074417-3.363404-2.910675-3.912751-6.411819-1.937073-10.316864 1.891754-3.73912 6.154556-5.481155 10.164795-4.007202 1.347992.495453 2.474167 1.594437 3.945495 2.732681z"/><path d="m196.224503 362.801392c-3.08725-3.657807-3.192521-7.178864-.811402-10.784485 2.24176-3.394654 5.634049-3.922974 9.211197-3.140991 3.356369.733764 5.412094 3.069885 6.014176 6.490692.637161 3.620025-.664567 6.596405-3.697999 8.527679-3.564514 2.269409-7.170181 2.156342-10.715972-1.092895z"/><path d="m210.800201 233.148941c-1.459945 8.097641-7.560531 11.63327-13.020767 7.84259-3.090545-2.145538-4.826431-5.145767-3.691757-9.041977 1.127365-3.871063 3.536774-6.306716 7.895706-6.307251 4.895722-.00061 7.797333 2.338028 8.816818 7.506638z"/><path d="m185.201233 364.518188c-1.855713 4.884491-5.219101 6.91803-9.891968 6.030182-4.046814-.76889-6.310562-3.631195-6.552612-7.726654-.258026-4.365204 1.946838-7.313202 6.064285-8.660614 5.91362-1.93518 10.516663 2.495423 10.380295 10.357086z"/><path d="m129.107513 256.315186c-5.254371-.782303-7.802131-3.794159-7.726661-8.51738.067421-4.219605 2.325714-7.285599 6.738792-8.005982 4.486328-.732345 7.806427 1.125016 9.557892 5.338761 2.194977 5.280746-1.489883 10.26033-8.570023 11.184601z"/><path d="m144.147644 237.229553c-.997223-4.582748-.660095-8.460373 3.643204-10.648147 3.163116-1.608124 6.454269-1.522232 9.353729.752609 2.715958 2.13089 3.734482 5.032364 3.016892 8.412796-.725403 3.417297-2.99292 5.567657-6.289338 6.343994-4.245407.999847-7.434524-.710068-9.724487-4.861252z"/><path d="m157.953461 351.022217c3.402939 4.116424 3.110473 8.038055.093536 11.599579-2.677429 3.160736-6.344391 3.592651-9.960525 1.808838-3.957139-1.952027-5.081177-5.524598-4.276474-9.666474 1.177352-6.060028 7.700408-7.921081 14.143463-3.741943z"/></svg>