<svg enable-background="new 0 0 336 592" viewBox="0 0 336 592" xmlns="http://www.w3.org/2000/svg"><path d="m209.203796 138.661194c13.627884.176132 21.029419 8.263428 19.220887 20.51062-1.309006 8.864639-8.065964 14.293793-17.587799 14.131683-9.115677-.155197-16.220261-6.358535-17.120484-14.948623-1.13269-10.808594 4.192597-17.775635 15.487396-19.69368z"/><path d="m123.513168 273.107208c-3.2183 5.163147-7.103859 6.833893-11.265869 4.80719-3.756691-1.829315-5.88018-4.817261-4.95076-9.238678 1.023568-4.869262 5.233719-7.739502 9.892441-6.848297 4.927239.942597 7.441879 5.184723 6.324188 11.279785z"/><path d="m245.437988 275.224609c-3.311355 3.74701-7.127823 4.384095-10.999679 2.314789-3.269928-1.747619-5.002091-4.790344-4.16684-8.744201.752304-3.56128 2.880097-5.956116 6.427704-6.828797 3.346909-.823303 6.258591.189453 8.465546 2.826355 2.678451 3.200195 2.632904 6.627319.273269 10.431854z"/><path d="m117.275223 300.12738c-3.13176 3.748932-6.719712 4.927124-10.826752 2.843659-3.378014-1.713623-5.204048-4.633881-4.672745-8.562042.518952-3.836884 2.766106-6.337616 6.527611-7.275422 3.151695-.785797 5.931954.115082 8.120529 2.503998 2.835312 3.09494 2.6633 6.569855.851357 10.489807z"/><path d="m226.516556 239.818176c4.591629 1.646698 7.028198 4.566193 6.430084 9.127716-.485977 3.706314-2.645401 6.414856-6.514709 7.220063-3.981492.828552-7.155411-.528366-9.346344-3.98317-1.80037-2.838959-1.331162-5.72496.175628-8.462448 1.917786-3.484192 5.072739-4.483597 9.255341-3.902161z"/><path d="m180.874069 220.876755c4.455902 2.546875 5.233902 6.275345 4.1138 10.434204-.968292 3.59523-3.900635 5.267258-7.390396 5.685577-3.480667.417252-6.053528-1.348694-7.767624-4.265686-1.859649-3.164657-1.660644-6.432251.539368-9.285675 2.598877-3.370804 6.089096-4.314743 10.504852-2.56842z"/><path d="m241.733124 303.510498c-7.542511-2.361816-7.604035-11.755524-2.738587-14.954346 3.448166-2.266998 6.911759-2.36795 10.218109.127533 3.39444 2.561982 3.98137 6.216553 2.56987 9.885804-1.641311 4.266693-5.135803 5.879852-10.049392 4.941009z"/><path d="m111.452454 313.225647c6.092987-2.009583 10.176231-.362183 12.111572 4.550751 1.559479 3.958801-.278725 8.519775-4.215256 10.45877-4.098244 2.018677-8.828667.537446-11.164863-3.496032-2.189782-3.780701-1.208306-7.561829 3.268547-11.513489z"/><path d="m122.550018 347.311096c-2.066742-5.630371-1.231666-9.431488 2.606652-11.573639 3.638359-2.030517 7.391395-2.05542 10.47657 1.083832 3.177185 3.23288 3.567978 6.997192 1.014404 10.838989-3.205566 4.822724-9.232422 4.777741-14.097626-.349182z"/><path d="m215.972137 343.709229c.296616-4.968812 2.145859-8.373841 7.11203-9.084992 4.815583-.689606 8.71402 1.882782 9.843003 6.330048.925491 3.645691-1.486405 8.185821-5.170777 9.733368-4.070236 1.709625-8.190704.249725-10.605712-3.833435-.498185-.842377-.749543-1.830719-1.178544-3.144989z"/><path d="m210.394638 359.186188c-3.052948 5.847473-7.744888 7.718933-12.224121 5.221435-4.34111-2.420471-5.669663-7.72287-3.014008-12.026947 2.392029-3.876831 6.128464-4.658416 9.976471-3.381256 4.481064 1.487274 6.327835 5.027802 5.261658 10.186768z"/><path d="m232.591721 314.592316c3.654983-2.832062 7.256546-3.374298 10.849701-.952912 2.620117 1.765686 4.093093 4.462769 3.672927 7.665802-.45932 3.501374-2.371383 6.127808-5.862655 7.353241-3.803955 1.335144-6.861237.009522-9.266007-2.887481-3.032852-3.653626-2.210953-7.342682.606034-11.17865z"/><path d="m193.789062 234.806671c.121827-4.382126 1.647034-7.64946 5.632706-8.806625 3.471726-1.007981 6.95192-.558899 9.486542 2.506317 2.209259 2.671783 2.541916 5.77359 1.127243 8.827469-1.496521 3.23053-4.136093 5.07698-7.871429 4.978088-4.687211-.124115-7.122239-2.894913-8.375062-7.505249z"/><path d="m185.319855 361.189117c-.356446 6.253418-3.330521 9.609284-8.218109 9.709443-3.877091.079467-7.749543-3.284668-8.331391-7.237702-.643493-4.371979 1.918015-8.341247 6.185822-9.585296 4.544388-1.324677 8.607101 1.302154 10.363678 7.113555z"/><path d="m126.687401 255.936005c-4.479325-2.483933-6.377815-5.84195-4.930214-10.5448 1.089119-3.538254 3.578689-5.457031 7.328384-5.718628 4.206497-.293472 6.940262 1.677765 8.627945 5.398865 2.174866 4.795211-2.22409 13.19577-11.026115 10.864563z"/><path d="m147.975433 241.458832c-4.232376-2.774582-5.183166-6.484329-3.902038-10.662659.948959-3.094849 3.387985-4.789993 6.699524-5.126449 3.655105-.371354 6.570862.825912 8.450378 4.02835 1.756455 2.992783 1.675141 6.137955-.309235 8.922333-2.640045 3.704376-6.323913 4.551819-10.938629 2.838425z"/><path d="m158.506287 351.63324c2.932769 4.425262 2.31137 8.303344-1.036087 11.570068-2.791565 2.724274-6.321183 2.914429-9.680497 1.087128-3.669174-1.995911-4.718856-5.412323-4.018936-9.363434 1.152588-6.506683 8.501526-8.317139 14.73552-3.293762z"/></svg>