<svg version="1.1" id="Layer_1" xmlns="http://www.w3.org/2000/svg" xmlns:xlink="http://www.w3.org/1999/xlink" x="0px" y="0px"
	 width="100%" viewBox="0 0 336 592" enable-background="new 0 0 336 592" xml:space="preserve">
<path fill="#000000" opacity="1.000000" stroke="none" 
	d="
M209.203796,138.661194 
	C222.831680,138.837326 230.233215,146.924622 228.424683,159.171814 
	C227.115677,168.036453 220.358719,173.465607 210.836884,173.303497 
	C201.721207,173.148300 194.616623,166.944962 193.716400,158.354874 
	C192.583710,147.546280 197.908997,140.579239 209.203796,138.661194 
z"/>
<path fill="#000000" opacity="1.000000" stroke="none" 
	d="
M123.513168,273.107208 
	C120.294868,278.270355 116.409309,279.941101 112.247299,277.914398 
	C108.490608,276.085083 106.367119,273.097137 107.296539,268.675720 
	C108.320107,263.806458 112.530258,260.936218 117.188980,261.827423 
	C122.116219,262.770020 124.630859,267.012146 123.513168,273.107208 
z"/>
<path fill="#000000" opacity="1.000000" stroke="none" 
	d="
M245.437988,275.224609 
	C242.126633,278.971619 238.310165,279.608704 234.438309,277.539398 
	C231.168381,275.791779 229.436218,272.749054 230.271469,268.795197 
	C231.023773,265.233917 233.151566,262.839081 236.699173,261.966400 
	C240.046082,261.143097 242.957764,262.155853 245.164719,264.792755 
	C247.843170,267.992950 247.797623,271.420074 245.437988,275.224609 
z"/>
<path fill="#000000" opacity="1.000000" stroke="none" 
	d="
M117.275223,300.127380 
	C114.143463,303.876312 110.555511,305.054504 106.448471,302.971039 
	C103.070457,301.257416 101.244423,298.337158 101.775726,294.408997 
	C102.294678,290.572113 104.541832,288.071381 108.303337,287.133575 
	C111.455032,286.347778 114.235291,287.248657 116.423866,289.637573 
	C119.259178,292.732513 119.087166,296.207428 117.275223,300.127380 
z"/>
<path fill="#000000" opacity="1.000000" stroke="none" 
	d="
M226.516556,239.818176 
	C231.108185,241.464874 233.544754,244.384369 232.946640,248.945892 
	C232.460663,252.652206 230.301239,255.360748 226.431931,256.165955 
	C222.450439,256.994507 219.276520,255.637589 217.085587,252.182785 
	C215.285217,249.343826 215.754425,246.457825 217.261215,243.720337 
	C219.179001,240.236145 222.333954,239.236740 226.516556,239.818176 
z"/>
<path fill="#000000" opacity="1.000000" stroke="none" 
	d="
M180.874069,220.876755 
	C185.329971,223.423630 186.107971,227.152100 184.987869,231.310959 
	C184.019577,234.906189 181.087234,236.578217 177.597473,236.996536 
	C174.116806,237.413788 171.543945,235.647842 169.829849,232.730850 
	C167.970200,229.566193 168.169205,226.298599 170.369217,223.445175 
	C172.968094,220.074371 176.458313,219.130432 180.874069,220.876755 
z"/>
<path fill="#000000" opacity="1.000000" stroke="none" 
	d="
M241.733124,303.510498 
	C234.190613,301.148682 234.129089,291.754974 238.994537,288.556152 
	C242.442703,286.289154 245.906296,286.188202 249.212646,288.683685 
	C252.607086,291.245667 253.194016,294.900238 251.782516,298.569489 
	C250.141205,302.836182 246.646713,304.449341 241.733124,303.510498 
z"/>
<path fill="#000000" opacity="1.000000" stroke="none" 
	d="
M111.452454,313.225647 
	C117.545441,311.216064 121.628685,312.863464 123.564026,317.776398 
	C125.123505,321.735199 123.285301,326.296173 119.348770,328.235168 
	C115.250526,330.253845 110.520103,328.772614 108.183907,324.739136 
	C105.994125,320.958435 106.975601,317.177307 111.452454,313.225647 
z"/>
<path fill="#000000" opacity="1.000000" stroke="none" 
	d="
M122.550018,347.311096 
	C120.483276,341.680725 121.318352,337.879608 125.156670,335.737457 
	C128.795029,333.706940 132.548065,333.682037 135.633240,336.821289 
	C138.810425,340.054169 139.201218,343.818481 136.647644,347.660278 
	C133.442078,352.483002 127.415222,352.438019 122.550018,347.311096 
z"/>
<path fill="#000000" opacity="1.000000" stroke="none" 
	d="
M215.972137,343.709229 
	C216.268753,338.740417 218.117996,335.335388 223.084167,334.624237 
	C227.899750,333.934631 231.798187,336.507019 232.927170,340.954285 
	C233.852661,344.599976 231.440765,349.140106 227.756393,350.687653 
	C223.686157,352.397278 219.565689,350.937378 217.150681,346.854218 
	C216.652496,346.011841 216.401138,345.023499 215.972137,343.709229 
z"/>
<path fill="#000000" opacity="1.000000" stroke="none" 
	d="
M210.394638,359.186188 
	C207.341690,365.033661 202.649750,366.905121 198.170517,364.407623 
	C193.829407,361.987152 192.500854,356.684753 195.156509,352.380676 
	C197.548538,348.503845 201.284973,347.722260 205.132980,348.999420 
	C209.614044,350.486694 211.460815,354.027222 210.394638,359.186188 
z"/>
<path fill="#000000" opacity="1.000000" stroke="none" 
	d="
M232.591721,314.592316 
	C236.246704,311.760254 239.848267,311.218018 243.441422,313.639404 
	C246.061539,315.405090 247.534515,318.102173 247.114349,321.305206 
	C246.655029,324.806580 244.742966,327.433014 241.251694,328.658447 
	C237.447739,329.993591 234.390457,328.667969 231.985687,325.770966 
	C228.952835,322.117340 229.774734,318.428284 232.591721,314.592316 
z"/>
<path fill="#000000" opacity="1.000000" stroke="none" 
	d="
M193.789062,234.806671 
	C193.910889,230.424545 195.436096,227.157211 199.421768,226.000046 
	C202.893494,224.992065 206.373688,225.441147 208.908310,228.506363 
	C211.117569,231.178146 211.450226,234.279953 210.035553,237.333832 
	C208.539032,240.564362 205.899460,242.410812 202.164124,242.311920 
	C197.476913,242.187805 195.041885,239.417007 193.789062,234.806671 
z"/>
<path fill="#000000" opacity="1.000000" stroke="none" 
	d="
M185.319855,361.189117 
	C184.963409,367.442535 181.989334,370.798401 177.101746,370.898560 
	C173.224655,370.978027 169.352203,367.613892 168.770355,363.660858 
	C168.126862,359.288879 170.688370,355.319611 174.956177,354.075562 
	C179.500565,352.750885 183.563278,355.377716 185.319855,361.189117 
z"/>
<path fill="#000000" opacity="1.000000" stroke="none" 
	d="
M126.687401,255.936005 
	C122.208076,253.452072 120.309586,250.094055 121.757187,245.391205 
	C122.846306,241.852951 125.335876,239.934174 129.085571,239.672577 
	C133.292068,239.379105 136.025833,241.350342 137.713516,245.071442 
	C139.888382,249.866653 135.489426,258.267212 126.687401,255.936005 
z"/>
<path fill="#000000" opacity="1.000000" stroke="none" 
	d="
M147.975433,241.458832 
	C143.743057,238.684250 142.792267,234.974503 144.073395,230.796173 
	C145.022354,227.701324 147.461380,226.006180 150.772919,225.669724 
	C154.428024,225.298370 157.343781,226.495636 159.223297,229.698074 
	C160.979752,232.690857 160.898438,235.836029 158.914062,238.620407 
	C156.274017,242.324783 152.590149,243.172226 147.975433,241.458832 
z"/>
<path fill="#000000" opacity="1.000000" stroke="none" 
	d="
M158.506287,351.633240 
	C161.439056,356.058502 160.817657,359.936584 157.470200,363.203308 
	C154.678635,365.927582 151.149017,366.117737 147.789703,364.290436 
	C144.120529,362.294525 143.070847,358.878113 143.770767,354.927002 
	C144.923355,348.420319 152.272293,346.609863 158.506287,351.633240 
z"/>
</svg>