<svg enable-background="new 0 0 336 592" viewBox="0 0 336 592" xmlns="http://www.w3.org/2000/svg"><path d="m297.114563 327.963531c10.925476 15.578888 11.026428 32.739869.135468 44.841492-7.986237 8.874054-18.516999 11.012116-29.963471 10.521118-17.621658-.75592-34.216736-14.110168-37.978119-30.782379-4.290375-19.016937 8.579697-37.26596 27.997284-39.883941 15.953827-2.150971 29.054169 2.999084 39.808838 15.30371m-25.200806 1.384797c-2.495453-.010682-5.012664-.240021-7.482635.005584-10.996124 1.093354-19.617813 11.962769-17.602722 22.036744 2.00888 10.042938 9.744201 16.375457 19.805481 16.213867 11.02185-.177063 19.494598-7.640259 20.901153-18.410736 1.13089-8.659912-4.741272-16.507721-15.621277-19.845459z"/><path d="m295.598511 265.625366c-22.999756 18.785614-59.91066 6.129791-66.408188-22.43811-4.26593-18.756165 10.00354-37.580277 29.134659-39.663483 23.355377-2.543197 43.408661 13.144898 46.458465 33.002793 1.706208 11.109375-.977539 20.77391-9.184936 29.0988m-44.915085-37.363189c-2.955719 4.20317-4.678787 8.790237-3.904984 13.992507 1.195176 8.035233 5.709626 13.238175 13.596833 15.419877 8.434143 2.332977 16.003723.509918 21.91806-5.79271 10.277405-10.952087 4.956329-28.299499-9.55072-31.210602-8.290161-1.663559-15.871613.164017-22.059189 7.590928z"/><path d="m190.593842 288.081329c3.815216 2.777314 4.906875 6.180603 3.578323 10.252472-1.087692 3.33371-3.669785 5.042939-7.02153 5.481751-3.450455.451751-6.140534-1.074036-8.023468-3.880799-2.197068-3.275085-1.986786-6.69696.448089-9.664093 2.829636-3.448181 6.506684-4.325561 11.018586-2.189331z"/><path d="m52.854019 313.804443c6.308075-2.703125 11.363022-1.02716 13.098122 4.009125 1.627563 4.724152-1.395821 10.004028-6.437592 11.096436-3.913425.8479-7.082264-.649628-8.821174-4.057556-1.958893-3.839051-1.811013-7.731354 2.160644-11.048005z"/><path d="m124.147217 369.2771c-6.562103 2.546478-11.044136.866882-12.883759-4.505433-1.475738-4.309661 1.198166-9.318908 5.786637-10.608673 4.053863-1.139495 7.351814.343628 9.460914 3.762574 2.556893 4.144806 1.465279 7.947418-2.363792 11.351532z"/><path d="m136.471863 359.254578c-.87883-4.84314.567154-8.48407 4.835602-10.087983 3.589584-1.348785 7.22792-.846466 9.889953 2.560944 2.626923 3.362518 2.419678 6.738892.194443 10.151856-3.164627 4.853759-12.511353 5.059967-14.919998-2.624817z"/><path d="m175.284546 342.943054c-1.705643 6.487213-5.810166 9.443726-10.696228 8.105225-4.512955-1.236298-7.112442-5.837891-5.877319-10.579987 1.075042-4.12738 3.905685-5.989959 8.090774-5.942383 4.736252.053833 7.238358 2.416077 8.482773 8.417145z"/><path d="m181.780914 329.091431c-4.499954.02658-7.624618-1.817353-8.790207-5.708435-.972549-3.246643-.714721-6.672852 2.278138-9.122803 2.821853-2.309937 6.020767-2.883881 9.296157-1.226471 3.221436 1.630096 4.991669 4.36853 4.705109 8.094482-.338089 4.396393-2.957245 6.853363-7.489197 7.963227z"/><path d="m45.912865 290.01532c3.582828-3.230591 7.294876-4.295838 11.192695-1.705231 2.961758 1.968506 4.475422 4.895599 3.623829 8.616333-.816345 3.566681-2.923538 5.859314-6.57864 6.716797-3.294178.772797-5.916549-.307617-8.03408-2.739258-2.936375-3.371948-2.724251-6.950226-.203804-10.888641z"/><path d="m136.021591 233.981171c.656922-4.04097 2.180954-7.093109 6.055206-8.150177 4.756684-1.297852 9.261231 1.234558 10.659745 5.81575 1.225464 4.014328-1.064423 8.533798-5.122025 10.109161-4.285019 1.663651-8.70375-.149582-10.799652-4.515854-.422729-.880676-.537643-1.909118-.793274-3.25888z"/><path d="m170.189026 255.729919c-6.784607 1.066437-10.658997-1.024017-11.582565-5.870163-.82811-4.34523 1.245224-8.348617 5.051483-9.753921 4.147979-1.531479 8.60321.132858 10.703918 3.998627 2.18956 4.029327.882492 7.966461-4.172836 11.625457z"/><path d="m111.451172 225.804581c2.130669-4.783646 5.517921-6.608261 10.20475-5.395203 4.051529 1.048645 6.191353 4.075851 6.127037 8.097-.067574 4.224091-2.383499 7.171601-6.672226 8.23996-5.975563 1.488571-10.786972-3.705307-9.659561-10.941757z"/><path d="m177.091293 262.736816c5.881882-1.666809 10.217148.122925 11.825394 4.562531 1.344635 3.711883-.424423 8.303772-3.961227 10.282135-3.732377 2.087707-8.601365.937042-11.014634-2.603058-2.64357-3.87796-1.575256-8.52417 3.150467-12.241608z"/><path d="m70.304642 239.753662c6.891342.184876 10.260338 3.256531 9.979393 8.671799-.259278 4.997543-4.334297 8.427627-9.471138 7.854782-3.95031-.440506-6.388932-2.844193-7.000542-6.625702-.783611-4.845016 1.000061-8.450592 6.492287-9.900879z"/><path d="m73.570496 351.102051c-6.977784-.095764-10.382714-3.424896-9.86876-9.179047.448777-5.024444 4.552407-8.076446 9.872178-7.264068 3.70288.565429 6.082977 2.801055 6.611335 6.436462.711823 4.897675-1.365326 8.356964-6.614753 10.006653z"/><path d="m64.839348 265.467407c2.498573 4.378876 1.812797 8.008576-1.52116 11.081879-2.759873 2.544098-6.092961 2.657806-9.263466 1.097198-3.712681-1.827453-4.934704-5.160461-4.333141-9.174652.494747-3.301422 2.538494-5.378662 5.589374-6.341308 3.725575-1.175507 6.828827.044433 9.528393 3.336883z"/><path d="m86.041992 359.368835c-.386864-5.928222 1.667992-9.480682 5.725838-10.520507 4.089012-1.047791 8.538864.8927 10.090248 4.400238 1.686539 3.813018.150955 8.698761-3.424568 10.896087-3.719719 2.285889-8.116188 1.404145-10.999275-2.252807-.506371-.642273-.84356-1.418-1.392243-2.523011z"/><path d="m100.547501 239.356354c-3.038453 3.039169-6.309533 3.814575-9.836029 2.25682-2.900612-1.281295-4.664483-3.718154-4.960701-6.937423-.35788-3.889374 1.270271-6.947983 4.865348-8.393967 3.410279-1.371658 6.97461-1.147247 9.620888 1.799484 3.049278 3.395523 2.920197 7.174164.310494 11.275086z"/></svg>