<svg enable-background="new 0 0 336 592" viewBox="0 0 336 592" xmlns="http://www.w3.org/2000/svg"><path d="m157.629028 217.59433c3.827042-2.707947 7.381378-5.183075 10.898148-7.710434 3.411285-2.451523 5.49556-1.790466 7.192245 2.219818 6.973725 16.483032 11.539368 33.629227 14.586853 51.211807 1.128144 6.508911 2.051911 13.053223 3.211533 20.49704 5.238693-4.246551 9.81868-7.96463 14.404541-11.675415 9.595978-7.764893 19.62738-14.932434 30.105148-21.445953 2.892197-1.797943 4.026291-3.902115 3.990845-7.304718-.145843-13.995636.105988-27.99617-.112503-41.989853-.076172-4.877945 1.85907-6.562119 6.48822-6.284104 15.481186.929779 30.981888.334275 46.473923.378205 2.485535.007064 4.036224.564834 4.885895 3.109054 1.369415 4.100464 3.168609 8.056656 4.560028 12.150681 1.515564 4.459244.231384 6.297607-4.494751 6.358658-8.496918.109771-17.005707.273086-25.490936-.060028-4.924408-.193345-6.110627 1.646896-6.097626 6.347106.146698 53.155961.090057 106.312455.085998 159.468827-.000122 1.666229.057618 3.337524-.048919 4.99765-.224427 3.496185-2.126923 5.002991-5.34372 3.472412-6.312561-3.003601-12.496383-6.281738-18.69107-9.527161-2.780747-1.456909-2.247574-4.225708-2.248902-6.668365-.016754-30.660675.001831-61.32135-.003479-91.982025-.000396-2.271912.303635-4.595063-.652252-7.075074-3.567444.907715-6.029251 3.250794-8.640961 5.137787-12.021865 8.685883-23.680938 17.830262-34.508697 28.004822-2.667847 2.506928-4.122605 5.374664-4.975617 8.934143-3.461563 14.444245-9.562301 27.66391-19.221435 39.079285-3.497818 4.133789-7.606613 7.625122-12.984131 8.900787-11.9431 2.833222-20.694077-7.141327-17.908051-20.359741 2.895478-13.737823 9.510056-25.928894 19.110306-35.690186 8.085266-8.220916 10.187348-17.130889 9.931809-27.866546-.344879-14.487824-1.137512-28.852066-5.182801-43.744476-3.124099 2.251724-5.957565 4.140762-8.623672 6.242157-11.4104 8.993499-21.820984 19.064636-31.751755 29.648986-2.342712 2.496918-3.7071 5.304444-4.360267 8.75528-2.613518 13.807953-8.131516 26.376892-17.137299 37.252289-3.98288 4.809753-8.586258 9.090728-15.132195 9.838134-12.148376 1.387146-19.297241-9.244171-15.630325-23.014892 3.935791-14.780457 12.869805-26.626068 22.938736-37.586243 3.672615-3.997711 5.021782-7.96878 4.340836-13.015442-1.625656-12.048233-3.882782-23.943008-7.830986-35.496322-1.077103-3.151825-2.855713-4.018113-5.905411-3.969864-7.996414.126465-15.998253-.061676-23.993508.097702-3.283424.065445-5.299304-.921402-6.340564-4.22461-1.299263-4.121627-3.178387-8.060104-4.48552-12.179702-1.06977-3.371521.216896-5.658768 4.031472-5.668518 13.829609-.03537 27.659519.044937 41.489132.010406 3.640037-.009079 4.669731 2.627853 5.801963 5.253265 6.273941 14.548035 11.190552 29.548386 14.971749 44.927781.191414.778534.495445 1.529373 1.025856 3.139511 12.544822-10.506897 24.194236-21.304489 37.272117-30.893921z"/></svg>