<svg enable-background="new 0 0 336 592" viewBox="0 0 336 592" xmlns="http://www.w3.org/2000/svg"><path d="m178.293671 372.762451c-15.855439-12.428589-28.565796-26.946991-36.747086-45.168915-1.37439-3.061157-1.183075-5.473114.911057-8.265747 12.146545-16.197754 27.963119-27.388458 46.602081-34.871124 1.476395-.592682 3.255005-.671661 4.53981-2.423981-5.442123-2.298278-11.092102-3.676239-16.242767-6.367584-20.003388-10.452209-30.634995-27.492065-34.655213-49.122345-1.981674-10.662155-.061462-9.094711-10.458862-9.202942-8.998413-.093673-18.008041.225693-26.994095-.120712-4.829017-.186157-6.212074 1.360413-6.197159 6.194321.164017 53.162414.109269 106.325531.1092 159.488433 0 1.498902.106628 3.021149-.110039 4.492188-.557548 3.785278-2.925773 5.211792-6.349075 3.603729-5.576454-2.619415-11.024056-5.511871-16.552178-8.235992-2.852081-1.405487-3.325912-3.838288-3.310676-6.683411.058891-10.998932.038437-21.998352.038795-32.997589.001282-38.830627.015023-77.661285-.012657-116.491913-.007461-10.466568.875664-9.179977-9.505497-9.263656-5.49929-.044342-11.001697-.117691-16.497787.019271-3.120415.077759-5.006966-1.132202-6.00264-4.094894-1.218056-3.62442-2.663933-7.171585-3.942013-10.776703-1.639431-4.62442-.40424-6.599472 4.566475-6.687088 8.496704-.149795 16.998066-.020096 25.497253-.057876 1.624314-.007218 3.333527.388916 5.328484-.924271-2.466194-7.206329-4.655121-14.624405-6.062752-22.283966-5.003406-27.225754 11.205994-53.598877 37.862976-61.131684 35.428032-10.011375 68.994561 5.742432 86.167229 40.39766 4.450317 8.980972 7.967285 18.290909 10.485031 27.995666.707047 2.725235 2.521927 5.87088-1.562195 7.010346-3.454528.963806-7.351577 1.531036-9.519714-2.884186-3.671433-7.476517-7.539856-14.847122-12.154205-21.802734-7.103058-10.707093-15.279572-20.422364-27.557221-25.276215-15.433929-6.101685-30.903747-5.650146-44.966087 3.559555-13.214943 8.654739-16.846275 22.090683-15.287621 37.161606.424774 4.107162 1.814782 8.105972 2.427613 12.204483.695778 4.653091 3.013946 6.125763 7.767364 6.114746 67.328293-.155731 134.657028-.114883 201.985672-.121246 1.666535-.000153 3.339966.101822 4.998169-.014695 3.347443-.235244 5.273377 1.345322 6.348785 4.417023 1.209778 3.45546 2.726105 6.805802 3.881165 10.277695 1.721802 5.175339.568634 6.818878-4.838867 6.85936-10.165405.076095-20.33725.217514-30.495117-.069214-4.441925-.125382-5.759034 1.412445-5.718079 5.734619.181458 19.16365-.244659 38.33815.230164 57.491836.248443 10.021332-3.437561 16.766175-16.041871 15.82013-19.692306-1.478058-38.811615 1.996521-57.251342 8.961029-13.728821 5.185242-25.811127 12.973724-36.135788 23.49527-2.349701 2.3945-2.413925 4.135772-.448563 6.810882 14.256394 19.404755 33.037232 31.00119 57.326141 31.561737 18.002778.415467 33.88086-6.162628 47.103486-18.62735 5.764465-5.434021 6.818573-5.370239 11.548706 1.126496 2.549224 3.501282 4.965789 7.099487 7.531402 10.588409 1.908936 2.595886 1.661133 4.75824-.629272 7.048004-21.97226 21.965699-47.834458 29.675354-78.130005 21.638184-11.93039-3.165009-22.537933-8.930267-32.880615-16.104645m72.366394-133.262176c-.00058-5.326676-.265061-10.67038.076904-15.974976.305573-4.740219-1.258957-6.363357-6.154724-6.311432-21.803558.231369-43.610962.099365-65.416977.102127-10.926254.001374-10.926239.004746-9.897873 10.779038 2.091003 21.90773 21.121918 41.351654 42.872528 44.675506 10.801758 1.650605 21.601151.591095 32.344299 1.464844 5.438981.442352 6.442887-1.415955 6.26442-6.273254-.335922-9.142731-.092117-18.306778-.088577-28.461853z"/></svg>