<svg enable-background="new 0 0 336 592" viewBox="0 0 336 592" xmlns="http://www.w3.org/2000/svg"><path d="m104.020332 373.045654c-16.432762-12.113311-28.808464-27.078247-37.351783-45.263092-1.555855-3.311767-1.279961-5.681427.98526-8.565857 12.773079-16.26474 28.756553-28.038482 48.156242-35.187286.774773-.285492 1.538055-.603973 2.295578-.932709.132675-.057586.209854-.243042.367538-.436889-.212135-1.735566-1.86544-1.673432-2.955963-2.012635-26.988212-8.394806-42.314132-27.031875-47.72258-54.328384-1.802795-9.09877-1.673385-9.123505-10.709438-9.119949-4.332226.001709-8.666779-.087037-12.995853.029449-2.832356.076202-4.773182-.818527-5.785698-3.640732-1.460896-4.07196-3.122357-8.071609-4.668-12.113663-1.279129-3.345092.194943-5.143295 3.452279-5.633499 1.632045-.245605 3.32574-.100204 4.99155-.100189 69.315678.000977 138.631367.006134 207.947041.008713 7.297744.000275 7.205001-.000748 6.841049-7.136902-.727295-14.258697-3.062821-28.096313-10.053437-40.80603-9.42456-17.134888-31.797866-22.822235-47.27481-11.612473-11.262146 8.157028-12.637528 20.069809-10.852326 32.737305.604737 4.291 2.23085 8.338165 3.901444 12.336334 1.52211 3.642838-.067124 5.339447-3.665711 5.744324-2.804428.315536-5.180786-.394882-7.298263-2.403732-17.118439-16.240296-21.711624-43.15799-4.643952-62.400956 9.999008-11.273399 23.326401-15.734794 38.188614-14.92337 31.106629 1.698318 47.516556 21.373505 58.033005 48.092865 4.548309 11.556 6.565979 23.66716 7.911285 35.89444.424958 3.86232 2.270874 4.604614 5.564331 4.55278 7.662964-.120636 15.331208.052749 22.992463-.115051 3.309021-.07248 5.335754 1.081451 6.392761 4.264022 1.203125 3.622605 2.746002 7.132294 3.952636 10.753876 1.45279 4.360504.115296 6.355652-4.512329 6.424866-8.82904.13208-17.668762.253204-26.489563-.046738-4.648437-.15805-5.953613 1.500122-5.942077 6.041672.135864 53.486008.095733 106.972458.09082 160.458816-.000153 1.662262.14563 3.389801-.243408 4.972138-.653809 2.659485-2.428558 4.158844-5.196472 2.769348-5.94925-2.986603-11.803955-6.162018-17.686615-9.280365-3.026703-1.604431-2.34256-4.515564-2.344086-7.099884-.023529-39.823212-.014221-79.646393-.013123-119.469589.000306-10.997208-.112365-21.996124.058564-32.990662.059295-3.814834-1.165436-5.398132-5.13797-5.361297-15.328125.142135-30.659455.168609-45.986939-.00145-4.287887-.047577-5.355377 1.72522-5.32492 5.690292.148483 19.327271.071701 38.656266.080902 57.984635.00563 11.839935-3.333481 15.327484-14.944016 15.196533-14.68573-.16568-29.273956.35849-43.570221 4.257141-18.957184 5.169678-36.026115 13.634094-50.133415 27.638855-2.935005 2.913696-3.340096 5.145233-.686623 8.464813 13.534279 16.931732 30.104981 28.366364 52.33107 30.451508 20.028412 1.878967 36.888764-4.886871 51.523392-18.05426 5.960037-5.362488 7.386765-5.318665 11.936401 1.257629 2.368653 3.423767 4.754746 6.838348 7.238099 10.178955 1.890518 2.543121 1.902053 4.696533-.465943 7.029297-19.346344 19.058899-42.031433 27.984466-69.407257 23.573547-15.15712-2.442199-28.509537-8.785217-41.169533-17.76651m71.039238-135.545395c.009568-4.499435.02208-8.998886.028031-13.498321.008804-6.660568-.102585-6.797333-6.598664-6.799896-21.497497-.008515-42.995346.076675-64.49237-.022385-13.442505-.061951-10.825279.397903-9.692444 10.718994 2.202576 20.067322 17.333549 37.49707 36.779419 43.000549 12.513244 3.541443 25.277405 3.561921 38.096588 3.787384 4.814102.084687 6.031708-1.831665 5.947784-6.191101-.192443-9.995147-.065795-19.99649-.068344-30.995224z"/></svg>