<svg version="1.1" id="Layer_1" xmlns="http://www.w3.org/2000/svg" xmlns:xlink="http://www.w3.org/1999/xlink" x="0px" y="0px"
	 width="100%" viewBox="0 0 336 592" enable-background="new 0 0 336 592" xml:space="preserve">
<path fill="#000000" opacity="1.000000" stroke="none" 
	d="
M169.126587,118.816528 
	C192.403885,113.544121 213.270294,117.036232 230.792648,133.541489 
	C243.640350,145.643478 250.317902,161.040359 253.310181,178.221649 
	C254.026749,182.336075 254.363068,186.458908 254.463867,190.625748 
	C254.548752,194.134827 256.006683,196.338257 260.010864,195.846909 
	C261.323578,195.685852 262.683716,195.712860 264.003387,195.843613 
	C268.077057,196.247269 273.325653,193.904633 275.991791,197.078384 
	C279.652893,201.436569 281.073517,207.477631 282.556976,213.092255 
	C283.306488,215.929092 281.414581,217.240677 278.476410,217.198746 
	C272.314667,217.110825 266.148041,217.286560 259.988708,217.136688 
	C256.690582,217.056427 255.367935,218.129440 255.081009,221.642593 
	C253.838547,236.855591 250.848816,251.553497 242.237381,264.664948 
	C236.884613,272.814880 229.880264,278.965790 221.656174,283.931488 
	C220.536453,284.607605 219.440079,285.322296 218.310898,286.032990 
	C218.854980,288.369019 220.910965,288.627960 222.379776,289.503876 
	C247.758530,304.638733 256.558044,326.381958 251.040771,354.323303 
	C247.292236,373.307220 228.748291,389.123383 207.909042,392.285889 
	C172.576172,397.647919 146.286850,383.347107 127.150490,354.479156 
	C112.432861,332.277008 105.294792,307.262024 101.590958,281.103882 
	C99.462601,266.072510 98.303513,251.002762 98.901726,235.830566 
	C99.136124,229.885712 99.748413,223.955780 100.250916,217.178574 
	C94.390488,217.178574 88.933678,216.886795 83.524864,217.270859 
	C79.194359,217.578354 77.079941,215.768402 75.919266,211.883545 
	C75.016045,208.860443 73.726768,205.954712 72.676094,202.973190 
	C70.747543,197.500534 71.820396,195.857895 77.502045,195.797226 
	C84.497231,195.722519 91.507309,195.511429 98.484795,195.869263 
	C102.862770,196.093781 104.591789,194.381424 105.639755,190.306473 
	C110.491936,171.439041 119.140511,154.580704 132.820175,140.480042 
	C142.887970,130.102432 154.571472,122.466988 169.126587,118.816528 
M227.910095,347.360260 
	C233.789612,331.442688 229.420135,315.846802 216.057617,305.468964 
	C206.245834,297.848785 194.594620,295.770752 182.683182,295.484863 
	C165.872238,295.081482 149.042709,295.507690 132.225906,295.257629 
	C127.559647,295.188263 126.745056,297.182648 127.513802,301.007996 
	C130.833618,317.527740 136.708115,333.010559 146.890961,346.560638 
	C159.561142,363.420532 175.844345,372.821228 197.652008,369.664764 
	C211.324585,367.685791 222.256775,361.671295 227.910095,347.360260 
M183.500000,217.175400 
	C166.010071,217.181900 148.519516,217.268463 131.030655,217.134689 
	C127.011993,217.103943 125.610451,218.546844 125.192863,222.577805 
	C123.681595,237.165939 122.702919,251.704681 124.177956,266.382996 
	C124.591949,270.502716 125.803398,271.783478 129.827454,271.750305 
	C148.482117,271.596466 167.140991,271.849640 185.793671,271.602417 
	C194.728134,271.484009 203.211441,269.068878 210.885727,264.279572 
	C225.837921,254.948318 233.910629,241.151718 236.822235,224.068420 
	C237.990128,217.216019 237.904999,217.179932 230.973282,217.174591 
	C215.482193,217.162689 199.991089,217.174484 183.500000,217.175400 
M228.355850,160.169067 
	C217.054138,144.059814 201.443085,138.172394 182.313690,141.016434 
	C161.224426,144.151840 148.194229,157.723328 138.719513,175.518204 
	C135.418259,181.718399 132.074905,188.026611 131.202240,195.158813 
	C131.886292,195.428085 132.190399,195.652313 132.494873,195.652786 
	C166.284622,195.705292 200.074463,195.722137 233.864120,195.809433 
	C236.974335,195.817474 237.862991,194.451981 237.771591,191.534256 
	C237.425461,180.483978 234.330566,170.276550 228.355850,160.169067 
z"/>
<path fill="#000000" opacity="1.000000" stroke="none" 
	d="
M154.126541,414.837952 
	C184.436035,429.075928 212.606461,424.616699 240.060272,406.078217 
	C243.440338,411.818054 246.261978,417.550018 248.594360,423.502319 
	C249.358932,425.453552 247.258896,426.300690 245.999176,427.288544 
	C235.011261,435.905457 222.426849,441.002838 208.768723,443.142273 
	C182.995926,447.179321 160.027679,440.411987 139.765579,424.149261 
	C138.211990,422.902313 136.872864,421.387665 135.315552,420.146057 
	C132.844421,418.175903 132.859695,416.097137 134.638199,413.693848 
	C135.525681,412.494568 136.324799,411.202362 136.975494,409.860840 
	C138.613358,406.484222 140.487259,406.166412 143.557907,408.495422 
	C146.714767,410.889893 150.358887,412.641907 154.126541,414.837952 
z"/>
</svg>