<svg enable-background="new 0 0 336 592" viewBox="0 0 336 592" xmlns="http://www.w3.org/2000/svg"><path d="m169.126587 118.816528c23.277298-5.272407 44.143707-1.780296 61.666061 14.724961 12.847702 12.101989 19.525254 27.49887 22.517533 44.68016.716568 4.114426 1.052887 8.237259 1.153686 12.404099.084885 3.509079 1.542816 5.712509 5.546997 5.221161 1.312714-.161057 2.672852-.134049 3.992523-.003296 4.07367.403656 9.322266-1.93898 11.988404 1.234771 3.661102 4.358185 5.081726 10.399247 6.565185 16.013871.749512 2.836837-1.142395 4.148422-4.080566 4.106491-6.161743-.087921-12.328369.087814-18.487702-.062058-3.298126-.080261-4.620773.992752-4.907699 4.505905-1.242462 15.212998-4.232193 29.910904-12.843628 43.022355-5.352768 8.149932-12.357117 14.300842-20.581207 19.26654-1.119721.676117-2.216095 1.390808-3.345276 2.101502.544082 2.336029 2.600067 2.59497 4.068878 3.470886 25.378754 15.134857 34.178268 36.878082 28.660995 64.819427-3.748535 18.983917-22.29248 34.80008-43.131729 37.962586-35.33287 5.36203-61.622192-8.938782-80.758552-37.806733-14.717629-22.202148-21.855698-47.217132-25.559532-73.375274-2.128357-15.031372-3.287445-30.10112-2.689232-45.273316.234398-5.944854.846687-11.874786 1.34919-18.651992-5.860428 0-11.317238-.291779-16.726052.092285-4.330505.307495-6.444923-1.502457-7.605598-5.387314-.903221-3.023102-2.192498-5.928833-3.243172-8.910355-1.928551-5.472656-.855698-7.115295 4.825951-7.175964 6.995186-.074707 14.005264-.285797 20.98275.072037 4.377975.224518 6.106994-1.487839 7.15496-5.56279 4.852181-18.867432 13.500756-35.725769 27.18042-49.826431 10.067795-10.37761 21.751297-18.013054 36.306412-21.663514m58.783508 228.543732c5.879517-15.917572 1.51004-31.513458-11.852478-41.891296-9.811783-7.620179-21.462997-9.698212-33.374435-9.984101-16.810944-.403381-33.640473.022827-50.457276-.227234-4.666259-.069366-5.48085 1.925019-4.712104 5.750367 3.319816 16.519744 9.194313 32.002563 19.377159 45.552642 12.670181 16.859894 28.953384 26.26059 50.761047 23.104126 13.672577-1.978973 24.604767-7.993469 30.258087-22.304504m-44.410095-130.18486c-17.489929.0065-34.980484.093063-52.469345-.040711-4.018662-.030746-5.420204 1.412155-5.837792 5.443116-1.511268 14.588134-2.489944 29.126876-1.014907 43.805191.413993 4.11972 1.625442 5.400482 5.649498 5.367309 18.654663-.153839 37.313537.099335 55.966217-.147888 8.934463-.118408 17.41777-2.533539 25.092056-7.322845 14.952194-9.331254 23.024902-23.127854 25.936508-40.211152 1.167893-6.852401 1.082764-6.888488-5.848953-6.893829-15.491089-.011902-30.982193-.000107-47.473282.000809m44.85585-57.006333c-11.301712-16.109253-26.912765-21.996673-46.04216-19.152633-21.089264 3.135406-34.119461 16.706894-43.594177 34.50177-3.301254 6.200195-6.644608 12.508407-7.517273 19.640609.684052.269272.988159.4935 1.292633.493973 33.789749.052506 67.57959.069351 101.369247.156647 3.110215.008041 3.998871-1.357452 3.907471-4.275177-.34613-11.050278-3.441025-21.257706-9.415741-31.365189z"/><path d="m154.126541 414.837952c30.309494 14.237976 58.47992 9.778747 85.933731-8.759735 3.380066 5.739837 6.201706 11.471801 8.534088 17.424102.764572 1.951233-1.335464 2.798371-2.595184 3.786225-10.987915 8.616913-23.572327 13.714294-37.230453 15.853729-25.772797 4.037048-48.741044-2.730286-69.003144-18.993012-1.553589-1.246948-2.892715-2.761596-4.450027-4.003204-2.471131-1.970154-2.455857-4.04892-.677353-6.452209.887482-1.19928 1.6866-2.491486 2.337295-3.833008 1.637864-3.376618 3.511765-3.694428 6.582413-1.365418 3.15686 2.394471 6.80098 4.146485 10.568634 6.34253z"/></svg>