<svg enable-background="new 0 0 336 592" viewBox="0 0 336 592" xmlns="http://www.w3.org/2000/svg"><path d="m183.147003 116.675354c38.404267-2.377312 64.279297 25.992004 70.153504 61.403763.710998 4.285995 1.044571 8.577652 1.194961 12.906936.11734 3.378067 1.710159 5.092621 5.380509 4.88823 4.152893-.231278 8.330352.020691 12.494262-.069931 2.678009-.058274 4.317292.895645 5.215821 3.577102 1.373748 4.099823 3.201049 8.046296 4.620605 12.132615 1.269379 3.653976.173462 5.777328-4.113281 5.693069-5.8302-.114609-11.667786.090546-17.495301-.079208-3.585784-.104462-5.255554.774093-5.577545 4.905273-1.173187 15.0522-4.234146 29.583161-12.734756 42.558563-5.345169 8.158936-12.340134 14.32486-20.565262 19.299866-1.234833.746887-2.80574 1.097717-3.40097 2.710907.992813 1.758911 2.889297 2.188629 4.426986 3.110535 25.673905 15.392364 34.767197 38.537048 27.704911 65.959076-5.491776 21.324005-21.314789 32.998352-42.55626 36.494964-35.285156 5.808319-61.620864-8.861358-80.756721-37.734497-14.721451-22.212402-21.787361-47.250305-25.569664-73.411041-2.97036-20.544891-3.712296-41.084564-1.434128-61.725311.049423-.447846-.213325-.930146-.398148-1.665863-5.750617-.961609-11.566421-.403336-17.33992-.380692-3.163406.012436-4.955795-1.139038-5.948532-4.094467-1.271515-3.78537-2.888702-7.455673-4.130813-11.249588-1.378334-4.210022-.129921-6.003464 4.316002-6.082733 7.329879-.130707 14.674263-.283417 21.991569.042953 4.117928.18367 5.961014-1.284881 6.912331-5.218857 3.93396-16.268112 11.115234-31.060684 21.700729-44.0009 14.318154-17.503219 32.358437-28.478844 55.909111-29.970764m-33.616607 233.295319c17.478088 19.723541 38.692443 25.449218 60.43048 16.309936 21.754639-9.14624 27.586548-39.777588 10.944306-56.601715-10.491501-10.60611-23.743454-13.782654-37.803818-14.178223-16.9785-.47763-33.982178.008454-50.97023-.242187-4.785652-.070587-5.34864 2.142059-4.596161 5.84259 3.599213 17.700073 10.126373 34.100556 21.995423 48.869599m74.721038-97.227921c7.202256-8.888275 11.045472-19.157867 13.027878-30.342682.756317-4.267151-.620453-5.274216-4.527054-5.264755-33.956817.082245-67.914032.103729-101.870712.000961-4.149162-.012558-5.308243 1.683792-5.685516 5.586655-1.344658 13.910675-2.598465 27.762741-1.001259 41.772888.811958 7.122131.341614 7.186554 7.734779 7.191223 16.6456.010529 33.29187-.082031 49.93663.03833 16.775986.121308 30.854477-5.684478 42.385254-18.98262m-90.561767-66.579544c-.775788 3.002197-2.591461 5.743149-2.475937 8.993225 2.251892 1.040588 4.445907.607391 6.568054.611084 21.13794.036759 42.275971.019699 63.413986.018753 10.652222-.000488 21.30539-.078338 31.956116.047897 3.3638.039856 4.777649-.982498 4.658768-4.587524-.149536-4.535431-.980469-8.909012-2.007523-13.273209-9.561249-40.627914-50.607635-46.023513-75.963028-27.921432-12.478607 8.908874-20.054352 21.544525-26.150436 36.111206z"/><path d="m240.512573 442.537872c2.119049-1.368866 3.921097-2.564209 5.742951-3.728546.266967-.170593.628158-.193786 1.296463-.386078 3.314178 4.028443 5.225265 8.992523 7.597015 13.663178 1.27684 2.514404-1.073715 3.528839-2.605652 4.659302-14.788147 10.912628-31.556747 16.233184-49.76384 16.859436-18.868743.649078-36.632507-3.533204-52.806076-13.597626-4.669937-2.905945-9.027984-6.198151-13.032455-10.008942-2.266617-2.157043-2.237503-3.938782-.712357-6.498657 4.577149-7.682251 4.385163-7.570007 11.740784-3.025543 30.277084 18.706024 61.059174 19.109802 92.543167 2.063476z"/><path d="m191.184113 438.261505c-17.786255-1.628784-33.475327-7.100647-46.855011-18.680267-3.262574-2.823639-3.759751-4.982941-1.198624-8.247467 1.416-1.804871 1.929596-4.247956 3.837341-5.745392 1.705292-.406006 2.885697.696808 4.12378 1.431183 27.648925 16.40036 55.354629 15.249725 82.936645.010772 3.867142-2.136566 5.954178-1.963104 7.584473 2.160645.669372 1.693115 1.667923 3.255066 2.500625 4.884888 3.87555 7.585388 3.86528 7.572052-3.744873 11.936767-15.090088 8.654663-31.378952 12.527222-49.184356 12.248871z"/></svg>