<svg enable-background="new 0 0 336 592" viewBox="0 0 336 592" xmlns="http://www.w3.org/2000/svg"><path d="m144.122742 373.928589c-17.34594-12.600495-30.442826-28.230469-39.179436-47.483246-1.146233-2.526001-.563553-4.235718 1.02002-6.314087 11.772377-15.450867 26.574012-26.920624 44.506599-34.368866 2.422043-1.005981 4.81897-2.072479 8.311417-3.578247-11.588898-3.58609-21.59079-7.891663-29.920823-15.308441-12.150322-10.818207-19.333122-24.364548-22.132766-40.315537-.057289-.326431-.013497-.671615-.079277-.995376-1.936554-9.531037.315849-8.257034-9.631523-8.381317-4.830971-.060364-9.668686-.145462-14.493126.042663-3.011834.117432-4.614952-1.174667-5.550339-3.884201-1.24778-3.614486-2.69793-7.158584-3.984734-10.760223-1.787597-5.003281-.595047-6.698151 4.871216-6.772873 5.83033-.079697 11.66256-.019943 17.493965-.020523 39.653633-.003952 79.307274-.007752 118.960915-.011582 1.798111-.000167 3.596237-.00003 6.048172-.00003-3.039215-9.617218-7.360123-17.830124-11.790756-25.923523-4.868531-8.893387-9.96428-17.728973-18.186264-24.164337-6.469254-5.063507-13.713257-7.890427-21.958329-8.513596-9.313614-.703964-18.62474-.848007-27.953018-.84024-5.487671.004562-7.196762-1.652588-7.364426-7.101776-.13829-4.493813-.068771-8.9963.006409-13.493317.031693-1.895523.3582-3.878357 2.883087-3.864014 15.09842.085762 30.380066-1.54731 44.958557 4.032883 13.695191 5.242104 22.960297 15.44902 30.564744 27.556229 9.5139 15.147308 16.278594 31.633621 23.5457 47.869064 1.44078 3.218841 3.148422 4.610229 6.69075 4.545196 9.660248-.177337 19.329483.088273 28.987472-.142868 3.632416-.086929 5.530304 1.279664 6.617279 4.590378 1.140259 3.473068 2.684479 6.812393 3.858033 10.275925 1.646331 4.858826.502197 6.496551-4.60785 6.534729-9.996185.074676-20.000976.261673-29.986694-.067917-4.959976-.163727-6.645874 1.260422-6.571136 6.431503.286499 19.822678.129974 39.651932.113342 59.478714-.007446 8.881562-3.485886 12.284363-12.245438 12.393555-20.187835.251617-40.216354 1.568878-59.316406 9.050201-14.266068 5.587952-27.157242 13.210968-37.797531 24.440339-2.301468 2.428863-2.427597 4.11911-.432282 6.791656 14.606873 19.564423 33.883027 31.162384 58.361878 31.698395 17.732147.388244 33.474243-6.359863 46.379776-18.965363 5.395523-5.27008 6.69014-5.106201 11.132828 1.113037 2.222091 3.110657 4.115493 6.514679 6.677719 9.309113 3.284378 3.58197 3.026733 6.097595-.451538 9.529144-24.45427 24.126099-57.241272 29.687653-88.480469 16.72461-6.931961-2.876496-13.458298-6.562134-19.875717-11.135834m21.046951-104.519592c3.997818 1.097473 7.946579 2.443206 12.002899 3.244476 10.855789 2.144531 21.88971.955841 32.830811 1.524139 3.986084.207001 4.747268-1.240478 4.71347-4.801696-.146927-15.475037-.242706-30.955735.049851-46.426697.090561-4.789536-1.648316-5.893296-6.05568-5.861145-23.13031.16864-46.262405.083328-69.39389.097442-7.223618.004395-7.880646.681-6.841217 7.659821 3.017715 20.261154 12.506271 35.880035 32.693756 44.56366z"/></svg>