<svg version="1.1" id="Layer_1" xmlns="http://www.w3.org/2000/svg" xmlns:xlink="http://www.w3.org/1999/xlink" x="0px" y="0px"
	 width="100%" viewBox="0 0 336 592" enable-background="new 0 0 336 592" xml:space="preserve">
<path fill="#000000" opacity="1.000000" stroke="none" 
	d="
M213.421814,125.518967 
	C199.701004,120.749214 185.827866,121.353020 172.016983,121.336380 
	C162.090179,121.324425 161.529785,120.849800 161.630966,110.821831 
	C161.772156,96.830147 159.649811,98.688187 173.800903,98.644905 
	C183.287552,98.615883 192.831985,97.839394 202.255005,99.253395 
	C220.127975,101.935387 232.972580,112.107407 242.222900,127.185158 
	C252.504730,143.944214 258.392334,162.527649 264.267822,181.102844 
	C269.969727,199.129257 265.645935,195.387589 283.621857,195.857697 
	C285.120667,195.896896 286.635437,195.730133 288.118500,195.887726 
	C291.508636,196.247971 295.900208,194.212509 298.091125,197.298752 
	C301.429016,202.000732 303.541504,207.617447 304.185211,213.456848 
	C304.563385,216.887634 301.716675,217.296600 299.034393,217.297684 
	C290.701721,217.301041 282.358337,217.549072 274.040558,217.196503 
	C269.342621,216.997375 268.125854,218.659775 268.137329,223.176865 
	C268.270782,275.839081 268.225800,328.501770 268.228271,381.164307 
	C268.228302,382.164246 268.236420,383.164185 268.231476,384.164093 
	C268.190643,392.409637 266.885864,393.228363 259.574890,389.575134 
	C255.552872,387.565338 251.648499,385.270081 247.495529,383.585754 
	C242.962402,381.747284 241.904388,378.435211 242.092255,374.043854 
	C243.146896,349.392426 242.399826,324.726990 242.551788,300.068176 
	C242.586624,294.414398 241.928513,288.766113 242.522583,283.098907 
	C242.764572,280.790344 242.392822,278.485779 241.455200,276.025238 
	C237.024506,277.399292 233.796295,280.340485 230.312683,282.761993 
	C219.771774,290.089111 210.145630,298.575714 200.234955,306.705963 
	C195.544754,310.553589 193.773712,315.595581 192.228943,321.177612 
	C187.954147,336.624756 181.411865,350.928558 168.999969,361.740143 
	C162.615311,367.301544 155.673935,368.197449 149.739746,364.598907 
	C144.321350,361.313171 141.699097,353.580383 143.409470,345.975525 
	C146.725906,331.229584 154.697021,318.950592 164.598892,308.000977 
	C169.472000,302.612213 172.078354,297.236725 172.056290,289.866638 
	C172.007431,273.534271 172.417343,257.220703 167.982224,241.278275 
	C167.769470,240.513443 167.484650,239.768661 167.134476,238.717621 
	C162.453903,240.539398 159.052185,243.785538 155.562485,246.718643 
	C145.109024,255.504807 134.968048,264.643127 125.892136,274.900787 
	C123.943581,277.103088 122.796150,279.472260 122.237389,282.370758 
	C119.481636,296.666016 113.945679,309.724182 104.503380,320.963776 
	C101.903824,324.058197 98.879272,326.658752 95.251450,328.473053 
	C84.988968,333.605286 74.257835,327.454346 73.756882,315.992310 
	C73.288307,305.271240 78.593185,296.442993 83.856117,287.744965 
	C88.089363,280.748718 93.295662,274.426666 98.947388,268.519653 
	C100.932335,266.445038 101.848610,264.284637 101.807549,261.404938 
	C101.608307,247.431747 98.278038,234.092880 94.003914,220.910385 
	C93.041756,217.942810 91.067947,217.261124 88.282784,217.286835 
	C80.450798,217.359146 72.614746,217.173599 64.786110,217.348923 
	C60.913853,217.435654 58.536480,216.319275 57.519653,212.252075 
	C56.637672,208.724258 54.983315,205.393890 53.742836,201.950134 
	C52.365055,198.125198 53.541599,195.939835 57.467930,195.899628 
	C71.131943,195.759766 84.798317,195.865540 98.463692,195.833649 
	C101.034447,195.827652 102.398323,197.276688 103.356468,199.393570 
	C109.682793,213.370850 114.602959,227.835297 118.308449,242.714935 
	C118.823853,244.784607 118.974007,246.959473 120.568687,248.936691 
	C124.049599,247.132538 126.527809,244.181305 129.332504,241.713837 
	C141.475266,231.031036 153.838867,220.636932 167.280701,211.601700 
	C172.527420,208.075012 173.639847,208.396942 176.049652,214.254837 
	C184.777618,235.470993 189.991852,257.563751 192.339798,280.356262 
	C192.458969,281.513031 192.354218,282.712036 193.437256,283.611938 
	C195.181366,284.131195 196.124130,282.728912 197.191727,281.802948 
	C210.049927,270.651093 223.570557,260.380615 238.063721,251.448929 
	C241.235153,249.494446 242.648361,247.364243 242.580994,243.456284 
	C242.345520,229.795731 242.539185,216.127655 242.584045,202.462479 
	C242.594421,199.300201 241.874802,195.776474 246.973480,195.207199 
	C236.453598,177.553513 222.445786,167.023132 202.263519,166.406113 
	C191.773865,166.085434 181.266769,166.359802 170.767822,166.308731 
	C164.211487,166.276825 162.000427,164.159042 162.050751,157.624084 
	C162.160507,143.366562 160.116241,143.935944 175.299423,143.967148 
	C186.614914,143.990402 197.962173,143.439072 209.083099,146.325027 
	C225.279709,150.528137 236.842087,160.897491 246.247696,174.150558 
	C248.219666,176.929214 250.121246,179.757843 252.474197,182.292450 
	C246.444397,163.802338 241.245804,144.920883 225.081314,131.962570 
	C221.644257,129.207245 217.720734,127.449860 213.421814,125.518967 
z"/>
</svg>