<svg enable-background="new 0 0 336 592" viewBox="0 0 336 592" xmlns="http://www.w3.org/2000/svg"><path d="m213.421814 125.518967c-13.72081-4.769753-27.593948-4.165947-41.404831-4.182587-9.926804-.011955-10.487198-.48658-10.386017-10.514549.14119-13.991684-1.981155-12.133644 12.169937-12.176926 9.486649-.029022 19.031082-.805511 28.454102.60849 17.87297 2.681992 30.717575 12.854012 39.967895 27.931763 10.28183 16.759056 16.169434 35.342491 22.044922 53.917686 5.701905 18.026413 1.378113 14.284745 19.354035 14.754853 1.49881.039199 3.01358-.127564 4.496643.030029 3.390136.360245 7.781708-1.675217 9.972625 1.411026 3.337891 4.70198 5.450379 10.318695 6.094086 16.158096.378174 3.430786-2.468536 3.839752-5.150818 3.840836-8.332672.003357-16.676056.251388-24.993835-.101181-4.697937-.199128-5.914704 1.463272-5.903229 5.980362.133453 52.662216.088471 105.324905.090942 157.987442.000031.999939.008149 1.999878.003205 2.999786-.040833 8.245544-1.345612 9.06427-8.656586 5.411041-4.022018-2.009796-7.926391-4.305053-12.079361-5.98938-4.533127-1.83847-5.591141-5.150543-5.403274-9.5419 1.054641-24.651428.307571-49.316864.459533-73.975678.034836-5.653778-.623275-11.302063-.029205-16.969269.241989-2.308563-.129761-4.613128-1.067383-7.073669-4.430694 1.374054-7.658905 4.315247-11.142517 6.736755-10.540909 7.327118-20.167053 15.813721-30.077728 23.94397-4.690201 3.847626-6.461243 8.889618-8.006012 14.471649-4.274796 15.447144-10.817078 29.750946-23.228974 40.562531-6.384658 5.561401-13.326034 6.457306-19.260223 2.858764-5.418396-3.285736-8.040649-11.018524-6.330276-18.623382 3.316436-14.745941 11.287551-27.024933 21.189422-37.974548 4.873108-5.388764 7.479462-10.764252 7.457398-18.134339-.048859-16.332367.361053-32.645935-4.074066-48.588363-.212754-.764832-.497574-1.509614-.847748-2.560654-4.680573 1.821777-8.082291 5.067917-11.571991 8.001022-10.453461 8.786164-20.594437 17.924484-29.670349 28.182144-1.948555 2.202301-3.095986 4.571473-3.654747 7.469971-2.755753 14.295258-8.29171 27.353424-17.734009 38.593018-2.599556 3.094421-5.624108 5.694976-9.25193 7.509277-10.262482 5.132233-20.993615-1.018707-21.494568-12.480743-.468575-10.72107 4.836303-19.549317 10.099235-28.247345 4.233246-6.996247 9.439545-13.318299 15.091271-19.225312 1.984947-2.074615 2.901222-4.235016 2.860161-7.114715-.199242-13.973191-3.529511-27.312058-7.803635-40.494553-.962158-2.967575-2.935967-3.649261-5.72113-3.62355-7.831986.072311-15.668038-.113236-23.496674.062088-3.872257.086731-6.24963-1.029648-7.266457-5.096848-.881981-3.527817-2.536338-6.858185-3.776817-10.301941-1.377781-3.824936-.201237-6.010299 3.725094-6.050506 13.664013-.139862 27.330387-.034088 40.995762-.065979 2.570755-.005997 3.934631 1.443039 4.892776 3.559921 6.326325 13.97728 11.246491 28.441727 14.951981 43.321365.515404 2.069672.665558 4.244538 2.260238 6.221756 3.480912-1.804153 5.959122-4.755386 8.763817-7.222854 12.142762-10.682801 24.506363-21.076905 37.948197-30.112137 5.246719-3.526688 6.359146-3.204758 8.768951 2.653137 8.727966 21.216156 13.9422 43.308914 16.290146 66.101425.119171 1.156769.01442 2.355774 1.097458 3.255676 1.74411.519257 2.686874-.883026 3.754471-1.80899 12.8582-11.151855 26.37883-21.422333 40.871994-30.354019 3.171432-1.954483 4.58464-4.084686 4.517273-7.992645-.235474-13.660553-.041809-27.328629.003051-40.993805.010376-3.162278-.709243-6.686005 4.389435-7.25528-10.519882-17.653686-24.527694-28.184067-44.709961-28.801086-10.489654-.320679-20.99675-.046311-31.495697-.097382-6.556335-.031906-8.767395-2.149689-8.717071-8.684647.109756-14.257522-1.93451-13.68814 13.248672-13.656936 11.315491.023254 22.66275-.528076 33.783676 2.357879 16.19661 4.20311 27.758988 14.572464 37.164597 27.825531 1.97197 2.778656 3.87355 5.607285 6.226501 8.141892-6.0298-18.490112-11.228393-37.371567-27.392883-50.32988-3.437057-2.755325-7.36058-4.51271-11.6595-6.443603z"/></svg>