<svg enable-background="new 0 0 336 592" viewBox="0 0 336 592" xmlns="http://www.w3.org/2000/svg"><path d="m153.627869 381.447205c-19.418259-13.070771-31.40194-31.448334-39.637024-52.40741-12.683243-32.28009-17.074692-65.854675-14.430336-100.401108.264938-3.461227.035492-6.960296.035492-11.452072-5.16668 0-10.581154-.236893-15.963707.075775-4.223824.245346-6.546112-1.387543-7.709816-5.353714-.793824-2.705566-1.998696-5.289291-2.993859-7.937225-2.45108-6.521836-1.372505-8.156418 5.462593-8.190598 6.666031-.03334 13.343094-.24266 19.994629.0681 4.22757.197525 6.106972-1.235916 7.299004-5.410522 5.034126-17.630036 13.881599-33.031738 27.550049-45.538925 15.151245-13.864014 33.187118-21.344788 53.254471-24.087464 18.561111-2.536819 37.269058-.673805 55.904892-1.136955.498108-.012383 1.014602-.022682 1.494461.087814 3.134735.721787 10.624557 17.104988 9.140457 19.95385-1.100128 2.111786-3.119629 1.605377-4.872208 1.60994-14.832168.038543-29.675949-.341248-44.493683.123687-16.172882.507447-31.663467 3.889328-45.195999 13.580948-13.941986 9.984818-22.634125 23.489441-27.563217 39.702301 2.322556 1.677796 4.551712 1.004578 6.613022 1.007065 43.663467.052643 87.327301.120346 130.990143-.050094 4.92984-.019227 7.855682 1.190231 8.957824 6.255157.629578 2.893204 2.135132 5.584229 3.050019 8.429398 1.74826 5.436966.868042 6.693237-4.676941 6.771637-5.165344.073043-10.341828.223419-15.495697-.026291-4.322144-.209442-5.956436.980667-6.192704 5.788803-.777282 15.818146-4.412109 30.875351-13.631073 44.227264-5.739974 8.313233-13.622146 13.950257-22.179306 18.866272.502152 2.386414 2.546006 2.674408 4.017884 3.553009 15.101333 9.014374 25.946487 21.265564 29.217972 39.051758 5.607284 30.485352-9.939515 57.580872-43.043595 63.535156-19.428467 3.494477-37.745712.025208-54.903747-10.695556m61.315979-76.921967c-7.49025-5.03833-15.816941-7.551453-24.754563-8.315308-19.432617-1.660827-38.905884-.408783-58.352035-.91568-4.510445-.117584-5.008904 2.065156-4.243157 5.598481 2.968468 13.697174 6.893425 27.032501 14.661965 38.920349 13.12236 20.080566 29.891998 33.427765 55.663177 29.90094 9.116822-1.24765 17.301575-4.582794 23.683502-11.532837 13.400544-14.593384 11.624176-41.007324-6.658889-53.655945m2.369934-44.690063c11.496155-10.12822 17.923431-22.873505 19.986847-38.008667.444946-3.263733-.146057-4.667633-3.623474-4.66214-34.475998.054428-68.952118.063308-103.428116.0168-3.31472-.004471-4.608719 1.263351-5.005616 4.632568-1.737045 14.745514-2.158119 29.479874-.963119 44.292404.340736 4.223602 1.903419 5.706513 6.17662 5.65918 16.986115-.188263 33.976929-.198822 50.96344-.024567 13.122178.134583 24.927964-3.419952 35.893418-11.905578z"/></svg>