<svg enable-background="new 0 0 336 592" viewBox="0 0 336 592" xmlns="http://www.w3.org/2000/svg"><path d="m182.744873 344.654327c-3.748627 6.814362-8.305084 12.511139-13.967804 17.294373-6.144012 5.189758-13.122284 6.169617-18.892822 2.721863-5.263046-3.144562-8.134094-10.38498-6.693161-17.560669 3.085205-15.363953 11.193039-28.245423 21.692581-39.305084 5.357269-5.643067 7.283325-11.701722 7.670319-18.718964.875946-15.883728-1.038041-31.561798-4.182862-47.107605-.192383-.951004-.715378-1.835114-1.068832-2.711411-2.308319-.558593-3.553558 1.042115-4.938965 2.081727-13.507721 10.136123-25.51004 21.902633-37.085022 34.151748-4.056068 4.292328-3.147087 9.991181-4.825615 14.945648-4.485618 13.240174-9.815719 25.903962-20.95536 35.05188-6.967552 5.721802-14.071976 6.357239-19.653977 2.286743-5.783966-4.217743-7.677376-12.259124-5.197098-20.384521 4.131188-13.533844 11.466813-25.30838 21.284279-35.121918 6.139664-6.137237 6.532357-12.782837 5.497177-20.049011-1.476768-10.365799-3.828483-20.574036-7.052978-30.58345-1.136627-3.528321-2.994827-4.649796-6.502213-4.56781-7.662193.179061-15.333496-.050904-22.997108.094879-3.817997.072647-6.299889-1.000855-7.364632-5.059616-.9235-3.52031-2.444873-6.898865-3.873027-10.267578-1.525795-3.599015-.130284-5.87912 3.39505-5.93187 13.993892-.209305 27.993274-.101318 41.990055-.016144 2.225227.01352 3.498634 1.584564 4.380569 3.567795 6.298866 14.164413 11.456696 28.71579 14.962509 43.830246.411385 1.773544.804657 3.520187 2.042961 5.212234 3.949578-1.326065 6.295342-4.487792 9.077752-6.933029 12.147567-10.675491 24.514984-21.064895 37.97348-30.069168 5.129608-3.431915 6.059952-3.126907 8.391891 2.438965 8.93042 21.315018 14.184128 43.551972 16.509369 66.511932.083145.821045.197083 1.644532.383972 2.446564.066727.286316.392472.512268.637436.811554 1.919052.327698 2.997727-1.103973 4.189179-2.170624 12.575149-11.258148 26.233658-21.074249 40.464401-30.085601 3.355255-2.12468 4.756378-4.513794 4.699097-8.504029-.196106-13.663345.056533-27.333008-.126908-40.996719-.059967-4.466156 1.421356-6.318314 6.03534-6.26619 14.831009.167588 29.665786.141297 44.497482.00708 3.774048-.034149 5.902618 1.49553 7.044983 4.968338.987091 3.000595 2.260773 5.905671 3.307617 8.888108 2.065125 5.883514.907898 7.499557-5.463837 7.539673-7.49945.04721-14.999481-.017212-22.499237-.001374-7.213989.015244-7.22705.033097-7.227447 7.05835-.003174 52.831756-.000336 105.663513-.002259 158.49527-.000061 1.66629.112397 3.349273-.078063 4.995483-.414856 3.585236-2.306244 5.227661-5.819123 3.506683-5.6828-2.784057-11.219147-5.867431-16.906097-8.642486-3.110825-1.518006-2.831177-4.155853-2.830475-6.822327.006668-25.33258.008774-50.665192.011658-75.997772.000885-7.801453.000152-15.602875.000152-23.305054-2.83638-.916748-4.303253.756165-5.85553 1.807038-13.677795 9.259704-26.420272 19.705627-38.756668 30.669189-2.486267 2.209564-3.921325 4.858765-4.632019 8.05249-2.148483 9.654907-5.840667 18.728516-10.69017 27.744171z"/><path d="m279.457794 175.279205c-4.936371 10.202561-5.722137 10.601181-16.132232 10.095764-3.832642-.18608-4.859131-1.472915-2.885315-4.927825 3.702026-6.479874 5.958129-13.293259 5.377166-20.957169-.262329-3.460953-1.144684-6.596359-2.967437-9.395401-4.97992-7.647141-12.669419-9.285599-21.019837-8.688767-7.675003.548539-14.109268 3.806992-16.645218 11.477295-2.529892 7.651963-1.635025 15.427491 1.515808 22.912705 1.137177 2.701553 2.996445 5.158935 3.332062 8.135788-7.91246 3.507965-14.050094 1.944504-18.07254-4.909775-4.830536-8.231262-8.050598-16.879425-4.527893-26.613251.202011-.558151.026169-1.253067.026169-2.462173-5.074631 1.284851-9.792893 2.777435-14.623993 3.632187-7.077607 1.252228-14.148011 1.362243-21.241715-.637879-17.173614-4.842224-27.468612-23.456329-20.987335-42.782386.453384-1.351929.626801-3.236123 2.518036-3.308869 2.491669-.095863 1.988861 2.185806 2.449234 3.646149 4.741409 15.04052 14.600204 23.010673 27.620239 22.038719 8.31781-.620941 16.402603-2.546417 24.400772-4.909218 12.419449-3.66893 24.684037-8.018631 37.922119-7.951927 28.244217.142326 45.620316 25.591278 35.411576 52.015717-.419892 1.086868-.880554 2.157974-1.469666 3.590316z"/></svg>