<svg version="1.1" id="Layer_1" xmlns="http://www.w3.org/2000/svg" xmlns:xlink="http://www.w3.org/1999/xlink" x="0px" y="0px"
	 width="100%" viewBox="0 0 336 592" enable-background="new 0 0 336 592" xml:space="preserve">
<path fill="#000000" opacity="1.000000" stroke="none" 
	d="
M174.987869,258.881775 
	C186.848755,264.577118 195.618988,273.395172 204.068817,283.638824 
	C208.003021,276.357941 209.389359,268.868347 210.541199,261.429932 
	C212.485657,248.872559 212.137482,236.261292 210.901672,223.606033 
	C210.388947,218.355560 208.355377,217.031067 203.367386,217.055298 
	C166.374237,217.234955 129.379333,217.064835 92.386406,217.267090 
	C87.562920,217.293472 84.954430,215.849258 83.684853,211.220367 
	C82.720146,207.703018 81.020309,204.393372 79.919472,200.905472 
	C78.941948,197.808228 79.930244,195.614838 83.537895,195.369873 
	C85.696259,195.223312 87.861557,195.100494 90.023750,195.100327 
	C146.514618,195.096039 203.005478,195.107529 259.496338,195.121277 
	C267.828430,195.123306 267.824310,195.136383 270.822083,203.056396 
	C271.646851,205.235382 272.522705,207.395065 273.343231,209.575623 
	C275.397339,215.034470 274.072296,217.094559 268.321808,217.134399 
	C258.990417,217.199081 249.654938,217.311569 240.327972,217.101929 
	C235.897278,217.002335 235.051697,218.720230 235.584213,222.832718 
	C239.291092,251.459900 236.567154,279.283142 224.239182,305.706848 
	C222.717636,308.968079 223.003357,311.456390 224.496948,314.539368 
	C235.582550,337.421722 243.088516,361.528137 248.549469,386.303619 
	C249.623581,391.176636 247.767273,393.008484 243.036789,391.648651 
	C236.322296,389.718567 229.730896,387.350250 222.991211,385.521820 
	C219.590103,384.599121 219.349152,381.989716 218.755661,379.464478 
	C215.251907,364.556732 211.546341,349.711151 205.830933,335.454620 
	C205.404373,334.390594 204.908203,333.354462 204.258591,331.885071 
	C199.382797,336.014862 195.046967,340.332031 189.929764,343.705048 
	C163.629135,361.041260 125.079056,355.124451 105.340515,330.648010 
	C82.050728,301.767914 98.563766,259.962555 135.684586,253.672470 
	C149.227570,251.377640 162.193802,252.920349 174.987869,258.881775 
M130.574509,283.037170 
	C120.122131,290.992554 115.873466,302.558319 119.313332,313.692505 
	C123.008804,325.654053 134.093170,334.090912 146.943924,334.632019 
	C163.589432,335.332916 177.132019,328.605804 187.902145,316.431580 
	C198.091064,304.914337 196.436325,307.587402 189.073380,296.718933 
	C188.514618,295.894104 187.870621,295.123169 187.227081,294.360229 
	C171.581375,275.811737 150.262650,271.345581 130.574509,283.037170 
z"/>
</svg>