<svg enable-background="new 0 0 336 592" viewBox="0 0 336 592" xmlns="http://www.w3.org/2000/svg"><path d="m91.081741 217.170837c-10.862312-.121978-8.952408 1.030381-12.81324-8.559799-.683639-1.698135-1.242462-3.44606-1.890075-5.159225-2.554078-6.756424-1.584649-8.274826 5.79956-8.32341 13.497383-.088822 26.996269.037719 40.493431-.066376 3.671211-.02829 6.16507 1.218338 8.237305 4.383194 10.030075 15.31868 18.519302 31.239517 20.416931 49.848206.366699 3.595916 2.660538 3.697967 5.29242 3.69844 14.831146.002686 29.662277.01416 44.493423.021378 2.999557.001464 6.015732-.203308 8.994705.043533 4.329254.358765 5.840271-1.290741 5.779694-5.707398-.210266-15.328048.067032-30.662796-.142456-45.990875-.061188-4.477524 1.192596-6.278381 5.913421-6.131592 15.641663.48639 31.294266-.601287 46.94632.14827 2.678589.128265 4.29364.844406 5.174103 3.539078 1.290954 3.95108 3.0419 7.749618 4.414001 11.677048 1.612824 4.616348.23877 6.49765-4.801483 6.544693-8.33136.077804-16.672943.252044-24.992599-.06955-4.80774-.185852-6.217362 1.437637-6.203324 6.248428.15564 53.325013.099381 106.650605.098999 159.976075 0 1.499664.072922 3.006103-.041549 4.497619-.261597 3.409149-2.121155 5.095795-5.346558 3.584137-6.329437-2.96643-12.489258-6.29544-18.712067-9.488464-2.581375-1.324494-2.368179-3.755402-2.367828-6.100952.001724-11.664917.000336-23.329834-.013214-34.994751-.001129-.963623-.101227-1.927124-.197342-3.638642-7.288437 6.689789-15.157272 11.160035-24.279114 13.055359-16.766174 3.483765-32.461914.324799-47.068939-8.284057-17.738228-10.454255-30.653107-25.369934-39.813515-43.716919-1.524574-3.053559-1.057899-5.040345 1.254913-7.461182 9.813096-10.271454 17.494446-21.834991 20.276864-36.070084 2.348663-12.015976.499321-23.476532-4.752556-34.490966-1.230332-2.580292-3.156815-3.064042-5.668206-3.044327-7.997894.062836-15.996543.029571-24.482025.033111m124.71254 81.846466c.006805-7.831024-.032532-15.662536.045136-23.492858.027679-2.790528-.783677-4.378418-3.941605-4.366669-19.493897.07254-38.988098.063507-58.482208.05487-2.111924-.000946-3.460694.834992-4.056473 2.916962-3.041077 10.627167-8.7995 19.692322-16.085419 27.874573-1.459946 1.639557-2.011856 3.123962-.354828 5.226074 18.862137 23.92862 46.860443 26.580048 68.255036 11.595551 6.715011-4.703125 12.548736-10.454651 14.620361-19.808503z"/></svg>