<svg enable-background="new 0 0 336 592" viewBox="0 0 336 592" xmlns="http://www.w3.org/2000/svg"><path d="m133.003876 262.927063c8.997696.000092 17.505325-.2341 25.991394.092133 4.725067.18161 5.997513-1.59311 5.895874-6.0766-.25293-11.158996-.341278-22.336975.045715-33.488555.182434-5.25673-1.760727-6.427109-6.626556-6.396973-30.327256.187866-60.657196-.016724-90.983589.232483-5.046025.041458-7.745411-1.501526-8.986103-6.317063-.743245-2.884811-2.085274-5.612854-3.118508-8.425918-2.00729-5.465119-.744015-7.264572 5.207337-7.439194 1.33208-.039078 2.666061-.017227 3.999164-.017013 69.488678.011581 138.977341.018783 208.466019.045379 5.658142.002167 11.317383.233719 16.973724.164353 2.339264-.028672 3.754852.740936 4.568543 2.952987 1.436493 3.905136 3.101776 7.727082 4.502136 11.644318 1.911743 5.34761.681213 7.161468-4.923462 7.217102-8.331146.082687-16.672211.259033-24.992279-.052856-4.707428-.176468-5.85788 1.590805-5.845856 6.074554.141876 52.824371.10083 105.649231.105499 158.473968.000184 1.999512.066834 4.004731-.057586 5.997315-.232514 3.724274-2.357086 5.288757-5.710999 3.740845-6.196914-2.859955-12.212127-6.114991-18.290069-9.230713-2.806015-1.438416-2.401779-4.107086-2.401886-6.58313-.001435-31.66153.00946-63.323029.010376-94.984558.000549-19.163544-.139145-38.328537.076339-57.489578.051743-4.601105-1.388443-6.099137-5.972259-5.993622-11.658783.268417-23.330307.254791-34.990814.03746-4.338303-.080856-5.711197 1.30423-5.691834 5.724503.160584 36.659988.081742 73.320999.094238 109.981704.004014 11.741211-1.314361 23.25586-5.936447 34.175263-6.696808 15.820801-20.590606 23.486389-37.672287 21.646911-23.431587-2.523285-40.120536-15.901764-54.295753-33.2052-9.72242-11.86795-16.997307-25.207214-19.226875-40.618378-4.119042-28.471557 9.168434-48.152648 40.327796-51.166534 6.309212-.610229 12.625557-.857971 19.459008-.715393m30.82991 82.583374c.231979-1.142059.658722-2.282776.666794-3.426422.125748-17.820313.180984-35.641113.295929-53.461548.021683-3.360016-2.161896-3.688232-4.682175-3.664123-11.990555.114624-24.000503-.149445-35.966919.451171-17.444099.875611-26.770019 11.372528-25.913254 28.7547.796265 16.154816 8.82296 29.07959 19.328835 40.626679 6.361374 6.991821 13.858299 12.477142 23.41523 14.458801 7.036728 1.459106 14.366867-1.610993 18.084182-7.746735 2.8051-4.630035 4.153351-9.759796 4.771378-15.992523z"/></svg>