<svg enable-background="new 0 0 336 592" viewBox="0 0 336 592" xmlns="http://www.w3.org/2000/svg"><path d="m308.230469 213.975494c-.902008 3.489334-3.427307 3.184403-5.737702 3.191498-8.831237.027146-17.662872.050873-26.493805-.007919-2.983123-.019852-4.463684.710327-4.421386 4.26741.257354 21.657089.307159 43.317139.3367 64.976319.044342 32.492706.016754 64.985473.010834 97.47821-.000275 1.497559.040344 3.012543-.160767 4.489075-.412506 3.028534-2.199707 4.091949-4.955444 2.759063-6.147064-2.973236-12.22113-6.09729-18.327728-9.154327-2.625534-1.314423-2.374665-3.742737-2.374726-6.07724-.00032-11.294617-.000152-22.589233-.000152-35.000336-11.108292 9.28418-23.032975 12.019928-36.01442 8.10669-12.89209-3.886292-21.196319-13.240937-27.477203-25.116699-2.64737 2.304687-2.991333 5.451629-4.541031 7.875091-15.212021 23.789307-42.818298 29.98761-66.453858 14.514832-17.487373-11.447998-28.362991-28.222412-36.820625-46.86435-1.695091-3.736236.513977-5.960083 2.501206-8.368683 6.267479-7.596344 11.857208-15.599304 15.845893-24.677276 6.715111-15.283081 6.014428-30.358841-.737998-45.417862-1.27987-2.854309-3.133164-3.866348-6.201508-3.819748-9.828957.149353-19.663094-.029434-29.491493.137772-3.080845.052413-5.06094-.839142-6.111389-3.823761-1.379666-3.919983-2.950718-7.772187-4.393738-11.670472-1.362023-3.679474-.324875-5.947769 3.868698-5.958831 14.996384-.039566 29.993011.006912 44.989349-.040665 2.495148-.007904 4.048508 1.334015 5.311157 3.172974 11.466042 16.699432 20.041794 34.669433 21.670228 55.103637 1.398185 17.545044-5.989701 32.403656-16.35318 45.966461-6.75042 8.834382-6.475457 5.698853-.458832 14.98523 5.313873 8.201752 12.222778 14.548859 22.126579 16.641937 12.730385 2.690521 25.802605-3.376617 33.130211-15.38089 5.59642-9.168182 8.352585-18.454376 5.61496-29.77127-4.150879-17.159058-5.276352-34.864167-4.361893-52.570618.396072-7.668823 1.700912-15.194061 5.58046-22.058243 2.473754-4.376892 5.855728-7.144562 11.056274-7.296448 5.583939-.163055 9.506989 2.454026 12.121765 7.230561 4.468811 8.163436 4.971634 17.215316 5.350586 26.161544.835388 19.721741-1.80043 39.195832-6.08197 58.355408-1.393662 6.236542-.011444 10.799835 2.909698 15.868347 12.13678 21.058747 38.102448 20.129486 51.927384 1.679993 1.253952-1.673401 1.752273-3.4151 1.743805-5.549316-.140274-35.322785-.22432-70.645829-.251145-105.968873-.004638-6.086318.581101-6.533599 6.59668-6.538299 14.830002-.011597 29.660995.081818 44.489304-.079407 3.34439-.036362 5.324615 1.041352 6.379028 4.18898 1.526733 4.557709 4.031586 8.777726 4.661194 14.060501z"/></svg>