<svg enable-background="new 0 0 336 592" viewBox="0 0 336 592" xmlns="http://www.w3.org/2000/svg"><path d="m147 274.165436c-6.831436-.003571-13.162979.016022-19.494255-.018158-7.063362-.038117-11.410515-4.295838-11.461327-11.45166-.089904-12.662308-.03939-25.325562-.056488-37.988419-.010223-7.572174-.017776-7.564621-7.815597-7.555115-7.497711.00914-14.996994-.088409-22.492417.042374-3.098755.054047-5.007492-.990143-5.973426-4.044983-1.002228-3.169617-2.376328-6.219711-3.516587-9.348038-2.64759-7.263733-1.699913-8.667358 5.868828-8.69284 6.489319-.021851 12.978813.014389 19.468231.014587 54.983475.001724 109.967087.054276 164.95018-.094238 4.680329-.012634 7.566132 1.116684 8.766175 5.880402.727356 2.887344 2.061554 5.619918 3.094391 8.432571 2.157745 5.876038.956756 7.743271-5.160737 7.781998-8.996917.056976-17.994506.012054-26.991806.01567-32.490234.013031-64.980941.119858-97.470169-.054718-4.962753-.026657-6.819976 1.282853-6.491119 6.460953.442627 6.969849.368454 14.001526.023132 20.982285-.233001 4.710647 1.146927 6.416122 6.09668 6.297088 13.155045-.316375 26.323883-.210663 39.485168-.07402 13.991333.145248 27.558014 2.446686 39.860108 9.556839 16.415649 9.48764 25.459228 23.838226 27.712402 42.641144 2.451172 20.455017-4.550842 37.991699-16.615295 53.86911-2.569779 3.381958-2.440994 5.502594.291641 8.540771 5.566956 6.189362 10.67897 12.785858 16.17511 19.04184 2.442154 2.779724 2.12825 4.567718-.589859 6.995392-9.370102 8.368927-9.272324 8.447693-17.373642-.967011-3.694229-4.293152-7.576111-8.429565-11.160599-12.81076-2.585586-3.160279-4.684662-3.588806-8.282883-.968994-16.3591 11.910736-34.637039 18.527038-55.06073 17.551239-17.350173-.828919-33.095687-6.260498-45.100685-19.46167-10.548629-11.599701-14.149238-25.200501-8.732063-40.263031 5.33181-14.825196 17.095985-22.118012 31.921661-24.74292 20.516724-3.632477 38.302292 3.456207 54.909897 14.806335 7.438828 5.083863 13.959488 11.278565 20.7883 16.832672.590591-.114257 1.042999-.060913 1.209625-.25412 10.364975-12.015502 14.906387-26.010589 12.479248-41.635986-2.109527-13.580627-13.233642-22.156006-29.355392-24.18573-17.765442-2.236725-35.606461-.64212-53.905701-1.130859m46.80072 71.548309c-8.720398-6.80545-17.88446-12.774872-29.003753-14.866455-5.598465-1.053101-11.254425-1.232971-16.827973.113037-11.109878 2.682953-18.518677 11.222351-18.580124 21.216187-.057449 9.344238 7.584778 18.720215 18.016327 21.388275 12.748459 3.26065 25.103638 1.204346 36.983597-3.958557 7.594894-3.300659 14.85141-7.232727 21.13208-13.676361-3.957596-3.465119-7.560623-6.619812-11.720154-10.216126z"/></svg>