<svg enable-background="new 0 0 336 592" viewBox="0 0 336 592" xmlns="http://www.w3.org/2000/svg"><path d="m243.067581 285c-.310379 21.484283.678925 42.482178-.717743 63.456055-.545196 8.187256-1.902115 16.19284-5.045593 23.80722-5.687683 13.7771-16.072159 20.539246-30.933121 21.165772-24.578582 1.036255-42.679428-11.058777-57.801361-28.617676-15.727691-18.262238-25.637794-39.624481-30.749977-63.118408-.925728-4.254395-2.886627-5.722718-6.820854-6.247895-11.732376-1.566223-15.43512-8.257415-10.365486-18.971344 5.05516-10.683349 13.230163-18.277313 24.246208-22.608017 10.21402-4.015411 16.797333.274079 17.414764 11.128556.498658 8.765869.498642 8.769256 9.442673 8.77182 19.66304.005646 39.327133-.099121 58.988342.092254 4.44632.043274 6.141312-1.104919 6.049988-5.871826-.28714-14.99173-.284958-29.99591.002762-44.987671.091003-4.74057-1.566071-5.923568-6.026032-5.909149-41.658599.134628-83.318153.009369-124.976303.202835-4.79383.022248-7.424575-1.267257-8.583694-6.029449-.820343-3.370316-2.480057-6.528671-3.636299-9.826813-1.459465-4.163116-.319885-5.854507 4.129852-6.26857 1.323341-.123154 2.663742-.083816 3.99633-.083603 61.488709.009888 122.977616.09256 184.46576-.086426 5.236541-.015243 8.066558 1.472489 9.328216 6.538056.759094 3.047745 2.2836 5.896301 3.282227 8.894958 1.538696 4.620499.15921 6.619065-4.735291 6.683274-8.163849.107116-16.339691.286529-24.491455-.039933-4.929748-.197418-6.670196 1.231324-6.594757 6.439881.294373 20.325073.126816 40.656845.130844 61.486099m-74.424972 73.84967c5.229644 5.720887 11.074752 10.552185 18.629074 12.925141 12.892059 4.049713 22.928055-1.162659 26.808197-14.07721 1.677368-5.582977 2.483948-11.364959 2.535187-17.181793.121582-13.807709-.157135-27.621948.164367-41.42334.116623-5.006317-1.740112-6.148468-6.354156-6.102813-20.46164.202423-40.9263.086029-61.389756.13327-1.945694.004486-3.994262-.386933-6.375885 1.08728 3.383286 23.308289 10.078843 45.399231 25.982972 64.639465z"/></svg>