<svg enable-background="new 0 0 336 592" viewBox="0 0 336 592" xmlns="http://www.w3.org/2000/svg"><path d="m148.2034 266.234741c-5.308426.41275-9.995407 1.502136-14.351044 3.722504-9.832626 5.01239-12.998253 15.12442-7.856751 24.894592 4.584061 8.710877 9.772278 10.940979 19.238663 9.234039 26.107895-4.707641 52.23729-5.598754 78.273453.609833 7.00293 1.669922 13.586975 4.422058 19.832886 8.040955 26.984955 15.635223 26.579193 54.699554 1.293472 71.115234-11.463867 7.442414-24.070389 11.412262-37.372559 13.113983-23.361618 2.988648-46.551132 2.171051-69.055847-5.591186-14.321152-4.939575-27.159027-12.235291-34.726974-26.094788-9.654679-17.681-4.921364-37.387298 11.401321-49.12912 1.192604-.85791 2.728302-1.321777 3.438278-2.896667-.392913-2.232941-2.546867-2.881806-3.99633-4.126923-12.173134-10.457153-17.262817-23.451233-13.637451-39.266662 2.623131-11.443238 10.734238-18.029587 21.194649-22.147095 9.282791-3.653992 19.051818-4.73407 28.897537-4.8078 21.329498-.159775 42.662582-.184677 63.990585.056121 4.930985.055665 6.444519-1.611099 6.126175-6.330398-.346954-5.143173-.155029-10.327744-.077591-15.492447.04065-2.710892-1.046203-4.044098-3.822998-3.954864-1.830719.058822-3.665558-.021637-5.49855-.021668-43.827988-.000641-87.656487-.096222-131.483315.129807-5.286979.027267-8.023544-1.549607-9.249458-6.622223-.776421-3.212693-2.387955-6.213852-3.39489-9.382965-1.332504-4.193787-.109871-5.838608 4.329842-6.159699 1.161026-.083954 2.331947-.039886 3.498329-.039719 64.325477.009171 128.650963.01796 192.976433.032288 12.364776.002762 12.365326.012878 16.819 11.566895.479034 1.242752.982147 2.477737 1.413849 3.736999 1.585693 4.625366.272857 6.639343-4.643158 6.685852-10.164551.096161-20.332611.164551-30.494843-.010132-3.889145-.066848-5.28775 1.2948-5.212906 5.217148.193863 10.161591.103684 20.329834.034592 30.494812-.056183 8.265335-4.37883 12.566086-12.487091 12.570236-23.33049.011933-46.661163-.033996-69.991348.052796-4.986496.018554-9.971283.501709-15.40596.800262m43.154342 65.667481c-7.230041 11.420929-7.142929 23.138519-1.341674 35.042297 4.32695 8.878662 4.773406 9.251282 14.394714 7.657257 10.241958-1.696808 20.122497-4.543976 28.100448-11.730499 11.993729-10.803864 10.586121-28.244873-2.937622-37.014862-12.32611-7.993317-27.945221-5.73935-38.215866 6.045807m-25.439285 10.066314c1.053177-7.731231 4.428604-14.385376 10.206528-20.207458-5.955796-1.033081-11.035446-.029266-16.122544.599548-9.987869 1.23468-19.666519 3.530152-28.136703 9.288483-14.670868 9.973816-14.082054 27.583923 1.131882 36.687866 6.991623 4.183807 14.711517 6.228211 22.654174 7.184906 6.112366.736267 12.323014 2.302033 19.090714.330963-6.36145-10.366272-9.576813-21.186706-8.824051-33.884308z"/></svg>