<svg enable-background="new 0 0 336 592" viewBox="0 0 336 592" xmlns="http://www.w3.org/2000/svg"><path d="m201.987976 278.854248c13.664307.018738 13.663834.018738 13.662979-13.064392-.000946-14.164078-.18367-28.331833.100403-42.490204.096146-4.792007-1.319183-6.253082-6.174011-6.230911-40.32515.184341-80.651886.031433-120.976868.233597-4.807426.024109-7.422989-1.365219-8.664368-6.01561-.940467-3.523102-2.540466-6.865433-3.737693-10.326004-1.225991-3.543701.218216-5.468033 3.867096-5.766525 1.657196-.135575 3.329528-.11644 4.994987-.116211 59.655762.0083 119.311661.084686 178.967026-.065995 5.557861-.014038 9.224701 1.091858 10.514343 7.062714.659332 3.052643 2.391266 5.857163 3.337708 8.868317 1.250885 3.97969-.28122 6.11296-4.482636 6.167877-8.663605.113266-17.33435.208237-25.992813-.029068-4.554687-.124832-6.110702 1.434936-5.972107 6.091934.827805 27.813004.437912 55.630249.12677 83.451569-.279404 24.985046-.524292 49.979522.231217 74.968689.099548 3.29245 1.64952 7.383453-2.035386 9.660614-3.565857 2.203582-6.020172-1.689606-9.0681-2.532471-12.88182-3.562073-16.229599-11.873657-15.372116-24.899323 1.288849-19.578216.210633-39.305419.429139-58.966095.049575-4.460815-1.399353-5.693298-5.724701-5.64685-18.661133.200439-37.326737.199737-55.988038.010193-4.26387-.043305-5.912811 1.05838-5.783828 5.590606.293762 10.322724.264129 20.66449.022171 30.990479-.415329 17.725006-4.289078 34.274017-16.774796 47.858124-9.455024 10.286834-9.351265 10.382202-20.008919 1.660675-9.826026-8.040985-9.827476-8.042328-1.164436-17.291199 8.458901-9.030884 12.598152-19.969421 13.245117-32.09848.54081-10.138886.121689-20.325623.36361-30.485535.090644-3.807342-1.149987-5.175781-5.09404-5.403473-5.469734-.315826-11.150803-1.062683-13.867188-7.094421-1.96215-4.356903-.878753-8.582459 1.101105-12.503815 5.634506-11.159851 14.323807-19.139923 26.021339-23.600525 8.926819-3.404068 15.089402.160279 16.947083 9.466065.129913.650726.184997 1.318817.239502 1.98175.868683 10.565613.867355 10.56192 11.723297 10.559937 13.496704-.002472 26.993408.002136 40.987152.003967z"/></svg>