<svg enable-background="new 0 0 336 592" viewBox="0 0 336 592" xmlns="http://www.w3.org/2000/svg"><path d="m179.987183 389.021149c-7.285355-8.455353-17.497574-6.77298-26.539795-8.65091-11.33545-2.354126-22.343384-5.465484-31.604721-12.843719-5.950798-4.740875-9.553406-10.893677-8.762383-18.606537.997147-9.722748 10.938126-15.641998 22.312706-13.906525 10.929138 1.667511 20.69458 6.566712 28.187058 14.110108 8.186554 8.242157 16.700897 9.208374 27.048782 6.555847 10.239532-2.624817 20.258026-5.552246 28.755447-12.140717 16.370331-12.692596 14.551712-32.557007-3.817581-42.167816-9.204773-4.815948-19.191986-6.543365-29.390701-6.966675-23.353684-.96936-46.052384 3.158387-68.465576 9.295136-6.448174 1.765533-7.642792 1.013397-8.973717-5.316834-.786911-3.742706-1.15435-7.620392-2.369461-11.214599-1.559326-4.612366.373527-6.197327 4.48111-7.315308 10.426857-2.837921 21.004463-4.884216 32.447883-6.681976-9.424484-5.778656-16.946007-12.600617-22.342697-21.608383-5.392571-9.000885-8.660049-18.769852-10.034706-29.061295-.595764-4.460205-2.489372-5.50412-6.476692-5.363083-5.990921.211945-11.996453-.028335-17.993706.061722-2.60788.039169-4.512405-.63411-5.45652-3.296951-1.557663-4.393326-3.307678-8.719147-4.829819-13.124161-1.122558-3.248642.174523-5.190674 3.610123-5.527222 1.653312-.161957 3.326881-.159988 4.991272-.159988 59.820846.000076 119.641952.088852 179.462066-.115128 5.621766-.019165 8.711884 1.608551 10.067994 7.024964.723083 2.888 2.100769 5.607055 3.094207 8.433593 1.594635 4.537232.19809 6.608796-4.699707 6.691422-6.830108.115234-13.665161.144363-20.494354.013977-3.190475-.060898-4.670364.828033-5.141571 4.354828-1.548355 11.588699-4.410522 22.787735-10.396393 33.075287-5.292312 9.095596-12.565674 15.852859-21.865005 20.578476-.852707.433288-1.657395.96109-3.456848 2.014129 7.169799 2.281342 12.886932 5.524292 18.42044 9.122864 19.082352 12.409729 27.486374 35.133637 20.349976 55.716888-4.830628 13.932892-15.200607 22.782685-27.96019 29.130799-7.18158 3.573028-14.828583 5.906982-22.761978 7.234344-1.430802.23935-2.932816.35199-4.316513 1.886017 9.848556 8.048584 19.196365 16.521057 28.466247 25.087464 3.589478 3.317047 3.142456 5.205902-.130233 8.201171-9.804352 8.973236-6.795014 8.644745-15.990387.064728-8.893067-8.297973-17.644989-16.747345-27.424057-24.585937m2.512817-171.836777c-13.987381.00119-27.974838-.017563-41.962097.022461-2.442032.006988-5.376648-.441773-4.919113 3.640411 1.387619 12.380249 4.45758 24.10463 12.012664 34.394501 15.667664 21.338913 51.027894 21.743149 64.321045-3.036057 5.337128-9.948715 7.387711-20.536376 8.577088-31.483245.396652-3.650772-2.182755-3.516297-4.559128-3.521607-10.823441-.0242-21.646973-.014053-33.470459-.016464z"/></svg>