<svg enable-background="new 0 0 336 592" viewBox="0 0 336 592" xmlns="http://www.w3.org/2000/svg"><path d="m160.00148 272.962524c-8.984482.09665-17.497711-.163787-25.748718 2.432892-9.872528 3.107025-14.794113 9.520355-13.972901 18.560334.689919 7.594726 5.711991 11.711456 12.181565 14.448547 9.282867 3.927276 19.219299 3.962463 28.991562 4.079925 24.153198.290375 48.313446.221497 72.467712-.019165 4.170456-.041534 6.040619 1.398438 7.062622 5.123932.878174 3.201264 2.1483 6.294068 3.220505 9.443238 1.965591 5.773071.925232 7.333526-5.115784 7.345672-22.490616.045227-44.981369.034729-67.472061.053192-6.928619.005677-6.96405.275116-8.381256 6.949219-4.131485 19.456574 10.454849 27.461334 26.102905 28.173065 16.296326.741211 32.645844.557587 48.967041.360474 5.000412-.060394 7.727631 1.431274 8.942063 6.345154 1.074325 4.346954 2.785873 8.533783 4.146041 12.813568.936493 2.946716.098191 5.319-3.244522 5.209472-22.724228-.744354-45.638366 2.686982-68.143035-2.967498-24.405152-6.131989-38.443177-24.394745-37.256913-48.57956.152619-3.111786.812195-6.198761 1.261383-9.475616-5.251114-1.698364-10.364456-3.091339-15.277832-4.999237-8.481483-3.293457-16.146797-7.954712-22.092582-15.009186-16.722443-19.840485-13.095009-51.679596 19.179374-59.515427 2.56688-.623199 5.13002-1.261901 8.075989-1.987243-1.004288-2.082154-2.764801-2.700821-4.173691-3.598938-10.170631-6.483322-17.544838-15.31723-21.843742-26.542191-1.301743-3.399017-3.145912-4.605377-6.649719-4.491623-6.157471.199906-12.328347-.045654-18.489571.085312-2.91687.062012-4.670258-1.003677-5.634033-3.791534-1.41346-4.088684-3.052216-8.099106-4.572937-12.151154-1.432442-3.816849.110428-5.749344 3.978866-6.058853 1.657036-.132568 3.329308-.099762 4.99466-.099625 59.975189.004837 119.950394.012574 179.925583.025498 13.961456.003006 13.961456.012222 18.831268 12.951401 2.955841 7.853607 2.145721 9.040542-6.254486 9.057861-7.663452.015808-15.333313.184799-22.987961-.076843-4.26416-.145752-5.863357 1.124313-5.764053 5.635696.278579 12.655258.117004 25.32077.085693 37.982102-.018906 7.641143-4.646881 12.239013-12.370804 12.250061-24.156173.034606-48.312439.027496-72.968231.037078m30.49852-55.795715c-19.105316 0-38.210632 0-57.573349 0 .085495 1.362244.044891 2.012665.183258 2.622467.219879.969071.499252 1.934189.856934 2.861038 5.926635 15.358094 17.38533 24.181824 33.28421 26.931366 16.503097 2.854065 33.236023.851822 49.859588 1.32901 2.95987.084961 3.576676-1.643158 3.558701-4.175934-.059113-8.32843-.140839-16.660293.042969-24.985168.078445-3.553101-1.373169-4.672638-4.726105-4.620758-8.160309.126205-16.323929.039246-25.486206.037979z"/></svg>