<svg enable-background="new 0 0 336 592" viewBox="0 0 336 592" xmlns="http://www.w3.org/2000/svg"><path d="m106.074753 256.081238c4.797691-4.764405 9.834564-8.535279 16.054542-10.431076 8.63958-2.633271 14.548989 1.438873 15.189232 10.41008.624603 8.7518.624619 8.739868 9.175003 8.736938 20.33226-.006988 40.665756-.12207 60.995819.090088 4.636032.04837 6.495102-1.060913 6.348999-6.073212-.339782-11.656097-.09729-23.328933-.10791-34.994964-.006058-6.653351-.02124-6.675995-6.569153-6.676163-40.497863-.001053-80.996246-.086441-121.492912.136368-5.041885.02774-7.736282-1.497574-9.012382-6.284424-.810959-3.041992-2.273957-5.903809-3.254013-8.908554-1.659745-5.088638-.452088-6.926025 4.841354-6.940231 9.988495-.026825 19.975052.110656 29.966934.06874 49.163193-.206344 98.327759-.105194 147.491791-.073822 5.494568.00351 10.990234.381669 16.482971.329575 2.46579-.023392 3.612915 1.031418 4.366608 3.174881 1.325042 3.76825 2.863281 7.461395 4.193542 11.227905 1.909729 5.40712.768921 7.15416-4.884887 7.21048-9.83191.097961-19.671113.246552-29.495575-.034409-4.702362-.134445-6.413147 1.246476-6.331284 6.173188.271332 16.327896.117767 32.663177.092773 48.995575-.012756 8.333801-3.803512 12.069336-12.137771 12.06839-28.165177-.003235-56.330551.041259-84.4953-.070588-3.724747-.01477-5.692139.77472-5.136094 5.000916 2.00528 15.241455 5.10553 30.172516 11.891739 44.114654.645111 1.325409 1.465164 2.565674 2.178849 3.80188 2.553726-.171966 3.509719-2.176025 4.915954-3.464782 16.264969-14.906342 34.603546-24.759186 57.427597-23.952576 23.954758.846558 41.464936 17.555786 43.268952 41.366486 1.077179 14.217804-8.278122 30.000518-22.114808 36.282928-24.52478 11.135162-47.964569 7.507172-69.59967-7.231354-24.475372-16.67334-38.098404-41.335113-47.405571-68.686218-2.085182-6.127747-3.599228-12.465668-5.072937-18.777649-.568497-2.434875-1.649124-3.356903-4.028923-3.392456-1.81337-.027008-3.668892-.223602-5.423698-.668213-7.971962-2.019836-11.158295-7.559204-8.969017-15.445343 1.835434-6.611542 5.795127-11.923767 10.649246-17.083038m73.726028 88.223144c-3.85878 3.343384-8.257812 6.128266-11.221634 10.593262.425598.67984.702561 1.284882 1.121094 1.76709 12.966324 14.939148 35.978592 19.834137 53.884811 11.473755 4.912217-2.293488 9.185944-5.402069 12.289475-9.918885 5.587738-8.132293 3.772049-18.713928-4.343323-24.293121-5.409836-3.719086-11.526397-4.951813-18.063492-4.234894-12.482025 1.368866-23.160766 6.90149-33.666931 14.612793z"/></svg>