<svg enable-background="new 0 0 336 592" viewBox="0 0 336 592" xmlns="http://www.w3.org/2000/svg"><path d="m198.003723 246.923294c18.236237 6.015244 36.617111 6.747925 55.152435 5.342865 3.309082-.250854 4.930115.261887 5.514252 3.740707.934357 5.564515 2.229736 11.069672 3.423096 16.588959.650329 3.007813-.161286 4.690796-3.529144 5.077484-8.643769.992371-17.29094 1.027466-25.91388.135346-7.221878-.747193-14.398956-1.927521-22.3022-3.013092 0 5.660461-.262344 10.960052.077926 16.220672.305893 4.729065-1.236572 6.47229-6.148895 6.32309-15.537155-.472015-30.944992.820373-45.895355 5.380035-13.766632 4.198639-26.047272 10.898865-35.615631 22.004242-1.648338 1.913117-2.011704 3.393769-.783936 5.729859 19.002259 36.155792 65.282822 49.70816 99.142716 21.186126 9.70166-8.172271 9.654571-8.22821 15.970093 3.013184.24472.435608.48114.875977.732925 1.307434 6.350983 10.882874 6.586975 11.174866-3.416824 19.245026-22.793228 18.387665-48.360947 21.427154-75.124436 10.961059-30.473312-11.91687-50.221008-34.663635-61.631943-65.036773-1.40702-3.745148-.763824-6.483033 1.674088-9.575257 15.112968-19.169128 35.375076-29.231079 58.817886-33.900451 7.360596-1.466126 14.843186-1.79892 22.254242-2.772004 2.098175-.275482 5.273056.667878 5.149933-3.028991-.112488-3.377533 1.635498-7.31546-3.179397-9.466614-8.847535-3.95285-16.993668-9.135056-24.594223-15.176361-9.34314-7.426407-17.444642-15.986267-23.639252-26.204025-1.812836-2.990204-4.040299-3.914048-7.362198-3.883011-13.160347.12297-26.324326-.077149-39.483025.113693-3.812233.055298-5.832336-1.282852-6.900047-4.893539-1.083244-3.663178-2.692459-7.167283-3.917328-10.793061-1.471084-4.354614-.466858-5.912918 3.965843-6.355285 1.486748-.148377 2.995629-.099564 4.494393-.099457 59.643448.004822 119.287155.093002 178.929916-.102905 5.71991-.018784 9.151276 1.382049 10.473358 7.165664.624726 2.732834 1.963929 5.298599 2.930756 7.957733 1.801971 4.956116.529694 6.952469-4.655762 7.003495-8.329315.081985-16.659988.022964-24.990082.028-28.988678.017517-57.977356.037048-86.966033.055603-1.646088.001052-3.292176.000137-6.165757.000137 11.709641 15.134292 26.320206 23.947113 43.51149 29.720413z"/></svg>