<svg enable-background="new 0 0 336 592" viewBox="0 0 336 592" xmlns="http://www.w3.org/2000/svg"><path d="m151.975647 263.641296c12.940979.006409 24.977493 2.438874 36.653534 6.551941 3.16745 1.115784 5.26123.681336 7.494018-1.692566 13.054291-13.87944 15.815796-30.165634 11.692933-48.216919-.826691-3.619537-3.404343-3.073837-5.817292-3.077072-20.162567-.026992-40.325164-.012085-60.487762-.01033-16.996559.001495-33.995964-.168274-50.987816.114899-4.658806.077636-7.070351-1.342819-8.205795-5.854996-.847031-3.366058-2.501534-6.521439-3.661591-9.818069-1.553573-4.414872-.367401-6.143235 4.376244-6.487381 1.658607-.120331 3.3311-.06395 4.997253-.063691 58.154923.009018 116.310044.088746 174.464432-.080871 5.340851-.015564 8.428772 1.454803 9.731842 6.737717.711914 2.886169 2.153778 5.58522 3.146301 8.410842 1.734101 4.9366.430725 6.92096-4.779327 6.972382-10.330322.101974-20.663162.144485-30.992813.025497-4.012696-.046203-5.154053.735276-4.692398 5.423325 2.258117 22.930832-3.528138 42.935715-23.127076 57.225082.397278 2.689881 2.869492 3.082337 4.538941 4.240784 17.885132 12.410553 28.641846 28.963593 27.549911 51.223786-1.13153 23.067321-13.790069 38.734161-34.510376 47.934753-19.684997 8.740875-40.102417 8.675598-60.622085 3.473602-17.397965-4.410553-33.204628-11.878387-45.54097-25.461242-3.420006-3.765564-6.098114-7.939454-7.128662-12.972901-.788841-3.852966-.521217-7.545135 2.354103-10.511719 2.319359.108948 3.464851 1.691834 4.827064 2.844544 19.701607 16.671692 42.269928 25.729339 68.249756 25.002777 11.251404-.314667 21.979859-3.079803 31.69664-9.296204 21.57721-13.804199 22.11911-43.73706 1.125199-58.472778-6.116211-4.292999-11.416031-5.829895-19.183075-2.906494-15.754379 5.929809-32.40712 7.107391-49.162811 4.35968-4.996354-.819397-9.61866-2.726746-13.776864-5.599213-9.736145-6.725708-9.186798-19.156463 1.142167-24.971435 8.764366-4.934113 18.413169-5.303925 28.636375-5.04773z"/></svg>