<svg enable-background="new 0 0 336 592" viewBox="0 0 336 592" xmlns="http://www.w3.org/2000/svg"><path d="m145 195.104889c39.976089.004181 79.45256.093338 118.927765-.090973 5.24115-.02446 8.599701 1.121323 9.751709 6.660614.535095 2.572998 1.876221 4.97171 2.775207 7.476959 2.254578 6.282898 1.170685 7.932312-5.322204 7.974457-7.661713.049759-15.324021-.002701-22.985977.017075-6.948792.017944-6.95578.034454-6.954453 6.8376.010224 52.801361-.06015 105.602967.113297 158.403809.030914 9.413422-1.227036 12.148865-10.563599 6.638122-5.125549-3.025268-12.369507-3.880279-15.188843-8.948028-2.679779-4.816925-.681198-11.41391-.763-17.225617-.113785-8.084777-.028626-16.172363-.028626-25.414306-7.661514 7.481628-15.765808 11.785187-25.018127 13.867676-20.044403 4.511535-37.913941-.931458-54.271073-12.327057-14.503463-10.104187-25.309562-23.444672-33.15776-39.280701-1.593582-3.215515-1.219681-5.289551 1.194168-7.889984 10.238235-11.029663 18.282997-23.352844 20.667671-38.584519 1.837662-11.73767-.624969-22.800079-5.816193-33.371765-1.291648-2.630386-3.487335-2.694595-5.888122-2.688888-9.494179.022583-18.99083-.118622-28.481468.064865-3.580132.069229-5.530266-1.185227-6.548516-4.640656-.984314-3.340255-2.5783-6.495544-3.723159-9.794983-2.087166-6.015167-.983185-7.656585 5.320587-7.671035 21.820129-.050034 43.640465-.015503 65.960716-.012665m-14.390289 108.815887c-2.110688 2.314576-.303086 4.0318 1.006241 5.654602 23.225769 28.78592 60.975097 24.099274 79.245559-1.215667 1.905411-2.640076 3.974961-5.337281 3.90535-8.985321-.108032-5.660828-.108292-11.327423.019424-16.987641.067582-2.994812-1.121246-4.143402-4.119308-4.133087-20.320068.069977-40.640534.065765-60.960663.008881-2.503097-.007019-4.009643.863891-4.934921 3.238067-3.179917 8.159241-7.974457 15.33078-14.161682 22.420166m70.876129-86.762542c-20.855728 0-41.711441 0-62.360474 0-.535827 2.416916.315796 3.523178.871704 4.694244 5.243302 11.045624 9.352753 22.410202 9.319748 34.843323-.009582 3.609772 2.049759 3.957184 4.852585 3.951599 18.465286-.036926 36.931397-.095429 55.395538.057373 3.895905.032257 5.328278-1.271759 5.242264-5.181702-.190185-8.646164-.051391-17.299545-.049484-25.949981.002716-12.413163.001694-12.413163-13.271881-12.414856z"/></svg>