<svg enable-background="new 0 0 336 592" viewBox="0 0 336 592" xmlns="http://www.w3.org/2000/svg"><path d="m112.67482 257.614319c4.407783-3.395157 8.783508-6.109635 14.025246-6.985794 7.922004-1.324143 12.9524 2.620666 13.617744 10.587265.869873 10.415191.869858 10.424927 11.50235 10.429321 16.829803.006958 33.660843-.111969 50.488525.076111 4.210236.047058 5.455567-1.454468 5.406098-5.51358-.176697-14.494797-.224579-28.995774.026367-43.488404.077774-4.491897-1.484833-5.632644-5.772019-5.616806-37.82489.13974-75.651023-.012954-113.475242.197953-5.068199.028259-7.691986-1.585968-8.927841-6.410248-.820893-3.204377-2.4683-6.187699-3.478279-9.35524-1.34269-4.211014-.137001-5.919052 4.223297-6.359207 1.32164-.133393 2.663246-.092118 3.995704-.09195 59.820763.007569 119.641533.017365 179.462303.033341 8.070527.002166 8.079529.014251 11.059784 7.615356 1.033265 2.6353 2.133149 5.253967 2.983551 7.949326 1.360627 4.312515-.085479 6.389602-4.631591 6.428741-11.163575.096115-22.332306.213181-33.490891-.037536-4.754471-.106827-6.431427 1.484436-6.375473 6.311676.216248 18.660247.119034 37.324401.095352 55.98706-.010132 7.989655-3.586548 11.612488-11.459778 11.620361-23.994934.024018-47.989913.00116-71.984878.015351-6.839386.004028-7.403229.268646-6.544098 7.052124 2.447678 19.325928 7.031204 38.024658 18.940155 54.015259 8.033249 10.78659 18.290634 18.070739 32.429749 17.598816 16.556717-.552582 26.264022-10.654694 32.799499-24.618439 1.750061-3.739197 2.759552-7.83551 3.987549-11.805451 1.143204-3.695861 3.428253-5.187408 7.172577-3.962219 5.220123 1.708038 10.399353 3.540833 15.617157 5.256195 2.011383.661286 3.115906 1.660156 2.593811 4.010864-5.078766 22.866761-15.917404 41.410462-39.992005 47.831055-27.975921 7.46109-51.597198-1.21463-70.503356-22.680115-16.550522-18.791015-25.083169-41.394958-29.570717-65.674347-.65075-3.520843-1.96653-4.650482-5.463082-4.783874-11.755218-.448395-16.277343-7.547638-12.049812-18.600403 2.636757-6.893738 7.552711-12.07373 13.292244-17.032562z"/></svg>