<svg enable-background="new 0 0 336 592" viewBox="0 0 336 592" xmlns="http://www.w3.org/2000/svg"><path d="m123.646591 227.32605c-.424591-1.332092-.781921-2.267349-1.057968-3.226013-1.471947-5.111786-4.363701-7.445771-10.149231-7.089447-8.960548.551879-17.98159.049484-26.97332.205291-3.276955.056794-5.311424-.920761-6.373955-4.192154-1.23188-3.792739-2.931892-7.430648-4.288063-11.186538-1.595413-4.418473-.371635-6.302536 4.219246-6.686249 1.324204-.110687 2.663407-.053589 3.995735-.053391 55.298928.008393 110.597847.015488 165.896782.034684 5.821091.002014 11.642594.047744 17.462906.13858 1.471069.022949 3.267792-.082291 3.937592 1.563553 2.065796 5.076019 4.340362 10.119186 5.774109 15.382095.964233 3.539505-1.621338 4.961121-5.061158 4.93689-8.161163-.057511-16.323074-.036301-24.484527-.007385-6.542526.023178-6.557816.048935-6.556687 6.798019.00882 52.633926.024277 105.267838.036087 157.901749.000382 1.665527.069703 3.336853-.041595 4.995483-.322388 4.803833-2.662399 6.238861-6.953674 4.130096-5.07959-2.496124-9.99498-5.337768-15.134369-7.696685-3.167053-1.453583-4.379242-3.449128-4.332749-6.942749.168198-12.638947.066239-25.281433.066239-37.572724-.999924-.908813-1.634095-.670746-2.161621-.261108-21.629593 16.794342-44.287064 14.955383-66.88678 2.803772-17.960846-9.657379-30.704392-24.707276-40.216133-42.632141-2.067238-3.895691-1.98375-6.529724 1.261406-10.037964 11.174575-12.080597 19.480713-25.727631 20.565727-42.768295.396721-6.230668-.745018-12.21959-2.543999-18.537369m20.904129-1.201279c6.209015 15.511414 8.864639 31.285782 3.755142 47.706131-3.126617 10.048004-8.597488 18.726776-15.366561 26.636566-1.742234 2.035858-2.444016 3.599701-.523926 6.013581 22.637939 28.459808 57.777878 25.062225 76.6949 2.943603 3.139527-3.670868 4.671494-7.660828 4.623642-12.716064-.233352-24.655854-.209106-49.315873-.016113-73.972397.034958-4.466797-1.447388-5.702973-5.742905-5.66568-20.657928.179458-41.318222.07428-61.977508.131729-1.557648.004333-3.323471-.55928-4.994965 1.135071 1.067658 2.307785 2.170532 4.691681 3.548294 7.78746z"/></svg>