<svg enable-background="new 0 0 336 592" viewBox="0 0 336 592" xmlns="http://www.w3.org/2000/svg"><path d="m203.083954 268.837158c17.791305 10.93277 33.71347 23.418396 44.775955 41.094361 8.300125 13.262146 12.215378 27.56192 9.697891 43.341278-2.688476 16.850982-12.401764 27.6427-28.288208 32.960785-8.724945 2.920684-17.827713 4.105041-27.052475 3.854766-5.659317-.153503-7.514343-2.079589-7.573562-7.588592-.051956-4.832367.122436-9.669983-.039139-14.497376-.108795-3.250122 1.206329-4.383392 4.399704-4.378326 7.37471.011749 14.584274-1.165802 21.516876-3.797577 13.52948-5.136139 19.207687-16.492828 15.190353-30.433807-2.463211-8.547821-7.506393-15.569764-13.384246-22.011505-10.114289-11.084595-22.04538-19.751679-35.589692-26.224396-2.046447-.977967-3.946502-1.512055-6.19519-.705231-19.890472 7.136444-37.753906 17.469849-52.210358 33.136078-3.975341 4.307983-7.280227 9.121246-9.409111 14.635956-5.577278 14.447601.848534 27.826874 15.639794 32.436249 6.386932 1.990387 12.966919 3.0997 19.664413 2.945892 4.728363-.108551 6.767182 2.431213 6.957062 6.620605.241196 5.321991.025925 10.66333.082458 15.995545.026307 2.482086-1.125869 3.832763-3.556945 3.785766-19.160614-.370361-37.203316-3.693878-50.355385-19.539978-13.606117-16.393188-16.0718-42.138549-6.0373-61.065796 10.522232-19.847259 27.491379-32.651763 46.718048-42.97174 4.685928-2.515167 9.524002-4.877777 14.531967-6.621918 4.264862-1.485321 5.411652-3.93959 5.286407-8.192306-.274627-9.324448-.338241-18.673371.035553-27.991318.201188-5.014984-1.28804-6.6176-6.424453-6.564331-24.329132.25238-48.663658-.014664-72.992745.239746-4.94825.051727-7.788986-1.272644-9.055366-6.193695-.865868-3.364746-2.486092-6.529068-3.649582-9.82518-1.325737-3.755814.161903-5.776535 4.069412-6.059525 1.493691-.108169 2.99633-.128265 4.494896-.128342 60.162605-.002563 120.325539.090928 180.487282-.135498 5.891327-.022186 8.981689 1.793808 10.337128 7.375184.662994 2.730056 2.012298 5.286544 2.928527 7.963485 1.679016 4.905518.337098 6.752609-4.974243 6.85759-3.331695.065857-6.665954-.001419-9.999054.000198-21.165222.010239-42.332138.171067-63.494446-.071945-5.117797-.058761-6.58525 1.546936-6.412826 6.57544.365311 10.65335.49176 21.347503-.046494 31.986343-.299453 5.918823 1.676712 9.487244 6.985688 11.569061.921112.361176 1.746811.965607 2.941406 1.624054z"/></svg>