<svg enable-background="new 0 0 336 592" viewBox="0 0 336 592" xmlns="http://www.w3.org/2000/svg"><path d="m79.786713 210.116089c-1.194474-3.170151-2.245697-5.975922-3.315979-8.774384-1.434914-3.751785-.08963-6.075958 3.838211-6.11177 15.156868-.138153 30.315735-.050278 45.473861-.059388 2.446671-.001464 3.984375 1.375962 5.261811 3.256821 11.849899 17.447678 21.140228 35.886582 21.622589 57.567169.368912 16.58133-5.772263 30.837036-16.147186 43.484711-4.828125 5.885834-5.347809 4.562805.115768 10.868897 18.87204 21.782165 48.917404 23.708068 70.271698 4.607543 3.293152-2.945587 4.91626-6.173889 4.891464-10.825683-.181946-34.149292-.016952-68.300385-.184494-102.449814-.022735-4.634888 1.004532-6.399475 6.042435-6.305649 15.135956.281967 30.282822.069702 45.424042-.084976 3.943695-.040298 6.08081 1.604691 7.175384 5.367813 1.019196 3.503922 2.700104 6.810822 3.818878 10.291489 1.324921 4.121933-.051849 6.075516-4.409057 6.147796-7.827423.129883-15.658493.030182-23.488022.041932-8.000794.012008-8.008682.020187-8.007935 7.774749.00502 52.141617.013962 104.283219.019959 156.42482.000213 1.832398.067459 3.669861-.042603 5.496155-.284195 4.715973-2.335327 6.119232-6.452835 4.146515-5.705475-2.733582-11.24855-5.805206-16.942932-8.563232-2.77388-1.343537-3.083221-3.556305-3.067093-6.201905.057922-9.495056.02182-18.990722.021332-28.486145-.000092-1.798523 0-3.597015 0-5.311371-.776703-.160064-1.202957-.389282-1.380509-.264495-25.38388 17.836853-58.372879 8.453247-79.371826-10.363373-10.149933-9.095063-18.38227-19.647644-24.702781-31.771912-2.144806-4.114258-2.056214-6.81192 1.331222-10.410034 9.59478-10.191528 16.995819-21.805603 19.479485-35.916794 2.054306-11.671768.32827-22.819839-4.980088-33.458939-1.266937-2.53923-3.101829-3.113082-5.635871-3.094909-8.995217.064575-18.012825-.348496-26.978829.16803-5.531242.318634-8.477829-1.580918-9.680099-7.189667z"/></svg>