<svg enable-background="new 0 0 336 592" viewBox="0 0 336 592" xmlns="http://www.w3.org/2000/svg"><path d="m143.119659 252.757874c17.600754-3.27829 34.960923-1.785737 52.248017-2.006516 14.376297-.183609 14.379135-.034531 14.396103-14.316467.00534-4.498856-.284668-9.021591.084716-13.490082.396317-4.794159-1.656127-5.879105-6.06694-5.863022-37.656631.137467-75.314972-.049057-112.969925.238999-5.652725.043228-8.628669-1.608872-9.973366-6.991517-.761787-3.049408-2.212829-5.920929-3.24765-8.90921-1.432563-4.136871-.275261-5.858047 4.170838-6.250091 1.489502-.131363 2.99691-.078415 4.496132-.078156 57.318786.009781 114.637588.019653 171.956375.039093 12.086273.00409 12.086273.021103 16.486175 11.250351 3.937134 10.048233 3.455139 10.752457-7.304199 10.755249-8.997681.002335-17.999161.176758-26.991394-.039657-4.202499-.10112-5.440887 1.519149-5.382111 5.568069.191025 13.160461.107483 26.325577.058228 39.488617-.028931 7.729919-4.332245 11.997589-11.945511 12.012421-19.328171.037628-38.659943-.14328-57.9832.18222-11.736832.197693-22.922974 2.89859-31.45903 11.721954-10.353859 10.702362-10.961876 23.748047-7.843788 37.336548 1.798866 7.839417 5.228294 14.974976 10.07827 20.726044 4.230148-3.776917 8.222931-7.227966 12.089386-10.815186 12.193008-11.312347 25.936599-19.839935 42.459579-23.050201 23.734299-4.611298 46.761902 4.558441 55.429382 27.210388 8.976105 23.458618-4.604904 48.372193-29.583862 53.726349-35.438309 7.596069-64.953415-4.161438-89.804909-29.126282-14.207382-14.272155-23.384475-31.362701-26.064758-51.667907-3.699234-28.024598 9.682999-48.535401 36.935341-56.190201 1.761734-.494843 3.537918-.938339 5.732101-1.461807m31.51175 88.381286c-5.973526 4.021301-11.178894 8.904755-16.168015 14.073975-2.353821 2.438751-2.153656 3.964081.601654 5.887573 11.481384 8.015381 24.047241 11.749176 38.112107 10.764648 10.096359-.706695 19.42601-3.101318 26.8096-10.417785 8.713456-8.634308 7.583435-21.525574-2.449905-27.898865-5.196243-3.30069-11.003723-4.479462-17.196533-3.866791-10.717209 1.060303-20.209687 5.260468-29.708908 11.457245z"/></svg>