<svg enable-background="new 0 0 336 592" viewBox="0 0 336 592" xmlns="http://www.w3.org/2000/svg"><path d="m235.233429 255.885315c-2.148026 9.90686-5.149506 19.079651-10.226379 27.401398-1.703049 2.791595-.222718 4.237548 1.290298 6.052398 10.171341 12.200257 17.089508 25.92923 17.894836 41.987183 1.353684 26.99176-13.357864 48.036591-40.52565 55.889526-33.64421 9.725006-64.919265 3.70752-92.820915-17.796936-6.26223-4.826477-11.34555-10.831726-13.526832-18.740112-1.254952-4.549866-.72966-8.78717 2.707908-12.954407 4.60006 3.588562 8.960312 7.105225 13.439011 10.463928 18.95768 14.216767 40.125465 21.816193 63.944588 19.347992 18.076431-1.873108 33.835479-8.74945 41.111343-27.058532 5.508163-13.86081 1.789642-26.677552-6.427856-38.417511-2.536911.285156-3.405655 2.084106-4.64885 3.321747-20.488342 20.397186-50.126404 26.496948-75.502548 15.207183-12.823212-5.705047-22.321694-14.832489-25.122444-29.066894-4.051087-20.588959 7.864807-38.809662 28.424232-43.731232 24.651474-5.901153 46.348038 1.013214 66.002884 16.039887 1.421631 1.086853 2.430786 2.776367 4.757324 3.21466 3.543412-6.287018 4.821717-13.332519 5.482254-20.350219.748078-7.948166.144272-15.916108-1.43248-23.842682-.912048-4.585099-3.056549-5.79538-7.468765-5.778092-37.660858.147675-75.323295-.021576-112.983024.234345-5.272973.035827-8.033883-1.528641-9.344635-6.540375-.880013-3.364761-2.516457-6.52449-3.560524-9.855545-1.072869-3.422928.221443-5.537781 3.970794-5.760025 1.495308-.088623 2.998139-.067581 4.497544-.067307 59.491729.011139 118.983627.09195 178.474868-.071548 5.450287-.014969 8.93628 1.135589 10.114106 6.87738.495056 2.413147 1.765441 4.660874 2.612304 7.009445 2.405823 6.672318 1.415467 8.183732-5.494262 8.220063-10.165009.053436-20.331925.140823-30.494919-.004273-4.259537-.060821-5.445847 1.180191-4.549973 5.628617 2.191666 10.882553 1.627762 21.84172-.594238 33.139938m-106.960068 33.410889c.642304 9.262146 6.454132 14.317413 14.522721 17.092132 18.574966 6.387726 45.053207-4.267761 54.413955-21.694366.130463-.242829-.019989-.636536-.058639-1.282288-12.906555-11.429047-27.509445-18.656189-45.561402-17.08905-13.502548 1.17218-22.850891 9.894897-23.316635 22.973572z"/></svg>