<svg enable-background="new 0 0 336 592" viewBox="0 0 336 592" xmlns="http://www.w3.org/2000/svg"><path d="m186.000092 288.662598c7.997985-.000672 15.504104-.211426 22.990829.078704 4.361694.169068 5.772324-1.281555 5.745499-5.689971-.164154-26.9917-.080353-53.98494-.067353-80.977677.003281-6.807846.045502-6.925827 7.022751-6.95256 14.656616-.056122 29.314575.091171 43.969864-.056717 3.747589-.037811 5.873657 1.274536 6.978729 4.855041 1.077698 3.491837 2.628693 6.834641 3.81366 10.297043 1.745148 5.099335.557831 6.859604-4.727814 6.909409-8.496948.080063-16.998459.165741-25.491516-.031677-4.147354-.09639-5.938659 1.074005-5.92633 5.629516.137939 50.985886.092178 101.972244.125335 152.958481.00261 3.992187.49762 7.999725.270691 11.972015-.228897 4.006775-2.53833 5.279755-6.177398 3.561554-5.720124-2.700836-11.273896-5.754608-16.999253-8.443542-2.907623-1.36554-2.885864-3.691345-2.883209-6.253479.021256-20.494477-.139358-40.990845.117386-61.482086.062378-4.978119-1.698868-6.231293-6.348343-6.161255-15.325882.230865-30.657135.106323-45.986328.115661-7.047592.004303-6.987915.009949-8.049362 7.520111-1.738953 12.303803-5.140503 24.06131-11.727616 34.73758-2.115692 3.429077-4.599426 6.505615-7.8544 8.955566-5.907318 4.44632-12.216988 4.93216-18.789368 1.877228-6.280357-2.919189-8.739365-8.484283-9.27301-14.933868-.869362-10.507111 2.867401-19.975068 7.301124-29.186402 2.968972-6.168213 6.400078-12.163818 10.939949-17.260895 3.885651-4.362518 5.040329-9.081207 4.69188-14.657104-1.289902-20.640045-3.839722-41.053986-10.063874-60.876984-2.507408-7.985702-2.441993-8.009094-10.588073-8.007248-7.164727.001618-14.331559-.089218-21.493187.062699-3.108017.065918-4.990662-.994736-6.001076-4.014969-1.372315-4.101929-3.200172-8.055267-4.492729-12.178894-1.131233-3.608994.240883-5.898819 4.316551-5.901795 14.829018-.010818 29.658287.047715 44.486931-.025726 3.395439-.016815 5.013466 1.866303 6.371284 4.602066 8.953095 18.038818 14.28006 37.220856 18.143769 56.879486 1.829147 9.306763 2.908828 18.717102 3.787658 28.143402.281708 3.021637 1.480164 3.98935 4.374893 3.956147 8.996033-.103272 17.994156-.025879 27.491456-.01886z"/></svg>