<svg enable-background="new 0 0 336 592" viewBox="0 0 336 592" xmlns="http://www.w3.org/2000/svg"><path d="m144.67804 362.824341c-17.599312-3.66449-29.775017-14.568695-40.229371-27.689911-7.073341-8.877747-12.73381-18.677124-17.174087-29.198822-1.56472-3.707794-1.329544-6.236481 1.289398-9.415344 8.835426-10.724518 16.594116-22.115662 19.461205-36.116089 2.948936-14.400101-.151467-27.688584-7.026101-40.384812-1.359268-2.510299-3.337577-2.89096-5.80326-2.879257-9.163803.043503-18.331154-.123138-27.490319.087372-3.578468.082245-5.571148-1.17662-6.658954-4.547317-1.17458-3.639542-2.778847-7.13852-4.017128-10.759873-1.601059-4.682251-.288742-6.704971 4.65908-6.753052 11.984944-.116439 23.968754.125229 35.958546.06575 53.983261-.267776 107.968628-.137008 161.953201-.097381 9.325775.006851 18.65149.360733 27.977021.350403 2.572204-.002854 3.978363.789001 4.812255 3.240661 1.339112 3.937088 3.072297 7.740311 4.407013 11.678696 1.613739 4.761688.334168 6.620926-4.619018 6.684463-8.32959.106858-16.670197.271592-24.989014-.042343-4.887146-.184433-6.181244 1.63649-6.166901 6.355973.161103 52.98442.12851 105.969406.148865 158.954269.004181 10.860657-.603821 10.471252-10.62442 6.88089-12.943787-4.637665-17.074356-12.18396-16.212662-25.985474 1.409287-22.571808.270172-45.297302.450318-67.956024.035492-4.46582-1.075501-6.199554-5.856293-6.015961-9.483353.364136-18.995468.290925-28.485474.028717-4.24208-.117187-5.508072 1.431244-5.350662 5.497651.438614 11.329864-.55249 22.605499-1.787857 33.863495-2.419006 22.044586-16.106689 34.533233-38.233185 34.703918-3.32077.025604-6.644134-.280731-10.392196-.550598m52.82196-145.661865c-25.054901 0-50.109802 0-75.410515 0 .557564 3.852813 2.461006 6.253738 3.688698 8.932052 8.216003 17.923691 11.938736 36.287247 5.443863 55.632706-3.443588 10.256988-9.424294 19.04071-16.10466 27.415344-1.282639 1.607941-3.228081 3.085907-1.822876 5.679993 5.461441 10.082062 11.75769 19.470337 22.346542 24.856354 12.870346 6.546508 27.629502.293548 31.810868-13.416626 1.354919-4.442627 2.022949-9.034943 2.409698-13.717591.866119-10.486938-.018387-20.959137.228851-31.434112.170517-7.225006 4.25322-11.43805 11.380997-11.447937 15.822113-.021942 31.645844-.132263 47.465363.07077 4.262832.054687 5.907287-1.115295 5.832473-5.607758-.230133-13.819595-.237442-27.648834.029404-41.467376.087692-4.542023-1.599884-5.698365-5.822067-5.598954-10.154068.239106-20.317169.093705-31.476639.103135z"/></svg>