<svg enable-background="new 0 0 336 592" viewBox="0 0 336 592" xmlns="http://www.w3.org/2000/svg"><path d="m105.949844 296.398987c4.749062-18.744385 17.312775-29.458466 36.958969-31.73642 18.105484-2.099335 36.283127-.511688 54.422593-.947296 7.224487-.173553 7.241729-.040009 7.247696-7.084442.009155-10.832184.011581-21.664414-.011902-32.496567-.01442-6.658783-.336914-6.977234-7.141205-6.978882-32.496597-.007828-64.993744-.090225-97.48922.102448-4.736336.028091-7.500328-1.205948-8.701828-5.980652-.847595-3.368332-2.484314-6.530502-3.62043-9.835709-1.428596-4.156143-.264747-5.852874 4.18129-6.267807 1.32328-.123504 2.66407-.078781 3.996834-.078644 51.661277.00528 103.322548.008027 154.983818.028458 9.845306.003906 9.670166.109253 13.435333 9.246506 5.031494 12.210373 4.008789 13.179993-9.059265 12.810821-6.493775-.183471-13.003876.166108-19.494629-.063598-4.134018-.146302-5.404572 1.375656-5.389938 5.496277.132537 37.328994.05249 74.658645.096084 111.988021.009583 8.205903-1.046676 16.259552-3.032791 24.189423-6.368133 25.425995-23.388138 33.65094-46.379501 29.90799-34.2874-5.581849-67.799668-38.650544-74.865761-72.543122-1.338806-6.42157-1.188294-12.881469-.136147-19.756805m90.167221 67.221252c3.755036-4.273498 5.666871-9.422577 6.522644-14.898956 3.075898-19.683838 1.695313-39.529327 1.901124-59.31601.033874-3.258514-1.910569-4.134429-4.910431-4.101623-9.493271.103851-18.989319.105682-28.482682.000946-7.021331-.077423-13.988601.21109-20.81015 2.019073-12.458633 3.302033-18.965225 11.789704-19.000381 24.711304-.059174 21.751557 23.698761 51.682648 44.808563 56.709168 7.38736 1.759094 13.825973.484802 19.971313-5.123902z"/></svg>