<svg enable-background="new 0 0 336 592" viewBox="0 0 336 592" xmlns="http://www.w3.org/2000/svg"><path d="m238.491699 382.693298c-11.546829 5.60614-23.628952 6.690766-35.812011 7.227936-4.07985.179871-6.431092-2.260162-6.709473-5.921753-.428269-5.63324-.167282-11.319916-.172272-16.983917-.002685-3.043121 2.077789-3.272553 4.436417-3.380493 6.656448-.304688 13.294418-.905609 19.664123-3.017121 19.300782-6.398254 26.867539-19.863586 21.745148-39.509826-4.353104-16.69574-15.723022-28.043884-29.857758-37.983612-9.934982 19.736755-20.767517 38.122558-36.065948 54.040466-14.149643-14.441803-23.554825-31.430817-32.58876-48.559906-17.098305 7.723633-34.486306 27.520233-32.735024 47.154022 1.086433 12.180115 8.660431 19.382599 19.416267 23.763062 7.030228 2.863159 14.498215 3.769104 21.992951 4.041809 4.473389.162781 6.392044 2.332886 6.485275 6.438629.121018 5.329163-.054031 10.6651.072601 15.993988.073548 3.094849-1.431564 4.124817-4.260742 4.088501-33.018638-.42395-60.100311-16.116852-65.033058-53.262878-3.073944-23.148377 6.147637-42.341187 23.154328-57.9245 4.918396-4.506714 10.076667-8.761139 15.890098-12.071594 2.838623-1.616486 3.436585-3.4487 2.36908-6.501312-4.455574-12.741074-7.872406-25.766205-9.872086-39.128846-.522201-3.489486-2.626747-4.092331-5.653686-4.071548-12.3294.084701-24.662217-.102966-36.988213.118866-3.95919.071274-6.205238-1.13971-7.327995-5.019699-1.01442-3.505585-2.623764-6.834854-3.863709-10.28038-1.709404-4.750153-.562324-6.685959 4.479744-6.755936 10.650871-.147843 21.303078.094314 31.959221.049087 57.150192-.242599 114.302078-.063202 171.45285-.220077 4.9198-.013489 7.822083 1.204941 8.985047 6.249344.702362 3.046295 2.39273 5.850662 3.409759 8.841736 1.654114 4.864807.211212 6.983551-4.92337 7.014526-14.495575.087418-28.995728.230804-43.485825-.059509-4.805786-.096268-6.674698 1.481002-7.462814 6.206314-2.137039 12.813003-5.527008 25.356781-10.133804 37.50824-1.355713 3.576019-.939911 5.504882 2.275543 7.81491 16.366226 11.757721 30.103714 25.820191 37.198471 45.217194 4.736359 12.949249 6.074097 26.231018 2.460754 39.678101-3.57727 13.312835-11.935058 22.829467-24.501129 29.206176m-70.991699-165.510223c-9.105362 0-18.210739 0-28.043365 0 5.043273 32.01683 14.711395 61.241028 32.948379 87.586304 15.78949-15.399536 35.50499-69.811097 35.40744-87.585312-13.093216 0-26.202835 0-40.312454-.000992z"/></svg>