<svg enable-background="new 0 0 336 592" viewBox="0 0 336 592" xmlns="http://www.w3.org/2000/svg"><path d="m233.452759 378.549927c-13.370316 9.272949-28.374344 10.960052-43.64798 11.28949-4.003036.086334-5.79364-3.008606-5.946594-6.709443-.199402-4.824432.060211-9.667633-.131928-14.492614-.143905-3.613739 1.20575-4.978852 4.91037-5.068512 6.648667-.16095 13.274018-.88852 19.647492-3.051606 18.932144-6.425415 26.218994-19.774536 21.44133-39.313659-3.430909-14.031311-17.102204-31.155762-30.223908-37.473206-9.69368 19.061432-20.373245 37.544769-35.797684 53.363007-8.63887-8.703797-15.315567-18.187439-21.290817-28.167816-3.418289-5.709473-6.409118-11.674927-9.590668-17.526093-.995101-1.830017-1.895462-3.676392-4.520904-1.973328-12.101662 7.850098-22.714447 17.150422-27.703659 31.160096-7.124931 20.006805 2.600448 36.527008 23.908912 40.983337 5.030617 1.052063 10.191857 1.713013 15.322808 1.978516 4.160797.215301 6.279693 2.088775 6.418564 5.99002.201416 5.65799.014084 11.328736.078567 16.993073.030152 2.646881-1.42366 3.568207-3.757278 3.514893-21.893967-.500153-41.786476-5.864014-54.907944-25.079987-13.123405-19.218903-14.596565-39.984711-5.593689-61.310974 6.58847-15.606995 18.433205-26.781891 32.452309-35.683624 4.10321-2.605408 5.021972-4.947876 3.360809-9.583497-4.267822-11.90982-7.330109-24.194091-9.198578-36.725158-.541893-3.634247-2.406128-4.578751-5.763275-4.546311-12.329392.119156-24.663116-.08728-36.989601.136902-3.972119.072251-6.183857-1.174286-7.306355-5.048462-1.061992-3.665344-2.748203-7.144943-4.010673-10.758346-1.453633-4.160599-.288956-5.867554 4.160515-6.267868 1.489162-.133972 2.996898-.080628 4.496147-.080567 74.149929.003434 148.300045.078934 222.449459-.11322 5.933685-.015396 9.394348 1.543457 10.762054 7.452973.631867 2.730026 2.04773 5.269409 2.959748 7.945785 1.564117 4.589981.185791 6.675736-4.68689 6.726669-10.163239.106217-20.328339.024903-30.492676.032303-12.830414.009354-25.662872.163574-38.490005-.033874-3.906327-.060135-5.731675 1.285766-6.372864 5.098404-2.26738 13.482223-5.850159 26.637161-10.636688 39.435501-1.149384 3.073211-.5345 4.660705 2.114608 6.568054 16.485886 11.86972 30.445221 25.938049 37.612137 45.508789 4.368897 11.930084 5.817154 24.175323 3.224701 36.755585-2.393951 11.617065-8.406082 20.880462-18.259872 28.074768m-81.952759-161.373352c-7.770035 0-15.54007 0-23.316437 0 .867157 25.160415 19.898865 75.326111 33.393143 87.422455 18.597763-26.15857 28.790344-55.451157 35.288467-87.421891-15.485778 0-29.925476 0-45.365173-.000564z"/><path d="m274.984589 356.646942c7.926818 4.240479 11.574646 11.298645 10.151916 19.04422-1.298462 7.068939-6.813049 12.559418-13.592712 13.533325-8.113282 1.165436-15.217133-2.054535-18.406311-8.929229-3.079315-6.638031-2.992371-13.444123 1.860565-19.242554 5.233765-6.253479 12.230041-6.663086 19.986542-4.405762z"/></svg>