<svg enable-background="new 0 0 336 592" viewBox="0 0 336 592" xmlns="http://www.w3.org/2000/svg"><path d="m215.634918 243.71817c2.855484.107178 4.26442-.834503 4.260407-3.436508-.009995-6.497528.00885-12.995193.037918-19.492691.0112-2.502823-1.219544-3.648834-3.691376-3.599152-1.49852.030136-2.998581-.026519-4.49794-.026413-41.821228.002976-83.642792-.068985-125.463165.121292-4.667893.02121-7.079399-1.452758-8.255638-5.862304-.854157-3.202103-2.333771-6.232132-3.410881-9.381195-1.746628-5.106446-.683808-6.6017 4.799224-6.907547 1.329323-.074173 2.665131-.042053 3.997956-.041825 60.815719.010758 121.631698.104599 182.446731-.092681 5.931214-.019227 9.399048 1.545288 10.741181 7.477951.61792 2.731491 2.047271 5.2695 2.950744 7.948516 1.577698 4.678254.275971 6.617432-4.642852 6.680542-7.996369.102585-16.000702.213822-23.990281-.038757-4.289825-.13559-5.877029 1.188843-5.752517 5.677338.295623 10.655365.136795 21.324722.080261 31.987991-.037872 7.140289-5.013077 12.164185-12.144791 12.199738-29.15654.145324-58.313461.214111-87.470016.356506-5.213318.025482-10.237793 1.208954-15.062683 3.147827-7.331063 2.946014-11.633789 8.295014-11.922219 16.284607-.257957 7.14566 4.625115 13.776398 12.097512 16.788757 6.859359 2.765168 14.068329 4.117554 21.445236 4.156281 27.490921.144379 54.983093.289734 82.473129.134857 4.906906-.027618 7.373093 1.53537 8.29361 6.303101.65921 3.414276 1.927673 6.708435 2.87532 10.070007 1.737885 6.164581 1.012299 7.197235-5.278305 7.204956-23.159942.028534-46.319916.015625-69.479889.017456-7.804275.00061-9.025024 1.136414-9.712951 9.046692-1.444687 16.61203 6.373931 26.010925 23.03984 28.281464 11.798691 1.607482 23.617325.635345 35.423813.910369 6.32814.147431 12.663849.115204 18.993164.000306 2.669083-.048462 4.41658.73999 5.277146 3.430786 1.621597 5.070251 3.512634 10.055755 5.074676 15.143127.975159 3.175873.312683 5.949341-3.700439 5.893433-19.96016-.278076-40.020859 1.570007-59.843109-1.840302-15.633347-2.689605-29.245545-9.22583-37.788575-23.456817-6.367874-10.607575-7.560531-22.184418-5.568451-34.217743.242447-1.464478.469101-2.93158.744889-4.659394-4.678284-1.538208-9.323243-2.761138-13.728623-4.568206-16.367599-6.71399-29.229988-17.108857-32.86251-35.371888-3.5747-17.972259 2.767051-33.26831 20.525032-40.78189 9.513603-4.025315 19.560318-5.372132 29.757095-5.435975 22.825211-.142929 45.651916-.04573 68.932327-.052612z"/></svg>