<svg enable-background="new 0 0 336 592" viewBox="0 0 336 592" xmlns="http://www.w3.org/2000/svg"><path d="m243.366333 276.000122c.001953 36.662079.008331 72.824188.002777 108.986267-.001144 7.497986-1.624237 8.524811-8.184799 5.154572-4.296692-2.207276-8.447067-4.731873-12.85495-6.679993-3.56662-1.576355-4.795715-3.814758-4.760757-7.710266.177917-19.829224-.070633-39.662842.184188-59.490357.063111-4.909851-1.556579-6.231079-6.276184-6.168182-17.328018.230927-34.661026.082916-51.992157.088501-7.38208.00235-7.234039.033325-8.154602 7.345703-1.599243 12.703675-5.335876 24.732392-12.469665 35.477875-4.547501 6.849853-10.470673 11.933075-19.372277 10.745972-9.899787-1.320191-15.507652-7.962952-15.753585-18.079224-.194146-7.986115 2.111778-15.480957 5.233497-22.696686 3.78537-8.749786 8.515953-16.984649 14.748848-24.257202 2.054535-2.397186 3.005562-4.932342 2.999443-8.156586-.042999-22.637146-3.725097-44.683639-10.087654-66.365615-1.539711-5.246964-4.062965-7.615754-9.874931-7.154419-7.120835.5652-14.32779-.055527-21.483711.209304-3.848961.142441-5.810662-1.336776-6.882859-4.91687-1.096313-3.660614-2.713859-7.161743-3.929603-10.790848-1.466881-4.378738-.4748-5.885726 3.986595-6.342697 1.321602-.135345 2.663109-.102905 3.995491-.102768 61.325546.006043 122.651306.089035 183.976272-.093994 5.579316-.016647 8.733277 1.517609 10.043732 7.03656.724243 3.050217 2.348572 5.875 3.301361 8.885529 1.287689 4.068649-.124389 6.119324-4.379486 6.182846-8.496979.126846-17.005798.274216-25.49266-.043564-4.912491-.183929-6.724793 1.240814-6.634781 6.445603.299698 17.325637.112945 34.659667.112457 52.490539m-36.901413-58.831497c-22.86235 0-45.724716 0-68.329834 0-.333343 1.341156-.539444 1.688888-.467773 1.96434.33348 1.281586.733307 2.546433 1.12825 3.811401 6.347381 20.330048 11.500793 40.913727 12.48941 62.299683.186432 4.033234 2.213623 4.504334 5.457596 4.492432 18.46785-.067841 36.937698-.153443 55.403122.072784 4.480865.054871 5.636093-1.46167 5.590637-5.756286-.200714-18.965149-.02301-37.93393-.109833-56.900803-.050827-11.101547 1.70662-9.904358-11.161575-9.983551z"/></svg>