<svg enable-background="new 0 0 336 592" viewBox="0 0 336 592" xmlns="http://www.w3.org/2000/svg"><path d="m88.924469 206.980087c-4.432983-11.403244-4.104073-11.905899 7.620773-11.890838 53.310211.068512 106.620423.177169 159.930558.143661 3.372894-.002121 5.261169.934342 6.286834 4.183457 1.150605 3.644851 2.786927 7.133743 4.0206 10.755661 1.667602 4.895904.26596 6.889038-4.904663 6.945785-7.995835.087753-15.993271.017395-23.98993.04628-6.764679.024429-6.747177.044632-6.745834 7.035538.006622 34.152786.108948 68.306076-.05867 102.458023-.053009 10.802948-.742142 21.601898-3.470673 32.164459-6.685104 25.878906-24.092437 33.592011-46.983581 29.857269-34.937134-5.700012-67.748696-37.810302-74.304711-72.604217-5.013305-26.606476 7.45337-47.540375 37.442559-51.519135 9.321777-1.236725 18.6194-.571838 27.925644-.850403.332458-.009948.665969.018036.999054.024994 4.471115.093232 4.506683 4.057953 5.387466 6.776123 1.419769 4.381562 5.343124 8.388825 2.951462 13.510956-.822098 1.760651-2.924591 1.237671-4.546784 1.293976-6.482284.225037-12.966827-.275513-19.449737.716126-20.596497 3.15036-29.291107 14.833038-24.502243 35.11029 4.666885 19.760712 16.305374 35.019318 34.401611 44.411377 19.432572 10.085693 34.396835 1.058258 36.798615-21.033264 1.482956-13.640137.847015-27.275879.924606-40.912445.149719-26.321778.042969-52.645035.038406-78.967667-.001281-7.454605-.007858-7.471985-7.277542-7.473358-31.487198-.005905-62.974609.064468-94.461502-.034622-11.218033-.035294-9.406052 2.175125-14.032318-10.148026z"/></svg>