<svg version="1.1" id="Layer_1" xmlns="http://www.w3.org/2000/svg" xmlns:xlink="http://www.w3.org/1999/xlink" x="0px" y="0px"
	 width="100%" viewBox="0 0 350 592" enable-background="new 0 0 350 592" xml:space="preserve">
<path fill="#FFFFFF" opacity="1.000000" stroke="none" 
	d="
M347.267517,593.000000 
	C231.575577,593.000000 116.412483,593.000000 1.124693,593.000000 
	C1.124693,395.755981 1.124693,198.511856 1.124693,1.133868 
	C117.573662,1.133868 234.147537,1.133868 350.860718,1.133868 
	C350.860718,198.234268 350.860718,395.468658 350.860718,593.000000 
	C349.937164,593.000000 348.866760,593.000000 347.267517,593.000000 
M153.977463,437.324188 
	C154.777451,448.081390 166.300751,450.412415 172.411469,446.393890 
	C177.175354,443.260956 179.047958,437.428986 176.997849,431.960052 
	C175.037842,426.731476 169.756134,423.811981 163.778259,424.652679 
	C158.023270,425.462097 154.579819,429.606720 153.977463,437.324188 
z"/>
<path fill="#050505" opacity="1.000000" stroke="none" 
	d="
M153.963516,436.903503 
	C154.579819,429.606720 158.023270,425.462097 163.778259,424.652679 
	C169.756134,423.811981 175.037842,426.731476 176.997849,431.960052 
	C179.047958,437.428986 177.175354,443.260956 172.411469,446.393890 
	C166.300751,450.412415 154.777451,448.081390 153.963516,436.903503 
z"/>
</svg>