<svg enable-background="new 0 0 350 592" viewBox="0 0 350 592" xmlns="http://www.w3.org/2000/svg"><path d="m347.267517 593c-115.69194 0-230.855034 0-346.142824 0 0-197.244019 0-394.488144 0-591.866132h349.736025v591.866132c-.923554 0-1.993958 0-3.593201 0m-193.290054-155.675812c.799988 10.757202 12.323288 13.088227 18.434006 9.069702 4.763885-3.132934 6.636489-8.964904 4.58638-14.433838-1.960007-5.228576-7.241715-8.148071-13.21959-7.307373-5.754989.809418-9.19844 4.954041-9.800796 12.671509z" fill="#fff"/><path d="m153.963516 436.903503c.616303-7.296783 4.059754-11.441406 9.814743-12.250824 5.977875-.840698 11.259583 2.078797 13.21959 7.307373 2.050109 5.468934.177505 11.300904-4.58638 14.433838-6.110718 4.018525-17.634018 1.6875-18.447953-9.490387z" fill="#050505"/></svg>