<svg enable-background="new 0 0 336 592" viewBox="0 0 336 592" xmlns="http://www.w3.org/2000/svg"><path d="m247.150864 195.115326c19.282364.13594 38.083603.320557 56.885147.353653 2.555267.004486 4.036957.767029 4.886566 3.18576 1.378296 3.924073 2.990143 7.76558 4.40448 11.677719 1.657928 4.585831.302978 6.700913-4.559296 6.769898-8.328338.118149-16.669464.276566-24.98584-.060226-4.90686-.198716-6.590759 1.163818-6.553772 6.386184.238434 33.651703-.022277 67.306977.228058 100.958527.058686 7.890625-2.749725 9.257294-9.189728 5.389679-3.846954-2.310364-7.835998-4.472748-11.975524-6.182801-4.288514-1.771545-5.257386-4.763183-5.242279-9.040283.10527-29.821106.020233-59.642837.023147-89.464355.000778-7.951615.043945-7.950241-7.956116-7.939209-4.498214.006195-9.008163-.191773-13.490966.072616-3.622971.213669-5.536118-1.283508-6.626389-4.602066-1.193832-3.633728-2.783707-7.135879-4.028595-10.754669-1.590546-4.623642-.230209-6.669555 4.741928-6.698028 7.651856-.043839 15.305557.742584 23.439179-.052399z"/><path d="m195.969406 263.813416c3.805679-2.681672 7.403702-2.959565 10.825165-.270936 2.627991 2.065033 4.014542 4.847168 3.117645 8.294129-.896454 3.445221-2.877594 5.905029-6.602051 6.548859-3.582412.619323-6.578872-.378571-8.651947-3.432343-2.617935-3.856476-1.791336-7.482452 1.311188-11.139709z"/><path d="m184.83345 334.758606c7.020722-.396027 11.258026 2.639832 11.303421 7.756561.045777 5.161011-4.213668 9.166931-9.376068 8.735016-4.209015-.352112-6.679397-2.972534-7.516266-6.820587-.973724-4.477325 1.171769-7.649262 5.588913-9.67099z"/><path d="m84.952255 275.826569c-3.647384 3.300964-7.463493 3.701202-11.153656 1.27005-2.907676-1.915619-4.429725-4.824646-3.475021-8.574189.905876-3.5578 3.102264-5.832885 6.635612-6.60614 3.365593-.736572 6.239678.427246 8.353951 3.112854 2.738663 3.47873 2.36042 7.025879-.360886 10.797425z"/><path d="m67.296356 289.291443c7.139511-4.047669 13.5607-1.584046 14.119499 5.032593.318421 3.770385-.672508 6.9169-4.365982 8.613647-3.453102 1.586365-6.788536 1.438141-9.598365-1.348419-2.877144-2.853302-3.585076-6.228027-1.798165-9.964935.35109-.734223.900559-1.373597 1.643013-2.332886z"/><path d="m201.878632 302.197327c-3.755829-3.633637-4.327103-7.531342-1.752289-11.545899 2.086578-3.253235 5.334503-4.456482 9.136947-3.398865 4.853104 1.349762 7.315766 6.24405 5.713135 11.086945-1.660995 5.019287-6.713089 6.63916-13.097793 3.857819z"/><path d="m181.885513 254.322174c-3.788604-5.141327-3.51326-9.977936.434006-12.988892 3.752899-2.862686 9.172669-2.1501 12.015625 1.641572 2.706635 3.609817 2.149323 7.240768-.427139 10.562484-2.612503 3.368119-6.779068 3.62764-12.022492.784836z"/><path d="m208.505249 315.738037c2.324341 5.293244 1.622528 9.364319-1.964661 11.754578-3.541809 2.360077-7.144531 2.473022-10.470504-.49823-3.664109-3.273346-3.988495-8.43454-.828614-11.990906 3.500199-3.939362 8.324616-3.783173 13.263779.734558z"/><path d="m173.362885 236.185883c-3.099793 5.937957-7.626175 7.667724-12.247681 5.030914-4.193497-2.392624-5.528687-7.430481-3.058777-11.627243 2.314514-3.932709 6.053345-4.799698 9.941803-3.591782 4.580109 1.42276 6.355926 5.020966 5.364655 10.188111z"/><path d="m81.944778 328.286133c-5.66893 1.400665-9.653938-.414581-11.328521-4.850769-1.48893-3.944397.523033-8.708344 4.424553-10.476441 4.126091-1.869873 8.587013-.502502 10.845428 3.324372 2.552574 4.325317 1.401726 8.143768-3.94146 12.002838z"/><path d="m93.651337 334.592621c5.534362 1.557464 8.339622 5.399444 7.44725 9.710785-.910912 4.40094-5.217697 7.507049-9.573669 6.904663-3.958298-.547363-7.285225-4.368561-7.21624-8.288269.091949-5.224213 2.973442-7.909455 9.342659-8.327179z"/><path d="m159.861694 363.313995c-3.836395-5.006622-4.007644-8.934173-.589935-12.286621 3.129288-3.069549 6.867432-3.223602 10.561844-1.261596 3.558716 1.889984 4.838959 6.476654 3.270767 10.473449-1.967682 5.014984-7.135635 6.350586-13.242676 3.074768z"/><path d="m100.594193 244.850769c1.386398 4.55333.221008 8.064545-3.431672 10.297958-3.208099 1.961564-6.691818 1.855118-9.772033-.605468-3.118759-2.491379-3.75116-5.791397-2.519211-9.422882 1.037964-3.059693 3.195587-5.02472 6.514191-5.388764 4.052024-.444473 7.132843 1.061356 9.208725 5.119156z"/><path d="m146.393158 234.196838c-3.524506 3.019959-7.052963 3.769806-10.752914 1.338654-3.017746-1.98291-4.510407-4.857575-3.833359-8.529602.670761-3.637909 3.017593-5.794113 6.519974-6.736496 3.458541-.930588 6.311004.300293 8.354553 2.987823 2.612762 3.436097 2.26033 7.089325-.288254 10.939621z"/><path d="m142.978943 370.214233c-5.810455.950623-9.732163-1.123535-11.033585-5.53955-1.251938-4.248139 1.168579-8.800873 5.521408-10.385163 3.773987-1.373565 8.289185.457001 10.144333 4.112824 2.13533 4.207947.537476 8.604187-4.632156 11.811889z"/><path d="m106.673378 233.138c1.694519-6.225753 5.265717-8.557128 10.603073-7.332839 4.049957.928985 6.674416 5.146179 5.960663 9.578094-.680412 4.224915-4.520348 7.183899-8.96772 6.910355-4.481949-.275666-7.062813-3.237854-7.596016-9.15561z"/><path d="m116.665741 348.750732c4.587891 1.301148 6.772438 4.086792 6.626366 8.463135-.130417 3.907257-2.225777 6.592072-5.892113 7.725281-3.671341 1.134796-6.886734.071289-9.242973-3.051575-2.116555-2.805145-2.071778-5.94516-.627488-8.91156 1.726334-3.545654 4.89943-4.703766 9.136208-4.225281z"/></svg>