<svg enable-background="new 0 0 336 592" viewBox="0 0 336 592" xmlns="http://www.w3.org/2000/svg"><path d="m146.277344 111.456223c23.482086 8.626564 36.400436 26.542541 44.791534 48.498046 2.549057 6.669678 4.611466 13.533249 5.647461 20.661698.362366 2.493439 1.530197 5.426712-1.925613 6.172455-3.265961.704773-7.095475 1.550109-9.02266-2.875061-2.590835-5.949082-5.003891-11.996201-7.964416-17.759201-5.455521-10.619919-12.380585-20.109147-22.473816-26.919465-16.018204-10.808151-41.768471-8.533248-53.877075 6.151154-9.324173 11.307663-10.299927 24.404175-6.446465 37.742142 4.5588 15.779388 2.590576 12.337051 16.59224 12.678131 5.828125.141998 11.665367.115066 17.493522-.031571 3.246018-.08168 5.33226.893341 6.362397 4.2305 1.125915 3.647369 2.778289 7.128708 4.081222 10.72586 1.571747 4.339279.272766 6.319824-4.403839 6.38324-8.995949.121994-18.000839.26152-26.989266-.017456-4.626068-.143601-5.898338 1.471771-5.885902 6.031784.14492 53.15152.092148 106.303619.091156 159.455566-.00003 1.499573.046043 3.001404-.018692 4.498291-.203484 4.705323-1.758087 5.720337-5.946007 3.711243-4.95533-2.377197-9.740539-5.133942-14.785415-7.291473-3.835518-1.64032-4.872368-4.134461-4.862435-8.145813.124176-50.152497.088738-100.305359.089127-150.458115.000061-7.704742-.011818-7.707825-7.552872-7.716965-6.498184-.007888-12.998749-.11322-19.493568.03302-3.293682.074158-5.336079-1.07904-6.382855-4.293106-1.132026-3.475799-2.660732-6.821273-3.82748-10.287185-1.738949-5.16565-.614994-6.784821 4.760128-6.827835 8.996925-.072022 17.994942.000518 26.992207-.045441 1.798851-.009186 3.663269.376877 5.453262-.520416.766388-2.123337-.503212-3.820298-1.178581-5.6353-7.332405-19.70546-8.090004-39.143005 3.819641-57.388382 9.632423-14.756699 23.880119-22.193741 41.377487-23.561699 8.542061-.667824 16.91938.07151 25.485573 2.801354z"/><path d="m283.423615 326.229156c-3.490784 3.012055-7.000702 4.025269-10.74466 1.545563-3.183014-2.108063-4.653412-5.195831-3.77301-9.028961.822082-3.579315 3.200165-5.757996 6.805542-6.432526 3.428039-.641449 6.310547.540589 8.230621 3.383698 2.275208 3.368896 1.973297 6.870361-.518493 10.532226z"/><path d="m150.9104 328.447693c-4.686218-2.684601-6.419189-6.384552-4.569931-11.103607 1.492875-3.809632 4.733673-5.545685 8.797181-5.107056 5.032592.543274 7.988098 4.879211 7.134536 10.079987-.806747 4.915466-5.057663 7.344207-11.361786 6.130676z"/><path d="m140.421951 296.622559c-.129394-4.403565 1.325562-7.486542 5.286942-9.041504 3.065689-1.203369 5.948517-.87265 8.376266 1.339782 2.793656 2.545899 4.034928 5.624451 2.501374 9.418427-1.480469 3.662598-4.293442 5.683838-8.079895 5.53186-4.214356-.169098-7.130722-2.501648-8.084687-7.248565z"/><path d="m221.649353 356.367676c2.700409 3.305237 3.226288 6.551697 1.336853 10.027527-2.05246 3.775787-6.789658 5.365661-10.772827 3.666076-4.132507-1.763305-6.048294-6.47232-4.410721-10.84143 1.512665-4.035828 6.021286-6.366028 10.133118-5.071442 1.228317.386719 2.298233 1.27655 3.713577 2.219269z"/><path d="m289.846832 299.583313c-2.918121 3.96521-6.430481 5.358398-10.695587 3.533478-3.559845-1.523163-5.428375-4.519257-5.100738-8.371338.347595-4.086273 2.845703-6.648071 6.856842-7.596344 3.028747-.715973 5.651916.243256 7.71051 2.441467 2.651886 2.831696 3.245514 6.098114 1.228973 9.992737z"/><path d="m197.079636 239.008057c-3.421219 3.511184-7.085266 4.508255-11.031357 2.021438-3.160919-1.992019-4.957352-4.914551-3.933121-8.887512 1.34903-5.232864 6.110458-7.807159 11.212021-6.107666 5.107925 1.701645 6.669891 6.659119 3.752457 12.97374z"/><path d="m174.517334 253.594971c-4.893326 3.473877-8.899231 3.605041-11.972458.67128-3.409256-3.254578-3.765564-8.172989-.845962-11.677903 2.701797-3.243438 7.735153-3.96112 11.271637-1.607132 3.888137 2.588089 4.554489 7.117981 1.546783 12.613755z"/><path d="m182.308472 359.294098c-.504959-6.07721 1.80809-9.769531 6.22496-10.54718 4.588989-.807953 8.421463 1.33786 9.890564 5.53775 1.334381 3.814758-.432236 8.092804-4.166534 10.089661-4.476456 2.393646-8.471085.800506-11.94899-5.080231z"/><path d="m247.918991 229.34108c2.389633 4.444366 1.620957 8.166549-1.797638 11.049209-2.904739 2.449387-6.413376 2.744034-9.729751.695511-3.544144-2.189178-4.501481-5.608307-3.59314-9.513931.690964-2.970825 2.651321-5.063416 5.625671-5.694855 3.59224-.762619 6.960877-.22493 9.494858 3.464066z"/><path d="m159.876099 344.563202c.169143-7.30249 3.581237-10.672516 9.602386-9.960999 4.889404.57779 7.889832 4.994294 6.814575 10.186402-.760269 3.671142-3.267196 5.798553-6.805572 6.341797-4.838028.742858-7.828446-1.829956-9.611389-6.5672z"/><path d="m239.30455 348.719238c5.990387.179352 9.306137 2.455567 9.870423 6.772766.556274 4.255951-1.141465 7.621399-5.16095 9.212555-3.966751 1.570221-7.526627.522431-10.106156-3.023895-3.409133-4.686829-1.223159-10.304687 5.396683-12.961426z"/><path d="m210.781677 235.399963c-3.726242-3.254257-4.604645-6.880828-2.514877-10.952865 1.57869-3.076172 4.417236-4.632309 7.779098-4.424561 3.81395.235687 6.420289 2.500946 7.65152 6.157532 1.143875 3.397125-.005905 6.288986-2.522369 8.515732-3.035797 2.686294-6.48938 3.126053-10.393372.704162z"/><path d="m254.703674 343.800171c.51146-6.365906 2.978638-9.128479 7.882141-9.263733 4.686371-.129242 8.217774 2.725983 8.709839 7.042145.519287 4.554931-1.966705 8.32315-6.231292 9.445129-4.517395 1.188538-8.306885-1.305633-10.360688-7.223541z"/><path d="m162.280106 271.684021c-2.230362 5.679932-5.058396 7.618835-9.734116 6.703339-4.259018-.833954-6.642029-3.651795-6.79393-7.946839-.153748-4.346618 2.207458-7.199859 6.318756-8.396271 5.517471-1.605621 10.054794 2.549561 10.20929 9.639771z"/><path d="m274.778503 278.282776c-6.079284-3.392914-7.692749-8.099976-4.699401-12.694794 2.594024-3.981842 7.82788-5.025513 11.795898-2.345703 3.558105 2.402954 4.28479 6.001251 3.129791 9.665131-1.455688 4.617736-5.164215 6.164581-10.226288 5.375366z"/><path d="m257.648438 254.516113c-4.167954-5.484649-3.744141-10.662643.777404-13.586593 3.998474-2.585709 9.333435-1.506043 11.727539 2.599929 2.0289 3.479615 1.899048 7.082139-.929535 10.08165-3.311096 3.511185-7.210876 3.626541-11.575408.905014z"/></svg>