<svg enable-background="new 0 0 336 592" viewBox="0 0 336 592" xmlns="http://www.w3.org/2000/svg"><path d="m227.833572 109.878044c21.136429 7.113617 33.063919 22.77993 41.20784 41.998619 5.361481 12.652451 8.107178 26.001831 9.207581 39.657807.266113 3.302353 1.61972 4.318924 4.658569 4.291168 7.997834-.073075 16.000275.126465 23.993897-.068024 3.353088-.081573 5.288391 1.063736 6.342865 4.24025 1.204162 3.627548 2.800964 7.124374 4.016388 10.748672 1.482971 4.422196.19284 6.307831-4.467743 6.373322-8.330292.117035-16.663361.031799-24.99527.044739-7.478882.011611-7.487457.019683-7.48761 7.263137-.001251 52.99115.00174 105.982331 0 158.973481-.000061 1.665924.112732 3.35025-.088959 4.993866-.396301 3.229339-2.268615 4.435333-5.235748 2.964843-5.968048-2.957611-11.821228-6.146393-17.773895-9.136108-2.893173-1.453125-2.518875-4.017639-2.519577-6.484772-.007996-27.828705-.000992-55.657379-.000626-83.486084.00029-22.996185-.13121-45.993637.098694-68.987488.048721-4.873138-1.482834-6.386673-6.256927-6.173584-7.650101.341492-15.333832-.105926-22.988968.173584-3.814942.139313-5.883835-1.303131-7.037079-4.768585-1.155136-3.47113-2.595047-6.84703-3.768509-10.312637-1.682907-4.97023-.719544-6.316391 4.674637-6.355896 9.831146-.072037 19.663238-.007126 29.494842-.032654 5.72731-.014862 5.811859-.421585 5.370407-6.005081-.920837-11.646805-2.361999-23.170471-6.501587-34.180237-4.816986-12.81134-13.051742-22.076965-27.081375-24.647354-17.916214-3.28244-34.298538 7.931885-35.44226 27.123413-.43483 7.296661.884475 14.239151 3.597992 20.969086.97052 2.407043 3.103668 5.271347.198318 7.188217-2.869522 1.893265-6.347382 1.507828-9.284119-.826141-13.037323-10.361451-19.322631-30.663575-14.544082-47.041886 4.977325-17.059631 21.672348-29.743622 39.595764-30.846313 7.762329-.477555 15.231506.030128 23.01654 2.34864z"/><path d="m194.736877 292.878265c2.891648-5.135894 6.449814-6.981384 10.533387-5.566284 4.055313 1.405304 6.240036 4.369568 5.944503 8.686829-.297271 4.342651-2.966308 6.89801-7.124862 7.777649-5.843384 1.236023-9.987519-3.447144-9.353028-10.898194z"/><path d="m135.990692 219.901489c4.619843.668366 7.487503 2.9487 8.193665 7.240479.588806 3.578567-.724076 6.574402-3.913102 8.511413-4.142517 2.516175-9.29425 1.205933-11.679092-2.896698-2.485092-4.275085-.86087-9.639846 3.675415-11.866516 1.02446-.502853 2.213287-.670822 3.723114-.988678z"/><path d="m196.270554 261.786316c6.492141.607513 10.205871 4.465027 9.476043 9.369842-.747711 5.025025-5.065841 8.167023-10.075729 7.238404-4.160614-.77121-6.472763-3.614655-6.744949-7.561127-.32721-4.743957 2.328826-7.764313 7.344635-9.047119z"/><path d="m205.821869 320.87854c-2.132065 7.726837-8.936173 10.677216-13.81665 6.262939-2.792908-2.526123-4.137436-5.610626-2.512375-9.413146 1.616958-3.783509 4.483642-5.941376 8.569854-5.518769 4.75885.492218 7.376404 3.474182 7.759171 8.668976z"/><path d="m82.446182 267.780029c.545342 6.004181-1.720688 9.658966-6.211471 10.56128-4.696999.943786-8.705307-1.427033-10.092369-5.969422-1.164421-3.813293.932144-8.127807 4.790321-9.858002 4.509506-2.022277 8.092987-.484039 11.513519 5.266144z"/><path d="m62.152332 290.469696c3.289173-3.684021 6.928723-4.695007 10.944218-2.395142 3.322708 1.903077 4.778358 5.008423 4.120438 8.873841-.668457 3.927337-3.246567 6.074035-6.992478 6.806091-2.992782.5849-5.591347-.404419-7.545471-2.756836-2.649574-3.189575-2.646111-6.637176-.526707-10.527954z"/><path d="m88.131622 334.552032c5.592972.715546 8.799248 3.721894 8.911415 7.981812.101708 3.862854-3.133934 7.824219-7.028122 8.604492-4.203125.842194-8.15924-1.629089-9.630218-6.015747-1.654472-4.933838 1.417419-9.329712 7.746925-10.570557z"/><path d="m88.902328 239.685425c5.321328.6138 7.916245 3.666199 7.992104 8.324508.060364 3.70636-1.943527 6.749741-5.713264 7.911911-4.088166 1.260376-7.56514.096222-9.959687-3.552078-3.501594-5.335098.154198-11.673218 7.680847-12.684341z"/><path d="m116.267288 227.553726c4.002968 5.53598 3.614609 10.249405-.773186 13.251526-4.139625 2.832337-9.439109 1.682098-12.103729-2.678635-2.228332-3.646728-1.537391-7.191635 1.238777-10.030685 3.357605-3.43364 7.358872-3.299637 11.638138-.542206z"/><path d="m179.192261 350.208862c-3.520279-2.600311-5.31012-5.583679-4.023987-9.675934.957474-3.046478 2.865311-5.275756 6.148758-5.865051 3.737335-.670868 7.0793.232971 9.111847 3.608978 1.843765 3.062409 1.862137 6.463013-.308716 9.381806-2.690872 3.617981-6.309372 4.668335-10.927902 2.550201z"/><path d="m102.464783 355.495361c2.015228-5.790741 5.687767-7.958282 10.706627-6.643951 3.760276.98468 6.615059 5.409912 5.954376 9.229889-.783547 4.530334-4.733574 7.580078-9.318634 7.194763-4.505959-.378723-7.279206-3.888947-7.342369-9.780701z"/><path d="m80.955673 325.850525c-3.305687 3.248169-6.75708 4.413574-10.62149 2.059204-3.028603-1.845245-4.961571-4.618683-4.384079-8.308716.583565-3.728851 2.71083-6.394653 6.625595-7.228485 3.419517-.728363 6.296089.333283 8.412895 3.023316 2.563957 3.2583 2.470451 6.720062-.032921 10.454681z"/><path d="m132.94693 370.211121c-4.624466-2.121491-5.935181-5.637116-5.16111-10.008362.667976-3.772125 3.448448-5.623383 6.916649-6.279511 3.682709-.696777 6.477051 1.062958 8.404495 4.110138 1.873917 2.962525 1.74231 6.07663-.21524 8.910706-2.317536 3.355194-5.574997 4.54721-9.944794 3.267029z"/><path d="m179.139648 255.304718c-3.589355-2.568787-5.197799-5.610641-3.936431-9.648865 1.017257-3.256744 3.165252-5.421341 6.64421-5.917938 3.373749-.481522 6.265198.471954 8.229554 3.404236 2.154251 3.215729 2.225067 6.646042.00975 9.739044-2.672012 3.730652-6.408417 4.345795-10.947083 2.423523z"/><path d="m152.709854 357.822815c.009781-5.218231 2.231217-8.332062 7.071381-9.095245 4.293228-.676972 7.68045 1.025146 9.09407 5.152771 1.333298 3.893035.541062 7.570861-3.158523 10.088195-5.02446 3.418885-10.621613.93927-13.006928-6.145721z"/><path d="m152.819214 235.589294c.187775-7.151947 3.254166-10.327819 9.115173-9.916397 4.962128.348313 8.150772 4.534195 7.314484 9.755585-.62616 3.90947-3.144806 6.225876-6.917038 6.75441-4.772339.668701-7.862854-1.731537-9.512619-6.593598z"/></svg>