<svg version="1.1" id="Layer_1" xmlns="http://www.w3.org/2000/svg" xmlns:xlink="http://www.w3.org/1999/xlink" x="0px" y="0px"
	 width="100%" viewBox="0 0 336 592" enable-background="new 0 0 336 592" xml:space="preserve">
<path fill="#000000" opacity="1.000000" stroke="none" 
	d="
M115.781815,405.521423 
	C126.312729,412.647034 137.054626,418.445404 149.437302,420.754944 
	C171.490875,424.868164 191.676605,420.220306 210.288406,408.031128 
	C215.695648,404.489868 215.664536,404.421814 218.488693,410.159241 
	C220.105148,413.443115 221.536270,416.827942 223.319763,420.016937 
	C224.943558,422.920380 224.318771,424.773651 221.708740,426.753479 
	C208.476898,436.790222 193.645401,442.309418 177.072830,443.434174 
	C152.036423,445.133392 130.294983,437.635895 111.608948,420.857574 
	C108.279839,417.868317 107.072975,415.379272 110.278069,411.789612 
	C112.092819,409.757111 112.215965,406.342468 115.781815,405.521423 
z"/>
<path fill="#000000" opacity="1.000000" stroke="none" 
	d="
M108.447983,265.632019 
	C111.870949,260.301361 118.775017,261.144104 121.667236,264.232544 
	C125.082878,267.879913 124.966095,273.286530 121.168739,276.595490 
	C117.626877,279.681824 112.324677,279.253235 109.160713,275.649719 
	C106.512810,272.633911 106.562790,269.380615 108.447983,265.632019 
z"/>
<path fill="#000000" opacity="1.000000" stroke="none" 
	d="
M240.335388,278.380188 
	C234.244339,278.463684 230.451660,275.625427 230.058624,271.021667 
	C229.706619,266.898407 232.802231,262.769806 236.916260,261.875763 
	C241.092346,260.968231 245.298767,263.401672 246.748581,267.563782 
	C248.284119,271.971985 246.012161,276.024811 240.335388,278.380188 
z"/>
<path fill="#000000" opacity="1.000000" stroke="none" 
	d="
M231.718903,243.459412 
	C234.162537,248.128830 233.209732,251.953476 229.471176,254.754517 
	C226.286942,257.140228 222.644760,257.160248 219.342758,254.685349 
	C215.298889,251.654449 214.827759,246.315384 218.128326,242.411621 
	C221.496216,238.428238 226.897263,238.719742 231.718903,243.459412 
z"/>
<path fill="#000000" opacity="1.000000" stroke="none" 
	d="
M117.982712,298.820557 
	C115.411415,303.244232 111.920975,304.967407 107.366035,303.323120 
	C103.579674,301.956268 101.453148,299.063202 101.754318,294.906311 
	C102.068161,290.574585 104.589714,287.889404 108.780655,287.028534 
	C115.018494,285.747192 119.008423,290.707001 117.982712,298.820557 
z"/>
<path fill="#000000" opacity="1.000000" stroke="none" 
	d="
M240.907074,287.559753 
	C246.830551,286.419220 250.836578,288.390930 252.094269,292.740631 
	C253.246185,296.724426 251.353516,301.311890 247.871948,302.974915 
	C243.895920,304.874084 239.309097,303.591827 236.906143,299.909454 
	C234.160599,295.702087 235.517166,291.137482 240.907074,287.559753 
z"/>
<path fill="#000000" opacity="1.000000" stroke="none" 
	d="
M227.303650,350.847168 
	C219.603348,351.630127 214.534149,346.813843 216.280075,340.796509 
	C217.405563,336.917572 219.897385,334.634460 224.144150,334.516846 
	C228.559998,334.394562 231.553024,336.495178 232.686234,340.582764 
	C233.966095,345.199249 231.811996,348.538849 227.303650,350.847168 
z"/>
<path fill="#000000" opacity="1.000000" stroke="none" 
	d="
M181.502472,235.721527 
	C174.942184,237.965256 170.272247,235.987030 168.904678,230.740082 
	C167.663727,225.978943 170.522186,221.311295 175.433075,220.219788 
	C179.535492,219.307999 182.876221,220.934082 184.532394,224.504410 
	C186.410843,228.553925 185.802353,232.591141 181.502472,235.721527 
z"/>
<path fill="#000000" opacity="1.000000" stroke="none" 
	d="
M112.102303,328.321228 
	C107.799896,325.638092 106.070976,322.239502 107.734879,317.610565 
	C109.081627,313.863953 112.101288,312.115295 115.793327,312.124725 
	C119.582169,312.134399 122.231064,314.335754 123.638229,317.948303 
	C124.868462,321.106659 124.025192,323.913361 121.917984,326.216156 
	C119.376289,328.993774 116.163445,329.997650 112.102303,328.321228 
z"/>
<path fill="#000000" opacity="1.000000" stroke="none" 
	d="
M196.226257,362.799286 
	C193.133682,359.138977 193.041702,355.617310 195.415085,352.006958 
	C197.648651,348.609314 201.032883,348.036407 204.616562,348.822540 
	C207.973373,349.558960 210.009491,351.924530 210.631485,355.332703 
	C211.293747,358.961517 209.975281,361.931885 206.948105,363.868317 
	C203.389114,366.144958 199.778717,366.055389 196.226257,362.799286 
z"/>
<path fill="#000000" opacity="1.000000" stroke="none" 
	d="
M196.792236,240.374878 
	C193.347534,236.800034 192.851990,233.161087 195.205597,229.235748 
	C197.315369,225.717087 200.704361,225.168503 204.316177,225.814896 
	C207.958496,226.466751 210.111618,228.891983 210.687317,232.525864 
	C211.223984,235.913330 210.041397,238.765961 207.231934,240.726730 
	C203.896439,243.054611 200.450806,243.003006 196.792236,240.374878 
z"/>
<path fill="#000000" opacity="1.000000" stroke="none" 
	d="
M236.575638,328.850830 
	C231.950180,326.921387 229.453949,324.038177 230.351196,319.120636 
	C231.148651,314.750122 234.065323,312.461243 238.236374,312.188049 
	C242.515427,311.907745 245.438339,314.237946 246.790359,318.310150 
	C248.684830,324.016083 244.104202,328.947937 236.575638,328.850830 
z"/>
<path fill="#000000" opacity="1.000000" stroke="none" 
	d="
M137.495941,346.107697 
	C135.178619,350.633209 131.611298,352.022400 127.298485,350.943237 
	C123.746880,350.054626 121.717529,347.334015 121.390976,343.689148 
	C121.090759,340.338226 122.102036,337.361267 125.271454,335.657684 
	C128.428925,333.960510 131.801254,333.800873 134.684555,336.010345 
	C137.833557,338.423462 139.171738,341.731384 137.495941,346.107697 
z"/>
<path fill="#000000" opacity="1.000000" stroke="none" 
	d="
M132.368958,256.004120 
	C127.761581,256.953644 124.364578,255.761902 122.239944,251.909760 
	C120.547531,248.841248 121.030701,245.776962 122.939079,242.973724 
	C124.947884,240.022980 127.961739,239.292908 131.295761,239.755249 
	C135.054443,240.276489 137.323135,242.780792 138.019272,246.235092 
	C138.913223,250.671066 136.923477,253.971756 132.368958,256.004120 
z"/>
<path fill="#000000" opacity="1.000000" stroke="none" 
	d="
M171.977814,369.050568 
	C168.241211,365.438385 167.550781,361.557922 170.192215,357.545929 
	C172.287079,354.364044 175.488678,353.039825 179.318787,354.127472 
	C184.405060,355.571808 186.844894,360.730225 184.869461,365.658661 
	C182.994415,370.336670 177.937408,371.797699 171.977814,369.050568 
z"/>
<path fill="#000000" opacity="1.000000" stroke="none" 
	d="
M160.030212,236.439606 
	C157.933792,241.257721 154.390991,243.100708 149.813568,242.090698 
	C146.095947,241.270386 143.892776,238.602417 143.656021,234.611588 
	C143.355820,229.551056 146.149414,226.096527 150.885956,225.674210 
	C156.189362,225.201324 159.942734,228.324509 160.305069,233.561417 
	C160.361740,234.380646 160.205017,235.214630 160.030212,236.439606 
z"/>
<path fill="#000000" opacity="1.000000" stroke="none" 
	d="
M144.121841,360.247070 
	C143.305710,353.100342 145.257736,349.522156 150.107986,348.758942 
	C154.565582,348.057587 158.149719,349.536835 159.782013,353.849152 
	C161.287720,357.827087 160.071198,361.410156 156.586182,363.946503 
	C153.329742,366.316467 148.797989,365.700317 145.763092,362.623596 
	C145.188629,362.041229 144.777756,361.297485 144.121841,360.247070 
z"/>
</svg>