<svg enable-background="new 0 0 336 592" viewBox="0 0 336 592" xmlns="http://www.w3.org/2000/svg"><path d="m115.781815 405.521423c10.530914 7.125611 21.272811 12.923981 33.655487 15.233521 22.053573 4.11322 42.239303-.534638 60.851104-12.723816 5.407242-3.54126 5.37613-3.609314 8.200287 2.128113 1.616455 3.283874 3.047577 6.668701 4.83107 9.857696 1.623795 2.903443.999008 4.756714-1.611023 6.736542-13.231842 10.036743-28.063339 15.555939-44.63591 16.680695-25.036407 1.699218-46.777847-5.798279-65.463882-22.5766-3.329109-2.989257-4.535973-5.478302-1.330879-9.067962 1.81475-2.032501 1.937896-5.447144 5.503746-6.268189z"/><path d="m108.447983 265.632019c3.422966-5.330658 10.327034-4.487915 13.219253-1.399475 3.415642 3.647369 3.298859 9.053986-.498497 12.362946-3.541862 3.086334-8.844062 2.657745-12.008026-.945771-2.647903-3.015808-2.597923-6.269104-.71273-10.0177z"/><path d="m240.335388 278.380188c-6.091049.083496-9.883728-2.754761-10.276764-7.358521-.352005-4.12326 2.743607-8.251861 6.857636-9.145904 4.176086-.907532 8.382507 1.525909 9.832321 5.688019 1.535538 4.408203-.73642 8.461029-6.413193 10.816406z"/><path d="m231.718903 243.459412c2.443634 4.669418 1.490829 8.494064-2.247727 11.295105-3.184234 2.385711-6.826416 2.405731-10.128418-.069168-4.043869-3.0309-4.514999-8.369965-1.214432-12.273728 3.36789-3.983383 8.768937-3.691879 13.590577 1.047791z"/><path d="m117.982712 298.820557c-2.571297 4.423675-6.061737 6.14685-10.616677 4.502563-3.786361-1.366852-5.912887-4.259918-5.611717-8.416809.313843-4.331726 2.835396-7.016907 7.026337-7.877777 6.237839-1.281342 10.227768 3.678467 9.202057 11.792023z"/><path d="m240.907074 287.559753c5.923477-1.140533 9.929504.831177 11.187195 5.180878 1.151916 3.983795-.740753 8.571259-4.222321 10.234284-3.976028 1.899169-8.562851.616912-10.965805-3.065461-2.745544-4.207367-1.388977-8.771972 4.000931-12.349701z"/><path d="m227.30365 350.847168c-7.700302.782959-12.769501-4.033325-11.023575-10.050659 1.125488-3.878937 3.61731-6.162049 7.864075-6.279663 4.415848-.122284 7.408874 1.978332 8.542084 6.065918 1.279861 4.616485-.874238 7.956085-5.382584 10.264404z"/><path d="m181.502472 235.721527c-6.560288 2.243729-11.230225.265503-12.597794-4.981445-1.240951-4.761139 1.617508-9.428787 6.528397-10.520294 4.102417-.911789 7.443146.714294 9.099319 4.284622 1.878449 4.049515 1.269959 8.086731-3.029922 11.217117z"/><path d="m112.102303 328.321228c-4.302407-2.683136-6.031327-6.081726-4.367424-10.710663 1.346748-3.746612 4.366409-5.49527 8.058448-5.48584 3.788842.009674 6.437737 2.211029 7.844902 5.823578 1.230233 3.158356.386963 5.965058-1.720245 8.267853-2.541695 2.777618-5.754539 3.781494-9.815681 2.105072z"/><path d="m196.226257 362.799286c-3.092575-3.660309-3.184555-7.181976-.811172-10.792328 2.233566-3.397644 5.617798-3.970551 9.201477-3.184418 3.356811.73642 5.392929 3.10199 6.014923 6.510163.662262 3.628814-.656204 6.599182-3.68338 8.535614-3.558991 2.276641-7.169388 2.187072-10.721848-1.069031z"/><path d="m196.792236 240.374878c-3.444702-3.574844-3.940246-7.213791-1.586639-11.13913 2.109772-3.518661 5.498764-4.067245 9.11058-3.420852 3.642319.651855 5.795441 3.077087 6.37114 6.710968.536667 3.387466-.64592 6.240097-3.455383 8.200866-3.335495 2.327881-6.781128 2.276276-10.439698-.351852z"/><path d="m236.575638 328.85083c-4.625458-1.929443-7.121689-4.812653-6.224442-9.730194.797455-4.370514 3.714127-6.659393 7.885178-6.932587 4.279053-.280304 7.201965 2.049897 8.553985 6.122101 1.894471 5.705933-2.686157 10.637787-10.214721 10.54068z"/><path d="m137.495941 346.107697c-2.317322 4.525512-5.884643 5.914703-10.197456 4.83554-3.551605-.888611-5.580956-3.609222-5.907509-7.254089-.300217-3.350922.71106-6.327881 3.880478-8.031464 3.157471-1.697174 6.5298-1.856811 9.413101.352661 3.149002 2.413117 4.487183 5.721039 2.811386 10.097352z"/><path d="m132.368958 256.00412c-4.607377.949524-8.00438-.242218-10.129014-4.09436-1.692413-3.068512-1.209243-6.132798.699135-8.936036 2.008805-2.950744 5.02266-3.680816 8.356682-3.218475 3.758682.52124 6.027374 3.025543 6.723511 6.479843.893951 4.435974-1.095795 7.736664-5.650314 9.769028z"/><path d="m171.977814 369.050568c-3.736603-3.612183-4.427033-7.492646-1.785599-11.504639 2.094864-3.181885 5.296463-4.506104 9.126572-3.418457 5.086273 1.444336 7.526107 6.602753 5.550674 11.531189-1.875046 4.678009-6.932053 6.139038-12.891647 3.391907z"/><path d="m160.030212 236.439606c-2.09642 4.818115-5.639221 6.661102-10.216644 5.651092-3.717621-.820312-5.920792-3.488281-6.157547-7.47911-.300201-5.060532 2.493393-8.515061 7.229935-8.937378 5.303406-.472886 9.056778 2.650299 9.419113 7.887207.056671.819229-.100052 1.653213-.274857 2.878189z"/><path d="m144.121841 360.24707c-.816131-7.146728 1.135895-10.724914 5.986145-11.488128 4.457596-.701355 8.041733.777893 9.674027 5.09021 1.505707 3.977935.289185 7.561004-3.195831 10.097351-3.25644 2.369964-7.788193 1.753814-10.82309-1.322907-.574463-.582367-.985336-1.326111-1.641251-2.376526z"/></svg>