<svg enable-background="new 0 0 336 592" viewBox="0 0 336 592" xmlns="http://www.w3.org/2000/svg"><path d="m114.906189 452.092773c-1.975472-2.169525-5.462929-3.358215-4.84539-6.294036.780349-3.70987 3.407196-6.802857 5.8143-9.749726 1.272095-1.557342 2.720284-.167663 3.908203.71814 11.991539 8.941498 25.355416 14.378509 40.247689 16.198761 21.128936 2.582519 40.755767-1.427643 58.483459-13.328827 3.748901-2.516785 5.772064-2.511597 7.485535 1.756622.740234 1.843933 1.807495 3.559296 2.760055 5.314728 3.842118 7.080536 3.829392 7.143005-3.145614 11.628388-34.410797 22.128448-78.210587 19.743804-110.708237-6.24405z"/><path d="m185.271423 436.56366c-24.501327 3.504303-46.31134-1.399231-65.351257-17.149933-3.541161-2.929413-4.32019-5.460083-1.448715-9.11612 1.513557-1.927063 2.021759-4.576873 4.110092-6.046203 1.552422-.147217 2.639534.683563 3.764336 1.372467 27.516227 16.852539 55.156761 15.670349 82.870048.539673 5.555634-3.033203 5.519226-3.102112 8.374344 2.511261.377228.741699.753403 1.484466 1.106293 2.237854 5.504226 11.751251 6.989258 8.746185-4.874344 15.767944-8.618164 5.100861-18.155152 8.223358-28.550797 9.883057z"/><path d="m108.059982 266.323425c2.805664-4.388275 6.47419-5.726196 10.879662-3.857269 3.685036 1.563293 5.752281 4.600464 5.093567 8.71875-.665131 4.158356-3.154946 6.88974-7.535424 7.393738-6.408119.737274-10.4561-4.89621-8.437805-12.255219z"/><path d="m240.54213 261.904205c4.579772 1.656372 7.103134 4.577729 6.529663 9.128846-.488465 3.876312-2.669892 6.677917-6.901596 7.381408-4.108429.682984-7.094849-.841369-9.158387-4.358246-3.011398-5.132293 1.566834-13.555328 9.53032-12.152008z"/><path d="m169.09137 231.312347c-.911866-4.338943-.021759-7.722137 3.500961-9.987075 3.860825-2.4823 8.938904-1.393998 11.515701 2.320953 2.285843 3.295502 1.526474 8.829346-1.561111 11.376404-3.684738 3.039673-8.361496 2.72876-11.652573-.842774-.666305-.723083-1.111465-1.649917-1.802978-2.867508z"/><path d="m224.867859 239.67955c5.087219.498749 7.83287 3.284561 8.144302 7.745041.274948 3.938263-1.675873 7.195236-5.673507 8.472656-4.072556 1.301361-7.601944.240784-10.047364-3.438766-3.563812-5.362366.099518-11.866135 7.576569-12.778931z"/><path d="m101.717743 295.082458c1.635887-5.959198 4.813385-8.743347 9.238357-8.136749 3.930489.538788 6.780373 2.558869 7.416222 6.79184.798035 5.312744-1.998474 9.262512-7.076874 10.092804-4.769867.779815-8.502128-2.465607-9.577705-8.747895z"/><path d="m249.227432 288.66748c4.241669 5.200684 3.96431 10.768921-.356781 13.723603-3.889282 2.659393-9.281189 1.673767-11.849228-2.364807-2.194351-3.450928-2.100082-7.092774.639267-10.14737 3.195526-3.563202 7.112503-3.959228 11.566742-1.211426z"/><path d="m230.610886 348.62796c-3.578217 3.058411-7.226822 3.752777-10.791748 1.157959-2.976029-2.166199-4.667695-5.227997-3.469208-9.137695.999649-3.261109 2.973251-5.532501 6.560303-6.009308 3.583633-.476379 6.585937.439392 8.700164 3.563934 2.419922 3.576386 1.646271 6.911072-.999511 10.42511z"/><path d="m123.31797 323.962585c-2.594673 4.442811-6.081428 6.189606-10.680908 4.513459-3.643303-1.327729-5.674889-4.225952-5.480301-8.096619.214981-4.276306 2.61747-7.102203 6.906525-8.066437 6.271538-1.409942 10.998756 4.284821 9.254684 11.649597z"/><path d="m206.783798 349.745422c3.869919 2.829224 4.948487 6.293213 3.312714 10.310425-1.361679 3.344086-4.028015 5.160492-7.765396 5.246826-3.818665.088166-6.242951-1.926757-7.824707-5.144256-1.594986-3.244385-.706452-6.285004 1.466018-8.80661 2.885636-3.349427 6.590943-3.402039 10.811371-1.606385z"/><path d="m128.294861 351.194916c-5.218521-1.568238-7.4338-4.794373-6.734207-9.849274.588249-4.250275 3.237671-6.329681 7.36644-6.753845 4.458358-.458038 7.345382 1.66159 8.855102 5.681244 2.067749 5.505432-2.025894 10.382812-9.487335 10.921875z"/><path d="m231.238876 316.487976c2.856217-4.060547 6.412705-5.341309 10.652741-3.615539 3.572616 1.454132 5.534347 4.450134 5.204086 8.287811-.345337 4.01297-2.781387 6.694275-6.772629 7.714508-6.57814 1.681457-11.319275-4.494629-9.084198-12.38678z"/><path d="m201.245483 242.273071c-5.55838-1.955673-8.126999-5.243042-7.379242-9.369217.703202-3.880325 2.717728-6.721542 7.013184-7.214019 5.316666-.609559 9.421738 2.423538 9.933334 7.32463.532471 5.101075-3.059692 8.744538-9.567276 9.258606z"/><path d="m178.607742 353.920105c4.398743 1.445007 6.8499 3.881866 6.76532 8.45871-.06575 3.55896-1.573929 6.105011-4.728668 7.512787-3.271713 1.45996-6.488312 1.292694-9.214356-1.359131-2.629089-2.557495-3.505828-5.674103-2.207229-9.105286 1.533539-4.05191 4.683548-5.834412 9.384933-5.50708z"/><path d="m125.94651 255.587662c-4.129249-2.712281-5.627617-6.123703-4.097107-10.49878 1.22123-3.490997 3.802689-5.279266 7.55407-5.434005 4.00766-.165329 6.634872 1.743087 8.214554 5.264206 1.378586 3.072876.615921 5.950058-1.373261 8.396804-2.621216 3.224244-6.128708 3.652955-10.298256 2.271775z"/><path d="m158.424011 362.259827c-6.557358 5.128875-13.860031 3.00534-14.711349-3.920807-.461182-3.752259.497696-7.077973 4.144287-8.779755 3.546341-1.65506 7.14238-1.55661 10.066894 1.4758 3.252793 3.372802 3.084809 7.088195.500168 11.224762z"/><path d="m148.67807 226.090027c7.137741-.755432 11.001953 1.580261 11.61171 6.624451.515716 4.266387-1.863633 8.025604-5.870362 9.274826-4.014541 1.251632-8.236328-.553788-10.085769-4.313111-1.996048-4.057342-.537567-8.272415 4.344421-11.586166z"/></svg>