<svg enable-background="new 0 0 336 592" viewBox="0 0 336 592" xmlns="http://www.w3.org/2000/svg"><path d="m110.171593 108.240585c2.761223.787743 2.528145 3.128548 3.042305 4.923889 4.390197 15.329636 13.732345 22.10077 29.752517 21.768738 10.162201-.210663 20.135987-2.382126 30.337342-2.355728 14.402771.037293 25.398636 6.003128 33.116028 17.950424 9.464935 14.65271 13.503387 31.317032 17.721374 48.431992-4.673172 1.636032-9.110931 1.138489-13.485992.651138-2.270234-.252884-2.351303-2.535553-2.908142-4.220245-1.774781-5.369415-3.199997-10.877075-5.313935-16.107575-7.318634-18.10849-19.020218-24.368072-38.328003-21.514938-11.675461 1.725281-23.417999 3.121368-35.146881-.380829-14.07209-4.201858-23.004257-15.451706-23.313362-30.103836-.140015-6.637054-.459061-13.360947 4.526749-19.04303z"/><path d="m241.08255 278.258514c-5.090088 1.01883-8.601883-.661132-10.405106-5.086517-1.563095-3.83609-.254165-7.2276 2.914078-9.675964 3.240402-2.504059 6.794419-2.4758 10.120514-.074372 5.5121 3.979706 4.426911 10.862763-2.629486 14.836853z"/><path d="m119.530182 277.711761c-7.819763 1.926972-13.542641-2.38449-12.264122-8.853149.78685-3.981018 3.153793-6.575195 7.265549-7.064331 4.062614-.483246 7.188858 1.299805 8.825164 5.00592 1.972481 4.46753.317215 8.008515-3.826591 10.91156z"/><path d="m113.805557 303.099121c-5.906151 1.463928-10.094337-.413055-11.707329-4.93988-1.336807-3.75174.457116-8.272736 4.048829-10.203797 3.913292-2.103943 8.459487-1.042205 11.0242 2.574646 2.747002 3.873902 1.553947 8.812287-3.3657 12.569031z"/><path d="m170.260345 223.52832c3.319993-3.671646 6.960282-4.564178 11.026001-2.416275 3.556397 1.87883 4.540497 5.139649 3.983246 8.920273-.588516 3.992691-3.230224 6.032852-6.963608 6.837982-3.077102.663605-5.557952-.498291-7.52333-2.825317-2.699906-3.196716-2.729538-6.630539-.522309-10.516663z"/><path d="m242.487961 303.725067c-4.036713-1.241028-6.420639-3.496338-6.786652-7.488251-.296875-3.237884.727066-5.928344 3.483231-7.774078 3.057022-2.04715 6.26506-2.189636 9.392883-.230438 3.176224 1.989502 4.249451 5.044128 3.655457 8.633362-.562745 3.400238-2.435837 5.793792-5.946366 6.567962-1.116775.246247-2.282379.271027-3.798553.291443z"/><path d="m218.112579 337.202271c3.83786-3.476136 7.834854-3.705964 11.565262-.998292 3.191849 2.316773 4.401917 5.677277 2.675736 9.657136-1.741577 4.015411-4.792969 5.83551-9.064225 5.346435-6.248352-.715515-8.77362-7.219177-5.176773-14.005279z"/><path d="m224.09079 256.336487c-5.666046-1.358734-8.657959-4.645996-8.056-8.800858.59758-4.124603 2.69368-7.164154 7.162094-7.796585 4.524307-.64035 8.378357 1.874802 9.588074 6.118469 1.457962 5.114472-1.944809 9.426453-8.694168 10.478974z"/><path d="m122.94519 316.414795c2.027329 5.785004.537423 9.958221-3.948761 11.949524-3.994812 1.773193-8.444702.317413-10.738227-3.513062-2.185379-3.649872-1.141434-8.58081 2.340889-11.056762 4.151008-2.951386 7.916687-2.24588 12.346099 2.6203z"/><path d="m243.384857 327.575623c-5.339798 2.263855-9.084396 1.482727-11.707687-2.158936-2.491425-3.458649-2.044922-7.013519.38446-10.088135 2.636322-3.336517 6.340592-4.098694 10.264817-2.343139 5.679885 2.540985 6.245498 8.911041 1.05841 14.59021z"/><path d="m128.474884 334.585083c5.990189.261688 9.465363 2.895935 9.715378 7.430298.233414 4.232666-1.688675 7.354523-5.79802 8.807892-4.024566 1.423401-8.085754-.232422-10.144989-3.9917-2.665527-4.866119-.170227-10.066131 6.227631-12.24649z"/><path d="m194.124939 354.631378c1.876343-4.955383 5.301407-6.679016 9.964752-5.902435 3.649063.607666 5.842179 2.972442 6.524063 6.572815.726334 3.8349-.787994 6.825317-4.029983 8.841705-2.730454 1.698212-5.758942 1.83728-8.472733.157013-3.361587-2.081329-4.984604-5.20227-3.986099-9.669098z"/><path d="m198.875244 241.661148c-3.951828-2.431518-5.941284-5.481964-4.768265-9.819626.884995-3.272568 2.878418-5.59732 6.47342-6.123611 5.466568-.800263 9.963455 2.534988 10.273117 7.628891.305374 5.023453-3.772995 9.020538-9.173066 8.932937-.817382-.01326-1.630722-.27716-2.805206-.618591z"/><path d="m171.408783 368.540161c-3.336792-3.728149-3.678436-7.501617-1.050476-11.221985 2.07988-2.944427 5.165649-4.256225 8.765106-3.228332 3.214172.917816 5.694443 2.82727 6.142868 6.446502.433762 3.500855-.174637 6.697113-3.431732 8.74054-3.453919 2.166931-6.878952 2.221954-10.425766-.736725z"/><path d="m122.123344 244.331039c3.660111-4.732482 7.918358-6.060653 11.764611-3.659057 3.586868 2.239685 5.238983 5.503799 3.893219 9.780899-1.338272 4.25328-5.296112 6.558411-9.768051 5.800598-4.946755-.838303-7.30037-5.33284-5.889779-11.92244z"/><path d="m147.985809 241.440704c-4.036117-2.616287-5.077041-6.130157-4.056991-10.174545.795334-3.153366 3.08435-5.048065 6.354309-5.5271 3.561279-.521698 6.593414.412262 8.665878 3.547898 2.051361 3.103683 2.026596 6.36792-.051926 9.319458-2.609191 3.7052-6.294693 4.582413-10.91127 2.834289z"/><path d="m160.158432 358.573608c-1.680298 5.192994-5.019623 7.436036-9.993896 6.576752-3.594513-.620972-5.85962-3.01535-6.438935-6.678223-.846924-5.354949 2.233917-9.410186 7.296295-9.794036 5.873673-.445343 9.079926 2.860107 9.136536 9.895507z"/></svg>