<svg enable-background="new 0 0 336 592" viewBox="0 0 336 592" xmlns="http://www.w3.org/2000/svg"><path d="m106.662003 115.901894c.877952-4.490342.996376-8.885064 4.409217-11.865372 2.853539 1.283203 2.486016 3.660042 3.004906 5.425491 4.984467 16.958908 16.985138 24.130013 34.299774 20.755867 12.109864-2.359886 23.673767-6.651558 35.634125-9.499962 9.765274-2.325653 19.584534-3.692459 29.578735-1.380973 25.608155 5.922744 33.483048 31.210479 24.760804 53.188003-.306534.772354-.696717 1.51149-1.04805 2.266068-4.681809 10.054901-9.59993 12.093643-20.717469 8.507034-.303268-2.703323 1.645234-4.585861 2.690506-6.754273 1.819367-3.774276 3.261475-7.664962 4.09169-11.747711 2.240921-11.020065-3.578399-20.749969-14.018981-23.633789-12.001511-3.314987-23.080185 1.427506-26.401841 11.568543-2.828155 8.634353-.450958 16.702667 3.330704 24.527343.916016 1.89531 2.61293 3.482514 2.500427 5.809998-8.938705 3.69722-15.425293 1.567719-19.981613-6.507355-4.771713-8.456833-5.747986-15.676162-3.579269-27.249969-2.442139-.380692-4.504166.911819-6.631851 1.501526-9.268418 2.568786-18.619019 3.753341-28.084229 1.47554-16.161743-3.889328-25.503311-18.096329-23.837585-36.386009z"/><path d="m238.068146 278.557312c-5.685257-1.353271-8.582321-4.933166-7.887314-9.302155.729782-4.587432 4.568191-7.79074 9.009766-7.519073 4.21083.257568 7.857559 3.920746 8.017288 8.053467.181854 4.705322-3.029358 7.923889-9.13974 8.767761z"/><path d="m113.488388 261.947021c6.197891-.132568 9.94632 2.478333 10.624771 7.022492.576615 3.86206-2.107971 8.094788-5.888016 9.283569-4.293663 1.350281-8.874511-.856506-10.527847-5.071655-1.739212-4.434082.166237-8.363953 5.791092-11.234406z"/><path d="m185.313965 227.211517c-.347717 6.644104-3.850189 10.274475-9.060196 9.831589-4.671265-.397095-8.320084-5.242081-7.430115-10.011536.812348-4.35353 3.730408-6.797546 7.940109-6.966491 4.444703-.17836 7.573945 2.090454 8.550202 7.146438z"/><path d="m110.803734 286.89325c5.272682 1.082885 7.935959 3.906982 7.67939 9.077178-.208374 4.199067-2.450142 6.690735-6.472328 7.673249-4.151467 1.014007-7.063981-.847901-9.222413-4.15329-3.141738-4.811218.564469-12.857605 8.015351-12.597137z"/><path d="m235.689972 295.874115c.734314-5.934113 3.793793-9.057922 8.418869-9.020966 4.350281.034729 7.950317 3.441559 8.209839 7.769226.295273 4.923249-2.463852 8.414032-7.222336 9.137574-4.514694.686462-7.900635-2.00528-9.406372-7.885834z"/><path d="m227.307922 350.855743c-7.717697.761689-12.766342-4.040954-11.021164-10.059448 1.12558-3.881714 3.617341-6.164429 7.864487-6.280609 4.415436-.12088 7.410477 1.975739 8.53949 6.070343 1.272842 4.61618-.870102 7.961639-5.382813 10.269714z"/><path d="m115.164276 329.165466c-4.596367-.809723-7.371918-3.251983-7.964355-7.470672-.462273-3.291748.777877-6.198487 3.72718-8.094269 2.884689-1.854187 5.933792-2.159821 8.885613-.321838 3.019401 1.880065 4.821182 4.700836 4.248588 8.329162-.739555 4.686249-3.790626 7.149994-8.897026 7.557617z"/><path d="m132.321304 350.863892c-4.423584 1.043151-7.638641-.145722-9.839592-3.691895-1.855842-2.990143-1.616569-6.116577.133019-8.976715 1.951416-3.190094 5.106369-4.059876 8.689667-3.592285 3.85028.502411 5.996627 3.116089 6.699646 6.517792.916 4.43222-1.079514 7.753692-5.68274 9.743103z"/><path d="m228.089417 255.604355c-7.864716 1.511612-13.306199-2.740219-11.873078-8.904724.899094-3.867325 3.085358-6.647843 7.366837-6.985001 4.30719-.339172 7.534942 1.416626 8.936844 5.585678 1.476318 4.390305-.213196 7.746124-4.430603 10.304047z"/><path d="m206.788391 349.737549c3.809998 2.812469 4.952713 6.221649 3.349045 10.239288-1.415161 3.54538-4.182068 5.341187-8.10994 5.357392-3.848953.015869-6.126693-2.129273-7.616302-5.322846-1.508026-3.233063-.5793-6.255218 1.607406-8.734558 2.898789-3.286743 6.582734-3.31308 10.769791-1.539276z"/><path d="m209.064972 238.965439c-3.573227 3.758667-7.423645 4.593246-11.454636 1.867691-3.117553-2.107956-4.624603-5.204453-3.486938-9.113098 1.490509-5.120972 6.474472-7.52771 11.520935-5.581009 4.827682 1.862274 6.179443 6.485473 3.420639 12.826416z"/><path d="m230.898956 317.187592c2.571137-4.459382 6.109879-6.00293 10.627915-4.454957 3.650894 1.250855 5.688583 4.184998 5.592621 7.947175-.107285 4.205444-2.550629 7.062744-6.700242 8.181823-6.306167 1.700592-11.215332-4.073333-9.520294-11.674041z"/><path d="m173.280182 369.949646c-4.757996-4.21936-5.835861-8.02832-3.401535-11.927368 2.150833-3.445007 5.331528-4.985413 9.384506-3.897125 4.735764 1.271576 7.102326 5.616333 5.913208 10.539856-1.12587 4.661743-5.71286 6.832031-11.896179 5.284637z"/><path d="m129.096924 239.683655c5.311951.020126 8.328613 2.657623 9.004822 7.275635.615036 4.200225-1.464859 7.522522-5.571839 8.909301-4.022369 1.358216-7.532394.276306-9.941711-3.441818-3.268952-5.044723-.498963-10.807877 6.508728-12.743118z"/><path d="m155.13681 241.663132c-4.504623 1.404892-7.953155.44458-10.296096-3.282349-1.822419-2.898941-1.754593-6.019134-.086976-8.957947 1.877747-3.309143 5.023072-4.142944 8.555649-3.702636 3.728836.464752 6.088776 2.833526 6.820358 6.311813.868393 4.128754-.611373 7.50853-4.992935 9.631119z"/><path d="m157.361145 350.445923c4.121918 5.364319 3.641983 10.671234-.90152 13.617096-3.936828 2.55249-9.35202 1.394256-11.697922-2.753235-1.972824-3.487885-1.849243-7.17514.964081-10.128601 3.325074-3.490692 7.311615-3.347931 11.635361-.73526z"/></svg>