<svg enable-background="new 0 0 336 592" viewBox="0 0 336 592" xmlns="http://www.w3.org/2000/svg"><path d="m220.069611 427.972504c5.600998 8.706054 10.879776 17.197967 16.454406 25.490966 2.365662 3.519257 1.806061 5.721863-1.880172 7.475037-1.047013.497955-2.057465 1.123383-2.97583 1.831513-2.584671 1.993103-4.277314 1.3638-6.044922-1.320984-3.844376-5.839203-8.076813-11.421296-12.001236-17.209717-13.112564-19.34079-32.058853-24.204773-53.852417-21.447632-4.564347.577454-6.847138-.154022-7.654709-4.935455-.856507-5.071228-2.304367-10.042389-3.489212-15.05835-.531235-2.24884-.335633-3.838043 2.600311-4.12503 10.301605-1.006958 20.581619-1.567841 30.867279.144592 12.894821 2.146881 22.554886 9.398804 30.508637 19.316467 2.500625 3.118103 4.847885 6.359192 7.467865 9.838593z"/></svg>