<svg enable-background="new 0 0 336 592" viewBox="0 0 336 592" xmlns="http://www.w3.org/2000/svg"><path d="m202.682129 425.266785c-3.259277-5.263703-6.256531-10.266999-9.435379-15.15213-1.672012-2.56952-1.664887-4.226777 1.215393-6.066834 7.664307-4.89624 7.594925-5.032928 12.903732 2.523651 6.22641 8.862732 12.321366 17.832001 20.652497 24.950257 7.618728 6.509613 16.403549 10.064575 26.457779 10.178009 6.327468.071441 12.659378-.006897 18.985153-.17508 2.056305-.054657 3.516052.095856 4.040893 2.517395 1.470093 6.782685 3.095307 13.531769 4.660858 20.300812-28.133819 5.588043-49.690307 1.110413-65.981048-20.038025-4.670654-6.063446-8.888031-12.476074-13.499878-19.038055z"/><path d="m117.399216 278.433563c-5.428139.626068-8.879555-1.646576-10.065972-6.422973-1.018181-4.099152.736954-7.499207 4.609444-9.463135 3.690697-1.871765 8.121597-.65799 10.615684 2.743561 3.406945 4.646545 1.380509 10.18103-5.159156 13.142547z"/><path d="m230.036057 270.867188c.199584-2.756653.881317-4.95044 2.599533-6.672699 3.468948-3.477051 9.175872-3.270691 12.41249.410614 3.130341 3.560424 2.751923 8.850341-.859237 12.010772-3.589646 3.141602-9.468003 2.569763-12.305359-1.340149-.845734-1.165435-1.225906-2.66867-1.847427-4.408538z"/><path d="m220.13501 240.699677c8.048019-2.286896 14.214905 2.036224 12.787002 8.579025-.851303 3.900833-3.135437 6.502624-7.312759 7.016189-4.118851.506409-7.204392-1.189712-8.873123-4.870803-1.910355-4.214051-.311508-7.685822 3.39888-10.724411z"/><path d="m110.803062 303.940796c-4.6557-.197815-7.635665-2.337616-8.835266-6.40448-.966697-3.277222.080048-6.322388 2.662735-8.53302 2.73275-2.339111 5.938843-2.863556 9.27137-1.243988 3.560112 1.730194 4.885201 4.694153 4.564186 8.556885-.376129 4.52594-3.154136 6.673889-7.663025 7.624603z"/><path d="m244.001801 286.840454c5.022781.749909 8.122604 3.036682 8.306335 8.080933.149109 4.092804-1.519913 7.066314-5.571106 8.429901-4.024933 1.354706-7.25621.059692-9.646713-3.208557-3.84346-5.254669-.874436-11.211335 6.911484-13.302277z"/><path d="m219.854095 335.721222c3.92273-1.76535 7.426316-1.86911 10.436539.978668 2.121872 2.007385 3.408844 4.487427 2.588257 7.56601-1.025848 3.848755-3.295609 6.467895-7.427353 6.956726-3.919266.463714-6.73526-1.340393-8.475891-4.743866-2.140884-4.186127-.807724-7.643219 2.878448-10.757538z"/><path d="m185.347351 228.043243c-.724991 6.053452-4.011902 9.279541-8.800705 9.067521-4.05365-.179474-7.67363-3.953736-7.840485-8.174622-.183975-4.654099 2.877396-8.288223 7.516419-8.922562 4.495316-.614669 8.027664 2.334519 9.124771 8.029663z"/><path d="m108.208237 316.473022c2.864982-3.923065 6.297348-5.411651 10.5839-3.661865 3.562622 1.454315 5.507324 4.373291 5.317413 8.177033-.200828 4.022674-2.527885 6.737152-6.474266 7.854492-3.184623.901611-5.877494-.110901-8.115509-2.408722-2.758636-2.832428-3.025467-6.099091-1.311538-9.960938z"/><path d="m193.752563 233.997772c1.722168-7.107651 5.691681-9.779281 11.376282-8.060135 4.575073 1.383606 7.030884 6.708145 4.981354 11.252274-1.665314 3.692291-4.676529 5.52243-8.7836 5.083816-4.666-.498275-6.826248-3.537139-7.574036-8.275955z"/><path d="m245.048141 315.086914c2.833085 5.25943 2.47052 9.006744-.87854 11.879486-3.234512 2.774475-7.636642 2.844208-10.896423.172547-3.710037-3.04065-4.230728-8.235566-1.198318-11.954712 3.026184-3.711548 7.91008-3.866852 12.973281-.097321z"/><path d="m130.680328 334.584717c5.610352 1.577209 8.31604 5.319031 7.406754 9.751465-.92128 4.490905-4.98729 7.419342-9.568222 6.891266-4.020882-.463501-7.188301-4.104737-7.200203-8.277283-.014732-5.165985 2.886177-7.875305 9.361671-8.365448z"/><path d="m196.826691 363.360291c-3.460648-3.596863-3.998307-7.21167-1.514206-11.159302 2.05571-3.266815 5.199127-4.006104 8.700195-3.438721 3.669373.594727 5.900574 2.90625 6.601944 6.552551.65976 3.430024-.539825 6.263642-3.305801 8.297303-3.330033 2.448394-6.788742 2.321045-10.482132-.251831z"/><path d="m137.242676 244.122772c1.658233 5.715409.086899 9.78505-4.15506 11.580704-4.263962 1.804977-8.958527.079437-11.015381-4.048843-1.768013-3.548539-.477959-8.409958 2.826218-10.650315 3.830993-2.597519 8.447281-1.55394 12.344223 3.118454z"/><path d="m169.924225 366.67981c-1.992996-3.841889-1.578201-7.181061.973022-10.047242 2.103638-2.363372 4.922394-3.524414 8.097992-2.580719 3.58664 1.065857 6.109329 3.196839 6.3526 7.336792.228623 3.890869-1.069381 6.927613-4.705581 8.50998-4.170822 1.814972-7.782883.919281-10.718033-3.218811z"/><path d="m152.806671 225.667633c4.971008.872009 7.395966 3.613129 7.493027 8.240036.08873 4.229706-2.210465 6.952896-6.083969 8.089386-3.915695 1.14885-7.22699-.111923-9.459534-3.646164-3.699692-5.856811.036514-12.05098 8.050476-12.683258z"/><path d="m157.357269 350.450378c4.126663 5.348175 3.64766 10.671082-.89479 13.608674-3.94368 2.550292-9.349182 1.394805-11.696656-2.747437-1.977661-3.489716-1.845016-7.176178.963501-10.127014 3.320343-3.488587 7.305756-3.358948 11.627945-.734223z"/></svg>