<svg enable-background="new 0 0 336 592" viewBox="0 0 336 592" xmlns="http://www.w3.org/2000/svg"><path d="m242.281342 269.000061c.004608 38.82428.011718 77.14859.01065 115.47287-.000229 8.090668-1.498352 9.018371-8.746231 5.367248-4.610519-2.32257-9.12204-4.849517-13.78865-7.050048-2.982972-1.406586-4.012253-3.481995-3.979477-6.713837.128311-12.653656.052459-25.309387.052459-37.91394-.510864-.111634-.92897-.321259-1.044845-.211548-18.502991 17.513031-48.219162 17.536529-71.131745 3.631103-17.29882-10.498535-29.995689-25.12207-39.073974-43.099609-1.617829-3.203766-1.233185-5.307343 1.251198-7.889496 9.980957-10.373749 17.67678-22.169312 20.31636-36.587128 2.163658-11.818176.266388-23.164917-5.002296-33.989715-1.281792-2.633515-3.329659-2.878037-5.768624-2.869644-9.497619.032669-18.999496-.147507-28.491218.09172-3.979515.100311-6.206017-1.225281-7.293038-5.089477-.898117-3.192673-2.313362-6.239289-3.488426-9.354783-2.203285-5.841674-1.142113-7.497558 5.2938-7.638351 6.828507-.149353 13.662583-.046051 20.494233-.048737 6.998321-.002746 13.997955.079972 20.994415-.034011 3.472229-.05658 5.868782 1.129867 7.855629 4.144607 10.170532 15.432205 18.699966 31.500626 20.617279 50.287888.259994 2.547516 1.656052 3.453918 3.970184 3.455246 18.828614.010711 37.657349-.017685 56.485718.052749 3.987686.014923 4.005249-2.515945 4.000732-5.364242-.023468-14.829788-.006729-29.659638.008728-44.489472.007981-7.652176.022172-7.890182 7.530808-7.820617 14.982071.138794 29.960571-.663788 44.947876-.008988 3.204102.139984 4.798126 1.315918 5.756256 4.222443 1.249695 3.791138 2.897064 7.450027 4.185364 11.229889 1.493133 4.380935.152649 6.286651-4.556275 6.341934-8.663421.101669-17.332244.176498-25.991958-.028381-4.040543-.095612-5.541657 1.204589-5.485291 5.417846.205033 15.326386.074173 30.657273.070359 46.486481m-27.676087 34.818604c1.209549-1.750855 1.199509-3.750702 1.199417-5.757782-.000335-7.152405-.153763-14.310547.088928-21.455018.137818-4.057586-1.217117-5.551696-5.398178-5.511993-18.461624.175476-36.926315.159119-55.388534.023193-3.598221-.026489-5.398636 1.17746-6.367432 4.691376-2.380691 8.634949-7.063217 16.119782-12.714905 22.952332-5.168853 6.248871-5.30278 6.137726.053345 11.976227.449768.490295.881256.997863 1.342285 1.477172 22.916504 23.82489 60.543289 20.040741 77.185074-8.395507z"/><path d="m119.692047 382.679047c-.041481-12.419953 6.214897-19.195771 17.113449-18.99231 10.596482.197784 17.132401 7.835053 16.539032 19.325928-.417358 8.082397-6.597626 14.024505-15.397796 14.804352-9.16359.812103-15.990899-4.691193-18.254685-15.13797z"/></svg>