<svg enable-background="new 0 0 336 592" viewBox="0 0 336 592" xmlns="http://www.w3.org/2000/svg"><path d="m115.51796 265.498352c4.569442-4.001953 9.32698-6.977844 14.788238-8.821472 8.637161-2.915726 14.353729.254516 16.237747 9.105347.207733.975891.496277 1.942169.612397 2.928802 1.058746 8.994782 1.049987 8.996887 10.314636 8.998932 18.162582.003998 36.326385-.105957 54.486816.093689 4.241196.046631 5.85994-.994293 5.790558-5.550354-.251144-16.492462-.236725-32.992996-.006775-49.486069.061478-4.410003-1.322159-5.705551-5.691894-5.690307-41.82341.145782-83.647919.01361-125.470871.216461-5.015213.024338-7.765839-1.43042-8.975945-6.329514-.7528-3.047699-2.291031-5.892471-3.301964-8.887329-1.648124-4.882522-.574485-6.509491 4.420929-6.902527 1.491753-.11737 2.997299-.079376 4.496521-.079147 60.986267.009109 121.972763.096435 182.958435-.087021 5.740326-.017258 9.083557 1.489166 10.39032 7.260712.654297 2.889801 2.259796 5.550338 3.177185 8.397659 1.395844 4.332199-.030395 6.376129-4.596283 6.437988-8.496551.115143-17.002166.240555-25.491134-.034973-4.674561-.151764-6.370163 1.2565-6.355286 6.195679.162643 53.98732.103989 107.975326.126358 161.963119.003036 7.321289-1.658859 8.30661-8.294098 4.798249-4.270172-2.257843-8.457947-4.711029-12.871628-6.6456-3.601608-1.578613-4.715698-3.891418-4.690048-7.750549.158402-23.826935-.027634-47.656281.16922-71.482636.037247-4.508026-1.172363-6.11557-5.852005-6.065948-20.159866.213715-40.323761.169373-60.484909.03125-3.895554-.026672-5.173584 1.258667-5.199463 5.183228-.093338 14.149475.710678 28.313354-.84523 42.447296-1.897903 17.240692-8.425644 32.020111-21.803635 43.515747-3.316742 2.850097-5.866714 3.573181-9.32373.167999-3.425408-3.374115-7.438667-6.151489-11.194496-9.190063-3.03608-2.456208-3.073014-4.962098-.047226-7.42508 13.76799-11.207001 18.588897-26.267731 18.686409-43.354248.046585-8.164551-.086334-16.331818.084266-24.493194.07026-3.360962-.977584-4.909974-4.528137-4.813843-2.127495.057586-4.310402-.434113-6.405266-.940247-7.194618-1.738342-10.602394-7.684753-8.531097-14.863342 2.209061-7.656036 7.263985-13.368195 13.221085-18.848694z"/><path d="m191.911972 377.246643c3.304886 4.822846 4.19371 9.843597 3.003265 15.085297-2.122482 9.345428-10.722427 14.124847-20.953933 11.880218-8.381882-1.838806-13.730057-10.68277-12.206925-20.185791 1.335449-8.332062 9.580872-13.920776 18.616913-12.742126 4.463501.582214 8.366104 2.119354 11.54068 5.962402z"/></svg>