<svg enable-background="new 0 0 336 592" viewBox="0 0 336 592" xmlns="http://www.w3.org/2000/svg"><path d="m134.080276 257.707214c19.690506-3.907547 38.548523-1.530944 56.992768 4.389893 4.362854 1.400574 7.204208.803039 10.191986-2.202179 11.012222-11.076447 13.614197-24.297699 10.290863-39.142548-.714951-3.193664-2.799637-3.628387-5.560288-3.615341-13.999069.066132-27.998596.038376-41.997955.039597-25.832168.002258-51.664856-.078919-77.495994.084991-4.112038.026108-6.571312-1.090835-7.761429-5.180343-1.020256-3.505875-2.655243-6.827836-3.844353-10.290879-1.518272-4.421631-.238533-6.304825 4.349274-6.656067 1.160576-.088867 2.332046-.046051 3.498512-.045883 61.330574.009064 122.661293.076294 183.991447-.074814 4.964692-.012237 7.804505 1.346817 9.032135 6.257981.720978 2.884475 2.197907 5.571853 3.196045 8.396896 1.99527 5.647186.800537 7.434906-5.088653 7.469284-10.665833.062256-21.334351.145371-31.997391-.035934-4.323044-.073517-5.500092.834304-4.919434 5.696289 2.273346 19.035522-4.407104 34.621399-19.703292 46.370544-.772339.593262-1.536347 1.197327-3.019852 2.354614 15.82486 9.359803 27.889313 21.179566 29.077087 40.394928 1.189713 19.246643-7.642013 33.170105-24.302124 43.055634 7.168824 8.650482 13.935334 16.830627 20.720871 24.994904 2.236527 2.690979 4.549286 5.318817 6.772599 8.020446.938873 1.140839 2.04486 2.315308 1.08255 4.005799-.767777 1.348755-2.070038 1.596008-3.439316 1.58908-5.998688-.030426-11.99881-.193145-17.995056-.09732-2.67479.042755-3.780243-1.76474-5.075333-3.466705-6.154953-8.088776-12.396011-16.115632-18.372849-24.334351-2.059051-2.83139-3.933776-4.061249-7.769989-3.52829-21.005477 2.918366-41.028961-1.420593-61.87323-9.608093 1.651536 2.270447 2.570054 3.623901 3.579178 4.906036 7.625641 9.68869 15.296982 19.341645 22.87703 29.065766 1.148834 1.473755 3.132095 2.840332 1.94136 5.216156-1.103348 2.201477-3.263687 1.968017-5.235809 2.115905-.165924.012452-.336502-.013214-.499313.013306-12.969117 2.11026-21.701615-1.63089-27.994843-14.588714-8.044182-16.56308-18.706017-31.867493-28.460426-47.577332-2.105706-3.391296-1.6017-5.457184 1.062507-8.168335 2.781243-2.830292 4.9431-2.771973 8.176453-.770813 22.383667 13.853088 46.948929 19.440918 73.02597 17.733856 12.120972-.793487 23.757187-4.202942 32.103867-14.031921 9.058868-10.667664 7.831955-24.979492-2.691391-34.983734-2.54808-2.422394-5.466721-4.337433-8.485229-6.137451-3.371354-2.010468-6.641327-2.192933-10.470505-1.045441-16.734787 5.014892-33.778488 7.448089-51.26677 5.031036-5.479095-.757263-10.815857-2.057007-15.627021-4.885193-10.263291-6.033111-10.186402-17.710724.220474-23.43695 2.592666-1.426575 5.557228-2.177307 8.764869-3.29831z"/></svg>