<svg enable-background="new 0 0 336 592" viewBox="0 0 336 592" xmlns="http://www.w3.org/2000/svg"><path d="m122.966858 261.881775c12.475037-8.066696 26.184235-10.584122 40.286056-10.998413 14.654145-.430512 29.331803-.300446 43.993927-.07431 4.488511.069229 5.793152-1.460541 5.619553-5.770997-.294846-7.321334-.339035-14.674972.005081-21.991821.2193-4.663177-1.453613-5.994995-5.985733-5.971039-30.498337.161301-60.997909.092987-91.49707.098526-10.49971.001923-21.000809-.092971-31.498337.059021-3.337685.048325-5.265419-1.044815-6.258636-4.322693-1.108452-3.658142-2.708771-7.164047-3.959275-10.783111-1.864387-5.395737-.764457-6.870377 5.069008-7.034546.99923-.028122 1.999825-.009964 2.999787-.009766 58.331749.010971 116.66349.022293 174.995231.03357.666657.000137 1.333283-.000168 1.999939.000229 15.81546.009323 16.497193.535034 20.688294 15.953262 1.141601 4.199692-.038697 5.957962-4.508698 6.009979-10.498413.122177-21.001526.202927-31.497253.006577-4.170883-.078034-5.477433 1.470565-5.420029 5.54367.183197 12.996933.09407 25.998429.032913 38.997803-.040191 8.546722-4.05249 12.52063-12.417648 12.536011-19.499146.035858-39.00473-.203156-58.494904.236572-11.175506.252167-21.873459 2.998383-30.115142 11.333588-10.491883 10.610992-11.261216 23.604919-8.280259 37.228851 1.72197 7.869995 5.220383 14.979523 10.228928 21.219147 2.960815-.659333 4.133621-2.830506 5.684708-4.475312 13.659088-14.484375 29.29422-25.752716 49.288635-29.548126 23.140518-4.392639 45.1669 4.766053 53.998077 25.014649 10.672547 24.470672-2.410217 50.408508-28.570694 56.03183-35.450439 7.620239-64.992523-4.163636-89.85791-29.081971-14.610893-14.642028-24.093971-32.278839-26.236175-53.189819-1.945931-18.995117 3.11885-35.305847 19.707626-47.051361m47.2565 84.838806c-3.691009 3.74704-8.050934 6.890808-10.751129 11.491943 12.480545 13.791748 42.496643 18.186249 59.764069 8.935822 10.05429-5.386292 15.003769-13.732727 13.266128-22.370941-1.704651-8.474213-9.172165-14.080445-20.505417-15.243347-1.794098-.184052-3.651031.043426-5.460739.244262-13.747024 1.525727-25.176727 8.109772-36.312912 16.942261z"/><path d="m120.059593 408.551453c-14.106468 2.713073-24.91439-7.556549-22.01168-20.416474 1.789863-7.929718 8.620819-13.379303 16.508751-13.170288 9.598091.254334 15.442558 5.49289 17.126914 15.35138 1.36644 7.997802-3.009918 15.059509-11.623985 18.235382z"/></svg>