<svg enable-background="new 0 0 336 592" viewBox="0 0 336 592" xmlns="http://www.w3.org/2000/svg"><path d="m116.233749 314.523041c-5.687919-18.780518-5.521751-36.985596 1.260544-55.13266 16.153244-43.220474 72.476502-50.816361 102.053345-20.809326 22.796875 23.128479 29.089035 65.336609 13.8228 93.891815-11.083619 20.731659-32.498108 32.010467-55.962937 30.086822-30.904053-2.533508-50.312607-19.450775-61.173752-48.036651m33.062851-55.710449c-11.286972 19.037628-13.556106 39.101104-5.955337 59.886383 5.278869 14.435699 14.819015 24.889099 31.170151 25.583282 14.800033.628357 25.228118-7.303192 32.003952-20.026367 10.268966-19.282349 11.282409-39.481598 4.213272-59.882385-3.901535-11.259415-10.872849-20.41716-23.508423-23.025895-16.455673-3.397415-28.328018 3.874772-37.923615 17.464982z"/></svg>