<svg version="1.1" id="Layer_1" xmlns="http://www.w3.org/2000/svg" xmlns:xlink="http://www.w3.org/1999/xlink" x="0px" y="0px"
	 width="100%" viewBox="0 0 336 592" enable-background="new 0 0 336 592" xml:space="preserve">
<path fill="#000000" opacity="1.000000" stroke="none" 
	d="
M116.233749,314.523041 
	C110.545830,295.742523 110.711998,277.537445 117.494293,259.390381 
	C133.647537,216.169907 189.970795,208.574020 219.547638,238.581055 
	C242.344513,261.709534 248.636673,303.917664 233.370438,332.472870 
	C222.286819,353.204529 200.872330,364.483337 177.407501,362.559692 
	C146.503448,360.026184 127.094894,343.108917 116.233749,314.523041 
M149.296600,258.812592 
	C138.009628,277.850220 135.740494,297.913696 143.341263,318.698975 
	C148.620132,333.134674 158.160278,343.588074 174.511414,344.282257 
	C189.311447,344.910614 199.739532,336.979065 206.515366,324.255890 
	C216.784332,304.973541 217.797775,284.774292 210.728638,264.373505 
	C206.827103,253.114090 199.855789,243.956345 187.220215,241.347610 
	C170.764542,237.950195 158.892197,245.222382 149.296600,258.812592 
z"/>
</svg>