<svg enable-background="new 0 0 336 592" viewBox="0 0 336 592" xmlns="http://www.w3.org/2000/svg"><path d="m232.300293 241.933258c7.965713 26.220764 2.387207 58.874542-35.014771 76.581329-.390792 1.465149.835053 2.040772 1.633957 2.778473 19.151337 17.684662 31.184494 39.601532 38.245194 64.444641 1.744003 6.136353-.261536 8.033783-6.504212 6.4292-6.441345-1.655671-12.830032-3.536896-19.314666-4.99524-3.663254-.823822-4.974823-2.912994-5.748505-6.403534-3.984222-17.975006-11.630615-34.260009-22.87088-48.906982-3.842621-5.007233-7.804764-6.782074-14.403656-5.288147-11.792328 2.669617-23.808121 2.305359-35.544266-1.240265-3.372787-1.018982-6.528908-2.471557-9.215889-4.825531-9.361732-8.201599-7.737655-21.404785 3.525322-26.690735 11.227738-5.269439 22.730377-3.71466 34.149933-.464294 2.555405.727356 5.29248 1.355743 7.470291 2.764801 5.56102 3.597931 10.590653 2.110443 15.958313-.455505 11.280502-5.392426 20.953201-12.479065 26.101318-24.287598 8.837189-20.270294-2.143295-42.095734-24.095184-48.162628-18.425308-5.09224-36.285049-1.560776-53.921371 3.917236-11.456192 3.558426-11.394272 3.758209-15.097687-7.724838-.051033-.15828-.075607-.325119-.126854-.483322-3.984039-12.300522-4.091805-12.618912 8.086533-16.736435 22.0886-7.468247 44.455619-10.0831 66.918785-1.494706 19.492248 7.45253 32.853607 21.013978 39.768295 41.24408z"/></svg>