<svg enable-background="new 0 0 336 592" viewBox="0 0 336 592" xmlns="http://www.w3.org/2000/svg"><path d="m118.80397 218.064819c-3.82666-12.962677-6.294685-10.832138 7.047142-15.50235 23.653389-8.279663 47.756768-10.880081 71.691155-1.081039 28.35936 11.610703 40.44844 38.048813 34.718185 63.906601-2.242141 10.117645-8.24768 18.063507-16.231094 24.545441-1.406418 1.141906-2.816315 2.279541-4.746857 3.841827 18.334 10.86911 30.353729 25.523163 28.97786 47.654755-1.444748 23.239563-17.813721 33.442352-37.173584 40.471191.245987 2.460083 2.228622 3.075775 3.546829 4.192749 9.298035 7.878327 17.899033 16.450562 26.042129 25.513245 2.157639 2.401306 2.126694 3.864227-.310867 6.107055-9.210342 8.47461-9.100052 8.529877-17.782211-.300537-10.296936-10.4729-21.120026-20.332794-33.373779-28.532653-2.328675-1.558259-4.538727-2.080597-7.430024-1.851136-14.26593 1.132355-28.3237.002198-41.592544-5.865936-6.677689-2.953217-12.909455-6.842804-14.335427-14.800964-1.823272-10.175415 6.176011-18.164917 18.471322-18.629883 13.410446-.507141 25.859191 3.610016 37.041198 10.300751 7.194245 4.304687 13.422745 4.318603 20.551285 1.400329 5.778031-2.365295 11.06221-5.395141 15.374725-9.984314 8.445923-8.987732 9.530396-21.906219 2.704285-32.174408-3.980575-5.987793-9.347992-10.319122-15.747391-13.49527-2.510192-1.245849-4.879501-1.41333-7.67601-.726623-14.841903 3.64447-29.884186 4.98407-45.006943 2.171417-7.617782-1.416778-15.10733-3.640869-17.970672-12.262421-1.935616-5.828155-.151779-11.453918 4.800827-15.039337 4.739929-3.431457 10.245514-4.838745 15.945297-5.177398 12.237015-.727082 24.296921.48471 35.89856 4.635498 3.399154 1.216125 6.383819 1.031189 9.559326-.469361 8.883743-4.197967 16.352905-9.94992 19.602783-19.564361 4.802765-14.208634-2.15712-27.503571-16.838516-33.164109-12.563019-4.843826-25.461914-4.32373-38.426346-2.470535-9.752823 1.394119-19.23201 3.944687-28.347588 7.683396-3.380836 1.386627-5.343498.847366-6.283783-2.870453-.692092-2.736481-1.707839-5.391098-2.699272-8.461167z"/></svg>