<svg version="1.1" id="Layer_1" xmlns="http://www.w3.org/2000/svg" xmlns:xlink="http://www.w3.org/1999/xlink" x="0px" y="0px"
	 width="100%" viewBox="0 0 336 592" enable-background="new 0 0 336 592" xml:space="preserve">
<path fill="#000000" opacity="1.000000" stroke="none" 
	d="
M152.014160,266.997131 
	C176.481781,281.020233 169.897125,280.001434 192.591766,267.042816 
	C200.701874,262.411957 207.965195,256.519836 213.281647,248.548691 
	C221.308884,236.513229 220.450165,224.576263 210.649933,213.974869 
	C207.330902,210.384521 203.414780,207.597107 199.171677,205.229050 
	C197.603561,204.353867 196.469376,203.374634 197.328705,201.261002 
	C198.094116,199.378342 198.968140,198.169632 201.331100,198.439102 
	C218.007263,200.340881 231.260925,207.849731 238.935944,223.030838 
	C246.258835,237.515411 244.612213,251.831284 235.134125,264.965607 
	C227.877869,275.021057 217.792023,281.876099 207.324066,288.190491 
	C205.505035,289.287750 203.401138,289.999573 201.646729,292.318726 
	C209.658417,296.223938 217.275543,300.484833 224.218781,305.874969 
	C241.122787,318.997864 247.935486,338.886017 241.383484,357.704010 
	C236.433655,371.920441 226.029892,380.984894 212.090088,385.678955 
	C183.674988,395.247284 156.600204,392.124664 132.685501,373.697632 
	C108.907318,355.375793 108.060333,325.165955 129.464554,304.013947 
	C136.407013,297.153290 144.595764,292.126129 153.108414,287.464752 
	C152.255661,284.978149 150.048813,284.752899 148.366898,283.894257 
	C135.033798,277.087799 122.476997,269.362030 114.498322,256.041718 
	C100.843651,233.245361 112.067581,204.157028 137.139572,197.417984 
	C141.537430,196.235901 146.031998,195.976608 150.483032,196.792023 
	C156.706253,197.932144 160.947021,201.651962 163.169983,207.581680 
	C164.406082,210.878983 164.372559,212.842636 159.743149,213.525253 
	C144.693802,215.744278 134.675476,227.507706 135.409851,241.684784 
	C135.858627,250.348267 140.518524,257.001801 146.661087,262.719666 
	C148.241699,264.190979 150.032379,265.436646 152.014160,266.997131 
M213.109085,354.564362 
	C220.165070,344.094940 219.673691,331.573273 211.761398,321.665588 
	C204.109650,312.084167 193.480576,306.934784 182.594955,302.173859 
	C181.420654,301.660248 180.368134,301.808472 179.242249,302.292847 
	C167.690018,307.262726 156.673050,313.074951 148.244156,322.737335 
	C137.601395,334.937592 137.630280,350.555298 148.191391,360.396271 
	C165.497437,376.522278 198.181076,373.860840 213.109085,354.564362 
z"/>
</svg>