<svg enable-background="new 0 0 336 592" viewBox="0 0 336 592" xmlns="http://www.w3.org/2000/svg"><path d="m152.01416 266.997131c24.467621 14.023102 17.882965 13.004303 40.577606.045685 8.110108-4.630859 15.373429-10.52298 20.689881-18.494125 8.027237-12.035462 7.168518-23.972428-2.631714-34.573822-3.319031-3.590348-7.235153-6.377762-11.478256-8.745819-1.568116-.875183-2.702301-1.854416-1.842972-3.968048.765411-1.88266 1.639435-3.09137 4.002395-2.8219 16.676163 1.901779 29.929825 9.410629 37.604844 24.591736 7.322891 14.484573 5.676269 28.800446-3.801819 41.934769-7.256256 10.05545-17.342102 16.910492-27.810059 23.224884-1.819031 1.097259-3.922928 1.809082-5.677337 4.128235 8.011688 3.905212 15.628814 8.166107 22.572052 13.556243 16.904006 13.122895 23.716705 33.011048 17.164703 51.829041-4.949829 14.216431-15.353592 23.280884-29.293396 27.974945-28.4151 9.568329-55.489884 6.445709-79.404587-11.981323-23.778183-18.321839-24.625168-48.531677-3.220947-69.683685 6.942459-6.860657 15.13121-11.887818 23.64386-16.549195-.852753-2.486603-3.059601-2.711853-4.741516-3.570495-13.3331-6.806458-25.889901-14.532227-33.868576-27.852539-13.654671-22.796357-2.430741-51.88469 22.64125-58.623734 4.397858-1.182083 8.892426-1.441376 13.34346-.625961 6.223221 1.140121 10.463989 4.859939 12.686951 10.789657 1.236099 3.297303 1.202576 5.260956-3.426834 5.943573-15.049347 2.219025-25.067673 13.982453-24.333298 28.159531.448776 8.663483 5.108673 15.317017 11.251236 21.034882 1.580612 1.471313 3.371292 2.71698 5.353073 4.277465m61.094925 87.567231c7.055985-10.469422 6.564606-22.991089-1.347687-32.898774-7.651748-9.581421-18.280822-14.730804-29.166443-19.491729-1.174301-.513611-2.226821-.365387-3.352706.118988-11.552231 4.969879-22.569199 10.782104-30.998093 20.444488-10.642761 12.200257-10.613876 27.817963-.052765 37.658936 17.306046 16.126007 49.989685 13.464569 64.917694-5.831909z"/></svg>