<svg enable-background="new 0 0 336 592" viewBox="0 0 336 592" xmlns="http://www.w3.org/2000/svg"><path d="m238.330002 235.000092c.001724 50.143066.005829 99.786132.002106 149.429168-.000611 8.215729-1.415452 9.107422-8.640046 5.439026-4.453613-2.261352-8.79869-4.755493-13.342605-6.813721-3.394623-1.537658-4.496567-3.844909-4.42363-7.462127.188019-9.325012.085831-18.656647.028976-27.985169-.010742-1.763611.50792-3.650543-.960144-5.646728-5.18724 2.772217-10.271957 5.848114-16.070541 7.361267-21.14447 5.51767-40.230255.617401-57.748825-11.558075-13.960701-9.702789-24.216583-22.643005-32.111458-37.638092-2.19667-4.172211-1.923332-6.772644 1.440849-10.381012 13.713883-14.709473 22.891892-31.461701 21.179009-52.503296-.828888-10.182266-4.22226-19.505188-9.837448-27.933548-2.367943-3.554275-2.395676-5.520935 1.587669-7.835861 7.691696-4.470062 7.58416-4.706543 13.291504 2.051559 11.689484 13.841629 19.706528 29.327896 20.021805 47.83136.260284 15.276627-4.904419 29.056137-13.156265 41.739578-1.812378 2.785706-3.631745 5.66565-5.956803 7.994049-2.906341 2.910584-2.492172 5.203278-.178131 8.18396 17.54628 22.601197 54.391144 25.148163 74.722977 5.180176 2.698318-2.650024 3.876236-5.441925 3.863891-9.243469-.106063-32.650757-.057083-65.302033-.051147-97.953156.00029-1.665603-.072617-3.339859.066483-4.995132.36325-4.321915 2.510543-5.83548 6.311264-4.020737 6.006637 2.867997 11.823822 6.130478 17.760131 9.149384 2.241074 1.139694 2.204651 3.096481 2.2034 5.121902-.004517 7.32956-.002701 14.659134-.003021 22.488694z"/></svg>