<svg enable-background="new 0 0 336 592" viewBox="0 0 336 592" xmlns="http://www.w3.org/2000/svg"><path d="m216.379211 203.403687c6.425431 1.618652 12.130631 3.87088 17.169968 7.57724 4.567749 3.359512 7.704102 7.613159 6.52034 13.58554-1.196243 6.035309-5.806 8.669998-11.363739 9.787689-13.712189 2.757538-26.842163-.163116-38.504929-6.869445-7.891464-4.537735-14.990188-4.298279-22.819183-2.030686-8.029007 2.325516-15.243515 6.124604-19.919662 13.334107-10.153916 15.654937-1.615372 34.035019 15.131713 41.385818 1.31099.57544 2.557953.299957 3.88234-.072998 13.086472-3.685516 26.441681-5.089264 40.002274-4.397308 7.02565.358459 13.843017 1.757751 20.230667 4.875732 5.516403 2.692658 9.200286 6.762482 8.999908 13.184052-.189987 6.088073-4.210266 9.554168-9.368668 11.830169-9.937408 4.384705-20.440429 4.306977-30.928115 3.327301-7.109772-.664154-14.153931-2.008575-21.012619-4.146514-1.089615-.339661-2.297593-.530396-3.431168-.46225-10.719254.644043-23.571533 12.023895-26.277939 23.19162-2.872986 11.855133 2.62265 24.506286 13.411804 30.810424 8.083496 4.723206 16.943406 6.774201 26.178955 7.343689 17.58104 1.084015 34.461182-2.332946 50.780259-8.574249 4.087936-1.563385 5.999191-1.143707 7.064758 3.305115 1.276321 5.328827 3.024048 10.550049 4.699646 15.775543.751892 2.344879.197021 3.831238-2.104355 4.749939-29.617889 11.823181-59.484573 14.658386-89.027771.495361-19.908417-9.544128-32.526741-25.460022-34.488403-47.992096-1.521141-17.472168 5.012939-31.935455 19.490783-42.395111 1.330689-.961395 2.714692-1.848999 4.508927-3.065857-2.880417-1.920837-5.512253-3.547546-8.008896-5.360443-27.998138-20.330322-24.310883-59.29512 6.962494-74.076278 6.965271-3.292115 14.148743-5.813919 21.792114-6.915711 3.48407-.502228 5.021256-1.516952 4.117584-5.862854-4.039871-19.428314 8.941117-37.077637 28.779251-40.077133 7.365479-1.113632 14.61142-1.280624 21.690781 1.212265 6.73082 2.370132 11.505798 6.704865 12.542374 14.145432.733093 5.262329-1.26059 6.870361-6.333084 5.53865-10.363297-2.720764-20.676453-3.619018-30.658265 1.47699-6.832672 3.488266-9.624633 8.894684-8.850051 16.340423.367569 3.533387 1.754913 5.288849 5.611892 5.455674 7.808472.337722 15.557343 1.397293 23.528015 3.57016z"/></svg>