<svg version="1.1" id="Layer_1" xmlns="http://www.w3.org/2000/svg" xmlns:xlink="http://www.w3.org/1999/xlink" x="0px" y="0px"
	 width="100%" viewBox="0 0 336 592" enable-background="new 0 0 336 592" xml:space="preserve">
<path fill="#000000" opacity="1.000000" stroke="none" 
	d="
M216.379211,203.403687 
	C222.804642,205.022339 228.509842,207.274567 233.549179,210.980927 
	C238.116928,214.340439 241.253281,218.594086 240.069519,224.566467 
	C238.873276,230.601776 234.263519,233.236465 228.705780,234.354156 
	C214.993591,237.111694 201.863617,234.191040 190.200851,227.484711 
	C182.309387,222.946976 175.210663,223.186432 167.381668,225.454025 
	C159.352661,227.779541 152.138153,231.578629 147.462006,238.788132 
	C137.308090,254.443069 145.846634,272.823151 162.593719,280.173950 
	C163.904709,280.749390 165.151672,280.473907 166.476059,280.100952 
	C179.562531,276.415436 192.917740,275.011688 206.478333,275.703644 
	C213.503983,276.062103 220.321350,277.461395 226.709000,280.579376 
	C232.225403,283.272034 235.909286,287.341858 235.708908,293.763428 
	C235.518921,299.851501 231.498642,303.317596 226.340240,305.593597 
	C216.402832,309.978302 205.899811,309.900574 195.412125,308.920898 
	C188.302353,308.256744 181.258194,306.912323 174.399506,304.774384 
	C173.309891,304.434723 172.101913,304.243988 170.968338,304.312134 
	C160.249084,304.956177 147.396805,316.336029 144.690399,327.503754 
	C141.817413,339.358887 147.313049,352.010040 158.102203,358.314178 
	C166.185699,363.037384 175.045609,365.088379 184.281158,365.657867 
	C201.862198,366.741882 218.742340,363.324921 235.061417,357.083618 
	C239.149353,355.520233 241.060608,355.939911 242.126175,360.388733 
	C243.402496,365.717560 245.150223,370.938782 246.825821,376.164276 
	C247.577713,378.509155 247.022842,379.995514 244.721466,380.914215 
	C215.103577,392.737396 185.236893,395.572601 155.693695,381.409576 
	C135.785278,371.865448 123.166954,355.949554 121.205292,333.417480 
	C119.684151,315.945312 126.218231,301.482025 140.696075,291.022369 
	C142.026764,290.060974 143.410767,289.173370 145.205002,287.956512 
	C142.324585,286.035675 139.692749,284.408966 137.196106,282.596069 
	C109.197968,262.265747 112.885223,223.300949 144.158600,208.519791 
	C151.123871,205.227676 158.307343,202.705872 165.950714,201.604080 
	C169.434784,201.101852 170.971970,200.087128 170.068298,195.741226 
	C166.028427,176.312912 179.009415,158.663589 198.847549,155.664093 
	C206.213028,154.550461 213.458969,154.383469 220.538330,156.876358 
	C227.269150,159.246490 232.044128,163.581223 233.080704,171.021790 
	C233.813797,176.284119 231.820114,177.892151 226.747620,176.560440 
	C216.384323,173.839676 206.071167,172.941422 196.089355,178.037430 
	C189.256683,181.525696 186.464722,186.932114 187.239304,194.377853 
	C187.606873,197.911240 188.994217,199.666702 192.851196,199.833527 
	C200.659668,200.171249 208.408539,201.230820 216.379211,203.403687 
z"/>
</svg>