<svg version="1.1" id="Layer_1" xmlns="http://www.w3.org/2000/svg" xmlns:xlink="http://www.w3.org/1999/xlink" x="0px" y="0px"
	 width="100%" viewBox="0 0 336 592" enable-background="new 0 0 336 592" xml:space="preserve">
<path fill="#000000" opacity="1.000000" stroke="none" 
	d="
M213.811264,288.955261 
	C218.009598,268.970673 218.105576,249.760071 207.273148,232.056870 
	C200.686829,221.293030 190.634644,215.527039 177.914871,216.544556 
	C165.084656,217.570892 156.012695,224.708054 150.817078,236.535248 
	C142.515366,255.433090 147.856613,280.613983 168.905014,291.117188 
	C170.059708,291.693390 171.376007,292.179596 171.916489,294.099579 
	C166.786102,298.659637 160.589340,299.127441 154.305695,297.767151 
	C136.990677,294.018707 127.270058,282.154938 122.299110,266.045166 
	C114.145622,239.621552 126.009682,211.601196 149.657440,200.454956 
	C172.346481,189.760605 202.883347,196.060013 219.220795,215.083740 
	C236.531494,235.240738 241.847992,259.088043 239.729858,284.959320 
	C237.751831,309.119293 228.064560,329.928680 211.196655,347.245514 
	C196.621750,362.208344 178.807571,372.132629 159.315430,379.226959 
	C148.656601,383.106323 137.677353,385.793701 126.588768,388.102661 
	C122.862312,388.878632 120.314346,388.478333 119.098740,384.113281 
	C117.718918,379.158508 115.739914,374.351318 113.757828,369.589661 
	C112.158379,365.747192 113.361053,364.240234 117.314041,363.602173 
	C134.511368,360.826324 151.088684,355.973541 166.464767,347.632507 
	C190.220245,334.745972 207.238113,316.301025 213.811264,288.955261 
z"/>
</svg>