<svg enable-background="new 0 0 336 592" viewBox="0 0 336 592" xmlns="http://www.w3.org/2000/svg"><path d="m181 251.964722c-10.327667-.007782-20.15683.079208-29.982208-.074982-3.517548-.055191-5.470856 1.276657-5.516983 4.784729-.389801 29.654663-.738785 59.328308 11.482101 87.306793 7.676163 17.573792 21.445709 26.215058 39.259766 24.921601 12.421264-.901886 20.42453-7.999268 25.831619-18.597931 2.658722-5.211457 4.374725-10.787354 5.642853-16.488312.633301-2.847046 1.658005-4.269318 5.125152-3.449829 6.901871 1.631378 14.00673 2.398895 20.738633 4.544952-2.521119 26.896118-21.126572 52.558411-52.153595 53.528809-32.636368 1.020752-53.745194-15.703125-67.563279-43.230042-13.113914-26.124206-15.598968-54.392517-14.35585-83.155517.043144-.998261.104119-1.996155.124916-2.994904.142365-6.83963.048004-6.946884-6.574142-7.693832-9.884361-1.114914-14.053253-7.229904-10.301415-16.336457 5.400353-13.107803 15.115387-22.247619 28.406449-27.109726 7.828537-2.86383 12.486557.227784 14.156753 8.375901.366699 1.789016.919342 3.614319.85643 5.404266-.288437 8.204605.926224 7.271301 8.109665 7.282715 25.152191.039917 50.305496.15329 75.455841-.06044 4.998413-.042465 7.745529 1.463806 8.878739 6.411728.737213 3.218963 2.249618 6.25473 3.325897 9.402954 1.823212 5.333145.669189 7.131393-4.979843 7.185684-11.492325.110474-22.98645.030533-34.479843.031677-6.99588.000702-13.991776.006333-21.487656.010163z"/></svg>