<svg enable-background="new 0 0 336 592" viewBox="0 0 336 592" xmlns="http://www.w3.org/2000/svg"><path d="m189.427551 215.277649c-3.697281-15.726608-1.747543-29.860703 9.111649-41.948776 9.201401-10.242691 28.219055-14.618302 40.563644-9.474625 9.772537 4.07196 13.629303 11.325638 11.651886 22.02504-1.730087 1.120041-3.452057.25235-5.21965-.070587-22.810776-4.167572-36.844162 11.139694-34.573807 33.403686 1.458847 14.306046 9.017243 25.921402 17.062485 37.263565 1.059982 1.494354 2.307495 2.872467 3.23027 4.444092 2.340424 3.986053.355561 7.845154-4.287338 8.015137-5.991913.219391-11.99675.099823-17.996033.101013-19.331756.003815-38.664154.077026-57.994796-.071259-4.186325-.032104-5.85019 1.139221-5.870408 5.652314-.08905 19.893341 1.346161 39.568206 7.217865 58.697906 2.91121 9.484589 7.224289 18.222412 14.146866 25.546417 13.546677 14.332215 43.692047 15.88028 54.98259-8.690338 2.44487-5.320557 4.586258-10.722381 5.843872-16.425201.660919-2.99704 1.722153-4.2323 5.103897-3.38208 5.6362 1.416992 11.409348 2.287567 17.121796 3.403717 2.340835.457336 4.134872 1.285156 3.453766 4.296295-3.28888 14.539917-8.615097 27.917908-20.201432 38.125976-8.219512 7.241761-17.836273 11.049317-28.507507 12.008759-27.895355 2.508087-49.081528-8.804413-64.474701-31.85791-12.544838-18.787659-18.078048-39.779083-20.221634-61.959625-.723388-7.485138-1.012306-14.962677-.85894-22.45459.071129-3.474549-1.223648-4.504334-4.634865-4.722046-12.254081-.782013-16.61959-8.123108-11.09729-19.095108 5.578225-11.08313 14.272332-19.267227 25.785721-24.027542 9.829086-4.063965 16.291153.533508 16.574982 11.338958.274597 10.453873.274566 10.4478 10.788162 10.444306 14.832108-.004914 29.664276.019638 44.496231-.02684 1.599732-.005005 3.300797.432159 5.219422-.755463-6.864518-9.056412-13.350846-18.281586-16.416703-29.805191z"/></svg>