<svg enable-background="new 0 0 336 592" viewBox="0 0 336 592" xmlns="http://www.w3.org/2000/svg"><path d="m207.538574 142.663345c-3.965713-.469772-7.424194.220642-10.757843 1.220063-13.312881 3.991211-18.922073 18.274932-12.243225 31.166793 1.732651 3.344422 3.862976 6.482819 5.821823 9.734436-6.821167 3.25206-14.556732 1.78299-18.945175-3.508071-13.044281-15.727295-11.578339-44.843293 13.829361-55.376526 14.417236-5.976929 29.072891-5.683548 42.961197 1.663505 21.395706 11.318535 23.912872 38.976067 7.75058 56.937096-2.08226 2.314026-10.574677 2.4561-15.736801.544144-.452317-2.283555 1.370788-3.571747 2.408294-5.16504 3.426361-5.261856 5.795655-10.93724 5.971222-17.242874.309403-11.111328-6.914856-17.955734-21.059433-19.973526z"/><path d="m231.511475 265.673553c3.394561-4.20581 7.329239-5.216278 11.622787-2.597747 3.39592 2.071106 4.889511 5.326507 3.636261 9.388855-1.500778 4.864715-6.218414 7.310485-11.026764 5.77008-4.793197-1.535553-6.529342-6.320038-4.232284-12.561188z"/><path d="m109.736061 276.243713c-3.477966-5.175384-3.046814-10.092773.845116-12.929351 3.639045-2.652283 8.628494-1.992829 11.593323 1.532226 2.693992 3.203064 2.628616 7.626465-.161202 10.904938-2.903862 3.412475-7.072754 3.679077-12.277237.492187z"/><path d="m104.2603 289.292297c3.882362-2.998657 7.601181-3.254333 11.256881-.520782 3.013916 2.253662 3.53389 5.476684 2.761086 8.935791-.825707 3.695862-3.482689 5.534393-7.007263 6.1203-3.464432.575867-6.167214-.977539-8.087174-3.742218-2.535316-3.650696-1.798591-7.184906 1.07647-10.793091z"/><path d="m184.685913 232.111679c-4.065414 5.360062-9.013657 6.365219-12.939804 2.945084-3.912765-3.408432-4.091797-9.370346-.38443-12.8013 3.621597-3.351532 9.294144-2.893586 12.393112.961624 2.115906 2.632278 1.808411 5.551254.931122 8.894592z"/><path d="m247.798141 303.012756c-4.922149 1.781281-8.694915.616028-11.08554-3.539795-2.020188-3.511871-1.593354-7.189392 1.359543-10.07669 2.907012-2.842438 6.457397-3.388367 10.114212-1.415711 5.583709 3.012146 5.538803 10.063233-.388215 15.032196z"/><path d="m225.636261 334.588867c5.736099 1.774597 8.291672 5.392334 7.242493 9.756439-1.116745 4.645264-4.951645 7.436798-9.481476 6.901856-3.970856-.468964-7.579239-4.621674-7.486481-8.615875.110916-4.776673 3.494949-7.700043 9.725464-8.04242z"/><path d="m216.976746 244.251282c3.887085-4.79422 7.835815-5.952362 11.830642-3.469147 3.625931 2.253906 5.200486 5.479172 3.690384 9.793121-1.565445 4.472062-4.86943 6.16742-9.345215 5.68573-5.393707-.580505-7.98265-5.458175-6.175811-12.009704z"/><path d="m108.208679 316.473267c2.867478-3.916993 6.294777-5.42511 10.586968-3.667481 3.561737 1.458527 5.507675 4.378967 5.320358 8.183533-.198196 4.025543-2.527802 6.742218-6.474518 7.860168-3.184898.9021-5.879883-.113006-8.119743-2.411804-2.76107-2.833679-3.029213-6.100738-1.313065-9.964416z"/><path d="m245.94519 316.375061c2.37938 4.792297 1.077561 8.44696-2.663574 11.216583-3.352936 2.482209-6.89537 2.083283-10.045746-.51596-3.37828-2.787354-3.908218-6.327485-2.18721-10.278717 2.241654-5.146637 11.191666-6.854035 14.89653-.421906z"/><path d="m121.616417 345.261841c-.858475-4.785248.425583-8.399903 4.694115-10.116455 3.372589-1.356293 6.874954-1.147217 9.544906 1.887878 2.226929 2.531403 3.112915 5.393799 1.802933 8.703095-1.357239 3.42865-3.893326 5.252105-7.52533 5.506469-4.216323.295349-6.800094-1.957916-8.516624-5.980987z"/><path d="m195.549591 351.789307c3.731583-4.038941 7.82045-4.311646 11.834824-1.59906 3.599502 2.43222 4.37973 6.210235 2.63385 10.119262-1.752869 3.924652-5.106461 5.52713-9.352646 4.926453-5.766861-.815857-8.175812-6.82431-5.116028-13.446655z"/><path d="m193.757294 233.998642c.724533-4.741562 2.674026-7.92807 7.529342-8.321289 4.057999-.328659 7.237336 1.072174 8.889191 4.961807 1.891296 4.453446-.655807 9.843216-5.231873 11.341767-5.103714 1.67131-9.381881-1.226639-11.18666-7.982285z"/><path d="m169.922684 366.690399c-1.993164-3.84967-1.582657-7.19577.974212-10.067596 2.10962-2.369416 4.937088-3.513459 8.117813-2.576325 3.388627.998474 5.930939 2.972351 6.300339 6.865143.382447 4.030609-.80014 7.299561-4.673843 9.037781-4.232575 1.8992-7.766922.800873-10.718521-3.259003z"/><path d="m121.662476 245.795914c2.845855-5.658097 6.704681-7.449311 11.298156-5.589279 3.787415 1.533615 6.026261 5.894256 5.004166 9.746627-1.185974 4.470017-5.267746 7.064591-9.914993 6.302506-4.360962-.71518-6.84478-4.59108-6.387329-10.459854z"/><path d="m157.883087 239.904648c-6.890365 4.132004-13.269195 1.983047-14.152634-4.447693-.544464-3.963303.4879-7.419663 4.439484-9.067917 3.612427-1.50676 7.220245-1.273117 9.989517 1.938889 3.194321 3.705032 2.903061 7.525283-.276367 11.576721z"/><path d="m144.50853 360.989929c-1.606263-6.991119.323578-11.168884 5.253341-12.200409 4.456879-.932617 8.870499 1.188782 10.107422 5.186798 1.254685 4.055359.139054 7.595673-3.415863 10.05597-3.67392 2.542633-7.961639 1.483703-11.9449-3.042359z"/></svg>