<svg enable-background="new 0 0 336 592" viewBox="0 0 336 592" xmlns="http://www.w3.org/2000/svg"><path d="m170.109024 148.458511c-1.438858-6.961303-2.186676-13.530227-.60347-20.171737.385163-1.615647.325043-3.335709 2.676209-3.528641 2.513-.206223 3.064651 1.39032 3.49205 3.289978 1.95639 8.695999 5.980926 16.169723 13.017044 21.835587 19.855225 15.988555 49.353577 5.347961 56.033554-20.1232.59465-2.26738-.061493-6.096008 3.884476-5.857017 3.774521.228599 3.084411 4.021209 3.450821 6.289466 3.243393 20.078522-6.473114 38.95662-23.780808 45.945252-20.675873 8.348694-50.550857 1.543197-58.169876-27.679688z"/><path d="m230.891769 273.821899c-1.341156-5.64505.091446-9.288024 4.109787-11.226043 3.805329-1.835266 8.146973-.744416 10.570862 2.720764 2.548599 3.643432 2.081238 7.226929-.637909 10.48706-3.627777 4.349579-9.572311 3.588715-14.04274-1.981781z"/><path d="m108.905914 264.976044c3.393029-3.58664 7.086312-4.3396 11.000428-2.022034 3.237022 1.916657 4.939086 4.907349 4.021194 8.805939-.924835 3.92807-3.379372 6.405395-7.507034 6.835357-7.067093.736084-10.921974-5.923889-7.514588-13.619262z"/><path d="m114.579941 288.074097c3.973923 2.759887 4.683708 6.356018 3.520843 10.319793-.98735 3.365479-3.708885 5.028351-7.043075 5.468811-3.459831.457062-6.125351-1.15274-7.998398-3.958038-2.200104-3.295166-1.876297-6.690155.494141-9.687836 2.834724-3.584838 6.549743-4.178283 11.026489-2.14273z"/><path d="m185.342346 228.044586c-.757263 6.079575-4.119537 9.317337-8.926941 9.023468-4.091263-.250076-7.652008-4.120178-7.711624-8.381561-.062485-4.466415 2.916138-7.934799 7.399353-8.616058 4.568298-.694184 8.059967 2.16362 9.239212 7.974151z"/><path d="m236.804306 299.757202c-1.939972-4.260528-1.555878-7.865417 1.690842-10.795898 3.250107-2.933564 8.23854-2.725159 11.366226.26593 3.081528 2.94693 3.431442 7.877838.807663 11.381378-2.602951 3.475708-7.318894 4.318268-11.133835 1.877533-.956055-.611664-1.684616-1.578888-2.730896-2.728943z"/><path d="m221.166122 334.984619c8.110566-.903717 13.211899 3.294983 11.704941 9.305298-1.021942 4.075928-3.512237 6.715912-7.934097 6.975006-4.217545.24707-6.928436-1.953979-8.341934-5.713745-1.756577-4.672363.29805-7.967194 4.57109-10.566559z"/><path d="m216.041809 247.280258c.927872-4.08873 2.889938-6.798508 6.822235-7.516189 4.618088-.842835 8.824707 1.853576 9.979218 6.256149 1.050491 4.00592-1.517075 8.594574-5.561661 9.939606-4.356033 1.448593-8.889648-.571671-10.689087-4.893311-.431946-1.037369-.425507-2.257278-.550705-3.786255z"/><path d="m123.662506 323.270813c-2.149864 4.693451-5.511703 6.719788-10.164902 5.513794-4.119514-1.067688-6.521263-4.092651-6.351791-8.388641.166634-4.224122 2.550369-7.06131 6.807976-8.068329 5.962425-1.410279 10.608925 3.577911 9.708717 10.943176z"/><path d="m246.627136 323.214844c-2.13359 4.663788-5.401413 6.841064-10.098648 5.554626-4.045456-1.10794-6.613663-3.996704-6.374817-8.356994.242981-4.436341 2.72023-7.356629 7.28067-8.148133 5.947022-1.032165 10.180405 3.774842 9.192795 10.950501z"/><path d="m138.252518 342.983521c-1.80159 6.525207-5.740387 9.343017-10.759552 8.088989-4.410141-1.101868-7.074044-5.896027-5.833306-10.59549 1.097741-4.157898 4.053185-5.979339 8.139687-5.961761 5.264389.022613 7.720123 3.197021 8.453171 8.468262z"/><path d="m195.548279 351.788605c3.732513-4.037415 7.82344-4.31192 11.836654-1.599671 3.597443 2.431244 4.378968 6.209198 2.633072 10.120362-1.753372 3.927917-5.107574 5.525695-9.352584 4.926025-5.766144-.814545-8.175538-6.823151-5.117142-13.446716z"/><path d="m210.202606 236.930542c-2.541427 4.784637-6.30281 6.611099-10.983261 4.788208-3.873855-1.508743-6.030685-4.744202-5.28981-9.163208.850693-5.074066 5.201874-7.821777 10.415436-6.770142 4.753662.958863 6.962372 4.949753 5.857635 11.145142z"/><path d="m185.318924 361.190063c-.358002 6.246155-3.3358 9.603669-8.216965 9.701416-3.882446.07779-7.741836-3.272399-8.329696-7.230651-.646668-4.354248 1.923385-8.333771 6.186447-9.579193 4.560196-1.332215 8.581512 1.266906 10.360214 7.108428z"/><path d="m129.928192 256.320129c-5.789734-.877777-8.93866-4.212509-8.63784-8.700821.306648-4.575332 3.504501-7.750854 8.00045-7.944534 4.437408-.191162 8.222977 2.798035 8.8927 7.021897.731018 4.610473-2.234237 8.246994-8.25531 9.623458z"/><path d="m145.328705 228.50737c3.792221-3.54834 7.752685-3.985748 11.595611-1.296249 3.536148 2.474838 4.414231 6.192382 2.667969 10.15982-1.665848 3.784714-4.892853 5.307907-8.923981 4.882309-6.089904-.642898-8.603103-6.758285-5.339599-13.74588z"/><path d="m154.438263 365.020752c-6.353577.356811-9.850281-1.76474-10.691544-6.130981-.841858-4.369172 1.13649-8.601349 4.92836-9.75528 4.148148-1.262329 8.025086-.672791 10.437149 3.397919 2.356415 3.976776 1.400986 7.654998-1.757919 10.808136-.681305.680023-1.669403 1.052673-2.916046 1.680206z"/></svg>