<svg version="1.1" id="Layer_1" xmlns="http://www.w3.org/2000/svg" xmlns:xlink="http://www.w3.org/1999/xlink" x="0px" y="0px"
	 width="100%" viewBox="0 0 336 592" enable-background="new 0 0 336 592" xml:space="preserve">
<path fill="#000000" opacity="1.000000" stroke="none" 
	d="
M170.109024,148.458511 
	C168.670166,141.497208 167.922348,134.928284 169.505554,128.286774 
	C169.890717,126.671127 169.830597,124.951065 172.181763,124.758133 
	C174.694763,124.551910 175.246414,126.148453 175.673813,128.048111 
	C177.630203,136.744110 181.654739,144.217834 188.690857,149.883698 
	C208.546082,165.872253 238.044434,155.231659 244.724411,129.760498 
	C245.319061,127.493118 244.662918,123.664490 248.608887,123.903481 
	C252.383408,124.132080 251.693298,127.924690 252.059708,130.192947 
	C255.303101,150.271469 245.586594,169.149567 228.278900,176.138199 
	C207.603027,184.486893 177.728043,177.681396 170.109024,148.458511 
z"/>
<path fill="#000000" opacity="1.000000" stroke="none" 
	d="
M230.891769,273.821899 
	C229.550613,268.176849 230.983215,264.533875 235.001556,262.595856 
	C238.806885,260.760590 243.148529,261.851440 245.572418,265.316620 
	C248.121017,268.960052 247.653656,272.543549 244.934509,275.803680 
	C241.306732,280.153259 235.362198,279.392395 230.891769,273.821899 
z"/>
<path fill="#000000" opacity="1.000000" stroke="none" 
	d="
M108.905914,264.976044 
	C112.298943,261.389404 115.992226,260.636444 119.906342,262.954010 
	C123.143364,264.870667 124.845428,267.861359 123.927536,271.759949 
	C123.002701,275.688019 120.548164,278.165344 116.420502,278.595306 
	C109.353409,279.331390 105.498528,272.671417 108.905914,264.976044 
z"/>
<path fill="#000000" opacity="1.000000" stroke="none" 
	d="
M114.579941,288.074097 
	C118.553864,290.833984 119.263649,294.430115 118.100784,298.393890 
	C117.113434,301.759369 114.391899,303.422241 111.057709,303.862701 
	C107.597878,304.319763 104.932358,302.709961 103.059311,299.904663 
	C100.859207,296.609497 101.183014,293.214508 103.553452,290.216827 
	C106.388176,286.631989 110.103195,286.038544 114.579941,288.074097 
z"/>
<path fill="#000000" opacity="1.000000" stroke="none" 
	d="
M185.342346,228.044586 
	C184.585083,234.124161 181.222809,237.361923 176.415405,237.068054 
	C172.324142,236.817978 168.763397,232.947876 168.703781,228.686493 
	C168.641296,224.220078 171.619919,220.751694 176.103134,220.070435 
	C180.671432,219.376251 184.163101,222.234055 185.342346,228.044586 
z"/>
<path fill="#000000" opacity="1.000000" stroke="none" 
	d="
M236.804306,299.757202 
	C234.864334,295.496674 235.248428,291.891785 238.495148,288.961304 
	C241.745255,286.027740 246.733688,286.236145 249.861374,289.227234 
	C252.942902,292.174164 253.292816,297.105072 250.669037,300.608612 
	C248.066086,304.084320 243.350143,304.926880 239.535202,302.486145 
	C238.579147,301.874481 237.850586,300.907257 236.804306,299.757202 
z"/>
<path fill="#000000" opacity="1.000000" stroke="none" 
	d="
M221.166122,334.984619 
	C229.276688,334.080902 234.378021,338.279602 232.871063,344.289917 
	C231.849121,348.365845 229.358826,351.005829 224.936966,351.264923 
	C220.719421,351.511993 218.008530,349.310944 216.595032,345.551178 
	C214.838455,340.878815 216.893082,337.583984 221.166122,334.984619 
z"/>
<path fill="#000000" opacity="1.000000" stroke="none" 
	d="
M216.041809,247.280258 
	C216.969681,243.191528 218.931747,240.481750 222.864044,239.764069 
	C227.482132,238.921234 231.688751,241.617645 232.843262,246.020218 
	C233.893753,250.026138 231.326187,254.614792 227.281601,255.959824 
	C222.925568,257.408417 218.391953,255.388153 216.592514,251.066513 
	C216.160568,250.029144 216.167007,248.809235 216.041809,247.280258 
z"/>
<path fill="#000000" opacity="1.000000" stroke="none" 
	d="
M123.662506,323.270813 
	C121.512642,327.964264 118.150803,329.990601 113.497604,328.784607 
	C109.378090,327.716919 106.976341,324.691956 107.145813,320.395966 
	C107.312447,316.171844 109.696182,313.334656 113.953789,312.327637 
	C119.916214,310.917358 124.562714,315.905548 123.662506,323.270813 
z"/>
<path fill="#000000" opacity="1.000000" stroke="none" 
	d="
M246.627136,323.214844 
	C244.493546,327.878632 241.225723,330.055908 236.528488,328.769470 
	C232.483032,327.661530 229.914825,324.772766 230.153671,320.412476 
	C230.396652,315.976135 232.873901,313.055847 237.434341,312.264343 
	C243.381363,311.232178 247.614746,316.039185 246.627136,323.214844 
z"/>
<path fill="#000000" opacity="1.000000" stroke="none" 
	d="
M138.252518,342.983521 
	C136.450928,349.508728 132.512131,352.326538 127.492966,351.072510 
	C123.082825,349.970642 120.418922,345.176483 121.659660,340.477020 
	C122.757401,336.319122 125.712845,334.497681 129.799347,334.515259 
	C135.063736,334.537872 137.519470,337.712280 138.252518,342.983521 
z"/>
<path fill="#000000" opacity="1.000000" stroke="none" 
	d="
M195.548279,351.788605 
	C199.280792,347.751190 203.371719,347.476685 207.384933,350.188934 
	C210.982376,352.620178 211.763901,356.398132 210.018005,360.309296 
	C208.264633,364.237213 204.910431,365.834991 200.665421,365.235321 
	C194.899277,364.420776 192.489883,358.412170 195.548279,351.788605 
z"/>
<path fill="#000000" opacity="1.000000" stroke="none" 
	d="
M210.202606,236.930542 
	C207.661179,241.715179 203.899796,243.541641 199.219345,241.718750 
	C195.345490,240.210007 193.188660,236.974548 193.929535,232.555542 
	C194.780228,227.481476 199.131409,224.733765 204.344971,225.785400 
	C209.098633,226.744263 211.307343,230.735153 210.202606,236.930542 
z"/>
<path fill="#000000" opacity="1.000000" stroke="none" 
	d="
M185.318924,361.190063 
	C184.960922,367.436218 181.983124,370.793732 177.101959,370.891479 
	C173.219513,370.969269 169.360123,367.619080 168.772263,363.660828 
	C168.125595,359.306580 170.695648,355.327057 174.958710,354.081635 
	C179.518906,352.749420 183.540222,355.348541 185.318924,361.190063 
z"/>
<path fill="#000000" opacity="1.000000" stroke="none" 
	d="
M129.928192,256.320129 
	C124.138458,255.442352 120.989532,252.107620 121.290352,247.619308 
	C121.597000,243.043976 124.794853,239.868454 129.290802,239.674774 
	C133.728210,239.483612 137.513779,242.472809 138.183502,246.696671 
	C138.914520,251.307144 135.949265,254.943665 129.928192,256.320129 
z"/>
<path fill="#000000" opacity="1.000000" stroke="none" 
	d="
M145.328705,228.507370 
	C149.120926,224.959030 153.081390,224.521622 156.924316,227.211121 
	C160.460464,229.685959 161.338547,233.403503 159.592285,237.370941 
	C157.926437,241.155655 154.699432,242.678848 150.668304,242.253250 
	C144.578400,241.610352 142.065201,235.494965 145.328705,228.507370 
z"/>
<path fill="#000000" opacity="1.000000" stroke="none" 
	d="
M154.438263,365.020752 
	C148.084686,365.377563 144.587982,363.256012 143.746719,358.889771 
	C142.904861,354.520599 144.883209,350.288422 148.675079,349.134491 
	C152.823227,347.872162 156.700165,348.461700 159.112228,352.532410 
	C161.468643,356.509186 160.513214,360.187408 157.354309,363.340546 
	C156.673004,364.020569 155.684906,364.393219 154.438263,365.020752 
z"/>
</svg>