<svg enable-background="new 0 0 336 592" viewBox="0 0 336 592" xmlns="http://www.w3.org/2000/svg"><path d="m147.734543 278.448059c-25.227356-10.740662-38.150032-30.237564-41.763779-56.394974-.541069-3.916397-1.865692-5.090774-5.575981-4.951278-5.822998.218902-11.665924-.098282-17.489525.112396-3.384498.122452-5.252792-1.173996-6.276314-4.343872-1.1753-3.639908-2.70301-7.164398-3.965103-10.778321-1.792991-5.134094-.830284-6.732025 4.764656-6.855621 8.150574-.180038 16.30996.085404 24.465393.068451 18.652497-.038788 37.30484-.180038 55.957322-.195633 34.48793-.028839 68.975921-.005096 103.463882.012497 14.789307.007553 14.789307.025467 19.895111 13.831711 2.350311 6.355408 1.121643 8.152374-5.690369 8.174713-9.663208.031677-19.332153.20903-28.987426-.067627-4.668686-.133758-6.36966 1.192108-6.304764 6.151993.263763 20.156158.119629 40.31781.10025 60.477447-.007995 8.319764-3.427231 11.700989-11.740555 11.717469-20.403961.040405-40.582809 1.566833-59.859527 9.058349-13.823883 5.372315-26.220124 12.93042-36.782898 23.466767-2.794129 2.787201-3.063141 4.955566-.568924 8.064819 16.033951 19.987671 36.099731 31.967682 62.397659 30.538086 14.725113-.800507 27.667389-6.798828 38.812912-16.513825 1.63205-1.422607 3.182953-2.938995 4.828049-4.345764 2.596344-2.220154 5.139877-2.336303 7.279907.584564 3.44577 4.702973 6.776611 9.48996 10.191544 14.215821 1.468856 2.032715 1.565292 3.799988-.290177 5.762237-13.545547 14.325074-29.772766 23.583313-49.637802 25.047333-38.344498 2.825928-66.159836-15.672851-88.490562-44.725342-4.58403-5.963867-7.974938-12.648407-11.234001-19.421356-1.507706-3.133301-1.259964-5.335388.892028-8.103546 12.367218-15.908081 27.835419-27.587524 46.572861-34.961761 1.083984-.426606 2.170013-.85022 3.236237-1.318177.269943-.118438.467331-.402282 1.066574-.942138-3.115952-1.132569-6.010178-2.184601-9.266678-3.365418m59.594208-61.29483c-21.986084.006027-43.972153.009811-65.958237.019165-9.06044.00386-9.364136.055847-7.980042 9.090957 3.20604 20.928589 14.161942 35.904557 34.460587 43.312943 14.126968 5.155853 28.860031 4.023407 43.47525 4.068054 2.348786.007172 3.154419-1.182495 3.13179-3.462372-.156875-15.8078-.350036-31.616913-.271148-47.424301.022033-4.418258-1.655518-6.147964-6.8582-5.604446z"/></svg>