<svg enable-background="new 0 0 336 592" viewBox="0 0 336 592" xmlns="http://www.w3.org/2000/svg"><path d="m181.164093 116.678024c18.923981-1.104805 35.500671 3.596787 49.164658 16.412918 12.984726 12.179032 19.920257 27.623383 22.92337 44.953873.765472 4.417419 1.370178 8.895218 1.574844 13.366959.163788 3.578262 1.818756 4.559341 5.043946 4.439926 3.992981-.147843 7.999878.074844 11.992492-.077927 3.066468-.11734 5.024292.896149 6.028199 3.964585 1.187774 3.630371 2.759796 7.133026 4.060394 10.728973 1.817596 5.025375.650421 6.628982-4.878967 6.697006-4.830658.059433-9.66269-.004288-14.49408.007507-7.039307.017197-7.169144.014252-7.749893 6.848816-1.037445 12.209488-3.531891 23.97995-9.198426 34.985962-5.746749 11.161805-14.076278 19.668305-25.161483 25.527069-.828781.438019-1.971329.62616-2.239716 1.944642 1.16951 1.901489 3.322052 2.540893 5.140289 3.609985 26.631623 15.659302 36.021546 44.943085 24.903565 71.795105-7.437805 17.963653-22.298691 27.330841-41.008377 30.354095-37.05986 5.988434-64.792175-11.913208-82.916687-42.099273-13.935784-23.209778-20.538422-48.845032-23.808022-75.555664-2.157264-17.623444-2.083679-35.18866-.719726-52.816407.099769-1.289489.628746-2.629821-.432198-4.179763-5.200096-.882828-10.685295-.4375-16.121269-.325409-3.730156.076919-5.962547-1.178757-7.112373-4.760712-1.117218-3.480423-2.647065-6.827301-3.795739-10.298981-1.50132-4.537445-.305641-6.298569 4.408997-6.385834 6.495239-.120239 12.995186.031723 19.491463-.055664 8.798393-.118347 7.271988 1.008576 9.741203-7.166153 4.760849-15.76152 11.432014-30.575592 22.214882-43.194122 13.822815-16.175995 30.950485-26.505974 52.948654-28.721512m46.941269 230.800431c6.195099-18.76471-1.011719-35.220826-13.984314-43.539124-6.994003-4.484711-14.731369-6.899811-22.978394-7.650146-19.783966-1.799988-39.620285-.505646-59.425827-.989258-4.121666-.100647-4.88076 1.798523-4.198059 5.23294 3.278138 16.491181 8.706253 32.126374 18.998261 45.654389 12.570053 16.522278 28.417969 26.289429 50.135284 23.635071 14.239838-1.740479 25.127777-8.139862 31.453049-22.343872m-94.52742-75.789032c16.643967.003112 33.288162-.038514 49.931778.03952 4.363037.020447 8.620621-.577576 12.813415-1.602203 21.231278-5.188324 37.064286-23.107636 40.426529-45.179169 1.305985-8.573151 1.299774-7.750122-6.88565-7.762406-25.631668-.038498-51.263443-.011459-76.895188-.004516-7.656158.002075-15.312484.05368-22.968399.015762-2.713073-.013443-4.309784.837006-4.683998 3.86229-1.945038 15.724182-1.787102 31.476745-.993591 47.253646.113487 2.256379.969009 3.4086 3.293228 3.356659 1.663261-.03714 3.328392.009552 5.961876.020417m1.042541-87.663559c-1.335449 3.665527-3.478637 7.113037-3.263656 11.765411 6.513733 0 12.811935.000015 19.110138 0 26.984039-.000107 53.968078.001831 80.952118-.001801 6.62387-.000885 6.693649-.013519 6.28363-6.73706-.161102-2.641617-.608734-5.278976-1.101349-7.885117-6.08078-32.169723-33.885757-48.767501-64.187286-37.72586-18.941941 6.902267-30.022049 21.846878-37.793595 40.584427z"/></svg>