<svg enable-background="new 0 0 336 592" viewBox="0 0 336 592" xmlns="http://www.w3.org/2000/svg"><path d="m218.3535 432.651062c.557526 3.56131.85315 6.732605 1.704865 9.746735 3.848678 13.6203 14.728119 18.083801 27.089508 11.142334 2.305756-1.2948 4.336151-3.07248 6.537704-4.562165 3.039612-2.056671 5.651337-1.158355 5.479279 2.283661-.33078 6.618988-1.169739 13.228516-2.14151 19.791107-.349274 2.358643-2.890656 3.078095-4.895966 3.8331-13.227523 4.980346-25.288681 2.323669-36.043274-6.263123-12.219009-9.756073-18.034393-23.154083-20.389831-38.259949-1.339874-8.592987-.973557-17.267059-.886932-25.91452.055572-5.549103 1.693786-6.070312 6.804946-4.292145 12.831101 4.46402 19.935456 12.108307 16.723801 26.551819-.386902 1.740021-.010864 3.649719.01741 5.943146z"/><path d="m123.46756 266.9151c1.194 6.029266-.879479 10.095062-5.471321 11.395111-4.154877 1.176331-8.532326-.892273-10.283402-4.859466-1.58612-3.593476-.083992-8.313691 3.329048-10.461029 4.195084-2.639374 8.50721-1.389435 12.425675 3.925384z"/><path d="m230.879883 273.827087c-1.351273-5.62738.088943-9.292022 4.110809-11.236236 3.796555-1.835297 8.170502-.742706 10.587082 2.714386 2.548874 3.646362 2.083023 7.234009-.640198 10.499206-3.606415 4.324158-9.634063 3.55719-14.057693-1.977356z"/><path d="m232.438416 244.873398c1.075286 5.813705-.878418 9.737503-5.20961 11.11969-4.37259 1.39537-8.893952-.664002-10.66861-4.859299-1.575012-3.723343.261261-8.685638 3.943512-10.657013 4.087219-2.188156 8.38446-.72052 11.934708 4.396622z"/><path d="m110.80291 303.938782c-4.654144-.199158-7.634461-2.337494-8.834046-6.404511-.966804-3.277771.083146-6.319366 2.664902-8.530487 2.557923-2.190735 5.574021-2.822174 8.81221-1.434692 3.630974 1.555755 5.216995 4.342499 5.054276 8.252106-.197579 4.747314-2.936478 7.127899-7.697342 8.117584z"/><path d="m246.301147 303.456604c-5.879806.572388-9.73587-1.865936-10.541381-6.33139-.84401-4.678833 1.687652-8.729615 6.226928-9.963288 3.90889-1.062347 8.351929 1.133332 9.867569 4.876374 1.841828 4.548614-.059402 8.712066-5.553116 11.418304z"/><path d="m221.698761 350.846008c-4.246613-2.288177-6.524231-5.385742-5.415756-9.937988.961548-3.948883 3.559021-6.267487 7.853271-6.389801 4.20961-.119904 7.005478 1.834656 8.455704 5.678558 2.328827 6.17273-2.813538 11.419098-10.893219 10.649231z"/><path d="m177.054443 219.927124c4.49234.648376 7.622986 2.473007 8.22229 6.964767.493973 3.702317-.432037 6.923737-3.919815 8.91301-4.442001 2.533493-9.468033 1.029541-11.800445-3.484833-2.242569-4.340438-.353211-9.557434 4.247055-11.577392.896866-.393799 1.900574-.544266 3.250915-.815552z"/><path d="m209.191544 228.834595c2.540176 6.023575 1.391006 10.317169-3.060212 12.630874-4.05252 2.10643-8.758697.698273-11.171798-3.342819-2.092682-3.504501-1.284333-8.179443 1.865463-10.788406 3.256653-2.697495 7.857696-2.248261 12.366547 1.500351z"/><path d="m118.263702 328.635498c-5.832664 2.07608-10.583969-3.025085-11.121864-6.723724-.635208-4.367737 2.220154-8.475647 6.766541-9.569794 4.259109-1.024963 8.76889 1.598206 9.871025 6.140076 1.126388 4.641906-.813034 8.014709-5.515702 10.153442z"/><path d="m236.576035 328.850464c-4.617737-1.934815-7.118378-4.802796-6.217484-9.731201.80069-4.380219 3.714386-6.658356 7.881287-6.932068 4.277252-.281006 7.202911 2.049408 8.553939 6.122589 1.892945 5.707031-2.686462 10.635986-10.217742 10.54068z"/><path d="m132.882263 334.940308c4.021622 2.253753 6.059479 5.291229 5.107926 9.62387-.831742 3.787079-3.325608 6.063538-7.221192 6.621857-3.731613.534821-6.528885-1.007629-8.363403-4.1828-1.62587-2.814026-1.52385-5.852448.063011-8.577301 2.265015-3.889313 6.00454-4.344299 10.413658-3.485626z"/><path d="m209.042206 361.948608c-3.556992 3.788941-7.473847 4.607239-11.454468 1.919556-3.264221-2.20401-4.754349-5.525452-3.306641-9.59256 1.715577-4.819671 6.598755-7.027374 11.359391-5.156097 4.840362 1.902649 6.194839 6.564087 3.401718 12.829101z"/><path d="m126.702728 240.08548c7.79242-.749832 12.672776 3.408676 11.35994 9.352051-.924133 4.183822-3.55336 6.640533-7.994751 6.887176-4.264198.236847-7.131081-1.89859-8.322441-5.730926-1.409683-4.534577.272918-8.127579 4.957252-10.508301z"/><path d="m184.225372 366.789734c-3.064758 3.884155-6.730224 5.046661-10.818939 3.118835-3.210663-1.513794-4.940643-4.381225-4.672424-8.11499.281921-3.924408 2.440719-6.436676 6.108322-7.644348 3.175629-1.045624 5.961578-.022827 8.219864 2.181152 3.011261 2.938813 2.875213 6.470856 1.163177 10.459351z"/><path d="m159.00235 229.315186c2.25975 4.418335 1.780609 8.150787-1.745056 11.092178-2.770844 2.311645-6.086624 2.74765-9.31369.988785-3.642716-1.985443-4.806901-5.305222-4.209916-9.30597.465134-3.117111 2.35289-5.236145 5.240952-6.053085 3.748062-1.060211 7.27626-.519409 10.02771 3.278092z"/><path d="m143.666626 356.140198c1.63562-6.052368 4.900177-8.307465 10.109283-7.391266 3.999085.703369 6.824967 4.474243 6.511445 8.688934-.348771 4.688751-3.877503 7.923493-8.571991 7.85791-4.769104-.066681-7.52739-3.053039-8.048737-9.155578z"/></svg>