<svg enable-background="new 0 0 512 512" viewBox="0 0 512 512" xmlns="http://www.w3.org/2000/svg"><path d="m272.562805 381.590027c7.328858-1.581055 13.569885-4.666504 19.690827-8.117005 7.921966-4.465789 14.215759-3.282745 18.269561 3.206055 4.178528 6.688446 2.331482 14.030548-4.77716 18.98935-25.514069 17.798034-59.509445 18.074707-82.204483.261383-15.928147-12.501984-24.947983-28.765625-24.84285-49.447327.157059-30.892853 27.495499-59.070496 58.404724-60.949036 17.47467-1.062042 33.318909 2.700043 47.603027 12.847107 4.581696 3.25473 6.148621 7.726288 4.943573 13.110748-1.347595 6.021363-5.120208 9.665223-10.705749 10.404328-4.415405.58432-8.116791-1.526184-11.657929-3.693817-8.507843-5.207855-17.636871-7.411011-27.620513-6.91034-18.195328.912415-35.250687 18.395905-35.287583 36.507111-.031341 15.385345 14.482742 31.240936 30.916275 33.942413 5.650238.928833 11.241486 1.255249 17.26828-.15097z"/></svg>