<svg enable-background="new 0 0 512 512" viewBox="0 0 512 512" xmlns="http://www.w3.org/2000/svg"><path d="m214.203705 394.356415c-19.437317 5.174194-38.845871 7.802337-58.494415 8.742523-7.709977.368896-12.279465-2.808075-14.484101-9.658325-1.537704-4.777924.465363-8.943054 6.636872-13.130799 22.35939-15.172149 44.210083-30.977172 63.070648-50.506927 5.553283-5.750336 11.011596-11.594025 15.742904-18.072754 7.782303-10.656616 8.42714-21.784973 2.084092-33.256805-6.127686-11.082306-12.047425-22.26709-17.389817-33.748612-4.357635-9.365173-8.609588-18.776382-9.681289-29.239578-1.905991-18.608704 5.731018-32.888352 19.79689-44.443207 14.08464-11.570251 30.014007-20.406509 44.976639-30.671997 5.137664-3.524811 9.900146-2.019577 13.885559 3.229309 3.080108 4.05658 2.876892 9.118469-1.433808 12.986283-4.061248 3.643966-8.698852 6.693161-13.285461 9.694488-10.724121 7.017517-21.788849 13.488953-31.620453 21.845688-11.689636 9.936035-14.60582 20.946915-8.730011 35.194519 5.722687 13.876266 12.401886 27.275864 19.740952 40.36795 4.822982 8.603699 8.928405 17.550019 9.258285 27.654328.573486 17.565979-8.055786 30.964599-19.195831 43.561249-12.868347 14.550903-27.703659 26.879821-42.301087 39.516967-.85794.742676-1.674804 1.532837-3.07312 2.817627 4.15918.30838 7.403092-.879699 10.648056-1.582031 22.840638-4.943512 45.078659-11.796112 66.256455-21.776855 21.912414-10.326935 37.279938-27.607941 49.691803-47.799164 16.599518-27.003571 24.790039-56.913864 29.291412-87.935364 3.975189-27.395111 5.740692-55.033524 3.829651-82.632431-1.854523-26.782471-9.692596-51.667046-29.487762-71.29554-6.310059-6.256924-13.093079-11.998428-21.686188-14.767212-8.911713-2.871448-16.936615-1.892612-20.089203 9.807381-1.265503 4.696483-1.47345 9.51606-2.34613 14.243164-1.176056 6.370415-4.954316 9.878776-10.066071 9.799194-5.489563-.085457-10.586975-4.408531-10.523926-10.635299.116699-11.524849 1.628845-22.96827 8.891541-32.616303 9.468048-12.57773 22.040893-15.553369 36.840851-11.702959 11.594909 3.016583 21.388733 9.045404 29.962005 17.233561 11.853699 11.321182 22.613587 23.496902 30.581085 37.986686 5.208863 9.472763 6.320862 19.948921 7.634919 30.271012 2.166931 17.021698 2.766388 34.176925 1.989257 51.34085-1.658783 36.638688-5.264465 73.002915-16.995483 108.034638-9.077789 27.108673-22.000366 52.077942-41.771973 73.153625-16.408874 17.49115-36.781005 28.261963-59.151733 35.904206-12.760803 4.359314-25.546036 8.605652-39.002014 12.086914z"/></svg>