<svg enable-background="new 0 0 512 512" viewBox="0 0 512 512" xmlns="http://www.w3.org/2000/svg"><path d="m217.472717 262.527527c13.117081 13.509582 25.984391 26.767975 38.630127 39.798035 2.485047-.129395 3.207123-1.82837 4.269135-3.021424 11.853119-13.315704 23.765899-26.580353 35.44165-40.050262 2.60138-3.001129 4.579224-3.272858 7.945831-1.259522 8.959015 5.357697 18.151459 10.324982 28.202515 15.983124-17.887146 18.550781-35.137756 36.441406-52.678039 54.632477 4.819335 5.087951 9.230255 9.815857 13.71878 14.468841 9.948792 10.313263 19.867432 20.657502 29.957428 30.831391 2.4982 2.518982 2.82608 4.386047.3909 7.122253-3.539124 3.976593-6.855347 8.1698-10.031464 12.445343-2.477844 3.335571-4.410675 3.404633-7.489166.439636-14.159973-13.638183-28.643006-26.94165-42.760102-40.623169-3.283325-3.182006-5.122924-2.752685-8.025268.284424-12.89267 13.491303-26.061066 26.719147-38.950653 40.213349-2.81926 2.951446-4.759461 3.316803-7.652512.203827-4.192383-4.511109-8.62001-8.829407-13.211685-12.934204-2.910217-2.601594-2.8992-4.442109-.277344-7.364319 12.794297-14.259949 25.281983-28.795288 38.098481-43.034882 2.852737-3.169495 2.391769-4.97937-.470215-7.709045-15.312928-14.605011-30.46492-29.378937-45.645569-44.122254-1.399246-1.358917-3.180359-2.459015-3.893494-5.327392 4.186386-2.771485 8.567566-5.691223 12.969345-8.579529 3.06427-2.010681 6.374512-3.713989 9.184433-6.028565 3.963227-3.264618 7.055924-2.844268 9.947953 1.223969.572143.804871 1.380004 1.442139 2.328933 2.407898z"/></svg>