<svg enable-background="new 0 0 512 514" viewBox="0 0 512 514" xmlns="http://www.w3.org/2000/svg"><path d="m343 515c-114.305618 0-228.111237 0-341.958425 0 0-171.263885 0-342.527802 0-513.895849h511.791921v513.895849c-56.361328 0-112.847412 0-169.833496 0m-49.5-353.991272c10.331726-.008804 20.66684.142136 30.99411-.076904 8.276581-.175537 12.039276-4.017533 12.318268-11.86026.271789-7.641236-3.430664-11.680893-11.565918-12.541413-1.485382-.157104-2.992493-.148925-4.489594-.14917-43.326904-.007324-86.653823-.01416-129.980712.016617-2.320694.001648-4.647706.270981-6.960312.521546-4.5103.488632-7.122895 3.118438-8.23114 7.430191-2.661698 10.355743 2.31813 16.629745 13.430648 16.6436 34.494843.043045 68.989746.015778 104.48465.015793z" fill="#fff"/><path d="m293 161.008728c-34.994904-.000015-69.489807.027252-103.98465-.015793-11.112518-.013855-16.092346-6.287857-13.430648-16.6436 1.108245-4.311753 3.72084-6.941559 8.23114-7.430191 2.312606-.250565 4.639618-.519898 6.960312-.521546 43.326889-.030777 86.653808-.023941 129.980712-.016617 1.497101.000245 3.004212-.007934 4.489594.14917 8.135254.86052 11.837707 4.900177 11.565918 12.541413-.278992 7.842727-4.041687 11.684723-12.318268 11.86026-10.32727.21904-20.662384.0681-31.49411.076904z" fill="#040404"/></svg>