<svg enable-background="new 0 0 512 512" viewBox="0 0 512 512" xmlns="http://www.w3.org/2000/svg"><path d="m261.39563 171.332855c-3.555908 5.663849-6.913468 11.023789-10.279129 16.378617-.902359 1.435653-1.861588 3.014663-3.893891 2.372497-5.799285-1.832489-11.559326-3.789184-17.22969-5.662292.320587-3.253067 2.282501-4.737473 3.595184-6.593323 6.419281-9.075546 14.444809-17.032593 18.934143-27.455048 1.669175-3.875168 2.254288-7.984863 3.033936-12.056564.661499-3.454788-.873383-5.413574-4.376022-5.806488-.495774-.055603-.994629-.085266-1.492524-.120377-14.90776-1.051376-21.896255-8.503898-21.446762-23.577179.233444-7.827652 1.72641-15.337112 6.253906-22.234459 8.368027-12.748138 26.81775-9.103942 34.217347-.155128 5.949463 7.195106 8.339203 15.702278 9.64624 24.733063 3.251434 22.46521-3.895416 41.95433-16.962738 60.176681z"/></svg>