<svg enable-background="new 0 0 512 512" viewBox="0 0 512 512" xmlns="http://www.w3.org/2000/svg"><path d="m310.586761 260.625519c3.723237-7.493653 7.72342-14.471756 10.737061-21.852646 3.788391-9.278305 10.506439-16.026154 17.400269-22.816223 2.42633-2.389817 4.107452-1.977509 6.195312.258468 2.726776 2.920243 5.477234 5.862336 8.530396 8.42183 3.177063 2.663421 3.106414 5.147415 1.328003 8.677383-17.377198 34.491974-34.598603 69.06247-51.862122 103.611725-8.18512 16.380829-16.303375 32.795471-24.577667 49.131134-3.467285 6.845337-9.974121 11.062836-15.025086 16.540985-1.065277 1.155365-2.424591.864349-3.550873-.210358-.361511-.344909-.710907-.702636-1.075653-1.044036-12.635208-11.825135-12.638595-11.826569-4.910919-27.284852 10.650177-21.304351 21.309296-42.604248 31.952332-63.91217.803741-1.60907 1.509796-3.266907 2.619415-5.681427-7.131775-.272675-13.359894 1.43277-19.620392 2.308624-26.667068 3.730774-53.303619 7.679596-79.953293 11.535096-5.594375.809356-11.287979 1.173339-16.767944 2.458496-4.535263 1.063659-7.477112-.272583-10.55545-3.471955-8.368577-8.697601-6.716797-5.627197-.947312-14.459076 6.206696-9.501129 15.840668-8.667724 24.72966-10.011017 36.133499-5.460449 72.279434-10.874206 108.508804-15.635162 7.348115-.965607 11.523652-3.77298 13.82309-10.403473.70343-2.028351 1.893921-3.887787 3.022369-6.161346z"/></svg>