<svg enable-background="new 0 0 512 512" viewBox="0 0 512 512" xmlns="http://www.w3.org/2000/svg"><path d="m214.389954 142.404434c-4.910157 4.284729-9.502839 8.398209-14.229752 12.351181-6.059692 5.06752-13.379211 4.618088-18.235275-.970291-4.77826-5.49884-4.303833-13.034424 1.538147-18.283951 10.159912-9.129547 20.477783-18.084198 30.776413-27.05825 13.201233-11.503342 25.831207-23.606392 37.684982-36.483605 3.128906-3.399047 5.170044-3.403717 8.492462-.291442 23.708038 22.208503 47.57666 44.245491 71.377777 66.354675 6.624329 6.153412 7.358521 13.639679 1.973267 19.330978-5.32074 5.623123-12.95221 5.448319-19.466828-.621689-17.429931-16.240417-34.890014-32.450615-52.128448-48.892631-3.306854-3.154068-5.197845-2.981651-8.501663.009582-12.838913 11.624131-25.988983 22.904549-39.281082 34.555443z"/></svg>