<svg enable-background="new 0 0 496 512" viewBox="0 0 496 512" xmlns="http://www.w3.org/2000/svg"><path d="m168.142838 234.008911c4.547439-.960846 5.637298-3.5018 5.600585-7.671707-.199462-22.660309.011704-45.324249-.189209-67.984543-.036376-4.101608 1.366532-5.91394 5.193894-6.983627 8.602325-2.404175 17.096771-5.194336 26.555786-8.111298v75.738281c5.321304-.329254 9.368485-2.346923 13.529266-3.780441 45.798737-15.77893 92.039887-30.038223 139.284333-40.886291 3.563324-.818192 7.110962-1.740097 10.709808-2.358155 3.673462-.630874 6.020966 1.948395 4.543945 5.36644-4.84021 11.200897-8.91391 22.423569-18.048217 31.71283-23.811066 24.214966-43.31836 51.525955-52.332673 84.995102-6.446502 23.935119-8.376556 48.187896-2.566955 72.520416 5.070526 21.236999 17.536774 35.895905 39.810303 39.82901 19.287506 3.405823 37.478637-.424683 53.811279-11.437317 3.847595-2.594299 5.904022-2.599731 8.036713 1.691834 1.695495 3.411743 3.82962 6.666961 6.170471 9.679779 2.497833 3.214904 1.55487 5.250763-1.348847 7.381652-14.912231 10.943421-31.414612 17.950531-49.768982 20.590607-13.165435 1.893768-26.229156 1.492584-39.135559-1.664123-26.583709-6.501954-41.661041-24.286621-48.181335-50.05951-4.837189-19.120178-4.553803-38.45816-2.442536-57.97763 3.943634-36.46109 18.300904-68.52002 39.875641-97.698914 1.778565-2.405426 3.935028-4.530273 5.731537-6.923889 1.67215-2.227966 4.12439-3.863113 5.192444-6.600616-1.305084-1.713578-2.740509-.745011-4.105347-.397294-35.347534 9.005387-69.869445 20.661789-104.358093 32.433487-3.025894 1.032776-4.23024 2.920288-4.233047 5.917588-.005631 5.997726-.056656 11.995437-.057099 17.993148-.003052 41.324982-.013336 82.649933.01648 123.974915.006592 9.154022.078048 18.310028.297882 27.460815.078979 3.287568-.798157 5.064362-4.331742 5.977997-8.959167 2.316437-17.78897 5.133301-26.515869 7.704193-1.801941-2.771148-1.207061-5.163787-1.208694-7.424499-.037369-51.822815-.029633-103.645661-.030365-155.468506-.000031-1.499695.002762-2.99939-.001709-4.499084-.023056-7.734406-.069016-7.840668-6.990265-4.891999-13.63298 5.808106-27.211899 11.743225-40.809067 17.635315-1.833458.794495-3.601257 1.758423-5.472984 2.442749-3.386292 1.238068-5.501938-.414612-4.33561-3.819702 2.694611-7.866974 5.828919-15.585449 8.879456-23.326874.72113-1.830032 2.635323-2.458206 4.247238-3.306701 12.541916-6.601899 25.53537-12.215714 38.977143-17.773438z"/></svg>