<svg enable-background="new 0 0 496 512" viewBox="0 0 496 512" xmlns="http://www.w3.org/2000/svg"><path d="m302.526978 207.674164c-4.473053-17.672348-13.849244-24.90712-33.715851-25.145249-11.167816-.133865-22.204193 1.523484-32.630677 6.186219-4.150604 1.856155-5.747924 4.227859-6.026565 9.000091-1.115906 19.111649-4.447632 37.726685-16.22287 53.656677-1.763351 2.385544-3.840698 4.716141-6.235458 6.42302-6.033463 4.300384-12.65625 6.992676-20.069809 3.724701-6.985749-3.079407-9.165238-9.634461-9.793167-16.349198-2.332734-24.945617 5.293365-46.590255 22.818542-64.55754 2.515884-2.579331 3.229462-4.942444 2.536591-8.441498-1.001572-5.058121-1.780274-10.144715-3.491181-15.035828-5.784164-16.535675-18.248489-23.193054-34.927551-18.143677-4.063187 1.230088-5.698135.442398-6.72995-3.489563-1.181274-4.501587-2.558487-8.992492-4.340027-13.284889-1.950317-4.699051-.107696-6.735115 4.252594-7.888618 28.09993-7.433709 57.066605-.231964 66.414932 34.767273 1.235825 4.6268 2.269349 9.307632 3.520584 14.475769 7.823945-3.017228 15.424744-5.912918 23.43042-7.320298 19.43924-3.417358 38.713318-3.932067 57.42392 3.804627 16.271851 6.728271 24.946747 19.2034 27.611023 36.315872 4.084747 26.236572-4.80899 49.127411-17.982178 71.000656-12.300659 20.424439-26.720062 39.450043-39.22464 59.73526-5.858886 9.504486-11.651092 19.048798-15.808349 29.466644-3.752777 9.404145-5.513489 19.141999-5.000611 29.286377.692597 13.699616 11.503815 23.212098 27.169526 23.782258 9.20874.335144 18.30307-.585053 27.137756-3.209656 3.042877-.903992 4.229278-.17392 4.834869 2.840149.817566 4.069244 1.71933 8.167602 3.120819 12.060547 1.385071 3.84732-.336059 5.450836-3.461975 6.884552-9.710022 4.453613-20.082031 5.938201-30.550293 6.702575-12.483429.911499-24.923584.992768-37.027404-3.267151-15.934693-5.608184-23.815506-17.209564-25.91182-33.485077-2.77745-21.563659 4.217529-40.706512 14.458496-59.040222 12.698807-22.733856 28.204697-43.635254 42.674881-65.215545 8.541687-12.7388 16.58374-25.773926 20.23877-40.991425 1.973144-8.215256 1.922943-16.487747 1.506653-25.247833z"/></svg>