<svg enable-background="new 0 0 496 512" viewBox="0 0 496 512" xmlns="http://www.w3.org/2000/svg"><path d="m230.955353 246.036072c-15.316239-16.904236-30.695175-33.259598-47.046372-49.995453 0 6.130661.011475 11.339508-.001754 16.548279-.155167 61.156219-.331589 122.312378-.449769 183.468658-.014801 7.660584.185227 15.32486.45987 22.981171.123474 3.44223-.907089 5.505859-4.450241 6.67514-8.958176 2.956268-17.791153 6.291962-26.517334 9.419403-1.797302-2.31192-1.273606-4.378509-1.274231-6.299988-.029099-88.325531-.001633-176.651077-.105881-264.97647-.004562-3.865616 1.08078-6.135148 4.67157-7.736191 5.470749-2.43927 10.876251-5.109436 16.022659-8.164658 4.10875-2.439224 6.78862-2.048447 10.256348 1.501267 26.905395 27.541473 53.118515 55.718292 78.646744 84.536453 6.808319 7.68576 13.590912 15.394256 20.571777 23.303528 1.446869-2.319474.908997-4.35373.911804-6.260742.044434-30.330552.103333-60.66153-.045105-90.99141-.019958-4.080902 1.133301-6.373779 5.091828-7.846329 6.950348-2.585495 13.700256-5.709747 20.489074-8.589233 1.690705 2.857529 1.132264 5.237289 1.134186 7.500336.037842 44.329361.078308 88.658935-.052948 132.987945-.012268 4.145417 1.248352 7.244416 3.884674 10.327973 22.855438 26.732788 44.758698 54.226501 65.325897 82.765289 3.110932 4.316681 5.601441 9.076752 8.641755 13.448975 5.070221 7.29132 6.259674 15.044769 4.437957 23.729797-1.574524 7.506226-3.184631 14.942902-6.024078 22.084656-.903809 2.273315-2.326752 3.491363-4.876679 3.453338-2.508026-.037414-3.941223-1.182708-4.839965-3.49237-8.922608-22.92984-23.188721-42.667969-37.614319-62.257721-8.970062-12.181214-18.496613-23.952637-28.559204-36.920654-.135102 3.0083-.280609 4.753631-.281769 6.499054-.016205 24.497833-.193451 48.997955.121368 73.491729.072724 5.659546-1.247406 8.907929-6.990173 10.554322-6.338226 1.817138-12.106293 5.377136-18.54599 7.040802-1.92334-2.020203-1.214111-4.290009-1.216522-6.332734-.046417-39.329803-.082215-78.65982.035156-117.989288.011658-3.908936-.921265-6.954285-3.557465-9.907745-16.087738-18.024201-32.026733-36.181183-48.252868-54.557129z"/></svg>