<svg enable-background="new 0 0 496 512" viewBox="0 0 496 512" xmlns="http://www.w3.org/2000/svg"><path d="m273.204529 215.671204c.17868 2.063491-.362274 3.789337 1.165039 5.857193 6.107544-2.403305 12.389038-4.852951 18.653564-7.345093 10.210816-4.061981 20.553162-7.752503 31.044098-11.021485 4.867615-1.516769 6.173798-.45288 5.303864 4.631791-1.31662 7.695709-2.892578 15.346664-4.275208 23.031616-.569793 3.167038-2.407776 4.710022-5.437164 5.671539-14.133087 4.48584-27.836182 10.1008-41.467621 15.925858-3.86087 1.649856-5.062439 3.883224-5.054047 7.935074.108735 52.642303-.012908 105.285217.185944 157.927001.020752 5.494202-1.518005 8.0625-7.022095 9.219758-6.976593 1.466857-13.800918 3.754058-20.583664 6.009918-3.941757 1.310974-5.102707.052948-5.07434-3.789185.093444-12.660156.034561-25.321441.033874-37.9823-.002045-37.816009-.004242-75.631988-.006332-113.447998-.000107-1.817657-.000016-3.635315-.000016-5.792968-2.76538.088134-4.5737 1.639495-6.440826 2.785492-14.50473 8.902557-28.398392 18.640716-40.799072 30.37445-1.08696 1.028473-2.065613 2.352906-3.828903 1.58374-1.852433-.808013-2.199143-2.481079-1.863862-4.203186 3.130326-16.07901 4.899247-32.461181 20.699219-42.879882 9.273545-6.115052 17.784134-13.476349 27.577515-18.863327 3.563446-1.960099 4.775772-4.311707 4.748504-8.316407-.167816-24.65422.004822-49.310791-.168273-73.964935-.030472-4.340088 1.088546-6.566345 5.609237-7.669678 7.094132-1.731414 13.976029-4.323517 20.967118-6.48883 5.591827-1.731949 6.03128-1.435929 6.03833 4.392395.02658 21.98967-.000702 43.9794-.004883 66.419449z"/></svg>