<svg enable-background="new 0 0 496 512" viewBox="0 0 496 512" xmlns="http://www.w3.org/2000/svg"><path d="m291.102356 226c.000671-18.274658.000671-36.049316.000671-53.321777-1.892181-1.093171-2.831421-.573517-3.690948-.141037-22.895905 11.520401-44.507141 24.86705-62.125244 43.863784-8.149582 8.787308-14.741272 18.447129-17.400696 30.400788-3.173721 14.265411 1.89209 27.036255 13.966568 35.263885 8.453827 5.760498 17.47055 10.332672 27.15863 13.6185 5.398743 1.831055 6.070069 3.525086 3.373352 8.454437-3.997772 7.307618-8.165344 14.523529-12.084961 21.872193-1.446579 2.712097-2.995483 3.376129-5.97879 2.258545-14.921005-5.589478-29.095383-12.559662-41.40332-22.782685-14.922898-12.394958-19.963883-28.686523-18.580963-47.674072 1.936004-26.581131 16.018234-46.448425 34.697677-63.693405 29.012345-26.784378 63.776154-43.887283 100.03122-58.325424 7.731231-3.078888 15.630584-5.733536 23.389953-8.744812 3.185578-1.23626 4.874085-.521393 5.910462 2.815918 1.578186 5.081878 3.404327 10.094848 5.328399 15.058288 1.213471 3.130417.674805 4.95314-2.76773 5.961823-4.146637 1.215011-8.107117 3.098373-12.281311 4.177002-4.09195 1.057373-5.399323 3.151413-5.389496 7.411789.138458 59.99855.094055 119.997512.091156 179.996383-.000153 3.499878.152099 7.010987-.068909 10.497711-.978241 15.433991-3.853638 30.383118-12.052124 43.825684-11.598968 19.018158-29.712158 28.816559-50.395325 34.132355-21.870498 5.62091-44.116348 6.308258-66.272781 1.304504-11.7173-2.646179-22.107254-8.18988-31.251694-16.044617-2.749694-2.361907-3.227798-4.434997-.82817-7.575164 5.460357-7.145447 10.604354-14.536866 15.745544-21.91977 1.972504-2.832611 3.468262-3.734344 6.617065-1.029632 19.281144 16.561676 41.958451 20.357239 66.470871 17.434723 14.386963-1.715302 26.418091-6.877014 33.187653-20.582154 4.037628-8.174285 6.101746-16.966796 6.157745-26.022583.267792-43.32965.317566-86.660644.445496-130.49118z"/></svg>