<svg enable-background="new 0 0 496 512" viewBox="0 0 496 512" xmlns="http://www.w3.org/2000/svg"><path d="m185.876083 253.181641c-14.64273-.000565-28.804977.01538-42.967147-.009293-7.149323-.012451-8.253876-1.699188-5.589631-8.496368 2.430039-6.199707 5.087418-12.316773 7.309388-18.58899 1.207656-3.409027 3.172012-4.500793 6.68872-4.450775 12.326996.175339 24.660385-.065948 36.986084.150391 4.126206.072433 5.466294-1.252014 5.427018-5.415985-.182312-19.325547.038513-38.65506-.172806-57.980011-.044495-4.068589 1.278732-5.921601 5.153793-6.9926 8.619766-2.382324 17.121933-5.190033 25.490128-7.76831 2.25946 2.326126 1.679031 4.774505 1.673156 7.015823-.055343 21.143448-.1949 42.286667-.278244 63.430084-.028671 7.271866.335801 7.611969 7.495972 7.614579 24.992172.009079 49.984543.059341 74.976242-.043427 3.548493-.014587 5.771301.745438 7.23877 4.423187 18.63034 46.691101 36.963958 93.509095 56.341125 139.890351 10.761749 25.759338 4.051178 49.112579-6.37204 72.564453-1.769745 3.981872-5.249389 2.777008-8.248871 2.658966-3.056152-.12027-2.359436-2.786957-2.469573-4.584625-1.694703-27.656708-12.821076-52.521546-23.04303-77.623597-13.687622-33.612548-27.650238-67.113098-41.378266-100.70935-1.334564-3.266144-2.755737-5.199707-6.74353-5.157089-17.492462.186966-34.988266.1147-52.482437.037735-3.333893-.014664-5.229889.626068-5.227814 4.663391.01622 31.650482-.245468 63.301117-.23233 94.951629.009201 22.154572.20256 44.311005.581482 66.462006.079788 4.664612-1.460449 6.85672-6.00589 7.987091-8.495773 2.112701-16.852173 4.785828-25.112747 7.181183-1.839127-2.7034-1.231629-5.100037-1.233124-7.354981-.036942-55.482574-.028412-110.965179-.030136-166.447784-.000229-7.35997-.005524-7.35997-7.774262-7.407684z"/></svg>