<svg enable-background="new 0 0 496 512" viewBox="0 0 496 512" xmlns="http://www.w3.org/2000/svg"><path d="m258.795227 229.821198c14.210297-15.586487 27.800263-31.212128 39.997925-48.074799-2.460663-1.979218-4.542175-1.341309-6.450104-1.343735-37.493332-.0475-74.986709-.03392-112.480087-.047256-7.523361-.002686-8.70961-1.690949-5.960602-8.597275 2.33989-5.878494 5.069916-11.616562 7.117035-17.591583 1.387024-4.048325 3.760635-5.206635 7.800095-5.185364 23.16185.121933 46.324783.036804 69.487335.032303 26.328674-.005127 52.657409-.016312 78.986053.011566 8.429627.008926 11.083863 4.476639 6.918366 11.853668-13.331421 23.609604-29.738404 45.004364-47.598969 65.307419-22.79657 25.91394-46.862121 50.595169-72.450821 73.774612-.596878.54068-1.053314 1.236451-1.410751 1.663361-.149399 1.509583.690033 2.137695 1.483398 2.723114 31.863556 23.511078 58.670807 52.235779 84.416718 82.030853 16.8013 19.443695 32.118255 39.991272 45.511719 61.963532 2.111694 3.464233 2.006927 5.476379-1.486206 7.659912-3.947144 2.467255-7.703705 5.2659-11.382691 8.126739-2.612396 2.031464-4.16336 1.468232-6.075561-1.083007-30.84665-41.154969-67.168-77.055115-106.3275-110.183472-14.507141-12.272827-29.688522-23.682984-45.720077-33.931091-6.271012-4.008728-6.557251-9.530487-.833252-14.565308 26.671615-23.460266 52.002136-48.294922 76.457977-74.544189z"/></svg>