<svg enable-background="new 0 0 496 512" viewBox="0 0 496 512" xmlns="http://www.w3.org/2000/svg"><path d="m273.259583 176.000031c.004852 24.831481.118743 49.163818-.07959 73.493637-.038697 4.751083 1.304077 6.334793 6.185547 6.247131 15.660339-.281204 31.329071-.110367 46.994506-.087357 6.927308.010178 8.20102 1.776886 5.714966 8.066193-2.448364 6.19397-5.212555 12.269165-7.479797 18.526337-1.300293 3.588531-3.480499 4.786773-7.127716 4.751922-12.664459-.121032-25.334564.138001-37.994629-.125519-4.747223-.098785-6.338501 1.33725-6.311188 6.215546.184693 32.99643.175751 65.994812.004608 98.991364-.023895 4.606323 1.406128 6.061676 5.976136 6.013031 18.329772-.195191 36.662994-.091278 54.994842-.054444 8.198944.01648 9.208191 1.569794 6.147339 9.171143-2.114868 5.252106-4.652039 10.380768-6.229462 15.78949-1.56842 5.377838-4.696869 6.500518-9.885223 6.462616-30.329407-.221436-60.664337-.359375-90.990891.010925-14.617797.178467-29.306533.195892-43.80336 2.801697-4.767456.856964-9.406082 2.105804-13.942459 3.780883-1.388168.512574-2.780166 1.231781-4.123748-.229644-1.309708-1.424591-1.329102-2.87619-.609192-4.590241 2.192138-5.219421 4.083252-10.575256 6.47557-15.698639 5.358551-11.47583 16.023941-14.072723 27.153153-15.861206 10.417083-1.674011 20.953064-.642029 31.410766-1.524902 3.487641-.294434 5.03859-1.130554 5.026932-4.929504-.103866-33.830414-.116394-67.661469.015579-101.4917.017166-4.395569-2.26564-4.819153-5.650985-4.805969-15.498566.060425-30.997528.055695-46.496247.023224-7.595581-.0159-8.755722-1.710571-6.025421-8.578125 2.460709-6.189453 5.063919-12.325775 7.366516-18.573181 1.158219-3.142487 2.991165-4.263031 6.350067-4.218323 12.830063.170792 25.667588-.111664 38.494049.162735 4.571045.097794 6.008606-1.24379 5.978501-5.901413-.190659-29.496506.025192-58.995834-.212601-88.491653-.040161-4.982758 1.375977-7.523911 6.223633-8.971772 7.165695-2.140182 14.113922-5.00412 21.175842-7.500122 1.363556-.481949 2.733521-1.376632 4.893402-.308685.899475 10.088028.153778 20.526489.380555 31.434525z"/></svg>