<svg enable-background="new 0 0 496 512" viewBox="0 0 496 512" xmlns="http://www.w3.org/2000/svg"><path d="m265.131958 405.100342c-9.700333 10.779388-21.342346 18.0448-34.583282 22.709472-24.454361 8.615052-49.452042 10.015748-74.726075 4.481446-11.387146-2.493469-21.443512-8.028443-30.434997-15.508545-3.246315-2.700653-3.964142-5.00116-1.052002-8.669281 5.485321-6.909363 10.622818-14.112335 15.590606-21.407288 2.297532-3.37381 3.849701-3.421478 6.97049-.80661 21.960739 18.400299 47.291306 21.682343 74.258255 15.224762 18.898636-4.525482 27.774384-18.103973 30.533951-36.562836 1.711151-11.445983.675735-22.95047 1.23941-34.409362.258133-5.247345-2.219162-6.391724-6.676666-6.879425-17.916672-1.960328-35.024689-6.835358-50.348465-16.493012-24.110703-15.195526-37.077209-37.359772-40.370285-65.629196-2.567596-22.041397 1.670654-42.343079 13.376938-61.157929 16.313461-26.219696 48.48938-39.614654 78.260696-32.878234 17.85788 4.040725 27.405976 15.836624 32.102722 32.641769 4.119141 14.738556 4.750061 29.871643 4.893494 45.013123.209961 22.164459.045197 44.332366.086548 66.498718.003601 1.939972-.522217 4.004852 1.076569 6.235077 10.35791-1.49347 19.987182-5.215912 28.515411-11.584748 17.623596-13.161224 26.099914-31.787262 29.667114-52.664093 4.358215-25.506118 3.962525-51.036911-3.207367-76.15747-.644684-2.258637-.678222-3.826523 1.992035-4.612564 7.634644-2.247376 15.237976-4.600892 23.152191-7.003296 3.461304 7.827575 4.605408 15.745941 5.684876 23.560241 3.584839 25.951432 3.077667 51.834961-3.666809 77.261292-10.823639 40.804733-35.233887 68.041519-78.021668 76.221237-4.010956.766785-5.407867 2.396515-5.31134 6.593048.360107 15.655213.282654 31.32898-3.867493 46.613678-2.913086 10.728516-7.550842 20.620484-15.134857 29.370026m-56.437332-228.990586c-6.186402 3.071488-10.618485 7.85109-13.90448 13.87706-7.405335 13.580246-8.521057 28.001038-6.619797 43.072571 3.48732 27.644226 17.88916 47.093201 43.198944 58.40213 6.574143 2.93747 13.45401 5.374726 21.084763 5.575928.151871-1.58081.357483-2.716522.355865-3.851959-.036865-25.977844.145447-51.959625-.282562-77.931305-.15004-9.106018-1.722076-18.205948-5.172745-26.806198-3.897094-9.712952-10.88916-15.437668-21.490722-15.93869-5.685334-.268677-11.24878.917068-17.169266 3.600463z"/></svg>