<svg enable-background="new 0 0 496 512" viewBox="0 0 496 512" xmlns="http://www.w3.org/2000/svg"><path d="m235.829941 417.996399c.001236-76.99408.004364-153.489166.002014-229.984238-.000229-7.668213-.015686-7.67247-7.605209-7.671341-23.998459.003586-47.996933-.000717-71.995346.037552-1.955765.003128-4.00113-.444549-6.17157.817108-.06752 6.693909 1.64209 13.309983 2.567795 19.985031 2.813613 20.288575 4.315414 40.641922 4.976135 61.120636.499817 15.491059.879181 30.954621.290649 46.43689-.980697 25.798523-3.236572 51.424347-9.612686 76.566528-6.637741 26.173706-19.5802 48.257843-40.822487 65.297059-2.974121 2.385681-4.883018 2.53836-7.521454-.168946-3.017273-3.095978-6.336899-5.906311-9.618118-8.732818-2.123337-1.829102-2.180016-3.461426-.152-5.390412 21.529739-20.478698 29.282341-46.89331 32.609062-75.297912 2.055343-17.549195 2.747093-35.144226 3.120147-52.793183.496407-23.484497.179543-46.94928-1.342849-70.370575-1.121552-17.254364-3.337174-34.429214-7.40036-51.278701-.914513-3.792374-.332985-6.593995 2.162422-9.590989 6.074768-7.295822 12.094406-14.667602 17.620636-22.378326 3.0961-4.319992 6.691467-5.658279 11.8031-5.624527 28.163651.186005 56.329117.09491 84.493973.095596 48.83017.001175 97.66037-.000412 146.49054.001374 1.499725.000061 2.999481.034927 4.499206.035293 3.190399.000763 4.518097 1.314209 3.816773 4.679093-3.394379 16.286773-5.302277 32.778823-6.976227 49.322067-1.861939 18.400894-2.409943 36.852539-3.248047 55.306412-.95404 21.006012-.015167 41.980407.718475 62.931915.685273 19.569122 1.984223 39.166229 7.660889 58.194275 7.073608 23.710724 25.471741 29.62912 46.657532 23.455993 1.714935-.499694 3.287872-1.681518 5.660888-1.298095 2.185242 5.60321 3.381226 11.598602 4.687134 17.538147.663727 3.018646-2.019043 3.948059-4.068695 4.90802-12.513336 5.860626-25.779053 7.834045-39.424774 6.703003-29.147339-2.415863-38.546753-18.641816-44.846802-39.974976-6.551635-22.184998-7.434723-45.189972-8.502838-68.156494-.960571-20.654633-1.001068-41.308045-.414154-61.942108.685394-24.097931 1.910614-48.19484 5.511414-72.091522.367736-2.440445.364898-4.936707.525512-7.282563-2.19992-1.650192-4.446014-1.019241-6.530944-1.023758-23.498383-.050689-46.996918-.033416-70.495392-.0251-6.628785.002349-6.644654.016235-6.645142 6.513595-.005676 76.995041-.069061 153.99025.121063 230.984848.013947 5.648438-1.426239 8.395722-7.140716 9.627777-7.133911 1.538056-14.07457 4.004731-21.054199 6.211213-3.13324.990539-4.406174-.09076-4.40001-3.1987.00795-3.998352-.002487-7.996796-.00534-12.494141z"/></svg>