<svg enable-background="new 0 0 496 512" viewBox="0 0 496 512" xmlns="http://www.w3.org/2000/svg"><path d="m244.547333 427.679047c-22.546738 1.707092-44.424088 4.872131-66.042877 9.65448-12.997681 2.875183-25.77472 6.618774-38.381424 10.937164-2.163407.741089-4.597199 2.883819-6.896332.476654-2.279999-2.387207.060043-4.612213.652969-6.91449 2.738602-10.633514 9.820618-16.533203 19.956757-20.193817 8.753494-3.161255 17.254944-7.124603 26.250458-9.565979 4.517044-1.225922 5.947845-3.26413 5.938781-7.962952-.143036-74.159271-.083709-148.318939-.08316-222.478515.000107-14.134949-.037796-14.092957-13.302841-18.342316-8.883591-2.84581-17.638687-6.00267-25.983063-10.272674-3.070358-1.571152-4.965988-3.616074-5.856918-6.901383-1.00116-3.691772-2.254197-7.315826-3.422303-10.961456-.510772-1.594086-1.264007-3.255249.141007-4.687592 1.527023-1.556717 3.441315-.997452 5.171707-.414489 10.733444 3.616058 21.654175 6.550933 32.695114 9.041885 23.880905 5.387726 48.090378 8.402374 72.447312 10.754303 31.202331 3.012955 62.445037 4.250763 93.762664 4.090591 4.171448-.021331 5.840973 1.237534 5.834229 5.729264-.115875 76.992492-.08963 153.985199-.07251 230.977844.001434 6.493347-2.736175 11.918976-6.395843 16.986633-1.752076 2.426148-3.72519 4.692566-5.595032 7.033844-5.645691 7.069245-12.488526 10.105499-22.013001 9.98996-22.800415-.27655-45.598602 1.175293-68.805694 3.023041m69.507965-243.290772c-2.131104-.338135-4.254639-.909302-6.394501-.97908-27.638794-.901291-55.047104-4.057495-82.348801-8.285431-7.03189-1.088959-7.033584-1.101929-7.033584 6.209045-.000107 71.630585-.002594 143.261185.023559 214.89177.000657 1.782928-.461242 3.656402.76413 5.72522 1.81749-.181824 3.792252-.244263 5.715408-.592041 28.03151-5.069153 56.321976-7.668518 84.76326-8.549988 4.800049-.148773 6.203247-1.5289 6.192688-6.303253-.144806-65.466736-.104614-130.933854-.138916-196.400864-.000946-1.780685.487091-3.69426-1.543243-5.715378z"/></svg>