<svg enable-background="new 0 0 496 512" viewBox="0 0 496 512" xmlns="http://www.w3.org/2000/svg"><path d="m231.479584 272.238464c13.79982 6.483338 22.873932 17.640046 31.766144 28.893097 14.905975 18.863465 27.389495 39.364838 39.877532 59.852967.845337 1.38681 1.37146 3.036743 3.325257 4.16745 4.908172-7.025971 7.842865-14.922211 10.316528-22.971283 7.40741-24.103302 8.475189-48.640259 5.160156-73.556275-2.486267-18.687012-7.127716-36.659515-17.053924-52.798675-17.281769-28.098618-42.523956-42.638459-75.66037-43.61496-18.390595-.541962-35.810028 2.27626-51.672562 12.183472-8.11148 5.066162-8.153427 4.999115-13.904449-2.91214-.489807-.673798-.975067-1.350891-1.468125-2.022293-7.218566-9.829712-7.352157-10.053376 3.007569-16.225632 16.118759-9.6035 33.700958-14.751022 52.360214-16.620651 18.544174-1.858109 36.923431-1.586594 54.942276 3.579055 41.642975 11.938202 66.058258 40.798768 76.473541 81.477372 11.776215 45.994064 8.37555 91.058334-13.452423 133.968643-3.865417 7.598724-8.576355 14.671051-13.941437 21.273163-1.878479 2.311554-1.848266 4.169799-.565246 6.716949 4.723968 9.37851 8.590912 19.112671 11.713165 29.154419 3.352204 10.781281 3.783478 21.564056.513153 32.40741-2.604828 8.63681-6.319183 16.800506-10.471863 24.806183-2.171325 4.185913-5.702606 3.592285-9.051452 3.133789-3.562134-.487763-2.738892-3.779175-2.71695-6.060028.203278-21.103547-5.499756-40.749939-14.457733-59.613556-.625244-1.316559-.914215-2.902039-2.813751-3.863556-4.534454 2.546783-9.160858 5.477814-14.060211 7.843567-34.595307 16.705169-69.907837 19.619262-105.588013 3.984161-13.968384-6.120972-23.995697-16.581512-27.889587-32.000397-2.462296-9.750152-1.050309-19.301513 2.046097-28.47113 10.611557-31.424835 27.708465-58.962952 50.933624-82.656738 3.148269-3.211792 6.727142-5.925659 10.572967-8.326966 6.866181-4.28717 13.923584-5.187988 21.759873-1.727417m39.348388 98.389771c-6.266784-10.011933-12.338501-20.152893-18.852432-30.001373-7.249557-10.960633-14.592254-21.929505-24.822525-30.463532-8.670532-7.23291-14.240814-7.009827-21.234939 1.579926-12.850831 15.782562-22.381196 33.46701-27.573975 53.195892-4.106644 15.602325 1.27861 26.95105 15.594131 34.392487 10.065491 5.232147 20.946717 6.95639 32.19777 7.779693 19.245468 1.408356 36.909591-2.783539 53.347549-12.780121 2.941406-1.788757 3.498138-3.432007 1.674927-6.352691-3.435028-5.502747-6.63852-11.150055-10.330506-17.350281z"/></svg>