<svg enable-background="new 0 0 496 512" viewBox="0 0 496 512" xmlns="http://www.w3.org/2000/svg"><path d="m245.358597 282.406555c-10.873749 7.192841-20.948761 14.831848-30.289032 23.417633-1.236588 1.136688-2.354645 2.448426-4.308945 1.322266-1.900375-1.095062-1.520996-2.727539-1.173996-4.389191 1.765595-8.454529 3.468582-16.922821 5.323837-25.357605.66951-3.043854 2.870896-5.216278 5.001831-7.339355 12.761658-12.714508 27.823258-22.250885 43.531525-30.731751 5.3331-2.879303 7.554779-6.004013 7.427826-12.327118-.451477-22.484176-.056702-44.984115-.276276-67.475219-.043823-4.487153 1.42453-6.598648 5.727967-7.654145 8.515228-2.088546 16.930298-4.585617 26.396759-7.191864v73.287323c2.822113 1.612 4.37146.209549 5.96463-.435409 12.658234-5.124542 25.476013-9.805603 38.495605-13.92331 5.454743-1.725158 6.705597-.523529 5.661011 5.093583-1.245178 6.695877-2.620849 13.375976-3.574127 20.114654-.632874 4.473938-2.720642 6.88205-7.109741 8.266129-11.588867 3.654525-22.87027 8.193252-34.182556 12.638504-3.670105 1.442184-5.018219 3.350448-4.995667 7.348968.158905 28.157196.203522 56.316773.004028 84.473602-.09555 13.485535-.945129 26.962311-5.492889 39.855042-8.3396 23.642639-24.024475 39.942657-48.147095 47.641479-25.962448 8.285981-51.968139 9.079926-77.868805-.144042-7.901535-2.813935-14.905655-7.329407-21.176529-12.969971-2.552826-2.296234-2.963317-4.266998-.753875-7.211731 6.269928-8.356293 12.258484-16.923706 18.35997-25.41095 3.619934 1.414246 5.736267 3.845246 8.161102 5.784393 20.235519 16.182312 43.16098 17.947297 67.149933 11.876496 13.651733-3.454804 20.515381-14.164459 24.261078-26.924805 2.201172-7.498657 3.18988-15.281067 3.192596-23.140961.008789-25.325683.028259-50.651428-.006958-75.97705-.002685-1.936371.498627-3.97992-.901916-6.325837-8.674591 3.402802-16.225556 8.807251-24.401291 13.810242z"/></svg>