<svg enable-background="new 0 0 496 512" viewBox="0 0 496 512" xmlns="http://www.w3.org/2000/svg"><path d="m214.698761 415.239868c-22.854843-16.280731-36.190399-38.712189-44.084869-64.688843-7.844147-25.810974-9.334671-52.234069-7.053421-79.029724 2.362594-27.751327 10.322586-53.525589 26.284988-76.489731 19.169083-27.577407 45.438766-44.070037 78.832001-48.366348 20.000732-2.573242 39.868561-1.730514 58.873352 6.155152 4.937805 2.048858 9.47763 4.863052 13.975372 7.726684 2.819397 1.795059 3.852905 3.71434 2.42804 7.430664-28.183686 73.507889-56.198182 147.080628-84.218842 220.650971-1.172851 3.079406-2.70755 6.064636-3.121338 9.716308 7.026001 4.303711 15.017121 5.324188 22.857849 6.106537 9.777283.975586 19.620606.328735 29.351776-1.286926 16.380158-2.719544 29.251618-11.537384 40.09964-23.572052 2.95282-3.275788 4.969666-4.148224 8.186798-.452606 3.271759 3.758392 6.992676 7.141754 10.662964 10.531219 2.186524 2.019196 2.791596 3.619751.596833 6.229858-17.852204 21.231202-39.910096 34.960572-67.79535 38.413392-17.510986 2.168304-34.894409 1.526092-51.947586-3.237763-3.705627-1.035187-5.091308.203797-6.274276 3.348694-4.21901 11.216064-8.731461 22.323517-12.82544 33.583862-1.398681 3.847016-3.159256 4.854981-7.022033 3.352631-5.576111-2.168671-11.278779-4.06424-17.034836-5.697907-3.346344-.949707-3.680466-2.508514-2.561493-5.443267 4.743759-12.441773 9.250427-24.974701 14.073608-37.38498 1.261475-3.245788 1.612747-5.718048-2.283737-7.595825m83.126343-206.802505c2.175689-5.763352 4.3526-11.526261 6.526733-17.290192 2.795593-7.411499 2.442322-8.205902-5.063476-11.332977-.613343-.255509-1.243103-.486313-1.884064-.658539-20.771576-5.581543-40.819397-3.732254-59.124954 7.707611-20.750428 12.967728-31.993378 32.952957-37.972 56.106705-5.948166 23.035858-6.502381 46.420746-2.796174 69.826507 3.535431 22.327057 10.945099 43.207184 25.396882 61.053925 2.545562 3.143555 4.986312 6.511932 9.132843 8.382446.690597-1.50824 1.307266-2.670257 1.768997-3.890869 8.481567-22.422485 16.953247-44.848724 25.409591-67.280762 12.8013-33.957824 25.589142-67.920761 38.605622-102.623855z"/></svg>