<svg enable-background="new 0 0 496 512" viewBox="0 0 496 512" xmlns="http://www.w3.org/2000/svg"><path d="m192.012589 410.99173c-19.10492-18.784241-29.369263-41.951508-34.853226-67.210877-8.169678-37.630096-8.230713-75.365692 2.652069-112.560165 7.891907-26.972458 21.353302-50.677735 44.676407-67.508713 40.432388-29.177811 97.617203-24.27327 129.536819 20.531921 15.536255 21.808091 23.362366 46.368775 26.480622 72.820221 3.307708 28.058594 2.436859 55.844971-4.331635 83.233002-7.493256 30.320709-21.244904 57.191528-47.006683 76.243225-35.150971 25.995178-85.34961 26.022614-117.154373-5.548614m29.41867-227.081116c-9.320511 6.447342-16.743606 14.604568-22.423614 24.425873-11.560852 19.98996-15.412873 41.978149-16.588105 64.576019-.744339 14.312103.2715 28.61084 2.978684 42.695191 4.998184 26.00354 13.86232 50.154876 32.330826 70.133972 19.624832 21.230011 53.3889 25.800079 76.841537 9.17041 14.844544-10.525818 23.452362-25.750092 28.920654-42.69458 9.495209-29.422333 10.488709-59.493469 4.86731-89.709687-4.531036-24.355331-13.10675-46.97264-30.182281-65.798797-20.268067-22.345932-49.395417-27.628082-76.745011-12.798401z"/></svg>