<svg enable-background="new 0 0 496 512" viewBox="0 0 496 512" xmlns="http://www.w3.org/2000/svg"><path d="m195.822845 279.705414c19.046647-8.295319 38.615204-12.526001 58.973099-12.989563 3.633744-.082733 5.041611-1.211914 4.94957-4.945191-.619721-25.134262-2.189789-50.176559-5.781952-75.092269-.751831-5.214737-2.914047-6.442276-7.795044-6.41417-31.49736.181336-62.996277.095825-94.49469.088501-8.623382-.001999-9.426269-1.213348-6.198227-9.320877 2.155915-5.41478 4.632157-10.723129 6.429047-16.253281 1.516144-4.666076 4.364151-5.872818 8.966919-5.819763 17.496765.201721 34.997284.076508 52.496399.075211 20.832275-.001557 41.664993.070923 62.496414-.063004 4.156006-.026718 6.135406 1.076813 6.939697 5.602784 3.085571 17.363357 5.090393 34.83113 6.606659 52.389663 1.647888 19.082276 2.273224 38.203369 2.836853 57.330338.096344 3.268615 1.589569 4.091034 4.508118 4.594726 17.112762 2.953186 33.182617 8.722596 47.297027 19.051331 22.721833 16.627563 34.725373 39.814545 40.212342 66.855438 2.794525 13.772003 3.509063 27.710236 3.026825 41.718018-.332886 9.670105-1.895478 19.172088-4.239411 28.558136-.746704 2.990173-2.186981 4.471801-5.544006 4.339874-6.107361-.23996-12.230866-.068085-18.97583-.068085.95932-7.736419 2.252594-14.73706 2.628235-21.786621 1.662506-31.20108-3.003052-60.613006-26.0383-84.121277-11.710205-11.950714-26.158172-19.143402-43.14862-22.969848-.576905 5.450622-1.104035 10.476776-1.641602 15.50177-2.867462 26.804321-9.80545 52.318298-24.39801 75.293914-14.019883 22.074006-33.334366 37.010895-59.26146 42.39386-13.894333 2.884766-27.812362 2.668183-41.421203-1.9057-20.8013-6.991242-33.510941-24.816864-35.733231-46.710053-5.295769-52.171631 27.493988-88.338592 66.304382-105.333862m52.170517 89.811432c8.90004-22.115174 11.328263-45.339295 11.906754-68.899201.082275-3.351989-1.297791-4.428283-4.452911-4.263885-16.819779.876404-33.601242 2.120575-49.473816 8.36557-22.705979 8.933594-40.469193 22.811554-44.921418 48.483215-2.231079 12.86435-1.622192 25.683502 6.92833 36.65387 9.712494 12.461181 28.264664 17.14917 46.046066 12.085754 16.753525-4.770782 26.933106-16.399994 33.966995-32.425323z"/></svg>