<svg enable-background="new 0 0 496 512" viewBox="0 0 496 512" xmlns="http://www.w3.org/2000/svg"><path d="m362.348206 190.000122c-.004334 44.324661-.110352 88.149811.117492 131.973267.027893 5.367798-1.445526 7.55545-6.797943 8.521057-11.582153 2.089477-22.261749 6.537079-31.755798 13.773651-16.365692 12.474304-16.269959 39.392303-4.862915 51.003845 9.437011 9.60614 21.26001 10.868042 33.703796 10.159607 18.977905-1.080444 32.829895-10.831543 43.159058-26.125458 2.428955-3.596496 4.245056-4.374847 7.6698-1.226959 3.294738 3.028503 7.088501 5.527985 10.749572 8.13855 2.001984 1.427521 2.427521 2.871887 1.076752 5.030334-14.087524 22.510407-32.24469 39.247132-59.832489 43.112275-12.204102 1.709869-24.259888 1.41278-36.11261-1.821015-22.082336-6.02475-35.446167-21.975677-37.69461-44.635834-1.294617-13.047638-.953125-25.946685 4.589111-38.166015 7.641876-16.848603 21.605011-26.706177 38.062042-33.417053 4.547363-1.85431 6.756561-3.947693 6.316712-9.031006-.429352-4.962128-.184021-9.991822-.074311-14.988312.076935-3.502777-1.200531-5.154114-4.947784-5.14502-31.660187.076661-63.320801.087799-94.980835-.014099-3.846985-.012359-4.8284 1.645325-4.810761 5.124665.087845 17.329376.219315 34.662262-.037323 51.988372-.177215 11.963837-.797195 23.917572-4.475708 35.49585-8.968841 28.229675-27.771774 46.201843-56.482498 53.10675-24.160614 5.810578-46.968017 2.710785-67.111969-13.098388-8.692367-6.821839-8.753906-6.821411-2.444084-15.493042 5.163055-7.095612 10.43351-14.113068 15.546631-21.016998 3.153625 1.002868 4.681778 3.075805 6.478096 4.765991 12.71051 11.959289 27.489288 17.546386 45.131683 15.733276 15.004288-1.541931 25.665329-12.002197 29.014038-29.831512 1.381913-7.357514 2.098008-14.81958 2.100403-22.318909.017517-54.655823.009766-109.311661.006287-163.967484-.000473-7.269668-.010147-7.271408-7.49144-7.271301-23.162079.000336-46.324143.01149-69.486221-.002334-7.120018-.004258-8.271263-1.696824-5.632134-8.477784 2.173653-5.584945 4.770386-11.017654 6.700501-16.681106 1.580902-4.638809 4.1893-6.29776 9.174804-6.260224 29.159188.219544 58.320916.103196 87.481774.102448 2.332824-.000061 4.668518.093918 6.997772.007233 3.196899-.119004 4.547363 1.419128 4.501083 4.518539-.054718 3.664963-.006454 7.33136-.018631 10.997086-.095718 28.823211-.097793 57.647415-.397522 86.468536-.045486 4.374893 1.363205 5.134048 5.395523 5.111526 31.492752-.175979 62.987626-.204956 94.479844.009552 4.396453.029938 5.364074-1.405883 5.349395-5.392715-.112304-30.493546.049378-60.988525-.181427-91.480743-.036316-4.793213 1.560059-6.730851 6.070099-7.768982 8.232178-1.894822 16.330567-4.370942 25.756561-6.952988 0 15.547134 0 30.244995.000184 45.442871z"/></svg>