<svg enable-background="new 0 0 496 512" viewBox="0 0 496 512" xmlns="http://www.w3.org/2000/svg"><path d="m270 181.230804c-37.991135.002106-75.482269.004868-112.973404.003052-7.873398-.000381-8.987869-1.584564-6.108398-8.872375 2.50827-6.348404 5.2612-12.604065 7.61792-19.006775 1.171173-3.181839 3.1165-4.414154 6.361938-4.30925 3.495117.112991 6.99733-.002548 10.496445-.002731 52.320968-.002869 104.641937-.008027 156.96289.000488 9.35022.001511 11.886719 3.923508 8.013276 12.58818-15.056336 33.68042-33.957703 65.282898-52.604157 97.017838-6.159363 10.482788-12.513245 20.851746-18.832275 31.239838-1.431855 2.353881-2.405396 4.211792.872345 6.08728 26.455902 15.137543 47.346069 36.550445 66.620361 59.697082 9.395721 11.283417 17.657654 23.354676 24.472748 36.435913 3.701996 7.105713 2.483123 14.190339 1.420685 21.410706-1.138672 7.738648-2.652588 15.405914-5.243561 22.807526-.737732 2.107544-1.103821 4.611877-4.254181 4.834716-3.191742.225739-4.27887-1.879394-5.465027-4.182189-18.162018-35.259247-43.00708-65.250763-72.464325-91.559723-7.207611-6.437348-14.911316-12.257172-23.045868-17.536225-3.683014-2.390136-5.437912-1.828613-7.784531 1.842346-19.559127 30.597382-39.557128 60.896759-60.768325 90.398468-4.866089 6.768036-9.8098 10.521729-18.355194 9.355439-4.907654-.669831-9.981125-.131806-14.97992-.123535-2.194855.003662-4.260742.053619-5.488235-2.441102-1.208069-2.4552-.044892-4.113037 1.288711-5.885742 14.62439-19.439422 28.713104-39.261322 42.306687-59.433685 35.760757-53.067657 70.09935-107.013229 100.600784-163.32016 2.844574-5.251175 5.528503-10.58934 8.890594-17.046326-9.648742 0-18.353363 0-27.557983.000946z"/></svg>