<svg enable-background="new 0 0 496 512" viewBox="0 0 496 512" xmlns="http://www.w3.org/2000/svg"><path d="m189.331772 166.000259c.005615 57.484253-.066437 114.468735.090744 171.452561.027069 9.812836 1.525833 19.532867 4.748306 28.90625 7.889603 22.949035 25.027954 34.293274 48.119324 37.073273 12.557892 1.511871 25.208938.679626 37.417526-3.832764 20.837677-7.701782 29.872101-23.491516 32.025818-44.62146 2.48056-24.335938-2.062622-48.065155-5.602417-71.886353-3.107727-20.913421-6.166626-41.834793-5.295471-63.049987.789764-19.233506 5.140625-37.524186 15.747009-53.950257 12.736115-19.724396 31.924194-28.969208 54.098297-33.354263 2.764069-.546631 5.574127-.90918 8.3797-1.187073 5.514007-.546127 7.120727.953385 7.173492 6.660675.053925 5.831238-.378753 11.697891.129273 17.485169.49118 5.595794-2.133301 7.20961-7.021607 7.697662-4.951965.494415-9.816162 1.640732-14.55783 3.284454-18.295166 6.342194-27.999176 19.505509-30.418793 38.358521-2.455109 19.129806-1.02414 38.18132 1.535888 57.188492 3.790558 28.143371 9.410126 56.103241 8.408417 84.723816-1.029938 29.426757-12.2182 53.563415-36.905548 70.579864-14.060913 9.691925-30.203888 13.82901-46.734955 16.322815-18.985931 2.864197-37.778976 2.143402-56.084976-4.70932-25.862732-9.681488-40.100601-28.586945-44.851364-55.299988-1.987549-11.17572-2.790924-22.467651-2.809555-33.782348-.098206-59.650055.014755-119.300614-.180222-178.950226-.018341-5.611115 1.467484-8.448365 7.197342-9.635544 6.489838-1.344666 12.755905-3.750671 19.150467-5.586502 1.702759-.488846 3.418549-1.470764 6.240982-.287918 0 6.380951 0 13.140701.000153 20.400451z"/></svg>