<svg enable-background="new 0 0 496 512" viewBox="0 0 496 512" xmlns="http://www.w3.org/2000/svg"><path d="m305.207825 229.375824c9.446228-22.673965 23.805298-40.397095 46.169586-50.762192 11.202179-5.191864 23.177826-6.986786 35.381256-7.693344 4.025665-.233078 6.106537 2.010696 6.240387 5.561539.282227 7.487213.078583 14.992447.092255 22.490249.005859 3.211167-2.165039 3.802323-4.684205 3.869065-5.662078.150039-11.325958.23294-16.989044.34494-12.90036.255157-22.40567 6.503418-29.569305 16.820648-8.532044 12.287964-11.194946 26.550125-13.475403 40.883713-3.113739 19.571228-4.395752 39.304993-5.242828 59.097778-1.025513 23.962738-1.776642 47.920807-1.886536 71.906891-.022217 4.854889 1.494476 6.290619 6.256744 6.235535 18.661957-.215912 37.328095-.103119 55.992524-.061524 7.956207.017762 9.00589 1.60669 6.109527 8.863587-2.222107 5.567596-4.714691 11.04953-6.547272 16.743255-1.488494 4.624878-4.175109 5.792969-8.83081 5.77295-40.994629-.176117-81.990692-.217957-122.985474-.065918-26.155014.097015-52.314178-.623413-78.467697.678527-13.844467.689179-27.528305 1.950501-40.810654 6.183899-3.470413 1.10614-5.739341-.968536-4.516075-4.347717 2.320031-6.408905 4.383538-13.010651 8.109795-18.760223 5.592133-8.62854 14.844772-10.834656 24.106659-12.413666 16.481766-2.809998 33.198227-1.950012 49.814545-2.634033 6.364395-.261994 6.416214-.179138 6.40213-6.473114-.067505-30.157471-1.763748-60.234192-5.345719-90.165497-3.462173-28.930206-8.377121-57.608139-18.870407-84.994934-5.945404-15.517121-13.427963-30.145447-25.779556-41.719574-14.188492-13.295395-30.783722-17.809281-49.76281-13.50145-1.295646.294083-2.600845.552597-3.911033.771134-.297936.049682-.635117-.136017-1.502587-.346299-.388626-5.181381 1.042336-10.289413 1.844979-15.453338 2.292442-14.748673 4.671043-16.851776 19.908782-17.531388 38.943833-1.736862 66.744614 16.110718 83.083237 53.168534 12.167694 27.597717 19.492706 56.487091 23.90625 86.249466 3.613342 24.366241 5.820526 48.825592 7.044052 73.421905.925782 18.611176 1.898056 37.213257 1.88208 55.379059.89148 1.240265 1.709076 1.283081 2.558548 1.281067 11.497956-.027252 22.997956-.177246 34.492554.008301 3.377289.054504 4.313171-1.068146 4.275848-4.279755-.12973-11.163727-.170501-22.332336.006043-33.495087.439636-27.795715 1.034912-55.602478 4.132416-83.251434 1.816345-16.212921 5.004669-32.205734 11.367218-47.781555z"/></svg>