<svg enable-background="new 0 0 496 512" viewBox="0 0 496 512" xmlns="http://www.w3.org/2000/svg"><path d="m270.408569 234.000122c.003785 42.664673.006775 84.829346.011292 126.994019.000732 7.042572.05249 7.245788 6.990814 5.582611 12.164856-2.916169 24.541931-4.344208 36.930725-5.734558 6.205902-.696473 7.352387.655517 6.093567 6.894561-1.346893 6.675599-2.894073 13.317658-3.994019 20.033295-.53543 3.269287-2.033782 4.333008-5.203277 4.714813-29.084564 3.503662-57.199844 10.72934-84.023972 22.622223-16.507095 7.318665-32.310074 15.835724-45.695709 28.23819-1.207367 1.118713-2.390961 2.504364-4.311233 1.206329-1.74231-1.177734-1.449021-2.738006-.99672-4.446991 1.828675-6.909485 3.637696-13.824951 5.358216-20.761993.926773-3.736725 3.364151-6.486206 5.836853-9.160523 11.767776-12.727508 26.260543-21.619964 42.12004-28.003631 7.17891-2.889679 9.363892-6.563904 9.3266-14.247101-.337311-69.495148-.150177-138.992691-.306794-208.489105-.010803-4.79271 1.296799-7.146057 6.048554-8.389115 8.329666-2.179031 16.489532-5.007125 25.814728-7.903152 0 30.674927 0 60.512527.000335 90.850128z"/></svg>