<svg enable-background="new 0 0 496 512" viewBox="0 0 496 512" xmlns="http://www.w3.org/2000/svg"><path d="m369.607117 396.725342c2.848388 14.669037-2.337311 27.332275-7.798737 39.912201-1.255707 2.892425-2.904388 5.616546-4.411163 8.397033-1.666199 3.074616-4.484253 3.202301-7.383545 2.583863-3.047669-.650116-2.20697-3.299042-2.334198-5.322785-.799347-12.718475-4.290985-24.865417-7.750214-37.024383-5.827514-20.483185-11.629455-40.973664-17.455505-61.457245-.351441-1.235596-.820221-2.437805-1.280365-3.79065-2.094238 1.068818-2.345856 3.002167-3.087341 4.571778-10.558625 22.350097-22.034211 44.108246-38.982544 62.488525-21.805695 23.64801-48.598359 32.550568-79.979523 26.205841-19.691269-3.981231-32.55452-17.219482-41.723267-34.417541-8.893997-16.682739-13.117813-34.762818-15.69432-53.312714-2.367661-17.046356-2.710434-34.218475-1.951691-51.342163 1.759949-39.719894 10.18631-77.602646 34.346054-110.294373 14.632889-19.800506 33.455277-34.090896 58.586289-37.408737 28.705123-3.789718 48.062759 4.222275 63.057846 27.50087 12.832214 19.920914 20.576629 42.114838 28.609985 64.177734.619049 1.70015 1.245636 3.397568 2.197784 5.993424 4.169861-9.99881 6.557282-19.633118 9.174012-29.164749 5.854248-21.324478 11.598632-42.681656 17.071014-64.1064 1.150482-4.504181 2.85611-5.689285 7.220642-4.231979 5.197815 1.735565 10.529419 3.132309 15.881592 4.322845 3.880615.863205 4.544372 2.602448 3.559936 6.366837-8.205474 31.377487-16.840271 62.630157-26.6091 93.559997-3.50827 11.107621-7.123718 22.184555-10.927216 33.193619-.977325 2.828858-1.10791 5.313202-.270996 8.171234 8.736054 29.831757 17.758728 59.586151 25.042145 89.821534 1.126343 4.675933 1.867188 9.444732 2.892426 14.606384m-71.648346-70.183411c3.054413-7.563934 5.956146-15.194855 9.230865-22.66217 1.522888-3.472595 1.436127-6.656983.303864-10.12088-7.084687-21.674286-13.76416-43.496308-22.506775-64.582474-5.998383-14.467407-12.056183-29.001724-23.165039-40.535584-12.411621-12.886398-31.763687-15.449249-47.21756-6.444534-12.369217 7.207321-20.938446 17.874863-27.20488 30.503052-14.150619 28.516449-17.071289 59.196533-16.687057 90.361084.145172 11.775177.634292 23.604919 2.605896 35.29657 2.52832 14.993255 5.765167 29.720428 13.753494 42.972076 10.865799 18.024994 27.068878 25.347992 47.412888 21.24884 13.619583-2.744232 23.722106-10.885254 32.252227-21.311218 13.316956-16.276611 22.581665-34.891998 31.222077-54.724762z"/></svg>