<svg enable-background="new 0 0 496 512" viewBox="0 0 496 512" xmlns="http://www.w3.org/2000/svg"><path d="m292.995483 234.080872c7.633912-17.578843 15.331269-34.723557 21.45987-52.445099-2.101654-2.048249-4.390412-1.235565-6.42099-1.237976-45.330048-.05394-90.660233-.036789-135.990387-.038391-8.797363-.000321-9.635895-1.260041-6.334702-9.22815 2.039337-4.922378 4.334793-9.776703 5.882004-14.854538 1.66246-5.456055 4.578568-7.453201 10.470154-7.365051 22.993103.34407 45.994598.118042 68.992966.122177 31.164474.005615 62.328933.022751 93.493393.046844 7.610992.005875 10.353302 3.885132 7.733123 11.236771-12.258545 34.39415-27.301147 67.615616-42.551361 100.748612-.742859 1.613983-2.000824 3.107666-1.582062 5.107971 1.634675 1.334442 3.535767.807739 5.304108.816742 10.66565.054351 21.331848.010681 31.997528.060119 8.101532.037567 9.147614 1.694886 6.000702 9.314881-2.288086 5.540558-4.869141 10.979431-6.804108 16.639862-1.326843 3.8815-3.619995 5.001678-7.447601 4.962463-13.164276-.134735-26.335022.151215-39.494385-.133942-4.531952-.098205-6.773681 1.578553-8.794738 5.523499-16.260071 31.738556-32.926346 63.264008-53.669251 92.394653-4.148071 5.825409-8.739883 11.349762-13.336349 16.837647-8.569519 10.231445-20.236191 14.104431-32.977295 15.689972-11.449906 1.424927-22.949677 1.05426-34.43718 1.037506-5.36795-.007843-6.51564-1.868103-4.422134-6.899262 2.623291-6.30426 5.636856-12.463501 7.925598-18.883667 1.578842-4.428863 4.290253-5.622863 8.653015-5.591186 7.303543.0531 14.611984.257751 21.905151-1.041657 8.005921-1.426422 14.040268-5.710571 19.289215-11.562561 17.165024-19.136963 29.783493-41.286468 42.139466-63.601776 4.105728-7.41513 7.954422-14.972564 12.147964-22.894439-2.741729-1.190827-5.223877-.852814-7.604553-.856965-18.665268-.032562-37.330658.015656-55.995926-.015289-7.21991-.011963-8.433136-1.826813-5.702911-8.437408 2.352264-5.695465 5.082489-11.250641 7.137253-17.048035 1.561828-4.406525 4.313751-5.552216 8.681045-5.519196 20.664002.156159 41.333237-.142059 61.992874.194519 5.5513.090455 8.398011-1.700958 10.450714-6.795166 3.544556-8.796539 7.796967-17.307861 11.90979-26.284484z"/></svg>