<svg enable-background="new 0 0 496 512" viewBox="0 0 496 512" xmlns="http://www.w3.org/2000/svg"><path d="m350.405823 171.241943c-8.221894 29.410584-14.412171 58.843659-17.848908 88.772614-2.735595 23.822998-4.12091 47.792969-3.080719 71.775268.668976 15.424897 1.846314 30.91095 6.99469 45.689026 4.638489 13.314453 11.752899 24.406891 26.798249 27.625824 6.985443 1.494538 13.900482.708924 20.685485-1.391479 1.730866-.535828 3.457093-1.08667 5.65683-1.778961 2.218109 6.128662 3.552063 12.235473 4.936005 18.328155.501953 2.210022-1.1138 3.058289-2.618225 3.676453-20.707764 8.508484-41.634674 10.845459-62.201538.147491-14.131104-7.350372-20.571747-20.827209-24.991913-35.341797-4.537201-14.898986-6.334229-30.313324-6.856812-45.757385-1.143921-33.806763.25589-67.502014 5.541901-101.011902 2.956543-18.74266 6.877808-37.240432 11.50296-55.615494 1.420715-5.64447 1.184174-5.992752-4.654419-5.996002-36.322754-.020248-72.645538-.016281-108.968307-.010315-6.276856.001038-6.371765.111023-6.370926 6.462601.010025 76.310974.0233 152.621948.031677 228.932922.000244 2.16565-.029404 4.331635-.072784 6.496888-.036377 1.814666-.680161 3.318695-2.55571 3.857666-9.263565 2.661987-18.539078 5.28247-27.818375 7.889038-.269409.075683-.628036-.16626-1.006988-.278504-1.315934-1.733215-.827469-3.801758-.828019-5.740295-.026031-90.806946.017258-181.613953-.131546-272.420654-.008331-5.081208 1.524689-6.587601 6.487626-6.577424 60.648757.12436 121.297866.07277 181.946884.097779 5.830169.002411 6.09497.46141 4.371582 6.044708-1.618439 5.243256-3.246826 10.483444-4.9487 16.123779z"/></svg>