<svg enable-background="new 0 0 496 512" viewBox="0 0 496 512" xmlns="http://www.w3.org/2000/svg"><path d="m302.933289 231.852921c-8.899048 16.535202-17.623352 32.745437-26.304291 48.875106 1.952514 1.818909 3.873535 1.238678 5.62442 1.244202 18.160858.057312 36.321991.029511 54.48288.0849 7.511657.022919 8.69403 1.809692 5.903778 8.724579-2.367188 5.866394-5.007386 11.632202-7.132019 17.583465-1.358033 3.803833-3.643128 4.903748-7.511505 4.878144-21.325745-.141449-42.655396.115478-63.977936-.179413-5.047303-.069794-7.689301 1.65683-10.18132 5.926147-14.778336 25.318238-30.203263 50.245484-46.430665 74.668671-.798339 1.201538-2.014038 2.274261-1.696777 4.123321 2.187287 1.599213 4.780686.916871 7.153641.809937 28.142639-1.267883 56.297027-.229767 84.443695-.514343 14.660675-.148224 29.324097-.067017 43.986084-.027649 7.053345.018951 8.300934 1.937774 5.690216 8.606964-2.305817 5.89035-4.904449 11.676147-6.963104 17.649628-1.363495 3.956482-3.605927 5.147033-7.738373 5.133331-42.319702-.140289-84.641281-.256378-126.95961.02652-15.945526.106628-31.975464.256195-47.595902 4.405151-4.413147 1.17218-5.407363-3.039459-7.619293-5.210083-1.953232-1.916748-.477066-3.572021.773621-5.21817 53.591766-70.538941 98.102859-146.65155 138.264313-225.426834 2.492553-4.889054 4.593628-9.978699 6.829528-14.996109.244629-.548966.17453-1.23819.255249-1.901917-2.55899-1.298919-5.091064-.731277-7.515075-.733581-43.153244-.041062-86.306534-.022995-129.459824-.030258-7.997299-.001343-8.857727-1.319138-5.837952-8.882691 2.469071-6.184173 5.050507-12.3246 7.437516-18.539947 1.045044-2.7211 2.821884-3.902314 5.676162-3.858155 3.830826.059265 7.663697-.028839 11.495697-.029098 49.817872-.003342 99.635758-.005005 149.453629-.000077 9.479157.000947 11.985016 3.86023 8.419586 12.940018-9.388183 23.908142-20.907989 46.811554-32.966369 69.868241z"/></svg>