<svg enable-background="new 0 0 496 512" viewBox="0 0 496 512" xmlns="http://www.w3.org/2000/svg"><path d="m307.709564 434.290649c-36.251434-.271881-71.499817-4.3526-105.736633-15.214447-9.696533-3.076233-19.069992-7.037963-27.503861-12.888733-12.374908-8.584747-15.178222-17.551147-9.619949-31.436523 8.922409-22.289459 23.263779-41.046204 38.821762-58.97821 5.34758-6.163544 11.08255-11.965058 17.275391-17.579895-1.608353-1.975007-3.92366-2.066742-5.866226-2.618317-12.705811-3.607636-24.838715-8.617767-36.629242-14.5159-2.999985-1.500732-5.797684-3.297943-8.243515-5.593597-6.247742-5.864136-8.698578-12.629944-5.72052-21.152176 5.664749-16.210693 14.663421-30.614456 24.001022-44.809509 6.290558-9.562912 13.146576-18.753861 19.822144-28.213959-2.084824-1.437882-4.296082-.874573-6.356232-.887207-11.997925-.07367-23.996628-.010056-35.994751-.06366-5.955795-.026596-7.255036-1.970688-5.082962-7.402405 2.534317-6.337539 5.241119-12.61029 7.604629-19.010284 1.275879-3.454819 3.281769-4.920471 7.033539-4.915298 53.659104.073974 107.318451.094711 160.977356-.034775 5.202484-.012558 5.483795 2.790878 5.480774 6.681366-.037842 48.826492-.010162 97.65303-.008209 146.479568.001526 38.661286-.089966 77.322937.084503 115.983399.022583 5.006469-1.409973 7.575714-6.466522 8.70816-9.234894 2.068176-18.014405 5.892456-27.872498 7.462402m-106.776367-54.761322c3.753387 2.846375 7.942657 4.86615 12.35437 6.440461 28.92746 10.322845 59.065338 14.205169 89.454865 16.605926 6.870025.542725 6.909698.190521 6.909851-6.640991.001587-69.637604-.000946-139.275177-.002686-208.912781-.00003-.832977-.065552-1.671036.003632-2.498016.246277-2.943192-.959107-4.207794-4.022919-4.197861-20.990967.068146-41.98233.054245-62.973389-.001724-2.383407-.006348-4.124847.815597-5.583267 2.654632-13.587097 17.132965-26.112091 34.969559-35.672088 54.710587-5.87201 12.125458-4.727814 15.415131 7.322326 21.015915 17.276993 8.030151 35.662415 12.821106 53.901383 18.021301 2.128326.606842 4.75534.579224 5.303985 3.677338.540009 3.048889-.86026 4.922333-3.106506 6.780121-19.36406 16.015014-36.095917 34.509887-50.787338 54.839141-6.137452 8.492737-12.10849 17.144501-15.730027 27.145539-1.384628 3.82373-1.32962 7.159881 2.627808 10.360412z"/></svg>