<svg enable-background="new 0 0 496 512" viewBox="0 0 496 512" xmlns="http://www.w3.org/2000/svg"><path d="m237.694214 246.477631c-1.312256 7.398971-2.515625 14.372528-3.735092 21.4393 2.186905.115936 2.938751-1.357025 3.866989-2.429474 23.912659-27.627426 82.241974-25.412292 99.470398 18.751709 4.343628 11.134522 6.496094 22.596161 7.101471 34.497223.827301 16.264099-.223389 32.272858-5.812348 47.680573-11.036651 30.426056-32.13034 51.180145-62.466186 61.770172-30.276825 10.569366-60.84874 10.139557-90.804276-1.826966-11.014435-4.400024-21.01213-10.774658-29.785965-18.945922-2.514084-2.341401-3.109268-4.100556-.844116-7.101441 5.416885-7.1763 10.455185-14.637909 15.674408-21.964325.854538-1.199554 1.623428-2.538208 3.490875-3.198028 2.931412 2.741516 5.879074 5.647644 8.983048 8.375946 15.304352 13.451873 33.463501 19.39093 53.548767 20.13092 11.204162.412781 22.211685-.629181 33.065597-3.760681 24.55365-7.084106 41.067933-27.03009 43.231842-52.422607 1.038361-12.18509.937378-24.284974-2.364959-36.132355-5.021637-18.015442-18.74585-30.373932-35.119324-31.945648-23.266388-2.233338-40.888382 6.746704-50.318054 25.654022-.668503 1.340362-1.272507 2.71344-1.888992 4.079162-3.389542 7.508942-3.385193 7.501221-11.534516 5.150177-4.154816-1.198669-8.29187-2.477294-12.490799-3.498443-2.891846-.703217-3.83931-2.177796-3.004272-5.030701 5.430694-18.554535 8.761306-37.527161 11.059326-56.68985 2.077774-17.326233 3.906479-34.678619 4.659042-52.12619.157654-3.655258.162033-7.350662.744934-10.945206.672821-4.149139-.53479-5.738464-4.88916-5.69197-15.661224.167236-31.325424.082779-46.988403.050201-6.521683-.013565-7.801254-1.975327-5.342652-7.943344 2.663743-6.465912 5.42244-12.89595 7.918549-19.426178 1.054031-2.757492 2.737961-3.950485 5.606659-3.899475 3.497543.062195 6.99765-.036591 10.496658-.036774 50.654984-.002807 101.309967-.00264 151.964966.007172 1.997193.000381 4.039368-.141037 5.981354.215317 3.145904.577301 4.761841 2.568389 3.511413 5.781555-2.957885 7.600769-6.153839 15.108703-9.13272 22.701568-1.259644 3.21077-3.902924 2.592606-6.314026 2.595108-24.327698.025284-48.655426.016129-72.983139.01532-8.869522-.00029-7.610276-.227646-8.178742 7.212967-1.493881 19.553772-3.375915 39.074204-6.378555 58.907166z"/></svg>