<svg enable-background="new 0 0 496 512" viewBox="0 0 496 512" xmlns="http://www.w3.org/2000/svg"><path d="m292.634552 183.870071c.615479-.970687 1.03299-1.66893 1.479156-2.4151-1.785644-1.849716-3.896392-1.042938-5.746734-1.045791-37.155502-.057419-74.311112-.040726-111.46669-.052399-7.883225-.002487-9.024506-1.66983-6.101288-8.879807 2.439728-6.017333 5.049942-11.969146 7.338364-18.042755 1.156097-3.068374 2.89006-4.43045 6.265533-4.426071 49.485092.064194 98.970337.010147 148.455444.060242 6.410859.006485 8.837922 5.143646 5.557221 11.111709-20.572876 37.425141-46.595886 70.509079-78.596832 98.847672-1.335144 1.182343-2.96518 2.134979-3.891678 4.381439 5.357925 2.022949 11.031967 2.026978 16.427017 3.230133 13.075195 2.915955 25.565247 7.203034 37.283966 13.845948 19.496429 11.051849 28.701904 28.509796 31.564026 49.917144 2.172821 16.251679 1.087555 32.307282-5.378204 47.545929-8.711945 20.532501-23.73404 35.352967-43.77771 44.619049-34.528626 15.962372-70.009339 17.257721-105.841019 4.630036-10.935349-3.85376-20.437943-10.403351-28.859268-18.427643-1.64058-1.563202-3.02829-3.019867-1.409806-5.540558 5.218918-8.128052 10.304047-16.341919 15.486939-24.493347.414169-.651367 1.182175-1.077789 2.164535-1.941986 5.307373 5.504028 11.075776 10.194 17.292466 14.370849 12.318664 8.276612 26.206863 11.208069 40.641555 12.123719 16.162537 1.025238 32.226227 1.057312 47.808625-4.704712 24.953705-9.227326 33.109436-30.241394 30.89508-53.76178-2.741852-29.123596-22.736389-41.110138-48.011871-47.505432-18.797943-4.756287-38.047501-6.097962-57.332962-6.941345-6.284927-.274811-6.623215-.80951-5.978363-7.056794.53125-5.146545 2.874847-8.562133 6.884369-11.879028 26.576751-21.985886 53.094009-44.080902 74.659927-71.317795 4.132355-5.218994 8.000305-10.647339 12.188202-16.251526z"/></svg>