<svg enable-background="new 0 0 496 512" viewBox="0 0 496 512" xmlns="http://www.w3.org/2000/svg"><path d="m218.682541 235.685577c-13.989929 12.408738-21.235855 28.350953-26.438736 45.448578-2.163544 7.109772-2.067383 7.138947-9.374756 6.116913-.164917-.023071-.331726-.033142-.496216-.058502-8.717361-1.343689-8.718536-1.343842-8.718612-10.075348-.000412-39.657333.070983-79.314987-.098801-118.971588-.019119-4.467468 1.311645-6.53122 5.700409-7.551758 6.956665-1.617645 13.762802-3.880707 20.637085-5.855194 5.457382-1.567505 6.082687-1.196014 6.099945 4.547348.06308 20.994751.012314 41.989838.055344 62.984695.003936 1.922944-.57277 3.995285.85913 5.793595 2.553971.359375 3.349808-1.882874 4.639176-3.202774 17.394562-17.806504 38.489715-24.883148 63.25531-23.503418 43.289062 2.411743 64.117065 32.241211 71.755615 63.375488 8.612518 35.103973 9.105621 70.398193-3.464508 104.649078-14.774811 40.258301-44.108917 64.356629-86.164612 72.95221-20.032333 4.09433-40.005173 4.433014-59.802154-1.112793-14.329102-4.014038-26.97255-11.235352-38.066193-21.194428-2.603332-2.337066-2.847046-4.228027-.637375-7.163055 5.30719-7.049347 10.335343-14.317474 15.256409-21.644867 2.271423-3.382111 4.089996-4.209228 7.237366-.859863 29.798263 31.710235 77.554733 28.490692 105.831192 8.725616 17.592102-12.296753 27.443939-30.119598 31.323822-51.083984 4.64627-25.105652 4.332977-50.095337-4.602539-74.295532-7.377869-19.981583-20.260956-34.975159-42.065278-39.613556-18.990768-4.039871-36.705383-.461548-52.721023 11.593139z"/></svg>