<svg enable-background="new 0 0 496 512" viewBox="0 0 496 512" xmlns="http://www.w3.org/2000/svg"><path d="m157.009796 429.345276c-13.356628-.000305-12.787582-.03299-13.524567-12.870087-.667449-11.62561 2.187729-21.091186 9.161301-30.810486 19.10492-26.627136 29.243302-57.370544 36.921829-88.907409 6.611329-27.153717 10.985108-54.681214 13.281433-82.567353 1.639985-19.915847 2.941361-39.828308 2.747483-59.808487-.041641-4.291198 1.624878-5.3806 5.582535-5.372238 39.985824.084351 79.972045.088105 119.957763-.029403 4.607514-.013535 6.006745 1.759063 6.002167 6.218368-.091644 89.468689-.099457 178.9375-.001434 268.406159.005157 4.710052-1.753601 5.834167-6.191376 5.824554-57.812714-.125366-115.625778-.083679-173.937134-.083618m76.734833-185.357239c-3.048203 23.084229-7.259705 45.954895-13.613266 68.362-8.237915 29.052642-17.834244 57.570098-35.648102 82.513305-.454895.636933-.914352 1.431-.335052 2.42807 1.877426 1.259156 4.092392.709504 6.195434.712281 36.641586.048339 73.283737-.023865 109.924149.200622 4.34787.026581 4.429687-1.920868 4.427673-5.10025-.044189-69.119843-.065094-138.239746.037109-207.359467.006165-4.169098-1.377594-5.479889-5.463836-5.446624-18.652771.151825-37.308289.150589-55.960922-.013031-3.911026-.034287-5.14087 1.261886-5.248444 5.148925-.53363 19.282715-1.650955 38.535447-4.314743 58.554169z"/></svg>