<svg enable-background="new 0 0 496 512" viewBox="0 0 496 512" xmlns="http://www.w3.org/2000/svg"><path d="m253.999908 429.34671c-25.992767-.001098-51.486755-.133331-76.977218.107117-5.076431.047851-6.458359-1.458893-6.450607-6.485535.137817-89.307739.12854-178.615783.000747-267.923553-.006622-4.621628 1.445877-6.077347 5.960129-6.06839 53.651184.106567 107.302734.120026 160.953888.006958 4.64331-.009796 5.931061 1.630173 5.92572 6.129257-.106109 89.474426-.109405 178.949051.006989 268.423447.005981 4.589264-1.370819 5.936798-5.944489 5.905456-27.657318-.189514-55.316559-.094696-83.475159-.094757m31.500153-248.989212c-25.319305.000275-50.639816.130036-75.956863-.109054-5.02678-.047455-6.52858 1.345214-6.517304 6.440307.151261 68.461823.08902 136.924103.120499 205.386261.000885 1.912842-.606461 4.006745 1.139984 6.003967 1.120331 0 2.4375.000428 3.754669-.000091 31.482605-.01181 62.965424.038116 94.447693-.073608 9.360748-.033204 9.08374 2.018798 9.08902-9.104859.031616-66.463318.016937-132.926636.009979-199.389953-.000183-1.830796-.162506-3.663422-.11734-5.491944.069122-2.800522-1.243927-3.744827-3.982727-3.694702-6.993744.128037-13.991486.037567-21.98761.033676z"/></svg>