<svg enable-background="new 0 0 496 512" viewBox="0 0 496 512" xmlns="http://www.w3.org/2000/svg"><path d="m272.964844 277c-.000946 10.256836-.000946 20.013641-.000946 29.533875 2.556396.824188 3.981903-.241822 5.488098-.831788 18.146393-7.107788 36.596374-13.34552 55.16037-19.254425 6.15628-1.959533 7.103729-1.059784 5.954101 5.36203-1.112823 6.216492-2.350494 12.41803-3.200195 18.671387-.493408 3.631348-2.279785 5.456238-5.657562 6.667938-17.391999 6.238983-34.669495 12.799225-52.092621 18.947937-4.356262 1.537384-5.794434 3.83368-5.756256 8.39679.207916 24.830597-.001343 49.664673.205688 74.495239.040222 4.822876-1.431793 7.198486-6.26654 8.313049-6.958924 1.604279-13.737702 3.984009-20.608826 5.979493-1.546799.449218-3.108017 1.382721-5.371979-.000611 0-26.394714 0-53.153167 0-79.319458-1.336059-1.318634-2.157745-.968109-2.884338-.634796-17.119736 7.853821-34.10611 15.970978-49.654495 26.727631-3.137513 2.170624-5.959412 4.797821-8.923752 7.2182-1.126557.919861-2.080933 2.338227-3.862381 1.265412-1.483597-.893402-1.966293-2.257385-1.623062-3.858551 1.915786-8.936768 3.830429-17.874329 5.847519-26.788544.62622-2.767486 2.84259-4.461334 4.943451-6.095306 13.386673-10.411652 28.29982-18.362183 43.854263-24.707611 9.372055-3.823334 13.107269-8.541474 12.424866-18.991639-1.071412-16.406677-.284455-32.934722-.284455-49.309814-2.016449-.736755-3.308777.302673-4.580673.899719-20.057602 9.415436-40.286057 18.55188-57.210007 33.344025-1.042144.910889-2.079818 1.772674-3.545517.995972-1.611831-.854096-1.771286-2.375916-1.443817-3.899811 1.920136-8.935303 3.818955-17.876892 5.911347-26.772522.679138-2.88736 3.112869-4.658753 5.344787-6.400482 14.460266-11.284562 31.09256-18.729035 47.646317-26.124253 6.177994-2.759964 8.219314-5.941772 8.0522-12.619735-.48761-19.487015-.083862-38.994858-.249481-58.492661-.032303-3.802154 1.121155-5.702255 4.895721-6.679748 7.405381-1.91774 14.759384-4.093628 22.005936-6.543381 4.647858-1.571228 5.523743.36734 5.505768 4.412384-.080658 18.165436-.048798 36.331421-.022553 54.497177.003083 2.134033-.348968 4.334488.786682 6.588882 2.737305.613587 5.040314-.969375 7.407868-1.898452 17.369598-6.816498 35.063049-12.694474 52.834198-18.346268 5.605591-1.782761 6.786041-.698929 5.763153 4.984634-1.118164 6.21283-2.541718 12.387833-3.290192 18.644181-.51712 4.322387-2.678894 6.205749-6.597534 7.537963-17.496368 5.948197-34.829285 12.350541-52.001312 19.198945-3.740723 1.491851-5.064819 3.4682-4.963593 7.389953.232148 8.99353.065491 17.997376.059754 27.49704z"/></svg>