<svg enable-background="new 0 0 496 512" viewBox="0 0 496 512" xmlns="http://www.w3.org/2000/svg"><path d="m310.197388 227.150269c-10.424073 16.701873-20.564301 33.156707-31.00943 49.415649-2.229981 3.471222-2.127533 5.956512-.031281 9.404327 27.613251 45.416443 55.086609 90.918 82.572632 136.411744 1.171326 1.938781 2.708923 3.761932 2.966736 6.959167-7.553894 0-14.939667-.836395-22.056854.189789-11.589814 1.671051-17.676117-3.236664-23.394043-13.065735-19.349457-33.261658-39.769776-65.900421-59.800873-98.765076-1.266205-2.077484-2.703217-4.050811-4.250214-6.354675-3.343139 3.24353-5.072281 6.862427-7.16008 10.197388-21.571228 34.457214-43.145324 68.912872-64.570099 103.461059-2.013336 3.246582-4.189773 4.552368-8.006744 4.432129-8.619171-.271515-17.252762-.085296-25.808853-.085296-.609848-3.07013 1.195114-4.645234 2.293274-6.388031 27.889053-44.260346 55.769546-88.52649 83.860031-132.658906 2.710129-4.257843 2.857498-7.315795.189255-11.669097-25.248902-41.193818-50.267334-82.528885-75.342911-123.828888-.843018-1.388459-2.012619-2.667496-1.906967-4.425431 1.522278-1.715881 3.465606-1.240341 5.227463-1.2527 8.666168-.060837 17.340423.165817 25.996292-.14325 4.560409-.162872 7.252655 1.467926 9.613311 5.388489 19.080399 31.688827 38.360398 63.257507 57.593445 94.854339 1.013855 1.665589 1.680054 3.627701 4.098877 4.933548 4.731934-7.598846 9.483124-15.163665 14.170563-22.767776 15.99881-25.953888 32.038788-51.882965 47.881134-77.93216 2.014679-3.312713 4.306671-4.546829 8.045563-4.464263 8.595062.189804 17.197174.06015 25.796447.06015.319977.486038.639954.972076.9599 1.458099-15.917205 25.439468-31.834411 50.878937-47.926574 76.635407z"/></svg>