<svg enable-background="new 0 0 496 512" viewBox="0 0 496 512" xmlns="http://www.w3.org/2000/svg"><path d="m233.200638 211.998352c.013382 4.832413.106842 9.167145.010254 13.49765-.065232 2.925171 1.037872 4.195664 4.096512 4.183487 19.164947-.07637 38.330505-.079376 57.495391.003662 3.155274.013657 4.026764-1.434463 3.99054-4.272552-.072296-5.664871.006134-11.332001.055359-16.997895.017486-2.01004-.061402-4.107452 2.471832-4.874038 9.5094-2.877793 19.016358-5.763779 28.19931-8.548187 2.326416 2.09848 1.702485 4.227157 1.704926 6.122573.03595 27.831223-.070862 55.66301.092102 83.493302.025665 4.378479-1.277313 6.771148-5.621887 7.835052-8.660736 2.12088-16.95932 5.634644-25.556061 7.181214-1.781342-1.92627-1.274017-3.846253-1.28418-5.614716-.055633-9.665649-.139434-19.333252.007996-28.996826.052154-3.417084-1.070892-4.721283-4.596069-4.699463-18.831208.116547-37.664917.172363-56.494599-.03595-5.075424-.056152-4.586181 2.993225-4.585129 6.222077.016297 50.162994.013489 100.325958.027665 150.488952.002731 9.648316.319137 8.261841-8.089508 10.732666-6.225876 1.829377-12.432511 3.724793-18.667328 5.522828-1.551514.447418-3.099594 1.419525-4.925675.435058-1.313431-1.656097-.829986-3.727539-.83052-5.665954-.023926-88.9935.0186-177.987046-.127869-266.980301-.007996-4.858765 1.386963-7.233643 6.157349-8.365281 6.62738-1.572158 13.090728-3.826629 19.647537-5.708053 6.512512-1.868714 6.833816-1.626984 6.838257 5.045929.013199 19.831741-.008805 39.663528-.016205 59.994766z"/></svg>