<svg enable-background="new 0 0 496 512" viewBox="0 0 496 512" xmlns="http://www.w3.org/2000/svg"><path d="m244.6745 185.999939c.001937-9.331497.101699-18.164581-.044999-26.993591-.053024-3.190888 1.068741-4.807419 4.213517-5.664917 7.380645-2.012513 14.655242-4.410218 22.004974-6.540863 5.880707-1.704773 6.323547-1.354309 6.329681 4.686218.018097 17.829559-.00473 35.659164-.01123 53.488754-.000855 2.288712-.000092 4.577423-.000092 6.697724 2.840576.886245 4.572571-.383912 6.360138-1.081086 17.687439-6.898315 35.633698-13.049225 53.740967-18.739395 6.217194-1.95372 7.19278-1.144119 6.039002 5.336075-1.16446 6.540085-2.83371 13.003738-3.705262 19.577316-.498932 3.76294-2.658447 4.873825-5.675506 5.912125-16.999482 5.850189-33.864746 12.064621-50.656342 18.495804-4.650268 1.781051-6.22406 4.099762-6.208771 9.057403.172669 55.987732.044953 111.97641.227784 167.964081.017669 5.407562-1.378357 8.078949-6.950898 9.303375-8.2182 1.805817-16.221389 4.590363-25.411163 7.278351 0-28.051452 0-55.181152 0-82.75299-1.594681.381835-2.266922.415557-2.816421.692718-20.363877 10.270172-41.126999 19.86908-58.768982 34.742798-1.158478.976715-2.244996 2.093017-3.920777.892944-1.406891-1.007538-1.70256-2.261047-1.336761-3.924713 1.926834-8.76355 3.610031-17.584747 5.732483-26.299499 1.008072-4.139069 4.764404-6.272248 8.013015-8.558747 14.638382-10.3031 30.628174-18.215057 46.737748-25.837799 4.54245-2.149414 6.357284-4.617584 6.24208-9.795807-.366836-16.488403-.120544-32.990112-.164428-49.486541-.004731-1.77652.482986-3.660126-.645188-5.377198-1.975036-.649353-3.564773.48523-5.157181 1.23645-19.587783 9.240906-39.284149 18.306977-55.854492 32.701905-1.041565.904815-2.079635 1.787018-3.540573.969909-1.561355-.87323-1.727569-2.253143-1.373764-3.878173 1.908875-8.76764 3.793152-17.54068 5.651657-26.319153.529617-2.501679 2.442581-3.935608 4.176071-5.435608 8.129242-7.034226 17.529404-12.10611 26.998398-17.003143 8.429871-4.359665 16.966553-8.530625 25.600434-12.468354 3.020187-1.377441 4.275817-3.041824 4.232162-6.385391-.156616-11.995209-.05864-23.993713-.057281-36.490982z"/></svg>