<svg enable-background="new 0 0 496 512" viewBox="0 0 496 512" xmlns="http://www.w3.org/2000/svg"><path d="m170.672607 416.985413c-.002212-87.140046-.004531-173.783295-.005661-260.426529-.000091-7.485993.003571-7.5206 7.351563-7.520737 52.819031-.0009 105.638077.00795 158.457107.02948 6.827027.002792 6.855164.044708 6.855652 7.045273.006256 88.809311.005524 177.618606.000061 266.427933-.000427 6.79309-.023285 6.805664-6.856659 6.805999-52.319183.002625-104.638366.011627-156.95755-.011505-9.810852-.004333-8.742996.925812-8.843231-8.855011-.010238-.999267-.001175-1.998749-.001282-3.494903m76.827393-18.935669c19.645264-.006501 39.290985-.08136 58.935425.043884 3.513824.022369 5.15683-.843048 5.14505-4.671906-.092743-30.132904-.090058-60.266265-.016571-90.399261.009033-3.705841-1.405518-4.744476-5.059754-4.729614-32.630584.132934-65.262115.135711-97.892685.007263-4.064971-.015991-5.547653 1.196228-5.53038 5.370361.122635 29.633789.111801 59.268585-.014587 88.902374-.017426 4.088166 1.343597 5.60257 5.47583 5.544495 12.650375-.177765 25.304809-.066132 38.957672-.067596m-44.358475-196.549591c.00119 19.998031.121201 39.997268-.083877 59.993194-.048447 4.724487 1.328766 6.286469 6.211593 6.254395 31.495606-.206818 62.99321-.111115 94.490158-.116303 7.491578-.001251 7.808869-.263946 7.818909-7.872741.031677-23.997635.018036-47.995331.010101-71.992997-.000457-1.331176-.172729-2.663421-.150604-3.993271.042755-2.573089-1.209839-3.438827-3.712158-3.435211-33.496643.048508-66.993439.055146-100.490082-.000503-3.0307-.005036-4.171493 1.215576-4.11383 4.165939.104171 5.330627.023956 10.664887.01979 16.997498z"/></svg>