<svg enable-background="new 0 0 496 512" viewBox="0 0 496 512" xmlns="http://www.w3.org/2000/svg"><path d="m335.222137 395.07843c-12.5932 24.143219-33.27536 35.49588-58.996307 38.943085-22.274399 2.985321-44.114365 1.59137-65.182861-7.134827-14.607483-6.050171-24.437302-16.997528-31.950272-30.364349-10.105499-17.979309-14.853882-37.603089-17.463058-57.880554-2.768174-21.513001-3.571244-43.12674-2.797257-64.757386.964234-26.94696 2.756043-53.861023 13.016525-79.287674 5.809739-14.397216 13.458542-27.640731 26.980103-36.280365 10.88562-6.955368 23.314484-9.892089 35.860977-11.441177 19.063278-2.353714 38.040665-1.703735 57.012222 2.463562 22.931824 5.037232 37.916413 18.726059 47.648133 39.441712 8.55011 18.200363 12.083526 37.506988 14.051575 57.29866 1.798828 18.089828 2.478057 36.217148 1.755065 54.347275-1.034484 25.94104-2.880004 51.818573-11.791107 76.579956-2.204071 6.124511-4.897278 12.017547-8.143738 18.072082m-111.684814-72.954437c-8.519592 4.547638-17.038391 9.096802-25.559357 13.641876-2.142227 1.1427-4.030685 2.372589-3.465423 5.341797 2.368179 12.439575 5.020233 24.815369 11.057892 36.095825 6.470398 12.088898 15.780792 20.833466 29.42427 24.503906 14.136658 3.803162 28.331558 3.938843 42.45311.634247 14.200806-3.32315 24.864624-11.405121 31.321136-24.86911 4.944336-10.310547 7.970276-21.13211 9.892182-32.311889 4.106689-23.888398 4.282532-48.003937 3.968048-72.140229-.012024-.923614.350983-2.054168-1.366791-2.925049-32.166687 17.119477-64.624054 34.393647-97.725067 52.028626m66.708557-138.901321c-13.042267-6.76207-27.145325-7.715363-41.336548-6.689698-20.802948 1.503525-37.579147 9.756455-45.923126 30.357712-1.743973 4.305847-3.370331 8.683655-4.677017 13.137955-5.000534 17.046249-6.105698 34.652572-6.877319 52.247452-.45636 10.40625-.083451 20.848876-.083451 31.091217 2.084519.71289 3.138687-.340912 4.25351-.931946 39.699722-21.046997 79.362396-42.164032 119.104553-63.130448 3.639313-1.919967 4.649231-4.323471 3.695038-8.049331-1.277283-4.987488-2.22641-10.071945-3.745178-14.982163-4.196412-13.567398-11.119446-25.246429-24.410462-33.05075z"/></svg>