<svg version="1.1" id="Layer_1" xmlns="http://www.w3.org/2000/svg" xmlns:xlink="http://www.w3.org/1999/xlink" x="0px" y="0px"
	 width="100%" viewBox="0 0 496 496" enable-background="new 0 0 496 496" xml:space="preserve">
<path fill="#000000" opacity="1.000000" stroke="none" 
	d="
M316.914612,385.132477 
	C293.463959,389.435883 270.177826,390.419159 246.861069,389.873810 
	C225.072205,389.364227 203.320007,387.965118 182.299088,381.269135 
	C153.072189,371.959229 136.789139,351.433716 130.654434,322.032623 
	C123.916290,289.739594 124.546677,257.216766 127.582207,224.610489 
	C128.887314,210.591751 131.671570,196.931641 138.184937,184.355484 
	C147.477295,166.413574 163.253967,156.849258 182.109756,151.717422 
	C201.176300,146.528229 220.724213,145.290039 240.391266,144.528610 
	C258.402618,143.831253 276.344147,144.403549 294.260956,145.784790 
	C311.042603,147.078522 327.686523,149.595184 343.257812,156.454742 
	C364.489716,165.807922 376.628845,182.699142 382.275909,204.725128 
	C386.134521,219.775528 387.956818,235.127670 388.238739,250.619278 
	C388.529602,266.600586 388.846344,282.609741 387.276184,298.553467 
	C385.807373,313.467987 383.557922,328.247101 377.645203,342.185822 
	C368.395325,363.991608 351.084656,376.075012 328.975983,382.269806 
	C325.137085,383.345428 321.215118,384.124573 316.914612,385.132477 
M190.283859,186.758011 
	C179.496780,192.885193 173.137344,202.369675 170.322510,214.170959 
	C165.261673,235.388702 165.150040,256.985840 166.016846,278.631500 
	C166.610779,293.463135 168.070587,308.129883 173.154648,322.231262 
	C177.049332,333.033783 184.034836,341.122894 193.989807,346.765320 
	C207.404526,354.368683 222.290756,356.654663 237.216415,357.397583 
	C259.474121,358.505432 281.796448,358.667297 303.790436,353.665131 
	C324.900604,348.863983 338.610657,336.568329 343.727631,315.208771 
	C346.372345,304.169067 347.170959,292.938965 347.981720,281.651978 
	C349.408173,261.793854 348.400787,242.123825 344.564819,222.631073 
	C341.399994,206.548889 333.980530,193.351013 318.425232,185.897568 
	C307.275391,180.555023 295.355835,178.544205 283.268188,177.372574 
	C264.669220,175.569855 246.027084,175.710220 227.422638,177.356384 
	C214.814575,178.471970 202.300262,180.209335 190.283859,186.758011 
z"/>
</svg>