<svg version="1.1" id="Layer_1" xmlns="http://www.w3.org/2000/svg" xmlns:xlink="http://www.w3.org/1999/xlink" x="0px" y="0px"
	 width="100%" viewBox="0 0 496 496" enable-background="new 0 0 496 496" xml:space="preserve">
<path fill="#000000" opacity="1.000000" stroke="none" 
	d="
M320.955505,227.712738 
	C329.783783,229.065277 338.178528,230.380859 346.258575,233.029663 
	C349.825470,234.198959 350.710205,232.934296 350.694794,229.612976 
	C350.625244,214.613800 350.603271,199.613663 350.713043,184.614960 
	C350.736694,181.382355 349.572662,180.094101 346.344543,180.189972 
	C341.682465,180.328445 337.012695,180.200485 332.346222,180.200546 
	C265.681641,180.201218 199.017075,180.205811 132.352509,180.204666 
	C124.992546,180.204529 124.993637,180.190781 124.988388,172.659866 
	C124.984314,166.826736 125.214409,160.980698 124.898285,155.164429 
	C124.631363,150.253387 126.217644,148.528168 131.387512,148.566238 
	C162.218216,148.793427 193.051422,148.678497 223.883789,148.679596 
	C276.382141,148.681458 328.880493,148.681595 381.378845,148.689651 
	C388.322662,148.690720 388.342712,148.710175 388.342468,155.477478 
	C388.341125,194.642914 388.244446,233.808746 388.426514,272.973297 
	C388.449951,278.006042 387.044556,279.685577 381.954224,279.469391 
	C372.970581,279.087799 363.958618,279.293213 354.959991,279.390320 
	C352.220978,279.419861 350.111725,278.901337 348.916534,276.120300 
	C344.925415,266.833588 336.802094,263.339966 327.733246,261.290558 
	C310.229614,257.335022 292.388824,257.437408 274.596313,256.904663 
	C253.276260,256.266266 231.982803,256.560211 210.716187,258.294769 
	C202.723114,258.946716 194.832748,260.231445 187.190018,262.641541 
	C175.200607,266.422333 168.264297,274.723297 166.699585,287.159546 
	C164.796844,302.282440 165.040176,317.363617 168.972504,332.210571 
	C170.993271,339.840149 176.021362,345.064819 183.136490,347.973602 
	C198.141739,354.108032 214.016922,353.978149 229.850021,353.733063 
	C232.642960,353.689850 234.070358,351.202087 235.717331,349.410767 
	C244.411194,339.954987 253.744247,331.218475 263.810272,323.219696 
	C285.554993,305.940704 310.662903,297.910400 337.972839,295.603577 
	C352.756592,294.354797 367.559845,294.089233 382.382111,293.973724 
	C386.803650,293.939301 388.655487,295.233032 388.425385,299.974884 
	C387.723816,314.433502 389.254456,328.937653 387.423126,343.393402 
	C384.633636,365.412567 371.418396,379.484100 349.613831,383.242950 
	C341.733185,384.601501 333.817383,385.432281 325.778961,385.394562 
	C291.447693,385.233459 257.110107,385.587128 222.786118,385.041809 
	C204.686417,384.754181 186.546829,383.656403 168.808624,379.287476 
	C147.144211,373.951447 132.799591,361.553741 128.565430,338.799469 
	C125.030586,319.803192 124.291908,300.718475 127.043053,281.661591 
	C130.571472,257.220612 145.435638,242.272629 168.365417,234.507889 
	C183.139648,229.504868 198.402405,227.048019 213.837433,225.848587 
	C227.269592,224.804794 240.784058,223.969955 254.237595,224.244705 
	C275.847809,224.686050 297.529449,224.445618 319.009399,227.636200 
	C319.499847,227.709030 320.006134,227.675262 320.955505,227.712738 
M336.648346,352.414215 
	C347.209290,348.690460 350.259705,335.501343 349.658752,327.162323 
	C349.443207,324.171234 347.467316,324.294861 345.380035,324.506439 
	C339.596558,325.092773 333.824554,325.818817 328.031219,326.276917 
	C306.330170,327.992981 289.449432,339.105743 273.762054,353.842743 
	C291.709534,353.842743 309.117615,353.854187 326.525696,353.832275 
	C329.686615,353.828278 332.828125,353.542633 336.648346,352.414215 
z"/>
</svg>