<svg version="1.1" id="Layer_1" xmlns="http://www.w3.org/2000/svg" xmlns:xlink="http://www.w3.org/1999/xlink" x="0px" y="0px"
	 width="100%" viewBox="0 0 508 510" enable-background="new 0 0 508 510" xml:space="preserve">
<path fill="#FFFFFF" opacity="1.000000" stroke="none" 
	d="
M226.000000,511.000000 
	C150.666687,511.000000 75.833366,511.000000 1.000040,511.000000 
	C1.000027,341.000061 1.000027,171.000122 1.000013,1.000131 
	C170.333237,1.000088 339.666473,1.000088 508.999756,1.000044 
	C508.999847,170.999863 508.999847,340.999725 508.999939,510.999786 
	C414.833344,511.000000 320.666656,511.000000 226.000000,511.000000 
M222.095337,251.230560 
	C218.774734,244.921432 215.400177,238.640030 212.142929,232.298355 
	C198.501297,205.738861 184.917847,179.149429 171.210938,152.623734 
	C170.486877,151.222534 168.843597,149.333496 167.599472,149.311646 
	C154.024048,149.073456 140.442871,149.162506 126.248085,149.162506 
	C127.238541,151.262512 127.865730,152.772964 128.638748,154.204666 
	C144.866440,184.260162 161.110519,214.306854 177.351608,244.355118 
	C191.934830,271.336121 206.503296,298.325134 221.106827,325.295135 
	C231.448563,344.394379 241.818207,363.478577 252.224091,382.542908 
	C254.111160,386.000122 259.457581,386.187744 261.262909,382.866516 
	C274.270355,358.936646 287.227875,334.979614 300.197784,311.029327 
	C313.639923,286.207153 327.041809,261.363098 340.527618,236.564697 
	C356.052826,208.016190 371.652893,179.508423 387.198761,150.971130 
	C387.464050,150.484100 387.455231,149.847702 387.599976,149.158997 
	C375.134216,149.158997 362.970398,149.259201 350.810608,149.082504 
	C348.066101,149.042618 346.701355,149.910446 345.511047,152.323349 
	C342.015747,159.408859 338.195587,166.333191 334.584229,173.362549 
	C314.726440,212.014969 294.908142,250.687653 275.041443,289.335449 
	C269.604248,299.912689 264.046875,310.428131 258.263031,321.511627 
	C246.101761,297.884918 234.266327,274.891174 222.095337,251.230560 
z"/>
<path fill="#030303" opacity="1.000000" stroke="none" 
	d="
M222.263123,251.563995 
	C234.266327,274.891174 246.101761,297.884918 258.263031,321.511627 
	C264.046875,310.428131 269.604248,299.912689 275.041443,289.335449 
	C294.908142,250.687653 314.726440,212.014969 334.584229,173.362549 
	C338.195587,166.333191 342.015747,159.408859 345.511047,152.323349 
	C346.701355,149.910446 348.066101,149.042618 350.810608,149.082504 
	C362.970398,149.259201 375.134216,149.158997 387.599976,149.158997 
	C387.455231,149.847702 387.464050,150.484100 387.198761,150.971130 
	C371.652893,179.508423 356.052826,208.016190 340.527618,236.564697 
	C327.041809,261.363098 313.639923,286.207153 300.197784,311.029327 
	C287.227875,334.979614 274.270355,358.936646 261.262909,382.866516 
	C259.457581,386.187744 254.111160,386.000122 252.224091,382.542908 
	C241.818207,363.478577 231.448563,344.394379 221.106827,325.295135 
	C206.503296,298.325134 191.934830,271.336121 177.351608,244.355118 
	C161.110519,214.306854 144.866440,184.260162 128.638748,154.204666 
	C127.865730,152.772964 127.238541,151.262512 126.248085,149.162506 
	C140.442871,149.162506 154.024048,149.073456 167.599472,149.311646 
	C168.843597,149.333496 170.486877,151.222534 171.210938,152.623734 
	C184.917847,179.149429 198.501297,205.738861 212.142929,232.298355 
	C215.400177,238.640030 218.774734,244.921432 222.263123,251.563995 
z"/>
</svg>