<svg version="1.1" id="Layer_1" xmlns="http://www.w3.org/2000/svg" xmlns:xlink="http://www.w3.org/1999/xlink" x="0px" y="0px"
	 width="100%" viewBox="0 0 496 496" enable-background="new 0 0 496 496" xml:space="preserve">
<path fill="#000000" opacity="1.000000" stroke="none" 
	d="
M302.353149,226.355988 
	C258.765076,268.647095 215.449799,310.712799 172.134537,352.778503 
	C172.259598,353.178741 172.384659,353.578979 172.509735,353.979218 
	C178.757889,353.979218 185.059723,353.456085 191.242767,354.090607 
	C203.264572,355.324371 212.078354,352.052032 220.716660,342.401489 
	C236.026245,325.297943 254.067596,310.822845 273.717468,298.616364 
	C301.689728,281.240051 331.624237,270.319427 365.018311,270.647064 
	C371.350616,270.709198 377.686310,270.765900 384.015869,270.622437 
	C387.254211,270.549042 388.384735,271.825867 388.369568,275.029572 
	C388.271759,295.694336 388.973755,316.388153 388.098480,337.016663 
	C387.273834,356.453003 380.087738,372.785675 360.137604,380.256042 
	C351.337097,383.551392 342.084869,385.208588 332.749786,385.231110 
	C265.421417,385.393585 198.092484,385.314514 130.763962,385.440796 
	C126.499512,385.448792 124.757851,384.300232 124.914406,379.816956 
	C125.187576,371.994141 124.987465,364.154114 124.950645,356.321472 
	C124.936844,353.385345 125.555222,350.832306 127.813034,348.646973 
	C140.499725,336.367371 153.107361,324.006012 165.730026,311.660339 
	C196.932877,281.142303 228.120087,250.608292 259.332794,220.100388 
	C271.483826,208.223709 283.693085,196.406631 295.853668,184.539703 
	C296.893616,183.524902 298.188812,182.650742 298.504425,180.990173 
	C297.227875,179.845352 295.657684,180.271729 294.239044,180.271317 
	C265.908020,180.263153 237.576508,180.215485 209.246292,180.379791 
	C201.547821,180.424438 193.999741,182.028244 186.829163,184.858688 
	C170.976501,191.116211 164.360275,203.735214 163.345444,219.942459 
	C162.904648,226.981857 163.066055,227.011826 155.951431,227.028717 
	C147.618729,227.048508 139.284546,226.939316 130.953796,227.067581 
	C127.214607,227.125168 125.480362,225.925644 125.702118,221.865311 
	C126.420509,208.711777 127.304710,195.566528 132.936966,183.409149 
	C141.990112,163.867783 158.647491,155.141510 178.918884,151.617645 
	C192.090576,149.327957 205.332062,148.611084 218.680618,148.638016 
	C268.677032,148.738892 318.673828,148.662277 368.670319,148.733521 
	C370.813690,148.736572 373.780731,147.504456 374.942444,150.257751 
	C376.216034,153.276169 374.957672,155.877533 372.519012,158.235535 
	C349.169067,180.813187 325.910645,203.485458 302.353149,226.355988 
M350.034210,323.486511 
	C350.030304,318.826324 349.962311,314.164978 350.044769,309.506317 
	C350.100677,306.345886 348.838928,305.056213 345.557220,305.166382 
	C340.877777,305.323456 336.301392,306.029907 331.757111,307.000336 
	C300.576965,313.659027 277.372925,333.535614 253.893539,353.671387 
	C279.647186,353.671387 304.910858,353.846802 330.169830,353.579498 
	C339.433716,353.481445 345.489990,348.152496 348.477234,339.278625 
	C350.108704,334.432312 349.954254,329.457123 350.034210,323.486511 
z"/>
</svg>