<svg version="1.1" id="Layer_1" xmlns="http://www.w3.org/2000/svg" xmlns:xlink="http://www.w3.org/1999/xlink" x="0px" y="0px"
	 width="100%" viewBox="0 0 508 510" enable-background="new 0 0 508 510" xml:space="preserve">
<path fill="#FFFFFF" opacity="1.000000" stroke="none" 
	d="
M247.000000,511.000000 
	C164.666687,511.000000 82.833374,511.000000 1.000044,511.000000 
	C1.000029,341.000061 1.000029,171.000122 1.000015,1.000135 
	C170.333237,1.000090 339.666473,1.000090 508.999756,1.000045 
	C508.999847,170.999863 508.999847,340.999725 508.999939,510.999786 
	C421.833344,511.000000 334.666656,511.000000 247.000000,511.000000 
M125.826607,221.499924 
	C125.826607,242.122864 125.826607,262.745789 125.826607,283.833862 
	C138.023285,283.833862 149.812363,283.915253 161.595886,283.697083 
	C162.671677,283.677155 164.296051,281.916870 164.680603,280.662689 
	C170.027649,263.223236 181.624588,250.116653 194.517349,238.085190 
	C216.388351,217.675247 241.806610,202.835480 269.508759,191.801300 
	C295.256348,181.545639 321.855927,175.535629 349.996094,175.814880 
	C350.056732,176.935577 350.154449,177.900192 350.154602,178.864807 
	C350.162079,225.857254 350.162872,272.849701 350.153290,319.842133 
	C350.152985,321.338959 350.076263,322.838715 349.967590,324.332184 
	C348.558228,343.700684 336.328064,355.226501 316.899597,355.476746 
	C312.819275,355.529327 308.737701,355.484406 304.707123,355.484406 
	C304.707123,366.442596 304.707123,376.568573 304.707123,387.132996 
	C320.677490,387.256805 336.344543,387.396881 351.310028,381.137848 
	C360.105103,377.459442 367.419891,372.038269 373.071777,364.354462 
	C383.953461,349.560608 387.844727,332.540833 387.919647,314.664459 
	C388.151489,259.341003 388.006256,204.015945 387.992340,148.691513 
	C387.992004,147.423309 387.812469,146.155151 387.711975,144.826599 
	C377.004547,144.826599 366.673828,144.861206 356.343445,144.819366 
	C335.141876,144.733490 314.307495,147.403671 293.733459,152.553040 
	C268.093018,158.970459 243.570221,168.174774 220.551010,181.203537 
	C199.151443,193.315567 179.319748,207.373993 164.444168,227.439819 
	C163.542236,228.656464 162.186111,229.536377 161.041321,230.572983 
	C160.663406,230.400116 160.285492,230.227249 159.907578,230.054382 
	C164.770691,203.292770 163.888657,176.357086 163.717239,149.398010 
	C150.781082,149.398010 138.509796,149.398010 125.826607,149.398010 
	C125.826607,173.254730 125.826607,196.877319 125.826607,221.499924 
z"/>
<path fill="#020202" opacity="1.000000" stroke="none" 
	d="
M125.826607,220.999908 
	C125.826607,196.877319 125.826607,173.254730 125.826607,149.398010 
	C138.509796,149.398010 150.781082,149.398010 163.717239,149.398010 
	C163.888657,176.357086 164.770691,203.292770 159.907578,230.054382 
	C160.285492,230.227249 160.663406,230.400116 161.041321,230.572983 
	C162.186111,229.536377 163.542236,228.656464 164.444168,227.439819 
	C179.319748,207.373993 199.151443,193.315567 220.551010,181.203537 
	C243.570221,168.174774 268.093018,158.970459 293.733459,152.553040 
	C314.307495,147.403671 335.141876,144.733490 356.343445,144.819366 
	C366.673828,144.861206 377.004547,144.826599 387.711975,144.826599 
	C387.812469,146.155151 387.992004,147.423309 387.992340,148.691513 
	C388.006256,204.015945 388.151489,259.341003 387.919647,314.664459 
	C387.844727,332.540833 383.953461,349.560608 373.071777,364.354462 
	C367.419891,372.038269 360.105103,377.459442 351.310028,381.137848 
	C336.344543,387.396881 320.677490,387.256805 304.707123,387.132996 
	C304.707123,376.568573 304.707123,366.442596 304.707123,355.484406 
	C308.737701,355.484406 312.819275,355.529327 316.899597,355.476746 
	C336.328064,355.226501 348.558228,343.700684 349.967590,324.332184 
	C350.076263,322.838715 350.152985,321.338959 350.153290,319.842133 
	C350.162872,272.849701 350.162079,225.857254 350.154602,178.864807 
	C350.154449,177.900192 350.056732,176.935577 349.996094,175.814880 
	C321.855927,175.535629 295.256348,181.545639 269.508759,191.801300 
	C241.806610,202.835480 216.388351,217.675247 194.517349,238.085190 
	C181.624588,250.116653 170.027649,263.223236 164.680603,280.662689 
	C164.296051,281.916870 162.671677,283.677155 161.595886,283.697083 
	C149.812363,283.915253 138.023285,283.833862 125.826607,283.833862 
	C125.826607,262.745789 125.826607,242.122864 125.826607,220.999908 
z"/>
</svg>