<svg version="1.1" id="Layer_1" xmlns="http://www.w3.org/2000/svg" xmlns:xlink="http://www.w3.org/1999/xlink" x="0px" y="0px"
	 width="100%" viewBox="0 0 508 510" enable-background="new 0 0 508 510" xml:space="preserve">
<path fill="#FFFFFF" opacity="1.000000" stroke="none" 
	d="
M225.000000,511.000000 
	C150.000015,511.000000 75.500038,511.000000 1.000040,511.000000 
	C1.000027,341.000061 1.000027,171.000122 1.000013,1.000131 
	C170.333237,1.000087 339.666473,1.000087 508.999756,1.000044 
	C508.999847,170.999863 508.999847,340.999725 508.999939,510.999786 
	C414.500000,511.000000 320.000000,511.000000 225.000000,511.000000 
M163.832504,224.500076 
	C163.832504,209.558731 163.832504,194.617371 163.832504,179.328613 
	C238.894287,179.328613 313.331573,179.328613 387.605042,179.328613 
	C387.605042,169.072861 387.605042,159.177444 387.605042,149.512329 
	C300.147766,149.512329 213.085693,149.512329 125.542480,149.512329 
	C125.542480,228.107803 125.542480,306.359161 125.542480,384.687927 
	C160.720642,384.687927 196.276291,384.687927 231.740036,384.687927 
	C231.740036,374.612244 231.740036,364.850525 231.740036,354.670074 
	C208.745697,354.670074 186.008179,354.670074 163.832504,354.670074 
	C163.832504,311.328979 163.832504,268.414520 163.832504,224.500076 
z"/>
<path fill="#000000" opacity="1.000000" stroke="none" 
	d="
M163.832504,225.000092 
	C163.832504,268.414520 163.832504,311.328979 163.832504,354.670074 
	C186.008179,354.670074 208.745697,354.670074 231.740036,354.670074 
	C231.740036,364.850525 231.740036,374.612244 231.740036,384.687927 
	C196.276291,384.687927 160.720642,384.687927 125.542480,384.687927 
	C125.542480,306.359161 125.542480,228.107803 125.542480,149.512329 
	C213.085693,149.512329 300.147766,149.512329 387.605042,149.512329 
	C387.605042,159.177444 387.605042,169.072861 387.605042,179.328613 
	C313.331573,179.328613 238.894287,179.328613 163.832504,179.328613 
	C163.832504,194.617371 163.832504,209.558731 163.832504,225.000092 
z"/>
</svg>