<svg version="1.1" id="Layer_1" xmlns="http://www.w3.org/2000/svg" xmlns:xlink="http://www.w3.org/1999/xlink" x="0px" y="0px"
	 width="100%" viewBox="0 0 496 496" enable-background="new 0 0 496 496" xml:space="preserve">
<path fill="#000000" opacity="1.000000" stroke="none" 
	d="
M124.972946,231.000000 
	C124.973381,205.836380 124.969543,181.172745 124.977631,156.509125 
	C124.980194,148.692520 124.994743,148.685959 132.546646,148.679108 
	C140.878952,148.671555 149.211273,148.666550 157.543564,148.681305 
	C164.298401,148.693268 164.314651,148.706970 164.315887,155.685959 
	C164.321594,187.848648 164.305191,220.011368 164.347488,252.173996 
	C164.350006,254.092789 163.760651,256.152130 165.456100,258.567200 
	C171.256073,255.128433 177.084763,251.742859 182.845917,248.246002 
	C238.647263,214.376541 294.447052,180.504425 350.202118,146.558853 
	C353.032928,144.835373 355.847107,143.943741 359.129364,143.979919 
	C367.127350,144.068069 375.128510,144.098022 383.125305,143.966751 
	C386.851471,143.905609 388.420227,145.117493 388.412506,149.152618 
	C388.298187,208.811630 388.450348,268.471436 388.195709,328.129639 
	C388.144318,340.174042 385.232880,351.841675 379.645844,362.698120 
	C372.809723,375.981689 361.875214,384.120514 347.599915,387.670074 
	C331.235443,391.739075 314.889435,390.740509 298.836761,385.886566 
	C285.897430,381.973999 277.696533,372.752350 273.231140,360.416351 
	C267.666290,345.042969 267.689362,329.405670 273.687683,314.115997 
	C280.782959,296.030273 295.442535,288.804230 313.749329,286.578796 
	C325.668396,285.129883 337.255920,286.138000 349.247253,289.537598 
	C349.247253,254.561935 349.247253,220.180283 349.247253,185.373505 
	C342.721771,187.960587 337.158508,192.144577 331.294128,195.707199 
	C277.090881,228.635742 222.973618,261.705963 168.736847,294.579041 
	C165.403107,296.599670 164.222672,298.731659 164.242645,302.507111 
	C164.377457,328.003265 164.179810,353.501587 164.413193,378.996277 
	C164.459503,384.054626 163.008804,385.679291 157.926743,385.461517 
	C148.944519,385.076508 139.926178,385.144318 130.937851,385.454285 
	C126.331070,385.613159 124.913071,384.060089 124.924194,379.479126 
	C125.043976,330.152985 124.984055,280.826447 124.972946,231.000000 
M329.404938,313.252136 
	C309.459137,313.351379 299.117950,325.154510 302.308258,344.061127 
	C303.973877,353.932129 310.758759,358.843994 319.472626,361.536224 
	C328.200287,364.232697 336.204681,363.118347 342.592285,355.680756 
	C348.454102,348.855377 348.797791,340.350372 349.498688,332.197540 
	C350.696533,318.264465 349.943390,317.666687 336.207123,314.096375 
	C334.299103,313.600494 332.279419,313.534149 329.404938,313.252136 
z"/>
</svg>