<svg version="1.1" id="Layer_1" xmlns="http://www.w3.org/2000/svg" xmlns:xlink="http://www.w3.org/1999/xlink" x="0px" y="0px"
	 width="100%" viewBox="0 0 508 510" enable-background="new 0 0 508 510" xml:space="preserve">
<path fill="#FFFFFF" opacity="1.000000" stroke="none" 
	d="
M237.000000,511.000000 
	C158.000015,511.000000 79.500038,511.000000 1.000042,511.000000 
	C1.000028,341.000061 1.000028,171.000122 1.000014,1.000133 
	C170.333237,1.000089 339.666473,1.000089 508.999756,1.000044 
	C508.999847,170.999863 508.999847,340.999725 508.999939,510.999786 
	C418.500000,511.000000 328.000000,511.000000 237.000000,511.000000 
M126.505280,287.029297 
	C127.675667,296.899536 128.517624,306.822540 130.092010,316.627899 
	C132.567947,332.048492 137.748749,346.478394 147.956421,358.636658 
	C160.065125,373.059143 176.384308,380.005249 194.227692,383.928894 
	C219.101562,389.398499 244.378098,389.630310 269.667542,389.094879 
	C289.452148,388.676025 309.144379,387.125977 328.336243,381.860199 
	C351.302307,375.558929 368.909271,362.973297 377.894806,339.947662 
	C385.275543,321.034393 387.396210,301.201599 387.674316,281.284576 
	C388.267395,238.810287 387.949341,196.323288 388.004364,153.841492 
	C388.006226,152.398575 388.004608,150.955658 388.004608,149.440613 
	C352.415588,149.440613 317.361633,149.440613 282.329102,149.440613 
	C282.329102,159.777283 282.329102,169.831085 282.329102,180.215179 
	C305.087097,180.215179 327.512573,180.215179 350.161255,180.215179 
	C350.161255,209.353119 350.497131,238.159134 350.016327,266.951508 
	C349.783966,280.867828 348.906342,294.898682 346.742920,308.629059 
	C343.212799,331.033173 331.431702,347.617981 308.247559,352.816467 
	C295.074524,355.770203 281.461609,357.388214 267.965485,358.131592 
	C246.530396,359.312378 225.108749,358.633209 204.306458,352.049225 
	C189.193756,347.265991 178.210175,337.939972 172.143814,323.247528 
	C166.235046,308.936798 164.427551,293.736450 164.112518,278.463348 
	C163.641937,255.649857 163.893784,232.821426 163.839294,209.999359 
	C163.835037,208.217575 163.838715,206.435776 163.838715,204.443756 
	C150.901108,204.443756 138.509247,204.443756 125.826294,204.443756 
	C125.826294,215.200302 125.750114,225.677429 125.843750,236.153030 
	C125.992546,252.800125 126.254669,269.446198 126.505280,287.029297 
z"/>
<path fill="#020202" opacity="1.000000" stroke="none" 
	d="
M126.487061,286.561005 
	C126.254669,269.446198 125.992546,252.800125 125.843750,236.153030 
	C125.750114,225.677429 125.826294,215.200302 125.826294,204.443756 
	C138.509247,204.443756 150.901108,204.443756 163.838715,204.443756 
	C163.838715,206.435776 163.835037,208.217575 163.839294,209.999359 
	C163.893784,232.821426 163.641937,255.649857 164.112518,278.463348 
	C164.427551,293.736450 166.235046,308.936798 172.143814,323.247528 
	C178.210175,337.939972 189.193756,347.265991 204.306458,352.049225 
	C225.108749,358.633209 246.530396,359.312378 267.965485,358.131592 
	C281.461609,357.388214 295.074524,355.770203 308.247559,352.816467 
	C331.431702,347.617981 343.212799,331.033173 346.742920,308.629059 
	C348.906342,294.898682 349.783966,280.867828 350.016327,266.951508 
	C350.497131,238.159134 350.161255,209.353119 350.161255,180.215179 
	C327.512573,180.215179 305.087097,180.215179 282.329102,180.215179 
	C282.329102,169.831085 282.329102,159.777283 282.329102,149.440613 
	C317.361633,149.440613 352.415588,149.440613 388.004608,149.440613 
	C388.004608,150.955658 388.006226,152.398575 388.004364,153.841492 
	C387.949341,196.323288 388.267395,238.810287 387.674316,281.284576 
	C387.396210,301.201599 385.275543,321.034393 377.894806,339.947662 
	C368.909271,362.973297 351.302307,375.558929 328.336243,381.860199 
	C309.144379,387.125977 289.452148,388.676025 269.667542,389.094879 
	C244.378098,389.630310 219.101562,389.398499 194.227692,383.928894 
	C176.384308,380.005249 160.065125,373.059143 147.956421,358.636658 
	C137.748749,346.478394 132.567947,332.048492 130.092010,316.627899 
	C128.517624,306.822540 127.675667,296.899536 126.487061,286.561005 
z"/>
</svg>