<svg version="1.1" id="Layer_1" xmlns="http://www.w3.org/2000/svg" xmlns:xlink="http://www.w3.org/1999/xlink" x="0px" y="0px"
	 width="100%" viewBox="0 0 508 510" enable-background="new 0 0 508 510" xml:space="preserve">
<path fill="#FFFFFF" opacity="1.000000" stroke="none" 
	d="
M373.000000,511.000000 
	C248.666702,511.000000 124.833389,511.000000 1.000067,511.000000 
	C1.000044,341.000061 1.000044,171.000137 1.000022,1.000158 
	C170.333221,1.000105 339.666443,1.000105 508.999756,1.000053 
	C508.999817,170.999847 508.999817,340.999695 508.999908,510.999756 
	C463.833344,511.000000 418.666656,511.000000 373.000000,511.000000 
M350.177460,271.983185 
	C350.177460,299.438538 350.177460,326.893890 350.177460,354.499512 
	C287.576630,354.499512 225.382797,354.499512 162.664856,354.499512 
	C163.067017,347.047424 163.771179,339.955414 163.781876,332.862335 
	C163.871048,273.710754 163.832520,214.558929 163.832291,155.407181 
	C163.832291,154.240829 164.183029,152.908813 163.734741,151.951675 
	C163.219650,150.851852 162.008026,149.304672 161.078125,149.290192 
	C149.462326,149.109436 137.842743,149.171829 125.644974,149.171829 
	C125.644974,227.994904 125.644974,306.339996 125.644974,384.639618 
	C212.863281,384.639618 300.395813,384.639618 387.720520,384.639618 
	C387.720520,346.353119 387.720520,308.427307 387.720520,270.278351 
	C375.315186,270.278351 363.187286,270.278351 350.505157,270.090881 
	C350.429565,270.413361 350.353943,270.735870 350.177460,271.983185 
z"/>
<path fill="#000000" opacity="1.000000" stroke="none" 
	d="
M351.059357,270.278351 
	C363.187286,270.278351 375.315186,270.278351 387.720520,270.278351 
	C387.720520,308.427307 387.720520,346.353119 387.720520,384.639618 
	C300.395813,384.639618 212.863281,384.639618 125.644974,384.639618 
	C125.644974,306.339996 125.644974,227.994904 125.644974,149.171829 
	C137.842743,149.171829 149.462326,149.109436 161.078125,149.290192 
	C162.008026,149.304672 163.219650,150.851852 163.734741,151.951675 
	C164.183029,152.908813 163.832291,154.240829 163.832291,155.407181 
	C163.832520,214.558929 163.871048,273.710754 163.781876,332.862335 
	C163.771179,339.955414 163.067017,347.047424 162.664856,354.499512 
	C225.382797,354.499512 287.576630,354.499512 350.177460,354.499512 
	C350.177460,326.893890 350.177460,299.438538 350.428528,271.476929 
	C350.939240,270.812897 351.065826,270.582123 351.059357,270.278351 
z"/>
<path fill="#404040" opacity="1.000000" stroke="none" 
	d="
M350.782257,270.184631 
	C351.065826,270.582123 350.939240,270.812897 350.479004,271.014526 
	C350.353943,270.735870 350.429565,270.413361 350.782257,270.184631 
z"/>
</svg>