<svg version="1.1" id="Layer_1" xmlns="http://www.w3.org/2000/svg" xmlns:xlink="http://www.w3.org/1999/xlink" x="0px" y="0px"
	 width="100%" viewBox="0 0 508 510" enable-background="new 0 0 508 510" xml:space="preserve">
<path fill="#FFFFFF" opacity="1.000000" stroke="none" 
	d="
M237.000000,511.000000 
	C158.000015,511.000000 79.500038,511.000000 1.000042,511.000000 
	C1.000028,341.000061 1.000028,171.000122 1.000014,1.000133 
	C170.333237,1.000089 339.666473,1.000089 508.999756,1.000044 
	C508.999847,170.999863 508.999847,340.999725 508.999939,510.999786 
	C418.500000,511.000000 328.000000,511.000000 237.000000,511.000000 
M126.503883,287.029419 
	C127.674858,296.902222 128.517365,306.827789 130.092361,316.635712 
	C132.569305,332.060425 137.753876,346.492096 147.968597,358.651154 
	C160.085251,373.074158 176.404449,380.039276 194.260071,383.930237 
	C219.473145,389.424469 245.075119,389.756012 270.709473,388.981293 
	C293.961609,388.278564 317.061890,386.663055 339.136871,378.130707 
	C360.147522,370.009674 373.405640,355.038177 380.144287,333.804443 
	C384.964752,318.615021 387.033203,302.942688 387.382874,287.162872 
	C387.987915,259.856598 387.773651,232.532135 387.879181,205.215225 
	C387.880188,204.951767 387.555420,204.687088 387.400208,204.449738 
	C375.120056,204.449738 362.871490,204.449738 350.160278,204.449738 
	C350.160278,219.691483 350.136322,234.648712 350.166260,249.605835 
	C350.205505,269.239319 350.558044,288.890137 346.975281,308.322693 
	C342.860016,330.643768 331.706085,347.421753 308.559265,352.743103 
	C295.243256,355.804413 281.445740,357.436951 267.782318,358.168304 
	C246.343872,359.315887 224.888504,358.654510 204.109604,352.009369 
	C189.235184,347.252502 178.307800,338.038513 172.262772,323.502106 
	C166.245682,309.032898 164.332825,293.675415 164.119873,278.234009 
	C163.683304,246.579025 163.892685,214.915085 163.849701,183.254822 
	C163.848175,182.126541 163.990723,180.998062 164.091797,179.485535 
	C186.748688,179.485535 209.175400,179.485535 231.689178,179.485535 
	C231.689178,169.195862 231.689178,159.311844 231.689178,149.438660 
	C196.290573,149.438660 161.208908,149.438660 125.989136,149.438660 
	C125.926567,150.856400 125.832001,152.002762 125.831757,153.149139 
	C125.823997,189.478775 125.787994,225.808487 125.854591,262.138000 
	C125.869232,270.123291 126.253403,278.107941 126.503883,287.029419 
z"/>
<path fill="#030303" opacity="1.000000" stroke="none" 
	d="
M126.485641,286.561157 
	C126.253403,278.107941 125.869232,270.123291 125.854591,262.138000 
	C125.787994,225.808487 125.823997,189.478775 125.831757,153.149139 
	C125.832001,152.002762 125.926567,150.856400 125.989136,149.438660 
	C161.208908,149.438660 196.290573,149.438660 231.689178,149.438660 
	C231.689178,159.311844 231.689178,169.195862 231.689178,179.485535 
	C209.175400,179.485535 186.748688,179.485535 164.091797,179.485535 
	C163.990723,180.998062 163.848175,182.126541 163.849701,183.254822 
	C163.892685,214.915085 163.683304,246.579025 164.119873,278.234009 
	C164.332825,293.675415 166.245682,309.032898 172.262772,323.502106 
	C178.307800,338.038513 189.235184,347.252502 204.109604,352.009369 
	C224.888504,358.654510 246.343872,359.315887 267.782318,358.168304 
	C281.445740,357.436951 295.243256,355.804413 308.559265,352.743103 
	C331.706085,347.421753 342.860016,330.643768 346.975281,308.322693 
	C350.558044,288.890137 350.205505,269.239319 350.166260,249.605835 
	C350.136322,234.648712 350.160278,219.691483 350.160278,204.449738 
	C362.871490,204.449738 375.120056,204.449738 387.400208,204.449738 
	C387.555420,204.687088 387.880188,204.951767 387.879181,205.215225 
	C387.773651,232.532135 387.987915,259.856598 387.382874,287.162872 
	C387.033203,302.942688 384.964752,318.615021 380.144287,333.804443 
	C373.405640,355.038177 360.147522,370.009674 339.136871,378.130707 
	C317.061890,386.663055 293.961609,388.278564 270.709473,388.981293 
	C245.075119,389.756012 219.473145,389.424469 194.260071,383.930237 
	C176.404449,380.039276 160.085251,373.074158 147.968597,358.651154 
	C137.753876,346.492096 132.569305,332.060425 130.092361,316.635712 
	C128.517365,306.827789 127.674858,296.902222 126.485641,286.561157 
z"/>
</svg>