<svg version="1.1" id="Layer_1" xmlns="http://www.w3.org/2000/svg" xmlns:xlink="http://www.w3.org/1999/xlink" x="0px" y="0px"
	 width="100%" viewBox="0 0 496 496" enable-background="new 0 0 496 496" xml:space="preserve">
<path fill="#000000" opacity="1.000000" stroke="none" 
	d="
M280.357666,156.160751 
	C314.102600,144.930634 348.583344,143.352417 383.337036,143.963272 
	C387.244720,144.031937 388.414154,145.542206 388.409637,149.368149 
	C388.318970,226.200150 388.302917,303.032349 388.422089,379.864288 
	C388.429108,384.392517 386.861664,385.558289 382.615479,385.430389 
	C373.790344,385.164612 364.940247,385.085114 356.122711,385.457306 
	C351.091034,385.669678 349.548920,384.097809 349.575409,379.002991 
	C349.773041,341.004608 349.693329,303.004730 349.693970,265.005341 
	C349.694458,237.339111 349.588806,209.672256 349.774506,182.007309 
	C349.805450,177.402298 348.410034,175.775269 343.816315,176.010040 
	C307.222504,177.880295 273.097595,187.797623 241.655106,206.781448 
	C238.467667,208.705933 238.295395,211.322479 238.295578,214.425400 
	C238.297684,251.091187 238.476547,287.759186 238.110733,324.421661 
	C237.964554,339.071716 234.649139,353.077148 225.635818,365.228760 
	C216.641373,377.354889 203.923431,382.510895 189.626251,384.252899 
	C169.552429,386.698700 149.352264,384.828735 129.216293,385.369904 
	C126.194923,385.451111 125.078705,384.111603 125.035965,381.209625 
	C124.469925,342.770874 127.506630,304.973907 145.415939,269.951935 
	C157.953735,245.434006 173.754822,223.325287 194.805496,205.307556 
	C198.230957,202.375626 199.875336,199.335861 199.784531,194.665100 
	C199.506256,180.351089 199.699066,180.352859 185.185715,180.357452 
	C167.019333,180.363205 148.851654,180.241791 130.687500,180.442841 
	C126.276894,180.491653 124.787201,178.981964 124.935753,174.671707 
	C125.176697,167.680389 125.060059,160.673233 124.953026,153.674927 
	C124.899681,150.187393 126.070442,148.611343 129.878448,148.623062 
	C164.377563,148.729248 198.877228,148.719833 233.376465,148.635620 
	C236.986099,148.626816 238.486511,149.798660 238.368820,153.533615 
	C238.166245,159.962341 238.312744,166.402084 238.312744,173.987076 
	C252.529663,166.960449 265.897217,160.739059 280.357666,156.160751 
M199.576019,331.950928 
	C199.576019,302.539734 199.576019,273.128540 199.576019,242.680038 
	C187.302979,256.823792 178.796082,271.786041 172.004608,287.735809 
	C163.641556,307.376434 159.845306,328.015045 159.343643,349.298767 
	C159.297501,351.256226 158.943878,353.808685 161.841873,353.838501 
	C169.619415,353.918549 177.531555,355.110107 185.107193,352.547150 
	C194.415924,349.397888 198.425385,342.138855 199.576019,331.950928 
z"/>
</svg>