<svg version="1.1" id="Layer_1" xmlns="http://www.w3.org/2000/svg" xmlns:xlink="http://www.w3.org/1999/xlink" x="0px" y="0px"
	 width="100%" viewBox="0 0 508 510" enable-background="new 0 0 508 510" xml:space="preserve">
<path fill="#FFFFFF" opacity="1.000000" stroke="none" 
	d="
M248.000000,511.000000 
	C165.333359,511.000000 83.166702,511.000000 1.000044,511.000000 
	C1.000029,341.000061 1.000029,171.000122 1.000015,1.000135 
	C170.333237,1.000090 339.666473,1.000090 508.999756,1.000045 
	C508.999847,170.999863 508.999847,340.999725 508.999939,510.999786 
	C422.166656,511.000000 335.333344,511.000000 248.000000,511.000000 
M278.370422,357.994232 
	C253.893784,358.967926 229.459503,359.094452 205.394547,353.523010 
	C183.491104,348.451965 168.000275,335.737366 164.764008,311.312866 
	C164.050781,305.930115 163.567322,300.516937 162.967865,295.024414 
	C150.590515,295.024414 138.497635,295.024414 125.671562,295.024414 
	C126.128654,302.015533 126.291245,308.799408 127.064827,315.512909 
	C129.216217,334.183350 134.453842,351.545044 148.842972,364.882721 
	C160.600861,375.781403 174.981537,380.911133 190.303848,383.957336 
	C216.895309,389.243866 243.819199,389.715546 270.783142,389.077545 
	C289.899719,388.625244 308.937531,387.116760 327.442169,381.857880 
	C340.481537,378.152222 352.447113,372.482635 362.350769,362.799225 
	C376.154816,349.302063 381.839996,332.136261 384.768738,313.846344 
	C389.240448,285.920898 389.055908,257.857605 385.881836,229.800278 
	C384.157959,214.561722 380.952942,199.667679 373.399017,186.138809 
	C361.464630,164.764679 341.749603,154.863861 318.816772,150.003250 
	C300.670715,146.157196 282.258728,145.016296 263.762024,144.881073 
	C235.442612,144.673996 207.273087,145.926743 180.063004,154.845963 
	C162.410019,160.632477 148.078690,170.921814 139.044250,187.492798 
	C124.624031,213.942398 125.745972,242.791519 126.098572,272.042877 
	C200.640106,272.042877 274.685181,272.042877 350.230133,272.042877 
	C348.323853,288.465393 347.334045,304.401215 344.422302,319.977783 
	C341.554840,335.317627 331.807770,345.693542 316.838013,351.209839 
	C304.671234,355.693268 292.053894,356.949219 278.370422,357.994232 
z"/>
<path fill="#030303" opacity="1.000000" stroke="none" 
	d="
M278.852325,357.990479 
	C292.053894,356.949219 304.671234,355.693268 316.838013,351.209839 
	C331.807770,345.693542 341.554840,335.317627 344.422302,319.977783 
	C347.334045,304.401215 348.323853,288.465393 350.230133,272.042877 
	C274.685181,272.042877 200.640106,272.042877 126.098572,272.042877 
	C125.745972,242.791519 124.624031,213.942398 139.044250,187.492798 
	C148.078690,170.921814 162.410019,160.632477 180.063004,154.845963 
	C207.273087,145.926743 235.442612,144.673996 263.762024,144.881073 
	C282.258728,145.016296 300.670715,146.157196 318.816772,150.003250 
	C341.749603,154.863861 361.464630,164.764679 373.399017,186.138809 
	C380.952942,199.667679 384.157959,214.561722 385.881836,229.800278 
	C389.055908,257.857605 389.240448,285.920898 384.768738,313.846344 
	C381.839996,332.136261 376.154816,349.302063 362.350769,362.799225 
	C352.447113,372.482635 340.481537,378.152222 327.442169,381.857880 
	C308.937531,387.116760 289.899719,388.625244 270.783142,389.077545 
	C243.819199,389.715546 216.895309,389.243866 190.303848,383.957336 
	C174.981537,380.911133 160.600861,375.781403 148.842972,364.882721 
	C134.453842,351.545044 129.216217,334.183350 127.064827,315.512909 
	C126.291245,308.799408 126.128654,302.015533 125.671562,295.024414 
	C138.497635,295.024414 150.590515,295.024414 162.967865,295.024414 
	C163.567322,300.516937 164.050781,305.930115 164.764008,311.312866 
	C168.000275,335.737366 183.491104,348.451965 205.394547,353.523010 
	C229.459503,359.094452 253.893784,358.967926 278.852325,357.990479 
M328.081177,192.371262 
	C319.207031,184.883713 308.708588,180.983963 297.480774,179.021683 
	C268.551941,173.965759 239.533417,174.259323 210.686417,179.259720 
	C192.849808,182.351547 177.572662,189.876709 170.541382,208.418427 
	C166.519775,219.023544 164.636353,229.961594 163.941956,241.188263 
	C225.584030,241.188263 286.644165,241.188263 348.090057,241.188263 
	C347.303436,235.962265 346.858917,231.008774 345.775360,226.199280 
	C342.944855,213.636078 338.832672,201.654129 328.081177,192.371262 
z"/>
<path fill="#FFFFFF" opacity="1.000000" stroke="none" 
	d="
M328.340820,192.620667 
	C338.832672,201.654129 342.944855,213.636078 345.775360,226.199280 
	C346.858917,231.008774 347.303436,235.962265 348.090057,241.188263 
	C286.644165,241.188263 225.584030,241.188263 163.941956,241.188263 
	C164.636353,229.961594 166.519775,219.023544 170.541382,208.418427 
	C177.572662,189.876709 192.849808,182.351547 210.686417,179.259720 
	C239.533417,174.259323 268.551941,173.965759 297.480774,179.021683 
	C308.708588,180.983963 319.207031,184.883713 328.340820,192.620667 
z"/>
</svg>