<svg version="1.1" id="Layer_1" xmlns="http://www.w3.org/2000/svg" xmlns:xlink="http://www.w3.org/1999/xlink" x="0px" y="0px"
	 width="100%" viewBox="0 0 508 510" enable-background="new 0 0 508 510" xml:space="preserve">
<path fill="#FFFFFF" opacity="1.000000" stroke="none" 
	d="
M247.000000,511.000000 
	C164.666687,511.000000 82.833374,511.000000 1.000044,511.000000 
	C1.000029,341.000061 1.000029,171.000122 1.000015,1.000135 
	C170.333237,1.000090 339.666473,1.000090 508.999756,1.000045 
	C508.999847,170.999863 508.999847,340.999725 508.999939,510.999786 
	C421.833344,511.000000 334.666656,511.000000 247.000000,511.000000 
M163.837860,199.500076 
	C163.837860,182.888367 163.837860,166.276657 163.837860,149.443665 
	C150.906296,149.443665 138.513519,149.443665 126.168312,149.443665 
	C126.168312,228.092590 126.168312,306.459503 126.168312,384.625305 
	C138.904831,384.625305 151.297409,384.625305 164.005295,384.625305 
	C163.085648,353.741119 164.044785,323.429657 174.825989,294.337952 
	C233.305695,294.337952 291.689514,294.337952 350.319244,294.337952 
	C350.319244,324.621368 350.319244,354.571259 350.319244,384.750610 
	C362.949799,384.750610 375.332977,384.750610 387.646057,384.750610 
	C387.646057,304.635223 387.646057,224.773712 387.646057,145.827194 
	C369.649353,145.827194 351.888947,144.473755 334.400665,146.081085 
	C282.050079,150.892563 235.411377,169.721970 196.673233,206.120514 
	C181.122986,220.731583 168.131378,237.088089 162.801239,258.379456 
	C162.539581,259.424713 161.755157,260.339050 161.215805,261.311371 
	C162.100220,240.799957 162.969040,220.650024 163.837860,199.500076 
z"/>
<path fill="#020202" opacity="1.000000" stroke="none" 
	d="
M163.837860,200.000092 
	C162.969040,220.650024 162.100220,240.799957 161.215805,261.311371 
	C161.755157,260.339050 162.539581,259.424713 162.801239,258.379456 
	C168.131378,237.088089 181.122986,220.731583 196.673233,206.120514 
	C235.411377,169.721970 282.050079,150.892563 334.400665,146.081085 
	C351.888947,144.473755 369.649353,145.827194 387.646057,145.827194 
	C387.646057,224.773712 387.646057,304.635223 387.646057,384.750610 
	C375.332977,384.750610 362.949799,384.750610 350.319244,384.750610 
	C350.319244,354.571259 350.319244,324.621368 350.319244,294.337952 
	C291.689514,294.337952 233.305695,294.337952 174.825989,294.337952 
	C164.044785,323.429657 163.085648,353.741119 164.005295,384.625305 
	C151.297409,384.625305 138.904831,384.625305 126.168312,384.625305 
	C126.168312,306.459503 126.168312,228.092590 126.168312,149.443665 
	C138.513519,149.443665 150.906296,149.443665 163.837860,149.443665 
	C163.837860,166.276657 163.837860,182.888367 163.837860,200.000092 
M195.216949,253.785904 
	C193.297333,256.785858 191.377701,259.785828 189.127838,263.301910 
	C243.234512,263.301910 296.453888,263.301910 349.897003,263.301910 
	C349.897003,233.567917 349.897003,204.018600 349.897003,174.281357 
	C348.503906,174.281357 347.373383,174.243591 346.246033,174.286911 
	C319.257355,175.323822 293.557678,181.784851 269.110443,193.106796 
	C239.499756,206.819992 214.597702,226.392502 195.216949,253.785904 
z"/>
<path fill="#FFFFFF" opacity="1.000000" stroke="none" 
	d="
M195.454468,253.508820 
	C214.597702,226.392502 239.499756,206.819992 269.110443,193.106796 
	C293.557678,181.784851 319.257355,175.323822 346.246033,174.286911 
	C347.373383,174.243591 348.503906,174.281357 349.897003,174.281357 
	C349.897003,204.018600 349.897003,233.567917 349.897003,263.301910 
	C296.453888,263.301910 243.234512,263.301910 189.127838,263.301910 
	C191.377701,259.785828 193.297333,256.785858 195.454468,253.508820 
z"/>
</svg>