<svg version="1.1" id="Layer_1" xmlns="http://www.w3.org/2000/svg" xmlns:xlink="http://www.w3.org/1999/xlink" x="0px" y="0px"
	 width="100%" viewBox="0 0 496 496" enable-background="new 0 0 496 496" xml:space="preserve">
<path fill="#000000" opacity="1.000000" stroke="none" 
	d="
M343.307556,204.751556 
	C334.940948,190.417130 321.155029,185.139664 306.575043,181.438980 
	C283.403473,175.557556 259.765228,175.586014 236.099152,176.731262 
	C227.959122,177.125168 219.857178,177.972290 211.802567,179.383591 
	C186.215546,183.866852 173.007828,195.727707 168.805161,221.076538 
	C163.963272,250.280899 163.804016,279.728333 169.409073,308.935211 
	C171.483566,319.744995 174.925888,330.122528 183.068054,338.386200 
	C192.403839,347.861298 204.060410,352.181885 216.654663,354.677887 
	C238.083435,358.924774 259.700897,358.325470 281.338013,356.999603 
	C293.168610,356.274658 304.784515,354.497833 316.100220,350.763428 
	C337.101654,343.832550 347.115967,328.522186 349.687256,307.399750 
	C350.089447,304.095947 350.580994,300.768860 350.554504,297.456360 
	C350.525848,293.869385 352.231171,292.819946 355.454773,292.840942 
	C364.953766,292.902832 374.453613,292.886169 383.952820,292.839844 
	C386.673004,292.826599 388.366180,293.527008 388.362122,296.743195 
	C388.334442,318.628510 385.001221,339.593170 370.918579,357.362213 
	C360.338196,370.712311 345.921600,378.081635 329.760162,382.222107 
	C312.125519,386.739990 294.123871,388.566620 275.947205,389.452637 
	C257.106293,390.371033 238.329407,390.016083 219.586212,388.271606 
	C200.628784,386.507141 181.992874,383.351532 165.133575,373.588409 
	C149.337692,364.441162 139.445694,350.745331 133.860245,333.656097 
	C128.226517,316.419098 126.143776,298.592468 125.766457,280.587219 
	C125.337616,260.123932 125.137367,239.637497 128.662506,219.341049 
	C131.538803,202.780212 136.080063,186.939423 147.371857,173.823532 
	C159.523270,159.709152 175.743454,153.332306 193.321686,149.679321 
	C210.809570,146.045105 228.552002,145.083054 246.388458,144.513245 
	C268.077637,143.820358 289.631989,144.712555 311.083527,147.716904 
	C330.354065,150.415756 348.970062,154.880478 364.318329,168.164246 
	C375.687866,178.004456 381.744873,190.661819 385.131775,204.855270 
	C387.456848,214.598984 388.452911,224.523529 388.406372,234.576859 
	C388.388794,238.374115 387.271393,240.028442 383.319489,239.958160 
	C374.322784,239.798203 365.320312,239.813416 356.322540,239.933502 
	C352.316467,239.986969 350.717590,238.433807 350.711121,234.320923 
	C350.694916,224.022247 348.403534,214.202484 343.307556,204.751556 
z"/>
</svg>