<svg version="1.1" id="Layer_1" xmlns="http://www.w3.org/2000/svg" xmlns:xlink="http://www.w3.org/1999/xlink" x="0px" y="0px"
	 width="100%" viewBox="0 0 508 510" enable-background="new 0 0 508 510" xml:space="preserve">
<path fill="#FFFFFF" opacity="1.000000" stroke="none" 
	d="
M251.000000,511.000000 
	C167.333359,511.000000 84.166710,511.000000 1.000045,511.000000 
	C1.000030,341.000061 1.000030,171.000122 1.000015,1.000136 
	C170.333237,1.000091 339.666473,1.000091 508.999756,1.000045 
	C508.999847,170.999863 508.999847,340.999725 508.999939,510.999786 
	C423.166656,511.000000 337.333344,511.000000 251.000000,511.000000 
M136.010208,364.447266 
	C132.663330,371.149780 124.914124,375.699158 125.917740,384.782257 
	C166.557358,384.782257 206.978500,384.782257 247.458572,384.782257 
	C247.458572,374.702240 247.458572,364.849457 247.458572,354.487610 
	C224.071381,354.487610 201.062271,354.487610 177.425797,354.487610 
	C187.382202,339.307892 196.907364,324.785645 206.419022,310.283966 
	C223.475998,319.199493 240.654678,324.458557 259.574829,321.000000 
	C279.883301,317.287659 297.927856,302.925659 301.538422,283.185822 
	C304.713013,265.829498 299.199097,250.396774 285.955170,241.630264 
	C264.660065,227.534470 234.014145,230.975052 214.297653,253.172470 
	C207.174057,261.192413 200.598862,269.699493 193.686661,278.089600 
	C192.504181,277.348816 191.193451,276.678650 190.053589,275.789429 
	C181.825241,269.370453 172.867950,263.619843 168.321899,253.629379 
	C164.235748,244.649567 163.747787,235.033875 163.859100,225.381973 
	C164.105972,203.979858 173.866119,190.985977 194.212280,183.795547 
	C206.210037,179.555466 218.525009,177.542862 231.123459,176.653137 
	C254.911896,174.973145 278.617889,174.855453 302.160767,179.517639 
	C323.616364,183.766510 339.067993,195.127579 344.689392,216.884933 
	C347.413239,227.427444 349.442871,238.457382 349.605621,249.299393 
	C350.255890,292.613403 350.050018,335.940247 350.160065,379.262360 
	C350.164612,381.045227 350.160645,382.828094 350.160645,384.711487 
	C363.028046,384.711487 375.414062,384.711487 387.896332,384.711487 
	C387.941589,383.775726 388.000244,383.128021 388.000305,382.480286 
	C388.004913,339.819000 388.234375,297.155945 387.900635,254.497284 
	C387.751190,235.397156 386.344604,216.334641 380.973755,197.795364 
	C376.613983,182.746216 368.494415,170.412186 355.188812,161.915070 
	C343.067902,154.174469 329.403198,150.686020 315.377991,148.498642 
	C290.444489,144.610016 265.310181,144.288193 240.182877,145.092636 
	C219.923264,145.741226 199.797150,147.936829 180.305374,154.032547 
	C163.828537,159.185349 148.942154,166.961273 138.525024,181.240402 
	C119.422340,207.425140 118.404915,258.191467 157.179153,283.341187 
	C164.898621,288.348175 172.388153,293.709625 180.247940,299.088501 
	C165.567673,320.697662 150.933426,342.239105 136.010208,364.447266 
z"/>
<path fill="#030303" opacity="1.000000" stroke="none" 
	d="
M136.154694,364.113892 
	C150.933426,342.239105 165.567673,320.697662 180.247940,299.088501 
	C172.388153,293.709625 164.898621,288.348175 157.179153,283.341187 
	C118.404915,258.191467 119.422340,207.425140 138.525024,181.240402 
	C148.942154,166.961273 163.828537,159.185349 180.305374,154.032547 
	C199.797150,147.936829 219.923264,145.741226 240.182877,145.092636 
	C265.310181,144.288193 290.444489,144.610016 315.377991,148.498642 
	C329.403198,150.686020 343.067902,154.174469 355.188812,161.915070 
	C368.494415,170.412186 376.613983,182.746216 380.973755,197.795364 
	C386.344604,216.334641 387.751190,235.397156 387.900635,254.497284 
	C388.234375,297.155945 388.004913,339.819000 388.000305,382.480286 
	C388.000244,383.128021 387.941589,383.775726 387.896332,384.711487 
	C375.414062,384.711487 363.028046,384.711487 350.160645,384.711487 
	C350.160645,382.828094 350.164612,381.045227 350.160065,379.262360 
	C350.050018,335.940247 350.255890,292.613403 349.605621,249.299393 
	C349.442871,238.457382 347.413239,227.427444 344.689392,216.884933 
	C339.067993,195.127579 323.616364,183.766510 302.160767,179.517639 
	C278.617889,174.855453 254.911896,174.973145 231.123459,176.653137 
	C218.525009,177.542862 206.210037,179.555466 194.212280,183.795547 
	C173.866119,190.985977 164.105972,203.979858 163.859100,225.381973 
	C163.747787,235.033875 164.235748,244.649567 168.321899,253.629379 
	C172.867950,263.619843 181.825241,269.370453 190.053589,275.789429 
	C191.193451,276.678650 192.504181,277.348816 193.686661,278.089600 
	C200.598862,269.699493 207.174057,261.192413 214.297653,253.172470 
	C234.014145,230.975052 264.660065,227.534470 285.955170,241.630264 
	C299.199097,250.396774 304.713013,265.829498 301.538422,283.185822 
	C297.927856,302.925659 279.883301,317.287659 259.574829,321.000000 
	C240.654678,324.458557 223.475998,319.199493 206.419022,310.283966 
	C196.907364,324.785645 187.382202,339.307892 177.425797,354.487610 
	C201.062271,354.487610 224.071381,354.487610 247.458572,354.487610 
	C247.458572,364.849457 247.458572,374.702240 247.458572,384.782257 
	C206.978500,384.782257 166.557358,384.782257 125.917740,384.782257 
	C124.914124,375.699158 132.663330,371.149780 136.154694,364.113892 
M223.198669,293.284180 
	C227.830963,295.018616 232.361023,297.134308 237.116486,298.409393 
	C247.557205,301.208862 257.757446,300.967224 267.056122,294.468689 
	C276.598999,287.799469 278.883789,272.508698 271.804810,263.086365 
	C266.109039,255.505142 251.979706,251.595703 242.520676,261.693451 
	C234.023331,270.764557 226.570663,280.814301 218.380981,290.768005 
	C220.508606,291.923126 221.487045,292.454346 223.198669,293.284180 
z"/>
<path fill="#FEFEFE" opacity="1.000000" stroke="none" 
	d="
M222.832062,293.134888 
	C221.487045,292.454346 220.508606,291.923126 218.380981,290.768005 
	C226.570663,280.814301 234.023331,270.764557 242.520676,261.693451 
	C251.979706,251.595703 266.109039,255.505142 271.804810,263.086365 
	C278.883789,272.508698 276.598999,287.799469 267.056122,294.468689 
	C257.757446,300.967224 247.557205,301.208862 237.116486,298.409393 
	C232.361023,297.134308 227.830963,295.018616 222.832062,293.134888 
z"/>
</svg>