<svg version="1.1" id="Layer_1" xmlns="http://www.w3.org/2000/svg" xmlns:xlink="http://www.w3.org/1999/xlink" x="0px" y="0px"
	 width="100%" viewBox="0 0 508 510" enable-background="new 0 0 508 510" xml:space="preserve">
<path fill="#FFFFFF" opacity="1.000000" stroke="none" 
	d="
M248.000000,511.000000 
	C165.333359,511.000000 83.166702,511.000000 1.000044,511.000000 
	C1.000029,341.000061 1.000029,171.000122 1.000015,1.000135 
	C170.333237,1.000090 339.666473,1.000090 508.999756,1.000045 
	C508.999847,170.999863 508.999847,340.999725 508.999939,510.999786 
	C422.166656,511.000000 335.333344,511.000000 248.000000,511.000000 
M249.761673,226.872665 
	C221.444962,217.771332 192.311417,220.219131 163.159241,220.093201 
	C163.159241,244.746674 163.176453,268.735291 163.151703,292.723816 
	C163.139999,304.054352 163.255569,315.390747 162.932281,326.713623 
	C162.625015,337.475403 157.913864,346.116943 147.969788,350.622437 
	C141.178848,353.699310 133.723618,355.309998 126.072464,357.732269 
	C126.072464,366.611023 126.072464,376.520630 126.072464,386.831635 
	C142.083389,386.349396 157.897324,386.019775 172.519974,379.290283 
	C177.808350,376.856445 182.921371,373.303680 187.026077,369.178528 
	C197.939636,358.210754 200.277206,343.689117 200.671829,329.188141 
	C201.342575,304.541473 200.951462,279.865906 201.005661,255.202469 
	C201.009613,253.402771 201.006165,251.603058 201.006165,249.820709 
	C224.386551,249.102615 255.081085,257.385162 283.554230,279.093536 
	C318.836182,305.993042 340.970490,341.404968 350.241486,384.711914 
	C362.985199,384.711914 375.394318,384.711914 387.605652,384.711914 
	C387.605652,306.037476 387.605652,227.657791 387.605652,149.527679 
	C300.138794,149.527679 213.072723,149.527679 126.110909,149.527679 
	C126.110909,159.659058 126.110909,169.419647 126.110909,179.541275 
	C200.828476,179.541275 275.260529,179.541275 349.825470,179.541275 
	C351.646454,225.997849 347.056488,272.235535 353.187805,318.323120 
	C351.699280,316.843384 350.882599,315.289703 350.354065,313.643524 
	C343.488007,292.258331 330.297241,275.082031 313.549438,260.782898 
	C295.104828,245.035034 273.822815,234.043259 249.761673,226.872665 
z"/>
<path fill="#030303" opacity="1.000000" stroke="none" 
	d="
M250.158783,226.946747 
	C273.822815,234.043259 295.104828,245.035034 313.549438,260.782898 
	C330.297241,275.082031 343.488007,292.258331 350.354065,313.643524 
	C350.882599,315.289703 351.699280,316.843384 353.187805,318.323120 
	C347.056488,272.235535 351.646454,225.997849 349.825470,179.541275 
	C275.260529,179.541275 200.828476,179.541275 126.110909,179.541275 
	C126.110909,169.419647 126.110909,159.659058 126.110909,149.527679 
	C213.072723,149.527679 300.138794,149.527679 387.605652,149.527679 
	C387.605652,227.657791 387.605652,306.037476 387.605652,384.711914 
	C375.394318,384.711914 362.985199,384.711914 350.241486,384.711914 
	C340.970490,341.404968 318.836182,305.993042 283.554230,279.093536 
	C255.081085,257.385162 224.386551,249.102615 201.006165,249.820709 
	C201.006165,251.603058 201.009613,253.402771 201.005661,255.202469 
	C200.951462,279.865906 201.342575,304.541473 200.671829,329.188141 
	C200.277206,343.689117 197.939636,358.210754 187.026077,369.178528 
	C182.921371,373.303680 177.808350,376.856445 172.519974,379.290283 
	C157.897324,386.019775 142.083389,386.349396 126.072464,386.831635 
	C126.072464,376.520630 126.072464,366.611023 126.072464,357.732269 
	C133.723618,355.309998 141.178848,353.699310 147.969788,350.622437 
	C157.913864,346.116943 162.625015,337.475403 162.932281,326.713623 
	C163.255569,315.390747 163.139999,304.054352 163.151703,292.723816 
	C163.176453,268.735291 163.159241,244.746674 163.159241,220.093201 
	C192.311417,220.219131 221.444962,217.771332 250.158783,226.946747 
z"/>
</svg>