<svg version="1.1" id="Layer_1" xmlns="http://www.w3.org/2000/svg" xmlns:xlink="http://www.w3.org/1999/xlink" x="0px" y="0px"
	 width="100%" viewBox="0 0 496 496" enable-background="new 0 0 496 496" xml:space="preserve">
<path fill="#000000" opacity="1.000000" stroke="none" 
	d="
M225.406769,219.403137 
	C207.253586,236.483261 192.575043,255.692474 182.165588,278.038757 
	C172.294495,299.229248 166.293274,321.425323 165.235443,344.832275 
	C163.143387,391.124054 164.838409,437.444580 164.326447,483.749176 
	C164.243912,491.214081 164.313034,491.221893 157.052322,491.223236 
	C148.221054,491.224854 139.387634,491.097443 130.559570,491.262634 
	C126.888916,491.331329 125.270164,489.986420 125.644203,486.311951 
	C125.728119,485.487549 125.651672,484.646942 125.651672,483.813812 
	C125.651382,374.672699 125.650772,265.531555 125.652481,156.390442 
	C125.652603,148.698883 125.660591,148.689667 133.178070,148.683090 
	C142.009323,148.675339 150.842316,148.787659 159.670944,148.636749 
	C163.087143,148.578354 164.404221,149.753860 164.353470,153.252991 
	C163.935593,182.061096 165.237228,210.892410 163.230057,239.677780 
	C162.791519,245.966888 161.131165,252.140366 161.278366,258.802887 
	C162.748581,257.751038 162.867447,256.186798 163.262497,254.909317 
	C168.300613,238.618271 177.588043,224.981812 189.272186,212.794128 
	C208.649414,192.581802 229.943237,174.857574 255.002777,162.015167 
	C283.299530,147.513748 313.137909,141.304611 344.840027,145.780487 
	C367.892670,149.035172 383.253784,165.629013 387.287140,190.444641 
	C391.700317,217.597260 382.985291,240.528351 365.875671,261.101074 
	C355.786835,273.231995 344.001556,283.367737 330.245880,292.030273 
	C332.537933,295.506287 334.600281,298.682312 336.710266,301.826355 
	C352.955780,326.033478 369.214539,350.231659 385.451965,374.444214 
	C386.375366,375.821136 387.404938,377.209625 387.941833,378.747437 
	C389.522217,383.274261 388.075775,385.329620 383.337769,385.332520 
	C345.846558,385.355316 308.355225,385.297974 270.864319,385.400421 
	C266.988586,385.411011 265.497498,384.182098 265.626190,380.238129 
	C265.848846,373.413788 265.932739,366.563995 265.588379,359.749481 
	C265.360718,355.244568 267.167664,353.991241 271.353668,354.014160 
	C290.348450,354.118195 309.344330,354.024780 328.339813,354.003143 
	C330.447845,354.000732 332.555908,354.002808 336.268127,354.002808 
	C321.210510,331.396088 306.978058,310.028198 292.388641,288.124359 
	C297.184357,284.998901 301.596130,282.106567 306.024872,279.240417 
	C322.701996,268.447418 336.862396,255.334564 344.379059,236.414963 
	C348.608124,225.770355 350.385376,214.547668 349.531433,203.134262 
	C348.109192,184.125397 333.459991,173.846298 312.535767,176.505112 
	C278.685150,180.806473 250.582306,196.720383 225.406769,219.403137 
z"/>
</svg>