<svg version="1.1" id="Layer_1" xmlns="http://www.w3.org/2000/svg" xmlns:xlink="http://www.w3.org/1999/xlink" x="0px" y="0px"
	 width="100%" viewBox="0 0 508 510" enable-background="new 0 0 508 510" xml:space="preserve">
<path fill="#FFFFFF" opacity="1.000000" stroke="none" 
	d="
M252.000000,511.000000 
	C168.000015,511.000000 84.500038,511.000000 1.000045,511.000000 
	C1.000030,341.000061 1.000030,171.000122 1.000015,1.000136 
	C170.333237,1.000091 339.666473,1.000091 508.999756,1.000045 
	C508.999847,170.999863 508.999847,340.999725 508.999939,510.999786 
	C423.500000,511.000000 338.000000,511.000000 252.000000,511.000000 
M250.599670,459.807343 
	C235.855560,458.529663 220.990921,458.035767 206.395554,455.791016 
	C184.395844,452.407471 172.363800,440.785828 168.937302,418.982941 
	C166.258087,401.935028 165.552475,384.575897 164.044235,367.348541 
	C163.976929,366.579865 164.647598,365.746582 165.197510,364.395569 
	C171.482864,372.936035 178.553284,380.068298 188.275848,382.688690 
	C198.478302,385.438477 209.056931,387.617310 219.575409,388.217102 
	C252.860962,390.115173 286.155701,390.583344 319.129333,383.961761 
	C354.486389,376.861603 376.166626,354.912689 383.238281,319.973816 
	C388.075256,296.075745 388.612885,271.993134 387.683289,247.855667 
	C387.017303,230.562195 384.923401,213.357727 378.953918,196.863556 
	C371.717804,176.869461 358.288452,163.041977 338.447510,155.460617 
	C320.648712,148.659592 301.961517,146.468689 283.146942,145.537979 
	C250.463303,143.921249 217.847702,144.185349 185.798019,152.130219 
	C173.714203,155.125702 162.463486,160.048447 152.788971,168.028900 
	C130.010880,186.818390 127.404312,212.988403 126.297607,239.908173 
	C138.671310,239.908173 150.585281,239.908173 162.803528,239.908173 
	C162.932083,237.200409 162.947708,234.725830 163.182938,232.272324 
	C164.513428,218.394333 168.016052,205.417465 178.626373,195.413101 
	C186.774017,187.730774 196.879242,183.680527 207.421158,181.216873 
	C239.318008,173.762543 271.474670,173.470551 303.574707,179.836334 
	C327.428619,184.566803 340.419464,198.178802 345.011566,221.941864 
	C350.735504,251.561798 350.112427,281.273956 345.892639,310.948059 
	C342.786621,332.789795 331.050262,347.688049 309.006500,353.076691 
	C301.435028,354.927551 293.716980,356.742615 285.979279,357.248016 
	C258.185120,359.063416 230.384933,359.809814 202.956619,353.275085 
	C183.864594,348.726471 170.573013,337.963806 166.263123,318.214081 
	C164.577209,310.488495 164.207230,302.475739 163.220764,294.454346 
	C151.060745,294.454346 138.671524,294.454346 126.190140,294.454346 
	C126.110298,295.381897 126.005074,296.029175 126.005997,296.676331 
	C126.048851,326.673492 125.796005,356.675507 126.269951,386.665985 
	C126.540642,403.794861 127.675919,420.931641 132.082642,437.657288 
	C137.283386,457.396667 148.604523,471.928955 167.737534,479.779755 
	C183.180862,486.116486 199.503265,488.285400 216.006378,489.274811 
	C253.493912,491.522278 290.941437,491.543579 328.179810,485.928497 
	C340.744354,484.033936 353.079773,480.695282 363.359222,472.812775 
	C379.099792,460.742706 380.487854,443.178558 381.018921,425.345520 
	C367.729767,425.345520 354.997375,425.345520 342.830048,425.345520 
	C341.883820,429.995667 341.455963,434.342865 340.093140,438.373962 
	C336.050964,450.330261 325.775269,454.650177 314.816711,455.741364 
	C293.809082,457.833252 272.663788,458.542358 250.599670,459.807343 
z"/>
<path fill="#020202" opacity="1.000000" stroke="none" 
	d="
M251.087646,459.816254 
	C272.663788,458.542358 293.809082,457.833252 314.816711,455.741364 
	C325.775269,454.650177 336.050964,450.330261 340.093140,438.373962 
	C341.455963,434.342865 341.883820,429.995667 342.830048,425.345520 
	C354.997375,425.345520 367.729767,425.345520 381.018921,425.345520 
	C380.487854,443.178558 379.099792,460.742706 363.359222,472.812775 
	C353.079773,480.695282 340.744354,484.033936 328.179810,485.928497 
	C290.941437,491.543579 253.493912,491.522278 216.006378,489.274811 
	C199.503265,488.285400 183.180862,486.116486 167.737534,479.779755 
	C148.604523,471.928955 137.283386,457.396667 132.082642,437.657288 
	C127.675919,420.931641 126.540642,403.794861 126.269951,386.665985 
	C125.796005,356.675507 126.048851,326.673492 126.005997,296.676331 
	C126.005074,296.029175 126.110298,295.381897 126.190140,294.454346 
	C138.671524,294.454346 151.060745,294.454346 163.220764,294.454346 
	C164.207230,302.475739 164.577209,310.488495 166.263123,318.214081 
	C170.573013,337.963806 183.864594,348.726471 202.956619,353.275085 
	C230.384933,359.809814 258.185120,359.063416 285.979279,357.248016 
	C293.716980,356.742615 301.435028,354.927551 309.006500,353.076691 
	C331.050262,347.688049 342.786621,332.789795 345.892639,310.948059 
	C350.112427,281.273956 350.735504,251.561798 345.011566,221.941864 
	C340.419464,198.178802 327.428619,184.566803 303.574707,179.836334 
	C271.474670,173.470551 239.318008,173.762543 207.421158,181.216873 
	C196.879242,183.680527 186.774017,187.730774 178.626373,195.413101 
	C168.016052,205.417465 164.513428,218.394333 163.182938,232.272324 
	C162.947708,234.725830 162.932083,237.200409 162.803528,239.908173 
	C150.585281,239.908173 138.671310,239.908173 126.297607,239.908173 
	C127.404312,212.988403 130.010880,186.818390 152.788971,168.028900 
	C162.463486,160.048447 173.714203,155.125702 185.798019,152.130219 
	C217.847702,144.185349 250.463303,143.921249 283.146942,145.537979 
	C301.961517,146.468689 320.648712,148.659592 338.447510,155.460617 
	C358.288452,163.041977 371.717804,176.869461 378.953918,196.863556 
	C384.923401,213.357727 387.017303,230.562195 387.683289,247.855667 
	C388.612885,271.993134 388.075256,296.075745 383.238281,319.973816 
	C376.166626,354.912689 354.486389,376.861603 319.129333,383.961761 
	C286.155701,390.583344 252.860962,390.115173 219.575409,388.217102 
	C209.056931,387.617310 198.478302,385.438477 188.275848,382.688690 
	C178.553284,380.068298 171.482864,372.936035 165.197510,364.395569 
	C164.647598,365.746582 163.976929,366.579865 164.044235,367.348541 
	C165.552475,384.575897 166.258087,401.935028 168.937302,418.982941 
	C172.363800,440.785828 184.395844,452.407471 206.395554,455.791016 
	C220.990921,458.035767 235.855560,458.529663 251.087646,459.816254 
z"/>
</svg>