<svg version="1.1" id="Layer_1" xmlns="http://www.w3.org/2000/svg" xmlns:xlink="http://www.w3.org/1999/xlink" x="0px" y="0px"
	 width="100%" viewBox="0 0 496 496" enable-background="new 0 0 496 496" xml:space="preserve">
<path fill="#000000" opacity="1.000000" stroke="none" 
	d="
M269.686279,237.591034 
	C299.880096,234.693039 328.630554,237.703201 353.710266,255.359192 
	C375.828186,270.930084 387.438324,292.836090 388.390015,320.205261 
	C388.948120,336.256561 386.067719,351.414490 377.533447,365.112579 
	C364.467743,386.083954 344.136200,391.046448 321.249084,389.760529 
	C315.455017,389.434967 309.693817,388.702026 303.988495,387.395325 
	C288.760223,383.907623 278.177917,374.854767 273.235443,360.258118 
	C266.747559,341.097412 267.046692,322.294861 279.675171,305.183350 
	C288.291382,293.508484 300.672363,288.802368 314.401886,286.718994 
	C322.684357,285.462158 330.953583,285.314331 340.324677,287.983307 
	C335.684082,281.320618 330.030701,277.783813 323.902435,275.231964 
	C294.047760,262.800415 264.511688,264.516663 236.299393,279.641205 
	C202.757339,297.623047 179.916199,325.115784 168.030151,361.464172 
	C165.896942,367.987640 164.976791,374.738892 164.391876,381.523376 
	C164.157150,384.246246 163.189621,385.376648 160.449020,385.359833 
	C149.951294,385.295380 139.452621,385.298004 128.954956,385.370178 
	C126.165611,385.389374 125.022957,384.140198 125.057022,381.462433 
	C125.090927,378.797028 125.016312,376.130402 125.015823,373.464325 
	C125.002693,301.476593 124.992775,229.488846 124.984085,157.501114 
	C124.983902,156.001495 125.050064,154.500519 125.006050,153.002518 
	C124.913010,149.835968 126.375320,148.675827 129.560883,148.639694 
	C149.542419,148.413116 169.225845,149.252304 188.993210,153.770737 
	C246.991760,167.028030 305.258453,179.112259 363.420410,191.654663 
	C368.294617,192.705765 373.160706,193.798553 378.050018,194.774384 
	C381.087646,195.380661 382.487061,196.821915 382.408112,200.191605 
	C382.193970,209.327728 382.334656,218.472183 382.334656,228.966217 
	C309.521637,213.438553 237.386856,198.055511 164.716049,182.558167 
	C162.774445,225.642517 167.351425,268.306702 161.617294,311.094574 
	C165.466537,305.476990 169.278275,299.833282 173.171219,294.246124 
	C195.629257,262.014587 226.292099,243.147446 265.239288,237.818390 
	C266.553680,237.638535 267.898529,237.681122 269.686279,237.591034 
M351.787109,343.236908 
	C354.141388,337.015472 353.906464,330.536102 353.745178,324.053986 
	C353.690216,321.844940 352.820129,320.323395 350.849396,319.241425 
	C342.159760,314.470703 332.923798,312.176270 323.042236,313.458435 
	C312.913666,314.772644 304.595703,321.603821 302.700836,330.073059 
	C300.485443,339.975037 300.843994,349.621796 309.548492,356.410004 
	C317.720093,362.782562 327.152344,365.262695 337.067993,360.441467 
	C344.050140,357.046539 348.639496,351.148193 351.787109,343.236908 
z"/>
</svg>