<svg version="1.1" id="Layer_1" xmlns="http://www.w3.org/2000/svg" xmlns:xlink="http://www.w3.org/1999/xlink" x="0px" y="0px"
	 width="100%" viewBox="0 0 508 510" enable-background="new 0 0 508 510" xml:space="preserve">
<path fill="#FFFFFF" opacity="1.000000" stroke="none" 
	d="
M231.000000,511.000000 
	C154.000015,511.000000 77.500038,511.000000 1.000041,511.000000 
	C1.000027,341.000061 1.000027,171.000122 1.000014,1.000132 
	C170.333237,1.000088 339.666473,1.000088 508.999756,1.000044 
	C508.999847,170.999863 508.999847,340.999725 508.999939,510.999786 
	C416.500000,511.000000 324.000000,511.000000 231.000000,511.000000 
M318.500000,149.013992 
	C307.834991,149.014496 297.168182,149.126801 286.506073,148.950745 
	C283.090088,148.894333 281.772339,149.849274 281.904877,153.441742 
	C282.156677,160.264938 282.227844,167.116531 281.887695,173.932068 
	C281.667725,178.340469 283.112152,179.671524 287.519928,179.621689 
	C306.348541,179.408768 325.183655,179.708206 344.010162,179.416321 
	C349.087463,179.337585 350.536743,180.809433 350.491547,185.867249 
	C350.257782,212.028625 350.451416,238.193466 350.356689,264.356567 
	C350.292694,282.026611 349.542633,299.665955 344.894562,316.849945 
	C340.105957,334.553619 329.018463,346.331909 311.437592,352.036469 
	C293.876007,357.734772 275.696655,358.076965 257.570038,358.216217 
	C237.734055,358.368683 217.971756,357.183838 199.104919,349.967438 
	C186.827576,345.271454 178.003220,336.867859 172.586090,325.035858 
	C166.312332,311.332794 164.124756,296.625458 163.965225,281.758331 
	C163.543304,242.435135 163.592163,203.106888 163.456436,163.780640 
	C163.444366,160.281097 163.348785,156.777542 163.481918,153.283081 
	C163.603516,150.091721 162.376236,148.836990 159.079269,148.948471 
	C152.920334,149.156769 146.749451,149.012512 140.583542,149.013794 
	C135.825165,149.014786 131.066772,149.013992 126.208076,149.013992 
	C126.109421,150.574509 126.013474,151.384521 126.013451,152.194534 
	C126.012222,189.856552 126.013222,227.518555 126.027939,265.180573 
	C126.035950,285.698517 126.877731,306.150146 132.051804,326.143616 
	C136.399002,342.941895 143.952545,357.666901 158.395325,368.367401 
	C168.403473,375.782318 179.687653,379.966919 191.439468,382.967651 
	C211.738083,388.150757 232.516251,389.253998 253.397202,389.196350 
	C279.252930,389.124908 304.966248,388.296722 330.094818,381.047180 
	C354.076080,374.128632 371.428558,360.123749 379.579376,336.087891 
	C385.407410,318.901703 387.589325,300.907562 387.717529,282.959381 
	C388.212677,213.638062 387.990479,144.311691 388.129425,74.987389 
	C388.136108,71.664459 387.010437,70.647133 383.813202,70.695709 
	C374.483185,70.837440 365.142212,70.964600 355.820618,70.650368 
	C351.357697,70.499924 350.232910,71.950462 350.277649,76.328522 
	C350.503998,98.490166 350.227173,120.657265 350.499359,142.817886 
	C350.562531,147.962387 349.006561,149.389496 343.991058,149.128448 
	C335.847443,148.704620 327.665680,149.014069 318.500000,149.013992 
z"/>
<path fill="#020202" opacity="1.000000" stroke="none" 
	d="
M319.000000,149.013992 
	C327.665680,149.014069 335.847443,148.704620 343.991058,149.128448 
	C349.006561,149.389496 350.562531,147.962387 350.499359,142.817886 
	C350.227173,120.657265 350.503998,98.490166 350.277649,76.328522 
	C350.232910,71.950462 351.357697,70.499924 355.820618,70.650368 
	C365.142212,70.964600 374.483185,70.837440 383.813202,70.695709 
	C387.010437,70.647133 388.136108,71.664459 388.129425,74.987389 
	C387.990479,144.311691 388.212677,213.638062 387.717529,282.959381 
	C387.589325,300.907562 385.407410,318.901703 379.579376,336.087891 
	C371.428558,360.123749 354.076080,374.128632 330.094818,381.047180 
	C304.966248,388.296722 279.252930,389.124908 253.397202,389.196350 
	C232.516251,389.253998 211.738083,388.150757 191.439468,382.967651 
	C179.687653,379.966919 168.403473,375.782318 158.395325,368.367401 
	C143.952545,357.666901 136.399002,342.941895 132.051804,326.143616 
	C126.877731,306.150146 126.035950,285.698517 126.027939,265.180573 
	C126.013222,227.518555 126.012222,189.856552 126.013451,152.194534 
	C126.013474,151.384521 126.109421,150.574509 126.208076,149.013992 
	C131.066772,149.013992 135.825165,149.014786 140.583542,149.013794 
	C146.749451,149.012512 152.920334,149.156769 159.079269,148.948471 
	C162.376236,148.836990 163.603516,150.091721 163.481918,153.283081 
	C163.348785,156.777542 163.444366,160.281097 163.456436,163.780640 
	C163.592163,203.106888 163.543304,242.435135 163.965225,281.758331 
	C164.124756,296.625458 166.312332,311.332794 172.586090,325.035858 
	C178.003220,336.867859 186.827576,345.271454 199.104919,349.967438 
	C217.971756,357.183838 237.734055,358.368683 257.570038,358.216217 
	C275.696655,358.076965 293.876007,357.734772 311.437592,352.036469 
	C329.018463,346.331909 340.105957,334.553619 344.894562,316.849945 
	C349.542633,299.665955 350.292694,282.026611 350.356689,264.356567 
	C350.451416,238.193466 350.257782,212.028625 350.491547,185.867249 
	C350.536743,180.809433 349.087463,179.337585 344.010162,179.416321 
	C325.183655,179.708206 306.348541,179.408768 287.519928,179.621689 
	C283.112152,179.671524 281.667725,178.340469 281.887695,173.932068 
	C282.227844,167.116531 282.156677,160.264938 281.904877,153.441742 
	C281.772339,149.849274 283.090088,148.894333 286.506073,148.950745 
	C297.168182,149.126801 307.834991,149.014496 319.000000,149.013992 
z"/>
</svg>