<svg version="1.1" id="Layer_1" xmlns="http://www.w3.org/2000/svg" xmlns:xlink="http://www.w3.org/1999/xlink" x="0px" y="0px"
	 width="100%" viewBox="0 0 508 510" enable-background="new 0 0 508 510" xml:space="preserve">
<path fill="#FFFFFF" opacity="1.000000" stroke="none" 
	d="
M251.000000,511.000000 
	C167.333359,511.000000 84.166710,511.000000 1.000045,511.000000 
	C1.000030,341.000061 1.000030,171.000122 1.000015,1.000136 
	C170.333237,1.000091 339.666473,1.000091 508.999756,1.000045 
	C508.999847,170.999863 508.999847,340.999725 508.999939,510.999786 
	C423.166656,511.000000 337.333344,511.000000 251.000000,511.000000 
M197.758789,452.897247 
	C189.253922,450.147827 181.419586,446.457977 175.799759,439.015106 
	C169.317581,430.430176 166.625839,420.583771 166.028137,410.148590 
	C165.125458,394.388519 165.895203,378.430054 159.388763,363.473572 
	C159.246750,363.147125 159.585007,362.611725 159.897263,361.414551 
	C162.205673,364.594543 163.954514,367.503967 166.181198,369.984497 
	C175.815826,380.717529 188.924072,383.975677 202.372055,386.012726 
	C230.012863,390.199646 257.855011,390.117981 285.660095,388.590668 
	C306.270416,387.458588 326.863892,385.502106 346.467285,378.201141 
	C359.287140,373.426605 371.101532,367.223358 378.701599,355.108582 
	C388.992828,338.704071 389.199310,320.959167 386.415253,302.549194 
	C383.658539,284.320007 373.295532,272.240997 357.010956,265.140503 
	C348.223389,261.308929 338.989990,257.883362 329.610962,256.134827 
	C294.947510,249.672577 260.096222,244.222717 225.407822,237.886993 
	C212.038025,235.445038 198.768204,232.150040 185.728867,228.307129 
	C176.311020,225.531509 170.199905,219.116455 169.709152,208.398407 
	C169.229950,197.932327 173.946091,190.689178 183.079712,186.545273 
	C189.233704,183.753204 195.755798,181.341888 202.365295,180.062683 
	C225.061783,175.669983 248.127747,175.092255 271.074127,176.453659 
	C285.418518,177.304688 299.848419,179.775436 313.810699,183.246185 
	C332.012115,187.770752 343.475861,199.673279 346.077179,218.932159 
	C346.583099,222.678040 346.990631,226.437225 347.454468,230.280701 
	C359.583160,230.280701 371.520416,230.280701 384.129913,230.280701 
	C383.376129,222.588242 382.916382,215.138535 381.868988,207.772385 
	C379.567261,191.585266 373.080475,177.542587 360.213013,166.853683 
	C347.168213,156.017471 331.545471,151.748444 315.336945,149.001968 
	C289.422913,144.610947 263.267883,144.295624 237.107254,145.125259 
	C215.785950,145.801437 194.579147,147.803497 174.025116,154.093765 
	C157.949677,159.013458 143.662918,166.634140 136.027191,182.533020 
	C129.459000,196.209106 129.125656,210.754395 131.831207,225.537460 
	C133.994644,237.358414 139.345490,247.159180 150.362427,252.356369 
	C160.069839,256.935822 170.128174,261.646179 180.543549,263.691315 
	C216.443680,270.740570 252.564972,276.665192 288.608185,282.982971 
	C304.032227,285.686523 319.459961,288.447083 333.669739,295.417786 
	C343.500610,300.240356 348.700104,308.438324 348.868652,319.371918 
	C349.043396,330.706818 346.576843,341.231598 335.342255,346.792450 
	C329.145111,349.859833 322.538208,352.716309 315.800110,353.970306 
	C281.100616,360.428284 246.170639,359.743530 211.300583,355.553497 
	C198.377762,354.000702 185.687164,350.807129 175.411652,341.941071 
	C169.447540,336.795044 165.428223,330.565796 165.909088,321.740845 
	C177.374802,321.740845 188.629700,321.740845 199.898254,321.740845 
	C199.898254,311.361633 199.898254,301.447357 199.898254,291.403259 
	C175.215759,291.403259 150.806854,291.403259 126.172615,291.403259 
	C126.104439,292.424927 126.003586,293.224243 126.004639,294.023407 
	C126.045120,324.685547 125.760582,355.353271 126.270699,386.007751 
	C126.569832,403.983429 128.122040,421.973907 133.819199,439.221008 
	C139.013031,454.944489 148.371460,467.433044 163.210327,475.526367 
	C174.956665,481.932983 187.648529,485.088684 200.703644,487.005615 
	C239.323868,492.676483 278.208221,489.876587 316.987885,490.426025 
	C317.281647,490.430206 317.579407,490.154358 317.979492,489.958191 
	C317.979492,479.890198 317.979492,469.774414 317.979492,459.163696 
	C316.173462,459.163696 314.553833,459.163727 312.934204,459.163727 
	C290.770630,459.163574 268.605469,459.324066 246.443970,459.109711 
	C230.270386,458.953278 214.166336,457.791229 197.758789,452.897247 
z"/>
<path fill="#020202" opacity="1.000000" stroke="none" 
	d="
M198.146301,453.000671 
	C214.166336,457.791229 230.270386,458.953278 246.443970,459.109711 
	C268.605469,459.324066 290.770630,459.163574 312.934204,459.163727 
	C314.553833,459.163727 316.173462,459.163696 317.979492,459.163696 
	C317.979492,469.774414 317.979492,479.890198 317.979492,489.958191 
	C317.579407,490.154358 317.281647,490.430206 316.987885,490.426025 
	C278.208221,489.876587 239.323868,492.676483 200.703644,487.005615 
	C187.648529,485.088684 174.956665,481.932983 163.210327,475.526367 
	C148.371460,467.433044 139.013031,454.944489 133.819199,439.221008 
	C128.122040,421.973907 126.569832,403.983429 126.270699,386.007751 
	C125.760582,355.353271 126.045120,324.685547 126.004639,294.023407 
	C126.003586,293.224243 126.104439,292.424927 126.172615,291.403259 
	C150.806854,291.403259 175.215759,291.403259 199.898254,291.403259 
	C199.898254,301.447357 199.898254,311.361633 199.898254,321.740845 
	C188.629700,321.740845 177.374802,321.740845 165.909088,321.740845 
	C165.428223,330.565796 169.447540,336.795044 175.411652,341.941071 
	C185.687164,350.807129 198.377762,354.000702 211.300583,355.553497 
	C246.170639,359.743530 281.100616,360.428284 315.800110,353.970306 
	C322.538208,352.716309 329.145111,349.859833 335.342255,346.792450 
	C346.576843,341.231598 349.043396,330.706818 348.868652,319.371918 
	C348.700104,308.438324 343.500610,300.240356 333.669739,295.417786 
	C319.459961,288.447083 304.032227,285.686523 288.608185,282.982971 
	C252.564972,276.665192 216.443680,270.740570 180.543549,263.691315 
	C170.128174,261.646179 160.069839,256.935822 150.362427,252.356369 
	C139.345490,247.159180 133.994644,237.358414 131.831207,225.537460 
	C129.125656,210.754395 129.459000,196.209106 136.027191,182.533020 
	C143.662918,166.634140 157.949677,159.013458 174.025116,154.093765 
	C194.579147,147.803497 215.785950,145.801437 237.107254,145.125259 
	C263.267883,144.295624 289.422913,144.610947 315.336945,149.001968 
	C331.545471,151.748444 347.168213,156.017471 360.213013,166.853683 
	C373.080475,177.542587 379.567261,191.585266 381.868988,207.772385 
	C382.916382,215.138535 383.376129,222.588242 384.129913,230.280701 
	C371.520416,230.280701 359.583160,230.280701 347.454468,230.280701 
	C346.990631,226.437225 346.583099,222.678040 346.077179,218.932159 
	C343.475861,199.673279 332.012115,187.770752 313.810699,183.246185 
	C299.848419,179.775436 285.418518,177.304688 271.074127,176.453659 
	C248.127747,175.092255 225.061783,175.669983 202.365295,180.062683 
	C195.755798,181.341888 189.233704,183.753204 183.079712,186.545273 
	C173.946091,190.689178 169.229950,197.932327 169.709152,208.398407 
	C170.199905,219.116455 176.311020,225.531509 185.728867,228.307129 
	C198.768204,232.150040 212.038025,235.445038 225.407822,237.886993 
	C260.096222,244.222717 294.947510,249.672577 329.610962,256.134827 
	C338.989990,257.883362 348.223389,261.308929 357.010956,265.140503 
	C373.295532,272.240997 383.658539,284.320007 386.415253,302.549194 
	C389.199310,320.959167 388.992828,338.704071 378.701599,355.108582 
	C371.101532,367.223358 359.287140,373.426605 346.467285,378.201141 
	C326.863892,385.502106 306.270416,387.458588 285.660095,388.590668 
	C257.855011,390.117981 230.012863,390.199646 202.372055,386.012726 
	C188.924072,383.975677 175.815826,380.717529 166.181198,369.984497 
	C163.954514,367.503967 162.205673,364.594543 159.897263,361.414551 
	C159.585007,362.611725 159.246750,363.147125 159.388763,363.473572 
	C165.895203,378.430054 165.125458,394.388519 166.028137,410.148590 
	C166.625839,420.583771 169.317581,430.430176 175.799759,439.015106 
	C181.419586,446.457977 189.253922,450.147827 198.146301,453.000671 
z"/>
</svg>