<svg version="1.1" id="Layer_1" xmlns="http://www.w3.org/2000/svg" xmlns:xlink="http://www.w3.org/1999/xlink" x="0px" y="0px"
	 width="100%" viewBox="0 0 508 510" enable-background="new 0 0 508 510" xml:space="preserve">
<path fill="#FFFFFF" opacity="1.000000" stroke="none" 
	d="
M248.000000,511.000000 
	C165.333359,511.000000 83.166702,511.000000 1.000044,511.000000 
	C1.000029,341.000061 1.000029,171.000122 1.000015,1.000135 
	C170.333237,1.000090 339.666473,1.000090 508.999756,1.000045 
	C508.999847,170.999863 508.999847,340.999725 508.999939,510.999786 
	C422.166656,511.000000 335.333344,511.000000 248.000000,511.000000 
M274.406860,358.148560 
	C271.914185,358.210205 269.421631,358.276276 266.928833,358.332794 
	C246.781631,358.789581 226.649811,358.744751 207.098083,352.955353 
	C194.900513,349.343597 184.156723,343.211121 177.503754,331.879791 
	C168.431091,316.427216 166.483932,299.219116 165.661301,281.588562 
	C240.016006,269.383972 313.995239,257.240997 388.808105,244.961212 
	C387.451111,233.794830 386.650452,223.185165 384.787415,212.765457 
	C381.530304,194.548828 374.270599,178.262390 359.325562,166.386566 
	C346.455444,156.159576 331.169647,151.582687 315.353577,149.105133 
	C276.823090,143.069382 238.194702,143.109314 199.632690,149.021667 
	C184.976913,151.268692 170.880463,155.472000 158.623093,164.188934 
	C142.879715,175.385025 135.103226,191.580688 131.025146,209.869476 
	C126.065216,232.113113 125.525810,254.708130 126.151756,277.357697 
	C126.697914,297.119904 128.384933,316.749451 135.032150,335.578033 
	C140.693069,351.612823 150.383499,364.415405 165.292313,373.094727 
	C177.717224,380.328003 191.266418,384.041443 205.301971,385.949097 
	C241.091446,390.813324 276.892914,390.879211 312.567963,384.814636 
	C328.684479,382.074890 344.226166,377.427795 357.639160,367.594238 
	C382.695343,349.224640 387.687805,322.584412 388.100922,293.769470 
	C375.537201,293.769470 363.444946,293.769470 351.656250,293.769470 
	C350.754028,300.825134 350.123718,307.597382 348.987915,314.283752 
	C345.843750,332.793915 335.134155,345.011597 317.470947,351.122101 
	C303.847443,355.835022 289.658661,357.278595 274.406860,358.148560 
z"/>
<path fill="#030303" opacity="1.000000" stroke="none" 
	d="
M274.887970,358.084442 
	C289.658661,357.278595 303.847443,355.835022 317.470947,351.122101 
	C335.134155,345.011597 345.843750,332.793915 348.987915,314.283752 
	C350.123718,307.597382 350.754028,300.825134 351.656250,293.769470 
	C363.444946,293.769470 375.537201,293.769470 388.100922,293.769470 
	C387.687805,322.584412 382.695343,349.224640 357.639160,367.594238 
	C344.226166,377.427795 328.684479,382.074890 312.567963,384.814636 
	C276.892914,390.879211 241.091446,390.813324 205.301971,385.949097 
	C191.266418,384.041443 177.717224,380.328003 165.292313,373.094727 
	C150.383499,364.415405 140.693069,351.612823 135.032150,335.578033 
	C128.384933,316.749451 126.697914,297.119904 126.151756,277.357697 
	C125.525810,254.708130 126.065216,232.113113 131.025146,209.869476 
	C135.103226,191.580688 142.879715,175.385025 158.623093,164.188934 
	C170.880463,155.472000 184.976913,151.268692 199.632690,149.021667 
	C238.194702,143.109314 276.823090,143.069382 315.353577,149.105133 
	C331.169647,151.582687 346.455444,156.159576 359.325562,166.386566 
	C374.270599,178.262390 381.530304,194.548828 384.787415,212.765457 
	C386.650452,223.185165 387.451111,233.794830 388.808105,244.961212 
	C313.995239,257.240997 240.016006,269.383972 165.661301,281.588562 
	C166.483932,299.219116 168.431091,316.427216 177.503754,331.879791 
	C184.156723,343.211121 194.900513,349.343597 207.098083,352.955353 
	C226.649811,358.744751 246.781631,358.789581 266.928833,358.332794 
	C269.421631,358.276276 271.914185,358.210205 274.887970,358.084442 
M185.381973,189.849991 
	C182.676819,192.526779 179.361618,194.815384 177.369568,197.945938 
	C167.456482,213.524643 166.452820,231.177734 165.634018,249.438614 
	C226.450043,239.578751 286.621979,229.823318 347.046722,220.026917 
	C345.391418,210.533142 342.318085,202.297485 335.586670,195.480164 
	C326.772156,186.553177 315.627716,182.732727 303.888428,180.346451 
	C275.233978,174.521774 246.346786,174.820419 217.485138,178.358063 
	C206.299286,179.729141 195.329666,182.509537 185.381973,189.849991 
z"/>
<path fill="#FEFEFE" opacity="1.000000" stroke="none" 
	d="
M185.658356,189.618073 
	C195.329666,182.509537 206.299286,179.729141 217.485138,178.358063 
	C246.346786,174.820419 275.233978,174.521774 303.888428,180.346451 
	C315.627716,182.732727 326.772156,186.553177 335.586670,195.480164 
	C342.318085,202.297485 345.391418,210.533142 347.046722,220.026917 
	C286.621979,229.823318 226.450043,239.578751 165.634018,249.438614 
	C166.452820,231.177734 167.456482,213.524643 177.369568,197.945938 
	C179.361618,194.815384 182.676819,192.526779 185.658356,189.618073 
z"/>
</svg>