<svg version="1.1" id="Layer_1" xmlns="http://www.w3.org/2000/svg" xmlns:xlink="http://www.w3.org/1999/xlink" x="0px" y="0px"
	 width="100%" viewBox="0 0 496 496" enable-background="new 0 0 496 496" xml:space="preserve">
<path fill="#000000" opacity="1.000000" stroke="none" 
	d="
M346.262573,366.474487 
	C341.432281,353.732513 340.994690,340.698730 340.926941,327.746155 
	C340.699524,284.253998 340.834259,240.760025 340.816925,197.266754 
	C340.814056,190.128983 340.768707,189.891266 333.664124,190.310135 
	C290.664032,192.845154 252.660095,207.783432 220.336029,236.500549 
	C189.150040,264.206573 173.053818,299.900177 166.621384,340.320862 
	C164.562302,353.259888 163.911011,366.489136 164.371307,379.659088 
	C164.520889,383.939178 163.265213,385.597260 158.756805,385.447845 
	C149.601669,385.144440 140.422638,385.152893 131.266998,385.449829 
	C126.853287,385.592957 125.537964,384.129333 125.569954,379.754883 
	C125.747856,355.426575 125.654037,331.096344 125.656982,306.766754 
	C125.662575,260.607208 125.505257,214.446747 125.765701,168.288620 
	C125.859535,151.657486 127.496361,135.114960 131.601990,118.882195 
	C138.120514,93.109383 154.442932,77.038231 179.691635,69.642326 
	C199.503067,63.839123 219.937958,62.364235 240.380066,61.848110 
	C258.179413,61.398712 276.009094,61.201096 293.829437,62.542183 
	C308.614410,63.654839 323.342010,64.926651 337.692932,68.783012 
	C350.441772,72.208839 362.393219,77.254440 370.194946,88.700668 
	C376.561005,98.040550 379.098816,108.621140 379.357300,119.845055 
	C379.429779,122.993652 377.864166,123.937233 375.101837,123.937370 
	C364.103699,123.937920 353.105591,123.960930 342.107452,123.974998 
	C339.926941,123.977783 337.985352,123.528549 337.879578,120.853775 
	C337.249176,104.909271 325.963440,99.801056 313.013000,97.568008 
	C285.459503,92.816948 257.652863,93.412270 229.854965,95.077873 
	C221.701920,95.566383 213.652237,96.730827 205.674927,98.454834 
	C182.293350,103.507912 169.548279,118.208046 166.284027,141.648666 
	C165.181915,149.563080 164.252991,157.459457 164.293533,165.476776 
	C164.389587,184.473312 164.272995,203.470840 164.321060,222.467758 
	C164.357758,236.967911 163.801956,251.416962 161.501129,265.766663 
	C161.172485,267.816437 161.455627,269.964325 161.455627,273.537384 
	C163.375687,268.205383 164.817413,264.215149 166.249771,260.221619 
	C170.968048,247.066681 179.460602,236.441803 188.844589,226.396774 
	C217.820465,195.379669 252.948761,174.670624 293.975586,164.076416 
	C314.902924,158.672394 336.318146,157.366486 357.868530,157.799103 
	C363.698547,157.916153 369.535370,157.911362 375.364471,157.770462 
	C378.546173,157.693542 379.986237,158.949631 379.907928,162.143036 
	C379.830322,165.306992 379.918518,168.474777 379.918518,171.640884 
	C379.918579,221.466507 379.889893,271.292145 379.945557,321.117706 
	C379.952972,327.761322 379.745453,334.447296 381.391266,340.991486 
	C383.731384,350.296570 388.971161,355.002289 398.535248,355.576843 
	C402.240387,355.799500 403.454987,357.153931 403.372162,360.724365 
	C403.198303,368.219177 403.236359,375.721954 403.351288,383.218964 
	C403.396851,386.191711 402.320709,387.384033 399.277069,387.349518 
	C387.421387,387.215088 375.652557,386.498627 364.365814,382.469299 
	C356.375305,379.616791 350.072510,374.713745 346.262573,366.474487 
z"/>
</svg>