<svg version="1.1" id="Layer_1" xmlns="http://www.w3.org/2000/svg" xmlns:xlink="http://www.w3.org/1999/xlink" x="0px" y="0px"
	 width="100%" viewBox="0 0 508 510" enable-background="new 0 0 508 510" xml:space="preserve">
<path fill="#FFFFFF" opacity="1.000000" stroke="none" 
	d="
M246.000000,511.000000 
	C164.000015,511.000000 82.500038,511.000000 1.000044,511.000000 
	C1.000029,341.000061 1.000029,171.000122 1.000015,1.000135 
	C170.333237,1.000090 339.666473,1.000090 508.999756,1.000045 
	C508.999847,170.999863 508.999847,340.999725 508.999939,510.999786 
	C421.500000,511.000000 334.000000,511.000000 246.000000,511.000000 
M177.753510,227.243881 
	C171.917099,238.415421 166.080673,249.586960 159.581696,262.026733 
	C166.254166,223.961899 162.981705,186.771271 163.947754,149.444870 
	C150.904999,149.444870 138.510895,149.444870 125.987991,149.444870 
	C125.987991,227.995758 125.987991,306.263733 125.987991,384.610718 
	C138.672424,384.610718 151.191956,384.610718 164.332550,384.610718 
	C160.677643,329.664276 170.636169,278.932068 208.723450,237.125229 
	C246.429169,195.737213 294.710815,177.443756 349.911499,173.839523 
	C349.911499,213.233154 349.911499,251.957611 349.911499,291.124207 
	C336.281647,285.364380 322.452820,285.756256 308.506073,287.997101 
	C292.659241,290.543213 280.692230,298.438568 274.488495,313.604889 
	C268.258698,328.834778 268.095551,344.500549 273.548431,359.896240 
	C278.743927,374.565033 289.232941,383.856598 304.711243,387.019562 
	C318.358185,389.808289 332.117798,390.511444 345.771423,387.530029 
	C361.586182,384.076691 373.253632,375.193481 380.216217,360.194153 
	C385.738922,348.296753 387.889618,335.756134 387.928406,322.898102 
	C388.102295,265.237244 388.004120,207.575577 388.004120,149.914200 
	C388.004120,148.301895 388.004120,146.689575 388.004120,144.826935 
	C377.674225,144.826935 367.868561,144.855896 358.063110,144.822006 
	C311.292023,144.660339 267.949585,156.807129 228.219315,181.438278 
	C208.844269,193.450027 192.008682,208.432755 177.753510,227.243881 
z"/>
<path fill="#020202" opacity="1.000000" stroke="none" 
	d="
M178.002899,226.985809 
	C192.008682,208.432755 208.844269,193.450027 228.219315,181.438278 
	C267.949585,156.807129 311.292023,144.660339 358.063110,144.822006 
	C367.868561,144.855896 377.674225,144.826935 388.004120,144.826935 
	C388.004120,146.689575 388.004120,148.301895 388.004120,149.914200 
	C388.004120,207.575577 388.102295,265.237244 387.928406,322.898102 
	C387.889618,335.756134 385.738922,348.296753 380.216217,360.194153 
	C373.253632,375.193481 361.586182,384.076691 345.771423,387.530029 
	C332.117798,390.511444 318.358185,389.808289 304.711243,387.019562 
	C289.232941,383.856598 278.743927,374.565033 273.548431,359.896240 
	C268.095551,344.500549 268.258698,328.834778 274.488495,313.604889 
	C280.692230,298.438568 292.659241,290.543213 308.506073,287.997101 
	C322.452820,285.756256 336.281647,285.364380 349.911499,291.124207 
	C349.911499,251.957611 349.911499,213.233154 349.911499,173.839523 
	C294.710815,177.443756 246.429169,195.737213 208.723450,237.125229 
	C170.636169,278.932068 160.677643,329.664276 164.332550,384.610718 
	C151.191956,384.610718 138.672424,384.610718 125.987991,384.610718 
	C125.987991,306.263733 125.987991,227.995758 125.987991,149.444870 
	C138.510895,149.444870 150.904999,149.444870 163.947754,149.444870 
	C162.981705,186.771271 166.254166,223.961899 159.581696,262.026733 
	C166.080673,249.586960 171.917099,238.415421 178.002899,226.985809 
M350.150208,319.057343 
	C348.963135,318.055145 347.892334,316.393250 346.569672,316.160095 
	C339.142395,314.850647 331.630676,312.868347 324.192719,313.041962 
	C313.118286,313.300507 302.560669,321.133759 301.208069,334.196533 
	C299.813202,347.667358 305.299438,357.082672 317.952057,361.743561 
	C331.627045,366.781067 344.372131,360.740204 347.565643,346.578918 
	C349.511383,337.950745 349.367645,328.851410 350.150208,319.057343 
z"/>
<path fill="#FEFEFE" opacity="1.000000" stroke="none" 
	d="
M350.156342,319.510529 
	C349.367645,328.851410 349.511383,337.950745 347.565643,346.578918 
	C344.372131,360.740204 331.627045,366.781067 317.952057,361.743561 
	C305.299438,357.082672 299.813202,347.667358 301.208069,334.196533 
	C302.560669,321.133759 313.118286,313.300507 324.192719,313.041962 
	C331.630676,312.868347 339.142395,314.850647 346.569672,316.160095 
	C347.892334,316.393250 348.963135,318.055145 350.156342,319.510529 
z"/>
</svg>