<svg version="1.1" id="Layer_1" xmlns="http://www.w3.org/2000/svg" xmlns:xlink="http://www.w3.org/1999/xlink" x="0px" y="0px"
	 width="100%" viewBox="0 0 496 496" enable-background="new 0 0 496 496" xml:space="preserve">
<path fill="#000000" opacity="1.000000" stroke="none" 
	d="
M388.346344,163.000854 
	C388.332367,249.497894 388.365936,335.495087 388.258606,421.492126 
	C388.241058,435.533264 384.503998,448.824677 378.059204,461.245544 
	C369.366669,477.998505 354.605194,486.100250 336.646210,489.220764 
	C327.442810,490.819916 318.141144,491.313263 308.791748,491.283691 
	C305.228729,491.272400 303.631653,490.229065 303.732941,486.444855 
	C303.929047,479.116821 303.949188,471.776154 303.748627,464.448761 
	C303.643799,460.617737 305.294495,459.524536 308.829315,459.636597 
	C313.151367,459.773560 317.562958,460.017151 321.801300,459.354370 
	C339.640900,456.564667 349.503265,444.754669 349.624359,425.996124 
	C349.781464,401.664581 349.686554,377.331329 349.687805,352.998810 
	C349.690826,296.000671 349.688782,239.002548 349.682220,182.004425 
	C349.681427,175.180679 349.657196,175.045135 342.764526,175.321167 
	C316.953186,176.354813 292.529907,183.136139 269.175629,193.827393 
	C231.939636,210.873474 202.910583,236.861206 183.849976,273.429382 
	C173.584656,293.123627 167.549576,314.070190 165.237549,336.171692 
	C163.760025,350.295990 164.164948,364.440948 163.959549,378.583466 
	C163.861496,385.335266 163.896545,385.348816 157.383408,385.358032 
	C148.883698,385.370087 140.367264,385.036285 131.890350,385.475464 
	C126.583763,385.750397 125.555038,383.696320 125.563324,378.870056 
	C125.691200,304.372711 125.652275,229.875092 125.652428,155.377533 
	C125.652428,154.710907 125.716736,154.038330 125.650505,153.378632 
	C125.311470,150.001877 126.671165,148.588242 130.196991,148.642776 
	C140.027588,148.794861 149.862747,148.757950 159.694656,148.655518 
	C162.684174,148.624374 163.941162,149.838654 163.922806,152.768661 
	C163.793365,173.429321 163.687149,194.090149 163.600815,214.751038 
	C163.541107,229.039948 162.710724,243.277298 160.497528,257.373810 
	C162.065628,257.804230 162.291138,256.808990 162.482452,256.128479 
	C169.595825,230.827164 186.847443,212.825394 206.143829,196.597504 
	C235.195618,172.165527 269.177185,157.894714 305.966705,149.677673 
	C331.704407,143.929092 357.816071,143.946213 383.955322,144.031509 
	C387.041351,144.041580 388.510254,145.214355 388.384094,148.504105 
	C388.205444,153.163330 388.343964,157.834747 388.346344,163.000854 
z"/>
</svg>