<svg version="1.1" id="Layer_1" xmlns="http://www.w3.org/2000/svg" xmlns:xlink="http://www.w3.org/1999/xlink" x="0px" y="0px"
	 width="100%" viewBox="0 0 496 496" enable-background="new 0 0 496 496" xml:space="preserve">
<path fill="#000000" opacity="1.000000" stroke="none" 
	d="
M256.183228,163.149124 
	C269.921631,151.740829 285.823120,147.297333 302.903839,145.576462 
	C317.617493,144.094055 332.141235,144.496460 346.594330,147.607529 
	C372.767029,153.241272 385.047943,168.503830 391.229401,193.712402 
	C396.614258,215.672302 397.340698,238.130661 397.314209,260.630249 
	C397.267883,299.963501 397.303284,339.296783 397.292603,378.630066 
	C397.290771,385.329437 397.263519,385.347443 390.761047,385.358398 
	C381.261078,385.374390 371.758484,385.233185 362.262360,385.424438 
	C358.491882,385.500336 357.491760,384.121643 357.507263,380.450531 
	C357.647247,347.284454 357.566559,314.117584 357.630096,280.951080 
	C357.671326,259.451904 357.117310,237.979721 354.607788,216.611725 
	C353.772858,209.502502 351.884674,202.579712 349.221222,195.902725 
	C345.006287,185.336273 337.180054,179.633240 325.957764,177.989517 
	C316.549164,176.611435 307.514618,176.964951 298.452362,180.312210 
	C286.027496,184.901474 279.682373,193.916977 277.308289,206.492691 
	C276.216400,212.276550 276.139893,218.077087 276.135040,223.899155 
	C276.110718,253.065765 276.206390,282.232727 276.095490,311.398926 
	C276.040894,325.755341 275.012817,339.962799 269.380859,353.509369 
	C262.187408,370.811737 248.554169,380.080017 231.324387,385.318909 
	C210.401657,391.680664 189.225052,391.325073 168.136215,387.132080 
	C142.446457,382.024323 129.775574,370.795715 122.658012,341.834290 
	C117.573807,321.146576 116.859886,300.012634 116.677597,278.875671 
	C116.329803,238.548935 116.257416,198.219742 116.104935,157.891434 
	C116.072800,149.393555 116.458954,149.045944 124.695251,149.018768 
	C132.695160,148.992371 140.695236,148.994125 148.695175,149.012863 
	C156.673172,149.031555 156.857971,149.247177 156.878006,157.062027 
	C156.994583,202.560852 156.811646,248.063690 157.410416,293.556244 
	C157.619675,309.454712 158.491516,325.545105 165.388092,340.454926 
	C170.106552,350.655792 178.275742,355.718140 189.264847,356.784027 
	C199.518661,357.778625 209.425400,357.361694 218.872665,352.349976 
	C230.493729,346.185150 236.137833,336.354248 236.642044,323.712616 
	C237.983963,290.069946 237.570908,256.400146 237.579086,222.738388 
	C237.582336,209.378784 238.435104,196.142944 243.176132,183.425339 
	C246.015427,175.809006 249.902908,168.944397 256.183228,163.149124 
z"/>
</svg>