<svg version="1.1" id="Layer_1" xmlns="http://www.w3.org/2000/svg" xmlns:xlink="http://www.w3.org/1999/xlink" x="0px" y="0px"
	 width="100%" viewBox="0 0 508 510" enable-background="new 0 0 508 510" xml:space="preserve">
<path fill="#FFFFFF" opacity="1.000000" stroke="none" 
	d="
M252.000000,511.000000 
	C168.000015,511.000000 84.500038,511.000000 1.000045,511.000000 
	C1.000030,341.000061 1.000030,171.000122 1.000015,1.000136 
	C170.333237,1.000091 339.666473,1.000091 508.999756,1.000045 
	C508.999847,170.999863 508.999847,340.999725 508.999939,510.999786 
	C423.500000,511.000000 338.000000,511.000000 252.000000,511.000000 
M277.941833,457.463531 
	C248.439438,458.648132 218.922455,458.706329 189.647095,454.614990 
	C171.005264,452.009766 158.889648,445.156250 157.790253,425.320312 
	C144.571365,425.320312 131.350311,425.320312 117.668968,425.320312 
	C118.183380,430.965454 118.415405,436.286346 119.191597,441.526581 
	C121.874008,459.636047 131.054779,473.220764 148.875656,478.738800 
	C162.134064,482.844116 175.882568,486.042999 189.646988,487.699951 
	C220.304962,491.390503 251.183975,491.111176 282.002930,489.885040 
	C303.821899,489.016998 325.511536,486.970367 346.190247,478.997284 
	C367.233917,470.883514 381.513641,456.334381 388.622223,434.917633 
	C395.805969,413.274475 396.916504,390.806000 396.955627,368.284149 
	C397.079163,297.126587 397.001282,225.968674 397.001312,154.810883 
	C397.001312,153.183350 397.001312,151.555817 397.001312,149.715012 
	C383.832336,149.715012 371.061462,149.715012 357.830688,149.715012 
	C357.830688,151.680847 357.830719,153.469330 357.830719,155.257828 
	C357.830475,194.086319 358.015045,232.916031 357.754639,271.742767 
	C357.617371,292.207977 357.677277,312.767181 352.135315,332.754333 
	C349.194916,343.358978 343.820587,352.612488 332.653076,355.546570 
	C324.920776,357.578094 316.468567,358.193634 308.470123,357.615234 
	C291.306427,356.374023 279.979858,345.412811 277.175598,328.503998 
	C276.310059,323.285156 276.068542,317.914398 276.050659,312.611481 
	C275.948822,282.448914 276.372070,252.278961 275.813019,222.126434 
	C275.598724,210.569290 274.287048,198.811188 271.653320,187.571625 
	C267.603760,170.289963 256.574677,158.209625 239.744217,151.913620 
	C219.562180,144.363876 198.668137,143.730148 177.677795,146.721985 
	C144.798569,151.408371 130.903732,164.355087 122.894440,196.638412 
	C117.633392,217.844330 117.233383,239.531799 117.080391,261.169373 
	C116.797623,301.162354 116.996223,341.158813 117.011398,381.153809 
	C117.011879,382.411285 117.200722,383.668732 117.284721,384.714172 
	C130.450500,384.714172 143.215057,384.714172 156.169327,384.714172 
	C156.169327,382.445984 156.159500,380.463715 156.170761,378.481598 
	C156.440460,330.992828 156.309891,283.496063 157.256012,236.020737 
	C157.504547,223.549103 160.187485,210.904892 163.401550,198.776962 
	C166.481613,187.154648 174.375519,178.922943 187.198715,177.595749 
	C193.949371,176.897049 200.904892,176.365463 207.585709,177.206238 
	C219.175797,178.664871 229.120804,183.878082 233.916733,195.198013 
	C236.262100,200.733871 237.792572,207.044632 237.886795,213.033066 
	C238.400681,245.685501 238.338852,278.346832 238.505539,311.004974 
	C238.568573,323.352814 239.282608,335.615051 242.947250,347.546967 
	C247.353363,361.893066 255.497833,373.024841 269.249847,379.798981 
	C286.858582,388.472961 305.571777,390.544434 324.717255,388.723480 
	C338.645721,387.398712 349.564972,380.650452 355.799255,367.518127 
	C356.242645,366.584137 357.003113,365.800690 357.932831,364.506439 
	C358.419098,365.654999 358.905090,366.243103 358.867188,366.795258 
	C357.899139,380.906158 357.686859,395.130096 355.674774,409.093964 
	C352.584320,430.542175 341.037170,445.944946 319.191772,451.039917 
	C305.978424,454.121643 292.326202,455.321533 277.941833,457.463531 
z"/>
<path fill="#010101" opacity="1.000000" stroke="none" 
	d="
M278.406494,457.415222 
	C292.326202,455.321533 305.978424,454.121643 319.191772,451.039917 
	C341.037170,445.944946 352.584320,430.542175 355.674774,409.093964 
	C357.686859,395.130096 357.899139,380.906158 358.867188,366.795258 
	C358.905090,366.243103 358.419098,365.654999 357.932831,364.506439 
	C357.003113,365.800690 356.242645,366.584137 355.799255,367.518127 
	C349.564972,380.650452 338.645721,387.398712 324.717255,388.723480 
	C305.571777,390.544434 286.858582,388.472961 269.249847,379.798981 
	C255.497833,373.024841 247.353363,361.893066 242.947250,347.546967 
	C239.282608,335.615051 238.568573,323.352814 238.505539,311.004974 
	C238.338852,278.346832 238.400681,245.685501 237.886795,213.033066 
	C237.792572,207.044632 236.262100,200.733871 233.916733,195.198013 
	C229.120804,183.878082 219.175797,178.664871 207.585709,177.206238 
	C200.904892,176.365463 193.949371,176.897049 187.198715,177.595749 
	C174.375519,178.922943 166.481613,187.154648 163.401550,198.776962 
	C160.187485,210.904892 157.504547,223.549103 157.256012,236.020737 
	C156.309891,283.496063 156.440460,330.992828 156.170761,378.481598 
	C156.159500,380.463715 156.169327,382.445984 156.169327,384.714172 
	C143.215057,384.714172 130.450500,384.714172 117.284721,384.714172 
	C117.200722,383.668732 117.011879,382.411285 117.011398,381.153809 
	C116.996223,341.158813 116.797623,301.162354 117.080391,261.169373 
	C117.233383,239.531799 117.633392,217.844330 122.894440,196.638412 
	C130.903732,164.355087 144.798569,151.408371 177.677795,146.721985 
	C198.668137,143.730148 219.562180,144.363876 239.744217,151.913620 
	C256.574677,158.209625 267.603760,170.289963 271.653320,187.571625 
	C274.287048,198.811188 275.598724,210.569290 275.813019,222.126434 
	C276.372070,252.278961 275.948822,282.448914 276.050659,312.611481 
	C276.068542,317.914398 276.310059,323.285156 277.175598,328.503998 
	C279.979858,345.412811 291.306427,356.374023 308.470123,357.615234 
	C316.468567,358.193634 324.920776,357.578094 332.653076,355.546570 
	C343.820587,352.612488 349.194916,343.358978 352.135315,332.754333 
	C357.677277,312.767181 357.617371,292.207977 357.754639,271.742767 
	C358.015045,232.916031 357.830475,194.086319 357.830719,155.257828 
	C357.830719,153.469330 357.830688,151.680847 357.830688,149.715012 
	C371.061462,149.715012 383.832336,149.715012 397.001312,149.715012 
	C397.001312,151.555817 397.001312,153.183350 397.001312,154.810883 
	C397.001282,225.968674 397.079163,297.126587 396.955627,368.284149 
	C396.916504,390.806000 395.805969,413.274475 388.622223,434.917633 
	C381.513641,456.334381 367.233917,470.883514 346.190247,478.997284 
	C325.511536,486.970367 303.821899,489.016998 282.002930,489.885040 
	C251.183975,491.111176 220.304962,491.390503 189.646988,487.699951 
	C175.882568,486.042999 162.134064,482.844116 148.875656,478.738800 
	C131.054779,473.220764 121.874008,459.636047 119.191597,441.526581 
	C118.415405,436.286346 118.183380,430.965454 117.668968,425.320312 
	C131.350311,425.320312 144.571365,425.320312 157.790253,425.320312 
	C158.889648,445.156250 171.005264,452.009766 189.647095,454.614990 
	C218.922455,458.706329 248.439438,458.648132 278.406494,457.415222 
z"/>
</svg>