<svg version="1.1" id="Layer_1" xmlns="http://www.w3.org/2000/svg" xmlns:xlink="http://www.w3.org/1999/xlink" x="0px" y="0px"
	 width="100%" viewBox="0 0 496 496" enable-background="new 0 0 496 496" xml:space="preserve">
<path fill="#000000" opacity="1.000000" stroke="none" 
	d="
M211.999603,148.660522 
	C217.164902,148.661285 221.848175,148.916626 226.490723,148.591064 
	C231.017136,148.273636 232.950882,150.002029 232.880615,154.501068 
	C232.779175,160.997177 233.020126,167.500000 232.853699,173.993271 
	C232.699753,179.998932 231.781479,180.858704 225.679092,180.885040 
	C208.517227,180.959152 191.354874,180.927429 174.192703,180.918121 
	C164.339371,180.912766 164.323425,180.895859 164.322083,190.984848 
	C164.318207,220.143906 163.832703,249.314835 164.531952,278.457245 
	C164.909241,294.182098 166.778244,309.925140 173.469513,324.641998 
	C181.145950,341.525696 195.152420,349.720642 212.358734,353.550659 
	C236.694839,358.967804 261.365906,358.154572 285.964600,356.497589 
	C296.704987,355.774078 307.341064,353.549591 317.401978,349.124725 
	C331.959106,342.722443 340.289093,331.297668 344.482147,316.461823 
	C348.216187,303.250183 349.503021,289.617188 349.608337,275.999664 
	C349.918793,235.845901 349.736145,195.688309 349.744781,155.532227 
	C349.746246,148.694702 349.742401,148.679047 356.696411,148.667923 
	C365.694031,148.653519 374.693085,148.758896 383.688599,148.621628 
	C387.072449,148.570007 388.405670,149.703964 388.396423,153.233200 
	C388.279388,197.887497 388.653809,242.547424 388.029266,287.193695 
	C387.811523,302.759003 385.512512,318.295685 380.942535,333.412140 
	C373.324402,358.611389 356.315094,373.788757 331.595764,381.161591 
	C312.321991,386.910278 292.584625,389.009186 272.525482,389.485504 
	C258.694336,389.813904 244.871689,389.834503 231.083603,389.194794 
	C211.421371,388.282532 192.062637,385.331268 173.707672,377.623444 
	C153.759781,369.246704 140.658188,354.674591 133.922241,334.184998 
	C128.359146,317.263062 125.935242,299.768097 125.851883,282.116241 
	C125.528458,213.635529 125.714478,145.152542 125.540947,76.670830 
	C125.528091,71.596443 127.343117,69.837486 132.170364,69.930252 
	C140.664902,70.093506 149.165634,69.903625 157.662445,69.991188 
	C163.541397,70.051765 164.308167,70.851517 164.315765,76.685204 
	C164.344208,98.512802 164.318970,120.340454 164.321442,142.168091 
	C164.322174,148.642181 164.333633,148.650146 171.011581,148.653809 
	C184.507645,148.661209 198.003693,148.659058 211.999603,148.660522 
z"/>
</svg>