<svg version="1.1" id="Layer_1" xmlns="http://www.w3.org/2000/svg" xmlns:xlink="http://www.w3.org/1999/xlink" x="0px" y="0px"
	 width="100%" viewBox="0 0 496 496" enable-background="new 0 0 496 496" xml:space="preserve">
<path fill="#000000" opacity="1.000000" stroke="none" 
	d="
M349.287964,430.268188 
	C349.500275,419.178619 349.651154,408.517151 349.670349,397.855438 
	C349.710297,375.688995 349.825470,353.521179 349.634460,331.356293 
	C349.474976,312.847015 350.431488,294.434357 353.087830,276.114014 
	C353.173553,275.523041 353.570282,274.865326 352.776703,274.361298 
	C351.385040,275.277985 351.316193,276.881683 350.932831,278.241791 
	C344.310730,301.736115 328.918884,319.050690 310.973846,334.411469 
	C278.617340,362.108276 240.318222,376.442413 198.826141,383.056793 
	C176.059540,386.686127 153.037262,386.413483 130.051620,386.226990 
	C126.880997,386.201294 125.383232,384.974884 125.657135,381.758881 
	C125.713470,381.097443 125.653366,380.426361 125.653458,379.759735 
	C125.661064,322.426788 125.605919,265.093719 125.729759,207.761017 
	C125.755226,195.970078 128.541962,184.747086 134.028320,174.178070 
	C142.357361,158.132889 156.717499,151.742599 173.471252,149.791656 
	C194.543427,147.337814 215.755386,149.164703 236.898102,148.644669 
	C240.549973,148.554840 241.198853,150.255905 241.378860,153.475845 
	C244.456436,208.530609 227.414551,256.700775 192.130127,298.759644 
	C184.408112,307.964264 176.429504,316.900421 167.590286,325.032196 
	C165.176010,327.253235 164.140869,329.660736 164.268051,332.927368 
	C164.468872,338.086182 164.522858,343.268951 164.256653,348.421844 
	C164.046692,352.485870 165.311768,353.956573 169.604828,353.831909 
	C185.324707,353.375366 200.673538,350.722595 215.788834,346.619019 
	C248.889526,337.632660 278.519104,322.296417 302.520844,297.418976 
	C325.025299,274.093445 339.549255,246.463730 345.772797,214.478745 
	C349.618011,194.716858 350.003693,174.796310 349.579926,154.815659 
	C349.477936,150.005966 350.939117,148.405106 355.779083,148.583008 
	C364.933319,148.919510 374.112518,148.835968 383.273529,148.609558 
	C387.257721,148.511124 388.596863,149.969391 388.401337,153.840286 
	C388.157806,158.661224 388.346527,163.503937 388.345795,168.337234 
	C388.332825,252.836655 388.374756,337.336182 388.252197,421.835419 
	C388.231567,436.052338 384.337402,449.485779 377.666595,461.985504 
	C368.969025,478.283020 354.367279,486.103088 336.815826,489.201721 
	C327.453827,490.854553 317.983429,491.367798 308.465332,491.296600 
	C305.071564,491.271179 303.659271,490.181610 303.734528,486.678925 
	C303.895569,479.182465 303.907043,471.677246 303.730469,464.181458 
	C303.645569,460.578339 305.248962,459.579437 308.543274,459.642212 
	C313.032043,459.727753 317.618774,460.014343 322.003510,459.271027 
	C338.688690,456.442413 346.236572,448.303711 349.287964,430.268188 
M164.312790,258.499939 
	C164.312790,266.552094 164.312790,274.604248 164.312790,282.876373 
	C165.501495,282.553253 165.886169,282.554871 166.113724,282.366608 
	C166.748367,281.841553 167.403336,281.303375 167.900848,280.655609 
	C188.812805,253.426422 202.322189,223.137207 205.582642,188.696518 
	C206.379837,180.275620 206.138428,180.248291 197.468399,180.239777 
	C193.640030,180.236023 189.811630,180.264572 185.983261,180.260162 
	C181.864670,180.255402 178.170319,181.631973 174.656815,183.651703 
	C166.328857,188.439056 164.547653,196.552368 164.413620,205.067093 
	C164.138550,222.540894 164.319962,240.021881 164.312790,258.499939 
z"/>
</svg>