<svg version="1.1" id="Layer_1" xmlns="http://www.w3.org/2000/svg" xmlns:xlink="http://www.w3.org/1999/xlink" x="0px" y="0px"
	 width="100%" viewBox="0 0 508 510" enable-background="new 0 0 508 510" xml:space="preserve">
<path fill="#FFFFFF" opacity="1.000000" stroke="none" 
	d="
M221.000000,511.000000 
	C147.333344,511.000000 74.166702,511.000000 1.000039,511.000000 
	C1.000026,341.000061 1.000026,171.000122 1.000013,1.000131 
	C170.333237,1.000087 339.666473,1.000087 508.999756,1.000044 
	C508.999847,170.999863 508.999847,340.999725 508.999939,510.999786 
	C413.166656,511.000000 317.333344,511.000000 221.000000,511.000000 
M349.826019,223.499924 
	C349.826019,243.832565 350.007233,264.167603 349.739258,284.496735 
	C349.627777,292.950714 349.025238,301.459015 347.826691,309.825256 
	C345.338226,327.195648 338.261688,341.985657 320.651245,348.468140 
	C312.051758,351.633667 302.811401,353.637268 293.690186,354.700867 
	C262.823822,358.299957 231.872910,357.784393 201.104950,353.679474 
	C184.775574,351.500885 168.368530,348.167511 163.830276,328.447266 
	C151.341385,328.447266 139.108826,328.447266 126.577408,328.447266 
	C129.269836,347.742004 136.868195,363.550232 154.110916,373.576508 
	C167.032867,381.090332 181.296600,384.044464 195.826523,386.039642 
	C221.289352,389.536041 246.916107,389.682831 272.535187,389.105713 
	C293.132721,388.641693 313.618256,387.127686 333.610413,381.333405 
	C357.724091,374.344635 374.052582,359.697906 381.059082,335.222137 
	C385.768005,318.772430 387.558350,301.873657 387.717865,284.915802 
	C388.133331,240.757538 387.950378,196.593658 387.998047,152.432022 
	C387.999084,151.475250 387.902313,150.518372 387.829895,149.163132 
	C373.918549,149.163132 360.295746,149.111359 346.674835,149.248260 
	C345.400604,149.261047 343.898651,150.213135 342.905762,151.154510 
	C321.775482,171.189056 300.711365,191.293442 279.614777,211.363602 
	C271.832550,218.767212 264.000275,226.118210 256.183167,233.500397 
	C255.519485,233.001373 255.091843,232.746658 254.744583,232.409225 
	C227.162415,205.609512 199.596039,178.793488 171.978836,152.029938 
	C170.743790,150.833084 169.063080,149.311279 167.569366,149.288452 
	C153.785919,149.077759 139.997925,149.164185 126.182556,149.164185 
	C126.182556,191.183380 126.182556,232.714050 126.182556,274.045471 
	C138.915131,274.045471 151.286194,274.045471 164.126160,274.045471 
	C164.126160,246.050140 164.126160,218.523376 164.126160,190.714371 
	C164.884872,191.149689 165.198059,191.255890 165.413620,191.463470 
	C192.990952,218.018890 220.568100,244.574478 248.123962,271.152161 
	C252.249313,275.131073 259.672760,275.357147 263.583496,271.415161 
	C289.984222,244.803391 316.376221,218.182938 342.730072,191.524811 
	C344.851532,189.378860 346.665771,186.929184 348.622772,184.620651 
	C349.023834,184.951813 349.424927,185.282974 349.826019,185.614120 
	C349.826019,197.909393 349.826019,210.204651 349.826019,223.499924 
z"/>
<path fill="#030303" opacity="1.000000" stroke="none" 
	d="
M349.826019,222.999908 
	C349.826019,210.204651 349.826019,197.909393 349.826019,185.614120 
	C349.424927,185.282974 349.023834,184.951813 348.622772,184.620651 
	C346.665771,186.929184 344.851532,189.378860 342.730072,191.524811 
	C316.376221,218.182938 289.984222,244.803391 263.583496,271.415161 
	C259.672760,275.357147 252.249313,275.131073 248.123962,271.152161 
	C220.568100,244.574478 192.990952,218.018890 165.413620,191.463470 
	C165.198059,191.255890 164.884872,191.149689 164.126160,190.714371 
	C164.126160,218.523376 164.126160,246.050140 164.126160,274.045471 
	C151.286194,274.045471 138.915131,274.045471 126.182556,274.045471 
	C126.182556,232.714050 126.182556,191.183380 126.182556,149.164185 
	C139.997925,149.164185 153.785919,149.077759 167.569366,149.288452 
	C169.063080,149.311279 170.743790,150.833084 171.978836,152.029938 
	C199.596039,178.793488 227.162415,205.609512 254.744583,232.409225 
	C255.091843,232.746658 255.519485,233.001373 256.183167,233.500397 
	C264.000275,226.118210 271.832550,218.767212 279.614777,211.363602 
	C300.711365,191.293442 321.775482,171.189056 342.905762,151.154510 
	C343.898651,150.213135 345.400604,149.261047 346.674835,149.248260 
	C360.295746,149.111359 373.918549,149.163132 387.829895,149.163132 
	C387.902313,150.518372 387.999084,151.475250 387.998047,152.432022 
	C387.950378,196.593658 388.133331,240.757538 387.717865,284.915802 
	C387.558350,301.873657 385.768005,318.772430 381.059082,335.222137 
	C374.052582,359.697906 357.724091,374.344635 333.610413,381.333405 
	C313.618256,387.127686 293.132721,388.641693 272.535187,389.105713 
	C246.916107,389.682831 221.289352,389.536041 195.826523,386.039642 
	C181.296600,384.044464 167.032867,381.090332 154.110916,373.576508 
	C136.868195,363.550232 129.269836,347.742004 126.577408,328.447266 
	C139.108826,328.447266 151.341385,328.447266 163.830276,328.447266 
	C168.368530,348.167511 184.775574,351.500885 201.104950,353.679474 
	C231.872910,357.784393 262.823822,358.299957 293.690186,354.700867 
	C302.811401,353.637268 312.051758,351.633667 320.651245,348.468140 
	C338.261688,341.985657 345.338226,327.195648 347.826691,309.825256 
	C349.025238,301.459015 349.627777,292.950714 349.739258,284.496735 
	C350.007233,264.167603 349.826019,243.832565 349.826019,222.999908 
z"/>
</svg>