<svg version="1.1" id="Layer_1" xmlns="http://www.w3.org/2000/svg" xmlns:xlink="http://www.w3.org/1999/xlink" x="0px" y="0px"
	 width="100%" viewBox="0 0 496 496" enable-background="new 0 0 496 496" xml:space="preserve">
<path fill="#000000" opacity="1.000000" stroke="none" 
	d="
M348.669342,158.136078 
	C378.056183,173.003204 387.011749,198.977783 388.207092,229.006287 
	C388.689331,241.120132 390.005066,239.822266 377.409027,239.913879 
	C370.911255,239.961136 364.412628,239.950256 357.914764,239.906555 
	C351.127808,239.860916 350.983398,239.542542 350.666443,232.928452 
	C350.225525,223.727692 348.339661,214.858627 344.096313,206.562561 
	C337.430603,193.530609 325.791534,187.269684 312.548126,183.163544 
	C295.207184,177.786942 277.355042,176.321060 259.316681,176.219543 
	C238.467560,176.102203 217.686035,176.631851 197.426743,182.356247 
	C191.639099,183.991562 186.088409,186.224121 181.191040,189.830750 
	C170.149704,197.962036 168.913742,209.258011 170.948502,221.604233 
	C173.048431,234.345795 180.815842,241.925461 192.860107,245.551422 
	C201.538834,248.164185 210.464859,249.095245 219.485718,249.065125 
	C223.966583,249.050186 226.109848,250.421371 225.607651,255.475601 
	C225.100204,260.582397 225.458374,265.788879 225.624496,270.945648 
	C225.860199,278.262512 225.925720,278.063416 218.450760,278.355408 
	C207.285599,278.791534 196.077393,279.613464 185.823563,284.545929 
	C174.336075,290.071930 167.912888,299.409424 166.208740,312.140991 
	C165.445236,317.845184 165.669296,323.390991 167.060028,328.906067 
	C170.555145,342.766327 181.528656,348.080048 193.720001,351.637207 
	C209.320084,356.188904 225.395523,357.602203 241.572266,357.764160 
	C264.871124,357.997437 288.208801,358.523071 311.080383,352.753632 
	C334.877625,346.750702 347.249481,332.375702 349.669647,307.925720 
	C350.030426,304.281097 350.532806,300.634949 350.606293,296.982178 
	C350.668610,293.885620 352.198364,292.867737 354.955902,292.868591 
	C364.786224,292.871613 374.616547,292.871399 384.446869,292.860870 
	C386.731720,292.858429 388.318848,293.512939 388.318054,296.224274 
	C388.310791,321.319550 384.194031,345.018066 365.199890,363.564178 
	C353.186737,375.293915 338.139435,380.961090 322.099426,384.198975 
	C288.215271,391.038971 254.021072,390.967010 219.709076,388.473816 
	C201.384232,387.142273 183.406418,384.503113 166.022690,378.227814 
	C139.431351,368.628723 125.719772,349.341125 125.624260,321.004486 
	C125.602882,314.662567 125.814751,308.370331 127.060730,302.133789 
	C130.889389,282.970093 142.982651,272.070679 161.528976,267.632355 
	C165.080185,266.782532 168.664185,266.069763 172.474808,265.241211 
	C171.311661,263.490540 169.444305,263.442535 167.850876,262.962311 
	C163.065674,261.520142 158.424850,259.751312 153.843582,257.725769 
	C140.779343,251.949631 134.178589,241.598541 131.503220,227.957443 
	C128.683426,213.579895 128.887863,199.409225 134.066864,185.678802 
	C140.052170,169.810760 152.864136,161.266693 168.077164,155.600143 
	C187.653198,148.308441 208.150787,145.989166 228.766617,144.949783 
	C254.038986,143.675613 279.344727,143.603638 304.524658,146.809631 
	C319.569824,148.725250 334.415619,151.557587 348.669342,158.136078 
z"/>
</svg>