<svg version="1.1" id="Layer_1" xmlns="http://www.w3.org/2000/svg" xmlns:xlink="http://www.w3.org/1999/xlink" x="0px" y="0px"
	 width="100%" viewBox="0 0 496 496" enable-background="new 0 0 496 496" xml:space="preserve">
<path fill="#000000" opacity="1.000000" stroke="none" 
	d="
M124.984070,171.000107 
	C124.981422,165.500427 124.955971,160.500565 124.983337,155.500992 
	C125.020546,148.701706 125.037827,148.691040 132.064651,148.680832 
	C140.397522,148.668716 148.730453,148.670364 157.063324,148.679550 
	C164.317215,148.687546 164.326263,148.695816 164.326553,156.209091 
	C164.327148,171.041626 164.311569,185.874176 164.311691,200.706711 
	C164.312134,251.037354 164.314133,301.367981 164.322479,351.698639 
	C164.323471,357.640869 164.797897,357.937256 170.490601,357.539246 
	C196.812378,355.698822 222.083328,349.663086 246.055344,338.561737 
	C280.211182,322.744263 307.624390,299.443817 326.518433,266.465027 
	C340.545013,241.982132 347.432404,215.643341 349.088104,187.640717 
	C349.738434,176.641373 349.686218,165.661194 349.585541,154.676102 
	C349.544739,150.224533 350.742920,148.416962 355.479675,148.590393 
	C364.300629,148.913361 373.153717,148.952530 381.970337,148.573273 
	C387.028442,148.355713 388.471710,149.965347 388.454224,155.035187 
	C388.276093,206.698502 388.340668,258.362640 388.337494,310.026550 
	C388.336060,333.191986 388.226959,356.358307 388.425262,379.522034 
	C388.464722,384.130859 387.017090,385.593567 382.446442,385.440399 
	C373.290527,385.133606 364.114502,385.220581 354.952209,385.408813 
	C351.168060,385.486511 349.597961,384.353302 349.625580,380.328613 
	C349.792603,355.997894 349.507080,331.661469 349.918121,307.336151 
	C350.102844,296.403473 351.653442,285.503204 353.504028,274.573334 
	C351.794983,274.279358 351.819855,275.719330 351.656342,276.343079 
	C343.426636,307.737030 322.143616,329.070068 296.565430,346.690277 
	C261.446106,370.883179 222.334137,384.333893 179.890976,388.425507 
	C163.076904,390.046448 146.261871,388.920929 129.454987,389.396515 
	C126.215454,389.488190 124.957863,388.158722 125.002007,384.986816 
	C125.092461,378.488617 125.002831,371.988037 125.002075,365.488434 
	C124.994606,300.825653 124.990135,236.162857 124.984070,171.000107 
z"/>
</svg>