<svg version="1.1" id="Layer_1" xmlns="http://www.w3.org/2000/svg" xmlns:xlink="http://www.w3.org/1999/xlink" x="0px" y="0px"
	 width="100%" viewBox="0 0 496 496" enable-background="new 0 0 496 496" xml:space="preserve">
<path fill="#000000" opacity="1.000000" stroke="none" 
	d="
M342.615753,377.849304 
	C321.036469,386.299225 298.781311,388.324585 276.253418,389.524750 
	C257.915222,390.501740 239.625793,390.039307 221.363739,389.141144 
	C201.149994,388.146912 180.867935,386.928162 161.631927,379.393890 
	C146.375092,373.418213 134.811646,363.678864 127.993248,348.522461 
	C126.561790,345.340515 126.960129,343.525421 129.692932,341.380737 
	C159.034470,318.354004 188.303009,295.234100 217.564484,272.105499 
	C251.398483,245.362778 285.203979,218.583939 319.031616,191.833130 
	C319.938385,191.116028 320.957458,190.540970 322.189789,189.723434 
	C318.465607,185.725647 314.359039,184.388351 310.375000,182.983597 
	C298.184601,178.685272 285.436707,176.973923 272.662018,176.523560 
	C250.033752,175.725815 227.449448,176.071030 205.141220,181.207367 
	C180.577606,186.863007 165.848938,203.547760 164.202591,228.644592 
	C163.371307,241.316757 163.371323,241.316528 150.832153,241.310120 
	C143.834106,241.306549 136.835236,241.239609 129.838425,241.331345 
	C126.901955,241.369843 125.659828,240.246765 125.633194,237.226837 
	C125.467506,218.438385 128.609283,200.492050 138.536667,184.155701 
	C146.975922,170.268173 159.698349,161.695053 174.390396,155.965637 
	C190.621414,149.636047 207.732498,147.142303 225.028931,145.595062 
	C242.472946,144.034607 259.927399,143.904053 277.379425,144.733582 
	C298.834900,145.753403 320.127258,147.665344 340.291473,156.241455 
	C359.730194,164.509003 372.472870,178.676514 379.476990,198.357773 
	C385.683746,215.798553 387.599609,233.987015 388.190247,252.279602 
	C388.711060,268.409515 388.994446,284.605316 387.248596,300.693268 
	C385.325317,318.415985 382.474670,335.931488 373.029449,351.617096 
	C365.812561,363.602234 355.505463,371.904083 342.615753,377.849304 
M239.277344,296.790985 
	C218.460754,313.170227 197.644150,329.549469 176.763855,345.978821 
	C178.752792,348.429413 180.938553,348.886810 182.957565,349.549286 
	C194.390625,353.300751 206.185242,354.918152 218.150696,355.929962 
	C245.740234,358.262848 273.315918,358.980347 300.723846,354.517426 
	C325.513672,350.480835 340.853729,339.834381 345.153870,313.230560 
	C349.798370,284.495972 349.553802,255.617661 345.265045,226.829269 
	C344.787109,223.621155 344.622101,219.863525 341.322876,217.070816 
	C307.434509,243.554779 273.645111,269.961395 239.277344,296.790985 
z"/>
</svg>