<svg version="1.1" id="Layer_1" xmlns="http://www.w3.org/2000/svg" xmlns:xlink="http://www.w3.org/1999/xlink" x="0px" y="0px"
	 width="100%" viewBox="0 0 496 496" enable-background="new 0 0 496 496" xml:space="preserve">
<path fill="#000000" opacity="1.000000" stroke="none" 
	d="
M268.599335,389.844788 
	C241.473358,390.245697 214.861038,389.764252 188.817688,383.166290 
	C172.691376,379.080688 158.213593,371.851776 147.347809,358.772034 
	C137.390259,346.785583 132.535324,332.536011 129.676208,317.474884 
	C124.573357,290.594421 124.993752,263.506897 126.512314,236.358841 
	C127.229965,223.529022 128.968597,210.909592 132.509949,198.536102 
	C139.811218,173.025452 157.285507,158.360703 182.266541,151.670395 
	C201.357758,146.557480 220.883377,145.257370 240.551666,144.536575 
	C258.558014,143.876694 276.502136,144.382217 294.415070,145.789917 
	C311.190186,147.108215 327.839050,149.611618 343.393250,156.519241 
	C364.777771,166.016159 376.869171,183.080246 382.394562,205.356400 
	C386.176208,220.602509 388.058044,236.089783 388.261566,251.762817 
	C388.464844,267.413879 388.826324,283.088013 387.267059,298.696106 
	C385.777618,313.605499 383.521484,328.380707 377.582977,342.313782 
	C368.292328,364.111603 350.975952,376.217499 328.838593,382.286041 
	C311.084167,387.153107 292.909882,389.091400 274.536133,389.383942 
	C272.711060,389.412964 270.889313,389.647614 268.599335,389.844788 
M170.609329,313.977142 
	C174.579529,331.976074 185.184464,344.238434 202.420181,350.766754 
	C213.582184,354.994598 225.307755,356.915680 237.067795,357.423676 
	C259.679260,358.400360 282.361176,358.784851 304.629944,353.472443 
	C323.072449,349.072876 336.805878,338.914398 342.193237,320.086151 
	C349.808105,293.473145 349.317535,266.238617 347.129395,238.963669 
	C347.110413,238.727020 346.678162,238.523529 346.432678,238.305481 
	C286.565857,267.572937 226.695801,270.760468 166.467926,237.533752 
	C166.092041,251.753540 165.070236,265.144928 165.972794,278.625641 
	C166.751343,290.254028 167.459549,301.850342 170.609329,313.977142 
M247.874588,176.402573 
	C245.220749,176.610184 242.570328,176.917664 239.912506,177.008255 
	C227.921402,177.416962 215.989609,178.424713 204.342041,181.414154 
	C191.629776,184.676834 181.011642,190.909027 174.706970,203.109039 
	C172.969803,206.470612 172.928314,208.377213 176.957138,209.873550 
	C184.751495,212.768402 192.291977,216.350708 200.099335,219.206039 
	C225.686493,228.563858 251.917114,231.837326 279.073425,227.955780 
	C298.386414,225.195312 316.397278,218.491104 334.372162,211.472076 
	C340.234375,209.182938 340.499542,208.368896 337.139252,202.834503 
	C329.836517,190.806885 318.515442,184.611420 305.319855,181.407776 
	C286.754303,176.900375 267.802490,176.371765 247.874588,176.402573 
z"/>
</svg>