<svg version="1.1" id="Layer_1" xmlns="http://www.w3.org/2000/svg" xmlns:xlink="http://www.w3.org/1999/xlink" x="0px" y="0px"
	 width="100%" viewBox="0 0 508 510" enable-background="new 0 0 508 510" xml:space="preserve">
<path fill="#FFFFFF" opacity="1.000000" stroke="none" 
	d="
M233.000000,511.000000 
	C155.333359,511.000000 78.166702,511.000000 1.000041,511.000000 
	C1.000028,341.000061 1.000028,171.000122 1.000014,1.000133 
	C170.333237,1.000088 339.666473,1.000088 508.999756,1.000044 
	C508.999847,170.999863 508.999847,340.999725 508.999939,510.999786 
	C417.166656,511.000000 325.333344,511.000000 233.000000,511.000000 
M233.294159,84.959145 
	C236.974625,94.873039 244.263794,99.307793 256.441345,99.041954 
	C268.640411,98.775642 276.866547,91.435555 277.906952,79.888443 
	C279.276703,64.685837 273.797638,55.475506 260.826263,53.432995 
	C245.041656,50.947506 230.490051,56.672249 232.319595,78.736748 
	C232.470505,80.556633 232.828064,82.359375 233.294159,84.959145 
M282.362457,345.015259 
	C281.980713,352.303955 286.019562,357.619873 292.559143,358.436157 
	C298.854095,359.221924 304.337921,355.082855 305.392853,348.749573 
	C306.430054,342.522827 302.943939,337.041840 296.958496,335.488831 
	C290.476410,333.806976 284.793365,337.292572 282.362457,345.015259 
M153.868927,246.020691 
	C148.499008,249.593216 146.011292,254.391754 147.392639,259.194611 
	C148.771927,263.990417 151.825928,267.307831 156.956223,268.113556 
	C162.235565,268.942688 166.698044,266.832092 169.041229,262.299042 
	C171.254196,258.017975 171.143234,253.648270 168.332230,249.638428 
	C165.325073,245.348785 160.801437,244.163666 153.868927,246.020691 
M245.194473,353.731659 
	C245.007889,359.567078 247.802353,363.735443 253.043945,365.735077 
	C257.260864,367.343781 261.553497,366.668854 265.021576,363.281982 
	C268.642700,359.745697 269.785248,354.035767 267.537659,349.553955 
	C265.227875,344.948151 261.320038,342.800629 256.201843,343.064667 
	C250.854355,343.340515 247.203308,346.726440 245.194473,353.731659 
M231.187164,343.453674 
	C228.870941,337.734131 225.494400,335.150116 220.190887,335.125092 
	C214.988297,335.100525 211.328110,337.726105 209.197937,342.252838 
	C207.058273,346.799744 208.361008,351.914490 212.137100,355.379028 
	C215.968140,358.893982 220.394424,359.453186 225.038651,357.458649 
	C229.875153,355.381592 232.062820,350.535156 231.187164,343.453674 
M339.852203,228.702637 
	C345.524567,232.383163 351.130951,232.196899 355.237213,228.191513 
	C359.877960,223.664764 360.141724,216.247375 355.827271,211.597992 
	C351.676910,207.125412 344.275879,206.722275 339.636810,210.716049 
	C334.252533,215.351334 334.129730,222.192291 339.852203,228.702637 
M245.908569,162.337555 
	C250.059692,170.110901 257.300079,172.574524 263.458618,168.309113 
	C268.444672,164.855789 270.112000,158.225113 267.335510,152.891281 
	C264.761963,147.947342 258.728424,145.564301 253.291779,147.344574 
	C247.359161,149.287231 244.480164,154.682816 245.908569,162.337555 
M360.898987,246.298370 
	C352.144684,241.719223 342.139801,248.679947 343.538300,258.487000 
	C344.241791,263.420166 348.668579,267.626648 353.478577,268.166962 
	C359.117401,268.800385 363.858307,266.137146 365.910492,261.183289 
	C368.047058,256.025787 366.505157,250.962997 360.898987,246.298370 
M329.614471,175.853973 
	C324.198029,174.658768 319.692352,176.168137 316.608917,180.796463 
	C314.004211,184.706253 314.071442,188.971680 316.426300,193.002701 
	C318.985443,197.383362 324.113770,199.646072 328.701660,198.714874 
	C333.485901,197.743866 337.424561,193.614731 338.027985,188.937485 
	C338.804108,182.922043 336.503143,179.035278 329.614471,175.853973 
M196.805557,194.137955 
	C201.183136,186.341736 198.584656,178.040756 191.113770,175.955215 
	C185.222076,174.310516 179.448288,176.784912 176.875076,182.057312 
	C174.430573,187.066040 176.047867,193.170776 180.734665,196.625961 
	C185.669464,200.263977 191.062790,199.601822 196.805557,194.137955 
M228.229965,174.770645 
	C233.205811,168.275299 232.696930,161.021942 226.975708,156.893677 
	C221.620132,153.029205 214.213608,154.380310 210.337479,159.928787 
	C207.099899,164.563217 207.599319,170.283539 211.603958,174.435028 
	C216.080078,179.075287 221.699982,179.370987 228.229965,174.770645 
M178.073242,222.551300 
	C178.733459,214.627975 175.844086,209.716278 169.648682,208.230225 
	C163.941467,206.861252 157.924561,210.025208 155.895798,215.462097 
	C153.648346,221.485062 156.291962,227.791382 162.168823,230.426346 
	C168.444611,233.240173 174.202209,230.638947 178.073242,222.551300 
M181.562531,336.181549 
	C187.621475,338.898407 192.285507,338.245483 195.990067,334.161774 
	C199.531250,330.258179 200.156418,324.251099 197.474945,319.894623 
	C194.824905,315.589264 189.552414,313.000000 184.614700,315.099152 
	C181.344635,316.489319 177.947906,319.597778 176.500916,322.793976 
	C174.252121,327.761261 176.416367,332.466980 181.562531,336.181549 
M321.979034,315.267517 
	C316.623260,317.939056 314.001892,322.205139 314.995087,328.188477 
	C315.801514,333.046570 318.979584,336.125519 323.611450,337.482910 
	C328.179047,338.821442 332.114105,337.408020 335.239197,333.885803 
	C338.475464,330.238251 339.093140,324.617889 336.836945,320.429840 
	C334.237427,315.604523 329.826172,313.919067 321.979034,315.267517 
M178.327820,294.262115 
	C179.294952,287.347076 172.980881,281.763977 166.940796,281.906036 
	C160.569611,282.055908 155.519196,286.575104 155.036728,292.982056 
	C154.617752,298.545776 159.226746,304.288788 164.758392,305.095703 
	C171.729279,306.112579 176.645844,302.442688 178.327820,294.262115 
M304.363464,171.656662 
	C306.625366,164.644028 305.208771,159.467621 300.184631,156.386734 
	C295.708862,153.642105 289.148529,154.484497 285.551788,158.265732 
	C280.622955,163.447296 281.034332,170.648331 286.527802,175.351883 
	C292.085541,180.110458 298.775757,178.958542 304.363464,171.656662 
M341.695435,303.936951 
	C347.640686,306.219269 352.299042,305.432739 355.774689,301.559753 
	C359.079193,297.877502 359.840698,292.500519 357.677460,288.124603 
	C355.572388,283.866486 350.768524,281.365234 345.651093,282.008820 
	C340.931793,282.602325 337.612122,285.342224 336.165070,289.708160 
	C334.285431,295.379272 336.118042,300.111511 341.695435,303.936951 
z"/>
<path fill="#030303" opacity="1.000000" stroke="none" 
	d="
M233.191895,84.564613 
	C232.828064,82.359375 232.470505,80.556633 232.319595,78.736748 
	C230.490051,56.672249 245.041656,50.947506 260.826263,53.432995 
	C273.797638,55.475506 279.276703,64.685837 277.906952,79.888443 
	C276.866547,91.435555 268.640411,98.775642 256.441345,99.041954 
	C244.263794,99.307793 236.974625,94.873039 233.191895,84.564613 
z"/>
<path fill="#050505" opacity="1.000000" stroke="none" 
	d="
M282.501526,344.642883 
	C284.793365,337.292572 290.476410,333.806976 296.958496,335.488831 
	C302.943939,337.041840 306.430054,342.522827 305.392853,348.749573 
	C304.337921,355.082855 298.854095,359.221924 292.559143,358.436157 
	C286.019562,357.619873 281.980713,352.303955 282.501526,344.642883 
z"/>
<path fill="#050505" opacity="1.000000" stroke="none" 
	d="
M154.243225,245.890091 
	C160.801437,244.163666 165.325073,245.348785 168.332230,249.638428 
	C171.143234,253.648270 171.254196,258.017975 169.041229,262.299042 
	C166.698044,266.832092 162.235565,268.942688 156.956223,268.113556 
	C151.825928,267.307831 148.771927,263.990417 147.392639,259.194611 
	C146.011292,254.391754 148.499008,249.593216 154.243225,245.890091 
z"/>
<path fill="#050505" opacity="1.000000" stroke="none" 
	d="
M245.241669,353.337769 
	C247.203308,346.726440 250.854355,343.340515 256.201843,343.064667 
	C261.320038,342.800629 265.227875,344.948151 267.537659,349.553955 
	C269.785248,354.035767 268.642700,359.745697 265.021576,363.281982 
	C261.553497,366.668854 257.260864,367.343781 253.043945,365.735077 
	C247.802353,363.735443 245.007889,359.567078 245.241669,353.337769 
z"/>
<path fill="#050505" opacity="1.000000" stroke="none" 
	d="
M231.283798,343.833496 
	C232.062820,350.535156 229.875153,355.381592 225.038651,357.458649 
	C220.394424,359.453186 215.968140,358.893982 212.137100,355.379028 
	C208.361008,351.914490 207.058273,346.799744 209.197937,342.252838 
	C211.328110,337.726105 214.988297,335.100525 220.190887,335.125092 
	C225.494400,335.150116 228.870941,337.734131 231.283798,343.833496 
z"/>
<path fill="#050505" opacity="1.000000" stroke="none" 
	d="
M339.587585,228.451508 
	C334.129730,222.192291 334.252533,215.351334 339.636810,210.716049 
	C344.275879,206.722275 351.676910,207.125412 355.827271,211.597992 
	C360.141724,216.247375 359.877960,223.664764 355.237213,228.191513 
	C351.130951,232.196899 345.524567,232.383163 339.587585,228.451508 
z"/>
<path fill="#050505" opacity="1.000000" stroke="none" 
	d="
M245.801514,161.960205 
	C244.480164,154.682816 247.359161,149.287231 253.291779,147.344574 
	C258.728424,145.564301 264.761963,147.947342 267.335510,152.891281 
	C270.112000,158.225113 268.444672,164.855789 263.458618,168.309113 
	C257.300079,172.574524 250.059692,170.110901 245.801514,161.960205 
z"/>
<path fill="#050505" opacity="1.000000" stroke="none" 
	d="
M361.208252,246.528687 
	C366.505157,250.962997 368.047058,256.025787 365.910492,261.183289 
	C363.858307,266.137146 359.117401,268.800385 353.478577,268.166962 
	C348.668579,267.626648 344.241791,263.420166 343.538300,258.487000 
	C342.139801,248.679947 352.144684,241.719223 361.208252,246.528687 
z"/>
<path fill="#050505" opacity="1.000000" stroke="none" 
	d="
M329.991791,175.927063 
	C336.503143,179.035278 338.804108,182.922043 338.027985,188.937485 
	C337.424561,193.614731 333.485901,197.743866 328.701660,198.714874 
	C324.113770,199.646072 318.985443,197.383362 316.426300,193.002701 
	C314.071442,188.971680 314.004211,184.706253 316.608917,180.796463 
	C319.692352,176.168137 324.198029,174.658768 329.991791,175.927063 
z"/>
<path fill="#050505" opacity="1.000000" stroke="none" 
	d="
M196.558624,194.425751 
	C191.062790,199.601822 185.669464,200.263977 180.734665,196.625961 
	C176.047867,193.170776 174.430573,187.066040 176.875076,182.057312 
	C179.448288,176.784912 185.222076,174.310516 191.113770,175.955215 
	C198.584656,178.040756 201.183136,186.341736 196.558624,194.425751 
z"/>
<path fill="#050505" opacity="1.000000" stroke="none" 
	d="
M227.950378,175.025543 
	C221.699982,179.370987 216.080078,179.075287 211.603958,174.435028 
	C207.599319,170.283539 207.099899,164.563217 210.337479,159.928787 
	C214.213608,154.380310 221.620132,153.029205 226.975708,156.893677 
	C232.696930,161.021942 233.205811,168.275299 227.950378,175.025543 
z"/>
<path fill="#030303" opacity="1.000000" stroke="none" 
	d="
M178.007156,222.925964 
	C174.202209,230.638947 168.444611,233.240173 162.168823,230.426346 
	C156.291962,227.791382 153.648346,221.485062 155.895798,215.462097 
	C157.924561,210.025208 163.941467,206.861252 169.648682,208.230225 
	C175.844086,209.716278 178.733459,214.627975 178.007156,222.925964 
z"/>
<path fill="#050505" opacity="1.000000" stroke="none" 
	d="
M181.229370,335.992218 
	C176.416367,332.466980 174.252121,327.761261 176.500916,322.793976 
	C177.947906,319.597778 181.344635,316.489319 184.614700,315.099152 
	C189.552414,313.000000 194.824905,315.589264 197.474945,319.894623 
	C200.156418,324.251099 199.531250,330.258179 195.990067,334.161774 
	C192.285507,338.245483 187.621475,338.898407 181.229370,335.992218 
z"/>
<path fill="#050505" opacity="1.000000" stroke="none" 
	d="
M322.339355,315.147949 
	C329.826172,313.919067 334.237427,315.604523 336.836945,320.429840 
	C339.093140,324.617889 338.475464,330.238251 335.239197,333.885803 
	C332.114105,337.408020 328.179047,338.821442 323.611450,337.482910 
	C318.979584,336.125519 315.801514,333.046570 314.995087,328.188477 
	C314.001892,322.205139 316.623260,317.939056 322.339355,315.147949 
z"/>
<path fill="#030303" opacity="1.000000" stroke="none" 
	d="
M178.290985,294.642059 
	C176.645844,302.442688 171.729279,306.112579 164.758392,305.095703 
	C159.226746,304.288788 154.617752,298.545776 155.036728,292.982056 
	C155.519196,286.575104 160.569611,282.055908 166.940796,281.906036 
	C172.980881,281.763977 179.294952,287.347076 178.290985,294.642059 
z"/>
<path fill="#050505" opacity="1.000000" stroke="none" 
	d="
M304.197693,171.997314 
	C298.775757,178.958542 292.085541,180.110458 286.527802,175.351883 
	C281.034332,170.648331 280.622955,163.447296 285.551788,158.265732 
	C289.148529,154.484497 295.708862,153.642105 300.184631,156.386734 
	C305.208771,159.467621 306.625366,164.644028 304.197693,171.997314 
z"/>
<path fill="#050505" opacity="1.000000" stroke="none" 
	d="
M341.378571,303.748230 
	C336.118042,300.111511 334.285431,295.379272 336.165070,289.708160 
	C337.612122,285.342224 340.931793,282.602325 345.651093,282.008820 
	C350.768524,281.365234 355.572388,283.866486 357.677460,288.124603 
	C359.840698,292.500519 359.079193,297.877502 355.774689,301.559753 
	C352.299042,305.432739 347.640686,306.219269 341.378571,303.748230 
z"/>
</svg>