<svg version="1.1" id="Layer_1" xmlns="http://www.w3.org/2000/svg" xmlns:xlink="http://www.w3.org/1999/xlink" x="0px" y="0px"
	 width="100%" viewBox="0 0 496 496" enable-background="new 0 0 496 496" xml:space="preserve">
<path fill="#000000" opacity="1.000000" stroke="none" 
	d="
M199.619324,85.515640 
	C190.314163,83.345543 181.433273,81.192833 172.511444,79.225822 
	C169.021820,78.456459 167.547226,76.749191 167.655899,73.026657 
	C167.889038,65.039894 167.891357,57.036293 167.649689,49.049835 
	C167.520538,44.782585 169.044846,43.859707 172.998169,44.819748 
	C206.422043,52.936512 239.872955,60.941807 273.313599,68.989586 
	C296.256500,74.510994 319.177704,80.124817 342.155426,85.497002 
	C345.856720,86.362350 347.541748,87.762650 347.401031,91.771240 
	C347.132477,99.422600 347.333313,107.089851 347.293091,114.750267 
	C347.284515,116.381508 347.608917,118.104454 345.905396,120.301437 
	C297.525543,108.795280 248.776367,97.201286 199.619324,85.515640 
z"/>
<path fill="#000000" opacity="1.000000" stroke="none" 
	d="
M269.228943,354.935547 
	C267.644409,362.415802 264.368317,366.116058 258.572296,366.892303 
	C253.434586,367.580383 249.457153,365.326660 246.710770,361.107483 
	C244.028458,356.986786 243.897354,352.537384 246.519592,348.369476 
	C249.362869,343.850250 253.752365,342.098267 258.989655,342.781799 
	C263.715118,343.398560 266.866211,346.130280 268.387054,350.641907 
	C268.807434,351.888947 268.958984,353.226624 269.228943,354.935547 
z"/>
<path fill="#000000" opacity="1.000000" stroke="none" 
	d="
M179.804184,177.663818 
	C186.443756,173.933975 191.885498,174.263306 196.099579,178.389084 
	C199.649033,181.864151 200.652847,188.213928 198.214584,192.722687 
	C195.789337,197.207336 192.019821,199.579819 186.822372,199.287918 
	C181.855438,199.008972 178.236816,196.386963 176.370468,191.968857 
	C174.160645,186.737686 175.227951,181.873657 179.804184,177.663818 
z"/>
<path fill="#000000" opacity="1.000000" stroke="none" 
	d="
M334.924133,294.756500 
	C335.857666,286.818085 339.199066,282.537964 344.730225,281.733856 
	C351.714508,280.718536 357.443665,284.202728 359.014526,290.420837 
	C360.565033,296.558411 356.840546,303.453583 351.032471,305.198090 
	C344.559235,307.142395 338.414856,304.084015 335.698303,297.538025 
	C335.381805,296.775360 335.210144,295.952576 334.924133,294.756500 
z"/>
<path fill="#000000" opacity="1.000000" stroke="none" 
	d="
M153.738495,267.590332 
	C147.466339,263.396606 145.534607,258.872162 147.298019,253.121567 
	C148.896606,247.908493 152.922256,244.906815 158.317764,244.646057 
	C163.290237,244.405746 167.133087,246.208694 169.496933,250.611237 
	C172.015396,255.301697 171.679062,259.949066 168.398788,264.163300 
	C165.232864,268.230591 160.979874,269.546234 155.969437,268.389862 
	C155.325928,268.241302 154.708374,267.980316 153.738495,267.590332 
z"/>
<path fill="#000000" opacity="1.000000" stroke="none" 
	d="
M232.194473,347.753784 
	C229.377899,357.690765 221.523544,361.765320 214.189957,357.487671 
	C208.764969,354.323303 206.641754,348.850983 208.582855,343.036133 
	C210.437592,337.480103 215.488235,334.175629 221.276825,334.730865 
	C227.827240,335.359161 231.493866,339.581360 232.194473,347.753784 
z"/>
<path fill="#000000" opacity="1.000000" stroke="none" 
	d="
M301.335144,356.508118 
	C294.739471,360.130737 290.315430,359.871857 285.923584,355.872498 
	C281.673157,352.001984 280.572144,346.993683 282.834961,341.823578 
	C284.843964,337.233429 289.804565,334.232330 294.958160,334.748810 
	C299.783722,335.232422 303.438629,337.523346 305.207947,342.267548 
	C307.254944,347.756134 305.842865,352.367615 301.335144,356.508118 
z"/>
<path fill="#000000" opacity="1.000000" stroke="none" 
	d="
M164.416931,207.748810 
	C173.356552,207.679504 177.628494,210.797577 178.862045,217.937546 
	C179.774460,223.218765 176.267990,229.220398 171.170517,231.102280 
	C164.848679,233.436127 157.736328,230.122269 155.329681,223.721527 
	C152.868286,217.175171 156.372894,210.732361 164.416931,207.748810 
z"/>
<path fill="#000000" opacity="1.000000" stroke="none" 
	d="
M324.422485,199.193726 
	C318.706573,197.371124 315.146332,194.114655 314.616455,188.227158 
	C314.155212,183.102219 315.994659,179.147293 320.512970,176.562775 
	C325.220978,173.869736 329.804108,174.480820 334.056152,177.490234 
	C338.622406,180.722031 339.139587,185.586105 338.043793,190.452911 
	C336.928406,195.406662 333.362518,198.328934 328.308319,199.197861 
	C327.181366,199.391617 325.995087,199.240509 324.422485,199.193726 
z"/>
<path fill="#000000" opacity="1.000000" stroke="none" 
	d="
M336.524597,213.862274 
	C339.821198,208.521713 344.476654,206.859070 350.004120,207.870819 
	C354.873108,208.762054 357.897491,212.018234 359.006744,216.797699 
	C360.164581,221.786728 358.541107,225.973480 354.642365,229.246887 
	C350.781647,232.488434 344.904694,232.745804 340.713837,229.929337 
	C335.389099,226.350861 334.018738,221.439957 336.524597,213.862274 
z"/>
<path fill="#000000" opacity="1.000000" stroke="none" 
	d="
M158.580521,302.444275 
	C154.398422,298.152191 153.545212,293.488098 155.867218,288.448730 
	C157.815460,284.220581 161.164337,281.777435 166.014267,281.644012 
	C171.941223,281.480927 176.071716,283.860748 177.983643,288.675446 
	C179.962128,293.657776 178.694962,299.302551 174.814972,302.790771 
	C170.956528,306.259644 165.428619,306.687378 160.470428,303.875153 
	C159.897186,303.550018 159.395691,303.098419 158.580521,302.444275 
z"/>
<path fill="#000000" opacity="1.000000" stroke="none" 
	d="
M228.315048,175.330872 
	C223.902588,179.049271 219.283569,179.583679 214.600021,177.168594 
	C210.158875,174.878525 207.485199,171.037430 207.823608,165.890717 
	C208.137085,161.123428 210.485275,157.380081 215.048401,155.394714 
	C220.088257,153.201950 226.322540,154.661133 229.551102,158.705826 
	C233.416183,163.547943 233.100220,168.929642 228.315048,175.330872 
z"/>
<path fill="#000000" opacity="1.000000" stroke="none" 
	d="
M346.703552,265.306152 
	C342.247925,259.405365 341.762177,255.249146 344.723938,250.406525 
	C347.472168,245.913071 352.002533,243.829178 357.545197,244.779831 
	C362.441803,245.619659 365.470276,248.699997 366.853119,253.396439 
	C368.248444,258.135284 366.237335,263.623657 362.108856,266.603180 
	C357.563293,269.883728 352.573608,269.544403 346.703552,265.306152 
z"/>
<path fill="#000000" opacity="1.000000" stroke="none" 
	d="
M180.985626,336.343140 
	C175.514511,331.527405 174.027191,326.336426 176.351227,321.136902 
	C178.458740,316.421814 183.998886,313.281860 188.933029,314.051239 
	C193.729385,314.799133 197.324661,317.195068 198.924347,321.924713 
	C200.621597,326.942810 199.153442,332.417511 195.232391,335.513550 
	C190.887268,338.944427 186.188171,339.307495 180.985626,336.343140 
z"/>
<path fill="#000000" opacity="1.000000" stroke="none" 
	d="
M319.925781,336.375244 
	C314.531952,331.381744 313.091705,325.731598 315.622375,320.581390 
	C317.805206,316.139130 323.245789,313.245789 328.021271,314.084869 
	C332.759613,314.917389 336.666077,317.206818 337.934723,322.031128 
	C339.261719,327.077301 338.658295,332.032959 334.179718,335.598206 
	C329.820526,339.068420 325.114380,339.291199 319.925781,336.375244 
z"/>
<path fill="#000000" opacity="1.000000" stroke="none" 
	d="
M248.132172,150.139465 
	C253.703629,145.939743 259.542938,145.444611 264.039703,148.535965 
	C267.995911,151.255722 270.095459,156.720520 268.797791,161.234634 
	C267.414734,166.045776 264.595673,169.486801 259.386566,170.358917 
	C253.891083,171.278992 249.367783,169.264771 246.647476,164.678833 
	C243.669830,159.659073 244.182770,154.892776 248.132172,150.139465 
z"/>
<path fill="#000000" opacity="1.000000" stroke="none" 
	d="
M299.682251,177.193207 
	C292.284027,179.518906 287.354675,178.127243 283.851471,173.005692 
	C280.844482,168.609589 281.063049,163.337067 284.311981,159.040146 
	C287.695190,154.565643 292.382751,153.916306 297.339050,154.872635 
	C302.058563,155.783279 304.749023,159.107559 305.767548,163.732330 
	C307.038300,169.502319 304.669434,173.756195 299.682251,177.193207 
z"/>
</svg>