<svg version="1.1" id="Layer_1" xmlns="http://www.w3.org/2000/svg" xmlns:xlink="http://www.w3.org/1999/xlink" x="0px" y="0px"
	 width="100%" viewBox="0 0 508 510" enable-background="new 0 0 508 510" xml:space="preserve">
<path fill="#FFFFFF" opacity="1.000000" stroke="none" 
	d="
M278.000000,511.000000 
	C185.333359,511.000000 93.166710,511.000000 1.000049,511.000000 
	C1.000033,341.000061 1.000033,171.000122 1.000016,1.000141 
	C170.333237,1.000094 339.666473,1.000094 508.999756,1.000047 
	C508.999847,170.999863 508.999847,340.999725 508.999939,510.999786 
	C432.166656,511.000000 355.333344,511.000000 278.000000,511.000000 
M280.967773,55.602074 
	C274.234070,52.364487 267.550354,49.014763 260.729767,45.971924 
	C259.121094,45.254250 256.700317,44.829872 255.245590,45.519768 
	C227.039505,58.896252 198.915314,72.445618 170.810745,86.034843 
	C169.799011,86.524033 168.466995,87.770935 168.452026,88.683861 
	C168.284256,98.916267 168.346008,109.152435 168.346008,119.919556 
	C170.579330,118.942268 172.094116,118.334213 173.562164,117.628860 
	C200.052292,104.901230 226.566452,92.222717 252.985260,79.348579 
	C256.316864,77.725052 258.895264,77.799698 262.195038,79.407509 
	C288.614471,92.280167 315.126312,104.963188 341.618561,117.686172 
	C343.063110,118.379921 344.585144,118.912231 346.500183,119.695076 
	C346.500183,108.594574 346.500183,98.013229 346.500183,87.024399 
	C325.058258,76.740021 303.355194,66.330383 280.967773,55.602074 
M247.304886,347.953918 
	C244.239319,352.876648 244.344467,357.670715 248.054703,362.197937 
	C251.368469,366.241364 255.809738,367.340118 260.610748,365.906738 
	C265.309418,364.503967 267.893982,360.909302 268.566101,356.059540 
	C269.224487,351.308899 266.779053,346.576233 262.657776,344.385834 
	C257.726318,341.764862 252.821884,342.764191 247.304886,347.953918 
M215.863495,357.868561 
	C217.332672,358.104034 218.806198,358.562561 220.270203,358.533905 
	C225.005020,358.441345 228.566223,356.161346 230.528305,351.908020 
	C232.547318,347.531250 232.212326,343.162476 229.071487,339.319244 
	C226.060287,335.634644 222.020355,334.387146 217.483658,335.419891 
	C212.270035,336.606720 209.196823,340.137756 208.426300,345.379272 
	C207.594482,351.037872 210.516800,354.816925 215.863495,357.868561 
M360.174530,245.990311 
	C353.625763,243.933609 349.078247,245.143555 345.608032,249.865891 
	C342.640686,253.903961 342.598846,259.322662 345.522278,263.272919 
	C348.585938,267.412689 352.717407,269.054657 357.717377,268.036255 
	C362.604675,267.040863 365.494781,263.728638 366.491852,258.993591 
	C367.638855,253.546524 365.574646,249.287491 360.174530,245.990311 
M170.336411,254.973495 
	C168.949387,248.574554 165.135025,245.115891 159.301498,244.967667 
	C153.791138,244.827637 149.341522,248.017883 147.771515,253.234329 
	C146.129242,258.690857 148.161057,263.853943 153.118378,266.821289 
	C161.074234,271.583466 169.770340,266.017700 170.336411,254.973495 
M283.774567,352.495026 
	C284.601868,353.518738 285.309937,354.675171 286.276855,355.543396 
	C290.738190,359.549469 297.351501,359.565399 301.650696,355.670624 
	C306.091888,351.647217 306.919861,344.562744 303.498535,339.860138 
	C300.086700,335.170563 293.564636,333.730133 288.392548,336.523956 
	C283.010681,339.431030 281.145233,345.070587 283.774567,352.495026 
M248.264954,166.208969 
	C253.542358,170.795395 258.899536,171.504379 263.537933,168.230255 
	C268.808289,164.510010 270.272766,157.191864 266.802704,151.915649 
	C263.356354,146.675507 255.904968,145.230560 250.545258,148.763016 
	C244.676300,152.631149 243.647049,158.948364 248.264954,166.208969 
M211.204437,158.756638 
	C206.503662,165.569580 207.752869,172.768509 214.309418,176.650162 
	C219.976166,180.004974 227.354538,177.760284 230.407990,171.752533 
	C232.912521,166.824783 231.712021,160.748688 227.558289,157.329346 
	C223.116562,153.672943 217.128036,154.000687 211.204437,158.756638 
M317.212006,179.890747 
	C314.015472,184.445206 313.731293,189.145203 316.978180,193.710144 
	C319.906494,197.827194 324.007202,199.780792 329.083618,198.572830 
	C334.069458,197.386414 337.118500,194.046585 337.983215,189.019775 
	C338.872650,183.849091 336.516357,179.124481 332.258942,176.826141 
	C327.573547,174.296783 322.622162,175.152039 317.212006,179.890747 
M187.523392,337.955444 
	C195.046844,336.809265 199.081268,332.651794 199.070023,326.056671 
	C199.060059,320.214722 195.390289,315.722290 189.846634,314.765747 
	C183.310089,313.637848 177.436005,317.307068 176.094070,323.356140 
	C174.504852,330.519867 178.515366,336.020782 187.523392,337.955444 
M187.508774,198.926102 
	C194.855270,197.771912 198.882629,193.799438 199.064896,187.527466 
	C199.237000,181.605331 195.807343,176.995392 190.349609,175.812958 
	C183.698898,174.372055 177.488403,178.069336 176.092026,184.300903 
	C174.489624,191.451904 178.485031,196.944611 187.508774,198.926102 
M337.525818,213.137772 
	C334.842224,217.666077 334.592743,222.165024 337.818268,226.539871 
	C340.906708,230.728882 345.174408,232.112152 350.107605,231.013092 
	C354.746002,229.979721 357.421478,226.705551 358.575714,222.216705 
	C359.842072,217.291595 357.486481,211.926407 353.115631,209.448975 
	C348.102112,206.607269 342.683655,207.712585 337.525818,213.137772 
M335.843323,291.238159 
	C335.133881,297.781403 337.937897,302.821198 343.343048,304.717773 
	C348.381287,306.485596 353.969971,304.640747 356.867950,300.108734 
	C359.496979,295.997345 359.683167,291.712128 357.191345,287.461212 
	C354.768799,283.328430 350.995209,281.609741 346.323914,281.986511 
	C340.968719,282.418457 337.539856,285.364838 335.843323,291.238159 
M337.655823,322.336731 
	C334.611206,316.129730 330.770721,313.847931 324.758667,314.673859 
	C320.056824,315.319824 315.904266,319.023895 315.023468,323.357727 
	C313.955139,328.614380 316.273468,333.821930 320.962372,336.425995 
	C324.912781,338.619934 328.907806,338.543579 332.704956,336.079163 
	C337.437714,333.007538 338.731659,328.466522 337.655823,322.336731 
M283.847839,160.566238 
	C281.154266,167.412048 282.194427,172.173813 287.201263,175.917938 
	C291.278076,178.966599 297.158691,178.954895 301.028992,175.764236 
	C304.795654,172.659012 306.237396,168.673737 305.288605,163.823776 
	C304.401825,159.290802 301.643433,156.280273 297.337891,155.224854 
	C292.141388,153.951004 287.471344,155.172607 283.847839,160.566238 
M168.998474,282.039459 
	C168.166595,282.007477 167.332016,281.915405 166.503281,281.952972 
	C159.630341,282.264252 154.645203,287.686554 155.028900,294.406067 
	C155.383896,300.622955 161.127930,305.526642 167.661545,305.190643 
	C172.810272,304.925873 177.195679,301.119995 178.118073,296.115997 
	C179.347610,289.445709 176.764389,285.110382 168.998474,282.039459 
M173.012848,229.686615 
	C180.604416,225.270203 180.260361,212.566376 171.659576,208.947632 
	C166.663986,206.845749 161.221313,208.104004 157.799026,212.305618 
	C154.263962,216.645691 154.073044,222.112579 157.304626,226.464020 
	C160.887985,231.289154 165.787781,232.452393 173.012848,229.686615 
z"/>
<path fill="#030303" opacity="1.000000" stroke="none" 
	d="
M281.309937,55.761414 
	C303.355194,66.330383 325.058258,76.740021 346.500183,87.024399 
	C346.500183,98.013229 346.500183,108.594574 346.500183,119.695076 
	C344.585144,118.912231 343.063110,118.379921 341.618561,117.686172 
	C315.126312,104.963188 288.614471,92.280167 262.195038,79.407509 
	C258.895264,77.799698 256.316864,77.725052 252.985260,79.348579 
	C226.566452,92.222717 200.052292,104.901230 173.562164,117.628860 
	C172.094116,118.334213 170.579330,118.942268 168.346008,119.919556 
	C168.346008,109.152435 168.284256,98.916267 168.452026,88.683861 
	C168.466995,87.770935 169.799011,86.524033 170.810745,86.034843 
	C198.915314,72.445618 227.039505,58.896252 255.245590,45.519768 
	C256.700317,44.829872 259.121094,45.254250 260.729767,45.971924 
	C267.550354,49.014763 274.234070,52.364487 281.309937,55.761414 
z"/>
<path fill="#060606" opacity="1.000000" stroke="none" 
	d="
M247.563141,347.681458 
	C252.821884,342.764191 257.726318,341.764862 262.657776,344.385834 
	C266.779053,346.576233 269.224487,351.308899 268.566101,356.059540 
	C267.893982,360.909302 265.309418,364.503967 260.610748,365.906738 
	C255.809738,367.340118 251.368469,366.241364 248.054703,362.197937 
	C244.344467,357.670715 244.239319,352.876648 247.563141,347.681458 
z"/>
<path fill="#060606" opacity="1.000000" stroke="none" 
	d="
M215.526489,357.693237 
	C210.516800,354.816925 207.594482,351.037872 208.426300,345.379272 
	C209.196823,340.137756 212.270035,336.606720 217.483658,335.419891 
	C222.020355,334.387146 226.060287,335.634644 229.071487,339.319244 
	C232.212326,343.162476 232.547318,347.531250 230.528305,351.908020 
	C228.566223,356.161346 225.005020,358.441345 220.270203,358.533905 
	C218.806198,358.562561 217.332672,358.104034 215.526489,357.693237 
z"/>
<path fill="#060606" opacity="1.000000" stroke="none" 
	d="
M360.534607,246.141983 
	C365.574646,249.287491 367.638855,253.546524 366.491852,258.993591 
	C365.494781,263.728638 362.604675,267.040863 357.717377,268.036255 
	C352.717407,269.054657 348.585938,267.412689 345.522278,263.272919 
	C342.598846,259.322662 342.640686,253.903961 345.608032,249.865891 
	C349.078247,245.143555 353.625763,243.933609 360.534607,246.141983 
z"/>
<path fill="#050505" opacity="1.000000" stroke="none" 
	d="
M170.385040,255.356201 
	C169.770340,266.017700 161.074234,271.583466 153.118378,266.821289 
	C148.161057,263.853943 146.129242,258.690857 147.771515,253.234329 
	C149.341522,248.017883 153.791138,244.827637 159.301498,244.967667 
	C165.135025,245.115891 168.949387,248.574554 170.385040,255.356201 
z"/>
<path fill="#060606" opacity="1.000000" stroke="none" 
	d="
M283.542175,352.192444 
	C281.145233,345.070587 283.010681,339.431030 288.392548,336.523956 
	C293.564636,333.730133 300.086700,335.170563 303.498535,339.860138 
	C306.919861,344.562744 306.091888,351.647217 301.650696,355.670624 
	C297.351501,359.565399 290.738190,359.549469 286.276855,355.543396 
	C285.309937,354.675171 284.601868,353.518738 283.542175,352.192444 
z"/>
<path fill="#040404" opacity="1.000000" stroke="none" 
	d="
M248.032379,165.911530 
	C243.647049,158.948364 244.676300,152.631149 250.545258,148.763016 
	C255.904968,145.230560 263.356354,146.675507 266.802704,151.915649 
	C270.272766,157.191864 268.808289,164.510010 263.537933,168.230255 
	C258.899536,171.504379 253.542358,170.795395 248.032379,165.911530 
z"/>
<path fill="#050505" opacity="1.000000" stroke="none" 
	d="
M211.459091,158.476562 
	C217.128036,154.000687 223.116562,153.672943 227.558289,157.329346 
	C231.712021,160.748688 232.912521,166.824783 230.407990,171.752533 
	C227.354538,177.760284 219.976166,180.004974 214.309418,176.650162 
	C207.752869,172.768509 206.503662,165.569580 211.459091,158.476562 
z"/>
<path fill="#040404" opacity="1.000000" stroke="none" 
	d="
M317.470123,179.613403 
	C322.622162,175.152039 327.573547,174.296783 332.258942,176.826141 
	C336.516357,179.124481 338.872650,183.849091 337.983215,189.019775 
	C337.118500,194.046585 334.069458,197.386414 329.083618,198.572830 
	C324.007202,199.780792 319.906494,197.827194 316.978180,193.710144 
	C313.731293,189.145203 314.015472,184.445206 317.470123,179.613403 
z"/>
<path fill="#050505" opacity="1.000000" stroke="none" 
	d="
M187.120728,337.941895 
	C178.515366,336.020782 174.504852,330.519867 176.094070,323.356140 
	C177.436005,317.307068 183.310089,313.637848 189.846634,314.765747 
	C195.390289,315.722290 199.060059,320.214722 199.070023,326.056671 
	C199.081268,332.651794 195.046844,336.809265 187.120728,337.941895 
z"/>
<path fill="#050505" opacity="1.000000" stroke="none" 
	d="
M187.108292,198.910522 
	C178.485031,196.944611 174.489624,191.451904 176.092026,184.300903 
	C177.488403,178.069336 183.698898,174.372055 190.349609,175.812958 
	C195.807343,176.995392 199.237000,181.605331 199.064896,187.527466 
	C198.882629,193.799438 194.855270,197.771912 187.108292,198.910522 
z"/>
<path fill="#050505" opacity="1.000000" stroke="none" 
	d="
M337.750244,212.837677 
	C342.683655,207.712585 348.102112,206.607269 353.115631,209.448975 
	C357.486481,211.926407 359.842072,217.291595 358.575714,222.216705 
	C357.421478,226.705551 354.746002,229.979721 350.107605,231.013092 
	C345.174408,232.112152 340.906708,230.728882 337.818268,226.539871 
	C334.592743,222.165024 334.842224,217.666077 337.750244,212.837677 
z"/>
<path fill="#040404" opacity="1.000000" stroke="none" 
	d="
M335.901245,290.860962 
	C337.539856,285.364838 340.968719,282.418457 346.323914,281.986511 
	C350.995209,281.609741 354.768799,283.328430 357.191345,287.461212 
	C359.683167,291.712128 359.496979,295.997345 356.867950,300.108734 
	C353.969971,304.640747 348.381287,306.485596 343.343048,304.717773 
	C337.937897,302.821198 335.133881,297.781403 335.901245,290.860962 
z"/>
<path fill="#040404" opacity="1.000000" stroke="none" 
	d="
M337.775391,322.727112 
	C338.731659,328.466522 337.437714,333.007538 332.704956,336.079163 
	C328.907806,338.543579 324.912781,338.619934 320.962372,336.425995 
	C316.273468,333.821930 313.955139,328.614380 315.023468,323.357727 
	C315.904266,319.023895 320.056824,315.319824 324.758667,314.673859 
	C330.770721,313.847931 334.611206,316.129730 337.775391,322.727112 
z"/>
<path fill="#040404" opacity="1.000000" stroke="none" 
	d="
M284.050781,160.243378 
	C287.471344,155.172607 292.141388,153.951004 297.337891,155.224854 
	C301.643433,156.280273 304.401825,159.290802 305.288605,163.823776 
	C306.237396,168.673737 304.795654,172.659012 301.028992,175.764236 
	C297.158691,178.954895 291.278076,178.966599 287.201263,175.917938 
	C282.194427,172.173813 281.154266,167.412048 284.050781,160.243378 
z"/>
<path fill="#040404" opacity="1.000000" stroke="none" 
	d="
M169.403824,282.105469 
	C176.764389,285.110382 179.347610,289.445709 178.118073,296.115997 
	C177.195679,301.119995 172.810272,304.925873 167.661545,305.190643 
	C161.127930,305.526642 155.383896,300.622955 155.028900,294.406067 
	C154.645203,287.686554 159.630341,282.264252 166.503281,281.952972 
	C167.332016,281.915405 168.166595,282.007477 169.403824,282.105469 
z"/>
<path fill="#040404" opacity="1.000000" stroke="none" 
	d="
M172.681046,229.861176 
	C165.787781,232.452393 160.887985,231.289154 157.304626,226.464020 
	C154.073044,222.112579 154.263962,216.645691 157.799026,212.305618 
	C161.221313,208.104004 166.663986,206.845749 171.659576,208.947632 
	C180.260361,212.566376 180.604416,225.270203 172.681046,229.861176 
z"/>
</svg>