<svg version="1.1" id="Layer_1" xmlns="http://www.w3.org/2000/svg" xmlns:xlink="http://www.w3.org/1999/xlink" x="0px" y="0px"
	 width="100%" viewBox="0 0 496 496" enable-background="new 0 0 496 496" xml:space="preserve">
<path fill="#000000" opacity="1.000000" stroke="none" 
	d="
M157.210175,32.666702 
	C167.018707,32.662189 176.352997,32.762146 185.683350,32.614803 
	C189.136902,32.560265 190.500992,33.840443 190.354904,37.286022 
	C190.120819,42.806595 191.205399,48.204384 192.358978,53.572662 
	C195.478134,68.087799 204.946838,76.322533 218.913818,79.587425 
	C236.712250,83.747955 254.766769,84.401642 272.980865,83.007584 
	C281.294922,82.371254 289.538818,81.619469 297.636047,79.599304 
	C314.243652,75.455879 323.987457,64.213753 325.681641,47.301945 
	C325.913177,44.991016 326.592407,42.695633 326.582520,40.395130 
	C326.547821,32.348152 325.990906,32.657917 334.622467,32.655704 
	C342.955261,32.653568 351.288055,32.660763 359.620850,32.656296 
	C361.922882,32.655064 364.058258,32.732281 363.878082,35.997326 
	C363.328674,45.954136 362.913116,55.931549 360.708832,65.699562 
	C356.271820,85.361916 343.725647,97.620979 325.117096,104.174217 
	C309.421112,109.701752 293.113861,111.565620 276.584534,112.396751 
	C256.407684,113.411285 236.304138,113.057159 216.280655,110.317619 
	C205.692184,108.868942 195.469269,106.110710 185.637695,101.751640 
	C166.942459,93.462639 157.309448,78.761650 154.804901,58.954941 
	C153.908646,51.867138 153.491547,44.717468 152.913818,37.591324 
	C152.692245,34.858204 153.066696,32.450237 157.210175,32.666702 
z"/>
<path fill="#000000" opacity="1.000000" stroke="none" 
	d="
M250.705963,344.294678 
	C256.196198,341.839874 261.177032,341.809540 265.414948,345.903351 
	C268.744141,349.119354 270.024536,353.174713 268.737610,357.777863 
	C267.245728,363.114136 262.875824,366.713440 257.592224,367.070129 
	C252.692947,367.400909 247.544388,363.879730 245.612595,358.877136 
	C243.533447,353.492981 245.039413,348.944611 250.705963,344.294678 
z"/>
<path fill="#000000" opacity="1.000000" stroke="none" 
	d="
M199.275513,184.431641 
	C201.325974,195.222198 190.800095,202.140717 182.622177,198.290527 
	C177.290039,195.780121 174.624466,190.707108 175.617538,184.821136 
	C176.518616,179.480423 181.030960,175.401306 186.603088,174.890289 
	C192.203873,174.376617 196.816971,177.703293 199.275513,184.431641 
z"/>
<path fill="#000000" opacity="1.000000" stroke="none" 
	d="
M341.341309,282.853668 
	C348.313599,280.603241 353.280487,281.653046 356.681183,285.839386 
	C359.776306,289.649628 360.245026,295.092712 357.848358,299.393768 
	C354.385193,305.608734 346.430634,307.671082 340.690247,303.842285 
	C334.501007,299.714081 333.128876,291.783691 337.697327,286.044098 
	C338.610382,284.896973 339.874817,284.029510 341.341309,282.853668 
z"/>
<path fill="#000000" opacity="1.000000" stroke="none" 
	d="
M325.251587,199.270447 
	C319.454559,198.108978 315.834351,194.948288 314.742859,189.550171 
	C313.753967,184.659378 315.031616,180.328751 319.368835,177.293579 
	C323.587616,174.341309 327.963165,174.130936 332.489624,176.514679 
	C337.324585,179.060898 339.414337,184.052628 338.206696,190.130280 
	C337.130249,195.547852 332.466949,198.956665 325.251587,199.270447 
z"/>
<path fill="#000000" opacity="1.000000" stroke="none" 
	d="
M161.548248,244.765686 
	C168.445663,247.333954 171.842163,252.233948 171.079849,257.952972 
	C170.309692,263.730743 166.070511,267.950226 160.268509,268.714111 
	C154.816208,269.431946 149.396332,266.016327 147.383240,260.593811 
	C144.208374,252.041840 150.659531,244.589813 161.548248,244.765686 
z"/>
<path fill="#000000" opacity="1.000000" stroke="none" 
	d="
M216.834244,358.602173 
	C210.071930,355.439667 206.972687,350.717804 207.875961,345.407745 
	C208.890015,339.446503 213.130646,335.200348 218.806900,334.761810 
	C223.627945,334.389374 227.700912,336.018524 230.318619,340.255432 
	C233.017242,344.623322 232.988541,349.213806 230.143829,353.432373 
	C227.100800,357.945068 222.772354,360.010651 216.834244,358.602173 
z"/>
<path fill="#000000" opacity="1.000000" stroke="none" 
	d="
M293.192017,359.148010 
	C285.249878,357.003876 281.104156,352.044769 281.730011,345.892670 
	C282.335083,339.944519 286.916809,335.290710 292.720306,334.729340 
	C299.639709,334.060089 305.443573,338.882690 306.142487,345.882263 
	C306.821930,352.686859 301.797241,358.011566 293.192017,359.148010 
z"/>
<path fill="#000000" opacity="1.000000" stroke="none" 
	d="
M163.101135,231.270081 
	C156.164551,227.450195 153.645294,222.928909 154.921143,217.150421 
	C156.423447,210.346313 162.610565,206.443481 169.680206,207.840393 
	C175.915649,209.072510 179.969879,215.458908 178.790039,221.756744 
	C177.567276,228.283630 170.707977,233.708054 163.101135,231.270081 
z"/>
<path fill="#000000" opacity="1.000000" stroke="none" 
	d="
M347.037323,231.935272 
	C337.991058,230.022385 333.566803,224.065445 335.457489,216.871796 
	C337.132324,210.499329 342.180054,207.059921 348.902466,207.710663 
	C354.582947,208.260574 358.901825,212.795441 359.293549,218.621414 
	C359.707306,224.775314 355.918488,229.945572 349.874481,231.452499 
	C349.070496,231.652969 348.248352,231.780807 347.037323,231.935272 
z"/>
<path fill="#000000" opacity="1.000000" stroke="none" 
	d="
M208.469254,162.891418 
	C212.057541,155.000107 219.485626,152.163620 226.162598,155.790192 
	C231.935562,158.925751 233.885178,166.715042 230.384796,172.659088 
	C227.314529,177.872757 221.255646,180.000229 215.728348,177.805481 
	C209.909241,175.494904 207.042389,169.846390 208.469254,162.891418 
z"/>
<path fill="#000000" opacity="1.000000" stroke="none" 
	d="
M174.742645,302.844971 
	C170.160034,306.241760 165.560715,306.725861 160.940186,304.104828 
	C156.748260,301.726959 154.430695,298.036835 154.693726,293.033386 
	C154.956802,288.029236 158.265640,283.584686 162.786835,282.107025 
	C167.571259,280.543396 173.029846,281.923584 176.033463,285.456421 
	C179.254333,289.244781 179.850510,294.966278 177.385193,299.405457 
	C176.748978,300.551086 175.822083,301.535248 174.742645,302.844971 
z"/>
<path fill="#000000" opacity="1.000000" stroke="none" 
	d="
M249.847885,168.311249 
	C245.250137,164.115463 243.341599,159.412079 245.753799,153.770264 
	C247.763184,149.070572 251.462799,146.716492 256.699493,146.605911 
	C261.903137,146.496017 265.739044,148.512161 267.972748,153.204880 
	C270.292450,158.078339 269.293335,162.632233 266.008392,166.689377 
	C263.103424,170.277191 257.538849,171.587738 252.773148,169.961090 
	C251.846924,169.644943 251.027664,169.015396 249.847885,168.311249 
z"/>
<path fill="#000000" opacity="1.000000" stroke="none" 
	d="
M356.735840,244.692963 
	C364.064545,246.596878 367.708679,251.172913 367.274536,257.411743 
	C366.861359,263.349884 362.074188,268.187958 356.026581,268.779358 
	C350.463623,269.323395 345.074127,265.451477 343.349823,259.672180 
	C341.027313,251.887787 347.095734,244.867538 356.735840,244.692963 
z"/>
<path fill="#000000" opacity="1.000000" stroke="none" 
	d="
M184.632156,337.997009 
	C178.729752,335.829437 175.389084,332.101044 175.384338,326.009460 
	C175.380325,320.865417 178.396164,316.607178 183.067673,314.865234 
	C187.863495,313.076965 192.274658,313.898132 195.984253,317.337494 
	C199.998810,321.059631 200.277649,325.938538 198.657822,330.683319 
	C197.016342,335.491516 193.131882,337.978516 187.999313,338.271942 
	C187.014282,338.328278 186.017136,338.172943 184.632156,337.997009 
z"/>
<path fill="#000000" opacity="1.000000" stroke="none" 
	d="
M330.197021,337.824799 
	C322.614136,338.732727 318.208374,336.709442 315.630341,331.462189 
	C313.563171,327.254730 314.310760,321.226837 317.470490,317.978241 
	C321.155060,314.190033 325.573883,312.912476 330.637512,314.774994 
	C335.220398,316.460693 338.027832,319.557312 338.380280,324.676575 
	C338.807739,330.884735 336.389099,335.265045 330.197021,337.824799 
z"/>
<path fill="#000000" opacity="1.000000" stroke="none" 
	d="
M298.182190,177.875275 
	C287.631592,179.162659 280.252289,172.863922 281.912415,164.473190 
	C283.013794,158.906540 287.032776,155.075638 292.248474,154.620850 
	C298.643524,154.063202 303.134949,156.486099 305.156097,161.583939 
	C307.283417,166.949478 305.743500,172.680191 301.151733,176.252319 
	C300.378479,176.853851 299.436157,177.238113 298.182190,177.875275 
z"/>
</svg>