<svg version="1.1" id="Layer_1" xmlns="http://www.w3.org/2000/svg" xmlns:xlink="http://www.w3.org/1999/xlink" x="0px" y="0px"
	 width="100%" viewBox="0 0 508 510" enable-background="new 0 0 508 510" xml:space="preserve">
<path fill="#FFFFFF" opacity="1.000000" stroke="none" 
	d="
M284.000000,511.000000 
	C189.333359,511.000000 95.166710,511.000000 1.000051,511.000000 
	C1.000034,341.000061 1.000034,171.000122 1.000017,1.000142 
	C170.333237,1.000095 339.666473,1.000095 508.999756,1.000047 
	C508.999847,170.999863 508.999847,340.999725 508.999939,510.999786 
	C434.166656,511.000000 359.333344,511.000000 284.000000,511.000000 
M153.993668,47.386013 
	C154.354752,50.691116 154.720917,53.995674 155.076080,57.301418 
	C156.937454,74.627090 163.809280,89.310036 179.585510,97.788498 
	C188.092697,102.360420 197.543793,105.777184 206.977219,107.908028 
	C232.044189,113.570198 257.588287,112.796936 283.058716,111.463646 
	C297.041626,110.731682 310.824188,108.614304 324.137726,103.981987 
	C340.754333,98.200386 353.850006,88.193848 358.564453,70.788177 
	C361.823242,58.756855 362.567596,46.044479 364.484924,33.308411 
	C351.112152,33.308411 339.234528,33.308411 327.451813,33.308411 
	C326.937866,38.736446 326.585480,43.863529 325.945801,48.954517 
	C323.901672,65.223091 314.416931,76.293579 298.422455,79.858376 
	C271.579071,85.841148 244.561127,85.923927 217.750092,79.776718 
	C204.073151,76.640884 194.658508,68.236549 191.977615,53.837200 
	C190.712006,47.039490 190.038345,40.131565 189.058563,32.997517 
	C183.321182,32.997517 177.508194,32.997517 171.695190,32.997517 
	C165.762360,32.997517 159.829529,32.997517 153.973862,32.997517 
	C153.973862,37.854706 153.973862,42.150074 153.993668,47.386013 
M278.632904,70.033081 
	C283.336761,62.712624 283.476349,54.698917 282.296265,46.450336 
	C281.023926,37.557156 275.859772,32.113369 267.451324,29.569368 
	C260.554352,27.482668 253.653412,27.702051 246.838333,30.004679 
	C239.245636,32.570034 234.224319,37.743561 233.410355,45.730431 
	C232.829865,51.426178 233.310944,57.306740 233.970459,63.029675 
	C234.573029,68.258774 237.901810,72.043495 242.342331,74.818504 
	C253.373123,81.711983 268.978027,79.877594 278.632904,70.033081 
M264.336914,363.902435 
	C270.793396,356.828888 269.657257,347.448242 261.931305,344.040405 
	C256.750977,341.755432 250.614578,343.414581 247.275757,348.002991 
	C244.199478,352.230560 244.531769,358.140442 248.077118,362.255219 
	C252.106354,366.931671 257.567047,367.663757 264.336914,363.902435 
M227.591125,337.807220 
	C222.959869,334.280273 218.042435,334.007446 213.330902,337.283081 
	C209.208969,340.148743 207.442673,344.362915 208.607727,349.422699 
	C209.720428,354.255066 213.848129,357.920959 218.670288,358.422638 
	C223.791595,358.955444 227.799011,357.043793 230.197845,352.421326 
	C232.857956,347.295410 232.131378,342.525360 227.591125,337.807220 
M345.009613,250.702072 
	C342.127777,257.859558 343.489594,263.133423 349.140961,266.701141 
	C353.612671,269.524170 360.056213,268.606201 363.658936,264.632812 
	C368.165131,259.663116 367.798859,252.007477 362.850159,247.727463 
	C357.651703,243.231445 350.634735,244.179932 345.009613,250.702072 
M333.080383,177.251999 
	C326.543365,174.318207 321.179688,175.169586 317.340363,179.750488 
	C314.257874,183.428375 313.851929,189.210739 316.548462,193.175461 
	C319.257965,197.159180 322.989716,199.423721 327.930237,198.796280 
	C332.595032,198.203812 335.939606,195.532303 337.419495,191.094376 
	C339.143799,185.923615 338.069183,181.298492 333.080383,177.251999 
M158.557907,268.268280 
	C166.013733,267.674438 170.565613,263.180786 170.507706,256.471344 
	C170.453629,250.204880 165.937027,245.352615 159.809845,244.978424 
	C153.267059,244.578857 147.911972,249.069290 147.120361,255.619003 
	C146.396118,261.611420 150.906418,266.925995 158.557907,268.268280 
M285.549988,354.918060 
	C286.315247,355.552032 287.017822,356.287994 287.856140,356.803040 
	C292.604645,359.720245 298.710022,358.919189 302.393402,354.950745 
	C306.200836,350.848633 306.673828,344.196899 303.468811,339.826904 
	C300.267059,335.461365 294.254333,333.874420 289.218536,336.075836 
	C283.017944,338.786438 279.207153,347.855804 285.549988,354.918060 
M249.363968,167.249847 
	C254.792999,171.056351 260.107605,171.188705 264.351868,167.623138 
	C268.395020,164.226517 269.782074,158.513184 267.746582,153.639755 
	C265.786469,148.946793 260.477417,145.588394 255.160492,147.213913 
	C251.755463,148.254898 248.137497,151.062042 246.275375,154.096375 
	C243.636810,158.395920 245.183990,163.065521 249.363968,167.249847 
M178.170715,194.130219 
	C181.287354,197.824280 185.138428,199.705444 190.015335,198.606369 
	C196.817825,197.073318 200.774185,189.833328 198.548126,183.185989 
	C196.413010,176.810181 189.037201,173.606842 182.726776,176.366302 
	C176.285553,179.182938 173.528229,187.772507 178.170715,194.130219 
M228.229340,174.770416 
	C233.201416,168.280991 232.692154,161.020309 226.975494,156.894211 
	C221.623291,153.031204 214.215424,154.382385 210.337601,159.928940 
	C207.099045,164.561127 207.598450,170.281097 211.603989,174.434097 
	C216.079926,179.074753 221.699295,179.370682 228.229340,174.770416 
M299.112183,177.009933 
	C300.163147,176.218872 301.335693,175.546432 302.243744,174.615891 
	C305.873657,170.896149 306.508118,166.373215 304.705872,161.753876 
	C303.099976,157.637833 299.839081,155.244385 295.217834,154.870438 
	C290.038513,154.451340 286.072723,156.437714 283.652771,160.906967 
	C281.355499,165.149719 281.486359,169.504440 284.659576,173.414246 
	C288.299255,177.898758 292.881348,179.258408 299.112183,177.009933 
M356.374146,212.268692 
	C350.320160,206.535873 342.893738,206.525482 338.192657,212.243286 
	C333.785797,217.603333 334.813538,225.020569 340.546692,229.232742 
	C344.523407,232.154449 350.570282,232.024551 354.400024,228.935211 
	C359.184387,225.075790 360.047028,219.405807 356.374146,212.268692 
M194.137131,335.842926 
	C198.396957,332.588867 200.482895,327.955902 198.599503,323.198700 
	C197.311905,319.946381 194.038788,316.646149 190.826263,315.181915 
	C185.786896,312.884949 180.485794,315.413147 177.530579,319.980164 
	C174.783234,324.225983 175.260742,329.881714 178.694885,333.769562 
	C182.614059,338.206543 187.164993,338.960175 194.137131,335.842926 
M335.306366,318.313934 
	C329.144165,312.945496 321.611603,313.292480 317.055328,319.154694 
	C312.933960,324.457336 314.436859,332.163422 320.346619,336.030548 
	C324.889862,339.003418 330.606964,338.473969 334.494202,334.720367 
	C338.819244,330.544006 339.280945,324.996796 335.306366,318.313934 
M178.367264,219.509232 
	C177.433441,216.931137 177.034714,213.947998 175.453918,211.859619 
	C172.206726,207.569763 165.747787,206.768951 161.034637,209.435333 
	C156.575012,211.958282 154.024139,217.867004 155.354416,222.592728 
	C156.883392,228.024338 161.977386,231.602127 167.702805,231.265717 
	C173.597992,230.919312 177.333237,227.055267 178.367264,219.509232 
M335.835327,291.284454 
	C335.160889,297.727081 337.665924,302.404266 342.932495,304.535736 
	C347.675079,306.455139 353.193054,304.991669 356.309418,300.869751 
	C359.393677,296.790283 359.834930,292.337189 357.427399,287.840393 
	C355.084473,283.464233 351.175812,281.570496 346.277344,281.988525 
	C340.927795,282.445038 337.506042,285.399933 335.835327,291.284454 
M165.730286,305.177795 
	C171.199295,305.649445 175.190399,303.300629 177.342651,298.391418 
	C179.182007,294.195892 178.894943,289.920349 175.922012,286.168701 
	C172.850235,282.292328 167.537003,280.877319 162.863663,282.569092 
	C158.029251,284.319183 154.867096,288.988678 155.030136,294.136780 
	C155.195038,299.344055 158.764069,303.313812 165.730286,305.177795 
z"/>
<path fill="#020202" opacity="1.000000" stroke="none" 
	d="
M153.983765,46.915726 
	C153.973862,42.150074 153.973862,37.854706 153.973862,32.997517 
	C159.829529,32.997517 165.762360,32.997517 171.695190,32.997517 
	C177.508194,32.997517 183.321182,32.997517 189.058563,32.997517 
	C190.038345,40.131565 190.712006,47.039490 191.977615,53.837200 
	C194.658508,68.236549 204.073151,76.640884 217.750092,79.776718 
	C244.561127,85.923927 271.579071,85.841148 298.422455,79.858376 
	C314.416931,76.293579 323.901672,65.223091 325.945801,48.954517 
	C326.585480,43.863529 326.937866,38.736446 327.451813,33.308411 
	C339.234528,33.308411 351.112152,33.308411 364.484924,33.308411 
	C362.567596,46.044479 361.823242,58.756855 358.564453,70.788177 
	C353.850006,88.193848 340.754333,98.200386 324.137726,103.981987 
	C310.824188,108.614304 297.041626,110.731682 283.058716,111.463646 
	C257.588287,112.796936 232.044189,113.570198 206.977219,107.908028 
	C197.543793,105.777184 188.092697,102.360420 179.585510,97.788498 
	C163.809280,89.310036 156.937454,74.627090 155.076080,57.301418 
	C154.720917,53.995674 154.354752,50.691116 153.983765,46.915726 
z"/>
<path fill="#030303" opacity="1.000000" stroke="none" 
	d="
M278.395416,70.310158 
	C268.978027,79.877594 253.373123,81.711983 242.342331,74.818504 
	C237.901810,72.043495 234.573029,68.258774 233.970459,63.029675 
	C233.310944,57.306740 232.829865,51.426178 233.410355,45.730431 
	C234.224319,37.743561 239.245636,32.570034 246.838333,30.004679 
	C253.653412,27.702051 260.554352,27.482668 267.451324,29.569368 
	C275.859772,32.113369 281.023926,37.557156 282.296265,46.450336 
	C283.476349,54.698917 283.336761,62.712624 278.395416,70.310158 
z"/>
<path fill="#060606" opacity="1.000000" stroke="none" 
	d="
M264.042999,364.129395 
	C257.567047,367.663757 252.106354,366.931671 248.077118,362.255219 
	C244.531769,358.140442 244.199478,352.230560 247.275757,348.002991 
	C250.614578,343.414581 256.750977,341.755432 261.931305,344.040405 
	C269.657257,347.448242 270.793396,356.828888 264.042999,364.129395 
z"/>
<path fill="#060606" opacity="1.000000" stroke="none" 
	d="
M227.881226,338.045288 
	C232.131378,342.525360 232.857956,347.295410 230.197845,352.421326 
	C227.799011,357.043793 223.791595,358.955444 218.670288,358.422638 
	C213.848129,357.920959 209.720428,354.255066 208.607727,349.422699 
	C207.442673,344.362915 209.208969,340.148743 213.330902,337.283081 
	C218.042435,334.007446 222.959869,334.280273 227.881226,338.045288 
z"/>
<path fill="#060606" opacity="1.000000" stroke="none" 
	d="
M345.224091,250.391556 
	C350.634735,244.179932 357.651703,243.231445 362.850159,247.727463 
	C367.798859,252.007477 368.165131,259.663116 363.658936,264.632812 
	C360.056213,268.606201 353.612671,269.524170 349.140961,266.701141 
	C343.489594,263.133423 342.127777,257.859558 345.224091,250.391556 
z"/>
<path fill="#040404" opacity="1.000000" stroke="none" 
	d="
M333.367615,177.494446 
	C338.069183,181.298492 339.143799,185.923615 337.419495,191.094376 
	C335.939606,195.532303 332.595032,198.203812 327.930237,198.796280 
	C322.989716,199.423721 319.257965,197.159180 316.548462,193.175461 
	C313.851929,189.210739 314.257874,183.428375 317.340363,179.750488 
	C321.179688,175.169586 326.543365,174.318207 333.367615,177.494446 
z"/>
<path fill="#050505" opacity="1.000000" stroke="none" 
	d="
M158.184906,268.242676 
	C150.906418,266.925995 146.396118,261.611420 147.120361,255.619003 
	C147.911972,249.069290 153.267059,244.578857 159.809845,244.978424 
	C165.937027,245.352615 170.453629,250.204880 170.507706,256.471344 
	C170.565613,263.180786 166.013733,267.674438 158.184906,268.242676 
z"/>
<path fill="#060606" opacity="1.000000" stroke="none" 
	d="
M285.301392,354.641541 
	C279.207153,347.855804 283.017944,338.786438 289.218536,336.075836 
	C294.254333,333.874420 300.267059,335.461365 303.468811,339.826904 
	C306.673828,344.196899 306.200836,350.848633 302.393402,354.950745 
	C298.710022,358.919189 292.604645,359.720245 287.856140,356.803040 
	C287.017822,356.287994 286.315247,355.552032 285.301392,354.641541 
z"/>
<path fill="#040404" opacity="1.000000" stroke="none" 
	d="
M249.079330,167.000549 
	C245.183990,163.065521 243.636810,158.395920 246.275375,154.096375 
	C248.137497,151.062042 251.755463,148.254898 255.160492,147.213913 
	C260.477417,145.588394 265.786469,148.946793 267.746582,153.639755 
	C269.782074,158.513184 268.395020,164.226517 264.351868,167.623138 
	C260.107605,171.188705 254.792999,171.056351 249.079330,167.000549 
z"/>
<path fill="#050505" opacity="1.000000" stroke="none" 
	d="
M177.952820,193.809830 
	C173.528229,187.772507 176.285553,179.182938 182.726776,176.366302 
	C189.037201,173.606842 196.413010,176.810181 198.548126,183.185989 
	C200.774185,189.833328 196.817825,197.073318 190.015335,198.606369 
	C185.138428,199.705444 181.287354,197.824280 177.952820,193.809830 
z"/>
<path fill="#050505" opacity="1.000000" stroke="none" 
	d="
M227.949783,175.025284 
	C221.699295,179.370682 216.079926,179.074753 211.603989,174.434097 
	C207.598450,170.281097 207.099045,164.561127 210.337601,159.928940 
	C214.215424,154.382385 221.623291,153.031204 226.975494,156.894211 
	C232.692154,161.020309 233.201416,168.280991 227.949783,175.025284 
z"/>
<path fill="#040404" opacity="1.000000" stroke="none" 
	d="
M298.743591,177.155487 
	C292.881348,179.258408 288.299255,177.898758 284.659576,173.414246 
	C281.486359,169.504440 281.355499,165.149719 283.652771,160.906967 
	C286.072723,156.437714 290.038513,154.451340 295.217834,154.870438 
	C299.839081,155.244385 303.099976,157.637833 304.705872,161.753876 
	C306.508118,166.373215 305.873657,170.896149 302.243744,174.615891 
	C301.335693,175.546432 300.163147,176.218872 298.743591,177.155487 
z"/>
<path fill="#050505" opacity="1.000000" stroke="none" 
	d="
M356.609558,212.566772 
	C360.047028,219.405807 359.184387,225.075790 354.400024,228.935211 
	C350.570282,232.024551 344.523407,232.154449 340.546692,229.232742 
	C334.813538,225.020569 333.785797,217.603333 338.192657,212.243286 
	C342.893738,206.525482 350.320160,206.535873 356.609558,212.566772 
z"/>
<path fill="#050505" opacity="1.000000" stroke="none" 
	d="
M193.801239,336.029236 
	C187.164993,338.960175 182.614059,338.206543 178.694885,333.769562 
	C175.260742,329.881714 174.783234,324.225983 177.530579,319.980164 
	C180.485794,315.413147 185.786896,312.884949 190.826263,315.181915 
	C194.038788,316.646149 197.311905,319.946381 198.599503,323.198700 
	C200.482895,327.955902 198.396957,332.588867 193.801239,336.029236 
z"/>
<path fill="#040404" opacity="1.000000" stroke="none" 
	d="
M335.559265,318.599213 
	C339.280945,324.996796 338.819244,330.544006 334.494202,334.720367 
	C330.606964,338.473969 324.889862,339.003418 320.346619,336.030548 
	C314.436859,332.163422 312.933960,324.457336 317.055328,319.154694 
	C321.611603,313.292480 329.144165,312.945496 335.559265,318.599213 
z"/>
<path fill="#040404" opacity="1.000000" stroke="none" 
	d="
M178.349777,219.889450 
	C177.333237,227.055267 173.597992,230.919312 167.702805,231.265717 
	C161.977386,231.602127 156.883392,228.024338 155.354416,222.592728 
	C154.024139,217.867004 156.575012,211.958282 161.034637,209.435333 
	C165.747787,206.768951 172.206726,207.569763 175.453918,211.859619 
	C177.034714,213.947998 177.433441,216.931137 178.349777,219.889450 
z"/>
<path fill="#040404" opacity="1.000000" stroke="none" 
	d="
M335.894287,290.907318 
	C337.506042,285.399933 340.927795,282.445038 346.277344,281.988525 
	C351.175812,281.570496 355.084473,283.464233 357.427399,287.840393 
	C359.834930,292.337189 359.393677,296.790283 356.309418,300.869751 
	C353.193054,304.991669 347.675079,306.455139 342.932495,304.535736 
	C337.665924,302.404266 335.160889,297.727081 335.894287,290.907318 
z"/>
<path fill="#040404" opacity="1.000000" stroke="none" 
	d="
M165.313873,305.144928 
	C158.764069,303.313812 155.195038,299.344055 155.030136,294.136780 
	C154.867096,288.988678 158.029251,284.319183 162.863663,282.569092 
	C167.537003,280.877319 172.850235,282.292328 175.922012,286.168701 
	C178.894943,289.920349 179.182007,294.195892 177.342651,298.391418 
	C175.190399,303.300629 171.199295,305.649445 165.313873,305.144928 
z"/>
</svg>