<svg version="1.1" id="Layer_1" xmlns="http://www.w3.org/2000/svg" xmlns:xlink="http://www.w3.org/1999/xlink" x="0px" y="0px"
	 width="100%" viewBox="0 0 496 496" enable-background="new 0 0 496 496" xml:space="preserve">
<path fill="#000000" opacity="1.000000" stroke="none" 
	d="
M280.084229,425.609802 
	C280.229370,428.700958 280.294037,431.359436 280.333344,434.018280 
	C280.578094,450.565613 267.583130,456.846832 255.374405,455.724731 
	C236.563568,453.995728 227.414215,435.842346 236.269836,418.906982 
	C240.341339,411.120728 252.428482,406.732300 263.078827,409.111725 
	C271.946747,411.092865 278.161102,415.814056 280.084229,425.609802 
z"/>
<path fill="#000000" opacity="1.000000" stroke="none" 
	d="
M254.512329,342.840179 
	C262.996002,342.607513 267.563812,345.761108 268.980591,352.465607 
	C270.135010,357.928650 266.672089,364.185730 261.382660,366.194153 
	C254.983658,368.623871 248.073608,365.388306 245.578430,358.793915 
	C242.958069,351.868683 246.080475,346.047882 254.512329,342.840179 
z"/>
<path fill="#000000" opacity="1.000000" stroke="none" 
	d="
M147.834564,261.697968 
	C145.653137,254.633926 147.717224,248.760254 153.092484,245.906876 
	C158.071640,243.263748 164.582962,244.424118 168.134338,248.587402 
	C171.954468,253.065720 172.055847,259.368195 168.385681,264.211731 
	C163.049820,271.253510 153.807831,270.279846 147.834564,261.697968 
z"/>
<path fill="#000000" opacity="1.000000" stroke="none" 
	d="
M359.220764,295.586792 
	C357.541748,301.374847 354.348755,305.054108 348.454041,305.634644 
	C343.536987,306.118927 339.730591,304.112335 336.992340,300.078674 
	C334.127808,295.858917 334.266357,290.872131 337.271454,286.565979 
	C340.236481,282.317383 345.081268,280.515045 350.489410,281.912231 
	C355.274597,283.148438 358.138977,286.399506 359.140442,291.202362 
	C359.406586,292.478668 359.237640,293.845703 359.220764,295.586792 
z"/>
<path fill="#000000" opacity="1.000000" stroke="none" 
	d="
M177.212372,193.577118 
	C174.497330,188.567841 174.638107,183.952652 177.878693,179.719833 
	C180.706543,176.026169 184.626938,174.357864 189.284988,175.069031 
	C194.733383,175.900864 198.734650,179.878632 199.298264,184.724243 
	C200.033646,191.046692 197.534103,195.955734 192.379593,198.312347 
	C187.065735,200.741806 182.257782,199.319305 177.212372,193.577118 
z"/>
<path fill="#000000" opacity="1.000000" stroke="none" 
	d="
M315.850372,192.874512 
	C313.767212,187.721115 313.699707,183.053497 317.410583,179.053452 
	C320.535126,175.685471 324.440002,174.106308 329.114624,175.229309 
	C334.474426,176.516922 337.876556,180.155304 338.327759,185.031647 
	C338.908630,191.309616 336.549286,195.933136 331.588348,198.238495 
	C326.814392,200.456955 321.906281,199.505493 317.906464,195.532059 
	C317.204834,194.835083 316.652222,193.988113 315.850372,192.874512 
z"/>
<path fill="#000000" opacity="1.000000" stroke="none" 
	d="
M356.543915,227.372253 
	C352.357391,231.978912 347.633514,233.040436 342.294495,230.791138 
	C337.904266,228.941589 334.477722,223.580750 334.951477,219.264435 
	C335.517975,214.103012 337.971069,210.160889 343.056335,208.278046 
	C347.884338,206.490433 353.488892,207.983719 356.647064,211.834656 
	C360.145691,216.100708 360.194458,221.184769 356.543915,227.372253 
z"/>
<path fill="#000000" opacity="1.000000" stroke="none" 
	d="
M226.086823,357.425720 
	C219.260788,360.019440 214.769318,359.143677 210.858505,354.721497 
	C207.375092,350.782593 206.793137,346.130798 209.176315,341.274750 
	C211.259415,337.030151 216.252655,334.191895 221.149948,334.759308 
	C226.163055,335.340179 229.876358,337.788025 231.489990,342.836456 
	C233.433960,348.918427 231.251755,353.535217 226.086823,357.425720 
z"/>
<path fill="#000000" opacity="1.000000" stroke="none" 
	d="
M283.993439,353.752808 
	C280.735596,347.621552 281.238403,342.383545 285.216431,338.327393 
	C288.919189,334.551910 294.617798,333.619751 299.499512,335.990906 
	C303.865326,338.111481 306.635559,343.090729 306.120331,347.891296 
	C305.534576,353.348969 301.488037,357.856934 296.046844,358.909027 
	C291.096039,359.866241 287.321747,357.737427 283.993439,353.752808 
z"/>
<path fill="#000000" opacity="1.000000" stroke="none" 
	d="
M159.282898,210.079773 
	C164.615280,206.577087 169.765320,206.634796 174.462036,210.129700 
	C178.346207,213.019974 179.724213,217.293076 178.621475,222.109222 
	C177.382431,227.520828 173.976089,230.769577 168.477951,231.751297 
	C163.829773,232.581238 158.546967,229.820343 156.035721,225.265396 
	C153.399170,220.483139 154.372208,215.536209 159.282898,210.079773 
z"/>
<path fill="#000000" opacity="1.000000" stroke="none" 
	d="
M166.992447,281.652771 
	C174.743210,282.422333 179.258560,287.185608 179.038620,293.908600 
	C178.824127,300.464355 173.278107,305.788574 166.704865,305.748993 
	C160.428284,305.711212 154.862732,300.345062 154.680191,294.155121 
	C154.473099,287.133148 159.070145,282.295746 166.992447,281.652771 
z"/>
<path fill="#000000" opacity="1.000000" stroke="none" 
	d="
M248.692871,167.320389 
	C244.645264,162.792374 243.438599,158.003372 246.176666,152.841263 
	C248.347488,148.748596 251.893127,146.580902 256.728516,146.621201 
	C262.557922,146.669785 266.496033,149.128510 268.323395,154.164871 
	C270.056305,158.940918 268.665192,164.557846 264.952118,167.777084 
	C261.290192,170.951981 255.430618,171.498611 250.980087,169.039688 
	C250.260651,168.642212 249.634781,168.075333 248.692871,167.320389 
z"/>
<path fill="#000000" opacity="1.000000" stroke="none" 
	d="
M210.250122,173.528000 
	C206.837265,168.547546 207.075562,163.865402 210.195862,159.317078 
	C213.476105,154.535614 218.373917,153.868683 223.504791,154.884644 
	C228.449707,155.863739 230.975342,159.520782 232.008484,164.237488 
	C233.072739,169.096191 230.231842,174.857269 225.719223,177.248703 
	C220.778305,179.867111 215.508057,178.684006 210.250122,173.528000 
z"/>
<path fill="#000000" opacity="1.000000" stroke="none" 
	d="
M351.189392,268.155304 
	C344.750427,264.556396 342.091003,260.053314 343.079803,254.931046 
	C344.161469,249.327332 348.092743,245.322952 353.199768,244.734253 
	C358.405548,244.134140 362.788330,245.595108 365.541077,250.314362 
	C368.113678,254.724792 368.014008,259.244354 365.086090,263.443054 
	C361.777985,268.186920 357.149567,269.693146 351.189392,268.155304 
z"/>
<path fill="#000000" opacity="1.000000" stroke="none" 
	d="
M198.626648,330.989746 
	C194.642700,337.351776 189.464142,339.612274 183.887421,337.716553 
	C178.288956,335.813477 174.959839,330.846039 175.451950,325.129944 
	C175.952103,319.320526 179.905441,315.116058 185.834793,314.087555 
	C194.836472,312.526154 200.638245,319.920624 198.626648,330.989746 
z"/>
<path fill="#000000" opacity="1.000000" stroke="none" 
	d="
M317.126282,318.336060 
	C323.234192,313.094971 328.835205,312.593323 334.065491,316.548737 
	C338.428802,319.848511 339.863220,326.206207 337.415039,331.394562 
	C334.453400,337.671021 327.010803,340.227936 321.006683,337.031647 
	C314.381744,333.504913 312.657074,325.833618 317.126282,318.336060 
z"/>
<path fill="#000000" opacity="1.000000" stroke="none" 
	d="
M284.111267,159.318573 
	C289.356445,153.978760 296.343628,153.005585 301.342773,156.640808 
	C305.931183,159.977356 307.445160,166.548492 304.833710,171.792343 
	C301.802612,177.878769 294.729889,180.313599 288.768677,177.322861 
	C282.055542,173.954865 280.208710,167.276611 284.111267,159.318573 
z"/>
</svg>