<svg version="1.1" id="Layer_1" xmlns="http://www.w3.org/2000/svg" xmlns:xlink="http://www.w3.org/1999/xlink" x="0px" y="0px"
	 width="100%" viewBox="0 0 496 496" enable-background="new 0 0 496 496" xml:space="preserve">
<path fill="#000000" opacity="1.000000" stroke="none" 
	d="
M347.813904,409.488708 
	C348.728638,407.275208 350.415405,407.697021 351.822693,407.688904 
	C361.153198,407.634979 370.484253,407.682404 379.814850,407.637726 
	C382.442657,407.625122 384.349731,408.011261 384.239075,411.394775 
	C383.468140,434.963867 377.622498,456.191589 357.071381,470.653076 
	C344.680786,479.372162 330.534698,483.594360 315.839783,486.163788 
	C287.009888,491.204712 257.978790,492.075928 228.783249,490.540985 
	C207.980804,489.447296 187.286057,487.888092 167.356430,481.376404 
	C151.751831,476.277863 137.435760,469.178040 128.990585,453.909027 
	C122.241997,441.707581 120.224037,428.603729 121.217178,414.897827 
	C121.796913,406.897217 123.060738,399.033051 127.017235,391.882111 
	C133.254608,380.608734 144.353027,376.900177 155.703171,373.775055 
	C169.066910,370.095459 182.787781,371.061127 196.424225,371.055939 
	C199.495590,371.054779 201.278549,372.386139 200.892258,375.569977 
	C200.458054,379.148651 202.943039,384.109283 196.800964,385.245605 
	C191.554825,386.216156 186.409286,387.495392 181.350296,389.220856 
	C162.008438,395.817749 157.580170,411.643616 161.225372,429.301971 
	C163.952744,442.514038 173.676056,449.245422 185.323242,453.755249 
	C198.328781,458.791077 212.036377,460.990753 225.821793,461.510773 
	C249.608185,462.408142 273.438202,462.986145 297.154297,459.727875 
	C306.251190,458.478058 315.218140,456.774048 323.630066,452.997314 
	C337.914551,446.584045 344.731598,434.877319 346.641846,419.832642 
	C347.061127,416.530457 347.370728,413.214386 347.813904,409.488708 
z"/>
<path fill="#000000" opacity="1.000000" stroke="none" 
	d="
M346.148987,281.665619 
	C354.303131,281.946686 358.939026,285.981232 359.303528,292.729736 
	C359.648743,299.122314 355.379639,304.548584 349.242188,305.518250 
	C342.824402,306.532196 337.030945,302.702423 335.291168,296.296021 
	C333.470032,289.589752 338.051666,283.163483 346.148987,281.665619 
z"/>
<path fill="#000000" opacity="1.000000" stroke="none" 
	d="
M185.465546,199.178238 
	C179.255249,197.311325 175.581894,193.670044 175.349152,187.356369 
	C175.162354,182.288803 178.120300,177.868683 182.700500,175.947281 
	C187.463745,173.949097 191.837006,174.793640 195.695847,178.066895 
	C199.288513,181.114380 200.637436,186.671005 198.835770,191.326706 
	C197.091156,195.834915 193.787598,198.650070 188.860611,199.250397 
	C187.881104,199.369736 186.872375,199.249176 185.465546,199.178238 
z"/>
<path fill="#000000" opacity="1.000000" stroke="none" 
	d="
M335.445404,178.656647 
	C340.012421,185.591568 339.126129,193.075607 333.562958,197.105530 
	C328.206726,200.985535 320.983154,199.759109 316.788330,194.257492 
	C313.300293,189.682816 313.698792,182.763000 317.683472,178.713760 
	C322.554321,173.764023 328.512360,173.646576 335.445404,178.656647 
z"/>
<path fill="#000000" opacity="1.000000" stroke="none" 
	d="
M342.489807,230.908875 
	C335.717712,226.389725 333.821228,222.144363 335.631134,216.191742 
	C337.243866,210.887741 341.541016,207.747055 347.124207,207.652283 
	C352.107452,207.567688 355.875275,209.642807 358.061096,214.065186 
	C360.213959,218.420959 359.905090,222.826553 356.965546,226.778534 
	C353.940338,230.845734 349.908386,232.698273 344.776337,231.563660 
	C344.127869,231.420273 343.488739,231.234543 342.489807,230.908875 
z"/>
<path fill="#000000" opacity="1.000000" stroke="none" 
	d="
M167.909622,264.845520 
	C163.425537,269.020203 158.666153,270.049469 153.457245,267.399689 
	C149.111420,265.188965 146.623917,261.551575 146.738342,256.593140 
	C146.855087,251.533401 149.191086,247.673325 153.919693,245.549423 
	C158.841049,243.338943 164.706787,244.615997 168.082886,248.514648 
	C171.978012,253.012650 172.002777,258.350800 167.909622,264.845520 
z"/>
<path fill="#000000" opacity="1.000000" stroke="none" 
	d="
M212.139374,355.954224 
	C207.218109,350.321136 206.540146,346.043213 209.487946,340.766174 
	C211.805710,336.617004 216.926468,334.116821 221.741928,334.783295 
	C226.984589,335.508850 230.772385,339.061584 231.954041,344.361633 
	C232.978409,348.956146 230.842422,354.113922 226.730164,356.975739 
	C222.296402,360.061249 217.913422,359.825134 212.139374,355.954224 
z"/>
<path fill="#000000" opacity="1.000000" stroke="none" 
	d="
M288.463074,336.015625 
	C296.994873,333.126892 303.301727,335.984253 305.489960,343.386322 
	C307.504700,350.201477 303.609619,356.953339 296.634033,358.737457 
	C291.216095,360.123169 285.328339,357.099396 282.732056,351.597931 
	C280.198486,346.229218 282.245117,340.360504 288.463074,336.015625 
z"/>
<path fill="#000000" opacity="1.000000" stroke="none" 
	d="
M161.676407,230.648026 
	C155.528458,226.380554 153.598053,222.123505 155.069382,216.615463 
	C156.404053,211.618958 160.420013,208.062469 165.253662,207.697845 
	C170.450470,207.305832 174.822525,208.749527 177.442078,213.629257 
	C179.926926,218.258057 179.440353,223.660614 175.967834,227.577057 
	C172.150345,231.882584 167.438812,233.075928 161.676407,230.648026 
z"/>
<path fill="#000000" opacity="1.000000" stroke="none" 
	d="
M260.157898,366.505737 
	C252.341751,367.703735 246.330139,363.709320 244.925522,356.741791 
	C243.738251,350.852417 247.706772,344.732086 253.808945,343.041565 
	C259.955231,341.338867 266.232086,344.544891 268.299133,350.442688 
	C270.708008,357.315857 267.869598,363.159058 260.157898,366.505737 
z"/>
<path fill="#000000" opacity="1.000000" stroke="none" 
	d="
M155.169815,297.209198 
	C154.090775,288.259949 158.224960,282.204712 165.360138,281.675018 
	C172.309525,281.159180 176.803055,284.165039 178.450378,290.431549 
	C179.945618,296.119476 177.212738,302.198151 172.074600,304.613159 
	C166.500290,307.233154 160.141205,305.294556 156.434280,299.808594 
	C155.975479,299.129578 155.690094,298.333374 155.169815,297.209198 
z"/>
<path fill="#000000" opacity="1.000000" stroke="none" 
	d="
M245.881775,153.345734 
	C249.023361,147.649277 253.752441,145.908005 259.513367,146.763245 
	C263.996216,147.428757 266.953400,150.121048 268.405884,154.450562 
	C270.019623,159.260666 268.516205,164.851303 264.727814,167.964355 
	C261.148560,170.905548 255.140747,171.433670 251.161179,169.156952 
	C246.576019,166.533798 244.048584,161.217850 244.992035,156.087509 
	C245.140778,155.278763 245.481796,154.505371 245.881775,153.345734 
z"/>
<path fill="#000000" opacity="1.000000" stroke="none" 
	d="
M225.897354,177.163681 
	C220.283936,179.513596 215.439041,178.934006 211.381683,174.779129 
	C207.989792,171.305695 206.862747,167.233170 208.572144,162.448196 
	C210.918625,155.879837 217.995865,152.667267 224.864182,155.229736 
	C230.814255,157.449631 233.798981,164.808014 231.240158,170.961685 
	C230.191925,173.482529 228.542145,175.509720 225.897354,177.163681 
z"/>
<path fill="#000000" opacity="1.000000" stroke="none" 
	d="
M351.190430,268.154907 
	C344.761200,264.560272 342.092041,260.038116 343.084595,254.929062 
	C344.173401,249.324585 348.110748,245.317993 353.208282,244.732880 
	C358.415497,244.135147 362.799591,245.602097 365.547821,250.317871 
	C368.116638,254.725861 368.017120,259.253906 365.083527,263.446625 
	C361.774902,268.175323 357.157654,269.719391 351.190430,268.154907 
z"/>
<path fill="#000000" opacity="1.000000" stroke="none" 
	d="
M337.619690,330.979919 
	C333.612732,337.413177 328.577515,339.657684 322.892822,337.829712 
	C317.510010,336.098816 314.360504,331.260010 314.626587,325.129822 
	C314.867004,319.590759 318.667023,315.287415 324.332825,314.138062 
	C333.545441,312.269196 339.722900,319.824066 337.619690,330.979919 
z"/>
<path fill="#000000" opacity="1.000000" stroke="none" 
	d="
M196.900879,318.286377 
	C200.459946,324.438599 200.240326,330.089813 196.540833,334.264984 
	C193.206833,338.027649 188.060867,339.302521 183.417450,337.516174 
	C178.514603,335.630096 175.600891,331.624573 175.459702,326.577637 
	C175.315659,321.428314 177.449844,317.510712 182.110184,315.314270 
	C187.494370,312.776703 192.414871,313.763123 196.900879,318.286377 
z"/>
<path fill="#000000" opacity="1.000000" stroke="none" 
	d="
M281.724060,166.896179 
	C282.948303,159.197220 286.306030,155.283279 291.841125,154.670609 
	C299.421204,153.831604 304.434357,157.217773 305.918030,164.179016 
	C307.119995,169.818405 303.248352,176.421722 297.802948,178.019806 
	C291.172821,179.965591 284.774994,176.570816 282.269836,169.740555 
	C281.987061,168.969528 281.911163,168.122650 281.724060,166.896179 
z"/>
</svg>