<svg version="1.1" id="Layer_1" xmlns="http://www.w3.org/2000/svg" xmlns:xlink="http://www.w3.org/1999/xlink" x="0px" y="0px"
	 width="100%" viewBox="0 0 496 496" enable-background="new 0 0 496 496" xml:space="preserve">
<path fill="#000000" opacity="1.000000" stroke="none" 
	d="
M180.967453,221.805481 
	C201.828934,215.457016 222.748825,212.306900 244.167114,211.529938 
	C271.445770,210.540390 298.375366,212.441788 324.698456,219.783661 
	C351.882263,227.365555 377.499237,238.171280 397.704803,258.882050 
	C402.261475,263.552704 406.087677,268.802948 408.580017,274.898041 
	C409.265839,276.575226 411.422241,278.681000 408.730621,280.065857 
	C405.857483,281.544128 402.842926,285.206360 399.299225,282.085846 
	C380.587067,265.608246 357.926880,257.742767 334.287323,252.102844 
	C320.197632,248.741348 305.789703,247.297089 291.354889,246.336182 
	C267.898285,244.774704 244.426697,244.787033 220.974579,246.344940 
	C187.931870,248.539932 155.982834,254.842712 127.291473,272.563843 
	C123.206444,275.086945 119.293037,278.036865 115.788101,281.311462 
	C111.672997,285.156158 108.549812,281.680603 105.494820,280.209106 
	C101.972527,278.512482 104.738281,275.838165 105.762642,273.870941 
	C114.838104,256.442017 129.869583,245.350754 146.523972,236.107910 
	C157.330246,230.110641 168.904160,225.867447 180.967453,221.805481 
z"/>
</svg>