<svg version="1.1" id="Layer_1" xmlns="http://www.w3.org/2000/svg" xmlns:xlink="http://www.w3.org/1999/xlink" x="0px" y="0px"
	 width="100%" viewBox="0 0 496 496" enable-background="new 0 0 496 496" xml:space="preserve">
<path fill="#000000" opacity="1.000000" stroke="none" 
	d="
M237.674622,210.999939 
	C237.670670,191.682205 237.800552,172.862839 237.570541,154.047882 
	C237.512192,149.273590 238.979767,147.576218 243.811188,147.745239 
	C252.792969,148.059494 261.795380,147.967361 270.784668,147.800171 
	C274.754944,147.726334 276.382996,148.965561 276.377319,153.217270 
	C276.276733,228.821091 276.280670,304.425110 276.354492,380.028961 
	C276.358276,383.901306 275.072662,385.377502 271.152008,385.292664 
	C262.330109,385.101654 253.501251,385.239868 244.675262,385.228088 
	C237.694839,385.218781 237.672089,385.208191 237.671448,378.361603 
	C237.667343,334.897644 237.674484,291.433716 237.677078,247.969757 
	C237.677811,235.813156 237.675720,223.656540 237.674622,210.999939 
z"/>
</svg>