<svg enable-background="new 0 0 304 592" viewBox="0 0 304 592" xmlns="http://www.w3.org/2000/svg"><path d="m169.101334 279.000336c-6.071274 5.707367-12.88031 5.773803-19.751175 3.257751-6.844635-2.50647-8.11789-8.782135-8.493912-15.072723-.799545-13.375366 5.779312-19.728623 18.833939-18.525177 8.691848.801254 13.55072 7.120849 13.208923 17.839966-.135925 4.262664-.598236 8.65805-3.797775 12.500183z"/><path d="m168.41246 360.425842c-8.073761 5.700043-18.889724 5.189423-23.882049-.843719-5.211624-6.298187-4.962204-21.063355.773468-26.533997 5.278381-5.034454 11.751694-4.899933 18.203003-2.83078 5.708206 1.830841 8.175461 6.295288 8.863388 12.046692.766235 6.406006.777282 12.591705-3.95781 18.161804z"/><path d="m184.812332 292.807495c7.839798-5.558838 18.359314-5.218689 23.644638.50351 5.227219 5.659271 5.326035 19.737182.180496 25.714782-3.997665 4.644135-12.057693 6.384705-18.940521 3.98465-6.117157-2.133057-8.697204-6.78775-9.070389-12.995636-.363464-6.046509-.533371-12.02359 4.185776-17.207306z"/><path d="m131.638931 316.195007c-4.558113 7.108338-11.156433 9.383087-19.690666 7.076081-6.23539-1.685517-9.818848-6.667511-10.231575-14.277344-.071884-1.325287-.052811-2.657532-.027817-3.985687.19851-10.546418 5.909432-16.383973 15.911873-16.279786 10.26474.106965 15.618447 5.697297 15.758217 16.373841.048035 3.670593.050934 7.313171-1.720032 11.092895z"/></svg>