<svg enable-background="new 0 0 316 592" viewBox="0 0 316 592" xmlns="http://www.w3.org/2000/svg"><path d="m307.042267 593c-102.340576 0-204.172997 0-306.023842 0 0-197.319275 0-394.638565 0-591.978929h315.959084v591.978929c-3.127289 0-6.277192 0-9.935242 0m-134.622421-212.503571c-.150788-1.818359-.167618-3.659759-.475815-5.451049-1.262329-7.336731-6.162766-11.216462-14.490509-11.588898-8.217194-.367462-13.742447 3.17392-15.04271 10.626099-.753875 4.320648-.623901 8.960235.028138 13.318695.768173 5.134704 4.248794 8.382232 9.382156 9.804809 11.513565 3.190613 19.538116-2.957519 20.59874-16.709656z" fill="#fff"/><path d="m172.409668 380.921356c-1.050446 13.32721-9.074997 19.475342-20.588562 16.284729-5.133362-1.422577-8.613983-4.670105-9.382156-9.804809-.652039-4.35846-.782013-8.998047-.028138-13.318695 1.300263-7.452179 6.825516-10.993561 15.04271-10.626099 8.327743.372436 13.22818 4.252167 14.490509 11.588898.308197 1.79129.325027 3.63269.465637 5.875976z" fill="#030303"/></svg>