<svg enable-background="new 0 0 304 592" viewBox="0 0 304 592" xmlns="http://www.w3.org/2000/svg"><path d="m164.111511 205.497208c8.200089 4.457641 11.237427 15.509094 7.37143 25.03894-3.476014 8.568512-11.712845 10.193283-20.616074 8.220963-3.917389-.867814-6.767731-3.601181-8.203552-7.42212-1.353638-3.602218-2.058289-7.399704-1.652222-11.250244 1.425308-13.515869 8.554154-18.099273 23.100418-14.587539z"/><path d="m149.826645 271.385193c2.158157-.466583 3.950714-.996613 5.751938-1.027863 6.435333-.111633 12.6613.927765 15.438873 7.650208 3.1996 7.743896 3.402924 15.649841-2.037949 22.67395-3.652618 4.715485-11.980835 6.32785-18.468353 4.02829-3.452484-1.223694-6.221802-3.433655-7.578293-6.809235-2.857742-7.111419-2.723175-14.280426.617569-21.246338 1.199112-2.500244 3.372864-4.061859 6.276215-5.269012z"/></svg>