<svg enable-background="new 0 0 304 592" viewBox="0 0 304 592" xmlns="http://www.w3.org/2000/svg"><path d="m167.785553 426.884216c-10.579529 6.555329-22.210892 3.822602-25.425385-5.761535-1.846313-5.504822-1.825805-11.128418-.111099-16.684967 2.004105-6.494355 6.982041-8.977997 13.270096-9.506745 6.833557-.574615 13.352554 2.438111 15.498917 7.829621 3.330871 8.366943 3.376556 16.577118-3.232529 24.123626z"/><path d="m146.69548 361.49054c-6.553146-6.921662-7.646652-19.890412-2.457519-27.111207 3.394836-4.723968 8.482162-5.722869 13.782776-5.328521 5.68248.42276 10.923599 2.178406 13.227356 8.163849 2.279907 5.923431 2.714187 11.992492.325592 18.011901-3.598328 9.067994-14.368241 11.886475-24.878205 6.263978z"/></svg>