<svg enable-background="new 0 0 304 592" viewBox="0 0 304 592" xmlns="http://www.w3.org/2000/svg"><path d="m107.025482 262.487305c-2.130409-5.538147-1.823028-10.92714-.968391-16.142395 1.190391-7.26416 6.292244-11.002808 14.276695-11.349427 7.892502-.34262 13.789734 3.473053 15.864899 10.208359 1.096435 3.55867 1.373398 7.19545.9897 10.860733-.767258 7.329193-5.202057 12.669861-11.518745 14.059296-8.178223 1.798889-14.489869-.684326-18.644158-7.636566z"/><path d="m208.161819 258.384521c-3.039932 11.542695-11.333038 12.806763-20.319427 11.719544-1.278198-.154633-2.54808-.788452-3.712311-1.406708-6.695175-3.55542-9.436264-14.289764-6.228454-24.182739 2.248184-6.933411 8.567382-10.414932 16.710662-9.206574 9.702439 1.439698 13.590332 5.859513 13.722062 15.664093.031265 2.327546-.057785 4.656693-.172532 7.412384z"/></svg>