<svg enable-background="new 0 0 304 592" viewBox="0 0 304 592" xmlns="http://www.w3.org/2000/svg"><path d="m184.76947 330.854675c7.031525 5.141724 9.466736 15.665406 5.997467 24.549256-2.516037 6.442871-8.587936 9.596374-17.237991 8.889221-1.144226-.093567-2.308701-.333985-3.392456-.711304-9.926712-3.456116-10.703903-12.169556-8.976471-23.68689 1.211883-8.080047 8.246719-12.09085 16.975677-10.711242 2.119126.334961 4.186997.99411 6.633774 1.670959z"/><path d="m121.764435 277.548706c-.019707-3.591736-.389107-6.74942.370796-9.875275 1.97686-8.131836 6.657463-11.929214 14.81736-11.959014 8.957901-.032715 13.953079 3.705261 15.967377 11.948669 2.478943 10.14505-1.291642 19.587555-8.977051 22.480804-10.471573 3.942139-19.125565-.808105-22.178482-12.595184z"/></svg>