<svg enable-background="new 0 0 304 592" viewBox="0 0 304 592" xmlns="http://www.w3.org/2000/svg"><path d="m162.109467 283.462952c-2.236603-5.507996-1.905137-10.901673-1.142518-16.135285 1.075699-7.38211 6.597306-11.487228 14.572419-11.616745 8.487777-.137848 13.970657 3.668381 15.804748 10.910294 1.03772 4.097473 1.234558 8.165741.344879 12.344482-1.448562 6.80365-5.527526 10.829895-12.29039 12.133789-7.197693 1.387757-13.243606-1.224365-17.289138-7.636535z"/><path d="m143.765717 363.322144c-8.969956 2.464813-16.462082.24591-19.836083-5.63736-3.828476-6.67572-3.040474-19.881409 1.832131-24.565826 4.923812-4.733643 11.038452-4.896576 17.286285-3.334137 5.16272 1.291076 8.085937 4.763092 9.5018 9.850891 2.904007 10.435363-.134582 19.190429-8.784133 23.686432z"/></svg>