<svg enable-background="new 0 0 304 592" viewBox="0 0 304 592" xmlns="http://www.w3.org/2000/svg"><path d="m146.116348 205.487335c8.181061 4.389694 11.239487 15.472962 7.376587 25.031891-3.462204 8.567413-11.688385 10.232666-20.605438 8.234085-4.31337-.966751-7.294067-4.119461-8.591484-8.336716-1.0681-3.471817-1.703148-7.103866-1.200897-10.819473 1.674751-12.389877 7.333717-16.687591 19.755134-14.929977.97815.138397 1.933258.439667 3.266098.82019z"/><path d="m172.364777 269.894043c11.083831.024719 16.738449 4.084686 17.904449 12.500854 1.664215 12.01236-1.78305 19.484925-10.242645 22.202668-10.246521 3.291748-18.815201-1.702912-20.90329-12.200135-.930954-4.680084-.442856-9.291809 1.075546-13.752136 1.883957-5.534118 6.296875-7.862518 12.16594-8.751251z"/></svg>