<svg enable-background="new 0 0 304 592" viewBox="0 0 304 592" xmlns="http://www.w3.org/2000/svg"><path d="m142.253174 329.414734c8.731506 1.857544 11.756164 5.662811 12.8255 15.714477 1.353287 12.720704-7.120407 20.946137-19.763076 19.086091-5.850556-.860688-9.638543-4.286591-11.307015-9.930237-1.499969-5.073731-1.343742-10.236939.029411-15.281098 2.063874-7.581512 8.48555-10.973816 18.21518-9.589233z"/><path d="m163.425842 398.374695c6.409104-4.878266 13.123215-4.790528 19.628189-1.753784 6.23497 2.910644 7.369797 8.862304 7.413224 15.194885.097702 14.242889-9.594086 21.816315-22.350907 17.334167-3.296631-1.158233-6.013855-3.175598-7.273254-6.418121-3.245621-8.356354-3.350128-16.533417 2.582748-24.357147z"/></svg>