<svg enable-background="new 0 0 304 592" viewBox="0 0 304 592" xmlns="http://www.w3.org/2000/svg"><path d="m166.729233 211.887787c3.682403-1.873001 5.015442-4.722687 5.03099-8.338974.011444-2.664124.06749-5.328049.079682-7.992172.036102-7.892167.031463-7.892167 8.037979-7.886124 7.208481.005432 7.203796.005432 7.222305 7.159668.006897 2.664123-.025329 5.330749.07605 7.991806.281754 7.394684 3.267639 10.370163 10.767242 10.833405 11.045533.682266 11.045533.682281 11.005494 12.060348-.028656 8.142441-.028656 8.151047-8.384125 8.152802-28.809357.006073-57.618714.012847-86.42807-.004593-2.637337-.001603-5.329293.28125-8.411438-1.142853 0-5.222046-.021774-10.673721.009643-16.125076.014634-2.537583 1.822991-2.760025 3.784485-2.879654 3.628807-.221314 7.296547.430221 10.88308-.876145 3.590553-1.307846 5.785507-3.425796 6.541946-7.372238.89238-4.655655.570526-9.292343.570549-13.938202.000015-2.709106.981796-3.869202 3.805237-3.868622 13.313431.002701 10.679001-.773101 10.960464 10.331726.050614 1.997376-.005935 3.998108.071274 5.994019.158142 4.087707 2.143509 7.004242 6.00029 8.341446 6.007645 2.082931 12.053131 2.126511 18.376923-.440567z"/><path d="m147.735703 263.501343c9.859497-4.575897 20.189025-2.207276 23.805542 5.456573 3.351379 7.101959 3.182739 20.524323-5.629899 25.397126-10.213653 5.647399-22.013748.871002-24.450103-10.482178-1.647141-7.675568-.933792-14.897461 6.27446-20.371521z"/><path d="m157.036285 328.703033c7.404984.606568 13.269776 3.239502 15.282029 10.432282 2.068252 7.392883 2.523254 15.054779-3.705307 20.949432-5.353226 5.066284-11.948471 5.536316-18.630845 2.908631-6.723312-2.64383-10.390487-10.990753-9.053939-19.822235 1.377868-9.104493 5.81784-13.201325 16.108062-14.46811z"/></svg>