<svg enable-background="new 0 0 316 592" viewBox="0 0 316 592" xmlns="http://www.w3.org/2000/svg"><path d="m168 593c-55.984734 0-111.469475 0-166.977105 0 0-197.263794 0-394.527603 0-591.8957h315.829339v591.8957c-49.379913 0-98.866074 0-148.852234 0m49.499878-403.236832h42.265655c0-6.58464 0-12.522827 0-18.663955-68.641983 0-137.040878 0-205.497474 0v18.663925c54.293381 0 108.262596 0 163.231819.00003m-46.992462 51.085068c2.848053-5.23497 3.046936-10.713455 1.729019-16.420776-1.503296-6.510208-5.959839-9.837052-12.074051-11.001938-6.070923-1.156632-11.649994.274292-15.701141 5.259689-5.349259 6.582825-4.094773 20.475113 2.124633 25.656433 6.884552 5.735459 16.643036 4.545517 23.92154-3.493408z" fill="#fff"/><g fill="#040404"><path d="m216.999878 189.763153c-54.469223-.000015-108.438438-.000015-162.731819-.000015 0-6.344284 0-12.391449 0-18.663925h205.497474v18.663955c-14.066024 0-28.165847 0-42.765655-.000015z"/><path d="m170.305237 241.161102c-7.076325 7.726059-16.834809 8.916001-23.719361 3.180542-6.219406-5.18132-7.473892-19.073608-2.124633-25.656433 4.051147-4.985397 9.630218-6.416321 15.701141-5.259689 6.114212 1.164886 10.570755 4.49173 12.074051 11.001938 1.317917 5.707321 1.119034 11.185806-1.931198 16.733642z"/></g></svg>