<svg enable-background="new 0 0 304 592" viewBox="0 0 304 592" xmlns="http://www.w3.org/2000/svg"><path d="m179.955536 222.044464c9.753616 9.730484 19.256805 19.211395 29.025116 28.956802 3.673645-4.735839 5.454315-9.602447 7.984802-14.033187.868225-1.520234 1.331711-3.939087 3.595917-3.583451 2.571014.403809 1.646103 2.88617 1.735473 4.550934.614899 11.455048 1.179047 22.913162 1.688965 34.373398.267517 6.012024-.446106 6.814117-6.347519 6.568665-11.133209-.463044-22.260894-1.068085-33.387115-1.682221-1.75499-.096893-3.720398.004578-5.242554-2.657104 4.868241-4.597474 11.719422-6.290436 16.982971-10.319642.008591-2.494628-2.013229-3.465728-3.336776-4.801025-32.702622-32.992538-65.445336-65.945312-98.180771-98.905319-4.811821-4.844849-4.857506-4.896179.362648-9.605545 8.30677-7.493958 6.009384-7.623932 14.083298.388702 23.636955 23.457565 47.195732 46.993912 71.035545 70.748993z"/></svg>