<svg enable-background="new 0 0 304 592" viewBox="0 0 304 592" xmlns="http://www.w3.org/2000/svg"><path d="m157.003723 174.757202c8.338013.004715 8.343598.004715 8.344971 7.910568.003631 20.818055.117905 41.637253-.090332 62.453217-.044434 4.439529 1.371857 5.692688 5.712021 5.651718 20.483139-.19339 40.970092.019104 61.453277-.171753 4.481568-.041763 6.154129 1.209656 6.006394 5.897492-.400208 12.699371 1.339065 10.79187-10.933441 10.865478-18.485733.11087-36.972672.022797-55.459092.024597-6.666153.000672-6.680236.00766-6.682708 6.480255-.008103 21.151154-.151886 42.304047.102066 63.452118.05989 4.987641-1.397492 6.769074-6.436127 6.697876-12.794479-.180847-10.238983-.221466-10.30423-10.143951-.133652-20.317566-.162781-40.637756.043762-60.954041.045411-4.465637-1.426544-5.648559-5.746307-5.608093-20.483101.191956-40.970138-.035614-61.453239.155914-4.530205.042359-6.144982-1.311737-5.997643-5.937469.40374-12.674896-1.32914-10.755692 10.979897-10.824417 18.652374-.104141 37.307594-.163803 55.957481.076858 4.714203.060852 6.342957-1.193893 6.283249-6.112228-.250626-20.648468-.111466-41.301712-.107681-61.953217.001449-7.961319.01036-7.961319 8.327682-7.960922z"/><path d="m132.277115 215.239243c2.863678 10.314178-.410523 17.923767-8.399986 20.208297-7.14991 2.044464-13.932038-1.148285-16.199883-7.626236-2.826431-8.073562-.035667-16.614425 6.334534-19.386215 7.056831-3.070587 14.419693-.465256 18.265335 6.804154z"/><path d="m198.738983 235.200226c-8.583343 2.158508-15.020065-.866333-17.328873-7.856629-2.63713-7.984344.575074-16.63417 7.108216-19.141006 6.641571-2.548462 14.55664.198013 17.231598 5.979279 3.690368 7.975799.857238 16.91957-7.010941 21.018356z"/><path d="m115.185097 310.247162c-7.282692-3.687958-10.041657-10.412323-7.929802-18.517273 1.619858-6.216766 6.003761-9.385437 12.883011-9.311798 8.646728.09256 13.59497 5.734344 13.189056 15.037689-.378021 8.664581-6.128738 14.151855-14.377838 13.64389-1.138931-.07016-2.256805-.482421-3.764427-.852508z"/><path d="m180.810074 293.456787c1.551788-9.840607 10.387649-12.894104 18.378052-10.163483 7.354324 2.513215 10.382888 12.694977 6.468917 20.783753-3.230987 6.677307-12.025131 9.06961-18.878387 5.056885-5.954514-3.486542-6.409317-9.219971-5.968582-15.677155z"/></svg>