<svg enable-background="new 0 0 386 592" viewBox="0 0 386 592" xmlns="http://www.w3.org/2000/svg"><path d="m1 244c0-81.312683 0-162.125366 0-242.969025h385.919739v591.813141c-128.586273 0-257.252976 0-385.919739 0 0-116.070434 0-232.207275 0-348.844116m84.983215 2.660858c.554314.576996 1.108628 1.153992 1.97789 2.321579 2.273346 1.21135 3.096199 5.677841 7.61657 3.125946.486069-.187393.972145-.374786 2.354339-.388885 3.042817-.019364 6.08564-.038742 9.10112.562484 4.538582.17923 9.697678-4.223327 10.484383-9.135437 0 0 .280251-.323593.86969-.250564.225815-.629547.451637-1.259094.832657-2.546463-.045891-.42775-.091789-.855499.09111-1.256546 0 0 .195328.122101.899201.108459.393211-.886413.786422-1.772812 1.328918-3.039871 0 0 .186935-.363663 1.155762-.291901 16.095657.135498 32.191299.270997 48.752517.500184 0 0 .353013-.317658.404786.416214.094284.72673.188583 1.453445-.302338 2.455627.708054 1.291473 1.416092 2.582931 2.337631 4.301239 0 0 .105759.465393-.006454 1.192627 1.300232 1.869751 2.600464 3.739502 4.034958 6.282257 6.201171 7.364914 13.463821 8.828171 22.239547 5.402084 7.503388-2.929321 11.491761-8.633499 13.766922-15.717407 1.292984-4.025833 3.636597-4.933517 7.400666-4.900436 13.995239.12294 27.993866.165191 41.987304-.035492 3.362335-.048233 5.289124 1.15744 6.578675 4.034897 4.0802 9.104309 10.276397 14.281173 21.116638 13.310226 8.996155-.805801 17.515014-7.653244 19.095428-17.020416 0 0 .032929.011337.577027-.027069.10675-.688065.213501-1.376129.394928-2.78653-.100434-.45903-.200898-.918045-.09253-1.787292 0 0 .212128-.408478.889923-.491471.373475-1.999679.746979-3.999344 1.117371-6.925354-.004761-4.0242-.009491-8.048401.481903-12.529907-.770965-1.869995-1.541901-3.739975-2.530304-6.017807 0 0-.215546-.408844.106781-1.069992-.342682-1.157623-.685364-2.315231-.963684-4.250091-1.159668-1.629288-2.319305-3.258591-3.518127-5.01233 0 0-.098786-.085205.180694-.869979-1.331146-1.334092-2.662323-2.668168-4.006347-4.061814 0 0-.047608-.038009.09671-.760345-.961914-.480286-1.923798-.960556-3.283356-1.55806 0 0-.374786-.177109-.430634-.879562-1.275909-2.929505-3.35086-3.527481-7.020751-2.087235-2.700074.012589-5.400147.025192-8.573548-.458435-4.742401-.128357-7.913421 2.033371-9.837982 6.979248-.038757.357758-.077484.715515-.472137 1.43483-.049042.161835-.098114.323669-.725068.669052-.828918 1.134491-1.657837 2.268997-3.043975 3.414795-.192933.659332-.385865 1.31868-.711518 2.589218-.260589.786514-.521148 1.573013-1.49884 2.521896-.188141 1.085999-.376282 2.171997-.743744 3.718338 0 0-.222595.44104-1.192078.396195-5.137603-.01796-10.275894-.097901-15.412674-.041184-11.086853.122406-22.172943.314972-33.459732.342347 0 0-.159698-.182434.139984-.795792-.52275-.582642-1.045486-1.165283-1.940734-2.005417 0 0-.405945.200668-.402893-.444733-.122818-.409835-.245621-.819686-.069565-1.87947-.064423-.471894-.128861-.943787.248459-1.726807-.448059-.57933-.896119-1.158676-1.794098-1.962616-.149201.076416-.298401.152817-.501648-.465988-.258209-.891846-.516419-1.783692-.349365-3.374115-1.297196-1.591339-2.594391-3.182678-3.753983-4.851654 0 0-.121719.101074.114456-.619339-2.243606-4.88945-5.995468-7.312622-11.024536-6.55188-3.034088.006317-6.068161.012634-9.577591-.463837-4.848236.262894-9.800522 4.236283-11.275619 9.273102 0 0-.203309.360352-.901825.447022-.97313 2.403518-1.946259 4.807037-3.144257 7.816375-.183121.619736-.366241 1.239456-1.172989 2.143174-.481094 1.744659-.962189 3.489303-1.541275 5.379226 0 0-.128876.118759-1.083465-.109665-14.89386.007981-29.787735.015961-44.957177-.43016-.086822-.154297-.173652-.308609.139916-1.092255-.676232-1.021286-1.352471-2.042572-2.200134-3.010727 0 0-.179444.003311.101562-.568878-.083244-.415817-.166481-.83165.136452-1.616623-.65445-.631134-1.308899-1.262268-2.168114-1.847717 0 0-.209351-.013657.097237-.568375-.072564-.415191-.145127-.830383.131149-1.657821-.592598-.487641-1.185188-.975281-2.118713-2.044693-5.580292-7.937394-17.402153-11.546937-24.927597-7.6111-8.663529 4.531067-16.005196 18.219239-15.359848 29.135773.072875 2.928558.145744 5.857117-.143136 9.579025.676514 3.404633 1.353028 6.809265 1.85141 10.976517 1.432419 2.081787 2.864838 4.163574 4.571823 6.445801 0 0 .034707.33815-.297355 1.075622.690216.558945 1.380424 1.117905 2.418236 1.731934 0 0 .338676.095673.114051.637329.060906.185715.121804.371445.194954 1.176895m8.607689 131.290833c.327759-.820679.655525-1.641358 1.295082-2.741577 0 0 .418305-.019562 1.251503.46817 5.853646.196808 11.707299.393615 17.752205 1.261108 1.42598 1.659058 2.851959 3.318146 4.629494 5.415039.118881.144592.237755.289185-.038529.934296.015938.424408.031868.848846-.288475 2.071686.659371 1.512909 1.318741 3.025787 2.333771 4.83374 0 0 .182022.424743-.002716 1.009247.116356.390197.23272.780426.652176 1.884369 3.316986.316925 6.635895.875061 9.950165.848907 1.654449-.013031 3.300461-1.094208 5.479309-2.270721 2.316849-5.469239 1.566894-10.738251-1.227249-16.47287-.023453-.409088-.046906-.818177.433807-1.701966-1.367767-8.655456-5.029739-16.35382-12.199241-21.314239-9.154061-6.333496-19.210213-8.077149-30.286423-4.050842-7.719841 2.806274-12.8424 7.517364-16.127709 14.767547-5.686805 12.549988-4.874229 25.658295-2.835098 38.667084 1.123276 7.165955 4.982491 13.437347 11.447983 17.231598 4.765076 2.796356 9.826988 5.519073 15.11557 6.893677 8.74826 2.273864 16.405136 5.652496 21.543114 14.241729-.039658.944153-.079316 1.888337-.696625 3.164734-1.132179 2.31012-1.833077 4.998871-3.471275 6.864685-7.067605 8.050019-21.808617 4.772309-25.887833-5.549438-1.342537-3.397003-2.010582-8.120239-4.558586-9.696198-2.79377-1.727966-7.403061-.522369-11.221298-.590332-.498658-.00888-1.171944-.195831-1.466874.052674-1.333519 1.123809-3.652191 2.368835-3.6585 3.580352-.074005 14.201325 1.709762 28.06427 14.069175 37.318451 2.889061 2.163178 6.281159 6.829132 12.206482 3.837281 1.741997.161407 3.483986.322784 5.390702 1.208099 2.655098 2.808289 4.896515 1.72229 7.782753-.896545 1.339668-.104157 2.679329-.208313 4.365135.345611 5.600784.207459 12.746071-4.597046 14.933815-10.30014 1.652054-2.39679 3.304108-4.793549 5.615753-7.241852.369034-1.342987.738052-2.685944 1.113297-4.686951.246109-.837402.492218-1.674804 1.429763-2.478332.237992-1.283203.475983-2.566437.738877-4.666748-.056122-1.066346-.112244-2.13266.067871-4.102112-.099106-4.353668-.198197-8.707337.0531-13.808869-.078476-1.095153-.156952-2.190338.271439-3.621673-.623932-.949616-1.247864-1.899231-2.226135-3.24176-.109055-.138611-.218125-.277222-.03537-1.049561-.055618-.461487-.111237-.923004.274338-1.725372-.53212-.539307-1.064255-1.078614-2.018402-1.825745 0 0-.444077.155213-.518754-.483795-.871231-1.208466-1.742462-2.416931-2.478637-4.220978-.191391-.358215-.382782-.71643-.49173-1.810455-1.894272-1.864624-3.490845-4.287933-5.740097-5.486298-6.096375-3.248169-12.423309-6.081848-18.750992-8.870727-3.661934-1.613922-7.501983-2.823731-11.463646-4.846466-.924591-.796082-1.84919-1.592133-2.978195-3.014832-.692261-.703796-1.384521-1.407623-2.263931-2.000671 0 0-.200737.083709.091736-.800354-.085877-2.463654-.171753-4.927338.003601-7.801667 0 0 .267242-.406799.965126-.504882.309402-1.042725.618797-2.08545 1.086876-2.99054 0 0-.167572-.125641.588302-.034576m186.793923 77.291839c-.140137-.425415-.280274-.850799-.308258-2.0914.185363-1.628937.370697-3.257904 1.132934-5.254211.40152-3.290863.80307-6.581757 1.239441-10.56424.082886-.687195.165772-1.374359.816162-2.464081.416657-3.74588.833313-7.49176 1.263794-11.782318.056214-.35852.112427-.71701.666107-1.281616-.319-.649506-.638-1.298981-.69049-2.707062.861908-4.67926 1.723816-9.35849 3.311431-14.184814 1.019715-2.277619 2.039399-4.555206 3.106812-5.90683.044281 25.310608.088562 50.621216.084167 76.767761 4.350373.381317 8.699433.778992 13.051606 1.138245 2.973694.245453 4.111175-1.137726 4.106811-4.129242-.055206-37.802185-.052978-75.604523-.001434-113.406708.003906-2.859558-.840118-4.366791-3.94574-4.321533-6.326721.092255-12.658722-.07074-18.980774.124023-.944763.029114-1.847381 1.426758-2.800323 2.73407-.046417.359162-.092835.718353-.766419 1.531037-.36499 2.988128-.72998 5.976226-1.137878 9.612121-.080963.644013-.161926 1.288025-.834473 2.425629-.382416 3.307739-.764862 6.615509-1.188263 10.572143-.079742.645111-.159485 1.290223-.828155 2.421845-1.440125 8.4422-2.905335 16.880249-4.31366 25.327759-1.579315 9.472839-3.107147 18.954223-4.670135 28.509948-1.083863-.921875-1.897156-1.613647-2.838105-3.082519-.115478-1.305878-.230987-2.611725.049286-4.75589-.747589-3.488678-1.495178-6.977325-2.318359-11.026001-.038788-.374695-.077576-.74942.266937-1.968933-.755249-3.4888-1.510498-6.97757-2.341095-11.128174-.064422-.662933-.128815-1.325867.20871-2.811432-.736786-3.274078-1.473602-6.548157-2.286682-10.503418-.065094-.682312-.130219-1.364624.262359-2.652191-.751617-3.215179-1.503235-6.430328-2.324188-10.226837-.026062-.389404-.052093-.778778.382202-1.797577-.733673-6.091797-1.648071-12.169251-2.132385-18.280792-.28479-3.594086-1.846756-5.03241-5.347656-4.966065-5.326096.100952-10.655625.007508-15.983582.027405-6.323364.023621-6.762466.462921-6.763748 6.851685-.006943 34.299255-.019653 68.59851.004974 102.897766.009324 12.980285-1.522735 11.787994 12.130539 12.071472 4.81633.100037 6.354157-1.392609 6.300995-6.232849-.223037-20.3107-.126144-40.625397-.056289-60.938294.009567-2.777496.527023-5.553253.809326-8.329834 4.169647 21.953766 7.437546 43.785157 10.37474 65.66095 1.266632 9.433777 1.248108 9.740601 10.813935 9.740509 1.165496-.00003 2.354889-.152405 3.492431.02591 5.16449.809478 6.883301-2.162201 7.155335-6.54776.130218-2.099915-.14148-4.224793-.179962-7.083497.110931-.9888.221832-1.977569.886108-3.175903.329315-1.384338.6586-2.768677 1.120911-4.838257m-84.101883 9.006409c.575424.915466 1.150863 1.830902 1.947937 3.420135.148041.691163.296097 1.382294.085998 2.817566-.17456 4.613861 1.906479 6.625824 6.628067 6.228394 3.444611-.289978 6.944626.112122 10.397492-.123383 3.60437-.24588 4.971176-1.80606 2.088714-5.512054-.072662-.355591-.145324-.711212.198456-1.647278-1.860306-8.177032-3.609253-16.38147-5.615753-24.522491-1.641251-6.65918-3.589615-13.242646-5.415421-20.477082-.286621-.76709-.573242-1.534149-.613082-3.064453-.342911-1.121277-.685807-2.242523-1.229477-4.064972-.350418-1.386169-.700837-2.772369-.813568-4.889923-.445664-1.288574-.891327-2.577118-1.350068-4.589111-.082611-.959381-.165222-1.918793.242691-3.383301-.72084-1.821167-1.44168-3.642334-2.331955-5.944611-.016906-.338256-.033828-.676513.326996-1.793701-.738754-2.302704-1.477508-4.605377-2.418441-7.5018-.034363-.415467-.068741-.830933.382904-1.768585-.791779-2.198883-1.583573-4.397767-2.580246-7.195191-.02211-.419464-.044236-.838959.476013-1.758026-1.297333-6.218231-2.761414-12.407745-3.83873-18.663879-.846268-4.914368-3.178848-7.308136-8.382767-6.725037-2.773483.310791-5.610458.044312-8.418701.057495-6.635147.031128-8.724625 2.858826-7.258545 10.454193-.09671.405274-.193405.810578-.948852 1.354248-.351792 2.006012-.703583 4.011994-1.028641 6.648102-.094361.408051-.188721.816101-.903549 1.459625-.415223 2.298401-.83046 4.596833-1.214417 7.521851-.095657.40506-.191299.81012-.932175 1.480896-1.071884 5.144348-2.143753 10.288727-3.189453 15.93573-.082931.323089-.165863.646179-.942398 1.311035-2.136612 7.742127-4.395126 15.453247-6.375091 23.235199-1.930939 7.589203-3.647232 15.235779-5.295975 22.891968-.381775 1.772888-.105942 3.687347-.138824 6.165252-.098389.406281-.196763.812531-.978135 1.367768-.364303 2.331299-.728622 4.662597-1.10176 7.621307-.117035.399964-.234055.799927-1.011368 1.37973-.371216 2.325837-.742432 4.651642-1.083847 7.603424-.099747.403565-.199494.807129-.952408 1.42688-2.916992 4.765747-1.589432 7.920258 3.607071 7.891327 3.927749-.02185 7.87619-.570587 11.758438-1.223633.855957-.143951 1.471374-1.717987 2.255386-3.289184.065827-.654389.131653-1.308777.926163-2.259461.162079-1.754821.324142-3.509613.696411-5.90567.255905-1.087188.51181-2.174377 1.60936-3.390106.052856-1.659729.105697-3.319458.374252-5.569824.324692-.769287.649399-1.538605 1.824112-2.363464 6.749176-.328003 13.500992-.931183 20.246384-.866181 3.29628.031738 6.580612 1.307404 10.095321 2.689453.115311.69577.230637 1.39151.007523 2.829315.185028 1.335602.370041 2.671204.187958 4.701508m133.91304-278.18045c-.364746 1.374481-1.039612 2.747406-1.0466 4.123703-.07605 14.986419-.091156 29.973556-.025788 44.960083.025818 5.916992 1.125672 6.777191 7.739197 6.751632 6.166016-.023849 7.04892-.827835 7.06076-6.821365.029603-14.98674.083985-29.974426-.084655-44.95932-.020844-1.853714-1.121582-5.138596-2.085968-5.280152-3.544525-.520309-7.584503-2.589538-10.75293 1.15593 0 0 .00705.005371-.804016.069489m-277.099182-31.000702c.07864-7.644745.15728-15.289475 1.125061-23.042618 1.312027-.072907 2.624912-.221924 3.935951-.207153 15.985298.179885 14.662498 1.343368 14.672821-15.613953.000198-.329254.012802-.661514-.02449-.98732-.311753-2.723343-1.579644-3.892082-5.181748-2.515396-8.034561-.035378-16.069122-.070755-24.877453-.463707-.889492 1.150993-2.535583 2.291031-2.552433 3.454651-.185726 12.827202-.136535 25.658104-.101482 38.487877.006008 2.197677.487927 4.122772 4.258202 3.020111 2.369518.037964 4.739036.075927 7.620746.511352.358876-.56897.717751-1.137939 1.124825-2.643844m277.371826-22.454041c.039337 6.8237.274261 13.653992.043915 20.468582-.136017 4.024491 2.059295 4.450638 5.016632 4.064377 2.722351-.355621 6.901214 1.777924 6.894714-3.734695-.014526-12.318833.095825-24.639725-.154022-36.953484-.025635-1.262672-2.103882-3.508652-3.299896-3.556885-7.977692-.321739-15.977478-.276413-23.961701-.05262-1.14273.032029-3.031738 1.517807-3.23764 2.588135-2.289124 11.899666-.68454 13.783325 11.204071 13.795578 1.331604.001373 2.763611-.284042 3.966919.11406 1.234039.408279 2.244354 1.492706 3.527008 3.266952m-277.053673 389.923035c.000027-1.497742.000134-2.995484.000065-4.493225-.000362-7.848145-.676308-8.539643-8.568623-7.276368-1.231906.197175-3.103904 2.123536-3.124778 3.278443-.225495 12.47699-.238175 24.96167.017215 37.437561.024975 1.220154 2.185105 3.38324 3.42014 3.431824 7.97557.313903 15.973907.290039 23.952339.015442 1.117424-.038453 2.98587-1.9646 3.121361-3.172364 1.420997-12.666687 1.342895-12.675415-11.191861-12.686096-.998485-.000854-2.000568-.058716-2.9948.005554-3.278641.211853-4.947029-.942383-4.687565-4.575927.260105-3.642518.056591-7.318177.056507-11.964844m277.124748 14.096679c-2.24768.790955-4.48294 2.22284-6.745178 2.266724-12.804291.248779-12.734558.130798-11.904236 12.744324.170075 2.583618 1.060822 3.505737 3.603211 3.472778 7.495117-.097473 14.993896-.123962 22.487915.009583 2.771515.049316 3.896698-.870911 3.877228-3.713868-.084229-12.326843-.141419-24.655944.015716-36.981384.066834-5.241058-3.6026-3.552185-6.259979-3.797363-2.880005-.265747-5.249451-.139252-5.101837 3.983642.250213 6.98761.06485 13.990784.02716 22.015564m-277.107631-76.134491c.000026-9.661651-.321457-19.338256.127552-28.978973.246761-5.298187-1.6278-6.944336-6.527092-6.178711-1.140866.178284-2.506657-.288238-3.44516.184632-1.111893.560241-2.660416 1.808502-2.669678 2.771575-.163395 16.989563-.354027 33.986206.01453 50.9693.116177 5.353515 5.084751 2.569153 7.915737 3.127197 3.370717.664398 4.806218-.81665 4.647625-4.406525-.242378-5.486419-.063686-10.991485-.063514-17.488495m0-99.996124c-.000405-4.488678-.09401-8.980041.033077-13.465088.07864-2.77539-.984654-4.001007-3.797543-3.802459-1.819976.128448-3.79375-.380738-5.441181.168274-1.342602.447387-3.272598 2.027801-3.287468 3.128204-.213375 15.790619-.404773 31.591553-.008091 47.375122.142536 5.671265 5.327942 2.598968 8.246636 3.225494 3.177631.682099 4.361175-.936004 4.311943-4.210846-.157429-10.471222-.057926-20.946319-.057373-32.418701m277.149379 95.995911c.000214 7.326111.17157 14.657806-.065826 21.976196-.134857 4.157013 2.320251 4.225983 5.147766 3.921387 2.759888-.297272 6.812195 1.669861 6.788513-3.85846-.069854-16.316986-.130584-32.635498.035431-48.95111.054718-5.376862-3.574005-4.034058-6.515899-4.202912-2.971344-.170563-5.605408-.342682-5.467255 4.142761.266479 8.649933.077576 17.313935.07727 26.972138m-277.154426-268.31015c-2.110176-5.660614-6.786606-1.845795-10.208538-2.48552-.493698-.09227-2.301167 3.126129-2.325695 4.829377-.196034 13.610244.104271 27.229446-.207184 40.835388-.136185 5.949173 3.712891 4.576996 6.980236 4.78717 3.423923.220245 6.005753.2164 5.887897-4.755356-.334304-14.103195-.117221-28.219467-.126716-43.211059m288.442787 112.308105c-.000061-10.460144-.233215-20.927856.104614-31.377075.153748-4.755127-2.19046-5.036072-5.781433-4.892639-3.410339.136169-6.566284-.461243-6.452698 4.886627.292511 13.774658.097992 27.559601.097962 41.340454-.000031 8.131287.192901 8.188538 8.361786 7.894806 2.884643-.103729 3.772979-1.217224 3.700012-3.903778-.117157-4.31369-.030731-8.632935-.030243-13.948395m-11.287903 91.531922c-1.029693 6.141967 3.309448 4.936554 6.864807 5.210754 4.045441.312073 5.09906-1.397247 5.052643-5.225983-.177368-14.624511-.268799-29.25653.032684-43.876983.109803-5.325226-2.930572-4.781464-6.392669-4.931549-3.754914-.162781-5.755921.443939-5.6633 5.039032.287934 14.288452.105652 28.586334.105835 43.784729m-277.16336-92.53183c-.000344-10.461182-.108704-20.924103.056346-31.38266.059437-3.766236-2.085952-4.157593-4.786418-3.731079-2.663128.420685-7.0485-2.000214-7.080159 3.480407-.09016 15.608246-.100563 31.217804.003773 46.825867.036003 5.385559 4.38427 3.106842 7.068607 3.492188 2.689476.386047 4.965538.054229 4.788426-3.740387-.216538-4.639283-.051071-9.296448-.050575-14.944336m207.846374 255.611267c7.29718.000549 14.594879.05603 21.891449-.010437 12.690674-.115601 10.680389 1.752502 11.046631-11.137451.116974-4.116394-1.590973-5.144776-5.305969-5.039002-6.628479.18866-13.266754-.003296-19.899811.068726-13.44574.145996-11.193298-1.904602-11.227326 12.265136-.003051 1.269043 1.736023 2.542359 3.495026 3.853028m-60.375534-1.762573c1.764816.588012 3.515808 1.628723 5.296936 1.683166 6.629898.202515 13.270584.150086 19.905624.066406 12.953614-.163452 10.951127 2.149414 11.201432-11.939697.052383-2.949036-1.040756-4.236999-4.053894-4.211121-9.455735.08136-18.912628.050416-28.368973.023072-2.813706-.008118-4.335022.983825-4.137558 4.114868.198013 3.140076.055435 6.301575.156433 10.263306m-25.056259 1.736938c2.481293.278137 3.74797-.638184 3.625595-3.32727-.128449-2.821778-.1884-5.665833.016952-8.478638.235093-3.220093-.898971-4.446655-4.237335-4.338806-6.646499.214538-13.304718.068054-19.958084.068481-12.246597.000672-12.14563-.002685-11.831329 12.161377.078857 3.051209 1.026321 4.02771 4.063263 3.97345 9.145477-.163391 18.295715-.059448 28.320938-.058594m-50.278046-13.751648c-1.597488-.782776-3.170585-2.176086-4.796745-2.241089-6.489189-.259277-12.995522-.162597-19.494362-.091858-13.256729.144226-11.130318-1.966797-11.426788 11.854065-.072548 3.381958 1.422722 4.349121 4.518997 4.287598 6.163864-.122437 12.331848-.037781 18.498131-.037903 12.78128-.000305 12.78128-.000061 12.700767-13.770813m-2.911743-428.632286c-7.498512-.001816-14.997528-.060356-22.495415.007141-12.941124.116501-10.60749-1.573776-10.973663 11.269745-.096649 3.389832.955887 4.868141 4.489731 4.820091 9.32975-.126861 18.662567-.013626 27.993584-.078796 1.095314-.007645 2.457557-.217392 3.228431-.878632 2.112221-1.811798.935395-12.939224-2.242668-15.139549m166.342255.009018c-9.298676-.000023-18.600647-.120392-27.892243.135757-1.322601.036461-3.81018 2.08561-3.687683 2.886574.659119 4.310616-2.52005 9.198441 1.749329 12.944824.194.170243.645935.058136.977722.058136 10.128876.000153 20.258575.054642 30.385223-.096496.957032-.014282 2.659546-1.269325 2.712983-2.038826.275329-3.963799.302795-7.972275-.034089-11.926743-.063354-.74353-2.173065-1.312713-4.211242-1.963226m-70.48526-.014366c-2.16359-.000031-4.327637-.028732-6.490708.004585-13.46019.207337-10.840027-1.803604-11.30426 11.365929-.14003 3.97258 1.624512 4.808441 5.055634 4.731994 6.487518-.144561 12.98059-.040329 19.471344-.040161 12.509719.00029 12.602295-.009918 11.236862-12.632629-.135651-1.254135-2.199982-3.152443-3.504975-3.27224-4.456085-.409042-8.972824-.156975-14.463897-.157478m-45.249131 16.048248c1.910981-.085281 3.821946-.170563 6.191498-.276321 0-4.340088-.158005-8.139534.048737-11.91903.17334-3.168853-1.195694-3.958175-4.12262-3.890449-6.970032.161278-13.946335.051964-20.920105.051956-11.609665 0-11.463516-.001785-11.320648 11.715943.044861 3.678054 1.493317 4.444625 4.773804 4.374435 8.132339-.173996 16.270904-.05687 25.349334-.056534z" fill="#fdfdfd"/><path d="m273.069885 193.417572c.049073-.161835.098145-.323669.685944-.527832 1.136078-.281235 1.799591-.422134 2.320618-.774017 6.316589-4.266144 12.557769-8.359833 20.336181-2.818116 2.260315 1.610337 5.038391 2.493882 7.691101 3.882416.111969.171845.287689.542511.178131.77594.508088.725891 1.125763 1.218369 1.943848 1.642395.200409-.068466.239929-.490143.239929-.490143s.098786.085205.037415.482666c.444824 1.414215.950989 2.43097 1.420349 3.829254.908935 2.153306 1.854736 3.92508 2.800506 5.696839 0 .000015.215546.408859.161713.92926-.036713.994034-.019592 1.467682-.242737 2.272537-.066528 7.11673.107209 13.902222.251526 21.046158.079773.811264.189026 1.264115.298279 1.716965 0 0-.212128.408478-.65564.691452-1.122406 2.278809-1.80133 4.274658-2.675811 6.538406-1.213623 1.763153-2.156189 3.316941-3.262574 4.743668-5.292999 6.825546-15.805206 12.172455-24.537872 5.249069-3.719208-2.948654-6.362122-7.337723-9.199341-11.284149-1.631958-2.269989-2.473938-4.635834-6.189514-4.574966-15.104843.247451-30.216797.17984-45.324463.04454-3.380585-.030258-4.840408 1.195648-6.038757 4.399658-2.113754 5.651474-4.061737 11.650894-10.181519 14.77945-.719116.456009-1.114303 1.108993-1.753998 1.956588-2.146637.53418-4.048736.873764-6.401062.979218-2.094024-.10228-3.737838.029556-5.68161.132263-1.66632-.228012-3.032669-.42688-4.422409-.990082-1.100265-.951202-2.177154-1.538116-3.458847-2.229278-.204773-.104248-.596527-.344559-.593323-.679611-.631286-.809098-1.265792-1.283143-2.103805-1.866227-.203507-.109054-.664978-.092132-.75148-.39624-.718369-1.387558-1.350235-2.471023-1.917664-3.89151-.550003-1.169754-1.164428-2.002502-1.91391-3.127838-.754715-1.058426-1.374389-1.824249-1.994049-2.590073-.094299-.72673-.188598-1.453445-.024994-2.68193.314896-2.814041.146561-4.874008-3.553665-3.496338-14.410537.000351-28.361435-.062698-42.310043.087311-1.7397.018692-3.467262 1.165481-5.499939 1.881851-.606667.937927-.913849 1.783539-1.317612 2.938888-.038551.712845.019478 1.115952.077515 1.519059 0 0-.195328-.122101-.668076-.168351-1.476707 1.72551-2.480674 3.497239-3.633545 5.466645-.366188.448242-.609436.670379-1.233657.783569-.679062.638672-1.003113 1.357864-1.393105 2.152374-.065941.075333-.22216.200592-.577911.05275-1.940537 1.018494-3.525322 2.18483-5.207512 3.582764.024383.346588.146179.461578.267975.576553-3.042817.019379-6.08564.038757-9.676156-.406403-2.311767-1.167816-4.075836-1.871093-6.103149-2.673278-.598984-.26442-.93473-.429917-1.278625-.92949-.685875-.761337-1.363602-1.188568-2.03328-1.626113.008057-.010285-.005432.012893.03112-.283432-.638122-.464341-1.312812-.63234-1.987495-.800354 0 0-.338676-.095673-.431267-.463593-.726257-.945786-1.359916-1.523636-1.993576-2.101486-.000007 0-.034714-.33815-.091003-.804032-.9618-2.423584-1.867302-4.381286-2.798096-6.749771-1.085899-3.940536-2.1465-7.470276-3.2071-11.000015-.072868-2.928558-.145737-5.857117.219765-9.316498 1.69133-4.691879 2.748878-8.924438 4.239464-12.998565 2.777214-7.590805 8.582115-12.656434 16.055694-14.432755 7.12294-1.692993 13.182839 1.907013 17.741791 7.712448.92701 1.180466 2.316696 1.99762 3.493095 2.982254 0 0 .209351.013657.132363.274964.029266.694854.135521 1.128402.100708 1.89154.481605.847611 1.104271 1.365646 1.726936 1.883682 0 0 .179444-.003311.121506.313034.044182 1.05214.146309 1.787918.090095 2.84726.76088 1.18956 1.6801 2.055588 3.064446 2.975586 15.149017.035446 29.832886.016922 44.712509.231659 4.78627-1.903275 4.080475-6.339874 4.794815-10.504029.405106-1.0876.738129-1.862197 1.410324-2.681518 1.226853-1.814148 2.114533-3.583603 3.068939-5.419281.066742-.066254.19397-.204743.543518-.100067 1.001084-.883438 1.652619-1.871552 2.38086-2.937699.076706-.078018.265686-.188324.627563-.035888 4.778107-.8172 9.165024-2.31897 13.621155-2.564591 2.848297-.157013 5.79892 1.542893 8.800415 2.469696.096726.059433.249512.227402.101441.515015.715927.95079 1.579925 1.613983 2.677276 2.36554.233353.088363.667359-.15799.667359-.15799s.121719-.101074-.035736.281525c1.057083 1.977615 2.271621 3.572616 3.486175 5.167633.258209.891845.516419 1.783691.507385 3.161529.493729 1.763794 1.254685 3.04158 2.015656 4.319367.122818.409836.245621.819687.084259 1.711364-.595154 3.004166-.454056 5.119782 3.52887 4.225495 14.282867.029831 28.097991.067413 41.912689.007034 2.454925-.010727 4.90805-.42865 7.687256-.730209 2.216674-4.668915 4.108062-9.266144 5.99945-13.863373z" fill="#020202"/><path d="m288.090271 405.060852c-.861938 4.67926-1.723846 9.35849-2.745697 14.708801.011017 1.194733.182007 1.718415.352997 2.242096-.056244.358521-.112457.717011-.46756 1.552002-.710053 4.220429-1.121246 7.964417-1.53241 11.708374-.082885.687195-.165771 1.374359-.577209 2.631989-.714966 3.834015-1.10138 7.097595-1.487763 10.361175-.185363 1.628937-.370697 3.257904-.922088 5.293061-.526734 1.11206-.687439 1.817901-1.047943 2.919067-.117249 1.534821-.034638 2.674377.047943 3.813904-.110901.9888-.221802 1.977569-.640564 3.597931-.878235 3.223999-1.272675 5.874389-2.098755 8.382629-.371765 1.128723-1.553314 2.754913-2.456451 2.814911-4.404572.292572-8.839264.132416-13.07193.132416-4.726288-31.733063-9.346558-62.754425-13.966828-93.775788-.653442.038422-1.306869.076813-1.960312.115235v93.230377c-5.449356 0-9.825805 0-14.193741 0 0-39.483185 0-78.508545 0-118.026611 6.829483 0 13.294693-.13321 19.743683.130218 1.083451.044281 2.746857 1.642761 3.034531 2.798798 1.589203 6.385834 2.835098 12.857055 4.198654 19.299042.026032.389404.052063.778778-.076782 1.873321.570557 3.845734 1.29599 6.986359 2.021423 10.126953.065094.682312.130219 1.364624.044129 2.799774.57785 4.026276 1.306915 7.299744 2.035949 10.573212.064392.662933.128785 1.325867.022919 2.646027.595856 4.210083 1.361969 7.762909 2.128082 11.315765.038788.374695.077576.74942-.051147 1.727631.585022 4.155944 1.337555 7.708374 2.090088 11.260772.115509 1.305878.231018 2.611725.2276 4.647736-.019287 1.490784.080353 2.251373.03775 3.293884.635681 2.96814 1.413605 5.654419 2.191528 8.340729.46872-.062286.937409-.124573 1.406098-.18689.117828-1.149749.235626-2.29953.47998-3.850708 1.9711-12.145324 3.935242-23.872101 5.61847-35.639068 1.13681-7.947296 1.877807-15.951203 2.795898-23.929779.079742-.645111.159485-1.290223.571259-2.42569.703979-3.85202 1.075897-7.213715 1.447814-10.575378.080964-.644013.161927-1.288025.556305-2.442444.69278-3.52533 1.072205-6.540284 1.45163-9.555237.046417-.359162.092835-.718353.564575-1.523621 6.076752-.560821 11.746735-.433349 17.373841-.865082 4.701263-.360717 6.252716 1.101624 6.22113 6.023377-.211792 32.989807-.110077 65.981598-.110077 98.972748 0 15.261139 0 15.261139-15.291687 13.340271-.044281-25.310608-.088562-50.621216.031189-76.823487.024414-4.259094-.115265-7.626556-.153503-11.386596-.072602-1.679932-.246582-2.967285-.420594-4.254639-.462768.037598-.925567.075195-1.388336.112763 0 1.187072 0 2.374176-.054138 3.988067-.696075 6.446503-1.338013 12.466248-1.97995 18.485962z" fill="#060606"/><path d="m136.307297 373.96582c.023437.409088.04689.818177-.022873 1.931763.19487 3.675476.450958 6.650055.779175 9.616638.408508 3.692352-1.187241 5.11789-4.880844 4.929108-3.479508-.177857-6.982255.098816-10.474778.175567 0 0-.182022-.424743-.240188-.968505-.186409-1.914215-.314652-3.284668-.209481-4.777985-.305221-.776642-.843864-1.43045-1.382499-2.084229-.118866-.144561-.23774-.289154-.406502-.99472-.669365-1.834076-1.288849-3.107147-1.819542-4.749268-1.147781-1.27005-2.384346-2.171051-3.634888-3.058136-.013961.013947.009201-.016662-.006698-.401489-1.507035-.909729-2.998154-1.434631-4.891434-1.949493-2.822876-.010376-5.243591-.030823-8.018204-.244049-1.624496.706878-2.895096 1.606598-4.324478 2.701721-.262451.496216-.366112.797028-.469772 1.097809 0 0-.418305.019562-.929215.141906-.853958.924317-1.197006 1.726227-1.540046 2.528168 0 0 .167572.125641-.27105.092926-.741135 1.018616-1.04364 2.069977-1.346146 3.121338.000008 0-.267234.406799-.7574.709625-.262077 2.996186-.033989 5.689545.194092 8.382904 0 0 .200737-.083709.15216.198151.005082.766724.058739 1.251556.059746 2.099426 2.03006 2.064606 4.11277 3.766236 6.164528 5.501435-.03096.033569.030914-.03418.027039.331329 3.300377 1.889252 6.604622 3.412964 10.219772 4.952667.706146.138336 1.101387.260712 1.64241.670563 5.291756 2.334442 10.437729 4.381378 15.787483 6.489838.203782.061493.557297.298675.507668.680725 1.070206 1.00769 2.190048 1.633331 3.484711 2.351135.174835.092224.460724.365234.428558.744324 1.071961 1.093261 2.176071 1.807495 3.280182 2.521728.871246 1.208466 1.742477 2.416931 2.372803 4.090332.576721 1.711212 1.394317 2.957459 2.211914 4.203736.109054.13858.218124.277191.333191.921447.076767 1.209351.147506 1.912995.041137 2.990784.400971 1.621002.979065 2.867951 1.557145 4.114868.099105 4.353668.198196 8.707337-.155564 13.533325-.627075 1.778321-.801269 3.08429-.998092 4.783753-.030823 1.421966-.039017 2.450439-.047226 3.478912-.246109.837403-.492218 1.674805-1.081162 2.93454-.705246 1.720306-1.067642 3.018219-1.430069 4.316162-1.652038 2.396759-3.304092 4.793518-5.503113 7.371887-1.799743 1.171875-3.052543 2.162171-4.64595 3.000336-1.199409.802124-2.05822 1.756317-3.119919 2.82962-.968239.255677-1.733574.392212-2.839508.320191-1.614395.635254-2.888191 1.479126-4.280479 2.574249-.028038.412842.062416.574463.152862.736054-1.33966.104187-2.679321.208343-4.77996.164611-2.902817.008271-5.044655.164368-7.186501.320496-1.741997-.161377-3.483986-.322754-5.459679-.740356-.312728-.42569-.391754-.595185-.514366-1.142151-1.85244-.845887-3.661308-1.31427-5.75576-1.83017-5.531654-1.602051-8.918014-5.483734-11.744141-9.768463-4.936157-7.483765-5.696716-16.127106-5.950096-24.775208-.039619-1.352386.94973-3.442138 2.06231-4.003296 6.026908-3.039947 13.039108.248261 14.660461 6.791047 1.40686 5.677276 4.658302 10.051605 9.787605 12.372589 6.012917 2.720764 12.18422 1.485809 17.359139-2.385681 3.474006-2.599 5.790672-6.329438 4.894897-11.152192.039665-.944152.079323-1.888336.217713-3.528106-.594994-5.571076-3.665207-8.926087-7.74823-10.891358-5.304406-2.55307-10.991074-4.30841-16.50074-6.439361-8.725495-3.374787-17.485032-6.970581-20.856102-16.742035-4.865464-14.10318-4.27842-28.320313 1.756965-41.865479 1.809647-4.061401 5.849846-7.576935 9.652161-10.210693 8.332214-5.771515 17.954811-3.732575 27.084801-2.596924 3.094764.384979 6.76181 2.705566 8.607185 5.266052 4.10392 5.694306 7.222603 12.098633 10.742882 18.213562z" fill="#060606"/><path d="m165.895752 454.951416c-.324707.769287-.649414 1.538605-1.415161 2.672028-.552307 2.020843-.663574 3.67752-.774841 5.334228-.255906 1.087189-.511811 2.174378-1.242249 3.699982-.633209 2.21347-.791885 3.988495-.950562 5.76355-.065826.654388-.131652 1.308776-.700027 2.415222-5.548431.452057-10.59433.452057-15.817612.452057-.237991-1.653351-.442779-3.076081-.647567-4.49881.099746-.403565.199493-.807129.583541-1.749085.676163-2.773895 1.068009-5.009369 1.459839-7.244842.11702-.399994.23404-.799957.683472-1.700165.705704-2.756836 1.07901-5.013428 1.452332-7.270019.098403-.406281.196777-.812531.621734-1.719086.647232-1.077088 1.119141-1.617951 1.265915-2.236054 2.262711-9.529663 4.575943-19.048858 6.682632-28.613433 1.555619-7.062623 2.829148-14.187348 4.228364-21.284424.082946-.32309.165878-.64618.530426-1.420624 1.372116-5.550964 2.4626-10.650513 3.55307-15.750092.095642-.405059.191284-.810119.570419-1.753692.706116-2.76529 1.128754-4.992066 1.551392-7.218811.094375-.408051.188735-.816101.569152-1.751526.657807-2.437927 1.029541-4.348541 1.401307-6.259125.096725-.405273.19342-.810577.577102-1.762482 1.13823-6.186737 4.647553-7.673339 9.818299-6.767334 1.292816.226502 2.659088.03357 3.991592.033875 7.404449.001831 7.450104.25357 8.992294 7.497528 1.090805 5.123718 2.82193 10.111145 4.267212 15.159393.022125.419464.044251.838959.008545 1.933411.678818 2.797455 1.415436 4.919922 2.152054 7.042389.034363.415466.068741.830932.030594 1.905884.656082 2.980072 1.384659 5.300659 2.11322 7.621246.016907.338257.033829.676514-.040298 1.537231.58348 2.324036 1.25798 4.125672 1.932479 5.927277.082596.959381.165207 1.918793.060669 3.590668.308411 2.010986.803971 3.309509 1.29953 4.608001.350418 1.38617.700837 2.77237.865815 4.675049.265762 1.781555.716949 3.046631 1.168151 4.311676.286606.76709.573227 1.534149.628876 2.887757 3.045334 14.896423 6.311875 29.208618 9.634384 43.507812.129853.558899.795395.993317 1.211319 1.485718.072663.355591.145325.711212.02121 1.748566-1.28154 1.553558-2.316513 3.091919-3.459976 3.177337-4.09668.305939-8.230133.119873-11.580811.119873-1.452606-2.194671-2.485595-3.755371-3.51857-5.31604-.14804-.691162-.296096-1.382293-.400665-2.761718-.021683-1.451386-.086807-2.214539.063309-3.200318-.491242-1.806793-1.197739-3.39093-1.904251-4.975098-.115311-.69577-.230637-1.39151-.295807-2.739318-.000824-1.123841-.051789-1.595673.117065-2.297211-.904587-1.389618-1.996216-3.515656-3.15863-3.555115-8.583695-.291168-17.183548-.25058-25.771774-.043274-.865448.020935-1.68747 1.84137-2.5961 3.158844.011551.761811.089569 1.191437.167587 1.621094m22.779175-38.391541c-2.225815-10.466217-4.45163-20.932464-6.896027-32.426544-.794235 1.615845-1.192932 2.153748-1.332992 2.752198-2.794144 11.937835-5.688401 23.854553-8.273743 35.83786-1.28833 5.971496-1.026505 6.029754 5.286163 6.042633 1.829117.003723 3.658219.001068 5.487335.000457 8.436036-.002777 8.427613-.000762 6.294922-8.408447-.244232-.96289-.330017-1.965973-.565658-3.798157z" fill="#070707"/><path d="m258.528992 378.675781c-1.59372-6.127289-2.839615-12.59851-4.428818-18.984344-.287674-1.156037-1.95108-2.754517-3.034531-2.798798-6.44899-.263428-12.9142-.130218-19.743683-.130218v118.026611h14.193741c0-31.010101 0-62.120239 0-93.230377.653443-.038422 1.30687-.076813 1.960312-.115235 4.62027 31.021363 9.24054 62.042725 13.966828 93.775788 4.232666 0 8.667358.160156 13.07193-.132416.903137-.059998 2.084686-1.686188 2.456451-2.814911.82608-2.50824 1.22052-5.15863 2.073151-8.01004.371917 1.854553.643615 3.979431.513397 6.079346-.272034 4.385559-1.990845 7.357238-7.155335 6.54776-1.137542-.178315-2.326935-.02594-3.492431-.02591-9.565827.000092-9.547303-.306732-10.813935-9.740509-2.937194-21.875793-6.205093-43.707184-10.37474-65.66095-.282303 2.776581-.799759 5.552338-.809326 8.329834-.069855 20.312897-.166748 40.627594.056289 60.938294.053162 4.84024-1.484665 6.332886-6.300995 6.232849-13.653274-.283478-12.121215.908813-12.130539-12.071472-.024627-34.299256-.011917-68.598511-.004974-102.897766.001282-6.388764.440384-6.828064 6.763748-6.851685 5.327957-.019897 10.657486.073547 15.983582-.027405 3.5009-.066345 5.062866 1.371979 5.347656 4.966065.484314 6.111541 1.398712 12.188995 1.902222 18.595489z" fill="#888"/><path d="m331.381409 132.121872c-1.195435-1.281372-2.20575-2.365799-3.439789-2.774078-1.203308-.398102-2.635315-.112687-3.966919-.11406-11.888611-.012253-13.493195-1.895912-11.204071-13.795578.205902-1.070328 2.09491-2.556106 3.23764-2.588135 7.984223-.223793 15.984009-.269119 23.961701.05262 1.196014.048233 3.274261 2.294213 3.299896 3.556885.249847 12.313759.139496 24.634651.154022 36.953484.0065 5.512619-4.172363 3.379074-6.894714 3.734695-2.957337.386261-5.152649-.039886-5.016632-4.064377.230346-6.81459-.004578-13.644882-.131134-20.961456z" fill="#0f0f0f"/><path d="m54.414841 523.030518c.000198 4.15393.203712 7.829589-.056393 11.472107-.259464 3.633544 1.408924 4.78778 4.687565 4.575927.994232-.06427 1.996315-.006408 2.9948-.005554 12.534756.010681 12.612858.019409 11.191861 12.686096-.135491 1.207764-2.003937 3.133911-3.121361 3.172364-7.978432.274597-15.976769.298461-23.952339-.015442-1.235035-.048584-3.395165-2.21167-3.42014-3.431824-.25539-12.475891-.24271-24.960571-.017215-37.437561.020874-1.154907 1.892872-3.081268 3.124778-3.278443 7.892315-1.263275 8.568261-.571777 8.568623 7.276368.000069 1.497741-.000038 2.995483-.000179 4.985962z" fill="#0f0f0f"/><path d="m331.557404 536.120361c.019989-7.510681.205352-14.513855-.044861-21.501465-.147614-4.122894 2.221832-4.249389 5.101837-3.983642 2.657379.245178 6.326813-1.443695 6.259979 3.797363-.157135 12.32544-.099945 24.654541-.015716 36.981384.01947 2.842957-1.105713 3.763184-3.877228 3.713868-7.494019-.133545-14.992798-.107056-22.487915-.009583-2.542389.032959-3.433136-.88916-3.603211-3.472778-.830322-12.613526-.900055-12.495545 11.904236-12.744324 2.262238-.043884 4.497498-1.475769 6.762879-2.780823z" fill="#0f0f0f"/><path d="m54.431953 460.999908c-.000053 5.997071-.178745 11.502137.063633 16.988556.158593 3.589875-1.276908 5.070923-4.647625 4.406525-2.830986-.558044-7.79956 2.226318-7.915737-3.127197-.368557-16.983094-.177925-33.979737-.01453-50.9693.009262-.963073 1.557785-2.211334 2.669678-2.771575.938503-.47287 2.304294-.006348 3.44516-.184632 4.899292-.765625 6.773853.880524 6.527092 6.178711-.449009 9.640717-.127526 19.317322-.127671 29.478912z" fill="#121212"/><path d="m44.520714 112.596214c8.034561.035378 16.069122.070755 24.755493.356736 2.550743 2.190345 3.808258 12.772308 2.090965 14.443733-.817451.795624-2.34671 1.126449-3.575523 1.182083-3.459831.156631-6.931069.068893-10.397789.062897-2.367066-.00409-3.988041.621627-3.061134 3.492904-.078644 7.644745-.157284 15.289475-.529839 23.464981-.643646.925705-.993378 1.320664-1.343105 1.715622-2.369515-.037964-4.739033-.075927-7.665333-.413498-.91526-1.348785-1.579243-2.396133-1.585568-3.447418-.073684-12.251556-.091091-24.504043.010701-36.755188.011394-1.371124.847492-2.735397 1.301132-4.102852z" fill="#0f0f0f"/><path d="m54.431953 361.003235c-.000434 10.972992-.099937 21.448089.057492 31.919311.049232 3.274842-1.134312 4.892945-4.311943 4.210846-2.918694-.626526-8.1041 2.445771-8.246636-3.225494-.396682-15.783569-.205284-31.584503.008091-47.375122.01487-1.100403 1.944866-2.680817 3.287468-3.128204 1.647431-.549012 3.621205-.039826 5.441181-.168274 2.812889-.198548 3.876183 1.027069 3.797543 3.802459-.127087 4.485047-.033482 8.97641-.033196 13.964478z" fill="#121212"/><path d="m331.581573 455.999725c.000184-9.158172.189087-17.822174-.077392-26.472107-.138153-4.485443 2.495911-4.313324 5.467255-4.142761 2.941894.168854 6.570617-1.17395 6.515899 4.202912-.166015 16.315612-.105285 32.634124-.035431 48.95111.023682 5.528321-4.028625 3.561188-6.788513 3.85846-2.827515.304596-5.282623.235626-5.147766-3.921387.237396-7.31839.06604-14.650085.065948-22.476227z" fill="#0f0f0f"/><path d="m54.431755 188.629852c.004765 14.551346-.212318 28.667618.121986 42.770813.117856 4.971756-2.463974 4.975601-5.887897 4.755356-3.267345-.210174-7.116421 1.162003-6.980236-4.78717.311455-13.605942.01115-27.225144.207184-40.835388.024528-1.703248 1.831997-4.921647 2.325695-4.829377 3.421932.639725 8.098362-3.175094 10.213268 2.925766z" fill="#131313"/><path d="m342.869781 300.997009c-.000457 4.816162-.086883 9.135407.030274 13.449097.072967 2.686554-.815369 3.800049-3.700012 3.903778-8.168885.293732-8.361817.236481-8.361786-7.894806.00003-13.780853.194549-27.565796-.097962-41.340454-.113586-5.34787 3.042359-4.750458 6.452698-4.886627 3.590973-.143433 5.935181.137512 5.781433 4.892639-.337829 10.449219-.104675 20.916931-.104645 31.876373z" fill="#181818"/><path d="m331.581848 391.577576c-.000122-14.746338.18216-29.04422-.105774-43.332672-.092621-4.595093 1.908386-5.201813 5.6633-5.039032 3.462097.150085 6.502472-.393677 6.392669 4.931549-.301483 14.620453-.210052 29.252472-.032684 43.876983.046417 3.828736-1.007202 5.538056-5.052643 5.225983-3.555359-.2742-7.8945.931213-6.864868-5.662811z" fill="#0f0f0f"/><path d="m54.418438 299.99704c-.000385 5.148651-.165852 9.805816.050686 14.445099.177112 3.794616-2.09895 4.126434-4.788426 3.740387-2.684337-.385346-7.032604 1.893371-7.068607-3.492188-.104336-15.608063-.093933-31.217621-.003773-46.825867.031659-5.480621 4.417031-3.059722 7.080159-3.480407 2.700466-.426514 4.845855-.035157 4.786418 3.731079-.16505 10.458557-.05669 20.921478-.056457 31.881897z" fill="#0f0f0f"/><path d="m261.850403 555.089355c-1.344483-1.290954-3.083557-2.56427-3.080506-3.833313.034028-14.169738-2.218414-12.11914 11.227326-12.265136 6.633057-.072022 13.271332.119934 19.899811-.068726 3.714996-.105774 5.422943.922608 5.305969 5.039002-.366242 12.889953 1.644043 11.02185-11.046631 11.137451-7.29657.066467-14.594269.010986-22.305969-.009278z" fill="#141414"/><path d="m201.842224 552.94165c-.053833-3.556884.088745-6.718383-.109268-9.858459-.197464-3.131043 1.323852-4.122986 4.137558-4.114868 9.456345.027344 18.913238.058288 28.368973-.023072 3.013138-.025878 4.106277 1.262085 4.053894 4.211121-.250305 14.089111 1.752182 11.776245-11.201432 11.939697-6.63504.08368-13.275726.136109-19.905624-.066406-1.781128-.054443-3.53212-1.095154-5.344101-2.088013z" fill="#141414"/><path d="m176.394714 555.082825c-9.586807-.000244-18.737045-.104187-27.882522.059204-3.036942.05426-3.984406-.922241-4.063263-3.97345-.314301-12.164062-.415268-12.160705 11.831329-12.161377 6.653366-.000427 13.311585.146057 19.958084-.068481 3.338364-.107849 4.472428 1.118713 4.237335 4.338806-.205352 2.812805-.145401 5.65686-.016952 8.478638.122375 2.689086-1.144302 3.605407-4.064011 3.32666z" fill="#0f0f0f"/><path d="m126.577713 541.752686c.057884 13.349853.057884 13.349609-12.723396 13.349914-6.166283.000122-12.334267-.084534-18.498131.037903-3.096275.061523-4.591545-.90564-4.518997-4.287598.29647-13.820862-1.829941-11.709839 11.426788-11.854065 6.49884-.070739 13.005173-.167419 19.494362.091858 1.62616.065003 3.199257 1.458313 4.819374 2.661988z" fill="#131313"/><path d="m124.048904 112.722931c2.7725 2.176895 3.949326 13.304321 1.837105 15.116119-.770874.66124-2.133117.870987-3.228431.878632-9.331017.06517-18.663834-.048065-27.993584.078796-3.533844.04805-4.58638-1.430259-4.489731-4.820091.366173-12.843521-1.967461-11.153244 10.973663-11.269745 7.497887-.067497 14.996903-.008957 22.900978.016289z" fill="#141414"/><path d="m290.421967 112.708954c1.601806.650078 3.711517 1.219261 3.774871 1.962791.336884 3.954468.309418 7.962944.034089 11.926743-.053437.769501-1.755951 2.024544-2.712983 2.038826-10.126648.151138-20.256347.096649-30.385223.096496-.331787 0-.783722.112107-.977722-.058136-4.269379-3.746383-1.09021-8.634208-1.749329-12.944824-.122497-.800964 2.365082-2.850113 3.687683-2.886574 9.291596-.256149 18.593567-.13578 28.328614-.135322z" fill="#121212"/><path d="m219.999069 112.694313c4.99234.000343 9.509079-.251724 13.965164.157318 1.304993.119797 3.369324 2.018105 3.504975 3.27224 1.365433 12.622711 1.272857 12.632919-11.236862 12.632629-6.490754-.000168-12.983826-.1044-19.471344.040161-3.431122.076447-5.195664-.759414-5.055634-4.731994.464233-13.169533-2.15593-11.158592 11.30426-11.365929 2.163071-.033317 4.327118-.004616 6.989441-.004425z" fill="#141414"/><path d="m173.780029 128.742325c-8.607254-.00026-16.745819-.117386-24.878158.05661-3.280487.07019-4.728943-.696381-4.773804-4.374435-.142868-11.717728-.289017-11.715943 11.320648-11.715943 6.97377.000008 13.950073.109322 20.920105-.051956 2.926926-.067726 4.29596.721596 4.12262 3.890449-.206742 3.779496-.048737 7.578942-.048737 11.91903-2.369552.105758-4.280517.19104-6.662674.276245z" fill="#121212"/><path d="m184.891495 254.111328c1.366363.198883 2.732712.397751 4.594528.894104 2.309082.142822 4.122711-.011825 5.936325-.166473 1.902115-.339585 3.804214-.679169 6.207932-1.241577.941345-.725693 1.381103-1.228531 1.820861-1.731385 5.795838-3.325531 7.743821-9.324951 9.857575-14.976425 1.198349-3.20401 2.658172-4.429916 6.038757-4.399658 15.107666.1353 30.21962.202911 45.324463-.04454 3.715576-.060868 4.557556 2.304977 6.189514 4.574966 2.837219 3.946426 5.480133 8.335495 9.199341 11.284149 8.732666 6.923386 19.244873 1.576477 24.537872-5.249069 1.106385-1.426727 2.048951-2.980515 3.522858-4.885941.966125-.953354 1.476349-1.496536 1.986603-2.039703-1.587403 9.328659-10.106262 16.176102-19.102417 16.981903-10.840241.970947-17.036438-4.205917-21.116638-13.310226-1.289551-2.877457-3.21634-4.08313-6.578675-4.034897-13.993438.200683-27.992065.158432-41.987304.035492-3.764069-.033081-6.107682.874603-7.400666 4.900436-2.275161 7.083908-6.263534 12.788086-13.766922 15.717407-8.775726 3.426087-16.038376 1.96283-22.238662-6.105285.044036-.947098.087188-1.190979.130325-1.434845 0 0 .461471-.016922.653763.41922.832138.915497 1.471969 1.394851 2.111816 1.874191 0 0 .391754.240311.712097.631943 1.33577 1.029831 2.351212 1.66803 3.366654 2.306213z" fill="#b0b0b0"/><path d="m136.559372 373.728455c-3.772354-5.877564-6.891037-12.281891-10.994957-17.976197-1.845375-2.560486-5.512421-4.881073-8.607185-5.266052-9.12999-1.135651-18.752587-3.174591-27.084801 2.596924-3.802315 2.633758-7.842514 6.149292-9.652161 10.210693-6.035385 13.545166-6.622429 27.762299-1.756965 41.865479 3.37107 9.771454 12.130607 13.367248 20.856102 16.742035 5.509666 2.130951 11.196334 3.886291 16.50074 6.439361 4.083023 1.965271 7.153236 5.320282 7.688781 10.541107-5.177261-7.543365-12.834137-10.921997-21.582397-13.195861-5.288582-1.374604-10.350494-4.097321-15.11557-6.893677-6.465492-3.794251-10.324707-10.065643-11.447983-17.231598-2.039131-13.008789-2.851707-26.117096 2.835098-38.667084 3.285309-7.250183 8.407868-11.961273 16.127709-14.767547 11.07621-4.026307 21.132362-2.282654 30.286423 4.050842 7.169502 4.960419 10.831474 12.658783 11.947166 21.551575z" fill="#a4a4a4"/><path d="m98.079826 477.889038c.079033.169464.158059.338959.094002.749695-5.314842 3.263-8.70694-1.402954-11.596001-3.566132-12.359413-9.254181-14.14318-23.117126-14.069175-37.318451.006309-1.211517 2.324981-2.456543 3.6585-3.580352.29493-.248505.968216-.061554 1.466874-.052674 3.818237.067963 8.427528-1.137634 11.221298.590332 2.548004 1.575959 3.216049 6.299195 4.558586 9.696198 4.079216 10.321747 18.820228 13.599457 25.887833 5.549438 1.638198-1.865814 2.339096-4.554565 3.760101-7.030822 1.184593 4.656646-1.132073 8.387084-4.606079 10.986084-5.174919 3.87149-11.346222 5.106445-17.359139 2.385681-5.129303-2.320984-8.380745-6.695313-9.787605-12.372589-1.621353-6.542786-8.633553-9.830994-14.660461-6.791047-1.11258.561158-2.101929 2.65091-2.06231 4.003296.25338 8.648102 1.013939 17.291443 5.950096 24.775208 2.826127 4.284729 6.212487 8.166412 11.939118 10.030365 2.188499.854828 3.896431 1.400299 5.604362 1.94577z" fill="#a4a4a4"/><path d="m292.03125 475.35675c15.31604 1.5029 15.31604 1.5029 15.31604-13.758239 0-32.99115-.101715-65.982941.110077-98.972748.031586-4.921753-1.519867-6.384094-6.22113-6.023377-5.627106.431733-11.297089.304261-17.358429.59372.512207-.589844 1.414825-1.987488 2.359588-2.016602 6.322052-.194763 12.654053-.031768 18.980774-.124023 3.105622-.045258 3.949646 1.461975 3.94574 4.321533-.051544 37.802185-.053772 75.604523.001434 113.406708.004364 2.991516-1.133117 4.374695-4.106811 4.129242-4.352173-.359253-8.701233-.756928-13.027283-1.556214z" fill="#959595"/><path d="m332.005554 186.007278c3.162873-3.752746 7.202851-1.683517 10.747376-1.163208.964386.141556 2.065124 3.426438 2.085968 5.280152.16864 14.984894.114258 29.97258.084655 44.95932-.01184 5.99353-.894744 6.797516-7.06076 6.821365-6.613525.025559-7.713379-.83464-7.739197-6.751632-.065368-14.986527-.050262-29.973664.025788-44.960083.006988-1.376297.681854-2.749222 1.503204-3.68956.42218 16.227676.537079 32.023864.2565 47.813003-.077789 4.375809 1.899231 4.777222 5.407166 4.829651 3.822693.057144 5.735016-.650146 5.628021-5.168838-.295105-12.462662.033417-24.938797-.1409-37.406006-.166168-11.882386 2.554169-10.790055-10.797821-10.564164z" fill="#b0b0b0"/><path d="m119.394943 197.492935c-1.329689-.707275-2.719375-1.524429-3.646385-2.704895-4.558952-5.805435-10.618851-9.405441-17.741791-7.712448-7.473579 1.776321-13.27848 6.84195-16.055694 14.432755-1.490586 4.074127-2.548134 8.306686-4.142838 12.569381-1.180351-9.956527 6.161316-23.644699 14.824845-28.175766 7.525444-3.935837 19.347305-.326294 25.121383 8.223633.654556 1.023148 1.115326 1.433777 1.576088 1.844406.072563.415192.145126.830384.064392 1.522934z" fill="#535353"/><path d="m121.045898 234.664825c1.733178-.624069 3.46074-1.770858 5.20044-1.78955 13.948608-.150009 27.899506-.08696 42.448852.235016 1.161637 1.271362 1.724137 2.218612 2.286622 3.165863-16.095658-.135498-32.1913-.270997-48.924088-.735932-.762039-.511413-.886932-.69339-1.011826-.875397z" fill="#bdbdbd"/><path d="m197.419022 378.729858c-1.716477-4.798431-3.447602-9.785858-4.538407-14.909576-1.54219-7.243958-1.587845-7.495697-8.992294-7.497528-1.332504-.000305-2.698776.192627-3.991592-.033875-5.170746-.906005-8.680069.580597-9.826539 6.453705-1.744812-6.735107.344666-9.562805 6.979813-9.593933 2.808243-.013183 5.645218.253296 8.418701-.057495 5.203919-.583099 7.536499 1.810669 8.382767 6.725037 1.077316 6.256134 2.541397 12.445648 3.567551 18.913665z" fill="#adadad"/><path d="m278.976318 384.233093c-.623596 7.735321-1.364593 15.739228-2.501403 23.686524-1.683228 11.766967-3.64737 23.493744-5.938111 35.573852-1.502685-1.28247-2.559204-2.901153-3.615722-4.519806-.09964-.76062-.19928-1.521209-.116211-2.623413.996063.350159 1.809356 1.041931 2.893219 1.963806 1.562988-9.555725 3.09082-19.037109 4.670135-28.509948 1.408325-8.44751 2.873535-16.885559 4.608093-25.571015z" fill="#959595"/><path d="m160.97876 399.143433c-1.052414 6.926208-2.325943 14.050933-3.881562 21.113556-2.106689 9.564575-4.419921 19.08377-6.682632 28.613433-.146774.618103-.618683 1.158966-1.262863 1.921753-.296738-1.66333-.572571-3.577789-.190796-5.350677 1.648743-7.656189 3.365036-15.302765 5.295975-22.891968 1.979965-7.781952 4.238479-15.493072 6.721878-23.406097z" fill="#adadad"/><path d="m218.421387 469.723572c-.624146-.202179-1.289688-.636597-1.419541-1.195496-3.322509-14.299194-6.58905-28.611389-9.627578-43.199127 2.049972 6.339233 3.998336 12.922699 5.639587 19.581879 2.0065 8.141021 3.755447 16.345459 5.407532 24.812744z" fill="#646464"/><path d="m266.745209 207.352615c-2.45398.229889-4.907105.647812-7.36203.658539-13.814698.060379-27.629822.022797-41.927552-.235855-.6763-.502731-.790634-.783279-.82579-1.0961 11.086395-.163849 22.172485-.356415 33.259338-.478821 5.13678-.056717 10.275071.023224 15.994156.339737.674958.469864.768402.64119.861878.8125z" fill="#b0b0b0"/><path d="m44.133831 112.417427c-.066757 1.546242-.902855 2.910515-.914249 4.281639-.101792 12.251145-.084385 24.503632-.010701 36.755188.006325 1.051285.670308 2.098633 1.194729 3.500885-2.822654 1.348801-3.304573-.576294-3.310581-2.773971-.035053-12.829773-.084244-25.660675.101482-38.487877.01685-1.16362 1.662941-2.303658 2.93932-3.275864z" fill="#b0b0b0"/><path d="m54.777294 132.080368c-1.371475-2.817078.2495-3.442795 2.616566-3.438705 3.46672.005996 6.937958.093734 10.397789-.062897 1.228813-.055634 2.758072-.386459 3.575523-1.182083 1.717293-1.671425.459778-12.253388-1.661072-14.50322 2.520401-1.567802 3.788292-.399063 4.100045 2.32428.037292.325806.024688.658066.02449.98732-.010323 16.957321 1.312477 15.793838-14.672821 15.613953-1.311039-.014771-2.623924.134246-4.38052.261352z" fill="#b0b0b0"/><path d="m168.994476 207.954758c-14.683883.018524-29.367752.037048-44.535659-.260269-.569993-.65065-.655953-.985444-.741913-1.320237 14.89386-.00798 29.787735-.01596 45.11.32573.214325.614746.127381.916443.167572 1.254776z" fill="#b0b0b0"/><path d="m126.264961 410.709503s-.353515-.237182-.734123-.582123c-5.505882-2.394561-10.631157-4.444213-15.756432-6.493896-.395248-.122345-.790489-.244721-1.62001-.719788-3.653694-1.89563-6.8731-3.438537-10.092522-4.981445 0 0-.061874.067749-.096786-.232971-.419411-.691895-.803894-1.083039-1.058876-1.59906.129501-.124878.392944-.369934.392944-.369934 3.759896 1.391662 7.599945 2.601471 11.261879 4.215393 6.327683 2.788879 12.654617 5.622558 18.750992 8.870727 2.249252 1.198365 3.845825 3.621674 5.383331 5.806763-1.082702-.058136-1.808655-.436676-2.534591-.815247 0 0-.285889-.27301-.565888-.662689-1.296646-1.071686-2.313286-1.753723-3.329918-2.43573z" fill="#bdbdbd"/><path d="m144.021149 470.897766c.531372 1.314636.73616 2.737366.974151 4.390717 5.223282 0 10.269181 0 15.788697-.124237-.252549.79132-.867966 2.365356-1.723923 2.509307-3.882248.653046-7.830689 1.201783-11.758438 1.223633-5.196503.028931-6.524063-3.12558-3.280487-7.99942z" fill="#adadad"/><path d="m303.99176 193.008209c-2.540741-1.21672-5.318817-2.100265-7.579132-3.710602-7.778412-5.541717-14.019592-1.448028-20.336181 2.818116-.521027.351883-1.18454.492782-2.14267.593246-.322052-.496216-.283325-.853973.264343-1.523697 3.606751-2.264984 6.704559-4.218017 9.802399-6.171051 2.700073-.012604 5.400146-.025207 8.776398.208771 2.584259 1.01207 4.49234 1.777588 6.400421 2.543121 0 0 .374786.177109.694061.51474 1.152771.872681 1.986267 1.407715 2.819763 1.942765 0 0 .047608.038009.09259.3694.432679 1.025985.820343 1.720596 1.208008 2.415191z" fill="#535353"/><path d="m197.034851 453.999603c.050964.471802.101929.943634-.009735 1.732758-3.452362-.395294-6.736694-1.67096-10.032974-1.702698-6.745392-.065002-13.497208.538178-20.671387.893982-.503021-.401886-.581039-.831512-.191895-1.766907 8.369629-.829681 16.271683-1.340759 24.174866-1.358581 2.24205-.005066 4.48732 1.427948 6.731125 2.201446z" fill="#bdbdbd"/><path d="m121.615608 390.911133c3.584892-.368988 7.087639-.645661 10.567147-.467804 3.693603.188782 5.289352-1.236756 4.880844-4.929108-.328217-2.966583-.584305-5.941162-.684174-9.323303 2.792358 4.736786 3.542313 10.005798.490692 15.706787-5.48912.313294-10.243461.394806-14.997795.476318-.116363-.390197-.232727-.780426-.256714-1.46289z" fill="#a4a4a4"/><path d="m199.495941 470.115601c1.212052 1.188598 2.245041 2.749298 3.697647 4.943969 3.350678 0 7.484131.186066 11.580811-.119873 1.143463-.085418 2.178436-1.623779 3.461151-2.904541 3.078064 2.751435 1.711258 4.311615-1.893112 4.557495-3.452866.235505-6.952881-.166595-10.397492.123383-4.721588.39743-6.802627-1.614533-6.449005-6.600433z" fill="#646464"/><path d="m96.720886 375.434418c-.312935-.544647-.209274-.845459.387383-1.277619 1.776718-.945221 3.060447-1.759094 4.344169-2.572967 2.420716.020416 4.841431.040863 7.829544.331146 1.958962.864685 3.350533 1.459564 4.742096 2.054413 0 0-.023162.030609.045983.289123.436249.673859.80336 1.089203 1.036033 1.632111-.13443.127594-.407661.378082-.407661.378082-5.853645-.196808-11.707298-.393615-17.977547-.834289z" fill="#bdbdbd"/><path d="m310.923828 229.0065c-.173736-6.785507-.347473-13.570999-.01654-20.481354 1.025238 1.075379 1.545776 2.275589 2.066345 3.4758.00473 4.0242.00946 8.048401-.232422 12.758667-.770233 1.873001-1.293793 3.059952-1.817383 4.246887z" fill="#535353"/><path d="m204.341064 186.355225c-2.904754-.867386-5.855377-2.567292-8.703674-2.410279-4.456131.245621-8.843048 1.747391-13.474487 2.282303 1.799988-1.737625 3.81517-3.040512 5.830368-4.343399 3.034088-.006302 6.068161-.012619 9.756302.260803 2.633194 1.590027 4.612335 2.900299 6.591491 4.210572z" fill="#535353"/><path d="m126.404411 472.600922c1.252793-.990265 2.505593-1.980561 4.099831-2.884919-1.435272 5.253998-8.580559 10.058503-14.354416 9.521973-.263519-.490631-.353973-.652252.005966-1.002624 1.729996-.935212 3.009583-1.681672 4.289177-2.428132.765335-.136566 1.53067-.273101 2.813484-.54425 1.393639-.977081 2.269799-1.81955 3.145958-2.662048z" fill="#a4a4a4"/><path d="m291.831879 387.121307c.139648 3.367432.279327 6.734894.231079 10.530976-1.207611 2.706299-2.227295 4.983886-3.609833 7.335022.279083-5.946167.921021-11.965912 1.828613-18.28714.693848-.060639 1.121979.180267 1.550141.421142z" fill="#959595"/><path d="m165.086441 381.934692c-.767853 4.966736-1.858337 10.066285-3.243545 15.365906.777175-4.944305 1.849044-10.088684 3.243545-15.365906z" fill="#adadad"/><path d="m187.7556 181.642456c-1.777527 1.544281-3.792709 2.847168-5.954575 4.432358-.146667.282287-.335647.392593-.686142.542145-1.052536 1.020187-1.754577 1.890838-2.456619 2.761489 0 0-.127228.138489-.455215.237366-.811783.2948-1.295578.490692-1.779373.686585 1.293731-4.665039 6.246017-8.638428 11.331924-8.659943z" fill="#b0b0b0"/><path d="m114.326035 245.377457c.26921-.193711.512458-.415848 1.147338-.882431.888527-.469864 1.359459-.72374 1.830399-.9776-.57296 4.541229-5.732056 8.943786-10.256973 8.454254-.108124-.425278-.22992-.540268.085724-.812439 2.032699-1.274567 3.627967-2.391953 5.223236-3.509339 0 0 .156219-.125259.498184-.264938.718666-.762283 1.095383-1.384903 1.472092-2.007507z" fill="#bdbdbd"/><path d="m122.023865 392.730896c4.602791-.438385 9.357132-.519897 14.581726-.543945-1.17955.655517-2.825562 1.736694-4.480011 1.749725-3.31427.026154-6.633179-.531982-10.101715-1.20578z" fill="#e5e5e5"/><path d="m264.666199 417.903137c-.957764-3.130462-1.723877-6.683288-2.282044-10.562469.963196 3.162475 1.718445 6.651245 2.282044 10.562469z" fill="#888"/><path d="m283.981354 435.070862c.127411-3.542694.538604-7.286682 1.241729-11.234772-.124664 3.541748-.54132 7.287628-1.241729 11.234772z" fill="#959595"/><path d="m77.310974 224.220093c1.24147 3.133056 2.302071 6.662796 3.115524 10.59198-.587051.272506-.926956.145538-1.266861.018585-.676513-3.404633-1.353027-6.809265-1.848663-10.610565z" fill="#535353"/><path d="m266.711365 430.894775c-.950409-3.133239-1.702942-6.685669-2.250122-10.561584.95285 3.165131 1.700439 6.653778 2.250122 10.561584z" fill="#888"/><path d="m262.524506 403.952423c-.929993-2.862152-1.659058-6.13562-2.198761-9.821319.926117 2.861846 1.662933 6.135925 2.198761 9.821319z" fill="#888"/><path d="m204.437805 186.414642c-2.075897-1.36969-4.055038-2.679962-6.233703-4.26062 3.920486-1.04985 7.672348 1.373322 9.797866 6.622986-.118087.360199-.552093.606552-.835769.217163-1.015427-1.043625-1.747162-1.697876-2.478882-2.352127 0 0-.152786-.167969-.249512-.227402z" fill="#b0b0b0"/><path d="m281.921082 448.081604c.09793-3.079895.484344-6.343475 1.181884-9.831665-.090393 3.066223-.491943 6.357117-1.181884 9.831665z" fill="#959595"/><path d="m260.47229 390.68811c-.954254-2.837951-1.679687-5.978576-2.215576-9.53363.941192 2.80069 1.69281 6.015839 2.215576 9.53363z" fill="#888"/><path d="m267.070435 207.280945c-.418702-.09964-.512146-.270966-.702362-.718414-.096741-.276124.125854-.717164.474151-1.139145.603058-1.43422.857819-2.446473 1.112549-3.458725.26059-.786515.521149-1.573014 1.131683-2.802872.539551-1.014618.729157-1.585892.918793-2.157166.828918-1.134506 1.657837-2.269012 2.775696-3.495285-1.602448 4.505463-3.493836 9.102692-5.71051 13.771607z" fill="#535353"/><path d="m169.190216 208.188019c-.235931-.571594-.148987-.873291.113983-1.373825.048889-.235459.177765-.354218.526993-.574463.838058-1.961151 1.326874-3.702057 1.815689-5.442963.183106-.619736.366226-1.239456.915558-2.205704.694305-.429046 1.022415-.511566 1.350525-.594085-.642273 3.851166.063522 8.287765-4.722748 10.19104z" fill="#535353"/><path d="m280.99408 371.235565c-.076111 3.114868-.448029 6.476563-1.131531 10.00412.070892-3.141815.453338-6.449585 1.131531-10.00412z" fill="#959595"/><path d="m283.763855 184.766098c-2.861176 2.201157-5.958984 4.15419-9.393433 6.186523 1.243348-4.40126 4.414368-6.562988 9.393433-6.186523z" fill="#b0b0b0"/><path d="m282.984253 359.217834c-.065857 2.788208-.445282 5.803162-1.116638 9.004639.073059-2.801636.438049-5.789734 1.116638-9.004639z" fill="#959595"/><path d="m90.010681 247.986298c.335755.165481.671501.330978 1.369766.889694 1.448983 1.343506 2.535454 2.293793 3.621918 3.244064-3.945061 2.540222-4.767914-1.926269-7.066147-3.57666-.024887-.439026.240845-.71962.544846-.643066.71254.079681 1.121086.082809 1.529617.085968z" fill="#bdbdbd"/><path d="m199.551422 387.694397c-.979614-1.861389-1.716232-3.983856-2.292602-6.482056.952041 1.823181 1.743835 4.022065 2.292602 6.482056z" fill="#adadad"/><path d="m201.641113 397.09314c-.917434-1.931122-1.646011-4.251709-2.200988-6.934937.912338 1.940094 1.651092 4.242767 2.200988 6.934937z" fill="#adadad"/><path d="m104.092651 479.756012c2.059487-.518097 4.201325-.674194 6.708496-.605499-1.729621 2.689758-3.971038 3.775757-6.708496.605499z" fill="#a4a4a4"/><path d="m148.185425 452.900024c-.03183 2.182129-.405136 4.438721-1.10643 6.881836.036331-2.144745.40065-4.476043 1.10643-6.881836z" fill="#adadad"/><path d="m146.060974 461.885651c-.061691 2.145568-.453537 4.381042-1.144592 6.841949.072006-2.100403.443222-4.426208 1.144592-6.841949z" fill="#adadad"/><path d="m167.220642 372.947083c-.112411 2.109008-.535049 4.335784-1.256805 6.78775.116119-2.073181.531356-4.371613 1.256805-6.78775z" fill="#adadad"/><path d="m91.800766 389.725403c-.374321-2.251343-.602409-4.944702-.470947-7.735535.445427 2.36615.531303 4.829834.470947 7.735535z" fill="#494949"/><path d="m169.171967 364.887878c-.042405 1.841401-.414139 3.752015-1.085297 5.874909.052353-1.793701.404144-3.799683 1.085297-5.874909z" fill="#adadad"/><path d="m203.589676 404.69455c-.919754-1.549042-1.594254-3.350678-2.093033-5.434174.896607 1.539276 1.617447 3.360443 2.093033 5.434174z" fill="#adadad"/><path d="m117.560974 377.413208c.619484 1.273102 1.238968 2.546173 1.732559 4.161316-1.55188-1.316986-2.977859-2.976074-4.499466-4.970459-.095634-.335358.177597-.585846.566697-.574432.992797.468811 1.596504.926178 2.20021 1.383575z" fill="#bdbdbd"/><path d="m211.546951 194.237076c-1.427185-1.245728-2.641723-2.840729-3.767608-4.779526 1.385849 1.247559 2.683044 2.838898 3.767608 4.779526z" fill="#b0b0b0"/><path d="m177.960663 248.575653c.043365.547974.000213.791855-.110932 1.402435-1.36827-1.503036-2.668502-3.372787-3.645813-5.502884.806839.008423 1.290757.277192 1.774659.54596.631851 1.083466 1.263717 2.166931 1.982086 3.554489z" fill="#bdbdbd"/><path d="m79.070572 235.21196c.42897-.254349.768875-.127381 1.381225.01091 1.177941 1.96904 2.083443 3.926742 2.907959 6.250107-1.513412-1.716126-2.945831-3.797913-4.289184-6.261017z" fill="#bdbdbd"/><path d="m299.149414 187.414886c-1.880157-.414306-3.788238-1.179824-5.922516-2.197158 2.543732-1.681549 4.618683-1.083573 5.922516 2.197158z" fill="#b0b0b0"/><path d="m216.529633 206.610962c.13536.381058.249694.661606.458084 1.138672-3.500153 1.148773-3.641251-.966843-3.047623-3.648316.282654-.159134.688599-.359802.807999.067505.586807 1.015381 1.054229 1.603424 1.521652 2.191468 0 0 .159698.182434.259888.250671z" fill="#535353"/><path d="m173.985031 197.68399c-.400177.395508-.728287.478028-1.310165.604157.71936-2.359909 1.692489-4.763428 3.03067-6.858444.026901 1.411499-.311234 2.51448-.649353 3.617477-.333023.774613-.666046 1.54921-1.071152 2.63681z" fill="#b0b0b0"/><path d="m95.290024 252.114227c-1.374123-.944442-2.460594-1.894729-3.646347-3.139312 1.664802.408966 3.428871 1.112243 5.292572 2.193405-.386429.565277-.872505.75267-1.646225.945907z" fill="#535353"/><path d="m197.264191 459.177429c.875732 1.213135 1.582229 2.797272 1.815765 4.572846-.791962.062591-1.110931-.066223-1.429916-.195038-.185013-1.335602-.370026-2.671204-.385849-4.377808z" fill="#646464"/><path d="m310.885071 204.786407c-1.106934-1.441192-2.052735-3.212966-2.690735-5.243347.813141.307556 1.318512.873749 1.823852 1.439942.342682 1.157608.685364 2.315216.866883 3.803405z" fill="#535353"/><path d="m279.987244 460.186554c-.359284-1.03476-.441895-2.174316-.093872-3.732941.738494-.466613 1.04779-.501861 1.358459-.524841-.329315 1.384338-.6586 2.768677-1.264587 4.257782z" fill="#959595"/><path d="m310.894409 229.364929c.553009-1.545364 1.076569-2.732315 1.848328-4.142151-.125275 1.776779-.498779 3.776444-1.211151 5.817627-.448151-.411361-.557404-.864212-.637177-1.675476z" fill="#b0b0b0"/><path d="m313.22168 211.772293c-.768616-.971558-1.289154-2.171768-2.074097-3.578354-.281555-.680023-.298676-1.153671-.153229-1.943786.933502 1.553512 1.704438 3.423492 2.227326 5.52214z" fill="#b0b0b0"/><path d="m175.395355 195.002472c-.001053-1.058289.337082-2.16127.659424-3.616104-.015778-.351837.187531-.712189.278214-.898087.574478-.381775 1.058273-.577667 1.803329-.806213-.626434 1.736801-1.514114 3.506256-2.740967 5.320404z" fill="#535353"/><path d="m304.103729 193.180038c-.499634-.866424-.887298-1.561035-1.313507-2.557251 1.292572 1.032486 2.623749 2.366562 3.815155 4.093033-.13974.392395-.17926.814072-.507721.455735-.787689-.721909-1.246979-1.085465-1.706238-1.449021 0 0-.17572-.370666-.287689-.542496z" fill="#b0b0b0"/><path d="m123.579109 206.147202c.223755.561843.309715.896637.414574 1.493301-.900322-.604141-1.819542-1.470169-2.361092-2.595291.767853-.035401 1.158043.188309 1.548241.412002.086838.154328.173668.30864.398277.689988z" fill="#535353"/><path d="m310.050354 200.594376c-.537506-.177567-1.042877-.74376-1.819183-1.432846-.77713-1.139679-1.283295-2.156434-1.708527-3.508423 1.240601 1.294052 2.400238 2.923355 3.52771 4.941269z" fill="#b0b0b0"/><path d="m117.410645 243.331985c-.577813.439301-1.048745.693177-1.788376.965378.735283-1.753402 1.73925-3.525131 3.101562-5.263977.404244.460633.450142.888382.12944 1.743988-.596229.967087-.825874 1.506333-1.055511 2.045578.000008 0-.280243.323593-.387115.509033z" fill="#535353"/><path d="m171.842422 239.103958c.912278.628098 1.531952 1.393921 2.131638 2.765686-.113342.819443-.206726 1.032944-.30011 1.246445-.708038-1.291474-1.416076-2.582932-1.831528-4.012131z" fill="#bdbdbd"/><path d="m164.126572 462.893402c-.309555-1.592438-.198288-3.249115.24617-4.97464.280349 1.590912.227508 3.250641-.24617 4.97464z" fill="#646464"/><path d="m136.542664 462.050842c.032623-1.272186.395019-2.570099 1.097168-3.961364-.029313 1.249633-.398331 2.59259-1.097168 3.961364z" fill="#bdbdbd"/><path d="m310.104614 236.110519c-.506744.562424-1.016968 1.105606-1.787536 1.791047.41864-1.853562 1.097564-3.849411 2.11557-5.923111.439544.381164.540008.840179.354156 1.842315-.408417 1.122696-.530578 1.702256-.65274 2.28183 0 0-.032929-.011337-.02945.007919z" fill="#535353"/><path d="m171.2146 236.322998c-.795273-.994095-1.357773-1.941345-2.059067-3.210907 3.101074-1.701797 3.269409.35817 2.928634 2.805267-.283782.134827-.636795.452485-.869567.40564z" fill="#535353"/><path d="m161.877289 472.273071c-.205673-1.626922-.046997-3.401947.481109-5.2948.207367 1.637024.045304 3.391816-.481109 5.2948z" fill="#646464"/><path d="m171.335052 200.938751c-.176986 1.598923-.665802 3.339829-1.454864 5.228348.180862-1.597046.661957-3.34169 1.454864-5.228348z" fill="#b0b0b0"/><path d="m121.024887 384.99527c.12825 1.370453.256493 2.740906.265076 4.507599-.779038-1.116669-1.438408-2.629547-1.675476-4.467347.751663-.22998 1.081031-.135131 1.4104-.040252z" fill="#bdbdbd"/><path d="m123.381027 205.142563c-.590393.090958-.980583-.132752-1.590103-.420899-.321449-.800232-.423576-1.53601-.382049-2.614715.819892.678375 1.496131 1.699661 1.972152 3.035614z" fill="#b0b0b0"/><path d="m138.544922 428.540955c-.070725-.703705-.141464-1.407349-.041046-2.420227.795074.640411 1.419006 1.590026 1.523956 2.694274-.840301.01175-1.161606-.131164-1.48291-.274047z" fill="#bdbdbd"/><path d="m214.006805 201.742279c-.910415-.952805-1.671371-2.230591-2.138061-3.646789.443451-.214783.592651-.291184.901626.051269.504044.897537.848313 1.376205 1.192582 1.854874.064422.471893.12886.943786.043853 1.740646z" fill="#535353"/><path d="m138.367828 428.915039c.498398-.231201.819703-.088287 1.406556.068054.344039 1.108612.422515 2.203797.32579 3.672882-.753281-.872985-1.331375-2.119934-1.732346-3.740936z" fill="#494949"/><path d="m139.069824 454.842834c-.337524-1.04541-.32933-2.073883.034943-3.470825.578995-.366272.801864-.364074 1.024734-.361877-.237991 1.283203-.475982 2.566437-1.059677 3.832702z" fill="#bdbdbd"/><path d="m138.139404 424.685913c-.963501-.929382-1.781097-2.175629-2.320465-3.567322.278229-.145446.722306-.300659.89943.119355.584777.862213.992431 1.304412 1.400085 1.746612.055618.461487.111237.923004.02095 1.701355z" fill="#494949"/><path d="m140.141953 450.601562c-.235322.406373-.458191.404175-1.014542.376954-.159271-1.330994.014923-2.636963.523865-3.963715.390884 1.045563.447006 2.111877.490677 3.586761z" fill="#494949"/><path d="m206.861969 421.750916c-.574585-.883454-1.025772-2.14853-1.191162-3.579499.628738.955353.971634 2.076599 1.191162 3.579499z" fill="#646464"/><path d="m204.823456 412.78009c-.614395-.9328-1.109955-2.231323-1.41182-3.880615.639344.937805 1.085007 2.226349 1.41182 3.880615z" fill="#646464"/><path d="m130.128601 414.187012c.758102-.000519 1.484055.378021 2.525528.804046.506943.405671.698334.763886.822189 1.419892-1.171646-.416443-2.275756-1.130677-3.347717-2.223938z" fill="#494949"/><path d="m197.466492 463.902588c.502533-.218536.821502-.089722 1.398193.070312.322861.794373.387985 1.557526.298828 2.672058-.729706-.564117-1.305145-1.479553-1.697021-2.74237z" fill="#bdbdbd"/><path d="m267.596252 202.045837c.103791.931076-.15097 1.943329-.664367 3.14737-.070496-.894181.117645-1.980179.664367-3.14737z" fill="#b0b0b0"/><path d="m119.615791 199.607208c-.106254-.433548-.212509-.867096-.139396-1.584793.833824.346985 1.488273.978119 1.670318 1.770645-.825248.045655-1.178085-.070099-1.530922-.185852z" fill="#b0b0b0"/><path d="m94.323608 392.711029c.924591.796051 1.84919 1.592102 2.874665 2.703705.100883.315552-.16256.560608-.565773.547943-1.23301-.908173-2.062805-1.80368-2.748085-2.838776.144516-.139618.439186-.412872.439193-.412872z" fill="#bdbdbd"/><path d="m119.858238 239.208252c-.409973-.396286-.468002-.799393-.177124-1.573883.802178-.611649 1.25544-.851898 1.708702-1.092148-.393219.886398-.78643 1.772797-1.531578 2.666031z" fill="#bdbdbd"/><path d="m121.464455 236.351898c-.527901.430573-.981163.670822-1.68676.972733.054855-.783966.362037-1.629578.968712-2.56749.424385.089691.549278.271668.826896.747208.152725.293548-.03421.657211-.108848.847549z" fill="#535353"/><path d="m121.258308 384.872406c-.56279.027985-.892158-.066864-1.475685-.236084-.270096-.498749-.286026-.923187-.104385-1.59787.736206.403504 1.274849 1.057312 1.58007 1.833954z" fill="#494949"/><path d="m91.919083 392.10199c-.053658-.484864-.107315-.969696-.018822-1.791809.834412.366577 1.526672 1.070404 2.321136 2.087524.102204.313324-.192466.586578-.581764.602966-.833046-.288604-1.276802-.593658-1.72055-.898681z" fill="#bdbdbd"/><path d="m92.56678 381.025848c-.04644-1.002319.256065-2.05368.917854-3.141143.049889 1.006652-.259506 2.049377-.917854 3.141143z" fill="#bdbdbd"/><path d="m173.780701 243.329498c-.013367-.42691.080017-.640411.328415-1.167251.769455.519394 1.38388 1.352142 1.933883 2.521896-.548324.068253-1.032242-.200516-1.782959-.572555-.26683-.103272-.372589-.568665-.479339-.78209z" fill="#535353"/><path d="m302.763306 189.862457c-.90564-.173889-1.739136-.708923-2.693085-1.522995.841461.201264 1.803345.681534 2.693085 1.522995z" fill="#b0b0b0"/><path d="m214.183823 199.846069c-.56514-.323105-.909409-.801773-1.188492-1.587005.513244.272766.961304.852112 1.188492 1.587005z" fill="#b0b0b0"/><path d="m83.422012 242.745972c.799691.209106 1.43335.786956 1.985802 1.7052-.771416-.218567-1.461624-.777527-1.985802-1.7052z" fill="#bdbdbd"/><path d="m52.715878 157.513901c.093631-.593689.443363-.988648 1.062908-1.445877-.089058.506668-.447933 1.075637-1.062908 1.445877z" fill="#b0b0b0"/><path d="m216.419586 206.053619c-.617264-.281372-1.084686-.869415-1.485245-1.756042.5896.284073 1.112336.866714 1.485245 1.756042z" fill="#b0b0b0"/><path d="m118.092484 242.859467c-.065087-.57576.164558-1.115006.683181-1.75319.063179.53061-.162643 1.160157-.683181 1.75319z" fill="#bdbdbd"/><path d="m269.726624 197.010269c.088989.565628-.100617 1.136902-.573792 1.845917-.090668-.521591.102264-1.180939.573792-1.845917z" fill="#b0b0b0"/><path d="m119.474724 199.936798c.493904-.213837.846741-.098083 1.478905.040848.362556.438995.445793.854828.388534 1.556747-.763168-.231949-1.385834-.749984-1.867439-1.597595z" fill="#535353"/><path d="m85.900574 245.213135c.786995-.102814 1.461685.065185 1.766632.566528-.811905.309372-1.254067.285431-1.696236.261475-.060905-.18573-.121803-.37146-.070396-.828003z" fill="#535353"/><path d="m94.212967 377.906158c-.034897-.847473.308151-1.649383 1.00621-2.433929.027252.838104-.300514 1.658783-1.00621 2.433929z" fill="#bdbdbd"/><path d="m85.977097 246.351013c.436042-.285919.878204-.261978 1.653549-.275024.333183-.037003.346672-.060181.295768.252487.049614.706879.150132 1.101089.250649 1.4953 0 0-.265732.280594-.398315.424332-.686905-.433258-1.241219-1.010254-1.801651-1.897095z" fill="#bdbdbd"/><path d="m310.406128 236.083405c-.149902-.560379-.027741-1.139939.343323-1.901459.142212.506119.035461 1.194183-.343323 1.901459z" fill="#b0b0b0"/><path d="m285.946289 421.908691c-.419708-.420623-.590698-.944305-.734955-1.759765.345673.357757.664673 1.007232.734955 1.759765z" fill="#959595"/><path d="m119.504974 195.763885c-.635185-.204513-1.095955-.615142-1.580047-1.347412.569275.166001 1.161865.653641 1.580047 1.347412z" fill="#b0b0b0"/><path d="m281.318329 455.586151c-.377167.365601-.686463.400849-1.225128.472199-.070099-.682099.090606-1.38794.561279-2.092408.450073.426789.59021.852173.663849 1.620209z" fill="#888"/><path d="m138.33905 422.814117c-.62825-.271759-1.035904-.713958-1.409668-1.472259.56601.223205 1.098145.762512 1.409668 1.472259z" fill="#bdbdbd"/><path d="m112.000008 247.50206c-1.239518 1.265228-2.834786 2.382614-4.770081 3.425583 1.244759-1.240753 2.829544-2.407089 4.770081-3.425583z" fill="#535353"/><path d="m194.972137 254.604828c-1.363403.388779-3.177032.543426-5.186142.429718 1.448304-.400162 3.092118-.531998 5.186142-.429718z" fill="#535353"/><path d="m179.007812 189.483124c.352494-.975327 1.054535-1.845978 2.030365-2.788147-.377746.916595-1.029281 1.904709-2.030365 2.788147z" fill="#535353"/><path d="m204.539246 186.929657c.879791.366638 1.611526 1.020889 2.393585 1.976166-.81366-.362183-1.677658-1.025376-2.393585-1.976166z" fill="#535353"/><path d="m184.868118 253.747009c-.992065-.273864-2.007507-.912063-3.138504-1.837646.96135.29953 2.038239.886444 3.138504 1.837646z" fill="#535353"/><path d="m180.815948 250.83812c-.643051-.144288-1.282882-.623642-1.911514-1.430069.645722.146926 1.280228.620971 1.911514 1.430069z" fill="#535353"/><path d="m203.127197 251.669006c-.115814.699845-.555572 1.202683-1.252411 1.733765.138108-.624756.533295-1.27774 1.252411-1.733765z" fill="#535353"/><path d="m88.481064 247.90033c-.404518-.470765-.505036-.864975-.562706-1.561554.720581.124862 1.398308.552093 2.08419 1.313415-.400398.330948-.808944.32782-1.521484.248139z" fill="#535353"/><path d="m304.28186 193.955963c.568817.130127 1.028107.493683 1.615418 1.284058-.489655-.065689-1.10733-.558167-1.615418-1.284058z" fill="#535353"/><path d="m113.971024 245.296936c-.021698.703125-.398415 1.325745-1.051148 2.012695.048035-.654831.372086-1.374023 1.051148-2.012695z" fill="#535353"/><path d="m266.778839 439.255554c1.198761 1.336762 2.25528 2.955445 3.631439 4.639343.201813 1.214966.084015 2.364747-.033813 3.514496-.468689.062317-.937378.124604-1.406098.18689-.777923-2.68631-1.555847-5.372589-2.191528-8.340729z" fill="#888"/><g fill="#494949"><path d="m291.933289 386.728699c-.529572.151733-.957703-.089173-1.597413-.455323-.211517-1.312377-.211517-2.499481-.211517-3.686553.462769-.037568.925568-.075165 1.388336-.112763.174012 1.287354.347992 2.574707.420594 4.254639z"/><path d="m109.920181 403.92099c4.9795 1.762177 10.104775 3.811829 15.406876 6.144897-4.969147-1.763519-10.11512-3.810455-15.406876-6.144897z"/><path d="m98.058006 398.29776c3.22329 1.177399 6.442696 2.720306 9.785485 4.599945-3.18087-1.186981-6.485115-2.710693-9.785485-4.599945z"/><path d="m91.866432 392.464996c.496399-.057983.940155.247071 1.628685.675293 1.074578 1.018708 1.904373 1.914215 3.007881 2.947266.658196.528686 1.042679.91983 1.493042 1.578125-2.016838-1.434448-4.099548-3.136078-6.129608-5.200684z"/><path d="m98.036247 477.511536c-1.664352-.167969-3.372284-.71344-5.2752-1.520783 1.613892.206513 3.42276.674896 5.2752 1.520783z"/><path d="m101.098541 371.391022c-.929825 1.006683-2.213554 1.820556-3.831482 2.570343.936386-.963745 2.206986-1.863465 3.831482-2.570343z"/><path d="m114.008179 373.584564c-1.375664-.210022-2.767235-.804901-4.324036-1.679657 1.325882.245026 2.817001.769928 4.324036 1.679657z"/><path d="m120.10437 475.598633c-.938995.955047-2.218582 1.701507-3.830078 2.385498.941887-.906372 2.215683-1.750244 3.830078-2.385498z"/><path d="m117.649765 377.044189c-.692497-.088378-1.296204-.545745-2.154572-1.14215-.621772-.554322-.988883-.969666-1.411163-1.657471 1.181389.62857 2.417954 1.529571 3.565735 2.799621z"/><path d="m126.215332 411.091553c1.066261.299957 2.082901.981994 3.204712 1.961487-1.014664-.328156-2.134506-.953797-3.204712-1.961487z"/><path d="m126.063797 472.448822c-.535545.994598-1.411705 1.837067-2.602448 2.695038.544228-.938721 1.403039-1.892914 2.602448-2.695038z"/></g><path d="m188.713104 416.983734c.197464 1.408325.283249 2.411408.527481 3.374298 2.132691 8.407685 2.141114 8.40567-6.294922 8.408447-1.829116.000611-3.658218.003266-5.487335-.000457-6.312668-.012879-6.574493-.071137-5.286163-6.042633 2.585342-11.983307 5.479599-23.900025 8.273743-35.83786.14006-.59845.538757-1.136353 1.332992-2.752198 2.444397 11.49408 4.670212 21.960327 6.934204 32.850403z" fill="#e5e5e5"/><path d="m197.254669 453.769867c-2.463623-.543762-4.708893-1.976776-6.950943-1.97171-7.903183.017822-15.805237.5289-24.108414 1.026428.441483-.811737 1.263505-2.632172 2.128953-2.653107 8.588226-.207306 17.188079-.247894 25.771774.043274 1.162414.039459 2.254043 2.165497 3.15863 3.555115z" fill="#646464"/><path d="m332.002777 186.003632c13.354767-.222245 10.63443-1.314576 10.800598 10.56781.174317 12.467209-.154205 24.943344.1409 37.406006.106995 4.518692-1.805328 5.225982-5.628021 5.168838-3.507935-.052429-5.484955-.453842-5.407166-4.829651.280579-15.789139.16568-31.585327.149048-47.845047-.051086-.466217-.058136-.471588-.055359-.467956z" fill="#0f0f0f"/></svg>