<svg enable-background="new 0 0 304 592" viewBox="0 0 304 592" xmlns="http://www.w3.org/2000/svg"><path d="m63.346237 276.49704c6.796547 27.777038 12.631943 55.38858 16.59391 83.380707.47828 3.37918-.522194 4.593902-3.846519 4.510376-4.996582-.125641-9.999024-.075867-14.998077-.020325-2.476159.027466-3.996232-.608704-4.388051-3.486115-4.17451-30.656585-11.489791-60.719574-17.387767-91.051025-.800049-4.11441-.26941-7.946198 1.007854-11.767761 1.844433-5.518601 5.053478-7.925019 10.921131-7.310807 11.264256 1.179078 22.559426 1.731385 33.853005 2.442276 31.373169 1.974854 62.088112-.995574 92.101585-10.827331 34.393677-11.266647 65.501923-28.380173 93.583161-51.140244 7.529052-6.10234 7.613739-5.997879 14.768035.319245 9.459961 8.353027 9.515412 8.409225.470673 17.333679-21.459778 21.174301-47.239182 35.380371-75.058624 46.237061-23.377259 9.123092-47.652283 14.484268-72.565964 17.12001-.618607.06543-1.225983.236999-2.346802.460327 3.071472 3.160126 6.977524 3.814972 10.216019 5.604919 18.064621 9.984406 33.260269 23.840851 49.409088 36.401307 15.978226 12.427765 32.554611 23.774139 52.018082 30.130645 3.36679 1.099549 4.116958 2.684937 2.335907 5.822541-2.300644 4.052948-4.494599 8.189026-6.386963 12.443878-1.488083 3.345825-3.655716 3.713013-6.836334 2.845611-15.381684-4.194793-28.542908-12.60971-41.395112-21.609314-15.036041-10.528778-28.399993-23.122009-42.625823-34.651153-24.834092-20.126526-52.28505-34.250733-84.907578-35.967438-1.418236-.074646-5.305546-2.462524-4.534836 2.778931z"/></svg>