<svg enable-background="new 0 0 316 592" viewBox="0 0 316 592" xmlns="http://www.w3.org/2000/svg"><path d="m175 593c-58.317429 0-116.134857 0-173.976142 0 0-197.263153 0-394.526321 0-591.894738h315.82743v591.894738c-47.044373 0-94.19783 0-141.851288 0m-89.051567-399.264725c.34452 1.924042.689049 3.848099.989494 5.525986h11.660424c-1.549027-10.033936-3.031525-19.636932-4.76561-30.869614 5.237961 2.413773 9.742279 3.75174 13.383674 6.315384 8.554108 6.022446 16.511681 12.893433 25.078171 18.896576 4.619965 3.237549 9.996323 5.395661 15.17482 8.116104 2.493805-4.399292 4.354096-7.680984 5.69426-10.045135-11.832947-7.739746-23.30455-15.243134-35.895645-23.478775 19.599777-4.565582 36.844543-10.235016 50.06607-24.952774-2.779175-2.588776-5.435959-5.063538-8.07547-7.522202-.379654.085144-.750442.077683-1.009887.243958-.696442.446304-1.376603.929809-2.008423 1.46344-19.397019 16.383041-41.528839 23.767929-66.983811 20.741195-6.843345-.813705-9.052871 1.738617-7.967323 8.696198 1.357513 8.700699 3.043571 17.350159 4.659256 26.869659z" fill="#fff"/><path d="m85.912704 193.31131c-1.579956-9.095535-3.266014-17.744995-4.623527-26.445694-1.085548-6.957581 1.123978-9.509903 7.967323-8.696198 25.454972 3.026734 47.586792-4.358154 66.983811-20.741195.63182-.533631 1.311981-1.017136 2.008423-1.46344.259445-.166275.630233-.158814 1.009887-.243958 2.639511 2.458664 5.296295 4.933426 8.07547 7.522202-13.221527 14.717758-30.466293 20.387192-50.06607 24.952774 12.591095 8.235641 24.062698 15.739029 35.895645 23.478775-1.340164 2.364151-3.200455 5.645843-5.69426 10.045135-5.178497-2.720443-10.554855-4.878555-15.17482-8.116104-8.56649-6.003143-16.524063-12.87413-25.078171-18.896576-3.641395-2.563644-8.145713-3.901611-13.383674-6.315384 1.734085 11.232682 3.216583 20.835678 4.76561 30.869614-4.054215 0-7.607575 0-11.660424 0-.300445-1.677887-.644974-3.601944-1.025223-5.949951z" fill="#050505"/></svg>