<svg enable-background="new 0 0 316 592" viewBox="0 0 316 592" xmlns="http://www.w3.org/2000/svg"><path d="m118 593c-39.322647 0-78.14529 0-116.983966 0 0-197.268341 0-394.536652 0-591.902491h315.842975v591.902491c-66.062271 0-132.210648 0-198.859009 0m34.500031-355.956116c-13.748383-.442718-27.49675-.885437-41.442513-1.334503v21.122131c1.755783.383179 3.490639 1.034119 5.248131 1.102448 14.801697.575348 29.608246 1.468262 44.411957 1.443237 20.983062-.035492 41.966003-1.134643 62.94693-1.073303 12.889556.037659 23.912918 4.312439 28.732162 17.943146 4.84906 13.715027 6.709351 27.912262 5.18338 42.268036-1.689285 15.892425-7.551376 21.200836-23.595688 21.843292-14.634964.585998-29.306259.353912-43.961303.331085-34.980744-.054535-69.962655-.054077-104.94143-.370209-16.125717-.14566-31.572528-2.791778-42.997108-16.536499-4.59911 5.178986-8.971344 9.935425-13.084368 14.906372-.649566.785065-.697538 3.076386-.054973 3.757843 4.049398 4.29422 7.829565 9.183808 12.70931 12.287995 13.303806 8.462982 28.593582 9.192749 43.797768 9.228271 46.643493.108979 93.287475.072113 139.931091-.005035 5.314438-.00882 10.656143-.392151 15.936844-1.013123 22.503082-2.645965 34.685333-14.634369 37.798096-36.976257 2.496856-17.921356.589965-35.623321-3.79953-52.962524-6.306427-24.911301-20.726517-36.613434-46.379074-36.940583-25.138306-.320572-50.292481.601548-76.439682.97818z" fill="#fff"/><path d="m153.000031 237.043915c25.647201-.376663 50.801376-1.298783 75.939682-.978211 25.652557.327149 40.072647 12.029282 46.379074 36.940583 4.389495 17.339203 6.296386 35.041168 3.79953 52.962524-3.112763 22.341888-15.295014 34.330292-37.798096 36.976257-5.280701.620972-10.622406 1.004303-15.936844 1.013123-46.643616.077148-93.287598.114014-139.931091.005035-15.204186-.035522-30.493962-.765289-43.797768-9.228271-4.879745-3.104187-8.659912-7.993775-12.70931-12.287995-.642565-.681457-.594593-2.972778.054973-3.757843 4.113024-4.970947 8.485258-9.727386 13.084368-14.906372 11.42458 13.744721 26.871391 16.390839 42.997108 16.536499 34.978775.316132 69.960686.315674 104.94143.370209 14.655044.022827 29.326339.254913 43.961303-.331085 16.044312-.642456 21.906403-5.950867 23.595688-21.843292 1.525971-14.355774-.33432-28.553009-5.18338-42.268036-4.819244-13.630707-15.842606-17.905487-28.732162-17.943146-20.980927-.06134-41.963868 1.037811-62.94693 1.073303-14.803711.025025-29.61026-.867889-44.411957-1.443237-1.757492-.068329-3.492348-.719269-5.248131-1.102448 0-7.39772 0-14.503494 0-21.122131 13.945763.449066 27.69413.891785 41.942513 1.334534z" fill="#020202"/></svg>