<svg enable-background="new 0 0 464 592" viewBox="0 0 464 592" xmlns="http://www.w3.org/2000/svg"><path d="m199.888184 229.069824c-2.288269-3.281585-4.373734-6.26918-6.841416-9.804306 6.496948-4.575867 13.248718-8.049911 19.911652-11.626037 2.537338-1.361817 3.424484 1.304184 4.545578 2.766128 12.771622 16.654633 25.292312 33.505707 38.268295 49.99884 42.731705 54.313996 88.969559 105.365967 141.184311 150.815796 19.743103 17.185181 40.1745 33.481934 61.776855 48.285309 1.344544.921356 2.898774 1.631043 3.977204 3.694763-4.017822 5.277222-8.05777 10.724854-12.260834 16.04361-2.057922 2.604126-3.800537.478485-5.496307-.752106-15.505158-11.252105-31.087525-22.389709-47.162598-32.826355-44.910339-29.157837-93.034851-51.092224-144.990799-64.315429-21.448654-5.458832-43.220077-9.054535-65.291702-11.171387-33.159073-3.180298-66.190132-.96582-99.232048 1.379669-3.600716.255646-4.805275-.877167-5.366669-3.960205-.833938-4.579681-1.640549-9.17276-2.733627-13.693695-.676087-2.796295.14711-3.808929 2.93515-4.383972 10.792084-2.225952 21.761986-2.747345 32.685409-3.644623 23.283181-1.912476 46.605523-1.611023 69.874047-.022308 53.992782 3.686493 105.223205 17.294769 152.798981 43.595977 1.27536.705079 2.616241 1.291718 4.124206 1.691529-54.948212-47.414337-99.281387-104.106476-142.705688-162.071198z"/><path d="m192.040985 319.950989c-5.197952-7.033905-5.807251-17.920838-1.639297-24.739197 2.902038-4.747498 10.278015-6.947723 17.536117-5.231049 5.737534 1.357026 9.759735 5.983582 10.354828 11.980774.147492 1.48642.144928 2.987702.212586 4.482087.297058 6.56137-1.197037 12.519012-7.522599 15.605407-6.380493 3.113251-12.869232 3.04834-18.941635-2.098022z"/></svg>