<svg enable-background="new 0 0 304 592" viewBox="0 0 304 592" xmlns="http://www.w3.org/2000/svg"><path d="m98.038956 258.424866c-10.322884-.061798-9.289452.700287-9.36615-8.907761-.023949-2.999542.228241-6.021576-.056458-8.994018-.433342-4.524445 1.613755-5.690339 5.820915-5.667099 24.997056.138031 49.996285-.058426 74.992516.141632 11.910416.095321 22.939529 2.556732 29.354034 14.292144 3.041993 5.5654 3.586457 11.747467 4.404328 17.804139 4.378723 32.426422 8.551071 64.880706 12.909103 97.309997.542221 4.034699-.374237 5.996735-4.818054 5.756989-4.486816-.242096-8.997345-.125214-13.495483-.04776-2.987351.051422-4.610642-1.109223-5.019364-4.224854-3.328903-25.376465-6.715896-50.745392-10.123428-76.111481-.951431-7.08258-1.900635-14.169921-3.090607-21.214599-1.008438-5.970001-3.953552-8.479096-10.069992-9.308136-4.466476-.605438-8.939209-.874298-13.451584-.860779-19.164856.057343-38.329979.028748-57.989776.031586z"/><path d="m142.798279 300.679565c6.836883.467987 11.651489 3.218384 13.408798 9.693055 2.078384 7.657592 2.436173 15.426452-3.644272 21.460418-5.052673 5.014038-11.628601 5.311402-18.140594 2.906159-7.036476-2.598938-10.341133-11.121979-8.554932-21.333008 1.460251-8.347687 5.970596-12.4552 13.995468-12.73291.828995-.028656 1.659882-.002167 2.935532.006286z"/></svg>