<svg enable-background="new 0 0 304 592" viewBox="0 0 304 592" xmlns="http://www.w3.org/2000/svg"><path d="m119.999886 258.435547c-9.166352-.005951-17.835015-.13205-26.497902.037414-3.719872.072754-5.035294-1.374878-4.876084-5.000473.204544-4.657547.16507-9.334442.013596-13.995956-.102707-3.160965 1.100098-4.61586 4.326492-4.566406 28.314644.43396 56.65361-1.020096 84.945328.827133 13.006424.849213 22.395416 10.379547 24.294678 24.463364 3.862701 28.643554 7.469696 57.321563 11.21849 85.980621.796967 6.09256 1.63443 12.184509 2.670929 18.239471.691513 4.039582-.410202 5.980347-4.833999 5.740845-4.486969-.242859-8.997727-.125275-13.496109-.049469-2.99263.050415-4.598145-1.126221-5.006012-4.239014-3.325547-25.380096-6.711396-50.752319-10.117951-76.121734-.951172-7.083649-1.899933-14.172364-3.095154-21.217133-1.011245-5.960327-3.949829-8.569732-10.098343-9.256439-16.285949-1.818878-32.63359-.43457-49.447959-.842224z"/></svg>