<svg enable-background="new 0 0 304 592" viewBox="0 0 304 592" xmlns="http://www.w3.org/2000/svg"><path d="m251.427887 285.590881c-5.168716-20.524749-15.480759-28.797119-36.271622-29.357727-10.664612-.287567-21.277069.128235-31.867401 1.69632-3.564865.527832-5.070846 2.033478-6.057281 5.320709-9.65889 32.187714-19.549179 64.306336-29.110993 96.522553-1.481399 4.991211-3.273102 7.503814-8.852554 5.647003-3.120072-1.03833-6.497833-1.507721-9.795426-1.755493-4.161254-.312745-4.393173-2.392823-3.448074-5.717316 3.638138-12.797669 7.149002-25.631439 10.723953-38.447144 5.183289-18.581329 10.39087-37.155914 15.554596-55.742675.434662-1.564576.616227-3.199463.940308-4.935151-5.807083-2.80249-11.936157-2.712768-17.779907-3.06694-14.779839-.895798-29.596955-1.429367-44.176758 2.451553-19.18988 5.108094-29.086735 18.093567-30.18111 37.77353-1.238236 22.266906 9.385776 36.587249 28.306659 46.150878 2.227425 1.125885 4.457314 2.248261 6.65609 3.428162.406601.218201.669174.704804 1.372742 1.480377-2.93869 5.769928-5.979019 11.654907-8.931305 17.58374-.979805 1.967713-2.396843 2.085511-4.141617 1.339448-19.677383-8.413514-35.999764-20.398652-42.94064-41.776581-5.306732-16.344727-6.245719-33.142151-1.176929-49.582794 7.492203-24.30095 26.090874-36.029664 49.797676-40.841721 16.826241-3.415451 33.766678-2.176895 50.69928-.344162 18.589065 2.011978 37.171173 1.934494 55.77858-.348206 12.925369-1.585662 25.939682-1.673233 38.643676 1.799164 17.680878 4.832688 29.745819 16.073258 35.663269 33.36615 6.491181 18.969513 7.520111 38.4823 3.330384 58.061859-4.431305 20.708252-20.814392 34.750702-41.867493 37.157562-5.988663.684662-11.935883.82782-17.925674.860138-3.337082.018036-4.943909-1.350097-4.686295-4.810882.382935-5.144257.779617-10.293762.9151-15.447754.080811-3.075012 1.205216-4.123352 4.297577-3.67215 5.676941.828339 11.369354-.127807 16.877426-1.146942 13.033447-2.411438 20.210419-12.313324 20.882904-27.849304.367615-8.492279.497971-16.980286-1.229141-25.796204z"/></svg>