<svg enable-background="new 0 0 304 592" viewBox="0 0 304 592" xmlns="http://www.w3.org/2000/svg"><path d="m155.920883 256.16748c-26.004181-1.38533-45.65966 21.549073-46.771622 45.359192-1.376068 29.46521 16.966576 40.714661 40.257218 42.088013 8.498001.501129 16.997635.137482 25.269531-2.171661 2.519135-.703217 4.105591-.431061 4.94072 2.356323 1.432495 4.781128 3.098434 9.491852 4.621505 14.24649.692963 2.163269.47197 3.863282-2.181442 4.595429-26.390274 7.281647-52.183578 7.914795-75.502685-8.903931-14.31839-10.327026-19.977555-25.414306-21.072304-42.823791-1.474739-23.452393 6.125854-43.347412 22.603622-59.606354 20.489006-20.216873 45.099343-23.762528 71.605217-14.775116 14.755234 5.003082 22.879608 17.108459 28.576691 30.997894 6.990616 17.043091 10.400696 35.043946 13.976868 52.969055 2.662948 13.347657 4.689544 26.824097 6.894729 40.260437.987763 6.018586.45488 6.518921-5.737472 6.539612-3.666001.012238-7.354065-.259674-10.992584.054718-4.462464.38559-6.075028-1.516327-6.781662-5.795623-3.655243-22.135529-7.222229-44.295899-12.906174-66.04004-1.644791-6.292236-3.65892-12.444763-6.060974-18.490356-5.455033-13.729553-15.294785-20.987671-30.739182-20.860291z"/></svg>