<svg enable-background="new 0 0 304 592" viewBox="0 0 304 592" xmlns="http://www.w3.org/2000/svg"><path d="m167.0755 284.227234c2.612443 17.670196 5.232392 34.89621 7.629029 52.15329 1.621536 11.675903 2.905517 23.398407 4.393554 35.093353.361222 2.83902-.811187 3.977447-3.590316 3.940979-5.327942-.069977-10.65741-.056335-15.986023-.03125-2.418137.011383-3.559265-1.038757-3.846375-3.522553-3.032501-26.235809-6.939911-52.352172-11.031402-78.43814-2.59874-16.568848-5.435166-33.103852-8.459534-49.600052-.749191-4.086319-.396179-6.310456 4.313889-6.605454 4.799194-.300583 9.580307-.98732 14.348114-1.656082 2.908218-.407928 4.096542.536179 4.582077 3.577469 2.38005 14.908142 5.014724 29.775635 7.646987 45.08844z"/></svg>