<svg enable-background="new 0 0 304 592" viewBox="0 0 304 592" xmlns="http://www.w3.org/2000/svg"><path d="m234.113586 270.144592c5.091355 17.391388 7.714768 34.812561 7.996582 52.477692.18306 11.47464-1.673217 22.720459-10.962753 31.01181-6.952453 6.205475-15.426224 9.313385-24.485946 10.289734-11.326355 1.220673-22.615448.556244-33.559128-3.124756-4.177368-1.40506-7.810273-3.75177-11.117127-6.564422-1.782272-1.515961-3.016296-1.680329-5.19574-.393219-25.723709 15.191772-51.499557 14.44516-77.071754-.369385-5.389595-3.122315-9.607689-7.638825-12.670647-13.181946-1.341461-2.427612-1.155243-4.247009.963913-6.129333 2.986771-2.653046 5.875862-5.432679 8.628754-8.327393 2.498772-2.627502 4.323563-2.142731 6.456917.511444 7.442833 9.259827 17.793052 12.482636 29.076584 13.2966 9.684013.698578 19.332939.259919 28.530357-3.318908 6.986603-2.718567 7.295502-4.057892 5.293152-11.118805-5.005982-17.652435-8.482514-35.578247-8.335526-54.036041.056198-7.057618 3.034424-10.50824 9.778534-11.60669 6.862061-1.117645 10.561859 1.052185 13.019867 7.765991 4.270905 11.665558 5.416306 23.93982 6.845154 36.142273.850067 7.259491 1.17157 14.584748 2.145889 21.824555.723603 5.3768 4.251099 9.22821 9.12529 11.06195 12.045761 4.531678 24.385269 5.043335 36.63916.768372 5.476227-1.910461 6.635758-4.905945 5.085572-10.401184-4.881607-17.304779-8.655732-34.838257-10.394471-52.757385-1.116271-11.503998 7.598588-18.542817 17.376587-14.237152 4.416947 1.944976 5.113526 6.265411 6.83078 10.416198z"/></svg>