<svg enable-background="new 0 0 304 592" viewBox="0 0 304 592" xmlns="http://www.w3.org/2000/svg"><path d="m137.269592 215.84346c10.326081 26.396469 20.498551 52.439163 30.677246 78.479477 5.509827 14.095917 11.043396 28.182587 16.533997 42.286011 1.012039 2.599518 2.459747 3.860565 5.586456 3.773224 32.317398-.902771 64.633515.501953 96.95163.172058 4.238098-.043244 5.30368 1.745544 5.404022 5.700989.576264 22.710784-6.218323 43.708343-15.021362 64.135314-7.80893 18.120209-17.830231 34.997437-30.742127 50.05597-12.121215 14.136444-29.015106 13.267975-39.325256-2.222626-8.744339-13.138001-13.804703-28.002533-19.5522-42.534149-6.057251-15.314697-12.16951-30.608856-18.050003-45.991425-1.536652-4.019623-3.790955-5.462097-8.168167-5.437042-30.491456.174622-60.985642.221924-91.476426-.014709-11.567196-.089753-22.829219-2.196595-33.127735-8.007966-5.842008-3.2966-10.042221-8.114196-13.510383-13.724426-1.675839-2.710907-1.441666-4.842407 1.10662-6.947174 3.33589-2.755279 6.476532-5.749237 9.665829-8.678955 2.149597-1.97464 4.063984-1.850586 5.995571.343475 8.217671 9.334198 19.057427 11.95401 30.939953 12.53479 28.46904 1.391602 56.947174.594422 85.420929.743042.787659.00409 1.576828-.278991 2.733337-.497802-.435134-5.071045-2.885192-9.284699-4.573013-13.644196-21.329834-55.093323-42.770264-110.143936-64.310989-165.155106-1.640717-4.190109-1.063095-6.435043 3.401085-7.74118 3.823135-1.118576 7.61795-2.494125 11.20623-4.213242 4.143669-1.985198 6.20945-.9393 7.815239 3.331849 6.034225 16.050018 12.353584 31.992797 18.553596 47.98059 1.925385 4.964905 3.811066 9.945191 5.865921 15.273209m105.483795 212.455765c10.369843-18.479798 19.702332-37.41626 25.242493-57.992096 1.433502-5.323883.952576-5.928009-4.316559-5.934387-21.491974-.02591-42.983978-.024201-64.475937.00534-5.29515.007263-5.628189.572541-3.734069 5.412995 5.697082 14.559051 11.291122 29.15924 17.102508 43.672454 4.075501 10.178101 7.637665 20.590668 13.43454 30.018677 2.121597 3.450562 3.991577 3.388947 6.422577.402344 3.802292-4.671265 6.935913-9.772095 10.324447-15.585327z"/></svg>