<svg enable-background="new 0 0 304 592" viewBox="0 0 304 592" xmlns="http://www.w3.org/2000/svg"><path d="m139.348999 317.252258c-3.003036-7.707672-1.941467-13.027618 3.017731-16.421356 5.932602-4.059906 12.67015-3.581055 18.065887 2.092102 9.176621 9.648377 14.475418 21.499787 17.257157 34.343933 5.030593 23.2276-.133271 44.159119-15.318772 62.507172-1.358017 1.640808-3.055252 3.077515-4.811432 4.297302-4.626678 3.213501-10.503936 3.037262-14.91568-.241516-3.917022-2.911072-5.218444-7.975464-3.433426-13.570007 1.344895-4.215088 4.139557-7.566132 6.773545-10.984589 4.078369-5.29303 7.554992-10.906769 10.317428-17.017395 2.10167-4.649017 2.392929-9.059631.531861-13.876862-2.712738-7.021667-6.02359-13.676574-10.27446-19.889495-2.438049-3.563324-4.686417-7.25644-7.209839-11.239289z"/></svg>