<svg enable-background="new 0 0 304 592" viewBox="0 0 304 592" xmlns="http://www.w3.org/2000/svg"><path d="m305 468.533875c-4.32312 1.678405-8.737122 2.642761-12.939667 4.183837-3.187652 1.168885-4.515686.113953-5.579315-2.747985-7.528992-20.257904-14.81366-40.615082-22.796753-60.693909-15.856201-39.881134-31.43164-79.922363-54.385101-116.500092-2.481659-3.95462-5.197052-7.747009-8.461655-11.112457-11.579742-11.937439-26.949982-8.613403-32.560211 7.052216-4.069168 11.362426-4.547623 23.438293-6.930664 35.136535-1.531098 7.515991-3.298325 14.985749-6.503998 21.961304-9.327316 20.296204-24.823822 25.900665-44.180405 24.83255-31.239486-1.723846-49.280353-20.794006-59.758415-48.278564-8.131737-21.330018-10.081848-43.469239-4.100612-65.677887 3.59225-13.338196 2.639072-11.385147 13.541187-7.103806 9.813576 3.853836 9.499237 3.914017 8.022705 14.340897-3.338333 23.574249-1.210861 46.202026 13.033432 66.334228 7.951515 11.238281 18.655388 17.142151 32.740402 16.549744 11.550286-.485779 18.605011-5.439636 22.562409-16.274658 3.748138-10.262085 4.240112-21.122406 6.02745-31.747376 2.31601-13.767578 6.086746-26.92865 16.06633-37.418548 13.046051-13.713196 39.20192-12.929779 52.332703-2.111237 11.046188 9.101013 18.701462 20.739502 25.529648 32.953522 21.827255 39.043823 37.84526 80.660614 53.589737 122.381317 4.872711 12.912048 9.557006 25.895233 14.539184 39.12616.211609 4.969574.211609 9.658844.211609 14.814209z"/></svg>