<svg enable-background="new 0 0 304 592" viewBox="0 0 304 592" xmlns="http://www.w3.org/2000/svg"><path d="m202.433136 308.434235c-18.156967-52.972855-37.950974-104.921509-57.945663-156.792435-1.77681-4.609482-1.55478-6.848801 3.580123-8.226837 4.472489-1.200257 8.798462-3.105194 13.006028-5.087464 3.924438-1.848877 5.24617.026383 6.46347 3.329712 7.998093 21.704392 16.200272 43.333832 24.1539 65.054337 13.444931 36.716614 26.855713 73.448822 39.087021 110.592621 3.275574 9.947204 6.040527 20.037597 5.609284 30.750946-.438462 10.8927-5.617127 16.27716-16.416123 16.282135-32.319275.014831-64.639068.102142-96.95755-.059937-12.912903-.064758-25.633675-1.488922-36.672249-9.229187-5.114227-3.58609-9.291115-8.034637-12.362945-13.528076-1.318787-2.358429-1.454293-4.175384.848877-6.083466 3.845649-3.185821 7.547287-6.55307 11.19944-9.961914 2.084236-1.945373 3.710746-1.724853 5.359123.467713 7.612686 10.125763 18.625046 13.362335 30.381126 13.554596 29.146683.476654 58.304077.302643 87.457199.366943.79361.00174 1.587815-.260528 2.933915-.49646-2.430497-10.620422-6.430924-20.466492-9.724976-30.933227z"/></svg>