<svg enable-background="new 0 0 304 592" viewBox="0 0 304 592" xmlns="http://www.w3.org/2000/svg"><path d="m122.931252 236.833405c18.720253 1.905044 36.956504 1.771011 55.274925.340576 16.353943-1.277054 32.655334-3.950333 49.233063-.958344 22.227111 4.011597 35.264404 16.775269 39.326263 38.755982 3.311798 17.921966 4.513519 35.964904.791199 53.985687-3.902375 18.892792-14.953827 30.867798-34.436753 33.975708-12.882187 2.054962-25.896667 2.434662-38.78952.43866-17.539291-2.715271-27.590774-10.260956-36.242386-26.362397-1.24974 1.768311-1.465957 3.654328-1.959961 5.461823-6.285431 22.996887-18.836899 42.474762-34.163002 60.340973-4.333114 5.051239-9.121635 9.709198-13.577759 14.658752-2.070732 2.300019-3.87136 2.686585-6.280357.454804-2.684059-2.486634-5.495857-4.875611-8.47641-6.990967-3.173141-2.251984-2.892967-4.059021-.392593-6.76416 12.822349-13.872406 24.136734-28.843964 33.004875-45.614868 10.985786-20.775605 16.898521-42.910584 18.545876-66.28595.709289-10.064911 1.660507-20.112763 2.530899-30.516022-6.987503-.48349-13.588425-.923523-20.186722-1.39978-25.786865-1.861023-51.205521-5.809525-75.962128-13.474823-1.747085-.540955-3.424896-1.307739-5.175468-1.834854-4.1083-1.237015-5.074284-3.607956-3.359009-7.580002 1.911217-4.425797 3.473381-9.007645 5.063412-13.56485.963218-2.760742 2.484073-3.56839 5.326328-2.51329 17.847679 6.625503 36.334381 10.754669 55.087692 13.754684 4.75341.760407 9.572334 1.111298 14.817536 1.692658m51.916954 86.8031c6.290069 10.705048 15.890716 15.736908 28.060424 16.069611 7.14589.195373 14.305909.16394 21.452591-.026825 11.285858-.30127 17.749955-5.192444 20.229386-16.240174 3.761276-16.759307 2.188614-33.394165-3.224213-49.571991-2.288788-6.840698-7.69693-11.172088-14.533066-13.396789-4.597763-1.496216-9.388031-2.155792-14.247741-2.121399-13.316132.094269-26.474427 2.273804-39.741944 3.00354-2.57344.14151-3.230758 1.730469-3.522507 3.960266-1.625213 12.420654-1.602508 24.901428-.815338 37.341309.449585 7.105102 1.973542 14.162903 6.342408 20.982452z"/></svg>