<svg enable-background="new 0 0 464 592" viewBox="0 0 464 592" xmlns="http://www.w3.org/2000/svg"><path d="m407.569702 421.293335c15.519928 4.041382 30.621216 8.079834 45.805603 11.777252 4.069061.990845 5.257782 2.637543 3.769409 6.545105-1.300384 3.414154-2.631866 6.891602-3.274414 10.462586-.840027 4.668365-3.218506 4.686431-7.073608 3.745269-66.752197-16.296447-132.446259-36.215667-197.788544-57.374359-25.149582-8.143768-50.415176-15.937195-75.128296-25.353241-7.749267-2.952514-15.626663-5.753479-22.496856-10.611755-6.520829-4.611206-8.676239-12.095459-5.473664-18.855042 2.822098-5.956512 8.825913-8.184692 16.65773-6.13861 10.696488 2.794433 20.555512 7.735107 30.422638 12.47763 40.338883 19.388489 83.053116 32.352814 125.266587 46.648804 29.30899 9.925781 58.993713 18.669067 89.313415 26.676361z"/></svg>