<svg enable-background="new 0 0 304 592" viewBox="0 0 304 592" xmlns="http://www.w3.org/2000/svg"><path d="m122.000076 364.35553c-13.529655.256286-26.49675-.25882-39.020111-4.305786-23.078048-7.457764-34.316963-24.713288-38.144596-47.498322-2.810287-16.728973-1.473949-33.196625 5.806606-48.828705 10.32502-22.168869 33.60196-34.780624 57.987557-32.347229 24.318146 2.426682 41.235809 14.444931 50.927124 36.80307.380096.876862 1.011063 1.644989 1.932358 3.112458 3.894287-7.161805 7.370544-13.886383 12.668762-19.488816 22.32756-23.609741 68.025223-26.525589 87.138824 10.655197 11.814881 22.982911 11.975159 47.242127 3.354004 71.219025-5.570007 15.491089-18.746109 22.869354-34.05339 26.423798-13.821793 3.209503-27.921433 4.283722-42.115082 4.246673-21.993897-.057403-43.988083-.000183-66.482056.008637m-18.439705-109.96016c-12.225227.487473-22.226616 5.29509-29.230354 15.499863-4.865509 7.089295-6.248917 15.349945-6.785438 23.689087-1.32943 20.663727 6.966613 38.708069 30.000251 44.220886 15.938256 3.814637 32.129807 1.473481 48.201187 2.030854 2.894547.100372 3.089829-2.047028 2.757737-4.185975-.923996-5.951049-.617462-11.951538-.874665-17.92984-.40744-9.471069-1.399521-18.879577-3.954071-28.050628-6.196182-22.244843-19.187584-33.904908-40.114647-35.274247m73.430718 28.079819c-2.182266 4.142151-3.738175 8.491181-4.757218 13.077271-3.046981 13.712677-.998474 27.511169-.866378 41.277862.027527 2.868408 2.036895 3.066529 4.145096 3.043396 13.962768-.153198 27.975036.863282 41.859893-1.290039 13.185364-2.044769 23.943665-7.530273 27.472138-21.715301 3.661453-14.719666 2.28862-29.009461-4.605103-42.650757-5.829223-11.534912-15.342376-16.832123-28.063995-15.886597-15.966202 1.186615-27.061356 9.974335-35.184433 24.144165z"/></svg>