<svg enable-background="new 0 0 304 592" viewBox="0 0 304 592" xmlns="http://www.w3.org/2000/svg"><path d="m131.56311 283.410828c-8.328888-9.996552-16.005592-20.043213-23.405861-30.314011-2.309204-3.204941-1.947479-5.06543 1.405816-7.096954 4.263969-2.583237 8.31427-5.536835 12.338523-8.491669 2.54699-1.870194 4.150063-1.609177 6.094864 1.054306 10.898003 14.925247 22.304772 29.457214 34.93467 42.974274 17.658096 18.898376 36.281875 36.684845 59.321365 49.045776 10.080383 5.408234 21.044159 7.983978 32.407318 9.165924 8.801102.915466 17.608475 1.086884 26.422715.872955 3.806884-.092407 5.015991 1.52356 4.904693 5.035096-.126587 3.993103.022736 7.994171-.004761 11.991363-.046051 6.695801-.065002 6.707306-6.63916 6.707855-40.975296.003418-81.950607.007172-122.925903-.00122-26.817078-.005463-53.636437.169281-80.450226-.136017-12.593578-.143372-24.879948-2.280182-35.321194-10.237061-4.419616-3.368072-7.923458-7.550628-10.778772-12.328796-1.329767-2.225311-1.323147-3.899841.781332-5.634613 3.721664-3.067932 7.369976-6.231262 10.937817-9.476868 2.013881-1.832001 3.513504-1.952209 5.330318.336945 7.154598 9.01474 16.968678 12.186096 28.065338 12.893982 31.446816 2.006134 62.923012.367859 94.380699.936187 8.306153.150055 16.576218 1.548798 25.336594.258454-23.549301-16.332611-44.415405-35.52414-63.136185-57.555908z"/></svg>