<svg enable-background="new 0 0 304 592" viewBox="0 0 304 592" xmlns="http://www.w3.org/2000/svg"><path d="m216.42099 300.622131c-19.877945 3.732941-39.371185 4.67923-58.929428.790894-24.34848-4.840698-36.030121-18.792511-35.693054-43.630585.309478-22.804733 9.9104-40.873138 29.484771-52.963653 21.071381-13.015198 56.750779-10.889069 74.38295 19.067718 10.466614 17.782623 17.618454 36.964478 24.563706 56.217224 5.922348 16.417237 12.006729 32.830597 15.526199 50.011017 1.354736 6.61319 1.369049 13.235382-.589355 19.733734-2.659913 8.826264-9.648133 14.39801-18.848359 14.413422-52.164917.087372-104.332336.289154-156.493843-.148377-15.681213-.131561-30.388534-4.35202-40.619095-17.815948-.704952-.927765-1.315052-1.929779-2.046405-2.834931-2.955349-3.657714-2.773239-6.638763 1.292617-9.559143 3.365761-2.417511 6.332108-5.406738 9.380429-8.24472 1.903198-1.771851 3.570843-2.324829 5.376159.077148 8.108628 10.788544 19.816124 13.755829 32.300576 13.83432 47.663292.299805 95.328865.224122 142.993324.375885 4.12056.013123 5.631836-.842132 4.539948-5.487518-2.711701-11.536835-6.572052-22.690613-10.248276-33.917724-.832077-2.541138-2.012421-3.449036-4.789322-2.602814-3.646759 1.111267-7.441162 1.737945-11.583542 2.684051m-69.243088-54.888916c-.457626 1.767395-.978637 3.521164-1.362625 5.304413-2.637802 12.249817 3.38176 22.661957 15.266525 26.636597 4.297455 1.437225 8.731476 2.113891 13.191025 2.508942 15.363083 1.360992 30.543778.097534 45.538208-3.504761 2.516907-.604645 3.246262-1.977753 2.318543-4.397583-5.186112-13.527497-10.089692-27.230286-19.0654-38.850952-9.963302-12.899308-28.221832-15.997193-41.049896-7.011536-6.667602 4.670486-11.638275 10.887283-14.83638 19.31488z"/></svg>