<svg enable-background="new 0 0 304 592" viewBox="0 0 304 592" xmlns="http://www.w3.org/2000/svg"><path d="m158.729919 273.980042c-.353286-3.262574.764039-4.895691 3.698578-5.18628 3.308762-.327667 6.624131-.640594 9.909439-1.139038 3.664277-.55603 5.527039.264099 6.499131 4.479065 2.252319 9.766022 10.811462 15.418427 20.020004 14.098389 12.799255-1.834778 20.015213-12.365662 17.49118-25.223419-1.558731-7.940461-5.895889-14.010773-12.963791-17.391358-17.762863-8.495987-35.426528-8.75621-51.951812 3.140793-13.462632 9.692093-18.044419 28.101639-12.49556 47.623764 5.233673 18.413239 18.920822 28.337646 35.529541 35.236908 16.523926 6.864014 33.997345 9.149292 51.672836 9.979919 10.14505.476685 20.324433.213013 30.488129.306946 6.049072.055908 6.397583.5401 6.026154 6.753693-.208558 3.488342-.188141 6.992065-.215119 10.489288-.055572 7.210968-.040222 7.213196-7.024063 7.213867-5.33223.00055-10.664474-.006103-15.996704-.007812-45.657227-.014496-91.315018.092163-136.971314-.120606-12.737609-.059387-25.222854-2.119415-36.51622-8.676788-5.252964-3.050018-9.855213-6.828003-12.943523-12.181457-.830204-1.439087-1.855019-3.025177-.664002-4.648682 4.20525-5.732239 8.510956-11.390717 12.510441-16.719879 1.879059.069427 2.634819.773834 3.21782 1.572845 8.311897 11.391236 20.42852 15.006958 33.580345 15.950928 13.452621.965576 26.9841-.140595 40.44844 1.052673.414948.036774.857865-.241852 1.749817-.514862-22.920601-13.752991-30.30851-35.503601-30.87397-59.957672-.969581-41.930893 33.011818-71.291733 74.647652-65.69603 19.749267 2.654221 35.949096 10.763428 46.215271 28.471894 9.955566 17.172683 6.193649 42.963577-8.097061 56.241562-7.43927 6.912078-16.864624 8.242523-26.459458 8.517822-15.553802.446197-29.256103-4.704956-37.06337-20.276367-2.042739-4.074189-3.071319-8.423065-3.468811-13.390106z"/><path d="m144.065262 164.645416c8.368194-1.745819 15.97168.907517 18.862335 6.371063 3.892227 7.356553 2.833725 18.845795-2.212738 24.017472-4.206177 4.310547-12.065643 5.756363-18.195358 3.315155-5.989746-2.385483-8.506958-7.131851-8.839249-13.27182-.116821-2.158615-.097656-4.332535-.001327-6.493271.302291-6.78035 3.036895-11.851608 10.386337-13.938599z"/><path d="m208.386887 199.124115c-7.028519.692078-13.491501.199905-17.031662-6.325073-3.879609-7.150696-3.850357-14.89444-.124024-22.080231 4.445099-8.571838 19.899689-9.244919 25.981583-1.460205 7.557571 9.673599 3.061813 25.607529-8.825897 29.865509z"/></svg>