<svg enable-background="new 0 0 304 592" viewBox="0 0 304 592" xmlns="http://www.w3.org/2000/svg"><path d="m144.488373 354.556396c-5.156204-2.159362-10.055008-3.914154-15.349961-3.194-5.123024.696808-9.823371 2.463013-11.918258 7.76532-2.074074 5.249542-1.044541 10.142609 2.50193 14.489441 2.935539 3.598083 6.974876 5.616821 11.081978 7.482635 17.630524 8.0094 36.385788 12.912049 54.471893 19.666962 6.413819 2.395508 12.605087 5.234741 18.589447 8.553742 12.497513 6.931274 19.001679 17.266113 18.299668 31.80365-.747483 15.479492-8.905762 25.149993-23.147141 30.494964-13.334259 5.004517-27.278778 6.002594-41.228058 6.574188-43.651283 1.788666-87.252334-.694946-130.863096-2.065673-6.153128-.19339-12.293406-.774872-18.442364-1.129273-3.80319-.219238-5.229701-2.00592-4.552818-5.85852.631351-3.593476.884958-7.261384 1.157702-10.907502.262442-3.508331 1.919336-4.711975 5.491446-4.636993 14.49252.304138 28.996766.113647 43.485803.506683 31.818695.863159 63.624321.727967 95.437667-.267578 11.824555-.370025 23.621674-.791962 35.231873-3.202942 6.157059-1.278534 12.770432-2.995208 13.618317-10.450104.832336-7.318054-5.493988-10.118316-10.805909-12.807067-14.492523-7.335633-30.431472-10.671448-45.61586-16.106995-11.899795-4.259735-24.093292-7.926239-34.262504-15.91394-13.968834-10.97226-19.144257-30.10196-12.399277-45.727509 6.618569-15.332733 24.559471-24.685852 41.982308-22.401764 10.430267 1.367371 19.715011 5.912598 29.367462 9.45639 8.996948 3.303101 18.044433 4.416108 27.34053 1.60196 3.317841-1.004364 5.991623-3.046631 7.556-6.145142 1.297989-2.570831 3.091232-3.60495 5.951187-3.494232 4.325867.16748 8.671387.208435 12.993073-.007141 4.132095-.206116 5.228347 1.48703 4.567123 5.401642-2.661896 15.758789-12.617386 25.816803-29.414002 29.151245-13.949218 2.769195-27.49118.977783-40.636032-4.225495-3.405319-1.347931-6.753814-2.839508-10.490127-4.406952z"/></svg>