<svg enable-background="new 0 0 304 592" viewBox="0 0 304 592" xmlns="http://www.w3.org/2000/svg"><path d="m261.984497 299.400635c.314789 10.595764 1.097382 20.717499-1.360413 30.767914-4.731536 19.348144-16.129699 30.603729-35.995452 32.883545-21.850708 2.507568-43.851456 2.021728-65.776673.217773-5.511581-.453461-10.762481-2.324432-15.531784-5.131775-2.489425-1.465363-3.86531-1.107941-5.891098.938782-20.557075 20.769592-55.672439 23.263672-79.13644 5.718261-4.584244-3.427917-8.243443-7.69696-10.959957-12.790161-1.287709-2.414276-1.195668-4.277649.940834-6.168335 2.866119-2.536316 5.705036-5.138641 8.26823-7.972564 2.827671-3.126343 4.716686-2.462952 7.065083.637329 10.886398 14.371826 26.758049 17.047119 43.065063 12.889679 6.324517-1.612427 10.958588-6.112183 15.165444-10.956146 1.114326-1.283112 1.444564-2.448395.433906-4.00943-6.414634-9.907746-8.803619-21.102082-10.059822-32.588105-1.303909-11.921997-2.276794-23.913391-1.280533-35.882629 1.752251-21.051605 14.245217-32.636032 36.412926-32.886627 24.132736-.272782 48.28891-.85582 72.416321.638763 24.225082 1.500626 36.775451 14.325653 39.569305 40.465576.811615 7.593659 1.710083 15.17804 2.65506 23.22815m-110.825287-40.779633c-11.699783 1.827027-16.06932 5.141327-16.667557 14.294007-.890518 13.624389-.781967 27.291229 3.112153 40.572174 4.19374 14.302856 12.713043 24.135498 28.398666 25.554412 18.426285 1.666779 36.93425 1.509736 55.343506.207062 10.046798-.710937 16.278763-8.274902 17.364395-18.343841 1.529465-14.185089-.094803-28.21753-2.806183-42.091675-2.858398-14.626373-7.349106-18.632019-21.955978-19.722473-20.606308-1.538391-41.261277-.437226-62.789002-.469666z"/></svg>