<svg enable-background="new 0 0 304 592" viewBox="0 0 304 592" xmlns="http://www.w3.org/2000/svg"><path d="m201.178925 255.268494c2.435943 17.332672 4.822113 34.260131 7.114822 51.200287 2.582474 19.081207 5.028854 38.180908 7.64743 57.257049.783493 5.707764.421143 6.336487-5.455993 6.382263-4.163468.03241-8.329529-.086059-12.490525.018494-3.21672.08078-4.838272-1.167328-5.276809-4.511902-3.973328-30.303192-8.045319-60.593414-12.103638-90.885437-.286941-2.141785-.633591-4.279633-1.05809-6.398163-1.137787-5.678253-3.935059-8.158325-9.755173-9.065765-6.788788-1.058502-13.615738-.851685-20.439987-.853089-18.320648-.003784-36.642265-.098938-54.96122.078156-4.234306.040924-6.149696-1.101257-5.79554-5.623032.324127-4.138382.278397-8.335846.008675-12.482116-.270134-4.152619 1.365265-5.570114 5.461456-5.521073 13.655243.163513 27.315521-.078552 40.97036.10109 13.642487.179504 27.284744-.568039 40.933548.557281 12.728867 1.049469 21.043121 7.311447 25.200684 19.745957z"/><path d="m158.433319 192.865936c2.520569 14.416672-4.856659 23.460984-17.901306 22.423355-6.840607-.544128-11.681076-5.002609-12.911369-11.777603-.658669-3.627136-.909798-7.175079-.152024-10.874328 1.759392-8.588837 6.621498-12.893937 15.070641-12.894501 8.802887-.000595 14.007233 4.172485 15.894058 13.123077z"/></svg>