<svg enable-background="new 0 0 316 592" viewBox="0 0 316 592" xmlns="http://www.w3.org/2000/svg"><path d="m195 593c-64.982254 0-129.464523 0-193.973392 0 0-197.261322 0-394.522644 0-591.891988h315.821933v591.891988c-40.371277 0-80.859909 0-121.848541 0m-153.902538-264.395966c-3.70839 3.307099-7.416779 6.614197-12.001559 10.702851 4.513689 4.813873 8.49407 9.91452 13.317576 14.026031 10.192539 8.687866 22.90942 10.317658 35.582218 10.401612 48.470787.321014 96.944443.263031 145.416901.221649 6.97081-.005951 13.993637-.279267 20.901077-1.151734 16.731247-2.113311 31.378586-7.961242 39.776565-24.213958-5.027465-4.444031-9.949432-8.794831-15.096862-13.344941-2.176483 2.265076-3.951416 4.460419-6.066834 6.254273-9.784897 8.297363-21.808304 9.162109-33.771515 9.408508-18.31456.377136-36.64064.194946-54.961837.249024-1.604157.00473-3.208344.00061-5.014954.00061 0-8.414734-.231461-16.246765.052994-24.060028.452972-12.441986.51947-24.96518 2.100341-37.28064 1.678818-13.07843 8.053849-18.657165 20.988816-20.901947 7.995376-1.387573 16.033813-2.526947 24.02919-3.914535 4.823868-.837158 6.965423-4.114289 7.122467-8.793183.176254-5.251739-1.947617-8.173553-7.019821-9.35054-2.239853-.519745-4.608582-.668426-6.91919-.671219-33.64978-.040573-67.299621-.037567-100.949402-.003204-1.973014.002014-3.986976.169647-5.91085.587357-6.0681 1.317489-8.332687 4.003768-8.191513 9.40007.151604 5.7948 2.603363 8.917144 8.44696 9.860733 7.3704 1.190124 14.821503 1.87442 22.20179 3.010742 14.347458 2.209045 21.921066 9.207886 22.491898 23.307373.786285 19.420685.197021 38.897034.197021 58.80899-.713043 0-2.185592.00351-3.658127-.000518-19.820434-.05423-39.644134.091247-59.46025-.230011-15.048348-.243958-29.698155-2.032746-39.029629-16.333252-1.547409 1.34555-2.796253 2.431488-4.573471 4.009887z" fill="#fff"/><path d="m41.361649 328.357819c1.513031-1.332184 2.761875-2.418122 4.309284-3.763672 9.331474 14.300506 23.981281 16.089294 39.029629 16.333252 19.816116.321258 39.639816.175781 59.46025.230011 1.472535.004028 2.945084.000518 3.658127.000518 0-19.911956.589264-39.388305-.197021-58.80899-.570832-14.099487-8.14444-21.098328-22.491898-23.307373-7.380287-1.136322-14.83139-1.820618-22.20179-3.010742-5.843597-.943589-8.295356-4.065933-8.44696-9.860733-.141174-5.396302 2.123413-8.082581 8.191513-9.40007 1.923874-.41771 3.937836-.585343 5.91085-.587357 33.649781-.034363 67.299622-.037369 100.949402.003204 2.310608.002793 4.679337.151474 6.91919.671219 5.072204 1.176987 7.196075 4.098801 7.019821 9.35054-.157044 4.678894-2.298599 7.956025-7.122467 8.793183-7.995377 1.387588-16.033814 2.526962-24.02919 3.914535-12.934967 2.244782-19.309998 7.823517-20.988816 20.901947-1.580871 12.31546-1.647369 24.838654-2.100341 37.28064-.284455 7.813263-.052994 15.645294-.052994 24.060028 1.80661 0 3.410797.00412 5.014954-.00061 18.321197-.054078 36.647277.128112 54.961837-.249024 11.963211-.246399 23.986618-1.111145 33.771515-9.408508 2.115418-1.793854 3.890351-3.989197 6.066834-6.254273 5.14743 4.55011 10.069397 8.90091 15.096862 13.344941-8.397979 16.252716-23.045318 22.100647-39.776565 24.213958-6.90744.872467-13.930267 1.145783-20.901077 1.151734-48.472458.041382-96.946114.099365-145.416901-.221649-12.672798-.083954-25.389679-1.713746-35.582218-10.401612-4.823506-4.111511-8.803887-9.212158-13.317576-14.026031 4.58478-4.088654 8.293169-7.395752 12.265746-10.949066z" fill="#040404"/></svg>