<svg enable-background="new 0 0 304 592" viewBox="0 0 304 592" xmlns="http://www.w3.org/2000/svg"><path d="m204.205475 280.717529c-1.665207-4.055694-3.234284-7.730346-4.678162-11.453521-1.203033-3.102082-3.267822-3.741944-6.337295-2.85669-10.576401 3.050293-20.792176 7.072846-30.996704 11.150086-3.436158 1.372924-2.586319 3.577362-1.664765 6.069854 4.097077 11.081177 8.328675 22.11847 12.12909 33.301606 3.190033 9.387054 4.581756 19.011901 2.622619 28.98529-2.75534 14.026764-13.233322 23.490723-30.410553 26.128174-20.966919 3.219391-40.995216-.360047-60.378654-8.875549-24.970436-10.970002-24.504658-41.824585-10.858757-57.450348 10.744941-12.303925 24.596817-20.270661 38.434066-28.301606 4.176217-2.423797 8.352921-4.905609 12.745842-6.878967 3.63192-1.6315 3.830681-3.597992 2.525116-7.032898-12.598762-33.147247-25.053848-66.349121-37.521507-99.546097-.747131-1.989364-1.929581-3.890243-1.641441-6.868866 6.230095-2.384033 12.678871-4.980072 19.225418-7.300186 3.055878-1.082992 3.456222 1.625061 4.209274 3.620453 7.228493 19.15361 14.467316 38.303345 21.697106 57.456467 5.290466 14.015503 10.564773 28.037094 15.868408 42.047607.520248 1.374375 1.195953 2.689881 1.994217 4.465927 5.894439-2.350189 11.576309-4.592102 17.239731-6.879715 6.969726-2.815261 14.162475-4.783233 21.561309-6.126449 15.041855-2.730805 26.408234 2.994201 32.177979 17.122528 7.934418 19.428955 14.070236 39.47644 19.337295 59.785065 3.421799 13.193725 6.664216 26.435272 10.224808 39.591003 1.142685 4.222076-.274597 5.489624-4.26683 5.337463-3.826752-.145813-7.689163-.31549-11.48906.03418-4.857712.446991-7.065292-1.356171-8.243194-6.216034-6.470688-26.696899-14.274796-53.015564-23.505356-79.308777m-95.30983 66.895294c10.465706 2.599488 21.099976 2.871705 31.764252 2.003693 7.048874-.573791 11.009003-5.164276 11.151886-12.255401.139953-6.945923-1.612045-13.503815-4.029541-19.930878-3.491837-9.283356-6.977692-18.568939-10.634949-28.303009-14.610779 7.552643-28.624435 14.488525-40.431602 25.020874-2.22892 1.988251-4.362275 4.099121-5.981934 6.682617-5.114998 8.159027-3.012238 17.073883 5.338524 21.818298 3.768173 2.140839 7.754204 3.848023 12.823364 4.963806z"/></svg>