<svg enable-background="new 0 0 304 592" viewBox="0 0 304 592" xmlns="http://www.w3.org/2000/svg"><path d="m222.598877 258.824982c-16.416382.247375-32.415802.209686-48.380829.931793-18.518677.837555-36.952286.19577-55.385734-1.442566-2.074112-.184357-3.41684-1.09729-4.245507-2.929535-.205787-.455017-.446434-.894363-.673446-1.339691-5.979554-11.730026-6.015763-11.762222 2.712593-21.551437 16.520546-18.528611 33.145866-36.96431 49.577964-55.570801 2.815979-3.188599 4.969895-3.775925 8.124924-.61641 2.697891 2.701737 5.686249 5.161561 8.778488 7.408661 3.516724 2.555588 3.736374 4.484192.488312 7.797013-13.296539 13.561721-26.289261 27.421325-39.389862 41.175033-.676422.710144-1.315948 1.455414-2.206558 2.44397 2.020462 2.068024 4.437561 1.477631 6.608841 1.510742 24.161087.368317 48.27391-1.509048 72.421432-1.609192 8.97229-.037216 17.913712.733124 26.536072 3.790802 12.819656 4.546173 21.426041 13.210221 25.739487 26.003845 7.025848 20.838288 8.970367 42.265595 5.884124 63.981995-2.808288 19.760956-15.622283 31.628296-36.023117 34.448731-4.9514.684539-9.905731 1.117889-14.923065 1.112304-49.991745-.055572-99.984009.072296-149.975036-.127807-12.904267-.051636-25.545681-2.137238-36.949982-8.888031-5.087608-3.011628-9.50972-6.721344-12.577665-11.875031-.973572-1.635406-1.814087-3.311157-.487568-5.096863 4.147741-5.583557 8.347395-11.12857 12.191305-16.242035 2.204555-.185638 2.988891.776459 3.657318 1.682801 8.630882 11.702911 21.170162 15.597137 34.665806 15.691894 52.320549.367279 104.645149.250885 156.967888.14267 12.711776-.026306 19.360794-6.747986 21.073074-19.390381 1.918579-14.165436-.004761-27.894592-4.041702-41.374176-3.753861-12.534363-11.8051-18.654053-24.749909-19.649963-1.661422-.127838-3.323639-.24524-5.417648-.418335z"/></svg>