<svg enable-background="new 0 0 464 592" viewBox="0 0 464 592" xmlns="http://www.w3.org/2000/svg"><path d="m301.427277 315.589233c43.983306 49.192322 90.561493 95.099305 143.448272 134.255768 4.81778 3.567017 9.74234 7.013733 14.811158 10.208801 3.136199 1.976899 3.079284 3.648285.815033 6.27118-3.044007 3.526092-5.981965 7.188842-8.54715 11.069397-2.190186 3.313232-3.945709 3.469604-7.155792 1.09967-16.487854-12.172699-33.264985-23.925781-50.546845-34.976654-45.432159-29.051422-94.074188-50.725403-146.492874-63.466003-25.554214-6.211029-51.550751-9.697297-77.920654-11.040314-27.400635-1.395508-54.581101.986908-81.825569 2.577392-3.40091.198578-4.505044-.934143-5.044594-3.755676-.874703-4.574158-1.595536-9.189789-2.743958-13.695434-.782379-3.06955.160897-4.078949 3.145218-4.671845 10.970581-2.179535 22.101608-2.796905 33.200913-3.614136 15.622314-1.150268 31.278915-1.403534 46.94638-1.04953 58.2108 1.315216 113.886475 13.200257 166.052948 39.739472 6.38028 3.24588 12.669312 6.668731 18.694763 10.589752-60.94046-50.309235-108.255127-112.571808-155.805359-175.888931 7.347504-4.193817 13.783158-7.912415 20.267441-11.544144 2.31337-1.2957 3.257202.76091 4.376725 2.111786 3.822937 4.612961 6.854415 9.858398 11.237426 14.026306 7.631134 7.256577 16.620758 9.849854 26.684723 6.773941 9.998688-3.055939 13.705994-11.972717 9.286957-21.491714-4.302979-9.269028-10.839905-17.166474-16.289337-25.733765-1.684204-2.647781-3.429581-5.256622-5.679688-8.69812 6.431366-3.542648 12.477066-6.879456 18.529999-10.203064 1.841095-1.01091 2.818512.278549 3.64682 1.543503 7.299744 11.147842 15.173096 21.98854 20.963318 34.013397 7.686127 15.962204 4.576263 32.712662-7.4711 42.835236-7.430633 6.243484-16.098297 8.40216-25.676819 6.958892-1.149627-.173233-2.294281-.38327-3.447464-.526062-.30188-.037368-.627136.113846-1.700622.334397 17.599991 22.533477 35.322098 44.496124 54.239731 65.946502z"/></svg>