<svg enable-background="new 0 0 316 592" viewBox="0 0 316 592" xmlns="http://www.w3.org/2000/svg"><path d="m67 593c-22.327324 0-44.154648 0-65.986478 0-.004507-197.27301-.004507-394.546021-.004507-591.90951h315.857013v591.90951c-83.078659 0-166.222336 0-249.866028 0m29.824371-392.653305c17.012215-15.513779 34.02443-31.027557 51.050461-46.553925-2.97998-2.890579-5.437057-5.273941-8.009979-7.769668-.994324.863846-2.154022 1.598129-2.955246 2.614898-3.419083 4.338776-7.406143 4.997605-12.668305 3.320878-7.895004-2.51561-16.04-4.247849-24.081588-6.30185-5.161492-1.31839-11.265908 4.106201-10.454438 9.342926 1.018029 6.569702 1.560875 13.281403 3.325585 19.650086 2.316475 8.35997 1.304062 15.11708-6.284126 20.124801-.22197.1465-.280022.541367-.481347.959153 2.30497 2.505126 4.639061 5.041915 7.052979 7.665451 1.224129-1.051758 2.102547-1.806504 3.506004-3.05275z" fill="#fff"/><path d="m96.561859 200.592453c-1.140945 1.000488-2.019363 1.755234-3.243492 2.806992-2.413918-2.623536-4.748009-5.160325-7.052979-7.665451.201325-.417786.259377-.812653.481347-.959153 7.588188-5.007721 8.600601-11.764831 6.284126-20.124801-1.76471-6.368683-2.307556-13.080384-3.325585-19.650086-.81147-5.236725 5.292946-10.661316 10.454438-9.342926 8.041588 2.054001 16.186584 3.78624 24.081588 6.30185 5.262162 1.676727 9.249222 1.017898 12.668305-3.320878.801224-1.016769 1.960922-1.751052 2.955246-2.614898 2.572922 2.495727 5.029999 4.879089 8.009979 7.769668-17.026031 15.526368-34.038246 31.040146-51.312973 46.799683m16.022278-29.522202c2.737038-2.549133 5.474075-5.098281 8.812645-8.207656-7.1343-1.860459-13.42495-3.500931-20.350212-5.306885 1.398544 7.166748 2.645515 13.556778 4.005035 20.523544 2.668648-2.481247 4.844101-4.503937 7.532532-7.009003z" fill="#050505"/><path d="m112.327652 171.311432c-2.431946 2.263885-4.607399 4.286575-7.276047 6.767822-1.35952-6.966766-2.606491-13.356796-4.005035-20.523544 6.925262 1.805954 13.215912 3.446426 20.350212 5.306885-3.33857 3.109375-6.075607 5.658523-9.06913 8.448837z" fill="#fff"/></svg>