<svg enable-background="new 0 0 304 592" viewBox="0 0 304 592" xmlns="http://www.w3.org/2000/svg"><path d="m95.16716 419.219421c-9.114418-7.166656-9.090393-7.140289-.897247-14.603119 14.277061-13.004577 28.525505-26.040557 42.776764-39.073364 4.822891-4.410553 10.293365-2.974914 12.257019 3.204407.677551 2.132141-.891785 3.244598-2.131714 4.069458-5.662247 3.766357-5.637314 8.774414-4.305115 14.735596 1.624863 7.270691 2.514389 14.714966 3.523651 22.111236.904282 6.627136-5.206787 11.880982-11.71463 10.211334-8.046829-2.064453-16.133301-4.002105-24.095772-6.356079-4.084205-1.207428-7.313942-.927612-10.29039 2.36023-1.279854 1.413788-2.663666 3.033813-5.122566 3.340301m22.229454-18.846649c-.596649 1.095124-.375793 1.930207.869202 2.262329 4.877067 1.300904 9.647171 3.104615 15.470527 3.549164-1.178909-5.9599-1.68753-11.581543-3.603958-17.372558-4.855209 3.26712-8.350372 7.450866-12.735771 11.561065z"/></svg>