<svg enable-background="new 0 0 304 592" viewBox="0 0 304 592" xmlns="http://www.w3.org/2000/svg"><path d="m130.779388 166.331757c1.919388 2.865493 1.207627 5.479385.207825 7.949493-2.675812 6.610886-5.416077 13.19899-8.30175 19.720474-2.004463 4.529953-5.252281 5.992295-9.112778 4.331101-4.377647-1.883744-4.54042-5.293091-2.999862-9.116669 2.66465-6.61351 5.308471-13.23941 8.171478-19.767838 2.663826-6.074234 5.950218-6.936309 12.035087-3.116561z"/><path d="m118.471741 391.401703c-1.027924 2.317718-1.736473 4.388306-2.844078 6.217255-2.009819 3.318695-5.255219 3.333831-8.356133 2.179321-3.05101-1.135895-4.346046-3.911682-3.339592-6.912232 2.795273-8.333557 6.169731-16.466095 10.168953-24.293853 1.717964-3.36258 5.094002-3.57367 8.281693-2.386963 3.348419 1.246521 4.417823 4.09964 3.247406 7.306854-2.157158 5.911102-4.659981 11.696045-7.158249 17.889618z"/></svg>