<svg enable-background="new 0 0 316 592" viewBox="0 0 316 592" xmlns="http://www.w3.org/2000/svg"><path d="m75 593c-24.993256 0-49.486513 0-73.984827 0-.005057-197.272278-.005057-394.54454-.005057-591.908409h315.854813v591.908409c-80.409424 0-160.887176 0-241.864929 0m27.553612-391.079483c9.202553-7.353073 18.593559-14.485535 27.545357-22.132156 6.625488-5.659501 10.70816-12.949509 11.511856-21.914383.971572-10.837418-5.882737-19.286942-16.601342-20.100449-14.327392-1.087402-24.688461 7.793228-24.836746 22.689301-.085472 8.586883 1.949432 17.1949 3.164734 26.865997-3.005341 2.162704-7.37883 5.309921-11.96521 8.610351 2.38887 3.200745 4.441696 5.951233 6.68103 8.951615 1.499123-1.007553 2.69648-1.812302 4.500321-2.970276z" fill="#fff"/><path d="m102.250366 202.097137c-1.500595.981354-2.697952 1.786103-4.197075 2.793656-2.239334-3.000382-4.29216-5.75087-6.68103-8.951615 4.58638-3.30043 8.959869-6.447647 11.96521-8.610351-1.215302-9.671097-3.250206-18.279114-3.164734-26.865997.148285-14.896073 10.509354-23.776703 24.836746-22.689301 10.718605.813507 17.572914 9.263031 16.601342 20.100449-.803696 8.964874-4.886368 16.254882-11.511856 21.914383-8.951798 7.646621-18.342804 14.779083-27.848603 22.308776m18.475029-53.054138c-2.270325 1.450348-5.516044 2.372223-6.638778 4.444367-4.3946 8.110717-3.863633 16.398391.786605 24.944259 6.047974-5.112396 11.976754-9.669403 14.40107-17.183883 2.224533-6.895233-.704529-11.444794-8.548897-12.204743z" fill="#040404"/><path d="m121.127792 149.02774c7.441971.775208 10.371033 5.324769 8.1465 12.220002-2.424316 7.51448-8.353096 12.071487-14.40107 17.183883-4.650238-8.545868-5.181205-16.833542-.786605-24.944259 1.122734-2.072144 4.368453-2.994019 7.041175-4.459626z" fill="#fff"/></svg>