<svg enable-background="new 0 0 304 592" viewBox="0 0 304 592" xmlns="http://www.w3.org/2000/svg"><path d="m121.21804 427.62915c-4.130737 1.16919-7.969894 1.097412-11.756095.642487-9.930779-1.193176-17.14975-11.176086-15.550621-21.39505 1.051513-6.719544 3.760452-12.654999 8.343498-17.785004 9.500435-10.634155 20.815658-19.057495 32.519806-27.013153 5.44046-3.697998 6.125641 2.209442 8.517273 4.469513 2.532455 2.393067 1.436065 4.208161-1.106339 5.926605-3.154663 2.132202-7.23558 3.961426-8.849228 7.014191-1.708389 3.231995 1.614884 7.091949 2.476486 10.750153 2.038315 8.654235 2.05629 17.124603-1.605178 25.364044-2.530884 5.695282-6.337174 10.120361-12.989602 12.026214m3.392968-28.789733c-.850685-3.445527-.832566-7.209778-3.920342-10.609894-5.450317 5.763061-12.47129 9.910736-13.411186 18.590576-.419762 3.876373.27285 7.439941 4.778122 8.668457 4.688393 1.278473 8.741287-.660187 10.562714-5.126373 1.386505-3.39975 2.194694-6.959626 1.990692-11.522766z"/></svg>