<svg enable-background="new 0 0 316 592" viewBox="0 0 316 592" xmlns="http://www.w3.org/2000/svg"><path d="m111 593c-37 0-73.5 0-110 0 0-197.333344 0-394.666672 0-592h316v592c-68.5 0-137 0-206 0m8.611511-398.849274c4.406319-5.628784 9.097504-11.069488 13.023361-17.015472 1.011246-1.531586.417954-5.93718-.865448-6.739456-1.87564-1.172501-6.245109-1.392441-7.450363-.083527-5.722076 6.214188-10.953582 12.928925-15.807579 19.852539-.972801 1.387604-.270584 5.787934.945503 6.455261 1.990418 1.092225 5.053421.421219 7.625908.142395.751908-.081497 1.374535-1.355819 2.528618-2.61174m.466133-41.529876c1.912796-2.515656 3.981278-4.930466 5.694367-7.575455 1.693992-2.615524 2.038162-5.484985-.933495-7.4841-2.754295-1.85289-5.875664-1.978898-8.134125.708618-5.02964 5.985168-9.91999 12.098617-14.60971 18.352783-1.918686 2.558731-2.398262 5.729782.562263 8.019897 2.956337 2.286835 5.996796 1.752076 8.416512-1.047851 2.937767-3.399414 5.713142-6.939133 9.004188-10.973892z" fill="#fff"/><g fill="#070707"><path d="m119.375412 194.414886c-.917984.991761-1.540611 2.266083-2.292519 2.34758-2.572487.278824-5.63549.94983-7.625908-.142395-1.216087-.667327-1.918304-5.067657-.945503-6.455261 4.853997-6.923614 10.085503-13.638351 15.807579-19.852539 1.205254-1.308914 5.574723-1.088974 7.450363.083527 1.283402.802276 1.876694 5.20787.865448 6.739456-3.925857 5.945984-8.617042 11.386688-13.25946 17.279632z"/><path d="m119.854942 152.898712c-3.068344 3.756897-5.843719 7.296616-8.781486 10.69603-2.419716 2.799927-5.460175 3.334686-8.416512 1.047851-2.960525-2.290115-2.480949-5.461166-.562263-8.019897 4.68972-6.254166 9.58007-12.367615 14.60971-18.352783 2.258461-2.687516 5.37983-2.561508 8.134125-.708618 2.971657 1.999115 2.627487 4.868576.933495 7.4841-1.713089 2.644989-3.781571 5.059799-5.917069 7.853317z"/></g></svg>