<svg enable-background="new 0 0 316 592" viewBox="0 0 316 592" xmlns="http://www.w3.org/2000/svg"><path d="m152 593c-50.65287 0-100.80574 0-150.979305 0 0-197.265259 0-394.530533 0-591.8979h315.833736v591.8979c-54.718414 0-109.536423 0-164.854431 0m-33.03289-430.109512c.174522.187713.349052.375442.354423 1.267547-3.4543 9.104965-6.908592 18.209946-10.465477 27.585312 3.888375 1.292954 7.423607 2.468476 11.172524 3.715058 3.77304-10.114243 7.356842-19.721177 11.186142-29.986207 10.869064 10.010346 8.719818 22.24823 7.495575 34.217347 3.870605.812469 7.381469 1.549438 11.267105 2.365066.559768-5.075393 1.408172-9.66629 1.517791-14.27475.624283-26.24884-12.27008-38.876174-39.136421-35.679367-16.944061 2.016159-24.493736 15.344818-31.073654 29.71698 3.936073 1.32547 7.476318 2.517655 10.568588 3.55896 3.490403-5.37651 6.37439-10.424255 9.853714-15.021423 4.125672-5.451172 9.788597-8.363449 17.25969-7.464523z" fill="#fff"/><path d="m118.53064 162.257385c-7.034623-.265823-12.697548 2.646454-16.82322 8.097626-3.479324 4.597168-6.363311 9.644913-9.853714 15.021423-3.09227-1.041305-6.632515-2.23349-10.568588-3.55896 6.579918-14.372162 14.129593-27.700821 31.073654-29.71698 26.866341-3.196807 39.760704 9.430527 39.136421 35.679367-.109619 4.60846-.958023 9.199357-1.517791 14.27475-3.885636-.815628-7.3965-1.552597-11.267105-2.365066 1.224243-11.969117 3.373489-24.207001-7.495575-34.217347-3.8293 10.26503-7.413102 19.871964-11.186142 29.986207-3.748917-1.246582-7.284149-2.422104-11.172524-3.715058 3.556885-9.375366 7.011177-18.480347 10.704872-28.144531-.183822-.819962-.607055-1.080689-1.030288-1.341431z" fill="#050505"/><path d="m118.748871 162.573944c.205002-.055817.628235.20491.896637.672684-.329346.019302-.503876-.168427-.896637-.672684z" fill="#fff"/></svg>