<svg enable-background="new 0 0 316 592" viewBox="0 0 316 592" xmlns="http://www.w3.org/2000/svg"><path d="m313.267517 593c-104.358841 0-208.188835 0-312.143174 0 0-197.244019 0-394.488159 0-591.866148h315.736741v591.866148c-.92392 0-1.994324 0-3.593567 0m-170.67807-189.903656c4.207886-6.287689 8.415772-12.575348 13.020065-19.455383-4.702896-1.74115-8.213211-3.040741-11.644607-4.311158-13.720886 21.477204-18.138817 25.103669-27.901505 22.822876 3.657257-9.584228 7.304405-19.141937 11.092171-29.068206-3.853424-1.187622-7.410767-2.283966-11.173798-3.443726-3.759605 10.062347-7.347793 19.665924-11.200355 29.977051-10.897446-10.012451-8.669174-22.249359-7.416428-34.196106-3.934913-.821076-7.438804-1.552216-12.312683-2.569214 0 8.619263-.565903 16.582886.153259 24.428741.776665 8.473176 3.940056 16.092682 11.810898 20.896241 14.610649 8.916809 32.594879 7.139312 45.572983-5.081116z" fill="#fff"/><path d="m142.334366 403.338776c-12.723023 11.977996-30.707253 13.755493-45.317902 4.838684-7.870842-4.803559-11.034233-12.423065-11.810898-20.896241-.719162-7.845855-.153259-15.809478-.153259-24.428741 4.873879 1.016998 8.37777 1.748138 12.312683 2.569214-1.252746 11.946747-3.481018 24.183655 7.416428 34.196106 3.852562-10.311127 7.44075-19.914704 11.200355-29.977051 3.763031 1.15976 7.320374 2.256104 11.173798 3.443726-3.787766 9.926269-7.434914 19.483978-11.092171 29.068206 9.762688 2.280793 14.180619-1.345672 27.901505-22.822876 3.431396 1.270417 6.941711 2.570008 11.644607 4.311158-4.604293 6.880035-8.812179 13.167694-13.275146 19.697815z" fill="#050505"/></svg>