<svg enable-background="new 0 0 316 592" viewBox="0 0 316 592" xmlns="http://www.w3.org/2000/svg"><path d="m313.267517 593c-104.358841 0-208.188835 0-312.143174 0 0-197.244019 0-394.488159 0-591.866148h315.736741v591.866148c-.92392 0-1.994324 0-3.593567 0m-220.401321-203.749756c-.217789.44754-.486115.877899-.645363 1.345368-1.276856 3.748321-1.785011 7.420196 2.957779 9.014801 4.362045 1.466583 6.768127-.895661 8.341888-4.817627 2.647392-6.597535 5.680496-13.04364 8.21299-19.682495 1.184883-3.106171 1.916328-6.601746-2.379204-8.417328-3.783005-1.598908-6.711227-.326325-8.6446 4.028503-2.616523 5.893524-5.090942 11.850128-7.84349 18.528778m45.901977-1.804321c1.828217-4.608795 3.76117-9.179718 5.446976-13.840027 1.08168-2.990234.517731-5.611572-2.80687-6.923645-3.161697-1.247833-6.241149-.910522-7.711532 2.315002-3.493912 7.66449-6.69738 15.468598-9.779694 23.310028-1.245308 3.168061-.341476 5.990815 3.163765 7.246399 3.482521 1.247437 6.247032.157776 7.845299-3.212616 1.274551-2.687713 2.311066-5.488311 3.842056-8.895141z" fill="#fff"/><g fill="#070707"><path d="m92.974792 388.875671c2.643952-6.304077 5.118371-12.260681 7.734894-18.154205 1.933373-4.354828 4.861595-5.627411 8.6446-4.028503 4.295532 1.815582 3.564087 5.311157 2.379204 8.417328-2.532494 6.638855-5.565598 13.08496-8.21299 19.682495-1.573761 3.921966-3.979843 6.28421-8.341888 4.817627-4.74279-1.594605-4.234635-5.26648-2.957779-9.014801.159248-.467469.427574-.897828.753959-1.719941z"/><path d="m138.573761 387.774109c-1.336578 3.078644-2.373093 5.879242-3.647644 8.566955-1.598267 3.370392-4.362778 4.460053-7.845299 3.212616-3.505241-1.255584-4.409073-4.078338-3.163765-7.246399 3.082314-7.84143 6.285782-15.645538 9.779694-23.310028 1.470383-3.225524 4.549835-3.562835 7.711532-2.315002 3.324601 1.312073 3.88855 3.933411 2.80687 6.923645-1.685806 4.660309-3.618759 9.231232-5.641388 14.168213z"/></g></svg>