<svg enable-background="new 0 0 316 592" viewBox="0 0 316 592" xmlns="http://www.w3.org/2000/svg"><path d="m313.267517 593c-104.358841 0-208.188835 0-312.143174 0 0-197.244019 0-394.488159 0-591.866148h315.736741v591.866148c-.92392 0-1.994324 0-3.593567 0m-186.001953-209.432007c-1.138657 2.925385-2.408531 5.807923-3.38073 8.787628-1.068618 3.275208-.236435 5.992646 3.249749 7.223969 3.229125 1.140533 6.137023.342987 7.561355-2.864716 3.286606-7.401672 6.380402-14.893676 9.354218-22.427276 1.277374-3.235932 1.03186-6.326172-2.911835-7.715577-3.729584-1.313995-6.524841-.128784-8.107941 3.524048-1.841736 4.249543-3.588196 8.540375-5.764816 13.471924m-33.405136 14.598938c-1.061524 2.602081-2.149376 5.193787-3.177887 7.808838-1.277275 3.247528-.703224 6.0159 2.669144 7.46225 3.542823 1.519531 6.648086.688812 8.277969-3.012634 3.132019-7.112732 6.231293-14.250275 8.991417-21.511597 1.197494-3.15033 1.641975-6.697266-2.777283-8.222473-4.037048-1.39325-6.726166.122284-8.330078 3.952118-1.78865 4.271057-3.62233 8.523285-5.653282 13.523498z" fill="#fff"/><g fill="#060606"><path d="m127.459961 383.238647c1.982223-4.602203 3.728683-8.893035 5.570419-13.142578 1.5831-3.652832 4.378357-4.838043 8.107941-3.524048 3.943695 1.389405 4.189209 4.479645 2.911835 7.715577-2.973816 7.5336-6.067612 15.025604-9.354218 22.427276-1.424332 3.207703-4.33223 4.005249-7.561355 2.864716-3.486184-1.231323-4.318367-3.948761-3.249749-7.223969.972199-2.979705 2.242073-5.862243 3.575127-9.116974z"/><path d="m93.968864 397.797058c1.922516-4.63034 3.756196-8.882568 5.544846-13.153625 1.603912-3.829834 4.29303-5.345368 8.330078-3.952118 4.419258 1.525207 3.974777 5.072143 2.777283 8.222473-2.760124 7.261322-5.859398 14.398865-8.991417 21.511597-1.629883 3.701446-4.735146 4.532165-8.277969 3.012634-3.372368-1.44635-3.946419-4.214722-2.669144-7.46225 1.028511-2.615051 2.116363-5.206757 3.286323-8.178711z"/></g></svg>