<svg enable-background="new 0 0 316 592" viewBox="0 0 316 592" xmlns="http://www.w3.org/2000/svg"><path d="m150 593c-49.986389 0-99.472775 0-148.97958 0 0-197.265442 0-394.530899 0-591.898175h315.834316v591.898175c-55.385742 0-110.870239 0-166.854736 0m-59.578613-407.399246c5.933899-5.054276 11.867805-10.108566 18.034713-15.361313 3.021134 3.349335 5.861641 6.498413 8.858994 9.821396-6.442169 5.585129-12.535225 10.867584-18.740295 16.247146 2.672805 2.920838 4.987114 5.449891 7.392921 8.078949 15.442322-13.398056 30.450295-26.419265 45.598747-39.562347-2.705948-2.827454-4.965271-5.188202-7.419952-7.753098-6.288193 5.31601-12.204529 10.317643-18.343979 15.507889-3.080147-3.519287-5.840187-6.672821-8.63752-9.868973 6.453423-5.656753 12.389-10.859603 18.43026-16.155075-2.906754-2.883545-5.342682-5.300033-7.950485-7.887024-15.124298 13.117737-30.127823 26.130722-45.243531 39.240998 2.748955 2.808807 5.057335 5.167434 8.020127 7.691452z" fill="#fff"/><path d="m90.094177 185.518066c-2.635582-2.44133-4.943962-4.799957-7.692917-7.608764 15.115708-13.110276 30.119233-26.123261 45.243531-39.240998 2.607803 2.586991 5.043731 5.003479 7.950485 7.887024-6.04126 5.295472-11.976837 10.498322-18.43026 16.155075 2.797333 3.196152 5.557373 6.349686 8.63752 9.868973 6.13945-5.190246 12.055786-10.191879 18.343979-15.507889 2.454681 2.564896 4.714004 4.925644 7.419952 7.753098-15.148452 13.143082-30.156425 26.164291-45.598747 39.562347-2.405807-2.629058-4.720116-5.158111-7.392921-8.078949 6.20507-5.379562 12.298126-10.662017 18.740295-16.247146-2.997353-3.322983-5.83786-6.472061-8.858994-9.821396-6.166908 5.252747-12.100814 10.307037-18.361923 15.278625z" fill="#050505"/></svg>