<svg enable-background="new 0 0 304 592" viewBox="0 0 304 592" xmlns="http://www.w3.org/2000/svg"><path d="m94.994827 406.056427c-5.535942 4.56601-6.569824-1.612427-9.060226-3.546143-2.88469-2.239898-.369805-4.002594 1.376495-5.535461 12.760567-11.200989 25.50824-22.416962 38.32618-33.551971 1.517051-1.31781 3.128105-3.781495 5.514991-2.125214 2.576203 1.78775 4.803055 4.24881 5.779114 7.298004.493256 1.540985-1.396194 2.483856-2.496246 3.442749-4.014511 3.499298-8.036049 6.992432-12.126038 10.402619-2.283676 1.904144-2.016365 3.810882.127327 5.295776 2.330864 1.614593 3.058129 7.161652 7.620369 3.719513 3.978897-3.001953 7.952439-6.128937 11.362808-9.735474 3.909378-4.134247 6.471878-2.470184 9.067643 1.126709 1.40892 1.952362 4.828842 3.598084 1.472137 6.52182-13.805282 12.024689-27.666725 23.984864-41.494736 35.98349-1.51699 1.316284-2.855125 1.210358-4.449112.023712-6.424148-4.782379-6.569381-6.844268-.732109-12.033508 4.074463-3.622131 8.541085-6.824982 12.411888-11.313782-2.420204-2.866943-4.742492-5.61792-7.487342-8.869476-5.151688 4.367065-10.046051 8.515991-15.213143 12.896637z"/></svg>