<svg enable-background="new 0 0 316 592" viewBox="0 0 316 592" xmlns="http://www.w3.org/2000/svg"><path d="m313.267517 593c-104.358841 0-208.188835 0-312.143174 0 0-197.244019 0-394.488159 0-591.866148h315.736741v591.866148c-.92392 0-1.994324 0-3.593567 0m-202.659897-208.103699c-.980072 2.454865-2.021202 4.887451-2.92527 7.369995-1.223862 3.360779-.239181 5.944275 3.145149 7.237519 3.181824 1.215851 6.116341.571075 7.579491-2.688263 3.316948-7.388947 6.547676-14.828919 9.431076-22.393921 1.134834-2.977417 1.319313-6.392792-2.806648-7.819153-3.995529-1.381256-6.745163-.032349-8.352745 3.865936-1.891197 4.585938-3.851898 9.14325-6.071053 14.427887z" fill="#fff"/><path d="m110.751915 384.538818c2.07486-4.927154 4.035561-9.484466 5.926758-14.070404 1.607582-3.898285 4.357216-5.247192 8.352745-3.865936 4.125961 1.426361 3.941482 4.841736 2.806648 7.819153-2.8834 7.565002-6.114128 15.004974-9.431076 22.393921-1.46315 3.259338-4.397667 3.904114-7.579491 2.688263-3.38433-1.293244-4.369011-3.87674-3.145149-7.237519.904068-2.482544 1.945198-4.91513 3.069565-7.727478z" fill="#060606"/></svg>