<svg enable-background="new 0 0 316 592" viewBox="0 0 316 592" xmlns="http://www.w3.org/2000/svg"><path d="m153 593c-50.986115 0-101.472225 0-151.979167 0 0-197.265167 0-394.53035 0-591.897763h315.833476v591.897763c-54.384766 0-108.869537 0-163.854309 0m-18.561951-407.916138c2.202561 2.398575 4.405121 4.79715 6.193863 6.745087 3.248139-2.882828 6.051682-5.371063 8.966141-7.957748-8.333908-8.984391-16.3284-17.602906-24.37056-26.272797 4.88115-5.549316 9.469849-10.766144 14.304825-16.263001-3.148895-2.381698-5.994919-4.534332-8.992569-6.801635-14.940918 16.796158-29.517212 33.182403-44.277405 49.77539 3.040879 2.506668 5.701027 4.699494 8.675774 7.151657 3.84671-4.299911 7.485367-8.366668 11.123344-12.434021 3.722237-4.16156 7.44381-8.323715 11.341553-12.682296 5.814232 6.398941 11.184265 12.309021 17.035034 18.739364m-13.260299 15.744065c5.331794-3.312928 7.288986-8.86554 4.984573-14.476746-1.69236-4.120895-5.138901-5.466675-9.272102-5.276703-3.78479.173981-6.781807 1.759323-7.910683 5.662933-2.693359 9.313614 1.818626 14.881196 12.198212 14.090516z" fill="#fff"/><g fill="#050505"><path d="m134.197678 184.82373c-5.610398-6.170211-10.980431-12.080291-16.794663-18.479232-3.897743 4.358581-7.619316 8.520736-11.341553 12.682296-3.637977 4.067353-7.276634 8.13411-11.123344 12.434021-2.974747-2.452163-5.634895-4.644989-8.675774-7.151657 14.760193-16.592987 29.336487-32.979232 44.277405-49.77539 2.99765 2.267303 5.843674 4.419937 8.992569 6.801635-4.834976 5.496857-9.423675 10.713685-14.304825 16.263001 8.04216 8.669891 16.036652 17.288406 24.37056 26.272797-2.914459 2.586685-5.718002 5.07492-8.966141 7.957748-1.788742-1.947937-3.991302-4.346512-6.434234-7.005219z"/><path d="m120.813644 200.904694c-10.01548.713913-14.527465-4.853669-11.834106-14.167283 1.128876-3.90361 4.125893-5.488952 7.910683-5.662933 4.133201-.189972 7.579742 1.155808 9.272102 5.276703 2.304413 5.611206.347221 11.163818-5.348679 14.553513z"/></g></svg>