<svg enable-background="new 0 0 304 592" viewBox="0 0 304 592" xmlns="http://www.w3.org/2000/svg"><path d="m107.135216 410.384033c2.402267-2.072601 1.985252-3.668091.152054-5.629272-6.249901-6.686188-12.136017-13.724976-18.582665-20.210022-4.011551-4.035462-1.049698-5.898407 1.519089-8.344635 2.515182-2.395233 4.598045-4.839752 8.06543-.840515 6.412902 7.396515 13.19387 14.473907 20.281097 22.184204 4.149826-4.485077 8.060806-8.700135 11.957764-12.928101 2.480774-2.691498 5.073181-5.29483 7.374008-8.133423 2.462799-3.038452 4.529587-2.919891 7.41217-.361511 5.325608 4.726532 5.388489 4.507263.532776 9.950653-12.073334 13.534607-24.047432 27.157745-36.13636 40.678314-1.435501 1.60553-2.646782 4.666474-5.445206 3.277436-2.916679-1.447754-5.795242-3.394135-7.517204-6.331757-.797546-1.360626.645134-2.417633 1.512695-3.393188 2.874726-3.232819 5.767861-6.44925 8.874352-9.918183z"/><path d="m124.478989 382.762939c-7.410859 3.144745-13.256249 1.304718-15.253327-4.45581-2.375915-6.853272.754898-13.542511 7.054222-15.0719 6.758995-1.640991 12.066948 3.059021 11.832787 10.741272-.095444 3.131134-.681534 6.286896-3.633682 8.786438z"/></svg>