<svg enable-background="new 0 0 316 592" viewBox="0 0 316 592" xmlns="http://www.w3.org/2000/svg"><path d="m274 593c-91.30835 0-182.116707 0-272.962529 0 0-197.254089 0-394.508163 0-591.881124h315.800206v591.881124c-14.012604 0-28.17514 0-42.837677 0m-150.105865-410.434753c1.307823-3.219696 2.8469-6.368943 3.855705-9.679749.930702-3.05452.682243-6.05014-3.062935-7.308929-3.441353-1.156678-6.340538-.467774-7.875443 3.051941-3.174629 7.2798-6.25029 14.604461-9.245819 21.959899-1.35131 3.318131-.942779 6.326706 2.786736 7.836914 3.661186 1.482544 6.530723.370896 8.162865-3.292861 1.750068-3.928483 3.371574-7.914231 5.378891-12.567215z" fill="#fff"/><path d="m123.729294 182.911362c-1.842476 4.306869-3.463982 8.292617-5.21405 12.2211-1.632142 3.663757-4.501679 4.775405-8.162865 3.292861-3.729515-1.510208-4.138046-4.518783-2.786736-7.836914 2.995529-7.355438 6.07119-14.680099 9.245819-21.959899 1.534905-3.519715 4.43409-4.208619 7.875443-3.051941 3.745178 1.258789 3.993637 4.254409 3.062935 7.308929-1.008805 3.310806-2.547882 6.460053-4.020546 10.025864z" fill="#060606"/></svg>