<svg enable-background="new 0 0 316 592" viewBox="0 0 316 592" xmlns="http://www.w3.org/2000/svg"><path d="m1 233c0-77.314575 0-154.629143 0-231.971859h315.933533v591.833553c-105.148972 0-210.364647 0-315.933533 0 0-110.883453 0-221.905609.326021-333.626159 5.085566 3.883758 10.826845 4.837677 16.949637 3.292999 8.87482-2.239014 13.013628-11.695801 10.232113-22.761963-1.751393-6.967865-5.899561-10.201843-12.968704-10.92305-5.518744-.563034-10.125377 1.264145-14.539067 4.156479z" fill="#fff"/><path d="m1 233.468658c4.41369-3.360992 9.020323-5.188171 14.539067-4.625137 7.069143.721207 11.217311 3.955185 12.968704 10.92305 2.781515 11.066162-1.357293 20.522949-10.232113 22.761963-6.122792 1.544678-11.864071.590759-16.949637-3.759979-.326021-8.122788-.326021-16.477021-.326021-25.299897z" fill="#020202"/></svg>