<svg enable-background="new 0 0 316 592" viewBox="0 0 316 592" xmlns="http://www.w3.org/2000/svg"><path d="m275 593c-91.641602 0-182.783188 0-273.962392 0 0-197.253998 0-394.50798 0-591.880987h315.799916v591.880987c-13.678924 0-27.508239 0-41.837524 0m-165.468636-418.000458c-6.512344 1.369904-9.078895 3.962845-9.517524 9.615387-.425392 5.481888 1.889465 9.922745 5.992752 11.496674 5.537933 2.124222 11.780784-.474304 12.853973-5.752335 1.53785-7.563309.108299-14.563904-9.329201-15.359726z" fill="#fff"/><path d="m109.936493 175.008698c9.032371.786666 10.461922 7.787261 8.924072 15.35057-1.073189 5.278031-7.31604 7.876557-12.853973 5.752335-4.103287-1.573929-6.418144-6.014786-5.992752-11.496674.438629-5.652542 3.00518-8.245483 9.922653-9.606231z" fill="#050505"/></svg>