<svg enable-background="new 0 0 316 592" viewBox="0 0 316 592" xmlns="http://www.w3.org/2000/svg"><path d="m308.061615 593c-102.675354 0-204.840912 0-307.034043 0 0-197.312805 0-394.625626 0-591.969217h315.939927v591.969217c-2.776856 0-5.586457 0-8.905884 0m-191.236206-221.693207c-9.355263 1.047791-10.557282 11.567841-7.00975 16.928101 1.601814 2.420379 5.607627 4.441467 8.527565 4.447845 2.683464.00586 6.468139-2.30072 7.858306-4.696472 4.446404-7.662811.215226-15.339691-9.376121-16.679474z" fill="#fff"/><path d="m117.215012 371.245056c9.201744 1.40152 13.432922 9.0784 8.986518 16.741211-1.390167 2.395752-5.174842 4.702332-7.858306 4.696472-2.919938-.006378-6.925751-2.027466-8.527565-4.447845-3.547532-5.36026-2.345513-15.88031 7.399353-16.989838z" fill="#060606"/></svg>