<svg enable-background="new 0 0 316 592" viewBox="0 0 316 592" xmlns="http://www.w3.org/2000/svg"><path d="m125 593c-41.655334 0-82.810669 0-123.983003 0 0-197.26767 0-394.53537 0-591.901528h315.841035v591.901528c-63.726684 0-127.542358 0-191.858032 0m4.267792-442.357956c-1.411812-3.198181-2.112473-7.092255-4.401795-9.431732-3.449646-3.525223-9.770027-3.130036-13.891845-.323013-4.173119 2.841949-5.893402 9.547988-3.939934 15.871353 1.535881 4.971634 5.356544 6.993774 10.220215 7.282608 7.43135.44133 11.258323-3.634125 12.013359-13.399216m-22.268914 33.049347c-.248191 1.475067-.636627 2.942261-.719955 4.42659-.336006 5.985535 2.027351 10.234543 6.691208 12.247513 4.290214 1.851715 10.706863.794174 13.396591-2.517182 3.716393-4.575271 3.638512-9.928329 2.020256-15.169189-1.390983-4.504898-5.230301-6.369583-9.658859-6.635376-5.294685-.317764-9.370484 1.8237-11.729241 7.647644z" fill="#fff"/><g fill="#050505"><path d="m129.276764 151.038788c-.764008 9.368347-4.590981 13.443802-12.022331 13.002472-4.863671-.288834-8.684334-2.310974-10.220215-7.282608-1.953468-6.323365-.233185-13.029404 3.939934-15.871353 4.121818-2.807023 10.442199-3.20221 13.891845.323013 2.289322 2.339477 2.989983 6.233551 4.410767 9.828476z"/><path d="m107.061562 183.304291c2.296073-5.436844 6.371872-7.578308 11.666557-7.260544 4.428558.265793 8.267876 2.130478 9.658859 6.635376 1.618256 5.24086 1.696137 10.593918-2.020256 15.169189-2.689728 3.311356-9.106377 4.368897-13.396591 2.517182-4.663857-2.01297-7.027214-6.261978-6.691208-12.247513.083328-1.484329.471764-2.951523.782639-4.81369z"/></g></svg>