<svg enable-background="new 0 0 316 592" viewBox="0 0 316 592" xmlns="http://www.w3.org/2000/svg"><path d="m312.210083 593c-104.022278 0-207.519356 0-311.210083 0 0-98.599243 0-197.198639 0-295.798004 0-98.66388 0-197.327751 0-296.096809h315.89035v591.894813c-1.309204 0-2.732116 0-4.680267 0m-183.47731-211.93692c.699249-5.454285 1.720016-11.053497-3.415047-15.105286-5.130722-4.048401-13.277191-2.967071-16.81179 2.044251-4.030274 5.71405-2.442704 15.808349 2.99353 19.033966 6.419945 3.809326 13.260925 1.695312 17.233307-5.972931m-16.903694 21.145447c-5.884026 3.73825-6.017701 9.351165-5.003876 15.340332.881638 5.208282 4.483284 7.485595 9.23072 8.303589 4.991448.859985 9.944092-1.266572 11.742707-5.472962 2.232879-5.222015 2.602508-10.716095-.833763-15.628632-2.855439-4.082183-8.018441-4.89801-15.135788-2.542327z" fill="#fff"/><g fill="#050505"><path d="m128.605484 381.426147c-3.845093 7.305176-10.686073 9.41919-17.106018 5.609864-5.436234-3.225617-7.023804-13.319916-2.99353-19.033966 3.534599-5.011322 11.681068-6.092652 16.81179-2.044251 5.135063 4.051789 4.114296 9.651001 3.287758 15.468353z"/><path d="m112.16304 402.046265c6.783386-2.193421 11.946388-1.377594 14.801827 2.704589 3.436271 4.912537 3.066642 10.406617.833763 15.628632-1.798615 4.20639-6.751259 6.332947-11.742707 5.472962-4.747436-.817994-8.349082-3.095307-9.23072-8.303589-1.013825-5.989167-.88015-11.602082 5.337837-15.502594z"/></g></svg>