<svg enable-background="new 0 0 316 592" viewBox="0 0 316 592" xmlns="http://www.w3.org/2000/svg"><path d="m77 593c-25.65974 0-50.819479 0-75.984414 0-.005195-197.272095-.005195-394.544174-.005195-591.908134h315.854233v591.908134c-79.742081 0-159.55336 0-239.864624 0m38.366714-453.960709c-5.682006 1.137986-8.414756 4.883072-8.888961 10.392792-.406334 4.720993-.147461 9.3535 4.245987 12.456436 4.271728 3.016968 10.49031 2.933243 14.431961-.093918 3.757049-2.885376 5.387359-10.548172 3.422134-16.084655-1.67334-4.714188-5.657585-6.867279-13.211121-6.670655m-22.666885 37.840195c-6.056679 3.608536-8.297775 10.083405-6.011818 17.130158 1.393425 4.29544 4.451866 6.468963 8.760254 7.029312 4.778076.62146 9.189583-.261902 11.621727-4.837052 2.72699-5.12976 3.157051-10.730285-.214691-15.649734-3.174225-4.631256-8.095932-5.427399-14.155472-3.672684m57.061447 15.0336c.596222-4.911057.782852-9.808289-3.552276-13.293381-4.001877-3.217178-8.606522-3.541824-13.16272-1.362747-5.295189 2.532532-6.193848 7.455307-5.99675 12.655228.243355 6.420211 3.660294 10.379348 9.301315 11.121597 7.018219.923447 11.06456-1.62999 13.410431-9.120697z" fill="#fff"/><g fill="#040404"><path d="m115.740395 139.006912c7.179855-.164245 11.1641 1.988846 12.83744 6.703034 1.965225 5.536483.334915 13.199279-3.422134 16.084655-3.941651 3.027161-10.160233 3.110886-14.431961.093918-4.393448-3.102936-4.652321-7.735443-4.245987-12.456436.474205-5.50972 3.206955-9.254806 9.262642-10.425171z"/><path d="m93.083115 176.759933c5.676254-1.635162 10.597961-.839019 13.772186 3.792237 3.371742 4.919449 2.941681 10.519974.214691 15.649734-2.432144 4.57515-6.843651 5.458512-11.621727 4.837052-4.308388-.560349-7.366829-2.733872-8.760254-7.029312-2.285957-7.046753-.044861-13.521622 6.395104-17.249711z"/><path d="m149.646927 192.31427c-2.231522 7.089523-6.277863 9.64296-13.296082 8.719513-5.641021-.742249-9.05796-4.701386-9.301315-11.121597-.197098-5.199921.701561-10.122696 5.99675-12.655228 4.556198-2.179077 9.160843-1.854431 13.16272 1.362747 4.335128 3.485092 4.148498 8.382324 3.437927 13.694565z"/></g></svg>