<svg enable-background="new 0 0 304 592" viewBox="0 0 304 592" xmlns="http://www.w3.org/2000/svg"><path d="m106.032921 410.576538c1.823364-7.034363 5.285644-10.139099 11.262054-10.398346 5.513932-.239166 10.284897 2.722931 11.792916 7.321808 2.124054 6.47757.435897 13.72702-3.91671 16.81958-4.140457 2.941742-10.784485 2.852539-14.923958-.328064-4.339104-3.334045-4.790634-8.038879-4.214302-13.414978z"/><path d="m131.126831 387.07074c-7.918602-8.22345-5.426773-21.154358 4.165466-23.551941 5.299454-1.324555 10.63176.419708 13.252579 4.335144 2.766907 4.133667 2.530777 12.904999-.459442 17.066009-2.712692 3.774811-8.369659 5.396851-13.462265 3.788208-1.095459-.346069-2.111603-.943176-3.496338-1.63742z"/><path d="m109.34111 376.877441c-.889297 8.675507-5.460739 12.913758-12.891784 12.390015-7.646843-.53891-11.202073-5.44873-10.782425-14.890594.307716-6.923493 5.078735-11.546631 11.881988-11.513703 7.513077.036316 11.648903 4.795166 11.792221 14.014282z"/></svg>