<svg enable-background="new 0 0 316 592" viewBox="0 0 316 592" xmlns="http://www.w3.org/2000/svg"><path d="m64 593c-21.327599 0-42.155197 0-62.987098 0-.0043-197.273285-.0043-394.54657-.0043-591.909923h315.857853v591.909923c-84.079636 0-168.223038 0-252.866455 0m76.663971-425.880554c2.772827-2.310456 5.545654-4.620911 8.532822-7.109955-3.161194-3.372376-5.957993-6.356018-8.973694-9.573166-19.059448 15.808273-37.79335 31.346542-56.842308 47.146133 3.461921 3.285035 6.449066 6.119538 9.703598 9.207779 15.63105-13.028595 31.334793-26.117782 47.579582-39.670791z" fill="#fff"/><path d="m140.393448 167.351349c-15.974266 13.321106-31.678009 26.410293-47.309059 39.438888-3.254532-3.088241-6.241677-5.922744-9.703598-9.207779 19.048958-15.799591 37.78286-31.33786 56.842308-47.146133 3.015701 3.217148 5.8125 6.20079 8.973694 9.573166-2.987168 2.489044-5.759995 4.799499-8.803345 7.341858z" fill="#050505"/></svg>