<svg enable-background="new 0 0 316 592" viewBox="0 0 316 592" xmlns="http://www.w3.org/2000/svg"><path d="m308.061615 593c-102.675354 0-204.840912 0-307.034043 0 0-197.312805 0-394.625626 0-591.969217h315.939927v591.969217c-2.776856 0-5.586457 0-8.905884 0m-197.112572-202.486481c9.55703 7.957306 19.114067 15.914612 27.837807 23.178101 3.599442-3.049103 6.817551-5.775177 10.295868-8.72168-18.943405-15.883331-37.59858-31.524933-56.355675-47.252014-3.275314 3.543335-6.148323 6.651459-9.185493 9.937164 9.253547 7.721314 18.054733 15.065125 27.407493 22.858429z" fill="#fff"/><path d="m110.673256 390.288788c-9.076973-7.568573-17.878159-14.912384-27.131706-22.633698 3.03717-3.285705 5.910179-6.393829 9.185493-9.937164 18.757095 15.727081 37.41227 31.368683 56.355675 47.252014-3.478317 2.946503-6.696426 5.672577-10.295868 8.72168-8.72374-7.263489-18.280777-15.220795-28.113594-23.402832z" fill="#050505"/></svg>