<svg enable-background="new 0 0 316 592" viewBox="0 0 316 592" xmlns="http://www.w3.org/2000/svg"><path d="m106 593c-35.333336 0-70.166668 0-105 0 0-197.333344 0-394.666672 0-592h316v592c-70.166672 0-140.333328 0-211 0m16.69622-420.156876c2.4217.953476 2.710015 2.289627 1.299729 4.553681-2.49881 4.011581-4.687691 8.216202-7.096436 12.500442 2.428627 1.400696 4.401276 2.538407 6.613739 3.814423 3.107994-5.236206 6.034157-10.166092 9.119057-15.363388 2.180847 1.335953 3.979629 2.437851 6.02211 3.689041-2.907181 5.343887-5.640366 10.367905-8.484161 15.595245 2.251144 1.377732 4.196624 2.568375 6.514999 3.987259 3.132202-5.324371 6.101181-10.371292 9.108887-15.484039 7.411026 4.235321 14.264328 8.151916 21.276352 12.159195 1.550659-2.530747 2.821487-4.604782 4.236282-6.913788-7.29538-4.293854-14.2789-8.404144-21.491303-12.649155 2.900208-5.060424 5.671143-9.895279 8.589463-14.987304-2.345902-1.276718-4.327225-2.355011-6.627945-3.607132-2.966202 4.921753-5.753845 9.547195-8.761475 14.537674-2.266708-1.408646-4.125183-2.563599-6.065491-3.769409 2.897126-5.058075 5.514313-9.627381 8.234559-14.376603-2.321091-1.49176-4.345459-2.792801-6.581665-4.22998-2.975846 5.203079-5.664338 9.903747-8.503449 14.867752-2.243271-1.317108-4.180138-2.4543-6.350288-3.72847 2.788292-4.991073 5.428718-9.717453 8.211967-14.699493-2.362717-1.413956-4.414795-2.642029-6.582519-3.939286-2.964676 5.104538-5.690392 9.797654-8.521721 14.672593-2.364594-1.375641-4.283112-2.491761-6.2612-3.642533 2.851242-5.104782 5.413383-9.691955 8.145164-14.582855-2.443397-1.404816-4.53051-2.604767-6.837219-3.930984-2.967896 5.077011-5.677811 9.712707-8.499588 14.539764-2.144951-1.334229-3.934044-2.447083-6.010201-3.73851 2.772538-5.001404 5.383423-9.711228 8.130875-14.667374-2.51062-1.337829-4.623314-2.463608-6.850174-3.650223-2.96788 5.094895-5.677658 9.746704-8.480011 14.55745-6.877342-4.073731-13.260773-7.854889-20.053665-11.878601-1.477669 2.529296-2.775337 4.750503-4.233429 7.246292 6.832092 3.956283 13.421494 7.772003 20.240044 11.720428-3.046692 5.21283-6.0178 10.296341-9.125016 15.612717 2.361611 1.403595 4.329857 2.573395 6.577141 3.909057 3.153366-5.178192 6.225594-10.223144 9.412049-15.455673 2.261009 1.389771 4.075553 2.505112 6.069763 3.730896-2.953537 5.20697-5.786431 10.201264-8.828461 15.56424 2.340378 1.314331 4.396095 2.468811 6.548248 3.677444 3.243088-5.383835 6.123101-10.164932 9.140931-15.17482 2.380416 1.301682 4.30857 2.356064 6.331924 3.462509-3.018814 5.622071-5.73288 10.67659-8.526436 15.879166 2.380608 1.331711 4.365181 2.441864 6.560761 3.670075 3.107803-5.31276 6.02639-10.302048 9.025428-15.428864 1.048493.580902 1.904198 1.054993 3.362381 1.951141z" fill="#fff"/><path d="m122.394989 172.632095c-1.156952-.685119-2.012657-1.15921-3.06115-1.740112-2.999038 5.126816-5.917625 10.116104-9.025428 15.428864-2.19558-1.228211-4.180153-2.338364-6.560761-3.670075 2.793556-5.202576 5.507622-10.257095 8.526436-15.879166-2.023354-1.106445-3.951508-2.160827-6.331924-3.462509-3.01783 5.009888-5.897843 9.790985-9.140931 15.17482-2.152153-1.208633-4.20787-2.363113-6.548248-3.677444 3.04203-5.362976 5.874924-10.35727 8.828461-15.56424-1.99421-1.225784-3.808754-2.341125-6.069763-3.730896-3.186455 5.232529-6.258683 10.277481-9.412049 15.455673-2.247284-1.335662-4.21553-2.505462-6.577141-3.909057 3.107216-5.316376 6.078324-10.399887 9.125016-15.612717-6.81855-3.948425-13.407952-7.764145-20.240044-11.720428 1.458092-2.495789 2.75576-4.716996 4.233429-7.246292 6.792892 4.023712 13.176323 7.80487 20.053665 11.878601 2.802353-4.810746 5.512131-9.462555 8.480011-14.55745 2.22686 1.186615 4.339554 2.312394 6.850174 3.650223-2.747452 4.956146-5.358337 9.66597-8.130875 14.667374 2.076157 1.291427 3.86525 2.404281 6.010201 3.73851 2.821777-4.827057 5.531692-9.462753 8.499588-14.539764 2.306709 1.326217 4.393822 2.526168 6.837219 3.930984-2.731781 4.8909-5.293922 9.478073-8.145164 14.582855 1.978088 1.150772 3.896606 2.266892 6.2612 3.642533 2.831329-4.874939 5.557045-9.568055 8.521721-14.672593 2.167724 1.297257 4.219802 2.52533 6.582519 3.939286-2.783249 4.98204-5.423675 9.70842-8.211967 14.699493 2.17015 1.27417 4.107017 2.411362 6.350288 3.72847 2.839111-4.964005 5.527603-9.664673 8.503449-14.867752 2.236206 1.437179 4.260574 2.73822 6.581665 4.22998-2.720246 4.749222-5.337433 9.318528-8.234559 14.376603 1.940308 1.20581 3.798783 2.360763 6.065491 3.769409 3.00763-4.990479 5.795273-9.615921 8.761475-14.537674 2.30072 1.252121 4.282043 2.330414 6.627945 3.607132-2.91832 5.092025-5.689255 9.92688-8.589463 14.987304 7.212403 4.245011 14.195923 8.355301 21.491303 12.649155-1.414795 2.309006-2.685623 4.383041-4.236282 6.913788-7.012024-4.007279-13.865326-7.923874-21.276352-12.159195-3.007706 5.112747-5.976685 10.159668-9.108887 15.484039-2.318375-1.418884-4.263855-2.609527-6.514999-3.987259 2.843795-5.22734 5.57698-10.251358 8.484161-15.595245-2.042481-1.25119-3.841263-2.353088-6.02211-3.689041-3.0849 5.197296-6.011063 10.127182-9.119057 15.363388-2.212463-1.276016-4.185112-2.413727-6.613739-3.814423 2.408745-4.28424 4.597626-8.488861 7.096436-12.500442 1.410286-2.264054 1.121971-3.600205-1.60096-4.76471z" fill="#070707"/></svg>