<svg enable-background="new 0 0 316 592" viewBox="0 0 316 592" xmlns="http://www.w3.org/2000/svg"><path d="m167 593c-55.651497 0-110.80299 0-165.977242 0 0-197.263885 0-394.527786 0-591.895838h315.829628v591.895838c-49.713592 0-99.532989 0-149.852386 0m-45.039505-397.684082c0-9.24292 0-18.485855 0-28.171387h32.502991c0-2.595123 0-4.730514 0-7.412964-10.852249 0-21.559052 0-32.612641 0 0-11.484817 0-22.426361 0-33.57817-2.745506 0-5.125244 0-7.951835 0v33.86c-11.185211 0-21.924767 0-32.523415 0v7.410126h32.662811v33.59375h7.922089c0-1.775681 0-3.269028 0-5.701355m15.476807-54.438568c-1.756638-.065933-3.993775-.829346-5.154221-.029877-1.629654 1.122696-3.331451 3.373718-3.400543 5.202667-.078507 2.077835 1.071533 5.162735 2.676208 6.079834 1.685944.963517 4.910508.558747 6.803269-.466049 3.030319-1.640671 2.661941-6.513092-.924713-10.786575m-7.711731 43.940002c2.750442 2.839752 6.456955 3.443436 8.591583.484116 1.54715-2.144852 1.608124-6.244888.68576-8.901535-.436889-1.25827-5.083358-2.219116-7.195175-1.492081-4.552726 1.567368-3.316574 5.712494-2.082168 9.9095m-22.961777-34.988678c.398071-3.459915 1.437645-7.58966-2.945694-8.866714-2.132294-.621216-6.712395.575836-7.084747 1.853271-.801422 2.749451-.648163 6.998932 1.049751 8.951447 2.211143 2.542709 6.076622 2.118881 8.98069-1.938004m-10.550484 34.438858c2.31675 3.426545 6.061707 3.996582 8.410927 1.492463 1.760277-1.876328 2.236237-6.029465 1.532288-8.708619-.370621-1.410537-4.742569-2.949646-6.875985-2.47792-4.833435 1.068741-3.645919 5.401245-3.06723 9.694076z" fill="#fff"/><path d="m121.960495 195.785416v5.231857c-2.607811 0-5.031265 0-7.922089 0 0-11.148789 0-22.224808 0-33.59375-11.08403 0-21.707702 0-32.662811 0 0-2.517944 0-4.7509 0-7.410126h32.523415c0-11.463379 0-22.529693 0-33.86h7.951835v33.57817h32.612641v7.412964c-10.657563 0-21.233078 0-32.502991 0z" fill="#040404"/><path d="m137.776611 141.045135c3.247345 4.105698 3.615723 8.978119.585404 10.61879-1.892761 1.024796-5.117325 1.429566-6.803269.466049-1.604675-.917099-2.754715-4.001999-2.676208-6.079834.069092-1.828949 1.770889-4.079971 3.400543-5.202667 1.160446-.799469 3.397583-.036056 5.49353.197662z" fill="#080808"/><path d="m129.493805 184.511368c-1.00264-3.891022-2.238792-8.036148 2.313934-9.603516 2.111817-.727035 6.758286.233811 7.195175 1.492081.922364 2.656647.86139 6.756683-.68576 8.901535-2.134628 2.95932-5.841141 2.355636-8.823349-.7901z" fill="#0b0b0b"/><path d="m106.535751 150.176041c-2.676025 3.709518-6.541504 4.133346-8.752647 1.590637-1.697914-1.952515-1.851173-6.201996-1.049751-8.951447.372352-1.277435 4.952453-2.474487 7.084747-1.853271 4.383339 1.277054 3.343765 5.406799 2.717651 9.214081z" fill="#080808"/><path d="m96.081146 183.904877c-.446525-3.930176-1.634041-8.26268 3.199394-9.331421 2.133416-.471726 6.505364 1.067383 6.875985 2.47792.703949 2.679154.227989 6.832291-1.532288 8.708619-2.34922 2.504119-6.094177 1.934082-8.543091-1.855118z" fill="#0b0b0b"/></svg>