<svg enable-background="new 0 0 304 592" viewBox="0 0 304 592" xmlns="http://www.w3.org/2000/svg"><path d="m193.057526 344.220123c3.800338-16.604675 7.34024-32.83905 8.726898-49.445373.352005-4.215576 2.195114-6.323883 6.69104-5.886444 2.805481.272918 5.660065.031799 8.492554.038604 7.586883.018219 7.842941.039551 7.308517 7.791871-1.425354 20.676025-6.16394 40.762023-11.811615 60.604248-10.341049 36.331634-24.421219 71.143127-43.758194 103.690277-7.26358 12.225738-7.409759 11.994415-21.442535 12.030914-4.017411.010437-5.9879-1.618958-7.48993-5.084991-8.551406-19.732789-15.560791-40.021454-22.071182-60.492798-10.240188-32.199372-18.899162-64.813355-25.424728-97.975891-1.025917-5.213623-1.709671-10.493897-2.598725-15.735352-.567123-3.343475.499779-5.018707 4.172265-4.859406 4.157478.180329 8.348327.283997 12.489502-.035217 4.700263-.362274 6.234321 1.851135 7.091377 6.162262 9.449569 47.532807 21.803283 94.271027 38.825653 139.704743.524719 1.400512 1.06514 2.797515 1.66864 4.1651.25914.58728.698517 1.095001 1.529541 2.359314 1.640518-2.919953 3.119522-5.390869 4.447281-7.940491 14.683105-28.195587 25.276047-57.917481 33.153641-89.09137z"/></svg>