<svg enable-background="new 0 0 304 592" viewBox="0 0 304 592" xmlns="http://www.w3.org/2000/svg"><path d="m171.292709 214.335083c1.172028-4.581421 2.586579-8.724823 3.188874-12.983109.69606-4.921081 3.314224-5.29663 7.34584-4.391845 7.010452 1.573334 13.724762 3.969818 20.422134 6.512848 5.89087 2.236801 11.753541 4.615707 18.320618 4.296661 12.630905-.613663 18.575195-9.833954 13.347794-21.377747-3.939133-8.698822-9.969086-16.138-15.38208-23.925567-6.886597-9.907578-6.974411-9.846543 3.519653-16.033707 10.263962-6.051498 10.317718-6.087448 16.820297 3.634247 6.47789 9.684814 13.452286 19.125793 17.455307 30.20813 4.509156 12.483673 3.738709 24.532898-4.204452 35.562591-6.112397 8.487549-15.19101 10.792115-24.97229 11.387589-1.14296.069595-2.293839.00943-3.62468.00943 15.831162 27.154007 26.575287 56.121353 36.958344 85.225052 3.509796 9.837982 6.939178 19.720306 5.933929 30.578033-1.278503 13.809082-8.880371 21.279236-22.705658 21.286621-50.32016.026856-100.640869.120331-150.960113-.099762-12.046471-.052704-23.935349-1.80188-34.222458-9.034515-5.111016-3.593414-9.297898-8.01651-12.446717-13.46225-1.470302-2.542846-1.591137-4.440246.902272-6.469513 3.743675-3.046844 7.326641-6.304291 10.831482-9.626709 2.228874-2.112854 3.913326-1.937347 5.728317.458527 7.779476 10.269195 19.027683 13.343964 30.945782 13.434112 48.151214.36438 96.305923.251252 144.458984.418793 4.357452.015167 5.093674-1.481384 3.865753-5.420135-9.980713-32.014527-22.417587-63.046967-37.339996-93.060593-5.993393-12.054581-15.986313-19.29921-29.160919-22.292633-2.204438-.50087-5.933518-.112091-5.026017-4.834549z"/></svg>