<svg enable-background="new 0 0 304 592" viewBox="0 0 304 592" xmlns="http://www.w3.org/2000/svg"><path d="m227.515198 305.59436c4.387954 13.835297 9.400268 27.08548 8.884765 41.615387-.420684 11.857148-5.381668 17.126343-17.089508 17.130036-31.816589.010009-63.633178-.006592-95.449775-.005524-8.355362.000275-16.606942-.830078-24.65757-3.153717-10.530754-3.03949-18.620011-9.300873-24.554589-18.507324-2.029167-3.147888-2.23777-5.541504 1.045418-8.059326 3.559212-2.729462 6.852738-5.826935 10.10212-8.931366 2.214225-2.115479 3.916999-1.992096 5.727897.415344 7.627747 10.140503 18.695069 13.215912 30.434021 13.40686 28.9776.471314 57.965622.304352 86.949539.369568.962861.002167 1.926331-.259369 3.079987-.425415.357452-4.485748-1.507568-8.2966-2.738037-12.148071-13.681671-42.825196-29.386505-84.921158-46.162232-126.617615-1.608337-3.997589-.801727-5.629745 3.056092-6.890289 4.581451-1.496979 9.100448-3.261597 13.482528-5.26828 3.570176-1.634903 5.459244-.82872 6.788605 2.850708 4.635697 12.830627 9.427475 25.605163 14.218979 38.37886.681168 1.815888.844254 3.947479 2.906433 5.424011 13.043732-10.055816 27.040985-11.32077 40.173233-1.052291 10.719971 8.382247 11.250122 20.686386 7.610886 32.884124-4.317932 14.472565-15.259262 19.61557-30.240692 18.838562 2.22731 6.827973 4.272155 13.096619 6.4319 19.745758m-4.84671-63.174438c-1.13556.24028-2.293824.404083-3.403031.733154-7.496918 2.224091-11.230301 9.679596-9.019241 17.94809 1.994415 7.458221 9.094162 11.651214 16.528381 9.761413 6.709839-1.705658 10.988236-7.47586 10.676788-14.399505-.365692-8.129532-4.951507-12.737198-14.782897-14.043152z"/></svg>