<svg version="1.1" id="Layer_1" xmlns="http://www.w3.org/2000/svg" xmlns:xlink="http://www.w3.org/1999/xlink" x="0px" y="0px"
	 width="100%" viewBox="0 0 512 512" enable-background="new 0 0 512 512" xml:space="preserve">
<path fill="#000000" opacity="1.000000" stroke="none" 
	d="
M242.720596,35.447239 
	C255.562592,32.058170 268.054199,31.789536 280.645905,34.582829 
	C301.525757,39.214737 315.207855,55.265556 317.369171,76.639061 
	C319.348755,96.215416 314.248535,113.538422 302.701508,129.180756 
	C301.552826,130.736847 300.380249,133.986221 297.905396,131.544998 
	C295.534058,129.205917 290.398376,127.819000 292.939697,122.685379 
	C293.966980,120.610207 295.427490,118.743454 296.745178,116.819069 
	C304.189178,105.947800 306.329926,93.812469 304.536072,81.045746 
	C303.077698,70.666344 296.952209,63.243599 287.283569,59.434036 
	C271.237518,53.111687 254.922760,53.353935 239.147430,60.174149 
	C225.201508,66.203453 218.997650,80.369644 221.691483,96.364723 
	C223.234039,105.523918 227.591217,113.249619 232.444778,120.852142 
	C234.929779,124.744568 232.523087,130.973145 228.094223,132.184845 
	C226.700546,132.566147 225.900803,131.803406 225.130554,130.874008 
	C206.302246,108.155861 203.335983,75.937958 217.289078,53.452377 
	C223.094009,44.097660 231.890808,38.601166 242.720596,35.447239 
z"/>
<path fill="#000000" opacity="1.000000" stroke="none" 
	d="
M268.094452,112.315536 
	C258.403046,113.161911 252.566055,110.102600 249.338669,102.735909 
	C246.437439,96.113686 248.077225,88.327286 253.372711,83.580704 
	C258.269135,79.191833 266.218140,78.060738 272.015472,80.927963 
	C277.845184,83.811211 281.583954,90.289749 281.208099,96.856834 
	C280.784424,104.258812 276.301086,109.693260 268.094452,112.315536 
z"/>
<path fill="#000000" opacity="1.000000" stroke="none" 
	d="
M321.860535,203.319443 
	C318.763397,208.170898 314.754364,209.734741 310.919830,207.912094 
	C307.383484,206.231186 305.459717,201.636932 306.983643,197.717346 
	C308.510834,193.789444 311.763733,192.327301 315.791962,192.861267 
	C320.418243,193.474548 322.474060,196.961060 321.860535,203.319443 
z"/>
<path fill="#000000" opacity="1.000000" stroke="none" 
	d="
M320.254913,253.102356 
	C315.444946,256.398285 311.183838,256.252808 308.421753,253.017319 
	C305.997040,250.177017 305.956329,245.148788 308.336090,242.432938 
	C311.038330,239.348984 315.811096,238.849167 319.186340,241.296692 
	C322.755798,243.885040 323.194397,247.723648 320.254913,253.102356 
z"/>
<path fill="#000000" opacity="1.000000" stroke="none" 
	d="
M293.881531,182.886398 
	C292.553558,178.064270 293.798309,174.643723 298.139862,172.709671 
	C301.808289,171.075516 305.086212,171.990692 307.461731,175.068924 
	C309.987518,178.341919 309.894409,181.895157 307.231262,185.134262 
	C303.525360,189.641678 298.181000,188.841492 293.881531,182.886398 
z"/>
<path fill="#000000" opacity="1.000000" stroke="none" 
	d="
M277.011597,159.675125 
	C282.788147,158.236984 286.572815,159.832321 287.962006,163.965805 
	C289.284058,167.899628 287.409851,172.462906 283.813660,174.066132 
	C279.928955,175.797989 275.686829,174.345490 273.598175,170.568420 
	C271.531647,166.831268 272.558685,163.219025 277.011597,159.675125 
z"/>
<path fill="#000000" opacity="1.000000" stroke="none" 
	d="
M315.978607,231.393616 
	C309.984283,226.248001 310.341461,219.111130 316.429626,216.879929 
	C319.791626,215.647781 323.070618,216.120789 325.505585,218.974960 
	C327.924225,221.809967 328.077606,225.138626 326.188202,228.232986 
	C323.929871,231.931595 320.549744,233.190155 315.978607,231.393616 
z"/>
<path fill="#000000" opacity="1.000000" stroke="none" 
	d="
M215.232437,187.454803 
	C210.533432,188.605423 207.410294,186.964294 205.513992,183.092941 
	C203.972382,179.945679 204.469955,176.901505 206.997345,174.456863 
	C209.769302,171.775681 213.038391,171.160431 216.547882,172.998657 
	C222.088806,175.900955 221.580734,183.424637 215.232437,187.454803 
z"/>
<path fill="#000000" opacity="1.000000" stroke="none" 
	d="
M198.717224,230.940613 
	C194.369888,233.255859 190.890747,232.277252 188.236588,228.915558 
	C185.975891,226.052216 185.890488,222.682892 187.956757,219.657120 
	C190.189560,216.387482 193.549088,215.652100 197.204956,216.780762 
	C203.211517,218.635193 204.066071,225.355591 198.717224,230.940613 
z"/>
<path fill="#000000" opacity="1.000000" stroke="none" 
	d="
M191.747650,246.297119 
	C193.193146,241.505478 196.180603,239.270203 200.775177,239.875839 
	C204.422165,240.356567 206.752426,242.587936 207.264252,246.362930 
	C207.936508,251.321121 205.166214,255.058624 200.494400,255.605911 
	C195.492233,256.191864 192.122269,252.778030 191.747650,246.297119 
z"/>
<path fill="#000000" opacity="1.000000" stroke="none" 
	d="
M295.214600,263.143799 
	C298.800385,260.020020 302.502655,259.658691 305.979767,262.098541 
	C308.908539,264.153625 310.003052,267.313751 308.744812,270.912170 
	C307.188232,275.363708 302.566345,277.520630 298.305237,275.842560 
	C293.409515,273.914642 292.107147,269.108185 295.214600,263.143799 
z"/>
<path fill="#000000" opacity="1.000000" stroke="none" 
	d="
M282.549561,273.903717 
	C287.200134,275.520660 288.855316,278.690491 288.207825,282.959137 
	C287.696106,286.332794 285.757568,288.719391 282.164246,289.270508 
	C278.368713,289.852692 275.284546,288.807373 273.451843,285.164551 
	C270.451935,279.201599 274.596375,273.789001 282.549561,273.903717 
z"/>
<path fill="#000000" opacity="1.000000" stroke="none" 
	d="
M263.678040,157.471619 
	C265.724701,162.190582 265.040161,166.105286 260.882629,168.581055 
	C257.859314,170.381424 254.497772,170.137466 251.698151,167.582443 
	C248.356598,164.532852 248.065399,159.714447 250.975662,156.497253 
	C254.419357,152.690369 258.938965,152.923096 263.678040,157.471619 
z"/>
<path fill="#000000" opacity="1.000000" stroke="none" 
	d="
M252.733734,293.365875 
	C248.336609,288.750305 247.723053,285.326202 250.688614,281.807281 
	C253.321014,278.683685 256.709045,277.772217 260.486633,279.597595 
	C264.094238,281.340820 265.363129,284.445435 264.581696,288.240692 
	C263.741486,292.321289 261.127136,294.570465 256.857727,294.445312 
	C255.580460,294.407867 254.317459,293.883667 252.733734,293.365875 
z"/>
<path fill="#000000" opacity="1.000000" stroke="none" 
	d="
M195.551605,207.483780 
	C190.887970,202.970551 190.429489,198.173050 194.148407,194.898651 
	C197.079880,192.317551 200.378922,191.968338 203.764359,193.939468 
	C207.315796,196.007324 208.009628,199.423508 207.061066,202.990479 
	C206.125778,206.507629 203.503632,208.510193 199.712311,208.433090 
	C198.428665,208.406952 197.153824,207.948105 195.551605,207.483780 
z"/>
<path fill="#000000" opacity="1.000000" stroke="none" 
	d="
M204.967133,266.473389 
	C206.798889,261.677734 210.146790,260.029205 214.627213,260.830383 
	C217.890656,261.414001 219.876572,263.504700 220.309036,266.910583 
	C220.973907,272.146637 217.985443,276.087555 213.152145,276.316559 
	C207.995163,276.560913 204.935257,273.072418 204.967133,266.473389 
z"/>
<path fill="#000000" opacity="1.000000" stroke="none" 
	d="
M241.293579,281.930023 
	C240.510239,287.279297 237.588730,289.669098 232.646805,289.304535 
	C228.626358,289.007904 226.300888,286.592468 225.734055,282.670593 
	C225.065430,278.044556 227.936447,274.305267 232.370819,273.753510 
	C237.213486,273.150909 240.219650,275.762482 241.293579,281.930023 
z"/>
<path fill="#000000" opacity="1.000000" stroke="none" 
	d="
M238.319946,160.571106 
	C241.753052,163.931564 242.360901,167.460556 239.929184,171.172165 
	C238.029739,174.071350 235.198410,175.268890 231.720978,174.441650 
	C226.953201,173.307434 224.379837,168.586487 225.980484,163.997971 
	C227.568146,159.446686 232.517319,157.937393 238.319946,160.571106 
z"/>
</svg>