<svg version="1.1" id="Layer_1" xmlns="http://www.w3.org/2000/svg" xmlns:xlink="http://www.w3.org/1999/xlink" x="0px" y="0px"
	 width="100%" viewBox="0 0 512 512" enable-background="new 0 0 512 512" xml:space="preserve">
<path fill="#000000" opacity="1.000000" stroke="none" 
	d="
M384.275696,311.808472 
	C382.314362,332.272003 376.171417,350.932281 366.845520,368.668793 
	C360.030792,381.629425 353.445038,394.700012 350.039948,409.127197 
	C346.856873,422.613678 347.800568,435.897766 351.516846,449.037323 
	C352.421417,452.235565 352.215179,454.287598 349.528351,456.347931 
	C345.520935,459.420868 344.110626,459.270599 342.169708,454.609650 
	C338.509155,445.819275 336.058990,436.659821 334.700531,427.253204 
	C330.734863,399.792114 338.391022,374.914215 351.884552,351.386993 
	C361.938385,333.857239 369.521759,315.545654 369.677307,294.911377 
	C369.806122,277.824829 362.177612,267.147461 346.014862,261.319611 
	C336.347809,257.833954 326.402863,256.378876 316.159424,256.182831 
	C313.406036,256.130096 308.850372,258.181152 308.731201,252.396133 
	C308.595612,245.816559 309.881073,244.424652 316.016602,244.021408 
	C322.804169,243.575287 329.577026,243.597137 336.341827,242.103729 
	C358.731750,237.160934 366.042328,219.307632 362.952667,199.933670 
	C361.017761,187.800674 354.007324,180.183044 342.281647,177.801987 
	C330.301636,175.369293 319.332184,177.795303 311.634613,188.465210 
	C307.628723,194.017883 306.014221,200.468506 305.346405,207.158569 
	C304.809906,212.533493 299.240601,215.417343 294.500305,212.699966 
	C293.107727,211.901642 292.786285,210.711594 292.859253,209.342941 
	C293.666199,194.209732 296.041962,179.492554 305.341827,166.896805 
	C314.688477,154.237793 330.666809,149.599503 346.980408,154.340851 
	C362.329376,158.801865 370.360718,170.219635 375.064606,184.348801 
	C378.344177,194.199844 379.577179,204.599442 377.826996,214.924652 
	C375.392761,229.285431 366.552063,239.433838 354.822388,247.373108 
	C353.630493,248.179840 352.416382,248.953690 350.925629,249.930908 
	C355.014709,252.368042 358.849884,254.343994 362.352081,256.795593 
	C376.394714,266.625671 383.440399,280.356201 384.276459,297.337860 
	C384.505585,301.991577 384.299500,306.666718 384.275696,311.808472 
z"/>
<path fill="#000000" opacity="1.000000" stroke="none" 
	d="
M150.708099,186.463470 
	C147.142349,183.310318 146.240921,179.746796 148.363480,175.941177 
	C150.129181,172.775360 153.200180,171.394226 156.838898,172.161575 
	C160.472794,172.927887 162.602661,175.351028 163.110596,179.029388 
	C164.015915,185.585907 157.967514,189.396530 150.708099,186.463470 
z"/>
<path fill="#000000" opacity="1.000000" stroke="none" 
	d="
M140.436066,192.878754 
	C146.963104,193.080612 150.550125,196.398300 150.042587,201.313522 
	C149.553833,206.046799 145.241318,209.251541 140.448975,208.375107 
	C136.686249,207.686951 134.620850,205.100998 134.146530,201.579559 
	C133.552551,197.169739 135.987076,194.411041 140.436066,192.878754 
z"/>
<path fill="#000000" opacity="1.000000" stroke="none" 
	d="
M167.969009,167.671844 
	C168.021484,162.408890 170.574890,159.385895 175.320251,158.906052 
	C179.064133,158.527481 182.090912,160.190552 183.334991,164.133224 
	C184.706375,168.479370 182.727478,172.743729 178.624954,174.243668 
	C174.070404,175.908859 170.602417,173.881348 167.969009,167.671844 
z"/>
<path fill="#000000" opacity="1.000000" stroke="none" 
	d="
M229.260483,161.838791 
	C231.884506,168.231766 230.366180,172.741806 225.386978,174.333557 
	C221.006104,175.734039 216.727463,173.372192 215.326279,168.755692 
	C214.274429,165.290207 215.467987,162.449692 218.248596,160.472794 
	C222.017426,157.793365 225.714081,158.324692 229.260483,161.838791 
z"/>
<path fill="#000000" opacity="1.000000" stroke="none" 
	d="
M131.301819,229.710785 
	C128.596741,226.147369 128.171143,222.758652 130.723465,219.373871 
	C132.870956,216.525955 135.864090,216.032928 139.193924,216.663742 
	C142.658188,217.320053 144.143539,219.829590 144.785492,222.887192 
	C145.460144,226.100510 144.206650,228.788986 141.572693,230.656921 
	C138.128799,233.099243 134.743134,232.681564 131.301819,229.710785 
z"/>
<path fill="#000000" opacity="1.000000" stroke="none" 
	d="
M269.760620,224.823792 
	C268.921631,229.234039 266.612854,231.863724 262.437927,232.151306 
	C258.775696,232.403580 256.130676,230.458954 254.549103,227.191223 
	C253.071304,224.137848 253.834686,221.329849 255.964157,218.924011 
	C258.307770,216.276230 261.410522,215.901108 264.625763,216.798660 
	C268.417633,217.857162 269.476593,220.944656 269.760620,224.823792 
z"/>
<path fill="#000000" opacity="1.000000" stroke="none" 
	d="
M246.238541,172.483505 
	C250.998352,174.305206 251.879822,177.831177 251.217636,181.916016 
	C250.641495,185.469940 248.051056,187.319138 244.718750,187.826706 
	C241.036591,188.387558 238.314148,186.569641 236.620300,183.373581 
	C235.196487,180.687027 235.208298,177.882401 237.164337,175.449265 
	C239.375259,172.699112 242.161850,171.139374 246.238541,172.483505 
z"/>
<path fill="#000000" opacity="1.000000" stroke="none" 
	d="
M146.899811,253.966919 
	C140.733063,256.641022 136.642258,255.382629 134.663071,250.538269 
	C133.002258,246.473114 134.879776,242.135071 139.125122,240.407532 
	C142.847519,238.892807 146.152939,239.890930 148.372421,243.003952 
	C151.013016,246.707596 150.517090,250.470352 146.899811,253.966919 
z"/>
<path fill="#000000" opacity="1.000000" stroke="none" 
	d="
M256.991547,208.526428 
	C252.343704,208.357986 249.882950,205.849762 248.995407,201.967178 
	C248.270370,198.795425 249.633911,196.074371 252.325821,194.252396 
	C255.363419,192.196411 258.534332,192.134674 261.589905,194.295486 
	C264.545288,196.385468 265.088135,199.400574 264.380890,202.669373 
	C263.583069,206.356995 261.138092,208.289001 256.991547,208.526428 
z"/>
<path fill="#000000" opacity="1.000000" stroke="none" 
	d="
M147.328583,268.865784 
	C147.529114,264.090302 149.760696,261.378754 154.154617,260.759094 
	C157.773590,260.248749 160.637894,261.492218 162.343246,264.923065 
	C164.046326,268.349365 163.265823,271.397217 160.775864,274.011688 
	C156.239349,278.775055 149.417007,276.314209 147.328583,268.865784 
z"/>
<path fill="#000000" opacity="1.000000" stroke="none" 
	d="
M191.668945,161.919403 
	C192.545471,156.252090 195.644058,153.410187 200.078568,153.783371 
	C204.067566,154.119049 207.139343,157.294174 207.308273,161.256302 
	C207.494522,165.624817 204.751831,168.980209 200.505966,169.578186 
	C196.031281,170.208405 193.075226,167.783539 191.668945,161.919403 
z"/>
<path fill="#000000" opacity="1.000000" stroke="none" 
	d="
M263.750885,251.581390 
	C259.752960,256.067078 255.322876,256.763336 251.850815,253.748993 
	C248.515244,250.853195 247.929871,246.327026 250.461334,243.005402 
	C253.150543,239.476791 258.019165,238.701355 261.595215,241.349396 
	C265.114990,243.955780 265.041290,247.505692 263.750885,251.581390 
z"/>
<path fill="#000000" opacity="1.000000" stroke="none" 
	d="
M243.140167,260.697998 
	C249.420624,261.382721 251.543594,263.600983 251.344742,268.821045 
	C251.181717,273.100494 248.381485,276.033264 244.216156,276.287048 
	C240.221741,276.530426 236.718948,273.846619 235.876968,269.897614 
	C234.947617,265.538940 237.394180,262.254181 243.140167,260.697998 
z"/>
<path fill="#000000" opacity="1.000000" stroke="none" 
	d="
M174.338104,273.806641 
	C181.060028,274.111267 184.290512,277.213989 183.774384,282.419220 
	C183.309784,287.104889 179.473785,289.971191 174.560837,289.278595 
	C170.690826,288.733093 168.629120,286.098175 168.133560,282.607635 
	C167.515808,278.256439 169.872986,275.373901 174.338104,273.806641 
z"/>
<path fill="#000000" opacity="1.000000" stroke="none" 
	d="
M223.812592,273.750549 
	C228.858749,274.756805 231.291809,277.831757 230.851547,282.334137 
	C230.470398,286.231995 228.156052,289.062042 223.689209,289.341309 
	C219.372726,289.611145 216.698990,287.529480 215.364594,283.644775 
	C213.667480,278.704132 216.975845,274.695190 223.812592,273.750549 
z"/>
<path fill="#000000" opacity="1.000000" stroke="none" 
	d="
M191.829010,288.546295 
	C191.235687,283.561859 192.894714,280.188141 197.502579,279.009949 
	C201.519760,277.982788 204.843750,279.467316 206.600037,283.282227 
	C208.230972,286.824829 207.430359,290.162903 204.458084,292.753265 
	C200.441711,296.253601 195.132584,294.605591 191.829010,288.546295 
z"/>
</svg>