<svg version="1.1" id="Layer_1" xmlns="http://www.w3.org/2000/svg" xmlns:xlink="http://www.w3.org/1999/xlink" x="0px" y="0px"
	 width="100%" viewBox="0 0 512 512" enable-background="new 0 0 512 512" xml:space="preserve">
<path fill="#000000" opacity="1.000000" stroke="none" 
	d="
M165.653137,145.178009 
	C187.309509,153.048645 204.016922,166.091400 214.952515,186.324295 
	C217.937576,191.847214 214.093216,192.688400 211.105667,194.900620 
	C207.876770,197.291534 206.096619,196.421387 203.970520,193.301086 
	C196.986740,183.051498 188.692932,173.983917 178.476456,166.807983 
	C164.601410,157.062286 148.828018,154.835876 132.387894,155.008804 
	C115.449608,155.186981 100.718506,160.979355 88.551819,172.627274 
	C79.106812,181.669556 72.576332,192.660675 70.084595,205.662064 
	C66.736069,223.133926 66.974525,240.379562 74.029404,257.102997 
	C81.052193,273.750366 93.940918,282.593933 111.484924,284.514160 
	C120.727921,285.525848 130.152039,285.451782 139.157181,282.274506 
	C149.546051,278.609039 155.176865,269.736176 154.051178,259.068420 
	C153.117615,250.221390 145.786194,243.685303 135.042313,242.374207 
	C129.259583,241.668533 123.451172,241.105453 117.600128,241.323135 
	C115.003784,241.419708 112.094337,241.412323 112.814697,237.601379 
	C113.411728,234.442856 111.792107,229.534760 117.765457,229.683105 
	C125.574821,229.877045 133.081161,228.927399 139.582245,224.101837 
	C141.045151,223.015945 142.479523,221.839417 143.715012,220.507904 
	C151.128113,212.518646 147.981964,201.667648 137.312241,199.431473 
	C125.725960,197.003189 115.107872,198.916458 106.913330,208.423264 
	C105.845039,209.662628 104.838219,210.643082 103.146049,209.473236 
	C101.628822,208.424332 100.074326,207.469971 100.303520,205.202911 
	C101.534119,193.030258 118.655220,175.728638 130.626923,174.600616 
	C151.864899,172.599487 166.522476,189.724197 161.707184,210.706741 
	C159.681137,219.535233 154.609589,226.266495 147.379944,232.156479 
	C149.691330,233.397781 151.417831,234.322449 153.142044,235.251343 
	C164.300064,241.262512 170.180206,253.626129 168.815704,266.233429 
	C167.447891,278.871490 163.092117,289.815399 153.036850,297.871429 
	C137.040588,310.687225 118.980423,312.293701 100.265564,305.746857 
	C81.283188,299.106445 69.430931,284.504852 61.849525,266.649475 
	C51.171791,241.501801 49.384163,215.536545 59.752758,189.902176 
	C71.444328,160.996979 93.962677,145.288132 124.441032,140.722595 
	C138.359009,138.637741 151.948486,140.940186 165.653137,145.178009 
z"/>
<path fill="#000000" opacity="1.000000" stroke="none" 
	d="
M323.327698,230.844788 
	C322.484131,236.510269 324.268951,239.776810 329.659454,241.232269 
	C333.155609,242.176254 336.298065,244.404938 339.785461,245.412659 
	C344.484375,246.770477 345.489075,249.209290 343.515320,253.501877 
	C342.767242,255.128860 342.663147,257.051666 341.101959,258.567657 
	C338.033752,258.194183 335.244049,256.747925 332.378540,255.491974 
	C329.671051,254.305298 326.907471,253.246490 324.093445,252.100845 
	C322.724060,254.536179 323.371521,256.899017 323.359436,259.139435 
	C323.284821,272.968140 323.133636,286.801056 323.412659,300.624420 
	C323.509369,305.414612 321.681091,306.485718 317.294006,306.492004 
	C312.981171,306.498169 311.497009,305.245453 311.559265,300.792999 
	C311.789917,284.301331 311.528717,267.802979 311.735168,251.310669 
	C311.783264,247.464737 310.376404,245.530258 306.920868,244.307892 
	C301.016174,242.219147 295.460785,239.140503 288.518494,237.600082 
	C288.125031,244.438019 288.202515,250.876724 287.371124,257.242310 
	C286.026062,267.541077 283.892609,277.589264 278.871826,286.786560 
	C271.111877,301.001617 258.840393,308.339142 242.877350,309.191956 
	C208.343979,311.036957 190.371811,290.454834 185.608337,259.340698 
	C184.822220,254.205872 188.370300,254.281281 191.402924,253.205704 
	C194.921692,251.957672 195.284225,254.501358 195.944473,256.729858 
	C201.094360,274.112305 213.192368,283.654114 231.685684,284.625488 
	C237.482254,284.929962 243.297195,285.210266 249.078644,283.839386 
	C263.854553,280.335754 271.465790,270.211212 274.452393,256.142181 
	C275.722076,250.161026 275.909821,243.948212 276.546082,237.836182 
	C276.682892,236.522156 276.951233,234.795273 275.549927,234.219238 
	C270.409698,232.106277 265.176575,232.080338 260.115326,234.534668 
	C255.531387,236.757523 254.625229,240.696884 255.064209,245.422958 
	C255.427536,249.334442 258.795502,251.645447 259.813507,255.076477 
	C254.020844,261.881683 253.150970,262.061096 247.554413,255.927536 
	C241.785873,249.605484 236.867142,242.714462 235.589798,233.886887 
	C234.166733,224.052368 240.643311,216.223022 250.617325,215.645554 
	C257.364899,215.254898 263.857513,216.567078 270.331177,218.199890 
	C272.059662,218.635834 273.734802,219.572540 275.640594,219.084702 
	C277.276215,217.367325 276.614899,215.259247 276.621216,213.353561 
	C276.679108,195.859146 276.824493,178.361877 276.552917,160.871521 
	C276.477386,156.008835 278.392639,154.691772 282.713104,155.045883 
	C288.017181,155.480591 293.361694,155.617737 298.507019,157.147461 
	C313.358307,161.562836 318.976105,173.116165 321.294952,187.042923 
	C323.684235,201.393173 323.394226,215.892593 323.327698,230.844788 
M308.129456,194.440308 
	C305.741974,187.152878 302.179871,181.130539 293.698883,179.656403 
	C289.838043,178.985321 288.167908,179.829620 288.242004,184.066986 
	C288.433899,195.042603 288.680054,206.040039 288.178284,216.995483 
	C287.926025,222.501999 289.887573,225.317474 294.894348,226.653625 
	C300.374847,228.116165 305.138947,231.886063 311.651947,232.311127 
	C311.321838,219.453079 311.658569,207.184311 308.129456,194.440308 
z"/>
<path fill="#000000" opacity="1.000000" stroke="none" 
	d="
M426.726898,261.854187 
	C439.774811,252.049332 444.097473,238.252365 445.593872,223.309036 
	C446.711761,212.145493 445.116211,201.384583 438.392822,191.869263 
	C429.998169,179.988708 417.710846,176.054688 404.094818,175.531754 
	C390.975616,175.027924 378.622559,177.929947 368.023224,186.309555 
	C365.779602,188.083298 363.871063,190.131531 362.206940,192.451279 
	C358.933746,197.014038 359.020020,196.805573 351.723969,192.499557 
	C347.935211,190.263474 348.309692,188.204620 350.219177,184.891373 
	C359.361053,169.028702 371.828094,157.271133 390.214447,153.574249 
	C422.900330,147.002197 452.179504,164.167725 459.117554,199.306763 
	C463.323608,220.609207 460.968964,241.444595 449.463226,260.467102 
	C439.789185,276.461182 420.264648,285.018219 402.670837,281.341278 
	C388.148376,278.306213 382.413208,269.445892 385.819519,255.130600 
	C387.521332,247.978546 391.355865,242.040833 396.363892,236.703995 
	C399.080994,233.808411 401.413391,233.462830 404.333313,236.236954 
	C406.114929,237.929581 408.476929,238.996582 410.052582,241.324936 
	C408.774780,243.314331 407.386597,245.165649 406.321167,247.187103 
	C401.216888,256.871521 406.543091,265.250916 417.457886,264.842346 
	C420.710632,264.720581 423.652161,263.697174 426.726898,261.854187 
z"/>
</svg>