<svg version="1.1" id="Layer_1" xmlns="http://www.w3.org/2000/svg" xmlns:xlink="http://www.w3.org/1999/xlink" x="0px" y="0px"
	 width="100%" viewBox="0 0 512 512" enable-background="new 0 0 512 512" xml:space="preserve">
<path fill="#000000" opacity="1.000000" stroke="none" 
	d="
M297.527069,169.605988 
	C305.018066,156.087219 316.719849,151.236664 331.168762,152.107864 
	C347.616882,153.099625 359.773163,160.202896 365.024414,176.758301 
	C368.319305,187.145996 370.139801,197.825058 370.230408,208.649353 
	C370.487030,239.312836 370.250946,269.980286 370.461700,300.644470 
	C370.494476,305.408752 368.813568,306.517181 364.394104,306.501068 
	C359.865417,306.484619 357.820007,305.452148 357.840393,300.394348 
	C357.958771,271.063843 357.773895,241.732193 357.729950,212.400894 
	C357.721893,207.013260 356.684875,201.805283 355.195160,196.682816 
	C351.362335,183.503540 343.178375,177.401917 329.116669,177.104126 
	C316.033264,176.827057 305.280182,183.967377 301.222534,195.663864 
	C300.677887,197.233765 300.232147,198.843979 299.839813,200.459625 
	C298.471893,206.092789 296.042419,207.492050 290.358459,206.213028 
	C287.925598,205.665588 287.941437,203.965042 287.604858,202.122894 
	C283.925171,181.981857 263.452332,171.334564 244.814987,179.822739 
	C238.316208,182.782532 234.545639,188.076721 232.161011,194.567429 
	C229.368439,202.168549 228.469528,210.134125 228.414932,218.108093 
	C228.227798,245.439194 228.197266,272.773499 228.445053,300.103546 
	C228.492325,305.315247 226.804016,306.733307 221.872055,306.462952 
	C216.541733,306.170776 211.221848,306.139801 206.073013,304.560455 
	C191.945847,300.227112 186.255890,289.198151 183.710602,275.897400 
	C180.426468,258.735657 181.831635,241.349808 181.701447,224.050491 
	C181.618637,213.048447 181.451767,202.076477 179.651123,191.196518 
	C177.901398,180.624207 172.936630,176.412140 163.273331,177.219788 
	C155.837692,177.841263 151.283905,183.371292 150.378021,193.108078 
	C149.900360,198.242096 149.490936,203.392258 149.336105,208.543716 
	C149.183395,213.623779 145.624954,213.184921 142.283554,213.342346 
	C138.792892,213.506790 136.599579,212.623230 136.632263,208.397827 
	C136.731827,195.525314 137.517014,182.750809 141.836823,170.504303 
	C146.913635,156.111786 156.719284,150.301971 171.113693,152.628387 
	C179.380402,153.964447 184.478165,159.130508 187.630646,166.353104 
	C191.746948,175.783966 192.810822,185.870010 193.377640,196.057327 
	C194.461487,215.536362 193.803574,235.036453 194.325867,254.519333 
	C194.497162,260.909241 195.825531,267.068390 199.104996,272.667938 
	C201.663391,277.036255 205.370117,279.969543 210.269501,281.312012 
	C213.956650,282.322327 215.824753,281.398895 215.791916,277.040039 
	C215.647614,257.875214 215.589218,238.707001 215.796661,219.543228 
	C215.955383,204.880310 216.987747,190.299332 221.739441,176.220566 
	C227.990952,157.698029 243.322693,151.145081 261.988220,152.204330 
	C276.120819,153.006348 285.338959,160.783600 291.231720,173.153671 
	C291.731079,174.201965 292.310272,175.212814 292.873444,176.229385 
	C292.941254,176.351822 293.141785,176.400787 293.614807,176.683258 
	C294.861389,174.434967 296.110687,172.181778 297.527069,169.605988 
z"/>
<path fill="#000000" opacity="1.000000" stroke="none" 
	d="
M324.241211,392.174042 
	C314.065125,403.487213 301.454620,406.884644 287.288666,404.360291 
	C270.008026,401.280914 255.716766,393.145477 246.454895,377.647156 
	C245.154327,375.470856 243.508957,373.005890 246.727448,370.666840 
	C248.897232,369.089935 250.336960,368.901001 252.809540,370.603149 
	C269.138397,381.843658 287.038300,385.613251 306.414215,380.647247 
	C311.414551,379.365662 316.942169,377.715912 317.488770,371.398682 
	C318.046173,364.956665 312.775482,362.761658 307.946655,360.751373 
	C300.383759,357.602814 292.303436,356.251343 284.403717,354.275940 
	C279.076599,352.943787 273.909119,351.212891 268.831207,349.033661 
	C254.797821,343.011078 258.349396,325.085724 266.999786,318.894836 
	C279.394440,310.024261 303.312897,309.071777 316.102325,317.181122 
	C317.818604,318.269318 318.532471,319.327301 317.485962,321.202972 
	C316.755676,322.511902 315.946594,323.794159 315.378906,325.173218 
	C313.855347,328.874268 311.918945,329.375122 308.062225,327.640015 
	C298.446228,323.313934 288.411194,322.843781 278.460693,326.790192 
	C275.494263,327.966705 272.341095,329.706573 272.635498,333.460968 
	C272.899658,336.829346 275.877899,338.403046 278.814972,339.291321 
	C285.180542,341.216461 291.593292,342.996124 298.026123,344.685425 
	C304.159271,346.296082 310.140381,348.272247 315.920807,350.904144 
	C328.885529,356.807098 334.008331,368.135895 329.773102,381.764618 
	C328.622986,385.465485 326.846069,388.834686 324.241211,392.174042 
z"/>
</svg>