<svg version="1.1" id="Layer_1" xmlns="http://www.w3.org/2000/svg" xmlns:xlink="http://www.w3.org/1999/xlink" x="0px" y="0px"
	 width="100%" viewBox="0 0 512 512" enable-background="new 0 0 512 512" xml:space="preserve">
<path fill="#000000" opacity="1.000000" stroke="none" 
	d="
M308.027527,296.935913 
	C308.027252,298.259308 308.036316,299.092651 308.025665,299.925720 
	C307.952454,305.652924 302.291443,308.829987 297.113617,306.004181 
	C294.833221,304.759613 295.664398,302.462677 295.659698,300.609924 
	C295.596100,275.613495 295.695160,250.616425 295.563110,225.620514 
	C295.520966,217.641312 295.044037,209.665359 293.714874,201.754379 
	C291.023590,185.736313 282.065735,177.523407 266.607513,177.118484 
	C251.400299,176.720139 240.275665,185.535202 237.222809,200.787445 
	C236.391251,204.942047 234.712570,206.494461 230.308914,206.453339 
	C225.695053,206.410263 225.071442,204.232895 224.460022,200.416626 
	C222.412415,187.636307 209.570541,177.184738 196.403076,177.081268 
	C180.283112,176.954620 170.602875,184.907059 167.462204,200.996872 
	C165.894806,209.026703 165.454056,217.195908 165.405991,225.339706 
	C165.258453,250.335419 165.227600,275.333710 165.457993,300.328156 
	C165.503342,305.249115 163.907898,306.582672 159.181412,306.463318 
	C150.922089,306.254730 142.821045,305.733795 135.676987,301.091187 
	C126.087097,294.859222 122.438164,285.061676 120.744141,274.470673 
	C117.277863,252.799500 119.176666,230.917343 118.637932,209.128723 
	C118.465118,202.139603 117.962593,195.159485 116.198196,188.359146 
	C114.018494,179.958099 110.217514,176.991928 102.139183,177.146515 
	C94.482689,177.293030 89.859200,180.964828 88.446655,189.044662 
	C87.304573,195.577377 86.801567,202.244843 86.399193,208.875839 
	C86.126602,213.368195 83.142967,213.235306 80.104462,213.319550 
	C76.990677,213.405914 73.699371,213.455841 73.855820,208.982773 
	C74.338554,195.181213 74.533783,181.301056 79.977509,168.267899 
	C85.358879,155.384033 95.100029,150.203415 108.777405,152.663712 
	C115.488594,153.870926 120.250298,157.707672 123.486191,163.577789 
	C128.268234,172.252716 129.548553,181.803772 130.323700,191.456955 
	C131.980179,212.086105 130.949570,232.763184 131.379059,253.414246 
	C131.518784,260.132080 132.843994,266.636200 136.308655,272.527191 
	C138.866425,276.876190 142.564224,279.769073 147.447968,281.207642 
	C151.351227,282.357391 152.969131,281.173370 152.945145,276.977722 
	C152.842285,258.980865 152.731476,240.980484 152.978760,222.986267 
	C153.175278,208.685089 154.096237,194.469986 157.572388,180.438751 
	C164.594910,152.092728 191.562927,148.410233 209.967712,154.532486 
	C217.935745,157.183014 223.171356,163.306442 227.059753,170.576675 
	C228.140167,172.596725 229.101395,174.680496 230.135773,176.772400 
	C231.816818,175.883636 232.128052,174.492645 232.675491,173.339722 
	C241.578568,154.589798 256.282227,149.447388 276.164551,153.149261 
	C291.183990,155.945724 299.337616,165.774933 303.270508,179.938416 
	C307.139465,193.871552 307.858612,208.155029 307.982208,222.457382 
	C308.195374,247.118454 308.032684,271.782745 308.027527,296.935913 
z"/>
<path fill="#000000" opacity="1.000000" stroke="none" 
	d="
M413.515137,190.490234 
	C403.177338,177.567108 389.102478,174.826248 374.214813,175.644379 
	C359.432831,176.456680 346.146393,181.328156 337.222961,194.273132 
	C335.911835,196.175201 334.532928,196.170349 332.547516,195.213120 
	C323.687042,190.941223 323.203735,189.905029 328.316956,181.731232 
	C339.882111,163.243790 356.293518,152.059784 378.409698,152.079773 
	C408.194855,152.106705 427.776001,168.954437 434.583008,196.012100 
	C440.112091,217.990219 437.615845,239.395401 426.417938,259.261475 
	C416.845032,276.244751 396.830139,285.318542 378.851807,281.280762 
	C371.344635,279.594727 364.444672,276.372131 361.754364,268.330505 
	C358.482819,258.551666 365.994934,239.903870 374.872742,234.685089 
	C376.251831,233.874405 377.334778,233.909378 378.519135,234.785416 
	C380.527100,236.270691 382.517426,237.779816 384.526123,239.264069 
	C386.172699,240.480728 386.468567,241.865372 385.117432,243.494080 
	C384.904907,243.750214 384.701385,244.016220 384.518097,244.293793 
	C380.117676,250.957367 379.661041,257.355377 383.298065,261.332764 
	C387.067413,265.454895 395.117767,266.066101 401.457825,262.678467 
	C406.296295,260.093170 410.038025,256.266357 412.727661,251.595596 
	C422.930145,233.878189 425.602814,215.453232 417.233063,196.212555 
	C416.383514,194.259598 414.920990,192.573288 413.515137,190.490234 
z"/>
<path fill="#000000" opacity="1.000000" stroke="none" 
	d="
M197.377380,392.676941 
	C191.022491,388.375336 186.260559,383.154602 183.056503,376.534302 
	C181.926712,374.199860 181.627151,372.274139 184.130219,370.481720 
	C186.393036,368.861298 187.822586,369.180054 190.201950,370.759796 
	C207.436386,382.202362 226.047394,386.205109 246.185303,379.816315 
	C250.313751,378.506531 254.556366,376.718384 254.703506,371.282562 
	C254.857437,365.596100 250.834106,363.169861 246.401138,361.253052 
	C237.488525,357.399323 227.867188,356.016449 218.589523,353.432922 
	C214.574493,352.314819 210.739044,350.762451 206.845200,349.308380 
	C192.127960,343.812439 194.826523,324.922699 204.860779,318.576843 
	C210.611252,314.940094 216.795059,312.544312 223.484772,311.884247 
	C233.224899,310.923218 242.712387,312.040955 251.765488,316.235901 
	C255.091125,317.776886 256.241455,319.399017 254.015991,322.604309 
	C253.448944,323.421021 252.932251,324.303070 252.567398,325.224365 
	C251.196716,328.685516 249.412796,329.494080 245.681320,327.740234 
	C237.465805,323.878937 228.719528,323.188690 219.862701,325.416443 
	C217.783676,325.939362 215.744370,326.762512 213.818466,327.714081 
	C211.641937,328.789459 210.030731,330.437988 210.088409,333.150970 
	C210.146393,335.879211 211.903763,337.413147 214.076218,338.428345 
	C219.535492,340.979523 225.428299,342.180908 231.230499,343.645081 
	C238.979477,345.600464 246.699829,347.627899 253.880951,351.276154 
	C267.470703,358.180298 272.067352,371.454956 265.652100,385.334564 
	C259.362854,398.941589 244.067169,406.851166 227.872940,405.027435 
	C216.659821,403.764648 206.696426,399.521088 197.377380,392.676941 
z"/>
</svg>