<svg version="1.1" id="Layer_1" xmlns="http://www.w3.org/2000/svg" xmlns:xlink="http://www.w3.org/1999/xlink" x="0px" y="0px"
	 width="100%" viewBox="0 0 512 512" enable-background="new 0 0 512 512" xml:space="preserve">
<path fill="#000000" opacity="1.000000" stroke="none" 
	d="
M164.328568,451.926453 
	C164.241028,459.343048 164.240173,459.265167 157.523727,459.338989 
	C128.788452,459.654663 111.728844,439.857300 107.644623,413.286835 
	C102.881516,382.299744 114.381294,356.926208 134.030334,334.122864 
	C148.661224,317.143250 165.842957,302.922302 182.580139,288.166290 
	C199.669708,273.099640 217.174591,258.238953 228.370743,237.784027 
	C234.914581,225.828659 238.613556,213.101227 235.971359,199.405197 
	C233.261185,185.356827 224.244415,177.668472 211.048538,177.249374 
	C194.628784,176.727890 184.398682,183.550095 180.301697,197.855194 
	C179.251053,201.523590 178.457062,205.231689 178.219269,209.098816 
	C177.886673,214.507568 173.503876,213.118912 170.248810,213.239349 
	C167.151291,213.353943 165.781250,211.795441 166.073441,208.545654 
	C166.952301,198.770874 167.688660,188.987320 171.414886,179.742767 
	C178.335312,162.573593 190.247574,151.762268 210.074493,152.695404 
	C226.877502,153.486221 238.542343,161.886719 245.375122,177.021057 
	C253.405914,194.808960 252.836182,213.279007 248.780121,231.810028 
	C244.092773,253.225266 232.832794,271.045929 217.987778,286.876068 
	C199.937805,306.123840 179.258301,322.365845 159.177750,339.336639 
	C143.350891,352.712555 128.565384,367.235962 122.956490,388.357544 
	C118.008820,406.989136 126.353806,426.636139 142.204514,433.489044 
	C143.117493,433.883759 144.037460,434.321320 144.999481,434.534119 
	C151.505844,435.973328 152.677826,435.059113 152.647507,428.415375 
	C152.592819,416.429901 152.530319,404.486542 155.572159,392.716309 
	C162.052948,367.639343 180.362839,352.205536 206.244949,349.537720 
	C218.713593,348.252502 230.888672,348.888855 242.756790,352.682831 
	C264.684784,359.692719 276.253265,375.641907 280.288696,397.650635 
	C283.771576,416.645660 281.675873,435.855164 282.219910,454.964417 
	C282.378265,460.527039 278.367371,459.086426 275.266113,459.362946 
	C271.638000,459.686462 269.700806,458.636444 269.739319,454.467102 
	C269.865540,440.805573 270.092590,427.127014 269.566223,413.482574 
	C269.067200,400.546417 265.173157,388.849884 253.590256,381.259766 
	C246.445084,376.577576 238.299500,374.746399 229.963928,373.928528 
	C216.467834,372.604309 203.069687,372.793488 189.975922,377.135071 
	C174.544388,382.251801 167.158524,393.452576 165.297073,409.008240 
	C163.608398,423.120087 164.602249,437.291931 164.328568,451.926453 
z"/>
<path fill="#000000" opacity="1.000000" stroke="none" 
	d="
M324.770020,159.666504 
	C355.820892,141.971588 402.485809,154.770966 410.218292,201.838409 
	C413.197296,219.971466 411.203186,237.704575 403.376465,254.465881 
	C393.067627,276.542603 371.626038,284.920502 352.656738,281.198090 
	C342.747742,279.253632 335.737091,272.950043 335.362823,264.994873 
	C334.796234,252.952744 339.917603,243.086594 348.654602,234.991150 
	C349.920807,233.817902 351.264313,233.628250 352.697815,234.706406 
	C354.692352,236.206497 356.706329,237.681274 358.683807,239.203445 
	C360.270691,240.424973 360.560516,241.866135 359.266144,243.504456 
	C358.956604,243.896255 358.650757,244.294098 358.380035,244.712952 
	C354.430542,250.823318 354.124329,257.573914 357.615234,261.413605 
	C361.198334,265.354614 369.337036,266.107819 375.339996,262.903564 
	C383.432281,258.584045 388.079041,251.326752 391.385590,243.159210 
	C396.572418,230.347031 398.240265,217.111984 394.459656,203.636261 
	C391.044556,191.463394 383.295319,182.631927 371.313904,178.653244 
	C354.979553,173.229080 338.852936,174.273254 323.579742,182.877121 
	C319.006897,185.453171 315.104980,188.870697 312.215027,193.199081 
	C310.276947,196.101837 308.555511,196.246765 305.687469,194.588379 
	C297.857574,190.060928 297.643402,190.074570 302.234772,182.345200 
	C307.759186,173.045090 314.986084,165.314407 324.770020,159.666504 
z"/>
</svg>