<svg version="1.1" id="Layer_1" xmlns="http://www.w3.org/2000/svg" xmlns:xlink="http://www.w3.org/1999/xlink" x="0px" y="0px"
	 width="100%" viewBox="0 0 512 512" enable-background="new 0 0 512 512" xml:space="preserve">
<path fill="#000000" opacity="1.000000" stroke="none" 
	d="
M179.603912,216.048157 
	C179.302261,206.255066 179.291336,196.929398 176.904648,187.826599 
	C175.013260,180.612854 171.027756,177.364746 163.824890,177.279266 
	C155.556229,177.181137 151.620316,180.020905 149.380737,187.507889 
	C147.494415,193.813858 147.268295,200.257034 147.229294,206.777267 
	C147.198715,211.888596 145.092865,213.485336 140.002197,213.422241 
	C136.480408,213.378586 134.699738,211.828888 134.787125,208.284744 
	C135.124191,194.614594 135.639511,181.002960 141.312546,168.164368 
	C147.221558,154.791779 160.461975,149.004913 173.309555,154.447083 
	C181.072189,157.735275 184.706619,164.446213 187.131958,171.858932 
	C189.886719,180.278458 191.130386,189.040985 191.210892,197.894272 
	C191.362442,214.557999 191.089081,231.227905 191.421463,247.886688 
	C191.586548,256.161072 192.022308,264.546082 196.149811,272.132904 
	C199.011459,277.392944 203.116745,280.788849 209.172546,281.994324 
	C213.044312,282.765015 214.400620,281.558472 214.368469,277.781219 
	C214.212494,259.453613 213.920166,241.122955 214.114182,222.798004 
	C214.260178,209.008408 214.982941,195.296783 218.440155,181.736206 
	C222.975677,163.945969 235.413849,153.470642 254.136063,152.663177 
	C269.540466,151.998779 280.911743,157.953445 287.766968,171.978256 
	C288.277527,173.022751 288.808136,174.057968 289.352722,175.085129 
	C289.810364,175.948380 290.302002,176.793594 290.939758,177.935287 
	C292.992096,176.710754 293.475037,174.670776 294.203979,172.982162 
	C305.526306,146.755035 339.742432,146.297150 355.437592,168.409988 
	C363.458740,179.710892 367.281067,192.587128 370.208466,205.726532 
	C376.440430,233.698044 377.272583,262.149353 375.918732,290.634094 
	C375.114410,307.557220 373.698181,324.477509 370.890900,341.230255 
	C370.067108,346.146484 369.294525,351.071411 368.451019,355.984192 
	C367.812347,359.704254 369.315399,361.125397 373.071472,361.012421 
	C382.924622,360.716034 392.729095,360.198395 401.967133,356.306824 
	C407.374359,354.029022 407.421204,358.933044 409.166962,361.506714 
	C411.294891,364.643768 409.514648,366.258942 406.751495,367.669006 
	C395.701172,373.308105 383.830017,375.818024 371.597412,376.057648 
	C366.443573,376.158661 364.344330,377.674377 363.334229,382.681641 
	C358.426056,407.012390 351.142578,430.678711 342.669830,453.991302 
	C341.620544,456.878357 340.923370,460.125671 336.689026,458.879730 
	C333.171600,457.844757 329.021820,457.699615 329.660919,451.896790 
	C330.366730,445.488037 325.757660,442.031830 320.943756,439.057709 
	C309.293457,431.859894 296.188171,428.620819 283.118134,425.353882 
	C256.993439,418.823822 230.482147,413.540283 205.806381,402.254120 
	C196.053070,397.793121 186.911453,392.223022 181.105042,382.679779 
	C171.907608,367.563141 176.500977,346.354980 190.640106,335.717529 
	C204.194153,325.520325 219.275955,323.837860 235.589096,325.129120 
	C264.223846,327.395660 289.706055,339.680603 316.058197,349.252747 
	C325.922241,352.835724 335.941284,355.844788 346.129303,358.298737 
	C352.355774,359.798492 353.662842,358.567749 354.666687,352.319061 
	C357.833954,332.603546 360.402649,312.785431 361.399872,292.874756 
	C362.323151,274.439789 362.390350,255.924301 360.344177,237.481522 
	C358.965424,225.054321 357.286957,212.729858 352.936768,200.913696 
	C351.548950,197.144058 349.859070,193.535751 347.766907,190.124924 
	C341.874146,180.518173 333.262726,176.069641 322.064667,177.363220 
	C312.106018,178.513641 304.688324,183.736130 300.187317,192.749908 
	C298.935516,195.256760 297.949921,197.995346 297.420502,200.739197 
	C296.753510,204.195892 295.895660,206.416275 291.549957,206.470764 
	C287.073822,206.526917 286.024841,204.363541 285.198364,200.661285 
	C279.859924,176.747086 254.700165,171.903503 238.357224,182.317215 
	C232.338806,186.152161 230.188065,192.689880 228.407654,199.105011 
	C226.578857,205.694489 226.131348,212.518402 226.147400,219.383194 
	C226.209732,246.047134 226.168610,272.711304 226.150452,299.375397 
	C226.145798,306.205322 225.954514,306.135498 219.103699,306.407623 
	C194.188675,307.397247 182.919418,291.516418 180.688339,268.480255 
	C179.014084,251.193314 179.786652,233.857086 179.603912,216.048157 
M239.995255,400.361511 
	C257.030914,404.784241 274.065460,409.211365 291.102661,413.628143 
	C302.534973,416.591888 313.923157,419.731934 324.604919,424.871307 
	C328.412994,426.703430 331.904968,429.192505 336.212311,431.785736 
	C342.071381,412.827362 346.693451,394.152802 350.248230,375.040192 
	C343.303375,373.776794 337.098083,372.749634 330.935760,371.509033 
	C305.988434,366.486877 281.848999,358.383057 257.228821,352.110870 
	C242.844620,348.446381 228.276657,345.907684 213.374939,346.396301 
	C196.812653,346.939392 189.218109,354.987762 191.288528,369.459961 
	C192.182175,375.706604 196.309891,379.747284 201.127167,383.274933 
	C212.599030,391.675629 225.835159,396.064026 239.995255,400.361511 
z"/>
</svg>