<svg version="1.1" id="Layer_1" xmlns="http://www.w3.org/2000/svg" xmlns:xlink="http://www.w3.org/1999/xlink" x="0px" y="0px"
	 width="100%" viewBox="0 0 512 512" enable-background="new 0 0 512 512" xml:space="preserve">
<path fill="#000000" opacity="1.000000" stroke="none" 
	d="
M225.506195,426.651306 
	C206.774246,421.796234 188.196762,417.951935 170.113770,412.253021 
	C156.300873,407.899811 142.725418,403.100891 130.457809,394.952087 
	C105.585640,378.430603 110.793800,346.974213 130.818298,333.831879 
	C143.765366,325.334534 157.615067,323.993805 172.372559,325.047150 
	C198.249329,326.894104 221.626160,337.219818 245.408051,346.168304 
	C257.869598,350.857330 270.386627,355.303314 283.395447,358.236816 
	C290.705200,359.885162 290.477631,359.707092 291.845490,352.388428 
	C294.232056,339.619537 295.571381,326.723755 297.126495,313.855865 
	C298.003174,306.601715 298.308807,299.276367 298.802551,291.978455 
	C300.437622,267.811646 299.255951,243.737900 295.432495,219.859741 
	C293.779907,209.538910 290.883453,199.431488 285.301086,190.298874 
	C279.148041,180.232605 270.231659,175.775314 258.724609,177.442963 
	C247.604233,179.054581 240.015228,185.559265 236.126328,196.190994 
	C235.555237,197.752274 234.810898,199.344269 234.698364,200.960480 
	C234.428284,204.839767 232.767654,206.410309 228.702988,206.446869 
	C224.493515,206.484726 223.396530,204.431244 222.685944,200.851364 
	C218.118515,177.841263 192.749298,170.963760 175.662064,182.537338 
	C167.202759,188.266998 165.058517,198.074707 164.368195,207.664886 
	C162.224899,237.440125 163.838470,267.276550 163.400970,297.083588 
	C163.263351,306.459869 163.368912,306.388580 153.763702,306.370819 
	C139.379440,306.344238 128.697464,300.214752 122.646271,287.062439 
	C119.208809,279.591125 118.264725,271.439880 117.683754,263.259094 
	C116.443352,245.792801 117.011360,228.305832 116.855614,210.827011 
	C116.790237,203.489792 116.329887,196.184235 114.690323,189.009033 
	C112.835022,180.889755 108.825996,177.378067 101.483032,177.280960 
	C92.544327,177.162735 88.680206,180.153885 86.376709,188.693390 
	C84.749016,194.727570 85.437973,200.956757 84.578201,207.048355 
	C83.819641,212.422928 81.408806,214.157883 76.085823,213.349136 
	C73.463715,212.950745 72.215065,211.498474 72.298668,208.972900 
	C72.749825,195.343613 72.962738,181.752899 78.463089,168.799637 
	C82.505203,159.280487 89.997543,152.924316 99.260208,152.685074 
	C111.082016,152.379715 118.292648,156.985184 122.777603,167.468338 
	C126.568810,176.329910 127.779648,185.633728 128.388748,195.161346 
	C129.675980,215.296875 128.331177,235.465622 129.420502,255.591263 
	C129.791519,262.446136 131.093231,269.115265 135.273193,274.900604 
	C138.177109,278.919800 142.047974,281.051636 146.871368,281.989105 
	C150.472946,282.689087 151.742188,281.533936 151.716019,277.949219 
	C151.621094,264.951843 151.619461,251.953003 151.696030,238.955383 
	C151.789139,223.153137 150.791763,207.290771 153.713150,191.618881 
	C156.120056,178.706955 159.014328,165.806931 171.547729,158.534576 
	C187.860229,149.069489 214.557693,148.499405 225.668701,172.733017 
	C226.474304,174.490067 226.848083,176.575027 229.045471,177.872681 
	C231.675964,173.268463 233.648666,168.296295 237.118378,164.255066 
	C249.886566,149.383636 273.424652,148.551666 287.454651,162.444244 
	C296.120636,171.025345 300.859009,181.679565 304.312714,193.164566 
	C313.360565,223.252060 313.916321,254.141022 313.323547,285.146301 
	C312.893616,307.633759 310.401245,329.923676 306.528198,352.067871 
	C306.413788,352.722107 306.382660,353.390900 306.313049,354.052948 
	C305.558624,361.229767 305.554504,361.072662 312.956573,360.877167 
	C322.163696,360.634003 331.211090,359.779175 339.798340,356.108032 
	C344.595551,354.057190 344.752380,358.546722 346.271606,360.931091 
	C348.000702,363.644806 347.620087,365.830627 344.476257,367.441345 
	C333.445221,373.093018 321.627289,375.921295 309.379211,376.015442 
	C303.883484,376.057739 301.665527,377.881927 300.670746,382.897430 
	C296.101837,405.932587 289.201813,428.313232 281.361420,450.419525 
	C280.916626,451.673584 280.475281,452.929230 280.059174,454.192963 
	C279.079590,457.168060 278.040283,460.248077 273.922363,458.815186 
	C270.676514,457.685760 266.427307,458.272919 267.248383,451.896027 
	C268.073486,445.487610 262.889801,441.515259 257.613312,438.514526 
	C247.685120,432.868256 236.927124,429.451294 225.506195,426.651306 
M143.072006,386.418549 
	C148.552063,389.961182 154.527695,392.474548 160.598526,394.766602 
	C182.743622,403.127502 206.010727,407.459106 228.751114,413.682709 
	C240.624603,416.932281 252.544083,420.058136 263.579834,425.687439 
	C266.892303,427.377136 269.964142,429.538544 272.967560,431.374634 
	C273.608551,430.780243 273.988190,430.598389 274.073425,430.324768 
	C279.419281,413.170776 283.390717,395.667480 287.335571,378.156128 
	C288.044983,375.007050 286.237122,374.603668 283.782593,374.224976 
	C272.935547,372.551636 262.217407,370.252045 251.543442,367.669800 
	C227.324829,361.810852 203.839523,353.085510 179.229752,348.841217 
	C166.978424,346.728302 154.653793,344.799896 142.105927,347.790619 
	C125.861526,351.662384 124.926056,369.487976 133.160217,378.523590 
	C135.882523,381.510864 139.123169,383.818604 143.072006,386.418549 
z"/>
<path fill="#000000" opacity="1.000000" stroke="none" 
	d="
M402.058838,155.708771 
	C419.686737,162.514465 430.480377,175.316528 435.678131,192.629135 
	C442.159424,214.217209 440.208069,235.519318 430.345825,255.720901 
	C420.785614,275.303894 400.974518,285.176575 380.888275,281.315796 
	C366.448822,278.540405 360.282898,268.748291 364.137177,254.647430 
	C366.021698,247.752747 369.694733,241.933395 374.563751,236.708603 
	C377.277435,233.796631 379.457062,233.680130 382.582489,236.079117 
	C388.291168,240.460876 388.321411,240.266479 384.889587,246.751785 
	C382.422974,251.413025 381.497375,256.431213 384.987640,260.867188 
	C388.633484,265.500916 394.001678,265.437714 399.224182,264.378601 
	C403.422729,263.527130 406.777008,260.965240 409.745361,257.968231 
	C422.741333,244.846939 428.262207,217.054413 421.057892,199.945648 
	C416.024017,187.991272 407.210266,180.265778 394.411835,177.252274 
	C381.721252,174.264191 369.336212,175.017944 357.225739,179.893570 
	C350.264709,182.696030 344.322327,186.947052 340.105377,193.158554 
	C337.959869,196.318817 336.019196,196.522354 333.208832,194.401413 
	C331.886261,193.403275 330.385956,192.642059 328.976227,191.757507 
	C327.011139,190.524490 326.275360,189.016464 327.510406,186.744247 
	C337.698181,168.000702 352.165924,155.216843 374.190430,152.570923 
	C383.639893,151.435715 392.723938,152.713394 402.058838,155.708771 
z"/>
</svg>