<svg version="1.1" id="Layer_1" xmlns="http://www.w3.org/2000/svg" xmlns:xlink="http://www.w3.org/1999/xlink" x="0px" y="0px"
	 width="100%" viewBox="0 0 512 512" enable-background="new 0 0 512 512" xml:space="preserve">
<path fill="#000000" opacity="1.000000" stroke="none" 
	d="
M203.434784,185.442612 
	C189.469406,202.071274 185.833252,221.283478 187.727264,241.889969 
	C188.612686,251.523056 190.584747,260.989929 195.353241,269.611542 
	C196.791626,272.212189 197.964920,275.019196 200.651413,277.063477 
	C202.248260,275.857391 202.319717,273.974548 202.847290,272.349640 
	C212.191025,243.571564 234.743225,224.784531 263.761505,223.043076 
	C306.184143,220.497177 337.935944,248.501068 341.434113,289.311188 
	C341.789795,293.460693 342.273621,297.575409 342.203156,301.759186 
	C342.145111,305.207581 340.659760,306.725952 337.264648,307.375488 
	C326.731934,309.390747 326.754150,309.506836 326.689880,298.665436 
	C326.524658,270.794830 306.831940,250.041840 278.828522,248.343094 
	C269.012115,247.747604 259.220490,247.512848 249.553360,250.127396 
	C226.560028,256.346130 211.658417,275.362000 211.272415,299.093323 
	C211.219269,302.359344 211.761536,305.703461 210.519836,309.472778 
	C203.021347,306.368500 197.656265,301.020020 192.909256,295.127136 
	C179.583679,278.584808 173.509109,259.420105 172.597702,238.334122 
	C171.874603,221.604950 173.545807,205.396759 181.620529,190.416489 
	C194.474762,166.569183 215.015778,153.546005 241.198334,148.666290 
	C249.963211,147.032761 258.728088,147.389969 267.526947,148.625885 
	C270.963196,149.108566 271.524994,150.593369 270.850433,153.701202 
	C268.718903,163.521439 268.792816,163.763153 258.684998,163.234131 
	C236.921234,162.095078 218.376297,168.753967 203.434784,185.442612 
z"/>
</svg>