<svg version="1.1" id="Layer_1" xmlns="http://www.w3.org/2000/svg" xmlns:xlink="http://www.w3.org/1999/xlink" x="0px" y="0px"
	 width="100%" viewBox="0 0 512 512" enable-background="new 0 0 512 512" xml:space="preserve">
<path fill="#000000" opacity="1.000000" stroke="none" 
	d="
M361.410400,97.557129 
	C371.478973,107.495216 374.943420,119.857895 376.297760,133.017090 
	C376.992279,139.765213 378.061188,140.703262 384.355255,138.554138 
	C397.647552,134.015411 403.936218,123.847076 406.572784,110.773262 
	C406.801300,109.640175 406.967621,108.492989 407.242950,107.372032 
	C407.308197,107.106476 407.697357,106.920471 407.940247,106.700836 
	C416.584320,108.689468 418.246613,111.228859 416.847137,119.327187 
	C414.650909,132.036011 410.576904,143.883179 401.237244,153.204910 
	C395.854218,158.577591 389.530243,162.608307 381.722351,163.450119 
	C376.925171,163.967316 377.174561,167.217697 377.176178,170.686646 
	C377.210358,243.343430 377.200775,316.000214 377.209167,388.657013 
	C377.210846,403.363708 376.052704,417.891479 371.446899,432.004303 
	C365.364075,450.642761 349.409149,461.251648 330.003021,459.215790 
	C323.390869,458.522125 318.028229,455.269867 313.821716,450.219788 
	C311.480255,447.408752 309.455078,444.335022 307.273712,441.389740 
	C297.474243,428.158325 284.256256,427.903564 274.090698,440.771057 
	C271.923309,443.514557 269.871735,446.349304 267.741394,449.122437 
	C260.359283,458.731964 250.464066,460.570740 239.129181,458.747742 
	C215.745728,454.987000 203.407455,435.253448 199.678604,417.906830 
	C192.699783,385.441132 203.961105,358.790527 225.954620,335.461395 
	C241.569611,318.898163 259.858765,305.449280 277.063904,290.732544 
	C294.477905,275.837219 311.057983,260.174591 320.968201,238.921890 
	C326.947235,226.099762 329.915009,212.545990 326.706085,198.652267 
	C323.261139,183.736359 312.994263,176.798431 297.379974,177.064133 
	C284.243530,177.287674 273.480286,186.460709 270.238953,200.095383 
	C269.549896,202.993942 269.788483,206.371841 264.954315,206.448166 
	C260.471466,206.518951 258.495392,205.289566 257.720428,200.656219 
	C254.393600,180.765930 229.796616,169.791672 211.487854,181.918228 
	C202.930084,187.586319 201.157501,197.014633 199.430283,206.258224 
	C198.448746,211.511139 198.307556,216.824860 198.320206,222.166519 
	C198.381363,247.996216 198.353394,273.826111 198.342606,299.655945 
	C198.339783,306.415527 198.316132,306.408417 191.370361,306.347382 
	C177.939758,306.229340 166.222656,302.356110 159.162994,290.055237 
	C154.528137,281.979370 153.335526,272.790802 152.725815,263.595062 
	C151.368881,243.130005 151.984100,222.629929 151.636765,202.146881 
	C151.531784,195.955460 150.722473,189.870422 148.030533,184.188599 
	C145.055298,177.908844 139.699249,176.755997 133.402176,177.151688 
	C127.424049,177.527344 123.872284,180.709686 122.107903,186.110077 
	C119.916489,192.817520 119.448044,199.791290 119.344948,206.795914 
	C119.260490,212.534073 114.404228,215.472351 109.209213,212.969528 
	C107.958626,212.367050 107.587051,211.419098 107.593925,210.162003 
	C107.681610,194.115723 108.357765,178.213715 116.430847,163.647614 
	C120.938576,155.514404 128.132675,152.562408 136.827438,152.748581 
	C145.368790,152.931503 152.172379,156.344116 156.370987,164.326691 
	C161.985336,175.000961 162.440979,186.657440 163.308990,198.241776 
	C164.729736,217.202927 163.899475,236.210907 164.312912,255.194046 
	C164.445557,261.283905 165.890121,267.075623 168.680679,272.464325 
	C171.435928,277.784851 175.546005,281.178497 181.836731,281.967285 
	C185.760193,282.459198 186.734238,281.297180 186.716202,277.532623 
	C186.610809,255.536453 186.495743,233.535934 186.834656,211.543823 
	C187.003601,200.580887 188.235703,189.675247 191.606705,179.091904 
	C196.817215,162.733307 207.967972,153.904449 225.348801,152.760178 
	C242.148972,151.654114 254.430298,159.069214 261.612213,174.616211 
	C262.141022,175.760910 262.353607,177.187851 264.016632,177.909836 
	C267.015564,173.490967 268.522247,168.255692 272.093903,164.252899 
	C287.343872,147.162064 317.863556,149.445557 331.643860,168.542877 
	C339.314941,179.173767 341.710419,191.326584 342.131195,203.894043 
	C343.328979,239.668411 331.498840,270.375122 306.114258,295.958374 
	C287.725372,314.491150 266.879761,329.974579 246.359100,345.892761 
	C236.547974,353.503418 227.674469,361.993073 220.888916,372.459015 
	C213.397751,384.013306 210.739334,396.668335 213.846817,410.103546 
	C217.123337,424.269562 228.944778,433.089966 243.677032,434.805023 
	C257.791504,436.448151 267.508698,430.900360 274.461151,419.174316 
	C275.395660,417.598145 276.328522,416.020813 277.281738,414.455963 
	C283.571808,404.129700 292.922089,402.918762 301.875641,411.209686 
	C305.238403,414.323608 307.400238,418.294769 309.788940,422.083801 
	C318.553009,435.985718 327.622406,436.278015 339.764435,434.174683 
	C354.414093,431.636993 361.187378,423.404938 363.593262,407.355957 
	C364.358978,402.248077 364.721924,397.131836 364.718414,391.951782 
	C364.668549,317.961853 364.636749,243.971802 364.804626,169.982224 
	C364.815552,165.162857 363.245850,163.379608 358.718475,162.292450 
	C335.130463,156.628326 320.861603,138.142776 321.733887,114.467422 
	C322.088074,104.854141 325.840057,96.811287 335.203491,92.876602 
	C344.603241,88.926666 353.452911,90.271599 361.410400,97.557129 
M338.100281,127.247459 
	C344.692657,135.573639 353.868073,138.147034 364.409454,139.361099 
	C364.420685,131.451294 363.021667,124.459335 359.891266,117.757698 
	C357.425598,112.479080 354.431488,107.843071 348.404968,106.072128 
	C341.286682,103.980362 335.622620,107.812195 335.158295,115.163498 
	C334.902313,119.216255 335.365021,123.141579 338.100281,127.247459 
z"/>
</svg>