<svg version="1.1" id="Layer_1" xmlns="http://www.w3.org/2000/svg" xmlns:xlink="http://www.w3.org/1999/xlink" x="0px" y="0px"
	 width="100%" viewBox="0 0 512 512" enable-background="new 0 0 512 512" xml:space="preserve">
<path fill="#000000" opacity="1.000000" stroke="none" 
	d="
M235.752136,406.084900 
	C237.885498,414.341919 241.112488,421.545410 246.570312,427.684082 
	C250.049515,431.597321 254.224991,434.018311 259.410950,434.692627 
	C264.667511,435.376068 265.650330,434.578400 265.677551,429.321960 
	C265.735291,418.173615 265.580353,407.058533 267.611786,395.978912 
	C272.063538,371.698761 289.435059,354.829803 313.810699,350.467285 
	C331.798798,347.247894 348.967804,348.623444 365.281982,356.945068 
	C379.321594,364.106537 387.367676,375.987610 391.531830,391.023102 
	C397.344391,412.010529 394.615356,433.410034 395.260895,454.649689 
	C395.418427,459.833130 391.685059,459.154358 388.335632,459.381256 
	C384.493622,459.641541 382.855682,458.119904 382.868530,454.252167 
	C382.912903,440.921326 383.078705,427.583221 382.725433,414.260406 
	C382.125153,391.624115 371.519073,378.988342 349.274109,374.977936 
	C332.705627,371.990875 316.005249,372.327240 300.157806,378.499664 
	C286.058716,383.991150 278.923615,395.312469 278.370026,410.297668 
	C277.853546,424.277893 278.085785,438.285309 277.958893,452.280518 
	C277.898407,458.946991 277.491821,459.317780 270.830292,459.332001 
	C246.405930,459.384186 230.895020,447.838226 224.086197,423.894409 
	C218.360977,403.761292 218.392685,383.750854 227.729782,364.526428 
	C235.717087,348.081055 247.703613,334.729858 261.281677,322.716400 
	C281.234467,305.062683 303.231110,289.736481 321.608032,270.304016 
	C334.920868,256.226501 345.978271,240.692444 349.176056,220.929138 
	C350.423798,213.217651 351.143158,205.399261 349.155304,197.691605 
	C345.749756,184.486969 335.894928,177.303726 320.934692,176.881088 
	C309.085815,176.546356 297.404968,184.892944 293.536255,196.487701 
	C293.062958,197.906052 292.500641,199.348602 292.365570,200.815506 
	C292.000702,204.778381 290.355652,206.519623 286.005005,206.525482 
	C281.654633,206.531342 280.759827,204.279465 280.083160,200.863220 
	C275.302582,176.727997 248.451157,171.105423 231.861938,183.393463 
	C226.861023,187.097763 224.986847,193.104355 223.381836,198.911469 
	C221.186371,206.854904 221.166550,215.039658 221.164352,223.205566 
	C221.157608,248.369690 221.165817,273.533813 221.144073,298.697937 
	C221.137589,306.192505 220.920242,306.104858 213.681702,306.409424 
	C188.729507,307.459320 177.874146,290.851807 175.680374,268.628876 
	C173.826706,249.851181 175.013596,231.005142 174.481003,212.200195 
	C174.256119,204.259247 174.154556,196.248901 172.002930,188.436905 
	C169.873978,180.707153 165.725647,177.001511 158.457230,177.047256 
	C150.597794,177.096710 146.376801,180.635727 144.158722,188.380356 
	C142.432465,194.407715 142.310120,200.505432 142.239929,206.677368 
	C142.182938,211.689926 139.935577,213.784241 135.199890,213.737762 
	C131.917648,213.705536 129.684402,212.404327 129.766327,208.727463 
	C130.070953,195.054810 130.554993,181.420670 136.076309,168.550049 
	C142.207138,154.258591 156.364105,148.469482 169.668884,155.132248 
	C176.728851,158.667755 180.071167,165.251694 182.275299,172.385666 
	C185.446075,182.648376 186.303665,193.254883 186.302765,203.948151 
	C186.301559,218.280045 185.991302,232.621368 186.423294,246.940262 
	C186.681519,255.499802 186.687836,264.284149 191.102234,272.168365 
	C193.836487,277.051788 197.718796,280.280182 203.219025,281.788391 
	C207.426178,282.942047 208.993073,281.839142 208.957886,277.395294 
	C208.819366,259.898132 208.633926,242.394272 208.969727,224.902573 
	C209.250092,210.298859 209.784668,195.738602 213.477859,181.371368 
	C217.740234,164.789932 229.790085,154.106628 247.023209,152.768143 
	C263.829498,151.462830 276.195862,157.707153 283.459229,173.232391 
	C284.022064,174.435486 284.709106,175.581528 285.363403,176.739990 
	C285.518951,177.015396 285.775116,177.233978 286.254242,177.792648 
	C288.233307,174.362503 290.003113,171.061310 291.988098,167.894974 
	C300.738464,153.936905 314.978058,150.434906 330.442352,153.583817 
	C350.577789,157.683899 359.521332,172.023438 363.077820,190.691620 
	C367.063660,211.613525 364.908295,232.134506 357.304321,251.946686 
	C349.327362,272.730804 335.860168,289.684937 319.662231,304.754700 
	C300.963531,322.151062 279.493835,336.109070 260.463623,353.061310 
	C248.886902,363.373993 238.816620,374.760101 235.849335,390.764557 
	C234.926239,395.743530 235.233887,400.702667 235.752136,406.084900 
z"/>
</svg>