<svg version="1.1" id="Layer_1" xmlns="http://www.w3.org/2000/svg" xmlns:xlink="http://www.w3.org/1999/xlink" x="0px" y="0px"
	 width="100%" viewBox="0 0 512 512" enable-background="new 0 0 512 512" xml:space="preserve">
<path fill="#000000" opacity="1.000000" stroke="none" 
	d="
M166.423264,436.411224 
	C151.785965,403.197357 155.242371,372.647186 177.966125,344.453735 
	C190.618896,328.755402 206.116531,316.146210 221.606735,303.522858 
	C239.180008,289.201965 256.823303,274.967010 270.534119,256.643555 
	C283.055725,239.909439 289.895294,221.362244 286.950409,200.214172 
	C285.090118,186.854691 275.504120,178.738480 262.456970,177.220322 
	C247.115723,175.435165 234.718765,184.905228 231.191040,195.918106 
	C230.632523,197.661713 229.760223,199.408569 229.683090,201.182190 
	C229.489014,205.645615 227.118027,206.585999 223.117203,206.455887 
	C219.839203,206.349289 218.425064,205.182892 217.777100,201.996185 
	C213.646072,181.679153 194.640610,171.727493 175.423004,179.648682 
	C167.407684,182.952484 163.801285,189.675079 161.292114,197.352615 
	C158.556580,205.722702 158.604370,214.457748 158.488358,223.040741 
	C158.150543,248.033737 158.371231,273.034271 158.375443,298.031860 
	C158.376846,306.423981 158.378586,306.284943 149.772324,306.391724 
	C135.499649,306.568787 124.447899,301.182129 118.071686,288.027832 
	C114.782639,281.242462 113.357521,273.842133 112.767097,266.339081 
	C111.433273,249.388733 111.821716,232.399582 111.764381,215.420959 
	C111.732323,205.929565 111.634621,196.439819 109.130699,187.177826 
	C106.104874,175.985336 94.316048,174.850204 87.457153,179.264282 
	C81.783119,182.915848 80.880074,189.375702 80.239357,195.565460 
	C79.776993,200.032227 79.814453,204.552444 79.308876,209.012527 
	C78.793610,213.558167 75.148643,213.628937 71.739204,213.592331 
	C68.382492,213.556305 66.954559,211.463440 67.112495,208.347992 
	C67.793549,194.913086 67.805061,181.398895 73.502861,168.723251 
	C77.628159,159.545853 83.641388,153.103577 94.327759,152.702072 
	C106.053001,152.261505 112.954414,156.671127 117.871552,167.501068 
	C121.148033,174.717499 122.670944,182.430252 123.145477,190.209778 
	C124.302086,209.171371 123.963127,228.170929 123.877403,247.162277 
	C123.842880,254.812225 124.461235,262.502380 127.414749,269.682068 
	C130.009583,275.989838 134.410004,280.391388 141.422897,281.980011 
	C145.253113,282.847656 146.714722,281.782837 146.672760,277.935364 
	C146.591019,270.437042 146.653564,262.937103 146.663376,255.437836 
	C146.684067,239.606323 146.379776,223.765060 146.846909,207.946655 
	C147.165848,197.147415 148.947754,186.452805 152.605148,176.175949 
	C157.935867,161.197281 169.333160,154.393738 184.423401,152.832703 
	C201.258087,151.091232 213.528198,157.781219 220.883850,173.178665 
	C221.594681,174.666626 222.502121,176.060638 223.347061,177.548950 
	C225.272995,177.040726 225.279892,175.280579 225.855988,174.088318 
	C231.678299,162.038757 240.372314,153.737549 254.337402,152.763641 
	C270.425751,151.641647 283.954315,156.592682 293.048126,170.636185 
	C299.985413,181.349365 301.821899,193.613129 302.214355,205.966095 
	C303.378143,242.599304 289.036438,272.849274 263.524353,298.480225 
	C247.825378,314.252380 229.793304,327.144989 212.484390,340.943481 
	C201.277451,349.877625 190.444901,359.108307 181.803146,370.803528 
	C168.581940,388.696259 169.711655,412.816681 185.168228,428.853149 
	C188.677063,432.493591 193.069794,434.111420 197.989288,434.945801 
	C201.587051,435.555969 202.969803,434.412231 202.910355,430.884796 
	C202.775681,422.892761 203.060181,414.914490 203.631104,406.936584 
	C204.904785,389.138092 210.501801,373.324829 224.841354,361.791016 
	C235.614502,353.125793 248.508987,349.620453 262.000031,348.998871 
	C279.622101,348.186981 296.501678,350.845764 310.970978,362.307892 
	C320.685028,370.003143 326.120117,380.210358 329.264740,391.860657 
	C332.376038,403.387421 332.514679,415.199493 332.436401,427.037689 
	C332.376953,436.028381 332.480591,445.023621 332.714081,454.011536 
	C332.859344,459.604340 329.265350,459.271667 325.385406,459.417786 
	C321.018982,459.582275 320.585785,457.224487 320.619019,453.776123 
	C320.729828,442.278290 320.686707,430.778687 320.656158,419.279907 
	C320.638794,412.754852 319.717590,406.294556 317.843994,400.091461 
	C313.823120,386.779114 304.595490,379.012726 291.138519,375.888580 
	C274.585052,372.045563 258.077759,372.626556 241.786530,376.843994 
	C225.659653,381.018890 216.125320,394.111786 215.445450,412.761566 
	C214.960037,426.076996 215.254333,439.420471 215.175369,452.751312 
	C215.138901,458.909729 214.740128,459.256592 208.650955,459.338654 
	C190.447906,459.584015 175.877457,453.099304 166.423264,436.411224 
z"/>
<path fill="#000000" opacity="1.000000" stroke="none" 
	d="
M395.744415,152.804871 
	C431.930420,158.581039 446.578613,192.454330 443.927307,222.488205 
	C442.822266,235.006149 440.492706,247.154877 434.152802,258.262665 
	C424.242676,275.625610 405.058258,284.900177 386.092896,281.347076 
	C371.395447,278.593567 365.225647,268.728088 369.261078,254.406647 
	C371.199127,247.528671 374.810883,241.662460 379.773132,236.522385 
	C382.290314,233.914932 384.535706,233.161652 387.318542,236.023193 
	C388.351013,237.084824 389.640594,237.921707 390.892639,238.738968 
	C393.157898,240.217621 393.733063,241.869720 391.725861,244.003723 
	C391.273499,244.484650 390.909058,245.056946 390.552338,245.617874 
	C387.251556,250.808548 386.815918,257.046661 389.772186,260.617981 
	C393.695038,265.356873 399.010712,265.495148 404.418610,264.296143 
	C407.691986,263.570374 410.519836,261.727997 413.054932,259.472656 
	C427.898743,246.266830 433.880951,215.806458 425.124878,197.892731 
	C419.655762,186.703644 410.887543,179.799469 398.679596,177.091797 
	C386.290894,174.344055 374.228119,175.159286 362.448853,179.825378 
	C355.328278,182.646057 349.214752,186.929977 344.943237,193.368881 
	C342.967957,196.346527 341.205872,196.280792 338.403687,194.573990 
	C330.549927,189.790253 330.355713,189.807693 335.060333,182.177475 
	C346.270233,163.996597 362.178925,153.207840 383.872681,152.017090 
	C387.659637,151.809219 391.494934,152.482529 395.744415,152.804871 
z"/>
</svg>