<svg version="1.1" id="Layer_1" xmlns="http://www.w3.org/2000/svg" xmlns:xlink="http://www.w3.org/1999/xlink" x="0px" y="0px"
	 width="100%" viewBox="0 0 512 512" enable-background="new 0 0 512 512" xml:space="preserve">
<path fill="#000000" opacity="1.000000" stroke="none" 
	d="
M272.636658,302.780457 
	C252.984665,313.056671 234.319397,310.732574 216.575897,299.243561 
	C199.083923,287.917450 190.483917,271.302155 189.746246,250.603470 
	C189.629959,247.340790 188.477264,245.999756 185.275528,246.335052 
	C184.284851,246.438782 183.274078,246.337280 182.278854,246.413055 
	C175.558426,246.924683 175.368896,247.168671 175.309830,253.774384 
	C175.197906,266.289795 174.504044,278.782684 170.125336,290.639374 
	C167.013947,299.064392 161.770645,305.805450 152.471313,308.229553 
	C136.462402,312.402649 123.274651,303.202850 120.679840,286.065369 
	C117.398941,264.396606 128.383057,242.903946 148.186752,232.318878 
	C151.121262,230.750381 153.997421,228.828659 157.146011,227.959427 
	C162.444260,226.496689 164.281113,223.511230 163.706726,218.149750 
	C162.717560,208.916458 163.232391,199.503891 160.381134,190.500504 
	C157.488052,181.365021 151.206940,176.910400 141.753311,177.178406 
	C133.505859,177.412231 128.406067,181.849136 126.197220,191.265152 
	C125.216248,195.446945 124.897476,199.786758 124.335754,204.062424 
	C124.184570,205.213211 124.155777,206.396912 124.223061,207.556656 
	C124.505295,212.421158 121.576897,213.271744 117.537132,213.404312 
	C113.069756,213.550949 111.516975,211.465073 111.812378,207.343613 
	C112.868324,192.610962 112.799385,177.609070 121.425301,164.601730 
	C128.087830,154.555054 137.947906,151.605423 149.281296,152.956879 
	C159.882065,154.220978 166.006500,161.080978 169.510376,170.678970 
	C174.863983,185.343811 174.929459,200.696457 175.295227,215.994995 
	C175.461548,222.951279 175.601639,223.190536 182.270950,222.384003 
	C189.578751,221.500244 189.515945,221.498428 189.726608,214.157227 
	C190.304932,194.002579 196.707840,176.582138 213.837006,164.532257 
	C223.882370,157.465607 235.384567,154.220627 247.495392,153.162399 
	C263.317719,151.779861 278.675110,153.158966 293.086243,160.758926 
	C309.185425,169.249146 317.819458,182.844559 321.319092,200.281860 
	C323.298248,210.143387 323.306366,220.092209 323.398193,230.079041 
	C323.525269,243.891998 322.540222,257.734070 324.315369,271.514130 
	C324.916565,276.180786 325.730347,280.779144 329.143066,284.326263 
	C334.831604,290.238770 343.091644,288.483917 345.975891,280.834778 
	C348.001617,275.462433 348.625061,269.850128 348.632050,264.176819 
	C348.674072,230.015854 348.654938,195.854797 348.666382,161.693771 
	C348.668518,155.286102 349.069550,154.963837 355.407043,155.071533 
	C370.118744,155.321548 382.929688,159.228928 389.399963,173.962540 
	C392.484741,180.986877 393.883057,188.603836 394.305084,196.290466 
	C396.197113,230.748962 394.856232,265.239197 395.198547,299.713593 
	C395.258759,305.777802 390.706543,308.575165 385.017670,306.145935 
	C382.809448,305.202942 383.137726,303.190613 383.120911,301.432281 
	C383.054047,294.434021 383.099640,287.434784 383.074921,280.436005 
	C382.996002,258.109100 382.869568,235.782288 382.837708,213.455322 
	C382.827637,206.396393 381.897308,199.479141 379.565887,192.848434 
	C377.334473,186.502182 373.851746,181.192215 366.448425,179.848236 
	C360.989563,178.857224 360.345428,179.251114 360.343140,184.850937 
	C360.330933,214.512711 360.317993,244.174515 360.364563,273.836212 
	C360.375641,280.889923 359.562286,287.780640 356.997070,294.385223 
	C353.836060,302.523865 348.682098,308.465210 339.386353,309.230072 
	C329.203552,310.067902 321.987946,305.939636 317.453430,296.925934 
	C312.349365,286.780090 312.225464,275.678467 311.760315,264.745544 
	C311.059570,248.275238 312.561737,231.746368 310.976776,215.297195 
	C308.897156,193.714264 299.270294,182.776398 277.883392,178.741302 
	C262.216156,175.785324 246.405563,175.962524 230.894791,180.405060 
	C213.757706,185.313385 202.737076,199.765366 202.078674,217.515671 
	C201.929871,221.527618 203.330292,222.542786 207.112411,222.882980 
	C222.388931,224.257004 237.518890,226.600891 251.689682,232.883270 
	C268.802002,240.469757 282.088623,251.602249 284.859772,271.437073 
	C286.592529,283.839844 284.504700,295.103546 272.636658,302.780457 
M262.083374,265.433533 
	C245.467545,252.300720 225.481827,249.721420 205.430374,247.375031 
	C203.146057,247.107727 202.018066,248.329559 202.027374,250.603195 
	C202.049240,255.940201 202.217102,261.260284 204.277390,266.302521 
	C212.739700,287.012817 237.614258,298.963562 259.600922,292.889069 
	C270.538177,289.867279 273.746613,281.708160 267.787384,271.941864 
	C266.398438,269.665588 264.769562,267.548676 262.083374,265.433533 
M163.445633,257.141113 
	C163.402939,254.606216 164.529037,251.901688 162.479462,249.511566 
	C155.714142,250.912842 149.715195,253.667480 144.290680,257.638062 
	C136.064758,263.659241 132.596313,271.912201 133.406906,281.964508 
	C134.229218,292.162109 142.180618,297.120209 150.819748,292.965820 
	C154.951508,290.978973 157.464447,287.601715 159.250473,283.506866 
	C162.805496,275.356293 162.747513,266.649170 163.445633,257.141113 
z"/>
</svg>