<svg version="1.1" id="Layer_1" xmlns="http://www.w3.org/2000/svg" xmlns:xlink="http://www.w3.org/1999/xlink" x="0px" y="0px"
	 width="100%" viewBox="0 0 512 512" enable-background="new 0 0 512 512" xml:space="preserve">
<path fill="#000000" opacity="1.000000" stroke="none" 
	d="
M374.739380,308.316162 
	C364.279205,308.188934 354.228455,308.360535 344.484894,305.834686 
	C322.679047,300.181976 312.914429,285.820374 309.702728,264.438843 
	C307.638336,250.695297 308.952728,236.823669 308.755157,223.011383 
	C308.683289,217.985291 308.279266,213.029602 307.232849,208.144882 
	C303.538025,190.897202 293.286835,181.678436 273.406006,178.476089 
	C258.680725,176.104156 243.882278,176.261780 229.244949,179.522369 
	C209.098770,184.010101 198.350082,198.154388 199.025940,218.758484 
	C199.146362,222.429489 201.155685,222.516785 203.887329,222.731796 
	C221.750870,224.137894 239.227448,227.200516 255.214279,235.891571 
	C271.675446,244.840485 282.312042,257.680511 282.343903,277.397797 
	C282.369293,293.105804 274.464966,303.332245 259.117188,307.501709 
	C235.239395,313.988434 207.538040,301.732697 194.791977,279.180359 
	C189.938019,270.591980 187.189346,261.426727 186.973984,251.616409 
	C186.883286,247.485229 185.431671,245.796341 181.355331,246.369736 
	C179.710800,246.601074 178.052307,246.784027 176.394333,246.858231 
	C173.180099,247.002106 172.211426,248.727753 172.297287,251.775116 
	C172.578979,261.771088 172.349640,271.750214 170.208847,281.581329 
	C168.445282,289.679962 165.697098,297.425812 159.193314,302.927704 
	C151.672546,309.289917 142.832199,311.341888 133.529465,307.648285 
	C124.022118,303.873383 119.187294,295.981201 117.768448,286.166656 
	C114.210861,261.557983 129.622696,236.535339 153.162064,228.269501 
	C160.649857,225.640152 160.674301,225.640106 160.653625,217.749130 
	C160.627823,207.894821 160.100677,198.079529 156.503052,188.762939 
	C152.052643,177.238007 138.888870,173.235291 129.515808,180.554382 
	C124.732292,184.289688 123.275383,189.867218 122.396156,195.505676 
	C121.757713,199.599960 121.603668,203.771957 121.284660,207.913254 
	C120.951210,212.241959 119.037094,213.499985 113.704124,213.356583 
	C109.608490,213.246429 108.716736,211.110367 108.984612,207.489380 
	C109.977570,194.066818 110.070518,180.472900 116.654381,168.162628 
	C123.886620,154.640030 138.728363,149.106400 152.859650,154.960114 
	C161.367416,158.484344 165.647202,165.801361 168.110962,174.249512 
	C172.168335,188.162094 172.481430,202.471451 172.362549,216.819229 
	C172.312363,222.874313 172.589386,223.048584 178.590500,222.287140 
	C179.745956,222.140533 180.914780,221.927460 182.068680,221.971970 
	C185.772186,222.114761 186.827057,220.307297 186.866394,216.762451 
	C186.983444,206.219788 188.491272,195.973450 193.041031,186.216278 
	C200.199066,170.865585 212.011185,160.957214 228.003708,156.423401 
	C248.753784,150.540878 269.452789,150.523422 289.380035,160.010117 
	C305.881805,167.866074 314.517273,181.789642 318.225464,199.084045 
	C321.601166,214.827881 320.880859,230.865860 321.023132,246.832306 
	C321.058655,250.819366 321.020416,254.882431 321.747467,258.773926 
	C323.984253,270.746399 331.889038,277.465607 343.199707,280.594177 
	C350.935913,282.734039 358.897888,283.367004 366.892151,283.707977 
	C379.015045,284.225037 390.584717,286.588776 401.116150,293.144196 
	C414.065247,301.204468 419.672455,313.583679 422.121429,327.847046 
	C422.961761,332.741058 418.291351,331.972626 415.686859,333.048431 
	C413.124878,334.106689 412.226288,332.396515 411.695801,330.113647 
	C409.592712,321.063171 403.639160,315.468536 395.213379,312.221680 
	C388.782623,309.743652 382.011810,308.943634 374.739380,308.316162 
M202.193344,267.285187 
	C210.912735,286.998291 235.399612,298.843781 256.122620,293.373383 
	C267.507690,290.368011 270.817291,282.389191 264.924927,272.161255 
	C263.500702,269.689087 261.856354,267.348389 259.602509,265.603455 
	C242.820496,252.610825 223.053528,248.863586 202.586945,247.345200 
	C200.041473,247.156357 199.039871,248.416504 199.087433,250.962509 
	C199.187668,256.329254 199.816986,261.571838 202.193344,267.285187 
M159.770538,268.400635 
	C160.441101,262.218994 161.385010,256.035858 160.097656,249.820847 
	C144.681900,251.491745 132.774628,262.452484 130.549072,276.672272 
	C129.352127,284.319946 132.904037,292.231720 138.267120,293.864014 
	C145.452728,296.051025 152.610123,292.200562 156.142899,284.203766 
	C158.239441,279.457947 159.378250,274.471405 159.770538,268.400635 
z"/>
</svg>