<svg version="1.1" id="Layer_1" xmlns="http://www.w3.org/2000/svg" xmlns:xlink="http://www.w3.org/1999/xlink" x="0px" y="0px"
	 width="100%" viewBox="0 0 512 512" enable-background="new 0 0 512 512" xml:space="preserve">
<path fill="#000000" opacity="1.000000" stroke="none" 
	d="
M305.394592,195.666061 
	C301.795563,189.325745 296.858704,184.859604 290.474426,182.407593 
	C270.244141,174.637650 249.653229,175.008179 229.343536,181.567398 
	C213.836456,186.575562 206.737473,198.897293 206.388565,214.469269 
	C205.754211,242.779800 206.015808,271.110535 205.912842,299.432831 
	C205.887650,306.358673 205.904205,306.358734 199.014420,306.356964 
	C177.906021,306.351471 166.787888,298.123199 162.147720,278.653320 
	C160.490723,271.700623 159.722672,264.580170 159.635895,257.382111 
	C159.409149,238.570145 159.009109,219.760300 158.694656,200.949310 
	C158.624695,196.763336 157.900864,192.687012 156.875946,188.642380 
	C154.706314,180.080475 150.938141,177.046692 142.535706,177.176285 
	C134.457428,177.300873 130.204300,180.970505 128.337646,189.145309 
	C126.879562,195.530762 127.243256,202.066208 126.577354,208.516968 
	C126.021454,213.902206 122.475891,213.165848 119.030762,213.329803 
	C114.929008,213.524979 114.632217,210.963089 114.635384,207.792450 
	C114.648575,194.585007 115.464783,181.516937 120.599724,169.110184 
	C126.246964,155.465622 136.928177,149.985504 151.102356,153.823242 
	C160.603775,156.395813 164.640839,164.134125 167.167297,172.681259 
	C170.447372,183.777939 171.062790,195.285553 171.203964,206.776428 
	C171.396347,222.436584 171.035065,238.107742 171.462662,253.759125 
	C171.695099,262.267395 173.138824,270.729156 179.726105,277.155365 
	C180.911865,278.312134 182.146927,279.512787 183.572525,280.313354 
	C190.671448,284.300018 193.678421,282.557098 193.690933,274.605743 
	C193.721344,255.278259 193.455276,235.943375 193.916962,216.625992 
	C194.215988,204.115067 196.416672,191.840134 202.646973,180.648483 
	C211.028900,165.591812 224.364853,157.555527 240.778412,154.335571 
	C256.045074,151.340607 271.331940,151.718109 286.082031,157.063446 
	C309.297455,165.476562 319.756439,183.588226 322.251648,206.974197 
	C324.695648,229.880249 322.831909,252.905975 323.305878,275.873047 
	C323.432251,281.997223 324.484436,283.000275 330.395874,281.510345 
	C336.976562,279.851776 340.841095,275.200562 342.894897,269.021301 
	C344.790802,263.317017 345.706329,257.417572 345.699127,251.365875 
	C345.663330,221.374207 345.680359,191.382477 345.692352,161.390762 
	C345.694885,155.111328 345.773407,154.995682 352.171478,155.069794 
	C360.066681,155.161240 367.890228,156.011368 374.785858,160.201965 
	C384.529083,166.123123 388.477722,175.701782 390.322662,186.383301 
	C393.083649,202.368576 392.923340,218.526611 392.953979,234.663681 
	C392.995422,256.490845 392.976288,278.318268 392.903137,300.145294 
	C392.896271,302.201080 393.570374,305.178833 391.254303,305.957458 
	C388.330841,306.940308 384.847961,307.050079 381.954803,305.725616 
	C379.876007,304.773956 380.728027,302.136200 380.724731,300.221527 
	C380.676086,271.896149 380.761017,243.570236 380.622345,215.245392 
	C380.582367,207.078003 379.589417,198.975906 376.492981,191.283646 
	C373.941345,184.944641 369.462799,180.869614 362.676300,179.548477 
	C359.604675,178.950531 357.770020,179.324860 357.818237,183.436890 
	C358.042908,202.595428 358.332123,221.769028 357.804840,240.915390 
	C357.413086,255.139771 358.203491,269.529694 353.550873,283.426758 
	C348.949432,297.171021 338.394196,305.913879 324.066162,306.209045 
	C308.896179,306.521515 311.166260,308.287933 311.120270,293.990082 
	C311.039307,268.832031 311.305603,243.672775 311.204926,218.514923 
	C311.173370,210.630463 309.436249,202.999298 305.394592,195.666061 
z"/>
</svg>