<svg version="1.1" id="Layer_1" xmlns="http://www.w3.org/2000/svg" xmlns:xlink="http://www.w3.org/1999/xlink" x="0px" y="0px"
	 width="100%" viewBox="0 0 512 512" enable-background="new 0 0 512 512" xml:space="preserve">
<path fill="#000000" opacity="1.000000" stroke="none" 
	d="
M149.341248,206.037384 
	C149.095367,212.566971 144.545822,215.367523 138.860046,213.013840 
	C136.936798,212.217712 136.715424,210.686554 136.698975,208.947906 
	C136.575607,195.904297 137.476181,182.966705 141.825867,170.555267 
	C146.878586,156.137817 156.658096,150.329422 171.064316,152.628372 
	C179.330994,153.947571 184.429626,159.100449 187.608017,166.313934 
	C191.689178,175.576279 192.793671,185.497589 193.356796,195.508759 
	C194.461533,215.148422 193.847961,234.812653 194.327301,254.459717 
	C194.478973,260.676178 195.790848,266.661255 198.834320,272.179779 
	C201.196869,276.463623 204.711578,279.359192 209.312775,280.943665 
	C214.363388,282.682922 215.695465,281.808258 215.707001,276.545685 
	C215.747894,257.882935 215.610855,239.218948 215.775238,220.557495 
	C215.907364,205.557297 216.895462,190.644150 221.738358,176.242615 
	C227.984802,157.667297 243.331985,151.157730 261.959717,152.199173 
	C276.083252,152.988800 285.322601,160.742355 291.219788,173.115097 
	C291.780579,174.291672 292.430511,175.425720 293.355774,177.179977 
	C295.018097,174.149200 296.362152,171.577011 297.815979,169.068405 
	C305.424835,155.938934 316.411346,150.700287 331.886505,152.306870 
	C354.775391,154.683121 364.536530,165.175491 368.254974,189.544739 
	C369.687927,198.935898 370.447357,208.349396 370.400330,217.871735 
	C370.264526,245.365433 370.292938,272.860657 370.440857,300.354309 
	C370.463989,304.657562 369.593140,306.771118 364.684692,306.476807 
	C358.265625,306.091949 357.937164,306.176208 357.919373,300.218140 
	C357.831818,270.891846 357.763336,241.565445 357.720398,212.239044 
	C357.712494,206.852554 356.650238,201.650482 355.145660,196.532150 
	C351.375366,183.706116 343.438141,177.633148 329.962921,177.140533 
	C316.762482,176.657944 305.760254,183.472763 301.477020,194.859482 
	C300.776245,196.722504 300.282440,198.672546 299.812012,200.611252 
	C298.477631,206.110336 295.826172,207.603622 290.222168,206.198807 
	C288.108032,205.668839 287.852905,204.244720 287.623688,202.508545 
	C286.837189,196.551086 284.188477,191.504379 280.324646,186.913895 
	C267.636139,171.839096 244.764847,175.955780 237.186752,185.554001 
	C232.138367,191.948196 230.211700,199.419296 229.296860,207.294800 
	C227.367447,223.904297 228.603073,240.573471 228.370819,257.213379 
	C228.166199,271.874268 228.225891,286.541229 228.387115,301.203125 
	C228.429337,305.042664 227.296219,306.572266 223.273315,306.445770 
	C217.606003,306.267548 211.946487,306.325958 206.452774,304.699005 
	C192.079025,300.442383 186.265182,289.347198 183.693146,275.831635 
	C180.394974,258.500214 181.864670,240.954529 181.702698,223.493240 
	C181.602203,212.658310 181.397858,201.852936 179.639008,191.141678 
	C177.906387,180.589951 172.887695,176.383408 163.226562,177.218842 
	C156.202438,177.826263 151.998611,182.427292 150.566177,191.664841 
	C149.854294,196.255768 149.733871,200.938416 149.341248,206.037384 
z"/>
</svg>