<svg version="1.1" id="Layer_1" xmlns="http://www.w3.org/2000/svg" xmlns:xlink="http://www.w3.org/1999/xlink" x="0px" y="0px"
	 width="100%" viewBox="0 0 512 512" enable-background="new 0 0 512 512" xml:space="preserve">
<path fill="#000000" opacity="1.000000" stroke="none" 
	d="
M303.605682,208.409515 
	C299.362854,197.146927 293.454041,187.748581 282.365540,182.608459 
	C277.319397,180.269302 271.796722,179.944183 265.620026,178.606247 
	C271.384460,166.492813 279.011017,156.810394 292.152283,153.756531 
	C317.299652,147.912659 339.129761,157.056717 347.154114,186.133484 
	C349.865387,195.957932 351.196960,206.021866 351.240173,216.193344 
	C351.359070,244.187378 351.319183,272.182251 351.259613,300.176605 
	C351.255371,302.176392 352.301880,305.064423 349.640167,305.905731 
	C346.491333,306.901001 342.891876,307.094116 339.855957,305.691162 
	C337.872742,304.774750 338.716980,302.067627 338.713501,300.139343 
	C338.663300,272.144897 338.750885,244.149857 338.597015,216.156097 
	C338.553925,208.311584 337.333862,200.571930 333.957855,193.342438 
	C327.800232,180.156128 313.434357,173.631287 301.119232,178.722336 
	C304.172333,182.715302 308.069763,185.861603 310.782837,190.018311 
	C316.908020,199.402679 319.039429,209.955826 319.692261,220.831299 
	C320.911407,241.141876 320.849792,261.421875 316.475067,281.451660 
	C316.227051,282.587189 315.886627,283.703033 315.575531,284.824219 
	C307.402893,314.279358 277.989746,315.610016 261.039764,297.850861 
	C253.883926,290.353394 248.028412,281.816193 241.477112,273.837006 
	C237.459671,268.943970 233.519150,263.974670 228.605347,259.917511 
	C226.432541,258.123505 224.229309,256.330414 220.963959,255.627243 
	C219.296509,258.431641 219.456879,261.561829 219.334534,264.659668 
	C218.971985,273.840698 217.836411,282.911011 214.347717,291.489471 
	C211.149109,299.354614 206.238602,305.638336 197.599442,308.091583 
	C182.299850,312.436096 169.871597,305.619385 165.686661,290.104126 
	C161.061111,272.955353 166.110046,249.307114 182.013748,237.236710 
	C188.357086,232.422318 195.389053,229.105835 203.228317,227.734238 
	C205.921051,227.263077 207.638351,226.370819 207.589432,223.411728 
	C207.410599,212.594589 207.583893,201.710709 204.505264,191.210648 
	C202.376221,183.949203 198.378830,178.145599 190.014603,177.266678 
	C179.136414,176.123581 172.628967,180.932327 170.494873,191.973297 
	C169.424622,197.510452 168.808884,203.164886 168.422180,208.796127 
	C168.064499,214.004852 164.392059,213.137970 161.187851,213.318268 
	C157.858475,213.505615 155.622620,212.397949 155.825653,208.550476 
	C156.500519,195.761902 156.822128,182.909805 161.706711,170.788635 
	C167.826996,155.601013 182.226273,148.668701 197.905029,153.297607 
	C207.840332,156.230850 212.411270,164.016953 215.194061,173.076218 
	C219.897766,188.389008 219.855408,204.281906 219.970139,220.069641 
	C220.010239,225.587875 221.220718,228.533829 226.930969,230.602814 
	C238.901260,234.940018 247.069809,244.516327 255.102402,253.906738 
	C261.596741,261.498871 267.966766,269.210144 274.097839,277.097229 
	C283.797028,289.574371 298.641449,284.356323 303.425171,272.298035 
	C306.259735,265.153046 306.993744,257.706604 307.411469,250.323044 
	C308.201385,236.361481 308.313629,222.327942 303.605682,208.409515 
M184.060226,260.572144 
	C177.080902,268.149078 176.995972,277.201508 179.331833,286.301849 
	C181.076126,293.097443 188.244705,295.659210 194.586639,292.555756 
	C198.499374,290.641083 201.061035,287.426666 202.902908,283.597382 
	C207.218903,274.624420 206.768494,264.847809 207.554184,255.289719 
	C207.795029,252.359940 205.653336,252.112228 203.529510,252.344269 
	C196.485855,253.113876 189.796127,254.821350 184.060226,260.572144 
z"/>
</svg>