<svg version="1.1" id="Layer_1" xmlns="http://www.w3.org/2000/svg" xmlns:xlink="http://www.w3.org/1999/xlink" x="0px" y="0px"
	 width="100%" viewBox="0 0 512 512" enable-background="new 0 0 512 512" xml:space="preserve">
<path fill="#000000" opacity="1.000000" stroke="none" 
	d="
M236.190414,219.101624 
	C236.129272,245.251236 236.091187,270.915558 236.052765,296.579865 
	C236.036026,307.765839 236.622482,306.351929 225.950470,306.319489 
	C214.545334,306.284790 204.607742,302.872009 197.744461,293.130157 
	C193.619553,287.275208 191.758011,280.501190 190.763580,273.544586 
	C189.064621,261.659424 188.862946,249.676514 188.751358,237.681412 
	C188.618240,223.369476 189.672974,209.017197 187.652603,194.757553 
	C187.257675,191.970108 186.790771,189.143784 185.908829,186.484039 
	C183.699402,179.820923 179.753677,177.117905 172.846237,177.126205 
	C165.980957,177.134445 161.806488,179.939941 159.511963,186.288651 
	C157.146423,192.833832 157.294739,199.708420 157.093353,206.526489 
	C156.969757,210.711243 155.680832,213.499680 150.672729,213.402313 
	C144.705780,213.286301 143.744507,212.361145 144.184509,206.347443 
	C144.923660,196.244904 144.823563,186.075562 147.565704,176.171188 
	C148.687012,172.121063 150.139023,168.278870 152.068802,164.574631 
	C156.745041,155.598404 164.476196,151.739090 174.215378,152.025452 
	C184.567429,152.329834 191.676559,157.622147 195.566895,167.302322 
	C199.736694,177.677811 200.847473,188.617142 201.113342,199.582108 
	C201.521240,216.405304 201.235794,233.244247 201.385590,250.075256 
	C201.440491,256.242615 202.173080,262.383240 204.460938,268.175537 
	C206.809601,274.121704 210.445282,278.938263 216.910904,280.941864 
	C222.254761,282.597839 223.586761,281.719208 223.600754,276.192841 
	C223.653473,255.361145 223.451202,234.526474 223.747742,213.698654 
	C223.918076,201.735855 226.718262,190.253067 232.955948,179.888016 
	C240.055878,168.090164 250.468475,160.339951 263.576233,156.413513 
	C287.970367,149.106232 312.066284,150.398026 335.149780,161.055527 
	C351.426392,168.570343 360.566803,181.756622 362.437988,199.991577 
	C364.538300,220.458984 356.519257,235.161240 338.579468,244.772690 
	C338.026611,245.068893 337.581238,245.565735 336.491211,246.453033 
	C338.842682,247.985916 340.876312,249.299545 342.897888,250.631485 
	C354.761475,258.447906 361.629364,269.096283 362.505371,283.594818 
	C362.867035,289.581207 363.031464,295.554138 363.249359,301.537903 
	C363.440338,306.783325 360.133301,306.402283 356.664429,306.394897 
	C353.317108,306.387787 350.394348,306.553009 350.572937,301.630463 
	C350.789612,295.658203 350.712555,289.676270 350.015472,283.675018 
	C348.444397,270.149841 340.444153,262.088196 328.408661,257.446716 
	C316.720795,252.939270 304.413330,252.306412 292.035370,252.311508 
	C289.828674,252.312408 286.511780,253.503448 285.657562,251.063034 
	C284.605164,248.056671 285.238586,244.450653 286.388275,241.349838 
	C287.156525,239.277725 289.510254,239.833771 291.281097,239.819229 
	C301.098755,239.738632 310.929016,240.030029 320.588318,237.653809 
	C332.005035,234.845276 342.365692,230.430832 346.487671,218.235641 
	C351.230194,204.204529 344.107605,190.551437 328.860168,183.401093 
	C322.152771,180.255630 315.025024,178.507401 307.711334,177.834900 
	C292.559906,176.441727 277.407593,176.172226 262.656921,180.771866 
	C245.143509,186.232956 236.808151,198.311859 236.190414,219.101624 
z"/>
</svg>