<svg version="1.1" id="Layer_1" xmlns="http://www.w3.org/2000/svg" xmlns:xlink="http://www.w3.org/1999/xlink" x="0px" y="0px"
	 width="100%" viewBox="0 0 512 512" enable-background="new 0 0 512 512" xml:space="preserve">
<path fill="#000000" opacity="1.000000" stroke="none" 
	d="
M355.681824,392.930725 
	C355.724579,334.280273 355.765137,276.120483 355.799042,217.960678 
	C355.807678,203.128952 355.688049,188.295929 355.866425,173.466370 
	C355.911865,169.685638 354.586121,167.922577 351.025055,166.599228 
	C336.060211,161.038025 323.356232,152.477356 316.549774,137.373901 
	C311.960602,127.190590 310.835327,116.527252 314.898254,105.813782 
	C318.278442,96.900436 324.865082,91.665527 334.367340,90.889587 
	C344.361023,90.073540 353.229370,92.604378 359.308685,101.414917 
	C364.701965,109.231209 366.313477,118.232834 367.266815,127.379234 
	C367.835144,132.831589 368.094696,138.330750 368.176758,143.813599 
	C368.224609,147.010696 369.700348,148.360199 372.620209,148.613541 
	C377.122314,149.004135 381.457886,150.190643 385.762421,151.454391 
	C403.659424,156.708679 412.032928,169.548325 414.351532,187.297913 
	C415.152191,193.427231 415.247345,199.559128 415.408325,205.716049 
	C415.529999,210.370071 412.656982,210.218216 409.513214,210.214294 
	C406.373077,210.210358 403.379547,210.368286 403.590637,205.718216 
	C403.717896,202.914764 403.223419,200.078796 402.956024,197.262405 
	C401.640167,183.402634 395.738953,176.643021 382.146393,173.500427 
	C379.720276,172.939499 377.242859,172.596375 374.784790,172.178177 
	C368.218719,171.061127 368.198242,171.066666 368.198029,177.844696 
	C368.195770,249.836914 368.297821,321.829376 368.121765,393.821167 
	C368.085907,408.481812 366.671021,423.062469 360.700378,436.803802 
	C352.454559,455.781372 334.855347,460.864410 318.463165,458.965485 
	C311.760864,458.189117 307.131775,453.658569 303.239990,448.467407 
	C300.942627,445.403015 298.919922,442.128571 296.560364,439.115662 
	C288.314026,428.585815 275.301117,428.213348 266.519257,438.289703 
	C264.340332,440.789825 262.355042,443.516388 260.646332,446.358643 
	C253.678986,457.947876 243.371613,460.861511 230.618820,458.886322 
	C208.213470,455.416107 195.556229,439.433289 190.764114,417.614868 
	C183.866867,386.211823 194.058014,359.979645 215.357147,337.142670 
	C231.108353,320.254150 249.664078,306.577454 267.134125,291.651733 
	C281.837921,279.089417 296.388611,266.340057 306.698425,249.612900 
	C315.040802,236.077850 319.243195,221.476364 318.749725,205.490250 
	C318.285095,190.439041 309.096527,179.156906 295.444733,177.392914 
	C278.428223,175.194183 265.397308,183.372787 261.316650,198.816513 
	C261.019043,199.942841 260.531982,201.070984 260.504364,202.207291 
	C260.414215,205.915207 258.148865,206.349960 255.120300,206.362000 
	C251.980728,206.374466 249.657898,205.997269 249.127762,202.167694 
	C247.719955,191.997742 242.072845,184.710052 233.105942,180.003677 
	C217.072983,171.588577 198.180420,179.223328 192.588120,196.336975 
	C190.026917,204.174835 189.469635,212.355515 189.415329,220.491241 
	C189.238464,246.987213 189.223953,273.486115 189.449188,299.981323 
	C189.491730,304.985413 188.127808,306.521393 183.018936,306.475677 
	C159.922668,306.268921 147.381546,295.311188 144.651001,272.527649 
	C142.185318,251.954254 142.928009,231.294556 142.837051,210.657684 
	C142.803940,203.146866 142.514862,195.672119 140.635147,188.366623 
	C138.595337,180.439011 134.558945,177.220093 126.924934,177.180817 
	C118.825027,177.139145 114.568306,180.183914 112.471710,188.171799 
	C110.820488,194.462799 110.705322,200.999359 110.366806,207.468414 
	C110.104073,212.489059 108.782066,213.462479 102.956238,213.378891 
	C98.295074,213.311996 98.339180,210.771317 98.423241,207.086777 
	C98.659065,196.749741 99.075150,186.452728 101.782478,176.427673 
	C104.417122,166.671738 108.416870,157.570572 118.876839,153.963760 
	C133.134888,149.047302 145.450134,155.844315 150.387726,171.013474 
	C154.616455,184.004913 154.818756,197.555099 155.165848,211.005127 
	C155.544037,225.660995 155.143097,240.335678 155.407730,254.996292 
	C155.544525,262.574127 157.271332,269.820312 162.264526,275.942871 
	C166.063873,280.601593 170.902313,282.402985 176.684875,281.933533 
	C178.235519,280.000763 177.614502,277.919922 177.619736,275.997528 
	C177.677338,254.833298 177.499939,233.666946 177.743973,212.505280 
	C177.884262,200.339584 179.437500,188.319199 183.407349,176.695206 
	C188.694290,161.214600 200.115891,154.012314 215.759552,152.768677 
	C231.717422,151.500046 244.119644,157.170639 251.383118,172.120331 
	C252.252792,173.910339 253.233902,175.646439 254.179443,177.398865 
	C254.248947,177.527649 254.449585,177.585678 254.676788,177.733597 
	C256.533813,176.891251 256.798676,174.890305 257.526489,173.333908 
	C263.196747,161.208633 272.206360,153.574203 285.899994,152.780396 
	C301.520996,151.874832 314.914337,156.419647 323.870728,170.166138 
	C330.527008,180.382309 332.766876,191.986008 333.258820,203.886108 
	C334.894196,243.447418 319.363525,275.584473 290.821808,302.304779 
	C273.987518,318.064758 255.114029,331.234253 237.407242,345.874268 
	C228.011414,353.642731 218.861755,361.653687 212.079041,371.933014 
	C203.399994,385.086243 200.733414,399.353546 206.157394,414.280914 
	C210.864471,427.235260 221.541351,432.818542 234.626129,434.674438 
	C248.417694,436.630615 258.766541,432.069916 265.100281,419.274933 
	C266.348328,416.753723 268.002686,414.399902 269.697266,412.139526 
	C275.987274,403.749359 286.471985,403.391541 293.156982,411.456299 
	C295.803680,414.649231 298.009552,418.217896 300.308746,421.686646 
	C309.621063,435.735962 314.706818,436.520142 331.412445,433.999878 
	C345.650452,431.851898 352.265564,423.381134 354.571167,407.829163 
	C355.277954,403.061371 356.018799,398.277985 355.681824,392.930725 
M351.372742,114.236397 
	C350.061859,111.869377 348.309235,109.855644 346.076630,108.366295 
	C341.298615,105.178894 336.261810,104.571136 331.023193,107.267838 
	C326.386902,109.654442 326.127686,113.975807 326.116760,118.404266 
	C326.084259,131.576797 340.709778,144.768402 355.537903,144.631332 
	C355.941254,134.502502 355.898468,124.462929 351.372742,114.236397 
z"/>
</svg>