<svg version="1.1" id="Layer_1" xmlns="http://www.w3.org/2000/svg" xmlns:xlink="http://www.w3.org/1999/xlink" x="0px" y="0px"
	 width="100%" viewBox="0 0 512 512" enable-background="new 0 0 512 512" xml:space="preserve">
<path fill="#000000" opacity="1.000000" stroke="none" 
	d="
M286.625122,187.628265 
	C288.292145,196.896698 289.402985,205.783295 289.371643,214.806152 
	C289.300415,235.304138 289.339203,255.802536 289.358826,276.300751 
	C289.364197,281.930420 289.897858,282.450073 295.371643,281.694641 
	C303.695496,280.545929 307.256287,274.424469 309.645630,267.390717 
	C311.535889,261.826141 311.874084,255.998947 311.811798,250.135437 
	C311.684448,238.149673 311.997894,226.210327 313.555115,214.271149 
	C318.954010,172.878738 356.182159,146.340988 397.025452,153.943375 
	C426.756500,159.477356 449.360138,185.262238 453.427979,213.315399 
	C456.965302,237.710022 455.211548,261.315369 441.423004,282.485474 
	C429.808899,300.317139 412.987976,309.719147 391.384155,309.157654 
	C383.921448,308.963715 376.606140,307.274719 369.530396,302.906555 
	C371.450012,299.648376 373.203735,296.525787 375.105621,293.496185 
	C376.329315,291.546967 378.084076,292.093384 379.990845,292.534271 
	C385.987701,293.920868 392.038177,295.097565 398.258484,294.396210 
	C413.465271,292.681580 423.921021,284.201508 431.076904,271.159180 
	C440.833527,253.376862 442.133606,234.219345 438.359100,214.904205 
	C435.017334,197.803604 423.344238,186.851532 407.272675,181.264450 
	C389.419739,175.058044 371.277466,174.802063 353.743835,182.780090 
	C334.716156,191.437958 325.614502,207.136124 324.426666,227.431137 
	C323.707581,239.717743 324.384033,252.093369 323.271545,264.375366 
	C322.156219,276.688934 320.707214,289.007660 310.772888,298.104004 
	C302.037079,306.102966 291.340759,306.817230 280.320068,306.195190 
	C277.751312,306.050201 277.755463,303.957855 277.734283,302.108368 
	C277.680847,297.442657 277.694672,292.776123 277.691589,288.109924 
	C277.675934,264.612061 277.733063,241.113861 277.608124,217.616608 
	C277.570007,210.451416 276.690033,203.326797 274.594177,196.433533 
	C270.645447,183.446274 262.570740,177.454514 248.819138,177.164230 
	C235.112823,176.874924 224.481415,183.663681 220.260864,195.450684 
	C219.645020,197.170547 219.158356,198.944595 218.729416,200.721924 
	C217.457275,205.993057 214.877960,207.484634 209.649551,206.228134 
	C206.886902,205.564224 207.266159,203.320023 206.904465,201.504227 
	C204.587769,189.873795 197.916122,181.353226 186.647659,178.358719 
	C171.303436,174.281082 156.141159,178.730576 150.770035,195.562256 
	C148.524399,202.599503 147.437988,209.842453 147.399826,217.166687 
	C147.260941,243.830353 147.370331,270.495209 147.299530,297.159363 
	C147.272797,307.232391 148.557098,306.377563 137.765320,306.329498 
	C127.896896,306.285583 119.080147,303.652527 112.145760,296.106201 
	C107.088448,290.602539 104.807457,283.858856 103.416298,276.809753 
	C101.380005,266.491791 101.040253,255.993286 100.835266,245.499329 
	C100.506897,228.688904 101.744720,211.840881 99.664352,195.073608 
	C99.378494,192.769745 99.055267,190.447098 98.463249,188.208832 
	C96.302383,180.039200 92.358109,177.049438 84.183960,177.183105 
	C76.195984,177.313736 72.049583,180.640320 70.277702,188.763107 
	C68.858032,195.271271 68.254425,201.898376 68.290749,208.568954 
	C68.313766,212.795517 65.498817,213.325119 62.218750,213.339493 
	C59.277863,213.352386 56.012974,213.438187 56.169651,209.326965 
	C56.694553,195.553192 56.460522,181.586075 62.415230,168.693848 
	C68.281525,155.993027 75.936424,151.472427 88.273552,152.788025 
	C98.551468,153.884018 106.440697,162.379776 109.414742,174.554382 
	C112.571594,187.477356 112.413429,200.638870 112.883614,213.738846 
	C113.385429,227.720261 113.129295,241.727417 113.350006,255.721039 
	C113.451248,262.141052 115.060509,268.239777 118.429390,273.772430 
	C122.166946,279.910553 127.649170,282.558777 134.716827,281.905396 
	C136.217926,279.968933 135.615784,277.891876 135.620392,275.963898 
	C135.672501,254.132584 135.516937,232.299728 135.726181,210.470245 
	C135.839767,198.618393 137.625732,186.968216 141.661423,175.729813 
	C147.053101,160.715317 158.408890,153.971771 173.614441,152.735504 
	C189.677444,151.429489 201.849884,157.481888 209.219238,172.201035 
	C210.258743,174.277283 211.316391,176.344437 212.608337,178.894928 
	C215.837708,173.617844 217.615341,167.941818 221.627502,163.646118 
	C233.407104,151.034058 253.997650,148.721497 269.812775,158.310654 
	C280.642395,164.876953 284.079559,175.768082 286.625122,187.628265 
z"/>
</svg>