<svg version="1.1" id="Layer_1" xmlns="http://www.w3.org/2000/svg" xmlns:xlink="http://www.w3.org/1999/xlink" x="0px" y="0px"
	 width="100%" viewBox="0 0 512 512" enable-background="new 0 0 512 512" xml:space="preserve">
<path fill="#000000" opacity="1.000000" stroke="none" 
	d="
M242.558258,384.678162 
	C227.091919,378.114105 218.821823,365.809998 213.716888,350.988403 
	C209.609283,339.062500 208.164917,326.679718 208.689499,314.088074 
	C208.816040,311.050873 208.199509,308.943146 204.709488,308.404480 
	C183.515030,305.133270 170.832260,287.895599 167.678864,267.298676 
	C165.605469,253.755966 166.115189,240.062103 166.058411,226.410202 
	C166.012756,215.431702 166.649704,204.411667 164.622437,193.526550 
	C164.137650,190.923615 163.548553,188.262787 162.483490,185.860947 
	C160.091888,180.467682 156.294006,176.984116 149.839844,177.078506 
	C143.170593,177.176071 138.428741,179.656525 135.689987,186.042694 
	C132.629623,193.178818 133.280304,200.786819 132.526474,208.172287 
	C131.986954,213.458115 128.937744,213.222229 125.318039,213.361954 
	C121.447578,213.511398 120.657784,211.488297 120.604630,208.075119 
	C120.438034,197.377258 120.978828,186.730057 124.002747,176.449265 
	C127.169762,165.681976 132.387756,156.347900 144.577286,153.567886 
	C158.304733,150.437119 167.635635,155.649506 172.338409,168.886307 
	C177.034775,182.105103 177.745850,195.919250 178.142838,209.714386 
	C178.526199,223.036087 178.190735,236.376785 178.369537,249.706497 
	C178.599380,266.840363 188.243576,279.557983 203.735123,283.896362 
	C207.110306,284.841553 208.573181,284.488464 208.928421,280.638397 
	C210.011627,268.898499 213.069870,257.742462 219.764557,247.824615 
	C226.562195,237.754288 236.052475,233.939499 247.335968,236.667694 
	C255.253464,238.582062 260.049988,243.858322 262.250916,251.327942 
	C268.891693,273.865784 256.750000,296.492920 233.533569,305.173523 
	C230.269348,306.394012 226.905579,307.397736 223.520355,308.225677 
	C221.651398,308.682770 220.375702,309.369659 220.400742,311.412903 
	C220.614502,328.867096 223.193100,345.370270 238.474762,356.860229 
	C242.690613,360.030090 247.314392,362.064301 252.502472,362.982208 
	C264.225739,365.056335 275.856964,364.368652 286.904175,360.186493 
	C297.727386,356.089111 305.411896,348.512817 307.803955,336.587097 
	C308.031464,335.452728 308.454407,334.350342 308.868011,333.264069 
	C309.032532,332.831909 309.418335,332.484009 309.674591,332.136780 
	C319.016663,333.403442 319.259094,333.561279 317.364319,343.233215 
	C313.045624,365.278015 301.464386,381.186005 278.737915,386.714508 
	C266.755371,389.629486 254.645142,389.426422 242.558258,384.678162 
M225.653854,263.150085 
	C222.677048,269.863861 220.771606,276.786316 221.286972,284.577606 
	C226.832260,283.715088 231.997406,282.687836 236.898621,280.570709 
	C244.243973,277.397736 249.198761,272.291992 250.440475,264.066467 
	C251.266251,258.596283 249.575806,253.994339 245.744263,251.867401 
	C241.507996,249.515808 235.986542,250.397049 231.864563,253.922180 
	C229.121597,256.267944 227.530197,259.338989 225.653854,263.150085 
z"/>
<path fill="#000000" opacity="1.000000" stroke="none" 
	d="
M268.334961,177.317474 
	C250.787903,178.963867 244.764542,184.248642 240.333160,201.647247 
	C239.793350,203.766663 239.195190,205.936096 236.565277,204.965317 
	C234.064957,204.042404 230.043945,205.228439 229.585266,200.876144 
	C227.956161,185.417679 241.508118,162.412552 255.827179,156.353775 
	C263.662323,153.038498 271.911377,151.963791 280.293030,152.915436 
	C291.530273,154.191360 299.653198,160.351517 305.166870,170.071930 
	C306.699829,172.774475 308.034058,175.589752 309.635620,178.694809 
	C313.245239,172.855087 315.392151,166.690536 320.123993,161.968506 
	C329.049713,153.061264 339.952942,151.352676 351.539825,153.207184 
	C370.268494,156.204773 379.204590,165.561203 383.249939,185.400986 
	C385.279144,195.352890 386.430023,205.392609 386.383789,215.597534 
	C386.257050,243.583069 386.349609,271.569580 386.344299,299.555695 
	C386.343048,306.108124 383.446075,308.111664 376.983887,306.231201 
	C373.908722,305.336334 374.745789,302.858734 374.740662,300.888947 
	C374.680328,277.733917 374.686554,254.578674 374.715485,231.423523 
	C374.727966,221.437134 374.881287,211.452560 372.890320,201.586166 
	C369.500244,184.786331 361.182709,177.437256 345.161316,177.163513 
	C329.796204,176.900986 319.033508,185.252289 315.874146,200.912888 
	C314.871490,205.882935 312.651611,206.530228 308.477264,206.396545 
	C305.219513,206.292221 304.255096,204.869156 303.819000,201.937729 
	C301.633331,187.247177 289.697968,177.144073 274.790375,177.187347 
	C272.791962,177.193146 270.793732,177.265503 268.334961,177.317474 
z"/>
</svg>