<svg version="1.1" id="Layer_1" xmlns="http://www.w3.org/2000/svg" xmlns:xlink="http://www.w3.org/1999/xlink" x="0px" y="0px"
	 width="100%" viewBox="0 0 512 512" enable-background="new 0 0 512 512" xml:space="preserve">
<path fill="#000000" opacity="1.000000" stroke="none" 
	d="
M336.041138,242.913879 
	C335.391876,257.192871 335.069672,271.026672 331.232819,284.439148 
	C326.317291,301.622314 315.660919,309.987061 299.643738,309.260132 
	C292.425079,308.932556 286.414795,306.162781 282.053650,300.242554 
	C279.189392,296.354309 276.596313,292.240112 273.478210,288.569977 
	C264.480713,277.979706 251.125839,278.538940 242.803680,289.700714 
	C240.812347,292.371490 238.753555,295.019775 237.047119,297.870728 
	C226.345581,315.749847 198.497543,311.159607 190.302734,295.088837 
	C185.830948,286.319183 183.753555,276.994751 182.678757,267.351288 
	C180.495880,247.765778 181.229599,228.088547 180.907120,208.445923 
	C180.805771,202.272919 180.549316,196.113632 179.207764,190.087585 
	C177.029129,180.301544 172.638000,176.716156 163.851044,177.160355 
	C156.197159,177.547256 151.440659,182.755524 150.295685,191.800476 
	C149.625397,197.095688 149.110153,202.395416 149.226181,207.732468 
	C149.343033,213.107117 145.757156,213.231491 141.814682,213.383530 
	C137.443466,213.552155 136.614731,211.344482 136.590195,207.508224 
	C136.507767,194.616714 137.359619,181.856674 141.842682,169.658539 
	C146.906143,155.881165 157.034622,150.172363 171.213516,152.681702 
	C178.974411,154.055206 183.949890,158.934967 187.130569,165.777023 
	C191.782669,175.784302 192.822235,186.604874 193.208969,197.401382 
	C193.864746,215.709198 192.796432,234.051254 194.234497,252.359909 
	C194.654648,257.709106 195.553314,262.900421 197.068741,268.012146 
	C199.922882,277.639496 206.238174,283.273071 216.309540,284.350830 
	C225.553177,285.340027 232.959290,282.067078 238.261108,274.351685 
	C241.091217,270.233185 243.672256,265.936859 246.623688,261.909851 
	C253.230698,252.895187 264.599243,252.565216 271.669983,261.299225 
	C274.908630,265.299713 277.602020,269.745850 280.487885,274.026764 
	C285.315704,281.188354 291.682190,285.291748 300.648102,284.399414 
	C311.195953,283.349609 317.653259,277.542542 320.430939,267.441376 
	C322.787811,258.870453 323.516602,250.063477 323.570160,241.253006 
	C323.732239,214.588181 323.626038,187.921768 323.640350,161.255966 
	C323.643890,154.664658 323.671997,154.695374 330.229523,154.644897 
	C344.542633,154.534729 357.193115,157.907639 364.151031,171.932175 
	C368.190979,180.075195 369.745117,189.018234 370.220917,198.013596 
	C372.026398,232.149887 370.765045,266.321869 371.208160,300.474884 
	C371.274384,305.580688 369.106323,306.518829 364.607697,306.494598 
	C360.192810,306.470825 358.520233,305.305847 358.560486,300.569794 
	C358.772827,275.572418 358.721222,250.571991 358.620697,225.573181 
	C358.579895,215.417831 358.352600,205.224457 355.562866,195.357559 
	C353.535553,188.187225 349.994690,182.126907 342.107788,179.961960 
	C337.176086,178.608185 336.109558,179.323044 336.096893,184.430191 
	C336.049042,203.762238 336.059540,223.094421 336.041138,242.913879 
z"/>
</svg>