<svg version="1.1" id="Layer_1" xmlns="http://www.w3.org/2000/svg" xmlns:xlink="http://www.w3.org/1999/xlink" x="0px" y="0px"
	 width="100%" viewBox="0 0 512 512" enable-background="new 0 0 512 512" xml:space="preserve">
<path fill="#000000" opacity="1.000000" stroke="none" 
	d="
M339.883484,254.101349 
	C340.170502,250.838028 340.619781,248.025604 340.625488,245.212280 
	C340.682709,217.059814 340.646332,188.907135 340.715790,160.754715 
	C340.720703,158.763931 339.655426,155.852783 342.330170,155.078491 
	C345.481415,154.166245 348.971039,154.095825 352.152191,155.276642 
	C353.511993,155.781387 353.258423,157.576843 353.256683,158.887634 
	C353.215363,190.204498 353.466370,221.526550 352.940979,252.835526 
	C352.741058,264.751373 351.388580,276.739410 347.271881,288.156982 
	C342.093018,302.520477 332.037476,309.632782 317.499023,309.300720 
	C309.419525,309.116180 303.087494,305.733765 298.364899,299.248352 
	C295.816071,295.748108 293.474091,292.085571 290.767365,288.714172 
	C282.559357,278.490417 269.439789,278.393890 261.114471,288.463989 
	C258.998108,291.023926 257.038177,293.742218 255.263443,296.550232 
	C249.370880,305.873444 241.113770,310.407837 230.017456,309.227631 
	C218.629242,308.016418 210.434906,302.276367 205.842804,291.686493 
	C200.652115,279.716278 199.237808,266.959839 198.814346,254.145844 
	C198.368912,240.666718 198.868378,227.158691 198.585388,213.671051 
	C198.400848,204.875565 198.039551,196.036194 195.758713,187.445129 
	C194.062958,181.057739 190.250214,177.663300 184.444168,177.221130 
	C176.285187,176.599792 171.995636,178.856628 169.290588,185.709473 
	C166.620544,192.473618 166.709259,199.700974 166.332306,206.829803 
	C166.213715,209.072708 166.942230,211.815826 163.950073,212.756454 
	C161.062668,213.664154 158.028442,213.836105 155.152328,212.651932 
	C153.716309,212.060684 153.708939,210.527328 153.700470,209.183624 
	C153.616196,195.816879 154.423126,182.527206 159.064194,169.850479 
	C164.215515,155.779999 174.706024,149.900818 188.778992,152.704025 
	C198.493881,154.639160 203.306259,161.617371 206.176590,170.189606 
	C208.715561,177.772263 210.066727,185.690887 210.270996,193.690613 
	C210.751236,212.498810 210.978500,231.313400 211.330704,250.124969 
	C211.462540,257.166992 212.770386,263.999329 215.271683,270.583893 
	C220.775345,285.072052 240.439468,289.446533 251.758926,278.792633 
	C256.082184,274.723572 259.187836,269.781769 261.976562,264.687042 
	C269.339081,251.236465 283.661804,252.632736 290.955475,263.722168 
	C293.334900,267.339905 295.692383,270.973114 298.135803,274.547394 
	C302.793030,281.360199 309.013245,285.270203 317.533936,284.436005 
	C327.446991,283.465546 334.324310,278.561554 337.247253,268.740875 
	C338.627411,264.103729 339.714142,259.416504 339.883484,254.101349 
z"/>
</svg>