<svg version="1.1" id="Layer_1" xmlns="http://www.w3.org/2000/svg" xmlns:xlink="http://www.w3.org/1999/xlink" x="0px" y="0px"
	 width="100%" viewBox="0 0 512 512" enable-background="new 0 0 512 512" xml:space="preserve">
<path fill="#000000" opacity="1.000000" stroke="none" 
	d="
M336.627563,190.593933 
	C338.592285,199.009613 338.701660,207.192871 338.864502,215.322723 
	C339.211426,232.645279 339.206329,249.975037 339.322266,267.302002 
	C339.351593,271.681946 340.251434,275.917053 341.704529,279.989441 
	C343.563385,285.198975 347.902557,287.892181 353.305939,287.687256 
	C358.703186,287.482605 360.463623,283.710419 361.851288,279.345856 
	C363.127197,275.332794 363.718292,271.293152 363.711884,267.076385 
	C363.658844,231.914673 363.679230,196.752823 363.690979,161.591019 
	C363.693146,155.176102 363.935822,154.883499 370.485291,155.075439 
	C381.532288,155.399200 392.129364,157.039871 399.864594,166.170853 
	C406.060822,173.485138 408.123871,182.388138 409.280792,191.536301 
	C410.807434,203.607925 410.942230,215.764053 410.935394,227.917419 
	C410.921692,252.247330 410.826599,276.577850 410.989410,300.906616 
	C411.022736,305.888000 408.645630,306.479065 404.518066,306.476471 
	C400.407440,306.473846 398.580780,305.565887 398.608643,300.932770 
	C398.783966,271.771271 398.814545,242.607132 398.595703,213.446091 
	C398.530731,204.787567 397.334045,196.176682 393.052612,188.349228 
	C390.198944,183.131989 385.679169,180.352509 379.926819,179.435303 
	C376.803253,178.937256 375.605682,179.942520 375.634460,183.497711 
	C375.897339,215.980255 376.510162,248.467819 375.322784,280.944824 
	C375.108063,286.817322 373.335693,292.296661 371.001312,297.724548 
	C364.034668,313.923309 341.684937,311.838074 334.637390,299.733459 
	C329.771179,291.375488 328.457520,282.271423 327.679688,272.953033 
	C325.944122,252.160416 327.417572,231.314148 326.670532,210.507263 
	C326.356903,201.771591 325.096497,193.111450 319.241608,186.118530 
	C308.502563,173.292160 285.159576,173.966431 274.713623,187.538849 
	C268.740387,195.299835 263.621613,203.713287 257.789734,211.589859 
	C253.044479,217.998871 246.347992,219.821991 238.670502,218.176102 
	C233.609085,217.091064 230.414825,213.471649 227.328964,209.680069 
	C221.640381,202.690475 217.988754,194.333374 212.082825,187.463455 
	C203.051025,176.957520 191.103699,174.521164 178.111603,179.018661 
	C169.505035,181.997986 165.458069,189.792053 162.142273,197.830948 
	C158.095551,207.641815 155.930695,218.170456 150.240601,227.371780 
	C144.652283,236.408524 136.228622,239.306778 126.402359,239.090607 
	C116.476227,238.872238 108.677719,234.270874 104.087326,225.442368 
	C96.942154,211.700378 96.464043,196.678284 96.718819,181.611115 
	C96.782982,177.816833 99.906067,178.028656 102.167946,178.160004 
	C104.701622,178.307159 108.109352,177.770203 108.371948,182.140930 
	C108.720688,187.945160 108.955910,193.810074 110.010902,199.506119 
	C111.862488,209.503113 115.846855,213.426834 124.086906,214.566620 
	C134.599319,216.020737 142.460648,212.321457 146.830246,203.897537 
	C150.322388,197.165237 151.477341,189.691071 153.558746,182.519852 
	C154.953659,177.713882 156.537903,173.002213 158.669342,168.495270 
	C168.067490,148.622879 199.830276,147.344360 212.032623,163.875641 
	C217.168320,170.833267 221.610550,178.302856 226.747650,185.259369 
	C235.733429,197.427689 248.157257,197.915512 258.374908,186.931396 
	C263.192688,181.752197 266.507141,175.561783 270.241974,169.688919 
	C277.783997,157.829453 287.880768,151.265350 302.287598,152.808731 
	C316.494141,154.330673 326.131195,162.194351 332.037262,174.918335 
	C334.286682,179.764389 335.781097,184.871613 336.627563,190.593933 
z"/>
</svg>