<svg version="1.1" id="Layer_1" xmlns="http://www.w3.org/2000/svg" xmlns:xlink="http://www.w3.org/1999/xlink" x="0px" y="0px"
	 width="100%" viewBox="0 0 512 512" enable-background="new 0 0 512 512" xml:space="preserve">
<path fill="#000000" opacity="1.000000" stroke="none" 
	d="
M319.911560,199.206070 
	C314.893372,190.363464 307.630554,184.450439 298.448120,181.724213 
	C276.430786,175.187302 254.130188,174.829315 232.068787,181.456650 
	C223.430450,184.051651 216.949371,189.682251 214.882217,199.207779 
	C213.522781,205.472046 215.255829,209.392502 220.994659,212.264481 
	C227.827438,215.683884 235.415939,216.072021 242.697083,217.675186 
	C248.418015,218.934814 254.055374,220.475647 259.075195,223.520691 
	C272.282166,231.532135 274.468445,244.536591 273.867004,258.308411 
	C272.703339,284.955902 252.481949,300.129303 231.001907,306.012207 
	C215.485626,310.261749 199.762589,310.467621 184.046066,307.079102 
	C161.156921,302.144165 148.697830,288.232361 145.712601,263.874756 
	C143.475739,245.623444 145.266907,227.249817 144.606369,208.946915 
	C144.325302,201.158798 144.044785,193.271393 140.813126,185.956070 
	C136.749054,176.756454 126.794266,174.120956 118.590927,179.988678 
	C114.280396,183.071930 113.154922,187.816208 112.356606,192.595688 
	C111.534477,197.517685 111.039856,202.497589 111.233444,207.509537 
	C111.433556,212.690353 108.171814,213.286896 104.031281,213.399918 
	C99.640388,213.519806 98.674408,211.347839 98.777229,207.527267 
	C99.095993,195.682846 99.707855,183.873947 103.772003,172.602890 
	C107.354439,162.667755 113.344383,155.258301 124.540131,153.207581 
	C136.644852,150.990387 145.907013,155.985687 150.264465,167.597549 
	C154.649719,179.283447 155.996124,191.490326 156.286652,203.850357 
	C156.642654,218.996002 156.941132,234.143539 157.157730,249.291779 
	C157.408096,266.800568 168.875961,280.394104 186.453690,283.191132 
	C205.936600,286.291351 225.262558,286.221344 243.681488,277.731995 
	C254.966110,272.530853 260.686890,262.710144 258.858704,252.341537 
	C258.102356,248.051712 255.938126,245.131805 251.963150,243.251465 
	C243.813156,239.396149 234.834473,239.324280 226.269104,237.400833 
	C209.224380,233.573212 200.199448,222.969788 199.692505,205.533997 
	C199.062897,183.878540 210.370178,166.981689 231.252701,158.908340 
	C254.147095,150.057190 277.309967,150.113754 299.946808,159.210724 
	C320.898438,167.630493 332.192871,184.237198 335.271942,206.353882 
	C337.624969,223.255280 335.827087,240.301178 336.365692,257.272186 
	C336.581940,264.086517 336.859467,270.912781 338.415802,277.590424 
	C339.108063,280.560425 340.469208,283.181305 342.902649,285.193451 
	C348.603210,289.907135 356.136444,288.065125 358.854980,281.172577 
	C361.087402,275.512543 361.617859,269.533386 361.626556,263.532776 
	C361.675751,229.705750 361.647400,195.878632 361.654266,162.051544 
	C361.655701,155.055145 361.891052,154.888809 368.992493,155.059097 
	C381.706268,155.363968 393.274017,158.352448 400.392334,170.016220 
	C405.261292,177.994293 406.688965,187.179535 407.252167,196.327179 
	C409.404175,231.280777 407.766968,266.283752 408.382812,301.258972 
	C408.461304,305.714783 406.525757,306.523804 402.695587,306.440399 
	C398.880707,306.357361 395.951385,306.390533 395.986237,301.103516 
	C396.159912,274.776215 396.123566,248.446915 396.031860,222.118774 
	C395.995361,211.632446 395.919830,201.110016 391.808441,191.155396 
	C389.456726,185.461380 385.762878,181.309326 379.482819,179.871811 
	C374.285156,178.682053 373.360687,179.329956 373.357239,184.802368 
	C373.337830,215.463364 373.398865,246.124527 373.300018,276.785217 
	C373.272858,285.203217 371.768402,293.392914 366.837036,300.474335 
	C358.199280,312.877930 340.091034,312.388336 331.956818,299.647766 
	C327.701874,292.983215 326.492950,285.454071 325.685608,277.799988 
	C323.827423,260.183777 325.026489,242.509705 324.645050,224.865875 
	C324.457642,216.195511 323.909912,207.561447 319.911560,199.206070 
z"/>
</svg>