<svg version="1.1" id="Layer_1" xmlns="http://www.w3.org/2000/svg" xmlns:xlink="http://www.w3.org/1999/xlink" x="0px" y="0px"
	 width="100%" viewBox="0 0 512 512" enable-background="new 0 0 512 512" xml:space="preserve">
<path fill="#000000" opacity="1.000000" stroke="none" 
	d="
M169.111877,205.712448 
	C168.170120,212.721191 167.091843,213.557068 160.986099,213.364685 
	C157.374084,213.250870 155.790176,211.675644 156.056015,208.107727 
	C156.870331,197.178467 156.701187,186.147476 159.689590,175.450439 
	C160.864014,171.246597 162.526840,167.292053 164.709167,163.520157 
	C169.567947,155.122314 177.161011,151.684906 186.465149,152.048141 
	C196.593857,152.443527 203.606491,157.600266 207.463440,167.073792 
	C211.679367,177.429108 212.779877,188.361847 213.129044,199.326279 
	C213.553177,212.644196 213.114334,225.987976 213.426086,239.311737 
	C213.604568,246.939423 214.425781,254.516525 217.065323,261.853363 
	C221.871109,275.211548 232.078751,281.211121 245.281891,283.341980 
	C256.226929,285.108459 267.155334,284.655731 278.041870,282.733643 
	C279.016296,282.561615 279.982086,282.284882 280.913544,281.950012 
	C281.349518,281.793213 281.693939,281.381775 282.466309,280.789337 
	C276.544769,266.793732 272.049713,252.102539 263.108429,239.435547 
	C262.820892,239.028198 262.500916,238.638870 262.159943,238.274948 
	C258.751801,234.637299 254.977997,231.513672 249.579941,232.685211 
	C243.960968,233.904709 242.225677,238.566605 241.362778,243.470184 
	C240.807266,246.627014 239.883041,248.191879 236.210495,247.679214 
	C229.823471,246.787643 229.940948,247.015900 230.500610,240.315170 
	C231.228302,231.602341 232.787109,223.139145 237.362564,215.547394 
	C242.897980,206.362808 252.809601,204.791931 261.112793,211.755997 
	C267.639130,217.229782 271.755890,224.491852 275.542084,231.945648 
	C281.661926,243.993683 286.200378,256.717255 291.368378,269.172211 
	C292.110718,270.961243 292.290436,273.098907 294.573822,274.574463 
	C299.003174,271.783722 302.154816,267.687469 303.663422,262.752228 
	C310.625702,239.975677 309.632416,217.653397 297.871887,196.615524 
	C292.073059,186.242294 282.369843,180.877014 270.552032,179.479813 
	C269.251038,179.326004 267.954254,179.136353 266.729828,178.973221 
	C265.721375,176.705673 267.171997,175.237015 268.017151,173.749634 
	C276.417938,158.965149 289.009583,151.384491 306.168854,152.026459 
	C325.636688,152.754807 338.630951,162.451981 345.302338,180.702240 
	C349.345032,191.761475 351.051636,203.295563 351.159637,214.958939 
	C351.423492,243.449860 351.169373,271.945435 351.391998,300.437073 
	C351.431458,305.485687 349.480530,306.495483 344.928864,306.514130 
	C340.281525,306.533203 338.540619,305.323395 338.576752,300.358978 
	C338.780518,272.367096 338.744110,244.372452 338.597321,216.379761 
	C338.557098,208.707809 337.391602,201.126480 334.248047,194.001343 
	C328.895233,181.868744 318.513763,175.878250 305.369843,177.302338 
	C303.910095,177.460495 302.368500,177.399384 301.239746,179.022430 
	C304.387207,182.810730 308.186218,186.063187 310.904388,190.262039 
	C317.093475,199.822586 319.018036,210.581985 319.723969,221.617844 
	C320.832794,238.952316 320.853973,256.230713 315.394470,273.036011 
	C313.099335,280.100983 309.725250,286.590271 304.675110,292.029205 
	C302.502655,294.368927 302.288605,296.453308 303.469696,299.184021 
	C305.716949,304.379852 307.870514,309.618347 309.954285,314.882141 
	C312.619049,321.613556 305.977692,320.889069 303.130127,322.897064 
	C299.677979,325.331360 299.074524,321.807312 298.178406,319.637329 
	C296.526489,315.637299 294.900421,311.620636 293.455017,307.543060 
	C292.238953,304.112640 290.788849,302.997314 286.851715,304.571533 
	C271.819153,310.582031 256.227661,310.936707 240.757980,306.821320 
	C218.263382,300.837219 206.559509,285.064850 202.684769,262.757416 
	C199.409805,243.903030 201.360916,224.863968 200.708282,205.916946 
	C200.501205,199.904465 199.851868,193.949280 198.477478,188.120682 
	C196.743362,180.766525 192.496414,177.327515 185.597168,177.123062 
	C177.849976,176.893478 173.557526,179.940186 171.142731,187.462311 
	C169.283905,193.252594 169.257523,199.261673 169.111877,205.712448 
z"/>
</svg>