<svg version="1.1" id="Layer_1" xmlns="http://www.w3.org/2000/svg" xmlns:xlink="http://www.w3.org/1999/xlink" x="0px" y="0px"
	 width="100%" viewBox="0 0 512 512" enable-background="new 0 0 512 512" xml:space="preserve">
<path fill="#000000" opacity="1.000000" stroke="none" 
	d="
M313.492737,177.396667 
	C307.821838,178.449493 302.530762,179.085251 297.451324,180.795883 
	C282.287842,185.902557 273.318695,197.735336 272.419220,214.564590 
	C272.040710,221.646484 272.356171,228.765472 272.356171,236.465134 
	C279.369751,235.144928 285.570343,235.789078 291.708221,237.585205 
	C308.248810,242.425461 318.769958,255.065460 320.271301,272.206787 
	C320.763733,277.829285 320.964966,283.401001 319.480469,289.014923 
	C313.534363,311.500641 294.011078,313.533752 278.757416,304.348236 
	C267.975067,297.855255 264.298920,286.576904 261.625305,275.019897 
	C261.250092,273.397980 261.000397,271.747314 260.661774,270.116364 
	C260.597015,269.804474 260.387604,269.522614 259.903809,268.519745 
	C253.478470,273.654083 247.530502,278.999451 242.155991,285.018707 
	C235.247879,292.755585 227.823242,299.960724 218.556091,304.821381 
	C202.465240,313.261108 181.888794,311.824036 173.668793,286.938019 
	C168.959442,272.680450 168.368530,257.866882 167.825577,243.072067 
	C167.282257,228.267105 168.731628,213.408554 166.755203,198.641708 
	C166.359940,195.688583 165.740143,192.727539 164.855423,189.884827 
	C161.911179,180.424774 156.432678,176.699356 146.606476,177.221359 
	C138.478592,177.653137 133.065079,182.641754 131.425980,191.779938 
	C130.430161,197.331818 129.742905,202.971802 129.413879,208.601227 
	C129.090210,214.139328 125.235542,213.125351 121.862366,213.333832 
	C118.256226,213.556702 117.562630,211.738403 117.532463,208.408615 
	C117.429237,197.013733 118.547485,185.822403 121.785988,174.872131 
	C127.500519,155.549759 146.547333,146.966354 163.565704,156.019989 
	C169.431747,159.140671 172.333267,164.559708 174.538971,170.370987 
	C177.572983,178.364578 178.728989,186.808380 179.266449,195.274445 
	C180.427979,213.570374 179.983856,231.909302 180.417267,250.224167 
	C180.612991,258.495178 181.357971,266.807800 185.330841,274.452087 
	C191.013031,285.385345 202.508530,288.372498 212.573303,280.980499 
	C222.394791,273.767090 230.659805,264.760101 239.589859,256.524597 
	C244.627823,251.878479 249.658356,247.238266 255.615234,243.847397 
	C258.786316,242.042313 259.898773,239.828430 259.851196,236.235657 
	C259.672699,222.750214 259.799561,209.246063 263.059082,196.042343 
	C269.091675,171.605392 285.313507,158.177170 309.549072,153.877808 
	C322.140991,151.644028 334.793915,151.974945 347.172546,155.386337 
	C372.098724,162.255661 384.792816,179.513916 388.353607,204.437256 
	C389.558319,212.869766 389.815399,221.357330 389.883392,229.828644 
	C390.069458,252.993698 389.921509,276.161255 390.007874,299.327423 
	C390.023376,303.489563 390.121490,306.897491 384.175293,306.478607 
	C377.778687,306.028015 377.691071,306.363617 377.687500,299.541077 
	C377.673676,273.207886 377.714600,246.874603 377.656830,220.541519 
	C377.641357,213.507675 376.551971,206.640305 373.928528,200.035202 
	C368.327637,185.933487 356.704620,180.615479 342.853668,178.254913 
	C333.237579,176.616058 323.594788,177.241257 313.492737,177.396667 
M289.352417,261.071350 
	C285.119232,259.775146 280.787170,260.205597 276.494659,260.477234 
	C273.600922,260.660400 271.829132,262.229004 272.354523,265.395020 
	C273.031342,269.473480 273.368134,273.688660 274.678955,277.565125 
	C277.487335,285.870117 282.834259,291.344513 291.763306,294.032013 
	C300.635162,296.702240 308.241364,288.024384 307.239197,279.896515 
	C305.963928,269.553772 301.563538,264.550659 289.352417,261.071350 
z"/>
</svg>