<svg version="1.1" id="Layer_1" xmlns="http://www.w3.org/2000/svg" xmlns:xlink="http://www.w3.org/1999/xlink" x="0px" y="0px"
	 width="100%" viewBox="0 0 512 512" enable-background="new 0 0 512 512" xml:space="preserve">
<path fill="#000000" opacity="1.000000" stroke="none" 
	d="
M294.345520,180.551437 
	C290.714020,179.911209 287.476196,179.370209 283.364563,178.683182 
	C289.086243,166.555817 296.705322,156.972977 309.534729,153.878418 
	C335.409210,147.637268 357.486115,157.408707 365.244598,187.147827 
	C367.903870,197.341080 369.063965,207.775803 369.133087,218.261475 
	C369.312225,245.419281 369.219421,272.579102 369.156097,299.737946 
	C369.151001,301.917816 370.164490,304.955017 367.359039,305.924774 
	C364.399963,306.947662 360.976837,306.960419 358.032471,305.813690 
	C355.790955,304.940643 356.699371,302.289795 356.695679,300.409332 
	C356.643524,273.916901 356.657745,247.424332 356.664337,220.931808 
	C356.666016,214.248917 355.952515,207.621353 354.500702,201.124878 
	C350.863800,184.850464 339.121155,175.856720 323.720276,177.266830 
	C322.217224,177.404449 320.721191,177.474243 319.376068,178.588028 
	C319.454407,180.874191 321.601532,181.680344 322.901184,182.977890 
	C332.134583,192.196487 335.903961,203.862213 337.093811,216.309631 
	C339.144684,237.764404 338.490112,259.190002 334.250336,280.405182 
	C333.399261,284.663849 331.941193,288.753021 330.104156,292.682678 
	C324.052460,305.627960 309.696533,312.161804 295.880798,308.379944 
	C290.106415,306.799286 285.955078,303.174408 282.611633,298.383911 
	C280.230743,294.972595 277.967468,291.438782 275.245758,288.313080 
	C266.427460,278.186035 253.429169,278.593719 245.205383,289.149323 
	C243.058334,291.905151 240.971741,294.740356 239.170212,297.727783 
	C228.204132,315.912537 200.227234,311.045776 192.142380,294.821106 
	C186.038223,282.571289 184.529968,269.450958 183.659180,256.128326 
	C182.462906,237.825821 183.426620,219.483475 182.664734,201.173401 
	C182.456772,196.175140 181.764053,191.226990 180.188690,186.464478 
	C178.082947,180.098572 174.494965,177.396255 168.129227,177.138916 
	C160.836243,176.844055 156.425583,179.384460 153.955048,185.779510 
	C151.265533,192.741333 151.271881,200.123322 151.290573,207.444275 
	C151.300735,211.415771 149.567001,213.176239 145.629639,213.347290 
	C139.585770,213.609848 138.754425,212.886383 138.647415,206.818680 
	C138.425949,194.261002 139.479568,181.858139 143.741684,169.957565 
	C148.695190,156.126526 158.809067,150.249405 172.916000,152.649414 
	C183.143616,154.389420 188.145126,161.599899 191.069977,170.570099 
	C193.969833,179.463577 195.071564,188.742050 195.276138,198.069183 
	C195.681427,216.548996 194.835953,235.050659 196.306793,253.514236 
	C196.758575,259.185547 197.921204,264.681763 199.748367,270.057007 
	C205.947174,288.293030 230.316071,287.843231 239.009659,276.431305 
	C242.125595,272.341095 244.682281,267.825073 247.498032,263.505890 
	C254.583267,252.637619 266.366089,252.048660 274.227417,262.321503 
	C277.863831,267.073425 281.131226,272.108124 284.556610,277.021118 
	C292.943756,289.050781 316.248688,286.463745 321.523529,270.295319 
	C323.877228,263.080780 324.758850,255.682358 325.267456,248.229965 
	C326.354156,232.308640 325.538788,216.605576 318.637054,201.796387 
	C313.734863,191.277679 306.034088,183.937027 294.345520,180.551437 
z"/>
</svg>