<svg version="1.1" id="Layer_1" xmlns="http://www.w3.org/2000/svg" xmlns:xlink="http://www.w3.org/1999/xlink" x="0px" y="0px"
	 width="100%" viewBox="0 0 512 512" enable-background="new 0 0 512 512" xml:space="preserve">
<path fill="#000000" opacity="1.000000" stroke="none" 
	d="
M152.099579,213.310608 
	C148.633286,213.250381 147.646942,211.544510 147.678757,208.753418 
	C147.819656,196.392014 148.691757,184.099747 152.878403,172.367172 
	C158.544266,156.489243 171.559387,149.338470 188.048584,152.839157 
	C196.846115,154.706894 202.158859,160.752625 205.351807,168.699448 
	C209.556839,179.165237 210.751724,190.272415 211.255753,201.423874 
	C211.554901,208.042191 211.310532,214.685074 211.310532,221.602310 
	C215.469452,221.602310 219.072006,221.731094 222.661011,221.565903 
	C226.209625,221.402557 225.656982,218.516357 225.606049,216.310226 
	C225.372513,206.195953 226.861511,196.377014 230.837326,187.064407 
	C237.535385,171.375504 249.427475,161.234634 265.536560,156.249847 
	C283.969025,150.546066 302.626221,150.148788 320.996033,156.423492 
	C343.325745,164.050842 354.741577,180.699966 358.334076,203.397537 
	C359.691528,211.973846 359.828827,220.638138 359.878632,229.278961 
	C360.015961,253.102951 359.957275,276.928223 359.926483,300.752899 
	C359.919220,306.362640 359.548157,306.277771 352.217773,306.466736 
	C347.410309,306.590637 347.451965,304.145355 347.452545,300.537292 
	C347.456268,277.386627 347.144318,254.235764 347.182556,231.085388 
	C347.195221,223.421478 347.221802,215.797440 345.695343,208.261047 
	C342.691681,193.431259 333.852692,183.736221 319.235718,180.143570 
	C298.953491,175.158493 278.684845,175.256546 258.876129,182.748322 
	C243.232056,188.665024 237.523514,204.184540 238.270004,218.693756 
	C238.492920,223.026520 242.277969,222.338394 244.700394,222.468613 
	C253.891541,222.962677 262.888489,224.657547 271.734009,226.877640 
	C285.925537,230.439514 299.243561,235.946960 309.707825,246.792206 
	C320.162506,257.627563 323.069305,270.843567 320.895233,285.129028 
	C319.014160,297.488983 308.658020,305.671936 293.422852,308.297180 
	C259.636383,314.119080 226.317093,286.561493 225.702621,252.186630 
	C225.638092,248.575562 225.380844,246.108643 220.675858,246.335236 
	C212.619659,246.723236 211.292450,247.262543 211.420776,252.629974 
	C211.688675,263.833282 210.922958,274.934845 208.079681,285.782928 
	C204.001892,301.340973 194.875214,309.036224 181.015930,309.310211 
	C171.933075,309.489746 165.358429,305.399994 160.825119,297.843262 
	C152.908020,284.645905 154.890778,261.967285 164.921570,248.679489 
	C172.441483,238.717819 182.013306,231.425507 193.670761,227.087601 
	C197.556259,225.641769 199.157440,223.654724 199.017883,219.456223 
	C198.713898,210.310455 199.193832,201.103622 196.605072,192.186890 
	C194.510590,184.972656 190.949081,178.813004 182.782379,177.380234 
	C172.311523,175.543213 165.124481,180.176910 162.621857,190.503784 
	C161.414444,195.486084 160.779739,200.657745 160.414169,205.781372 
	C159.893158,213.083252 160.027130,213.169464 152.099579,213.310608 
M262.988342,288.537476 
	C264.688385,289.219574 266.368988,289.955841 268.091705,290.574829 
	C277.907867,294.101807 287.793701,295.105286 297.891663,291.631744 
	C304.605255,289.322388 307.051300,285.192200 305.854950,278.307251 
	C304.639923,271.314728 300.177765,266.732910 294.725220,262.993439 
	C280.853424,253.479782 264.854492,250.372650 248.607864,248.192001 
	C237.574341,246.711075 236.553070,248.042923 238.784882,258.959900 
	C241.618881,272.822601 250.147354,281.941833 262.988342,288.537476 
M184.536255,255.053940 
	C175.649139,260.041504 170.304153,267.246704 169.664322,277.745697 
	C169.043808,287.927307 174.382904,294.638092 182.809250,293.624695 
	C187.694595,293.037140 190.976654,289.966888 193.317093,285.955017 
	C199.871796,274.719238 198.892731,262.410248 198.752258,249.822784 
	C193.335785,250.302383 189.295074,252.608871 184.536255,255.053940 
z"/>
</svg>