<svg version="1.1" id="Layer_1" xmlns="http://www.w3.org/2000/svg" xmlns:xlink="http://www.w3.org/1999/xlink" x="0px" y="0px"
	 width="100%" viewBox="0 0 512 512" enable-background="new 0 0 512 512" xml:space="preserve">
<path fill="#000000" opacity="1.000000" stroke="none" 
	d="
M324.241699,208.000031 
	C323.948334,223.814621 324.757019,239.133057 323.394287,254.448044 
	C320.311798,289.091034 300.016602,308.553253 266.191498,309.311218 
	C256.595978,309.526215 247.223434,308.296448 238.292496,304.734680 
	C219.389725,297.195862 210.108231,282.243652 206.711365,262.963043 
	C203.361694,243.950333 205.361404,224.731781 204.701675,205.614563 
	C204.499969,199.769958 203.848969,193.982697 202.527420,188.308395 
	C200.800003,180.891342 196.634445,177.387192 189.795609,177.132675 
	C181.990738,176.842209 177.709152,179.844986 175.189148,187.274261 
	C173.004135,193.715973 173.428543,200.425644 173.025879,207.054871 
	C172.818329,210.471756 171.954819,213.148849 167.631958,213.369400 
	C160.943665,213.710632 159.803482,212.509430 160.246078,205.792633 
	C160.901718,195.842773 160.926178,185.857132 163.583344,176.112411 
	C164.689316,172.056412 166.163391,168.221603 168.105484,164.522446 
	C172.809433,155.562759 180.538681,151.749237 190.287064,152.032516 
	C200.461823,152.328186 207.456955,157.577560 211.400726,166.942062 
	C215.745728,177.259354 216.726288,188.229446 217.101639,199.190491 
	C217.552032,212.342422 217.211838,225.519608 217.384827,238.683609 
	C217.474518,245.508392 218.132416,252.325302 220.053284,258.903870 
	C223.978729,272.347656 232.917603,280.224518 246.730682,282.806183 
	C259.516205,285.195831 272.234253,285.297729 284.803619,281.901215 
	C300.086273,277.771454 308.619293,267.452454 310.748260,251.847427 
	C311.496368,246.363861 311.647522,240.913300 311.648743,235.422958 
	C311.652161,220.257233 311.434082,205.086624 311.775146,189.928558 
	C311.887604,184.930679 310.666779,182.573395 305.505890,181.308990 
	C295.509308,178.859833 286.545227,174.155548 279.389801,166.431519 
	C269.129028,155.355347 266.804474,142.048904 269.220520,127.842522 
	C270.789551,118.616791 276.382294,112.005821 286.006836,110.147331 
	C295.839264,108.248703 304.538452,110.532616 311.121582,118.641884 
	C318.512054,127.745621 321.697845,138.497910 323.329163,149.853989 
	C323.494568,151.005341 323.623596,152.166016 323.688751,153.326904 
	C323.914917,157.360138 325.955994,158.445770 329.700836,157.318405 
	C340.905670,153.945160 348.494385,146.892624 351.853516,135.597916 
	C352.885010,132.129578 353.500244,128.537430 354.302338,125.018379 
	C361.666901,125.946045 364.839661,129.581589 364.358246,136.400162 
	C362.787994,158.641083 350.748383,175.637634 332.355286,181.579422 
	C324.252991,184.196808 324.251221,184.196823 324.243317,193.000610 
	C324.238983,197.833755 324.241791,202.666885 324.241699,208.000031 
M298.338898,155.183884 
	C302.372223,156.525330 306.323853,158.371246 310.739655,157.448639 
	C311.421509,150.598557 309.524078,142.102997 305.835022,135.285721 
	C303.835449,131.590591 301.503418,128.199356 297.556061,126.268593 
	C289.818390,122.483833 282.282623,127.031189 282.346252,135.552933 
	C282.423676,145.920700 288.947296,151.278183 298.338898,155.183884 
z"/>
</svg>