<svg version="1.1" id="Layer_1" xmlns="http://www.w3.org/2000/svg" xmlns:xlink="http://www.w3.org/1999/xlink" x="0px" y="0px"
	 width="100%" viewBox="0 0 512 512" enable-background="new 0 0 512 512" xml:space="preserve">
<path fill="#000000" opacity="1.000000" stroke="none" 
	d="
M358.074432,167.040863 
	C358.032166,154.242050 358.007416,154.604813 369.633911,155.397934 
	C391.538361,156.892197 400.346588,169.642059 403.258423,189.496506 
	C404.707855,199.379822 405.238831,209.355545 405.231689,219.354218 
	C405.212494,246.182266 405.231750,273.010315 405.207703,299.838348 
	C405.202423,305.723083 400.320953,308.685486 394.916687,306.105072 
	C392.597931,304.997925 393.117035,302.729370 393.104919,300.820770 
	C393.038330,290.323212 393.078522,279.825043 393.043427,269.327179 
	C392.983246,251.332855 392.919647,233.338486 392.806671,215.344437 
	C392.754089,206.972824 391.789764,198.741562 388.629608,190.887146 
	C386.372498,185.277115 382.551025,181.486954 376.558594,179.962738 
	C371.256653,178.614151 370.236389,179.214920 370.225494,184.607452 
	C370.182404,205.936493 370.412964,227.268402 370.126923,248.593674 
	C369.975494,259.883942 369.582581,271.224701 366.319397,282.212860 
	C360.096161,303.168518 343.627228,307.374481 326.658417,306.267609 
	C323.453857,306.058563 323.732483,303.603180 323.724548,301.471985 
	C323.683533,290.474274 323.696594,279.476410 323.688782,268.478577 
	C323.676483,251.148697 323.839111,233.816086 323.570435,216.490158 
	C323.446808,208.515488 322.798279,200.436890 319.385803,193.049210 
	C311.877472,176.794632 291.531158,171.628693 276.787384,181.979874 
	C270.155457,186.635925 266.005554,192.826538 264.994781,200.857834 
	C264.440613,205.261032 262.339233,206.660873 258.037537,206.389526 
	C254.955368,206.195114 253.784790,205.210876 253.231415,202.129593 
	C251.111588,190.326294 244.302536,181.598236 232.889069,178.447479 
	C216.692932,173.976410 201.242096,179.274796 196.250229,197.256454 
	C194.322388,204.200958 193.438934,211.291275 193.400375,218.433823 
	C193.259995,244.427948 193.381058,270.423401 193.280945,296.417908 
	C193.238388,307.469452 194.818680,306.385559 182.981216,306.297089 
	C168.606583,306.189667 157.933624,299.975006 152.292343,286.512543 
	C149.324005,279.428833 148.233826,271.786804 147.678650,264.120819 
	C146.245026,244.325287 147.131409,224.489655 146.656876,204.677872 
	C146.513138,198.677460 145.865097,192.698349 144.054306,186.952866 
	C141.664413,179.369949 138.330673,177.092331 130.428757,177.191513 
	C122.817673,177.287048 118.871231,180.025909 116.748344,187.138351 
	C114.832954,193.555573 114.650398,200.241287 114.368042,206.874634 
	C114.128761,212.495850 113.019669,213.379547 107.049637,213.394104 
	C102.023918,213.406372 101.801849,210.259811 102.091751,206.701736 
	C102.913841,196.611923 102.950668,186.446838 105.597580,176.540298 
	C106.905937,171.643539 108.776421,167.056580 111.536118,162.882568 
	C117.097008,154.471756 125.225166,151.608521 134.925278,152.889206 
	C145.506821,154.286255 151.153137,161.339676 154.260422,170.784637 
	C156.818054,178.558807 157.939240,186.630341 158.344864,194.815536 
	C159.342850,214.954391 159.125961,235.110092 159.374146,255.260071 
	C159.461594,262.360718 161.179001,269.067291 165.400925,274.988892 
	C169.236649,280.368835 174.358704,282.585510 180.795334,281.872864 
	C182.177307,279.888916 181.622620,277.824493 181.626785,275.886017 
	C181.671814,254.890244 181.512344,233.892975 181.712769,212.899017 
	C181.833801,200.220535 183.613968,187.786102 187.667542,175.637436 
	C196.406281,149.447266 231.423752,147.832642 245.269196,159.335617 
	C251.455368,164.475189 255.075317,171.361740 258.612732,178.770050 
	C261.783600,173.851181 263.470459,168.534149 267.003052,164.285645 
	C276.003235,153.461517 287.904968,151.498550 300.940582,153.152191 
	C319.310089,155.482422 328.297333,167.322479 332.068970,184.278397 
	C334.023773,193.066467 335.283722,201.964767 335.313995,210.978394 
	C335.387360,232.807190 335.334564,254.636383 335.360474,276.465393 
	C335.366821,281.808624 336.174744,282.566162 341.547150,281.739532 
	C349.560730,280.506622 353.196320,274.617828 355.592682,267.753632 
	C358.218170,260.233246 358.015900,252.324524 358.046112,244.516693 
	C358.145325,218.856033 358.078644,193.194717 358.074432,167.040863 
z"/>
</svg>