<svg version="1.1" id="Layer_1" xmlns="http://www.w3.org/2000/svg" xmlns:xlink="http://www.w3.org/1999/xlink" x="0px" y="0px"
	 width="100%" viewBox="0 0 512 512" enable-background="new 0 0 512 512" xml:space="preserve">
<path fill="#000000" opacity="1.000000" stroke="none" 
	d="
M354.218933,170.813141 
	C364.984894,183.115295 368.875183,197.745514 369.171387,213.104660 
	C369.736725,242.419128 369.278900,271.752167 369.499542,301.075592 
	C369.535583,305.868744 367.441101,306.510803 363.485229,306.458649 
	C359.560150,306.406921 356.840912,306.187500 356.860321,301.005066 
	C356.964966,273.015533 357.073669,245.020859 356.643066,217.036240 
	C356.315674,195.760712 345.738983,183.110382 325.022003,178.851776 
	C310.353851,175.836594 295.529510,176.047363 280.946930,179.700577 
	C263.320953,184.116272 253.230347,196.654648 252.383148,214.840652 
	C252.127487,220.328400 252.361115,225.837341 252.213882,231.332382 
	C252.129593,234.478500 252.993118,235.571762 256.535522,235.435745 
	C271.958496,234.843643 285.491333,239.433121 293.843811,253.127029 
	C302.096680,266.657623 303.656647,281.487183 296.621796,296.024170 
	C289.039307,311.692780 267.169861,314.099609 254.129120,301.295258 
	C246.291489,293.599701 242.887177,283.786926 240.734497,273.373749 
	C240.442139,271.959534 240.800827,270.334167 238.968262,269.092712 
	C231.365875,274.291229 224.705276,280.797546 217.878067,287.065186 
	C210.858490,293.509430 203.548355,299.513123 195.295654,304.315826 
	C174.735886,316.280731 149.877792,306.107635 144.325424,283.185730 
	C141.520950,271.608032 144.668274,261.139771 151.885803,251.788422 
	C153.249420,250.021667 154.495468,249.731094 156.527832,250.863571 
	C163.218628,254.591827 163.692047,255.637115 160.053360,262.079498 
	C156.956436,267.562683 155.845825,273.114777 159.756241,278.496277 
	C163.687485,283.906433 169.466568,284.859253 175.805191,284.315216 
	C186.387100,283.407013 194.502670,277.651154 202.109070,271.063843 
	C210.540955,263.761688 218.658661,256.097473 226.956039,248.638596 
	C228.437134,247.307190 229.957245,245.760544 231.750305,245.080505 
	C238.676437,242.453705 240.181839,237.505371 239.797379,230.531021 
	C239.110199,218.065506 239.563477,205.598343 243.002197,193.400955 
	C249.181152,171.483780 263.795441,158.594940 285.671265,153.951385 
	C300.170502,150.873642 314.759247,151.146149 329.127960,155.422668 
	C338.756287,158.288315 347.185303,163.058884 354.218933,170.813141 
M276.964386,293.645081 
	C287.685944,290.368103 290.488586,276.862427 282.040466,268.153229 
	C274.958252,260.852173 265.929138,259.370819 256.260529,260.648010 
	C253.352432,261.032166 251.989975,262.820953 252.319534,265.898987 
	C252.816940,270.544617 253.545135,275.147491 255.389359,279.450134 
	C259.283722,288.535675 265.878937,293.829041 276.964386,293.645081 
z"/>
<path fill="#000000" opacity="1.000000" stroke="none" 
	d="
M175.631470,180.328186 
	C166.638855,173.547699 155.222885,177.760040 152.452499,188.733322 
	C150.907455,194.853043 150.137482,201.175018 150.396912,207.498230 
	C150.617996,212.886765 147.390366,213.221329 143.346146,213.389755 
	C138.954224,213.572647 137.527679,211.749298 137.608170,207.474411 
	C137.818573,196.299728 138.635544,185.236893 141.674408,174.421097 
	C146.237534,158.180252 158.991699,149.661758 174.138504,152.579971 
	C181.786835,154.053528 185.691223,159.328720 188.351425,165.919296 
	C192.323441,175.759796 193.062759,186.264771 194.252045,196.645187 
	C195.309891,205.878616 195.893890,215.166260 196.944595,224.400665 
	C197.329727,227.785492 196.589340,229.558853 192.913879,229.404449 
	C191.931259,229.363159 190.916489,229.552719 189.949234,229.777328 
	C186.526611,230.572083 184.738708,229.718231 184.422134,225.756973 
	C183.721176,216.985962 182.805771,208.219177 181.574051,199.507736 
	C180.649048,192.965439 179.953644,186.249802 175.631470,180.328186 
z"/>
</svg>