<svg version="1.1" id="Layer_1" xmlns="http://www.w3.org/2000/svg" xmlns:xlink="http://www.w3.org/1999/xlink" x="0px" y="0px"
	 width="100%" viewBox="0 0 512 512" enable-background="new 0 0 512 512" xml:space="preserve">
<path fill="#000000" opacity="1.000000" stroke="none" 
	d="
M312.581726,202.000000 
	C312.581543,187.503937 312.695465,173.506378 312.507233,159.512878 
	C312.458252,155.871658 313.396088,154.463089 317.231873,154.563309 
	C322.573395,154.702866 327.895203,154.768860 333.100311,156.058426 
	C346.355377,159.342377 354.667053,169.847000 357.428986,185.296448 
	C359.643982,197.686279 359.586548,210.173798 359.800171,222.610443 
	C360.243652,248.428955 359.959564,274.260284 359.914856,300.086243 
	C359.911285,302.138733 360.774261,305.075195 358.290588,305.867218 
	C355.008728,306.913788 351.236511,307.152985 348.044037,305.626099 
	C346.100006,304.696289 346.861511,302.007294 346.859161,300.061157 
	C346.828491,274.568359 346.817871,249.075516 346.844818,223.582718 
	C346.854340,214.583359 346.905853,205.564240 344.597412,196.793701 
	C342.640961,189.360596 339.699799,182.508499 331.353241,180.028687 
	C326.219513,178.503403 324.965515,179.327667 324.948151,184.616531 
	C324.893951,201.111649 325.103790,217.609940 324.844727,234.101257 
	C324.680450,244.557236 324.617737,255.077850 321.883911,265.311859 
	C316.559479,285.243683 304.292877,298.660919 284.366791,304.485260 
	C260.898834,311.344879 237.355728,311.730194 214.256989,303.106598 
	C197.591934,296.884949 187.107986,284.981720 184.118225,266.998383 
	C181.716064,252.549454 188.511932,237.829178 201.180206,230.453888 
	C202.413086,229.736099 204.036179,229.515488 204.939651,227.636826 
	C194.925949,223.313461 187.952362,216.199951 184.957870,205.533325 
	C182.040543,195.141541 184.646835,185.541718 189.572083,176.002838 
	C177.536530,179.159454 167.120316,191.734741 166.274979,203.602585 
	C165.596603,213.126144 165.972183,222.606781 168.662231,231.801971 
	C169.772247,235.596268 168.611328,237.272949 165.178375,238.542450 
	C154.669083,242.428787 156.054794,244.779175 152.996613,232.193192 
	C150.395279,221.487320 149.641830,210.522018 151.464508,199.504654 
	C153.905823,184.747894 162.478180,174.554123 175.084610,167.244522 
	C191.332642,157.823425 209.264313,154.439194 227.607559,152.872849 
	C243.557785,151.510849 259.549194,151.271011 275.323547,154.766129 
	C281.392609,156.110840 283.099884,155.520462 281.511169,163.075531 
	C280.729462,166.792892 280.475128,170.664047 280.397736,174.474045 
	C280.326447,177.985260 278.602112,178.740524 275.605408,178.302216 
	C262.847046,176.436127 250.009537,176.890396 237.211090,177.393829 
	C227.892014,177.760391 218.615540,179.064072 210.089020,183.290253 
	C196.522690,190.014404 195.367722,203.774429 207.485046,212.757843 
	C215.424057,218.643555 224.664719,220.647018 234.151749,221.603165 
	C241.093369,222.302795 248.084732,223.118744 255.087357,222.547943 
	C259.906219,222.155106 259.930328,225.171417 260.007507,228.591858 
	C260.090057,232.250504 259.516602,234.588211 254.889816,234.462967 
	C242.717575,234.133469 230.588867,234.679550 218.843307,238.448059 
	C214.517532,239.835968 210.561218,241.933655 206.910797,244.613449 
	C197.031601,251.865799 196.493851,264.993408 205.769424,273.007599 
	C212.455383,278.784332 220.620880,281.154785 229.063065,282.492493 
	C246.448730,285.247253 263.819916,285.230103 281.157349,281.719818 
	C300.148224,277.874756 310.543213,265.718353 311.891083,246.453171 
	C312.916595,231.795074 312.322266,217.149033 312.581726,202.000000 
z"/>
</svg>