<svg version="1.1" id="Layer_1" xmlns="http://www.w3.org/2000/svg" xmlns:xlink="http://www.w3.org/1999/xlink" x="0px" y="0px"
	 width="100%" viewBox="0 0 512 512" enable-background="new 0 0 512 512" xml:space="preserve">
<path fill="#000000" opacity="1.000000" stroke="none" 
	d="
M345.268707,173.809311 
	C354.947113,186.844315 357.850677,201.712402 358.115601,216.987411 
	C358.601044,244.979019 358.164642,272.985565 358.420410,300.983093 
	C358.468414,306.238464 355.914032,306.438751 351.969818,306.459229 
	C347.910156,306.480255 345.531372,305.967712 345.573181,300.850159 
	C345.790955,274.185577 345.837952,247.516434 345.570404,220.852615 
	C345.458893,209.739334 343.427979,199.034546 335.647888,190.177765 
	C330.793976,184.652161 324.686768,181.437576 317.810425,179.783386 
	C300.839111,175.700729 283.776733,175.704453 266.950592,180.461121 
	C251.343170,184.873276 242.442337,197.133835 241.161133,213.598648 
	C240.046585,227.921982 240.588196,242.237305 240.317398,256.554321 
	C240.146774,265.573883 239.189148,274.455231 236.463821,283.120300 
	C231.861801,297.752350 221.275223,305.994385 205.743423,306.253540 
	C191.472992,306.491638 193.759323,307.880096 193.701431,294.607788 
	C193.577118,266.108551 193.724121,237.608154 193.602707,209.108902 
	C193.571533,201.790298 192.858017,194.482483 190.902924,187.372879 
	C189.012970,180.500137 185.209869,177.383347 178.564041,177.154648 
	C171.025055,176.895218 166.769440,179.603821 164.253937,186.314102 
	C161.628510,193.317657 161.916382,200.752808 161.496338,208.010193 
	C161.190308,213.297928 158.130905,213.230774 154.463806,213.371338 
	C150.537811,213.521805 148.577103,212.109818 148.780228,207.867981 
	C149.377380,195.397278 149.644165,182.865036 153.939163,170.953644 
	C159.758530,154.814606 172.466721,148.217651 187.256363,153.697052 
	C197.841568,157.618744 200.971802,167.050568 203.265091,176.820877 
	C205.366730,185.774597 205.943848,194.944794 206.035248,204.089432 
	C206.275055,228.086945 206.223373,252.087326 206.294968,276.086548 
	C206.312332,281.907776 207.496307,282.724243 213.219284,280.894867 
	C220.122086,278.688354 223.446243,273.253326 225.666840,266.910492 
	C228.080093,260.017334 227.869492,252.810867 227.903793,245.658051 
	C227.973267,231.177460 227.876770,216.720932 229.583160,202.273621 
	C232.550415,177.151230 250.651443,157.806534 275.572632,153.663681 
	C288.689667,151.483139 301.696564,151.342819 314.696167,154.562378 
	C326.916687,157.588989 337.153473,163.649719 345.268707,173.809311 
z"/>
</svg>