<svg version="1.1" id="Layer_1" xmlns="http://www.w3.org/2000/svg" xmlns:xlink="http://www.w3.org/1999/xlink" x="0px" y="0px"
	 width="100%" viewBox="0 0 512 512" enable-background="new 0 0 512 512" xml:space="preserve">
<path fill="#000000" opacity="1.000000" stroke="none" 
	d="
M260.114136,171.058777 
	C266.973877,184.816574 268.591980,199.330154 269.291412,214.014282 
	C269.861450,225.980850 268.541107,237.985077 270.149567,249.943420 
	C273.116211,271.999542 282.993073,282.098907 305.225708,284.464996 
	C315.143768,285.520477 325.249359,285.543030 335.049591,283.155060 
	C353.757355,278.596741 363.285614,266.968018 363.623108,247.417908 
	C364.094818,220.096588 363.976624,192.765045 364.104126,165.437851 
	C364.155212,154.480988 364.379272,154.589050 375.303314,155.360031 
	C397.307373,156.912964 405.886444,168.836624 409.257690,189.152893 
	C410.596771,197.222534 411.066925,205.396347 411.139832,213.515854 
	C411.398712,242.343628 411.245178,271.175232 411.217651,300.005371 
	C411.212219,305.689880 405.907318,308.764008 400.777985,306.040344 
	C398.351074,304.751678 399.067841,302.267578 399.064789,300.206421 
	C399.027069,274.709320 399.101898,249.211929 399.019318,223.715027 
	C398.989655,214.562622 398.998047,205.359955 396.514557,196.437653 
	C394.391937,188.811798 391.245422,181.976456 382.454865,179.903488 
	C377.109344,178.642883 376.213745,179.185181 376.202789,184.694244 
	C376.164764,203.858704 376.337128,223.025009 376.123535,242.187195 
	C375.997192,253.521637 374.631958,264.702728 370.671478,275.491730 
	C364.549866,292.167969 352.542725,302.386017 335.804291,306.931580 
	C319.936188,311.240753 303.953308,310.490479 288.835083,303.917053 
	C269.833466,295.655060 261.697937,279.438965 258.669098,259.905426 
	C256.893646,248.455399 258.052948,236.948349 257.631348,225.475540 
	C257.326050,217.166580 257.223328,208.825363 255.539200,200.636261 
	C252.491302,185.816086 245.768951,179.263077 230.796814,177.518066 
	C223.211990,176.634064 215.527435,176.766617 207.909485,178.314499 
	C198.126541,180.302277 192.561249,186.355530 190.071777,195.696289 
	C188.217911,202.652222 187.491882,209.785446 187.406982,216.928421 
	C187.216888,232.924469 187.442352,248.925171 187.293274,264.922058 
	C187.198547,275.085938 186.150604,285.170013 183.341049,294.997498 
	C181.096512,302.848694 176.625244,308.309570 167.963379,309.246857 
	C158.366135,310.285370 151.100250,306.520630 146.678650,298.516937 
	C141.632126,289.381989 141.404266,279.276123 141.163834,269.366089 
	C140.646622,248.047287 140.812973,226.712082 140.674469,205.383759 
	C140.636490,199.536438 139.874451,193.748566 138.422958,188.104599 
	C136.404312,180.255432 132.549545,177.249237 125.076141,177.183990 
	C116.782654,177.111588 112.606682,180.036728 110.491859,187.936584 
	C108.807587,194.228165 108.317482,200.752380 108.413887,207.224915 
	C108.490196,212.348007 105.930832,213.322754 101.597527,213.414337 
	C96.989128,213.511703 95.792595,211.221695 96.067596,207.210052 
	C97.032448,193.135132 96.921173,178.871231 103.748512,165.880432 
	C108.344765,157.134857 115.317856,152.364044 125.420860,152.694977 
	C135.346924,153.020126 142.435379,157.524033 146.562897,166.696243 
	C150.461975,175.360809 151.707718,184.582657 152.243469,193.882584 
	C153.537399,216.344116 153.248474,238.840210 153.199982,261.326691 
	C153.188461,266.670197 153.504059,271.970673 154.420380,277.229614 
	C154.882004,279.878998 155.710876,282.386047 157.596100,284.435364 
	C162.582016,289.855194 170.247162,288.501587 172.665756,281.611267 
	C175.467896,273.628387 175.368317,265.200195 175.553345,256.924347 
	C175.892258,241.766800 175.581116,226.595886 175.694763,211.431717 
	C175.769913,201.404297 177.236816,191.522079 180.089081,181.915405 
	C184.956284,165.522247 195.455154,155.420242 212.875992,153.306686 
	C225.352844,151.792969 237.462234,152.508591 248.679703,158.945190 
	C253.594589,161.765335 256.986206,166.039322 260.114136,171.058777 
z"/>
</svg>