<svg version="1.1" id="Layer_1" xmlns="http://www.w3.org/2000/svg" xmlns:xlink="http://www.w3.org/1999/xlink" x="0px" y="0px"
	 width="100%" viewBox="0 0 512 512" enable-background="new 0 0 512 512" xml:space="preserve">
<path fill="#000000" opacity="1.000000" stroke="none" 
	d="
M185.825516,177.140808 
	C176.445068,177.551361 172.156967,181.267685 170.380112,190.044266 
	C169.282593,195.465302 169.388489,200.970505 169.045288,206.449097 
	C168.658524,212.623428 164.694199,215.061493 158.739944,213.109238 
	C156.310608,212.312729 155.918182,210.460861 156.057953,208.361420 
	C156.808029,197.094254 156.511551,185.667084 159.909317,174.748230 
	C163.347641,163.698990 168.287201,154.029602 181.710968,152.317398 
	C193.335144,150.834732 202.764038,155.866302 207.349701,166.797745 
	C211.740356,177.264297 212.787338,188.388062 213.134964,199.522385 
	C213.545517,212.672638 213.208282,225.844498 213.392746,239.004242 
	C213.486008,245.656784 214.136368,252.310211 215.988342,258.730743 
	C219.864136,272.167664 228.719421,280.146515 242.531326,282.770813 
	C255.475174,285.230225 268.299286,285.130768 281.092468,281.877808 
	C295.682007,278.168121 303.810730,268.305603 306.359558,254.027237 
	C308.958923,239.465790 308.449005,224.824173 304.147919,210.541977 
	C298.717621,192.509888 287.811523,180.643906 267.929840,179.235718 
	C267.461700,179.202560 267.013092,178.894363 265.770416,178.405930 
	C270.568176,167.822983 277.175934,158.877487 288.232452,155.057007 
	C311.875000,146.887512 338.782166,154.175369 347.224792,186.480438 
	C349.842773,196.497971 351.214935,206.709915 351.247559,217.054001 
	C351.334778,244.710388 351.310699,272.367218 351.255737,300.023743 
	C351.251709,302.048859 352.252289,304.920837 349.752686,305.841919 
	C346.641937,306.988190 343.045502,307.012604 339.964508,305.758240 
	C337.838867,304.892822 338.711975,302.191895 338.708282,300.287323 
	C338.653900,272.297546 338.753143,244.307114 338.592010,216.318115 
	C338.545898,208.310089 337.320343,200.400360 333.784454,193.047394 
	C327.539795,180.061615 313.896545,173.887329 301.148438,178.600082 
	C304.368774,182.429626 307.785400,185.954208 310.577087,189.918839 
	C317.456360,199.688553 319.123596,211.126144 319.862579,222.629715 
	C320.835419,237.773056 320.750153,252.948212 317.081177,267.803467 
	C310.854248,293.015533 291.679626,308.327606 265.606598,309.276917 
	C254.857773,309.668304 244.286072,308.766113 234.221481,304.709747 
	C215.364548,297.109772 206.091156,282.177094 202.701920,262.895081 
	C199.389740,244.051468 201.341125,225.010468 200.712204,206.065857 
	C200.512604,200.053375 199.861893,194.103073 198.511826,188.268066 
	C196.846909,181.072174 193.319916,178.055817 185.825516,177.140808 
z"/>
</svg>