<svg version="1.1" id="Layer_1" xmlns="http://www.w3.org/2000/svg" xmlns:xlink="http://www.w3.org/1999/xlink" x="0px" y="0px"
	 width="100%" viewBox="0 0 512 512" enable-background="new 0 0 512 512" xml:space="preserve">
<path fill="#000000" opacity="1.000000" stroke="none" 
	d="
M380.696533,300.866211 
	C380.688293,271.887451 380.767853,243.395126 380.611359,214.904099 
	C380.567474,206.911087 379.575165,198.973511 376.558655,191.429291 
	C374.024445,185.091171 369.631989,180.957153 362.846924,179.567856 
	C359.447540,178.871780 357.755157,179.471573 357.808136,183.744843 
	C358.049713,203.235947 358.297546,222.742310 357.771973,242.222397 
	C357.401642,255.949402 358.072510,269.831360 353.597443,283.244659 
	C348.788422,297.658997 338.018433,306.081543 322.750519,306.271454 
	C309.356323,306.438080 311.119080,307.942230 311.101685,294.690460 
	C311.068481,269.365540 311.643616,244.031204 311.121094,218.718231 
	C310.681946,197.444717 302.106842,183.381958 279.524902,178.883377 
	C263.482300,175.687485 247.347183,176.002792 231.573318,180.577988 
	C216.330444,184.999146 206.591293,197.708115 206.339966,214.026230 
	C205.901291,242.510162 206.008179,271.002563 205.899796,299.491486 
	C205.873672,306.360199 205.897781,306.360291 198.953842,306.352844 
	C177.913757,306.330292 166.717407,298.008636 162.133301,278.575470 
	C160.492157,271.618225 159.728439,264.496918 159.639969,257.299927 
	C159.408752,238.487473 159.005707,219.677185 158.699936,200.865555 
	C158.634583,196.844223 157.952850,192.922379 156.998550,189.040359 
	C154.833710,180.234146 151.117920,177.107407 142.966919,177.160873 
	C134.908127,177.213730 130.401077,181.078918 128.365662,189.401245 
	C126.807037,195.774139 127.301979,202.318710 126.530510,208.762772 
	C125.873482,214.250916 122.092804,213.117294 118.778099,213.297012 
	C114.959457,213.504074 114.645386,211.012146 114.640053,208.035538 
	C114.616074,194.655930 115.462952,181.414124 120.688850,168.865265 
	C126.203484,155.623093 136.556870,150.335510 150.401184,153.669403 
	C160.292633,156.051376 164.469055,163.796265 167.099487,172.485825 
	C170.451950,183.560593 171.049622,195.081009 171.199493,206.571259 
	C171.403748,222.231003 171.040253,237.901871 171.456650,253.553696 
	C171.692520,262.419312 173.251038,271.136749 180.245880,277.751495 
	C183.884216,281.192139 188.077896,282.447632 192.880615,281.851471 
	C194.175873,279.814880 193.660156,277.762543 193.667755,275.817139 
	C193.744629,256.156738 193.419800,236.487183 193.926361,216.838730 
	C194.261475,203.839890 196.576462,191.163086 203.341751,179.568649 
	C212.196365,164.393433 226.027344,156.969879 242.532959,153.973495 
	C255.068283,151.697845 267.714783,151.983261 280.165039,155.259430 
	C303.611450,161.429092 316.795776,176.975662 321.268860,200.380463 
	C322.801025,208.397217 323.423279,216.505630 323.359894,224.695374 
	C323.225769,242.022720 323.444855,259.353333 323.239227,276.679291 
	C323.183533,281.369141 324.960541,282.545807 329.226105,281.740540 
	C336.424225,280.381714 340.563446,275.705872 342.827942,269.210083 
	C344.862335,263.374268 345.715973,257.288696 345.707062,251.067520 
	C345.664276,221.242737 345.686218,191.417862 345.696686,161.593018 
	C345.698944,155.190582 345.927734,154.921082 352.497162,155.092789 
	C360.373810,155.298676 368.208099,156.064697 375.065979,160.387848 
	C384.698547,166.460129 388.541748,176.032349 390.357727,186.728348 
	C393.130310,203.058472 392.904053,219.545319 392.937103,236.014725 
	C392.979553,257.175232 392.965332,278.335938 392.916077,299.496460 
	C392.901276,305.851746 388.338470,308.648071 382.487122,306.082611 
	C380.208588,305.083588 380.921539,303.067352 380.696533,300.866211 
z"/>
<path fill="#000000" opacity="1.000000" stroke="none" 
	d="
M249.242996,212.712402 
	C256.975525,212.506058 261.830780,216.092804 265.280762,222.332748 
	C271.782776,234.092819 273.759064,247.142227 276.116302,260.036652 
	C278.923370,275.391510 281.206818,290.842346 283.691010,306.255798 
	C284.433533,310.862701 283.393188,311.494019 275.736206,312.767944 
	C271.481323,313.475830 272.088959,310.504761 271.705353,308.211670 
	C268.554291,289.374756 267.042114,270.253754 261.853912,251.769394 
	C260.805573,248.034515 259.286133,244.544876 256.774414,241.587265 
	C250.455704,234.146881 240.785263,235.612610 237.300232,244.727905 
	C235.999344,248.130463 234.855301,249.667053 230.909973,248.188477 
	C227.340225,246.850647 225.705185,245.342407 226.934219,241.322067 
	C229.331497,233.480392 231.900909,225.826294 237.536377,219.527756 
	C240.659805,216.036819 244.176987,213.538406 249.242996,212.712402 
z"/>
</svg>