<svg version="1.1" id="Layer_1" xmlns="http://www.w3.org/2000/svg" xmlns:xlink="http://www.w3.org/1999/xlink" x="0px" y="0px"
	 width="100%" viewBox="0 0 512 512" enable-background="new 0 0 512 512" xml:space="preserve">
<path fill="#000000" opacity="1.000000" stroke="none" 
	d="
M340.642883,214.307404 
	C339.891998,207.400314 339.487457,200.903030 337.551880,194.662628 
	C335.436188,187.841553 331.934601,182.206131 324.583435,179.996979 
	C319.433746,178.449402 318.272217,179.230927 318.260406,184.587952 
	C318.220428,202.749207 318.310211,220.910904 318.222992,239.071838 
	C318.162811,251.608505 316.954956,263.987335 312.396515,275.835022 
	C310.099335,281.805634 307.062408,287.361359 302.699829,292.018433 
	C300.528351,294.336517 300.251282,296.396271 301.452667,299.155701 
	C303.712128,304.345306 305.880951,309.579498 307.902161,314.865997 
	C309.436798,318.879822 307.966095,320.345276 301.193329,323.069977 
	C297.286804,324.641632 297.048279,321.607758 296.147583,319.495544 
	C294.385223,315.362671 292.714691,311.184204 291.192749,306.957397 
	C290.051147,303.786835 288.592133,303.144287 285.211121,304.453033 
	C268.082733,311.082947 250.608780,311.242615 233.422897,305.086792 
	C213.894974,298.092102 204.347031,282.773438 200.706970,263.126312 
	C197.954758,248.271286 198.969955,233.250381 198.824142,218.283859 
	C198.728485,208.466095 198.995819,198.630310 196.684113,188.977463 
	C194.652817,180.495621 190.442657,176.973923 182.499847,177.120270 
	C174.753845,177.263016 169.978409,181.632950 168.355591,189.936920 
	C167.262894,195.528168 167.457123,201.210953 166.971878,206.843491 
	C166.470016,212.668945 161.812317,215.274414 156.364517,212.997498 
	C154.252579,212.114807 153.942398,210.367737 154.058899,208.480301 
	C154.775040,196.878555 154.567383,185.125061 158.195648,173.916916 
	C161.593704,163.419937 166.451355,154.207886 179.136810,152.461487 
	C191.257034,150.792892 200.431564,155.556839 205.300446,166.759537 
	C209.760513,177.021606 210.752670,188.006287 211.114761,198.968384 
	C211.554611,212.284592 211.157257,225.626389 211.406540,238.951782 
	C211.549545,246.596085 212.374649,254.173752 214.951157,261.514374 
	C219.029510,273.133759 227.292770,279.803467 239.006470,282.487122 
	C251.355835,285.316345 263.766357,284.890442 276.166321,282.723816 
	C276.978790,282.581848 277.784882,282.355377 278.562469,282.079559 
	C279.017242,281.918274 279.409607,281.581055 280.444763,280.945648 
	C278.177582,275.223114 275.961029,269.384583 273.558167,263.623779 
	C270.417877,256.095062 267.379974,248.498596 262.674255,241.750443 
	C261.440765,239.981598 260.170654,238.182098 258.631470,236.692078 
	C250.904572,229.212112 242.169495,231.738586 239.486664,242.153778 
	C237.964508,248.062988 236.519516,248.835419 230.561157,247.285339 
	C228.765640,246.818253 227.933884,245.793350 228.081116,244.121033 
	C228.944275,234.316757 230.009338,224.530731 235.169098,215.820023 
	C240.762939,206.376541 250.879028,204.706329 259.239471,211.891022 
	C265.412537,217.195908 269.584961,224.031677 273.209778,231.205429 
	C279.377350,243.411530 284.041473,256.260864 289.220032,268.890045 
	C289.968384,270.715057 290.363861,272.736786 292.360657,274.622528 
	C297.082947,271.893341 299.772186,267.419708 301.772491,262.552307 
	C304.521179,255.863785 305.603668,248.767731 305.622375,241.570328 
	C305.692169,214.745026 305.764343,187.918564 305.552429,161.094757 
	C305.513428,156.159744 306.754425,154.188110 311.956451,154.538330 
	C316.942780,154.874023 321.933502,154.881638 326.803131,156.161499 
	C341.032715,159.901382 347.413849,170.322189 350.344666,183.739014 
	C352.307495,192.724701 352.976196,201.881622 353.065277,210.993332 
	C353.356873,240.815155 353.114563,270.641998 353.338165,300.464935 
	C353.376404,305.568970 351.295807,306.440460 346.807617,306.508026 
	C342.017944,306.580139 340.536346,305.085663 340.569427,300.250885 
	C340.764557,271.760651 340.655548,243.268356 340.642883,214.307404 
z"/>
</svg>