<svg version="1.1" id="Layer_1" xmlns="http://www.w3.org/2000/svg" xmlns:xlink="http://www.w3.org/1999/xlink" x="0px" y="0px"
	 width="100%" viewBox="0 0 512 512" enable-background="new 0 0 512 512" xml:space="preserve">
<path fill="#000000" opacity="1.000000" stroke="none" 
	d="
M318.337311,214.000092 
	C317.983917,231.811584 319.259827,249.159470 317.294891,266.432800 
	C316.468323,273.698853 315.319458,280.882416 312.920959,287.880005 
	C304.196198,313.334564 276.378204,315.432495 259.980347,298.241791 
	C250.296494,288.089752 242.833160,276.118530 233.181213,265.957794 
	C229.067551,261.627319 224.847000,257.411346 218.690353,255.120728 
	C217.874725,262.769135 217.171585,270.149139 216.275070,277.505554 
	C215.628433,282.811646 214.259842,287.959869 212.049438,292.852264 
	C206.727600,304.631348 197.365997,310.193848 184.475006,309.255066 
	C174.208481,308.507385 165.188034,300.143890 163.257721,287.200653 
	C160.591080,269.320160 163.847748,252.638870 177.689011,239.487122 
	C184.410080,233.100845 192.575592,229.506729 201.560562,227.738327 
	C203.973114,227.263489 205.633545,226.643082 205.657959,223.796082 
	C205.753601,212.635986 206.005356,201.447342 202.589050,190.641693 
	C200.348007,183.553345 196.326096,178.051849 188.190704,177.275467 
	C176.741211,176.182800 170.175156,181.547699 168.407043,193.510056 
	C167.726990,198.111099 167.554504,202.784805 167.011932,207.409119 
	C166.390747,212.703537 164.438644,213.852676 158.287521,213.331757 
	C153.463776,212.923248 154.004501,209.677643 154.207642,206.431198 
	C154.830246,196.481064 155.166336,186.521652 157.825958,176.794052 
	C161.852524,162.066772 169.793900,154.379211 183.452408,152.448120 
	C197.045471,150.526306 207.271164,156.488464 212.175766,169.406876 
	C215.387131,177.865387 216.525864,186.760406 217.367783,195.719635 
	C218.257492,205.187332 218.320663,214.668381 218.291397,224.158508 
	C218.284988,226.237183 218.409012,228.044083 220.963226,228.836548 
	C234.299683,232.974304 243.476257,242.639236 252.362656,252.679901 
	C259.758881,261.036835 266.269714,270.107025 273.654449,278.499146 
	C282.591644,288.655518 295.619537,283.861053 300.282806,275.036743 
	C304.657593,266.758301 305.429169,257.796326 305.538666,248.879150 
	C305.884460,220.724228 305.698059,192.563019 305.769196,164.404373 
	C305.796356,153.649780 304.607635,154.567917 315.845459,154.699799 
	C327.170380,154.832718 337.300446,157.988220 344.179260,167.733215 
	C349.738831,175.609253 351.586578,184.852844 352.214935,194.169479 
	C354.627380,229.940628 352.758087,265.772247 353.395538,301.571106 
	C353.490662,306.915161 350.280060,306.289886 346.888458,306.408813 
	C343.110870,306.541229 340.658966,306.139618 340.685547,301.187256 
	C340.843109,271.863281 340.817505,242.536987 340.608826,213.213196 
	C340.550720,205.050644 339.348328,196.977020 335.702667,189.455338 
	C333.210938,184.314453 329.298462,181.047119 323.775452,179.673355 
	C320.077942,178.753647 318.170135,179.661667 318.265137,184.010880 
	C318.479706,193.836456 318.335388,203.669861 318.337311,214.000092 
M176.345917,274.877563 
	C176.353271,277.208313 176.150192,279.562897 176.411087,281.864929 
	C176.983383,286.914551 178.827316,291.450653 184.037521,293.204102 
	C189.101822,294.908417 193.573471,293.049072 197.212692,289.382385 
	C200.205795,286.366669 201.974548,282.581635 203.085281,278.513397 
	C205.024216,271.411865 205.581375,264.158875 205.733795,256.812408 
	C205.818146,252.746674 203.950150,251.850037 200.567032,252.364197 
	C189.100952,254.106827 178.214554,258.790344 176.345917,274.877563 
z"/>
</svg>