<svg version="1.1" id="Layer_1" xmlns="http://www.w3.org/2000/svg" xmlns:xlink="http://www.w3.org/1999/xlink" x="0px" y="0px"
	 width="100%" viewBox="0 0 512 512" enable-background="new 0 0 512 512" xml:space="preserve">
<path fill="#000000" opacity="1.000000" stroke="none" 
	d="
M140.688477,207.123230 
	C140.717117,200.283340 139.973831,193.996399 138.357101,187.871490 
	C136.303192,180.090393 132.438095,177.186478 124.850189,177.173920 
	C116.793098,177.160583 112.719490,180.032776 110.569221,187.672867 
	C108.801048,193.955322 108.641899,200.478775 108.344315,206.951187 
	C108.094406,212.386505 107.003136,213.267426 101.380112,213.397614 
	C96.596634,213.508347 95.788010,210.843353 96.061241,207.014648 
	C97.053185,193.115189 96.939842,179.031296 103.605911,166.155685 
	C108.254120,157.177658 115.299515,152.314667 125.603035,152.701187 
	C135.535736,153.073807 142.593185,157.675430 146.621841,166.876846 
	C150.561722,175.875519 151.769913,185.418259 152.279327,195.069290 
	C153.192566,212.370605 152.975281,229.702026 153.419800,247.013229 
	C153.745270,259.688538 158.030914,270.912109 169.245285,278.194305 
	C175.369507,282.171143 182.499695,283.725403 189.619354,284.391174 
	C199.570633,285.321747 209.603592,285.465027 219.436676,283.084351 
	C236.234192,279.017456 244.518280,269.354950 246.762009,252.216568 
	C248.328995,240.247375 247.183365,228.257004 247.714691,216.292892 
	C248.357788,201.811905 249.461761,187.421432 255.681320,173.926743 
	C260.667328,163.108505 268.917725,156.623322 280.407745,154.163742 
	C290.810608,151.936874 301.243408,151.929138 311.535339,154.793549 
	C325.612671,158.711472 333.490204,168.580139 337.084351,182.261536 
	C339.711670,192.262604 341.316772,202.429947 341.349457,212.809723 
	C341.410248,232.130417 340.977814,251.457901 342.289154,270.761505 
	C342.516754,274.111633 342.961639,277.413605 344.044373,280.545013 
	C345.686096,285.293060 349.092804,287.781189 354.287781,287.682129 
	C359.190033,287.588654 360.653259,284.088013 361.809662,280.304047 
	C364.383240,271.882507 363.987823,263.162628 364.024689,254.537476 
	C364.155151,224.042038 364.065643,193.545715 364.086578,163.049744 
	C364.092102,155.048035 364.636566,154.670456 372.691406,155.098907 
	C383.304230,155.663452 393.119507,157.979050 400.447388,166.524963 
	C406.139526,173.163239 407.664978,181.380081 409.249512,189.542267 
	C410.808533,197.573044 411.057831,205.781204 411.131592,213.901337 
	C411.391968,242.561829 411.239746,271.226196 411.214417,299.889069 
	C411.209259,305.715546 406.206268,308.724426 400.876587,306.090118 
	C398.382812,304.857513 399.099365,302.356873 399.093231,300.300171 
	C399.037964,281.802765 399.092590,263.305023 399.031281,244.807617 
	C398.993744,233.478943 398.877686,222.149460 398.666534,210.822769 
	C398.535187,203.774124 397.157806,196.910202 394.442841,190.403244 
	C392.294647,185.254700 388.678680,181.562073 383.045349,180.058716 
	C377.154572,178.486633 376.195648,179.065506 376.190643,185.076416 
	C376.169159,210.906311 376.320190,236.737350 376.115540,262.565643 
	C376.037903,272.367249 375.347992,282.198212 372.974060,291.772644 
	C369.910065,304.130249 364.408234,309.219513 354.464081,309.295197 
	C343.004608,309.382385 335.979645,303.839539 332.773682,291.813171 
	C330.227051,282.260101 329.878937,272.436218 329.677185,262.606201 
	C329.280792,243.294052 330.714996,223.950058 328.710693,204.668671 
	C328.401581,201.695450 327.888489,198.731491 327.275848,195.803833 
	C324.838654,184.156937 316.790314,178.871536 305.727509,177.629349 
	C297.957825,176.756912 290.122375,176.592392 282.343384,178.142105 
	C271.523468,180.297577 265.101105,186.949646 262.383423,197.404312 
	C259.765137,207.476761 259.706360,217.827545 259.376434,228.127060 
	C258.982849,240.413300 260.081360,252.727005 257.478210,264.951080 
	C251.658035,292.281952 233.517761,307.878693 205.484619,309.240967 
	C190.840637,309.952576 176.849106,307.713287 164.543533,299.244202 
	C148.962845,288.521027 143.613419,272.370972 141.700638,254.552155 
	C140.023819,238.931473 141.275970,223.249771 140.688477,207.123230 
z"/>
</svg>