<svg version="1.1" id="Layer_1" xmlns="http://www.w3.org/2000/svg" xmlns:xlink="http://www.w3.org/1999/xlink" x="0px" y="0px"
	 width="100%" viewBox="0 0 512 514" enable-background="new 0 0 512 514" xml:space="preserve">
<path fill="#FFFFFF" opacity="1.000000" stroke="none" 
	d="
M328.000000,515.000000 
	C218.693161,515.000000 109.886330,515.000000 1.039749,515.000000 
	C1.039749,343.734894 1.039749,172.469772 1.039749,1.102325 
	C171.556854,1.102325 342.113770,1.102325 512.835327,1.102325 
	C512.835327,172.333206 512.835327,343.666595 512.835327,515.000000 
	C451.469727,515.000000 389.984863,515.000000 328.000000,515.000000 
M206.176407,99.106743 
	C204.801422,98.550613 203.464111,97.861267 202.045288,97.460205 
	C193.586792,95.069191 184.413300,99.379982 180.978516,107.296333 
	C177.326050,115.714447 180.644424,125.614128 188.632050,130.128952 
	C196.313034,134.470459 205.932541,132.427322 211.322495,125.309624 
	C217.464172,117.199181 215.610413,106.574265 206.176407,99.106743 
M245.807816,120.370262 
	C249.434250,129.003174 255.284042,132.719604 264.351227,132.151062 
	C271.352112,131.712067 277.197144,126.805252 279.290985,119.609276 
	C281.518433,111.954185 278.901245,104.304382 272.533325,99.857376 
	C267.010925,96.000832 258.431519,95.798859 252.851074,99.611565 
	C245.708282,104.491730 243.562088,111.316299 245.807816,120.370262 
M232.077026,52.132648 
	C230.748337,52.113255 229.410004,51.980785 228.092514,52.092941 
	C219.964676,52.784866 213.255554,59.269985 212.144577,67.441292 
	C211.041107,75.557426 215.851059,83.611496 223.508698,86.470070 
	C231.148483,89.321983 239.599258,86.629494 244.260666,79.921860 
	C250.351440,71.157410 247.419266,55.355015 232.077026,52.132648 
z"/>
<path fill="#020202" opacity="1.000000" stroke="none" 
	d="
M206.498062,99.304298 
	C215.610413,106.574265 217.464172,117.199181 211.322495,125.309624 
	C205.932541,132.427322 196.313034,134.470459 188.632050,130.128952 
	C180.644424,125.614128 177.326050,115.714447 180.978516,107.296333 
	C184.413300,99.379982 193.586792,95.069191 202.045288,97.460205 
	C203.464111,97.861267 204.801422,98.550613 206.498062,99.304298 
z"/>
<path fill="#020202" opacity="1.000000" stroke="none" 
	d="
M245.665115,119.981079 
	C243.562088,111.316299 245.708282,104.491730 252.851074,99.611565 
	C258.431519,95.798859 267.010925,96.000832 272.533325,99.857376 
	C278.901245,104.304382 281.518433,111.954185 279.290985,119.609276 
	C277.197144,126.805252 271.352112,131.712067 264.351227,132.151062 
	C255.284042,132.719604 249.434250,129.003174 245.665115,119.981079 
z"/>
<path fill="#020202" opacity="1.000000" stroke="none" 
	d="
M232.497620,52.182613 
	C247.419266,55.355015 250.351440,71.157410 244.260666,79.921860 
	C239.599258,86.629494 231.148483,89.321983 223.508698,86.470070 
	C215.851059,83.611496 211.041107,75.557426 212.144577,67.441292 
	C213.255554,59.269985 219.964676,52.784866 228.092514,52.092941 
	C229.410004,51.980785 230.748337,52.113255 232.497620,52.182613 
z"/>
</svg>