<svg version="1.1" id="Layer_1" xmlns="http://www.w3.org/2000/svg" xmlns:xlink="http://www.w3.org/1999/xlink" x="0px" y="0px"
	 width="100%" viewBox="0 0 512 512" enable-background="new 0 0 512 512" xml:space="preserve">
<path fill="#000000" opacity="1.000000" stroke="none" 
	d="
M347.911957,178.024445 
	C331.953705,173.821655 316.857269,174.687119 302.515991,182.504135 
	C297.640594,185.161575 293.299286,188.574371 290.342163,193.372589 
	C288.668579,196.088120 287.008881,196.377655 284.225189,194.821350 
	C276.025909,190.237350 275.668823,189.713547 280.677612,181.830093 
	C292.329712,163.490585 308.589783,152.022873 330.764618,152.082794 
	C362.371521,152.168167 382.508606,170.860443 388.057251,200.247864 
	C391.908539,220.645554 389.716217,240.773468 379.037384,259.207092 
	C369.212891,276.166016 349.738312,285.115509 331.475555,281.351990 
	C316.672119,278.301361 310.715637,268.699860 314.792542,254.218613 
	C316.724518,247.356216 320.381104,241.496735 325.405396,236.379440 
	C328.083130,233.652161 330.330414,233.509659 333.022339,236.071838 
	C334.102753,237.100189 335.345734,237.969482 336.570862,238.831421 
	C338.561737,240.232101 339.230804,241.767334 337.282196,243.716568 
	C337.165466,243.833313 337.069275,243.973938 336.979431,244.113678 
	C332.366211,251.285416 332.039978,257.497894 336.062592,261.534027 
	C340.206543,265.691895 348.288635,266.008270 354.705170,262.303680 
	C359.622192,259.464813 363.194916,255.281128 365.948669,250.478424 
	C373.214447,237.806412 376.076630,224.210312 373.949829,209.654205 
	C371.666870,194.029648 363.121521,183.537689 347.911957,178.024445 
z"/>
<path fill="#000000" opacity="1.000000" stroke="none" 
	d="
M142.614090,177.675293 
	C144.540558,173.058426 147.753540,171.233032 152.260437,172.313217 
	C156.152084,173.245941 158.145355,176.124023 158.113678,179.971756 
	C158.079941,184.070389 155.788132,186.791489 151.714249,187.748093 
	C146.295349,189.020538 142.388718,184.866058 142.614090,177.675293 
z"/>
<path fill="#000000" opacity="1.000000" stroke="none" 
	d="
M124.589584,227.122284 
	C123.660904,221.527481 125.401161,217.987869 129.366791,216.765808 
	C133.634079,215.450790 137.713058,217.214630 139.248276,221.100647 
	C140.889069,225.253952 139.669128,228.638458 136.057800,231.009171 
	C132.141922,233.579773 128.423477,232.320770 124.589584,227.122284 
z"/>
<path fill="#000000" opacity="1.000000" stroke="none" 
	d="
M249.592316,220.935150 
	C252.119965,216.399429 255.833344,215.713318 260.031830,216.906952 
	C263.389984,217.861664 264.571686,220.779022 264.746399,223.846832 
	C264.952393,227.464127 263.180969,230.183960 259.724945,231.644150 
	C256.790131,232.884125 254.104889,232.222778 251.861938,230.232544 
	C249.185043,227.857269 248.012833,224.881668 249.592316,220.935150 
z"/>
<path fill="#000000" opacity="1.000000" stroke="none" 
	d="
M162.913483,166.120392 
	C165.611313,158.701157 172.174789,156.553543 176.695221,161.231567 
	C179.761871,164.405151 179.477188,169.807739 176.086716,172.779129 
	C172.609055,175.826874 167.534393,175.289291 164.718277,171.556061 
	C163.596329,170.068710 162.943451,168.393204 162.913483,166.120392 
z"/>
<path fill="#000000" opacity="1.000000" stroke="none" 
	d="
M220.911285,174.157471 
	C215.072189,175.150543 211.366974,173.138000 210.232986,168.417160 
	C209.232849,164.253601 211.127182,161.343246 214.827255,159.579895 
	C218.443970,157.856262 222.911957,159.277496 224.782196,162.597183 
	C227.096497,166.705063 225.961517,170.408951 220.911285,174.157471 
z"/>
<path fill="#000000" opacity="1.000000" stroke="none" 
	d="
M145.092499,247.892975 
	C144.366669,251.539856 142.891312,254.215698 139.472641,255.243683 
	C135.195847,256.529663 131.035309,254.341537 129.523911,250.104065 
	C128.114532,246.152649 130.016449,242.102158 134.083176,240.394180 
	C138.110260,238.702866 142.539017,240.495285 144.364258,244.629959 
	C144.758102,245.522079 144.868317,246.539398 145.092499,247.892975 
z"/>
<path fill="#000000" opacity="1.000000" stroke="none" 
	d="
M255.126953,240.462585 
	C259.573547,242.795380 260.323395,246.391983 259.212128,250.383057 
	C258.201508,254.012772 255.361771,255.615402 251.642899,255.568787 
	C247.840729,255.521118 245.434982,253.426743 244.221420,250.007904 
	C242.055496,243.906006 247.394958,239.027252 255.126953,240.462585 
z"/>
<path fill="#000000" opacity="1.000000" stroke="none" 
	d="
M154.674957,274.971558 
	C150.447998,277.255981 146.895782,276.683929 144.088898,273.371368 
	C141.707504,270.560944 141.682632,267.262573 143.541687,264.133881 
	C145.502197,260.834473 148.706802,260.326019 152.203903,260.779846 
	C157.121735,261.418030 161.340515,269.339935 154.674957,274.971558 
z"/>
<path fill="#000000" opacity="1.000000" stroke="none" 
	d="
M210.270828,279.573364 
	C211.711334,275.460693 214.329468,273.589417 218.308563,273.705841 
	C221.619507,273.802673 223.971069,275.347443 225.206146,278.452728 
	C226.490723,281.682556 226.005951,284.620636 223.602417,287.175873 
	C221.103287,289.832703 217.854980,290.055573 214.884201,288.811096 
	C211.197586,287.266724 209.459442,284.114990 210.270828,279.573364 
z"/>
<path fill="#000000" opacity="1.000000" stroke="none" 
	d="
M230.878540,178.393799 
	C232.491547,173.714600 235.498932,171.401123 240.053925,172.164169 
	C244.097366,172.841522 246.377914,175.406540 246.392181,179.781433 
	C246.406143,184.059891 244.347946,186.665176 240.347992,187.747238 
	C235.205368,189.138412 231.193405,185.322952 230.878540,178.393799 
z"/>
<path fill="#000000" opacity="1.000000" stroke="none" 
	d="
M128.989853,200.889709 
	C129.484116,195.911926 132.093750,193.199722 136.620087,192.816772 
	C140.010361,192.529968 142.721085,194.115295 144.190872,197.336426 
	C145.742859,200.737686 145.084518,203.824783 142.473434,206.413834 
	C137.932999,210.915939 131.410965,208.403275 128.989853,200.889709 
z"/>
<path fill="#000000" opacity="1.000000" stroke="none" 
	d="
M257.910461,205.829117 
	C253.189774,209.312042 249.042053,209.367371 246.176743,206.089066 
	C243.323853,202.824966 242.850876,199.229691 245.697723,195.741501 
	C248.495346,192.313690 252.109985,191.833862 255.942230,193.846359 
	C259.855743,195.901535 260.571930,200.070007 257.910461,205.829117 
z"/>
<path fill="#000000" opacity="1.000000" stroke="none" 
	d="
M199.990265,156.041382 
	C203.247467,159.931107 203.135574,163.646286 200.225418,167.101761 
	C197.640884,170.170624 194.064682,170.379303 190.754807,168.720642 
	C187.296844,166.987732 186.116562,163.672882 186.799286,159.894379 
	C187.805374,154.326050 193.834106,152.431915 199.990265,156.041382 
z"/>
<path fill="#000000" opacity="1.000000" stroke="none" 
	d="
M236.513382,276.090179 
	C232.243515,274.177856 230.138992,271.229889 230.869339,266.896515 
	C231.444794,263.482117 233.655960,261.331146 237.137894,260.745422 
	C242.074127,259.915100 245.924438,262.697876 246.343369,267.310211 
	C246.891586,273.346252 243.754318,276.302277 236.513382,276.090179 
z"/>
<path fill="#000000" opacity="1.000000" stroke="none" 
	d="
M187.051819,289.326263 
	C185.948334,284.226593 187.466858,280.634033 192.131165,279.118866 
	C195.987244,277.866241 199.466827,279.029785 201.396759,282.778290 
	C203.367584,286.606201 202.691025,290.351410 199.202209,292.935760 
	C195.972092,295.328461 192.402328,295.244629 189.251129,292.466095 
	C188.409897,291.724335 187.870819,290.639923 187.051819,289.326263 
z"/>
<path fill="#000000" opacity="1.000000" stroke="none" 
	d="
M163.799896,284.926941 
	C162.362579,279.337952 164.025940,275.549316 168.455383,274.157043 
	C172.431152,272.907379 175.782700,274.136780 177.900879,277.713867 
	C179.968079,281.204895 178.556900,286.152527 175.199036,288.304230 
	C171.606735,290.606110 167.544113,289.515442 163.799896,284.926941 
z"/>
</svg>