<svg version="1.1" id="Layer_1" xmlns="http://www.w3.org/2000/svg" xmlns:xlink="http://www.w3.org/1999/xlink" x="0px" y="0px"
	 width="100%" viewBox="0 0 512 512" enable-background="new 0 0 512 512" xml:space="preserve">
<path fill="#000000" opacity="1.000000" stroke="none" 
	d="
M234.647949,38.452770 
	C251.791595,31.204285 269.063202,30.649126 286.206757,36.135857 
	C305.495087,42.309013 314.631989,57.079876 317.235413,76.400688 
	C319.888428,96.089478 314.228699,113.579361 302.598846,129.357681 
	C301.419067,130.958282 300.154297,134.028259 297.758789,131.461334 
	C295.496338,129.037018 290.055664,127.667793 293.024231,122.568001 
	C295.616425,118.114731 298.549286,113.875549 300.878448,109.244186 
	C305.596344,99.862907 305.859985,89.868408 304.300751,79.956779 
	C302.742798,70.053329 296.501434,63.011223 287.193146,59.389286 
	C271.134003,53.140507 254.844330,53.368301 239.086655,60.204067 
	C225.342087,66.166534 219.077942,80.195770 221.598267,95.922409 
	C223.093491,105.252495 227.490082,113.147705 232.468765,120.873283 
	C234.964172,124.745499 232.554199,130.936157 228.110107,132.186783 
	C226.720718,132.577774 225.912369,131.835526 225.139847,130.903412 
	C206.411285,108.306091 203.316513,76.222038 217.217697,53.515987 
	C221.324860,46.807407 227.236084,42.010220 234.647949,38.452770 
z"/>
<path fill="#000000" opacity="1.000000" stroke="none" 
	d="
M294.588928,184.235748 
	C292.343658,177.769531 293.900299,173.878265 299.002014,172.348236 
	C303.264465,171.069855 307.531647,173.328369 308.810089,177.647980 
	C309.945923,181.485733 308.715942,184.661682 305.370880,186.675232 
	C301.362183,189.088287 297.736328,188.207733 294.588928,184.235748 
z"/>
<path fill="#000000" opacity="1.000000" stroke="none" 
	d="
M322.275757,200.094559 
	C321.256592,206.476990 318.164429,209.165466 313.105560,208.494095 
	C308.772614,207.919052 306.212372,204.297745 306.657806,199.456039 
	C307.044464,195.252823 309.772614,193.225677 313.524078,192.840942 
	C318.376282,192.343307 321.374268,194.811859 322.275757,200.094559 
z"/>
<path fill="#000000" opacity="1.000000" stroke="none" 
	d="
M316.331177,255.356110 
	C311.585663,256.084167 308.236755,254.571106 306.977539,250.261688 
	C305.881897,246.512192 306.557495,242.960449 310.414246,240.797211 
	C314.444244,238.536789 319.525513,240.033279 321.528046,244.060394 
	C323.706451,248.441177 321.878143,252.706879 316.331177,255.356110 
z"/>
<path fill="#000000" opacity="1.000000" stroke="none" 
	d="
M199.090454,239.741638 
	C204.096527,240.063614 206.974670,242.276489 207.294556,247.081223 
	C207.553528,250.971069 206.058563,253.960281 202.198425,255.219772 
	C198.219437,256.518066 194.977478,255.230804 192.776001,251.699982 
	C189.686111,246.744293 192.169540,241.800034 199.090454,239.741638 
z"/>
<path fill="#000000" opacity="1.000000" stroke="none" 
	d="
M274.409424,161.585602 
	C277.918518,158.384964 281.498749,157.831757 285.168091,160.215714 
	C288.172455,162.167618 288.820312,165.308441 288.123474,168.598862 
	C287.405945,171.986893 285.206238,174.084122 281.692688,174.669846 
	C278.585632,175.187805 276.108246,174.056244 274.298431,171.621552 
	C271.958008,168.473022 272.054199,165.169342 274.409424,161.585602 
z"/>
<path fill="#000000" opacity="1.000000" stroke="none" 
	d="
M217.424835,173.501434 
	C220.935608,176.589096 221.093033,180.151718 219.571793,183.710526 
	C218.293274,186.701538 215.502640,188.140686 212.310379,187.973785 
	C208.879532,187.794403 206.449829,185.773895 205.244492,182.554581 
	C204.098785,179.494507 204.631149,176.623245 207.066010,174.365005 
	C210.087234,171.562927 213.485580,171.200562 217.424835,173.501434 
z"/>
<path fill="#000000" opacity="1.000000" stroke="none" 
	d="
M190.302902,230.938873 
	C184.949677,225.315994 185.803833,218.611511 191.825134,216.771408 
	C195.472000,215.656952 198.863464,216.374695 201.081589,219.660919 
	C203.124954,222.688202 203.014282,226.065704 200.788803,228.946579 
	C198.136856,232.379547 194.643509,233.251038 190.302902,230.938873 
z"/>
<path fill="#000000" opacity="1.000000" stroke="none" 
	d="
M315.442352,217.335388 
	C319.327332,215.707413 322.655487,215.961716 325.385315,218.819199 
	C327.689453,221.231064 327.908295,224.245865 326.729431,227.187668 
	C325.454376,230.369492 322.943085,232.234726 319.407562,232.226227 
	C315.868256,232.217712 313.223267,230.337967 312.130798,227.141052 
	C310.871307,223.455353 311.338440,219.874924 315.442352,217.335388 
z"/>
<path fill="#000000" opacity="1.000000" stroke="none" 
	d="
M200.727081,192.819000 
	C205.376740,194.015518 207.572632,196.667343 207.325348,201.171555 
	C207.131668,204.699265 205.427490,207.235931 202.052094,208.158646 
	C198.413925,209.153214 195.143677,208.293304 192.903473,204.947876 
	C189.183273,199.392242 192.759537,193.524078 200.727081,192.819000 
z"/>
<path fill="#000000" opacity="1.000000" stroke="none" 
	d="
M249.849808,158.119675 
	C252.849548,153.929260 256.412476,152.571701 260.832672,154.837051 
	C264.222046,156.574097 265.272186,159.686035 264.699860,163.195969 
	C263.942261,167.841827 259.683563,170.430725 255.045166,169.383514 
	C250.393280,168.333267 248.243729,163.960892 249.849808,158.119675 
z"/>
<path fill="#000000" opacity="1.000000" stroke="none" 
	d="
M293.280334,267.336914 
	C294.361023,262.897888 296.863190,260.774109 301.134613,260.661255 
	C304.993988,260.559265 307.441254,262.396149 308.741119,265.859650 
	C310.004364,269.225616 308.840118,272.066711 306.399597,274.424042 
	C304.132812,276.613617 301.308685,276.867889 298.505371,275.874542 
	C294.763092,274.548462 293.232239,271.567383 293.280334,267.336914 
z"/>
<path fill="#000000" opacity="1.000000" stroke="none" 
	d="
M282.550537,273.900238 
	C287.207764,275.516205 288.854645,278.693512 288.208466,282.961914 
	C287.697723,286.335754 285.770477,288.728455 282.164795,289.274139 
	C278.367249,289.848785 275.279541,288.818451 273.448486,285.166931 
	C270.452881,279.193054 274.593506,273.784973 282.550537,273.900238 
z"/>
<path fill="#000000" opacity="1.000000" stroke="none" 
	d="
M264.580139,288.402283 
	C262.118500,293.817505 258.777374,295.607605 254.351852,294.191040 
	C250.856049,293.072052 248.268188,288.619446 249.065872,285.096100 
	C249.981369,281.052368 253.855453,278.291290 257.933258,278.776367 
	C262.439972,279.312408 264.533356,282.179291 264.580139,288.402283 
z"/>
<path fill="#000000" opacity="1.000000" stroke="none" 
	d="
M238.766907,172.687500 
	C235.320435,175.254761 232.080780,175.380280 228.833740,173.189850 
	C226.047409,171.310211 225.307907,168.546234 225.725876,165.374466 
	C226.169464,162.008331 228.364502,160.141434 231.388428,159.186829 
	C234.795822,158.111160 237.682358,159.340973 239.711777,162.025787 
	C242.368988,165.541183 241.825836,169.114624 238.766907,172.687500 
z"/>
<path fill="#000000" opacity="1.000000" stroke="none" 
	d="
M219.903442,271.797394 
	C215.678513,277.118866 210.345154,277.766876 206.784073,273.635315 
	C204.373093,270.838104 203.950790,267.699707 205.850266,264.466614 
	C208.021255,260.771362 211.519608,259.972351 215.312668,260.982758 
	C218.688660,261.882050 220.482239,264.399628 220.390625,268.014221 
	C220.361526,269.163208 220.182938,270.308411 219.903442,271.797394 
z"/>
<path fill="#000000" opacity="1.000000" stroke="none" 
	d="
M230.611389,288.995178 
	C226.311676,286.744781 224.852997,283.407898 225.930634,279.218597 
	C226.805603,275.817200 229.327209,274.003998 232.859879,273.722656 
	C236.423782,273.438751 239.040863,274.978851 240.557220,278.135712 
	C243.278412,283.800781 238.690125,291.277893 230.611389,288.995178 
z"/>
</svg>