<svg version="1.1" id="Layer_1" xmlns="http://www.w3.org/2000/svg" xmlns:xlink="http://www.w3.org/1999/xlink" x="0px" y="0px"
	 width="100%" viewBox="0 0 512 512" enable-background="new 0 0 512 512" xml:space="preserve">
<path fill="#000000" opacity="1.000000" stroke="none" 
	d="
M258.340515,55.361435 
	C251.217606,56.045193 244.678986,57.311375 238.647446,60.312256 
	C224.923584,67.140289 218.999268,80.257935 221.672348,96.328911 
	C223.254486,105.841026 227.912720,113.785255 232.974731,121.650787 
	C235.000000,124.797699 231.399124,131.882629 227.655579,132.277267 
	C226.483063,132.400864 225.810486,131.685989 225.167145,130.911392 
	C206.449203,108.374496 203.207123,76.174904 217.272797,53.503239 
	C224.422928,41.978344 235.679626,36.437069 248.569550,34.009354 
	C260.154358,31.827448 271.765930,32.105911 283.205841,35.149040 
	C302.628082,40.315529 315.355499,56.432034 317.389648,76.758537 
	C319.351379,96.361168 314.148865,113.634811 302.639801,129.279373 
	C301.476929,130.860077 300.259552,134.007874 297.813324,131.494202 
	C295.490295,129.107147 290.120300,127.664268 293.005249,122.612335 
	C295.560425,118.137878 298.525238,113.910782 300.860474,109.279358 
	C305.591248,99.896782 306.003632,89.866478 304.288422,79.983429 
	C302.122711,67.504478 293.336090,60.746521 281.590057,57.294250 
	C274.099792,55.092796 266.462402,55.239506 258.340515,55.361435 
z"/>
<path fill="#000000" opacity="1.000000" stroke="none" 
	d="
M255.646255,88.239899 
	C249.944183,88.001534 247.215271,91.145424 246.407959,95.842964 
	C245.678726,100.086121 243.024353,99.582275 240.135361,99.257156 
	C236.552170,98.853912 236.558243,96.430916 237.003189,93.756409 
	C238.181931,86.671204 239.798904,79.741463 244.055817,73.737404 
	C249.531830,66.013924 257.020172,65.666328 263.044189,73.034973 
	C266.630981,77.422371 269.635376,82.254440 271.932220,87.432800 
	C276.444580,97.606133 280.647278,107.917015 285.176117,118.082779 
	C287.527588,123.361130 283.184753,123.658699 280.364227,125.268135 
	C277.016754,127.178253 275.605377,125.366547 274.446838,122.514702 
	C270.883545,113.743294 267.303070,104.977417 263.585999,96.270569 
	C262.079865,92.742584 260.303589,89.277428 255.646255,88.239899 
z"/>
<path fill="#000000" opacity="1.000000" stroke="none" 
	d="
M321.042786,196.243439 
	C323.060730,202.030136 321.767395,206.334457 317.608276,207.915802 
	C314.059845,209.264969 310.655975,208.865494 308.211761,205.643661 
	C305.860352,202.544174 305.765900,198.981369 307.986084,195.939590 
	C310.372467,192.670135 313.930573,191.819885 317.743317,193.485138 
	C318.902069,193.991226 319.808075,195.076019 321.042786,196.243439 
z"/>
<path fill="#000000" opacity="1.000000" stroke="none" 
	d="
M311.670654,240.229980 
	C315.846649,239.164642 319.034058,240.142944 321.146759,243.462250 
	C323.015381,246.398102 322.692505,249.445816 320.818726,252.353836 
	C318.943054,255.264816 316.120300,255.830109 312.988037,255.456131 
	C309.626587,255.054779 307.505676,252.985931 306.844421,249.802948 
	C305.989807,245.689102 307.025909,242.209610 311.670654,240.229980 
z"/>
<path fill="#000000" opacity="1.000000" stroke="none" 
	d="
M296.673523,173.422943 
	C303.022919,171.005768 307.474091,172.770569 308.902222,177.924103 
	C310.115662,182.303009 307.454285,186.636642 302.824066,187.708954 
	C299.080597,188.575882 296.221466,187.011383 294.446808,183.877487 
	C292.303375,180.092300 292.968353,176.543015 296.673523,173.422943 
z"/>
<path fill="#000000" opacity="1.000000" stroke="none" 
	d="
M288.236206,165.275330 
	C287.922943,171.909439 284.707825,175.309265 279.687408,174.777176 
	C275.313202,174.313568 272.143890,170.110535 272.728577,165.525940 
	C273.216949,161.696335 275.693390,159.530304 279.211823,158.982529 
	C283.728790,158.279312 286.882141,160.327332 288.236206,165.275330 
z"/>
<path fill="#000000" opacity="1.000000" stroke="none" 
	d="
M315.980011,231.390930 
	C309.987701,226.251450 310.344666,219.103973 316.429901,216.881256 
	C319.789520,215.654083 323.070068,216.119751 325.504364,218.977295 
	C327.919800,221.812714 328.079163,225.139236 326.188019,228.233658 
	C323.928864,231.930237 320.550720,233.190903 315.980011,231.390930 
z"/>
<path fill="#000000" opacity="1.000000" stroke="none" 
	d="
M220.328186,179.136902 
	C220.575363,184.051590 218.348190,186.885376 214.099243,187.758850 
	C210.269669,188.546143 207.335983,186.755173 205.605682,183.286102 
	C203.943253,179.953094 204.442261,176.805267 207.196869,174.273361 
	C210.047592,171.653122 213.330276,171.208740 216.773987,173.126511 
	C218.938004,174.331650 220.163895,176.201279 220.328186,179.136902 
z"/>
<path fill="#000000" opacity="1.000000" stroke="none" 
	d="
M195.746735,232.136353 
	C188.845917,231.379730 185.594101,227.534592 186.811081,222.105545 
	C187.761063,217.867737 192.459076,215.332901 196.962372,216.715057 
	C200.091934,217.675568 202.031555,219.741730 202.300919,223.117310 
	C202.670868,227.753601 200.497375,230.668350 195.746735,232.136353 
z"/>
<path fill="#000000" opacity="1.000000" stroke="none" 
	d="
M206.561340,243.911835 
	C207.898834,248.040848 207.676071,251.574448 204.315887,254.130066 
	C201.741196,256.088257 198.736908,256.313110 195.895782,254.725540 
	C192.915756,253.060318 191.405396,250.419479 191.702148,246.891891 
	C192.003906,243.305023 194.102707,241.042740 197.343002,240.090424 
	C201.064285,238.996719 204.187408,240.220840 206.561340,243.911835 
z"/>
<path fill="#000000" opacity="1.000000" stroke="none" 
	d="
M303.503082,276.080811 
	C296.687897,276.319153 292.955017,273.197723 293.221527,267.918884 
	C293.458496,263.225281 297.585022,260.102173 302.635468,260.729340 
	C306.291443,261.183380 308.320496,263.543701 308.988159,266.811157 
	C309.864807,271.101105 307.791779,274.136688 303.503082,276.080811 
z"/>
<path fill="#000000" opacity="1.000000" stroke="none" 
	d="
M250.255341,157.443420 
	C253.462341,153.691422 256.993500,152.689194 261.075653,154.972534 
	C264.185181,156.711853 265.186401,159.644379 264.686401,162.986359 
	C263.955597,167.870911 259.543304,170.587784 254.758804,169.308502 
	C250.015198,168.040146 248.088806,163.337067 250.255341,157.443420 
z"/>
<path fill="#000000" opacity="1.000000" stroke="none" 
	d="
M272.856201,279.449707 
	C274.621368,274.987183 277.676056,273.160858 281.988617,273.835785 
	C285.439301,274.375854 287.609375,276.512451 288.229370,280.001617 
	C289.075531,284.763641 286.163269,288.845612 281.671661,289.309204 
	C275.744720,289.920929 272.760040,286.750488 272.856201,279.449707 
z"/>
<path fill="#000000" opacity="1.000000" stroke="none" 
	d="
M264.573975,288.401733 
	C262.116882,293.811920 258.781036,295.598724 254.355927,294.184509 
	C250.858978,293.066956 248.276794,288.626282 249.073792,285.100677 
	C249.986984,281.060944 253.860504,278.296387 257.930389,278.779633 
	C262.416901,279.312408 264.524139,282.199066 264.573975,288.401733 
z"/>
<path fill="#000000" opacity="1.000000" stroke="none" 
	d="
M207.172073,198.440033 
	C207.275452,205.522675 204.320770,208.880508 198.805573,208.442764 
	C194.222031,208.078964 191.068344,204.041275 191.750732,199.350266 
	C192.272446,195.763733 194.602753,193.623199 197.917953,192.960587 
	C202.198624,192.104980 205.368713,193.928040 207.172073,198.440033 
z"/>
<path fill="#000000" opacity="1.000000" stroke="none" 
	d="
M219.659332,272.137451 
	C215.839493,276.568115 212.169876,277.564667 208.628906,275.181671 
	C205.234665,272.897461 203.747726,269.668488 205.286499,265.684265 
	C206.909683,261.481415 210.326843,260.113190 214.572693,260.804901 
	C219.266586,261.569611 220.905045,265.080170 219.659332,272.137451 
z"/>
<path fill="#000000" opacity="1.000000" stroke="none" 
	d="
M240.478455,277.957794 
	C242.019440,282.191376 241.417419,285.636078 237.966843,288.063385 
	C235.319763,289.925507 232.296432,289.976807 229.481293,288.358887 
	C226.420700,286.599884 225.274628,283.773621 225.718079,280.302521 
	C226.146301,276.950653 228.124878,274.790070 231.282791,273.986115 
	C235.038834,273.029907 238.190125,274.131653 240.478455,277.957794 
z"/>
<path fill="#000000" opacity="1.000000" stroke="none" 
	d="
M228.016327,161.061493 
	C231.849091,158.113525 235.448074,158.083176 238.757675,160.993698 
	C241.552109,163.451157 242.108322,166.680634 240.584930,170.072830 
	C238.670410,174.335968 233.709305,175.905716 229.671494,173.667953 
	C225.136002,171.154388 224.399384,166.496841 228.016327,161.061493 
z"/>
</svg>