<svg version="1.1" id="Layer_1" xmlns="http://www.w3.org/2000/svg" xmlns:xlink="http://www.w3.org/1999/xlink" x="0px" y="0px"
	 width="100%" viewBox="0 0 512 512" enable-background="new 0 0 512 512" xml:space="preserve">
<path fill="#000000" opacity="1.000000" stroke="none" 
	d="
M248.883820,413.000397 
	C248.478790,413.976624 248.181778,414.585907 248.031006,415.229431 
	C246.631897,421.201385 245.623795,427.247925 250.716949,432.041504 
	C255.772278,436.799438 262.010010,436.482239 268.118469,434.829590 
	C275.815704,432.747009 281.554718,427.695984 286.406952,421.567963 
	C298.420227,406.396027 304.169373,388.658478 307.693573,369.959412 
	C311.610809,349.174835 310.511688,328.178528 310.657928,307.229858 
	C310.698273,301.450470 316.693512,298.171448 321.913544,301.036835 
	C323.173248,301.728363 323.282043,302.846436 323.289825,303.996094 
	C323.539948,341.096954 324.853851,378.326752 312.112762,414.084320 
	C307.553589,426.879547 301.528351,438.938416 291.429565,448.411743 
	C279.956329,459.174438 266.437378,462.338562 251.704529,457.056763 
	C238.393356,452.284668 233.800323,440.947266 232.844315,427.864380 
	C231.971695,415.922241 236.739838,405.668610 243.764496,396.498413 
	C250.542068,387.650757 257.966003,379.301514 264.944519,370.603790 
	C276.177887,356.603027 283.487030,340.691315 287.557312,323.246185 
	C288.035522,321.196594 287.453033,317.713409 291.085205,318.713806 
	C294.156403,319.559601 298.117981,320.059418 297.457428,325.307709 
	C295.898956,337.690704 291.968445,349.260590 286.290649,360.286316 
	C279.751892,372.983856 270.575989,383.767303 261.319946,394.494934 
	C256.523499,400.053925 252.145050,405.921936 248.883820,413.000397 
z"/>
<path fill="#000000" opacity="1.000000" stroke="none" 
	d="
M272.688965,166.104980 
	C274.266296,160.586578 277.653656,158.117828 282.003510,158.913773 
	C286.092010,159.661880 288.563690,162.827042 288.291016,167.146729 
	C288.010712,171.587265 285.538147,174.163574 281.178375,174.730560 
	C276.647736,175.319763 273.451294,172.141571 272.688965,166.104980 
z"/>
<path fill="#000000" opacity="1.000000" stroke="none" 
	d="
M296.100098,185.986267 
	C293.051239,182.692566 292.298340,179.303146 294.510925,175.717834 
	C296.329712,172.770676 299.200348,171.503082 302.625122,172.113571 
	C306.055939,172.725143 308.241669,174.891922 309.011017,178.310104 
	C309.741058,181.553680 308.642059,184.308853 306.055298,186.234421 
	C302.938049,188.554871 299.612518,188.627747 296.100098,185.986267 
z"/>
<path fill="#000000" opacity="1.000000" stroke="none" 
	d="
M322.281555,200.909576 
	C321.543060,206.206696 318.641418,208.710617 313.776642,208.510880 
	C309.822296,208.348526 307.334625,206.057220 306.714874,202.100281 
	C305.936707,197.131485 308.652100,193.423584 313.357635,192.785934 
	C318.054260,192.149475 321.184753,194.850479 322.281555,200.909576 
z"/>
<path fill="#000000" opacity="1.000000" stroke="none" 
	d="
M204.732605,179.948425 
	C205.907730,174.539810 208.932907,171.578369 212.958435,171.973038 
	C216.927582,172.362213 219.839630,174.263855 220.312546,178.673065 
	C220.808670,183.298676 218.672852,186.604660 214.453354,187.715546 
	C209.868484,188.922623 206.411423,186.303467 204.732605,179.948425 
z"/>
<path fill="#000000" opacity="1.000000" stroke="none" 
	d="
M327.203369,225.638184 
	C325.803192,230.149139 323.059601,232.558914 318.656677,232.142899 
	C315.029999,231.800217 312.569977,229.572495 311.782196,225.941788 
	C310.720581,221.048721 313.809082,216.814026 318.610596,216.336319 
	C323.890594,215.811020 326.987427,218.997147 327.203369,225.638184 
z"/>
<path fill="#000000" opacity="1.000000" stroke="none" 
	d="
M201.385956,220.080566 
	C202.989395,223.982819 202.711349,227.279404 199.858109,230.002136 
	C197.825439,231.941849 195.351212,232.818176 192.556564,231.891815 
	C189.124802,230.754196 186.957474,228.525024 186.680389,224.726425 
	C186.421860,221.182312 187.802765,218.434723 191.020828,217.097290 
	C194.906464,215.482422 198.482513,216.201599 201.385956,220.080566 
z"/>
<path fill="#000000" opacity="1.000000" stroke="none" 
	d="
M203.565384,254.654907 
	C198.968155,256.541046 195.365570,255.704071 192.856735,251.773666 
	C190.989548,248.848480 191.127121,245.765350 193.208282,242.946365 
	C195.923813,239.268112 201.230743,238.667450 204.668320,241.550598 
	C208.535980,244.794464 208.218613,250.104172 203.565384,254.654907 
z"/>
<path fill="#000000" opacity="1.000000" stroke="none" 
	d="
M320.229919,253.083862 
	C315.056824,256.641205 310.477173,256.178955 307.883789,252.172028 
	C305.501038,248.490509 306.398956,243.438889 309.845276,241.136841 
	C313.496246,238.698090 318.412903,239.516068 320.866425,243.101242 
	C323.102966,246.369308 322.744843,249.636078 320.229919,253.083862 
z"/>
<path fill="#000000" opacity="1.000000" stroke="none" 
	d="
M295.328308,273.750000 
	C292.202362,267.914185 293.208832,263.385040 297.762909,261.302307 
	C302.205933,259.270355 307.056274,261.286499 308.706177,265.876892 
	C310.001617,269.481110 308.815704,272.532257 305.993134,274.696503 
	C302.509460,277.367706 298.898621,276.858002 295.328308,273.750000 
z"/>
<path fill="#000000" opacity="1.000000" stroke="none" 
	d="
M199.873962,208.451248 
	C195.283081,208.341248 192.606247,206.159943 191.817062,202.098709 
	C191.127838,198.551971 192.246948,195.513428 195.654083,193.730896 
	C198.732620,192.120300 201.743195,192.392899 204.528046,194.437302 
	C207.275864,196.454559 207.822357,199.392395 207.177139,202.446854 
	C206.415543,206.052231 204.042084,208.156021 199.873962,208.451248 
z"/>
<path fill="#000000" opacity="1.000000" stroke="none" 
	d="
M251.245941,156.211517 
	C254.723892,153.325668 258.118835,152.945999 261.580566,155.284088 
	C264.326202,157.138535 265.247009,159.936035 264.664673,163.085495 
	C264.086761,166.210800 262.402405,168.594223 259.068420,169.322479 
	C255.729492,170.051804 252.788696,169.382980 250.685730,166.487610 
	C248.233215,163.110947 248.296036,159.750015 251.245941,156.211517 
z"/>
<path fill="#000000" opacity="1.000000" stroke="none" 
	d="
M230.152573,174.001526 
	C225.382462,170.280121 224.299042,166.033203 226.868622,162.340698 
	C229.243195,158.928421 233.822403,157.841293 237.388962,159.956879 
	C241.024353,162.113281 242.086685,165.427917 240.924255,169.333496 
	C239.652878,173.605042 235.989304,175.197372 230.152573,174.001526 
z"/>
<path fill="#000000" opacity="1.000000" stroke="none" 
	d="
M288.134949,279.444397 
	C288.214325,286.555267 285.336365,289.737061 279.652130,289.326752 
	C275.121033,288.999664 272.013184,284.905975 272.756836,280.164948 
	C273.313263,276.617584 275.502625,274.411469 278.940308,273.852997 
	C283.215088,273.158508 286.438965,274.802765 288.134949,279.444397 
z"/>
<path fill="#000000" opacity="1.000000" stroke="none" 
	d="
M255.398087,278.895752 
	C262.078186,279.146057 265.400482,282.364227 264.777161,287.516174 
	C264.209625,292.207489 260.288116,295.110596 255.501862,294.343597 
	C251.671280,293.729767 249.597366,291.119415 249.092056,287.606842 
	C248.455429,283.181244 250.897537,280.396240 255.398087,278.895752 
z"/>
<path fill="#000000" opacity="1.000000" stroke="none" 
	d="
M233.079224,273.716064 
	C238.236969,273.934265 240.863174,276.503967 241.250046,281.141602 
	C241.561050,284.869751 239.805069,287.748077 236.280579,288.914124 
	C232.479355,290.171722 229.015472,289.309448 226.736435,285.645172 
	C223.663025,280.703674 226.194092,275.641693 233.079224,273.716064 
z"/>
<path fill="#000000" opacity="1.000000" stroke="none" 
	d="
M220.345734,268.873169 
	C218.966980,274.729034 215.426910,277.271301 210.799515,276.142059 
	C206.889816,275.187958 204.103195,270.911011 204.847672,267.007050 
	C205.672882,262.679718 210.148880,259.772034 214.681702,260.828217 
	C218.616150,261.745026 220.492584,264.399445 220.345734,268.873169 
z"/>
</svg>