<svg version="1.1" id="Layer_1" xmlns="http://www.w3.org/2000/svg" xmlns:xlink="http://www.w3.org/1999/xlink" x="0px" y="0px"
	 width="100%" viewBox="0 0 512 512" enable-background="new 0 0 512 512" xml:space="preserve">
<path fill="#000000" opacity="1.000000" stroke="none" 
	d="
M327.195770,418.190186 
	C331.107941,410.952942 334.225555,403.869202 334.737000,395.831604 
	C335.186859,388.760834 332.369232,383.225677 327.417236,378.551178 
	C324.375610,375.679993 320.917572,373.363312 317.230469,371.393158 
	C315.468872,370.451904 313.674377,369.570343 311.932373,368.594604 
	C298.879639,361.283630 296.256927,355.893005 298.908112,341.309204 
	C301.208038,328.657593 305.484497,316.596008 310.093811,304.635437 
	C312.259674,299.015259 316.054504,302.290833 319.265930,302.856232 
	C323.166687,303.542969 322.094421,306.187927 321.164246,308.587036 
	C318.331207,315.894043 316.494354,323.437164 314.922211,331.121979 
	C313.279602,339.151001 316.108826,344.788818 322.509979,349.046814 
	C325.826263,351.252777 329.293488,353.299347 332.886688,355.010071 
	C350.667572,363.475708 353.585571,377.029510 350.591705,394.107391 
	C346.487762,417.517242 331.644653,434.322449 314.714264,449.605194 
	C311.751251,452.279877 308.508331,454.646667 305.574463,457.350708 
	C303.078217,459.651367 301.311401,459.117279 299.469208,456.588104 
	C297.775299,454.262604 295.697327,452.432861 299.146423,449.587494 
	C309.983490,440.647430 319.732849,430.668365 327.195770,418.190186 
z"/>
<path fill="#000000" opacity="1.000000" stroke="none" 
	d="
M307.274445,185.148727 
	C303.966797,188.163681 300.559479,188.975006 297.004578,186.666107 
	C294.137939,184.804214 292.816650,181.952957 293.412964,178.494705 
	C294.013794,175.010498 296.194672,172.893066 299.627106,172.147736 
	C302.872498,171.442993 305.625183,172.508209 307.546234,175.117355 
	C309.865845,178.267792 309.860931,181.601059 307.274445,185.148727 
z"/>
<path fill="#000000" opacity="1.000000" stroke="none" 
	d="
M272.679382,166.927643 
	C273.635315,161.245209 276.728424,158.444153 281.187439,158.800735 
	C285.374542,159.135544 288.160400,162.078812 288.307526,166.322937 
	C288.462952,170.807205 285.804199,174.079041 281.499664,174.700607 
	C277.119873,175.333054 274.027405,172.751236 272.679382,166.927643 
z"/>
<path fill="#000000" opacity="1.000000" stroke="none" 
	d="
M314.068604,192.732697 
	C320.144501,193.770020 322.813568,196.834290 322.237671,201.625214 
	C321.704620,206.059418 318.034302,209.034744 313.473633,208.513214 
	C309.540436,208.063477 307.140839,205.817932 306.681335,201.800858 
	C306.102386,196.740005 307.841125,194.530396 314.068604,192.732697 
z"/>
<path fill="#000000" opacity="1.000000" stroke="none" 
	d="
M209.864960,172.571320 
	C215.467499,171.598160 219.071045,173.395676 220.139557,177.375946 
	C221.317017,181.762054 219.578018,185.638306 215.686768,187.301254 
	C211.786331,188.968109 207.688324,187.404251 205.648865,183.470627 
	C203.500870,179.327621 204.698456,175.975983 209.864960,172.571320 
z"/>
<path fill="#000000" opacity="1.000000" stroke="none" 
	d="
M198.698303,230.948105 
	C194.356842,233.237915 190.874435,232.362198 188.224976,228.924835 
	C185.997589,226.035080 185.885834,222.680206 187.952103,219.652298 
	C190.188126,216.375641 193.560928,215.663391 197.212616,216.782623 
	C203.218445,218.623428 204.064316,225.375671 198.698303,230.948105 
z"/>
<path fill="#000000" opacity="1.000000" stroke="none" 
	d="
M314.777344,217.762726 
	C318.711426,215.569427 322.198822,215.770462 325.177246,218.610291 
	C327.734375,221.048431 327.958771,224.233795 326.649597,227.363892 
	C325.404297,230.341263 323.008514,232.094009 319.709839,232.216339 
	C316.161804,232.347900 313.496704,230.536972 312.252594,227.406784 
	C310.889526,223.977234 311.195831,220.532242 314.777344,217.762726 
z"/>
<path fill="#000000" opacity="1.000000" stroke="none" 
	d="
M196.925262,255.225021 
	C192.325394,252.826401 190.523239,249.280716 192.220093,244.755341 
	C193.651459,240.938034 196.894226,239.115524 201.008698,239.908813 
	C205.079514,240.693680 207.344833,243.305984 207.317474,247.604416 
	C207.290939,251.771851 205.433594,254.602722 201.202759,255.417969 
	C199.951080,255.659149 198.598404,255.376144 196.925262,255.225021 
z"/>
<path fill="#000000" opacity="1.000000" stroke="none" 
	d="
M315.567688,255.444397 
	C310.930969,255.910599 308.018768,253.982346 306.925812,249.980225 
	C306.008270,246.620407 306.530548,243.315384 309.803009,241.177017 
	C312.514069,239.405533 315.402771,239.155075 318.268188,240.781219 
	C321.314911,242.510254 322.759735,245.216751 322.197327,248.683975 
	C321.624176,252.217545 319.833496,254.843460 315.567688,255.444397 
z"/>
<path fill="#000000" opacity="1.000000" stroke="none" 
	d="
M298.648560,275.955261 
	C294.154388,273.768738 292.410126,270.505890 293.674286,266.045502 
	C294.694183,262.446930 297.323853,260.759216 301.084412,260.663818 
	C305.162354,260.560394 307.665802,262.598694 308.851654,266.290771 
	C310.678467,271.978424 306.117035,276.480652 298.648560,275.955261 
z"/>
<path fill="#000000" opacity="1.000000" stroke="none" 
	d="
M259.961792,169.128723 
	C254.938614,170.281952 251.413940,168.962387 249.518906,164.340759 
	C248.042206,160.739395 249.251892,157.815994 252.083023,155.528610 
	C255.538574,152.736740 260.602203,153.359192 263.208405,156.727737 
	C266.328827,160.760880 265.300690,165.142441 259.961792,169.128723 
z"/>
<path fill="#000000" opacity="1.000000" stroke="none" 
	d="
M196.703461,193.251602 
	C200.837677,192.157669 204.069077,192.999298 206.195236,196.325699 
	C208.039291,199.210709 207.883270,202.321548 206.020676,205.196335 
	C204.196838,208.011276 201.408615,208.827393 198.230698,208.365311 
	C194.730026,207.856308 192.504684,205.701477 191.849579,202.328217 
	C191.078262,198.356491 192.358688,195.141632 196.703461,193.251602 
z"/>
<path fill="#000000" opacity="1.000000" stroke="none" 
	d="
M231.527527,159.098663 
	C236.711868,158.476730 239.993835,160.451462 241.164795,165.170334 
	C242.129883,169.059601 239.762161,173.008972 236.099960,174.276169 
	C232.227783,175.616013 227.687515,173.666901 226.141296,170.000916 
	C224.326736,165.698715 226.071487,161.941864 231.527527,159.098663 
z"/>
<path fill="#000000" opacity="1.000000" stroke="none" 
	d="
M278.377594,289.242859 
	C273.660950,287.390106 272.005859,284.052917 272.871857,279.637512 
	C273.543396,276.213470 275.977539,274.257202 279.408936,273.767273 
	C284.145935,273.090912 287.974548,276.203827 288.304047,280.859619 
	C288.691284,286.331421 285.439941,289.217590 278.377594,289.242859 
z"/>
<path fill="#000000" opacity="1.000000" stroke="none" 
	d="
M263.405701,291.223267 
	C259.013000,295.177094 254.514633,295.443695 251.362335,292.236267 
	C248.409515,289.231781 248.208939,284.553680 250.900574,281.465546 
	C253.609344,278.357788 258.375763,277.732788 261.660736,280.298218 
	C265.354645,283.183014 265.598145,286.884735 263.405701,291.223267 
z"/>
<path fill="#000000" opacity="1.000000" stroke="none" 
	d="
M225.716187,280.260559 
	C226.985840,275.245697 230.109909,273.285645 234.693726,273.812683 
	C238.472107,274.247040 240.595749,276.718231 241.210373,280.353943 
	C241.974655,284.874847 239.024200,288.766113 234.636322,289.288849 
	C229.223969,289.933655 226.112167,286.940765 225.716187,280.260559 
z"/>
<path fill="#000000" opacity="1.000000" stroke="none" 
	d="
M205.011719,270.485962 
	C204.228165,266.145386 205.748657,263.148376 209.244400,261.434784 
	C212.084473,260.042603 215.058868,260.230469 217.717804,262.215546 
	C220.519516,264.307251 220.712967,267.300323 220.204712,270.335083 
	C219.652008,273.635468 217.425446,275.654846 214.203369,276.194641 
	C209.821915,276.928741 206.858032,274.862640 205.011719,270.485962 
z"/>
</svg>