<svg version="1.1" id="Layer_1" xmlns="http://www.w3.org/2000/svg" xmlns:xlink="http://www.w3.org/1999/xlink" x="0px" y="0px"
	 width="100%" viewBox="0 0 512 512" enable-background="new 0 0 512 512" xml:space="preserve">
<path fill="#000000" opacity="1.000000" stroke="none" 
	d="
M282.163940,466.734924 
	C276.731781,455.113464 276.779602,455.406677 263.362762,457.595520 
	C241.626602,461.141602 220.098969,460.428314 199.699539,451.229797 
	C173.239746,439.298523 160.278549,417.958862 158.705887,389.436707 
	C157.627762,369.884003 160.774155,350.958435 168.569794,332.906189 
	C169.646637,330.412598 170.138489,327.270660 174.436615,329.017456 
	C181.184189,331.759644 182.129501,332.607208 180.209488,337.521484 
	C175.076492,350.659363 171.881119,364.239563 171.421188,378.309784 
	C170.559708,404.663696 183.617584,422.957123 208.758133,430.830383 
	C227.419266,436.674438 246.423752,436.058136 266.303009,433.463654 
	C262.825470,424.573364 259.149414,416.471069 254.939911,408.608887 
	C252.737320,404.495056 250.341293,400.479279 247.312912,396.900665 
	C244.406952,393.466675 240.982162,390.630035 236.168182,391.591095 
	C230.908295,392.641174 228.768738,396.902588 227.504181,401.592438 
	C226.334427,405.930634 221.941559,407.984711 217.997238,405.956085 
	C216.449982,405.160309 216.622635,403.855835 216.622742,402.535858 
	C216.623413,392.899506 218.376312,383.671539 223.154236,375.186188 
	C229.034897,364.742462 240.090378,363.294922 248.391541,372.013306 
	C252.777084,376.619293 256.279266,381.945923 259.071594,387.651489 
	C265.075623,399.919586 270.915802,412.268005 276.800354,424.594391 
	C279.579254,430.415314 279.832886,430.552917 285.779205,427.804474 
	C302.254456,420.189484 310.654785,407.357361 310.657043,389.137054 
	C310.660858,358.639648 310.639771,328.142212 310.703705,297.644928 
	C310.707947,295.616730 309.631714,292.818237 312.053925,291.743408 
	C315.129456,290.378632 318.645355,290.506714 321.834198,291.594849 
	C324.052368,292.351685 323.306000,294.728058 323.313171,296.451508 
	C323.370972,310.283447 323.348969,324.115692 323.348907,337.947845 
	C323.348816,355.613007 323.455902,373.279022 323.318481,390.943115 
	C323.127045,415.555084 314.868286,435.911102 292.219818,448.392303 
	C289.633514,449.817596 289.120331,451.440399 290.535858,454.048981 
	C291.962219,456.677490 292.817474,459.629578 294.349731,462.183899 
	C296.748352,466.182526 295.485596,468.298340 291.584137,470.277893 
	C285.245880,473.493805 285.352814,473.704529 282.163940,466.734924 
z"/>
<path fill="#000000" opacity="1.000000" stroke="none" 
	d="
M273.325928,170.107635 
	C272.352814,166.908554 272.324585,164.155365 274.298370,161.733231 
	C277.010284,158.405319 282.158569,157.824539 285.509216,160.423477 
	C288.879913,163.037949 289.337341,168.591339 286.466919,172.050491 
	C283.715454,175.366318 278.808746,175.725754 275.371490,172.784058 
	C274.634552,172.153320 274.135925,171.244049 273.325928,170.107635 
z"/>
<path fill="#000000" opacity="1.000000" stroke="none" 
	d="
M306.830200,174.207825 
	C309.737366,177.928589 310.150696,181.505829 307.336456,184.973358 
	C305.318237,187.460114 302.590637,188.526627 299.353851,187.662476 
	C295.712433,186.690308 293.778992,184.155807 293.347931,180.539444 
	C292.983032,177.477631 294.242859,174.968689 296.833862,173.328842 
	C300.156342,171.226059 303.445374,171.555969 306.830200,174.207825 
z"/>
<path fill="#000000" opacity="1.000000" stroke="none" 
	d="
M306.968933,197.598633 
	C309.155365,193.603302 312.306976,192.131485 316.297638,192.939484 
	C319.499237,193.587738 321.496338,195.772385 322.156189,198.992264 
	C323.095398,203.575409 320.153473,207.751953 315.606567,208.427078 
	C310.574890,209.174194 306.911469,206.139526 306.663025,200.965057 
	C306.615723,199.980423 306.776520,198.985809 306.968933,197.598633 
z"/>
<path fill="#000000" opacity="1.000000" stroke="none" 
	d="
M311.664734,223.181488 
	C313.492310,217.598129 316.602966,215.587448 321.266968,216.570450 
	C325.505219,217.463715 327.889069,221.004745 327.229095,225.426727 
	C326.648132,229.319107 323.147156,232.317780 319.278625,232.236557 
	C314.941803,232.145477 312.164368,229.003281 311.664734,223.181488 
z"/>
<path fill="#000000" opacity="1.000000" stroke="none" 
	d="
M207.173645,174.209198 
	C210.750168,171.421234 214.150543,171.232376 217.554840,173.616623 
	C220.378677,175.594360 220.660049,178.567352 220.244751,181.639725 
	C219.790527,185.000061 217.572113,186.872925 214.455444,187.706696 
	C210.984589,188.635223 208.241104,187.304810 206.288101,184.471619 
	C203.931534,181.052979 204.088272,177.653976 207.173645,174.209198 
z"/>
<path fill="#000000" opacity="1.000000" stroke="none" 
	d="
M193.352692,232.114594 
	C188.635101,230.656097 186.331955,227.842880 186.706940,223.163803 
	C186.976868,219.795837 188.890915,217.675766 192.013779,216.734497 
	C195.067352,215.814087 197.927322,216.352051 200.273590,218.648941 
	C202.698761,221.023102 202.926270,224.039566 201.873627,226.941544 
	C200.561844,230.557953 197.701706,232.361923 193.352692,232.114594 
z"/>
<path fill="#000000" opacity="1.000000" stroke="none" 
	d="
M194.543152,194.407349 
	C201.133011,191.499176 206.469650,193.587280 207.251465,199.066635 
	C207.792892,202.861160 206.697845,206.126556 203.040436,207.726990 
	C199.382202,209.327805 195.765915,208.842957 193.298279,205.387054 
	C190.651154,201.679825 190.968597,197.980240 194.543152,194.407349 
z"/>
<path fill="#000000" opacity="1.000000" stroke="none" 
	d="
M196.179901,254.893341 
	C191.150223,250.678101 190.275833,245.984238 193.672150,242.413437 
	C196.359421,239.588058 199.620880,238.882004 203.162109,240.619568 
	C206.802139,242.405594 207.869232,245.623108 207.190643,249.366257 
	C206.481140,253.279938 203.922348,255.378876 199.930054,255.520401 
	C198.798782,255.560501 197.654388,255.230728 196.179901,254.893341 
z"/>
<path fill="#000000" opacity="1.000000" stroke="none" 
	d="
M251.243225,156.208984 
	C254.722595,153.325577 258.118134,152.943527 261.580902,155.281754 
	C264.327789,157.136597 265.246887,159.935364 264.664673,163.084808 
	C264.086884,166.210297 262.404022,168.597382 259.067688,169.321976 
	C255.731293,170.046600 252.787796,169.389175 250.683411,166.487869 
	C248.231995,163.108093 248.295898,159.748611 251.243225,156.208984 
z"/>
<path fill="#000000" opacity="1.000000" stroke="none" 
	d="
M306.784912,249.557587 
	C306.125305,244.506561 307.952209,241.271576 312.509216,240.035309 
	C316.114532,239.057251 319.152374,240.383698 321.115967,243.531067 
	C323.233582,246.925323 322.662506,250.282883 320.055603,253.178955 
	C316.175049,257.489929 310.059174,255.957916 306.784912,249.557587 
z"/>
<path fill="#000000" opacity="1.000000" stroke="none" 
	d="
M249.250305,288.401550 
	C248.518982,283.811951 250.317703,280.913116 254.149521,279.322418 
	C257.437866,277.957336 260.481812,278.778351 262.808044,281.316040 
	C265.154999,283.876343 265.436188,287.035156 263.984680,290.159149 
	C262.687347,292.951324 260.384857,294.399811 257.221405,294.442230 
	C253.171768,294.496490 250.664612,292.499664 249.250305,288.401550 
z"/>
<path fill="#000000" opacity="1.000000" stroke="none" 
	d="
M241.173798,168.565506 
	C239.547836,172.966782 236.761108,175.228134 232.349487,174.585144 
	C228.755539,174.061310 226.315811,171.964706 225.721451,168.219559 
	C224.953445,163.380203 228.219925,159.173950 232.927505,158.804428 
	C237.826553,158.419861 241.100815,162.103958 241.173798,168.565506 
z"/>
<path fill="#000000" opacity="1.000000" stroke="none" 
	d="
M296.487976,262.122803 
	C300.405731,260.007477 303.953339,259.868896 306.853516,262.964691 
	C309.306244,265.582855 310.028870,268.761658 308.162903,272.154022 
	C306.449310,275.269440 303.776215,276.637115 300.295380,276.249878 
	C297.244171,275.910370 294.897095,274.257446 293.915863,271.368256 
	C292.778320,268.018738 293.083679,264.776093 296.487976,262.122803 
z"/>
<path fill="#000000" opacity="1.000000" stroke="none" 
	d="
M226.056458,284.364868 
	C225.210663,280.261597 225.768646,276.964752 229.277054,274.859863 
	C232.071045,273.183533 235.021118,273.158875 237.759155,274.936371 
	C240.502716,276.717468 241.672028,279.406952 241.226669,282.661560 
	C240.780777,285.919983 238.957245,288.279083 235.773407,289.077484 
	C231.582993,290.128357 228.263809,288.700714 226.056458,284.364868 
z"/>
<path fill="#000000" opacity="1.000000" stroke="none" 
	d="
M283.383698,289.003632 
	C277.039276,289.473083 273.691071,287.699432 272.860199,283.502472 
	C272.064178,279.481628 273.300415,276.156769 277.214996,274.423279 
	C280.788422,272.840851 284.242432,273.478790 286.658264,276.581299 
	C289.180054,279.819946 289.071930,283.398163 286.459656,286.668457 
	C285.754547,287.551208 284.683533,288.141693 283.383698,289.003632 
z"/>
<path fill="#000000" opacity="1.000000" stroke="none" 
	d="
M207.649200,262.456604 
	C211.626007,259.887482 215.265366,259.842773 218.403915,262.931274 
	C221.084167,265.568787 221.034607,269.008942 219.545761,272.168549 
	C217.955215,275.544006 214.913940,276.833893 211.249771,276.187256 
	C204.988510,275.082397 203.094208,268.462799 207.649200,262.456604 
z"/>
</svg>