<svg version="1.1" id="Layer_1" xmlns="http://www.w3.org/2000/svg" xmlns:xlink="http://www.w3.org/1999/xlink" x="0px" y="0px"
	 width="100%" viewBox="0 0 512 512" enable-background="new 0 0 512 512" xml:space="preserve">
<path fill="#000000" opacity="1.000000" stroke="none" 
	d="
M185.242706,371.705811 
	C191.408981,378.217804 195.572876,385.610077 199.249390,393.293457 
	C204.496124,404.258362 209.736694,415.228546 214.765549,426.293884 
	C216.212952,429.478699 217.881668,429.842316 220.986221,428.705994 
	C237.219040,422.764252 247.580093,408.619659 247.655151,391.360840 
	C247.791382,360.040680 247.711563,328.719543 247.792068,297.399048 
	C247.797241,295.386139 246.744110,292.590027 249.368179,291.622406 
	C252.505600,290.465485 255.941040,290.512024 259.133118,291.765076 
	C260.632141,292.353516 260.331726,294.010162 260.331635,295.302795 
	C260.329071,329.788666 261.026642,364.295532 260.022675,398.752716 
	C259.399017,420.157837 249.366013,437.366211 230.033829,448.042969 
	C226.716370,449.875153 226.331375,451.618713 227.992386,454.692810 
	C229.571945,457.616180 230.684311,460.789703 232.219849,463.739868 
	C233.609787,466.410248 232.968430,468.101624 230.315323,469.311493 
	C228.955566,469.931580 227.632874,470.665436 226.380066,471.480988 
	C223.615463,473.280792 221.847580,472.617706 220.604996,469.581848 
	C219.155289,466.039856 217.327789,462.649384 215.943314,459.084778 
	C214.660812,455.782776 212.816879,455.247314 209.358917,456.001831 
	C187.726028,460.721954 166.040726,461.381531 144.803680,454.240265 
	C116.997353,444.889893 100.539368,425.654510 96.616684,396.324524 
	C93.629883,373.992188 97.528145,352.621460 106.246605,331.993073 
	C107.462013,329.117310 108.886787,327.277374 112.123055,329.400757 
	C114.927902,331.241089 120.325211,330.979614 117.720871,337.090698 
	C111.918686,350.705414 108.687912,365.068604 108.655975,379.783905 
	C108.612228,399.937958 116.072853,416.497986 134.877563,426.292145 
	C149.801529,434.065063 165.952316,435.725250 182.404282,435.148285 
	C189.156433,434.911469 196.075668,435.556793 202.711929,433.136932 
	C202.778046,432.601257 203.029724,432.044373 202.867004,431.665436 
	C197.809311,419.885437 192.885330,408.027344 185.195236,397.619110 
	C180.443451,391.187775 174.298325,389.584045 169.395706,393.460846 
	C166.340530,395.876740 164.831482,399.363892 164.484116,402.991760 
	C164.020752,407.831482 160.740799,406.128418 158.230881,406.271149 
	C155.258545,406.440216 153.502686,405.295990 153.664902,401.928070 
	C154.093292,393.034088 155.559128,384.372192 159.758377,376.430054 
	C165.903122,364.808380 174.885529,363.104034 185.242706,371.705811 
z"/>
<path fill="#000000" opacity="1.000000" stroke="none" 
	d="
M372.586365,234.569489 
	C374.603424,225.490799 375.358551,216.818649 373.778137,207.944229 
	C371.008362,192.391556 360.270447,180.698151 344.723358,177.262878 
	C327.712677,173.504181 311.637604,175.438644 297.232178,186.030777 
	C294.670319,187.914459 292.225006,190.049622 290.695343,192.834839 
	C288.749329,196.378220 286.493835,196.554626 283.489899,194.333923 
	C282.153839,193.346222 280.744904,192.431625 279.281281,191.647827 
	C277.019958,190.436844 276.855743,188.928482 277.960815,186.725830 
	C287.506744,167.698883 308.522614,150.336014 336.123779,152.302261 
	C368.198059,154.587158 388.393311,180.961365 389.370728,210.975876 
	C389.915619,227.708679 387.891754,243.852203 379.363922,258.661011 
	C369.463928,275.852600 350.026489,285.127716 331.609375,281.318024 
	C329.193054,280.818207 326.780029,279.990875 324.558258,278.916565 
	C315.199097,274.391083 311.894104,267.947205 313.951935,257.715607 
	C315.631653,249.363892 319.515320,242.129105 325.742920,236.140106 
	C328.131989,233.842606 330.102661,233.456192 332.551575,235.764938 
	C333.637787,236.788956 334.822357,237.745743 336.084778,238.537796 
	C338.566284,240.094650 338.878082,241.519699 337.058014,244.145035 
	C332.225403,251.115738 332.041046,257.484833 336.015778,261.515900 
	C340.233398,265.793182 348.592438,266.108734 355.066467,262.073059 
	C363.119263,257.053253 367.342194,249.163742 370.682404,240.680054 
	C371.412537,238.825531 371.912842,236.880524 372.586365,234.569489 
z"/>
<path fill="#000000" opacity="1.000000" stroke="none" 
	d="
M157.449127,183.087128 
	C155.094559,187.174683 151.989395,188.856689 147.718887,187.425110 
	C143.930176,186.155014 142.227722,183.202744 142.348907,179.385544 
	C142.476166,175.376389 144.985016,173.063232 148.725327,172.154526 
	C154.613647,170.723999 158.841080,175.803452 157.449127,183.087128 
z"/>
<path fill="#000000" opacity="1.000000" stroke="none" 
	d="
M126.922699,230.219742 
	C123.624977,227.017578 123.162506,223.636414 125.258705,220.059067 
	C127.178650,216.782486 130.280487,216.020996 133.842850,216.620529 
	C137.478760,217.232452 139.177231,219.723312 139.810577,223.047348 
	C140.389008,226.083359 139.198349,228.641159 136.828445,230.459595 
	C133.716522,232.847382 130.431824,232.863647 126.922699,230.219742 
z"/>
<path fill="#000000" opacity="1.000000" stroke="none" 
	d="
M225.836700,167.709900 
	C224.811508,172.117767 222.259109,174.511688 218.159134,174.718292 
	C214.691055,174.893082 212.276382,172.944473 210.745560,169.855515 
	C209.225739,166.788727 209.846268,163.959213 211.992508,161.586151 
	C214.107117,159.248093 216.854187,158.223709 220.079605,159.125641 
	C224.242615,160.289795 225.731781,163.340759 225.836700,167.709900 
z"/>
<path fill="#000000" opacity="1.000000" stroke="none" 
	d="
M253.185928,231.158936 
	C249.905624,228.879089 248.254364,226.127548 249.114838,222.479050 
	C249.799530,219.575836 251.602570,217.386673 254.657135,216.727432 
	C257.877014,216.032532 261.053284,216.231232 263.124573,219.230530 
	C265.282379,222.355103 265.571899,225.784714 263.188019,228.912415 
	C260.705109,232.170074 257.419434,233.168060 253.185928,231.158936 
z"/>
<path fill="#000000" opacity="1.000000" stroke="none" 
	d="
M243.816833,247.117447 
	C244.805054,242.186798 247.724472,239.755646 252.225159,239.845673 
	C255.789841,239.916962 258.496338,241.752106 259.348572,245.560303 
	C260.391602,250.221024 258.176575,254.297607 254.044861,255.300522 
	C248.689728,256.600403 245.148972,253.913879 243.816833,247.117447 
z"/>
<path fill="#000000" opacity="1.000000" stroke="none" 
	d="
M165.494720,172.443817 
	C162.597443,169.021057 161.976044,165.638962 164.474106,162.191086 
	C166.488708,159.410538 169.388977,158.260330 172.764206,159.054733 
	C176.386734,159.907349 178.397476,162.407867 178.776733,166.078217 
	C179.114777,169.349884 177.727325,171.999161 174.938614,173.578186 
	C171.813828,175.347534 168.610474,175.290939 165.494720,172.443817 
z"/>
<path fill="#000000" opacity="1.000000" stroke="none" 
	d="
M231.822510,183.811127 
	C229.940582,177.693024 231.935806,173.465714 236.956757,172.178177 
	C240.932510,171.158661 245.303085,173.731491 246.204926,177.622284 
	C247.346878,182.548935 244.766510,186.911743 240.048157,187.827850 
	C236.557999,188.505493 233.969162,186.969940 231.822510,183.811127 
z"/>
<path fill="#000000" opacity="1.000000" stroke="none" 
	d="
M142.200592,194.673370 
	C145.220581,197.959961 145.883118,201.301041 143.725113,204.884369 
	C141.896484,207.920761 139.038544,208.919922 135.634186,208.384979 
	C132.116043,207.832169 130.161636,205.546509 129.285538,202.250519 
	C128.477066,199.209015 129.512772,196.644516 131.851028,194.748459 
	C135.037491,192.164642 138.459335,192.018250 142.200592,194.673370 
z"/>
<path fill="#000000" opacity="1.000000" stroke="none" 
	d="
M143.477142,252.261292 
	C139.051544,256.298035 134.755829,256.538330 131.480591,253.234253 
	C128.507935,250.235413 128.327332,245.551132 131.065872,242.478790 
	C133.826431,239.381744 138.509689,238.776947 141.824173,241.387482 
	C145.471283,244.259979 145.962662,247.912323 143.477142,252.261292 
z"/>
<path fill="#000000" opacity="1.000000" stroke="none" 
	d="
M218.818207,273.728882 
	C224.185135,274.731232 226.229248,278.114929 225.718765,282.733826 
	C225.305344,286.474335 222.973404,288.990112 218.843979,289.327240 
	C214.344360,289.694641 211.573654,287.549316 210.290665,283.435242 
	C208.748245,278.489258 212.205765,274.426544 218.818207,273.728882 
z"/>
<path fill="#000000" opacity="1.000000" stroke="none" 
	d="
M192.501434,154.047195 
	C199.185822,153.942230 202.607422,156.930328 202.305481,162.153168 
	C202.031143,166.898453 198.335678,169.978271 193.486877,169.536942 
	C189.817368,169.202942 187.659775,166.933655 186.899948,163.643051 
	C185.859741,159.138199 187.671280,155.837021 192.501434,154.047195 
z"/>
<path fill="#000000" opacity="1.000000" stroke="none" 
	d="
M243.971375,199.329041 
	C245.449661,194.840271 248.221222,192.468689 252.638931,192.847885 
	C256.023224,193.138382 258.584778,194.812744 259.348724,198.486725 
	C260.373016,203.412811 257.933990,207.571609 253.472198,208.380600 
	C248.167709,209.342392 244.703339,206.210922 243.971375,199.329041 
z"/>
<path fill="#000000" opacity="1.000000" stroke="none" 
	d="
M202.124817,284.450195 
	C202.215942,291.493530 199.236694,294.842041 193.708389,294.415222 
	C189.204514,294.067505 186.099701,289.987854 186.738708,285.265015 
	C187.231415,281.623474 189.633560,279.587189 192.917084,278.927887 
	C197.205536,278.066925 200.357285,279.911804 202.124817,284.450195 
z"/>
<path fill="#000000" opacity="1.000000" stroke="none" 
	d="
M246.358566,268.873108 
	C245.015488,274.549042 241.745667,277.047791 237.271469,276.230865 
	C233.473450,275.537384 230.538818,271.833160 230.723755,267.966034 
	C230.918121,263.901703 233.994705,260.869568 238.127441,260.669373 
	C243.030014,260.431854 245.697372,262.948181 246.358566,268.873108 
z"/>
<path fill="#000000" opacity="1.000000" stroke="none" 
	d="
M176.220078,275.621368 
	C179.273315,278.994965 179.605652,282.369232 177.468140,285.928009 
	C175.708023,288.858429 172.939484,289.686249 169.738068,289.294128 
	C166.397354,288.884949 164.414627,286.762604 163.350113,283.733826 
	C162.214188,280.501892 163.350616,277.781342 165.800461,275.711365 
	C168.992386,273.014374 172.456619,273.064667 176.220078,275.621368 
z"/>
<path fill="#000000" opacity="1.000000" stroke="none" 
	d="
M142.752014,265.784851 
	C146.188416,260.473572 151.130463,259.116241 154.974686,262.082825 
	C158.740295,264.988770 159.174438,270.525146 155.841019,273.945190 
	C153.364426,276.486176 150.292053,277.085480 147.146729,275.667297 
	C143.097977,273.841827 141.876022,270.402740 142.752014,265.784851 
z"/>
</svg>