<svg version="1.1" id="Layer_1" xmlns="http://www.w3.org/2000/svg" xmlns:xlink="http://www.w3.org/1999/xlink" x="0px" y="0px"
	 width="100%" viewBox="0 0 512 512" enable-background="new 0 0 512 512" xml:space="preserve">
<path fill="#000000" opacity="1.000000" stroke="none" 
	d="
M310.665344,356.999939 
	C310.663391,339.833740 310.852173,323.164093 310.548676,306.503418 
	C310.452423,301.220428 312.806641,300.536804 317.167480,300.584839 
	C321.269531,300.630005 323.498932,301.129028 323.459412,306.226288 
	C323.217712,337.390198 323.486450,368.558289 323.210175,399.721649 
	C323.114197,410.548187 321.358917,421.249390 317.578217,431.522003 
	C309.291809,454.037323 291.963715,461.825134 270.142151,458.782837 
	C249.245483,455.869446 237.781998,442.947449 233.579132,420.851135 
	C231.096054,407.796478 232.351700,394.605438 230.813690,381.550140 
	C230.365067,377.742096 229.918671,373.951569 228.999420,370.239746 
	C225.838470,357.476044 217.957031,350.984161 204.842758,350.416534 
	C201.354584,350.265564 197.803497,350.136780 194.361588,350.597565 
	C179.644241,352.567749 172.847443,360.916656 171.242630,377.210480 
	C169.652298,393.356964 170.684845,409.505188 170.318893,425.647522 
	C170.135620,433.732117 169.051575,441.582092 164.916519,448.722168 
	C160.462540,456.412933 153.739975,459.846069 144.918091,459.273834 
	C136.467102,458.725708 131.157196,454.083374 128.123611,446.429657 
	C124.363014,436.941803 124.178818,426.898193 123.777229,416.948364 
	C123.166245,401.810516 124.336884,386.628448 122.705414,371.504181 
	C122.113281,366.014893 121.324158,360.620514 118.691818,355.654266 
	C116.675903,351.850922 113.575325,350.031830 109.300888,350.438110 
	C105.193077,350.828613 102.631721,353.267487 101.388573,357.072235 
	C99.455292,362.989105 99.637726,369.227631 98.753731,375.305176 
	C98.071815,379.993439 95.732933,381.460571 90.811531,381.005188 
	C85.813972,380.542725 85.757858,377.384949 86.144562,373.523865 
	C87.103760,363.946472 86.821747,354.236420 89.571800,344.857788 
	C90.611984,341.310455 92.174416,338.046692 93.837036,334.773438 
	C100.105087,322.433136 119.502937,322.926270 126.351334,333.265289 
	C131.516861,341.063690 133.081726,349.824341 134.291245,358.723877 
	C136.834534,377.436890 136.160980,396.284790 136.250549,415.091248 
	C136.272125,419.621399 136.850082,424.061066 137.467255,428.497070 
	C138.091400,432.983154 140.348892,436.243927 145.332352,436.846466 
	C150.270721,437.443573 153.247086,435.057220 154.976364,430.706116 
	C156.842087,426.011749 157.681076,421.140594 157.699814,416.074188 
	C157.760742,399.600525 156.956802,383.085968 159.675262,366.720764 
	C160.961151,358.979614 162.794571,351.388336 166.480209,344.376801 
	C173.094376,331.793976 183.751404,325.877930 197.742767,325.688141 
	C202.553406,325.622925 207.335983,325.618896 212.166473,326.475525 
	C224.820694,328.719513 233.236740,335.781525 237.780624,347.659149 
	C243.179199,361.770874 243.395767,376.638367 244.007996,391.426636 
	C244.331390,399.238007 244.178070,407.051392 246.467529,414.675903 
	C249.476776,424.697540 255.898758,430.872101 266.150848,433.075165 
	C273.223480,434.595001 280.293884,435.105438 287.438507,433.535095 
	C299.985260,430.777466 306.040344,422.070465 308.626221,410.313080 
	C309.985107,404.134705 310.773010,397.875671 310.696655,391.497192 
	C310.561035,380.166260 310.662994,368.832520 310.665344,356.999939 
z"/>
<path fill="#000000" opacity="1.000000" stroke="none" 
	d="
M251.502472,29.422554 
	C227.561905,32.708725 208.841827,44.985748 192.050507,60.797401 
	C184.896606,67.533920 177.841339,74.396629 171.605667,82.022202 
	C169.579361,84.500175 167.701752,84.655510 165.317688,82.541138 
	C163.447021,80.882103 161.036514,79.757378 163.100525,76.549133 
	C175.855957,56.722416 189.142715,37.173386 208.627579,23.322195 
	C232.432281,6.400173 258.807587,0.350546 287.111694,9.931353 
	C301.342468,14.748398 312.097351,24.792067 320.177002,37.253662 
	C319.337585,39.784054 317.325165,40.013542 315.708466,40.686562 
	C282.350525,54.572971 248.983017,68.436432 215.600082,82.262604 
	C213.854507,82.985565 211.736603,84.634506 210.124222,82.597717 
	C208.301270,80.294930 206.090515,77.860802 206.038025,74.778122 
	C206.001007,72.603539 208.582748,72.426849 210.178391,71.742058 
	C234.051270,61.496758 257.949890,51.311516 281.830780,41.084831 
	C283.314117,40.449615 285.098785,40.251408 286.333954,38.096577 
	C276.449158,28.883066 264.266998,28.892557 251.502472,29.422554 
z"/>
<path fill="#000000" opacity="1.000000" stroke="none" 
	d="
M129.246918,95.741272 
	C124.883331,90.920479 120.873436,86.249626 116.610046,81.822922 
	C113.670357,78.770622 112.958542,76.225845 116.629730,73.166817 
	C119.036629,71.161270 121.041122,68.655312 123.125420,66.285172 
	C125.083679,64.058357 126.755249,63.801197 128.734924,66.347504 
	C143.531265,85.379036 159.302811,103.603165 174.949814,121.928505 
	C178.802811,126.441017 174.082748,128.439072 172.261398,131.055862 
	C170.160156,134.074783 168.176056,131.520874 166.506317,130.114990 
	C153.658295,119.297234 141.232666,108.016945 129.246918,95.741272 
z"/>
<path fill="#000000" opacity="1.000000" stroke="none" 
	d="
M277.019775,159.676361 
	C282.883820,158.214966 286.580139,159.764450 287.962280,163.938705 
	C289.273499,167.898666 287.413269,172.452255 283.830780,174.052032 
	C279.938171,175.790253 275.695984,174.345901 273.604309,170.570236 
	C271.532623,166.830612 272.559906,163.218399 277.019775,159.676361 
z"/>
<path fill="#000000" opacity="1.000000" stroke="none" 
	d="
M309.777100,207.169891 
	C305.849701,203.604950 305.422638,199.569229 308.118378,195.796356 
	C310.446289,192.538345 314.174133,191.719055 317.930969,193.538773 
	C321.745453,195.386475 322.955170,198.731369 322.016052,202.717880 
	C320.808136,207.845444 316.086456,209.626022 309.777100,207.169891 
z"/>
<path fill="#000000" opacity="1.000000" stroke="none" 
	d="
M305.575317,173.243576 
	C309.369690,176.464325 310.339966,180.037216 307.962463,184.088669 
	C306.201721,187.089081 303.335541,188.418518 299.927856,187.794373 
	C296.068848,187.087555 293.846161,184.508301 293.354034,180.635025 
	C292.558228,174.371414 298.322784,170.717407 305.575317,173.243576 
z"/>
<path fill="#000000" opacity="1.000000" stroke="none" 
	d="
M212.134399,188.011230 
	C205.796967,185.776917 203.278046,181.333130 205.357574,176.697937 
	C207.247009,172.486435 212.620636,170.761124 216.705215,173.056854 
	C220.129517,174.981461 220.780426,178.141510 220.227203,181.617447 
	C219.547318,185.889206 216.497070,187.587967 212.134399,188.011230 
z"/>
<path fill="#000000" opacity="1.000000" stroke="none" 
	d="
M327.012451,221.572815 
	C327.418823,229.631912 322.259521,234.276245 316.398956,231.552170 
	C312.849579,229.902359 311.295105,227.015656 311.661316,223.090469 
	C312.001221,219.447510 314.169586,217.349152 317.528717,216.607910 
	C321.740814,215.678452 325.010773,217.120102 327.012451,221.572815 
z"/>
<path fill="#000000" opacity="1.000000" stroke="none" 
	d="
M199.221802,217.758896 
	C203.197983,221.351639 203.423813,225.261627 200.645340,229.072800 
	C198.384583,232.173874 195.112778,233.146652 191.389389,231.425507 
	C187.524307,229.638855 186.169830,226.486725 186.788696,222.472168 
	C187.598419,217.219528 192.536896,215.258438 199.221802,217.758896 
z"/>
<path fill="#000000" opacity="1.000000" stroke="none" 
	d="
M198.410156,255.543030 
	C191.856888,252.901031 189.697357,247.531097 193.148590,243.055496 
	C195.524612,239.974228 198.706451,238.887421 202.410034,240.293503 
	C206.409775,241.812042 207.861969,245.015488 207.228363,249.052963 
	C206.490631,253.753891 203.388535,255.731277 198.410156,255.543030 
z"/>
<path fill="#000000" opacity="1.000000" stroke="none" 
	d="
M320.709473,252.450012 
	C316.474091,256.205109 311.936401,256.600769 309.028015,253.533493 
	C306.069031,250.412903 305.651398,246.738205 307.910950,243.084930 
	C310.041534,239.640121 314.927032,238.763733 318.490051,240.891281 
	C322.353180,243.198044 323.155762,246.875336 320.709473,252.450012 
z"/>
<path fill="#000000" opacity="1.000000" stroke="none" 
	d="
M200.633759,208.408783 
	C195.829666,208.667435 192.850983,206.621506 191.866684,202.357773 
	C191.062149,198.872772 192.071152,195.772003 195.416016,193.842148 
	C199.544128,191.460403 205.042648,193.133636 206.827332,197.301117 
	C208.863297,202.055328 206.629257,206.304077 200.633759,208.408783 
z"/>
<path fill="#000000" opacity="1.000000" stroke="none" 
	d="
M264.034790,158.151245 
	C265.637726,162.827011 264.672546,166.555527 260.644836,168.712799 
	C257.566864,170.361374 254.214188,170.061325 251.497696,167.385773 
	C248.147949,164.086517 248.167786,158.992737 251.521637,155.949173 
	C255.349106,152.475815 259.888519,153.153900 264.034790,158.151245 
z"/>
<path fill="#000000" opacity="1.000000" stroke="none" 
	d="
M296.485229,262.119141 
	C300.406128,260.006958 303.958984,259.866638 306.864258,262.957825 
	C309.325012,265.576050 310.042511,268.761383 308.170959,272.152832 
	C306.454407,275.263428 303.782135,276.640625 300.295013,276.256805 
	C297.235748,275.920105 294.899872,274.258148 293.911316,271.370880 
	C292.762115,268.014374 293.087677,264.776581 296.485229,262.119141 
z"/>
<path fill="#000000" opacity="1.000000" stroke="none" 
	d="
M225.671783,281.920471 
	C225.343338,275.821106 230.904037,273.006866 235.020309,273.798553 
	C239.041214,274.571899 241.889038,278.436066 241.214172,282.650238 
	C240.595581,286.512878 238.369598,288.933807 234.307190,289.301636 
	C229.680267,289.720520 227.185974,287.687347 225.671783,281.920471 
z"/>
<path fill="#000000" opacity="1.000000" stroke="none" 
	d="
M287.909851,284.360138 
	C285.748840,288.779175 282.335510,290.152374 278.200439,289.098877 
	C274.865387,288.249237 272.969543,285.724854 272.697998,282.180908 
	C272.408051,278.396759 274.078857,275.717621 277.511810,274.264648 
	C283.637543,271.672058 288.626160,276.301392 287.909851,284.360138 
z"/>
<path fill="#000000" opacity="1.000000" stroke="none" 
	d="
M260.975616,293.460266 
	C254.734009,295.021088 251.604156,293.885986 249.723648,289.716461 
	C248.035446,285.973236 249.102081,282.851349 252.124893,280.415283 
	C255.417282,277.761993 260.271698,278.300995 262.957367,281.394501 
	C265.970490,284.865173 265.393555,289.078064 260.975616,293.460266 
z"/>
<path fill="#000000" opacity="1.000000" stroke="none" 
	d="
M239.979462,162.326935 
	C242.268875,166.595016 241.662445,170.145599 238.297241,172.961761 
	C235.616638,175.205002 232.507965,175.337677 229.446503,173.593231 
	C226.099915,171.686325 225.194305,168.624466 225.770035,165.039993 
	C226.238556,162.123001 228.188980,160.395493 230.836792,159.378494 
	C234.462219,157.986038 237.303818,159.333298 239.979462,162.326935 
z"/>
<path fill="#000000" opacity="1.000000" stroke="none" 
	d="
M216.868011,275.161133 
	C212.727921,277.206177 209.371490,276.573425 206.659576,273.401947 
	C204.389175,270.746796 203.986389,267.711670 205.794327,264.630341 
	C207.688110,261.402710 210.657822,260.241425 214.279648,260.757599 
	C217.161575,261.168304 219.318710,262.804688 220.023590,265.590759 
	C220.919754,269.132843 220.576218,272.556580 216.868011,275.161133 
z"/>
</svg>