<svg version="1.1" id="Layer_1" xmlns="http://www.w3.org/2000/svg" xmlns:xlink="http://www.w3.org/1999/xlink" x="0px" y="0px"
	 width="100%" viewBox="0 0 512 512" enable-background="new 0 0 512 512" xml:space="preserve">
<path fill="#000000" opacity="1.000000" stroke="none" 
	d="
M125.853088,351.665863 
	C111.590553,355.954712 109.719559,367.647339 108.347160,379.464905 
	C106.438583,395.899506 107.661819,412.422058 107.335213,428.902832 
	C107.194443,436.006470 105.719749,442.808563 102.071571,448.944550 
	C97.445702,456.725006 90.450539,460.131775 81.442451,459.240967 
	C73.246735,458.430450 68.249069,453.640656 65.281013,446.224548 
	C61.285961,436.242249 61.514786,425.661774 60.928787,415.244415 
	C60.078087,400.121490 61.519398,384.930389 59.739567,369.813293 
	C59.130821,364.642853 58.255768,359.607452 55.554569,355.062744 
	C53.469276,351.554260 50.383347,349.956146 46.322243,350.457550 
	C42.235691,350.962067 39.603352,353.330719 38.591381,357.254120 
	C37.176571,362.739349 36.378811,368.323273 36.225731,374.011993 
	C36.069923,379.802155 31.488146,382.588074 26.031170,380.488464 
	C24.625937,379.947784 23.711760,379.240753 23.693720,377.683258 
	C23.535151,363.992676 23.782482,350.339935 29.610004,337.556091 
	C33.068855,329.968353 38.624348,325.586334 47.475380,325.555634 
	C56.419926,325.524658 62.257915,329.669159 66.049843,337.392120 
	C70.320900,346.090973 71.284256,355.552521 72.275360,364.971069 
	C73.987648,381.243164 73.100029,397.587219 73.380043,413.899933 
	C73.474083,419.379059 73.959427,424.852997 75.201096,430.213684 
	C76.134796,434.244781 78.693474,436.452667 82.876122,436.889069 
	C87.371864,437.358185 90.193115,435.272034 91.877960,431.328247 
	C93.453575,427.640167 94.612732,423.878021 94.710258,419.778320 
	C95.046837,405.631012 94.300438,391.461456 95.655853,377.334106 
	C96.886719,364.504883 98.774857,351.868835 105.917084,340.715485 
	C111.952805,331.290009 121.029190,326.838562 131.794769,325.795258 
	C136.894730,325.300995 142.137680,325.137146 147.246719,326.095001 
	C165.406937,329.499725 174.448624,338.944763 178.246521,358.492065 
	C180.763855,371.448486 181.346344,384.571014 181.322296,397.736206 
	C181.310989,403.932526 182.392410,409.950592 184.179855,415.885956 
	C186.452850,423.433685 191.173843,428.784912 198.473785,431.516998 
	C208.777206,435.373108 219.372604,435.939056 229.708481,431.899719 
	C241.027008,427.476379 244.589172,417.457733 246.666092,406.601135 
	C247.864578,400.336487 247.723862,394.011658 247.729172,387.691589 
	C247.751694,360.861816 247.726105,334.032013 247.797775,307.202423 
	C247.803574,305.034973 246.757278,301.999084 249.694977,301.095673 
	C252.685944,300.175934 256.100403,300.042450 259.028717,301.246704 
	C261.213623,302.145264 260.314819,304.799011 260.317230,306.695129 
	C260.357452,338.190826 260.467407,369.687408 260.267059,401.181915 
	C260.193634,412.727142 258.179047,424.037384 253.489990,434.712494 
	C245.776230,452.273651 233.032135,459.776794 211.884399,459.299408 
	C194.121109,458.898407 180.813614,449.565979 174.375137,432.856171 
	C170.188660,421.990967 168.863052,410.584991 168.744934,399.060120 
	C168.650894,389.886017 168.462570,380.738007 166.621674,371.733093 
	C163.805878,357.959320 155.732712,351.164856 141.623779,350.382172 
	C136.441772,350.094666 131.304626,350.356598 125.853088,351.665863 
z"/>
<path fill="#000000" opacity="1.000000" stroke="none" 
	d="
M385.321594,189.899597 
	C392.436371,213.429657 391.124878,236.022949 379.915649,257.557434 
	C370.451324,275.739685 350.307007,285.259705 331.343872,281.322968 
	C316.452148,278.231415 310.477997,268.132141 314.999146,253.601562 
	C317.118164,246.791321 320.750183,240.934143 325.937866,235.969284 
	C328.178009,233.825394 330.056854,233.499985 332.357330,235.628662 
	C333.454163,236.643585 334.618225,237.632095 335.891968,238.400208 
	C338.628723,240.050568 339.116425,241.725479 336.886261,244.360580 
	C335.534515,245.957748 334.659729,248.087021 333.997192,250.116501 
	C331.376434,258.144745 335.948822,264.464447 344.396942,264.842682 
	C350.688721,265.124390 355.697296,262.493378 359.996033,258.225159 
	C373.694824,244.623672 378.938690,216.049973 370.890869,198.457230 
	C365.702606,187.115555 356.924530,179.966187 344.759003,177.259262 
	C328.300079,173.597046 312.667450,175.342514 298.459045,185.118820 
	C295.281158,187.305405 292.368530,189.865616 290.426544,193.225250 
	C288.658051,196.284744 286.812012,196.303650 283.935059,194.629089 
	C275.962097,189.988358 275.686951,189.764130 280.622253,181.963409 
	C292.344116,163.435944 308.726685,151.932587 331.118744,152.110382 
	C357.206146,152.317490 375.687805,164.745071 385.321594,189.899597 
z"/>
<path fill="#000000" opacity="1.000000" stroke="none" 
	d="
M140.265076,51.286934 
	C128.931732,60.419289 118.765984,70.267029 109.707741,81.189941 
	C106.570305,84.973244 104.128532,84.189735 101.035629,81.442307 
	C99.108124,79.730103 99.133430,78.201172 100.425201,76.244568 
	C113.024025,57.161610 125.744156,38.034664 144.493942,24.345703 
	C168.226257,7.019044 194.544083,0.484492 223.232391,9.539382 
	C236.964386,13.873610 247.438675,23.261324 255.819275,34.904301 
	C256.480804,35.823341 257.311676,36.746040 256.828552,38.921963 
	C251.249222,41.303028 245.211731,43.938442 239.129166,46.465363 
	C211.609619,57.897945 184.078476,69.302605 156.549026,80.711319 
	C147.090897,84.630951 147.087601,84.622978 142.743759,73.835068 
	C169.642059,62.307205 196.576706,50.763767 224.316605,38.875214 
	C217.613403,32.132786 210.149124,29.948763 202.147842,29.383039 
	C178.515869,27.712158 158.598083,36.784794 140.265076,51.286934 
z"/>
<path fill="#000000" opacity="1.000000" stroke="none" 
	d="
M99.724289,107.294037 
	C103.957176,112.240089 107.841324,117.023331 111.989395,121.565559 
	C115.928703,125.879181 111.676727,128.103348 109.804855,130.807953 
	C107.513809,134.118195 105.486519,131.591461 103.673553,130.047348 
	C85.799400,114.824005 68.546364,98.965958 53.248070,81.076721 
	C50.856453,78.280060 50.355556,76.265480 53.364315,73.620705 
	C56.703033,70.685883 59.233555,66.878151 63.443104,63.870625 
	C75.515289,78.323082 87.503075,92.674500 99.724289,107.294037 
z"/>
<path fill="#000000" opacity="1.000000" stroke="none" 
	d="
M156.784241,175.477371 
	C158.934219,179.488983 158.524384,182.953415 155.531998,185.778137 
	C153.235703,187.945786 150.399979,188.675308 147.279251,187.312256 
	C144.034302,185.894928 142.450302,183.332153 142.343994,179.925354 
	C142.241714,176.648071 143.790192,174.215729 146.807037,172.822556 
	C150.657379,171.044495 153.866867,172.048538 156.784241,175.477371 
z"/>
<path fill="#000000" opacity="1.000000" stroke="none" 
	d="
M138.220306,229.129807 
	C134.890686,232.485992 131.434601,233.263947 127.689415,230.771744 
	C124.836952,228.873611 123.399483,226.147690 124.212006,222.673889 
	C124.938652,219.567276 126.704994,217.269196 130.058105,216.645493 
	C133.169769,216.066681 136.102310,216.451111 138.126785,219.134842 
	C140.445557,222.208679 140.642426,225.506546 138.220306,229.129807 
z"/>
<path fill="#000000" opacity="1.000000" stroke="none" 
	d="
M220.177795,174.358658 
	C214.369110,174.809967 210.639954,172.352203 210.072678,167.678589 
	C209.566223,163.506042 211.693863,160.722717 215.538956,159.296967 
	C219.285904,157.907578 223.564514,159.755203 225.104538,163.295502 
	C227.022675,167.705032 225.555466,171.239227 220.177795,174.358658 
z"/>
<path fill="#000000" opacity="1.000000" stroke="none" 
	d="
M255.608307,254.772949 
	C250.815201,256.269775 247.020691,255.580002 244.707260,251.119995 
	C242.969376,247.769547 243.603119,244.648956 246.287292,242.065491 
	C249.640076,238.838455 254.854568,239.057907 257.847046,242.424744 
	C260.902557,245.862534 260.151398,250.640427 255.608307,254.772949 
z"/>
<path fill="#000000" opacity="1.000000" stroke="none" 
	d="
M249.889282,227.815796 
	C248.308304,222.488968 249.680847,218.733948 253.516861,217.042389 
	C257.090179,215.466690 261.809998,216.790329 263.594482,219.868591 
	C265.697571,223.496399 264.846191,228.152267 261.639069,230.562378 
	C257.824524,233.428986 254.074921,232.653778 249.889282,227.815796 
z"/>
<path fill="#000000" opacity="1.000000" stroke="none" 
	d="
M145.007721,200.166809 
	C143.342300,207.976898 137.236343,211.010712 132.181122,206.850143 
	C129.416473,204.574783 128.215912,201.599396 129.542679,198.015518 
	C130.849258,194.486145 133.607010,192.742142 137.190399,192.810120 
	C141.586487,192.893494 144.080002,195.540527 145.007721,200.166809 
z"/>
<path fill="#000000" opacity="1.000000" stroke="none" 
	d="
M136.194031,239.791931 
	C142.620758,240.729904 145.685989,243.952072 145.015961,248.597412 
	C144.359741,253.146942 140.275604,256.202637 135.740479,255.434067 
	C131.791412,254.764832 129.488007,252.114563 129.162994,248.375977 
	C128.765991,243.809219 131.370697,240.972794 136.194031,239.791931 
z"/>
<path fill="#000000" opacity="1.000000" stroke="none" 
	d="
M240.481216,172.228714 
	C245.554947,173.738235 246.904053,177.158783 246.248047,181.593170 
	C245.649994,185.635864 242.791229,187.667221 239.053955,187.943207 
	C235.168411,188.230133 232.463974,185.975922 231.157898,182.354858 
	C229.186783,176.889923 233.305740,172.237549 240.481216,172.228714 
z"/>
<path fill="#000000" opacity="1.000000" stroke="none" 
	d="
M211.654404,276.723999 
	C214.946045,273.251251 218.529022,272.677277 222.224167,274.891357 
	C225.380585,276.782623 226.412811,279.931824 225.596252,283.482391 
	C224.506500,288.220886 219.761047,290.653839 215.116074,289.019775 
	C210.605591,287.432953 209.082886,282.494019 211.654404,276.723999 
z"/>
<path fill="#000000" opacity="1.000000" stroke="none" 
	d="
M170.187469,174.696472 
	C165.637360,173.899734 163.498795,171.074142 162.996475,167.181671 
	C162.612274,164.204590 164.075974,161.686584 166.699890,160.114777 
	C169.643158,158.351654 172.671524,158.262817 175.543198,160.324890 
	C178.414459,162.386627 179.273651,165.264801 178.488541,168.616135 
	C177.517365,172.761826 174.625412,174.541733 170.187469,174.696472 
z"/>
<path fill="#000000" opacity="1.000000" stroke="none" 
	d="
M194.057846,169.569153 
	C188.479736,168.167328 186.084656,164.997269 186.734558,160.353561 
	C187.273376,156.503525 190.909805,153.578659 194.895264,153.789734 
	C198.886551,154.001114 202.113647,157.222229 202.305740,161.186417 
	C202.531433,165.844131 199.932007,168.619080 194.057846,169.569153 
z"/>
<path fill="#000000" opacity="1.000000" stroke="none" 
	d="
M252.800018,192.806854 
	C258.172150,193.940643 260.097565,197.203568 259.464630,202.015900 
	C258.938263,206.017838 256.421600,208.204453 252.421906,208.487122 
	C248.129822,208.790436 245.498871,206.489319 244.229050,202.608612 
	C242.634995,197.736969 246.037231,193.712051 252.800018,192.806854 
z"/>
<path fill="#000000" opacity="1.000000" stroke="none" 
	d="
M157.290405,265.009155 
	C158.706482,270.498322 156.927475,274.558655 152.805008,275.967224 
	C149.171326,277.208801 144.760300,275.342072 143.092148,271.856812 
	C141.384537,268.289124 142.653351,263.777344 145.936203,261.743805 
	C149.682648,259.423096 153.795090,260.485687 157.290405,265.009155 
z"/>
<path fill="#000000" opacity="1.000000" stroke="none" 
	d="
M190.539917,293.509033 
	C185.892273,288.950104 185.401749,284.087982 189.066635,280.892487 
	C191.991562,278.342163 195.300369,277.885529 198.672638,279.879395 
	C202.143463,281.931549 203.049377,285.284912 202.003586,288.899963 
	C200.936829,292.587494 198.236221,294.650208 194.207443,294.412079 
	C193.080917,294.345520 191.973099,293.961884 190.539917,293.509033 
z"/>
<path fill="#000000" opacity="1.000000" stroke="none" 
	d="
M232.054749,272.666626 
	C229.835205,268.593750 230.319244,265.159271 233.514160,262.429688 
	C236.337097,260.017914 239.611023,260.016235 242.839798,261.745636 
	C246.386002,263.645050 246.756165,266.904999 246.219147,270.380798 
	C245.768646,273.296692 243.831833,275.176910 241.119553,275.982208 
	C237.580505,277.032990 234.551361,275.999969 232.054749,272.666626 
z"/>
<path fill="#000000" opacity="1.000000" stroke="none" 
	d="
M176.238510,287.449921 
	C170.938675,290.319824 167.097397,289.790161 164.505066,286.059845 
	C162.065857,282.549835 162.336334,279.057831 165.332397,276.121521 
	C168.459396,273.056885 172.146591,272.823975 175.785385,275.315002 
	C179.426544,277.807678 179.645065,282.220184 176.238510,287.449921 
z"/>
</svg>