<svg version="1.1" id="Layer_1" xmlns="http://www.w3.org/2000/svg" xmlns:xlink="http://www.w3.org/1999/xlink" x="0px" y="0px"
	 width="100%" viewBox="0 0 512 512" enable-background="new 0 0 512 512" xml:space="preserve">
<path fill="#000000" opacity="1.000000" stroke="none" 
	d="
M170.896973,407.297363 
	C173.303131,379.570740 183.707901,354.682037 193.538559,329.595764 
	C206.509827,296.495178 215.142746,262.494843 213.664566,226.559845 
	C213.287125,217.384094 211.968292,208.380234 208.213196,199.850998 
	C202.835083,187.635254 193.763580,180.019836 180.541245,177.958817 
	C168.341400,176.057175 156.227951,176.548660 144.979233,182.326645 
	C134.413727,187.753693 127.686913,196.250626 126.342133,208.337250 
	C125.738403,213.763458 121.941719,213.295639 118.250153,213.306229 
	C115.208351,213.314941 113.576027,211.979614 113.831787,208.732498 
	C115.264465,190.543304 121.527077,174.743835 136.383530,163.225388 
	C159.210587,145.527222 205.769577,147.000214 221.143356,187.850372 
	C228.728836,208.005981 229.120850,228.771225 227.778168,249.819763 
	C226.447632,270.677948 222.180756,290.947113 215.926941,310.837677 
	C210.485046,328.145966 202.528488,344.504761 196.748520,361.692169 
	C191.218811,378.135437 186.598785,394.761932 185.536850,412.173950 
	C184.832214,423.727417 186.350906,435.068970 189.429016,446.194733 
	C191.761780,454.626404 190.714447,456.423706 181.038971,458.815460 
	C173.254669,442.718445 170.116837,425.652863 170.896973,407.297363 
z"/>
<path fill="#000000" opacity="1.000000" stroke="none" 
	d="
M389.277405,216.662766 
	C394.153870,218.305374 395.919067,221.648666 394.852997,226.084549 
	C393.838745,230.304611 390.701996,232.547150 386.336273,232.127121 
	C382.178467,231.727097 379.847229,228.954971 379.271240,224.913422 
	C378.532135,219.727280 382.511841,216.370483 389.277405,216.662766 
z"/>
<path fill="#000000" opacity="1.000000" stroke="none" 
	d="
M388.038361,205.899582 
	C384.724762,209.054062 381.281219,209.421326 377.788910,207.271133 
	C375.044586,205.581497 373.774048,202.897659 374.232147,199.618652 
	C374.720276,196.124451 376.832703,193.891327 380.158020,193.004257 
	C383.278137,192.171921 386.162415,192.899353 388.202454,195.529312 
	C390.739441,198.799896 390.760254,202.224365 388.038361,205.899582 
z"/>
<path fill="#000000" opacity="1.000000" stroke="none" 
	d="
M373.472107,173.357758 
	C376.808594,176.354523 377.708557,179.721664 376.007172,183.436661 
	C374.570251,186.574158 371.789154,188.201874 368.365540,187.903076 
	C364.976562,187.607300 362.615082,185.584213 361.379761,182.338516 
	C360.240570,179.345322 361.076782,176.673706 363.132507,174.557312 
	C365.997040,171.608261 369.482178,171.300751 373.472107,173.357758 
z"/>
<path fill="#000000" opacity="1.000000" stroke="none" 
	d="
M344.980042,159.586121 
	C351.172302,158.256149 354.930420,160.295822 356.028137,165.222900 
	C356.895721,169.117065 354.312439,173.341736 350.317078,174.408585 
	C346.192627,175.509933 343.135101,173.861191 341.173553,170.300537 
	C339.134247,166.598831 340.467743,162.846359 344.980042,159.586121 
z"/>
<path fill="#000000" opacity="1.000000" stroke="none" 
	d="
M294.209595,170.543625 
	C292.533051,164.201141 294.160553,160.601120 299.016266,159.156982 
	C302.984741,157.976715 307.033234,160.072906 308.554596,164.115295 
	C310.083038,168.176407 308.652954,171.479156 305.201752,173.473404 
	C301.071442,175.860077 297.247589,174.882019 294.209595,170.543625 
z"/>
<path fill="#000000" opacity="1.000000" stroke="none" 
	d="
M258.285156,231.030853 
	C254.567429,228.534546 253.886307,225.232483 254.825943,221.571259 
	C255.492691,218.973282 257.412567,217.311050 260.045074,216.709549 
	C263.592651,215.898987 266.759613,216.650116 268.876251,219.783371 
	C270.981171,222.899261 270.776276,226.202881 268.434021,229.071442 
	C265.828125,232.262863 262.481659,233.177414 258.285156,231.030853 
z"/>
<path fill="#000000" opacity="1.000000" stroke="none" 
	d="
M376.898682,241.750183 
	C381.032013,238.818024 384.786987,239.116379 387.943268,242.382645 
	C390.449432,244.976105 390.844543,248.218185 388.975311,251.513885 
	C386.989746,255.014725 383.929504,255.962738 380.128326,255.360489 
	C375.312531,254.597488 371.453247,246.706360 376.898682,241.750183 
z"/>
<path fill="#000000" opacity="1.000000" stroke="none" 
	d="
M365.787567,261.203217 
	C373.550446,260.254242 378.018372,264.027832 376.668610,269.980316 
	C375.811249,273.761261 373.533691,276.119415 369.487335,276.308868 
	C365.537659,276.493835 362.819458,274.629456 361.496429,270.953522 
	C359.950562,266.658539 361.799042,263.627411 365.787567,261.203217 
z"/>
<path fill="#000000" opacity="1.000000" stroke="none" 
	d="
M285.903290,174.139648 
	C289.175415,178.036209 289.208740,181.838547 286.214844,185.295303 
	C283.831268,188.047394 280.568756,188.814026 277.143890,187.137527 
	C273.541870,185.374313 272.260254,182.244720 272.775665,178.418594 
	C273.542664,172.724594 279.494415,170.651825 285.903290,174.139648 
z"/>
<path fill="#000000" opacity="1.000000" stroke="none" 
	d="
M273.636078,205.352142 
	C268.887207,209.463776 263.730255,209.292023 260.841248,205.243774 
	C258.426605,201.860199 259.369629,196.346802 262.742554,194.128052 
	C266.805084,191.455673 272.092834,192.753860 274.353424,197.008148 
	C275.820312,199.768707 275.557678,202.455109 273.636078,205.352142 
z"/>
<path fill="#000000" opacity="1.000000" stroke="none" 
	d="
M330.742218,156.502350 
	C333.279907,162.175491 332.731415,166.242767 329.080475,168.348953 
	C325.586975,170.364319 322.046875,170.255341 319.064941,167.180450 
	C316.136597,164.160782 315.960510,159.790222 318.520081,156.756653 
	C321.574768,153.136276 325.584686,152.943726 330.742218,156.502350 
z"/>
<path fill="#000000" opacity="1.000000" stroke="none" 
	d="
M262.187775,253.659210 
	C259.162842,250.282532 258.693420,246.807465 260.782837,243.277527 
	C262.465759,240.434372 265.287994,239.355759 268.526520,239.867325 
	C271.752899,240.376968 274.032898,242.276917 274.957855,245.435257 
	C275.947479,248.814499 274.955353,251.792862 272.173157,253.891495 
	C269.047028,256.249603 265.715332,256.236145 262.187775,253.659210 
z"/>
<path fill="#000000" opacity="1.000000" stroke="none" 
	d="
M305.677887,275.035828 
	C309.185699,278.202759 310.141418,281.596344 307.951080,285.525909 
	C306.078796,288.884888 303.039215,289.936707 299.470062,289.161682 
	C296.087585,288.427185 293.994781,286.186890 293.427246,282.694641 
	C292.365112,276.158752 298.196350,272.308990 305.677887,275.035828 
z"/>
<path fill="#000000" opacity="1.000000" stroke="none" 
	d="
M347.196167,289.307861 
	C342.114258,288.234131 340.008850,285.043457 340.466370,280.565338 
	C340.884033,276.477356 343.571625,273.978180 347.794891,273.736023 
	C352.025269,273.493439 354.746033,275.695831 355.899048,279.689941 
	C357.352905,284.726166 353.759766,288.837433 347.196167,289.307861 
z"/>
<path fill="#000000" opacity="1.000000" stroke="none" 
	d="
M325.688782,294.389709 
	C318.630768,293.794495 314.896942,288.542725 317.520111,283.326660 
	C319.287811,279.811676 322.289093,278.178955 326.155487,278.889313 
	C329.776031,279.554474 332.102386,281.779572 332.305969,285.675995 
	C332.542847,290.208557 330.923157,293.467194 325.688782,294.389709 
z"/>
<path fill="#000000" opacity="1.000000" stroke="none" 
	d="
M286.006470,274.009186 
	C282.263214,277.132050 278.725830,277.178833 275.336365,274.323914 
	C272.253967,271.727692 271.860260,268.293610 273.477203,264.834503 
	C275.188995,261.172546 278.515869,260.164734 282.280243,260.814331 
	C288.090149,261.816956 289.900482,267.775330 286.006470,274.009186 
z"/>
</svg>