<svg version="1.1" id="Layer_1" xmlns="http://www.w3.org/2000/svg" xmlns:xlink="http://www.w3.org/1999/xlink" x="0px" y="0px"
	 width="100%" viewBox="0 0 512 512" enable-background="new 0 0 512 512" xml:space="preserve">
<path fill="#000000" opacity="1.000000" stroke="none" 
	d="
M198.083191,357.950073 
	C191.967804,375.477203 186.894943,392.822205 185.656738,411.108765 
	C184.848907,423.039581 186.314484,434.665863 189.420853,446.121826 
	C191.737045,454.663788 190.857040,456.266724 181.500427,458.732086 
	C176.171875,451.244995 174.818405,442.300537 172.820206,433.609955 
	C168.073090,412.963776 171.905624,392.958954 177.634933,373.149445 
	C184.069778,350.900482 194.212509,329.990295 201.315292,307.975830 
	C209.964752,281.167694 214.931198,253.786621 213.598404,225.538223 
	C212.939194,211.566772 210.334732,198.082809 199.883606,187.490387 
	C194.372986,181.905243 187.590271,178.812698 180.043106,177.815170 
	C166.958206,176.085724 153.988174,176.609985 142.332199,183.767944 
	C133.230927,189.357086 127.434395,197.459412 126.325844,208.356735 
	C125.773346,213.787857 121.903809,213.296371 118.217873,213.302902 
	C115.167290,213.308319 113.569855,211.941345 113.830742,208.700943 
	C115.294861,190.515671 121.548874,174.701553 136.431580,163.209198 
	C159.442398,145.440338 205.845398,147.174332 221.174393,187.925003 
	C228.891708,208.440781 229.155640,229.579865 227.793198,250.929642 
	C225.547058,286.127258 214.233414,318.894012 200.581100,351.011536 
	C199.672256,353.149597 198.997269,355.387085 198.083191,357.950073 
z"/>
<path fill="#000000" opacity="1.000000" stroke="none" 
	d="
M189.305389,11.006405 
	C191.848709,10.659274 193.982895,10.413921 196.397095,10.136378 
	C198.408615,14.716010 196.719116,19.058174 195.864471,23.300940 
	C195.516830,25.026791 193.260818,25.013557 191.623047,25.352022 
	C181.016800,27.543898 171.291840,31.546251 163.377686,39.237297 
	C161.441254,41.119129 159.784851,43.189548 158.802429,45.719017 
	C156.603287,51.381195 158.309418,55.746273 163.581741,58.704052 
	C168.637939,61.540585 174.403427,61.880714 179.775482,63.588039 
	C181.834061,64.242287 183.980896,64.669144 185.968658,65.488106 
	C206.552399,73.968483 211.200180,100.559998 194.898743,116.224236 
	C181.959290,128.657944 165.689850,132.753769 148.605682,134.880539 
	C146.501404,135.142502 145.341263,134.061493 145.026443,132.259506 
	C144.405075,128.702713 142.951477,125.206276 143.981491,121.018616 
	C152.602905,119.375587 161.644196,118.954620 170.046066,115.722076 
	C177.387909,112.897369 184.656036,109.926743 188.291611,102.086182 
	C191.657974,94.826180 189.617050,90.226929 181.951675,88.128372 
	C176.183823,86.549294 170.344757,85.284210 164.592651,83.587250 
	C140.631958,76.518478 138.699799,52.018688 148.054764,36.343029 
	C155.014923,24.680246 166.176590,18.074255 178.792206,13.830753 
	C182.092133,12.720758 185.524643,12.005000 189.305389,11.006405 
z"/>
<path fill="#000000" opacity="1.000000" stroke="none" 
	d="
M392.228394,230.373184 
	C388.003235,233.095520 384.304565,232.900787 381.208679,229.357117 
	C378.798370,226.598251 378.372009,223.318771 380.333252,220.141983 
	C382.548279,216.554123 385.972321,215.867004 389.904785,216.766861 
	C394.204224,217.750656 397.877899,225.199387 392.228394,230.373184 
z"/>
<path fill="#000000" opacity="1.000000" stroke="none" 
	d="
M362.783997,174.878326 
	C366.227966,171.628494 369.800903,171.087708 373.471924,173.412399 
	C376.232025,175.160248 377.234711,178.036804 376.733276,181.186386 
	C376.191650,184.588058 374.090729,186.824219 370.686646,187.694061 
	C367.405792,188.532425 364.816772,187.278976 362.791870,184.807785 
	C360.258026,181.715485 360.336121,178.452911 362.783997,174.878326 
z"/>
<path fill="#000000" opacity="1.000000" stroke="none" 
	d="
M386.662109,194.048737 
	C391.737701,200.034592 390.270935,207.023300 384.005402,208.321609 
	C380.422791,209.063965 377.412109,208.079422 375.401276,204.870361 
	C373.403564,201.682266 373.604095,198.390335 375.991425,195.644424 
	C378.803894,192.409531 382.418823,191.792175 386.662109,194.048737 
z"/>
<path fill="#000000" opacity="1.000000" stroke="none" 
	d="
M294.215790,170.539780 
	C292.540863,164.194901 294.165436,160.602951 299.019531,159.164871 
	C302.986938,157.989502 307.030579,160.084290 308.552307,164.119797 
	C310.083374,168.180191 308.649628,171.479797 305.201813,173.470215 
	C301.075439,175.852371 297.252686,174.871567 294.215790,170.539780 
z"/>
<path fill="#000000" opacity="1.000000" stroke="none" 
	d="
M340.419067,166.181976 
	C341.746033,160.924301 344.969666,158.343185 349.121765,158.873978 
	C353.261932,159.403244 356.381287,163.024887 356.202301,167.094635 
	C356.026520,171.090759 352.438385,174.673584 348.477966,174.807404 
	C344.194946,174.952118 341.273041,171.977829 340.419067,166.181976 
z"/>
<path fill="#000000" opacity="1.000000" stroke="none" 
	d="
M269.461914,240.039185 
	C273.911743,241.803070 275.859833,244.835617 275.127319,249.141937 
	C274.555542,252.503220 272.416595,254.733856 268.924683,255.384705 
	C265.257843,256.068115 262.381622,254.836273 260.550995,251.579498 
	C259.075562,248.954590 259.012817,246.115967 260.548401,243.549591 
	C262.442474,240.384171 265.448547,239.298325 269.461914,240.039185 
z"/>
<path fill="#000000" opacity="1.000000" stroke="none" 
	d="
M254.474686,224.014206 
	C255.686874,218.268265 258.545807,215.949799 263.284363,216.493301 
	C267.361359,216.960922 270.271088,220.171616 270.241119,224.169556 
	C270.210693,228.225647 266.924622,231.812729 262.887665,232.196609 
	C258.622528,232.602188 255.451324,229.655960 254.474686,224.014206 
z"/>
<path fill="#000000" opacity="1.000000" stroke="none" 
	d="
M376.308533,242.264893 
	C379.943390,239.244904 383.517578,238.844925 387.005371,241.523804 
	C389.707062,243.598877 390.817535,246.506180 389.650208,249.873032 
	C388.622070,252.838623 386.800751,255.052200 383.377594,255.438019 
	C380.169769,255.799545 377.438629,255.035858 375.638824,252.192337 
	C373.566742,248.918594 373.618774,245.664948 376.308533,242.264893 
z"/>
<path fill="#000000" opacity="1.000000" stroke="none" 
	d="
M375.713531,272.570068 
	C371.858826,276.644409 368.027557,277.495392 364.622223,275.011230 
	C361.383087,272.648315 359.937653,269.477814 361.636566,265.500000 
	C363.408447,261.351227 366.786285,260.073944 370.956909,260.853729 
	C375.795410,261.758392 377.705200,266.318207 375.713531,272.570068 
z"/>
<path fill="#000000" opacity="1.000000" stroke="none" 
	d="
M287.742096,176.781952 
	C288.886749,181.085342 288.122925,184.484283 284.517181,186.720032 
	C281.936310,188.320297 279.139496,188.469131 276.483856,186.798370 
	C273.506927,184.925461 272.368469,182.105972 272.734833,178.672607 
	C273.126099,175.005722 275.551147,173.044968 278.832153,172.255951 
	C282.718811,171.321289 285.605621,173.027145 287.742096,176.781952 
z"/>
<path fill="#000000" opacity="1.000000" stroke="none" 
	d="
M275.253540,200.104065 
	C274.105286,206.542725 270.965302,209.176392 265.925598,208.353073 
	C261.545685,207.637527 259.096893,204.002136 259.658295,199.142578 
	C260.120483,195.141479 262.821289,193.254074 266.345093,192.881683 
	C271.200348,192.368591 274.183228,194.925507 275.253540,200.104065 
z"/>
<path fill="#000000" opacity="1.000000" stroke="none" 
	d="
M322.722839,169.348145 
	C316.008636,167.196213 315.164581,159.397400 319.259552,156.024155 
	C322.244415,153.565353 325.506775,152.914383 328.951263,155.008240 
	C332.526001,157.181305 332.999420,160.716446 332.057648,164.235138 
	C330.876740,168.647308 327.434601,170.013916 322.722839,169.348145 
z"/>
<path fill="#000000" opacity="1.000000" stroke="none" 
	d="
M298.633698,289.005890 
	C294.430328,286.872650 292.571686,283.876038 293.610748,279.502258 
	C294.445618,275.988037 296.952332,274.241455 300.332245,273.780243 
	C304.897644,273.157257 308.883759,276.620544 309.124664,281.222626 
	C309.395203,286.390991 305.472168,289.464294 298.633698,289.005890 
z"/>
<path fill="#000000" opacity="1.000000" stroke="none" 
	d="
M346.376404,289.237183 
	C341.684784,287.463684 339.661621,284.281036 340.639832,279.769440 
	C341.523254,275.695068 344.404785,273.600555 348.621552,273.735199 
	C352.673950,273.864594 355.046356,276.259674 355.986023,280.009521 
	C357.281189,285.178101 353.266815,289.150696 346.376404,289.237183 
z"/>
<path fill="#000000" opacity="1.000000" stroke="none" 
	d="
M323.434448,294.359131 
	C317.348053,291.836700 315.207642,287.510040 317.646515,283.094574 
	C319.660736,279.448029 322.896973,277.941315 326.894562,279.058380 
	C331.267334,280.280273 332.891510,283.601593 332.249817,287.926117 
	C331.542694,292.691620 328.505493,294.696045 323.434448,294.359131 
z"/>
<path fill="#000000" opacity="1.000000" stroke="none" 
	d="
M278.432190,260.846924 
	C283.607208,260.235199 287.052917,261.910065 288.185913,266.813934 
	C289.078918,270.678925 286.698608,274.837555 283.023254,275.950043 
	C279.016571,277.162842 275.671448,275.833893 273.682190,272.231354 
	C271.712402,268.664154 272.237671,265.164398 275.444641,262.381409 
	C276.175446,261.747223 277.156738,261.401672 278.432190,260.846924 
z"/>
</svg>