<svg version="1.1" id="Layer_1" xmlns="http://www.w3.org/2000/svg" xmlns:xlink="http://www.w3.org/1999/xlink" x="0px" y="0px"
	 width="100%" viewBox="0 0 512 512" enable-background="new 0 0 512 512" xml:space="preserve">
<path fill="#000000" opacity="1.000000" stroke="none" 
	d="
M140.488754,344.456268 
	C133.033798,363.611603 126.471123,382.631073 124.006371,402.780823 
	C122.170830,417.786621 122.711533,432.649994 127.178596,447.242401 
	C129.172485,453.755646 128.453888,454.720428 122.561218,457.630768 
	C119.193321,459.294128 117.491585,458.056946 116.427567,455.119659 
	C110.951996,440.004089 107.251274,424.614136 108.360847,408.310669 
	C110.096115,382.813660 119.118431,359.375580 128.457001,336.036926 
	C137.879837,312.487671 145.976059,288.494202 149.155090,263.291931 
	C151.604630,243.872513 153.434326,224.170273 147.551895,204.896317 
	C142.076538,186.956177 128.866882,177.457748 109.973976,177.143066 
	C98.625656,176.954056 87.803947,178.357483 78.042908,184.833817 
	C69.539322,190.475830 64.870369,198.461899 63.618904,208.299988 
	C62.860992,214.258133 58.900005,213.252563 55.192337,213.274155 
	C50.597145,213.300903 51.476528,209.893372 51.671078,207.188324 
	C53.117889,187.071823 60.868103,170.202042 78.864021,159.965805 
	C97.875244,149.152039 117.758652,149.660690 136.495407,160.457489 
	C151.148880,168.901382 158.373260,183.372726 162.209641,199.420609 
	C166.749634,218.411682 166.425293,237.581467 164.581879,256.944550 
	C161.676651,287.461182 152.656326,316.158661 140.488754,344.456268 
z"/>
<path fill="#000000" opacity="1.000000" stroke="none" 
	d="
M383.665588,250.944183 
	C385.669128,245.487717 388.847748,241.256424 392.328735,237.170639 
	C395.051056,233.975342 397.702789,232.909607 401.018707,236.276962 
	C401.945557,237.218216 403.067719,237.981903 404.158234,238.744125 
	C406.406799,240.315826 406.402924,241.856583 404.873108,244.167587 
	C400.288177,251.093796 400.022278,257.704803 403.809601,261.597382 
	C407.889557,265.790710 416.396332,265.919464 422.885193,262.009674 
	C427.143890,259.443695 430.344696,255.871353 432.855988,251.696381 
	C442.226288,236.118500 445.308411,219.466003 439.826935,201.950439 
	C435.749695,188.921982 426.532043,180.587219 413.202820,177.408951 
	C397.933563,173.768112 383.151642,175.033829 369.299957,183.054749 
	C364.901947,185.601456 361.071564,188.868195 358.318420,193.065262 
	C356.221588,196.261795 354.233276,196.426941 351.413116,194.397934 
	C349.928986,193.330154 348.356873,192.376328 346.777222,191.451721 
	C344.776367,190.280563 344.613495,188.851837 345.672516,186.863342 
	C356.918579,165.747147 373.774750,152.304199 398.249939,152.114456 
	C430.512573,151.864334 450.713135,171.755981 456.129120,201.400330 
	C459.116638,217.752411 457.483215,233.945770 451.515686,249.475403 
	C444.373627,268.061371 431.342285,279.620270 410.994629,281.945099 
	C405.410645,282.583069 399.997711,282.006683 394.789307,280.049805 
	C383.161316,275.680908 379.207184,268.158081 382.041046,256.073059 
	C382.419373,254.459564 383.041046,252.903122 383.665588,250.944183 
z"/>
<path fill="#000000" opacity="1.000000" stroke="none" 
	d="
M305.281860,187.914993 
	C300.921173,186.810165 298.591583,184.292450 298.361206,180.158966 
	C298.192230,177.127029 299.487732,174.752914 302.186371,173.174667 
	C305.066559,171.490234 307.892029,171.694778 310.602417,173.412476 
	C313.384094,175.175354 314.621368,177.909760 314.043518,181.068665 
	C313.221222,185.563797 310.203644,187.795853 305.281860,187.914993 
z"/>
<path fill="#000000" opacity="1.000000" stroke="none" 
	d="
M261.247284,169.536102 
	C256.347229,168.794754 254.089798,165.733902 254.030472,161.569870 
	C253.972015,157.466537 256.620331,154.739700 260.682587,153.978439 
	C264.343140,153.292450 267.321899,154.798645 268.933075,158.164108 
	C270.604523,161.655563 270.027069,164.938751 267.137360,167.718994 
	C265.564240,169.232498 263.648987,169.530762 261.247284,169.536102 
z"/>
<path fill="#000000" opacity="1.000000" stroke="none" 
	d="
M241.130585,174.264420 
	C236.394608,175.449539 233.074341,173.903931 231.319946,169.901428 
	C229.890793,166.640976 230.235611,163.305923 233.256851,160.847382 
	C236.117218,158.519730 239.284790,158.063873 242.542862,159.987228 
	C247.962143,163.186401 247.439896,170.019928 241.130585,174.264420 
z"/>
<path fill="#000000" opacity="1.000000" stroke="none" 
	d="
M212.933014,186.146210 
	C209.664337,183.044189 208.592010,179.687363 210.813538,176.025299 
	C212.673752,172.958862 215.562759,171.380814 219.294083,172.242996 
	C222.244690,172.924774 224.569077,174.529648 225.150986,177.678375 
	C225.748352,180.910736 225.494949,184.082092 222.521393,186.236465 
	C219.510147,188.418152 216.374069,188.504440 212.933014,186.146210 
z"/>
<path fill="#000000" opacity="1.000000" stroke="none" 
	d="
M193.102631,219.458679 
	C196.409195,215.844131 200.056015,215.621567 203.801071,217.554291 
	C206.820465,219.112488 207.623032,222.009964 207.279633,225.237915 
	C206.896301,228.841278 204.638336,230.868530 201.373444,231.895554 
	C198.305634,232.860596 195.748428,231.743149 193.754791,229.458084 
	C191.177032,226.503494 190.896347,223.206818 193.102631,219.458679 
z"/>
<path fill="#000000" opacity="1.000000" stroke="none" 
	d="
M255.160568,290.536438 
	C252.910217,286.121552 253.931625,282.680511 257.531647,280.187561 
	C260.965424,277.809692 264.628723,278.145325 267.554810,281.060028 
	C270.320648,283.815094 270.510010,287.310028 268.625854,290.708588 
	C265.897736,295.629517 259.894379,295.656860 255.160568,290.536438 
z"/>
<path fill="#000000" opacity="1.000000" stroke="none" 
	d="
M281.914490,274.498260 
	C288.371460,273.116394 292.278015,275.028320 293.151825,279.808044 
	C293.894745,283.871826 292.465424,287.090546 288.631744,288.836090 
	C284.968292,290.504120 280.685974,288.954468 278.665619,285.496918 
	C276.525818,281.834900 277.502716,278.170227 281.914490,274.498260 
z"/>
<path fill="#000000" opacity="1.000000" stroke="none" 
	d="
M305.204529,260.702820 
	C311.392303,261.159668 314.765228,264.604675 314.120544,269.364319 
	C313.477234,274.113831 308.866302,277.271637 304.256683,276.119568 
	C299.942841,275.041443 297.329559,270.298920 298.714447,265.924316 
	C299.649963,262.969238 301.703461,261.219360 305.204529,260.702820 
z"/>
<path fill="#000000" opacity="1.000000" stroke="none" 
	d="
M327.266388,247.122345 
	C326.356232,253.125961 323.675751,255.824783 319.039459,255.533859 
	C314.823517,255.269272 312.317719,252.855637 311.720734,248.704971 
	C311.106293,244.432480 313.443512,240.995453 317.404297,239.984634 
	C321.834656,238.854004 325.471130,241.338791 327.266388,247.122345 
z"/>
<path fill="#000000" opacity="1.000000" stroke="none" 
	d="
M314.868958,207.100449 
	C310.870209,203.796936 310.601074,199.893524 312.881226,196.163147 
	C314.892548,192.872635 318.390411,191.879059 322.104340,193.285812 
	C325.781982,194.678818 327.617279,197.509857 327.232330,201.498032 
	C326.676819,207.253647 321.616608,209.664276 314.868958,207.100449 
z"/>
<path fill="#000000" opacity="1.000000" stroke="none" 
	d="
M197.558746,243.998993 
	C200.041656,240.567474 202.966797,238.982376 206.820648,240.133896 
	C209.727585,241.002487 211.730606,242.932068 212.215393,246.043854 
	C212.740967,249.417419 211.883347,252.452805 208.900116,254.310318 
	C206.021790,256.102509 202.813583,256.179749 200.022217,254.091705 
	C196.717422,251.619568 195.849091,248.258392 197.558746,243.998993 
z"/>
<path fill="#000000" opacity="1.000000" stroke="none" 
	d="
M319.659668,230.438126 
	C316.013885,226.923676 315.513763,223.157501 318.144257,219.413010 
	C320.601532,215.915100 324.372498,215.618408 327.999573,217.180542 
	C331.436859,218.660950 332.698486,221.772186 332.204926,225.430283 
	C331.441925,231.085098 326.024292,233.374435 319.659668,230.438126 
z"/>
<path fill="#000000" opacity="1.000000" stroke="none" 
	d="
M210.124847,194.911819 
	C213.205994,198.878036 213.214050,202.661240 210.246063,206.102890 
	C207.785172,208.956558 204.315186,209.233337 201.103699,207.730576 
	C197.818024,206.193054 196.425232,203.250626 196.727921,199.504227 
	C197.122757,194.617508 204.570633,189.947876 210.124847,194.911819 
z"/>
<path fill="#000000" opacity="1.000000" stroke="none" 
	d="
M213.249725,261.906189 
	C217.236176,260.058685 220.740662,259.952667 223.606094,263.108429 
	C225.984283,265.727631 225.968399,268.949829 224.617523,271.960938 
	C223.194397,275.133118 220.443405,276.563568 216.920181,276.269470 
	C213.548233,275.988007 211.513901,273.923431 210.325226,270.977966 
	C208.885513,267.410522 210.163712,264.526703 213.249725,261.906189 
z"/>
<path fill="#000000" opacity="1.000000" stroke="none" 
	d="
M280.270752,172.631668 
	C277.060272,169.088806 276.571320,165.466858 279.296753,162.001373 
	C281.643036,159.017975 284.879913,157.911011 288.613892,159.613922 
	C292.258209,161.275925 293.785339,164.192047 293.221802,168.079834 
	C292.369873,173.957504 286.671631,176.082413 280.270752,172.631668 
z"/>
<path fill="#000000" opacity="1.000000" stroke="none" 
	d="
M231.439148,285.102692 
	C230.276932,281.924011 230.308609,279.189636 232.194946,276.740845 
	C234.830582,273.319275 239.855865,272.717621 243.311264,275.337952 
	C246.807144,277.988983 247.362259,282.840149 244.572403,286.358612 
	C241.777466,289.883423 237.092667,290.490387 233.577271,287.702698 
	C232.818695,287.101166 232.286621,286.213989 231.439148,285.102692 
z"/>
</svg>