<svg version="1.1" id="Layer_1" xmlns="http://www.w3.org/2000/svg" xmlns:xlink="http://www.w3.org/1999/xlink" x="0px" y="0px"
	 width="100%" viewBox="0 0 512 512" enable-background="new 0 0 512 512" xml:space="preserve">
<path fill="#000000" opacity="1.000000" stroke="none" 
	d="
M129.310852,377.173706 
	C122.449760,401.186920 120.289742,424.902161 127.545418,448.860931 
	C128.979538,453.596558 125.097420,458.437988 120.052513,458.497009 
	C117.952576,458.521545 117.168991,456.941711 116.598007,455.415222 
	C110.960190,440.342224 107.270721,424.926453 108.330048,408.649750 
	C110.123741,381.089447 120.595894,356.022980 130.523468,330.786346 
	C139.194672,308.743530 146.435242,286.193909 149.261322,262.652771 
	C151.593475,243.226166 153.439102,223.529678 147.371506,204.273788 
	C141.977325,187.155014 128.829453,177.539032 110.842941,177.155182 
	C99.715981,176.917725 89.005821,178.014404 79.200462,184.093750 
	C70.023453,189.783524 64.951775,197.995346 63.583450,208.418320 
	C62.798866,214.394730 58.721729,213.225555 55.068031,213.257568 
	C50.882114,213.294235 51.488930,210.219299 51.643661,207.562149 
	C54.479675,158.860489 100.615509,140.520981 136.196579,160.245834 
	C150.646362,168.256271 157.910980,182.447479 161.878418,198.098892 
	C166.678177,217.033859 166.491684,236.214172 164.743546,255.587189 
	C161.927322,286.796631 152.597687,316.085480 140.452499,344.703217 
	C136.032501,355.118073 132.418701,365.857025 129.310852,377.173706 
z"/>
<path fill="#000000" opacity="1.000000" stroke="none" 
	d="
M399.850159,151.975616 
	C412.115662,152.751984 423.346222,155.281204 433.093628,162.521454 
	C447.682892,173.358185 454.937134,188.366852 456.739349,205.952209 
	C458.842163,226.471313 456.386078,246.384827 443.773438,263.546326 
	C432.697998,278.616150 417.212921,284.155792 398.915649,281.194733 
	C389.160492,279.616058 382.133545,273.418243 381.500549,265.733124 
	C380.472351,253.249771 385.807159,243.152069 394.861450,234.841736 
	C396.203247,233.610199 397.547913,233.788010 398.912079,234.823792 
	C400.636780,236.133301 402.349731,237.460983 404.117676,238.710129 
	C406.324890,240.269608 406.449219,241.781448 404.902893,244.129395 
	C400.289093,251.134979 400.012238,257.663300 403.786774,261.571259 
	C407.972260,265.904694 416.655853,265.998230 423.279816,261.735687 
	C430.166779,257.303955 434.332367,250.686890 437.283661,243.338409 
	C442.696442,229.861176 444.576599,215.979782 439.864044,201.913498 
	C435.521484,188.951599 426.497314,180.570084 413.153076,177.396805 
	C397.864105,173.761078 383.077972,175.055481 369.228210,183.096176 
	C364.831207,185.648895 361.062469,188.962234 358.253357,193.136108 
	C356.342133,195.975922 354.679138,196.333359 351.737793,194.640121 
	C343.832764,190.089523 343.534241,190.060730 348.191742,182.425156 
	C359.856903,163.301041 376.587372,152.452637 399.850159,151.975616 
z"/>
<path fill="#000000" opacity="1.000000" stroke="none" 
	d="
M87.419426,33.504578 
	C99.428154,18.184921 115.791153,12.442891 134.697937,9.855045 
	C134.419952,14.352611 134.315201,18.275869 133.886795,22.163462 
	C133.619171,24.592026 131.595993,25.014791 129.475479,25.382500 
	C119.640274,27.087975 110.707832,30.861931 102.889397,37.187538 
	C100.248566,39.324146 97.989319,41.726910 96.561958,44.795250 
	C93.378365,51.638947 95.512268,57.121811 102.628128,59.479187 
	C108.772743,61.514797 115.099525,62.997959 121.337296,64.755417 
	C140.702637,70.211494 144.985764,86.021736 140.526489,102.440712 
	C137.339661,114.174568 128.553299,120.894562 118.378014,126.089638 
	C108.327919,131.220810 97.454208,133.560822 86.312439,134.838608 
	C84.315781,135.067596 83.049400,134.470016 82.616920,132.478638 
	C81.982750,129.558624 81.334343,126.638817 80.819374,123.696625 
	C80.366570,121.109680 82.246307,120.724838 84.157326,120.417694 
	C89.730934,119.521935 95.368340,118.895088 100.856476,117.625610 
	C109.005997,115.740517 116.856956,113.053246 122.757050,106.558281 
	C124.709763,104.408676 126.104988,102.073677 126.746246,99.211227 
	C128.035065,93.458191 126.085167,89.948341 120.306793,88.365860 
	C113.739143,86.567238 106.937256,85.655167 100.569977,83.087540 
	C80.695518,75.073082 74.103531,53.393147 86.105019,35.465664 
	C86.475677,34.911991 86.845100,34.357494 87.419426,33.504578 
z"/>
<path fill="#000000" opacity="1.000000" stroke="none" 
	d="
M265.629791,168.815018 
	C259.302704,170.054092 256.363342,168.820892 254.599182,164.469208 
	C253.146057,160.884689 254.226135,157.910172 257.082611,155.597000 
	C260.435944,152.881454 265.145294,153.345993 267.879578,156.475296 
	C271.085052,160.143875 270.407318,164.430374 265.629791,168.815018 
z"/>
<path fill="#000000" opacity="1.000000" stroke="none" 
	d="
M240.379639,174.424500 
	C235.492218,175.300400 232.442352,173.246811 231.047363,169.188995 
	C229.968185,166.049820 230.485931,162.883774 233.460892,160.673264 
	C236.068512,158.735718 238.879288,158.152115 241.891754,159.657608 
	C244.651337,161.036682 246.239044,163.296921 246.276245,166.396835 
	C246.322998,170.292114 244.595352,173.087891 240.379639,174.424500 
z"/>
<path fill="#000000" opacity="1.000000" stroke="none" 
	d="
M313.732880,182.304657 
	C311.754547,186.619492 308.787476,188.645889 304.391571,187.633606 
	C300.016510,186.626144 297.544006,182.372742 298.550201,178.041382 
	C299.430389,174.252380 303.407501,171.507858 307.177185,172.088043 
	C312.030060,172.834961 314.257812,176.106918 313.732880,182.304657 
z"/>
<path fill="#000000" opacity="1.000000" stroke="none" 
	d="
M203.659424,230.928772 
	C199.319855,233.182358 195.883606,232.344223 193.255707,228.845581 
	C191.072449,225.938934 190.885345,222.685501 192.992432,219.635391 
	C195.279816,216.324326 198.681824,215.808701 202.266754,216.832809 
	C208.197983,218.527145 209.022507,225.478745 203.659424,230.928772 
z"/>
<path fill="#000000" opacity="1.000000" stroke="none" 
	d="
M224.067780,175.304138 
	C226.017044,179.459671 226.118927,183.135025 222.700027,186.056381 
	C220.240692,188.157837 217.308960,188.577469 214.337601,187.015503 
	C211.479584,185.513138 209.798782,183.166306 209.747452,179.852341 
	C209.695038,176.468323 211.478104,174.202942 214.399643,172.808167 
	C218.070496,171.055603 221.154526,172.213333 224.067780,175.304138 
z"/>
<path fill="#000000" opacity="1.000000" stroke="none" 
	d="
M285.082642,273.712738 
	C290.213379,273.940094 292.886078,276.406250 293.268707,281.106415 
	C293.574768,284.865753 291.835236,287.726501 288.330994,288.894775 
	C284.550995,290.154968 281.065430,289.325867 278.777313,285.652893 
	C275.684662,280.688568 278.173584,275.669312 285.082642,273.712738 
z"/>
<path fill="#000000" opacity="1.000000" stroke="none" 
	d="
M327.103333,202.518799 
	C325.265137,207.179260 322.149323,209.225113 317.554901,208.250107 
	C314.386658,207.577759 312.253754,205.557587 311.715698,202.203171 
	C310.903503,197.139801 313.948090,193.117813 318.830353,192.753998 
	C323.852997,192.379745 327.089264,196.007828 327.103333,202.518799 
z"/>
<path fill="#000000" opacity="1.000000" stroke="none" 
	d="
M298.357910,268.839966 
	C298.543274,264.299377 300.475342,261.441864 304.730774,260.771790 
	C308.055359,260.248322 311.038574,261.006561 312.895721,264.229950 
	C314.774078,267.490112 314.566467,270.612457 312.228973,273.521729 
	C310.271973,275.957428 307.596954,276.816162 304.618042,276.145844 
	C300.998383,275.331238 298.916656,272.921448 298.357910,268.839966 
z"/>
<path fill="#000000" opacity="1.000000" stroke="none" 
	d="
M326.419800,244.008102 
	C328.064941,248.250671 327.364075,251.657257 323.981110,254.129654 
	C321.360016,256.045197 318.362457,256.198120 315.524200,254.531418 
	C312.284027,252.628708 311.191254,249.616516 311.752350,245.988556 
	C312.237610,242.851059 314.220459,240.893707 317.156006,240.089767 
	C320.967499,239.045944 323.999542,240.426102 326.419800,244.008102 
z"/>
<path fill="#000000" opacity="1.000000" stroke="none" 
	d="
M261.998901,278.759857 
	C267.390533,279.308685 269.947205,282.287689 269.694794,287.101166 
	C269.484680,291.108490 267.236328,293.925385 262.867584,294.351074 
	C258.357178,294.790619 255.584259,292.546875 254.280319,288.427673 
	C252.851654,283.914368 255.634613,280.328644 261.998901,278.759857 
z"/>
<path fill="#000000" opacity="1.000000" stroke="none" 
	d="
M212.304810,247.914627 
	C210.880737,253.853516 208.609879,255.778778 203.870621,255.444870 
	C199.784927,255.157043 197.488480,252.705154 196.818130,248.922272 
	C196.080307,244.758698 198.086670,241.830566 201.934875,240.288208 
	C206.841980,238.321411 211.255051,241.440659 212.304810,247.914627 
z"/>
<path fill="#000000" opacity="1.000000" stroke="none" 
	d="
M326.334351,216.639618 
	C331.640930,219.136612 333.434784,222.738663 331.841675,226.995636 
	C330.459076,230.690018 326.217651,232.932465 322.566254,231.899582 
	C318.421112,230.727066 316.096619,227.073700 316.715118,222.703369 
	C317.312317,218.483551 320.265167,216.527618 326.334351,216.639618 
z"/>
<path fill="#000000" opacity="1.000000" stroke="none" 
	d="
M196.919983,198.502808 
	C198.843781,194.179398 201.859451,192.170105 206.201599,192.952057 
	C209.624237,193.568420 211.801712,195.726837 212.272919,199.310715 
	C212.922607,204.252243 210.045288,208.011948 205.342804,208.414490 
	C199.854462,208.884308 196.794250,205.468765 196.919983,198.502808 
z"/>
<path fill="#000000" opacity="1.000000" stroke="none" 
	d="
M223.851868,263.343384 
	C226.428619,269.380951 225.355667,273.521210 221.024063,275.590942 
	C217.039215,277.494965 212.640030,275.834106 210.620834,271.656921 
	C208.844360,267.981842 209.651443,264.638214 212.762131,262.347900 
	C216.326263,259.723755 220.166885,259.782227 223.851868,263.343384 
z"/>
<path fill="#000000" opacity="1.000000" stroke="none" 
	d="
M277.748901,165.306396 
	C279.012756,160.886673 281.863007,158.819839 285.909882,158.922729 
	C289.091675,159.003632 291.626343,160.777771 292.802368,163.834412 
	C294.042450,167.057510 293.358795,170.071198 290.847168,172.490829 
	C288.477539,174.773636 285.599670,175.388351 282.591980,174.061203 
	C279.047943,172.497406 277.299683,169.687515 277.748901,165.306396 
z"/>
<path fill="#000000" opacity="1.000000" stroke="none" 
	d="
M238.062790,289.338776 
	C232.261932,287.876404 229.808334,284.443756 230.787415,279.729431 
	C231.633743,275.654205 236.132462,272.901520 240.323318,273.894592 
	C244.415009,274.864166 247.126541,278.833099 246.153320,282.924835 
	C245.222488,286.838348 242.784637,289.298035 238.062790,289.338776 
z"/>
</svg>