<svg version="1.1" id="Layer_1" xmlns="http://www.w3.org/2000/svg" xmlns:xlink="http://www.w3.org/1999/xlink" x="0px" y="0px"
	 width="100%" viewBox="0 0 512 512" enable-background="new 0 0 512 512" xml:space="preserve">
<path fill="#000000" opacity="1.000000" stroke="none" 
	d="
M304.222168,19.716208 
	C310.678528,25.020895 316.234528,30.641827 320.193176,37.490452 
	C319.031342,39.962254 316.865356,40.213821 315.100067,40.949223 
	C282.069916,54.709270 249.020889,68.424019 215.975540,82.147644 
	C211.460175,84.022858 205.815414,80.130760 205.930542,75.184303 
	C205.988007,72.715546 208.245483,72.564972 209.802948,71.897285 
	C231.831833,62.453445 253.900146,53.101524 275.925964,43.650597 
	C279.382721,42.167358 283.084869,41.107834 286.668427,38.400570 
	C280.354675,32.335041 272.948242,29.947989 264.906158,29.380209 
	C239.691833,27.600048 218.985794,38.090385 200.212265,53.581932 
	C190.170624,61.868092 181.111893,71.173355 172.537155,80.947823 
	C170.413528,83.368561 168.810440,85.293480 165.199905,82.590172 
	C161.724686,79.988174 162.077805,77.940361 164.153961,74.784149 
	C176.547546,55.943207 189.330322,37.299263 207.841507,23.903202 
	C231.657486,6.668180 257.949677,0.742530 286.659332,9.644547 
	C293.091278,11.638905 298.562164,15.538433 304.222168,19.716208 
z"/>
<path fill="#000000" opacity="1.000000" stroke="none" 
	d="
M123.692390,65.745972 
	C126.041245,63.379875 127.453178,64.745247 128.795334,66.459534 
	C143.558304,85.315887 159.091858,103.532356 174.800430,121.597389 
	C178.665344,126.042076 174.373779,128.095993 172.556107,130.818420 
	C170.574020,133.787155 168.618332,131.929199 166.784546,130.378189 
	C148.991455,115.328888 131.919220,99.550980 116.612892,81.907646 
	C113.532288,78.356667 113.368301,75.912422 116.921463,72.856728 
	C119.302536,70.809021 121.283737,68.296341 123.692390,65.745972 
z"/>
<path fill="#000000" opacity="1.000000" stroke="none" 
	d="
M305.574310,173.234375 
	C309.208160,176.283417 310.281189,179.694244 308.206116,183.665756 
	C306.482269,186.964935 303.537994,188.435669 299.906189,187.801041 
	C296.271484,187.165924 294.075409,184.774200 293.412842,181.105713 
	C292.229614,174.554199 298.021545,170.604630 305.574310,173.234375 
z"/>
<path fill="#000000" opacity="1.000000" stroke="none" 
	d="
M321.869507,203.322815 
	C318.767914,208.178345 314.761475,209.738007 310.914429,207.913376 
	C307.366669,206.230667 305.446442,201.649139 306.974884,197.708084 
	C308.501587,193.771469 311.767944,192.322800 315.797058,192.849152 
	C320.418427,193.452881 322.473511,196.939957 321.869507,203.322815 
z"/>
<path fill="#000000" opacity="1.000000" stroke="none" 
	d="
M309.132141,253.744263 
	C305.854034,249.770020 305.441406,245.810562 308.654083,242.216110 
	C311.225098,239.339554 314.721497,238.895264 318.219421,240.739212 
	C321.799561,242.626480 322.962646,245.820145 322.053986,249.577484 
	C321.139252,253.359924 318.600830,255.526230 314.544800,255.577164 
	C312.673462,255.600662 310.917572,255.223389 309.132141,253.744263 
z"/>
<path fill="#000000" opacity="1.000000" stroke="none" 
	d="
M287.863342,163.675385 
	C288.822693,167.955704 288.221375,171.474854 284.562073,173.613907 
	C280.997101,175.697815 277.529297,175.216766 274.666809,172.090698 
	C272.003998,169.182709 271.834381,164.359070 274.422272,161.617798 
	C277.400909,158.462585 280.949432,157.907654 284.826233,159.962219 
	C286.208038,160.694504 287.046021,161.921906 287.863342,163.675385 
z"/>
<path fill="#000000" opacity="1.000000" stroke="none" 
	d="
M216.739899,173.060028 
	C220.864990,175.900589 221.106750,179.628998 219.714035,183.439896 
	C218.591339,186.511887 215.785187,188.022751 212.609528,187.997864 
	C209.178970,187.970993 206.668533,186.046448 205.343079,182.846542 
	C204.174271,180.024796 204.416824,177.238876 206.500763,174.939178 
	C209.234863,171.921951 212.566269,171.059311 216.739899,173.060028 
z"/>
<path fill="#000000" opacity="1.000000" stroke="none" 
	d="
M201.836365,227.251099 
	C198.870483,233.834076 190.314453,233.799637 187.422684,227.623444 
	C185.998138,224.580917 186.173126,221.450455 188.595245,218.832932 
	C190.992783,216.242004 194.047928,215.736588 197.258652,216.801926 
	C200.576401,217.902756 202.414474,220.295761 202.311905,223.920364 
	C202.283997,224.907120 202.107834,225.889664 201.836365,227.251099 
z"/>
<path fill="#000000" opacity="1.000000" stroke="none" 
	d="
M325.404663,218.790466 
	C328.227905,222.921890 328.054504,226.643539 324.841339,229.931778 
	C322.240753,232.593201 319.039368,233.066803 315.731659,231.236389 
	C312.238770,229.303513 311.118225,226.144440 311.746613,222.356720 
	C312.713470,216.528534 319.024567,214.732834 325.404663,218.790466 
z"/>
<path fill="#000000" opacity="1.000000" stroke="none" 
	d="
M195.264954,240.987915 
	C199.118515,238.995071 202.386795,239.341263 205.212006,242.091095 
	C207.778488,244.589111 207.870590,247.746613 206.790863,250.873856 
	C205.699951,254.033478 203.118118,255.536041 199.878738,255.668976 
	C196.366089,255.813141 193.715591,254.064789 192.377380,250.925156 
	C190.785309,247.189911 191.527115,243.778656 195.264954,240.987915 
z"/>
<path fill="#000000" opacity="1.000000" stroke="none" 
	d="
M206.685501,204.119446 
	C203.077347,208.775085 198.679352,209.773514 194.954239,207.089508 
	C191.578110,204.656937 190.575546,199.965714 192.684067,196.467026 
	C194.857803,192.860168 199.869919,191.593063 203.603195,193.801132 
	C207.559982,196.141388 207.894897,199.750732 206.685501,204.119446 
z"/>
<path fill="#000000" opacity="1.000000" stroke="none" 
	d="
M264.657654,163.456818 
	C263.114777,168.362411 259.921875,170.168640 255.377869,169.400970 
	C251.145813,168.686035 249.103943,165.592346 248.972015,161.662979 
	C248.841400,157.773178 251.269150,155.167358 254.969376,154.055893 
	C260.311646,152.451202 264.430573,156.305832 264.657654,163.456818 
z"/>
<path fill="#000000" opacity="1.000000" stroke="none" 
	d="
M294.804047,273.168701 
	C292.356934,267.055359 293.559540,262.962250 298.011383,261.152222 
	C302.408691,259.364380 306.990997,261.287598 308.657135,265.675110 
	C310.100525,269.476227 308.852844,272.690521 305.763519,274.874451 
	C301.970947,277.555542 298.253265,276.732635 294.804047,273.168701 
z"/>
<path fill="#000000" opacity="1.000000" stroke="none" 
	d="
M277.583374,289.065399 
	C271.152924,284.232971 271.193115,276.751068 277.336639,274.284760 
	C280.491486,273.018219 283.596710,273.460571 286.097778,275.875488 
	C288.632019,278.322418 288.986053,281.479858 287.788605,284.600250 
	C286.648346,287.571625 284.431488,289.495239 280.952179,289.339752 
	C279.962158,289.295502 278.972534,289.242340 277.583374,289.065399 
z"/>
<path fill="#000000" opacity="1.000000" stroke="none" 
	d="
M226.639755,170.890747 
	C224.548920,163.172256 228.654816,157.508530 234.889694,158.998184 
	C238.374817,159.830872 240.826431,161.927551 241.257690,165.710129 
	C241.675217,169.372330 240.260178,172.321350 236.940689,173.892120 
	C232.990616,175.761276 229.552582,174.641663 226.639755,170.890747 
z"/>
<path fill="#000000" opacity="1.000000" stroke="none" 
	d="
M262.954834,291.823395 
	C258.274933,295.322998 254.166840,295.309174 251.197128,292.079071 
	C248.388092,289.023743 248.200851,284.788666 250.736832,281.667511 
	C253.342163,278.460999 258.005707,277.788544 261.488037,280.117310 
	C264.992004,282.460541 265.582794,286.403961 262.954834,291.823395 
z"/>
<path fill="#000000" opacity="1.000000" stroke="none" 
	d="
M216.151993,275.590027 
	C211.850586,277.071259 208.526337,276.228088 206.122925,272.764862 
	C204.234283,270.043427 204.193451,267.148224 205.934570,264.316193 
	C207.814316,261.258667 210.690689,260.342438 214.105194,260.728790 
	C217.043213,261.061218 219.229645,262.649139 219.973709,265.420868 
	C221.034576,269.372955 220.544418,273.068848 216.151993,275.590027 
z"/>
<path fill="#000000" opacity="1.000000" stroke="none" 
	d="
M233.916580,289.335388 
	C229.203888,289.339050 226.545639,287.119598 225.789902,283.017975 
	C225.089447,279.216339 226.381668,276.010254 230.137894,274.412018 
	C233.480972,272.989594 236.715805,273.337280 239.245422,276.208710 
	C241.867722,279.185333 242.039474,282.516571 240.075394,285.901642 
	C238.824432,288.057739 236.865112,289.213959 233.916580,289.335388 
z"/>
</svg>