<svg version="1.1" id="Layer_1" xmlns="http://www.w3.org/2000/svg" xmlns:xlink="http://www.w3.org/1999/xlink" x="0px" y="0px"
	 width="100%" viewBox="0 0 512 512" enable-background="new 0 0 512 512" xml:space="preserve">
<path fill="#000000" opacity="1.000000" stroke="none" 
	d="
M368.898865,244.903061 
	C373.920074,232.963684 375.894257,221.019653 373.815155,208.467163 
	C371.173248,192.516953 360.477600,180.842316 344.719635,177.242935 
	C329.888214,173.855133 315.603180,175.206436 302.165680,182.696411 
	C297.463226,185.317581 293.230774,188.630859 290.405396,193.294281 
	C288.546417,196.362686 286.699249,196.251526 283.879333,194.609711 
	C275.991547,190.017242 275.713074,189.851395 280.388550,182.343216 
	C291.979126,163.730377 308.299530,152.087189 330.688232,152.101135 
	C357.302704,152.117706 377.248993,164.820023 385.746368,191.533081 
	C393.099854,214.650055 391.017700,237.689301 379.018738,259.131104 
	C369.439911,276.248138 349.804718,285.127441 331.535797,281.322144 
	C329.277985,280.851837 327.023529,280.101776 324.936218,279.121979 
	C315.270081,274.584686 311.895508,268.139740 313.944061,257.654327 
	C315.547058,249.449203 319.422791,242.397675 325.377472,236.415878 
	C328.033905,233.747375 330.231384,233.468750 332.995270,236.036835 
	C334.794495,237.708588 336.849121,239.105545 338.996613,240.788010 
	C337.239899,244.230698 334.879791,246.874695 333.893005,250.254532 
	C331.594147,258.128448 335.944550,264.357452 344.115845,264.808380 
	C352.078400,265.247833 357.706268,261.200012 362.472992,255.433456 
	C365.037567,252.331009 367.072052,248.899399 368.898865,244.903061 
z"/>
<path fill="#000000" opacity="1.000000" stroke="none" 
	d="
M111.295868,79.311401 
	C106.035210,85.010918 104.723030,85.161613 100.734940,81.182739 
	C99.291389,79.742531 99.044044,78.380371 100.113152,76.767456 
	C114.878464,54.491676 129.641052,32.018024 153.540237,18.310446 
	C175.323120,5.816701 198.686325,1.377563 223.164368,9.470714 
	C236.339264,13.826716 246.600906,22.587198 254.903595,33.620171 
	C258.196716,37.996204 258.068848,38.550743 253.023712,40.653652 
	C231.815445,49.493652 210.584000,58.278019 189.359314,67.078629 
	C177.823486,71.861862 166.292862,76.657814 154.743210,81.407486 
	C148.000931,84.180183 147.979401,84.148064 144.472794,77.981850 
	C143.829330,76.850342 142.905548,75.805176 143.222839,73.610794 
	C169.805908,62.222935 196.738449,50.685371 224.438995,38.818802 
	C217.500748,32.214638 210.177460,29.945129 202.281219,29.380758 
	C176.863190,27.564037 155.990616,38.099468 137.138321,53.813492 
	C127.911522,61.504326 119.352898,69.904785 111.295868,79.311401 
z"/>
<path fill="#000000" opacity="1.000000" stroke="none" 
	d="
M109.485718,131.245468 
	C107.346840,133.411728 105.916718,131.937775 104.530495,130.772034 
	C86.165848,115.328148 68.641891,99.025169 52.980297,80.781090 
	C50.599751,78.008011 50.598431,76.101547 53.297626,73.707993 
	C56.735989,70.658981 59.239918,66.594818 63.682232,63.833397 
	C68.847755,70.161484 73.816071,76.371666 78.917122,82.470848 
	C88.952370,94.469688 99.016052,106.445442 109.158195,118.353912 
	C114.534615,124.666679 114.620041,124.593925 109.485718,131.245468 
z"/>
<path fill="#000000" opacity="1.000000" stroke="none" 
	d="
M151.631012,172.102844 
	C157.001740,174.449677 159.083694,178.016495 157.817322,182.147537 
	C156.638077,185.994461 152.742493,188.640030 149.060120,187.855042 
	C144.797241,186.946320 142.479431,184.153625 142.335938,179.803574 
	C142.183792,175.191208 145.252457,172.592422 151.631012,172.102844 
z"/>
<path fill="#000000" opacity="1.000000" stroke="none" 
	d="
M132.011871,232.221405 
	C126.940102,231.401321 123.928696,228.754257 124.072800,223.908966 
	C124.183594,220.183304 126.234207,217.369019 130.281403,216.600906 
	C134.979111,215.709335 138.528778,217.909882 139.667648,222.449738 
	C140.836914,227.110779 138.300140,230.527481 132.011871,232.221405 
z"/>
<path fill="#000000" opacity="1.000000" stroke="none" 
	d="
M148.385132,260.775085 
	C155.104156,260.815704 158.567093,263.808472 158.185745,268.834320 
	C157.825211,273.585571 153.541855,277.067596 148.879807,276.192322 
	C145.293320,275.518982 142.953171,273.341278 142.472366,269.603668 
	C141.909668,265.229645 143.802689,262.289642 148.385132,260.775085 
z"/>
<path fill="#000000" opacity="1.000000" stroke="none" 
	d="
M217.946838,174.788452 
	C211.394043,172.973526 208.639862,168.763733 210.513519,164.020111 
	C212.285995,159.532654 217.231064,157.611450 221.580139,159.689621 
	C224.870087,161.261703 226.112366,164.172363 225.802948,167.439529 
	C225.396774,171.728668 222.664566,174.208038 217.946838,174.788452 
z"/>
<path fill="#000000" opacity="1.000000" stroke="none" 
	d="
M259.015991,244.192108 
	C260.159821,248.575119 259.829956,252.331284 255.879883,254.546219 
	C252.782471,256.283051 249.455429,256.135925 246.624573,253.669983 
	C243.033463,250.541794 242.843719,245.398224 246.095245,242.201920 
	C249.934952,238.427460 254.668884,239.031891 259.015991,244.192108 
z"/>
<path fill="#000000" opacity="1.000000" stroke="none" 
	d="
M257.003204,216.393036 
	C262.719391,217.499420 265.306915,220.541122 264.766205,225.098816 
	C264.300812,229.021637 260.891541,232.173752 257.052155,232.231049 
	C253.121246,232.289688 249.391312,228.940933 248.897125,224.909439 
	C248.378967,220.682388 251.212723,217.553940 257.003204,216.393036 
z"/>
<path fill="#000000" opacity="1.000000" stroke="none" 
	d="
M132.152481,206.871155 
	C128.983688,203.747620 127.997574,200.410416 130.109802,196.759171 
	C131.821716,193.799911 134.666077,192.370865 138.083618,192.853088 
	C141.706421,193.364273 143.982849,195.557693 144.801636,199.213776 
	C145.497025,202.318848 144.350555,204.825897 142.097031,206.720657 
	C139.082184,209.255554 135.751984,209.110657 132.152481,206.871155 
z"/>
<path fill="#000000" opacity="1.000000" stroke="none" 
	d="
M218.831085,289.316162 
	C213.228699,288.858002 209.921494,285.841492 209.899887,281.571533 
	C209.880280,277.694794 212.970459,274.213989 216.856018,273.736115 
	C221.286545,273.191193 224.567978,275.510834 225.599411,279.916901 
	C226.662552,284.458435 224.526672,287.614014 218.831085,289.316162 
z"/>
<path fill="#000000" opacity="1.000000" stroke="none" 
	d="
M134.793091,255.281876 
	C129.233063,251.917145 127.745438,247.960129 130.125763,243.751083 
	C132.218826,240.050003 137.074448,238.673035 140.920151,240.826599 
	C144.364258,242.755234 145.803726,245.802200 144.691238,249.604965 
	C143.319061,254.295410 139.975449,256.159760 134.793091,255.281876 
z"/>
<path fill="#000000" opacity="1.000000" stroke="none" 
	d="
M230.780640,180.800629 
	C231.546875,174.999878 234.429153,171.907471 238.657578,171.900055 
	C242.714691,171.892944 245.974548,174.843384 246.333893,178.847809 
	C246.748093,183.463120 244.538483,186.733505 240.300964,187.777084 
	C236.148697,188.799667 233.034058,186.641571 230.780640,180.800629 
z"/>
<path fill="#000000" opacity="1.000000" stroke="none" 
	d="
M164.263092,162.448776 
	C167.486588,158.727692 171.046936,157.698257 175.081665,160.039413 
	C178.322067,161.919662 179.303879,164.982330 178.505890,168.555923 
	C177.636322,172.449982 175.002975,174.468979 171.120651,174.684769 
	C165.214081,175.013062 161.782257,169.158325 164.263092,162.448776 
z"/>
<path fill="#000000" opacity="1.000000" stroke="none" 
	d="
M199.373383,155.507843 
	C203.197464,159.298676 203.305817,163.123276 200.343369,166.947983 
	C197.967056,170.015945 194.502045,170.318771 191.285873,168.962296 
	C187.464310,167.350494 186.094666,163.915558 186.812607,159.877655 
	C187.739243,154.666092 193.199539,152.660080 199.373383,155.507843 
z"/>
<path fill="#000000" opacity="1.000000" stroke="none" 
	d="
M248.859924,193.399643 
	C253.005920,192.064362 256.338104,192.902710 258.445038,196.224625 
	C260.234009,199.045166 260.218658,202.297455 258.323578,205.212021 
	C256.492828,208.027679 253.713654,208.899796 250.482651,208.411209 
	C246.880737,207.866531 244.881592,205.427277 244.111908,202.170456 
	C243.185837,198.251953 245.054718,195.429291 248.859924,193.399643 
z"/>
<path fill="#000000" opacity="1.000000" stroke="none" 
	d="
M242.222351,261.308899 
	C246.699966,263.772644 247.089828,267.514221 245.945526,271.368103 
	C244.966049,274.666901 242.271942,276.315704 238.735458,276.329987 
	C234.934097,276.345306 232.455872,274.291412 231.193085,270.956329 
	C228.920609,264.954590 234.630814,258.492706 242.222351,261.308899 
z"/>
<path fill="#000000" opacity="1.000000" stroke="none" 
	d="
M191.194702,293.905212 
	C186.239914,289.773224 185.232635,284.801788 188.521622,281.420502 
	C191.357986,278.504517 194.790146,277.744446 198.451202,279.739105 
	C201.992188,281.668365 203.009766,284.972504 202.067871,288.647095 
	C201.111435,292.378387 198.530258,294.531097 194.474640,294.432190 
	C193.492218,294.408203 192.514313,294.199249 191.194702,293.905212 
z"/>
<path fill="#000000" opacity="1.000000" stroke="none" 
	d="
M176.244064,287.458191 
	C170.950745,290.322418 167.098206,289.793396 164.502563,286.072754 
	C162.053345,282.562012 162.340652,279.066925 165.326920,276.129700 
	C168.448807,273.059113 172.133224,272.815369 175.775787,275.320404 
	C179.434402,277.836487 179.658005,282.192719 176.244064,287.458191 
z"/>
</svg>