<svg version="1.1" id="Layer_1" xmlns="http://www.w3.org/2000/svg" xmlns:xlink="http://www.w3.org/1999/xlink" x="0px" y="0px"
	 width="100%" viewBox="0 0 512 512" enable-background="new 0 0 512 512" xml:space="preserve">
<path fill="#000000" opacity="1.000000" stroke="none" 
	d="
M314.410675,187.259964 
	C309.431641,212.910233 300.540863,236.991028 292.872772,261.418823 
	C284.783844,287.187195 278.105560,313.240540 275.471222,340.194427 
	C272.115173,374.533020 274.890350,407.996979 289.864319,439.694183 
	C290.716705,441.498505 291.247192,443.464020 292.184174,445.217285 
	C294.081360,448.767181 293.373962,451.470093 290.089813,453.764526 
	C287.797974,455.365662 285.698425,457.242096 282.726898,459.626312 
	C279.483643,452.859589 276.299225,446.720856 273.551392,440.392548 
	C263.261597,416.695160 257.030701,391.881927 254.901123,366.193481 
	C252.873505,341.734863 254.744675,317.419556 259.053131,293.211945 
	C264.448944,262.894989 275.152100,234.235260 285.001831,205.258453 
	C296.612488,171.100967 305.497620,136.226654 304.467346,99.827141 
	C303.805664,76.448730 295.789703,55.821125 275.810883,41.523937 
	C263.922638,33.016533 250.358688,30.205994 236.098984,30.573904 
	C225.420212,30.849422 214.960052,32.549427 205.054825,37.112892 
	C188.382797,44.793919 180.311737,59.175758 174.492447,75.399254 
	C172.129532,81.986809 170.582275,88.808495 169.333740,95.688583 
	C168.292709,101.425148 163.772736,99.077385 160.547333,99.413467 
	C157.096176,99.773102 156.468094,97.420738 156.694427,94.550102 
	C159.376450,60.534172 171.252625,31.763714 202.746536,14.336216 
	C213.177719,8.564008 224.590012,6.690371 236.408508,6.483416 
	C250.282104,6.240473 263.635345,8.364761 276.032043,14.804437 
	C293.533722,23.895948 305.100281,38.366108 312.415833,56.357765 
	C318.626099,71.631119 320.835449,87.692558 321.475342,104.110321 
	C322.562408,132.001434 320.500061,159.576584 314.410675,187.259964 
z"/>
</svg>