<svg version="1.1" id="Layer_1" xmlns="http://www.w3.org/2000/svg" xmlns:xlink="http://www.w3.org/1999/xlink" x="0px" y="0px"
	 width="100%" viewBox="0 0 512 512" enable-background="new 0 0 512 512" xml:space="preserve">
<path fill="#000000" opacity="1.000000" stroke="none" 
	d="
M357.057037,308.458496 
	C340.001434,311.684143 332.637268,302.334808 328.769104,287.724365 
	C325.798126,276.502686 326.405823,264.937805 325.751587,253.519913 
	C324.999725,240.397690 326.072876,227.230667 324.994812,214.072678 
	C323.455933,195.290421 312.218353,182.701447 293.646881,179.205627 
	C276.837402,176.041489 260.229004,175.984802 243.850128,181.367844 
	C227.270340,186.816879 216.110107,202.298187 216.250366,219.055511 
	C216.277191,222.258957 217.339813,223.419083 220.475433,223.755188 
	C238.220367,225.657211 255.850449,228.418716 271.937775,236.642273 
	C291.909119,246.851242 301.083832,260.511108 299.240784,283.119263 
	C298.241364,295.379425 286.876068,305.948395 272.492828,308.238678 
	C237.961884,313.737152 205.324173,287.108978 203.800354,252.278900 
	C203.708618,250.181793 204.818008,247.241486 201.572525,246.368607 
	C197.713821,245.330765 193.725143,244.466507 189.856628,246.135895 
	C188.279205,246.816605 188.558517,248.673187 188.576431,250.175827 
	C188.834534,271.830933 188.280273,293.536407 189.620087,315.124298 
	C190.584702,330.666412 200.422089,348.578125 221.164673,352.123169 
	C236.828033,354.800140 251.622711,352.936127 264.799652,343.286072 
	C270.875153,338.836731 274.229828,332.685974 275.840668,325.433289 
	C276.437683,322.745239 277.105591,320.188110 281.095520,321.571228 
	C284.480286,322.744598 287.089935,323.453217 286.136322,328.288696 
	C284.287781,337.662384 282.044189,346.808380 276.776031,354.909363 
	C269.410492,366.235565 258.952057,373.151825 245.800262,375.944305 
	C213.090530,382.889496 188.889587,367.457153 180.570129,335.998383 
	C177.240326,323.407227 176.533188,310.763611 176.637573,297.907288 
	C176.763382,282.410553 176.572968,266.911194 176.710922,251.414673 
	C176.746124,247.458893 175.425781,246.089218 171.413483,246.458969 
	C161.921799,247.333710 161.972870,247.202866 161.071457,256.663269 
	C160.033875,267.552582 159.936432,278.524994 156.309433,289.110229 
	C151.044281,304.476410 139.832153,311.648834 124.371552,308.286591 
	C115.328896,306.320068 110.331970,299.562866 107.752251,291.258148 
	C101.615501,271.502441 109.472427,250.052689 127.297089,236.620605 
	C132.392303,232.781021 137.870758,229.590561 143.886307,227.544571 
	C147.705475,226.245636 148.955139,224.009415 148.926498,220.116867 
	C148.857773,210.779709 148.898056,201.449142 146.575439,192.326187 
	C143.829117,181.538849 137.025711,176.435394 126.810829,177.316391 
	C119.490990,177.947708 114.968903,181.816788 112.480507,189.249054 
	C110.546242,195.026230 110.037178,200.972168 110.082092,206.977020 
	C110.118187,211.800903 107.577362,213.324036 103.176636,213.398895 
	C98.550079,213.477585 97.558853,210.941833 97.724602,207.015228 
	C98.244576,194.697311 98.712425,182.367798 103.844070,170.851273 
	C110.481583,155.955292 122.463860,150.033798 138.354004,153.676315 
	C146.897644,155.634811 151.360229,161.966919 154.629883,169.308945 
	C158.189850,177.302841 159.403061,185.936432 160.194214,194.542343 
	C160.908844,202.315903 161.092957,210.154861 161.130951,217.966827 
	C161.149414,221.764450 162.572327,223.147079 166.182617,222.677917 
	C167.005066,222.571030 167.851212,222.655502 168.677536,222.567932 
	C176.460526,221.743042 176.649185,221.531677 176.670212,213.807571 
	C176.677933,210.974670 176.846359,208.129532 176.642609,205.311600 
	C176.316757,200.804901 179.045135,199.990494 182.603424,200.005203 
	C186.123550,200.019745 188.826050,200.737442 188.619949,205.287842 
	C188.447220,209.101562 188.911499,212.940002 188.960464,216.769211 
	C188.996902,219.619766 190.160995,220.833817 193.135483,221.086746 
	C203.653336,221.981110 203.326614,222.063354 203.953079,211.677475 
	C205.620117,184.040527 219.637436,162.307053 249.444275,155.448990 
	C269.341614,150.870941 288.688141,151.674484 307.235748,160.849792 
	C322.829590,168.563904 331.194092,181.705109 335.351715,198.190140 
	C337.713745,207.555710 337.438385,216.993912 337.379425,226.454559 
	C337.279816,242.436401 337.405670,258.396179 339.280853,274.302704 
	C339.623810,277.211670 340.515594,279.848663 341.908966,282.292938 
	C344.087158,286.114044 347.704987,287.690552 351.966309,287.667267 
	C356.230255,287.643982 358.523102,284.952759 359.990021,281.271667 
	C362.122803,275.919403 362.728302,270.320038 362.732056,264.630432 
	C362.754578,230.301987 362.834808,195.973160 362.674103,161.645508 
	C362.651947,156.911377 363.888733,155.331116 368.843231,155.409805 
	C377.462524,155.546753 385.757568,156.005951 393.116913,161.256638 
	C403.202698,168.452576 407.027222,179.018661 408.176514,190.518265 
	C411.845734,227.231857 409.596344,264.083557 410.208008,300.872162 
	C410.291443,305.891296 407.529846,306.384613 403.500061,306.454651 
	C399.255035,306.528381 397.594360,305.184692 397.616180,300.736145 
	C397.756042,272.240906 397.708923,243.744568 397.653534,215.248718 
	C397.637909,207.205109 396.354492,199.315323 393.557648,191.766541 
	C391.578613,186.425217 388.223083,182.223160 382.497650,180.334290 
	C376.369019,178.312439 375.081573,179.135681 375.078552,185.561813 
	C375.065033,214.390961 375.269470,243.222046 374.979279,272.048248 
	C374.873657,282.537384 373.718170,293.026581 367.164215,301.991852 
	C364.700073,305.362549 361.722443,307.797791 357.057037,308.458496 
M237.204895,287.277527 
	C249.922699,293.875275 263.158722,296.522552 277.090088,291.820160 
	C283.658630,289.603027 285.594086,285.299561 284.234894,278.490082 
	C282.516907,269.883392 276.735291,264.535492 269.605804,260.554016 
	C254.509567,252.123413 237.780838,249.418045 220.915329,247.324081 
	C217.051682,246.844391 216.169479,248.611862 216.173187,252.198669 
	C216.189377,267.824829 223.517456,279.019287 237.204895,287.277527 
M137.618164,292.446716 
	C143.013901,288.718201 145.594193,283.324066 146.979645,277.100739 
	C148.968658,268.166229 149.341293,259.221558 148.360092,249.874542 
	C142.062592,250.997589 136.981720,253.325836 132.196625,256.370148 
	C121.813972,262.975647 117.516701,272.029907 119.574379,282.882202 
	C121.504677,293.062653 126.936089,296.160858 137.618164,292.446716 
z"/>
</svg>