<svg version="1.1" id="Layer_1" xmlns="http://www.w3.org/2000/svg" xmlns:xlink="http://www.w3.org/1999/xlink" x="0px" y="0px"
	 width="100%" viewBox="0 0 512 512" enable-background="new 0 0 512 512" xml:space="preserve">
<path fill="#000000" opacity="1.000000" stroke="none" 
	d="
M235.572708,293.442932 
	C224.246155,282.286743 220.314926,268.394104 218.664688,253.520752 
	C217.522141,243.223160 217.866730,232.892685 217.788925,222.569138 
	C217.601868,197.748825 206.856171,184.028793 182.441772,179.149780 
	C163.277145,175.319885 144.052902,175.509750 125.374176,182.418533 
	C109.699875,188.216049 103.292709,203.430695 104.201759,219.531097 
	C104.383209,222.744736 106.566078,222.494675 108.769722,222.719009 
	C124.371910,224.307327 139.770538,226.826416 154.309158,233.096634 
	C168.597702,239.258987 180.187302,248.202286 185.403885,263.586029 
	C187.861679,270.834045 188.370132,278.417511 186.739426,285.762970 
	C183.468567,300.496552 172.133881,306.042206 158.708023,308.243561 
	C125.183273,313.740387 94.434731,288.053528 91.879044,252.732086 
	C91.724831,250.600830 92.939743,247.364182 89.908783,246.677963 
	C86.026405,245.798981 81.852119,245.992783 78.253426,248.018265 
	C76.700279,248.892456 77.330040,251.100449 77.382706,252.715073 
	C77.742699,263.751770 76.910736,274.699707 74.143776,285.381958 
	C71.931183,293.923920 68.243233,301.854858 59.991272,306.286530 
	C43.104191,315.355530 24.107920,303.997070 22.662279,284.286957 
	C20.635550,256.654114 34.034721,238.675354 60.214268,227.742813 
	C64.190430,226.082367 65.853218,224.287460 65.782074,219.838913 
	C65.638046,210.832962 65.479218,201.860718 63.398750,193.062866 
	C60.689480,181.605942 54.058167,176.505783 43.316765,177.105011 
	C36.969475,177.459106 32.693726,180.580414 30.172213,186.251480 
	C27.276617,192.763855 26.769672,199.762390 26.383226,206.733795 
	C26.064188,212.489090 24.826948,213.552979 18.628172,213.363708 
	C12.941762,213.190094 14.099221,209.369431 14.251385,205.901337 
	C14.755144,194.419678 15.506200,182.993286 19.607809,172.072220 
	C25.433725,156.559952 40.393501,148.945175 55.779099,153.783234 
	C66.042381,157.010574 70.521408,165.249191 73.217369,174.683029 
	C77.096222,188.256134 77.610397,202.221939 77.373184,216.247009 
	C77.257866,223.064774 77.373314,223.071854 84.002785,222.192505 
	C91.200607,221.237762 91.174606,221.235077 91.935822,213.867889 
	C92.927002,204.275238 93.724838,194.676331 98.068413,185.766708 
	C105.814537,169.877747 118.537041,160.044525 135.346970,155.766708 
	C157.147507,150.218918 178.593399,151.031921 198.935608,161.780350 
	C216.011719,170.803009 224.802292,185.745987 228.263809,204.145172 
	C230.769180,217.462189 229.986435,231.011978 230.288681,244.476807 
	C230.807556,267.593781 243.265045,281.013794 266.418213,283.825653 
	C277.917145,285.222137 289.287598,285.243744 300.660004,282.840973 
	C316.579010,279.477600 326.461639,268.683929 328.728394,252.420624 
	C330.418488,240.294769 329.247986,228.130432 329.712494,215.993622 
	C330.158752,204.333481 331.361420,192.792786 334.658600,181.525070 
	C340.075073,163.014999 353.121796,153.005936 372.496613,152.670792 
	C379.164581,152.555466 385.774261,152.684021 392.327789,154.340027 
	C404.628937,157.448380 412.799683,165.022354 417.244385,176.739502 
	C421.359131,187.586899 423.008453,198.934540 423.293182,210.450790 
	C423.787292,230.433441 422.783691,250.440445 424.274475,270.412292 
	C424.548920,274.088867 425.030518,277.696381 426.318481,281.138397 
	C428.041107,285.742065 431.408295,287.840393 436.381958,287.700623 
	C441.043488,287.569672 442.580963,284.334381 443.730072,280.743011 
	C444.948730,276.934387 445.705505,273.010376 445.716034,268.978638 
	C445.806976,234.149277 445.906799,199.319946 445.985840,164.490555 
	C446.008148,154.655945 445.980316,154.660889 455.646118,155.508987 
	C458.459442,155.755829 461.348572,155.638657 464.079254,156.245209 
	C480.468109,159.885513 489.019348,170.208282 491.320740,188.895721 
	C492.500916,198.478806 493.252838,208.094315 493.256989,217.756485 
	C493.268738,245.254410 493.168182,272.753052 493.363220,300.249603 
	C493.397400,305.070801 491.871613,306.517242 487.091125,306.521912 
	C482.216187,306.526703 480.844208,304.850708 480.858307,300.134186 
	C480.947968,270.137848 480.847717,240.140427 480.663879,210.144241 
	C480.620758,203.107269 479.182709,196.243256 476.213959,189.803131 
	C473.672729,184.290390 469.333679,181.006241 463.390900,179.667557 
	C459.697723,178.835602 458.189514,179.953918 458.227966,183.862259 
	C458.352539,196.526703 458.363586,209.194153 458.238922,221.858688 
	C458.057007,240.340973 459.019104,258.844482 457.307037,277.300446 
	C456.675873,284.104126 455.597382,290.839752 453.266235,297.281769 
	C450.777893,304.158356 445.746918,308.409546 438.509888,309.096008 
	C431.122711,309.796692 424.160309,308.311981 419.363373,301.801117 
	C414.632507,295.380005 413.346130,287.887268 412.652740,280.171417 
	C410.754272,259.046112 412.091583,237.876801 411.672760,216.732330 
	C411.550476,210.557816 410.953339,204.443680 409.763763,198.390366 
	C407.274445,185.723465 401.872070,179.951111 389.273499,177.850861 
	C380.899780,176.454910 372.367828,176.308121 363.947174,178.188126 
	C353.234283,180.579910 346.887726,187.329086 344.300873,197.831192 
	C342.016296,207.105988 341.688507,216.589813 341.357117,226.068680 
	C340.910248,238.850769 342.193939,251.650299 339.541138,264.405212 
	C334.546387,288.420410 320.300354,303.080536 296.359650,307.743286 
	C277.661194,311.385010 259.529541,309.498352 242.950821,299.162354 
	C240.423386,297.586639 238.199951,295.523346 235.572708,293.442932 
M159.721909,261.748657 
	C144.199326,252.419937 126.838829,249.535934 109.277809,247.325958 
	C105.338043,246.830154 104.063225,248.367630 104.132141,252.354782 
	C104.280937,260.964447 106.558319,268.721252 111.618240,275.716095 
	C122.003670,290.072998 146.875198,298.118500 163.675812,292.471252 
	C171.825485,289.731873 174.392288,284.485016 171.893127,276.105652 
	C170.002304,269.766022 165.279556,265.889313 159.721909,261.748657 
M60.724430,285.123566 
	C65.851952,273.767120 66.039215,261.877563 65.361061,249.381393 
	C57.713474,251.001678 51.553276,253.748962 46.069008,257.936371 
	C36.878723,264.953461 34.015339,274.299072 36.423119,285.377716 
	C37.995918,292.614410 43.434261,295.696777 50.637375,293.832825 
	C55.187252,292.655396 57.995159,289.509399 60.724430,285.123566 
z"/>
</svg>