<svg version="1.1" id="Layer_1" xmlns="http://www.w3.org/2000/svg" xmlns:xlink="http://www.w3.org/1999/xlink" x="0px" y="0px"
	 width="100%" viewBox="0 0 512 512" enable-background="new 0 0 512 512" xml:space="preserve">
<path fill="#000000" opacity="1.000000" stroke="none" 
	d="
M282.533722,333.289490 
	C280.821655,341.063385 278.273987,348.062012 274.323151,354.525848 
	C265.493500,368.971832 251.871307,375.448486 235.710983,377.040863 
	C204.962234,380.070831 184.276398,364.402924 177.431030,334.121735 
	C175.433975,325.287537 174.396957,316.447968 173.774826,307.497009 
	C173.632050,305.443085 172.926453,304.070984 171.102646,303.111847 
	C152.034134,293.083282 145.718384,275.774414 144.945786,255.811340 
	C144.340393,240.168457 144.862488,224.484955 144.623749,208.823471 
	C144.519974,202.016052 143.825790,195.201935 141.806534,188.631104 
	C139.131134,179.925110 135.193802,176.999069 126.724815,177.263657 
	C119.575745,177.487015 115.277061,181.564163 113.155449,189.534576 
	C111.635628,195.244186 111.495918,201.038513 111.187981,206.856049 
	C110.906616,212.171494 109.264740,213.388535 103.971443,213.362808 
	C99.126244,213.339249 98.602615,210.310364 98.845940,206.661362 
	C99.707100,193.747589 99.547386,180.641327 105.519318,168.630020 
	C109.583313,160.456100 115.503319,154.685440 124.959503,153.106705 
	C136.249039,151.221863 144.468491,155.384857 149.314423,165.855667 
	C154.159912,176.325516 155.090103,187.578766 156.165115,198.860825 
	C157.860840,216.657288 156.250656,234.498444 157.289703,252.301559 
	C157.906342,262.866882 164.758163,274.196381 172.935852,277.077148 
	C174.395096,275.542389 173.715652,273.613617 173.719193,271.882660 
	C173.762802,250.551605 173.731628,229.220413 173.737656,207.889267 
	C173.739502,201.289734 177.973602,198.394669 184.029190,200.839203 
	C186.697037,201.916183 186.174347,204.347168 186.177734,206.427094 
	C186.214355,228.924744 186.201019,251.422440 186.204773,273.920135 
	C186.206482,284.122375 186.543655,284.438568 196.841995,284.665649 
	C210.181473,284.959808 223.502289,285.085602 236.374176,280.730469 
	C247.459198,276.979950 256.735931,271.305664 258.896271,258.558533 
	C260.256653,250.531769 256.936005,245.077179 249.288010,242.134766 
	C243.318008,239.837921 236.988586,239.246078 230.747635,238.325134 
	C205.528549,234.603714 197.755249,218.814392 200.089401,196.021271 
	C201.512131,182.128448 209.440002,172.034164 220.726089,164.516129 
	C231.347214,157.441010 243.305847,154.036926 255.961517,153.124756 
	C276.733734,151.627563 296.624939,154.260910 313.825287,167.171890 
	C325.386475,175.849976 331.683014,187.823593 334.441986,201.961777 
	C338.027008,220.333054 335.654358,238.846085 336.257721,257.282806 
	C336.476593,263.969604 336.898193,270.597137 338.391144,277.096161 
	C339.465790,281.774414 341.426147,285.847931 346.910919,287.065552 
	C352.621399,288.333221 356.312500,286.873199 358.608215,281.491821 
	C360.992249,275.903381 361.644714,269.928131 361.650452,263.908997 
	C361.682861,229.912476 361.661652,195.915909 361.669525,161.919373 
	C361.671051,155.325287 362.042816,154.982559 368.734558,154.991730 
	C388.451324,155.018768 399.405792,163.113968 404.998016,181.959564 
	C407.093292,189.020508 407.847626,196.379913 407.920746,203.655670 
	C408.245575,235.980453 408.133667,268.309479 408.395081,300.635193 
	C408.434784,305.541840 406.282623,306.362427 402.049896,306.490509 
	C397.338226,306.633118 395.979309,304.752045 395.996704,300.344116 
	C396.103210,273.347290 396.073334,246.349777 396.022095,219.352615 
	C396.005005,210.340866 395.496246,201.346237 392.467651,192.750641 
	C390.119690,186.086853 385.844360,181.221191 378.631500,179.611771 
	C375.496857,178.912338 373.573181,179.543701 373.578644,183.500702 
	C373.619781,213.325821 373.566315,243.151398 373.424530,272.976257 
	C373.379120,282.526550 372.523315,291.994202 366.964569,300.247131 
	C358.098328,313.410553 338.576874,311.986176 331.218506,297.977386 
	C325.900482,287.853058 325.711456,276.875549 324.812592,266.003204 
	C323.548767,250.716675 323.720367,235.369232 324.073669,220.058426 
	C324.602966,197.117126 311.449249,183.820297 290.566925,179.558960 
	C273.402985,176.056427 256.129944,175.908112 239.016022,179.467377 
	C228.294220,181.697250 218.598709,186.067154 215.145187,198.038315 
	C213.297791,204.442032 215.496445,209.548874 221.529587,212.504379 
	C228.067093,215.706955 235.306366,216.206558 242.288330,217.643509 
	C251.251328,219.488159 259.663330,222.296249 265.936829,229.448441 
	C273.171814,237.696808 274.080872,247.723663 273.828583,258.025269 
	C273.166626,285.052917 250.823532,301.152710 229.782852,306.322296 
	C217.522629,309.334564 205.153656,310.026123 192.621078,308.463623 
	C186.438721,307.692810 185.567108,308.807495 186.746048,314.967255 
	C189.372543,328.690277 194.794632,340.692535 207.382629,348.191437 
	C217.616074,354.287659 228.871475,353.571442 239.967941,352.282257 
	C248.300232,351.314240 255.971252,348.218719 262.670166,342.740143 
	C267.962158,338.412140 271.222046,333.129028 272.812195,326.603973 
	C273.465729,323.922302 273.669983,320.699127 277.978851,321.514648 
	C281.921478,322.260803 284.561066,323.781982 283.357452,328.464905 
	C282.987335,329.904907 282.867828,331.409302 282.533722,333.289490 
z"/>
</svg>