<svg version="1.1" id="Layer_1" xmlns="http://www.w3.org/2000/svg" xmlns:xlink="http://www.w3.org/1999/xlink" x="0px" y="0px"
	 width="100%" viewBox="0 0 512 512" enable-background="new 0 0 512 512" xml:space="preserve">
<path fill="#000000" opacity="1.000000" stroke="none" 
	d="
M211.347778,214.999512 
	C211.724258,227.468445 210.479156,239.476410 212.327393,251.411926 
	C214.171814,263.322723 218.660629,273.488007 230.193008,279.118866 
	C232.109680,280.054688 234.005692,281.185791 236.403748,280.764038 
	C237.850006,277.974274 237.550690,274.942780 237.554977,271.986328 
	C237.586853,249.992874 237.550049,227.999283 237.621506,206.005997 
	C237.628067,203.982590 236.601700,201.098831 239.076660,200.182404 
	C242.002960,199.098862 245.464951,198.979462 248.367096,200.239029 
	C250.659241,201.233856 249.937607,204.058990 249.942825,206.128494 
	C250.000839,229.121490 249.993515,252.114655 249.978424,275.107788 
	C249.971954,284.955414 249.957214,285.157959 259.801239,284.563416 
	C266.419189,284.163727 273.044952,283.602478 279.519897,281.790009 
	C294.661682,277.551514 302.279938,267.107849 304.665863,252.115112 
	C305.559570,246.499481 305.682770,240.860657 305.672424,235.191772 
	C305.627075,210.365860 305.772583,185.538757 305.552124,160.714722 
	C305.508972,155.855820 307.005371,154.291718 311.795807,154.547180 
	C316.791595,154.813568 321.779053,154.848969 326.651031,156.108002 
	C340.883362,159.785980 347.345703,170.148422 350.331146,183.569046 
	C352.256439,192.223923 352.934418,201.054993 353.028168,209.824753 
	C353.352234,240.145721 353.213379,270.471802 353.195435,300.795898 
	C353.194305,302.669434 353.921600,305.345306 351.396912,305.953064 
	C348.210175,306.720184 344.668640,307.167450 341.663452,305.529694 
	C339.949646,304.595734 340.693726,302.162994 340.691406,300.388580 
	C340.654785,272.563507 340.715454,244.738220 340.624451,216.913391 
	C340.599365,209.243835 339.710297,201.615585 337.432343,194.260361 
	C335.437744,187.820129 332.011292,182.452026 325.133240,180.176239 
	C319.431030,178.289520 318.267212,179.056290 318.256592,185.010300 
	C318.224121,203.171539 318.322784,221.333435 318.203308,239.493958 
	C318.120880,252.017212 317.020111,264.425079 312.379639,276.240906 
	C304.977051,295.089691 290.610931,304.998505 271.120911,308.318207 
	C265.846222,309.216614 260.521545,309.659668 255.204559,309.239197 
	C251.040405,308.909851 249.935776,310.613831 250.374329,314.465118 
	C253.257751,339.786346 273.993744,355.947021 299.226257,352.374634 
	C304.489227,351.629486 309.791077,350.968994 314.805511,349.029144 
	C326.277740,344.591064 334.219757,336.976776 336.721191,324.528961 
	C337.229431,321.999878 338.045746,319.668488 341.184143,320.890533 
	C343.630280,321.843018 348.209656,320.798492 347.678375,325.327332 
	C344.782684,350.011597 333.462524,370.713348 306.581299,376.091339 
	C271.649658,383.079895 246.517548,365.540070 239.715302,330.265656 
	C238.518280,324.058258 237.306122,317.832886 237.655960,311.465881 
	C237.834763,308.211334 236.716339,306.362732 233.473816,305.127960 
	C213.889633,297.670166 204.291977,282.338043 200.762665,262.542480 
	C198.117081,247.703659 198.879547,232.677551 198.817917,217.705780 
	C198.778198,208.054565 199.001007,198.377029 196.675339,188.906647 
	C194.530014,180.170792 190.249130,176.819550 181.929550,177.151398 
	C174.549271,177.445786 169.915192,181.887329 168.340973,190.010178 
	C167.256882,195.604034 167.471405,201.287476 166.964142,206.917862 
	C166.445801,212.671494 161.626160,215.311005 156.290787,212.967819 
	C154.191757,212.045990 153.953613,210.264450 154.069351,208.393585 
	C154.776642,196.958206 154.584839,185.382004 158.057968,174.308487 
	C161.482498,163.389908 166.542664,154.026062 179.686493,152.324387 
	C191.009430,150.858414 200.558289,155.784119 205.157501,166.322739 
	C209.701965,176.735886 210.486786,187.883499 211.160400,199.008621 
	C211.472122,204.157120 211.299698,209.334946 211.347778,214.999512 
z"/>
</svg>