<svg version="1.1" id="Layer_1" xmlns="http://www.w3.org/2000/svg" xmlns:xlink="http://www.w3.org/1999/xlink" x="0px" y="0px"
	 width="100%" viewBox="0 0 512 512" enable-background="new 0 0 512 512" xml:space="preserve">
<path fill="#000000" opacity="1.000000" stroke="none" 
	d="
M338.651062,216.209885 
	C338.133789,208.076767 337.285980,200.491409 333.980927,193.413071 
	C327.807098,180.190765 313.770599,173.738663 301.154877,178.633713 
	C304.377228,182.461807 307.835571,185.991287 310.617676,189.991089 
	C317.221985,199.485977 319.059418,210.522430 319.725922,221.737000 
	C320.815704,240.073425 321.082825,258.413147 314.433929,275.973450 
	C307.184631,295.119324 292.591888,305.038696 272.882416,308.356934 
	C267.589142,309.248077 262.268951,309.596619 256.959167,309.221313 
	C252.486465,308.905182 251.971191,311.162628 252.392517,314.697632 
	C255.388779,339.836578 275.786682,355.733215 300.968506,352.406830 
	C308.729584,351.381622 316.467194,350.181183 323.348328,345.962494 
	C331.418671,341.014771 336.847260,334.185822 338.673309,324.775330 
	C339.205811,322.031097 340.006927,319.607452 343.416779,320.909576 
	C346.083374,321.927917 350.279236,320.882904 349.628052,326.571259 
	C346.542480,353.524750 330.483093,372.671265 307.336334,376.347534 
	C272.332031,381.907074 248.708176,365.404846 241.747208,330.470428 
	C240.479675,324.109192 239.253738,317.715302 239.643066,311.174866 
	C239.826035,308.101135 238.713318,306.345612 235.681473,305.202301 
	C215.857025,297.726471 206.156296,282.271423 202.733093,262.257050 
	C199.512268,243.425903 201.244965,224.367844 200.688400,205.413803 
	C200.516754,199.568909 199.836349,193.779388 198.483078,188.115707 
	C196.723572,180.751862 192.517746,177.339279 185.595932,177.123535 
	C177.785370,176.880096 173.624374,179.859863 171.137802,187.441956 
	C169.024094,193.887085 169.461990,200.609985 168.941101,207.229401 
	C168.668915,210.688461 167.664413,213.235611 163.382919,213.378036 
	C156.986038,213.590805 155.705490,212.411407 156.169327,206.000641 
	C156.900482,195.895416 156.876892,185.721283 159.609695,175.828079 
	C160.773178,171.616058 162.393784,167.658127 164.506165,163.850647 
	C169.332672,155.151093 177.063095,151.670914 186.562729,152.056763 
	C196.699539,152.468460 203.655228,157.687408 207.501038,167.163864 
	C211.708145,177.530563 212.780212,188.466064 213.118622,199.427780 
	C213.550385,213.413788 213.233368,227.421432 213.381226,241.418243 
	C213.457199,248.608780 214.618118,255.666016 217.154205,262.429169 
	C220.871155,272.341492 227.969269,278.433960 238.000397,281.247803 
	C240.144272,278.712799 239.553802,276.111511 239.558731,273.689453 
	C239.604752,251.025940 239.719070,228.360916 239.481339,205.699799 
	C239.429596,200.767151 241.108810,199.572098 245.784897,199.508591 
	C250.754715,199.441086 252.044266,201.297180 252.013992,205.920639 
	C251.859085,229.583084 251.933487,253.247055 251.942963,276.910492 
	C251.945999,284.493713 252.154663,284.800964 259.875732,284.612000 
	C266.694733,284.445129 273.494476,283.818451 280.145630,282.175049 
	C293.653870,278.837402 302.710968,270.639526 305.599701,256.926941 
	C309.560028,238.127609 308.805542,219.547028 300.695435,201.728775 
	C294.571381,188.273849 284.121613,180.849243 269.418884,179.376709 
	C268.450256,179.279724 267.496399,179.035507 265.616486,178.691650 
	C270.594055,167.837143 277.176147,158.861023 288.248016,155.052399 
	C311.934692,146.904388 338.759827,154.163834 347.230469,186.526062 
	C349.852722,196.544388 351.218323,206.761200 351.248077,217.109863 
	C351.327576,244.772552 351.305084,272.435638 351.245697,300.098419 
	C351.241364,302.113129 352.248322,304.982635 349.655487,305.865845 
	C346.519287,306.934204 342.916473,307.056000 339.869385,305.709442 
	C337.858734,304.820892 338.716766,302.096375 338.713226,300.171967 
	C338.661743,272.343018 338.663544,244.513931 338.651062,216.209885 
z"/>
</svg>