<svg version="1.1" id="Layer_1" xmlns="http://www.w3.org/2000/svg" xmlns:xlink="http://www.w3.org/1999/xlink" x="0px" y="0px"
	 width="100%" viewBox="0 0 512 512" enable-background="new 0 0 512 512" xml:space="preserve">
<path fill="#000000" opacity="1.000000" stroke="none" 
	d="
M205.252243,225.917969 
	C205.988541,213.877426 206.066254,202.220901 202.654205,190.892792 
	C200.510605,183.775970 196.538361,178.193802 188.444839,177.306366 
	C176.828491,176.032654 170.076340,181.594086 168.375534,193.754501 
	C167.753952,198.198654 167.548279,202.699341 167.041290,207.161560 
	C166.417603,212.650909 164.689713,213.731506 158.527420,213.339874 
	C153.355377,213.011185 154.065811,209.563416 154.246857,206.150665 
	C154.766754,196.351151 155.239563,186.569580 157.788437,176.998886 
	C161.766891,162.060272 169.724884,154.411057 183.752350,152.391312 
	C196.893814,150.499146 207.210526,156.574142 212.123764,169.226791 
	C215.281784,177.359314 216.569839,185.920013 217.265244,194.545425 
	C218.041138,204.169205 218.676086,213.821548 218.224625,223.482132 
	C218.063461,226.930832 219.344666,228.678360 222.631317,229.535416 
	C228.836517,231.153564 233.726913,235.309357 239.896667,239.317337 
	C239.896667,231.087006 239.891556,223.677200 239.898727,216.267395 
	C239.902603,212.267700 240.017990,208.265869 239.921417,204.268890 
	C239.781799,198.490005 243.973282,199.908646 247.264877,199.650055 
	C250.699936,199.380203 252.452530,200.335327 252.404922,204.302689 
	C252.230896,218.799820 252.415863,233.301010 252.304459,247.799423 
	C252.279953,250.987076 253.027328,253.537003 255.231857,255.928772 
	C261.894409,263.157166 267.005096,271.676117 274.023621,278.630310 
	C282.806030,287.332214 293.333801,286.097839 299.883331,275.529083 
	C304.942780,267.364838 305.419800,258.074219 305.532562,248.997940 
	C305.894806,219.836853 305.719696,190.669113 305.760223,161.503952 
	C305.769714,154.656723 305.785217,154.703217 312.690521,154.639236 
	C324.049774,154.534012 334.715057,156.410172 342.539154,165.662170 
	C349.677948,174.103760 351.545227,184.520538 352.247467,195.029495 
	C354.604889,230.309570 352.731812,265.649231 353.419739,300.954681 
	C353.522125,306.209381 350.949341,306.406097 346.996552,306.446045 
	C342.868439,306.487793 340.641815,305.845825 340.674255,300.786011 
	C340.861328,271.622375 340.815216,242.455856 340.611511,213.291962 
	C340.554504,205.126007 339.382385,197.045654 335.736176,189.522369 
	C333.339966,184.578079 329.674500,181.249741 324.325226,179.840622 
	C319.475159,178.563004 318.348938,179.374832 318.342529,184.437027 
	C318.315643,205.602707 318.418457,226.768936 318.297180,247.933960 
	C318.216888,261.949585 317.449707,275.940491 312.309174,289.204498 
	C304.196381,310.137543 281.559296,316.017883 264.193787,301.776733 
	C260.476685,298.728424 256.999329,295.387726 253.403366,292.174438 
	C251.774612,293.087036 252.411407,294.574524 252.383743,295.766602 
	C252.174576,304.777985 252.457535,313.764496 255.149261,322.462067 
	C261.881042,344.213867 278.714783,355.207428 301.286682,352.456512 
	C308.381622,351.591858 315.434937,350.406067 321.929596,346.998749 
	C331.350372,342.056213 337.567261,334.703369 339.601257,324.153748 
	C340.086121,321.638611 340.909302,319.668854 343.698364,320.774994 
	C346.342621,321.823700 351.091461,320.478851 350.440643,326.022614 
	C346.969330,355.591339 329.883453,376.407013 297.285187,377.486420 
	C266.031006,378.521332 249.000641,358.788483 242.709229,330.983337 
	C239.480530,316.713959 238.819153,302.110168 240.180405,287.759979 
	C241.691650,271.828644 232.298843,263.800323 221.290543,256.083130 
	C220.655472,255.637909 219.848587,255.437775 218.680649,254.932983 
	C217.860733,262.696106 217.183685,270.080048 216.268265,277.434326 
	C215.650681,282.395782 214.420471,287.224915 212.427887,291.860748 
	C206.976334,304.544006 197.219635,310.551056 184.013000,309.225708 
	C173.859482,308.206757 164.775574,299.338074 163.127350,286.728943 
	C160.991592,270.390228 163.388092,254.805481 175.106476,241.913651 
	C182.115036,234.203217 190.973801,229.966568 200.960968,227.774872 
	C202.414581,227.455872 203.976227,227.559601 205.252243,225.917969 
M176.370712,281.928741 
	C177.168518,286.867218 178.634720,291.501282 183.973068,293.219116 
	C188.832565,294.782837 193.186935,293.251343 196.749832,289.776306 
	C198.267227,288.296356 199.638245,286.515228 200.582886,284.624695 
	C205.242828,275.298523 205.777466,265.222656 205.617371,255.049225 
	C205.588409,253.208435 204.607315,252.542496 202.814758,252.320358 
	C192.521606,251.044876 180.113190,259.296753 177.309601,269.220734 
	C176.202621,273.139160 176.302261,277.085236 176.370712,281.928741 
z"/>
</svg>