<svg version="1.1" id="Layer_1" xmlns="http://www.w3.org/2000/svg" xmlns:xlink="http://www.w3.org/1999/xlink" x="0px" y="0px"
	 width="100%" viewBox="0 0 512 512" enable-background="new 0 0 512 512" xml:space="preserve">
<path fill="#000000" opacity="1.000000" stroke="none" 
	d="
M81.590225,304.530426 
	C69.666763,293.546326 69.361633,279.941071 72.162132,265.907715 
	C76.177307,245.787659 88.533836,233.307022 108.499710,228.656967 
	C112.614616,227.698608 114.178696,226.103271 114.190788,221.692612 
	C114.218712,211.518127 114.151207,201.395844 111.459641,191.509476 
	C109.018173,182.541779 103.315292,177.490326 95.678932,177.200348 
	C85.152588,176.800644 80.039955,180.518967 77.178802,190.787415 
	C75.695862,196.109604 75.361076,201.579742 75.133713,207.084015 
	C74.905746,212.602509 69.290649,215.482758 64.439507,212.835175 
	C63.036102,212.069260 62.716118,210.870102 62.741371,209.495575 
	C62.989616,195.984680 63.476913,182.460617 69.375778,169.952820 
	C75.571220,156.816147 85.858879,151.154541 99.530136,152.842255 
	C110.988991,154.256851 119.331619,163.248535 122.381638,176.750168 
	C125.821350,191.976898 126.178360,207.426651 126.228958,222.898224 
	C126.241539,226.745056 127.132645,228.745514 131.076508,230.189178 
	C145.259933,235.381134 154.749756,246.455338 164.028091,257.676147 
	C169.964569,264.855438 175.671951,272.207794 181.800766,279.249451 
	C189.734558,288.364868 204.448090,285.841980 209.703217,274.089264 
	C213.324890,265.989655 214.149826,257.326111 214.257553,248.713638 
	C214.620102,219.726303 214.561295,190.733719 214.665726,161.743134 
	C214.688950,155.293869 215.054657,154.964645 221.364044,155.071350 
	C235.030487,155.302490 247.250534,158.578964 254.344696,171.647675 
	C258.294006,178.922989 259.404694,187.058624 260.332214,195.185272 
	C262.133759,210.970398 261.005219,226.813736 261.360657,242.627060 
	C261.600098,253.277618 261.718689,263.902466 266.976196,273.727478 
	C274.194183,287.216278 293.115479,288.965393 302.563324,276.969757 
	C310.718384,266.615540 313.307007,254.221695 315.614380,241.802933 
	C319.421661,221.311401 320.682648,200.563538 320.794434,179.744446 
	C320.815063,175.902359 321.041870,172.109512 321.909821,168.182175 
	C325.550385,167.281540 329.125549,167.553635 333.061554,168.014282 
	C334.284210,176.869095 334.058136,185.666870 334.307220,194.437378 
	C334.879547,214.590302 336.725983,234.602661 341.622620,254.212662 
	C343.524445,261.829071 346.431793,269.119720 350.975342,275.615448 
	C360.622589,289.407623 380.853760,287.787323 388.344849,272.747162 
	C393.202301,262.994751 393.408813,252.421326 393.538910,242.002335 
	C393.873962,215.174698 393.777527,188.339005 393.540344,161.509293 
	C393.495575,156.443802 394.983429,154.657898 400.025543,154.977722 
	C408.169067,155.494278 416.381989,155.427155 423.846771,159.391037 
	C435.989105,165.838791 440.226349,177.162537 442.273651,189.737457 
	C443.639404,198.126404 444.280121,206.594589 444.291870,215.092560 
	C444.331299,243.590897 444.328186,272.089325 444.273163,300.587585 
	C444.269592,302.443939 445.213867,305.120392 442.819641,305.899658 
	C439.838623,306.869934 436.402679,307.079742 433.532562,305.739166 
	C431.296326,304.694641 432.107422,301.880829 432.104797,299.799225 
	C432.070923,272.967499 432.132690,246.135574 432.076111,219.303909 
	C432.057831,210.630005 431.717224,201.949127 428.561737,193.704712 
	C425.416870,185.487976 420.181030,179.885986 410.714996,179.308914 
	C406.614929,179.058960 405.200592,180.367020 405.224701,184.592484 
	C405.364563,209.089828 405.503937,233.592514 405.122498,258.085266 
	C404.935028,270.123413 402.653412,281.892426 396.483490,292.564697 
	C390.418732,303.055054 381.338379,308.827087 369.259644,309.235260 
	C357.045013,309.648071 347.913727,304.028351 341.432404,293.785339 
	C335.302917,284.098358 331.717255,273.406464 328.767670,262.446930 
	C328.400665,261.083344 328.626953,259.465332 326.811920,258.363281 
	C324.983856,266.958191 322.518311,275.213654 319.022583,283.065857 
	C315.711456,290.503326 312.206818,298.005005 305.321991,302.992249 
	C286.846680,316.375580 262.764343,307.784332 254.671997,285.044556 
	C251.344467,275.694061 249.850983,266.043427 249.684311,256.164825 
	C249.406204,239.681198 250.299377,223.172958 248.679520,206.718307 
	C248.107300,200.905731 247.253723,195.118103 244.562714,189.846695 
	C241.968750,184.765442 238.298447,180.889175 232.330780,179.732697 
	C227.335281,178.764633 226.371231,179.392090 226.356506,184.468506 
	C226.286392,208.633102 226.629135,232.806961 226.047531,256.958801 
	C225.731888,270.066833 224.169235,283.166748 217.570312,295.069855 
	C207.815094,312.666260 185.841339,312.122192 174.302536,303.165833 
	C164.527206,295.578308 157.594971,285.594482 149.954453,276.168793 
	C143.778091,268.549347 137.975006,260.526611 128.936844,255.866989 
	C128.373108,255.576370 127.748222,255.404297 126.807602,255.045959 
	C125.938629,262.997650 125.330254,270.715881 124.199532,278.356781 
	C122.843498,287.520294 120.077385,296.155792 113.069267,302.835632 
	C104.810402,310.707703 91.117485,311.600098 81.590225,304.530426 
M95.148659,256.527863 
	C84.554344,262.998840 83.282249,273.604218 84.742844,284.583069 
	C85.405289,289.562439 88.309937,293.316437 93.499321,294.275513 
	C98.639198,295.225433 102.966187,293.109009 106.421356,289.361115 
	C107.642387,288.036652 108.569061,286.389160 109.410011,284.774506 
	C114.113884,275.742828 113.657814,265.791809 114.279022,256.065918 
	C114.491653,252.736908 112.042534,251.856262 109.184013,252.402893 
	C104.625969,253.274536 99.981033,253.904099 95.148659,256.527863 
z"/>
</svg>