<svg version="1.1" id="Layer_1" xmlns="http://www.w3.org/2000/svg" xmlns:xlink="http://www.w3.org/1999/xlink" x="0px" y="0px"
	 width="100%" viewBox="0 0 512 512" enable-background="new 0 0 512 512" xml:space="preserve">
<path fill="#000000" opacity="1.000000" stroke="none" 
	d="
M187.285309,192.463806 
	C187.285339,181.708038 189.577057,171.463303 188.100296,161.128937 
	C187.704391,158.358292 187.966187,155.216202 184.230865,154.435486 
	C180.218185,153.596771 176.408447,154.096222 173.871216,157.590805 
	C171.829849,160.402451 170.221741,163.540741 170.274643,167.259750 
	C170.378815,174.580978 169.837463,181.908737 170.896942,189.217209 
	C171.319199,192.130066 171.965790,195.636261 167.621674,196.299957 
	C163.125122,196.986908 163.533951,193.416016 162.685532,190.520065 
	C159.099548,178.279831 158.860458,165.834442 160.772903,153.439789 
	C162.341751,143.271988 164.217941,132.412109 174.920959,127.515251 
	C184.973068,122.916199 197.191360,125.299103 200.465439,138.445160 
	C204.148453,153.233154 200.458008,167.468643 198.906860,181.947754 
	C197.704071,193.175049 194.569443,204.441269 195.778564,215.618805 
	C196.808685,225.141449 197.498138,235.133652 202.880630,243.851120 
	C206.891251,250.346664 211.989288,254.662766 220.140320,255.368530 
	C221.370209,251.011963 218.061935,248.152176 216.757080,244.882126 
	C213.301102,236.221237 210.477859,227.367798 209.879593,218.120789 
	C209.256943,208.497101 208.769699,198.682861 209.932770,189.160736 
	C212.991119,164.122131 223.937531,143.993256 248.331741,133.446716 
	C260.496063,128.187622 273.097961,125.010170 286.505157,125.741898 
	C297.079681,126.319016 307.696411,124.764519 318.210907,128.003723 
	C333.419312,132.688950 346.873352,139.532700 354.986115,153.962646 
	C359.439423,161.883575 360.098663,170.641281 359.795288,179.568680 
	C359.276031,194.849960 351.368317,205.305679 338.635834,212.748077 
	C337.502045,213.410782 336.297150,214.058960 335.806122,215.838989 
	C339.019836,218.437347 342.473389,220.965302 345.623077,223.827606 
	C353.858887,231.311981 357.969940,240.846619 359.346161,251.783844 
	C359.923828,256.375000 361.265320,260.866089 361.950867,265.448822 
	C362.466736,268.897369 362.372040,272.586243 357.591736,272.778259 
	C353.278870,272.951538 351.784180,269.885010 351.910034,266.149628 
	C352.271606,255.417175 348.780975,245.897324 342.866913,237.210266 
	C336.904541,228.452316 327.676270,224.496628 317.816376,223.667648 
	C306.747467,222.737015 295.754700,220.245956 284.524292,221.181808 
	C281.994415,221.392654 278.818085,221.886688 278.228943,218.056458 
	C277.835541,215.498688 281.757141,211.008453 284.506744,210.743011 
	C287.320160,210.471420 290.156464,210.444473 292.974365,210.209747 
	C302.397644,209.424881 311.800354,208.328568 321.206879,207.446686 
	C331.228119,206.507172 341.359436,203.670441 346.633148,193.399139 
	C352.286499,182.388367 348.270508,169.353699 337.583405,163.192444 
	C328.106598,157.728912 317.525787,156.008194 306.957642,155.398270 
	C294.335266,154.669754 281.607819,154.676758 268.983612,155.388809 
	C257.868195,156.015762 246.701889,158.118622 237.048477,164.052994 
	C224.616486,171.695496 220.379272,184.150589 219.348877,197.973175 
	C217.478821,223.059219 225.733994,244.620651 242.300385,263.241302 
	C243.614090,264.717896 245.494080,266.172028 244.456467,268.368378 
	C243.574707,270.234833 241.449585,270.174683 239.586990,270.198639 
	C223.349518,270.407379 208.428955,267.153778 197.879837,253.429932 
	C191.664581,245.344223 188.733124,235.906342 187.737839,225.815002 
	C186.657623,214.862427 186.403397,203.900833 187.285309,192.463806 
z"/>
<path fill="#000000" opacity="1.000000" stroke="none" 
	d="
M238.062775,353.955200 
	C235.209381,351.134644 232.545090,348.622650 230.045990,345.955872 
	C228.051468,343.827515 227.279083,341.444214 229.361298,338.814423 
	C231.271332,336.402130 233.231461,337.131836 235.521439,338.313934 
	C246.561890,344.013184 257.772339,349.266327 270.044556,351.911346 
	C277.350189,353.485901 284.334015,352.798492 290.821289,349.273376 
	C296.169373,346.367279 296.394684,339.878296 291.374969,336.044189 
	C285.374390,331.460876 278.146149,329.544403 271.088196,327.233215 
	C260.093262,323.632843 248.624542,320.534210 241.940430,309.843445 
	C236.903076,301.786621 239.245697,288.717896 248.764893,284.600861 
	C262.268646,278.760559 275.285767,280.769104 287.651154,288.212463 
	C290.059174,289.661957 292.302429,291.392914 294.573395,293.059814 
	C296.109039,294.187012 296.403503,295.790466 295.854126,297.527863 
	C295.276093,299.355713 293.823181,300.081482 292.032898,300.209930 
	C289.679352,300.378754 287.396667,300.098236 285.190155,299.166565 
	C278.380920,296.291443 271.263336,294.794922 263.885345,295.267761 
	C259.529907,295.546844 254.814148,296.447052 253.523361,301.401825 
	C252.277039,306.186005 255.336624,309.475037 259.125153,312.109802 
	C265.423492,316.490082 272.883423,317.719086 280.003632,319.701080 
	C287.537262,321.798157 295.068329,323.764069 301.268768,328.736633 
	C304.817383,331.582581 306.964233,335.321228 307.630493,340.111694 
	C310.222107,358.745209 299.492950,370.397308 280.709869,371.489471 
	C263.363983,372.498047 250.430481,364.892426 238.062775,353.955200 
z"/>
</svg>