<svg version="1.1" id="Layer_1" xmlns="http://www.w3.org/2000/svg" xmlns:xlink="http://www.w3.org/1999/xlink" x="0px" y="0px"
	 width="100%" viewBox="0 0 512 512" enable-background="new 0 0 512 512" xml:space="preserve">
<path fill="#000000" opacity="1.000000" stroke="none" 
	d="
M304.534973,213.708466 
	C308.856354,231.652435 308.925446,249.162323 302.650665,266.182770 
	C295.373596,285.921906 281.479065,298.073395 259.859619,298.864990 
	C239.785217,299.599976 224.660065,290.791840 214.991867,272.874847 
	C201.481812,247.838165 204.566437,210.151596 221.959351,189.811981 
	C243.238968,164.927200 282.775635,169.202713 298.303558,198.066467 
	C300.914734,202.920181 303.106293,207.941299 304.534973,213.708466 
M234.060318,206.554626 
	C232.763458,207.835526 231.359085,209.025543 230.187073,210.411957 
	C222.130737,219.942169 221.599930,231.317169 222.332077,242.977188 
	C223.152115,256.037262 232.881104,268.437317 245.283081,272.273102 
	C259.784637,276.758240 275.571106,272.448730 283.917969,261.930847 
	C291.014343,252.988754 292.341705,242.659714 291.691895,231.765533 
	C290.875671,218.082657 285.350372,207.010986 272.312317,201.660324 
	C259.266449,196.306458 246.292572,197.064545 234.060318,206.554626 
z"/>
</svg>