<svg version="1.1" id="Layer_1" xmlns="http://www.w3.org/2000/svg" xmlns:xlink="http://www.w3.org/1999/xlink" x="0px" y="0px"
	 width="100%" viewBox="0 0 512 512" enable-background="new 0 0 512 512" xml:space="preserve">
<path fill="#000000" opacity="1.000000" stroke="none" 
	d="
M282.188232,179.024475 
	C271.613831,183.559723 265.773560,191.337845 264.345093,202.282196 
	C263.863861,205.969254 261.762268,206.364746 258.798889,206.326324 
	C255.790009,206.287338 253.122177,206.277649 252.744110,202.225632 
	C251.256119,186.277679 233.555542,170.983780 211.057724,179.219589 
	C201.624283,182.672897 197.538467,190.528809 195.350464,199.684402 
	C193.360992,208.009338 193.182861,216.484451 193.197632,224.990326 
	C193.241058,249.986435 193.089325,274.983673 193.300705,299.978027 
	C193.343491,305.035889 191.779953,306.695343 186.718369,306.471466 
	C180.528870,306.197754 174.434311,305.949036 168.612976,303.584503 
	C155.363922,298.202942 150.793472,286.925507 148.696091,274.072266 
	C145.429153,254.051544 147.021851,233.852219 146.714554,213.725449 
	C146.582047,205.047592 146.122803,196.416458 144.091324,187.956329 
	C142.196426,180.065048 138.239182,177.064728 130.237686,177.124817 
	C121.520538,177.190292 116.152412,182.451004 115.329124,191.922211 
	C114.839569,197.554077 114.435692,203.199219 114.220078,208.847061 
	C114.065079,212.907181 111.333618,213.244370 108.374153,213.303864 
	C105.564369,213.360367 101.906433,213.764679 102.003777,209.669754 
	C102.378960,193.886841 102.396530,177.998703 110.830032,163.709106 
	C116.051659,154.861649 123.973389,151.842728 133.703354,152.798615 
	C143.570312,153.767990 149.852219,159.788773 153.165756,168.590942 
	C156.878372,178.453232 158.092239,188.906082 158.298035,199.429428 
	C158.682266,219.076218 158.855072,238.728363 159.409119,258.369995 
	C159.610229,265.499695 161.930618,272.064270 167.079117,277.372437 
	C168.880417,279.229584 171.045700,280.447418 173.404419,281.264557 
	C179.105484,283.239624 181.043518,281.822357 181.047836,275.786346 
	C181.061432,256.789276 180.840973,237.789185 181.116898,218.796158 
	C181.307785,205.656586 182.038101,192.486893 185.989883,179.808456 
	C193.461349,155.837769 218.826874,145.255768 240.942612,156.758499 
	C247.640289,160.242065 252.765533,166.670441 258.239624,178.660828 
	C260.779999,174.973099 262.083710,170.911865 264.440094,167.433838 
	C272.938843,154.889847 285.046295,151.242096 299.298462,152.966660 
	C313.872345,154.730133 324.558563,161.701447 329.399475,176.248947 
	C333.490540,188.543121 335.060760,201.246796 335.236755,214.078796 
	C335.520081,234.738480 335.445679,255.406174 335.224792,276.067291 
	C335.175629,280.665375 336.590454,282.603333 341.160126,282.057831 
	C341.817078,281.979401 342.497253,281.996002 343.157715,282.060486 
	C363.600830,284.057770 368.254639,272.335480 369.499359,257.906403 
	C371.532898,234.333328 369.977661,210.667511 370.092407,187.041580 
	C370.112488,182.904572 367.415192,182.306335 364.446106,181.438782 
	C352.733429,178.016357 341.863190,173.059036 334.743378,162.562653 
	C326.720154,150.734329 324.123901,137.745880 329.092133,124.106384 
	C334.326721,109.735641 353.632782,105.340424 365.206421,115.430183 
	C371.845459,121.217972 375.807007,128.642960 378.233795,136.909073 
	C379.915802,142.638168 381.379486,148.451569 381.694061,154.483963 
	C381.888031,158.203262 383.771484,159.189499 387.415527,158.194107 
	C401.090424,154.458649 409.843201,144.578247 411.730957,130.312424 
	C411.949921,128.657700 411.998047,126.999321 413.241608,125.745422 
	C421.632477,128.121033 423.128601,129.754639 422.245239,137.545135 
	C420.322998,154.497147 413.955963,168.998505 398.588196,178.198639 
	C394.964661,180.367920 390.973602,181.655548 386.914703,182.463852 
	C383.268127,183.190048 382.111450,184.892944 382.143646,188.565109 
	C382.304382,206.894211 382.327209,225.226517 382.170990,243.555740 
	C382.059052,256.683807 382.105530,269.867249 378.210968,282.620331 
	C373.645477,297.570312 362.425018,306.019775 346.760834,306.293701 
	C340.929962,306.395691 335.083344,306.111603 329.268280,306.437805 
	C324.875366,306.684235 323.530273,305.140961 323.564758,300.748657 
	C323.749237,277.253693 323.695160,253.756363 323.627167,230.260132 
	C323.599274,220.619690 323.297943,211.003525 321.693726,201.437973 
	C318.353333,181.520004 303.001373,172.966019 282.188232,179.024475 
M364.726471,135.836334 
	C362.506500,131.689453 360.023438,127.827492 355.337524,125.996384 
	C348.659698,123.386925 341.558563,126.200294 340.528595,132.261093 
	C339.411041,138.837204 341.014496,144.841629 346.034454,149.504791 
	C351.168182,154.273621 357.511322,156.585022 364.283813,157.918747 
	C369.518341,158.949585 370.107941,158.573730 369.613434,153.196198 
	C369.079468,147.389694 367.572876,141.797974 364.726471,135.836334 
z"/>
</svg>