<svg version="1.1" id="Layer_1" xmlns="http://www.w3.org/2000/svg" xmlns:xlink="http://www.w3.org/1999/xlink" x="0px" y="0px"
	 width="100%" viewBox="0 0 512 512" enable-background="new 0 0 512 512" xml:space="preserve">
<path fill="#000000" opacity="1.000000" stroke="none" 
	d="
M179.603912,216.048157 
	C179.300766,206.254944 179.290833,196.929108 176.904419,187.825806 
	C175.013977,180.614456 171.028351,177.365372 163.823151,177.279877 
	C155.557526,177.181793 151.618958,180.024933 149.380051,187.510376 
	C147.493790,193.816742 147.142410,200.257706 147.265778,206.781174 
	C147.338348,210.618210 145.780792,213.145706 141.499603,213.396713 
	C136.379654,213.696869 134.687531,212.411865 134.810028,207.281693 
	C135.128448,193.947098 135.769852,180.674240 141.312088,168.158630 
	C147.230881,154.792648 160.471649,149.002762 173.315063,154.448364 
	C181.074936,157.738525 184.731049,164.419144 187.138199,171.857178 
	C189.866165,180.286560 191.130905,189.041809 191.211121,197.895508 
	C191.362091,214.559662 191.089020,231.229980 191.421249,247.889191 
	C191.586258,256.163879 192.021088,264.550049 196.151733,272.135468 
	C199.014374,277.392426 203.118713,280.791534 209.175888,281.995209 
	C213.051544,282.765350 214.400436,281.551575 214.368286,277.777557 
	C214.212189,259.449493 213.921783,241.118408 214.113571,222.792923 
	C214.257904,209.002563 214.987625,195.291092 218.441391,181.730392 
	C222.970917,163.945908 235.419449,153.468369 254.142609,152.662872 
	C269.548767,152.000076 280.910187,157.963989 287.777130,171.981461 
	C288.716980,173.899963 289.772675,175.761734 290.930786,177.943802 
	C292.990265,176.700760 293.478577,174.665054 294.208710,172.973984 
	C305.530731,146.752014 339.757233,146.299332 355.443787,168.418564 
	C363.460358,179.722504 367.280243,192.597824 370.211243,205.737610 
	C376.561859,234.207657 377.315704,263.171936 375.889893,292.144958 
	C375.041351,309.387482 373.810486,326.664398 370.737885,343.721954 
	C369.942688,348.136353 369.371490,352.591034 368.579315,357.006042 
	C368.047485,359.970123 369.464142,361.007050 372.128815,360.967590 
	C381.975494,360.821838 391.892883,360.621277 401.053497,356.559143 
	C406.810120,354.006439 407.359070,358.436401 409.230072,361.536865 
	C411.460602,365.233093 408.958374,366.563446 406.250397,367.918274 
	C395.322876,373.385315 383.601715,375.870697 371.537292,376.053253 
	C366.305420,376.132385 364.363007,377.844055 363.320801,382.747437 
	C358.163025,407.013916 351.050110,430.734192 342.632324,454.067169 
	C341.662109,456.756531 341.053345,460.000275 337.101257,458.946930 
	C333.466003,457.978027 329.000824,457.953979 329.654510,451.814423 
	C330.301514,445.737823 326.205444,442.096649 321.382904,439.243439 
	C309.323242,432.108459 295.905365,428.783752 282.526764,425.330627 
	C258.073486,419.018951 233.116943,414.452667 209.757248,404.342255 
	C200.809906,400.469757 192.651993,395.403717 185.646774,388.574890 
	C171.129364,374.423096 174.208725,347.721985 191.051056,335.380554 
	C204.965012,325.184967 220.326172,323.654633 236.633804,325.074615 
	C261.579468,327.246765 284.268341,337.014343 307.195953,345.954559 
	C319.908173,350.911407 332.750916,355.402588 346.105194,358.312500 
	C352.524628,359.711304 353.620331,358.556610 354.711273,351.839294 
	C357.859619,332.453430 360.330231,312.964478 361.351837,293.385071 
	C362.322632,274.780182 362.377777,256.103943 360.343109,237.494751 
	C358.984070,225.064514 357.285126,212.742874 352.940155,200.925110 
	C351.553833,197.154526 349.863159,193.546585 347.772339,190.135193 
	C341.883484,180.526993 333.275757,176.071213 322.075226,177.362885 
	C312.116577,178.511353 304.694366,183.726456 300.192169,192.741806 
	C298.940186,195.248779 297.954285,197.986771 297.422424,200.730469 
	C296.753693,204.180420 295.910797,206.416595 291.558960,206.470535 
	C287.090057,206.525955 286.027679,204.380142 285.200073,200.669876 
	C279.863922,176.747742 254.707550,171.906479 238.362823,182.313034 
	C232.341202,186.146942 230.190552,192.684509 228.408981,199.098755 
	C226.578903,205.687729 226.131287,212.512146 226.147385,219.377228 
	C226.209915,246.041840 226.168625,272.706696 226.150482,299.371460 
	C226.145828,306.205750 225.955475,306.135162 219.106506,306.407623 
	C194.186157,307.398895 182.920822,291.517426 180.688644,268.482086 
	C179.013443,251.194641 179.785568,233.857727 179.603912,216.048157 
M340.754852,416.400238 
	C344.147125,402.747192 347.952637,389.183319 350.176453,374.993317 
	C343.034241,373.701324 336.345367,372.603882 329.704041,371.269836 
	C305.077728,366.323120 281.349640,357.973297 256.993683,351.992340 
	C242.574875,348.451569 228.047180,345.778870 213.117569,346.385071 
	C201.933136,346.839233 193.654968,351.703918 191.561203,358.797211 
	C188.588776,368.867218 192.513138,377.936981 202.870529,384.705536 
	C205.930374,386.705109 208.978577,388.803802 212.268494,390.356079 
	C227.391449,397.491760 243.501450,401.626068 259.629974,405.728119 
	C276.053070,409.905121 292.673645,413.345184 308.798340,418.654327 
	C318.231110,421.760101 327.605743,425.007965 335.522095,431.859467 
	C338.524536,426.899506 338.862122,421.808350 340.754852,416.400238 
z"/>
</svg>