<svg version="1.1" id="Layer_1" xmlns="http://www.w3.org/2000/svg" xmlns:xlink="http://www.w3.org/1999/xlink" x="0px" y="0px"
	 width="100%" viewBox="0 0 512 512" enable-background="new 0 0 512 512" xml:space="preserve">
<path fill="#000000" opacity="1.000000" stroke="none" 
	d="
M235.752136,406.084900 
	C237.885483,414.341919 241.112427,421.545471 246.570374,427.684021 
	C250.049591,431.597107 254.225037,434.018311 259.411011,434.692627 
	C264.667542,435.376160 265.650299,434.578400 265.677551,429.321899 
	C265.735321,418.173553 265.580353,407.058472 267.611786,395.978882 
	C272.063477,371.698822 289.435242,354.829620 313.810730,350.467224 
	C331.798798,347.247894 348.967834,348.623413 365.282013,356.945068 
	C379.321625,364.106537 387.367706,375.987610 391.531860,391.023102 
	C397.344421,412.010559 394.615356,433.410065 395.260864,454.649719 
	C395.418396,459.833160 391.685089,459.154419 388.335632,459.381287 
	C384.493622,459.641510 382.855682,458.119904 382.868561,454.252136 
	C382.912933,440.921326 383.078705,427.583191 382.725403,414.260406 
	C382.125153,391.624146 371.519073,378.988312 349.274109,374.977875 
	C332.705627,371.990875 316.005249,372.327240 300.157806,378.499664 
	C286.058746,383.991150 278.923615,395.312469 278.370026,410.297668 
	C277.853546,424.277893 278.085785,438.285309 277.958893,452.280518 
	C277.898407,458.946991 277.491821,459.317780 270.830322,459.332001 
	C246.405960,459.384186 230.895050,447.838226 224.086182,423.894409 
	C218.360992,403.761353 218.392654,383.750854 227.729736,364.526428 
	C235.717072,348.081055 247.703369,334.729797 261.281616,322.716370 
	C281.234558,305.062866 303.231110,289.736481 321.608063,270.304016 
	C334.920898,256.226532 345.978241,240.692474 349.175995,220.929138 
	C350.423737,213.217667 351.143188,205.399277 349.155304,197.691620 
	C345.749725,184.486938 335.895020,177.303757 320.934723,176.881088 
	C309.085907,176.546310 297.404999,184.892883 293.536224,196.487640 
	C293.062958,197.906006 292.500610,199.348572 292.365570,200.815475 
	C292.000732,204.778381 290.355652,206.519608 286.005035,206.525482 
	C281.654694,206.531372 280.759796,204.279526 280.083130,200.863251 
	C275.302795,176.728149 248.451004,171.105408 231.861938,183.393463 
	C226.861069,187.097794 224.986862,193.104340 223.381836,198.911453 
	C221.186356,206.854889 221.166550,215.039642 221.164352,223.205551 
	C221.157608,248.369675 221.165817,273.533783 221.144073,298.697906 
	C221.137589,306.192505 220.920258,306.104889 213.681717,306.409454 
	C188.729568,307.459381 177.874146,290.851868 175.680374,268.628906 
	C173.826691,249.851212 175.013596,231.005173 174.481003,212.200226 
	C174.256119,204.259277 174.154526,196.248932 172.002914,188.436935 
	C169.873962,180.707153 165.725693,177.001541 158.457260,177.047256 
	C150.597839,177.096695 146.376862,180.635681 144.158768,188.380325 
	C142.432526,194.407669 142.310104,200.505371 142.239929,206.677322 
	C142.182938,211.689911 139.935623,213.784225 135.199936,213.737778 
	C131.917725,213.705582 129.684418,212.404404 129.766342,208.727509 
	C130.070953,195.054871 130.554993,181.420715 136.076279,168.550095 
	C142.207092,154.258621 156.363998,148.469513 169.668823,155.132248 
	C176.728836,158.667709 180.071152,165.251633 182.275284,172.385605 
	C185.446075,182.648300 186.303665,193.254822 186.302765,203.948090 
	C186.301559,218.279968 185.991302,232.621307 186.423294,246.940186 
	C186.681519,255.499741 186.687820,264.284058 191.102203,272.168304 
	C193.836441,277.051758 197.718704,280.280212 203.218933,281.788391 
	C207.425995,282.942017 208.993073,281.839355 208.957886,277.395386 
	C208.819366,259.898224 208.633926,242.394363 208.969742,224.902664 
	C209.250122,210.298950 209.784637,195.738678 213.477829,181.371460 
	C217.740219,164.789948 229.789978,154.106659 247.023117,152.768204 
	C263.829376,151.462891 276.192139,157.708740 283.463440,173.230331 
	C284.156586,174.709991 285.042267,176.099457 286.116760,178.030807 
	C288.233246,174.362534 290.003113,171.061386 291.988068,167.895065 
	C300.738495,153.936935 314.977966,150.434891 330.442261,153.583771 
	C350.577759,157.683792 359.521332,172.023346 363.077789,190.691544 
	C367.063538,211.613403 364.908203,232.134338 357.304352,251.946579 
	C349.327484,272.730835 335.860199,289.684967 319.662201,304.754730 
	C300.963440,322.151062 279.490051,336.104858 260.465088,353.062958 
	C248.894623,363.376343 238.808640,374.755066 235.848785,390.765045 
	C234.928268,395.744171 235.233826,400.702850 235.752136,406.084900 
z"/>
</svg>