<svg version="1.1" id="Layer_1" xmlns="http://www.w3.org/2000/svg" xmlns:xlink="http://www.w3.org/1999/xlink" x="0px" y="0px"
	 width="100%" viewBox="0 0 512 512" enable-background="new 0 0 512 512" xml:space="preserve">
<path fill="#000000" opacity="1.000000" stroke="none" 
	d="
M289.353943,202.591095 
	C278.009430,195.725494 263.333771,197.838684 254.388962,207.331833 
	C252.845459,208.969971 251.599594,211.284424 248.634842,209.430969 
	C245.844910,207.686829 245.532608,205.645035 246.696625,202.674088 
	C249.841690,194.646759 254.081146,187.407318 260.491760,181.530090 
	C269.686066,173.100784 280.238007,171.474213 291.569824,175.957458 
	C302.322662,180.211624 308.249298,188.460068 308.713440,200.098557 
	C309.149231,211.028107 306.001740,220.782883 298.005371,228.654770 
	C296.973907,229.670181 295.462982,230.285965 295.034546,231.868790 
	C295.229889,232.159286 295.348694,232.567749 295.590942,232.663300 
	C317.411865,241.268982 319.300995,265.003967 310.693420,283.569794 
	C302.096649,302.112305 281.072845,312.061371 258.636993,308.895874 
	C234.104294,305.434509 218.265015,290.397186 208.666687,268.946716 
	C194.800323,237.957993 195.045273,206.651794 210.486435,175.966537 
	C212.811584,171.345901 216.113556,167.343521 219.211090,163.203674 
	C221.947586,159.546341 224.657730,158.782654 228.381210,161.506226 
	C230.229813,162.858414 232.684830,163.360825 234.026642,165.482956 
	C233.974213,167.725891 232.224152,168.975906 231.107208,170.568146 
	C212.235016,197.470947 208.929550,226.618256 220.670746,256.851990 
	C229.185394,278.777405 248.488251,285.158844 268.218628,284.382721 
	C273.644897,284.169250 279.154236,283.715820 284.442688,281.845703 
	C295.315735,278.000885 300.901001,269.380707 299.641663,257.876099 
	C298.780579,250.009689 290.983246,243.711716 280.590485,242.313965 
	C274.794067,241.534393 268.990265,241.279114 263.150391,241.326599 
	C260.983368,241.344223 257.745758,241.993652 258.521576,238.148956 
	C259.211670,234.729141 256.769531,229.388397 263.251465,228.906937 
	C265.407074,228.746841 267.583588,228.893509 269.747406,228.813828 
	C277.262634,228.537125 283.635590,225.516205 288.959869,220.359467 
	C294.888977,214.616928 295.007660,209.314484 289.353943,202.591095 
z"/>
</svg>