<svg version="1.1" id="Layer_1" xmlns="http://www.w3.org/2000/svg" xmlns:xlink="http://www.w3.org/1999/xlink" x="0px" y="0px"
	 width="100%" viewBox="0 0 512 512" enable-background="new 0 0 512 512" xml:space="preserve">
<path fill="#000000" opacity="1.000000" stroke="none" 
	d="
M318.709747,213.213211 
	C317.125732,197.187775 312.855194,182.561478 301.975281,170.862747 
	C290.675934,158.713058 275.946381,154.708023 259.813171,155.011322 
	C228.106003,155.607391 205.219574,171.921432 196.503342,202.372299 
	C190.320694,223.971924 191.687378,245.686966 204.050751,265.401672 
	C211.546478,277.354401 223.176086,283.279083 236.941711,284.533905 
	C246.717072,285.424988 256.607391,285.374298 266.007172,281.653534 
	C278.043091,276.889374 283.431427,262.730621 277.163177,251.974976 
	C273.376312,245.477127 266.843872,243.256088 259.919220,242.397430 
	C254.153625,241.682510 248.301453,241.672272 242.489120,241.324554 
	C240.417908,241.200638 237.301392,241.647903 238.241562,238.293991 
	C239.087601,235.275879 236.568726,230.108154 242.534286,229.719482 
	C246.673035,229.449814 250.825790,229.796906 254.927216,228.672760 
	C260.188934,227.230576 264.756500,224.768936 268.683044,220.948624 
	C276.069458,213.762039 273.970612,202.875870 264.069427,199.893951 
	C252.995590,196.558853 242.726929,198.557388 234.015732,206.711777 
	C232.391235,208.232437 231.356888,211.203323 227.951111,209.137894 
	C224.567841,207.086121 225.907806,204.643600 226.894791,202.245911 
	C230.554886,193.354431 235.326904,185.227112 243.408890,179.550186 
	C253.472778,172.481140 264.058685,172.576294 274.444275,178.304138 
	C284.708649,183.965103 289.179474,194.769913 287.695068,206.773514 
	C286.510773,216.350342 282.430573,224.178925 275.125641,230.393021 
	C274.489136,230.934448 273.806641,231.425186 273.886597,232.923416 
	C279.697693,235.290878 285.153687,238.658524 288.860413,244.264084 
	C297.221191,256.907898 295.649872,270.149719 289.988251,282.892181 
	C280.160950,305.010040 255.592911,313.063690 232.554169,307.781281 
	C209.641998,302.527893 195.475067,286.638641 186.978241,265.874054 
	C175.727127,238.378494 174.461624,210.423386 188.332062,183.253220 
	C200.890717,158.652603 221.522644,144.806808 248.685669,140.782867 
	C266.345032,138.166779 283.361328,140.756348 298.815552,149.872818 
	C317.358704,160.811432 326.827148,178.151413 331.266205,198.674271 
	C336.390533,222.365311 334.145630,245.983414 330.685120,269.601349 
	C326.781342,296.244934 321.316162,322.637360 318.358337,349.440063 
	C314.755981,382.083801 319.609467,413.423584 331.604065,443.819244 
	C332.092560,445.057190 332.600464,446.287689 333.072845,447.531677 
	C335.487244,453.889862 334.229797,456.254974 327.663361,458.393341 
	C324.493713,459.425507 323.854614,456.823822 322.941833,455.176147 
	C319.303009,448.607758 316.816345,441.516876 314.234711,434.491241 
	C303.228546,404.539337 300.166992,373.776123 304.317169,342.129669 
	C306.653778,324.312164 310.126190,306.728668 313.407471,289.086365 
	C316.661133,271.592804 318.655792,253.932220 319.183258,236.086823 
	C319.405273,228.574570 319.299164,221.136887 318.709747,213.213211 
z"/>
</svg>