<svg version="1.1" id="Layer_1" xmlns="http://www.w3.org/2000/svg" xmlns:xlink="http://www.w3.org/1999/xlink" x="0px" y="0px"
	 width="100%" viewBox="0 0 512 512" enable-background="new 0 0 512 512" xml:space="preserve">
<path fill="#000000" opacity="1.000000" stroke="none" 
	d="
M189.416168,212.432922 
	C185.489960,232.298065 186.718506,251.228882 195.313049,269.352478 
	C196.641373,272.153534 197.892944,275.122345 201.031387,277.212067 
	C202.543427,273.200439 203.917892,269.347351 205.438324,265.552734 
	C217.028610,236.626205 245.446060,220.588135 276.408386,223.210724 
	C310.006134,226.056564 335.653931,250.202713 340.938721,284.403625 
	C341.748901,289.646759 341.788544,295.006256 342.260071,300.305237 
	C342.655365,304.747589 340.949921,306.817352 336.278290,307.559113 
	C326.756409,309.070923 326.671722,309.356598 326.726349,299.662384 
	C326.901978,268.495483 305.081329,250.951080 278.126373,248.402115 
	C262.837036,246.956284 247.801208,248.058472 234.331345,256.740723 
	C219.410599,266.358215 212.753860,280.621979 211.358719,297.794220 
	C211.102982,300.941925 211.181946,304.115997 211.052170,307.275635 
	C211.033447,307.731781 210.708603,308.175323 210.298004,309.182678 
	C205.984528,308.058167 202.810989,305.159210 199.698502,302.362854 
	C186.716125,290.699188 179.205200,275.824951 175.428024,259.066101 
	C170.813812,238.593475 170.310150,218.023163 178.107651,198.199707 
	C189.252228,169.867065 211.020508,154.288986 240.425323,148.717010 
	C249.317032,147.032120 258.266113,147.282089 267.239960,148.576859 
	C270.877960,149.101761 271.584045,150.497818 270.801544,153.889648 
	C268.584900,163.497330 268.687378,163.694977 258.996277,163.244476 
	C233.191238,162.044907 212.544739,171.354614 197.756561,192.852814 
	C193.737869,198.694946 191.457199,205.295578 189.416168,212.432922 
z"/>
</svg>