<svg version="1.1" id="Layer_1" xmlns="http://www.w3.org/2000/svg" xmlns:xlink="http://www.w3.org/1999/xlink" x="0px" y="0px"
	 width="100%" viewBox="0 0 512 512" enable-background="new 0 0 512 512" xml:space="preserve">
<path fill="#000000" opacity="1.000000" stroke="none" 
	d="
M324.241699,208.000031 
	C323.948395,223.814957 324.757080,239.133728 323.394226,254.449066 
	C320.311462,289.091278 300.016052,308.554413 266.188507,309.311157 
	C256.592682,309.525848 247.220108,308.295837 238.289154,304.733185 
	C219.386368,297.192810 210.106552,282.239563 206.710800,262.958221 
	C203.362259,243.944916 205.361786,224.726044 204.701508,205.608414 
	C204.499649,199.763687 203.848572,193.976166 202.526138,188.301987 
	C200.798172,180.887756 196.629211,177.384796 189.788666,177.132278 
	C181.985519,176.844254 177.706635,179.848495 175.186951,187.281296 
	C173.003067,193.723511 173.428696,200.433395 173.025604,207.062714 
	C172.817581,210.483521 171.944122,213.152390 167.623886,213.369888 
	C160.939194,213.706360 159.805222,212.506989 160.246750,205.784332 
	C160.900299,195.833893 160.929565,185.848434 163.585114,176.103638 
	C164.690491,172.047348 166.166779,168.213120 168.110260,164.514450 
	C172.817596,155.555908 180.548111,151.745392 190.296936,152.032959 
	C200.471863,152.333099 207.464066,157.585922 211.404282,166.951965 
	C215.745224,177.270554 216.729248,188.239761 217.102448,199.201599 
	C217.550262,212.354004 217.211166,225.531357 217.385208,238.695648 
	C217.475418,245.520370 218.134384,252.337112 220.057022,258.915771 
	C223.986343,272.360748 232.931473,280.229431 246.743744,282.808960 
	C259.530121,285.196838 272.247742,285.299835 284.817352,281.897644 
	C300.098572,277.761505 308.616638,267.449707 310.750885,251.832565 
	C311.500427,246.347977 311.645325,240.897415 311.647705,235.407440 
	C311.654358,220.074707 311.472870,204.738632 311.761383,189.411301 
	C311.847870,184.818298 310.664520,182.644318 305.964630,181.467682 
	C295.809631,178.925385 286.653625,174.278275 279.378418,166.418243 
	C269.123688,155.339172 266.800964,142.032669 269.225189,127.824928 
	C270.800140,118.594673 276.403046,111.994240 286.024872,110.142487 
	C295.857361,108.250191 304.555298,110.542015 311.133850,118.656982 
	C318.518036,127.765686 321.704926,138.516495 323.330170,149.874176 
	C323.494934,151.025681 323.628021,152.185928 323.693024,153.346756 
	C323.920105,157.403458 325.999573,158.432846 329.720703,157.311646 
	C340.926422,153.935349 348.506561,146.871841 351.861420,135.577621 
	C352.892212,132.107529 353.502655,128.512573 354.301880,124.991142 
	C361.708099,125.992401 364.839386,129.586319 364.358307,136.398010 
	C362.787354,158.641754 350.749542,175.636917 332.356079,181.579147 
	C324.252991,184.196976 324.251221,184.196945 324.243317,193.000168 
	C324.238983,197.833450 324.241791,202.666748 324.241699,208.000031 
M298.338898,155.183884 
	C302.372223,156.525360 306.323822,158.371246 310.739624,157.448608 
	C311.421570,150.598618 309.524231,142.103302 305.835083,135.285828 
	C303.835541,131.590698 301.503540,128.199463 297.556244,126.268631 
	C289.820526,122.484734 282.263855,127.039467 282.339233,135.552597 
	C282.430908,145.909561 288.939941,151.283234 298.338898,155.183884 
z"/>
</svg>