<svg version="1.1" id="Layer_1" xmlns="http://www.w3.org/2000/svg" xmlns:xlink="http://www.w3.org/1999/xlink" x="0px" y="0px"
	 width="100%" viewBox="0 0 512 512" enable-background="new 0 0 512 512" xml:space="preserve">
<path fill="#000000" opacity="1.000000" stroke="none" 
	d="
M343.294312,194.047287 
	C343.269714,214.870163 343.511749,235.205734 343.120941,255.529129 
	C342.883484,267.877808 341.182037,280.091858 335.136078,291.243408 
	C325.243744,309.489624 302.966370,315.008148 287.010742,303.105438 
	C280.488983,298.240295 277.042450,291.150543 273.656494,284.080444 
	C269.773254,275.972015 267.250153,267.382721 264.992615,257.343597 
	C262.455139,267.318420 260.159180,276.069153 256.358917,284.315460 
	C254.260986,288.867767 251.936020,293.289978 248.897629,297.279144 
	C236.923737,313.000000 212.097275,313.428833 199.584946,298.109283 
	C191.917938,288.722076 188.894547,277.557465 187.687668,265.783020 
	C185.711594,246.504288 187.251144,227.155518 186.623398,207.850174 
	C186.396240,200.863785 185.763855,193.879837 183.490509,187.203323 
	C180.763062,179.193237 175.762146,176.202011 167.384354,177.313873 
	C161.296494,178.121826 156.904755,182.351105 155.515060,189.778717 
	C154.387466,195.805466 153.637024,201.965851 153.460007,208.088394 
	C153.304596,213.463211 149.974762,213.190155 146.371567,213.358765 
	C142.347351,213.547058 140.584671,211.901138 140.780380,207.761597 
	C141.307053,196.620834 141.791946,185.491653 144.811478,174.656067 
	C149.319641,158.478470 162.290573,149.695923 177.205490,152.572876 
	C183.871277,153.858627 188.102417,157.992874 191.127640,163.664825 
	C196.099869,172.987213 197.341629,183.255508 198.305389,193.534821 
	C200.081604,212.479706 198.968658,231.490158 199.408325,250.465775 
	C199.578247,257.800079 201.185303,264.882446 204.050293,271.756866 
	C209.886810,285.761383 230.709579,289.390198 240.596832,275.742523 
	C247.346527,266.425751 250.355743,255.799545 252.579514,244.818787 
	C255.656082,229.626831 257.225250,214.260391 257.707825,198.773941 
	C257.998260,189.453659 258.437469,180.137039 258.624756,170.815048 
	C258.686096,167.761444 259.968201,166.844574 262.862274,166.727066 
	C271.275513,166.385437 271.058929,166.341583 271.397278,174.515701 
	C272.531647,201.915863 272.655182,229.440018 280.287018,256.138153 
	C282.082214,262.418182 284.588684,268.344635 288.227081,273.824493 
	C292.798218,280.709198 298.778961,284.814575 307.311737,284.282623 
	C317.696747,283.635193 324.221191,277.914764 327.425781,268.311859 
	C329.537201,261.984802 330.667206,255.432312 330.663910,248.714447 
	C330.654297,229.050415 330.482391,209.383011 330.821594,189.724655 
	C330.909546,184.627853 329.450684,182.490524 324.456085,181.236984 
	C310.885193,177.830994 299.637939,170.765823 292.576019,158.218445 
	C287.182068,148.634613 286.361694,138.188507 288.363556,127.693253 
	C290.031189,118.950638 295.121582,112.418968 304.304535,110.346649 
	C313.688446,108.228981 322.191162,109.943420 328.971497,117.325752 
	C335.720856,124.674416 339.178986,133.619934 341.275452,143.174347 
	C342.021881,146.576218 342.722961,150.032822 342.936066,153.495728 
	C343.209167,157.934906 345.506866,158.195648 348.993317,157.267654 
	C361.830414,153.850800 370.845276,142.997375 372.635223,128.662735 
	C372.795563,127.378700 372.449158,125.957695 373.643433,124.957275 
	C381.605621,126.480919 384.046112,129.426010 383.352814,137.024490 
	C382.335052,148.179276 379.053162,158.510040 372.018463,167.451843 
	C366.707062,174.203140 360.017426,178.852661 351.803772,181.441910 
	C343.262604,184.134384 343.292145,184.228073 343.294312,194.047287 
M313.926331,153.616577 
	C315.919739,154.450333 317.874237,155.397049 319.913086,156.098755 
	C330.048645,159.587082 331.500427,158.467651 329.509918,148.307236 
	C328.220581,141.725967 325.892426,135.488800 321.558319,130.211777 
	C317.318115,125.049110 311.057617,123.556015 305.965179,126.390167 
	C301.614227,128.811630 300.268341,134.185532 302.067688,140.564102 
	C303.788635,146.664841 307.962860,150.423294 313.926331,153.616577 
z"/>
</svg>