<svg version="1.1" id="Layer_1" xmlns="http://www.w3.org/2000/svg" xmlns:xlink="http://www.w3.org/1999/xlink" x="0px" y="0px"
	 width="100%" viewBox="0 0 512 512" enable-background="new 0 0 512 512" xml:space="preserve">
<path fill="#000000" opacity="1.000000" stroke="none" 
	d="
M216.680252,222.033936 
	C216.662674,211.029114 215.829666,200.689514 212.376648,190.593842 
	C209.792694,183.039062 204.326065,179.153534 197.160736,177.747025 
	C190.813171,176.501038 184.273407,176.724426 177.823608,178.151001 
	C169.915726,179.900070 165.589539,185.116455 163.380325,192.463821 
	C161.060165,200.180145 160.636612,208.195435 160.398254,216.153778 
	C159.829956,235.127777 161.169327,254.149292 159.242203,273.088196 
	C158.366821,281.691040 157.066040,290.255524 152.590012,297.942322 
	C147.718933,306.307526 140.353394,309.831299 130.854111,309.260376 
	C121.988243,308.727570 116.154938,303.746796 112.042282,296.311584 
	C105.804520,285.034424 104.935768,272.517487 103.839500,260.081573 
	C103.518600,256.441284 103.955391,252.733414 103.622368,249.095184 
	C103.247978,245.004868 105.775673,244.189713 108.782997,244.215393 
	C111.817245,244.241287 115.274292,243.867493 115.559212,248.689423 
	C115.980446,255.818344 116.523628,262.959686 117.482491,270.032349 
	C118.734222,279.265411 123.718147,284.404053 131.065765,284.765228 
	C138.936188,285.152130 143.588989,281.798645 145.701447,274.126038 
	C148.564087,263.728760 148.107269,252.998901 148.575699,242.394318 
	C149.251205,227.101456 147.812836,211.753708 149.679184,196.475113 
	C150.854477,186.853729 152.453934,177.276642 157.056915,168.674698 
	C163.682327,156.293350 178.772827,150.358444 195.214325,153.054810 
	C212.470123,155.884720 221.697021,165.299667 225.335358,183.645035 
	C229.182693,203.044250 228.765427,222.699966 228.982498,242.319473 
	C229.078217,250.972198 229.121674,259.608795 231.274857,268.097473 
	C233.547699,277.057892 238.880142,282.714813 248.115097,284.286377 
	C253.568451,285.214447 259.109680,285.203735 264.547668,284.390991 
	C273.754150,283.014954 279.415436,277.512238 281.697662,268.511017 
	C283.377075,261.887390 284.518188,255.198624 284.721100,248.336609 
	C285.134552,234.355591 284.418152,220.365891 285.554077,206.380249 
	C286.310303,197.069611 287.285065,187.851898 289.824127,178.852448 
	C294.459473,162.423141 303.597443,154.701950 320.580200,152.780273 
	C337.190552,150.900757 352.154968,157.922501 357.761139,170.332748 
	C361.637512,178.913818 363.556580,188.035828 364.295593,197.349182 
	C366.592010,226.288437 364.724487,255.290070 365.395294,284.254791 
	C365.606873,293.391510 365.822266,302.561676 367.410004,311.603516 
	C369.197113,321.780792 374.009369,326.106903 382.868622,325.690491 
	C389.486084,325.379456 393.509918,321.813049 395.716980,314.434631 
	C398.040344,306.667480 397.470520,298.595642 398.274536,290.670410 
	C398.613495,287.329193 399.806152,285.602966 403.516113,285.586182 
	C409.859283,285.557556 410.355255,285.773041 410.300690,292.183289 
	C410.181335,306.204376 409.170715,320.119049 404.012238,333.356354 
	C397.903809,349.031250 381.551025,355.109161 368.359253,346.440521 
	C361.214661,341.745697 358.541107,334.110016 356.740265,326.183441 
	C354.067047,314.417175 353.699463,302.441162 353.687347,290.443573 
	C353.662231,265.615631 353.794586,240.786484 353.571625,215.960449 
	C353.501648,208.168762 352.909821,200.343338 350.755127,192.743011 
	C348.394745,184.417084 343.255707,179.222809 334.551208,177.780701 
	C328.745483,176.818863 322.900238,176.775909 317.141357,177.661606 
	C308.987732,178.915558 303.766022,183.827469 301.180573,191.665909 
	C298.600128,199.489029 297.711365,207.588013 297.401001,215.726883 
	C296.830200,230.694580 297.918274,245.689651 296.399506,260.658997 
	C295.455109,269.967468 294.074158,279.135010 290.816956,287.921814 
	C285.764435,301.551849 275.142212,308.767883 259.646637,309.295502 
	C236.452484,310.085236 223.930893,299.283783 219.593796,275.786957 
	C216.330231,258.106232 216.735840,240.328720 216.680252,222.033936 
z"/>
</svg>