<svg version="1.1" id="Layer_1" xmlns="http://www.w3.org/2000/svg" xmlns:xlink="http://www.w3.org/1999/xlink" x="0px" y="0px"
	 width="100%" viewBox="0 0 512 512" enable-background="new 0 0 512 512" xml:space="preserve">
<path fill="#000000" opacity="1.000000" stroke="none" 
	d="
M318.354828,434.596588 
	C335.789856,431.025879 340.908569,419.189728 341.438538,403.589691 
	C342.309448,377.955353 341.726562,352.273010 341.881775,326.611633 
	C341.905457,322.695190 340.329865,321.221008 336.538971,321.308014 
	C331.716003,321.418762 326.864258,320.993774 322.172668,322.548523 
	C317.128876,324.220001 315.426270,327.523102 316.962250,332.644806 
	C318.222595,336.847260 320.842377,340.370636 322.766449,344.241699 
	C329.955841,358.706024 327.966370,373.536926 317.497742,383.293030 
	C304.813080,395.114349 284.584106,393.829803 271.747986,380.242889 
	C262.685760,370.650604 257.355591,359.134888 255.009048,346.211975 
	C254.279083,342.191833 254.890579,341.445587 259.788330,339.536224 
	C261.759399,341.093353 261.815491,343.571594 262.544434,345.708740 
	C268.627106,363.542175 286.688232,373.841888 302.967224,368.726562 
	C312.772949,365.645325 316.734344,357.415619 312.728729,347.967499 
	C311.108124,344.144897 308.911957,340.570160 307.071899,336.836212 
	C299.505890,321.482880 305.575317,307.176300 321.882996,301.961487 
	C326.184387,300.585968 330.612610,299.864136 335.148895,299.835205 
	C341.789886,299.792816 341.825348,299.770447 341.825653,293.260254 
	C341.827667,250.433487 341.814178,207.606705 341.803284,164.779938 
	C341.800659,154.518402 342.162750,154.678986 352.583893,155.234207 
	C378.273041,156.602859 385.681641,173.801773 387.236420,191.609543 
	C390.879395,233.333893 388.289429,275.180603 388.867310,316.969574 
	C388.945099,322.597473 390.296387,326.965149 393.913788,331.447052 
	C406.021210,346.448120 412.755005,364.274963 419.120636,382.205780 
	C420.733643,386.749390 421.814270,391.487946 423.533508,395.986359 
	C425.571136,401.317780 421.113190,401.142700 418.428955,402.467529 
	C415.097076,404.112122 414.470398,401.541840 413.723724,399.278107 
	C409.338867,385.984192 404.715332,372.783600 397.967590,360.453766 
	C395.671753,356.258759 393.308258,352.082947 388.911713,347.634644 
	C388.911713,354.508026 388.906677,360.236450 388.912567,365.964905 
	C388.940735,393.294006 388.982452,420.623077 388.994690,447.952179 
	C388.997864,455.038788 386.280457,457.023315 379.402588,455.212097 
	C377.874084,454.809540 377.062103,453.998657 376.963715,452.506012 
	C376.854340,450.845856 376.832703,449.177673 376.832245,447.512970 
	C376.822357,411.851776 376.740601,376.190186 376.919464,340.529907 
	C376.941772,336.084717 375.600555,333.309723 371.666595,331.428070 
	C366.301971,328.862122 361.207642,325.653625 355.261658,324.730103 
	C353.277985,326.760773 353.943146,329.040344 353.938232,331.100372 
	C353.887970,352.430267 354.040649,373.761444 353.859009,395.089905 
	C353.764130,406.232147 353.394745,417.431610 350.138611,428.210815 
	C346.191589,441.277313 339.773315,452.387604 325.872192,457.277069 
	C311.081604,462.479340 297.507172,458.743164 288.100311,446.239868 
	C283.603516,440.262878 279.896820,433.697296 275.532654,427.613251 
	C268.890808,418.353973 260.983734,415.453583 251.872482,418.465332 
	C247.007507,420.073425 243.770660,423.649078 240.968445,427.619934 
	C237.993622,431.835327 235.163956,436.168518 232.517731,440.597778 
	C220.759613,460.278473 205.622681,463.385437 183.878525,456.073944 
	C167.070618,450.422272 159.860321,436.308197 156.762146,419.952820 
	C151.425888,391.782715 157.110641,365.059448 168.236893,339.174805 
	C169.814194,335.505280 171.861496,332.021271 173.230133,328.282623 
	C175.018372,323.397736 178.063232,321.998962 182.836502,323.741913 
	C184.380051,324.305542 186.000320,324.659027 187.335831,325.037811 
	C188.092957,326.412842 187.494949,327.284241 186.990265,328.114685 
	C175.907745,346.350494 171.176147,366.387787 169.917923,387.467407 
	C169.220520,399.151337 170.587585,410.299408 176.459442,420.704193 
	C180.111954,427.176392 185.311279,431.795410 192.403214,433.412720 
	C210.205643,437.472534 220.034317,434.441010 230.639709,419.699982 
	C234.527695,414.295837 237.771774,408.422852 241.737015,403.081024 
	C251.939957,389.335938 265.911774,389.697052 275.626526,403.865967 
	C279.203369,409.082764 282.341614,414.599670 285.898926,419.830750 
	C293.584442,431.132477 303.992706,436.741241 318.354828,434.596588 
M374.082489,195.500259 
	C371.573883,187.442810 367.592285,180.809128 358.292847,179.476578 
	C355.811554,179.121017 353.803314,179.128693 353.811584,182.826233 
	C353.898651,221.606491 353.842987,260.387054 353.823059,299.167542 
	C353.822266,300.674530 353.614288,302.370605 355.448639,302.953217 
	C362.738800,305.268738 369.449768,308.788605 376.435089,313.610535 
	C376.605377,311.100189 376.806396,309.508514 376.807495,307.916687 
	C376.826996,279.613586 376.809723,251.310486 376.830017,223.007416 
	C376.836456,214.011108 376.477570,205.056747 374.082489,195.500259 
z"/>
<path fill="#000000" opacity="1.000000" stroke="none" 
	d="
M214.309021,177.404175 
	C209.552307,177.097122 205.196686,176.783737 200.927429,177.664322 
	C188.629105,180.201050 181.691055,188.239655 179.318954,202.043213 
	C178.269470,208.150162 178.014053,214.280807 177.985016,220.433182 
	C177.878098,243.085678 177.831696,265.738464 177.794907,288.391235 
	C177.791397,290.549530 177.585144,292.218811 174.929916,292.812927 
	C157.867432,296.630676 139.611557,285.990845 134.801483,269.264404 
	C132.768936,262.196411 131.789536,254.970200 131.659134,247.606949 
	C131.379074,231.792679 131.023682,215.979660 130.659943,200.167038 
	C130.556198,195.657211 129.732788,191.226456 128.474670,186.918518 
	C126.588562,180.460342 122.632103,177.450500 116.180542,177.191528 
	C108.427071,176.880310 104.133301,179.351639 101.537971,185.851852 
	C100.110840,189.426193 99.470970,193.191574 99.311981,197.056793 
	C99.168449,200.546265 98.927551,204.040298 98.524734,207.508530 
	C97.928780,212.639694 93.189171,215.149185 88.570724,212.961304 
	C87.138268,212.282715 86.738876,211.147461 86.715355,209.734177 
	C86.481621,195.687897 87.143867,181.711334 92.730865,168.583099 
	C98.439362,155.169327 109.853416,149.749374 123.136909,153.738464 
	C132.531937,156.559784 136.686859,164.122345 139.175430,172.696640 
	C142.730667,184.946091 143.196976,197.616379 143.299255,210.279877 
	C143.385391,220.942215 143.249969,231.606750 143.384048,242.268143 
	C143.453369,247.780670 144.365295,253.191818 146.796555,258.230347 
	C149.620605,264.082916 154.384933,267.292999 160.691147,268.479828 
	C164.345154,269.167542 165.790695,267.983490 165.764938,264.083954 
	C165.650558,246.758163 165.463654,229.423035 165.908401,212.106812 
	C166.206985,200.482269 167.434311,188.875763 171.324585,177.746521 
	C176.830246,161.996033 187.397308,153.853317 203.902725,152.724106 
	C221.393784,151.527466 232.582016,157.867966 240.300232,173.346420 
	C241.039139,174.828217 241.798203,176.299942 242.817352,178.306946 
	C245.350006,174.006287 247.433777,169.936752 250.003754,166.201767 
	C258.280670,154.172714 270.428833,151.443100 283.932098,152.993011 
	C297.871216,154.592926 308.326111,161.174393 313.410492,174.967239 
	C317.787506,186.841278 319.023743,199.162231 319.577026,211.678284 
	C320.673492,236.481888 319.890656,261.292175 320.146332,286.097565 
	C320.208496,292.131042 315.576355,294.943726 309.908447,292.468079 
	C307.194366,291.282654 307.876312,288.890686 307.871338,286.856750 
	C307.819977,265.864166 307.841400,244.871384 307.837708,223.878647 
	C307.836273,215.715866 307.694336,207.586700 305.836273,199.551025 
	C302.204559,183.844925 293.365570,176.897552 276.961548,177.150162 
	C262.696320,177.369843 251.836685,186.293335 249.348450,200.476547 
	C248.491760,205.359756 246.322372,206.872864 241.672943,206.351501 
	C239.073700,206.060074 237.986099,205.178329 237.533936,202.505402 
	C235.307755,189.345459 227.416580,181.183548 214.309021,177.404175 
z"/>
</svg>