<svg version="1.1" id="Layer_1" xmlns="http://www.w3.org/2000/svg" xmlns:xlink="http://www.w3.org/1999/xlink" x="0px" y="0px"
	 width="100%" viewBox="0 0 512 512" enable-background="new 0 0 512 512" xml:space="preserve">
<path fill="#000000" opacity="1.000000" stroke="none" 
	d="
M291.350159,183.697021 
	C292.030762,198.507767 290.445404,212.316559 282.417908,224.823975 
	C268.957581,245.796127 235.583649,246.198151 221.449387,225.622375 
	C213.021622,213.353714 211.036484,199.719406 211.457169,185.307602 
	C211.788055,173.972000 213.929153,163.232773 219.924561,153.429260 
	C228.433929,139.515060 241.193405,134.267761 256.874054,135.812164 
	C271.200012,137.223129 280.451050,145.836334 286.057587,158.580994 
	C289.492493,166.389130 291.451508,174.625107 291.350159,183.697021 
M238.556503,162.927551 
	C225.471344,168.447174 221.944550,181.685745 224.862839,196.326538 
	C227.347244,208.790619 237.308060,215.684402 251.378601,215.687775 
	C266.807709,215.691483 277.577606,206.778625 278.701630,193.075958 
	C280.274780,173.898621 272.792511,163.192749 255.912338,160.636826 
	C250.213974,159.774002 244.653427,160.629547 238.556503,162.927551 
z"/>
</svg>