<svg version="1.1" id="Layer_1" xmlns="http://www.w3.org/2000/svg" xmlns:xlink="http://www.w3.org/1999/xlink" x="0px" y="0px"
	 width="100%" viewBox="0 0 512 512" enable-background="new 0 0 512 512" xml:space="preserve">
<path fill="#000000" opacity="1.000000" stroke="none" 
	d="
M232.302460,289.044312 
	C220.149750,284.350281 211.695084,277.018219 209.964752,263.614899 
	C208.761047,254.290909 212.946777,244.386490 220.313583,240.329239 
	C227.938431,236.129852 237.686691,237.005127 244.226974,242.476379 
	C248.904297,246.389175 249.106247,247.854294 245.665955,252.845322 
	C244.626099,254.353912 243.578842,255.857834 242.566132,257.384583 
	C241.324295,259.256775 239.814133,259.675140 237.934341,258.321808 
	C235.707962,256.718994 233.123856,255.903046 230.489548,255.626495 
	C227.515213,255.314255 224.675995,256.195892 223.515396,259.271423 
	C222.423401,262.165192 223.156754,264.888947 225.713913,266.868530 
	C229.525040,269.818787 234.002899,271.118073 238.680008,271.608093 
	C261.549957,274.004028 280.870605,267.787628 294.618805,248.270432 
	C296.278900,245.913742 297.927856,244.283020 301.170441,246.248337 
	C304.326843,248.161423 303.748352,250.237228 302.604889,252.969437 
	C292.916412,276.119507 268.771820,292.044983 244.441559,291.321472 
	C240.385086,291.200867 236.580048,290.000000 232.302460,289.044312 
z"/>
<path fill="#000000" opacity="1.000000" stroke="none" 
	d="
M257.171417,207.082886 
	C273.561401,205.572403 285.025970,196.841995 294.297180,184.502701 
	C295.997467,182.239700 297.554932,179.710037 301.125824,182.118073 
	C303.449799,183.685257 304.195953,185.207794 303.041168,187.893707 
	C293.742615,209.521103 270.968414,228.360825 245.510956,227.233337 
	C235.267487,226.779678 225.852386,223.786469 218.351974,216.358826 
	C209.619629,207.711197 207.698822,197.337006 211.757004,186.049118 
	C216.770477,172.104218 236.015930,168.859116 245.972641,179.943542 
	C248.386002,182.630219 248.812042,185.052414 246.309326,187.801865 
	C245.752655,188.413422 245.242996,189.098618 244.852570,189.825592 
	C242.610672,193.999588 239.959564,196.574753 235.225754,192.777023 
	C234.504120,192.198074 233.354904,192.133759 232.390991,191.878357 
	C228.623276,190.880096 225.119827,191.422836 223.549118,195.269806 
	C221.989746,199.089035 224.020294,201.962326 227.387726,203.994812 
	C231.366592,206.396347 235.867783,207.080246 240.299271,207.455597 
	C245.751038,207.917404 251.273361,208.057556 257.171417,207.082886 
z"/>
</svg>