<svg version="1.1" id="Layer_1" xmlns="http://www.w3.org/2000/svg" xmlns:xlink="http://www.w3.org/1999/xlink" x="0px" y="0px"
	 width="100%" viewBox="0 0 512 512" enable-background="new 0 0 512 512" xml:space="preserve">
<path fill="#000000" opacity="1.000000" stroke="none" 
	d="
M269.908386,196.285889 
	C287.148376,252.139221 301.088409,308.408051 312.032898,365.420807 
	C313.206909,371.536682 308.782227,375.585693 302.801300,373.974762 
	C300.702728,373.409546 300.823547,371.548950 300.482391,369.965973 
	C295.858704,348.511108 291.272522,327.047974 285.748077,305.799652 
	C277.241821,273.082397 268.093872,240.564087 255.008926,209.313477 
	C250.375732,198.248062 245.390518,187.321625 238.089325,177.669876 
	C234.050674,172.330994 232.418808,172.271164 228.468994,177.811310 
	C226.163727,181.044785 224.446976,184.700760 222.503876,188.188065 
	C221.712830,189.607773 221.378067,191.323700 219.926224,192.261078 
	C212.944977,188.982605 211.786423,186.736877 213.827148,179.997421 
	C216.820633,170.111557 220.061996,160.306595 224.795593,151.082153 
	C231.831894,137.370422 241.636475,137.063446 250.172134,150.157547 
	C259.376526,164.277466 264.726837,180.023956 269.908386,196.285889 
z"/>
</svg>