<svg version="1.1" id="Layer_1" xmlns="http://www.w3.org/2000/svg" xmlns:xlink="http://www.w3.org/1999/xlink" x="0px" y="0px"
	 width="100%" viewBox="0 0 512 512" enable-background="new 0 0 512 512" xml:space="preserve">
<path fill="#000000" opacity="1.000000" stroke="none" 
	d="
M309.362305,210.787476 
	C320.601837,248.630554 329.912445,286.549591 338.376160,324.685577 
	C341.397675,338.299927 344.384003,351.917816 346.631683,365.689331 
	C347.675171,372.082550 347.548187,371.773041 341.765900,373.452698 
	C336.015961,375.122955 335.462433,371.899536 334.627472,367.775787 
	C328.191284,335.988617 320.721130,304.443390 311.649078,273.300873 
	C303.592041,245.642838 294.921814,218.189651 281.899261,192.347961 
	C278.968262,186.531784 275.489563,181.071487 271.438965,175.956009 
	C269.244507,173.184631 267.336395,173.208221 264.945587,175.720169 
	C261.070679,179.791412 258.917206,184.861282 256.371887,189.717651 
	C255.921829,190.576370 255.353821,191.373291 254.862671,192.162766 
	C247.701569,189.281586 246.465927,186.838776 248.519577,180.222031 
	C252.024048,168.930939 255.453476,157.600082 261.633698,147.395081 
	C266.653900,139.105484 274.936005,138.311935 281.249298,145.795197 
	C287.621979,153.348785 292.281586,162.042252 296.032288,171.164062 
	C301.289337,183.949493 305.378174,197.143005 309.362305,210.787476 
z"/>
<path fill="#000000" opacity="1.000000" stroke="none" 
	d="
M260.197021,345.586304 
	C249.540863,298.224731 237.621017,251.665024 219.102737,207.089096 
	C214.698441,196.487396 209.708878,186.091431 202.539856,176.956421 
	C199.005676,172.453033 197.900116,172.423416 194.159607,176.823715 
	C190.260529,181.410568 188.337555,187.207947 185.266479,192.230148 
	C178.207428,189.431168 176.767975,186.679138 178.832870,180.114594 
	C182.180069,169.473495 185.418793,158.774155 190.930908,148.984741 
	C196.934570,138.322372 205.984711,137.698914 213.337921,147.669647 
	C222.345108,159.883118 227.715408,173.914703 232.321945,188.206253 
	C247.072388,233.968994 258.924347,280.511414 269.268005,327.444946 
	C271.948212,339.606079 274.232330,351.854645 276.685394,364.065643 
	C278.312897,372.167145 278.072540,372.289337 270.160339,373.736206 
	C266.967987,374.319916 266.085541,373.209534 265.529449,370.371979 
	C263.931305,362.216827 262.080536,354.111115 260.197021,345.586304 
z"/>
</svg>