<svg version="1.1" id="Layer_1" xmlns="http://www.w3.org/2000/svg" xmlns:xlink="http://www.w3.org/1999/xlink" x="0px" y="0px"
	 width="100%" viewBox="0 0 512 512" enable-background="new 0 0 512 512" xml:space="preserve">
<path fill="#000000" opacity="1.000000" stroke="none" 
	d="
M278.104492,200.153732 
	C280.036469,186.303024 272.948303,177.888428 259.527313,177.127228 
	C247.727875,176.457993 238.502884,181.027145 231.221588,190.053665 
	C229.576309,192.093323 228.382111,194.580582 224.826767,192.493484 
	C221.445404,190.508514 221.301453,188.407440 222.656662,185.079559 
	C225.756638,177.467117 229.342926,170.204453 234.922882,164.060471 
	C252.928619,144.234756 281.395630,149.478729 290.734344,174.485550 
	C294.173248,183.694153 294.707977,193.355148 292.915253,202.983841 
	C291.398560,211.129913 287.214844,217.844818 280.117065,222.688950 
	C280.554871,223.230347 280.766937,223.768356 281.125031,223.895645 
	C294.848572,228.774246 301.429932,239.141739 303.951721,252.921967 
	C307.498901,272.305573 298.189911,293.495026 281.413727,303.133972 
	C263.004639,313.711182 230.587860,313.512909 217.309937,283.387177 
	C212.802139,273.159607 210.994492,262.444733 209.733475,251.507141 
	C209.119400,246.181015 213.205872,246.696075 216.207565,246.066162 
	C220.122681,245.244568 219.992691,248.452530 220.227036,250.809326 
	C221.226578,260.861786 223.917389,270.133148 232.085236,276.864136 
	C243.697906,286.434021 267.526093,287.195465 279.633392,278.286926 
	C287.955200,272.163727 289.903046,263.358917 288.562805,253.779205 
	C287.258728,244.457947 280.949066,238.901016 272.725311,235.330353 
	C264.393402,231.712753 255.496948,232.116791 246.677948,231.834579 
	C244.278458,231.757797 240.391998,233.561050 239.935303,229.083725 
	C239.374924,223.590042 242.593323,219.846756 247.205048,219.616867 
	C251.523163,219.401596 255.866104,219.163803 260.130920,218.502518 
	C270.755066,216.855133 276.081848,211.375870 278.104492,200.153732 
z"/>
</svg>