<svg version="1.1" id="Layer_1" xmlns="http://www.w3.org/2000/svg" xmlns:xlink="http://www.w3.org/1999/xlink" x="0px" y="0px"
	 width="100%" viewBox="0 0 512 512" enable-background="new 0 0 512 512" xml:space="preserve">
<path fill="#000000" opacity="1.000000" stroke="none" 
	d="
M289.510376,189.481598 
	C278.931854,181.062698 267.073334,177.472778 254.030548,177.135117 
	C240.194778,176.776901 226.813965,178.396011 214.359390,185.001404 
	C208.042938,188.351364 202.716797,192.823410 198.865662,198.795456 
	C196.686813,202.174271 194.591141,202.453278 191.647156,200.098724 
	C190.742889,199.375488 189.725327,198.762695 188.687408,198.243790 
	C185.733215,196.766830 185.119705,194.940262 186.785522,191.838959 
	C200.278229,166.719559 220.958878,152.281708 249.652161,152.057495 
	C289.071442,151.749451 314.998535,177.822723 320.406494,212.229065 
	C323.960876,234.842468 321.878326,256.732269 311.174713,277.224762 
	C299.541077,299.497803 280.692352,309.899963 255.723282,309.219452 
	C249.412979,309.047485 243.743317,306.543945 238.780472,302.624084 
	C231.412415,296.804474 230.517822,288.874298 232.152618,280.463806 
	C234.177322,270.047424 240.318741,262.004730 248.062927,255.110779 
	C252.523285,251.140152 254.324631,256.493347 257.115936,258.036743 
	C259.994568,259.628448 259.743591,261.761292 257.712219,264.179962 
	C255.440094,266.885284 253.937836,270.087067 253.398010,273.611603 
	C251.397217,286.674957 261.752869,294.928772 275.372986,291.139496 
	C282.217926,289.235138 287.831940,285.314697 291.780640,279.530945 
	C306.644562,257.759369 310.562286,234.078842 302.998871,208.772110 
	C300.714600,201.129089 295.865570,194.902954 289.510376,189.481598 
z"/>
</svg>