<svg version="1.1" id="Layer_1" xmlns="http://www.w3.org/2000/svg" xmlns:xlink="http://www.w3.org/1999/xlink" x="0px" y="0px"
	 width="100%" viewBox="0 0 512 512" enable-background="new 0 0 512 512" xml:space="preserve">
<path fill="#000000" opacity="1.000000" stroke="none" 
	d="
M294.663330,264.770081 
	C296.412750,250.919464 297.438873,237.454407 296.593750,223.966980 
	C295.794678,211.214645 293.458588,198.794785 284.309113,188.902298 
	C277.526306,181.568649 268.955078,177.903870 259.093140,177.295517 
	C247.648590,176.589539 236.375900,177.389038 226.170853,183.290649 
	C216.512375,188.876129 210.720093,197.202957 209.343750,208.452438 
	C208.809601,212.818237 206.653290,213.820053 200.910629,213.330215 
	C196.742249,212.974670 196.763657,210.399414 197.069336,207.334412 
	C198.881271,189.166214 205.534805,173.648376 220.671051,162.385391 
	C241.510498,146.878586 281.250031,148.672791 298.059723,175.814331 
	C306.738312,189.827042 310.345856,205.171082 311.247864,221.270081 
	C313.567505,262.670074 304.414581,301.880737 288.280914,339.756409 
	C279.717621,359.859711 272.691101,380.477051 269.758453,402.257935 
	C267.785553,416.910767 268.532227,431.456940 272.409973,445.762085 
	C274.824371,454.668823 273.971008,456.258789 264.532623,458.718719 
	C259.977814,452.418304 258.718140,444.809509 256.783813,437.483582 
	C249.617950,410.344299 256.758423,384.743164 265.427887,359.360260 
	C271.342377,342.043549 278.924805,325.333374 284.362213,307.839233 
	C288.708130,293.856842 292.598969,279.760193 294.663330,264.770081 
z"/>
</svg>