<svg version="1.1" id="Layer_1" xmlns="http://www.w3.org/2000/svg" xmlns:xlink="http://www.w3.org/1999/xlink" x="0px" y="0px"
	 width="100%" viewBox="0 0 512 512" enable-background="new 0 0 512 512" xml:space="preserve">
<path fill="#000000" opacity="1.000000" stroke="none" 
	d="
M285.624634,208.629150 
	C285.774750,190.996048 286.103912,173.829117 285.927246,156.667358 
	C285.870270,151.134491 288.383392,150.582199 292.921478,150.526093 
	C297.501617,150.469467 299.045502,151.925934 298.996704,156.513046 
	C298.757690,178.995682 299.525635,201.539444 297.132141,223.916321 
	C294.335785,250.059921 289.225555,275.665649 272.826355,297.388611 
	C263.227844,310.103149 250.530457,315.982086 234.526093,314.239990 
	C220.312592,312.692841 209.628677,300.191284 208.583694,285.059967 
	C207.642242,271.427887 212.207779,259.892975 220.162277,249.338837 
	C226.279144,241.222916 232.648773,233.296448 238.714050,225.142929 
	C250.471085,209.338043 259.580444,192.268997 263.238037,172.651276 
	C263.499695,171.247864 263.371674,169.596436 264.644257,168.488434 
	C272.313202,169.167023 273.723816,171.085159 272.742554,177.928040 
	C269.388153,201.319839 257.799622,220.739594 243.762451,239.041412 
	C238.288956,246.177841 232.641068,253.191620 227.857788,260.834564 
	C225.996033,263.809387 224.314529,266.861450 223.397110,270.284027 
	C221.729294,276.506073 221.238754,282.727966 226.471130,287.466888 
	C231.909607,292.392517 238.590469,291.712952 244.898926,289.583679 
	C254.695877,286.276978 261.329163,278.909332 266.662537,270.499054 
	C277.292023,253.737244 282.763733,235.186478 284.746826,215.529434 
	C284.963837,213.378357 285.317261,211.241028 285.624634,208.629150 
z"/>
</svg>