<svg version="1.1" id="Layer_1" xmlns="http://www.w3.org/2000/svg" xmlns:xlink="http://www.w3.org/1999/xlink" x="0px" y="0px"
	 width="100%" viewBox="0 0 512 512" enable-background="new 0 0 512 512" xml:space="preserve">
<path fill="#000000" opacity="1.000000" stroke="none" 
	d="
M271.450439,197.634186 
	C283.697632,225.203842 293.977386,253.168274 305.241211,280.732544 
	C307.821136,287.046082 310.147766,293.464233 312.789490,299.750854 
	C314.028168,302.698578 313.306580,304.166534 310.436340,305.559875 
	C301.109283,310.087494 301.500275,310.056671 297.410675,300.270660 
	C284.266296,268.817291 273.506409,236.358139 257.815582,205.979568 
	C254.448639,199.460907 250.701355,193.142365 245.281799,188.053070 
	C235.576920,178.939636 224.664963,181.174011 219.134964,193.326309 
	C217.395279,197.149292 216.555557,201.183807 215.851547,205.302780 
	C214.862213,211.091293 210.331741,207.741013 207.380707,208.205566 
	C204.806137,208.610855 202.597702,207.576172 202.860443,204.401184 
	C204.097748,189.449158 205.452271,174.478409 214.213562,161.554092 
	C221.231995,151.200775 232.285828,148.984039 242.914444,155.758286 
	C252.090790,161.606903 257.430176,170.742661 262.598969,179.876724 
	C265.790405,185.516495 268.419739,191.474350 271.450439,197.634186 
z"/>
</svg>