<svg version="1.1" id="Layer_1" xmlns="http://www.w3.org/2000/svg" xmlns:xlink="http://www.w3.org/1999/xlink" x="0px" y="0px"
	 width="100%" viewBox="0 0 512 512" enable-background="new 0 0 512 512" xml:space="preserve">
<path fill="#000000" opacity="1.000000" stroke="none" 
	d="
M234.387390,229.622009 
	C249.769623,257.414307 270.461365,279.063416 299.914490,291.347931 
	C309.184662,295.214355 318.918884,297.352356 328.853943,298.679779 
	C331.033539,298.970947 334.872040,297.880493 334.115143,301.803528 
	C333.503113,304.975769 333.236572,309.606049 327.832733,309.255737 
	C315.650787,308.466003 303.706909,306.457214 292.256989,302.085907 
	C257.560974,288.839844 232.020355,264.658295 211.978012,234.168594 
	C197.170425,211.642319 187.175659,187.115738 183.159790,160.319702 
	C182.669983,157.051422 182.174393,153.771454 183.229004,149.827362 
	C191.730942,151.808212 200.105087,153.736938 208.465790,155.722275 
	C210.675751,156.247055 210.958984,158.191528 211.246506,160.011902 
	C215.093689,184.369995 222.476181,207.553680 234.387390,229.622009 
z"/>
</svg>