<svg version="1.1" id="Layer_1" xmlns="http://www.w3.org/2000/svg" xmlns:xlink="http://www.w3.org/1999/xlink" x="0px" y="0px"
	 width="100%" viewBox="0 0 512 512" enable-background="new 0 0 512 512" xml:space="preserve">
<path fill="#000000" opacity="1.000000" stroke="none" 
	d="
M324.344116,191.805099 
	C337.969971,226.082138 335.903290,258.496216 314.554321,288.744843 
	C308.415894,297.442139 299.952789,303.696167 290.151398,308.072083 
	C287.663147,309.182983 286.052094,309.025391 285.046631,306.357605 
	C284.870728,305.890808 284.656982,305.438263 284.460724,304.979156 
	C280.756409,296.312256 280.815063,296.408600 288.820099,291.535492 
	C304.247284,282.144104 312.087097,267.600128 315.493805,250.502945 
	C317.572327,240.071594 318.606873,229.440094 316.467438,218.784653 
	C312.995270,201.491669 303.407501,188.862808 286.980804,182.424835 
	C267.862488,174.931976 248.171188,174.555023 228.907364,181.789719 
	C209.326416,189.143539 198.277664,203.925095 196.539642,224.703949 
	C194.979538,243.355438 198.301987,261.191589 209.391495,276.922974 
	C214.283127,283.862213 220.345032,289.512848 228.154327,292.927307 
	C232.104813,294.654633 233.067551,296.911957 231.242538,300.696442 
	C229.957916,303.360321 229.464172,306.402435 227.361847,309.059631 
	C215.937180,305.190002 206.619141,298.502350 199.232666,289.187988 
	C188.129227,275.186523 182.936874,259.061493 181.479721,241.311462 
	C180.059250,224.008469 181.710983,207.357025 189.525574,191.758713 
	C201.772583,167.313095 222.063126,154.874527 249.082413,152.589203 
	C264.322266,151.300186 278.951874,153.143448 292.794861,159.796829 
	C306.982788,166.615997 317.192627,177.472702 324.344116,191.805099 
z"/>
</svg>