<svg version="1.1" id="Layer_1" xmlns="http://www.w3.org/2000/svg" xmlns:xlink="http://www.w3.org/1999/xlink" x="0px" y="0px"
	 width="100%" viewBox="0 0 512 512" enable-background="new 0 0 512 512" xml:space="preserve">
<path fill="#000000" opacity="1.000000" stroke="none" 
	d="
M254.596771,229.518829 
	C283.601166,215.257690 312.267853,201.154388 341.720154,186.664612 
	C335.139191,181.097397 328.540161,177.838943 320.669189,177.301544 
	C293.419769,175.441025 270.144226,185.212189 249.139023,201.682266 
	C231.201355,215.747101 215.789719,232.283783 201.617371,250.047928 
	C197.717667,254.935928 196.733109,254.938004 192.523148,251.316772 
	C190.569748,249.636520 190.542252,248.119476 191.842789,246.152420 
	C207.106171,223.066757 222.440231,200.070450 243.452805,181.543320 
	C265.781158,161.856049 291.785583,151.797928 321.456787,151.957382 
	C344.117767,152.079132 361.853180,162.755432 376.197662,179.722763 
	C378.556488,182.512878 378.535522,184.365372 374.842804,186.130814 
	C332.621674,206.316345 290.461792,226.629913 248.262070,246.860275 
	C241.485031,250.109161 241.426620,250.000900 237.835922,243.317886 
	C237.210510,242.153839 236.649536,240.955170 235.669312,238.992706 
	C241.938675,235.850891 248.098862,232.763779 254.596771,229.518829 
z"/>
<path fill="#000000" opacity="1.000000" stroke="none" 
	d="
M151.110382,230.821716 
	C168.411530,253.233948 186.414536,274.600708 204.665939,295.763153 
	C207.479904,299.025940 205.547836,305.437744 201.392838,306.777466 
	C199.884140,307.263947 198.830444,306.294647 197.804276,305.511047 
	C174.935410,288.048157 154.654922,268.012878 137.482605,244.873489 
	C135.772491,242.569168 135.781616,240.916168 137.964203,238.916031 
	C140.778412,236.337082 143.293762,233.432709 145.948257,230.678558 
	C147.540222,229.026810 149.175751,228.237976 151.110382,230.821716 
z"/>
</svg>