<svg version="1.1" id="Layer_1" xmlns="http://www.w3.org/2000/svg" xmlns:xlink="http://www.w3.org/1999/xlink" x="0px" y="0px"
	 width="100%" viewBox="0 0 512 512" enable-background="new 0 0 512 512" xml:space="preserve">
<path fill="#000000" opacity="1.000000" stroke="none" 
	d="
M228.063797,208.378586 
	C231.821121,189.526581 236.646271,171.388748 241.764786,153.317749 
	C242.956940,149.108841 244.486588,147.408279 249.375366,148.777145 
	C254.447983,150.197449 253.435196,152.879196 252.509018,156.259781 
	C247.893097,173.108276 244.137375,190.090149 242.794510,207.597275 
	C241.693497,221.951477 246.842255,232.854599 258.757751,240.717804 
	C265.148621,244.935211 271.442993,249.258713 277.228333,254.325562 
	C288.262787,263.989563 292.456360,276.628876 293.320587,290.698639 
	C295.635223,328.380035 283.078003,361.611755 262.617035,392.433044 
	C253.018051,406.892395 242.039093,420.245117 230.041199,432.769562 
	C229.017273,433.838379 227.886734,434.805054 226.865173,435.763367 
	C224.899963,435.232697 224.148392,433.688110 223.057922,432.472107 
	C220.255569,429.347137 220.288971,426.904175 223.381836,423.560089 
	C234.241486,411.818604 244.244217,399.342224 252.651917,385.694122 
	C263.092926,368.745422 271.604553,351.013702 275.019531,331.121826 
	C278.616058,310.172424 273.483734,292.581696 256.215546,279.306396 
	C250.673492,275.045837 245.048599,270.891785 239.547318,266.579712 
	C227.261383,256.949585 222.742020,244.339554 225.181351,229.019394 
	C226.251007,222.301422 227.035492,215.538040 228.063797,208.378586 
z"/>
</svg>