<svg version="1.1" id="Layer_1" xmlns="http://www.w3.org/2000/svg" xmlns:xlink="http://www.w3.org/1999/xlink" x="0px" y="0px"
	 width="100%" viewBox="0 0 512 512" enable-background="new 0 0 512 512" xml:space="preserve">
<path fill="#000000" opacity="1.000000" stroke="none" 
	d="
M422.314117,399.000061 
	C422.316345,415.832275 422.326935,432.164429 422.315948,448.496613 
	C422.311371,455.287109 422.197815,455.030975 415.820984,455.420013 
	C410.403595,455.750488 410.009888,452.978546 410.014557,448.719604 
	C410.097870,372.558472 410.086334,296.397217 410.074280,220.235977 
	C410.072998,212.070190 409.877167,203.909180 407.655365,195.960617 
	C405.592590,188.581131 402.170044,182.340530 394.132721,180.027069 
	C388.419952,178.382721 387.326050,179.181168 387.325470,185.102448 
	C387.318848,255.097504 387.337891,325.092560 387.305725,395.087616 
	C387.299103,409.487183 386.027435,423.710480 379.627930,436.928070 
	C372.365204,451.928619 360.148743,459.076996 343.627319,459.330322 
	C327.294617,459.580719 316.133759,452.024414 309.445251,437.279205 
	C304.471375,426.313995 301.207520,414.787933 297.791351,403.302277 
	C297.364685,401.867798 296.931732,400.434174 296.553162,398.986664 
	C289.626587,372.502472 267.966858,371.098175 247.817017,378.776794 
	C239.317413,382.015839 236.243210,390.266174 234.374847,398.676270 
	C233.027817,404.739746 233.055573,410.918427 233.020996,417.074738 
	C232.952652,429.239929 232.897812,441.407318 233.067245,453.570587 
	C233.125412,457.746399 231.900375,459.413788 227.384399,459.431519 
	C198.723190,459.543945 181.215515,443.294434 176.583969,413.022491 
	C171.814819,381.851257 182.872543,356.589783 204.063492,334.688263 
	C216.615936,321.714935 230.823761,310.652740 244.720337,299.225403 
	C260.430481,286.306732 276.031586,273.256897 288.365631,256.870117 
	C298.415863,243.517532 304.648438,228.613297 305.520599,211.803696 
	C306.050415,201.592163 304.803680,191.621765 296.648346,184.242279 
	C287.912140,176.337189 277.344635,175.352982 266.659607,178.604568 
	C255.449097,182.016052 249.157822,190.453400 247.441681,201.929291 
	C246.800690,206.215698 244.414276,206.291046 241.178436,206.362457 
	C237.779526,206.437469 236.134323,205.441467 235.629623,201.725296 
	C233.808792,188.318405 222.185013,177.657623 209.348129,177.190048 
	C191.924164,176.555359 182.070419,183.467987 178.490311,199.178787 
	C177.087219,205.336029 176.290466,211.619492 176.296112,217.979446 
	C176.320404,245.310806 176.188309,272.643188 176.414734,299.972717 
	C176.456192,304.977356 175.125595,306.716034 169.986313,306.476074 
	C163.288284,306.163300 156.653809,305.929810 150.477905,303.062134 
	C138.451340,297.477722 133.835724,286.784912 131.729813,274.717163 
	C129.866318,264.038513 129.834106,253.187439 129.645050,242.362015 
	C129.380539,227.215393 130.594162,212.036850 128.734528,196.924393 
	C128.450592,194.616882 128.139008,192.305801 127.684135,190.027512 
	C125.758995,180.385452 121.568565,176.891968 112.397949,177.185638 
	C104.547485,177.437012 99.414383,182.461273 98.412308,191.320724 
	C97.777176,196.936020 97.429314,202.597702 97.261620,208.247757 
	C97.117165,213.114639 93.916092,213.221176 90.394302,213.362930 
	C86.739487,213.510056 84.642006,212.262573 84.824730,208.249466 
	C85.385025,195.943787 85.936363,183.643616 89.845901,171.799973 
	C94.871735,156.574600 107.130943,149.521027 121.569572,153.795898 
	C132.085892,156.909500 135.730057,165.716492 138.271713,175.112671 
	C142.006958,188.921219 141.365540,203.167664 141.883850,217.262741 
	C142.367340,230.411621 142.124619,243.586105 142.298889,256.748016 
	C142.372742,262.326508 143.850906,267.590057 146.493896,272.518555 
	C148.189758,275.680908 150.604462,278.200623 153.609528,280.079773 
	C156.352448,281.794983 159.764908,283.074005 162.589539,281.880005 
	C165.394653,280.694244 163.978439,277.114410 164.011368,274.595459 
	C164.309616,251.776093 163.413086,228.943588 164.709320,206.135696 
	C165.229538,196.981964 166.587296,187.951080 169.268661,179.149445 
	C176.021820,156.982208 193.311295,150.863403 213.354950,153.188644 
	C223.862640,154.407639 231.381317,160.467804 236.661774,169.426498 
	C238.250183,172.121338 239.635559,174.935852 241.176483,177.812271 
	C243.288147,176.560898 243.545410,174.411911 244.393311,172.743515 
	C250.720490,160.293625 260.264771,152.847992 274.698181,152.683411 
	C290.696411,152.500961 303.850616,157.905991 311.885864,172.425995 
	C319.928802,186.959930 320.875244,202.823654 319.749695,219.010315 
	C317.180145,255.963242 298.498627,284.118286 271.571808,307.854675 
	C254.685623,322.740112 236.065140,335.468781 219.050171,350.181824 
	C208.163162,359.595947 197.796921,369.527435 192.870712,383.619934 
	C187.624191,398.628754 190.207169,412.512146 199.485825,425.177826 
	C203.451035,430.590515 208.660507,434.221222 215.695740,434.852783 
	C219.409195,435.186127 220.761597,434.013763 220.734695,430.219879 
	C220.659180,419.567810 220.311340,408.897308 221.677170,398.281219 
	C223.353287,385.253204 226.048798,372.622223 235.598938,362.691864 
	C256.804779,340.641754 293.960693,348.895599 303.684631,377.648285 
	C306.894684,387.140106 308.816620,396.921295 311.329590,406.569763 
	C312.464417,410.926941 313.980408,415.134705 315.907867,419.223969 
	C319.822662,427.529541 326.214081,432.602844 335.207550,434.216187 
	C341.143219,435.280945 347.167816,435.134735 353.114929,434.280670 
	C365.168427,432.549713 371.197449,424.748474 373.643768,413.449036 
	C374.885925,407.711639 375.047211,401.893555 375.048401,396.069214 
	C375.063873,318.574738 375.051941,241.080231 375.061646,163.585739 
	C375.062714,154.886642 375.453033,154.559921 384.106659,155.100128 
	C405.832458,156.456390 416.409912,165.534653 420.085388,186.695618 
	C421.360901,194.039001 422.116364,201.570251 422.138275,209.018539 
	C422.323944,272.178680 422.285187,335.339478 422.314117,399.000061 
z"/>
</svg>