<svg version="1.1" id="Layer_1" xmlns="http://www.w3.org/2000/svg" xmlns:xlink="http://www.w3.org/1999/xlink" x="0px" y="0px"
	 width="100%" viewBox="0 0 512 512" enable-background="new 0 0 512 512" xml:space="preserve">
<path fill="#000000" opacity="1.000000" stroke="none" 
	d="
M228.336777,256.056519 
	C223.897202,253.644562 225.953278,250.204697 226.365280,247.144775 
	C226.794266,243.958664 229.411377,244.124741 231.754715,244.041000 
	C240.561188,243.726318 249.341812,243.588409 257.878265,240.729416 
	C275.106567,234.959320 281.330231,221.219131 280.192383,203.978745 
	C279.805267,198.112930 278.570801,192.468903 274.871490,187.647034 
	C267.096497,177.512695 256.395355,175.609253 244.821625,177.826523 
	C233.139236,180.064606 226.664505,188.239487 223.585556,199.303345 
	C222.834274,202.002914 222.588989,204.852768 222.224045,207.648270 
	C221.585236,212.541519 219.931091,213.587265 214.276474,213.361633 
	C209.538177,213.172577 209.558990,210.172577 209.798141,206.796158 
	C210.809509,192.517166 213.282501,178.634811 222.162903,166.856201 
	C234.334457,150.712341 259.734955,147.806763 275.902771,160.131546 
	C294.957825,174.657288 303.079071,214.683670 285.719025,234.732025 
	C281.774170,239.287766 277.528198,243.454758 272.488098,246.804382 
	C271.172729,247.678574 269.363037,248.087433 268.713379,250.281998 
	C273.567200,253.571930 279.000214,256.125854 283.504730,260.046936 
	C295.264587,270.283478 300.713776,283.441589 301.288727,298.760803 
	C302.300812,325.727295 293.833496,350.138397 281.266968,373.538910 
	C273.136475,388.679016 265.910278,404.244476 265.149048,421.893463 
	C264.781403,430.416382 265.616272,438.820068 267.677917,447.108368 
	C269.609741,454.874756 269.407776,455.225128 261.940735,458.768646 
	C259.778839,457.518127 259.175049,455.129364 258.365112,453.056335 
	C247.275284,424.672485 248.256134,396.554962 260.008301,368.538025 
	C265.304596,355.911774 273.496399,344.806763 278.444855,332.016235 
	C283.040955,320.136536 286.433197,308.009308 286.648926,295.208679 
	C286.936890,278.123932 278.885712,267.144806 262.661987,261.208832 
	C251.667572,257.186188 240.326324,256.200745 228.336777,256.056519 
z"/>
</svg>