<svg version="1.1" id="Layer_1" xmlns="http://www.w3.org/2000/svg" xmlns:xlink="http://www.w3.org/1999/xlink" x="0px" y="0px"
	 width="100%" viewBox="0 0 512 514" enable-background="new 0 0 512 514" xml:space="preserve">
<path fill="#FFFFFF" opacity="1.000000" stroke="none" 
	d="
M244.000000,515.000000 
	C162.686356,515.000000 81.872696,515.000000 1.029523,515.000000 
	C1.029523,343.728058 1.029523,172.456131 1.029523,1.092098 
	C171.563675,1.092098 342.127411,1.092098 512.845581,1.092098 
	C512.845581,172.333221 512.845581,343.666595 512.845581,515.000000 
	C423.456085,515.000000 333.978058,515.000000 244.000000,515.000000 
M209.895615,89.347084 
	C209.596039,94.977272 208.716064,100.648064 209.106644,106.229958 
	C210.237701,122.394096 221.952820,133.064911 237.349731,132.136230 
	C250.131058,131.365295 258.188690,123.545197 264.036133,112.996010 
	C267.254608,107.189705 267.041962,106.951088 260.754059,103.783401 
	C260.318726,104.161247 259.703766,104.498772 259.366791,105.017052 
	C254.725922,112.154793 236.644699,114.618340 230.225189,111.361221 
	C227.223572,109.838249 224.180313,107.617477 222.244003,104.929230 
	C217.512924,98.360886 221.280609,90.654213 229.325867,91.165085 
	C236.041428,91.591530 242.625824,94.083549 249.268311,95.660789 
	C249.243484,96.169052 249.218643,96.677307 249.193817,97.185570 
	C251.167053,95.479599 253.140274,93.773628 255.403656,91.816811 
	C253.734665,88.883995 252.407349,86.021446 250.610687,83.492302 
	C244.874069,75.416931 237.366959,70.208206 227.035934,71.256500 
	C216.842667,72.290817 212.737335,79.871506 209.895615,89.347084 
z"/>
<path fill="#030303" opacity="1.000000" stroke="none" 
	d="
M209.941284,88.940231 
	C212.737335,79.871506 216.842667,72.290817 227.035934,71.256500 
	C237.366959,70.208206 244.874069,75.416931 250.610687,83.492302 
	C252.407349,86.021446 253.734665,88.883995 255.403656,91.816811 
	C253.140274,93.773628 251.167053,95.479599 249.193817,97.185570 
	C249.218643,96.677307 249.243484,96.169052 249.268311,95.660789 
	C242.625824,94.083549 236.041428,91.591530 229.325867,91.165085 
	C221.280609,90.654213 217.512924,98.360886 222.244003,104.929230 
	C224.180313,107.617477 227.223572,109.838249 230.225189,111.361221 
	C236.644699,114.618340 254.725922,112.154793 259.366791,105.017052 
	C259.703766,104.498772 260.318726,104.161247 260.754059,103.783401 
	C267.041962,106.951088 267.254608,107.189705 264.036133,112.996010 
	C258.188690,123.545197 250.131058,131.365295 237.349731,132.136230 
	C221.952820,133.064911 210.237701,122.394096 209.106644,106.229958 
	C208.716064,100.648064 209.596039,94.977272 209.941284,88.940231 
z"/>
</svg>