<svg version="1.1" id="Layer_1" xmlns="http://www.w3.org/2000/svg" xmlns:xlink="http://www.w3.org/1999/xlink" x="0px" y="0px"
	 width="100%" viewBox="0 0 512 512" enable-background="new 0 0 512 512" xml:space="preserve">
<path fill="#000000" opacity="1.000000" stroke="none" 
	d="
M213.886902,394.975037 
	C206.485855,382.058746 206.285904,368.887268 211.734482,355.850433 
	C216.715897,343.931488 229.736526,340.670074 241.606949,347.650208 
	C247.396561,351.054688 251.234894,356.210846 254.298828,362.063721 
	C255.578537,364.508270 255.410812,366.415375 253.109421,368.139160 
	C251.010406,369.711304 249.350800,371.873810 246.180481,369.849060 
	C240.884689,366.466888 235.067398,364.610260 228.661423,365.214355 
	C222.057312,365.837189 218.923965,371.788849 222.349045,377.550476 
	C225.838379,383.420197 231.484497,385.875946 237.988297,385.511993 
	C245.620712,385.084930 253.363068,384.307129 259.048248,378.070984 
	C260.480377,376.500061 261.962036,376.838348 263.463165,377.966492 
	C265.017670,379.134827 267.289703,380.009857 266.310791,382.571564 
	C261.954529,393.971802 254.360641,402.289124 242.287872,405.240295 
	C230.995865,408.000549 221.225861,405.009521 213.886902,394.975037 
z"/>
</svg>