<svg version="1.1" id="Layer_1" xmlns="http://www.w3.org/2000/svg" xmlns:xlink="http://www.w3.org/1999/xlink" x="0px" y="0px"
	 width="100%" viewBox="0 0 512 514" enable-background="new 0 0 512 514" xml:space="preserve">
<path fill="#FFFFFF" opacity="1.000000" stroke="none" 
	d="
M335.000000,515.000000 
	C223.360397,515.000000 112.220802,515.000000 1.040601,515.000000 
	C1.040601,343.735474 1.040601,172.470901 1.040601,1.103177 
	C171.556274,1.103177 342.112640,1.103177 512.834473,1.103177 
	C512.834473,172.333206 512.834473,343.666595 512.834473,515.000000 
	C453.804199,515.000000 394.652100,515.000000 335.000000,515.000000 
M232.123886,97.377747 
	C245.666183,94.245415 259.208466,91.113083 273.293030,87.855331 
	C272.244568,85.238998 271.521393,83.947906 271.211029,82.564217 
	C270.252655,78.291473 268.233063,77.064293 263.785919,78.554520 
	C259.092712,80.127205 254.093170,81.001480 249.156998,81.588531 
	C238.845032,82.814919 228.486710,83.651581 218.277023,84.635841 
	C218.838730,74.700684 219.694366,65.901398 219.723343,57.099377 
	C219.747620,49.728069 218.253494,42.503571 213.465057,36.473351 
	C208.807053,30.607370 201.975266,29.533770 196.493118,34.413231 
	C190.823334,39.459686 185.727554,45.151016 180.331146,50.610359 
	C181.535995,52.256508 182.273972,53.346767 183.098114,54.367447 
	C183.902023,55.363075 184.793976,56.287582 185.798859,57.413086 
	C187.913696,55.642620 189.820663,54.061302 191.711227,52.460598 
	C197.327087,47.705738 202.788864,49.134010 205.178589,56.329090 
	C208.214188,65.468834 206.143967,74.598412 204.893494,85.031906 
	C191.787384,81.791763 179.413223,78.688774 167.005402,75.726799 
	C165.631088,75.398727 163.341553,75.288559 162.703857,76.073921 
	C158.364899,81.417664 154.355118,87.028671 149.904861,93.001953 
	C167.656479,97.895950 185.034088,100.269737 203.304153,100.133141 
	C201.642258,110.472893 200.039261,120.446121 198.395325,130.674118 
	C201.495346,131.860764 204.500259,133.011002 207.923065,134.321213 
	C210.452576,122.426369 212.864883,111.082695 215.303085,99.617256 
	C220.724976,98.941139 226.003693,98.282890 232.123886,97.377747 
z"/>
<path fill="#040404" opacity="1.000000" stroke="none" 
	d="
M231.703156,97.501190 
	C226.003693,98.282890 220.724976,98.941139 215.303085,99.617256 
	C212.864883,111.082695 210.452576,122.426369 207.923065,134.321213 
	C204.500259,133.011002 201.495346,131.860764 198.395325,130.674118 
	C200.039261,120.446121 201.642258,110.472893 203.304153,100.133141 
	C185.034088,100.269737 167.656479,97.895950 149.904861,93.001953 
	C154.355118,87.028671 158.364899,81.417664 162.703857,76.073921 
	C163.341553,75.288559 165.631088,75.398727 167.005402,75.726799 
	C179.413223,78.688774 191.787384,81.791763 204.893494,85.031906 
	C206.143967,74.598412 208.214188,65.468834 205.178589,56.329090 
	C202.788864,49.134010 197.327087,47.705738 191.711227,52.460598 
	C189.820663,54.061302 187.913696,55.642620 185.798859,57.413086 
	C184.793976,56.287582 183.902023,55.363075 183.098114,54.367447 
	C182.273972,53.346767 181.535995,52.256508 180.331146,50.610359 
	C185.727554,45.151016 190.823334,39.459686 196.493118,34.413231 
	C201.975266,29.533770 208.807053,30.607370 213.465057,36.473351 
	C218.253494,42.503571 219.747620,49.728069 219.723343,57.099377 
	C219.694366,65.901398 218.838730,74.700684 218.277023,84.635841 
	C228.486710,83.651581 238.845032,82.814919 249.156998,81.588531 
	C254.093170,81.001480 259.092712,80.127205 263.785919,78.554520 
	C268.233063,77.064293 270.252655,78.291473 271.211029,82.564217 
	C271.521393,83.947906 272.244568,85.238998 273.293030,87.855331 
	C259.208466,91.113083 245.666183,94.245415 231.703156,97.501190 
z"/>
</svg>