<svg version="1.1" id="Layer_1" xmlns="http://www.w3.org/2000/svg" xmlns:xlink="http://www.w3.org/1999/xlink" x="0px" y="0px"
	 width="100%" viewBox="0 0 512 514" enable-background="new 0 0 512 514" xml:space="preserve">
<path fill="#FFFFFF" opacity="1.000000" stroke="none" 
	d="
M222.000000,515.000000 
	C148.017899,515.000000 74.535789,515.000000 1.026844,515.000000 
	C1.026844,343.726288 1.026844,172.452560 1.026844,1.089420 
	C171.565445,1.089420 342.130951,1.089420 512.848267,1.089420 
	C512.848267,172.333237 512.848267,343.666595 512.848267,515.000000 
	C416.119171,515.000000 319.309601,515.000000 222.000000,515.000000 
M159.561325,80.038925 
	C156.443604,84.209274 153.325882,88.379616 149.920654,92.934525 
	C192.101212,104.914856 232.653763,100.978584 272.898529,86.863564 
	C272.155396,84.995895 271.620728,83.612251 271.055115,82.241386 
	C270.433838,80.735580 269.784027,79.241554 269.050446,77.516121 
	C267.180115,77.923927 265.574615,78.252533 263.979370,78.624977 
	C232.304337,86.020340 200.759827,86.770882 169.591522,76.208702 
	C165.000793,74.653015 162.096085,75.144112 159.561325,80.038925 
z"/>
<path fill="#040404" opacity="1.000000" stroke="none" 
	d="
M159.769028,79.750648 
	C162.096085,75.144112 165.000793,74.653015 169.591522,76.208702 
	C200.759827,86.770882 232.304337,86.020340 263.979370,78.624977 
	C265.574615,78.252533 267.180115,77.923927 269.050446,77.516121 
	C269.784027,79.241554 270.433838,80.735580 271.055115,82.241386 
	C271.620728,83.612251 272.155396,84.995895 272.898529,86.863564 
	C232.653763,100.978584 192.101212,104.914856 149.920654,92.934525 
	C153.325882,88.379616 156.443604,84.209274 159.769028,79.750648 
z"/>
</svg>