<svg version="1.1" id="Layer_1" xmlns="http://www.w3.org/2000/svg" xmlns:xlink="http://www.w3.org/1999/xlink" x="0px" y="0px"
	 width="100%" viewBox="0 0 512 514" enable-background="new 0 0 512 514" xml:space="preserve">
<path fill="#FFFFFF" opacity="1.000000" stroke="none" 
	d="
M336.000000,515.000000 
	C224.027145,515.000000 112.554298,515.000000 1.040723,515.000000 
	C1.040723,343.735535 1.040723,172.471069 1.040723,1.103299 
	C171.556198,1.103299 342.112488,1.103299 512.834351,1.103299 
	C512.834351,172.333206 512.834351,343.666595 512.834351,515.000000 
	C454.137695,515.000000 395.318848,515.000000 336.000000,515.000000 
M260.615265,117.925842 
	C242.200150,100.777290 226.733154,81.343964 215.346664,58.840050 
	C214.423172,57.014893 214.686478,54.099674 215.401749,52.039352 
	C216.784775,48.055588 218.883835,44.320404 221.069153,39.666374 
	C213.824448,40.583897 207.604462,41.498253 201.354797,42.109062 
	C198.288925,42.408707 196.891159,43.851368 195.807129,46.690189 
	C187.102478,69.485298 174.669739,89.983871 157.091400,107.051819 
	C150.559326,113.394226 143.321777,119.010056 136.156265,125.171936 
	C137.739914,127.964355 139.423874,130.933624 141.111618,133.909592 
	C166.752350,118.538368 186.865631,98.115532 203.097153,73.234123 
	C219.889801,97.784256 239.303284,118.636848 264.571381,133.954666 
	C266.275970,130.630020 267.765076,127.725639 269.250977,124.827515 
	C266.333313,122.513763 263.739899,120.457138 260.615265,117.925842 
z"/>
<path fill="#040404" opacity="1.000000" stroke="none" 
	d="
M260.880859,118.163177 
	C263.739899,120.457138 266.333313,122.513763 269.250977,124.827515 
	C267.765076,127.725639 266.275970,130.630020 264.571381,133.954666 
	C239.303284,118.636848 219.889801,97.784256 203.097153,73.234123 
	C186.865631,98.115532 166.752350,118.538368 141.111618,133.909592 
	C139.423874,130.933624 137.739914,127.964355 136.156265,125.171936 
	C143.321777,119.010056 150.559326,113.394226 157.091400,107.051819 
	C174.669739,89.983871 187.102478,69.485298 195.807129,46.690189 
	C196.891159,43.851368 198.288925,42.408707 201.354797,42.109062 
	C207.604462,41.498253 213.824448,40.583897 221.069153,39.666374 
	C218.883835,44.320404 216.784775,48.055588 215.401749,52.039352 
	C214.686478,54.099674 214.423172,57.014893 215.346664,58.840050 
	C226.733154,81.343964 242.200150,100.777290 260.880859,118.163177 
z"/>
</svg>