<svg version="1.1" id="Layer_1" xmlns="http://www.w3.org/2000/svg" xmlns:xlink="http://www.w3.org/1999/xlink" x="0px" y="0px"
	 width="100%" viewBox="0 0 512 514" enable-background="new 0 0 512 514" xml:space="preserve">
<path fill="#FFFFFF" opacity="1.000000" stroke="none" 
	d="
M270.000000,515.000000 
	C180.021790,515.000000 90.543587,515.000000 1.032688,515.000000 
	C1.032688,343.730194 1.032688,172.460358 1.032688,1.095263 
	C171.561554,1.095263 342.123199,1.095263 512.842407,1.095263 
	C512.842407,172.333221 512.842407,343.666595 512.842407,515.000000 
	C432.126984,515.000000 351.313507,515.000000 270.000000,515.000000 
M169.984070,128.440506 
	C180.544556,120.033371 191.105026,111.626236 202.735413,102.367363 
	C201.184326,112.418709 199.800339,121.387215 198.368881,130.663452 
	C201.445221,131.840973 204.441528,132.987854 207.732498,134.247528 
	C210.199127,123.112030 212.547699,112.509483 215.073685,101.106010 
	C227.094955,114.283958 239.894180,125.144714 254.795792,133.917755 
	C256.532440,130.694214 258.086578,127.809441 259.764496,124.694916 
	C246.177902,114.580246 234.287567,103.225464 224.868622,89.881233 
	C241.105408,85.947868 256.872253,82.128349 273.226593,78.166512 
	C271.597260,74.129662 270.384338,71.124474 269.076385,67.883881 
	C252.579529,72.014938 236.135223,74.603928 219.031097,74.557297 
	C219.285034,71.588013 219.529694,69.278160 219.672440,66.962021 
	C220.293640,56.882462 219.829788,46.954208 214.636124,37.913357 
	C210.420258,30.574539 202.370148,28.902340 196.079391,34.520168 
	C190.536133,39.470455 185.664566,45.172890 180.318542,50.727966 
	C182.238037,53.203777 183.827820,55.254337 185.608154,57.550652 
	C188.185745,55.403690 190.474518,53.512329 192.746826,51.601379 
	C196.991440,48.031780 202.264709,48.984837 204.295868,54.184391 
	C206.793060,60.576946 207.586670,67.268715 205.406891,75.489716 
	C192.592087,72.353882 180.064224,69.221100 167.488342,66.294716 
	C165.891266,65.923088 163.256195,65.974693 162.442184,66.949425 
	C158.089706,72.161285 154.162796,77.728539 149.277237,84.257408 
	C164.132950,86.643822 178.016815,88.874123 193.508423,91.362686 
	C180.960953,103.217918 169.186630,114.342667 157.147049,125.718048 
	C158.385101,128.041779 159.908356,130.900803 161.534073,133.952164 
	C164.392868,132.106857 166.900314,130.488312 169.984070,128.440506 
z"/>
<path fill="#040404" opacity="1.000000" stroke="none" 
	d="
M169.695923,128.655151 
	C166.900314,130.488312 164.392868,132.106857 161.534073,133.952164 
	C159.908356,130.900803 158.385101,128.041779 157.147049,125.718048 
	C169.186630,114.342667 180.960953,103.217918 193.508423,91.362686 
	C178.016815,88.874123 164.132950,86.643822 149.277237,84.257408 
	C154.162796,77.728539 158.089706,72.161285 162.442184,66.949425 
	C163.256195,65.974693 165.891266,65.923088 167.488342,66.294716 
	C180.064224,69.221100 192.592087,72.353882 205.406891,75.489716 
	C207.586670,67.268715 206.793060,60.576946 204.295868,54.184391 
	C202.264709,48.984837 196.991440,48.031780 192.746826,51.601379 
	C190.474518,53.512329 188.185745,55.403690 185.608154,57.550652 
	C183.827820,55.254337 182.238037,53.203777 180.318542,50.727966 
	C185.664566,45.172890 190.536133,39.470455 196.079391,34.520168 
	C202.370148,28.902340 210.420258,30.574539 214.636124,37.913357 
	C219.829788,46.954208 220.293640,56.882462 219.672440,66.962021 
	C219.529694,69.278160 219.285034,71.588013 219.031097,74.557297 
	C236.135223,74.603928 252.579529,72.014938 269.076385,67.883881 
	C270.384338,71.124474 271.597260,74.129662 273.226593,78.166512 
	C256.872253,82.128349 241.105408,85.947868 224.868622,89.881233 
	C234.287567,103.225464 246.177902,114.580246 259.764496,124.694916 
	C258.086578,127.809441 256.532440,130.694214 254.795792,133.917755 
	C239.894180,125.144714 227.094955,114.283958 215.073685,101.106010 
	C212.547699,112.509483 210.199127,123.112030 207.732498,134.247528 
	C204.441528,132.987854 201.445221,131.840973 198.368881,130.663452 
	C199.800339,121.387215 201.184326,112.418709 202.735413,102.367363 
	C191.105026,111.626236 180.544556,120.033371 169.695923,128.655151 
z"/>
</svg>