<svg version="1.1" id="Layer_1" xmlns="http://www.w3.org/2000/svg" xmlns:xlink="http://www.w3.org/1999/xlink" x="0px" y="0px"
	 width="100%" viewBox="0 0 512 514" enable-background="new 0 0 512 514" xml:space="preserve">
<path fill="#FFFFFF" opacity="1.000000" stroke="none" 
	d="
M272.000000,515.000000 
	C181.355286,515.000000 91.210571,515.000000 1.032931,515.000000 
	C1.032931,343.730347 1.032931,172.460678 1.032931,1.095507 
	C171.561401,1.095507 342.122864,1.095507 512.842163,1.095507 
	C512.842163,172.333221 512.842163,343.666595 512.842163,515.000000 
	C432.793976,515.000000 352.647003,515.000000 272.000000,515.000000 
M244.098511,119.376511 
	C250.733948,124.313408 257.369385,129.250305 264.300293,134.407028 
	C266.191711,130.754913 267.701477,127.839745 269.266632,124.817642 
	C250.040955,110.250641 235.381516,92.060951 222.258606,71.568024 
	C240.084061,69.075760 256.719513,65.657555 272.942261,59.346386 
	C271.524963,55.969208 270.272003,52.983593 269.422241,50.958771 
	C254.855637,52.973930 241.099609,55.509510 227.228943,56.646107 
	C206.929382,58.309498 187.099609,54.988155 167.713181,48.803349 
	C166.080994,48.282642 163.162613,48.501213 162.251526,49.573799 
	C157.955521,54.631329 154.150909,60.106266 149.607956,66.185852 
	C161.212646,68.363365 172.203018,70.425606 183.449341,72.535881 
	C171.613541,93.776070 155.433136,110.670593 135.908432,124.607178 
	C136.899017,126.462250 137.645630,127.931679 138.458542,129.363449 
	C139.327438,130.893829 140.258911,132.388687 141.157440,133.889679 
	C166.727936,118.344498 186.966644,97.978836 203.357452,73.216370 
	C215.104416,90.447342 227.979141,105.882843 244.098511,119.376511 
z"/>
<path fill="#040404" opacity="1.000000" stroke="none" 
	d="
M243.818939,119.157188 
	C227.979141,105.882843 215.104416,90.447342 203.357452,73.216370 
	C186.966644,97.978836 166.727936,118.344498 141.157440,133.889679 
	C140.258911,132.388687 139.327438,130.893829 138.458542,129.363449 
	C137.645630,127.931679 136.899017,126.462250 135.908432,124.607178 
	C155.433136,110.670593 171.613541,93.776070 183.449341,72.535881 
	C172.203018,70.425606 161.212646,68.363365 149.607956,66.185852 
	C154.150909,60.106266 157.955521,54.631329 162.251526,49.573799 
	C163.162613,48.501213 166.080994,48.282642 167.713181,48.803349 
	C187.099609,54.988155 206.929382,58.309498 227.228943,56.646107 
	C241.099609,55.509510 254.855637,52.973930 269.422241,50.958771 
	C270.272003,52.983593 271.524963,55.969208 272.942261,59.346386 
	C256.719513,65.657555 240.084061,69.075760 222.258606,71.568024 
	C235.381516,92.060951 250.040955,110.250641 269.266632,124.817642 
	C267.701477,127.839745 266.191711,130.754913 264.300293,134.407028 
	C257.369385,129.250305 250.733948,124.313408 243.818939,119.157188 
z"/>
</svg>