<svg version="1.1" id="Layer_1" xmlns="http://www.w3.org/2000/svg" xmlns:xlink="http://www.w3.org/1999/xlink" x="0px" y="0px"
	 width="100%" viewBox="0 0 512 514" enable-background="new 0 0 512 514" xml:space="preserve">
<path fill="#FFFFFF" opacity="1.000000" stroke="none" 
	d="
M343.000000,515.000000 
	C228.694382,515.000000 114.888763,515.000000 1.041575,515.000000 
	C1.041575,343.736115 1.041575,172.472198 1.041575,1.104151 
	C171.555634,1.104151 342.111328,1.104151 512.833496,1.104151 
	C512.833496,172.333206 512.833496,343.666595 512.833496,515.000000 
	C456.472168,515.000000 399.986084,515.000000 343.000000,515.000000 
M214.776321,123.356018 
	C228.005081,103.301468 245.305008,87.436874 265.194580,74.203148 
	C266.704407,73.198578 268.869171,71.523628 268.861664,70.170708 
	C268.822510,63.147079 268.176849,56.126823 267.698730,48.397881 
	C240.003967,67.568031 218.367630,91.020096 202.796661,120.314026 
	C184.858932,103.959045 175.477829,82.650215 165.580856,61.227322 
	C159.820297,66.301865 154.508545,70.981041 149.131897,75.717400 
	C163.876663,100.655533 182.600220,120.997322 206.158859,137.269836 
	C208.993759,132.640701 211.661957,128.283783 214.776321,123.356018 
z"/>
<path fill="#040404" opacity="1.000000" stroke="none" 
	d="
M214.553223,123.641434 
	C211.661957,128.283783 208.993759,132.640701 206.158859,137.269836 
	C182.600220,120.997322 163.876663,100.655533 149.131897,75.717400 
	C154.508545,70.981041 159.820297,66.301865 165.580856,61.227322 
	C175.477829,82.650215 184.858932,103.959045 202.796661,120.314026 
	C218.367630,91.020096 240.003967,67.568031 267.698730,48.397881 
	C268.176849,56.126823 268.822510,63.147079 268.861664,70.170708 
	C268.869171,71.523628 266.704407,73.198578 265.194580,74.203148 
	C245.305008,87.436874 228.005081,103.301468 214.553223,123.641434 
z"/>
</svg>