<svg version="1.1" id="Layer_1" xmlns="http://www.w3.org/2000/svg" xmlns:xlink="http://www.w3.org/1999/xlink" x="0px" y="0px"
	 width="100%" viewBox="0 0 512 514" enable-background="new 0 0 512 514" xml:space="preserve">
<path fill="#FFFFFF" opacity="1.000000" stroke="none" 
	d="
M308.000000,515.000000 
	C205.358215,515.000000 103.216415,515.000000 1.037314,515.000000 
	C1.037314,343.733276 1.037314,172.466522 1.037314,1.099890 
	C171.558456,1.099890 342.117004,1.099890 512.837769,1.099890 
	C512.837769,172.333206 512.837769,343.666595 512.837769,515.000000 
	C444.799805,515.000000 376.649902,515.000000 308.000000,515.000000 
M174.944290,97.543365 
	C183.409821,121.467842 205.675369,135.565399 229.208801,131.901260 
	C250.103439,128.647995 267.986542,109.929047 270.154388,89.827919 
	C273.140228,62.142044 255.489288,42.938644 237.996841,36.983757 
	C219.504822,30.688591 202.684784,34.247829 188.518951,47.556320 
	C174.212189,60.997215 169.908081,77.716232 174.944290,97.543365 
z"/>
<path fill="#050505" opacity="1.000000" stroke="none" 
	d="
M174.836487,97.150253 
	C169.908081,77.716232 174.212189,60.997215 188.518951,47.556320 
	C202.684784,34.247829 219.504822,30.688591 237.996841,36.983757 
	C255.489288,42.938644 273.140228,62.142044 270.154388,89.827919 
	C267.986542,109.929047 250.103439,128.647995 229.208801,131.901260 
	C205.675369,135.565399 183.409821,121.467842 174.836487,97.150253 
M249.294693,107.769753 
	C260.389008,94.330063 261.860168,77.871574 253.222748,63.824364 
	C244.555954,49.729427 229.105179,43.292973 212.866287,47.012768 
	C197.498886,50.532928 186.045258,64.009369 184.488785,80.401970 
	C183.078079,95.259354 191.711945,109.910866 205.896408,116.730278 
	C220.372208,123.689758 236.417892,120.549919 249.294693,107.769753 
z"/>
<path fill="#FFFFFF" opacity="1.000000" stroke="none" 
	d="
M249.070404,108.047798 
	C236.417892,120.549919 220.372208,123.689758 205.896408,116.730278 
	C191.711945,109.910866 183.078079,95.259354 184.488785,80.401970 
	C186.045258,64.009369 197.498886,50.532928 212.866287,47.012768 
	C229.105179,43.292973 244.555954,49.729427 253.222748,63.824364 
	C261.860168,77.871574 260.389008,94.330063 249.070404,108.047798 
M229.288055,93.025848 
	C234.404602,88.172958 235.787201,82.251862 233.035858,76.975746 
	C230.515121,72.141861 224.975357,69.329895 219.709885,70.378677 
	C214.558960,71.404633 211.064392,74.373062 209.682388,79.561790 
	C208.302734,84.741783 209.738235,89.158676 213.793900,92.508270 
	C218.412598,96.322845 223.498093,96.176613 229.288055,93.025848 
z"/>
<path fill="#050505" opacity="1.000000" stroke="none" 
	d="
M228.969482,93.257370 
	C223.498093,96.176613 218.412598,96.322845 213.793900,92.508270 
	C209.738235,89.158676 208.302734,84.741783 209.682388,79.561790 
	C211.064392,74.373062 214.558960,71.404633 219.709885,70.378677 
	C224.975357,69.329895 230.515121,72.141861 233.035858,76.975746 
	C235.787201,82.251862 234.404602,88.172958 228.969482,93.257370 
z"/>
</svg>