<svg version="1.1" id="Layer_1" xmlns="http://www.w3.org/2000/svg" xmlns:xlink="http://www.w3.org/1999/xlink" x="0px" y="0px"
	 width="100%" viewBox="0 0 512 512" enable-background="new 0 0 512 512" xml:space="preserve">
<path fill="#000000" opacity="1.000000" stroke="none" 
	d="
M247.794037,205.722717 
	C232.490753,237.393341 217.382477,268.743500 202.211212,300.063141 
	C197.923370,308.914978 190.585861,310.778961 183.688110,304.898102 
	C180.803879,302.439117 179.460648,299.353546 180.493134,295.560852 
	C181.014343,293.646210 181.586533,291.707794 182.441986,289.927307 
	C203.715683,245.649948 225.071854,201.412140 246.263916,157.095840 
	C248.087814,153.281769 250.345566,152.052277 254.573502,151.639740 
	C262.189362,150.896606 266.028137,153.686203 269.312836,160.641586 
	C289.221436,202.798431 309.652557,244.708511 329.903381,286.703796 
	C330.481750,287.903168 331.006714,289.128784 331.538391,290.350098 
	C335.062836,298.445770 333.634430,303.638092 327.030823,306.757111 
	C320.243500,309.962921 315.571320,307.946533 311.676514,299.872772 
	C295.398621,266.129547 279.175598,232.359848 262.924408,198.603745 
	C261.201416,195.024857 259.425629,191.471390 257.085388,186.707214 
	C253.709503,193.622986 250.837341,199.506821 247.794037,205.722717 
z"/>
</svg>