<svg version="1.1" id="Layer_1" xmlns="http://www.w3.org/2000/svg" xmlns:xlink="http://www.w3.org/1999/xlink" x="0px" y="0px"
	 width="100%" viewBox="0 0 512 512" enable-background="new 0 0 512 512" xml:space="preserve">
<path fill="#000000" opacity="1.000000" stroke="none" 
	d="
M199.844315,266.958191 
	C190.001938,235.508621 190.895844,205.391281 209.552383,177.671722 
	C234.478546,140.636841 289.449188,144.224335 309.551575,184.431641 
	C318.299805,201.929184 320.755432,220.371780 319.593933,239.654724 
	C318.613373,255.933304 314.752563,271.162750 305.264679,284.655945 
	C282.851074,316.531494 234.295425,317.436584 210.645279,286.444122 
	C206.169739,280.579132 202.516907,274.264618 199.844315,266.958191 
M286.307648,186.166779 
	C268.931274,173.736191 245.065475,173.652435 228.397751,186.001419 
	C220.777786,191.646973 215.747299,199.249695 212.812958,208.111771 
	C208.145981,222.206573 207.696625,236.560226 212.020752,250.806442 
	C218.511414,272.190460 234.214951,283.725006 256.481262,283.913025 
	C278.429962,284.098297 294.552338,273.455078 301.133209,253.968887 
	C305.026642,242.440308 305.612122,230.560120 303.729279,218.504425 
	C301.759308,205.891052 296.827423,194.947113 286.307648,186.166779 
z"/>
</svg>