<svg version="1.1" id="Layer_1" xmlns="http://www.w3.org/2000/svg" xmlns:xlink="http://www.w3.org/1999/xlink" x="0px" y="0px"
	 width="100%" viewBox="0 0 512 512" enable-background="new 0 0 512 512" xml:space="preserve">
<path fill="#000000" opacity="1.000000" stroke="none" 
	d="
M208.200867,236.271637 
	C211.835876,228.735718 215.137833,221.446838 218.827164,214.359634 
	C220.429581,211.281387 219.834030,209.336212 217.599548,206.917557 
	C204.711548,192.967255 191.964798,178.886246 179.200302,164.822174 
	C176.370026,161.703735 173.734558,158.605591 175.311356,153.732147 
	C176.677170,149.510849 178.650543,146.025467 183.116272,144.780869 
	C187.768875,143.484177 191.633713,145.176300 194.780472,148.648468 
	C200.933350,155.437637 207.054581,162.255478 213.189850,169.060623 
	C218.867020,175.357605 224.545410,181.653488 230.186401,187.908997 
	C232.532623,187.084457 232.824036,185.078766 233.580597,183.542145 
	C237.994827,174.576477 242.447540,165.624207 246.575195,156.525833 
	C248.198074,152.948608 250.504852,152.102158 254.261093,151.684998 
	C262.007111,150.824738 266.013885,153.628036 269.404419,160.834274 
	C289.752960,204.083206 310.679077,247.060349 331.384216,290.141724 
	C333.546326,294.640503 335.014679,299.311005 331.201782,303.669006 
	C325.164978,310.568878 316.530243,309.575134 312.442322,301.339111 
	C305.408203,287.167389 298.647644,272.859802 291.781952,258.604523 
	C281.014984,236.248901 270.259674,213.887650 259.483734,191.536331 
	C258.911926,190.350266 258.194580,189.234360 256.826965,186.816193 
	C253.578979,193.678802 250.644196,199.659271 247.939972,205.742264 
	C247.228165,207.343414 248.883911,208.465561 249.839600,209.545975 
	C254.033936,214.287704 258.335541,218.934814 262.515564,223.688889 
	C266.858795,228.628586 266.667511,234.726547 262.141998,239.286865 
	C258.169464,243.289963 252.100113,243.286346 247.224899,239.253662 
	C243.669968,236.313080 241.266205,232.149963 237.351715,229.610367 
	C235.132568,230.699341 234.712341,232.794693 233.871490,234.531128 
	C223.274307,256.415619 212.752182,278.336456 202.137283,300.212341 
	C198.370712,307.974792 193.355545,309.958466 186.479828,306.675476 
	C180.128815,303.643036 178.528122,298.197357 182.067657,290.651672 
	C187.018951,280.096344 192.150894,269.625732 197.203598,259.117950 
	C200.812393,251.612930 204.417969,244.106384 208.200867,236.271637 
z"/>
</svg>