<svg version="1.1" id="Layer_1" xmlns="http://www.w3.org/2000/svg" xmlns:xlink="http://www.w3.org/1999/xlink" x="0px" y="0px"
	 width="100%" viewBox="0 0 512 512" enable-background="new 0 0 512 512" xml:space="preserve">
<path fill="#000000" opacity="1.000000" stroke="none" 
	d="
M194.625412,219.801804 
	C195.413635,208.776749 197.979828,198.572830 202.909637,189.274734 
	C205.754791,183.908508 205.265778,180.498901 200.925827,176.445480 
	C196.203247,172.034714 192.112411,166.928192 187.910522,161.985291 
	C184.425735,157.885986 185.456818,153.579376 188.076706,149.524872 
	C190.668854,145.513290 194.415344,143.857864 199.225632,144.593552 
	C201.898636,145.002365 203.753265,146.601425 205.456604,148.448135 
	C209.407059,152.731125 213.424210,156.962631 217.171188,161.419418 
	C219.379395,164.045914 221.107605,164.707382 224.172806,162.401855 
	C243.078110,148.182068 272.586761,149.050903 290.345245,161.735474 
	C303.362457,171.033447 311.145844,184.046661 315.357361,199.205856 
	C322.676483,225.550751 322.334381,251.626892 310.074646,276.510284 
	C298.487030,300.029480 277.977325,310.362946 252.608383,308.762543 
	C223.909149,306.952087 205.294907,286.394562 197.847610,260.230652 
	C194.138397,247.199448 192.520721,233.835739 194.625412,219.801804 
M243.872284,190.641739 
	C245.775635,192.739731 247.686722,194.830795 249.581009,196.936935 
	C257.824768,206.102631 266.180328,215.171585 274.252869,224.485779 
	C278.033356,228.847763 277.261353,235.281540 273.053253,239.318542 
	C269.102203,243.108948 263.445435,243.330475 258.969788,239.704987 
	C257.297638,238.350449 255.831497,236.721695 254.375885,235.122864 
	C244.056122,223.787842 233.790268,212.403534 223.430084,201.105698 
	C222.049088,199.599716 221.052338,197.471405 218.158859,196.998230 
	C207.619888,216.247025 205.848557,236.269791 214.113403,256.514496 
	C221.965149,275.747345 238.668869,285.052704 261.227081,283.746429 
	C279.693634,282.677094 293.008636,273.499054 300.173279,256.364838 
	C305.237823,244.253036 305.310516,231.517059 303.815430,218.566437 
	C300.547333,190.257217 275.150879,171.852417 247.181900,177.975449 
	C243.531250,178.774673 239.665024,179.162308 236.522568,182.022720 
	C238.358078,185.327469 241.210632,187.449982 243.872284,190.641739 
z"/>
</svg>