<svg version="1.1" id="Layer_1" xmlns="http://www.w3.org/2000/svg" xmlns:xlink="http://www.w3.org/1999/xlink" x="0px" y="0px"
	 width="100%" viewBox="0 0 512 512" enable-background="new 0 0 512 512" xml:space="preserve">
<path fill="#000000" opacity="1.000000" stroke="none" 
	d="
M253.000427,211.001343 
	C271.180176,192.622238 289.063995,174.447525 307.060364,156.384949 
	C313.807251,149.613220 323.112640,151.275589 326.526733,159.620651 
	C328.644714,164.797546 326.284302,168.577820 322.805573,172.104431 
	C303.260986,191.918182 283.740936,211.756104 264.210785,231.584122 
	C249.475510,246.544174 234.721146,261.485535 220.029068,276.487885 
	C218.694366,277.850800 216.886658,278.941803 216.398041,281.114044 
	C218.164246,282.141113 220.024231,281.645294 221.782883,281.647522 
	C252.615448,281.686768 283.448090,281.665771 314.280701,281.685913 
	C324.775482,281.692749 329.995605,289.529785 326.388611,299.562927 
	C324.774933,304.051483 321.817169,306.337189 317.051910,306.337616 
	C276.886261,306.341248 236.720581,306.338165 196.554993,306.392914 
	C193.909683,306.396515 192.197617,305.601807 191.151520,303.017670 
	C188.777573,297.153564 186.337326,291.306458 183.636490,285.588257 
	C182.088257,282.310333 184.043488,280.706421 185.949158,278.782135 
	C208.229034,256.284576 230.486145,233.764450 253.000427,211.001343 
z"/>
</svg>