<svg version="1.1" id="Layer_1" xmlns="http://www.w3.org/2000/svg" xmlns:xlink="http://www.w3.org/1999/xlink" x="0px" y="0px"
	 width="100%" viewBox="0 0 512 512" enable-background="new 0 0 512 512" xml:space="preserve">
<path fill="#000000" opacity="1.000000" stroke="none" 
	d="
M219.996613,215.113708 
	C227.590256,215.113327 234.684753,215.113327 242.773911,215.113327 
	C234.322189,205.819427 226.543716,197.225449 218.713211,188.679153 
	C216.288376,186.032669 214.396637,183.317322 214.605255,179.424301 
	C214.874557,174.399246 217.213135,170.849991 221.676971,168.851868 
	C226.217392,166.819458 230.189606,168.293457 233.406677,171.762390 
	C242.689285,181.771698 251.891998,191.855087 261.124023,201.911301 
	C262.024750,202.892456 263.103668,203.771698 263.774078,204.893021 
	C269.958618,215.237488 279.415741,216.599731 290.374908,215.515930 
	C300.294128,214.534958 310.330597,214.687927 320.296112,215.657867 
	C326.012024,216.214203 328.926605,219.542831 329.312317,225.663269 
	C329.849426,234.185791 327.847931,237.972351 322.015594,239.577286 
	C317.422729,240.841156 312.740540,240.099106 308.100067,240.242432 
	C304.625641,240.349731 301.145294,240.263626 296.368225,240.263626 
	C300.783173,245.192474 304.503479,249.285690 308.153198,253.440887 
	C310.727264,256.371460 312.945068,259.482208 311.934662,263.749207 
	C310.860687,268.284760 308.379608,271.715546 303.771057,272.982697 
	C299.360809,274.195312 295.597809,272.731049 292.523224,269.366211 
	C284.999084,261.131714 277.299469,253.050797 269.985229,244.634506 
	C267.068726,241.278519 263.926086,240.143311 259.589111,240.181366 
	C239.110962,240.361115 218.630112,240.314240 198.150696,240.232849 
	C187.173843,240.189224 182.194870,233.153503 185.454178,222.646729 
	C186.778748,218.376801 189.454865,216.029892 194.042313,215.589249 
	C202.524307,214.774490 211.013962,215.295242 219.996613,215.113708 
z"/>
</svg>