<svg version="1.1" id="Layer_1" xmlns="http://www.w3.org/2000/svg" xmlns:xlink="http://www.w3.org/1999/xlink" x="0px" y="0px"
	 width="100%" viewBox="0 0 512 512" enable-background="new 0 0 512 512" xml:space="preserve">
<path fill="#000000" opacity="1.000000" stroke="none" 
	d="
M211.083160,178.912643 
	C206.436890,173.876495 201.925323,169.193329 197.658127,164.297150 
	C192.527725,158.410492 192.914398,151.386841 198.383316,146.690063 
	C203.015320,142.712036 209.435684,143.812988 214.610168,149.492935 
	C228.745514,165.009079 242.883820,180.522568 256.990784,196.064499 
	C258.320770,197.529785 259.437653,199.188507 260.347626,200.362717 
	C263.656982,199.429947 264.866699,197.516815 266.361511,196.021530 
	C279.671204,182.707367 292.879791,169.291580 306.244476,156.033066 
	C313.114410,149.217712 323.401062,151.985580 325.760132,161.113281 
	C327.031616,166.032959 324.266876,169.412491 321.179962,172.557037 
	C309.275146,184.683990 297.295044,196.737030 285.389282,208.863068 
	C276.952576,217.455872 277.056641,217.427094 285.041748,226.636978 
	C287.923096,229.960297 291.591125,232.946457 291.358368,238.101761 
	C291.145325,242.820419 289.314606,246.676437 284.949188,248.536316 
	C280.711792,250.341675 276.383118,249.929810 272.937408,246.423828 
	C269.669891,243.099182 266.530945,239.644516 263.418610,236.172485 
	C261.722595,234.280472 260.288666,234.178268 258.444885,236.054886 
	C244.199921,250.553375 229.898056,264.995911 215.632980,279.474670 
	C215.317245,279.795166 215.228500,280.339294 214.997971,280.860260 
	C216.809906,282.332794 218.883087,281.639465 220.771973,281.642639 
	C251.261612,281.694275 281.751373,281.674469 312.241089,281.684265 
	C323.917175,281.688019 329.533447,291.035706 324.278961,301.620636 
	C322.471130,305.262512 319.329895,306.315613 315.613800,306.327454 
	C305.783875,306.358734 295.953888,306.371979 286.123901,306.373260 
	C256.467224,306.377136 226.810013,306.284058 197.154480,306.467102 
	C192.826279,306.493805 190.456161,305.281555 189.065613,301.087585 
	C187.499191,296.363159 185.475601,291.748749 183.212219,287.310181 
	C181.395737,283.747955 182.005081,281.393158 184.815491,278.580963 
	C203.068726,260.316284 221.149536,241.879242 239.274353,223.486389 
	C241.253464,221.477997 243.153458,219.391663 245.636765,216.762833 
	C234.120483,204.145340 222.723282,191.658310 211.083160,178.912643 
z"/>
</svg>