<svg version="1.1" id="Layer_1" xmlns="http://www.w3.org/2000/svg" xmlns:xlink="http://www.w3.org/1999/xlink" x="0px" y="0px"
	 width="100%" viewBox="0 0 512 514" enable-background="new 0 0 512 514" xml:space="preserve">
<path fill="#FFFFFF" opacity="1.000000" stroke="none" 
	d="
M328.000000,515.000000 
	C218.693161,515.000000 109.886330,515.000000 1.039749,515.000000 
	C1.039749,343.734894 1.039749,172.469772 1.039749,1.102325 
	C171.556854,1.102325 342.113770,1.102325 512.835327,1.102325 
	C512.835327,172.333206 512.835327,343.666595 512.835327,515.000000 
	C451.469727,515.000000 389.984863,515.000000 328.000000,515.000000 
M234.570190,225.371017 
	C235.421265,226.550827 236.272324,227.730637 237.314545,229.571899 
	C237.499359,229.988800 237.684174,230.405701 237.556122,231.448471 
	C239.770950,233.780792 241.832596,236.296906 244.286667,238.342178 
	C245.105881,239.024902 246.928894,238.503204 248.400040,238.477951 
	C248.400040,238.477951 248.490845,238.399628 249.383682,238.666840 
	C250.927689,238.659332 252.471695,238.651840 254.340958,239.104462 
	C254.894318,239.068298 255.447678,239.032150 256.502838,239.403381 
	C257.812988,238.957703 259.334412,238.799026 260.396942,238.016937 
	C265.150146,234.518250 268.771667,230.042191 269.579895,224.064896 
	C270.300171,218.738358 270.343201,213.320236 270.690796,207.074921 
	C270.740265,205.049210 270.789734,203.023483 271.558929,200.873840 
	C273.324249,195.538223 275.089569,190.202591 277.490936,184.681152 
	C278.274994,183.731903 279.059052,182.782639 280.629517,181.723434 
	C283.750977,180.939484 286.913086,179.383652 289.984772,179.545319 
	C295.096802,179.814377 300.150848,181.184769 305.555847,182.445740 
	C305.555847,182.445740 305.923523,182.757233 305.649231,183.293640 
	C306.175018,183.575867 306.700806,183.858093 307.780457,184.686234 
	C308.152039,185.047806 308.523621,185.409378 308.617401,186.345398 
	C309.432556,186.849518 310.247711,187.353653 311.304779,188.358963 
	C311.417633,188.506195 311.530487,188.653412 311.447998,189.474319 
	C315.746246,197.937393 319.999847,206.423813 324.398438,214.834427 
	C324.957916,215.904205 326.275024,216.577759 327.564331,218.131134 
	C327.701904,218.346848 327.839478,218.562576 327.643188,219.396820 
	C329.286560,222.470383 330.250824,226.431091 335.904449,225.438126 
	C336.887604,225.397720 337.870758,225.357300 339.587799,225.601898 
	C345.243317,225.150711 349.894867,220.013260 350.314117,213.395645 
	C350.542755,212.596008 350.771423,211.796387 351.392517,211.405289 
	C352.132721,210.307007 353.220306,209.305222 353.556458,208.094727 
	C355.670410,200.483047 361.250610,195.831528 369.151520,195.518677 
	C372.804413,195.374039 376.483368,195.720261 380.123810,195.464386 
	C386.393402,195.023682 391.501038,197.746735 395.379517,201.991547 
	C398.956848,205.906876 401.766632,210.667282 404.260437,215.400116 
	C410.157196,226.591187 432.969513,230.241714 441.029388,220.117767 
	C446.519653,213.221512 449.029144,192.233749 444.359619,184.718231 
	C444.126251,184.342697 443.603973,184.146667 443.093018,183.251801 
	C443.058136,182.835220 443.023224,182.418625 443.555695,181.638275 
	C442.595428,180.054688 441.637482,177.143326 440.674438,177.141647 
	C438.007629,177.136963 436.396698,178.892639 436.674774,182.135040 
	C437.098267,187.072601 437.874207,192.202255 436.973358,196.961273 
	C436.243103,200.819046 434.112610,205.336533 431.125549,207.669739 
	C421.996674,214.800430 409.115936,209.841156 405.349762,198.530289 
	C404.868042,197.083557 403.413635,195.960678 402.358002,194.111404 
	C402.250244,193.741730 402.142517,193.372040 402.451111,192.536362 
	C400.683655,188.911819 399.473083,184.835083 396.997223,181.785721 
	C394.347504,178.522247 391.084442,175.125595 385.297394,175.636749 
	C384.864990,175.757706 384.432587,175.878662 383.575836,175.814209 
	C383.575836,175.814209 383.169952,175.591232 383.081512,174.868393 
	C382.466125,174.124100 381.939453,172.836441 381.221649,172.719177 
	C373.679626,171.487350 366.547699,172.234863 360.087585,176.945801 
	C353.690674,181.610657 352.982788,189.392105 349.430664,195.603134 
	C349.166992,196.064194 350.067261,197.190903 350.509552,198.401321 
	C350.509552,198.401321 350.564911,198.799347 350.173645,198.746704 
	C350.173645,198.746704 349.812866,198.907074 349.112091,198.944473 
	C347.944733,200.050568 346.662262,201.059769 345.633331,202.282379 
	C343.295074,205.060654 337.756775,206.672516 334.995483,204.504318 
	C331.819946,202.010864 328.548004,199.100052 326.648743,195.639999 
	C323.263275,189.472610 320.329315,182.930161 318.204498,176.228165 
	C315.114594,166.482208 305.231995,157.038925 293.073303,158.217957 
	C288.637360,158.648117 283.796539,157.782471 279.801300,159.275940 
	C271.580353,162.348984 267.809753,169.992722 264.550293,177.558578 
	C263.926605,179.006271 264.920227,181.150742 265.260651,183.569580 
	C265.178497,183.959991 265.096344,184.350403 264.377228,184.850723 
	C263.379425,187.891830 261.805145,190.878677 261.512604,193.986191 
	C261.015533,199.266144 262.045746,204.763626 261.036804,209.894958 
	C260.393921,213.164581 257.861511,217.101120 255.035019,218.633530 
	C251.689606,220.447281 246.700531,219.923462 244.628601,215.703293 
	C242.948257,212.280716 241.879852,208.147797 241.946823,204.354752 
	C242.141281,193.338196 243.114731,182.337479 243.632614,171.323502 
	C243.843369,166.841141 244.324310,162.216660 243.505966,157.878784 
	C242.411011,152.074493 240.771240,146.201813 238.249298,140.888260 
	C235.940018,136.022736 228.781433,133.634171 223.396912,134.883377 
	C222.981293,134.800568 222.565689,134.717758 221.938385,133.990311 
	C217.608032,129.807236 213.358276,134.105011 209.407990,134.721451 
	C202.613327,135.781815 195.177551,150.225571 196.820435,157.587112 
	C196.741165,158.003922 196.661896,158.420746 195.965240,159.108261 
	C195.107193,162.204773 193.624756,165.277924 193.507828,168.402176 
	C193.152740,177.888458 193.085037,187.402145 193.387222,196.889816 
	C193.556702,202.210754 192.315994,207.000015 189.868210,211.521301 
	C186.730515,217.316971 182.422516,217.883545 178.580658,212.378403 
	C175.700134,208.250778 176.079483,204.030624 175.485916,199.661728 
	C175.171341,197.346420 173.499680,195.215469 172.340469,192.135529 
	C172.330276,189.588730 172.320084,187.041946 172.781113,183.590149 
	C172.745911,174.983063 173.307098,166.318542 172.485245,157.787231 
	C171.837280,151.061127 170.192001,144.131500 164.777634,139.207428 
	C161.969437,136.653519 159.230164,133.423782 153.873932,134.616165 
	C153.171234,134.770370 152.468536,134.924561 150.965027,134.863098 
	C149.043015,134.962006 147.120987,135.060913 144.712479,134.702545 
	C144.268448,134.691666 143.824402,134.680801 142.621780,134.293381 
	C141.178940,134.488312 139.469772,134.249435 138.334961,134.946106 
	C128.340637,141.081802 122.343620,149.793457 122.138680,161.801895 
	C121.966385,171.897339 122.103294,181.998077 122.057228,192.929672 
	C122.003433,194.598602 121.949638,196.267548 121.248795,198.252563 
	C120.150291,201.197098 119.408508,204.346558 117.864151,207.034958 
	C115.877892,210.492630 113.247757,213.580429 110.959641,217.039261 
	C110.959641,217.039261 111.110161,217.201538 110.476562,216.836670 
	C109.989532,216.835571 109.502510,216.834488 108.413193,216.333115 
	C101.133781,216.140045 94.100410,214.599289 91.216408,207.169418 
	C89.185555,201.937469 88.639481,196.029419 88.087379,190.359283 
	C87.735298,186.743301 86.153893,186.034760 83.035767,186.067688 
	C79.793777,186.101929 78.070976,187.160858 78.160248,190.675659 
	C78.307449,196.470642 78.409134,202.275314 78.231865,208.066772 
	C78.129395,211.414261 78.694588,214.253494 81.577812,216.746887 
	C81.614250,217.033707 81.663071,217.318405 81.338997,218.356415 
	C81.449715,225.118607 85.680214,229.575562 90.271805,233.639450 
	C92.318405,235.450851 94.472084,238.352692 98.730156,236.165314 
	C99.179054,236.038223 99.627953,235.911148 100.463249,236.055313 
	C100.463249,236.055313 100.873932,236.288208 100.896248,237.031982 
	C104.094200,238.435883 107.350044,240.698074 110.750717,236.190079 
	C111.142853,236.056046 111.534988,235.922028 112.543930,236.189148 
	C113.033325,236.174866 113.522713,236.160583 114.476898,236.629135 
	C118.051651,236.918777 120.095314,235.284821 120.653000,231.661530 
	C120.653000,231.661530 120.709702,231.596436 121.432327,231.726837 
	C121.919174,231.640594 122.668701,231.726120 122.854019,231.442703 
	C126.458969,225.929718 130.111542,220.437561 129.677078,213.366318 
	C129.576859,211.734970 129.987915,210.077484 130.089890,208.427475 
	C130.490417,201.946838 130.861481,195.464371 131.225830,188.243103 
	C131.062332,187.795700 130.898819,187.348297 130.996719,186.240311 
	C131.114502,185.541412 131.232285,184.842529 132.018646,183.964981 
	C132.890854,181.868256 133.979950,179.832367 134.588989,177.661789 
	C135.766479,173.465195 135.958710,168.819199 137.918182,165.069595 
	C139.490067,162.061661 142.701065,159.002289 145.848450,157.948822 
	C150.060913,156.538849 154.926117,157.095200 157.173889,162.361633 
	C158.313599,165.031906 159.147842,167.837463 160.367554,170.467117 
	C161.284363,172.443741 162.595306,174.237579 163.901672,176.883728 
	C164.051376,177.910599 164.201080,178.937469 163.985077,180.700745 
	C164.019409,181.794922 164.053741,182.889084 163.419006,184.496658 
	C163.811874,195.972137 162.350540,207.378586 165.000565,218.958481 
	C166.912994,227.315277 170.091080,233.816910 177.385757,237.866501 
	C179.834229,239.225754 183.955948,240.271149 185.987564,239.120361 
	C190.246460,236.707855 194.457962,233.272095 197.042709,229.209213 
	C198.505508,226.909866 203.060867,223.995941 199.523422,219.300232 
	C199.602295,218.957077 199.681168,218.613937 200.417755,218.079712 
	C204.050766,215.531662 202.894989,212.053268 202.437485,207.807602 
	C202.237213,205.428223 202.036942,203.048843 202.110138,199.988205 
	C202.002029,199.296967 201.893921,198.605713 202.173584,197.223358 
	C202.180511,195.903473 202.187439,194.583588 202.708115,192.609711 
	C202.789566,192.061462 202.871017,191.513199 203.691330,190.782257 
	C207.690048,185.120972 205.741623,179.012482 205.087906,172.134476 
	C204.939590,171.024948 204.791275,169.915421 204.846939,168.403473 
	C204.846939,168.403473 205.126129,168.049088 205.811844,168.012619 
	C208.263901,165.029083 210.580078,161.918106 213.216431,159.107422 
	C214.934891,157.275299 217.118637,155.879608 219.794617,154.095474 
	C220.520584,154.108261 221.246567,154.121048 221.781296,154.602570 
	C221.890091,154.731567 221.998886,154.860565 221.566940,155.325790 
	C222.037384,156.068649 222.348038,157.247467 223.002808,157.487488 
	C230.202866,160.126846 231.203918,161.420898 231.217834,169.022415 
	C231.242111,182.282974 231.169617,195.544067 231.274811,208.803848 
	C231.299515,211.917862 231.822357,215.034531 232.266968,218.128296 
	C232.311401,218.437546 233.409744,218.595367 234.436295,219.152130 
	C234.606949,219.104980 234.777618,219.057831 234.958939,219.726669 
	C235.073303,220.432114 235.187683,221.137573 234.890457,222.555801 
	C234.961380,223.372223 235.032288,224.188660 234.570190,225.371017 
z"/>
<path fill="#030303" opacity="1.000000" stroke="none" 
	d="
M222.150070,134.634933 
	C222.565689,134.717758 222.981293,134.800568 223.688812,135.137329 
	C224.050064,135.564667 224.119385,135.738068 223.901001,136.096008 
	C224.395218,140.443085 226.648163,139.410950 229.393951,137.791077 
	C230.139450,137.925247 230.549637,138.090881 230.977448,138.635559 
	C231.898544,139.547974 232.802017,140.081360 233.812820,140.633423 
	C233.920151,140.652130 234.042450,140.832474 234.023895,141.220490 
	C235.017960,142.402756 236.030609,143.196976 237.248627,144.273132 
	C238.411240,147.640579 240.164719,150.718170 240.195557,153.812912 
	C240.385559,172.871170 240.186813,191.933304 239.756454,211.158722 
	C238.729965,216.751083 240.766693,219.706680 245.768799,220.313019 
	C246.351547,220.618179 246.676529,220.807983 247.035965,221.386597 
	C248.201080,221.953552 249.331757,222.131714 250.723770,222.315704 
	C251.507629,222.319183 252.030151,222.316818 252.915802,222.537720 
	C254.519333,222.174088 255.759720,221.587219 257.275543,220.816208 
	C259.167694,219.153336 260.784424,217.674576 262.719299,216.055389 
	C266.908997,208.408630 266.229218,200.477432 265.254028,192.089294 
	C265.195648,189.355576 265.104950,187.048187 265.014221,184.740814 
	C265.096344,184.350403 265.178497,183.959991 265.410767,183.402222 
	C265.560913,183.234863 265.935486,182.947571 266.291992,182.902939 
	C269.536407,181.519897 269.358917,179.401535 268.150940,176.695190 
	C268.433014,175.573944 268.698975,174.774399 269.316467,173.969421 
	C271.767578,170.959900 273.867249,167.955780 276.087036,164.816742 
	C276.207214,164.681824 276.509033,164.483139 276.893066,164.595764 
	C280.215759,163.200790 283.154419,161.693207 286.529205,160.110962 
	C289.613892,160.082199 292.262390,160.128082 294.993286,160.542175 
	C297.215668,161.390045 299.355713,161.869705 301.782013,162.389221 
	C302.433990,162.547668 302.799683,162.666275 303.182465,163.171509 
	C304.635132,164.139587 306.070709,164.721039 307.696777,165.395447 
	C307.887299,165.488403 308.201111,165.773468 308.179565,166.119110 
	C309.084747,167.321457 310.011444,168.178162 311.093872,169.342957 
	C312.405518,171.296326 313.561462,172.941605 314.536133,174.851257 
	C314.891266,175.503128 315.427673,175.890625 316.160767,176.563934 
	C316.655457,178.234390 316.953461,179.619034 316.923920,181.099396 
	C317.431335,182.431793 318.266296,183.668442 319.215912,185.203583 
	C319.504425,186.337769 319.678314,187.173508 319.621887,188.223022 
	C320.134674,189.699722 320.877777,190.962646 321.726593,192.577332 
	C324.908752,197.244644 327.985199,201.560165 330.853607,206.158585 
	C328.295288,205.639145 325.945038,204.836823 323.383148,203.778625 
	C322.477997,202.604294 321.743042,201.713898 321.097626,200.762772 
	C316.920166,194.606979 313.466248,187.757660 308.374725,182.488953 
	C304.317688,178.290726 299.233765,173.519196 291.636719,175.815186 
	C290.877991,175.816467 290.444397,175.856812 289.720459,175.682861 
	C286.387207,176.377441 282.899536,176.630188 280.392639,178.329712 
	C274.919464,182.040115 270.650726,186.905914 270.642609,194.582001 
	C270.618622,196.970779 270.728882,198.984283 270.839172,200.997772 
	C270.789734,203.023483 270.740265,205.049210 270.500000,207.416702 
	C270.309235,207.758484 270.056213,208.091904 269.713104,208.216339 
	C265.908295,212.222107 267.553864,216.691727 267.839050,221.373245 
	C267.511841,223.155212 267.255920,224.576797 266.818359,225.794586 
	C263.009277,229.183411 259.367798,232.762085 255.766907,236.381134 
	C255.099304,237.052094 254.595245,237.885773 254.015701,238.644348 
	C252.471695,238.651840 250.927689,238.659332 249.013458,238.179596 
	C247.716904,237.251328 246.790558,236.810287 245.573578,236.231506 
	C244.714722,235.794785 244.146515,235.495773 243.599579,234.876068 
	C243.015976,234.208664 242.411072,233.861938 241.610291,233.278931 
	C241.125168,232.753296 240.835953,232.463959 240.620438,231.829575 
	C239.800705,230.322693 238.907272,229.160843 237.939331,227.708054 
	C237.733871,227.038620 237.602905,226.660141 237.602875,225.942215 
	C236.923218,224.349503 236.112640,223.096268 235.302063,221.843018 
	C235.187683,221.137573 235.073303,220.432114 235.275055,219.100693 
	C235.617813,201.457870 235.730347,184.440109 235.545609,167.425552 
	C235.525940,165.612946 233.768066,163.819229 232.776123,161.758881 
	C232.757248,161.159836 232.778793,160.818634 232.874832,160.109039 
	C232.638687,158.290512 234.112091,155.064026 230.028397,157.077515 
	C228.900253,156.629013 228.053894,156.193146 227.190475,155.402618 
	C225.439774,154.743271 223.706161,154.438553 221.972534,154.133835 
	C221.246567,154.121048 220.520584,154.108261 219.141418,153.973740 
	C217.992340,153.844040 217.496460,153.836060 216.744629,153.611221 
	C211.277130,153.777405 208.074402,157.101273 205.642944,161.212341 
	C204.874084,162.512283 205.081284,164.389511 204.792023,166.360382 
	C204.870209,167.161835 204.998169,167.605469 205.126129,168.049088 
	C205.126129,168.049088 204.846939,168.403473 204.465637,168.580414 
	C203.706360,169.165604 203.328369,169.573868 202.651184,170.007309 
	C202.300430,170.702087 202.248901,171.371674 202.170349,172.471481 
	C202.267059,175.594696 202.390747,178.287689 202.451721,181.420059 
	C202.290863,184.453064 202.192734,187.046677 201.886932,189.808441 
	C201.850967,191.072281 202.022659,192.167999 202.194351,193.263702 
	C202.187439,194.583588 202.180511,195.903473 201.666565,197.572678 
	C199.803116,197.923782 198.446671,197.925568 197.035339,197.565155 
	C196.847839,184.414474 196.715225,171.626022 196.582626,158.837555 
	C196.661896,158.420746 196.741165,158.003922 197.056366,157.335175 
	C197.464584,157.027786 197.636856,156.972336 198.201569,156.910950 
	C199.929153,153.367294 201.264282,149.829605 202.537430,145.991608 
	C202.683563,145.133362 202.891678,144.575424 203.492462,144.011520 
	C204.459015,143.102005 205.032913,142.198471 205.652023,141.124237 
	C205.832642,140.734451 206.028946,140.618469 206.682526,140.700409 
	C209.348465,139.112289 211.618027,137.429367 214.240005,135.542130 
	C217.111649,135.103516 219.630859,134.869232 222.150070,134.634933 
z"/>
<path fill="#000000" opacity="1.000000" stroke="none" 
	d="
M164.350784,179.964340 
	C164.201080,178.937469 164.051376,177.910599 164.032501,176.117920 
	C164.107880,173.901474 164.052460,172.450836 164.257263,170.802307 
	C163.495163,168.419434 162.472855,166.234436 161.380692,163.815033 
	C161.053650,163.174805 160.796448,162.768982 160.645691,162.011993 
	C159.840591,160.769409 158.929062,159.878021 157.808777,158.766083 
	C156.901886,157.834015 156.203735,157.122498 155.585999,156.057709 
	C153.780197,155.105637 151.893982,154.506821 149.630676,153.902161 
	C148.499512,153.901627 147.745422,153.906906 146.750778,153.647507 
	C140.112900,153.176224 133.367157,160.065109 133.665680,166.728973 
	C133.462921,168.028961 133.293350,169.066071 132.743317,170.137955 
	C128.724960,172.212097 129.971207,175.127930 130.961929,178.443451 
	C131.093491,180.640930 131.221786,182.392273 131.350067,184.143631 
	C131.232285,184.842529 131.114502,185.541412 130.597107,186.511780 
	C129.845474,186.877228 129.493439,186.971222 128.761261,187.041229 
	C127.619354,187.009186 126.857605,187.001114 126.046371,186.527023 
	C125.986847,178.576065 125.977608,171.091110 125.966408,163.606171 
	C125.961617,160.403030 125.952728,157.199905 125.959793,153.671219 
	C126.311188,152.560333 126.648499,151.775009 127.340012,150.974640 
	C128.003586,150.191360 128.312973,149.423126 128.674133,148.464233 
	C128.725937,148.273560 128.885635,147.912109 129.239151,147.896881 
	C129.928146,147.139374 130.263611,146.397095 130.800903,145.393921 
	C132.519699,143.533890 134.036652,141.934769 135.906128,140.508026 
	C139.238770,138.840225 142.218872,137.000031 145.198975,135.159821 
	C147.120987,135.060913 149.043015,134.962006 151.373199,135.289169 
	C155.328171,137.298767 158.874954,138.882278 162.645721,140.627686 
	C163.072723,141.279922 163.275787,141.770264 163.335693,142.671753 
	C164.127304,146.615158 164.676315,150.382874 168.804016,152.471619 
	C169.019333,155.253342 169.096695,157.613922 168.836212,160.233475 
	C168.335754,165.766983 168.023621,171.042831 168.071045,176.315460 
	C168.096329,179.125839 167.178986,180.361557 164.350784,179.964340 
z"/>
<path fill="#151515" opacity="1.000000" stroke="none" 
	d="
M164.167938,180.332550 
	C167.178986,180.361557 168.096329,179.125839 168.071045,176.315460 
	C168.023621,171.042831 168.335754,165.766983 169.100067,160.532928 
	C170.123489,166.833588 170.474823,173.099854 171.012238,179.350113 
	C171.161804,181.089462 171.862198,182.781433 172.309875,184.495148 
	C172.320084,187.041946 172.330276,189.588730 172.173874,192.909760 
	C171.638733,200.583298 172.557114,207.249313 176.326355,213.176865 
	C180.845383,220.283554 187.865921,220.193329 191.681915,212.712921 
	C194.049194,208.072357 195.324692,202.874863 197.090240,197.927353 
	C198.446671,197.925568 199.803116,197.923782 201.472687,197.918243 
	C201.893921,198.605713 202.002029,199.296967 201.631775,200.401825 
	C200.682831,204.968903 200.212234,209.122330 199.647873,213.691910 
	C199.622772,215.495621 199.691422,216.883209 199.760071,218.270782 
	C199.681168,218.613937 199.602295,218.957077 199.267151,219.742294 
	C198.911850,220.382172 198.812820,220.579987 198.385773,220.899445 
	C197.390442,223.025085 196.723114,225.029068 195.847687,227.305786 
	C195.139481,228.238647 194.408600,228.826248 194.174789,229.570084 
	C191.733978,237.335098 178.449051,238.544220 173.656387,232.609222 
	C169.597183,227.582504 167.246857,222.153885 166.906128,215.940460 
	C166.460403,207.812469 166.548950,199.655197 166.591553,191.097382 
	C166.249054,188.762115 165.722656,186.839951 165.064117,184.686218 
	C164.650681,184.297501 164.369385,184.140381 164.088074,183.983261 
	C164.053741,182.889084 164.019409,181.794922 164.167938,180.332550 
z"/>
<path fill="#040404" opacity="1.000000" stroke="none" 
	d="
M126.095856,186.993042 
	C126.857605,187.001114 127.619354,187.009186 128.594055,187.400909 
	C128.553986,193.857285 128.300980,199.929962 128.053864,206.432007 
	C127.925919,208.851395 127.792099,210.841446 127.327484,212.927612 
	C126.651428,215.014465 126.306168,217.005188 125.918411,219.302643 
	C125.752029,220.002426 125.628143,220.395462 125.216896,220.930573 
	C121.898949,226.374847 118.781799,231.580780 112.750763,234.110260 
	C112.317810,234.291824 112.194443,235.211517 111.927124,235.787994 
	C111.534988,235.922028 111.142853,236.056046 110.033447,236.083649 
	C106.502098,236.080887 103.688019,236.184540 100.873932,236.288208 
	C100.873932,236.288208 100.463249,236.055313 100.248207,235.575684 
	C96.931450,233.521149 93.829735,231.946228 90.710884,230.339294 
	C90.693748,230.307266 90.623421,230.289047 90.688805,229.932312 
	C89.749001,228.799988 88.743820,228.024399 87.612701,227.067017 
	C87.486778,226.885239 87.300850,226.483917 87.468491,226.166046 
	C86.858925,225.172852 86.081734,224.497543 85.196365,223.529846 
	C85.020508,222.827805 84.952820,222.418167 85.136932,221.823669 
	C84.396965,219.754089 83.405190,217.869324 82.324936,215.576523 
	C82.150269,213.779602 82.064079,212.390747 82.271576,210.709198 
	C82.565262,204.231979 82.565262,198.047424 82.565262,191.253265 
	C84.295738,193.725494 85.495247,195.439178 86.763283,197.551971 
	C86.911491,199.298859 86.991188,200.646652 86.797714,202.235626 
	C86.061356,208.666931 89.270882,213.928146 94.074867,214.939331 
	C94.059860,215.000366 94.110710,214.883499 94.123001,215.222443 
	C95.421745,216.060654 96.708183,216.559921 98.340958,217.084778 
	C99.788467,217.407700 100.889626,217.705002 101.738602,218.210526 
	C105.095673,221.061295 108.449913,220.637054 111.110161,217.201538 
	C111.110161,217.201538 110.959641,217.039261 111.248199,217.117340 
	C112.028542,217.165421 112.520340,217.135406 113.204384,217.334183 
	C114.236313,216.673813 115.075989,215.784668 116.158401,214.707794 
	C117.141464,213.549606 117.881790,212.579132 118.920334,211.708420 
	C119.471764,211.204575 119.724976,210.600967 120.033813,209.653503 
	C120.360382,208.183441 120.631340,207.057266 121.242554,205.894180 
	C122.048645,204.237610 122.514503,202.617950 122.960899,200.668655 
	C122.888557,199.903351 122.835686,199.467651 123.142067,198.830322 
	C123.653137,196.403275 123.804947,194.177841 123.979599,191.973099 
	C124.002449,191.993774 123.953171,191.961029 124.327980,191.922638 
	C125.167152,190.253845 125.631508,188.623459 126.095856,186.993042 
z"/>
<path fill="#020202" opacity="1.000000" stroke="none" 
	d="
M383.169952,175.591232 
	C383.169952,175.591232 383.575836,175.814209 383.773590,176.263458 
	C384.957153,177.545776 385.813049,178.695938 386.949402,179.161499 
	C395.753937,182.768707 398.039276,191.044815 401.101532,199.062927 
	C400.369843,199.932251 399.717163,200.463058 398.896393,200.694153 
	C386.583160,190.404007 373.358551,189.008606 358.849457,195.309418 
	C358.104004,195.839600 357.662079,196.484543 356.988220,197.137848 
	C356.756256,197.146225 356.293640,197.107666 355.806976,197.072296 
	C354.344849,196.958282 353.369385,196.879623 352.433655,196.430969 
	C352.727448,195.103592 352.981537,194.146194 353.520416,193.101791 
	C353.939697,192.315308 354.074158,191.615845 354.363892,190.624741 
	C354.607483,190.131287 354.695801,189.929489 355.087646,189.753723 
	C355.487244,188.859848 355.583313,187.939941 355.735016,186.743683 
	C355.836304,186.285019 355.881927,186.102707 356.238037,185.843948 
	C356.922455,185.102966 357.296356,184.438446 357.802734,183.623047 
	C357.935211,183.472168 358.149811,183.132751 358.454010,183.043198 
	C359.041260,182.219437 359.324310,181.485229 359.826569,180.594360 
	C360.285217,180.171432 360.524689,179.905151 361.117432,179.699738 
	C362.149628,179.073090 362.828552,178.385590 363.572083,177.653793 
	C363.636688,177.609482 363.717773,177.475403 364.016296,177.571869 
	C364.946686,177.205261 365.578613,176.742172 366.517151,176.238953 
	C367.223328,176.257980 367.622894,176.317154 368.320312,176.638565 
	C372.078522,176.594803 375.538879,176.288818 379.426575,176.005142 
	C380.959290,175.882050 382.064606,175.736649 383.169952,175.591232 
z"/>
<path fill="#0C0C0C" opacity="1.000000" stroke="none" 
	d="
M399.064453,200.993866 
	C399.717163,200.463058 400.369843,199.932251 401.312012,199.323090 
	C402.387848,200.177582 403.174225,201.110413 404.028015,202.381378 
	C405.663727,204.882355 407.231995,207.045197 408.907196,209.529175 
	C410.099884,210.347427 411.185608,210.844559 412.604553,211.463135 
	C415.537262,211.825912 418.136719,212.067230 420.877502,212.604797 
	C422.436554,212.708511 423.854340,212.515976 425.634491,212.275116 
	C427.667877,211.944534 429.338898,211.662277 431.227539,211.527634 
	C431.898865,211.074860 432.352539,210.474472 433.074341,209.662689 
	C435.275116,206.328949 437.207794,203.206573 439.487427,200.010620 
	C439.968323,199.138290 440.102264,198.339554 440.304108,197.129883 
	C440.268097,192.810989 440.164215,188.903030 440.321533,184.818237 
	C441.071014,183.743484 441.559265,182.845535 442.277100,182.058929 
	C442.667206,182.114182 442.827789,182.058121 442.988342,182.002045 
	C443.023224,182.418625 443.058136,182.835220 442.958435,183.990204 
	C443.092041,188.337357 443.360260,191.946136 443.425171,196.021362 
	C443.362366,199.476059 443.502838,202.464294 443.562805,205.850937 
	C441.325592,222.711227 425.632996,229.289062 411.764099,219.515518 
	C405.250214,214.925156 402.661896,207.604599 399.064453,200.993866 
z"/>
<path fill="#969696" opacity="1.000000" stroke="none" 
	d="
M398.896393,200.694153 
	C402.661896,207.604599 405.250214,214.925156 411.764099,219.515518 
	C425.632996,229.289062 441.325592,222.711227 443.874878,205.642105 
	C444.054443,201.874863 443.841461,198.714890 443.628479,195.554901 
	C443.360260,191.946136 443.092041,188.337357 443.020020,184.297821 
	C443.603973,184.146667 444.126251,184.342697 444.359619,184.718231 
	C449.029144,192.233749 446.519653,213.221512 441.029388,220.117767 
	C432.969513,230.241714 410.157196,226.591187 404.260437,215.400116 
	C401.766632,210.667282 398.956848,205.906876 395.379517,201.991547 
	C391.501038,197.746735 386.393402,195.023682 380.123810,195.464386 
	C376.483368,195.720261 372.804413,195.374039 369.151520,195.518677 
	C361.250610,195.831528 355.670410,200.483047 353.556458,208.094727 
	C353.220306,209.305222 352.132721,210.307007 351.186127,210.829468 
	C352.002319,207.186844 353.024902,204.120041 354.024445,201.026489 
	C354.001404,200.999741 354.058624,201.041397 354.392883,200.992813 
	C355.176483,199.998459 355.625793,199.052689 356.127075,197.856506 
	C356.217255,197.439957 356.255463,197.273819 356.293640,197.107666 
	C356.293640,197.107666 356.756256,197.146225 357.277130,197.122772 
	C358.249664,196.540939 358.701324,195.982559 359.152985,195.424179 
	C373.358551,189.008606 386.583160,190.404007 398.896393,200.694153 
z"/>
<path fill="#ACACAC" opacity="1.000000" stroke="none" 
	d="
M264.695740,184.795776 
	C265.104950,187.048187 265.195648,189.355576 264.981445,192.316711 
	C263.918060,200.712265 263.159607,208.454056 262.401123,216.195831 
	C260.784424,217.674576 259.167694,219.153336 256.923096,220.757233 
	C255.047699,221.359756 253.800186,221.837097 252.552658,222.314453 
	C252.030151,222.316818 251.507629,222.319183 250.549652,222.038879 
	C249.076630,221.503387 248.039062,221.250595 247.001511,220.997803 
	C246.676529,220.807983 246.351547,220.618179 245.611694,220.036072 
	C243.503662,216.760559 241.810501,213.877350 240.117340,210.994141 
	C240.186813,191.933304 240.385559,172.871170 240.195557,153.812912 
	C240.164719,150.718170 238.411240,147.640579 237.193726,143.950760 
	C235.969788,142.508453 235.006119,141.670456 234.042450,140.832474 
	C234.042450,140.832474 233.920151,140.652130 233.704224,140.326370 
	C232.645477,139.419235 231.802643,138.837875 230.959808,138.256516 
	C230.549637,138.090881 230.139450,137.925247 229.195312,137.516907 
	C227.170456,136.819977 225.679581,136.365723 224.188690,135.911453 
	C224.119385,135.738068 224.050064,135.564667 224.006821,135.112381 
	C228.781433,133.634171 235.940018,136.022736 238.249298,140.888260 
	C240.771240,146.201813 242.411011,152.074493 243.505966,157.878784 
	C244.324310,162.216660 243.843369,166.841141 243.632614,171.323502 
	C243.114731,182.337479 242.141281,193.338196 241.946823,204.354752 
	C241.879852,208.147797 242.948257,212.280716 244.628601,215.703293 
	C246.700531,219.923462 251.689606,220.447281 255.035019,218.633530 
	C257.861511,217.101120 260.393921,213.164581 261.036804,209.894958 
	C262.045746,204.763626 261.015533,199.266144 261.512604,193.986191 
	C261.805145,190.878677 263.379425,187.891830 264.695740,184.795776 
z"/>
<path fill="#ACACAC" opacity="1.000000" stroke="none" 
	d="
M294.910919,160.173965 
	C292.262390,160.128082 289.613892,160.082199 286.155334,160.011932 
	C282.399902,161.486084 279.454468,162.984619 276.509033,164.483154 
	C276.509033,164.483139 276.207214,164.681824 275.736633,164.814758 
	C273.165680,167.956741 271.065338,170.965790 268.964966,173.974838 
	C268.698975,174.774399 268.433014,175.573944 267.853516,176.894684 
	C267.005127,179.259766 266.470306,181.103668 265.935486,182.947571 
	C265.935486,182.947571 265.560913,183.234863 265.364319,183.104309 
	C264.920227,181.150742 263.926605,179.006271 264.550293,177.558578 
	C267.809753,169.992722 271.580353,162.348984 279.801300,159.275940 
	C283.796539,157.782471 288.637360,158.648117 293.073303,158.217957 
	C305.231995,157.038925 315.114594,166.482208 318.204498,176.228165 
	C320.329315,182.930161 323.263275,189.472610 326.648743,195.639999 
	C328.548004,199.100052 331.819946,202.010864 334.995483,204.504318 
	C337.756775,206.672516 343.295074,205.060654 345.633331,202.282379 
	C346.662262,201.059769 347.944733,200.050568 349.519287,199.275269 
	C349.983704,200.070160 350.040955,200.534256 350.030884,201.358215 
	C346.632080,204.122803 343.300659,206.527557 339.601257,208.948395 
	C338.496948,208.956345 337.760559,208.948212 336.886719,208.632828 
	C335.519531,207.828918 334.289795,207.332260 332.939514,206.556427 
	C332.233185,206.143387 331.647430,206.009537 331.061646,205.875687 
	C327.985199,201.560165 324.908752,197.244644 321.881744,192.247375 
	C321.238190,190.380157 320.545197,189.194687 319.852173,188.009216 
	C319.678314,187.173508 319.504425,186.337769 319.253021,184.877579 
	C318.534119,183.169968 317.892792,182.086823 317.251465,181.003693 
	C316.953461,179.619034 316.655457,178.234390 316.167847,176.270416 
	C315.557953,175.323013 315.137665,174.954926 314.717407,174.586853 
	C313.561462,172.941605 312.405518,171.296326 311.127747,169.008301 
	C310.070953,167.501526 309.136047,166.637497 308.201111,165.773468 
	C308.201111,165.773468 307.887299,165.488403 307.513245,165.128693 
	C305.814606,164.107620 304.489990,163.446259 303.165375,162.784882 
	C302.799683,162.666275 302.433990,162.547668 301.579163,162.110565 
	C299.030334,161.252701 296.970612,160.713333 294.910919,160.173965 
z"/>
<path fill="#ACACAC" opacity="1.000000" stroke="none" 
	d="
M197.035339,197.565155 
	C195.324692,202.874863 194.049194,208.072357 191.681915,212.712921 
	C187.865921,220.193329 180.845383,220.283554 176.326355,213.176865 
	C172.557114,207.249313 171.638733,200.583298 172.223969,193.342651 
	C173.499680,195.215469 175.171341,197.346420 175.485916,199.661728 
	C176.079483,204.030624 175.700134,208.250778 178.580658,212.378403 
	C182.422516,217.883545 186.730515,217.316971 189.868210,211.521301 
	C192.315994,207.000015 193.556702,202.210754 193.387222,196.889816 
	C193.085037,187.402145 193.152740,177.888458 193.507828,168.402176 
	C193.624756,165.277924 195.107193,162.204773 196.273926,158.972900 
	C196.715225,171.626022 196.847839,184.414474 197.035339,197.565155 
z"/>
<path fill="#ADADAD" opacity="1.000000" stroke="none" 
	d="
M166.407654,191.510513 
	C166.548950,199.655197 166.460403,207.812469 166.906128,215.940460 
	C167.246857,222.153885 169.597183,227.582504 173.656387,232.609222 
	C178.449051,238.544220 191.733978,237.335098 194.174789,229.570084 
	C194.408600,228.826248 195.139481,228.238647 196.125504,227.105484 
	C197.312180,224.680908 198.012970,222.729355 198.713776,220.777802 
	C198.812820,220.579987 198.911850,220.382172 199.291122,220.006607 
	C203.060867,223.995941 198.505508,226.909866 197.042709,229.209213 
	C194.457962,233.272095 190.246460,236.707855 185.987564,239.120361 
	C183.955948,240.271149 179.834229,239.225754 177.385757,237.866501 
	C170.091080,233.816910 166.912994,227.315277 165.000565,218.958481 
	C162.350540,207.378586 163.811874,195.972137 163.753540,184.239960 
	C164.369385,184.140381 164.650681,184.297501 164.936279,185.078812 
	C165.429596,187.638840 165.918625,189.574677 166.407654,191.510513 
z"/>
<path fill="#969696" opacity="1.000000" stroke="none" 
	d="
M431.009888,211.380035 
	C429.338898,211.662277 427.667877,211.944534 425.188385,212.166687 
	C423.165314,212.173920 421.950775,212.241241 420.736206,212.308563 
	C418.136719,212.067230 415.537262,211.825912 412.473816,211.185730 
	C410.940002,210.260605 409.870117,209.734314 408.800262,209.208038 
	C407.231995,207.045197 405.663727,204.882355 404.045166,202.000916 
	C403.466583,199.084137 402.938202,196.885956 402.409821,194.687775 
	C403.413635,195.960678 404.868042,197.083557 405.349762,198.530289 
	C409.115936,209.841156 421.996674,214.800430 431.125549,207.669739 
	C434.112610,205.336533 436.243103,200.819046 436.973358,196.961273 
	C437.874207,192.202255 437.098267,187.072601 436.674774,182.135040 
	C436.396698,178.892639 438.007629,177.136963 440.674438,177.141647 
	C441.637482,177.143326 442.595428,180.054688 443.272034,181.820160 
	C442.827789,182.058121 442.667206,182.114182 442.273712,181.659973 
	C441.143311,180.836304 440.245850,180.522934 439.348358,180.209564 
	C439.585663,181.804733 439.822998,183.399887 440.060303,184.995056 
	C440.164215,188.903030 440.268097,192.810989 440.061890,197.297913 
	C439.548004,198.612640 439.344238,199.348419 439.140442,200.084198 
	C437.207794,203.206573 435.275116,206.328949 432.762909,209.720718 
	C431.792236,210.453415 431.401062,210.916718 431.009888,211.380035 
z"/>
<path fill="#ADADAD" opacity="1.000000" stroke="none" 
	d="
M81.977890,211.001877 
	C82.064079,212.390747 82.150269,213.779602 82.101799,215.658936 
	C81.967140,216.149384 81.522072,216.317368 81.522072,216.317368 
	C78.694588,214.253494 78.129395,211.414261 78.231865,208.066772 
	C78.409134,202.275314 78.307449,196.470642 78.160248,190.675659 
	C78.070976,187.160858 79.793777,186.101929 83.035767,186.067688 
	C86.153893,186.034760 87.735298,186.743301 88.087379,190.359283 
	C88.639481,196.029419 89.185555,201.937469 91.216408,207.169418 
	C94.100410,214.599289 101.133781,216.140045 108.456207,216.883484 
	C106.329742,217.623322 104.160263,217.812805 101.990791,218.002304 
	C100.889626,217.705002 99.788467,217.407700 98.175522,216.798187 
	C96.479401,215.951828 95.295052,215.417664 94.110710,214.883499 
	C94.110710,214.883499 94.059860,215.000366 93.909622,214.645645 
	C91.529877,210.192093 89.300377,206.093262 87.070877,201.994431 
	C86.991188,200.646652 86.911491,199.298859 86.883263,197.166107 
	C86.735130,195.082550 86.833130,193.631516 86.264748,192.521835 
	C85.453964,190.938904 84.154747,189.606140 83.064156,188.166534 
	C82.015297,189.806656 80.016243,191.488876 80.086708,193.079407 
	C80.352074,199.069733 81.291130,205.030212 81.977890,211.001877 
z"/>
<path fill="#BBBBBB" opacity="1.000000" stroke="none" 
	d="
M227.207550,155.757263 
	C228.053894,156.193146 228.900253,156.629013 230.042282,157.405945 
	C230.692749,157.941498 231.047531,158.135986 231.368164,158.513992 
	C231.334000,158.697495 231.535812,159.000946 231.535812,159.000946 
	C231.535812,159.000946 231.876251,158.874695 232.024109,159.323334 
	C232.381409,160.007111 232.590881,160.242279 232.800354,160.477432 
	C232.778793,160.818634 232.757248,161.159836 232.574951,162.028503 
	C232.949127,181.311798 233.484055,200.067627 234.018982,218.823456 
	C233.409744,218.595367 232.311401,218.437546 232.266968,218.128296 
	C231.822357,215.034531 231.299515,211.917862 231.274811,208.803848 
	C231.169617,195.544067 231.242111,182.282974 231.217834,169.022415 
	C231.203918,161.420898 230.202866,160.126846 223.002808,157.487488 
	C222.348038,157.247467 222.037384,156.068649 222.206680,155.087646 
	C224.300125,155.152084 225.753845,155.454666 227.207550,155.757263 
z"/>
<path fill="#ADADAD" opacity="1.000000" stroke="none" 
	d="
M163.997040,171.000183 
	C164.052460,172.450836 164.107880,173.901474 163.947052,175.732452 
	C162.595306,174.237579 161.284363,172.443741 160.367554,170.467117 
	C159.147842,167.837463 158.313599,165.031906 157.173889,162.361633 
	C154.926117,157.095200 150.060913,156.538849 145.848450,157.948822 
	C142.701065,159.002289 139.490067,162.061661 137.918182,165.069595 
	C135.958710,168.819199 135.766479,173.465195 134.588989,177.661789 
	C133.979950,179.832367 132.890854,181.868256 131.684357,184.054306 
	C131.221786,182.392273 131.093491,180.640930 131.234802,178.194351 
	C132.044205,175.033813 132.584000,172.568481 133.123795,170.103165 
	C133.293350,169.066071 133.462921,168.028961 133.952271,166.569092 
	C137.070480,160.569794 141.023621,156.193756 146.991348,153.912186 
	C147.745422,153.906906 148.499512,153.901627 149.804520,154.202728 
	C152.072159,155.143066 153.788879,155.777008 155.505585,156.410965 
	C156.203735,157.122498 156.901886,157.834015 157.802490,159.096649 
	C158.849701,160.552887 159.694473,161.458023 160.539246,162.363159 
	C160.796448,162.768982 161.053650,163.174805 161.231110,164.081055 
	C162.099945,166.721054 163.048492,168.860611 163.997040,171.000183 
z"/>
<path fill="#ACACAC" opacity="1.000000" stroke="none" 
	d="
M128.885635,147.912109 
	C128.885635,147.912109 128.725937,148.273560 128.378708,148.569931 
	C127.682922,149.574097 127.334366,150.281876 126.985809,150.989670 
	C126.648499,151.775009 126.311188,152.560333 125.690750,153.944885 
	C124.883766,156.949249 123.941231,159.348831 123.909050,161.760559 
	C123.774780,171.825394 123.914139,181.893875 123.953171,191.961029 
	C123.953171,191.961029 124.002449,191.993774 123.667679,191.935394 
	C122.923042,191.950180 122.513176,192.023315 122.103310,192.096466 
	C122.103294,181.998077 121.966385,171.897339 122.138680,161.801895 
	C122.343620,149.793457 128.340637,141.081802 138.334961,134.946106 
	C139.469772,134.249435 141.178940,134.488312 142.822998,134.748260 
	C140.534012,136.913956 138.043808,138.624802 135.553604,140.335648 
	C134.036652,141.934769 132.519699,143.533890 130.481476,145.450851 
	C129.602005,146.483154 129.243820,147.197632 128.885635,147.912109 
z"/>
<path fill="#ACACAC" opacity="1.000000" stroke="none" 
	d="
M172.545502,184.042648 
	C171.862198,182.781433 171.161804,181.089462 171.012238,179.350113 
	C170.474823,173.099854 170.123489,166.833588 169.437943,160.273926 
	C169.096695,157.613922 169.019333,155.253342 168.892456,152.116135 
	C167.054901,148.313202 165.266876,145.286896 163.478836,142.260605 
	C163.275787,141.770264 163.072723,141.279922 162.512878,140.325867 
	C159.644852,138.138641 157.133636,136.415131 154.622421,134.691620 
	C159.230164,133.423782 161.969437,136.653519 164.777634,139.207428 
	C170.192001,144.131500 171.837280,151.061127 172.485245,157.787231 
	C173.307098,166.318542 172.745911,174.983063 172.545502,184.042648 
z"/>
<path fill="#666666" opacity="1.000000" stroke="none" 
	d="
M291.961853,175.854279 
	C299.233765,173.519196 304.317688,178.290726 308.374725,182.488953 
	C313.466248,187.757660 316.920166,194.606979 321.097626,200.762772 
	C321.743042,201.713898 322.477997,202.604294 323.354431,204.176437 
	C326.351044,210.226913 329.164764,215.623734 331.835876,221.160507 
	C331.693207,221.300476 331.407471,221.579971 331.193939,221.392090 
	C329.979309,220.395584 328.978180,219.586945 327.977081,218.778305 
	C327.839478,218.562576 327.701904,218.346848 327.323059,217.459869 
	C324.749573,211.836365 322.650452,206.755997 320.017975,201.968918 
	C317.516510,197.419968 314.457306,193.177734 311.643341,188.800644 
	C311.530487,188.653412 311.417633,188.506195 311.111328,187.852783 
	C310.243683,186.821381 309.569427,186.296173 308.895203,185.770950 
	C308.523621,185.409378 308.152039,185.047806 307.446106,184.223160 
	C306.715668,183.425797 306.319580,183.091522 305.923523,182.757233 
	C305.923523,182.757233 305.555847,182.445740 305.227600,182.014099 
	C300.586884,179.673065 296.274353,177.763672 291.961853,175.854279 
z"/>
<path fill="#ACACAC" opacity="1.000000" stroke="none" 
	d="
M355.927521,185.920395 
	C355.881927,186.102707 355.836304,186.285019 355.495972,186.930206 
	C355.062225,188.171295 354.923187,188.949509 354.784119,189.727707 
	C354.695801,189.929489 354.607483,190.131287 354.087646,190.698975 
	C353.515930,191.772842 353.375763,192.480820 353.235596,193.188812 
	C352.981537,194.146194 352.727448,195.103592 352.150787,196.514893 
	C351.360962,197.315277 350.893707,197.661713 350.426453,198.008163 
	C350.067261,197.190903 349.166992,196.064194 349.430664,195.603134 
	C352.982788,189.392105 353.690674,181.610657 360.087585,176.945801 
	C366.547699,172.234863 373.679626,171.487350 381.221649,172.719177 
	C381.939453,172.836441 382.466125,174.124100 383.125732,175.229813 
	C382.064606,175.736649 380.959290,175.882050 379.137695,175.715912 
	C374.955109,175.728363 371.488800,176.052353 368.022461,176.376343 
	C367.622894,176.317154 367.223328,176.257980 366.210510,176.128906 
	C364.970795,176.531143 364.344269,177.003281 363.717773,177.475403 
	C363.717773,177.475403 363.636688,177.609482 363.266968,177.668732 
	C362.186218,178.364944 361.475189,179.001923 360.764160,179.638885 
	C360.524689,179.905151 360.285217,180.171432 359.522827,180.682205 
	C358.716492,181.662048 358.433136,182.397400 358.149811,183.132751 
	C358.149811,183.132751 357.935211,183.472168 357.494751,183.678772 
	C356.678711,184.563721 356.303101,185.242050 355.927521,185.920395 
z"/>
<path fill="#666666" opacity="1.000000" stroke="none" 
	d="
M234.227631,218.987793 
	C233.484055,200.067627 232.949127,181.311798 232.615387,162.286346 
	C233.768066,163.819229 235.525940,165.612946 235.545609,167.425552 
	C235.730347,184.440109 235.617813,201.457870 235.269745,218.742691 
	C234.777618,219.057831 234.606949,219.104980 234.227631,218.987793 
z"/>
<path fill="#ADADAD" opacity="1.000000" stroke="none" 
	d="
M127.658279,212.831482 
	C127.792099,210.841446 127.925919,208.851395 128.298920,206.111359 
	C129.439896,199.901764 130.341690,194.442184 131.243469,188.982590 
	C130.861481,195.464371 130.490417,201.946838 130.089890,208.427475 
	C129.987915,210.077484 129.576859,211.734970 129.677078,213.366318 
	C130.111542,220.437561 126.458969,225.929718 122.854019,231.442703 
	C122.668701,231.726120 121.919174,231.640594 121.135727,231.325455 
	C122.394173,227.545547 123.949211,224.167023 125.504257,220.788498 
	C125.628143,220.395462 125.752029,220.002426 126.243217,219.128021 
	C126.959778,216.708267 127.309029,214.769867 127.658279,212.831482 
z"/>
<path fill="#ACACAC" opacity="1.000000" stroke="none" 
	d="
M197.809113,156.916885 
	C197.636856,156.972336 197.464584,157.027786 197.029053,157.017090 
	C195.177551,150.225571 202.613327,135.781815 209.407990,134.721451 
	C213.358276,134.105011 217.608032,129.807236 222.044220,134.312622 
	C219.630859,134.869232 217.111649,135.103516 213.876007,135.528931 
	C210.868423,137.348572 208.577271,138.977097 206.286118,140.605621 
	C206.028946,140.618469 205.832642,140.734451 205.362732,141.263733 
	C204.385422,142.388443 203.742599,143.202972 203.099792,144.017502 
	C202.891678,144.575424 202.683563,145.133362 202.219452,146.168976 
	C200.578674,150.070068 199.193893,153.493484 197.809113,156.916885 
z"/>
<path fill="#969696" opacity="1.000000" stroke="none" 
	d="
M267.000000,225.998383 
	C267.255920,224.576797 267.511841,223.155212 268.136597,221.127258 
	C269.022400,216.377899 269.539307,212.234894 270.056213,208.091904 
	C270.056213,208.091904 270.309235,207.758484 270.497192,207.850510 
	C270.343201,213.320236 270.300171,218.738358 269.579895,224.064896 
	C268.771667,230.042191 265.150146,234.518250 260.396942,238.016937 
	C259.334412,238.799026 257.812988,238.957703 256.434875,238.921173 
	C261.319000,235.495331 265.884979,232.221634 267.000000,225.998383 
z"/>
<path fill="#ADADAD" opacity="1.000000" stroke="none" 
	d="
M84.885132,222.008514 
	C84.952820,222.418167 85.020508,222.827805 85.153778,223.831848 
	C85.913193,225.112122 86.607018,225.798019 87.300850,226.483917 
	C87.300850,226.483917 87.486778,226.885239 87.625687,227.397217 
	C88.717529,228.702484 89.670471,229.495773 90.623421,230.289047 
	C90.623421,230.289047 90.693748,230.307266 90.791817,230.666351 
	C93.261124,232.713837 95.632370,234.402252 98.003609,236.090668 
	C94.472084,238.352692 92.318405,235.450851 90.271805,233.639450 
	C85.680214,229.575562 81.449715,225.118607 81.792816,218.133514 
	C83.126137,219.276596 84.005630,220.642548 84.885132,222.008514 
z"/>
<path fill="#969696" opacity="1.000000" stroke="none" 
	d="
M311.545654,189.137482 
	C314.457306,193.177734 317.516510,197.419968 320.017975,201.968918 
	C322.650452,206.755997 324.749573,211.836365 327.161438,217.111725 
	C326.275024,216.577759 324.957916,215.904205 324.398438,214.834427 
	C319.999847,206.423813 315.746246,197.937393 311.545654,189.137482 
z"/>
<path fill="#5C5C5C" opacity="1.000000" stroke="none" 
	d="
M402.383911,194.399597 
	C402.938202,196.885956 403.466583,199.084137 403.977753,201.662781 
	C403.174225,201.110413 402.387848,200.177582 401.391022,198.984589 
	C398.039276,191.044815 395.753937,182.768707 386.949402,179.161499 
	C385.813049,178.695938 384.957153,177.545776 383.985779,176.356171 
	C384.432587,175.878662 384.864990,175.757706 385.807007,176.023438 
	C392.217102,179.297729 397.110779,183.132629 399.436157,189.629974 
	C399.891113,190.901260 401.147827,191.885651 402.034760,193.002365 
	C402.142517,193.372040 402.250244,193.741730 402.383911,194.399597 
z"/>
<path fill="#969696" opacity="1.000000" stroke="none" 
	d="
M291.636719,175.815201 
	C296.274353,177.763672 300.586884,179.673065 305.064331,181.836914 
	C300.150848,181.184769 295.096802,179.814377 289.984772,179.545319 
	C286.913086,179.383652 283.750977,180.939484 280.147034,181.691803 
	C279.664520,181.660156 279.487885,181.484985 279.685242,181.204193 
	C283.258667,179.247986 286.634735,177.572556 290.010834,175.897125 
	C290.444397,175.856812 290.877991,175.816467 291.636719,175.815201 
z"/>
<path fill="#ADADAD" opacity="1.000000" stroke="none" 
	d="
M118.622116,211.608673 
	C117.881790,212.579132 117.141464,213.549606 115.834686,214.714554 
	C114.516197,215.641159 113.764160,216.373276 113.012131,217.105408 
	C112.520340,217.135406 112.028542,217.165421 111.215866,217.011505 
	C113.247757,213.580429 115.877892,210.492630 117.864151,207.034958 
	C119.408508,204.346558 120.150291,201.197098 121.689964,198.314392 
	C122.174263,198.767883 122.391487,198.986465 122.782806,199.031967 
	C122.835686,199.467651 122.888557,199.903351 122.680901,200.868698 
	C121.914337,202.909256 121.408310,204.420166 120.902298,205.931076 
	C120.631340,207.057266 120.360382,208.183441 119.756607,209.728348 
	C119.156578,210.634262 118.889351,211.121475 118.622116,211.608673 
z"/>
<path fill="#969696" opacity="1.000000" stroke="none" 
	d="
M402.242920,192.769363 
	C401.147827,191.885651 399.891113,190.901260 399.436157,189.629974 
	C397.110779,183.132629 392.217102,179.297729 386.149902,176.101456 
	C391.084442,175.125595 394.347504,178.522247 396.997223,181.785721 
	C399.473083,184.835083 400.683655,188.911819 402.242920,192.769363 
z"/>
<path fill="#030303" opacity="1.000000" stroke="none" 
	d="
M350.468018,198.204742 
	C350.893707,197.661713 351.360962,197.315277 352.111084,196.884888 
	C353.369385,196.879623 354.344849,196.958282 355.806976,197.072296 
	C356.255463,197.273819 356.217255,197.439957 355.801819,197.926453 
	C354.969269,199.178314 354.513947,200.109848 354.058624,201.041397 
	C354.058624,201.041397 354.001404,200.999741 353.692017,201.121841 
	C352.119690,203.222351 350.856781,205.200760 349.171326,207.134918 
	C347.679565,207.642776 346.660248,208.486938 345.529572,208.680313 
	C343.714844,208.990723 341.826477,208.870544 339.969208,208.932312 
	C343.300659,206.527557 346.632080,204.122803 350.340271,201.307541 
	C350.666290,200.197800 350.615601,199.498566 350.564911,198.799347 
	C350.564911,198.799347 350.509552,198.401321 350.468018,198.204742 
z"/>
<path fill="#969696" opacity="1.000000" stroke="none" 
	d="
M271.199036,200.935806 
	C270.728882,198.984283 270.618622,196.970779 270.911621,194.424652 
	C273.046112,190.770386 274.777344,187.648758 276.595520,184.611740 
	C276.682465,184.696335 276.854889,184.866974 276.854889,184.866974 
	C275.089569,190.202591 273.324249,195.538223 271.199036,200.935806 
z"/>
<path fill="#969696" opacity="1.000000" stroke="none" 
	d="
M350.105560,213.985474 
	C349.894867,220.013260 345.243317,225.150711 339.359558,225.191833 
	C340.795105,223.631958 342.458893,222.482162 344.223877,220.996445 
	C345.032867,219.490463 345.740662,218.320404 346.748047,217.071182 
	C347.508087,216.105713 347.968597,215.219421 348.704468,214.253098 
	C349.355103,214.110550 349.730316,214.048019 350.105560,213.985474 
z"/>
<path fill="#BBBBBB" opacity="1.000000" stroke="none" 
	d="
M202.094589,189.640305 
	C202.192734,187.046677 202.290863,184.453064 202.811111,181.233856 
	C203.831741,178.071152 204.430267,175.534027 205.028793,172.996887 
	C205.741623,179.012482 207.690048,185.120972 203.133301,190.525696 
	C202.415039,190.059509 202.254807,189.849899 202.094589,189.640305 
z"/>
<path fill="#BBBBBB" opacity="1.000000" stroke="none" 
	d="
M217.000610,153.828094 
	C217.496460,153.836060 217.992340,153.844040 218.791077,154.070206 
	C217.118637,155.879608 214.934891,157.275299 213.216431,159.107422 
	C210.580078,161.918106 208.263901,165.029083 205.468994,168.030853 
	C204.998169,167.605469 204.870209,167.161835 205.082306,166.183441 
	C209.281784,161.708466 213.141190,157.768280 217.000610,153.828094 
z"/>
<path fill="#464646" opacity="1.000000" stroke="none" 
	d="
M125.216888,220.930573 
	C123.949211,224.167023 122.394173,227.545547 120.774414,231.260254 
	C120.709702,231.596436 120.653000,231.661530 120.310913,231.776062 
	C117.983261,233.309158 115.997688,234.727737 114.012115,236.146301 
	C113.522713,236.160583 113.033325,236.174866 112.235535,235.988586 
	C112.194443,235.211517 112.317810,234.291824 112.750763,234.110260 
	C118.781799,231.580780 121.898949,226.374847 125.216888,220.930573 
z"/>
<path fill="#464646" opacity="1.000000" stroke="none" 
	d="
M131.234650,188.612854 
	C130.341690,194.442184 129.439896,199.901764 128.293045,205.682007 
	C128.300980,199.929962 128.553986,193.857285 128.974213,187.424896 
	C129.493439,186.971222 129.845474,186.877228 130.466400,186.842072 
	C130.898819,187.348297 131.062332,187.795700 131.234650,188.612854 
z"/>
<path fill="#666666" opacity="1.000000" stroke="none" 
	d="
M266.818359,225.794586 
	C265.884979,232.221634 261.319000,235.495331 256.183960,238.717484 
	C255.447678,239.032150 254.894318,239.068298 254.178329,238.874405 
	C254.595245,237.885773 255.099304,237.052094 255.766907,236.381134 
	C259.367798,232.762085 263.009277,229.183411 266.818359,225.794586 
z"/>
<path fill="#969696" opacity="1.000000" stroke="none" 
	d="
M240.546738,232.174622 
	C240.835953,232.463959 241.125168,232.753296 241.668396,233.537537 
	C242.474380,234.420547 243.026337,234.808655 243.578308,235.196777 
	C244.146515,235.495773 244.714722,235.794785 245.692413,236.545685 
	C246.832306,237.509109 247.562668,238.020599 248.293045,238.532104 
	C246.928894,238.503204 245.105881,239.024902 244.286667,238.342178 
	C241.832596,236.296906 239.770950,233.780792 237.951431,231.210602 
	C239.080063,231.373383 239.813400,231.774002 240.546738,232.174622 
z"/>
<path fill="#666666" opacity="1.000000" stroke="none" 
	d="
M344.122650,221.332352 
	C342.458893,222.482162 340.795105,223.631958 338.992615,225.049316 
	C337.870758,225.357300 336.887604,225.397720 335.414062,225.064133 
	C333.751617,223.653412 332.579559,222.616684 331.407471,221.579956 
	C331.407471,221.579971 331.693207,221.300476 332.200012,221.343933 
	C336.512085,221.369049 340.317352,221.350693 344.122650,221.332352 
z"/>
<path fill="#666666" opacity="1.000000" stroke="none" 
	d="
M199.741608,213.275772 
	C200.212234,209.122330 200.682831,204.968903 201.495041,200.742462 
	C202.036942,203.048843 202.237213,205.428223 202.089172,208.406494 
	C201.074432,210.428848 200.408020,211.852310 199.741608,213.275772 
z"/>
<path fill="#444444" opacity="1.000000" stroke="none" 
	d="
M154.248169,134.653900 
	C157.133636,136.415131 159.644852,138.138641 162.288910,140.163971 
	C158.874954,138.882278 155.328171,137.298767 151.773621,135.397003 
	C152.468536,134.924561 153.171234,134.770370 154.248169,134.653900 
z"/>
<path fill="#ADADAD" opacity="1.000000" stroke="none" 
	d="
M199.647858,213.691910 
	C200.408020,211.852310 201.074432,210.428848 201.993042,208.839294 
	C202.894989,212.053268 204.050766,215.531662 200.088913,218.175247 
	C199.691422,216.883209 199.622772,215.495621 199.647858,213.691910 
z"/>
<path fill="#666666" opacity="1.000000" stroke="none" 
	d="
M350.209839,213.690567 
	C349.730316,214.048019 349.355103,214.110550 348.593933,214.171539 
	C348.208008,214.169998 347.999451,213.999329 348.053284,213.682465 
	C348.264038,212.965973 348.420990,212.566345 348.756348,211.844971 
	C349.154480,210.075211 349.374176,208.627197 349.593872,207.179169 
	C350.856781,205.200760 352.119690,203.222351 353.715027,201.148590 
	C353.024902,204.120041 352.002319,207.186844 350.989929,210.625214 
	C350.771423,211.796387 350.542755,212.596008 350.209839,213.690567 
z"/>
<path fill="#969696" opacity="1.000000" stroke="none" 
	d="
M331.193939,221.392090 
	C332.579559,222.616684 333.751617,223.653412 335.062927,224.936768 
	C330.250824,226.431091 329.286560,222.470383 327.810120,219.087555 
	C328.978180,219.586945 329.979309,220.395584 331.193939,221.392090 
z"/>
<path fill="#666666" opacity="1.000000" stroke="none" 
	d="
M205.058350,172.565674 
	C204.430267,175.534027 203.831741,178.071152 202.873840,180.794495 
	C202.390747,178.287689 202.267059,175.594696 202.402725,172.290512 
	C202.758194,171.113586 202.854294,170.547852 202.950394,169.982117 
	C203.328369,169.573868 203.706360,169.165604 204.363647,168.781616 
	C204.791275,169.915421 204.939590,171.024948 205.058350,172.565674 
z"/>
<path fill="#ADADAD" opacity="1.000000" stroke="none" 
	d="
M100.885086,236.660095 
	C103.688019,236.184540 106.502098,236.080887 109.740051,236.192078 
	C107.350044,240.698074 104.094200,238.435883 100.885086,236.660095 
z"/>
<path fill="#444444" opacity="1.000000" stroke="none" 
	d="
M135.906128,140.508026 
	C138.043808,138.624802 140.534012,136.913956 143.202301,134.936523 
	C143.824402,134.680801 144.268448,134.691666 144.955719,134.931183 
	C142.218872,137.000031 139.238770,138.840225 135.906128,140.508026 
z"/>
<path fill="#464646" opacity="1.000000" stroke="none" 
	d="
M101.738602,218.210526 
	C104.160263,217.812805 106.329742,217.623322 108.757347,217.133621 
	C109.502510,216.834488 109.989532,216.835571 110.793365,217.019104 
	C108.449913,220.637054 105.095673,221.061295 101.738602,218.210526 
z"/>
<path fill="#464646" opacity="1.000000" stroke="none" 
	d="
M98.366882,236.127991 
	C95.632370,234.402252 93.261124,232.713837 90.808952,230.698364 
	C93.829735,231.946228 96.931450,233.521149 100.055008,235.440063 
	C99.627953,235.911148 99.179054,236.038223 98.366882,236.127991 
z"/>
<path fill="#ADADAD" opacity="1.000000" stroke="none" 
	d="
M114.244507,236.387726 
	C115.997688,234.727737 117.983261,233.309158 120.293678,231.815628 
	C120.095314,235.284821 118.051651,236.918777 114.244507,236.387726 
z"/>
<path fill="#464646" opacity="1.000000" stroke="none" 
	d="
M85.136932,221.823669 
	C84.005630,220.642548 83.126137,219.276596 81.985458,217.755798 
	C81.663071,217.318405 81.614250,217.033707 81.549942,216.532135 
	C81.522072,216.317368 81.967140,216.149384 82.190277,216.066986 
	C83.405190,217.869324 84.396965,219.754089 85.136932,221.823669 
z"/>
<path fill="#444444" opacity="1.000000" stroke="none" 
	d="
M123.142067,198.830322 
	C122.391487,198.986465 122.174263,198.767883 122.013489,198.156357 
	C121.949638,196.267548 122.003433,194.598602 122.080269,192.513062 
	C122.513176,192.023315 122.923042,191.950180 123.644836,191.914734 
	C123.804947,194.177841 123.653137,196.403275 123.142067,198.830322 
z"/>
<path fill="#666666" opacity="1.000000" stroke="none" 
	d="
M240.620438,231.829575 
	C239.813400,231.774002 239.080063,231.373383 238.107880,230.897675 
	C237.684174,230.405701 237.499359,229.988800 237.339111,229.049530 
	C237.439682,228.177795 237.656403,228.001755 238.013840,227.999008 
	C238.907272,229.160843 239.800705,230.322693 240.620438,231.829575 
z"/>
<path fill="#BBBBBB" opacity="1.000000" stroke="none" 
	d="
M237.939331,227.708054 
	C237.656403,228.001755 237.439682,228.177795 237.243546,228.718811 
	C236.272324,227.730637 235.421265,226.550827 235.099762,225.268524 
	C236.243515,225.537918 236.857727,225.909805 237.471954,226.281677 
	C237.602905,226.660141 237.733871,227.038620 237.939331,227.708054 
z"/>
<path fill="#666666" opacity="1.000000" stroke="none" 
	d="
M227.190475,155.402618 
	C225.753845,155.454666 224.300125,155.152084 222.477051,154.919525 
	C221.998886,154.860565 221.890091,154.731567 221.876923,154.368195 
	C223.706161,154.438553 225.439774,154.743271 227.190475,155.402618 
z"/>
<path fill="#666666" opacity="1.000000" stroke="none" 
	d="
M237.602875,225.942215 
	C236.857727,225.909805 236.243515,225.537918 235.366257,225.085556 
	C235.032288,224.188660 234.961380,223.372223 235.096252,222.199402 
	C236.112640,223.096268 236.923218,224.349503 237.602875,225.942215 
z"/>
<path fill="#969696" opacity="1.000000" stroke="none" 
	d="
M279.753815,181.746765 
	C279.059052,182.782639 278.274994,183.731903 277.172913,184.774063 
	C276.854889,184.866974 276.682465,184.696335 276.760376,184.352081 
	C277.721497,183.166885 278.604675,182.325928 279.487885,181.484985 
	C279.487885,181.484985 279.664520,181.660156 279.753815,181.746765 
z"/>
<path fill="#666666" opacity="1.000000" stroke="none" 
	d="
M201.886932,189.808441 
	C202.254807,189.849899 202.415039,190.059509 202.763885,190.617035 
	C202.871017,191.513199 202.789566,192.061462 202.451233,192.936707 
	C202.022659,192.167999 201.850967,191.072281 201.886932,189.808441 
z"/>
<path fill="#666666" opacity="1.000000" stroke="none" 
	d="
M248.346542,238.505020 
	C247.562668,238.020599 246.832306,237.509109 245.983078,236.683426 
	C246.790558,236.810287 247.716904,237.251328 248.567047,238.045990 
	C248.490845,238.399628 248.400040,238.477951 248.346542,238.505020 
z"/>
<path fill="#969696" opacity="1.000000" stroke="none" 
	d="
M308.756287,186.058167 
	C309.569427,186.296173 310.243683,186.821381 310.990387,187.602188 
	C310.247711,187.353653 309.432556,186.849518 308.756287,186.058167 
z"/>
<path fill="#969696" opacity="1.000000" stroke="none" 
	d="
M305.786377,183.025436 
	C306.319580,183.091522 306.715668,183.425797 307.169159,183.950195 
	C306.700806,183.858093 306.175018,183.575867 305.786377,183.025436 
z"/>
<path fill="#020202" opacity="1.000000" stroke="none" 
	d="
M350.369263,198.773026 
	C350.615601,199.498566 350.666290,200.197800 350.407593,200.947693 
	C350.040955,200.534256 349.983704,200.070160 349.869659,199.256561 
	C349.812866,198.907074 350.173645,198.746704 350.369263,198.773026 
z"/>
<path fill="#020202" opacity="1.000000" stroke="none" 
	d="
M349.171356,207.134918 
	C349.374176,208.627197 349.154480,210.075211 348.345886,211.829224 
	C347.193146,213.147781 346.629333,214.160339 346.069214,215.517029 
	C346.198120,216.290878 346.323303,216.720596 346.448486,217.150330 
	C345.740662,218.320404 345.032867,219.490463 344.223877,220.996429 
	C340.317352,221.350693 336.512085,221.369049 332.342651,221.203964 
	C329.164764,215.623734 326.351044,210.226913 323.566040,204.432297 
	C325.945038,204.836823 328.295288,205.639145 330.853607,206.158585 
	C331.647430,206.009537 332.233185,206.143387 332.952698,206.914185 
	C333.814209,209.672073 334.851593,210.915222 337.024170,208.940079 
	C337.760559,208.948212 338.496948,208.956345 339.601257,208.948395 
	C341.826477,208.870544 343.714844,208.990723 345.529572,208.680313 
	C346.660248,208.486938 347.679565,207.642776 349.171356,207.134918 
z"/>
<path fill="#666666" opacity="1.000000" stroke="none" 
	d="
M279.685242,181.204193 
	C278.604675,182.325928 277.721497,183.166885 276.673462,184.267487 
	C274.777344,187.648758 273.046112,190.770386 271.045837,194.049347 
	C270.650726,186.905914 274.919464,182.040115 280.392639,178.329712 
	C282.899536,176.630188 286.387207,176.377441 289.720459,175.682861 
	C286.634735,177.572556 283.258667,179.247986 279.685242,181.204193 
z"/>
<path fill="#464646" opacity="1.000000" stroke="none" 
	d="
M262.719299,216.055389 
	C263.159607,208.454056 263.918060,200.712265 264.949127,192.743073 
	C266.229218,200.477432 266.908997,208.408630 262.719299,216.055389 
z"/>
<path fill="#666666" opacity="1.000000" stroke="none" 
	d="
M216.744629,153.611237 
	C213.141190,157.768280 209.281784,161.708466 205.132080,165.825592 
	C205.081284,164.389511 204.874084,162.512283 205.642944,161.212341 
	C208.074402,157.101273 211.277130,153.777405 216.744629,153.611237 
z"/>
<path fill="#666666" opacity="1.000000" stroke="none" 
	d="
M269.713104,208.216339 
	C269.539307,212.234894 269.022400,216.377899 268.207947,220.766876 
	C267.553864,216.691727 265.908295,212.222107 269.713104,208.216339 
z"/>
<path fill="#464646" opacity="1.000000" stroke="none" 
	d="
M239.756454,211.158722 
	C241.810501,213.877350 243.503662,216.760559 245.353943,219.920715 
	C240.766693,219.706680 238.729965,216.751083 239.756454,211.158722 
z"/>
<path fill="#151515" opacity="1.000000" stroke="none" 
	d="
M198.201569,156.910950 
	C199.193893,153.493484 200.578674,150.070068 202.281433,146.469284 
	C201.264282,149.829605 199.929153,153.367294 198.201569,156.910950 
z"/>
<path fill="#3F3F3F" opacity="1.000000" stroke="none" 
	d="
M269.316467,173.969421 
	C271.065338,170.965790 273.165680,167.956741 275.616455,164.949677 
	C273.867249,167.955780 271.767578,170.959900 269.316467,173.969421 
z"/>
<path fill="#3F3F3F" opacity="1.000000" stroke="none" 
	d="
M276.893066,164.595764 
	C279.454468,162.984619 282.399902,161.486084 285.719177,160.086578 
	C283.154419,161.693207 280.215759,163.200790 276.893066,164.595764 
z"/>
<path fill="#151515" opacity="1.000000" stroke="none" 
	d="
M206.682526,140.700409 
	C208.577271,138.977097 210.868423,137.348572 213.523575,135.733246 
	C211.618027,137.429367 209.348465,139.112289 206.682526,140.700409 
z"/>
<path fill="#151515" opacity="1.000000" stroke="none" 
	d="
M223.901001,136.096008 
	C225.679581,136.365723 227.170456,136.819977 228.859985,137.548401 
	C226.648163,139.410950 224.395218,140.443085 223.901001,136.096008 
z"/>
<path fill="#3F3F3F" opacity="1.000000" stroke="none" 
	d="
M294.993286,160.542175 
	C296.970612,160.713333 299.030334,161.252701 301.292877,162.070724 
	C299.355713,161.869705 297.215668,161.390045 294.993286,160.542175 
z"/>
<path fill="#3F3F3F" opacity="1.000000" stroke="none" 
	d="
M266.291992,182.902939 
	C266.470306,181.103668 267.005127,179.259766 267.837402,177.216370 
	C269.358917,179.401535 269.536407,181.519897 266.291992,182.902939 
z"/>
<path fill="#3F3F3F" opacity="1.000000" stroke="none" 
	d="
M303.182465,163.171509 
	C304.489990,163.446259 305.814606,164.107620 307.322754,165.035736 
	C306.070709,164.721039 304.635132,164.139587 303.182465,163.171509 
z"/>
<path fill="#515151" opacity="1.000000" stroke="none" 
	d="
M319.621887,188.223007 
	C320.545197,189.194687 321.238190,190.380157 321.776062,191.895584 
	C320.877777,190.962646 320.134674,189.699722 319.621887,188.223007 
z"/>
<path fill="#151515" opacity="1.000000" stroke="none" 
	d="
M232.874817,160.109039 
	C232.590881,160.242279 232.381409,160.007111 231.976898,159.272812 
	C231.755524,158.545013 231.629013,158.397278 231.402313,158.330490 
	C231.047531,158.135986 230.692749,157.941498 230.324081,157.418564 
	C234.112091,155.064026 232.638687,158.290512 232.874817,160.109039 
z"/>
<path fill="#464646" opacity="1.000000" stroke="none" 
	d="
M252.915802,222.537720 
	C253.800186,221.837097 255.047699,221.359756 256.647675,220.941376 
	C255.759720,221.587219 254.519333,222.174088 252.915802,222.537720 
z"/>
<path fill="#515151" opacity="1.000000" stroke="none" 
	d="
M316.923920,181.099411 
	C317.892792,182.086823 318.534119,183.169968 319.138367,184.579102 
	C318.266296,183.668442 317.431335,182.431793 316.923920,181.099411 
z"/>
<path fill="#3F3F3F" opacity="1.000000" stroke="none" 
	d="
M308.179565,166.119110 
	C309.136047,166.637497 310.070953,167.501526 310.972046,168.700195 
	C310.011444,168.178162 309.084747,167.321457 308.179565,166.119110 
z"/>
<path fill="#464646" opacity="1.000000" stroke="none" 
	d="
M247.035965,221.386597 
	C248.039062,221.250595 249.076630,221.503387 250.288300,222.033035 
	C249.331757,222.131714 248.201080,221.953552 247.035965,221.386597 
z"/>
<path fill="#151515" opacity="1.000000" stroke="none" 
	d="
M234.023895,141.220490 
	C235.006119,141.670456 235.969788,142.508453 236.988358,143.668823 
	C236.030609,143.196976 235.017960,142.402756 234.023895,141.220490 
z"/>
<path fill="#151515" opacity="1.000000" stroke="none" 
	d="
M203.492462,144.011520 
	C203.742599,143.202972 204.385422,142.388443 205.317535,141.434418 
	C205.032913,142.198471 204.459015,143.102005 203.492462,144.011520 
z"/>
<path fill="#151515" opacity="1.000000" stroke="none" 
	d="
M230.977448,138.635559 
	C231.802643,138.837875 232.645477,139.419235 233.596893,140.307678 
	C232.802017,140.081360 231.898544,139.547974 230.977448,138.635559 
z"/>
<path fill="#666666" opacity="1.000000" stroke="none" 
	d="
M243.599579,234.876083 
	C243.026337,234.808655 242.474380,234.420547 241.864288,233.773819 
	C242.411072,233.861938 243.015976,234.208664 243.599579,234.876083 
z"/>
<path fill="#515151" opacity="1.000000" stroke="none" 
	d="
M314.536133,174.851242 
	C315.137665,174.954926 315.557953,175.323013 315.971130,175.984589 
	C315.427673,175.890625 314.891266,175.503128 314.536133,174.851242 
z"/>
<path fill="#1B1B1B" opacity="1.000000" stroke="none" 
	d="
M202.651184,170.007309 
	C202.854294,170.547852 202.758194,171.113586 202.429718,171.860291 
	C202.248901,171.371674 202.300430,170.702087 202.651184,170.007309 
z"/>
<path fill="#444444" opacity="1.000000" stroke="none" 
	d="
M124.327980,191.922638 
	C123.914139,181.893875 123.774780,171.825394 123.909050,161.760559 
	C123.941231,159.348831 124.883766,156.949249 125.676659,154.270416 
	C125.952728,157.199905 125.961617,160.403030 125.966408,163.606171 
	C125.977608,171.091110 125.986847,178.576065 126.046371,186.527039 
	C125.631508,188.623459 125.167152,190.253845 124.327980,191.922638 
z"/>
<path fill="#464646" opacity="1.000000" stroke="none" 
	d="
M146.750778,153.647507 
	C141.023621,156.193756 137.070480,160.569794 133.985443,166.306183 
	C133.367157,160.065109 140.112900,153.176224 146.750778,153.647507 
z"/>
<path fill="#151515" opacity="1.000000" stroke="none" 
	d="
M163.335693,142.671753 
	C165.266876,145.286896 167.054901,148.313202 168.754501,151.694977 
	C164.676315,150.382874 164.127304,146.615158 163.335693,142.671753 
z"/>
<path fill="#464646" opacity="1.000000" stroke="none" 
	d="
M132.743317,170.137955 
	C132.584000,172.568481 132.044205,175.033813 131.231537,177.748230 
	C129.971207,175.127930 128.724960,172.212097 132.743317,170.137955 
z"/>
<path fill="#464646" opacity="1.000000" stroke="none" 
	d="
M164.257263,170.802307 
	C163.048492,168.860611 162.099945,166.721054 161.300964,164.315475 
	C162.472855,166.234436 163.495163,168.419434 164.257263,170.802307 
z"/>
<path fill="#464646" opacity="1.000000" stroke="none" 
	d="
M155.585999,156.057709 
	C153.788879,155.777008 152.072159,155.143066 150.181610,154.208557 
	C151.893982,154.506821 153.780197,155.105637 155.585999,156.057709 
z"/>
<path fill="#464646" opacity="1.000000" stroke="none" 
	d="
M160.645691,162.011993 
	C159.694473,161.458023 158.849701,160.552887 158.011230,159.317184 
	C158.929062,159.878021 159.840591,160.769409 160.645691,162.011993 
z"/>
<path fill="#444444" opacity="1.000000" stroke="none" 
	d="
M129.239151,147.896881 
	C129.243820,147.197632 129.602005,146.483154 130.279633,145.711761 
	C130.263611,146.397095 129.928146,147.139374 129.239151,147.896881 
z"/>
<path fill="#444444" opacity="1.000000" stroke="none" 
	d="
M127.340012,150.974640 
	C127.334366,150.281876 127.682922,149.574097 128.326904,148.760590 
	C128.312973,149.423126 128.003586,150.191360 127.340012,150.974640 
z"/>
<path fill="#464646" opacity="1.000000" stroke="none" 
	d="
M166.591553,191.097382 
	C165.918625,189.574677 165.429596,187.638840 165.068420,185.310394 
	C165.722656,186.839951 166.249054,188.762115 166.591553,191.097382 
z"/>
<path fill="#666666" opacity="1.000000" stroke="none" 
	d="
M198.385773,220.899445 
	C198.012970,222.729355 197.312180,224.680908 196.333588,226.832764 
	C196.723114,225.029068 197.390442,223.025085 198.385773,220.899445 
z"/>
<path fill="#464646" opacity="1.000000" stroke="none" 
	d="
M82.271576,210.709198 
	C81.291130,205.030212 80.352074,199.069733 80.086708,193.079407 
	C80.016243,191.488876 82.015297,189.806656 83.064156,188.166534 
	C84.154747,189.606140 85.453964,190.938904 86.264748,192.521835 
	C86.833130,193.631516 86.735130,195.082550 86.814743,196.766998 
	C85.495247,195.439178 84.295738,193.725494 82.565262,191.253265 
	C82.565262,198.047424 82.565262,204.231979 82.271576,210.709198 
z"/>
<path fill="#464646" opacity="1.000000" stroke="none" 
	d="
M86.797714,202.235626 
	C89.300377,206.093262 91.529877,210.192093 93.924622,214.584625 
	C89.270882,213.928146 86.061356,208.666931 86.797714,202.235626 
z"/>
<path fill="#464646" opacity="1.000000" stroke="none" 
	d="
M127.327484,212.927612 
	C127.309029,214.769867 126.959778,216.708267 126.285706,218.821289 
	C126.306168,217.005188 126.651428,215.014465 127.327484,212.927612 
z"/>
<path fill="#444444" opacity="1.000000" stroke="none" 
	d="
M121.242538,205.894180 
	C121.408310,204.420166 121.914337,202.909256 122.700363,201.198318 
	C122.514503,202.617950 122.048645,204.237610 121.242538,205.894180 
z"/>
<path fill="#464646" opacity="1.000000" stroke="none" 
	d="
M94.123001,215.222443 
	C95.295052,215.417664 96.479401,215.951828 97.829185,216.772583 
	C96.708183,216.559921 95.421745,216.060654 94.123001,215.222443 
z"/>
<path fill="#464646" opacity="1.000000" stroke="none" 
	d="
M113.204376,217.334183 
	C113.764160,216.373276 114.516197,215.641159 115.591949,214.902283 
	C115.075989,215.784668 114.236313,216.673813 113.204376,217.334183 
z"/>
<path fill="#464646" opacity="1.000000" stroke="none" 
	d="
M90.688805,229.932312 
	C89.670471,229.495773 88.717529,228.702484 87.751610,227.579010 
	C88.743820,228.024399 89.749001,228.799988 90.688805,229.932312 
z"/>
<path fill="#464646" opacity="1.000000" stroke="none" 
	d="
M87.468491,226.166046 
	C86.607018,225.798019 85.913193,225.112122 85.261948,224.124222 
	C86.081734,224.497543 86.858925,225.172852 87.468491,226.166046 
z"/>
<path fill="#444444" opacity="1.000000" stroke="none" 
	d="
M118.920334,211.708435 
	C118.889351,211.121475 119.156578,210.634262 119.700996,210.072205 
	C119.724976,210.600967 119.471764,211.204575 118.920334,211.708435 
z"/>
<path fill="#5C5C5C" opacity="1.000000" stroke="none" 
	d="
M368.320312,176.638565 
	C371.488800,176.052353 374.955109,175.728363 378.710327,175.693604 
	C375.538879,176.288818 372.078522,176.594803 368.320312,176.638565 
z"/>
<path fill="#5C5C5C" opacity="1.000000" stroke="none" 
	d="
M355.087646,189.753723 
	C354.923187,188.949509 355.062225,188.171295 355.440338,187.206573 
	C355.583313,187.939941 355.487244,188.859848 355.087646,189.753723 
z"/>
<path fill="#5C5C5C" opacity="1.000000" stroke="none" 
	d="
M353.520416,193.101791 
	C353.375763,192.480820 353.515930,191.772842 353.932373,190.990616 
	C354.074158,191.615845 353.939697,192.315308 353.520416,193.101791 
z"/>
<path fill="#5C5C5C" opacity="1.000000" stroke="none" 
	d="
M361.117432,179.699738 
	C361.475189,179.001923 362.186218,178.364944 363.202362,177.713043 
	C362.828552,178.385590 362.149628,179.073090 361.117432,179.699738 
z"/>
<path fill="#5C5C5C" opacity="1.000000" stroke="none" 
	d="
M356.238037,185.843948 
	C356.303101,185.242050 356.678711,184.563721 357.362274,183.829651 
	C357.296356,184.438446 356.922455,185.102966 356.238037,185.843948 
z"/>
<path fill="#5C5C5C" opacity="1.000000" stroke="none" 
	d="
M364.016296,177.571869 
	C364.344269,177.003281 364.970795,176.531143 365.903900,176.169052 
	C365.578613,176.742172 364.946686,177.205261 364.016296,177.571869 
z"/>
<path fill="#5C5C5C" opacity="1.000000" stroke="none" 
	d="
M358.454010,183.043198 
	C358.433136,182.397400 358.716492,181.662048 359.303589,180.838867 
	C359.324310,181.485229 359.041260,182.219437 358.454010,183.043198 
z"/>
<path fill="#666666" opacity="1.000000" stroke="none" 
	d="
M358.849457,195.309418 
	C358.701324,195.982559 358.249664,196.540939 357.509094,197.114395 
	C357.662079,196.484543 358.104004,195.839600 358.849457,195.309418 
z"/>
<path fill="#434343" opacity="1.000000" stroke="none" 
	d="
M443.425171,196.021362 
	C443.841461,198.714890 444.054443,201.874863 443.955383,205.243683 
	C443.502838,202.464294 443.362366,199.476059 443.425171,196.021362 
z"/>
<path fill="#434343" opacity="1.000000" stroke="none" 
	d="
M440.321533,184.818237 
	C439.822998,183.399887 439.585663,181.804733 439.348358,180.209564 
	C440.245850,180.522934 441.143311,180.836304 442.044189,181.548630 
	C441.559265,182.845535 441.071014,183.743484 440.321533,184.818237 
z"/>
<path fill="#5C5C5C" opacity="1.000000" stroke="none" 
	d="
M420.877502,212.604813 
	C421.950775,212.241241 423.165314,212.173920 424.825989,212.215027 
	C423.854340,212.515976 422.436554,212.708511 420.877502,212.604813 
z"/>
<path fill="#5C5C5C" opacity="1.000000" stroke="none" 
	d="
M408.907196,209.529175 
	C409.870117,209.734314 410.940002,210.260605 412.140625,211.064285 
	C411.185608,210.844559 410.099884,210.347427 408.907196,209.529175 
z"/>
<path fill="#5C5C5C" opacity="1.000000" stroke="none" 
	d="
M431.227539,211.527649 
	C431.401062,210.916718 431.792236,210.453415 432.494812,209.932098 
	C432.352539,210.474472 431.898865,211.074860 431.227539,211.527649 
z"/>
<path fill="#434343" opacity="1.000000" stroke="none" 
	d="
M439.487427,200.010605 
	C439.344238,199.348419 439.548004,198.612640 439.993988,197.708832 
	C440.102264,198.339554 439.968323,199.138290 439.487427,200.010605 
z"/>
<path fill="#666666" opacity="1.000000" stroke="none" 
	d="
M354.392883,200.992813 
	C354.513947,200.109848 354.969269,199.178314 355.749878,198.176849 
	C355.625793,199.052689 355.176483,199.998459 354.392883,200.992813 
z"/>
<path fill="#030303" opacity="1.000000" stroke="none" 
	d="
M336.886719,208.632828 
	C334.851593,210.915222 333.814209,209.672073 333.073273,207.193359 
	C334.289795,207.332260 335.519531,207.828918 336.886719,208.632828 
z"/>
<path fill="#030303" opacity="1.000000" stroke="none" 
	d="
M231.368164,158.513992 
	C231.629013,158.397278 231.755524,158.545013 231.829041,158.824188 
	C231.876251,158.874695 231.535812,159.000946 231.535812,159.000946 
	C231.535812,159.000946 231.334000,158.697495 231.368164,158.513992 
z"/>
<path fill="#666666" opacity="1.000000" stroke="none" 
	d="
M346.748016,217.071167 
	C346.323303,216.720596 346.198120,216.290878 346.317993,215.377396 
	C347.041809,214.595535 347.520630,214.297424 347.999451,213.999329 
	C347.999451,213.999329 348.208008,214.169998 348.318542,214.251556 
	C347.968597,215.219421 347.508087,216.105713 346.748016,217.071167 
z"/>
<path fill="#030303" opacity="1.000000" stroke="none" 
	d="
M348.053284,213.682465 
	C347.520630,214.297424 347.041809,214.595535 346.314240,215.033264 
	C346.629333,214.160339 347.193146,213.147781 348.167480,212.150970 
	C348.420990,212.566345 348.264038,212.965973 348.053284,213.682465 
z"/>
</svg>