<svg version="1.1" id="Layer_1" xmlns="http://www.w3.org/2000/svg" xmlns:xlink="http://www.w3.org/1999/xlink" x="0px" y="0px"
	 width="100%" viewBox="0 0 512 514" enable-background="new 0 0 512 514" xml:space="preserve">
<path fill="none" opacity="1.000000" stroke="#000000" stroke-linecap="round" stroke-linejoin="round" stroke-width="7.000000"
	d="
M85.000000,259.250000 
	C80.224983,267.313416 77.538940,276.223145 74.474579,284.991119 
	C71.118324,294.594238 68.661346,304.549683 67.778107,314.524628 
	C66.708549,326.603790 65.804245,338.816742 68.797401,351.049561 
	C71.094971,360.439545 74.399117,368.880280 80.977814,376.020447 
	C87.547989,383.151367 100.726685,385.670715 109.929085,381.830078 
	C112.772324,380.643463 114.899704,377.628082 117.083221,375.071075 
	C122.528770,368.694122 126.773003,361.364777 133.427338,355.911346 
	C141.049652,349.664612 150.277374,349.909760 156.466217,357.527435 
	C160.141434,362.051208 163.423553,366.894165 166.899734,371.574463 
	C174.049271,381.200531 183.420517,384.586243 195.003647,383.540405 
	C204.294159,382.701538 209.253738,376.811005 212.439651,368.975464 
	C214.761307,363.265472 215.910477,357.173279 215.961212,350.999695 
	C216.081741,336.334015 216.063171,321.666168 215.951767,307.000366 
	C215.926620,303.686981 216.506256,300.806122 219.000000,298.500000 
"/>
<path fill="none" opacity="1.000000" stroke="#000000" stroke-linecap="round" stroke-linejoin="round" stroke-width="6.000000"
	d="
M284.000000,172.500000 
	C281.186981,174.427643 281.581238,177.483551 282.099976,179.979218 
	C284.301178,190.569580 284.573853,201.247711 284.534973,212.000122 
	C284.431946,240.499756 284.483246,269.000031 284.513916,297.500000 
	C284.520142,303.304352 284.089966,309.001984 282.026123,314.509796 
	C280.750366,317.914429 279.239563,320.918793 274.999817,320.989258 
	C271.749634,321.043304 268.497284,317.907867 267.489685,314.002655 
	C265.583984,306.616577 265.029205,299.076782 265.019592,291.499969 
	C264.975220,256.500031 265.136414,221.499115 264.908173,186.500595 
	C264.847900,177.257904 261.399994,169.052658 254.534500,162.464050 
	C251.987625,160.019897 249.616516,157.320572 247.576019,154.446030 
	C246.209717,152.521271 244.443420,151.487396 242.500000,150.500000 
"/>
<path fill="none" opacity="1.000000" stroke="#000000" stroke-linecap="round" stroke-linejoin="round" stroke-width="7.000000"
	d="
M252.000000,164.500000 
	C248.251770,168.639084 249.715225,173.386627 250.525223,177.995560 
	C251.602478,184.125107 251.930679,190.328171 251.941513,196.500107 
	C252.040878,253.166595 251.996582,309.833344 252.006271,366.500000 
	C252.007080,371.232910 251.052017,375.784180 248.938782,379.969086 
	C247.473450,382.871002 244.955750,385.347137 241.518433,384.867859 
	C237.932526,384.367828 236.121964,381.413940 234.960037,378.013672 
	C232.675247,371.327515 232.875366,364.379211 232.532257,357.498383 
	C232.009186,347.008209 233.586365,336.473816 231.990524,326.001434 
	C230.944473,319.136993 230.565643,312.396973 225.743515,306.307159 
	C221.676636,301.171143 218.175537,295.400055 216.990967,288.082397 
	C216.264282,283.593323 213.612961,278.400513 211.018768,274.140808 
	C208.108124,269.361481 203.328339,265.745667 199.517761,261.484100 
	C190.667358,251.586304 179.495956,245.905426 166.483780,244.670929 
	C158.166061,243.881790 149.802139,244.838837 143.936020,252.450684 
	C142.122513,254.803894 141.276505,257.135498 141.486984,260.000946 
	C141.588486,261.382935 141.681854,262.878815 139.500000,262.500000 
"/>
<path fill="none" opacity="1.000000" stroke="#000000" stroke-linecap="round" stroke-linejoin="round" stroke-width="6.000000"
	d="
M207.000000,140.500000 
	C206.919769,141.915329 206.970886,143.138702 208.476410,144.039429 
	C211.282318,145.718155 213.065170,148.421341 215.056732,150.955414 
	C217.233566,153.725174 219.388214,156.429504 222.385330,158.654465 
	C227.810822,162.682144 230.109802,169.062546 230.893524,175.512939 
	C232.726883,190.602478 233.447647,205.806320 232.936768,220.997879 
	C232.067978,246.832916 232.773911,272.667297 232.510406,298.500092 
	C232.466187,302.834808 231.945938,307.020782 229.500000,310.750000 
"/>
<path fill="none" opacity="1.000000" stroke="#000000" stroke-linecap="round" stroke-linejoin="round" stroke-width="6.000000"
	d="
M459.500000,179.500000 
	C459.633270,185.167648 460.913055,190.725388 460.157959,196.520584 
	C459.600708,200.797195 457.769043,204.230545 455.440765,207.457260 
	C451.515991,212.896500 443.347809,212.656387 436.007324,208.985352 
	C429.905182,205.933609 427.361847,199.810318 424.053070,194.467133 
	C417.891479,184.516937 406.387329,179.873230 395.512207,183.536224 
	C390.476685,185.232300 387.811188,189.711334 385.929077,194.077194 
	C384.064758,198.401749 381.855774,202.332916 379.009277,206.007187 
	C375.362793,210.714096 369.104523,211.648804 365.085663,207.418610 
	C361.592743,203.742050 357.991180,200.139771 355.404755,195.553726 
	C349.882294,185.761795 338.748383,180.550323 328.034485,183.142502 
	C320.561249,184.950607 316.216400,190.589600 313.957581,197.987045 
	C309.733185,211.821487 311.740051,225.990372 311.716827,240.000366 
	C311.707428,245.664856 311.723083,251.339142 311.449646,256.997559 
	C311.311188,259.863007 308.907532,261.798218 307.327667,263.868500 
	C306.361572,265.134460 303.746979,265.894196 301.969299,263.523010 
	C299.605347,260.369751 298.102112,257.136597 297.913086,253.003983 
	C297.112640,235.502579 297.888214,217.995071 297.431793,200.501785 
	C297.185181,191.050079 297.032166,181.108017 290.330322,173.652527 
	C285.989594,168.823685 281.710175,163.940491 277.548798,158.959229 
	C276.795013,158.056915 276.120850,158.849884 275.500000,158.500000 
"/>
<path fill="none" opacity="1.000000" stroke="#000000" stroke-linecap="round" stroke-linejoin="round" stroke-width="5.000000"
	d="
M100.500000,226.000000 
	C100.333336,226.000000 100.147987,226.048691 100.002693,225.992981 
	C94.845512,224.014740 89.487923,223.153778 84.035667,222.277969 
	C79.353836,221.525879 76.479500,217.116974 74.633553,212.940964 
	C73.141464,209.565491 72.224571,205.685379 72.111206,201.996582 
	C71.732086,189.660934 71.744370,177.298676 73.059738,165.006393 
	C73.587074,160.078445 72.494286,155.497513 70.926155,151.025894 
	C69.553932,147.112900 62.216873,147.620560 59.061188,152.043655 
	C55.706585,156.745575 53.518330,161.999405 55.029552,167.992554 
	C55.828079,171.159286 55.379597,174.330902 55.500000,177.500000 
"/>
<path fill="none" opacity="1.000000" stroke="#000000" stroke-linecap="round" stroke-linejoin="round" stroke-width="6.000000"
	d="
M191.500000,222.500000 
	C191.500000,210.000000 191.480484,197.499954 191.505814,185.000015 
	C191.528305,173.902969 188.015732,163.954575 180.930511,155.558640 
	C172.996674,146.157104 158.298676,146.540634 149.976242,153.471466 
	C145.384506,157.295410 143.124649,163.204803 138.000000,166.500000 
"/>
<path fill="none" opacity="1.000000" stroke="#000000" stroke-linecap="round" stroke-linejoin="round" stroke-width="7.000000"
	d="
M137.500000,173.500000 
	C137.333328,173.333328 137.110825,173.195282 137.008545,172.995621 
	C135.850525,170.734985 138.936996,167.827545 137.378708,166.662186 
	C131.550888,162.304016 129.206879,154.859756 122.992027,151.012878 
	C114.760254,145.917587 101.280273,148.360321 94.999878,155.999893 
	C85.567299,167.473862 84.039452,180.853256 85.477768,195.002258 
	C86.283821,202.931580 88.838058,210.418442 91.096855,217.971039 
	C91.521217,219.389938 91.460159,220.650818 91.500000,222.000000 
"/>
<path fill="none" opacity="1.000000" stroke="#000000" stroke-linecap="round" stroke-linejoin="round" stroke-width="7.000000"
	d="
M218.000000,157.500000 
	C214.921600,160.791138 214.301117,164.854462 215.071259,168.986725 
	C216.126205,174.647293 215.991425,180.316116 215.994431,186.000000 
	C216.007462,210.666672 215.956223,235.333481 216.042908,259.999847 
	C216.057434,264.130310 215.004425,267.636597 212.000000,270.500000 
"/>
<path fill="none" opacity="1.000000" stroke="#000000" stroke-linecap="round" stroke-linejoin="round" stroke-width="6.000000"
	d="
M141.500000,263.000000 
	C141.906097,270.451874 147.369766,276.061249 148.900299,283.021912 
	C150.381042,289.756195 151.769913,296.428497 147.153976,303.106445 
	C142.775085,309.441437 136.904785,310.262634 130.515457,309.387238 
	C121.500504,308.152039 115.617981,302.327667 111.491150,294.504669 
	C107.935608,287.764679 105.684708,280.810333 106.398590,272.990753 
	C106.682541,269.880432 105.833328,266.666656 105.500000,263.500000 
"/>
</svg>