<svg version="1.1" id="Layer_1" xmlns="http://www.w3.org/2000/svg" xmlns:xlink="http://www.w3.org/1999/xlink" x="0px" y="0px"
	 width="100%" viewBox="0 0 512 512" enable-background="new 0 0 512 512" xml:space="preserve">
<path fill="#000000" opacity="1.000000" stroke="none" 
	d="
M338.110107,239.089630 
	C321.525726,257.675171 303.210693,273.868805 283.895111,288.953369 
	C261.806519,306.203522 238.781509,322.006104 213.177475,333.709290 
	C203.025162,338.349731 192.654434,342.379547 181.707642,344.796143 
	C177.901047,345.636505 174.061310,345.637299 170.284058,345.170471 
	C163.942719,344.386780 159.712128,339.892456 158.902512,333.658936 
	C158.074661,327.284973 161.511963,320.311981 167.378387,318.119751 
	C173.741516,315.741882 180.420456,314.224213 186.903595,312.149933 
	C215.452209,303.015991 240.524307,287.236206 265.335052,270.971802 
	C290.165192,254.694702 311.587769,234.560516 331.337006,212.545074 
	C333.681549,209.931473 336.060425,207.389481 339.025757,205.467239 
	C343.049622,202.858810 347.375458,201.371353 351.508484,204.700638 
	C355.473297,207.894424 354.723083,212.358612 353.452789,216.672806 
	C352.399750,220.249100 350.407471,223.343414 348.221680,226.272247 
	C345.038605,230.537399 341.639069,234.640991 338.110107,239.089630 
z"/>
</svg>