<svg version="1.1" id="Layer_1" xmlns="http://www.w3.org/2000/svg" xmlns:xlink="http://www.w3.org/1999/xlink" x="0px" y="0px"
	 width="100%" viewBox="0 0 512 514" enable-background="new 0 0 512 514" xml:space="preserve">
<path fill="#FFFFFF" opacity="1.000000" stroke="none" 
	d="
M287.000000,515.000000 
	C191.356506,515.000000 96.213013,515.000000 1.034757,515.000000 
	C1.034757,343.731567 1.034757,172.463120 1.034757,1.097333 
	C171.560165,1.097333 342.120422,1.097333 512.840332,1.097333 
	C512.840332,172.333221 512.840332,343.666595 512.840332,515.000000 
	C437.796387,515.000000 362.648193,515.000000 287.000000,515.000000 
M362.461884,230.876419 
	C364.569275,229.261734 367.000580,227.931671 368.719360,225.975555 
	C372.833344,221.293640 377.089325,216.613312 380.353699,211.352600 
	C382.437531,207.994370 382.555328,203.466110 379.002777,200.386032 
	C375.506470,197.354660 371.330109,197.077560 367.460449,199.663239 
	C364.024017,201.959442 360.841797,204.659332 357.675598,207.332840 
	C338.749176,223.314102 317.775696,234.473953 292.387085,235.517166 
	C288.977631,235.657257 286.779327,234.863235 284.555969,231.821152 
	C276.730438,221.113907 265.088654,217.314987 252.408386,221.087036 
	C246.606476,222.812943 242.387283,226.628555 240.267120,232.602371 
	C237.511063,240.367935 240.297653,246.447784 245.870209,251.715164 
	C231.213669,269.794250 215.391556,286.319824 197.825714,301.155304 
	C179.357880,316.752625 159.753433,330.514587 136.886856,339.038666 
	C129.015198,341.973053 120.936623,344.482880 113.372795,348.072235 
	C107.055283,351.070129 105.201782,357.213593 107.102119,364.179382 
	C108.716934,370.098602 113.825005,373.787567 120.758286,373.434662 
	C124.188972,373.260040 127.700340,372.552399 130.958313,371.446777 
	C151.888931,364.344025 170.824509,353.408813 188.215668,339.975708 
	C217.051071,317.702942 241.524353,291.050110 264.206909,262.666351 
	C265.303833,261.293762 267.629547,260.067383 269.328705,260.135162 
	C303.629486,261.503448 334.196869,251.032394 362.461884,230.876419 
z"/>
<path fill="#040404" opacity="1.000000" stroke="none" 
	d="
M362.196655,231.118942 
	C334.196869,251.032394 303.629486,261.503448 269.328705,260.135162 
	C267.629547,260.067383 265.303833,261.293762 264.206909,262.666351 
	C241.524353,291.050110 217.051071,317.702942 188.215668,339.975708 
	C170.824509,353.408813 151.888931,364.344025 130.958313,371.446777 
	C127.700340,372.552399 124.188972,373.260040 120.758286,373.434662 
	C113.825005,373.787567 108.716934,370.098602 107.102119,364.179382 
	C105.201782,357.213593 107.055283,351.070129 113.372795,348.072235 
	C120.936623,344.482880 129.015198,341.973053 136.886856,339.038666 
	C159.753433,330.514587 179.357880,316.752625 197.825714,301.155304 
	C215.391556,286.319824 231.213669,269.794250 245.870209,251.715164 
	C240.297653,246.447784 237.511063,240.367935 240.267120,232.602371 
	C242.387283,226.628555 246.606476,222.812943 252.408386,221.087036 
	C265.088654,217.314987 276.730438,221.113907 284.555969,231.821152 
	C286.779327,234.863235 288.977631,235.657257 292.387085,235.517166 
	C317.775696,234.473953 338.749176,223.314102 357.675598,207.332840 
	C360.841797,204.659332 364.024017,201.959442 367.460449,199.663239 
	C371.330109,197.077560 375.506470,197.354660 379.002777,200.386032 
	C382.555328,203.466110 382.437531,207.994370 380.353699,211.352600 
	C377.089325,216.613312 372.833344,221.293640 368.719360,225.975555 
	C367.000580,227.931671 364.569275,229.261734 362.196655,231.118942 
z"/>
</svg>