<svg version="1.1" id="Layer_1" xmlns="http://www.w3.org/2000/svg" xmlns:xlink="http://www.w3.org/1999/xlink" x="0px" y="0px"
	 width="100%" viewBox="0 0 512 514" enable-background="new 0 0 512 514" xml:space="preserve">
<path fill="#FFFFFF" opacity="1.000000" stroke="none" 
	d="
M288.000000,515.000000 
	C192.023254,515.000000 96.546509,515.000000 1.034879,515.000000 
	C1.034879,343.731628 1.034879,172.463272 1.034879,1.097455 
	C171.560089,1.097455 342.120270,1.097455 512.840210,1.097455 
	C512.840210,172.333221 512.840210,343.666595 512.840210,515.000000 
	C438.129883,515.000000 363.314941,515.000000 288.000000,515.000000 
M380.380157,248.856583 
	C391.181885,241.602448 401.375336,233.645950 409.587860,223.422729 
	C414.706787,217.050461 419.800842,210.649429 418.990509,201.707825 
	C418.523468,196.554459 414.389404,193.093781 409.359009,194.260361 
	C406.763916,194.862183 403.988495,196.214157 402.097992,198.053131 
	C395.183044,204.779633 388.796814,212.051239 381.855835,218.749039 
	C371.786896,228.465256 361.188904,237.591629 347.215851,241.299316 
	C337.154144,243.969147 327.225311,245.138824 319.057098,236.367325 
	C317.212036,234.385986 316.432098,232.949844 317.995911,230.026733 
	C319.974548,226.328171 321.319946,222.047195 321.839478,217.880417 
	C322.356201,213.735962 321.199219,209.494629 316.756805,207.458771 
	C312.343658,205.436356 308.283661,206.586426 304.731873,209.579575 
	C302.705933,211.286865 300.873413,213.233231 299.027985,215.143600 
	C288.498383,226.043777 276.393341,234.057419 260.894562,235.596161 
	C259.324280,235.752045 256.880005,234.995575 256.093262,233.822678 
	C252.133041,227.918671 246.749527,223.765640 240.277481,221.483749 
	C230.827301,218.151840 221.308411,218.692657 213.575790,225.620575 
	C204.617920,233.646194 206.142334,244.400452 214.832611,252.392883 
	C202.971664,264.937622 191.431122,277.788788 179.188782,289.932404 
	C162.945206,306.045074 144.683029,319.699615 124.107780,329.779388 
	C111.685852,335.864868 98.644806,340.724060 85.742714,345.778839 
	C77.092697,349.167694 73.236862,355.121613 75.197113,363.430481 
	C76.933228,370.789276 82.927803,374.453247 91.737167,373.181152 
	C104.640800,371.317780 115.927818,365.224854 126.967758,358.835297 
	C166.626450,335.882141 199.321594,304.995361 227.547623,269.224457 
	C232.029129,263.545044 235.620911,259.397736 244.142914,260.012451 
	C261.712677,261.279755 278.093323,255.586899 293.703735,247.859436 
	C296.140869,246.652985 297.424347,247.023819 299.132568,249.058243 
	C308.343109,260.027557 320.491943,264.430420 334.495239,263.953827 
	C350.959412,263.393433 365.834229,257.726776 380.380157,248.856583 
z"/>
<path fill="#040404" opacity="1.000000" stroke="none" 
	d="
M380.041260,248.988480 
	C365.834229,257.726776 350.959412,263.393433 334.495239,263.953827 
	C320.491943,264.430420 308.343109,260.027557 299.132568,249.058243 
	C297.424347,247.023819 296.140869,246.652985 293.703735,247.859436 
	C278.093323,255.586899 261.712677,261.279755 244.142914,260.012451 
	C235.620911,259.397736 232.029129,263.545044 227.547623,269.224457 
	C199.321594,304.995361 166.626450,335.882141 126.967758,358.835297 
	C115.927818,365.224854 104.640800,371.317780 91.737167,373.181152 
	C82.927803,374.453247 76.933228,370.789276 75.197113,363.430481 
	C73.236862,355.121613 77.092697,349.167694 85.742714,345.778839 
	C98.644806,340.724060 111.685852,335.864868 124.107780,329.779388 
	C144.683029,319.699615 162.945206,306.045074 179.188782,289.932404 
	C191.431122,277.788788 202.971664,264.937622 214.832611,252.392883 
	C206.142334,244.400452 204.617920,233.646194 213.575790,225.620575 
	C221.308411,218.692657 230.827301,218.151840 240.277481,221.483749 
	C246.749527,223.765640 252.133041,227.918671 256.093262,233.822678 
	C256.880005,234.995575 259.324280,235.752045 260.894562,235.596161 
	C276.393341,234.057419 288.498383,226.043777 299.027985,215.143600 
	C300.873413,213.233231 302.705933,211.286865 304.731873,209.579575 
	C308.283661,206.586426 312.343658,205.436356 316.756805,207.458771 
	C321.199219,209.494629 322.356201,213.735962 321.839478,217.880417 
	C321.319946,222.047195 319.974548,226.328171 317.995911,230.026733 
	C316.432098,232.949844 317.212036,234.385986 319.057098,236.367325 
	C327.225311,245.138824 337.154144,243.969147 347.215851,241.299316 
	C361.188904,237.591629 371.786896,228.465256 381.855835,218.749039 
	C388.796814,212.051239 395.183044,204.779633 402.097992,198.053131 
	C403.988495,196.214157 406.763916,194.862183 409.359009,194.260361 
	C414.389404,193.093781 418.523468,196.554459 418.990509,201.707825 
	C419.800842,210.649429 414.706787,217.050461 409.587860,223.422729 
	C401.375336,233.645950 391.181885,241.602448 380.041260,248.988480 
z"/>
</svg>