<svg version="1.1" id="Layer_1" xmlns="http://www.w3.org/2000/svg" xmlns:xlink="http://www.w3.org/1999/xlink" x="0px" y="0px"
	 width="100%" viewBox="0 0 512 514" enable-background="new 0 0 512 514" xml:space="preserve">
<path fill="#FFFFFF" opacity="1.000000" stroke="none" 
	d="
M376.000000,515.000000 
	C250.697067,515.000000 125.894127,515.000000 1.045593,515.000000 
	C1.045593,343.738800 1.045593,172.477570 1.045593,1.108168 
	C171.552933,1.108168 342.105957,1.108168 512.829468,1.108168 
	C512.829468,172.333191 512.829468,343.666595 512.829468,515.000000 
	C467.477509,515.000000 421.988739,515.000000 376.000000,515.000000 
M301.097321,267.242615 
	C313.773682,269.810272 326.373352,272.914001 339.155396,274.743256 
	C346.747986,275.829834 354.979492,276.498627 361.904449,271.853455 
	C364.170288,270.333557 366.460876,266.999908 366.471527,264.486145 
	C366.482330,261.940857 364.151520,258.835999 361.982635,256.992310 
	C359.984711,255.293945 356.906708,254.527206 354.185577,254.089539 
	C348.619202,253.194244 342.908783,253.141357 337.373993,252.114685 
	C327.893097,250.356049 318.501495,248.116135 307.841370,245.812271 
	C325.551331,230.423157 342.228760,216.826050 361.950165,207.443420 
	C366.722473,205.172974 371.228119,202.259903 375.610382,199.280487 
	C378.567261,197.270187 380.382294,193.723511 378.527679,190.630661 
	C377.157013,188.344833 373.873535,186.625595 371.118103,185.920456 
	C368.571442,185.268723 365.536316,186.039810 362.815735,186.637131 
	C350.491302,189.342972 339.391754,195.057724 329.065094,201.972702 
	C315.177063,211.272507 301.804413,221.341934 287.821655,231.359634 
	C286.909119,230.767090 285.311829,229.601547 283.599670,228.640640 
	C276.707184,224.772369 270.098389,220.125931 262.783905,217.350967 
	C253.554153,213.849442 245.121323,219.085266 243.828903,227.674576 
	C242.906860,233.802322 246.334152,237.834717 250.561539,241.195892 
	C255.556854,245.167618 260.918152,248.679031 266.301117,252.518616 
	C265.106354,253.772217 264.177979,254.963028 263.043060,255.904953 
	C244.134567,271.597656 225.824142,288.100494 206.115143,302.716614 
	C180.972092,321.362579 153.218094,335.358673 122.491409,342.769653 
	C118.808182,343.658051 115.086716,344.674591 111.646538,346.218872 
	C106.053078,348.729706 104.378418,353.569275 104.949341,359.408569 
	C105.530914,365.356659 108.615486,370.162231 114.267479,370.759857 
	C120.200607,371.387238 126.662758,371.350739 132.305893,369.651825 
	C161.128830,360.974365 187.848480,347.717407 211.151688,328.619293 
	C232.981628,310.728607 254.226364,292.074646 274.977814,272.942261 
	C282.913757,265.625488 289.839447,260.440826 301.097321,267.242615 
z"/>
<path fill="#040404" opacity="1.000000" stroke="none" 
	d="
M300.713745,267.118652 
	C289.839447,260.440826 282.913757,265.625488 274.977814,272.942261 
	C254.226364,292.074646 232.981628,310.728607 211.151688,328.619293 
	C187.848480,347.717407 161.128830,360.974365 132.305893,369.651825 
	C126.662758,371.350739 120.200607,371.387238 114.267479,370.759857 
	C108.615486,370.162231 105.530914,365.356659 104.949341,359.408569 
	C104.378418,353.569275 106.053078,348.729706 111.646538,346.218872 
	C115.086716,344.674591 118.808182,343.658051 122.491409,342.769653 
	C153.218094,335.358673 180.972092,321.362579 206.115143,302.716614 
	C225.824142,288.100494 244.134567,271.597656 263.043060,255.904953 
	C264.177979,254.963028 265.106354,253.772217 266.301117,252.518616 
	C260.918152,248.679031 255.556854,245.167618 250.561539,241.195892 
	C246.334152,237.834717 242.906860,233.802322 243.828903,227.674576 
	C245.121323,219.085266 253.554153,213.849442 262.783905,217.350967 
	C270.098389,220.125931 276.707184,224.772369 283.599670,228.640640 
	C285.311829,229.601547 286.909119,230.767090 287.821655,231.359634 
	C301.804413,221.341934 315.177063,211.272507 329.065094,201.972702 
	C339.391754,195.057724 350.491302,189.342972 362.815735,186.637131 
	C365.536316,186.039810 368.571442,185.268723 371.118103,185.920456 
	C373.873535,186.625595 377.157013,188.344833 378.527679,190.630661 
	C380.382294,193.723511 378.567261,197.270187 375.610382,199.280487 
	C371.228119,202.259903 366.722473,205.172974 361.950165,207.443420 
	C342.228760,216.826050 325.551331,230.423157 307.841370,245.812271 
	C318.501495,248.116135 327.893097,250.356049 337.373993,252.114685 
	C342.908783,253.141357 348.619202,253.194244 354.185577,254.089539 
	C356.906708,254.527206 359.984711,255.293945 361.982635,256.992310 
	C364.151520,258.835999 366.482330,261.940857 366.471527,264.486145 
	C366.460876,266.999908 364.170288,270.333557 361.904449,271.853455 
	C354.979492,276.498627 346.747986,275.829834 339.155396,274.743256 
	C326.373352,272.914001 313.773682,269.810272 300.713745,267.118652 
z"/>
</svg>