<svg version="1.1" id="Layer_1" xmlns="http://www.w3.org/2000/svg" xmlns:xlink="http://www.w3.org/1999/xlink" x="0px" y="0px"
	 width="100%" viewBox="0 0 512 514" enable-background="new 0 0 512 514" xml:space="preserve">
<path fill="#FFFFFF" opacity="1.000000" stroke="none" 
	d="
M279.000000,515.000000 
	C186.022522,515.000000 93.545044,515.000000 1.033784,515.000000 
	C1.033784,343.730927 1.033784,172.461823 1.033784,1.096359 
	C171.560822,1.096359 342.121735,1.096359 512.841309,1.096359 
	C512.841309,172.333221 512.841309,343.666595 512.841309,515.000000 
	C435.128418,515.000000 357.314209,515.000000 279.000000,515.000000 
M200.494125,344.010132 
	C217.240173,346.878906 233.985947,346.254181 250.760178,344.180939 
	C284.774200,339.976898 315.999786,328.733948 342.974457,307.181396 
	C360.935211,292.830902 374.685699,275.502502 379.387695,252.221573 
	C384.233215,228.230026 371.858734,209.443649 347.827576,204.769196 
	C335.854919,202.440323 323.965454,203.311630 312.237061,206.447662 
	C296.835999,210.565750 283.607727,218.704742 271.487488,228.814987 
	C269.501740,230.471420 267.930176,231.831543 265.031250,229.981445 
	C246.190826,217.957443 225.429718,214.875107 203.716522,218.141190 
	C178.708267,221.902954 158.394302,233.190140 146.655762,256.709961 
	C134.242889,281.580902 139.482193,309.284790 159.870636,326.535797 
	C171.348450,336.247406 185.123520,340.996826 200.494125,344.010132 
z"/>
<path fill="#020202" opacity="1.000000" stroke="none" 
	d="
M200.063690,343.967651 
	C185.123520,340.996826 171.348450,336.247406 159.870636,326.535797 
	C139.482193,309.284790 134.242889,281.580902 146.655762,256.709961 
	C158.394302,233.190140 178.708267,221.902954 203.716522,218.141190 
	C225.429718,214.875107 246.190826,217.957443 265.031250,229.981445 
	C267.930176,231.831543 269.501740,230.471420 271.487488,228.814987 
	C283.607727,218.704742 296.835999,210.565750 312.237061,206.447662 
	C323.965454,203.311630 335.854919,202.440323 347.827576,204.769196 
	C371.858734,209.443649 384.233215,228.230026 379.387695,252.221573 
	C374.685699,275.502502 360.935211,292.830902 342.974457,307.181396 
	C315.999786,328.733948 284.774200,339.976898 250.760178,344.180939 
	C233.985947,346.254181 217.240173,346.878906 200.063690,343.967651 
M233.576324,310.085266 
	C231.259445,314.432312 228.942581,318.779358 226.168594,323.984100 
	C234.286041,323.244720 241.395889,322.842560 248.436081,321.913025 
	C277.606537,318.061432 304.702972,308.820312 327.860443,290.056946 
	C340.190796,280.066223 350.453156,268.396851 354.481079,252.466217 
	C357.788849,239.383575 351.952972,229.412460 338.739319,226.807693 
	C333.158112,225.707474 327.080902,225.707855 321.442810,226.583572 
	C306.001862,228.981796 293.283264,237.174530 281.740326,247.234909 
	C261.646454,264.747925 246.845871,286.377777 233.576324,310.085266 
M169.836166,265.440033 
	C155.762589,292.454224 175.806747,317.344177 202.939255,320.740021 
	C216.072754,294.892334 231.667969,270.528046 250.090820,247.850204 
	C239.662064,242.021133 228.855148,239.705917 217.594147,239.743912 
	C197.492371,239.811722 181.091095,247.203323 169.836166,265.440033 
z"/>
<path fill="#FDFDFD" opacity="1.000000" stroke="none" 
	d="
M233.761368,309.764801 
	C246.845871,286.377777 261.646454,264.747925 281.740326,247.234909 
	C293.283264,237.174530 306.001862,228.981796 321.442810,226.583572 
	C327.080902,225.707855 333.158112,225.707474 338.739319,226.807693 
	C351.952972,229.412460 357.788849,239.383575 354.481079,252.466217 
	C350.453156,268.396851 340.190796,280.066223 327.860443,290.056946 
	C304.702972,308.820312 277.606537,318.061432 248.436081,321.913025 
	C241.395889,322.842560 234.286041,323.244720 226.168594,323.984100 
	C228.942581,318.779358 231.259445,314.432312 233.761368,309.764801 
z"/>
<path fill="#FDFDFD" opacity="1.000000" stroke="none" 
	d="
M169.977325,265.094910 
	C181.091095,247.203323 197.492371,239.811722 217.594147,239.743912 
	C228.855148,239.705917 239.662064,242.021133 250.090820,247.850204 
	C231.667969,270.528046 216.072754,294.892334 202.939255,320.740021 
	C175.806747,317.344177 155.762589,292.454224 169.977325,265.094910 
z"/>
</svg>