<svg version="1.1" id="Layer_1" xmlns="http://www.w3.org/2000/svg" xmlns:xlink="http://www.w3.org/1999/xlink" x="0px" y="0px"
	 width="100%" viewBox="0 0 512 514" enable-background="new 0 0 512 514" xml:space="preserve">
<path fill="#FFFFFF" opacity="1.000000" stroke="none" 
	d="
M284.000000,515.000000 
	C189.356262,515.000000 95.212524,515.000000 1.034392,515.000000 
	C1.034392,343.731323 1.034392,172.462631 1.034392,1.096968 
	C171.560410,1.096968 342.120911,1.096968 512.840698,1.096968 
	C512.840698,172.333221 512.840698,343.666595 512.840698,515.000000 
	C436.795898,515.000000 360.647949,515.000000 284.000000,515.000000 
M348.751160,218.216568 
	C345.010468,220.564331 340.790741,222.399155 337.621460,225.358780 
	C329.101318,233.315277 321.137482,241.863510 312.753357,249.970566 
	C302.188171,260.186493 298.544342,260.464386 285.830902,252.702042 
	C284.412933,251.836273 283.033539,250.884964 281.734894,249.849579 
	C269.704590,240.258057 268.472046,223.917343 279.366333,213.111893 
	C283.087036,209.421509 287.852448,206.782776 292.148285,203.674255 
	C297.525513,199.783218 299.389374,195.586731 297.739746,191.043427 
	C296.269318,186.993591 291.718811,184.616226 285.492096,185.710617 
	C268.236359,188.743469 256.664764,199.165878 250.850342,215.279938 
	C244.965164,231.590149 247.650162,247.082718 259.978180,259.639496 
	C266.127533,265.902985 273.862549,270.609680 280.882050,276.021912 
	C256.065094,294.382050 229.351868,311.399872 200.454346,324.823029 
	C183.199188,332.838226 165.197922,338.528625 146.477341,342.042023 
	C137.345490,343.755859 132.480591,350.122375 133.581207,358.039398 
	C134.878769,367.373169 141.306396,372.586609 151.498062,370.424500 
	C162.790253,368.028870 174.182617,364.981598 184.725113,360.373535 
	C226.882904,341.946564 265.264557,317.193237 301.005066,288.343414 
	C318.128754,274.521118 334.731689,260.050232 348.614990,242.837097 
	C351.803558,238.883804 354.516144,234.327805 356.445282,229.636902 
	C358.520721,224.590179 356.394623,218.243790 348.751160,218.216568 
z"/>
<path fill="#020202" opacity="1.000000" stroke="none" 
	d="
M349.142761,218.187866 
	C356.394623,218.243790 358.520721,224.590179 356.445282,229.636902 
	C354.516144,234.327805 351.803558,238.883804 348.614990,242.837097 
	C334.731689,260.050232 318.128754,274.521118 301.005066,288.343414 
	C265.264557,317.193237 226.882904,341.946564 184.725113,360.373535 
	C174.182617,364.981598 162.790253,368.028870 151.498062,370.424500 
	C141.306396,372.586609 134.878769,367.373169 133.581207,358.039398 
	C132.480591,350.122375 137.345490,343.755859 146.477341,342.042023 
	C165.197922,338.528625 183.199188,332.838226 200.454346,324.823029 
	C229.351868,311.399872 256.065094,294.382050 280.882050,276.021912 
	C273.862549,270.609680 266.127533,265.902985 259.978180,259.639496 
	C247.650162,247.082718 244.965164,231.590149 250.850342,215.279938 
	C256.664764,199.165878 268.236359,188.743469 285.492096,185.710617 
	C291.718811,184.616226 296.269318,186.993591 297.739746,191.043427 
	C299.389374,195.586731 297.525513,199.783218 292.148285,203.674255 
	C287.852448,206.782776 283.087036,209.421509 279.366333,213.111893 
	C268.472046,223.917343 269.704590,240.258057 281.734894,249.849579 
	C283.033539,250.884964 284.412933,251.836273 285.830902,252.702042 
	C298.544342,260.464386 302.188171,260.186493 312.753357,249.970566 
	C321.137482,241.863510 329.101318,233.315277 337.621460,225.358780 
	C340.790741,222.399155 345.010468,220.564331 349.142761,218.187866 
z"/>
</svg>