<svg version="1.1" id="Layer_1" xmlns="http://www.w3.org/2000/svg" xmlns:xlink="http://www.w3.org/1999/xlink" x="0px" y="0px"
	 width="100%" viewBox="0 0 512 514" enable-background="new 0 0 512 514" xml:space="preserve">
<path fill="#FFFFFF" opacity="1.000000" stroke="none" 
	d="
M299.000000,515.000000 
	C199.357483,515.000000 100.214958,515.000000 1.036218,515.000000 
	C1.036218,343.732544 1.036218,172.465057 1.036218,1.098794 
	C171.559189,1.098794 342.118469,1.098794 512.838867,1.098794 
	C512.838867,172.333206 512.838867,343.666595 512.838867,515.000000 
	C441.798340,515.000000 370.649170,515.000000 299.000000,515.000000 
M248.300644,280.160583 
	C252.376694,281.567596 256.452728,282.974609 261.166870,284.601868 
	C252.641861,290.462616 244.829758,296.116760 236.740067,301.341064 
	C213.417023,316.403015 189.801865,331.011810 163.566910,340.588226 
	C155.017365,343.709015 145.939713,345.357513 137.296143,348.253967 
	C129.717941,350.793427 126.533478,357.766113 128.603424,365.509186 
	C130.500549,372.605774 137.228409,377.162445 145.908539,375.183838 
	C156.524231,372.763977 167.128143,369.586060 177.136490,365.325043 
	C234.187439,341.036011 281.084167,302.576935 323.836517,258.600739 
	C333.175507,248.994415 340.191864,237.647476 343.567902,224.387299 
	C348.843597,203.665787 340.306366,189.610565 320.233337,186.055725 
	C288.668182,180.465683 250.661911,196.711807 233.544144,223.991943 
	C229.431610,230.545975 226.395752,238.468948 225.342560,246.104156 
	C223.187988,261.723877 230.484985,271.747589 248.300644,280.160583 
z"/>
<path fill="#020202" opacity="1.000000" stroke="none" 
	d="
M247.937042,280.043640 
	C230.484985,271.747589 223.187988,261.723877 225.342560,246.104156 
	C226.395752,238.468948 229.431610,230.545975 233.544144,223.991943 
	C250.661911,196.711807 288.668182,180.465683 320.233337,186.055725 
	C340.306366,189.610565 348.843597,203.665787 343.567902,224.387299 
	C340.191864,237.647476 333.175507,248.994415 323.836517,258.600739 
	C281.084167,302.576935 234.187439,341.036011 177.136490,365.325043 
	C167.128143,369.586060 156.524231,372.763977 145.908539,375.183838 
	C137.228409,377.162445 130.500549,372.605774 128.603424,365.509186 
	C126.533478,357.766113 129.717941,350.793427 137.296143,348.253967 
	C145.939713,345.357513 155.017365,343.709015 163.566910,340.588226 
	C189.801865,331.011810 213.417023,316.403015 236.740067,301.341064 
	C244.829758,296.116760 252.641861,290.462616 261.166870,284.601868 
	C256.452728,282.974609 252.376694,281.567596 247.937042,280.043640 
M321.290680,220.062073 
	C321.623932,212.924240 318.703583,208.741302 311.722473,207.078751 
	C298.638885,203.962906 286.597687,207.668777 275.315643,213.813416 
	C263.728943,220.124023 253.653931,228.239487 249.654068,241.665146 
	C246.947006,250.751511 249.558228,258.547272 258.109314,262.071106 
	C265.495972,265.115143 273.707733,266.205383 281.612183,267.889740 
	C282.745331,268.131226 284.493866,267.162140 285.462372,266.235596 
	C293.866852,258.195648 302.518585,250.367188 310.358063,241.799866 
	C315.710571,235.950378 320.047455,229.104050 321.290680,220.062073 
z"/>
<path fill="#FDFDFD" opacity="1.000000" stroke="none" 
	d="
M321.227570,220.451614 
	C320.047455,229.104050 315.710571,235.950378 310.358063,241.799866 
	C302.518585,250.367188 293.866852,258.195648 285.462372,266.235596 
	C284.493866,267.162140 282.745331,268.131226 281.612183,267.889740 
	C273.707733,266.205383 265.495972,265.115143 258.109314,262.071106 
	C249.558228,258.547272 246.947006,250.751511 249.654068,241.665146 
	C253.653931,228.239487 263.728943,220.124023 275.315643,213.813416 
	C286.597687,207.668777 298.638885,203.962906 311.722473,207.078751 
	C318.703583,208.741302 321.623932,212.924240 321.227570,220.451614 
z"/>
</svg>