<svg version="1.1" id="Layer_1" xmlns="http://www.w3.org/2000/svg" xmlns:xlink="http://www.w3.org/1999/xlink" x="0px" y="0px"
	 width="100%" viewBox="0 0 512 514" enable-background="new 0 0 512 514" xml:space="preserve">
<path fill="#FFFFFF" opacity="1.000000" stroke="none" 
	d="
M304.000000,515.000000 
	C202.691223,515.000000 101.882439,515.000000 1.036827,515.000000 
	C1.036827,343.732941 1.036827,172.465881 1.036827,1.099403 
	C171.558792,1.099403 342.117645,1.099403 512.838257,1.099403 
	C512.838257,172.333206 512.838257,343.666595 512.838257,515.000000 
	C443.465820,515.000000 373.982910,515.000000 304.000000,515.000000 
M200.031250,218.092056 
	C202.512039,222.912979 206.780991,224.287399 211.760452,223.878693 
	C214.563843,223.648590 217.378403,223.110916 220.098312,222.378845 
	C238.757050,217.356934 257.485535,212.251694 276.959351,212.656631 
	C288.849670,212.903870 300.814575,214.251801 312.532959,216.315170 
	C319.536713,217.548401 321.248230,221.888535 318.000671,228.286087 
	C315.030212,234.137741 311.530640,240.097183 306.945190,244.693069 
	C270.182434,281.539398 226.594376,306.572052 175.925262,318.983948 
	C168.503647,320.801910 160.946655,322.099396 153.585251,324.121674 
	C146.793579,325.987488 143.403976,331.613953 144.094666,338.623322 
	C144.747818,345.252014 148.569733,349.264008 155.990250,349.678101 
	C160.898758,349.951996 165.974579,349.356171 170.815308,348.366364 
	C199.617493,342.477295 226.128952,330.734161 251.260742,315.812408 
	C278.086517,299.884827 303.759247,282.299713 325.572540,259.746460 
	C334.375244,250.645172 342.358246,240.769562 346.211670,228.334656 
	C350.248810,215.306870 346.846436,205.889893 334.476990,200.252411 
	C326.742798,196.727493 318.171783,194.451416 309.739532,193.156326 
	C285.022400,189.360077 260.226044,190.561264 235.565521,194.120789 
	C225.236679,195.611664 214.788544,197.126282 205.578033,202.699249 
	C199.301849,206.496765 197.885025,210.136078 200.031250,218.092056 
z"/>
<path fill="#030303" opacity="1.000000" stroke="none" 
	d="
M199.905579,217.715576 
	C197.885025,210.136078 199.301849,206.496765 205.578033,202.699249 
	C214.788544,197.126282 225.236679,195.611664 235.565521,194.120789 
	C260.226044,190.561264 285.022400,189.360077 309.739532,193.156326 
	C318.171783,194.451416 326.742798,196.727493 334.476990,200.252411 
	C346.846436,205.889893 350.248810,215.306870 346.211670,228.334656 
	C342.358246,240.769562 334.375244,250.645172 325.572540,259.746460 
	C303.759247,282.299713 278.086517,299.884827 251.260742,315.812408 
	C226.128952,330.734161 199.617493,342.477295 170.815308,348.366364 
	C165.974579,349.356171 160.898758,349.951996 155.990250,349.678101 
	C148.569733,349.264008 144.747818,345.252014 144.094666,338.623322 
	C143.403976,331.613953 146.793579,325.987488 153.585251,324.121674 
	C160.946655,322.099396 168.503647,320.801910 175.925262,318.983948 
	C226.594376,306.572052 270.182434,281.539398 306.945190,244.693069 
	C311.530640,240.097183 315.030212,234.137741 318.000671,228.286087 
	C321.248230,221.888535 319.536713,217.548401 312.532959,216.315170 
	C300.814575,214.251801 288.849670,212.903870 276.959351,212.656631 
	C257.485535,212.251694 238.757050,217.356934 220.098312,222.378845 
	C217.378403,223.110916 214.563843,223.648590 211.760452,223.878693 
	C206.780991,224.287399 202.512039,222.912979 199.905579,217.715576 
z"/>
</svg>