<svg version="1.1" id="Layer_1" xmlns="http://www.w3.org/2000/svg" xmlns:xlink="http://www.w3.org/1999/xlink" x="0px" y="0px"
	 width="100%" viewBox="0 0 512 514" enable-background="new 0 0 512 514" xml:space="preserve">
<path fill="#FFFFFF" opacity="1.000000" stroke="none" 
	d="
M291.000000,515.000000 
	C194.023499,515.000000 97.546989,515.000000 1.035244,515.000000 
	C1.035244,343.731873 1.035244,172.463760 1.035244,1.097820 
	C171.559845,1.097820 342.119781,1.097820 512.839844,1.097820 
	C512.839844,172.333206 512.839844,343.666595 512.839844,515.000000 
	C439.130371,515.000000 365.315186,515.000000 291.000000,515.000000 
M308.632050,182.362411 
	C307.465912,187.364319 309.529205,190.709991 314.004456,192.804184 
	C316.708130,194.069366 319.455322,195.246033 322.125458,196.577682 
	C329.202484,200.107147 335.894196,204.151764 338.051392,212.504410 
	C341.007629,223.951340 336.431427,233.154434 328.264465,240.536682 
	C312.670105,254.632614 294.079926,258.643127 273.692993,255.089691 
	C271.935730,254.783386 270.286499,253.006546 268.898560,251.604477 
	C265.770264,248.444260 263.229645,244.576828 259.746979,241.917831 
	C251.315231,235.480194 238.629791,238.260147 233.884460,247.134384 
	C230.381958,253.684433 232.162537,260.425293 240.139740,268.736359 
	C232.181137,277.062408 224.608063,285.885498 216.110291,293.703461 
	C192.278305,315.628967 165.451477,332.572083 133.863953,341.221710 
	C127.678764,342.915405 121.478958,344.776581 115.592430,347.281006 
	C109.040154,350.068665 106.521057,356.348572 108.205284,363.447113 
	C109.674767,369.640564 114.402527,373.429535 121.292999,373.450836 
	C124.242348,373.459961 127.292244,373.045227 130.129791,372.237549 
	C165.666504,362.122650 196.104050,343.002167 222.759109,317.954956 
	C235.536407,305.948395 246.703491,292.233978 258.742279,279.426971 
	C259.973083,278.117615 262.196777,277.007446 263.938110,277.037964 
	C271.883026,277.177429 279.859924,278.478821 287.752869,278.045013 
	C312.544128,276.682343 334.354279,268.039703 350.942078,248.950089 
	C366.403046,231.157333 370.728241,200.324799 341.680817,185.866241 
	C342.534760,185.541580 343.081390,185.366730 343.600616,185.131393 
	C352.147034,181.257751 361.019562,177.951233 369.123779,173.304947 
	C375.012268,169.929001 375.549530,164.646271 372.288177,159.649994 
	C369.644531,155.600098 363.210358,154.066177 358.489288,157.343384 
	C347.290985,165.116852 334.745453,169.412125 321.846039,173.160202 
	C316.823364,174.619629 311.643280,176.425354 308.632050,182.362411 
z"/>
<path fill="#040404" opacity="1.000000" stroke="none" 
	d="
M308.785400,182.017273 
	C311.643280,176.425354 316.823364,174.619629 321.846039,173.160202 
	C334.745453,169.412125 347.290985,165.116852 358.489288,157.343384 
	C363.210358,154.066177 369.644531,155.600098 372.288177,159.649994 
	C375.549530,164.646271 375.012268,169.929001 369.123779,173.304947 
	C361.019562,177.951233 352.147034,181.257751 343.600616,185.131393 
	C343.081390,185.366730 342.534760,185.541580 341.680817,185.866241 
	C370.728241,200.324799 366.403046,231.157333 350.942078,248.950089 
	C334.354279,268.039703 312.544128,276.682343 287.752869,278.045013 
	C279.859924,278.478821 271.883026,277.177429 263.938110,277.037964 
	C262.196777,277.007446 259.973083,278.117615 258.742279,279.426971 
	C246.703491,292.233978 235.536407,305.948395 222.759109,317.954956 
	C196.104050,343.002167 165.666504,362.122650 130.129791,372.237549 
	C127.292244,373.045227 124.242348,373.459961 121.292999,373.450836 
	C114.402527,373.429535 109.674767,369.640564 108.205284,363.447113 
	C106.521057,356.348572 109.040154,350.068665 115.592430,347.281006 
	C121.478958,344.776581 127.678764,342.915405 133.863953,341.221710 
	C165.451477,332.572083 192.278305,315.628967 216.110291,293.703461 
	C224.608063,285.885498 232.181137,277.062408 240.139740,268.736359 
	C232.162537,260.425293 230.381958,253.684433 233.884460,247.134384 
	C238.629791,238.260147 251.315231,235.480194 259.746979,241.917831 
	C263.229645,244.576828 265.770264,248.444260 268.898560,251.604477 
	C270.286499,253.006546 271.935730,254.783386 273.692993,255.089691 
	C294.079926,258.643127 312.670105,254.632614 328.264465,240.536682 
	C336.431427,233.154434 341.007629,223.951340 338.051392,212.504410 
	C335.894196,204.151764 329.202484,200.107147 322.125458,196.577682 
	C319.455322,195.246033 316.708130,194.069366 314.004456,192.804184 
	C309.529205,190.709991 307.465912,187.364319 308.785400,182.017273 
z"/>
</svg>