<svg version="1.1" id="Layer_1" xmlns="http://www.w3.org/2000/svg" xmlns:xlink="http://www.w3.org/1999/xlink" x="0px" y="0px"
	 width="100%" viewBox="0 0 512 514" enable-background="new 0 0 512 514" xml:space="preserve">
<path fill="#FFFFFF" opacity="1.000000" stroke="none" 
	d="
M277.000000,515.000000 
	C184.689026,515.000000 92.878052,515.000000 1.033540,515.000000 
	C1.033540,343.730743 1.033540,172.461487 1.033540,1.096116 
	C171.560989,1.096116 342.122040,1.096116 512.841553,1.096116 
	C512.841553,172.333221 512.841553,343.666595 512.841553,515.000000 
	C434.461426,515.000000 355.980713,515.000000 277.000000,515.000000 
M188.507156,275.087341 
	C185.443069,283.375153 188.676163,289.314209 195.592560,293.784973 
	C198.658966,295.767120 201.873642,297.518433 204.991028,299.423615 
	C207.964737,301.240997 211.079712,302.890686 213.815872,305.020874 
	C220.670349,310.357269 221.109192,317.156342 215.004501,323.372406 
	C213.051758,325.360779 210.754791,327.219910 208.273346,328.446167 
	C192.834030,336.075623 176.360611,338.988373 159.343506,337.214905 
	C150.320923,336.274628 141.521088,333.360870 132.541656,331.789764 
	C125.650711,330.584076 121.544991,333.018524 119.756378,338.410278 
	C117.587662,344.947845 119.555214,350.646393 125.429062,353.756165 
	C128.186417,355.215973 131.193405,356.399780 134.227402,357.110718 
	C159.101212,362.939575 183.455917,360.853485 207.239975,351.780396 
	C217.880753,347.721161 227.845413,342.473633 235.765060,333.989410 
	C248.486053,320.361511 246.803391,304.121460 231.542603,293.529785 
	C226.897385,290.305786 222.125641,287.254272 217.592148,283.881439 
	C211.318222,279.213745 210.419678,275.456482 215.882935,269.855713 
	C222.869492,262.693298 230.894516,256.543915 237.973053,250.391632 
	C244.611389,255.248474 249.718216,259.586304 255.374649,263.018280 
	C278.869812,277.273682 303.610931,282.554199 330.097168,271.987610 
	C354.623016,262.203094 367.599060,242.330505 366.020966,217.399017 
	C365.255951,205.313126 358.119934,196.386017 346.559052,193.042480 
	C334.486725,189.551010 322.384064,190.750870 310.521973,193.641159 
	C273.009552,202.781387 239.893585,220.628693 210.732269,245.742065 
	C201.531860,253.665344 193.000214,262.437714 188.507156,275.087341 
z"/>
<path fill="#020202" opacity="1.000000" stroke="none" 
	d="
M188.657013,274.722656 
	C193.000214,262.437714 201.531860,253.665344 210.732269,245.742065 
	C239.893585,220.628693 273.009552,202.781387 310.521973,193.641159 
	C322.384064,190.750870 334.486725,189.551010 346.559052,193.042480 
	C358.119934,196.386017 365.255951,205.313126 366.020966,217.399017 
	C367.599060,242.330505 354.623016,262.203094 330.097168,271.987610 
	C303.610931,282.554199 278.869812,277.273682 255.374649,263.018280 
	C249.718216,259.586304 244.611389,255.248474 237.973053,250.391632 
	C230.894516,256.543915 222.869492,262.693298 215.882935,269.855713 
	C210.419678,275.456482 211.318222,279.213745 217.592148,283.881439 
	C222.125641,287.254272 226.897385,290.305786 231.542603,293.529785 
	C246.803391,304.121460 248.486053,320.361511 235.765060,333.989410 
	C227.845413,342.473633 217.880753,347.721161 207.239975,351.780396 
	C183.455917,360.853485 159.101212,362.939575 134.227402,357.110718 
	C131.193405,356.399780 128.186417,355.215973 125.429062,353.756165 
	C119.555214,350.646393 117.587662,344.947845 119.756378,338.410278 
	C121.544991,333.018524 125.650711,330.584076 132.541656,331.789764 
	C141.521088,333.360870 150.320923,336.274628 159.343506,337.214905 
	C176.360611,338.988373 192.834030,336.075623 208.273346,328.446167 
	C210.754791,327.219910 213.051758,325.360779 215.004501,323.372406 
	C221.109192,317.156342 220.670349,310.357269 213.815872,305.020874 
	C211.079712,302.890686 207.964737,301.240997 204.991028,299.423615 
	C201.873642,297.518433 198.658966,295.767120 195.592560,293.784973 
	C188.676163,289.314209 185.443069,283.375153 188.657013,274.722656 
M295.845734,220.312469 
	C283.855011,225.809998 271.864258,231.307526 259.011993,237.200043 
	C271.791626,247.771225 284.825653,254.871582 300.283691,255.584763 
	C316.239655,256.320892 330.381073,251.798782 338.978394,237.000397 
	C342.449341,231.025909 344.699707,224.007599 340.623322,217.621658 
	C336.700012,211.475494 329.645355,211.600677 323.420441,212.888458 
	C314.367584,214.761230 305.518707,217.619843 295.845734,220.312469 
z"/>
<path fill="#FCFCFC" opacity="1.000000" stroke="none" 
	d="
M296.214294,220.185287 
	C305.518707,217.619843 314.367584,214.761230 323.420441,212.888458 
	C329.645355,211.600677 336.700012,211.475494 340.623322,217.621658 
	C344.699707,224.007599 342.449341,231.025909 338.978394,237.000397 
	C330.381073,251.798782 316.239655,256.320892 300.283691,255.584763 
	C284.825653,254.871582 271.791626,247.771225 259.011993,237.200043 
	C271.864258,231.307526 283.855011,225.809998 296.214294,220.185287 
z"/>
</svg>