<svg version="1.1" id="Layer_1" xmlns="http://www.w3.org/2000/svg" xmlns:xlink="http://www.w3.org/1999/xlink" x="0px" y="0px"
	 width="100%" viewBox="0 0 512 512" enable-background="new 0 0 512 512" xml:space="preserve">
<path fill="#000000" opacity="1.000000" stroke="none" 
	d="
M348.710266,200.369827 
	C351.919434,205.317535 351.175812,209.809326 348.505096,214.293152 
	C345.493164,219.349777 341.548126,223.677155 337.550659,227.893799 
	C302.415161,264.955505 265.532074,300.151154 223.739731,329.695312 
	C200.460068,346.152283 175.615723,360.164734 149.384857,371.537933 
	C143.837601,373.943115 138.181458,375.559937 131.950699,374.385101 
	C125.379951,373.146179 121.388260,369.655304 120.052780,363.277924 
	C118.832214,357.449310 121.052841,351.842651 126.192848,348.568848 
	C128.273682,347.243439 130.612457,346.218262 132.959534,345.431213 
	C173.910370,331.698730 210.449799,310.234650 243.619400,282.741241 
	C266.333466,263.914185 288.528290,244.507629 310.067810,224.350815 
	C311.234558,223.258972 312.751862,222.407394 313.390808,220.296661 
	C302.907257,220.287842 292.772858,222.178497 282.551300,222.806824 
	C268.119507,223.693954 253.691940,225.750214 239.229294,223.366196 
	C237.131134,223.020325 235.038177,222.233627 233.116623,221.295074 
	C223.967728,216.826431 222.180115,206.717758 229.125671,199.305939 
	C231.662231,196.599106 234.724289,194.578644 237.836304,192.645126 
	C253.285904,183.046158 268.191864,172.708664 281.869873,160.667267 
	C285.403748,157.556244 289.332703,155.070755 294.029724,154.044312 
	C299.435547,152.862976 304.541748,154.733032 306.728790,158.700073 
	C309.248199,163.270142 308.554993,168.269455 304.462189,172.421570 
	C298.803375,178.162384 291.888733,182.266541 285.164581,186.580215 
	C277.317200,191.614471 269.372284,196.496735 260.601440,201.988586 
	C272.379456,202.110596 283.141296,201.068481 293.910858,200.203354 
	C308.005249,199.071121 322.093048,197.843002 336.198578,196.872253 
	C340.523834,196.574570 344.876617,197.066910 348.710266,200.369827 
z"/>
</svg>