<svg version="1.1" id="Layer_1" xmlns="http://www.w3.org/2000/svg" xmlns:xlink="http://www.w3.org/1999/xlink" x="0px" y="0px"
	 width="100%" viewBox="0 0 512 514" enable-background="new 0 0 512 514" xml:space="preserve">
<path fill="#FFFFFF" opacity="1.000000" stroke="none" 
	d="
M280.000000,515.000000 
	C186.689270,515.000000 93.878540,515.000000 1.033905,515.000000 
	C1.033905,343.730988 1.033905,172.461975 1.033905,1.096481 
	C171.560745,1.096481 342.121552,1.096481 512.841187,1.096481 
	C512.841187,172.333221 512.841187,343.666595 512.841187,515.000000 
	C435.461914,515.000000 357.980957,515.000000 280.000000,515.000000 
M329.267487,214.692093 
	C334.170258,212.263855 339.155121,209.985382 343.948700,207.357941 
	C347.504852,205.408752 349.026794,202.237610 348.136108,198.085083 
	C347.266998,194.033279 344.682404,191.193253 340.782135,191.006287 
	C336.095367,190.781586 330.862885,190.635010 326.713196,192.421204 
	C306.142517,201.275711 285.584808,210.249939 265.592072,220.313507 
	C257.600708,224.336060 250.355911,230.565552 244.043701,237.032410 
	C234.333160,246.980927 234.093277,259.130493 242.799728,270.003784 
	C247.335556,275.668488 253.124268,280.327637 258.326233,285.462097 
	C261.755951,288.847290 265.530823,291.970917 268.478882,295.737793 
	C274.768097,303.773743 274.021118,311.595306 266.134186,318.062286 
	C262.212891,321.277618 257.681061,324.465820 252.905884,325.783722 
	C240.147385,329.304901 227.224747,332.600586 214.152374,334.528137 
	C194.826324,337.377777 175.621185,336.070801 157.123444,328.896027 
	C154.671051,327.944855 152.050659,327.194275 149.447128,326.911194 
	C142.985977,326.208557 139.027359,328.628357 136.767288,334.211609 
	C134.697388,339.325073 136.001495,345.147095 141.051880,348.293152 
	C145.627563,351.143494 150.708618,353.889252 155.913849,354.907928 
	C190.550690,361.686371 224.480072,358.423187 257.523407,346.224213 
	C270.310150,341.503571 282.003571,334.892822 290.459473,323.747314 
	C299.617798,311.675934 299.651154,297.768494 289.967194,286.210419 
	C285.622925,281.025391 280.172485,276.762665 275.187744,272.120392 
	C271.660645,268.835632 267.765076,265.888885 264.585693,262.302246 
	C260.088837,257.229401 260.177307,253.094604 264.936432,248.242264 
	C268.166565,244.948853 271.742462,241.585876 275.819763,239.602921 
	C293.264648,231.118698 310.953125,223.135300 329.267487,214.692093 
z"/>
<path fill="#030303" opacity="1.000000" stroke="none" 
	d="
M328.910126,214.830688 
	C310.953125,223.135300 293.264648,231.118698 275.819763,239.602921 
	C271.742462,241.585876 268.166565,244.948853 264.936432,248.242264 
	C260.177307,253.094604 260.088837,257.229401 264.585693,262.302246 
	C267.765076,265.888885 271.660645,268.835632 275.187744,272.120392 
	C280.172485,276.762665 285.622925,281.025391 289.967194,286.210419 
	C299.651154,297.768494 299.617798,311.675934 290.459473,323.747314 
	C282.003571,334.892822 270.310150,341.503571 257.523407,346.224213 
	C224.480072,358.423187 190.550690,361.686371 155.913849,354.907928 
	C150.708618,353.889252 145.627563,351.143494 141.051880,348.293152 
	C136.001495,345.147095 134.697388,339.325073 136.767288,334.211609 
	C139.027359,328.628357 142.985977,326.208557 149.447128,326.911194 
	C152.050659,327.194275 154.671051,327.944855 157.123444,328.896027 
	C175.621185,336.070801 194.826324,337.377777 214.152374,334.528137 
	C227.224747,332.600586 240.147385,329.304901 252.905884,325.783722 
	C257.681061,324.465820 262.212891,321.277618 266.134186,318.062286 
	C274.021118,311.595306 274.768097,303.773743 268.478882,295.737793 
	C265.530823,291.970917 261.755951,288.847290 258.326233,285.462097 
	C253.124268,280.327637 247.335556,275.668488 242.799728,270.003784 
	C234.093277,259.130493 234.333160,246.980927 244.043701,237.032410 
	C250.355911,230.565552 257.600708,224.336060 265.592072,220.313507 
	C285.584808,210.249939 306.142517,201.275711 326.713196,192.421204 
	C330.862885,190.635010 336.095367,190.781586 340.782135,191.006287 
	C344.682404,191.193253 347.266998,194.033279 348.136108,198.085083 
	C349.026794,202.237610 347.504852,205.408752 343.948700,207.357941 
	C339.155121,209.985382 334.170258,212.263855 328.910126,214.830688 
z"/>
</svg>