<svg version="1.1" id="Layer_1" xmlns="http://www.w3.org/2000/svg" xmlns:xlink="http://www.w3.org/1999/xlink" x="0px" y="0px"
	 width="100%" viewBox="0 0 512 512" enable-background="new 0 0 512 512" xml:space="preserve">
<path fill="#000000" opacity="1.000000" stroke="none" 
	d="
M339.151459,244.144318 
	C351.940765,233.441833 361.581726,220.521805 370.749695,207.188507 
	C374.013245,202.442200 377.746460,198.222397 383.898560,197.265381 
	C392.320068,195.955338 397.590454,201.315552 395.979187,209.630875 
	C394.599396,216.751556 390.643616,222.626404 385.861420,227.711929 
	C372.392426,242.035202 358.490051,255.935257 342.144562,267.087433 
	C338.417236,269.630524 334.467102,271.841217 330.182648,273.218689 
	C317.590118,277.267273 307.413483,273.114166 300.600677,261.388428 
	C296.469727,254.278549 293.993530,246.564545 292.302887,237.766922 
	C286.084747,244.571533 280.438934,251.021301 274.077667,256.764526 
	C268.614471,261.696869 262.788055,266.041382 256.097015,269.226593 
	C249.011551,272.599518 242.490082,272.227173 236.853165,266.525818 
	C233.594254,263.229614 230.754196,263.221954 226.837997,265.643188 
	C203.702942,279.946686 182.319687,296.124939 167.357224,319.430725 
	C161.438400,328.650024 158.323090,338.815002 158.912979,349.717163 
	C159.735855,364.925293 169.115753,373.662262 182.599167,378.754181 
	C193.799911,382.984039 205.584167,384.139679 217.391357,384.586334 
	C242.466888,385.535095 267.231873,382.920380 291.691406,377.306824 
	C294.103027,376.753296 296.634888,376.606049 299.120026,376.513397 
	C305.975311,376.257874 309.339111,378.750244 310.671326,384.875366 
	C311.838837,390.243286 309.092133,395.027130 303.204590,397.264221 
	C292.705322,401.253693 281.597443,402.545807 270.603851,404.321564 
	C256.284729,406.634430 241.826202,407.733887 227.370956,407.752136 
	C206.190750,407.778900 185.165573,406.288422 165.472946,397.084167 
	C135.804764,383.217407 128.483719,351.615814 140.265717,324.809052 
	C150.208496,302.186920 167.357269,285.610474 186.205551,270.499359 
	C195.434891,263.099976 205.456863,256.827728 215.244492,250.398346 
	C215.412994,247.834351 213.614594,246.648834 212.266205,245.264267 
	C208.423645,241.318695 204.761536,237.211212 201.683990,232.649094 
	C197.845627,226.959122 197.880493,221.750610 202.089890,216.523727 
	C206.232315,211.379990 211.848312,208.462265 218.446152,207.939774 
	C223.386292,207.548538 226.411850,210.814316 228.878479,214.532898 
	C234.121155,222.436478 238.881561,230.662094 245.108521,237.892502 
	C251.282654,245.061584 253.634766,245.583679 261.477142,240.107300 
	C272.757660,232.230011 282.091370,222.261536 290.869202,211.761948 
	C293.018341,209.191299 295.146698,206.614273 298.066345,204.919510 
	C302.562988,202.309341 306.469116,203.783386 308.507172,208.616013 
	C310.759888,213.957764 310.116394,219.762695 311.285339,225.288269 
	C312.872131,232.788940 314.453247,240.253372 318.171021,247.062317 
	C321.346741,252.878571 324.669342,253.909485 330.375641,250.487244 
	C333.359985,248.697433 336.060150,246.433670 339.151459,244.144318 
z"/>
</svg>