<svg version="1.1" id="Layer_1" xmlns="http://www.w3.org/2000/svg" xmlns:xlink="http://www.w3.org/1999/xlink" x="0px" y="0px"
	 width="100%" viewBox="0 0 512 514" enable-background="new 0 0 512 514" xml:space="preserve">
<path fill="#FFFFFF" opacity="1.000000" stroke="none" 
	d="
M289.000000,515.000000 
	C192.690002,515.000000 96.880005,515.000000 1.035001,515.000000 
	C1.035001,343.731720 1.035001,172.463440 1.035001,1.097577 
	C171.560013,1.097577 342.120087,1.097577 512.840088,1.097577 
	C512.840088,172.333221 512.840088,343.666595 512.840088,515.000000 
	C438.463379,515.000000 363.981689,515.000000 289.000000,515.000000 
M257.486908,250.820312 
	C254.833145,250.705887 252.180420,250.547470 249.525436,250.483749 
	C219.430634,249.761520 189.441269,247.810455 159.636566,243.336456 
	C156.516861,242.868164 155.722427,241.629425 154.987335,238.929459 
	C152.573746,230.064560 147.687057,223.019989 138.972763,219.183212 
	C129.160873,214.863159 117.693718,218.217331 112.190796,227.002563 
	C106.747597,235.692444 108.600159,245.065720 117.569115,252.484467 
	C120.560829,254.959076 124.098381,256.773834 127.599655,259.027496 
	C120.224365,276.580353 106.598618,287.529388 89.656670,294.931671 
	C82.560165,298.032349 75.255417,300.660400 68.188583,303.823364 
	C64.255592,305.583649 62.778248,309.335236 63.289127,313.382935 
	C63.854927,317.865692 66.654900,321.061005 71.149696,322.026459 
	C73.843269,322.605072 76.813728,322.824371 79.502602,322.337463 
	C92.511337,319.981750 103.683952,313.395325 114.329910,306.037109 
	C130.004791,295.202972 142.856613,281.726440 150.708359,264.047913 
	C155.640289,264.734161 160.230438,265.383087 164.823532,266.010376 
	C205.944641,271.626221 247.292068,272.801605 288.718597,272.154907 
	C319.789185,271.669891 350.736877,269.710602 380.996429,261.973328 
	C403.619049,256.188782 424.822571,247.503632 440.116089,228.771545 
	C447.696289,219.487015 453.831726,209.281204 454.174988,196.688034 
	C454.356354,190.033218 452.730225,187.077698 448.303406,186.007706 
	C442.201050,184.532745 437.725647,186.427551 434.881989,191.805405 
	C433.410583,194.588104 432.029663,197.422714 430.710968,200.281433 
	C423.628937,215.634277 412.831268,227.984314 397.010437,233.721390 
	C382.673035,238.920502 367.484375,242.254807 352.399719,244.809448 
	C321.358826,250.066315 289.946075,251.176254 257.486908,250.820312 
z"/>
<path fill="#040404" opacity="1.000000" stroke="none" 
	d="
M257.988342,250.820343 
	C289.946075,251.176254 321.358826,250.066315 352.399719,244.809448 
	C367.484375,242.254807 382.673035,238.920502 397.010437,233.721390 
	C412.831268,227.984314 423.628937,215.634277 430.710968,200.281433 
	C432.029663,197.422714 433.410583,194.588104 434.881989,191.805405 
	C437.725647,186.427551 442.201050,184.532745 448.303406,186.007706 
	C452.730225,187.077698 454.356354,190.033218 454.174988,196.688034 
	C453.831726,209.281204 447.696289,219.487015 440.116089,228.771545 
	C424.822571,247.503632 403.619049,256.188782 380.996429,261.973328 
	C350.736877,269.710602 319.789185,271.669891 288.718597,272.154907 
	C247.292068,272.801605 205.944641,271.626221 164.823532,266.010376 
	C160.230438,265.383087 155.640289,264.734161 150.708359,264.047913 
	C142.856613,281.726440 130.004791,295.202972 114.329910,306.037109 
	C103.683952,313.395325 92.511337,319.981750 79.502602,322.337463 
	C76.813728,322.824371 73.843269,322.605072 71.149696,322.026459 
	C66.654900,321.061005 63.854927,317.865692 63.289127,313.382935 
	C62.778248,309.335236 64.255592,305.583649 68.188583,303.823364 
	C75.255417,300.660400 82.560165,298.032349 89.656670,294.931671 
	C106.598618,287.529388 120.224365,276.580353 127.599655,259.027496 
	C124.098381,256.773834 120.560829,254.959076 117.569115,252.484467 
	C108.600159,245.065720 106.747597,235.692444 112.190796,227.002563 
	C117.693718,218.217331 129.160873,214.863159 138.972763,219.183212 
	C147.687057,223.019989 152.573746,230.064560 154.987335,238.929459 
	C155.722427,241.629425 156.516861,242.868164 159.636566,243.336456 
	C189.441269,247.810455 219.430634,249.761520 249.525436,250.483749 
	C252.180420,250.547470 254.833145,250.705887 257.988342,250.820343 
z"/>
</svg>