<svg version="1.1" id="Layer_1" xmlns="http://www.w3.org/2000/svg" xmlns:xlink="http://www.w3.org/1999/xlink" x="0px" y="0px"
	 width="100%" viewBox="0 0 512 512" enable-background="new 0 0 512 512" xml:space="preserve">
<path fill="#000000" opacity="1.000000" stroke="none" 
	d="
M229.397278,237.748718 
	C242.027878,240.902496 254.478714,243.802490 266.925934,246.717941 
	C271.797150,247.858887 276.570099,249.343307 281.129608,251.397949 
	C290.243164,255.504730 291.887756,265.048859 284.740906,272.148163 
	C280.466339,276.394287 274.871857,278.235901 269.419586,280.266266 
	C255.521866,285.441559 241.688126,290.760742 229.161316,298.869110 
	C226.524170,300.576019 224.028000,302.599243 221.790833,304.805267 
	C217.098206,309.432526 216.943619,314.342468 221.285614,319.397247 
	C225.404770,324.192566 230.829620,327.229218 236.642410,329.364807 
	C253.755646,335.651947 271.356812,338.331421 289.579102,335.883118 
	C291.713043,335.596405 293.901215,335.677338 296.064911,335.654755 
	C303.622101,335.575897 306.850861,337.479645 308.076294,342.688660 
	C309.828308,350.136047 307.434601,355.064301 300.547638,358.068665 
	C294.923279,360.522217 288.850769,361.030151 282.918335,360.922028 
	C257.310364,360.455170 232.568512,356.048096 210.207260,342.674377 
	C200.655899,336.961975 192.922958,329.557312 191.372925,317.687042 
	C190.291382,309.404388 193.073868,302.263641 198.328079,296.059814 
	C206.410080,286.517090 217.257950,280.945679 228.370697,275.914978 
	C236.978241,272.018311 245.761307,268.509430 254.436111,263.802307 
	C245.240463,261.995941 236.022385,260.295197 226.856445,258.348938 
	C219.872330,256.865936 212.833557,255.456451 206.035782,253.323685 
	C196.311478,250.272705 193.845932,242.396820 200.649384,234.843292 
	C215.228241,218.657120 232.146835,205.196091 251.004822,194.249771 
	C254.661072,192.127457 258.722778,191.267593 263.025879,191.657120 
	C270.074646,192.295181 273.568481,199.055466 269.916107,205.150635 
	C268.061615,208.245499 265.116455,210.207611 262.293762,212.257538 
	C252.458740,219.400085 242.561829,226.457642 232.750305,233.632111 
	C231.360001,234.648727 229.377594,235.293777 229.397278,237.748718 
z"/>
</svg>