<svg version="1.1" id="Layer_1" xmlns="http://www.w3.org/2000/svg" xmlns:xlink="http://www.w3.org/1999/xlink" x="0px" y="0px"
	 width="100%" viewBox="0 0 512 512" enable-background="new 0 0 512 512" xml:space="preserve">
<path fill="#000000" opacity="1.000000" stroke="none" 
	d="
M159.439301,390.613861 
	C138.244385,372.238464 137.053268,343.392731 156.399323,322.015167 
	C167.050751,310.245239 180.179947,301.752563 193.849014,293.998505 
	C196.140213,292.698761 198.434998,291.405304 201.084579,289.907440 
	C199.289749,287.672638 196.923904,287.233856 194.961212,286.233154 
	C174.623627,275.863434 165.098297,258.314270 169.958725,238.626602 
	C174.196426,221.461258 185.816071,210.239594 201.767471,203.849548 
	C227.309418,193.617599 251.956604,195.604553 274.838531,211.538910 
	C278.001892,213.741806 279.667603,212.269485 281.721497,210.558929 
	C292.190155,201.840332 303.515198,194.627914 316.801453,191.019730 
	C327.841949,188.021393 338.979919,187.160904 350.347473,189.420059 
	C376.065643,194.531204 384.802917,218.267426 375.599091,240.169174 
	C368.538269,256.971283 355.116394,267.871765 339.691162,276.392883 
	C308.180664,293.799713 274.230042,299.993591 238.518753,297.434540 
	C233.813889,297.097443 229.383789,297.432861 224.925262,299.494415 
	C210.242767,306.283508 195.496201,312.959808 182.952667,323.409241 
	C174.327347,330.594543 167.209137,338.822784 167.321396,351.079559 
	C167.437622,363.769684 173.423950,372.525940 184.879715,377.696167 
	C193.042542,381.380157 201.791870,383.120270 210.564636,383.451752 
	C235.859848,384.407440 261.176147,384.718903 286.058929,378.687531 
	C291.859253,377.281586 297.531189,375.226593 303.672028,375.610138 
	C307.585999,375.854614 310.999725,376.835815 312.532471,380.821014 
	C314.145996,385.016296 313.706543,388.993896 310.490875,392.403839 
	C307.048615,396.054077 302.581726,397.809296 297.919067,399.231171 
	C282.053772,404.069366 265.678711,406.156525 249.245789,406.914490 
	C228.322464,407.879578 207.284439,408.892517 186.668716,403.393127 
	C176.935242,400.796600 167.690399,397.193695 159.439301,390.613861 
M327.842224,210.241089 
	C320.199005,210.945496 313.387848,213.963882 306.947021,217.904282 
	C293.514435,226.122116 283.157745,237.589630 273.552856,249.818558 
	C267.111908,258.019135 261.057892,266.488678 255.159134,276.238586 
	C284.933655,275.241913 312.149780,269.301117 336.165955,252.452332 
	C343.934174,247.002457 350.367432,240.349167 353.604950,231.173828 
	C356.441864,223.133987 353.500427,216.202026 345.869415,212.466278 
	C340.413239,209.795227 334.618408,209.797928 327.842224,210.241089 
M212.763580,270.758118 
	C215.764740,271.720917 218.811386,272.563263 221.756119,273.675476 
	C225.907028,275.243256 228.281311,273.814972 230.648117,270.112305 
	C237.815125,258.900055 245.720078,248.188004 254.249344,237.954605 
	C256.556732,235.186203 258.872711,232.424973 261.307220,229.514008 
	C256.100403,224.718872 250.266159,221.991440 243.844055,220.747635 
	C227.510910,217.584335 212.206085,219.373642 200.035629,232.007111 
	C190.510010,241.895142 191.169510,255.164474 200.986313,263.820557 
	C204.279968,266.724792 208.103073,268.696075 212.763580,270.758118 
z"/>
</svg>