<svg version="1.1" id="Layer_1" xmlns="http://www.w3.org/2000/svg" xmlns:xlink="http://www.w3.org/1999/xlink" x="0px" y="0px"
	 width="100%" viewBox="0 0 512 512" enable-background="new 0 0 512 512" xml:space="preserve">
<path fill="#000000" opacity="1.000000" stroke="none" 
	d="
M276.929443,220.121307 
	C280.803192,227.046249 286.730560,226.075562 292.765869,225.255310 
	C315.176758,222.209427 334.579712,212.446579 352.307678,198.870438 
	C352.439697,198.769333 352.550293,198.637695 352.688782,198.547867 
	C356.850098,195.848724 360.919830,192.171600 366.330841,194.948410 
	C371.718689,197.713364 372.034088,203.179382 372.291016,208.347794 
	C373.052368,223.662094 370.190887,238.485352 365.755646,253.044510 
	C358.483063,276.917419 347.519684,299.046356 333.902985,319.903839 
	C331.322083,323.857117 328.212189,327.328125 324.069366,329.658691 
	C319.221741,332.385742 312.639954,331.490051 309.233612,327.850189 
	C305.925690,324.315491 305.600555,318.308319 308.830963,313.499451 
	C322.421753,293.267792 333.786926,271.882843 342.387268,249.066422 
	C344.785706,242.703384 346.512970,236.134140 347.313965,228.682632 
	C340.039398,232.414444 333.244202,236.018280 326.346741,239.414429 
	C311.355469,246.795807 295.427521,250.610306 278.771942,251.256851 
	C275.246887,251.393677 272.874939,252.756012 270.718323,255.364120 
	C247.754395,283.135559 223.213608,309.451874 194.744034,331.626221 
	C171.801743,349.495483 146.727921,363.945099 118.625809,372.483154 
	C115.374054,373.471100 112.086853,373.615356 108.751465,373.379303 
	C102.282524,372.921570 97.309685,368.993073 95.984428,363.333771 
	C94.373627,356.455170 96.753433,350.335449 102.333336,346.838043 
	C106.223862,344.399536 110.661568,343.541962 114.981499,342.345428 
	C148.892746,332.953125 177.732651,314.405487 204.666870,292.496094 
	C219.557816,280.383179 232.977386,266.752045 245.190308,251.940582 
	C246.023560,250.930054 246.747711,249.829605 247.488922,248.816986 
	C246.572952,246.559113 244.529297,245.942871 242.959549,244.828674 
	C235.630112,239.626190 233.049835,233.389572 235.073303,225.539307 
	C237.148346,217.488983 243.813141,211.641037 252.004349,210.695099 
	C261.782410,209.565887 270.052826,212.501602 276.929443,220.121307 
z"/>
</svg>