<svg version="1.1" id="Layer_1" xmlns="http://www.w3.org/2000/svg" xmlns:xlink="http://www.w3.org/1999/xlink" x="0px" y="0px"
	 width="100%" viewBox="0 0 512 512" enable-background="new 0 0 512 512" xml:space="preserve">
<path fill="#000000" opacity="1.000000" stroke="none" 
	d="
M317.247040,181.317947 
	C310.603699,184.857880 304.282318,188.221420 297.980560,191.621262 
	C297.582916,191.835785 297.337921,192.333237 296.741058,193.024185 
	C301.314331,195.447647 306.307434,195.997803 310.928741,197.594131 
	C317.693085,199.930710 324.626038,201.823242 330.782867,205.633545 
	C339.384155,210.956711 340.864197,219.078308 334.619049,227.098358 
	C331.521790,231.075928 327.632599,234.219650 323.447449,237.010025 
	C313.025818,243.958420 301.718079,249.272400 289.488037,255.251556 
	C293.443237,256.672852 296.605591,257.771912 299.741394,258.942322 
	C315.971191,265.000031 318.758423,273.940033 308.557037,287.993805 
	C300.341370,299.312042 289.625244,308.067535 278.526794,316.379395 
	C246.693588,340.220062 212.015976,358.769592 174.579346,372.157776 
	C168.913818,374.183868 163.134216,375.626617 156.990677,374.307495 
	C151.700790,373.171631 147.542175,370.553528 146.126266,365.198029 
	C144.651169,359.618713 145.276794,354.296509 150.112823,350.172424 
	C155.119415,345.902863 161.285553,344.421661 167.364639,342.687805 
	C201.188583,333.040558 233.310867,319.516632 263.014343,300.536346 
	C269.485321,296.401459 275.588165,291.744659 280.658813,285.902740 
	C287.048187,278.541504 286.066040,274.687134 276.830933,271.386627 
	C272.291107,269.764130 267.613251,268.529022 263.003235,267.101349 
	C258.453339,265.692291 254.788391,263.297394 253.861298,258.218445 
	C252.921249,253.068314 256.270203,250.220856 259.886658,247.629761 
	C267.392792,242.251770 275.941162,238.857574 284.208160,234.925018 
	C290.524231,231.920517 296.845825,228.920807 303.071106,225.735519 
	C305.678711,224.401260 309.410736,223.144714 309.288757,219.910080 
	C309.156097,216.391434 305.037933,216.148331 302.345520,215.282135 
	C293.794617,212.531128 285.134308,210.122208 276.544189,207.490036 
	C274.004974,206.711990 271.462524,205.826660 269.086426,204.655838 
	C261.048492,200.695251 260.164948,192.133377 267.184052,186.467987 
	C271.224579,183.206711 275.896637,180.944168 280.427094,178.467148 
	C291.979156,172.151077 303.367279,165.562683 314.210236,158.071472 
	C316.976654,156.160202 319.935516,154.544998 323.247467,153.965927 
	C327.879608,153.156006 331.910339,154.419800 334.487366,158.611252 
	C336.985565,162.674622 336.395325,167.360214 332.955811,171.024200 
	C328.649902,175.611160 322.812653,177.941376 317.247040,181.317947 
z"/>
<path fill="#000000" opacity="1.000000" stroke="none" 
	d="
M279.971863,397.957703 
	C277.002045,400.930420 273.625397,402.117859 269.923187,402.672882 
	C263.621307,403.617615 257.728729,400.900421 255.190308,395.789185 
	C252.458115,390.287842 253.481216,383.555237 257.718414,379.152618 
	C263.341675,373.309814 274.026520,372.591797 280.014587,377.654266 
	C285.668701,382.434509 285.763245,390.902344 279.971863,397.957703 
z"/>
</svg>