<svg version="1.1" id="Layer_1" xmlns="http://www.w3.org/2000/svg" xmlns:xlink="http://www.w3.org/1999/xlink" x="0px" y="0px"
	 width="100%" viewBox="0 0 512 514" enable-background="new 0 0 512 514" xml:space="preserve">
<path fill="#FFFFFF" opacity="1.000000" stroke="none" 
	d="
M275.000000,515.000000 
	C183.355530,515.000000 92.211060,515.000000 1.033297,515.000000 
	C1.033297,343.730591 1.033297,172.461166 1.033297,1.095872 
	C171.561157,1.095872 342.122375,1.095872 512.841797,1.095872 
	C512.841797,172.333221 512.841797,343.666595 512.841797,515.000000 
	C433.794464,515.000000 354.647247,515.000000 275.000000,515.000000 
M206.563660,296.091553 
	C193.416641,304.042145 180.738571,312.595428 170.779617,324.541840 
	C157.372864,340.624115 155.134293,361.494415 165.196136,378.427063 
	C173.719864,392.771271 187.552261,399.667389 203.021133,402.914764 
	C240.040466,410.686279 276.849762,407.868958 313.255096,398.611267 
	C317.746826,397.469025 322.072174,394.762939 325.836182,391.932556 
	C329.359161,389.283325 329.540497,384.970001 327.917969,380.949158 
	C326.429535,377.260681 323.223236,375.923767 319.470795,375.966461 
	C317.159851,375.992706 314.786072,376.124268 312.555084,376.673767 
	C293.579437,381.347717 274.375305,384.155701 254.802963,384.479553 
	C238.124634,384.755493 221.436783,385.071564 205.305130,379.947571 
	C180.842926,372.177551 174.627884,346.733276 192.529129,328.353271 
	C203.644272,316.940887 217.399139,309.586365 231.571915,302.899536 
	C232.905975,302.270111 234.773834,302.465118 236.338959,302.678986 
	C255.942703,305.358276 275.204742,304.493134 293.819214,297.139008 
	C310.663513,290.484253 325.097260,280.704498 333.631836,264.155853 
	C343.136414,245.726410 340.317474,222.130554 319.276062,212.461349 
	C319.052277,212.358505 318.986908,211.910889 318.731293,211.384888 
	C321.825867,210.271408 325.056488,209.503174 327.902344,208.004425 
	C334.180908,204.697861 340.459259,201.314194 346.357178,197.390121 
	C349.925446,195.016022 350.176208,190.870224 348.812744,186.985840 
	C347.451141,183.106689 344.177399,180.921600 340.330048,181.235687 
	C336.847809,181.519989 333.358215,182.964218 330.091156,184.396973 
	C320.842834,188.452820 311.742828,192.845917 302.511108,196.940994 
	C298.120514,198.888626 293.464905,200.248932 289.113220,202.271011 
	C285.705750,203.854340 282.975403,206.334274 283.007019,210.620987 
	C283.038269,214.856308 285.667236,217.263138 289.066040,219.052719 
	C294.206696,221.759399 299.490570,224.211472 304.519623,227.108414 
	C311.326324,231.029343 314.468445,237.099426 314.052948,244.992020 
	C313.603455,253.529617 309.418884,260.185547 303.250519,265.623322 
	C287.727020,279.308136 269.577850,283.728699 249.406006,280.040009 
	C247.520050,279.695190 245.735718,277.879364 244.259720,276.393402 
	C240.905563,273.016632 238.320145,268.571777 234.446976,266.072418 
	C223.039001,258.710846 208.439529,266.107086 207.824127,279.570953 
	C207.623093,283.969635 209.809982,288.477478 211.009781,293.362946 
	C210.295578,293.817047 208.756866,294.795380 206.563660,296.091553 
z"/>
<path fill="#030303" opacity="1.000000" stroke="none" 
	d="
M206.890900,295.932617 
	C208.756866,294.795380 210.295578,293.817047 211.009781,293.362946 
	C209.809982,288.477478 207.623093,283.969635 207.824127,279.570953 
	C208.439529,266.107086 223.039001,258.710846 234.446976,266.072418 
	C238.320145,268.571777 240.905563,273.016632 244.259720,276.393402 
	C245.735718,277.879364 247.520050,279.695190 249.406006,280.040009 
	C269.577850,283.728699 287.727020,279.308136 303.250519,265.623322 
	C309.418884,260.185547 313.603455,253.529617 314.052948,244.992020 
	C314.468445,237.099426 311.326324,231.029343 304.519623,227.108414 
	C299.490570,224.211472 294.206696,221.759399 289.066040,219.052719 
	C285.667236,217.263138 283.038269,214.856308 283.007019,210.620987 
	C282.975403,206.334274 285.705750,203.854340 289.113220,202.271011 
	C293.464905,200.248932 298.120514,198.888626 302.511108,196.940994 
	C311.742828,192.845917 320.842834,188.452820 330.091156,184.396973 
	C333.358215,182.964218 336.847809,181.519989 340.330048,181.235687 
	C344.177399,180.921600 347.451141,183.106689 348.812744,186.985840 
	C350.176208,190.870224 349.925446,195.016022 346.357178,197.390121 
	C340.459259,201.314194 334.180908,204.697861 327.902344,208.004425 
	C325.056488,209.503174 321.825867,210.271408 318.731293,211.384888 
	C318.986908,211.910889 319.052277,212.358505 319.276062,212.461349 
	C340.317474,222.130554 343.136414,245.726410 333.631836,264.155853 
	C325.097260,280.704498 310.663513,290.484253 293.819214,297.139008 
	C275.204742,304.493134 255.942703,305.358276 236.338959,302.678986 
	C234.773834,302.465118 232.905975,302.270111 231.571915,302.899536 
	C217.399139,309.586365 203.644272,316.940887 192.529129,328.353271 
	C174.627884,346.733276 180.842926,372.177551 205.305130,379.947571 
	C221.436783,385.071564 238.124634,384.755493 254.802963,384.479553 
	C274.375305,384.155701 293.579437,381.347717 312.555084,376.673767 
	C314.786072,376.124268 317.159851,375.992706 319.470795,375.966461 
	C323.223236,375.923767 326.429535,377.260681 327.917969,380.949158 
	C329.540497,384.970001 329.359161,389.283325 325.836182,391.932556 
	C322.072174,394.762939 317.746826,397.469025 313.255096,398.611267 
	C276.849762,407.868958 240.040466,410.686279 203.021133,402.914764 
	C187.552261,399.667389 173.719864,392.771271 165.196136,378.427063 
	C155.134293,361.494415 157.372864,340.624115 170.779617,324.541840 
	C180.738571,312.595428 193.416641,304.042145 206.890900,295.932617 
z"/>
</svg>