<svg version="1.1" id="Layer_1" xmlns="http://www.w3.org/2000/svg" xmlns:xlink="http://www.w3.org/1999/xlink" x="0px" y="0px"
	 width="100%" viewBox="0 0 512 512" enable-background="new 0 0 512 512" xml:space="preserve">
<path fill="#000000" opacity="1.000000" stroke="none" 
	d="
M371.541138,171.598175 
	C341.276154,188.786270 311.800995,206.559006 282.072266,226.019974 
	C289.606323,227.737778 296.319824,228.496689 302.648010,230.721939 
	C317.412811,235.913925 328.607208,244.632401 332.689178,260.661438 
	C336.759430,276.644470 331.212128,289.839661 319.989349,300.444183 
	C296.627686,322.518921 260.212097,321.904846 236.926147,305.262054 
	C228.435822,299.193848 221.575409,291.434570 216.956543,281.970398 
	C215.139160,278.246521 213.298080,277.738739 210.219330,280.543762 
	C204.684998,285.585999 198.646469,290.114807 194.012451,296.069214 
	C190.055176,301.154022 187.147064,305.490784 194.786438,311.831635 
	C197.732437,314.276886 200.486023,316.957581 203.471603,319.350952 
	C217.825989,330.858124 219.740891,344.324982 209.254349,359.557526 
	C203.497284,367.920074 196.171371,374.700317 187.792679,380.192719 
	C170.863083,391.290344 152.814987,400.102020 133.145477,405.335541 
	C129.013596,406.434937 124.992012,406.533173 120.845985,405.359436 
	C115.339996,403.800659 112.397270,400.096436 111.847244,394.640137 
	C111.313782,389.348236 112.836121,384.741394 117.755508,381.819458 
	C125.763863,377.062836 135.030121,375.916901 143.624924,372.833832 
	C156.508926,368.212128 169.296112,363.470398 180.407257,355.220917 
	C182.526810,353.647247 184.570557,351.842194 186.230148,349.802795 
	C190.888367,344.078552 190.899460,339.628113 186.838730,333.450195 
	C183.839661,328.887421 179.491730,325.770508 175.361816,322.422516 
	C162.522217,312.013794 161.521255,305.308563 170.978561,291.880096 
	C181.357651,277.142822 194.846634,265.433502 208.684158,254.219559 
	C256.954346,215.101364 309.290436,182.000931 362.940674,150.890778 
	C372.712341,145.224503 382.193390,138.851227 393.706909,137.031647 
	C401.686493,135.770538 407.015503,138.908569 407.673615,145.201401 
	C408.036377,148.670135 406.422150,151.321365 404.139038,153.628998 
	C401.656219,156.138535 398.657532,157.941971 395.510864,159.516602 
	C387.618652,163.465942 379.740570,167.443466 371.541138,171.598175 
M261.775757,246.181915 
	C252.841812,248.894257 245.334503,254.077148 238.099426,259.763885 
	C235.295685,261.967621 234.830017,264.362549 236.370163,267.618530 
	C238.449539,272.014557 240.936356,276.132263 243.857483,279.978607 
	C256.615021,296.776764 284.169464,300.545898 300.904236,287.827393 
	C312.591949,278.944702 314.077179,258.553680 298.086487,250.949295 
	C286.715057,245.541611 274.895233,244.213135 261.775757,246.181915 
z"/>
</svg>