<svg version="1.1" id="Layer_1" xmlns="http://www.w3.org/2000/svg" xmlns:xlink="http://www.w3.org/1999/xlink" x="0px" y="0px"
	 width="100%" viewBox="0 0 512 512" enable-background="new 0 0 512 512" xml:space="preserve">
<path fill="#000000" opacity="1.000000" stroke="none" 
	d="
M337.214172,240.189285 
	C300.905426,278.385132 260.660889,310.799316 213.236893,333.638611 
	C203.182617,338.480682 192.733963,342.345673 181.788712,344.772644 
	C177.979172,345.617340 174.146774,345.623596 170.367401,345.178375 
	C164.026962,344.431427 159.760635,339.961426 158.912170,333.740845 
	C158.018478,327.188568 161.613007,320.188416 167.754410,317.940399 
	C173.979965,315.661499 180.500977,314.204773 186.826508,312.181366 
	C215.373917,303.049713 240.455627,287.287354 265.261597,271.014954 
	C290.225708,254.638824 311.792023,234.418320 331.608307,212.233215 
	C334.177338,209.357086 336.859802,206.647659 340.227356,204.727463 
	C343.936646,202.612442 347.826843,201.830719 351.467621,204.621811 
	C355.030212,207.352966 354.711121,211.344711 353.920197,215.169647 
	C353.239990,218.459015 351.535522,221.361832 349.688019,224.153931 
	C346.005524,229.719223 341.799774,234.876724 337.214172,240.189285 
z"/>
<path fill="#000000" opacity="1.000000" stroke="none" 
	d="
M307.181366,318.163025 
	C309.912994,315.803101 312.780701,314.516571 315.923737,313.930695 
	C324.394623,312.351715 331.972229,317.570404 333.152069,325.715851 
	C334.270813,333.439636 327.808167,341.142273 319.286469,342.241852 
	C312.465424,343.122040 306.635437,340.855316 304.257843,335.881195 
	C301.246979,329.582306 302.065308,323.638641 307.181366,318.163025 
z"/>
</svg>