<svg version="1.1" id="Layer_1" xmlns="http://www.w3.org/2000/svg" xmlns:xlink="http://www.w3.org/1999/xlink" x="0px" y="0px"
	 width="100%" viewBox="0 0 512 514" enable-background="new 0 0 512 514" xml:space="preserve">
<path fill="#FFFFFF" opacity="1.000000" stroke="none" 
	d="
M276.000000,515.000000 
	C184.022278,515.000000 92.544556,515.000000 1.033418,515.000000 
	C1.033418,343.730682 1.033418,172.461334 1.033418,1.095994 
	C171.561066,1.095994 342.122223,1.095994 512.841675,1.095994 
	C512.841675,172.333221 512.841675,343.666595 512.841675,515.000000 
	C434.127960,515.000000 355.313995,515.000000 276.000000,515.000000 
M348.064911,225.574524 
	C349.769928,222.360977 351.764771,219.262955 353.104187,215.903641 
	C354.660980,211.999176 354.793060,207.796280 351.048309,204.993576 
	C347.201996,202.114838 342.951935,203.140152 339.535187,205.895279 
	C335.803436,208.904465 332.337128,212.324493 329.151886,215.917221 
	C295.178345,254.237640 254.017410,282.808624 207.944992,304.427368 
	C196.466431,309.813446 183.969849,313.115051 171.793900,316.901062 
	C163.189453,319.576508 158.555710,325.362000 159.568756,333.624512 
	C160.498993,341.211700 165.655243,345.075409 174.966644,345.049622 
	C176.781281,345.044586 178.697723,345.029175 180.392258,344.479370 
	C190.314392,341.260101 200.461884,338.527985 210.020050,334.433380 
	C238.360031,322.292725 263.393250,304.695374 287.306000,285.529602 
	C309.413208,267.811005 330.771515,249.234512 348.064911,225.574524 
M304.493713,146.468658 
	C303.023346,154.448181 304.852875,159.457748 310.292877,162.347809 
	C316.228210,165.501022 324.566620,164.021591 329.531860,158.941467 
	C333.388672,154.995438 334.337982,150.194595 332.808777,145.140442 
	C331.355164,140.336060 327.756500,137.596680 322.732971,136.626282 
	C315.029510,135.138168 308.545959,138.346191 304.493713,146.468658 
z"/>
<path fill="#030303" opacity="1.000000" stroke="none" 
	d="
M347.876892,225.882431 
	C330.771515,249.234512 309.413208,267.811005 287.306000,285.529602 
	C263.393250,304.695374 238.360031,322.292725 210.020050,334.433380 
	C200.461884,338.527985 190.314392,341.260101 180.392258,344.479370 
	C178.697723,345.029175 176.781281,345.044586 174.966644,345.049622 
	C165.655243,345.075409 160.498993,341.211700 159.568756,333.624512 
	C158.555710,325.362000 163.189453,319.576508 171.793900,316.901062 
	C183.969849,313.115051 196.466431,309.813446 207.944992,304.427368 
	C254.017410,282.808624 295.178345,254.237640 329.151886,215.917221 
	C332.337128,212.324493 335.803436,208.904465 339.535187,205.895279 
	C342.951935,203.140152 347.201996,202.114838 351.048309,204.993576 
	C354.793060,207.796280 354.660980,211.999176 353.104187,215.903641 
	C351.764771,219.262955 349.769928,222.360977 347.876892,225.882431 
z"/>
<path fill="#030303" opacity="1.000000" stroke="none" 
	d="
M304.649536,146.094208 
	C308.545959,138.346191 315.029510,135.138168 322.732971,136.626282 
	C327.756500,137.596680 331.355164,140.336060 332.808777,145.140442 
	C334.337982,150.194595 333.388672,154.995438 329.531860,158.941467 
	C324.566620,164.021591 316.228210,165.501022 310.292877,162.347809 
	C304.852875,159.457748 303.023346,154.448181 304.649536,146.094208 
z"/>
</svg>