<svg version="1.1" id="Layer_1" xmlns="http://www.w3.org/2000/svg" xmlns:xlink="http://www.w3.org/1999/xlink" x="0px" y="0px"
	 width="100%" viewBox="0 0 512 514" enable-background="new 0 0 512 514" xml:space="preserve">
<path fill="#FFFFFF" opacity="1.000000" stroke="none" 
	d="
M235.000000,515.000000 
	C156.685623,515.000000 78.871239,515.000000 1.028427,515.000000 
	C1.028427,343.727325 1.028427,172.454666 1.028427,1.091002 
	C171.564407,1.091002 342.128876,1.091002 512.846680,1.091002 
	C512.846680,172.333221 512.846680,343.666595 512.846680,515.000000 
	C420.454620,515.000000 327.977325,515.000000 235.000000,515.000000 
M238.936127,267.682800 
	C238.172409,269.094025 237.621704,270.683044 236.613831,271.890442 
	C210.813080,302.799255 179.730972,326.223663 141.146103,338.918274 
	C133.103104,341.564484 124.880791,343.692780 116.924759,346.567902 
	C109.941772,349.091400 106.973221,354.832581 108.069008,362.022949 
	C109.137184,369.032074 113.302872,372.858826 121.004814,373.358124 
	C123.774414,373.537720 126.713394,373.248291 129.382751,372.493073 
	C151.798386,366.151398 172.588486,356.198456 191.649170,342.903839 
	C217.056931,325.182129 239.663971,304.398865 258.542175,279.686646 
	C259.665497,278.216187 262.402008,276.960297 264.196594,277.178375 
	C281.616425,279.295166 298.809418,278.820984 315.419098,272.705139 
	C331.832947,266.661346 346.148010,257.610596 355.736023,242.365814 
	C364.849640,227.875244 365.649078,209.708649 356.778839,198.213287 
	C353.122559,193.474991 347.901764,189.943924 343.183289,185.674393 
	C345.324127,184.891464 348.188385,184.172440 350.738220,182.848114 
	C357.616119,179.276001 364.592865,175.802475 371.064423,171.576294 
	C374.591003,169.273285 374.768799,165.014221 373.051788,161.144302 
	C371.393738,157.407257 368.266113,155.310745 364.270508,156.039398 
	C360.962250,156.642715 357.799835,158.215363 354.666290,159.574188 
	C346.035309,163.316910 337.501251,167.286575 328.831635,170.935486 
	C324.559204,172.733704 319.993469,173.830795 315.704224,175.594742 
	C311.475342,177.333847 308.183807,180.413437 308.235107,185.252335 
	C308.283661,189.830185 312.005310,191.973038 315.700012,193.771759 
	C319.584290,195.662766 323.909698,196.987228 327.239899,199.587112 
	C331.043304,202.556427 335.002106,206.153259 337.054443,210.372040 
	C341.768555,220.062210 338.348206,229.152313 331.747192,236.618134 
	C317.390228,252.856003 298.833527,258.114685 277.702850,255.876556 
	C272.968933,255.375153 269.410461,253.920670 267.048828,249.234756 
	C265.637939,246.435394 262.731659,244.181244 260.081604,242.253967 
	C252.165527,236.496796 241.827515,237.372391 236.117371,243.983673 
	C229.996658,251.070358 230.870117,259.092651 238.936127,267.682800 
M327.344055,114.923294 
	C324.709137,116.208015 321.651367,117.007095 319.516479,118.866089 
	C312.338318,125.116699 314.060547,136.814774 322.430420,140.423965 
	C327.884918,142.776001 335.488983,141.144958 339.926575,136.671127 
	C344.158234,132.404938 345.363647,126.889938 343.026886,122.098274 
	C339.963562,115.816879 334.703735,113.961472 327.344055,114.923294 
z"/>
<path fill="#030303" opacity="1.000000" stroke="none" 
	d="
M238.780762,267.350647 
	C230.870117,259.092651 229.996658,251.070358 236.117371,243.983673 
	C241.827515,237.372391 252.165527,236.496796 260.081604,242.253967 
	C262.731659,244.181244 265.637939,246.435394 267.048828,249.234756 
	C269.410461,253.920670 272.968933,255.375153 277.702850,255.876556 
	C298.833527,258.114685 317.390228,252.856003 331.747192,236.618134 
	C338.348206,229.152313 341.768555,220.062210 337.054443,210.372040 
	C335.002106,206.153259 331.043304,202.556427 327.239899,199.587112 
	C323.909698,196.987228 319.584290,195.662766 315.700012,193.771759 
	C312.005310,191.973038 308.283661,189.830185 308.235107,185.252335 
	C308.183807,180.413437 311.475342,177.333847 315.704224,175.594742 
	C319.993469,173.830795 324.559204,172.733704 328.831635,170.935486 
	C337.501251,167.286575 346.035309,163.316910 354.666290,159.574188 
	C357.799835,158.215363 360.962250,156.642715 364.270508,156.039398 
	C368.266113,155.310745 371.393738,157.407257 373.051788,161.144302 
	C374.768799,165.014221 374.591003,169.273285 371.064423,171.576294 
	C364.592865,175.802475 357.616119,179.276001 350.738220,182.848114 
	C348.188385,184.172440 345.324127,184.891464 343.183289,185.674393 
	C347.901764,189.943924 353.122559,193.474991 356.778839,198.213287 
	C365.649078,209.708649 364.849640,227.875244 355.736023,242.365814 
	C346.148010,257.610596 331.832947,266.661346 315.419098,272.705139 
	C298.809418,278.820984 281.616425,279.295166 264.196594,277.178375 
	C262.402008,276.960297 259.665497,278.216187 258.542175,279.686646 
	C239.663971,304.398865 217.056931,325.182129 191.649170,342.903839 
	C172.588486,356.198456 151.798386,366.151398 129.382751,372.493073 
	C126.713394,373.248291 123.774414,373.537720 121.004814,373.358124 
	C113.302872,372.858826 109.137184,369.032074 108.069008,362.022949 
	C106.973221,354.832581 109.941772,349.091400 116.924759,346.567902 
	C124.880791,343.692780 133.103104,341.564484 141.146103,338.918274 
	C179.730972,326.223663 210.813080,302.799255 236.613831,271.890442 
	C237.621704,270.683044 238.172409,269.094025 238.780762,267.350647 
z"/>
<path fill="#040404" opacity="1.000000" stroke="none" 
	d="
M327.737152,114.885124 
	C334.703735,113.961472 339.963562,115.816879 343.026886,122.098274 
	C345.363647,126.889938 344.158234,132.404938 339.926575,136.671127 
	C335.488983,141.144958 327.884918,142.776001 322.430420,140.423965 
	C314.060547,136.814774 312.338318,125.116699 319.516479,118.866089 
	C321.651367,117.007095 324.709137,116.208015 327.737152,114.885124 
z"/>
</svg>