<svg version="1.1" id="Layer_1" xmlns="http://www.w3.org/2000/svg" xmlns:xlink="http://www.w3.org/1999/xlink" x="0px" y="0px"
	 width="100%" viewBox="0 0 512 512" enable-background="new 0 0 512 512" xml:space="preserve">
<path fill="#000000" opacity="1.000000" stroke="none" 
	d="
M226.660248,249.107697 
	C251.428741,250.443832 275.761993,250.688232 300.046356,249.534317 
	C329.633514,248.128448 359.086639,245.123978 387.713593,236.868942 
	C405.909790,231.621780 419.372253,220.387863 428.348480,203.768692 
	C430.642578,199.521271 432.572784,195.075714 434.905670,190.851212 
	C437.722687,185.750046 443.285919,183.931625 449.140411,185.919327 
	C453.491211,187.396469 455.368500,190.902725 454.740356,196.893143 
	C452.669739,216.639771 441.761658,231.107834 426.422119,242.450272 
	C407.768799,256.243042 385.984772,262.351471 363.521057,266.320740 
	C342.017914,270.120300 320.309357,271.614319 298.493317,272.475647 
	C275.666321,273.376892 252.872391,272.920898 230.089645,272.099792 
	C206.170624,271.237762 182.284561,269.462402 158.638260,265.486237 
	C153.312515,264.590729 150.414383,265.739655 147.505478,271.095734 
	C135.889633,292.483612 117.557976,306.812622 95.943977,317.293518 
	C90.827751,319.774384 85.577995,321.824738 79.999146,322.931091 
	C76.693451,323.586700 73.381325,323.599609 70.163597,322.324127 
	C65.940125,320.649963 63.197472,317.672974 62.792213,313.100159 
	C62.406456,308.747375 64.397346,305.449768 68.096451,303.074005 
	C74.644875,298.868225 82.377190,297.663422 89.347908,294.530853 
	C104.785469,287.593353 117.801659,277.972015 125.464195,262.330780 
	C125.756958,261.733185 126.032341,261.123108 126.256248,260.497498 
	C126.362801,260.199799 126.329071,259.851868 126.385254,259.239014 
	C123.265198,257.071533 119.827156,255.061432 116.829582,252.529770 
	C107.884178,244.974731 106.251831,235.534576 112.041756,226.417801 
	C117.469742,217.870941 128.854507,214.558044 138.503983,218.522461 
	C147.359680,222.160767 152.600327,228.901749 155.174225,237.804779 
	C156.062958,240.878952 157.131577,242.403976 160.663467,242.928955 
	C182.403427,246.160416 204.245132,248.128525 226.660248,249.107697 
z"/>
<path fill="#000000" opacity="1.000000" stroke="none" 
	d="
M297.103577,177.186905 
	C301.040436,184.992264 299.977325,190.875473 294.040375,195.739731 
	C288.119141,200.591110 279.240021,200.894394 273.713196,196.434006 
	C270.206970,193.604309 268.518219,187.546890 270.092896,182.694305 
	C272.137146,176.394608 276.656464,172.757477 283.096527,171.774490 
	C288.508789,170.948380 293.342438,172.299423 297.103577,177.186905 
z"/>
</svg>