<svg version="1.1" id="Layer_1" xmlns="http://www.w3.org/2000/svg" xmlns:xlink="http://www.w3.org/1999/xlink" x="0px" y="0px"
	 width="100%" viewBox="0 0 512 514" enable-background="new 0 0 512 514" xml:space="preserve">
<path fill="#FFFFFF" opacity="1.000000" stroke="none" 
	d="
M277.000000,515.000000 
	C184.689026,515.000000 92.878052,515.000000 1.033540,515.000000 
	C1.033540,343.730743 1.033540,172.461487 1.033540,1.096116 
	C171.560989,1.096116 342.122040,1.096116 512.841553,1.096116 
	C512.841553,172.333221 512.841553,343.666595 512.841553,515.000000 
	C434.461426,515.000000 355.980713,515.000000 277.000000,515.000000 
M282.562653,274.930359 
	C298.687073,278.979706 314.507294,278.317719 330.022156,272.044891 
	C354.511078,262.143738 367.538086,242.460236 366.023132,217.493683 
	C365.288269,205.382645 358.183655,196.383835 346.650604,193.070847 
	C333.372650,189.256668 320.179047,191.054749 307.214325,194.399323 
	C274.729553,202.779587 245.634415,218.156662 219.205978,238.590103 
	C207.991882,247.260422 197.424530,256.781464 190.794800,269.691467 
	C184.584534,281.784729 186.309540,287.902740 197.762070,295.218323 
	C202.936325,298.523529 208.523590,301.227966 213.480499,304.816803 
	C220.888977,310.180603 221.185699,317.423920 214.603424,323.823700 
	C212.718597,325.656281 210.538681,327.367279 208.190842,328.512238 
	C192.722626,336.055664 176.264648,339.020203 159.243118,337.201874 
	C150.220917,336.238037 141.421387,333.343994 132.441544,331.779266 
	C125.597908,330.586792 121.480064,333.078644 119.723885,338.504852 
	C117.601288,345.063232 119.595901,350.695923 125.516342,353.802917 
	C128.279007,355.252747 131.288498,356.425079 134.323807,357.132050 
	C158.667480,362.802124 182.546707,360.943970 205.918045,352.250519 
	C216.748688,348.221832 226.940140,343.098236 235.130783,334.634735 
	C248.649261,320.665833 247.042694,304.080170 231.066284,293.179108 
	C226.533005,290.085938 221.914108,287.105133 217.520126,283.824127 
	C211.412369,279.263428 210.906769,275.965668 215.490967,270.037781 
	C221.897598,261.753265 230.604919,256.293182 239.316452,250.722244 
	C251.687653,262.404816 265.848938,270.140442 282.562653,274.930359 
M286.805084,339.168701 
	C286.180878,339.393402 285.544342,339.588989 284.934326,339.847168 
	C277.296112,343.079926 273.893036,349.809235 275.979523,357.535248 
	C277.695404,363.888977 283.862213,367.197235 291.891815,366.071564 
	C299.429688,365.014862 305.132233,358.750122 305.069244,351.594940 
	C304.991974,342.817169 298.538391,338.179810 286.805084,339.168701 
z"/>
<path fill="#020202" opacity="1.000000" stroke="none" 
	d="
M282.162872,274.834839 
	C265.848938,270.140442 251.687653,262.404816 239.316452,250.722244 
	C230.604919,256.293182 221.897598,261.753265 215.490967,270.037781 
	C210.906769,275.965668 211.412369,279.263428 217.520126,283.824127 
	C221.914108,287.105133 226.533005,290.085938 231.066284,293.179108 
	C247.042694,304.080170 248.649261,320.665833 235.130783,334.634735 
	C226.940140,343.098236 216.748688,348.221832 205.918045,352.250519 
	C182.546707,360.943970 158.667480,362.802124 134.323807,357.132050 
	C131.288498,356.425079 128.279007,355.252747 125.516342,353.802917 
	C119.595901,350.695923 117.601288,345.063232 119.723885,338.504852 
	C121.480064,333.078644 125.597908,330.586792 132.441544,331.779266 
	C141.421387,333.343994 150.220917,336.238037 159.243118,337.201874 
	C176.264648,339.020203 192.722626,336.055664 208.190842,328.512238 
	C210.538681,327.367279 212.718597,325.656281 214.603424,323.823700 
	C221.185699,317.423920 220.888977,310.180603 213.480499,304.816803 
	C208.523590,301.227966 202.936325,298.523529 197.762070,295.218323 
	C186.309540,287.902740 184.584534,281.784729 190.794800,269.691467 
	C197.424530,256.781464 207.991882,247.260422 219.205978,238.590103 
	C245.634415,218.156662 274.729553,202.779587 307.214325,194.399323 
	C320.179047,191.054749 333.372650,189.256668 346.650604,193.070847 
	C358.183655,196.383835 365.288269,205.382645 366.023132,217.493683 
	C367.538086,242.460236 354.511078,262.143738 330.022156,272.044891 
	C314.507294,278.317719 298.687073,278.979706 282.162872,274.834839 
M340.049774,216.540405 
	C335.662506,212.316055 330.152069,211.915833 324.656891,212.646011 
	C301.197144,215.763290 280.620209,226.432526 259.550537,237.638885 
	C272.468872,248.299561 286.277466,255.502090 302.728027,255.710617 
	C315.261566,255.869476 326.890198,252.372345 335.288727,242.335587 
	C341.388489,235.045990 344.886871,226.795349 340.049774,216.540405 
z"/>
<path fill="#040404" opacity="1.000000" stroke="none" 
	d="
M287.186401,339.093750 
	C298.538391,338.179810 304.991974,342.817169 305.069244,351.594940 
	C305.132233,358.750122 299.429688,365.014862 291.891815,366.071564 
	C283.862213,367.197235 277.695404,363.888977 275.979523,357.535248 
	C273.893036,349.809235 277.296112,343.079926 284.934326,339.847168 
	C285.544342,339.588989 286.180878,339.393402 287.186401,339.093750 
z"/>
<path fill="#FCFCFC" opacity="1.000000" stroke="none" 
	d="
M340.295288,216.834106 
	C344.886871,226.795349 341.388489,235.045990 335.288727,242.335587 
	C326.890198,252.372345 315.261566,255.869476 302.728027,255.710617 
	C286.277466,255.502090 272.468872,248.299561 259.550537,237.638885 
	C280.620209,226.432526 301.197144,215.763290 324.656891,212.646011 
	C330.152069,211.915833 335.662506,212.316055 340.295288,216.834106 
z"/>
</svg>