<svg version="1.1" id="Layer_1" xmlns="http://www.w3.org/2000/svg" xmlns:xlink="http://www.w3.org/1999/xlink" x="0px" y="0px"
	 width="100%" viewBox="0 0 512 514" enable-background="new 0 0 512 514" xml:space="preserve">
<path fill="#FFFFFF" opacity="1.000000" stroke="none" 
	d="
M293.000000,515.000000 
	C195.356995,515.000000 98.213982,515.000000 1.035488,515.000000 
	C1.035488,343.732056 1.035488,172.464081 1.035488,1.098064 
	C171.559677,1.098064 342.119446,1.098064 512.839600,1.098064 
	C512.839600,172.333206 512.839600,343.666595 512.839600,515.000000 
	C439.797363,515.000000 366.648682,515.000000 293.000000,515.000000 
M202.316055,253.815292 
	C198.629868,258.731628 194.377640,263.326874 191.370407,268.628326 
	C184.194489,281.278717 186.122177,287.946198 198.408600,295.660736 
	C203.468674,298.837891 208.900314,301.481720 213.702988,304.996582 
	C220.733566,310.141968 221.127930,317.085480 215.078339,323.298065 
	C213.134644,325.294159 210.837601,327.154205 208.359360,328.387756 
	C192.935715,336.064972 176.457397,338.966888 159.441818,337.228027 
	C150.418472,336.305908 141.617798,333.376343 132.638107,331.800140 
	C125.690247,330.580658 121.615585,332.951324 119.787407,338.320129 
	C117.498535,345.041840 119.513618,350.827759 125.805923,353.903931 
	C129.494354,355.707092 133.499634,357.141327 137.521545,357.936920 
	C160.243149,362.431549 182.612289,360.702332 204.379929,352.898712 
	C215.845230,348.788422 226.738327,343.469452 235.366806,334.412231 
	C248.580261,320.542114 246.956375,304.046692 231.211304,293.265381 
	C226.682556,290.164337 222.056885,287.193542 217.653015,283.924133 
	C211.333450,279.232544 210.403534,275.487000 215.834030,269.909363 
	C222.823532,262.730530 230.853683,256.564941 238.377106,250.013855 
	C240.828812,252.149170 242.157822,253.406494 243.587280,254.536774 
	C267.531616,273.469727 293.836945,283.185944 324.408203,273.977295 
	C347.663483,266.972351 368.617493,247.631287 366.067017,217.447723 
	C365.046417,205.369370 358.154816,196.386612 346.605835,193.056915 
	C334.365234,189.527802 322.097626,190.722458 310.088745,193.774933 
	C269.138184,204.183929 233.225143,223.837753 202.316055,253.815292 
M312.558777,155.775940 
	C317.101044,162.058456 328.957306,161.376144 334.601746,156.230652 
	C338.818573,152.386551 340.243225,147.716675 339.016449,142.287674 
	C337.930054,137.479965 334.595703,134.304596 330.009796,133.255524 
	C323.513214,131.769394 317.314362,132.907440 312.913818,138.485840 
	C308.776154,143.731003 308.791016,149.433228 312.558777,155.775940 
z"/>
<path fill="#020202" opacity="1.000000" stroke="none" 
	d="
M202.559662,253.559875 
	C233.225143,223.837753 269.138184,204.183929 310.088745,193.774933 
	C322.097626,190.722458 334.365234,189.527802 346.605835,193.056915 
	C358.154816,196.386612 365.046417,205.369370 366.067017,217.447723 
	C368.617493,247.631287 347.663483,266.972351 324.408203,273.977295 
	C293.836945,283.185944 267.531616,273.469727 243.587280,254.536774 
	C242.157822,253.406494 240.828812,252.149170 238.377106,250.013855 
	C230.853683,256.564941 222.823532,262.730530 215.834030,269.909363 
	C210.403534,275.487000 211.333450,279.232544 217.653015,283.924133 
	C222.056885,287.193542 226.682556,290.164337 231.211304,293.265381 
	C246.956375,304.046692 248.580261,320.542114 235.366806,334.412231 
	C226.738327,343.469452 215.845230,348.788422 204.379929,352.898712 
	C182.612289,360.702332 160.243149,362.431549 137.521545,357.936920 
	C133.499634,357.141327 129.494354,355.707092 125.805923,353.903931 
	C119.513618,350.827759 117.498535,345.041840 119.787407,338.320129 
	C121.615585,332.951324 125.690247,330.580658 132.638107,331.800140 
	C141.617798,333.376343 150.418472,336.305908 159.441818,337.228027 
	C176.457397,338.966888 192.935715,336.064972 208.359360,328.387756 
	C210.837601,327.154205 213.134644,325.294159 215.078339,323.298065 
	C221.127930,317.085480 220.733566,310.141968 213.702988,304.996582 
	C208.900314,301.481720 203.468674,298.837891 198.408600,295.660736 
	C186.122177,287.946198 184.194489,281.278717 191.370407,268.628326 
	C194.377640,263.326874 198.629868,258.731628 202.559662,253.559875 
M324.918549,212.545425 
	C301.360504,215.806702 280.661530,226.365906 259.556366,237.662582 
	C272.460236,248.267822 286.145782,255.537857 302.402618,255.690475 
	C317.394165,255.831192 330.699951,251.166580 338.799011,237.340744 
	C342.302063,231.360703 344.454163,224.534943 340.861572,217.922684 
	C337.708527,212.119507 331.420868,212.605255 324.918549,212.545425 
z"/>
<path fill="#030303" opacity="1.000000" stroke="none" 
	d="
M312.323669,155.474747 
	C308.791016,149.433228 308.776154,143.731003 312.913818,138.485840 
	C317.314362,132.907440 323.513214,131.769394 330.009796,133.255524 
	C334.595703,134.304596 337.930054,137.479965 339.016449,142.287674 
	C340.243225,147.716675 338.818573,152.386551 334.601746,156.230652 
	C328.957306,161.376144 317.101044,162.058456 312.323669,155.474747 
z"/>
<path fill="#FCFCFC" opacity="1.000000" stroke="none" 
	d="
M325.341675,212.485718 
	C331.420868,212.605255 337.708527,212.119507 340.861572,217.922684 
	C344.454163,224.534943 342.302063,231.360703 338.799011,237.340744 
	C330.699951,251.166580 317.394165,255.831192 302.402618,255.690475 
	C286.145782,255.537857 272.460236,248.267822 259.556366,237.662582 
	C280.661530,226.365906 301.360504,215.806702 325.341675,212.485718 
z"/>
</svg>