<svg version="1.1" id="Layer_1" xmlns="http://www.w3.org/2000/svg" xmlns:xlink="http://www.w3.org/1999/xlink" x="0px" y="0px"
	 width="100%" viewBox="0 0 512 512" enable-background="new 0 0 512 512" xml:space="preserve">
<path fill="#000000" opacity="1.000000" stroke="none" 
	d="
M289.274963,225.274887 
	C296.049713,218.612045 301.945099,211.524796 309.645874,206.374207 
	C312.718719,204.318985 315.925842,202.501358 319.575195,201.836182 
	C329.876648,199.958572 336.780151,204.871979 338.327728,215.418076 
	C340.563324,230.652374 337.856720,245.609924 334.867493,260.426880 
	C329.921234,284.944519 321.142517,308.029968 307.655334,329.221405 
	C305.042084,333.327454 302.315613,337.320282 298.306152,340.164856 
	C290.463593,345.728760 279.987793,342.555115 278.136719,334.119293 
	C277.250488,330.080444 278.901093,326.538544 280.766754,323.202606 
	C286.293640,313.320160 292.322205,303.722687 297.295441,293.525543 
	C305.456726,276.791718 310.811432,259.202911 313.539337,240.810211 
	C313.792480,239.103470 314.189362,237.239075 312.976410,234.992630 
	C310.834045,237.356781 308.950348,239.609344 306.888550,241.684952 
	C267.259766,281.578949 223.753952,316.081696 171.603546,338.445374 
	C162.268921,342.448334 152.750748,346.016235 142.234634,345.396454 
	C134.970566,344.968323 129.797089,341.167877 128.761353,335.058716 
	C127.400108,327.029480 130.121292,320.949371 137.232880,318.415924 
	C145.675964,315.408112 154.518814,313.525421 162.970932,310.539520 
	C197.626709,298.296509 228.312378,279.167999 256.532745,255.873596 
	C267.981445,246.423309 278.652588,236.131973 289.274963,225.274887 
z"/>
<path fill="#000000" opacity="1.000000" stroke="none" 
	d="
M212.635498,369.950134 
	C213.075638,361.302490 218.141144,355.682800 225.955750,354.728485 
	C234.125580,353.730835 240.218552,357.301453 242.453613,364.255890 
	C244.313431,370.042816 242.414352,374.767944 238.232452,378.615448 
	C233.199799,383.245667 227.213440,384.611603 220.700073,382.269562 
	C215.239334,380.306000 212.683289,376.144043 212.635498,369.950134 
z"/>
</svg>