<svg version="1.1" id="Layer_1" xmlns="http://www.w3.org/2000/svg" xmlns:xlink="http://www.w3.org/1999/xlink" x="0px" y="0px"
	 width="100%" viewBox="0 0 512 512" enable-background="new 0 0 512 512" xml:space="preserve">
<path fill="#000000" opacity="1.000000" stroke="none" 
	d="
M332.202759,271.995850 
	C326.671265,292.618134 318.817871,311.792297 307.491455,329.481598 
	C304.775940,333.722656 301.938416,337.840271 297.626587,340.593323 
	C289.515991,345.771790 279.099426,341.931183 278.005493,333.304810 
	C277.406403,328.580292 279.817596,324.572601 282.105133,320.714233 
	C288.900757,309.252075 295.590515,297.760193 300.941071,285.506439 
	C307.110596,271.377228 310.942017,256.629211 313.503540,241.503845 
	C313.826691,239.595734 313.547699,237.585663 313.547699,234.418671 
	C310.822662,237.400772 308.837341,239.738495 306.682159,241.907410 
	C267.291779,281.548737 224.005325,315.779663 172.272583,338.162170 
	C162.801575,342.259857 153.139572,345.927460 142.462860,345.394409 
	C135.104248,345.027008 129.955887,341.360962 128.798828,335.287872 
	C127.259270,327.207123 130.157257,320.970459 137.460892,318.272858 
	C147.907104,314.414520 159.003220,312.555054 169.365112,308.392487 
	C204.023026,294.469849 235.064117,274.728973 263.177063,250.212677 
	C276.883881,238.259415 289.130920,224.829361 302.288849,212.329895 
	C307.847321,207.049591 313.814758,202.036377 322.073181,201.682281 
	C331.513367,201.277542 336.426758,205.631516 338.398438,214.908218 
	C340.212799,223.444946 338.716644,231.865601 338.073242,240.267975 
	C337.261749,250.865448 335.091980,261.312012 332.202759,271.995850 
z"/>
<path fill="#000000" opacity="1.000000" stroke="none" 
	d="
M303.430420,149.378143 
	C302.725739,143.002075 304.855011,138.213089 309.917847,134.988174 
	C315.330811,131.540207 321.141693,131.055939 326.930176,133.966873 
	C332.408936,136.722031 334.887665,142.962540 333.323212,149.229950 
	C331.618042,156.061050 324.594543,161.004395 316.688843,160.937683 
	C309.840454,160.879883 305.175171,156.922195 303.430420,149.378143 
z"/>
</svg>