<svg version="1.1" id="Layer_1" xmlns="http://www.w3.org/2000/svg" xmlns:xlink="http://www.w3.org/1999/xlink" x="0px" y="0px"
	 width="100%" viewBox="0 0 512 512" enable-background="new 0 0 512 512" xml:space="preserve">
<path fill="#000000" opacity="1.000000" stroke="none" 
	d="
M323.325806,252.266510 
	C298.461639,281.576874 269.017303,305.208923 238.462784,327.560120 
	C212.234238,346.746826 183.956253,362.149689 153.115082,372.596130 
	C146.551407,374.819366 139.901489,377.300354 132.674515,375.575500 
	C125.347908,373.826874 121.610863,369.570404 120.951584,362.000610 
	C120.414505,355.833923 124.052528,350.057220 130.585007,347.792480 
	C141.098526,344.147491 152.212631,342.453094 162.511017,338.038879 
	C190.493164,326.044830 216.367630,310.362610 241.351273,293.115479 
	C244.994125,290.600677 248.553497,287.964935 252.830948,284.898010 
	C249.107773,283.521179 246.195526,282.474060 243.304764,281.370605 
	C217.166885,271.393280 210.761810,249.966736 224.862640,226.200577 
	C238.721771,202.841782 260.633362,190.654785 286.842529,185.748001 
	C295.375763,184.150452 304.022919,184.033447 312.655243,185.523865 
	C333.835754,189.180725 342.588715,202.218903 337.836182,223.142548 
	C335.390778,233.908722 330.189270,243.301254 323.325806,252.266510 
M254.418823,263.124146 
	C260.579620,265.903015 267.240753,266.469910 273.794556,267.517365 
	C275.799683,267.837799 277.286743,266.919342 278.763214,265.721130 
	C285.230621,260.472412 291.610474,255.111755 297.134186,248.861191 
	C304.075531,241.006409 311.205536,233.192169 313.730804,222.564926 
	C315.752563,214.056625 312.192139,208.920578 303.458466,207.277176 
	C291.005219,204.933868 279.692657,208.574295 268.985474,214.318359 
	C258.720306,219.825348 249.768372,226.968231 244.911453,238.040283 
	C239.940231,249.372849 242.733261,257.040070 254.418823,263.124146 
z"/>
<path fill="#000000" opacity="1.000000" stroke="none" 
	d="
M314.126587,144.275742 
	C313.521423,154.524261 307.254242,160.673599 297.602722,160.954117 
	C287.157867,161.257660 280.522400,151.454956 284.558319,141.683365 
	C286.953644,135.883972 293.691986,131.701508 300.092987,132.041061 
	C307.526031,132.435349 311.774048,136.027542 314.126587,144.275742 
z"/>
</svg>