<svg version="1.1" id="Layer_1" xmlns="http://www.w3.org/2000/svg" xmlns:xlink="http://www.w3.org/1999/xlink" x="0px" y="0px"
	 width="100%" viewBox="0 0 512 514" enable-background="new 0 0 512 514" xml:space="preserve">
<path fill="#FFFFFF" opacity="1.000000" stroke="none" 
	d="
M285.000000,515.000000 
	C190.023010,515.000000 95.546021,515.000000 1.034514,515.000000 
	C1.034514,343.731384 1.034514,172.462784 1.034514,1.097090 
	C171.560333,1.097090 342.120758,1.097090 512.840576,1.097090 
	C512.840576,172.333221 512.840576,343.666595 512.840576,515.000000 
	C437.129395,515.000000 361.314697,515.000000 285.000000,515.000000 
M320.745972,145.081284 
	C328.005432,141.417786 335.548492,138.218872 342.466461,133.995941 
	C357.760498,124.660019 372.942200,115.103447 387.709381,104.966263 
	C391.525940,102.346336 394.586060,97.614525 396.308746,93.195915 
	C398.766693,86.891502 394.479340,81.248749 387.842590,82.169044 
	C383.054840,82.832947 377.991608,85.186264 374.115906,88.169334 
	C343.266815,111.913292 309.733887,130.370514 272.272095,141.421570 
	C269.285156,142.302704 266.289062,143.526413 263.664398,145.175385 
	C259.604065,147.726288 258.417542,152.240540 260.240875,156.109650 
	C261.472992,158.724121 265.041046,161.060593 268.000946,161.820480 
	C271.365112,162.684219 275.517120,162.487595 278.802429,161.300751 
	C292.661133,156.294067 306.324493,150.746674 320.745972,145.081284 
z"/>
<path fill="#030303" opacity="1.000000" stroke="none" 
	d="
M320.402649,145.239166 
	C306.324493,150.746674 292.661133,156.294067 278.802429,161.300751 
	C275.517120,162.487595 271.365112,162.684219 268.000946,161.820480 
	C265.041046,161.060593 261.472992,158.724121 260.240875,156.109650 
	C258.417542,152.240540 259.604065,147.726288 263.664398,145.175385 
	C266.289062,143.526413 269.285156,142.302704 272.272095,141.421570 
	C309.733887,130.370514 343.266815,111.913292 374.115906,88.169334 
	C377.991608,85.186264 383.054840,82.832947 387.842590,82.169044 
	C394.479340,81.248749 398.766693,86.891502 396.308746,93.195915 
	C394.586060,97.614525 391.525940,102.346336 387.709381,104.966263 
	C372.942200,115.103447 357.760498,124.660019 342.466461,133.995941 
	C335.548492,138.218872 328.005432,141.417786 320.402649,145.239166 
z"/>
</svg>