<svg version="1.1" id="Layer_1" xmlns="http://www.w3.org/2000/svg" xmlns:xlink="http://www.w3.org/1999/xlink" x="0px" y="0px"
	 width="100%" viewBox="0 0 512 514" enable-background="new 0 0 512 514" xml:space="preserve">
<path fill="#FFFFFF" opacity="1.000000" stroke="none" 
	d="
M274.000000,515.000000 
	C182.688782,515.000000 91.877563,515.000000 1.033175,515.000000 
	C1.033175,343.730499 1.033175,172.460999 1.033175,1.095751 
	C171.561234,1.095751 342.122528,1.095751 512.841919,1.095751 
	C512.841919,172.333221 512.841919,343.666595 512.841919,515.000000 
	C433.460968,515.000000 353.980499,515.000000 274.000000,515.000000 
M312.899841,95.330719 
	C316.279694,93.549721 319.800629,91.991081 323.015961,89.950829 
	C340.826569,78.649376 358.655334,67.370735 376.251312,55.741482 
	C380.055511,53.227295 383.246277,49.561916 386.146942,45.965012 
	C389.191528,42.189648 389.283508,35.713249 386.701080,32.880497 
	C383.191467,29.030588 378.627258,29.010950 374.301971,30.904217 
	C370.856110,32.412560 367.623199,34.592709 364.619049,36.896248 
	C335.456482,59.257744 304.905151,79.100494 269.439026,90.211784 
	C267.408356,90.847984 265.433228,91.885895 263.661194,93.077385 
	C259.658600,95.768753 258.989471,99.861740 260.000122,104.152557 
	C260.979462,108.310410 264.349182,109.963875 268.274139,110.060089 
	C271.738922,110.145020 275.505920,110.418175 278.639313,109.257736 
	C289.966583,105.062744 301.083008,100.298386 312.899841,95.330719 
M386.614166,118.078239 
	C391.293030,114.624046 396.166718,111.399223 400.588928,107.642891 
	C404.109131,104.652725 407.425873,101.275024 410.195618,97.590279 
	C413.069550,93.766846 413.696289,88.987450 410.664581,85.044228 
	C407.543884,80.985313 402.709259,80.977913 398.371368,82.814499 
	C394.922455,84.274696 391.623444,86.406326 388.727814,88.806709 
	C361.634247,111.266411 331.870331,129.018784 298.518524,140.550568 
	C295.235199,141.685806 291.881073,142.735901 288.793976,144.290512 
	C284.288971,146.559174 282.207123,151.159698 283.361969,155.487656 
	C284.637238,160.266846 288.367401,162.541031 292.739868,161.993805 
	C300.062714,161.077316 307.702728,160.230865 314.430450,157.462402 
	C339.664917,147.078415 363.243286,133.480057 386.614166,118.078239 
z"/>
<path fill="#030303" opacity="1.000000" stroke="none" 
	d="
M312.589417,95.539841 
	C301.083008,100.298386 289.966583,105.062744 278.639313,109.257736 
	C275.505920,110.418175 271.738922,110.145020 268.274139,110.060089 
	C264.349182,109.963875 260.979462,108.310410 260.000122,104.152557 
	C258.989471,99.861740 259.658600,95.768753 263.661194,93.077385 
	C265.433228,91.885895 267.408356,90.847984 269.439026,90.211784 
	C304.905151,79.100494 335.456482,59.257744 364.619049,36.896248 
	C367.623199,34.592709 370.856110,32.412560 374.301971,30.904217 
	C378.627258,29.010950 383.191467,29.030588 386.701080,32.880497 
	C389.283508,35.713249 389.191528,42.189648 386.146942,45.965012 
	C383.246277,49.561916 380.055511,53.227295 376.251312,55.741482 
	C358.655334,67.370735 340.826569,78.649376 323.015961,89.950829 
	C319.800629,91.991081 316.279694,93.549721 312.589417,95.539841 
z"/>
<path fill="#030303" opacity="1.000000" stroke="none" 
	d="
M386.317352,118.284279 
	C363.243286,133.480057 339.664917,147.078415 314.430450,157.462402 
	C307.702728,160.230865 300.062714,161.077316 292.739868,161.993805 
	C288.367401,162.541031 284.637238,160.266846 283.361969,155.487656 
	C282.207123,151.159698 284.288971,146.559174 288.793976,144.290512 
	C291.881073,142.735901 295.235199,141.685806 298.518524,140.550568 
	C331.870331,129.018784 361.634247,111.266411 388.727814,88.806709 
	C391.623444,86.406326 394.922455,84.274696 398.371368,82.814499 
	C402.709259,80.977913 407.543884,80.985313 410.664581,85.044228 
	C413.696289,88.987450 413.069550,93.766846 410.195618,97.590279 
	C407.425873,101.275024 404.109131,104.652725 400.588928,107.642891 
	C396.166718,111.399223 391.293030,114.624046 386.317352,118.284279 
z"/>
</svg>