<svg version="1.1" id="Layer_1" xmlns="http://www.w3.org/2000/svg" xmlns:xlink="http://www.w3.org/1999/xlink" x="0px" y="0px"
	 width="100%" viewBox="0 0 512 514" enable-background="new 0 0 512 514" xml:space="preserve">
<path fill="#FFFFFF" opacity="1.000000" stroke="none" 
	d="
M508.201477,515.000000 
	C338.846863,515.000000 170.017715,515.000000 1.094292,515.000000 
	C1.094292,343.733826 1.094292,172.467590 1.094292,1.100680 
	C171.595245,1.100680 342.190552,1.100680 512.892944,1.100680 
	C512.892944,172.257645 512.892944,343.515381 512.892944,515.000000 
	C511.578125,515.000000 510.152557,515.000000 508.201477,515.000000 
M306.121521,437.448853 
	C309.227203,435.868866 312.451782,434.484009 315.418671,432.676178 
	C331.000061,423.181976 346.679169,413.829620 361.940735,403.841858 
	C365.758179,401.343536 369.009247,397.091766 371.024780,392.922729 
	C374.624054,385.477844 369.984924,378.969574 361.876678,380.163330 
	C357.559967,380.798859 353.104218,383.215302 349.558350,385.933105 
	C319.362061,409.077789 286.442352,426.976105 250.165817,438.610718 
	C246.551346,439.769958 242.864212,440.931305 239.538513,442.705841 
	C235.142807,445.051361 234.060455,449.343262 235.124969,453.898712 
	C236.137253,458.230774 239.751740,460.243652 243.777100,459.978455 
	C249.679428,459.589722 255.935013,459.336914 261.311829,457.196625 
	C276.240692,451.253967 290.793457,444.366455 306.121521,437.448853 
z"/>
<path fill="#030303" opacity="1.000000" stroke="none" 
	d="
M305.808167,437.650543 
	C290.793457,444.366455 276.240692,451.253967 261.311829,457.196625 
	C255.935013,459.336914 249.679428,459.589722 243.777100,459.978455 
	C239.751740,460.243652 236.137253,458.230774 235.124969,453.898712 
	C234.060455,449.343262 235.142807,445.051361 239.538513,442.705841 
	C242.864212,440.931305 246.551346,439.769958 250.165817,438.610718 
	C286.442352,426.976105 319.362061,409.077789 349.558350,385.933105 
	C353.104218,383.215302 357.559967,380.798859 361.876678,380.163330 
	C369.984924,378.969574 374.624054,385.477844 371.024780,392.922729 
	C369.009247,397.091766 365.758179,401.343536 361.940735,403.841858 
	C346.679169,413.829620 331.000061,423.181976 315.418671,432.676178 
	C312.451782,434.484009 309.227203,435.868866 305.808167,437.650543 
z"/>
</svg>