<svg version="1.1" id="Layer_1" xmlns="http://www.w3.org/2000/svg" xmlns:xlink="http://www.w3.org/1999/xlink" x="0px" y="0px"
	 width="100%" viewBox="0 0 512 514" enable-background="new 0 0 512 514" xml:space="preserve">
<path fill="#FFFFFF" opacity="1.000000" stroke="none" 
	d="
M329.000000,515.000000 
	C219.359909,515.000000 110.219826,515.000000 1.039871,515.000000 
	C1.039871,343.734985 1.039871,172.469925 1.039871,1.102446 
	C171.556763,1.102446 342.113617,1.102446 512.835205,1.102446 
	C512.835205,172.333206 512.835205,343.666595 512.835205,515.000000 
	C451.803223,515.000000 390.651611,515.000000 329.000000,515.000000 
M267.554749,145.012573 
	C261.379913,149.173340 259.574951,153.015106 261.124939,158.698273 
	C262.286346,162.956665 266.269501,165.580460 273.230530,165.342224 
	C278.313538,165.168274 283.584290,164.430206 288.375671,162.788666 
	C314.908020,153.698532 338.818970,139.769119 360.433441,122.006432 
	C365.110901,118.162506 369.319550,113.329834 372.517212,108.189362 
	C379.477875,96.999420 376.922607,88.925308 365.330292,82.677917 
	C363.144165,81.499771 360.885132,80.407356 358.559814,79.544777 
	C337.689545,71.802895 316.057953,70.328392 294.127960,72.309692 
	C289.786407,72.701927 285.400574,74.373718 281.395966,76.232697 
	C277.303650,78.132378 276.221710,82.111198 277.017792,86.442162 
	C277.735260,90.345314 280.323853,92.756195 284.120270,93.079659 
	C289.557037,93.542870 295.047882,93.326897 300.509216,93.554855 
	C312.773193,94.066765 325.076477,94.235764 337.274872,95.442886 
	C342.647522,95.974548 347.803528,98.695122 354.001129,100.731865 
	C351.025787,103.349197 349.233429,105.079796 347.286438,106.614098 
	C332.924011,117.932022 316.725433,125.978455 299.884827,132.777634 
	C289.430267,136.998535 278.793121,140.767090 267.554749,145.012573 
z"/>
<path fill="#030303" opacity="1.000000" stroke="none" 
	d="
M267.896332,144.875626 
	C278.793121,140.767090 289.430267,136.998535 299.884827,132.777634 
	C316.725433,125.978455 332.924011,117.932022 347.286438,106.614098 
	C349.233429,105.079796 351.025787,103.349197 354.001129,100.731865 
	C347.803528,98.695122 342.647522,95.974548 337.274872,95.442886 
	C325.076477,94.235764 312.773193,94.066765 300.509216,93.554855 
	C295.047882,93.326897 289.557037,93.542870 284.120270,93.079659 
	C280.323853,92.756195 277.735260,90.345314 277.017792,86.442162 
	C276.221710,82.111198 277.303650,78.132378 281.395966,76.232697 
	C285.400574,74.373718 289.786407,72.701927 294.127960,72.309692 
	C316.057953,70.328392 337.689545,71.802895 358.559814,79.544777 
	C360.885132,80.407356 363.144165,81.499771 365.330292,82.677917 
	C376.922607,88.925308 379.477875,96.999420 372.517212,108.189362 
	C369.319550,113.329834 365.110901,118.162506 360.433441,122.006432 
	C338.818970,139.769119 314.908020,153.698532 288.375671,162.788666 
	C283.584290,164.430206 278.313538,165.168274 273.230530,165.342224 
	C266.269501,165.580460 262.286346,162.956665 261.124939,158.698273 
	C259.574951,153.015106 261.379913,149.173340 267.896332,144.875626 
z"/>
</svg>