<svg version="1.1" id="Layer_1" xmlns="http://www.w3.org/2000/svg" xmlns:xlink="http://www.w3.org/1999/xlink" x="0px" y="0px"
	 width="100%" viewBox="0 0 512 514" enable-background="new 0 0 512 514" xml:space="preserve">
<path fill="#FFFFFF" opacity="1.000000" stroke="none" 
	d="
M277.000000,515.000000 
	C184.689026,515.000000 92.878052,515.000000 1.033540,515.000000 
	C1.033540,343.730743 1.033540,172.461487 1.033540,1.096116 
	C171.560989,1.096116 342.122040,1.096116 512.841553,1.096116 
	C512.841553,172.333221 512.841553,343.666595 512.841553,515.000000 
	C434.461426,515.000000 355.980713,515.000000 277.000000,515.000000 
M468.334839,100.248840 
	C468.242798,101.244682 468.540131,102.691902 467.994843,103.162262 
	C464.727661,105.980469 461.395416,108.760162 457.849243,111.211769 
	C438.409424,124.651283 416.755432,133.379654 394.526764,140.921616 
	C390.011841,142.453506 385.542572,144.419434 381.472992,146.880829 
	C377.336700,149.382523 376.379059,153.641754 377.535187,158.302032 
	C378.670258,162.877411 382.072662,165.152374 386.315308,164.982483 
	C392.712952,164.726303 399.435455,164.634064 405.388947,162.613342 
	C430.772766,153.997620 453.868408,140.895203 474.627686,124.002365 
	C480.553009,119.180626 485.914246,113.029305 489.773895,106.454376 
	C495.583069,96.558403 492.641357,88.736992 482.724121,83.107315 
	C480.707855,81.962738 478.634277,80.865028 476.476624,80.031860 
	C455.219696,71.823654 433.119080,70.305611 410.693909,72.301460 
	C406.349213,72.688141 401.966461,74.334496 397.942902,76.154892 
	C394.130676,77.879677 392.620483,81.513542 393.270996,85.756470 
	C393.896210,89.834328 396.314728,92.648682 400.373779,93.003357 
	C406.131561,93.506462 411.973236,93.756516 417.733398,93.392212 
	C434.818573,92.311676 451.642822,92.731735 468.334839,100.248840 
M279.754578,77.365395 
	C274.145050,84.370796 276.459442,91.837250 285.138062,93.255936 
	C290.152985,94.075706 295.403381,93.354965 300.538483,93.560043 
	C312.804138,94.049881 325.107758,94.239906 337.306671,95.450928 
	C342.673004,95.983658 347.821808,98.707359 354.014099,100.747543 
	C351.809601,102.741516 350.754944,103.808098 349.586182,104.730087 
	C346.843597,106.893631 344.129364,109.108032 341.257996,111.090981 
	C321.793701,124.532875 300.142395,133.312286 277.896545,140.871094 
	C273.533936,142.353455 269.270508,144.335907 265.273712,146.631577 
	C260.728882,149.242004 260.110260,153.849075 261.169861,158.482101 
	C262.193451,162.957672 265.743561,165.268219 270.046600,165.022095 
	C276.446442,164.656052 283.145508,164.494217 289.113129,162.467117 
	C315.177734,153.613464 338.602661,139.766632 359.985168,122.551392 
	C364.578857,118.852989 368.735779,114.225685 371.956116,109.284729 
	C379.702332,97.399857 377.161346,88.870659 364.682983,82.287880 
	C362.925537,81.360741 361.091888,80.558472 359.241913,79.829338 
	C341.900543,72.994637 323.744202,71.237076 305.330231,71.580254 
	C296.728943,71.740562 287.940582,71.685608 279.754578,77.365395 
z"/>
<path fill="#030303" opacity="1.000000" stroke="none" 
	d="
M467.981018,100.067917 
	C451.642822,92.731735 434.818573,92.311676 417.733398,93.392212 
	C411.973236,93.756516 406.131561,93.506462 400.373779,93.003357 
	C396.314728,92.648682 393.896210,89.834328 393.270996,85.756470 
	C392.620483,81.513542 394.130676,77.879677 397.942902,76.154892 
	C401.966461,74.334496 406.349213,72.688141 410.693909,72.301460 
	C433.119080,70.305611 455.219696,71.823654 476.476624,80.031860 
	C478.634277,80.865028 480.707855,81.962738 482.724121,83.107315 
	C492.641357,88.736992 495.583069,96.558403 489.773895,106.454376 
	C485.914246,113.029305 480.553009,119.180626 474.627686,124.002365 
	C453.868408,140.895203 430.772766,153.997620 405.388947,162.613342 
	C399.435455,164.634064 392.712952,164.726303 386.315308,164.982483 
	C382.072662,165.152374 378.670258,162.877411 377.535187,158.302032 
	C376.379059,153.641754 377.336700,149.382523 381.472992,146.880829 
	C385.542572,144.419434 390.011841,142.453506 394.526764,140.921616 
	C416.755432,133.379654 438.409424,124.651283 457.849243,111.211769 
	C461.395416,108.760162 464.727661,105.980469 467.994843,103.162262 
	C468.540131,102.691902 468.242798,101.244682 467.981018,100.067917 
z"/>
<path fill="#030303" opacity="1.000000" stroke="none" 
	d="
M280.051270,77.127663 
	C287.940582,71.685608 296.728943,71.740562 305.330231,71.580254 
	C323.744202,71.237076 341.900543,72.994637 359.241913,79.829338 
	C361.091888,80.558472 362.925537,81.360741 364.682983,82.287880 
	C377.161346,88.870659 379.702332,97.399857 371.956116,109.284729 
	C368.735779,114.225685 364.578857,118.852989 359.985168,122.551392 
	C338.602661,139.766632 315.177734,153.613464 289.113129,162.467117 
	C283.145508,164.494217 276.446442,164.656052 270.046600,165.022095 
	C265.743561,165.268219 262.193451,162.957672 261.169861,158.482101 
	C260.110260,153.849075 260.728882,149.242004 265.273712,146.631577 
	C269.270508,144.335907 273.533936,142.353455 277.896545,140.871094 
	C300.142395,133.312286 321.793701,124.532875 341.257996,111.090981 
	C344.129364,109.108032 346.843597,106.893631 349.586182,104.730087 
	C350.754944,103.808098 351.809601,102.741516 354.014099,100.747543 
	C347.821808,98.707359 342.673004,95.983658 337.306671,95.450928 
	C325.107758,94.239906 312.804138,94.049881 300.538483,93.560043 
	C295.403381,93.354965 290.152985,94.075706 285.138062,93.255936 
	C276.459442,91.837250 274.145050,84.370796 280.051270,77.127663 
z"/>
</svg>