<svg version="1.1" id="Layer_1" xmlns="http://www.w3.org/2000/svg" xmlns:xlink="http://www.w3.org/1999/xlink" x="0px" y="0px"
	 width="100%" viewBox="0 0 512 514" enable-background="new 0 0 512 514" xml:space="preserve">
<path fill="#FFFFFF" opacity="1.000000" stroke="none" 
	d="
M328.000000,515.000000 
	C218.693161,515.000000 109.886330,515.000000 1.039749,515.000000 
	C1.039749,343.734894 1.039749,172.469772 1.039749,1.102325 
	C171.556854,1.102325 342.113770,1.102325 512.835327,1.102325 
	C512.835327,172.333206 512.835327,343.666595 512.835327,515.000000 
	C451.469727,515.000000 389.984863,515.000000 328.000000,515.000000 
M265.112640,140.346985 
	C269.151550,143.505569 272.840790,147.312561 277.289276,149.711609 
	C297.635590,160.684174 319.519470,161.723083 341.818634,158.402664 
	C346.130341,157.760651 350.451904,155.998657 354.329559,153.929810 
	C359.116272,151.375946 358.828522,146.477417 357.917084,141.966232 
	C357.079254,137.819229 353.890533,135.870605 349.892334,135.797928 
	C345.255951,135.713669 340.566254,135.788086 335.977783,136.389404 
	C324.459686,137.898849 313.009766,137.737091 301.812653,134.721252 
	C296.095734,133.181488 290.704468,130.432648 285.166016,128.230301 
	C284.964172,127.386032 284.762299,126.541779 284.560425,125.697517 
	C287.738586,123.054855 290.927338,120.424828 294.093048,117.767395 
	C310.513824,103.983131 328.990051,93.610054 348.490204,84.923660 
	C350.756500,83.914131 353.116180,82.965622 355.119659,81.546928 
	C358.826050,78.922325 359.596100,75.135139 358.410706,70.889412 
	C357.262360,66.776421 354.248871,64.661766 350.254913,64.967697 
	C345.015289,65.369049 339.501862,65.665901 334.683167,67.512955 
	C308.976379,77.366615 287.372772,93.523354 267.695068,112.453331 
	C266.388824,113.709930 265.290802,115.221092 264.272949,116.733032 
	C258.840790,124.802032 258.986115,131.732941 265.112640,140.346985 
z"/>
<path fill="#030303" opacity="1.000000" stroke="none" 
	d="
M264.893768,140.059998 
	C258.986115,131.732941 258.840790,124.802032 264.272949,116.733032 
	C265.290802,115.221092 266.388824,113.709930 267.695068,112.453331 
	C287.372772,93.523354 308.976379,77.366615 334.683167,67.512955 
	C339.501862,65.665901 345.015289,65.369049 350.254913,64.967697 
	C354.248871,64.661766 357.262360,66.776421 358.410706,70.889412 
	C359.596100,75.135139 358.826050,78.922325 355.119659,81.546928 
	C353.116180,82.965622 350.756500,83.914131 348.490204,84.923660 
	C328.990051,93.610054 310.513824,103.983131 294.093048,117.767395 
	C290.927338,120.424828 287.738586,123.054855 284.560425,125.697517 
	C284.762299,126.541779 284.964172,127.386032 285.166016,128.230301 
	C290.704468,130.432648 296.095734,133.181488 301.812653,134.721252 
	C313.009766,137.737091 324.459686,137.898849 335.977783,136.389404 
	C340.566254,135.788086 345.255951,135.713669 349.892334,135.797928 
	C353.890533,135.870605 357.079254,137.819229 357.917084,141.966232 
	C358.828522,146.477417 359.116272,151.375946 354.329559,153.929810 
	C350.451904,155.998657 346.130341,157.760651 341.818634,158.402664 
	C319.519470,161.723083 297.635590,160.684174 277.289276,149.711609 
	C272.840790,147.312561 269.151550,143.505569 264.893768,140.059998 
z"/>
</svg>