<svg version="1.1" id="Layer_1" xmlns="http://www.w3.org/2000/svg" xmlns:xlink="http://www.w3.org/1999/xlink" x="0px" y="0px"
	 width="100%" viewBox="0 0 512 514" enable-background="new 0 0 512 514" xml:space="preserve">
<path fill="#FFFFFF" opacity="1.000000" stroke="none" 
	d="
M284.000000,515.000000 
	C189.356262,515.000000 95.212524,515.000000 1.034392,515.000000 
	C1.034392,343.731323 1.034392,172.462631 1.034392,1.096968 
	C171.560410,1.096968 342.120911,1.096968 512.840698,1.096968 
	C512.840698,172.333221 512.840698,343.666595 512.840698,515.000000 
	C436.795898,515.000000 360.647949,515.000000 284.000000,515.000000 
M441.342041,137.132965 
	C426.560822,137.615585 412.271393,136.047165 397.488251,126.355675 
	C401.605988,123.021286 404.971497,120.369614 408.257477,117.622765 
	C424.717621,103.863289 443.204132,93.483665 462.734039,84.822411 
	C464.999725,83.817604 467.343658,82.820885 469.320618,81.369881 
	C473.005341,78.665428 473.596802,74.819786 472.329041,70.625702 
	C471.163269,66.769005 468.260742,64.693504 464.471680,64.984978 
	C459.230377,65.388168 453.708771,65.666183 448.895172,67.522530 
	C423.366425,77.367691 401.491486,93.011299 382.238220,112.164688 
	C370.114838,124.225166 371.782135,136.722229 386.013641,146.435974 
	C404.404602,158.988800 425.232208,161.195892 446.698486,159.475754 
	C453.090729,158.963547 459.560486,157.642120 465.651978,155.645645 
	C471.923218,153.590240 473.952118,148.630234 472.378174,142.524338 
	C471.052307,137.380783 467.085724,135.052734 459.697906,135.497101 
	C453.885956,135.846695 448.095001,136.545807 441.342041,137.132965 
M295.043365,132.780136 
	C291.784943,131.060791 288.526489,129.341446 283.577423,126.730026 
	C287.862091,123.081017 290.998260,120.378128 294.168427,117.715729 
	C310.602112,103.914162 329.105499,93.546974 348.628754,84.858368 
	C351.041016,83.784836 353.529449,82.685608 355.609436,81.106728 
	C359.076385,78.475044 359.527802,74.722382 358.360046,70.726364 
	C357.230133,66.859947 354.408142,64.997269 350.564697,64.940346 
	C347.433380,64.893974 344.209351,64.957870 341.174194,65.635132 
	C327.982208,68.578789 316.133514,74.794731 305.415985,82.667953 
	C292.177734,92.392891 278.966766,102.383759 267.109222,113.691299 
	C256.503632,123.804955 258.167023,135.238876 269.525421,144.582520 
	C271.950287,146.577240 274.600830,148.392624 277.379486,149.847153 
	C298.031433,160.657623 320.018829,161.795227 342.503296,158.257751 
	C346.501282,157.628738 350.504608,156.019760 354.102478,154.105759 
	C359.129852,151.431274 358.896606,146.418030 357.866394,141.748047 
	C356.959839,137.638687 353.647003,135.798019 349.657684,135.763931 
	C345.014832,135.724243 340.330170,135.841278 335.730042,136.418839 
	C322.150696,138.123779 308.832733,137.382004 295.043365,132.780136 
z"/>
<path fill="#030303" opacity="1.000000" stroke="none" 
	d="
M441.818390,137.111313 
	C448.095001,136.545807 453.885956,135.846695 459.697906,135.497101 
	C467.085724,135.052734 471.052307,137.380783 472.378174,142.524338 
	C473.952118,148.630234 471.923218,153.590240 465.651978,155.645645 
	C459.560486,157.642120 453.090729,158.963547 446.698486,159.475754 
	C425.232208,161.195892 404.404602,158.988800 386.013641,146.435974 
	C371.782135,136.722229 370.114838,124.225166 382.238220,112.164688 
	C401.491486,93.011299 423.366425,77.367691 448.895172,67.522530 
	C453.708771,65.666183 459.230377,65.388168 464.471680,64.984978 
	C468.260742,64.693504 471.163269,66.769005 472.329041,70.625702 
	C473.596802,74.819786 473.005341,78.665428 469.320618,81.369881 
	C467.343658,82.820885 464.999725,83.817604 462.734039,84.822411 
	C443.204132,93.483665 424.717621,103.863289 408.257477,117.622765 
	C404.971497,120.369614 401.605988,123.021286 397.488251,126.355675 
	C412.271393,136.047165 426.560822,137.615585 441.818390,137.111313 
z"/>
<path fill="#030303" opacity="1.000000" stroke="none" 
	d="
M295.422485,132.885406 
	C308.832733,137.382004 322.150696,138.123779 335.730042,136.418839 
	C340.330170,135.841278 345.014832,135.724243 349.657684,135.763931 
	C353.647003,135.798019 356.959839,137.638687 357.866394,141.748047 
	C358.896606,146.418030 359.129852,151.431274 354.102478,154.105759 
	C350.504608,156.019760 346.501282,157.628738 342.503296,158.257751 
	C320.018829,161.795227 298.031433,160.657623 277.379486,149.847153 
	C274.600830,148.392624 271.950287,146.577240 269.525421,144.582520 
	C258.167023,135.238876 256.503632,123.804955 267.109222,113.691299 
	C278.966766,102.383759 292.177734,92.392891 305.415985,82.667953 
	C316.133514,74.794731 327.982208,68.578789 341.174194,65.635132 
	C344.209351,64.957870 347.433380,64.893974 350.564697,64.940346 
	C354.408142,64.997269 357.230133,66.859947 358.360046,70.726364 
	C359.527802,74.722382 359.076385,78.475044 355.609436,81.106728 
	C353.529449,82.685608 351.041016,83.784836 348.628754,84.858368 
	C329.105499,93.546974 310.602112,103.914162 294.168427,117.715729 
	C290.998260,120.378128 287.862091,123.081017 283.577423,126.730026 
	C288.526489,129.341446 291.784943,131.060791 295.422485,132.885406 
z"/>
</svg>