<svg version="1.1" id="Layer_1" xmlns="http://www.w3.org/2000/svg" xmlns:xlink="http://www.w3.org/1999/xlink" x="0px" y="0px"
	 width="100%" viewBox="0 0 512 514" enable-background="new 0 0 512 514" xml:space="preserve">
<path fill="#FFFFFF" opacity="1.000000" stroke="none" 
	d="
M291.000000,515.000000 
	C194.023499,515.000000 97.546989,515.000000 1.035244,515.000000 
	C1.035244,343.731873 1.035244,172.463760 1.035244,1.097820 
	C171.559845,1.097820 342.119781,1.097820 512.839844,1.097820 
	C512.839844,172.333206 512.839844,343.666595 512.839844,515.000000 
	C439.130371,515.000000 365.315186,515.000000 291.000000,515.000000 
M372.966827,157.397659 
	C383.723389,158.218246 394.501068,159.860504 405.229462,159.584976 
	C413.031128,159.384598 420.961029,157.250504 428.465424,154.834457 
	C433.483276,153.218994 434.969116,148.171829 433.779968,142.717178 
	C432.726288,137.883911 429.387482,135.902023 424.763306,135.665207 
	C422.777588,135.563522 420.781097,135.670074 418.789520,135.685349 
	C406.849976,135.776917 394.872467,136.482452 382.984161,135.746796 
	C375.019989,135.253952 367.205963,132.659317 359.885498,126.510811 
	C366.568970,120.852142 372.216156,114.738419 379.046814,110.558746 
	C394.322296,101.211678 410.091156,92.650009 425.854828,84.130653 
	C433.260986,80.128067 435.673981,76.932045 434.031372,70.744301 
	C432.792450,66.077408 428.603973,63.638775 420.776093,65.113731 
	C413.694397,66.448082 406.594574,68.742119 400.092438,71.847626 
	C390.440430,76.457512 381.308563,82.156342 372.308685,87.193871 
	C368.232025,84.855415 364.424683,82.014633 360.159943,80.335464 
	C338.311584,71.732956 315.573029,70.040138 292.442230,72.657288 
	C288.738953,73.076294 284.996033,74.432716 281.613373,76.064629 
	C277.583954,78.008560 276.252045,81.770302 276.981628,86.179565 
	C277.672791,90.356773 280.361755,92.729965 284.352264,93.140602 
	C289.124603,93.631668 293.954834,93.560997 298.760071,93.731308 
	C311.191528,94.171928 323.668060,94.123672 336.034637,95.266197 
	C341.823700,95.801041 347.400421,98.634201 353.073395,100.425728 
	C353.080994,101.048904 353.088562,101.672089 353.096130,102.295265 
	C348.342926,105.886757 343.779785,109.769386 338.803070,113.018509 
	C319.031677,125.926598 297.168152,134.266144 274.980530,141.889999 
	C271.560974,143.064972 268.216339,144.679291 265.140656,146.581329 
	C260.675964,149.342377 260.123047,153.916870 261.179688,158.517166 
	C262.206085,162.985718 265.744446,164.825760 270.091614,165.123993 
	C272.405365,165.282715 274.884033,165.755661 277.030426,165.159073 
	C285.786316,162.725510 294.792114,160.726791 303.053070,157.086533 
	C315.165924,151.748901 326.719513,145.142136 338.614929,139.022888 
	C346.931824,149.878372 359.047668,154.448166 372.966827,157.397659 
z"/>
<path fill="#030303" opacity="1.000000" stroke="none" 
	d="
M372.557190,157.305511 
	C359.047668,154.448166 346.931824,149.878372 338.614929,139.022888 
	C326.719513,145.142136 315.165924,151.748901 303.053070,157.086533 
	C294.792114,160.726791 285.786316,162.725510 277.030426,165.159073 
	C274.884033,165.755661 272.405365,165.282715 270.091614,165.123993 
	C265.744446,164.825760 262.206085,162.985718 261.179688,158.517166 
	C260.123047,153.916870 260.675964,149.342377 265.140656,146.581329 
	C268.216339,144.679291 271.560974,143.064972 274.980530,141.889999 
	C297.168152,134.266144 319.031677,125.926598 338.803070,113.018509 
	C343.779785,109.769386 348.342926,105.886757 353.096130,102.295265 
	C353.088562,101.672089 353.080994,101.048904 353.073395,100.425728 
	C347.400421,98.634201 341.823700,95.801041 336.034637,95.266197 
	C323.668060,94.123672 311.191528,94.171928 298.760071,93.731308 
	C293.954834,93.560997 289.124603,93.631668 284.352264,93.140602 
	C280.361755,92.729965 277.672791,90.356773 276.981628,86.179565 
	C276.252045,81.770302 277.583954,78.008560 281.613373,76.064629 
	C284.996033,74.432716 288.738953,73.076294 292.442230,72.657288 
	C315.573029,70.040138 338.311584,71.732956 360.159943,80.335464 
	C364.424683,82.014633 368.232025,84.855415 372.308685,87.193871 
	C381.308563,82.156342 390.440430,76.457512 400.092438,71.847626 
	C406.594574,68.742119 413.694397,66.448082 420.776093,65.113731 
	C428.603973,63.638775 432.792450,66.077408 434.031372,70.744301 
	C435.673981,76.932045 433.260986,80.128067 425.854828,84.130653 
	C410.091156,92.650009 394.322296,101.211678 379.046814,110.558746 
	C372.216156,114.738419 366.568970,120.852142 359.885498,126.510811 
	C367.205963,132.659317 375.019989,135.253952 382.984161,135.746796 
	C394.872467,136.482452 406.849976,135.776917 418.789520,135.685349 
	C420.781097,135.670074 422.777588,135.563522 424.763306,135.665207 
	C429.387482,135.902023 432.726288,137.883911 433.779968,142.717178 
	C434.969116,148.171829 433.483276,153.218994 428.465424,154.834457 
	C420.961029,157.250504 413.031128,159.384598 405.229462,159.584976 
	C394.501068,159.860504 383.723389,158.218246 372.557190,157.305511 
z"/>
</svg>