<svg version="1.1" id="Layer_1" xmlns="http://www.w3.org/2000/svg" xmlns:xlink="http://www.w3.org/1999/xlink" x="0px" y="0px"
	 width="100%" viewBox="0 0 512 514" enable-background="new 0 0 512 514" xml:space="preserve">
<path fill="#FFFFFF" opacity="1.000000" stroke="none" 
	d="
M290.000000,515.000000 
	C193.356750,515.000000 97.213493,515.000000 1.035123,515.000000 
	C1.035123,343.731812 1.035123,172.463608 1.035123,1.097698 
	C171.559921,1.097698 342.119934,1.097698 512.839966,1.097698 
	C512.839966,172.333206 512.839966,343.666595 512.839966,515.000000 
	C438.796875,515.000000 364.648438,515.000000 290.000000,515.000000 
M368.838989,148.352478 
	C371.304840,145.073059 374.598389,142.097549 375.952362,138.409897 
	C376.891693,135.851639 376.121307,131.446198 374.337769,129.469360 
	C372.730194,127.687599 368.507416,127.165100 365.796600,127.749756 
	C362.182251,128.529297 358.841156,130.784698 355.511017,132.636917 
	C340.703918,140.872482 324.916504,144.473160 307.999481,142.992661 
	C288.692169,141.302994 278.466522,127.510178 283.289276,109.106033 
	C284.621613,104.021713 286.552399,98.887680 289.247406,94.400330 
	C307.420349,64.141022 333.839844,43.719887 366.507996,31.181496 
	C376.179352,27.469524 386.344116,25.408039 396.835938,27.022070 
	C404.786957,28.245232 409.364441,33.695278 407.516357,41.445999 
	C406.183136,47.037434 403.397064,52.671227 399.904419,57.253746 
	C396.130341,62.205490 390.709564,65.882118 386.146027,70.259796 
	C383.399750,72.894257 380.466522,75.513092 378.431000,78.664520 
	C375.797363,82.741936 376.026001,87.257584 379.168762,91.221230 
	C382.070251,94.880592 387.249542,96.067947 391.860321,94.251617 
	C393.244019,93.706535 394.631470,93.078476 395.865509,92.259766 
	C415.499420,79.234207 429.259491,62.474144 430.833191,37.788387 
	C431.751190,23.388582 424.785126,12.553940 411.036865,7.924042 
	C396.731171,3.106431 382.352081,4.552927 368.231659,8.432188 
	C336.430328,17.168875 309.760712,34.534138 287.554169,58.630634 
	C273.022156,74.399429 262.227142,92.294006 259.433380,114.223457 
	C256.766663,135.155563 265.854309,152.021149 285.511566,159.571472 
	C292.832092,162.383286 300.940613,164.063538 308.776611,164.436478 
	C330.109100,165.451782 350.601715,162.156845 368.838989,148.352478 
z"/>
<path fill="#030303" opacity="1.000000" stroke="none" 
	d="
M368.573395,148.588715 
	C350.601715,162.156845 330.109100,165.451782 308.776611,164.436478 
	C300.940613,164.063538 292.832092,162.383286 285.511566,159.571472 
	C265.854309,152.021149 256.766663,135.155563 259.433380,114.223457 
	C262.227142,92.294006 273.022156,74.399429 287.554169,58.630634 
	C309.760712,34.534138 336.430328,17.168875 368.231659,8.432188 
	C382.352081,4.552927 396.731171,3.106431 411.036865,7.924042 
	C424.785126,12.553940 431.751190,23.388582 430.833191,37.788387 
	C429.259491,62.474144 415.499420,79.234207 395.865509,92.259766 
	C394.631470,93.078476 393.244019,93.706535 391.860321,94.251617 
	C387.249542,96.067947 382.070251,94.880592 379.168762,91.221230 
	C376.026001,87.257584 375.797363,82.741936 378.431000,78.664520 
	C380.466522,75.513092 383.399750,72.894257 386.146027,70.259796 
	C390.709564,65.882118 396.130341,62.205490 399.904419,57.253746 
	C403.397064,52.671227 406.183136,47.037434 407.516357,41.445999 
	C409.364441,33.695278 404.786957,28.245232 396.835938,27.022070 
	C386.344116,25.408039 376.179352,27.469524 366.507996,31.181496 
	C333.839844,43.719887 307.420349,64.141022 289.247406,94.400330 
	C286.552399,98.887680 284.621613,104.021713 283.289276,109.106033 
	C278.466522,127.510178 288.692169,141.302994 307.999481,142.992661 
	C324.916504,144.473160 340.703918,140.872482 355.511017,132.636917 
	C358.841156,130.784698 362.182251,128.529297 365.796600,127.749756 
	C368.507416,127.165100 372.730194,127.687599 374.337769,129.469360 
	C376.121307,131.446198 376.891693,135.851639 375.952362,138.409897 
	C374.598389,142.097549 371.304840,145.073059 368.573395,148.588715 
z"/>
</svg>