<svg version="1.1" id="Layer_1" xmlns="http://www.w3.org/2000/svg" xmlns:xlink="http://www.w3.org/1999/xlink" x="0px" y="0px"
	 width="100%" viewBox="0 0 512 512" enable-background="new 0 0 512 512" xml:space="preserve">
<path fill="#000000" opacity="1.000000" stroke="none" 
	d="
M263.224060,102.463730 
	C277.080444,72.901344 300.752441,58.203438 332.174286,54.586731 
	C339.712799,53.719032 347.128204,54.163155 354.478607,55.645222 
	C376.757538,60.137329 383.694977,74.378807 382.934326,92.315445 
	C381.460663,127.066574 356.276428,156.239685 322.349243,163.926575 
	C313.337494,165.968369 304.153168,166.258423 295.091309,164.569321 
	C265.771851,159.104263 254.734070,133.525406 261.398010,108.047020 
	C261.860260,106.279678 262.504578,104.559944 263.224060,102.463730 
M312.258331,143.762726 
	C334.579926,142.611847 357.244446,121.304657 359.598297,99.257805 
	C360.917419,86.902481 355.351501,79.192337 343.281372,76.258247 
	C337.125977,74.761971 331.078766,75.359428 324.970825,76.331131 
	C304.846832,79.532608 287.684418,95.306015 283.774933,114.251663 
	C281.035370,127.527733 286.054810,138.115204 297.039429,142.170853 
	C301.663696,143.878189 306.494568,143.896057 312.258331,143.762726 
z"/>
</svg>