<svg version="1.1" id="Layer_1" xmlns="http://www.w3.org/2000/svg" xmlns:xlink="http://www.w3.org/1999/xlink" x="0px" y="0px"
	 width="100%" viewBox="0 0 512 514" enable-background="new 0 0 512 514" xml:space="preserve">
<path fill="#FFFFFF" opacity="1.000000" stroke="none" 
	d="
M276.000000,515.000000 
	C184.022278,515.000000 92.544556,515.000000 1.033418,515.000000 
	C1.033418,343.730682 1.033418,172.461334 1.033418,1.095994 
	C171.561066,1.095994 342.122223,1.095994 512.841675,1.095994 
	C512.841675,172.333221 512.841675,343.666595 512.841675,515.000000 
	C434.127960,515.000000 355.313995,515.000000 276.000000,515.000000 
M251.547531,280.943512 
	C258.726471,282.984802 265.905396,285.026093 274.001587,287.328186 
	C259.769806,295.612885 246.393524,303.309540 233.106613,311.157471 
	C217.202164,320.551422 201.268204,329.899475 188.568161,343.721954 
	C175.992386,357.409180 173.802856,375.564484 183.300079,390.020813 
	C189.611069,399.627167 198.832901,405.538940 209.472610,408.982452 
	C240.353149,418.976868 271.067963,417.655792 301.374176,406.411987 
	C311.097748,402.804504 320.189758,397.876678 327.259918,390.027954 
	C331.505737,385.314606 331.937225,379.349518 328.779694,375.405914 
	C325.932190,371.849548 320.599823,371.203461 315.060059,374.063171 
	C310.487671,376.423462 306.110657,379.158813 301.594635,381.632294 
	C274.405304,396.524506 245.909348,398.829346 216.760468,389.025116 
	C198.027100,382.724182 194.614761,365.526764 208.672394,351.613403 
	C212.553421,347.772186 216.856750,344.209595 221.441803,341.257721 
	C231.914764,334.515106 242.718964,328.289459 253.320618,321.743683 
	C270.140869,311.358307 287.229797,301.362457 303.593201,290.296936 
	C317.174866,281.112549 329.100250,269.896423 336.435944,254.729294 
	C348.842102,229.078568 339.141174,205.471741 312.340851,195.771606 
	C294.068726,189.158173 275.761414,189.682648 257.525665,195.610443 
	C243.216934,200.261688 230.334167,207.314209 221.122421,219.720932 
	C210.962997,233.404099 208.780594,255.215729 226.733932,267.964752 
	C234.070969,273.174896 242.732117,276.520386 251.547531,280.943512 
z"/>
<path fill="#030303" opacity="1.000000" stroke="none" 
	d="
M251.169205,280.828857 
	C242.732117,276.520386 234.070969,273.174896 226.733932,267.964752 
	C208.780594,255.215729 210.962997,233.404099 221.122421,219.720932 
	C230.334167,207.314209 243.216934,200.261688 257.525665,195.610443 
	C275.761414,189.682648 294.068726,189.158173 312.340851,195.771606 
	C339.141174,205.471741 348.842102,229.078568 336.435944,254.729294 
	C329.100250,269.896423 317.174866,281.112549 303.593201,290.296936 
	C287.229797,301.362457 270.140869,311.358307 253.320618,321.743683 
	C242.718964,328.289459 231.914764,334.515106 221.441803,341.257721 
	C216.856750,344.209595 212.553421,347.772186 208.672394,351.613403 
	C194.614761,365.526764 198.027100,382.724182 216.760468,389.025116 
	C245.909348,398.829346 274.405304,396.524506 301.594635,381.632294 
	C306.110657,379.158813 310.487671,376.423462 315.060059,374.063171 
	C320.599823,371.203461 325.932190,371.849548 328.779694,375.405914 
	C331.937225,379.349518 331.505737,385.314606 327.259918,390.027954 
	C320.189758,397.876678 311.097748,402.804504 301.374176,406.411987 
	C271.067963,417.655792 240.353149,418.976868 209.472610,408.982452 
	C198.832901,405.538940 189.611069,399.627167 183.300079,390.020813 
	C173.802856,375.564484 175.992386,357.409180 188.568161,343.721954 
	C201.268204,329.899475 217.202164,320.551422 233.106613,311.157471 
	C246.393524,303.309540 259.769806,295.612885 274.001587,287.328186 
	C265.905396,285.026093 258.726471,282.984802 251.169205,280.828857 
M260.457520,216.862381 
	C255.137146,220.174210 249.180023,222.786072 244.620300,226.934052 
	C232.716690,237.762756 234.565598,249.805984 248.712860,257.280365 
	C263.189697,264.928925 279.055511,267.651917 294.983521,270.064545 
	C296.129974,270.238220 297.711243,269.839966 298.592163,269.108032 
	C306.338379,262.671936 313.137024,255.425079 316.588593,245.706436 
	C321.902771,230.743164 316.679779,219.909866 301.616699,214.801407 
	C287.946198,210.165237 274.461914,211.566345 260.457520,216.862381 
z"/>
<path fill="#FDFDFD" opacity="1.000000" stroke="none" 
	d="
M260.815125,216.714905 
	C274.461914,211.566345 287.946198,210.165237 301.616699,214.801407 
	C316.679779,219.909866 321.902771,230.743164 316.588593,245.706436 
	C313.137024,255.425079 306.338379,262.671936 298.592163,269.108032 
	C297.711243,269.839966 296.129974,270.238220 294.983521,270.064545 
	C279.055511,267.651917 263.189697,264.928925 248.712860,257.280365 
	C234.565598,249.805984 232.716690,237.762756 244.620300,226.934052 
	C249.180023,222.786072 255.137146,220.174210 260.815125,216.714905 
z"/>
</svg>