<svg version="1.1" id="Layer_1" xmlns="http://www.w3.org/2000/svg" xmlns:xlink="http://www.w3.org/1999/xlink" x="0px" y="0px"
	 width="100%" viewBox="0 0 512 512" enable-background="new 0 0 512 512" xml:space="preserve">
<path fill="#000000" opacity="1.000000" stroke="none" 
	d="
M175.249512,315.656281 
	C198.845001,323.434418 222.659515,323.714111 246.719650,321.818054 
	C273.672150,319.694092 300.090973,314.761841 326.062103,307.387207 
	C336.792633,304.340210 347.403229,300.865875 357.361877,295.702606 
	C358.692291,295.012817 360.030853,294.331177 361.315796,293.562469 
	C371.434967,287.508636 372.926575,284.475037 366.125977,275.159851 
	C357.358612,263.150696 356.734131,251.566132 363.675385,238.940048 
	C364.789429,236.913605 365.454498,234.642838 366.376678,232.506409 
	C366.565796,232.068268 366.976746,231.725891 367.229309,231.409683 
	C369.462189,231.916321 370.411865,233.579315 371.304596,235.122498 
	C383.352112,255.948212 386.373108,277.550140 376.336121,300.039978 
	C371.584259,310.687439 363.065765,317.752594 352.999207,323.185638 
	C329.409821,335.917084 303.790192,342.242004 277.749176,347.386810 
	C260.050201,350.883484 242.169617,352.662231 224.197296,352.828583 
	C204.371826,353.012054 184.572540,351.947998 165.606171,345.183014 
	C155.431107,341.553741 145.920029,336.674438 139.274338,327.827911 
	C129.883255,315.326782 129.024551,301.483673 134.089050,287.091583 
	C137.419525,277.627136 142.042160,268.768402 147.647446,260.436188 
	C148.111328,259.746643 148.598206,259.058929 149.164261,258.454529 
	C150.511520,257.015900 151.810959,255.051987 154.147415,256.630493 
	C156.375244,258.135590 155.486679,260.064545 154.503052,261.918457 
	C153.021210,264.711365 151.425369,267.455170 150.127899,270.332581 
	C142.566025,287.102509 146.827637,300.472992 162.644485,309.920837 
	C166.521545,312.236755 170.591507,314.121063 175.249512,315.656281 
z"/>
<path fill="#000000" opacity="1.000000" stroke="none" 
	d="
M247.620239,378.465698 
	C250.281082,375.172302 252.784454,375.319794 255.489105,377.850800 
	C259.252991,381.373108 263.226379,384.683258 266.838776,388.351440 
	C269.059021,390.606049 270.566681,390.455719 272.502747,388.151825 
	C275.605591,384.459473 278.927399,380.952118 282.076355,377.297333 
	C284.348145,374.660645 286.606598,374.414429 289.363892,376.647949 
	C294.031525,380.428955 298.337158,384.576782 302.498688,388.892731 
	C304.403046,390.867767 304.609924,392.901123 303.050140,395.170868 
	C299.466034,400.386444 295.628571,405.398743 291.421478,410.132751 
	C289.172394,412.663483 287.004425,412.589874 284.573853,410.394135 
	C280.870789,407.048676 276.906464,403.973572 273.384155,400.452515 
	C270.157288,397.226776 267.860107,397.142944 265.143860,401.064667 
	C262.692902,404.603333 259.642548,407.725555 256.873840,411.045837 
	C254.855881,413.465698 252.797913,413.470886 250.490585,411.386505 
	C246.416641,407.706268 242.168961,404.213104 238.188049,400.437042 
	C235.780884,398.153717 234.042221,398.377686 232.059982,400.879333 
	C229.478226,404.137573 226.634674,407.187866 224.036209,410.433655 
	C221.493423,413.609863 218.870316,414.344696 215.625641,411.414581 
	C211.554962,407.738556 207.359802,404.200439 203.283554,400.530457 
	C200.786453,398.282227 200.525497,395.787842 202.735107,393.089264 
	C206.527679,388.457397 210.277512,383.790161 214.010284,379.109863 
	C216.471039,376.024445 218.977859,376.368317 221.628967,378.835663 
	C226.115753,383.011505 230.627396,387.160645 235.595978,391.753052 
	C239.649429,387.271912 243.508881,383.005280 247.620239,378.465698 
z"/>
</svg>