<svg version="1.1" id="Layer_1" xmlns="http://www.w3.org/2000/svg" xmlns:xlink="http://www.w3.org/1999/xlink" x="0px" y="0px"
	 width="100%" viewBox="0 0 512 512" enable-background="new 0 0 512 512" xml:space="preserve">
<path fill="#000000" opacity="1.000000" stroke="none" 
	d="
M156.462021,305.541321 
	C168.007812,314.951324 181.573959,318.331726 195.439056,320.595917 
	C215.788300,323.918945 236.185333,323.153687 256.627747,320.895477 
	C285.500580,317.705933 313.774719,311.946655 341.261047,302.507996 
	C349.465576,299.690613 357.499481,296.398407 364.641815,291.356415 
	C371.033295,286.844482 371.512878,284.402344 367.773438,277.632812 
	C366.887604,276.029175 366.000854,274.424072 365.051788,272.857605 
	C356.435577,258.636505 357.195923,245.448761 367.484619,231.445999 
	C369.797211,232.121277 370.828094,234.149841 371.863525,235.977295 
	C382.473877,254.703598 385.596191,274.349579 378.517395,295.034760 
	C374.136719,307.835541 365.136932,316.647064 353.427521,322.979797 
	C329.700317,335.812012 303.947815,342.261139 277.722656,347.395782 
	C260.015930,350.862579 242.138779,352.662689 224.165649,352.828522 
	C204.338409,353.011444 184.533630,351.947845 165.572708,345.163574 
	C155.408432,341.526764 145.922714,336.650970 139.270844,327.773865 
	C129.876785,315.237244 129.049576,301.427185 134.119293,287.039642 
	C137.454422,277.574768 142.077072,268.715515 147.688416,260.387177 
	C148.337234,259.424194 149.081619,258.511688 149.875580,257.663696 
	C151.070801,256.387115 152.410141,255.361923 154.214615,256.636566 
	C155.938095,257.854004 155.734894,259.492065 154.943466,261.086578 
	C153.094070,264.812469 150.908234,268.390259 149.300491,272.213806 
	C143.828033,285.228546 146.162094,296.051270 156.462021,305.541321 
z"/>
<path fill="#000000" opacity="1.000000" stroke="none" 
	d="
M240.631012,246.436295 
	C232.947830,244.216690 227.522247,239.013428 221.880096,234.182419 
	C220.124207,232.678970 220.388809,230.570572 221.471649,228.682465 
	C224.700241,223.052963 228.286789,217.658112 232.196884,212.475616 
	C234.195389,209.826797 236.497925,210.287430 238.722717,211.917892 
	C242.608490,214.765625 246.372131,217.779800 250.194275,220.714691 
	C251.483383,221.704544 252.440323,223.216309 254.920380,223.430328 
	C258.070435,219.200058 261.537994,214.789719 264.724823,210.185120 
	C267.236786,206.555603 269.878571,205.928085 273.405914,208.727798 
	C277.439331,211.929184 281.598663,214.971848 285.698639,218.089554 
	C288.544067,220.253296 289.111115,222.874741 287.173615,225.922867 
	C284.145081,230.687531 281.083252,235.431061 278.032990,240.181900 
	C275.882599,243.531189 273.359680,243.983414 270.152222,241.462723 
	C266.101807,238.279617 261.812531,235.396973 257.809784,232.158020 
	C255.120544,229.981918 253.391922,230.228760 251.335388,233.069855 
	C248.046036,237.614029 245.450867,242.730331 240.631012,246.436295 
z"/>
<path fill="#000000" opacity="1.000000" stroke="none" 
	d="
M247.243561,377.057007 
	C249.364975,374.247223 251.662155,374.317657 254.052032,375.849304 
	C258.949188,378.987701 263.638947,382.404358 268.064667,386.199524 
	C270.569244,388.347290 270.630432,390.548492 269.114441,393.229492 
	C266.165741,398.444183 262.904816,403.437073 259.235260,408.177795 
	C257.137024,410.888519 254.883499,411.529266 252.002151,409.435669 
	C247.437134,406.118713 242.819672,402.873962 238.255981,399.555206 
	C235.489868,397.543701 235.213531,395.112518 236.951965,392.181885 
	C240.007477,387.030914 243.289246,382.044434 247.243561,377.057007 
z"/>
<path fill="#000000" opacity="1.000000" stroke="none" 
	d="
M246.290115,202.780701 
	C242.301804,199.761261 238.613770,196.940964 234.921478,194.126251 
	C232.219498,192.066483 231.839020,189.695190 233.626129,186.759628 
	C236.822632,181.508881 240.248123,176.431671 244.042435,171.590744 
	C245.798309,169.350525 247.695023,168.956940 250.074814,170.430634 
	C255.308945,173.671936 260.137970,177.447540 264.728516,181.535004 
	C266.637482,183.234772 266.679047,185.232315 265.549103,187.387039 
	C262.616699,192.978928 259.312195,198.330582 255.489334,203.366608 
	C252.286270,207.586136 249.475555,204.909836 246.290115,202.780701 
z"/>
</svg>