<svg version="1.1" id="Layer_1" xmlns="http://www.w3.org/2000/svg" xmlns:xlink="http://www.w3.org/1999/xlink" x="0px" y="0px"
	 width="100%" viewBox="0 0 512 512" enable-background="new 0 0 512 512" xml:space="preserve">
<path fill="#000000" opacity="1.000000" stroke="none" 
	d="
M296.724182,314.619293 
	C314.745575,310.841248 332.129395,306.342682 348.851776,299.605469 
	C355.033173,297.115021 361.144684,294.385223 366.309570,290.037201 
	C370.917023,286.158478 371.316132,284.055603 368.438385,278.836365 
	C366.187683,274.754425 363.758484,270.769318 361.352936,266.774750 
	C358.157867,261.469147 357.405487,255.969421 359.551086,250.056854 
	C361.855164,243.707535 364.015839,237.308823 367.076752,231.200470 
	C370.265869,232.559845 371.475403,235.045517 372.703491,237.330307 
	C382.250946,255.092056 385.237610,273.700104 379.168488,293.233978 
	C374.935577,306.857941 365.743530,316.325928 353.353760,323.014465 
	C329.768066,335.747162 304.175293,342.162445 278.137787,347.316498 
	C260.282104,350.850983 242.238693,352.655853 224.095352,352.814087 
	C204.263885,352.987061 184.459488,351.939880 165.511276,345.131531 
	C154.872971,341.308990 145.037338,336.135345 138.356110,326.510651 
	C129.884201,314.306427 129.255081,301.108856 133.960297,287.461151 
	C137.340271,277.657349 142.139053,268.513275 147.988968,259.937958 
	C148.456635,259.252380 148.989136,258.601562 149.556427,257.995300 
	C150.840759,256.622681 152.199890,255.187912 154.235519,256.660370 
	C156.161240,258.053314 155.673645,259.864410 154.700562,261.550659 
	C151.110550,267.771881 147.953125,274.063629 146.974167,281.393066 
	C145.747787,290.575073 148.402252,298.125610 155.106522,304.311188 
	C164.791077,313.246490 176.904022,316.971558 189.373428,319.504913 
	C211.273392,323.954285 233.322540,323.435364 255.446732,321.039948 
	C269.181763,319.552795 282.777863,317.392395 296.724182,314.619293 
z"/>
<path fill="#000000" opacity="1.000000" stroke="none" 
	d="
M284.693787,433.623505 
	C282.428741,437.151520 280.481415,440.457489 278.265228,443.572144 
	C274.061096,449.480804 273.337250,449.571442 267.618774,445.424744 
	C263.980743,442.786682 260.271545,440.220062 256.846405,437.323212 
	C253.906998,434.837097 252.102280,435.344696 250.142563,438.481720 
	C247.853973,442.145172 245.134933,445.538116 242.640564,449.075165 
	C240.635941,451.917633 238.256302,452.428345 235.412735,450.357239 
	C230.976105,447.125854 226.521530,443.917999 222.129807,440.626434 
	C219.687836,438.796204 218.948898,436.488495 220.509232,433.633057 
	C223.550690,428.067047 227.160126,422.879028 230.948761,417.811462 
	C232.971466,415.105927 235.430069,415.217834 237.906204,417.101898 
	C242.011520,420.225525 246.180191,423.288086 250.064560,426.672058 
	C252.636719,428.912903 254.206528,428.570526 256.011383,425.865295 
	C258.410767,422.268951 261.250336,418.962402 263.589691,415.330933 
	C266.211090,411.261658 269.091522,411.154541 272.670166,413.933289 
	C275.956268,416.484863 279.434052,418.794647 282.663605,421.412994 
	C288.673981,426.285889 288.673737,426.613708 284.693787,433.623505 
z"/>
<path fill="#000000" opacity="1.000000" stroke="none" 
	d="
M265.075745,388.444275 
	C263.550293,397.282166 258.175507,403.592682 252.851105,409.900635 
	C251.327820,411.705353 249.480026,410.840393 247.947937,409.713196 
	C243.142563,406.177582 238.369888,402.596466 233.628433,398.975525 
	C231.108292,397.050934 230.694855,394.602417 232.463669,391.986084 
	C235.896851,386.907959 239.416550,381.888000 242.928116,376.863312 
	C244.697357,374.331726 246.964752,374.162872 249.411255,375.769348 
	C254.952454,379.407867 260.512756,383.032318 265.075745,388.444275 
z"/>
</svg>