<svg version="1.1" id="Layer_1" xmlns="http://www.w3.org/2000/svg" xmlns:xlink="http://www.w3.org/1999/xlink" x="0px" y="0px"
	 width="100%" viewBox="0 0 512 512" enable-background="new 0 0 512 512" xml:space="preserve">
<path fill="#000000" opacity="1.000000" stroke="none" 
	d="
M182.903397,317.975006 
	C207.560745,324.125427 232.041168,323.569397 256.672455,320.872650 
	C284.374390,317.839661 311.517426,312.355133 337.988037,303.634003 
	C346.859680,300.711151 355.574310,297.359314 363.428619,292.184875 
	C371.204468,287.062164 371.886841,284.614014 367.260315,276.744598 
	C356.440552,258.340881 355.054169,260.325989 364.640472,236.602280 
	C365.369171,234.798935 365.594910,232.671677 367.433807,231.468979 
	C368.957581,231.687622 369.752258,232.824768 370.477325,233.912384 
	C384.029846,254.240967 387.154388,284.198517 373.165924,305.721283 
	C366.528839,315.933167 356.490997,321.788727 345.870911,326.847046 
	C322.209961,338.116852 296.990479,344.092163 271.340668,348.485840 
	C243.127258,353.318634 214.794067,354.507751 186.383942,350.330780 
	C175.971252,348.799866 165.897263,345.970642 156.401382,341.287140 
	C134.360107,330.416077 125.929863,309.713898 134.263138,286.609192 
	C137.496857,277.643402 141.851395,269.215271 147.098740,261.255646 
	C147.739227,260.284058 148.401245,259.309296 149.178421,258.449127 
	C150.500458,256.985962 151.826279,255.048141 154.157639,256.635986 
	C156.375916,258.146790 155.485733,260.070831 154.503296,261.927460 
	C152.946869,264.868835 151.272415,267.760773 149.919693,270.794800 
	C142.651672,287.096191 147.188736,300.927704 162.612381,309.971619 
	C168.849106,313.628632 175.569916,316.007690 182.903397,317.975006 
z"/>
<path fill="#000000" opacity="1.000000" stroke="none" 
	d="
M230.667267,410.394470 
	C227.218765,407.750122 224.048721,405.332947 220.926224,402.855835 
	C218.763550,401.140106 218.486816,399.089478 219.917007,396.705536 
	C223.167542,391.287231 226.531113,385.954773 230.366776,380.917023 
	C232.421906,378.217804 234.627991,378.005920 237.195984,379.906128 
	C240.800873,382.573669 244.354996,385.309814 247.931168,388.016205 
	C249.493057,389.198181 250.773758,390.811005 253.408478,391.422668 
	C256.644318,387.082733 260.130920,382.685944 263.298553,378.070251 
	C265.862457,374.334290 268.533478,374.025330 271.996429,376.750397 
	C276.043213,379.935028 280.189514,382.995789 284.343719,386.040527 
	C287.234100,388.158936 287.909332,390.528564 285.943329,393.724304 
	C282.808594,398.819824 279.871185,404.032135 276.139191,408.741211 
	C273.978973,411.466980 271.708618,411.856964 268.893219,409.676147 
	C264.689209,406.419678 260.302429,403.395325 256.157440,400.067902 
	C253.566635,397.988068 251.821976,398.391724 250.067474,401.046692 
	C247.961121,404.234070 245.701660,407.323547 243.433075,410.399811 
	C239.515488,415.712158 238.860825,415.820099 233.404404,412.328827 
	C232.565491,411.792053 231.777557,411.175659 230.667267,410.394470 
z"/>
<path fill="#000000" opacity="1.000000" stroke="none" 
	d="
M244.030273,239.008331 
	C243.609970,238.692429 243.475723,238.593979 243.343109,238.493393 
	C235.213959,232.327240 235.155136,232.239120 240.588348,223.823166 
	C242.932861,220.191559 245.537033,216.728271 247.996048,213.169724 
	C249.993744,210.278763 252.389755,209.979492 255.273743,211.846313 
	C260.168915,215.014954 264.916962,218.366776 269.295258,222.237946 
	C271.359833,224.063416 271.810120,226.031403 270.425690,228.424210 
	C267.258179,233.898819 264.031189,239.317780 259.930084,244.188034 
	C257.763916,246.760452 255.594833,246.897369 252.989975,245.108627 
	C250.110199,243.131088 247.208969,241.184738 244.030273,239.008331 
z"/>
</svg>