<svg version="1.1" id="Layer_1" xmlns="http://www.w3.org/2000/svg" xmlns:xlink="http://www.w3.org/1999/xlink" x="0px" y="0px"
	 width="100%" viewBox="0 0 512 512" enable-background="new 0 0 512 512" xml:space="preserve">
<path fill="#000000" opacity="1.000000" stroke="none" 
	d="
M382.300934,273.930481 
	C381.508575,296.916840 371.894714,313.714966 351.345947,324.152649 
	C328.077576,335.971771 303.234985,342.414948 277.840424,347.355133 
	C253.034195,352.180878 228.020874,353.786194 202.837708,352.226624 
	C186.653183,351.224274 170.777878,348.459106 156.057632,341.115570 
	C141.617325,333.911682 132.639130,322.743164 131.131485,306.285004 
	C130.528458,299.702118 131.914780,293.335785 134.053574,287.206818 
	C137.414078,277.576874 142.095215,268.560486 147.857681,260.129608 
	C148.604034,259.037659 149.503632,258.029785 150.445984,257.097992 
	C151.458542,256.096832 152.660995,255.627502 154.047668,256.496307 
	C155.592834,257.464386 155.888062,258.930908 155.210083,260.408325 
	C154.171722,262.671143 152.816940,264.786163 151.684891,267.008942 
	C141.578186,286.853607 146.209381,301.502502 165.994385,311.764771 
	C177.082764,317.516113 189.151428,320.413666 201.418121,321.472809 
	C252.559402,325.888397 301.767792,316.687317 349.668274,299.240143 
	C355.449371,297.134460 361.001678,294.340515 365.853149,290.436005 
	C370.926331,286.353058 371.368500,284.125824 368.237885,278.493439 
	C366.054047,274.564545 363.726898,270.713593 361.400513,266.866058 
	C358.204742,261.580597 357.252747,256.090973 359.530121,250.185898 
	C361.964905,243.872803 364.322449,237.529953 367.222107,229.854218 
	C377.997803,243.490082 381.860168,257.866730 382.300934,273.930481 
z"/>
<path fill="#000000" opacity="1.000000" stroke="none" 
	d="
M239.818726,418.786072 
	C236.728348,422.376282 233.541397,425.228546 229.266708,426.642761 
	C226.237000,427.645142 224.295822,427.225281 224.574966,423.440857 
	C224.636124,422.611786 224.734787,421.762207 224.625717,420.947571 
	C223.805527,414.821991 225.736603,410.841034 231.427383,407.224182 
	C243.110184,399.799103 247.673935,387.476166 250.574982,374.524078 
	C250.963745,372.788300 250.815750,370.817841 252.867004,369.951141 
	C254.937805,370.112335 255.043015,371.709839 255.409210,373.153809 
	C259.199799,388.100952 267.587952,399.549713 281.088379,407.221191 
	C285.220856,409.569458 287.037964,421.392639 283.941498,425.269653 
	C282.379364,427.225555 280.301392,426.251434 278.464691,425.467651 
	C272.053192,422.731567 268.016571,417.345581 263.968994,412.082855 
	C260.034210,406.966797 256.811768,401.360809 253.720245,394.496643 
	C250.324448,403.953705 245.860611,411.638489 239.818726,418.786072 
z"/>
</svg>