<svg version="1.1" id="Layer_1" xmlns="http://www.w3.org/2000/svg" xmlns:xlink="http://www.w3.org/1999/xlink" x="0px" y="0px"
	 width="100%" viewBox="0 0 512 512" enable-background="new 0 0 512 512" xml:space="preserve">
<path fill="#000000" opacity="1.000000" stroke="none" 
	d="
M207.065674,259.762573 
	C226.033249,260.552307 244.090164,264.660126 262.379272,267.010712 
	C274.811218,268.608551 287.302734,268.199799 299.777710,267.264099 
	C306.580261,266.753906 313.382599,266.032471 320.193848,265.914886 
	C325.396484,265.825043 326.398682,267.731842 324.457367,272.469330 
	C324.268066,272.931305 324.101471,273.403870 323.889130,273.854919 
	C316.944641,288.605225 315.715729,289.401001 297.762207,291.248688 
	C276.289185,293.458557 255.368683,297.960236 235.756958,307.254852 
	C213.521576,317.792908 193.644073,331.316132 179.408707,352.071381 
	C162.405212,376.862579 162.833649,414.500732 181.664444,436.562225 
	C193.188766,450.063660 208.062241,458.224823 224.673645,463.501526 
	C252.180328,472.239227 280.524872,473.893890 309.091156,472.506134 
	C320.859039,471.934448 332.560760,470.069946 344.307037,468.944275 
	C347.945038,468.595642 351.630768,468.687988 355.294495,468.693359 
	C356.712677,468.695435 358.554840,468.301392 359.079895,470.247589 
	C359.692047,472.516327 357.669800,472.998230 356.246582,473.685730 
	C347.544678,477.888763 338.372070,480.900085 329.300354,484.152740 
	C316.617279,488.700226 303.811127,492.868988 290.902344,496.750519 
	C277.866394,500.670349 264.814484,498.401855 251.805527,497.264618 
	C235.361618,495.827087 219.244019,492.757904 203.836121,486.392334 
	C166.230362,470.855988 150.426254,440.764313 154.266403,400.627502 
	C155.773514,384.875275 159.140350,369.798676 166.442566,355.672333 
	C179.265106,330.866791 198.497635,312.178406 221.800446,297.342438 
	C223.333389,296.366455 225.051987,295.664307 226.661362,293.198547 
	C216.554016,288.815735 205.987885,288.844269 195.634979,288.484772 
	C185.191666,288.122131 174.943695,290.513214 164.735291,292.751007 
	C163.148453,278.795959 170.146439,268.158112 183.106522,263.964722 
	C190.757538,261.489166 198.622406,260.355042 207.065674,259.762573 
z"/>
<path fill="#000000" opacity="1.000000" stroke="none" 
	d="
M254.680817,224.120087 
	C251.517105,228.375854 248.452484,232.319763 245.697830,236.469452 
	C243.703110,239.474380 241.537155,239.950882 238.616714,237.981262 
	C234.207428,235.007553 229.787582,232.067566 225.709244,228.620819 
	C222.959732,226.297119 222.319427,223.949829 224.426834,220.890640 
	C227.726334,216.100922 230.973724,211.273621 234.152374,206.403000 
	C236.060547,203.479156 238.259003,203.381363 240.822418,205.398529 
	C244.870682,208.584152 249.090942,211.584763 252.881088,215.054047 
	C255.802261,217.727936 257.439362,217.300858 259.451935,214.116760 
	C261.934601,210.188889 264.939087,206.595001 267.563568,202.751266 
	C269.497162,199.919434 271.740753,199.764557 274.344879,201.550034 
	C279.006622,204.746307 283.636963,207.976334 287.838654,211.797318 
	C290.336792,214.069077 290.880585,216.299774 288.889801,219.191864 
	C285.783173,223.704971 283.373596,228.664764 279.912811,232.968689 
	C277.527222,235.935471 275.307648,236.771454 272.058136,234.048050 
	C268.241943,230.849762 264.145294,227.977585 260.085144,225.083420 
	C258.595520,224.021576 257.165161,221.942642 254.680817,224.120087 
z"/>
</svg>