<svg version="1.1" id="Layer_1" xmlns="http://www.w3.org/2000/svg" xmlns:xlink="http://www.w3.org/1999/xlink" x="0px" y="0px"
	 width="100%" viewBox="0 0 512 512" enable-background="new 0 0 512 512" xml:space="preserve">
<path fill="#000000" opacity="1.000000" stroke="none" 
	d="
M321.729645,278.626801 
	C318.845520,287.855927 311.653015,289.326508 303.694061,290.382874 
	C286.404144,292.677734 269.021942,294.602142 252.429276,300.571533 
	C226.940277,309.741425 203.999619,322.936920 186.248291,343.736511 
	C168.036926,365.075104 162.476608,389.497009 171.213928,416.479950 
	C176.615219,433.160492 188.244690,444.799774 203.187210,453.356262 
	C221.759201,463.991180 242.197159,468.279083 263.148651,470.686035 
	C273.404053,471.864136 283.712555,472.720398 294.030701,472.581360 
	C308.506348,472.386261 322.895660,470.746674 337.283234,469.205902 
	C343.234100,468.568604 349.212036,468.165344 355.184906,467.763611 
	C357.051086,467.638092 359.112854,467.905060 359.676788,470.072327 
	C360.311279,472.510895 358.088013,473.172791 356.490021,473.821869 
	C332.884705,483.410065 308.978241,492.142120 284.219360,498.305267 
	C275.978699,500.356567 267.590790,498.752686 259.340881,498.136475 
	C241.065002,496.771454 222.989014,494.031494 205.785355,487.238983 
	C185.718048,479.315735 169.429703,467.069275 160.271393,446.881561 
	C153.833221,432.689789 152.865982,417.566467 153.801376,402.347626 
	C155.274704,378.376221 162.727356,356.442627 177.329865,337.107605 
	C189.211868,321.374725 203.528168,308.324890 220.015320,297.592957 
	C221.945404,296.336639 223.865097,295.064362 227.034119,292.981567 
	C205.376740,286.550690 184.937561,287.647736 164.532684,292.896057 
	C162.917282,280.051117 169.162628,268.997986 179.790863,264.649597 
	C195.799118,258.100067 212.321442,258.770752 228.940964,261.185120 
	C248.497528,264.026154 267.851807,268.666565 287.830383,267.646820 
	C298.126190,267.121338 308.334473,265.381012 318.691772,265.621216 
	C326.713531,265.807281 327.627625,267.137054 324.067139,274.359222 
	C323.404907,275.702423 322.641663,276.995850 321.729645,278.626801 
z"/>
<path fill="#000000" opacity="1.000000" stroke="none" 
	d="
M266.016724,410.030396 
	C256.921600,403.282928 256.921600,403.282928 250.605713,412.144226 
	C243.429932,422.211975 243.429932,422.211975 233.463730,415.041748 
	C221.369125,406.340179 221.369141,406.340149 229.637131,393.832825 
	C237.437927,382.032227 237.436203,382.034424 248.501266,390.736145 
	C251.348068,392.974945 254.209503,395.195160 257.398895,397.685181 
	C260.966736,392.891479 264.458191,388.485809 267.623779,383.857300 
	C270.169342,380.135376 272.774078,379.724854 276.273804,382.519043 
	C280.425964,385.834106 284.778168,388.897339 288.987549,392.142548 
	C291.213318,393.858490 292.056519,396.055267 290.576935,398.705109 
	C287.579041,404.074188 284.509186,409.386292 280.674683,414.239136 
	C278.366150,417.160706 276.092712,417.686218 273.125610,415.269684 
	C270.937592,413.487732 268.579193,411.914948 266.016724,410.030396 
z"/>
<path fill="#000000" opacity="1.000000" stroke="none" 
	d="
M249.904724,377.073639 
	C245.541290,373.732605 241.451309,370.615570 237.387894,367.464325 
	C235.259155,365.813446 234.685776,363.767670 236.041077,361.332458 
	C239.280441,355.511963 243.128250,350.112610 247.333145,344.955200 
	C249.046982,342.853119 251.021164,342.947632 253.076675,344.222168 
	C258.311035,347.467957 263.121613,351.282806 267.727783,355.360168 
	C269.685089,357.092804 269.598114,359.120300 268.459045,361.220367 
	C265.448669,366.770508 262.164978,372.143219 258.309265,377.163788 
	C255.582199,380.714722 252.924973,379.354492 249.904724,377.073639 
z"/>
</svg>