<svg version="1.1" id="Layer_1" xmlns="http://www.w3.org/2000/svg" xmlns:xlink="http://www.w3.org/1999/xlink" x="0px" y="0px"
	 width="100%" viewBox="0 0 512 512" enable-background="new 0 0 512 512" xml:space="preserve">
<path fill="#000000" opacity="1.000000" stroke="none" 
	d="
M296.768555,292.223663 
	C292.728088,279.614807 283.851685,271.349884 273.852356,264.223053 
	C264.310760,257.422455 253.833588,252.310791 242.416687,249.370956 
	C238.508820,248.364685 237.482574,246.123596 238.340805,242.305374 
	C239.911850,235.315704 242.005692,228.487183 244.014648,221.622223 
	C245.289398,217.266174 247.307220,216.224075 251.664200,217.854614 
	C270.719391,224.985901 285.037201,237.640030 295.215088,255.007187 
	C303.224609,268.674255 307.906799,283.352325 308.444336,299.416931 
	C309.043060,317.310608 300.544586,328.237274 284.567810,335.135345 
	C261.154266,345.244263 236.910507,347.937469 211.796600,345.451233 
	C207.248703,345.001007 206.279358,342.669800 206.899780,338.690338 
	C207.872498,332.451538 208.665756,326.184967 209.585236,319.937561 
	C210.727234,312.178314 210.845093,311.941895 218.664383,312.835785 
	C243.559570,315.681793 267.332336,310.676788 290.663666,302.678375 
	C297.678497,300.273529 298.379395,298.769135 296.768555,292.223663 
z"/>
<path fill="#000000" opacity="1.000000" stroke="none" 
	d="
M256.737793,156.712494 
	C262.892303,151.063751 268.932678,145.878723 276.532135,142.915619 
	C283.548889,140.179703 290.654358,139.080444 296.777740,144.445267 
	C303.075684,149.963043 303.567902,157.497253 301.899994,165.152466 
	C300.545502,171.369171 297.073212,176.331161 291.950256,180.226883 
	C279.747925,189.505920 265.403442,192.866852 250.736084,195.277542 
	C245.662415,196.111435 240.500992,196.431946 235.372025,196.904175 
	C226.739319,197.699005 217.410187,192.403671 213.673309,184.659012 
	C211.830048,180.838852 213.053055,179.019531 217.373596,179.196976 
	C221.691284,179.374283 226.006638,179.708359 230.324936,179.744766 
	C235.331543,179.786957 238.379013,177.082642 239.662796,172.341263 
	C242.816650,160.693375 240.554398,149.253265 238.165421,137.854935 
	C236.254471,128.737259 234.244537,119.668930 234.619263,110.244553 
	C234.783279,106.119453 235.935989,102.398727 237.950256,98.891495 
	C239.559113,96.090195 241.636139,95.489594 243.847061,98.175217 
	C246.395874,101.271263 248.297745,104.786583 249.864334,108.478294 
	C250.358292,109.642265 250.336594,110.795761 249.550217,111.786079 
	C245.369400,117.051117 245.786072,122.951614 247.340271,128.890976 
	C249.975601,138.961777 250.762680,149.182495 250.339691,159.539185 
	C250.301544,160.473358 250.436218,161.414612 250.492874,162.391113 
	C252.621704,160.459824 254.551407,158.709167 256.737793,156.712494 
M282.841064,171.333862 
	C284.881836,170.223404 286.976074,169.198685 288.944061,167.971466 
	C290.194275,167.191818 291.616425,166.197769 291.389343,164.495697 
	C291.153870,162.730438 289.409698,162.452011 288.022339,161.950226 
	C278.733124,158.590378 270.289978,160.799545 262.661835,166.360657 
	C258.278900,169.555939 253.727859,172.841034 251.034485,178.673050 
	C262.252319,177.706848 272.464417,175.864227 282.841064,171.333862 
z"/>
<path fill="#000000" opacity="1.000000" stroke="none" 
	d="
M268.565674,430.512787 
	C261.927795,440.596100 261.927765,440.596130 252.190262,433.964294 
	C239.673904,425.439911 239.645782,425.421295 247.895508,412.930908 
	C249.540833,410.439850 251.470688,408.134186 253.307709,405.772888 
	C255.317734,403.189178 255.208939,401.119202 252.358810,399.069061 
	C248.720825,396.452209 245.280182,393.553741 241.829880,390.685913 
	C239.569122,388.806854 239.340683,386.543030 240.898026,384.023987 
	C243.957977,379.074341 246.901840,374.063568 250.426437,369.402191 
	C252.607040,366.518311 254.681747,366.330109 257.624817,368.204895 
	C262.422729,371.261292 266.651306,375.019562 271.108093,378.499725 
	C273.584015,380.433105 273.630646,382.569366 272.076202,385.036652 
	C268.798676,390.238892 266.037231,395.798676 261.749512,400.305359 
	C259.017792,403.176636 259.332703,405.219269 262.777954,407.366272 
	C266.148224,409.466614 269.141663,412.167725 272.325867,414.571564 
	C275.621094,417.059265 275.894592,419.842346 273.457428,423.137482 
	C271.777313,425.409058 270.325867,427.849670 268.565674,430.512787 
z"/>
</svg>