<svg version="1.1" id="Layer_1" xmlns="http://www.w3.org/2000/svg" xmlns:xlink="http://www.w3.org/1999/xlink" x="0px" y="0px"
	 width="100%" viewBox="0 0 512 512" enable-background="new 0 0 512 512" xml:space="preserve">
<path fill="#000000" opacity="1.000000" stroke="none" 
	d="
M276.679993,306.611511 
	C282.897064,304.562744 288.926147,303.175079 294.326080,300.050903 
	C296.828033,298.603363 297.634857,296.945953 296.871674,293.933777 
	C293.536560,280.770966 284.348389,272.162537 274.021912,264.641052 
	C264.417725,257.645569 253.830521,252.322510 242.201050,249.495438 
	C238.433548,248.579590 237.128967,246.433380 237.768219,243.030487 
	C239.335373,234.688263 241.562729,226.515869 244.635300,218.582413 
	C245.835190,215.484253 247.968689,215.945419 250.341354,216.784729 
	C266.318237,222.436279 279.464752,231.905884 289.594177,245.566010 
	C301.644501,261.816559 308.546204,279.997711 308.643341,300.214844 
	C308.704254,312.887726 305.383606,324.058441 292.525940,331.009064 
	C274.957001,340.506439 256.355774,345.112335 236.711639,346.140747 
	C228.260269,346.583221 219.748169,346.810059 211.293213,345.424957 
	C208.156509,344.911133 206.451645,343.740356 206.638657,340.309814 
	C207.100906,331.830170 208.409317,323.467926 209.918701,315.131134 
	C210.436508,312.271118 212.384659,311.396027 215.081177,311.805420 
	C235.888397,314.964081 256.166290,311.795471 276.679993,306.611511 
z"/>
<path fill="#000000" opacity="1.000000" stroke="none" 
	d="
M285.484497,398.668701 
	C290.732422,401.095612 289.283417,405.546814 289.259430,409.340942 
	C289.241302,412.205048 290.545563,416.155762 287.423065,417.585297 
	C284.188385,419.066223 281.037750,416.463257 278.481171,414.377502 
	C271.149200,408.395905 265.832001,400.762634 261.275299,392.563293 
	C260.310547,390.827271 259.448853,389.033936 258.165192,386.539276 
	C255.328140,392.889160 252.823624,398.759338 249.105362,403.940857 
	C245.610764,408.810699 242.181351,413.790375 236.796875,416.825256 
	C230.928589,420.132874 229.035706,418.806641 228.610504,412.285248 
	C228.218552,406.273834 229.726593,402.455292 235.363022,398.988190 
	C246.822250,391.939392 251.651520,380.105286 254.617065,367.479065 
	C255.134125,365.277557 255.073059,362.860535 257.958313,360.321014 
	C261.337372,367.960510 262.785217,376.011108 267.532379,382.508911 
	C272.330292,389.076263 278.126556,394.427887 285.484497,398.668701 
z"/>
</svg>