<svg version="1.1" id="Layer_1" xmlns="http://www.w3.org/2000/svg" xmlns:xlink="http://www.w3.org/1999/xlink" x="0px" y="0px"
	 width="100%" viewBox="0 0 512 512" enable-background="new 0 0 512 512" xml:space="preserve">
<path fill="#000000" opacity="1.000000" stroke="none" 
	d="
M272.848785,284.982941 
	C275.489685,279.814301 277.285553,274.598022 281.684540,269.146332 
	C297.651489,297.684265 300.577179,327.024689 294.778046,358.136353 
	C299.601807,358.956146 304.430603,359.806580 309.270355,360.589325 
	C312.788727,361.158386 313.799133,362.896271 312.142334,366.147919 
	C311.388824,367.626801 310.683258,369.162384 310.217163,370.748962 
	C309.054291,374.707275 306.563049,376.056427 302.640808,374.965759 
	C302.000702,374.787750 301.341156,374.662933 300.682556,374.570923 
	C289.760406,373.045380 289.167053,373.332855 284.133484,383.024200 
	C277.540344,395.718201 268.925476,406.809113 258.372925,416.491089 
	C248.721863,425.346008 236.925980,428.060364 224.464600,429.187927 
	C208.634415,430.620300 194.176010,426.113434 180.368698,418.901245 
	C178.833176,418.099182 176.633102,417.360931 177.273285,414.994080 
	C178.045532,412.138916 180.558212,412.618988 182.676163,412.865234 
	C187.129745,413.383087 191.554504,414.157593 196.011688,414.634064 
	C208.201553,415.937012 219.387939,412.800507 230.030426,406.990326 
	C244.960114,398.839600 257.294220,387.622009 269.853424,374.310852 
	C262.268158,374.310852 256.025726,374.228851 249.786652,374.338257 
	C245.255020,374.417725 240.850845,373.780823 236.448685,372.790985 
	C232.740234,371.957092 231.490692,370.499695 233.244476,366.550842 
	C236.824127,358.490753 236.618607,358.528778 245.169571,358.681061 
	C255.660126,358.867828 266.156738,358.719360 276.646942,358.916779 
	C279.970612,358.979340 281.783417,357.580139 283.247772,354.745331 
	C287.062622,347.360199 288.060944,340.116882 284.172791,332.309692 
	C280.020813,323.972687 276.883118,315.111664 272.466034,306.931091 
	C268.398315,299.397522 268.346405,292.485535 272.848785,284.982941 
z"/>
</svg>