<svg version="1.1" id="Layer_1" xmlns="http://www.w3.org/2000/svg" xmlns:xlink="http://www.w3.org/1999/xlink" x="0px" y="0px"
	 width="100%" viewBox="0 0 512 512" enable-background="new 0 0 512 512" xml:space="preserve">
<path fill="#000000" opacity="1.000000" stroke="none" 
	d="
M209.209167,209.935211 
	C226.721252,202.653839 237.553299,208.020828 250.048630,218.973969 
	C251.180374,219.966003 252.263428,221.295273 251.416809,222.893387 
	C250.465118,224.689850 248.507263,224.205200 246.908859,224.276337 
	C229.836884,225.036057 214.247040,230.164810 200.324783,240.124146 
	C195.079788,243.876205 191.228851,248.799194 188.491913,254.673462 
	C186.554581,258.831512 187.543213,262.335968 190.847473,264.919556 
	C202.886520,274.332794 216.269852,280.039520 231.940094,278.668457 
	C236.216995,278.294250 239.747070,275.897430 243.372101,273.879852 
	C258.509338,265.454926 273.616180,256.975342 288.745392,248.536011 
	C290.170380,247.741135 291.553284,246.674988 293.382996,247.115479 
	C295.077057,249.019974 293.762115,250.571655 292.782288,252.045212 
	C287.711060,259.671570 282.571625,267.252472 277.485565,274.868988 
	C275.858368,277.305725 273.588654,278.861084 271.045074,280.231720 
	C247.508881,292.914764 224.924240,306.959045 205.793716,325.946686 
	C190.780548,340.847717 179.216827,357.830933 176.757172,379.300140 
	C173.651825,406.405151 179.770233,429.644165 207.316299,448.114044 
	C226.216919,460.787048 247.756516,465.583984 269.796021,468.710022 
	C283.672546,470.678284 297.674133,471.354889 311.652496,470.598877 
	C324.592712,469.898987 337.507751,468.562988 350.395569,467.156342 
	C355.060577,466.647156 359.711182,466.898254 364.356293,466.512604 
	C365.786987,466.393890 367.587738,466.296021 368.111877,468.170288 
	C368.746124,470.438324 366.751648,470.998230 365.313904,471.628296 
	C352.952454,477.045593 340.223724,481.498932 327.457306,485.839294 
	C315.804382,489.801025 304.301117,494.736603 292.059692,496.152344 
	C276.964050,497.898163 261.881989,495.704376 246.886108,493.465210 
	C229.224609,490.828033 212.415436,485.547333 197.305496,476.073334 
	C177.149811,463.435638 165.909882,444.872803 163.656128,421.096039 
	C159.664200,378.981720 176.136276,343.758209 200.857498,311.369873 
	C203.463608,307.955536 206.403519,304.795959 209.627350,301.001770 
	C202.241669,299.157349 195.385040,297.156464 189.339584,293.352814 
	C181.896515,288.669830 175.133865,283.398438 174.174850,273.563446 
	C173.889145,270.633392 174.244766,267.791229 175.058334,265.212036 
	C180.497589,247.968369 187.351471,231.405426 199.647812,217.683670 
	C202.338913,214.680603 205.340256,212.075455 209.209167,209.935211 
z"/>
<path fill="#000000" opacity="1.000000" stroke="none" 
	d="
M196.077911,183.968384 
	C192.063217,180.966064 188.319229,178.198792 184.621628,175.370865 
	C182.265564,173.568970 181.820877,171.323685 183.470871,168.813965 
	C186.758194,163.813812 190.144012,158.877701 193.383881,153.847336 
	C195.384796,150.740601 197.663773,150.613358 200.417404,152.749741 
	C205.511078,156.701614 210.623795,160.628952 215.923538,164.716904 
	C220.187454,160.377167 223.096069,155.537979 226.351349,150.994690 
	C229.051453,147.226242 231.654663,146.602158 235.373413,149.738251 
	C239.433182,153.161911 243.999176,155.960449 247.879333,159.646545 
	C249.729523,161.404221 250.214142,163.179413 248.913605,165.390671 
	C245.795135,170.692963 242.814224,176.077515 238.937164,180.899780 
	C236.923370,183.404541 234.980911,184.000168 232.231613,181.800369 
	C228.208145,178.581085 223.806870,175.826736 219.849960,172.533768 
	C216.690582,169.904510 214.538620,169.834335 212.335693,173.591217 
	C210.490753,176.737610 208.261337,179.671692 206.061523,182.593933 
	C202.343536,187.532944 201.605179,187.609619 196.077911,183.968384 
z"/>
</svg>