<svg version="1.1" id="Layer_1" xmlns="http://www.w3.org/2000/svg" xmlns:xlink="http://www.w3.org/1999/xlink" x="0px" y="0px"
	 width="100%" viewBox="0 0 512 512" enable-background="new 0 0 512 512" xml:space="preserve">
<path fill="#000000" opacity="1.000000" stroke="none" 
	d="
M193.481049,246.493851 
	C184.614105,259.004791 185.332733,262.813904 198.317764,270.237579 
	C207.514359,275.495361 217.241959,279.206635 228.136063,278.940887 
	C232.597992,278.832031 236.596115,277.659210 240.467850,275.479065 
	C256.435150,266.488098 272.457367,257.594482 288.479584,248.701462 
	C290.024109,247.844208 291.516907,246.562332 293.516357,247.202026 
	C294.682861,248.481873 294.149597,249.714706 293.486511,250.902908 
	C292.837708,252.065613 292.009247,253.135223 291.429138,254.328094 
	C282.631226,272.417786 267.321655,282.978210 250.182816,292.439331 
	C229.271576,303.982880 210.463074,318.656860 195.291199,337.532593 
	C178.986420,357.817841 172.824661,380.783478 177.506454,406.277679 
	C180.773895,424.070099 191.291428,437.381256 206.051788,447.460144 
	C222.801178,458.897217 241.839157,464.166199 261.485016,467.535583 
	C288.119568,472.103577 314.814850,471.514191 341.531097,467.980713 
	C348.776367,467.022430 356.102875,466.651398 363.401062,466.138733 
	C365.170929,466.014404 367.408051,465.922699 367.971588,468.189484 
	C368.574097,470.613190 366.283295,471.263824 364.704712,471.905334 
	C341.252625,481.436401 317.406494,489.830902 292.907654,496.270966 
	C285.822388,498.133514 278.621460,496.636230 271.516205,496.234253 
	C251.506348,495.102203 231.838318,492.020996 213.159393,484.277374 
	C194.728088,476.636414 179.584961,465.162781 170.673050,446.817200 
	C163.340805,431.723511 161.402328,415.577087 163.229202,399.090210 
	C167.292847,362.417145 183.240005,331.129791 207.408356,303.705597 
	C208.043427,302.984955 208.566238,302.165344 209.416809,301.021576 
	C203.577621,299.135681 197.892288,297.876099 192.732864,295.258270 
	C183.887695,290.770386 176.152512,285.315430 174.220062,274.522400 
	C173.600143,271.060089 174.193649,267.786285 175.155853,264.696259 
	C180.442093,247.720093 187.721924,231.728912 199.320282,217.990952 
	C205.747513,210.378067 214.005447,206.835587 223.870300,206.645126 
	C234.776245,206.434570 242.586349,212.640442 250.204651,219.238708 
	C251.200928,220.101578 252.102036,221.338409 251.340561,222.761887 
	C250.509308,224.315765 248.835297,224.246933 247.349777,224.273376 
	C233.758545,224.515274 221.086548,228.138474 209.144638,234.529602 
	C203.377502,237.616104 197.945953,241.124649 193.481049,246.493851 
z"/>
<path fill="#000000" opacity="1.000000" stroke="none" 
	d="
M245.121979,134.029236 
	C234.936554,149.395386 237.105576,146.725540 224.931091,137.851074 
	C213.599319,129.590866 216.208496,130.690765 209.247925,140.412506 
	C202.350983,150.045410 202.267029,150.113800 192.777130,143.248123 
	C191.700302,142.469055 190.682617,141.608246 189.638123,140.784531 
	C181.257935,134.175659 181.238037,134.162537 186.972061,125.407303 
	C188.794006,122.625404 190.684708,119.882683 192.663757,117.210777 
	C196.578094,111.926094 197.207275,111.802727 202.572083,115.846565 
	C207.064209,119.232605 211.405167,122.819199 216.382492,126.768845 
	C219.740768,122.223083 222.901321,117.831703 226.182556,113.532448 
	C230.197678,108.271591 230.737411,108.171219 236.190918,111.999947 
	C239.728622,114.483643 243.061096,117.258263 246.576553,119.775406 
	C250.229248,122.390816 250.913345,125.329636 248.151154,129.026581 
	C247.062180,130.484055 246.251801,132.149658 245.121979,134.029236 
z"/>
<path fill="#000000" opacity="1.000000" stroke="none" 
	d="
M209.729462,180.340500 
	C199.769592,172.468903 198.916672,174.138336 206.492447,162.580276 
	C215.556473,148.751587 215.669922,148.787781 228.386795,159.100922 
	C236.794891,165.919708 236.820267,165.936386 230.823151,175.063629 
	C228.995590,177.845032 226.890701,180.445190 225.083557,183.238785 
	C222.622177,187.043701 219.734833,187.219849 216.257172,184.704041 
	C214.234604,183.240860 212.109192,181.919815 209.729462,180.340500 
z"/>
</svg>