<svg version="1.1" id="Layer_1" xmlns="http://www.w3.org/2000/svg" xmlns:xlink="http://www.w3.org/1999/xlink" x="0px" y="0px"
	 width="100%" viewBox="0 0 512 512" enable-background="new 0 0 512 512" xml:space="preserve">
<path fill="#000000" opacity="1.000000" stroke="none" 
	d="
M210.626678,209.338150 
	C227.493332,203.033707 237.825821,208.285522 250.086014,219.010910 
	C251.215836,219.999283 252.289444,221.342560 251.400421,222.935196 
	C250.416855,224.697205 248.468903,224.205338 246.868973,224.276672 
	C229.795471,225.037994 214.209305,230.181564 200.293671,240.147430 
	C195.052567,243.900925 191.199142,248.826370 188.478119,254.710251 
	C186.551758,258.875793 187.575043,262.367188 190.879013,264.945312 
	C202.927292,274.346680 216.313217,280.050171 231.982285,278.660461 
	C236.255112,278.281464 239.783905,275.871857 243.408875,273.854858 
	C258.546967,265.431671 273.653351,256.951569 288.782349,248.512024 
	C290.207397,247.717072 291.591614,246.646927 293.425201,247.136215 
	C295.058289,249.056717 293.747314,250.600128 292.762573,252.079407 
	C287.687500,259.703003 282.547485,267.283264 277.461517,274.899628 
	C275.832855,277.338562 273.551971,278.878815 271.010956,280.249695 
	C247.482040,292.943604 224.901840,306.993744 205.769653,325.977142 
	C190.752136,340.877869 179.197327,357.869659 176.752136,379.338501 
	C173.661148,406.477448 179.771240,429.459534 206.931839,447.859436 
	C226.059433,460.817413 247.928940,465.673309 270.330719,468.755951 
	C283.885559,470.621185 297.546539,471.365662 311.189850,470.601715 
	C324.459381,469.858673 337.679840,468.264740 350.930817,467.151123 
	C355.570160,466.761230 360.234650,466.634369 364.890961,466.506195 
	C366.172974,466.470886 367.706268,466.520294 368.139404,468.199158 
	C368.653839,470.193085 367.063690,470.805634 365.727448,471.420563 
	C357.249115,475.322113 348.437714,478.370056 339.676117,481.549988 
	C326.997742,486.151489 314.117828,490.133759 301.307800,494.336273 
	C290.630554,497.839111 279.829529,496.804871 269.120209,496.105255 
	C251.338501,494.943573 233.795807,492.120453 216.973358,485.722992 
	C196.657242,477.996918 179.784988,466.264160 170.313889,445.982666 
	C163.377090,431.128143 161.502716,415.257233 163.259949,399.152710 
	C167.261017,362.484070 183.085434,331.125610 207.381683,303.761139 
	C208.022461,303.039459 208.570068,302.235077 209.564819,300.946259 
	C202.198029,299.186401 195.357986,297.136902 189.307693,293.337402 
	C181.857162,288.658569 175.119751,283.360504 174.163315,273.533813 
	C173.878174,270.604401 174.243378,267.760193 175.060379,265.182922 
	C180.626709,247.624054 187.591385,230.739578 200.350174,216.932388 
	C203.195724,213.853012 206.351837,211.157120 210.626678,209.338150 
z"/>
<path fill="#000000" opacity="1.000000" stroke="none" 
	d="
M205.895721,161.959534 
	C208.031418,158.954163 209.797318,156.103500 211.964218,153.599899 
	C214.292953,150.909286 213.887695,149.022125 211.150055,147.026627 
	C207.524734,144.384125 204.032761,141.557785 200.501678,138.787277 
	C198.374298,137.118134 197.742844,135.143738 199.294678,132.699265 
	C202.503220,127.645065 205.632080,122.539833 208.877533,117.509674 
	C210.887680,114.394089 213.606934,113.965820 216.524506,116.151161 
	C221.048721,119.539894 225.441040,123.104126 229.924744,126.547775 
	C232.247147,128.331467 232.148575,130.362244 230.851517,132.682495 
	C227.844986,138.060699 224.806137,143.445755 220.647141,148.016205 
	C217.868759,151.069427 217.641571,153.044479 221.562103,155.368683 
	C225.255005,157.557938 228.511841,160.491043 231.920761,163.147934 
	C234.019882,164.783981 234.737152,166.698059 233.126740,169.191727 
	C229.700439,174.497269 226.539795,179.969727 222.594803,184.938705 
	C220.736649,187.279175 218.945450,187.396652 216.653824,185.691666 
	C212.785645,182.813736 208.800507,180.092255 204.948898,177.192947 
	C199.857132,173.360046 199.656403,172.231735 202.791840,166.920364 
	C203.721603,165.345367 204.730072,163.816833 205.895721,161.959534 
z"/>
</svg>