<svg version="1.1" id="Layer_1" xmlns="http://www.w3.org/2000/svg" xmlns:xlink="http://www.w3.org/1999/xlink" x="0px" y="0px"
	 width="100%" viewBox="0 0 512 512" enable-background="new 0 0 512 512" xml:space="preserve">
<path fill="#000000" opacity="1.000000" stroke="none" 
	d="
M313.045105,301.908813 
	C334.361481,295.009583 354.968719,287.456512 373.455750,275.183136 
	C386.530823,266.502655 386.703461,265.608521 379.677917,251.657410 
	C378.879425,250.071854 378.500610,248.162048 376.354980,246.849442 
	C372.599884,251.131348 369.256592,255.837051 365.061646,259.805511 
	C356.505890,267.899323 347.763947,269.627716 337.706635,264.765533 
	C328.331940,260.233368 322.828064,250.816025 324.550079,240.095169 
	C327.535034,221.511154 336.090912,205.486038 349.279144,192.138428 
	C355.702820,185.637115 363.526855,186.529694 370.662537,194.143066 
	C376.744415,200.632095 381.179108,208.212418 384.420044,216.546402 
	C391.038483,233.565552 394.153564,251.181030 392.055420,269.299774 
	C389.817871,288.622070 378.028778,300.945892 360.747467,308.758331 
	C329.376923,322.940186 296.868744,333.520905 263.009644,339.778442 
	C237.911652,344.416748 212.603531,347.096100 187.059067,345.201050 
	C171.644058,344.057526 156.902512,339.886810 143.541260,331.933777 
	C125.550453,321.225067 118.293755,302.381195 123.047256,280.515350 
	C125.672302,268.440247 130.818069,257.569366 137.940750,247.559921 
	C138.133392,247.289215 138.301865,246.973648 138.558060,246.780258 
	C140.417511,245.376678 141.832306,241.627930 144.428894,243.501953 
	C147.050476,245.394012 144.266495,248.042542 143.059921,249.984680 
	C137.940567,258.224915 135.188370,267.209534 134.412659,276.795013 
	C133.259384,291.045990 138.389557,299.577362 152.927948,306.665985 
	C166.383926,313.226837 180.857590,316.499207 195.693481,317.667816 
	C235.772766,320.824768 274.540863,313.718933 313.045105,301.908813 
M355.333710,222.039307 
	C352.929840,220.800476 350.291565,220.454651 347.685486,219.916504 
	C344.964630,219.354660 342.684479,219.886292 340.983734,222.075714 
	C339.111786,224.485641 338.574524,227.326813 339.866119,230.068542 
	C341.418823,233.364517 344.167572,235.605743 347.748047,236.478897 
	C351.680511,237.437866 358.373383,234.060272 359.970734,230.376556 
	C361.770538,226.225891 358.691864,224.365662 355.333710,222.039307 
z"/>
<path fill="#000000" opacity="1.000000" stroke="none" 
	d="
M318.411255,392.754639 
	C314.383423,389.753326 310.699829,386.906616 306.934235,384.172821 
	C304.161469,382.159821 303.509918,379.964691 305.561798,376.989349 
	C308.864349,372.200531 312.029205,367.316010 315.214386,362.447205 
	C317.194183,359.420898 319.476929,359.135437 322.300415,361.347595 
	C327.254333,365.228851 332.273285,369.027100 337.615509,373.129242 
	C341.597351,369.589447 344.268616,364.820923 347.474091,360.512177 
	C351.682617,354.855042 351.944397,354.795685 357.632721,358.792755 
	C361.714600,361.661102 365.830383,364.461853 369.557343,367.807892 
	C371.622284,369.661804 372.123871,371.708527 370.679199,374.000519 
	C367.579315,378.918762 364.374451,383.771820 361.158295,388.615540 
	C358.915833,391.992828 356.249146,392.034210 353.160492,389.626556 
	C348.970032,386.359985 344.588409,383.334564 340.460632,379.993378 
	C338.179413,378.146881 336.647034,378.608307 335.128845,380.769592 
	C332.740875,384.169006 330.105194,387.417389 327.978729,390.971619 
	C325.471893,395.161621 322.628052,396.112854 318.411255,392.754639 
z"/>
</svg>