<svg version="1.1" id="Layer_1" xmlns="http://www.w3.org/2000/svg" xmlns:xlink="http://www.w3.org/1999/xlink" x="0px" y="0px"
	 width="100%" viewBox="0 0 512 512" enable-background="new 0 0 512 512" xml:space="preserve">
<path fill="#000000" opacity="1.000000" stroke="none" 
	d="
M392.494141,261.638062 
	C392.480194,285.239471 380.339294,299.915314 359.979675,309.043823 
	C321.150238,326.453552 280.797180,338.418610 238.448303,343.271179 
	C222.083527,345.146301 205.683487,346.617096 189.178253,345.385773 
	C174.238022,344.271179 159.942612,340.718597 146.677048,333.636139 
	C126.449493,322.836792 118.013268,304.138000 122.921593,281.081238 
	C125.484352,269.042664 130.301788,257.961853 137.678238,248.049500 
	C138.175232,247.381638 138.608398,246.639084 139.210770,246.082169 
	C140.701111,244.704208 142.042694,241.946228 144.439072,243.779053 
	C146.458817,245.323837 144.864182,247.504669 143.749222,249.106445 
	C137.439468,258.171143 135.150330,268.468445 134.362320,279.234344 
	C133.484863,291.222198 139.305725,299.618164 152.589188,306.299530 
	C166.824173,313.459534 182.082153,316.599213 197.749115,317.865906 
	C222.309799,319.851654 246.571594,316.888794 270.685303,312.505280 
	C290.365631,308.927704 309.592316,303.601166 328.354584,296.678650 
	C344.303040,290.794342 360.021179,284.357178 374.172455,274.722443 
	C386.297211,266.467438 386.818054,264.064850 379.681671,251.279572 
	C378.893494,249.867477 378.314819,248.220581 376.172394,247.281723 
	C372.580475,250.817093 369.838989,255.207672 366.144897,258.756500 
	C356.463409,268.057281 347.037598,270.075684 336.797668,264.311615 
	C325.291718,257.834930 322.521210,247.494324 325.261414,235.522461 
	C328.748474,220.287415 335.894470,206.486115 346.506042,194.738235 
	C354.729797,185.633835 362.974976,185.466171 371.168854,194.708481 
	C381.730499,206.621429 386.912659,221.142456 390.303253,236.417847 
	C392.115326,244.581512 392.722534,252.854980 392.494141,261.638062 
M340.717651,222.364578 
	C338.087524,228.392197 340.107239,233.346420 346.269714,235.983231 
	C350.688995,237.874176 358.372955,234.575836 360.225800,230.047913 
	C360.716095,228.849731 360.499634,227.829651 360.004150,226.719055 
	C357.411224,220.906754 346.422363,218.010773 340.717651,222.364578 
z"/>
<path fill="#000000" opacity="1.000000" stroke="none" 
	d="
M360.510437,397.421753 
	C375.561218,409.022339 374.268768,405.937714 364.835297,421.071869 
	C358.924438,430.554596 358.748505,430.457489 349.922211,423.943695 
	C347.376862,422.065216 344.705322,420.308655 342.402405,418.162750 
	C339.230957,415.207550 336.994446,415.118988 334.607208,419.146515 
	C332.410126,422.853241 329.616821,426.210205 327.040070,429.687073 
	C325.100098,432.304749 322.791809,432.607788 320.159698,430.651855 
	C315.888184,427.477661 311.553101,424.387482 307.325806,421.155945 
	C304.707703,419.154480 304.068573,416.810150 306.152924,413.829163 
	C309.106567,409.604980 311.662811,405.101440 314.645691,400.899597 
	C318.098541,396.035675 319.492432,395.869873 324.391663,399.492493 
	C327.868530,402.063324 331.352783,404.679169 334.487701,407.641205 
	C337.361603,410.356689 339.263550,409.829224 341.251282,406.804901 
	C342.895630,404.303009 344.730103,401.925812 346.487793,399.498779 
	C352.049774,391.818787 352.156067,391.802216 360.510437,397.421753 
z"/>
<path fill="#000000" opacity="1.000000" stroke="none" 
	d="
M337.054138,358.783234 
	C340.864410,361.785919 344.362701,364.596802 347.847900,367.423859 
	C350.011017,369.178467 350.165833,371.258331 348.885803,373.629456 
	C346.114685,378.762634 342.970123,383.649689 339.491852,388.332092 
	C337.303375,391.278198 334.869598,391.841919 331.866913,389.510376 
	C327.538513,386.149323 323.147491,382.869049 318.808014,379.522095 
	C316.437836,377.693970 316.185913,375.445251 317.651093,372.912292 
	C320.739960,367.572418 324.315063,362.566559 328.147919,357.745087 
	C331.408630,353.643372 333.974670,357.274475 337.054138,358.783234 
z"/>
</svg>