<svg version="1.1" id="Layer_1" xmlns="http://www.w3.org/2000/svg" xmlns:xlink="http://www.w3.org/1999/xlink" x="0px" y="0px"
	 width="100%" viewBox="0 0 512 512" enable-background="new 0 0 512 512" xml:space="preserve">
<path fill="#000000" opacity="1.000000" stroke="none" 
	d="
M270.436981,206.429550 
	C263.707764,212.644287 264.033386,214.996948 272.163177,219.302032 
	C283.488068,225.299088 295.235229,230.589661 305.298462,238.707275 
	C320.876770,251.273727 334.242096,265.673187 338.585907,285.929260 
	C342.548920,304.409607 341.405182,318.914703 323.549622,330.671997 
	C316.835815,335.092773 309.414886,338.078888 301.694550,340.328796 
	C279.786285,346.713470 257.233307,348.148407 234.619186,349.453552 
	C217.135605,350.462616 199.639999,350.750946 182.183182,350.037323 
	C166.436157,349.393616 150.689087,348.171173 135.567795,342.659454 
	C116.795433,335.816986 109.007011,321.938873 107.962448,303.766846 
	C107.032539,287.589600 112.173073,272.254639 116.968971,257.016846 
	C117.581665,255.070175 118.408775,252.280472 121.237030,253.123291 
	C123.940933,253.929062 123.192772,256.497406 122.827866,258.665344 
	C121.919075,264.064545 120.253532,269.291626 120.032135,274.859741 
	C119.268677,294.061279 127.124359,306.078583 145.148010,312.843292 
	C159.381119,318.185333 174.271408,319.492798 189.267563,320.079926 
	C221.579819,321.345001 253.886475,319.917603 286.194580,319.674530 
	C296.533234,319.596741 306.704987,317.767029 316.460663,314.107788 
	C317.551361,313.698639 318.664429,313.300140 319.674194,312.731659 
	C333.215820,305.107758 333.666168,299.896637 326.232971,290.020660 
	C315.429199,275.666443 302.417755,263.545319 286.274567,255.187195 
	C278.894043,251.365906 271.098663,248.347717 264.189148,243.615204 
	C258.521606,239.733368 255.747162,234.331253 255.655746,227.551651 
	C255.574844,221.553375 255.646286,215.552795 255.677933,209.553360 
	C255.711746,203.143799 258.237732,198.151505 263.434113,194.159424 
	C283.009247,179.120956 304.993866,168.365387 327.161346,157.933685 
	C355.390991,144.649216 385.159637,135.406006 414.462616,124.945129 
	C415.554901,124.555191 416.713623,124.352936 417.838287,124.051720 
	C419.185425,123.690918 420.547882,123.558617 421.519043,124.761055 
	C422.617065,126.120560 421.618439,127.355652 420.879608,128.378448 
	C417.612823,132.900620 415.653656,138.055023 413.914795,143.245468 
	C412.270538,148.153458 409.104858,150.768433 404.253723,152.329742 
	C370.334869,163.246414 336.768982,175.149902 303.987366,189.164261 
	C292.508972,194.071365 281.126129,199.200989 270.436981,206.429550 
z"/>
<path fill="#000000" opacity="1.000000" stroke="none" 
	d="
M255.998260,148.781433 
	C253.365860,146.429230 253.191101,144.074722 254.680908,141.374222 
	C257.497955,136.267929 260.891724,131.563248 264.465057,126.976791 
	C266.556458,124.292419 268.873138,123.935425 271.793640,125.889473 
	C276.213745,128.846848 280.589386,131.832748 284.597015,135.350281 
	C287.072876,137.523331 287.728912,139.693390 285.897736,142.725845 
	C282.890747,147.705597 279.755096,152.563385 276.124573,157.124054 
	C274.037781,159.745499 271.896454,160.069275 269.274292,158.230743 
	C264.929535,155.184402 260.604889,152.109344 255.998260,148.781433 
z"/>
</svg>