<svg version="1.1" id="Layer_1" xmlns="http://www.w3.org/2000/svg" xmlns:xlink="http://www.w3.org/1999/xlink" x="0px" y="0px"
	 width="100%" viewBox="0 0 512 512" enable-background="new 0 0 512 512" xml:space="preserve">
<path fill="#000000" opacity="1.000000" stroke="none" 
	d="
M256.417358,232.989014 
	C254.970215,223.970352 255.467850,215.304733 255.956009,206.677628 
	C256.251953,201.447433 259.153564,197.486298 263.380859,194.236130 
	C283.081543,179.089127 305.229187,168.285126 327.548096,157.783630 
	C355.626434,144.572205 385.236816,135.391586 414.377930,124.980324 
	C415.470093,124.590134 416.630249,124.392891 417.753021,124.085007 
	C419.091949,123.717857 420.451385,123.536072 421.463623,124.701111 
	C422.620880,126.032982 421.664337,127.286331 420.914795,128.307800 
	C417.409332,133.084930 415.536377,138.638016 413.545441,144.085480 
	C412.027954,148.237610 409.385529,150.640503 405.264679,151.954620 
	C378.626068,160.449478 352.262787,169.731079 326.257324,180.008850 
	C309.386383,186.676498 292.558899,193.453369 276.710480,202.390717 
	C273.658051,204.112061 270.643463,205.894241 268.182251,208.439545 
	C264.478699,212.269608 264.423187,214.448730 268.962189,217.163528 
	C276.240204,221.516556 283.925781,225.181931 291.286865,229.403427 
	C309.284149,239.724655 323.953735,253.445084 333.695007,271.992218 
	C339.102997,282.288940 340.918365,293.418488 340.076416,304.882660 
	C339.184631,317.025574 332.268616,325.475098 322.162659,331.560547 
	C310.719025,338.451508 298.060150,341.965576 285.061432,344.260651 
	C250.963989,350.280975 216.505493,350.884125 182.045914,350.024567 
	C166.473785,349.636108 150.896408,348.159332 135.916870,342.786591 
	C116.626419,335.867706 109.126244,321.930054 107.976631,304.144287 
	C106.920143,287.799225 112.144646,272.301605 117.010620,256.910950 
	C117.630211,254.951233 118.527237,252.185883 121.339233,253.141251 
	C123.949440,254.028061 123.177956,256.593689 122.806602,258.767761 
	C121.884880,264.164032 120.239090,269.394775 120.026527,274.963104 
	C119.294571,294.137604 127.176468,306.102905 145.241409,312.874054 
	C159.317139,318.149994 174.038193,319.482117 188.860748,320.076324 
	C221.501907,321.384857 254.139282,319.930023 286.776947,319.660095 
	C296.938049,319.576111 306.946838,317.705231 316.534668,314.083832 
	C317.780243,313.613373 319.080231,313.205627 320.213165,312.530762 
	C332.608948,305.146912 333.841583,300.207581 326.504120,290.366028 
	C315.665375,275.828278 302.526672,263.601318 286.230927,255.160370 
	C279.438385,251.641922 272.527435,248.345078 265.810425,244.690079 
	C261.282501,242.226242 258.009033,238.491898 256.417358,232.989014 
z"/>
<path fill="#000000" opacity="1.000000" stroke="none" 
	d="
M316.638123,116.322372 
	C319.709778,112.190926 322.663696,108.378174 325.441772,104.441330 
	C327.611176,101.367065 330.201630,100.905930 333.113831,103.029991 
	C337.542603,106.260231 341.874390,109.628410 346.161804,113.045341 
	C348.164001,114.641060 348.839966,116.545555 347.520477,119.170967 
	C344.741364,124.700470 341.243042,129.741562 337.596741,134.692764 
	C335.678314,137.297791 333.343292,137.545349 330.720886,135.536621 
	C326.631134,132.403900 322.370789,129.484177 318.393250,126.217834 
	C315.324371,123.697701 313.237335,124.075920 311.143250,127.380981 
	C309.010590,130.747009 306.480042,133.858154 304.245941,137.163513 
	C302.072357,140.379364 299.521271,141.159912 296.284393,138.782104 
	C292.133514,135.732895 287.964752,132.706573 283.864746,129.590073 
	C281.058014,127.456619 280.430573,124.926720 282.567841,121.824966 
	C285.397217,117.718765 287.958252,113.425980 290.829987,109.351021 
	C294.325409,104.391052 295.972412,104.154633 300.999054,107.902023 
	C304.593689,110.581879 307.975830,113.545479 311.481323,116.346756 
	C313.046936,117.597839 314.663757,119.163994 316.638123,116.322372 
z"/>
<path fill="#000000" opacity="1.000000" stroke="none" 
	d="
M309.752075,98.662827 
	C304.598846,95.510315 300.166840,92.034836 295.779694,88.479347 
	C292.782196,86.050087 292.266052,83.526291 294.547821,80.345352 
	C297.641052,76.033142 300.698395,71.690971 303.626251,67.265770 
	C305.724701,64.094154 308.188477,63.847855 311.257416,65.698586 
	C316.119293,68.630508 320.279999,72.461441 324.647980,76.025658 
	C326.480652,77.521103 326.499817,79.337761 325.495178,81.384972 
	C322.779236,86.919411 319.479401,92.082268 315.699188,96.935432 
	C314.296234,98.736641 312.543732,99.932358 309.752075,98.662827 
z"/>
</svg>