<svg version="1.1" id="Layer_1" xmlns="http://www.w3.org/2000/svg" xmlns:xlink="http://www.w3.org/1999/xlink" x="0px" y="0px"
	 width="100%" viewBox="0 0 512 512" enable-background="new 0 0 512 512" xml:space="preserve">
<path fill="#000000" opacity="1.000000" stroke="none" 
	d="
M315.321167,247.668488 
	C329.604340,262.376617 340.204010,278.395752 340.411346,299.596527 
	C340.548615,313.630737 334.334167,323.845337 322.804016,331.127289 
	C311.351685,338.360168 298.504517,341.899872 285.350159,344.233185 
	C251.765778,350.190430 217.818237,350.773560 183.857559,350.145630 
	C169.411072,349.878540 154.992798,348.445526 140.945435,344.459534 
	C115.627235,337.275421 106.587257,320.300140 108.170525,294.979126 
	C108.948914,282.530457 112.592567,270.486237 116.420677,258.601166 
	C116.675568,257.809814 116.875610,256.982483 117.257996,256.254242 
	C118.095947,254.658386 118.839478,252.531006 121.157906,253.186264 
	C123.680313,253.899185 123.446312,256.231293 123.099861,258.202850 
	C122.468193,261.797485 121.680321,265.367645 120.862198,268.926056 
	C115.737381,291.216309 127.610634,307.107239 146.898300,313.508850 
	C160.088547,317.886719 173.740265,319.183319 187.606674,319.924530 
	C210.753983,321.161865 233.910385,321.081085 257.015381,320.412201 
	C272.416473,319.966309 288.006927,321.122101 303.276093,317.713440 
	C310.270508,316.152008 317.274933,314.657959 323.451508,310.774261 
	C331.567688,305.671051 333.260651,300.251312 327.755035,292.412231 
	C316.912140,276.973572 303.397461,264.250061 286.553711,255.386536 
	C280.957733,252.441833 275.336395,249.514877 269.567688,246.935287 
	C257.423370,241.504715 254.480438,231.159805 255.193512,219.362717 
	C255.491531,214.432281 255.103561,209.377609 256.455627,204.477814 
	C257.508362,200.662766 259.244873,197.559296 262.458313,195.044601 
	C286.444519,176.274246 313.891296,163.820099 341.487549,151.675552 
	C365.128998,141.271423 389.896149,133.880661 414.127075,125.052505 
	C414.905670,124.768837 415.737030,124.632729 416.537842,124.406708 
	C418.292847,123.911377 420.242950,123.012756 421.577057,124.885376 
	C422.823181,126.634453 421.151825,128.014114 420.279999,129.312042 
	C417.555176,133.368530 415.774048,137.845734 414.309753,142.447433 
	C412.733368,147.401428 409.822571,150.600327 404.645325,152.234497 
	C372.902496,162.253937 341.602539,173.526962 310.835297,186.241623 
	C297.912170,191.582138 285.049103,197.097565 273.195129,204.628204 
	C269.867188,206.742386 265.458130,208.801727 265.671692,213.175934 
	C265.865967,217.155807 270.458954,218.419739 273.613739,219.989853 
	C288.572235,227.434586 303.226593,235.279251 315.321167,247.668488 
z"/>
<path fill="#000000" opacity="1.000000" stroke="none" 
	d="
M289.299011,440.220764 
	C286.683197,444.058533 284.008240,444.105988 280.753448,441.474792 
	C276.876709,438.340790 272.684967,435.594879 268.828094,432.438477 
	C266.054657,430.168701 264.204895,430.717102 262.322693,433.478363 
	C259.797791,437.182556 257.114929,440.780273 254.457596,444.392609 
	C252.560028,446.972107 250.311615,447.298309 247.551590,445.580139 
	C242.880768,442.672394 238.455200,439.452942 234.282928,435.872650 
	C232.040085,433.948059 231.779160,431.774506 233.174042,429.211029 
	C236.046097,423.932800 239.591858,419.113983 243.065247,414.233704 
	C245.048187,411.447571 247.198898,411.146271 249.798340,413.124481 
	C253.766037,416.143890 257.889954,418.997803 261.581818,422.327484 
	C264.639313,425.085022 266.547974,424.602295 268.736816,421.427368 
	C271.468750,417.464630 274.531189,413.730957 277.408691,409.866943 
	C279.020508,407.702545 280.878845,407.516632 283.010895,408.994019 
	C287.793518,412.308044 292.622223,415.554810 296.976013,419.450165 
	C299.526611,421.732147 299.758423,424.147308 297.907135,426.955261 
	C295.071075,431.256866 292.304413,435.604218 289.299011,440.220764 
z"/>
<path fill="#000000" opacity="1.000000" stroke="none" 
	d="
M267.784485,376.158997 
	C279.011322,384.563385 279.011322,384.563385 271.941010,395.962555 
	C264.219330,408.411926 264.219360,408.411896 252.445969,399.554443 
	C242.312057,391.930420 242.177399,391.060181 249.547211,380.608612 
	C250.121262,379.794525 250.734970,379.008301 251.333725,378.211761 
	C258.278442,368.972809 258.278625,368.972961 267.784485,376.158997 
z"/>
</svg>