<svg version="1.1" id="Layer_1" xmlns="http://www.w3.org/2000/svg" xmlns:xlink="http://www.w3.org/1999/xlink" x="0px" y="0px"
	 width="100%" viewBox="0 0 512 512" enable-background="new 0 0 512 512" xml:space="preserve">
<path fill="#000000" opacity="1.000000" stroke="none" 
	d="
M301.977997,268.153412 
	C309.939362,280.160248 308.238251,292.122101 303.218689,304.203003 
	C301.838593,307.524536 299.247528,308.232910 295.968018,308.247375 
	C284.984100,308.295807 273.999146,307.925354 263.032166,309.243896 
	C251.776917,310.597168 241.180405,313.778595 231.615448,319.850616 
	C220.369476,326.989777 217.064774,335.240204 219.872543,348.332458 
	C227.745773,385.044312 235.583359,421.764282 243.657867,458.431976 
	C245.109314,465.023315 243.600464,470.940887 241.526382,476.948700 
	C240.982376,478.524445 240.411682,480.481323 238.443771,480.430450 
	C236.029816,480.368011 235.983795,478.103149 235.700424,476.328247 
	C233.286972,461.212128 229.771530,446.336212 226.108917,431.485046 
	C221.012939,410.821869 215.582703,390.244690 211.123505,369.419525 
	C206.426819,347.485168 210.232483,326.420319 216.814911,305.623016 
	C219.631042,296.725433 226.373215,291.001892 234.582336,286.918640 
	C242.218521,283.120392 250.324738,280.581146 258.376282,277.887543 
	C259.926178,277.369019 261.463745,276.813507 263.034576,276.265442 
	C259.696960,269.834625 249.236679,267.182373 243.070999,271.088593 
	C239.560577,273.312622 236.305908,275.965149 232.695526,277.997406 
	C230.434921,279.269867 227.521927,280.399994 225.205658,278.275970 
	C223.053070,276.302032 224.838806,273.906219 225.538162,271.787415 
	C228.267975,263.517212 231.749527,255.626785 237.396469,248.853226 
	C247.940582,236.205460 265.132751,233.933502 278.601898,243.346298 
	C288.020233,249.928253 295.825989,257.999725 301.977997,268.153412 
z"/>
<path fill="#000000" opacity="1.000000" stroke="none" 
	d="
M250.203430,360.465576 
	C252.089600,351.766632 257.740997,345.619354 262.999359,339.280884 
	C264.355896,337.645721 266.437714,338.458588 268.055542,339.458282 
	C273.154358,342.609039 277.957306,346.172119 282.491547,350.092743 
	C284.570953,351.890808 284.766083,354.029816 283.506653,356.370026 
	C280.507172,361.943329 277.144562,367.274292 273.051910,372.126465 
	C271.326599,374.171967 269.369720,374.990570 266.960144,373.399963 
	C261.152374,369.566040 254.982651,366.202759 250.203430,360.465576 
z"/>
</svg>