<svg version="1.1" id="Layer_1" xmlns="http://www.w3.org/2000/svg" xmlns:xlink="http://www.w3.org/1999/xlink" x="0px" y="0px"
	 width="100%" viewBox="0 0 512 512" enable-background="new 0 0 512 512" xml:space="preserve">
<path fill="#000000" opacity="1.000000" stroke="none" 
	d="
M204.084717,308.059631 
	C201.096176,316.759125 198.518692,325.059753 198.086884,334.067108 
	C197.359665,349.236389 204.251419,359.441681 217.058578,366.424652 
	C230.786972,373.909943 245.395996,375.358154 260.632874,372.974518 
	C274.394379,370.821686 287.519287,366.772980 299.857330,360.288330 
	C315.303680,352.170013 319.977478,341.891724 316.168671,324.825928 
	C312.654022,309.078217 305.689240,294.709869 298.538116,280.411774 
	C296.675568,276.687775 294.911774,272.905151 292.858673,269.287933 
	C289.974304,264.206085 290.006592,259.130981 292.442017,253.992111 
	C294.898315,248.809204 296.213654,243.010376 300.437744,238.427948 
	C303.636719,241.006042 304.919067,244.576965 306.462585,247.702133 
	C319.048218,273.184509 327.016113,299.823578 327.315186,328.592163 
	C327.729462,368.445343 295.039673,401.008636 257.831451,404.509369 
	C241.891754,406.009033 226.602844,405.327423 212.149002,397.841919 
	C193.494217,388.180786 184.380035,369.676178 186.277786,348.461151 
	C187.863693,330.732513 194.259415,314.582336 201.969727,298.820862 
	C202.408325,297.924255 202.896255,297.048309 203.413849,296.194641 
	C204.413254,294.546204 205.622864,292.948425 207.776077,294.190033 
	C209.646973,295.268860 209.053024,296.977386 208.316101,298.588654 
	C206.931534,301.615967 205.598755,304.666992 204.084717,308.059631 
z"/>
<path fill="#000000" opacity="1.000000" stroke="none" 
	d="
M222.456818,145.687729 
	C225.752640,144.109558 227.918869,146.218765 230.000107,147.583832 
	C239.666168,153.923721 247.394394,161.980469 251.411118,173.110199 
	C251.909134,174.490143 252.556213,175.816299 253.315811,177.591766 
	C258.122742,162.089767 267.096008,150.734192 281.429413,143.567932 
	C284.776123,151.009781 282.914856,157.868851 277.709808,162.500473 
	C267.766724,171.348221 259.364563,181.340347 256.110321,194.760117 
	C255.719406,196.372208 256.016113,199.023193 253.682312,199.188889 
	C251.049881,199.375778 250.994568,196.555801 250.413239,194.855820 
	C245.439682,180.312027 236.992905,168.566406 223.483398,160.806244 
	C221.528854,159.683517 220.601776,158.017761 220.839035,155.840927 
	C221.198044,152.546875 221.722107,149.270798 222.456818,145.687729 
z"/>
<path fill="#000000" opacity="1.000000" stroke="none" 
	d="
M243.965332,243.073425 
	C235.348801,236.315506 235.308609,236.288498 241.174133,227.559418 
	C243.488724,224.114822 246.090454,220.864151 248.441742,217.442917 
	C250.098145,215.032761 251.945312,214.697876 254.351151,216.282562 
	C259.351807,219.576370 264.254730,222.990280 268.735748,226.984375 
	C270.565338,228.615143 271.248962,230.229691 269.845551,232.609833 
	C266.718811,237.912598 263.607178,243.206757 259.725159,248.014221 
	C257.745331,250.466049 255.711151,251.224518 252.928116,249.149017 
	C250.133530,247.064941 247.156555,245.225433 243.965332,243.073425 
z"/>
</svg>