<svg version="1.1" id="Layer_1" xmlns="http://www.w3.org/2000/svg" xmlns:xlink="http://www.w3.org/1999/xlink" x="0px" y="0px"
	 width="100%" viewBox="0 0 512 512" enable-background="new 0 0 512 512" xml:space="preserve">
<path fill="#000000" opacity="1.000000" stroke="none" 
	d="
M296.730164,346.407043 
	C291.370850,375.180389 278.487762,399.447449 256.336639,417.964203 
	C241.301865,430.532227 222.965942,430.940918 204.564514,427.925964 
	C195.987350,426.520630 188.010452,422.941132 180.328583,418.873901 
	C178.798737,418.063965 176.628250,417.353210 177.276001,414.947174 
	C177.969910,412.369629 180.239212,412.580139 182.228622,412.817535 
	C186.683548,413.349060 191.107635,414.159912 195.569107,414.611511 
	C206.448761,415.712646 216.807236,413.836334 226.506104,408.703156 
	C249.686707,396.434723 268.441467,379.422211 282.061584,356.886108 
	C287.159637,348.450836 288.234772,340.014221 283.654633,330.840637 
	C278.897369,321.312225 274.850830,311.431213 270.362244,301.765289 
	C268.701172,298.188293 268.534241,294.775238 270.227966,291.215973 
	C273.088898,285.203827 275.869385,279.153320 278.749084,273.150269 
	C279.304413,271.992676 279.817871,270.639221 282.192627,270.328888 
	C296.017151,293.683289 299.015930,319.303650 296.730164,346.407043 
z"/>
<path fill="#000000" opacity="1.000000" stroke="none" 
	d="
M288.541290,219.442444 
	C300.408997,228.316711 300.408997,228.316711 292.582397,240.335281 
	C284.884735,252.155853 284.768738,252.178436 273.441895,244.063492 
	C262.349884,236.116760 262.299591,235.952820 269.820129,224.497223 
	C271.641602,221.722717 273.518524,218.958542 275.638489,216.413300 
	C277.816681,213.798172 277.811981,212.005035 274.797455,209.987778 
	C271.215027,207.590469 267.933441,204.742310 264.531677,202.076553 
	C262.058228,200.138290 261.606659,197.870331 263.208649,195.082611 
	C266.276611,189.743759 269.427582,184.472809 273.153564,179.549454 
	C275.130188,176.937668 277.233673,176.512115 279.994324,178.242035 
	C285.085022,181.432053 289.788239,185.112961 294.303986,189.060806 
	C296.590881,191.060074 296.674011,193.252533 295.276154,195.741959 
	C292.507507,200.672455 289.763000,205.612091 286.135864,209.997635 
	C284.892029,211.501541 283.255035,212.781616 282.872101,214.960403 
	C284.130646,217.063889 286.620728,217.621933 288.541290,219.442444 
z"/>
</svg>