<svg version="1.1" id="Layer_1" xmlns="http://www.w3.org/2000/svg" xmlns:xlink="http://www.w3.org/1999/xlink" x="0px" y="0px"
	 width="100%" viewBox="0 0 512 512" enable-background="new 0 0 512 512" xml:space="preserve">
<path fill="#000000" opacity="1.000000" stroke="none" 
	d="
M285.270203,350.137268 
	C287.468140,344.348755 287.141296,339.079254 284.741455,333.791229 
	C279.791870,322.884979 275.029266,311.893890 270.095703,300.980225 
	C268.695679,297.883179 268.696594,294.948425 269.964417,291.837677 
	C273.018219,284.344910 276.371338,277.021759 280.882446,269.694763 
	C285.417877,274.274506 287.424408,279.421570 289.246460,284.472260 
	C306.768066,333.042175 297.222015,380.561035 257.363098,417.308197 
	C247.903427,426.029358 235.960007,428.201691 223.685059,429.225586 
	C208.201202,430.517120 194.086853,426.005310 180.581772,419.007782 
	C178.935242,418.154663 176.428879,417.425323 177.355118,414.756042 
	C178.303802,412.022156 180.836273,412.603333 182.925262,412.907745 
	C192.139175,414.250366 201.341675,415.851868 210.674393,414.123047 
	C222.053345,412.015228 232.069305,406.743347 241.208664,399.953003 
	C259.251831,386.547394 275.742706,371.655762 285.270203,350.137268 
z"/>
<path fill="#000000" opacity="1.000000" stroke="none" 
	d="
M307.253967,216.095123 
	C309.694397,215.859695 310.208710,217.072006 310.291962,218.800827 
	C310.500702,223.134933 306.659546,229.615356 302.409882,231.248535 
	C287.026978,237.160431 271.541107,242.806152 256.416321,249.374084 
	C254.900146,250.032501 253.205170,250.850082 251.725357,249.495377 
	C250.106216,248.013123 250.756485,246.163101 251.325882,244.381699 
	C253.333191,238.101669 257.304810,233.442047 264.159424,230.239609 
	C257.773621,226.391953 253.969162,222.123917 254.557190,214.901962 
	C255.402786,204.516327 274.145294,183.315750 284.411346,181.774094 
	C295.850830,180.056198 302.339966,188.345108 298.100830,199.294968 
	C297.440704,201.000137 296.675598,202.672974 295.841644,204.300629 
	C294.583527,206.756332 292.698853,207.470139 290.026794,206.434967 
	C286.777863,205.176315 283.643494,203.642166 280.175690,202.894272 
	C277.702301,202.360870 275.515564,202.788330 273.416382,203.828278 
	C268.324341,206.350983 268.123932,209.341446 272.926544,212.452911 
	C281.063293,217.724472 289.404358,222.040207 299.547729,217.798019 
	C301.809326,216.852158 304.400879,216.695358 307.253967,216.095123 
z"/>
</svg>