<svg version="1.1" id="Layer_1" xmlns="http://www.w3.org/2000/svg" xmlns:xlink="http://www.w3.org/1999/xlink" x="0px" y="0px"
	 width="100%" viewBox="0 0 512 512" enable-background="new 0 0 512 512" xml:space="preserve">
<path fill="#000000" opacity="1.000000" stroke="none" 
	d="
M299.316284,308.354095 
	C309.809357,301.354706 318.171997,293.043365 321.931671,280.984436 
	C322.719818,278.456635 323.171326,275.825012 323.923401,273.284271 
	C324.251373,272.176331 324.930084,271.142639 326.283844,270.972778 
	C327.947998,270.763916 328.673431,271.960205 329.246643,273.167389 
	C329.740326,274.207153 330.046844,275.343292 330.367584,276.456543 
	C333.754120,288.210388 344.771637,296.667419 356.988647,296.792297 
	C358.459778,296.807343 360.019073,296.669769 361.393005,296.189484 
	C366.233429,294.497559 367.151001,291.611847 363.019012,288.808685 
	C356.185364,284.172668 356.166992,278.631653 358.796967,271.950958 
	C360.257782,268.240173 361.258209,264.347717 362.728302,260.641113 
	C364.587280,255.954056 367.303009,255.541855 370.212738,259.737732 
	C374.249786,265.559174 377.244324,272.131592 377.113037,279.228363 
	C376.872833,292.213409 373.856445,304.722015 366.644043,315.703552 
	C357.905945,329.008087 344.616821,329.393494 332.363708,321.031799 
	C328.041870,318.082550 324.444794,314.071259 320.180695,310.243103 
	C315.190063,316.043854 311.401550,322.337585 306.369598,327.623962 
	C300.281830,334.019531 293.602417,339.451111 284.567688,340.724548 
	C280.586395,341.285706 279.984436,343.343170 279.951996,346.817902 
	C279.774628,365.828796 276.276672,384.188507 267.949677,401.385498 
	C257.847900,422.247772 240.822754,435.178619 219.170868,442.137512 
	C203.404678,447.204712 187.063416,449.664856 170.496292,448.978973 
	C141.495087,447.778320 119.797874,426.296722 119.427452,397.373627 
	C119.189377,378.784912 126.415840,361.973145 136.363251,346.415527 
	C137.705826,344.315765 139.161804,342.270111 140.747955,340.350342 
	C141.999329,338.835754 143.459564,336.998260 145.760040,338.480072 
	C148.062378,339.963013 147.010284,341.874542 146.074249,343.735901 
	C143.159027,349.532959 140.008484,355.234924 137.484009,361.200104 
	C132.906052,372.017670 131.024063,383.453094 134.499161,394.775085 
	C138.190369,406.801178 148.365524,412.520721 159.424545,416.676025 
	C174.756424,422.436768 190.544617,421.319366 206.283951,419.276489 
	C219.989410,417.497589 233.566925,414.972076 245.922333,408.221191 
	C258.811584,401.178558 265.634827,390.192444 266.656189,375.667389 
	C267.459167,364.248108 268.257050,352.805634 264.737396,341.582397 
	C263.128204,336.451172 260.714203,331.724243 258.201477,327.033691 
	C256.589630,324.024811 256.385132,321.136993 257.679993,317.950867 
	C259.815216,312.696899 262.062195,307.508850 265.084595,302.697327 
	C266.885284,299.830688 268.673981,299.499298 270.604523,302.719818 
	C272.495178,305.873810 274.212799,309.085358 275.363007,312.586121 
	C276.075684,314.755188 277.222656,315.697876 279.825806,315.264496 
	C286.638245,314.130280 293.059998,312.064606 299.316284,308.354095 
z"/>
<path fill="#000000" opacity="1.000000" stroke="none" 
	d="
M299.312622,228.691803 
	C294.941711,225.741638 294.374603,222.583847 297.127289,218.353195 
	C300.035980,213.882751 302.828278,209.337784 306.286469,205.277374 
	C308.630798,202.524811 308.616699,200.533051 305.466003,198.371490 
	C301.904358,195.927979 298.575592,193.132874 295.239563,190.376892 
	C293.087891,188.599350 292.366455,186.459732 293.919342,183.766769 
	C296.916718,178.568848 300.075287,173.486862 303.654602,168.665009 
	C305.566376,166.089554 307.586823,165.594849 310.489044,167.329437 
	C315.385956,170.256195 319.636383,173.975723 324.030090,177.538162 
	C326.380096,179.443604 326.519104,181.514160 325.203735,184.143051 
	C322.657959,189.231018 319.766937,194.066086 316.106506,198.437622 
	C311.964783,203.383957 312.080811,203.639008 317.542145,207.549057 
	C320.515259,209.677658 323.353577,212.003891 326.164429,214.346863 
	C328.572357,216.353973 328.822968,218.743073 327.201324,221.461273 
	C324.210876,226.473801 321.030365,231.347900 317.465179,235.975830 
	C315.578644,238.424759 313.558319,238.759293 311.038055,236.947876 
	C307.253540,234.227737 303.403229,231.599121 299.312622,228.691803 
z"/>
</svg>