<svg version="1.1" id="Layer_1" xmlns="http://www.w3.org/2000/svg" xmlns:xlink="http://www.w3.org/1999/xlink" x="0px" y="0px"
	 width="100%" viewBox="0 0 512 512" enable-background="new 0 0 512 512" xml:space="preserve">
<path fill="#000000" opacity="1.000000" stroke="none" 
	d="
M195.108002,288.363098 
	C184.506653,288.581970 174.620239,290.797913 164.735764,292.647278 
	C162.515381,282.392517 168.958557,269.439911 177.715836,265.514282 
	C191.867035,259.170654 206.681854,258.653259 221.757996,260.309662 
	C243.864105,262.738525 265.558502,268.914459 288.070343,267.638397 
	C298.692688,267.036346 309.239014,265.295074 319.927826,265.634949 
	C326.443085,265.842102 327.322784,267.169464 324.585175,273.200867 
	C317.685852,288.401093 316.349182,289.266205 296.788940,291.325470 
	C273.092682,293.820129 250.256409,299.350311 229.065399,310.626923 
	C212.769241,319.298798 197.945786,329.872009 185.859528,344.012817 
	C155.912125,379.051086 160.576874,434.552856 210.190826,457.072510 
	C227.214676,464.799622 245.128662,468.824890 263.584167,470.662048 
	C273.510681,471.650208 283.498169,472.496155 293.461456,472.533813 
	C308.101471,472.589142 322.654755,470.742401 337.209198,469.221313 
	C343.161682,468.599182 349.136932,468.177643 355.108978,467.769501 
	C356.975250,467.641937 359.032440,467.902771 359.634521,470.041473 
	C360.324127,472.491180 358.091003,473.158203 356.498077,473.805725 
	C332.898560,483.398956 308.996307,492.130829 284.245697,498.313171 
	C276.001770,500.372375 267.621124,498.757416 259.373260,498.146332 
	C241.099182,496.792328 223.028229,494.042542 205.825836,487.259613 
	C185.757645,479.346710 169.450760,467.114227 160.310349,446.921387 
	C153.964249,432.901794 152.893417,417.959076 153.782700,402.892822 
	C155.207993,378.745972 162.604279,356.638153 177.306137,337.156219 
	C189.802124,320.597321 204.958832,307.015411 222.507004,296.034027 
	C223.615616,295.340271 224.671036,294.561523 226.861893,293.062225 
	C216.111801,289.024139 205.793503,288.970520 195.108002,288.363098 
z"/>
<path fill="#000000" opacity="1.000000" stroke="none" 
	d="
M235.082809,349.552277 
	C235.789459,347.780121 236.210434,346.314941 236.944809,345.028717 
	C239.377792,340.767456 242.110535,340.639862 244.831451,344.664703 
	C246.228271,346.730896 247.338043,348.990753 248.729034,351.061310 
	C250.701767,353.997803 251.240875,356.584045 248.445679,359.531219 
	C245.993362,362.116852 245.843567,365.746796 246.453293,369.018768 
	C248.760635,381.401093 251.646332,393.696503 250.039383,407.361481 
	C254.425430,404.749054 256.672577,401.413696 259.603729,398.880676 
	C266.607941,392.827820 273.964325,387.567078 283.557434,386.421814 
	C293.896515,385.187531 301.427094,391.250610 302.420380,401.534180 
	C303.754852,415.350037 296.958099,424.370483 285.483185,430.553558 
	C271.144806,438.279541 255.464066,440.817108 239.477859,442.520020 
	C231.049438,443.417877 223.575409,442.818604 217.466034,436.306580 
	C215.634064,434.353851 213.790665,432.418762 212.792938,429.891602 
	C211.535934,426.707672 212.179153,424.607971 216.098877,424.701660 
	C218.594254,424.761292 221.135941,424.631226 223.573822,425.059235 
	C237.362946,427.480042 239.946991,419.163208 240.615768,410.108490 
	C241.448120,398.838928 238.346054,388.031891 236.282669,377.100739 
	C234.589752,368.132202 232.783539,359.121155 235.082809,349.552277 
M289.341248,408.554443 
	C276.622711,402.428375 260.521362,409.812592 252.293488,423.271088 
	C255.495438,424.380188 258.552612,423.106934 261.616852,422.644745 
	C271.054230,421.221344 280.153168,418.681030 288.188110,413.300903 
	C289.508118,412.417053 292.544769,411.607086 289.341248,408.554443 
z"/>
</svg>