<svg version="1.1" id="Layer_1" xmlns="http://www.w3.org/2000/svg" xmlns:xlink="http://www.w3.org/1999/xlink" x="0px" y="0px"
	 width="100%" viewBox="0 0 512 512" enable-background="new 0 0 512 512" xml:space="preserve">
<path fill="#000000" opacity="1.000000" stroke="none" 
	d="
M331.935425,469.704590 
	C337.686798,469.167938 342.978149,468.589203 348.281433,468.157166 
	C351.095215,467.927979 353.931671,467.852203 356.754059,467.907013 
	C358.138977,467.933868 359.364349,468.713593 359.719421,470.184418 
	C360.114380,471.820709 358.902832,472.643250 357.689423,473.217438 
	C355.283173,474.356110 352.842346,475.434235 350.364777,476.407532 
	C331.607391,483.776276 312.455902,489.995514 293.300995,496.235046 
	C281.983154,499.921722 270.583069,499.115479 259.158264,498.166016 
	C241.054901,496.661560 223.141006,494.015869 206.069244,487.322815 
	C185.972610,479.443878 169.627136,467.280396 160.415817,447.112549 
	C154.018616,433.106049 152.895599,418.168732 153.778305,403.091309 
	C155.192184,378.940826 162.539398,356.810364 177.204147,337.292542 
	C189.362305,321.110779 204.162308,307.857269 221.079926,296.858734 
	C222.693680,295.809601 224.715332,295.202545 226.138626,292.591309 
	C205.437302,286.565521 185.060608,287.624939 164.766495,292.815277 
	C162.566193,282.279572 168.987381,269.443909 177.752045,265.495941 
	C191.744736,259.193024 206.434906,258.614868 221.324493,260.233734 
	C243.604828,262.656128 265.463745,268.895477 288.149933,267.636993 
	C298.610413,267.056732 308.992462,265.332611 319.518188,265.630615 
	C326.470276,265.827484 327.374115,267.087311 324.536652,273.292725 
	C317.622528,288.413483 316.334991,289.251801 296.663483,291.326538 
	C272.954041,293.827118 250.069763,299.319458 228.941666,310.713348 
	C207.710342,322.162872 188.598862,336.089844 176.473267,357.745117 
	C156.964706,392.585724 168.579727,433.807312 203.269379,453.464600 
	C219.348816,462.576172 236.862030,466.913452 254.882599,469.649231 
	C280.400024,473.523102 305.944214,473.234192 331.935425,469.704590 
z"/>
<path fill="#000000" opacity="1.000000" stroke="none" 
	d="
M233.114685,339.459473 
	C232.742966,332.062042 231.562576,325.041168 234.337708,318.297577 
	C235.286835,315.991180 236.215424,313.338501 239.089584,313.000549 
	C241.977829,312.660919 242.762329,315.475464 244.016083,317.309418 
	C245.516022,319.503479 246.779160,321.862885 248.089203,324.182098 
	C248.938034,325.684753 249.507996,327.244019 248.127106,328.791504 
	C243.507843,333.968109 244.568344,340.213074 245.812790,345.925018 
	C248.162979,356.712189 249.628510,367.481567 248.641083,379.282349 
	C252.590240,375.523773 255.939362,372.142273 259.496552,368.996033 
	C264.902740,364.214447 270.835449,360.294281 277.932220,358.370819 
	C292.124939,354.524048 303.036011,364.174042 301.089569,378.760010 
	C299.905090,387.636414 295.245026,394.145874 288.090240,399.153259 
	C276.857147,407.014862 263.858429,409.876007 250.718399,412.215790 
	C244.008011,413.410645 237.216827,414.214752 230.378418,414.247681 
	C223.292679,414.281769 214.067108,408.058685 211.372818,401.553680 
	C209.707687,397.533478 211.075638,395.572876 215.593994,395.785278 
	C218.743591,395.933319 221.876083,396.569000 225.022903,396.627533 
	C233.611069,396.787323 237.850708,392.881500 238.695892,384.291138 
	C239.787704,373.194092 237.655426,362.423737 235.414658,351.657959 
	C234.602814,347.757416 233.951675,343.823395 233.114685,339.459473 
M264.677032,393.157593 
	C273.598785,390.884644 282.632965,388.847870 289.550873,381.852173 
	C279.385437,373.320435 260.977570,378.470612 250.019974,394.864563 
	C254.814026,395.092285 259.319885,394.015045 264.677032,393.157593 
z"/>
<path fill="#000000" opacity="1.000000" stroke="none" 
	d="
M269.788330,453.244080 
	C260.700409,446.400208 260.700439,446.400238 254.244827,455.571991 
	C247.405762,465.288605 247.251007,465.500610 237.792313,458.595886 
	C223.622681,448.252319 225.020691,450.312744 233.715179,436.763367 
	C241.084824,425.278625 241.269043,425.372375 251.917587,433.568878 
	C254.810913,435.795990 257.603088,438.154510 261.202332,441.068604 
	C264.288147,436.801117 267.222137,432.679321 270.223816,428.607452 
	C274.695435,422.541626 275.645142,422.380371 281.790375,426.884399 
	C285.548401,429.638794 289.191376,432.549927 292.892792,435.381866 
	C295.428894,437.322205 295.798706,439.584259 294.202942,442.364807 
	C291.215576,447.570038 288.088501,452.667786 284.474731,457.476837 
	C282.184265,460.524933 279.893982,460.883789 276.937927,458.460297 
	C274.752106,456.668396 272.367523,455.118958 269.788330,453.244080 
z"/>
</svg>