<svg version="1.1" id="Layer_1" xmlns="http://www.w3.org/2000/svg" xmlns:xlink="http://www.w3.org/1999/xlink" x="0px" y="0px"
	 width="100%" viewBox="0 0 512 512" enable-background="new 0 0 512 512" xml:space="preserve">
<path fill="#000000" opacity="1.000000" stroke="none" 
	d="
M150.678741,444.613403 
	C125.912094,432.429779 114.931030,408.679749 121.179291,382.119965 
	C124.388130,368.479980 130.101974,356.035461 137.707977,344.375153 
	C138.615463,342.983948 139.606476,341.624817 140.718079,340.394775 
	C142.143524,338.817474 143.689117,336.647705 146.110855,338.428741 
	C148.192810,339.959900 147.045441,342.067810 146.119446,343.847107 
	C144.274643,347.391876 142.266068,350.852203 140.453659,354.412842 
	C135.083557,364.962830 131.893311,375.960052 132.983826,388.011749 
	C133.997559,399.214783 140.229111,406.663788 149.445892,412.111816 
	C164.185699,420.824402 180.352966,421.760590 196.839218,420.392059 
	C207.945206,419.470093 218.940903,417.696167 229.717850,414.768158 
	C238.475372,412.388824 246.635208,408.878662 253.670441,402.903687 
	C264.428223,393.767181 266.739929,381.283539 267.594360,368.297607 
	C268.555298,353.691772 266.012115,339.769592 258.266968,327.078827 
	C256.490417,324.167908 256.291870,321.195557 257.694427,318.030457 
	C260.491089,311.719177 263.017242,305.267914 267.604523,299.441162 
	C271.605652,303.161804 273.590393,307.349426 274.936951,311.736298 
	C276.020477,315.266357 277.920685,316.099884 281.262543,315.316223 
	C302.763031,310.274353 317.823517,298.419861 323.053680,276.070221 
	C323.281036,275.098816 323.548065,274.134613 323.844574,273.181976 
	C324.264465,271.832947 324.983673,270.696869 326.560669,270.667847 
	C327.909454,270.643005 328.636475,271.633179 329.108185,272.740204 
	C329.562866,273.807220 330.096710,274.907532 330.226440,276.035675 
	C331.746552,289.254944 347.926605,297.147583 358.386963,296.952301 
	C361.155884,296.900604 363.987030,296.189331 365.181030,293.552002 
	C366.524933,290.583496 363.769440,288.828979 361.854034,287.581818 
	C356.514862,284.105347 356.123871,279.676361 358.188354,274.237671 
	C359.779816,270.045105 360.951080,265.694885 362.414093,261.450958 
	C363.101288,259.457458 363.541901,256.908173 366.321106,256.921753 
	C368.771240,256.933685 370.019226,258.998566 371.080872,260.888336 
	C375.852386,269.382172 378.321411,278.226227 376.381042,288.161896 
	C374.256897,299.038788 371.759247,309.686035 364.443298,318.417847 
	C356.691498,327.669891 344.731506,329.141235 334.443176,322.577881 
	C329.207977,319.238190 325.282532,314.440430 320.641602,310.333710 
	C317.433777,312.471893 315.990845,315.562408 314.076080,318.200409 
	C309.445770,324.579681 304.222412,330.340973 297.906891,335.102234 
	C295.070801,337.240326 291.983826,338.803070 288.599457,339.799438 
	C280.462677,342.194916 280.463013,342.185028 279.976593,350.775635 
	C279.048462,367.166840 276.240112,383.225922 269.484039,398.242401 
	C257.614563,424.624329 236.117447,439.162964 208.583923,445.078949 
	C192.499054,448.534973 176.117020,450.781250 159.619049,447.329773 
	C156.705460,446.720245 153.890411,445.639618 150.678741,444.613403 
z"/>
<path fill="#000000" opacity="1.000000" stroke="none" 
	d="
M312.366821,184.646301 
	C302.555145,186.953613 293.017242,188.210297 283.375000,188.800491 
	C275.676941,189.271683 265.928864,183.335648 262.859863,176.142578 
	C261.316559,172.525513 262.584808,170.488602 266.512665,171.018799 
	C270.330048,171.534058 274.130585,171.749878 277.954651,171.731049 
	C284.505707,171.698776 288.045593,168.852264 289.591644,162.388412 
	C292.319336,150.983978 289.492340,139.922150 287.300598,128.860703 
	C285.684509,120.704559 283.929565,112.587578 283.745239,104.232979 
	C283.643921,99.640358 284.684143,95.277054 286.855652,91.273895 
	C289.099243,87.137825 291.094269,87.069504 293.814026,90.827850 
	C294.983276,92.443604 295.936340,94.214424 297.078552,95.851364 
	C299.395966,99.172592 300.810150,102.211578 297.395172,105.991920 
	C295.200867,108.421021 295.731720,112.042656 296.038513,115.160179 
	C297.297058,127.949432 301.865662,140.406784 299.006836,153.609543 
	C299.400787,153.716797 299.794739,153.824051 300.188690,153.931305 
	C303.926147,150.521240 307.605347,147.044479 311.414978,143.717072 
	C316.859314,138.961914 322.832031,135.122208 329.981842,133.369644 
	C346.326508,129.363266 352.902283,141.928009 351.948639,152.960419 
	C351.086121,162.938141 345.346100,169.694138 337.274353,174.931091 
	C329.747101,179.814758 321.317078,182.303482 312.366821,184.646301 
M301.619354,167.774551 
	C300.450714,169.512589 300.423492,170.520859 303.006622,170.261978 
	C314.002686,169.160004 324.738007,167.037033 334.632843,161.877335 
	C337.172119,160.553223 339.988739,159.292023 341.255981,156.190826 
	C338.128876,153.078888 334.308502,152.600540 330.531555,152.369064 
	C318.080048,151.606033 309.664124,158.731461 301.619354,167.774551 
z"/>
<path fill="#000000" opacity="1.000000" stroke="none" 
	d="
M293.199493,235.932098 
	C289.029907,232.841660 285.143768,229.981094 281.302277,227.061798 
	C278.606537,225.013168 278.141296,222.599976 280.131134,219.711655 
	C283.434784,214.916336 286.660858,210.067245 289.889343,205.220612 
	C291.778168,202.384995 294.084747,202.184586 296.654602,204.152603 
	C300.749878,207.288788 304.898376,210.371307 308.808075,213.728455 
	C311.494751,216.035461 313.254211,215.810669 315.207642,212.866104 
	C317.781128,208.986847 320.732605,205.360565 323.407654,201.545654 
	C325.282410,198.872040 327.247650,198.313858 330.098175,200.247696 
	C334.926544,203.523361 339.602692,206.968994 344.037384,210.764786 
	C346.157471,212.579437 346.587402,214.419098 345.195251,216.867172 
	C342.146210,222.228943 338.799957,227.388245 335.147034,232.356232 
	C333.316315,234.846008 331.278290,235.219849 328.777405,233.319260 
	C324.537598,230.097153 320.101746,227.113892 316.033600,223.691101 
	C312.751160,220.929367 310.715546,221.396210 308.609253,224.998276 
	C306.682983,228.292419 304.229187,231.273758 302.102234,234.456024 
	C299.764801,237.953247 297.079712,239.208939 293.199493,235.932098 
z"/>
</svg>