<svg version="1.1" id="Layer_1" xmlns="http://www.w3.org/2000/svg" xmlns:xlink="http://www.w3.org/1999/xlink" x="0px" y="0px"
	 width="100%" viewBox="0 0 512 512" enable-background="new 0 0 512 512" xml:space="preserve">
<path fill="#000000" opacity="1.000000" stroke="none" 
	d="
M221.862061,429.245209 
	C206.511703,430.401276 193.223434,425.299957 180.293610,418.820190 
	C178.827682,418.085571 177.024567,417.339111 177.739426,415.161255 
	C178.344482,413.317871 180.056595,413.514496 181.548309,413.646576 
	C185.027527,413.954590 188.551727,414.073486 191.966141,414.738831 
	C206.145950,417.502106 219.194351,414.102325 231.255783,406.992401 
	C252.367523,394.547577 270.118805,378.483337 282.509705,357.012695 
	C287.384186,348.566315 288.589447,340.150238 283.864044,330.966156 
	C279.071167,321.650970 275.210938,311.859711 270.782776,302.351257 
	C268.962006,298.441589 268.858551,294.710388 270.694275,290.856323 
	C273.817993,284.298096 276.374725,277.441132 280.734161,271.109985 
	C283.205750,272.791656 284.346527,274.968689 285.328247,277.186371 
	C301.098755,312.811523 302.480560,348.211243 283.618073,383.289429 
	C277.988708,393.758240 271.202728,403.324890 262.952789,411.955536 
	C251.813660,423.608643 238.140182,428.789368 221.862061,429.245209 
z"/>
<path fill="#000000" opacity="1.000000" stroke="none" 
	d="
M309.053314,185.145782 
	C296.105194,193.836090 281.679993,196.996887 266.960999,199.190948 
	C261.699829,199.975189 256.400208,200.460312 251.047882,200.362411 
	C244.034286,200.234085 235.141510,194.455841 232.401627,188.007401 
	C230.861984,184.383774 231.960480,182.634750 236.001404,182.762085 
	C239.820984,182.882431 243.626663,183.555801 247.443954,183.611832 
	C253.581421,183.701935 257.104370,181.001694 258.652008,175.061432 
	C261.512451,164.082367 259.428589,153.266296 257.195679,142.502991 
	C255.167953,132.728683 253.144241,122.987663 253.573837,112.896347 
	C253.743484,108.911850 254.938873,105.371582 256.972534,102.092651 
	C258.684631,99.332153 260.821198,98.938950 262.790222,101.906685 
	C264.808197,104.948204 266.719208,108.062057 268.623413,111.177040 
	C269.366119,112.391953 269.571136,113.866631 268.649658,114.955750 
	C263.959229,120.499649 264.868408,126.775688 266.355011,132.993240 
	C268.732239,142.935730 269.803833,152.965607 269.312683,163.172318 
	C269.275269,163.949326 269.069336,164.844574 270.180237,165.682800 
	C275.187500,161.261490 279.562866,156.022095 285.137756,152.137344 
	C290.943085,148.091995 297.009583,144.731827 304.293732,144.470306 
	C314.274658,144.111984 320.812897,150.529053 321.389771,160.620636 
	C321.989685,171.114563 317.525391,178.897797 309.053314,185.145782 
M275.082062,175.566788 
	C272.845154,177.271301 270.608246,178.975800 268.371368,180.680298 
	C268.772583,181.131378 269.173798,181.582458 269.575012,182.033539 
	C282.379181,181.315750 294.778992,178.920410 306.126831,172.551300 
	C307.884918,171.564545 310.565613,170.558701 310.257690,168.091354 
	C309.940948,165.552856 307.144806,165.387161 305.103394,164.933029 
	C293.218201,162.289062 283.575073,166.313461 275.082062,175.566788 
z"/>
<path fill="#000000" opacity="1.000000" stroke="none" 
	d="
M248.949463,232.907196 
	C252.362274,227.557343 255.610977,222.523071 258.888184,217.507431 
	C261.038879,214.215836 263.612488,213.622375 266.789337,216.224304 
	C270.653168,219.388809 274.768707,222.269073 278.440430,225.637405 
	C281.190369,228.160141 282.800110,227.674896 284.706146,224.806656 
	C287.284363,220.926926 290.202820,217.275085 292.861572,213.446457 
	C294.836395,210.602676 296.909241,209.887115 299.929565,212.100296 
	C304.494629,215.445343 309.180725,218.616959 313.401978,222.414322 
	C315.563141,224.358475 316.216187,226.466553 314.549072,229.023926 
	C311.367401,233.904633 308.217682,238.806686 304.986053,243.654114 
	C303.065277,246.535278 300.756409,247.056595 297.869232,244.773270 
	C293.692017,241.469727 289.325806,238.404160 285.168335,235.076981 
	C282.489319,232.933014 280.618591,233.099411 278.687103,236.085815 
	C276.157532,239.997055 273.299164,243.696152 270.569031,247.476990 
	C268.969360,249.692291 267.004120,250.405136 264.555359,248.819000 
	C259.376526,245.464554 254.351807,241.906982 249.823822,237.687561 
	C248.454391,236.411469 247.913254,234.999100 248.949463,232.907196 
z"/>
</svg>