<svg version="1.1" id="Layer_1" xmlns="http://www.w3.org/2000/svg" xmlns:xlink="http://www.w3.org/1999/xlink" x="0px" y="0px"
	 width="100%" viewBox="0 0 512 512" enable-background="new 0 0 512 512" xml:space="preserve">
<path fill="#000000" opacity="1.000000" stroke="none" 
	d="
M174.060791,466.925842 
	C156.823013,448.806061 152.607239,426.893768 154.079788,403.338165 
	C155.007874,388.491821 157.860657,374.015564 164.161774,360.376282 
	C173.948227,339.192871 188.874573,322.212860 206.975983,307.814789 
	C213.223923,302.845093 219.895248,298.472504 227.875244,293.567719 
	C216.911606,289.128052 206.424637,288.488373 195.970978,288.474091 
	C185.377762,288.459625 174.903290,290.301575 163.775040,292.789154 
	C164.946381,285.358337 166.467041,278.943695 168.718262,272.783051 
	C169.982285,269.324005 173.638962,267.984406 176.825302,266.528625 
	C191.877029,259.651581 207.600296,258.754150 223.733261,261.199829 
	C247.551559,264.810547 271.262695,269.663361 295.590088,267.666840 
	C303.213898,267.041199 310.834320,266.254181 318.472443,265.958191 
	C325.736420,265.676758 326.856415,267.692963 323.680817,274.226959 
	C316.446075,289.112976 315.866455,289.564148 296.846619,291.310883 
	C266.815735,294.068878 238.842331,302.932800 213.548264,319.523071 
	C195.707901,331.224487 180.170044,345.391083 172.408676,365.818481 
	C158.599350,402.163635 170.917984,438.217133 207.235245,456.309479 
	C226.595566,465.954315 247.442764,469.687744 268.785309,471.807373 
	C294.004303,474.311981 318.945007,471.900391 343.919861,469.007996 
	C347.708893,468.569183 351.571136,468.709290 355.399963,468.694794 
	C356.816986,468.689453 358.641479,468.319977 359.130035,470.315430 
	C359.669312,472.517609 357.822571,473.188690 356.350098,473.853760 
	C353.317383,475.223511 350.272095,476.605469 347.130310,477.687103 
	C325.595551,485.100708 304.572784,494.285583 282.070251,498.441772 
	C271.779053,500.342560 261.194244,498.398468 250.798767,497.275330 
	C231.517960,495.192230 212.703949,491.302094 195.248108,482.334625 
	C187.479126,478.343506 180.417969,473.433075 174.060791,466.925842 
z"/>
<path fill="#000000" opacity="1.000000" stroke="none" 
	d="
M301.438477,202.091278 
	C301.771667,213.656845 295.487366,220.783279 286.740845,226.269760 
	C272.816620,235.004135 257.063416,237.501205 241.139267,239.315247 
	C239.159119,239.540833 237.149063,239.509125 235.171036,239.747421 
	C226.132294,240.836380 217.561081,236.479736 213.050797,228.434418 
	C212.231705,226.973373 211.212997,225.388763 212.145126,223.763062 
	C213.099167,222.099152 214.973816,222.319946 216.645721,222.397980 
	C220.467545,222.576401 224.291122,222.928726 228.110901,222.891663 
	C234.262955,222.831924 236.615250,220.895157 238.702423,215.023697 
	C241.491013,207.179001 240.326401,199.252625 239.164612,191.379074 
	C237.278244,178.595032 233.061829,166.163956 233.606735,153.003906 
	C233.763260,149.223450 234.697021,145.766281 236.564758,142.582932 
	C238.888748,138.621918 241.077423,138.513504 243.653793,142.225662 
	C245.452621,144.817490 246.960938,147.611221 248.593231,150.318268 
	C249.401352,151.658478 250.108139,153.244476 248.942825,154.499832 
	C244.045486,159.775604 244.902084,165.939423 246.434143,171.944168 
	C249.094742,182.372055 249.701279,192.917557 249.343094,203.588348 
	C249.322632,204.198212 249.532669,204.815796 250.914749,206.458191 
	C254.297516,202.667923 257.469574,198.659485 261.113434,195.139481 
	C266.327911,190.102280 272.523621,186.371201 279.614838,184.757538 
	C292.965363,181.719528 300.900574,188.030930 301.438477,202.091278 
M261.863190,220.328522 
	C272.290131,218.022552 282.863403,216.041397 291.067413,207.997833 
	C279.858337,197.869949 258.459381,206.752090 250.454605,221.701965 
	C254.137192,221.291626 257.579865,220.908035 261.863190,220.328522 
z"/>
</svg>