<svg version="1.1" id="Layer_1" xmlns="http://www.w3.org/2000/svg" xmlns:xlink="http://www.w3.org/1999/xlink" x="0px" y="0px"
	 width="100%" viewBox="0 0 512 512" enable-background="new 0 0 512 512" xml:space="preserve">
<path fill="#000000" opacity="1.000000" stroke="none" 
	d="
M268.810242,263.414246 
	C269.999084,273.419403 271.401978,282.965637 272.038055,292.562714 
	C272.534546,300.053864 270.414337,307.406464 269.203186,314.766205 
	C267.774963,323.445038 266.231384,332.140930 263.452515,340.532074 
	C262.706116,342.785797 262.498962,346.038239 258.938721,345.279541 
	C255.512527,344.549408 256.067780,341.560913 256.632965,339.162262 
	C261.294281,319.379517 257.453003,299.791199 255.173004,280.217163 
	C252.637451,258.449280 249.547409,236.745850 246.684235,215.016281 
	C245.425644,205.464325 244.338531,195.883667 242.805923,186.375305 
	C240.298813,170.821304 244.435318,156.395340 249.857239,142.167725 
	C250.964478,139.262253 251.223846,135.554718 256.586853,133.887466 
	C258.262543,177.519348 264.573090,220.133133 268.810242,263.414246 
z"/>
<path fill="#000000" opacity="1.000000" stroke="none" 
	d="
M232.471466,167.263092 
	C232.333023,168.871170 232.350266,170.050568 232.151154,171.192215 
	C231.832108,173.021423 231.448532,175.046432 228.985138,174.912842 
	C226.708115,174.789352 224.829514,174.001266 224.507797,171.200623 
	C223.673935,163.941635 223.063446,156.631561 221.725067,149.461090 
	C218.552643,132.464417 212.914780,116.364235 202.661026,102.212067 
	C199.513000,97.867180 202.358826,94.298157 203.691147,90.558746 
	C204.319855,88.794174 204.683762,86.626770 207.065002,85.546173 
	C211.310013,88.820877 214.405746,93.511818 219.029953,96.480194 
	C223.277023,99.206474 227.689117,100.742981 232.697083,98.718277 
	C236.481567,97.188225 239.088501,94.672844 239.950119,90.498016 
	C240.261444,88.989594 240.164948,87.081863 242.810425,86.165787 
	C245.573181,93.000130 244.300598,99.769974 242.621353,106.342094 
	C240.666306,113.993683 234.684265,116.935577 226.755447,117.518425 
	C230.726074,133.948822 235.623871,149.962341 232.471466,167.263092 
z"/>
</svg>