<svg version="1.1" id="Layer_1" xmlns="http://www.w3.org/2000/svg" xmlns:xlink="http://www.w3.org/1999/xlink" x="0px" y="0px"
	 width="100%" viewBox="0 0 512 512" enable-background="new 0 0 512 512" xml:space="preserve">
<path fill="#000000" opacity="1.000000" stroke="none" 
	d="
M243.683899,192.161148 
	C239.394501,171.068512 244.623611,152.273834 254.311676,134.273727 
	C258.103485,139.369278 257.757233,145.171646 257.806183,150.549698 
	C258.015656,173.555481 261.790344,196.198608 264.107574,218.986374 
	C266.441559,241.938766 269.194305,264.851196 271.293091,287.824097 
	C273.002136,306.531097 267.432129,324.291779 262.966827,342.136078 
	C262.481781,344.074402 261.436127,346.046051 258.753448,345.303741 
	C256.216888,344.601837 256.053406,342.442810 256.421112,340.462433 
	C257.879822,332.606323 259.098877,324.752380 258.747192,316.713440 
	C257.983826,299.265991 255.462051,282.003510 253.269592,264.712463 
	C250.220062,240.661774 246.909515,216.644150 243.683899,192.161148 
z"/>
<path fill="#000000" opacity="1.000000" stroke="none" 
	d="
M205.146545,110.585083 
	C199.877457,102.269180 204.751450,95.423019 206.909409,87.950256 
	C210.638885,89.150215 211.769958,92.190651 213.728409,94.280838 
	C222.796112,103.958366 233.061356,101.998314 237.518127,89.587959 
	C238.023926,88.179482 238.223419,86.657883 240.015991,86.062820 
	C242.535889,86.733574 242.051010,89.133804 242.605804,90.885162 
	C243.580170,93.961128 245.162338,96.289650 248.679550,96.645966 
	C252.530670,97.036087 253.773117,94.223953 255.107788,91.476341 
	C256.010162,89.618668 255.892441,87.174187 258.025421,86.065376 
	C259.758484,86.101776 260.095367,87.295403 260.082733,88.461235 
	C259.998718,96.238708 258.833160,103.758667 253.691925,109.998650 
	C249.341736,115.278526 244.221527,115.263214 236.466248,110.085861 
	C234.054962,113.024559 231.353867,115.630508 227.482590,116.743988 
	C225.235687,117.390259 225.344254,119.128616 225.769577,121.191154 
	C227.276398,128.498154 229.639786,135.723190 229.513092,143.243835 
	C229.359543,152.359573 229.986298,161.520264 228.476746,170.589218 
	C228.114868,172.763275 227.939529,175.186417 224.787201,174.744781 
	C222.108292,174.369446 220.694992,172.698639 220.729874,169.933319 
	C220.826660,162.262177 219.984634,154.679413 218.802902,147.108963 
	C216.774734,134.116226 212.270691,122.073471 205.146545,110.585083 
z"/>
</svg>