<svg version="1.1" id="Layer_1" xmlns="http://www.w3.org/2000/svg" xmlns:xlink="http://www.w3.org/1999/xlink" x="0px" y="0px"
	 width="100%" viewBox="0 0 512 512" enable-background="new 0 0 512 512" xml:space="preserve">
<path fill="#000000" opacity="1.000000" stroke="none" 
	d="
M175.125427,279.053650 
	C169.790695,291.178986 165.394440,303.228882 164.581711,316.188599 
	C163.514648,333.203674 170.844162,348.475952 188.478043,356.909485 
	C210.984329,367.673309 234.456894,367.848358 258.230286,362.603699 
	C281.555847,357.457855 304.003540,349.695374 325.239960,338.635223 
	C327.010132,337.713348 328.800140,336.770325 330.394379,335.586029 
	C332.078796,334.334717 334.551971,333.224396 334.231323,330.765594 
	C333.883575,328.098877 331.270996,327.257233 328.999878,326.777832 
	C322.985809,325.508362 316.948364,324.308014 310.875732,323.367157 
	C301.024811,321.840912 291.041626,321.021545 281.438721,318.180145 
	C263.470612,312.863525 256.747498,300.255219 262.599304,282.390472 
	C267.945221,266.070221 277.723419,252.452713 289.717377,240.406769 
	C302.987091,227.079483 317.485260,215.547318 336.064331,210.313934 
	C342.454559,208.513947 348.804688,207.974609 355.233093,209.969055 
	C357.953094,210.812958 360.672333,212.269424 360.134766,215.382858 
	C358.595154,224.300568 356.556366,233.132080 354.601929,242.535934 
	C349.437714,240.222412 345.981964,236.758698 340.940704,236.135544 
	C329.536621,234.725891 319.629974,238.934479 310.022217,243.886230 
	C299.725677,249.192978 290.857941,256.463928 283.788605,265.784027 
	C280.044891,270.719604 278.179230,276.349426 277.535126,282.399597 
	C277.119598,286.302826 279.233063,288.960297 282.358704,291.055695 
	C291.042419,296.877075 301.085907,298.650909 311.018463,300.638000 
	C318.676605,302.170074 326.415070,303.214722 334.227386,303.851166 
	C344.516724,304.689484 348.045776,308.482483 349.740356,318.527466 
	C352.410156,334.353180 344.771851,345.814514 333.435852,354.899567 
	C308.836090,374.614716 280.682495,386.854279 249.624573,392.366516 
	C231.124283,395.649994 212.601395,396.739166 194.157181,392.217346 
	C179.578461,388.643188 166.706390,382.092865 157.526321,369.655243 
	C149.177139,358.343353 146.697708,345.506927 148.167053,331.833801 
	C150.569016,309.482391 160.567032,289.869904 170.906982,270.429718 
	C173.171539,266.172150 175.738800,262.070374 178.284882,257.970276 
	C179.291733,256.348907 180.349030,253.946060 182.831024,255.298813 
	C185.347275,256.670258 184.370178,259.064270 183.476837,261.042267 
	C180.805115,266.957916 178.024826,272.824524 175.125427,279.053650 
z"/>
<path fill="#000000" opacity="1.000000" stroke="none" 
	d="
M229.318893,201.978485 
	C229.464920,206.985779 229.004776,211.447357 228.398102,215.914841 
	C228.070923,218.324234 227.481918,220.305878 224.600845,220.064453 
	C221.831711,219.832397 220.645416,218.163269 220.659164,215.324982 
	C220.706039,205.646484 219.707184,196.047134 217.603363,186.609192 
	C215.236557,175.991455 211.420425,165.928818 205.641647,156.617859 
	C201.263824,149.564163 202.118179,140.673920 207.472290,133.624390 
	C209.986618,134.224930 210.989990,136.465179 212.413300,138.248398 
	C221.299484,149.381653 232.281586,147.759003 237.479034,134.523972 
	C238.022339,133.140457 238.232422,131.580078 240.503677,131.184799 
	C243.536118,134.336517 241.843109,141.780807 248.844421,141.726898 
	C255.725739,141.673920 254.398956,134.380157 257.406616,131.227982 
	C259.461334,131.251480 259.734528,132.582855 259.750671,133.651779 
	C259.873871,141.808273 258.749573,149.643982 252.835129,155.903000 
	C248.331299,160.669220 243.688522,160.451035 236.267914,155.176529 
	C233.901413,158.104538 231.458252,161.036774 227.501968,162.043274 
	C224.734299,162.747421 225.190262,164.886292 225.732224,166.887787 
	C228.802673,178.226959 229.979980,189.758865 229.318893,201.978485 
z"/>
</svg>