<svg version="1.1" id="Layer_1" xmlns="http://www.w3.org/2000/svg" xmlns:xlink="http://www.w3.org/1999/xlink" x="0px" y="0px"
	 width="100%" viewBox="0 0 512 512" enable-background="new 0 0 512 512" xml:space="preserve">
<path fill="#000000" opacity="1.000000" stroke="none" 
	d="
M340.669525,209.217575 
	C345.933685,208.345840 350.705811,208.549423 355.408936,210.017578 
	C358.903839,211.108582 360.892456,213.261185 360.109680,217.066727 
	C358.536591,224.714844 356.841339,232.338226 355.129517,239.956772 
	C354.964081,240.693161 354.329742,241.324188 353.793488,242.199234 
	C349.494904,240.147766 346.119232,236.866302 341.254883,236.176544 
	C331.149353,234.743622 322.187592,238.103577 313.434204,242.188751 
	C301.975128,247.536636 292.170990,255.129181 284.291321,265.129700 
	C280.346405,270.136383 278.313995,275.840820 277.566803,282.072479 
	C277.068115,286.231659 279.218414,288.944763 282.492950,291.151733 
	C290.879517,296.804230 300.607178,298.554352 310.188599,300.519745 
	C317.991852,302.120453 325.898438,303.239655 333.885101,303.820496 
	C344.379883,304.583801 348.049438,308.413727 349.750519,318.691681 
	C352.371246,334.526367 344.650513,345.949280 333.304504,354.997620 
	C308.667603,374.645233 280.532349,386.916199 249.460434,392.389313 
	C229.602798,395.887054 209.726501,397.044647 190.166382,391.110382 
	C169.496460,384.839355 154.055695,372.933990 149.059967,350.521515 
	C146.086365,337.180908 148.533508,324.362396 152.508804,311.726471 
	C158.441208,292.869659 167.590652,275.497833 177.828186,258.679199 
	C178.921219,256.883514 179.985001,253.628784 182.937180,255.411423 
	C185.784821,257.130890 184.071335,259.909882 183.006973,262.086090 
	C177.079285,274.205994 171.338272,286.409454 167.582932,299.410309 
	C164.453583,310.243988 162.968796,321.218964 166.411743,332.301361 
	C170.042740,343.989044 177.915085,351.927155 188.794159,357.060822 
	C211.348251,367.703766 234.827347,367.820496 258.569916,362.541931 
	C281.712677,357.396759 304.028564,349.740387 325.087158,338.697479 
	C327.435242,337.466125 329.774353,336.108429 331.830109,334.452423 
	C335.595123,331.419495 335.225067,328.933624 330.575653,327.355072 
	C324.108856,325.159515 317.307892,324.353882 310.574585,323.289154 
	C298.464172,321.374084 286.001434,320.958130 274.701782,315.405609 
	C263.316406,309.810974 258.609802,300.283356 261.184174,287.862610 
	C264.281067,272.920868 272.412933,260.540924 281.899445,249.055695 
	C293.664948,234.811386 307.503540,222.949371 324.195038,214.686417 
	C329.295807,212.161331 334.687347,210.497040 340.669525,209.217575 
z"/>
<path fill="#000000" opacity="1.000000" stroke="none" 
	d="
M193.656784,450.215729 
	C192.974243,439.483002 193.798477,429.439117 199.535141,420.509674 
	C204.611328,412.608337 210.874420,411.613342 218.566040,417.181030 
	C222.090836,419.732452 224.883728,423.038177 227.720444,427.010132 
	C232.423691,417.302643 238.451141,409.566986 250.160797,407.515869 
	C250.493729,412.927704 248.983566,417.487152 247.816818,422.058868 
	C247.620895,422.826569 246.464432,423.682251 245.602631,423.896179 
	C234.960419,426.537170 231.781372,435.463928 228.301559,444.178131 
	C227.524292,446.124573 227.508301,448.496155 225.325912,449.814423 
	C222.243927,449.203735 222.115341,446.293945 221.129074,444.173370 
	C219.144409,439.906189 217.139816,435.675537 212.778488,433.314392 
	C207.286362,430.341034 204.174622,432.194153 204.280670,438.319336 
	C204.443069,447.700165 206.715012,456.729950 209.038040,465.736298 
	C211.494247,475.259094 212.787506,484.677734 207.785629,493.876495 
	C206.946732,495.419312 206.349365,496.884155 204.177887,496.516815 
	C202.067108,496.159729 200.900314,494.964783 200.757385,492.858978 
	C199.898163,480.198700 195.805771,468.125092 194.036636,455.632233 
	C193.804245,453.991119 193.781830,452.320312 193.656784,450.215729 
z"/>
</svg>