<svg version="1.1" id="Layer_1" xmlns="http://www.w3.org/2000/svg" xmlns:xlink="http://www.w3.org/1999/xlink" x="0px" y="0px"
	 width="100%" viewBox="0 0 512 512" enable-background="new 0 0 512 512" xml:space="preserve">
<path fill="#000000" opacity="1.000000" stroke="none" 
	d="
M293.742889,260.378204 
	C303.616516,275.927948 306.802368,292.920807 307.317383,310.614685 
	C308.424988,348.669037 296.321014,382.681915 274.710388,413.399597 
	C265.448761,426.564178 254.138870,438.081635 237.297546,441.501770 
	C224.968018,444.005646 213.165894,441.170929 201.658447,436.899902 
	C195.251205,434.521851 189.063614,431.628723 183.508240,427.561432 
	C181.678452,426.221771 178.929855,425.032562 180.249527,422.201843 
	C181.437256,419.654114 183.946655,420.827667 186.019028,421.336670 
	C187.954681,421.812042 189.941727,422.118866 191.833313,422.726562 
	C210.164642,428.615570 227.110977,424.896637 242.764252,414.717804 
	C268.220856,398.164124 286.343964,375.902893 294.073059,346.048340 
	C296.307892,337.415985 296.725067,328.717590 292.980896,319.709198 
	C290.180206,322.256500 287.613159,324.475952 285.175110,326.829071 
	C275.654938,336.017700 261.663452,330.635986 254.961029,323.374725 
	C247.586212,315.385040 246.796783,306.181793 249.025757,296.350555 
	C252.379272,281.559448 258.382233,267.944305 267.986969,256.055511 
	C274.938477,247.450851 282.126434,247.272415 289.593536,255.563049 
	C290.930115,257.047028 292.217590,258.575195 293.742889,260.378204 
M267.358154,286.802216 
	C265.004944,290.582642 264.438385,294.274902 268.301025,297.428009 
	C271.752686,300.245697 274.876587,298.489685 277.682922,296.223206 
	C279.449493,294.796448 281.369965,293.190277 279.800171,290.377838 
	C277.649017,286.523895 272.457428,284.690369 267.358154,286.802216 
z"/>
<path fill="#000000" opacity="1.000000" stroke="none" 
	d="
M270.714203,231.933136 
	C269.014435,208.613220 263.458832,186.956619 250.567017,167.618805 
	C246.739899,161.878128 248.018906,154.137299 254.269913,148.753250 
	C257.271545,151.947983 260.121460,155.411514 263.411163,158.389191 
	C269.466064,163.869812 276.389404,164.514145 282.016418,160.734833 
	C284.560913,159.025879 285.852203,156.636353 286.540405,153.841492 
	C286.928223,152.266403 286.756744,150.483398 289.400116,149.558823 
	C291.812622,156.445587 290.901337,163.230942 289.260162,169.820877 
	C287.345306,177.509827 281.383179,180.413788 273.308441,180.792236 
	C274.571381,186.084122 275.654114,191.024887 276.936157,195.913376 
	C280.137970,208.121643 281.153473,220.458786 278.880310,232.911209 
	C278.491974,235.038498 279.487091,238.865860 274.979523,238.455109 
	C271.104736,238.102036 270.696869,235.416763 270.714203,231.933136 
z"/>
</svg>