<svg version="1.1" id="Layer_1" xmlns="http://www.w3.org/2000/svg" xmlns:xlink="http://www.w3.org/1999/xlink" x="0px" y="0px"
	 width="100%" viewBox="0 0 512 512" enable-background="new 0 0 512 512" xml:space="preserve">
<path fill="#000000" opacity="1.000000" stroke="none" 
	d="
M271.999084,251.873581 
	C276.858124,248.176926 281.383423,248.939331 285.634094,252.080658 
	C293.736877,258.068848 298.097931,266.620880 301.325439,275.854370 
	C307.656403,293.966431 308.586395,312.624176 306.513123,331.498505 
	C303.265930,361.059906 292.702423,387.958862 275.604340,412.146729 
	C265.990295,425.747284 254.700790,437.873199 237.332794,441.477600 
	C224.842728,444.069702 212.893677,441.109741 201.234146,436.724426 
	C194.667221,434.254578 188.399200,431.186310 182.712250,427.023682 
	C181.078125,425.827576 179.110229,424.539246 180.200821,422.222931 
	C181.308533,419.870148 183.573059,420.736816 185.506226,421.169647 
	C187.936951,421.713898 190.419556,422.105621 192.780518,422.869781 
	C210.838165,428.714294 227.415359,424.627472 242.722366,414.722260 
	C268.218811,398.223389 286.315552,375.929718 294.063080,346.083191 
	C296.304871,337.446960 296.716919,328.745209 292.993317,319.724304 
	C290.206818,322.251068 287.637238,324.459045 285.204468,326.808716 
	C275.647797,336.038727 261.614960,330.692291 254.999283,323.391052 
	C248.362045,316.065979 246.757797,307.711639 248.704590,298.354614 
	C252.330811,280.925720 259.209503,265.109528 271.999084,251.873581 
M275.824005,297.486572 
	C278.047272,295.867371 280.999481,294.602417 280.108154,291.065674 
	C279.382507,288.186493 273.575928,284.940948 270.376373,285.287079 
	C266.682465,285.686676 266.067505,288.641693 265.633087,291.383911 
	C264.826202,296.477600 269.413422,299.518463 275.824005,297.486572 
z"/>
<path fill="#000000" opacity="1.000000" stroke="none" 
	d="
M274.855774,202.570557 
	C275.823700,213.172302 275.178101,223.300568 274.281586,233.421432 
	C274.068420,235.827805 273.729065,238.218597 270.499908,238.278000 
	C267.165497,238.339355 266.233826,236.118988 266.150330,233.369812 
	C265.882721,224.556641 265.662872,215.766342 263.772003,207.077347 
	C261.419281,196.265930 257.930664,185.955780 252.111008,176.471039 
	C246.997650,168.137360 247.533569,158.597000 253.536819,151.491425 
	C258.858856,156.320328 262.343384,163.992889 271.111206,163.735123 
	C280.269104,163.465927 281.731415,155.146744 285.152863,149.226669 
	C287.980072,150.491257 287.431030,152.714233 288.031647,154.300629 
	C289.243622,157.501938 290.985870,160.265747 294.563171,160.307999 
	C297.978607,160.348297 299.506561,157.513000 300.769897,154.615982 
	C301.555328,152.814911 301.199158,150.126907 304.002411,149.558594 
	C308.315674,158.459366 301.910583,173.859055 295.373199,176.753235 
	C291.476074,178.478531 287.611267,177.629593 282.257446,173.630112 
	C279.137909,176.876099 275.950653,180.272049 270.799896,180.786392 
	C272.151794,188.125107 273.441742,195.127701 274.855774,202.570557 
z"/>
</svg>