<svg version="1.1" id="Layer_1" xmlns="http://www.w3.org/2000/svg" xmlns:xlink="http://www.w3.org/1999/xlink" x="0px" y="0px"
	 width="100%" viewBox="0 0 512 512" enable-background="new 0 0 512 512" xml:space="preserve">
<path fill="#000000" opacity="1.000000" stroke="none" 
	d="
M221.250854,275.262085 
	C242.094849,265.900360 253.998108,249.265610 261.731110,228.924789 
	C264.100769,222.691666 267.191223,216.734314 271.322357,211.475281 
	C277.784210,203.249207 285.983551,204.014816 291.275269,213.254456 
	C295.109528,219.949310 297.470093,227.239914 298.868805,234.787766 
	C300.743042,244.901489 303.129272,255.002731 301.399719,265.426941 
	C301.318085,265.918976 301.393005,266.457886 301.223969,266.911133 
	C300.271393,269.465210 300.272675,273.466248 297.038391,273.541321 
	C293.853027,273.615265 293.930267,269.835541 293.447662,267.291809 
	C292.395569,261.746735 291.512329,256.166901 290.339142,250.648254 
	C289.167145,245.135284 286.677490,240.523010 280.500061,239.379807 
	C273.983002,238.173767 269.228851,241.151459 265.500519,246.182922 
	C259.031708,254.912720 254.270004,264.674805 248.960114,274.085693 
	C235.973663,297.101959 215.980194,310.521881 191.014542,317.343384 
	C173.737259,322.064117 155.814392,324.663391 139.716476,333.223969 
	C136.142654,335.124481 132.866302,337.322998 130.251450,340.434570 
	C125.148224,346.507111 126.071228,351.308441 133.235443,354.850677 
	C141.249130,358.812958 150.008224,360.337677 158.712524,361.539185 
	C187.590820,365.525360 216.662399,366.384064 245.785263,367.165436 
	C272.603149,367.884888 299.407928,367.822876 326.205170,367.567200 
	C349.314392,367.346680 372.410553,365.764160 395.512756,364.789246 
	C396.677246,364.740143 397.844360,364.711243 399.009460,364.728027 
	C401.160706,364.758972 403.177002,365.394501 403.677734,367.670227 
	C404.175293,369.931519 402.122467,370.738800 400.530029,371.590851 
	C386.784180,378.945801 371.992157,383.479645 356.991486,387.297455 
	C324.218903,395.638306 290.768433,397.723145 257.085175,398.574554 
	C234.918991,399.134888 212.795624,398.666962 190.695694,397.818176 
	C172.616653,397.123779 154.479004,395.707916 136.777100,391.341370 
	C133.555969,390.546753 130.381516,389.551453 127.209450,388.571350 
	C112.744446,384.101898 109.864227,373.586945 112.630867,358.044281 
	C114.591965,347.027008 121.928467,338.683655 129.479599,330.803894 
	C149.884842,309.510559 174.110931,294.085938 201.664474,283.705109 
	C208.194748,281.244781 214.507706,278.207642 221.250854,275.262085 
z"/>
<path fill="#000000" opacity="1.000000" stroke="none" 
	d="
M186.173065,209.400055 
	C186.281662,217.499054 186.912613,225.159775 185.329773,232.737579 
	C184.838623,235.089020 185.216370,238.260529 181.617813,238.151825 
	C178.021057,238.043167 176.961960,235.098282 176.880692,232.166901 
	C176.714096,226.158249 175.848389,220.281204 174.856522,214.362091 
	C171.987762,197.242264 166.182983,181.313202 156.610336,166.797195 
	C153.816025,162.559891 154.792297,153.657532 158.390656,150.409729 
	C160.392288,148.603088 161.692657,150.064331 163.024780,151.358810 
	C165.526230,153.789581 167.828247,156.464996 170.534805,158.638138 
	C179.991547,166.231171 188.814682,163.714218 192.901199,152.414673 
	C193.299286,151.313965 193.626862,150.127518 195.102203,150.090225 
	C196.059631,150.066025 196.525635,150.725677 196.907043,151.524948 
	C200.387085,158.817734 195.194809,175.002014 188.018051,178.563812 
	C185.690247,179.719086 183.001495,180.147064 180.006577,181.049759 
	C182.036758,190.314667 184.077484,199.627716 186.173065,209.400055 
z"/>
</svg>