<svg version="1.1" id="Layer_1" xmlns="http://www.w3.org/2000/svg" xmlns:xlink="http://www.w3.org/1999/xlink" x="0px" y="0px"
	 width="100%" viewBox="0 0 512 512" enable-background="new 0 0 512 512" xml:space="preserve">
<path fill="#000000" opacity="1.000000" stroke="none" 
	d="
M161.699097,395.424622 
	C150.119568,394.338287 139.177933,392.306183 128.476837,389.068054 
	C115.121094,385.026672 108.898911,373.206482 112.410942,358.362335 
	C115.039696,347.251587 121.912758,338.689056 129.595810,330.695038 
	C150.155823,309.302856 174.534241,293.831543 202.311600,283.486115 
	C210.872025,280.297882 219.135803,276.363708 227.201370,271.958740 
	C241.577591,264.107208 251.485870,252.601257 257.772339,237.588516 
	C260.981537,229.924637 264.263489,222.245621 268.759613,215.189148 
	C269.385223,214.207321 269.918915,213.158722 270.616089,212.232010 
	C277.432190,203.171936 285.996399,203.747391 291.505585,213.673782 
	C295.168762,220.274033 297.487366,227.393997 298.863037,234.774826 
	C300.748474,244.890503 303.121216,254.994965 301.399414,265.421722 
	C301.318115,265.914001 301.393036,266.452820 301.224304,266.906433 
	C300.273438,269.462372 300.273529,273.463928 297.040527,273.540985 
	C293.852783,273.616974 293.932098,269.834900 293.449280,267.290863 
	C292.396606,261.744141 291.511353,256.163025 290.339203,250.642365 
	C289.167694,245.124863 286.671906,240.516006 280.491699,239.378540 
	C273.973328,238.178848 269.238647,241.173264 265.487762,246.191254 
	C259.078522,254.765594 254.344940,264.365234 249.159332,273.649689 
	C236.066376,297.091766 215.869095,310.637787 190.477509,317.456024 
	C177.164093,321.030945 163.500290,323.348633 150.586273,328.355255 
	C143.754593,331.003784 136.877518,333.683899 131.561432,339.022003 
	C124.620552,345.991699 125.663338,351.724457 134.653870,355.526581 
	C144.876114,359.849548 155.801529,361.411530 166.685791,362.640442 
	C189.341110,365.198456 212.087799,366.450409 234.895615,367.041687 
	C258.544891,367.654785 282.188477,367.704407 305.837585,367.735596 
	C335.645447,367.774902 365.403290,366.293701 395.161102,364.807404 
	C396.325531,364.749237 397.492462,364.732605 398.658508,364.718872 
	C400.783813,364.693817 402.864929,365.149689 403.580383,367.347595 
	C404.427277,369.949341 402.090820,370.749298 400.393005,371.658569 
	C386.794952,378.941010 372.158203,383.469849 357.318268,387.238068 
	C324.543060,395.560547 291.090088,397.744629 257.391144,398.593719 
	C237.218704,399.101959 217.102402,398.319427 196.966599,398.134491 
	C185.353516,398.027802 173.754242,396.415009 161.699097,395.424622 
z"/>
<path fill="#000000" opacity="1.000000" stroke="none" 
	d="
M171.243286,211.794556 
	C168.467911,197.715515 164.078568,184.738419 156.719406,172.797699 
	C153.277649,167.213257 154.902954,157.217514 159.621216,151.851410 
	C162.832687,152.862976 164.185867,155.994141 166.368271,158.140778 
	C175.314560,166.940430 184.723419,164.962112 189.299881,153.180573 
	C189.889053,151.663803 190.040466,149.869919 192.077118,149.372238 
	C194.300171,150.135498 193.995422,152.243515 194.567215,153.874832 
	C195.520508,156.594559 196.539001,159.329605 199.986877,159.672226 
	C203.620575,160.033295 205.235870,157.408417 206.906113,154.853409 
	C208.091431,153.040176 207.431137,149.962280 210.538956,149.437592 
	C214.611832,156.328522 208.770874,173.621918 201.470184,176.551071 
	C198.163574,177.877731 195.801102,177.502182 188.190231,173.777023 
	C185.515610,176.002777 183.297867,179.024704 179.554047,180.064972 
	C177.053421,180.759781 177.055298,182.931610 177.726334,185.007141 
	C182.437485,199.579041 181.397568,214.598923 181.199234,229.548050 
	C181.177399,231.192841 180.769913,232.839813 180.465775,234.471710 
	C180.072723,236.580734 179.295380,238.512192 176.648010,238.083694 
	C173.962006,237.648941 172.843124,235.822617 172.697968,233.121536 
	C172.323288,226.149551 171.808792,219.185074 171.243286,211.794556 
z"/>
</svg>