<svg version="1.1" id="Layer_1" xmlns="http://www.w3.org/2000/svg" xmlns:xlink="http://www.w3.org/1999/xlink" x="0px" y="0px"
	 width="100%" viewBox="0 0 512 512" enable-background="new 0 0 512 512" xml:space="preserve">
<path fill="#000000" opacity="1.000000" stroke="none" 
	d="
M319.927124,281.850586 
	C317.870605,286.835083 314.338776,288.634155 309.414612,289.430450 
	C290.407593,292.504181 271.081909,293.910706 252.721069,300.466827 
	C228.675156,309.052887 206.934250,321.362122 189.419861,340.143494 
	C168.953079,362.090790 161.878860,387.659241 171.289581,416.683411 
	C176.746521,433.513397 188.675049,445.092499 203.809982,453.717865 
	C219.414017,462.610657 236.499573,466.795166 253.978180,469.545380 
	C268.788086,471.875702 283.789307,473.176636 298.748688,472.480591 
	C315.010406,471.723907 331.213593,469.715942 347.444183,468.275208 
	C350.094086,468.040009 352.751740,467.844910 355.409851,467.765442 
	C357.321411,467.708282 359.319153,468.089447 359.748047,470.286438 
	C360.156067,472.376495 358.238800,473.090210 356.735809,473.707092 
	C350.884827,476.108429 345.039429,478.536774 339.105469,480.719971 
	C324.267639,486.179077 309.208862,490.989502 294.207031,495.973877 
	C282.590210,499.833588 270.880035,499.192169 259.112091,498.189575 
	C241.017059,496.647919 223.105026,494.025238 206.044830,487.328949 
	C186.138535,479.515503 169.848312,467.519867 160.626053,447.569092 
	C153.338989,431.804749 152.661942,415.066711 154.183197,398.150665 
	C158.236099,353.083008 183.842438,322.018311 219.776718,297.739380 
	C221.802505,296.370636 223.867355,295.059723 227.230270,292.861511 
	C205.421219,286.764771 185.059464,287.514435 164.790176,292.892609 
	C162.513306,282.806946 168.902481,269.512634 177.218674,265.715546 
	C191.493134,259.197998 206.477158,258.625671 221.728226,260.297516 
	C243.837357,262.721222 265.532135,268.908508 288.046783,267.637177 
	C298.670532,267.037323 309.217346,265.286530 319.908112,265.632477 
	C326.453003,265.844269 327.393982,267.181458 324.578766,273.161957 
	C323.233734,276.019287 321.609711,278.745270 319.927124,281.850586 
z"/>
<path fill="#000000" opacity="1.000000" stroke="none" 
	d="
M242.137878,353.745300 
	C250.988068,354.262299 256.160583,359.802948 261.145660,366.471954 
	C264.799744,358.577972 269.546539,352.326721 277.333588,349.051361 
	C279.151428,348.286774 281.103546,346.956055 283.011841,348.106567 
	C285.390045,349.540405 283.456787,351.737457 283.325195,353.554810 
	C283.158264,355.859833 282.633820,358.145844 282.165741,360.419922 
	C281.823944,362.080658 281.262360,363.806335 279.392853,364.240692 
	C269.813019,366.466553 266.279633,374.129669 262.863647,382.091309 
	C261.636871,384.950562 262.171082,390.004456 258.314331,390.021576 
	C254.775635,390.037292 254.605255,385.064636 253.054596,382.268097 
	C250.743530,378.100220 248.407196,374.171478 243.336884,372.916840 
	C239.074051,371.861969 237.527939,373.252167 237.712357,377.630829 
	C238.191345,389.002502 241.333649,399.872711 243.727005,410.887787 
	C245.462936,418.877258 245.252853,426.686737 241.552841,434.194458 
	C240.679062,435.967468 239.733521,437.467834 237.496887,437.118469 
	C235.275192,436.771362 233.896561,435.469635 233.760834,433.122345 
	C233.028122,420.451172 228.508698,408.442413 227.180191,395.895996 
	C225.872940,383.550171 225.777405,371.286499 232.715454,360.155426 
	C234.841888,356.743835 237.568237,354.266693 242.137878,353.745300 
z"/>
</svg>