<svg version="1.1" id="Layer_1" xmlns="http://www.w3.org/2000/svg" xmlns:xlink="http://www.w3.org/1999/xlink" x="0px" y="0px"
	 width="100%" viewBox="0 0 512 512" enable-background="new 0 0 512 512" xml:space="preserve">
<path fill="#000000" opacity="1.000000" stroke="none" 
	d="
M323.645813,274.093140 
	C324.256348,272.061829 324.916687,270.410461 327.086304,270.803711 
	C329.109436,271.170410 329.445160,273.090363 329.781372,274.648468 
	C332.368988,286.640198 340.373016,293.059448 351.676849,296.085571 
	C355.424408,297.088806 359.184631,297.553497 362.856110,295.572357 
	C365.677582,294.049927 366.862885,291.657898 363.982422,289.830383 
	C355.134857,284.217133 356.673676,276.886322 359.722351,269.028320 
	C360.744812,266.392883 361.533478,263.667664 362.509827,261.013153 
	C363.142426,259.293182 363.785461,257.381226 365.907501,257.058136 
	C368.281494,256.696655 369.587189,258.493500 370.596710,260.186371 
	C375.393860,268.230591 378.225220,276.637146 376.648621,286.316254 
	C375.027313,296.269897 372.689270,305.879700 367.368011,314.557556 
	C359.450562,327.469238 345.476013,330.263000 333.000793,321.623932 
	C328.454895,318.475952 325.022858,314.121796 320.780701,310.657898 
	C318.159515,311.554260 317.244537,313.825317 315.936951,315.652924 
	C311.466949,321.900696 306.757324,327.905090 300.809570,332.872498 
	C296.243286,336.686127 291.288361,339.822449 285.353027,340.523743 
	C280.646027,341.079895 280.133453,343.592865 280.034393,347.604065 
	C279.561523,366.755768 276.089783,385.336151 267.360718,402.546875 
	C259.086334,418.861084 246.387741,430.659485 229.491470,437.938232 
	C209.058228,446.740723 187.750748,450.329193 165.650284,448.355652 
	C139.558411,446.025787 119.811813,424.079895 119.631165,397.917633 
	C119.484322,376.652161 128.076721,358.536804 139.788727,341.530487 
	C140.442307,340.581482 141.304596,339.756897 142.157410,338.969330 
	C143.190750,338.015045 144.412109,337.396698 145.754349,338.332855 
	C147.176910,339.325104 147.534851,340.801117 146.788849,342.305298 
	C145.087845,345.735077 143.315262,349.133453 141.452545,352.478180 
	C135.924500,362.404510 132.808441,373.121307 132.539124,384.376343 
	C132.298660,394.425720 136.768646,402.672180 144.874908,408.847626 
	C154.321655,416.044220 165.193771,419.795837 176.795120,420.486664 
	C197.932709,421.745270 218.720551,419.082245 238.631699,411.641876 
	C255.802109,405.225677 265.493958,392.984131 266.860992,374.208435 
	C268.094177,357.270813 267.220734,340.939758 257.717010,326.132874 
	C256.787964,324.685394 256.342957,322.962555 256.822693,321.329041 
	C259.076965,313.653229 262.345978,306.467651 267.431183,299.479431 
	C271.616119,302.737549 273.223663,306.936432 274.633453,311.063202 
	C275.824005,314.548218 277.458893,315.357422 281.230286,314.994476 
	C297.343597,313.443756 320.876617,296.066071 323.645813,274.093140 
z"/>
<path fill="#000000" opacity="1.000000" stroke="none" 
	d="
M286.156464,223.286469 
	C296.879517,216.414062 302.476044,206.455750 305.713470,194.902847 
	C306.475220,192.184525 307.084198,189.423096 307.748840,186.677963 
	C307.953156,185.833939 308.240936,185.046005 309.215363,184.891510 
	C310.464020,184.693512 310.968140,185.503067 311.299408,186.538925 
	C312.160950,189.232803 312.949982,191.955124 313.939941,194.601761 
	C318.191376,205.967514 325.858582,214.446686 336.071960,220.822159 
	C340.975250,223.882874 343.257507,233.392609 340.543884,238.351898 
	C339.189819,240.826584 337.329529,240.195053 335.416290,239.348663 
	C329.062622,236.537979 325.019073,231.166382 320.846924,225.990921 
	C316.544159,220.653458 313.566467,214.488907 310.182587,207.808395 
	C307.286163,214.832611 304.582672,221.386215 300.373047,227.122498 
	C296.718048,232.102951 293.011505,237.084595 287.229095,239.833740 
	C283.145355,241.775253 281.471436,240.890915 281.694275,236.490402 
	C281.927155,231.891281 279.289124,226.147720 286.156464,223.286469 
z"/>
</svg>