<svg version="1.1" id="Layer_1" xmlns="http://www.w3.org/2000/svg" xmlns:xlink="http://www.w3.org/1999/xlink" x="0px" y="0px"
	 width="100%" viewBox="0 0 512 512" enable-background="new 0 0 512 512" xml:space="preserve">
<path fill="#000000" opacity="1.000000" stroke="none" 
	d="
M179.738983,342.523926 
	C173.927002,339.123047 172.600067,333.963318 173.103119,328.180939 
	C173.855682,319.530731 175.978806,311.155426 178.904053,302.992859 
	C179.584244,301.094818 180.537430,298.996124 183.129272,299.746063 
	C185.481476,300.426636 185.129623,302.462128 184.748016,304.322968 
	C183.758545,309.148071 186.380569,311.886597 190.344101,313.682617 
	C195.447266,315.995148 201.000519,316.405914 206.448853,316.587494 
	C231.425949,317.420044 256.422546,317.341003 281.388123,316.500275 
	C293.800751,316.082275 306.338867,315.558990 318.429779,311.946320 
	C326.504364,309.533691 328.454742,306.357361 327.328339,297.924957 
	C323.782257,271.378143 317.753235,245.302887 312.394318,219.103714 
	C307.433411,194.850235 302.124023,170.667618 297.938934,146.260925 
	C296.355499,137.026672 297.109619,128.035034 301.067841,119.466957 
	C302.034363,117.374817 303.275604,115.337875 304.739899,113.563950 
	C307.020966,110.800560 309.243378,109.989029 311.704773,113.835045 
	C315.561676,119.861732 319.822815,125.630959 323.952118,131.481430 
	C325.381866,133.507095 326.455597,135.520935 324.542816,137.798294 
	C315.297638,148.805603 316.994446,161.289032 319.702240,173.878967 
	C325.253845,199.691193 331.423218,225.379288 335.739258,251.441483 
	C338.208923,266.354340 340.496002,281.291565 340.445312,296.504883 
	C340.425903,302.327789 339.372192,307.666809 336.937164,312.900299 
	C334.546387,318.038757 331.612000,322.904480 329.233154,328.013214 
	C324.035370,339.175781 314.963196,343.307495 303.342316,344.306702 
	C268.452789,347.306549 233.532333,348.043457 198.576828,346.143066 
	C192.348465,345.804504 185.891968,345.717010 179.738983,342.523926 
z"/>
<path fill="#000000" opacity="1.000000" stroke="none" 
	d="
M236.804718,189.853516 
	C241.739670,183.675156 247.178696,178.601074 253.588608,174.550110 
	C256.875977,172.472519 258.986786,172.265915 259.648529,176.928711 
	C260.253815,181.193527 261.195038,185.413406 262.068787,189.636414 
	C262.678497,192.583374 261.068207,193.883972 258.635010,194.804489 
	C253.949585,196.577011 249.469223,198.780945 245.410355,201.740372 
	C243.335800,203.252975 241.607651,205.054123 242.160950,207.987274 
	C242.712173,210.909470 244.926285,212.022690 247.442810,212.615433 
	C250.998123,213.452835 254.600845,214.086761 258.174957,214.846832 
	C268.053528,216.947556 271.623108,221.523758 271.325470,231.662643 
	C270.878387,246.891205 256.227386,264.475159 241.401901,266.964142 
	C231.131363,268.688416 221.700439,265.015778 212.496689,261.013763 
	C209.661911,259.781128 206.681534,258.585297 204.187195,255.583481 
	C206.823486,254.130112 209.375305,254.027725 211.911743,253.685898 
	C222.436646,252.267578 233.042831,251.245743 243.181320,247.777512 
	C244.121796,247.455795 245.091415,247.162766 245.956177,246.689514 
	C247.270935,245.970047 248.706436,245.160324 248.414734,243.332962 
	C248.163864,241.761429 246.765244,241.303574 245.443298,241.071045 
	C242.012131,240.467514 238.561554,239.974731 235.119461,239.433060 
	C223.785736,237.649521 219.878464,231.840652 222.145157,220.506409 
	C224.416229,209.150269 229.716873,199.279617 236.804718,189.853516 
z"/>
<path fill="#000000" opacity="1.000000" stroke="none" 
	d="
M275.659790,133.333618 
	C273.482513,141.341248 268.614014,147.461746 263.854248,153.627411 
	C262.109039,155.888092 260.028595,155.082397 258.133972,153.713425 
	C253.955612,150.694305 249.663956,147.804932 245.705765,144.516830 
	C242.571640,141.913330 240.453934,141.773712 238.171478,145.510269 
	C235.924042,149.189484 233.201111,152.581192 230.641861,156.066025 
	C228.921356,158.408783 226.843338,159.166809 224.211639,157.385361 
	C219.393387,154.123749 214.477722,151.012177 210.114655,147.111160 
	C207.564270,144.830841 207.203964,142.469299 209.095016,139.651031 
	C212.243591,134.958618 215.439774,130.294235 218.443954,125.510086 
	C220.807129,121.746780 223.586105,121.774033 226.771103,124.198586 
	C231.636642,127.902466 236.454300,131.669220 241.751587,135.764343 
	C245.211533,131.078064 248.585175,126.797714 251.630585,122.295349 
	C254.215210,118.474190 256.994812,117.671661 260.709595,120.627449 
	C265.750275,124.638268 271.742767,127.500633 275.659790,133.333618 
z"/>
</svg>