<svg version="1.1" id="Layer_1" xmlns="http://www.w3.org/2000/svg" xmlns:xlink="http://www.w3.org/1999/xlink" x="0px" y="0px"
	 width="100%" viewBox="0 0 512 512" enable-background="new 0 0 512 512" xml:space="preserve">
<path fill="#000000" opacity="1.000000" stroke="none" 
	d="
M308.232178,108.205719 
	C294.251801,124.764877 279.717865,140.276367 263.327423,153.987259 
	C260.454407,156.390579 257.528259,157.498215 253.805832,157.300400 
	C249.327469,157.062393 244.826416,157.280487 240.336243,157.221222 
	C238.405655,157.195740 236.052261,157.719986 235.155075,155.302353 
	C234.362701,153.167099 234.946228,151.091461 236.294815,149.186829 
	C241.578552,141.724625 246.884186,134.275848 252.034500,126.721733 
	C258.876465,116.686432 265.221497,106.332214 270.865540,95.576828 
	C272.378143,92.694481 274.212860,91.532684 277.489319,91.580368 
	C288.963715,91.747383 300.442200,91.608131 311.918823,91.659363 
	C317.337952,91.683548 318.564514,93.771622 315.633514,98.362343 
	C313.494446,101.712631 310.857635,104.745102 308.232178,108.205719 
z"/>
<path fill="#000000" opacity="1.000000" stroke="none" 
	d="
M338.177124,306.756165 
	C348.908966,308.015472 353.608185,317.114197 347.752380,324.664978 
	C345.150970,328.019440 341.589111,329.704132 337.268036,328.848907 
	C332.649078,327.934753 329.582031,325.136047 328.286957,320.559418 
	C327.072784,316.268707 328.586487,312.733063 331.607971,309.763580 
	C333.291138,308.109375 335.380615,307.088928 338.177124,306.756165 
z"/>
<path fill="#000000" opacity="1.000000" stroke="none" 
	d="
M263.965576,364.793030 
	C268.558472,369.903595 269.394897,373.894470 266.929962,378.533844 
	C264.468994,383.165863 260.492340,384.986053 255.351120,384.351227 
	C250.266830,383.723511 247.365906,380.573578 246.149536,375.858734 
	C244.987152,371.353241 246.781967,367.663605 250.264008,364.903687 
	C254.549103,361.507263 259.110840,361.838196 263.965576,364.793030 
z"/>
<path fill="#000000" opacity="1.000000" stroke="none" 
	d="
M170.428574,327.916016 
	C164.852402,324.236206 162.933502,320.021240 164.363358,315.192963 
	C165.842728,310.197449 170.152710,306.739471 174.905197,306.734985 
	C180.069595,306.730133 184.475922,310.166809 185.884567,315.304535 
	C187.020523,319.447662 185.625183,323.012817 182.746201,325.781677 
	C179.394379,329.005280 175.305908,330.110382 170.428574,327.916016 
z"/>
<path fill="#000000" opacity="1.000000" stroke="none" 
	d="
M335.936554,280.251404 
	C339.599335,274.343018 343.046295,272.577789 348.229309,273.517212 
	C353.222351,274.422180 356.160248,277.458099 357.178070,282.274719 
	C358.156494,286.904724 355.825256,291.705444 351.595825,294.010468 
	C347.608124,296.183716 343.524078,296.006683 339.897217,293.343079 
	C335.584229,290.175629 334.227753,285.800354 335.936554,280.251404 
z"/>
<path fill="#000000" opacity="1.000000" stroke="none" 
	d="
M164.138458,273.849701 
	C170.862320,272.779022 175.008514,274.307739 177.433746,278.615540 
	C179.878967,282.958771 179.595367,287.146790 176.517822,291.111542 
	C172.554062,296.217987 165.011719,296.807739 160.258163,292.377258 
	C155.603149,288.038635 155.476791,280.781799 160.081009,276.438904 
	C161.144516,275.435822 162.533035,274.777252 164.138458,273.849701 
z"/>
<path fill="#000000" opacity="1.000000" stroke="none" 
	d="
M165.268463,245.622116 
	C168.380417,240.683533 172.550034,238.726151 177.841949,240.002304 
	C182.727264,241.180405 185.559387,244.678391 186.139023,249.553864 
	C186.702759,254.295868 184.449219,257.967712 180.353806,260.329926 
	C176.156036,262.751221 171.970398,262.165436 168.187042,259.409698 
	C164.141495,256.462952 163.168030,251.742783 165.268463,245.622116 
z"/>
<path fill="#000000" opacity="1.000000" stroke="none" 
	d="
M344.853607,260.065216 
	C338.386902,262.796936 333.081543,261.615295 329.924225,257.023682 
	C326.947968,252.695389 327.368500,247.107834 330.962128,243.233887 
	C334.664215,239.243027 340.449310,238.484116 345.088593,241.380753 
	C351.898438,245.632614 351.936554,253.926331 344.853607,260.065216 
z"/>
<path fill="#000000" opacity="1.000000" stroke="none" 
	d="
M330.958618,224.276398 
	C328.676239,229.238159 325.333496,232.296265 320.057953,232.181442 
	C315.565338,232.083633 312.061890,229.959152 310.202820,225.708099 
	C308.282135,221.316132 308.870392,217.133865 312.173767,213.676468 
	C315.387695,210.312683 319.312073,208.914139 323.971252,210.681091 
	C328.486298,212.393372 330.931488,215.630814 331.292175,220.411118 
	C331.378784,221.558777 331.167938,222.728882 330.958618,224.276398 
z"/>
<path fill="#000000" opacity="1.000000" stroke="none" 
	d="
M202.771530,214.422897 
	C206.574982,222.548752 204.586578,228.690918 197.582153,231.463318 
	C191.757736,233.768677 185.383072,230.639908 183.308517,224.457657 
	C181.718918,219.720596 183.499359,214.739227 187.796585,211.900909 
	C192.630447,208.708145 197.363251,209.416290 202.771530,214.422897 
z"/>
<path fill="#000000" opacity="1.000000" stroke="none" 
	d="
M263.073578,204.329041 
	C255.876282,207.681854 249.103470,205.331970 246.666489,198.963150 
	C244.409241,193.063995 247.488510,186.764923 253.705734,184.563446 
	C258.060791,183.021332 263.874512,185.089096 266.400604,189.078629 
	C269.655090,194.218506 268.672516,199.147491 263.073578,204.329041 
z"/>
<path fill="#000000" opacity="1.000000" stroke="none" 
	d="
M279.945251,205.373383 
	C278.013611,197.162201 284.455139,191.233841 290.543976,191.281342 
	C296.076935,191.324509 300.304688,194.639023 301.338989,199.757172 
	C302.473206,205.369705 300.114929,210.119797 295.034729,212.455383 
	C290.354523,214.607086 285.036377,213.179230 281.741211,208.805267 
	C281.051605,207.889847 280.608734,206.788559 279.945251,205.373383 
z"/>
<path fill="#000000" opacity="1.000000" stroke="none" 
	d="
M309.508850,344.776184 
	C311.376129,339.208221 314.976379,336.602966 320.484100,336.634399 
	C325.124481,336.660889 328.420197,338.740173 330.312378,342.984772 
	C332.283569,347.406708 331.545471,351.426819 328.381042,355.013336 
	C325.232086,358.582336 320.025482,359.562988 315.585083,357.492065 
	C310.791931,355.256561 308.811798,351.299438 309.508850,344.776184 
z"/>
<path fill="#000000" opacity="1.000000" stroke="none" 
	d="
M294.699341,355.970673 
	C300.487366,359.361023 302.451996,363.039673 301.468658,368.349762 
	C300.586792,373.111694 297.556061,376.023041 293.001312,377.144318 
	C288.274658,378.307922 283.432068,376.120087 281.064453,371.865662 
	C278.868103,367.919006 278.901123,363.860016 281.558472,360.103577 
	C284.735962,355.611816 289.154877,354.493103 294.699341,355.970673 
z"/>
<path fill="#000000" opacity="1.000000" stroke="none" 
	d="
M212.704803,200.388458 
	C215.019958,193.814102 218.755127,190.892990 223.852325,191.274399 
	C229.118530,191.668472 233.333176,195.112061 234.232376,199.755417 
	C235.251114,205.016052 232.949936,209.869370 228.274399,212.252487 
	C220.753296,216.085938 210.791458,209.594101 212.704803,200.388458 
z"/>
<path fill="#000000" opacity="1.000000" stroke="none" 
	d="
M231.740234,373.614136 
	C225.935883,378.199158 220.710220,378.462708 216.160782,374.689453 
	C212.563004,371.705475 211.443222,365.921875 213.604416,361.485901 
	C216.454666,355.635498 222.914688,353.576599 228.775345,356.650635 
	C234.785156,359.802887 236.112717,366.672699 231.740234,373.614136 
z"/>
<path fill="#000000" opacity="1.000000" stroke="none" 
	d="
M183.425781,351.083740 
	C182.078384,343.757843 185.327881,338.009369 191.140747,336.781708 
	C197.528351,335.432648 203.218231,339.019257 204.702774,345.330475 
	C205.858734,350.244873 202.812546,355.840302 197.930176,357.770752 
	C192.369324,359.969482 186.887573,357.558380 183.425781,351.083740 
z"/>
</svg>