<svg version="1.1" id="Layer_1" xmlns="http://www.w3.org/2000/svg" xmlns:xlink="http://www.w3.org/1999/xlink" x="0px" y="0px"
	 width="100%" viewBox="0 0 512 512" enable-background="new 0 0 512 512" xml:space="preserve">
<path fill="#000000" opacity="1.000000" stroke="none" 
	d="
M287.526001,109.487724 
	C298.071686,123.100090 309.825714,135.152573 321.395172,147.370926 
	C322.538116,148.577988 323.858643,149.710342 324.665283,151.123627 
	C326.538452,154.405518 325.075043,157.109192 321.362976,157.177826 
	C314.866760,157.297943 308.366333,157.171600 301.867920,157.204529 
	C299.349609,157.217285 297.460419,155.837189 295.519836,154.561798 
	C283.077423,146.384323 271.877899,136.698792 261.244781,126.320435 
	C256.324280,121.517807 256.303772,121.565956 251.439072,126.295677 
	C241.274796,136.177887 230.607788,145.457214 219.027496,153.675171 
	C215.494003,156.182709 211.863632,157.603439 207.437943,157.299088 
	C203.291977,157.013992 199.107895,157.334335 194.945724,157.212524 
	C192.900864,157.152679 190.252396,158.110413 189.106674,155.619278 
	C187.813431,152.807434 189.421783,150.597351 191.359955,148.527603 
	C196.256195,143.298950 201.057251,137.980545 205.861542,132.666550 
	C216.708069,120.669235 227.190475,108.374359 235.961945,94.737762 
	C237.384033,92.526924 239.034790,91.575684 241.668045,91.603951 
	C251.664963,91.711258 261.664398,91.716248 271.661285,91.608910 
	C274.343811,91.580109 275.864960,92.714012 277.283691,94.880409 
	C280.474823,99.753319 283.952698,104.438461 287.526001,109.487724 
z"/>
<path fill="#000000" opacity="1.000000" stroke="none" 
	d="
M348.837524,312.542847 
	C351.580811,320.125824 348.926453,326.239105 342.259491,328.489594 
	C336.584900,330.405060 330.548523,327.189331 328.479492,321.148651 
	C326.806824,316.265015 329.104126,310.731110 333.908081,308.072021 
	C338.932709,305.290833 344.254578,306.782623 348.837524,312.542847 
z"/>
<path fill="#000000" opacity="1.000000" stroke="none" 
	d="
M170.311111,307.878418 
	C177.477402,305.654572 183.027771,307.988617 185.370010,313.882904 
	C187.489578,319.216827 185.253128,325.035400 180.036591,327.758820 
	C174.944778,330.417114 168.777878,328.704865 165.734070,323.787750 
	C162.215408,318.103546 163.667740,312.688782 170.311111,307.878418 
z"/>
<path fill="#000000" opacity="1.000000" stroke="none" 
	d="
M264.581055,365.296661 
	C268.793030,370.759827 269.306854,374.697144 266.538910,379.225372 
	C263.900024,383.542480 259.912689,385.025482 255.053101,384.317261 
	C250.232224,383.614746 247.407547,380.566193 246.198532,376.048218 
	C244.935913,371.329987 246.851166,367.602264 250.490189,364.705566 
	C254.351593,361.631897 259.082275,361.809692 264.581055,365.296661 
z"/>
<path fill="#000000" opacity="1.000000" stroke="none" 
	d="
M345.244019,273.222382 
	C353.655304,272.867798 359.169495,280.185944 356.848877,287.663269 
	C355.285431,292.700989 350.615936,295.674957 345.293823,295.301971 
	C340.223053,294.946625 336.491119,291.526459 335.413513,286.246948 
	C334.438110,281.468140 336.918579,276.547638 341.536407,274.302673 
	C342.567444,273.801453 343.749420,273.610748 345.244019,273.222382 
z"/>
<path fill="#000000" opacity="1.000000" stroke="none" 
	d="
M173.850937,274.901489 
	C179.382614,279.872437 180.440933,284.446777 177.531540,289.554199 
	C174.868500,294.229187 169.804916,296.404175 164.867233,294.994019 
	C159.755249,293.534058 156.335495,288.616821 156.737564,283.304413 
	C157.332443,275.444397 164.892975,271.571869 173.850937,274.901489 
z"/>
<path fill="#000000" opacity="1.000000" stroke="none" 
	d="
M183.507156,224.986511 
	C181.886353,217.451416 184.948792,211.960754 191.349976,210.297104 
	C197.192200,208.778748 202.931320,212.413147 204.567368,218.667236 
	C206.037933,224.288757 202.658737,229.972458 196.749908,231.815842 
	C191.779541,233.366470 186.959137,230.993576 183.507156,224.986511 
z"/>
<path fill="#000000" opacity="1.000000" stroke="none" 
	d="
M163.851074,250.972229 
	C164.461990,245.011993 167.354645,241.096405 172.813858,239.900024 
	C177.571396,238.857407 181.724396,240.517517 184.445801,244.813385 
	C187.963989,250.366974 185.948578,257.447571 180.031494,260.566925 
	C174.478439,263.494385 167.499725,261.053375 164.928452,255.209137 
	C164.399765,254.007507 164.205063,252.658920 163.851074,250.972229 
z"/>
<path fill="#000000" opacity="1.000000" stroke="none" 
	d="
M340.664185,239.762405 
	C348.054810,242.244965 351.475494,247.435562 349.906067,253.200394 
	C348.242554,259.311005 342.634064,262.732483 336.523499,261.364563 
	C331.264038,260.187134 327.494232,255.265961 327.897583,250.104172 
	C328.382233,243.901978 333.185638,239.863708 340.664185,239.762405 
z"/>
<path fill="#000000" opacity="1.000000" stroke="none" 
	d="
M331.304260,220.172958 
	C330.849609,227.106415 326.832092,231.725403 321.207245,232.218826 
	C315.435699,232.725113 310.539886,228.895462 309.412048,222.992172 
	C308.395172,217.669800 311.570496,212.457001 317.009735,210.519409 
	C323.305115,208.276825 329.209412,212.097275 331.304260,220.172958 
z"/>
<path fill="#000000" opacity="1.000000" stroke="none" 
	d="
M301.685852,366.083862 
	C300.482605,374.002869 296.545959,377.626709 289.945496,377.313934 
	C284.588715,377.060150 280.128601,372.821350 279.694641,367.571808 
	C279.185089,361.408295 283.088379,356.301483 288.997833,355.400208 
	C295.565125,354.398529 300.325043,358.274750 301.685852,366.083862 
z"/>
<path fill="#000000" opacity="1.000000" stroke="none" 
	d="
M248.260788,188.432892 
	C252.306763,183.939148 256.791565,182.838593 261.987305,185.286362 
	C266.204742,187.273254 268.256531,190.847824 268.157562,195.304092 
	C268.053314,200.000610 265.511780,203.468384 261.148468,205.365036 
	C256.382965,207.436584 252.292297,205.826889 248.863983,202.474884 
	C245.256882,198.948074 245.123093,194.427917 248.260788,188.432892 
z"/>
<path fill="#000000" opacity="1.000000" stroke="none" 
	d="
M280.099182,198.774109 
	C283.682465,192.557785 287.190918,190.643158 292.704834,191.576538 
	C297.508820,192.389709 300.417206,195.197800 301.345947,199.952332 
	C302.646606,206.610809 298.386261,212.613708 291.982666,213.269897 
	C285.097778,213.975403 279.745209,209.139969 279.685730,202.122986 
	C279.677368,201.135025 279.854797,200.145462 280.099182,198.774109 
z"/>
<path fill="#000000" opacity="1.000000" stroke="none" 
	d="
M309.928467,343.277954 
	C313.707825,337.460144 317.530914,335.588013 323.020569,336.846069 
	C327.774323,337.935425 330.407013,341.243500 331.202362,345.873169 
	C332.020874,350.637817 330.025085,354.393280 326.002411,356.890167 
	C321.930115,359.417847 317.648712,359.182098 313.817261,356.441956 
	C309.395721,353.279785 308.171448,348.839996 309.928467,343.277954 
z"/>
<path fill="#000000" opacity="1.000000" stroke="none" 
	d="
M223.922211,213.301102 
	C216.683731,212.520477 212.953064,209.081055 212.648178,203.300858 
	C212.345688,197.566574 215.488937,192.916992 220.555176,191.604568 
	C225.666702,190.280441 231.220261,192.852493 233.431625,197.568115 
	C236.711304,204.561890 232.646240,211.596069 223.922211,213.301102 
z"/>
<path fill="#000000" opacity="1.000000" stroke="none" 
	d="
M228.982193,356.750000 
	C235.103760,361.687653 236.188171,367.764343 232.201477,373.000397 
	C228.550095,377.796051 222.257111,378.772064 217.119156,375.339630 
	C212.588821,372.313110 211.128311,366.177551 213.748825,361.180969 
	C216.686569,355.579468 221.469147,354.101196 228.982193,356.750000 
z"/>
<path fill="#000000" opacity="1.000000" stroke="none" 
	d="
M202.916290,353.736572 
	C199.265610,358.365601 194.862335,359.434448 189.804565,357.647522 
	C185.446609,356.107819 183.126160,352.704041 182.815231,348.229858 
	C182.486618,343.501801 184.713348,339.918152 188.899719,337.669189 
	C192.824295,335.560883 198.489914,336.509857 201.816025,339.737000 
	C205.291473,343.109039 205.761200,347.968719 202.916290,353.736572 
z"/>
</svg>