<svg version="1.1" id="Layer_1" xmlns="http://www.w3.org/2000/svg" xmlns:xlink="http://www.w3.org/1999/xlink" x="0px" y="0px"
	 width="100%" viewBox="0 0 512 512" enable-background="new 0 0 512 512" xml:space="preserve">
<path fill="#000000" opacity="1.000000" stroke="none" 
	d="
M330.532410,110.380188 
	C328.895325,122.390877 325.094025,133.113235 317.875519,142.403656 
	C307.688477,155.514603 289.712891,160.081650 272.628998,154.015961 
	C264.274048,151.049515 256.707581,146.466644 248.948837,142.278320 
	C244.264374,139.749557 239.596405,137.146179 234.499542,135.510666 
	C221.490250,131.336227 212.277542,135.788910 207.486969,148.495834 
	C204.194962,157.227783 204.192688,157.362198 194.732330,157.201447 
	C182.741516,156.997726 181.865143,160.166351 184.882278,145.019745 
	C186.910980,134.835205 190.599228,125.123131 197.871918,117.340981 
	C210.374283,103.962822 228.195267,100.734962 245.987122,108.165367 
	C254.929352,111.899918 263.132050,117.015640 271.730591,121.386581 
	C274.545807,122.817657 277.365723,124.303307 280.323517,125.378784 
	C292.042633,129.639938 302.526306,125.910370 306.191010,114.111015 
	C309.120941,104.677498 314.160309,102.307968 322.767181,103.729919 
	C323.739410,103.890541 324.761749,103.732895 325.760254,103.751823 
	C331.325897,103.857277 331.674866,104.306137 330.532410,110.380188 
z"/>
<path fill="#000000" opacity="1.000000" stroke="none" 
	d="
M344.441711,308.186218 
	C349.777771,312.365936 351.312256,316.449829 349.609039,321.226196 
	C347.932251,325.928436 343.191376,329.347595 338.677856,329.109833 
	C333.818207,328.853790 329.628876,325.406128 328.268036,320.503876 
	C327.131897,316.410889 328.453674,312.917480 331.307556,310.073395 
	C334.996552,306.397034 339.362976,305.783875 344.441711,308.186218 
z"/>
<path fill="#000000" opacity="1.000000" stroke="none" 
	d="
M257.051666,384.442627 
	C249.902817,383.643311 245.624252,379.232880 245.806442,373.239410 
	C245.981155,367.491730 250.957565,362.696411 256.810638,362.635681 
	C263.036865,362.571045 267.751495,366.720520 268.237976,372.693207 
	C268.735046,378.795563 264.316437,383.601959 257.051666,384.442627 
z"/>
<path fill="#000000" opacity="1.000000" stroke="none" 
	d="
M184.244476,323.969757 
	C180.808197,328.186829 176.921967,330.093994 171.800964,328.435059 
	C166.991898,326.877197 164.347229,323.380829 163.972290,318.578583 
	C163.607910,313.911713 165.993607,310.313416 170.082153,308.016632 
	C174.140991,305.736481 179.472458,306.618835 182.903870,310.003693 
	C186.545456,313.595886 187.045715,318.019867 184.244476,323.969757 
z"/>
<path fill="#000000" opacity="1.000000" stroke="none" 
	d="
M157.550873,280.041809 
	C160.079163,275.407776 163.564346,273.006317 168.588867,273.350708 
	C172.890549,273.645538 176.151794,275.631348 177.982254,279.623840 
	C180.090637,284.222626 179.153976,288.429413 175.770264,291.964996 
	C172.501846,295.380157 168.408630,296.329407 163.946274,294.594849 
	C159.308990,292.792328 156.917114,289.237915 156.761185,284.289734 
	C156.720718,283.005402 157.173920,281.705566 157.550873,280.041809 
z"/>
<path fill="#000000" opacity="1.000000" stroke="none" 
	d="
M329.880066,215.537781 
	C332.332336,222.083603 331.415466,226.264542 327.037323,229.765305 
	C323.210938,232.824890 318.172668,233.036194 314.016602,230.311432 
	C310.191681,227.803802 308.271423,222.483536 309.682404,218.001587 
	C311.055725,213.639404 314.188141,210.887100 318.548492,210.150986 
	C323.157562,209.372910 327.003754,211.223160 329.880066,215.537781 
z"/>
<path fill="#000000" opacity="1.000000" stroke="none" 
	d="
M164.058197,252.554291 
	C164.157074,245.691406 167.097534,241.329849 172.208237,239.932236 
	C176.696304,238.704895 181.870361,240.737747 184.400391,244.722443 
	C187.864426,250.178146 186.202530,256.863190 180.541489,260.245056 
	C175.274185,263.391693 168.527420,261.605103 165.436661,256.183594 
	C164.867538,255.185349 164.573532,254.030258 164.058197,252.554291 
z"/>
<path fill="#000000" opacity="1.000000" stroke="none" 
	d="
M342.283905,240.097626 
	C348.422760,243.139526 351.184448,247.903656 350.004059,252.872757 
	C348.822845,257.845245 344.081848,261.817261 339.312927,261.829803 
	C333.830658,261.844238 329.485138,258.285278 328.143646,252.907959 
	C326.480347,246.240784 333.523529,237.484970 342.283905,240.097626 
z"/>
<path fill="#000000" opacity="1.000000" stroke="none" 
	d="
M187.854721,230.424744 
	C182.669586,225.618149 181.470749,221.203674 183.785461,216.486145 
	C185.940018,212.095016 190.851685,209.325851 195.189941,210.136063 
	C199.790573,210.995285 203.035339,213.320602 204.463028,218.085114 
	C205.843292,222.691376 204.437988,226.424698 201.142242,229.336227 
	C197.296249,232.733871 192.817978,233.296799 187.854721,230.424744 
z"/>
<path fill="#000000" opacity="1.000000" stroke="none" 
	d="
M339.248810,292.936646 
	C335.239319,288.849457 333.928619,284.459045 336.346771,279.490204 
	C338.336182,275.402313 341.765930,273.112610 346.352844,273.297638 
	C351.227661,273.494232 354.995972,275.730591 356.685852,280.560150 
	C358.350616,285.318237 357.083496,289.450653 353.393097,292.747498 
	C349.587646,296.147156 345.080048,296.202118 339.248810,292.936646 
z"/>
<path fill="#000000" opacity="1.000000" stroke="none" 
	d="
M286.840698,376.771729 
	C280.470337,372.995148 278.321259,368.495392 279.981506,363.033356 
	C281.363892,358.485413 286.304474,355.021576 291.038116,355.281525 
	C297.451996,355.633728 301.850677,360.356842 301.706268,366.736633 
	C301.573395,372.606567 296.751526,377.254669 290.671539,377.302216 
	C289.520966,377.311218 288.368439,377.064392 286.840698,376.771729 
z"/>
<path fill="#000000" opacity="1.000000" stroke="none" 
	d="
M261.543274,185.069336 
	C267.337860,188.715988 269.304871,193.105896 267.678284,198.115295 
	C266.082428,203.030029 261.591644,206.420486 256.917969,206.239182 
	C251.803436,206.040756 247.462219,202.438293 246.186615,197.334000 
	C244.094803,188.963654 251.899536,182.499023 261.543274,185.069336 
z"/>
<path fill="#000000" opacity="1.000000" stroke="none" 
	d="
M300.876282,206.631226 
	C297.010132,212.452133 292.920380,214.506744 287.810516,213.011978 
	C283.320251,211.698456 280.381012,208.674393 279.739410,203.883850 
	C279.072418,198.904221 281.415131,194.536484 285.851349,192.417038 
	C289.772675,190.543625 293.711548,190.898438 297.185913,193.353424 
	C301.733734,196.566910 302.201385,201.243225 300.876282,206.631226 
z"/>
<path fill="#000000" opacity="1.000000" stroke="none" 
	d="
M327.061646,338.724426 
	C332.139252,344.417633 332.682526,349.448029 329.032501,354.182312 
	C325.810059,358.361969 320.384949,359.710236 315.629822,357.513153 
	C309.956757,354.891937 307.498108,348.337921 310.123474,342.838165 
	C312.408813,338.050781 319.289703,333.976593 327.061646,338.724426 
z"/>
<path fill="#000000" opacity="1.000000" stroke="none" 
	d="
M233.487183,206.912476 
	C230.592850,211.926987 226.568924,214.186295 221.249939,213.101974 
	C216.900436,212.215317 213.682587,209.528046 212.824890,204.982971 
	C211.893036,200.045013 213.230835,195.757584 217.690338,192.894485 
	C221.816986,190.245102 226.039474,190.802231 229.835281,193.339539 
	C234.638611,196.550278 235.225662,201.321396 233.487183,206.912476 
z"/>
<path fill="#000000" opacity="1.000000" stroke="none" 
	d="
M231.479507,358.609009 
	C235.152725,364.211151 235.358047,368.589966 232.395599,372.705444 
	C229.568024,376.633514 225.662354,378.028900 221.042542,377.126129 
	C214.670441,375.881042 211.023773,369.272247 212.979156,362.864166 
	C214.793274,356.918976 221.397049,353.730835 227.400528,356.022705 
	C228.763550,356.543030 229.943237,357.543549 231.479507,358.609009 
z"/>
<path fill="#000000" opacity="1.000000" stroke="none" 
	d="
M189.845978,337.177368 
	C200.162872,335.865112 206.784821,341.690033 204.736053,349.767670 
	C203.465347,354.777679 199.386536,358.206909 194.489609,358.382263 
	C188.997833,358.578918 184.779648,355.634399 183.201157,350.502289 
	C181.651886,345.465210 183.813126,340.931610 189.845978,337.177368 
z"/>
</svg>