<svg version="1.1" id="Layer_1" xmlns="http://www.w3.org/2000/svg" xmlns:xlink="http://www.w3.org/1999/xlink" x="0px" y="0px"
	 width="100%" viewBox="0 0 512 512" enable-background="new 0 0 512 512" xml:space="preserve">
<path fill="#000000" opacity="1.000000" stroke="none" 
	d="
M264.999939,157.265121 
	C243.850296,157.257401 223.199738,157.144119 202.551712,157.323212 
	C197.981735,157.362839 196.331024,155.893967 196.576569,151.293152 
	C196.904495,145.149017 196.944107,138.956863 196.568710,132.818283 
	C196.273407,127.989265 198.373535,126.838120 202.705856,126.871559 
	C220.023849,127.005249 237.343521,126.914177 254.662582,126.914818 
	C273.313873,126.915512 291.965210,126.906578 310.616425,126.942825 
	C316.743622,126.954735 317.076569,127.326393 317.113373,133.503387 
	C317.148071,139.331696 316.912750,145.170883 317.198608,150.985519 
	C317.428955,155.670349 315.866943,157.437027 310.960785,157.351654 
	C295.811279,157.088028 280.654144,157.261292 264.999939,157.265121 
z"/>
<path fill="#000000" opacity="1.000000" stroke="none" 
	d="
M332.957397,308.698212 
	C339.614746,305.514465 345.699829,307.059052 348.758545,312.411835 
	C351.606781,317.396271 350.164551,323.652740 345.412567,326.926514 
	C340.529999,330.290314 334.354309,329.524841 330.648895,325.096710 
	C326.327545,319.932434 326.996979,314.457245 332.957397,308.698212 
z"/>
<path fill="#000000" opacity="1.000000" stroke="none" 
	d="
M263.320190,364.327271 
	C268.342896,369.128113 269.419434,373.425903 267.080688,378.277252 
	C264.898834,382.803131 260.546661,385.064606 255.156815,384.324097 
	C250.097763,383.628998 247.256149,380.400909 246.104446,375.670654 
	C245.054840,371.359711 246.793350,367.819550 250.023331,365.085938 
	C254.035507,361.690247 258.476379,361.896362 263.320190,364.327271 
z"/>
<path fill="#000000" opacity="1.000000" stroke="none" 
	d="
M182.392990,309.527588 
	C186.794540,315.035858 187.342209,318.835846 184.547028,323.461304 
	C182.186005,327.368256 178.603653,329.455933 174.111176,328.958679 
	C169.025635,328.395752 165.546844,325.409027 164.252670,320.325317 
	C163.095062,315.778137 164.885895,312.120514 168.280746,309.246338 
	C172.305222,305.839081 176.242828,305.934784 182.392990,309.527588 
z"/>
<path fill="#000000" opacity="1.000000" stroke="none" 
	d="
M182.827026,219.370300 
	C184.435776,213.572021 188.021591,210.169113 193.569962,210.035172 
	C198.069489,209.926575 201.982498,211.956787 203.935623,216.522903 
	C206.641968,222.849899 203.613434,229.476547 196.986893,231.713562 
	C191.168961,233.677567 184.711411,230.017181 183.086716,223.735321 
	C182.760452,222.473877 182.864487,221.101151 182.827026,219.370300 
z"/>
<path fill="#000000" opacity="1.000000" stroke="none" 
	d="
M320.824951,209.940613 
	C329.630096,210.765839 333.228302,219.624634 330.452881,225.426224 
	C328.319946,229.884811 323.708099,232.693085 319.214050,232.173904 
	C314.026276,231.574600 310.397766,228.177048 309.404541,222.988892 
	C308.510559,218.318893 310.731415,213.821213 315.202087,211.328720 
	C316.817810,210.427902 318.537079,209.828018 320.824951,209.940613 
z"/>
<path fill="#000000" opacity="1.000000" stroke="none" 
	d="
M165.075485,255.564606 
	C162.780563,248.157898 165.731125,241.852432 172.024796,239.986145 
	C177.752869,238.287552 183.904404,241.753113 185.760574,247.724365 
	C187.275055,252.596451 184.701904,258.235413 179.849808,260.677582 
	C174.779984,263.229340 169.274567,261.435547 165.075485,255.564606 
z"/>
<path fill="#000000" opacity="1.000000" stroke="none" 
	d="
M342.840515,261.149353 
	C335.934662,262.392029 331.372925,260.424683 329.031158,255.464233 
	C326.902679,250.955582 328.076691,245.620270 331.917358,242.347733 
	C335.799316,239.039993 341.091919,238.724289 345.342712,241.546906 
	C352.698730,246.431458 351.691803,255.616333 342.840515,261.149353 
z"/>
<path fill="#000000" opacity="1.000000" stroke="none" 
	d="
M173.415863,293.810364 
	C167.269608,296.342529 162.359039,295.403809 159.168091,291.122711 
	C156.215561,287.161469 155.665558,282.905121 158.427795,278.559845 
	C161.311462,274.023499 166.268402,272.201996 171.477600,273.842926 
	C175.699875,275.172974 178.049225,278.249908 178.835205,282.509583 
	C179.728989,287.353394 177.518326,290.848663 173.415863,293.810364 
z"/>
<path fill="#000000" opacity="1.000000" stroke="none" 
	d="
M335.942200,280.254578 
	C339.763306,274.137756 343.240326,272.440216 348.835510,273.670959 
	C353.616577,274.722626 356.330414,277.837006 357.206451,282.494476 
	C358.085052,287.165558 355.634735,291.970001 351.315460,294.157562 
	C347.244720,296.219269 343.129608,295.928223 339.573578,293.112213 
	C335.538666,289.916962 334.246094,285.628143 335.942200,280.254578 
z"/>
<path fill="#000000" opacity="1.000000" stroke="none" 
	d="
M265.905731,201.694855 
	C260.712708,206.574692 257.087097,207.381714 252.212875,204.955856 
	C247.894592,202.806686 245.581589,199.169067 245.925110,194.479935 
	C246.279770,189.638855 249.033646,186.092331 253.811859,184.540283 
	C258.453003,183.032791 262.520721,184.521881 265.516968,188.007996 
	C269.043030,192.110535 269.151337,196.774475 265.905731,201.694855 
z"/>
<path fill="#000000" opacity="1.000000" stroke="none" 
	d="
M296.765869,193.012497 
	C301.498260,196.558685 302.620758,201.102768 301.009888,206.086288 
	C299.701843,210.132782 296.525543,212.647919 292.200775,213.234421 
	C287.452698,213.878311 283.622070,212.082092 281.190674,207.996536 
	C278.653809,203.733734 278.954956,199.394257 282.035553,195.442078 
	C285.399017,191.127014 290.073700,190.330154 296.765869,193.012497 
z"/>
<path fill="#000000" opacity="1.000000" stroke="none" 
	d="
M293.206451,355.641907 
	C299.529846,358.121613 302.088409,361.814209 301.654419,367.334991 
	C301.306244,371.764221 297.815704,375.949890 293.533539,377.073303 
	C288.857330,378.300079 284.014099,376.470947 281.352814,372.314362 
	C279.002930,368.644196 278.819580,364.710083 281.015625,360.982941 
	C283.628357,356.548553 287.595245,354.555237 293.206451,355.641907 
z"/>
<path fill="#000000" opacity="1.000000" stroke="none" 
	d="
M325.846863,357.029602 
	C318.634338,359.793030 312.420898,357.634094 310.003601,351.835571 
	C307.685822,346.275757 310.046173,340.198059 315.541931,337.574738 
	C320.404816,335.253540 326.412659,336.803680 329.311523,341.127594 
	C332.919220,346.508789 331.825104,351.978485 325.846863,357.029602 
z"/>
<path fill="#000000" opacity="1.000000" stroke="none" 
	d="
M233.977036,198.741440 
	C236.676697,208.969055 226.935333,215.906235 219.278778,212.499481 
	C214.485428,210.366699 212.276245,206.701996 212.638519,201.431061 
	C212.972626,196.570190 215.594498,193.415527 219.973465,191.781235 
	C224.246262,190.186569 229.585754,192.008942 232.385605,195.752045 
	C232.973587,196.538147 233.355072,197.478745 233.977036,198.741440 
z"/>
<path fill="#000000" opacity="1.000000" stroke="none" 
	d="
M232.215668,372.975006 
	C226.772110,378.037811 221.725983,378.650970 216.811203,375.151215 
	C212.730011,372.245056 211.307465,366.535034 213.474182,361.756622 
	C216.150299,355.854797 222.594086,353.609558 228.506836,356.518738 
	C234.463959,359.449738 236.078140,366.076080 232.215668,372.975006 
z"/>
<path fill="#000000" opacity="1.000000" stroke="none" 
	d="
M183.144669,344.685791 
	C184.942993,339.936340 187.808411,337.052124 192.697052,336.659698 
	C197.214279,336.297119 200.911026,337.838379 203.288513,341.739258 
	C205.753723,345.784027 205.684311,349.903687 202.840683,353.832764 
	C200.001968,357.755005 196.083649,359.102509 191.480316,358.169830 
	C186.790573,357.219666 183.972778,354.109009 182.973053,349.495178 
	C182.668091,348.087708 182.978317,346.546875 183.144669,344.685791 
z"/>
</svg>