<svg version="1.1" id="Layer_1" xmlns="http://www.w3.org/2000/svg" xmlns:xlink="http://www.w3.org/1999/xlink" x="0px" y="0px"
	 width="100%" viewBox="0 0 512 512" enable-background="new 0 0 512 512" xml:space="preserve">
<path fill="#000000" opacity="1.000000" stroke="none" 
	d="
M296.856262,102.426407 
	C303.338013,101.284584 309.497772,101.937965 315.640594,101.788055 
	C319.798279,101.686584 319.622345,104.685249 319.197357,107.339470 
	C316.306213,125.395081 308.246796,140.538574 291.453949,148.806076 
	C267.526703,160.585968 242.972443,160.873840 219.073044,148.379166 
	C204.184601,140.595444 197.280914,126.910187 194.799744,110.898170 
	C193.396225,101.840645 193.775314,101.781906 203.302078,101.773804 
	C203.468521,101.773659 203.635056,101.769737 203.801392,101.773758 
	C207.619583,101.865982 211.759781,101.063904 215.170090,102.290672 
	C218.977051,103.660133 217.733475,108.647629 219.131943,111.902771 
	C222.583191,119.936066 228.836456,124.077782 236.943726,125.516800 
	C248.639374,127.592743 260.448914,127.612907 272.180084,125.668694 
	C284.456512,123.634109 292.931580,117.175476 295.700317,104.473503 
	C295.836792,103.847328 296.228577,103.276794 296.856262,102.426407 
z"/>
<path fill="#000000" opacity="1.000000" stroke="none" 
	d="
M341.427368,307.046783 
	C348.063477,309.718781 351.091644,314.254211 350.108429,319.566010 
	C349.168915,324.641785 344.379822,328.926514 339.435120,329.115173 
	C334.380310,329.308075 329.655457,325.488647 328.173004,320.294464 
	C326.279999,313.661682 333.470215,304.934204 341.427368,307.046783 
z"/>
<path fill="#000000" opacity="1.000000" stroke="none" 
	d="
M183.490570,310.639099 
	C186.887970,315.356934 187.252335,319.895203 183.965958,324.349518 
	C181.420670,327.799377 177.892258,329.626678 173.555710,328.889740 
	C168.913269,328.100830 165.748978,325.364960 164.360336,320.747406 
	C163.045532,316.375458 165.006989,311.349609 169.126083,308.607117 
	C173.612640,305.619873 177.908066,306.148621 183.490570,310.639099 
z"/>
<path fill="#000000" opacity="1.000000" stroke="none" 
	d="
M263.320312,364.326965 
	C268.264984,369.060730 269.355072,373.122192 267.228027,377.910248 
	C265.132721,382.626801 260.971649,384.923889 255.433243,384.324249 
	C250.293427,383.767761 247.387894,380.592041 246.144211,375.838409 
	C245.009750,371.502167 246.723389,367.924561 249.950821,365.143250 
	C253.967102,361.682129 258.439850,361.887360 263.320312,364.326965 
z"/>
<path fill="#000000" opacity="1.000000" stroke="none" 
	d="
M351.227936,274.423828 
	C356.978851,278.554047 358.669373,283.174011 356.573578,288.273010 
	C354.505829,293.303802 350.012299,295.933960 344.629669,295.263977 
	C339.773773,294.659515 336.123566,290.793152 335.250427,285.604431 
	C334.180939,279.248871 340.995880,270.198669 351.227936,274.423828 
z"/>
<path fill="#000000" opacity="1.000000" stroke="none" 
	d="
M163.431259,274.133667 
	C170.680084,272.550720 175.501434,274.391693 177.857254,279.341187 
	C180.107651,284.069153 178.880905,289.574890 174.845932,292.856171 
	C169.912720,296.867920 162.656265,295.943054 158.920822,290.826324 
	C154.759415,285.126221 156.319214,278.934662 163.431259,274.133667 
z"/>
<path fill="#000000" opacity="1.000000" stroke="none" 
	d="
M327.876129,250.972717 
	C328.494110,245.025009 331.369110,241.096252 336.825989,239.898697 
	C341.583588,238.854584 345.726776,240.542831 348.446411,244.823059 
	C351.945953,250.330719 349.917389,257.466095 344.040619,260.585022 
	C338.547821,263.500153 331.483673,261.021454 328.939117,255.210693 
	C328.412903,254.008942 328.224670,252.659180 327.876129,250.972717 
z"/>
<path fill="#000000" opacity="1.000000" stroke="none" 
	d="
M178.830170,261.128357 
	C171.948685,262.400909 167.378159,260.433563 165.028320,255.460648 
	C162.970947,251.106644 163.975433,245.962051 167.524521,242.676071 
	C171.259857,239.217606 176.623444,238.563217 180.898743,241.296143 
	C189.013382,246.483276 187.492477,257.447052 178.830170,261.128357 
z"/>
<path fill="#000000" opacity="1.000000" stroke="none" 
	d="
M310.986450,215.203415 
	C314.671265,210.523254 318.986755,208.671509 324.387085,210.852081 
	C329.037201,212.729691 331.403931,216.351624 331.301605,221.373367 
	C331.197968,226.461807 328.341675,229.747925 323.789642,231.525055 
	C319.457977,233.216171 315.427338,232.099365 312.369720,228.835571 
	C308.722321,224.942169 308.042755,220.350525 310.986450,215.203415 
z"/>
<path fill="#000000" opacity="1.000000" stroke="none" 
	d="
M204.803894,219.501160 
	C204.787750,227.024765 200.772461,231.805344 194.538483,232.238403 
	C188.970596,232.625183 183.759598,228.398148 182.834030,222.744064 
	C181.937897,217.269714 185.614288,211.893814 191.322922,210.330994 
	C197.195129,208.723404 202.487732,212.199753 204.803894,219.501160 
z"/>
<path fill="#000000" opacity="1.000000" stroke="none" 
	d="
M246.185898,192.652679 
	C248.910187,183.347015 259.602814,181.046783 265.689575,188.191574 
	C268.593292,191.599976 269.160461,195.716980 266.998383,199.859360 
	C264.914032,203.852768 261.620636,206.345337 257.035797,206.176437 
	C252.394394,206.005463 248.759842,203.758301 246.828583,199.358704 
	C245.956100,197.371109 245.457794,195.242538 246.185898,192.652679 
z"/>
<path fill="#000000" opacity="1.000000" stroke="none" 
	d="
M296.327332,211.709824 
	C290.079102,214.377548 285.561188,213.524689 282.065948,209.303146 
	C279.010254,205.612488 278.740204,200.321152 281.403412,196.321213 
	C284.215088,192.098267 289.055145,190.304092 294.063416,191.816681 
	C298.039307,193.017456 300.549744,195.704758 301.340881,199.847794 
	C302.271301,204.720032 300.911896,208.692123 296.327332,211.709824 
z"/>
<path fill="#000000" opacity="1.000000" stroke="none" 
	d="
M297.398743,357.447571 
	C303.075104,363.724121 302.946472,370.889496 297.394958,375.080902 
	C292.094971,379.082306 284.886017,377.804749 281.262756,372.221985 
	C278.704559,368.280273 279.086426,362.854828 282.178467,359.211700 
	C285.813660,354.928619 290.894592,354.250061 297.398743,357.447571 
z"/>
<path fill="#000000" opacity="1.000000" stroke="none" 
	d="
M330.377319,343.151794 
	C332.274506,350.348846 329.556946,356.212585 323.790771,358.059235 
	C318.415009,359.780853 312.202301,357.005402 310.033142,351.913177 
	C307.671265,346.368500 309.976105,340.292877 315.456329,337.617493 
	C320.968933,334.926300 326.515015,336.862061 330.377319,343.151794 
z"/>
<path fill="#000000" opacity="1.000000" stroke="none" 
	d="
M228.967224,192.785614 
	C235.095428,197.629837 236.189301,203.741806 232.186829,208.969131 
	C228.405426,213.907761 221.798935,214.799622 216.723648,211.056610 
	C212.528671,207.962784 211.248657,201.981461 213.757431,197.195618 
	C216.690033,191.601273 221.519012,190.115265 228.967224,192.785614 
z"/>
<path fill="#000000" opacity="1.000000" stroke="none" 
	d="
M217.292633,357.150360 
	C223.602570,354.108276 229.418243,355.307953 232.595276,360.016144 
	C235.524948,364.357727 234.922729,370.504883 231.206970,374.187592 
	C227.277832,378.081848 221.301010,378.342224 216.624847,375.076263 
	C211.267212,371.334473 211.033035,361.084198 217.292633,357.150360 
z"/>
<path fill="#000000" opacity="1.000000" stroke="none" 
	d="
M186.435242,339.308655 
	C192.318710,335.597107 197.708618,335.822021 201.750854,339.679565 
	C205.251038,343.019836 205.966553,348.638611 203.436249,352.914154 
	C200.048996,358.637604 192.981659,360.218048 187.474686,356.483490 
	C181.833755,352.658020 181.317154,346.130127 186.435242,339.308655 
z"/>
</svg>