<svg version="1.1" id="Layer_1" xmlns="http://www.w3.org/2000/svg" xmlns:xlink="http://www.w3.org/1999/xlink" x="0px" y="0px"
	 width="100%" viewBox="0 0 512 512" enable-background="new 0 0 512 512" xml:space="preserve">
<path fill="#000000" opacity="1.000000" stroke="none" 
	d="
M232.247253,109.542343 
	C240.339081,116.419800 240.509033,125.042862 238.311874,133.944687 
	C236.325790,141.991425 230.387222,146.107437 222.460098,146.945312 
	C210.881088,148.169235 200.828613,141.557449 200.680191,128.796799 
	C200.645569,125.821083 200.479233,122.745201 201.117477,119.881195 
	C203.707443,108.258812 215.605453,102.798805 227.890350,107.413170 
	C229.282318,107.936020 230.589706,108.684128 232.247253,109.542343 
z"/>
<path fill="#000000" opacity="1.000000" stroke="none" 
	d="
M308.931580,111.053650 
	C315.344635,118.993355 315.720337,127.530624 312.321472,136.269882 
	C309.377289,143.840088 300.935089,148.209930 292.780182,147.041931 
	C282.889862,145.625381 277.153412,140.155411 275.792114,130.842987 
	C273.780884,117.084724 279.753571,107.585388 291.821991,106.071304 
	C297.921692,105.306053 303.732574,106.784317 308.931580,111.053650 
z"/>
<path fill="#000000" opacity="1.000000" stroke="none" 
	d="
M337.362610,306.840363 
	C344.492523,307.093964 348.454010,309.696442 349.850616,315.035980 
	C351.120819,319.892181 349.411774,323.903351 345.498077,326.822083 
	C340.448822,330.587708 333.695068,329.432709 330.122162,324.420563 
	C326.371155,319.158691 327.542999,312.354126 332.921631,308.755432 
	C334.135620,307.943176 335.602264,307.508514 337.362610,306.840363 
z"/>
<path fill="#000000" opacity="1.000000" stroke="none" 
	d="
M268.245789,373.903412 
	C265.749359,384.007141 256.818909,387.851257 249.967606,382.059204 
	C246.410904,379.052429 244.788620,375.106110 246.384109,370.506531 
	C247.958664,365.967316 250.977982,362.938843 256.135345,362.635193 
	C261.337524,362.328949 265.160400,364.337891 267.233002,369.190033 
	C267.803925,370.526611 267.930573,372.052979 268.245789,373.903412 
z"/>
<path fill="#000000" opacity="1.000000" stroke="none" 
	d="
M185.920837,320.376129 
	C181.732712,329.603638 172.884781,331.920380 167.071442,325.540253 
	C163.921890,322.083649 162.801422,317.996216 164.945221,313.539337 
	C166.984222,309.300354 170.324554,306.643738 175.155945,306.792603 
	C179.835297,306.936798 183.401733,309.164520 185.296143,313.653229 
	C186.158890,315.697510 186.557983,317.788391 185.920837,320.376129 
z"/>
<path fill="#000000" opacity="1.000000" stroke="none" 
	d="
M159.416153,291.471130 
	C156.104385,286.789734 155.581512,282.293549 158.885651,277.841095 
	C161.857437,273.836456 165.920990,272.555908 170.750366,273.689697 
	C175.520020,274.809509 178.069168,278.070496 178.861053,282.674469 
	C179.721512,287.677002 177.362350,291.336334 173.253311,293.886780 
	C168.913879,296.580200 164.732925,295.843750 159.416153,291.471130 
z"/>
<path fill="#000000" opacity="1.000000" stroke="none" 
	d="
M313.967163,230.304962 
	C308.882385,225.158096 307.899658,220.495300 310.610352,215.782394 
	C313.101166,211.451752 317.866913,209.227798 322.395935,210.282593 
	C328.831573,211.781433 332.650421,217.694473 331.111145,223.776978 
	C329.545959,229.961914 322.956543,233.477783 316.583832,231.499725 
	C315.797028,231.255478 315.063385,230.839874 313.967163,230.304962 
z"/>
<path fill="#000000" opacity="1.000000" stroke="none" 
	d="
M170.999542,240.417328 
	C178.231583,239.002869 182.787231,240.944214 185.168945,246.119659 
	C187.286102,250.720230 186.069000,255.908600 182.106766,259.173584 
	C177.200516,263.216431 169.875214,262.391937 166.159760,257.378693 
	C161.882217,251.606979 163.617065,245.101639 170.999542,240.417328 
z"/>
<path fill="#000000" opacity="1.000000" stroke="none" 
	d="
M331.906006,259.215027 
	C327.398499,253.840515 326.728577,249.958344 329.484344,245.340576 
	C331.911682,241.273163 335.510620,239.169571 340.335876,239.746872 
	C345.347321,240.346451 348.526489,243.274704 349.855865,248.059525 
	C351.107788,252.565475 349.414185,256.277832 346.028351,259.196228 
	C342.036316,262.637085 337.957947,262.630981 331.906006,259.215027 
z"/>
<path fill="#000000" opacity="1.000000" stroke="none" 
	d="
M202.771423,214.423950 
	C206.580597,222.555435 204.596863,228.683487 197.583099,231.462753 
	C191.761902,233.769470 185.382401,230.639648 183.309769,224.460236 
	C181.721649,219.725296 183.501419,214.746185 187.798004,211.904129 
	C192.626129,208.710449 197.345490,209.416092 202.771423,214.423950 
z"/>
<path fill="#000000" opacity="1.000000" stroke="none" 
	d="
M348.563293,295.204163 
	C338.931366,295.311951 333.292419,288.979218 335.651276,281.229156 
	C337.083435,276.523682 341.350739,273.211029 345.954865,273.230652 
	C351.168549,273.252869 355.496704,276.350067 356.939697,281.091309 
	C358.308380,285.588440 356.556763,290.602142 352.527649,293.378632 
	C351.450470,294.120911 350.167969,294.565186 348.563293,295.204163 
z"/>
<path fill="#000000" opacity="1.000000" stroke="none" 
	d="
M265.370117,187.706879 
	C268.835449,192.370026 269.269257,196.929443 266.065948,201.408493 
	C263.462341,205.048981 259.812042,207.009552 255.238907,206.003723 
	C250.481628,204.957382 247.130325,202.130493 246.127060,197.160828 
	C245.161499,192.377853 247.113190,188.653610 250.953140,185.966125 
	C255.473831,182.802261 259.410583,183.298233 265.370117,187.706879 
z"/>
<path fill="#000000" opacity="1.000000" stroke="none" 
	d="
M280.093628,198.771729 
	C283.670319,192.550644 287.165192,190.646820 292.707031,191.576599 
	C297.519836,192.384048 300.418884,195.198578 301.351532,199.955231 
	C302.656067,206.608582 298.385376,212.626236 291.981628,213.272858 
	C285.065033,213.971252 279.742035,209.161072 279.685120,202.123627 
	C279.677124,201.134735 279.851288,200.144379 280.093628,198.771729 
z"/>
<path fill="#000000" opacity="1.000000" stroke="none" 
	d="
M287.122498,355.830200 
	C292.482422,354.632751 296.852661,355.631165 299.771088,360.062500 
	C302.355560,363.986816 302.511139,368.207397 299.914429,372.263977 
	C297.312744,376.328339 293.438263,377.957123 288.760132,377.204224 
	C284.029877,376.442902 280.964020,373.463501 279.859436,368.859711 
	C278.530029,363.319122 280.747437,359.435059 287.122498,355.830200 
z"/>
<path fill="#000000" opacity="1.000000" stroke="none" 
	d="
M322.372498,358.334076 
	C315.332275,358.392273 311.419281,356.099609 309.764526,351.118011 
	C308.169708,346.316650 309.393646,342.194061 313.235443,339.027954 
	C316.933441,335.980408 321.222382,335.733856 325.417938,337.767456 
	C329.759705,339.871857 331.639221,343.745850 331.263489,348.446960 
	C330.845703,353.673584 327.687592,356.830475 322.372498,358.334076 
z"/>
<path fill="#000000" opacity="1.000000" stroke="none" 
	d="
M234.293671,200.367828 
	C234.264816,209.945236 227.166931,215.644516 219.572708,212.635406 
	C214.368286,210.573212 211.884903,206.092545 212.720062,200.271423 
	C213.371780,195.728943 217.480667,191.783203 222.068405,191.294312 
	C227.646667,190.699875 231.936005,193.741989 234.293671,200.367828 
z"/>
<path fill="#000000" opacity="1.000000" stroke="none" 
	d="
M219.838165,376.776367 
	C213.565216,373.301147 211.589066,369.465424 212.793579,363.665802 
	C213.682434,359.386017 217.826385,355.673889 222.193863,355.245056 
	C226.937836,354.779266 231.698563,357.405304 233.482620,361.743195 
	C235.095383,365.664490 234.908401,369.524689 232.192993,373.002258 
	C229.088577,376.977997 225.008423,378.065826 219.838165,376.776367 
z"/>
<path fill="#000000" opacity="1.000000" stroke="none" 
	d="
M184.430634,353.265869 
	C181.709000,348.273132 182.378418,343.906403 185.751160,340.033142 
	C188.791168,336.541992 192.889099,335.851562 197.134659,337.030548 
	C201.505051,338.244202 204.043564,341.387024 204.870499,345.882874 
	C205.672668,350.243927 203.053787,355.182526 198.743042,357.359741 
	C193.974228,359.768402 188.967651,358.433624 184.430634,353.265869 
z"/>
</svg>