<svg version="1.1" id="Layer_1" xmlns="http://www.w3.org/2000/svg" xmlns:xlink="http://www.w3.org/1999/xlink" x="0px" y="0px"
	 width="100%" viewBox="0 0 512 512" enable-background="new 0 0 512 512" xml:space="preserve">
<path fill="#000000" opacity="1.000000" stroke="none" 
	d="
M228.321457,70.970947 
	C242.014206,68.899414 255.251556,69.005356 268.433624,71.708328 
	C295.976074,77.355888 307.869690,107.480904 290.804688,128.490082 
	C285.442688,135.091370 278.062592,138.615509 270.123871,140.869247 
	C266.581268,141.874969 265.200562,143.602371 265.255524,147.177673 
	C265.296051,149.814392 264.495239,152.458679 264.475555,155.102615 
	C264.401917,164.985062 263.176056,163.175827 255.081543,163.360992 
	C253.250214,163.402878 251.416260,163.402298 249.584961,163.359146 
	C239.567108,163.123108 241.314560,164.873535 239.916870,154.670929 
	C238.880341,147.104630 238.674881,139.427460 237.951080,131.813751 
	C237.691513,129.083191 238.744858,127.972336 241.352951,127.397545 
	C247.353790,126.075035 253.397751,124.841583 258.950073,121.985062 
	C266.524353,118.088310 270.401642,112.135735 269.231964,105.981308 
	C267.847717,98.697929 262.773285,94.380562 253.901382,93.406219 
	C245.598984,92.494423 237.242508,92.585556 228.992416,93.829170 
	C225.224380,94.397163 224.151535,93.224998 224.304688,89.727303 
	C224.508484,85.072357 224.591766,80.406105 224.523804,75.747665 
	C224.486618,73.198853 225.345474,71.600121 228.321457,70.970947 
z"/>
<path fill="#000000" opacity="1.000000" stroke="none" 
	d="
M327.880188,317.203796 
	C330.765991,307.444733 338.682465,303.865967 345.602264,308.929230 
	C349.222443,311.578156 350.975006,315.304169 350.021667,319.787201 
	C348.958282,324.787445 345.731476,328.045898 340.666595,328.885712 
	C336.218262,329.623322 332.551758,327.808899 329.949463,324.116669 
	C328.594055,322.193573 327.815338,320.010651 327.880188,317.203796 
z"/>
<path fill="#000000" opacity="1.000000" stroke="none" 
	d="
M261.152527,363.177460 
	C267.130676,366.791718 269.324371,371.391174 267.779083,376.451660 
	C266.195892,381.636200 262.060944,384.593109 256.614319,384.435547 
	C251.294815,384.281677 247.239594,380.907928 246.063126,375.657471 
	C244.284149,367.718109 251.060760,361.891632 261.152527,363.177460 
z"/>
<path fill="#000000" opacity="1.000000" stroke="none" 
	d="
M173.173676,274.536865 
	C178.944885,278.989471 180.446655,283.821655 177.927719,288.894958 
	C175.474930,293.835022 170.208344,296.377197 165.128616,295.073059 
	C160.023209,293.762329 156.448853,288.872772 156.722458,283.573853 
	C157.116455,275.943634 164.086884,271.957733 173.173676,274.536865 
z"/>
<path fill="#000000" opacity="1.000000" stroke="none" 
	d="
M199.293701,230.666595 
	C191.771851,233.648697 185.537033,231.098114 183.308014,224.474213 
	C181.302872,218.515594 184.607346,212.427155 190.915558,210.457474 
	C195.636444,208.983444 201.294205,211.366959 203.564896,215.786453 
	C206.457947,221.417252 205.213165,226.053421 199.293701,230.666595 
z"/>
<path fill="#000000" opacity="1.000000" stroke="none" 
	d="
M316.856506,231.607529 
	C310.384521,228.469650 307.865814,223.356155 309.710815,217.749908 
	C311.447296,212.473373 317.068756,209.089371 322.220032,210.219589 
	C328.217834,211.535522 331.620392,216.159592 331.352142,222.100891 
	C331.095856,227.777100 323.605927,234.384430 316.856506,231.607529 
z"/>
<path fill="#000000" opacity="1.000000" stroke="none" 
	d="
M166.799713,258.142731 
	C163.387024,253.706512 162.852432,249.332596 165.744308,244.876480 
	C168.332443,240.888397 172.095352,239.040237 176.863190,239.806259 
	C181.395706,240.534454 184.320389,243.257004 185.722809,247.612030 
	C187.157928,252.068588 185.322647,257.005096 181.207123,259.812103 
	C176.725449,262.868805 172.247955,262.431244 166.799713,258.142731 
z"/>
<path fill="#000000" opacity="1.000000" stroke="none" 
	d="
M330.809692,258.133606 
	C327.377777,253.699463 326.885956,249.326859 329.768250,244.876633 
	C332.352112,240.887146 336.106201,239.021103 340.875641,239.807724 
	C345.391479,240.552536 348.337036,243.257950 349.729218,247.621368 
	C351.149536,252.072983 349.314453,257.001587 345.206238,259.826569 
	C340.773499,262.874695 336.224426,262.421875 330.809692,258.133606 
z"/>
<path fill="#000000" opacity="1.000000" stroke="none" 
	d="
M355.990997,289.550354 
	C351.852112,294.937195 347.834686,296.556122 342.875183,294.898468 
	C338.307434,293.371765 335.743958,289.983490 335.259918,285.302582 
	C334.768707,280.551849 336.876007,276.825684 341.064575,274.582031 
	C345.482727,272.215424 349.813232,272.937195 353.621521,276.033417 
	C357.487732,279.176758 358.218231,283.492737 355.990997,289.550354 
z"/>
<path fill="#000000" opacity="1.000000" stroke="none" 
	d="
M164.035233,319.580078 
	C164.286255,312.496887 167.436310,308.171844 172.871918,306.936920 
	C177.050995,305.987518 182.189468,308.243774 184.496567,312.041199 
	C187.869476,317.592926 186.097809,324.299286 180.409119,327.513336 
	C174.913727,330.618225 168.558075,328.815186 165.422134,323.204346 
	C164.860214,322.199005 164.547775,321.054169 164.035233,319.580078 
z"/>
<path fill="#000000" opacity="1.000000" stroke="none" 
	d="
M279.786163,204.566864 
	C279.673889,196.580734 283.563385,191.657425 289.878662,191.304367 
	C295.304596,191.001038 299.955078,194.192886 301.233398,199.097672 
	C302.705139,204.744614 300.357544,209.904831 295.191681,212.377792 
	C290.386658,214.678009 284.744019,213.134689 281.561829,208.542221 
	C280.820587,207.472504 280.406281,206.176239 279.786163,204.566864 
z"/>
<path fill="#000000" opacity="1.000000" stroke="none" 
	d="
M280.521881,370.912170 
	C277.226440,361.153656 284.490906,355.353149 290.388092,355.239227 
	C295.573578,355.139069 300.018463,358.416168 301.244659,363.127319 
	C302.617493,368.402039 300.631653,373.290100 296.037323,375.944977 
	C291.654297,378.477783 286.464996,377.776215 282.773285,374.065094 
	C281.964569,373.252106 281.382599,372.213562 280.521881,370.912170 
z"/>
<path fill="#000000" opacity="1.000000" stroke="none" 
	d="
M262.368408,204.739670 
	C255.438477,207.332123 249.527527,205.219528 246.941910,199.552948 
	C244.485886,194.170395 246.748260,187.971649 252.179199,185.203201 
	C256.901825,182.795776 263.383453,184.510437 266.301575,188.939148 
	C269.834747,194.301285 268.552887,199.855499 262.368408,204.739670 
z"/>
<path fill="#000000" opacity="1.000000" stroke="none" 
	d="
M322.372620,358.333771 
	C315.330566,358.390350 311.446808,356.089935 309.757507,351.119659 
	C308.167938,346.442963 309.658295,341.536621 313.622345,338.714813 
	C317.527771,335.934753 321.753204,335.778870 325.858917,337.996460 
	C329.899353,340.178741 331.642914,343.955322 331.266449,348.447021 
	C330.828552,353.671509 327.688690,356.831268 322.372620,358.333771 
z"/>
<path fill="#000000" opacity="1.000000" stroke="none" 
	d="
M233.873535,370.184875 
	C230.092361,376.263428 226.207870,378.415985 221.079742,377.119720 
	C216.779892,376.032837 213.570633,373.453888 212.786346,368.837616 
	C211.938919,363.849640 213.342758,359.610016 217.820389,356.791809 
	C221.780136,354.299530 225.820663,354.805389 229.560364,357.124756 
	C234.324341,360.079346 234.987320,364.714600 233.873535,370.184875 
z"/>
<path fill="#000000" opacity="1.000000" stroke="none" 
	d="
M228.242645,192.428253 
	C234.916397,196.800827 236.405167,203.151871 232.365524,208.714966 
	C228.476471,214.070679 221.296097,214.930542 216.179108,210.653320 
	C212.546097,207.616531 211.433334,201.933441 213.600632,197.484863 
	C216.225342,192.097427 220.589066,190.499237 228.242645,192.428253 
z"/>
<path fill="#000000" opacity="1.000000" stroke="none" 
	d="
M204.538910,344.768738 
	C205.498825,351.663757 201.915512,357.222809 196.201004,358.253906 
	C190.148483,359.346008 184.736084,356.030273 183.111465,350.235107 
	C181.640350,344.987396 184.958191,338.786499 190.183762,337.017273 
	C196.054596,335.029572 201.786926,337.995758 204.538910,344.768738 
z"/>
</svg>