<svg version="1.1" id="Layer_1" xmlns="http://www.w3.org/2000/svg" xmlns:xlink="http://www.w3.org/1999/xlink" x="0px" y="0px"
	 width="100%" viewBox="0 0 512 512" enable-background="new 0 0 512 512" xml:space="preserve">
<path fill="#000000" opacity="1.000000" stroke="none" 
	d="
M289.327637,82.645355 
	C303.050568,96.774864 304.703857,113.335762 298.780762,130.563522 
	C293.115417,147.041580 279.993317,154.623322 263.024750,156.549225 
	C252.098618,157.789307 241.764526,156.398712 232.121384,151.200012 
	C220.894806,145.147690 214.785645,135.198242 213.119995,122.885017 
	C211.217896,108.823990 212.668640,95.284393 222.890305,84.101250 
	C229.372498,77.009300 237.712555,73.229111 246.902145,71.933548 
	C262.217407,69.774384 276.767975,71.850853 289.327637,82.645355 
M237.480499,124.844475 
	C240.626450,131.283768 246.123962,134.047607 252.922577,135.194321 
	C265.321930,137.285736 276.594696,129.313309 277.743835,117.388077 
	C279.154877,102.744995 270.949707,92.662216 257.361694,92.341721 
	C240.467773,91.943253 230.937012,106.976456 237.480499,124.844475 
z"/>
<path fill="#000000" opacity="1.000000" stroke="none" 
	d="
M346.954865,310.044800 
	C350.688751,314.457794 351.357422,318.864227 348.465332,323.585663 
	C346.083649,327.473846 342.500824,329.468384 338.049561,328.956940 
	C333.000702,328.376892 329.517426,325.400909 328.254120,320.359131 
	C327.016785,315.420929 329.074738,311.583832 332.978424,308.729187 
	C337.144287,305.682770 341.217560,306.087952 346.954865,310.044800 
z"/>
<path fill="#000000" opacity="1.000000" stroke="none" 
	d="
M266.577148,367.737793 
	C269.559235,375.391418 267.012909,381.997101 260.639496,384.022736 
	C254.265884,386.048370 247.888046,382.544312 246.179459,376.078156 
	C244.928253,371.343048 247.534363,365.929413 252.203552,363.564362 
	C256.895447,361.187805 262.082397,362.594086 266.577148,367.737793 
z"/>
<path fill="#000000" opacity="1.000000" stroke="none" 
	d="
M186.142410,316.357605 
	C185.822647,323.521973 182.818298,327.513977 177.128418,328.827759 
	C172.787582,329.830017 167.668915,327.365967 165.376312,323.170532 
	C162.325195,317.587067 164.461258,311.002960 170.315811,307.945160 
	C175.489594,305.242981 182.032822,307.353455 184.847351,312.690613 
	C185.385193,313.710571 185.672562,314.862610 186.142410,316.357605 
z"/>
<path fill="#000000" opacity="1.000000" stroke="none" 
	d="
M357.186890,286.508545 
	C355.236206,292.065002 351.962799,295.372467 346.103302,295.325409 
	C341.444672,295.288025 338.169983,293.033661 336.244812,288.928680 
	C334.200500,284.569702 334.958344,280.418457 338.093536,276.870422 
	C341.294067,273.248444 345.468750,272.463745 349.933929,273.929962 
	C354.276062,275.355835 356.715210,278.560852 357.274567,283.109802 
	C357.395172,284.090424 357.268097,285.101501 357.186890,286.508545 
z"/>
<path fill="#000000" opacity="1.000000" stroke="none" 
	d="
M172.727341,294.210632 
	C166.469315,296.149017 161.930222,295.034424 158.994614,290.879974 
	C156.135788,286.834167 155.725311,282.588806 158.600266,278.315857 
	C161.494064,274.014954 166.193680,272.305389 171.281693,273.793304 
	C175.765320,275.104462 178.200607,278.358948 178.886429,282.797455 
	C179.664398,287.832275 177.192291,291.402435 172.727341,294.210632 
z"/>
<path fill="#000000" opacity="1.000000" stroke="none" 
	d="
M342.285339,240.093307 
	C348.428619,243.148270 351.183685,247.904175 350.004700,252.874649 
	C348.825867,257.844635 344.077148,261.822266 339.310547,261.832336 
	C333.833160,261.843933 329.465485,258.275299 328.133972,252.909454 
	C326.477539,246.233994 333.527985,237.489319 342.285339,240.093307 
z"/>
<path fill="#000000" opacity="1.000000" stroke="none" 
	d="
M165.670776,244.947693 
	C169.111694,240.257141 173.375076,238.590057 178.586838,240.227341 
	C183.185913,241.672134 185.745834,245.169800 186.163925,249.832840 
	C186.589676,254.581161 184.223999,258.161224 180.119507,260.486725 
	C176.220673,262.695740 170.894577,261.972351 167.573502,258.931091 
	C163.833252,255.505951 163.143723,251.024811 165.670776,244.947693 
z"/>
<path fill="#000000" opacity="1.000000" stroke="none" 
	d="
M323.931580,210.693085 
	C330.162201,214.029114 332.607361,218.974854 330.963470,224.233307 
	C329.467773,229.017593 324.288269,232.623062 319.510101,232.205963 
	C314.019928,231.726715 309.974213,227.817093 309.258636,222.299362 
	C308.264008,214.629776 315.396881,208.789917 323.931580,210.693085 
z"/>
<path fill="#000000" opacity="1.000000" stroke="none" 
	d="
M183.243256,217.790756 
	C185.434311,212.666077 189.034317,209.809006 194.193054,210.047028 
	C198.524216,210.246857 202.161285,212.266998 203.998611,216.645782 
	C205.881897,221.134094 205.169571,225.272568 201.884918,228.651199 
	C198.661713,231.966599 194.627533,233.289200 190.020370,231.483063 
	C185.532700,229.723770 183.185776,226.346115 182.768250,221.625183 
	C182.667953,220.491150 182.973633,219.321213 183.243256,217.790756 
z"/>
<path fill="#000000" opacity="1.000000" stroke="none" 
	d="
M291.760620,377.296204 
	C284.953766,376.979523 280.609161,373.666138 279.765839,368.485779 
	C278.845490,362.832275 281.869171,357.624390 287.110535,355.835419 
	C292.003540,354.165344 297.519470,356.152740 300.132080,360.527130 
	C304.244385,367.412506 300.725830,374.823975 291.760620,377.296204 
z"/>
<path fill="#000000" opacity="1.000000" stroke="none" 
	d="
M297.412659,193.444870 
	C303.017578,199.679016 302.868042,206.956223 297.364594,211.067276 
	C292.023163,215.057312 284.888519,213.779297 281.268433,208.183990 
	C278.707611,204.225891 279.093536,198.861862 282.202362,195.203735 
	C285.839996,190.923355 290.857452,190.254303 297.412659,193.444870 
z"/>
<path fill="#000000" opacity="1.000000" stroke="none" 
	d="
M248.731445,187.822540 
	C253.083221,183.631210 257.640717,182.904922 262.651520,185.647583 
	C266.554138,187.783707 268.384216,191.319244 268.144684,195.546402 
	C267.868164,200.426712 265.158081,203.893173 260.435333,205.576660 
	C255.752594,207.245880 251.885986,205.604263 248.731949,202.252029 
	C245.007263,198.293259 245.062805,194.016052 248.731445,187.822540 
z"/>
<path fill="#000000" opacity="1.000000" stroke="none" 
	d="
M329.246124,341.016693 
	C332.206604,346.009369 332.161530,350.491058 328.596954,354.725189 
	C325.582611,358.305756 321.580353,359.222626 317.306244,358.117218 
	C312.731201,356.934021 309.899139,353.702972 309.261536,348.954681 
	C308.591309,343.963623 310.729645,340.228149 315.085663,337.821259 
	C319.612457,335.320007 324.502686,336.370178 329.246124,341.016693 
z"/>
<path fill="#000000" opacity="1.000000" stroke="none" 
	d="
M234.359558,366.052124 
	C233.698257,373.336975 229.505157,377.429901 223.258270,377.316437 
	C217.238098,377.207123 212.862564,372.984528 212.640610,367.069916 
	C212.405411,360.802185 216.502304,355.762726 222.259277,355.238281 
	C228.631851,354.657776 233.308029,358.672943 234.359558,366.052124 
z"/>
<path fill="#000000" opacity="1.000000" stroke="none" 
	d="
M214.115631,196.561035 
	C217.453354,191.649017 221.799210,190.360825 226.922974,191.931061 
	C231.251968,193.257706 233.834610,196.283142 234.324829,200.910141 
	C234.854019,205.904831 232.868912,209.675247 228.535248,212.049637 
	C224.104691,214.477097 219.854218,213.609055 216.079422,210.518509 
	C212.332565,207.450897 211.656143,202.668091 214.115631,196.561035 
z"/>
<path fill="#000000" opacity="1.000000" stroke="none" 
	d="
M189.847351,337.180298 
	C200.162598,335.867798 206.778549,341.687622 204.732025,349.766052 
	C203.462006,354.779297 199.389389,358.205109 194.490067,358.381409 
	C188.996964,358.579071 184.784744,355.638245 183.204666,350.502258 
	C181.654739,345.464264 183.811874,340.939148 189.847351,337.180298 
z"/>
</svg>