<svg version="1.1" id="Layer_1" xmlns="http://www.w3.org/2000/svg" xmlns:xlink="http://www.w3.org/1999/xlink" x="0px" y="0px"
	 width="100%" viewBox="0 0 512 512" enable-background="new 0 0 512 512" xml:space="preserve">
<path fill="#000000" opacity="1.000000" stroke="none" 
	d="
M256.679962,100.443542 
	C243.263367,119.672684 227.756744,136.538055 211.188614,152.542770 
	C203.559052,159.912888 194.678070,156.550156 186.186249,156.898743 
	C184.616882,156.963150 184.438385,155.161575 184.415512,153.779205 
	C184.377945,151.507309 185.322662,149.606079 186.579376,147.786728 
	C198.047577,131.184067 207.957733,113.661087 217.039810,95.670189 
	C218.642776,92.494843 220.716095,91.516411 224.102203,91.580215 
	C233.588821,91.758965 243.081940,91.572021 252.570160,91.701050 
	C254.722488,91.730324 257.572601,90.523155 258.844330,93.272446 
	C260.041962,95.861481 258.299225,98.048317 256.679962,100.443542 
z"/>
<path fill="#000000" opacity="1.000000" stroke="none" 
	d="
M309.000305,91.635071 
	C314.329498,91.639702 319.159515,91.603043 323.988403,91.659302 
	C329.692383,91.725754 331.168182,94.203629 327.872040,99.111252 
	C323.702820,105.318832 319.197906,111.329277 314.481201,117.135002 
	C304.183655,129.810013 293.072723,141.735977 281.094086,152.869766 
	C277.673340,156.049240 274.203949,157.761932 269.508820,157.301987 
	C266.374542,156.994965 263.185333,157.286957 260.022217,157.228027 
	C254.595154,157.126923 252.985260,154.247696 255.883881,149.479324 
	C258.302490,145.500565 261.120300,141.766800 263.627167,137.838913 
	C272.231354,124.357422 280.289215,110.553192 287.273560,96.161049 
	C288.868683,92.874100 290.784149,91.348892 294.515717,91.575409 
	C299.161407,91.857430 303.837585,91.637871 309.000305,91.635071 
z"/>
<path fill="#000000" opacity="1.000000" stroke="none" 
	d="
M333.728638,327.558777 
	C328.361664,323.398651 326.837372,319.357422 328.552673,314.542267 
	C330.229645,309.834717 334.407898,306.708313 338.987427,306.734467 
	C343.984314,306.763000 348.252838,309.946655 349.775970,314.783508 
	C351.119415,319.049622 349.794006,322.791107 346.832336,325.707764 
	C343.215942,329.269196 338.819489,330.181885 333.728638,327.558777 
z"/>
<path fill="#000000" opacity="1.000000" stroke="none" 
	d="
M267.828491,376.307037 
	C264.795929,382.885193 261.379974,385.041290 255.369446,384.346344 
	C250.281937,383.758087 247.430893,380.578094 246.143250,375.881836 
	C244.954086,371.544678 247.191132,366.526825 251.438248,364.035553 
	C255.158600,361.853302 259.142426,361.880188 262.766907,364.045685 
	C267.174957,366.679413 268.906128,370.792816 267.828491,376.307037 
z"/>
<path fill="#000000" opacity="1.000000" stroke="none" 
	d="
M195.498108,210.210876 
	C202.106491,212.264709 205.648743,216.873398 205.034668,222.228348 
	C204.462326,227.219391 199.716904,231.801620 194.679169,232.227661 
	C189.513489,232.664536 184.518524,229.056183 183.084381,223.851624 
	C181.096100,216.635986 186.763412,210.157944 195.498108,210.210876 
z"/>
<path fill="#000000" opacity="1.000000" stroke="none" 
	d="
M318.459717,210.076752 
	C323.913574,209.865280 328.006073,211.582199 330.265930,216.370590 
	C332.026581,220.101196 331.875793,223.817551 329.371979,227.215408 
	C326.589874,230.990860 322.939026,232.973053 318.145844,231.957245 
	C313.233948,230.916306 310.278198,227.845795 309.418701,222.887146 
	C308.585999,218.083267 310.521667,214.452255 314.477020,211.844559 
	C315.567963,211.125290 316.866119,210.720337 318.459717,210.076752 
z"/>
<path fill="#000000" opacity="1.000000" stroke="none" 
	d="
M183.211517,258.134216 
	C178.155045,263.850006 168.960175,262.168518 165.668869,256.660645 
	C162.282715,250.993973 164.134338,244.091934 170.089035,240.876251 
	C174.187637,238.662903 179.686844,239.526749 182.977875,242.900894 
	C187.088516,247.115356 187.239349,251.869308 183.211517,258.134216 
z"/>
<path fill="#000000" opacity="1.000000" stroke="none" 
	d="
M329.865784,256.915558 
	C325.568298,250.902740 328.796265,242.735229 335.509033,240.204391 
	C341.254883,238.038101 347.814636,241.520203 349.735199,247.670181 
	C351.217926,252.418091 348.949280,257.760315 344.330780,260.396698 
	C339.684753,263.048798 334.648041,261.934906 329.865784,256.915558 
z"/>
<path fill="#000000" opacity="1.000000" stroke="none" 
	d="
M158.487701,290.192688 
	C155.796875,285.234406 156.151688,280.890961 159.673126,276.933411 
	C162.764648,273.459045 166.681168,272.630219 171.041946,273.757477 
	C175.572159,274.928558 177.944122,278.132721 178.858780,282.561859 
	C179.788940,287.066040 177.004852,292.145935 172.407196,294.376373 
	C167.711273,296.654541 163.129669,295.365601 158.487701,290.192688 
z"/>
<path fill="#000000" opacity="1.000000" stroke="none" 
	d="
M349.022644,273.697571 
	C355.684418,276.521027 358.549103,281.482788 357.080292,287.039551 
	C355.714233,292.207520 350.915771,295.623688 345.464905,295.308929 
	C340.093933,294.998779 335.983490,291.035278 335.235382,285.445099 
	C334.248444,278.070099 340.434052,272.621826 349.022644,273.697571 
z"/>
<path fill="#000000" opacity="1.000000" stroke="none" 
	d="
M182.231659,326.310486 
	C175.077011,330.540161 168.543045,329.164368 165.295807,323.037079 
	C162.240997,317.272888 164.728638,310.463196 170.915359,307.654175 
	C175.282684,305.671234 180.908356,307.183289 183.895721,311.142975 
	C187.423492,315.818939 187.016693,320.321075 182.231659,326.310486 
z"/>
<path fill="#000000" opacity="1.000000" stroke="none" 
	d="
M254.617386,184.256470 
	C260.033783,183.745758 264.245026,185.262329 266.802917,189.829422 
	C268.928772,193.625153 268.754272,197.540176 266.237000,201.141785 
	C263.666992,204.818832 260.135559,206.924728 255.557419,206.046021 
	C250.572052,205.089157 247.108490,202.159698 246.101929,196.980240 
	C245.213913,192.410767 247.148560,188.862930 250.689590,186.144836 
	C251.719254,185.354446 253.049652,184.955811 254.617386,184.256470 
z"/>
<path fill="#000000" opacity="1.000000" stroke="none" 
	d="
M299.715027,372.575439 
	C296.090088,377.208221 291.645508,378.492920 286.621368,376.592499 
	C282.452332,375.015564 279.949829,371.819916 279.662598,367.127838 
	C279.364349,362.255920 281.444855,358.709534 285.664398,356.536194 
	C290.115631,354.243500 294.448914,354.948242 298.191772,358.137909 
	C302.058075,361.432861 302.584686,366.696014 299.715027,372.575439 
z"/>
<path fill="#000000" opacity="1.000000" stroke="none" 
	d="
M293.208954,191.649414 
	C299.594055,194.144119 301.918396,197.539307 301.555176,203.334702 
	C301.262421,208.005066 297.622101,212.199631 293.029327,213.158554 
	C288.303558,214.145248 283.506989,212.110275 281.101868,207.865204 
	C278.979218,204.118713 278.895050,200.222839 281.282745,196.552628 
	C283.989868,192.391434 287.857208,190.634583 293.208954,191.649414 
z"/>
<path fill="#000000" opacity="1.000000" stroke="none" 
	d="
M331.065125,350.407745 
	C328.893951,355.374298 325.787170,358.453522 320.378510,358.464935 
	C315.975494,358.474213 312.619385,356.612640 310.544952,352.818787 
	C308.266693,348.652252 308.561188,344.501343 311.557434,340.708649 
	C314.726868,336.696747 319.030792,335.825867 323.669525,337.044098 
	C328.129486,338.215393 330.469818,341.605499 331.221863,346.040314 
	C331.439667,347.324707 331.200867,348.686493 331.065125,350.407745 
z"/>
<path fill="#000000" opacity="1.000000" stroke="none" 
	d="
M214.196808,372.422974 
	C210.382599,363.158936 215.498779,354.535797 223.960831,355.254974 
	C229.254623,355.704865 233.385300,359.162354 234.250885,363.868073 
	C235.226807,369.173645 232.894516,373.953491 228.175278,376.319458 
	C223.557770,378.634399 218.976120,377.448883 214.196808,372.422974 
z"/>
<path fill="#000000" opacity="1.000000" stroke="none" 
	d="
M229.955566,211.173920 
	C224.261902,215.751785 215.836777,212.345291 213.529877,207.228134 
	C211.062561,201.755142 213.254959,195.013702 218.615692,192.297241 
	C223.780533,189.680038 230.880569,192.185272 233.409180,197.517090 
	C235.577652,202.089523 234.600739,206.293610 229.955566,211.173920 
z"/>
<path fill="#000000" opacity="1.000000" stroke="none" 
	d="
M205.086853,347.885315 
	C204.056351,353.436096 201.395691,357.256744 195.993530,358.220490 
	C191.426147,359.035339 187.390045,357.682556 184.702576,353.646851 
	C182.054321,349.670105 182.014786,345.547974 184.635193,341.511871 
	C187.148026,337.641418 190.815094,336.112305 195.315903,336.706390 
	C199.802429,337.298584 202.990784,339.633881 204.344208,344.099426 
	C204.678909,345.203766 204.853455,346.356598 205.086853,347.885315 
z"/>
</svg>