<svg version="1.1" id="Layer_1" xmlns="http://www.w3.org/2000/svg" xmlns:xlink="http://www.w3.org/1999/xlink" x="0px" y="0px"
	 width="100%" viewBox="0 0 512 512" enable-background="new 0 0 512 512" xml:space="preserve">
<path fill="#000000" opacity="1.000000" stroke="none" 
	d="
M210.648346,91.651566 
	C213.418900,91.425186 215.197266,92.504784 217.049881,93.757332 
	C229.384140,102.096542 240.511658,111.859947 250.988892,122.384666 
	C252.609741,124.012863 253.794205,126.075462 255.342270,128.154449 
	C262.544159,121.591164 268.505859,116.063980 274.572662,110.654701 
	C281.165924,104.776047 288.110840,99.338600 295.335815,94.242355 
	C297.908142,92.427910 300.487091,91.490448 303.658966,91.590187 
	C309.317841,91.768135 314.987152,91.583878 320.650055,91.675400 
	C325.303833,91.750603 326.897400,94.941292 324.315063,98.935936 
	C323.691437,99.900673 322.797668,100.699852 321.982513,101.530403 
	C305.646942,118.174858 289.074127,134.619690 276.713501,154.645416 
	C275.384613,156.798416 273.535126,157.286667 271.217834,157.272720 
	C261.555450,157.214569 251.892380,157.195801 242.230087,157.252289 
	C239.707916,157.267029 237.778381,156.621490 236.318802,154.371658 
	C223.734131,134.973343 207.737335,118.430023 192.056320,101.623543 
	C191.038483,100.532661 189.890656,99.455299 189.235687,98.154007 
	C187.335190,94.378113 188.972473,91.729347 193.198563,91.670212 
	C198.861786,91.590958 204.526947,91.649246 210.648346,91.651566 
z"/>
<path fill="#000000" opacity="1.000000" stroke="none" 
	d="
M349.475250,313.996216 
	C351.099304,321.437073 348.105988,326.842285 341.697693,328.665985 
	C336.408447,330.171265 330.716736,327.067383 328.620728,321.534637 
	C326.668976,316.382721 329.220276,310.374817 334.449371,307.809235 
	C339.874481,305.147430 345.611084,307.386902 349.475250,313.996216 
z"/>
<path fill="#000000" opacity="1.000000" stroke="none" 
	d="
M183.344818,325.241821 
	C176.504517,330.398407 170.002167,329.945160 166.087677,324.360321 
	C162.373703,319.061554 163.681946,312.245605 169.109238,308.618286 
	C173.463470,305.708099 179.075974,306.261047 182.870010,309.974030 
	C186.982666,313.998810 187.216385,318.895416 183.344818,325.241821 
z"/>
<path fill="#000000" opacity="1.000000" stroke="none" 
	d="
M175.095398,275.811951 
	C179.014648,279.920959 180.375610,284.244476 177.742935,289.167694 
	C175.428101,293.496552 171.793457,295.807892 166.773727,295.267914 
	C161.817947,294.734802 158.547668,291.899628 157.156357,287.167236 
	C155.799988,282.553650 157.221725,278.598389 160.983551,275.697449 
	C165.474915,272.233856 170.165588,272.576263 175.095398,275.811951 
z"/>
<path fill="#000000" opacity="1.000000" stroke="none" 
	d="
M258.700378,362.690155 
	C265.770782,364.736816 269.285950,369.815857 268.031250,375.582367 
	C266.701660,381.693115 261.391632,385.220734 254.911865,384.298004 
	C249.611755,383.543274 245.437088,378.291016 245.824600,372.865021 
	C246.261032,366.753784 251.137650,362.760162 258.700378,362.690155 
z"/>
<path fill="#000000" opacity="1.000000" stroke="none" 
	d="
M340.217651,275.053162 
	C346.769043,272.160431 352.433044,273.426941 355.543304,278.197845 
	C358.371918,282.536743 357.833923,288.248291 354.242981,292.002594 
	C350.552826,295.860565 344.531311,296.506622 340.077545,293.522369 
	C333.662476,289.223938 333.585297,281.209747 340.217651,275.053162 
z"/>
<path fill="#000000" opacity="1.000000" stroke="none" 
	d="
M327.868103,250.972839 
	C328.488770,245.024170 331.361725,241.091873 336.823303,239.897507 
	C341.579834,238.857300 345.730621,240.531708 348.451263,244.817490 
	C351.949463,250.328156 349.916962,257.474823 344.041656,260.587860 
	C338.538910,263.503510 331.480865,261.027283 328.933167,255.211823 
	C328.406525,254.009735 328.217255,252.659851 327.868103,250.972839 
z"/>
<path fill="#000000" opacity="1.000000" stroke="none" 
	d="
M176.665253,239.763702 
	C184.032028,242.216415 187.492355,247.462723 185.915939,253.202881 
	C184.243500,259.292786 178.597916,262.728912 172.507568,261.363861 
	C167.257675,260.187164 163.472794,255.244339 163.878006,250.094254 
	C164.365540,243.898178 169.168274,239.871719 176.665253,239.763702 
z"/>
<path fill="#000000" opacity="1.000000" stroke="none" 
	d="
M326.748840,212.050964 
	C331.578857,217.027817 332.582703,221.218338 330.292908,225.732132 
	C328.033234,230.186478 323.362671,232.801880 318.865662,232.130997 
	C313.700836,231.360504 310.145081,227.855194 309.339783,222.637573 
	C308.697388,218.475693 310.259186,215.167221 313.445618,212.535782 
	C317.602509,209.102905 321.952698,209.324722 326.748840,212.050964 
z"/>
<path fill="#000000" opacity="1.000000" stroke="none" 
	d="
M193.941391,232.255646 
	C188.141754,231.733261 184.506561,228.944458 183.080399,223.705612 
	C181.862244,219.230789 183.446884,215.483978 186.912720,212.578125 
	C190.447800,209.614197 194.409866,209.297043 198.593018,211.126480 
	C202.930054,213.023224 204.824661,216.728500 204.968994,221.070648 
	C205.110443,225.326675 202.952148,228.761093 199.059662,230.753983 
	C197.614166,231.494049 195.929443,231.766815 193.941391,232.255646 
z"/>
<path fill="#000000" opacity="1.000000" stroke="none" 
	d="
M299.956757,196.255798 
	C302.574341,202.713455 301.836914,207.320816 297.913177,210.656067 
	C294.226135,213.790146 288.826080,214.304367 284.917877,211.781311 
	C280.913757,209.196350 279.088074,205.469650 279.729492,200.725540 
	C280.347565,196.153946 283.098663,193.052628 287.401001,191.830963 
	C292.254425,190.452835 296.613770,191.612732 299.956757,196.255798 
z"/>
<path fill="#000000" opacity="1.000000" stroke="none" 
	d="
M290.913574,355.269531 
	C298.162750,356.629669 301.407593,359.978180 301.671234,366.016388 
	C301.882050,370.845947 298.502777,375.591522 293.851990,376.997040 
	C288.975952,378.470673 283.531311,376.333038 280.989410,371.754608 
	C276.810577,364.227783 282.239014,355.302063 290.913574,355.269531 
z"/>
<path fill="#000000" opacity="1.000000" stroke="none" 
	d="
M257.071777,206.244873 
	C246.844528,203.930145 242.883682,195.879959 248.148300,188.653427 
	C250.646698,185.223953 254.111755,183.372818 258.527496,184.192902 
	C263.363251,185.090988 266.713989,187.739594 267.885162,192.684479 
	C268.960907,197.226364 267.257141,200.843857 263.855988,203.739456 
	C262.053528,205.273987 259.918701,206.205750 257.071777,206.244873 
z"/>
<path fill="#000000" opacity="1.000000" stroke="none" 
	d="
M309.071716,347.892303 
	C310.453766,339.827423 314.159485,336.416473 320.826416,336.653900 
	C326.428131,336.853394 330.570984,340.620270 331.266388,346.146301 
	C331.969849,351.736053 327.929138,357.387665 322.568176,358.312225 
	C315.760529,359.486298 311.006439,355.947479 309.071716,347.892303 
z"/>
<path fill="#000000" opacity="1.000000" stroke="none" 
	d="
M215.186539,209.685303 
	C211.902710,205.192429 211.637756,200.771454 214.280518,196.383408 
	C216.391068,192.879028 219.639572,190.961609 223.837753,191.309326 
	C228.695053,191.711624 232.508347,193.959717 233.926102,198.802933 
	C235.279129,203.425034 234.304337,207.727600 230.338989,210.872284 
	C226.422302,213.978394 222.188950,214.224106 217.846725,211.736389 
	C216.992966,211.247253 216.246475,210.570923 215.186539,209.685303 
z"/>
<path fill="#000000" opacity="1.000000" stroke="none" 
	d="
M212.709686,364.391327 
	C215.048340,357.811279 218.809021,354.859894 223.863754,355.243439 
	C229.134659,355.643402 233.316116,359.080078 234.231293,363.764404 
	C235.260422,369.031982 232.963104,373.863312 228.278473,376.268616 
	C221.010986,380.000153 210.849640,373.924835 212.709686,364.391327 
z"/>
<path fill="#000000" opacity="1.000000" stroke="none" 
	d="
M182.747253,347.914490 
	C183.099716,342.126495 185.800110,338.404877 190.942932,336.872986 
	C195.527725,335.507324 200.695663,337.646637 203.173172,341.468475 
	C206.693253,346.898590 204.786835,354.113129 199.007736,357.231995 
	C193.570465,360.166382 186.467529,357.805939 183.859116,352.120422 
	C183.316254,350.937134 183.117538,349.596008 182.747253,347.914490 
z"/>
</svg>