<svg version="1.1" id="Layer_1" xmlns="http://www.w3.org/2000/svg" xmlns:xlink="http://www.w3.org/1999/xlink" x="0px" y="0px"
	 width="100%" viewBox="0 0 512 512" enable-background="new 0 0 512 512" xml:space="preserve">
<path fill="#000000" opacity="1.000000" stroke="none" 
	d="
M184.001511,91.644905 
	C190.667038,91.647888 196.835190,91.753212 202.997391,91.607498 
	C205.719101,91.543137 207.269852,92.653046 208.439011,95.007339 
	C217.710907,113.677559 227.905777,131.817062 239.830811,148.943893 
	C241.272995,151.015152 241.852936,153.321518 240.920227,155.558365 
	C239.829544,158.174057 237.154892,156.878433 235.150375,157.235870 
	C223.648605,159.286896 215.241867,154.444046 207.589554,146.170898 
	C194.343063,131.849701 180.991959,117.662567 169.799835,101.618591 
	C168.849091,100.255699 167.825943,98.884102 167.198029,97.366898 
	C165.647003,93.619171 166.899445,91.772491 171.004105,91.679123 
	C175.168060,91.584396 179.335693,91.649857 184.001511,91.644905 
z"/>
<path fill="#000000" opacity="1.000000" stroke="none" 
	d="
M265.792877,133.191177 
	C256.778168,123.108421 248.199478,113.126289 240.617874,102.334213 
	C239.567535,100.839119 238.494278,99.321289 237.721481,97.677689 
	C235.778732,93.545723 236.870651,91.714668 241.399368,91.680824 
	C252.065353,91.601097 262.733002,91.721275 273.398499,91.614182 
	C276.110748,91.586952 277.669373,92.643562 278.840973,95.023499 
	C287.977570,113.583046 298.182556,131.529785 309.921448,148.580887 
	C311.455627,150.809311 312.027008,153.312637 310.942719,155.670822 
	C309.801514,158.152740 307.108063,156.872025 305.087555,157.222916 
	C294.199341,159.113800 285.778503,155.155487 278.848663,146.780426 
	C274.930511,142.045135 270.326385,137.877396 265.792877,133.191177 
z"/>
<path fill="#000000" opacity="1.000000" stroke="none" 
	d="
M329.760742,312.036835 
	C334.418854,306.731567 338.472534,305.497040 343.510651,307.766479 
	C348.047089,309.809937 350.358978,313.449554 350.209839,318.401978 
	C350.063904,323.246521 346.445709,327.422089 341.545868,328.700470 
	C337.250702,329.821136 333.594177,328.360901 330.819427,325.199677 
	C327.440338,321.349976 326.807770,316.956543 329.760742,312.036835 
z"/>
<path fill="#000000" opacity="1.000000" stroke="none" 
	d="
M245.886536,374.724640 
	C245.763718,369.117188 248.205276,365.271576 252.862671,363.347260 
	C256.671204,361.773773 260.732025,362.085663 264.085114,364.924469 
	C267.506226,367.820892 269.053314,371.581482 267.881897,376.010345 
	C266.689880,380.517303 263.819244,383.613892 259.043365,384.322266 
	C254.236877,385.035126 250.155457,383.631531 247.556290,379.262878 
	C246.809647,378.007935 246.467667,376.512207 245.886536,374.724640 
z"/>
<path fill="#000000" opacity="1.000000" stroke="none" 
	d="
M167.800995,326.285706 
	C163.210449,320.443909 162.683640,316.608734 165.855789,311.942078 
	C168.630554,307.860046 172.471573,305.895813 177.474884,307.085663 
	C183.838699,308.599060 187.623383,314.933197 185.777588,320.814209 
	C183.702164,327.426849 177.025513,330.634430 170.689774,328.020996 
	C169.775543,327.643890 168.956360,327.036377 167.800995,326.285706 
z"/>
<path fill="#000000" opacity="1.000000" stroke="none" 
	d="
M202.276520,213.821930 
	C205.596527,218.738663 206.139557,223.429779 202.466019,227.939911 
	C199.630814,231.420776 195.875809,233.024658 191.376907,231.905548 
	C186.520264,230.697449 183.583801,227.434921 182.861099,222.532471 
	C182.157104,217.756943 184.281784,214.100616 188.322815,211.615829 
	C192.799683,208.863068 196.754807,209.468750 202.276520,213.821930 
z"/>
<path fill="#000000" opacity="1.000000" stroke="none" 
	d="
M326.771667,229.966995 
	C319.802643,233.587128 313.639557,232.132889 310.584595,226.456528 
	C307.617828,220.944016 309.482269,214.665573 315.048889,211.423340 
	C319.628723,208.755829 325.589325,209.933640 328.944183,214.169083 
	C332.701141,218.912170 332.038666,224.447723 326.771667,229.966995 
z"/>
<path fill="#000000" opacity="1.000000" stroke="none" 
	d="
M167.659027,242.560699 
	C174.478210,238.155792 180.922409,239.135223 184.453766,244.811707 
	C187.854523,250.278275 186.116791,256.992981 180.444794,260.302521 
	C176.013794,262.887970 170.204636,261.961151 166.792404,258.124329 
	C162.724869,253.550644 162.907578,248.657944 167.659027,242.560699 
z"/>
<path fill="#000000" opacity="1.000000" stroke="none" 
	d="
M328.538086,254.082199 
	C327.279297,247.159622 330.400330,241.584381 336.114319,239.953796 
	C341.649597,238.374207 347.664948,241.666229 349.611633,247.340454 
	C351.403961,252.564575 348.583344,258.689880 343.340698,260.958557 
	C337.766571,263.370667 331.984161,260.813354 328.538086,254.082199 
z"/>
<path fill="#000000" opacity="1.000000" stroke="none" 
	d="
M158.485367,290.194366 
	C155.803925,285.235840 156.142761,280.888947 159.670029,276.930908 
	C162.762909,273.460327 166.676208,272.625153 171.040512,273.755981 
	C175.571655,274.930023 177.944489,278.131622 178.860107,282.561005 
	C179.792328,287.070648 177.010513,292.146881 172.408737,294.377930 
	C167.711609,296.655121 163.135147,295.368164 158.485367,290.194366 
z"/>
<path fill="#000000" opacity="1.000000" stroke="none" 
	d="
M340.223663,275.062317 
	C346.762573,272.160065 352.424866,273.425751 355.538330,278.202606 
	C358.470490,282.701233 357.775757,288.651031 353.886047,292.353943 
	C350.019989,296.034332 343.961761,296.412506 339.665283,293.241577 
	C333.613617,288.775269 333.717804,281.081909 340.223663,275.062317 
z"/>
<path fill="#000000" opacity="1.000000" stroke="none" 
	d="
M298.561035,358.441772 
	C303.263550,365.369904 302.370117,371.898895 296.514374,375.618164 
	C291.247314,378.963562 284.654694,377.485382 281.242706,372.193939 
	C278.507904,367.952789 279.215240,362.002136 282.876221,358.450653 
	C287.087219,354.365601 292.410126,354.267517 298.561035,358.441772 
z"/>
<path fill="#000000" opacity="1.000000" stroke="none" 
	d="
M260.987549,205.445343 
	C254.376266,206.926788 249.236938,204.645874 246.919540,199.509872 
	C244.792221,194.795135 246.292084,189.268356 250.527145,186.216431 
	C255.271896,182.797211 262.138214,183.680450 265.752777,188.174957 
	C269.316650,192.606430 268.874573,199.108231 264.645416,203.073944 
	C263.692047,203.967941 262.462616,204.567520 260.987549,205.445343 
z"/>
<path fill="#000000" opacity="1.000000" stroke="none" 
	d="
M284.423523,193.255951 
	C290.148743,190.514359 295.164368,191.012833 298.528595,194.407028 
	C301.662292,197.568634 302.549774,203.444672 300.485321,207.362595 
	C298.243195,211.617615 293.650543,213.993454 288.828522,213.216995 
	C284.507080,212.521133 281.465698,209.912140 280.180847,205.860489 
	C278.640167,201.002151 279.891937,196.681107 284.423523,193.255951 
z"/>
<path fill="#000000" opacity="1.000000" stroke="none" 
	d="
M321.621460,358.395569 
	C313.631439,358.122925 308.709534,353.485016 309.072052,346.951080 
	C309.431091,340.480621 315.052673,335.984192 321.881165,336.705719 
	C327.053528,337.252258 330.896881,341.331787 331.305878,346.709503 
	C331.741455,352.437317 328.454346,356.555206 321.621460,358.395569 
z"/>
<path fill="#000000" opacity="1.000000" stroke="none" 
	d="
M216.074188,358.101318 
	C221.957443,354.145477 228.259888,354.683044 231.970001,359.174744 
	C235.427094,363.360138 235.259888,369.753357 231.587646,373.790558 
	C227.752838,378.006500 221.436203,378.552765 216.686813,375.079315 
	C211.593552,371.354340 211.227127,364.535858 216.074188,358.101318 
z"/>
<path fill="#000000" opacity="1.000000" stroke="none" 
	d="
M220.626755,213.024353 
	C213.272278,209.388977 210.825790,204.155319 213.306732,198.100754 
	C215.445892,192.880341 220.631744,190.338333 226.295456,191.733978 
	C231.787445,193.087280 234.863846,197.683029 234.319550,203.720795 
	C233.875473,208.646790 229.560104,212.873962 224.486420,213.265640 
	C223.341934,213.354004 222.177643,213.185410 220.626755,213.024353 
z"/>
<path fill="#000000" opacity="1.000000" stroke="none" 
	d="
M196.460373,336.815918 
	C204.277725,340.306732 206.935059,346.221985 203.804672,352.314636 
	C200.884628,357.997803 194.163605,360.104523 188.515640,357.106934 
	C184.153244,354.791656 181.795410,349.501984 183.070312,344.890594 
	C184.661194,339.136261 188.790665,336.544128 196.460373,336.815918 
z"/>
</svg>