<svg version="1.1" id="Layer_1" xmlns="http://www.w3.org/2000/svg" xmlns:xlink="http://www.w3.org/1999/xlink" x="0px" y="0px"
	 width="100%" viewBox="0 0 512 512" enable-background="new 0 0 512 512" xml:space="preserve">
<path fill="#000000" opacity="1.000000" stroke="none" 
	d="
M229.662964,139.820602 
	C237.746887,113.487915 247.528366,88.226448 258.401581,63.360878 
	C260.017548,59.665409 262.012756,58.382305 265.884827,58.505920 
	C271.529694,58.686131 277.197601,58.448795 282.844330,58.164257 
	C286.819580,57.963940 288.322540,59.215961 287.263794,63.372040 
	C281.235229,87.036316 276.337067,110.949608 271.826599,134.942673 
	C270.692230,140.976807 269.681671,147.040924 268.858154,153.124283 
	C268.371033,156.722748 266.831787,158.250427 263.031036,158.170532 
	C253.046951,157.960648 243.055267,158.145584 233.067642,158.057281 
	C228.047287,158.012924 225.835358,155.337341 226.799179,150.297272 
	C227.452072,146.883148 228.631638,143.569733 229.662964,139.820602 
z"/>
<path fill="#000000" opacity="1.000000" stroke="none" 
	d="
M338.218506,329.060699 
	C329.597168,326.433838 326.018860,320.441986 328.775940,313.863647 
	C330.747681,309.159088 335.491638,306.224335 340.193665,306.800232 
	C345.346741,307.431366 349.495697,311.426666 350.188568,316.425018 
	C350.851471,321.207092 347.741638,326.392120 342.954010,328.216858 
	C341.592041,328.735962 340.065887,328.824280 338.218506,329.060699 
z"/>
<path fill="#000000" opacity="1.000000" stroke="none" 
	d="
M256.161591,362.646973 
	C263.602509,363.018433 267.992096,366.947113 268.248352,373.068695 
	C268.474487,378.471924 264.175903,383.693848 258.947205,384.367859 
	C252.657578,385.178589 247.566635,381.813385 246.115555,375.885864 
	C244.627487,369.807251 248.751251,364.138702 256.161591,362.646973 
z"/>
<path fill="#000000" opacity="1.000000" stroke="none" 
	d="
M188.020966,211.767059 
	C194.273880,209.083939 199.961395,210.283203 202.925598,214.636658 
	C205.952148,219.081696 205.511200,224.965073 201.865021,228.787659 
	C198.149002,232.683487 192.340469,233.339935 187.774063,230.380188 
	C181.116974,226.065292 181.079880,217.891815 188.020966,211.767059 
z"/>
<path fill="#000000" opacity="1.000000" stroke="none" 
	d="
M330.576111,216.988861 
	C333.449951,225.149170 327.344055,231.155624 321.991394,232.124313 
	C316.039429,233.201447 310.454315,229.046402 309.342499,222.789368 
	C308.436157,217.688660 311.521729,212.598007 316.728394,210.603928 
	C321.925201,208.613602 326.808899,210.759933 330.576111,216.988861 
z"/>
<path fill="#000000" opacity="1.000000" stroke="none" 
	d="
M167.089828,243.093506 
	C172.042175,237.648834 180.909439,239.161545 184.326584,244.558350 
	C187.865601,250.147583 186.142227,257.142487 180.260468,260.422272 
	C175.953796,262.823792 170.360703,261.942993 166.977661,258.330536 
	C162.956299,254.036423 162.906509,249.327316 167.089828,243.093506 
z"/>
<path fill="#000000" opacity="1.000000" stroke="none" 
	d="
M327.886047,250.172241 
	C328.911957,244.539352 331.790741,240.831833 337.114655,239.832764 
	C341.494934,239.010788 345.391357,240.441086 348.063782,244.238098 
	C350.691986,247.972260 351.083618,251.950668 348.742584,255.968597 
	C346.469177,259.870361 343.057495,262.069702 338.462982,261.721283 
	C333.767487,261.365143 330.277649,259.060852 328.668335,254.455505 
	C328.236084,253.218506 328.120300,251.870911 327.886047,250.172241 
z"/>
<path fill="#000000" opacity="1.000000" stroke="none" 
	d="
M176.390564,291.287628 
	C170.638748,296.180786 165.089005,296.550842 160.554703,292.641541 
	C156.472595,289.122101 155.519165,283.169891 158.320770,278.695282 
	C161.712265,273.278534 168.595184,271.627838 173.932068,274.951355 
	C179.206635,278.236053 180.280502,284.639343 176.390564,291.287628 
z"/>
<path fill="#000000" opacity="1.000000" stroke="none" 
	d="
M335.524963,281.728607 
	C338.335480,275.258759 342.019836,272.758972 347.323883,273.413910 
	C352.499420,274.052979 356.198792,277.259979 357.173859,281.952942 
	C358.168335,286.739502 355.806061,291.846252 351.355713,294.146881 
	C347.675781,296.049194 343.892456,295.941406 340.425049,293.696991 
	C336.259155,291.000549 334.590607,287.047028 335.524963,281.728607 
z"/>
<path fill="#000000" opacity="1.000000" stroke="none" 
	d="
M170.429535,327.914398 
	C164.851410,324.225922 162.940186,320.027222 164.368561,315.197937 
	C165.820541,310.288849 170.238739,306.745544 174.920654,306.735413 
	C180.062622,306.724274 184.479156,310.178101 185.883987,315.314362 
	C187.016693,319.455688 185.621445,323.018829 182.742569,325.784058 
	C179.391312,329.002991 175.303513,330.105103 170.429535,327.914398 
z"/>
<path fill="#000000" opacity="1.000000" stroke="none" 
	d="
M248.138168,201.684937 
	C244.900497,196.736893 245.152817,192.148529 248.651596,188.005798 
	C251.234940,184.946976 254.616302,183.314117 258.858490,184.244476 
	C263.728943,185.312607 266.858704,188.130127 268.000702,193.019363 
	C269.016998,197.370438 266.579498,202.384979 262.331421,204.809769 
	C257.741272,207.429840 253.563385,206.587036 248.138168,201.684937 
z"/>
<path fill="#000000" opacity="1.000000" stroke="none" 
	d="
M285.052002,192.825287 
	C291.179321,190.478012 295.955811,191.234314 299.027710,194.984482 
	C302.041656,198.663849 302.526978,202.849594 300.592102,207.128250 
	C298.610138,211.511093 293.969757,213.887970 289.078247,213.239197 
	C284.492676,212.631012 281.350006,209.890442 280.100677,205.622543 
	C278.605469,200.514740 280.141388,196.107178 285.052002,192.825287 
z"/>
<path fill="#000000" opacity="1.000000" stroke="none" 
	d="
M300.534180,371.279724 
	C296.590637,376.728851 292.568481,378.572815 287.574982,376.977570 
	C283.126709,375.556488 280.202850,372.524170 279.711823,367.658356 
	C279.203033,362.616913 281.595856,358.258820 286.055786,356.287506 
	C290.214691,354.449280 294.326172,354.915070 297.766174,357.811981 
	C301.940643,361.327271 302.558929,365.934021 300.534180,371.279724 
z"/>
<path fill="#000000" opacity="1.000000" stroke="none" 
	d="
M330.074341,352.631165 
	C325.917084,358.025116 321.972137,359.690552 316.984161,358.071167 
	C312.247772,356.533478 309.471680,353.075226 309.151337,348.142853 
	C308.843994,343.410950 311.045593,339.721130 315.386963,337.695404 
	C319.639282,335.711212 323.979492,335.970215 327.507324,339.158905 
	C331.451874,342.724274 332.501617,347.246613 330.074341,352.631165 
z"/>
<path fill="#000000" opacity="1.000000" stroke="none" 
	d="
M234.192810,199.540833 
	C234.486420,209.547058 227.709610,215.583313 219.876480,212.769882 
	C214.941696,210.997452 212.392410,207.073685 212.646667,201.595215 
	C212.882324,196.517258 215.632614,193.251297 220.295868,191.702759 
	C224.873642,190.182617 230.205688,192.309204 232.846603,196.441422 
	C233.376114,197.269974 233.700821,198.229431 234.192810,199.540833 
z"/>
<path fill="#000000" opacity="1.000000" stroke="none" 
	d="
M213.089874,370.227661 
	C212.055679,360.677490 216.606674,354.645416 223.940231,355.252319 
	C229.438507,355.707367 233.612762,359.370148 234.293289,364.336792 
	C235.069931,370.004608 231.966934,375.256805 226.851410,376.932953 
	C221.612244,378.649689 216.602997,376.325043 213.089874,370.227661 
z"/>
<path fill="#000000" opacity="1.000000" stroke="none" 
	d="
M200.795319,356.029755 
	C193.910507,359.983521 187.292435,358.579468 184.160919,352.811859 
	C181.088898,347.153809 183.209274,340.521088 189.026627,337.591187 
	C193.315414,335.431213 199.535522,336.797241 202.593521,340.570740 
	C206.329254,345.180573 205.834320,350.235168 200.795319,356.029755 
z"/>
</svg>