<svg version="1.1" id="Layer_1" xmlns="http://www.w3.org/2000/svg" xmlns:xlink="http://www.w3.org/1999/xlink" x="0px" y="0px"
	 width="100%" viewBox="0 0 512 512" enable-background="new 0 0 512 512" xml:space="preserve">
<path fill="#000000" opacity="1.000000" stroke="none" 
	d="
M386.347595,253.474930 
	C390.972015,231.971436 395.318634,210.837051 398.565704,189.500793 
	C399.079620,186.123978 400.797363,185.567551 403.637299,185.588013 
	C413.623688,185.660049 423.610962,185.611679 433.597900,185.614365 
	C439.581421,185.615982 441.741638,188.223953 440.194489,194.060471 
	C437.426208,204.503510 434.070496,214.768295 430.494843,224.966034 
	C423.942291,243.653900 416.531738,261.993652 408.681244,280.169708 
	C407.127411,283.767273 405.053833,285.282318 401.142609,285.104492 
	C395.661407,284.855194 390.159637,285.090790 384.667175,285.049377 
	C379.404877,285.009674 379.026764,284.433960 380.292938,279.089050 
	C382.283112,270.687988 384.247070,262.280701 386.347595,253.474930 
z"/>
<path fill="#000000" opacity="1.000000" stroke="none" 
	d="
M328.934448,313.344238 
	C333.524353,306.767456 338.677124,305.131378 344.366669,308.133972 
	C349.094604,310.629089 351.368256,316.314728 349.608490,321.241974 
	C347.530548,327.060059 341.764313,330.221405 336.251404,328.564941 
	C329.556061,326.553192 326.760132,320.994751 328.934448,313.344238 
z"/>
<path fill="#000000" opacity="1.000000" stroke="none" 
	d="
M350.557007,274.101593 
	C356.468506,277.814880 358.582520,282.547302 356.879456,287.612671 
	C355.194855,292.623108 350.649048,295.653412 345.343018,295.303040 
	C340.136292,294.959259 336.220184,291.259521 335.302277,285.817078 
	C333.929993,277.680634 340.975739,272.067719 350.557007,274.101593 
z"/>
<path fill="#000000" opacity="1.000000" stroke="none" 
	d="
M347.216125,258.139984 
	C342.309143,263.814178 333.039886,262.254730 329.663208,256.667267 
	C326.277130,251.064224 328.145691,244.088181 334.077209,240.859955 
	C338.139130,238.649231 343.682037,239.520615 346.977570,242.888016 
	C351.073822,247.073608 351.227509,251.869934 347.216125,258.139984 
z"/>
<path fill="#000000" opacity="1.000000" stroke="none" 
	d="
M185.909760,320.372894 
	C181.566299,329.986237 172.014038,331.978699 166.420502,324.798401 
	C163.194427,320.657166 163.111115,315.589203 166.200455,311.408600 
	C169.221069,307.320892 173.919037,305.810028 178.569733,307.430542 
	C183.941620,309.302368 186.383072,313.413605 185.909760,320.372894 
z"/>
<path fill="#000000" opacity="1.000000" stroke="none" 
	d="
M160.262115,276.255188 
	C167.047729,271.773743 174.140381,272.876892 177.445175,278.620575 
	C180.727142,284.324615 178.582687,291.228699 172.581696,294.278564 
	C168.297546,296.455872 162.639755,295.246979 159.431473,291.468719 
	C155.668777,287.037537 155.851120,282.135254 160.262115,276.255188 
z"/>
<path fill="#000000" opacity="1.000000" stroke="none" 
	d="
M166.574005,243.677505 
	C172.338074,237.127441 181.092316,239.645645 184.173279,244.316559 
	C187.857864,249.902557 186.360184,256.795288 180.499969,260.265747 
	C176.265488,262.773407 170.634598,262.042633 167.172180,258.536041 
	C163.238022,254.551697 162.970078,249.927017 166.574005,243.677505 
z"/>
<path fill="#000000" opacity="1.000000" stroke="none" 
	d="
M325.459534,230.845520 
	C318.629120,233.316269 313.268738,231.608627 310.527893,226.397430 
	C307.941650,221.480316 309.105255,215.942322 313.446899,212.504776 
	C318.406982,208.577576 325.165009,209.318665 328.994263,214.209671 
	C333.086761,219.436798 331.879425,225.649338 325.459534,230.845520 
z"/>
<path fill="#000000" opacity="1.000000" stroke="none" 
	d="
M194.754272,232.225967 
	C187.892212,231.512161 184.158096,228.729813 183.014130,223.531921 
	C181.924835,218.582458 183.760696,214.665543 187.871765,211.884460 
	C192.936981,208.457916 200.098114,210.024185 203.187500,215.097336 
	C206.585968,220.678009 204.933136,227.482941 199.330200,230.599564 
	C198.043152,231.315475 196.557236,231.673859 194.754272,232.225967 
z"/>
<path fill="#000000" opacity="1.000000" stroke="none" 
	d="
M259.284363,184.389374 
	C265.806610,186.784668 268.902283,191.088745 268.169037,196.332733 
	C267.444519,201.514816 262.757050,205.980545 257.765106,206.244507 
	C252.431442,206.526566 247.367569,202.596375 246.131210,197.215164 
	C244.431717,189.818085 250.657898,183.509583 259.284363,184.389374 
z"/>
<path fill="#000000" opacity="1.000000" stroke="none" 
	d="
M290.926880,213.307327 
	C282.871460,212.398712 278.573395,207.135574 279.762787,200.157578 
	C280.780457,194.187088 287.000824,190.299973 293.351227,191.666138 
	C298.456055,192.764343 301.749817,197.060837 301.704895,202.563034 
	C301.659210,208.159042 297.842346,212.116501 290.926880,213.307327 
z"/>
<path fill="#000000" opacity="1.000000" stroke="none" 
	d="
M281.639648,359.934143 
	C285.371246,355.402191 289.832916,354.256012 294.857758,356.087158 
	C299.414703,357.747833 301.546600,361.445465 301.656708,366.174408 
	C301.763275,370.750183 299.551575,374.102356 295.516357,376.222809 
	C291.284668,378.446564 286.105957,377.535889 282.686676,374.013885 
	C279.105896,370.325439 278.682159,365.718628 281.639648,359.934143 
z"/>
<path fill="#000000" opacity="1.000000" stroke="none" 
	d="
M267.822418,376.293823 
	C266.001740,381.043243 263.132446,383.949768 258.225098,384.370148 
	C253.908157,384.739929 250.344879,383.409546 247.840271,379.755280 
	C244.995270,375.604340 245.199387,370.730469 248.327957,366.767090 
	C251.403809,362.870483 256.753235,361.441315 261.373169,363.281830 
	C266.190399,365.201019 268.497314,369.629700 267.822418,376.293823 
z"/>
<path fill="#000000" opacity="1.000000" stroke="none" 
	d="
M330.997009,344.676086 
	C331.553406,352.183685 328.295807,357.279053 322.656403,358.308167 
	C317.004150,359.339630 311.610077,356.396362 309.795532,351.290619 
	C307.777863,345.613312 310.471649,339.562469 316.019257,337.310730 
	C322.104523,334.840790 327.606781,337.422577 330.997009,344.676086 
z"/>
<path fill="#000000" opacity="1.000000" stroke="none" 
	d="
M233.853577,206.175049 
	C230.102448,212.231018 226.182556,214.405350 221.076889,213.104263 
	C216.785538,212.010666 213.578262,209.420609 212.791565,204.822754 
	C211.940399,199.848145 213.328262,195.607315 217.824631,192.803726 
	C221.791428,190.330276 225.822678,190.858978 229.564621,193.148499 
	C234.361145,196.083282 234.979431,200.718704 233.853577,206.175049 
z"/>
<path fill="#000000" opacity="1.000000" stroke="none" 
	d="
M233.504471,370.921448 
	C230.612808,375.955505 226.573837,378.193726 221.253937,377.116180 
	C216.900589,376.234467 213.672302,373.564026 212.819901,368.998962 
	C211.896057,364.051208 213.236969,359.761414 217.687378,356.888702 
	C221.807312,354.229309 226.032455,354.745880 229.828491,357.322021 
	C234.591537,360.554413 235.252960,365.314056 233.504471,370.921448 
z"/>
<path fill="#000000" opacity="1.000000" stroke="none" 
	d="
M187.065796,338.841125 
	C193.166306,335.381989 198.987228,336.162415 202.585632,340.660522 
	C205.941711,344.855743 205.744263,350.680176 202.106918,354.780090 
	C198.474258,358.874756 192.329788,359.645050 187.640839,356.593597 
	C181.567764,352.641357 181.194626,345.429932 187.065796,338.841125 
z"/>
</svg>