<svg version="1.1" id="Layer_1" xmlns="http://www.w3.org/2000/svg" xmlns:xlink="http://www.w3.org/1999/xlink" x="0px" y="0px"
	 width="100%" viewBox="0 0 512 512" enable-background="new 0 0 512 512" xml:space="preserve">
<path fill="#000000" opacity="1.000000" stroke="none" 
	d="
M285.959595,400.655212 
	C289.907196,400.654633 293.363251,400.654633 296.639221,400.654633 
	C298.062500,404.222412 297.183136,406.754639 295.349945,409.120422 
	C279.579681,429.472198 262.041077,448.124542 242.168015,464.541199 
	C240.510971,465.910034 238.651291,466.277863 236.587936,466.260529 
	C231.588760,466.218475 226.587662,466.308502 221.590179,466.206512 
	C219.692642,466.167786 217.254837,466.958344 216.184906,464.710876 
	C215.024536,462.273499 215.803207,459.898804 217.398972,457.712982 
	C221.032715,452.735687 224.605240,447.712250 228.127029,442.654968 
	C236.606812,430.478027 244.457687,417.900513 251.452560,404.817078 
	C253.090439,401.753571 254.996765,400.508759 258.472260,400.588379 
	C267.466675,400.794373 276.468933,400.656403 285.959595,400.655212 
z"/>
<path fill="#000000" opacity="1.000000" stroke="none" 
	d="
M340.626526,306.873657 
	C346.096008,308.139923 349.303864,311.268890 350.120148,316.394928 
	C350.772186,320.489349 349.089203,323.946991 345.925751,326.533844 
	C342.045593,329.706787 337.148254,329.835175 332.914948,327.098358 
	C329.110199,324.638611 327.106934,319.557922 328.284637,315.355103 
	C329.829773,309.841095 333.762878,307.023071 340.626526,306.873657 
z"/>
<path fill="#000000" opacity="1.000000" stroke="none" 
	d="
M260.357300,384.097473 
	C248.682617,386.523621 243.621902,375.452942 246.757507,369.208191 
	C249.084396,364.574005 252.861389,362.219269 258.417450,362.676880 
	C263.545685,363.099304 266.578217,366.139069 267.831635,370.858765 
	C269.114960,375.691254 267.333618,379.621704 263.362823,382.557373 
	C262.573792,383.140656 261.632233,383.517609 260.357300,384.097473 
z"/>
<path fill="#000000" opacity="1.000000" stroke="none" 
	d="
M203.181427,215.077454 
	C206.408310,223.169357 204.221451,229.010254 197.319214,231.572144 
	C191.499359,233.732254 185.106079,230.391312 183.194366,224.190887 
	C181.707458,219.368240 183.901566,214.022308 188.427490,211.440430 
	C193.324844,208.646652 198.304489,209.771667 203.181427,215.077454 
z"/>
<path fill="#000000" opacity="1.000000" stroke="none" 
	d="
M176.378906,291.277588 
	C170.563629,297.851532 162.139969,295.417084 158.875671,290.796997 
	C155.027557,285.350677 156.403259,278.364075 162.121902,274.867828 
	C166.423019,272.238220 172.329681,272.944061 175.841248,276.507355 
	C179.666534,280.389008 179.924591,285.259399 176.378906,291.277588 
z"/>
<path fill="#000000" opacity="1.000000" stroke="none" 
	d="
M289.383759,355.324463 
	C295.314636,355.299500 299.546387,357.449249 301.183807,363.041473 
	C302.573639,367.788116 301.355896,372.030670 297.388062,375.101624 
	C293.606293,378.028564 289.298981,378.284607 285.184296,375.988800 
	C280.824341,373.556030 278.984497,369.505890 279.759460,364.579926 
	C280.577850,359.378204 283.927460,356.451324 289.383759,355.324463 
z"/>
<path fill="#000000" opacity="1.000000" stroke="none" 
	d="
M318.434998,232.053345 
	C311.887421,229.779526 308.728058,225.641525 309.142487,220.327591 
	C309.536316,215.277695 314.102631,210.519089 319.117920,209.932159 
	C323.815643,209.382385 328.795441,212.472229 330.607697,217.061218 
	C333.638062,224.734802 327.910858,232.069839 318.434998,232.053345 
z"/>
<path fill="#000000" opacity="1.000000" stroke="none" 
	d="
M164.254639,253.322754 
	C163.682922,246.658630 166.299576,242.100449 171.445786,240.196960 
	C175.780380,238.593689 181.191299,240.218231 183.936188,244.059402 
	C186.575455,247.752686 187.151794,251.695160 184.849152,255.776184 
	C182.623199,259.721313 179.210022,261.997559 174.653687,261.730591 
	C169.531296,261.430511 165.912186,258.800140 164.254639,253.322754 
z"/>
<path fill="#000000" opacity="1.000000" stroke="none" 
	d="
M338.175751,239.687408 
	C345.621796,240.275269 349.988007,244.230881 350.251373,250.237274 
	C350.490417,255.689087 345.957306,260.994843 340.460114,261.697418 
	C334.713867,262.431824 329.620361,258.844238 328.195129,253.058640 
	C326.717957,247.062042 330.584106,241.660583 338.175751,239.687408 
z"/>
<path fill="#000000" opacity="1.000000" stroke="none" 
	d="
M342.771484,294.878357 
	C336.390625,291.404755 334.048767,286.776306 335.622894,281.366364 
	C337.114075,276.241516 341.759735,272.901794 346.809570,273.324371 
	C353.322388,273.869415 357.622559,278.608154 357.319397,284.906219 
	C357.025879,291.004303 352.117737,295.383606 345.628967,295.302979 
	C344.803986,295.292755 343.981018,295.121124 342.771484,294.878357 
z"/>
<path fill="#000000" opacity="1.000000" stroke="none" 
	d="
M183.341095,325.238586 
	C176.152145,330.637939 169.314438,329.843384 165.586029,323.507446 
	C162.236145,317.814789 164.348175,311.000671 170.422729,307.902710 
	C174.595520,305.774628 179.930664,306.792542 183.214813,310.343292 
	C187.018585,314.455872 187.132950,319.017517 183.341095,325.238586 
z"/>
<path fill="#000000" opacity="1.000000" stroke="none" 
	d="
M267.667603,198.179199 
	C265.762482,203.218185 262.410400,206.052856 257.442719,206.177063 
	C253.000931,206.288101 249.394562,204.199081 247.208893,200.189316 
	C244.895782,195.945740 245.746979,190.776001 249.173569,187.304794 
	C252.576492,183.857574 257.432373,183.102554 262.043243,185.303726 
	C266.688904,187.521515 268.626770,191.715378 267.667603,198.179199 
z"/>
<path fill="#000000" opacity="1.000000" stroke="none" 
	d="
M301.226746,199.025787 
	C302.299622,204.437576 301.095215,208.613235 296.613007,211.525986 
	C292.737854,214.044220 288.757507,214.050430 284.866364,211.732086 
	C280.683014,209.239655 278.609436,204.352524 279.887054,199.676117 
	C281.126862,195.138092 284.174988,192.228577 288.923157,191.459412 
	C294.342957,190.581467 298.150909,192.877609 301.226746,199.025787 
z"/>
<path fill="#000000" opacity="1.000000" stroke="none" 
	d="
M310.633850,353.090088 
	C308.357422,346.729645 309.107117,342.193817 312.941406,339.152222 
	C316.823547,336.072662 321.213623,335.636719 325.579895,337.852081 
	C329.879303,340.033508 331.629883,343.934998 331.266510,348.635895 
	C330.909698,353.251831 328.105469,356.290680 323.987762,357.937134 
	C319.372894,359.782318 314.951111,358.118500 310.633850,353.090088 
z"/>
<path fill="#000000" opacity="1.000000" stroke="none" 
	d="
M226.381226,213.041946 
	C215.891144,213.610443 209.740570,206.252197 213.387756,197.956650 
	C215.285934,193.639221 218.680237,191.085892 223.505341,191.292496 
	C228.338455,191.499451 232.259521,193.662018 233.820251,198.485016 
	C235.304520,203.071732 234.458328,207.379684 230.599197,210.652542 
	C229.483093,211.599075 228.060898,212.184677 226.381226,213.041946 
z"/>
<path fill="#000000" opacity="1.000000" stroke="none" 
	d="
M221.430511,377.211243 
	C213.638779,374.020142 210.817688,368.718719 213.157959,362.387787 
	C215.028320,357.328033 220.155563,354.482147 225.479538,355.548676 
	C231.322952,356.719208 234.549713,360.846863 234.352158,366.898407 
	C234.177139,372.259674 230.167511,376.651428 224.825348,377.264587 
	C223.844391,377.377167 222.838272,377.270752 221.430511,377.211243 
z"/>
<path fill="#000000" opacity="1.000000" stroke="none" 
	d="
M200.157883,356.502747 
	C193.152069,359.873413 186.942734,358.225891 184.036163,352.546600 
	C181.209000,347.022491 183.273010,340.642883 188.839371,337.700470 
	C193.323883,335.329926 199.586853,336.743774 202.722504,340.834564 
	C206.517654,345.785736 205.771027,350.921051 200.157883,356.502747 
z"/>
</svg>