<svg version="1.1" id="Layer_1" xmlns="http://www.w3.org/2000/svg" xmlns:xlink="http://www.w3.org/1999/xlink" x="0px" y="0px"
	 width="100%" viewBox="0 0 512 512" enable-background="new 0 0 512 512" xml:space="preserve">
<path fill="#000000" opacity="1.000000" stroke="none" 
	d="
M293.197449,412.002380 
	C293.199280,429.971954 293.212524,447.441986 293.197601,464.912018 
	C293.191925,471.567719 292.913116,471.855133 286.100861,471.864899 
	C280.446045,471.873016 274.791077,471.768616 269.136230,471.706604 
	C266.045258,471.672699 264.732391,470.181885 264.811157,467.020203 
	C264.951996,461.367065 264.676727,455.701874 264.877411,450.052490 
	C265.002991,446.517975 263.553131,445.371643 260.185669,445.415405 
	C249.050217,445.560028 237.908005,445.359680 226.777908,445.653076 
	C222.220612,445.773224 220.448517,444.310455 220.764984,439.676605 
	C221.093018,434.873474 220.978638,430.027222 220.818985,425.207764 
	C220.691605,421.362091 222.288345,419.833527 226.129456,419.877899 
	C236.776382,420.001068 247.425735,419.927948 258.074097,419.912781 
	C264.800812,419.903198 264.807434,419.887421 264.825745,413.379669 
	C264.839783,408.388306 264.924561,403.394684 264.805328,398.406219 
	C264.728668,395.200470 266.127167,393.890076 269.268494,393.927612 
	C275.756256,394.005249 282.245728,393.985992 288.734131,393.944458 
	C291.880280,393.924286 293.255585,395.400970 293.199982,398.525574 
	C293.122986,402.849976 293.191467,407.176941 293.197449,412.002380 
z"/>
<path fill="#000000" opacity="1.000000" stroke="none" 
	d="
M328.980347,313.389526 
	C333.497742,306.785980 338.648010,305.129578 344.352325,308.140137 
	C349.093872,310.642548 351.362213,316.291138 349.606842,321.224792 
	C347.474121,327.218964 341.482178,330.344666 335.795990,328.429260 
	C329.423950,326.282806 326.800903,320.764191 328.980347,313.389526 
z"/>
<path fill="#000000" opacity="1.000000" stroke="none" 
	d="
M185.627930,213.712952 
	C189.977982,209.469116 194.588287,208.951355 199.516998,211.611420 
	C203.614883,213.823074 205.282532,217.714355 204.952454,222.019714 
	C204.600342,226.612335 201.877487,229.954590 197.359451,231.557037 
	C192.529861,233.269989 188.514053,231.795349 185.303741,228.136520 
	C181.760178,224.097855 181.899445,219.485611 185.627930,213.712952 
z"/>
<path fill="#000000" opacity="1.000000" stroke="none" 
	d="
M173.409088,293.800598 
	C167.262695,296.340210 162.356323,295.400177 159.163254,291.117493 
	C156.208557,287.154510 155.674118,282.873413 158.376648,278.532349 
	C161.148026,274.080688 166.314682,272.222260 171.461395,273.838135 
	C175.683441,275.163696 178.038010,278.238190 178.828735,282.498932 
	C179.728470,287.347168 177.509079,290.837311 173.409088,293.800598 
z"/>
<path fill="#000000" opacity="1.000000" stroke="none" 
	d="
M357.283997,285.683533 
	C356.096680,290.869598 353.322601,294.220215 348.412354,295.165009 
	C344.225037,295.970703 340.482758,294.780060 337.705414,291.333313 
	C334.607819,287.489044 334.358490,282.454956 337.009308,278.336548 
	C339.777130,274.036377 344.484528,272.346649 349.623779,273.808472 
	C354.500153,275.195618 357.024353,278.957123 357.283997,285.683533 
z"/>
<path fill="#000000" opacity="1.000000" stroke="none" 
	d="
M248.373169,380.523346 
	C245.214325,375.946716 244.935638,371.628662 247.948181,367.280792 
	C250.845108,363.099792 254.985001,361.904907 259.725189,362.826508 
	C264.018005,363.661102 266.603516,366.562317 267.819305,370.692871 
	C269.128906,375.142242 267.144684,380.159424 263.098328,382.759888 
	C258.615570,385.640808 253.511612,384.958679 248.373169,380.523346 
z"/>
<path fill="#000000" opacity="1.000000" stroke="none" 
	d="
M282.830414,374.161530 
	C279.102081,369.924835 278.535309,365.508057 281.022614,360.962585 
	C283.193665,356.995117 286.773224,354.993256 291.364441,355.345642 
	C296.330383,355.726807 299.821991,358.239777 301.220764,363.132263 
	C302.613403,368.003265 300.870758,372.737061 296.908661,375.444305 
	C292.621826,378.373474 288.251190,378.053894 282.830414,374.161530 
z"/>
<path fill="#000000" opacity="1.000000" stroke="none" 
	d="
M179.724899,307.857666 
	C185.425888,311.702026 187.331207,316.159698 185.666656,321.063812 
	C184.057663,325.804199 179.335754,329.284088 174.765778,329.097443 
	C169.866394,328.897339 165.676300,325.462555 164.292206,320.499390 
	C163.138580,316.362610 164.557709,312.868317 167.424347,310.053040 
	C170.790421,306.747253 174.843719,305.754181 179.724899,307.857666 
z"/>
<path fill="#000000" opacity="1.000000" stroke="none" 
	d="
M345.879578,241.891174 
	C350.575623,247.155670 351.446289,251.107437 348.890656,255.670654 
	C346.495911,259.946533 342.902527,262.242126 337.798737,261.616516 
	C332.509552,260.968170 329.347687,257.886169 328.173248,252.851410 
	C327.166687,248.536453 328.850739,244.942535 332.134003,242.212112 
	C336.393585,238.669724 340.962311,238.878159 345.879578,241.891174 
z"/>
<path fill="#000000" opacity="1.000000" stroke="none" 
	d="
M165.851868,256.924194 
	C161.546646,251.014206 164.690704,242.769882 171.488297,240.197998 
	C177.248077,238.018738 183.783096,241.482025 185.734726,247.650787 
	C187.196548,252.271347 185.163666,257.353271 180.753143,260.104004 
	C175.935165,263.108856 170.825089,262.117798 165.851868,256.924194 
z"/>
<path fill="#000000" opacity="1.000000" stroke="none" 
	d="
M323.934967,210.684601 
	C330.180939,214.019104 332.615997,218.947845 330.970245,224.239975 
	C329.543884,228.826645 324.627747,232.409317 319.997314,232.236618 
	C314.445343,232.029572 310.333740,228.383545 309.338470,222.784805 
	C307.940277,214.919220 315.164001,208.721893 323.934967,210.684601 
z"/>
<path fill="#000000" opacity="1.000000" stroke="none" 
	d="
M247.290863,200.366287 
	C244.613007,192.483932 247.589127,186.165894 254.509827,184.274017 
	C260.065674,182.755234 266.305939,186.645691 267.879852,192.609512 
	C269.130829,197.349686 266.545471,202.687332 261.834656,205.090317 
	C256.909912,207.602402 251.844009,206.052048 247.290863,200.366287 
z"/>
<path fill="#000000" opacity="1.000000" stroke="none" 
	d="
M295.407410,192.288666 
	C300.845306,195.899734 302.679077,199.860565 301.312073,205.087814 
	C300.101013,209.718796 296.936584,212.478592 292.253448,213.221390 
	C287.369507,213.996048 282.769348,211.585175 280.714386,207.185959 
	C278.805908,203.100357 279.115540,199.047928 282.007263,195.481903 
	C285.483063,191.195648 290.010406,190.513733 295.407410,192.288666 
z"/>
<path fill="#000000" opacity="1.000000" stroke="none" 
	d="
M309.694336,344.020050 
	C313.188660,337.734924 316.975800,335.677826 322.742676,336.810059 
	C327.550903,337.754028 330.238953,341.005951 331.155518,345.599121 
	C332.100830,350.336090 330.187958,354.133209 326.232086,356.736176 
	C322.220337,359.375885 317.944214,359.231049 314.047058,356.594574 
	C309.759430,353.693970 308.230286,349.507477 309.694336,344.020050 
z"/>
<path fill="#000000" opacity="1.000000" stroke="none" 
	d="
M219.987122,355.722900 
	C226.887009,354.726135 231.400925,356.849548 233.567352,361.845398 
	C235.524094,366.357697 234.196548,371.840790 230.404755,374.907898 
	C226.380676,378.163025 220.907867,378.117035 216.562912,375.020599 
	C210.863205,370.958710 210.732162,359.307465 219.987122,355.722900 
z"/>
<path fill="#000000" opacity="1.000000" stroke="none" 
	d="
M224.556793,191.405243 
	C230.093918,192.299103 233.429092,195.141678 234.261963,200.373428 
	C235.039505,205.257706 233.321899,209.222748 229.012054,211.805389 
	C224.869019,214.288071 220.759735,213.828995 216.873489,211.148880 
	C212.567352,208.179169 211.973206,203.799911 212.927246,199.181992 
	C213.918121,194.385666 218.130417,191.639755 224.556793,191.405243 
z"/>
<path fill="#000000" opacity="1.000000" stroke="none" 
	d="
M199.490509,356.948853 
	C192.575119,359.623383 186.906448,357.947266 184.119537,352.714539 
	C181.434631,347.673340 182.785782,341.907288 187.425354,338.606812 
	C192.153214,335.243439 199.008347,336.183105 202.598923,340.686707 
	C206.709778,345.842896 205.728882,351.537720 199.490509,356.948853 
z"/>
</svg>