<svg version="1.1" id="Layer_1" xmlns="http://www.w3.org/2000/svg" xmlns:xlink="http://www.w3.org/1999/xlink" x="0px" y="0px"
	 width="100%" viewBox="0 0 512 512" enable-background="new 0 0 512 512" xml:space="preserve">
<path fill="#000000" opacity="1.000000" stroke="none" 
	d="
M249.203735,411.886047 
	C249.253693,419.889313 249.253693,419.895325 256.959015,419.902557 
	C267.109833,419.912140 277.262817,420.034912 287.410400,419.855927 
	C291.685059,419.780518 293.470093,421.306549 293.244781,425.679657 
	C292.988251,430.658661 293.047089,435.665924 293.228149,440.651520 
	C293.359131,444.256927 292.125916,445.479553 288.342163,445.567108 
	C277.195801,445.824951 266.055176,446.193939 254.926239,445.389221 
	C250.608002,445.076996 248.886780,446.597656 249.123535,451.034973 
	C249.415710,456.510590 249.117401,462.015137 249.212601,467.504791 
	C249.263733,470.453033 247.945450,471.833099 245.071198,471.821045 
	C238.417130,471.793121 231.763077,471.753754 225.109116,471.706055 
	C221.997681,471.683746 220.797806,470.142303 220.808914,467.001160 
	C220.889450,444.203735 220.892365,421.405792 220.817093,398.608337 
	C220.805618,395.137665 222.266495,393.856171 225.607452,393.914764 
	C231.762527,394.022705 237.922607,394.030365 244.077301,393.910828 
	C248.005249,393.834534 249.388168,395.691956 249.234909,399.426239 
	C249.071274,403.413147 249.201874,407.412170 249.203735,411.886047 
z"/>
<path fill="#000000" opacity="1.000000" stroke="none" 
	d="
M185.150940,214.325607 
	C190.203201,209.622177 193.830658,208.846695 198.842438,211.227692 
	C203.261932,213.327332 205.177536,217.235947 204.964859,221.745407 
	C204.737030,226.576279 201.871994,230.028076 197.155380,231.633530 
	C192.536697,233.205627 188.638031,231.792053 185.486923,228.346420 
	C181.964249,224.494507 181.876221,220.089569 185.150940,214.325607 
z"/>
<path fill="#000000" opacity="1.000000" stroke="none" 
	d="
M344.962982,327.198364 
	C337.495422,330.485840 331.200714,328.210358 328.654907,321.620361 
	C326.453156,315.921173 329.767883,309.347198 335.898224,307.254883 
	C341.462158,305.355896 347.918396,308.772247 349.717896,314.740784 
	C351.255676,319.841431 349.325195,323.834045 344.962982,327.198364 
z"/>
<path fill="#000000" opacity="1.000000" stroke="none" 
	d="
M323.934784,210.684967 
	C330.176453,214.017471 332.614807,218.952133 330.970398,224.239090 
	C329.480713,229.028488 324.303040,232.626511 319.499268,232.210556 
	C314.012146,231.735397 309.971252,227.833939 309.231201,222.296738 
	C308.209290,214.650467 315.396851,208.775452 323.934784,210.684967 
z"/>
<path fill="#000000" opacity="1.000000" stroke="none" 
	d="
M168.503326,259.700195 
	C163.687927,254.683395 162.761108,250.711090 165.053314,245.993622 
	C167.150925,241.676651 171.789688,239.106277 176.548828,239.764603 
	C181.566162,240.458633 184.632782,243.483521 185.916183,248.261154 
	C187.079376,252.591248 185.428101,256.216309 182.244614,259.005341 
	C178.107162,262.630127 173.489273,262.518250 168.503326,259.700195 
z"/>
<path fill="#000000" opacity="1.000000" stroke="none" 
	d="
M332.908997,241.603821 
	C339.492676,238.332382 345.305786,239.655212 348.504547,244.858002 
	C351.691498,250.041534 350.331848,256.251434 345.233795,259.796783 
	C340.500610,263.088440 334.037689,262.170624 330.437469,257.695587 
	C326.374664,252.645569 327.116669,247.147552 332.908997,241.603821 
z"/>
<path fill="#000000" opacity="1.000000" stroke="none" 
	d="
M156.998779,281.599915 
	C158.979889,276.444244 162.304672,273.387604 167.551132,273.299500 
	C171.985123,273.225037 175.685760,275.009491 177.773010,279.205383 
	C179.920990,283.523346 179.399033,287.615906 176.335175,291.304230 
	C173.403702,294.833160 169.543777,296.143280 165.143372,295.015564 
	C160.759171,293.891998 157.964493,290.885834 156.971375,286.451447 
	C156.653046,285.030060 156.901321,283.481842 156.998779,281.599915 
z"/>
<path fill="#000000" opacity="1.000000" stroke="none" 
	d="
M337.183350,290.609070 
	C334.403809,284.552795 334.805756,280.063019 338.389923,276.516541 
	C341.985870,272.958435 346.339325,272.361267 350.828613,274.291534 
	C355.422760,276.266937 357.621246,280.074921 357.284241,285.084229 
	C356.961212,289.885406 354.269623,293.295502 349.845276,294.771606 
	C345.010834,296.384583 340.649872,295.123413 337.183350,290.609070 
z"/>
<path fill="#000000" opacity="1.000000" stroke="none" 
	d="
M165.001205,313.393494 
	C169.485443,306.916351 174.434235,305.239960 180.029755,307.997498 
	C184.861557,310.378662 187.336884,316.069519 185.688812,321.007904 
	C183.680298,327.026337 177.602661,330.312073 171.913773,328.455017 
	C165.467834,326.350830 162.820969,320.848419 165.001205,313.393494 
z"/>
<path fill="#000000" opacity="1.000000" stroke="none" 
	d="
M291.777893,377.291809 
	C284.971405,376.987274 280.613342,373.673462 279.767059,368.496185 
	C278.841827,362.835693 281.863525,357.615143 287.096558,355.833008 
	C292.001038,354.162750 297.492981,356.140228 300.123749,360.523712 
	C304.243439,367.388092 300.676056,374.927673 291.777893,377.291809 
z"/>
<path fill="#000000" opacity="1.000000" stroke="none" 
	d="
M266.532379,379.245789 
	C263.169861,384.234222 258.599304,385.304260 253.564560,383.970581 
	C249.151443,382.801544 246.612854,379.410614 245.959717,374.939453 
	C245.290970,370.361267 247.399338,366.845795 251.065567,364.269958 
	C254.777374,361.662048 260.566895,362.014130 264.141602,364.923431 
	C268.231323,368.251831 269.099182,372.919891 266.532379,379.245789 
z"/>
<path fill="#000000" opacity="1.000000" stroke="none" 
	d="
M248.254303,188.427826 
	C252.134735,184.116531 256.427948,182.880951 261.536621,185.063446 
	C265.834625,186.899643 268.039703,190.345276 268.167694,194.804855 
	C268.303375,199.532272 265.848938,203.047012 261.612976,205.177551 
	C257.506714,207.242828 252.162643,206.085144 248.824875,202.516891 
	C245.367798,198.821075 245.113495,194.422562 248.254303,188.427826 
z"/>
<path fill="#000000" opacity="1.000000" stroke="none" 
	d="
M281.651062,195.941833 
	C285.365540,191.352371 289.864868,190.335297 294.866821,192.096268 
	C299.224487,193.630402 301.340088,197.108887 301.612183,201.668808 
	C301.900208,206.495773 299.724274,209.968704 295.519531,212.196274 
	C291.270996,214.447052 286.146729,213.537994 282.704132,210.000839 
	C279.107422,206.305328 278.684540,201.734116 281.651062,195.941833 
z"/>
<path fill="#000000" opacity="1.000000" stroke="none" 
	d="
M309.718689,350.962830 
	C308.449493,344.083740 311.209534,338.811768 316.718964,337.031982 
	C322.309448,335.225952 328.024719,337.791107 330.367981,343.157928 
	C332.706696,348.514313 330.689667,354.333496 325.486603,357.240845 
	C319.716980,360.464752 313.594177,358.160278 309.718689,350.962830 
z"/>
<path fill="#000000" opacity="1.000000" stroke="none" 
	d="
M219.986938,191.735184 
	C225.352310,190.652512 229.694504,191.795013 232.607880,196.119873 
	C235.111679,199.836685 235.246063,203.952759 232.921295,207.857544 
	C230.494171,211.934265 226.774887,213.905518 222.022629,213.221985 
	C217.357407,212.550980 214.038895,209.928406 212.857056,205.262192 
	C211.402054,199.517517 213.581116,195.411163 219.986938,191.735184 
z"/>
<path fill="#000000" opacity="1.000000" stroke="none" 
	d="
M224.561050,355.365234 
	C230.110458,356.270264 233.412567,359.166565 234.257797,364.373749 
	C235.050125,369.254944 233.333282,373.230286 229.019547,375.813873 
	C224.876617,378.295227 220.759933,377.841888 216.874603,375.159729 
	C212.571457,372.189209 211.962799,367.811096 212.940643,363.188446 
	C213.955963,358.388458 218.162277,355.627289 224.561050,355.365234 
z"/>
<path fill="#000000" opacity="1.000000" stroke="none" 
	d="
M200.789963,356.022156 
	C193.915573,359.964111 187.287720,358.560638 184.167130,352.812775 
	C181.104904,347.172455 183.222000,340.533600 189.017456,337.602905 
	C193.390472,335.391541 199.373520,336.721924 202.535721,340.608856 
	C206.335602,345.279633 205.869690,350.196472 200.789963,356.022156 
z"/>
</svg>