<svg version="1.1" id="Layer_1" xmlns="http://www.w3.org/2000/svg" xmlns:xlink="http://www.w3.org/1999/xlink" x="0px" y="0px"
	 width="100%" viewBox="0 0 512 512" enable-background="new 0 0 512 512" xml:space="preserve">
<path fill="#000000" opacity="1.000000" stroke="none" 
	d="
M336.000000,60.918098 
	C346.161896,60.923244 355.826050,61.052193 365.484711,60.878086 
	C369.817230,60.799992 371.300354,62.504868 371.280792,66.794823 
	C371.149323,95.613388 371.139557,124.433022 371.255127,153.251648 
	C371.271759,157.398178 369.646942,158.957550 365.696045,158.891220 
	C359.867432,158.793350 354.032990,158.757767 348.206543,158.908142 
	C344.088440,159.014435 342.746155,157.226883 342.775726,153.188065 
	C342.922150,133.198944 342.849457,113.208229 342.850281,93.218071 
	C342.850555,86.604164 342.845642,86.644669 336.245270,86.673210 
	C315.423859,86.763260 294.602356,86.839943 273.780792,86.878548 
	C266.982239,86.891151 266.826843,86.673882 266.826630,79.826454 
	C266.826508,76.328178 266.823151,72.829872 266.835052,69.331635 
	C266.863556,60.952000 266.866852,60.933064 275.029694,60.927696 
	C295.186462,60.914436 315.343231,60.920265 336.000000,60.918098 
z"/>
<path fill="#000000" opacity="1.000000" stroke="none" 
	d="
M328.974091,313.386719 
	C333.499329,306.776978 338.644104,305.122650 344.357330,308.134674 
	C349.095764,310.632812 351.370667,316.299805 349.613098,321.227539 
	C347.472565,327.228973 341.485138,330.350555 335.794647,328.431885 
	C329.413971,326.280518 326.790009,320.762177 328.974091,313.386719 
z"/>
<path fill="#000000" opacity="1.000000" stroke="none" 
	d="
M261.906799,363.516785 
	C267.520081,367.494843 269.316589,371.844971 267.674469,376.762573 
	C265.951508,381.922241 261.840210,384.685699 256.285919,384.417572 
	C251.204437,384.172241 247.306641,380.883392 246.096115,375.819672 
	C244.085800,367.410492 251.778732,361.194275 261.906799,363.516785 
z"/>
<path fill="#000000" opacity="1.000000" stroke="none" 
	d="
M186.590408,229.505219 
	C182.250458,224.218918 181.562958,220.023529 184.260147,215.649521 
	C186.714249,211.669769 190.254639,209.447433 195.047241,210.110764 
	C200.643250,210.885284 204.021912,214.238113 204.885025,219.784927 
	C205.563324,224.144180 203.687973,227.587967 200.238937,230.056702 
	C195.798599,233.235016 191.266800,232.926346 186.590408,229.505219 
z"/>
<path fill="#000000" opacity="1.000000" stroke="none" 
	d="
M331.172180,223.478806 
	C329.080750,228.979797 325.615387,232.328796 319.882721,232.171768 
	C315.390503,232.048691 311.923462,229.832611 310.119385,225.556213 
	C308.250366,221.125763 308.942657,216.964569 312.287933,213.556671 
	C315.389832,210.396729 319.119690,208.990250 323.653046,210.581558 
	C328.237061,212.190674 330.732635,215.334030 331.281708,220.081207 
	C331.395386,221.064148 331.264191,222.075409 331.172180,223.478806 
z"/>
<path fill="#000000" opacity="1.000000" stroke="none" 
	d="
M186.090607,252.538605 
	C183.235870,262.632599 172.869110,263.961853 167.512482,258.806366 
	C164.144104,255.564484 162.819260,251.558472 164.695648,246.981918 
	C166.484558,242.618668 169.656448,239.933380 174.494415,239.704514 
	C179.281631,239.478043 182.861862,241.580643 185.038589,245.852539 
	C186.029037,247.796295 186.566345,249.904022 186.090607,252.538605 
z"/>
<path fill="#000000" opacity="1.000000" stroke="none" 
	d="
M350.251526,250.919296 
	C349.341248,256.795563 346.462952,260.606750 340.839691,261.556396 
	C336.431244,262.300842 332.581665,260.856354 329.971497,257.047699 
	C327.394379,253.287170 327.090637,249.290726 329.494415,245.318283 
	C331.712982,241.651886 334.901367,239.507690 339.352081,239.685287 
	C343.930176,239.867966 347.282013,242.005585 349.153534,246.194519 
	C349.750549,247.530762 349.905121,249.064713 350.251526,250.919296 
z"/>
<path fill="#000000" opacity="1.000000" stroke="none" 
	d="
M163.206512,294.286377 
	C157.611771,290.514526 155.589264,285.839752 157.177032,281.049408 
	C158.820557,276.090881 163.607864,272.909882 168.725021,273.376129 
	C174.291046,273.883240 177.836136,277.132690 178.897659,282.700439 
	C180.454330,290.865295 172.524094,296.943237 163.206512,294.286377 
z"/>
<path fill="#000000" opacity="1.000000" stroke="none" 
	d="
M351.227966,274.424011 
	C356.977417,278.552582 358.668060,283.176147 356.569641,288.271912 
	C354.496552,293.306091 350.011902,295.931702 344.626862,295.263916 
	C339.769897,294.661652 336.131470,290.799438 335.248779,285.604797 
	C334.177979,279.303223 340.940216,270.197540 351.227966,274.424011 
z"/>
<path fill="#000000" opacity="1.000000" stroke="none" 
	d="
M164.487000,321.108459 
	C163.279449,313.801727 167.003021,308.009399 173.268951,306.867737 
	C179.015167,305.820740 184.940079,310.091431 186.102982,316.118469 
	C187.149765,321.543640 183.096100,327.356720 177.270477,328.784607 
	C172.235977,330.018585 167.677689,327.389526 164.487000,321.108459 
z"/>
<path fill="#000000" opacity="1.000000" stroke="none" 
	d="
M291.680481,355.382874 
	C299.065460,357.036224 302.577667,361.805328 301.495422,368.273193 
	C300.536224,374.005768 295.636749,377.732574 289.620361,377.306030 
	C283.904572,376.900818 279.648773,372.172028 279.667938,366.247498 
	C279.688751,359.801208 283.792419,355.942383 291.680481,355.382874 
z"/>
<path fill="#000000" opacity="1.000000" stroke="none" 
	d="
M253.137177,205.352295 
	C246.692413,201.611664 244.561401,196.976562 246.543503,191.701630 
	C248.555954,186.345932 253.608154,183.188309 258.573853,184.182617 
	C265.228149,185.515060 269.384430,191.242722 268.008331,197.184082 
	C266.464539,203.849716 260.582245,207.217209 253.137177,205.352295 
z"/>
<path fill="#000000" opacity="1.000000" stroke="none" 
	d="
M295.653687,212.141235 
	C289.033875,214.263779 284.734894,213.185043 281.613525,208.641922 
	C278.785004,204.524979 278.791473,200.228882 281.585724,196.077423 
	C284.310699,192.028931 288.967010,190.392548 293.878326,191.775818 
	C298.090179,192.962082 300.633636,195.761810 301.397186,200.143692 
	C302.300995,205.330399 300.484070,209.234726 295.653687,212.141235 
z"/>
<path fill="#000000" opacity="1.000000" stroke="none" 
	d="
M324.974121,337.488159 
	C330.629089,341.310852 332.639191,346.355286 330.760651,351.249878 
	C328.790649,356.382690 324.018799,359.125671 318.407990,358.350494 
	C313.570862,357.682220 309.786224,353.695618 309.149841,348.598297 
	C308.133270,340.456238 315.128357,335.349396 324.974121,337.488159 
z"/>
<path fill="#000000" opacity="1.000000" stroke="none" 
	d="
M214.993011,195.229340 
	C218.841888,191.047577 223.170883,190.308105 227.929031,192.281570 
	C231.954193,193.951019 234.092896,197.057526 234.371521,201.496170 
	C234.676483,206.354660 232.589188,209.818253 228.472076,212.129776 
	C224.489944,214.365540 218.992615,213.468491 215.596573,210.158188 
	C211.929733,206.583878 211.615662,201.126831 214.993011,195.229340 
z"/>
<path fill="#000000" opacity="1.000000" stroke="none" 
	d="
M234.327667,367.738403 
	C232.441055,374.359741 228.989746,377.301086 223.564407,377.319458 
	C218.658722,377.336060 214.196274,374.195465 212.935852,369.839233 
	C211.475616,364.792511 213.418793,359.552338 217.794250,356.791443 
	C221.380859,354.528198 225.065536,354.806671 228.674347,356.625366 
	C233.035507,358.823242 234.672729,362.575409 234.327667,367.738403 
z"/>
<path fill="#000000" opacity="1.000000" stroke="none" 
	d="
M204.110489,343.243622 
	C205.865158,350.145203 203.269440,355.837494 197.737320,357.873596 
	C192.273041,359.884766 185.972260,357.125549 183.676285,351.716064 
	C181.411545,346.380188 183.538818,340.538818 188.769775,337.729492 
	C194.226028,334.799133 200.089264,336.781647 204.110489,343.243622 
z"/>
</svg>