<svg version="1.1" id="Layer_1" xmlns="http://www.w3.org/2000/svg" xmlns:xlink="http://www.w3.org/1999/xlink" x="0px" y="0px"
	 width="100%" viewBox="0 0 512 512" enable-background="new 0 0 512 512" xml:space="preserve">
<path fill="#000000" opacity="1.000000" stroke="none" 
	d="
M242.327637,404.453247 
	C250.690948,393.942322 261.747498,389.762848 274.360138,388.695374 
	C277.954437,388.391174 279.616333,389.591553 279.390106,393.411499 
	C279.163971,397.229736 279.192993,401.079681 279.388000,404.901520 
	C279.570801,408.484741 278.560303,409.955231 274.562012,410.608856 
	C258.889343,413.171143 251.635910,431.890472 261.064423,444.710571 
	C264.310638,449.124542 268.788086,451.469025 274.195648,451.990662 
	C277.934784,452.351349 279.799316,453.896881 279.425659,458.037628 
	C279.052826,462.169556 279.253662,466.361908 279.349396,470.524414 
	C279.413452,473.310242 278.208557,474.424133 275.463928,474.313721 
	C253.489349,473.429443 237.198044,460.764252 234.746826,437.641205 
	C233.506561,425.941589 235.188049,414.705078 242.327637,404.453247 
z"/>
<path fill="#000000" opacity="1.000000" stroke="none" 
	d="
M332.963623,308.708313 
	C339.523438,305.577911 345.474243,306.989655 348.533081,312.112030 
	C351.544220,317.154510 350.295105,323.415955 345.606415,326.783081 
	C340.768921,330.256958 334.507050,329.585999 330.736359,325.189728 
	C326.328857,320.050964 326.976196,314.498352 332.963623,308.708313 
z"/>
<path fill="#000000" opacity="1.000000" stroke="none" 
	d="
M267.822998,376.306946 
	C264.794098,382.864838 261.347961,385.038879 255.364212,384.342834 
	C250.282196,383.751770 247.415527,380.583984 246.137329,375.882538 
	C244.954117,371.530487 247.190247,366.532013 251.437881,364.036346 
	C255.157394,361.850952 259.139160,361.887878 262.765289,364.045258 
	C267.185822,366.675232 268.887390,370.798981 267.822998,376.306946 
z"/>
<path fill="#000000" opacity="1.000000" stroke="none" 
	d="
M204.964813,222.628571 
	C202.020935,230.745819 196.036957,234.016418 189.640335,231.347626 
	C184.863525,229.354630 181.996536,224.299759 182.825531,219.332214 
	C183.623459,214.550949 188.306992,210.254822 193.084641,209.921722 
	C198.075851,209.573730 202.853119,212.891647 204.337402,217.872910 
	C204.755035,219.274536 204.821854,220.780685 204.964813,222.628571 
z"/>
<path fill="#000000" opacity="1.000000" stroke="none" 
	d="
M309.876587,217.221954 
	C313.564789,211.280640 317.405945,209.182846 322.172791,210.212982 
	C327.256012,211.311508 330.682312,214.824982 331.266052,219.563416 
	C331.861755,224.398834 329.818634,228.007462 325.869995,230.561630 
	C321.743896,233.230591 317.428406,232.807541 313.690094,230.041260 
	C309.567322,226.990463 308.273560,222.621231 309.876587,217.221954 
z"/>
<path fill="#000000" opacity="1.000000" stroke="none" 
	d="
M166.303024,257.546997 
	C163.155762,252.882523 163.059875,248.476166 166.180542,244.237503 
	C168.874252,240.578766 172.614929,238.990311 177.132324,239.841934 
	C181.634628,240.690720 184.490784,243.500153 185.806061,247.868256 
	C187.137421,252.289658 185.156326,257.214630 180.976028,259.951691 
	C176.355408,262.977051 171.476562,262.265930 166.303024,257.546997 
z"/>
<path fill="#000000" opacity="1.000000" stroke="none" 
	d="
M330.114441,244.304153 
	C333.697388,239.998428 337.886139,238.599487 342.846375,240.322372 
	C347.405914,241.906067 349.878937,245.406418 350.178680,250.100876 
	C350.468384,254.638321 348.216339,258.092712 344.326843,260.386353 
	C340.275574,262.775391 334.813690,262.031097 331.391022,258.733673 
	C327.548798,255.032028 327.063538,250.473236 330.114441,244.304153 
z"/>
<path fill="#000000" opacity="1.000000" stroke="none" 
	d="
M166.403534,273.381226 
	C172.310394,273.252991 176.437057,275.266876 178.395477,280.819550 
	C180.065582,285.554749 178.505310,289.406830 175.114563,292.535400 
	C171.602966,295.775482 167.397537,296.319092 163.064087,294.194366 
	C158.551666,291.981873 156.477570,288.186127 156.775803,283.225983 
	C157.056244,278.561920 160.457870,275.095734 166.403534,273.381226 
z"/>
<path fill="#000000" opacity="1.000000" stroke="none" 
	d="
M351.909454,274.787109 
	C357.269836,279.253998 358.614136,283.588257 356.452637,288.510651 
	C354.265564,293.491150 349.690125,296.034637 344.361023,295.232330 
	C339.577637,294.512177 335.888611,290.468903 335.216339,285.331451 
	C334.365906,278.832428 341.395630,269.852234 351.909454,274.787109 
z"/>
<path fill="#000000" opacity="1.000000" stroke="none" 
	d="
M249.164520,202.853638 
	C245.443573,198.405136 244.693451,193.949615 247.752411,189.264633 
	C250.216827,185.490234 253.705078,183.414856 258.310394,184.152191 
	C263.370575,184.962341 266.898682,187.791122 267.963928,192.967957 
	C268.940033,197.711380 267.035553,201.486313 263.201111,204.214523 
	C258.378174,207.646057 253.790848,206.501480 249.164520,202.853638 
z"/>
<path fill="#000000" opacity="1.000000" stroke="none" 
	d="
M299.271362,209.199799 
	C293.572571,214.090591 288.296143,214.596756 283.797668,210.983185 
	C279.641510,207.644623 278.363037,202.117935 280.685577,197.530106 
	C283.573059,191.826370 290.288086,189.659607 295.994202,192.590424 
	C301.761871,195.552872 303.230499,202.403259 299.271362,209.199799 
z"/>
<path fill="#000000" opacity="1.000000" stroke="none" 
	d="
M165.441177,323.257751 
	C162.623093,315.747437 165.304855,309.483398 171.955566,307.241699 
	C177.617249,305.333344 184.145096,309.119537 185.860260,315.306549 
	C187.173080,320.042236 184.625015,325.412323 179.934494,327.795135 
	C174.760651,330.423462 169.899384,328.993164 165.441177,323.257751 
z"/>
<path fill="#000000" opacity="1.000000" stroke="none" 
	d="
M301.019501,362.299133 
	C302.364532,367.805298 301.442810,372.232971 296.834930,375.400726 
	C293.022919,378.021301 289.021240,378.084930 285.075531,375.886566 
	C280.833801,373.523254 278.687469,368.740601 279.824127,363.937469 
	C280.914551,359.329742 283.961639,356.426453 288.656830,355.493164 
	C293.779572,354.474854 297.512970,356.494110 301.019501,362.299133 
z"/>
<path fill="#000000" opacity="1.000000" stroke="none" 
	d="
M317.845978,358.283905 
	C310.795166,355.264648 308.107544,350.918152 309.409912,345.203156 
	C310.594666,340.004395 314.797363,336.660736 320.166931,336.644989 
	C326.665497,336.625885 331.236755,341.068787 331.324188,347.488892 
	C331.404602,353.395538 326.846222,358.107208 320.712830,358.423767 
	C319.886627,358.466461 319.053040,358.365631 317.845978,358.283905 
z"/>
<path fill="#000000" opacity="1.000000" stroke="none" 
	d="
M219.987549,191.736145 
	C225.352600,190.652008 229.693207,191.796417 232.607178,196.119659 
	C235.112198,199.836212 235.245743,203.952118 232.920868,207.855774 
	C230.494293,211.930115 226.777588,213.907776 222.024399,213.221771 
	C217.361450,212.548798 214.042099,209.927673 212.858078,205.262741 
	C211.401566,199.524277 213.581024,195.416199 219.987549,191.736145 
z"/>
<path fill="#000000" opacity="1.000000" stroke="none" 
	d="
M224.560913,355.364075 
	C230.109924,356.272736 233.414703,359.169678 234.257217,364.378052 
	C235.046249,369.255798 233.346268,373.235657 229.019730,375.816711 
	C224.870956,378.291779 220.754089,377.840424 216.869751,375.159668 
	C212.566803,372.190002 211.959900,367.808563 212.936508,363.184937 
	C213.949265,358.390228 218.158493,355.628082 224.560913,355.364075 
z"/>
<path fill="#000000" opacity="1.000000" stroke="none" 
	d="
M200.788300,356.020386 
	C193.921692,359.969116 187.299240,358.566895 184.172836,352.812683 
	C181.107819,347.171478 183.221558,340.537048 189.017563,337.606537 
	C193.388855,335.396393 199.372971,336.726196 202.532898,340.609955 
	C206.331558,345.278748 205.864471,350.211761 200.788300,356.020386 
z"/>
</svg>