<svg version="1.1" id="Layer_1" xmlns="http://www.w3.org/2000/svg" xmlns:xlink="http://www.w3.org/1999/xlink" x="0px" y="0px"
	 width="100%" viewBox="0 0 512 512" enable-background="new 0 0 512 512" xml:space="preserve">
<path fill="#000000" opacity="1.000000" stroke="none" 
	d="
M292.749023,467.874115 
	C268.452728,467.876495 244.625870,467.888275 220.799026,467.871338 
	C214.311203,467.866699 214.018936,467.542542 214.015625,461.127502 
	C214.013550,457.128632 214.029419,453.129730 214.045700,449.130890 
	C214.073761,442.242767 214.358414,441.963989 221.488464,441.941620 
	C226.986923,441.924347 232.491104,441.771118 237.981949,441.972717 
	C241.731110,442.110352 242.920105,440.562286 242.867661,436.955963 
	C242.724731,427.127686 242.978882,417.293091 242.796585,407.466156 
	C242.721313,403.407867 244.077957,401.716492 248.259216,401.877350 
	C254.248535,402.107819 260.256134,402.030090 266.251099,401.885315 
	C269.868835,401.797943 271.326965,403.223083 271.264618,406.900391 
	C271.109283,416.061981 271.205475,425.227844 271.202301,434.391998 
	C271.199707,441.925507 271.200714,441.926056 278.972076,441.931915 
	C284.137329,441.935822 289.309357,442.102142 294.465698,441.889069 
	C298.627228,441.717102 300.150085,443.488708 299.985199,447.515625 
	C299.801300,452.006439 299.983398,456.511414 299.964813,461.010040 
	C299.938080,467.479309 299.888702,467.513214 292.749023,467.874115 
z"/>
<path fill="#000000" opacity="1.000000" stroke="none" 
	d="
M350.109558,319.551575 
	C348.355011,328.487335 337.498688,332.798431 330.638672,325.038391 
	C327.238953,321.192627 327.016632,316.396576 329.731232,312.084229 
	C332.421204,307.811005 337.133392,305.877563 341.779114,307.140869 
	C347.240997,308.626160 350.017273,312.593719 350.109558,319.551575 
z"/>
<path fill="#000000" opacity="1.000000" stroke="none" 
	d="
M189.243134,231.183685 
	C183.308090,227.168686 181.386337,222.198013 183.500046,217.119186 
	C185.553482,212.185165 190.577835,209.237106 195.363312,210.158310 
	C201.846558,211.406342 206.132446,217.209991 204.879547,223.044540 
	C203.389252,229.984619 197.060059,233.422363 189.243134,231.183685 
z"/>
<path fill="#000000" opacity="1.000000" stroke="none" 
	d="
M159.718018,276.789490 
	C166.404709,271.808685 173.649872,272.554138 177.239410,278.272583 
	C180.713791,283.807526 178.866913,290.757294 173.051468,294.031647 
	C168.862289,296.390350 163.251694,295.502350 159.842712,291.941132 
	C155.848663,287.768707 155.719269,282.619171 159.718018,276.789490 
z"/>
<path fill="#000000" opacity="1.000000" stroke="none" 
	d="
M331.307281,220.171753 
	C330.854492,227.108414 326.823730,231.739166 321.196442,232.224014 
	C315.411346,232.722443 310.538910,228.914474 309.381653,222.990448 
	C308.348389,217.701080 311.554382,212.452271 317.004700,210.509964 
	C323.325134,208.257599 329.227692,212.077728 331.307281,220.171753 
z"/>
<path fill="#000000" opacity="1.000000" stroke="none" 
	d="
M163.900467,251.770111 
	C164.687408,244.752899 167.901169,240.671295 172.984756,239.770615 
	C177.927292,238.894928 182.879471,241.380432 185.059570,245.830948 
	C187.727280,251.276901 185.421967,257.864838 179.867569,260.668060 
	C174.630402,263.311157 168.033539,261.203247 165.279022,255.924149 
	C164.670975,254.758820 164.384064,253.425934 163.900467,251.770111 
z"/>
<path fill="#000000" opacity="1.000000" stroke="none" 
	d="
M336.533142,239.851654 
	C342.021606,239.223816 346.178589,240.737625 348.783722,245.351257 
	C351.058044,249.378998 350.749146,253.384323 348.009766,257.065643 
	C345.326904,260.671051 341.814606,262.338196 337.161285,261.509003 
	C332.304260,260.643433 329.493134,257.760162 328.261078,253.199722 
	C327.093933,248.879578 328.726990,245.321548 331.862030,242.457458 
	C333.055786,241.366882 334.692535,240.761185 336.533142,239.851654 
z"/>
<path fill="#000000" opacity="1.000000" stroke="none" 
	d="
M336.268982,279.558533 
	C340.203705,273.906281 343.655670,272.373993 349.100555,273.718414 
	C353.830780,274.886383 356.562531,278.059204 357.225403,282.760345 
	C357.924194,287.716125 355.835388,291.611908 351.502991,294.023346 
	C347.320984,296.351044 343.020691,295.974548 339.370453,292.936920 
	C335.241547,289.501038 334.127899,285.010406 336.268982,279.558533 
z"/>
<path fill="#000000" opacity="1.000000" stroke="none" 
	d="
M165.770447,312.035950 
	C170.644409,306.673615 174.607620,305.504425 179.625015,307.830322 
	C184.195145,309.948883 186.355911,313.721649 186.177765,318.643982 
	C186.009125,323.304169 182.452988,327.294037 177.698685,328.634949 
	C173.377350,329.853790 169.696503,328.409393 166.883133,325.262451 
	C163.445267,321.416901 162.847153,316.987366 165.770447,312.035950 
z"/>
<path fill="#000000" opacity="1.000000" stroke="none" 
	d="
M290.146851,355.237244 
	C295.833099,355.614410 299.838196,357.856140 301.244598,363.291138 
	C302.483490,368.078888 301.230042,372.261963 297.172607,375.241150 
	C293.313019,378.075073 289.059143,378.235046 284.977448,375.820038 
	C280.658386,373.264618 278.891357,369.186218 279.796417,364.304962 
	C280.795288,358.917786 284.456451,356.090240 290.146851,355.237244 
z"/>
<path fill="#000000" opacity="1.000000" stroke="none" 
	d="
M247.491486,379.226685 
	C243.474243,373.125549 247.182571,365.251099 253.412735,363.032593 
	C259.637115,360.816193 266.054199,364.365997 267.851318,370.764191 
	C269.194733,375.547058 266.773346,380.907837 262.183105,383.313171 
	C257.314178,385.864563 252.032562,384.496613 247.491486,379.226685 
z"/>
<path fill="#000000" opacity="1.000000" stroke="none" 
	d="
M254.660126,205.895203 
	C244.988556,201.715469 242.926025,192.196106 250.100571,186.511002 
	C254.257385,183.217148 259.598328,183.184769 263.956573,186.427017 
	C267.593475,189.132629 269.093597,194.166321 267.547577,198.476532 
	C265.585663,203.946182 261.493195,206.414383 254.660126,205.895203 
z"/>
<path fill="#000000" opacity="1.000000" stroke="none" 
	d="
M292.587830,213.221252 
	C286.954376,213.806671 282.988770,211.746506 280.703125,207.106720 
	C278.716156,203.073273 279.148468,198.990173 282.042542,195.429489 
	C285.073761,191.700104 289.090637,190.558273 293.673462,191.737854 
	C298.604004,193.006973 301.134918,196.395325 301.579773,201.405548 
	C302.072571,206.955215 299.475769,210.512619 292.587830,213.221252 
z"/>
<path fill="#000000" opacity="1.000000" stroke="none" 
	d="
M325.188416,357.405182 
	C317.904205,359.436188 312.436920,357.394684 310.079498,352.063477 
	C307.884979,347.100616 309.544647,341.315491 313.995544,338.412933 
	C319.016388,335.138702 325.917084,336.275665 329.178192,340.914459 
	C333.129089,346.534454 331.788177,352.511749 325.188416,357.405182 
z"/>
<path fill="#000000" opacity="1.000000" stroke="none" 
	d="
M219.986267,191.733978 
	C225.354050,190.648087 229.697083,191.794159 232.609802,196.119827 
	C235.112823,199.837021 235.244858,203.954849 232.923523,207.862244 
	C230.497269,211.946274 226.772263,213.905472 222.021042,213.224503 
	C217.353378,212.555511 214.034073,209.933533 212.854523,205.263763 
	C211.400848,199.508743 213.580475,195.400635 219.986267,191.733978 
z"/>
<path fill="#000000" opacity="1.000000" stroke="none" 
	d="
M224.560944,355.367462 
	C230.111664,356.271912 233.411301,359.168701 234.256973,364.377747 
	C235.049652,369.260498 233.336319,373.228027 229.018204,375.815247 
	C224.868240,378.301727 220.754349,377.837006 216.871719,375.161530 
	C212.566910,372.195160 211.959335,367.813354 212.937241,363.189117 
	C213.950912,358.395813 218.163223,355.630585 224.560944,355.367462 
z"/>
<path fill="#000000" opacity="1.000000" stroke="none" 
	d="
M200.790131,356.022797 
	C193.916901,359.970215 187.294601,358.568512 184.167648,352.815186 
	C181.101196,347.173187 183.215637,340.538208 189.015060,337.604156 
	C193.385773,335.392944 199.379486,336.724030 202.535156,340.606750 
	C206.334396,345.281311 205.868500,350.200714 200.790131,356.022797 
z"/>
</svg>