<svg version="1.1" id="Layer_1" xmlns="http://www.w3.org/2000/svg" xmlns:xlink="http://www.w3.org/1999/xlink" x="0px" y="0px"
	 width="100%" viewBox="0 0 512 512" enable-background="new 0 0 512 512" xml:space="preserve">
<path fill="#000000" opacity="1.000000" stroke="none" 
	d="
M223.324646,427.435669 
	C213.989655,427.681458 213.995041,427.681488 214.039856,418.690735 
	C214.058105,415.029694 214.205322,411.359985 214.008835,407.709595 
	C213.776016,403.384521 215.634338,401.834198 219.904068,401.876801 
	C234.713409,402.024536 249.525208,401.926971 264.336060,401.924683 
	C274.320923,401.923126 284.307617,402.035156 294.289764,401.870575 
	C298.262390,401.805115 300.149536,403.101501 299.989532,407.304138 
	C299.793396,412.455078 299.828522,417.624695 300.015564,422.777069 
	C300.152344,426.545898 298.546387,427.669403 294.928497,427.515472 
	C288.948120,427.260925 282.939697,427.640381 276.961975,427.355835 
	C272.669006,427.151428 271.005524,428.568634 271.128540,433.018799 
	C271.390533,442.497223 271.228943,451.987793 271.211548,461.473358 
	C271.200378,467.574890 270.937134,467.891510 264.651306,467.863495 
	C258.997986,467.838287 253.340820,467.401428 247.694504,467.534332 
	C243.961700,467.622192 242.735321,466.225952 242.792358,462.581482 
	C242.948608,452.599274 242.667648,442.609009 242.899292,432.629822 
	C242.990967,428.681122 241.672256,427.213989 237.761703,427.395355 
	C233.112305,427.610992 228.444901,427.438354 223.324646,427.435669 
z"/>
<path fill="#000000" opacity="1.000000" stroke="none" 
	d="
M261.907654,363.514862 
	C267.527039,367.480682 269.313782,371.818634 267.660889,376.760193 
	C265.937012,381.914001 261.852753,384.642609 256.253448,384.381317 
	C251.182648,384.144714 247.254791,380.820740 246.078491,375.770782 
	C244.084030,367.208435 251.604904,361.161469 261.907654,363.514862 
z"/>
<path fill="#000000" opacity="1.000000" stroke="none" 
	d="
M349.468231,313.999023 
	C351.103424,321.430481 348.109406,326.839417 341.696899,328.661987 
	C336.403351,330.166504 330.716278,327.067719 328.622040,321.537720 
	C326.671082,316.386047 329.222900,310.377380 334.449310,307.816467 
	C339.884949,305.153076 345.599060,307.382782 349.468231,313.999023 
z"/>
<path fill="#000000" opacity="1.000000" stroke="none" 
	d="
M203.557922,215.766327 
	C205.749313,222.415344 204.736542,226.809464 200.576599,229.871811 
	C196.357224,232.977905 191.213959,233.085419 187.201126,229.974579 
	C183.631821,227.207596 182.001205,223.425629 182.936539,219.013977 
	C183.901001,214.464890 186.797974,211.238174 191.470337,210.314819 
	C196.456451,209.329422 200.564926,211.014114 203.557922,215.766327 
z"/>
<path fill="#000000" opacity="1.000000" stroke="none" 
	d="
M166.330780,295.256775 
	C159.057648,292.756012 155.811630,288.128693 156.842682,282.288330 
	C157.740265,277.203949 162.723251,273.141632 167.911911,273.264313 
	C174.248581,273.414124 179.083923,278.192139 179.136887,284.356232 
	C179.189407,290.468170 173.947723,295.094482 166.330780,295.256775 
z"/>
<path fill="#000000" opacity="1.000000" stroke="none" 
	d="
M344.439728,273.406982 
	C355.603516,272.571747 359.331726,282.919189 356.390198,288.753510 
	C353.957611,293.578430 349.394928,296.123291 344.116364,295.207489 
	C339.398468,294.388977 335.680969,290.180084 335.181274,285.091339 
	C334.676147,279.947083 338.027649,275.568787 344.439728,273.406982 
z"/>
<path fill="#000000" opacity="1.000000" stroke="none" 
	d="
M166.733185,325.180969 
	C163.231339,320.500153 162.900681,315.961792 166.175034,311.514435 
	C168.696854,308.089233 172.155670,306.158600 176.552185,306.901489 
	C181.442657,307.727783 184.618118,310.625671 185.909958,315.462189 
	C187.039886,319.692505 184.986053,324.586365 181.067139,327.105621 
	C176.282242,330.181580 172.484558,329.743256 166.733185,325.180969 
z"/>
<path fill="#000000" opacity="1.000000" stroke="none" 
	d="
M340.665894,239.757111 
	C348.057343,242.229752 351.479736,247.420410 349.912567,253.193100 
	C348.256561,259.293060 342.631531,262.727020 336.526001,261.365295 
	C331.276306,260.194427 327.489471,255.252167 327.895203,250.101074 
	C328.384186,243.893311 333.185303,239.857971 340.665894,239.757111 
z"/>
<path fill="#000000" opacity="1.000000" stroke="none" 
	d="
M169.575577,241.165985 
	C174.979279,237.813553 182.618637,240.357330 185.146408,245.997223 
	C187.522659,251.299011 185.706406,257.156677 180.551285,260.235535 
	C175.650711,263.162354 169.165619,261.750092 165.935364,257.052612 
	C162.283127,251.741547 163.451584,246.198532 169.575577,241.165985 
z"/>
<path fill="#000000" opacity="1.000000" stroke="none" 
	d="
M320.057587,232.237946 
	C310.778046,232.148163 305.481293,220.805161 312.106140,213.741974 
	C315.281769,210.356262 319.193298,208.918869 323.882294,210.655212 
	C328.421234,212.335953 330.897858,215.543716 331.298309,220.317169 
	C331.708984,225.212173 329.261841,228.621918 325.214050,230.909760 
	C323.824646,231.695068 322.062927,231.821716 320.057587,232.237946 
z"/>
<path fill="#000000" opacity="1.000000" stroke="none" 
	d="
M251.020630,204.273315 
	C245.899612,199.712555 244.684708,195.617371 246.868561,190.875549 
	C248.944824,186.367310 252.491348,183.806396 257.484039,184.021790 
	C262.739777,184.248550 266.612305,187.654205 267.878906,192.635056 
	C268.982941,196.976547 267.429688,200.561783 264.261963,203.392471 
	C260.316010,206.918594 255.915649,207.153275 251.020630,204.273315 
z"/>
<path fill="#000000" opacity="1.000000" stroke="none" 
	d="
M294.189362,376.869293 
	C286.813904,377.681396 282.736420,375.790680 280.485718,370.843475 
	C278.542389,366.571899 279.698029,361.201691 283.271545,358.085663 
	C286.743744,355.057953 290.756958,354.506439 294.927856,356.106232 
	C299.230957,357.756744 301.398254,361.203766 301.633881,365.750793 
	C301.908051,371.040985 299.209106,374.529999 294.189362,376.869293 
z"/>
<path fill="#000000" opacity="1.000000" stroke="none" 
	d="
M293.210510,191.646759 
	C299.540222,194.085236 302.118622,197.731827 301.622192,203.310974 
	C301.172424,208.365692 298.185760,211.533981 293.533173,213.000839 
	C288.830872,214.483368 283.605255,212.274460 281.103333,207.891312 
	C278.964569,204.144318 278.907776,200.242401 281.275299,196.560837 
	C283.973297,192.365356 287.859314,190.648346 293.210510,191.646759 
z"/>
<path fill="#000000" opacity="1.000000" stroke="none" 
	d="
M319.208618,336.667114 
	C327.047760,337.037628 331.208710,340.878998 331.323547,347.440491 
	C331.419067,352.895905 327.105499,357.838531 321.774628,358.381958 
	C315.359924,359.035889 310.234772,355.199860 309.224274,348.988434 
	C308.275665,343.157013 311.998596,338.362946 319.208618,336.667114 
z"/>
<path fill="#000000" opacity="1.000000" stroke="none" 
	d="
M213.019531,362.749603 
	C216.583145,356.366882 220.067459,354.454285 225.506683,355.544678 
	C230.445786,356.534790 233.497665,359.465302 234.268631,364.444885 
	C235.083496,369.708191 232.736206,374.154175 228.105881,376.333191 
	C224.355377,378.098145 220.718948,377.654358 217.243256,375.415924 
	C212.612717,372.433807 212.153412,368.006897 213.019531,362.749603 
z"/>
<path fill="#000000" opacity="1.000000" stroke="none" 
	d="
M221.432510,213.198792 
	C213.451126,209.924896 210.633438,204.329803 213.362762,197.939087 
	C215.516022,192.897186 220.530212,190.394501 225.962051,191.650467 
	C231.625931,192.960083 234.729614,197.306503 234.338135,203.380386 
	C234.014709,208.398407 229.949921,212.647339 224.823898,213.253693 
	C223.844666,213.369507 222.838715,213.259460 221.432510,213.198792 
z"/>
<path fill="#000000" opacity="1.000000" stroke="none" 
	d="
M183.435272,351.080780 
	C182.111862,343.979889 185.071518,338.434692 190.650192,336.896942 
	C195.964417,335.432068 201.855850,338.112823 203.987045,342.965515 
	C206.290634,348.210724 204.280045,354.211334 199.251923,357.097351 
	C193.530670,360.381256 187.189972,358.098236 183.435272,351.080780 
z"/>
</svg>