<svg version="1.1" id="Layer_1" xmlns="http://www.w3.org/2000/svg" xmlns:xlink="http://www.w3.org/1999/xlink" x="0px" y="0px"
	 width="100%" viewBox="0 0 512 512" enable-background="new 0 0 512 512" xml:space="preserve">
<path fill="#000000" opacity="1.000000" stroke="none" 
	d="
M210.657166,435.977539 
	C210.658844,434.152374 210.647400,432.820557 210.664688,431.489105 
	C210.791275,421.740021 209.190659,421.932190 219.978561,421.937286 
	C245.612930,421.949463 271.248138,422.050446 296.880890,421.846313 
	C301.831482,421.806915 303.883484,423.171844 303.428894,428.329681 
	C303.035858,432.789368 303.033356,437.339111 303.430359,441.798065 
	C303.879211,446.839996 301.667267,447.978882 297.087097,447.950317 
	C272.452454,447.796600 247.816299,447.881104 223.180679,447.882599 
	C221.016739,447.882721 218.844177,447.752686 216.690689,447.901398 
	C212.363052,448.200226 209.992950,446.752960 210.626770,441.958954 
	C210.864639,440.159760 210.660141,438.302032 210.657166,435.977539 
z"/>
<path fill="#000000" opacity="1.000000" stroke="none" 
	d="
M329.818054,323.940979 
	C325.340851,317.929138 329.347321,309.532440 335.528656,307.343018 
	C341.278015,305.306580 347.801392,308.649200 349.752197,314.730713 
	C351.272583,319.470428 349.057922,324.861389 344.522369,327.461212 
	C339.375641,330.411407 334.785004,329.403564 329.818054,323.940979 
z"/>
<path fill="#000000" opacity="1.000000" stroke="none" 
	d="
M267.830383,370.696045 
	C268.478333,377.463745 265.963531,382.068878 260.976990,383.884186 
	C256.072083,385.669769 250.598450,383.929047 247.773209,379.685150 
	C244.114792,374.189636 245.837112,367.111176 251.627213,363.845886 
	C257.838165,360.343201 264.427917,362.996765 267.830383,370.696045 
z"/>
<path fill="#000000" opacity="1.000000" stroke="none" 
	d="
M189.322906,210.955841 
	C197.174362,208.756149 202.823257,211.775146 204.621338,218.785080 
	C206.081863,224.479111 202.334656,230.396637 196.270828,231.971970 
	C190.648560,233.432617 184.472778,229.534912 182.998810,223.595657 
	C181.813232,218.818497 183.730743,214.803558 189.322906,210.955841 
z"/>
<path fill="#000000" opacity="1.000000" stroke="none" 
	d="
M345.223755,295.299194 
	C338.436707,293.563049 334.860687,289.328735 335.107025,283.800659 
	C335.336792,278.644470 339.658417,273.969391 344.823486,273.289429 
	C349.907104,272.620270 354.860535,275.627777 356.678772,280.487488 
	C359.428589,287.837128 354.213989,294.844849 345.223755,295.299194 
z"/>
<path fill="#000000" opacity="1.000000" stroke="none" 
	d="
M310.968628,215.190796 
	C315.902496,209.833298 319.603882,208.690964 324.754333,210.973740 
	C329.103973,212.901596 331.334991,216.381546 331.314880,221.168091 
	C331.293579,226.248138 328.518158,229.537033 324.065918,231.437714 
	C319.805267,233.256622 315.871613,232.125854 312.580902,229.154327 
	C308.923370,225.851578 308.407318,220.987228 310.968628,215.190796 
z"/>
<path fill="#000000" opacity="1.000000" stroke="none" 
	d="
M164.044983,252.556366 
	C164.145996,245.705948 167.110916,241.308731 172.201950,239.926102 
	C176.712646,238.701050 181.873291,240.724609 184.403412,244.710480 
	C187.873932,250.177841 186.214813,256.855652 180.544891,260.240814 
	C175.270477,263.389862 168.528519,261.608032 165.430649,256.185242 
	C164.860245,255.186722 164.562408,254.032516 164.044983,252.556366 
z"/>
<path fill="#000000" opacity="1.000000" stroke="none" 
	d="
M330.811005,258.132904 
	C327.381439,253.698807 326.882660,249.328613 329.764313,244.873932 
	C332.348724,240.878784 336.104462,239.022598 340.872894,239.804489 
	C345.390839,240.545303 348.338684,243.246674 349.730865,247.612411 
	C351.150665,252.064880 349.320740,256.981903 345.207794,259.821075 
	C340.791138,262.869873 336.214417,262.416107 330.811005,258.132904 
z"/>
<path fill="#000000" opacity="1.000000" stroke="none" 
	d="
M164.710175,294.927246 
	C158.369232,291.740631 155.643570,286.861206 156.984482,281.651794 
	C158.307602,276.511414 163.323792,272.919647 168.583588,273.346405 
	C174.756577,273.847321 179.219498,278.574982 179.139938,284.528992 
	C179.064819,290.150970 173.962463,295.144348 168.075104,295.304993 
	C167.085251,295.332001 166.089676,295.149933 164.710175,294.927246 
z"/>
<path fill="#000000" opacity="1.000000" stroke="none" 
	d="
M177.432831,307.063477 
	C185.216476,310.249298 188.090195,316.320221 185.093048,322.526367 
	C182.191544,328.534485 175.304123,330.697815 169.510300,327.420837 
	C165.175659,324.969177 162.996338,319.679993 164.418304,315.062592 
	C166.147903,309.446259 170.533325,306.629700 177.432831,307.063477 
z"/>
<path fill="#000000" opacity="1.000000" stroke="none" 
	d="
M301.229004,363.026917 
	C302.382751,368.472168 301.060272,372.674683 296.649109,375.580383 
	C292.813354,378.107025 288.760071,378.065002 284.860168,375.758881 
	C280.682434,373.288513 278.775391,368.460968 279.823578,363.668823 
	C280.745697,359.453003 284.916107,355.813965 289.394714,355.317200 
	C294.523682,354.748291 298.212097,357.047089 301.229004,363.026917 
z"/>
<path fill="#000000" opacity="1.000000" stroke="none" 
	d="
M250.426025,186.272232 
	C256.474640,181.306992 264.927765,185.629593 266.968201,189.939850 
	C269.670654,195.648483 267.512909,202.226257 261.785858,205.115295 
	C257.287994,207.384262 251.145996,205.810440 248.047623,201.595001 
	C244.481476,196.743118 245.143631,191.908417 250.426025,186.272232 
z"/>
<path fill="#000000" opacity="1.000000" stroke="none" 
	d="
M281.207703,196.602554 
	C284.740143,191.540573 289.330811,190.306274 294.590210,191.993912 
	C299.209686,193.476227 301.415039,197.112366 301.637695,201.868179 
	C301.863495,206.691620 299.620880,210.236801 295.333344,212.267700 
	C291.040710,214.301041 286.903961,213.729095 283.289459,210.542435 
	C279.349854,207.069107 278.646881,202.708267 281.207703,196.602554 
z"/>
<path fill="#000000" opacity="1.000000" stroke="none" 
	d="
M318.367126,336.711151 
	C328.813599,335.099823 333.750580,346.053497 330.232483,352.388672 
	C327.626740,357.080994 322.853943,359.380951 317.641907,358.263062 
	C312.958740,357.258606 309.276611,352.795746 309.050934,347.850464 
	C308.821655,342.826141 311.908905,338.970673 318.367126,336.711151 
z"/>
<path fill="#000000" opacity="1.000000" stroke="none" 
	d="
M214.211029,208.410294 
	C210.351837,199.157928 215.432068,190.598206 223.947678,191.291565 
	C229.258148,191.723969 233.402542,195.167618 234.253143,199.854568 
	C235.187958,205.005447 233.072388,209.585892 228.613998,212.064011 
	C223.865311,214.703461 219.155869,213.600891 214.211029,208.410294 
z"/>
<path fill="#000000" opacity="1.000000" stroke="none" 
	d="
M229.667755,357.121155 
	C234.963287,362.188385 235.891251,367.560242 232.605453,372.413513 
	C229.493561,377.009918 223.981262,378.634888 219.040955,376.412201 
	C213.290451,373.825073 210.878036,367.553589 213.426666,361.816925 
	C216.214615,355.541595 221.891174,353.793396 229.667755,357.121155 
z"/>
<path fill="#000000" opacity="1.000000" stroke="none" 
	d="
M184.073914,342.451599 
	C187.081482,337.320587 191.418411,335.756409 196.581223,336.907349 
	C201.205643,337.938263 203.987595,341.151703 204.827805,345.842468 
	C205.652023,350.443970 203.609787,353.920837 200.056290,356.553864 
	C196.378494,359.278961 190.824280,359.028595 187.041595,356.182739 
	C183.083435,353.204895 181.957703,348.426636 184.073914,342.451599 
z"/>
</svg>