<svg version="1.1" id="Layer_1" xmlns="http://www.w3.org/2000/svg" xmlns:xlink="http://www.w3.org/1999/xlink" x="0px" y="0px"
	 width="100%" viewBox="0 0 512 512" enable-background="new 0 0 512 512" xml:space="preserve">
<path fill="#000000" opacity="1.000000" stroke="none" 
	d="
M280.870422,466.839539 
	C272.442047,475.352692 262.322601,478.904846 250.918579,479.363892 
	C242.382858,479.707428 233.984497,479.210602 225.765610,476.467987 
	C222.273972,475.302826 220.539902,473.702271 220.701492,469.761841 
	C220.988037,462.774200 220.879410,455.765533 220.767670,448.768341 
	C220.708054,445.034943 222.071060,444.067596 225.649384,445.195068 
	C231.220779,446.950500 236.955780,447.903809 242.851334,447.668488 
	C252.686356,447.275909 259.326141,441.275909 259.608215,431.423706 
	C260.018219,417.103577 259.792206,402.765991 259.930084,388.436737 
	C259.959167,385.416412 258.663605,384.415985 255.747635,384.281250 
	C250.592712,384.043060 247.595078,380.869507 246.232483,376.119080 
	C244.927765,371.570496 246.732010,367.916321 250.121170,365.015137 
	C253.826721,361.843201 258.187439,361.653015 262.248352,363.841553 
	C265.195801,365.430023 268.080505,365.890594 271.290619,366.003235 
	C275.786682,366.161011 279.352661,366.067841 281.446503,360.650482 
	C283.182892,356.157898 287.800812,354.634430 292.821503,355.579590 
	C297.420044,356.445251 300.272705,359.145233 301.298004,363.631622 
	C302.406128,368.480499 301.134705,372.738098 296.783508,375.335144 
	C293.884338,377.065552 293.256653,379.232758 293.276520,382.327698 
	C293.376099,397.824921 293.592712,413.330963 293.190125,428.818878 
	C292.835297,442.470917 290.336060,455.657898 280.870422,466.839539 
z"/>
<path fill="#000000" opacity="1.000000" stroke="none" 
	d="
M333.629028,308.279419 
	C341.179932,305.343445 347.501190,307.983337 349.704498,314.639862 
	C351.642059,320.493530 348.065857,326.803650 341.774414,328.632355 
	C337.020203,330.014252 331.605804,327.535461 329.200836,322.876038 
	C326.534027,317.709259 327.854980,313.073425 333.629028,308.279419 
z"/>
<path fill="#000000" opacity="1.000000" stroke="none" 
	d="
M198.597717,231.047028 
	C191.519455,233.379349 185.899139,231.043823 183.542358,225.115036 
	C181.441986,219.831284 183.741455,213.793564 188.850372,211.177750 
	C193.800720,208.643112 200.421738,210.480179 203.229584,215.167343 
	C206.730331,221.011185 205.222046,226.558426 198.597717,231.047028 
z"/>
<path fill="#000000" opacity="1.000000" stroke="none" 
	d="
M174.491302,275.330750 
	C179.662384,280.685150 180.376740,285.195007 177.117981,290.210297 
	C174.329971,294.501099 169.290161,296.384827 164.598740,294.889648 
	C159.675583,293.320618 156.433792,288.635315 156.726730,283.512360 
	C157.203079,275.182068 165.506104,271.180511 174.491302,275.330750 
z"/>
<path fill="#000000" opacity="1.000000" stroke="none" 
	d="
M320.872467,232.234100 
	C315.538879,232.000717 311.813843,229.888519 309.967743,225.168182 
	C308.378754,221.105209 308.957275,217.212967 311.911774,213.990723 
	C315.038727,210.580414 318.811829,208.950180 323.580719,210.569366 
	C328.188293,212.133789 330.739990,215.268417 331.276703,220.005615 
	C331.827606,224.868179 329.489166,228.350357 325.488220,230.762680 
	C324.245331,231.512070 322.692841,231.747986 320.872467,232.234100 
z"/>
<path fill="#000000" opacity="1.000000" stroke="none" 
	d="
M164.253723,253.322968 
	C163.681870,246.659302 166.300339,242.099030 171.446655,240.196609 
	C175.785278,238.592789 181.193054,240.218079 183.937592,244.059479 
	C186.577515,247.754456 187.152206,251.696075 184.848907,255.777588 
	C182.622391,259.723022 179.209061,262.001953 174.652893,261.733459 
	C169.532166,261.431702 165.908920,258.803619 164.253723,253.322968 
z"/>
<path fill="#000000" opacity="1.000000" stroke="none" 
	d="
M330.313721,257.539185 
	C327.162872,252.873505 327.092957,248.474930 330.203949,244.233734 
	C332.896515,240.563019 336.633759,238.979782 341.146851,239.842194 
	C345.637238,240.700241 348.514435,243.500793 349.818451,247.873917 
	C351.182465,252.448273 348.983582,257.579590 344.562714,260.246552 
	C340.128113,262.921783 335.266449,262.086487 330.313721,257.539185 
z"/>
<path fill="#000000" opacity="1.000000" stroke="none" 
	d="
M357.060852,281.561401 
	C357.455811,288.561951 355.008698,292.952118 350.013184,294.795776 
	C345.587921,296.429016 340.286102,294.906982 337.516357,291.047180 
	C334.894501,287.393402 334.279022,283.436554 336.424408,279.325989 
	C338.435211,275.473236 341.673035,273.221466 346.027405,273.293945 
	C351.354004,273.382568 355.181580,275.943542 357.060852,281.561401 
z"/>
<path fill="#000000" opacity="1.000000" stroke="none" 
	d="
M257.883636,206.241302 
	C247.140289,204.721085 242.592087,196.082123 248.238861,188.516495 
	C250.662003,185.269943 254.012344,183.423981 258.204193,184.118988 
	C263.230011,184.952286 266.780975,187.669052 267.944641,192.852173 
	C268.918030,197.187500 267.272369,200.692413 264.104675,203.550461 
	C262.472107,205.023453 260.501129,205.922897 257.883636,206.241302 
z"/>
<path fill="#000000" opacity="1.000000" stroke="none" 
	d="
M287.627411,213.020020 
	C280.703461,209.534302 278.180603,204.590927 280.063507,198.868622 
	C281.650177,194.046631 286.570404,190.902222 291.711975,191.424286 
	C297.962158,192.058914 301.917755,196.614761 301.675140,202.899353 
	C301.455536,208.588104 296.901184,213.044937 291.003113,213.292389 
	C290.014099,213.333893 289.017120,213.187042 287.627411,213.020020 
z"/>
<path fill="#000000" opacity="1.000000" stroke="none" 
	d="
M164.045441,319.578949 
	C164.294937,312.511566 167.449097,308.180084 172.870132,306.951813 
	C176.972321,306.022369 182.239258,308.338684 184.488800,312.061462 
	C187.762466,317.479065 186.198059,323.959259 180.823212,327.245697 
	C175.203262,330.681915 168.682236,328.991333 165.427567,323.198761 
	C164.864487,322.196533 164.555649,321.051514 164.045441,319.578949 
z"/>
<path fill="#000000" opacity="1.000000" stroke="none" 
	d="
M327.088135,356.160767 
	C321.397064,359.414246 316.408264,359.100494 312.578888,355.490082 
	C309.063629,352.175903 308.098328,346.908325 310.230011,342.672668 
	C312.448364,338.264801 317.098022,335.959229 322.339996,336.752502 
	C326.523376,337.385651 329.200012,339.887451 330.631287,343.781128 
	C332.393738,348.575897 330.994843,352.556580 327.088135,356.160767 
z"/>
<path fill="#000000" opacity="1.000000" stroke="none" 
	d="
M218.367294,212.061981 
	C213.091278,208.277954 211.307556,204.140915 212.959244,199.056213 
	C214.402054,194.614532 217.526230,191.772675 222.331757,191.290222 
	C227.132782,190.808212 231.854874,193.531342 233.553513,197.865784 
	C235.256271,202.210785 234.789459,206.406799 231.451279,209.850998 
	C227.843796,213.573013 223.517715,214.378113 218.367294,212.061981 
z"/>
<path fill="#000000" opacity="1.000000" stroke="none" 
	d="
M233.633835,361.986511 
	C235.168594,367.236206 234.415359,371.576782 230.333939,374.909760 
	C227.125473,377.529846 223.459076,378.084381 219.596008,376.618011 
	C214.632538,374.734070 212.288406,370.803009 212.658340,365.268890 
	C212.963608,360.702179 216.238159,356.716431 220.617722,355.580841 
	C225.727600,354.255890 230.086105,356.307404 233.633835,361.986511 
z"/>
<path fill="#000000" opacity="1.000000" stroke="none" 
	d="
M185.867340,339.858429 
	C191.858109,335.642029 197.255310,335.624268 201.491089,339.520782 
	C205.154404,342.890686 206.014175,348.317871 203.574265,352.670410 
	C200.427414,358.283997 193.716660,360.121643 188.137314,356.897705 
	C182.328796,353.541321 181.328857,346.939484 185.867340,339.858429 
z"/>
</svg>