<svg version="1.1" id="Layer_1" xmlns="http://www.w3.org/2000/svg" xmlns:xlink="http://www.w3.org/1999/xlink" x="0px" y="0px"
	 width="100%" viewBox="0 0 512 512" enable-background="new 0 0 512 512" xml:space="preserve">
<path fill="#000000" opacity="1.000000" stroke="none" 
	d="
M254.092010,391.167542 
	C254.110458,403.640778 254.296341,415.639099 254.112198,427.631775 
	C253.853760,444.464355 264.715729,449.370453 278.785675,447.281311 
	C283.329010,446.606720 287.799255,445.439758 292.854187,444.382751 
	C293.578033,454.209778 293.268341,463.479279 293.083954,472.741913 
	C293.048401,474.528076 291.591553,475.259460 290.131378,475.735565 
	C274.773071,480.742950 259.417542,481.647736 244.349045,474.868652 
	C231.474030,469.076416 225.585419,457.950531 222.753296,444.858124 
	C219.298782,428.888458 221.089294,412.662811 220.692154,396.545044 
	C220.614197,393.381287 220.670883,390.213989 220.681396,387.048370 
	C220.698242,381.976013 221.208603,377.361389 215.593857,373.712982 
	C210.433319,370.359680 211.702347,361.621643 216.790543,357.550842 
	C221.618805,353.687988 229.015091,354.958466 232.679626,360.017609 
	C234.061066,361.924774 233.450867,365.600372 236.728027,365.714325 
	C241.464996,365.879028 246.286758,366.928009 250.891968,364.345093 
	C257.880005,360.425598 265.180389,363.060852 267.598999,370.093475 
	C269.700134,376.203033 265.832367,383.646057 259.464935,384.070068 
	C254.414429,384.406403 253.662247,386.682770 254.092010,391.167542 
z"/>
<path fill="#000000" opacity="1.000000" stroke="none" 
	d="
M204.964813,222.628677 
	C202.013580,230.755936 196.032196,234.023224 189.633194,231.347153 
	C184.853470,229.348267 181.993637,224.297165 182.824310,219.321182 
	C183.632248,214.481369 188.260513,210.236603 193.076080,209.918869 
	C198.099777,209.587402 202.848801,212.883438 204.336456,217.870895 
	C204.754684,219.273010 204.821274,220.780029 204.964813,222.628677 
z"/>
<path fill="#000000" opacity="1.000000" stroke="none" 
	d="
M166.330688,295.256409 
	C159.060516,292.759125 155.809952,288.126007 156.841156,282.287933 
	C157.739059,277.204468 162.723282,273.141937 167.912003,273.264343 
	C174.249222,273.413818 179.079422,278.187042 179.137024,284.356903 
	C179.194061,290.466217 173.951553,295.092682 166.330688,295.256409 
z"/>
<path fill="#000000" opacity="1.000000" stroke="none" 
	d="
M342.122803,328.521179 
	C334.623657,329.644897 329.210449,326.060822 328.025848,319.562714 
	C327.076691,314.356079 331.028961,308.527100 336.513123,307.045319 
	C341.965790,305.572052 348.033356,309.144745 349.797333,314.867340 
	C351.444733,320.211548 348.743958,325.221222 342.122803,328.521179 
z"/>
<path fill="#000000" opacity="1.000000" stroke="none" 
	d="
M318.456238,210.059174 
	C323.918549,209.851013 328.019958,211.567307 330.279694,216.368149 
	C332.039429,220.106720 331.879700,223.830002 329.372589,227.229523 
	C326.583344,231.011627 322.916809,232.980423 318.118378,231.973740 
	C313.183807,230.938492 310.249420,227.825058 309.377533,222.879654 
	C308.528748,218.065125 310.516449,214.440567 314.465210,211.827652 
	C315.556549,211.105499 316.859222,210.702682 318.456238,210.059174 
z"/>
<path fill="#000000" opacity="1.000000" stroke="none" 
	d="
M166.569580,243.674194 
	C171.847626,239.246307 176.472702,238.472488 180.902145,241.289566 
	C184.910065,243.838562 186.915161,247.669586 186.048050,252.357819 
	C185.164764,257.133636 182.211899,260.482758 177.257034,261.473145 
	C172.816818,262.360657 168.938171,261.072205 166.215988,257.383026 
	C162.961121,252.971939 163.122818,248.420288 166.569580,243.674194 
z"/>
<path fill="#000000" opacity="1.000000" stroke="none" 
	d="
M350.171509,249.295288 
	C349.767334,256.057556 346.967529,260.006622 341.955017,261.370514 
	C337.263000,262.647217 332.357544,260.788361 329.753632,256.747009 
	C326.294250,251.378006 327.947906,244.598465 333.549957,241.182877 
	C338.740875,238.017960 345.644318,239.806320 348.676575,245.179810 
	C349.321564,246.322845 349.643860,247.647980 350.171509,249.295288 
z"/>
<path fill="#000000" opacity="1.000000" stroke="none" 
	d="
M346.730621,273.310608 
	C354.171021,274.793793 357.785339,278.992950 357.312073,285.225342 
	C356.896454,290.698303 352.269623,295.137329 346.793060,295.317413 
	C340.822021,295.513763 336.275177,291.729492 335.311523,285.761505 
	C334.279236,279.368439 338.754639,274.294403 346.730621,273.310608 
z"/>
<path fill="#000000" opacity="1.000000" stroke="none" 
	d="
M174.218872,329.043915 
	C164.827988,326.196136 161.281281,318.800476 165.826843,312.016052 
	C168.425171,308.138000 172.108780,306.085999 176.928040,306.956665 
	C181.925552,307.859619 185.763885,311.835419 186.155365,316.804962 
	C186.527573,321.529602 184.468521,325.175934 180.318939,327.548340 
	C178.561493,328.553131 176.669724,329.146698 174.218872,329.043915 
z"/>
<path fill="#000000" opacity="1.000000" stroke="none" 
	d="
M249.740051,203.378143 
	C245.755051,199.202377 244.587021,194.839310 247.351868,189.931122 
	C249.678421,185.800934 253.243576,183.475952 258.035126,184.114029 
	C263.052124,184.782135 266.683350,187.488663 267.900269,192.697693 
	C268.964081,197.251114 267.294434,200.930099 263.827545,203.754501 
	C259.274048,207.464096 254.607010,206.816879 249.740051,203.378143 
z"/>
<path fill="#000000" opacity="1.000000" stroke="none" 
	d="
M282.848511,210.142212 
	C279.252472,206.099762 278.597656,201.855865 280.800262,197.405655 
	C282.811066,193.342941 286.285339,191.199142 290.874664,191.342041 
	C295.834961,191.496490 299.476990,193.821686 301.111572,198.628830 
	C302.704865,203.314438 301.072998,208.326523 297.305542,211.112381 
	C292.942627,214.338547 288.354065,214.112976 282.848511,210.142212 
z"/>
<path fill="#000000" opacity="1.000000" stroke="none" 
	d="
M291.680023,355.394409 
	C299.087585,357.046753 302.435883,361.617676 301.447357,368.288116 
	C300.621674,373.859802 295.518890,377.737091 289.586365,377.300507 
	C283.905487,376.882446 279.644592,372.125000 279.668488,366.226837 
	C279.694489,359.808777 283.815887,355.944580 291.680023,355.394409 
z"/>
<path fill="#000000" opacity="1.000000" stroke="none" 
	d="
M315.991852,337.351349 
	C321.412781,335.948395 326.023834,336.455688 329.220856,341.072296 
	C331.642883,344.569794 332.252930,348.418945 330.205139,352.359985 
	C327.815002,356.960022 323.269104,359.278473 318.160736,358.284149 
	C313.506989,357.378357 310.522491,354.524597 309.449402,349.812378 
	C308.280212,344.678040 310.117767,341.015137 315.991852,337.351349 
z"/>
<path fill="#000000" opacity="1.000000" stroke="none" 
	d="
M220.739975,191.569504 
	C229.585342,191.057053 234.430664,195.075653 234.356735,202.472153 
	C234.290771,209.070496 228.849564,213.921753 222.240967,213.274277 
	C217.717651,212.831085 213.584091,209.224289 212.765121,205.005966 
	C211.577499,198.888855 213.995132,194.636444 220.739975,191.569504 
z"/>
<path fill="#000000" opacity="1.000000" stroke="none" 
	d="
M185.868530,355.146423 
	C182.113190,350.448669 181.651245,345.824707 184.898010,341.124817 
	C187.793594,336.933319 192.057526,335.803436 196.742493,336.938660 
	C201.340622,338.052887 204.094711,341.308197 204.844742,346.004272 
	C205.577225,350.590302 203.595505,354.197845 199.892639,356.612762 
	C195.147598,359.707397 190.462738,358.905151 185.868530,355.146423 
z"/>
</svg>