<svg version="1.1" id="Layer_1" xmlns="http://www.w3.org/2000/svg" xmlns:xlink="http://www.w3.org/1999/xlink" x="0px" y="0px"
	 width="100%" viewBox="0 0 512 512" enable-background="new 0 0 512 512" xml:space="preserve">
<path fill="#000000" opacity="1.000000" stroke="none" 
	d="
M256.951141,408.667480 
	C271.374725,409.455383 278.787231,418.082581 278.253967,432.934692 
	C277.770966,446.386108 269.121216,455.093781 256.322968,455.012451 
	C243.637894,454.931854 234.798019,445.363068 234.919296,431.843872 
	C235.050583,417.210175 242.733826,408.956055 256.951141,408.667480 
z"/>
<path fill="#000000" opacity="1.000000" stroke="none" 
	d="
M335.900146,328.462189 
	C329.662933,325.422791 326.962769,320.846527 328.135193,315.835541 
	C329.329193,310.732239 333.758820,306.886810 338.618774,306.734558 
	C343.701965,306.575378 348.257202,309.953613 349.831146,314.896606 
	C352.228699,322.426300 344.294128,331.278748 335.900146,328.462189 
z"/>
<path fill="#000000" opacity="1.000000" stroke="none" 
	d="
M248.375275,380.520813 
	C245.018402,375.744629 245.002411,371.209076 248.175949,366.830994 
	C251.028503,362.895721 255.187683,361.967987 259.699707,362.820557 
	C264.008911,363.634796 266.588562,366.545685 267.813660,370.672974 
	C269.137878,375.134094 267.161346,380.156555 263.114838,382.759308 
	C258.627960,385.645264 253.527557,384.963531 248.375275,380.520813 
z"/>
<path fill="#000000" opacity="1.000000" stroke="none" 
	d="
M193.122330,209.914948 
	C202.720718,211.713226 207.132721,217.962219 204.222870,225.042801 
	C202.247406,229.849747 197.184479,232.879242 192.350418,232.146927 
	C187.435455,231.402328 183.553757,227.536484 182.811615,222.647095 
	C182.066467,217.737793 184.976273,212.796982 189.864807,210.768555 
	C190.775055,210.390869 191.768982,210.214874 193.122330,209.914948 
z"/>
<path fill="#000000" opacity="1.000000" stroke="none" 
	d="
M328.495667,228.376312 
	C321.998535,233.672516 315.191589,233.248978 311.272400,227.614502 
	C307.339020,221.959579 309.050446,214.771805 315.150452,211.327271 
	C319.412781,208.920441 325.000854,209.837128 328.398285,213.500504 
	C332.171906,217.569504 332.294403,222.574783 328.495667,228.376312 
z"/>
<path fill="#000000" opacity="1.000000" stroke="none" 
	d="
M185.486084,246.971252 
	C187.037994,254.109604 183.931305,259.734528 177.879532,261.371490 
	C172.265976,262.889893 166.695572,259.976959 164.633362,254.444733 
	C162.647858,249.118301 165.104660,243.325989 170.474808,240.672623 
	C176.031021,237.927322 181.694031,240.180115 185.486084,246.971252 
z"/>
<path fill="#000000" opacity="1.000000" stroke="none" 
	d="
M334.521606,260.831604 
	C328.658752,256.939362 326.827881,252.777588 328.463287,247.695190 
	C330.079376,242.672943 334.257721,239.568588 339.251770,239.679794 
	C344.408691,239.794632 348.351501,242.966476 349.879517,247.953156 
	C352.157623,255.387802 343.862396,264.862915 334.521606,260.831604 
z"/>
<path fill="#000000" opacity="1.000000" stroke="none" 
	d="
M178.579880,287.174255 
	C174.961105,294.404785 169.917694,296.897095 164.045837,294.661774 
	C158.605240,292.590668 155.505096,286.678497 157.066452,281.351654 
	C158.733612,275.663849 164.348618,272.407928 170.376816,273.633545 
	C176.439194,274.866089 179.540756,279.763489 178.579880,287.174255 
z"/>
<path fill="#000000" opacity="1.000000" stroke="none" 
	d="
M352.266357,293.584442 
	C346.124573,296.390991 341.310852,295.628998 337.895264,291.591766 
	C334.594971,287.690796 334.287994,282.429535 337.112885,278.182526 
	C339.937683,273.935669 344.725616,272.265717 349.808167,273.869446 
	C353.806244,275.130951 356.309845,277.975861 357.120178,281.994568 
	C358.057007,286.640686 356.442017,290.500458 352.266357,293.584442 
z"/>
<path fill="#000000" opacity="1.000000" stroke="none" 
	d="
M175.012070,306.738892 
	C185.443863,308.879517 189.439438,317.998505 183.463745,325.085480 
	C179.450394,329.845184 171.968674,330.256042 167.444412,325.965210 
	C162.688232,321.454437 162.849167,313.901581 167.850769,309.635803 
	C169.779022,307.991241 171.968353,306.816162 175.012070,306.738892 
z"/>
<path fill="#000000" opacity="1.000000" stroke="none" 
	d="
M279.668335,366.061951 
	C280.752441,358.919678 285.420837,354.809296 291.386780,355.322601 
	C297.634979,355.860199 301.782043,360.380157 301.726440,366.591949 
	C301.675354,372.298370 297.067902,377.052429 291.337952,377.311066 
	C284.740173,377.608887 280.426178,373.607147 279.668335,366.061951 
z"/>
<path fill="#000000" opacity="1.000000" stroke="none" 
	d="
M255.371124,184.036224 
	C262.991425,184.652985 266.313538,186.947342 267.802063,192.415436 
	C269.095520,197.166840 267.329010,200.963791 263.672882,203.876724 
	C258.710052,207.830750 251.463120,206.576248 247.854492,201.318451 
	C244.374619,196.248260 245.707520,189.354446 250.915695,185.982101 
	C252.153824,185.180420 253.619339,184.729889 255.371124,184.036224 
z"/>
<path fill="#000000" opacity="1.000000" stroke="none" 
	d="
M290.914001,191.315002 
	C298.161346,192.576004 301.412628,195.915695 301.665344,201.997177 
	C301.868286,206.880096 298.560638,211.532547 293.863892,212.970688 
	C288.999786,214.460052 283.634125,212.288773 280.987274,207.759995 
	C276.811584,200.615326 281.378876,192.725830 290.914001,191.315002 
z"/>
<path fill="#000000" opacity="1.000000" stroke="none" 
	d="
M313.722870,356.450470 
	C308.586792,351.195648 307.773346,346.340363 310.939240,341.493866 
	C313.707642,337.255829 319.192352,335.450439 324.147766,337.145996 
	C328.682068,338.697449 331.670685,343.453339 331.308868,348.541779 
	C330.726593,356.731171 322.341034,360.675140 313.722870,356.450470 
z"/>
<path fill="#000000" opacity="1.000000" stroke="none" 
	d="
M223.922394,213.304886 
	C218.280167,213.174820 214.453812,210.704437 213.024567,205.740173 
	C211.717209,201.199234 212.636932,196.833389 216.626053,193.634018 
	C220.628387,190.424042 224.918854,190.598618 229.166718,192.907486 
	C233.696625,195.369629 234.866043,199.559311 234.266846,204.361847 
	C233.691727,208.971329 230.096619,212.131729 223.922394,213.304886 
z"/>
<path fill="#000000" opacity="1.000000" stroke="none" 
	d="
M229.978653,375.200836 
	C224.152069,379.821442 215.662842,376.195190 213.502792,371.246155 
	C211.035690,365.593567 213.491074,358.515656 219.063904,356.036255 
	C224.440277,353.644257 231.459610,356.382660 233.583313,361.970001 
	C235.474167,366.944763 234.477661,371.419220 229.978653,375.200836 
z"/>
<path fill="#000000" opacity="1.000000" stroke="none" 
	d="
M205.084106,347.894043 
	C204.055954,353.448608 201.374680,357.250793 195.987152,358.220367 
	C191.421310,359.042084 187.391632,357.675171 184.706436,353.645203 
	C182.059494,349.672638 182.015717,345.552063 184.631454,341.517273 
	C187.139725,337.648285 190.803528,336.128906 195.302704,336.703339 
	C199.817352,337.279755 202.914536,339.728851 204.336533,344.111145 
	C204.691879,345.206207 204.850357,346.365173 205.084106,347.894043 
z"/>
</svg>