<svg version="1.1" id="Layer_1" xmlns="http://www.w3.org/2000/svg" xmlns:xlink="http://www.w3.org/1999/xlink" x="0px" y="0px"
	 width="100%" viewBox="0 0 512 512" enable-background="new 0 0 512 512" xml:space="preserve">
<path fill="#000000" opacity="1.000000" stroke="none" 
	d="
M274.556396,392.168030 
	C295.251801,399.800842 302.338654,416.421173 301.655792,434.549164 
	C300.423859,467.253998 271.048370,479.655121 244.739883,473.976013 
	C223.188385,469.323822 212.026993,454.062225 212.505966,431.127960 
	C213.036514,405.724152 228.946762,390.055664 254.467880,389.614319 
	C261.183472,389.498169 267.770660,389.919373 274.556396,392.168030 
M261.528839,453.126587 
	C273.478607,450.058502 278.764221,442.386780 277.807098,429.499695 
	C277.017883,418.873199 269.802551,411.928680 258.190674,410.619598 
	C248.464539,409.523102 239.070831,415.661865 236.258743,424.952026 
	C231.047073,442.169586 242.170776,455.084686 261.528839,453.126587 
z"/>
<path fill="#000000" opacity="1.000000" stroke="none" 
	d="
M246.238892,370.711975 
	C249.860947,362.993225 256.279236,360.404480 262.508240,363.825012 
	C268.190765,366.945496 269.898895,374.186890 266.251343,379.693390 
	C263.484741,383.869934 257.979523,385.636505 253.038528,383.933258 
	C248.139038,382.244385 245.531799,377.416290 246.238892,370.711975 
z"/>
<path fill="#000000" opacity="1.000000" stroke="none" 
	d="
M185.489594,228.395996 
	C181.923035,222.438782 181.800797,218.439362 185.159119,214.385468 
	C188.104904,210.829529 191.757401,209.182343 196.575607,210.453384 
	C201.573975,211.771957 204.079590,215.097900 204.879410,219.862320 
	C205.573227,223.995285 203.768250,227.352203 200.576538,229.808380 
	C196.845490,232.679596 192.718506,233.147324 188.500793,230.777542 
	C187.506973,230.219131 186.665207,229.390121 185.489594,228.395996 
z"/>
<path fill="#000000" opacity="1.000000" stroke="none" 
	d="
M331.275970,222.658234 
	C328.675659,229.939682 323.948669,233.185593 318.235443,232.006439 
	C312.721649,230.868469 308.835510,225.966599 309.136414,220.529221 
	C309.433350,215.164200 314.693665,209.965210 319.911652,209.879669 
	C326.595917,209.770081 331.037811,214.588089 331.275970,222.658234 
z"/>
<path fill="#000000" opacity="1.000000" stroke="none" 
	d="
M166.806061,258.137451 
	C163.251541,253.510254 162.864609,248.977448 166.022919,244.463089 
	C168.618118,240.753662 172.302155,239.050827 176.858368,239.802094 
	C181.617813,240.586853 184.641617,243.497818 185.849838,248.083633 
	C187.153122,253.030197 185.179474,256.910400 181.190445,259.773895 
	C176.809219,262.918976 172.218979,262.404541 166.806061,258.137451 
z"/>
<path fill="#000000" opacity="1.000000" stroke="none" 
	d="
M335.248169,261.103577 
	C329.239929,257.708740 326.962646,253.404160 328.231232,248.428146 
	C329.563843,243.201172 333.900909,239.671219 338.980896,239.678955 
	C344.320740,239.687103 348.480560,243.016022 349.952698,248.160934 
	C351.850983,254.795364 344.884399,264.283661 335.248169,261.103577 
z"/>
<path fill="#000000" opacity="1.000000" stroke="none" 
	d="
M174.722214,292.913818 
	C168.725357,296.372406 163.711594,295.958008 159.870667,291.947845 
	C156.459991,288.386902 155.736526,283.126343 158.095901,279.042816 
	C160.844666,274.285339 166.012955,272.298615 171.396439,273.786957 
	C177.763321,275.547150 182.935562,285.482269 174.722214,292.913818 
z"/>
<path fill="#000000" opacity="1.000000" stroke="none" 
	d="
M357.297974,283.191040 
	C356.889618,290.237610 353.383148,294.591095 347.928223,295.269287 
	C342.195068,295.982086 337.272736,292.804535 335.682220,287.364014 
	C334.173767,282.204224 336.545013,276.802490 341.386230,274.370239 
	C347.993011,271.050964 354.831238,274.667633 357.297974,283.191040 
z"/>
<path fill="#000000" opacity="1.000000" stroke="none" 
	d="
M349.907349,320.373505 
	C345.620697,329.800354 336.524109,331.911163 330.744385,325.178650 
	C327.317810,321.187195 327.006073,316.153717 329.916840,311.817566 
	C332.804840,307.515289 337.815521,305.775177 342.575073,307.421570 
	C347.925232,309.272247 350.364655,313.388489 349.907349,320.373505 
z"/>
<path fill="#000000" opacity="1.000000" stroke="none" 
	d="
M268.218323,195.809082 
	C265.088318,206.262238 256.023315,209.529236 249.294205,202.896835 
	C246.122131,199.770355 244.902008,195.934479 246.617844,191.497360 
	C248.350494,187.016739 251.667603,184.240036 256.318573,184.045929 
	C260.836517,183.857376 264.813660,185.743851 266.955414,190.125916 
	C267.748016,191.747559 268.397797,193.502777 268.218323,195.809082 
z"/>
<path fill="#000000" opacity="1.000000" stroke="none" 
	d="
M183.801575,324.613159 
	C179.880722,328.763184 175.622269,330.259308 170.530334,327.940979 
	C166.342896,326.034424 164.065353,322.570892 163.978165,318.125153 
	C163.885956,313.423615 166.397308,309.941803 170.620728,307.820648 
	C174.519775,305.862427 179.815460,306.891998 183.017639,310.157318 
	C186.752151,313.965485 187.079041,318.539642 183.801575,324.613159 
z"/>
<path fill="#000000" opacity="1.000000" stroke="none" 
	d="
M293.960449,355.766052 
	C300.132172,358.847229 302.381317,362.623627 301.508453,368.088531 
	C300.744202,372.873566 297.761505,375.831573 293.250702,377.078644 
	C288.601868,378.363861 283.671967,376.269867 281.200714,372.081940 
	C278.902557,368.187378 278.851105,364.127838 281.415436,360.323608 
	C284.337372,355.988953 288.490356,354.520050 293.960449,355.766052 
z"/>
<path fill="#000000" opacity="1.000000" stroke="none" 
	d="
M296.996429,211.285889 
	C291.180237,215.450165 283.917725,212.764740 281.078400,207.927048 
	C278.195923,203.015808 279.532898,196.709778 284.292450,193.339172 
	C288.761597,190.174240 295.228607,190.849365 298.863647,194.711761 
	C302.250366,198.310272 303.221710,207.060837 296.996429,211.285889 
z"/>
<path fill="#000000" opacity="1.000000" stroke="none" 
	d="
M315.710938,357.549866 
	C309.647186,353.604614 307.662872,348.266937 310.041229,343.023285 
	C312.266876,338.116272 317.960815,335.521027 323.422943,336.923981 
	C328.368378,338.194244 331.800995,343.357147 331.298401,348.769196 
	C330.648071,355.772095 324.255402,359.526672 315.710938,357.549866 
z"/>
<path fill="#000000" opacity="1.000000" stroke="none" 
	d="
M220.741394,355.551880 
	C229.493896,354.988831 234.421249,359.083191 234.356979,366.467468 
	C234.299347,373.088837 228.892181,377.922302 222.258667,377.282135 
	C217.715729,376.843719 213.613098,373.271423 212.772812,369.022614 
	C211.577911,362.980652 214.033905,358.649139 220.741394,355.551880 
z"/>
<path fill="#000000" opacity="1.000000" stroke="none" 
	d="
M234.120407,205.387939 
	C230.471481,212.181442 225.922058,214.587372 220.433472,212.977005 
	C214.684296,211.290207 211.556519,205.868225 212.782410,199.714096 
	C213.797424,194.618637 218.840103,190.924057 224.113998,191.411880 
	C230.390579,191.992432 234.173615,195.897018 234.343811,202.010361 
	C234.371368,203.000061 234.263626,203.993515 234.120407,205.387939 
z"/>
<path fill="#000000" opacity="1.000000" stroke="none" 
	d="
M193.945129,336.649414 
	C201.052994,337.635925 205.117523,341.817780 205.075821,347.665436 
	C205.041473,352.483490 200.778259,357.481934 196.029388,358.272064 
	C190.121567,359.255005 185.087311,356.010620 183.154129,350.462982 
	C181.319595,345.198456 185.789658,336.217041 193.945129,336.649414 
z"/>
</svg>