<svg version="1.1" id="Layer_1" xmlns="http://www.w3.org/2000/svg" xmlns:xlink="http://www.w3.org/1999/xlink" x="0px" y="0px"
	 width="100%" viewBox="0 0 512 512" enable-background="new 0 0 512 512" xml:space="preserve">
<path fill="#000000" opacity="1.000000" stroke="none" 
	d="
M232.653961,461.885406 
	C239.077240,445.360657 243.479324,428.677734 246.463776,411.642120 
	C247.067154,408.198090 248.497086,407.133606 251.606705,407.140472 
	C260.254364,407.159607 268.902374,407.066467 277.549866,407.103119 
	C283.392426,407.127838 284.399475,408.389893 282.799561,414.016083 
	C280.152710,423.323944 276.192932,432.119720 271.750183,440.685120 
	C266.617157,450.581238 260.914551,460.125214 254.229858,469.092010 
	C251.971649,472.121124 249.468933,473.387177 245.806885,473.129761 
	C242.828293,472.920410 239.822876,473.104492 236.829468,473.091614 
	C230.680511,473.065186 229.466278,471.426636 231.252747,465.513184 
	C231.587952,464.403503 232.091660,463.344788 232.653961,461.885406 
z"/>
<path fill="#000000" opacity="1.000000" stroke="none" 
	d="
M335.041412,307.554474 
	C341.280304,306.142365 345.731079,307.684143 348.440063,311.915924 
	C351.114410,316.093658 350.828156,320.803925 347.653961,324.851410 
	C343.843353,329.710388 336.475006,330.354706 331.751587,326.241943 
	C326.998413,322.103302 326.653717,314.956604 331.091919,310.325897 
	C332.099243,309.274872 333.467560,308.569855 335.041412,307.554474 
z"/>
<path fill="#000000" opacity="1.000000" stroke="none" 
	d="
M182.811966,222.649994 
	C183.008591,215.491501 186.406250,211.086655 192.146637,210.066406 
	C196.952591,209.212219 202.317078,212.296417 204.114319,216.946976 
	C206.369812,222.783340 203.858154,228.732986 198.061386,231.285400 
	C192.641830,233.671677 186.612366,231.390396 183.856873,225.864761 
	C183.418030,224.984756 183.190460,223.999390 182.811966,222.649994 
z"/>
<path fill="#000000" opacity="1.000000" stroke="none" 
	d="
M158.076324,289.507629 
	C155.360367,281.703674 158.203629,275.422943 164.896622,273.666565 
	C171.594269,271.908966 177.692841,275.888031 178.932770,282.824585 
	C179.727081,287.268188 176.738739,292.408264 172.147720,294.495087 
	C167.241791,296.725128 162.484482,295.137543 158.076324,289.507629 
z"/>
<path fill="#000000" opacity="1.000000" stroke="none" 
	d="
M318.456238,210.059174 
	C323.917908,209.851227 328.019440,211.566101 330.277802,216.367874 
	C332.035828,220.105911 331.879761,223.828430 329.372070,227.228745 
	C326.582733,231.010986 322.917908,232.978271 318.119537,231.971176 
	C313.184937,230.935516 310.252106,227.822052 309.379272,222.878052 
	C308.529388,218.063919 310.516449,214.439697 314.465515,211.827408 
	C315.556915,211.105469 316.859344,210.702606 318.456238,210.059174 
z"/>
<path fill="#000000" opacity="1.000000" stroke="none" 
	d="
M167.654282,242.555054 
	C174.474609,238.146057 180.932877,239.125702 184.460434,244.801620 
	C187.861572,250.274170 186.122818,256.988647 180.446472,260.302185 
	C176.017426,262.887634 170.202789,261.960785 166.785339,258.124634 
	C162.711563,253.551773 162.895126,248.661774 167.654282,242.555054 
z"/>
<path fill="#000000" opacity="1.000000" stroke="none" 
	d="
M339.838837,239.698013 
	C346.925598,241.380539 350.683014,245.780579 350.235657,251.401337 
	C349.813110,256.710358 345.002686,261.505615 339.802704,261.801331 
	C334.194611,262.120270 329.440155,258.487885 328.149139,252.898132 
	C326.615509,246.257874 331.701172,240.293915 339.838837,239.698013 
z"/>
<path fill="#000000" opacity="1.000000" stroke="none" 
	d="
M338.432434,276.436646 
	C345.146362,271.827759 352.148865,272.747528 355.662384,278.396942 
	C359.013550,283.785309 357.248596,290.693634 351.685089,293.964844 
	C347.523621,296.411682 341.733093,295.605469 338.355042,292.108917 
	C334.309418,287.921387 334.244293,282.591095 338.432434,276.436646 
z"/>
<path fill="#000000" opacity="1.000000" stroke="none" 
	d="
M183.808258,324.618195 
	C179.883484,328.777710 175.625397,330.266693 170.520691,327.945709 
	C166.317307,326.034515 164.050385,322.561584 163.961090,318.117676 
	C163.866516,313.411194 166.390259,309.925537 170.623428,307.807678 
	C174.637466,305.799408 179.748459,306.793488 183.020828,310.144897 
	C186.778839,313.993652 187.103073,318.523254 183.808258,324.618195 
z"/>
<path fill="#000000" opacity="1.000000" stroke="none" 
	d="
M284.034851,375.194214 
	C279.541290,371.374756 278.438965,366.875092 280.543762,361.930359 
	C282.479309,357.383270 286.255707,355.049042 291.279022,355.337036 
	C296.034698,355.609650 299.576172,357.982025 301.060852,362.571411 
	C302.563995,367.217926 301.666382,371.609131 297.767120,374.781830 
	C293.580109,378.188660 288.976471,378.346375 284.034851,375.194214 
z"/>
<path fill="#000000" opacity="1.000000" stroke="none" 
	d="
M264.564026,381.697571 
	C257.922577,385.858704 251.498779,385.039948 247.901047,379.871887 
	C244.322098,374.730804 245.537064,368.212036 250.773056,364.462769 
	C255.006393,361.431488 261.311554,361.978119 264.993256,365.695618 
	C269.321167,370.065552 269.275757,375.453766 264.564026,381.697571 
z"/>
<path fill="#000000" opacity="1.000000" stroke="none" 
	d="
M266.743927,200.369141 
	C262.417389,205.880768 258.620361,207.305618 253.668427,205.532791 
	C248.877182,203.817459 245.837021,199.751541 245.822723,195.039886 
	C245.809250,190.597549 249.146393,186.128540 253.745575,184.551773 
	C258.198486,183.025146 262.109467,184.468719 265.139954,187.592560 
	C268.568207,191.126419 269.219727,195.469269 266.743927,200.369141 
z"/>
<path fill="#000000" opacity="1.000000" stroke="none" 
	d="
M280.543091,206.901154 
	C278.543030,198.358749 282.276031,192.087418 289.401245,191.364014 
	C294.567413,190.839523 299.330139,193.633209 300.981140,198.156433 
	C302.871277,203.334991 301.052551,208.747513 296.452148,211.634674 
	C291.917816,214.480362 286.634094,213.899628 282.792450,210.049973 
	C281.983276,209.239151 281.401428,208.201508 280.543091,206.901154 
z"/>
<path fill="#000000" opacity="1.000000" stroke="none" 
	d="
M318.379517,336.712585 
	C328.760345,335.104126 333.765839,346.032104 330.226715,352.388184 
	C327.621002,357.067871 322.851562,359.367188 317.645721,358.258270 
	C313.148254,357.300262 309.586151,353.169586 309.105042,348.354431 
	C308.587463,343.174255 311.700104,339.091248 318.379517,336.712585 
z"/>
<path fill="#000000" opacity="1.000000" stroke="none" 
	d="
M214.217163,208.405762 
	C210.351944,199.166550 215.436340,190.601044 223.948425,191.298157 
	C229.264343,191.733505 233.401413,195.168579 234.252960,199.854156 
	C235.214920,205.147247 232.874741,209.937973 228.175095,212.296585 
	C223.544464,214.620560 219.011093,213.446243 214.217163,208.405762 
z"/>
<path fill="#000000" opacity="1.000000" stroke="none" 
	d="
M229.663574,357.128448 
	C234.967178,362.196899 235.890686,367.539337 232.600891,372.407227 
	C229.493744,377.004852 223.961884,378.642883 219.050964,376.419342 
	C213.303741,373.817169 210.894379,367.552521 213.439636,361.829254 
	C216.234955,355.543701 221.885727,353.799988 229.663574,357.128448 
z"/>
<path fill="#000000" opacity="1.000000" stroke="none" 
	d="
M184.076401,342.452393 
	C187.080063,337.320160 191.418533,335.762604 196.576187,336.909210 
	C201.197922,337.936615 203.979630,341.146851 204.819260,345.837128 
	C205.642563,350.436035 203.611069,353.911713 200.052643,356.540253 
	C196.357803,359.269623 190.844162,359.025116 187.046066,356.175934 
	C183.095291,353.212219 181.965469,348.421906 184.076401,342.452393 
z"/>
</svg>