<svg version="1.1" id="Layer_1" xmlns="http://www.w3.org/2000/svg" xmlns:xlink="http://www.w3.org/1999/xlink" x="0px" y="0px"
	 width="100%" viewBox="0 0 512 512" enable-background="new 0 0 512 512" xml:space="preserve">
<path fill="#000000" opacity="1.000000" stroke="none" 
	d="
M287.399963,465.392120 
	C276.172913,475.957336 262.373199,478.930511 248.113907,480.084167 
	C239.177063,480.807220 230.148117,480.828552 221.192657,479.360718 
	C218.005814,478.838379 216.520187,477.544006 216.615921,474.170471 
	C216.785446,468.196381 216.663452,462.214050 216.663452,456.387482 
	C219.469147,454.702667 221.966980,455.683929 224.336426,455.983398 
	C233.813782,457.181122 243.264221,457.229614 252.678574,455.592072 
	C260.851471,454.170563 265.746552,449.664307 266.813202,442.874298 
	C267.976746,435.467682 265.032013,430.050018 257.322632,425.955902 
	C250.317139,422.235535 242.614822,420.698059 234.882431,419.461334 
	C231.840622,418.974762 230.596527,418.117126 232.199051,414.963867 
	C237.776535,403.988953 243.252670,392.962524 248.846878,381.796997 
	C244.821732,374.368958 244.967010,369.452667 249.488541,365.365662 
	C253.184158,362.025208 259.312836,361.588409 263.395905,364.374390 
	C268.563721,367.900513 269.139313,372.887421 265.322876,382.360260 
	C267.451324,382.672607 269.513519,382.975250 272.408875,383.400177 
	C270.638733,390.821167 266.013367,396.713470 263.548523,404.237579 
	C279.768433,409.281311 294.999146,415.843994 297.096344,435.610443 
	C298.270081,446.673492 295.371338,456.755981 287.399963,465.392120 
z"/>
<path fill="#000000" opacity="1.000000" stroke="none" 
	d="
M329.774719,312.037781 
	C334.602539,306.686890 338.584808,305.550842 343.639893,307.809204 
	C347.881653,309.704224 350.611328,314.191742 350.221863,318.629761 
	C349.809601,323.327881 346.441864,327.322479 341.714752,328.640808 
	C337.394684,329.845551 333.716064,328.414948 330.891083,325.261261 
	C327.440552,321.409271 326.830292,316.991699 329.774719,312.037781 
z"/>
<path fill="#000000" opacity="1.000000" stroke="none" 
	d="
M182.741089,220.184494 
	C184.573425,213.713638 188.360992,210.148117 193.240158,209.909073 
	C197.908020,209.680374 202.552917,212.755905 204.174118,217.148834 
	C206.419830,223.234024 203.530121,229.288193 197.283615,231.584961 
	C191.604462,233.673111 185.375656,230.549927 183.353317,224.504547 
	C182.940125,223.269394 182.920776,221.902481 182.741089,220.184494 
z"/>
<path fill="#000000" opacity="1.000000" stroke="none" 
	d="
M317.638031,231.854614 
	C310.759644,229.057098 307.898651,223.912354 309.641968,218.061325 
	C311.226501,212.743225 316.806274,209.145538 321.914459,210.148376 
	C328.137054,211.369995 331.866577,216.188522 331.305725,222.281784 
	C330.733429,228.499130 325.219635,232.521606 317.638031,231.854614 
z"/>
<path fill="#000000" opacity="1.000000" stroke="none" 
	d="
M173.513611,261.545776 
	C166.743423,259.743500 163.023056,254.764008 163.991074,249.225525 
	C165.058548,243.118118 170.603699,238.966461 176.636230,239.758087 
	C182.230301,240.492188 186.627167,245.770889 186.252060,251.302505 
	C185.832687,257.487030 181.013092,261.515503 173.513611,261.545776 
z"/>
<path fill="#000000" opacity="1.000000" stroke="none" 
	d="
M343.542755,260.859863 
	C338.089783,262.578522 333.556915,261.725586 330.230133,257.360657 
	C327.343353,253.572983 327.012604,249.380676 329.555786,245.227570 
	C331.912567,241.378891 335.324646,239.293808 339.967285,239.714142 
	C344.531281,240.127350 347.667511,242.494064 349.426514,246.747269 
	C351.156403,250.930008 350.086639,254.605118 347.359436,257.886749 
	C346.428101,259.007446 345.057220,259.762878 343.542755,260.859863 
z"/>
<path fill="#000000" opacity="1.000000" stroke="none" 
	d="
M176.826294,290.643158 
	C171.287613,296.220398 165.021072,296.772644 160.295532,292.398163 
	C155.988327,288.410950 155.518311,282.130402 159.181335,277.509827 
	C162.742310,273.017975 169.169449,271.929108 174.005356,274.998413 
	C178.974609,278.152344 180.175659,284.205048 176.826294,290.643158 
z"/>
<path fill="#000000" opacity="1.000000" stroke="none" 
	d="
M336.660339,278.899719 
	C340.748138,273.654480 344.634979,272.175781 349.838318,273.891907 
	C354.193542,275.328339 356.748199,278.475159 357.255524,283.018982 
	C357.813812,288.019409 355.627869,291.839752 351.271362,294.143066 
	C347.056152,296.371613 342.853424,295.790405 339.146729,292.794006 
	C335.257263,289.649902 334.415802,285.027161 336.660339,278.899719 
z"/>
<path fill="#000000" opacity="1.000000" stroke="none" 
	d="
M250.431671,186.279449 
	C257.095123,182.761230 263.820953,184.268539 266.751984,189.642303 
	C269.783997,195.201202 267.680969,201.998444 261.998108,205.007446 
	C257.496338,207.391098 251.330215,205.913315 248.137512,201.685593 
	C244.488037,196.853027 245.128433,191.952774 250.431671,186.279449 
z"/>
<path fill="#000000" opacity="1.000000" stroke="none" 
	d="
M279.865051,199.570175 
	C283.216522,192.762726 286.993011,190.553802 292.875244,191.605301 
	C297.729340,192.473022 300.754089,195.650635 301.443420,200.606506 
	C302.346344,207.098083 298.074127,212.724976 291.822296,213.278397 
	C285.104584,213.873062 279.937073,209.279037 279.681610,202.461563 
	C279.650604,201.635254 279.743561,200.804306 279.865051,199.570175 
z"/>
<path fill="#000000" opacity="1.000000" stroke="none" 
	d="
M180.277969,327.578735 
	C173.625214,329.985474 168.614334,328.520081 165.650833,323.604095 
	C162.866333,318.985046 163.573074,313.642334 167.456299,309.955200 
	C172.110199,305.536285 179.346481,305.846405 183.467529,310.641327 
	C188.074219,316.001343 186.947144,322.594177 180.277969,327.578735 
z"/>
<path fill="#000000" opacity="1.000000" stroke="none" 
	d="
M291.680481,355.383911 
	C299.038086,357.033478 302.571533,361.830353 301.492859,368.267365 
	C300.542511,373.938660 295.555969,377.726440 289.605316,377.297119 
	C283.902313,376.885681 279.650024,372.150330 279.670532,366.233734 
	C279.692841,359.801727 283.800568,355.943573 291.680481,355.383911 
z"/>
<path fill="#000000" opacity="1.000000" stroke="none" 
	d="
M309.533386,350.200073 
	C308.702423,343.079376 312.185242,337.738647 317.967102,336.745667 
	C324.174866,335.679565 329.469818,338.946289 331.035095,344.807953 
	C332.444000,350.084045 329.100006,356.262207 323.886810,358.014679 
	C317.966919,360.004730 312.502899,357.157867 309.533386,350.200073 
z"/>
<path fill="#000000" opacity="1.000000" stroke="none" 
	d="
M222.255646,355.239502 
	C227.891891,355.381195 232.124252,357.359070 233.848343,362.615601 
	C235.222565,366.805389 234.574554,370.893951 231.248520,374.104004 
	C227.672531,377.555206 223.464005,378.383728 218.888458,376.314575 
	C214.033569,374.119049 212.194229,370.172821 212.665527,364.988098 
	C213.108093,360.119598 216.087845,356.962433 222.255646,355.239502 
z"/>
<path fill="#000000" opacity="1.000000" stroke="none" 
	d="
M219.846451,212.755035 
	C213.561447,209.250259 211.448990,205.433746 212.839859,199.679718 
	C213.941528,195.122147 216.910965,192.125168 221.697510,191.421692 
	C226.792511,190.672882 231.636475,193.247787 233.493591,197.747055 
	C235.110962,201.665543 234.891464,205.520996 232.176208,208.982483 
	C229.076508,212.934052 225.016296,214.068436 219.846451,212.755035 
z"/>
<path fill="#000000" opacity="1.000000" stroke="none" 
	d="
M184.439850,353.260284 
	C181.725372,348.276123 182.384933,343.910126 185.755417,340.047089 
	C188.786194,336.573395 192.878937,335.837646 197.116287,337.042419 
	C201.455536,338.276154 204.005432,341.429840 204.847977,345.900513 
	C205.670471,350.264679 203.053986,355.166840 198.729233,357.350494 
	C193.963348,359.756927 188.973923,358.425659 184.439850,353.260284 
z"/>
</svg>