<svg version="1.1" id="Layer_1" xmlns="http://www.w3.org/2000/svg" xmlns:xlink="http://www.w3.org/1999/xlink" x="0px" y="0px"
	 width="100%" viewBox="0 0 512 512" enable-background="new 0 0 512 512" xml:space="preserve">
<path fill="#000000" opacity="1.000000" stroke="none" 
	d="
M240.075134,451.990112 
	C240.062149,436.001801 240.152847,420.509888 239.972183,405.021179 
	C239.918015,400.378204 241.357910,398.430389 246.299896,398.673889 
	C253.777267,399.042297 261.289246,398.897949 268.780334,398.715942 
	C272.390625,398.628174 273.968750,399.963440 273.960846,403.593201 
	C273.918732,422.914398 273.936493,442.235809 273.977386,461.557068 
	C273.984467,464.894989 272.562561,466.337799 269.141937,466.283051 
	C261.148834,466.155121 253.148102,466.091278 245.158783,466.308441 
	C241.151459,466.417419 239.765869,464.750946 239.991776,460.980652 
	C240.160904,458.158173 240.057098,455.319305 240.075134,451.990112 
z"/>
<path fill="#000000" opacity="1.000000" stroke="none" 
	d="
M332.960938,308.704041 
	C339.618439,305.516449 345.694214,307.059265 348.752319,312.418274 
	C351.594910,317.399658 350.152466,323.669128 345.413483,326.930511 
	C340.530945,330.290588 334.355682,329.523621 330.650482,325.096924 
	C326.330322,319.935516 327.000488,314.458344 332.960938,308.704041 
z"/>
<path fill="#000000" opacity="1.000000" stroke="none" 
	d="
M187.850739,230.430481 
	C182.579315,225.571838 181.403046,220.919098 183.948563,216.130966 
	C186.294418,211.718399 190.984222,209.309433 195.453842,210.182922 
	C200.302414,211.130478 203.396820,213.805801 204.651001,218.738541 
	C205.778168,223.171814 204.202774,226.680878 201.078171,229.398697 
	C197.229218,232.746552 192.778030,233.282501 187.850739,230.430481 
z"/>
<path fill="#000000" opacity="1.000000" stroke="none" 
	d="
M263.434204,382.549744 
	C257.073029,385.708008 251.390533,384.696289 248.026749,380.076172 
	C244.804306,375.650208 245.194977,369.992676 249.000336,365.976440 
	C253.312012,361.425842 260.700043,361.313354 265.036163,365.732239 
	C269.742981,370.528900 269.251617,376.840912 263.434204,382.549744 
z"/>
<path fill="#000000" opacity="1.000000" stroke="none" 
	d="
M326.774841,229.972046 
	C319.774902,233.613098 313.616089,232.163284 310.567017,226.466415 
	C307.606262,220.934586 309.472382,214.636322 315.028198,211.409653 
	C319.616211,208.745056 325.598389,209.922623 328.949890,214.150070 
	C332.718628,218.903809 332.056152,224.438690 326.774841,229.972046 
z"/>
<path fill="#000000" opacity="1.000000" stroke="none" 
	d="
M178.829559,261.127380 
	C171.950272,262.403168 167.373199,260.434723 165.019806,255.460999 
	C162.959732,251.107193 163.964371,245.973846 167.522568,242.672714 
	C171.254639,239.210251 176.623474,238.557068 180.904190,241.284424 
	C188.857742,246.351837 187.661652,257.309814 178.829559,261.127380 
z"/>
<path fill="#000000" opacity="1.000000" stroke="none" 
	d="
M348.977539,255.565765 
	C344.789642,261.314972 341.002045,262.881378 335.582764,261.187836 
	C330.932892,259.734772 328.386841,256.252808 327.989624,251.617569 
	C327.567230,246.688614 329.998169,242.921906 334.439453,240.727432 
	C338.784210,238.580658 343.035309,239.331345 346.488434,242.500839 
	C350.252747,245.955933 351.384827,250.321320 348.977539,255.565765 
z"/>
<path fill="#000000" opacity="1.000000" stroke="none" 
	d="
M158.484009,290.194763 
	C155.800491,285.238678 156.137939,280.892670 159.661743,276.933594 
	C162.752838,273.460602 166.669235,272.631775 171.030472,273.754700 
	C175.562637,274.921631 177.937241,278.122925 178.853317,282.551636 
	C179.785004,287.055847 177.004257,292.132507 172.406219,294.369537 
	C167.715042,296.651825 163.134079,295.366333 158.484009,290.194763 
z"/>
<path fill="#000000" opacity="1.000000" stroke="none" 
	d="
M335.440186,286.328613 
	C335.135498,279.150085 338.419983,274.506958 344.180664,273.462006 
	C349.565582,272.485229 354.666718,275.315765 356.625763,280.367615 
	C358.606415,285.475128 356.440857,291.282806 351.518219,294.065094 
	C345.179443,297.647766 338.350403,294.503754 335.440186,286.328613 
z"/>
<path fill="#000000" opacity="1.000000" stroke="none" 
	d="
M174.218842,329.045959 
	C164.994537,326.246033 161.418564,319.221313 165.568130,312.440338 
	C168.116013,308.276703 171.892090,306.077057 176.929703,306.961884 
	C181.769501,307.811981 185.447113,311.471741 186.081329,316.315002 
	C186.729736,321.266632 184.611633,325.037079 180.317535,327.547943 
	C178.570770,328.569336 176.670242,329.150543 174.218842,329.045959 
z"/>
<path fill="#000000" opacity="1.000000" stroke="none" 
	d="
M301.351807,363.789520 
	C301.970306,370.913513 298.814697,375.940796 293.256134,377.145569 
	C287.649139,378.360809 281.739502,375.096741 280.054993,369.854095 
	C278.356262,364.567200 280.807068,358.855347 285.840118,356.371277 
	C292.011169,353.325531 298.344421,356.207947 301.351807,363.789520 
z"/>
<path fill="#000000" opacity="1.000000" stroke="none" 
	d="
M267.878510,192.609161 
	C268.367218,199.532288 265.548615,204.091949 260.083405,205.816833 
	C255.674957,207.208206 250.071228,204.963943 247.546127,200.795715 
	C244.132599,195.160904 246.245560,188.165939 252.276031,185.137466 
	C258.339294,182.092514 264.856873,185.078918 267.878510,192.609161 
z"/>
<path fill="#000000" opacity="1.000000" stroke="none" 
	d="
M301.172424,205.879913 
	C297.574066,212.041412 293.896118,214.192566 288.589142,213.172455 
	C283.904877,212.272049 280.844025,209.308517 279.842560,204.671265 
	C278.438141,198.168152 282.958099,192.039658 289.368927,191.369003 
	C296.166931,190.657852 301.336487,195.123810 301.645721,202.055191 
	C301.696716,203.198669 301.404968,204.357437 301.172424,205.879913 
z"/>
<path fill="#000000" opacity="1.000000" stroke="none" 
	d="
M326.395752,338.270905 
	C331.433441,342.990997 332.645325,347.690674 330.277344,352.264282 
	C327.898132,356.859589 323.428864,359.117279 318.258392,358.335693 
	C313.627777,357.635773 309.959869,353.868103 309.229584,348.945190 
	C308.645020,345.004852 309.989288,341.612427 312.985321,339.165070 
	C316.980774,335.901398 321.476868,335.772278 326.395752,338.270905 
z"/>
<path fill="#000000" opacity="1.000000" stroke="none" 
	d="
M219.986389,191.734009 
	C225.353821,190.648727 229.696411,191.794876 232.609436,196.119904 
	C235.112961,199.836929 235.245255,203.954590 232.923660,207.861374 
	C230.497589,211.944016 226.773529,213.906693 222.022110,213.224182 
	C217.356232,212.553940 214.035828,209.933945 212.855331,205.263748 
	C211.401657,199.512802 213.579971,195.404907 219.986389,191.734009 
z"/>
<path fill="#000000" opacity="1.000000" stroke="none" 
	d="
M224.561279,355.365173 
	C230.112610,356.270935 233.416138,359.167480 234.258575,364.378387 
	C235.047302,369.257202 233.352234,373.233612 229.022873,375.818756 
	C224.869766,378.298676 220.754120,377.838562 216.870667,375.165100 
	C212.563004,372.199585 211.961456,367.813141 212.935867,363.188904 
	C213.946747,358.391602 218.151840,355.631165 224.561279,355.365173 
z"/>
<path fill="#000000" opacity="1.000000" stroke="none" 
	d="
M200.789764,356.021973 
	C193.919830,359.967133 187.291245,358.564148 184.167572,352.814240 
	C181.103104,347.173340 183.219315,340.536102 189.016891,337.605164 
	C193.388916,335.394928 199.376328,336.725189 202.535736,340.608765 
	C206.336823,345.281128 205.871155,350.195038 200.789764,356.021973 
z"/>
</svg>