<svg version="1.1" id="Layer_1" xmlns="http://www.w3.org/2000/svg" xmlns:xlink="http://www.w3.org/1999/xlink" x="0px" y="0px"
	 width="100%" viewBox="0 0 512 512" enable-background="new 0 0 512 512" xml:space="preserve">
<path fill="#000000" opacity="1.000000" stroke="none" 
	d="
M212.000000,401.932007 
	C248.824905,401.932709 285.149811,401.932739 321.474701,401.935913 
	C329.001709,401.936554 329.177490,402.092865 329.180054,409.359161 
	C329.186737,428.188110 329.053162,447.018341 329.257019,465.845032 
	C329.307373,470.493622 327.592041,472.093567 323.149780,471.915405 
	C317.326904,471.681885 311.490387,471.764740 305.659668,471.758759 
	C302.112213,471.755096 300.743164,470.151459 300.793304,466.520447 
	C300.949738,455.192108 300.686157,443.857361 300.892853,432.530670 
	C300.965820,428.531952 299.534912,427.328796 295.672302,427.385315 
	C276.683624,427.663147 257.692139,427.787170 238.701233,427.853424 
	C232.041824,427.876648 225.366623,427.799286 218.726425,427.353699 
	C214.181549,427.048706 213.027710,428.864746 213.119659,433.122284 
	C213.357056,444.114563 213.050842,455.118286 213.267990,466.111420 
	C213.355301,470.531281 211.580887,472.060699 207.371872,471.916046 
	C201.712936,471.721558 196.043228,471.795990 190.378555,471.828094 
	C186.577591,471.849670 184.728500,470.546661 184.770798,466.251556 
	C184.962784,446.757965 184.945084,427.260742 184.791138,407.766541 
	C184.757523,403.510101 186.079559,401.728790 190.507385,401.886719 
	C197.496567,402.136047 204.501648,401.940002 212.000000,401.932007 
z"/>
<path fill="#000000" opacity="1.000000" stroke="none" 
	d="
M255.317383,362.685791 
	C262.884644,361.329926 268.664001,367.757263 268.211670,374.228149 
	C267.752167,380.801422 262.154816,385.143097 255.293335,384.350983 
	C250.435852,383.790222 246.546326,379.822021 245.885864,374.753113 
	C245.199295,369.483856 248.701233,364.801605 255.317383,362.685791 
z"/>
<path fill="#000000" opacity="1.000000" stroke="none" 
	d="
M189.322784,210.955948 
	C197.173447,208.760910 202.827011,211.784088 204.617035,218.787430 
	C206.074600,224.490051 202.335205,230.394592 196.267761,231.970947 
	C190.645859,233.431549 184.471024,229.533279 182.999466,223.594482 
	C181.815659,218.816956 183.733124,214.802017 189.322784,210.955948 
z"/>
<path fill="#000000" opacity="1.000000" stroke="none" 
	d="
M340.588684,328.957397 
	C331.435822,329.735138 325.253174,320.488281 329.075989,313.173676 
	C331.366852,308.790314 335.990448,306.147644 340.540710,306.864166 
	C345.369537,307.624573 349.054443,311.128723 350.058105,315.914642 
	C350.973999,320.282166 348.522644,325.268738 344.224609,327.606201 
	C343.212952,328.156311 342.066742,328.459137 340.588684,328.957397 
z"/>
<path fill="#000000" opacity="1.000000" stroke="none" 
	d="
M342.213989,273.964996 
	C349.194336,272.630890 353.707092,274.451813 356.161346,279.311829 
	C358.408997,283.762695 357.391205,289.150208 353.665680,292.521912 
	C348.967224,296.774139 341.585999,296.213409 337.691650,291.308411 
	C333.089203,285.511536 334.753204,278.646576 342.213989,273.964996 
z"/>
<path fill="#000000" opacity="1.000000" stroke="none" 
	d="
M167.250519,325.748596 
	C163.570389,321.310211 162.699631,316.828674 165.754868,312.152863 
	C168.311279,308.240479 171.967133,306.086182 176.779907,306.948975 
	C181.675781,307.826691 184.864380,310.830292 185.934875,315.694244 
	C186.974533,320.418060 185.135803,324.228455 181.276260,326.941742 
	C176.519409,330.285889 171.892685,329.507874 167.250519,325.748596 
z"/>
<path fill="#000000" opacity="1.000000" stroke="none" 
	d="
M158.941772,290.844055 
	C155.971100,286.096375 155.855255,281.753876 159.160629,277.543884 
	C162.316467,273.524384 166.493790,272.527618 171.229797,273.802673 
	C175.737518,275.016235 178.163086,278.311493 178.873627,282.753418 
	C179.681366,287.803009 177.247025,291.450348 173.092392,293.965118 
	C168.529419,296.727020 164.042679,295.736481 158.941772,290.844055 
z"/>
<path fill="#000000" opacity="1.000000" stroke="none" 
	d="
M341.487091,239.874512 
	C348.533264,242.855988 351.500519,247.936981 349.808289,253.503204 
	C348.120758,259.053864 343.110413,262.388275 337.672516,261.579712 
	C331.596619,260.676270 327.266235,255.431747 327.919647,249.768066 
	C328.658447,243.364304 333.651123,239.581543 341.487091,239.874512 
z"/>
<path fill="#000000" opacity="1.000000" stroke="none" 
	d="
M172.756256,261.403992 
	C166.427567,259.190308 163.173767,254.595520 163.948853,249.450012 
	C164.749832,244.132614 169.288437,239.896286 174.412125,239.683578 
	C179.991760,239.451950 184.309479,242.750580 185.938385,248.105835 
	C187.899094,254.551910 181.100754,263.560394 172.756256,261.403992 
z"/>
<path fill="#000000" opacity="1.000000" stroke="none" 
	d="
M331.246521,219.345108 
	C331.170349,226.601944 327.338135,231.481659 321.529114,232.190231 
	C316.038025,232.860031 311.014130,229.328857 309.589600,223.798218 
	C308.156921,218.235855 311.085175,212.804886 316.694702,210.620590 
	C322.731628,208.269882 328.457031,211.548157 331.246521,219.345108 
z"/>
<path fill="#000000" opacity="1.000000" stroke="none" 
	d="
M267.338074,191.081207 
	C269.193756,198.223312 266.002869,204.207230 259.731903,205.934784 
	C254.396683,207.404556 248.162323,203.766724 246.422272,198.168427 
	C244.636185,192.422058 247.961639,186.416367 254.019730,184.447540 
	C258.961548,182.841507 263.910004,185.183029 267.338074,191.081207 
z"/>
<path fill="#000000" opacity="1.000000" stroke="none" 
	d="
M294.184570,376.857971 
	C286.852325,377.683868 282.730743,375.773254 280.489563,370.839569 
	C278.545593,366.560089 279.700439,361.207947 283.278534,358.088928 
	C286.748718,355.063995 290.754425,354.499237 294.926971,356.106934 
	C299.224823,357.763000 301.391510,361.200500 301.626587,365.749298 
	C301.900024,371.040619 299.207977,374.525299 294.184570,376.857971 
z"/>
<path fill="#000000" opacity="1.000000" stroke="none" 
	d="
M291.681976,191.420044 
	C299.081390,193.014938 302.506378,197.660156 301.470306,204.247009 
	C300.585754,209.870331 295.544006,213.720490 289.626282,213.291718 
	C283.933380,212.879257 279.654327,208.129807 279.672821,202.244110 
	C279.693024,195.812393 283.863586,191.907425 291.681976,191.420044 
z"/>
<path fill="#000000" opacity="1.000000" stroke="none" 
	d="
M320.902039,336.656982 
	C328.185913,337.964417 332.076752,342.839600 331.275635,349.133301 
	C330.576324,354.627167 325.450653,358.700836 319.584656,358.424774 
	C313.665192,358.146210 308.961853,353.183655 309.050446,347.310028 
	C309.141479,341.277161 313.548737,337.161804 320.902039,336.656982 
z"/>
<path fill="#000000" opacity="1.000000" stroke="none" 
	d="
M213.026978,362.752563 
	C216.580917,356.377197 220.068558,354.459473 225.507828,355.552032 
	C230.439682,356.542755 233.496628,359.470490 234.270676,364.445679 
	C235.083527,369.670380 232.711319,374.161743 228.103485,376.332367 
	C224.356064,378.097717 220.718384,377.655273 217.248032,375.411682 
	C212.633560,372.428467 212.147079,368.011353 213.026978,362.752563 
z"/>
<path fill="#000000" opacity="1.000000" stroke="none" 
	d="
M212.855576,205.429810 
	C210.915482,195.765305 218.959625,190.027832 225.255615,191.514481 
	C230.330826,192.712830 233.817245,195.858490 234.318024,200.666351 
	C234.881424,206.075623 232.247833,210.662659 227.447006,212.633957 
	C223.283264,214.343674 217.751236,212.928772 214.872696,209.291183 
	C214.065109,208.270660 213.577850,206.996643 212.855576,205.429810 
z"/>
<path fill="#000000" opacity="1.000000" stroke="none" 
	d="
M183.434418,351.081024 
	C182.148010,344.179901 184.828995,338.861237 190.170837,337.032990 
	C195.457214,335.223755 201.777466,337.938934 203.981934,342.966248 
	C206.214066,348.056641 204.422104,353.829407 199.675125,356.840546 
	C193.925079,360.487976 187.283112,358.265503 183.434418,351.081024 
z"/>
</svg>