<svg version="1.1" id="Layer_1" xmlns="http://www.w3.org/2000/svg" xmlns:xlink="http://www.w3.org/1999/xlink" x="0px" y="0px"
	 width="100%" viewBox="0 0 512 512" enable-background="new 0 0 512 512" xml:space="preserve">
<path fill="#000000" opacity="1.000000" stroke="none" 
	d="
M256.977203,407.115234 
	C258.788055,407.112793 260.128326,407.199738 261.453094,407.093719 
	C265.678619,406.755493 267.195374,408.550079 267.418457,412.873016 
	C268.239502,428.784637 281.288544,437.586090 296.052185,432.356140 
	C305.009247,429.183136 308.933197,422.013397 309.534454,413.130920 
	C309.850403,408.463104 311.423859,407.042358 315.912384,407.408325 
	C319.704712,407.717468 323.566681,407.339691 327.386932,407.095917 
	C331.876038,406.809448 333.692627,408.555389 333.280548,413.230316 
	C330.452850,445.308136 308.467255,457.780304 280.729095,454.804901 
	C271.313812,453.794952 263.193085,449.841675 256.701508,442.465363 
	C243.524139,455.521698 228.012054,457.439423 211.111908,453.565735 
	C194.608047,449.782928 185.731064,438.747040 181.776962,422.969727 
	C180.800308,419.072723 180.714020,415.077850 180.437714,411.093567 
	C180.254852,408.457092 181.181473,407.449951 183.777100,407.480530 
	C189.274597,407.545349 194.774048,407.494659 200.272095,407.435486 
	C202.350388,407.413116 203.249023,408.314178 203.355164,410.406982 
	C203.455292,412.382172 203.773529,414.364380 204.187332,416.302612 
	C206.710663,428.122040 213.208038,433.676483 224.411713,433.672211 
	C235.311951,433.667999 242.801117,427.297638 245.294739,415.908752 
	C247.216385,407.132263 247.216370,407.132263 256.977203,407.115234 
z"/>
<path fill="#000000" opacity="1.000000" stroke="none" 
	d="
M330.253998,324.572571 
	C326.391571,317.217529 328.317108,310.553711 334.824463,307.650208 
	C340.619049,305.064758 347.480103,308.227661 349.647064,314.483215 
	C351.222321,319.030731 349.334869,324.348236 345.179474,327.069733 
	C340.171021,330.349915 335.673157,329.680084 330.253998,324.572571 
z"/>
<path fill="#000000" opacity="1.000000" stroke="none" 
	d="
M343.729919,273.546051 
	C352.330688,273.042206 357.531189,277.448578 357.324280,284.663300 
	C357.137756,291.168152 351.480804,295.983521 344.853546,295.278870 
	C339.943726,294.756836 336.184753,291.022064 335.322021,285.808716 
	C334.457489,280.584473 337.277008,276.309509 343.729919,273.546051 
z"/>
<path fill="#000000" opacity="1.000000" stroke="none" 
	d="
M191.575104,210.220322 
	C198.842896,210.045685 202.587601,212.349731 204.336121,217.719635 
	C205.848511,222.364456 204.293289,227.288467 200.385651,229.999512 
	C196.495651,232.698318 192.408997,233.124146 188.260605,230.654846 
	C184.353394,228.329086 182.384720,224.752777 182.792496,220.261780 
	C183.257965,215.135605 186.231796,211.815918 191.575104,210.220322 
z"/>
<path fill="#000000" opacity="1.000000" stroke="none" 
	d="
M314.186829,211.977936 
	C320.833527,208.696915 326.992645,210.264328 329.996399,215.700104 
	C332.777435,220.732819 331.250854,226.887329 326.385132,230.259216 
	C321.644501,233.544418 315.064941,232.566132 311.603333,228.061417 
	C307.600006,222.851761 308.394562,217.285767 314.186829,211.977936 
z"/>
<path fill="#000000" opacity="1.000000" stroke="none" 
	d="
M164.260193,253.320999 
	C163.681412,246.660629 166.298981,242.099197 171.448303,240.195358 
	C175.785080,238.591965 181.195206,240.218140 183.937729,244.060089 
	C186.574783,247.754379 187.153809,251.693314 184.849686,255.777451 
	C182.622360,259.725464 179.208939,261.999329 174.654770,261.733765 
	C169.531738,261.434998 165.913147,258.801483 164.260193,253.320999 
z"/>
<path fill="#000000" opacity="1.000000" stroke="none" 
	d="
M348.881775,245.494598 
	C351.514557,253.118011 348.584076,259.543152 341.994843,261.362946 
	C335.824036,263.067169 329.816620,259.472870 328.214508,253.117996 
	C327.010376,248.341721 329.604370,243.134354 334.395172,240.710541 
	C339.403656,238.176590 344.480591,239.750778 348.881775,245.494598 
z"/>
<path fill="#000000" opacity="1.000000" stroke="none" 
	d="
M158.490143,290.190918 
	C155.800323,285.236237 156.142426,280.890076 159.662506,276.931641 
	C162.751572,273.457916 166.670578,272.632599 171.029953,273.755280 
	C175.559998,274.921875 177.936935,278.121399 178.854340,282.549774 
	C179.785965,287.046783 177.002899,292.126770 172.406570,294.364044 
	C167.706741,296.651672 163.135605,295.368927 158.490143,290.190918 
z"/>
<path fill="#000000" opacity="1.000000" stroke="none" 
	d="
M173.436584,328.902740 
	C165.071472,325.929718 161.756821,319.453857 165.206467,313.037781 
	C167.510376,308.752686 171.189270,306.323792 176.239227,306.845551 
	C181.405518,307.379303 185.605698,311.462494 186.122055,316.606689 
	C186.619431,321.561676 184.413361,325.312439 180.060272,327.697723 
	C178.149017,328.745026 176.073380,329.381958 173.436584,328.902740 
z"/>
<path fill="#000000" opacity="1.000000" stroke="none" 
	d="
M260.363708,362.904236 
	C266.569336,366.093719 269.170288,370.690491 267.986389,375.759369 
	C266.757690,381.020111 262.604584,384.353119 257.219482,384.400055 
	C250.830460,384.455750 245.907227,379.830536 245.802399,373.674103 
	C245.701340,367.738922 250.750031,362.735474 256.967224,362.642120 
	C257.963318,362.627167 258.961487,362.747437 260.363708,362.904236 
z"/>
<path fill="#000000" opacity="1.000000" stroke="none" 
	d="
M252.395935,205.051361 
	C246.579102,201.165054 244.710480,196.795914 246.472000,191.879929 
	C248.142670,187.217514 252.602509,183.811310 256.903595,183.912811 
	C262.302277,184.040222 266.834900,187.756424 268.015808,193.023499 
	C269.891205,201.388046 261.680664,207.949600 252.395935,205.051361 
z"/>
<path fill="#000000" opacity="1.000000" stroke="none" 
	d="
M301.171234,205.879715 
	C297.577972,212.036743 293.893188,214.191040 288.589233,213.171707 
	C283.904694,212.271423 280.845337,209.308334 279.843903,204.671494 
	C278.439941,198.170990 282.961182,192.039322 289.368713,191.369049 
	C296.167206,190.657867 301.335419,195.124283 301.641418,202.054855 
	C301.691895,203.198578 301.402771,204.357285 301.171234,205.879715 
z"/>
<path fill="#000000" opacity="1.000000" stroke="none" 
	d="
M294.935364,376.526489 
	C287.641144,378.050659 283.151215,376.257202 280.622711,371.135468 
	C278.570404,366.978302 279.596558,361.500580 283.028778,358.291565 
	C287.801361,353.829376 295.497589,354.376221 299.391602,359.454285 
	C303.693268,365.063843 302.020142,371.966980 294.935364,376.526489 
z"/>
<path fill="#000000" opacity="1.000000" stroke="none" 
	d="
M312.546509,355.483887 
	C308.242981,349.753296 308.005798,345.141083 311.526428,340.653564 
	C314.465759,336.906982 320.052887,335.494659 324.636261,337.339600 
	C328.950195,339.076111 331.686920,343.648712 331.302826,348.564484 
	C330.657257,356.827026 320.220184,362.119751 312.546509,355.483887 
z"/>
<path fill="#000000" opacity="1.000000" stroke="none" 
	d="
M227.585785,356.063721 
	C234.513748,360.150360 236.428345,366.425598 232.798386,372.129578 
	C229.217712,377.756073 222.221283,379.056458 216.749603,375.112366 
	C212.860794,372.309296 211.389297,366.807526 213.277634,362.131226 
	C215.483307,356.669128 220.217407,354.558228 227.585785,356.063721 
z"/>
<path fill="#000000" opacity="1.000000" stroke="none" 
	d="
M234.127563,205.391357 
	C232.227707,209.817551 229.464676,212.723053 224.869675,213.254257 
	C218.507263,213.989761 213.119766,209.712814 212.660629,203.676849 
	C212.150040,196.964233 216.518417,191.508591 222.633698,191.221497 
	C229.218887,190.912369 234.156296,195.447891 234.343933,202.009171 
	C234.372269,203.000076 234.266754,203.994812 234.127563,205.391357 
z"/>
<path fill="#000000" opacity="1.000000" stroke="none" 
	d="
M200.161194,356.507355 
	C194.758377,360.387695 186.565872,357.903687 183.999634,352.564148 
	C181.313217,346.974609 183.272079,340.635834 188.837784,337.696960 
	C193.321091,335.329681 199.606339,336.747406 202.728867,340.830292 
	C206.519745,345.787079 205.771561,350.928284 200.161194,356.507355 
z"/>
</svg>