<svg version="1.1" id="Layer_1" xmlns="http://www.w3.org/2000/svg" xmlns:xlink="http://www.w3.org/1999/xlink" x="0px" y="0px"
	 width="100%" viewBox="0 0 512 512" enable-background="new 0 0 512 512" xml:space="preserve">
<path fill="#000000" opacity="1.000000" stroke="none" 
	d="
M222.015137,403.916016 
	C234.585114,413.036682 245.625687,423.360992 256.451324,434.525818 
	C261.945282,429.500183 267.186218,424.704407 272.428925,419.910675 
	C279.438843,413.501160 286.927856,407.697174 294.533905,402.012939 
	C297.944336,399.464233 301.418884,398.374420 305.613373,398.592987 
	C310.261688,398.835297 314.937225,398.525146 319.590973,398.708099 
	C321.703003,398.791077 324.575012,397.492218 325.603729,400.653137 
	C326.535248,403.515564 325.138397,405.702209 323.127075,407.753479 
	C316.603058,414.407074 310.114044,421.098846 303.760315,427.914612 
	C294.107361,438.269653 284.773010,448.899384 277.454590,461.105621 
	C276.114166,463.341309 274.385620,464.308929 271.752136,464.281952 
	C261.931976,464.181274 252.110031,464.198578 242.289215,464.253571 
	C239.943054,464.266724 238.104782,463.662323 236.789001,461.584717 
	C224.323410,441.901550 207.937912,425.490692 192.354233,408.410004 
	C191.349777,407.309052 190.210236,406.238892 189.538803,404.944214 
	C187.664948,401.330902 189.169174,398.754974 193.211212,398.686615 
	C199.368423,398.582489 205.530045,398.739532 211.687302,398.636597 
	C215.985275,398.564728 218.447739,401.884125 222.015137,403.916016 
z"/>
<path fill="#000000" opacity="1.000000" stroke="none" 
	d="
M183.230133,217.789047 
	C185.383820,212.686661 188.928772,209.794373 194.068878,210.019180 
	C198.575241,210.216263 202.292633,212.320511 204.118484,216.901642 
	C205.917480,221.415390 205.054291,225.499878 201.756638,228.790268 
	C198.508362,232.031357 194.473511,233.293427 189.915817,231.451492 
	C185.481857,229.659592 183.150024,226.301315 182.758423,221.604279 
	C182.664291,220.475067 182.962372,219.313156 183.230133,217.789047 
z"/>
<path fill="#000000" opacity="1.000000" stroke="none" 
	d="
M171.749344,273.913086 
	C178.230087,277.560547 180.462265,282.556091 178.321823,287.916565 
	C176.112274,293.450104 170.620468,296.443726 165.182220,295.079041 
	C159.891739,293.751434 156.250702,288.594452 156.749893,283.135925 
	C157.370789,276.346802 163.279877,272.574188 171.749344,273.913086 
z"/>
<path fill="#000000" opacity="1.000000" stroke="none" 
	d="
M329.827148,323.934387 
	C326.413971,316.410522 328.903564,309.697357 335.667816,307.315826 
	C341.466248,305.274323 347.911774,308.789459 349.777039,315.010406 
	C351.164734,319.638428 349.003235,324.823364 344.613953,327.395935 
	C339.441681,330.427307 334.846741,329.442322 329.827148,323.934387 
z"/>
<path fill="#000000" opacity="1.000000" stroke="none" 
	d="
M310.453491,226.248138 
	C305.813293,217.094955 314.877045,208.904724 321.368286,209.993195 
	C326.808777,210.905487 330.725067,214.639816 331.285889,219.728424 
	C331.852264,224.866943 328.903625,229.599426 323.938782,231.520309 
	C319.098877,233.392838 314.397278,231.649078 310.453491,226.248138 
z"/>
<path fill="#000000" opacity="1.000000" stroke="none" 
	d="
M177.334030,261.487793 
	C170.211624,261.736969 166.601456,259.656433 164.646332,254.489014 
	C162.811493,249.639511 164.324951,245.623917 167.949951,242.342163 
	C171.594177,239.043030 176.777039,238.678970 180.937759,241.299316 
	C184.621658,243.619354 186.583237,247.129395 186.163925,251.411972 
	C185.666412,256.492889 182.750214,259.953583 177.334030,261.487793 
z"/>
<path fill="#000000" opacity="1.000000" stroke="none" 
	d="
M348.035706,244.158249 
	C351.113312,248.932266 350.966370,253.333817 347.715851,257.452637 
	C344.917236,260.998871 341.260071,262.416809 336.670898,261.421265 
	C332.063354,260.421814 329.450714,257.539246 328.258514,253.192612 
	C326.998474,248.598572 329.380432,243.524826 333.877472,240.972061 
	C338.434021,238.385513 343.129242,239.350998 348.035706,244.158249 
z"/>
<path fill="#000000" opacity="1.000000" stroke="none" 
	d="
M337.636536,291.243469 
	C333.576385,283.732819 335.356537,276.973114 341.830292,274.119049 
	C347.546112,271.599152 354.372589,274.499939 356.639191,280.411804 
	C358.474213,285.198059 356.698669,290.585541 352.312164,293.541138 
	C347.730835,296.628052 342.958374,295.971100 337.636536,291.243469 
z"/>
<path fill="#000000" opacity="1.000000" stroke="none" 
	d="
M181.592438,326.754425 
	C174.973846,331.651550 167.382065,327.525787 165.139496,322.804901 
	C162.520447,317.291534 164.614502,310.967499 170.272614,307.981415 
	C174.718964,305.634766 180.576279,306.934875 183.751846,310.973206 
	C187.625534,315.899323 187.006485,321.123932 181.592438,326.754425 
z"/>
<path fill="#000000" opacity="1.000000" stroke="none" 
	d="
M260.362366,362.908142 
	C266.611298,366.123657 269.181244,370.663574 267.981476,375.752136 
	C266.745728,380.993225 262.570190,384.344116 257.218140,384.389740 
	C250.844009,384.444061 245.908707,379.808380 245.804001,373.668549 
	C245.703079,367.750305 250.766602,362.735779 256.968140,362.645111 
	C257.963623,362.630524 258.961060,362.750641 260.362366,362.908142 
z"/>
<path fill="#000000" opacity="1.000000" stroke="none" 
	d="
M252.398285,205.046936 
	C246.583740,201.148544 244.718765,196.786819 246.477173,191.878159 
	C248.217361,187.020386 252.956207,183.583206 257.405762,183.951447 
	C262.773163,184.395645 266.863403,187.895203 268.013336,193.027084 
	C269.886444,201.386414 261.681763,207.940964 252.398285,205.046936 
z"/>
<path fill="#000000" opacity="1.000000" stroke="none" 
	d="
M301.168518,205.878876 
	C297.582123,212.026764 293.880829,214.190353 288.590027,213.170410 
	C283.907501,212.267761 280.852234,209.302963 279.845856,204.670532 
	C278.437531,198.187881 282.970978,192.038940 289.369934,191.370773 
	C296.169189,190.660812 301.328705,195.122223 301.634583,202.054962 
	C301.685028,203.198502 301.398804,204.356903 301.168518,205.878876 
z"/>
<path fill="#000000" opacity="1.000000" stroke="none" 
	d="
M298.262329,374.370361 
	C291.124939,378.960236 284.781128,377.969757 281.109100,372.000397 
	C277.822449,366.657623 279.814972,359.634155 285.486816,356.569489 
	C289.754761,354.263367 295.579041,355.188507 298.791199,358.682861 
	C302.620972,362.849060 302.533020,368.449432 298.262329,374.370361 
z"/>
<path fill="#000000" opacity="1.000000" stroke="none" 
	d="
M312.550171,355.479828 
	C308.245972,349.748810 308.009033,345.143921 311.529510,340.652435 
	C314.470062,336.900818 320.045013,335.491547 324.635895,337.339355 
	C328.947723,339.074829 331.700623,343.656769 331.300934,348.563080 
	C330.613342,357.003571 320.034760,362.047272 312.550171,355.479828 
z"/>
<path fill="#000000" opacity="1.000000" stroke="none" 
	d="
M227.582886,356.070038 
	C234.517288,360.150116 236.429535,366.414154 232.793396,372.122284 
	C229.206985,377.752350 222.222214,379.051636 216.755539,375.105591 
	C212.711197,372.186249 211.323242,366.438110 213.516617,361.691956 
	C215.957184,356.410980 220.319748,354.573059 227.582886,356.070038 
z"/>
<path fill="#000000" opacity="1.000000" stroke="none" 
	d="
M234.123047,205.389099 
	C230.468872,212.187622 225.930313,214.587372 220.432922,212.979355 
	C214.678131,211.296051 211.556381,205.885162 212.780167,199.714951 
	C213.792068,194.613037 218.828339,190.921951 224.111664,191.410065 
	C230.391724,191.990265 234.173218,195.893066 234.343933,202.010269 
	C234.371567,203.000275 234.264801,203.994049 234.123047,205.389099 
z"/>
<path fill="#000000" opacity="1.000000" stroke="none" 
	d="
M200.156494,356.499878 
	C193.154984,359.865051 186.932449,358.215973 184.033966,352.547333 
	C181.209518,347.023499 183.274582,340.642273 188.837952,337.702759 
	C193.325623,335.331604 199.582458,336.743195 202.718231,340.834259 
	C206.511658,345.783295 205.765884,350.920929 200.156494,356.499878 
z"/>
</svg>