<svg version="1.1" id="Layer_1" xmlns="http://www.w3.org/2000/svg" xmlns:xlink="http://www.w3.org/1999/xlink" x="0px" y="0px"
	 width="100%" viewBox="0 0 512 512" enable-background="new 0 0 512 512" xml:space="preserve">
<path fill="#000000" opacity="1.000000" stroke="none" 
	d="
M215.997955,448.117004 
	C201.631622,437.861511 195.872711,423.458740 194.078445,406.911224 
	C193.808945,404.425903 194.810059,403.415833 196.977997,403.370758 
	C202.630493,403.253235 208.286194,403.224731 213.939911,403.264069 
	C216.082062,403.278961 216.880142,404.583893 217.431717,406.688843 
	C221.264145,421.314331 227.992523,426.376129 243.073380,427.850281 
	C253.437073,428.863281 263.632538,428.844910 273.811829,426.767578 
	C285.043060,424.475555 292.897949,418.386505 295.512512,406.779755 
	C296.047852,404.403412 297.219757,403.238251 299.517334,403.215759 
	C305.008270,403.161957 310.500122,403.169708 315.991394,403.195923 
	C320.321167,403.216614 319.621216,406.442535 319.231110,408.917053 
	C316.282867,427.617126 307.600494,442.990295 290.030060,450.952240 
	C265.337219,462.141693 240.417282,461.959076 215.997955,448.117004 
z"/>
<path fill="#000000" opacity="1.000000" stroke="none" 
	d="
M340.626404,306.875275 
	C350.771240,310.378082 353.510437,320.206451 346.322510,326.224762 
	C342.716888,329.243713 338.624512,330.071075 334.236206,327.821136 
	C329.962189,325.629761 327.646973,322.012634 327.972412,317.318390 
	C328.309448,312.457153 331.091217,308.934937 335.805359,307.314087 
	C337.173370,306.843719 338.742615,306.958679 340.626404,306.875275 
z"/>
<path fill="#000000" opacity="1.000000" stroke="none" 
	d="
M188.531464,230.830093 
	C182.988235,226.468094 181.421295,221.749405 183.611496,216.845398 
	C185.708450,212.150223 190.598526,209.297516 195.169617,210.102737 
	C201.911118,211.290298 206.265732,217.283295 204.778717,223.327209 
	C203.016663,230.489014 196.505630,233.640366 188.531464,230.830093 
z"/>
<path fill="#000000" opacity="1.000000" stroke="none" 
	d="
M173.405930,293.795776 
	C167.267914,296.337891 162.358978,295.397003 159.164612,291.115112 
	C156.208725,287.152924 155.676392,282.873291 158.376617,278.532562 
	C161.144348,274.083313 166.320419,272.221191 171.458481,273.839264 
	C175.676498,275.167633 178.033951,278.236633 178.825729,282.498474 
	C179.726746,287.348480 177.504974,290.833862 173.405930,293.795776 
z"/>
<path fill="#000000" opacity="1.000000" stroke="none" 
	d="
M330.958588,224.276489 
	C328.572449,229.427078 325.069550,232.525177 319.559601,232.160782 
	C314.853394,231.849533 311.433777,229.379501 309.833466,224.785202 
	C308.311676,220.416397 309.272766,216.501266 312.515533,213.319107 
	C315.887115,210.010529 319.925964,208.941360 324.441681,210.837082 
	C328.664154,212.609711 330.997009,215.822052 331.294403,220.409668 
	C331.368958,221.560165 331.168152,222.728546 330.958588,224.276489 
z"/>
<path fill="#000000" opacity="1.000000" stroke="none" 
	d="
M176.576752,261.658173 
	C166.961166,262.703674 161.130753,252.853226 165.273132,245.564072 
	C167.757080,241.193115 172.640060,238.833939 177.519073,239.883804 
	C182.260742,240.904129 186.005508,245.322464 186.259521,250.196396 
	C186.526154,255.312393 182.983948,259.643524 176.576752,261.658173 
z"/>
<path fill="#000000" opacity="1.000000" stroke="none" 
	d="
M345.878082,241.893341 
	C350.574921,247.158463 351.447296,251.113831 348.888916,255.669296 
	C346.491425,259.938263 342.903625,262.243500 337.797394,261.614502 
	C332.509827,260.963135 329.349731,257.883728 328.175323,252.848694 
	C327.168671,248.533096 328.850769,244.938293 332.133606,242.210709 
	C336.391693,238.672821 340.961792,238.876236 345.878082,241.893341 
z"/>
<path fill="#000000" opacity="1.000000" stroke="none" 
	d="
M352.572754,275.190735 
	C357.575439,280.014404 358.617737,284.435364 356.148590,289.228668 
	C353.789703,293.807953 349.150299,296.106018 344.081757,295.205872 
	C339.500397,294.392242 335.922363,290.537811 335.284607,285.544678 
	C334.754150,281.391724 336.372040,278.027893 339.611389,275.520172 
	C343.645355,272.397308 347.934662,272.753632 352.572754,275.190735 
z"/>
<path fill="#000000" opacity="1.000000" stroke="none" 
	d="
M185.402603,314.055328 
	C187.130234,321.249664 184.312653,326.539734 178.013214,328.536011 
	C172.694870,330.221375 166.903488,327.267731 164.715881,321.754272 
	C162.580322,316.372009 165.223770,310.295593 170.831573,307.696503 
	C176.161789,305.226044 181.744843,307.535767 185.402603,314.055328 
z"/>
<path fill="#000000" opacity="1.000000" stroke="none" 
	d="
M256.155090,384.375610 
	C249.073456,382.991791 245.044800,378.010132 245.889267,372.188995 
	C246.761658,366.175415 252.069229,362.153809 258.447845,362.673248 
	C263.925293,363.119293 268.229156,367.835419 268.255005,373.419769 
	C268.284058,379.690369 263.726868,383.976654 256.155090,384.375610 
z"/>
<path fill="#000000" opacity="1.000000" stroke="none" 
	d="
M260.042725,184.595795 
	C266.282562,187.386169 269.154144,192.076569 268.030029,197.105774 
	C266.855896,202.358810 261.968506,206.401352 256.980469,206.245209 
	C251.668060,206.078903 247.227448,202.194321 246.038040,196.938736 
	C244.441315,189.883362 252.698639,181.592834 260.042725,184.595795 
z"/>
<path fill="#000000" opacity="1.000000" stroke="none" 
	d="
M279.784363,204.567368 
	C279.676025,196.562515 283.554626,191.653793 289.879303,191.304535 
	C295.320648,191.004044 299.978424,194.197311 301.239136,199.092560 
	C302.699371,204.762558 300.356506,209.911896 295.193634,212.379807 
	C290.376526,214.682449 284.744629,213.142807 281.559174,208.544540 
	C280.817810,207.474365 280.403717,206.177475 279.784363,204.567368 
z"/>
<path fill="#000000" opacity="1.000000" stroke="none" 
	d="
M292.589905,377.229248 
	C286.726837,377.815613 282.653961,375.619385 280.488708,370.672058 
	C278.698090,366.580719 279.263794,362.471924 282.334930,359.044220 
	C285.528503,355.479919 289.609497,354.438507 294.128052,355.831604 
	C298.979462,357.327332 301.331573,360.934143 301.653503,365.890869 
	C301.987183,371.028687 299.168549,374.652435 292.589905,377.229248 
z"/>
<path fill="#000000" opacity="1.000000" stroke="none" 
	d="
M330.787781,351.179321 
	C326.234863,358.684448 319.324188,360.613892 313.536560,356.318634 
	C308.474640,352.561981 307.637421,345.294922 311.703003,340.403503 
	C314.704620,336.792175 320.445068,335.513763 324.904572,337.463531 
	C329.728699,339.572662 331.748474,344.026672 330.787781,351.179321 
z"/>
<path fill="#000000" opacity="1.000000" stroke="none" 
	d="
M219.986343,191.734100 
	C225.352539,190.650238 229.695145,191.793320 232.608688,196.118423 
	C235.112640,199.835464 235.246567,203.953293 232.922333,207.857758 
	C230.495483,211.934616 226.774353,213.906082 222.021835,213.222260 
	C217.356918,212.551025 214.035858,209.930359 212.855835,205.262085 
	C211.401840,199.510040 213.580627,195.404419 219.986343,191.734100 
z"/>
<path fill="#000000" opacity="1.000000" stroke="none" 
	d="
M217.926682,356.714722 
	C223.903366,354.458557 228.767761,355.302002 231.841980,359.055603 
	C234.856369,362.736176 235.307907,366.919800 233.326645,371.167694 
	C231.231476,375.659851 226.682281,378.015503 221.843781,377.228119 
	C217.610626,376.539337 214.283981,374.254547 213.102219,370.048248 
	C211.632156,364.815826 212.842453,360.179016 217.926682,356.714722 
z"/>
<path fill="#000000" opacity="1.000000" stroke="none" 
	d="
M200.791092,356.024567 
	C193.919846,359.976593 187.295364,358.573883 184.166992,352.815643 
	C181.096542,347.164001 183.208374,340.536011 189.013947,337.603607 
	C193.381729,335.397400 199.391052,336.730286 202.539810,340.603760 
	C206.336411,345.274200 205.868576,350.202240 200.791092,356.024567 
z"/>
</svg>