<svg version="1.1" id="Layer_1" xmlns="http://www.w3.org/2000/svg" xmlns:xlink="http://www.w3.org/1999/xlink" x="0px" y="0px"
	 width="100%" viewBox="0 0 512 512" enable-background="new 0 0 512 512" xml:space="preserve">
<path fill="#000000" opacity="1.000000" stroke="none" 
	d="
M276.215515,405.543518 
	C301.266388,410.579254 317.054413,428.277710 319.346161,453.155975 
	C319.772430,457.783020 318.379211,459.504944 313.694458,459.134247 
	C309.387634,458.793427 305.033508,458.993988 300.701447,459.050720 
	C298.162231,459.083954 296.499725,458.096161 296.123230,455.501923 
	C294.143280,441.858826 285.184570,435.810974 272.493591,434.614471 
	C261.559387,433.583557 250.504166,433.052612 239.644516,435.435028 
	C228.788086,437.816711 220.693512,443.497498 218.261963,455.135834 
	C217.699661,457.827271 216.272339,459.141968 213.436172,459.089111 
	C208.438400,458.995911 203.437668,459.066467 198.438202,459.057281 
	C195.152985,459.051270 193.754807,457.963623 194.275360,454.168396 
	C198.085037,426.393768 216.983810,407.979370 245.031097,404.569061 
	C255.386200,403.310028 265.594604,403.312317 276.215515,405.543518 
z"/>
<path fill="#000000" opacity="1.000000" stroke="none" 
	d="
M245.808411,373.912109 
	C246.237518,368.173248 248.820969,364.221283 254.042557,362.919861 
	C258.606293,361.782471 263.032928,362.692963 266.006134,366.898621 
	C268.604523,370.574158 269.087585,374.544312 266.891388,378.601196 
	C264.729462,382.594666 261.384918,384.558990 256.756897,384.467194 
	C252.106186,384.374908 248.903488,382.175446 246.917328,378.123535 
	C246.346024,376.958038 246.178299,375.594757 245.808411,373.912109 
z"/>
<path fill="#000000" opacity="1.000000" stroke="none" 
	d="
M195.485916,210.195892 
	C202.060349,212.228592 205.598587,216.771271 205.059586,222.102829 
	C204.541473,227.227661 199.577148,231.959625 194.413696,232.250397 
	C189.237061,232.541901 184.411270,228.875748 183.015045,223.704620 
	C181.079300,216.535278 187.850555,208.816116 195.485916,210.195892 
z"/>
<path fill="#000000" opacity="1.000000" stroke="none" 
	d="
M336.569702,307.017059 
	C342.312988,306.308624 346.481506,308.156616 349.005066,313.009247 
	C351.260010,317.345428 350.489990,321.533539 347.389343,325.079651 
	C344.616608,328.250732 341.033478,329.825897 336.654633,328.698120 
	C331.986969,327.496033 329.130096,324.455505 328.128082,319.861908 
	C327.184082,315.534332 329.031464,312.023987 332.268219,309.273163 
	C333.378479,308.329590 334.862305,307.825500 336.569702,307.017059 
z"/>
<path fill="#000000" opacity="1.000000" stroke="none" 
	d="
M335.178955,283.251129 
	C337.034485,276.865051 340.457367,273.430725 345.278748,273.303162 
	C350.101837,273.175568 354.068298,274.918213 356.280884,279.554199 
	C358.974152,285.197357 356.356323,292.008942 350.522186,294.557129 
	C344.796600,297.057892 337.943848,294.049133 335.893890,288.032990 
	C335.419281,286.640137 335.365295,285.103943 335.178955,283.251129 
z"/>
<path fill="#000000" opacity="1.000000" stroke="none" 
	d="
M172.666855,328.686646 
	C166.310059,326.077484 163.174927,321.516144 164.008255,316.516571 
	C164.880753,311.282013 169.549942,306.953949 174.550964,306.744110 
	C179.779938,306.524658 184.515244,310.152832 185.904495,315.443115 
	C187.851471,322.857086 181.566544,329.388062 172.666855,328.686646 
z"/>
<path fill="#000000" opacity="1.000000" stroke="none" 
	d="
M163.945587,294.612152 
	C158.010574,291.204071 155.597427,286.339630 157.075150,281.337311 
	C158.533539,276.400421 163.376892,272.972931 168.411850,273.314636 
	C174.114334,273.701630 177.949951,277.182495 178.943954,282.872681 
	C180.282547,290.535492 173.200409,296.302368 163.945587,294.612152 
z"/>
<path fill="#000000" opacity="1.000000" stroke="none" 
	d="
M335.247559,261.105652 
	C329.234558,257.708466 326.956207,253.404343 328.225311,248.428711 
	C329.559143,243.199356 333.896515,239.669907 338.978424,239.678635 
	C344.323334,239.687805 348.472717,243.015198 349.955658,248.161301 
	C351.848022,254.728210 344.947998,264.294342 335.247559,261.105652 
z"/>
<path fill="#000000" opacity="1.000000" stroke="none" 
	d="
M166.569458,243.673981 
	C171.846161,239.244843 176.469513,238.471542 180.901016,241.288666 
	C184.910065,243.837265 186.914536,247.668015 186.048416,252.356400 
	C185.166046,257.132843 182.213943,260.483002 177.258408,261.472565 
	C172.819107,262.359070 168.938461,261.075012 166.216797,257.383392 
	C162.964737,252.972260 163.120682,248.420502 166.569458,243.673981 
z"/>
<path fill="#000000" opacity="1.000000" stroke="none" 
	d="
M310.567383,215.847168 
	C315.126831,210.142349 318.820465,208.760529 324.137421,210.758331 
	C328.853241,212.530304 331.248688,216.069778 331.315186,221.103531 
	C331.377289,225.804031 328.252380,230.057526 323.582458,231.643356 
	C319.383270,233.069351 315.519836,232.079453 312.532288,229.044861 
	C308.946991,225.403137 308.100525,220.967209 310.567383,215.847168 
z"/>
<path fill="#000000" opacity="1.000000" stroke="none" 
	d="
M253.891418,205.617584 
	C246.864090,202.136703 244.406342,197.155319 246.623489,191.506073 
	C248.799301,185.962173 253.963608,183.046127 259.249756,184.376617 
	C265.440521,185.934814 269.199646,191.262985 268.075317,196.885956 
	C266.789764,203.315292 261.289978,206.851639 253.891418,205.617584 
z"/>
<path fill="#000000" opacity="1.000000" stroke="none" 
	d="
M296.338409,375.731964 
	C289.200470,378.778412 283.134918,376.766205 280.462952,370.798096 
	C278.126556,365.579498 280.238251,359.480988 285.367035,356.635468 
	C290.557770,353.755524 297.190552,355.526978 300.174866,360.590302 
	C303.157318,365.650452 301.866119,371.140106 296.338409,375.731964 
z"/>
<path fill="#000000" opacity="1.000000" stroke="none" 
	d="
M291.757874,213.282867 
	C286.039062,213.578644 282.321960,211.084656 280.376923,206.346985 
	C278.759247,202.406723 279.367157,198.483765 282.251312,195.170547 
	C285.414307,191.536957 289.455719,190.622757 294.003235,191.792542 
	C298.588959,192.972137 301.569489,197.100464 301.677246,202.229248 
	C301.791107,207.646973 298.561157,211.398132 291.757874,213.282867 
z"/>
<path fill="#000000" opacity="1.000000" stroke="none" 
	d="
M320.851135,358.429138 
	C313.196869,357.801453 308.545044,353.004272 309.076263,346.688385 
	C309.604156,340.412354 315.017120,336.103760 321.638428,336.689178 
	C327.574738,337.214050 331.720825,342.260742 331.313629,348.466003 
	C330.976471,353.604095 327.238190,357.291443 320.851135,358.429138 
z"/>
<path fill="#000000" opacity="1.000000" stroke="none" 
	d="
M213.718582,361.261597 
	C217.840134,355.643890 221.356049,354.177490 226.624268,355.769196 
	C230.988327,357.087769 233.692184,360.004700 234.293793,364.590454 
	C234.970688,369.750366 233.022720,373.740356 228.403717,376.164612 
	C224.131577,378.406860 219.921661,377.710266 216.322128,374.731689 
	C212.057083,371.202332 211.746078,366.574280 213.718582,361.261597 
z"/>
<path fill="#000000" opacity="1.000000" stroke="none" 
	d="
M229.961197,211.179321 
	C223.428268,214.675552 217.681168,213.594513 214.288498,208.512177 
	C211.048096,203.657959 212.228043,196.965164 216.954407,193.390594 
	C221.293030,190.109283 228.185959,190.908310 231.853882,194.983673 
	C235.125565,198.618759 235.925110,206.768631 229.961197,211.179321 
z"/>
<path fill="#000000" opacity="1.000000" stroke="none" 
	d="
M198.052673,357.700104 
	C190.601685,358.992706 186.178574,357.159241 183.839798,352.148865 
	C181.701477,347.567902 182.865311,342.248322 186.699951,339.076172 
	C191.582184,335.037323 199.382172,336.047516 202.976227,341.184082 
	C206.957718,346.874359 205.225800,353.075653 198.052673,357.700104 
z"/>
</svg>