<svg version="1.1" id="Layer_1" xmlns="http://www.w3.org/2000/svg" xmlns:xlink="http://www.w3.org/1999/xlink" x="0px" y="0px"
	 width="100%" viewBox="0 0 512 512" enable-background="new 0 0 512 512" xml:space="preserve">
<path fill="#000000" opacity="1.000000" stroke="none" 
	d="
M259.999939,443.325500 
	C240.678513,443.324493 221.855576,443.191162 203.036819,443.413788 
	C198.270187,443.470154 196.486404,442.023193 196.747559,437.173126 
	C197.096359,430.695465 196.933380,424.184692 196.831161,417.690643 
	C196.780350,414.462952 198.054718,413.420807 201.307343,413.419067 
	C235.779480,413.400757 270.251495,413.218536 304.723663,413.136627 
	C317.350281,413.106598 317.351410,413.173523 317.348419,425.957886 
	C317.347504,429.955353 317.123810,433.967499 317.394653,437.946198 
	C317.676880,442.092194 316.084625,443.429993 311.966583,443.388794 
	C294.812531,443.217224 277.655731,443.321899 259.999939,443.325500 
z"/>
<path fill="#000000" opacity="1.000000" stroke="none" 
	d="
M347.484497,310.615509 
	C351.002045,315.282959 351.169739,319.786987 348.047363,324.246307 
	C345.582672,327.766296 342.042419,329.574432 337.769440,328.936798 
	C332.955383,328.218353 329.672455,325.372192 328.283386,320.576416 
	C327.033661,316.261658 329.089569,311.231354 333.189087,308.551575 
	C337.655334,305.632080 341.977753,306.176910 347.484497,310.615509 
z"/>
<path fill="#000000" opacity="1.000000" stroke="none" 
	d="
M266.539185,379.252502 
	C262.372772,384.131042 257.949188,385.687653 253.172394,383.929291 
	C248.908875,382.359863 246.391647,379.097626 245.928543,374.638031 
	C245.439804,369.931274 247.534622,366.271179 251.616562,363.870972 
	C255.525162,361.572662 261.243683,362.254486 264.594696,365.302246 
	C268.283417,368.657074 269.002411,373.199615 266.539185,379.252502 
z"/>
<path fill="#000000" opacity="1.000000" stroke="none" 
	d="
M190.743469,231.754196 
	C183.857040,228.414764 181.184937,222.843231 183.457809,217.222946 
	C185.756012,211.540039 191.378983,208.841553 197.170410,210.642197 
	C202.466812,212.288956 205.938217,217.804092 204.903961,222.928833 
	C203.620224,229.289795 198.341110,232.722321 190.743469,231.754196 
z"/>
<path fill="#000000" opacity="1.000000" stroke="none" 
	d="
M169.479050,273.497925 
	C176.411346,275.331055 180.154068,280.561768 178.905396,286.198181 
	C177.606277,292.062317 172.296875,295.943359 166.492599,295.271729 
	C160.706604,294.602173 156.370682,289.361664 156.729431,283.471649 
	C157.103607,277.328705 161.889236,273.443054 169.479050,273.497925 
z"/>
<path fill="#000000" opacity="1.000000" stroke="none" 
	d="
M354.896301,277.281342 
	C358.159912,282.100586 358.263367,286.648468 354.998047,291.033875 
	C352.105835,294.918060 348.022125,296.166382 343.457123,295.026184 
	C338.822662,293.868591 336.085388,290.597961 335.360809,285.881165 
	C334.591248,280.871826 336.731110,277.114746 340.992035,274.615906 
	C345.339020,272.066559 349.713409,272.904114 354.896301,277.281342 
z"/>
<path fill="#000000" opacity="1.000000" stroke="none" 
	d="
M309.471069,218.704590 
	C312.060028,212.523438 316.435120,209.370956 321.163330,209.973602 
	C326.580322,210.664017 330.620361,214.483643 331.265625,219.526535 
	C331.855713,224.138229 329.998932,227.670975 326.321838,230.275848 
	C322.513550,232.973679 318.430359,232.912140 314.552246,230.597870 
	C310.255463,228.033752 308.671265,224.012604 309.471069,218.704590 
z"/>
<path fill="#000000" opacity="1.000000" stroke="none" 
	d="
M178.829544,261.127594 
	C171.962540,262.408691 167.372330,260.434784 165.017975,255.461182 
	C162.957642,251.108704 163.963257,245.968933 167.520599,242.670090 
	C171.250946,239.210800 176.632584,238.549911 180.906464,241.281464 
	C188.967682,246.433563 187.549500,257.423401 178.829544,261.127594 
z"/>
<path fill="#000000" opacity="1.000000" stroke="none" 
	d="
M340.665955,239.756180 
	C348.059509,242.231918 351.480133,247.422241 349.910553,253.194931 
	C348.250000,259.302216 342.630035,262.731781 336.522217,261.365082 
	C331.264740,260.188629 327.485718,255.255844 327.891266,250.098877 
	C328.379608,243.889526 333.180450,239.856232 340.665955,239.756180 
z"/>
<path fill="#000000" opacity="1.000000" stroke="none" 
	d="
M164.477951,314.877930 
	C167.569855,308.524323 171.995865,305.866608 177.133850,306.978699 
	C182.485657,308.137085 186.317047,312.770264 186.252640,318.005768 
	C186.192154,322.921783 182.445282,327.450897 177.362961,328.751465 
	C169.637573,330.728333 163.045181,323.891815 164.477951,314.877930 
z"/>
<path fill="#000000" opacity="1.000000" stroke="none" 
	d="
M290.942780,377.315918 
	C283.320679,376.511261 279.411041,372.310364 279.671112,365.664398 
	C279.892822,359.998962 284.730499,355.272949 290.365906,355.216400 
	C296.537384,355.154449 301.139313,359.379059 301.638367,365.564545 
	C302.128235,371.635986 298.176331,376.154877 290.942780,377.315918 
z"/>
<path fill="#000000" opacity="1.000000" stroke="none" 
	d="
M248.250885,188.425018 
	C252.132462,184.113892 256.423553,182.875671 261.536621,185.059586 
	C265.839691,186.897507 268.039520,190.344925 268.168335,194.804474 
	C268.304932,199.533127 265.852692,203.050369 261.612610,205.180664 
	C257.501343,207.246216 252.158081,206.090240 248.818558,202.519928 
	C245.360031,198.822342 245.106979,194.425949 248.250885,188.425018 
z"/>
<path fill="#000000" opacity="1.000000" stroke="none" 
	d="
M299.714783,208.570786 
	C296.248138,213.044083 291.938019,214.374252 287.076111,212.762192 
	C282.859955,211.364243 280.172974,208.248703 279.702911,203.602997 
	C279.217316,198.803848 281.115570,195.175507 285.230164,192.739914 
	C289.214264,190.381561 294.910950,191.018585 298.247101,194.100647 
	C301.955353,197.526489 302.576843,202.723343 299.714783,208.570786 
z"/>
<path fill="#000000" opacity="1.000000" stroke="none" 
	d="
M329.668396,341.700195 
	C332.249176,346.678345 331.912598,351.025085 328.390259,354.966217 
	C325.274902,358.451965 321.239899,359.252167 316.989532,358.037018 
	C312.653412,356.797394 310.035553,353.659943 309.241180,349.131287 
	C308.428589,344.498718 310.910156,339.819061 315.334320,337.657288 
	C320.301666,335.230103 325.293304,336.539429 329.668396,341.700195 
z"/>
<path fill="#000000" opacity="1.000000" stroke="none" 
	d="
M219.985901,191.732880 
	C225.353943,190.647263 229.697083,191.793777 232.609589,196.119644 
	C235.112167,199.836685 235.246231,203.954681 232.924164,207.862274 
	C230.497421,211.945984 226.771973,213.905746 222.020813,213.224335 
	C217.353867,212.554977 214.032959,209.935028 212.853973,205.263596 
	C211.401459,199.508347 213.579834,195.401306 219.985901,191.732880 
z"/>
<path fill="#000000" opacity="1.000000" stroke="none" 
	d="
M224.561951,355.358398 
	C230.114700,356.269379 233.411224,359.173767 234.255859,364.383636 
	C235.047485,369.266510 233.344620,373.239319 229.018845,375.826721 
	C224.863419,378.312256 220.748489,377.833527 216.864944,375.164551 
	C212.549362,372.198700 211.963150,367.806061 212.934509,363.184387 
	C213.944046,358.381134 218.136032,355.631439 224.561951,355.358398 
z"/>
<path fill="#000000" opacity="1.000000" stroke="none" 
	d="
M200.792633,356.026672 
	C193.921585,359.983978 187.294724,358.577820 184.162872,352.809204 
	C181.091339,347.151703 183.211014,340.520782 189.027481,337.591187 
	C193.316513,335.430878 199.531082,336.795746 202.594528,340.570770 
	C206.330780,345.174866 205.832031,350.254028 200.792633,356.026672 
z"/>
</svg>