<svg version="1.1" id="Layer_1" xmlns="http://www.w3.org/2000/svg" xmlns:xlink="http://www.w3.org/1999/xlink" x="0px" y="0px"
	 width="100%" viewBox="0 0 512 512" enable-background="new 0 0 512 512" xml:space="preserve">
<path fill="#000000" opacity="1.000000" stroke="none" 
	d="
M269.000000,446.252319 
	C236.694687,446.250244 204.888794,446.150146 173.084702,446.346436 
	C168.078964,446.377319 166.204376,444.976562 166.574066,439.858917 
	C166.980927,434.226288 166.754593,428.540802 166.649506,422.881195 
	C166.594131,419.898865 167.822968,418.647064 170.797592,418.724579 
	C174.957748,418.833038 179.122833,418.752655 183.285812,418.753174 
	C235.573074,418.759644 287.860321,418.765381 340.147583,418.773468 
	C347.326752,418.774567 347.332275,418.779968 347.345764,425.864502 
	C347.354980,430.693542 347.080841,435.541412 347.421112,440.346344 
	C347.750031,444.990936 345.962860,446.359467 341.436035,446.327423 
	C317.458374,446.157715 293.478882,446.250275 269.000000,446.252319 
z"/>
<path fill="#000000" opacity="1.000000" stroke="none" 
	d="
M165.051117,322.574127 
	C162.768143,315.196777 165.663773,309.119507 172.052612,307.154602 
	C177.828629,305.378204 184.181091,309.111908 185.878571,315.280975 
	C187.474487,321.080933 183.526764,327.265167 177.250198,328.797668 
	C172.786072,329.887634 168.608261,327.848175 165.051117,322.574127 
z"/>
<path fill="#000000" opacity="1.000000" stroke="none" 
	d="
M328.693146,314.124573 
	C332.180054,308.228943 336.022888,306.035553 340.806641,306.905640 
	C346.933075,308.019928 351.157379,313.749298 350.112122,319.526611 
	C348.994080,325.706299 342.724365,330.156403 337.017487,328.820862 
	C330.242615,327.235474 326.918182,321.597504 328.693146,314.124573 
z"/>
<path fill="#000000" opacity="1.000000" stroke="none" 
	d="
M253.653839,362.922546 
	C263.752197,362.265900 269.879425,368.007355 267.965454,375.845856 
	C266.735229,380.884277 262.759430,384.197968 257.718903,384.386139 
	C252.223114,384.591217 248.324402,382.075500 246.534500,377.169098 
	C244.818497,372.465271 246.381271,367.606171 250.665863,364.496490 
	C251.462357,363.918365 252.386642,363.516357 253.653839,362.922546 
z"/>
<path fill="#000000" opacity="1.000000" stroke="none" 
	d="
M190.056641,210.689087 
	C197.707245,208.956924 203.064499,212.136078 204.714462,219.056168 
	C206.048889,224.652878 202.006088,230.686066 195.999695,232.061447 
	C190.535110,233.312759 184.572571,229.511307 183.045227,223.802246 
	C181.676666,218.686676 183.920929,214.286896 190.056641,210.689087 
z"/>
<path fill="#000000" opacity="1.000000" stroke="none" 
	d="
M165.640182,273.515503 
	C174.263474,273.368958 179.480026,277.895294 179.133057,284.820831 
	C178.829315,290.883575 173.091949,295.796936 166.896164,295.300262 
	C161.826126,294.893829 157.581894,290.921234 156.807205,285.857056 
	C155.957367,280.301605 158.903061,276.028687 165.640182,273.515503 
z"/>
<path fill="#000000" opacity="1.000000" stroke="none" 
	d="
M335.711090,280.983643 
	C339.112610,274.641632 342.754730,272.532135 348.069061,273.502045 
	C353.159119,274.430969 356.679443,277.887726 357.250732,282.701080 
	C357.815002,287.455292 356.015045,291.230286 351.978210,293.752167 
	C348.080811,296.186951 343.959778,296.090149 340.210693,293.542908 
	C335.942963,290.643250 334.335785,286.481995 335.711090,280.983643 
z"/>
<path fill="#000000" opacity="1.000000" stroke="none" 
	d="
M316.093140,231.360443 
	C309.939423,227.769608 307.757568,222.462372 309.908325,217.114517 
	C311.968628,211.991562 317.593292,209.038544 322.756439,210.369049 
	C328.598328,211.874481 331.881256,216.667572 331.309418,222.544754 
	C330.766479,228.125031 323.329041,234.664291 316.093140,231.360443 
z"/>
<path fill="#000000" opacity="1.000000" stroke="none" 
	d="
M172.756454,261.407898 
	C166.477417,259.222534 163.213989,254.671539 163.921829,249.562775 
	C164.649155,244.313477 169.147018,239.988098 174.188919,239.689392 
	C179.911667,239.350342 184.433243,242.754868 185.984756,248.262680 
	C187.807449,254.733200 181.025742,263.545624 172.756454,261.407898 
z"/>
<path fill="#000000" opacity="1.000000" stroke="none" 
	d="
M327.909302,251.770203 
	C328.675812,244.936066 331.637207,240.988510 336.499542,239.854324 
	C341.111908,238.778442 346.144104,240.907379 348.577789,244.964218 
	C351.852509,250.423050 349.971313,257.220306 344.297821,260.429138 
	C339.031097,263.407898 332.130829,261.377472 329.275574,255.928711 
	C328.665894,254.765198 328.388641,253.427460 327.909302,251.770203 
z"/>
<path fill="#000000" opacity="1.000000" stroke="none" 
	d="
M290.942902,377.314697 
	C284.138977,376.591400 280.178986,373.054382 279.700073,367.655762 
	C279.220978,362.255249 282.085938,357.590546 286.942261,355.863922 
	C291.807098,354.134247 297.358795,356.047363 300.044556,360.378937 
	C304.484558,367.539734 300.253693,375.793671 290.942902,377.314697 
z"/>
<path fill="#000000" opacity="1.000000" stroke="none" 
	d="
M266.334320,188.940109 
	C270.780212,195.611359 266.668365,203.675262 260.226288,205.775040 
	C254.385147,207.678955 247.685745,203.695602 246.153717,197.367661 
	C245.047958,192.800446 247.489120,187.713409 251.938690,185.312622 
	C256.742462,182.720703 261.300293,183.780228 266.334320,188.940109 
z"/>
<path fill="#000000" opacity="1.000000" stroke="none" 
	d="
M283.780701,193.686600 
	C289.436493,190.506378 294.839172,190.714951 298.339264,194.218689 
	C301.878540,197.761703 302.546387,202.106842 300.835327,206.656296 
	C299.117676,211.223267 294.166229,213.874817 289.114960,213.251328 
	C284.725372,212.709488 281.687439,210.139343 280.271393,206.129898 
	C278.641327,201.514496 279.697021,197.278214 283.780701,193.686600 
z"/>
<path fill="#000000" opacity="1.000000" stroke="none" 
	d="
M312.564484,339.436310 
	C318.612427,335.686249 324.171753,335.794525 327.983459,339.466797 
	C331.510406,342.864746 332.384888,348.677582 329.987061,352.785156 
	C326.592133,358.600861 319.535492,360.315979 314.025787,356.664581 
	C308.398499,352.935242 307.699371,346.157257 312.564484,339.436310 
z"/>
<path fill="#000000" opacity="1.000000" stroke="none" 
	d="
M212.635696,202.923187 
	C213.098465,196.211533 216.126495,192.370926 221.343567,191.438675 
	C226.454453,190.525421 231.575745,193.203903 233.580307,197.838623 
	C235.528366,202.342728 234.200241,207.812943 230.412567,210.885971 
	C226.381805,214.156219 220.856934,214.234589 216.616394,211.000595 
	C214.115479,209.093277 212.667374,206.576492 212.635696,202.923187 
z"/>
<path fill="#000000" opacity="1.000000" stroke="none" 
	d="
M187.676315,356.659424 
	C182.582092,351.823029 181.526535,347.583008 183.931595,342.701752 
	C186.183899,338.130463 190.645111,335.910797 195.925247,336.734344 
	C200.599380,337.463379 204.133957,341.083984 204.901352,346.128296 
	C205.537018,350.306580 203.767838,353.624725 200.599274,356.128265 
	C196.649673,359.248840 192.352448,359.110962 187.676315,356.659424 
z"/>
<path fill="#000000" opacity="1.000000" stroke="none" 
	d="
M234.340668,365.211304 
	C234.090790,372.010864 230.835373,376.311249 225.590744,377.213043 
	C220.274643,378.127106 214.830093,375.123291 213.130096,370.338318 
	C211.329102,365.269073 213.234756,359.698395 217.758118,356.809448 
	C224.296677,352.633545 232.197357,356.438293 234.340668,365.211304 
z"/>
</svg>