<svg version="1.1" id="Layer_1" xmlns="http://www.w3.org/2000/svg" xmlns:xlink="http://www.w3.org/1999/xlink" x="0px" y="0px"
	 width="100%" viewBox="0 0 512 512" enable-background="new 0 0 512 512" xml:space="preserve">
<path fill="#000000" opacity="1.000000" stroke="none" 
	d="
M373.835846,273.022827 
	C381.066437,276.884247 387.949463,280.603210 394.854858,284.280121 
	C397.799225,285.847931 400.879059,287.053558 404.139465,287.863403 
	C413.686584,290.234772 421.302856,287.056610 425.958282,278.390930 
	C427.365387,275.771637 428.526093,272.946960 429.303558,270.081726 
	C430.186401,266.828186 431.789001,265.356873 435.281616,265.603210 
	C440.695312,265.984985 446.177856,265.214569 451.852539,266.107086 
	C450.765137,280.651764 446.991425,293.782104 437.852264,304.771545 
	C427.470947,317.254639 410.880707,321.385986 394.718750,316.069336 
	C384.840454,312.819794 376.058441,307.325897 366.987701,302.426483 
	C362.440857,299.970612 357.830780,297.637024 352.781219,296.397705 
	C341.348572,293.591705 332.769440,298.111084 328.564545,309.135620 
	C327.795197,311.152740 327.141754,313.229889 326.637573,315.328064 
	C326.087463,317.617249 324.755646,318.789795 322.444214,318.789734 
	C317.452423,318.789642 312.458557,318.812042 307.469849,318.671967 
	C305.558441,318.618317 303.731720,318.072662 304.092621,315.445282 
	C305.928925,302.075531 309.345642,289.251190 318.616364,278.928558 
	C330.659760,265.518555 349.056976,262.155182 366.679626,269.762878 
	C368.971283,270.752197 371.225677,271.827789 373.835846,273.022827 
z"/>
<path fill="#000000" opacity="1.000000" stroke="none" 
	d="
M349.046722,322.603729 
	C346.269043,327.392548 342.482697,329.699677 337.301147,328.835663 
	C332.270691,327.996887 328.656189,324.149567 327.900513,319.147369 
	C327.158112,314.233093 329.648193,310.836548 333.520813,308.367950 
	C337.837311,305.616394 342.142456,306.388641 346.058258,309.263794 
	C349.902008,312.086060 350.915680,316.741425 349.046722,322.603729 
z"/>
<path fill="#000000" opacity="1.000000" stroke="none" 
	d="
M202.286652,213.813324 
	C205.575912,218.690659 206.157166,223.339493 202.537384,227.854507 
	C199.743286,231.339645 196.034103,232.974945 191.562714,231.952850 
	C186.727982,230.847702 183.714691,227.670837 182.891556,222.818054 
	C182.053818,217.879150 184.176666,214.051819 188.416672,211.557724 
	C193.396698,208.628311 197.918976,209.899475 202.286652,213.813324 
z"/>
<path fill="#000000" opacity="1.000000" stroke="none" 
	d="
M324.005188,231.489624 
	C316.270905,233.089066 311.056061,230.079269 309.527649,223.492203 
	C308.200287,217.771515 311.600281,212.158279 317.475494,210.370621 
	C322.745514,208.767105 328.747192,211.933151 330.713043,217.353806 
	C332.730133,222.915756 330.620056,227.578125 324.005188,231.489624 
z"/>
<path fill="#000000" opacity="1.000000" stroke="none" 
	d="
M186.006546,248.505127 
	C186.209045,255.487885 183.189987,260.000793 177.758255,261.391937 
	C172.843582,262.650665 167.831238,260.526886 165.394730,256.153442 
	C162.204544,250.427124 164.502869,243.555679 170.588531,240.625107 
	C176.622711,237.719360 182.854691,240.766602 186.006546,248.505127 
z"/>
<path fill="#000000" opacity="1.000000" stroke="none" 
	d="
M332.912598,241.609283 
	C339.488464,238.332611 345.292175,239.660797 348.497223,244.881149 
	C351.669830,250.048676 350.303619,256.288635 345.225250,259.825592 
	C340.536316,263.091309 334.035217,262.157806 330.412079,257.698486 
	C326.361145,252.712677 327.124603,247.131485 332.912598,241.609283 
z"/>
<path fill="#000000" opacity="1.000000" stroke="none" 
	d="
M245.873428,195.826981 
	C246.827332,188.778214 249.900589,184.828049 255.283234,184.129471 
	C259.886139,183.532089 263.875977,185.203552 266.455200,189.211807 
	C269.983398,194.694855 267.887543,201.872665 262.028809,204.996140 
	C256.624878,207.877182 249.524796,205.354935 246.914917,199.570190 
	C246.441193,198.520142 246.243408,197.345596 245.873428,195.826981 
z"/>
<path fill="#000000" opacity="1.000000" stroke="none" 
	d="
M163.433441,274.138672 
	C170.706741,272.567078 175.490814,274.393677 177.848236,279.340973 
	C180.022659,283.904236 178.973480,289.164825 175.218704,292.525238 
	C170.495438,296.752411 163.175797,296.153809 159.228958,291.217529 
	C154.707733,285.562897 156.198349,279.028748 163.433441,274.138672 
z"/>
<path fill="#000000" opacity="1.000000" stroke="none" 
	d="
M164.245453,320.344025 
	C163.765976,312.978790 167.557480,307.702728 173.567123,306.828217 
	C179.134781,306.018066 184.826157,310.170105 186.059387,315.941742 
	C187.210922,321.331024 183.266251,327.181854 177.447464,328.715149 
	C172.054352,330.136322 167.192963,327.167206 164.245453,320.344025 
z"/>
<path fill="#000000" opacity="1.000000" stroke="none" 
	d="
M281.641785,359.935669 
	C285.372437,355.407501 289.828430,354.248444 294.855713,356.087250 
	C299.409271,357.752808 301.539520,361.449799 301.653381,366.176300 
	C301.763611,370.753082 299.550323,374.104126 295.515656,376.223083 
	C291.276306,378.449493 286.119171,377.539551 282.688843,374.010590 
	C279.102936,370.321472 278.679901,365.723236 281.641785,359.935669 
z"/>
<path fill="#000000" opacity="1.000000" stroke="none" 
	d="
M301.418091,204.436234 
	C299.043396,211.050278 295.301300,213.734390 289.555756,213.286423 
	C284.922699,212.925201 280.635742,209.139069 279.797852,204.668457 
	C278.850800,199.615479 281.131561,194.953445 285.581390,192.514511 
	C291.566223,189.234253 302.841675,192.603683 301.418091,204.436234 
z"/>
<path fill="#000000" opacity="1.000000" stroke="none" 
	d="
M313.724182,356.449280 
	C309.302704,352.681244 307.965546,348.276733 310.011108,343.242950 
	C311.629791,339.259735 314.783173,336.959137 319.214905,336.666443 
	C323.953430,336.353455 327.726501,337.917572 329.972839,342.299133 
	C332.151642,346.548798 331.889160,350.616394 328.847290,354.409302 
	C325.781464,358.232117 321.736938,359.075958 317.189514,358.120514 
	C316.085724,357.888611 315.085693,357.162720 313.724182,356.449280 
z"/>
<path fill="#000000" opacity="1.000000" stroke="none" 
	d="
M247.531036,379.175110 
	C244.584915,371.906494 246.961182,365.432983 253.085281,363.132690 
	C259.251587,360.816589 265.817139,364.132385 267.771912,370.549866 
	C269.223450,375.315186 266.881836,380.727478 262.280792,383.241913 
	C257.437469,385.888763 252.233154,384.551544 247.531036,379.175110 
z"/>
<path fill="#000000" opacity="1.000000" stroke="none" 
	d="
M217.668945,211.652100 
	C212.537827,208.348633 211.690765,203.703522 213.119965,198.776779 
	C214.419373,194.297440 217.848740,191.434326 222.644867,191.302521 
	C227.402252,191.171799 231.505295,192.945267 233.471176,197.703232 
	C235.340714,202.228058 234.800537,206.561508 231.222885,210.066086 
	C227.349487,213.860397 222.840500,214.412933 217.668945,211.652100 
z"/>
<path fill="#000000" opacity="1.000000" stroke="none" 
	d="
M219.988937,355.727478 
	C225.373138,354.586884 229.678497,355.808014 232.590225,360.121307 
	C235.097946,363.836121 235.257339,367.944336 232.927490,371.856598 
	C230.499374,375.933777 226.786636,377.913483 222.033066,377.232452 
	C217.369385,376.564331 214.048691,373.955322 212.862961,369.279907 
	C211.419052,363.586609 213.591721,359.467010 219.988937,355.727478 
z"/>
<path fill="#000000" opacity="1.000000" stroke="none" 
	d="
M197.265427,337.019135 
	C204.119446,340.674469 206.464020,345.692169 204.261169,351.276306 
	C202.129745,356.679382 196.533005,359.547577 190.946060,358.100037 
	C185.858551,356.781860 182.249451,351.656647 182.778519,346.501343 
	C183.347107,340.960815 187.820358,336.796692 193.410355,336.665833 
	C194.561630,336.638885 195.717545,336.810364 197.265427,337.019135 
z"/>
</svg>