<svg version="1.1" id="Layer_1" xmlns="http://www.w3.org/2000/svg" xmlns:xlink="http://www.w3.org/1999/xlink" x="0px" y="0px"
	 width="100%" viewBox="0 0 512 512" enable-background="new 0 0 512 512" xml:space="preserve">
<path fill="#000000" opacity="1.000000" stroke="none" 
	d="
M366.000000,268.098816 
	C393.972168,268.103241 421.444397,268.089783 448.916534,268.120667 
	C460.301361,268.133453 460.301727,268.176575 460.278107,279.448151 
	C460.267639,284.442993 460.203522,289.438507 460.264252,294.432465 
	C460.297363,297.157623 459.124176,298.442932 456.379791,298.313324 
	C455.217346,298.258392 454.049438,298.326996 452.884003,298.326996 
	C401.769104,298.327759 350.654205,298.329926 299.539307,298.323700 
	C291.687408,298.322754 291.686768,298.304626 291.684265,290.256348 
	C291.682617,284.928406 291.964905,279.580994 291.597839,274.278412 
	C291.275604,269.623474 293.173279,268.076538 297.569336,268.102905 
	C311.387848,268.185883 325.207489,268.070892 339.026672,268.057251 
	C347.851074,268.048523 356.675568,268.083435 366.000000,268.098816 
z"/>
<path fill="#000000" opacity="1.000000" stroke="none" 
	d="
M349.765808,314.750458 
	C350.599457,321.782928 348.193146,326.244812 342.804382,328.310303 
	C338.270966,330.047943 332.841522,328.355255 330.043152,324.331909 
	C326.240509,318.864655 327.709778,311.882477 333.399109,308.384277 
	C339.348511,304.726044 346.044098,307.197479 349.765808,314.750458 
z"/>
<path fill="#000000" opacity="1.000000" stroke="none" 
	d="
M186.166290,213.147400 
	C190.627594,209.398758 195.132401,209.055496 199.775024,211.767960 
	C203.766846,214.100220 205.384338,217.996597 204.923141,222.313400 
	C204.432632,226.904465 201.596191,230.128952 197.090073,231.677994 
	C192.896072,233.119705 187.932632,231.583069 185.098755,227.933182 
	C181.709213,223.567657 181.962662,218.911652 186.166290,213.147400 
z"/>
<path fill="#000000" opacity="1.000000" stroke="none" 
	d="
M322.483246,232.036118 
	C316.760406,232.555786 312.539642,230.784012 310.231506,225.746994 
	C308.233948,221.387817 308.915131,217.242432 312.122803,213.689606 
	C316.590881,208.740753 324.104614,208.764801 328.486877,213.615753 
	C332.897705,218.498322 332.197174,225.859909 326.840973,229.882584 
	C325.667145,230.764145 324.206879,231.264313 322.483246,232.036118 
z"/>
<path fill="#000000" opacity="1.000000" stroke="none" 
	d="
M186.177231,249.296616 
	C186.348923,255.146011 183.812408,259.060577 178.875946,261.029327 
	C174.708099,262.691498 170.575211,261.863983 167.352875,258.637390 
	C164.205475,255.485840 162.925735,251.665329 164.608032,247.230377 
	C166.220764,242.978836 169.211761,240.274460 173.735840,239.754837 
	C178.435989,239.215027 182.232498,241.016464 184.665558,245.187592 
	C185.325668,246.319275 185.642700,247.651062 186.177231,249.296616 
z"/>
<path fill="#000000" opacity="1.000000" stroke="none" 
	d="
M331.636597,242.535156 
	C336.209656,238.851929 340.800964,238.635223 345.276031,241.561691 
	C349.204651,244.130814 351.006073,248.075851 349.970673,252.736313 
	C348.918915,257.470154 345.904846,260.742859 340.978546,261.563507 
	C336.151672,262.367615 332.163788,260.678711 329.524567,256.430847 
	C326.751740,251.967880 327.314087,248.122940 331.636597,242.535156 
z"/>
<path fill="#000000" opacity="1.000000" stroke="none" 
	d="
M245.869431,195.827606 
	C246.824005,188.780579 249.903412,184.824692 255.284714,184.130539 
	C259.885956,183.536972 263.880829,185.196793 266.457428,189.212799 
	C269.981598,194.705750 267.884338,201.884995 262.026733,204.999802 
	C256.612793,207.878693 249.524200,205.360306 246.909241,199.571579 
	C246.435013,198.521805 246.238312,197.346664 245.869431,195.827606 
z"/>
<path fill="#000000" opacity="1.000000" stroke="none" 
	d="
M162.756409,274.497009 
	C169.977524,272.342163 175.171127,274.042053 177.736099,279.098602 
	C180.096741,283.752350 178.996719,289.313080 175.048279,292.685730 
	C170.372345,296.679779 163.328537,296.111725 159.393356,291.423126 
	C154.874359,286.039001 156.038559,279.621735 162.756409,274.497009 
z"/>
<path fill="#000000" opacity="1.000000" stroke="none" 
	d="
M164.241394,320.344269 
	C163.753525,312.976105 167.530670,307.722351 173.569641,306.823578 
	C179.162033,305.991302 184.819580,310.114563 186.063461,315.929199 
	C187.217773,321.325073 183.272964,327.187286 177.454651,328.722351 
	C172.058594,330.146027 167.187897,327.170837 164.241394,320.344269 
z"/>
<path fill="#000000" opacity="1.000000" stroke="none" 
	d="
M249.559937,365.434570 
	C256.241028,360.920837 263.388550,362.099579 266.709320,367.946777 
	C269.878540,373.527100 267.839630,380.378967 262.130920,383.332642 
	C257.578217,385.688202 251.733292,384.532410 248.474060,380.632080 
	C244.706970,376.124054 244.959488,371.389801 249.559937,365.434570 
z"/>
<path fill="#000000" opacity="1.000000" stroke="none" 
	d="
M301.442017,200.556091 
	C301.577667,207.810257 298.205902,212.403870 292.469452,213.234329 
	C287.114655,214.009537 281.878113,210.949600 280.152008,206.036728 
	C278.322021,200.828171 280.659760,195.074295 285.659058,192.482269 
	C292.204163,189.088776 299.135498,192.476501 301.442017,200.556091 
z"/>
<path fill="#000000" opacity="1.000000" stroke="none" 
	d="
M301.025391,362.296387 
	C302.383545,367.808746 301.442200,372.236389 296.842957,375.405212 
	C293.035187,378.028656 289.026642,378.096985 285.078552,375.895142 
	C280.836426,373.529327 278.682434,368.734406 279.820465,363.940735 
	C280.914093,359.333984 283.960632,356.426575 288.657318,355.490601 
	C293.778351,354.470001 297.525146,356.494629 301.025391,362.296387 
z"/>
<path fill="#000000" opacity="1.000000" stroke="none" 
	d="
M320.064453,336.641022 
	C327.655792,337.424286 331.646637,341.716980 331.319092,348.283966 
	C331.039612,353.887512 326.208618,358.403473 320.443604,358.450287 
	C314.355133,358.499725 309.565796,354.164154 309.090424,348.172882 
	C308.629120,342.358917 312.952850,337.633545 320.064453,336.641022 
z"/>
<path fill="#000000" opacity="1.000000" stroke="none" 
	d="
M217.664597,211.658844 
	C212.527649,208.354233 211.692535,203.702072 213.115494,198.776459 
	C214.410950,194.292297 217.848892,191.430267 222.643234,191.299393 
	C227.399200,191.169586 231.507034,192.944855 233.472412,197.705368 
	C235.340958,202.231339 234.803085,206.570709 231.227020,210.075165 
	C227.353683,213.870956 222.837112,214.411880 217.664597,211.658844 
z"/>
<path fill="#000000" opacity="1.000000" stroke="none" 
	d="
M219.987091,355.723816 
	C225.375534,354.577454 229.685104,355.799591 232.593506,360.118713 
	C235.094849,363.833344 235.262299,367.944916 232.932892,371.862183 
	C230.503296,375.947876 226.781540,377.912506 222.030258,377.234161 
	C217.365463,376.568237 214.035187,373.966339 212.857391,369.280731 
	C211.419571,363.560669 213.590729,359.444672 219.987091,355.723816 
z"/>
<path fill="#000000" opacity="1.000000" stroke="none" 
	d="
M197.267044,337.015015 
	C204.117508,340.665558 206.470535,345.700958 204.266129,351.276642 
	C202.127289,356.686462 196.543320,359.549316 190.946487,358.105499 
	C185.855957,356.792297 182.249100,351.670807 182.775024,346.502625 
	C183.339615,340.954468 187.810791,336.790863 193.409744,336.661224 
	C194.561646,336.634552 195.718140,336.806580 197.267044,337.015015 
z"/>
</svg>