<svg version="1.1" id="Layer_1" xmlns="http://www.w3.org/2000/svg" xmlns:xlink="http://www.w3.org/1999/xlink" x="0px" y="0px"
	 width="100%" viewBox="0 0 512 512" enable-background="new 0 0 512 512" xml:space="preserve">
<path fill="#000000" opacity="1.000000" stroke="none" 
	d="
M513.000000,301.531372 
	C505.839417,302.055695 498.678833,302.159546 491.518250,302.159607 
	C407.402435,302.160370 323.286591,302.146759 239.170776,302.132965 
	C231.095764,302.131653 231.094406,302.119202 231.088440,293.837708 
	C231.084854,288.840729 231.299805,283.831909 231.023575,278.850220 
	C230.764282,274.174408 232.327988,272.519226 237.255814,272.548431 
	C271.234070,272.749756 305.214142,272.655548 339.193604,272.654846 
	C394.993225,272.653656 450.792877,272.650116 506.592499,272.654724 
	C508.423401,272.654877 510.254303,272.732758 512.542603,272.887207 
	C513.000000,282.354218 513.000000,291.708466 513.000000,301.531372 
z"/>
<path fill="#000000" opacity="1.000000" stroke="none" 
	d="
M327.846893,317.980164 
	C330.068512,307.458160 339.240540,303.363251 346.269989,309.470520 
	C349.647583,312.405060 351.090881,316.262268 349.762360,320.730927 
	C348.405548,325.294739 345.246521,328.190033 340.577118,328.890533 
	C336.103119,329.561737 332.431854,327.747681 329.847473,323.977570 
	C328.699615,322.303101 328.059570,320.412903 327.846893,317.980164 
z"/>
<path fill="#000000" opacity="1.000000" stroke="none" 
	d="
M170.241943,273.614502 
	C176.585648,275.861633 179.809586,280.434052 179.038727,285.596344 
	C178.293671,290.585724 173.816376,294.913788 168.997467,295.302887 
	C163.496765,295.747070 158.773529,292.551056 157.172775,287.301697 
	C154.840897,279.654724 161.096039,272.880707 170.241943,273.614502 
z"/>
<path fill="#000000" opacity="1.000000" stroke="none" 
	d="
M183.973251,311.256348 
	C189.009216,318.423645 184.525604,326.299957 178.660248,328.365509 
	C172.728806,330.454346 166.488861,327.293060 164.438934,320.961700 
	C162.950638,316.364990 164.964600,311.304108 169.394470,308.508942 
	C174.185791,305.485718 178.637756,306.240387 183.973251,311.256348 
z"/>
<path fill="#000000" opacity="1.000000" stroke="none" 
	d="
M336.758301,261.406738 
	C330.386536,259.168610 327.168640,254.625351 327.952637,249.452713 
	C328.760498,244.122513 333.292419,239.887817 338.409607,239.681458 
	C343.979523,239.456863 348.398010,242.791824 349.935822,248.108917 
	C351.865814,254.781952 344.943085,263.597321 336.758301,261.406738 
z"/>
<path fill="#000000" opacity="1.000000" stroke="none" 
	d="
M180.201370,260.468994 
	C173.390610,262.685303 168.422470,261.226349 165.574463,256.472870 
	C162.882385,251.979675 163.592804,246.480881 167.335541,242.842102 
	C171.863068,238.440308 179.202499,238.622894 183.309921,243.239502 
	C188.130173,248.657333 187.045029,255.283890 180.201370,260.468994 
z"/>
<path fill="#000000" opacity="1.000000" stroke="none" 
	d="
M309.668457,217.960052 
	C312.931488,211.711838 317.040253,209.201874 321.915619,210.153625 
	C326.990875,211.144394 330.539764,214.605255 331.224579,219.310577 
	C331.923218,224.110916 330.004944,227.778717 326.096405,230.426651 
	C322.224274,233.049942 318.118561,232.866776 314.336243,230.450150 
	C309.960785,227.654510 308.442017,223.446014 309.668457,217.960052 
z"/>
<path fill="#000000" opacity="1.000000" stroke="none" 
	d="
M187.379684,212.189850 
	C193.267853,207.482788 201.948746,211.279358 204.007935,216.566605 
	C206.488953,222.937012 203.618362,229.450623 197.034882,231.704224 
	C192.486755,233.261093 187.167648,231.296051 184.497345,227.072433 
	C181.407959,222.185989 182.237579,217.455383 187.379684,212.189850 
z"/>
<path fill="#000000" opacity="1.000000" stroke="none" 
	d="
M263.716614,203.886032 
	C257.811279,208.936615 248.876328,204.861298 246.718857,199.243958 
	C244.393265,193.188828 247.500854,186.639221 253.918488,184.480698 
	C258.058624,183.088211 263.744446,185.095474 266.258453,188.837112 
	C269.531921,193.709045 268.822571,198.413208 263.716614,203.886032 
z"/>
<path fill="#000000" opacity="1.000000" stroke="none" 
	d="
M298.566254,194.436035 
	C303.151825,201.203903 302.426727,207.565781 296.937531,211.330582 
	C291.728271,214.903412 285.210846,213.741165 281.546448,208.585907 
	C278.595184,204.433945 279.016327,198.594528 282.539612,194.814560 
	C286.609314,190.448380 292.318298,190.211212 298.566254,194.436035 
z"/>
<path fill="#000000" opacity="1.000000" stroke="none" 
	d="
M282.628967,358.719543 
	C289.490479,353.751801 296.594177,354.618164 300.133545,360.540649 
	C303.474274,366.130798 301.351837,373.256744 295.451019,376.261871 
	C291.051025,378.502655 285.656586,377.406525 282.297455,373.589081 
	C278.700867,369.501801 278.722198,364.535889 282.628967,358.719543 
z"/>
<path fill="#000000" opacity="1.000000" stroke="none" 
	d="
M251.464935,363.992737 
	C258.444702,361.394226 263.709839,362.839050 266.639923,367.847260 
	C269.317902,372.424561 268.529297,377.857697 264.654938,381.523438 
	C260.234344,385.706024 253.135925,385.475220 248.966400,381.013275 
	C244.074661,375.778564 244.861298,369.659485 251.464935,363.992737 
z"/>
<path fill="#000000" opacity="1.000000" stroke="none" 
	d="
M315.258118,337.718811 
	C320.602600,335.717896 325.250153,336.172333 328.722870,340.412567 
	C331.645538,343.981201 332.477020,348.199402 330.112213,352.488312 
	C327.602600,357.039917 323.650513,359.086914 318.479431,358.287994 
	C313.761719,357.559113 310.680573,354.802246 309.537048,350.115021 
	C308.220062,344.716644 310.336578,340.757172 315.258118,337.718811 
z"/>
<path fill="#000000" opacity="1.000000" stroke="none" 
	d="
M214.673019,209.075775 
	C208.984222,199.665878 216.139267,190.707321 223.641815,191.276138 
	C228.489120,191.643631 232.207336,193.827164 233.912399,198.605591 
	C235.515732,203.098953 233.903961,208.183151 230.119934,211.080307 
	C226.237488,214.052811 221.583420,214.164215 217.164017,211.323395 
	C216.339905,210.793671 215.653564,210.049576 214.673019,209.075775 
z"/>
<path fill="#000000" opacity="1.000000" stroke="none" 
	d="
M233.870117,370.182617 
	C230.089691,376.248688 226.177612,378.414490 221.080399,377.114746 
	C216.785721,376.019592 213.579971,373.436096 212.791077,368.829865 
	C211.937012,363.843048 213.356918,359.613983 217.830170,356.796356 
	C221.790817,354.301636 225.831161,354.811462 229.562531,357.129700 
	C234.313080,360.081085 234.998352,364.711273 233.870117,370.182617 
z"/>
<path fill="#000000" opacity="1.000000" stroke="none" 
	d="
M189.847595,337.183044 
	C200.082245,335.879089 206.768631,341.768250 204.725266,349.779297 
	C203.446228,354.793762 199.379318,358.207336 194.480301,358.378387 
	C188.984802,358.570282 184.785797,355.634277 183.206894,350.495850 
	C181.660339,345.462708 183.817139,340.940155 189.847595,337.183044 
z"/>
</svg>