<svg version="1.1" id="Layer_1" xmlns="http://www.w3.org/2000/svg" xmlns:xlink="http://www.w3.org/1999/xlink" x="0px" y="0px"
	 width="100%" viewBox="0 0 512 512" enable-background="new 0 0 512 512" xml:space="preserve">
<path fill="#000000" opacity="1.000000" stroke="none" 
	d="
M331.164642,327.225494 
	C326.828278,320.259949 322.852661,313.517029 318.692780,306.889740 
	C316.951447,304.115570 317.515381,302.432312 320.277283,300.866089 
	C324.766357,298.320465 329.077301,295.461456 333.555450,292.895325 
	C335.785004,291.617676 336.339203,290.202972 335.703613,287.620575 
	C334.280090,281.836395 336.190277,277.377411 340.687134,274.729736 
	C344.929840,272.231689 349.965851,272.551086 353.990723,276.453094 
	C356.490265,278.876373 358.181488,278.040558 360.467987,276.659149 
	C378.573639,265.720551 396.770508,254.931213 414.790588,243.854050 
	C418.468689,241.593094 420.412048,241.721970 422.539612,245.680115 
	C425.610138,251.392548 429.125732,256.880676 432.692719,262.305878 
	C434.887726,265.644409 434.670959,267.625519 430.954254,269.810699 
	C405.974609,284.497009 381.133362,299.418457 356.200836,314.185364 
	C352.974884,316.095978 350.563782,318.155792 349.159241,321.992035 
	C346.704437,328.696991 341.528473,330.011536 331.164642,327.225494 
z"/>
<path fill="#000000" opacity="1.000000" stroke="none" 
	d="
M347.690857,257.531799 
	C343.775482,261.953278 339.289703,262.791168 334.342285,260.702179 
	C330.285736,258.989380 328.141510,255.527786 327.946167,251.287872 
	C327.729462,246.583008 330.069763,243.002136 334.279419,240.779770 
	C338.373596,238.618362 343.901947,239.622391 347.122467,243.054932 
	C350.879700,247.059525 351.126862,251.419373 347.690857,257.531799 
z"/>
<path fill="#000000" opacity="1.000000" stroke="none" 
	d="
M177.540619,278.785767 
	C179.960648,285.978790 178.564041,290.681946 173.379517,293.812683 
	C169.151062,296.366028 163.614059,295.675354 160.060638,292.151306 
	C155.479568,287.608093 155.630966,280.512573 160.402481,276.130249 
	C165.345505,271.590393 172.460434,272.566223 177.540619,278.785767 
z"/>
<path fill="#000000" opacity="1.000000" stroke="none" 
	d="
M179.057648,240.385040 
	C184.829971,243.694504 187.235886,248.374146 185.920303,253.182205 
	C184.548630,258.195374 179.790070,261.937439 174.969635,261.793701 
	C169.593201,261.633362 165.627808,258.274109 164.157730,253.065521 
	C162.371597,246.736969 169.206589,237.016418 179.057648,240.385040 
z"/>
<path fill="#000000" opacity="1.000000" stroke="none" 
	d="
M313.312256,229.875290 
	C308.702362,224.376648 308.012817,220.059494 310.755646,215.542526 
	C313.363312,211.248230 318.071075,209.197525 322.669647,210.352768 
	C329.042450,211.953705 332.764465,218.054489 331.030457,224.057068 
	C329.237061,230.265152 322.608673,233.593781 316.305908,231.411407 
	C315.372070,231.088058 314.511963,230.551743 313.312256,229.875290 
z"/>
<path fill="#000000" opacity="1.000000" stroke="none" 
	d="
M193.146088,209.919312 
	C202.671432,211.729584 206.990448,217.682297 204.310547,224.730652 
	C202.511292,229.462860 197.791458,232.606873 193.064819,232.221832 
	C187.931564,231.803635 183.676239,227.869827 182.833572,222.763596 
	C182.051102,218.022095 184.744385,213.144455 189.419891,210.993744 
	C190.468185,210.511551 191.636612,210.290497 193.146088,209.919312 
z"/>
<path fill="#000000" opacity="1.000000" stroke="none" 
	d="
M245.872101,195.827209 
	C246.143677,190.298050 248.552277,186.631500 253.376511,184.680481 
	C257.583771,182.978989 261.381866,184.283722 264.497986,186.984711 
	C267.859711,189.898605 269.128540,193.808212 267.624573,198.268036 
	C266.098297,202.794083 262.923706,205.664856 258.241516,206.135452 
	C253.595673,206.602386 249.790833,204.555618 247.392044,200.440338 
	C246.656540,199.178528 246.395035,197.640442 245.872101,195.827209 
z"/>
<path fill="#000000" opacity="1.000000" stroke="none" 
	d="
M165.436035,323.260498 
	C162.624832,315.742859 165.305939,309.483887 171.956177,307.239624 
	C177.615326,305.329865 184.148163,309.119263 185.863144,315.306458 
	C187.174500,320.037537 184.621841,325.417084 179.935440,327.798492 
	C174.766434,330.425171 169.911392,328.997101 165.436035,323.260498 
z"/>
<path fill="#000000" opacity="1.000000" stroke="none" 
	d="
M325.229370,357.437805 
	C317.852905,359.417969 312.459076,357.401886 310.084686,352.075348 
	C307.871674,347.110840 309.523865,341.328186 313.988434,338.412140 
	C319.028076,335.120483 325.923584,336.248596 329.184479,340.898193 
	C333.123260,346.514404 331.791473,352.533173 325.229370,357.437805 
z"/>
<path fill="#000000" opacity="1.000000" stroke="none" 
	d="
M297.999329,357.918121 
	C303.121948,364.494537 302.679413,371.252075 297.175781,375.215546 
	C291.922577,378.998657 285.036987,377.775543 281.401093,372.413483 
	C278.660492,368.371735 279.060822,362.692078 282.346375,359.002808 
	C286.208435,354.666168 291.611450,354.199097 297.999329,357.918121 
z"/>
<path fill="#000000" opacity="1.000000" stroke="none" 
	d="
M264.525604,381.652527 
	C257.987000,385.864288 251.501495,385.048920 247.905289,379.866760 
	C244.336761,374.724457 245.550446,368.220520 250.778595,364.469391 
	C255.009109,361.434052 261.295624,361.976593 264.985870,365.695587 
	C269.344940,370.088562 269.287018,375.464691 264.525604,381.652527 
z"/>
<path fill="#000000" opacity="1.000000" stroke="none" 
	d="
M293.964172,191.772156 
	C300.165466,194.830826 302.216888,198.312637 301.454834,204.092209 
	C300.812378,208.964615 297.705902,211.793015 293.250793,213.063553 
	C288.627441,214.382111 283.732178,212.263535 281.219421,208.076889 
	C278.992676,204.366806 278.876434,200.465439 281.157074,196.754395 
	C284.016876,192.100952 288.288818,190.552383 293.964172,191.772156 
z"/>
<path fill="#000000" opacity="1.000000" stroke="none" 
	d="
M232.201019,208.961899 
	C226.755783,214.027115 221.706268,214.637619 216.817993,211.122177 
	C212.713760,208.170593 211.301025,202.523270 213.471329,197.744141 
	C216.138855,191.870087 222.557709,189.653442 228.508011,192.551422 
	C234.488434,195.464096 236.081360,202.005569 232.201019,208.961899 
z"/>
<path fill="#000000" opacity="1.000000" stroke="none" 
	d="
M231.723724,373.598572 
	C226.039032,378.116730 221.183090,378.468750 216.565704,374.979675 
	C212.782120,372.120667 211.419388,366.507660 213.398361,361.933502 
	C216.042969,355.820831 222.779541,353.512207 228.775421,356.663788 
	C234.791977,359.826233 236.109985,366.668549 231.723724,373.598572 
z"/>
<path fill="#000000" opacity="1.000000" stroke="none" 
	d="
M191.430283,336.753357 
	C200.751938,336.635712 206.412766,342.206970 204.808807,349.458008 
	C203.703110,354.456573 199.644119,358.070374 194.813950,358.356689 
	C189.147232,358.692657 184.703644,355.638611 183.157440,350.345245 
	C181.799820,345.697479 183.806458,340.855164 188.321426,338.036957 
	C189.151352,337.518890 190.111267,337.209045 191.430283,336.753357 
z"/>
</svg>