<svg version="1.1" id="Layer_1" xmlns="http://www.w3.org/2000/svg" xmlns:xlink="http://www.w3.org/1999/xlink" x="0px" y="0px"
	 width="100%" viewBox="0 0 512 512" enable-background="new 0 0 512 512" xml:space="preserve">
<path fill="#000000" opacity="1.000000" stroke="none" 
	d="
M329.448914,419.378479 
	C328.458618,423.996735 325.707611,425.110077 321.643738,424.948090 
	C315.322083,424.696106 308.982849,424.904388 302.651367,424.867249 
	C300.697632,424.855804 298.621613,425.198669 296.503387,423.066437 
	C304.738373,402.003937 313.068756,380.697388 321.405457,359.374695 
	C310.903381,355.873596 307.096069,350.485840 309.844635,343.509094 
	C312.561829,336.612000 319.286469,334.984283 328.759613,339.133118 
	C330.977112,336.442841 331.664093,332.996704 332.966736,329.837555 
	C333.740601,327.960693 332.459198,327.160797 331.476044,326.043610 
	C328.438080,322.591400 326.752136,318.763184 328.708588,314.142059 
	C330.633575,309.595276 333.983124,306.805664 339.009460,306.773926 
	C342.381561,306.752625 343.060272,304.453918 343.935974,302.089355 
	C344.623993,300.231598 345.336548,298.382996 346.204346,296.091553 
	C341.504578,294.634338 337.327820,292.744141 335.777435,287.762177 
	C334.949554,285.101898 334.970306,282.503113 336.075806,279.957275 
	C338.865234,273.533691 344.686676,271.955994 354.234497,275.471924 
	C356.723175,269.263000 359.268829,263.031586 361.725067,256.765167 
	C381.836273,205.457260 401.972107,154.158890 421.950073,102.799095 
	C423.507050,98.796349 425.421509,97.235649 429.874634,97.476852 
	C438.128021,97.923889 446.422882,97.604866 455.607910,97.604866 
	C413.397125,205.265396 371.494324,312.140411 329.448914,419.378479 
z"/>
<path fill="#000000" opacity="1.000000" stroke="none" 
	d="
M187.381638,212.192474 
	C193.236633,207.485245 201.982269,211.232666 204.055939,216.695129 
	C206.431198,222.952103 203.657867,229.267914 197.237549,231.600433 
	C192.665314,233.261536 187.295654,231.381027 184.571213,227.164566 
	C181.407944,222.268951 182.217255,217.492386 187.381638,212.192474 
z"/>
<path fill="#000000" opacity="1.000000" stroke="none" 
	d="
M323.931458,210.691055 
	C330.161133,214.037033 332.605072,218.981186 330.963898,224.237869 
	C329.473083,229.013107 324.273346,232.628082 319.504913,232.204453 
	C314.007385,231.716080 309.978241,227.818817 309.259033,222.293961 
	C308.260620,214.624512 315.392609,208.786072 323.931458,210.691055 
z"/>
<path fill="#000000" opacity="1.000000" stroke="none" 
	d="
M172.755508,261.394531 
	C166.441193,259.178650 163.203812,254.593323 163.976913,249.447739 
	C164.772278,244.154053 169.317566,239.905930 174.420624,239.686813 
	C179.962906,239.448822 184.286896,242.759201 185.926056,248.111023 
	C187.910492,254.590164 181.024506,263.548584 172.755508,261.394531 
z"/>
<path fill="#000000" opacity="1.000000" stroke="none" 
	d="
M328.665222,247.072296 
	C332.145355,240.947037 336.022888,238.762253 341.273834,239.865433 
	C346.209198,240.902298 349.196106,244.148483 350.035004,248.977478 
	C350.893860,253.921432 348.656281,257.746033 344.431732,260.278717 
	C340.462524,262.658295 336.286621,262.310791 332.693359,259.718597 
	C328.584290,256.754272 326.842224,252.582321 328.665222,247.072296 
z"/>
<path fill="#000000" opacity="1.000000" stroke="none" 
	d="
M173.166351,274.554016 
	C178.562012,278.716003 180.143234,282.867920 178.413269,287.590088 
	C176.596115,292.550323 172.355881,295.523407 167.404572,295.309021 
	C162.575714,295.099884 158.588577,291.945770 157.168991,287.205933 
	C155.947220,283.126678 157.096405,279.604523 159.965118,276.679321 
	C163.652023,272.919861 168.060837,272.498688 173.166351,274.554016 
z"/>
<path fill="#000000" opacity="1.000000" stroke="none" 
	d="
M185.894562,320.369019 
	C181.585571,329.960449 172.072861,331.949554 166.452820,324.793793 
	C163.231354,320.692017 163.141205,315.608795 166.215897,311.434479 
	C169.219406,307.356812 173.839233,305.886993 178.541580,307.512939 
	C184.000519,309.400482 186.378250,313.369995 185.894562,320.369019 
z"/>
<path fill="#000000" opacity="1.000000" stroke="none" 
	d="
M280.792236,361.293274 
	C284.933319,355.801727 289.127197,354.108765 294.292511,355.863892 
	C298.847778,357.411743 301.276428,360.780701 301.597046,365.571625 
	C301.935028,370.621674 299.639252,374.276154 295.143707,376.352539 
	C291.032562,378.251373 286.994324,377.755859 283.516327,374.740173 
	C279.360413,371.136597 278.636261,366.668060 280.792236,361.293274 
z"/>
<path fill="#000000" opacity="1.000000" stroke="none" 
	d="
M245.865005,194.208252 
	C247.232315,185.505478 256.636902,180.286469 264.579712,187.053009 
	C267.810089,189.805008 269.030792,193.630356 267.747345,197.887848 
	C266.310944,202.652557 262.992004,205.589188 258.125092,206.111435 
	C253.678421,206.588577 250.052582,204.588409 247.615982,200.745926 
	C246.438446,198.888962 245.852051,196.820724 245.865005,194.208252 
z"/>
<path fill="#000000" opacity="1.000000" stroke="none" 
	d="
M282.313599,209.557800 
	C276.458984,203.037567 280.526093,191.728668 290.165497,191.357605 
	C295.063080,191.169052 298.884735,193.278748 300.842468,197.969681 
	C302.650970,202.303040 301.270325,207.833160 297.853333,210.692749 
	C294.125153,213.812790 289.020935,214.248199 284.883331,211.731430 
	C284.043427,211.220566 283.340790,210.484100 282.313599,209.557800 
z"/>
<path fill="#000000" opacity="1.000000" stroke="none" 
	d="
M248.488083,366.578796 
	C254.613052,361.249756 261.707733,361.397095 265.815247,366.631500 
	C269.858978,371.784637 268.604034,379.113434 263.052704,382.764343 
	C259.001495,385.428711 253.215088,384.968536 249.639389,381.697632 
	C245.242783,377.675842 244.794357,372.930939 248.488083,366.578796 
z"/>
<path fill="#000000" opacity="1.000000" stroke="none" 
	d="
M233.291565,197.237274 
	C235.296692,202.389099 234.721283,206.763367 230.934525,210.350052 
	C227.638046,213.472366 223.685150,214.225296 219.435165,212.547043 
	C214.643295,210.654846 212.403122,206.944641 212.649841,201.593674 
	C212.884125,196.512421 215.641388,193.249237 220.303299,191.705322 
	C225.018707,190.143707 229.484512,192.076843 233.291565,197.237274 
z"/>
<path fill="#000000" opacity="1.000000" stroke="none" 
	d="
M213.111023,370.217834 
	C212.052826,360.736603 216.631454,354.671783 223.940842,355.277252 
	C229.435471,355.732361 233.596863,359.375732 234.289581,364.337708 
	C235.072601,369.946533 231.948685,375.225220 226.845901,376.915833 
	C221.639130,378.640900 216.646301,376.320801 213.111023,370.217834 
z"/>
<path fill="#000000" opacity="1.000000" stroke="none" 
	d="
M185.874115,339.864410 
	C191.678589,335.764191 196.904343,335.627960 201.125885,339.186646 
	C204.870468,342.343262 206.018524,347.899811 203.824921,352.250214 
	C200.869400,358.111694 193.845612,360.192291 188.135696,356.897736 
	C182.335159,353.550873 181.337814,346.945557 185.874115,339.864410 
z"/>
</svg>