<svg version="1.1" id="Layer_1" xmlns="http://www.w3.org/2000/svg" xmlns:xlink="http://www.w3.org/1999/xlink" x="0px" y="0px"
	 width="100%" viewBox="0 0 512 512" enable-background="new 0 0 512 512" xml:space="preserve">
<path fill="#000000" opacity="1.000000" stroke="none" 
	d="
M250.128616,390.625977 
	C268.529236,396.221985 278.849091,410.044464 279.357971,428.795837 
	C279.690765,441.059875 277.285156,452.384827 268.667938,461.561493 
	C260.335785,470.434692 249.575394,473.863708 237.665939,474.296936 
	C234.965622,474.395172 234.180298,472.822998 234.172653,470.543793 
	C234.157074,465.891663 234.189972,461.239258 234.219284,456.587097 
	C234.235580,453.999176 235.453018,453.025635 238.133881,452.562164 
	C253.315140,449.937683 260.651367,436.511719 254.860916,422.281769 
	C252.335632,416.075958 247.707214,412.085907 241.093430,411.383545 
	C235.707733,410.811554 233.432175,408.906616 234.335770,403.244568 
	C234.851013,400.015961 234.248932,396.608612 234.145554,393.281860 
	C234.042816,389.975464 235.413544,388.433472 238.936829,388.669647 
	C242.621384,388.916626 246.198227,389.536224 250.128616,390.625977 
z"/>
<path fill="#000000" opacity="1.000000" stroke="none" 
	d="
M339.829285,306.773132 
	C345.337097,307.685913 348.743164,310.544495 349.987640,315.595734 
	C350.997314,319.694061 349.438599,323.225372 346.561096,326.020844 
	C342.040619,330.412445 334.520844,329.821747 330.573517,324.986969 
	C326.361359,319.827881 327.388794,312.628113 332.888275,308.826691 
	C334.850525,307.470337 336.974335,306.593536 339.829285,306.773132 
z"/>
<path fill="#000000" opacity="1.000000" stroke="none" 
	d="
M183.790482,225.744812 
	C181.537354,218.056152 184.608398,212.097305 191.413300,210.289078 
	C197.486404,208.675308 203.522141,212.840652 204.839813,219.554871 
	C205.764023,224.264145 202.795074,229.276688 197.845932,231.362762 
	C192.667999,233.545273 187.932068,231.759171 183.790482,225.744812 
z"/>
<path fill="#000000" opacity="1.000000" stroke="none" 
	d="
M314.645569,230.706299 
	C309.578949,226.449997 308.085876,222.081009 309.821228,217.378342 
	C311.325562,213.301636 316.125031,209.652420 320.150604,209.921753 
	C324.963867,210.243790 328.815491,212.314774 330.609741,217.111221 
	C332.219177,221.413696 331.431274,225.340012 328.231934,228.638107 
	C324.405884,232.582199 319.924408,233.214050 314.645569,230.706299 
z"/>
<path fill="#000000" opacity="1.000000" stroke="none" 
	d="
M170.998627,240.415283 
	C178.239578,239.003189 182.783371,240.939224 185.163712,246.114716 
	C187.282013,250.720413 186.069321,255.890640 182.103073,259.163513 
	C177.194794,263.213745 169.881882,262.392029 166.158813,257.371918 
	C161.882492,251.605865 163.618439,245.098557 170.998627,240.415283 
z"/>
<path fill="#000000" opacity="1.000000" stroke="none" 
	d="
M344.849548,260.058655 
	C338.377686,262.792236 333.074188,261.607880 329.927765,257.010773 
	C326.953339,252.664948 327.374664,247.107925 330.972992,243.224136 
	C334.645142,239.260666 340.483734,238.498917 345.096191,241.381485 
	C351.899597,245.633301 351.932007,253.909851 344.849548,260.058655 
z"/>
<path fill="#000000" opacity="1.000000" stroke="none" 
	d="
M156.929993,286.481812 
	C156.731049,280.111023 159.128555,275.628387 163.731323,274.041199 
	C168.315475,272.460388 172.657150,273.146118 176.109879,276.820007 
	C180.409424,281.394958 179.799026,288.736511 174.904068,292.785706 
	C170.005005,296.838257 162.720016,296.010468 159.013794,290.879883 
	C158.153931,289.689575 157.675262,288.223877 156.929993,286.481812 
z"/>
<path fill="#000000" opacity="1.000000" stroke="none" 
	d="
M335.446289,286.327759 
	C335.144440,279.144012 338.420837,274.509979 344.183380,273.461884 
	C349.737183,272.451721 355.038147,275.541565 356.819763,280.827393 
	C358.551605,285.965576 356.086243,291.754730 351.082184,294.300262 
	C344.814423,297.488647 338.282166,294.296875 335.446289,286.327759 
z"/>
<path fill="#000000" opacity="1.000000" stroke="none" 
	d="
M251.731705,185.456711 
	C257.974854,183.061264 263.742493,184.654541 266.520325,189.248901 
	C269.331085,193.897720 268.464142,199.695053 264.416443,203.317398 
	C259.625275,207.605087 252.549225,207.044418 248.416550,202.049698 
	C244.061554,196.786301 245.207230,190.498825 251.731705,185.456711 
z"/>
<path fill="#000000" opacity="1.000000" stroke="none" 
	d="
M295.406494,192.290070 
	C301.161957,196.119003 303.141479,201.886246 300.727509,206.982178 
	C298.476044,211.735062 292.921753,214.345276 287.789276,213.062393 
	C282.578979,211.760071 279.130096,206.569366 279.700104,200.887817 
	C280.398285,193.929153 286.627838,190.370071 295.406494,192.290070 
z"/>
<path fill="#000000" opacity="1.000000" stroke="none" 
	d="
M167.249359,325.750061 
	C163.569534,321.313507 162.705612,316.836212 165.747375,312.156342 
	C168.177460,308.417572 171.663330,306.212219 176.275528,306.903595 
	C181.117325,307.629425 184.531219,310.317078 185.819687,315.218597 
	C187.063202,319.949127 185.376984,323.769897 181.675537,326.649780 
	C177.179443,330.147919 173.363892,329.880585 167.249359,325.750061 
z"/>
<path fill="#000000" opacity="1.000000" stroke="none" 
	d="
M280.531250,370.907471 
	C277.221375,361.211090 284.464600,355.353302 290.384369,355.245483 
	C295.572723,355.150909 300.010284,358.414978 301.240112,363.126312 
	C302.614441,368.391052 300.622070,373.295685 296.036377,375.936371 
	C291.641663,378.467102 286.470276,377.769135 282.779053,374.059937 
	C281.970764,373.247620 281.390015,372.208862 280.531250,370.907471 
z"/>
<path fill="#000000" opacity="1.000000" stroke="none" 
	d="
M263.960846,364.798798 
	C268.141754,368.784912 269.498108,373.168732 267.069397,378.154999 
	C264.785370,382.844208 260.865845,384.876099 255.617905,384.354248 
	C250.680237,383.863251 247.791840,380.927429 246.339218,376.481934 
	C244.802139,371.777924 246.575027,367.906219 250.201385,364.961578 
	C254.478455,361.488617 259.075012,361.827209 263.960846,364.798798 
z"/>
<path fill="#000000" opacity="1.000000" stroke="none" 
	d="
M309.516052,344.788269 
	C312.434814,338.291260 316.061615,336.035187 321.978760,336.713593 
	C326.561340,337.238983 330.159363,340.614075 331.153168,345.319611 
	C332.125336,349.922394 329.953552,354.743378 325.632965,357.122131 
	C321.830963,359.215332 317.904633,359.088837 314.288361,356.750183 
	C310.122162,354.055908 308.440338,350.123962 309.516052,344.788269 
z"/>
<path fill="#000000" opacity="1.000000" stroke="none" 
	d="
M219.094040,376.429108 
	C213.303146,372.805969 211.496643,368.834686 212.853333,363.350128 
	C213.903061,359.106415 218.205658,355.477295 222.513016,355.202393 
	C227.278748,354.898224 231.989700,357.664062 233.619553,362.030609 
	C235.173676,366.194244 234.779068,370.229980 231.670105,373.628723 
	C228.306335,377.306000 224.177094,378.262421 219.094040,376.429108 
z"/>
<path fill="#000000" opacity="1.000000" stroke="none" 
	d="
M229.960083,211.178223 
	C224.226349,215.760345 215.803329,212.319336 213.519775,207.232712 
	C211.057709,201.748428 213.252533,194.994476 218.613205,192.294952 
	C223.819916,189.672989 230.876892,192.161850 233.415787,197.515579 
	C235.579620,202.078430 234.595688,206.313354 229.960083,211.178223 
z"/>
<path fill="#000000" opacity="1.000000" stroke="none" 
	d="
M193.992996,358.382263 
	C186.605804,357.385498 182.547729,353.177063 182.748657,347.160675 
	C182.931625,341.682343 187.393600,336.995697 192.742996,336.663147 
	C199.050705,336.271027 203.720947,339.844635 204.860016,345.934937 
	C205.983246,351.940582 201.466980,357.323181 193.992996,358.382263 
z"/>
</svg>