<svg version="1.1" id="Layer_1" xmlns="http://www.w3.org/2000/svg" xmlns:xlink="http://www.w3.org/1999/xlink" x="0px" y="0px"
	 width="100%" viewBox="0 0 512 512" enable-background="new 0 0 512 512" xml:space="preserve">
<path fill="#000000" opacity="1.000000" stroke="none" 
	d="
M268.000000,393.922546 
	C287.832520,393.930145 307.165100,393.917786 326.497559,393.955933 
	C332.568909,393.967896 333.041992,394.456207 333.049835,400.534302 
	C333.079376,423.366638 332.956421,446.200134 333.173462,469.030518 
	C333.221497,474.085785 331.558075,475.543030 326.540131,475.524628 
	C279.876007,475.353485 233.211014,475.427734 186.546265,475.418854 
	C180.147369,475.417633 179.979584,475.262177 179.976608,469.090668 
	C179.965668,446.424957 179.968582,423.759186 179.996597,401.093506 
	C180.004990,394.295105 180.297180,393.982971 187.003479,393.973114 
	C213.835632,393.933655 240.667816,393.935516 268.000000,393.922546 
M308.293640,418.312958 
	C306.552399,416.446228 304.251892,417.084564 302.170807,417.073547 
	C290.687012,417.012787 279.202637,417.059448 267.718475,417.059052 
	C248.578186,417.058380 229.436310,417.182465 210.298706,416.952820 
	C205.440674,416.894531 203.943588,418.528503 204.143738,423.284760 
	C204.486298,431.425903 204.357803,439.593842 204.197205,447.746002 
	C204.128540,451.231232 205.038559,452.869232 208.921906,452.855682 
	C240.711029,452.744781 272.500763,452.767303 304.290131,452.831268 
	C307.387177,452.837494 308.888336,451.922974 308.829407,448.579865 
	C308.656494,438.765167 308.668304,428.947205 308.293640,418.312958 
z"/>
<path fill="#000000" opacity="1.000000" stroke="none" 
	d="
M204.388947,217.959335 
	C205.783310,224.926910 202.487701,230.374756 196.233093,231.978058 
	C190.954132,233.331284 185.173859,229.986130 183.313370,224.501190 
	C181.441772,218.983505 184.353439,212.909714 189.911072,210.738266 
	C195.748871,208.457352 201.202957,211.047104 204.388947,217.959335 
z"/>
<path fill="#000000" opacity="1.000000" stroke="none" 
	d="
M316.857971,231.603195 
	C310.398926,228.477631 307.875244,223.351456 309.716095,217.746231 
	C311.443512,212.486343 317.082458,209.100189 322.226074,210.234039 
	C328.240875,211.559937 331.766724,216.166229 331.311279,222.103149 
	C330.798645,228.785034 324.719482,232.946259 316.857971,231.603195 
z"/>
<path fill="#000000" opacity="1.000000" stroke="none" 
	d="
M167.904144,259.215790 
	C163.384445,253.813339 162.710831,249.963364 165.464020,245.341431 
	C167.887573,241.272842 171.493164,239.186951 176.317047,239.742615 
	C181.346664,240.321960 184.485367,243.269791 185.846085,248.038300 
	C187.136856,252.561722 185.404907,256.255188 182.034851,259.169647 
	C178.063400,262.604218 173.902328,262.597046 167.904144,259.215790 
z"/>
<path fill="#000000" opacity="1.000000" stroke="none" 
	d="
M350.243622,250.103668 
	C349.231293,257.000763 346.324524,260.642181 341.154877,261.503326 
	C336.290131,262.313721 332.267242,260.759277 329.610168,256.461365 
	C326.160400,250.881287 328.273651,243.909561 334.265686,240.779663 
	C339.575836,238.005920 346.404510,240.330444 349.057617,245.896118 
	C349.621277,247.078552 349.844757,248.423157 350.243622,250.103668 
z"/>
<path fill="#000000" opacity="1.000000" stroke="none" 
	d="
M175.878098,291.869507 
	C169.844467,296.278168 164.514862,296.347473 160.258423,292.354767 
	C156.397797,288.733337 155.600769,283.048676 158.340866,278.677887 
	C161.750626,273.238831 168.743225,271.614258 174.052856,275.027496 
	C179.446091,278.494476 180.286743,285.166351 175.878098,291.869507 
z"/>
<path fill="#000000" opacity="1.000000" stroke="none" 
	d="
M336.667419,328.682251 
	C328.881287,325.476257 326.060425,319.447144 329.108643,313.210327 
	C331.937714,307.421936 338.656403,305.183533 344.307648,308.146606 
	C348.699493,310.449341 351.083069,315.744171 349.910400,320.360748 
	C348.548431,325.722534 342.719971,330.182343 336.667419,328.682251 
z"/>
<path fill="#000000" opacity="1.000000" stroke="none" 
	d="
M260.355194,384.093903 
	C254.317657,385.054810 249.636780,383.688568 246.964325,378.238098 
	C244.712601,373.645721 245.748306,369.448120 249.168808,365.853149 
	C253.516220,361.284027 260.993866,361.395111 265.234253,365.969757 
	C269.692078,370.778992 269.046783,378.263519 263.781372,382.251709 
	C262.863190,382.947174 261.770203,383.411835 260.355194,384.093903 
z"/>
<path fill="#000000" opacity="1.000000" stroke="none" 
	d="
M264.820129,187.158127 
	C268.901245,192.811462 269.296692,196.732285 266.216400,201.168823 
	C263.656097,204.856369 260.099579,206.935059 255.519043,206.043594 
	C250.527298,205.072128 247.083450,202.122711 246.096222,196.938629 
	C245.224960,192.363617 247.126968,188.756531 250.724045,186.112274 
	C255.462234,182.629166 260.097992,183.691956 264.820129,187.158127 
z"/>
<path fill="#000000" opacity="1.000000" stroke="none" 
	d="
M174.969727,306.756897 
	C184.467255,307.113495 189.733978,317.553650 183.477966,325.054169 
	C179.503479,329.819336 172.021851,330.245911 167.491562,325.978088 
	C162.722580,321.485382 162.853500,313.959076 167.833420,309.675629 
	C169.751984,308.025391 171.935959,306.849274 174.969727,306.756897 
z"/>
<path fill="#000000" opacity="1.000000" stroke="none" 
	d="
M291.682068,191.423126 
	C299.123932,193.027130 302.396515,197.483032 301.442078,204.261093 
	C300.660675,209.810104 295.529572,213.727097 289.615112,213.289474 
	C283.931549,212.868942 279.652863,208.111847 279.674347,202.237244 
	C279.697845,195.814529 283.877106,191.904602 291.682068,191.423126 
z"/>
<path fill="#000000" opacity="1.000000" stroke="none" 
	d="
M357.296021,283.191956 
	C356.874634,290.354004 353.122223,294.769012 347.392944,295.288086 
	C341.885010,295.787109 337.199921,292.606934 335.682129,287.338928 
	C334.191376,282.164764 336.561188,276.793610 341.403870,274.370667 
	C348.007782,271.066467 354.807922,274.667908 357.296021,283.191956 
z"/>
<path fill="#000000" opacity="1.000000" stroke="none" 
	d="
M296.758240,357.031189 
	C301.538910,360.575165 302.546204,365.170380 300.975525,370.123199 
	C299.691772,374.171326 296.504059,376.678192 292.158356,377.245789 
	C287.400208,377.867218 283.571350,376.076935 281.160095,371.981506 
	C278.649353,367.717194 278.949768,363.364502 282.038727,359.420563 
	C285.415039,355.109772 290.127686,354.321106 296.758240,357.031189 
z"/>
<path fill="#000000" opacity="1.000000" stroke="none" 
	d="
M330.679352,343.911621 
	C331.786133,350.516327 330.269043,354.551422 325.705231,357.037842 
	C321.359894,359.405212 316.980988,359.036102 313.161560,355.926086 
	C309.481262,352.929321 308.316406,348.835632 309.692535,344.292480 
	C311.006470,339.954529 314.073059,337.316040 318.608215,336.725983 
	C324.222321,335.995544 327.571259,337.993439 330.679352,343.911621 
z"/>
<path fill="#000000" opacity="1.000000" stroke="none" 
	d="
M217.301392,357.161438 
	C223.590027,354.112457 229.403198,355.310638 232.585876,360.020569 
	C235.529205,364.376373 234.933777,370.457916 231.200119,374.174957 
	C227.281250,378.076324 221.246902,378.434387 216.659149,375.037842 
	C211.105637,370.926239 211.255051,363.065002 217.301392,357.161438 
z"/>
<path fill="#000000" opacity="1.000000" stroke="none" 
	d="
M231.716248,209.591873 
	C225.935776,214.193420 220.734589,214.453491 216.181427,210.655869 
	C212.555023,207.631195 211.436996,201.931747 213.598328,197.487595 
	C216.489594,191.542572 223.316925,189.539322 229.230957,192.900742 
	C234.868210,196.104843 235.993729,202.834152 231.716248,209.591873 
z"/>
<path fill="#000000" opacity="1.000000" stroke="none" 
	d="
M193.154144,358.360779 
	C185.998322,356.753540 182.296829,352.428864 182.764526,346.695221 
	C183.218216,341.133698 187.777710,336.798584 193.324402,336.655090 
	C199.421188,336.497375 203.901321,340.169952 204.892731,346.138245 
	C205.935394,352.414978 200.966141,357.789764 193.154144,358.360779 
z"/>
</svg>