<svg version="1.1" id="Layer_1" xmlns="http://www.w3.org/2000/svg" xmlns:xlink="http://www.w3.org/1999/xlink" x="0px" y="0px"
	 width="100%" viewBox="0 0 512 512" enable-background="new 0 0 512 512" xml:space="preserve">
<path fill="#000000" opacity="1.000000" stroke="none" 
	d="
M247.374420,412.422668 
	C250.743774,414.882751 253.792099,417.152191 257.272736,419.743439 
	C263.003143,413.749817 269.957031,409.532745 278.251190,408.334320 
	C298.142914,405.460205 316.836304,409.600250 326.760651,426.825592 
	C331.093933,434.346710 332.701141,442.630859 333.251434,451.193756 
	C333.445770,454.217590 332.200989,455.423828 329.201874,455.341400 
	C324.873383,455.222443 320.520477,455.067688 316.212189,455.388214 
	C311.543671,455.735535 309.851288,454.082031 309.586212,449.273682 
	C308.823730,435.444275 300.789215,428.556763 286.982666,429.223969 
	C276.130096,429.748444 268.988190,437.032471 267.611694,450.172882 
	C267.124084,454.827698 265.259155,455.795319 261.362274,455.342224 
	C260.869110,455.284912 260.363068,455.348816 259.863739,455.332367 
	C255.879944,455.201385 251.289780,456.249939 248.077942,454.606506 
	C244.653976,452.854553 246.243027,447.647156 245.265274,444.034607 
	C242.647568,434.362946 235.615829,429.164154 224.881638,429.161835 
	C214.423050,429.159576 207.218689,434.714630 204.513901,444.868256 
	C204.471146,445.028748 204.466293,445.201782 204.407867,445.355316 
	C203.237823,448.428345 204.747055,452.847015 202.037140,454.643829 
	C199.101669,456.590240 194.900635,455.317230 191.261047,455.295624 
	C178.053818,455.217255 178.830139,457.203461 181.329056,442.821655 
	C185.427582,419.233734 200.241821,407.860992 224.343826,407.559845 
	C232.310181,407.460297 239.941620,408.442352 247.374420,412.422668 
z"/>
<path fill="#000000" opacity="1.000000" stroke="none" 
	d="
M252.112885,383.459839 
	C246.455704,379.410400 244.720062,375.128296 246.439346,370.190186 
	C248.193253,365.152588 252.006134,362.524811 257.399292,362.636719 
	C262.644836,362.745544 266.478668,365.744934 267.874969,370.832275 
	C270.271179,379.562775 262.535156,385.997131 252.112885,383.459839 
z"/>
<path fill="#000000" opacity="1.000000" stroke="none" 
	d="
M182.962067,223.450943 
	C182.655701,216.072357 185.900116,211.401535 191.831177,210.140579 
	C196.606140,209.125412 202.087845,212.057083 203.997482,216.647263 
	C206.333817,222.263077 204.180222,228.190948 198.801865,230.948547 
	C193.438385,233.698471 187.368759,231.902832 184.221481,226.585358 
	C183.721375,225.740387 183.443176,224.764069 182.962067,223.450943 
z"/>
<path fill="#000000" opacity="1.000000" stroke="none" 
	d="
M338.218567,329.053253 
	C329.567017,326.411652 325.989838,320.332581 328.839905,313.738800 
	C330.877319,309.025177 335.710052,306.151062 340.431366,306.845123 
	C345.614136,307.606995 349.600067,311.665619 350.199036,316.790833 
	C350.734192,321.369720 347.610565,326.420624 342.977142,328.194122 
	C341.607697,328.718323 340.073425,328.811920 338.218567,329.053253 
z"/>
<path fill="#000000" opacity="1.000000" stroke="none" 
	d="
M171.749313,273.913269 
	C177.699081,277.261810 180.078659,281.759338 178.774277,286.613342 
	C177.379318,291.804413 172.991989,295.326050 167.928253,295.319275 
	C162.838654,295.312469 158.616013,292.135651 157.144577,287.234589 
	C154.559280,278.623566 163.356827,270.840668 171.749313,273.913269 
z"/>
<path fill="#000000" opacity="1.000000" stroke="none" 
	d="
M357.063080,281.560486 
	C357.455780,288.563690 355.011292,292.949585 350.014984,294.795135 
	C345.595825,296.427490 340.289764,294.903564 337.517517,291.046265 
	C334.891357,287.392334 334.282227,283.433685 336.427673,279.325623 
	C338.438049,275.476227 341.672211,273.217834 346.029816,273.292694 
	C351.356049,273.384155 355.183777,275.943268 357.063080,281.560486 
z"/>
<path fill="#000000" opacity="1.000000" stroke="none" 
	d="
M348.035706,244.158142 
	C351.110443,248.931763 350.968567,253.332245 347.716583,257.452179 
	C344.916779,260.999359 341.257874,262.414398 336.670929,261.421814 
	C332.063263,260.424713 329.451202,257.540100 328.260193,253.192795 
	C327.001770,248.599380 329.385315,243.520737 333.878418,240.972061 
	C338.438477,238.385422 343.133270,239.350800 348.035706,244.158142 
z"/>
<path fill="#000000" opacity="1.000000" stroke="none" 
	d="
M181.225830,241.449768 
	C186.263016,246.290558 187.423126,250.325348 185.231781,254.966034 
	C183.117844,259.442871 179.564377,261.936432 174.551468,261.732056 
	C169.289764,261.517548 165.453613,258.218628 164.205658,253.124329 
	C163.143005,248.786545 164.700226,245.199005 167.901978,242.389359 
	C171.872620,238.904984 176.311081,238.813828 181.225830,241.449768 
z"/>
<path fill="#000000" opacity="1.000000" stroke="none" 
	d="
M329.904663,226.468079 
	C326.575012,231.116501 322.607971,233.248764 317.184845,231.723969 
	C312.217255,230.327255 309.721863,226.777313 309.238190,221.923798 
	C308.759918,217.125122 311.182556,213.618423 315.273254,211.284958 
	C319.583679,208.826141 323.698456,209.767380 327.379333,212.585358 
	C331.451050,215.702591 332.266174,220.390839 329.904663,226.468079 
z"/>
<path fill="#000000" opacity="1.000000" stroke="none" 
	d="
M262.935974,185.785065 
	C268.192169,190.265305 269.512695,194.678436 267.115845,199.577011 
	C264.952209,203.998962 261.393158,206.515488 256.339142,206.173157 
	C251.129669,205.820297 246.966446,201.931076 246.043488,196.786224 
	C245.293427,192.605225 246.985153,189.228638 250.047913,186.607758 
	C253.904037,183.307983 258.192932,183.234756 262.935974,185.785065 
z"/>
<path fill="#000000" opacity="1.000000" stroke="none" 
	d="
M180.388382,308.239197 
	C185.702271,312.289917 187.293945,316.532410 185.561234,321.309998 
	C183.851471,326.024292 179.041031,329.406738 174.506744,329.082977 
	C169.622345,328.734222 165.448563,325.183624 164.229279,320.252869 
	C163.206482,316.116821 164.690170,312.660675 167.608459,309.878815 
	C171.244446,306.412811 175.488785,305.871979 180.388382,308.239197 
z"/>
<path fill="#000000" opacity="1.000000" stroke="none" 
	d="
M294.186035,376.862061 
	C286.822113,377.682709 282.725739,375.784698 280.484680,370.843170 
	C278.545135,366.566498 279.702057,361.198975 283.272614,358.084351 
	C286.744263,355.056061 290.756165,354.503937 294.927216,356.101166 
	C299.232239,357.749756 301.393494,361.195435 301.628052,365.744537 
	C301.900879,371.036224 299.205719,374.522980 294.186035,376.862061 
z"/>
<path fill="#000000" opacity="1.000000" stroke="none" 
	d="
M291.681793,191.419067 
	C299.082703,193.012558 302.511993,197.662262 301.472992,204.246506 
	C300.584534,209.876617 295.550049,213.720901 289.627014,213.292007 
	C283.932343,212.879654 279.653564,208.130524 279.672607,202.243286 
	C279.693420,195.804657 283.859985,191.903305 291.681793,191.419067 
z"/>
<path fill="#000000" opacity="1.000000" stroke="none" 
	d="
M320.902283,336.655640 
	C328.179199,337.947510 332.076782,342.832581 331.274811,349.134949 
	C330.574677,354.637207 325.456543,358.703278 319.581238,358.424866 
	C313.648132,358.143677 308.953613,353.192139 309.042938,347.309509 
	C309.134460,341.280212 313.550323,337.158997 320.902283,336.655640 
z"/>
<path fill="#000000" opacity="1.000000" stroke="none" 
	d="
M213.019531,362.749451 
	C216.583496,356.367035 220.069717,354.452362 225.506897,355.545227 
	C230.443542,356.537476 233.497620,359.467957 234.268036,364.447754 
	C235.080414,369.698608 232.722855,374.173431 228.104248,376.339630 
	C224.355911,378.097687 220.712433,377.659302 217.239471,375.418427 
	C212.615891,372.435059 212.148071,368.008606 213.019531,362.749451 
z"/>
<path fill="#000000" opacity="1.000000" stroke="none" 
	d="
M212.854492,205.430252 
	C210.862244,195.682007 219.147690,189.772354 225.737747,191.560135 
	C230.534195,192.861328 233.833755,196.060150 234.317078,200.653061 
	C234.887207,206.070877 232.261307,210.653412 227.453247,212.631180 
	C223.283112,214.346527 217.752319,212.934875 214.872253,209.293518 
	C214.064484,208.272217 213.576752,206.997772 212.854492,205.430252 
z"/>
<path fill="#000000" opacity="1.000000" stroke="none" 
	d="
M183.432556,351.081818 
	C182.147095,344.171783 184.828171,338.853790 190.172134,337.029022 
	C195.464020,335.222015 201.781708,337.938629 203.985458,342.968658 
	C206.219345,348.067505 204.431915,353.822937 199.676117,356.844543 
	C193.927765,360.496857 187.275635,358.269928 183.432556,351.081818 
z"/>
</svg>