<svg version="1.1" id="Layer_1" xmlns="http://www.w3.org/2000/svg" xmlns:xlink="http://www.w3.org/1999/xlink" x="0px" y="0px"
	 width="100%" viewBox="0 0 512 512" enable-background="new 0 0 512 512" xml:space="preserve">
<path fill="#000000" opacity="1.000000" stroke="none" 
	d="
M216.385574,104.559143 
	C220.987396,99.712090 225.485855,95.254074 229.755936,90.587090 
	C232.141724,87.979538 233.918167,88.153442 236.303207,90.630524 
	C242.078827,96.628990 248.151047,102.341827 253.928802,108.338326 
	C256.202545,110.698143 257.791351,110.682602 260.031982,108.306595 
	C265.630585,102.369736 271.552399,96.735931 277.103607,90.756874 
	C279.656128,88.007652 281.580353,88.001282 284.082520,90.650833 
	C287.854919,94.645393 291.701752,98.585945 295.739807,102.307671 
	C298.440735,104.797028 298.514526,106.670738 295.790527,109.231873 
	C290.209991,114.478767 284.850555,119.962173 279.446655,125.394508 
	C278.179871,126.667946 276.573578,127.697250 275.711578,130.381393 
	C281.947998,136.519989 288.326935,143.053223 295.005768,149.263931 
	C298.263519,152.293350 298.826202,154.548477 295.129639,157.643463 
	C291.179596,160.950668 287.461304,164.577713 283.950134,168.351944 
	C281.294067,171.206985 279.449615,170.668610 277.019897,168.108490 
	C271.861328,162.673096 266.478577,157.450027 261.168732,152.158997 
	C259.898621,150.893402 258.553955,149.702637 256.315857,147.610001 
	C249.856293,154.353104 243.523087,160.695435 237.522537,167.338257 
	C234.377945,170.819443 231.985107,171.280319 228.741318,167.486969 
	C225.612000,163.827469 222.063980,160.498825 218.491852,157.253860 
	C215.679489,154.699112 215.403061,152.696854 218.335068,149.906479 
	C224.003311,144.512070 229.216858,138.637650 234.920868,133.283966 
	C238.042862,130.353729 237.717087,128.422836 234.763412,125.665489 
	C229.165649,120.439842 223.856995,114.902191 218.488510,109.434975 
	C217.271118,108.195198 215.443756,107.139061 216.385574,104.559143 
z"/>
<path fill="#000000" opacity="1.000000" stroke="none" 
	d="
M339.011597,329.112091 
	C329.869354,326.922485 325.838287,320.550140 328.849670,313.680145 
	C330.896118,309.011475 335.692200,306.164642 340.387451,306.831635 
	C345.527557,307.561768 349.618591,311.638550 350.210083,316.619995 
	C350.756897,321.225250 347.787933,326.216156 343.240540,328.125031 
	C342.038208,328.629669 340.693512,328.795074 339.011597,329.112091 
z"/>
<path fill="#000000" opacity="1.000000" stroke="none" 
	d="
M256.161804,362.649109 
	C263.590942,363.018280 267.984711,366.946594 268.247650,373.059753 
	C268.481140,378.489227 264.218628,383.653961 258.946655,384.329346 
	C252.620453,385.139832 247.573395,381.813873 246.119980,375.876648 
	C244.633789,369.805603 248.754211,364.143799 256.161804,362.649109 
z"/>
<path fill="#000000" opacity="1.000000" stroke="none" 
	d="
M169.675629,308.326172 
	C176.327667,305.608398 182.243454,307.472839 184.938431,312.816498 
	C187.675430,318.243469 185.806702,324.399994 180.494385,327.457458 
	C175.396103,330.391724 169.209305,328.987030 165.962219,324.157990 
	C162.301788,318.714233 163.471573,313.318420 169.675629,308.326172 
z"/>
<path fill="#000000" opacity="1.000000" stroke="none" 
	d="
M350.879150,294.404327 
	C345.626984,296.244385 341.227417,295.490723 337.856018,291.464142 
	C334.974976,288.023254 334.175232,283.961243 336.181854,279.804626 
	C338.318329,275.379028 341.877777,272.941620 346.983032,273.360687 
	C351.977234,273.770660 355.386475,276.368896 356.930420,281.136414 
	C358.533813,286.087372 356.576752,290.414490 350.879150,294.404327 
z"/>
<path fill="#000000" opacity="1.000000" stroke="none" 
	d="
M164.137726,273.854248 
	C169.674759,272.642578 174.206177,273.599091 177.199234,278.291687 
	C179.750198,282.291168 179.820786,286.439850 176.983002,290.447998 
	C174.332367,294.191833 170.727982,295.931671 166.194412,295.209656 
	C161.699112,294.493805 158.676590,291.824188 157.241989,287.477448 
	C155.839020,283.226501 157.077957,279.567596 160.085342,276.492676 
	C161.107193,275.447876 162.531586,274.796783 164.137726,273.854248 
z"/>
<path fill="#000000" opacity="1.000000" stroke="none" 
	d="
M331.662750,242.562653 
	C338.447021,238.154556 344.925140,239.134369 348.461426,244.802429 
	C351.850616,250.234711 350.108215,256.996399 344.463165,260.318420 
	C340.072296,262.902374 334.239319,261.966522 330.811432,258.128113 
	C326.743256,253.572754 326.919983,248.708130 331.662750,242.562653 
z"/>
<path fill="#000000" opacity="1.000000" stroke="none" 
	d="
M186.258102,250.919678 
	C185.352585,256.807861 182.438370,260.585938 176.829575,261.545807 
	C172.417923,262.300781 168.572037,260.859314 165.964310,257.042114 
	C163.393494,253.278946 163.082748,249.285095 165.486069,245.311005 
	C167.706436,241.639404 170.912277,239.527222 175.352875,239.687973 
	C179.942886,239.854156 183.271927,242.023178 185.151642,246.197891 
	C185.752350,247.532028 185.909424,249.065948 186.258102,250.919678 
z"/>
<path fill="#000000" opacity="1.000000" stroke="none" 
	d="
M326.083588,211.639969 
	C331.325867,216.278320 332.645325,220.793137 330.420044,225.479614 
	C328.207611,230.138901 323.331360,232.879822 318.653320,232.093643 
	C313.513367,231.229843 310.105103,227.621475 309.261780,222.432816 
	C307.988708,214.599716 317.646088,206.284531 326.083588,211.639969 
z"/>
<path fill="#000000" opacity="1.000000" stroke="none" 
	d="
M200.571564,212.244110 
	C205.212845,217.232330 206.194550,221.522934 203.756653,226.007401 
	C201.393463,230.354446 197.637207,232.670547 192.675934,232.126434 
	C187.738953,231.584976 184.440262,228.638245 183.106323,223.827026 
	C181.864624,219.348450 183.368881,215.566605 186.824432,212.650574 
	C191.076355,209.062500 195.643372,209.327972 200.571564,212.244110 
z"/>
<path fill="#000000" opacity="1.000000" stroke="none" 
	d="
M301.223846,363.029419 
	C302.333801,368.456848 301.067108,372.624603 296.615784,375.544312 
	C292.749298,378.080383 288.753326,378.058228 284.858856,375.751740 
	C280.680695,373.277283 278.770081,368.439331 279.829346,363.674500 
	C280.764679,359.467072 284.936218,355.830597 289.398895,355.332397 
	C294.516815,354.761047 298.199677,357.054718 301.223846,363.029419 
z"/>
<path fill="#000000" opacity="1.000000" stroke="none" 
	d="
M252.398193,205.037582 
	C246.625656,201.135956 244.743103,196.720963 246.488281,191.857254 
	C248.233856,186.992493 252.945190,183.591156 257.420868,183.964478 
	C262.781067,184.411606 266.861359,187.909760 268.008240,193.041351 
	C269.874481,201.391754 261.671417,207.935043 252.398193,205.037582 
z"/>
<path fill="#000000" opacity="1.000000" stroke="none" 
	d="
M281.657471,195.947479 
	C285.370087,191.376694 289.858643,190.317612 294.853882,192.105606 
	C299.178070,193.653397 301.275848,197.072754 301.548309,201.678268 
	C301.836426,206.548904 299.696503,209.968719 295.499420,212.191345 
	C291.272461,214.429825 286.126831,213.508865 282.701660,209.988632 
	C279.117096,206.304581 278.694275,201.710510 281.657471,195.947479 
z"/>
<path fill="#000000" opacity="1.000000" stroke="none" 
	d="
M311.124512,341.289490 
	C314.759949,336.583282 319.301727,335.654846 324.290894,337.275055 
	C328.678345,338.699921 330.838562,342.220215 331.282562,346.711517 
	C331.741608,351.355530 329.529724,354.720703 325.720093,357.081329 
	C321.859680,359.473389 316.193909,358.786774 312.739868,355.662842 
	C308.886536,352.177795 308.246063,347.290222 311.124512,341.289490 
z"/>
<path fill="#000000" opacity="1.000000" stroke="none" 
	d="
M218.585144,356.307465 
	C225.510803,354.389984 230.478134,356.067780 233.134216,360.910919 
	C235.563644,365.340759 234.564438,371.202820 230.807495,374.561127 
	C226.151611,378.723053 218.689850,378.137085 214.813492,373.305054 
	C210.728485,368.212921 212.171478,361.177490 218.585144,356.307465 
z"/>
<path fill="#000000" opacity="1.000000" stroke="none" 
	d="
M212.731659,204.605453 
	C211.148422,197.136780 217.619385,190.723572 223.753998,191.323257 
	C229.417511,191.876862 233.572342,195.239456 234.285095,200.260681 
	C235.087631,205.914322 231.945084,211.232620 226.807144,212.916000 
	C221.891586,214.526535 216.362762,212.209030 213.651581,207.353165 
	C213.252258,206.637970 213.061646,205.806229 212.731659,204.605453 
z"/>
<path fill="#000000" opacity="1.000000" stroke="none" 
	d="
M202.992264,341.206909 
	C206.422302,348.945404 204.130051,355.629089 197.590012,357.918335 
	C191.704147,359.978607 185.200012,356.681702 183.257095,350.653107 
	C181.757797,346.001007 183.715424,340.899536 188.044540,338.177307 
	C192.770096,335.205719 197.817963,336.133636 202.992264,341.206909 
z"/>
</svg>