<svg version="1.1" id="Layer_1" xmlns="http://www.w3.org/2000/svg" xmlns:xlink="http://www.w3.org/1999/xlink" x="0px" y="0px"
	 width="100%" viewBox="0 0 512 512" enable-background="new 0 0 512 512" xml:space="preserve">
<path fill="#000000" opacity="1.000000" stroke="none" 
	d="
M237.014435,68.091454 
	C248.810913,55.453602 263.784943,52.123665 279.868744,51.696308 
	C282.493927,51.626560 283.416931,52.943180 283.329773,55.378525 
	C283.270233,57.042202 283.381073,58.711517 283.339050,60.376377 
	C283.242645,64.196159 284.206299,68.556946 282.673676,71.686264 
	C281.035309,75.031487 275.922607,72.829163 272.654266,74.433731 
	C270.720337,75.383186 268.575623,75.938622 266.722992,77.011856 
	C260.432526,80.655945 258.665100,86.339302 262.198486,92.684998 
	C264.619781,97.033463 267.637909,101.057213 270.487946,105.157524 
	C274.680084,111.188713 278.713226,117.305916 281.078735,124.329384 
	C285.885742,138.602188 281.268463,151.712067 268.528809,159.820267 
	C258.071014,166.476151 246.281006,168.330658 234.210297,169.057755 
	C232.013351,169.190094 230.716385,168.232941 230.717346,165.882309 
	C230.719452,160.717239 230.745407,155.551834 230.694733,150.387222 
	C230.665192,147.376953 232.629013,146.850449 234.985214,146.767868 
	C239.746964,146.600922 244.215790,145.421387 248.181946,142.739090 
	C253.298477,139.278793 254.780655,134.616074 252.568573,128.839417 
	C250.094620,122.378883 245.692566,117.076027 241.847885,111.445892 
	C237.138062,104.548859 232.801483,97.574722 231.516495,89.009346 
	C230.352875,81.252975 232.224411,74.535736 237.014435,68.091454 
z"/>
<path fill="#000000" opacity="1.000000" stroke="none" 
	d="
M336.664978,328.696716 
	C330.353455,326.113312 327.203033,321.589233 327.960144,316.614410 
	C328.752014,311.411285 333.320740,307.062256 338.320374,306.752289 
	C343.378906,306.438721 348.069733,309.678772 349.711792,314.620636 
	C352.266815,322.310120 345.917175,329.425781 336.664978,328.696716 
z"/>
<path fill="#000000" opacity="1.000000" stroke="none" 
	d="
M256.154877,384.376648 
	C249.079376,382.997192 245.046997,378.005188 245.899551,372.188843 
	C246.781738,366.170197 252.079590,362.157379 258.456116,362.678009 
	C263.917847,363.123962 268.233521,367.857544 268.258301,373.429352 
	C268.286194,379.696259 263.728027,383.978882 256.154877,384.376648 
z"/>
<path fill="#000000" opacity="1.000000" stroke="none" 
	d="
M184.812012,312.591888 
	C187.465759,320.152039 185.034851,325.986115 178.575546,328.363861 
	C172.875641,330.462036 166.754913,327.401062 164.576797,321.362976 
	C162.802811,316.445190 164.997009,310.991608 169.875366,308.193665 
	C174.957748,305.278717 180.214966,306.724091 184.812012,312.591888 
z"/>
<path fill="#000000" opacity="1.000000" stroke="none" 
	d="
M356.671234,288.080017 
	C353.204437,294.149445 349.347229,296.225403 343.950348,295.193634 
	C339.395691,294.322937 335.768097,290.402924 335.275391,285.422546 
	C334.781250,280.427521 337.009644,276.673279 341.398895,274.402435 
	C345.278900,272.395050 349.251740,272.914337 352.728424,275.359741 
	C357.021606,278.379456 358.153656,282.701019 356.671234,288.080017 
z"/>
<path fill="#000000" opacity="1.000000" stroke="none" 
	d="
M171.001221,273.730164 
	C177.062653,276.537811 179.872650,280.999817 178.988693,285.866638 
	C178.070602,290.921234 173.610123,295.024902 168.722855,295.311249 
	C163.377502,295.624451 158.983810,292.562347 157.232193,287.522156 
	C154.512253,279.695679 162.445297,271.114044 171.001221,273.730164 
z"/>
<path fill="#000000" opacity="1.000000" stroke="none" 
	d="
M328.175201,248.592590 
	C332.058990,238.936569 341.737793,236.580643 347.533264,243.525406 
	C350.920563,247.584442 351.147003,252.517761 348.147247,256.901489 
	C345.270050,261.106079 340.427673,262.722809 335.411560,261.153534 
	C330.528625,259.625916 327.910400,255.287888 328.175201,248.592590 
z"/>
<path fill="#000000" opacity="1.000000" stroke="none" 
	d="
M169.823059,260.487183 
	C164.189468,256.115631 162.728378,252.044098 164.689499,246.962662 
	C166.478424,242.327393 170.702103,239.490585 175.518723,239.689362 
	C180.606628,239.899338 184.543839,243.211243 185.952866,248.215744 
	C188.002853,255.496780 179.705322,265.220551 169.823059,260.487183 
z"/>
<path fill="#000000" opacity="1.000000" stroke="none" 
	d="
M310.184326,216.514053 
	C313.206909,211.792191 316.853302,209.062363 322.432831,210.279373 
	C327.368256,211.355896 330.374481,214.413803 331.203796,219.340363 
	C332.047089,224.349854 329.825989,228.119049 325.638428,230.697357 
	C321.456635,233.272125 317.139618,232.739883 313.482330,229.869949 
	C309.264771,226.560379 308.167938,221.994751 310.184326,216.514053 
z"/>
<path fill="#000000" opacity="1.000000" stroke="none" 
	d="
M204.503662,224.154175 
	C202.414246,229.597107 198.681625,232.304199 193.281540,232.190384 
	C187.566925,232.069901 182.964966,227.207382 182.726715,221.485779 
	C182.505264,216.168289 186.604797,211.163162 192.055313,210.096436 
	C197.248123,209.080139 202.698944,212.549179 204.377167,217.928024 
	C204.979660,219.859070 205.481171,221.788101 204.503662,224.154175 
z"/>
<path fill="#000000" opacity="1.000000" stroke="none" 
	d="
M246.188461,192.652405 
	C248.768295,183.543594 259.404053,180.879517 265.679260,188.191742 
	C268.596802,191.591461 269.163116,195.713638 266.999207,199.855621 
	C264.914703,203.845566 261.621338,206.344482 257.036041,206.175339 
	C252.396362,206.004166 248.758469,203.762863 246.826950,199.360413 
	C245.954056,197.370804 245.466797,195.241638 246.188461,192.652405 
z"/>
<path fill="#000000" opacity="1.000000" stroke="none" 
	d="
M298.009583,193.906616 
	C303.145813,200.521088 302.703186,207.206039 297.173615,211.183975 
	C291.902283,214.976120 285.070099,213.767624 281.419861,208.397400 
	C278.664673,204.343948 279.058197,198.726288 282.357849,195.008316 
	C286.196838,190.682648 291.592834,190.209473 298.009583,193.906616 
z"/>
<path fill="#000000" opacity="1.000000" stroke="none" 
	d="
M284.033997,375.193787 
	C279.555481,371.373199 278.431213,366.883484 280.544067,361.937103 
	C282.483368,357.397064 286.254272,355.056519 291.271973,355.339355 
	C296.021881,355.607117 299.573425,357.966461 301.051971,362.560791 
	C302.545044,367.200165 301.677429,371.576050 297.750244,374.750458 
	C293.556793,378.140076 288.979248,378.373077 284.033997,375.193787 
z"/>
<path fill="#000000" opacity="1.000000" stroke="none" 
	d="
M313.117859,355.988892 
	C308.440369,350.494629 307.897552,345.884613 311.121307,341.292419 
	C314.086639,337.068359 319.518158,335.417725 324.414948,337.252472 
	C328.914307,338.938324 331.777771,343.751373 331.295074,348.816864 
	C330.496521,357.196625 321.699585,360.842743 313.117859,355.988892 
z"/>
<path fill="#000000" opacity="1.000000" stroke="none" 
	d="
M231.995621,195.211700 
	C235.238525,200.947922 235.174545,205.479904 231.923065,209.331558 
	C228.832260,212.992859 224.831207,214.190216 220.286606,212.895615 
	C214.154663,211.148834 210.992554,204.678848 213.073166,198.583267 
	C215.100082,192.645004 221.652176,189.702377 227.650421,192.189499 
	C229.136597,192.805725 230.390259,193.982712 231.995621,195.211700 
z"/>
<path fill="#000000" opacity="1.000000" stroke="none" 
	d="
M218.583969,356.305603 
	C225.510956,354.387909 230.477570,356.065796 233.134079,360.910522 
	C235.563416,365.340973 234.564346,371.205414 230.808380,374.562012 
	C226.152176,378.723114 218.688293,378.136963 214.812515,373.305786 
	C210.728943,368.215576 212.171875,361.178375 218.583969,356.305603 
z"/>
<path fill="#000000" opacity="1.000000" stroke="none" 
	d="
M198.038391,337.329041 
	C203.976852,340.931305 206.055328,345.180695 204.597458,350.170349 
	C203.081146,355.360016 198.831284,358.525879 193.569931,358.385162 
	C188.418030,358.247345 184.397263,355.077423 183.067459,350.105133 
	C180.852173,341.821930 187.877884,335.587524 198.038391,337.329041 
z"/>
</svg>