<svg version="1.1" id="Layer_1" xmlns="http://www.w3.org/2000/svg" xmlns:xlink="http://www.w3.org/1999/xlink" x="0px" y="0px"
	 width="100%" viewBox="0 0 512 512" enable-background="new 0 0 512 512" xml:space="preserve">
<path fill="#000000" opacity="1.000000" stroke="none" 
	d="
M269.999939,41.263512 
	C239.688416,41.260967 209.876144,41.151268 180.066086,41.358696 
	C175.022888,41.393791 173.207764,39.928387 173.563934,34.844521 
	C173.958710,29.209330 173.745148,23.524195 173.635208,17.863939 
	C173.576843,14.858233 174.847305,13.695258 177.800568,13.730062 
	C184.960876,13.814444 192.122986,13.735530 199.284378,13.735672 
	C244.251465,13.736567 289.218536,13.741756 334.185638,13.743711 
	C341.166595,13.744015 341.226166,13.780926 341.253479,20.613670 
	C341.274139,25.776424 341.046600,30.948954 341.296387,36.099346 
	C341.512939,40.565376 339.221863,41.298363 335.452240,41.282448 
	C313.801849,41.191059 292.150787,41.253082 269.999939,41.263512 
z"/>
<path fill="#000000" opacity="1.000000" stroke="none" 
	d="
M270.000061,66.668365 
	C291.972473,66.672943 313.446716,66.831390 334.915894,66.571266 
	C340.081573,66.508682 341.688324,68.222382 341.326538,73.173309 
	C340.963593,78.140762 340.990356,83.170197 341.302551,88.143822 
	C341.600098,92.884903 339.507965,94.319176 335.122437,94.117455 
	C330.305511,93.895889 325.470520,94.066795 320.643402,94.067909 
	C274.203156,94.078575 227.762909,94.090736 181.322662,94.099113 
	C173.660950,94.100494 173.658722,94.092949 173.652161,86.390770 
	C173.648193,81.730095 173.944672,77.045914 173.572083,72.415260 
	C173.187088,67.630653 175.222702,66.557526 179.616150,66.587906 
	C203.584167,66.753677 227.553940,66.668343 251.523102,66.669159 
	C257.515411,66.669365 263.507751,66.668823 270.000061,66.668365 
z"/>
<path fill="#000000" opacity="1.000000" stroke="none" 
	d="
M329.717682,311.988831 
	C334.499664,306.705109 338.514343,305.497650 343.526855,307.765259 
	C348.062378,309.817047 350.373596,313.460510 350.212006,318.421448 
	C350.053589,323.283875 346.440094,327.453033 341.525543,328.714264 
	C337.229950,329.816681 333.565277,328.361053 330.794006,325.187164 
	C327.423035,321.326416 326.830902,316.917877 329.717682,311.988831 
z"/>
<path fill="#000000" opacity="1.000000" stroke="none" 
	d="
M260.087158,384.210388 
	C254.306488,385.035400 249.813293,383.691162 247.121414,378.554688 
	C244.870285,374.259125 245.566391,370.219452 248.529495,366.509766 
	C251.590881,362.677063 255.757034,361.886230 260.194122,362.929840 
	C264.654877,363.979034 267.248199,367.265289 268.044434,371.653320 
	C268.851562,376.101410 267.157837,379.790466 263.503632,382.477173 
	C262.581604,383.155121 261.478729,383.587097 260.087158,384.210388 
z"/>
<path fill="#000000" opacity="1.000000" stroke="none" 
	d="
M200.625153,229.839386 
	C195.988556,232.974319 191.579636,233.100418 187.353531,230.062149 
	C183.692963,227.430466 182.065063,223.626877 182.909821,219.191574 
	C183.787445,214.583740 186.769806,211.616348 191.313980,210.329330 
	C195.421249,209.166061 200.708847,211.221939 203.054565,214.846252 
	C206.335266,219.915176 205.735779,224.106491 200.625153,229.839386 
z"/>
<path fill="#000000" opacity="1.000000" stroke="none" 
	d="
M318.433746,232.058929 
	C308.968994,228.733704 306.207977,219.368683 312.512482,213.261032 
	C316.373840,209.520264 321.722565,208.926422 326.265472,211.734116 
	C330.222321,214.179596 332.298279,219.437988 331.080688,223.930984 
	C329.713898,228.974548 325.064819,232.091537 318.433746,232.058929 
z"/>
<path fill="#000000" opacity="1.000000" stroke="none" 
	d="
M185.208313,246.218475 
	C187.245300,253.206329 184.538177,259.115784 178.665161,261.183167 
	C173.053528,263.158539 166.967789,260.341461 164.734680,254.734726 
	C162.551208,249.252625 165.074600,243.219345 170.652557,240.585464 
	C175.888107,238.113266 181.078003,240.007767 185.208313,246.218475 
z"/>
<path fill="#000000" opacity="1.000000" stroke="none" 
	d="
M347.220215,258.143616 
	C342.173920,263.898376 332.961823,262.138916 329.661957,256.671234 
	C326.273651,251.057053 328.138977,244.089951 334.079468,240.867844 
	C338.161469,238.653778 343.684082,239.518372 346.981689,242.887787 
	C351.078583,247.073883 351.231934,251.859650 347.220215,258.143616 
z"/>
<path fill="#000000" opacity="1.000000" stroke="none" 
	d="
M163.206314,294.287292 
	C157.608429,290.515045 155.585754,285.841675 157.174347,281.048767 
	C158.818024,276.089691 163.621323,272.895844 168.723434,273.369507 
	C174.296844,273.886932 177.835114,277.131287 178.898514,282.699310 
	C180.457703,290.863220 172.524246,296.944427 163.206314,294.287292 
z"/>
<path fill="#000000" opacity="1.000000" stroke="none" 
	d="
M336.395569,289.276917 
	C334.111572,283.869873 335.123993,279.415680 339.184296,275.837982 
	C342.832764,272.623199 347.117706,272.506897 351.323608,274.529999 
	C355.662170,276.616913 357.657806,280.362671 357.280701,285.140045 
	C356.885559,290.145508 354.010895,293.477661 349.338043,294.992981 
	C344.402740,296.593384 340.229675,294.682373 336.395569,289.276917 
z"/>
<path fill="#000000" opacity="1.000000" stroke="none" 
	d="
M169.058441,327.176941 
	C163.933578,322.445312 162.688065,318.472961 164.874039,313.734100 
	C166.927963,309.281525 170.441574,306.667419 175.475662,306.778961 
	C180.497208,306.890198 184.591248,310.373932 185.894562,315.373230 
	C187.025711,319.712036 185.503372,323.376404 182.329697,326.157196 
	C178.443192,329.562531 173.999771,330.084717 169.058441,327.176941 
z"/>
<path fill="#000000" opacity="1.000000" stroke="none" 
	d="
M292.448639,355.524384 
	C299.680389,357.638123 302.884949,362.696625 301.355225,369.041992 
	C300.010345,374.620667 294.768463,378.062775 288.841187,377.259399 
	C283.123199,376.484406 279.134460,371.127075 279.690765,364.969360 
	C280.226562,359.038544 285.064789,355.320282 292.448639,355.524384 
z"/>
<path fill="#000000" opacity="1.000000" stroke="none" 
	d="
M246.193954,197.394333 
	C244.713516,190.625702 250.171463,184.791489 255.675858,184.011810 
	C260.828308,183.281967 266.243500,187.040421 267.779510,192.333557 
	C269.321320,197.646744 266.251556,203.413940 260.741425,205.556152 
	C254.974228,207.798294 249.063461,204.615128 246.193954,197.394333 
z"/>
<path fill="#000000" opacity="1.000000" stroke="none" 
	d="
M283.789124,193.696838 
	C289.439941,190.512222 294.841553,190.719620 298.336548,194.227356 
	C301.867767,197.771439 302.535828,202.116089 300.825989,206.662491 
	C299.108368,211.229614 294.164642,213.875427 289.111542,213.250366 
	C284.724976,212.707779 281.692230,210.138474 280.274567,206.130447 
	C278.641144,201.512497 279.710144,197.285080 283.789124,193.696838 
z"/>
<path fill="#000000" opacity="1.000000" stroke="none" 
	d="
M310.268311,342.575439 
	C313.389618,337.203217 317.952332,335.770325 323.289612,336.950409 
	C328.028381,337.998169 330.565918,341.483521 331.229736,346.154480 
	C331.945312,351.189911 329.666138,354.972931 325.322327,357.272552 
	C321.128174,359.492950 316.826324,359.011566 313.188965,355.981445 
	C309.011536,352.501373 308.121185,347.982208 310.268311,342.575439 
z"/>
<path fill="#000000" opacity="1.000000" stroke="none" 
	d="
M213.345978,361.984497 
	C217.216370,355.895935 220.802765,354.190613 226.320923,355.700409 
	C230.933517,356.962463 233.750992,359.957855 234.306870,364.775635 
	C234.918472,370.076111 232.488678,374.451477 227.802078,376.479889 
	C223.792694,378.215240 219.949127,377.550446 216.550873,374.949768 
	C212.263809,371.668793 211.998032,367.167938 213.345978,361.984497 
z"/>
<path fill="#000000" opacity="1.000000" stroke="none" 
	d="
M182.742584,347.095154 
	C183.623688,341.442078 186.346100,337.695160 191.753510,336.772095 
	C196.518967,335.958618 200.695358,337.422913 203.348404,341.728668 
	C206.764908,347.273529 204.580673,354.425598 198.724686,357.370667 
	C192.978439,360.260590 185.947388,357.505890 183.571320,351.355499 
	C183.103821,350.145386 183.002350,348.793823 182.742584,347.095154 
z"/>
<path fill="#000000" opacity="1.000000" stroke="none" 
	d="
M229.299133,211.630432 
	C222.359833,214.717682 215.995758,212.712296 213.429794,206.960770 
	C210.991837,201.496231 213.528564,194.601669 218.871048,192.171936 
	C224.232193,189.733734 231.167984,192.393082 233.551498,197.800827 
	C235.692413,202.658188 234.414902,207.083817 229.299133,211.630432 
z"/>
</svg>