<svg version="1.1" id="Layer_1" xmlns="http://www.w3.org/2000/svg" xmlns:xlink="http://www.w3.org/1999/xlink" x="0px" y="0px"
	 width="100%" viewBox="0 0 512 512" enable-background="new 0 0 512 512" xml:space="preserve">
<path fill="#000000" opacity="1.000000" stroke="none" 
	d="
M204.791077,97.046661 
	C203.925079,93.093140 205.136444,91.531876 209.044601,91.589317 
	C220.688919,91.760429 232.337769,91.704643 243.983871,91.613342 
	C246.648300,91.592461 248.174164,92.573486 249.446472,94.949326 
	C259.517944,113.756142 270.930725,131.707596 284.225128,148.420517 
	C286.023285,150.681061 287.122284,153.123978 285.808655,155.748932 
	C284.612793,158.138504 281.958130,157.192093 279.915436,157.210434 
	C260.786743,157.382233 260.646576,157.504852 246.685242,144.218781 
	C231.496353,129.764496 216.603439,114.999374 204.791077,97.046661 
z"/>
<path fill="#000000" opacity="1.000000" stroke="none" 
	d="
M335.152161,328.223663 
	C329.264923,324.850647 326.943756,320.422516 328.210510,315.560699 
	C329.492706,310.639740 333.717804,306.987793 338.411163,306.743713 
	C343.523682,306.477875 348.124725,309.725067 349.755005,314.704590 
	C351.083313,318.761719 349.913727,322.368256 347.223358,325.284729 
	C344.103943,328.666382 340.149994,330.109589 335.152161,328.223663 
z"/>
<path fill="#000000" opacity="1.000000" stroke="none" 
	d="
M249.561005,365.435730 
	C256.188171,360.946350 263.279663,362.074799 266.643890,367.839874 
	C269.965942,373.532684 267.855988,380.502014 261.916748,383.454193 
	C257.393097,385.702728 251.586319,384.455475 248.400620,380.551025 
	C244.707764,376.025024 244.982315,371.344269 249.561005,365.435730 
z"/>
<path fill="#000000" opacity="1.000000" stroke="none" 
	d="
M182.826202,325.817322 
	C175.771683,330.473480 169.373306,329.610535 165.757355,323.820648 
	C162.300964,318.286163 164.164810,311.276520 169.945648,308.069000 
	C174.182159,305.718353 179.727600,306.637604 183.149521,310.257721 
	C187.219604,314.563568 187.204758,319.461243 182.826202,325.817322 
z"/>
<path fill="#000000" opacity="1.000000" stroke="none" 
	d="
M335.101257,284.023956 
	C336.733643,277.076233 340.310883,273.480194 345.498291,273.183411 
	C350.296173,272.908905 354.774475,275.746307 356.572449,280.199921 
	C358.830261,285.792450 356.003357,292.350647 350.337860,294.663727 
	C344.893768,296.886414 338.461761,294.257202 336.173401,288.761993 
	C335.606354,287.400299 335.445160,285.869598 335.101257,284.023956 
z"/>
<path fill="#000000" opacity="1.000000" stroke="none" 
	d="
M330.574158,216.989838 
	C333.448090,225.104889 327.384857,231.141312 321.992493,232.123077 
	C316.048096,233.205322 310.453369,229.039276 309.348755,222.788483 
	C308.446075,217.680420 311.523376,212.601471 316.730804,210.604813 
	C321.925903,208.612885 326.801453,210.756271 330.574158,216.989838 
z"/>
<path fill="#000000" opacity="1.000000" stroke="none" 
	d="
M175.820419,261.796875 
	C166.853043,262.302429 160.964417,252.644241 165.444275,245.353348 
	C168.045807,241.119385 171.804626,239.042633 176.795441,239.805634 
	C181.793915,240.569824 184.864014,243.703506 185.957520,248.510208 
	C187.033234,253.238754 185.012451,256.913513 181.265717,259.775818 
	C179.754395,260.930359 178.016586,261.414734 175.820419,261.796875 
z"/>
<path fill="#000000" opacity="1.000000" stroke="none" 
	d="
M349.295563,254.835663 
	C345.429321,260.943298 341.898346,262.617981 336.368408,261.347565 
	C331.324402,260.188721 328.627655,256.725769 328.027466,251.920105 
	C327.411743,246.989639 329.812042,243.208374 334.162201,240.862000 
	C338.254730,238.654587 342.390533,239.206299 345.871033,241.997177 
	C349.834717,245.175507 351.376892,249.414017 349.295563,254.835663 
z"/>
<path fill="#000000" opacity="1.000000" stroke="none" 
	d="
M164.708054,294.934387 
	C158.193802,291.653168 155.454803,286.468811 157.121262,281.170624 
	C158.674103,276.233734 163.518951,272.926880 168.589600,273.342865 
	C174.760284,273.849091 179.228607,278.588562 179.144852,284.538635 
	C179.065460,290.176331 173.975204,295.152252 168.075104,295.308136 
	C167.084579,295.334320 166.088638,295.155060 164.708054,294.934387 
z"/>
<path fill="#000000" opacity="1.000000" stroke="none" 
	d="
M203.903824,216.470795 
	C205.731415,223.124832 204.354813,227.494659 199.812607,230.342850 
	C195.305801,233.168808 190.197586,232.857239 186.450699,229.336914 
	C183.155197,226.240692 181.822998,222.378281 183.206390,217.986343 
	C184.635040,213.450806 187.972977,210.539078 192.616196,210.099548 
	C197.374847,209.649078 201.427048,211.525604 203.903824,216.470795 
z"/>
<path fill="#000000" opacity="1.000000" stroke="none" 
	d="
M298.571838,194.431274 
	C303.281097,201.362305 302.388458,207.851410 296.515656,211.588394 
	C291.253052,214.937103 284.676300,213.465912 281.262848,208.176392 
	C278.513916,203.916626 279.209503,198.041183 282.887573,194.452881 
	C287.044525,190.397369 292.450775,190.293015 298.571838,194.431274 
z"/>
<path fill="#000000" opacity="1.000000" stroke="none" 
	d="
M279.928772,369.380615 
	C277.970428,360.338654 285.361755,354.919769 291.037689,355.269562 
	C296.590485,355.611725 300.520081,358.986359 301.410614,364.262756 
	C302.329498,369.707092 299.969269,374.229858 295.030823,376.488007 
	C290.343964,378.631104 285.008881,377.192841 281.719940,372.818787 
	C281.030396,371.901733 280.587585,370.799164 279.928772,369.380615 
z"/>
<path fill="#000000" opacity="1.000000" stroke="none" 
	d="
M262.407898,204.753372 
	C255.163193,207.525269 248.930908,204.983536 246.610062,198.658005 
	C244.529938,192.988571 247.559540,186.849457 253.532089,184.631332 
	C258.050110,182.953400 264.074097,185.128220 266.565765,189.336823 
	C269.742889,194.703247 268.430847,199.915741 262.407898,204.753372 
z"/>
<path fill="#000000" opacity="1.000000" stroke="none" 
	d="
M317.551239,336.811279 
	C328.056427,336.502502 334.267395,344.179016 330.370667,352.074615 
	C328.072296,356.731567 323.692139,359.142975 318.490387,358.322388 
	C313.547974,357.542725 310.452271,354.573608 309.416779,349.653870 
	C308.368103,344.671570 310.312469,340.907501 314.458557,338.185547 
	C315.282074,337.644867 316.240936,337.310333 317.551239,336.811279 
z"/>
<path fill="#000000" opacity="1.000000" stroke="none" 
	d="
M233.285492,361.239624 
	C235.290192,366.391266 234.754669,370.785736 230.959488,374.380249 
	C227.659027,377.506134 223.684952,378.232971 219.432938,376.569672 
	C214.620834,374.687317 212.376297,370.983063 212.642960,365.606140 
	C212.894302,360.537994 215.626953,357.242950 220.304001,355.688873 
	C225.088257,354.099182 229.406082,355.969971 233.285492,361.239624 
z"/>
<path fill="#000000" opacity="1.000000" stroke="none" 
	d="
M213.361664,197.993286 
	C217.114014,192.069321 220.334061,190.487488 225.841125,191.676743 
	C230.528351,192.688934 233.478348,195.539383 234.257172,200.294098 
	C235.105728,205.474411 232.784973,210.009842 228.228943,212.245132 
	C224.107224,214.267365 220.130020,213.634537 216.574738,210.910324 
	C212.312256,207.644257 211.975845,203.174301 213.361664,197.993286 
z"/>
<path fill="#000000" opacity="1.000000" stroke="none" 
	d="
M184.430786,353.265778 
	C181.708435,348.273499 182.379852,343.906372 185.750992,340.034424 
	C188.789413,336.544617 192.886597,335.850647 197.132370,337.032562 
	C201.499954,338.248413 204.042465,341.384369 204.865417,345.883850 
	C205.664734,350.254211 203.056793,355.178467 198.741241,357.358612 
	C193.972687,359.767639 188.968033,358.433594 184.430786,353.265778 
z"/>
</svg>