<svg version="1.1" id="Layer_1" xmlns="http://www.w3.org/2000/svg" xmlns:xlink="http://www.w3.org/1999/xlink" x="0px" y="0px"
	 width="100%" viewBox="0 0 512 512" enable-background="new 0 0 512 512" xml:space="preserve">
<path fill="#000000" opacity="1.000000" stroke="none" 
	d="
M234.887329,79.145683 
	C234.739700,76.187523 236.189545,74.332451 237.588959,72.454803 
	C249.955154,55.862602 261.108521,38.485870 271.026184,20.329533 
	C272.498474,17.634163 274.254639,16.566586 277.315155,16.604029 
	C288.813232,16.744701 300.314209,16.625381 311.813843,16.668633 
	C317.478210,16.689934 318.835846,18.946629 315.493469,23.650143 
	C311.449524,29.340956 307.011597,34.782757 302.411957,40.041763 
	C290.444092,53.725315 277.776062,66.720581 263.955902,78.578781 
	C260.689941,81.381096 257.293732,82.578072 253.041229,82.316299 
	C248.557953,82.040314 244.045105,82.251740 239.545227,82.235825 
	C237.502640,82.228600 235.416519,82.262299 234.887329,79.145683 
z"/>
<path fill="#000000" opacity="1.000000" stroke="none" 
	d="
M239.310638,123.303253 
	C239.189713,126.575066 239.436569,129.477127 238.849609,132.199402 
	C236.708084,142.131683 228.020172,148.294510 218.259262,147.102203 
	C206.830505,145.706192 200.864441,139.117310 200.616287,127.983131 
	C200.427994,119.534515 201.718002,111.866051 210.339828,107.822029 
	C223.325302,101.731247 236.738632,108.752121 239.310638,123.303253 
z"/>
<path fill="#000000" opacity="1.000000" stroke="none" 
	d="
M281.437866,110.360413 
	C290.436523,104.224945 303.100525,104.849289 309.326141,111.473396 
	C315.720825,118.277367 316.058472,132.358917 310.018097,140.331512 
	C301.884430,151.067017 282.459076,148.839706 277.569611,136.340866 
	C274.038391,127.314140 274.362000,118.402328 281.437866,110.360413 
z"/>
<path fill="#000000" opacity="1.000000" stroke="none" 
	d="
M329.718781,311.989502 
	C334.500427,306.705048 338.508301,305.499603 343.524567,307.766296 
	C348.060974,309.816193 350.370453,313.460999 350.210114,318.419220 
	C350.053101,323.274414 346.431580,327.449829 341.524689,328.710236 
	C337.229980,329.813354 333.568481,328.358246 330.795868,325.184662 
	C327.422485,321.323456 326.836334,316.917236 329.718781,311.989502 
z"/>
<path fill="#000000" opacity="1.000000" stroke="none" 
	d="
M259.540100,362.758911 
	C266.102417,365.424713 269.097717,370.034454 268.091217,375.321136 
	C267.067078,380.700470 262.696442,384.395905 257.296753,384.448059 
	C251.651215,384.502563 247.403961,381.237518 246.103470,375.843262 
	C244.331573,368.493774 250.221405,362.552582 259.540100,362.758911 
z"/>
<path fill="#000000" opacity="1.000000" stroke="none" 
	d="
M176.588989,328.959808 
	C166.914108,328.379730 161.763550,321.672485 164.722946,314.102539 
	C166.527740,309.485992 170.981430,306.460602 175.548950,306.748444 
	C180.719879,307.074310 184.986191,310.790344 186.072281,315.914459 
	C186.998032,320.282074 184.563278,325.224701 180.224884,327.605560 
	C179.215485,328.159515 178.067154,328.460236 176.588989,328.959808 
z"/>
<path fill="#000000" opacity="1.000000" stroke="none" 
	d="
M175.098343,275.809021 
	C179.870728,281.493927 180.270203,285.994751 176.704681,290.857574 
	C173.855621,294.743256 168.822464,296.352631 164.349533,294.808258 
	C159.453308,293.117706 156.326782,288.367004 156.742340,283.249298 
	C157.433899,274.732971 166.382233,270.923218 175.098343,275.809021 
z"/>
<path fill="#000000" opacity="1.000000" stroke="none" 
	d="
M201.247131,229.366364 
	C196.626419,232.802811 192.095261,233.323044 187.581711,230.220413 
	C183.683624,227.540863 181.974777,223.584885 182.948364,218.970840 
	C183.907730,214.424255 186.849106,211.253220 191.514252,210.294937 
	C196.099350,209.353104 200.086426,210.822021 202.870239,214.625000 
	C206.260300,219.256180 205.776077,223.378204 201.247131,229.366364 
z"/>
<path fill="#000000" opacity="1.000000" stroke="none" 
	d="
M323.248291,231.782318 
	C317.561523,232.827225 313.257721,231.287872 310.599915,226.451401 
	C308.301178,222.268311 308.614624,218.108154 311.612823,214.311661 
	C315.768311,209.049728 323.165955,208.495163 327.924652,213.030014 
	C332.680176,217.561844 332.512787,224.991348 327.455383,229.353104 
	C326.347809,230.308304 324.912750,230.883789 323.248291,231.782318 
z"/>
<path fill="#000000" opacity="1.000000" stroke="none" 
	d="
M167.900177,259.220886 
	C163.384125,253.821198 162.709106,249.960205 165.465790,245.340286 
	C167.892456,241.273483 171.502472,239.184570 176.326782,239.744965 
	C181.354813,240.329041 184.501877,243.279266 185.856552,248.050507 
	C187.140289,252.571884 185.410400,256.271118 182.033707,259.183929 
	C178.049652,262.620667 173.915756,262.611115 167.900177,259.220886 
z"/>
<path fill="#000000" opacity="1.000000" stroke="none" 
	d="
M350.243958,250.104233 
	C349.231415,257.022095 346.364960,260.646057 341.155243,261.510437 
	C336.311035,262.314240 332.266266,260.783386 329.599365,256.478790 
	C326.148621,250.908951 328.256256,243.922256 334.249725,240.786652 
	C339.561127,238.007874 346.404633,240.330856 349.056396,245.893875 
	C349.620514,247.077179 349.844116,248.422775 350.243958,250.104233 
z"/>
<path fill="#000000" opacity="1.000000" stroke="none" 
	d="
M340.863403,274.650635 
	C347.772919,272.234375 353.135559,273.826447 355.947479,278.843750 
	C358.466400,283.338196 357.524719,289.058105 353.693481,292.535065 
	C349.182373,296.629150 341.941895,296.254181 337.994690,291.722076 
	C333.357574,286.397827 334.343262,279.851715 340.863403,274.650635 
z"/>
<path fill="#000000" opacity="1.000000" stroke="none" 
	d="
M294.974243,376.554321 
	C287.626526,378.039215 283.182007,376.265991 280.637695,371.159515 
	C278.571259,367.012177 279.587952,361.526031 283.017975,358.314972 
	C287.787689,353.849792 295.504974,354.381531 299.392456,359.443237 
	C303.676666,365.021393 301.999634,372.028076 294.974243,376.554321 
z"/>
<path fill="#000000" opacity="1.000000" stroke="none" 
	d="
M245.984375,196.623291 
	C246.224152,189.563599 249.385742,185.349060 254.980057,184.128967 
	C259.019623,183.247955 264.452850,185.695206 266.592255,189.359329 
	C269.806793,194.864822 267.915619,201.671631 262.288818,204.848526 
	C257.095062,207.780899 250.210785,205.723022 247.260544,200.291443 
	C246.712463,199.282410 246.454254,198.115921 245.984375,196.623291 
z"/>
<path fill="#000000" opacity="1.000000" stroke="none" 
	d="
M296.773132,193.001007 
	C301.483917,196.558090 302.653503,201.087936 301.021454,206.085999 
	C299.700684,210.130951 296.539276,212.654434 292.203430,213.236526 
	C287.451996,213.874435 283.606079,212.096436 281.178986,208.003082 
	C278.651489,203.740402 278.952911,199.386139 282.025238,195.429932 
	C285.369232,191.123886 290.058563,190.329391 296.773132,193.001007 
z"/>
<path fill="#000000" opacity="1.000000" stroke="none" 
	d="
M329.195862,353.942566 
	C325.473999,358.553986 320.986176,359.530029 315.991852,357.647217 
	C311.481415,355.946899 309.169373,352.240234 309.122589,347.557465 
	C309.077942,343.091888 311.228668,339.605194 315.428986,337.612610 
	C319.665222,335.603027 325.283112,336.562744 328.343536,339.842194 
	C331.882629,343.634552 332.246948,348.336029 329.195862,353.942566 
z"/>
<path fill="#000000" opacity="1.000000" stroke="none" 
	d="
M214.530228,195.872742 
	C218.225235,191.250641 222.625000,190.233276 227.655914,192.172028 
	C231.711166,193.734787 233.977280,196.773407 234.348068,201.202850 
	C234.770752,206.252136 232.633179,209.870285 228.293991,212.224457 
	C224.309784,214.386002 218.743881,213.366333 215.452988,210.018402 
	C212.119064,206.626633 211.705811,201.642441 214.530228,195.872742 
z"/>
<path fill="#000000" opacity="1.000000" stroke="none" 
	d="
M219.256729,355.956848 
	C225.716736,354.631439 230.258713,356.070251 232.738785,360.293488 
	C235.101608,364.317078 235.255402,368.483582 232.543228,372.477325 
	C228.807724,377.977936 221.680618,379.008423 216.390869,374.866455 
	C211.682693,371.179901 211.145004,363.429230 215.378601,358.841339 
	C216.373138,357.763580 217.716339,357.007538 219.256729,355.956848 
z"/>
<path fill="#000000" opacity="1.000000" stroke="none" 
	d="
M192.318390,358.315918 
	C186.553238,357.147278 183.404892,353.794922 182.838013,348.452057 
	C182.362076,343.966461 184.343826,340.349762 188.276947,338.059113 
	C192.406021,335.654358 196.554581,336.074921 200.448105,338.663055 
	C204.253586,341.192688 205.883774,346.182709 204.495789,350.488922 
	C202.802017,355.743835 199.123337,358.203735 192.318390,358.315918 
z"/>
</svg>