<svg version="1.1" id="Layer_1" xmlns="http://www.w3.org/2000/svg" xmlns:xlink="http://www.w3.org/1999/xlink" x="0px" y="0px"
	 width="100%" viewBox="0 0 512 512" enable-background="new 0 0 512 512" xml:space="preserve">
<path fill="#000000" opacity="1.000000" stroke="none" 
	d="
M406.263611,496.560913 
	C396.984985,498.050293 388.240509,497.748993 379.701721,494.906921 
	C368.380402,491.138733 361.545380,481.491333 360.947083,467.516052 
	C360.513000,457.375916 360.888794,447.202759 360.798950,437.045227 
	C360.770782,433.859375 362.074066,432.595825 365.278412,432.645172 
	C373.270050,432.768280 381.267670,432.804260 389.257233,432.623993 
	C392.829468,432.543365 393.826569,434.154114 393.935883,437.398041 
	C394.210114,445.536987 393.124664,453.692719 394.262421,461.815460 
	C395.109375,467.861847 398.081482,470.619019 404.171356,470.801147 
	C406.492676,470.870605 408.847900,470.783783 411.143280,470.456604 
	C413.262238,470.154633 415.305145,469.238098 418.210236,470.188293 
	C418.210236,477.367432 418.249512,484.785034 418.183411,492.201721 
	C418.166260,494.125183 416.419952,494.528473 415.015717,494.864624 
	C412.273407,495.521149 409.476379,495.949341 406.263611,496.560913 
z"/>
<path fill="#000000" opacity="1.000000" stroke="none" 
	d="
M328.010986,319.570190 
	C328.205383,312.877350 330.782471,308.839386 335.792969,307.274323 
	C340.370392,305.844543 344.355530,307.175812 347.485718,310.662903 
	C351.860474,315.536438 350.892853,323.038696 345.568817,326.827606 
	C340.092407,330.724915 333.063507,329.330750 329.649658,323.604095 
	C328.980347,322.481323 328.604309,321.183777 328.010986,319.570190 
z"/>
<path fill="#000000" opacity="1.000000" stroke="none" 
	d="
M185.626282,213.711426 
	C189.976410,209.461288 194.588364,208.945114 199.518814,211.607590 
	C203.615799,213.819977 205.287277,217.709152 204.961548,222.017609 
	C204.613770,226.617752 201.877975,229.953247 197.365875,231.559021 
	C192.537003,233.277557 188.518036,231.799103 185.305588,228.139633 
	C181.760925,224.101715 181.898682,219.482681 185.626282,213.711426 
z"/>
<path fill="#000000" opacity="1.000000" stroke="none" 
	d="
M354.665009,291.536011 
	C349.111023,296.067322 343.849670,296.510803 339.443481,293.100952 
	C335.454895,290.014282 334.056580,284.120239 336.239655,279.596588 
	C339.030609,273.813293 345.742096,271.591766 351.490265,274.548615 
	C357.585297,277.683899 358.941162,284.288239 354.665009,291.536011 
z"/>
<path fill="#000000" opacity="1.000000" stroke="none" 
	d="
M246.636078,198.938141 
	C244.977112,191.689438 248.112991,186.044022 254.455460,184.271255 
	C259.791565,182.779785 265.862671,186.323624 267.655975,191.976700 
	C269.407898,197.499329 266.408600,203.378143 260.720398,205.570816 
	C255.537354,207.568756 250.289474,205.219589 246.636078,198.938141 
z"/>
<path fill="#000000" opacity="1.000000" stroke="none" 
	d="
M321.614624,210.061432 
	C329.450348,212.430099 333.107910,218.457458 330.823212,224.678787 
	C328.505402,230.990265 321.449738,233.904770 315.341431,231.073868 
	C311.002899,229.063187 308.384827,223.835251 309.352936,219.115723 
	C310.484894,213.597290 314.742981,210.317047 321.614624,210.061432 
z"/>
<path fill="#000000" opacity="1.000000" stroke="none" 
	d="
M167.900818,259.220123 
	C163.383575,253.819061 162.710220,249.962036 165.466660,245.339874 
	C167.892929,241.271378 171.501694,239.187439 176.326767,239.743668 
	C181.359680,240.323837 184.500275,243.277893 185.856339,248.046280 
	C187.141953,252.567001 185.412094,256.265167 182.034973,259.179382 
	C178.053207,262.615356 173.913040,262.608826 167.900818,259.220123 
z"/>
<path fill="#000000" opacity="1.000000" stroke="none" 
	d="
M342.290649,240.078369 
	C348.440063,243.122406 351.195129,247.882736 350.012146,252.872879 
	C348.832275,257.849792 344.076721,261.838104 339.309448,261.848785 
	C333.836151,261.861053 329.475403,258.273132 328.113312,252.908508 
	C326.491455,246.520966 333.210144,237.491486 342.290649,240.078369 
z"/>
<path fill="#000000" opacity="1.000000" stroke="none" 
	d="
M160.257629,276.250641 
	C166.995255,271.794556 174.017242,272.841766 177.373993,278.497833 
	C180.715851,284.128784 178.722931,290.988586 172.825806,294.153076 
	C168.428146,296.512909 162.623718,295.319031 159.348740,291.381012 
	C155.670120,286.957642 155.878464,282.072388 160.257629,276.250641 
z"/>
<path fill="#000000" opacity="1.000000" stroke="none" 
	d="
M185.145935,313.299561 
	C187.298523,320.406128 184.824554,325.959045 178.774765,328.297180 
	C173.508835,330.332367 167.510361,327.801514 165.012222,322.490509 
	C162.567856,317.293884 164.516251,311.392487 169.692856,308.313354 
	C175.111603,305.090271 180.756866,306.791565 185.145935,313.299561 
z"/>
<path fill="#000000" opacity="1.000000" stroke="none" 
	d="
M267.256683,377.822144 
	C264.466095,383.335114 260.115845,385.165100 254.630753,384.216888 
	C249.829773,383.386932 247.066681,380.132324 246.085556,375.526459 
	C245.065994,370.740143 247.127899,366.955658 251.008301,364.369781 
	C255.133240,361.620972 259.543304,361.802338 263.632690,364.598022 
	C267.677338,367.363220 268.891266,371.865723 267.256683,377.822144 
z"/>
<path fill="#000000" opacity="1.000000" stroke="none" 
	d="
M300.151672,207.936493 
	C296.833313,212.797928 292.443359,214.383560 287.325745,212.858688 
	C283.071625,211.591125 280.282135,208.500183 279.726074,203.874130 
	C279.127289,198.892258 281.012543,195.003647 285.433868,192.642151 
	C289.828461,190.294922 294.187195,190.867722 298.017273,193.954071 
	C301.799774,197.002121 302.496216,201.799088 300.151672,207.936493 
z"/>
<path fill="#000000" opacity="1.000000" stroke="none" 
	d="
M296.082184,356.650940 
	C301.097717,359.826782 302.523102,364.231171 301.221893,369.365326 
	C300.109467,373.754608 296.956696,376.483521 292.461487,377.206085 
	C287.528564,377.998962 283.536041,376.145142 281.061066,371.809814 
	C278.713379,367.697327 278.987976,363.489563 281.857086,359.642395 
	C285.036957,355.378510 289.256683,354.467590 296.082184,356.650940 
z"/>
<path fill="#000000" opacity="1.000000" stroke="none" 
	d="
M331.278595,346.296478 
	C331.017609,353.251343 327.456329,357.716095 322.007385,358.372406 
	C315.947815,359.102264 310.992920,355.846069 309.527771,350.171234 
	C308.161926,344.881042 310.681763,339.709259 315.714966,337.472351 
	C322.427429,334.489136 328.596985,337.828033 331.278595,346.296478 
z"/>
<path fill="#000000" opacity="1.000000" stroke="none" 
	d="
M219.984589,191.729309 
	C225.359985,190.629684 229.703613,191.789352 232.612625,196.118393 
	C235.110092,199.835037 235.249588,203.957642 232.930161,207.871323 
	C230.503418,211.966049 226.771194,213.908127 222.019455,213.230103 
	C217.346939,212.563370 214.023346,209.948196 212.851410,205.266983 
	C211.403458,199.483337 213.576431,195.383072 219.984589,191.729309 
z"/>
<path fill="#000000" opacity="1.000000" stroke="none" 
	d="
M224.560974,355.370056 
	C230.107742,356.275238 233.409729,359.165497 234.259949,364.374390 
	C235.057846,369.262787 233.323563,373.217377 229.017014,375.809296 
	C224.868057,378.306305 220.755600,377.832367 216.873886,375.159943 
	C212.568542,372.195862 211.960205,367.812775 212.938736,363.190216 
	C213.954575,358.391388 218.164078,355.630524 224.560974,355.370056 
z"/>
<path fill="#000000" opacity="1.000000" stroke="none" 
	d="
M200.794479,356.028656 
	C193.920029,359.979401 187.299286,358.576782 184.165482,352.816742 
	C181.094040,347.171295 183.210800,340.529480 189.014999,337.600189 
	C193.393021,335.390686 199.392090,336.722961 202.542496,340.604492 
	C206.339142,345.282288 205.873871,350.188538 200.794479,356.028656 
z"/>
</svg>