<svg version="1.1" id="Layer_1" xmlns="http://www.w3.org/2000/svg" xmlns:xlink="http://www.w3.org/1999/xlink" x="0px" y="0px"
	 width="100%" viewBox="0 0 512 512" enable-background="new 0 0 512 512" xml:space="preserve">
<path fill="#000000" opacity="1.000000" stroke="none" 
	d="
M306.000000,92.921875 
	C317.332458,92.925766 328.166840,93.049339 338.996460,92.876060 
	C343.398804,92.805626 345.288879,94.244919 345.246368,98.913750 
	C345.070282,118.243935 345.066895,137.577454 345.236389,156.907684 
	C345.274353,161.238373 343.706543,162.977097 339.469910,162.885300 
	C333.639954,162.758957 327.803162,162.762939 321.973083,162.887314 
	C318.087311,162.970184 316.738831,161.249496 316.791260,157.439545 
	C316.944855,146.275940 316.751343,135.107712 316.887512,123.943665 
	C316.931854,120.307533 316.216583,118.708923 311.923004,118.734146 
	C276.093811,118.944611 240.262924,118.867294 204.432541,118.882500 
	C197.190247,118.885574 197.184891,118.896675 197.178558,126.050529 
	C197.169388,136.382996 197.035477,146.718002 197.230957,157.046677 
	C197.308273,161.131760 195.718353,162.848434 191.738510,162.813293 
	C185.573776,162.758835 179.407928,162.816467 173.242630,162.845566 
	C170.123016,162.860291 168.812180,161.387711 168.822540,158.227280 
	C168.888672,138.062515 168.928131,117.897011 168.806961,97.732765 
	C168.781158,93.439461 171.060242,92.896423 174.511169,92.903877 
	C200.175629,92.959282 225.840271,92.924202 251.504868,92.920891 
	C269.503235,92.918564 287.501617,92.921555 306.000000,92.921875 
z"/>
<path fill="#000000" opacity="1.000000" stroke="none" 
	d="
M348.830750,312.546814 
	C351.574890,320.122894 348.925812,326.230896 342.264893,328.482941 
	C336.593323,330.400482 330.560059,327.194427 328.488281,321.162048 
	C326.830414,316.334961 329.161530,310.713715 333.914825,308.076355 
	C338.930725,305.293274 344.251801,306.786224 348.830750,312.546814 
z"/>
<path fill="#000000" opacity="1.000000" stroke="none" 
	d="
M247.092880,378.533081 
	C244.719299,371.198212 247.640976,364.634277 253.705612,362.912354 
	C259.965698,361.134949 265.955231,364.404572 267.799713,370.606171 
	C269.281952,375.589752 266.769714,381.064484 261.896637,383.470184 
	C256.718872,386.026306 251.414307,384.363281 247.092880,378.533081 
z"/>
<path fill="#000000" opacity="1.000000" stroke="none" 
	d="
M194.753937,232.223846 
	C187.875061,231.491165 184.169876,228.729416 183.021683,223.530640 
	C181.928864,218.582397 183.771454,214.672699 187.877472,211.890762 
	C192.938492,208.461761 200.087952,210.024384 203.181396,215.102539 
	C206.579346,220.680573 204.927292,227.483994 199.327515,230.596405 
	C198.040665,231.311661 196.555954,231.670944 194.753937,232.223846 
z"/>
<path fill="#000000" opacity="1.000000" stroke="none" 
	d="
M310.197754,216.520493 
	C313.090637,211.971649 316.602478,209.257675 321.949951,210.182953 
	C326.669250,210.999557 329.824890,213.755203 331.019135,218.369568 
	C332.224854,223.028305 330.604309,226.915695 326.881317,229.857498 
	C323.064056,232.873871 318.885864,232.978409 314.732117,230.694214 
	C310.681580,228.466812 309.132385,224.715546 309.236694,220.250275 
	C309.263245,219.114365 309.743988,217.989075 310.197754,216.520493 
z"/>
<path fill="#000000" opacity="1.000000" stroke="none" 
	d="
M166.805389,258.138672 
	C163.260376,253.507431 162.874908,248.969925 166.031250,244.459473 
	C168.625290,240.752594 172.312363,239.047394 176.868973,239.803467 
	C181.628113,240.593170 184.652756,243.516388 185.857483,248.094727 
	C187.157623,253.035645 185.177734,256.921051 181.187439,259.783752 
	C176.802444,262.929565 172.227692,262.414764 166.805389,258.138672 
z"/>
<path fill="#000000" opacity="1.000000" stroke="none" 
	d="
M334.273315,240.781555 
	C342.080292,238.382187 348.095978,241.362366 349.906403,248.168564 
	C351.400543,253.785660 347.430389,260.089020 341.536957,261.456665 
	C335.312836,262.901031 329.304779,259.084412 328.145660,252.670166 
	C327.207397,247.478012 329.582031,243.679520 334.273315,240.781555 
z"/>
<path fill="#000000" opacity="1.000000" stroke="none" 
	d="
M178.408386,280.961060 
	C179.776398,287.628418 176.496902,293.485901 170.821625,295.062775 
	C165.236298,296.614716 159.221161,293.309631 157.296692,287.631439 
	C155.485031,282.286102 158.303635,276.234161 163.624466,274.044952 
	C169.379272,271.677124 175.098404,274.217896 178.408386,280.961060 
z"/>
<path fill="#000000" opacity="1.000000" stroke="none" 
	d="
M357.283203,285.683411 
	C356.091583,290.865509 353.322540,294.223511 348.411285,295.164490 
	C344.228943,295.965790 340.478912,294.790436 337.702057,291.339996 
	C334.608246,287.495667 334.360626,282.462311 337.007782,278.342102 
	C339.770050,274.042725 344.486420,272.347443 349.619049,273.809113 
	C354.492310,275.196899 357.019745,278.960999 357.283203,285.683411 
z"/>
<path fill="#000000" opacity="1.000000" stroke="none" 
	d="
M179.727982,307.852142 
	C185.443893,311.704437 187.343826,316.149506 185.673096,321.063538 
	C184.063492,325.797699 179.315598,329.300110 174.768265,329.107758 
	C169.864487,328.900330 165.676514,325.468079 164.285507,320.503723 
	C163.125122,316.362488 164.557404,312.869720 167.419785,310.050079 
	C170.786194,306.733887 174.844269,305.753082 179.727982,307.852142 
z"/>
<path fill="#000000" opacity="1.000000" stroke="none" 
	d="
M286.844238,376.773376 
	C280.469971,373.000519 278.319275,368.498199 279.981415,363.030640 
	C281.364380,358.481354 286.312317,355.014313 291.045105,355.278198 
	C297.460419,355.635864 301.859863,360.366760 301.710632,366.747406 
	C301.572021,372.676666 296.812531,377.260986 290.677216,377.303772 
	C289.525940,377.311798 288.372864,377.065887 286.844238,376.773376 
z"/>
<path fill="#000000" opacity="1.000000" stroke="none" 
	d="
M331.183411,345.473389 
	C331.286102,352.092896 328.534943,356.604767 323.821106,358.067627 
	C319.063477,359.544098 313.758423,357.723480 311.012726,353.672028 
	C308.308960,349.682465 308.594147,344.568359 311.511780,340.642700 
	C316.075775,334.501831 328.787567,334.836700 331.183411,345.473389 
z"/>
<path fill="#000000" opacity="1.000000" stroke="none" 
	d="
M267.652954,198.177704 
	C265.780945,203.263123 262.317474,205.972992 257.419525,206.152115 
	C252.978500,206.314545 249.392914,204.163651 247.208282,200.172638 
	C244.892731,195.942429 245.753342,190.790085 249.190231,187.316498 
	C252.600830,183.869492 257.456116,183.113831 262.041962,185.316345 
	C266.668976,187.538651 268.620880,191.769226 267.652954,198.177704 
z"/>
<path fill="#000000" opacity="1.000000" stroke="none" 
	d="
M289.262878,213.266891 
	C281.886353,211.021683 278.593811,206.210236 279.778351,199.987167 
	C280.730774,194.983261 285.822784,191.075455 291.047485,191.338745 
	C297.556732,191.666733 301.703979,196.143295 301.599457,202.728607 
	C301.499542,209.023773 297.028809,212.986649 289.262878,213.266891 
z"/>
<path fill="#000000" opacity="1.000000" stroke="none" 
	d="
M234.261917,204.568726 
	C232.461304,209.962646 229.247421,213.158722 223.712189,213.287384 
	C219.155685,213.393326 215.607773,211.391449 213.664383,207.292145 
	C211.767899,203.291794 212.074249,199.224899 214.768616,195.560349 
	C217.641739,191.652710 222.435425,190.295685 227.199600,191.932938 
	C232.185226,193.646286 234.340073,197.351608 234.261917,204.568726 
z"/>
<path fill="#000000" opacity="1.000000" stroke="none" 
	d="
M214.535858,359.876434 
	C218.219864,355.230774 222.638596,354.185272 227.665146,356.134155 
	C231.703049,357.699646 233.981812,360.771484 234.356400,365.202820 
	C234.783524,370.255707 232.656418,373.881897 228.303329,376.238342 
	C224.322617,378.393158 218.715591,377.379913 215.434631,374.047241 
	C212.111740,370.671967 211.704041,365.644470 214.535858,359.876434 
z"/>
<path fill="#000000" opacity="1.000000" stroke="none" 
	d="
M188.399368,337.949524 
	C193.452484,335.660858 197.903641,336.143585 201.644852,339.664215 
	C204.589767,342.435516 205.747009,346.036072 204.623428,350.094421 
	C203.280777,354.944092 199.358139,358.159576 194.639221,358.377472 
	C189.264114,358.625671 185.227356,356.004517 183.432480,351.100677 
	C181.672729,346.292786 183.176208,342.083069 188.399368,337.949524 
z"/>
</svg>