<svg version="1.1" id="Layer_1" xmlns="http://www.w3.org/2000/svg" xmlns:xlink="http://www.w3.org/1999/xlink" x="0px" y="0px"
	 width="100%" viewBox="0 0 512 512" enable-background="new 0 0 512 512" xml:space="preserve">
<path fill="#000000" opacity="1.000000" stroke="none" 
	d="
M228.000000,445.956970 
	C263.634644,445.959137 298.769287,445.957245 333.903931,445.967957 
	C341.026489,445.970154 341.215454,446.163086 341.239380,453.204285 
	C341.256348,458.199615 341.066956,463.201294 341.264038,468.188507 
	C341.420197,472.140411 339.754974,473.521637 335.929504,473.347656 
	C331.276764,473.136108 326.606964,473.300659 321.944550,473.300720 
	C274.820831,473.301361 227.697113,473.304993 180.573395,473.298462 
	C173.678635,473.297516 173.671173,473.275116 173.654510,466.407684 
	C173.642395,461.412262 173.864655,456.405060 173.588577,451.424957 
	C173.358292,447.270905 174.955856,445.866943 179.045074,445.903748 
	C195.195557,446.049286 211.348175,445.959717 228.000000,445.956970 
z"/>
<path fill="#000000" opacity="1.000000" stroke="none" 
	d="
M310.000122,393.600830 
	C319.163269,393.606415 327.828156,393.714233 336.488678,393.566833 
	C339.926727,393.508362 341.317566,394.811951 341.245941,398.228882 
	C341.123749,404.057159 341.119080,409.892029 341.250519,415.719910 
	C341.327789,419.145721 339.932861,420.452881 336.501709,420.393402 
	C328.174316,420.249023 319.842651,420.354034 311.512695,420.354370 
	C267.863739,420.356232 224.214783,420.360168 180.565826,420.354401 
	C173.675354,420.353485 173.666718,420.332397 173.654572,413.551880 
	C173.643005,407.090881 173.652069,400.629822 173.652069,393.600800 
	C219.327164,393.600800 264.413635,393.600800 310.000122,393.600830 
z"/>
<path fill="#000000" opacity="1.000000" stroke="none" 
	d="
M183.208374,224.225601 
	C182.293961,216.729645 185.406372,211.728256 191.528397,210.235092 
	C196.479935,209.027420 202.151337,211.999695 204.071365,216.808640 
	C206.390366,222.616852 203.938766,228.633575 198.192154,231.237381 
	C192.302475,233.906052 186.651093,231.381317 183.208374,224.225601 
z"/>
<path fill="#000000" opacity="1.000000" stroke="none" 
	d="
M255.316925,362.686462 
	C262.902405,361.332153 268.669830,367.766693 268.210266,374.225922 
	C267.742706,380.797455 262.156830,385.129517 255.288788,384.347382 
	C250.451080,383.796478 246.532410,379.799011 245.879944,374.749237 
	C245.199005,369.479279 248.710602,364.788574 255.316925,362.686462 
z"/>
<path fill="#000000" opacity="1.000000" stroke="none" 
	d="
M268.207672,194.187439 
	C267.398193,201.134872 264.197357,205.129883 259.008850,206.120087 
	C254.717316,206.939087 249.356720,204.273758 247.231186,200.264114 
	C244.251450,194.643082 246.520142,187.961273 252.383911,185.088135 
	C257.718689,182.474197 264.637939,184.974396 267.111023,190.460617 
	C267.585388,191.512894 267.824341,192.671326 268.207672,194.187439 
z"/>
<path fill="#000000" opacity="1.000000" stroke="none" 
	d="
M317.638672,231.852264 
	C310.756989,229.058624 307.891846,223.909332 309.639740,218.061508 
	C311.230225,212.740326 316.805298,209.144348 321.913818,210.144608 
	C328.133728,211.362473 331.865784,216.184753 331.305847,222.280273 
	C330.734222,228.503128 325.220856,232.525085 317.638672,231.852264 
z"/>
<path fill="#000000" opacity="1.000000" stroke="none" 
	d="
M182.100296,259.174896 
	C176.027466,262.834106 170.175873,262.237213 166.528809,257.836060 
	C163.045334,253.632278 163.077942,247.799088 166.608307,243.624893 
	C170.226486,239.346863 176.305969,238.391052 181.067825,241.351578 
	C187.274155,245.210190 187.814621,252.277298 182.100296,259.174896 
z"/>
<path fill="#000000" opacity="1.000000" stroke="none" 
	d="
M348.032318,244.160339 
	C351.104279,248.931351 350.966278,253.326614 347.713043,257.446899 
	C344.910614,260.996216 341.246521,262.397552 336.667572,261.414612 
	C332.058624,260.425171 329.454987,257.530914 328.266693,253.186096 
	C327.009979,248.591125 329.389069,243.523926 333.884247,240.971375 
	C338.439178,238.384918 343.140472,239.353302 348.032318,244.160339 
z"/>
<path fill="#000000" opacity="1.000000" stroke="none" 
	d="
M160.845551,275.762268 
	C166.490433,272.467255 171.660934,272.673401 175.428635,276.106049 
	C178.829346,279.204346 179.963318,284.366913 178.134811,288.426422 
	C175.986130,293.196777 171.474411,295.921417 166.513046,295.246368 
	C162.215454,294.661621 159.176285,292.306519 157.541168,288.238342 
	C155.613113,283.441345 157.066254,279.466888 160.845551,275.762268 
z"/>
<path fill="#000000" opacity="1.000000" stroke="none" 
	d="
M338.199066,306.769257 
	C345.249573,307.602295 348.610779,310.141388 349.899353,315.489136 
	C350.990601,320.018036 349.319305,323.737305 345.859650,326.541992 
	C340.826202,330.622528 333.703613,329.507538 330.056976,324.287567 
	C326.342316,318.970306 327.662720,312.185852 333.226776,308.676910 
	C334.597748,307.812347 336.261230,307.411560 338.199066,306.769257 
z"/>
<path fill="#000000" opacity="1.000000" stroke="none" 
	d="
M184.797211,312.590210 
	C187.255524,319.618011 185.441376,324.981506 179.968964,327.779755 
	C175.190460,330.223175 169.345810,328.818817 166.194275,324.469940 
	C162.507706,319.382721 163.540787,312.774475 168.606857,309.037720 
	C173.943314,305.101532 179.837997,306.283386 184.797211,312.590210 
z"/>
<path fill="#000000" opacity="1.000000" stroke="none" 
	d="
M283.416565,374.693237 
	C278.008820,368.194885 278.564972,361.186981 284.488403,357.191833 
	C289.766174,353.632202 296.954681,355.181213 300.145294,360.565735 
	C302.747406,364.957123 301.960724,370.865204 298.312714,374.328064 
	C294.336761,378.102325 289.229431,378.320831 283.416565,374.693237 
z"/>
<path fill="#000000" opacity="1.000000" stroke="none" 
	d="
M290.926697,213.306595 
	C282.877960,212.391663 278.575256,207.122391 279.763306,200.156235 
	C280.781097,194.188416 286.998230,190.304047 293.351013,191.666885 
	C298.460114,192.762909 301.735352,197.039810 301.692627,202.559631 
	C301.649078,208.185532 297.877899,212.101166 290.926697,213.306595 
z"/>
<path fill="#000000" opacity="1.000000" stroke="none" 
	d="
M357.323792,284.020752 
	C356.394653,290.946136 352.605469,294.953003 347.056854,295.302521 
	C341.504852,295.652283 337.016205,292.403351 335.610718,287.017792 
	C334.303711,282.009552 336.615295,276.859985 341.251434,274.451843 
	C348.210541,270.837036 355.576202,275.031036 357.323792,284.020752 
z"/>
<path fill="#000000" opacity="1.000000" stroke="none" 
	d="
M312.557190,355.473297 
	C308.336578,349.842804 308.028503,345.520081 311.280762,341.086456 
	C314.323151,336.938904 319.829529,335.406525 324.642944,337.367859 
	C328.983978,339.136749 331.705536,343.669128 331.298676,348.574554 
	C330.609955,356.878265 320.135315,362.089874 312.557190,355.473297 
z"/>
<path fill="#000000" opacity="1.000000" stroke="none" 
	d="
M226.092300,355.653625 
	C233.741852,358.891754 236.509598,365.141327 233.342102,371.218536 
	C230.150070,377.342834 223.028946,379.186584 217.233917,375.389221 
	C212.950485,372.582306 211.297485,367.101288 213.251236,362.183441 
	C215.224777,357.215790 219.691391,354.851837 226.092300,355.653625 
z"/>
<path fill="#000000" opacity="1.000000" stroke="none" 
	d="
M232.657257,208.311859 
	C229.310013,212.868607 225.089432,214.342529 220.173492,212.824249 
	C216.153290,211.582642 213.294296,208.837402 212.717392,204.375549 
	C212.120163,199.756592 213.370804,195.848801 217.363876,193.091385 
	C221.166428,190.465546 227.113281,190.842239 230.792023,193.951080 
	C234.673141,197.231003 235.433640,202.323547 232.657257,208.311859 
z"/>
<path fill="#000000" opacity="1.000000" stroke="none" 
	d="
M197.287628,358.007019 
	C189.584305,358.703064 185.647369,356.701874 183.551620,351.368744 
	C181.672867,346.587860 183.051804,342.511505 186.615234,339.230011 
	C189.969986,336.140747 194.063065,335.827026 198.215714,337.457977 
	C202.516678,339.147217 204.777374,342.652374 204.961288,347.062561 
	C205.176270,352.217987 202.305191,355.747467 197.287628,358.007019 
z"/>
</svg>