<svg version="1.1" id="Layer_1" xmlns="http://www.w3.org/2000/svg" xmlns:xlink="http://www.w3.org/1999/xlink" x="0px" y="0px"
	 width="100%" viewBox="0 0 512 512" enable-background="new 0 0 512 512" xml:space="preserve">
<path fill="#000000" opacity="1.000000" stroke="none" 
	d="
M305.944489,446.998474 
	C305.944153,452.160309 305.897095,456.823181 305.958160,461.484650 
	C306.001251,464.775299 304.664215,466.328735 301.193817,466.274109 
	C292.870056,466.143036 284.542389,466.164795 276.217590,466.251160 
	C273.188416,466.282623 272.027679,464.858063 272.030060,462.020142 
	C272.046539,442.538147 272.064850,423.056122 272.029022,403.574188 
	C272.022400,399.959778 273.617584,398.620575 277.233276,398.710846 
	C284.888275,398.901978 292.559387,398.986511 300.207886,398.694977 
	C304.684021,398.524353 306.032745,400.365387 305.994965,404.537750 
	C305.868225,418.523834 305.945099,432.511719 305.944489,446.998474 
z"/>
<path fill="#000000" opacity="1.000000" stroke="none" 
	d="
M208.088165,404.303589 
	C207.887207,399.968414 209.718124,398.615936 213.548416,398.723389 
	C221.203461,398.938141 228.873016,398.930176 236.528305,398.716888 
	C240.353271,398.610291 242.006516,399.959167 241.992737,403.839142 
	C241.924774,422.991547 241.935883,442.144440 241.990952,461.296936 
	C242.001236,464.870148 240.556671,466.369232 236.894974,466.290771 
	C229.237350,466.126648 221.562912,465.995026 213.916595,466.331818 
	C209.173996,466.540710 207.914337,464.660858 207.958237,460.227722 
	C208.141251,441.742737 208.061539,423.255127 208.088165,404.303589 
z"/>
<path fill="#000000" opacity="1.000000" stroke="none" 
	d="
M199.291473,230.662445 
	C191.767685,233.648621 185.525146,231.094208 183.299866,224.466492 
	C181.244446,218.344666 184.875946,211.965729 191.373413,210.284882 
	C195.970139,209.095734 201.374313,211.531067 203.565369,215.779037 
	C206.464127,221.399170 205.209747,226.068146 199.291473,230.662445 
z"/>
<path fill="#000000" opacity="1.000000" stroke="none" 
	d="
M349.049347,322.603210 
	C345.341492,328.022247 341.373596,329.906952 336.749207,328.721100 
	C331.920074,327.482758 328.478821,323.684662 327.924591,318.981354 
	C327.410736,314.620789 330.312256,309.800842 334.739227,307.740326 
	C339.014130,305.750580 343.019592,306.652039 346.358826,309.588043 
	C350.225464,312.987732 351.360016,317.326477 349.049347,322.603210 
z"/>
<path fill="#000000" opacity="1.000000" stroke="none" 
	d="
M314.832397,211.546936 
	C321.016815,209.025757 326.226135,210.251068 329.334778,214.669785 
	C332.269867,218.841797 332.038910,224.160385 328.752441,228.080154 
	C325.290283,232.209488 320.129913,233.239365 315.209869,231.034836 
	C309.336975,228.403381 305.566223,217.594269 314.832397,211.546936 
z"/>
<path fill="#000000" opacity="1.000000" stroke="none" 
	d="
M185.206818,246.218781 
	C187.242508,253.209183 184.537262,259.110199 178.660172,261.179657 
	C173.254532,263.083099 167.237793,260.469208 164.897827,255.200775 
	C162.567932,249.954941 164.608002,244.024597 169.768845,241.041229 
	C175.206436,237.897842 180.852524,239.671799 185.206818,246.218781 
z"/>
<path fill="#000000" opacity="1.000000" stroke="none" 
	d="
M343.058899,240.382233 
	C348.838837,243.678375 351.225464,248.324341 349.915497,253.177383 
	C348.556030,258.213867 343.815277,261.956390 338.987823,261.804047 
	C333.464233,261.629761 329.224854,257.977631 328.063446,252.583313 
	C326.693970,246.222580 333.475891,237.087326 343.058899,240.382233 
z"/>
<path fill="#000000" opacity="1.000000" stroke="none" 
	d="
M177.244995,289.988464 
	C172.674286,295.405121 168.549988,296.642365 163.475067,294.395172 
	C158.830002,292.338318 156.094589,287.545227 156.790741,282.682678 
	C157.448654,278.087219 161.378448,274.087219 166.066040,273.461700 
	C170.301315,272.896515 174.122223,273.953003 176.688522,277.536987 
	C179.397400,281.320007 180.119125,285.434357 177.244995,289.988464 
z"/>
<path fill="#000000" opacity="1.000000" stroke="none" 
	d="
M346.060516,295.319000 
	C338.486115,294.094604 334.247742,288.907288 335.300903,282.662109 
	C336.314514,276.651306 341.562653,272.670410 347.452545,273.444580 
	C353.907104,274.292999 357.955505,279.275330 357.290894,285.552551 
	C356.718811,290.956085 352.745422,294.548065 346.060516,295.319000 
z"/>
<path fill="#000000" opacity="1.000000" stroke="none" 
	d="
M261.152466,363.178528 
	C267.166351,366.813629 269.347565,371.451324 267.741028,376.555847 
	C266.100128,381.769562 261.989777,384.603424 256.382477,384.386841 
	C251.238007,384.188141 247.296967,380.904266 246.089157,375.809906 
	C244.192734,367.811066 250.989288,361.887146 261.152466,363.178528 
z"/>
<path fill="#000000" opacity="1.000000" stroke="none" 
	d="
M252.398071,205.047104 
	C246.585724,201.156006 244.717682,196.787567 246.476730,191.879181 
	C248.219208,187.017059 252.952713,183.583725 257.405396,183.952377 
	C262.774933,184.396912 266.862183,187.893448 268.013611,193.027451 
	C269.888153,201.385666 261.681854,207.941223 252.398071,205.047104 
z"/>
<path fill="#000000" opacity="1.000000" stroke="none" 
	d="
M279.672852,202.061798 
	C280.890228,194.354401 285.658386,190.558792 292.372803,191.531235 
	C298.693970,192.446716 302.416046,197.546860 301.505737,204.045654 
	C300.667480,210.030624 295.069611,214.099518 288.854706,213.241287 
	C283.772675,212.539490 280.354462,208.535507 279.672852,202.061798 
z"/>
<path fill="#000000" opacity="1.000000" stroke="none" 
	d="
M182.365356,309.527649 
	C186.779846,315.042511 187.332260,318.809052 184.556412,323.431519 
	C182.209335,327.340027 178.627823,329.419159 174.152405,328.949005 
	C169.073990,328.415466 165.589539,325.442932 164.285324,320.372162 
	C163.120789,315.844513 164.840286,312.178131 168.277893,309.324860 
	C172.797623,305.573395 177.459320,306.219177 182.365356,309.527649 
z"/>
<path fill="#000000" opacity="1.000000" stroke="none" 
	d="
M292.448364,355.523376 
	C299.671600,357.650696 302.885315,362.725311 301.354218,369.045197 
	C300.020660,374.549927 294.685822,378.045410 288.821350,377.256958 
	C283.118317,376.490234 279.139038,371.129303 279.692383,364.958160 
	C280.223358,359.036346 285.059021,355.323303 292.448364,355.523376 
z"/>
<path fill="#000000" opacity="1.000000" stroke="none" 
	d="
M327.684387,339.225525 
	C332.214478,345.288208 332.481781,349.926880 328.841858,354.419525 
	C325.654053,358.354187 320.404633,359.634430 315.795929,357.601257 
	C309.901764,355.001007 307.392120,348.168213 310.278595,342.579620 
	C313.513306,336.316772 320.411377,334.858826 327.684387,339.225525 
z"/>
<path fill="#000000" opacity="1.000000" stroke="none" 
	d="
M217.928757,356.718872 
	C223.894409,354.462280 228.779282,355.302002 231.839951,359.055847 
	C234.985413,362.913727 235.386459,367.250793 233.072769,371.590454 
	C230.723831,375.996246 226.793015,377.939423 221.854095,377.217102 
	C217.610840,376.596558 214.302277,374.243073 213.113373,370.049286 
	C211.630356,364.818115 212.858917,360.187531 217.928757,356.718872 
z"/>
<path fill="#000000" opacity="1.000000" stroke="none" 
	d="
M218.368225,212.059753 
	C213.091827,208.278580 211.300186,204.146652 212.958725,199.061859 
	C214.401642,194.638031 217.474243,191.734741 222.325333,191.334503 
	C227.355988,190.919449 231.840363,193.484924 233.556808,197.871948 
	C235.256271,202.215530 234.785141,206.409348 231.447830,209.852112 
	C227.840088,213.573853 223.515915,214.373566 218.368225,212.059753 
z"/>
<path fill="#000000" opacity="1.000000" stroke="none" 
	d="
M200.157227,356.501404 
	C194.660965,360.431000 186.507339,357.791473 184.002853,352.562225 
	C181.325104,346.971191 183.275558,340.643921 188.839523,337.701477 
	C193.325378,335.329163 199.582260,336.741638 202.718857,340.834595 
	C206.510559,345.782471 205.763840,350.926453 200.157227,356.501404 
z"/>
</svg>