<svg version="1.1" id="Layer_1" xmlns="http://www.w3.org/2000/svg" xmlns:xlink="http://www.w3.org/1999/xlink" x="0px" y="0px"
	 width="100%" viewBox="0 0 512 512" enable-background="new 0 0 512 512" xml:space="preserve">
<path fill="#000000" opacity="1.000000" stroke="none" 
	d="
M231.021606,406.781281 
	C250.662827,406.779938 269.810028,406.908112 288.953247,406.688446 
	C293.733215,406.633636 295.334717,408.151764 295.287415,412.958893 
	C295.085846,433.434479 295.115021,453.913910 295.274078,474.390289 
	C295.308624,478.838104 294.014282,480.746674 289.291656,480.445526 
	C283.653809,480.086090 277.967926,480.164215 272.318329,480.409546 
	C268.213776,480.587769 266.715668,479.080261 266.774963,474.948669 
	C266.954193,462.464935 266.718353,449.975067 266.915009,437.491852 
	C266.976410,433.594666 265.753204,432.227753 261.787628,432.290344 
	C249.304428,432.487213 236.814423,432.242767 224.330734,432.423553 
	C220.302277,432.481842 218.538727,431.252930 218.776993,427.028137 
	C219.048431,422.214905 219.027756,417.367828 218.813232,412.549774 
	C218.625412,408.331329 220.049500,406.242950 224.536743,406.743958 
	C226.510040,406.964264 228.528290,406.781769 231.021606,406.781281 
z"/>
<path fill="#000000" opacity="1.000000" stroke="none" 
	d="
M349.179169,313.250885 
	C351.289398,320.335876 348.860077,325.893127 342.933990,328.258881 
	C337.716797,330.341644 331.725616,327.945679 329.121429,322.735016 
	C326.512665,317.515259 328.515411,311.214569 333.743530,308.193909 
	C339.051880,305.126923 344.769104,306.881226 349.179169,313.250885 
z"/>
<path fill="#000000" opacity="1.000000" stroke="none" 
	d="
M204.967773,222.629044 
	C202.016251,230.754257 196.029968,234.023758 189.633728,231.347595 
	C184.852997,229.347351 181.993164,224.296478 182.824203,219.320984 
	C183.632629,214.480743 188.261581,210.235901 193.077164,209.918808 
	C198.101852,209.587936 202.848083,212.882339 204.337555,217.871399 
	C204.756149,219.273499 204.823730,220.780396 204.967773,222.629044 
z"/>
<path fill="#000000" opacity="1.000000" stroke="none" 
	d="
M177.248550,289.990906 
	C172.723846,295.365662 168.611313,296.621033 163.571426,294.441071 
	C158.752426,292.356659 155.996780,287.434845 156.827606,282.396118 
	C157.574188,277.868378 161.558258,273.973969 166.231567,273.430084 
	C170.436890,272.940704 174.229324,274.014832 176.745987,277.602478 
	C179.397003,281.381653 180.104202,285.471954 177.248550,289.990906 
z"/>
<path fill="#000000" opacity="1.000000" stroke="none" 
	d="
M327.951324,213.046387 
	C331.739807,217.419220 332.652710,221.931870 329.736206,226.639343 
	C327.164429,230.790466 323.353271,232.941010 318.304596,232.012634 
	C313.317108,231.095551 310.039093,227.664581 309.309448,222.572739 
	C308.650879,217.976669 310.560242,214.480698 314.301575,211.907242 
	C318.977173,208.691147 323.400513,209.626312 327.951324,213.046387 
z"/>
<path fill="#000000" opacity="1.000000" stroke="none" 
	d="
M184.028885,244.163025 
	C187.101135,248.934540 186.996628,253.332687 183.710327,257.451233 
	C180.896011,260.978241 177.242493,262.407806 172.653580,261.421844 
	C168.036377,260.429749 165.437775,257.524170 164.231857,253.190170 
	C162.955002,248.601196 165.347900,243.533630 169.870804,240.975632 
	C174.445892,238.388077 179.157288,239.357300 184.028885,244.163025 
z"/>
<path fill="#000000" opacity="1.000000" stroke="none" 
	d="
M335.247437,261.105896 
	C329.230621,257.713135 326.949921,253.408859 328.219055,248.429932 
	C329.551666,243.202042 333.893463,239.669724 338.976440,239.678131 
	C344.330231,239.687012 348.473694,243.006516 349.955658,248.160690 
	C351.851044,254.752686 344.920441,264.301025 335.247437,261.105896 
z"/>
<path fill="#000000" opacity="1.000000" stroke="none" 
	d="
M340.221924,275.058899 
	C346.766235,272.160248 352.424866,273.425812 355.536469,278.201050 
	C358.472076,282.706146 357.777832,288.643280 353.882294,292.348480 
	C350.000244,296.040863 343.964478,296.419220 339.666473,293.239624 
	C333.614838,288.762695 333.717468,281.092377 340.221924,275.058899 
z"/>
<path fill="#000000" opacity="1.000000" stroke="none" 
	d="
M177.351166,328.749451 
	C170.627243,329.101410 166.671600,326.782379 164.683594,321.664154 
	C162.963303,317.235168 164.438339,312.248322 168.367096,309.210938 
	C172.416122,306.080566 177.131500,305.878510 181.347672,308.780121 
	C184.767044,311.133392 186.532318,314.551727 186.153641,318.611694 
	C185.677322,323.718384 182.723328,327.126648 177.351166,328.749451 
z"/>
<path fill="#000000" opacity="1.000000" stroke="none" 
	d="
M247.101166,378.538269 
	C244.724228,371.135162 247.705261,364.527985 253.820251,362.882263 
	C260.163300,361.175171 266.145477,364.556793 267.871338,370.825012 
	C269.197968,375.643188 266.692749,381.025970 262.027039,383.382202 
	C256.830841,386.006287 251.456238,384.369080 247.101166,378.538269 
z"/>
<path fill="#000000" opacity="1.000000" stroke="none" 
	d="
M246.657227,198.933716 
	C244.983871,191.655136 248.193069,185.948135 254.582077,184.253311 
	C259.949371,182.829514 266.036469,186.509079 267.739227,192.206650 
	C269.379913,197.696487 266.112030,203.690231 260.386505,205.692581 
	C255.331863,207.460327 250.257324,205.081970 246.657227,198.933716 
z"/>
<path fill="#000000" opacity="1.000000" stroke="none" 
	d="
M282.299622,209.569763 
	C276.534943,203.253006 280.286194,191.727173 290.177277,191.340057 
	C295.076965,191.148270 298.922516,193.264725 300.888336,197.963974 
	C302.741669,202.394455 301.393311,207.734558 297.871765,210.696091 
	C293.994415,213.956863 288.820038,214.269943 284.466583,211.463562 
	C283.775177,211.017883 283.193848,210.401428 282.299622,209.569763 
z"/>
<path fill="#000000" opacity="1.000000" stroke="none" 
	d="
M298.804840,373.818909 
	C291.759644,378.961639 285.183228,378.245209 281.268799,372.224609 
	C277.825928,366.929260 279.625397,359.915802 285.249695,356.709076 
	C289.482361,354.295807 295.283203,355.067688 298.603882,358.486053 
	C302.429016,362.423676 302.595215,367.907837 298.804840,373.818909 
z"/>
<path fill="#000000" opacity="1.000000" stroke="none" 
	d="
M328.726562,354.562622 
	C324.852509,358.702911 320.493256,359.484467 315.739716,357.526398 
	C311.268982,355.684875 309.055939,351.963562 309.125732,347.280731 
	C309.192352,342.809906 311.443359,339.386719 315.677979,337.492889 
	C319.962891,335.576630 325.580017,336.688507 328.532990,340.047089 
	C332.072693,344.072998 332.222198,348.925598 328.726562,354.562622 
z"/>
<path fill="#000000" opacity="1.000000" stroke="none" 
	d="
M215.169998,209.700897 
	C209.936295,201.014404 214.110458,191.445770 222.838440,191.221344 
	C227.703949,191.096252 232.385864,193.961639 233.779694,198.323166 
	C235.251144,202.927567 234.498627,207.193298 230.743301,210.575897 
	C227.135498,213.825638 222.283966,214.255249 217.839828,211.744110 
	C216.982498,211.259705 216.232758,210.584885 215.169998,209.700897 
z"/>
<path fill="#000000" opacity="1.000000" stroke="none" 
	d="
M231.193268,374.189117 
	C225.263184,378.262024 220.225952,378.267670 215.941284,374.484344 
	C212.593491,371.528198 211.537643,365.928131 213.524048,361.663574 
	C216.345871,355.605469 223.109467,353.478027 229.040619,356.782928 
	C235.088776,360.152954 236.093719,367.227631 231.193268,374.189117 
z"/>
<path fill="#000000" opacity="1.000000" stroke="none" 
	d="
M198.049683,357.692902 
	C190.629105,358.995331 186.174545,357.150055 183.840530,352.147369 
	C181.710648,347.582245 182.881393,342.242523 186.705460,339.080627 
	C191.599365,335.034210 199.363541,336.040588 202.971497,341.189056 
	C206.956070,346.874939 205.216537,353.100464 198.049683,357.692902 
z"/>
</svg>