<svg version="1.1" id="Layer_1" xmlns="http://www.w3.org/2000/svg" xmlns:xlink="http://www.w3.org/1999/xlink" x="0px" y="0px"
	 width="100%" viewBox="0 0 512 512" enable-background="new 0 0 512 512" xml:space="preserve">
<path fill="#000000" opacity="1.000000" stroke="none" 
	d="
M282.955627,106.888397 
	C280.488525,111.076248 278.351837,115.045860 275.889221,118.801735 
	C273.804962,121.980530 274.886536,123.393959 278.047699,124.688667 
	C291.454834,130.179825 301.689789,126.037186 307.160431,112.724976 
	C310.836975,103.778488 310.836975,103.778488 320.449707,103.767960 
	C332.508911,103.754738 332.476257,103.747322 329.792847,115.564331 
	C327.326263,126.426590 323.556519,136.718765 315.641968,144.854385 
	C303.301025,157.539963 288.401215,158.967545 272.300507,153.877914 
	C268.980530,152.828430 265.684692,151.507492 262.641113,149.832993 
	C259.563202,148.139633 257.885681,148.915009 256.253662,151.765198 
	C252.943893,157.545380 249.332474,163.152328 245.990997,168.915085 
	C244.480453,171.520187 242.835434,171.905228 240.318741,170.304749 
	C236.244293,167.713577 232.105896,165.211136 227.890167,162.858124 
	C225.089828,161.295105 224.651550,159.686905 226.443497,156.894302 
	C230.380997,150.758102 234.017502,144.428757 237.733795,138.249893 
	C230.041489,131.676315 217.310623,133.046478 211.634613,140.742920 
	C208.926865,144.414490 207.199463,148.561569 206.141006,152.966873 
	C205.414780,155.989487 203.882919,157.457291 200.559998,157.280304 
	C196.074173,157.041336 191.566147,157.216400 187.067642,157.219681 
	C184.972000,157.221207 183.420364,156.636337 183.615845,154.103592 
	C184.899475,137.473801 193.174454,113.493919 213.704880,106.630333 
	C225.512833,102.682793 237.107010,104.163414 248.216263,109.152039 
	C252.302551,110.986977 254.463303,110.480583 256.510223,106.501152 
	C258.942657,101.772270 262.111511,97.426598 264.644440,92.743515 
	C266.447937,89.409073 268.416473,89.124367 271.417694,91.109421 
	C274.887268,93.404289 278.381622,95.763573 282.141876,97.493492 
	C287.915283,100.149559 285.128235,103.306732 282.955627,106.888397 
z"/>
<path fill="#000000" opacity="1.000000" stroke="none" 
	d="
M339.815552,306.771881 
	C345.324585,307.682281 348.773102,310.521942 349.981445,315.588348 
	C351.003937,319.875671 349.404236,323.563721 346.161621,326.310577 
	C342.557220,329.363892 338.423676,330.018158 334.071899,327.741302 
	C329.992615,325.606964 327.792938,322.092529 327.947998,317.628510 
	C328.110016,312.964417 330.653900,309.450409 335.047058,307.605896 
	C336.385437,307.043945 337.946625,307.012695 339.815552,306.771881 
z"/>
<path fill="#000000" opacity="1.000000" stroke="none" 
	d="
M266.576447,367.738403 
	C269.559418,375.386505 267.012817,381.992310 260.639160,384.020538 
	C254.268646,386.047821 247.888153,382.542603 246.181046,376.077789 
	C244.930328,371.341309 247.535843,365.929779 252.204788,363.566895 
	C256.901367,361.190002 262.076233,362.592407 266.576447,367.738403 
z"/>
<path fill="#000000" opacity="1.000000" stroke="none" 
	d="
M164.724335,314.131042 
	C169.984360,305.303741 179.416382,304.303558 184.276016,311.694214 
	C187.211395,316.158386 186.758698,321.636597 183.135330,325.498260 
	C179.715393,329.143127 174.407120,329.994812 169.878113,327.625366 
	C165.107208,325.129364 163.207169,320.397247 164.724335,314.131042 
z"/>
<path fill="#000000" opacity="1.000000" stroke="none" 
	d="
M337.073975,278.257263 
	C342.286957,272.464722 348.535553,271.692657 353.535980,275.934631 
	C358.019287,279.738007 358.627563,286.479980 354.913422,291.202789 
	C351.256866,295.852478 344.490448,296.768372 339.709045,293.260864 
	C335.199951,289.953125 334.167206,284.624298 337.073975,278.257263 
z"/>
<path fill="#000000" opacity="1.000000" stroke="none" 
	d="
M174.085663,293.374634 
	C168.305893,296.296356 163.696320,295.803040 160.013458,292.112030 
	C156.695572,288.786774 155.770996,283.674774 157.763733,279.673401 
	C160.007355,275.168274 164.317093,272.829224 169.217255,273.457123 
	C174.557846,274.141418 177.916794,277.295990 178.885666,282.705811 
	C179.677628,287.127777 177.604843,290.402100 174.085663,293.374634 
z"/>
<path fill="#000000" opacity="1.000000" stroke="none" 
	d="
M346.094971,259.170929 
	C340.734833,262.460358 335.745605,262.408081 331.965240,259.246185 
	C328.261475,256.148376 326.985413,251.011169 328.827057,246.612473 
	C330.708649,242.118256 335.134247,239.357224 339.895172,239.707260 
	C344.751617,240.064316 348.597504,243.272400 349.881256,248.109802 
	C351.032349,252.447357 349.328186,255.901871 346.094971,259.170929 
z"/>
<path fill="#000000" opacity="1.000000" stroke="none" 
	d="
M163.868103,250.971405 
	C164.473938,245.015778 167.363708,241.104935 172.816620,239.904434 
	C177.574341,238.856979 181.715775,240.532822 184.436401,244.817322 
	C187.946426,250.344940 185.929749,257.440369 180.033157,260.558685 
	C174.495941,263.486938 167.498810,261.039185 164.943680,255.205750 
	C164.417221,254.003845 164.222183,252.656754 163.868103,250.971405 
z"/>
<path fill="#000000" opacity="1.000000" stroke="none" 
	d="
M316.207123,210.822968 
	C322.405518,209.221161 327.283783,211.012131 329.895172,215.570999 
	C332.496155,220.111694 331.614349,225.553909 327.686676,229.201080 
	C323.933563,232.686142 318.772186,233.184540 314.328125,230.491043 
	C310.259888,228.025345 308.249359,222.526810 309.708435,217.853500 
	C310.714294,214.631683 313.001099,212.550690 316.207123,210.822968 
z"/>
<path fill="#000000" opacity="1.000000" stroke="none" 
	d="
M188.537170,230.819122 
	C182.975311,226.418579 181.423843,221.659866 183.674789,216.752380 
	C185.798813,212.121689 190.824234,209.310013 195.394852,210.195145 
	C202.213257,211.515564 206.346527,217.543411 204.636215,223.672440 
	C202.679245,230.685394 196.455338,233.585449 188.537170,230.819122 
z"/>
<path fill="#000000" opacity="1.000000" stroke="none" 
	d="
M281.793823,372.967468 
	C278.248260,366.353333 279.276886,360.779297 284.401215,357.263977 
	C288.998627,354.110046 295.345764,354.802795 298.925812,358.849213 
	C302.523041,362.915039 302.586823,369.343445 299.071350,373.514587 
	C294.711578,378.687500 287.820862,378.597565 281.793823,372.967468 
z"/>
<path fill="#000000" opacity="1.000000" stroke="none" 
	d="
M268.207397,195.809204 
	C267.092529,201.685867 263.885254,205.322662 258.357330,206.079681 
	C253.711761,206.715851 249.913605,204.605545 247.490402,200.514114 
	C244.132492,194.844482 246.431259,187.916763 252.516235,185.029068 
	C258.074402,182.391373 265.075745,185.207764 267.286713,191.064728 
	C267.804047,192.435135 267.930908,193.952927 268.207397,195.809204 
z"/>
<path fill="#000000" opacity="1.000000" stroke="none" 
	d="
M299.050232,195.031036 
	C303.189880,202.046356 302.046875,208.241272 296.261353,211.736252 
	C290.965912,214.935181 284.369476,213.281097 281.123077,207.940323 
	C278.480286,203.592560 279.316589,197.803757 283.094147,194.296448 
	C287.524811,190.182770 293.040161,190.334778 299.050232,195.031036 
z"/>
<path fill="#000000" opacity="1.000000" stroke="none" 
	d="
M330.049866,342.410095 
	C332.419067,349.281128 330.731995,354.372681 325.420227,357.282288 
	C320.872375,359.773468 314.795441,358.470306 311.497833,354.296722 
	C308.148132,350.057220 308.358337,344.138245 312.000946,340.130371 
	C316.948364,334.686829 325.088593,335.558289 330.049866,342.410095 
z"/>
<path fill="#000000" opacity="1.000000" stroke="none" 
	d="
M215.522568,194.652985 
	C220.936234,190.565796 225.949036,190.301086 230.348022,193.603851 
	C234.103531,196.423553 235.567276,202.240601 233.623077,206.619476 
	C231.594299,211.188873 226.862579,213.879044 221.950012,213.256088 
	C213.291779,212.158142 209.998856,203.150284 215.522568,194.652985 
z"/>
<path fill="#000000" opacity="1.000000" stroke="none" 
	d="
M230.913940,358.063904 
	C234.825897,362.333557 235.591583,366.862793 233.057938,371.606262 
	C230.829849,375.777618 227.127655,377.725220 222.315399,377.289886 
	C215.916626,376.711060 211.904663,371.425720 212.692245,364.618591 
	C213.385895,358.623291 219.153976,354.451965 225.200562,355.476807 
	C227.226105,355.820099 228.995316,356.609619 230.913940,358.063904 
z"/>
<path fill="#000000" opacity="1.000000" stroke="none" 
	d="
M189.897888,357.719849 
	C183.951996,354.368164 181.617920,349.563385 183.204788,344.528198 
	C184.895660,339.162994 189.257019,336.242371 194.941849,336.668365 
	C200.109436,337.055603 204.015152,340.769073 204.910782,346.146576 
	C206.183212,353.786407 199.335312,359.282776 189.897888,357.719849 
z"/>
</svg>