<svg version="1.1" id="Layer_1" xmlns="http://www.w3.org/2000/svg" xmlns:xlink="http://www.w3.org/1999/xlink" x="0px" y="0px"
	 width="100%" viewBox="0 0 512 512" enable-background="new 0 0 512 512" xml:space="preserve">
<path fill="#000000" opacity="1.000000" stroke="none" 
	d="
M253.407410,79.470085 
	C261.541077,83.755592 269.202576,88.159721 277.160919,91.938629 
	C291.432495,98.715271 301.778839,94.486679 307.507904,79.936089 
	C308.115967,78.391663 308.662781,76.813972 309.102020,75.214363 
	C309.771149,72.777718 311.220856,71.683304 313.805756,71.748840 
	C318.297913,71.862732 322.795105,71.775108 327.290192,71.778542 
	C329.805481,71.780464 331.631287,72.584839 331.184448,75.559891 
	C329.235626,88.535767 325.850647,101.007980 317.154877,111.283318 
	C306.442047,123.942093 289.156128,127.976807 272.505798,121.965759 
	C262.428101,118.327538 253.510498,112.369026 243.959381,107.678490 
	C240.828903,106.141129 237.674515,104.551559 234.369370,103.488655 
	C221.389755,99.314568 212.185806,103.894440 207.456039,116.653816 
	C204.275406,125.234116 204.275406,125.234390 195.113174,125.235115 
	C192.615860,125.235306 190.114746,125.146492 187.622192,125.254929 
	C184.695862,125.382240 183.239700,124.352150 183.624115,121.188507 
	C185.217407,108.075996 188.848511,95.700768 197.742264,85.584442 
	C209.402176,72.321716 224.270935,70.095993 240.564774,74.342308 
	C244.871628,75.464706 248.908264,77.623863 253.407410,79.470085 
z"/>
<path fill="#000000" opacity="1.000000" stroke="none" 
	d="
M242.068542,161.798126 
	C237.209045,154.454727 236.807861,146.862579 239.320923,139.077606 
	C243.087357,127.409889 260.661346,123.240997 270.674011,131.884842 
	C277.398712,137.690216 278.053619,145.563858 276.354370,153.837875 
	C274.882690,161.003830 270.853210,166.039612 263.701569,167.692825 
	C255.759598,169.528748 248.124634,168.932587 242.068542,161.798126 
z"/>
<path fill="#000000" opacity="1.000000" stroke="none" 
	d="
M262.286377,68.992149 
	C239.609924,71.975983 235.526367,53.028530 240.112442,38.843212 
	C242.003647,32.993423 246.801392,29.598030 252.781006,28.833900 
	C260.199341,27.885918 267.776337,28.209532 272.877625,34.743042 
	C280.435486,44.422791 278.889557,65.387398 262.286377,68.992149 
z"/>
<path fill="#000000" opacity="1.000000" stroke="none" 
	d="
M342.210754,307.283569 
	C348.413269,310.234924 351.154755,314.819336 350.052094,319.883087 
	C348.946808,324.958588 344.023682,329.113464 339.116119,329.112488 
	C334.163910,329.111481 329.748810,325.486816 328.228363,320.464050 
	C326.071716,313.339508 334.124115,304.368713 342.210754,307.283569 
z"/>
<path fill="#000000" opacity="1.000000" stroke="none" 
	d="
M246.779434,377.814606 
	C244.970337,370.974487 247.633698,365.103546 253.150497,363.092804 
	C258.804321,361.032104 264.959259,363.705750 267.288818,369.234314 
	C269.546478,374.592255 267.384979,380.579681 262.211731,383.298004 
	C256.660248,386.215027 250.924271,384.297699 246.779434,377.814606 
z"/>
<path fill="#000000" opacity="1.000000" stroke="none" 
	d="
M176.636322,306.883301 
	C182.124054,308.134796 185.245773,311.333344 186.097046,316.418579 
	C186.783768,320.520721 185.087860,323.947296 181.901337,326.511627 
	C177.810883,329.803406 172.619934,329.987671 168.529221,326.785736 
	C164.878189,323.927948 163.027496,320.142181 164.329193,315.369568 
	C165.822266,309.895325 169.868011,307.021210 176.636322,306.883301 
z"/>
<path fill="#000000" opacity="1.000000" stroke="none" 
	d="
M341.529358,274.282288 
	C348.576660,272.435822 353.432617,274.140717 356.060028,279.080688 
	C358.386902,283.455597 357.481079,288.947021 353.868439,292.366791 
	C349.292603,296.698456 341.819855,296.304138 337.838470,291.520935 
	C333.214630,285.966003 334.547974,279.189850 341.529358,274.282288 
z"/>
<path fill="#000000" opacity="1.000000" stroke="none" 
	d="
M172.470306,274.202148 
	C178.025345,277.842834 180.068863,282.193573 178.691254,286.870422 
	C177.155563,292.083923 172.792465,295.431274 167.675934,295.321350 
	C162.640060,295.213165 158.437439,291.886200 157.059494,287.000977 
	C154.803970,279.004486 163.186554,270.399017 172.470306,274.202148 
z"/>
<path fill="#000000" opacity="1.000000" stroke="none" 
	d="
M349.761169,247.737091 
	C350.618042,254.940430 347.417755,260.071594 341.587402,261.446899 
	C335.871674,262.795166 330.482117,259.779236 328.555206,254.154236 
	C326.730255,248.826889 329.375671,243.024673 334.762360,240.540039 
	C340.491852,237.897293 346.417114,240.615875 349.761169,247.737091 
z"/>
<path fill="#000000" opacity="1.000000" stroke="none" 
	d="
M182.693237,258.701874 
	C175.855728,263.248291 168.982864,262.210663 165.547333,256.415558 
	C162.176971,250.730377 164.279083,243.841614 170.326645,240.753250 
	C174.639847,238.550598 180.321365,239.724625 183.490234,243.473389 
	C187.309021,247.990997 187.152954,252.505646 182.693237,258.701874 
z"/>
<path fill="#000000" opacity="1.000000" stroke="none" 
	d="
M327.950134,228.939667 
	C321.303680,233.651306 314.810516,232.930542 311.127899,227.375443 
	C307.445648,221.820877 309.119202,214.914062 314.985260,211.456024 
	C319.370300,208.871048 325.158813,209.839523 328.581543,213.730835 
	C332.346100,218.010773 332.223511,223.166794 327.950134,228.939667 
z"/>
<path fill="#000000" opacity="1.000000" stroke="none" 
	d="
M189.245239,231.178741 
	C183.274826,227.124237 181.367325,222.112640 183.549347,217.018112 
	C185.642136,212.131912 190.794434,209.229889 195.591339,210.235474 
	C202.231949,211.627548 206.256912,217.405273 204.755478,223.390366 
	C203.044724,230.209854 196.989319,233.385971 189.245239,231.178741 
z"/>
<path fill="#000000" opacity="1.000000" stroke="none" 
	d="
M288.432831,377.203827 
	C281.300049,374.310944 278.489227,369.685455 279.829041,363.670593 
	C280.936005,358.701202 286.205170,354.890686 291.371979,355.322998 
	C297.799713,355.860779 302.032196,360.681580 301.684601,367.069092 
	C301.337341,373.450684 296.495880,377.293518 288.432831,377.203827 
z"/>
<path fill="#000000" opacity="1.000000" stroke="none" 
	d="
M286.410706,192.104340 
	C293.612244,190.600616 298.421509,192.531830 300.662720,197.524323 
	C302.759430,202.194931 301.367645,208.022980 297.443512,211.004669 
	C292.275024,214.931915 285.405212,213.918686 281.620911,208.671005 
	C277.614349,203.115112 279.355652,196.681046 286.410706,192.104340 
z"/>
<path fill="#000000" opacity="1.000000" stroke="none" 
	d="
M267.094513,199.665985 
	C263.229553,205.311462 259.159668,207.180328 254.396530,205.786926 
	C249.421310,204.331543 246.013489,200.153381 245.842667,195.299484 
	C245.680222,190.683380 249.134140,186.038071 253.956635,184.485718 
	C258.215424,183.114853 261.976807,184.489197 264.928955,187.398529 
	C268.255157,190.676498 269.202301,194.802368 267.094513,199.665985 
z"/>
<path fill="#000000" opacity="1.000000" stroke="none" 
	d="
M309.346191,349.429047 
	C309.207062,341.317261 313.369904,336.628632 320.259308,336.643921 
	C326.938019,336.658752 331.532715,341.404755 331.321167,348.070038 
	C331.162262,353.077209 327.023987,357.713013 322.140045,358.355011 
	C315.867188,359.179504 311.700165,356.374512 309.346191,349.429047 
z"/>
<path fill="#000000" opacity="1.000000" stroke="none" 
	d="
M223.791443,355.234436 
	C229.492645,355.985504 233.228973,358.657959 234.223740,364.100067 
	C235.104111,368.916382 233.554077,372.967773 229.255432,375.664948 
	C224.945068,378.369476 220.692429,377.873840 216.690353,375.047180 
	C212.624634,372.175568 211.824112,367.871979 212.927704,363.481812 
	C214.230072,358.300903 217.918335,355.431335 223.791443,355.234436 
z"/>
<path fill="#000000" opacity="1.000000" stroke="none" 
	d="
M224.751465,213.273376 
	C217.525604,212.958878 213.307648,209.642960 212.687363,204.139130 
	C212.026657,198.276627 215.146362,193.119019 220.220963,191.684296 
	C225.483734,190.196350 231.319107,192.849213 233.511246,197.726303 
	C236.500320,204.376404 233.084000,210.733597 224.751465,213.273376 
z"/>
<path fill="#000000" opacity="1.000000" stroke="none" 
	d="
M203.744690,352.409119 
	C199.658249,357.899261 195.879623,359.536316 190.793427,358.038605 
	C186.206284,356.687897 183.428787,353.482697 182.869873,348.794830 
	C182.281982,343.863983 184.432831,339.975830 188.856583,337.746887 
	C193.266815,335.524719 197.700882,336.106506 201.343155,339.407349 
	C205.160889,342.867218 206.036621,347.244934 203.744690,352.409119 
z"/>
</svg>