<svg version="1.1" id="Layer_1" xmlns="http://www.w3.org/2000/svg" xmlns:xlink="http://www.w3.org/1999/xlink" x="0px" y="0px"
	 width="100%" viewBox="0 0 512 512" enable-background="new 0 0 512 512" xml:space="preserve">
<path fill="#000000" opacity="1.000000" stroke="none" 
	d="
M235.735840,83.193748 
	C223.323181,80.151581 216.598083,83.555016 212.806381,95.577240 
	C211.291260,100.381248 208.992081,101.851562 204.343948,101.414948 
	C199.455414,100.955765 194.467957,101.807404 189.072464,100.797630 
	C191.267181,83.981415 194.630051,68.266609 210.276108,59.049839 
	C222.481110,51.860115 235.273621,53.618675 247.788773,58.480499 
	C253.822845,60.824589 259.578522,63.881954 265.476959,66.579811 
	C269.105042,68.239235 272.673889,70.088669 276.426544,71.404343 
	C289.739471,76.071846 296.937347,72.778496 301.591980,59.518028 
	C303.102692,55.214264 305.100494,53.205402 309.798798,53.700455 
	C313.585022,54.099411 317.446350,53.765873 321.273987,53.799976 
	C323.090424,53.816154 324.823151,54.292427 324.558167,56.553699 
	C322.773407,71.784187 319.032562,86.256607 305.318909,95.392609 
	C293.113617,103.523750 280.039337,102.384956 267.143280,96.996353 
	C259.323303,93.728790 251.767395,89.833481 244.047821,86.319099 
	C241.483551,85.151695 238.779083,84.292229 235.735840,83.193748 
z"/>
<path fill="#000000" opacity="1.000000" stroke="none" 
	d="
M235.715805,110.854935 
	C246.172699,113.047195 255.336182,117.389336 264.388428,122.016380 
	C269.132568,124.441353 273.912750,126.784966 279.043976,128.308640 
	C289.347015,131.368011 296.728546,128.621323 300.217316,118.416718 
	C302.792542,110.884224 306.760406,109.193909 314.042725,109.592949 
	C325.544189,110.223167 325.682373,109.786888 323.313232,121.071289 
	C320.832336,132.888168 316.502319,143.864853 306.045593,150.965408 
	C293.736023,159.324066 280.567749,158.557007 267.449982,153.103683 
	C259.317352,149.722809 251.453705,145.697418 243.445038,142.014053 
	C241.484314,141.112289 239.461838,140.315475 237.410919,139.643921 
	C224.613419,135.453552 216.659454,139.160873 212.656723,151.892960 
	C211.284424,156.258087 209.325912,157.720840 204.952133,157.423965 
	C199.886047,157.080109 194.778748,157.343903 189.773438,157.343903 
	C188.006042,128.272278 206.808609,109.437798 235.715805,110.854935 
z"/>
<path fill="#000000" opacity="1.000000" stroke="none" 
	d="
M329.761353,312.037140 
	C334.418793,306.734650 338.477875,305.498840 343.509460,307.767365 
	C348.044342,309.811859 350.354034,313.454041 350.209381,318.402466 
	C350.067902,323.240814 346.440857,327.422028 341.545380,328.697449 
	C337.251709,329.816101 333.597778,328.361420 330.820587,325.199097 
	C327.437866,321.347260 326.819183,316.955719 329.761353,312.037140 
z"/>
<path fill="#000000" opacity="1.000000" stroke="none" 
	d="
M254.778900,384.305908 
	C248.212234,381.847412 245.026703,377.218811 245.926727,371.961121 
	C246.792542,366.903290 251.173401,362.896912 256.107758,362.650330 
	C262.120514,362.349823 266.489899,365.472534 267.960205,371.021484 
	C269.694153,377.565491 263.645752,386.124542 254.778900,384.305908 
z"/>
<path fill="#000000" opacity="1.000000" stroke="none" 
	d="
M191.608246,210.235046 
	C198.946182,210.086533 202.646851,212.403122 204.354782,217.858383 
	C205.826462,222.559097 204.170227,227.426086 200.180481,230.124786 
	C194.929565,233.676529 188.236694,232.507263 184.739670,227.427200 
	C181.074951,222.103546 182.487015,215.327499 188.061996,211.777496 
	C189.028595,211.162018 190.170837,210.822372 191.608246,210.235046 
z"/>
<path fill="#000000" opacity="1.000000" stroke="none" 
	d="
M329.447937,214.866089 
	C332.199799,219.735031 332.113464,224.136551 328.647858,228.138336 
	C325.709625,231.531128 322.032379,233.028519 317.485413,231.796356 
	C312.784882,230.522598 310.188873,227.399872 309.363525,222.713669 
	C308.552246,218.107132 310.980530,213.564499 315.446106,211.186310 
	C320.056946,208.730743 324.652618,209.849976 329.447937,214.866089 
z"/>
<path fill="#000000" opacity="1.000000" stroke="none" 
	d="
M186.085144,252.537598 
	C183.050476,263.106445 172.149918,263.808716 167.153763,258.468750 
	C163.940521,255.034378 162.821655,250.973053 164.872803,246.520370 
	C166.834366,242.262192 170.118149,239.690643 174.989395,239.696655 
	C179.785751,239.702560 183.228241,241.939362 185.228134,246.311966 
	C186.071777,248.156479 186.512970,250.089371 186.085144,252.537598 
z"/>
<path fill="#000000" opacity="1.000000" stroke="none" 
	d="
M333.152710,260.116455 
	C327.902008,255.316833 326.625824,251.086990 329.010376,246.256058 
	C331.178131,241.864380 334.701172,239.397415 339.798126,239.705750 
	C344.678131,240.000961 348.519470,243.175171 349.854980,248.014313 
	C351.050934,252.347900 349.524506,255.972763 346.443146,258.845856 
	C342.592346,262.436371 338.111633,262.522888 333.152710,260.116455 
z"/>
<path fill="#000000" opacity="1.000000" stroke="none" 
	d="
M169.651581,295.254333 
	C164.053238,295.640900 160.117050,293.641510 157.831635,288.924683 
	C155.822174,284.777374 156.402603,280.847839 159.369400,277.292542 
	C162.493271,273.549011 166.490005,272.623810 171.062698,273.754395 
	C175.610596,274.878815 178.884659,279.118805 179.119202,284.043213 
	C179.339142,288.661499 175.918686,292.883759 169.651581,295.254333 
z"/>
<path fill="#000000" opacity="1.000000" stroke="none" 
	d="
M345.958466,273.237671 
	C355.389496,273.330353 359.865479,282.959747 355.928711,289.680054 
	C353.436462,293.934418 348.985718,296.073029 344.084839,295.204987 
	C339.503113,294.393494 335.863068,290.541565 335.299957,285.547150 
	C334.736145,280.546326 336.955566,276.831726 341.299286,274.470459 
	C342.572205,273.778534 344.138367,273.626007 345.958466,273.237671 
z"/>
<path fill="#000000" opacity="1.000000" stroke="none" 
	d="
M185.411743,314.052185 
	C187.132828,321.231262 184.298660,326.552063 178.015503,328.546539 
	C172.702972,330.232910 166.904175,327.271912 164.712326,321.753571 
	C162.574692,316.371735 165.218933,310.294159 170.830627,307.691071 
	C176.157181,305.220215 181.765259,307.539734 185.411743,314.052185 
z"/>
<path fill="#000000" opacity="1.000000" stroke="none" 
	d="
M282.833191,374.158752 
	C279.110291,369.924866 278.529785,365.512024 281.024933,360.969543 
	C283.198486,357.012573 286.774567,355.002716 291.361511,355.350220 
	C296.323792,355.726105 299.819183,358.232635 301.217316,363.123993 
	C302.612640,368.005585 300.878418,372.666077 296.876587,375.392212 
	C292.492279,378.378845 288.295868,378.086395 282.833191,374.158752 
z"/>
<path fill="#000000" opacity="1.000000" stroke="none" 
	d="
M254.620056,184.265594 
	C260.035309,183.742966 264.252319,185.255463 266.800659,189.822647 
	C269.142426,194.019623 268.665344,198.230927 265.660339,201.934113 
	C262.976440,205.241577 259.440552,207.010849 255.085205,205.973053 
	C250.091644,204.783157 246.855377,201.617416 246.032150,196.487686 
	C245.334579,192.140915 247.285141,188.719467 250.692810,186.149658 
	C251.730133,185.367386 253.052994,184.963715 254.620056,184.265594 
z"/>
<path fill="#000000" opacity="1.000000" stroke="none" 
	d="
M279.788727,204.565887 
	C279.671997,196.602661 283.567047,191.664597 289.863617,191.304947 
	C295.263367,190.996521 299.993622,194.241745 301.207642,199.087631 
	C302.634216,204.781998 300.296844,209.930756 295.177704,212.370209 
	C290.367126,214.662613 284.738800,213.123016 281.562378,208.537964 
	C280.822021,207.469254 280.408539,206.174072 279.788727,204.565887 
z"/>
<path fill="#000000" opacity="1.000000" stroke="none" 
	d="
M313.727234,356.444977 
	C308.731476,351.326477 307.835022,346.610474 310.693756,341.922241 
	C313.476562,337.358459 319.046417,335.387848 324.171722,337.153656 
	C328.701202,338.714203 331.675659,343.465607 331.309296,348.555115 
	C330.720520,356.734406 322.323792,360.675232 313.727234,356.444977 
z"/>
<path fill="#000000" opacity="1.000000" stroke="none" 
	d="
M217.926056,356.714111 
	C223.915695,354.455902 228.768768,355.298126 231.844910,359.054291 
	C234.860291,362.736267 235.376953,366.958984 233.311340,371.157837 
	C231.139954,375.571716 227.372314,377.815765 222.335510,377.267975 
	C217.824493,376.777344 214.370316,374.426514 213.108826,370.047394 
	C211.606750,364.833069 212.830460,360.175476 217.926056,356.714111 
z"/>
<path fill="#000000" opacity="1.000000" stroke="none" 
	d="
M222.258743,213.271423 
	C214.371460,210.875107 211.131180,205.787903 212.879059,199.177643 
	C214.257019,193.966354 219.574036,190.667969 225.137650,191.573013 
	C231.211624,192.561111 234.612366,196.803482 234.340210,203.053146 
	C234.076370,209.111923 229.700180,212.953903 222.258743,213.271423 
z"/>
<path fill="#000000" opacity="1.000000" stroke="none" 
	d="
M193.945343,336.643677 
	C201.027924,337.611053 205.049347,341.694641 205.097992,347.539062 
	C205.139435,352.515442 200.716629,357.618317 195.771729,358.299408 
	C189.809097,359.120605 184.896591,355.885132 183.101227,350.328461 
	C181.282257,344.698822 186.236374,336.094513 193.945343,336.643677 
z"/>
</svg>