<svg version="1.1" id="Layer_1" xmlns="http://www.w3.org/2000/svg" xmlns:xlink="http://www.w3.org/1999/xlink" x="0px" y="0px"
	 width="100%" viewBox="0 0 512 512" enable-background="new 0 0 512 512" xml:space="preserve">
<path fill="#000000" opacity="1.000000" stroke="none" 
	d="
M236.956238,398.012024 
	C238.867310,404.296082 237.884201,410.477295 237.928909,416.598022 
	C237.957382,420.498505 239.348907,421.842865 243.247925,421.747070 
	C252.241989,421.526154 261.251007,421.490509 270.242310,421.763062 
	C274.549316,421.893616 276.359375,420.600739 276.039948,416.123077 
	C275.732391,411.811737 275.928101,407.461029 275.986847,403.128754 
	C276.011017,401.346436 275.641846,399.434540 277.094604,397.868896 
	C279.225800,397.417114 280.444397,399.084656 281.829529,400.096344 
	C296.092468,410.513885 310.257141,421.066498 324.562439,431.425110 
	C327.777618,433.753296 327.986908,435.099915 324.582336,437.553040 
	C310.119995,447.973511 295.839478,458.646179 281.471802,469.198486 
	C280.184326,470.144073 279.038055,471.544098 276.612030,471.081757 
	C275.256378,466.027924 276.118042,460.714203 276.045258,455.488190 
	C275.931824,447.345276 276.037842,447.341309 267.831787,447.335022 
	C259.498871,447.328613 251.162842,447.460815 242.834473,447.264496 
	C239.084442,447.176056 237.878723,448.633270 237.927429,452.258881 
	C238.011414,458.513641 238.484512,464.814606 237.356796,472.686920 
	C219.749985,459.730225 203.162216,447.523468 186.940201,435.585846 
	C187.080383,432.950836 188.517670,432.253723 189.692719,431.385315 
	C204.298645,420.591278 218.914978,409.811340 233.527985,399.026886 
	C234.464981,398.335419 235.359695,397.542603 236.956238,398.012024 
z"/>
<path fill="#000000" opacity="1.000000" stroke="none" 
	d="
M335.800018,307.263672 
	C342.931152,306.326172 347.418976,308.673248 349.499451,314.083649 
	C351.188965,318.477173 349.674469,323.693848 345.865570,326.600952 
	C341.003265,330.312103 334.447662,329.643951 330.625610,325.047729 
	C326.729492,320.362457 327.108612,313.892426 331.642059,309.788300 
	C332.728424,308.804810 334.150269,308.191833 335.800018,307.263672 
z"/>
<path fill="#000000" opacity="1.000000" stroke="none" 
	d="
M357.186157,286.507996 
	C355.228882,292.061554 351.954071,295.373749 346.093964,295.323730 
	C341.433899,295.283936 338.164398,293.017883 336.240601,288.912384 
	C334.195496,284.548126 334.950897,280.383789 338.110962,276.859558 
	C341.305725,273.296600 345.432434,272.356720 349.938232,273.906219 
	C354.256714,275.391266 356.715332,278.558105 357.274628,283.108673 
	C357.395172,284.089539 357.267914,285.100891 357.186157,286.507996 
z"/>
<path fill="#000000" opacity="1.000000" stroke="none" 
	d="
M157.242676,280.795227 
	C159.539276,275.714203 163.112213,273.097931 168.368073,273.331451 
	C172.673203,273.522705 176.026703,275.477417 177.920456,279.497253 
	C179.993469,283.897644 179.265976,288.001068 176.126282,291.561005 
	C172.969238,295.140594 168.898575,296.308868 164.351059,294.758759 
	C159.837524,293.220245 157.293518,289.873077 156.783356,285.130524 
	C156.644257,283.837494 156.977936,282.493561 157.242676,280.795227 
z"/>
<path fill="#000000" opacity="1.000000" stroke="none" 
	d="
M197.863358,231.361694 
	C190.670731,233.182465 185.239899,230.460327 183.258026,224.368011 
	C181.521255,219.029175 184.294891,213.092545 189.576126,210.844833 
	C194.722443,208.654541 201.134201,210.948029 203.615417,215.866669 
	C206.691132,221.963791 204.851166,227.218536 197.863358,231.361694 
z"/>
<path fill="#000000" opacity="1.000000" stroke="none" 
	d="
M182.104004,259.179688 
	C176.076553,262.822815 170.284271,262.263763 166.609451,257.931641 
	C162.994720,253.670364 163.061737,247.596664 166.769470,243.422775 
	C170.453278,239.275848 176.515076,238.437881 181.192261,241.429016 
	C187.285248,245.325562 187.775558,252.336456 182.104004,259.179688 
z"/>
<path fill="#000000" opacity="1.000000" stroke="none" 
	d="
M328.772339,254.840912 
	C326.957520,247.645523 330.199310,241.479599 336.306183,239.897903 
	C342.301666,238.345062 348.582062,242.272415 350.009796,248.467224 
	C351.314636,254.128845 347.142639,260.330994 341.220764,261.533051 
	C336.123413,262.567749 332.348114,260.631439 328.772339,254.840912 
z"/>
<path fill="#000000" opacity="1.000000" stroke="none" 
	d="
M314.831329,211.545135 
	C321.014984,209.022522 326.230591,210.249680 329.336639,214.669434 
	C332.286591,218.867111 332.056976,224.143341 328.752869,228.083267 
	C325.284424,232.219101 320.131775,233.244324 315.206879,231.039062 
	C309.378754,228.429321 305.522705,217.645874 314.831329,211.545135 
z"/>
<path fill="#000000" opacity="1.000000" stroke="none" 
	d="
M182.385132,309.537018 
	C186.784592,315.054138 187.326904,318.824799 184.540573,323.455536 
	C182.186462,327.367981 178.594818,329.431152 174.118591,328.949493 
	C169.036346,328.402557 165.558655,325.412811 164.267960,320.338104 
	C163.114822,315.804169 164.859146,312.142853 168.304764,309.297119 
	C172.480927,305.847992 176.197449,305.922760 182.385132,309.537018 
z"/>
<path fill="#000000" opacity="1.000000" stroke="none" 
	d="
M259.540283,362.757324 
	C266.163513,365.459381 269.133087,370.089569 268.056824,375.429993 
	C266.996704,380.690277 262.822876,384.255310 257.556793,384.398499 
	C251.789047,384.555298 247.674500,381.352905 246.087021,375.995911 
	C244.397949,370.296051 250.097488,360.782806 259.540283,362.757324 
z"/>
<path fill="#000000" opacity="1.000000" stroke="none" 
	d="
M254.661530,205.890778 
	C244.995468,201.719589 242.931549,192.195374 250.102798,186.511627 
	C254.255112,183.220612 259.604279,183.189102 263.954987,186.430038 
	C267.589111,189.137177 269.090912,194.175186 267.545898,198.476059 
	C265.584381,203.936325 261.475769,206.413742 254.661530,205.890778 
z"/>
<path fill="#000000" opacity="1.000000" stroke="none" 
	d="
M281.346069,208.302277 
	C278.598450,202.044220 279.362152,197.433075 283.437073,193.956314 
	C287.033691,190.887680 292.352264,190.429291 296.485535,192.831741 
	C300.480988,195.154083 302.473785,200.022675 301.358704,204.914810 
	C300.376404,209.224594 297.504425,211.963257 293.406281,213.001740 
	C288.647003,214.207748 284.547333,212.716919 281.346069,208.302277 
z"/>
<path fill="#000000" opacity="1.000000" stroke="none" 
	d="
M281.632568,359.928284 
	C285.363647,355.389709 289.831696,354.255463 294.852417,356.084351 
	C299.406891,357.743439 301.545593,361.449341 301.658539,366.172699 
	C301.767914,370.743988 299.606628,374.208496 295.502472,376.193207 
	C291.018738,378.361603 286.750732,377.750031 283.052673,374.347565 
	C279.108368,370.718536 278.596252,365.890259 281.632568,359.928284 
z"/>
<path fill="#000000" opacity="1.000000" stroke="none" 
	d="
M309.715332,350.964233 
	C308.438995,344.097229 311.204468,338.814484 316.716583,337.030640 
	C322.307037,335.221436 328.027344,337.786835 330.369995,343.153809 
	C332.706146,348.505890 330.682800,354.342865 325.486816,357.240906 
	C319.705048,360.465637 313.578003,358.160706 309.715332,350.964233 
z"/>
<path fill="#000000" opacity="1.000000" stroke="none" 
	d="
M228.980850,356.752441 
	C235.096741,361.701935 236.177475,367.752838 232.202621,373.001526 
	C228.577332,377.788605 222.259766,378.765533 217.129501,375.332336 
	C212.594269,372.297333 211.137772,366.183960 213.758987,361.185455 
	C216.696854,355.583130 221.475815,354.104401 228.980850,356.752441 
z"/>
<path fill="#000000" opacity="1.000000" stroke="none" 
	d="
M232.660400,208.314056 
	C229.311722,212.878067 225.085266,214.341629 220.167953,212.823563 
	C216.143967,211.581268 213.285934,208.833893 212.714355,204.366547 
	C212.123047,199.745041 213.370102,195.831787 217.370834,193.078491 
	C221.239853,190.415848 227.057068,190.789581 230.788223,193.943741 
	C234.668579,197.224030 235.432617,202.327209 232.660400,208.314056 
z"/>
<path fill="#000000" opacity="1.000000" stroke="none" 
	d="
M201.940796,354.953857 
	C195.318329,360.027527 188.078323,359.217163 184.467163,353.311798 
	C180.999664,347.641418 182.978455,340.714569 188.943192,337.643158 
	C193.135132,335.484619 198.884857,336.585541 202.156097,340.173126 
	C205.868301,344.244324 205.884995,349.012512 201.940796,354.953857 
z"/>
</svg>