<svg version="1.1" id="Layer_1" xmlns="http://www.w3.org/2000/svg" xmlns:xlink="http://www.w3.org/1999/xlink" x="0px" y="0px"
	 width="100%" viewBox="0 0 512 512" enable-background="new 0 0 512 512" xml:space="preserve">
<path fill="#000000" opacity="1.000000" stroke="none" 
	d="
M242.780945,447.007782 
	C242.775009,443.343689 242.611298,440.168091 242.807175,437.014801 
	C243.020355,433.583160 241.751862,432.204376 238.223648,432.324677 
	C232.315659,432.526062 226.395813,432.379700 220.578369,432.379700 
	C220.167252,429.761749 221.569748,428.882935 222.554642,427.859955 
	C232.723114,417.298462 243.002731,406.842499 253.066132,396.182281 
	C255.854401,393.228577 257.760590,392.923004 260.698700,396.053162 
	C270.731628,406.741943 281.009735,417.200500 291.183380,427.757385 
	C292.188782,428.800720 293.435760,429.718872 293.649231,431.742950 
	C288.842072,433.011292 284.054474,432.251312 279.344849,432.324371 
	C271.083160,432.452576 271.100433,432.353912 271.113068,440.375153 
	C271.130920,451.705261 270.987854,463.037659 271.182770,474.364441 
	C271.258514,478.767578 269.993561,480.769257 265.217529,480.455139 
	C259.576569,480.084106 253.884872,480.174103 248.230606,480.419617 
	C244.153336,480.596649 242.600067,479.178558 242.706406,474.996704 
	C242.939285,465.838440 242.780441,456.670258 242.780945,447.007782 
z"/>
<path fill="#000000" opacity="1.000000" stroke="none" 
	d="
M335.798950,307.260620 
	C342.521637,306.373138 346.842407,308.387665 349.136902,313.155762 
	C351.204895,317.453186 350.193237,322.694794 346.658142,325.998596 
	C342.223633,330.143036 334.992584,329.886627 330.933228,325.441101 
	C326.755280,320.865570 327.014984,313.963074 331.637115,309.782898 
	C332.724304,308.799652 334.147919,308.188385 335.798950,307.260620 
z"/>
<path fill="#000000" opacity="1.000000" stroke="none" 
	d="
M202.308380,228.245041 
	C196.396378,232.966095 191.795074,233.411850 187.199051,230.003448 
	C183.217529,227.050766 181.646088,221.591232 183.494476,217.132980 
	C186.128448,210.779938 192.953064,208.262604 199.125290,211.367447 
	C204.983765,214.314468 206.433319,221.365250 202.308380,228.245041 
z"/>
<path fill="#000000" opacity="1.000000" stroke="none" 
	d="
M169.478912,273.498047 
	C176.410492,275.331818 180.153030,280.563324 178.903458,286.198395 
	C177.603821,292.059235 172.289429,295.942780 166.489258,295.270172 
	C160.701691,294.598999 156.369949,289.361725 156.729004,283.469452 
	C157.103210,277.328003 161.890198,273.442261 169.478912,273.498047 
z"/>
<path fill="#000000" opacity="1.000000" stroke="none" 
	d="
M329.467346,214.851929 
	C332.197937,219.732025 332.127686,224.140488 328.653290,228.152328 
	C325.704102,231.557770 322.007050,233.035812 317.462585,231.817093 
	C312.745972,230.552185 310.173340,227.388733 309.329529,222.707626 
	C308.507477,218.147400 310.980988,213.531189 315.439789,211.166473 
	C320.080902,208.705063 324.658051,209.819397 329.467346,214.851929 
z"/>
<path fill="#000000" opacity="1.000000" stroke="none" 
	d="
M185.486145,246.971237 
	C187.037964,254.108810 183.931412,259.732086 177.877914,261.371094 
	C172.266907,262.890289 166.692917,259.975525 164.631607,254.444275 
	C162.647278,249.119629 165.107178,243.321594 170.474823,240.671783 
	C176.034531,237.927155 181.694290,240.178955 185.486145,246.971237 
z"/>
<path fill="#000000" opacity="1.000000" stroke="none" 
	d="
M330.310913,257.541199 
	C327.158844,252.874298 327.085846,248.476425 330.200470,244.231720 
	C332.896118,240.557907 336.633972,238.980942 341.148132,239.840759 
	C345.642761,240.696869 348.520508,243.499435 349.823486,247.873672 
	C351.187286,252.451935 348.983643,257.588409 344.564636,260.252960 
	C340.131805,262.925842 335.266937,262.088715 330.310913,257.541199 
z"/>
<path fill="#000000" opacity="1.000000" stroke="none" 
	d="
M354.653015,291.524292 
	C348.024323,296.916077 340.984283,296.384705 337.114655,290.521088 
	C333.469818,284.998108 335.209442,277.792847 340.958435,274.600800 
	C345.176361,272.258850 350.904907,273.126526 354.297028,276.621094 
	C358.097107,280.535950 358.299286,285.394928 354.653015,291.524292 
z"/>
<path fill="#000000" opacity="1.000000" stroke="none" 
	d="
M172.666748,328.684784 
	C166.311295,326.081451 163.169235,321.512146 164.004349,316.515747 
	C164.879761,311.278320 169.547684,306.952484 174.551392,306.741638 
	C179.780258,306.521332 184.517059,310.148804 185.910095,315.440216 
	C187.860321,322.847961 181.568970,329.382996 172.666748,328.684784 
z"/>
<path fill="#000000" opacity="1.000000" stroke="none" 
	d="
M256.161377,362.646912 
	C263.610596,363.022491 267.983032,366.933258 268.238617,373.053345 
	C268.464966,378.472992 264.184875,383.658325 258.938904,384.319885 
	C252.606110,385.118561 247.545532,381.783478 246.113373,375.867432 
	C244.640198,369.781982 248.758621,364.129730 256.161377,362.646912 
z"/>
<path fill="#000000" opacity="1.000000" stroke="none" 
	d="
M268.126007,196.615509 
	C264.457184,206.466370 255.962402,209.277512 249.415466,203.033829 
	C246.192810,199.960464 244.887985,196.131607 246.549164,191.672073 
	C248.297897,186.977463 251.737839,184.085541 256.624054,184.027512 
	C261.115936,183.974167 265.094543,185.890717 267.087769,190.404343 
	C267.892853,192.227402 268.531738,194.142761 268.126007,196.615509 
z"/>
<path fill="#000000" opacity="1.000000" stroke="none" 
	d="
M283.186646,194.177261 
	C290.079742,189.748978 297.033539,190.923248 300.291351,196.761108 
	C303.468689,202.454742 301.174133,209.511871 295.215149,212.373505 
	C290.795807,214.495773 285.385071,213.256104 282.122772,209.373825 
	C278.535492,205.104813 278.807312,199.883347 283.186646,194.177261 
z"/>
<path fill="#000000" opacity="1.000000" stroke="none" 
	d="
M280.190552,370.158875 
	C277.739990,360.694946 284.642456,355.445282 290.211517,355.245270 
	C295.358368,355.060425 299.907410,358.291290 301.208405,362.950439 
	C302.716583,368.351501 300.602753,373.452209 295.761353,376.094482 
	C291.177887,378.595947 285.778290,377.583710 282.220062,373.471649 
	C281.470123,372.604980 280.967682,371.524170 280.190552,370.158875 
z"/>
<path fill="#000000" opacity="1.000000" stroke="none" 
	d="
M322.371460,358.329346 
	C315.343750,358.391052 311.439911,356.080841 309.756592,351.122528 
	C308.165558,346.436066 309.649261,341.542572 313.616150,338.719543 
	C317.519104,335.941986 321.743011,335.773163 325.848022,337.998199 
	C329.878479,340.182800 331.644501,343.949677 331.265625,348.442657 
	C330.825439,353.663025 327.684906,356.824341 322.371460,358.329346 
z"/>
<path fill="#000000" opacity="1.000000" stroke="none" 
	d="
M212.707123,200.388275 
	C215.026123,193.790710 218.717926,190.907227 223.853714,191.285156 
	C229.135345,191.673843 233.341370,195.104736 234.235153,199.753387 
	C235.249527,205.029404 232.957260,209.858521 228.276016,212.249588 
	C220.752533,216.092407 210.787354,209.582214 212.707123,200.388275 
z"/>
<path fill="#000000" opacity="1.000000" stroke="none" 
	d="
M214.105133,360.551331 
	C217.464020,355.714630 221.728073,354.188904 226.914383,355.868408 
	C231.435257,357.332397 234.003113,360.519470 234.360870,365.391327 
	C234.733185,370.461365 232.540710,374.116913 228.118088,376.290131 
	C223.597092,378.511688 219.232559,377.565338 215.720062,374.191650 
	C211.756271,370.384491 211.721725,365.709503 214.105133,360.551331 
z"/>
<path fill="#000000" opacity="1.000000" stroke="none" 
	d="
M198.035858,337.332886 
	C203.980865,340.953400 206.049179,345.180908 204.594742,350.171906 
	C203.137894,355.171295 199.057587,358.354706 194.065887,358.386444 
	C188.661057,358.420807 184.449432,355.246857 183.073181,350.102142 
	C180.856537,341.815918 187.881668,335.581818 198.035858,337.332886 
z"/>
</svg>