<svg version="1.1" id="Layer_1" xmlns="http://www.w3.org/2000/svg" xmlns:xlink="http://www.w3.org/1999/xlink" x="0px" y="0px"
	 width="100%" viewBox="0 0 512 512" enable-background="new 0 0 512 512" xml:space="preserve">
<path fill="#000000" opacity="1.000000" stroke="none" 
	d="
M272.273804,143.357956 
	C258.171143,149.018524 244.732941,155.191010 231.610687,162.067520 
	C225.879288,165.070969 224.426544,163.572662 223.463730,157.410416 
	C221.569412,145.286316 225.828186,137.688782 237.399673,133.316605 
	C244.282578,130.715958 250.608734,126.641838 257.150360,123.248238 
	C256.226929,120.690147 254.201981,120.439034 252.654465,119.652725 
	C243.901901,115.205383 235.306549,110.485435 226.866302,105.466751 
	C224.437805,104.022743 223.340057,102.371468 223.514816,99.461105 
	C223.773621,95.150558 223.529922,90.812271 223.605667,86.487640 
	C223.685471,81.931938 225.185913,80.866432 229.507996,82.343971 
	C231.227631,82.931847 232.848999,83.827362 234.479126,84.653809 
	C251.399887,93.232285 268.543854,101.313957 286.506653,107.501030 
	C289.334595,108.475082 290.454041,109.919113 290.383118,112.900154 
	C290.220886,119.717987 290.232056,126.544464 290.378204,133.363037 
	C290.443024,136.388672 289.221649,137.823349 286.349091,138.643951 
	C281.720673,139.966187 277.206604,141.688797 272.273804,143.357956 
z"/>
<path fill="#000000" opacity="1.000000" stroke="none" 
	d="
M331.166382,310.187500 
	C335.489319,306.269989 339.979126,305.650085 344.687408,308.379028 
	C348.785675,310.754425 350.812164,314.522552 350.102020,319.226654 
	C349.376312,324.033691 346.506409,327.360870 341.693726,328.646210 
	C337.005951,329.898224 333.170898,328.212158 330.284454,324.559204 
	C326.800293,320.149841 327.081421,316.182983 331.166382,310.187500 
z"/>
<path fill="#000000" opacity="1.000000" stroke="none" 
	d="
M259.539581,362.759644 
	C266.160645,365.466003 269.142517,370.111847 268.064026,375.435791 
	C266.965057,380.861053 262.571228,384.460083 257.067200,384.443329 
	C251.426056,384.426178 247.178848,380.988312 246.030853,375.510040 
	C244.513702,368.270203 250.352814,362.561432 259.539581,362.759644 
z"/>
<path fill="#000000" opacity="1.000000" stroke="none" 
	d="
M203.973450,225.625488 
	C200.098480,231.353958 195.750183,233.280121 190.775116,231.749969 
	C185.880646,230.244614 182.674622,225.929916 182.727325,220.919250 
	C182.778107,216.092987 186.198730,211.774963 191.169510,210.387985 
	C195.240921,209.251923 198.904129,210.448471 201.695938,213.315521 
	C204.924637,216.631226 205.999298,220.740860 203.973450,225.625488 
z"/>
<path fill="#000000" opacity="1.000000" stroke="none" 
	d="
M317.642090,231.841934 
	C310.762115,229.052246 307.910797,223.928299 309.647644,218.057785 
	C311.216522,212.754990 316.807068,209.152252 321.917419,210.150665 
	C328.119812,211.362457 331.868683,216.208084 331.304688,222.284317 
	C330.728912,228.487106 325.186737,232.525879 317.642090,231.841934 
z"/>
<path fill="#000000" opacity="1.000000" stroke="none" 
	d="
M164.276794,253.317719 
	C163.656464,246.121735 167.137711,240.885574 172.893372,239.789886 
	C178.354843,238.750198 183.605850,241.807312 185.543228,247.154648 
	C187.382462,252.231079 184.971283,258.028870 179.944504,260.617065 
	C173.940674,263.708344 167.480911,260.832184 164.276794,253.317719 
z"/>
<path fill="#000000" opacity="1.000000" stroke="none" 
	d="
M345.218201,241.462463 
	C350.245209,246.269363 351.411438,250.304535 349.228027,254.965927 
	C347.130707,259.443451 343.600769,261.955627 338.574158,261.737091 
	C333.310394,261.508179 329.475983,258.215240 328.234741,253.139603 
	C327.174286,248.803299 328.724030,245.219727 331.912476,242.404922 
	C335.874176,238.907471 340.306702,238.811340 345.218201,241.462463 
z"/>
<path fill="#000000" opacity="1.000000" stroke="none" 
	d="
M173.170654,274.542145 
	C178.586853,278.722168 180.164825,282.862793 178.427505,287.602570 
	C176.593216,292.606903 172.414017,295.528992 167.396957,295.315125 
	C162.550415,295.108490 158.528717,291.940338 157.144135,287.204895 
	C155.952744,283.130249 157.069183,279.581024 159.936081,276.639557 
	C163.634109,272.845398 168.069870,272.525482 173.170654,274.542145 
z"/>
<path fill="#000000" opacity="1.000000" stroke="none" 
	d="
M357.224060,282.364044 
	C357.216431,289.097534 354.577362,293.339844 349.719238,294.930023 
	C345.214203,296.404633 340.036224,294.682739 337.305786,290.802002 
	C334.329529,286.571869 334.412262,281.403351 337.685425,277.388763 
	C340.286102,274.198914 343.611938,272.838989 347.826477,273.479614 
	C352.901764,274.251099 355.789673,277.213257 357.224060,282.364044 
z"/>
<path fill="#000000" opacity="1.000000" stroke="none" 
	d="
M182.959839,310.067627 
	C186.583755,314.534576 187.420242,318.965668 184.396866,323.690704 
	C181.940369,327.529785 178.338516,329.530182 173.843857,328.926422 
	C168.993408,328.274841 165.624771,325.414337 164.322403,320.548615 
	C163.050827,315.797913 164.854828,312.021484 168.527740,309.124237 
	C172.910843,305.666748 176.939133,305.941864 182.959839,310.067627 
z"/>
<path fill="#000000" opacity="1.000000" stroke="none" 
	d="
M286.411621,192.106354 
	C293.638153,190.608551 298.394623,192.518417 300.672150,197.528885 
	C302.810760,202.233780 301.444214,207.957779 297.456451,210.998398 
	C292.296844,214.932541 285.408417,213.922989 281.626221,208.678345 
	C277.609833,203.108902 279.343933,196.693802 286.411621,192.106354 
z"/>
<path fill="#000000" opacity="1.000000" stroke="none" 
	d="
M283.415375,374.695587 
	C279.328705,370.751709 278.522491,366.360718 280.665436,361.670654 
	C282.634735,357.360504 286.285858,355.106598 291.069824,355.327118 
	C296.014618,355.555023 299.691284,357.976044 301.133575,362.843597 
	C302.523376,367.534119 301.468170,371.774628 297.533173,374.953979 
	C293.496521,378.215515 288.979919,378.159515 283.415375,374.695587 
z"/>
<path fill="#000000" opacity="1.000000" stroke="none" 
	d="
M256.152893,183.952545 
	C262.157593,184.474808 266.427399,186.812698 267.877411,192.686600 
	C268.997864,197.225281 267.296234,200.905136 263.839966,203.718842 
	C258.697052,207.905624 251.343674,206.593140 247.764450,201.026932 
	C244.252899,195.565948 245.891922,188.801193 251.598755,185.586349 
	C252.879517,184.864868 254.365952,184.508530 256.152893,183.952545 
z"/>
<path fill="#000000" opacity="1.000000" stroke="none" 
	d="
M315.035431,357.217712 
	C309.361969,352.911713 307.730957,347.787750 310.152313,342.790710 
	C312.513672,337.917480 318.267670,335.445862 323.678833,336.980408 
	C328.421234,338.325317 331.678589,343.255432 331.310638,348.531433 
	C330.785461,356.063110 323.570374,360.070282 315.035431,357.217712 
z"/>
<path fill="#000000" opacity="1.000000" stroke="none" 
	d="
M223.923309,377.314148 
	C216.853912,376.570312 213.139221,373.308624 212.668594,367.808380 
	C212.161713,361.884125 215.336578,356.970551 220.563538,355.589935 
	C225.705490,354.231750 231.244949,356.758209 233.420181,361.576477 
	C236.850128,369.173981 231.447571,377.054993 223.923309,377.314148 
z"/>
<path fill="#000000" opacity="1.000000" stroke="none" 
	d="
M221.451477,191.442749 
	C232.828644,190.664169 236.486481,200.434418 233.401031,207.010727 
	C231.156525,211.794693 225.998215,214.248642 221.016235,213.135284 
	C216.439804,212.112579 213.055420,208.318146 212.668808,203.776505 
	C212.133438,197.487106 214.653091,193.812851 221.451477,191.442749 
z"/>
<path fill="#000000" opacity="1.000000" stroke="none" 
	d="
M197.267761,337.013275 
	C204.118027,340.661194 206.473404,345.702362 204.266861,351.276428 
	C202.123871,356.689941 196.545242,359.551453 190.946121,358.109222 
	C185.860153,356.799164 182.250748,351.672943 182.773621,346.502228 
	C183.335098,340.949738 187.802200,336.790466 193.409500,336.660675 
	C194.561691,336.634003 195.718445,336.805359 197.267761,337.013275 
z"/>
</svg>