<svg version="1.1" id="Layer_1" xmlns="http://www.w3.org/2000/svg" xmlns:xlink="http://www.w3.org/1999/xlink" x="0px" y="0px"
	 width="100%" viewBox="0 0 512 512" enable-background="new 0 0 512 512" xml:space="preserve">
<path fill="#000000" opacity="1.000000" stroke="none" 
	d="
M265.656403,104.715012 
	C260.294464,112.527420 259.848022,120.590866 263.398010,128.731476 
	C266.145752,135.032379 271.494873,138.308014 278.273315,139.018143 
	C282.083344,139.417313 283.800720,140.974075 283.427124,145.069885 
	C283.050385,149.199890 283.258575,153.391327 283.347900,157.552917 
	C283.408081,160.356415 282.159210,161.407730 279.425964,161.299591 
	C257.751678,160.442093 240.768677,147.639374 238.741440,124.072449 
	C237.658539,111.483612 239.377594,99.455566 248.183411,89.443504 
	C256.428040,80.069527 267.209442,76.511795 279.234283,75.690857 
	C282.209015,75.487778 283.566467,76.704788 283.352936,79.736099 
	C283.236206,81.392952 283.362427,83.065727 283.343536,84.730919 
	C283.303894,88.225922 284.014526,91.969261 282.991821,95.152733 
	C281.706085,99.154938 276.856262,96.951088 273.910736,98.657684 
	C271.016388,100.334625 268.032196,101.767090 265.656403,104.715012 
z"/>
<path fill="#000000" opacity="1.000000" stroke="none" 
	d="
M342.125977,328.532715 
	C334.677734,329.659027 329.315979,326.151245 328.038544,319.690491 
	C326.982422,314.349060 331.143402,308.252136 336.725677,306.961578 
	C342.257629,305.682617 348.180420,309.293152 349.856110,314.965820 
	C351.420929,320.263184 348.678528,325.278229 342.125977,328.532715 
z"/>
<path fill="#000000" opacity="1.000000" stroke="none" 
	d="
M268.245331,373.903259 
	C266.742584,385.313385 255.032852,386.625183 249.956772,382.074677 
	C246.488113,378.965088 244.793015,375.107819 246.389587,370.507172 
	C247.964722,365.968292 250.979904,362.940552 256.136505,362.636139 
	C261.339355,362.328979 265.157074,364.345276 267.232391,369.190979 
	C267.804382,370.526581 267.930176,372.053223 268.245331,373.903259 
z"/>
<path fill="#000000" opacity="1.000000" stroke="none" 
	d="
M351.945312,274.788574 
	C357.297058,279.271912 358.625275,283.605347 356.447845,288.550598 
	C354.314117,293.396606 350.075165,295.849426 344.815155,295.281738 
	C339.902344,294.751556 336.251556,291.001587 335.279480,285.779694 
	C333.976746,278.781677 341.873993,269.673462 351.945312,274.788574 
z"/>
<path fill="#000000" opacity="1.000000" stroke="none" 
	d="
M204.589661,218.732056 
	C206.400345,225.498032 200.752121,231.330505 195.338181,232.167099 
	C189.908691,233.006073 184.347229,229.119614 182.991074,223.526825 
	C181.631958,217.921783 185.150681,212.190704 191.038437,210.419800 
	C196.744431,208.703583 202.020035,211.819443 204.589661,218.732056 
z"/>
<path fill="#000000" opacity="1.000000" stroke="none" 
	d="
M326.756927,212.039932 
	C331.536194,216.963211 332.566986,221.273148 330.300568,225.739853 
	C328.048126,230.179077 323.352234,232.804169 318.853668,232.138855 
	C313.702698,231.377045 310.130066,227.858032 309.317566,222.631516 
	C308.669586,218.463074 310.252075,215.148849 313.437225,212.520065 
	C317.594849,209.088699 321.955536,209.303238 326.756927,212.039932 
z"/>
<path fill="#000000" opacity="1.000000" stroke="none" 
	d="
M164.159790,248.589355 
	C168.018188,238.951080 177.744797,236.585220 183.529907,243.523041 
	C186.932327,247.603409 187.158356,252.505478 184.146439,256.894257 
	C181.263245,261.095551 176.399185,262.721954 171.402740,261.155457 
	C166.518753,259.624207 163.896973,255.283371 164.159790,248.589355 
z"/>
<path fill="#000000" opacity="1.000000" stroke="none" 
	d="
M328.521729,254.087036 
	C327.270508,247.152039 330.399536,241.566925 336.109406,239.943268 
	C341.664001,238.363770 347.685181,241.654907 349.627319,247.332047 
	C351.414612,252.556412 348.582581,258.702087 343.343903,260.967499 
	C337.748993,263.386963 331.982819,260.837799 328.521729,254.087036 
z"/>
<path fill="#000000" opacity="1.000000" stroke="none" 
	d="
M160.507812,292.599976 
	C157.010635,288.893097 155.636597,284.944153 157.476608,280.426605 
	C159.090958,276.463074 162.043259,273.817749 166.439941,273.404022 
	C171.312820,272.945435 175.326859,274.592560 177.719437,279.104401 
	C180.007889,283.419861 179.262604,288.541809 175.769852,291.984375 
	C172.223770,295.479492 168.042007,296.376587 163.392532,294.349274 
	C162.484802,293.953522 161.662094,293.362793 160.507812,292.599976 
z"/>
<path fill="#000000" opacity="1.000000" stroke="none" 
	d="
M174.218750,329.054688 
	C164.979721,326.227722 161.415649,319.223389 165.562241,312.435791 
	C168.110657,308.264221 171.888336,306.069336 176.929871,306.954529 
	C181.774261,307.805145 185.461853,311.473145 186.089752,316.310974 
	C186.732880,321.266235 184.609192,325.037262 180.321045,327.556641 
	C178.574524,328.582733 176.672226,329.161896 174.218750,329.054688 
z"/>
<path fill="#000000" opacity="1.000000" stroke="none" 
	d="
M296.092834,192.639954 
	C301.134491,195.801941 302.491150,200.230255 301.226379,205.346313 
	C300.137390,209.751328 296.943451,212.444824 292.479126,213.187637 
	C287.549896,214.007767 283.570618,212.119324 281.082397,207.806061 
	C278.712799,203.698364 278.999298,199.501312 281.864075,195.654251 
	C285.041382,191.387466 289.189209,190.484177 296.092834,192.639954 
z"/>
<path fill="#000000" opacity="1.000000" stroke="none" 
	d="
M296.342346,375.737244 
	C289.203705,378.771698 283.152740,376.762054 280.469696,370.798035 
	C278.057526,365.436188 280.406830,359.101440 285.808655,356.401764 
	C290.913696,353.850403 297.309235,355.716675 300.177643,360.594696 
	C303.146576,365.643677 301.852539,371.148499 296.342346,375.737244 
z"/>
<path fill="#000000" opacity="1.000000" stroke="none" 
	d="
M247.341843,200.318863 
	C244.643585,192.655899 247.349167,186.587738 254.064697,184.450531 
	C259.815796,182.620255 266.248352,186.430847 267.878906,192.633972 
	C269.120667,197.357880 266.526215,202.690918 261.821106,205.085983 
	C256.877899,207.602264 251.813461,206.029495 247.341843,200.318863 
z"/>
<path fill="#000000" opacity="1.000000" stroke="none" 
	d="
M329.249207,341.014648 
	C332.208954,346.008942 332.159576,350.492645 328.598175,354.726868 
	C325.584686,358.309631 321.581207,359.222870 317.305786,358.117065 
	C312.729065,356.933380 309.895996,353.701874 309.258514,348.954102 
	C308.588501,343.963348 310.729248,340.225769 315.085144,337.818329 
	C319.605225,335.320160 324.511292,336.374329 329.249207,341.014648 
z"/>
<path fill="#000000" opacity="1.000000" stroke="none" 
	d="
M233.873352,370.184631 
	C230.089844,376.264282 226.205322,378.417633 221.079910,377.119415 
	C216.781906,376.030823 213.571625,373.451935 212.786514,368.836304 
	C211.937973,363.847809 213.344727,359.609009 217.821381,356.791443 
	C221.780441,354.299744 225.821136,354.804413 229.560730,357.124725 
	C234.323608,360.079926 234.987915,364.714355 233.873352,370.184631 
z"/>
<path fill="#000000" opacity="1.000000" stroke="none" 
	d="
M226.033661,191.694916 
	C231.156235,193.233490 233.963806,196.260895 234.353195,201.375183 
	C234.722061,206.219833 232.674118,209.752396 228.563065,212.044418 
	C224.546494,214.283752 220.574081,213.717850 216.878220,211.140305 
	C212.876831,208.349655 211.383530,202.965118 213.216431,198.245621 
	C215.131546,193.314438 219.489990,190.998657 226.033661,191.694916 
z"/>
<path fill="#000000" opacity="1.000000" stroke="none" 
	d="
M183.721283,351.836670 
	C181.832169,344.947296 184.332947,339.277039 189.892715,337.154541 
	C195.087418,335.171417 201.615570,337.744049 203.872696,342.663727 
	C206.364746,348.095459 204.322372,354.309387 199.097366,357.192688 
	C193.714020,360.163391 187.810028,358.234131 183.721283,351.836670 
z"/>
</svg>