<svg version="1.1" id="Layer_1" xmlns="http://www.w3.org/2000/svg" xmlns:xlink="http://www.w3.org/1999/xlink" x="0px" y="0px"
	 width="100%" viewBox="0 0 512 512" enable-background="new 0 0 512 512" xml:space="preserve">
<path fill="#000000" opacity="1.000000" stroke="none" 
	d="
M289.979614,67.797806 
	C309.494751,76.958580 317.855133,93.015297 319.997192,113.207405 
	C320.303711,116.096924 319.263245,117.250542 316.498322,117.207413 
	C314.833740,117.181450 313.149261,117.062378 311.506226,117.258110 
	C302.850891,118.289185 296.043274,117.737267 294.191956,106.475815 
	C292.964630,99.009750 285.904724,95.365166 278.743408,93.945992 
	C264.743134,91.171501 250.624969,90.847069 236.720459,94.542870 
	C227.309372,97.044327 221.071701,103.172371 218.891495,112.844757 
	C218.124954,116.245537 216.473633,117.514519 213.021088,117.313805 
	C208.705811,117.062927 204.351852,117.032455 200.039230,117.301712 
	C195.403900,117.591125 194.100281,115.501183 194.822021,111.302040 
	C198.704742,88.711769 210.660889,72.716316 232.952911,65.711876 
	C251.973526,59.735359 270.964355,60.376114 289.979614,67.797806 
z"/>
<path fill="#000000" opacity="1.000000" stroke="none" 
	d="
M256.997040,110.710571 
	C265.734161,111.250366 273.032654,113.798996 276.264893,122.211884 
	C279.822906,131.472672 280.085968,140.892700 274.038300,149.332397 
	C269.478912,155.695145 262.680023,157.668488 255.052750,156.905670 
	C246.735504,156.073822 240.678619,152.177597 237.662521,144.079330 
	C231.373016,127.191940 239.885147,112.116402 256.997040,110.710571 
z"/>
<path fill="#000000" opacity="1.000000" stroke="none" 
	d="
M337.361847,306.843994 
	C344.483246,307.094727 348.442078,309.695038 349.846527,315.032959 
	C351.123322,319.885864 349.418091,323.897949 345.510315,326.816772 
	C340.471375,330.580536 333.713684,329.431305 330.136536,324.436066 
	C326.509003,319.370483 327.475616,312.741333 332.524292,309.053070 
	C333.827637,308.100922 335.466675,307.608215 337.361847,306.843994 
z"/>
<path fill="#000000" opacity="1.000000" stroke="none" 
	d="
M249.559570,365.434204 
	C256.192535,360.945190 263.282349,362.073456 266.643860,367.838867 
	C269.963196,373.531799 267.853149,380.504639 261.917999,383.455933 
	C257.395935,385.704559 251.586975,384.456146 248.400558,380.550903 
	C244.707260,376.024414 244.980957,371.349762 249.559570,365.434204 
z"/>
<path fill="#000000" opacity="1.000000" stroke="none" 
	d="
M193.127289,232.228058 
	C187.595596,231.348557 184.222534,228.457733 182.996964,223.404602 
	C181.955399,219.110123 183.494858,215.492538 186.764740,212.688919 
	C190.429550,209.546646 194.557449,209.240234 198.878281,211.259308 
	C203.161514,213.260834 204.968033,217.050064 204.975113,221.381744 
	C204.982025,225.613739 202.713638,228.960449 198.798004,230.939377 
	C197.150421,231.772049 195.432861,232.392868 193.127289,232.228058 
z"/>
<path fill="#000000" opacity="1.000000" stroke="none" 
	d="
M315.496704,211.143616 
	C322.577118,208.839798 328.343170,211.248108 330.627319,217.126465 
	C332.679016,222.406570 330.280884,228.404877 325.057343,231.058395 
	C320.125549,233.563721 313.982513,231.878799 311.001984,227.203201 
	C307.459808,221.646561 308.953583,215.938385 315.496704,211.143616 
z"/>
<path fill="#000000" opacity="1.000000" stroke="none" 
	d="
M171.000610,240.421356 
	C178.226074,239.001633 182.783234,240.942062 185.166519,246.118637 
	C187.280579,250.710449 186.060318,255.913681 182.105698,259.170166 
	C177.191696,263.216675 169.884918,262.393005 166.164612,257.373169 
	C161.885834,251.599838 163.619064,245.097458 171.000610,240.421356 
z"/>
<path fill="#000000" opacity="1.000000" stroke="none" 
	d="
M345.216309,241.465179 
	C350.243805,246.264404 351.412201,250.306946 349.227081,254.969269 
	C347.128357,259.447296 343.593231,261.960876 338.569794,261.740356 
	C333.294281,261.508789 329.471100,258.215790 328.227509,253.139206 
	C327.164490,248.799744 328.716400,245.217468 331.908691,242.404892 
	C335.871826,238.913132 340.304138,238.805008 345.216309,241.465179 
z"/>
<path fill="#000000" opacity="1.000000" stroke="none" 
	d="
M156.736633,284.856689 
	C157.487518,278.027313 160.874237,274.119446 166.291656,273.398560 
	C171.420212,272.716064 176.229309,275.345947 178.097015,279.854340 
	C180.515747,285.692841 177.729599,292.254395 171.802185,294.679169 
	C166.481949,296.855560 160.178268,294.172058 157.706268,288.610291 
	C157.240738,287.562866 157.063004,286.387573 156.736633,284.856689 
z"/>
<path fill="#000000" opacity="1.000000" stroke="none" 
	d="
M342.931763,273.730957 
	C350.011749,272.832733 354.312561,274.909454 356.483429,280.003113 
	C358.421173,284.549774 357.020569,289.920258 353.089630,293.016418 
	C349.157501,296.113495 343.631958,296.199036 339.630707,293.224792 
	C332.502380,287.926086 333.907318,278.611755 342.931763,273.730957 
z"/>
<path fill="#000000" opacity="1.000000" stroke="none" 
	d="
M179.599991,327.973328 
	C172.385208,330.093170 166.945633,327.638336 164.641891,321.556610 
	C162.595978,316.155609 165.360428,310.114441 171.024719,307.608215 
	C175.933319,305.436340 182.125259,307.641174 184.765869,312.501160 
	C187.845810,318.169769 186.143021,323.585510 179.599991,327.973328 
z"/>
<path fill="#000000" opacity="1.000000" stroke="none" 
	d="
M289.261749,213.267212 
	C281.862671,211.051254 278.589447,206.268158 279.776398,199.988190 
	C280.723053,194.979660 285.823883,191.063400 291.053497,191.329987 
	C297.508026,191.659042 301.831635,196.298203 301.680786,202.732864 
	C301.534637,208.965454 296.947510,213.001816 289.261749,213.267212 
z"/>
<path fill="#000000" opacity="1.000000" stroke="none" 
	d="
M293.960999,355.765381 
	C300.149902,358.850952 302.383545,362.606415 301.513214,368.087463 
	C300.752563,372.878143 297.775360,375.839233 293.261597,377.087036 
	C288.588409,378.378906 283.702881,376.300964 281.206696,372.093018 
	C278.895508,368.196899 278.849030,364.139648 281.415192,360.333923 
	C284.337006,356.000793 288.485718,354.516479 293.960999,355.765381 
z"/>
<path fill="#000000" opacity="1.000000" stroke="none" 
	d="
M253.139832,205.337555 
	C246.733871,201.582596 244.593643,196.910431 246.563995,191.675156 
	C248.572800,186.337662 253.612396,183.206177 258.597351,184.197876 
	C265.223083,185.515991 269.377380,191.259460 267.996796,197.192932 
	C266.449493,203.842957 260.560150,207.208130 253.139832,205.337555 
z"/>
<path fill="#000000" opacity="1.000000" stroke="none" 
	d="
M331.224030,349.602844 
	C327.931000,360.301666 316.852234,360.302582 312.185242,355.085571 
	C308.862000,351.370667 308.034607,347.099976 310.302826,342.647003 
	C312.662964,338.013550 316.702881,336.125336 321.890045,336.701019 
	C326.509399,337.213715 330.125854,340.462708 331.109375,345.222198 
	C331.373871,346.502289 331.231842,347.866394 331.224030,349.602844 
z"/>
<path fill="#000000" opacity="1.000000" stroke="none" 
	d="
M215.515625,358.644470 
	C222.036774,353.707458 229.450378,354.664856 232.948120,360.577698 
	C236.262421,366.180420 234.131287,373.289734 228.238434,376.288696 
	C224.041901,378.424408 218.209015,377.238647 215.052536,373.608093 
	C211.709930,369.763489 211.781937,364.339355 215.515625,358.644470 
z"/>
<path fill="#000000" opacity="1.000000" stroke="none" 
	d="
M228.935211,192.776550 
	C235.082489,197.598846 236.194687,203.698318 232.207718,208.939087 
	C228.436279,213.896515 221.860870,214.807846 216.762268,211.079742 
	C212.542755,207.994400 211.241455,202.050339 213.733139,197.243347 
	C216.635895,191.643311 221.340897,190.176743 228.935211,192.776550 
z"/>
<path fill="#000000" opacity="1.000000" stroke="none" 
	d="
M201.466415,339.421387 
	C205.262054,343.722992 206.237335,348.123810 203.417664,352.911865 
	C200.994141,357.027222 197.321671,358.888184 192.544601,358.322266 
	C187.769287,357.756500 184.627258,355.081818 183.237320,350.524750 
	C181.821243,345.881958 183.358292,341.979919 186.939911,338.962463 
	C190.929092,335.601624 195.565506,335.770294 201.466415,339.421387 
z"/>
</svg>