<svg version="1.1" id="Layer_1" xmlns="http://www.w3.org/2000/svg" xmlns:xlink="http://www.w3.org/1999/xlink" x="0px" y="0px"
	 width="100%" viewBox="0 0 512 512" enable-background="new 0 0 512 512" xml:space="preserve">
<path fill="#000000" opacity="1.000000" stroke="none" 
	d="
M263.315979,408.294647 
	C266.636322,404.993927 269.779907,402.007599 272.759735,398.865967 
	C274.759003,396.758148 276.431366,396.484039 278.585022,398.721344 
	C283.322662,403.642944 288.154510,408.478729 293.077942,413.214386 
	C295.229828,415.284119 295.341736,416.809967 293.076355,418.938171 
	C288.584778,423.157654 284.456665,427.766144 279.932434,431.947845 
	C277.112915,434.553864 276.824493,436.516052 279.767395,439.266266 
	C284.389404,443.585632 288.638702,448.301025 293.172119,452.719116 
	C295.593414,455.078796 295.697998,457.041840 293.186554,459.421356 
	C289.196075,463.202240 285.288300,467.082733 281.539185,471.101746 
	C279.123962,473.690765 277.159119,473.535400 274.934296,470.988678 
	C269.891174,465.215912 264.780334,459.502319 259.114960,453.107635 
	C252.994598,459.116455 248.281158,463.690338 243.628525,468.325226 
	C237.613602,474.317169 238.626450,474.237854 232.604797,468.205353 
	C228.837372,464.431152 225.161804,460.557068 221.252365,456.935760 
	C218.741730,454.610107 218.499969,452.855225 221.219055,450.462372 
	C226.837662,445.517822 232.244171,440.332275 238.216125,434.803101 
	C232.121460,428.497223 227.152359,422.958344 221.736984,417.896973 
	C218.303925,414.688385 218.432159,412.417084 221.833145,409.423096 
	C225.453018,406.236450 228.912155,402.813171 232.068863,399.170319 
	C234.957672,395.836548 237.185486,396.361359 239.796814,399.332764 
	C244.735580,404.952667 249.792389,410.468811 255.579758,416.893433 
	C258.899323,413.192383 260.984436,410.867645 263.315979,408.294647 
z"/>
<path fill="#000000" opacity="1.000000" stroke="none" 
	d="
M247.093552,378.539978 
	C244.686905,371.137543 247.545303,364.667358 253.650208,362.924652 
	C259.934509,361.130798 265.910309,364.357819 267.773743,370.551666 
	C269.270782,375.527679 266.760132,381.065674 261.930725,383.440186 
	C256.679871,386.021912 251.458206,384.401642 247.093552,378.539978 
z"/>
<path fill="#000000" opacity="1.000000" stroke="none" 
	d="
M345.615540,326.784882 
	C338.977570,331.628448 331.470551,327.567322 329.184692,322.918243 
	C326.532715,317.524567 328.558777,311.002258 334.011536,308.036499 
	C338.602844,305.539307 344.559509,306.844788 347.842316,311.067719 
	C351.619934,315.927063 350.982269,321.103180 345.615540,326.784882 
z"/>
<path fill="#000000" opacity="1.000000" stroke="none" 
	d="
M336.403015,289.272461 
	C334.117950,283.865601 335.130341,279.409271 339.198120,275.841919 
	C342.832550,272.654602 347.080780,272.412231 351.314636,274.508514 
	C355.623810,276.642090 357.651215,280.344666 357.280670,285.123108 
	C356.892242,290.132416 354.003845,293.451721 349.343719,294.981567 
	C344.432495,296.593781 340.269806,294.690735 336.403015,289.272461 
z"/>
<path fill="#000000" opacity="1.000000" stroke="none" 
	d="
M172.472015,274.197144 
	C177.977020,277.809967 180.044098,282.156494 178.724518,286.777344 
	C177.249634,291.942047 172.916367,295.350708 167.865509,295.319275 
	C162.812759,295.287872 158.628738,292.138489 157.153534,287.275696 
	C154.468552,278.425140 163.769745,270.412964 172.472015,274.197144 
z"/>
<path fill="#000000" opacity="1.000000" stroke="none" 
	d="
M204.969635,222.629272 
	C202.015167,230.755524 196.024307,234.027313 189.633026,231.348923 
	C184.847504,229.343460 181.992126,224.301086 182.821701,219.320755 
	C183.628021,214.480042 188.255127,210.236542 193.075653,209.916916 
	C198.094894,209.584106 202.845703,212.881805 204.338043,217.871399 
	C204.757370,219.273331 204.824997,220.780457 204.969635,222.629272 
z"/>
<path fill="#000000" opacity="1.000000" stroke="none" 
	d="
M350.172302,249.294662 
	C349.765839,256.064331 346.973694,260.003021 341.955536,261.370209 
	C337.263184,262.648651 332.360046,260.789551 329.756439,256.744720 
	C326.297729,251.371597 327.950317,244.595413 333.552063,241.181549 
	C338.744263,238.017227 345.642822,239.804520 348.678925,245.179276 
	C349.324310,246.321793 349.645905,247.647247 350.172302,249.294662 
z"/>
<path fill="#000000" opacity="1.000000" stroke="none" 
	d="
M175.006302,239.679779 
	C182.313126,240.758377 186.512589,245.174850 186.260101,251.074799 
	C186.034576,256.344482 181.370438,261.258514 176.113846,261.764587 
	C170.544449,262.300812 165.693817,258.812622 164.217560,253.209778 
	C162.523514,246.780319 167.030060,240.899094 175.006302,239.679779 
z"/>
<path fill="#000000" opacity="1.000000" stroke="none" 
	d="
M320.872711,232.236176 
	C315.537384,232.004105 311.810577,229.892517 309.965057,225.169968 
	C308.377075,221.106293 308.954559,217.210739 311.908905,213.988235 
	C315.035370,210.578003 318.808807,208.943909 323.580109,210.566162 
	C328.187317,212.132629 330.742126,215.263245 331.277527,220.004135 
	C331.826782,224.867996 329.491730,228.351730 325.489136,230.764679 
	C324.245972,231.514084 322.693390,231.750198 320.872711,232.236176 
z"/>
<path fill="#000000" opacity="1.000000" stroke="none" 
	d="
M183.967194,311.260468 
	C188.863724,318.218781 184.809372,325.860870 179.129623,328.186676 
	C173.112610,330.650543 166.551270,327.462921 164.444489,320.963623 
	C162.953644,316.364471 164.961044,311.320648 169.397690,308.518097 
	C174.184219,305.494629 178.625397,306.246399 183.967194,311.260468 
z"/>
<path fill="#000000" opacity="1.000000" stroke="none" 
	d="
M257.728638,184.000702 
	C265.936768,186.345398 269.611603,191.488846 267.854675,197.685562 
	C266.407837,202.788589 261.713043,206.447540 256.875397,206.242401 
	C251.337830,206.007568 246.744141,201.849442 245.939087,196.342987 
	C245.245117,191.596359 248.445862,186.540344 253.459183,184.679413 
	C254.675446,184.227951 256.039673,184.175110 257.728638,184.000702 
z"/>
<path fill="#000000" opacity="1.000000" stroke="none" 
	d="
M290.927612,377.312378 
	C283.313660,376.486694 279.407806,372.282867 279.670837,365.655731 
	C279.895416,359.998840 284.730011,355.284821 290.368134,355.225372 
	C296.377960,355.162018 300.842285,359.099060 301.537201,365.075256 
	C302.283386,371.492493 298.493500,376.042603 290.927612,377.312378 
z"/>
<path fill="#000000" opacity="1.000000" stroke="none" 
	d="
M299.540527,195.613129 
	C302.685303,201.882431 302.122009,206.881851 298.126740,210.476349 
	C294.403442,213.826141 288.796631,214.325333 284.728088,211.669296 
	C279.152710,208.029602 277.879181,200.719452 281.919739,195.549042 
	C286.248077,190.010361 293.519684,189.908203 299.540527,195.613129 
z"/>
<path fill="#000000" opacity="1.000000" stroke="none" 
	d="
M313.177521,338.954803 
	C320.155365,335.120850 326.430786,336.270050 329.643982,341.683563 
	C332.893585,347.158417 331.387329,353.514709 326.036377,356.907318 
	C321.652832,359.686493 315.502594,358.785156 311.951050,354.843018 
	C307.838715,350.278503 308.144836,344.975220 313.177521,338.954803 
z"/>
<path fill="#000000" opacity="1.000000" stroke="none" 
	d="
M219.986755,355.721130 
	C226.891541,354.714355 231.396057,356.832520 233.567627,361.841095 
	C235.521179,366.346832 234.190720,371.857239 230.411682,374.912170 
	C226.393768,378.160248 220.902969,378.109039 216.562622,375.024017 
	C210.871201,370.978668 210.723312,359.301208 219.986755,355.721130 
z"/>
<path fill="#000000" opacity="1.000000" stroke="none" 
	d="
M219.986465,191.734558 
	C225.352646,190.651657 229.695923,191.795151 232.609207,196.119690 
	C235.112976,199.836319 235.246445,203.953690 232.920959,207.858459 
	C230.493240,211.934921 226.774597,213.908829 222.021210,213.222672 
	C217.357819,212.549515 214.034546,209.932236 212.855637,205.262268 
	C211.403046,199.508118 213.579880,195.405579 219.986465,191.734558 
z"/>
<path fill="#000000" opacity="1.000000" stroke="none" 
	d="
M199.488953,356.946869 
	C192.582016,359.623383 186.900223,357.943970 184.119858,352.714966 
	C181.439316,347.673737 182.791656,341.900116 187.423874,338.608795 
	C192.157928,335.245087 199.002655,336.183044 202.595718,340.687836 
	C206.710312,345.846497 205.731018,351.533508 199.488953,356.946869 
z"/>
</svg>