<svg version="1.1" id="Layer_1" xmlns="http://www.w3.org/2000/svg" xmlns:xlink="http://www.w3.org/1999/xlink" x="0px" y="0px"
	 width="100%" viewBox="0 0 512 512" enable-background="new 0 0 512 512" xml:space="preserve">
<path fill="#000000" opacity="1.000000" stroke="none" 
	d="
M290.336945,432.172424 
	C290.337616,438.481842 290.247864,444.316467 290.376068,450.146301 
	C290.439728,453.042572 289.538879,454.650360 286.542114,455.557831 
	C267.818481,461.227783 250.199768,469.534271 232.866989,478.485352 
	C230.152237,479.887329 227.441269,481.072662 223.660706,479.534302 
	C223.660706,473.346527 223.630966,466.902344 223.677261,460.458740 
	C223.692932,458.281097 225.484818,457.409332 227.027039,456.444183 
	C235.230133,451.310791 243.856262,446.960205 252.537018,442.712311 
	C254.020020,441.986664 255.498627,441.252045 257.197662,440.413849 
	C256.295074,437.850372 254.027954,437.347717 252.238953,436.424713 
	C243.798462,432.069946 235.366989,427.703400 227.315323,422.649902 
	C225.797714,421.697449 223.765503,420.985443 223.726624,418.825562 
	C223.621735,412.997223 223.649902,407.164673 223.738464,401.335510 
	C223.772675,399.084381 225.479553,398.762024 227.284424,398.838287 
	C229.530350,398.933228 231.414261,400.092651 233.334503,401.063263 
	C250.737213,409.859344 268.282867,418.353638 286.809631,424.552246 
	C290.909821,425.924103 290.289154,428.769928 290.336945,432.172424 
z"/>
<path fill="#000000" opacity="1.000000" stroke="none" 
	d="
M342.123413,328.523560 
	C334.682281,329.649017 329.314697,326.138062 328.046265,319.688293 
	C326.995575,314.345612 331.145111,308.266937 336.729095,306.968719 
	C342.237335,305.688141 348.160278,309.303101 349.841248,314.971527 
	C351.417175,320.285583 348.706024,325.246796 342.123413,328.523560 
z"/>
<path fill="#000000" opacity="1.000000" stroke="none" 
	d="
M185.628296,213.713043 
	C189.977676,209.468323 194.588196,208.952240 199.515579,211.612335 
	C203.611862,213.823792 205.281113,217.713867 204.951080,222.019897 
	C204.599030,226.613022 201.875656,229.954346 197.358841,231.556503 
	C192.530548,233.269089 188.514008,231.795914 185.304718,228.136108 
	C181.761414,224.095352 181.900604,219.490387 185.628296,213.713043 
z"/>
<path fill="#000000" opacity="1.000000" stroke="none" 
	d="
M167.991409,295.319824 
	C159.936188,294.130676 155.490479,288.567200 156.890945,281.954163 
	C158.165085,275.937531 164.360764,272.229095 170.712265,273.681396 
	C175.670776,274.815186 179.303268,279.564148 179.130661,284.687256 
	C178.951340,290.009552 174.669815,294.256470 167.991409,295.319824 
z"/>
<path fill="#000000" opacity="1.000000" stroke="none" 
	d="
M330.958618,224.276489 
	C328.679779,229.244690 325.332855,232.300537 320.056183,232.182739 
	C315.567139,232.082520 312.060974,229.972137 310.196777,225.711868 
	C308.270630,221.310165 308.870117,217.131577 312.169250,213.677185 
	C315.380066,210.315186 319.304993,208.911804 323.969971,210.680038 
	C328.490021,212.393356 330.933777,215.627472 331.292694,220.409973 
	C331.378876,221.558105 331.168152,222.728516 330.958618,224.276489 
z"/>
<path fill="#000000" opacity="1.000000" stroke="none" 
	d="
M186.011841,248.503326 
	C186.209366,255.283340 183.393738,259.714172 178.243851,261.291687 
	C173.448166,262.760712 168.255646,260.821594 165.640213,256.584961 
	C162.372864,251.292297 163.930008,244.771515 169.277603,241.352905 
	C174.449417,238.046616 181.241058,239.609177 184.508728,244.918015 
	C185.111267,245.896927 185.445953,247.040695 186.011841,248.503326 
z"/>
<path fill="#000000" opacity="1.000000" stroke="none" 
	d="
M332.907776,241.602631 
	C339.491272,238.331497 345.311462,239.655334 348.507690,244.856689 
	C351.692688,250.039764 350.330261,256.262512 345.236084,259.799622 
	C340.497314,263.089935 334.040314,262.172272 330.437866,257.696442 
	C326.373291,252.646423 327.114441,247.148651 332.907776,241.602631 
z"/>
<path fill="#000000" opacity="1.000000" stroke="none" 
	d="
M357.066284,281.559418 
	C357.453796,288.576630 355.011292,292.958618 350.014313,294.799500 
	C345.588196,296.430084 340.278900,294.906647 337.511963,291.048920 
	C334.890350,287.393768 334.273743,283.435730 336.422791,279.323578 
	C338.436035,275.471222 341.669128,273.214233 346.028900,273.289978 
	C351.356384,273.382538 355.188446,275.937439 357.066284,281.559418 
z"/>
<path fill="#000000" opacity="1.000000" stroke="none" 
	d="
M184.238083,323.965942 
	C180.631180,328.405396 176.501297,330.204315 171.242050,328.237610 
	C166.700012,326.539154 164.200180,323.027832 163.974243,318.396088 
	C163.734253,313.476074 166.352661,309.827087 170.825439,307.728943 
	C175.295609,305.631989 179.337860,306.856232 182.794006,309.973450 
	C186.578781,313.387177 187.020920,318.035614 184.238083,323.965942 
z"/>
<path fill="#000000" opacity="1.000000" stroke="none" 
	d="
M300.900269,370.593933 
	C297.113159,376.481598 293.112183,378.533325 287.861145,377.052734 
	C283.350342,375.780792 280.376160,372.766296 279.738037,367.949280 
	C279.069000,362.898651 281.364838,358.552979 285.800659,356.422394 
	C289.921326,354.443115 294.000641,354.875977 297.543945,357.633728 
	C301.708160,360.874695 302.373840,365.346161 300.900269,370.593933 
z"/>
<path fill="#000000" opacity="1.000000" stroke="none" 
	d="
M249.558197,365.432983 
	C256.231140,360.922028 263.399567,362.103699 266.712067,367.944916 
	C269.871338,373.515900 267.823395,380.380920 262.121338,383.333801 
	C257.575745,385.687775 251.718109,384.528290 248.464188,380.630493 
	C244.704529,376.126831 244.960403,371.375671 249.558197,365.432983 
z"/>
<path fill="#000000" opacity="1.000000" stroke="none" 
	d="
M253.139954,205.345551 
	C246.700531,201.603073 244.567291,196.962326 246.546753,191.695099 
	C248.557892,186.343582 253.618637,183.182510 258.577393,184.180496 
	C265.241516,185.521713 269.385895,191.233780 268.009583,197.180588 
	C266.468658,203.838669 260.569275,207.214554 253.139954,205.345551 
z"/>
<path fill="#000000" opacity="1.000000" stroke="none" 
	d="
M282.114471,195.304153 
	C286.161926,191.058365 290.663879,190.325897 295.576935,192.416977 
	C299.916901,194.264175 301.630188,198.006271 301.660065,202.450333 
	C301.690796,207.023499 299.337311,210.314133 295.266113,212.336548 
	C291.039185,214.436295 285.810333,213.368637 282.498810,209.792130 
	C278.914337,205.920807 278.700592,201.095276 282.114471,195.304153 
z"/>
<path fill="#000000" opacity="1.000000" stroke="none" 
	d="
M328.722473,354.559540 
	C324.855713,358.706726 320.507538,359.461700 315.748260,357.528351 
	C311.466919,355.789215 309.283051,352.255737 309.135132,347.785980 
	C308.985901,343.275238 311.177246,339.835022 315.250214,337.726349 
	C319.379364,335.588654 325.023224,336.462097 328.183563,339.699921 
	C332.044250,343.655273 332.319092,348.765778 328.722473,354.559540 
z"/>
<path fill="#000000" opacity="1.000000" stroke="none" 
	d="
M213.095581,206.222504 
	C211.989349,195.927597 217.168915,189.992065 225.394897,191.558243 
	C230.316681,192.495316 233.453079,195.339569 234.262177,200.326324 
	C235.110031,205.551819 232.754776,209.983521 228.207840,212.283035 
	C224.156479,214.331924 218.658752,213.374512 215.414917,209.918961 
	C214.526886,208.972977 213.963242,207.722458 213.095581,206.222504 
z"/>
<path fill="#000000" opacity="1.000000" stroke="none" 
	d="
M214.110046,360.554016 
	C217.464676,355.706512 221.735428,354.193695 226.918564,355.870270 
	C231.441711,357.333374 234.000641,360.533600 234.359879,365.401428 
	C234.733902,370.469818 232.552124,374.129272 228.118744,376.297455 
	C223.595825,378.509308 219.230026,377.575562 215.718826,374.197235 
	C211.759537,370.387756 211.721558,365.712158 214.110046,360.554016 
z"/>
<path fill="#000000" opacity="1.000000" stroke="none" 
	d="
M198.035904,337.332947 
	C203.977798,340.951660 206.046371,345.181335 204.592163,350.171448 
	C203.136719,355.165863 199.051193,358.353088 194.064407,358.384430 
	C188.663040,358.418396 184.448334,355.241730 183.074265,350.100983 
	C180.859283,341.814270 187.877686,335.586273 198.035904,337.332947 
z"/>
</svg>