<svg version="1.1" id="Layer_1" xmlns="http://www.w3.org/2000/svg" xmlns:xlink="http://www.w3.org/1999/xlink" x="0px" y="0px"
	 width="100%" viewBox="0 0 512 512" enable-background="new 0 0 512 512" xml:space="preserve">
<path fill="#000000" opacity="1.000000" stroke="none" 
	d="
M294.431244,442.590820 
	C293.708313,440.889038 293.124481,439.526520 292.397461,437.829834 
	C290.380585,439.192169 290.109009,441.257690 289.412170,442.960266 
	C285.126465,453.431335 281.149719,464.025024 276.101257,474.180664 
	C274.249207,477.906372 271.897125,479.785736 267.566101,479.392120 
	C263.766815,479.046814 259.901611,479.133392 256.084686,479.356873 
	C252.085037,479.591095 251.053085,477.586700 251.648361,474.169067 
	C251.901031,472.718445 252.356766,471.256592 252.985519,469.925140 
	C262.238403,450.331146 270.030792,430.155762 276.729126,409.567505 
	C278.079468,405.416901 280.020844,403.559479 284.511505,403.804718 
	C290.655365,404.140167 296.831787,403.983368 302.991547,403.879059 
	C306.003387,403.828064 307.495819,405.170654 308.274689,408.001373 
	C314.291565,429.867737 322.073395,451.066711 332.190247,471.399048 
	C335.059357,477.165283 333.586151,479.263611 327.217468,479.316620 
	C325.052704,479.334625 322.828766,478.999969 320.733276,479.382233 
	C313.143433,480.766785 309.272919,477.023865 306.276764,470.492096 
	C302.109161,461.406433 298.175415,452.243958 294.431244,442.590820 
z"/>
<path fill="#000000" opacity="1.000000" stroke="none" 
	d="
M247.326752,434.100891 
	C247.321899,439.743164 247.218750,444.903656 247.349594,450.058258 
	C247.422745,452.939880 246.551346,454.613281 243.557251,455.504364 
	C224.830490,461.077515 207.258804,469.410706 189.922409,478.282257 
	C188.739700,478.887482 187.560120,479.555573 186.302002,479.946381 
	C181.882446,481.319305 179.870956,480.022949 179.968796,475.403320 
	C180.395294,455.266205 176.645844,460.638062 193.668564,450.807648 
	C200.252762,447.005371 207.165268,443.771606 214.161850,440.158142 
	C212.855850,437.749237 210.669907,437.192291 208.841095,436.275421 
	C200.361588,432.024323 192.043213,427.493439 183.878052,422.660828 
	C181.141632,421.041260 179.738327,419.109497 179.879303,415.865814 
	C180.052536,411.879883 179.853516,407.879211 179.948975,403.888092 
	C180.070312,398.814575 181.752350,397.696686 186.561722,399.598663 
	C189.338760,400.696899 192.007538,402.079163 194.690186,403.404114 
	C210.501114,411.213226 226.384430,418.907532 243.179276,424.370148 
	C248.712601,426.169891 246.957123,430.104126 247.326752,434.100891 
z"/>
<path fill="#000000" opacity="1.000000" stroke="none" 
	d="
M350.237183,317.117981 
	C349.335083,324.078461 346.703613,327.522095 341.334869,328.734985 
	C336.602173,329.804169 332.778473,328.002228 330.030487,324.181946 
	C326.162384,318.804565 327.877441,311.663513 333.671387,308.251862 
	C339.068573,305.073822 346.131409,307.190186 349.001892,312.925751 
	C349.587769,314.096405 349.820282,315.443909 350.237183,317.117981 
z"/>
<path fill="#000000" opacity="1.000000" stroke="none" 
	d="
M184.987518,227.792618 
	C181.886246,222.901993 181.813141,218.365631 185.328812,214.146942 
	C188.177551,210.728592 191.758789,209.250031 196.361404,210.391891 
	C201.353027,211.630264 203.906693,214.861877 204.863159,219.646851 
	C205.691208,223.789383 203.186920,228.563995 199.101395,230.784546 
	C194.228180,233.433212 190.174500,232.651291 184.987518,227.792618 
z"/>
<path fill="#000000" opacity="1.000000" stroke="none" 
	d="
M176.207367,276.883118 
	C179.531815,281.504242 180.160812,285.934692 176.939346,290.487488 
	C174.313110,294.199036 170.716415,295.922028 166.215897,295.212128 
	C161.758881,294.509064 158.736099,291.885925 157.275620,287.580231 
	C155.718002,282.988159 157.338318,278.247223 161.409698,275.339844 
	C165.814102,272.194641 170.783279,272.625641 176.207367,276.883118 
z"/>
<path fill="#000000" opacity="1.000000" stroke="none" 
	d="
M351.262787,274.433838 
	C356.997314,278.578918 358.673035,283.211029 356.555115,288.299988 
	C354.465668,293.320557 349.945496,295.947662 344.588104,295.255066 
	C339.746124,294.629150 336.002197,290.729218 335.267853,285.548431 
	C334.175568,277.841949 342.622559,270.219696 351.262787,274.433838 
z"/>
<path fill="#000000" opacity="1.000000" stroke="none" 
	d="
M165.437424,323.259796 
	C162.620499,315.738373 165.305389,309.462860 171.952148,307.231476 
	C177.668716,305.312408 184.139160,309.061737 185.859116,315.290009 
	C187.171478,320.042328 184.630371,325.407166 179.938065,327.790619 
	C174.739136,330.431396 169.912186,329.014038 165.437424,323.259796 
z"/>
<path fill="#000000" opacity="1.000000" stroke="none" 
	d="
M254.483734,362.762390 
	C262.157318,362.602539 265.666962,364.607147 267.551300,369.979797 
	C269.253601,374.833405 267.767456,378.880432 264.027832,382.052887 
	C260.523712,385.025635 256.364441,385.219116 252.288361,383.474609 
	C248.062836,381.666260 245.826233,378.064514 245.882629,373.582886 
	C245.950378,368.198303 249.025909,364.650024 254.483734,362.762390 
z"/>
<path fill="#000000" opacity="1.000000" stroke="none" 
	d="
M332.508728,259.694946 
	C327.714478,254.678635 326.786316,250.679520 329.075165,245.981979 
	C331.186340,241.649109 335.810150,239.086182 340.569305,239.764542 
	C345.569611,240.477280 348.676117,243.478897 349.925049,248.271225 
	C351.047882,252.579636 349.436432,256.217499 346.243805,259.021820 
	C342.090790,262.669739 337.485199,262.488770 332.508728,259.694946 
z"/>
<path fill="#000000" opacity="1.000000" stroke="none" 
	d="
M181.474457,259.618134 
	C174.144623,263.432251 167.352509,261.317200 164.726654,254.719818 
	C162.394318,248.859940 165.800476,241.888519 171.912460,240.012527 
	C177.953598,238.158279 184.537186,242.041306 185.973557,248.446335 
	C186.984268,252.953171 185.180298,256.511383 181.474457,259.618134 
z"/>
<path fill="#000000" opacity="1.000000" stroke="none" 
	d="
M325.399261,211.254272 
	C331.059235,215.483719 332.731110,220.275299 330.547607,225.225723 
	C328.493103,229.883698 323.587341,232.805084 318.927734,232.145309 
	C313.648529,231.397812 309.889954,227.555115 309.218414,222.218658 
	C308.184448,214.002075 316.024414,208.480331 325.399261,211.254272 
z"/>
<path fill="#000000" opacity="1.000000" stroke="none" 
	d="
M261.543030,185.068695 
	C267.333618,188.688522 269.321594,193.120377 267.688843,198.124741 
	C266.083923,203.043762 261.587952,206.427750 256.902466,206.243347 
	C251.579300,206.033844 247.083496,202.147568 246.043304,196.856445 
	C244.425171,188.625473 252.167160,182.516937 261.543030,185.068695 
z"/>
<path fill="#000000" opacity="1.000000" stroke="none" 
	d="
M296.084106,356.647461 
	C301.082367,359.831848 302.528168,364.228119 301.216553,369.364044 
	C300.097137,373.747498 296.949097,376.479736 292.452606,377.199921 
	C287.520447,377.989868 283.525665,376.139832 281.056183,371.802216 
	C278.715698,367.691223 278.987274,363.480743 281.858521,359.635895 
	C285.046295,355.367188 289.240784,354.463654 296.084106,356.647461 
z"/>
<path fill="#000000" opacity="1.000000" stroke="none" 
	d="
M301.170502,205.879639 
	C297.576904,212.031830 293.882111,214.191650 288.589355,213.169937 
	C283.908020,212.266205 280.848450,209.304779 279.845337,204.669144 
	C278.440796,198.178360 282.969116,192.036957 289.370300,191.369049 
	C296.169800,190.659592 301.325531,195.118408 301.635132,202.055237 
	C301.686188,203.198853 301.400330,204.357483 301.170502,205.879639 
z"/>
<path fill="#000000" opacity="1.000000" stroke="none" 
	d="
M326.388336,338.283325 
	C331.280090,342.844696 332.549988,347.327271 330.485382,351.802399 
	C328.250092,356.647644 323.598541,359.133453 318.269104,358.330811 
	C313.640747,357.633789 309.957764,353.875641 309.244476,348.957550 
	C308.644165,344.818176 310.149170,341.394775 313.409698,338.901306 
	C317.371033,335.871948 321.676636,335.879700 326.388336,338.283325 
z"/>
<path fill="#000000" opacity="1.000000" stroke="none" 
	d="
M213.361649,361.991821 
	C217.128754,356.049255 220.482803,354.393311 225.828995,355.619202 
	C230.722839,356.741394 233.683594,359.760620 234.298508,364.774353 
	C234.943970,370.037201 232.467407,374.447235 227.800949,376.468964 
	C223.790634,378.206421 219.955521,377.535828 216.565262,374.934143 
	C212.296860,371.658417 211.974915,367.178375 213.361649,361.991821 
z"/>
<path fill="#000000" opacity="1.000000" stroke="none" 
	d="
M221.432281,213.199829 
	C213.447861,209.922455 210.630539,204.329819 213.358810,197.937851 
	C215.510803,192.895981 220.520782,190.395859 225.961288,191.648865 
	C231.621719,192.952499 234.727646,197.302094 234.338272,203.380127 
	C234.016769,208.398926 229.950089,212.650085 224.824341,213.254120 
	C223.844788,213.369537 222.838760,213.260101 221.432281,213.199829 
z"/>
<path fill="#000000" opacity="1.000000" stroke="none" 
	d="
M197.284882,357.999146 
	C189.581085,358.707489 185.648407,356.710480 183.551666,351.367767 
	C181.676514,346.589600 183.044601,342.511169 186.611832,339.230042 
	C189.967468,336.143585 194.060165,335.827576 198.212112,337.456299 
	C202.513046,339.143494 204.772095,342.645721 204.956314,347.058807 
	C205.171616,352.216522 202.306610,355.744354 197.284882,357.999146 
z"/>
</svg>