<svg version="1.1" id="Layer_1" xmlns="http://www.w3.org/2000/svg" xmlns:xlink="http://www.w3.org/1999/xlink" x="0px" y="0px"
	 width="100%" viewBox="0 0 512 512" enable-background="new 0 0 512 512" xml:space="preserve">
<path fill="#000000" opacity="1.000000" stroke="none" 
	d="
M388.439636,132.258209 
	C386.779663,145.862106 377.444916,152.876633 363.741241,151.208054 
	C352.606445,149.852234 344.975403,139.366577 346.106140,127.215935 
	C346.932770,118.333145 349.106628,110.184456 358.549866,106.839195 
	C366.438416,104.044655 374.504791,104.126366 381.285248,109.641708 
	C388.259338,115.314545 389.560211,123.303688 388.439636,132.258209 
z"/>
<path fill="#000000" opacity="1.000000" stroke="none" 
	d="
M342.127197,328.536743 
	C334.667175,329.659241 329.315582,326.155579 328.035553,319.685638 
	C326.966309,314.280945 331.064514,308.271515 336.712433,306.962250 
	C342.244446,305.679779 348.178070,309.290405 349.855347,314.959717 
	C351.423096,320.258728 348.685089,325.270660 342.127197,328.536743 
z"/>
<path fill="#000000" opacity="1.000000" stroke="none" 
	d="
M260.365051,362.901672 
	C266.761200,366.188141 269.314758,370.897369 267.891846,376.132233 
	C266.480896,381.323059 262.305206,384.496857 256.956635,384.443756 
	C250.688095,384.381531 245.807831,379.615692 245.792953,373.541779 
	C245.778503,367.642303 250.811615,362.728851 256.986969,362.645294 
	C257.976959,362.631897 258.968689,362.747833 260.365051,362.901672 
z"/>
<path fill="#000000" opacity="1.000000" stroke="none" 
	d="
M188.532715,230.828171 
	C182.994598,226.464706 181.425461,221.740341 183.614502,216.850464 
	C185.680344,212.235779 190.687439,209.320007 195.185440,210.112396 
	C201.926376,211.299881 206.268127,217.286545 204.775879,223.336182 
	C203.010696,230.492355 196.503662,233.638168 188.532715,230.828171 
z"/>
<path fill="#000000" opacity="1.000000" stroke="none" 
	d="
M314.645447,230.706116 
	C309.563629,226.440994 307.967285,222.050797 309.851746,217.395782 
	C311.697235,212.837036 315.215881,209.959534 320.146912,209.984360 
	C324.952118,210.008499 328.807037,212.318802 330.605896,217.111420 
	C332.220978,221.414490 331.431732,225.340408 328.231934,228.637711 
	C324.406433,232.579697 319.924774,233.215927 314.645447,230.706116 
z"/>
<path fill="#000000" opacity="1.000000" stroke="none" 
	d="
M181.222046,241.455444 
	C186.264160,246.296707 187.426620,250.321976 185.232498,254.961960 
	C183.119217,259.431000 179.576813,261.933319 174.558823,261.728424 
	C169.294815,261.513489 165.470825,258.231964 164.219208,253.128906 
	C163.155838,248.793304 164.706100,245.205063 167.906616,242.397659 
	C171.872726,238.918686 176.308243,238.806915 181.222046,241.455444 
z"/>
<path fill="#000000" opacity="1.000000" stroke="none" 
	d="
M349.296631,254.835556 
	C345.414703,260.950958 341.899963,262.616547 336.367676,261.347839 
	C331.320984,260.190491 328.628937,256.722992 328.026001,251.920761 
	C327.406830,246.989365 329.816467,243.211945 334.161896,240.862839 
	C338.254791,238.650223 342.392395,239.208679 345.869415,241.999252 
	C349.826996,245.175522 351.385223,249.411545 349.296631,254.835556 
z"/>
<path fill="#000000" opacity="1.000000" stroke="none" 
	d="
M170.464478,295.134033 
	C165.169525,295.815826 161.127792,294.350769 158.458069,290.084686 
	C156.275467,286.596985 155.900406,282.846619 158.047104,279.196442 
	C160.536545,274.963470 164.175812,272.768982 169.266678,273.461243 
	C174.478683,274.169952 177.614365,277.000732 178.765503,282.263702 
	C179.825302,287.109070 177.653183,290.637665 173.947174,293.424683 
	C173.031525,294.113281 171.901413,294.516663 170.464478,295.134033 
z"/>
<path fill="#000000" opacity="1.000000" stroke="none" 
	d="
M351.911560,274.783569 
	C357.276764,279.260284 358.615845,283.583344 356.453186,288.519684 
	C354.325348,293.376495 350.113098,295.832428 344.852844,295.283112 
	C339.936981,294.769745 336.193542,291.058258 335.311249,285.823029 
	C333.830231,277.035126 341.974915,271.413940 351.911560,274.783569 
z"/>
<path fill="#000000" opacity="1.000000" stroke="none" 
	d="
M184.814789,312.590149 
	C187.467133,320.152130 185.036087,325.986633 178.577423,328.363770 
	C172.877655,330.461609 166.756760,327.402466 164.575439,321.365723 
	C162.798874,316.449097 164.993652,310.996460 169.875626,308.198242 
	C174.968948,305.278931 180.210495,306.717346 184.814789,312.590149 
z"/>
<path fill="#000000" opacity="1.000000" stroke="none" 
	d="
M286.843018,376.776184 
	C280.467438,373.003021 278.319855,368.506714 279.978546,363.029572 
	C281.357483,358.476105 286.302368,355.010529 291.042023,355.275879 
	C297.458740,355.635040 301.864227,360.369995 301.713593,366.745453 
	C301.573517,372.674011 296.809692,377.262115 290.677368,377.304016 
	C289.525665,377.311890 288.372284,377.067505 286.843018,376.776184 
z"/>
<path fill="#000000" opacity="1.000000" stroke="none" 
	d="
M253.138092,205.349701 
	C246.688660,201.606140 244.557983,196.974121 246.541260,191.698608 
	C248.555283,186.341278 253.619385,183.173492 258.570374,184.173965 
	C265.234283,185.520584 269.382477,191.233170 268.011597,197.175797 
	C266.475311,203.835663 260.578705,207.213104 253.138092,205.349701 
z"/>
<path fill="#000000" opacity="1.000000" stroke="none" 
	d="
M294.701752,191.974548 
	C300.603912,195.389389 302.613403,199.318314 301.360535,204.826248 
	C300.290741,209.529358 297.147705,212.307678 292.518036,213.185577 
	C287.664215,214.105957 283.022797,211.788147 280.837189,207.422791 
	C278.915009,203.583572 279.024689,199.696426 281.558014,196.102570 
	C284.750702,191.573349 289.186005,190.579697 294.701752,191.974548 
z"/>
<path fill="#000000" opacity="1.000000" stroke="none" 
	d="
M330.079468,352.629913 
	C326.023529,358.010223 322.026367,359.698883 316.999115,358.078125 
	C312.252441,356.547852 309.623474,353.080811 309.102386,348.153046 
	C308.639069,343.771393 311.476959,339.153748 315.801788,337.470123 
	C320.138000,335.782043 324.470428,336.091370 327.873749,339.470276 
	C331.484894,343.055511 332.458740,347.453918 330.079468,352.629913 
z"/>
<path fill="#000000" opacity="1.000000" stroke="none" 
	d="
M226.382965,213.047424 
	C215.880783,213.610641 209.737152,206.259766 213.387344,197.958191 
	C215.286331,193.639328 218.683823,191.084320 223.507126,191.288071 
	C228.341156,191.492249 232.264618,193.659027 233.821640,198.485168 
	C235.301086,203.070862 234.463531,207.383591 230.602768,210.658432 
	C229.486496,211.605301 228.063492,212.190582 226.382965,213.047424 
z"/>
<path fill="#000000" opacity="1.000000" stroke="none" 
	d="
M224.561584,355.363770 
	C230.116058,356.268646 233.414154,359.167603 234.258545,364.380951 
	C235.049622,369.265259 233.348160,373.236176 229.020508,375.822784 
	C224.865723,378.306122 220.751343,377.837006 216.863907,375.169556 
	C212.541977,372.203918 211.969711,367.808014 212.934357,363.188446 
	C213.935867,358.392303 218.143829,355.632080 224.561584,355.363770 
z"/>
<path fill="#000000" opacity="1.000000" stroke="none" 
	d="
M200.795303,356.029846 
	C193.913956,359.985504 187.295181,358.581787 184.159485,352.812897 
	C181.084839,347.156311 183.205902,340.521912 189.025848,337.591522 
	C193.316711,335.431091 199.537537,336.796509 202.595261,340.569946 
	C206.332062,345.181396 205.836502,350.236450 200.795303,356.029846 
z"/>
</svg>