<svg version="1.1" id="Layer_1" xmlns="http://www.w3.org/2000/svg" xmlns:xlink="http://www.w3.org/1999/xlink" x="0px" y="0px"
	 width="100%" viewBox="0 0 512 512" enable-background="new 0 0 512 512" xml:space="preserve">
<path fill="#000000" opacity="1.000000" stroke="none" 
	d="
M263.800415,397.929871 
	C272.032867,397.933075 271.994629,397.925964 270.529755,405.821594 
	C269.421783,411.793579 268.427338,417.786621 267.178741,424.936279 
	C275.536652,420.467926 282.906036,416.528107 290.755035,412.331818 
	C294.631622,421.583405 297.184814,430.476593 300.145294,439.754913 
	C291.842682,442.538391 283.226440,442.155640 275.134613,444.220886 
	C281.084686,450.297546 286.815125,456.149902 293.032013,462.499023 
	C285.235443,469.454590 277.462677,474.895386 269.105927,480.737946 
	C265.121338,472.709656 261.395111,465.201904 257.053284,456.453857 
	C252.716904,465.118500 248.975082,472.595154 244.795975,480.945526 
	C236.693039,474.879578 229.106476,469.200226 221.592667,463.575317 
	C227.883865,456.962128 233.582352,450.971954 239.635788,444.608704 
	C231.358841,441.963989 222.555710,442.689148 214.017334,439.787323 
	C216.631531,430.417999 219.453690,421.514893 223.218185,412.449524 
	C231.331589,415.991516 238.021255,421.100861 246.748428,424.393005 
	C245.526321,417.448090 244.468323,411.204224 243.320633,404.976898 
	C242.095108,398.327240 242.383713,397.947906 249.337936,397.934784 
	C254.002014,397.925995 258.666138,397.932159 263.800415,397.929871 
z"/>
<path fill="#000000" opacity="1.000000" stroke="none" 
	d="
M357.299744,283.190948 
	C356.894226,290.259735 353.396973,294.598938 347.921509,295.271271 
	C342.151550,295.979767 337.268829,292.822632 335.676056,287.353455 
	C334.171417,282.186859 336.548584,276.785980 341.397583,274.354279 
	C348.008148,271.039185 354.855011,274.669281 357.299744,283.190948 
z"/>
<path fill="#000000" opacity="1.000000" stroke="none" 
	d="
M348.657104,323.298798 
	C344.636414,328.493774 340.761078,329.983032 335.985046,328.487793 
	C331.140198,326.970978 328.569153,323.516479 327.938751,318.673889 
	C327.370056,314.305328 330.549042,309.561615 335.020020,307.622406 
	C339.346771,305.745789 343.332336,306.763550 346.584320,309.789093 
	C350.537720,313.467285 351.393799,318.005859 348.657104,323.298798 
z"/>
<path fill="#000000" opacity="1.000000" stroke="none" 
	d="
M191.575256,210.222717 
	C198.841827,210.052200 202.592850,212.360260 204.333878,217.721588 
	C205.842606,222.367569 204.284805,227.294922 200.383896,229.998672 
	C196.493500,232.695175 192.408936,233.120132 188.261230,230.652740 
	C184.353348,228.328003 182.386703,224.750107 182.794907,220.262497 
	C183.260818,215.140472 186.232529,211.817535 191.575256,210.222717 
z"/>
<path fill="#000000" opacity="1.000000" stroke="none" 
	d="
M312.382324,213.391235 
	C316.748749,209.491806 321.256256,208.865479 325.993103,211.623260 
	C329.966003,213.936279 331.704010,217.619308 331.281372,222.162048 
	C330.853668,226.758987 328.127594,229.758911 323.986603,231.479736 
	C319.812103,233.214493 314.618896,231.794693 311.783295,228.293823 
	C308.225220,223.901062 308.329559,219.222198 312.382324,213.391235 
z"/>
<path fill="#000000" opacity="1.000000" stroke="none" 
	d="
M183.691040,257.528015 
	C179.754639,261.898682 175.277771,262.788147 170.320892,260.692963 
	C166.256424,258.975006 164.135971,255.500031 163.937286,251.265656 
	C163.716171,246.553543 166.079254,242.986069 170.292526,240.771439 
	C174.393967,238.615585 179.934097,239.625183 183.137299,243.056976 
	C186.908890,247.097733 187.150757,251.432083 183.691040,257.528015 
z"/>
<path fill="#000000" opacity="1.000000" stroke="none" 
	d="
M348.480225,244.811935 
	C351.577118,252.331940 349.157013,258.876556 342.767792,261.169708 
	C336.636444,263.370300 330.099915,259.855347 328.309845,253.395004 
	C326.980560,248.597687 329.401855,243.380692 334.137238,240.839005 
	C338.942383,238.259872 343.834900,239.521988 348.480225,244.811935 
z"/>
<path fill="#000000" opacity="1.000000" stroke="none" 
	d="
M169.477982,273.499939 
	C176.252991,275.301239 179.967529,280.292389 178.987946,285.825043 
	C177.918961,291.862640 172.226700,296.074463 166.256363,295.245361 
	C160.648697,294.466644 156.428268,289.317657 156.723083,283.614624 
	C157.043213,277.421936 161.869827,273.449677 169.477982,273.499939 
z"/>
<path fill="#000000" opacity="1.000000" stroke="none" 
	d="
M186.251434,317.971191 
	C185.467255,324.168762 182.226440,327.904877 176.509628,328.870483 
	C172.062790,329.621613 168.377350,327.709351 165.847748,323.913208 
	C163.286835,320.070099 163.210587,316.084259 165.708023,312.209747 
	C168.019867,308.623230 171.332748,306.441925 175.712463,306.825104 
	C180.150909,307.213440 183.586426,309.385468 185.266220,313.724121 
	C185.739883,314.947510 185.933655,316.279297 186.251434,317.971191 
z"/>
<path fill="#000000" opacity="1.000000" stroke="none" 
	d="
M259.538513,362.763916 
	C266.158417,365.461945 269.131958,370.096313 268.052734,375.429077 
	C266.990845,380.676300 262.803375,384.253021 257.554199,384.396484 
	C251.794479,384.553864 247.667557,381.341278 246.094452,375.996094 
	C244.412628,370.281616 250.119354,360.780396 259.538513,362.763916 
z"/>
<path fill="#000000" opacity="1.000000" stroke="none" 
	d="
M267.596680,191.843231 
	C268.863098,199.207779 265.214172,204.976349 258.948364,206.128708 
	C253.516129,207.127762 247.580475,203.067230 246.186249,197.398224 
	C244.834259,191.900955 248.460114,186.071701 254.304947,184.345856 
	C259.461243,182.823334 264.708221,185.665634 267.596680,191.843231 
z"/>
<path fill="#000000" opacity="1.000000" stroke="none" 
	d="
M282.850952,210.139679 
	C279.257690,206.097885 278.596222,201.855820 280.802216,197.405518 
	C282.814606,193.345749 286.284363,191.198990 290.875580,191.342850 
	C295.836304,191.498276 299.477539,193.823120 301.111908,198.628021 
	C302.705872,203.314133 301.072937,208.322906 297.305634,211.110214 
	C292.944214,214.337067 288.360626,214.111557 282.850952,210.139679 
z"/>
<path fill="#000000" opacity="1.000000" stroke="none" 
	d="
M290.913116,355.266571 
	C298.159149,356.632019 301.405579,359.984894 301.664520,366.015533 
	C301.872192,370.852509 298.504059,375.577087 293.843109,376.986969 
	C288.966461,378.462128 283.532196,376.325623 280.989777,371.742981 
	C276.800934,364.192810 282.281281,355.270905 290.913116,355.266571 
z"/>
<path fill="#000000" opacity="1.000000" stroke="none" 
	d="
M320.063751,336.647400 
	C327.653046,337.436859 331.645416,341.725739 331.319885,348.276917 
	C331.041229,353.885620 326.243408,358.346619 320.437256,358.395508 
	C314.318970,358.447052 309.556976,354.149231 309.091400,348.155640 
	C308.638977,342.331482 312.951019,337.628052 320.063751,336.647400 
z"/>
<path fill="#000000" opacity="1.000000" stroke="none" 
	d="
M213.361008,361.991516 
	C217.121307,356.048584 220.485947,354.386597 225.831528,355.612793 
	C230.727493,356.735840 233.690201,359.754150 234.299881,364.772522 
	C234.941299,370.052124 232.479630,374.444061 227.802032,376.471130 
	C223.794113,378.207947 219.952988,377.545776 216.561722,374.940521 
	C212.294189,371.662140 211.975189,367.178925 213.361008,361.991516 
z"/>
<path fill="#000000" opacity="1.000000" stroke="none" 
	d="
M224.556732,191.406998 
	C230.091553,192.301514 233.428223,195.141724 234.261871,200.372437 
	C235.040421,205.257431 233.314133,209.217087 229.009094,211.801208 
	C224.866913,214.287598 220.759689,213.828232 216.875153,211.145920 
	C212.574066,208.175980 211.970367,203.801132 212.927765,199.181763 
	C213.921677,194.386307 218.133087,191.640518 224.556732,191.406998 
z"/>
<path fill="#000000" opacity="1.000000" stroke="none" 
	d="
M193.993393,358.380157 
	C186.598114,357.371765 182.548019,353.171906 182.749893,347.159729 
	C182.933929,341.678009 187.385010,337.005005 192.743546,336.667847 
	C199.049301,336.271057 203.724976,339.848694 204.854889,345.934814 
	C205.972244,351.953369 201.472672,357.318146 193.993393,358.380157 
z"/>
</svg>