<svg version="1.1" id="Layer_1" xmlns="http://www.w3.org/2000/svg" xmlns:xlink="http://www.w3.org/1999/xlink" x="0px" y="0px"
	 width="100%" viewBox="0 0 512 512" enable-background="new 0 0 512 512" xml:space="preserve">
<path fill="#000000" opacity="1.000000" stroke="none" 
	d="
M244.224243,398.554688 
	C249.566544,400.818481 253.354340,404.565796 257.384094,408.849976 
	C268.473358,395.764465 282.804016,393.116974 298.374298,395.127930 
	C309.225342,396.529358 318.910675,400.663208 325.972504,409.592621 
	C339.101379,426.193634 336.891724,455.791229 321.875397,469.726868 
	C308.773834,481.885559 274.907257,487.273926 257.672760,466.091827 
	C255.568878,466.614899 254.830429,468.711304 253.371475,469.975006 
	C239.251648,482.205292 223.007965,482.849640 206.383514,477.466217 
	C190.557739,472.341431 182.448837,460.392670 180.526642,443.973663 
	C177.894241,421.488007 187.326050,404.060211 206.305695,397.557068 
	C218.836517,393.263580 231.460403,393.221313 244.224243,398.554688 
M241.660217,423.921478 
	C235.000290,415.830078 226.328293,414.380798 216.876907,417.116364 
	C207.552002,419.815369 203.629227,426.952911 202.882507,436.228271 
	C201.945190,447.870941 209.048096,457.115173 220.153046,458.586914 
	C233.164536,460.311310 243.411835,453.579193 245.418808,441.723999 
	C246.445480,435.659332 245.551010,429.798828 241.660217,423.921478 
M311.565033,441.828735 
	C311.606323,440.164154 311.696869,438.499084 311.680939,436.835022 
	C311.567871,425.010468 304.127075,416.986450 292.463501,416.083160 
	C280.609406,415.165131 271.294678,421.641296 269.407928,432.112732 
	C267.068329,445.097534 272.748444,455.229492 284.511932,458.056610 
	C294.651459,460.493378 308.141479,457.727448 311.565033,441.828735 
z"/>
<path fill="#000000" opacity="1.000000" stroke="none" 
	d="
M185.898865,320.371857 
	C181.556213,329.977661 172.033524,331.963318 166.437317,324.790985 
	C163.208817,320.653198 163.122604,315.591858 166.209534,311.416321 
	C169.226624,307.335266 173.930038,305.819458 178.566162,307.433990 
	C183.918686,309.298004 186.359924,313.412750 185.898865,320.371857 
z"/>
<path fill="#000000" opacity="1.000000" stroke="none" 
	d="
M247.480423,379.232239 
	C243.469986,373.135559 247.186829,365.245667 253.407944,363.036346 
	C259.618439,360.830872 266.056488,364.388672 267.851044,370.771942 
	C269.197876,375.562622 266.779572,380.911865 262.179474,383.317627 
	C257.306976,385.865814 252.031799,384.499756 247.480423,379.232239 
z"/>
<path fill="#000000" opacity="1.000000" stroke="none" 
	d="
M348.402344,311.911438 
	C351.345184,318.998688 349.966675,324.235870 344.627472,327.374603 
	C339.666016,330.291382 333.803650,329.184082 330.356384,324.679047 
	C326.639923,319.822235 327.332520,313.405853 331.995544,309.493286 
	C337.127625,305.187164 342.972443,305.938660 348.402344,311.911438 
z"/>
<path fill="#000000" opacity="1.000000" stroke="none" 
	d="
M346.730621,273.311005 
	C354.174377,274.798187 357.781494,278.986420 357.312347,285.218445 
	C356.901367,290.677979 352.264740,295.132324 346.801086,295.316528 
	C340.847351,295.517242 336.273010,291.709076 335.325775,285.763245 
	C334.303802,279.348541 338.761810,274.287231 346.730621,273.311005 
z"/>
<path fill="#000000" opacity="1.000000" stroke="none" 
	d="
M169.477768,273.498291 
	C176.253098,275.304657 179.967606,280.295502 178.988922,285.825348 
	C177.921768,291.854889 172.219177,296.073395 166.255356,295.245087 
	C160.652344,294.466888 156.428284,289.311951 156.723465,283.612610 
	C157.045547,277.394531 161.840744,273.447754 169.477768,273.498291 
z"/>
<path fill="#000000" opacity="1.000000" stroke="none" 
	d="
M349.297485,254.835571 
	C345.412598,260.939331 341.901703,262.607239 336.360596,261.340790 
	C331.312500,260.187042 328.634766,256.704041 328.039001,251.903091 
	C327.427399,246.974869 329.826019,243.193466 334.179352,240.854309 
	C338.270660,238.655945 342.402557,239.203781 345.883209,241.997910 
	C349.847900,245.180511 351.377563,249.417984 349.297485,254.835571 
z"/>
<path fill="#000000" opacity="1.000000" stroke="none" 
	d="
M163.900803,251.769714 
	C164.655441,244.950745 167.613602,241.009430 172.487640,239.863953 
	C177.103348,238.779221 182.125961,240.898972 184.559586,244.958832 
	C187.847427,250.443771 185.977890,257.202850 180.289688,260.395966 
	C174.964767,263.385162 168.137909,261.385834 165.280487,255.922546 
	C164.671478,254.758133 164.384796,253.425140 163.900803,251.769714 
z"/>
<path fill="#000000" opacity="1.000000" stroke="none" 
	d="
M325.396973,211.259338 
	C331.054443,215.484421 332.726288,220.271240 330.546509,225.220810 
	C328.496704,229.875198 323.588898,232.801498 318.937012,232.143051 
	C313.655029,231.395432 309.901062,227.555908 309.237793,222.222717 
	C308.214569,213.995300 316.014648,208.494781 325.396973,211.259338 
z"/>
<path fill="#000000" opacity="1.000000" stroke="none" 
	d="
M196.273407,210.421692 
	C202.475266,212.685440 205.726517,217.309189 205.010269,222.411774 
	C204.311554,227.389313 199.575439,231.856979 194.596436,232.235306 
	C189.450729,232.626297 184.502563,229.038391 183.075104,223.881226 
	C180.961990,216.246872 187.488419,209.338089 196.273407,210.421692 
z"/>
<path fill="#000000" opacity="1.000000" stroke="none" 
	d="
M246.471558,191.899246 
	C249.541275,185.909668 253.630249,183.305069 258.268280,184.105988 
	C263.799927,185.061203 267.480286,188.692322 268.179230,193.884323 
	C268.790161,198.422623 265.695862,203.411346 261.096649,205.416931 
	C257.128845,207.147171 253.499191,206.161102 250.317123,203.735886 
	C246.570557,200.880447 245.056870,196.997681 246.471558,191.899246 
z"/>
<path fill="#000000" opacity="1.000000" stroke="none" 
	d="
M285.356140,376.091492 
	C279.917877,371.703674 278.354492,367.319550 280.207520,362.452301 
	C281.878998,358.062042 286.583130,354.957367 291.153564,355.295074 
	C295.675568,355.629211 299.192596,357.690796 300.836487,361.986877 
	C302.499542,366.333130 301.972870,370.613007 298.565521,374.009338 
	C294.897064,377.665985 290.489929,378.320984 285.356140,376.091492 
z"/>
<path fill="#000000" opacity="1.000000" stroke="none" 
	d="
M280.927002,207.620377 
	C277.996338,198.954178 282.301727,191.596756 290.068604,191.305069 
	C295.132019,191.114929 299.543671,193.941208 301.019775,198.320816 
	C302.748077,203.448715 301.058807,208.592422 296.706696,211.453751 
	C292.336456,214.326981 287.319489,214.036987 283.393250,210.598175 
	C282.531952,209.843796 281.876526,208.854385 280.927002,207.620377 
z"/>
<path fill="#000000" opacity="1.000000" stroke="none" 
	d="
M326.387207,338.284943 
	C331.275452,342.848541 332.546753,347.336609 330.482147,351.797333 
	C328.240021,356.641632 323.588135,359.129303 318.269989,358.328003 
	C313.647919,357.631561 309.960724,353.864227 309.256531,348.955902 
	C308.663422,344.822144 310.151978,341.394531 313.414825,338.902771 
	C317.374756,335.878784 321.677551,335.881073 326.387207,338.284943 
z"/>
<path fill="#000000" opacity="1.000000" stroke="none" 
	d="
M222.257416,377.282013 
	C214.204056,374.849854 210.863846,369.313141 213.057190,362.702820 
	C214.917648,357.095825 220.804321,354.082520 226.622910,355.758698 
	C232.010468,357.310699 235.003052,362.099457 234.308777,368.057648 
	C233.671494,373.526703 229.312943,376.990509 222.257416,377.282013 
z"/>
<path fill="#000000" opacity="1.000000" stroke="none" 
	d="
M226.379974,213.038300 
	C217.908585,213.519073 212.991318,209.891449 212.648361,203.307953 
	C212.349319,197.567520 215.550003,192.832947 220.550903,191.618240 
	C225.797272,190.343918 231.244858,192.862762 233.445740,197.580521 
	C235.830307,202.691986 234.258438,208.175415 229.398880,211.530777 
	C228.588852,212.090073 227.654465,212.469269 226.379974,213.038300 
z"/>
<path fill="#000000" opacity="1.000000" stroke="none" 
	d="
M196.452057,336.821289 
	C204.297745,340.376251 206.931473,346.362946 203.704681,352.444672 
	C200.681107,358.143402 193.910477,360.120605 188.267532,356.952698 
	C184.124680,354.626984 181.808365,349.436432 183.055359,345.001953 
	C184.560364,339.649872 189.279236,335.505951 196.452057,336.821289 
z"/>
</svg>