<svg version="1.1" id="Layer_1" xmlns="http://www.w3.org/2000/svg" xmlns:xlink="http://www.w3.org/1999/xlink" x="0px" y="0px"
	 width="100%" viewBox="0 0 512 512" enable-background="new 0 0 512 512" xml:space="preserve">
<path fill="#000000" opacity="1.000000" stroke="none" 
	d="
M226.927856,102.148758 
	C228.316513,97.286362 229.646118,92.827362 230.844543,88.333374 
	C231.552002,85.680489 233.055710,84.546036 235.861633,84.647881 
	C240.348755,84.810738 244.847321,84.759239 249.338623,84.672379 
	C252.765396,84.606094 253.791672,86.106445 252.912582,89.331551 
	C251.000397,96.346672 249.173248,103.384987 247.065445,111.342133 
	C263.379211,111.342133 279.035461,111.342133 294.134613,111.342133 
	C295.770386,113.556328 295.121643,114.954491 294.718384,116.376541 
	C290.911713,129.801163 287.038879,143.208023 283.382935,156.673691 
	C282.500763,159.922943 281.033325,161.482651 277.525208,161.274918 
	C273.545013,161.039200 269.538483,161.124207 265.547516,161.227600 
	C261.590179,161.330124 260.056610,160.035721 261.315186,155.831100 
	C263.307526,149.175201 264.897614,142.398895 266.608398,135.862717 
	C264.858704,133.574646 262.684937,134.366714 260.822479,134.354599 
	C248.508743,134.274368 236.194061,134.348282 223.880005,134.296707 
	C218.456589,134.274002 218.093704,133.737640 219.557480,128.450851 
	C221.951004,119.806068 224.392456,111.174553 226.927856,102.148758 
z"/>
<path fill="#000000" opacity="1.000000" stroke="none" 
	d="
M342.125061,328.529999 
	C334.678619,329.657532 329.314880,326.149841 328.039581,319.692169 
	C326.985321,314.353638 331.146606,308.255707 336.724609,306.965240 
	C342.252838,305.686310 348.167816,309.292847 349.848846,314.967499 
	C351.419220,320.268799 348.690735,325.261292 342.125061,328.529999 
z"/>
<path fill="#000000" opacity="1.000000" stroke="none" 
	d="
M268.060303,371.470398 
	C268.110260,378.376862 265.254822,382.818207 260.242371,384.174561 
	C255.303497,385.511017 250.262421,383.629944 247.634659,379.470032 
	C244.263245,374.132843 245.941391,367.367645 251.477875,363.976776 
	C256.617432,360.829010 263.521240,362.575745 266.635559,367.871124 
	C267.215576,368.857361 267.530823,369.999298 268.060303,371.470398 
z"/>
<path fill="#000000" opacity="1.000000" stroke="none" 
	d="
M197.793777,210.819977 
	C203.666641,214.117584 206.005981,218.647400 204.690094,223.556473 
	C203.321121,228.663651 198.785004,232.288406 193.804031,232.255417 
	C188.859940,232.222672 184.533615,228.864441 183.126587,223.967194 
	C180.730667,215.628159 188.322540,208.584335 197.793777,210.819977 
z"/>
<path fill="#000000" opacity="1.000000" stroke="none" 
	d="
M312.206909,228.784988 
	C308.731110,224.216629 307.948975,219.675186 311.104828,215.103027 
	C313.612213,211.470306 317.088959,209.325775 321.758331,210.121521 
	C326.674896,210.959427 329.985138,213.776566 331.091583,218.658554 
	C332.205444,223.573288 330.299469,227.503860 326.230835,230.331039 
	C321.966858,233.293915 317.793365,232.855652 312.206909,228.784988 
z"/>
<path fill="#000000" opacity="1.000000" stroke="none" 
	d="
M170.273438,240.782867 
	C176.626190,238.819351 180.968964,239.966736 183.993118,244.132523 
	C187.018600,248.300140 187.021271,252.912384 184.000687,257.114105 
	C181.148849,261.081055 176.464600,262.674072 171.634781,261.209686 
	C167.174072,259.857178 164.666992,256.572845 164.047745,252.175095 
	C163.352478,247.237488 165.686371,243.514954 170.273438,240.782867 
z"/>
<path fill="#000000" opacity="1.000000" stroke="none" 
	d="
M350.076538,252.536652 
	C347.119812,262.900482 336.684662,263.802032 331.527985,258.815216 
	C328.157623,255.555878 326.842255,251.561447 328.707764,246.994659 
	C330.487183,242.638626 333.647034,239.907578 338.491241,239.708725 
	C343.478851,239.503983 347.123413,241.731522 349.234619,246.306702 
	C350.086609,248.153137 350.488251,250.092102 350.076538,252.536652 
z"/>
<path fill="#000000" opacity="1.000000" stroke="none" 
	d="
M171.250732,294.908661 
	C165.824066,295.988739 161.552032,294.730377 158.631821,290.353149 
	C156.232544,286.756775 155.835876,282.840942 158.131638,279.039001 
	C160.669678,274.835876 164.354553,272.746185 169.444656,273.472504 
	C174.516495,274.196198 177.470139,277.071014 178.694870,281.952484 
	C179.914536,286.813843 177.783585,290.332092 174.223923,293.263428 
	C173.464935,293.888489 172.505035,294.269562 171.250732,294.908661 
z"/>
<path fill="#000000" opacity="1.000000" stroke="none" 
	d="
M354.655884,291.527771 
	C348.024292,296.914398 340.969482,296.381439 337.112366,290.523987 
	C333.471008,284.994232 335.209442,277.793060 340.956573,274.599884 
	C345.173279,272.257019 350.901611,273.124634 354.297363,276.620483 
	C358.097015,280.532074 358.299957,285.399994 354.655884,291.527771 
z"/>
<path fill="#000000" opacity="1.000000" stroke="none" 
	d="
M165.358521,312.690918 
	C169.792847,307.049347 173.784409,305.608063 178.909256,307.540009 
	C183.450699,309.252045 186.499924,313.748596 186.253937,318.370758 
	C186.000351,323.135437 182.382294,327.431122 177.487564,328.713196 
	C173.353836,329.795959 169.797302,328.397064 167.057144,325.474762 
	C163.697067,321.891357 162.870224,317.618958 165.358521,312.690918 
z"/>
<path fill="#000000" opacity="1.000000" stroke="none" 
	d="
M301.220520,199.028885 
	C302.300476,204.439911 301.087128,208.607681 296.609436,211.520844 
	C292.734802,214.041687 288.761749,214.043747 284.871185,211.724106 
	C280.676697,209.223282 278.603851,204.359085 279.885651,199.677643 
	C281.127197,195.143082 284.181885,192.239212 288.919739,191.461060 
	C294.310059,190.575729 298.124329,192.879227 301.220520,199.028885 
z"/>
<path fill="#000000" opacity="1.000000" stroke="none" 
	d="
M299.524261,359.625763 
	C302.680389,365.841553 302.118866,370.893280 298.129639,374.503143 
	C294.440521,377.841431 288.787537,378.340912 284.713074,375.688568 
	C279.161804,372.074951 277.877808,364.692963 281.905304,359.546356 
	C286.277954,353.958710 293.430328,353.864227 299.524261,359.625763 
z"/>
<path fill="#000000" opacity="1.000000" stroke="none" 
	d="
M264.302612,203.402023 
	C259.825714,206.833206 255.486588,207.112457 251.051819,204.260269 
	C247.377289,201.897018 245.496399,198.348846 245.972519,194.111679 
	C246.489151,189.514023 249.160797,186.178391 253.691742,184.582672 
	C257.859833,183.114777 263.469208,184.945740 266.107422,188.648605 
	C269.372986,193.231995 268.914032,197.656891 264.302612,203.402023 
z"/>
<path fill="#000000" opacity="1.000000" stroke="none" 
	d="
M311.120270,341.286255 
	C314.757996,336.579956 319.303406,335.651978 324.292786,337.271118 
	C328.680878,338.695129 330.842468,342.215912 331.283997,346.710876 
	C331.740234,351.355896 329.532776,354.723602 325.720673,357.084290 
	C321.858185,359.476257 316.187836,358.788300 312.735992,355.663910 
	C308.881104,352.174744 308.240479,347.284790 311.120270,341.286255 
z"/>
<path fill="#000000" opacity="1.000000" stroke="none" 
	d="
M229.974213,375.195740 
	C224.135712,379.836700 215.649292,376.173981 213.503281,371.250427 
	C211.040085,365.599152 213.491623,358.524231 219.062119,356.039978 
	C224.424713,353.648499 231.456635,356.390198 233.583023,361.971222 
	C235.478622,366.946472 234.475708,371.417694 229.974213,375.195740 
z"/>
<path fill="#000000" opacity="1.000000" stroke="none" 
	d="
M212.639282,202.922943 
	C213.132034,196.207718 216.317703,192.219681 221.460373,191.442093 
	C226.530930,190.675430 231.393036,193.177292 233.451569,197.612350 
	C235.635757,202.318161 234.260071,207.871292 230.120102,211.060425 
	C226.081177,214.171722 220.860672,214.184402 216.686157,211.016693 
	C214.168396,209.106171 212.691650,206.591553 212.639282,202.922943 
z"/>
<path fill="#000000" opacity="1.000000" stroke="none" 
	d="
M197.273804,337.015106 
	C204.125793,340.624512 206.481155,345.661163 204.271545,351.265778 
	C202.136032,356.682465 196.552521,359.552002 190.950638,358.111816 
	C185.861008,356.803314 182.249557,351.676453 182.772079,346.501465 
	C183.332474,340.951385 187.811447,336.783142 193.415253,336.658295 
	C194.568039,336.632599 195.725250,336.805786 197.273804,337.015106 
z"/>
</svg>