<svg version="1.1" id="Layer_1" xmlns="http://www.w3.org/2000/svg" xmlns:xlink="http://www.w3.org/1999/xlink" x="0px" y="0px"
	 width="100%" viewBox="0 0 512 512" enable-background="new 0 0 512 512" xml:space="preserve">
<path fill="#000000" opacity="1.000000" stroke="none" 
	d="
M217.604904,425.356689 
	C211.640335,417.784912 206.323105,410.235474 202.658569,400.788605 
	C212.236023,400.788605 221.156082,400.765381 230.075714,400.815643 
	C231.300217,400.822540 232.209991,401.686371 232.919815,402.656250 
	C250.064087,426.081329 274.806824,436.135223 302.005890,441.685730 
	C332.941711,447.998810 364.153290,448.349915 395.357269,444.501984 
	C418.802246,441.610870 441.442413,435.737000 461.269135,421.957001 
	C468.553497,416.894226 475.043335,411.005981 480.414276,403.906158 
	C481.397125,402.606903 482.454559,400.880219 484.193359,400.853882 
	C493.112579,400.718658 502.034943,400.791321 511.824158,400.791321 
	C507.696045,409.611420 502.769531,416.778046 497.241669,423.567474 
	C476.694641,448.803802 449.342804,462.537354 418.406433,470.249023 
	C398.745117,475.150116 378.668762,476.895996 358.547150,476.764160 
	C329.697540,476.575226 301.163086,473.621674 273.774750,463.426727 
	C252.019516,455.328552 232.856186,443.594818 217.604904,425.356689 
z"/>
<path fill="#000000" opacity="1.000000" stroke="none" 
	d="
M343.601196,327.974915 
	C336.463470,330.084961 331.015594,327.663086 328.668732,321.668457 
	C326.587189,316.351501 329.292480,310.139893 334.769257,307.660950 
	C339.824097,305.372986 346.119568,307.578308 348.855682,312.595459 
	C351.851105,318.088104 350.047363,323.686646 343.601196,327.974915 
z"/>
<path fill="#000000" opacity="1.000000" stroke="none" 
	d="
M263.965210,364.792175 
	C268.555573,369.899170 269.382996,373.894135 266.920746,378.532928 
	C264.451874,383.184082 260.440094,384.943115 255.321991,384.311646 
	C250.244873,383.685272 247.314148,380.540649 246.148041,375.802856 
	C245.050125,371.342041 246.671219,367.562653 250.232498,364.843536 
	C254.534714,361.558807 259.112305,361.796112 263.965210,364.792175 
z"/>
<path fill="#000000" opacity="1.000000" stroke="none" 
	d="
M193.121826,209.910156 
	C202.720718,211.713242 207.140167,217.972153 204.227325,225.043533 
	C202.243484,229.859619 197.193634,232.880661 192.350311,232.148865 
	C187.433884,231.406021 183.551804,227.539047 182.810257,222.645950 
	C182.065033,217.728455 184.965942,212.800003 189.863144,210.762650 
	C190.773132,210.384079 191.767929,210.209381 193.121826,209.910156 
z"/>
<path fill="#000000" opacity="1.000000" stroke="none" 
	d="
M167.165497,273.264587 
	C173.021683,273.567902 176.935272,275.825958 178.585403,281.460083 
	C179.941269,286.089539 178.252335,289.677551 175.055328,292.592255 
	C171.383728,295.939606 167.013931,296.344940 162.621017,293.981873 
	C158.228424,291.619019 156.338425,287.728058 156.796356,282.825043 
	C157.246338,278.007324 160.840240,274.697174 167.165497,273.264587 
z"/>
<path fill="#000000" opacity="1.000000" stroke="none" 
	d="
M356.161560,279.288208 
	C358.340088,286.108643 356.523132,291.377167 351.321655,294.182526 
	C346.889984,296.572693 340.945099,295.362366 337.750763,291.419556 
	C334.320892,287.186096 334.344604,281.394318 337.809113,277.175781 
	C342.653992,271.276367 350.782440,272.057373 356.161560,279.288208 
z"/>
<path fill="#000000" opacity="1.000000" stroke="none" 
	d="
M309.869904,217.220093 
	C313.511078,211.321030 317.361847,209.188629 322.069336,210.172165 
	C327.130432,211.229599 330.604065,214.679413 331.244904,219.355637 
	C331.929779,224.353058 329.846619,228.083344 325.703766,230.670273 
	C321.568420,233.252533 317.277191,232.762802 313.597931,229.983917 
	C309.545959,226.923538 308.235352,222.586441 309.869904,217.220093 
z"/>
<path fill="#000000" opacity="1.000000" stroke="none" 
	d="
M176.577499,261.669922 
	C166.895966,262.674774 161.148666,252.819122 165.272171,245.566254 
	C167.754974,241.199280 172.648773,238.834320 177.521622,239.883530 
	C182.265488,240.904984 186.008209,245.322662 186.261948,250.200089 
	C186.527939,255.313766 182.988419,259.643250 176.577499,261.669922 
z"/>
<path fill="#000000" opacity="1.000000" stroke="none" 
	d="
M332.505005,259.699615 
	C327.701935,254.682465 326.770782,250.676971 329.065247,245.984055 
	C331.189514,241.639267 335.792664,239.087540 340.565033,239.762268 
	C345.571777,240.470154 348.678741,243.475586 349.926941,248.270737 
	C351.048553,252.579575 349.439911,256.224976 346.246704,259.030670 
	C342.092712,262.680573 337.483307,262.499603 332.505005,259.699615 
z"/>
<path fill="#000000" opacity="1.000000" stroke="none" 
	d="
M178.212250,307.304749 
	C184.340652,310.251312 187.169922,315.042938 186.022827,320.017883 
	C184.898285,324.894989 180.138535,328.961853 175.376648,329.114319 
	C170.455688,329.271881 165.796936,325.690247 164.317184,320.611755 
	C162.042358,312.804565 168.935425,305.948700 178.212250,307.304749 
z"/>
<path fill="#000000" opacity="1.000000" stroke="none" 
	d="
M245.862244,195.828369 
	C246.818161,188.768417 249.886810,184.814941 255.279602,184.119553 
	C259.878693,183.526505 263.884277,185.182648 266.461945,189.202835 
	C269.993103,194.710129 267.900391,201.876312 262.031616,205.001678 
	C256.612396,207.887665 249.529068,205.373215 246.903793,199.574142 
	C246.428436,198.524109 246.230972,197.348297 245.862244,195.828369 
z"/>
<path fill="#000000" opacity="1.000000" stroke="none" 
	d="
M301.230377,199.024597 
	C302.318207,204.443863 301.094421,208.614731 296.617645,211.531265 
	C292.741516,214.056488 288.755829,214.050629 284.863739,211.738632 
	C280.679108,209.252869 278.607788,204.366104 279.882690,199.676682 
	C281.117950,195.133102 284.168640,192.224365 288.920471,191.454407 
	C294.341034,190.576111 298.157227,192.875443 301.230377,199.024597 
z"/>
<path fill="#000000" opacity="1.000000" stroke="none" 
	d="
M300.525299,371.275574 
	C296.592743,376.714264 292.551025,378.567139 287.568726,376.973785 
	C283.120728,375.551300 280.204651,372.513489 279.714020,367.650177 
	C279.206482,362.619385 281.609863,358.223846 286.050323,356.276489 
	C290.204895,354.454529 294.320801,354.901489 297.759460,357.806946 
	C301.924896,361.326416 302.549194,365.930206 300.525299,371.275574 
z"/>
<path fill="#000000" opacity="1.000000" stroke="none" 
	d="
M318.588806,358.361450 
	C311.739929,356.143555 308.521606,351.913727 309.143890,346.413300 
	C309.734894,341.188873 313.827759,337.108521 318.908783,336.678284 
	C325.911774,336.085266 331.091370,340.492401 331.318970,347.237579 
	C331.544678,353.927795 326.711090,358.291412 318.588806,358.361450 
z"/>
<path fill="#000000" opacity="1.000000" stroke="none" 
	d="
M213.798309,207.719330 
	C210.852722,198.411911 215.690582,190.745209 223.763138,191.266510 
	C229.011581,191.605438 233.288589,195.041901 234.220367,199.668655 
	C235.316116,205.109558 232.828888,210.134201 227.901321,212.434296 
	C222.994720,214.724625 218.231018,213.235092 213.798309,207.719330 
z"/>
<path fill="#000000" opacity="1.000000" stroke="none" 
	d="
M214.108246,360.552795 
	C217.463211,355.708801 221.729782,354.188904 226.915146,355.867493 
	C231.435959,357.331024 234.003738,360.519287 234.361023,365.391785 
	C234.732681,370.460297 232.549271,374.122803 228.123596,376.294037 
	C223.604141,378.511353 219.239441,377.569824 215.725281,374.193268 
	C211.760895,370.384216 211.722733,365.711884 214.108246,360.552795 
z"/>
<path fill="#000000" opacity="1.000000" stroke="none" 
	d="
M198.036850,337.331421 
	C203.976318,340.937408 206.056442,345.187073 204.600677,350.174011 
	C203.140610,355.175598 199.063004,358.354462 194.064651,358.387756 
	C188.658752,358.423767 184.436356,355.244904 183.062424,350.104645 
	C180.846558,341.814636 187.874771,335.580841 198.036850,337.331421 
z"/>
</svg>