<svg version="1.1" id="Layer_1" xmlns="http://www.w3.org/2000/svg" xmlns:xlink="http://www.w3.org/1999/xlink" x="0px" y="0px"
	 width="100%" viewBox="0 0 512 512" enable-background="new 0 0 512 512" xml:space="preserve">
<path fill="#000000" opacity="1.000000" stroke="none" 
	d="
M513.000000,117.531342 
	C508.338165,120.153099 505.395142,124.389168 501.625732,127.600670 
	C482.794373,143.644806 460.862274,153.154358 437.088989,158.782593 
	C413.459290,164.376846 389.427307,166.057388 365.215668,164.944183 
	C341.039703,163.832626 317.210510,160.537918 294.324432,152.202286 
	C264.397980,141.302444 239.928192,123.747833 224.861053,94.838188 
	C224.100708,93.379303 223.170029,91.957741 223.191071,89.949585 
	C225.737137,87.940971 228.835709,89.157104 231.680176,88.832703 
	C243.391632,87.497017 252.340408,89.928627 260.775391,100.259499 
	C274.126678,116.611717 293.962952,123.837196 314.145935,128.457260 
	C352.242676,137.177917 390.679810,137.486389 429.081482,130.588821 
	C450.086517,126.816002 469.864075,119.666077 486.777405,105.995514 
	C490.814423,102.732513 494.956818,99.350365 497.722443,95.138031 
	C501.402496,89.532829 506.027832,87.990662 512.556458,88.915115 
	C513.000000,98.354225 513.000000,107.708458 513.000000,117.531342 
z"/>
<path fill="#000000" opacity="1.000000" stroke="none" 
	d="
M339.816254,306.766937 
	C345.517273,307.707367 349.013275,310.713562 350.063934,315.982697 
	C350.909973,320.225616 349.241760,323.869598 345.914154,326.524597 
	C342.221954,329.470459 338.123413,329.959869 333.858276,327.632568 
	C329.840454,325.440186 327.759033,321.914459 327.932587,317.478668 
	C328.115387,312.806519 330.710114,309.392212 335.071075,307.583191 
	C336.404144,307.030243 337.954956,307.002197 339.816254,306.766937 
z"/>
<path fill="#000000" opacity="1.000000" stroke="none" 
	d="
M248.002533,367.192200 
	C251.644897,362.521179 256.202728,361.593262 261.134521,363.253418 
	C265.641205,364.770477 268.009125,368.440857 268.187531,373.125336 
	C268.358276,377.608368 266.244293,381.090149 262.252075,383.267426 
	C258.227722,385.462250 252.623810,384.675842 249.321365,381.535950 
	C245.462875,377.867340 244.954361,373.234039 248.002533,367.192200 
z"/>
<path fill="#000000" opacity="1.000000" stroke="none" 
	d="
M301.170624,369.874451 
	C297.518829,376.237274 293.619690,378.318542 288.108917,377.162384 
	C283.781647,376.254517 280.114471,372.136932 279.701447,367.722260 
	C279.090668,361.193970 283.583069,355.667664 289.835785,355.255554 
	C296.335785,354.827087 301.337799,359.354492 301.661285,366.049744 
	C301.716461,367.192352 301.410950,368.352386 301.170624,369.874451 
z"/>
<path fill="#000000" opacity="1.000000" stroke="none" 
	d="
M185.960693,315.574097 
	C186.272339,322.467377 183.748978,326.551239 178.373260,328.430450 
	C174.002213,329.958466 168.711670,328.208252 166.047119,324.289642 
	C163.479446,320.513519 163.061966,316.545471 165.470154,312.561310 
	C167.786987,308.728241 171.186172,306.395538 175.785660,306.823456 
	C180.914581,307.300568 184.363815,310.145538 185.960693,315.574097 
z"/>
<path fill="#000000" opacity="1.000000" stroke="none" 
	d="
M356.155426,279.286926 
	C358.337189,286.095123 356.521271,291.371887 351.328979,294.176331 
	C346.901642,296.567535 340.953705,295.365326 337.761444,291.433960 
	C334.332306,287.210907 334.344757,281.418915 337.791962,277.196625 
	C342.567474,271.347473 350.807861,272.128906 356.155426,279.286926 
z"/>
<path fill="#000000" opacity="1.000000" stroke="none" 
	d="
M158.933044,290.850281 
	C155.966766,286.098511 155.847412,281.752899 159.159470,277.543091 
	C162.318695,273.527496 166.492630,272.523254 171.235565,273.800629 
	C175.751328,275.016815 178.172684,278.319946 178.879105,282.759125 
	C179.681610,287.802063 177.262619,291.465576 173.097549,293.980621 
	C168.542542,296.731110 164.046631,295.738007 158.933044,290.850281 
z"/>
<path fill="#000000" opacity="1.000000" stroke="none" 
	d="
M349.751068,247.741150 
	C350.634186,254.908279 347.409454,260.081543 341.587067,261.445099 
	C335.855408,262.787384 330.482758,259.781281 328.556274,254.154099 
	C326.732941,248.828247 329.377106,243.026077 334.760529,240.539673 
	C340.478058,237.898956 346.442474,240.639420 349.751068,247.741150 
z"/>
<path fill="#000000" opacity="1.000000" stroke="none" 
	d="
M186.176880,249.296402 
	C186.348633,255.145859 183.816925,259.039642 178.880676,261.040863 
	C174.894730,262.656799 170.899811,261.899780 167.713760,258.980865 
	C164.438675,255.980377 162.951859,252.213318 164.445450,247.707657 
	C165.943268,243.189178 168.996140,240.320572 173.732376,239.757950 
	C178.430054,239.199905 182.234283,241.009171 184.667755,245.185028 
	C185.327606,246.317352 185.643784,247.649933 186.176880,249.296402 
z"/>
<path fill="#000000" opacity="1.000000" stroke="none" 
	d="
M328.988434,214.222610 
	C332.169006,219.086578 332.338531,223.625488 328.831055,227.916168 
	C325.987274,231.394913 322.323212,232.996735 317.755280,231.874374 
	C312.813477,230.660156 310.034027,227.409912 309.322845,222.496841 
	C308.591827,217.446609 310.978088,213.809494 315.200378,211.330765 
	C319.602753,208.746323 323.894073,209.628998 328.988434,214.222610 
z"/>
<path fill="#000000" opacity="1.000000" stroke="none" 
	d="
M182.739380,221.829926 
	C183.401611,215.181213 186.326782,211.505661 191.631073,210.218842 
	C195.831177,209.199890 201.019836,211.432083 203.253983,215.219147 
	C205.865204,219.645355 205.617020,224.417175 202.293564,228.200638 
	C199.476883,231.407211 195.858948,232.996643 191.556961,231.963516 
	C186.487717,230.746140 183.610901,227.367050 182.739380,221.829926 
z"/>
<path fill="#000000" opacity="1.000000" stroke="none" 
	d="
M249.249268,187.258820 
	C253.697891,183.447037 258.188324,183.056839 262.896027,185.794006 
	C266.724457,188.019943 268.463287,191.593842 268.130798,195.843994 
	C267.782227,200.300156 265.291168,203.575363 261.109283,205.392395 
	C257.000580,207.177597 251.522232,205.734879 248.466583,202.103958 
	C244.901566,197.867828 245.056763,193.440689 249.249268,187.258820 
z"/>
<path fill="#000000" opacity="1.000000" stroke="none" 
	d="
M291.757324,213.279602 
	C284.758423,212.929779 280.378906,209.412903 279.723297,203.971283 
	C279.067139,198.525040 282.131653,193.501938 287.125244,191.838562 
	C292.025299,190.206360 297.576782,192.210800 300.136017,196.536285 
	C304.223907,203.445465 300.750214,210.742798 291.757324,213.279602 
z"/>
<path fill="#000000" opacity="1.000000" stroke="none" 
	d="
M319.208344,336.662354 
	C327.072571,337.041016 331.212769,340.867920 331.323364,347.447205 
	C331.417084,353.019897 327.204834,357.856354 321.793274,358.389557 
	C315.320679,359.027283 310.245850,355.236694 309.222626,348.999969 
	C308.265106,343.164093 311.997467,338.352936 319.208344,336.662354 
z"/>
<path fill="#000000" opacity="1.000000" stroke="none" 
	d="
M224.754074,377.287048 
	C217.487961,376.982635 213.300766,373.689209 212.683838,368.143738 
	C212.006180,362.052399 215.297745,356.898346 220.724045,355.554077 
	C225.895370,354.273041 231.342621,356.899780 233.507202,361.718292 
	C236.514725,368.413239 233.103973,374.774628 224.754074,377.287048 
z"/>
<path fill="#000000" opacity="1.000000" stroke="none" 
	d="
M219.843445,212.760223 
	C213.562851,209.261917 211.598434,205.459518 212.790115,199.668137 
	C213.671967,195.382507 217.802307,191.696350 222.186417,191.282349 
	C226.936050,190.833832 231.718796,193.452484 233.484634,197.739471 
	C235.099136,201.658966 234.893646,205.512253 232.177933,208.980286 
	C229.077148,212.940125 225.015121,214.066055 219.843445,212.760223 
z"/>
<path fill="#000000" opacity="1.000000" stroke="none" 
	d="
M204.333191,343.997040 
	C205.769775,350.749908 202.601105,356.593445 196.984512,358.114075 
	C191.219528,359.674896 185.386047,356.616119 183.388550,350.985077 
	C181.512497,345.696442 184.184113,339.702515 189.460739,337.361816 
	C195.093185,334.863281 200.930405,337.331635 204.333191,343.997040 
z"/>
</svg>