<svg version="1.1" id="Layer_1" xmlns="http://www.w3.org/2000/svg" xmlns:xlink="http://www.w3.org/1999/xlink" x="0px" y="0px"
	 width="100%" viewBox="0 0 512 512" enable-background="new 0 0 512 512" xml:space="preserve">
<path fill="#000000" opacity="1.000000" stroke="none" 
	d="
M309.000122,127.646622 
	C356.648193,127.647095 403.796265,127.645630 450.944336,127.650925 
	C457.843597,127.651703 457.857910,127.680534 457.986694,134.522064 
	C458.265930,149.351151 458.265900,149.360291 443.467285,149.360977 
	C370.162842,149.364426 296.858429,149.363388 223.554001,149.361526 
	C216.036316,149.361328 216.036331,149.353912 216.025665,142.029312 
	C216.004730,127.645744 216.004715,127.644493 230.530762,127.644447 
	C256.520538,127.644363 282.510315,127.645966 309.000122,127.646622 
z"/>
<path fill="#000000" opacity="1.000000" stroke="none" 
	d="
M343.605530,327.983215 
	C336.451965,330.093079 331.016052,327.675751 328.668030,321.672363 
	C326.585236,316.347137 329.286621,310.141235 334.767242,307.660461 
	C339.826691,305.370331 346.108582,307.570038 348.860199,312.595306 
	C351.860443,318.074768 350.050568,323.696045 343.605530,327.983215 
z"/>
<path fill="#000000" opacity="1.000000" stroke="none" 
	d="
M256.161407,362.645294 
	C263.612335,363.018951 267.994049,366.941315 268.248322,373.068848 
	C268.472931,378.482422 264.181519,383.696594 258.948059,384.368805 
	C252.649094,385.177887 247.567795,381.819489 246.113388,375.885956 
	C244.622910,369.805267 248.749847,364.132751 256.161407,362.645294 
z"/>
<path fill="#000000" opacity="1.000000" stroke="none" 
	d="
M183.242645,217.790833 
	C185.434875,212.666168 189.032028,209.804443 194.194565,210.042801 
	C198.528152,210.242889 202.164459,212.264908 204.005508,216.641739 
	C205.894135,221.131622 205.176926,225.273529 201.891769,228.649689 
	C198.669525,231.961182 194.634186,233.294327 190.022995,231.485367 
	C185.534637,229.724579 183.182922,226.350174 182.766632,221.626221 
	C182.666656,220.491791 182.972610,219.321594 183.242645,217.790833 
z"/>
<path fill="#000000" opacity="1.000000" stroke="none" 
	d="
M324.004211,231.486359 
	C316.280945,233.087250 311.053558,230.070099 309.518372,223.483307 
	C308.186462,217.768707 311.591583,212.156113 317.478119,210.363312 
	C322.748871,208.758057 328.743805,211.921402 330.718353,217.349777 
	C332.738403,222.903397 330.620605,227.578644 324.004211,231.486359 
z"/>
<path fill="#000000" opacity="1.000000" stroke="none" 
	d="
M164.525787,254.084518 
	C163.224548,246.954514 166.634476,241.186874 172.593048,239.848618 
	C178.163773,238.597458 183.681473,241.770065 185.609955,247.333145 
	C187.421921,252.560089 184.615356,258.646942 179.335693,260.940643 
	C173.720993,263.379944 167.981781,260.849640 164.525787,254.084518 
z"/>
<path fill="#000000" opacity="1.000000" stroke="none" 
	d="
M344.207642,260.479614 
	C337.287933,262.670959 332.362213,261.189819 329.527008,256.367584 
	C326.946350,251.978149 327.594116,246.694962 331.160522,243.044556 
	C335.605377,238.495026 342.980316,238.543060 347.203033,243.149063 
	C352.124176,248.516907 351.084167,255.173355 344.207642,260.479614 
z"/>
<path fill="#000000" opacity="1.000000" stroke="none" 
	d="
M178.621765,281.731995 
	C179.462479,288.600861 175.767715,294.166199 170.038223,295.218445 
	C164.233841,296.284454 158.515869,292.621674 157.019684,286.879120 
	C155.627655,281.536377 159.028381,275.485291 164.379593,273.783264 
	C170.514221,271.832062 175.888062,274.712341 178.621765,281.731995 
z"/>
<path fill="#000000" opacity="1.000000" stroke="none" 
	d="
M357.060577,281.561554 
	C357.457062,288.561798 355.006592,292.961914 350.015656,294.801819 
	C345.596558,296.430939 340.262207,294.901550 337.510101,291.057343 
	C334.892548,287.401031 334.272736,283.443726 336.416473,279.330902 
	C338.426331,275.474854 341.665985,273.223541 346.020996,273.295319 
	C351.348022,273.383148 355.178955,275.942841 357.060577,281.561554 
z"/>
<path fill="#000000" opacity="1.000000" stroke="none" 
	d="
M183.492126,310.638184 
	C186.883286,315.354126 187.248459,319.888733 183.969269,324.344025 
	C181.427109,327.797943 177.897781,329.618286 173.567398,328.889374 
	C168.927872,328.108459 165.759872,325.375977 164.366577,320.763000 
	C163.026840,316.327393 164.946304,311.451080 169.153900,308.665649 
	C173.772659,305.608002 177.819855,306.089996 183.492126,310.638184 
z"/>
<path fill="#000000" opacity="1.000000" stroke="none" 
	d="
M279.667969,366.062073 
	C280.758667,358.922241 285.428711,354.812927 291.391113,355.324890 
	C297.647095,355.862091 301.779236,360.369019 301.721588,366.592438 
	C301.668823,372.287994 297.051056,377.055603 291.336151,377.314880 
	C284.755310,377.613434 280.428040,373.597565 279.667969,366.062073 
z"/>
<path fill="#000000" opacity="1.000000" stroke="none" 
	d="
M263.715820,203.885178 
	C257.766693,208.967743 248.831955,204.785461 246.712921,199.250854 
	C244.394760,193.196167 247.501740,186.631866 253.910156,184.489517 
	C258.079895,183.095581 263.732239,185.086975 266.252655,188.837952 
	C269.528503,193.713196 268.821106,198.414536 263.715820,203.885178 
z"/>
<path fill="#000000" opacity="1.000000" stroke="none" 
	d="
M301.013275,198.298798 
	C302.341187,203.792740 301.468109,208.229034 296.837494,211.386139 
	C293.025452,213.985168 289.030396,214.085449 285.086182,211.871780 
	C280.843445,209.490555 278.681458,204.690628 279.832764,199.932434 
	C280.941406,195.350449 283.942322,192.395584 288.663452,191.509842 
	C293.902679,190.526886 297.583008,192.521454 301.013275,198.298798 
z"/>
<path fill="#000000" opacity="1.000000" stroke="none" 
	d="
M309.530579,350.198669 
	C308.679626,342.980438 312.091827,337.741699 317.953735,336.742889 
	C324.209961,335.676819 329.486450,338.924042 331.038757,344.795624 
	C332.443359,350.108643 329.111145,356.283295 323.898132,358.027161 
	C317.954620,360.015381 312.497375,357.169739 309.530579,350.198669 
z"/>
<path fill="#000000" opacity="1.000000" stroke="none" 
	d="
M215.730469,210.267700 
	C211.891983,204.865875 211.567169,199.924011 214.619659,195.783508 
	C217.612961,191.723343 221.642929,190.444107 226.471924,191.740540 
	C232.594589,193.384293 235.994202,199.816864 233.993500,205.864273 
	C231.992538,211.912415 224.851044,215.020538 218.983627,212.347137 
	C217.938736,211.871048 217.007141,211.146240 215.730469,210.267700 
z"/>
<path fill="#000000" opacity="1.000000" stroke="none" 
	d="
M217.288818,357.145386 
	C223.608566,354.109589 229.421524,355.309662 232.596817,360.014862 
	C235.524521,364.353210 234.921951,370.513733 231.210175,374.191711 
	C227.283340,378.082733 221.297729,378.342346 216.621155,375.080353 
	C211.288574,371.360687 211.011368,361.118286 217.288818,357.145386 
z"/>
<path fill="#000000" opacity="1.000000" stroke="none" 
	d="
M200.191437,338.471252 
	C204.905655,342.865509 206.081573,346.998566 204.176743,351.523315 
	C202.199768,356.219482 197.778214,358.878326 192.642090,358.328949 
	C187.626389,357.792450 184.453400,354.914978 183.113632,350.149017 
	C181.919189,345.900024 183.317459,342.163239 186.484055,339.347839 
	C190.544876,335.737457 195.161179,335.716461 200.191437,338.471252 
z"/>
</svg>