<svg version="1.1" id="Layer_1" xmlns="http://www.w3.org/2000/svg" xmlns:xlink="http://www.w3.org/1999/xlink" x="0px" y="0px"
	 width="100%" viewBox="0 0 512 512" enable-background="new 0 0 512 512" xml:space="preserve">
<path fill="#000000" opacity="1.000000" stroke="none" 
	d="
M513.000000,164.583344 
	C505.174835,165.062790 497.349335,165.098938 489.524780,165.205765 
	C487.373657,165.235138 485.645416,164.634354 484.337738,162.836212 
	C467.803284,140.100327 443.801544,130.168884 417.571625,124.420532 
	C389.221161,118.207451 360.507904,117.891602 331.684509,120.085350 
	C310.267761,121.715370 289.575012,126.200775 270.076416,135.391846 
	C257.108917,141.504349 245.750534,149.821777 237.016815,161.339005 
	C235.023819,163.967209 232.908157,165.331894 229.526718,165.253052 
	C221.924011,165.075745 214.314316,165.197449 207.053680,165.197449 
	C205.853531,162.603134 207.059143,161.197723 207.837784,159.824463 
	C219.447983,139.347885 235.538086,123.310760 256.089233,111.870506 
	C282.059692,97.413467 310.275116,91.443993 339.695007,89.559227 
	C367.462891,87.780304 394.921295,89.420952 421.970673,95.795479 
	C454.917236,103.559738 483.855774,118.204506 504.283600,146.431671 
	C507.299469,150.598999 509.806183,155.134781 512.774231,159.750031 
	C513.000000,161.388885 513.000000,162.777786 513.000000,164.583344 
z"/>
<path fill="#000000" opacity="1.000000" stroke="none" 
	d="
M307.805542,329.087769 
	C299.249237,327.760345 294.651703,322.358826 296.097504,315.838257 
	C297.261414,310.588867 302.008026,306.653931 307.081482,306.732513 
	C312.385559,306.814697 317.054443,310.666107 318.099945,315.821777 
	C319.053528,320.524261 316.226074,325.823517 311.513794,328.009979 
	C310.473663,328.492584 309.310760,328.710602 307.805542,329.087769 
z"/>
<path fill="#000000" opacity="1.000000" stroke="none" 
	d="
M230.633881,363.894653 
	C236.018448,368.358734 237.402222,372.664673 235.335617,377.617340 
	C233.314880,382.460052 229.300720,384.792786 223.743347,384.354004 
	C218.935944,383.974457 215.151733,380.603455 214.077301,375.661530 
	C213.171600,371.495697 214.723450,368.093262 217.709656,365.340057 
	C221.460419,361.881866 225.784180,361.912872 230.633881,363.894653 
z"/>
<path fill="#000000" opacity="1.000000" stroke="none" 
	d="
M134.732269,325.181732 
	C131.234543,320.499786 130.901398,315.961334 134.177704,311.514343 
	C136.700287,308.090363 140.156937,306.156372 144.554520,306.902466 
	C149.442749,307.731750 152.620071,310.626007 153.913727,315.463196 
	C155.040771,319.677338 152.981277,324.586395 149.067215,327.106964 
	C144.288345,330.184418 140.485794,329.745331 134.732269,325.181732 
z"/>
<path fill="#000000" opacity="1.000000" stroke="none" 
	d="
M305.922241,276.998657 
	C310.959381,271.098938 320.328033,272.992950 323.556061,278.160919 
	C326.908264,283.527771 325.379272,290.489899 319.913025,293.846008 
	C315.784637,296.380737 309.990723,295.711639 306.524109,292.299805 
	C302.552765,288.391235 302.254303,283.000031 305.922241,276.998657 
z"/>
<path fill="#000000" opacity="1.000000" stroke="none" 
	d="
M146.409271,280.960754 
	C147.772278,287.628967 144.496796,293.471802 138.815613,295.056854 
	C133.240875,296.612152 127.217926,293.301361 125.294258,287.624176 
	C123.485069,282.284851 126.310989,276.222198 131.625183,274.041992 
	C137.383133,271.679718 143.088196,274.215118 146.409271,280.960754 
z"/>
<path fill="#000000" opacity="1.000000" stroke="none" 
	d="
M297.289642,245.633270 
	C301.723816,239.812164 305.961609,238.330872 311.254242,240.489502 
	C315.708557,242.306229 318.650208,246.979446 318.217255,251.551208 
	C317.761261,256.365784 313.885895,260.628265 309.118469,261.558838 
	C300.213837,263.296906 294.027039,255.278641 297.289642,245.633270 
z"/>
<path fill="#000000" opacity="1.000000" stroke="none" 
	d="
M145.336060,261.489288 
	C138.209442,261.723145 134.584488,259.635681 132.659988,254.490051 
	C130.850296,249.651337 132.330048,245.625580 135.963150,242.348831 
	C139.623962,239.047089 144.775635,238.689865 148.937683,241.316711 
	C152.613708,243.636780 154.582993,247.136398 154.159546,251.419846 
	C153.657715,256.496124 150.744553,259.952911 145.336060,261.489288 
z"/>
<path fill="#000000" opacity="1.000000" stroke="none" 
	d="
M298.279266,225.756409 
	C293.212616,232.707825 286.941254,234.142822 281.440979,229.930878 
	C276.698456,226.299210 275.845245,219.029816 279.610352,214.333618 
	C283.095825,209.986145 288.509918,208.810699 293.466309,211.325394 
	C298.442688,213.850220 300.261292,218.979874 298.279266,225.756409 
z"/>
<path fill="#000000" opacity="1.000000" stroke="none" 
	d="
M170.285004,213.814667 
	C173.602478,218.734375 174.150452,223.426437 170.471390,227.939362 
	C167.632339,231.421890 163.877548,233.021423 159.375504,231.904526 
	C154.512787,230.698135 151.578842,227.434601 150.855774,222.529877 
	C150.151367,217.751923 152.275345,214.092178 156.319534,211.608521 
	C160.793655,208.860840 164.769028,209.470810 170.285004,213.814667 
z"/>
<path fill="#000000" opacity="1.000000" stroke="none" 
	d="
M253.359161,376.087646 
	C247.914795,371.693207 246.352524,367.304871 248.216705,362.446381 
	C249.903397,358.050476 254.598969,354.960663 259.172180,355.299500 
	C263.695221,355.634644 267.220398,357.688141 268.854126,361.992371 
	C270.503601,366.337921 269.984375,370.625427 266.570740,374.018494 
	C262.899353,377.667786 258.494720,378.342316 253.359161,376.087646 
z"/>
<path fill="#000000" opacity="1.000000" stroke="none" 
	d="
M269.397186,200.600647 
	C269.502533,207.918076 266.201782,212.397003 260.412933,213.230103 
	C255.098450,213.994934 249.885834,210.910858 248.159149,205.980057 
	C246.338562,200.781143 248.683670,195.081039 253.710098,192.487701 
	C260.261444,189.107590 267.154785,192.511795 269.397186,200.600647 
z"/>
<path fill="#000000" opacity="1.000000" stroke="none" 
	d="
M289.748322,336.694763 
	C296.893097,338.642578 300.486023,343.927490 299.176239,349.966888 
	C298.003357,355.375122 292.630219,359.010925 286.749603,358.375549 
	C281.161102,357.771790 276.763763,352.591339 277.063416,346.964294 
	C277.398682,340.667694 281.955322,336.842468 289.748322,336.694763 
z"/>
<path fill="#000000" opacity="1.000000" stroke="none" 
	d="
M228.041779,184.603821 
	C234.294037,187.416794 237.136749,192.059845 236.018005,197.093414 
	C234.904434,202.103760 230.325256,206.077866 225.479950,206.239029 
	C220.374496,206.408844 215.741272,202.567581 214.170639,197.408508 
	C212.152802,190.780441 219.985123,181.582565 228.041779,184.603821 
z"/>
<path fill="#000000" opacity="1.000000" stroke="none" 
	d="
M180.729828,204.606445 
	C179.127380,197.032776 185.738388,190.555450 192.105347,191.293732 
	C197.844482,191.959259 201.908981,195.704895 202.328369,200.988556 
	C202.781982,206.703491 199.366241,211.792053 194.207993,213.085785 
	C188.464371,214.526321 183.393158,211.485626 180.729828,204.606445 
z"/>
<path fill="#000000" opacity="1.000000" stroke="none" 
	d="
M194.386993,377.058472 
	C185.649933,377.539612 180.794754,373.777710 180.634399,366.814972 
	C180.503799,361.145081 183.884430,356.595917 189.054413,355.484528 
	C194.091873,354.401642 199.275406,356.952576 201.435074,361.577332 
	C203.730484,366.492767 202.299133,372.008301 197.816406,375.262268 
	C196.886566,375.937164 195.800415,376.396759 194.386993,377.058472 
z"/>
<path fill="#000000" opacity="1.000000" stroke="none" 
	d="
M151.723022,351.835999 
	C149.835724,344.952118 152.329285,339.296661 157.889282,337.161957 
	C163.085632,335.166931 169.503189,337.704803 171.855087,342.684814 
	C174.379730,348.030640 172.315033,354.315033 167.088745,357.192291 
	C161.697723,360.160248 155.816711,358.237061 151.723022,351.835999 
z"/>
</svg>