<svg version="1.1" id="Layer_1" xmlns="http://www.w3.org/2000/svg" xmlns:xlink="http://www.w3.org/1999/xlink" x="0px" y="0px"
	 width="100%" viewBox="0 0 512 512" enable-background="new 0 0 512 512" xml:space="preserve">
<path fill="#000000" opacity="1.000000" stroke="none" 
	d="
M295.000122,422.647766 
	C344.331757,422.647430 393.163391,422.648773 441.995026,422.645477 
	C448.623810,422.645020 448.633606,422.634308 448.650574,416.019012 
	C448.665070,410.380096 448.653564,404.741150 448.653564,397.312195 
	C466.266388,410.256714 482.702789,422.336609 499.940308,435.005280 
	C482.841309,447.577179 466.459412,459.621826 448.660248,472.708496 
	C448.660248,465.851776 448.666138,460.487762 448.658844,455.123749 
	C448.648315,447.384552 448.644226,447.371643 441.088013,447.371094 
	C359.924194,447.365021 278.760345,447.363525 197.596527,447.360321 
	C189.833694,447.360016 189.830124,447.358673 189.812332,439.760742 
	C189.803360,435.927582 190.050461,432.075165 189.746857,428.266144 
	C189.392136,423.815887 191.189636,422.547546 195.503983,422.572571 
	C222.168823,422.727051 248.834991,422.649902 275.500732,422.649506 
	C281.833862,422.649414 288.166962,422.648529 295.000122,422.647766 
z"/>
<path fill="#000000" opacity="1.000000" stroke="none" 
	d="
M299.167419,310.188690 
	C303.490295,306.271790 307.968140,305.651398 312.685089,308.385651 
	C316.793732,310.767273 318.803192,314.532135 318.096832,319.231079 
	C317.373810,324.041107 314.488861,327.359039 309.682831,328.648956 
	C304.993652,329.907501 301.159729,328.210541 298.276550,324.559479 
	C294.793030,320.148132 295.079590,316.175476 299.167419,310.188690 
z"/>
<path fill="#000000" opacity="1.000000" stroke="none" 
	d="
M150.739578,220.185318 
	C152.580292,213.641754 156.177994,210.214874 161.111526,209.913513 
	C165.739777,209.630783 170.442200,212.630768 172.112427,216.931686 
	C174.510910,223.107880 171.542664,229.386658 165.154053,231.650864 
	C159.525635,233.645645 153.327866,230.472244 151.340759,224.482346 
	C150.933212,223.253769 150.916092,221.895660 150.739578,220.185318 
z"/>
<path fill="#000000" opacity="1.000000" stroke="none" 
	d="
M310.770844,294.879028 
	C304.755768,291.626709 302.355499,287.379822 303.375488,282.329865 
	C304.377930,277.366760 308.498810,273.588776 313.319946,273.212891 
	C318.279388,272.826263 322.898193,275.817261 324.686493,280.491455 
	C327.757416,288.518188 320.131836,297.699463 310.770844,294.879028 
z"/>
<path fill="#000000" opacity="1.000000" stroke="none" 
	d="
M296.495911,228.376236 
	C292.545746,232.337448 288.298431,233.244247 283.511810,231.133759 
	C279.242004,229.251114 277.323395,225.615326 277.169464,221.248016 
	C277.010376,216.734406 279.423035,213.396179 283.345001,211.224655 
	C287.546906,208.898163 293.173279,209.939423 296.481110,213.580566 
	C300.178192,217.650177 300.272705,222.639023 296.495911,228.376236 
z"/>
<path fill="#000000" opacity="1.000000" stroke="none" 
	d="
M153.880157,253.328064 
	C150.509186,263.486694 139.001038,263.801147 134.256256,257.501617 
	C131.168167,253.401611 131.144318,248.172699 134.255386,244.076416 
	C137.176620,240.230072 142.244919,238.671906 146.747147,240.236008 
	C151.897690,242.025345 154.451447,246.494141 153.880157,253.328064 
z"/>
<path fill="#000000" opacity="1.000000" stroke="none" 
	d="
M304.531830,239.848602 
	C310.021118,239.223480 314.181030,240.729538 316.787659,245.349640 
	C319.062805,249.382187 318.748474,253.389923 316.012268,257.070435 
	C313.331726,260.676117 309.819672,262.345764 305.161438,261.513031 
	C300.300568,260.644073 297.492523,257.756287 296.255829,253.199051 
	C295.083038,248.877106 296.724304,245.318344 299.857697,242.452271 
	C301.050903,241.360840 302.689880,240.756775 304.531830,239.848602 
z"/>
<path fill="#000000" opacity="1.000000" stroke="none" 
	d="
M125.266129,280.829010 
	C127.586273,275.800568 131.071304,273.085419 136.365829,273.333649 
	C140.680038,273.535950 144.017960,275.485260 145.913269,279.491302 
	C147.990997,283.882874 147.262253,287.986603 144.131699,291.548676 
	C140.982452,295.131989 136.918518,296.302216 132.371368,294.761200 
	C127.856606,293.231171 125.316010,289.883911 124.787140,285.153503 
	C124.643059,283.864838 124.989525,282.521301 125.266129,280.829010 
z"/>
<path fill="#000000" opacity="1.000000" stroke="none" 
	d="
M153.672455,314.812134 
	C154.744110,322.163879 151.532806,327.249939 145.243073,328.780670 
	C139.910034,330.078552 134.306839,326.667358 132.452866,320.994110 
	C130.742264,315.759552 133.622253,309.956604 139.109879,307.580994 
	C144.709763,305.156738 150.476593,307.900879 153.672455,314.812134 
z"/>
<path fill="#000000" opacity="1.000000" stroke="none" 
	d="
M236.225800,195.810455 
	C233.106537,206.275253 224.018829,209.553787 217.273132,202.912415 
	C214.095566,199.783966 212.881989,195.943497 214.604477,191.494049 
	C216.343063,187.003113 219.660706,184.214722 224.313583,184.027847 
	C228.824844,183.846680 232.832062,185.709213 234.964401,190.117294 
	C235.751358,191.744141 236.410065,193.499878 236.225800,195.810455 
z"/>
<path fill="#000000" opacity="1.000000" stroke="none" 
	d="
M268.149872,207.935516 
	C264.829987,212.791306 260.444397,214.380768 255.325974,212.854935 
	C251.071564,211.586670 248.284698,208.497482 247.727127,203.873627 
	C247.126266,198.890991 249.020020,195.006241 253.436630,192.645645 
	C257.828369,190.298325 262.187958,190.868973 266.017151,193.954865 
	C269.797607,197.001541 270.493866,201.803482 268.149872,207.935516 
z"/>
<path fill="#000000" opacity="1.000000" stroke="none" 
	d="
M258.091675,377.305847 
	C251.247299,375.986267 247.854263,372.424896 247.677017,366.807068 
	C247.507416,361.431915 250.704971,357.018768 255.756210,355.656525 
	C260.647614,354.337402 265.738281,356.384094 268.215546,360.665771 
	C272.539734,368.139618 267.709625,376.426544 258.091675,377.305847 
z"/>
<path fill="#000000" opacity="1.000000" stroke="none" 
	d="
M224.150681,362.642059 
	C231.587021,363.014526 235.972946,366.930023 236.241684,373.036560 
	C236.467468,378.167053 232.357162,383.405640 227.429291,384.267883 
	C221.295990,385.341095 215.956787,382.110016 214.256592,376.296356 
	C212.411926,369.988678 216.438141,364.187286 224.150681,362.642059 
z"/>
<path fill="#000000" opacity="1.000000" stroke="none" 
	d="
M280.565247,339.437195 
	C286.618896,335.688416 292.167511,335.796906 295.978668,339.468781 
	C299.510376,342.871399 300.387665,348.687500 297.986206,352.778503 
	C294.562866,358.610474 287.548004,360.316986 282.033630,356.659302 
	C276.403076,352.924530 275.702087,346.158203 280.565247,339.437195 
z"/>
<path fill="#000000" opacity="1.000000" stroke="none" 
	d="
M189.431061,213.203934 
	C181.450943,209.941376 178.627197,204.335358 181.355011,197.936172 
	C183.504623,192.893356 188.526001,190.387177 193.962296,191.643860 
	C199.630539,192.954147 202.725403,197.291443 202.338593,203.382782 
	C202.019211,208.412338 197.958496,212.657623 192.824814,213.257904 
	C191.844620,213.372528 190.838303,213.263718 189.431061,213.203934 
z"/>
<path fill="#000000" opacity="1.000000" stroke="none" 
	d="
M184.069763,358.096558 
	C189.958633,354.143341 196.257584,354.679596 199.965393,359.167480 
	C203.408966,363.335541 203.243958,369.759735 199.589981,373.782959 
	C195.763916,377.995667 189.443573,378.543579 184.685547,375.075012 
	C179.596619,371.365234 179.228333,364.537659 184.069763,358.096558 
z"/>
<path fill="#000000" opacity="1.000000" stroke="none" 
	d="
M152.078186,342.453461 
	C155.080276,337.314667 159.421631,335.760468 164.580765,336.908630 
	C169.203293,337.937378 171.986038,341.148865 172.826889,345.840759 
	C173.651627,350.442841 171.611237,353.917877 168.058533,356.550049 
	C164.381668,359.274261 158.831680,359.024078 155.045822,356.180420 
	C151.087967,353.207550 149.961426,348.427612 152.078186,342.453461 
z"/>
</svg>