<svg version="1.1" id="Layer_1" xmlns="http://www.w3.org/2000/svg" xmlns:xlink="http://www.w3.org/1999/xlink" x="0px" y="0px"
	 width="100%" viewBox="0 0 512 512" enable-background="new 0 0 512 512" xml:space="preserve">
<path fill="#000000" opacity="1.000000" stroke="none" 
	d="
M263.941254,62.689312 
	C270.122955,62.712246 275.674469,63.625053 281.077179,65.450523 
	C290.798767,68.735268 296.343719,75.781227 297.166473,85.687920 
	C298.863281,106.119324 297.652283,126.630997 297.935150,147.106491 
	C297.979095,150.287949 296.494965,151.785049 293.338715,151.322998 
	C290.379181,150.889740 286.599915,152.956573 284.639526,149.608139 
	C283.200775,147.150665 282.933624,144.007278 282.179016,141.294357 
	C280.192413,140.944763 279.460022,142.303589 278.606995,143.182968 
	C266.911560,155.239395 242.635086,155.228912 230.775650,149.019196 
	C221.952805,144.399445 218.559433,136.805771 218.401154,127.271553 
	C218.246140,117.934738 222.092651,110.873611 230.213745,106.252319 
	C240.367569,100.474304 251.658264,99.450195 262.974579,98.738136 
	C267.289368,98.466652 271.637848,98.526184 275.962311,98.679153 
	C279.354675,98.799141 280.813019,97.558975 280.691101,94.042801 
	C280.251862,81.374130 275.082458,75.069977 259.708221,75.611809 
	C252.378922,75.870117 245.177948,77.611763 238.510635,80.828819 
	C234.994156,82.525558 232.949814,81.894623 231.745270,78.140442 
	C230.942398,75.638191 229.135315,73.492340 228.946976,70.153130 
	C239.771149,64.847839 251.380692,62.760666 263.941254,62.689312 
M257.177429,139.805969 
	C272.440491,138.474548 281.146271,128.719376 280.724182,113.799690 
	C280.620880,110.148140 279.148865,109.209122 275.837860,109.482277 
	C270.708466,109.905441 265.539642,109.893532 260.422638,110.412323 
	C254.316986,111.031357 248.179749,111.815971 242.833618,115.246414 
	C237.716965,118.529610 235.302948,124.194962 236.490936,129.856750 
	C237.592422,135.106277 242.152466,139.005096 248.308853,139.678528 
	C250.936325,139.965942 253.611496,139.817368 257.177429,139.805969 
z"/>
<path fill="#000000" opacity="1.000000" stroke="none" 
	d="
M346.249207,326.330933 
	C338.978729,330.580627 332.258392,329.045410 329.110504,322.720276 
	C326.351166,317.175934 328.836273,310.432831 334.640198,307.716064 
	C338.986603,305.681488 344.533508,307.010162 347.673737,310.837952 
	C351.437469,315.425812 351.087769,320.211029 346.249207,326.330933 
z"/>
<path fill="#000000" opacity="1.000000" stroke="none" 
	d="
M245.886185,374.724487 
	C245.764740,369.118164 248.202286,365.270752 252.861862,363.346893 
	C256.671234,361.773987 260.731293,362.084442 264.084656,364.923737 
	C267.505768,367.820404 269.054108,371.580231 267.882294,376.009644 
	C266.689972,380.516571 263.819794,383.613708 259.043793,384.322235 
	C254.237244,385.035248 250.155579,383.631805 247.556351,379.262939 
	C246.809677,378.007874 246.467621,376.512085 245.886185,374.724487 
z"/>
<path fill="#000000" opacity="1.000000" stroke="none" 
	d="
M200.567581,212.250244 
	C205.208221,217.218857 206.194260,221.518982 203.757645,226.005966 
	C201.397095,230.352859 197.642960,232.671692 192.682526,232.126434 
	C187.749100,231.584152 184.450836,228.643066 183.114502,223.830399 
	C181.870544,219.350479 183.370285,215.569382 186.823608,212.655884 
	C191.071976,209.071671 195.640472,209.329987 200.567581,212.250244 
z"/>
<path fill="#000000" opacity="1.000000" stroke="none" 
	d="
M324.680878,210.928436 
	C330.552521,214.686935 332.625519,219.467361 330.872650,224.501724 
	C329.195679,229.318130 324.026093,232.725082 319.230835,232.174072 
	C313.891571,231.560608 310.103943,227.869644 309.311951,222.508331 
	C308.120636,214.444260 315.577240,208.617310 324.680878,210.928436 
z"/>
<path fill="#000000" opacity="1.000000" stroke="none" 
	d="
M175.838470,239.703400 
	C183.450134,241.528351 187.447235,246.920380 186.012939,252.884201 
	C184.470627,259.297150 178.236374,262.983276 171.852051,261.257111 
	C167.027817,259.952759 163.426147,254.819046 163.902939,249.926727 
	C164.471375,244.094299 168.814606,240.231964 175.838470,239.703400 
z"/>
<path fill="#000000" opacity="1.000000" stroke="none" 
	d="
M348.023224,244.167664 
	C351.099396,248.935440 350.965454,253.332153 347.712891,257.452118 
	C344.913605,260.997833 341.257385,262.409180 336.673431,261.420319 
	C332.066589,260.426514 329.456177,257.542786 328.263855,253.199844 
	C327.002777,248.606537 329.381165,243.538635 333.876404,240.983185 
	C338.436493,238.390869 343.121735,239.354950 348.023224,244.167664 
z"/>
<path fill="#000000" opacity="1.000000" stroke="none" 
	d="
M164.881317,273.675720 
	C171.876328,272.988403 176.074860,275.023224 178.081924,279.815338 
	C180.026688,284.458710 178.714050,289.715363 174.823105,292.865875 
	C170.902588,296.040314 165.473312,296.283630 161.394867,293.237885 
	C153.599411,287.416321 156.032776,276.526947 164.881317,273.675720 
z"/>
<path fill="#000000" opacity="1.000000" stroke="none" 
	d="
M353.795532,276.154053 
	C357.934326,281.573029 358.398865,285.711853 355.627228,290.149628 
	C353.035553,294.299286 348.282654,296.342896 343.541718,295.074524 
	C338.690460,293.776611 335.918671,290.398743 335.293976,285.487885 
	C334.714966,280.936340 336.632660,277.310486 340.484650,274.933319 
	C344.968109,272.166443 349.361847,272.900665 353.795532,276.154053 
z"/>
<path fill="#000000" opacity="1.000000" stroke="none" 
	d="
M179.600403,327.974213 
	C172.390442,330.091644 166.943985,327.633545 164.642166,321.557007 
	C162.596817,316.157532 165.361801,310.115631 171.025833,307.607666 
	C175.928558,305.436798 182.127472,307.644806 184.766373,312.501984 
	C187.846008,318.170410 186.144348,323.582489 179.600403,327.974213 
z"/>
<path fill="#000000" opacity="1.000000" stroke="none" 
	d="
M301.697632,366.850769 
	C300.178162,373.994110 296.555603,377.312012 290.658081,377.321808 
	C285.643707,377.330139 281.052368,373.894073 279.899445,369.270172 
	C278.580261,363.979462 281.046967,358.702026 285.934326,356.329895 
	C292.350647,353.215668 301.887543,357.229279 301.697632,366.850769 
z"/>
<path fill="#000000" opacity="1.000000" stroke="none" 
	d="
M281.356171,208.295685 
	C276.368591,198.893417 283.597137,191.388962 290.251282,191.290665 
	C295.296509,191.216156 299.674652,194.113174 301.067932,198.509903 
	C302.633698,203.451126 301.008575,208.511505 296.960114,211.300720 
	C292.652954,214.268173 287.723389,214.105087 283.615173,210.791992 
	C282.851654,210.176239 282.258392,209.349319 281.356171,208.295685 
z"/>
<path fill="#000000" opacity="1.000000" stroke="none" 
	d="
M260.186584,205.677582 
	C253.591019,206.597366 248.884766,204.194260 246.797836,199.186035 
	C244.885468,194.596741 246.366287,189.322159 250.410767,186.317017 
	C255.529800,182.513489 263.289154,183.935593 266.513062,189.268158 
	C270.214691,195.390915 267.865540,201.804962 260.186584,205.677582 
z"/>
<path fill="#000000" opacity="1.000000" stroke="none" 
	d="
M310.267853,352.402710 
	C308.120148,346.988586 309.029785,342.516693 313.233551,339.030518 
	C316.920837,335.972717 321.215485,335.738739 325.410492,337.763458 
	C329.756287,339.860931 331.567749,343.730194 331.278290,348.434662 
	C330.980225,353.279572 328.074066,356.436462 323.716980,358.025513 
	C318.731750,359.843567 314.370605,357.937988 310.267853,352.402710 
z"/>
<path fill="#000000" opacity="1.000000" stroke="none" 
	d="
M216.670197,357.609192 
	C222.625214,354.136475 228.651108,354.938019 232.140121,359.393036 
	C235.599411,363.810120 235.111435,370.480957 231.046478,374.343658 
	C227.047195,378.143890 220.967453,378.383453 216.463181,374.918213 
	C211.342407,370.978760 211.299271,363.732300 216.670197,357.609192 
z"/>
<path fill="#000000" opacity="1.000000" stroke="none" 
	d="
M231.158981,210.154724 
	C224.473557,214.808853 218.117798,214.096497 214.359146,208.580566 
	C210.954285,203.583862 212.258026,196.776291 217.308411,193.180939 
	C221.390228,190.275055 227.847321,190.912323 231.430298,194.574692 
	C235.362579,198.594070 235.365692,204.286667 231.158981,210.154724 
z"/>
<path fill="#000000" opacity="1.000000" stroke="none" 
	d="
M183.138763,350.315460 
	C182.480957,343.154449 185.569534,338.064392 190.969894,336.806061 
	C196.451691,335.528687 202.179260,338.337280 204.111588,343.250214 
	C206.369171,348.990143 203.718643,355.338623 198.083710,357.688141 
	C192.229446,360.129120 186.383911,357.371918 183.138763,350.315460 
z"/>
</svg>