<svg version="1.1" id="Layer_1" xmlns="http://www.w3.org/2000/svg" xmlns:xlink="http://www.w3.org/1999/xlink" x="0px" y="0px"
	 width="100%" viewBox="0 0 512 512" enable-background="new 0 0 512 512" xml:space="preserve">
<path fill="#000000" opacity="1.000000" stroke="none" 
	d="
M269.834045,67.550873 
	C269.906891,93.788551 269.875336,119.581032 270.015045,145.372574 
	C270.038574,149.714798 268.875183,151.626617 264.068054,151.456955 
	C250.373795,150.973633 252.183182,153.273087 252.121597,139.519623 
	C252.020264,116.888992 252.051636,94.257706 252.055679,71.626694 
	C252.056931,64.609955 252.231461,64.161385 259.316223,64.287392 
	C262.861755,64.350449 267.481628,61.922890 269.834045,67.550873 
z"/>
<path fill="#000000" opacity="1.000000" stroke="none" 
	d="
M329.415222,323.268127 
	C326.868042,316.534882 328.383972,311.415741 333.543396,308.312744 
	C338.101074,305.571564 344.002533,306.555756 347.512421,310.642334 
	C351.658569,315.469727 350.960999,322.648102 345.966553,326.550079 
	C340.529572,330.797791 334.399200,329.691895 329.415222,323.268127 
z"/>
<path fill="#000000" opacity="1.000000" stroke="none" 
	d="
M257.007568,362.635437 
	C264.233734,363.377838 268.521912,367.851227 268.244537,373.915558 
	C267.970764,379.899872 263.158081,384.448212 257.104462,384.443726 
	C250.950439,384.439148 246.175156,380.049164 245.818863,374.068665 
	C245.471832,368.243439 250.010681,363.419312 257.007568,362.635437 
z"/>
<path fill="#000000" opacity="1.000000" stroke="none" 
	d="
M356.815186,280.782776 
	C357.739807,287.977142 355.456024,292.606567 350.304474,294.682709 
	C345.936157,296.443176 340.586792,295.018341 337.666992,291.316620 
	C333.574677,286.128387 334.695038,278.734558 340.123566,275.104980 
	C346.021790,271.161255 352.861908,273.352386 356.815186,280.782776 
z"/>
<path fill="#000000" opacity="1.000000" stroke="none" 
	d="
M169.479065,273.496216 
	C176.414062,275.328247 180.160141,280.561035 178.910889,286.198730 
	C177.609329,292.072479 172.315445,295.942780 166.497604,295.273895 
	C160.707870,294.608215 156.372787,289.372528 156.728134,283.474884 
	C157.098053,277.335846 161.894348,273.439697 169.479065,273.496216 
z"/>
<path fill="#000000" opacity="1.000000" stroke="none" 
	d="
M204.825378,219.497864 
	C204.811096,226.956665 200.851593,231.720490 194.671036,232.232529 
	C189.165176,232.688675 183.904404,228.572479 182.861099,222.992065 
	C181.816650,217.405533 185.592270,211.814316 191.444138,210.281647 
	C197.260483,208.758270 202.486191,212.234558 204.825378,219.497864 
z"/>
<path fill="#000000" opacity="1.000000" stroke="none" 
	d="
M313.314819,229.871017 
	C308.591766,224.276154 307.840942,219.733795 310.990173,215.239288 
	C313.734650,211.322433 317.395874,209.069534 322.462494,210.281082 
	C329.025513,211.850449 332.852234,218.082565 330.990204,224.193100 
	C329.113983,230.350220 322.552734,233.585892 316.289673,231.402893 
	C315.362305,231.079651 314.508301,230.545944 313.314819,229.871017 
z"/>
<path fill="#000000" opacity="1.000000" stroke="none" 
	d="
M176.666351,239.761017 
	C184.026123,242.203613 187.498322,247.464264 185.925568,253.201996 
	C184.257477,259.287506 178.603088,262.728912 172.511047,261.366333 
	C167.260956,260.192047 163.466949,255.240646 163.875565,250.096497 
	C164.368027,243.896469 169.172501,239.868195 176.666351,239.761017 
z"/>
<path fill="#000000" opacity="1.000000" stroke="none" 
	d="
M328.412750,247.821899 
	C331.405243,241.493469 335.136719,239.091141 340.510590,239.742081 
	C345.253174,240.316544 349.064240,243.885422 350.064331,248.688629 
	C350.980743,253.089767 348.549805,258.067871 344.273468,260.438812 
	C340.393707,262.589874 336.422638,262.251526 332.924896,259.900330 
	C328.876617,257.179077 327.080261,253.190109 328.412750,247.821899 
z"/>
<path fill="#000000" opacity="1.000000" stroke="none" 
	d="
M170.354950,307.920959 
	C177.841675,305.511505 183.728287,308.335663 185.759735,314.956421 
	C187.557327,320.815033 183.810516,327.040863 177.473770,328.724640 
	C171.809662,330.229706 165.654312,326.423645 164.247955,320.256744 
	C163.010971,314.832489 165.500320,310.935516 170.354950,307.920959 
z"/>
<path fill="#000000" opacity="1.000000" stroke="none" 
	d="
M260.238037,205.746033 
	C253.225311,206.600266 248.538223,204.084351 246.603745,198.780777 
	C244.894791,194.095520 246.592438,188.890839 250.760010,186.038391 
	C255.580444,182.739044 262.485229,183.810532 265.941772,188.394272 
	C269.538910,193.164383 268.753235,199.751282 264.040314,203.591599 
	C263.027008,204.417267 261.762756,204.934998 260.238037,205.746033 
z"/>
<path fill="#000000" opacity="1.000000" stroke="none" 
	d="
M298.804504,209.814789 
	C292.654358,214.298691 287.529602,214.424149 283.210022,210.479248 
	C279.425964,207.023422 278.454468,201.678055 280.810852,197.278778 
	C283.911041,191.490891 291.097839,189.528915 296.685486,192.945084 
	C302.153778,196.288300 303.138367,203.166885 298.804504,209.814789 
z"/>
<path fill="#000000" opacity="1.000000" stroke="none" 
	d="
M300.138000,371.932220 
	C296.846802,376.838470 292.428650,378.401855 287.330414,376.866333 
	C282.889771,375.528900 280.090515,372.295654 279.680542,367.395416 
	C279.256287,362.324829 281.417267,358.623352 285.862549,356.420532 
	C290.138580,354.301544 294.336639,354.980286 297.991455,357.956848 
	C301.791016,361.051300 302.507721,365.841003 300.138000,371.932220 
z"/>
<path fill="#000000" opacity="1.000000" stroke="none" 
	d="
M321.748138,336.695251 
	C328.899384,338.649567 332.486908,343.926208 331.176147,349.967255 
	C330.002716,355.375580 324.623108,359.016479 318.750214,358.377014 
	C313.152222,357.767517 308.765594,352.599457 309.064423,346.965790 
	C309.398499,340.668640 313.955109,336.842621 321.748138,336.695251 
z"/>
<path fill="#000000" opacity="1.000000" stroke="none" 
	d="
M231.725494,209.600891 
	C225.939758,214.196671 220.722809,214.456421 216.175354,210.663208 
	C212.549454,207.638748 211.430679,201.925201 213.594147,197.481003 
	C216.503632,191.504333 223.298157,189.509293 229.217056,192.893646 
	C234.862137,196.121445 235.991653,202.825424 231.725494,209.600891 
z"/>
<path fill="#000000" opacity="1.000000" stroke="none" 
	d="
M219.986099,355.721191 
	C226.895081,354.724518 231.403076,356.844360 233.571320,361.844116 
	C235.531494,366.364044 234.204941,371.829224 230.400742,374.906555 
	C226.371826,378.165588 220.902267,378.116089 216.555939,375.025055 
	C210.868164,370.979980 210.728012,359.276794 219.986099,355.721191 
z"/>
<path fill="#000000" opacity="1.000000" stroke="none" 
	d="
M204.355377,350.970215 
	C200.296173,360.892151 188.833542,359.799255 184.832275,353.919220 
	C181.839035,349.520508 182.085022,344.098969 185.607590,340.128082 
	C188.794449,336.535645 194.366577,335.511871 198.821991,337.700134 
	C203.746384,340.118744 205.689438,344.561249 204.355377,350.970215 
z"/>
<path fill="#000000" opacity="1.000000" stroke="none" 
	d="
M251.608154,45.091015 
	C250.560440,40.134899 251.065811,35.929031 255.490601,33.428303 
	C259.525543,31.147890 263.916504,30.878191 267.644745,33.998173 
	C271.193085,36.967628 271.689240,41.062702 270.305450,45.367668 
	C269.101440,49.113255 266.416504,51.033592 262.545471,51.293705 
	C257.736542,51.616852 253.528015,50.750114 251.608154,45.091015 
z"/>
</svg>