<svg version="1.1" id="Layer_1" xmlns="http://www.w3.org/2000/svg" xmlns:xlink="http://www.w3.org/1999/xlink" x="0px" y="0px"
	 width="100%" viewBox="0 0 512 512" enable-background="new 0 0 512 512" xml:space="preserve">
<path fill="#000000" opacity="1.000000" stroke="none" 
	d="
M226.766998,75.804504 
	C242.206482,58.068851 286.583038,56.165325 301.027527,83.650696 
	C310.403809,101.492096 308.566132,131.969940 289.719177,144.886322 
	C269.833069,158.514862 228.509064,157.454773 218.533051,124.638214 
	C213.254486,107.274109 214.765106,90.762711 226.766998,75.804504 
M272.925232,137.580551 
	C280.239075,134.264725 284.591797,128.537888 286.754944,120.906181 
	C289.612793,110.823555 289.442108,100.830002 285.603577,91.095657 
	C282.032349,82.039253 274.920959,77.245331 265.382233,76.392540 
	C254.403198,75.410973 243.886017,76.937607 238.363892,87.937744 
	C231.988129,100.638329 232.005081,114.116600 238.002686,126.908226 
	C243.566132,138.773849 257.004272,142.612564 272.925232,137.580551 
z"/>
<path fill="#000000" opacity="1.000000" stroke="none" 
	d="
M332.401184,326.770203 
	C327.612518,321.554230 326.691101,317.712341 329.131714,313.115845 
	C331.317474,308.999298 334.720856,306.578461 339.541016,306.768219 
	C344.386658,306.959015 348.383148,310.161591 349.793182,314.839935 
	C351.139618,319.307281 349.686066,323.165924 346.436218,326.092194 
	C342.260376,329.852203 337.507965,330.029663 332.401184,326.770203 
z"/>
<path fill="#000000" opacity="1.000000" stroke="none" 
	d="
M251.461487,363.987061 
	C258.582825,361.336517 264.034851,362.939453 266.847260,368.194000 
	C269.507416,373.164093 268.191650,379.062500 263.684937,382.370483 
	C258.923065,385.865753 252.170242,385.090729 248.460388,380.623138 
	C244.110565,375.384918 245.074371,369.441925 251.461487,363.987061 
z"/>
<path fill="#000000" opacity="1.000000" stroke="none" 
	d="
M200.570923,212.245316 
	C205.210068,217.221359 206.194016,221.519669 203.756363,226.005783 
	C201.394562,230.352341 197.640244,232.674011 192.678757,232.126892 
	C187.745789,231.582932 184.442200,228.642151 183.108658,223.828094 
	C181.867996,219.349335 183.366547,215.565857 186.823349,212.651718 
	C191.074173,209.068237 195.642487,209.326996 200.570923,212.245316 
z"/>
<path fill="#000000" opacity="1.000000" stroke="none" 
	d="
M320.824829,209.942078 
	C329.794983,210.828842 333.167755,219.787354 330.454498,225.422485 
	C328.218658,230.066101 323.390656,232.863052 318.725677,232.104782 
	C313.576050,231.267731 310.076721,227.698822 309.310577,222.502457 
	C308.609985,217.750916 311.338745,212.954483 316.099213,210.899460 
	C317.438019,210.321503 318.979156,210.212265 320.824829,209.942078 
z"/>
<path fill="#000000" opacity="1.000000" stroke="none" 
	d="
M165.674194,244.949860 
	C169.117630,240.271774 173.368423,238.587448 178.585754,240.231949 
	C183.184860,241.681580 185.729568,245.176559 186.165558,249.834122 
	C186.589020,254.357651 184.432602,257.909088 180.536774,260.211456 
	C176.179001,262.786835 171.861328,262.221771 167.978989,259.222534 
	C163.848755,256.031799 163.095001,251.156311 165.674194,244.949860 
z"/>
<path fill="#000000" opacity="1.000000" stroke="none" 
	d="
M329.694061,244.962280 
	C333.121826,240.264145 337.363220,238.593903 342.588104,240.231979 
	C346.977203,241.608002 349.518646,244.895111 350.107666,249.340973 
	C350.736023,254.084030 348.593658,257.795074 344.545502,260.221161 
	C340.203552,262.823364 335.871155,262.218140 331.994446,259.224945 
	C327.858856,256.031891 327.107697,251.148697 329.694061,244.962280 
z"/>
<path fill="#000000" opacity="1.000000" stroke="none" 
	d="
M172.002411,294.580536 
	C166.443375,296.234131 162.017807,295.041443 158.826065,290.614319 
	C156.303650,287.115601 155.862823,283.239929 157.962097,279.313080 
	C160.357391,274.832428 164.607971,272.755951 169.619125,273.525024 
	C174.712692,274.306793 177.975113,277.345062 178.836212,282.616699 
	C179.734146,288.113861 176.997223,291.827972 172.002411,294.580536 
z"/>
<path fill="#000000" opacity="1.000000" stroke="none" 
	d="
M344.390747,295.239929 
	C337.252441,292.638702 334.121277,287.788300 335.461273,282.012909 
	C336.765106,276.393341 341.653717,272.777710 347.136749,273.377655 
	C353.460876,274.069641 357.531219,278.608856 357.322784,284.736969 
	C357.102234,291.220642 352.357361,295.218506 344.390747,295.239929 
z"/>
<path fill="#000000" opacity="1.000000" stroke="none" 
	d="
M173.436401,328.907410 
	C165.059036,325.924957 161.749954,319.458832 165.202957,313.033936 
	C167.507950,308.745148 171.184494,306.313904 176.241470,306.838623 
	C181.252045,307.358459 185.141907,311.142059 186.101944,316.107239 
	C186.946640,320.475800 184.366043,325.507629 180.069962,327.713348 
	C178.126144,328.711395 176.074402,329.387817 173.436401,328.907410 
z"/>
<path fill="#000000" opacity="1.000000" stroke="none" 
	d="
M285.358582,376.088318 
	C279.916168,371.692719 278.351593,367.299164 280.214233,362.447083 
	C281.902435,358.049438 286.593048,354.964539 291.171143,355.301910 
	C295.695099,355.635345 299.217499,357.690613 300.853363,361.993256 
	C302.505829,366.339539 301.982605,370.625610 298.570557,374.018433 
	C294.899597,377.668732 290.493866,378.338898 285.358582,376.088318 
z"/>
<path fill="#000000" opacity="1.000000" stroke="none" 
	d="
M279.738892,200.391174 
	C282.317841,193.669708 286.116760,190.901169 291.548889,191.394119 
	C296.784851,191.869263 300.427948,194.997421 301.313568,199.778534 
	C302.569580,206.559372 298.524139,212.509003 292.146759,213.260132 
	C284.785828,214.127106 279.798492,209.137390 279.738892,200.391174 
z"/>
<path fill="#000000" opacity="1.000000" stroke="none" 
	d="
M264.814972,187.162689 
	C268.891449,192.828751 269.285065,196.721832 266.215637,201.153976 
	C263.658081,204.847000 260.056793,206.854065 255.521744,206.030563 
	C250.492432,205.117310 247.148331,202.026489 246.121765,196.918396 
	C245.204834,192.355850 247.144516,188.750259 250.737747,186.118103 
	C255.465347,182.655014 260.099518,183.693802 264.814972,187.162689 
z"/>
<path fill="#000000" opacity="1.000000" stroke="none" 
	d="
M325.848541,357.032379 
	C318.632355,359.794464 312.419525,357.635864 310.001099,351.837006 
	C307.682861,346.278442 310.044037,340.196106 315.538727,337.571960 
	C320.400360,335.250183 326.417480,336.801819 329.313171,341.124023 
	C332.917999,346.504883 331.822174,351.985931 325.848541,357.032379 
z"/>
<path fill="#000000" opacity="1.000000" stroke="none" 
	d="
M225.331696,355.519775 
	C230.633316,356.669464 233.608429,359.656555 234.295151,364.664581 
	C234.972946,369.607574 233.115967,373.477325 228.767517,375.960938 
	C224.766159,378.246307 220.802551,377.794617 217.043198,375.280029 
	C212.988480,372.567902 211.391876,367.240570 213.133698,362.435669 
	C214.859299,357.675537 219.096832,355.169861 225.331696,355.519775 
z"/>
<path fill="#000000" opacity="1.000000" stroke="none" 
	d="
M230.283630,193.567413 
	C234.653809,197.483765 235.547623,202.044815 233.402069,206.863663 
	C231.424698,211.304764 227.710617,213.627869 222.641617,213.294281 
	C216.239441,212.872925 212.075180,207.714508 212.676880,200.946518 
	C213.216034,194.881851 218.695312,190.695389 224.874435,191.513367 
	C226.735962,191.759781 228.377716,192.426331 230.283630,193.567413 
z"/>
<path fill="#000000" opacity="1.000000" stroke="none" 
	d="
M183.138824,350.315552 
	C182.481918,343.152710 185.568481,338.066193 190.969788,336.806824 
	C196.451599,335.528687 202.175674,338.335693 204.110672,343.250916 
	C206.369598,348.988953 203.718307,355.338959 198.082962,357.687592 
	C192.227234,360.128113 186.384003,357.372070 183.138824,350.315552 
z"/>
</svg>