<svg version="1.1" id="Layer_1" xmlns="http://www.w3.org/2000/svg" xmlns:xlink="http://www.w3.org/1999/xlink" x="0px" y="0px"
	 width="100%" viewBox="0 0 512 512" enable-background="new 0 0 512 512" xml:space="preserve">
<path fill="#000000" opacity="1.000000" stroke="none" 
	d="
M218.829468,87.000107 
	C218.842163,80.669182 218.930420,74.837013 218.838226,69.007706 
	C218.789169,65.907394 220.106064,64.630569 223.188721,64.246727 
	C235.053497,62.769394 236.344650,63.798122 236.345688,75.524612 
	C236.346909,89.352554 236.269165,103.181221 236.399246,117.007942 
	C236.431885,120.477684 236.786789,124.022575 237.589493,127.390915 
	C239.357040,134.807922 244.793594,138.465118 251.913223,139.426315 
	C257.860077,140.229172 263.850037,139.934967 269.649872,137.827377 
	C279.236786,134.343613 284.485199,125.610306 284.620087,112.007729 
	C284.758850,98.014503 284.784119,84.017281 284.593353,70.025429 
	C284.537811,65.953232 285.836578,64.609070 289.963593,64.447624 
	C302.292114,63.965324 302.286194,63.783283 302.288269,75.833809 
	C302.292145,98.491646 302.298157,121.149490 302.295441,143.807327 
	C302.294525,151.358795 302.283600,151.358856 294.523865,151.365143 
	C294.024078,151.365555 293.517792,151.311340 293.025482,151.371765 
	C289.032013,151.861908 286.576172,150.599609 286.533264,146.102890 
	C286.521362,144.854370 285.836914,143.612259 285.309906,141.866776 
	C274.087708,151.901093 261.029968,154.452682 246.962906,152.527939 
	C227.209320,149.825104 219.246246,140.676102 218.879974,120.486366 
	C218.680573,109.494247 218.835129,98.495705 218.829468,87.000107 
z"/>
<path fill="#000000" opacity="1.000000" stroke="none" 
	d="
M347.483093,310.616699 
	C351.005737,315.282135 351.173859,319.784576 348.049347,324.244354 
	C345.583344,327.764130 342.042755,329.567963 337.770386,328.934326 
	C332.952484,328.219788 329.674194,325.369843 328.286682,320.574402 
	C327.036743,316.254303 329.090485,311.232666 333.192902,308.551331 
	C337.668060,305.626343 342.000000,306.173096 347.483093,310.616699 
z"/>
<path fill="#000000" opacity="1.000000" stroke="none" 
	d="
M253.297638,384.015686 
	C247.225769,380.555542 244.796570,375.916504 246.174393,370.973633 
	C247.542542,366.065521 251.721939,362.732391 256.630524,362.634766 
	C263.241272,362.503265 268.282471,367.215454 268.259674,373.504974 
	C268.236847,379.808594 263.234283,384.516357 256.621277,384.421570 
	C255.632187,384.407379 254.645294,384.238678 253.297638,384.015686 
z"/>
<path fill="#000000" opacity="1.000000" stroke="none" 
	d="
M183.514969,224.983612 
	C181.862534,217.374496 185.250168,211.598831 191.848969,210.161911 
	C197.224045,208.991470 202.797592,212.554504 204.433685,218.207016 
	C206.140808,224.104950 202.856796,229.914490 196.740158,231.817215 
	C191.775360,233.361633 186.956696,230.985382 183.514969,224.983612 
z"/>
<path fill="#000000" opacity="1.000000" stroke="none" 
	d="
M309.188171,220.240997 
	C310.835785,214.025208 314.868958,210.147003 319.607910,209.886520 
	C324.220428,209.632980 328.854553,212.661575 330.597168,217.068512 
	C332.898590,222.888672 329.837280,229.360626 323.728485,231.589645 
	C318.231171,233.595535 311.913116,230.636688 309.945374,225.020142 
	C309.458771,223.631256 309.395142,222.094193 309.188171,220.240997 
z"/>
<path fill="#000000" opacity="1.000000" stroke="none" 
	d="
M186.209457,251.732239 
	C184.397369,261.389771 174.200714,264.656403 167.764877,259.008514 
	C164.273758,255.944824 162.867416,251.938049 164.604996,247.288315 
	C166.266190,242.842972 169.389786,240.091675 174.177643,239.731812 
	C179.148148,239.358185 182.882706,241.514420 185.100662,246.024765 
	C185.908249,247.667084 186.455627,249.431046 186.209457,251.732239 
z"/>
<path fill="#000000" opacity="1.000000" stroke="none" 
	d="
M345.476654,259.624573 
	C338.851898,263.098480 332.709259,261.741241 329.542603,256.396393 
	C326.573914,251.385727 327.880310,245.263474 332.661346,241.780731 
	C337.323761,238.384399 343.840363,239.139252 347.509979,243.500732 
	C351.694122,248.473755 351.100525,253.939804 345.476654,259.624573 
z"/>
<path fill="#000000" opacity="1.000000" stroke="none" 
	d="
M177.918182,279.473511 
	C179.905045,286.575439 178.101532,291.396912 172.708252,294.214081 
	C168.445206,296.440857 162.781036,295.309265 159.528198,291.581024 
	C155.268661,286.698975 155.921997,279.701385 161.015747,275.648743 
	C166.301926,271.442993 173.251007,272.883362 177.918182,279.473511 
z"/>
<path fill="#000000" opacity="1.000000" stroke="none" 
	d="
M346.731049,273.308136 
	C354.191956,274.795654 357.781494,278.967560 357.312683,285.227417 
	C356.901337,290.720581 352.296143,295.139313 346.795807,295.318451 
	C340.796112,295.513885 336.281525,291.759979 335.308777,285.766846 
	C334.271179,279.374176 338.746277,274.298706 346.731049,273.308136 
z"/>
<path fill="#000000" opacity="1.000000" stroke="none" 
	d="
M169.060608,327.174255 
	C163.938995,322.441711 162.695435,318.474548 164.881348,313.733429 
	C166.933838,309.281677 170.449432,306.669373 175.480240,306.780457 
	C180.498184,306.891235 184.585403,310.376709 185.891663,315.376556 
	C187.025284,319.715637 185.501572,323.375305 182.327240,326.154663 
	C178.440933,329.557465 174.000305,330.083160 169.060608,327.174255 
z"/>
<path fill="#000000" opacity="1.000000" stroke="none" 
	d="
M287.122742,355.831207 
	C292.480408,354.638672 296.851013,355.631775 299.770142,360.063324 
	C302.355591,363.988251 302.505951,368.207916 299.912292,372.262604 
	C297.312714,376.326569 293.438110,377.956696 288.760834,377.203430 
	C284.031738,376.441833 280.968719,373.459625 279.860901,368.859222 
	C278.529755,363.331268 280.752472,359.436981 287.122742,355.831207 
z"/>
<path fill="#000000" opacity="1.000000" stroke="none" 
	d="
M250.368530,203.831451 
	C245.528412,198.639450 244.705032,194.900894 247.243942,190.155777 
	C249.481293,185.974243 253.001572,183.670853 257.790710,184.076187 
	C263.105255,184.525955 266.888947,187.909973 267.952118,192.930405 
	C268.912048,197.463455 267.159393,201.116547 263.643463,203.893097 
	C259.423798,207.225342 255.040390,206.830399 250.368530,203.831451 
z"/>
<path fill="#000000" opacity="1.000000" stroke="none" 
	d="
M299.695129,208.583008 
	C296.048126,213.144363 291.637085,214.492065 286.610962,212.557556 
	C282.459167,210.959534 279.959167,207.772507 279.670288,203.098877 
	C279.369629,198.235107 281.474701,194.682190 285.681091,192.537430 
	C290.106964,190.280777 294.459106,190.949875 298.195038,194.145035 
	C302.021881,197.418015 302.546143,202.743393 299.695129,208.583008 
z"/>
<path fill="#000000" opacity="1.000000" stroke="none" 
	d="
M309.717682,350.962769 
	C308.445557,344.092224 311.218597,338.796600 316.721771,337.026337 
	C322.327728,335.223022 328.045105,337.788544 330.377533,343.153992 
	C332.709167,348.517700 330.687164,354.351288 325.492889,357.246582 
	C319.711182,360.469330 313.598450,358.167206 309.717682,350.962769 
z"/>
<path fill="#000000" opacity="1.000000" stroke="none" 
	d="
M234.346786,202.049515 
	C233.644730,209.471420 229.160034,213.655945 222.753784,213.295761 
	C216.874100,212.965195 212.693283,208.527267 212.638397,202.558304 
	C212.583313,196.568832 216.689835,191.757095 222.265976,191.277374 
	C228.704025,190.723511 233.332153,194.688660 234.346786,202.049515 
z"/>
<path fill="#000000" opacity="1.000000" stroke="none" 
	d="
M231.736725,373.610901 
	C225.936676,378.199402 220.716919,378.462677 216.163956,374.685608 
	C212.563950,371.699097 211.444626,365.922974 213.606125,361.486359 
	C216.531677,355.481476 223.357666,353.464691 229.222061,356.872528 
	C234.862122,360.149963 235.993576,366.864716 231.736725,373.610901 
z"/>
<path fill="#000000" opacity="1.000000" stroke="none" 
	d="
M189.152374,357.392365 
	C183.536880,353.634216 181.633026,349.098511 183.315353,344.226776 
	C185.160019,338.884857 189.551514,336.113556 195.272034,336.681335 
	C200.263046,337.176727 203.924438,340.714417 204.878677,345.963470 
	C206.355331,354.086243 198.612671,359.928162 189.152374,357.392365 
z"/>
</svg>