<svg version="1.1" id="Layer_1" xmlns="http://www.w3.org/2000/svg" xmlns:xlink="http://www.w3.org/1999/xlink" x="0px" y="0px"
	 width="100%" viewBox="0 0 512 512" enable-background="new 0 0 512 512" xml:space="preserve">
<path fill="#000000" opacity="1.000000" stroke="none" 
	d="
M284.752441,152.175217 
	C274.156616,153.657364 264.095306,153.695602 254.174561,150.493988 
	C239.244904,145.675919 229.139893,133.023956 227.636734,117.439728 
	C226.945847,110.276833 226.645981,103.156807 228.056641,96.077393 
	C231.645538,78.066483 242.661087,67.419983 260.553894,63.874203 
	C272.046997,61.596649 283.406982,62.637005 294.644379,65.749870 
	C298.041779,66.690987 299.205719,68.051483 297.635681,71.781509 
	C294.003448,80.410805 294.208557,80.475517 285.363342,78.322784 
	C280.508820,77.141312 275.628296,76.161819 270.576660,76.347351 
	C257.617645,76.823326 248.731674,84.458000 246.264786,97.247414 
	C244.862396,104.518120 244.734192,111.776825 246.278259,119.036247 
	C249.591766,134.614670 260.438690,139.972626 274.422638,139.408981 
	C280.735138,139.154556 286.973755,137.871948 292.920258,135.523102 
	C294.000092,135.096588 295.108704,134.651260 296.608917,135.381195 
	C298.018738,138.829742 297.224823,142.648087 297.196716,146.388565 
	C297.183105,148.199203 295.686066,148.904205 294.251434,149.375214 
	C291.252075,150.359894 288.209381,151.212616 284.752441,152.175217 
z"/>
<path fill="#000000" opacity="1.000000" stroke="none" 
	d="
M341.359558,328.776428 
	C333.637482,329.155609 328.612640,325.315796 327.902710,318.899475 
	C327.326263,313.689270 331.688782,307.945831 337.024017,306.891052 
	C342.433411,305.821564 348.068359,309.308594 349.788025,314.789612 
	C351.566803,320.459045 348.469879,325.798065 341.359558,328.776428 
z"/>
<path fill="#000000" opacity="1.000000" stroke="none" 
	d="
M246.820969,369.242737 
	C251.067215,362.820648 256.137054,360.949951 261.725372,363.436584 
	C266.391235,365.512756 269.124176,370.858734 268.002655,375.715729 
	C266.525604,382.112427 260.407990,385.790741 253.913864,384.186798 
	C247.896042,382.700439 244.799728,376.472626 246.820969,369.242737 
z"/>
<path fill="#000000" opacity="1.000000" stroke="none" 
	d="
M184.415192,311.904846 
	C187.594055,319.592560 185.396637,325.693146 178.847412,328.278198 
	C173.019897,330.578369 166.645828,327.413818 164.501175,321.155640 
	C162.887924,316.448120 165.032043,311.038788 169.598602,308.295532 
	C174.465164,305.372070 179.463608,306.492676 184.415192,311.904846 
z"/>
<path fill="#000000" opacity="1.000000" stroke="none" 
	d="
M357.321747,284.854919 
	C355.693176,292.102936 352.126678,295.345032 346.258148,295.323761 
	C340.819824,295.304047 336.827026,292.097839 335.528961,286.708282 
	C334.362122,281.863525 336.623169,276.908722 341.094452,274.512238 
	C348.430817,270.580139 356.360046,275.426849 357.321747,284.854919 
z"/>
<path fill="#000000" opacity="1.000000" stroke="none" 
	d="
M328.496765,213.607666 
	C331.957214,218.240555 332.553772,222.776489 329.302490,227.287842 
	C326.433258,231.269089 322.541473,233.106873 317.546265,231.827194 
	C312.590149,230.557526 309.910614,227.182220 309.281677,222.289886 
	C308.663879,217.484375 310.900726,213.885361 314.959991,211.480774 
	C319.810638,208.607391 324.200745,209.862259 328.496765,213.607666 
z"/>
<path fill="#000000" opacity="1.000000" stroke="none" 
	d="
M177.335770,261.492615 
	C170.210007,261.727081 166.593277,259.643829 164.658691,254.490051 
	C162.841827,249.649902 164.330780,245.625046 167.962158,242.348907 
	C171.625275,239.044083 176.775513,238.687378 180.939178,241.314194 
	C184.616882,243.634476 186.584717,247.137604 186.160645,251.419846 
	C185.658081,256.494598 182.747650,259.956604 177.335770,261.492615 
z"/>
<path fill="#000000" opacity="1.000000" stroke="none" 
	d="
M349.491394,246.967758 
	C351.003693,254.157669 347.913513,259.766724 341.895935,261.386078 
	C336.283630,262.896362 330.683502,259.969788 328.642273,254.459808 
	C326.673737,249.146011 329.137604,243.322571 334.474731,240.674545 
	C340.003845,237.931305 345.694855,240.193054 349.491394,246.967758 
z"/>
<path fill="#000000" opacity="1.000000" stroke="none" 
	d="
M161.128235,293.092651 
	C156.931473,289.168793 155.370560,284.799377 157.768600,279.784790 
	C159.883224,275.362823 163.532257,272.972168 168.628494,273.361481 
	C173.181000,273.709320 176.450745,275.891663 178.210587,280.202881 
	C180.080566,284.784027 178.884201,288.800598 175.608246,292.115509 
	C172.269806,295.493683 168.151154,296.307343 163.659821,294.472198 
	C162.894165,294.159332 162.185944,293.705902 161.128235,293.092651 
z"/>
<path fill="#000000" opacity="1.000000" stroke="none" 
	d="
M182.746857,220.185089 
	C184.585373,213.718964 188.377640,210.152924 193.243729,209.923309 
	C197.918640,209.702744 202.560440,212.776566 204.168610,217.157822 
	C206.402847,223.244705 203.510818,229.300476 197.277710,231.587082 
	C191.605179,233.668060 185.387421,230.543610 183.364349,224.500702 
	C182.951126,223.266342 182.928085,221.901352 182.746857,220.185089 
z"/>
<path fill="#000000" opacity="1.000000" stroke="none" 
	d="
M286.847961,212.749573 
	C280.474030,208.945297 278.328033,204.451141 279.996063,199.026520 
	C281.471252,194.229126 286.453766,190.934250 291.541321,191.391785 
	C297.791931,191.953888 301.853485,196.486359 301.700256,202.728531 
	C301.555878,208.609879 296.757446,213.237701 290.674133,213.288757 
	C289.525269,213.298386 288.374146,213.043854 286.847961,212.749573 
z"/>
<path fill="#000000" opacity="1.000000" stroke="none" 
	d="
M287.865234,355.642975 
	C293.318359,354.740570 297.586487,356.083405 300.180145,360.706970 
	C302.360321,364.593384 302.381744,368.661835 299.771210,372.487885 
	C297.173553,376.295135 293.499786,377.778412 288.987244,377.259918 
	C284.600311,376.755829 280.529480,372.897980 279.779877,368.607635 
	C278.756805,362.752380 281.115509,358.808685 287.865234,355.642975 
z"/>
<path fill="#000000" opacity="1.000000" stroke="none" 
	d="
M252.399872,205.035553 
	C246.624710,201.116364 244.745407,196.705322 246.495483,191.856232 
	C248.249207,186.997040 252.961639,183.602432 257.435333,183.975708 
	C262.804413,184.423691 266.868530,187.910690 268.012756,193.051163 
	C269.871399,201.401031 261.670227,207.935318 252.399872,205.035553 
z"/>
<path fill="#000000" opacity="1.000000" stroke="none" 
	d="
M309.064514,347.888062 
	C310.460114,339.735779 314.060913,336.419830 320.811584,336.651611 
	C326.430084,336.844513 330.570648,340.600281 331.266693,346.135101 
	C331.971558,351.740082 327.940765,357.384827 322.570435,358.313385 
	C315.761475,359.490692 311.006165,355.951630 309.064514,347.888062 
z"/>
<path fill="#000000" opacity="1.000000" stroke="none" 
	d="
M215.707245,374.293640 
	C211.828369,369.661011 211.442108,364.921692 214.388199,360.214661 
	C217.027191,355.998230 221.019241,354.439178 225.994781,355.619934 
	C230.288666,356.638916 233.134201,359.266815 234.112152,363.468536 
	C235.111984,367.764282 234.171463,371.755798 230.597778,374.722351 
	C227.088684,377.635254 223.162811,378.197235 218.974854,376.358734 
	C217.923157,375.897003 216.988174,375.169434 215.707245,374.293640 
z"/>
<path fill="#000000" opacity="1.000000" stroke="none" 
	d="
M226.379181,213.037170 
	C217.925400,213.520035 213.001846,209.888824 212.650650,203.312103 
	C212.345978,197.607132 215.565079,192.842560 220.551498,191.618011 
	C225.749039,190.341614 231.239410,192.883652 233.438446,197.584656 
	C235.825943,202.688568 234.259354,208.151566 229.392929,211.525040 
	C228.584564,212.085419 227.651810,212.466354 226.379181,213.037170 
z"/>
<path fill="#000000" opacity="1.000000" stroke="none" 
	d="
M182.744812,347.914642 
	C183.789215,340.988037 186.889786,337.340271 191.917511,336.694519 
	C197.165451,336.020477 201.997040,338.457397 203.917725,342.747101 
	C206.515350,348.548737 203.926163,355.217926 198.124710,357.668640 
	C192.580154,360.010834 186.107300,357.345703 183.680008,351.659363 
	C183.231659,350.609039 183.058136,349.441376 182.744812,347.914642 
z"/>
</svg>