<svg version="1.1" id="Layer_1" xmlns="http://www.w3.org/2000/svg" xmlns:xlink="http://www.w3.org/1999/xlink" x="0px" y="0px"
	 width="100%" viewBox="0 0 512 512" enable-background="new 0 0 512 512" xml:space="preserve">
<path fill="#000000" opacity="1.000000" stroke="none" 
	d="
M302.293701,80.000069 
	C302.294647,101.987289 302.333038,123.474655 302.245667,144.961517 
	C302.235352,147.494553 303.449158,150.849609 298.862183,151.360535 
	C290.107635,152.335709 288.088013,151.656433 286.855072,146.527054 
	C286.438080,144.792282 286.451233,142.923965 284.878204,141.073959 
	C277.034454,150.453262 266.423523,153.174164 254.937607,153.142105 
	C232.122391,153.078445 216.814774,137.998550 215.520721,115.303864 
	C215.090958,107.766548 215.101105,100.361725 216.752899,93.040810 
	C221.022202,74.118835 233.592972,63.659790 253.084518,62.769207 
	C265.000793,62.224739 275.860504,65.023857 284.670410,73.682007 
	C284.670410,60.372997 284.833740,47.189339 284.578064,34.013813 
	C284.493469,29.654486 285.995209,28.179630 290.231995,28.045296 
	C302.287018,27.663063 302.281281,27.536640 302.282776,39.523808 
	C302.284424,52.849224 302.289703,66.174644 302.293701,80.000069 
M241.095154,133.409561 
	C248.020035,140.196365 256.596161,140.747726 265.339783,139.134811 
	C276.753357,137.029404 281.731964,131.234756 283.805542,119.809425 
	C285.288208,111.639839 284.804504,103.561508 283.512604,95.494743 
	C281.846069,85.088638 275.234650,78.480515 264.939178,76.531502 
	C253.223404,74.313622 243.601669,78.075714 238.151016,86.521103 
	C231.540695,96.763313 230.691147,122.947350 241.095154,133.409561 
z"/>
<path fill="#000000" opacity="1.000000" stroke="none" 
	d="
M341.427795,307.046326 
	C348.059937,309.716522 351.090393,314.256775 350.108887,319.568481 
	C349.170044,324.649048 344.384216,328.930298 339.435974,329.116119 
	C334.368866,329.306366 329.654602,325.499207 328.171692,320.298706 
	C326.281433,313.669739 333.465485,304.938110 341.427795,307.046326 
z"/>
<path fill="#000000" opacity="1.000000" stroke="none" 
	d="
M261.476166,383.685883 
	C256.105103,385.202362 251.514709,384.637207 248.189102,380.226379 
	C245.758713,377.002930 244.995926,373.373077 246.717987,369.466278 
	C248.801254,364.739960 252.873413,362.307098 258.232300,362.665985 
	C263.029755,362.987274 266.800507,366.269318 267.987640,371.156860 
	C269.107666,375.768066 266.908081,380.166809 261.476166,383.685883 
z"/>
<path fill="#000000" opacity="1.000000" stroke="none" 
	d="
M191.525528,231.972748 
	C182.696884,228.321274 180.128708,220.257431 185.438263,213.991089 
	C188.702820,210.138306 193.752945,209.025742 198.542603,211.104126 
	C202.542725,212.839920 205.430847,217.679245 205.051224,222.010010 
	C204.652344,226.560852 200.612030,231.068298 195.881241,232.029648 
	C194.609650,232.288055 193.241379,232.070679 191.525528,231.972748 
z"/>
<path fill="#000000" opacity="1.000000" stroke="none" 
	d="
M320.058228,232.233459 
	C310.695953,232.018265 305.811951,220.904770 311.809052,214.131287 
	C314.868164,210.676147 318.610352,208.979477 323.408997,210.529663 
	C328.038544,212.025238 330.659515,215.117142 331.255127,219.831070 
	C331.894470,224.891205 329.454193,228.511322 325.209686,230.905411 
	C323.820435,231.689011 322.061493,231.817230 320.058228,232.233459 
z"/>
<path fill="#000000" opacity="1.000000" stroke="none" 
	d="
M175.819977,261.783997 
	C165.528320,260.190399 160.979752,252.350830 165.722351,244.931961 
	C168.277695,240.934647 172.028442,239.051025 176.799881,239.805206 
	C181.788452,240.593719 184.840057,243.712814 185.963104,248.512802 
	C187.020920,253.034012 185.123398,256.609894 181.664734,259.475922 
	C180.073029,260.794861 178.208801,261.430969 175.819977,261.783997 
z"/>
<path fill="#000000" opacity="1.000000" stroke="none" 
	d="
M336.536682,239.861649 
	C342.025330,239.222946 346.170441,240.758209 348.774078,245.359314 
	C351.049500,249.380402 350.744263,253.380371 348.005280,257.062622 
	C345.321686,260.670380 341.807922,262.322906 337.162933,261.502899 
	C332.305420,260.645386 329.503571,257.757141 328.275024,253.199966 
	C327.111877,248.885254 328.728455,245.326965 331.870361,242.468536 
	C333.065857,241.380920 334.698517,240.773773 336.536682,239.861649 
z"/>
<path fill="#000000" opacity="1.000000" stroke="none" 
	d="
M170.464325,295.132996 
	C164.949890,295.829712 160.804688,294.220001 158.208237,289.654816 
	C156.068237,285.892181 156.040573,282.033203 158.585617,278.354523 
	C161.437164,274.232788 165.299118,272.625732 170.259033,273.607910 
	C175.093735,274.565369 177.752274,277.617798 178.765228,282.266663 
	C179.820923,287.111694 177.657639,290.640381 173.946640,293.423828 
	C173.030045,294.111298 171.901047,294.515656 170.464325,295.132996 
z"/>
<path fill="#000000" opacity="1.000000" stroke="none" 
	d="
M352.268433,293.586334 
	C346.128235,296.390045 341.306122,295.627380 337.896729,291.594727 
	C334.599213,287.694305 334.294373,282.435303 337.119415,278.184631 
	C339.938416,273.943176 344.741394,272.265778 349.811554,273.871521 
	C353.804718,275.136169 356.314606,277.976196 357.120941,281.997955 
	C358.051971,286.641602 356.448334,290.504822 352.268433,293.586334 
z"/>
<path fill="#000000" opacity="1.000000" stroke="none" 
	d="
M181.777222,309.047058 
	C186.505615,314.131744 187.403778,318.167542 184.954453,322.786621 
	C182.726440,326.988342 179.121826,329.200775 174.397400,329.024078 
	C169.601639,328.844757 165.686722,325.407440 164.336304,320.614410 
	C163.057587,316.075989 164.707245,312.378113 168.082031,309.471771 
	C172.288239,305.849396 176.848862,305.944061 181.777222,309.047058 
z"/>
<path fill="#000000" opacity="1.000000" stroke="none" 
	d="
M284.419861,193.250366 
	C290.160614,190.514420 295.162720,191.016678 298.526215,194.414993 
	C301.735992,197.657990 302.596893,203.339752 300.486176,207.350281 
	C298.241882,211.614624 293.669556,213.980927 288.833374,213.212204 
	C284.505402,212.524216 281.464813,209.914169 280.180542,205.862579 
	C278.640869,201.005295 279.894226,196.681229 284.419861,193.250366 
z"/>
<path fill="#000000" opacity="1.000000" stroke="none" 
	d="
M281.328247,372.314575 
	C278.630432,367.178497 278.975311,362.620850 282.727936,358.662018 
	C286.030670,355.177826 290.239014,354.434082 294.663330,356.009308 
	C299.224915,357.633362 301.466644,361.216095 301.641113,365.967346 
	C301.826294,371.011871 299.307007,374.522919 294.812164,376.570343 
	C290.269196,378.639679 285.904388,377.273621 281.328247,372.314575 
z"/>
<path fill="#000000" opacity="1.000000" stroke="none" 
	d="
M246.982010,199.619843 
	C244.852798,192.292282 247.553741,186.649582 253.873062,184.516312 
	C259.259857,182.697845 265.453522,185.883881 267.455292,191.503021 
	C269.493805,197.225327 266.527588,203.349350 260.637329,205.579346 
	C255.762924,207.424759 250.940796,205.423355 246.982010,199.619843 
z"/>
<path fill="#000000" opacity="1.000000" stroke="none" 
	d="
M330.378082,343.151001 
	C332.272827,350.351929 329.553192,356.220306 323.789886,358.061859 
	C318.409790,359.780975 312.196930,357.004608 310.029633,351.912689 
	C307.669678,346.368134 309.976898,340.287567 315.455292,337.613708 
	C320.967865,334.923187 326.521759,336.862488 330.378082,343.151001 
z"/>
<path fill="#000000" opacity="1.000000" stroke="none" 
	d="
M219.090912,376.435913 
	C213.296722,372.819427 211.498764,368.865204 212.849670,363.350555 
	C213.889069,359.107574 218.193726,355.477600 222.513550,355.201324 
	C227.291382,354.895813 232.000839,357.658630 233.624863,362.032654 
	C235.170700,366.196045 234.791580,370.241608 231.678192,373.640350 
	C228.311920,377.315155 224.175995,378.269592 219.090912,376.435913 
z"/>
<path fill="#000000" opacity="1.000000" stroke="none" 
	d="
M231.462891,194.606705 
	C235.134506,200.173264 235.360931,204.578171 232.386108,208.658920 
	C229.430191,212.713730 225.393066,214.166962 220.600616,212.983017 
	C214.458481,211.465668 211.102097,205.075211 212.976685,198.905090 
	C214.771683,192.996902 221.315170,189.837128 227.364014,192.077148 
	C228.729156,192.582687 229.919632,193.559860 231.462891,194.606705 
z"/>
<path fill="#000000" opacity="1.000000" stroke="none" 
	d="
M183.143890,344.685608 
	C185.122620,339.533630 188.316864,336.640015 193.696548,336.630554 
	C198.264130,336.622559 201.754044,338.481262 203.794312,342.579102 
	C205.927872,346.864258 205.328537,350.963593 202.241150,354.611694 
	C199.105942,358.316315 195.001007,359.228760 190.528412,357.926880 
	C185.941086,356.591553 183.451263,353.203918 182.813293,348.520569 
	C182.660522,347.398987 182.930618,346.219788 183.143890,344.685608 
z"/>
</svg>