<svg version="1.1" id="Layer_1" xmlns="http://www.w3.org/2000/svg" xmlns:xlink="http://www.w3.org/1999/xlink" x="0px" y="0px"
	 width="100%" viewBox="0 0 512 512" enable-background="new 0 0 512 512" xml:space="preserve">
<path fill="#000000" opacity="1.000000" stroke="none" 
	d="
M237.349777,43.005486 
	C237.349945,53.136692 237.349945,62.768738 237.349945,73.690834 
	C244.151291,67.584648 251.254166,64.380257 259.288269,63.243031 
	C268.886780,61.884369 278.249207,62.691074 287.212006,66.373993 
	C296.609680,70.235611 301.112183,77.803879 302.346619,87.602547 
	C303.956726,100.382965 302.938446,113.220413 303.172241,126.030228 
	C303.296844,132.858643 303.120056,139.692322 303.222351,146.521484 
	C303.270660,149.746735 302.330719,151.472290 298.692108,151.406677 
	C283.240173,151.127945 285.901642,153.223587 285.752380,138.998138 
	C285.600311,124.505157 285.787537,110.008728 285.653778,95.515404 
	C285.538086,82.977516 278.983124,76.491074 266.482910,76.221153 
	C261.643219,76.116646 256.861511,76.284546 252.223328,78.029640 
	C240.087509,82.595673 237.840012,92.996895 237.468399,103.962769 
	C236.994705,117.941696 237.221512,131.949860 237.404022,145.942078 
	C237.456909,149.996567 236.252975,151.544083 232.036423,151.432663 
	C217.543823,151.049744 219.797043,153.170349 219.749893,139.372665 
	C219.630890,104.552872 219.791901,69.731895 219.584229,34.912926 
	C219.554962,30.005545 220.891327,28.035660 225.921066,28.042519 
	C240.160858,28.061939 236.990204,27.683498 237.344131,39.008137 
	C237.380539,40.173119 237.349396,41.340218 237.349777,43.005486 
z"/>
<path fill="#000000" opacity="1.000000" stroke="none" 
	d="
M347.976501,311.223358 
	C352.768494,317.199341 349.311096,325.946930 342.832520,328.327148 
	C336.815704,330.537720 330.333038,327.239807 328.346680,320.775208 
	C326.965210,316.279205 329.101990,311.071533 333.428650,308.389679 
	C338.104309,305.491425 342.761749,306.311432 347.976501,311.223358 
z"/>
<path fill="#000000" opacity="1.000000" stroke="none" 
	d="
M254.483398,362.760773 
	C262.178192,362.600647 265.655609,364.597931 267.564880,369.981934 
	C269.100342,374.311829 267.693329,379.240845 264.063293,382.101318 
	C260.436584,384.959137 256.380096,385.258972 252.298126,383.499847 
	C248.074722,381.679718 245.829086,378.082214 245.881470,373.595703 
	C245.944427,368.204681 249.017349,364.649139 254.483398,362.760773 
z"/>
<path fill="#000000" opacity="1.000000" stroke="none" 
	d="
M166.720474,325.192200 
	C163.260986,320.544434 162.910370,316.052948 166.090240,311.578400 
	C168.564087,308.097290 171.994019,306.207855 176.347305,306.863708 
	C181.198624,307.594543 184.455566,310.374634 185.844635,315.167999 
	C187.056076,319.348297 185.172836,324.301880 181.401764,326.905029 
	C176.591660,330.225433 172.592819,329.833740 166.720474,325.192200 
z"/>
<path fill="#000000" opacity="1.000000" stroke="none" 
	d="
M204.590210,218.731873 
	C206.369720,225.953583 200.389221,231.389282 195.339066,232.168594 
	C189.907639,233.006744 184.348267,229.122818 182.992722,223.527496 
	C181.634186,217.919830 185.151184,212.190125 191.039093,210.418777 
	C196.745102,208.702164 202.025345,211.821091 204.590210,218.731873 
z"/>
<path fill="#000000" opacity="1.000000" stroke="none" 
	d="
M316.856445,231.607513 
	C310.385040,228.472565 307.867493,223.360260 309.713043,217.751251 
	C311.449097,212.474869 317.072388,209.091248 322.220856,210.225098 
	C328.227295,211.547897 331.616211,216.159042 331.354218,222.102524 
	C331.108246,227.681000 323.705048,234.386475 316.856445,231.607513 
z"/>
<path fill="#000000" opacity="1.000000" stroke="none" 
	d="
M184.471008,244.818634 
	C187.578873,252.347214 185.177032,258.830048 178.754135,261.157898 
	C172.631256,263.377014 166.103882,259.876312 164.289520,253.400345 
	C162.950195,248.619827 165.384445,243.387558 170.128357,240.850052 
	C174.962677,238.264206 179.834015,239.519516 184.471008,244.818634 
z"/>
<path fill="#000000" opacity="1.000000" stroke="none" 
	d="
M349.213074,246.215149 
	C351.225891,253.237366 348.523621,259.152954 342.680084,261.200043 
	C337.296967,263.085815 331.222168,260.449127 328.898956,255.218506 
	C326.579132,249.995636 328.628479,244.030701 333.769135,241.042709 
	C339.180756,237.897217 344.854065,239.677383 349.213074,246.215149 
z"/>
<path fill="#000000" opacity="1.000000" stroke="none" 
	d="
M166.330261,295.261108 
	C159.068909,292.773926 155.779282,288.083374 156.843842,282.293213 
	C157.783401,277.182922 162.760803,273.129730 167.932388,273.263550 
	C174.281052,273.427826 179.103439,278.204681 179.144653,284.369995 
	C179.185638,290.500214 173.959518,295.105652 166.330261,295.261108 
z"/>
<path fill="#000000" opacity="1.000000" stroke="none" 
	d="
M348.261292,273.584229 
	C354.953308,275.707428 358.003235,279.998138 357.277313,285.784943 
	C356.669647,290.629028 352.489777,294.790680 347.735901,295.284790 
	C341.868713,295.894623 337.171661,292.746338 335.628693,287.169708 
	C334.238098,282.143799 336.481171,276.948059 341.128998,274.501007 
	C343.253906,273.382263 345.491180,272.902679 348.261292,273.584229 
z"/>
<path fill="#000000" opacity="1.000000" stroke="none" 
	d="
M301.025482,362.295471 
	C302.404480,367.815582 301.425293,372.277954 296.872803,375.440247 
	C293.094543,378.064758 289.036865,378.096405 285.087128,375.904480 
	C280.856140,373.556427 278.690582,368.739349 279.817657,363.947174 
	C280.903503,359.330353 283.959167,356.431671 288.654053,355.491974 
	C293.781189,354.465759 297.541138,356.496643 301.025482,362.295471 
z"/>
<path fill="#000000" opacity="1.000000" stroke="none" 
	d="
M251.069366,185.859894 
	C257.695648,182.809357 264.181702,184.571411 266.885803,189.868774 
	C269.631073,195.246841 267.836853,201.459579 262.624146,204.625229 
	C257.823944,207.540344 251.317398,206.142044 247.975525,201.477142 
	C244.327454,196.384796 245.273468,191.103577 251.069366,185.859894 
z"/>
<path fill="#000000" opacity="1.000000" stroke="none" 
	d="
M293.210297,191.643341 
	C299.521423,194.092056 302.136597,197.783249 301.627594,203.317780 
	C301.163727,208.361755 298.185455,211.536560 293.525421,213.002777 
	C288.964355,214.437851 284.020782,212.438843 281.364990,208.302811 
	C279.011383,204.637360 278.840851,200.717636 281.018860,196.978836 
	C283.625702,192.503845 287.622131,190.603348 293.210297,191.643341 
z"/>
<path fill="#000000" opacity="1.000000" stroke="none" 
	d="
M330.447571,351.917572 
	C325.723114,358.789062 319.250000,360.408813 313.694305,356.429291 
	C308.711090,352.859894 307.648285,345.959930 311.311646,340.960602 
	C314.379883,336.773438 320.382416,335.318268 325.196869,337.594421 
	C330.148041,339.935242 332.113464,344.995239 330.447571,351.917572 
z"/>
<path fill="#000000" opacity="1.000000" stroke="none" 
	d="
M234.120148,205.388031 
	C230.461746,212.194168 225.932312,214.590195 220.426544,212.982544 
	C214.690750,211.307724 211.550949,205.851425 212.785645,199.704193 
	C213.763062,194.837784 218.700287,190.988129 223.629684,191.248856 
	C229.967880,191.584106 234.160538,195.782166 234.339478,202.008972 
	C234.367920,202.999130 234.262054,203.993164 234.120148,205.388031 
z"/>
<path fill="#000000" opacity="1.000000" stroke="none" 
	d="
M234.270416,368.574219 
	C231.438950,375.319916 227.791183,377.931885 222.232971,377.256927 
	C217.534882,376.686432 214.207596,374.123108 212.899887,369.496094 
	C211.502502,364.551819 213.482025,359.591278 217.664230,356.878632 
	C221.405914,354.451660 225.250290,354.781494 228.977753,356.781860 
	C233.507233,359.212646 234.782852,363.308350 234.270416,368.574219 
z"/>
<path fill="#000000" opacity="1.000000" stroke="none" 
	d="
M182.922302,349.535950 
	C182.844681,342.432739 186.013428,337.790894 191.281403,336.764374 
	C196.942093,335.661346 202.373215,338.508667 204.215881,343.545441 
	C206.264908,349.146271 203.690887,355.211426 198.249557,357.604004 
	C193.109985,359.863831 186.914719,357.734436 184.123032,352.700867 
	C183.645035,351.839050 183.373260,350.862793 182.922302,349.535950 
z"/>
</svg>