<svg version="1.1" id="Layer_1" xmlns="http://www.w3.org/2000/svg" xmlns:xlink="http://www.w3.org/1999/xlink" x="0px" y="0px"
	 width="100%" viewBox="0 0 512 512" enable-background="new 0 0 512 512" xml:space="preserve">
<path fill="#000000" opacity="1.000000" stroke="none" 
	d="
M260.586121,69.319855 
	C262.757202,71.622627 264.655304,73.689301 266.751312,75.971466 
	C278.911102,62.803860 294.145660,60.481472 310.699005,64.169495 
	C323.745575,67.076210 330.821991,75.886292 331.157593,90.164757 
	C331.603912,109.154243 331.273987,128.161392 331.357300,147.160599 
	C331.369934,150.042267 330.464783,151.437210 327.356110,151.387482 
	C311.672852,151.136597 314.231171,153.371140 314.085815,138.782211 
	C313.931458,123.285675 314.125275,107.781784 313.715179,92.293068 
	C313.443817,82.044937 307.401276,76.569588 297.136505,76.219238 
	C279.181671,75.606407 270.462097,83.891792 270.343018,101.860527 
	C270.245850,116.526474 270.208374,131.194382 270.353943,145.859314 
	C270.393433,149.837021 269.259766,151.535522 264.984528,151.433136 
	C250.788925,151.093140 252.981857,153.039871 252.863785,139.678558 
	C252.734207,125.013092 252.902130,110.344963 252.764725,95.679634 
	C252.659058,84.403748 248.518814,77.988045 239.685806,76.667061 
	C228.036865,74.924950 217.395309,76.685860 212.123322,88.331779 
	C210.253677,92.461838 209.339859,96.874603 209.321198,101.427864 
	C209.261063,116.094017 209.100433,130.761749 209.265533,145.425644 
	C209.316635,149.964478 207.847977,151.608429 203.212814,151.441345 
	C189.721786,150.955032 191.722412,153.301758 191.651672,139.683868 
	C191.531311,116.517990 191.744049,93.349785 191.511185,70.185631 
	C191.464966,65.589439 192.882553,64.049164 197.372055,64.049149 
	C204.989014,64.049118 204.989014,63.845325 208.056808,73.487175 
	C224.545364,60.558491 241.988647,58.771275 260.586121,69.319855 
z"/>
<path fill="#000000" opacity="1.000000" stroke="none" 
	d="
M342.211121,307.282166 
	C348.414032,310.232880 351.158081,314.821167 350.054596,319.884399 
	C348.949646,324.954224 344.016388,329.115631 339.112854,329.114197 
	C334.151978,329.112762 329.756256,325.497375 328.226410,320.462616 
	C326.066132,313.353241 334.108826,304.364899 342.211121,307.282166 
z"/>
<path fill="#000000" opacity="1.000000" stroke="none" 
	d="
M248.866638,381.079224 
	C245.311813,376.539124 244.753677,372.098633 247.816116,367.483124 
	C250.619461,363.258118 254.705490,361.939056 259.499573,362.787354 
	C264.060944,363.594421 266.807648,366.626953 267.877563,370.961731 
	C269.074768,375.812134 267.313660,379.782593 263.272278,382.627777 
	C259.020081,385.621368 254.201767,385.121033 248.866638,381.079224 
z"/>
<path fill="#000000" opacity="1.000000" stroke="none" 
	d="
M202.744354,227.604675 
	C197.749588,232.443893 193.794495,233.436768 189.075989,231.080399 
	C184.590057,228.840225 182.368484,225.038559 182.822922,220.098511 
	C183.278839,215.142212 186.251740,211.873550 191.014847,210.459366 
	C195.461609,209.139114 199.434189,210.513107 202.246231,213.930008 
	C205.604004,218.010040 206.154739,222.652359 202.744354,227.604675 
z"/>
<path fill="#000000" opacity="1.000000" stroke="none" 
	d="
M331.163818,223.476288 
	C329.083008,228.980835 325.610596,232.318359 319.891846,232.163895 
	C315.411804,232.042862 311.936157,229.836044 310.143372,225.556000 
	C308.381409,221.349533 308.867859,217.313522 311.970398,213.938324 
	C315.105347,210.527878 318.909546,208.956635 323.650879,210.601761 
	C328.235107,212.192413 330.720886,215.346939 331.277466,220.083755 
	C331.392700,221.064774 331.258820,222.075073 331.163818,223.476288 
z"/>
<path fill="#000000" opacity="1.000000" stroke="none" 
	d="
M164.165100,248.590057 
	C168.017975,238.949112 177.745026,236.583115 183.530334,243.524963 
	C186.934433,247.609573 187.159668,252.508453 184.144806,256.891266 
	C181.252914,261.095306 176.400253,262.720062 171.403595,261.157318 
	C166.528580,259.632629 163.907242,255.289337 164.165100,248.590057 
z"/>
<path fill="#000000" opacity="1.000000" stroke="none" 
	d="
M328.666626,247.073639 
	C332.453979,240.449234 337.121552,238.291656 342.728516,240.247116 
	C348.180817,242.148651 351.398987,248.108994 349.835968,253.410751 
	C347.987305,259.681244 342.073273,262.981354 335.798157,261.244019 
	C330.010895,259.641754 327.095642,254.090775 328.666626,247.073639 
z"/>
<path fill="#000000" opacity="1.000000" stroke="none" 
	d="
M169.478668,273.500122 
	C176.256973,275.300049 179.973953,280.290833 178.994583,285.824066 
	C177.921555,291.886414 172.269608,296.075745 166.274155,295.252747 
	C160.670990,294.483582 156.433075,289.326324 156.725006,283.632019 
	C157.043060,277.427979 161.855270,273.460571 169.478668,273.500122 
z"/>
<path fill="#000000" opacity="1.000000" stroke="none" 
	d="
M338.661987,292.416473 
	C334.961670,288.052582 333.958466,283.625671 336.734894,278.806671 
	C338.911591,275.028503 342.251892,273.052002 346.638489,273.327240 
	C351.333252,273.621857 354.853363,275.802521 356.624146,280.356354 
	C358.339478,284.767548 356.930115,289.921875 353.186035,292.941956 
	C349.077026,296.256409 344.449829,296.173676 338.661987,292.416473 
z"/>
<path fill="#000000" opacity="1.000000" stroke="none" 
	d="
M174.196274,306.758606 
	C181.387619,307.629425 185.066071,310.454651 186.034012,315.969604 
	C186.862289,320.688721 184.996185,324.473785 181.041214,327.101898 
	C175.963867,330.475830 169.423828,329.196747 166.042419,324.299866 
	C162.461487,319.114044 163.621155,312.554688 168.782303,308.905640 
	C170.290924,307.839020 171.916916,307.015137 174.196274,306.758606 
z"/>
<path fill="#000000" opacity="1.000000" stroke="none" 
	d="
M290.913666,191.320801 
	C298.138031,192.576614 301.405670,195.934525 301.654266,201.997070 
	C301.854950,206.890747 298.572357,211.504608 293.855438,212.958725 
	C289.014709,214.451050 283.635864,212.271393 280.995636,207.747681 
	C276.820068,200.593307 281.375031,192.726685 290.913666,191.320801 
z"/>
<path fill="#000000" opacity="1.000000" stroke="none" 
	d="
M287.865479,355.643402 
	C293.317383,354.743835 297.585938,356.083893 300.179565,360.708160 
	C302.359558,364.594940 302.382263,368.662567 299.770508,372.488190 
	C297.172394,376.293854 293.499847,377.779846 288.986908,377.260498 
	C284.598846,376.755432 280.529480,372.898987 279.779510,368.608490 
	C278.756348,362.754852 281.113220,358.814484 287.865479,355.643402 
z"/>
<path fill="#000000" opacity="1.000000" stroke="none" 
	d="
M266.729767,189.628632 
	C269.429779,197.367828 266.842224,203.502213 260.281464,205.723557 
	C254.579376,207.654175 248.098450,203.957840 246.306625,197.753128 
	C244.930939,192.989426 247.386581,187.689804 252.106262,185.236694 
	C257.136200,182.622345 262.052704,184.003250 266.729767,189.628632 
z"/>
<path fill="#000000" opacity="1.000000" stroke="none" 
	d="
M330.787720,351.179382 
	C328.250946,356.339905 324.594818,358.942627 319.058472,358.399414 
	C314.663269,357.968201 311.617340,355.619019 309.966248,351.638153 
	C308.213593,347.412384 309.025452,343.464050 312.070221,340.066376 
	C315.138947,336.642029 320.618622,335.585602 324.913879,337.465912 
	C329.730591,339.574463 331.748413,344.029816 330.787720,351.179382 
z"/>
<path fill="#000000" opacity="1.000000" stroke="none" 
	d="
M227.893799,212.422821 
	C221.137360,214.063873 216.372101,212.366119 213.815292,207.706635 
	C211.527786,203.537918 212.380295,197.743698 215.775848,194.381226 
	C220.284424,189.916611 228.138809,190.372284 232.092773,195.327866 
	C236.393753,200.718353 234.817108,207.682541 227.893799,212.422821 
z"/>
<path fill="#000000" opacity="1.000000" stroke="none" 
	d="
M232.916794,360.522644 
	C235.342270,365.720184 235.030991,370.295105 231.177444,374.158295 
	C227.817093,377.527100 223.686417,378.325958 219.263107,376.488922 
	C214.618378,374.559937 212.436646,371.010406 212.603989,365.913177 
	C212.764709,361.017639 215.273438,357.763336 219.533264,355.897766 
	C223.897736,353.986389 228.757355,355.711639 232.916794,360.522644 
z"/>
<path fill="#000000" opacity="1.000000" stroke="none" 
	d="
M184.430603,353.265808 
	C181.710327,348.273315 182.377487,343.906799 185.752640,340.034576 
	C188.793198,336.546143 192.889130,335.851929 197.135269,337.032379 
	C201.505066,338.247223 204.043900,341.386993 204.868622,345.884705 
	C205.668198,350.245270 203.050446,355.187012 198.743515,357.362335 
	C193.981125,359.767731 188.965088,358.429565 184.430603,353.265808 
z"/>
</svg>