<svg version="1.1" id="Layer_1" xmlns="http://www.w3.org/2000/svg" xmlns:xlink="http://www.w3.org/1999/xlink" x="0px" y="0px"
	 width="100%" viewBox="0 0 512 512" enable-background="new 0 0 512 512" xml:space="preserve">
<path fill="#000000" opacity="1.000000" stroke="none" 
	d="
M295.064880,72.680710 
	C294.563660,74.498253 294.155579,75.908669 293.708710,77.453171 
	C287.784515,77.799072 281.978882,76.509102 276.254242,78.162270 
	C264.339874,81.602936 256.729980,90.369568 256.306976,102.679871 
	C255.826660,116.657982 256.034882,130.659790 255.945709,144.651291 
	C255.903183,151.326981 255.890076,151.429367 249.293213,151.349686 
	C237.057526,151.201904 238.061188,153.237503 238.057465,140.227844 
	C238.050949,117.403358 237.997803,94.578796 238.050827,71.754478 
	C238.056320,69.391518 236.951981,66.004265 239.760727,65.010246 
	C243.642654,63.636425 247.956299,63.424526 252.017456,64.892052 
	C253.519745,65.434914 253.175720,67.110313 253.340271,68.401833 
	C253.731384,71.471298 254.149338,74.537346 254.659836,78.383812 
	C258.875580,73.740341 262.443268,69.676071 267.369415,67.000626 
	C275.208160,62.743317 283.533356,62.193504 292.107147,62.887520 
	C295.054291,63.126083 296.793030,64.392799 295.683411,67.823105 
	C295.232422,69.217361 295.317108,70.784897 295.064880,72.680710 
z"/>
<path fill="#000000" opacity="1.000000" stroke="none" 
	d="
M335.899780,328.464630 
	C329.877808,325.546661 327.148529,321.172363 328.005219,316.309418 
	C328.896454,311.250336 333.227020,307.158051 338.110809,306.759857 
	C343.168854,306.347443 347.812683,309.545807 349.672485,314.416870 
	C352.561493,321.983459 344.489746,331.369354 335.899780,328.464630 
z"/>
<path fill="#000000" opacity="1.000000" stroke="none" 
	d="
M247.094330,378.532227 
	C244.719910,371.198090 247.641006,364.636780 253.707657,362.913147 
	C259.966614,361.134888 265.953979,364.404053 267.800201,370.607819 
	C269.285553,375.598999 266.779633,381.058594 261.896393,383.470245 
	C256.719452,386.026947 251.415665,384.363525 247.094330,378.532227 
z"/>
<path fill="#000000" opacity="1.000000" stroke="none" 
	d="
M338.429260,276.423584 
	C345.109558,271.835419 352.039337,272.699402 355.595276,278.261963 
	C359.084137,283.719666 357.229706,290.889130 351.500946,294.090973 
	C347.317474,296.429138 341.554688,295.531769 338.258362,292.028839 
	C334.276550,287.797455 334.243408,282.552917 338.429260,276.423584 
z"/>
<path fill="#000000" opacity="1.000000" stroke="none" 
	d="
M189.243805,231.182663 
	C183.318069,227.167023 181.393982,222.190918 183.503372,217.125778 
	C185.524292,212.273102 190.664413,209.262390 195.376633,210.171310 
	C201.855850,211.421066 206.126328,217.216461 204.870697,223.055573 
	C203.378769,229.993668 197.063492,233.421066 189.243805,231.182663 
z"/>
<path fill="#000000" opacity="1.000000" stroke="none" 
	d="
M324.754700,231.197830 
	C317.501129,233.311935 311.846832,230.753067 309.808319,224.756271 
	C307.764130,218.742722 310.958008,212.542664 317.180695,210.444931 
	C322.439880,208.672012 328.470978,211.639740 330.613068,217.054581 
	C332.745880,222.445999 331.045959,226.777954 324.754700,231.197830 
z"/>
<path fill="#000000" opacity="1.000000" stroke="none" 
	d="
M186.013977,248.502731 
	C186.208435,255.292297 183.406281,259.705963 178.250473,261.293884 
	C173.465546,262.767578 168.267578,260.828003 165.647156,256.591095 
	C162.370697,251.293411 163.922440,244.785583 169.278854,241.360123 
	C174.456039,238.049316 181.228622,239.605026 184.507660,244.919144 
	C185.111282,245.897385 185.447800,247.040466 186.013977,248.502731 
z"/>
<path fill="#000000" opacity="1.000000" stroke="none" 
	d="
M336.532104,239.848801 
	C342.022186,239.224472 346.182587,240.734497 348.787994,245.353516 
	C351.062347,249.385590 350.748383,253.396622 348.009796,257.075500 
	C345.328613,260.677277 341.818665,262.353546 337.158417,261.513336 
	C332.303314,260.638092 329.480316,257.763550 328.249725,253.200531 
	C327.084747,248.880920 328.716125,245.317566 331.858307,242.454697 
	C333.054382,241.364929 334.690582,240.758270 336.532104,239.848801 
z"/>
<path fill="#000000" opacity="1.000000" stroke="none" 
	d="
M159.254715,277.421143 
	C163.166214,272.980377 167.690247,272.368896 172.578781,274.295898 
	C176.906723,276.001953 178.886902,279.739258 179.030533,284.091431 
	C179.177521,288.545349 176.807358,291.953064 172.873169,294.125458 
	C168.667847,296.447662 163.050873,295.429108 159.707611,291.802948 
	C156.015381,287.798309 155.787140,283.179962 159.254715,277.421143 
z"/>
<path fill="#000000" opacity="1.000000" stroke="none" 
	d="
M169.672379,308.320862 
	C176.323502,305.603485 182.250000,307.470581 184.947464,312.813019 
	C187.692795,318.250275 185.824631,324.395508 180.494186,327.461945 
	C175.394653,330.395508 169.189758,328.986481 165.954239,324.160126 
	C162.293121,318.698914 163.461472,313.314545 169.672379,308.320862 
z"/>
<path fill="#000000" opacity="1.000000" stroke="none" 
	d="
M245.855255,194.224335 
	C247.126236,188.419342 250.317810,184.648575 255.885025,184.082230 
	C260.404816,183.622437 264.435028,185.484131 266.774567,189.727829 
	C270.045227,195.660461 267.380615,202.781372 261.019562,205.442902 
	C255.382568,207.801453 248.612335,204.597092 246.561783,198.523560 
	C246.142807,197.282532 246.059875,195.928040 245.855255,194.224335 
z"/>
<path fill="#000000" opacity="1.000000" stroke="none" 
	d="
M290.092255,213.306732 
	C282.303101,211.783203 278.424194,206.485550 279.802612,199.819244 
	C280.991943,194.067474 287.008392,190.393646 293.195496,191.641174 
	C298.513824,192.713531 301.925171,197.231369 301.695312,202.897964 
	C301.456970,208.773682 297.282379,212.662323 290.092255,213.306732 
z"/>
<path fill="#000000" opacity="1.000000" stroke="none" 
	d="
M331.277954,346.295410 
	C331.014160,353.287201 327.474152,357.733856 322.024628,358.370850 
	C315.919159,359.084503 311.005066,355.865112 309.527954,350.183807 
	C308.152496,344.893707 310.668213,339.719666 315.707367,337.474609 
	C322.425995,334.481262 328.599335,337.819489 331.277954,346.295410 
z"/>
<path fill="#000000" opacity="1.000000" stroke="none" 
	d="
M279.673889,366.903168 
	C280.212524,359.743347 284.630341,355.174377 290.550842,355.222198 
	C296.734772,355.272125 301.243347,359.545807 301.650696,365.743774 
	C302.022949,371.406921 297.719299,376.644836 292.172699,377.279419 
	C285.680450,378.022186 281.042999,374.327271 279.673889,366.903168 
z"/>
<path fill="#000000" opacity="1.000000" stroke="none" 
	d="
M232.001526,195.206894 
	C235.240784,200.944504 235.175079,205.485352 231.923080,209.331573 
	C228.830353,212.989426 224.829514,214.193802 220.282913,212.900284 
	C214.156982,211.157440 210.992920,204.679657 213.068909,198.578979 
	C215.085678,192.652313 221.669952,189.696976 227.653320,192.184525 
	C229.140106,192.802658 230.395447,193.977524 232.001526,195.206894 
z"/>
<path fill="#000000" opacity="1.000000" stroke="none" 
	d="
M212.725189,368.610474 
	C211.122101,361.137756 217.604294,354.529053 224.116196,355.254974 
	C230.052429,355.916779 234.085327,359.878204 234.352127,365.502594 
	C234.615051,371.045715 231.222992,375.881134 226.209442,377.110077 
	C220.410828,378.531494 215.336075,375.483063 212.725189,368.610474 
z"/>
<path fill="#000000" opacity="1.000000" stroke="none" 
	d="
M184.070404,342.449646 
	C188.909958,335.887817 196.091217,334.742889 201.401871,339.362640 
	C205.938766,343.309296 206.192841,350.356903 201.963470,354.940735 
	C198.371460,358.833771 192.466721,359.592712 187.867340,356.752441 
	C183.340149,353.956757 181.850784,348.738037 184.070404,342.449646 
z"/>
</svg>