<svg version="1.1" id="Layer_1" xmlns="http://www.w3.org/2000/svg" xmlns:xlink="http://www.w3.org/1999/xlink" x="0px" y="0px"
	 width="100%" viewBox="0 0 512 512" enable-background="new 0 0 512 512" xml:space="preserve">
<path fill="#000000" opacity="1.000000" stroke="none" 
	d="
M232.327362,76.354553 
	C230.106216,72.933479 228.986618,68.547913 233.354370,67.646255 
	C244.332108,65.380066 247.372971,57.287819 249.789017,48.256260 
	C250.393555,45.996349 251.506195,44.512383 254.127029,44.178234 
	C260.321716,43.388435 261.895935,44.622639 261.960114,50.883110 
	C261.992523,54.045322 262.098297,57.214424 261.939636,60.368774 
	C261.786194,63.420116 263.054413,64.410057 266.047089,64.399666 
	C272.360107,64.377724 278.672699,64.197380 284.992432,64.280693 
	C290.762482,64.356758 289.727875,67.881569 289.958771,71.282356 
	C290.236572,75.373711 288.496735,77.131142 284.418060,76.803993 
	C277.123322,76.218872 269.827881,76.247452 262.878815,76.717224 
	C261.325745,78.105247 261.899384,79.506073 261.898071,80.779358 
	C261.884583,94.095085 262.194489,107.419083 261.827209,120.724571 
	C261.326477,138.866013 269.860779,140.666779 283.516907,139.476334 
	C285.947510,139.264465 289.308533,136.725861 290.256409,141.407013 
	C291.647919,148.279266 290.317749,150.880768 285.014526,151.914978 
	C277.605835,153.359787 270.177429,153.771805 262.740509,151.996216 
	C251.735092,149.368622 245.420853,141.726547 244.633057,130.450607 
	C243.599060,115.650703 244.336487,100.838623 244.080109,86.034798 
	C244.057053,84.703621 243.985306,83.363991 244.095383,82.041534 
	C244.457962,77.685928 242.497894,75.923798 238.195541,76.405418 
	C236.391647,76.607346 234.549118,76.464096 232.327362,76.354553 
z"/>
<path fill="#000000" opacity="1.000000" stroke="none" 
	d="
M344.969421,327.209045 
	C337.553070,330.488556 331.287750,328.265350 328.694244,321.748779 
	C326.440369,316.085663 329.622101,309.455139 335.619232,307.317657 
	C341.356995,305.272522 347.998779,308.704590 349.766571,314.821381 
	C351.228546,319.880127 349.321533,323.873047 344.969421,327.209045 
z"/>
<path fill="#000000" opacity="1.000000" stroke="none" 
	d="
M253.670441,362.924927 
	C263.870056,362.282013 269.991730,368.118347 267.925964,376.019470 
	C266.658539,380.866943 262.736877,384.176605 257.964813,384.426086 
	C252.478653,384.712891 248.432037,382.184143 246.592590,377.319489 
	C244.863083,372.745514 246.201294,368.133026 250.293915,364.856903 
	C251.193939,364.136505 252.271301,363.637634 253.670441,362.924927 
z"/>
<path fill="#000000" opacity="1.000000" stroke="none" 
	d="
M336.266571,279.556122 
	C340.184448,273.907806 343.773926,272.317810 349.093475,273.685089 
	C353.801941,274.895355 356.568298,278.029297 357.226349,282.745758 
	C357.917664,287.700439 355.863495,291.612976 351.516083,294.025208 
	C347.330353,296.347717 343.019501,295.982391 339.367615,292.946838 
	C335.235870,289.512421 334.120026,285.013000 336.266571,279.556122 
z"/>
<path fill="#000000" opacity="1.000000" stroke="none" 
	d="
M189.981842,231.474899 
	C183.633942,227.821320 181.337204,222.587250 183.443665,217.290146 
	C185.394974,212.383224 190.568695,209.274200 195.313034,210.157501 
	C201.879990,211.380157 206.159500,217.195190 204.847519,223.113129 
	C203.380432,229.730789 197.638611,233.098831 189.981842,231.474899 
z"/>
<path fill="#000000" opacity="1.000000" stroke="none" 
	d="
M331.319275,221.832413 
	C329.689941,228.653687 325.437653,232.421402 320.034973,232.238342 
	C314.378662,232.046692 310.022980,228.053391 309.237030,222.338745 
	C308.541443,217.280960 311.906281,212.232361 317.159851,210.451416 
	C324.165375,208.076584 330.570892,213.033478 331.319275,221.832413 
z"/>
<path fill="#000000" opacity="1.000000" stroke="none" 
	d="
M186.089905,252.538971 
	C183.318771,262.502625 173.003204,264.052612 167.520950,258.810394 
	C164.142517,255.579865 162.829376,251.567551 164.698257,246.989197 
	C166.482254,242.618774 169.658859,239.941055 174.491547,239.707840 
	C179.277756,239.476883 182.857605,241.584137 185.036224,245.853546 
	C186.027863,247.796860 186.562820,249.904739 186.089905,252.538971 
z"/>
<path fill="#000000" opacity="1.000000" stroke="none" 
	d="
M337.346863,239.734467 
	C342.706543,239.390549 346.573334,241.184952 348.939758,245.641373 
	C351.008362,249.536957 350.676422,253.383774 348.106110,256.929565 
	C345.465912,260.571686 341.986511,262.312958 337.332153,261.541748 
	C332.493317,260.739990 329.586365,257.947083 328.308685,253.369919 
	C327.045746,248.845490 328.771179,245.213699 332.089203,242.234787 
	C333.453217,241.010193 335.081055,240.129684 337.346863,239.734467 
z"/>
<path fill="#000000" opacity="1.000000" stroke="none" 
	d="
M157.155121,287.261780 
	C156.383453,279.880432 159.531174,274.858612 165.351242,273.579437 
	C171.018829,272.333740 176.355850,275.143494 178.257309,280.373962 
	C180.349991,286.130463 177.512711,292.389954 171.761520,294.704773 
	C166.154800,296.961365 160.461395,294.183533 157.155121,287.261780 
z"/>
<path fill="#000000" opacity="1.000000" stroke="none" 
	d="
M183.977509,311.253418 
	C188.874313,318.155701 184.835083,325.856934 179.133179,328.199310 
	C173.111633,330.673004 166.557693,327.484741 164.438034,320.964539 
	C162.943573,316.367493 164.953674,311.312134 169.390854,308.508301 
	C174.174988,305.485229 178.622513,306.237762 183.977509,311.253418 
z"/>
<path fill="#000000" opacity="1.000000" stroke="none" 
	d="
M299.975342,196.244324 
	C302.584564,202.731674 301.851166,207.310181 297.928589,210.654221 
	C294.257355,213.783997 288.821381,214.306091 284.925842,211.791565 
	C280.919495,209.205505 279.088501,205.480026 279.730682,200.730438 
	C280.349091,196.156815 283.089417,193.046555 287.401031,191.828613 
	C292.255005,190.457474 296.622681,191.602829 299.975342,196.244324 
z"/>
<path fill="#000000" opacity="1.000000" stroke="none" 
	d="
M286.408844,356.096680 
	C293.491638,354.539978 298.400604,356.511292 300.689026,361.529144 
	C302.827515,366.218201 301.452209,371.975647 297.463348,375.032715 
	C292.332916,378.964691 285.385193,377.941833 281.598511,372.697083 
	C277.569336,367.116425 279.316650,360.674011 286.408844,356.096680 
z"/>
<path fill="#000000" opacity="1.000000" stroke="none" 
	d="
M251.022919,204.259247 
	C245.889923,199.585464 244.702789,195.569000 246.887329,190.856567 
	C248.972351,186.358765 252.518906,183.814194 257.508179,184.039062 
	C262.754883,184.275528 266.618500,187.674316 267.876007,192.656097 
	C268.970428,196.991821 267.420288,200.573242 264.248840,203.395935 
	C260.302429,206.908340 255.909378,207.150803 251.022919,204.259247 
z"/>
<path fill="#000000" opacity="1.000000" stroke="none" 
	d="
M331.297668,348.781464 
	C329.994049,354.355194 327.031860,357.787872 321.514160,358.385529 
	C316.763123,358.900146 312.969849,357.104767 310.609558,352.940948 
	C308.264587,348.804169 308.550293,344.650909 311.438904,340.795441 
	C314.200775,337.109253 319.452179,335.463165 323.995239,337.116730 
	C329.158173,338.995972 331.389587,342.980286 331.297668,348.781464 
z"/>
<path fill="#000000" opacity="1.000000" stroke="none" 
	d="
M232.473785,195.849197 
	C235.317200,201.780701 234.938583,206.325012 231.391754,209.928955 
	C228.051407,213.323044 224.001434,214.329437 219.556534,212.583374 
	C215.169678,210.860138 212.703186,207.662491 212.598099,202.716293 
	C212.489868,197.623184 214.755356,193.907669 219.259888,192.084824 
	C224.178299,190.094498 228.678650,191.477737 232.473785,195.849197 
z"/>
<path fill="#000000" opacity="1.000000" stroke="none" 
	d="
M234.136612,369.396057 
	C232.344040,373.666443 229.691681,376.499756 225.371719,377.216248 
	C219.111450,378.254517 213.365723,374.097931 212.685516,368.187988 
	C211.899994,361.363068 216.382736,355.502014 222.632996,355.181824 
	C229.144852,354.848297 234.147919,359.459290 234.348160,366.010101 
	C234.378479,367.001740 234.272339,367.997559 234.136612,369.396057 
z"/>
<path fill="#000000" opacity="1.000000" stroke="none" 
	d="
M200.850372,338.921875 
	C205.020126,342.913147 206.276108,347.308716 203.804138,352.223419 
	C201.594391,356.616791 197.897232,358.845245 192.837677,358.349579 
	C187.822388,357.858215 184.578400,355.099243 183.171707,350.333649 
	C181.858521,345.884827 183.307632,342.003906 186.714706,339.153778 
	C191.052994,335.524689 195.819260,335.739044 200.850372,338.921875 
z"/>
</svg>