<svg version="1.1" id="Layer_1" xmlns="http://www.w3.org/2000/svg" xmlns:xlink="http://www.w3.org/1999/xlink" x="0px" y="0px"
	 width="100%" viewBox="0 0 512 512" enable-background="new 0 0 512 512" xml:space="preserve">
<path fill="#000000" opacity="1.000000" stroke="none" 
	d="
M294.046082,64.582718 
	C298.152466,64.577820 301.814667,64.559074 305.476227,64.597458 
	C305.934326,64.602257 306.389221,64.908859 306.759399,65.044121 
	C307.642853,66.531250 306.844482,67.690506 306.326324,68.896843 
	C295.292358,94.585396 284.168976,120.236351 273.324310,146.004608 
	C271.543823,150.235275 269.195862,151.557312 264.715454,151.476547 
	C250.973145,151.228821 251.089325,151.367264 245.861404,138.920792 
	C236.194550,115.906319 226.367081,92.959312 216.627380,69.975372 
	C215.993286,68.479034 214.945358,67.084213 215.204727,65.060379 
	C220.204681,63.664040 225.326706,64.067245 230.436172,64.307770 
	C233.183517,64.437096 233.834625,66.649368 234.626770,68.650261 
	C242.892853,89.529587 252.578827,109.846191 259.458191,131.276321 
	C259.746155,132.173431 260.272278,132.994095 261.148560,134.801437 
	C262.472412,131.226776 263.420715,128.479630 264.499084,125.784508 
	C272.040710,106.935722 279.666931,88.120422 287.112854,69.233994 
	C288.365448,66.056770 289.917572,64.021767 294.046082,64.582718 
z"/>
<path fill="#000000" opacity="1.000000" stroke="none" 
	d="
M340.590668,328.963043 
	C331.492676,328.443451 326.225250,322.290314 328.332520,315.184631 
	C329.851868,310.061493 334.395386,306.561127 339.298859,306.736115 
	C344.418610,306.918823 348.858154,310.564545 350.023621,315.543213 
	C351.121948,320.235229 348.499115,325.471130 343.782806,327.878265 
	C342.907379,328.325104 341.920471,328.553497 340.590668,328.963043 
z"/>
<path fill="#000000" opacity="1.000000" stroke="none" 
	d="
M248.356628,380.496033 
	C245.212906,375.913788 244.944824,371.593811 247.972427,367.251404 
	C250.885284,363.073578 255.039474,361.899963 259.772583,362.835815 
	C264.064270,363.684418 266.631561,366.624054 267.841522,370.747864 
	C269.141785,375.179474 267.125397,380.183197 263.053406,382.801300 
	C258.567078,385.685822 253.492783,384.980621 248.356628,380.496033 
z"/>
<path fill="#000000" opacity="1.000000" stroke="none" 
	d="
M186.594971,229.500763 
	C182.024216,223.898010 181.566605,219.295242 184.866333,214.732269 
	C187.973755,210.435226 193.128937,208.959213 198.151276,210.928604 
	C203.192627,212.905457 206.128799,218.922989 204.536194,224.014191 
	C202.688614,229.920593 196.961075,233.416458 191.363068,231.884354 
	C189.793564,231.454788 188.371414,230.486847 186.594971,229.500763 
z"/>
<path fill="#000000" opacity="1.000000" stroke="none" 
	d="
M309.668671,217.960052 
	C312.945679,211.705414 317.047333,209.198486 321.914154,210.149429 
	C326.991180,211.141449 330.552734,214.610260 331.231201,219.298492 
	C331.925903,224.098816 330.007507,227.766556 326.100555,230.414886 
	C322.231812,233.037308 318.128815,232.874069 314.342896,230.448700 
	C309.973083,227.649292 308.433838,223.451431 309.668671,217.960052 
z"/>
<path fill="#000000" opacity="1.000000" stroke="none" 
	d="
M164.662964,247.072128 
	C169.372208,238.825012 177.885834,237.226456 183.268997,243.220306 
	C187.032867,247.411163 187.238083,252.874466 183.801071,257.385101 
	C180.643234,261.529358 175.269073,262.880951 170.377975,260.760956 
	C165.458893,258.628845 163.205170,253.479492 164.662964,247.072128 
z"/>
<path fill="#000000" opacity="1.000000" stroke="none" 
	d="
M327.867920,250.972992 
	C328.488251,245.023361 331.362091,241.089996 336.823700,239.895401 
	C341.579987,238.855057 345.731323,240.528641 348.453369,244.815720 
	C351.952606,250.326797 349.919983,257.479828 344.044037,260.589111 
	C338.537384,263.502991 331.481354,261.027985 328.932098,255.212677 
	C328.405182,254.010635 328.216705,252.660248 327.867920,250.972992 
z"/>
<path fill="#000000" opacity="1.000000" stroke="none" 
	d="
M159.426819,291.463409 
	C156.077621,286.742493 155.628220,282.262482 158.999939,277.779297 
	C161.904068,273.917816 165.781158,272.643341 170.473511,273.642639 
	C175.303085,274.671173 177.924088,277.839691 178.810226,282.487030 
	C179.774292,287.542908 177.433563,291.214874 173.330353,293.820129 
	C168.954529,296.598511 164.808624,295.884613 159.426819,291.463409 
z"/>
<path fill="#000000" opacity="1.000000" stroke="none" 
	d="
M346.730896,273.307373 
	C354.204224,274.790924 357.781860,278.948273 357.313110,285.225739 
	C356.902161,290.729187 352.306519,295.139984 346.797211,295.318726 
	C340.793396,295.513519 336.285767,291.766174 335.305969,285.765594 
	C334.262085,279.372681 338.739929,274.295258 346.730896,273.307373 
z"/>
<path fill="#000000" opacity="1.000000" stroke="none" 
	d="
M180.283798,327.591614 
	C173.651550,329.996307 168.574677,328.508942 165.639221,323.606750 
	C162.848160,318.945709 163.553055,313.638428 167.454651,309.938019 
	C171.396835,306.199127 176.639191,305.720093 181.218155,308.680267 
	C188.148087,313.160339 187.865021,321.891022 180.283798,327.591614 
z"/>
<path fill="#000000" opacity="1.000000" stroke="none" 
	d="
M300.896362,206.596832 
	C297.023682,212.440582 292.960754,214.498077 287.842285,213.019241 
	C283.347229,211.720505 280.398499,208.699890 279.743073,203.912048 
	C279.063904,198.950516 281.411804,194.517395 285.834198,192.429413 
	C289.938110,190.491791 294.036835,190.892517 297.571106,193.638626 
	C301.735596,196.874390 302.306122,201.375061 300.896362,206.596832 
z"/>
<path fill="#000000" opacity="1.000000" stroke="none" 
	d="
M280.898499,371.636719 
	C277.867767,362.500275 282.851532,354.807312 291.064606,355.282349 
	C296.213379,355.580109 300.151642,358.673492 301.279694,363.305847 
	C302.535217,368.461700 300.682861,373.096649 296.299927,375.766052 
	C291.924286,378.431030 286.898224,377.897034 282.998169,374.289368 
	C282.274902,373.620300 281.726929,372.761780 280.898499,371.636719 
z"/>
<path fill="#000000" opacity="1.000000" stroke="none" 
	d="
M251.021713,204.248627 
	C245.892090,199.551697 244.713013,195.558472 246.895874,190.854370 
	C248.980408,186.362183 252.523407,183.824203 257.508179,184.047348 
	C262.734222,184.281296 266.609467,187.686951 267.870117,192.654709 
	C268.970062,196.989136 267.431061,200.592773 264.240997,203.374634 
	C260.314026,206.799118 255.912170,207.197830 251.021713,204.248627 
z"/>
<path fill="#000000" opacity="1.000000" stroke="none" 
	d="
M329.247986,341.015778 
	C332.208588,346.009064 332.159119,350.490692 328.597107,354.725128 
	C325.583130,358.308075 321.579956,359.221497 317.306274,358.117157 
	C312.730469,356.934753 309.897736,353.701904 309.260834,348.954498 
	C308.591492,343.965302 310.727081,340.226318 315.085052,337.820374 
	C319.612305,335.320984 324.501984,336.371307 329.247986,341.015778 
z"/>
<path fill="#000000" opacity="1.000000" stroke="none" 
	d="
M216.979675,375.252258 
	C212.276657,371.532227 211.604172,366.925659 213.409576,362.047241 
	C214.968826,357.833893 218.357239,355.261963 222.942307,355.253540 
	C227.513718,355.245117 231.331070,357.049194 233.413620,361.513641 
	C235.402405,365.777069 234.442963,371.107574 231.055649,374.334534 
	C227.304260,377.908356 222.920761,378.265991 216.979675,375.252258 
z"/>
<path fill="#000000" opacity="1.000000" stroke="none" 
	d="
M217.673340,211.646881 
	C212.578400,208.337784 211.664124,203.717865 213.130783,198.790314 
	C214.451447,194.353287 217.795609,191.445541 222.643433,191.354889 
	C227.399048,191.265976 231.504623,192.949692 233.468582,197.720413 
	C235.331604,202.246017 234.776703,206.558960 231.203720,210.061905 
	C227.331116,213.858612 222.836838,214.406998 217.673340,211.646881 
z"/>
<path fill="#000000" opacity="1.000000" stroke="none" 
	d="
M187.058899,356.194183 
	C182.104843,350.746948 181.500259,346.050812 184.831985,341.182892 
	C187.689377,337.008026 193.268616,335.394501 198.086349,337.349792 
	C203.874771,339.698975 206.565048,346.121979 204.100327,351.707977 
	C201.191513,358.300446 194.778336,360.109283 187.058899,356.194183 
z"/>
</svg>