<svg version="1.1" id="Layer_1" xmlns="http://www.w3.org/2000/svg" xmlns:xlink="http://www.w3.org/1999/xlink" x="0px" y="0px"
	 width="100%" viewBox="0 0 512 512" enable-background="new 0 0 512 512" xml:space="preserve">
<path fill="#000000" opacity="1.000000" stroke="none" 
	d="
M228.026047,78.942383 
	C224.444992,74.380943 221.086304,70.097710 217.662430,65.731339 
	C226.512207,61.670399 236.407089,63.844261 241.740707,70.687286 
	C247.956390,78.661964 254.187469,86.624641 260.610687,94.847046 
	C264.221008,92.224609 266.003387,88.766449 268.371429,85.873695 
	C272.376617,80.981018 276.481659,76.110100 279.900024,70.813927 
	C283.294708,65.554413 287.732178,63.629303 293.720398,64.049255 
	C296.986938,64.278336 300.268707,64.179108 303.841980,65.039055 
	C302.226562,69.275040 299.078583,71.867638 296.692871,74.942734 
	C289.449249,84.279465 282.120331,93.556541 274.567535,102.643127 
	C272.105133,105.605560 271.938263,107.587914 274.479828,110.666122 
	C284.018311,122.218620 293.264191,134.013000 302.593506,145.737564 
	C303.693024,147.119370 305.228394,148.305984 305.277588,151.075272 
	C299.304932,151.584778 293.424072,151.562302 287.559845,151.041702 
	C285.830322,150.888184 284.991791,149.018158 283.993225,147.726990 
	C277.882599,139.825653 271.853180,131.861450 265.734985,123.966026 
	C264.337769,122.162964 263.222412,120.051926 260.575684,118.609909 
	C256.926483,123.265709 253.245178,127.917786 249.614731,132.609238 
	C246.966293,136.031662 244.402969,139.519821 241.770111,142.954453 
	C235.115738,151.635223 228.076508,153.764282 216.886475,150.481125 
	C216.430954,148.508209 218.015900,147.493668 218.992874,146.250687 
	C228.353546,134.341171 237.641296,122.371269 247.206726,110.627831 
	C249.735825,107.522842 249.508820,105.507729 247.028656,102.569267 
	C240.588150,94.938667 234.485748,87.022682 228.026047,78.942383 
z"/>
<path fill="#000000" opacity="1.000000" stroke="none" 
	d="
M338.176331,306.757233 
	C348.902405,308.014221 353.603088,317.105621 347.758209,324.657349 
	C345.160522,328.013672 341.600677,329.700287 337.282196,328.852325 
	C332.438629,327.901215 329.300110,324.900452 328.169434,320.098511 
	C327.105927,315.581665 329.023773,312.013153 332.374817,309.135284 
	C333.902008,307.823730 335.735382,307.033356 338.176331,306.757233 
z"/>
<path fill="#000000" opacity="1.000000" stroke="none" 
	d="
M265.670410,366.446716 
	C268.999481,371.205780 269.112335,375.723694 265.938416,380.131226 
	C263.101624,384.070526 259.004639,385.114594 254.469589,384.235535 
	C249.959030,383.361267 247.318649,380.291138 246.150467,375.961273 
	C244.973312,371.598053 247.174393,366.686371 251.360001,364.049713 
	C255.529709,361.423096 260.703796,362.194519 265.670410,366.446716 
z"/>
<path fill="#000000" opacity="1.000000" stroke="none" 
	d="
M183.814056,324.622314 
	C180.076004,328.576904 176.044312,330.186249 171.060898,328.188934 
	C166.586227,326.395538 164.169922,322.901764 163.951126,318.299133 
	C163.740005,313.857544 166.005890,310.367889 169.896820,308.115051 
	C173.953918,305.766083 179.235901,306.523499 182.755737,309.857971 
	C186.740524,313.632904 187.167709,318.439850 183.814056,324.622314 
z"/>
<path fill="#000000" opacity="1.000000" stroke="none" 
	d="
M204.258499,224.896179 
	C200.709213,230.848801 196.425980,233.125793 191.525452,231.976700 
	C185.505920,230.565231 181.590057,224.516312 182.945251,218.722702 
	C184.284821,212.995956 190.268753,209.061600 195.774368,210.287735 
	C202.822830,211.857452 206.052368,217.203400 204.258499,224.896179 
z"/>
<path fill="#000000" opacity="1.000000" stroke="none" 
	d="
M328.492615,213.611771 
	C331.962311,218.240936 332.550995,222.772202 329.301666,227.284348 
	C326.433624,231.267014 322.547516,233.107162 317.552643,231.826248 
	C312.600677,230.556335 309.917725,227.192642 309.288879,222.295258 
	C308.671539,217.487137 310.903381,213.896133 314.961578,211.489212 
	C319.812469,208.612137 324.197723,209.869629 328.492615,213.611771 
z"/>
<path fill="#000000" opacity="1.000000" stroke="none" 
	d="
M175.820312,261.795532 
	C166.863602,262.316345 160.958054,252.647537 165.440353,245.353287 
	C168.039703,241.123199 171.798340,239.037994 176.793274,239.804306 
	C181.792038,240.571243 184.860046,243.703918 185.957062,248.510025 
	C187.037109,253.241806 185.008484,256.910858 181.266037,259.776611 
	C179.754242,260.934296 178.016174,261.413239 175.820312,261.795532 
z"/>
<path fill="#000000" opacity="1.000000" stroke="none" 
	d="
M328.417175,247.822937 
	C331.400635,241.504562 335.152557,239.088470 340.510437,239.743820 
	C345.253632,240.323959 349.064117,243.893051 350.061951,248.690201 
	C350.977203,253.090210 348.546600,258.069855 344.273529,260.437164 
	C340.395050,262.585907 336.424805,262.250702 332.927002,259.899048 
	C328.879150,257.177582 327.085419,253.189468 328.417175,247.822937 
z"/>
<path fill="#000000" opacity="1.000000" stroke="none" 
	d="
M174.089035,293.379761 
	C168.137589,296.386475 163.307190,295.757751 159.662308,291.754120 
	C156.329391,288.093140 155.758316,282.869751 158.246323,278.803070 
	C161.046692,274.225861 165.875427,272.442505 171.195755,273.734802 
	C177.854538,275.352264 183.273331,286.005981 174.089035,293.379761 
z"/>
<path fill="#000000" opacity="1.000000" stroke="none" 
	d="
M344.438751,273.400238 
	C350.328705,273.148254 354.640991,275.062042 356.674896,280.512543 
	C358.284546,284.826141 357.299683,288.793671 354.156494,292.036591 
	C350.660645,295.643311 346.349609,296.344818 341.766296,294.416473 
	C337.276367,292.527405 335.307617,288.734070 335.147980,284.096466 
	C334.982361,279.284912 338.408081,275.420013 344.438751,273.400238 
z"/>
<path fill="#000000" opacity="1.000000" stroke="none" 
	d="
M301.614319,367.615906 
	C299.660736,374.671783 295.975800,377.620270 289.902588,377.313324 
	C285.201416,377.075745 280.803864,373.453247 279.832520,369.018127 
	C278.661163,363.669861 281.237061,358.404022 286.171478,356.212677 
	C292.966187,353.195099 302.389862,357.690582 301.614319,367.615906 
z"/>
<path fill="#000000" opacity="1.000000" stroke="none" 
	d="
M300.358582,196.912903 
	C302.580261,202.395523 302.084686,207.111664 297.671631,210.778366 
	C293.849213,213.954330 289.448029,214.374863 285.129974,211.874557 
	C280.818604,209.378113 278.985352,205.383163 279.770020,200.457855 
	C280.490387,195.936096 283.295898,192.855148 287.664764,191.762070 
	C292.782867,190.481506 297.207489,191.851456 300.358582,196.912903 
z"/>
<path fill="#000000" opacity="1.000000" stroke="none" 
	d="
M323.412201,336.910095 
	C329.466217,339.838654 332.074371,343.913605 331.240448,349.157440 
	C330.528503,353.634247 327.834259,356.742065 323.533478,358.116760 
	C318.956421,359.579742 313.769287,357.720062 311.149658,353.831787 
	C308.618713,350.075195 308.290375,346.076263 310.588074,342.078705 
	C313.376007,337.228180 317.805450,336.066956 323.412201,336.910095 
z"/>
<path fill="#000000" opacity="1.000000" stroke="none" 
	d="
M260.042023,184.603302 
	C266.274078,187.395477 269.138367,192.070084 268.023041,197.090591 
	C266.908875,202.105713 262.342834,206.068390 257.483276,206.237701 
	C252.386292,206.415283 247.735962,202.568436 246.164307,197.413559 
	C244.157166,190.830154 251.947281,181.578781 260.042023,184.603302 
z"/>
<path fill="#000000" opacity="1.000000" stroke="none" 
	d="
M219.098404,212.418610 
	C213.076843,208.598190 211.155136,203.837860 213.137589,198.399918 
	C214.825531,193.769882 219.664230,190.776031 224.476349,191.384308 
	C231.494415,192.271423 235.614227,197.964142 234.224350,204.854080 
	C232.975494,211.044998 226.791611,214.284470 219.098404,212.418610 
z"/>
<path fill="#000000" opacity="1.000000" stroke="none" 
	d="
M223.022247,355.176880 
	C232.752487,356.929657 237.206055,364.405701 233.164017,371.546753 
	C230.623856,376.034454 225.729782,378.412415 220.944763,377.091156 
	C216.480698,375.858490 213.295227,373.131378 212.693619,368.199707 
	C212.026215,362.728607 214.559296,357.981262 219.255341,355.988922 
	C220.306717,355.542908 221.503799,355.440308 223.022247,355.176880 
z"/>
<path fill="#000000" opacity="1.000000" stroke="none" 
	d="
M193.153046,358.370880 
	C187.258530,357.709259 183.917755,354.534393 182.940826,349.275757 
	C182.075653,344.618652 183.963196,340.773834 187.992035,338.241547 
	C192.235794,335.574219 196.607117,335.930084 200.557144,338.779785 
	C204.396698,341.549835 205.839340,345.510284 204.582657,350.160583 
	C203.185669,355.329926 199.590759,357.924622 193.153046,358.370880 
z"/>
</svg>