<svg version="1.1" id="Layer_1" xmlns="http://www.w3.org/2000/svg" xmlns:xlink="http://www.w3.org/1999/xlink" x="0px" y="0px"
	 width="100%" viewBox="0 0 512 512" enable-background="new 0 0 512 512" xml:space="preserve">
<path fill="#000000" opacity="1.000000" stroke="none" 
	d="
M167.945068,141.966919 
	C165.093536,144.303497 162.240234,146.148178 159.964157,148.541763 
	C149.496094,159.550323 136.360352,157.844330 123.374153,156.890976 
	C121.670273,152.890686 124.000496,150.592041 126.192696,148.288284 
	C139.618866,134.178986 153.392319,120.199272 163.901108,103.821480 
	C169.899673,94.472794 176.630157,91.176453 187.082626,92.530098 
	C192.653275,93.251526 198.402725,92.842270 204.055435,92.587387 
	C207.531357,92.430664 209.373093,93.858826 211.168655,96.732506 
	C223.347763,116.224274 239.149200,132.665039 255.477203,148.637405 
	C255.807388,148.960388 256.340576,149.075821 257.076019,149.431824 
	C265.103302,141.566742 272.689575,133.232300 280.070251,124.707077 
	C288.021851,115.522430 295.686157,106.105141 302.209656,95.832947 
	C303.615601,93.619110 305.230591,92.601585 307.874481,92.628197 
	C317.702454,92.727142 327.532440,92.717087 337.360687,92.632378 
	C339.772980,92.611588 341.551270,93.390923 342.795258,95.429733 
	C354.511597,114.632103 370.090576,130.612549 385.489960,146.755066 
	C387.894989,149.276154 392.512878,151.443634 390.682983,155.553848 
	C388.971527,159.398056 384.389709,156.734955 381.136963,157.325745 
	C368.320496,159.653473 358.432922,153.982544 349.125916,145.992905 
	C341.420624,139.378265 333.622131,132.867325 326.404602,125.733665 
	C323.272766,122.638229 321.295563,122.234695 317.962799,125.644989 
	C307.364532,136.489746 295.926300,146.405670 283.358002,154.971405 
	C280.902100,156.645203 278.418457,157.417435 275.448700,157.384766 
	C265.620941,157.276657 255.704102,156.535538 245.985413,157.573181 
	C235.148132,158.730255 227.049454,154.222443 219.280975,147.963226 
	C210.338959,140.758484 201.381516,133.546997 193.517029,125.142059 
	C190.814911,122.254257 188.983368,122.472565 186.225800,125.189140 
	C180.421921,130.906738 174.237427,136.238007 167.945068,141.966919 
z"/>
<path fill="#000000" opacity="1.000000" stroke="none" 
	d="
M341.358887,328.776001 
	C333.643066,329.154694 328.617279,325.311279 327.902405,318.892426 
	C327.313019,313.600159 331.587463,307.967255 337.009186,306.891479 
	C342.413269,305.819183 348.064026,309.309814 349.782715,314.782104 
	C351.564758,320.456085 348.480255,325.779022 341.358887,328.776001 
z"/>
<path fill="#000000" opacity="1.000000" stroke="none" 
	d="
M167.225830,325.772186 
	C163.607864,321.356018 162.674210,316.897705 165.623978,312.201050 
	C167.997681,308.421661 171.491974,306.278290 176.067673,306.831635 
	C180.930115,307.419617 184.385666,310.089172 185.780441,314.888214 
	C187.191116,319.742004 185.484192,323.736267 181.612442,326.716400 
	C177.128983,330.167389 173.390594,329.889832 167.225830,325.772186 
z"/>
<path fill="#000000" opacity="1.000000" stroke="none" 
	d="
M259.539581,362.760010 
	C266.158722,365.462616 269.142426,370.110870 268.065521,375.437073 
	C267.008362,380.665649 262.765839,384.304291 257.566101,384.442108 
	C251.826721,384.594208 247.714508,381.368561 246.099731,376.009399 
	C244.409119,370.398529 250.006729,360.789642 259.539581,362.760010 
z"/>
<path fill="#000000" opacity="1.000000" stroke="none" 
	d="
M337.480469,277.605713 
	C341.293549,273.179413 345.733856,272.192871 350.687897,274.202271 
	C354.683777,275.823029 356.948517,279.005005 357.288971,283.350739 
	C357.662659,288.120972 355.555176,291.676666 351.508270,294.059418 
	C347.561249,296.383392 341.965485,295.602264 338.623749,292.400360 
	C334.784241,288.721527 334.295563,283.516418 337.480469,277.605713 
z"/>
<path fill="#000000" opacity="1.000000" stroke="none" 
	d="
M178.862793,282.498657 
	C178.960205,289.486725 175.362839,294.361145 169.854446,295.241272 
	C164.298111,296.129089 159.165421,293.063660 157.318207,287.754211 
	C155.551270,282.675537 157.666748,277.325317 162.510529,274.622589 
	C169.060806,270.967590 176.131424,274.227295 178.862793,282.498657 
z"/>
<path fill="#000000" opacity="1.000000" stroke="none" 
	d="
M163.964935,249.373047 
	C167.304733,239.775940 175.812271,236.565109 182.264633,242.254990 
	C185.591064,245.188354 187.133957,248.997009 185.811584,253.504623 
	C184.443985,258.166412 180.116394,261.831543 175.639145,261.801483 
	C171.019745,261.770477 167.186493,259.997589 165.090393,255.565796 
	C164.232681,253.752365 163.623001,251.840469 163.964935,249.373047 
z"/>
<path fill="#000000" opacity="1.000000" stroke="none" 
	d="
M328.415710,247.822266 
	C331.401855,241.515320 335.171997,239.089676 340.510162,239.749496 
	C345.241241,240.334259 349.050110,243.903992 350.058685,248.698456 
	C350.980133,253.078735 348.537354,258.074524 344.267059,260.436279 
	C340.389038,262.581085 336.421021,262.245483 332.923553,259.897583 
	C328.871735,257.177490 327.100494,253.181381 328.415710,247.822266 
z"/>
<path fill="#000000" opacity="1.000000" stroke="none" 
	d="
M324.003723,231.485779 
	C316.487701,233.047958 311.309845,230.215530 309.634308,223.971893 
	C308.046814,218.056351 311.415009,212.216675 317.483765,210.362671 
	C322.742432,208.756149 328.746246,211.927353 330.718658,217.353241 
	C332.737366,222.906433 330.623169,227.571854 324.003723,231.485779 
z"/>
<path fill="#000000" opacity="1.000000" stroke="none" 
	d="
M186.592453,229.503357 
	C182.125107,224.036316 181.489700,219.578674 184.613022,215.165695 
	C187.419800,211.199921 191.142303,209.096878 196.219543,210.405365 
	C202.714554,212.079224 206.398132,218.066666 204.537811,224.014343 
	C202.447739,230.696594 195.867264,233.877609 189.470901,231.254959 
	C188.557480,230.880417 187.740936,230.269669 186.592453,229.503357 
z"/>
<path fill="#000000" opacity="1.000000" stroke="none" 
	d="
M280.800690,197.298370 
	C284.921997,191.836517 289.133850,190.138153 294.300140,191.873062 
	C298.868042,193.407013 301.260010,196.783020 301.583496,201.572479 
	C301.924835,206.626511 299.637909,210.268066 295.147125,212.344650 
	C291.035828,214.245758 286.999725,213.737457 283.532593,210.721390 
	C279.400604,207.126938 278.613373,202.675369 280.800690,197.298370 
z"/>
<path fill="#000000" opacity="1.000000" stroke="none" 
	d="
M283.784546,357.693634 
	C289.467590,354.495758 294.799530,354.696289 298.323364,358.236145 
	C301.845520,361.774231 302.584259,366.097443 300.815643,370.665375 
	C299.025482,375.288849 294.202606,377.890839 289.101501,377.261871 
	C284.710175,376.720398 281.666229,374.147797 280.261597,370.133392 
	C278.648346,365.522827 279.673340,361.273285 283.784546,357.693634 
z"/>
<path fill="#000000" opacity="1.000000" stroke="none" 
	d="
M265.423584,202.304657 
	C261.287445,206.387207 256.903870,207.427643 251.980087,204.819366 
	C247.746750,202.576813 245.501297,198.860962 245.957672,194.190628 
	C246.429001,189.367111 249.268967,185.863510 254.084015,184.459686 
	C258.731873,183.104584 262.671112,184.729279 265.719391,188.208908 
	C269.131592,192.103943 268.978821,196.286575 265.423584,202.304657 
z"/>
<path fill="#000000" opacity="1.000000" stroke="none" 
	d="
M315.233521,337.709961 
	C320.579926,335.736694 325.228577,336.154236 328.735016,340.397614 
	C331.555969,343.811401 332.421051,347.898071 330.339355,352.057190 
	C328.032227,356.666687 324.250824,359.009521 318.974304,358.379974 
	C313.978851,357.783966 310.801300,354.988342 309.521759,350.120453 
	C308.207031,345.118805 309.815796,341.498138 315.233521,337.709961 
z"/>
<path fill="#000000" opacity="1.000000" stroke="none" 
	d="
M214.688019,209.063217 
	C211.850601,204.535583 211.782639,200.262161 214.425110,196.116821 
	C216.526230,192.820724 219.667847,191.015289 223.637711,191.289352 
	C228.477570,191.623459 232.201401,193.816055 233.904358,198.597809 
	C235.512161,203.112442 233.923538,208.125870 230.110321,211.059158 
	C226.193298,214.072296 221.630386,214.185074 217.175781,211.311707 
	C216.352905,210.780930 215.667740,210.036652 214.688019,209.063217 
z"/>
<path fill="#000000" opacity="1.000000" stroke="none" 
	d="
M233.875610,370.185791 
	C231.259964,375.292053 227.532043,377.934143 222.060974,377.243805 
	C217.792038,376.705139 214.494781,374.424896 213.176880,370.264465 
	C211.797531,365.910065 212.393494,361.695282 215.854584,358.308716 
	C219.338226,354.900085 223.470154,354.402191 227.809372,356.195404 
	C232.014175,357.933044 234.330231,361.188416 234.340073,365.851685 
	C234.342850,367.170288 234.146896,368.489288 233.875610,370.185791 
z"/>
<path fill="#000000" opacity="1.000000" stroke="none" 
	d="
M188.409607,357.058105 
	C183.013199,352.762909 181.567139,348.385010 183.620682,343.470795 
	C185.674240,338.556549 189.644638,336.202301 195.092026,336.668915 
	C200.133270,337.100739 203.817108,340.522522 204.833527,345.788025 
	C205.642014,349.976562 203.920044,353.293671 200.878525,355.915527 
	C197.217087,359.071747 193.059235,359.098541 188.409607,357.058105 
z"/>
</svg>