<svg version="1.1" id="Layer_1" xmlns="http://www.w3.org/2000/svg" xmlns:xlink="http://www.w3.org/1999/xlink" x="0px" y="0px"
	 width="100%" viewBox="0 0 512 512" enable-background="new 0 0 512 512" xml:space="preserve">
<path fill="#000000" opacity="1.000000" stroke="none" 
	d="
M300.829437,124.412598 
	C295.553589,143.543167 282.257172,154.411865 262.943695,156.480209 
	C248.191895,158.060043 234.489746,155.914276 223.568253,145.357773 
	C209.647720,131.902466 207.647217,114.953766 213.019638,97.370438 
	C218.130905,80.641830 230.642853,71.966232 247.866745,69.446335 
	C256.474976,68.186943 264.809753,68.679825 272.972076,71.301674 
	C295.221283,78.448448 303.330292,97.474678 301.885406,117.605087 
	C301.731232,119.752754 301.275879,121.878807 300.829437,124.412598 
M244.547455,133.065857 
	C248.908691,135.607178 253.673706,135.914001 258.563599,135.674835 
	C271.470459,135.043579 279.783386,124.339005 278.645477,109.761253 
	C277.708984,97.764053 266.188812,88.136566 254.471207,89.558708 
	C243.659332,90.870918 236.661423,96.598770 234.287415,106.079323 
	C231.474640,117.312088 234.722488,126.304985 244.547455,133.065857 
z"/>
<path fill="#000000" opacity="1.000000" stroke="none" 
	d="
M334.744873,98.404816 
	C344.822632,94.639832 354.554230,96.496292 359.328247,102.840828 
	C364.912781,110.262512 365.183167,125.031944 359.658173,132.083099 
	C354.738068,138.362213 348.029663,139.923737 340.442535,138.709824 
	C332.872284,137.498627 328.000488,133.120712 326.430725,125.707184 
	C324.094330,114.673180 325.742889,102.553658 334.744873,98.404816 
z"/>
<path fill="#000000" opacity="1.000000" stroke="none" 
	d="
M149.841553,121.573151 
	C149.777405,118.965538 149.560883,116.781746 149.787659,114.645012 
	C151.481659,98.683662 160.838608,94.737503 174.458084,97.138481 
	C179.849640,98.088951 183.736145,101.567894 185.647232,106.830597 
	C188.230209,113.943489 188.342896,121.221352 185.841919,128.307602 
	C183.264832,135.609528 176.041168,139.618484 167.410446,139.158813 
	C159.154556,138.719116 153.265259,134.328293 151.026962,126.872581 
	C150.550171,125.284447 150.266891,123.638229 149.841553,121.573151 
z"/>
<path fill="#000000" opacity="1.000000" stroke="none" 
	d="
M344.961975,327.197327 
	C337.570557,330.475800 331.289398,328.249329 328.697052,321.746368 
	C326.444672,316.096283 329.630768,309.459961 335.621674,307.323090 
	C341.350555,305.279724 347.972443,308.709595 349.753326,314.824768 
	C351.227661,319.887390 349.309052,323.865448 344.961975,327.197327 
z"/>
<path fill="#000000" opacity="1.000000" stroke="none" 
	d="
M245.884750,374.724854 
	C245.765854,369.119141 248.201080,365.269806 252.862091,363.346710 
	C256.671814,361.774872 260.732300,362.085144 264.085632,364.924713 
	C267.506775,367.821716 269.054840,371.582123 267.882599,376.011597 
	C266.689880,380.518402 263.820801,383.615692 259.042908,384.322693 
	C254.236053,385.034058 250.153885,383.633209 247.554581,379.263580 
	C246.807953,378.008392 246.465836,376.512634 245.884750,374.724854 
z"/>
<path fill="#000000" opacity="1.000000" stroke="none" 
	d="
M203.898148,216.473053 
	C205.716965,223.157104 204.352020,227.486282 199.805817,230.337006 
	C195.291840,233.167542 190.200607,232.855560 186.456238,229.329361 
	C183.168213,226.232910 181.829758,222.380905 183.215118,217.985672 
	C184.645340,213.448013 187.982559,210.542023 192.618988,210.103607 
	C197.370865,209.654297 201.427032,211.524765 203.898148,216.473053 
z"/>
<path fill="#000000" opacity="1.000000" stroke="none" 
	d="
M328.977417,214.232056 
	C332.172638,219.085159 332.327942,223.622803 328.828369,227.899094 
	C325.854370,231.533173 322.044830,233.091187 317.303284,231.734970 
	C312.611237,230.392914 310.043945,227.202698 309.372223,222.511047 
	C308.649292,217.462067 310.998657,213.843002 315.217468,211.358658 
	C319.603302,208.775940 323.884308,209.641785 328.977417,214.232056 
z"/>
<path fill="#000000" opacity="1.000000" stroke="none" 
	d="
M185.480042,246.973450 
	C187.033157,254.112015 183.938080,259.723755 177.883743,261.373260 
	C172.288544,262.897675 166.701416,259.976776 164.644836,254.452057 
	C162.658051,249.114838 165.102554,243.341385 170.474258,240.684021 
	C176.020432,237.940369 181.682556,240.190018 185.480042,246.973450 
z"/>
<path fill="#000000" opacity="1.000000" stroke="none" 
	d="
M177.919510,279.472961 
	C179.905334,286.549103 178.086182,291.416443 172.712280,294.218567 
	C168.440063,296.446259 162.784409,295.316895 159.526566,291.585541 
	C155.264420,286.703918 155.917099,279.710236 161.013733,275.649567 
	C166.293930,271.442627 173.260849,272.885803 177.919510,279.472961 
z"/>
<path fill="#000000" opacity="1.000000" stroke="none" 
	d="
M349.021820,273.699921 
	C355.677429,276.534454 358.546356,281.503418 357.076202,287.037323 
	C355.706635,292.192444 350.889404,295.623962 345.466522,295.307404 
	C340.099945,294.994080 335.981415,291.021362 335.243652,285.446472 
	C334.267242,278.068390 340.429138,272.637573 349.021820,273.699921 
z"/>
<path fill="#000000" opacity="1.000000" stroke="none" 
	d="
M182.393158,309.528656 
	C186.794662,315.037750 187.340988,318.827484 184.549423,323.455872 
	C182.191803,327.364838 178.608978,329.446472 174.120361,328.955627 
	C169.036758,328.399750 165.549286,325.422485 164.259705,320.338287 
	C163.108734,315.800568 164.849228,312.135132 168.298859,309.288300 
	C172.479370,305.838348 176.208771,305.914215 182.393158,309.528656 
z"/>
<path fill="#000000" opacity="1.000000" stroke="none" 
	d="
M334.524048,260.825531 
	C328.673706,256.941711 326.832336,252.738129 328.501862,247.714417 
	C330.191681,242.629578 334.299377,239.564240 339.261841,239.684814 
	C344.526093,239.812714 348.676849,243.279312 349.992706,248.455673 
	C351.794739,255.544525 343.909119,264.747955 334.524048,260.825531 
z"/>
<path fill="#000000" opacity="1.000000" stroke="none" 
	d="
M299.060791,359.013641 
	C303.237396,366.015198 302.105072,372.231018 296.299255,375.766541 
	C291.159332,378.896515 284.797546,377.455933 281.380371,372.388214 
	C278.435516,368.020966 279.170502,361.880188 283.069550,358.275269 
	C287.532806,354.148682 293.142853,354.304657 299.060791,359.013641 
z"/>
<path fill="#000000" opacity="1.000000" stroke="none" 
	d="
M284.695068,211.627777 
	C279.742676,207.104950 278.326813,202.712769 280.389252,198.196686 
	C282.428070,193.732437 285.934113,191.195038 290.965729,191.353943 
	C295.708221,191.503708 299.370544,193.701050 300.899994,198.274246 
	C302.345581,202.596680 301.934082,206.934479 298.334961,210.210648 
	C294.374023,213.816162 289.840515,214.410934 284.695068,211.627777 
z"/>
<path fill="#000000" opacity="1.000000" stroke="none" 
	d="
M263.592285,186.203552 
	C268.387604,191.003235 269.418915,195.149017 266.996887,199.814911 
	C264.726837,204.188034 261.054901,206.541458 256.065033,206.126160 
	C251.104767,205.713333 247.157516,201.941574 246.113174,196.976837 
	C245.234161,192.798035 246.898865,189.398926 249.901932,186.753494 
	C254.056458,183.093704 258.644073,183.277969 263.592285,186.203552 
z"/>
<path fill="#000000" opacity="1.000000" stroke="none" 
	d="
M331.316559,347.124207 
	C330.524384,354.665009 326.221008,358.691895 319.691681,358.430511 
	C313.928619,358.199799 309.368713,353.682495 309.072510,347.910492 
	C308.799286,342.585846 313.136444,337.383514 318.409851,336.710693 
	C325.305481,335.830872 329.591217,339.152435 331.316559,347.124207 
z"/>
<path fill="#000000" opacity="1.000000" stroke="none" 
	d="
M231.996735,359.209351 
	C235.249130,364.968414 235.193665,369.494324 231.939529,373.350861 
	C228.845169,377.018097 224.825287,378.202667 220.282608,376.917450 
	C213.951920,375.126282 210.801880,368.272278 213.276382,362.132690 
	C215.664978,356.206268 222.208466,353.606018 228.117752,356.352264 
	C229.438477,356.966034 230.546204,358.038147 231.996735,359.209351 
z"/>
<path fill="#000000" opacity="1.000000" stroke="none" 
	d="
M212.644211,202.922424 
	C213.218109,195.182968 217.600113,190.877487 223.937057,191.390976 
	C230.960373,191.960083 235.086548,196.953049 234.308426,203.941086 
	C233.677551,209.606827 228.083801,213.900742 222.161514,213.265396 
	C216.980179,212.709518 213.710602,209.299896 212.644211,202.922424 
z"/>
<path fill="#000000" opacity="1.000000" stroke="none" 
	d="
M183.723175,351.836121 
	C181.835236,344.949829 184.332260,339.284637 189.888947,337.158417 
	C195.093628,335.166901 201.507370,337.703674 203.857986,342.683533 
	C206.383865,348.034760 204.320816,354.313965 199.090515,357.194092 
	C193.699783,360.162567 187.814850,358.237671 183.723175,351.836121 
z"/>
</svg>