<svg version="1.1" id="Layer_1" xmlns="http://www.w3.org/2000/svg" xmlns:xlink="http://www.w3.org/1999/xlink" x="0px" y="0px"
	 width="100%" viewBox="0 0 512 512" enable-background="new 0 0 512 512" xml:space="preserve">
<path fill="#000000" opacity="1.000000" stroke="none" 
	d="
M280.925354,68.736458 
	C303.164917,58.040997 327.605896,62.946545 340.295105,81.294991 
	C358.927734,108.237610 346.861877,149.161606 313.556183,156.584763 
	C293.524048,161.049500 277.349915,153.687180 264.281860,138.527130 
	C261.711761,135.545609 259.255981,132.465591 256.368805,128.972900 
	C250.549423,135.422897 245.444626,141.736984 238.951508,146.749710 
	C215.535751,164.826797 181.227448,157.445129 169.493881,131.071121 
	C160.335678,110.485847 164.701279,85.542656 183.279480,71.611290 
	C200.766373,58.498276 225.660461,59.929504 243.161453,75.102921 
	C247.204697,78.608429 250.682236,82.636902 254.035751,86.788467 
	C255.044800,88.037643 255.740967,89.701286 258.188202,90.139854 
	C264.385284,82.000603 271.268951,74.124954 280.925354,68.736458 
M191.247284,126.205124 
	C198.410095,135.199982 207.954910,137.466309 218.541534,134.827011 
	C231.442902,131.610641 237.950714,121.029518 244.354950,110.608376 
	C245.258911,109.137413 244.555008,107.708183 243.739563,106.399666 
	C240.031189,100.448967 235.969604,94.783356 230.526245,90.254326 
	C223.159531,84.125053 214.730148,81.649483 205.401718,84.013092 
	C187.322784,88.593887 180.216125,109.170547 191.247284,126.205124 
M318.760590,89.707642 
	C307.402283,81.256081 295.264618,81.466873 284.413330,90.242439 
	C278.510803,95.015869 274.101501,101.027328 269.898010,107.248856 
	C268.583679,109.194199 268.700562,110.799355 269.893982,112.724319 
	C273.155396,117.984741 276.893738,122.878403 281.352448,127.140945 
	C286.744781,132.296036 292.922638,136.183502 300.636841,136.615341 
	C311.346405,137.214874 321.208252,131.062500 325.399567,121.384850 
	C330.152771,110.409752 327.889862,98.836021 318.760590,89.707642 
z"/>
<path fill="#000000" opacity="1.000000" stroke="none" 
	d="
M348.830078,312.547119 
	C351.571014,320.126831 348.923798,326.231750 342.267548,328.478729 
	C336.598541,330.392426 330.562469,327.186401 328.493317,321.162598 
	C326.836212,316.338318 329.167145,310.718201 333.919037,308.080811 
	C338.934601,305.297028 344.248352,306.786957 348.830078,312.547119 
z"/>
<path fill="#000000" opacity="1.000000" stroke="none" 
	d="
M247.101837,378.538086 
	C244.714447,371.153198 247.703217,364.530701 253.823700,362.882324 
	C260.156158,361.176819 266.152771,364.568970 267.880005,370.833710 
	C269.206757,375.645874 266.689148,381.046417 262.027344,383.388367 
	C256.810150,386.009338 251.447556,384.373901 247.101837,378.538086 
z"/>
<path fill="#000000" opacity="1.000000" stroke="none" 
	d="
M166.728973,325.184570 
	C163.234833,320.500916 162.896103,315.962219 166.173798,311.512299 
	C168.697525,308.085999 172.152924,306.152893 176.552811,306.899567 
	C181.442184,307.729340 184.624512,310.619598 185.917526,315.459137 
	C187.044800,319.678284 184.986359,324.578949 181.067627,327.106964 
	C176.294327,330.186249 172.493286,329.748291 166.728973,325.184570 
z"/>
<path fill="#000000" opacity="1.000000" stroke="none" 
	d="
M339.256714,292.927979 
	C335.237030,288.847321 333.940125,284.458405 336.357117,279.494812 
	C338.345093,275.412262 341.768616,273.121674 346.354340,273.305573 
	C351.229492,273.501068 354.982178,275.745697 356.678650,280.565369 
	C358.354523,285.326416 357.069794,289.443451 353.381409,292.736145 
	C349.560944,296.146759 345.077271,296.205536 339.256714,292.927979 
z"/>
<path fill="#000000" opacity="1.000000" stroke="none" 
	d="
M156.934204,286.481262 
	C156.735199,279.930573 159.374893,275.325806 164.217255,273.884857 
	C168.878540,272.497803 173.182098,273.368256 176.456848,277.200378 
	C180.536270,281.974091 179.575348,289.278046 174.506180,293.101410 
	C169.583237,296.814484 162.604141,295.861755 159.015121,290.880341 
	C158.156708,289.688904 157.678497,288.223572 156.934204,286.481262 
z"/>
<path fill="#000000" opacity="1.000000" stroke="none" 
	d="
M177.483612,239.888596 
	C184.254730,242.744827 187.334442,247.728165 185.967880,253.038788 
	C184.565964,258.486786 179.409225,262.252014 174.142761,261.673004 
	C168.028946,261.000793 163.540741,256.009827 163.878784,250.259277 
	C164.263794,243.709534 169.486267,239.574524 177.483612,239.888596 
z"/>
<path fill="#000000" opacity="1.000000" stroke="none" 
	d="
M201.172760,212.735016 
	C204.969116,216.956589 206.291565,221.331848 203.593475,226.238190 
	C201.303116,230.403076 197.628540,232.581879 192.894165,232.141846 
	C187.962204,231.683456 184.592773,228.843903 183.184296,224.035522 
	C181.814133,219.357864 183.359940,215.460144 187.052246,212.494659 
	C191.588120,208.851608 196.265701,209.415436 201.172760,212.735016 
z"/>
<path fill="#000000" opacity="1.000000" stroke="none" 
	d="
M338.175842,239.694351 
	C343.790649,239.688553 347.441772,242.000610 349.440887,246.865921 
	C351.251617,251.272842 349.957581,255.084366 346.969818,258.333344 
	C343.879578,261.693787 339.900940,262.451630 335.553162,261.186279 
	C331.162109,259.908325 327.783325,255.216690 327.885986,250.617035 
	C328.001404,245.444565 331.652039,241.410110 338.175842,239.694351 
z"/>
<path fill="#000000" opacity="1.000000" stroke="none" 
	d="
M329.437805,214.873352 
	C332.445129,221.492096 331.728516,225.791779 327.271515,229.558228 
	C323.450989,232.786819 318.709106,233.100327 314.317596,230.414734 
	C310.331329,227.976944 308.354858,222.936813 309.628662,218.289459 
	C310.787079,214.063171 313.699219,211.397644 317.786560,210.345825 
	C322.401611,209.158218 326.235291,210.879318 329.437805,214.873352 
z"/>
<path fill="#000000" opacity="1.000000" stroke="none" 
	d="
M291.760498,377.296448 
	C284.958679,376.978912 280.608673,373.661621 279.765991,368.486847 
	C278.845947,362.837036 281.865997,357.637573 287.112793,355.838379 
	C291.994080,354.164490 297.522217,356.155579 300.132477,360.527710 
	C304.243469,367.413544 300.727295,374.819366 291.760498,377.296448 
z"/>
<path fill="#000000" opacity="1.000000" stroke="none" 
	d="
M250.441925,186.293427 
	C256.457520,181.311295 265.267456,185.679459 267.204254,190.525757 
	C269.713074,196.803253 266.732208,203.528961 260.143280,205.693726 
	C255.638794,207.173660 250.277069,205.077911 247.655869,200.812744 
	C244.606552,195.850952 245.315109,191.761185 250.441925,186.293427 
z"/>
<path fill="#000000" opacity="1.000000" stroke="none" 
	d="
M280.814880,197.305725 
	C284.940399,191.844315 289.128662,190.138519 294.288025,191.880981 
	C298.824036,193.412964 301.205872,196.712738 301.514801,201.558273 
	C301.839539,206.651367 299.564056,210.229050 295.124420,212.326614 
	C291.026550,214.262711 286.987488,213.719803 283.541321,210.703171 
	C279.445618,207.117935 278.606781,202.677490 280.814880,197.305725 
z"/>
<path fill="#000000" opacity="1.000000" stroke="none" 
	d="
M330.073303,352.630524 
	C325.911469,358.024170 321.968506,359.690430 316.985474,358.070648 
	C312.252228,356.532104 309.473114,353.074890 309.156281,348.142975 
	C308.852600,343.415833 311.045563,339.723114 315.389282,337.697296 
	C319.642365,335.713745 323.979980,335.970154 327.505524,339.161469 
	C331.444153,342.726685 332.504883,347.245758 330.073303,352.630524 
z"/>
<path fill="#000000" opacity="1.000000" stroke="none" 
	d="
M234.327606,367.737549 
	C232.427979,374.359283 228.977356,377.300201 223.563583,377.319214 
	C218.663956,377.336426 214.199402,374.193665 212.938004,369.839539 
	C211.476501,364.794647 213.417419,359.564758 217.796188,356.796326 
	C221.382080,354.529175 225.065475,354.812775 228.671738,356.631104 
	C233.027878,358.827515 234.677490,362.572723 234.327606,367.737549 
z"/>
<path fill="#000000" opacity="1.000000" stroke="none" 
	d="
M229.625244,193.142792 
	C235.105530,198.280518 235.951477,203.818237 232.316406,208.755310 
	C228.911835,213.379257 223.170486,214.683899 218.213013,211.960022 
	C212.905991,209.044098 210.963455,202.857773 213.650543,197.430222 
	C216.618744,191.434906 221.887772,189.923660 229.625244,193.142792 
z"/>
<path fill="#000000" opacity="1.000000" stroke="none" 
	d="
M204.353394,350.972351 
	C200.295425,360.892426 188.836060,359.790192 184.839935,353.924652 
	C181.845062,349.528748 182.085495,344.111786 185.601120,340.140198 
	C188.783401,336.545166 194.380844,335.510193 198.802612,337.699188 
	C203.669159,340.108398 205.666977,344.663055 204.353394,350.972351 
z"/>
</svg>