<svg version="1.1" id="Layer_1" xmlns="http://www.w3.org/2000/svg" xmlns:xlink="http://www.w3.org/1999/xlink" x="0px" y="0px"
	 width="100%" viewBox="0 0 512 512" enable-background="new 0 0 512 512" xml:space="preserve">
<path fill="#000000" opacity="1.000000" stroke="none" 
	d="
M308.537781,109.423920 
	C315.940308,118.351479 315.960114,128.045380 312.045868,137.789139 
	C309.045227,145.258545 301.160339,148.453384 291.451416,147.239395 
	C283.960541,146.302750 278.425323,140.863205 276.781219,132.958160 
	C275.746918,127.985176 275.968872,123.018028 277.056061,118.144463 
	C280.038910,104.772896 295.956604,100.241013 308.537781,109.423920 
z"/>
<path fill="#000000" opacity="1.000000" stroke="none" 
	d="
M242.814728,45.804981 
	C250.091492,40.066685 257.870544,39.805943 265.594818,43.173962 
	C273.267853,46.519646 275.336121,53.499264 275.359985,61.284546 
	C275.365601,63.111423 275.420959,64.943283 275.312988,66.764519 
	C274.703613,77.043182 267.162781,83.931114 256.469208,84.025581 
	C245.923492,84.118729 238.195770,77.114197 237.697708,66.772690 
	C237.344925,59.447960 237.028503,52.051838 242.814728,45.804981 
z"/>
<path fill="#000000" opacity="1.000000" stroke="none" 
	d="
M199.231140,121.618851 
	C201.047104,109.902420 207.171661,104.527252 218.120163,104.696442 
	C228.859039,104.862404 234.952621,110.622559 236.437195,121.891235 
	C236.785843,124.537621 237.056885,127.102615 236.648163,129.812164 
	C234.719986,142.594955 228.462509,147.919144 215.740097,147.335922 
	C205.832367,146.881744 199.483917,139.653137 198.886246,128.021896 
	C198.784378,126.039200 199.044952,124.037880 199.231140,121.618851 
z"/>
<path fill="#000000" opacity="1.000000" stroke="none" 
	d="
M340.628052,306.869843 
	C346.067444,308.112152 349.285858,311.212830 350.111053,316.294983 
	C350.801727,320.548828 349.066925,324.118195 345.669830,326.721710 
	C341.685577,329.775208 336.862427,329.802216 332.712830,326.996979 
	C329.036102,324.511322 327.118530,319.400787 328.293732,315.219543 
	C329.806061,309.838867 333.827759,307.000061 340.628052,306.869843 
z"/>
<path fill="#000000" opacity="1.000000" stroke="none" 
	d="
M267.266083,377.818237 
	C263.571411,383.650970 259.827148,385.506165 254.270523,384.215393 
	C249.587402,383.127533 246.871552,379.872589 246.020966,375.279999 
	C245.140320,370.525208 247.244629,366.766296 251.144608,364.267761 
	C255.275513,361.621277 259.761200,361.716461 263.682617,364.674438 
	C267.938873,367.884949 269.355103,372.258820 267.266083,377.818237 
z"/>
<path fill="#000000" opacity="1.000000" stroke="none" 
	d="
M171.153900,328.219116 
	C165.266251,324.857788 162.956528,320.442352 164.234177,315.569183 
	C165.586517,310.411102 170.017395,306.740082 174.899506,306.732849 
	C180.053146,306.725220 184.409302,310.088226 185.857895,315.192902 
	C188.203033,323.456940 180.499451,330.526489 171.153900,328.219116 
z"/>
<path fill="#000000" opacity="1.000000" stroke="none" 
	d="
M177.262848,290.000763 
	C172.645508,295.488953 168.262955,296.720306 163.118820,294.256256 
	C158.587158,292.085602 156.027496,287.264709 156.824814,282.402161 
	C157.566895,277.876465 161.553757,273.974548 166.232361,273.427917 
	C170.439362,272.936401 174.236923,274.014801 176.755035,277.600403 
	C179.409286,281.379883 180.106964,285.476685 177.262848,290.000763 
z"/>
<path fill="#000000" opacity="1.000000" stroke="none" 
	d="
M310.976440,215.196167 
	C314.663300,210.509598 318.983795,208.658249 324.387848,210.843430 
	C329.038177,212.723831 331.411194,216.338226 331.305878,221.372696 
	C331.199188,226.472534 328.335266,229.754211 323.784882,231.531860 
	C319.453400,233.223969 315.413361,232.110321 312.354645,228.839432 
	C308.709686,224.941589 308.012268,220.348251 310.976440,215.196167 
z"/>
<path fill="#000000" opacity="1.000000" stroke="none" 
	d="
M172.535156,239.859650 
	C178.257202,239.198364 182.481293,240.904083 185.018219,245.801697 
	C187.158569,249.933670 186.570450,253.919250 183.704330,257.468506 
	C180.872330,260.975464 177.238922,262.415497 172.650604,261.424072 
	C168.036606,260.427094 165.412766,257.534729 164.245758,253.193222 
	C163.085632,248.877258 164.700134,245.311508 167.858368,242.458115 
	C169.059219,241.373154 170.693222,240.767593 172.535156,239.859650 
z"/>
<path fill="#000000" opacity="1.000000" stroke="none" 
	d="
M348.973816,255.564423 
	C344.818207,261.292511 340.992615,262.876556 335.586548,261.189148 
	C330.938629,259.738373 328.386780,256.263580 327.988434,251.626144 
	C327.565033,246.696930 329.992859,242.932800 334.431824,240.733643 
	C338.778320,238.580322 343.028259,239.339630 346.480194,242.503769 
	C350.244537,245.954239 351.382935,250.319595 348.973816,255.564423 
z"/>
<path fill="#000000" opacity="1.000000" stroke="none" 
	d="
M201.188629,212.715881 
	C205.552200,218.237793 206.128174,222.050827 203.410294,226.573990 
	C200.971039,230.633423 197.294098,232.680496 192.601944,232.123260 
	C187.706360,231.541840 184.415161,228.622406 183.107574,223.847122 
	C181.835693,219.202209 183.423172,215.322433 187.125824,212.409958 
	C191.665115,208.839340 196.315338,209.434250 201.188629,212.715881 
z"/>
<path fill="#000000" opacity="1.000000" stroke="none" 
	d="
M352.927216,293.134094 
	C346.390015,296.722626 340.593170,295.698425 337.180084,290.634766 
	C333.797760,285.616760 334.839478,279.067200 339.589264,275.487366 
	C344.110657,272.079681 350.777893,272.699738 354.559601,276.879639 
	C358.670197,281.423004 358.179504,287.445312 352.927216,293.134094 
z"/>
<path fill="#000000" opacity="1.000000" stroke="none" 
	d="
M296.086792,356.643616 
	C301.099640,359.824799 302.544952,364.227386 301.222076,369.366180 
	C300.098846,373.729645 297.039734,376.532440 292.479736,377.220825 
	C287.539154,377.966705 283.540955,376.164764 281.060822,371.824677 
	C278.710175,367.711212 278.981262,363.499481 281.849884,359.648163 
	C285.026306,355.383575 289.239990,354.471436 296.086792,356.643616 
z"/>
<path fill="#000000" opacity="1.000000" stroke="none" 
	d="
M254.658630,205.899872 
	C244.975983,201.700623 242.917862,192.206345 250.096146,186.513458 
	C254.250168,183.219009 259.606964,183.183426 263.956696,186.421371 
	C267.578857,189.117737 269.086029,194.173584 267.551147,198.478928 
	C265.606750,203.932968 261.502350,206.408005 254.658630,205.899872 
z"/>
<path fill="#000000" opacity="1.000000" stroke="none" 
	d="
M285.718872,192.439468 
	C292.923950,190.361374 298.062714,192.143127 300.557922,197.279022 
	C302.813080,201.920746 301.584991,207.704102 297.677795,210.842621 
	C292.632172,214.895630 285.668427,214.047928 281.763824,208.905396 
	C277.725494,203.586761 279.138336,197.240616 285.718872,192.439468 
z"/>
<path fill="#000000" opacity="1.000000" stroke="none" 
	d="
M313.113647,355.993805 
	C308.438538,350.509613 307.895325,345.947784 311.095245,341.274384 
	C313.950409,337.104523 319.507324,335.419739 324.401398,337.240173 
	C328.902008,338.914246 331.774689,343.733368 331.295898,348.806030 
	C330.504211,357.193726 321.711639,360.844940 313.113647,355.993805 
z"/>
<path fill="#000000" opacity="1.000000" stroke="none" 
	d="
M215.168213,209.702545 
	C211.902359,205.199020 211.639664,200.770294 214.255264,196.370422 
	C216.356857,192.835220 219.636185,190.966721 223.826584,191.302582 
	C228.694656,191.692764 232.504166,193.953842 233.922974,198.803177 
	C235.275681,203.426514 234.329987,207.746857 230.353043,210.890823 
	C226.432556,213.990158 222.184601,214.224808 217.836975,211.748337 
	C216.980927,211.260727 216.230743,210.587250 215.168213,209.702545 
z"/>
<path fill="#000000" opacity="1.000000" stroke="none" 
	d="
M223.022156,355.177246 
	C232.757309,356.934387 237.205856,364.402191 233.163803,371.547516 
	C230.625305,376.034943 225.731125,378.412872 220.945023,377.091187 
	C216.481369,375.858490 213.294434,373.133179 212.693527,368.200195 
	C212.027176,362.729889 214.559418,357.982880 219.255264,355.989166 
	C220.306488,355.542877 221.503708,355.440521 223.022156,355.177246 
z"/>
<path fill="#000000" opacity="1.000000" stroke="none" 
	d="
M194.790756,336.657715 
	C201.755997,338.248413 205.275681,342.238037 205.089066,347.866119 
	C204.920105,352.961578 200.470627,357.786621 195.439117,358.330566 
	C189.591141,358.962769 184.841599,355.913605 183.186295,350.464325 
	C181.053894,343.444427 186.235794,337.037262 194.790756,336.657715 
z"/>
</svg>