<svg version="1.1" id="Layer_1" xmlns="http://www.w3.org/2000/svg" xmlns:xlink="http://www.w3.org/1999/xlink" x="0px" y="0px"
	 width="100%" viewBox="0 0 512 512" enable-background="new 0 0 512 512" xml:space="preserve">
<path fill="#000000" opacity="1.000000" stroke="none" 
	d="
M322.453064,440.340759 
	C321.381500,441.587891 320.142151,442.295715 319.691467,444.925537 
	C324.917572,449.961639 330.541992,455.598328 336.420197,460.956604 
	C339.453522,463.721619 339.680634,465.845825 336.461243,468.590088 
	C333.553497,471.068665 330.864227,473.841064 328.322479,476.700653 
	C325.888824,479.438599 323.959717,479.557037 321.428772,476.736450 
	C316.001160,470.687744 310.341827,464.846985 304.398224,458.517334 
	C297.494873,465.425964 291.467072,471.126801 285.856323,477.212219 
	C283.011505,480.297699 281.034363,480.495697 278.311920,477.277649 
	C275.952332,474.488586 273.279572,471.938782 270.563080,469.484863 
	C268.072815,467.235321 268.437958,465.526428 270.706238,463.318451 
	C275.958313,458.206085 280.918488,452.793640 286.174561,447.685577 
	C288.500336,445.425293 288.569824,443.770752 286.200500,441.514252 
	C281.133820,436.688782 276.361481,431.552704 271.262604,426.763153 
	C268.520050,424.187012 268.616699,422.261017 271.376984,419.839752 
	C274.252411,417.317474 277.020538,414.623779 279.513153,411.727539 
	C282.186707,408.621063 284.299286,408.425201 287.130005,411.621368 
	C291.213287,416.231781 295.637482,420.542908 299.972931,424.925598 
	C301.233490,426.199921 302.274567,427.809906 304.785706,428.465942 
	C309.786316,423.571869 315.007141,418.483734 320.203522,413.370697 
	C325.686066,407.976105 325.675415,407.966125 330.876617,413.289062 
	C332.972809,415.434235 334.991608,417.663300 337.190948,419.697083 
	C339.433472,421.770813 339.205536,423.458954 337.096039,425.520752 
	C332.210999,430.295380 327.480408,435.227997 322.453064,440.340759 
z"/>
<path fill="#000000" opacity="1.000000" stroke="none" 
	d="
M206.258026,463.338654 
	C201.307495,468.292358 196.504898,472.912415 191.941620,477.757843 
	C189.653000,480.187927 187.849350,480.708893 185.417648,477.998688 
	C182.753235,475.029144 179.897552,472.214264 176.958817,469.513031 
	C174.520737,467.272003 174.774872,465.523651 177.102890,463.355865 
	C183.420181,457.473419 189.596207,451.439270 196.333084,444.981293 
	C190.252853,438.844818 184.920395,433.451904 179.575089,428.071716 
	C174.851349,423.317169 174.845932,423.324310 179.436386,418.733429 
	C181.908081,416.261505 184.489105,413.886841 186.813873,411.283508 
	C189.098679,408.724823 190.978912,408.673859 193.363785,411.223236 
	C197.796860,415.962036 202.428162,420.516327 207.010773,425.113708 
	C208.166534,426.273193 209.107758,427.722839 211.582550,428.510651 
	C216.809143,423.292053 222.512405,417.992340 227.725403,412.247772 
	C230.966721,408.675903 233.119339,408.669342 236.509659,412.143219 
	C246.535431,422.416229 246.668976,422.287964 236.465881,432.514709 
	C233.996796,434.989532 231.669662,437.634552 229.006134,439.879639 
	C225.715546,442.653290 226.176056,444.774689 229.148422,447.513947 
	C234.040970,452.022736 238.535263,456.960968 243.360062,461.547089 
	C245.752197,463.820831 246.323990,465.644714 243.599365,468.095490 
	C240.509659,470.874664 237.570114,473.844086 234.777313,476.923126 
	C232.225052,479.736969 230.302795,479.267120 227.790085,476.730927 
	C222.185745,471.074219 216.310760,465.685699 210.303574,459.956696 
	C208.738678,460.149414 207.910248,462.016357 206.258026,463.338654 
z"/>
<path fill="#000000" opacity="1.000000" stroke="none" 
	d="
M184.541946,227.143372 
	C181.830429,222.246674 182.058807,217.848938 185.513336,213.918930 
	C188.451309,210.576553 192.070709,209.219696 196.645004,210.469650 
	C201.395859,211.767868 203.846130,214.866974 204.808426,219.448257 
	C205.727631,223.824402 203.196198,228.673798 198.849396,230.923767 
	C193.846970,233.513107 189.436951,232.434189 184.541946,227.143372 
z"/>
<path fill="#000000" opacity="1.000000" stroke="none" 
	d="
M181.769760,309.055542 
	C186.488281,314.150360 187.373184,318.162384 184.939163,322.786102 
	C182.719482,327.002655 179.096741,329.172211 174.393494,329.014557 
	C169.638092,328.855133 165.671707,325.366852 164.344025,320.611450 
	C163.079071,316.080688 164.713898,312.383667 168.091751,309.481171 
	C172.294754,305.869568 176.846970,305.948151 181.769760,309.055542 
z"/>
<path fill="#000000" opacity="1.000000" stroke="none" 
	d="
M255.372284,184.043793 
	C262.979736,184.652695 266.307281,186.951950 267.797638,192.414215 
	C269.094116,197.165878 267.318024,200.955444 263.671295,203.868668 
	C258.718414,207.825317 251.480515,206.572586 247.865402,201.314163 
	C244.384903,196.251556 245.715652,189.352921 250.918304,185.985855 
	C252.155807,185.184967 253.621140,184.736099 255.372284,184.043793 
z"/>
<path fill="#000000" opacity="1.000000" stroke="none" 
	d="
M250.065964,382.175720 
	C245.936996,378.158478 244.572449,373.838470 247.039352,368.800842 
	C249.287155,364.210663 253.736130,361.960083 259.056152,362.727203 
	C263.921936,363.428833 266.773651,366.537048 267.907257,371.092224 
	C269.017273,375.552643 267.487335,379.420624 263.875183,382.149658 
	C259.552124,385.415863 254.937195,385.269196 250.065964,382.175720 
z"/>
<path fill="#000000" opacity="1.000000" stroke="none" 
	d="
M350.244293,317.970398 
	C348.071075,327.706635 340.635773,331.704712 333.387726,327.313965 
	C329.336731,324.859924 327.387512,321.098206 328.072662,316.348907 
	C328.746307,311.679230 332.752258,307.727936 337.232910,306.886261 
	C341.498871,306.084869 346.577911,308.415405 348.623230,312.378357 
	C349.441132,313.963135 349.722260,315.824890 350.244293,317.970398 
z"/>
<path fill="#000000" opacity="1.000000" stroke="none" 
	d="
M349.778717,273.851288 
	C356.084076,277.180573 358.556671,282.008453 356.987457,287.287903 
	C355.456299,292.439331 350.618011,295.723572 345.195587,295.292358 
	C340.060333,294.883972 336.116699,291.047394 335.294403,285.660034 
	C334.111786,277.911591 340.598206,272.438446 349.778717,273.851288 
z"/>
<path fill="#000000" opacity="1.000000" stroke="none" 
	d="
M162.754166,274.492920 
	C169.838455,272.373535 174.740753,273.861969 177.474152,278.668549 
	C180.072067,283.236877 179.244598,288.749512 175.420883,292.347534 
	C170.811188,296.685150 163.454269,296.259644 159.392227,291.420471 
	C154.876190,286.040436 156.042892,279.606018 162.754166,274.492920 
z"/>
<path fill="#000000" opacity="1.000000" stroke="none" 
	d="
M328.930115,246.333466 
	C332.754639,240.592819 336.524139,238.693497 341.562256,239.913605 
	C346.448975,241.097046 349.388123,244.379303 350.099426,249.251846 
	C350.791138,253.990250 348.632355,257.688599 344.620514,260.177185 
	C340.484680,262.742737 336.293762,262.213226 332.443634,259.588135 
	C328.422668,256.846558 327.254425,252.265198 328.930115,246.333466 
z"/>
<path fill="#000000" opacity="1.000000" stroke="none" 
	d="
M183.212173,258.134491 
	C178.044449,263.897888 168.912109,262.100922 165.654938,256.656616 
	C162.264084,250.988846 164.118057,244.090302 170.085358,240.865402 
	C174.175659,238.654877 179.704895,239.522522 182.983414,242.889313 
	C187.094009,247.110641 187.243362,251.870010 183.212173,258.134491 
z"/>
<path fill="#000000" opacity="1.000000" stroke="none" 
	d="
M323.248779,231.783569 
	C317.565796,232.820847 313.258484,231.299820 310.609436,226.447845 
	C308.324585,222.262894 308.621399,218.100632 311.620483,214.306427 
	C315.777283,209.047623 323.179749,208.497452 327.933228,213.028748 
	C332.681244,217.554825 332.509491,224.997589 327.455109,229.354492 
	C326.347443,230.309311 324.912964,230.885010 323.248779,231.783569 
z"/>
<path fill="#000000" opacity="1.000000" stroke="none" 
	d="
M285.720886,356.440704 
	C292.857513,354.333801 298.002380,356.122406 300.546570,361.288086 
	C302.807587,365.878845 301.566986,371.720612 297.664246,374.860016 
	C292.629333,378.910095 285.645599,378.050476 281.750916,372.901245 
	C277.723419,367.576416 279.150635,361.194794 285.720886,356.440704 
z"/>
<path fill="#000000" opacity="1.000000" stroke="none" 
	d="
M288.437012,213.183838 
	C281.334839,210.300537 278.492218,205.621063 279.844940,199.660553 
	C280.935516,194.855072 285.865631,191.133255 290.894684,191.318893 
	C297.365356,191.557755 301.751434,196.125671 301.695465,202.567429 
	C301.638275,209.143463 296.657623,213.282135 288.437012,213.183838 
z"/>
<path fill="#000000" opacity="1.000000" stroke="none" 
	d="
M320.063904,336.646240 
	C327.665222,337.445648 331.643829,341.727325 331.312683,348.288666 
	C331.029999,353.889160 326.203522,358.396545 320.437988,358.444305 
	C314.354919,358.494720 309.568298,354.156555 309.098785,348.167419 
	C308.641998,342.340088 312.946411,337.636383 320.063904,336.646240 
z"/>
<path fill="#000000" opacity="1.000000" stroke="none" 
	d="
M232.202316,208.962585 
	C226.753769,214.029221 221.709534,214.639038 216.815002,211.122818 
	C212.715179,208.177490 211.297150,202.517151 213.462570,197.740707 
	C216.122131,191.874313 222.557602,189.653244 228.505936,192.548782 
	C234.486099,195.459808 236.081604,202.006699 232.202316,208.962585 
z"/>
<path fill="#000000" opacity="1.000000" stroke="none" 
	d="
M220.622452,377.038757 
	C213.085342,373.326721 210.663177,367.792511 213.539841,361.653625 
	C215.916794,356.581116 220.854309,354.272522 226.296463,355.689056 
	C231.803894,357.122620 234.862473,361.709595 234.323456,367.727234 
	C233.858200,372.921570 229.459137,377.017090 223.993561,377.290527 
	C223.006958,377.339844 222.010925,377.200378 220.622452,377.038757 
z"/>
<path fill="#000000" opacity="1.000000" stroke="none" 
	d="
M190.621338,336.912781 
	C200.503845,336.355408 206.557938,342.005524 204.755753,349.624084 
	C203.575806,354.612213 199.496140,358.137604 194.636734,358.368347 
	C189.125717,358.630035 184.911987,355.769623 183.263840,350.648071 
	C181.759811,345.974396 183.574707,341.216095 188.044174,338.204956 
	C188.726334,337.745361 189.492798,337.410858 190.621338,336.912781 
z"/>
</svg>