<svg version="1.1" id="Layer_1" xmlns="http://www.w3.org/2000/svg" xmlns:xlink="http://www.w3.org/1999/xlink" x="0px" y="0px"
	 width="100%" viewBox="0 0 512 512" enable-background="new 0 0 512 512" xml:space="preserve">
<path fill="#000000" opacity="1.000000" stroke="none" 
	d="
M216.669403,481.750488 
	C199.191055,495.286957 168.228195,494.432068 152.250153,472.507599 
	C148.332321,467.131653 144.640472,461.589478 140.901871,456.084900 
	C137.536453,451.129791 134.398468,446.032501 130.068161,441.784271 
	C118.451820,430.388123 103.433250,431.770691 94.255386,445.143158 
	C86.418236,456.562134 83.214310,469.598602 81.372116,483.004547 
	C80.291061,490.871613 80.572044,490.995789 72.718399,490.993774 
	C69.219955,490.992859 65.720589,491.029968 62.223370,490.961639 
	C59.553970,490.909485 58.034756,490.230774 58.404095,486.776245 
	C60.346367,468.609772 64.254822,451.139618 73.615288,435.109222 
	C85.987679,413.920807 111.886467,405.018036 134.067566,415.109802 
	C145.452026,420.289429 152.378860,430.260468 158.954391,440.350464 
	C163.046127,446.629150 166.894669,453.072113 171.842316,458.739868 
	C183.045151,471.573212 198.392563,470.302643 207.709824,455.985046 
	C213.534149,447.034943 217.206039,436.974152 222.997833,427.970184 
	C237.791397,404.972015 278.106934,404.159546 293.237671,431.255737 
	C297.859802,439.533142 301.806580,448.220978 306.859283,456.217499 
	C316.096893,470.837189 331.421143,471.468628 342.481781,458.229248 
	C349.644226,449.655914 355.087036,439.888275 361.742035,430.953522 
	C383.048553,402.348175 423.418976,404.589081 441.261475,435.467712 
	C450.559235,451.558594 453.972046,469.234772 455.623993,487.428009 
	C455.842773,489.837189 454.895874,490.892548 452.620026,490.901398 
	C447.456573,490.921417 442.291321,490.971283 437.129944,490.861237 
	C432.619263,490.765015 433.259460,486.907837 432.835968,484.232086 
	C431.349792,474.841888 429.243134,465.647186 425.896973,456.721161 
	C424.057312,451.813812 421.478455,447.361511 418.296417,443.299286 
	C408.697723,431.045502 392.255859,431.081085 382.108154,443.208618 
	C374.295319,452.545746 368.548035,463.304657 361.341583,473.084167 
	C343.741699,496.968140 303.194397,496.603119 287.787292,471.203949 
	C283.366302,463.915802 279.790985,456.236389 275.772583,448.766235 
	C273.557983,444.649323 271.315796,440.480316 267.450226,437.674438 
	C257.762634,430.642426 246.558136,433.930328 239.991516,445.767517 
	C236.289429,452.441010 232.916321,459.296112 229.305206,466.021179 
	C226.133301,471.928345 222.162231,477.231384 216.669403,481.750488 
z"/>
<path fill="#000000" opacity="1.000000" stroke="none" 
	d="
M341.427643,307.045227 
	C348.066498,309.729980 351.091064,314.264740 350.108643,319.577118 
	C349.171844,324.642883 344.350250,328.951416 339.421753,329.126770 
	C334.358490,329.306946 329.534027,325.505157 328.186554,320.273163 
	C326.295776,312.931610 332.475067,306.518768 341.427643,307.045227 
z"/>
<path fill="#000000" opacity="1.000000" stroke="none" 
	d="
M357.228149,282.363525 
	C357.218353,289.113312 354.570770,293.367340 349.711731,294.940857 
	C345.187347,296.406067 339.981720,294.671875 337.282806,290.800476 
	C334.326477,286.559784 334.428894,281.363861 337.679932,277.364014 
	C340.151398,274.323212 343.364502,272.841919 347.343109,273.341919 
	C352.549591,273.996216 355.789062,276.918701 357.228149,282.363525 
z"/>
<path fill="#000000" opacity="1.000000" stroke="none" 
	d="
M184.240372,323.966797 
	C180.774918,328.213806 176.862030,330.124725 171.706177,328.408386 
	C167.084976,326.870026 164.490051,323.504669 163.996887,318.878662 
	C163.492569,314.147736 165.841400,310.514893 169.897461,308.121521 
	C173.961304,305.723541 179.316193,306.540344 182.822113,309.927521 
	C186.506149,313.486786 187.041229,318.010986 184.240372,323.966797 
z"/>
<path fill="#000000" opacity="1.000000" stroke="none" 
	d="
M171.002594,273.725952 
	C177.661667,276.806732 180.354080,281.817871 178.588272,287.190582 
	C176.653885,293.076233 171.178497,296.391724 165.460190,295.139984 
	C160.126495,293.972443 156.374924,288.935486 156.729889,283.418457 
	C157.160980,276.718353 162.914032,272.676819 171.002594,273.725952 
z"/>
<path fill="#000000" opacity="1.000000" stroke="none" 
	d="
M197.793640,210.803192 
	C203.582855,214.039139 205.996170,218.639969 204.748627,223.448807 
	C203.441071,228.488998 198.941223,232.183563 194.018173,232.259003 
	C189.117844,232.334091 184.736465,229.087158 183.215622,224.261826 
	C181.948242,220.240768 182.925476,216.669418 185.695877,213.675995 
	C188.897720,210.216400 192.832184,209.028442 197.793640,210.803192 
z"/>
<path fill="#000000" opacity="1.000000" stroke="none" 
	d="
M331.335999,258.696777 
	C327.555786,254.355804 326.712738,249.923569 329.563629,245.193268 
	C332.116577,240.957413 335.957367,239.007065 340.900146,239.806168 
	C345.615387,240.568497 348.665192,243.464462 349.855377,248.026627 
	C351.126831,252.900238 349.278442,256.813507 345.329773,259.715088 
	C341.153015,262.784302 336.948578,262.490601 331.335999,258.696777 
z"/>
<path fill="#000000" opacity="1.000000" stroke="none" 
	d="
M186.258575,250.104828 
	C185.251556,257.005188 182.394958,260.606781 177.137009,261.505035 
	C172.284744,262.334015 168.241257,260.797089 165.584274,256.470459 
	C162.137817,250.858200 164.236694,243.899002 170.238220,240.771545 
	C175.569153,237.993561 182.397568,240.317123 185.056778,245.893646 
	C185.621948,247.078827 185.853821,248.422958 186.258575,250.104828 
z"/>
<path fill="#000000" opacity="1.000000" stroke="none" 
	d="
M311.401001,214.555161 
	C317.456177,208.933472 323.117767,208.491547 327.888397,212.977966 
	C331.938263,216.786545 332.529602,222.979980 329.267151,227.418045 
	C325.604919,232.399948 319.521851,233.659286 314.302887,230.515976 
	C309.169128,227.424011 307.915436,221.149963 311.401001,214.555161 
z"/>
<path fill="#000000" opacity="1.000000" stroke="none" 
	d="
M255.316650,362.679810 
	C262.872009,361.309967 268.667786,367.784210 268.216400,374.211304 
	C267.756500,380.759491 262.174225,385.091766 255.294922,384.325134 
	C250.436615,383.783722 246.563477,379.836548 245.889328,374.739807 
	C245.191437,369.463562 248.670349,364.812531 255.316650,362.679810 
z"/>
<path fill="#000000" opacity="1.000000" stroke="none" 
	d="
M268.129395,196.616516 
	C264.320740,206.852432 254.929733,209.486374 248.710251,202.337799 
	C245.768234,198.956329 244.863342,195.017822 246.904343,190.739166 
	C248.956833,186.436523 252.396561,183.799011 257.115265,184.029861 
	C261.602905,184.249420 265.506622,186.188110 267.278290,190.862289 
	C267.931458,192.585480 268.486847,194.327118 268.129395,196.616516 
z"/>
<path fill="#000000" opacity="1.000000" stroke="none" 
	d="
M287.860718,191.645142 
	C293.280731,190.817001 297.618713,192.010025 300.191589,196.691422 
	C302.325378,200.573898 302.404388,204.652435 299.779175,208.471497 
	C297.178833,212.254440 293.519135,213.777115 289.000061,213.252014 
	C284.625549,212.743683 280.544891,208.887177 279.784943,204.607849 
	C278.752106,198.791412 281.150208,194.776108 287.860718,191.645142 
z"/>
<path fill="#000000" opacity="1.000000" stroke="none" 
	d="
M301.160248,369.875549 
	C297.581451,376.060242 293.937927,378.198669 288.580200,377.175293 
	C283.892090,376.279816 280.821564,373.322021 279.837555,368.667664 
	C278.454254,362.124329 282.908783,356.064392 289.359619,355.324219 
	C296.017944,354.560272 301.332336,359.164307 301.648438,366.052277 
	C301.700897,367.195251 301.400543,368.354370 301.160248,369.875549 
z"/>
<path fill="#000000" opacity="1.000000" stroke="none" 
	d="
M315.230042,337.704102 
	C320.585663,335.712769 325.245300,336.182404 328.731903,340.409821 
	C331.678375,343.982330 332.470947,348.218536 330.110016,352.508728 
	C327.600983,357.068024 323.645935,359.139832 318.462189,358.322144 
	C313.744263,357.577911 310.700989,354.796814 309.503723,350.113525 
	C308.222260,345.100952 309.814972,341.480103 315.230042,337.704102 
z"/>
<path fill="#000000" opacity="1.000000" stroke="none" 
	d="
M233.971252,362.744171 
	C236.679291,372.821747 227.185135,379.924835 219.278595,376.516052 
	C214.518890,374.463959 212.341156,370.860352 212.647934,365.447205 
	C212.923477,360.585480 215.609146,357.429626 219.976639,355.773895 
	C224.262543,354.149139 229.546875,355.956177 232.380035,359.751465 
	C232.967834,360.538879 233.348999,361.480499 233.971252,362.744171 
z"/>
<path fill="#000000" opacity="1.000000" stroke="none" 
	d="
M229.968567,211.188660 
	C223.141190,214.844696 216.843109,213.357895 213.771713,207.661133 
	C210.826660,202.198700 213.072876,195.074615 218.620178,192.283813 
	C223.855972,189.649704 230.868927,192.125671 233.416473,197.507736 
	C235.578751,202.075867 234.596054,206.324280 229.968567,211.188660 
z"/>
<path fill="#000000" opacity="1.000000" stroke="none" 
	d="
M196.486328,358.200806 
	C190.827057,358.856903 186.567123,357.347412 183.993164,352.441772 
	C181.835373,348.329315 182.464050,344.371918 185.127808,340.772491 
	C187.876114,337.058838 191.817657,335.936371 196.173630,336.820740 
	C200.810822,337.762238 203.676956,340.742493 204.728806,345.430695 
	C205.716873,349.834564 203.931030,353.208405 200.765930,355.971832 
	C199.677567,356.922058 198.198349,357.424591 196.486328,358.200806 
z"/>
</svg>