<svg version="1.1" id="Layer_1" xmlns="http://www.w3.org/2000/svg" xmlns:xlink="http://www.w3.org/1999/xlink" x="0px" y="0px"
	 width="100%" viewBox="0 0 512 512" enable-background="new 0 0 512 512" xml:space="preserve">
<path fill="#000000" opacity="1.000000" stroke="none" 
	d="
M234.658615,401.071960 
	C234.694031,392.782806 234.694031,392.779205 242.715897,392.781708 
	C247.876633,392.783325 253.053299,393.051422 258.193329,392.729462 
	C262.708801,392.446655 263.967651,394.426300 263.954132,398.563263 
	C263.913910,410.879211 263.983093,423.198608 264.252014,435.511383 
	C264.429474,443.637115 267.914124,449.608429 276.361298,451.631378 
	C278.256439,452.085236 279.305481,453.003693 279.302582,455.004395 
	C279.293793,460.997070 279.289337,466.989777 279.307465,472.982391 
	C279.314331,475.263489 278.216797,476.315216 275.946106,476.280975 
	C255.839050,475.977570 235.864075,466.002075 234.789352,440.012482 
	C234.260178,427.215240 234.672974,414.378998 234.658615,401.071960 
z"/>
<path fill="#000000" opacity="1.000000" stroke="none" 
	d="
M337.363220,306.849548 
	C343.134796,306.605621 347.130310,308.719971 349.365570,313.736237 
	C351.300415,318.078308 350.162842,322.038635 347.194977,325.300842 
	C344.375854,328.399567 340.743500,329.870972 336.363983,328.617798 
	C331.700287,327.283234 328.940216,324.167603 328.078613,319.563904 
	C327.269653,315.241608 329.153687,311.716919 332.508942,309.088593 
	C333.779327,308.093384 335.459778,307.621674 337.363220,306.849548 
z"/>
<path fill="#000000" opacity="1.000000" stroke="none" 
	d="
M183.865662,216.303650 
	C188.881790,209.438538 195.016876,208.096466 200.671494,212.308395 
	C205.261200,215.727112 206.273880,222.495224 202.925369,227.371979 
	C199.736053,232.016861 193.896942,233.533920 188.874603,231.022476 
	C183.677277,228.423569 181.744034,223.067459 183.865662,216.303650 
z"/>
<path fill="#000000" opacity="1.000000" stroke="none" 
	d="
M326.131653,230.422546 
	C319.240784,233.447052 313.652985,231.973694 310.673309,226.649384 
	C307.856689,221.616333 309.041870,215.883423 313.621948,212.386765 
	C318.466125,208.688477 325.022552,209.375320 328.818756,213.978745 
	C332.901947,218.930161 332.022003,224.989807 326.131653,230.422546 
z"/>
<path fill="#000000" opacity="1.000000" stroke="none" 
	d="
M169.147095,260.123169 
	C163.994370,255.451340 162.787827,251.513947 164.758972,246.705124 
	C166.616898,242.172516 170.971771,239.404846 175.782471,239.699326 
	C180.686981,239.999542 184.482071,243.116043 185.859818,247.996445 
	C187.087662,252.345901 185.537918,255.970428 182.451492,258.832977 
	C178.606461,262.399170 174.120041,262.566589 169.147095,260.123169 
z"/>
<path fill="#000000" opacity="1.000000" stroke="none" 
	d="
M332.908997,241.603806 
	C339.492920,238.329391 345.306702,239.652100 348.505341,244.857513 
	C351.705322,250.065109 350.352905,256.244171 345.235168,259.798553 
	C340.500214,263.087097 334.035889,262.168854 330.436829,257.696472 
	C326.373749,252.647446 327.116730,247.143616 332.908997,241.603806 
z"/>
<path fill="#000000" opacity="1.000000" stroke="none" 
	d="
M177.248550,289.990845 
	C172.677383,295.405762 168.551575,296.643219 163.476089,294.397980 
	C158.827805,292.341736 156.093811,287.552155 156.790192,282.685364 
	C157.447525,278.091370 161.381256,274.085175 166.065598,273.462311 
	C170.299438,272.899353 174.124207,273.949432 176.690735,277.535492 
	C179.398956,281.319519 180.117340,285.435364 177.248550,289.990845 
z"/>
<path fill="#000000" opacity="1.000000" stroke="none" 
	d="
M357.283142,285.682922 
	C356.094086,290.867920 353.311951,294.213409 348.410248,295.163055 
	C344.224365,295.974030 340.485443,294.771881 337.707916,291.329315 
	C334.608551,287.487885 334.359161,282.459412 337.013367,278.337555 
	C339.782776,274.036804 344.491211,272.345978 349.623199,273.809326 
	C354.493896,275.198181 357.021606,278.964417 357.283142,285.682922 
z"/>
<path fill="#000000" opacity="1.000000" stroke="none" 
	d="
M173.388000,306.856018 
	C180.739334,307.147156 184.595093,309.956360 185.972763,315.663330 
	C187.034363,320.060974 184.708191,325.047607 180.467819,327.464447 
	C175.360123,330.375580 169.196640,328.962738 165.958893,324.138641 
	C162.644455,319.200256 163.485062,313.055634 168.158768,309.436737 
	C169.569550,308.344360 171.362488,307.745575 173.388000,306.856018 
z"/>
<path fill="#000000" opacity="1.000000" stroke="none" 
	d="
M264.234131,186.645569 
	C268.694275,191.900436 269.382019,195.914383 266.626251,200.511490 
	C264.200867,204.557465 260.606476,206.736847 255.783920,206.121521 
	C250.721466,205.475601 246.863953,201.717560 246.037476,196.727249 
	C245.313141,192.353790 247.123596,188.882324 250.489853,186.268188 
	C254.939728,182.812531 259.475616,183.548721 264.234131,186.645569 
z"/>
<path fill="#000000" opacity="1.000000" stroke="none" 
	d="
M291.758270,213.284576 
	C286.035522,213.585815 282.315521,211.087036 280.371796,206.350220 
	C278.755981,202.412537 279.360992,198.481522 282.246643,195.168259 
	C285.410156,191.535934 289.453064,190.617935 294.003143,191.790848 
	C298.585724,192.972153 301.576172,197.109421 301.684998,202.229767 
	C301.799988,207.641159 298.553894,211.408691 291.758270,213.284576 
z"/>
<path fill="#000000" opacity="1.000000" stroke="none" 
	d="
M301.142090,369.918152 
	C297.483154,376.199402 293.456696,378.327515 288.051239,377.147797 
	C283.735565,376.205902 280.103210,372.083710 279.701294,367.671753 
	C279.108582,361.166077 283.626587,355.650116 289.866425,355.261230 
	C296.392700,354.854523 301.278076,359.348602 301.557495,366.091339 
	C301.605042,367.238800 301.357239,368.398468 301.142090,369.918152 
z"/>
<path fill="#000000" opacity="1.000000" stroke="none" 
	d="
M249.002380,365.986877 
	C255.437042,361.051208 262.540344,361.704407 266.272095,367.269531 
	C269.936676,372.734497 268.168854,379.939758 262.368835,383.178314 
	C258.141998,385.538391 252.379547,384.668274 249.040649,381.165588 
	C244.926361,376.849609 244.830383,372.215424 249.002380,365.986877 
z"/>
<path fill="#000000" opacity="1.000000" stroke="none" 
	d="
M326.322388,356.692749 
	C319.241486,359.859589 312.975647,358.031525 310.237457,352.328827 
	C307.550690,346.733215 309.821686,340.353882 315.477783,337.608490 
	C320.306335,335.264832 326.339905,336.774506 329.254700,341.055725 
	C332.794189,346.254486 331.914917,351.446838 326.322388,356.692749 
z"/>
<path fill="#000000" opacity="1.000000" stroke="none" 
	d="
M212.726746,204.607697 
	C211.186142,197.400757 217.067123,190.898849 223.610092,191.248779 
	C229.507141,191.564163 233.902069,195.544434 234.332748,200.990707 
	C234.786789,206.732330 231.385468,211.799789 226.211685,213.089844 
	C220.449280,214.526703 215.377579,211.486496 212.726746,204.607697 
z"/>
<path fill="#000000" opacity="1.000000" stroke="none" 
	d="
M229.663605,357.128235 
	C234.969223,362.201050 235.892380,367.549103 232.596436,372.402924 
	C229.471268,377.005249 223.955688,378.636322 219.044800,376.410309 
	C213.296997,373.804932 210.893356,367.547180 213.442001,361.823792 
	C216.239502,355.541534 221.889847,353.799561 229.663605,357.128235 
z"/>
<path fill="#000000" opacity="1.000000" stroke="none" 
	d="
M184.078735,342.453735 
	C187.081253,337.321442 191.418793,335.762787 196.576141,336.908936 
	C201.197723,337.936035 203.976898,341.146912 204.815964,345.837097 
	C205.638458,350.434631 203.613739,353.912445 200.055145,356.541382 
	C196.368164,359.265228 190.841873,359.019287 187.048965,356.175446 
	C183.101883,353.215973 181.969666,348.417664 184.078735,342.453735 
z"/>
</svg>