<svg version="1.1" id="Layer_1" xmlns="http://www.w3.org/2000/svg" xmlns:xlink="http://www.w3.org/1999/xlink" x="0px" y="0px"
	 width="100%" viewBox="0 0 512 512" enable-background="new 0 0 512 512" xml:space="preserve">
<path fill="#000000" opacity="1.000000" stroke="none" 
	d="
M238.182404,476.286621 
	C230.325043,475.071167 222.987656,473.694061 216.515640,469.541626 
	C204.319885,461.716705 200.320038,449.834778 200.160233,436.173645 
	C200.014282,423.696808 200.178894,411.216614 200.100189,398.738556 
	C200.073471,394.500763 201.359879,392.351288 206.179596,392.702332 
	C211.972076,393.124237 217.829651,393.009613 223.639145,392.723450 
	C227.924149,392.512390 229.541977,393.884003 229.434570,398.361176 
	C229.167282,409.502502 229.204437,420.657074 229.395432,431.801636 
	C229.555923,441.166382 231.646622,449.481720 242.655869,451.785553 
	C244.969788,452.269806 245.163910,454.184082 245.175797,456.079865 
	C245.205032,460.738434 244.914276,465.419281 245.276443,470.050140 
	C245.681107,475.224396 243.587067,477.120483 238.182404,476.286621 
z"/>
<path fill="#000000" opacity="1.000000" stroke="none" 
	d="
M298.327637,432.746002 
	C298.657501,441.970367 300.984222,449.387756 310.802765,451.753021 
	C313.126617,452.312836 313.332367,454.080841 313.331329,456.005127 
	C313.328522,461.162598 313.173279,466.326843 313.390503,471.475250 
	C313.545807,475.156433 312.196045,476.554260 308.486816,476.323090 
	C286.982971,474.982788 269.607330,464.666931 268.899017,437.354248 
	C268.558380,424.219666 268.922028,411.068176 268.776459,397.926453 
	C268.733307,394.029236 270.201141,392.579834 274.071045,392.716888 
	C280.052979,392.928741 286.061462,393.027252 292.032776,392.700562 
	C296.728851,392.443604 298.522491,393.916595 298.389648,398.840973 
	C298.089233,409.979370 298.313782,421.131989 298.327637,432.746002 
z"/>
<path fill="#000000" opacity="1.000000" stroke="none" 
	d="
M183.787369,225.746277 
	C181.523727,218.017136 184.603592,212.022705 191.392181,210.278992 
	C197.548141,208.697769 203.507370,212.804688 204.836044,219.544067 
	C205.765228,224.257095 202.798706,229.275879 197.850616,231.362061 
	C192.668518,233.546890 187.928818,231.761139 183.787369,225.746277 
z"/>
<path fill="#000000" opacity="1.000000" stroke="none" 
	d="
M324.005920,231.492569 
	C316.256470,233.088654 311.055145,230.085724 309.516113,223.486038 
	C308.184692,217.776611 311.586578,212.164963 317.477539,210.353043 
	C322.733063,208.736557 328.758026,211.913010 330.730743,217.340302 
	C332.748932,222.892654 330.632843,227.560822 324.005920,231.492569 
z"/>
<path fill="#000000" opacity="1.000000" stroke="none" 
	d="
M182.098206,259.172791 
	C176.027359,262.838074 170.183090,262.241577 166.532562,257.834320 
	C163.055450,253.636459 163.087357,247.792480 166.610077,243.625015 
	C170.222900,239.350937 176.305359,238.395325 181.067383,241.353668 
	C187.271851,245.208099 187.812149,252.283234 182.098206,259.172791 
z"/>
<path fill="#000000" opacity="1.000000" stroke="none" 
	d="
M341.341095,261.496521 
	C334.201660,261.707916 330.571167,259.614349 328.663483,254.480850 
	C326.865112,249.641388 328.354614,245.616867 331.978455,242.336731 
	C335.628876,239.032532 340.765015,238.682281 344.949799,241.314758 
	C348.635681,243.633423 350.585693,247.133514 350.153809,251.420853 
	C349.643005,256.491455 346.754700,259.962585 341.341095,261.496521 
z"/>
<path fill="#000000" opacity="1.000000" stroke="none" 
	d="
M176.202087,276.887207 
	C179.560074,281.543396 180.142776,285.996521 176.872650,290.559723 
	C174.198608,294.291107 170.541534,295.965393 166.036545,295.182892 
	C161.567535,294.406647 158.577240,291.678894 157.196960,287.320648 
	C155.761368,282.787781 157.602295,277.907379 161.734467,275.120178 
	C166.024963,272.226196 170.912567,272.736694 176.202087,276.887207 
z"/>
<path fill="#000000" opacity="1.000000" stroke="none" 
	d="
M349.041138,322.614929 
	C345.332581,328.019073 341.362793,329.898315 336.742462,328.710724 
	C331.923248,327.472015 328.478912,323.665680 327.931641,318.973877 
	C327.423798,314.619965 330.331543,309.799072 334.745697,307.742737 
	C339.020508,305.751373 343.041138,306.645447 346.350281,309.597839 
	C350.157410,312.994568 351.353210,317.338654 349.041138,322.614929 
z"/>
<path fill="#000000" opacity="1.000000" stroke="none" 
	d="
M247.177704,368.535156 
	C250.326096,363.185669 254.870331,361.664246 260.222382,362.953979 
	C264.905762,364.082520 267.557404,367.592804 268.118958,372.261932 
	C268.686310,376.979401 266.698730,380.848785 262.469482,383.079010 
	C258.155396,385.354004 253.762390,385.127625 249.841827,381.976501 
	C246.041931,378.922333 245.113632,374.367126 247.177704,368.535156 
z"/>
<path fill="#000000" opacity="1.000000" stroke="none" 
	d="
M254.616089,184.249542 
	C260.228516,183.777176 264.536407,185.359390 267.030365,190.269745 
	C269.130524,194.404755 268.514221,198.425217 265.656738,201.945114 
	C262.968903,205.256012 259.419983,207.027039 255.067383,205.972824 
	C250.324722,204.824158 247.050858,201.947006 246.100433,196.983765 
	C245.224030,192.407074 247.148026,188.863602 250.689407,186.143784 
	C251.719406,185.352753 253.048828,184.951584 254.616089,184.249542 
z"/>
<path fill="#000000" opacity="1.000000" stroke="none" 
	d="
M281.350006,208.299759 
	C278.599457,202.042404 279.361237,197.444534 283.440826,193.961044 
	C287.035553,190.891571 292.352966,190.431885 296.483612,192.833572 
	C300.473358,195.153336 302.464966,200.020630 301.354675,204.913818 
	C300.376312,209.225708 297.500061,211.955673 293.404999,212.997299 
	C288.644470,214.208191 284.551270,212.708847 281.350006,208.299759 
z"/>
<path fill="#000000" opacity="1.000000" stroke="none" 
	d="
M186.224915,317.162598 
	C185.275589,324.276550 182.391983,327.921875 176.827560,328.839783 
	C172.127823,329.615021 168.336975,327.760925 165.767181,323.755859 
	C162.199020,318.194824 164.169205,311.305756 170.143677,308.057129 
	C175.604660,305.087769 182.543442,307.550934 185.159119,313.436401 
	C185.626694,314.488464 185.854980,315.646851 186.224915,317.162598 
z"/>
<path fill="#000000" opacity="1.000000" stroke="none" 
	d="
M348.500671,295.174469 
	C340.352173,297.050415 332.890900,288.739624 335.828400,280.713287 
	C337.523315,276.082123 340.981934,273.400574 345.995483,273.278381 
	C351.173706,273.152191 355.585968,276.345123 356.900299,281.127533 
	C358.220978,285.933014 356.828278,289.999329 352.841949,293.021088 
	C351.675232,293.905487 350.229980,294.422424 348.500671,295.174469 
z"/>
<path fill="#000000" opacity="1.000000" stroke="none" 
	d="
M289.260162,377.271484 
	C281.534180,374.985229 278.052673,369.400452 279.983124,363.033936 
	C281.643494,357.558105 287.693512,354.269806 293.475464,355.700653 
	C298.934052,357.051422 302.250793,361.970703 301.582214,367.724243 
	C300.902130,373.576569 296.606140,377.030792 289.260162,377.271484 
z"/>
<path fill="#000000" opacity="1.000000" stroke="none" 
	d="
M319.216461,358.359436 
	C311.720184,356.536896 308.125946,351.671967 309.338623,345.541901 
	C310.538422,339.477051 315.887665,335.839264 322.282959,336.739014 
	C327.825439,337.518799 331.752930,342.671295 331.307892,348.579010 
	C330.876862,354.300995 326.437531,358.029938 319.216461,358.359436 
z"/>
<path fill="#000000" opacity="1.000000" stroke="none" 
	d="
M219.989243,355.728027 
	C225.374359,354.581635 229.678406,355.806396 232.588623,360.119598 
	C235.095001,363.834290 235.237762,367.934845 232.930984,371.860107 
	C230.511612,375.977112 226.774841,377.885437 222.037888,377.220795 
	C217.370392,376.565918 214.049683,373.950958 212.863312,369.277985 
	C211.417496,363.583130 213.599899,359.450623 219.989243,355.728027 
z"/>
<path fill="#000000" opacity="1.000000" stroke="none" 
	d="
M223.737183,191.356049 
	C229.293228,191.880249 232.865936,194.461578 234.161575,199.562958 
	C235.392548,204.409729 233.434402,208.998184 229.282211,211.623352 
	C224.991684,214.335968 220.747223,213.886475 216.741882,211.046967 
	C212.498871,208.038940 211.733307,203.563110 213.029465,199.047440 
	C214.426300,194.181046 218.001785,191.338516 223.737183,191.356049 
z"/>
<path fill="#000000" opacity="1.000000" stroke="none" 
	d="
M199.488800,356.944489 
	C192.575439,359.615936 186.899124,357.937286 184.122620,352.710114 
	C181.446030,347.670990 182.799561,341.894958 187.427658,338.606384 
	C192.158798,335.244598 199.008469,336.184937 202.595627,340.688660 
	C206.700760,345.842712 205.716568,351.558746 199.488800,356.944489 
z"/>
</svg>