<svg version="1.1" id="Layer_1" xmlns="http://www.w3.org/2000/svg" xmlns:xlink="http://www.w3.org/1999/xlink" x="0px" y="0px"
	 width="100%" viewBox="0 0 512 512" enable-background="new 0 0 512 512" xml:space="preserve">
<path fill="#000000" opacity="1.000000" stroke="none" 
	d="
M248.496155,467.412109 
	C245.759430,478.420349 239.052017,482.412292 228.345825,480.443542 
	C225.644058,479.946716 222.773224,480.369141 218.447632,480.369141 
	C234.063873,447.149078 249.159637,415.036194 264.668335,382.044891 
	C260.831818,384.524567 257.322723,384.973511 253.816330,384.070557 
	C250.211853,383.142303 247.792786,380.677368 246.525543,377.127625 
	C244.589127,371.703430 247.563126,365.273468 253.006821,363.166168 
	C259.570404,360.625397 265.121185,363.868011 268.823914,372.791229 
	C270.521393,368.857025 272.674530,366.064728 277.348389,366.588409 
	C279.990021,366.884369 279.444092,364.087128 280.127197,362.561737 
	C282.062164,358.241028 285.300598,355.506989 290.056915,355.317444 
	C294.711609,355.131958 298.607727,356.984406 300.590942,361.466156 
	C302.489471,365.756561 302.079987,369.959808 298.948029,373.603027 
	C297.998962,374.707001 296.709595,376.039795 295.419250,376.235962 
	C290.587891,376.970520 289.283813,380.775238 287.594574,384.364807 
	C274.619934,411.936310 261.635803,439.503357 248.496155,467.412109 
z"/>
<path fill="#000000" opacity="1.000000" stroke="none" 
	d="
M161.790680,293.522217 
	C156.767960,288.844086 155.460022,284.551666 157.622208,280.037506 
	C159.751358,275.592316 163.273117,273.063324 168.328354,273.332672 
	C173.047592,273.584106 176.496292,275.816345 178.267868,280.386749 
	C180.061386,285.013733 178.792038,289.006134 175.446152,292.230225 
	C171.519363,296.014099 166.919861,296.362457 161.790680,293.522217 
z"/>
<path fill="#000000" opacity="1.000000" stroke="none" 
	d="
M335.902710,328.452576 
	C329.601746,325.381104 326.936859,320.808899 328.178253,315.741974 
	C329.430298,310.631622 333.965881,306.802979 338.842468,306.739929 
	C343.977600,306.673553 348.350769,310.134186 349.877075,315.231934 
	C352.047180,322.480042 344.278473,331.240326 335.902710,328.452576 
z"/>
<path fill="#000000" opacity="1.000000" stroke="none" 
	d="
M347.500854,273.456238 
	C354.604889,275.171692 358.173279,279.919830 357.258209,286.006104 
	C356.393768,291.755676 351.001831,295.842102 345.015656,295.284393 
	C339.425415,294.763550 334.998688,289.715118 335.120239,283.999146 
	C335.251862,277.809906 339.976868,273.627777 347.500854,273.456238 
z"/>
<path fill="#000000" opacity="1.000000" stroke="none" 
	d="
M342.287720,240.086639 
	C348.435516,243.129852 351.188232,247.880692 350.008301,252.866928 
	C348.830353,257.844696 344.096497,261.811340 339.315765,261.826538 
	C333.828888,261.843994 329.504364,258.287109 328.137634,252.906631 
	C326.492676,246.430984 333.336853,237.485550 342.287720,240.086639 
z"/>
<path fill="#000000" opacity="1.000000" stroke="none" 
	d="
M170.521271,260.829285 
	C164.677643,256.975586 162.819565,252.769653 164.444962,247.704971 
	C166.108566,242.521225 170.512268,239.396530 175.730026,239.697540 
	C180.777847,239.988754 184.715515,243.392929 185.996948,248.421677 
	C187.877762,255.802536 179.579590,264.726349 170.521271,260.829285 
z"/>
<path fill="#000000" opacity="1.000000" stroke="none" 
	d="
M324.752319,231.191925 
	C318.587524,232.994675 313.954468,231.620193 311.155548,227.422821 
	C308.296387,223.135117 308.572296,217.809570 311.850861,214.002335 
	C315.223663,210.085648 320.213684,208.954025 324.953522,211.030960 
	C329.227875,212.903931 331.856628,217.580627 331.279419,222.453934 
	C330.809540,226.421005 328.422302,229.070908 324.752319,231.191925 
z"/>
<path fill="#000000" opacity="1.000000" stroke="none" 
	d="
M199.289764,230.659271 
	C191.762726,233.643417 185.541077,231.098480 183.308563,224.469940 
	C181.298111,218.500687 184.590042,212.436646 190.915787,210.456757 
	C195.629822,208.981277 201.286484,211.363815 203.565399,215.784698 
	C206.455521,221.391266 205.195740,226.075150 199.289764,230.659271 
z"/>
<path fill="#000000" opacity="1.000000" stroke="none" 
	d="
M262.409180,204.756348 
	C255.168549,207.528488 248.814453,204.948975 246.588394,198.680695 
	C244.550156,192.941315 247.544693,186.866577 253.515533,184.628281 
	C258.007416,182.944412 264.070892,185.125763 266.564514,189.322693 
	C269.746185,194.677643 268.433319,199.902664 262.409180,204.756348 
z"/>
<path fill="#000000" opacity="1.000000" stroke="none" 
	d="
M184.791885,312.593018 
	C187.249008,319.612915 185.432800,324.980927 179.965546,327.772308 
	C174.996582,330.309235 169.010696,328.723755 165.919907,324.052032 
	C162.532318,318.931763 163.650742,312.694183 168.611160,309.042358 
	C173.953583,305.109314 179.848511,306.291290 184.791885,312.593018 
z"/>
<path fill="#000000" opacity="1.000000" stroke="none" 
	d="
M301.667664,202.849304 
	C300.295715,209.689148 296.750336,213.094376 291.153625,213.302704 
	C285.932068,213.497055 281.138397,210.061646 279.914246,205.247879 
	C278.623474,200.172241 280.879547,195.067490 285.515259,192.574554 
	C292.879608,188.614258 300.372742,193.195175 301.667664,202.849304 
z"/>
<path fill="#000000" opacity="1.000000" stroke="none" 
	d="
M310.275940,342.594666 
	C313.428314,337.325226 317.912018,335.733368 323.277557,336.946167 
	C328.002625,338.014130 330.519928,341.493286 331.224304,346.135071 
	C331.953644,350.941284 329.816895,354.627075 325.765564,356.993042 
	C321.670319,359.384705 317.441040,358.993134 313.576935,356.288910 
	C309.461853,353.408997 308.404907,349.068085 310.275940,342.594666 
z"/>
<path fill="#000000" opacity="1.000000" stroke="none" 
	d="
M228.291687,356.403961 
	C234.951218,360.917877 236.390030,367.188660 232.347565,372.768951 
	C228.599854,377.942352 221.691315,378.893219 216.518600,374.947540 
	C212.599457,371.958038 211.348068,366.076782 213.643204,361.433777 
	C216.356918,355.944000 220.735596,354.348206 228.291687,356.403961 
z"/>
<path fill="#000000" opacity="1.000000" stroke="none" 
	d="
M215.176971,209.694519 
	C211.905121,205.198700 211.633469,200.773651 214.261475,196.381943 
	C216.366959,192.863464 219.589935,191.041000 223.830307,191.369980 
	C228.748672,191.751556 232.507416,193.979721 233.930466,198.807907 
	C235.291031,203.424057 234.312897,207.738113 230.341171,210.878632 
	C226.423309,213.976562 222.186356,214.227020 217.842621,211.738998 
	C216.988403,211.249741 216.238434,210.578461 215.176971,209.694519 
z"/>
<path fill="#000000" opacity="1.000000" stroke="none" 
	d="
M203.737656,352.406799 
	C199.633972,357.895782 195.863495,359.525055 190.799911,358.032593 
	C186.215759,356.681458 183.444031,353.479492 182.880554,348.802002 
	C182.287750,343.881104 184.429840,340.005310 188.844910,337.759918 
	C193.048416,335.622070 197.322723,336.041107 200.925797,339.104462 
	C205.015488,342.581635 206.105789,347.013947 203.737656,352.406799 
z"/>
</svg>