<svg version="1.1" id="Layer_1" xmlns="http://www.w3.org/2000/svg" xmlns:xlink="http://www.w3.org/1999/xlink" x="0px" y="0px"
	 width="100%" viewBox="0 0 512 512" enable-background="new 0 0 512 512" xml:space="preserve">
<path fill="#000000" opacity="1.000000" stroke="none" 
	d="
M261.130615,363.189453 
	C264.267761,364.443970 265.980103,366.723328 267.558319,368.946564 
	C268.095459,368.865936 268.406433,368.817169 268.718048,368.772827 
	C275.950256,367.743408 280.207031,363.031189 284.494965,357.505371 
	C287.322723,353.861298 292.454132,354.573761 296.508636,356.931091 
	C300.714661,359.376556 302.123108,363.392181 301.489777,368.056458 
	C300.835510,372.875275 297.804016,376.341400 293.250000,376.938080 
	C289.300751,377.455475 287.964752,379.580902 286.588623,382.544922 
	C277.892242,401.276367 269.162079,419.992279 260.360687,438.674530 
	C259.102570,441.345032 258.475769,443.744751 259.623108,446.722260 
	C261.656097,451.998230 261.411011,457.483521 260.045807,462.927002 
	C257.533966,472.942261 250.308655,477.812683 238.619797,477.366150 
	C229.578888,477.020782 223.390137,471.035217 221.567764,461.429657 
	C220.443298,455.502777 221.008209,449.824249 222.917435,444.236115 
	C225.032150,438.046539 229.530350,434.317902 235.822845,432.919373 
	C237.929611,432.451141 239.506958,431.842468 240.472885,429.769653 
	C247.430679,414.838806 254.450256,399.936737 261.455811,385.013733 
	C259.874908,383.662445 258.351624,384.466797 256.966583,384.420654 
	C250.646194,384.210236 245.715927,379.390228 245.808167,373.374115 
	C245.899323,367.428497 251.052551,362.596558 257.291504,362.662415 
	C258.448303,362.674591 259.602875,362.896729 261.130615,363.189453 
z"/>
<path fill="#000000" opacity="1.000000" stroke="none" 
	d="
M338.995514,306.739197 
	C344.531799,307.286194 348.113068,309.822174 349.763123,314.806549 
	C351.114868,318.889862 349.837982,322.517029 347.103912,325.410095 
	C344.234528,328.446350 340.602875,329.891693 336.227997,328.576599 
	C331.574768,327.177887 328.853302,324.028473 328.054810,319.426758 
	C327.305908,315.110931 329.259705,311.637695 332.596954,308.977539 
	C334.317596,307.605988 336.329132,306.799683 338.995514,306.739197 
z"/>
<path fill="#000000" opacity="1.000000" stroke="none" 
	d="
M173.168701,274.545776 
	C178.577332,278.718475 180.158325,282.872009 178.419037,287.602783 
	C176.588120,292.582703 172.373947,295.525513 167.381882,295.310120 
	C162.545929,295.101501 158.514099,291.921021 157.138016,287.190918 
	C155.953323,283.118713 157.064819,279.565430 159.934586,276.628723 
	C163.634369,272.842682 168.070816,272.524536 173.168701,274.545776 
z"/>
<path fill="#000000" opacity="1.000000" stroke="none" 
	d="
M340.223480,275.061218 
	C346.759003,272.161285 352.423096,273.427338 355.532257,278.200043 
	C358.472504,282.713470 357.781494,288.627380 353.880127,292.339325 
	C349.997467,296.033478 343.964783,296.414124 339.673401,293.235779 
	C333.627472,288.757843 333.727905,281.083557 340.223480,275.061218 
z"/>
<path fill="#000000" opacity="1.000000" stroke="none" 
	d="
M350.170837,249.295227 
	C349.766388,256.055878 346.963226,260.011139 341.958252,261.368805 
	C337.258545,262.643707 332.361115,260.787506 329.760681,256.745758 
	C326.296783,251.361938 327.944824,244.600098 333.553009,241.185944 
	C338.747375,238.023697 345.641113,239.808990 348.676361,245.181015 
	C349.321747,246.323257 349.643585,247.648300 350.170837,249.295227 
z"/>
<path fill="#000000" opacity="1.000000" stroke="none" 
	d="
M169.822037,260.487915 
	C164.192459,256.125031 162.722900,252.036133 164.681122,246.963974 
	C166.470551,242.329010 170.695969,239.490021 175.511078,239.687546 
	C180.609741,239.896683 184.608368,243.159225 185.926056,248.214630 
	C187.008530,252.367630 185.523499,255.849136 182.650482,258.651581 
	C179.057861,262.155945 174.739487,262.541412 169.822037,260.487915 
z"/>
<path fill="#000000" opacity="1.000000" stroke="none" 
	d="
M324.682343,210.925507 
	C330.555023,214.681885 332.625366,219.461472 330.872101,224.507034 
	C329.200745,229.316895 324.025116,232.723373 319.220032,232.176178 
	C313.886322,231.568771 310.108704,227.890396 309.289124,222.506180 
	C308.066071,214.471420 315.569061,208.617508 324.682343,210.925507 
z"/>
<path fill="#000000" opacity="1.000000" stroke="none" 
	d="
M203.180817,226.963043 
	C198.683426,232.160339 194.351273,233.424988 189.414612,231.250626 
	C185.015701,229.313095 182.317398,224.788025 182.748322,220.071167 
	C183.164566,215.514801 186.645035,211.479477 191.403976,210.318588 
	C195.638153,209.285706 199.441025,210.575012 202.144943,213.790771 
	C205.362244,217.617096 206.199081,222.043060 203.180817,226.963043 
z"/>
<path fill="#000000" opacity="1.000000" stroke="none" 
	d="
M267.935699,197.409210 
	C263.920959,206.758530 255.421844,209.115921 249.195969,202.809814 
	C246.064285,199.637817 244.887665,195.793808 246.660828,191.373627 
	C248.449951,186.913727 251.794662,184.160172 256.449402,184.036377 
	C260.954681,183.916565 264.937469,185.803726 267.017090,190.245087 
	C268.009247,192.363968 268.653046,194.620316 267.935699,197.409210 
z"/>
<path fill="#000000" opacity="1.000000" stroke="none" 
	d="
M184.653580,323.307739 
	C180.564484,328.497589 176.726364,329.989380 171.989288,328.473328 
	C167.319016,326.978638 163.841858,322.770721 163.929962,318.189636 
	C164.024765,313.260345 166.521683,309.691223 171.019516,307.649170 
	C175.336517,305.689240 179.359558,306.865997 182.557892,309.827576 
	C186.466782,313.447083 187.401672,318.015656 184.653580,323.307739 
z"/>
<path fill="#000000" opacity="1.000000" stroke="none" 
	d="
M282.119263,195.308289 
	C286.163635,191.062805 290.662140,190.324570 295.573425,192.421066 
	C299.906525,194.270767 301.622009,198.004990 301.651306,202.451599 
	C301.681458,207.026581 299.332733,210.312378 295.261871,212.332230 
	C291.029724,214.432098 285.810364,213.366470 282.499817,209.789291 
	C278.913910,205.914505 278.701569,201.095306 282.119263,195.308289 
z"/>
<path fill="#000000" opacity="1.000000" stroke="none" 
	d="
M321.752136,336.696960 
	C328.868134,338.659973 332.479767,343.970703 331.171936,349.952362 
	C329.955902,355.514252 324.272186,359.183472 318.256012,358.290375 
	C312.926971,357.499268 308.784088,352.389526 309.072418,346.963440 
	C309.401855,340.763245 314.072052,336.841888 321.752136,336.696960 
z"/>
<path fill="#000000" opacity="1.000000" stroke="none" 
	d="
M219.987152,355.722107 
	C225.377640,354.565521 229.681473,355.800812 232.591034,360.113983 
	C235.097000,363.828827 235.247650,367.937592 232.930161,371.859741 
	C230.506485,375.961548 226.781296,377.905426 222.032928,377.231598 
	C217.364380,376.569122 214.043777,373.955994 212.860062,369.277557 
	C211.414474,363.564087 213.589859,359.439545 219.987152,355.722107 
z"/>
<path fill="#000000" opacity="1.000000" stroke="none" 
	d="
M223.737152,191.357758 
	C229.291443,191.882706 232.865845,194.461014 234.161575,199.562531 
	C235.392609,204.409332 233.435394,208.997009 229.283676,211.621689 
	C224.994507,214.333237 220.750168,213.890274 216.745163,211.048508 
	C212.505966,208.040512 211.732391,203.566971 213.030853,199.050888 
	C214.429169,194.187515 218.002411,191.341965 223.737152,191.357758 
z"/>
<path fill="#000000" opacity="1.000000" stroke="none" 
	d="
M199.489120,356.946350 
	C192.573105,359.623688 186.906754,357.947540 184.125580,352.712036 
	C181.445663,347.667114 182.796860,341.895172 187.427261,338.607971 
	C192.163834,335.245422 199.002960,336.184052 202.596771,340.689880 
	C206.708115,345.844604 205.728424,351.532288 199.489120,356.946350 
z"/>
</svg>