<svg version="1.1" id="Layer_1" xmlns="http://www.w3.org/2000/svg" xmlns:xlink="http://www.w3.org/1999/xlink" x="0px" y="0px"
	 width="100%" viewBox="0 0 512 512" enable-background="new 0 0 512 512" xml:space="preserve">
<path fill="#000000" opacity="1.000000" stroke="none" 
	d="
M313.734192,63.759090 
	C317.855194,63.294834 320.490845,64.984581 322.975098,67.504135 
	C345.242889,90.088173 345.473358,128.190445 323.500153,151.216232 
	C320.782532,154.064056 317.869965,155.654068 313.838348,155.279968 
	C308.974335,154.828659 303.984589,155.938950 298.243195,154.209869 
	C323.639282,124.324539 323.098358,94.646736 298.043762,64.579819 
	C303.526306,63.104191 308.457520,64.072662 313.734192,63.759090 
z"/>
<path fill="#000000" opacity="1.000000" stroke="none" 
	d="
M191.628586,67.495018 
	C194.196365,64.419746 197.162582,63.431217 200.753525,63.722336 
	C205.649750,64.119286 210.639374,63.128677 216.481949,64.620934 
	C191.045090,94.550163 191.102188,124.322731 216.253387,153.785980 
	C207.075348,157.873886 194.732986,155.247589 188.879303,148.313736 
	C168.942886,124.698608 169.992325,90.710648 191.628586,67.495018 
z"/>
<path fill="#000000" opacity="1.000000" stroke="none" 
	d="
M329.758179,312.035431 
	C334.413147,306.734283 338.479126,305.495300 343.511658,307.765259 
	C348.046326,309.810577 350.358337,313.452362 350.210388,318.404419 
	C350.065674,323.249054 346.446411,327.424591 341.544373,328.701965 
	C337.249329,329.821198 333.588806,328.363953 330.816498,325.200897 
	C327.442810,321.351685 326.802094,316.956085 329.758179,312.035431 
z"/>
<path fill="#000000" opacity="1.000000" stroke="none" 
	d="
M259.539825,362.758789 
	C266.159363,365.464264 269.143036,370.113190 268.064819,375.436340 
	C267.005585,380.665894 262.763153,384.304840 257.565582,384.442139 
	C251.826569,384.593719 247.718094,381.367157 246.098679,376.009430 
	C244.406143,370.409790 250.008072,360.789032 259.539825,362.758789 
z"/>
<path fill="#000000" opacity="1.000000" stroke="none" 
	d="
M190.851746,210.484619 
	C198.598953,209.416809 203.448181,212.679749 204.811218,219.496918 
	C205.827377,224.579071 202.331253,229.982773 196.876190,231.761520 
	C191.588211,233.485794 185.654114,230.494247 183.523712,225.030121 
	C181.227005,219.139496 183.721832,213.966370 190.851746,210.484619 
z"/>
<path fill="#000000" opacity="1.000000" stroke="none" 
	d="
M331.303162,220.173721 
	C330.843414,227.118759 326.844147,231.714478 321.206238,232.214249 
	C315.441254,232.725311 310.541718,228.893600 309.416016,222.993652 
	C308.400543,217.671387 311.575775,212.457336 317.009338,210.524704 
	C323.308014,208.284348 329.185059,212.085739 331.303162,220.173721 
z"/>
<path fill="#000000" opacity="1.000000" stroke="none" 
	d="
M163.976852,249.374542 
	C165.214310,244.194901 168.073502,240.844879 172.915359,239.859207 
	C177.068802,239.013672 180.907822,240.203262 183.630890,243.685806 
	C186.404526,247.233002 187.234299,251.160645 185.070923,255.340469 
	C182.897720,259.539337 179.432205,261.972778 174.651505,261.728271 
	C169.976532,261.489166 166.445175,259.217743 164.717377,254.643295 
	C164.125717,253.076797 163.667847,251.480362 163.976852,249.374542 
z"/>
<path fill="#000000" opacity="1.000000" stroke="none" 
	d="
M349.861206,253.324127 
	C346.408722,263.378998 335.962128,263.367981 331.270477,258.627075 
	C327.531525,254.848846 326.885712,249.436462 329.716370,244.922302 
	C332.405762,240.633530 337.509277,238.668091 342.263336,240.090363 
	C347.687988,241.713272 350.456268,246.317474 349.861206,253.324127 
z"/>
<path fill="#000000" opacity="1.000000" stroke="none" 
	d="
M158.942520,290.844177 
	C155.966537,286.093750 155.869904,281.756165 159.175262,277.546478 
	C162.334854,273.522522 166.516602,272.537018 171.246521,273.808228 
	C175.754349,275.019714 178.178131,278.326782 178.877533,282.768951 
	C179.671021,287.808594 177.261612,291.470764 173.093811,293.981445 
	C168.536713,296.726593 164.026138,295.728760 158.942520,290.844177 
z"/>
<path fill="#000000" opacity="1.000000" stroke="none" 
	d="
M351.594238,294.019196 
	C346.279144,296.375793 341.703796,295.758240 338.069824,291.698639 
	C334.942200,288.204620 334.135956,283.992493 336.264587,279.646576 
	C338.343231,275.402710 341.819305,273.034058 346.665466,273.330872 
	C351.599945,273.633148 355.150146,276.061249 356.811432,280.845673 
	C358.480713,285.653046 356.889526,289.790649 351.594238,294.019196 
z"/>
<path fill="#000000" opacity="1.000000" stroke="none" 
	d="
M172.666336,328.688660 
	C166.307480,326.085236 163.162369,321.512238 164.000748,316.515228 
	C164.881821,311.263702 169.546722,306.939880 174.550873,306.736481 
	C179.792389,306.523407 184.384750,310.192444 185.959641,315.423584 
	C187.637939,320.998169 182.336197,330.391296 172.666336,328.688660 
z"/>
<path fill="#000000" opacity="1.000000" stroke="none" 
	d="
M267.074768,190.329330 
	C269.394806,197.892914 266.157471,204.324112 259.526581,205.988968 
	C253.825134,207.420471 247.333725,203.096741 246.059372,197.018860 
	C245.069702,192.298782 247.997604,187.019836 252.791580,184.880737 
	C257.819092,182.637436 262.923187,184.470551 267.074768,190.329330 
z"/>
<path fill="#000000" opacity="1.000000" stroke="none" 
	d="
M279.736328,200.390549 
	C282.323578,193.656021 286.113983,190.895798 291.555267,191.394272 
	C296.556549,191.852448 299.973785,194.379593 301.232605,199.292877 
	C302.397186,203.838562 301.339478,207.896210 297.548279,210.895782 
	C293.983337,213.716339 289.934479,214.286865 285.871674,212.262955 
	C281.242493,209.956940 279.173279,206.019165 279.736328,200.390549 
z"/>
<path fill="#000000" opacity="1.000000" stroke="none" 
	d="
M290.928040,377.320312 
	C284.121521,376.579895 280.180328,373.053345 279.699005,367.655518 
	C279.219635,362.279541 282.085236,357.629211 286.953796,355.882538 
	C291.795807,354.145355 297.435760,356.026764 300.029816,360.396667 
	C304.610931,368.113953 299.181732,377.160553 290.928040,377.320312 
z"/>
<path fill="#000000" opacity="1.000000" stroke="none" 
	d="
M312.610168,339.489227 
	C318.552429,335.690735 324.144714,335.784576 327.980133,339.476501 
	C331.508240,342.872620 332.382904,348.666534 329.987915,352.776215 
	C326.596436,358.595978 319.597626,360.256866 314.040039,356.683655 
	C309.242523,353.599121 306.709534,345.377533 312.610168,339.489227 
z"/>
<path fill="#000000" opacity="1.000000" stroke="none" 
	d="
M224.557495,191.394836 
	C230.085434,192.303528 233.431915,195.134674 234.261627,200.371902 
	C235.035324,205.255463 233.326462,209.222107 229.014908,211.805984 
	C224.871155,214.289291 220.760208,213.833969 216.877640,211.148392 
	C212.582352,208.177292 211.969391,203.801849 212.929108,199.179214 
	C213.924713,194.383789 218.136047,191.633148 224.557495,191.394836 
z"/>
<path fill="#000000" opacity="1.000000" stroke="none" 
	d="
M215.513199,358.642273 
	C222.036407,353.709595 229.455429,354.668640 232.950073,360.578033 
	C236.261749,366.178131 234.127808,373.294220 228.237900,376.291718 
	C224.032120,378.432129 218.211929,377.248779 215.048752,373.610077 
	C211.706085,369.765015 211.778610,364.339264 215.513199,358.642273 
z"/>
<path fill="#000000" opacity="1.000000" stroke="none" 
	d="
M204.100967,351.709747 
	C199.955185,357.963501 195.627991,359.764862 190.119827,357.831726 
	C184.692780,355.927002 181.551727,349.992798 183.149857,344.663849 
	C185.001740,338.488708 191.153870,335.153900 197.265030,337.012573 
	C203.277130,338.841125 206.036697,344.503967 204.100967,351.709747 
z"/>
</svg>