<svg version="1.1" id="Layer_1" xmlns="http://www.w3.org/2000/svg" xmlns:xlink="http://www.w3.org/1999/xlink" x="0px" y="0px"
	 width="100%" viewBox="0 0 512 512" enable-background="new 0 0 512 512" xml:space="preserve">
<path fill="#000000" opacity="1.000000" stroke="none" 
	d="
M359.291840,84.733612 
	C356.241211,77.648323 351.569031,72.023666 347.118378,66.159317 
	C356.679504,62.305981 367.390869,64.702629 373.484680,71.776100 
	C392.998047,94.426605 391.955322,130.022888 371.211914,151.573700 
	C368.628784,154.257355 365.844025,155.761765 361.981415,155.403824 
	C357.251617,154.965500 352.431061,155.883255 346.722443,154.600433 
	C364.984436,133.630142 370.535522,110.750618 359.291840,84.733612 
z"/>
<path fill="#000000" opacity="1.000000" stroke="none" 
	d="
M308.942871,80.061142 
	C306.344818,74.786324 302.425476,70.859642 299.308014,66.351776 
	C305.523102,63.025192 318.348572,64.577911 322.939056,69.063622 
	C343.339386,88.998253 345.101318,125.108215 326.745941,147.085083 
	C319.322479,155.973236 314.096588,157.461365 299.814453,154.752167 
	C299.162354,153.417694 300.042480,152.592712 300.800171,151.697678 
	C319.362396,129.770691 322.254913,106.011108 308.942871,80.061142 
z"/>
<path fill="#000000" opacity="1.000000" stroke="none" 
	d="
M151.149658,95.120735 
	C145.645538,118.008812 152.467667,137.146408 167.373367,154.012955 
	C159.912811,157.650009 146.995972,155.345673 141.841736,149.624588 
	C121.503769,127.049889 121.947472,91.187935 142.683884,69.486290 
	C145.786392,66.239357 149.021561,64.447037 153.612457,64.770935 
	C158.005905,65.080902 162.438354,64.837837 168.430725,64.837837 
	C160.290512,74.640625 153.994827,83.728813 151.149658,95.120735 
z"/>
<path fill="#000000" opacity="1.000000" stroke="none" 
	d="
M197.330627,112.858826 
	C198.002823,129.218307 205.158524,142.281799 215.360336,154.001923 
	C208.291016,157.533752 195.099396,155.378082 190.186768,150.044312 
	C169.420731,127.498062 169.852478,90.942375 190.985641,69.176453 
	C194.014633,66.056793 197.183792,64.412804 201.536896,64.800728 
	C205.941788,65.193253 210.428665,64.296066 215.862259,65.559723 
	C203.968857,79.322754 196.418945,94.279839 197.330627,112.858826 
z"/>
<path fill="#000000" opacity="1.000000" stroke="none" 
	d="
M338.177612,306.764343 
	C343.716431,306.933685 347.480377,309.142578 349.485229,314.031647 
	C351.209045,318.235474 350.099823,322.011749 347.312653,325.164276 
	C344.528656,328.313232 340.925049,329.849030 336.542694,328.668213 
	C331.876434,327.410950 329.058075,324.346283 328.112274,319.742523 
	C327.222595,315.411774 329.114380,311.940613 332.348877,309.172821 
	C333.890045,307.854065 335.729004,307.057861 338.177612,306.764343 
z"/>
<path fill="#000000" opacity="1.000000" stroke="none" 
	d="
M252.116547,383.453247 
	C246.436020,379.371796 244.689392,374.990875 246.494736,370.095734 
	C248.360275,365.037323 252.623047,362.319885 258.151031,362.665039 
	C262.992859,362.967346 266.791718,366.248840 267.985321,371.159973 
	C270.071777,379.744843 262.364624,385.944611 252.116547,383.453247 
z"/>
<path fill="#000000" opacity="1.000000" stroke="none" 
	d="
M338.442474,276.446899 
	C345.175507,271.839294 352.124237,272.753723 355.651825,278.409851 
	C359.001862,283.781372 357.237915,290.685638 351.679871,293.956543 
	C347.497162,296.418060 341.780426,295.619598 338.373444,292.098022 
	C334.330688,287.919342 334.262604,282.604126 338.442474,276.446899 
z"/>
<path fill="#000000" opacity="1.000000" stroke="none" 
	d="
M326.074585,211.654053 
	C331.463898,216.445587 332.722931,221.145325 330.191071,225.914963 
	C327.747162,230.518936 322.878204,232.976715 318.186737,231.974594 
	C311.856384,230.622391 308.047913,224.663696 309.574768,218.500259 
	C311.081879,212.416565 317.174988,208.921799 323.415955,210.589508 
	C324.208954,210.801422 324.959290,211.173111 326.074585,211.654053 
z"/>
<path fill="#000000" opacity="1.000000" stroke="none" 
	d="
M195.558868,232.116653 
	C188.484253,231.914307 184.572693,229.206406 183.097122,223.841309 
	C181.870941,219.382980 183.917526,214.391251 188.042511,211.779327 
	C192.948593,208.672760 199.932938,210.098251 203.025986,214.837418 
	C206.555115,220.244751 205.059601,227.148895 199.587357,230.423370 
	C198.459747,231.098099 197.175766,231.511520 195.558868,232.116653 
z"/>
<path fill="#000000" opacity="1.000000" stroke="none" 
	d="
M164.940033,246.336563 
	C168.711838,240.640518 172.544556,238.736282 177.552948,239.926468 
	C182.481903,241.097763 185.282745,244.473679 186.059265,249.275543 
	C186.828842,254.034409 184.586212,257.687195 180.596130,260.155853 
	C176.480804,262.701965 172.285507,262.216522 168.435867,259.579254 
	C164.455109,256.852203 163.275116,252.226532 164.940033,246.336563 
z"/>
<path fill="#000000" opacity="1.000000" stroke="none" 
	d="
M349.747314,247.742142 
	C350.599762,254.683762 347.582611,259.788330 342.079468,261.332581 
	C336.852875,262.799225 331.422150,260.382599 329.096008,255.555084 
	C326.394806,249.949142 328.933380,243.238510 334.773804,240.545822 
	C340.485077,237.912674 346.418060,240.639542 349.747314,247.742142 
z"/>
<path fill="#000000" opacity="1.000000" stroke="none" 
	d="
M156.730621,284.033630 
	C158.102921,277.399109 161.498962,273.756348 166.646225,273.387177 
	C171.503754,273.038757 175.507355,274.711029 177.795120,279.279205 
	C180.713806,285.107178 178.043900,291.976257 171.946991,294.593628 
	C166.487915,296.937225 159.947739,294.106903 157.611053,288.299225 
	C157.125595,287.092651 157.013794,285.735779 156.730621,284.033630 
z"/>
<path fill="#000000" opacity="1.000000" stroke="none" 
	d="
M164.253479,320.342499 
	C163.772995,312.983551 167.569778,307.699005 173.572205,306.829071 
	C179.134247,306.022980 184.822815,310.174622 186.060226,315.943115 
	C187.214508,321.324066 183.263489,327.182953 177.448959,328.712646 
	C172.050964,330.132721 167.200150,327.169098 164.253479,320.342499 
z"/>
<path fill="#000000" opacity="1.000000" stroke="none" 
	d="
M281.205841,360.602875 
	C284.763794,355.622345 289.300568,354.237762 294.583130,355.997467 
	C299.163086,357.523132 301.414642,361.125641 301.626465,365.889893 
	C301.840698,370.708496 299.606293,374.261566 295.316101,376.288116 
	C291.022156,378.316467 286.883972,377.730713 283.273102,374.547668 
	C279.362213,371.100250 278.655853,366.679108 281.205841,360.602875 
z"/>
<path fill="#000000" opacity="1.000000" stroke="none" 
	d="
M249.256775,187.265686 
	C253.695480,183.444336 258.192963,183.054489 262.876526,185.803665 
	C266.856598,188.139877 268.648590,191.870071 268.073608,196.315887 
	C267.476349,200.934387 264.721161,204.174057 260.174072,205.681824 
	C256.060577,207.045807 250.964325,205.338181 248.216309,201.678772 
	C244.899414,197.261795 245.111664,193.356064 249.256775,187.265686 
z"/>
<path fill="#000000" opacity="1.000000" stroke="none" 
	d="
M280.110046,198.778107 
	C283.784760,192.438156 287.514313,190.490997 293.184143,191.649811 
	C297.920319,192.617798 300.912659,195.986511 301.424072,200.926102 
	C302.102234,207.476364 297.742523,212.890579 291.467560,213.290817 
	C284.827637,213.714355 279.743164,208.911560 279.685455,202.119034 
	C279.677124,201.133621 279.861938,200.146561 280.110046,198.778107 
z"/>
<path fill="#000000" opacity="1.000000" stroke="none" 
	d="
M317.553162,336.815552 
	C328.046844,336.507111 334.262024,344.187378 330.368195,352.069794 
	C328.067047,356.728088 323.699249,359.138489 318.496429,358.320282 
	C313.557709,357.543549 310.504456,354.567596 309.417114,349.659821 
	C308.370239,344.934570 310.358429,340.661591 314.883148,337.926849 
	C315.587616,337.501038 316.385254,337.229370 317.553162,336.815552 
z"/>
<path fill="#000000" opacity="1.000000" stroke="none" 
	d="
M233.871124,370.183533 
	C230.081757,376.267670 226.206268,378.416779 221.080048,377.119720 
	C216.781784,376.032196 213.571472,373.453705 212.786987,368.839020 
	C211.939209,363.851959 213.345901,359.616119 217.822113,356.795929 
	C221.783386,354.300171 225.819183,354.810760 229.558609,357.128571 
	C234.323212,360.081726 234.990585,364.713104 233.871124,370.183533 
z"/>
<path fill="#000000" opacity="1.000000" stroke="none" 
	d="
M213.362961,197.993835 
	C217.156113,192.037064 220.410446,190.442230 225.946289,191.694656 
	C230.651459,192.759171 233.586945,195.657104 234.274597,200.483627 
	C235.019043,205.708725 232.583954,210.229233 227.952896,212.364349 
	C223.943359,214.212891 220.100082,213.573212 216.665955,210.967819 
	C212.357574,207.699173 211.962570,203.219620 213.362961,197.993835 
z"/>
<path fill="#000000" opacity="1.000000" stroke="none" 
	d="
M201.391815,355.513184 
	C194.616928,360.034698 187.683228,358.916321 184.311813,353.073395 
	C181.098297,347.504120 183.035095,340.829681 188.760315,337.743347 
	C193.082764,335.413208 199.079086,336.578156 202.352295,340.383972 
	C206.121735,344.766785 205.904922,349.547363 201.391815,355.513184 
z"/>
</svg>