<svg version="1.1" id="Layer_1" xmlns="http://www.w3.org/2000/svg" xmlns:xlink="http://www.w3.org/1999/xlink" x="0px" y="0px"
	 width="100%" viewBox="0 0 512 512" enable-background="new 0 0 512 512" xml:space="preserve">
<path fill="#000000" opacity="1.000000" stroke="none" 
	d="
M314.002930,415.977081 
	C310.949097,405.731842 304.838531,397.686066 297.511658,388.843872 
	C305.483795,388.843872 312.052246,388.756226 318.615448,388.902924 
	C320.347260,388.941620 321.436462,390.588654 322.577209,391.774200 
	C335.169250,404.861450 340.607086,420.449615 339.569733,438.597839 
	C338.730927,453.271637 333.238007,465.599274 323.004303,476.040466 
	C320.351196,478.747345 317.545258,480.179688 313.752655,479.902008 
	C308.834412,479.541901 303.807678,480.574890 298.049622,478.658508 
	C314.476471,460.458252 321.289673,440.096680 314.002930,415.977081 
z"/>
<path fill="#000000" opacity="1.000000" stroke="none" 
	d="
M183.457153,465.444000 
	C169.712448,441.833038 172.303391,413.906158 189.713104,394.053284 
	C192.982330,390.325256 196.460358,387.935547 201.739838,388.591614 
	C206.287628,389.156738 210.963745,388.136200 216.458282,389.374969 
	C191.127594,419.109314 191.052689,448.722412 217.165436,479.396820 
	C209.353439,479.396820 202.821945,479.811920 196.376556,479.246124 
	C192.299820,478.888245 190.530411,474.624664 188.030685,471.820404 
	C186.380112,469.968811 185.099869,467.787109 183.457153,465.444000 
z"/>
<path fill="#000000" opacity="1.000000" stroke="none" 
	d="
M340.588867,328.955872 
	C331.168335,328.404846 325.968903,321.932953 328.574829,314.573212 
	C330.320862,309.641998 334.794067,306.460510 339.566986,306.755219 
	C344.704102,307.072418 349.126160,310.913055 350.105591,315.908234 
	C350.998260,320.460815 348.351654,325.525177 343.795502,327.858063 
	C342.915192,328.308777 341.923187,328.541382 340.588867,328.955872 
z"/>
<path fill="#000000" opacity="1.000000" stroke="none" 
	d="
M182.738159,220.185165 
	C184.572723,213.647980 188.169769,209.982620 193.108154,209.982513 
	C197.624939,209.982407 201.552094,211.613556 203.700684,216.026672 
	C206.724091,222.236588 204.095184,228.868546 197.607132,231.455048 
	C191.624741,233.839981 185.106750,230.519455 183.154022,224.021057 
	C182.827438,222.934219 182.854202,221.741165 182.738159,220.185165 
z"/>
<path fill="#000000" opacity="1.000000" stroke="none" 
	d="
M175.094452,275.813019 
	C179.872559,281.509308 180.268875,285.995361 176.693634,290.852142 
	C173.827103,294.746185 168.813278,296.348999 164.340378,294.801208 
	C159.443558,293.106750 156.324692,288.361206 156.741974,283.239685 
	C157.436096,274.720673 166.382675,270.917725 175.094452,275.813019 
z"/>
<path fill="#000000" opacity="1.000000" stroke="none" 
	d="
M173.386627,306.852112 
	C180.732681,307.142609 184.617249,309.971375 185.979401,315.661682 
	C186.993423,319.897675 184.859589,324.743896 180.893936,327.211517 
	C175.681396,330.454987 169.312027,329.145538 165.955658,324.140411 
	C162.550171,319.062042 163.587112,312.707336 168.546585,309.122894 
	C169.866318,308.169037 171.492889,307.639709 173.386627,306.852112 
z"/>
<path fill="#000000" opacity="1.000000" stroke="none" 
	d="
M351.908752,274.788696 
	C357.268768,279.258331 358.613922,283.594849 356.451477,288.510529 
	C354.258850,293.494904 349.691956,296.034241 344.362152,295.232513 
	C339.577271,294.512756 335.881561,290.469391 335.220367,285.333130 
	C334.376038,278.773834 341.445953,269.864685 351.908752,274.788696 
z"/>
<path fill="#000000" opacity="1.000000" stroke="none" 
	d="
M328.291260,253.315399 
	C327.687347,246.344009 330.910278,241.238571 336.410065,239.878815 
	C341.726318,238.564438 347.287354,241.475922 349.387207,246.672974 
	C351.445038,251.766083 349.354584,257.485107 344.382507,260.364655 
	C338.347473,263.859802 331.556152,261.022858 328.291260,253.315399 
z"/>
<path fill="#000000" opacity="1.000000" stroke="none" 
	d="
M184.575424,256.249573 
	C180.228683,261.505188 176.445999,262.879425 171.287781,261.101959 
	C166.689011,259.517242 164.225311,255.963181 163.937195,251.320801 
	C163.644913,246.611572 166.005920,242.965347 170.241043,240.807785 
	C174.559052,238.607971 178.715454,239.363983 182.366852,242.327805 
	C186.265228,245.492096 187.012451,250.317719 184.575424,256.249573 
z"/>
<path fill="#000000" opacity="1.000000" stroke="none" 
	d="
M324.685059,210.919525 
	C330.561859,214.678787 332.625366,219.446640 330.873749,224.509277 
	C329.212708,229.310104 324.022430,232.724243 319.216156,232.177597 
	C313.871063,231.569641 310.103821,227.901077 309.283264,222.504776 
	C308.060547,214.464157 315.576355,208.601273 324.685059,210.919525 
z"/>
<path fill="#000000" opacity="1.000000" stroke="none" 
	d="
M267.337982,191.081116 
	C269.191284,198.222061 265.997559,204.212967 259.732483,205.937500 
	C254.398956,207.405594 248.165649,203.766953 246.422455,198.167877 
	C244.634399,192.424591 247.961365,186.416809 254.020615,184.447189 
	C258.964630,182.840088 263.908875,185.179901 267.337982,191.081116 
z"/>
<path fill="#000000" opacity="1.000000" stroke="none" 
	d="
M252.908752,363.222107 
	C258.144470,362.021790 262.652832,362.460388 265.862640,366.762024 
	C268.292725,370.018677 269.115112,373.675354 267.324249,377.561340 
	C265.256592,382.047974 261.899109,384.521790 256.765533,384.410217 
	C251.880569,384.304077 248.576340,381.986389 246.713303,377.586975 
	C244.698044,372.828094 246.163208,368.807861 249.679886,365.380188 
	C250.498077,364.582672 251.578156,364.053864 252.908752,363.222107 
z"/>
<path fill="#000000" opacity="1.000000" stroke="none" 
	d="
M298.013153,193.902557 
	C303.144012,200.503540 302.698181,207.211365 297.171478,211.186478 
	C291.901123,214.977219 285.059052,213.767578 281.418518,208.401459 
	C278.662079,204.338486 279.055786,198.735580 282.359375,195.011871 
	C286.192352,190.691452 291.587982,190.215195 298.013153,193.902557 
z"/>
<path fill="#000000" opacity="1.000000" stroke="none" 
	d="
M300.113861,371.949219 
	C296.814575,376.827118 292.412170,378.396484 287.317352,376.845184 
	C282.882751,375.494904 280.101196,372.256104 279.689209,367.372528 
	C279.261963,362.308167 281.435577,358.611267 285.871796,356.417694 
	C290.139679,354.307373 294.334381,354.985535 297.979523,357.969849 
	C301.752930,361.059052 302.466064,365.847076 300.113861,371.949219 
z"/>
<path fill="#000000" opacity="1.000000" stroke="none" 
	d="
M309.080414,347.891998 
	C310.425751,340.012329 313.964172,336.602905 320.320862,336.640656 
	C326.009949,336.674438 330.233185,340.169983 331.202118,345.647003 
	C332.166687,351.099457 328.340302,357.009796 323.056244,358.229401 
	C316.299011,359.789001 311.014465,356.021393 309.080414,347.891998 
z"/>
<path fill="#000000" opacity="1.000000" stroke="none" 
	d="
M217.668549,375.652588 
	C212.665344,371.478363 211.291931,366.681274 213.438538,361.842041 
	C215.370895,357.485809 219.684814,354.841644 224.131348,355.288086 
	C229.222534,355.799194 233.198471,359.063690 234.189957,363.546753 
	C235.338074,368.738007 233.121780,373.703400 228.450180,376.146576 
	C224.949997,377.977173 221.438873,377.768555 217.668549,375.652588 
z"/>
<path fill="#000000" opacity="1.000000" stroke="none" 
	d="
M233.098450,207.631470 
	C229.904724,212.528870 225.663239,214.345230 220.468597,212.915771 
	C216.410873,211.799179 213.445831,209.104660 212.763504,204.685471 
	C212.025085,199.903015 213.289307,195.811798 217.510422,192.984146 
	C221.175888,190.528687 226.907349,190.865982 230.551239,193.745880 
	C234.412109,196.797318 235.326492,201.295898 233.098450,207.631470 
z"/>
<path fill="#000000" opacity="1.000000" stroke="none" 
	d="
M189.847107,337.183289 
	C200.064514,335.875122 206.752151,341.767944 204.719116,349.780609 
	C203.452423,354.772919 199.357895,358.210419 194.472961,358.382568 
	C188.986359,358.575958 184.784744,355.630615 183.209229,350.486603 
	C181.664291,345.442413 183.814835,340.933441 189.847107,337.183289 
z"/>
</svg>