<svg version="1.1" id="Layer_1" xmlns="http://www.w3.org/2000/svg" xmlns:xlink="http://www.w3.org/1999/xlink" x="0px" y="0px"
	 width="100%" viewBox="0 0 512 512" enable-background="new 0 0 512 512" xml:space="preserve">
<path fill="#000000" opacity="1.000000" stroke="none" 
	d="
M414.128326,289.099762 
	C422.073364,309.895264 421.059235,329.452393 408.412964,347.829498 
	C400.852173,358.816650 391.200623,362.133728 378.382202,357.844727 
	C403.452515,328.447449 402.790253,298.823547 378.735291,269.348602 
	C386.116150,265.366669 399.074280,267.486053 403.866791,273.365570 
	C407.756836,278.137909 411.454834,283.066528 414.128326,289.099762 
z"/>
<path fill="#000000" opacity="1.000000" stroke="none" 
	d="
M128.727509,359.011292 
	C116.545639,361.374146 109.856583,354.996460 103.994308,345.929504 
	C88.949562,322.660248 92.096146,290.713867 111.636017,271.455627 
	C114.342911,268.787750 117.161102,267.513062 120.943748,267.692047 
	C125.546127,267.909851 130.166672,267.743805 136.023239,267.743805 
	C110.607109,298.111694 110.569534,327.819427 134.824860,357.403717 
	C133.195892,359.600433 131.050903,358.785431 128.727509,359.011292 
z"/>
</svg>