<svg version="1.1" id="Layer_1" xmlns="http://www.w3.org/2000/svg" xmlns:xlink="http://www.w3.org/1999/xlink" x="0px" y="0px"
	 width="100%" viewBox="0 0 512 512" enable-background="new 0 0 512 512" xml:space="preserve">
<path fill="#000000" opacity="1.000000" stroke="none" 
	d="
M212.822479,434.376038 
	C216.856720,448.481873 220.748108,462.208313 224.845718,476.662140 
	C229.657745,457.687378 236.752441,440.106781 242.884186,422.198273 
	C243.099915,421.568237 243.326324,420.941193 243.570053,420.321533 
	C249.380997,405.548798 244.917755,408.238861 261.562347,407.867798 
	C265.139832,407.788086 266.899078,409.188019 268.018127,412.579437 
	C274.584534,432.480164 281.339691,452.318634 288.027802,472.179230 
	C288.277344,472.920288 288.491821,473.673157 289.075348,475.562439 
	C292.165192,465.149902 294.961792,455.845032 297.684753,446.518646 
	C300.947662,435.342926 304.276337,424.183472 307.302277,412.943146 
	C308.304077,409.221802 310.149414,407.547241 313.966614,407.907684 
	C317.868805,408.276154 321.913422,407.132935 325.579254,408.776550 
	C326.628693,410.739044 325.591400,412.290253 325.126434,413.794891 
	C317.218750,439.383636 309.159698,464.926117 301.376740,490.552490 
	C300.182922,494.483276 298.364349,495.557709 294.350677,495.578033 
	C279.565643,495.652771 279.514343,495.847809 274.810547,481.680511 
	C268.847595,463.720642 262.225647,445.979889 256.734558,426.473267 
	C252.766876,442.299896 247.156586,456.276184 242.226273,470.485809 
	C239.825943,477.403809 237.254166,484.263733 234.949890,491.212891 
	C234.001587,494.072723 232.670853,495.748566 229.349365,495.614594 
	C225.205246,495.447449 221.043991,495.642548 216.892029,495.752563 
	C213.677719,495.837738 213.283905,493.373444 212.604568,491.163116 
	C206.641693,471.761505 200.687592,452.357239 194.734131,432.952728 
	C192.636078,426.114349 190.641708,419.242157 188.411560,412.447235 
	C187.383438,409.314728 188.419907,408.046844 191.499664,407.964417 
	C191.999130,407.951050 192.498749,407.924713 192.998108,407.928497 
	C207.548660,408.038452 204.542679,406.351044 208.391495,419.143860 
	C209.876022,424.078186 211.253418,429.044739 212.822479,434.376038 
z"/>
<path fill="#000000" opacity="1.000000" stroke="none" 
	d="
M204.190063,217.197113 
	C205.950851,224.360367 203.234146,229.610397 196.981079,231.721298 
	C191.715530,233.498825 185.798477,230.636230 183.587097,225.241486 
	C181.354355,219.794617 183.811157,213.542236 189.177032,211.015671 
	C194.805862,208.365295 200.478699,210.575027 204.190063,217.197113 
z"/>
<path fill="#000000" opacity="1.000000" stroke="none" 
	d="
M346.730835,273.310913 
	C354.192810,274.795502 357.779510,278.959534 357.313019,285.217377 
	C356.904785,290.693909 352.284088,295.135071 346.805359,295.316833 
	C340.834808,295.514862 336.275177,291.724365 335.317352,285.766663 
	C334.288086,279.364380 338.764465,274.284729 346.730835,273.310913 
z"/>
<path fill="#000000" opacity="1.000000" stroke="none" 
	d="
M246.032196,375.519775 
	C245.945251,369.022491 248.825745,364.417175 253.545288,362.964691 
	C258.204010,361.530914 263.311218,363.166656 266.060181,366.972931 
	C268.970306,371.002350 268.975433,375.960205 266.015686,380.014679 
	C263.268250,383.778290 259.435089,384.946106 255.000610,384.283997 
	C250.157211,383.560791 247.452286,380.437286 246.032196,375.519775 
z"/>
<path fill="#000000" opacity="1.000000" stroke="none" 
	d="
M347.343140,325.242432 
	C340.198517,330.655914 333.365143,329.858704 329.584320,323.503174 
	C326.218262,317.845001 328.348694,310.978027 334.425385,307.898834 
	C338.621399,305.772614 343.953217,306.788483 347.221130,310.336853 
	C351.020966,314.462799 351.133026,318.991455 347.343140,325.242432 
z"/>
<path fill="#000000" opacity="1.000000" stroke="none" 
	d="
M186.118713,316.362061 
	C185.801483,323.533356 182.829575,327.482239 177.124969,328.808441 
	C172.953873,329.778137 168.021301,327.537933 165.645203,323.594757 
	C162.310669,318.061035 164.117706,311.509857 169.889694,308.206635 
	C175.183685,305.177002 181.922760,307.178345 184.829254,312.698944 
	C185.365463,313.717438 185.648453,314.869232 186.118713,316.362061 
z"/>
<path fill="#000000" opacity="1.000000" stroke="none" 
	d="
M175.662567,276.334869 
	C179.148453,280.561127 180.281326,284.788422 177.546387,289.480377 
	C175.149338,293.592682 171.622879,295.765472 166.800415,295.260254 
	C162.037415,294.761261 158.814316,292.103027 157.299362,287.570618 
	C155.671432,282.700226 157.290421,278.706482 161.124512,275.591492 
	C165.190506,272.288086 170.002838,272.525116 175.662567,276.334869 
z"/>
<path fill="#000000" opacity="1.000000" stroke="none" 
	d="
M335.247772,261.105164 
	C329.234161,257.712646 326.955109,253.407318 328.225159,248.427505 
	C329.559204,243.196671 333.897736,239.666794 338.979401,239.677719 
	C344.330933,239.689224 348.486664,243.012756 349.956940,248.161362 
	C351.857330,254.816254 344.865021,264.297028 335.247772,261.105164 
z"/>
<path fill="#000000" opacity="1.000000" stroke="none" 
	d="
M168.258453,242.053146 
	C174.211594,238.638351 179.414658,239.075623 183.125381,243.038147 
	C186.716415,246.872849 187.234985,251.930176 184.492676,256.372253 
	C181.693298,260.906769 176.725525,262.676758 171.505997,261.212799 
	C165.371597,259.492218 159.850204,249.671997 168.258453,242.053146 
z"/>
<path fill="#000000" opacity="1.000000" stroke="none" 
	d="
M319.237671,209.917450 
	C324.888855,210.202271 329.006958,212.299759 330.777557,217.556107 
	C332.239380,221.895676 331.185669,225.767731 327.907013,228.985077 
	C323.283539,233.522095 315.952667,233.269867 311.903870,228.454727 
	C307.712250,223.469757 308.404877,216.502457 313.467468,212.495483 
	C315.068359,211.228409 316.857361,210.401596 319.237671,209.917450 
z"/>
<path fill="#000000" opacity="1.000000" stroke="none" 
	d="
M248.132751,201.690155 
	C244.905334,196.738831 245.142303,192.145889 248.651627,188.004349 
	C251.236481,184.953812 254.608734,183.294662 258.859131,184.237488 
	C263.724182,185.316681 266.866364,188.122040 268.006317,193.017639 
	C269.019379,197.368210 266.579376,202.388123 262.331726,204.814529 
	C257.743774,207.435333 253.539276,206.587769 248.132751,201.690155 
z"/>
<path fill="#000000" opacity="1.000000" stroke="none" 
	d="
M301.683594,366.850525 
	C300.164978,373.991699 296.548553,377.302307 290.648834,377.312317 
	C285.642365,377.320801 281.054810,373.881775 279.905426,369.258636 
	C278.589325,363.964813 281.051819,358.696136 285.937286,356.327362 
	C292.363373,353.211639 301.868774,357.249359 301.683594,366.850525 
z"/>
<path fill="#000000" opacity="1.000000" stroke="none" 
	d="
M299.714294,208.570374 
	C296.244568,213.032501 291.941589,214.375015 287.077484,212.758881 
	C282.862030,211.358276 280.176788,208.244263 279.704742,203.602081 
	C279.216705,198.803177 281.122772,195.178513 285.233582,192.743347 
	C289.218536,190.382736 294.908508,191.019379 298.245728,194.103104 
	C301.953888,197.529556 302.575073,202.720673 299.714294,208.570374 
z"/>
<path fill="#000000" opacity="1.000000" stroke="none" 
	d="
M311.532623,354.339233 
	C308.270447,348.336304 308.527435,343.592407 312.236877,339.898163 
	C315.789001,336.360596 320.095703,335.735748 324.660858,337.419281 
	C329.064850,339.043365 331.741852,343.699219 331.288635,348.607910 
	C330.883179,352.999512 328.379028,356.129150 324.451813,357.667297 
	C319.721405,359.520050 315.312469,358.530273 311.532623,354.339233 
z"/>
<path fill="#000000" opacity="1.000000" stroke="none" 
	d="
M220.623184,377.036377 
	C212.496674,373.033295 210.177216,365.580383 214.811310,359.526245 
	C218.017044,355.338165 223.192764,354.109406 228.163239,356.356445 
	C232.855545,358.477722 235.239304,363.323853 234.245407,368.721252 
	C233.425674,373.172882 229.187958,376.925049 224.488922,377.271240 
	C223.341843,377.355743 222.176651,377.194366 220.623184,377.036377 
z"/>
<path fill="#000000" opacity="1.000000" stroke="none" 
	d="
M223.087921,213.303635 
	C215.754852,211.880402 212.657364,208.538635 212.631577,202.469650 
	C212.608398,197.015121 215.901566,192.654861 220.886063,191.540405 
	C225.911331,190.416840 231.178726,192.896881 233.374817,197.420471 
	C236.937073,204.758148 232.231613,212.334564 223.087921,213.303635 
z"/>
<path fill="#000000" opacity="1.000000" stroke="none" 
	d="
M189.852844,337.197784 
	C200.129715,335.869995 206.811661,341.859558 204.648331,349.947266 
	C203.301666,354.981842 199.192230,358.293427 194.191376,358.373932 
	C188.856628,358.459808 184.847778,355.607269 183.256516,350.593201 
	C181.642258,345.506622 183.779648,340.964539 189.852844,337.197784 
z"/>
</svg>