<svg version="1.1" id="Layer_1" xmlns="http://www.w3.org/2000/svg" xmlns:xlink="http://www.w3.org/1999/xlink" x="0px" y="0px"
	 width="100%" viewBox="0 0 512 512" enable-background="new 0 0 512 512" xml:space="preserve">
<path fill="#000000" opacity="1.000000" stroke="none" 
	d="
M208.422607,427.553894 
	C210.029510,422.410614 211.612686,417.673309 212.939316,412.865204 
	C213.760147,409.890228 215.221664,408.639832 218.515579,408.576355 
	C234.505585,408.268158 234.434509,408.190063 239.499023,423.422546 
	C245.263016,440.758881 251.166763,458.048706 257.294434,476.201996 
	C259.500061,469.421143 261.404236,463.209808 263.538055,457.078430 
	C268.623779,442.464752 273.875793,427.908813 278.923859,413.282318 
	C280.050873,410.016907 281.680420,408.454803 285.393524,408.592621 
	C303.391876,409.260712 298.817627,405.196899 304.307648,422.506683 
	C311.394745,444.851959 318.118408,467.312469 325.009399,489.720032 
	C326.897186,495.858643 326.678406,496.172882 320.190735,496.230408 
	C308.917603,496.330414 308.872620,496.343414 305.698547,485.342712 
	C300.190765,466.253387 294.744781,447.146271 289.095032,427.425812 
	C283.670410,448.942047 275.290314,468.897339 268.567719,489.410492 
	C266.922333,494.431152 264.706665,496.616180 259.100220,496.370331 
	C245.112473,495.756866 248.383041,498.116882 243.853867,485.142242 
	C237.405426,466.669525 231.307770,448.074371 224.814453,428.801941 
	C221.181839,441.194550 217.726349,452.920227 214.310165,464.657318 
	C211.661026,473.759064 208.942413,482.843506 206.504227,492.002045 
	C205.664459,495.156403 204.097809,496.461182 200.895874,496.273163 
	C198.074112,496.107483 195.229538,496.116638 192.405319,496.256439 
	C188.055237,496.471771 187.380569,494.727234 188.635590,490.786743 
	C195.297531,469.869598 201.759369,448.888733 208.422607,427.553894 
z"/>
<path fill="#000000" opacity="1.000000" stroke="none" 
	d="
M327.897797,317.206726 
	C330.899750,307.178619 339.321838,303.670349 346.131866,309.336151 
	C349.430939,312.080902 351.004517,315.737335 349.970673,320.036194 
	C348.816895,324.833649 345.682251,327.954559 340.808563,328.853912 
	C336.514801,329.646240 332.953033,327.942993 330.286743,324.552490 
	C328.711365,322.549286 327.845490,320.208801 327.897797,317.206726 
z"/>
<path fill="#000000" opacity="1.000000" stroke="none" 
	d="
M201.757233,213.245743 
	C205.185074,217.696716 206.299240,222.084610 203.266006,226.818237 
	C200.709549,230.807770 197.005829,232.766937 192.311981,232.088547 
	C187.646362,231.414246 184.469955,228.615158 183.159698,224.038895 
	C181.766251,219.172043 183.466843,215.204163 187.331238,212.193817 
	C191.551743,208.906113 195.803055,209.221634 201.757233,213.245743 
z"/>
<path fill="#000000" opacity="1.000000" stroke="none" 
	d="
M179.026230,285.640900 
	C177.649933,290.715424 174.910568,294.160004 170.021194,295.147247 
	C165.815491,295.996460 162.028381,294.694916 159.304840,291.268463 
	C156.357544,287.560516 155.641876,283.368958 158.024658,279.142853 
	C160.331238,275.051941 163.936935,272.923737 168.790741,273.381622 
	C173.564331,273.831940 176.923691,276.166809 178.348862,280.853333 
	C178.777725,282.263702 178.858429,283.779968 179.026230,285.640900 
z"/>
<path fill="#000000" opacity="1.000000" stroke="none" 
	d="
M339.262634,292.921234 
	C335.232086,288.842651 333.940948,284.450928 336.359375,279.486755 
	C338.348083,275.404755 341.769073,273.106537 346.360596,273.298126 
	C351.231842,273.501434 355.004761,275.723755 356.688721,280.557404 
	C358.345184,285.312225 357.092072,289.442200 353.390533,292.735840 
	C349.557312,296.146667 345.073059,296.205811 339.262634,292.921234 
z"/>
<path fill="#000000" opacity="1.000000" stroke="none" 
	d="
M245.814819,373.922241 
	C246.273727,368.148895 248.968155,364.224609 254.166656,362.914856 
	C258.767151,361.755707 263.180237,362.802704 266.113068,367.075256 
	C268.690582,370.830200 269.038788,374.825226 266.748566,378.842590 
	C264.478210,382.825134 261.004547,384.614441 256.377533,384.416229 
	C251.901382,384.224426 248.851257,382.028778 246.938904,378.151062 
	C246.361801,376.980835 246.190506,375.610504 245.814819,373.922241 
z"/>
<path fill="#000000" opacity="1.000000" stroke="none" 
	d="
M171.089600,307.597504 
	C178.719299,305.804626 184.407394,309.047791 185.983124,315.725403 
	C187.305893,321.331055 183.254395,327.346863 177.181824,328.793884 
	C171.696457,330.100922 165.904831,326.354034 164.287704,320.451965 
	C162.948349,315.563660 165.045792,311.423309 171.089600,307.597504 
z"/>
<path fill="#000000" opacity="1.000000" stroke="none" 
	d="
M349.299011,254.836334 
	C345.423004,260.942688 341.897766,262.615173 336.362427,261.344757 
	C331.314819,260.186340 328.626678,256.709198 328.031708,251.906067 
	C327.421387,246.979263 329.815765,243.191284 334.173920,240.851440 
	C338.267822,238.653473 342.403534,239.201874 345.884674,241.993896 
	C349.851349,245.175323 351.383911,249.416000 349.299011,254.836334 
z"/>
<path fill="#000000" opacity="1.000000" stroke="none" 
	d="
M179.801239,240.702301 
	C185.481857,244.546265 187.378174,249.069931 185.657501,253.945786 
	C184.015259,258.599335 179.645355,261.882385 175.157120,261.834625 
	C169.821518,261.777832 165.620041,258.472931 164.225693,253.235870 
	C161.956619,244.713379 169.990021,238.008926 179.801239,240.702301 
z"/>
<path fill="#000000" opacity="1.000000" stroke="none" 
	d="
M327.374084,212.517593 
	C331.774292,217.718384 332.500854,222.107391 329.929962,226.426498 
	C327.351257,230.758713 322.633606,232.973358 318.090424,231.984406 
	C313.188721,230.917419 309.876801,227.402206 309.268311,222.360245 
	C308.740936,217.990662 310.547333,214.616501 314.062225,212.057693 
	C318.467194,208.850952 322.781342,209.554977 327.374084,212.517593 
z"/>
<path fill="#000000" opacity="1.000000" stroke="none" 
	d="
M249.741364,203.376587 
	C245.755096,199.201782 244.587494,194.838486 247.352234,189.931107 
	C249.678482,185.802032 253.243820,183.474518 258.035095,184.113586 
	C263.050659,184.782547 266.682892,187.488342 267.899536,192.697708 
	C268.963074,197.251358 267.275757,200.907608 263.829498,203.758209 
	C259.699310,207.174561 256.024628,207.059738 249.741364,203.376587 
z"/>
<path fill="#000000" opacity="1.000000" stroke="none" 
	d="
M297.394135,357.452850 
	C303.066101,363.738373 302.934357,370.900269 297.382568,375.077148 
	C292.066223,379.076874 284.882690,377.798370 281.260406,372.207794 
	C278.704163,368.262543 279.088745,362.846405 282.183807,359.203827 
	C285.822021,354.922028 290.898651,354.248108 297.394135,357.452850 
z"/>
<path fill="#000000" opacity="1.000000" stroke="none" 
	d="
M301.558868,201.325470 
	C301.081573,208.517853 297.751373,212.598297 292.190735,213.264130 
	C286.823486,213.906784 281.610718,210.689072 280.049561,205.769699 
	C278.431824,200.672104 280.693970,195.178772 285.478149,192.587082 
	C292.349091,188.864960 299.800568,192.754745 301.558868,201.325470 
z"/>
<path fill="#000000" opacity="1.000000" stroke="none" 
	d="
M311.584717,340.662964 
	C317.151550,335.848541 323.153595,335.376282 327.535278,339.110901 
	C331.390594,342.396942 332.491913,348.416809 330.020874,352.698029 
	C326.766144,358.337189 320.044434,360.175598 314.530853,356.934540 
	C308.985931,353.675079 307.726013,347.341492 311.584717,340.662964 
z"/>
<path fill="#000000" opacity="1.000000" stroke="none" 
	d="
M221.431824,377.206482 
	C213.645386,374.009399 210.820541,368.698761 213.170151,362.395447 
	C215.058853,357.328613 220.173599,354.484344 225.479233,355.550537 
	C231.315353,356.723267 234.554321,360.864807 234.350861,366.894257 
	C234.170486,372.239410 230.154144,376.638885 224.823959,377.260437 
	C223.844131,377.374695 222.838409,377.267059 221.431824,377.206482 
z"/>
<path fill="#000000" opacity="1.000000" stroke="none" 
	d="
M217.921783,192.715454 
	C223.905869,190.499664 228.813431,191.348022 231.858337,195.057007 
	C234.879944,198.737640 235.372147,202.959198 233.299515,207.150421 
	C231.122299,211.553162 227.361252,213.802612 222.328110,213.254089 
	C217.816635,212.762405 214.368393,210.383865 213.110748,206.026672 
	C211.611557,200.832611 212.796860,196.156967 217.921783,192.715454 
z"/>
<path fill="#000000" opacity="1.000000" stroke="none" 
	d="
M205.040649,347.105957 
	C204.469940,352.985840 201.774277,356.973602 196.261383,358.149414 
	C191.551773,359.153931 187.346786,357.728851 184.598434,353.467560 
	C182.131805,349.643188 182.064697,345.673981 184.485367,341.767670 
	C186.905487,337.862183 190.473877,336.219788 195.008911,336.680328 
	C199.558411,337.142334 202.653809,339.552612 204.256134,343.828156 
	C204.602448,344.752258 204.759888,345.747131 205.040649,347.105957 
z"/>
</svg>