<svg version="1.1" id="Layer_1" xmlns="http://www.w3.org/2000/svg" xmlns:xlink="http://www.w3.org/1999/xlink" x="0px" y="0px"
	 width="100%" viewBox="0 0 512 512" enable-background="new 0 0 512 512" xml:space="preserve">
<path fill="#000000" opacity="1.000000" stroke="none" 
	d="
M203.095001,93.960312 
	C206.496460,96.465096 206.441620,98.653702 203.749466,101.534584 
	C190.082520,116.159485 186.967896,134.016571 189.700745,152.933746 
	C191.123184,162.780060 196.019104,171.643051 202.604385,179.371292 
	C204.270981,181.327133 207.241333,183.179459 204.180084,186.498428 
	C201.311203,189.608810 199.113312,188.017075 196.410263,186.233704 
	C178.386902,174.342712 169.359436,146.850845 175.976959,125.152672 
	C179.820007,112.551666 186.665085,102.975716 196.796570,95.208397 
	C198.594559,93.829964 200.440033,92.844147 203.095001,93.960312 
z"/>
<path fill="#000000" opacity="1.000000" stroke="none" 
	d="
M239.250671,362.163818 
	C236.619995,366.204559 227.923569,368.065521 223.985855,365.765625 
	C220.153717,363.527405 218.785065,356.382843 221.301224,351.751495 
	C223.340515,347.997894 231.531570,346.133514 236.155762,348.370453 
	C240.209030,350.331238 241.794052,356.902466 239.250671,362.163818 
z"/>
<path fill="#000000" opacity="1.000000" stroke="none" 
	d="
M240.606384,217.313309 
	C237.270554,224.380005 235.000854,225.442871 226.493637,224.185516 
	C222.573120,223.606033 221.014816,220.785660 220.333054,217.356781 
	C219.543961,213.388153 220.041428,209.382263 223.560516,207.077621 
	C227.519669,204.484772 232.568146,204.708862 236.373718,206.717377 
	C239.718399,208.482666 241.640656,212.521790 240.606384,217.313309 
z"/>
<path fill="#000000" opacity="1.000000" stroke="none" 
	d="
M195.642334,235.110107 
	C193.639938,224.404892 199.959152,218.844498 209.784454,222.209534 
	C214.576385,223.850693 216.763992,232.214828 213.547836,237.217453 
	C211.025589,241.140686 206.914352,241.140503 202.883041,240.905212 
	C199.360443,240.699585 196.299408,239.700684 195.642334,235.110107 
z"/>
<path fill="#000000" opacity="1.000000" stroke="none" 
	d="
M305.016418,228.547440 
	C307.781219,222.169876 314.462769,219.693253 320.301575,222.488297 
	C324.159393,224.335052 326.112640,232.173233 323.621887,236.733841 
	C320.973969,241.582077 316.234802,241.355225 311.765320,240.746765 
	C307.778564,240.203995 305.217957,237.694977 304.920685,233.436249 
	C304.817169,231.953217 304.938446,230.454483 305.016418,228.547440 
z"/>
<path fill="#000000" opacity="1.000000" stroke="none" 
	d="
M321.719543,255.081207 
	C321.707275,250.458130 323.459045,247.553589 327.793884,246.857773 
	C335.978241,245.544098 339.257141,246.902206 341.464905,252.284943 
	C342.854095,255.671936 341.396698,262.176697 338.316803,264.019440 
	C334.546967,266.274933 330.072052,265.933472 326.256317,264.613678 
	C322.483551,263.308777 321.318756,259.522736 321.719543,255.081207 
z"/>
<path fill="#000000" opacity="1.000000" stroke="none" 
	d="
M327.797424,289.964661 
	C326.221863,276.818024 332.814423,275.629242 341.856476,277.088562 
	C346.168945,277.784576 347.572998,281.971832 347.807098,285.906158 
	C348.039307,289.808197 346.204285,293.206696 342.639008,294.869690 
	C337.736176,297.156677 331.152435,294.898071 327.797424,289.964661 
z"/>
<path fill="#000000" opacity="1.000000" stroke="none" 
	d="
M323.542114,309.720764 
	C327.529022,306.358063 335.766388,305.689697 338.598785,308.219818 
	C342.470642,311.678467 343.104980,317.078339 340.101868,322.307861 
	C337.129059,327.484650 332.095947,324.973297 327.914459,325.243683 
	C324.621582,325.456635 322.610291,322.924194 322.075500,320.080994 
	C321.448578,316.748260 320.852692,313.129730 323.542114,309.720764 
z"/>
<path fill="#000000" opacity="1.000000" stroke="none" 
	d="
M189.356476,278.426758 
	C193.154831,283.410706 193.346725,289.011963 190.115143,292.750885 
	C187.993698,295.205383 179.177567,296.734161 176.266693,294.615387 
	C172.895691,292.161682 170.960098,288.501801 172.123383,284.219147 
	C173.177048,280.339966 174.789185,276.472107 179.977737,276.805847 
	C183.037445,277.002655 186.307541,275.881622 189.356476,278.426758 
z"/>
<path fill="#000000" opacity="1.000000" stroke="none" 
	d="
M205.902176,350.249573 
	C196.632416,350.161957 191.926392,342.136261 196.515335,334.570343 
	C199.495575,329.656769 204.645264,331.992401 208.899353,331.844635 
	C211.891754,331.740692 213.564560,333.784821 214.329422,336.746735 
	C216.475189,345.056305 213.789764,349.707550 205.902176,350.249573 
z"/>
<path fill="#000000" opacity="1.000000" stroke="none" 
	d="
M290.839844,224.251617 
	C281.609283,224.220352 278.446930,220.644623 279.914429,212.407196 
	C280.966705,206.500763 283.330444,205.196960 292.001007,205.740417 
	C296.792664,206.040741 299.152679,208.687653 299.286224,213.911316 
	C299.485382,221.702209 298.000000,223.621948 290.839844,224.251617 
z"/>
<path fill="#000000" opacity="1.000000" stroke="none" 
	d="
M305.697113,336.073181 
	C309.006805,331.951019 316.502930,330.082153 320.562256,332.361603 
	C325.476288,335.120972 324.574799,339.966858 324.079102,344.356842 
	C323.650116,348.156433 321.096039,349.983795 317.246277,350.250427 
	C306.857788,350.970062 303.480011,347.040833 305.697113,336.073181 
z"/>
<path fill="#000000" opacity="1.000000" stroke="none" 
	d="
M188.033371,246.747620 
	C192.475449,246.276917 196.026184,247.369781 197.445724,251.270447 
	C198.877487,255.204712 199.040176,259.387787 195.725845,262.862640 
	C192.848602,265.879272 183.858124,266.346375 181.085602,263.566071 
	C178.066620,260.538605 177.878418,251.804840 180.694351,248.707428 
	C182.617706,246.591812 185.106750,246.751907 188.033371,246.747620 
z"/>
<path fill="#000000" opacity="1.000000" stroke="none" 
	d="
M250.671906,210.803467 
	C250.754730,201.913010 253.532013,199.338715 261.811768,199.903275 
	C265.477844,200.153275 268.411591,201.492813 269.096680,205.377777 
	C269.880341,209.822083 270.503967,214.604904 266.244232,217.724686 
	C260.308838,222.071716 251.772354,218.367950 250.671906,210.803467 
z"/>
<path fill="#000000" opacity="1.000000" stroke="none" 
	d="
M296.976562,350.035828 
	C299.988556,354.342194 300.119507,361.481293 297.526917,364.208588 
	C295.179382,366.678101 286.405487,367.790100 283.399628,365.589722 
	C279.764557,362.928772 279.442383,358.873993 280.185974,354.797668 
	C280.896088,350.905151 282.740692,347.781403 287.286255,347.835876 
	C290.498871,347.874329 294.030579,346.766449 296.976562,350.035828 
z"/>
<path fill="#000000" opacity="1.000000" stroke="none" 
	d="
M187.999786,306.782837 
	C193.011688,306.272034 196.530243,308.078064 197.752823,312.455292 
	C198.886368,316.513733 198.823517,320.765167 194.952438,323.863098 
	C191.777573,326.403900 182.992859,325.984894 180.538620,323.116150 
	C177.756851,319.864563 178.074310,311.671143 181.043335,308.592316 
	C182.886108,306.681427 185.226715,306.798981 187.999786,306.782837 
z"/>
<path fill="#000000" opacity="1.000000" stroke="none" 
	d="
M263.856110,353.703735 
	C269.130707,354.902985 269.614899,358.869751 269.583527,362.739380 
	C269.555573,366.182129 269.470886,370.307190 265.365356,371.525604 
	C261.454071,372.686401 257.057678,373.484009 253.427078,370.633148 
	C249.166321,367.287384 250.163849,362.368713 251.120087,358.137573 
	C251.997314,354.255981 255.620468,353.139435 259.465210,353.392578 
	C260.793488,353.480042 262.121674,353.568451 263.856110,353.703735 
z"/>
</svg>