<svg version="1.1" id="Layer_1" xmlns="http://www.w3.org/2000/svg" xmlns:xlink="http://www.w3.org/1999/xlink" x="0px" y="0px"
	 width="100%" viewBox="0 0 512 512" enable-background="new 0 0 512 512" xml:space="preserve">
<path fill="#000000" opacity="1.000000" stroke="none" 
	d="
M320.802673,148.733215 
	C325.019104,139.187881 327.341522,129.678970 326.939575,119.478500 
	C326.416992,106.217239 321.784851,94.658905 313.645874,84.353409 
	C312.719971,83.181030 311.492096,82.115517 310.978363,80.779655 
	C310.176239,78.693756 310.221771,76.380913 312.179108,74.845222 
	C313.859100,73.527168 315.731628,74.176346 317.274048,75.306084 
	C330.877594,85.269989 340.408051,97.599693 340.339233,115.429504 
	C340.315430,121.594322 340.949249,127.857666 340.078888,133.902679 
	C338.417633,145.440582 332.643433,155.039474 323.970245,162.834335 
	C322.116943,164.499954 320.038330,165.912979 318.156097,167.548889 
	C316.177338,169.268707 313.950409,170.115082 311.936737,168.165039 
	C310.035919,166.324265 310.333008,163.782471 311.802979,161.730530 
	C314.799500,157.547592 318.354492,153.757858 320.802673,148.733215 
z"/>
<path fill="#000000" opacity="1.000000" stroke="none" 
	d="
M221.381729,332.620758 
	C224.912109,327.015503 230.160980,328.787384 234.740189,329.010071 
	C238.866272,329.210724 239.481766,333.363556 240.606476,336.295959 
	C242.375061,340.907104 237.899139,346.962006 232.913040,347.272888 
	C221.814972,347.964874 218.437683,343.848328 221.381729,332.620758 
z"/>
<path fill="#000000" opacity="1.000000" stroke="none" 
	d="
M324.119324,325.847260 
	C321.231750,330.878174 314.220673,332.934265 309.411469,330.529114 
	C305.353577,328.499725 303.488861,321.783783 305.638611,316.940765 
	C307.313141,313.168335 311.861572,311.446716 317.670258,312.272461 
	C321.928406,312.877838 324.195099,315.293152 324.400848,319.534454 
	C324.496216,321.500702 324.272217,323.482391 324.119324,325.847260 
z"/>
<path fill="#000000" opacity="1.000000" stroke="none" 
	d="
M237.416656,203.734604 
	C230.043533,206.659790 224.147430,205.648132 221.547180,201.247147 
	C219.429642,197.663162 219.567047,193.901337 221.410202,190.317215 
	C223.059982,187.109177 226.081680,186.427826 229.467087,186.660385 
	C232.997223,186.902893 236.483658,186.094864 238.999069,190.215576 
	C242.101624,195.298141 240.579056,199.285599 237.416656,203.734604 
z"/>
<path fill="#000000" opacity="1.000000" stroke="none" 
	d="
M332.890198,306.288208 
	C323.659088,306.262268 321.807800,304.577393 321.676575,297.084442 
	C321.613617,293.489105 322.208435,289.968231 325.600311,288.584900 
	C329.616119,286.947174 334.497772,286.474213 338.097961,288.960449 
	C341.099091,291.033020 343.123169,294.955414 341.821320,299.090668 
	C340.559448,303.099030 338.978455,307.217957 332.890198,306.288208 
z"/>
<path fill="#000000" opacity="1.000000" stroke="none" 
	d="
M342.260284,258.016052 
	C349.787994,262.899628 348.685028,270.069977 345.146820,273.894745 
	C341.597076,277.731995 337.054016,276.383118 332.972534,275.903625 
	C329.849243,275.536713 328.168274,272.619720 327.547760,269.503754 
	C326.704803,265.270386 327.606934,261.339996 331.180145,258.829071 
	C334.351410,256.600616 338.255798,257.937103 342.260284,258.016052 
z"/>
<path fill="#000000" opacity="1.000000" stroke="none" 
	d="
M323.023132,242.639862 
	C321.159729,239.147064 321.325439,235.738663 322.136139,232.548218 
	C323.284729,228.028030 330.406372,225.962173 336.905823,227.916031 
	C340.364105,228.955673 342.943268,234.808853 341.708344,238.814972 
	C339.133942,247.166473 329.494415,249.341217 323.023132,242.639862 
z"/>
<path fill="#000000" opacity="1.000000" stroke="none" 
	d="
M214.233505,325.938019 
	C212.200821,332.125580 207.307419,331.112091 202.891296,331.176117 
	C199.787277,331.221130 197.148926,330.104187 196.139832,327.062317 
	C194.743713,322.853760 194.164963,318.113098 197.184586,314.677460 
	C200.297501,311.135681 205.183640,312.026123 209.419235,312.666748 
	C212.842178,313.184509 214.081268,315.803162 214.531937,319.147552 
	C214.829895,321.358734 214.831238,323.423431 214.233505,325.938019 
z"/>
<path fill="#000000" opacity="1.000000" stroke="none" 
	d="
M173.853836,260.904541 
	C177.295944,257.361725 186.019974,256.513855 189.104706,259.087982 
	C192.521912,261.939575 193.508102,269.082336 190.989166,272.736725 
	C188.681931,276.083954 179.724823,277.731354 176.012939,275.491119 
	C171.897995,273.007629 170.872086,266.823761 173.853836,260.904541 
z"/>
<path fill="#000000" opacity="1.000000" stroke="none" 
	d="
M261.768158,353.160370 
	C252.063614,353.086975 248.183273,348.118805 250.934189,339.380798 
	C252.517609,334.351166 256.778107,333.676361 261.402008,333.971283 
	C265.656097,334.242615 268.680267,335.704315 269.329224,340.466888 
	C270.134460,346.376221 269.018616,353.202515 261.768158,353.160370 
z"/>
<path fill="#000000" opacity="1.000000" stroke="none" 
	d="
M186.259460,287.733459 
	C191.213409,287.376801 195.786407,287.581543 197.524414,292.592957 
	C198.888809,296.527100 199.158554,300.809479 195.670685,304.230560 
	C193.580078,306.281128 185.376175,307.319122 182.446777,305.624298 
	C178.054657,303.083160 178.253799,298.769226 178.793518,294.569458 
	C179.308746,290.560211 181.130463,287.601196 186.259460,287.733459 
z"/>
<path fill="#000000" opacity="1.000000" stroke="none" 
	d="
M205.845032,221.366241 
	C196.474045,221.294052 192.755295,215.760757 196.017685,207.337753 
	C198.077438,202.019699 202.706284,202.789795 207.007645,202.821747 
	C210.777145,202.849747 213.298798,204.427017 214.269012,208.266541 
	C216.291183,216.268982 213.640640,220.682007 205.845032,221.366241 
z"/>
<path fill="#000000" opacity="1.000000" stroke="none" 
	d="
M197.441193,232.024719 
	C198.434937,235.692642 198.737640,239.035400 197.110779,242.124817 
	C194.616074,246.862228 190.069092,246.349213 185.723572,246.228943 
	C182.500870,246.139740 180.286224,244.610596 179.480255,241.511520 
	C178.417374,237.424530 177.758682,233.199142 180.883347,229.673584 
	C184.227158,225.900742 193.117264,227.077301 197.441193,232.024719 
z"/>
<path fill="#000000" opacity="1.000000" stroke="none" 
	d="
M324.301208,210.248535 
	C325.149078,222.587860 318.400238,222.195587 310.272186,220.981812 
	C305.190521,220.222961 303.032928,211.164047 306.266998,206.311005 
	C309.505798,201.450851 314.436188,202.580414 318.901459,203.050919 
	C322.486359,203.428635 324.053467,206.297287 324.301208,210.248535 
z"/>
<path fill="#000000" opacity="1.000000" stroke="none" 
	d="
M299.279114,196.856598 
	C299.418427,201.915878 296.899445,204.600632 292.608856,205.023071 
	C288.286957,205.448578 283.417084,206.385880 280.856781,201.106705 
	C278.852539,196.974045 279.588409,190.178802 282.612396,188.131226 
	C286.478485,185.513458 291.029602,186.021408 295.052917,187.304459 
	C299.121216,188.601852 299.646484,192.534180 299.279114,196.856598 
z"/>
<path fill="#000000" opacity="1.000000" stroke="none" 
	d="
M288.224182,328.760223 
	C299.367218,327.838989 299.906738,334.634949 299.101379,342.114655 
	C299.033478,342.745209 298.741547,343.391937 298.412262,343.947296 
	C296.541565,347.102844 289.948578,348.680115 284.717072,346.999054 
	C279.827698,345.427917 279.812988,340.955109 280.027374,337.130951 
	C280.280182,332.621338 282.007599,328.578735 288.224182,328.760223 
z"/>
<path fill="#000000" opacity="1.000000" stroke="none" 
	d="
M250.713348,187.394318 
	C251.733734,182.873413 254.217941,180.747696 258.536499,180.824844 
	C262.348480,180.892914 266.640045,180.190811 268.473480,184.624451 
	C270.168762,188.723984 270.446045,193.275665 267.597717,196.983109 
	C264.422180,201.116425 259.577576,199.623932 255.513809,198.957855 
	C252.136536,198.404266 250.471054,195.459869 250.669357,191.817566 
	C250.741501,190.492752 250.686676,189.161026 250.713348,187.394318 
z"/>
</svg>