<svg version="1.1" id="Layer_1" xmlns="http://www.w3.org/2000/svg" xmlns:xlink="http://www.w3.org/1999/xlink" x="0px" y="0px"
	 width="100%" viewBox="0 0 512 512" enable-background="new 0 0 512 512" xml:space="preserve">
<path fill="#000000" opacity="1.000000" stroke="none" 
	d="
M182.367798,447.474365 
	C176.144592,435.410797 172.484695,423.168518 174.695404,409.799652 
	C177.259918,394.291107 183.855804,381.166260 197.181305,371.985107 
	C199.728622,370.229980 202.073227,368.673828 204.665863,371.300537 
	C207.325607,373.995270 205.663681,376.197235 203.624878,378.595062 
	C188.221436,396.711121 185.706757,417.329590 192.803619,439.355011 
	C194.986649,446.130096 199.437836,451.992065 204.151688,457.392059 
	C205.991257,459.499481 206.691437,461.428833 204.780609,463.503540 
	C202.814087,465.638611 200.453278,465.592468 198.054077,463.862091 
	C191.914764,459.434418 186.785919,454.049896 182.367798,447.474365 
z"/>
<path fill="#000000" opacity="1.000000" stroke="none" 
	d="
M220.344879,348.450195 
	C220.225967,338.254913 227.086197,333.432709 235.819031,337.353363 
	C239.333588,338.931274 240.560181,342.638275 240.823242,346.014801 
	C241.080460,349.316589 239.427826,352.659607 236.596268,354.592957 
	C231.165085,358.301300 222.651474,355.115173 220.344879,348.450195 
z"/>
<path fill="#000000" opacity="1.000000" stroke="none" 
	d="
M238.453278,210.535950 
	C234.206314,214.995728 229.077927,213.840164 224.766312,212.490341 
	C220.902832,211.280777 219.789658,206.994278 220.143143,202.889679 
	C220.444901,199.385529 221.718872,195.846237 225.332153,195.193237 
	C229.398468,194.458389 234.368195,193.026321 237.589584,196.639954 
	C240.224121,199.595276 242.589661,203.515640 239.768768,207.966278 
	C239.327423,208.662628 239.025497,209.447357 238.453278,210.535950 
z"/>
<path fill="#000000" opacity="1.000000" stroke="none" 
	d="
M214.435425,217.656158 
	C215.397949,227.757584 208.881714,232.811844 199.835571,229.425171 
	C194.876938,227.568741 193.467194,217.289474 197.587021,213.029449 
	C202.300598,208.155411 212.492126,210.727356 214.435425,217.656158 
z"/>
<path fill="#000000" opacity="1.000000" stroke="none" 
	d="
M322.000854,227.972519 
	C317.338928,230.865524 312.775726,230.921066 308.504822,228.410263 
	C304.660980,226.150528 304.528625,222.115570 305.029572,218.181778 
	C305.721008,212.751694 309.288116,210.557266 316.599213,210.876282 
	C321.711609,211.099350 324.042755,213.374237 324.299103,218.694244 
	C324.450378,221.832962 324.717407,225.078949 322.000854,227.972519 
z"/>
<path fill="#000000" opacity="1.000000" stroke="none" 
	d="
M344.951477,282.184906 
	C340.066406,285.211151 332.783295,285.037598 329.958344,282.144989 
	C327.118439,279.237091 326.391083,273.731964 328.373901,270.153168 
	C330.626831,266.086853 339.038879,264.081238 343.397461,266.571198 
	C348.156189,269.289764 348.973328,276.204926 344.951477,282.184906 
z"/>
<path fill="#000000" opacity="1.000000" stroke="none" 
	d="
M189.317444,267.477051 
	C192.908554,272.021759 193.341690,278.058167 190.559677,281.433105 
	C188.322281,284.147369 179.417557,285.897308 176.292374,283.668396 
	C172.901718,281.250122 171.019302,277.538086 172.107285,273.263428 
	C173.108002,269.331757 174.787186,265.523254 179.948044,265.813354 
	C183.012558,265.985565 186.287323,264.915619 189.317444,267.477051 
z"/>
<path fill="#000000" opacity="1.000000" stroke="none" 
	d="
M322.216522,300.842987 
	C325.269745,294.791351 330.430878,295.616486 335.390411,295.953369 
	C339.624481,296.240997 340.438843,299.922607 341.631531,302.845795 
	C343.712433,307.946014 339.360474,314.177338 333.880341,314.382050 
	C325.644104,314.689728 322.445923,313.122681 321.873596,308.152496 
	C321.612396,305.884216 321.982269,303.543243 322.216522,300.842987 
z"/>
<path fill="#000000" opacity="1.000000" stroke="none" 
	d="
M322.164307,249.196655 
	C321.774353,245.667191 321.004639,242.438293 322.703339,239.532135 
	C325.673889,234.450104 330.712921,235.802887 335.246094,235.829102 
	C339.541138,235.853958 340.537445,239.414948 341.655090,242.464066 
	C343.169495,246.595490 341.016541,250.118973 338.412720,252.833908 
	C335.089844,256.298645 325.770325,254.162872 322.164307,249.196655 
z"/>
<path fill="#000000" opacity="1.000000" stroke="none" 
	d="
M195.889893,325.143341 
	C198.632233,320.565247 207.793716,319.013885 211.844727,322.052032 
	C215.346024,324.677887 216.101135,333.912262 212.737869,337.133606 
	C208.862305,340.845612 203.842560,339.634399 199.443375,338.703064 
	C195.153763,337.795013 195.650269,333.329224 195.198303,329.974457 
	C195.006622,328.551727 195.584183,327.025391 195.889893,325.143341 
z"/>
<path fill="#000000" opacity="1.000000" stroke="none" 
	d="
M280.131317,200.592209 
	C282.494904,195.127106 290.361359,192.700226 295.316895,195.527130 
	C299.103638,197.687286 300.890533,205.861298 298.330353,209.791245 
	C295.133484,214.698563 290.093079,213.247665 285.607788,213.075226 
	C281.681244,212.924240 280.556366,209.723068 280.086273,206.450241 
	C279.830322,204.668320 280.038940,202.819702 280.131317,200.592209 
z"/>
<path fill="#000000" opacity="1.000000" stroke="none" 
	d="
M283.502014,354.735168 
	C279.580261,350.272461 278.821259,344.606903 281.364136,340.285217 
	C284.158173,335.536713 288.885590,336.488556 292.990814,337.058563 
	C296.645660,337.566071 298.982117,340.207977 299.265533,344.269012 
	C299.970612,354.372803 295.214203,357.692688 283.502014,354.735168 
z"/>
<path fill="#000000" opacity="1.000000" stroke="none" 
	d="
M188.930725,314.386597 
	C179.740768,314.276062 175.710678,307.367828 179.739670,299.477600 
	C181.824448,295.394806 185.535721,295.849701 189.211517,295.700714 
	C193.225418,295.538086 195.989822,297.320648 197.575562,300.712097 
	C200.778915,307.563171 196.840591,313.975220 188.930725,314.386597 
z"/>
<path fill="#000000" opacity="1.000000" stroke="none" 
	d="
M252.983185,191.020905 
	C256.842438,188.076614 260.905853,188.477554 264.713470,189.541031 
	C269.608612,190.908203 269.663544,195.305969 269.498322,199.344498 
	C269.333862,203.363510 268.230255,207.109116 263.444641,207.807526 
	C259.114624,208.439423 254.259995,208.967758 251.877869,204.383682 
	C249.713058,200.217834 249.422989,195.487610 252.983185,191.020905 
z"/>
<path fill="#000000" opacity="1.000000" stroke="none" 
	d="
M322.321960,322.666809 
	C325.247955,326.742950 324.969635,331.059082 323.654816,334.891052 
	C321.649658,340.734772 316.172241,339.352417 311.710144,339.114777 
	C307.733704,338.902954 305.568939,336.108826 305.034241,332.309296 
	C304.454254,328.187775 304.864197,323.669281 308.781647,321.756714 
	C312.886658,319.752594 317.718842,319.709167 322.321960,322.666809 
z"/>
<path fill="#000000" opacity="1.000000" stroke="none" 
	d="
M194.619965,253.033081 
	C190.988831,254.999557 187.410583,254.490433 184.039978,254.012344 
	C180.012207,253.441025 179.122452,249.950348 178.843613,246.489517 
	C178.513153,242.387909 178.636673,238.279709 183.096558,236.233444 
	C187.273346,234.317093 194.473984,235.978149 196.756760,239.132324 
	C199.374573,242.749435 198.588165,248.647430 194.619965,253.033081 
z"/>
<path fill="#000000" opacity="1.000000" stroke="none" 
	d="
M257.358246,342.707886 
	C258.638855,342.685394 259.472107,342.681274 260.305298,342.673340 
	C263.872406,342.639343 267.446747,342.521759 268.933868,346.855652 
	C270.467316,351.324463 269.480072,358.106689 266.485504,359.837158 
	C262.522644,362.127197 258.009125,362.176880 254.094604,360.008972 
	C249.428589,357.424805 250.419342,352.515594 250.860779,348.295441 
	C251.203140,345.022552 253.429138,342.994141 257.358246,342.707886 
z"/>
</svg>