<svg version="1.1" id="Layer_1" xmlns="http://www.w3.org/2000/svg" xmlns:xlink="http://www.w3.org/1999/xlink" x="0px" y="0px"
	 width="100%" viewBox="0 0 512 514" enable-background="new 0 0 512 514" xml:space="preserve">
<path fill="none" opacity="1.000000" stroke="#000000" stroke-linecap="round" stroke-linejoin="round" stroke-width="12.000000"
	d="
M202.500000,82.500000 
	C198.333328,82.833328 194.109650,82.844185 190.012146,83.568710 
	C182.057404,84.975281 181.469543,86.043221 182.473404,94.003357 
	C182.659607,95.479874 182.500000,97.000000 182.500000,98.500000 
	C182.500000,118.500000 182.519104,138.500046 182.464890,158.499908 
	C182.460403,160.156952 182.410980,161.809891 182.113647,163.519760 
	C180.912933,170.424469 183.440491,173.621399 190.497955,175.010361 
	C194.481155,175.794250 198.497635,175.390198 202.500000,175.500000 
"/>
<path fill="none" opacity="1.000000" stroke="#000000" stroke-linecap="round" stroke-linejoin="round" stroke-width="12.000000"
	d="
M314.500000,175.000000 
	C319.820312,176.087738 324.971222,175.618759 330.009247,173.522202 
	C332.992706,172.280655 334.197174,170.237396 334.031036,166.998413 
	C332.860321,144.174973 333.795074,121.332397 333.502228,98.499969 
	C333.485138,97.166855 333.226410,95.764107 333.543488,94.511009 
	C335.963715,84.946426 330.466553,84.175880 323.989288,83.062210 
	C321.216278,82.585442 318.294098,83.333641 315.500000,82.500000 
"/>
</svg>