<svg version="1.1" id="Layer_1" xmlns="http://www.w3.org/2000/svg" xmlns:xlink="http://www.w3.org/1999/xlink" x="0px" y="0px"
	 width="100%" viewBox="0 0 512 514" enable-background="new 0 0 512 514" xml:space="preserve">
<path fill="#FFFFFF" opacity="1.000000" stroke="none" 
	d="
M280.000000,515.000000 
	C186.689270,515.000000 93.878540,515.000000 1.033905,515.000000 
	C1.033905,343.730988 1.033905,172.461975 1.033905,1.096481 
	C171.560745,1.096481 342.121552,1.096481 512.841187,1.096481 
	C512.841187,172.333221 512.841187,343.666595 512.841187,515.000000 
	C435.461914,515.000000 357.980957,515.000000 280.000000,515.000000 
M268.146698,149.651291 
	C271.450500,148.780838 273.253418,147.269897 270.553375,143.219208 
	C270.691742,142.813889 270.830139,142.408569 271.708344,141.954910 
	C272.784912,139.215775 274.081451,136.537659 274.863861,133.716919 
	C275.423248,131.700226 275.293182,129.492264 275.413208,126.756134 
	C275.620178,126.179703 275.827148,125.603279 276.893616,124.959808 
	C277.540009,124.825867 278.238220,124.462265 278.824524,124.594582 
	C283.230713,125.588966 285.297119,122.588165 286.941345,119.525421 
	C288.743805,116.167999 285.466644,115.080307 283.607941,113.315010 
	C280.859192,110.704376 283.163818,100.960526 286.641693,101.141815 
	C293.609161,101.504982 294.085693,97.508102 293.885803,91.989418 
	C292.002441,91.542145 289.998901,91.066330 287.431976,90.456711 
	C289.276520,84.951012 291.340698,79.788315 292.624634,74.438362 
	C293.100861,72.454018 292.418915,68.941360 291.048798,68.095192 
	C289.495148,67.135704 285.884827,67.597282 284.430115,68.876060 
	C282.661194,70.430992 282.054108,73.431252 281.218658,75.899109 
	C279.389832,81.301369 277.733978,86.762207 275.083130,92.345703 
	C271.324707,92.360413 267.548248,92.591026 263.817017,92.279648 
	C262.397614,92.161194 261.082123,90.797455 260.332947,89.619904 
	C263.789551,84.863304 265.148193,79.541008 264.706055,73.296631 
	C264.706055,73.296631 264.878693,72.911148 265.515594,72.728050 
	C267.013062,69.928963 266.604156,67.655685 263.125214,67.545044 
	C260.706573,67.468132 256.506927,65.822853 257.167725,71.814331 
	C257.057983,72.176605 256.948242,72.538887 256.155792,73.035049 
	C254.444473,77.544151 252.402771,81.962936 251.136902,86.593811 
	C250.279312,89.731125 249.424301,91.652916 245.679077,91.189362 
	C242.583969,90.806267 241.134415,92.675629 240.115906,95.635712 
	C238.285919,100.954239 242.775742,100.499771 245.251221,101.687386 
	C245.564896,110.647278 245.278809,110.434715 237.310303,113.836014 
	C235.076248,114.789612 233.885132,118.660042 232.815308,121.424568 
	C232.626221,121.913185 235.276291,124.222916 236.835800,124.515335 
	C240.073624,125.122429 239.042816,127.186287 239.009018,129.014816 
	C239.009018,129.014816 239.030685,129.031326 238.491882,129.311127 
	C238.552582,130.167435 238.613281,131.023727 238.193573,132.558105 
	C237.412445,138.131302 232.621414,143.188965 235.566864,149.169846 
	C241.103149,150.044861 243.495834,147.184509 245.540466,142.731247 
	C246.986710,138.953644 248.572754,135.219849 249.779861,131.367310 
	C250.077789,130.416428 249.143524,129.079483 248.755112,127.187103 
	C248.856766,126.462868 248.958420,125.738640 249.532639,125.161896 
	C249.532639,125.161896 249.999832,124.998291 250.479202,125.530838 
	C253.857254,125.336060 257.251221,125.285660 260.609894,124.915108 
	C266.759491,124.236641 262.150330,130.691620 265.391937,132.573959 
	C265.212402,132.980316 265.032867,133.386658 264.232208,133.867203 
	C262.527924,138.421112 260.327637,142.866791 259.301727,147.568726 
	C258.666046,150.482300 261.477936,150.010651 264.120667,149.451523 
	C265.224518,149.392899 266.328339,149.334274 268.146698,149.651291 
M196.618149,338.475952 
	C196.647278,338.812469 196.676392,339.148956 196.291199,340.222412 
	C196.134750,344.033447 198.523193,344.983368 201.703735,345.016937 
	C203.511673,345.036011 205.322189,344.959686 207.127777,345.027161 
	C211.333038,345.184265 217.534866,339.105133 216.394562,335.134247 
	C215.489166,331.981354 213.657196,327.936432 211.085190,326.717896 
	C207.978134,325.245819 203.641327,326.128204 199.866165,326.400055 
	C197.681778,326.557373 192.980682,333.266846 193.580536,335.321960 
	C193.895462,336.400970 195.445282,337.119507 196.618149,338.475952 
M298.675720,347.556213 
	C297.680206,345.925873 297.060089,343.444763 295.624664,342.811371 
	C289.154205,339.956177 282.776947,342.686310 279.148621,348.558807 
	C276.764832,352.416992 280.024689,354.726807 280.656311,357.732361 
	C281.294464,360.768921 283.040558,361.896149 286.852631,360.071320 
	C288.910278,360.095856 290.967957,360.120361 293.479248,360.702087 
	C298.710632,360.677032 298.961578,360.424286 298.091156,355.128845 
	C298.098907,352.745361 298.106689,350.361847 298.675720,347.556213 
M232.907013,217.900513 
	C238.115616,216.776337 240.077789,214.173676 239.682907,208.912888 
	C239.307709,203.914398 236.475754,201.214188 231.458862,201.071487 
	C224.497574,200.873459 222.035782,202.440018 221.260117,207.561386 
	C220.135635,214.985794 223.171082,217.878891 232.907013,217.900513 
M188.928909,287.481384 
	C191.825516,283.588440 192.236496,278.222687 189.879700,275.067535 
	C187.844101,272.342346 181.429337,270.898224 177.543137,272.591919 
	C173.547623,274.333252 172.446609,278.095367 173.424393,281.744781 
	C174.127899,284.370544 176.144333,287.829712 178.361847,288.574432 
	C181.352127,289.578644 185.098190,288.332336 188.928909,287.481384 
M315.397583,326.974457 
	C313.079895,327.534760 310.322754,327.487366 308.534882,328.780365 
	C304.665253,331.578735 305.472473,336.154755 306.598480,339.787811 
	C307.879272,343.920380 312.003387,344.015686 315.840820,343.833649 
	C321.518921,343.564331 323.505646,341.604736 323.624420,335.818634 
	C323.750763,329.664215 321.941254,327.507050 315.397583,326.974457 
M298.079041,213.576538 
	C298.122467,211.747879 298.202240,209.919189 298.201813,208.090546 
	C298.200897,204.247849 296.316071,201.769882 292.527496,201.159851 
	C285.589264,200.042648 282.434357,201.447723 281.095673,205.993912 
	C279.840240,210.257233 279.957397,214.405365 284.000183,217.055542 
	C287.815826,219.556824 294.838165,217.900467 298.079041,213.576538 
M332.335785,319.132629 
	C334.438812,318.474640 337.095093,318.400269 338.531372,317.038879 
	C341.658936,314.074371 341.582672,308.024261 339.026947,304.735168 
	C337.246552,302.443817 329.645111,301.195801 326.493286,302.944733 
	C322.303619,305.269470 322.251099,309.310791 322.780457,313.384583 
	C323.457031,318.591034 327.111115,319.457642 332.335785,319.132629 
M196.850464,253.608078 
	C196.890930,252.109711 196.981934,250.610687 196.962311,249.113098 
	C196.905228,244.760086 194.809296,242.346558 190.332199,242.116196 
	C182.901978,241.733871 180.235855,243.012177 179.587326,247.967758 
	C179.060989,251.989639 179.128433,256.232727 183.450897,258.401215 
	C187.897720,260.632080 193.739243,258.668976 196.850464,253.608078 
M213.224854,221.800537 
	C211.123123,217.839783 203.799515,215.952652 199.421585,218.243713 
	C196.118042,219.972549 194.836502,226.462128 196.908234,230.971115 
	C198.392990,234.202637 205.869980,235.613708 210.363708,233.510437 
	C213.733536,231.933212 215.145645,226.796692 213.224854,221.800537 
M238.591354,355.444092 
	C240.520477,350.665710 239.127762,345.444885 235.519592,343.929443 
	C230.609772,341.867188 223.774658,343.706726 221.974167,347.574890 
	C220.070114,351.665558 221.581360,357.912048 224.897491,359.658020 
	C228.777557,361.700958 236.158569,359.743683 238.591354,355.444092 
M196.975830,311.282104 
	C197.197449,307.806274 196.955917,303.834106 193.135620,303.090240 
	C189.473328,302.377075 184.587173,302.234131 181.810364,304.135590 
	C178.342010,306.510559 178.499283,311.653839 180.309097,315.628174 
	C182.552368,320.554443 187.359055,319.254974 191.314270,318.922852 
	C195.094025,318.605438 196.991165,315.938354 196.975830,311.282104 
M319.981415,233.652191 
	C324.706573,230.327637 324.179993,225.699371 322.738312,221.142517 
	C321.334320,216.704865 317.273010,217.566681 313.902954,217.575500 
	C308.025543,217.590866 306.014740,219.802124 305.996338,225.864883 
	C305.978363,231.786804 308.163422,234.156342 313.851654,234.235321 
	C315.665070,234.260483 317.481812,234.046127 319.981415,233.652191 
M257.881744,365.578644 
	C261.091095,364.731781 266.120636,364.787720 267.091370,362.830505 
	C268.620911,359.746643 268.236359,355.021118 267.016327,351.572784 
	C266.449554,349.970825 262.067078,349.351624 259.319885,348.974365 
	C255.199142,348.408478 252.182266,350.114258 251.488480,354.611694 
	C250.470688,361.209412 251.731705,363.634644 257.881744,365.578644 
M268.211426,200.720367 
	C267.691254,197.793106 266.252472,195.752991 263.012787,195.741425 
	C259.296600,195.728149 255.290833,194.634567 252.540085,198.497330 
	C249.581009,202.652695 251.602524,210.814789 255.979568,212.124130 
	C264.881989,214.787140 269.411469,210.874878 268.211426,200.720367 
M327.926544,277.360382 
	C326.691895,287.338196 331.099823,289.842987 338.680359,289.571686 
	C342.667572,289.428986 345.525757,287.798248 346.356354,284.596710 
	C347.101471,281.724457 346.859924,277.807281 345.405548,275.311523 
	C341.985901,269.443390 333.164581,270.349823 327.926544,277.360382 
M337.491913,259.437103 
	C338.938141,257.707611 340.732880,256.161041 341.756836,254.209930 
	C343.785034,250.345184 341.801239,243.856628 338.328247,241.857407 
	C335.565796,240.267227 324.614777,241.417664 323.059662,243.463486 
	C322.960205,243.594360 322.806213,243.741089 322.805359,243.881226 
	C322.778778,248.274109 322.003662,252.881058 323.143005,256.951416 
	C323.579468,258.510559 328.351135,259.053192 331.231567,259.657440 
	C332.964508,260.020966 334.859863,259.610321 337.491913,259.437103 
z"/>
<path fill="#161616" opacity="1.000000" stroke="none" 
	d="
M264.853302,133.792999 
	C265.032867,133.386658 265.212402,132.980316 265.536377,132.397430 
	C265.680786,132.220917 266.114502,132.083557 266.486389,132.021683 
	C267.089142,130.852203 267.320007,129.744598 267.593506,128.362228 
	C267.721893,127.726929 267.807617,127.366379 268.181274,126.763191 
	C267.995605,124.867973 267.542419,121.788887 267.045288,121.781784 
	C261.613495,121.704178 256.174835,122.106621 250.521606,122.517609 
	C250.153244,122.736214 250.001282,122.815727 249.555634,122.895737 
	C249.194672,123.602287 249.127380,124.308342 249.060089,125.014404 
	C248.958420,125.738640 248.856766,126.462868 248.553711,127.458496 
	C248.352325,127.729889 247.952927,127.966278 247.579346,128.023788 
	C246.967133,129.183044 246.728516,130.284790 246.426697,131.760101 
	C245.800995,134.044846 245.238495,135.956009 244.327332,137.975067 
	C243.468536,139.783981 243.266846,141.675583 242.365295,143.134811 
	C241.376663,144.735016 239.742508,145.936417 238.389633,147.311584 
	C237.962296,146.981247 237.534958,146.650909 237.107605,146.320557 
	C237.232971,145.250488 237.262894,144.158737 237.500076,143.114044 
	C238.579346,138.360016 239.716949,133.619247 240.898758,128.488419 
	C241.277786,126.363457 241.591644,124.623787 241.947052,122.653824 
	C239.657028,122.121468 237.784698,121.686211 235.942078,121.257858 
	C235.009644,117.501801 237.087952,117.044441 239.912888,116.535721 
	C241.933426,116.171844 244.570740,115.107086 245.468246,113.524467 
	C247.139694,110.577118 247.832382,107.049103 248.761093,103.715050 
	C249.394150,101.442482 248.825180,99.803017 245.998474,99.649246 
	C244.913620,99.590233 243.855423,99.040924 242.819275,98.725433 
	C243.731354,93.571274 243.747314,93.678543 248.087509,93.032936 
	C249.411301,92.836014 251.455399,92.135849 251.747482,91.215057 
	C253.661987,85.179420 255.186584,79.020103 256.838501,72.901169 
	C256.948242,72.538887 257.057983,72.176605 257.602112,71.511848 
	C260.662628,70.387917 263.632843,68.182976 264.878693,72.911148 
	C264.878693,72.911148 264.706055,73.296631 264.311707,73.594147 
	C262.518005,79.261536 261.118652,84.631401 259.719269,90.001274 
	C261.082123,90.797455 262.397614,92.161194 263.817017,92.279648 
	C267.548248,92.591026 271.324707,92.360413 275.736389,92.544266 
	C277.306274,91.991020 278.720398,91.414528 279.057343,90.458443 
	C280.983582,84.992332 282.517578,79.386368 284.500610,73.942963 
	C285.036133,72.472954 286.688446,70.327026 287.794922,70.346848 
	C291.393616,70.411308 290.060181,73.358536 289.626068,75.216019 
	C288.533386,79.891556 286.963715,84.458725 285.958893,89.149368 
	C285.725769,90.237617 286.780701,91.804787 287.609100,92.865654 
	C288.624847,94.166397 290.025391,95.166664 291.259552,96.296844 
	C289.639282,97.359390 287.969666,98.354988 286.411957,99.502472 
	C284.703979,100.760674 282.672882,101.879562 281.564117,103.571381 
	C280.348389,105.426399 279.799286,107.823402 279.374329,110.062920 
	C278.921509,112.448830 277.253479,115.290581 281.188171,116.746658 
	C282.339783,117.172813 283.097900,118.662231 284.036377,119.664307 
	C282.733429,120.362427 281.492981,121.446602 280.113190,121.669830 
	C277.945862,122.020470 275.526154,121.592201 276.034119,125.026855 
	C275.827148,125.603279 275.620178,126.179703 275.524170,126.663040 
	C275.407318,126.419609 275.179565,126.269279 274.770508,126.039566 
	C274.417114,126.642670 274.245026,127.325142 274.010315,128.394897 
	C273.459839,130.775574 272.971985,132.768967 272.152771,134.864105 
	C271.445496,136.457352 271.069550,137.948853 270.660217,139.717361 
	C270.740753,140.664001 270.854645,141.333633 270.968536,142.003250 
	C270.830139,142.408569 270.691742,142.813889 270.378632,143.439880 
	C270.203888,143.660538 269.807526,143.893921 269.464996,143.943359 
	C267.407349,146.126617 265.626801,148.048615 262.588501,145.686249 
	C262.796112,143.965927 263.035645,142.559692 263.629700,141.071747 
	C264.403687,139.177048 264.823181,137.364044 265.253296,135.236755 
	C265.127014,134.545975 264.990143,134.169479 264.853302,133.792999 
M258.742737,116.102165 
	C270.682343,116.106613 270.683533,116.106979 274.180420,104.652946 
	C274.541412,103.470428 274.877075,102.280159 275.437073,100.367325 
	C272.291931,100.215225 269.715179,99.994118 267.137512,99.982903 
	C256.738525,99.937653 256.738434,99.961571 253.723694,110.041580 
	C252.025162,115.720665 252.025162,115.720665 258.742737,116.102165 
z"/>
<path fill="#1C1C1C" opacity="1.000000" stroke="none" 
	d="
M232.507355,217.900345 
	C223.171082,217.878891 220.135635,214.985794 221.260117,207.561386 
	C222.035782,202.440018 224.497574,200.873459 231.458862,201.071487 
	C236.475754,201.214188 239.307709,203.914398 239.682907,208.912888 
	C240.077789,214.173676 238.115616,216.776337 232.507355,217.900345 
z"/>
<path fill="#1C1C1C" opacity="1.000000" stroke="none" 
	d="
M188.724426,287.766602 
	C185.098190,288.332336 181.352127,289.578644 178.361847,288.574432 
	C176.144333,287.829712 174.127899,284.370544 173.424393,281.744781 
	C172.446609,278.095367 173.547623,274.333252 177.543137,272.591919 
	C181.429337,270.898224 187.844101,272.342346 189.879700,275.067535 
	C192.236496,278.222687 191.825516,283.588440 188.724426,287.766602 
z"/>
<path fill="#1C1C1C" opacity="1.000000" stroke="none" 
	d="
M315.806488,326.980316 
	C321.941254,327.507050 323.750763,329.664215 323.624420,335.818634 
	C323.505646,341.604736 321.518921,343.564331 315.840820,343.833649 
	C312.003387,344.015686 307.879272,343.920380 306.598480,339.787811 
	C305.472473,336.154755 304.665253,331.578735 308.534882,328.780365 
	C310.322754,327.487366 313.079895,327.534760 315.806488,326.980316 
z"/>
<path fill="#1C1C1C" opacity="1.000000" stroke="none" 
	d="
M297.978577,213.937164 
	C294.838165,217.900467 287.815826,219.556824 284.000183,217.055542 
	C279.957397,214.405365 279.840240,210.257233 281.095673,205.993912 
	C282.434357,201.447723 285.589264,200.042648 292.527496,201.159851 
	C296.316071,201.769882 298.200897,204.247849 298.201813,208.090546 
	C298.202240,209.919189 298.122467,211.747879 297.978577,213.937164 
z"/>
<path fill="#1C1C1C" opacity="1.000000" stroke="none" 
	d="
M331.916077,319.132324 
	C327.111115,319.457642 323.457031,318.591034 322.780457,313.384583 
	C322.251099,309.310791 322.303619,305.269470 326.493286,302.944733 
	C329.645111,301.195801 337.246552,302.443817 339.026947,304.735168 
	C341.582672,308.024261 341.658936,314.074371 338.531372,317.038879 
	C337.095093,318.400269 334.438812,318.474640 331.916077,319.132324 
z"/>
<path fill="#1C1C1C" opacity="1.000000" stroke="none" 
	d="
M196.816452,253.975525 
	C193.739243,258.668976 187.897720,260.632080 183.450897,258.401215 
	C179.128433,256.232727 179.060989,251.989639 179.587326,247.967758 
	C180.235855,243.012177 182.901978,241.733871 190.332199,242.116196 
	C194.809296,242.346558 196.905228,244.760086 196.962311,249.113098 
	C196.981934,250.610687 196.890930,252.109711 196.816452,253.975525 
z"/>
<path fill="#191919" opacity="1.000000" stroke="none" 
	d="
M213.307098,222.152618 
	C215.145645,226.796692 213.733536,231.933212 210.363708,233.510437 
	C205.869980,235.613708 198.392990,234.202637 196.908234,230.971115 
	C194.836502,226.462128 196.118042,219.972549 199.421585,218.243713 
	C203.799515,215.952652 211.123123,217.839783 213.307098,222.152618 
z"/>
<path fill="#1A1A1A" opacity="1.000000" stroke="none" 
	d="
M238.441498,355.775146 
	C236.158569,359.743683 228.777557,361.700958 224.897491,359.658020 
	C221.581360,357.912048 220.070114,351.665558 221.974167,347.574890 
	C223.774658,343.706726 230.609772,341.867188 235.519592,343.929443 
	C239.127762,345.444885 240.520477,350.665710 238.441498,355.775146 
z"/>
<path fill="#1A1A1A" opacity="1.000000" stroke="none" 
	d="
M196.972488,311.678253 
	C196.991165,315.938354 195.094025,318.605438 191.314270,318.922852 
	C187.359055,319.254974 182.552368,320.554443 180.309097,315.628174 
	C178.499283,311.653839 178.342010,306.510559 181.810364,304.135590 
	C184.587173,302.234131 189.473328,302.377075 193.135620,303.090240 
	C196.955917,303.834106 197.197449,307.806274 196.972488,311.678253 
z"/>
<path fill="#969696" opacity="1.000000" stroke="none" 
	d="
M276.463867,124.993332 
	C275.526154,121.592201 277.945862,122.020470 280.113190,121.669830 
	C281.492981,121.446602 282.733429,120.362427 284.036377,119.664307 
	C283.097900,118.662231 282.339783,117.172813 281.188171,116.746658 
	C277.253479,115.290581 278.921509,112.448830 279.374329,110.062920 
	C279.799286,107.823402 280.348389,105.426399 281.564117,103.571381 
	C282.672882,101.879562 284.703979,100.760674 286.411957,99.502472 
	C287.969666,98.354988 289.639282,97.359390 291.259552,96.296844 
	C290.025391,95.166664 288.624847,94.166397 287.609100,92.865654 
	C286.780701,91.804787 285.725769,90.237617 285.958893,89.149368 
	C286.963715,84.458725 288.533386,79.891556 289.626068,75.216019 
	C290.060181,73.358536 291.393616,70.411308 287.794922,70.346848 
	C286.688446,70.327026 285.036133,72.472954 284.500610,73.942963 
	C282.517578,79.386368 280.983582,84.992332 279.057343,90.458443 
	C278.720398,91.414528 277.306274,91.991020 276.198578,92.470970 
	C277.733978,86.762207 279.389832,81.301369 281.218658,75.899109 
	C282.054108,73.431252 282.661194,70.430992 284.430115,68.876060 
	C285.884827,67.597282 289.495148,67.135704 291.048798,68.095192 
	C292.418915,68.941360 293.100861,72.454018 292.624634,74.438362 
	C291.340698,79.788315 289.276520,84.951012 287.431976,90.456711 
	C289.998901,91.066330 292.002441,91.542145 293.885803,91.989418 
	C294.085693,97.508102 293.609161,101.504982 286.641693,101.141815 
	C283.163818,100.960526 280.859192,110.704376 283.607941,113.315010 
	C285.466644,115.080307 288.743805,116.167999 286.941345,119.525421 
	C285.297119,122.588165 283.230713,125.588966 278.824524,124.594582 
	C278.238220,124.462265 277.540009,124.825867 276.463867,124.993332 
z"/>
<path fill="#191919" opacity="1.000000" stroke="none" 
	d="
M319.639221,233.796783 
	C317.481812,234.046127 315.665070,234.260483 313.851654,234.235321 
	C308.163422,234.156342 305.978363,231.786804 305.996338,225.864883 
	C306.014740,219.802124 308.025543,217.590866 313.902954,217.575500 
	C317.273010,217.566681 321.334320,216.704865 322.738312,221.142517 
	C324.179993,225.699371 324.706573,230.327637 319.639221,233.796783 
z"/>
<path fill="#1A1A1A" opacity="1.000000" stroke="none" 
	d="
M257.470520,365.546204 
	C251.731705,363.634644 250.470688,361.209412 251.488480,354.611694 
	C252.182266,350.114258 255.199142,348.408478 259.319885,348.974365 
	C262.067078,349.351624 266.449554,349.970825 267.016327,351.572784 
	C268.236359,355.021118 268.620911,359.746643 267.091370,362.830505 
	C266.120636,364.787720 261.091095,364.731781 257.470520,365.546204 
z"/>
<path fill="#191919" opacity="1.000000" stroke="none" 
	d="
M268.277954,201.082245 
	C269.411469,210.874878 264.881989,214.787140 255.979568,212.124130 
	C251.602524,210.814789 249.581009,202.652695 252.540085,198.497330 
	C255.290833,194.634567 259.296600,195.728149 263.012787,195.741425 
	C266.252472,195.752991 267.691254,197.793106 268.277954,201.082245 
z"/>
<path fill="#A0A0A0" opacity="1.000000" stroke="none" 
	d="
M256.497131,72.968109 
	C255.186584,79.020103 253.661987,85.179420 251.747482,91.215057 
	C251.455399,92.135849 249.411301,92.836014 248.087509,93.032936 
	C243.747314,93.678543 243.731354,93.571274 242.819275,98.725433 
	C243.855423,99.040924 244.913620,99.590233 245.998474,99.649246 
	C248.825180,99.803017 249.394150,101.442482 248.761093,103.715050 
	C247.832382,107.049103 247.139694,110.577118 245.468246,113.524467 
	C244.570740,115.107086 241.933426,116.171844 239.912888,116.535721 
	C237.087952,117.044441 235.009644,117.501801 235.942078,121.257858 
	C237.784698,121.686211 239.657028,122.121468 241.947052,122.653824 
	C241.591644,124.623787 241.277786,126.363457 240.597473,128.499237 
	C239.831161,128.938629 239.431320,128.981918 239.031464,129.025208 
	C239.042816,127.186287 240.073624,125.122429 236.835800,124.515335 
	C235.276291,124.222916 232.626221,121.913185 232.815308,121.424568 
	C233.885132,118.660042 235.076248,114.789612 237.310303,113.836014 
	C245.278809,110.434715 245.564896,110.647278 245.251221,101.687386 
	C242.775742,100.499771 238.285919,100.954239 240.115906,95.635712 
	C241.134415,92.675629 242.583969,90.806267 245.679077,91.189362 
	C249.424301,91.652916 250.279312,89.731125 251.136902,86.593811 
	C252.402771,81.962936 254.444473,77.544151 256.497131,72.968109 
z"/>
<path fill="#161616" opacity="1.000000" stroke="none" 
	d="
M293.025574,360.144836 
	C290.967957,360.120361 288.910278,360.095856 286.225342,359.809570 
	C281.858643,356.261719 280.431061,351.428894 282.247955,347.677734 
	C284.325043,343.389343 288.307892,343.210785 292.064026,344.091736 
	C294.263672,344.607666 296.109467,346.632385 298.114441,347.978363 
	C298.106689,350.361847 298.098907,352.745361 297.789459,355.679260 
	C296.000366,357.534729 294.512970,358.839783 293.025574,360.144836 
z"/>
<path fill="#111111" opacity="1.000000" stroke="none" 
	d="
M196.705521,339.485474 
	C196.676392,339.148956 196.647278,338.812469 196.744537,337.929657 
	C196.883453,336.888489 196.890518,336.393402 196.909348,335.898773 
	C197.163757,329.217133 199.185211,327.297699 205.670456,327.577301 
	C211.109863,327.811829 213.407181,330.541107 213.077789,336.377533 
	C212.783066,341.599884 210.226929,343.764862 203.857529,343.027649 
	C201.370193,342.739746 199.083557,340.717682 196.705521,339.485474 
z"/>
<path fill="#5F5F5F" opacity="1.000000" stroke="none" 
	d="
M327.959167,276.985748 
	C333.164581,270.349823 341.985901,269.443390 345.405548,275.311523 
	C346.859924,277.807281 347.101471,281.724457 346.356354,284.596710 
	C345.525757,287.798248 342.667572,289.428986 338.680359,289.571686 
	C331.099823,289.842987 326.691895,287.338196 327.959167,276.985748 
M337.523224,273.581390 
	C332.505096,274.319153 330.455017,276.792755 330.937958,281.527039 
	C331.411499,286.169281 334.218262,288.989136 338.470093,287.770966 
	C340.688141,287.135529 343.213867,284.371887 343.841675,282.086334 
	C344.980530,277.940491 343.809235,274.093445 337.523224,273.581390 
z"/>
<path fill="#969696" opacity="1.000000" stroke="none" 
	d="
M337.087097,259.492340 
	C334.859863,259.610321 332.964508,260.020966 331.231567,259.657440 
	C328.351135,259.053192 323.579468,258.510559 323.143005,256.951416 
	C322.003662,252.881058 322.778778,248.274109 322.805359,243.881226 
	C322.806213,243.741089 322.960205,243.594360 323.059662,243.463486 
	C324.614777,241.417664 335.565796,240.267227 338.328247,241.857407 
	C341.801239,243.856628 343.785034,250.345184 341.756836,254.209930 
	C340.732880,256.161041 338.938141,257.707611 337.087097,259.492340 
M323.288055,250.428528 
	C323.604553,251.533127 323.755951,252.721497 324.266418,253.727676 
	C326.378662,257.891052 331.399628,259.603546 335.537659,257.673309 
	C338.684601,256.205353 340.308380,250.856155 338.849915,246.761749 
	C337.693115,243.514252 333.284698,241.318832 329.292969,243.157578 
	C326.807007,244.302719 325.239227,247.441177 323.288055,250.428528 
z"/>
<path fill="#ABABAB" opacity="1.000000" stroke="none" 
	d="
M196.498352,339.853943 
	C199.083557,340.717682 201.370193,342.739746 203.857529,343.027649 
	C210.226929,343.764862 212.783066,341.599884 213.077789,336.377533 
	C213.407181,330.541107 211.109863,327.811829 205.670456,327.577301 
	C199.185211,327.297699 197.163757,329.217133 196.909348,335.898773 
	C196.890518,336.393402 196.883453,336.888489 196.654175,337.692078 
	C195.445282,337.119507 193.895462,336.400970 193.580536,335.321960 
	C192.980682,333.266846 197.681778,326.557373 199.866165,326.400055 
	C203.641327,326.128204 207.978134,325.245819 211.085190,326.717896 
	C213.657196,327.936432 215.489166,331.981354 216.394562,335.134247 
	C217.534866,339.105133 211.333038,345.184265 207.127777,345.027161 
	C205.322189,344.959686 203.511673,345.036011 201.703735,345.016937 
	C198.523193,344.983368 196.134750,344.033447 196.498352,339.853943 
z"/>
<path fill="#BBBBBB" opacity="1.000000" stroke="none" 
	d="
M298.395081,347.767273 
	C296.109467,346.632385 294.263672,344.607666 292.064026,344.091736 
	C288.307892,343.210785 284.325043,343.389343 282.247955,347.677734 
	C280.431061,351.428894 281.858643,356.261719 285.786407,359.854126 
	C283.040558,361.896149 281.294464,360.768921 280.656311,357.732361 
	C280.024689,354.726807 276.764832,352.416992 279.148621,348.558807 
	C282.776947,342.686310 289.154205,339.956177 295.624664,342.811371 
	C297.060089,343.444763 297.680206,345.925873 298.395081,347.767273 
z"/>
<path fill="#5F5F5F" opacity="1.000000" stroke="none" 
	d="
M239.020233,129.020020 
	C239.431320,128.981918 239.831161,128.938629 240.532288,128.884521 
	C239.716949,133.619247 238.579346,138.360016 237.500076,143.114044 
	C237.262894,144.158737 237.232971,145.250488 237.107605,146.320557 
	C237.534958,146.650909 237.962296,146.981247 238.389633,147.311584 
	C239.742508,145.936417 241.376663,144.735016 242.365295,143.134811 
	C243.266846,141.675583 243.468536,139.783981 244.435944,138.377594 
	C244.855270,140.057281 244.817352,141.442291 244.779419,142.827316 
	C243.495834,147.184509 241.103149,150.044861 235.566864,149.169846 
	C232.621414,143.188965 237.412445,138.131302 238.647247,132.008240 
	C239.077499,130.649353 239.054092,129.840332 239.030670,129.031326 
	C239.030685,129.031326 239.009018,129.014816 239.020233,129.020020 
z"/>
<path fill="#C9C9C9" opacity="1.000000" stroke="none" 
	d="
M249.849304,122.895248 
	C250.001282,122.815727 250.153244,122.736214 250.980804,122.690231 
	C255.271408,122.716568 258.920258,123.013962 262.491943,122.617020 
	C266.105988,122.215355 267.510742,123.798836 267.893341,127.005829 
	C267.807617,127.366379 267.721893,127.726929 267.288635,128.510544 
	C266.665619,129.983597 266.390076,131.033569 266.114502,132.083557 
	C266.114502,132.083557 265.680786,132.220917 265.518616,132.061401 
	C262.150330,130.691620 266.759491,124.236641 260.609894,124.915108 
	C257.251221,125.285660 253.857254,125.336060 250.193573,124.913567 
	C249.888382,123.829277 249.868835,123.362267 249.849304,122.895248 
z"/>
<path fill="#969696" opacity="1.000000" stroke="none" 
	d="
M260.026123,89.810593 
	C261.118652,84.631401 262.518005,79.261536 264.270020,73.801170 
	C265.148193,79.541008 263.789551,84.863304 260.026123,89.810593 
z"/>
<path fill="#C9C9C9" opacity="1.000000" stroke="none" 
	d="
M263.275177,141.153458 
	C263.035645,142.559692 262.796112,143.965927 262.375793,145.879486 
	C262.615173,147.404846 263.035370,148.422897 263.455566,149.440933 
	C261.477936,150.010651 258.666046,150.482300 259.301727,147.568726 
	C260.327637,142.866791 262.527924,138.421112 264.542755,133.830109 
	C264.990143,134.169479 265.127014,134.545975 265.009460,135.457077 
	C264.261749,137.712280 263.768463,139.432861 263.275177,141.153458 
z"/>
<path fill="#969696" opacity="1.000000" stroke="none" 
	d="
M265.197144,72.819595 
	C263.632843,68.182976 260.662628,70.387917 257.668823,71.235626 
	C256.506927,65.822853 260.706573,67.468132 263.125214,67.545044 
	C266.604156,67.655685 267.013062,69.928963 265.197144,72.819595 
z"/>
<path fill="#C9C9C9" opacity="1.000000" stroke="none" 
	d="
M245.159943,142.779282 
	C244.817352,141.442291 244.855270,140.057281 244.784607,138.269714 
	C245.238495,135.956009 245.800995,134.044846 246.731018,131.615204 
	C247.383347,130.053238 247.668137,129.009766 247.952927,127.966278 
	C247.952927,127.966278 248.352325,127.729889 248.564026,127.824951 
	C249.143524,129.079483 250.077789,130.416428 249.779861,131.367310 
	C248.572754,135.219849 246.986710,138.953644 245.159943,142.779282 
z"/>
<path fill="#C9C9C9" opacity="1.000000" stroke="none" 
	d="
M274.951843,126.118942 
	C275.179565,126.269279 275.407318,126.419609 275.552917,126.969803 
	C275.293182,129.492264 275.423248,131.700226 274.863861,133.716919 
	C274.081451,136.537659 272.784912,139.215775 271.338440,141.979080 
	C270.854645,141.333633 270.740753,140.664001 270.925781,139.524323 
	C271.644501,137.623627 272.064301,136.192978 272.484100,134.762344 
	C272.971985,132.768967 273.459839,130.775574 274.404633,128.004028 
	C274.891663,126.856873 274.921753,126.487907 274.951843,126.118942 
z"/>
<path fill="#5F5F5F" opacity="1.000000" stroke="none" 
	d="
M263.788116,149.446228 
	C263.035370,148.422897 262.615173,147.404846 262.407715,146.193573 
	C265.626801,148.048615 267.407349,146.126617 269.547119,144.282730 
	C269.125244,146.140320 268.278717,147.707977 267.432190,149.275635 
	C266.328339,149.334274 265.224518,149.392899 263.788116,149.446228 
z"/>
<path fill="#BBBBBB" opacity="1.000000" stroke="none" 
	d="
M293.252411,360.423462 
	C294.512970,358.839783 296.000366,357.534729 297.806732,356.125824 
	C298.961578,360.424286 298.710632,360.677032 293.252411,360.423462 
z"/>
<path fill="#C9C9C9" opacity="1.000000" stroke="none" 
	d="
M267.789429,149.463470 
	C268.278717,147.707977 269.125244,146.140320 269.889648,144.233292 
	C269.807526,143.893921 270.203888,143.660538 270.410095,143.762375 
	C273.253418,147.269897 271.450500,148.780838 267.789429,149.463470 
z"/>
<path fill="#A0A0A0" opacity="1.000000" stroke="none" 
	d="
M238.761276,129.171234 
	C239.054092,129.840332 239.077499,130.649353 238.887451,131.669189 
	C238.613281,131.023727 238.552582,130.167435 238.761276,129.171234 
z"/>
<path fill="#5F5F5F" opacity="1.000000" stroke="none" 
	d="
M249.555634,122.895737 
	C249.868835,123.362267 249.888382,123.829277 249.953888,124.647293 
	C249.999832,124.998291 249.532639,125.161896 249.296356,125.088150 
	C249.127380,124.308342 249.194672,123.602287 249.555634,122.895737 
z"/>
<path fill="#E2E2E2" opacity="1.000000" stroke="none" 
	d="
M258.286133,116.101303 
	C252.025162,115.720665 252.025162,115.720665 253.723694,110.041580 
	C256.738434,99.961571 256.738525,99.937653 267.137512,99.982903 
	C269.715179,99.994118 272.291931,100.215225 275.437073,100.367325 
	C274.877075,102.280159 274.541412,103.470428 274.180420,104.652946 
	C270.683533,116.106979 270.682343,116.106613 258.286133,116.101303 
z"/>
<path fill="#5F5F5F" opacity="1.000000" stroke="none" 
	d="
M268.181274,126.763191 
	C267.510742,123.798836 266.105988,122.215355 262.491943,122.617020 
	C258.920258,123.013962 255.271408,122.716568 251.197220,122.551147 
	C256.174835,122.106621 261.613495,121.704178 267.045288,121.781784 
	C267.542419,121.788887 267.995605,124.867973 268.181274,126.763191 
z"/>
<path fill="#5F5F5F" opacity="1.000000" stroke="none" 
	d="
M263.629700,141.071747 
	C263.768463,139.432861 264.261749,137.712280 264.998871,135.771378 
	C264.823181,137.364044 264.403687,139.177048 263.629700,141.071747 
z"/>
<path fill="#5F5F5F" opacity="1.000000" stroke="none" 
	d="
M272.152771,134.864105 
	C272.064301,136.192978 271.644501,137.623627 270.959167,139.247299 
	C271.069550,137.948853 271.445496,136.457352 272.152771,134.864105 
z"/>
<path fill="#5F5F5F" opacity="1.000000" stroke="none" 
	d="
M247.579346,128.023788 
	C247.668137,129.009766 247.383347,130.053238 246.794220,131.241623 
	C246.728516,130.284790 246.967133,129.183044 247.579346,128.023788 
z"/>
<path fill="#5F5F5F" opacity="1.000000" stroke="none" 
	d="
M266.486389,132.021683 
	C266.390076,131.033569 266.665619,129.983597 267.246033,128.785294 
	C267.320007,129.744598 267.089142,130.852203 266.486389,132.021683 
z"/>
<path fill="#5F5F5F" opacity="1.000000" stroke="none" 
	d="
M274.770508,126.039566 
	C274.921753,126.487907 274.891663,126.856873 274.467224,127.616730 
	C274.245026,127.325142 274.417114,126.642670 274.770508,126.039566 
z"/>
<path fill="#050505" opacity="1.000000" stroke="none" 
	d="
M337.951904,273.583252 
	C343.809235,274.093445 344.980530,277.940491 343.841675,282.086334 
	C343.213867,284.371887 340.688141,287.135529 338.470093,287.770966 
	C334.218262,288.989136 331.411499,286.169281 330.937958,281.527039 
	C330.455017,276.792755 332.505096,274.319153 337.951904,273.583252 
z"/>
<path fill="#0E0E0E" opacity="1.000000" stroke="none" 
	d="
M323.273712,250.056778 
	C325.239227,247.441177 326.807007,244.302719 329.292969,243.157578 
	C333.284698,241.318832 337.693115,243.514252 338.849915,246.761749 
	C340.308380,250.856155 338.684601,256.205353 335.537659,257.673309 
	C331.399628,259.603546 326.378662,257.891052 324.266418,253.727676 
	C323.755951,252.721497 323.604553,251.533127 323.273712,250.056778 
z"/>
</svg>