<svg version="1.1" id="Layer_1" xmlns="http://www.w3.org/2000/svg" xmlns:xlink="http://www.w3.org/1999/xlink" x="0px" y="0px"
	 width="100%" viewBox="0 0 512 512" enable-background="new 0 0 512 512" xml:space="preserve">
<path fill="#000000" opacity="1.000000" stroke="none" 
	d="
M375.044159,90.934677 
	C385.009521,90.927925 385.009521,90.927925 387.028046,99.933380 
	C389.683228,111.779190 397.417145,118.201500 408.302216,117.599625 
	C419.848969,116.961159 427.577148,109.633354 428.677917,97.578560 
	C429.133484,92.589554 430.838104,90.352089 436.069122,90.871262 
	C440.029968,91.264366 444.059326,90.981781 448.058136,90.973732 
	C450.809601,90.968193 452.422058,91.919098 452.355499,95.058609 
	C451.894684,116.797958 440.002899,135.596252 415.386292,138.463455 
	C403.393768,139.860260 392.129150,138.837616 381.980011,131.782669 
	C379.825012,130.284637 377.936737,128.402878 375.556549,126.385078 
	C368.582764,134.165817 359.695923,137.988434 349.602325,138.814346 
	C320.679382,141.180923 301.169586,126.266113 299.612915,96.367683 
	C299.394714,92.176788 301.001343,90.669601 305.081665,90.884544 
	C309.402161,91.112137 313.744263,91.002640 318.075165,90.932686 
	C320.862274,90.887672 322.503510,91.907257 322.628326,94.893127 
	C322.676636,96.048378 323.040558,97.186897 323.195496,98.341782 
	C324.862946,110.771294 331.905914,117.495483 343.394989,117.609436 
	C354.216736,117.716766 362.468628,110.632576 364.543091,99.453979 
	C366.123322,90.938683 366.123322,90.938683 375.044159,90.934677 
z"/>
<path fill="#000000" opacity="1.000000" stroke="none" 
	d="
M350.218811,318.744568 
	C349.120239,324.375427 346.078430,327.828461 340.819733,328.873047 
	C336.761658,329.679199 333.243805,328.133789 330.639984,325.028076 
	C327.620392,321.426392 326.847870,317.273163 329.130951,313.000183 
	C331.223663,309.083496 334.541443,306.644897 339.126007,306.780029 
	C343.797089,306.917725 347.315277,309.146820 349.297974,313.516968 
	C349.992737,315.048248 350.387604,316.640594 350.218811,318.744568 
z"/>
<path fill="#000000" opacity="1.000000" stroke="none" 
	d="
M266.966736,368.431000 
	C269.430267,375.821716 266.638641,382.260376 260.497009,384.116150 
	C254.159897,386.031006 247.858063,382.492310 246.168106,376.070007 
	C244.930939,371.368439 247.493408,365.999176 252.117783,363.603271 
	C257.156830,360.992584 262.620361,362.655029 266.966736,368.431000 
z"/>
<path fill="#000000" opacity="1.000000" stroke="none" 
	d="
M188.020828,211.766647 
	C194.276428,209.084656 199.946548,210.280792 202.924667,214.637375 
	C205.949310,219.062012 205.506042,224.979340 201.864624,228.787704 
	C198.145126,232.677780 192.337021,233.333420 187.772598,230.378525 
	C181.118042,226.070465 181.081528,217.893570 188.020828,211.766647 
z"/>
<path fill="#000000" opacity="1.000000" stroke="none" 
	d="
M318.437592,232.043396 
	C311.890778,229.776382 308.752625,225.659546 309.168396,220.325958 
	C309.562408,215.271362 314.117615,210.521698 319.123688,209.945663 
	C323.822021,209.405045 328.783295,212.488144 330.596649,217.075424 
	C333.630585,224.750305 327.914429,232.068604 318.437592,232.043396 
z"/>
<path fill="#000000" opacity="1.000000" stroke="none" 
	d="
M184.468262,244.820251 
	C187.573792,252.353500 185.171570,258.833771 178.750290,261.153137 
	C172.616577,263.368622 166.101074,259.872040 164.292282,253.394165 
	C162.956146,248.609024 165.385880,243.389893 170.132187,240.849838 
	C174.961502,238.265366 179.835419,239.522537 184.468262,244.820251 
z"/>
<path fill="#000000" opacity="1.000000" stroke="none" 
	d="
M327.918945,251.769379 
	C328.682007,244.938385 331.590576,240.860657 336.511627,239.913116 
	C341.307251,238.989746 345.451477,240.357620 348.281738,244.567749 
	C351.954285,250.030777 350.129425,257.128876 344.289825,260.425354 
	C338.826447,263.509460 331.847107,261.269867 329.054993,255.480881 
	C328.554626,254.443481 328.323578,253.276154 327.918945,251.769379 
z"/>
<path fill="#000000" opacity="1.000000" stroke="none" 
	d="
M168.705566,273.372528 
	C175.831131,274.833618 179.870224,279.743530 179.044189,285.543732 
	C178.213943,291.373535 172.884583,295.709290 167.049271,295.302246 
	C161.350845,294.904816 156.837692,290.143463 156.721710,284.406799 
	C156.597519,278.263702 161.021683,274.031158 168.705566,273.372528 
z"/>
<path fill="#000000" opacity="1.000000" stroke="none" 
	d="
M335.434204,286.329407 
	C335.124329,279.140991 338.397858,274.513794 344.175629,273.459930 
	C349.731750,272.446442 355.040863,275.540771 356.820312,280.829651 
	C358.550598,285.972504 356.077972,291.780731 351.081055,294.311096 
	C344.800262,297.491638 338.257690,294.292328 335.434204,286.329407 
z"/>
<path fill="#000000" opacity="1.000000" stroke="none" 
	d="
M167.241486,325.757324 
	C163.564377,321.314484 162.700668,316.839935 165.744247,312.149017 
	C168.180801,308.393677 171.689728,306.227905 176.288132,306.868774 
	C181.174438,307.549805 184.523148,310.345184 185.826553,315.207581 
	C187.093582,319.934296 185.378601,323.766632 181.683807,326.654541 
	C177.202728,330.157013 173.385742,329.888885 167.241486,325.757324 
z"/>
<path fill="#000000" opacity="1.000000" stroke="none" 
	d="
M298.003052,357.913513 
	C303.104858,364.473358 302.671814,371.270874 297.206573,375.260162 
	C292.021759,379.044739 285.050842,377.793610 281.399841,372.423157 
	C278.651733,368.380798 279.048157,362.698273 282.336121,359.001892 
	C286.189728,354.669617 291.615509,354.199554 298.003052,357.913513 
z"/>
<path fill="#000000" opacity="1.000000" stroke="none" 
	d="
M245.870544,195.827362 
	C246.825470,188.787964 249.906250,184.832001 255.284592,184.134979 
	C259.885223,183.538757 263.874664,185.200668 266.451385,189.215851 
	C269.977173,194.710022 267.886566,201.876205 262.024963,204.995544 
	C256.622131,207.870728 249.519379,205.348297 246.909973,199.570343 
	C246.436005,198.520874 246.239670,197.346008 245.870544,195.827362 
z"/>
<path fill="#000000" opacity="1.000000" stroke="none" 
	d="
M279.688873,201.225372 
	C281.436707,194.583008 285.389313,191.178513 290.732300,191.304367 
	C296.084320,191.430420 300.195709,194.601212 301.297729,199.452713 
	C302.558258,205.001999 300.297577,209.859848 295.310974,212.317352 
	C287.867462,215.985672 280.143585,210.714172 279.688873,201.225372 
z"/>
<path fill="#000000" opacity="1.000000" stroke="none" 
	d="
M330.058716,342.404663 
	C332.406128,349.259735 330.673187,354.526581 325.446014,357.325836 
	C321.041077,359.684814 315.139679,358.542816 311.802490,354.685699 
	C308.257904,350.588867 308.194763,344.721008 311.649628,340.481537 
	C316.368561,334.690918 325.000946,335.427612 330.058716,342.404663 
z"/>
<path fill="#000000" opacity="1.000000" stroke="none" 
	d="
M212.809830,199.558609 
	C216.073624,192.625015 219.878296,190.378555 225.661194,191.599091 
	C231.106964,192.748489 234.294113,196.590591 234.354355,202.078674 
	C234.423462,208.375534 229.776138,213.248672 223.646088,213.307236 
	C217.227264,213.368561 212.815735,209.025864 212.643234,202.452713 
	C212.621567,201.626907 212.705368,200.798340 212.809830,199.558609 
z"/>
<path fill="#000000" opacity="1.000000" stroke="none" 
	d="
M227.162109,376.795227 
	C222.007523,378.037415 217.810425,377.010468 214.719330,373.110504 
	C212.010590,369.692963 211.855545,365.696472 213.498047,361.816345 
	C215.259094,357.656128 218.603714,355.162872 223.187683,355.244324 
	C228.001770,355.329834 231.970825,357.391479 233.692963,362.192200 
	C235.258667,366.556793 234.658890,370.738190 231.219498,374.123779 
	C230.179596,375.147461 228.777374,375.803009 227.162109,376.795227 
z"/>
<path fill="#000000" opacity="1.000000" stroke="none" 
	d="
M192.318298,358.315674 
	C186.554413,357.147461 183.405304,353.796875 182.839752,348.454498 
	C182.365097,343.970764 184.344559,340.356201 188.277817,338.063965 
	C192.407944,335.656982 196.553833,336.080444 200.446106,338.666077 
	C204.251419,341.193939 205.881470,346.185822 204.494232,350.490417 
	C202.801361,355.743317 199.122360,358.203186 192.318298,358.315674 
z"/>
</svg>