<svg version="1.1" id="Layer_1" xmlns="http://www.w3.org/2000/svg" xmlns:xlink="http://www.w3.org/1999/xlink" x="0px" y="0px"
	 width="100%" viewBox="0 0 512 512" enable-background="new 0 0 512 512" xml:space="preserve">
<path fill="#000000" opacity="1.000000" stroke="none" 
	d="
M341.606323,490.132874 
	C340.903076,492.687317 339.157501,492.588959 337.476379,492.582672 
	C330.981750,492.558350 324.484558,492.401550 317.993683,492.541962 
	C314.669281,492.613861 313.607422,491.197510 313.669037,488.071136 
	C313.790497,481.910706 313.478790,475.735565 313.771179,469.586700 
	C313.981567,465.162048 312.013824,463.920868 308.091766,464.496643 
	C301.609314,465.448364 295.118835,464.303253 288.636536,464.585541 
	C285.807190,464.708740 284.780212,463.341614 284.808228,460.664886 
	C284.867401,455.002380 284.919342,449.336334 284.780609,443.676453 
	C284.694733,440.173462 286.377289,438.925018 289.631256,438.945587 
	C296.126862,438.986633 302.625153,438.832214 309.118134,438.964905 
	C312.562134,439.035248 313.852142,437.690155 313.744476,434.236664 
	C313.552551,428.079712 313.807922,421.909180 313.638214,415.750916 
	C313.545715,412.393097 314.697510,410.832703 318.195770,410.902008 
	C324.522797,411.027283 330.856079,411.043121 337.182587,410.908661 
	C340.688293,410.834167 341.969086,412.500366 341.902496,415.751221 
	C341.786560,421.409485 342.020996,427.094635 341.537567,432.719421 
	C341.154510,437.176666 342.188721,439.257294 347.084961,439.001617 
	C353.064850,438.689270 359.076447,439.042114 365.069061,438.893982 
	C368.765747,438.802643 370.620911,439.926880 370.405060,444.022217 
	C370.133636,449.171295 370.105347,454.360413 370.420013,459.504822 
	C370.687042,463.870392 368.621155,465.029236 364.799347,464.886505 
	C358.977570,464.669006 353.144562,464.709137 347.327850,464.413086 
	C343.024048,464.194031 340.918945,465.295807 341.460449,470.270325 
	C342.161224,476.707886 342.227966,483.229614 341.606323,490.132874 
z"/>
<path fill="#000000" opacity="1.000000" stroke="none" 
	d="
M466.339905,446.101257 
	C466.341370,451.083191 466.177246,455.585541 466.394836,460.069366 
	C466.564697,463.569061 465.044617,464.928558 461.741333,464.850464 
	C455.421600,464.701019 449.096771,464.690552 442.782318,464.425171 
	C438.848694,464.259857 437.062744,465.373230 437.455597,469.800110 
	C437.983673,475.751007 437.768127,481.766937 437.900299,487.754303 
	C437.977478,491.251495 436.642487,492.825775 432.824310,492.628662 
	C426.681793,492.311523 420.508057,492.363068 414.356384,492.550690 
	C410.892090,492.656342 409.574249,491.394318 409.659515,487.938141 
	C409.815491,481.616699 409.566559,475.284973 409.738922,468.964417 
	C409.835785,465.413025 408.328949,464.140289 404.963959,464.431976 
	C398.486572,464.993500 392.010620,464.824860 385.516052,464.564606 
	C382.177216,464.430786 380.632935,463.494690 380.756165,459.953278 
	C380.941315,454.632874 380.934265,449.298035 380.776855,443.976166 
	C380.668427,440.310089 382.264709,438.869720 385.822418,438.917938 
	C392.146484,439.003693 398.476044,438.794434 404.796936,438.956421 
	C408.403717,439.048859 409.890350,437.802063 409.747986,434.045288 
	C409.514893,427.895142 409.812683,421.726044 409.634033,415.572235 
	C409.532410,412.071381 410.996368,410.823120 414.355011,410.890411 
	C420.678040,411.017059 427.006348,411.021332 433.329956,410.919281 
	C436.530731,410.867645 437.916138,412.298767 437.852570,415.394989 
	C437.726349,421.547791 437.770905,427.709076 437.444305,433.850891 
	C437.251495,437.476135 438.429962,439.073486 442.194366,438.967773 
	C448.015717,438.804321 453.845306,438.913940 459.671234,438.939667 
	C466.249786,438.968719 466.249725,438.984100 466.339905,446.101257 
z"/>
<path fill="#000000" opacity="1.000000" stroke="none" 
	d="
M350.217163,318.744263 
	C347.265656,328.432220 339.254517,331.928223 332.437286,326.728241 
	C328.922485,324.047272 327.106476,320.323792 328.170074,315.819336 
	C329.290161,311.075806 332.310913,307.809998 337.167542,306.943512 
	C341.785309,306.119629 345.639801,307.880859 348.340698,311.787109 
	C349.684357,313.730316 350.409729,315.921906 350.217163,318.744263 
z"/>
<path fill="#000000" opacity="1.000000" stroke="none" 
	d="
M195.487518,210.188171 
	C202.060730,212.225723 205.605270,216.774155 205.070038,222.099442 
	C204.555099,227.222824 199.585556,231.960052 194.419418,232.252197 
	C189.238419,232.545197 184.408890,228.881943 183.016617,223.706360 
	C181.055023,216.414459 187.983078,208.785187 195.487518,210.188171 
z"/>
<path fill="#000000" opacity="1.000000" stroke="none" 
	d="
M350.884155,294.415466 
	C345.844269,296.181244 341.552246,295.567017 338.171021,291.845795 
	C335.452148,288.853516 334.357758,285.234283 335.664978,281.196808 
	C337.210602,276.423096 340.565002,273.538330 345.501617,273.274170 
	C350.098969,273.028137 353.993164,274.893036 356.152710,279.290588 
	C358.379456,283.824921 357.606964,288.044098 354.386139,291.801300 
	C353.541565,292.786560 352.305817,293.436462 350.884155,294.415466 
z"/>
<path fill="#000000" opacity="1.000000" stroke="none" 
	d="
M179.599457,327.972229 
	C172.397156,330.092133 166.945435,327.632690 164.642700,321.558563 
	C162.595566,316.158630 165.358673,310.121033 171.024750,307.613342 
	C175.935333,305.440033 182.115173,307.640259 184.761597,312.504120 
	C187.844589,318.170410 186.141098,323.591095 179.599457,327.972229 
z"/>
<path fill="#000000" opacity="1.000000" stroke="none" 
	d="
M165.640289,273.524048 
	C174.317917,273.376495 179.580215,277.996216 179.116745,284.950439 
	C178.709396,291.062775 172.842865,295.922729 166.642975,295.283936 
	C161.572525,294.761505 157.395203,290.617859 156.776505,285.497070 
	C156.135605,280.192505 159.153427,275.961365 165.640289,273.524048 
z"/>
<path fill="#000000" opacity="1.000000" stroke="none" 
	d="
M348.483765,244.809509 
	C351.585388,252.332230 349.165802,258.870575 342.763611,261.175720 
	C336.638641,263.381073 330.084808,259.859161 328.290100,253.397919 
	C326.962097,248.616989 329.399689,243.369644 334.128540,240.829712 
	C338.912933,238.259949 343.854523,239.535858 348.483765,244.809509 
z"/>
<path fill="#000000" opacity="1.000000" stroke="none" 
	d="
M182.491425,242.391281 
	C186.836243,248.019485 187.384003,251.845383 184.484467,256.345062 
	C181.936325,260.299438 178.376648,262.269470 173.498215,261.567261 
	C168.403351,260.833923 165.407471,257.836151 164.212418,253.046387 
	C163.084564,248.525925 164.831741,244.798965 168.359451,242.035416 
	C172.908646,238.471664 177.608673,238.959045 182.491425,242.391281 
z"/>
<path fill="#000000" opacity="1.000000" stroke="none" 
	d="
M313.956787,230.317902 
	C308.895111,225.210815 307.897308,220.600418 310.534851,215.880234 
	C312.930664,211.592667 317.759430,209.237579 322.182678,210.199341 
	C328.805542,211.639374 332.745178,217.708572 331.088287,223.918945 
	C329.455933,230.037598 322.886719,233.481781 316.561371,231.507095 
	C315.779388,231.262955 315.050262,230.849594 313.956787,230.317902 
z"/>
<path fill="#000000" opacity="1.000000" stroke="none" 
	d="
M253.135315,205.357208 
	C246.541168,201.534622 244.462967,196.791107 246.674530,191.343155 
	C248.808929,186.085266 253.871704,183.125854 258.831512,184.236862 
	C265.447968,185.718964 269.419403,191.397278 267.976593,197.312454 
	C266.364319,203.922333 260.531097,207.218781 253.135315,205.357208 
z"/>
<path fill="#000000" opacity="1.000000" stroke="none" 
	d="
M288.621887,355.475739 
	C297.389771,355.526672 302.147400,359.950348 301.676392,367.182068 
	C301.270233,373.417969 295.676453,377.945862 289.208130,377.274506 
	C284.587646,376.794922 280.420197,372.851685 279.750122,368.325409 
	C278.844116,362.205231 281.602844,358.059845 288.621887,355.475739 
z"/>
<path fill="#000000" opacity="1.000000" stroke="none" 
	d="
M254.484406,362.762512 
	C263.856018,362.571869 269.519470,368.005981 268.074860,375.348938 
	C267.139282,380.104218 263.160583,383.888672 258.615143,384.346741 
	C252.935715,384.919128 248.599548,382.421539 246.651718,377.455902 
	C244.795502,372.723816 246.236008,367.866852 250.566803,364.663849 
	C251.615509,363.888275 252.894073,363.423431 254.484406,362.762512 
z"/>
<path fill="#000000" opacity="1.000000" stroke="none" 
	d="
M288.434753,213.193405 
	C281.308899,210.305313 278.486389,205.657455 279.836395,199.658386 
	C280.919800,194.844086 285.858246,191.114166 290.893951,191.306763 
	C297.370087,191.554459 301.777100,196.140381 301.717896,202.570129 
	C301.657379,209.141556 296.657379,213.290512 288.434753,213.193405 
z"/>
<path fill="#000000" opacity="1.000000" stroke="none" 
	d="
M312.569641,339.441101 
	C318.614105,335.692993 324.147186,335.801056 327.975647,339.471680 
	C331.505157,342.855682 332.383209,348.671661 329.984039,352.774872 
	C326.579895,358.596863 319.555756,360.305603 314.038147,356.654053 
	C308.412201,352.930664 307.710754,346.161530 312.569641,339.441101 
z"/>
<path fill="#000000" opacity="1.000000" stroke="none" 
	d="
M215.721405,374.279419 
	C212.010406,370.041138 211.631882,365.597443 213.882721,361.064819 
	C215.798172,357.207550 219.156204,355.028931 223.537079,355.255737 
	C228.147644,355.494385 231.809021,357.534882 233.670364,362.050812 
	C235.479218,366.439423 234.211060,371.631134 230.596146,374.712921 
	C226.425888,378.268219 221.917999,378.218170 215.721405,374.279419 
z"/>
<path fill="#000000" opacity="1.000000" stroke="none" 
	d="
M216.326874,210.794632 
	C212.252594,205.938110 211.446686,201.060852 213.911270,196.865982 
	C216.200684,192.969269 219.576340,190.867569 224.219788,191.343262 
	C229.141937,191.847534 232.794586,194.316193 234.051743,199.170822 
	C235.200485,203.606857 234.214996,207.752518 230.452271,210.848907 
	C226.486618,214.112274 222.234406,214.162979 216.326874,210.794632 
z"/>
<path fill="#000000" opacity="1.000000" stroke="none" 
	d="
M200.163437,356.510437 
	C194.321198,360.516785 186.384705,357.572784 183.994568,352.567322 
	C181.319290,346.964752 183.263718,340.637299 188.835281,337.694763 
	C193.335190,335.318176 199.582703,336.729889 202.725250,340.833466 
	C206.522034,345.791351 205.777618,350.919922 200.163437,356.510437 
z"/>
</svg>