<svg version="1.1" id="Layer_1" xmlns="http://www.w3.org/2000/svg" xmlns:xlink="http://www.w3.org/1999/xlink" x="0px" y="0px"
	 width="100%" viewBox="0 0 512 512" enable-background="new 0 0 512 512" xml:space="preserve">
<path fill="#000000" opacity="1.000000" stroke="none" 
	d="
M371.358368,96.074631 
	C372.684998,93.496925 374.760590,93.653908 376.767731,93.653511 
	C388.264740,93.651253 399.761902,93.618568 411.258698,93.667122 
	C416.654785,93.689903 418.051331,96.244499 414.972321,100.878540 
	C410.261566,107.968498 404.593353,114.331970 398.923798,120.650856 
	C387.680115,133.182220 375.943481,145.220093 362.953125,155.999039 
	C360.206360,158.278229 357.505157,159.495438 353.931000,159.311066 
	C349.609985,159.088150 345.266235,159.341309 340.938354,159.201248 
	C338.901031,159.135300 336.215271,160.129730 335.108734,157.623856 
	C333.958740,155.019669 334.852722,152.487152 336.580811,150.172165 
	C340.067322,145.501556 343.501343,140.785660 346.787354,135.972610 
	C355.526672,123.171951 363.773041,110.061882 371.358368,96.074631 
z"/>
<path fill="#000000" opacity="1.000000" stroke="none" 
	d="
M290.611633,97.468277 
	C291.843536,94.414986 293.831757,93.581299 296.685944,93.610245 
	C308.181519,93.726807 319.679077,93.625549 331.175659,93.669495 
	C336.605103,93.690247 338.047028,96.215256 335.013641,100.807541 
	C330.414276,107.770630 324.871735,114.024567 319.302795,120.208855 
	C307.703094,133.090363 295.658478,145.533798 282.245148,156.585114 
	C280.071747,158.375778 277.885773,159.398163 275.016449,159.303253 
	C270.189514,159.143600 265.352295,159.318359 260.522766,159.206589 
	C258.630859,159.162811 256.163452,159.973312 255.139008,157.699478 
	C254.053009,155.288956 254.670395,152.867584 256.336914,150.689011 
	C258.663452,147.647705 260.876831,144.517776 263.079468,141.384186 
	C272.953461,127.336899 282.165314,112.872345 290.611633,97.468277 
z"/>
<path fill="#000000" opacity="1.000000" stroke="none" 
	d="
M482.990173,93.646713 
	C487.452881,93.646690 491.417236,93.646690 495.211426,93.646690 
	C497.551788,97.777870 495.472504,100.473183 493.449585,103.103180 
	C482.162048,117.778366 469.568237,131.274673 456.187256,144.041122 
	C452.096985,147.943527 447.604340,151.430984 443.597931,155.412308 
	C440.496094,158.494675 437.053467,159.562469 432.796173,159.307129 
	C428.317627,159.038513 423.809540,159.309235 419.318024,159.197067 
	C414.988220,159.088943 413.412476,156.647598 415.187561,152.669724 
	C415.918640,151.031372 417.207184,149.636917 418.272522,148.153305 
	C430.026855,131.783951 441.117737,114.987129 450.660553,97.219025 
	C452.141022,94.462494 454.025024,93.551720 457.026062,93.602257 
	C465.512512,93.745148 474.002960,93.648827 482.990173,93.646713 
z"/>
<path fill="#000000" opacity="1.000000" stroke="none" 
	d="
M349.659058,321.123108 
	C346.516388,327.212067 342.208679,329.856323 337.412811,328.919098 
	C332.246674,327.909485 328.380249,323.794525 327.882111,318.775726 
	C327.442139,314.342926 330.345398,309.630127 334.764038,307.652710 
	C338.823700,305.835938 342.673309,306.613800 345.978455,309.229889 
	C349.644287,312.131409 351.089142,316.058685 349.659058,321.123108 
z"/>
<path fill="#000000" opacity="1.000000" stroke="none" 
	d="
M268.249390,373.085815 
	C267.197601,379.815094 264.370239,383.480682 259.610626,384.265503 
	C254.879501,385.045624 250.703705,383.988342 247.829330,379.765045 
	C244.167068,374.384064 245.858444,367.304474 251.595932,363.898773 
	C257.129028,360.614319 264.460327,362.931488 267.139282,368.880585 
	C267.674316,370.068756 267.880219,371.405121 268.249390,373.085815 
z"/>
<path fill="#000000" opacity="1.000000" stroke="none" 
	d="
M172.567383,307.006134 
	C179.789886,306.705261 183.615585,308.989746 185.534622,314.409943 
	C187.133438,318.925690 185.533981,323.937103 181.589462,326.770905 
	C176.561890,330.382782 170.092575,329.547546 166.413879,324.811646 
	C162.581558,319.877960 163.337082,313.111359 168.258118,309.263031 
	C169.416122,308.357483 170.860428,307.817993 172.567383,307.006134 
z"/>
<path fill="#000000" opacity="1.000000" stroke="none" 
	d="
M337.467712,277.596222 
	C341.287140,273.164307 345.738464,272.195099 350.691193,274.198090 
	C354.690918,275.815613 356.955902,278.999603 357.290924,283.353333 
	C357.658142,288.125214 355.566650,291.687866 351.508972,294.068970 
	C347.568939,296.381012 341.937347,295.596008 338.608978,292.406036 
	C334.780701,288.736969 334.291046,283.512756 337.467712,277.596222 
z"/>
<path fill="#000000" opacity="1.000000" stroke="none" 
	d="
M167.158447,295.309143 
	C159.301559,293.427032 155.403091,287.970917 156.976089,281.630035 
	C158.419922,275.809845 164.375534,272.313660 170.558319,273.656738 
	C175.747192,274.783905 179.520401,279.797607 179.119659,285.032715 
	C178.685623,290.702698 174.115067,294.777435 167.158447,295.309143 
z"/>
<path fill="#000000" opacity="1.000000" stroke="none" 
	d="
M185.879974,253.328217 
	C182.463989,263.653564 170.584122,263.844116 165.965332,257.108368 
	C163.167709,253.028503 163.254333,248.043396 166.252701,244.089035 
	C169.295670,240.075882 174.547943,238.599213 179.191238,240.451355 
	C184.217438,242.456238 186.445480,246.538788 185.879974,253.328217 
z"/>
<path fill="#000000" opacity="1.000000" stroke="none" 
	d="
M334.998718,240.415924 
	C342.216278,239.008194 346.797516,240.962006 349.170197,246.124527 
	C351.273071,250.700012 350.045105,255.935715 346.106445,259.187317 
	C341.198151,263.239410 333.917206,262.413757 330.164032,257.379395 
	C325.887268,251.642731 327.626465,245.112045 334.998718,240.415924 
z"/>
<path fill="#000000" opacity="1.000000" stroke="none" 
	d="
M329.458130,214.858032 
	C332.189087,219.733673 332.125641,224.139557 328.648529,228.148285 
	C325.701324,231.546127 322.011932,233.043884 317.468384,231.812714 
	C312.766785,230.538712 310.178375,227.389359 309.342316,222.705414 
	C308.525421,218.129028 310.987427,213.527863 315.441711,211.167343 
	C320.074921,208.711990 324.669952,209.833374 329.458130,214.858032 
z"/>
<path fill="#000000" opacity="1.000000" stroke="none" 
	d="
M186.760376,212.656708 
	C191.300980,209.160492 195.735565,209.276535 200.090881,211.972031 
	C203.849030,214.297943 205.369080,218.130310 204.918457,222.281494 
	C204.415710,226.912949 201.571182,230.149094 197.030869,231.693665 
	C192.641083,233.187027 187.442810,231.380157 184.722366,227.396576 
	C181.575073,222.788025 182.116119,218.246857 186.760376,212.656708 
z"/>
<path fill="#000000" opacity="1.000000" stroke="none" 
	d="
M285.359283,376.091248 
	C279.913757,371.697418 278.348816,367.301117 280.213654,362.440857 
	C281.901215,358.042542 286.601227,354.956299 291.180969,355.298431 
	C295.706970,355.636505 299.226959,357.691376 300.865326,362.000275 
	C302.522034,366.357452 301.954315,370.634064 298.582031,374.044952 
	C294.912567,377.756439 290.482300,378.287994 285.359283,376.091248 
z"/>
<path fill="#000000" opacity="1.000000" stroke="none" 
	d="
M260.043945,184.597961 
	C266.303101,187.395615 269.146332,192.046051 268.020416,197.103958 
	C266.849457,202.364258 261.975616,206.400543 256.982941,206.244659 
	C251.678177,206.079010 247.234055,202.182922 246.037964,196.945770 
	C244.463150,190.050201 252.492966,181.630936 260.043945,184.597961 
z"/>
<path fill="#000000" opacity="1.000000" stroke="none" 
	d="
M297.651276,210.855835 
	C291.611938,214.356308 286.726074,214.020279 282.804138,210.089188 
	C279.244476,206.521225 278.536163,201.053345 281.082458,196.798294 
	C283.780365,192.289917 288.771606,190.349533 293.998016,191.777222 
	C302.026703,193.970444 303.989716,203.299545 297.651276,210.855835 
z"/>
<path fill="#000000" opacity="1.000000" stroke="none" 
	d="
M330.384796,343.147552 
	C332.164581,349.965057 330.248138,354.947632 325.168304,357.471924 
	C320.686157,359.699188 314.823944,358.391663 311.597961,354.445129 
	C308.286163,350.393616 308.330292,344.838409 311.524902,340.616516 
	C316.123688,334.538879 327.620148,335.373901 330.384796,343.147552 
z"/>
<path fill="#000000" opacity="1.000000" stroke="none" 
	d="
M219.099716,212.417404 
	C213.076584,208.602753 211.152374,203.831802 213.145935,198.400970 
	C214.854553,193.746460 219.655991,190.777771 224.485672,191.389740 
	C231.507874,192.279510 235.611191,197.954300 234.227936,204.863113 
	C232.991028,211.041077 226.787018,214.286621 219.099716,212.417404 
z"/>
<path fill="#000000" opacity="1.000000" stroke="none" 
	d="
M229.974670,375.196228 
	C224.165298,379.825867 215.660553,376.201569 213.501511,371.249573 
	C211.037216,365.597443 213.492462,358.515747 219.061844,356.037384 
	C224.436737,353.645630 231.459610,356.383636 233.583496,361.969635 
	C235.474808,366.943970 234.482651,371.419067 229.974670,375.196228 
z"/>
<path fill="#000000" opacity="1.000000" stroke="none" 
	d="
M204.335480,343.996338 
	C205.777817,350.746002 202.604294,356.598907 196.986145,358.116150 
	C191.215607,359.674561 185.383911,356.616638 183.384186,350.983826 
	C181.506241,345.694031 184.181091,339.695099 189.460312,337.356506 
	C195.099640,334.858551 200.942093,337.330444 204.335480,343.996338 
z"/>
</svg>