<svg version="1.1" id="Layer_1" xmlns="http://www.w3.org/2000/svg" xmlns:xlink="http://www.w3.org/1999/xlink" x="0px" y="0px"
	 width="100%" viewBox="0 0 512 512" enable-background="new 0 0 512 512" xml:space="preserve">
<path fill="#000000" opacity="1.000000" stroke="none" 
	d="
M379.000000,156.114441 
	C394.499176,156.123245 409.499390,156.030655 424.497131,156.181870 
	C432.262512,156.260178 431.774719,156.496796 432.415985,164.016663 
	C433.008759,170.968140 430.352661,174.796371 424.397461,178.192764 
	C407.905090,187.598679 391.796204,197.677246 375.547302,207.508957 
	C374.871918,207.917618 374.312378,208.517746 373.000702,209.610107 
	C379.768799,213.438416 386.034576,217.042450 392.356323,220.545456 
	C404.011810,227.004013 415.983795,232.997787 425.405701,242.756393 
	C434.678436,252.360550 439.467560,263.839050 440.453247,277.202576 
	C441.072266,285.594849 440.982971,293.855042 438.947327,301.975250 
	C434.243408,320.739258 422.529541,333.443237 404.296265,339.543335 
	C382.650085,346.785278 360.903015,346.817902 340.187866,336.470245 
	C321.318268,327.044434 311.943817,310.988586 310.572998,289.979797 
	C310.069061,282.256561 310.359833,274.667267 312.376129,267.246246 
	C318.353394,245.246750 334.118774,234.293793 355.363068,229.712997 
	C358.269989,229.086212 361.216675,228.643753 365.619019,227.850281 
	C358.657867,223.455200 352.788605,219.660919 346.823151,216.024368 
	C344.247131,214.454041 342.561707,212.781906 342.554901,209.372391 
	C342.547668,205.770172 343.727356,203.649963 346.911591,201.833527 
	C361.081635,193.750366 375.100586,185.402283 390.282776,176.499893 
	C387.402588,176.328217 385.700012,176.142517 383.996979,176.138092 
	C364.664703,176.087875 345.332306,176.073044 326.000000,176.031403 
	C319.026733,176.016388 318.699036,175.822266 318.846039,169.168121 
	C319.145996,155.589371 315.980408,156.192581 332.002838,156.122818 
	C347.501617,156.055344 363.000916,156.111984 379.000000,156.114441 
M338.493042,276.409027 
	C339.016113,275.997589 339.504578,275.529938 340.067627,275.183441 
	C345.519806,271.828247 352.134064,273.105835 355.469452,278.138885 
	C358.815643,283.188232 357.662079,289.452393 352.696106,293.198578 
	C347.745148,296.933441 341.281525,295.939392 337.224243,290.815491 
	C336.719879,290.178528 336.233337,289.527466 335.126556,288.085693 
	C335.908997,292.103668 336.552490,295.015839 337.031158,297.954834 
	C337.819794,302.797211 339.559418,306.706451 344.746307,308.496246 
	C347.768127,309.539032 349.273010,312.472595 349.874023,315.474792 
	C350.398529,318.094818 351.874512,319.422241 354.105011,320.520447 
	C364.097778,325.440613 374.725098,325.705658 385.336792,324.162018 
	C395.365417,322.703247 404.176697,318.410736 409.616669,309.250732 
	C415.474274,299.387421 416.560181,288.551575 415.239410,277.406708 
	C414.043793,267.317444 410.588074,258.270874 401.782532,252.263336 
	C390.932892,244.861252 378.676575,244.236023 366.269501,245.922882 
	C358.802490,246.938126 350.886047,247.986740 347.917328,257.038422 
	C347.470032,258.402313 345.766144,259.721863 344.332794,260.332520 
	C337.125122,263.403320 337.327850,270.134125 336.280060,276.209076 
	C336.021088,277.710602 337.022186,277.799866 338.493042,276.409027 
z"/>
<path fill="#000000" opacity="1.000000" stroke="none" 
	d="
M203.547211,215.771484 
	C205.797165,222.692200 204.623764,227.174835 200.051758,230.189423 
	C195.629883,233.104996 190.470612,232.911209 186.658859,229.520996 
	C183.432556,226.651505 181.985077,222.965744 183.006638,218.729614 
	C184.116791,214.126038 187.228592,211.046295 191.865799,210.242264 
	C196.653320,209.412170 200.692139,211.120804 203.547211,215.771484 
z"/>
<path fill="#000000" opacity="1.000000" stroke="none" 
	d="
M328.987366,227.764374 
	C325.272919,231.914719 321.163910,233.273605 316.164612,231.372955 
	C311.757721,229.697525 309.638489,226.262512 309.247040,221.838348 
	C308.842651,217.267670 311.063354,213.844955 314.928558,211.499268 
	C318.969879,209.046677 324.342407,209.678543 327.844788,212.954788 
	C331.918396,216.765381 332.399200,221.814255 328.987366,227.764374 
z"/>
<path fill="#000000" opacity="1.000000" stroke="none" 
	d="
M283.793457,193.702728 
	C289.446472,190.512283 294.825409,190.718796 298.317932,194.239624 
	C301.828125,197.778336 302.552216,202.095428 300.801117,206.651245 
	C299.031860,211.254211 294.167419,213.881729 289.108215,213.241058 
	C284.734558,212.687210 281.707581,210.124619 280.284668,206.119202 
	C278.643341,201.498993 279.724670,197.287292 283.793457,193.702728 
z"/>
<path fill="#000000" opacity="1.000000" stroke="none" 
	d="
M174.074509,293.359802 
	C168.312286,296.289307 163.707184,295.799042 160.027008,292.106293 
	C156.692520,288.760437 155.769089,283.676361 157.771957,279.690704 
	C159.999008,275.258942 164.398956,272.870331 169.223511,273.473877 
	C174.544678,274.139557 177.903107,277.302460 178.871246,282.708374 
	C179.663055,287.129669 177.581985,290.389984 174.074509,293.359802 
z"/>
<path fill="#000000" opacity="1.000000" stroke="none" 
	d="
M164.753067,321.855286 
	C163.012512,314.669495 166.230560,308.777405 172.497787,307.063812 
	C178.051270,305.545319 184.255142,309.398895 185.876144,315.373840 
	C187.409073,321.024170 183.652786,327.019318 177.537399,328.682587 
	C172.661880,330.008636 168.313507,327.789093 164.753067,321.855286 
z"/>
<path fill="#000000" opacity="1.000000" stroke="none" 
	d="
M282.836975,374.155151 
	C278.005219,367.414124 278.865173,360.786438 284.740051,357.028168 
	C290.108612,353.593842 297.226044,355.333649 300.294250,360.830261 
	C302.769562,365.264709 301.817108,371.188660 298.091156,374.533051 
	C293.859406,378.331451 288.590424,378.294983 282.836975,374.155151 
z"/>
<path fill="#000000" opacity="1.000000" stroke="none" 
	d="
M167.099182,243.101868 
	C172.523834,237.431717 180.911880,239.619034 184.004425,244.149094 
	C187.693939,249.553528 186.545303,256.107697 181.075470,259.859772 
	C176.850693,262.757812 170.992035,262.251343 167.331802,258.671600 
	C163.050171,254.484146 162.883469,249.410172 167.099182,243.101868 
z"/>
<path fill="#000000" opacity="1.000000" stroke="none" 
	d="
M252.384995,205.033112 
	C246.620148,201.104172 244.751892,196.704453 246.499130,191.850952 
	C248.247971,186.993011 252.963409,183.593094 257.430176,183.969467 
	C262.792023,184.421249 266.863312,187.915771 268.002808,193.044220 
	C269.858154,201.394440 261.658203,207.927475 252.384995,205.033112 
z"/>
<path fill="#000000" opacity="1.000000" stroke="none" 
	d="
M323.113464,358.221252 
	C315.558960,358.591553 311.393738,356.223816 309.698425,350.874237 
	C308.221985,346.215485 309.879364,341.220093 313.789581,338.543488 
	C319.097168,334.910431 326.324860,336.298431 329.553162,341.570740 
	C333.522522,348.053436 331.285919,354.166779 323.113464,358.221252 
z"/>
<path fill="#000000" opacity="1.000000" stroke="none" 
	d="
M267.533142,369.931610 
	C268.906891,376.918274 265.840149,382.615387 260.240662,384.125336 
	C254.365738,385.709625 248.637634,382.764069 246.541779,377.081055 
	C244.621536,371.874298 247.312134,365.771881 252.578262,363.389832 
	C258.298645,360.802368 263.943176,363.150238 267.533142,369.931610 
z"/>
<path fill="#000000" opacity="1.000000" stroke="none" 
	d="
M213.369003,361.995667 
	C217.152725,356.050476 220.488525,354.396454 225.832199,355.630554 
	C230.707260,356.756378 233.691452,359.756348 234.301285,364.775482 
	C234.935379,369.994202 232.442108,374.413025 227.790390,376.457794 
	C223.779449,378.220917 219.952682,377.533081 216.572372,374.928375 
	C212.323853,371.654572 211.967514,367.183136 213.369003,361.995667 
z"/>
<path fill="#000000" opacity="1.000000" stroke="none" 
	d="
M216.073990,194.119431 
	C221.888199,190.229935 228.311661,190.776550 231.978821,195.191940 
	C235.668594,199.634567 235.160553,206.528717 230.853561,210.461746 
	C226.637115,214.312057 220.259979,214.297287 215.931717,210.427200 
	C211.552246,206.511276 211.496323,200.194382 216.073990,194.119431 
z"/>
<path fill="#000000" opacity="1.000000" stroke="none" 
	d="
M182.810303,348.727417 
	C183.283890,341.725739 186.451401,337.570068 191.592636,336.739380 
	C196.891876,335.883179 201.973129,338.424561 203.967392,342.928680 
	C206.447617,348.530365 204.006439,354.905304 198.387543,357.499908 
	C193.109711,359.937012 186.646957,357.676361 183.997543,352.405090 
	C183.483475,351.382263 183.228241,350.229309 182.810303,348.727417 
z"/>
</svg>