<svg version="1.1" id="Layer_1" xmlns="http://www.w3.org/2000/svg" xmlns:xlink="http://www.w3.org/1999/xlink" x="0px" y="0px"
	 width="100%" viewBox="0 0 512 512" enable-background="new 0 0 512 512" xml:space="preserve">
<path fill="#000000" opacity="1.000000" stroke="none" 
	d="
M310.678772,353.072998 
	C308.295441,345.300446 306.459045,337.971588 306.502289,329.956787 
	C306.801758,274.471588 306.655762,218.983994 306.659729,163.497162 
	C306.660217,156.627472 306.679016,156.627472 313.499939,156.591003 
	C325.969574,156.524323 325.957336,156.527039 328.566101,168.303329 
	C328.840851,169.543396 329.366425,170.727890 330.018341,172.656036 
	C338.321503,162.574615 348.655396,157.375214 360.643860,155.187195 
	C374.192993,152.714340 387.536774,153.487244 400.489075,158.191986 
	C415.347382,163.589035 425.042542,178.086838 425.275940,195.289520 
	C425.501984,211.949310 425.350861,228.614014 425.426086,245.276276 
	C425.438080,247.930313 425.629211,250.601303 425.975861,253.233078 
	C427.776703,266.905670 434.153687,271.627228 447.847046,269.527893 
	C458.290375,267.926849 458.290344,267.926880 458.283600,278.922882 
	C458.279175,286.119751 458.039948,286.489990 451.234283,287.911011 
	C443.144714,289.600159 434.998199,289.664429 426.926971,287.957214 
	C411.470581,284.688019 401.946838,273.087280 401.715363,256.953461 
	C401.488281,241.127045 401.681061,225.294968 401.604767,209.465790 
	C401.578278,203.970139 401.046021,198.498474 399.799133,193.130386 
	C397.418579,182.881973 391.202942,176.472031 380.787384,174.324554 
	C371.993042,172.511353 363.235870,172.648605 354.630951,175.245026 
	C343.475891,178.610916 336.705872,186.310486 333.637115,197.381287 
	C329.608795,211.913956 331.821045,226.731918 331.074310,242.171783 
	C337.732483,238.747177 343.437195,238.418518 347.897400,244.122406 
	C350.977997,248.061951 351.139618,252.426682 348.281738,256.661987 
	C343.997192,263.011505 338.088837,262.433228 331.488373,259.865753 
	C331.488373,276.395844 331.488373,292.426056 331.488373,308.993713 
	C337.786133,305.732178 343.437927,305.722992 347.922363,311.279327 
	C351.111237,315.230438 350.994385,320.040497 348.035919,324.275635 
	C344.771759,328.948395 340.872589,329.697510 331.277374,327.187744 
	C331.277374,333.418152 331.195435,339.493408 331.300781,345.565430 
	C331.402924,351.453644 329.056091,355.817261 324.491180,357.749451 
	C319.777588,359.744568 315.040009,358.234741 310.678772,353.072998 
z"/>
<path fill="#000000" opacity="1.000000" stroke="none" 
	d="
M254.664780,205.877594 
	C245.011917,201.728607 242.949844,192.217819 250.110565,186.528122 
	C254.261536,183.229904 259.598175,183.198410 263.942505,186.446518 
	C267.583466,189.168732 269.077057,194.171066 267.533905,198.474747 
	C265.583801,203.913330 261.440521,206.410583 254.664780,205.877594 
z"/>
<path fill="#000000" opacity="1.000000" stroke="none" 
	d="
M189.985565,231.461441 
	C183.639359,227.814041 181.350418,222.595016 183.455826,217.295776 
	C185.407272,212.384094 190.564911,209.280930 195.306396,210.165695 
	C201.885757,211.393417 206.130188,217.162430 204.827560,223.106842 
	C203.381577,229.705551 197.597092,233.099792 189.985565,231.461441 
z"/>
<path fill="#000000" opacity="1.000000" stroke="none" 
	d="
M264.555237,381.686829 
	C257.925018,385.857544 251.492798,385.038971 247.904846,379.865906 
	C244.439011,374.868927 245.469879,368.590973 250.384415,364.765320 
	C254.680786,361.420868 261.166168,361.837372 264.996246,365.703766 
	C269.331390,370.080109 269.281677,375.479889 264.555237,381.686829 
z"/>
<path fill="#000000" opacity="1.000000" stroke="none" 
	d="
M172.754700,261.393982 
	C166.446304,259.181976 163.210709,254.600555 163.980774,249.457672 
	C164.773010,244.166794 169.310654,239.914062 174.404190,239.688705 
	C179.929947,239.444229 184.225220,242.759247 185.921600,248.093292 
	C187.938629,254.435516 180.903870,263.628845 172.754700,261.393982 
z"/>
<path fill="#000000" opacity="1.000000" stroke="none" 
	d="
M158.954636,290.834961 
	C155.974457,286.094147 155.848419,281.752991 159.193909,277.571198 
	C162.354874,273.620026 166.501236,272.511963 171.251312,273.816559 
	C175.744141,275.050537 178.046494,278.351166 178.894638,282.769470 
	C179.719330,287.065643 177.027405,291.959961 172.653687,294.227295 
	C168.167297,296.553040 163.872833,295.573639 158.954636,290.834961 
z"/>
<path fill="#000000" opacity="1.000000" stroke="none" 
	d="
M357.000916,281.618622 
	C357.478516,288.463196 354.957886,292.960052 349.943176,294.817505 
	C345.776062,296.360931 340.575623,294.956024 337.770935,291.398773 
	C334.980591,287.859650 334.143555,283.947571 336.203583,279.765869 
	C338.194244,275.724945 341.434753,273.228882 346.035767,273.306488 
	C351.381104,273.396667 355.165192,275.983795 357.000916,281.618622 
z"/>
<path fill="#000000" opacity="1.000000" stroke="none" 
	d="
M180.278198,327.580780 
	C173.646301,329.981049 168.603989,328.506317 165.648712,323.606049 
	C162.869171,318.997131 163.579727,313.632782 167.456863,309.955719 
	C172.113693,305.539185 179.341339,305.848877 183.473831,310.642029 
	C188.082123,315.987061 186.953613,322.572388 180.278198,327.580780 
z"/>
<path fill="#000000" opacity="1.000000" stroke="none" 
	d="
M287.620941,377.042053 
	C280.684357,373.557556 278.175262,368.642975 280.044708,362.875580 
	C281.659576,357.893524 286.876709,354.713776 292.177826,355.480713 
	C298.157715,356.345795 301.925995,360.869690 301.691101,366.901489 
	C301.469086,372.602478 296.905853,377.062958 291.002045,377.302032 
	C290.011292,377.342194 289.013275,377.203705 287.620941,377.042053 
z"/>
<path fill="#000000" opacity="1.000000" stroke="none" 
	d="
M301.394379,200.604584 
	C301.514709,207.914749 298.228027,212.361786 292.397858,213.217514 
	C287.094574,213.995911 281.858246,210.898514 280.151855,205.973801 
	C278.346680,200.763977 280.698486,195.044098 285.701324,192.476883 
	C292.268585,189.106873 299.046478,192.459839 301.394379,200.604584 
z"/>
<path fill="#000000" opacity="1.000000" stroke="none" 
	d="
M234.194672,199.540161 
	C234.489517,209.530289 227.699417,215.580246 219.886795,212.765198 
	C214.958618,210.989456 212.394684,207.051376 212.653259,201.600754 
	C212.893921,196.527420 215.663651,193.272949 220.304276,191.709717 
	C224.845627,190.179947 230.204330,192.319778 232.847107,196.444580 
	C233.377106,197.271774 233.702667,198.229950 234.194672,199.540161 
z"/>
<path fill="#000000" opacity="1.000000" stroke="none" 
	d="
M226.846008,355.815796 
	C234.275467,359.649567 236.551453,365.992065 232.951950,371.879150 
	C229.448074,377.609833 222.552628,379.068634 217.003342,375.253235 
	C212.985901,372.491058 211.393967,367.163452 213.160568,362.392731 
	C215.118729,357.104675 219.923904,354.694763 226.846008,355.815796 
z"/>
<path fill="#000000" opacity="1.000000" stroke="none" 
	d="
M200.791870,356.023712 
	C193.902939,359.962585 187.291138,358.562622 184.172104,352.814453 
	C181.111298,347.173584 183.228088,340.532532 189.019333,337.607239 
	C193.406647,335.391052 199.371399,336.716553 202.532837,340.610199 
	C206.329529,345.286224 205.868317,350.172791 200.791870,356.023712 
z"/>
</svg>