<svg version="1.1" id="Layer_1" xmlns="http://www.w3.org/2000/svg" xmlns:xlink="http://www.w3.org/1999/xlink" x="0px" y="0px"
	 width="100%" viewBox="0 0 512 512" enable-background="new 0 0 512 512" xml:space="preserve">
<path fill="#000000" opacity="1.000000" stroke="none" 
	d="
M383.350922,177.312958 
	C361.437805,184.401184 350.594452,199.401474 350.275757,222.198090 
	C350.114410,233.739426 351.575317,244.730225 358.624329,254.394836 
	C365.844360,264.293945 376.007385,268.623077 387.720154,269.610962 
	C399.870728,270.635834 411.555756,268.188843 422.798584,263.547821 
	C424.026611,263.040863 425.289032,262.607147 426.559998,262.219788 
	C426.996979,262.086639 427.508667,262.198608 428.569855,262.198608 
	C429.578430,268.128662 429.380707,274.034119 428.757019,279.911560 
	C428.533539,282.017975 426.284790,282.452850 424.627808,283.127472 
	C411.401093,288.512482 397.607086,289.823700 383.484253,288.818420 
	C374.843536,288.203400 366.400146,286.615387 358.012207,283.376678 
	C356.626129,289.758636 354.083160,294.626312 347.314056,295.274139 
	C342.545013,295.730621 338.779419,293.844513 336.584106,289.525818 
	C333.136780,282.743988 336.236176,277.737091 342.326447,273.173462 
	C329.960693,262.084625 325.773499,247.820557 324.730225,232.225113 
	C321.849457,231.844177 319.374634,232.489120 316.948334,231.655273 
	C311.428009,229.758118 308.190063,224.328308 309.507202,218.698776 
	C310.822937,213.075134 316.147003,209.318817 321.782410,210.142105 
	C323.895721,210.450836 326.028717,211.543274 326.840149,208.188065 
	C330.147766,194.511642 337.896240,183.882309 349.371979,175.218964 
	C341.450714,175.218964 333.522980,175.027084 325.610687,175.293289 
	C321.100128,175.445053 319.485474,173.960205 319.517303,169.306381 
	C319.607544,156.125397 319.426147,156.045593 332.742096,156.138397 
	C354.391449,156.289276 376.041046,155.779572 397.692810,156.486298 
	C407.167603,156.795563 416.671234,156.347137 426.158020,156.099091 
	C430.086731,155.996353 431.674500,157.184937 431.557983,161.546707 
	C431.192566,175.225113 431.384735,175.103409 417.538910,175.267120 
	C406.254425,175.400543 394.871460,174.164307 383.350922,177.312958 
z"/>
<path fill="#000000" opacity="1.000000" stroke="none" 
	d="
M342.876953,328.276367 
	C335.574219,329.982452 330.033325,326.891998 328.249542,320.450989 
	C326.756531,315.059967 330.277710,309.002472 335.953003,307.198639 
	C341.569824,305.413391 347.829346,308.813904 349.739044,314.688019 
	C351.404694,319.811554 349.069153,324.657318 342.876953,328.276367 
z"/>
<path fill="#000000" opacity="1.000000" stroke="none" 
	d="
M267.660889,198.177948 
	C264.650116,204.335785 260.371552,207.010742 255.456528,206.089050 
	C250.082809,205.081329 246.073547,200.641678 245.830368,195.429535 
	C245.617538,190.867691 249.085510,186.142426 253.843765,184.511032 
	C261.848663,181.766464 269.035919,188.606216 267.660889,198.177948 
z"/>
<path fill="#000000" opacity="1.000000" stroke="none" 
	d="
M190.851440,210.483505 
	C198.596191,209.419785 203.449783,212.686859 204.806412,219.495575 
	C205.820374,224.584549 202.331909,229.973846 196.871933,231.753494 
	C191.577591,233.479126 185.655472,230.493500 183.524551,225.024429 
	C181.230362,219.136246 183.725464,213.963760 190.851440,210.483505 
z"/>
<path fill="#000000" opacity="1.000000" stroke="none" 
	d="
M184.968994,255.558563 
	C180.790604,261.230560 176.892715,262.846191 171.564728,261.179077 
	C166.919830,259.725739 164.393997,256.227295 163.997482,251.603485 
	C163.575317,246.680817 166.002686,242.923706 170.446716,240.736130 
	C174.791260,238.597504 179.037384,239.330933 182.475266,242.517166 
	C186.199570,245.968872 187.418823,250.311584 184.968994,255.558563 
z"/>
<path fill="#000000" opacity="1.000000" stroke="none" 
	d="
M249.564728,365.439575 
	C256.235809,360.926605 263.383118,362.106293 266.709412,367.953094 
	C269.879120,373.524658 267.836426,380.380005 262.126617,383.332977 
	C257.575317,385.686768 251.728165,384.530853 248.473480,380.633820 
	C244.708923,376.126282 244.963745,371.385193 249.564728,365.439575 
z"/>
<path fill="#000000" opacity="1.000000" stroke="none" 
	d="
M167.176819,273.293518 
	C173.089798,273.567139 176.991699,275.893799 178.598862,281.564209 
	C179.918976,286.221893 178.167740,289.811920 174.907684,292.700073 
	C171.154129,296.025452 166.760773,296.316986 162.400253,293.843018 
	C158.238693,291.481964 156.382950,287.703461 156.800293,282.974274 
	C157.221771,278.198151 160.949554,274.722229 167.176819,273.293518 
z"/>
<path fill="#000000" opacity="1.000000" stroke="none" 
	d="
M163.874084,318.002075 
	C164.656586,311.864410 167.763916,307.919647 173.479324,306.952271 
	C178.053009,306.178162 182.018677,308.063507 184.526169,312.158203 
	C187.905273,317.676239 186.004196,324.414124 180.317001,327.561951 
	C174.710953,330.664886 167.954208,328.533752 165.152771,322.677490 
	C164.519211,321.353088 164.291855,319.834412 163.874084,318.002075 
z"/>
<path fill="#000000" opacity="1.000000" stroke="none" 
	d="
M283.786621,357.695618 
	C289.466431,354.495575 294.795135,354.698639 298.321899,358.239990 
	C301.845337,361.777985 302.582275,366.100433 300.815765,370.666809 
	C299.027557,375.289154 294.202026,377.891266 289.102661,377.260834 
	C284.713562,376.718231 281.671478,374.149017 280.264404,370.133301 
	C278.647797,365.519562 279.680237,361.276062 283.786621,357.695618 
z"/>
<path fill="#000000" opacity="1.000000" stroke="none" 
	d="
M279.787811,204.566223 
	C279.677979,196.726639 283.233063,192.017319 289.372711,191.378265 
	C294.730530,190.820572 299.660370,193.857315 301.105591,198.605576 
	C302.790710,204.142075 300.619659,209.500137 295.619385,212.145416 
	C290.886353,214.649323 285.147888,213.370575 281.856995,208.938538 
	C280.987488,207.767471 280.504211,206.309631 279.787811,204.566223 
z"/>
<path fill="#000000" opacity="1.000000" stroke="none" 
	d="
M329.638306,353.299377 
	C326.257812,358.238678 321.759247,359.476868 316.710297,357.938110 
	C311.958984,356.490051 309.297729,352.779449 309.140167,347.841125 
	C308.990417,343.147827 311.153076,339.400970 315.639404,337.566895 
	C320.129456,335.731293 324.486755,336.143738 328.122711,339.658356 
	C331.680237,343.097168 332.199646,347.620392 329.638306,353.299377 
z"/>
<path fill="#000000" opacity="1.000000" stroke="none" 
	d="
M212.857132,205.429276 
	C210.851822,195.734528 219.153809,189.763382 225.741714,191.557404 
	C230.726562,192.914856 234.007187,196.276733 234.337509,201.155777 
	C234.702255,206.542816 231.803589,211.160309 227.001801,212.841324 
	C222.718109,214.340973 217.382324,212.682678 214.584793,208.890060 
	C213.906311,207.970215 213.485184,206.860535 212.857132,205.429276 
z"/>
<path fill="#000000" opacity="1.000000" stroke="none" 
	d="
M214.662567,373.085968 
	C208.980835,363.682434 216.206451,354.684631 223.651428,355.245422 
	C228.507874,355.611237 232.196716,357.850861 233.902908,362.617432 
	C235.514114,367.118622 233.938919,372.229919 230.109024,375.077667 
	C226.076920,378.075745 221.848801,378.183411 217.582672,375.586517 
	C216.607193,374.992737 215.786240,374.145142 214.662567,373.085968 
z"/>
<path fill="#000000" opacity="1.000000" stroke="none" 
	d="
M204.347198,350.970184 
	C200.303528,360.852417 188.873886,359.816742 184.842468,353.922180 
	C181.845154,349.539581 182.091965,344.104187 185.601685,340.144714 
	C188.781830,336.557037 194.391891,335.518921 198.796448,337.703064 
	C203.668167,340.118866 205.658569,344.655182 204.347198,350.970184 
z"/>
</svg>