<svg enable-background="new 0 0 508 510" viewBox="0 0 508 510" xmlns="http://www.w3.org/2000/svg"><path d="m255 511c-84.999985 0-169.499962 0-253.999955 0-.000015-169.999939-.000015-339.999878-.00003-509.999863 169.333222-.000046 338.666458-.000046 507.999741-.000091.000091 169.999817.000091 339.999679.000183 509.99974-84.499939.000214-168.999939.000214-253.999939.000214m57.857483-342.493622c-10.071625-23.619903-20.110199-47.254082-30.29364-70.825676-.638794-1.478615-2.584961-3.579101-3.613037-3.417602-1.449677.227729-3.095276 2.075462-3.806427 3.621803-2.553711 5.552933-4.710633 11.28688-7.087677 16.922821-10.931366 25.918076-21.924576 51.810135-32.821427 77.742691-9.292709 22.11496-18.4879 44.270905-27.719879 66.411377-8.211792 19.693848-16.367981 39.411072-24.634186 59.082031-9.230743 21.966217-18.583084 43.881256-27.832336 65.839722-4.597519 10.914947-9.082749 21.877197-13.744705 33.121765 11.118957 0 21.78244-.184051 32.43341.100128 3.712784.09903 5.059723-1.33023 6.36203-4.57669 9.294785-23.170289 18.976563-46.185364 28.263153-69.358857 8.477005-21.153259 16.718689-42.402923 24.833497-63.697967 2.4841-6.518799 4.206298-13.327912 6.695343-21.351288 1.195358 2.545776 2.022918 3.741913 2.336593 5.060333 5.672577 23.842255 16.293961 45.840912 25.51326 68.355683.475281 1.160705 2.281708 2.499786 3.49173 2.522735 10.479034.198548 20.963379.11438 31.865356.11438-3.990936-9.51654-7.825866-18.647766-11.650451-27.783295-11.195771-26.742401-22.427979-53.469833-33.485352-80.269394-.704712-1.708007-.556793-4.160232.067932-5.963714 6.326965-18.265701 12.827057-36.471527 19.318695-54.679855.338196-.948517 1.039032-1.767746 1.674408-2.818085.543762.600952.852204.79805.950409 1.070862 8.47406 23.540802 16.903168 47.097931 25.462097 70.607788.514313 1.412674 2.031861 3.479339 3.123535 3.505081 11.051728.260391 22.111939.158844 33.739808.158844-9.880127-23.384262-19.479065-46.102936-29.442139-69.495621z" fill="#fff"/><path d="m313.039551 168.843384c9.781006 23.055679 19.379944 45.774353 29.260071 69.158615-11.627869 0-22.68808.101547-33.739808-.158844-1.091674-.025742-2.609222-2.092407-3.123535-3.505081-8.558929-23.509857-16.988037-47.066986-25.462097-70.607788-.098205-.272812-.406647-.46991-.950409-1.070862-.635376 1.050339-1.336212 1.869568-1.674408 2.818085-6.491638 18.208328-12.99173 36.414154-19.318695 54.679855-.624725 1.803482-.772644 4.255707-.067932 5.963714 11.057373 26.799561 22.289581 53.526993 33.485352 80.269394 3.824585 9.135529 7.659515 18.266755 11.650451 27.783295-10.901977 0-21.386322.084168-31.865356-.11438-1.210022-.022949-3.016449-1.36203-3.49173-2.522735-9.219299-22.514771-19.840683-44.513428-25.51326-68.355683-.313675-1.31842-1.141235-2.514557-2.336593-5.060333-2.489045 8.023376-4.211243 14.832489-6.695343 21.351288-8.114808 21.295044-16.356492 42.544708-24.833497 63.697967-9.28659 23.173493-18.968368 46.188568-28.263153 69.358857-1.302307 3.24646-2.649246 4.67572-6.36203 4.57669-10.65097-.284179-21.314453-.100128-32.43341-.100128 4.661956-11.244568 9.147186-22.206818 13.744705-33.121765 9.249252-21.958466 18.601593-43.873505 27.832336-65.839722 8.266205-19.670959 16.422394-39.388183 24.634186-59.082031 9.231979-22.140472 18.42717-44.296417 27.719879-66.411377 10.896851-25.932556 21.890061-51.824615 32.821427-77.742691 2.377044-5.635941 4.533966-11.369888 7.087677-16.922821.711151-1.546341 2.35675-3.394074 3.806427-3.621803 1.028076-.161499 2.974243 1.938987 3.613037 3.417602 10.183441 23.571594 20.222015 47.205773 30.475708 71.162682z" fill="#030303"/></svg>