<svg enable-background="new 0 0 496 496" viewBox="0 0 496 496" xmlns="http://www.w3.org/2000/svg"><path d="m217.485931 243.551651c20.211106-48.058243 40.280487-95.760635 60.353669-143.461418.452087-1.074341 1.004821-2.10923 1.408874-3.200218.693695-1.872963 1.747009-3.135529 3.965546-3.150216 2.298614-.015205 3.184143 1.550492 3.926636 3.263047 3.57434 8.244423 7.152313 16.487709 10.653381 24.763405 15.631103 36.948272 31.241791 73.905151 46.844787 110.86531 2.197968 5.206528 1.894501 5.692185-3.654205 5.723648-8.332245.047242-16.670349-.166671-24.995087.087387-3.927429.119858-6.093994-1.156784-7.411468-4.943054-7.601013-21.843841-16.713715-43.140365-23.667328-65.221252-.34729-1.102768-.456604-2.310288-1.933929-3.332306-3.055451 5.38652-4.088227 11.449936-5.993836 17.116745-8.600891 25.576538-19.507385 50.236572-29.556366 75.23259-20.292663 50.476532-40.868683 100.839141-61.295181 151.261932-3.558044 8.78302-3.484024 8.8125-12.871796 8.812225-7.499267-.000213-14.998626.023865-22.497772-.005829-5.734909-.022705-6.229767-.828552-4.03746-6.016357 7.708771-18.241882 15.389511-36.495544 23.085312-54.74292 15.843475-37.566193 31.689804-75.131164 47.676223-113.052719z"/></svg>