<svg enable-background="new 0 0 508 510" viewBox="0 0 508 510" xmlns="http://www.w3.org/2000/svg"><path d="m351 511c-116.999969 0-233.499947 0-349.999938 0-.00002-169.999939-.00002-339.999863-.000041-509.999846 169.3332-.000051 338.666422-.000051 507.999735-.000103.000061 169.999796.000061 339.999644.000152 509.999705-52.499908.000244-104.999908.000244-157.999908.000244m-65.765656-139.720306c7.241089 16.74234 14.433899 33.506012 21.797333 50.194366.743836 1.685822 2.517853 2.917114 3.813813 4.359314 1.324859-1.429352 3.188446-2.632416 3.897521-4.320435 41.006165-97.616577 81.917878-195.272857 122.834107-292.92723 3.564087-8.506333 7.096588-17.025902 10.873321-26.090241-11.20578 0-21.665863.185379-32.112976-.100983-3.635833-.099655-5.141571 1.192513-6.431823 4.431618-13.316071 33.428536-27.0831 66.679756-40.163697 100.199227-19.216827 49.243743-41.569854 97.278442-57.211731 147.905883-.157257.509064-.763183.879517-1.653472 1.85669-.948914-2.838959-1.625702-5.141571-2.479584-7.376465-10.9758-28.727844-22.031952-57.425293-32.860626-86.208405-.811982-2.158386-.776673-5.21051.096679-7.342498 15.296601-37.341339 30.792511-74.600983 46.229065-111.885056 5.637421-13.616196 11.233124-27.249664 17.004486-41.255234-11.803863 0-23.069885 0-34.708343 0-15.956604 37.97168-32.007416 76.167557-48.395066 115.164978-.92987-2.17752-1.49205-3.480545-2.043762-4.787994-16.193435-38.37384-32.421036-76.733398-48.510544-115.15078-1.267715-3.026954-2.500274-4.960586-6.412674-3.513282-45.034179 106.99617-90.181709 214.261627-135.55833 322.07138 11.338444 0 21.660808-.214661 31.966144.110535 3.873719.122223 5.402382-1.322815 6.770798-4.706024 19.601593-48.460999 39.603401-96.761567 58.968987-145.316071 13.426071-33.662613 26.020752-67.656784 39.006607-101.495239.298431-.77768.832046-1.465088 1.735809-3.020401 2.06044 6.388565 3.594025 11.953125 5.632431 17.326141 9.730942 25.64978 19.670227 51.22081 29.296799 76.909287.867874 2.315857.81961 5.597747-.128937 7.879974-20.525345 49.384155-41.241104 98.689178-61.908111 148.014496-.542038 1.29364-.950562 2.643219-1.505784 4.204071h34.453354c15.964905-37.712311 31.9012-75.357025 48.206604-113.873627 9.994522 23.222473 19.633225 45.618225 29.501602 68.742005z" fill="#fff"/><path d="m285.119507 370.915649c-9.75354-22.759735-19.392243-45.155487-29.386765-68.37796-16.305404 38.516602-32.241699 76.161316-48.206604 113.873627-11.323578 0-22.63121 0-34.453354 0 .555222-1.560852.963746-2.910431 1.505784-4.204071 20.667007-49.325318 41.382766-98.630341 61.908111-148.014496.948547-2.282227.996811-5.564117.128937-7.879974-9.626572-25.688477-19.565857-51.259507-29.296799-76.909287-2.038406-5.373016-3.571991-10.937576-5.632431-17.326141-.903763 1.555313-1.437378 2.242721-1.735809 3.020401-12.985855 33.838455-25.580536 67.832626-39.006607 101.495239-19.365586 48.554504-39.367394 96.855072-58.968987 145.316071-1.368416 3.383209-2.897079 4.828247-6.770798 4.706024-10.305336-.325196-20.6277-.110535-31.966144-.110535 45.376621-107.809753 90.524151-215.07521 135.55833-322.07138 3.9124-1.447304 5.144959.486328 6.412674 3.513282 16.089508 38.417382 32.317109 76.77694 48.510544 115.15078.551712 1.307449 1.113892 2.610474 2.043762 4.787994 16.38765-38.997421 32.438462-77.193298 48.395066-115.164978h34.708343c-5.771362 14.00557-11.367065 27.639038-17.004486 41.255234-15.436554 37.284073-30.932464 74.543717-46.229065 111.885056-.873352 2.131988-.908661 5.184112-.096679 7.342498 10.828674 28.783112 21.884826 57.480561 32.860626 86.208405.853882 2.234894 1.53067 4.537506 2.479584 7.376465.890289-.977173 1.496215-1.347626 1.653472-1.85669 15.641877-50.627441 37.994904-98.66214 57.211731-147.905883 13.080597-33.519471 26.847626-66.770691 40.163697-100.199227 1.290252-3.239105 2.79599-4.531273 6.431823-4.431618 10.447113.286362 20.907196.100983 32.112976.100983-3.776733 9.064339-7.309234 17.583908-10.873321 26.090241-40.916229 97.654373-81.827942 195.310653-122.834107 292.92723-.709075 1.688019-2.572662 2.891083-3.897521 4.320435-1.29596-1.4422-3.069977-2.673492-3.813813-4.359314-7.363434-16.688354-14.556244-33.452026-21.91217-50.558411z" fill="#020202"/></svg>