<svg enable-background="new 0 0 508 510" viewBox="0 0 508 510" xmlns="http://www.w3.org/2000/svg"><path d="m224 511c-74.666656 0-148.833298 0-222.99996 0-.000014-169.999939-.000014-339.999878-.000027-509.999869 169.333224-.000044 338.66646-.000044 507.999743-.000087.000091 169.999819.000091 339.999681.000183 509.999742-94.833283.000214-189.666595.000214-284.999939.000214m93.249481-331.877945c-6.117431-14.182846-12.289398-28.342483-18.336212-42.555344-5.591461-13.142494-11.001556-26.362327-16.641602-39.483589-.537536-1.25058-2.161254-2.851944-3.248229-2.827797-1.180512.026223-2.431519 1.665154-3.44275 2.788987-.639251.710441-.932495 1.749763-1.318969 2.667678-42.660782 101.328019-85.319275 202.656998-127.958359 303.994156-1.757202 4.176209-3.329285 8.430329-5.243225 13.298218 11.354187 0 21.672089-.230499 31.97052.116486 3.970123.133758 5.501633-1.622101 6.81076-4.8237 10.305726-25.203431 20.959946-50.267487 30.999299-75.575775 9.052337-22.820191 17.476028-45.889985 26.138595-68.864167 1.002594-2.659027 1.759934-5.410492 2.778641-8.578277 6.73201 15.81015 12.539734 30.953369 19.559372 45.512268 7.015716 14.550689 15.243927 28.516754 23.35556 43.50589 1.472992-2.342102 2.508911-3.806244 3.360809-5.370636 18.277161-33.563935 36.59076-67.108551 54.655274-100.786728 1.106476-2.062882 1.04068-5.542298.115692-7.782715-7.541351-18.265564-15.417236-36.393021-23.555176-55.234955z" fill="#fff"/><path d="m317.431396 179.458282c7.956025 18.505707 15.83191 36.633164 23.373261 54.898728.924988 2.240417.990784 5.719833-.115692 7.782715-18.064514 33.678177-36.378113 67.222793-54.655274 100.786728-.851898 1.564392-1.887817 3.028534-3.360809 5.370636-8.111633-14.989136-16.339844-28.955201-23.35556-43.50589-7.019638-14.558899-12.827362-29.702118-19.559372-45.512268-1.018707 3.167785-1.776047 5.91925-2.778641 8.578277-8.662567 22.974182-17.086258 46.043976-26.138595 68.864167-10.039353 25.308288-20.693573 50.372344-30.999299 75.575775-1.309127 3.201599-2.840637 4.957458-6.81076 4.8237-10.298431-.346985-20.616333-.116486-31.97052-.116486 1.91394-4.867889 3.486023-9.122009 5.243225-13.298218 42.639084-101.337158 85.297577-202.666137 127.958359-303.994156.386474-.917915.679718-1.957237 1.318969-2.667678 1.011231-1.123833 2.262238-2.762764 3.44275-2.788987 1.086975-.024147 2.710693 1.577217 3.248229 2.827797 5.640046 13.121262 11.050141 26.341095 16.641602 39.483589 6.046814 14.212861 12.218781 28.372498 18.518127 42.891571m-32.450958 102.946534c6.348847-12.603455 12.449311-25.341675 19.175598-37.740387 2.497254-4.603257 2.186554-8.319916.442353-12.963089-8.110443-21.590729-15.851593-43.320084-23.767426-64.984284-.412598-1.129242-1.216247-2.115585-2.148346-3.694381-.744201 1.630249-1.218353 2.498992-1.549377 3.41922-6.347138 17.643219-12.812226 35.246521-18.866089 52.990051-.908722 2.663452-.623078 6.270874.391632 8.957626 3.63562 9.626511 7.805481 19.051972 11.804871 28.540177 3.94458 9.358154 7.927398 18.700164 12.0625 28.447784 1.005554-1.111725 1.554199-1.718323 2.454284-2.972717z" fill="#020202"/><path d="m284.804749 282.728729c-.724396.930481-1.273041 1.537079-2.278595 2.648804-4.135102-9.74762-8.11792-19.08963-12.0625-28.447784-3.99939-9.488205-8.169251-18.913666-11.804871-28.540177-1.01471-2.686752-1.300354-6.294174-.391632-8.957626 6.053863-17.74353 12.518951-35.346832 18.866089-52.990051.331024-.920228.805176-1.788971 1.549377-3.41922.932099 1.578796 1.735748 2.565139 2.148346 3.694381 7.915833 21.6642 15.656983 43.393555 23.767426 64.984284 1.744201 4.643173 2.054901 8.359832-.442353 12.963089-6.726287 12.398712-12.826751 25.136932-19.351287 38.0643z" fill="#fcfcfc"/></svg>