<svg enable-background="new 0 0 496 496" viewBox="0 0 496 496" xmlns="http://www.w3.org/2000/svg"><path d="m221.489136 224.519531c17.649368-42.243805 35.169037-84.129318 52.74591-125.990799.921296-2.194168 1.549927-4.856353 4.925751-4.841644 3.25116.014168 3.472901 2.602104 4.346039 4.653091 19.218048 45.143479 38.423431 90.292328 57.629791 135.440781.514984 1.210648 1.285401 2.388733.114014 4.598999-6.810333 0-14.081848-.000107-21.353394.000031-13.143799.000259-13.428833.105819-18.02182-12.303482-7.33081-19.806321-15.631073-39.268738-21.501007-59.603898-.220489-.763885-.67926-1.458999-1.510528-3.197189-1.432282 4.430771-2.587006 7.96994-3.720795 11.515839-5.575531 17.437423-12.382385 34.416824-19.193146 51.391845-.778488 1.940293-1.38974 3.73436-.546432 5.735993 6.181595 14.672409 12.37236 29.340942 18.911544 44.843597 6.106232-8.587219 8.497986-18.300262 14.604981-27.475738 18.077423 32.739044 35.746216 64.738037 53.685852 97.227508-5.667786 1.459198-10.46524.666474-15.195007.809632-4.328186.131042-8.725739-.437928-12.980835.134002-6.030182.810517-9.094635-1.963684-11.47229-7.028869-4.008393-8.539398-8.432373-16.883698-13.138153-26.215515-6.04358 10.208679-9.321503 20.742126-15.593384 30.831573-12.530945-26.294983-26.944123-50.81015-36.102585-78.029114-2.297302 1.441132-2.307755 3.62201-2.799057 5.402649-7.322784 26.53949-18.726624 51.542786-28.949249 76.984711-8.491852 21.134308-17.356919 42.118927-25.808564 63.268982-1.425277 3.566681-3.278579 4.817444-6.992279 4.75177-10.628051-.187988-21.261566-.066132-32.510559-.066132 2.222336-7.880676 5.56041-14.536224 8.40329-21.354034 17.153397-41.137329 34.402664-82.234772 51.65773-123.329651 6.697922-15.951904 13.494644-31.862335 20.364182-48.154938z"/></svg>