<svg enable-background="new 0 0 508 510" viewBox="0 0 508 510" xmlns="http://www.w3.org/2000/svg"><path d="m232 511c-77.333313 0-154.166634 0-230.999959 0-.000014-169.999939-.000014-339.999878-.000027-509.999867 169.333223-.000045 338.666459-.000045 507.999742-.000089.000091 169.999819.000091 339.999681.000183 509.999742-92.166595.000214-184.333283.000214-276.999939.000214m129.571167-111.957214c.567841 5.908783 1.135681 11.817535 1.706024 17.752746h35.223389c-11.924469-107.733764-23.820862-215.213699-35.675934-322.320358-4.751953-1.609528-6.717163.473816-8.587921 4.054169-27.713562 53.038986-55.645722 105.963775-83.349945 159.007644-14.626038 28.003784-30.63089 55.364594-40.856171 85.479767-.177963.524109-.622986.95755-1.192398 1.80304-7.589355-84.307953-21.774277-167.215882-31.519867-250.326691-4.02504-1.368645-5.251541.396027-6.456985 3.201942-39.896256 92.865822-79.875588 185.695977-119.837128 278.533745-5.764404 13.391754-11.500763 26.795594-17.410473 40.567536h36.854633c.517785-1.099945 1.049164-2.118683 1.487572-3.175934 21.052918-50.768952 42.205841-101.496857 63.093491-152.333771 9.092071-22.128509 19.94786-43.648605 24.394302-67.47316.106857-.572509.823074-1.03128 1.408493-1.724838 5.217133 78.540894 18.024155 155.7565 25.821243 233.130676 4.453034 1.774811 5.612809-.835907 6.99379-3.373657 34.017853-62.512909 68.1082-124.986389 102.074997-187.527008 9.200073-16.939438 19.435822-33.396744 25.274323-51.982788.149139-.474808.684509-.828308.423919-.527527 6.642914 71.879639 13.317627 144.103943 20.130646 217.234467z" fill="#fff"/><path d="m361.502014 398.589661c-6.743866-72.677399-13.418579-144.901703-20.061493-216.781342.26059-.300781-.27478.052719-.423919.527527-5.838501 18.586044-16.07425 35.04335-25.274323 51.982788-33.966797 62.540619-68.057144 125.014099-102.074997 187.527008-1.380981 2.53775-2.540756 5.148468-6.99379 3.373657-7.797088-77.374176-20.60411-154.589782-25.821243-233.130676-.585419.693558-1.301636 1.152329-1.408493 1.724838-4.446442 23.824555-15.302231 45.344651-24.394302 67.47316-20.88765 50.836914-42.040573 101.564819-63.093491 152.333771-.438408 1.057251-.969787 2.075989-1.487572 3.175934-12.117004 0-24.207298 0-36.854633 0 5.90971-13.771942 11.646069-27.175782 17.410473-40.567536 39.96154-92.837768 79.940872-185.667923 119.837128-278.533745 1.205444-2.805915 2.431945-4.570587 6.456985-3.201942 9.74559 83.110809 23.930512 166.018738 31.519867 250.326691.569412-.84549 1.014435-1.278931 1.192398-1.80304 10.225281-30.115173 26.230133-57.475983 40.856171-85.479767 27.704223-53.043869 55.636383-105.968658 83.349945-159.007644 1.870758-3.580353 3.835968-5.663697 8.587921-4.054169 11.855072 107.106659 23.751465 214.586594 35.675934 322.320358-11.887665 0-23.333649 0-35.223389 0-.570343-5.935211-1.138183-11.843963-1.775177-18.205871z" fill="#020202"/></svg>