<svg enable-background="new 0 0 496 496" viewBox="0 0 496 496" xmlns="http://www.w3.org/2000/svg"><path d="m166.351379 286.477173c-2.166488-4.722199-.290954-5.927094 3.965332-5.841461 8.32602.167541 16.662384.212219 24.985154-.022492 3.837875-.108246 5.719101 1.511048 6.983444 4.926178 8.138397 21.982514 17.786362 43.411377 24.158233 66.04129.231995.823853.608429 1.55011 1.99437 1.710236 2.567581-3.164734 2.922852-7.374268 4.131088-11.185089 10.071076-31.764221 24.151886-61.944092 36.625977-92.754028 19.222961-47.478958 38.790008-94.818528 58.083099-142.269287 1.46698-3.608002 3.382691-5.3294 7.343872-5.257302 8.826111.160652 17.657837-.021972 26.486328.05011 5.24057.042793 6.009522 1.171745 3.985352 5.980347-16.518219 39.240303-33.10022 78.453743-49.629669 117.689308-27.187104 64.533203-54.327576 129.086059-81.595124 193.585236-1.188354 2.810943-1.425231 7.235198-5.918457 7.030578-4.026107-.183319-4.288909-4.248596-5.454208-6.994995-18.708389-44.092468-37.328155-88.222595-56.144791-132.688629z"/></svg>