<svg enable-background="new 0 0 508 510" viewBox="0 0 508 510" xmlns="http://www.w3.org/2000/svg"><path d="m230 511c-76.666641 0-152.833298 0-228.999959 0-.000014-169.999939-.000014-339.999878-.000027-509.999868 169.333223-.000044 338.666459-.000044 507.999742-.000088.000091 169.999819.000091 339.999681.000183 509.999742-92.833283.000214-185.666595.000214-278.999939.000214m53.567139-359.03772c-36.900605 88.215134-73.801194 176.430268-110.867691 265.042023 10.395355 0 20.060577-.172089 29.714004.09024 3.53952.096161 5.145065-1.022216 6.52211-4.324554 42.467865-101.843384 85.057724-203.635864 127.620957-305.439461.656005-1.569008 1.214904-3.178596 1.860809-4.878959-11.737244 0-22.87735 0-34.17807 0-6.801605 16.302414-13.582703 32.555725-20.672119 49.510711z" fill="#fff"/><path d="m283.721313 151.61145c6.935242-16.604156 13.71634-32.857467 20.517945-49.159881h34.17807c-.645905 1.700363-1.204804 3.309951-1.860809 4.878959-42.563233 101.803597-85.153092 203.596077-127.620957 305.439461-1.377045 3.302338-2.98259 4.420715-6.52211 4.324554-9.653427-.262329-19.318649-.09024-29.714004-.09024 37.066497-88.611755 73.967086-176.826889 111.021865-265.392853z" fill="#020202"/></svg>