<svg enable-background="new 0 0 496 496" viewBox="0 0 496 496" xmlns="http://www.w3.org/2000/svg"><path d="m293.612244 225.524292c-2.685273 6.326111-5.109619 12.349152-7.78891 18.256531-1.547119 3.411056-1.629151 6.591552-.213196 10.069671 7.580566 18.620758 14.727447 37.401947 20.375458 56.719574.367096 1.255585.694793 2.566529 1.861084 3.48816 2.039215-.550049 2.211548-2.40384 2.643432-3.884308 6.493286-22.257416 15.868653-43.444702 24.043732-65.077469 1.036468-2.742706 2.832458-4.063736 5.599243-4.082001 8.831604-.058319 17.666351-.16394 26.494629.012482 4.495758.089859 5.250031 1.543365 3.502075 5.679001-18.919342 44.762939-37.851532 89.520385-56.776947 134.280731-.974121 2.303833-1.733001 5.035644-4.851379 4.954315-2.839325-.074097-3.516846-2.651947-4.429566-4.806244-9.610687-22.683807-19.398254-45.294861-28.753234-68.083496-2.830231-6.894409-4.495667-14.269562-6.643464-21.43988-.657775-2.196076-1.045105-4.483124-2.992523-7.420777-1.868561 6.68161-3.412567 12.517578-5.134491 18.300598-5.04805 16.953492-12.816864 32.834961-19.583435 49.104218-9.712433 23.352142-19.764419 46.56311-29.669571 69.835144-.971801 2.283264-1.61206 5.005157-4.833999 4.939636-3.221634-.06549-3.7417-2.883941-4.686737-5.137848-18.600785-44.362335-37.176987-88.735046-55.787735-133.0932-2.938553-7.003937-2.697113-7.44397 5.00122-7.453705 7.832611-.009888 15.670502.168457 23.495575-.074494 3.677841-.114196 5.482346 1.525269 6.638047 4.688752 8.095809 22.160888 17.834808 43.719452 24.359787 66.458313.163528.569854.709197 1.030059 1.238632 1.766845 2.828338-1.938202 2.656341-5.092651 3.387741-7.547363 7.382919-24.778778 18.121673-48.279999 27.297943-72.372528 2.783539-7.308258 5.708664-14.562988 8.611618-21.825195 1.059616-2.650772.775543-5.136261-.309998-7.731018-18.887466-45.145951-37.733352-90.309296-56.598251-135.464714-2.327087-5.57016-1.624618-6.663315 4.559998-6.691384 7.832473-.035553 15.681747.297341 23.492065-.120964 5.271576-.282333 7.863495 1.962494 9.657883 6.588234 8.053283 20.760284 16.220184 41.477371 24.490097 62.152451 5.001724 12.504501 9.842422 25.034942 12.259598 38.362838.251373 1.386017.753814 2.885163 2.406372 3.88826 2.938354-9.572265 5.267974-19.257629 8.855865-28.451965 10.287201-26.362076 21.108795-52.51535 31.648041-78.779709 1.235809-3.079704 3.564117-3.641319 6.391357-3.64418 8.499207-.008606 16.998413-.036438 25.49762-.041718 7.018005-.004356 7.490723.7081 4.791382 7.057976-14.260071 33.545235-28.517853 67.091454-42.773926 100.63839-2.212921 5.207382-4.413055 10.420181-6.773132 15.98204z"/></svg>