<svg enable-background="new 0 0 496 496" viewBox="0 0 496 496" xmlns="http://www.w3.org/2000/svg"><path d="m229.180573 397.759827c-10.008103-16.375428-18.103623-33.215577-23.064789-52.765351-3.674973 10.281891-6.699478 19.373078-10.164994 28.292878-5.2444 13.498413-10.788147 26.880615-16.226532 40.303375-.682037 1.68338-1.267242 3.655517-3.569381 3.664245-11.608597.043976-23.217453.020203-35.870285.020203 2.281112-5.627838 4.131149-10.363739 6.108856-15.045746 30.903335-73.159912 61.81842-146.314819 92.741562-219.466354 11.992065-28.368302 24.012329-56.724694 36.014557-85.088707.846557-2.000618 1.456482-4.061691 4.359985-3.999344 2.963593.063644 3.337128 2.385536 4.145844 4.283249 17.558013 41.200752 35.088592 82.413231 52.613403 123.628105 2.194366 5.16066 4.326935 10.347595 6.596283 15.781433-3.564545 1.655167-6.738159.913162-9.783539.970474-6.329254.119095-12.674591-.204803-18.98941.119599-4.028138.206894-5.940613-1.455475-7.450165-4.989853-8.956391-20.969788-18.673584-41.639221-24.289856-63.882187-.306061-1.212311-.38501-2.682053-1.689697-3.567307-1.821869.019272-1.822602 1.684052-2.234925 2.771485-5.370209 14.162475-10.6268 28.368179-16.034149 42.516311-1.028534 2.691102-.856811 4.991776.263733 7.631836 12.749359 30.038178 25.325684 60.149964 38.137482 90.161286 1.845672 4.323456 1.871978 7.715027-.508118 12.025848-17.78952 32.220642-35.258514 64.618225-52.842087 96.952698-.782089 1.438202-1.701065 2.801971-3.01979 4.958282-6.054902-8.174774-10.067215-16.878692-15.243988-25.276458m23.246353-50.768372c4.356826-9.161468 8.592941-18.383453 13.139206-27.449951 1.493042-2.977539 1.431457-5.475464.186554-8.46759-6.129303-14.73169-12.557969-29.34729-17.466965-44.564179-1.327622-4.115326-1.819046-8.571533-4.380737-12.74823-.652649 1.239258-1.120102 1.936951-1.408356 2.702149-6.211075 16.486633-12.374893 32.991149-18.626679 49.46228-.922744 2.431091-.33229 4.517273.612976 6.709991 4.870026 11.296906 9.630936 22.641449 14.580552 33.903137 1.976608 4.497254 3.392974 9.294251 6.488189 13.787385 3.150238-4.082764 4.409302-8.60553 6.87526-13.334992z"/></svg>