<svg enable-background="new 0 0 508 510" viewBox="0 0 508 510" xmlns="http://www.w3.org/2000/svg"><path d="m336 511c-111.999969 0-223.499947 0-334.99994 0-.00002-169.999939-.00002-339.999863-.00004-509.999849 169.333201-.00005 338.666423-.00005 507.999736-.000101.000061 169.999797.000061 339.999645.000152 509.999706-57.499908.000244-114.999908.000244-172.999908.000244m-104.489182-401.045776c-8.105636 19.294815-16.223068 38.584686-24.314834 57.88533-31.527817 75.200683-63.048187 150.404495-94.569069 225.608078-3.181389 7.59024-6.347496 15.186859-9.838745 23.541656 12.329491 0 23.776932.089356 35.217552-.14859 1.057388-.022003 2.476868-1.955292 3.040741-3.29129 4.068588-9.639557 8.145554-19.283081 11.874222-29.05722 13.783844-36.132081 30.848953-71.019471 41.20314-108.456757.319901-1.156647 1.175644-2.165131 1.781571-3.242676 8.040618 33.286896 29.035995 59.591553 44.992431 88.998566 28.216614-66.2258 61.696137-129.818909 85.523468-198.51944.855225 1.829865 1.547363 3.066773 2.030396 4.380585 8.190094 22.276245 16.285553 44.587951 24.670349 66.790451.593231 1.570816 3.239654 3.281494 4.990478 3.346969 9.318848.34845 18.656617.209214 27.987702.185776.896118-.002243 1.791351-.36943 3.128998-.66481-1.133118-2.654144-2.097321-4.897446-3.049653-7.145752-18.588073-43.884186-37.154724-87.777466-55.835662-131.62207-.741517-1.740425-2.567597-3.018753-3.888367-4.512383-1.375549 1.428627-3.325897 2.616715-4.039642 4.322304-9.292817 22.206375-18.393036 44.493286-27.581055 66.743668-3.380341 8.186081-6.863922 16.329528-10.861298 25.824646-4.695038-10.928711-8.820923-20.466278-12.893738-30.026429-8.980438-21.079895-17.901535-42.185241-26.970382-63.226951-.619324-1.436997-2.578964-3.597054-3.365586-3.384697-1.537277.415016-3.118713 2.046127-3.909103 3.573639-1.903519 3.678779-3.361374 7.588173-5.323914 12.097397z" fill="#fff"/><path d="m231.673279 109.607796c1.800079-4.162796 3.257934-8.07219 5.161453-11.750969.79039-1.527512 2.371826-3.158623 3.909103-3.573639.786622-.212357 2.746262 1.9477 3.365586 3.384697 9.068847 21.04171 17.989944 42.147056 26.970382 63.226951 4.072815 9.560151 8.1987 19.097718 12.893738 30.026429 3.997376-9.495118 7.480957-17.638565 10.861298-25.824646 9.188019-22.250382 18.288238-44.537293 27.581055-66.743668.713745-1.705589 2.664093-2.893677 4.039642-4.322304 1.32077 1.49363 3.14685 2.771958 3.888367 4.512383 18.680938 43.844604 37.247589 87.737884 55.835662 131.62207.952332 2.248306 1.916535 4.491608 3.049653 7.145752-1.337647.29538-2.23288.662567-3.128998.66481-9.331085.023438-18.668854.162674-27.987702-.185776-1.750824-.065475-4.397247-1.776153-4.990478-3.346969-8.384796-22.2025-16.480255-44.514206-24.670349-66.790451-.483033-1.313812-1.175171-2.55072-2.030396-4.380585-23.827331 68.700531-57.306854 132.29364-85.523468 198.51944-15.956436-29.407013-36.951813-55.71167-44.992431-88.998566-.605927 1.077545-1.46167 2.086029-1.781571 3.242676-10.354187 37.437286-27.419296 72.324676-41.20314 108.456757-3.728668 9.774139-7.805634 19.417663-11.874222 29.05722-.563873 1.335998-1.983353 3.269287-3.040741 3.29129-11.44062.237946-22.888061.14859-35.217552.14859 3.491249-8.354797 6.657356-15.951416 9.838745-23.541656 31.520882-75.203583 63.041252-150.407395 94.569069-225.608078 8.091766-19.300644 16.209198-38.590515 24.477295-58.231758m-15.354721 117.218879c-1.175003 4.467453-4.917023 8.190354-2.542389 13.633454 6.639114 15.218063 12.850784 30.62236 19.265533 45.938736 1.534897 3.664856 3.20369 7.27359 5.167023 11.71347 1.258209-2.556518 2.070877-4.002777 2.703293-5.523987 7.711822-18.549591 15.28363-37.158691 23.176391-55.630737 1.774933-4.153976 1.663514-7.605881.052155-11.800705-7.377014-19.20433-14.365219-38.557922-21.52919-57.844482-.472992-1.273377-1.24678-2.435013-1.939545-3.761338-8.122741 21.223175-16.043075 41.917496-24.353271 63.275589z" fill="#020202"/><path d="m216.513489 226.494797c8.115265-21.026215 16.035599-41.720536 24.15834-62.943711.692765 1.326325 1.466553 2.487961 1.939545 3.761338 7.163971 19.28656 14.152176 38.640152 21.52919 57.844482 1.611359 4.194824 1.722778 7.646729-.052155 11.800705-7.892761 18.472046-15.464569 37.081146-23.176391 55.630737-.632416 1.52121-1.445084 2.967469-2.703293 5.523987-1.963333-4.43988-3.632126-8.048614-5.167023-11.71347-6.414749-15.316376-12.626419-30.720673-19.265533-45.938736-2.374634-5.4431 1.367386-9.166001 2.73732-13.965332z" fill="#fcfcfc"/></svg>