<svg enable-background="new 0 0 496 496" viewBox="0 0 496 496" xmlns="http://www.w3.org/2000/svg"><path d="m317.689575 181.182098c-1.915558-5.858322-3.732055-11.333633-5.522095-16.729232-1.889648.299362-1.794586 1.501281-2.013061 2.372085-5.743073 22.893387-15.555756 44.243897-24.887573 65.777649-5.098999 11.766312-10.152436 23.55246-15.282624 35.305115-.900604 2.063232-1.484283 4.503662-4.664642 4.38797-2.930176-.106568-3.327667-2.374787-4.116821-4.317108-12.282715-30.231003-26.214173-59.794266-36.775559-90.72165-1.380386-4.042236-2.600204-8.139297-3.847259-12.062713-1.576248-.068588-1.873642.810882-2.106003 1.553818-14.643539 46.819091-35.448547 91.231857-53.489868 136.720779-14.487335 36.527985-29.660782 72.783478-44.360008 109.228363-1.417862 3.515472-3.197655 4.816773-6.94796 4.739349-10.617707-.219055-21.242874-.07666-31.868454-.07666-.600449-3.687408 1.24926-6.08078 2.303199-8.583648 35.931-85.329987 71.933846-170.629746 107.941185-255.927567 7.641282-18.101471 15.314652-36.189537 23.0448-54.253136.920807-2.151702 1.255844-4.983276 4.7603-4.916328 3.480728.06649 3.784241 2.912636 4.635513 5.072876 12.995972 32.979431 28.706665 64.878036 39.375244 98.78511.339905 1.080307.941437 2.078293 1.432434 3.139267 1.851716-.516586 1.82132-2.1203 2.135102-3.21434 7.234192-25.226288 18.658447-48.805343 28.61734-72.957405 3.681061-8.927231 7.557342-17.774055 11.359466-26.651176.836396-1.952774 1.332795-4.10994 4.239777-4.188935 3.22052-.087501 3.761017 2.353241 4.580597 4.438202 13.088898 33.298004 28.877258 65.546646 38.919556 100.029236.276489.949463.416168 1.976913 1.818969 2.645844 2.927369-5.767472 4.403626-12.057938 6.416962-18.118988 8.667755-26.093689 19.415161-51.389618 29.335663-77.002251.639923-1.652176 1.090088-3.725983 3.461853-3.734108 10.962952-.037537 21.926117-.016571 32.708404-.016571 1.332215 2.590278-.041992 4.338737-.770965 6.073982-22.381745 53.27845-44.805115 106.539421-67.241577 159.794884-.869751 2.064453-1.246613 4.679748-4.498139 4.472534-2.867462-.182709-3.239624-2.539307-4.01242-4.474213-11.483918-28.753494-24.778626-56.780929-34.681336-86.591034z"/></svg>