<svg enable-background="new 0 0 508 510" viewBox="0 0 508 510" xmlns="http://www.w3.org/2000/svg"><path d="m340 511c-113.333313 0-226.166611 0-338.999939 0-.000021-169.999939-.000021-339.999863-.000041-509.999848 169.333201-.000051 338.666423-.000051 507.999736-.000101.000061 169.999796.000061 339.999644.000152 509.999705-56.166564.000244-112.333252.000244-168.999908.000244m-227.068275-120.645111c-3.639657 8.630585-7.27932 17.2612-11.238358 26.649109 10.280258 0 19.585045.073211 28.88813-.02063 9.244629-.093262 7.389069 1.572143 11.06958-7.353882 17.728699-42.995666 35.451309-85.99469 52.929245-129.092621 13.480088-33.239776 26.644287-66.608169 39.82193-99.969543 2.171753-5.498139 3.689392-11.254639 5.509323-16.891739.455384-.048111.910752-.096222 1.366135-.144333.985062 3.015015 1.809189 6.094177 2.981003 9.034805 8.418319 21.125443 17.000931 42.18631 25.246261 63.378617.949982 2.441665 1.028992 5.93753.025818 8.318512-21.542007 51.127136-43.298324 102.164001-65.006302 153.221252-2.637893 6.204346-5.236648 12.425385-8.224533 19.519531 11.398835 0 21.834885-.181152 32.258545.098694 3.623596.09726 5.206787-1.165283 6.52916-4.411255 18.236328-44.763733 36.780472-89.402618 54.890365-134.217102 14.985413-37.08287 31.987213-73.391784 43.444001-111.850738.282562-.948517 1.229461-1.699128 2.307342-3.125412.675354 1.733749 1.091705 2.740478 1.462555 3.763656 8.14447 22.470154 16.226074 44.963623 24.55603 67.364762.546021 1.468307 2.955414 3.125991 4.547638 3.178024 9.489167.310135 18.993012.198578 28.491547.152435 1.045288-.005081 2.088165-.494308 3.297058-.800766-.686005-1.796509-1.170166-3.200073-1.749847-4.562988-19.046784-44.778778-38.087006-89.560379-57.220246-134.302216-.694183-1.62326-2.316192-2.849739-3.505798-4.261131-1.260559 1.318146-3.00235 2.420921-3.704163 3.989128-4.817383 10.76429-9.57962 21.55938-14.052124 32.470581-8.748993 21.344147-17.340637 42.75325-25.885254 64.180207-1.409576 3.534759-2.248413 7.297134-3.351013 10.954315-.475342-.0177-.950683-.035416-1.425995-.053116-.632721-1.788284-1.347534-3.552521-1.880676-5.37001-1.027069-3.501282-1.599457-7.176957-2.973206-10.529175-12.659576-30.891358-25.429687-61.737534-38.27713-92.551193-.526428-1.262604-2.63826-3.135422-3.152374-2.894059-1.556106.730545-3.24086 2.126152-3.905502 3.678025-13.601013 31.7565-27.074738 63.567581-40.557694 95.374603-27.745804 65.453918-55.482086 130.911835-83.511451 197.075653z" fill="#fff"/><path d="m113.076309 390.001099c27.884781-65.810028 55.621063-131.267945 83.366867-196.721863 13.482956-31.807022 26.956681-63.618103 40.557694-95.374603.664642-1.551873 2.349396-2.94748 3.905502-3.678025.514114-.241363 2.625946 1.631455 3.152374 2.894059 12.847443 30.813659 25.617554 61.659835 38.27713 92.551193 1.373749 3.352218 1.946137 7.027893 2.973206 10.529175.533142 1.817489 1.247955 3.581726 1.880676 5.37001.475312.0177.950653.035416 1.425995.053116 1.1026-3.657181 1.941437-7.419556 3.351013-10.954315 8.544617-21.426957 17.136261-42.83606 25.885254-64.180207 4.472504-10.911201 9.234741-21.706291 14.052124-32.470581.701813-1.568207 2.443604-2.670982 3.704163-3.989136 1.189606 1.4114 2.811615 2.637879 3.505798 4.261139 19.13324 44.741837 38.173462 89.523438 57.220246 134.302216.579681 1.362915 1.063842 2.766479 1.749847 4.562988-1.208893.306458-2.25177.795685-3.297058.800766-9.498535.046143-19.00238.1577-28.491547-.152435-1.592224-.052033-4.001617-1.709717-4.547638-3.178024-8.329956-22.401139-16.41156-44.894608-24.55603-67.364762-.37085-1.023178-.787201-2.029907-1.462555-3.763656-1.077881 1.426284-2.02478 2.176895-2.307342 3.125412-11.456788 38.458954-28.458588 74.767868-43.444001 111.850738-18.109893 44.814484-36.654037 89.453369-54.890365 134.217102-1.322373 3.245972-2.905564 4.508515-6.52916 4.411255-10.42366-.279846-20.85971-.098694-32.258545-.098694 2.987885-7.094146 5.58664-13.315185 8.224533-19.519531 21.707978-51.057251 43.464295-102.094116 65.006302-153.221252 1.003174-2.380982.924164-5.876847-.025818-8.318512-8.24533-21.192307-16.827942-42.253174-25.246261-63.378617-1.171814-2.940628-1.995941-6.01979-2.981003-9.034805-.455383.048111-.910751.096222-1.366135.144333-1.819931 5.6371-3.33757 11.3936-5.509323 16.891739-13.177643 33.361374-26.341842 66.729767-39.82193 99.969543-17.477936 43.097931-35.200546 86.096955-52.929245 129.092621-3.680511 8.926025-1.824951 7.26062-11.06958 7.353882-9.303085.093841-18.607872.02063-28.88813.02063 3.959038-9.387909 7.598701-18.018524 11.382942-27.002899z" fill="#020202"/></svg>