<svg enable-background="new 0 0 508 510" viewBox="0 0 508 510" xmlns="http://www.w3.org/2000/svg"><path d="m336 511c-111.999969 0-223.499947 0-334.99994 0-.00002-169.999939-.00002-339.999863-.00004-509.999849 169.333201-.00005 338.666423-.00005 507.999736-.000101.000061 169.999797.000061 339.999645.000152 509.999706-57.499908.000244-114.999908.000244-172.999908.000244m-178.170898-137.629089c6.968795-18.439209 13.937591-36.878449 21.147399-55.955384 3.335206 9.597107 5.929215 18.700013 9.608429 27.340821 10.99794 25.829193 22.390686 51.490783 33.75261 77.163269.685394 1.548645 2.447403 2.620788 3.708465 3.914673 1.311737-1.413788 3.158264-2.603638 3.857666-4.273835 22.371216-53.424347 44.777878-106.834778 66.853104-160.381775 13.113586-31.809082 27.67218-63.075576 37.196289-96.278366.199524-.695617.655945-1.31755 1.275482-2.525589 9.375244 25.651963 18.508057 50.64058 27.544373 75.365143h35.383026c-.096344-.756668-.052674-1.277496-.232575-1.703964-19.609283-46.479553-39.220642-92.958237-58.945465-139.388756-.491943-1.157959-2.277649-2.496071-3.407043-2.450096-1.151001.04686-2.711121 1.481552-3.270661 2.689194-2.787017 6.015083-5.3992 12.116577-7.898712 18.25856-12.080932 29.686447-27.330536 58.126388-35.250671 89.456039-.161316.638214-.866547 1.138947-1.65802 2.129166-11.129395-39.397064-30.110352-75.028305-43.997971-112.194534-4.14801-1.55069-5.406982.309669-6.688034 3.369598-43.896728 104.851914-87.88974 209.663498-131.85936 314.484909-.591682 1.410553-1.061683 2.872131-1.699745 4.613556 11.072998 0 21.568688-.139343 32.056923.079163 3.450867.071899 5.251785-.819184 6.571259-4.244965 5.007599-13.00116 10.395019-25.856049 15.953232-39.466827z" fill="#fff"/><path d="m157.672699 373.721497c-5.40181 13.260192-10.78923 26.115081-15.796829 39.116241-1.319474 3.425781-3.120392 4.316864-6.571259 4.244965-10.488235-.218506-20.983925-.079163-32.056923-.079163.638062-1.741425 1.108063-3.203003 1.699745-4.613556 43.96962-104.821411 87.962632-209.632995 131.85936-314.484909 1.281052-3.059929 2.540024-4.920288 6.688034-3.369598 13.887619 37.166229 32.868576 72.79747 43.997971 112.194534.791473-.990219 1.496704-1.490952 1.65802-2.129166 7.920135-31.329651 23.169739-59.769592 35.250671-89.456039 2.499512-6.141983 5.111695-12.243477 7.898712-18.25856.55954-1.207642 2.11966-2.642334 3.270661-2.689194 1.129394-.045975 2.9151 1.292137 3.407043 2.450096 19.724823 46.430519 39.336182 92.909203 58.945465 139.388756.179901.426468.136231.947296.232575 1.703964-11.698395 0-23.269623 0-35.383026 0-9.036316-24.724563-18.169129-49.71318-27.544373-75.365143-.619537 1.208039-1.075958 1.829972-1.275482 2.525589-9.524109 33.20279-24.082703 64.469284-37.196289 96.278366-22.075226 53.546997-44.481888 106.957428-66.853104 160.381775-.699402 1.670197-2.545929 2.860047-3.857666 4.273835-1.261062-1.293885-3.023071-2.366028-3.708465-3.914673-11.361924-25.672486-22.75467-51.334076-33.75261-77.163269-3.679214-8.640808-6.273223-17.743714-9.608429-27.340821-7.209808 19.076935-14.178604 37.516175-21.303802 56.30597m43.642914-108.877503c-.920365 2.312042-1.547531 4.801178-2.816818 6.902466-3.602906 5.964478-2.648835 11.283386.134521 17.548462 9.500183 21.384094 20.033646 42.42453 25.070114 65.53537.116272.533508.642365.977722 1.643875 2.430542.827439-2.073944 1.386551-3.276764 1.792801-4.529206 1.485367-4.579162 2.631745-9.290466 4.419647-13.745788 12.618775-31.445221 25.323914-62.856079 38.132142-94.224564 1.35852-3.327133 1.301086-6.053833-.115693-9.404266-9.827362-23.240387-21.363082-45.822495-27.590789-70.475067-.177399-.702255-.718522-1.312607-.745041-1.359238-13.140808 33.449356-26.341843 67.052002-39.924759 101.321289z" fill="#020202"/><path d="m201.506561 264.510681c13.391968-33.935974 26.593003-67.53862 39.733811-100.987976.026519.046631.567642.656983.745041 1.359238 6.227707 24.652572 17.763427 47.23468 27.590789 70.475067 1.416779 3.350433 1.474213 6.077133.115693 9.404266-12.808228 31.368485-25.513367 62.779343-38.132142 94.224564-1.787902 4.455322-2.93428 9.166626-4.419647 13.745788-.40625 1.252442-.965362 2.455262-1.792801 4.529206-1.00151-1.45282-1.527603-1.897034-1.643875-2.430542-5.036468-23.11084-15.569931-44.151276-25.070114-65.53537-2.783356-6.265076-3.737427-11.583984-.134521-17.548462 1.269287-2.101288 1.896453-4.590424 3.007766-7.235779z" fill="#fdfdfd"/></svg>