<svg enable-background="new 0 0 496 496" viewBox="0 0 496 496" xmlns="http://www.w3.org/2000/svg"><path d="m101.951889 386.051025c39.567383-92.145507 78.984512-183.940063 118.40509-275.733139 1.905472-4.437004 3.847351-8.858368 5.760071-13.292289.831665-1.927872 1.800842-3.527039 4.354248-3.310639 2.50145.211998 2.713791 2.126076 3.156601 3.865364 5.745285 22.566811 11.49997 45.131287 17.192291 67.711487 11.298829 44.820007 22.585358 89.643189 33.821656 134.478912 3.233001 12.900605 5.13388 26.049286 6.698517 39.917725 2.384765-2.695251 2.257171-5.611328 3.041717-8.123138 7.458374-23.879151 17.664337-46.703308 26.866974-69.904938 20.31723-51.223633 41.009247-102.298584 61.339874-153.516968 1.886017-4.751449 4.13916-6.696693 9.418091-6.439247 9.768616.47641 19.577026.136322 29.205689.136322 1.181274 3.182549-.544495 5.120895-1.403718 7.153168-40.068084 94.77227-80.187072 189.523018-120.295288 284.278328-3.893951 9.199493-7.698639 18.437408-11.674682 27.601135-.981659 2.262512-1.125214 5.547058-4.90503 5.360107-3.966674-.196258-3.445617-3.66571-4.002655-5.957092-10.806915-44.453979-21.490631-88.937927-32.213058-133.412476-5.728287-23.759826-11.79306-47.444473-17.089188-71.299972-2.542999-11.454559-3.654953-23.226822-5.640182-36.343216-1.407257 4.854385-2.305618 8.432693-3.477936 11.918869-7.227829 21.493759-16.8423 42.027588-25.530365 62.929337-21.983902 52.888885-44.268188 105.652862-66.264587 158.536621-1.561638 3.754455-3.531258 4.918579-7.420655 4.828155-10.452682-.242981-20.914749-.082947-32.28881-.082947 3.743263-11.156524 8.736725-20.869659 12.945335-31.299469z"/></svg>