<svg enable-background="new 0 0 508 510" viewBox="0 0 508 510" xmlns="http://www.w3.org/2000/svg"><path d="m232 511c-77.333313 0-154.166634 0-230.999959 0-.000014-169.999939-.000014-339.999878-.000027-509.999867 169.333223-.000045 338.666459-.000045 507.999742-.000089.000091 169.999819.000091 339.999681.000183 509.999742-92.166595.000214-184.333283.000214-276.999939.000214m-28.543457-282.053467c-3.759949-40.119888-7.591248-80.233413-11.174042-120.369102-.375259-4.203858-1.5065-5.916687-5.893631-5.781372-8.491241.261894-16.999099.202675-25.494232.013878-3.405487-.075684-4.438934 1.221191-4.067566 4.416732.864899 7.442108 1.569473 14.902695 2.401016 22.348877 3.639847 32.593918 7.337143 65.181458 10.943299 97.779084 2.398346 21.679794 4.628524 43.378158 7.022293 65.058456 3.617492 32.76355 7.306137 65.519226 10.977142 98.276886 1.1866 10.58847 2.342072 21.181366 3.660553 31.753693.440811 3.534729 3.927872 4.984527 6.239411 2.685577 1.009048-1.00351 1.569686-2.516144 2.160491-3.873047 6.49849-14.925507 13.067322-29.821594 19.412201-44.812378 9.899475-23.389068 20.929398-46.35022 27.286896-71.105072.312241-1.21579 1.167801-2.292084 1.770386-3.433319 1.172027 1.794098 1.240265 3.22702 1.442032 4.640839 1.809372 12.678039 3.235641 25.428161 5.568146 38.009948 3.120513 16.832276 6.927703 33.537781 10.481445 50.288971 1.966614 9.270081 3.949249 18.538239 6.113983 27.762879.283356 1.207458 1.749817 3.054077 2.573181 3.005096 1.262634-.075073 2.606751-1.38739 3.604004-2.463898.749298-.808929 1.031494-2.062377 1.481903-3.134613 19.487122-46.390319 38.936432-92.79663 58.461517-139.17099 24.234986-57.560943 48.536225-115.093963 72.779236-172.651535.603058-1.431785.859162-3.009697 1.498505-5.31929-10.660797 0-20.468018.229187-30.256378-.101104-4.58017-.154557-6.754303 1.567245-8.406189 5.722549-18.278687 45.979874-36.796875 91.864471-55.09375 137.837143-10.130768 25.454468-19.981842 51.020355-29.914246 76.553467-1.183594 3.042633-2.085022 6.195038-3.117218 9.296539-.472473-.092773-.944916-.185577-1.417389-.278351-.171936-1.592132-.313598-3.188171-.520599-4.775726-1.48349-11.376526-2.435761-22.855225-4.583313-34.10553-4.832123-25.314117-10.220001-50.522964-15.532196-75.74292-.348114-1.652679-1.969177-3.037247-2.998108-4.546509-1.305573 1.253113-3.164246 2.267014-3.826508 3.79834-4.151886 9.600083-8.115707 19.284088-11.995468 28.998734-10.409591 26.064865-20.735977 52.162918-31.144424 78.228256-.424729 1.063599-1.346222 1.928863-1.939377 2.752045-2.792419-32.402344-5.561188-64.530365-8.503006-97.563233z" fill="#fff"/><path d="m203.54306 229.398956c2.855301 32.580445 5.62407 64.708466 8.416489 97.11081.593155-.823182 1.514648-1.688446 1.939377-2.752045 10.408447-26.065338 20.734833-52.163391 31.144424-78.228256 3.879761-9.714646 7.843582-19.398651 11.995468-28.998734.662262-1.531326 2.520935-2.545227 3.826508-3.79834 1.028931 1.509262 2.649994 2.89383 2.998108 4.546509 5.312195 25.219956 10.700073 50.428803 15.532196 75.74292 2.147552 11.250305 3.099823 22.729004 4.583313 34.10553.207001 1.587555.348663 3.183594.520599 4.775726.472473.092774.944916.185578 1.417389.278351 1.032196-3.101501 1.933624-6.253906 3.117218-9.296539 9.932404-25.533112 19.783478-51.098999 29.914246-76.553467 18.296875-45.972672 36.815063-91.857269 55.09375-137.837143 1.651886-4.155304 3.826019-5.877106 8.406189-5.722549 9.78836.330291 19.595581.101104 30.256378.101104-.639343 2.309593-.895447 3.887505-1.498505 5.31929-24.243011 57.557572-48.54425 115.090592-72.779236 172.651535-19.525085 46.37436-38.974395 92.780671-58.461517 139.17099-.450409 1.072236-.732605 2.325684-1.481903 3.134613-.997253 1.076508-2.34137 2.388825-3.604004 2.463898-.823364.048981-2.289825-1.797638-2.573181-3.005096-2.164734-9.22464-4.147369-18.492798-6.113983-27.762879-3.553742-16.75119-7.360932-33.456695-10.481445-50.288971-2.332505-12.581787-3.758774-25.331909-5.568146-38.009948-.201767-1.413819-.270005-2.846741-1.442032-4.640839-.602585 1.141235-1.458145 2.217529-1.770386 3.433319-6.357498 24.754852-17.387421 47.716004-27.286896 71.105072-6.344879 14.990784-12.913711 29.886871-19.412201 44.812378-.590805 1.356903-1.151443 2.869537-2.160491 3.873047-2.311539 2.29895-5.7986.849152-6.239411-2.685577-1.318481-10.572327-2.473953-21.165223-3.660553-31.753693-3.671005-32.75766-7.35965-65.513336-10.977142-98.276886-2.393769-21.680298-4.623947-43.378662-7.022293-65.058456-3.606156-32.597626-7.303452-65.185166-10.943299-97.779084-.831543-7.446182-1.536117-14.906769-2.401016-22.348877-.371368-3.195541.662079-4.492416 4.067566-4.416732 8.495133.188797 17.002991.248016 25.494232-.013878 4.387131-.135315 5.518372 1.577514 5.893631 5.781372 3.582794 40.135689 7.414093 80.249214 11.260559 120.821525z" fill="#020202"/></svg>