<svg enable-background="new 0 0 508 510" viewBox="0 0 508 510" xmlns="http://www.w3.org/2000/svg"><path d="m335 511c-111.666641 0-222.833282 0-333.99994 0-.00002-169.999939-.00002-339.999863-.00004-509.999849 169.333201-.00005 338.666423-.00005 507.999736-.000101.000061 169.999797.000061 339.999645.000152 509.999706-57.833252.000244-115.666564.000244-173.999908.000244m-124.801147-299.348373c-28.867295 68.1501-57.734589 136.300186-86.98407 205.352554 10.398346 0 19.854141-.422882 29.24884.152222 6.024368.368743 8.571274-1.879609 10.772812-7.309418 20.714661-51.090546 41.846695-102.011719 62.632996-153.073456 10.202362-25.06218 19.991424-50.293655 29.827163-75.50325 2.238129-5.736496 3.895294-11.699661 5.819855-17.558502.481476-.007294.962952-.014588 1.444397-.021881 1.655609 5.122375 3.019653 10.361663 5.018463 15.34642 7.72403 19.262802 15.723572 38.415329 23.39209 57.699768.792755 1.993546.771179 4.890411-.062195 6.866425-21.618805 51.259918-43.399689 102.451477-65.139236 153.660491-2.687012 6.329407-5.29889 12.690674-8.239136 19.74115 11.559997 0 22.043564-.203247 32.511475.112549 3.563781.107544 4.945556-1.388946 6.143112-4.267792 9.122039-21.929077 18.317413-43.827728 27.523132-65.721862 32.706421-77.786591 65.428558-155.566574 98.13205-233.354401 1.386169-3.297142 2.645996-6.6474 4.331329-10.89756-6.551331 0-12.168427-.055489-17.783966.015343-5.809876.073288-12.999939-1.770211-17.047394.972046-4.239654 2.872474-5.723389 10.093048-7.957672 15.597457-11.048981 27.220505-24.445618 53.519623-32.297119 82.000779-.401734 1.457275-1.060211 2.843795-1.599152 4.263244-2.804962-5.347458-3.962463-10.855972-6.001526-16.016128-12.083648-30.579392-24.33728-61.091965-36.684936-91.565743-.671723-1.65776-2.864044-3.991829-4.064057-3.834938-1.726043.225655-3.91922 2.138733-4.659759 3.868202-16.079941 37.553399-31.985611 75.18142-48.277496 113.476281z" fill="#fff"/><path d="m210.375183 211.31102c16.115555-37.954254 32.021225-75.582275 48.101166-113.135674.740539-1.729469 2.933716-3.642547 4.659759-3.868202 1.200013-.156891 3.392334 2.177178 4.064057 3.834938 12.347656 30.473778 24.601288 60.986351 36.684936 91.565743 2.039063 5.160156 3.196564 10.66867 6.001526 16.016128.538941-1.419449 1.197418-2.805969 1.599152-4.263244 7.851501-28.481156 21.248138-54.780274 32.297119-82.000779 2.234283-5.504409 3.718018-12.724983 7.957672-15.597457 4.047455-2.742257 11.237518-.898758 17.047394-.972046 5.615539-.070832 11.232635-.015343 17.783966-.015343-1.685333 4.25016-2.94516 7.600418-4.331329 10.89756-32.703492 77.787827-65.425629 155.56781-98.13205 233.354401-9.205719 21.894134-18.401093 43.792785-27.523132 65.721862-1.197556 2.878846-2.579331 4.375336-6.143112 4.267792-10.467911-.315796-20.951478-.112549-32.511475-.112549 2.940246-7.050476 5.552124-13.411743 8.239136-19.74115 21.739547-51.209014 43.520431-102.400573 65.139236-153.660491.833374-1.976014.85495-4.872879.062195-6.866425-7.668518-19.284439-15.66806-38.436966-23.39209-57.699768-1.99881-4.984757-3.362854-10.224045-5.018463-15.34642-.481445.007293-.962921.014587-1.444397.021881-1.924561 5.858841-3.581726 11.822006-5.819855 17.558502-9.835739 25.209595-19.624801 50.44107-29.827163 75.50325-20.786301 51.061737-41.918335 101.98291-62.632996 153.073456-2.201538 5.429809-4.748444 7.678161-10.772812 7.309418-9.394699-.575104-18.850494-.152222-29.24884-.152222 29.249481-69.052368 58.116775-137.202454 87.1604-205.693161z" fill="#020202"/></svg>