<svg enable-background="new 0 0 508 510" viewBox="0 0 508 510" xmlns="http://www.w3.org/2000/svg"><path d="m228 511c-75.999985 0-151.499962 0-226.999959 0-.000014-169.999939-.000014-339.999878-.000028-509.999868 169.333224-.000044 338.66646-.000044 507.999743-.000088.000091 169.999819.000091 339.999681.000183 509.999742-93.499939.000214-186.999939.000214-280.999939.000214m119.541718-272.99646h24.642822c-.315216-1.098526-.429474-1.735107-.674469-2.316635-19.52124-46.341904-39.038422-92.685562-58.665589-138.982582-.494812-1.167153-2.365295-2.67276-3.319519-2.500321-1.321899.238884-2.932586 1.694954-3.476501 3.017662-20.446961 49.723267-41.033234 99.391694-61.05481 149.286591-14.355346 35.774277-31.171569 70.619339-41.490142 107.951645-.184983.669281-.817826 1.214783-1.650925 2.400482-.640549-1.537781-1.028-2.377716-1.34552-3.243317-8.355072-22.775207-16.664185-45.567535-25.139267-68.297973-.564255-1.513306-2.350769-3.622711-3.617554-3.657074-10.764831-.292023-21.54097-.166962-32.808929-.166962.459137 1.268921.688598 2.010742.990448 2.721832 19.583236 46.134247 39.156021 92.27295 58.841629 138.363495.574997 1.346283 2.611175 3.238343 3.499405 3.015534 1.44606-.362702 3.040542-2.045655 3.651947-3.546417 18.901657-46.397004 37.916153-92.750275 56.428711-139.302918 15.541748-39.082016 33.244415-77.341431 45.356567-117.748306.234192-.781143.849426-1.448059 1.593994-2.67392 9.363342 25.703919 18.484711 50.743607 27.568146 75.679184z" fill="#fff"/><path d="m347.051697 238.00354c-3.484864 0-6.479676 0-10.179535 0-9.083435-24.935577-18.204804-49.975265-27.568146-75.679184-.744568 1.225861-1.359802 1.892777-1.593994 2.67392-12.112152 40.406875-29.814819 78.66629-45.356567 117.748306-18.512558 46.552643-37.527054 92.905914-56.428711 139.302918-.611405 1.500762-2.205887 3.183715-3.651947 3.546417-.88823.222809-2.924408-1.669251-3.499405-3.015534-19.685608-46.090545-39.258393-92.229248-58.841629-138.363495-.30185-.71109-.531311-1.452911-.990448-2.721832 11.267959 0 22.044098-.125061 32.808929.166962 1.266785.034363 3.053299 2.143768 3.617554 3.657074 8.475082 22.730438 16.784195 45.522766 25.139267 68.297973.31752.865601.704971 1.705536 1.34552 3.243317.833099-1.185699 1.465942-1.731201 1.650925-2.400482 10.318573-37.332306 27.134796-72.177368 41.490142-107.951645 20.021576-49.894897 40.607849-99.563324 61.05481-149.286591.543915-1.322708 2.154602-2.778778 3.476501-3.017662.954224-.172439 2.824707 1.333168 3.319519 2.500321 19.627167 46.29702 39.144349 92.640678 58.665589 138.982582.244995.581528.359253 1.218109.674469 2.316635-8.439057 0-16.540955 0-25.132843 0z" fill="#020202"/></svg>