<svg enable-background="new 0 0 496 496" viewBox="0 0 496 496" xmlns="http://www.w3.org/2000/svg"><path d="m307.759705 219.901291c15.152862-37.203232 30.281097-74.003723 45.101348-110.927841 2.110932-5.259316 4.70517-7.650544 10.593018-7.221436 7.291626.531418 14.652924.105621 21.9841.095886 7.248352-.009636 7.835663.808609 5.090943 7.344185-8.702454 20.722054-17.440918 41.428963-26.143402 62.151009-26.752167 63.701141-53.483612 127.410965-80.246277 191.107712-8.253296 19.643371-16.566315 39.261688-24.89444 58.873443-.935547 2.203156-1.323517 5.068482-4.676117 5.091156-3.340378.022644-3.812759-2.790466-4.752502-5.008819-15.583252-36.785584-31.132431-73.585602-46.706879-110.374939-.571106-1.34906-1.322082-2.621979-1.982635-3.917481-2.168503.257538-2.313935 1.946839-2.850419 3.236115-13.998046 33.64035-28.073196 67.249328-41.851425 100.979584-1.875457 4.591278-4.213699 6.388244-9.161911 6.140716-7.811432-.390808-15.658737-.202057-23.48719-.058594-4.016426.073578-5.12999-1.251526-3.515961-5.066986 10.180107-24.065063 20.310356-48.151275 30.403298-72.253082 16.909149-40.378784 33.776703-80.774963 50.664215-121.162827 15.606109-37.323272 31.24707-74.632049 46.772461-111.988868 1.485153-3.573555 3.625107-5.191559 7.522293-5.108818 7.494141.159141 14.994629-.003403 22.492309.020385 6.576752.020874 7.275422.940163 4.770722 6.917778-9.712952 23.180397-19.509125 46.325905-29.274887 69.484169-10.99292 26.06839-21.96431 52.145935-33.011612 78.191269-1.192963 2.812561-1.097229 5.384644-.010574 8.169007 8.831543 22.629333 17.65335 45.262787 26.358932 67.940704 2.082657 5.425262 3.640823 11.050049 5.607788 16.522797.576676 1.604522.339996 3.734893 2.977265 4.967132 14.171966-45.929321 34.713806-89.232422 52.227539-134.143356z"/></svg>