<svg enable-background="new 0 0 508 510" viewBox="0 0 508 510" xmlns="http://www.w3.org/2000/svg"><path d="m340 511c-113.333313 0-226.166611 0-338.999939 0-.000021-169.999939-.000021-339.999863-.000041-509.999848 169.333201-.000051 338.666423-.000051 507.999736-.000101.000061 169.999796.000061 339.999644.000152 509.999705-56.166564.000244-112.333252.000244-168.999908.000244m-269.891922-148.395325c-7.712368 17.981781-15.424736 35.963562-23.331398 54.398377 11.17065 0 21.799995-.171784 32.418037.099151 3.418663.08725 4.769974-1.07492 6.035981-4.133117 20.385398-49.243531 41.05323-98.370423 61.359146-147.646485 9.622314-23.350341 21.048324-46.073181 26.001587-71.147461.149658-.757568.91896-1.392746 2.066238-3.045913.115921 2.283996.141342 3.384109.231781 4.478866 1.795425 21.731125 3.075714 43.520371 5.509979 65.179871 4.872986 43.358765 10.376801 86.646667 15.623673 129.963409 1.415695 11.687683 2.843902 23.37381 4.266372 35.060669.502488.301483 1.004975.602997 1.507462.904511 1.496094-1.450257 3.473877-2.641053 4.415695-4.389832 13.083481-24.293335 26.018311-48.666717 39.003525-73.013061 8.979828-16.836487 17.981384-33.661347 27.535584-51.543915 5.261901 43.378509 10.381164 85.581177 15.484558 127.652832 3.932037 1.606232 5.058105-1.063568 6.423523-3.573303 51.985473-95.553864 103.993408-191.095536 155.988891-286.643982 5.766937-10.597473 11.477936-21.225395 17.505493-32.376908-10.40744 0-20.197998.222733-29.969482-.112487-3.770477-.129357-5.472199 1.263-7.142792 4.414375-24.056702 45.380592-48.578705 90.517662-72.295776 136.074089-17.100708 32.847488-37.610596 64.060379-48.949188 99.750931-.183533.577636-1.028504.94519-1.744263 1.566589-.28714-.836334-.539246-1.280334-.584686-1.744507-2.85376-29.152374-5.607941-58.315002-8.632508-87.449569-.383758-3.696946.205902-6.640442 1.948883-9.864914 19.974579-36.953507 39.814484-73.979782 59.685791-110.98909 5.550904-10.33825 11.087189-20.684342 16.96164-31.645417-9.647278 0-18.594605.219803-27.521881-.107681-3.594391-.131851-5.205811 1.300308-6.742737 4.221825-15.718292 29.878456-31.546692 59.699058-47.380097 89.516823-.841186 1.584198-2.003143 2.998077-3.404663 5.064636-4.12207-33.565415-8.111877-66.053925-12.092621-98.468537-10.404022 0-20.182922 0-30.297943 0 1.327195 10.783394 2.65831 21.300332 3.910355 31.826661 3.951614 33.22229 7.626968 66.480255 11.954269 99.65332 1.333954 10.226028.346588 19.078384-4.740265 28.464172-14.479629 26.716431-29.85675 53.077942-39.405731 82.188202-.156128.475983-.849563.775726-1.160309 1.043884-7.268966-84.513092-20.867019-168.076767-30.259414-251.741981-4.39148-1.573456-5.207382.969032-6.316345 3.548058-37.825531 87.967453-75.694375 175.916305-113.866364 264.566909z" fill="#fff"/><path d="m70.262772 362.255127c38.017295-88.301056 75.886139-176.249908 113.71167-264.217361 1.108963-2.579026 1.924865-5.121514 6.316345-3.548058 9.392395 83.665214 22.990448 167.228889 30.259414 251.741981.310746-.268158 1.004181-.567901 1.160309-1.043884 9.548981-29.11026 24.926102-55.471771 39.405731-82.188202 5.086853-9.385788 6.074219-18.238144 4.740265-28.464172-4.327301-33.173065-8.002655-66.43103-11.954269-99.65332-1.252045-10.526329-2.58316-21.043267-3.910355-31.826661h30.297943c3.980744 32.414612 7.970551 64.903122 12.092621 98.468537 1.40152-2.066559 2.563477-3.480438 3.404663-5.064636 15.833405-29.817765 31.661805-59.638367 47.380097-89.516823 1.536926-2.921517 3.148346-4.353676 6.742737-4.221825 8.927276.327484 17.874603.107681 27.521881.107681-5.874451 10.961075-11.410736 21.307167-16.96164 31.645417-19.871307 37.009308-39.711212 74.035583-59.685791 110.98909-1.742981 3.224472-2.332641 6.167968-1.948883 9.864914 3.024567 29.134567 5.778748 58.297195 8.632508 87.449569.04544.464173.297546.908173.584686 1.744507.715759-.621399 1.56073-.988953 1.744263-1.566589 11.338592-35.690552 31.84848-66.903443 48.949188-99.750931 23.717071-45.556427 48.239074-90.693497 72.295776-136.074089 1.670593-3.151375 3.372315-4.543732 7.142792-4.414375 9.771484.33522 19.562042.112487 29.969482.112487-6.027557 11.151513-11.738556 21.779435-17.505493 32.376908-51.995483 95.548446-104.003418 191.090118-155.988891 286.643982-1.365418 2.509735-2.491486 5.179535-6.423523 3.573303-5.103394-42.071655-10.222657-84.274323-15.484558-127.652832-9.5542 17.882568-18.555756 34.707428-27.535584 51.543915-12.985214 24.346344-25.920044 48.719726-39.003525 73.013061-.941818 1.748779-2.919601 2.939575-4.415695 4.389832-.502487-.301514-1.004974-.603028-1.507462-.904511-1.42247-11.686859-2.850677-23.372986-4.266372-35.060669-5.246872-43.316742-10.750687-86.604644-15.623673-129.963409-2.434265-21.6595-3.714554-43.448746-5.509979-65.179871-.090439-1.094757-.11586-2.19487-.231781-4.478866-1.147278 1.653167-1.91658 2.288345-2.066238 3.045913-4.953263 25.07428-16.379273 47.79712-26.001587 71.147461-20.305916 49.276062-40.973748 98.402954-61.359146 147.646485-1.266007 3.058197-2.617318 4.220367-6.035981 4.133117-10.618042-.270935-21.247387-.099151-32.418037-.099151 7.906662-18.434815 15.61903-36.416596 23.486092-54.747925z" fill="#020202"/></svg>