<svg enable-background="new 0 0 508 510" viewBox="0 0 508 510" xmlns="http://www.w3.org/2000/svg"><path d="m318 511c-105.999969 0-211.499947 0-316.999943 0-.000019-169.999939-.000019-339.999863-.000038-509.999852 169.333218-.000049 338.666454-.000049 507.999737-.000099.000091 169.999814.000091 339.999676.000183 509.999737-63.499939.000214-126.999939.000214-190.999939.000214m-141.90036-143.541687c8.289261 18.122009 16.529373 36.266937 24.951218 54.327118.759918 1.629578 2.69223 2.712433 4.080093 4.049194 1.29068-1.443268 3.101593-2.672455 3.796463-4.360931 21.093521-51.254669 42.286087-102.470368 63.004135-153.877136 13.670319-33.919632 29.325317-67.091309 39.395783-102.402588.240417-.843064.8992-1.566819 1.722808-2.951371.758484 1.63884 1.288575 2.582352 1.646515 3.587159 8.139283 22.848266 16.294953 45.690857 24.33725 68.573272.957489 2.724305 2.284485 3.757019 5.288391 3.682618 9.158936-.226777 18.330567.043823 27.487976-.211991 1.451142-.040527 3.606171-1.483688 4.170471-2.814804 18.050721-42.577621 35.948365-85.220154 53.850159-127.86084.593475-1.413627.990723-2.909599 1.524292-4.500923-1.022125-.114952-1.352844-.184128-1.683716-.184646-6.831726-.010743-13.663421-.016373-20.495147-.017563-12.151581-.002106-12.397217-.095215-16.737275 11.171356-11.165557 28.985298-22.090393 58.063301-33.128631 87.097694-.201721.530594-.617706.979721-1.331818 2.080506-.660126-1.423676-1.15863-2.207306-1.401062-3.063462-10.094086-35.646713-26.713196-68.728775-40.524933-102.912254-.484619-1.19944-2.057434-2.482574-3.286621-2.673531-.817444-.126976-2.306366 1.441536-2.838775 2.562661-2.274598 4.789741-4.401642 9.655899-6.409272 14.565017-12.696533 31.045815-28.607483 60.825432-36.930938 93.599831-.125763.495102-.762879.860336-1.659211 1.818253-1.533416-5.319825-2.484253-10.19365-4.313476-14.711853-12.903336-31.870972-25.947998-63.68512-39.135086-95.439507-.625748-1.506798-3.025452-2.276917-5.031388-3.695976-45.869232 108.74115-91.191757 216.186249-136.716072 324.10971h28.442856c8.383599 0 8.512192.051087 11.582649-7.678619 11.343552-28.556732 22.600327-57.147919 33.866974-85.735138.740372-1.87857 1.290116-3.832245 1.972657-5.883697 6.874923 16.674377 13.548996 32.861602 20.502731 49.752441z" fill="#fff"/><path d="m175.959808 367.106506c-6.813903-16.539032-13.487976-32.726257-20.362899-49.400634-.682541 2.051452-1.232285 4.005127-1.972657 5.883697-11.266647 28.587219-22.523422 57.178406-33.866974 85.735138-3.070457 7.729706-3.19905 7.678619-11.582649 7.678619-9.286842 0-18.573677 0-28.442856 0 45.524315-107.923461 90.84684-215.36856 136.716072-324.10971 2.005936 1.419059 4.40564 2.189178 5.031388 3.695976 13.187088 31.754387 26.23175 63.568535 39.135086 95.439507 1.829223 4.518203 2.78006 9.392028 4.313476 14.711853.896332-.957917 1.533448-1.323151 1.659211-1.818253 8.323455-32.774399 24.234405-62.554016 36.930938-93.599831 2.00763-4.909118 4.134674-9.775276 6.409272-14.565017.532409-1.121125 2.021331-2.689637 2.838775-2.562661 1.229187.190957 2.802002 1.474091 3.286621 2.673531 13.811737 34.183479 30.430847 67.265541 40.524933 102.912254.242432.856156.740936 1.639786 1.401062 3.063462.714112-1.100785 1.130097-1.549912 1.331818-2.080506 11.038238-29.034393 21.963074-58.112396 33.128631-87.097694 4.340058-11.266571 4.585694-11.173462 16.737275-11.171356 6.831726.00119 13.663421.00682 20.495147.017563.330872.000518.661591.069694 1.683716.184646-.533569 1.591324-.930817 3.087296-1.524292 4.500923-17.901794 42.640686-35.799438 85.283219-53.850159 127.86084-.5643 1.331116-2.719329 2.774277-4.170471 2.814804-9.157409.255814-18.32904-.014786-27.487976.211991-3.003906.074401-4.330902-.958313-5.288391-3.682618-8.042297-22.882415-16.197967-45.725006-24.33725-68.573272-.35794-1.004807-.888031-1.948319-1.646515-3.587159-.823608 1.384552-1.482391 2.108307-1.722808 2.951371-10.070466 35.311279-25.725464 68.482956-39.395783 102.402588-20.718048 51.406768-41.910614 102.622467-63.004135 153.877136-.69487 1.688476-2.505783 2.917663-3.796463 4.360931-1.387863-1.336761-3.320175-2.419616-4.080093-4.049194-8.421845-18.060181-16.661957-36.205109-25.09105-54.678925m39.213181-43.413879c10.90654-26.953003 21.855438-53.889099 32.619858-80.898727.68341-1.714798.491333-4.23256-.235215-5.98671-9.913391-23.934372-21.711837-47.133865-27.992477-72.475906-.131805-.53183-.699463-.955643-1.779724-2.361695-1.844284 5.949112-3.12233 11.177582-5.0616 16.148041-12.741638 32.657272-25.590088 65.273102-38.521271 97.855789-1.240722 3.126312-1.253067 5.730652-.006668 8.910553 9.028488 23.033783 17.82666 46.157807 26.743561 69.235596.336014.869598 1.141754 1.557709 1.892685 2.546448 4.191223-11.192414 8.134918-21.723816 12.340851-32.973389z" fill="#020202"/><path d="m215.04187 324.051697c-4.074814 10.890503-8.018509 21.421905-12.209732 32.614319-.750931-.988739-1.556671-1.67685-1.892685-2.546448-8.916901-23.077789-17.715073-46.201813-26.743561-69.235596-1.246399-3.179901-1.234054-5.784241.006668-8.910553 12.931183-32.582687 25.779633-65.198517 38.521271-97.855789 1.93927-4.970459 3.217316-10.198929 5.0616-16.148041 1.080261 1.406052 1.647919 1.829865 1.779724 2.361695 6.28064 25.342041 18.079086 48.541534 27.992477 72.475906.726548 1.75415.918625 4.271912.235215 5.98671-10.76442 27.009628-21.713318 53.945724-32.750977 81.257797z" fill="#fdfdfd"/></svg>