<svg enable-background="new 0 0 508 510" viewBox="0 0 508 510" xmlns="http://www.w3.org/2000/svg"><path d="m336 511c-111.999969 0-223.499947 0-334.99994 0-.00002-169.999939-.00002-339.999863-.00004-509.999849 169.333201-.00005 338.666423-.00005 507.999736-.000101.000061 169.999797.000061 339.999645.000152 509.999706-57.499908.000244-114.999908.000244-172.999908.000244m-51.901764-297.550568c7.195252 17.862397 14.336029 35.747223 21.666229 53.554078.770478 1.871643 2.657807 3.283477 4.026978 4.90866 1.66626-1.510833 4.085663-2.699737 4.889099-4.579376 22.71698-53.144363 45.274445-106.356918 67.830902-159.569809.538849-1.271217.767548-2.673897 1.383576-4.887123-10.115448 0-19.392151.166123-28.657929-.079048-3.886627-.102852-6.044678 1.06929-7.467499 4.841736-2.752899 7.29895-6.13739 14.356766-9.049225 21.599304-8.051117 20.025009-16.047912 40.072357-23.932403 60.163376-1.538056 3.919235-2.473541 8.074951-3.686981 12.121597-.546448.03952-1.092865.079025-1.639283.11853-.821075-2.540359-1.694274-5.065216-2.455291-7.623458-9.878449-33.20871-25.113617-64.306824-38.021546-96.320588-.582672-1.445076-2.539032-3.616378-3.348541-3.414665-1.531342.381546-3.263458 1.997276-3.923523 3.526818-8.684174 20.123908-17.216812 40.313385-25.746551 60.503723-32.446 76.80133-64.879227 153.608078-97.310791 230.415512-3.844819 9.105682-7.650086 18.228088-11.735955 27.967895 2.278191.135803 3.716896.292084 5.155998.295838 8.831635.023071 17.676957-.276856 26.489106.138244 4.149658.195465 5.879104-1.511871 7.274185-4.94873 5.748215-14.160828 11.818954-28.191895 17.47467-42.388825 14.122345-35.449859 31.321106-69.708954 41.418122-106.724762.323608-1.18637 1.268478-2.203216 1.923751-3.299102 6.771546 24.910339 17.350022 47.672454 26.997361 70.793274 1.186615 2.84378 2.702347 3.79071 5.546158 3.762542 8.664215-.085937 17.329956-.007812 25.994659-.063904 1.066925-.006897 2.131042-.440399 3.540314-.752319-.550751-1.772827-.867981-3.20816-1.429474-4.540588-14.187042-33.664673-28.470215-67.289246-42.467468-101.032547-1.064667-2.566666-.936509-6.243073.004303-8.923828 4.94638-14.0943 10.38208-28.016037 15.536773-42.038544 1.601166-4.355759 2.854401-8.839432 4.606384-14.328018 6.644043 17.562561 12.789643 33.807525 19.113892 50.804107z" fill="#fff"/><path d="m284.008911 213.073624c-6.234924-16.620774-12.380524-32.865738-19.024567-50.428299-1.751983 5.488586-3.005218 9.972259-4.606384 14.328018-5.154693 14.022507-10.590393 27.944244-15.536773 42.038544-.940812 2.680755-1.06897 6.357162-.004303 8.923828 13.997253 33.743301 28.280426 67.367874 42.467468 101.032547.561493 1.332428.878723 2.767761 1.429474 4.540588-1.409272.31192-2.473389.745422-3.540314.752319-8.664703.056092-17.330444-.022033-25.994659.063904-2.843811.028168-4.359543-.918762-5.546158-3.762542-9.647339-23.12082-20.225815-45.882935-26.997361-70.793274-.655273 1.095886-1.600143 2.112732-1.923751 3.299102-10.097016 37.015808-27.295777 71.274903-41.418122 106.724762-5.655716 14.19693-11.726455 28.227997-17.47467 42.388825-1.395081 3.436859-3.124527 5.144195-7.274185 4.94873-8.812149-.4151-17.657471-.115173-26.489106-.138244-1.439102-.003754-2.877807-.160035-5.155998-.295838 4.085869-9.739807 7.891136-18.862213 11.735955-27.967895 32.431564-76.807434 64.864791-153.614182 97.310791-230.415512 8.529739-20.190338 17.062377-40.379815 25.746551-60.503723.660065-1.529542 2.392181-3.145272 3.923523-3.526818.809509-.201713 2.765869 1.969589 3.348541 3.414665 12.907929 32.013764 28.143097 63.111878 38.021546 96.320588.761017 2.558242 1.634216 5.083099 2.455291 7.623458.546418-.039505 1.092835-.07901 1.639283-.11853 1.21344-4.046646 2.148925-8.202362 3.686981-12.121597 7.884491-20.091019 15.881286-40.138367 23.932403-60.163376 2.911835-7.242538 6.296326-14.300354 9.049225-21.599304 1.422821-3.772446 3.580872-4.944588 7.467499-4.841736 9.265778.245171 18.542481.079048 28.657929.079048-.616028 2.213226-.844727 3.615906-1.383576 4.887123-22.556457 53.212891-45.113922 106.425446-67.830902 159.569809-.803436 1.879639-3.222839 3.068543-4.889099 4.579376-1.369171-1.625183-3.2565-3.037017-4.026978-4.90866-7.3302-17.806855-14.470977-35.691681-21.755554-53.929886z" fill="#020202"/></svg>