<svg enable-background="new 0 0 508 510" viewBox="0 0 508 510" xmlns="http://www.w3.org/2000/svg"><path d="m288 511c-95.999985 0-191.499954 0-286.999949 0-.000017-169.999939-.000017-339.999878-.000034-509.999857 169.33322-.000048 338.666456-.000048 507.999739-.000096.000091 169.999816.000091 339.999678.000183 509.999739-73.499939.000214-146.999939.000214-220.999939.000214m-150.541245-250.943695c2.32425-2.318939 5.256608-4.278717 6.873032-7.015686 9.729141-16.47348.029938-35.498367-18.906296-37.27565-3.437904-.322647-6.995002-.215302-10.415382.269684-11.09848 1.573639-18.129776 9.056839-18.982193 19.811813-1.129639 14.25293 3.926743 23.580841 15.239662 26.919952 8.697067 2.567017 17.396195 2.281067 26.191177-2.710113m53.036057 86.664673c-1.641312-.240387-3.283936-.69281-4.923676-.682617-5.63681.034973-9.43518 2.651702-10.711486 7.165924-1.785202 6.314148-.240799 12.331634 3.814453 14.862487 5.448959 3.400544 14.581344 1.904786 17.529403-2.871093 3.877076-6.280884 1.620347-14.677765-5.708694-18.474701m-1.747269-138.863983c-9.178726-1.080429-13.263412 1.763824-14.444854 10.058242-.965378 6.777604 2.135757 11.92807 7.825988 12.997666 8.000519 1.503845 13.724732-1.24466 15.303589-7.348114 2.039978-7.886032-.805771-13.517151-8.684723-15.707794m113.678727-16.545166c-4.931519-6.662568-16.372101-6.715241-20.403382-.093949-2.5643 4.211823-2.312866 11.668244.510559 15.141052 2.802552 3.447144 10.417298 4.910737 15.361115 2.95253 4.409332-1.74649 6.613647-6.19963 6.019439-12.466796-.155487-1.640244-.691467-3.2444-1.487731-5.532837m50.640991 144.398346c1.357239-3.39032 3.665527-6.722199 3.878296-10.182892.476959-7.757813-4.188385-11.753022-12.181458-11.569336-7.457733.171325-11.389801 4.387634-11.330963 12.149994.057617 7.600616 4.199615 11.86856 11.748657 11.64328 2.411103-.07193 4.793701-1.098481 7.885468-2.041046m-197.424179-.814118c2.591491.961975 5.114257 2.423065 7.787521 2.791168 7.630295 1.050873 12.493378-3.207245 12.810547-10.726074.367004-8.699524-3.559982-13.075592-11.68013-13.015839-10.846512.079804-15.445694 10.009369-8.917938 20.950745m67.406082-147.783111c-1.477387-.244172-2.946655-.570176-4.433609-.718094-5.830033-.579956-10.332581 1.969467-11.998902 6.727874-1.980194 5.654816-.426132 12.437684 3.443345 15.028901 5.303405 3.551467 14.515228 2.302032 17.676727-2.397599 3.761642-5.591751 1.815979-14.528442-4.687561-18.641082m116.384857 53.568435c-6.059692 3.660141-7.943817 12.768723-3.846771 18.596817 3.142456 4.470185 12.792999 5.455536 17.699402 1.807221 3.400024-2.528138 5.032745-8.911301 3.433502-14.260834-1.337799-4.474945-4.439423-6.936295-9.185639-6.952438-2.475647-.008408-4.95224.267242-8.100494.809234m-36.269104 133.021622c-3.936554-7.516632-15.412933-9.043732-20.461304-2.722656-3.048553 3.817077-3.309143 11.616516-.517517 15.488189 2.551331 3.538422 10.397125 5.230866 15.682465 3.382874 4.129852-1.44397 6.367554-5.572815 6.101929-11.428314-.059754-1.317658-.376801-2.623658-.805573-4.720093m-151.456238-95.865967c-6.510635 3.47818-8.799072 12.156464-4.609909 18.169281 3.519409 5.051483 8.874649 4.603821 13.989258 3.861939 4.168533-.604706 6.52417-3.419709 7.429703-7.603485 2.400711-11.091797-3.814179-16.817475-16.809052-14.427735m24.344681-29.473083c-1.60257-6.937012-5.136185-9.208969-13.254654-8.522049-6.776932.57341-9.928406 4.025222-10.085937 11.047134-.164444 7.3302 3.000946 11.359589 9.566268 12.177429 10.221589 1.273316 14.220414-2.748657 13.774323-14.702514m150.070786 121.418487c8.046875-1.803314 10.67044-6.146271 9.112274-15.084137-1.02771-5.894989-4.381928-8.560303-10.815918-8.594482-6.717041-.035675-10.509217 2.721618-11.580689 8.420379-1.911194 10.165162 1.918335 14.889801 13.284333 15.25824m-80.988068-171.582199c3.910049 4.335541 10.545471 5.753235 15.770416 3.369461 4.001923-1.825821 6.097473-6.428879 5.586517-12.271347-.609375-6.96756-3.908752-10.129318-10.824569-10.372909-7.608109-.267975-11.543671 2.683761-12.186157 9.912933-.250931 2.823349.850296 5.766846 1.653793 9.361862m90.432068 19.664719c-1.22226-7.298294-3.158539-9.40181-9.340393-10.147034-6.270386-.75592-11.440003 1.369476-12.851258 5.96022-2.797393 9.100113-.322662 18.575455 12.624787 17.413422 6.781006-.608612 9.01773-3.399963 9.566864-13.226608m-129.526078 159.017608c-.021698 1.326477-.123107 2.657288-.050659 3.978608.253174 4.617767 2.375412 7.898101 7.006501 9.102172 6.359542 1.653412 12.439498.086274 14.748001-4.08905 2.551284-4.614441 2.859527-9.625732.104339-14.199921-2.639969-4.382873-7.267074-4.80545-11.879883-4.39862-5.386077.475006-8.981277 3.12912-9.928299 9.606811m52.411088-1.865142c-1.987153-.024933-3.989274-.218079-5.958603-.042817-5.581803.496704-8.102326 3.168854-9.058121 9.335266-.927017 5.980835 1.328949 11.177826 5.699493 13.129792 6.132569 2.738891 14.149933.320801 16.403351-4.947357 2.979645-6.966004.306275-14.319428-7.08612-17.474884m89.282257-97.128754c-4.872254 1.733215-6.083985 5.842895-6.366547 10.306793-.482452 7.622345 3.898041 11.97226 11.834564 12.061554 7.691254.086578 11.646668-3.920868 11.554596-11.706573-.091614-7.744141-4.212555-11.812897-11.801544-11.547303-1.48587.052002-2.960388.426392-5.221069.885529z" fill="#fff"/><path d="m137.152924 260.263733c-8.489151 4.783752-17.188279 5.069702-25.885346 2.502685-11.312919-3.339111-16.369301-12.667022-15.239662-26.919952.852417-10.754974 7.883713-18.238174 18.982193-19.811813 3.42038-.484986 6.977478-.592331 10.415382-.269684 18.936234 1.777283 28.635437 20.80217 18.906296 37.27565-1.616424 2.736969-4.548782 4.696747-7.178863 7.223114z" fill="#020202"/><g fill="#050505"><path d="m190.888565 346.802856c6.935288 3.715058 9.192017 12.111939 5.314941 18.392823-2.948059 4.775879-12.080444 6.271637-17.529403 2.871093-4.055252-2.530853-5.599655-8.548339-3.814453-14.862487 1.276306-4.514222 5.074676-7.130951 10.711486-7.165924 1.63974-.010193 3.282364.44223 5.317429.764495z"/><path d="m189.139389 207.893677c7.487106 2.153961 10.332855 7.78508 8.292877 15.671112-1.578857 6.103454-7.30307 8.851959-15.303589 7.348114-5.690231-1.069596-8.791366-6.220062-7.825988-12.997666 1.181442-8.294418 5.266128-11.138671 14.8367-10.02156z"/><path d="m302.643799 191.645676c.578735 1.95459 1.114715 3.558746 1.270202 5.19899.594208 6.267166-1.610107 10.720306-6.019439 12.466796-4.943817 1.958207-12.558563.494614-15.361115-2.95253-2.823425-3.472808-3.074859-10.929229-.510559-15.141052 4.031281-6.621292 15.471863-6.568619 20.620911.427796z"/><path d="m352.719208 335.886566c-2.743714.766174-5.126312 1.792725-7.537415 1.864655-7.549042.22528-11.69104-4.042664-11.748657-11.64328-.058838-7.76236 3.87323-11.978669 11.330963-12.149994 7.993073-.183686 12.658417 3.811523 12.181458 11.569336-.212769 3.460693-2.521057 6.792572-4.226349 10.359283z"/><path d="m155.376709 334.62262c-6.261383-10.667939-1.662201-20.597504 9.184311-20.677308 8.120148-.059753 12.047134 4.316315 11.68013 13.015839-.317169 7.518829-5.180252 11.776947-12.810547 10.726074-2.673264-.368103-5.19603-1.829193-8.053894-3.064605z"/><path d="m223.401123 187.284729c6.151581 3.940857 8.097244 12.877548 4.335602 18.469299-3.161499 4.699631-12.373322 5.949066-17.676727 2.397599-3.869477-2.591217-5.423539-9.374085-3.443345-15.028901 1.666321-4.758407 6.168869-7.30783 11.998902-6.727874 1.486954.147918 2.956222.473922 4.785568.889877z"/><path d="m339.770081 240.48407c2.812194-.344681 5.288787-.620331 7.764434-.611923 4.746216.016143 7.84784 2.477493 9.185639 6.952438 1.599243 5.349533-.033478 11.732696-3.433502 14.260834-4.906403 3.648315-14.556946 2.662964-17.699402-1.807221-4.097046-5.828094-2.212921-14.936676 4.182831-18.794128z"/><path d="m303.279999 374.09552c.31369 1.703918.630737 3.009918.690491 4.327576.265625 5.855499-1.972077 9.984344-6.101929 11.428314-5.28534 1.847992-13.131134.155548-15.682465-3.382874-2.791626-3.871673-2.531036-11.671112.517517-15.488189 5.048371-6.321076 16.52475-4.793976 20.576386 3.115173z"/><path d="m152.102142 277.726868c12.60141-2.279572 18.8163 3.446106 16.415589 14.537903-.905533 4.183776-3.26117 6.998779-7.429703 7.603485-5.114609.741882-10.469849 1.189544-13.989258-3.861939-4.189163-6.012817-1.900726-14.691101 5.003372-18.279449z"/></g><path d="m176.086609 248.7547c.412842 11.56311-3.585983 15.585083-13.807572 14.311767-6.565322-.81784-9.730712-4.847229-9.566268-12.177429.157531-7.021912 3.309005-10.473724 10.085937-11.047134 8.118469-.68692 11.652084 1.585037 13.287903 8.912796z" fill="#020202"/><path d="m325.71106 369.838379c-10.952912-.424378-14.782441-5.149017-12.871247-15.314179 1.071472-5.698761 4.863648-8.456054 11.580689-8.420379 6.43399.034179 9.788208 2.699493 10.815918 8.594482 1.558166 8.937866-1.065399 13.280823-9.52536 15.140076z" fill="#050505"/><path d="m244.97702 197.847122c-.644439-3.241897-1.745666-6.185394-1.494735-9.008743.642486-7.229172 4.578048-10.180908 12.186157-9.912933 6.915817.243591 10.215194 3.405349 10.824569 10.372909.510956 5.842468-1.584594 10.445526-5.586517 12.271347-5.224945 2.383774-11.860367.96608-15.929474-3.72258z" fill="#050505"/><path d="m335.632324 218.272568c-.613312 9.419037-2.850036 12.210388-9.631042 12.819-12.947449 1.162033-15.42218-8.313309-12.624787-17.413422 1.411255-4.590744 6.580872-6.71614 12.851258-5.96022 6.181854.745224 8.118133 2.84874 9.404571 10.554642z" fill="#050505"/><path d="m206.08667 376.463501c.90242-6.058624 4.49762-8.712738 9.883697-9.187744 4.612809-.40683 9.239914.015747 11.879883 4.39862 2.755188 4.574189 2.446945 9.58548-.104339 14.199921-2.308503 4.175324-8.388459 5.742462-14.748001 4.08905-4.631089-1.204071-6.753327-4.484405-7.006501-9.102172-.072448-1.32132.028961-2.652131.095261-4.397675z" fill="#050505"/><path d="m258.836273 375.06311c7.009278 3.109772 9.682648 10.463196 6.703003 17.4292-2.253418 5.268158-10.270782 7.686248-16.403351 4.947357-4.370544-1.951966-6.62651-7.148957-5.699493-13.129792.955795-6.166412 3.476318-8.838562 9.058121-9.335266 1.969329-.175262 3.97145.017884 6.34172.088501z" fill="#050505"/><path d="m348.125854 277.771973c1.87024-.342438 3.344758-.716828 4.830628-.76883 7.588989-.265594 11.70993 3.803162 11.801544 11.547303.092072 7.785705-3.863342 11.793151-11.554596 11.706573-7.936523-.089294-12.317016-4.439209-11.834564-12.061554.282562-4.463898 1.494293-8.573578 6.756988-10.423492z" fill="#050505"/></svg>