<svg enable-background="new 0 0 496 496" viewBox="0 0 496 496" xmlns="http://www.w3.org/2000/svg"><path d="m167.481445 469.224182c-3.617126-7.050201-3.542419-14.227539-2.212021-21.287811 1.925232-10.217041 9.293473-14.756714 18.863007-16.640412 11.63649-2.290649 24.324616 1.644379 29.051483 9.7211 5.230911 8.937958 5.488877 18.583802.853272 27.684632-4.339829 8.520111-12.481202 11.423431-21.693558 11.696167-9.956833.294738-18.917099-1.612061-24.862183-11.173676z"/><path d="m181.273026 231.173706c-7.173707-3.539856-9.335679-9.487259-6.611939-17.197037 1.887283-5.342178 7.218033-7.912826 13.827576-6.668091 7.356384 1.385392 10.105285 5.020829 9.84227 13.016556-.28592 8.691727-5.18126 11.899704-17.057907 10.848572z"/><path d="m171.899384 262.18634c-3.126038 1.386017-5.960572 1.92688-9.022141 1.45221-7.888458-1.223053-11.462509-6.117859-10.373123-14.410385.970016-7.383789 5.895477-10.921418 13.71878-10.007401 4.593354.536652 8.693604 2.031723 9.820115 6.934982 1.31958 5.743729 1.728469 11.586869-4.143631 16.030594z"/><path d="m281.4198 205.236374c-2.710663-5.838028-2.526184-11.379517 1.523346-15.777771 3.969482-4.311295 9.483734-4.406952 14.873932-2.648224 4.983795 1.626099 7.255798 6.808167 6.456512 14.217804-.566132 5.248245-3.784241 8.780029-8.87381 9.230881-5.208679.461395-10.477905.66922-13.97998-5.02269z"/><path d="m347.424133 263.546234c-11.658935.675537-17.920654-8.392471-13.270965-18.566421 2.061096-4.509903 7.902801-6.653229 14.691742-5.390458 5.69165 1.058686 8.2518 4.017243 8.510223 9.834778.404358 9.102143-2.050629 12.717926-9.931 14.122101z"/><path d="m193.279251 368.622131c-5.91925 2.41861-11.602814 2.894318-16.222214-1.375946-4.006744-3.703949-3.999099-8.854278-2.685699-13.934723 1.129776-4.370056 4.137909-6.791656 8.414627-7.388061 4.868668-.678986 9.784241-.549622 13.18338 3.779327 4.163437 5.302338 2.925781 14.289246-2.690094 18.919403z"/><path d="m340.111877 337.373352c-7.149169-3.703705-9.339965-12.825684-5.013885-19.318359 3.340576-5.013611 13.33902-6.19159 18.503479-2.091828 4.802216 3.812165 4.180725 9.216339 3.494934 14.274079-.599091 4.418029-3.960785 6.653808-8.227142 7.595916-2.845002.628296-5.607575.541352-8.757386-.459808z"/><path d="m220.376617 186.172699c6.569779 1.016632 9.173798 5.234543 9.650971 10.831955.389786 4.572388-.347824 9.049744-4.87526 11.729492-4.222564 2.499313-12.141525 2.258286-15.725524-.426269-3.674927-2.75264-5.205384-10.421311-3.138962-15.728287 1.939667-4.981415 6.437088-7.121674 14.088775-6.406891z"/><path d="m176.315155 322.02063c1.893051 12.361572-4.877319 18.607147-16.160309 15.474579-4.549225-1.263062-7.021866-4.011048-7.621948-8.700165-.643936-5.031769-.261993-9.774139 4.105911-13.037048 6.730286-5.027649 16.529373-2.00116 19.676346 6.262634z"/><path d="m326.602631 370.192566c-12.046265.13501-17.245606-6.488312-13.914521-17.137512 1.611603-5.152283 5.520142-7.523529 12.13205-7.36026 6.090179.150329 9.143982 2.395263 10.616547 7.804443 2.384368 8.758759-.348328 14.16626-8.834076 16.693329z"/><path d="m303.03714 372.443329c1.947845 5.66925 2.557617 11.146881-1.564087 15.410309-3.593994 3.717529-8.528015 3.868805-13.536652 2.622223-4.391754-1.09311-7.049072-3.72699-7.876098-8.030915-.920807-4.791809-.322876-9.430481 3.514099-12.873474 5.438721-4.880188 15.047943-3.529114 19.462738 2.871857z"/><path d="m206.42691 384.957642c-.39215-2.014801-.752121-3.651215-.785522-5.29422-.137756-6.778809 1.881042-10.352478 6.665512-12.060089 5.482925-1.956879 12.483261-.661408 15.349045 2.840515 3.023819 3.695007 3.051147 10.904632.62207 15.634338-2.995117 5.831879-17.99382 7.618317-21.851105-1.120544z"/><path d="m244.252167 197.351593c-.526444-1.461639-.937592-2.558868-1.168442-3.692795-1.346878-6.615509 1.469818-12.730819 6.639893-14.509521 6.60292-2.271637 13.848983.042648 16.113266 5.146377 2.780395 6.26709 1.036499 14.132508-3.778016 17.039795-5.934112 3.583374-13.394271 2.042725-17.806701-3.983856z"/><path d="m336.224731 219.942017c-1.748199 10.442092-9.119659 14.621734-18.119598 10.693298-5.144653-2.245636-7.405426-8.54419-5.534821-15.420166 1.548829-5.693283 6.712739-8.954224 12.982392-8.198151 7.215301.870102 9.487457 3.529419 10.672027 12.925019z"/><path d="m257.336639 398.610657c-5.284774.664673-9.823288.063934-12.550811-4.623322-2.903077-4.988952-2.8676-10.213196.017974-15.198181 2.394013-4.135834 9.296067-5.712219 15.375214-3.812744 4.499268 1.405823 7.499115 6.776398 6.999939 12.53186-.565857 6.523987-3.234863 9.635254-9.842316 11.102387z"/><path d="m146.400604 281.727356c4.347138-5.127502 11.736389-6.655609 17.32518-3.881561 4.584168 2.27539 6.834763 8.581237 5.280594 14.795471-1.295547 5.180115-5.225662 7.962524-11.615402 8.223419-5.769577.235565-10.102478-2.381103-11.838272-7.189758-1.426392-3.951538-1.119049-7.822541.8479-11.947571z"/><path d="m353.06665 300.764496c-10.138794-1.425354-14.021453-7.185486-11.450439-16.428955 1.450775-5.215912 4.961365-7.583832 11.358978-7.661774 6.770508-.082458 9.745117 1.828674 11.440033 7.350037 2.885254 9.398987-1.000946 15.350372-11.348572 16.740692z"/></svg>