<svg enable-background="new 0 0 496 496" viewBox="0 0 496 496" xmlns="http://www.w3.org/2000/svg"><path d="m127.101135 216c-.001594 13.819-.128029 27.139801.063965 40.455994.065376 4.533752-1.466507 6.161132-6.094307 5.981842-8.478317-.328492-16.979423-.186371-25.468445-.062714-3.370247.049072-4.821968-1.190704-4.812935-4.645691.072709-27.803238.085976-55.60675.035401-83.410049-.00621-3.415116 1.325477-4.729798 4.751343-4.675888 8.821655.138839 17.65055.191345 26.469261-.022477 4.096466-.099304 5.130104 1.756592 5.101211 5.422684-.106262 13.484711-.044311 26.970764-.045494 40.956299z"/><path d="m186.814148 206.950409c8.733414 1.864746 11.311218 4.539871 11.514526 11.575653.312683 10.820129-9.429245 16.830582-19.139709 11.788925-5.09932-2.647537-5.876755-7.317383-5.396362-12.340027.468673-4.900222 2.220459-9.0849 7.717193-10.29689 1.610184-.355041 3.261063-.525558 5.304352-.727661z"/><path d="m176.817871 250.240707c-1.054916 11.061783-5.096298 14.711594-14.229629 13.314743-7.412034-1.133606-11.077912-6.012878-10.245133-13.636245.835709-7.650162 5.445358-11.43338 13.171295-10.809922 7.334534.591904 9.939301 3.079957 11.303467 11.131424z"/><path d="m332.876343 251.020599c.671356-6.187454 2.80133-10.469619 9.375152-11.51358 11.504761-1.827057 18.477082 6.254044 14.616364 17.262909-1.618103 4.613983-6.161224 7.313171-12.019684 7.141083-6.156067-.180817-9.839294-2.822571-11.144104-8.064743-.36084-1.449662-.563049-2.938813-.827728-4.825669z"/><path d="m197.355438 352.187927c3.369599 13.146271-3.613693 20.783234-15.56932 17.664704-4.816727-1.256409-7.272126-4.490479-7.872986-9.145111-.635727-4.924836-.23732-9.768769 4.263778-12.978425 5.983384-4.266754 15.147049-2.215728 19.178528 4.458832z"/><path d="m283.732605 188.599091c8.634216-4.579468 16.502014-3.167099 19.442871 3.198577 2.765472 5.986039 1.275177 13.882798-3.186432 16.8844-4.533386 3.049866-13.859344 2.224304-17.254852-1.527481-4.24057-4.685517-3.964264-12.104569.998413-18.555496z"/><path d="m337.877258 336.445526c-5.298492-5.045959-6.411499-12.2435-3.086242-17.91095 2.487213-4.239135 8.473449-6.086242 14.735168-4.546753 4.99646 1.228486 7.665741 4.875702 7.842255 10.715638.228698 7.566436-1.647217 10.935119-6.997254 12.709381-4.164673 1.381164-8.193908 1.005768-12.493927-.967316z"/><path d="m216.252319 185.858551c11.316971.766495 15.93895 6.898804 13.176575 16.877869-1.668365 6.026992-6.62912 8.565979-14.781128 7.56517-5.488541-.673828-8.708053-4.303864-8.993103-10.13974-.451981-9.253555 1.587097-12.108246 10.597656-14.303299z"/><path d="m164.986832 338.270111c-9.988678-1.322845-13.702149-5.543243-12.654694-13.891235 1.034531-8.244873 5.741623-11.633026 14.798142-10.651734 6.465377.700531 10.31047 5.963471 9.702346 13.28006-.608917 7.32608-3.249405 9.928192-11.845794 11.262909z"/><path d="m322.312469 345.736267c11.680054.062164 17.146424 8.537567 12.581299 18.881378-1.961578 4.444763-5.91159 5.612305-10.265747 5.647614-4.873535.039581-9.329864-1.079468-11.626434-6.055664-3.688934-7.993103.309357-16.249848 9.310882-18.473328z"/><path d="m296.970306 390.397369c-12.625244 2.608643-20.039764-4.844513-16.413848-16.017089 1.754608-5.406525 6.740417-8.209321 13.570098-7.628479 5.959778.506866 9.4375 3.86325 10.137696 9.784027.867218 7.332855-.99524 11.060608-7.293946 13.861541z"/><path d="m206.158218 373.86969c4.00673-7.112457 12.087082-9.278626 19.031449-5.451416 4.928756 2.71637 6.522293 10.762878 3.365341 16.993439-2.185501 4.313354-8.049912 6.592163-13.861206 5.386291-6.103317-1.266479-8.850861-4.261444-9.020477-10.078857-.062607-2.147858.210662-4.305451.484893-6.849457z"/><path d="m320.819275 207.492279c5.42923-1.016952 10.332703-.632202 13.214752 4.069077 3.042999 4.963897 3.19162 10.504684.10202 15.630111-3.912292 6.490235-16.795288 5.98198-20.548919-.672836-3.805024-6.746017-1.221985-18.18512 7.232147-19.026352z"/><path d="m160.496887 276.811584c6.880478 2.37613 8.940247 5.395997 8.825958 12.365662-.092239 5.625885-2.546569 9.436951-7.012069 10.888245-5.936951 1.929474-12.68071.322357-15.457428-3.683777-2.929566-4.226624-2.938797-11.413605.108749-15.547272 3.341049-4.53186 8.232239-4.336517 13.53479-4.022858z"/><path d="m267.13739 189.257004c-.675415 11.235931-7.050537 16.105835-16.682587 13.203399-5.323654-1.604187-8.453277-7.144363-7.613372-13.477478.896438-6.759094 4.27211-10.063476 10.546066-10.323425 8.812485-.365143 11.522842 1.65004 13.749893 10.597504z"/><path d="m267.206085 386.082397c-.503631 12.310059-9.30661 14.065979-16.79187 12.183747-4.935364-1.241059-7.978897-6.427918-7.682907-12.54419.304947-6.300659 3.283447-10.07608 8.728897-11.06427 9.387878-1.703613 13.641327 1.272126 15.74588 11.424713z"/><path d="m359.254883 299.643585c-1.809357.477753-3.263611.888886-4.743317 1.026398-5.990204.556763-10.661682-1.808807-12.476196-6.217651-2.186707-5.313202-.966828-12.46045 2.612488-15.306702 3.880767-3.085968 11.994507-3.427338 16.112457-.677918 6.520172 4.353302 5.867889 16.130951-1.505432 21.175873z"/></svg>