<svg enable-background="new 0 0 496 496" viewBox="0 0 496 496" xmlns="http://www.w3.org/2000/svg"><path d="m235.846436 94.880676c4.092895-6.700142 8.062835-13.05175 11.893661-19.486175 1.41066-2.369377 3.15271-3.593704 6.021729-3.56324 9.987838.106041 19.977554.069091 29.966354.031906 2.361237-.008789 4.158325.600014 5.2211 2.955726 10.879944 24.115235 21.806427 48.209488 32.69635 72.320252.254791.564102.235077 1.252182.378174 2.084595-2.323334 1.653534-4.885437.983413-7.266571 1.016906-6.491486.091294-12.990784-.136291-19.47583.086579-3.508118.120559-5.303498-1.178742-6.798981-4.385132-7.6026-16.300247-14.711823-32.779991-19.96756-50.011284-.184448-.604752-.613769-1.134804-1.320312-2.401009-2.326447 4.184281-4.344758 7.909737-6.450592 11.585053-7.859818 13.717743-15.818818 27.379364-23.570801 41.157577-1.693268 3.009568-3.771652 4.146485-7.188935 4.069962-8.757644-.196106-17.522598-.065445-26.284637-.065445-.331497-.468323-.662994-.936645-.994492-1.404968 10.987732-17.891861 21.97548-35.783737 33.141343-53.991303z"/><path d="m196.884552 212.524628c4.207199 11.78688-.970901 19.708603-12.051514 19.096039-7.861694-.434601-11.723892-5.051713-11.096145-13.264954.590942-7.731323 5.76506-12.235626 13.281921-11.321701 3.806961.46286 7.598709 1.257843 9.865738 5.490616z"/><path d="m153.023453 256.543091c-.350342-1.677506-.759857-2.988648-.742035-4.293976.059784-4.381302.347076-8.885681 4.782043-11.25383 4.973709-2.655807 10.290039-2.756744 15.185547.103546 4.470169 2.611771 4.848053 7.290146 4.413162 11.849549-.648696 6.801315-2.935867 9.40242-8.527664 10.467147-7.427398 1.414246-11.513931-.360534-15.111053-6.872436z"/><path d="m342.689331 239.49057c14.581268-1.515015 16.437103 8.012405 13.898285 17.555908-1.523254 5.725983-8.048859 7.962158-15.53186 6.238404-5.372406-1.237549-8.781891-6.796601-8.096802-13.201538.695801-6.504792 2.999298-9.101304 9.730377-10.592774z"/><path d="m198.335724 358.904053c-.889191 7.571411-3.653351 10.535309-10.13916 11.302734-6.560288.776215-11.372101-1.463104-13.418839-6.244934-2.361328-5.516754-.872024-13.1698 3.132492-16.097107 4.152314-3.035339 12.643189-3.020447 16.545502.238403 3.187119 2.661622 4.063858 6.355927 3.880005 10.800904z"/><path d="m281.436218 205.241043c-2.762268-5.837067-2.490509-11.376144 1.533051-15.747223 3.941376-4.281814 9.440429-4.474579 14.845825-2.680588 4.949463 1.64267 7.254517 6.856064 6.454987 14.198685-.568696 5.222702-3.803009 8.791275-8.847657 9.238297-5.204742.461227-10.447876.591064-13.986206-5.009171z"/><path d="m333.724945 321.153595c3.518433-7.346069 11.830231-9.861755 18.610901-6.011475 5.096435 2.89386 7.048401 12.205567 3.740936 17.845917-2.752502 4.694-9.516632 6.534607-16.045685 4.366333-4.792694-1.591644-7.620086-6.483185-7.085388-12.387268.104126-1.149994.466614-2.27652.779236-3.813507z"/><path d="m172.227036 315.486969c4.955459 5.076019 5.990142 12.843994 2.717132 18.032654-2.707046 4.291443-8.870712 5.836731-15.295181 3.834686-5.152268-1.605591-7.858429-5.953949-7.489975-12.035248.39154-6.462188 3.591202-10.701843 9.052185-11.451568 3.620407-.49701 7.326385-.638794 11.015839 1.619476z"/><path d="m219.560776 185.99588c9.944427 1.000153 12.09671 10.962311 9.546783 18.019882-2.105987 5.828812-10.787338 8.441651-17.638992 5.387162-5.87291-2.618164-6.01445-7.754837-5.802979-13.077851.192383-4.842712 2.368439-8.21788 7.115906-9.649505 2.063309-.622177 4.164932-1.211991 6.779282-.679688z"/><path d="m314.931 367.10498c-4.08313-5.395935-3.99701-10.848602-1.234802-16.260803 2.156463-4.225281 6.24118-5.161285 10.616821-5.152252 7.939392.016388 12.117523 4.470917 11.933197 12.703003-.175415 7.834778-4.473999 12.032501-12.214997 11.903839-3.238128-.053802-6.250885-.826202-9.100219-3.193787z"/><path d="m304.041626 383.327484c-3.51712 7.430145-11.795074 9.913696-19.021881 6.086029-5.324555-2.820129-7.023071-11.022461-3.572235-17.250488 2.266571-4.090668 8.155884-6.282044 14.069671-5.235291 5.111267.904755 8.149903 4.111298 8.697571 9.514252.21637 2.134399-.034759 4.316193-.173126 6.885498z"/><path d="m205.698792 376.386963c1.793136-6.712097 4.290313-9.140106 10.217956-9.561005 4.927383-.349853 9.923676.064759 12.602158 5.083985 2.72554 5.10736 2.240478 10.378265-.995102 15.114959-2.593018 3.79599-9.573349 5.134705-15.172303 3.214722-4.673812-1.602692-6.806366-5.042328-6.720886-9.927124.020355-1.16391.031784-2.327911.068177-3.925537z"/><path d="m334.669312 226.317444c-4.362092 5.67717-13.102906 7.071152-18.380433 3.241638-4.756713-3.451584-5.934661-12.089569-2.413086-17.695129 2.985169-4.751709 11.548188-6.429612 17.073914-3.345536 4.854095 2.709198 6.360413 9.413224 3.719605 17.799027z"/><path d="m265.993896 392.535583c-4.163543 6.573182-13.153213 8.43219-18.807693 4.231385-4.958542-3.683747-5.995453-13.406739-1.987503-18.636933 2.814682-3.673034 10.318466-5.043487 15.7052-2.868316 4.147949 1.674927 6.88263 7.092712 6.222748 12.526367-.17923 1.475983-.646271 2.917023-1.132752 4.747497z"/><path d="m169.295975 287.22113c-.132248 9.662568-4.358643 14.002777-12.847611 13.645569-7.717117-.324798-12.119949-5.193115-11.744385-12.986084.316514-6.567901 4.139969-10.692871 10.355698-11.172394 8.792908-.678283 12.576752 2.003632 14.236298 10.512909z"/><path d="m251.696136 202.758499c-6.305358-1.302353-8.470291-5.638367-8.814331-10.942337-.308609-4.757538.64824-9.335556 5.386399-11.955276 4.036194-2.231644 11.837204-1.57956 15.151779 1.163971 3.634949 3.008743 4.797241 10.271118 2.516937 15.726638-2.004486 4.79567-6.725525 6.879349-14.240784 6.007004z"/><path d="m348.346619 300.078796c-7.101654-3.681121-9.444733-11.595306-5.77591-18.333648 2.815705-5.171448 12.165894-6.983765 17.878784-3.465424 3.991883 2.458496 5.840485 9.112549 4.12323 14.841919-1.568023 5.231476-5.313903 7.777771-11.391693 7.623718-1.488434-.03775-2.969604-.363983-4.834411-.666565z"/></svg>