<svg enable-background="new 0 0 496 496" viewBox="0 0 496 496" xmlns="http://www.w3.org/2000/svg"><path d="m93.655777 201.999924c.002411-9.330384.091255-18.162003-.037567-26.990479-.046837-3.209167 1.130333-4.444427 4.363556-4.396484 8.828415.13092 17.661903.152359 26.489464-.004135 3.620384-.064194 4.542167 1.6091 4.534233 4.862915-.066315 27.157287-.081223 54.31488-.00885 81.472107.010559 3.959686-1.292504 5.644378-5.522309 5.499908-8.154381-.278534-16.33062-.256653-24.486755-.00354-4.159966.129089-5.448013-1.355865-5.408692-5.459106.174019-18.158966.076485-36.320542.07692-54.981186z"/><path d="m158.426926 458.303619c-.075013 13.686615-4.619126 20.382203-16.138718 24.24408-11.389297 3.818146-25.231483.640655-31.366013-8.037262-6.104385-8.635284-5.56575-18.360413-1.714584-27.675079 3.438889-8.317536 11.139282-11.026001 19.355194-12.032837 3.750809-.459625 7.596024-.360901 11.411423.575165 12.557373 3.080902 18.058517 9.683898 18.452698 22.925933z"/><path d="m176.947418 251.90097c-.815155 9.326539-5.137893 12.657319-14.03952 11.650757-9.557541-1.080719-14.253479-11.947586-8.676666-19.873947 3.582977-5.092514 8.960251-4.977478 14.384842-4.011642 4.674789.832351 7.235702 3.690841 7.795898 8.392822.137054 1.150436.370468 2.289383.535446 3.84201z"/><path d="m192.17334 230.569824c-2.138062.465286-3.927551.93454-5.727738.979981-4.652649.117401-9.154693-.55658-11.400055-5.34726-2.429962-5.184524-2.012191-10.521499 1.136292-15.192077 3.888962-5.769028 16.299667-5.208054 20.186432.625717 3.988388 5.986313 2.195206 14.713958-4.194931 18.933639z"/><path d="m352.026245 262.377014c-2.43927.641083-4.51416 1.388306-6.621948 1.496979-5.85965.302124-10.156281-2.556885-11.600159-7.391235-2.046387-6.851746-.462555-12.77739 4.155365-15.546372 4.544525-2.724975 13.012451-2.199707 16.431671 1.019257 4.986084 4.694046 3.914215 15.455429-2.364929 20.421371z"/><path d="m196.62558 350.72522c2.545212 5.894958 3.02475 11.625091-1.219742 16.203521-3.808197 4.107789-9.202545 4.153412-14.399033 2.603608-4.750167-1.416687-7.194656-5.319153-7.307373-11.149903-.118469-6.128296 2.276856-10.198883 7.004731-11.903625 5.874572-2.118256 11.764618-.655304 15.921417 4.246399z"/><path d="m295.998108 210.243591c-13.099152.696015-19.415283-6.778396-15.175385-17.449875 1.968781-4.955261 7.645935-7.800033 13.634125-6.831924 6.252258 1.010803 9.288513 4.126175 9.836182 10.09256.725891 7.907745-1.318634 11.566711-8.294922 14.189239z"/><path d="m357.2771 322.480713c.36206 12.814453-5.551911 17.995331-16.421418 15.13443-5.227081-1.375824-7.229553-5.054199-7.723205-9.806336-.496582-4.78012.186035-9.413574 4.655609-12.333831 7.219696-4.717011 16.447967-1.541474 19.489014 7.005737z"/><path d="m211.483704 187.04837c1.828384-.50386 3.26921-.978363 4.745987-1.159134 5.863357-.71762 11.304657 2.317109 12.945098 7.122223 2.118668 6.205902.643174 12.693756-3.506546 15.418412-4.57225 3.002121-13.355682 2.652069-16.94667-.675354-5.207718-4.825501-3.898361-16.074234 2.762131-20.706147z"/><path d="m164.986954 338.265991c-9.995102-1.355316-13.680023-5.547424-12.643555-13.892029 1.022141-8.229217 5.743958-11.627929 14.78833-10.644622 6.462845.702636 10.287079 5.943481 9.688278 13.27716-.597549 7.318817-3.219162 9.904236-11.833053 11.259491z"/><path d="m336.225037 357.156799c-.700013 9.092499-3.183258 12.265045-9.869049 13.065979-5.759583.689972-10.903992-1.428131-13.018158-5.359955-2.469086-4.591888-1.844361-11.870422 1.33786-15.587097 2.94696-3.441925 9.817718-4.666107 14.886108-2.817627 4.865234 1.774384 5.861847 5.924256 6.663239 10.6987z"/><path d="m303.952026 374.771851c.211914 1.56372.360688 2.722351.374909 3.882598.089081 7.25705-2.078003 10.437714-8.047089 11.879639-6.484649 1.566437-12.579376-.390503-15.017639-4.822082-2.787384-5.066132-1.695923-12.811463 2.277802-16.163819 4.030761-3.400482 12.244049-3.801788 16.481658-.887695 2.059479 1.41629 2.942994 3.535034 3.930359 6.111359z"/><path d="m216.226318 366.752716c11.476029.284332 16.318879 6.829559 13.018555 16.979889-1.636429 5.032928-7.158646 8.098297-13.254135 7.357422-6.740814-.819336-10.110809-4.248718-10.348373-10.530701-.33371-8.82428 1.945205-11.915863 10.583953-13.80661z"/><path d="m312.774719 214.246674c2.253754-5.975541 7.00589-7.347062 12.194397-7.214341 4.260285.108994 8.336609 1.48227 9.982056 6.085022 1.87442 5.243332 2.05011 10.495957-1.569916 15.14592-2.5979 3.336991-9.945099 4.439743-14.887146 2.537735-4.224274-1.625763-6.997589-6.424011-6.664734-11.776993.091614-1.473678.558899-2.923996.945343-4.777343z"/><path d="m160.175415 300.410034c-10.054413 1.335541-15.702713-3.239105-15.478226-12.171448.171936-6.841064 4.052689-11.100555 10.511261-11.53717 8.236939-.556824 12.748459 2.279907 13.935181 8.762207 1.426804 7.793823-1.494751 12.87381-8.968216 14.946411z"/><path d="m259.733826 398.208496c-11.129547 1.9104-17.073883-2.377441-17.012223-11.901672.050782-7.844239 4.829819-12.417755 12.60727-12.065033 8.028244.364074 12.66539 5.488586 11.804245 13.332031-.508576 4.631958-2.029053 8.790802-7.399292 10.634674z"/><path d="m245.071442 198.724091c-.758988-1.706574-1.447358-3.050354-1.808915-4.476929-1.579406-6.231888.767884-12.411667 5.460267-14.631668 5.20607-2.463013 13.160324-1.035416 16.073257 2.88475 3.294251 4.433411 2.921478 13.323639-.722473 17.229355-3.633423 3.89444-11.690323 4.575623-16.618988 1.344147-.813538-.533402-1.445984-1.343018-2.383148-2.349655z"/><path d="m351.474609 300.541656c-7.171081-1.190551-10.291442-4.645721-10.632385-11.406372-.296936-5.888183 2.622223-10.361053 7.80072-11.952575 5.805878-1.784363 12.096894-.171387 14.504761 3.718902 3.128052 5.054016 2.680023 13.282837-1.051422 16.84845-2.858643 2.731567-6.466644 3.161102-10.621674 2.791595z"/></svg>