<svg enable-background="new 0 0 508 510" viewBox="0 0 508 510" xmlns="http://www.w3.org/2000/svg"><path d="m294 511c-97.999969 0-195.499954 0-292.999948 0-.000017-169.999939-.000017-339.999878-.000035-509.999856 169.33322-.000048 338.666456-.000048 507.999739-.000096.000091 169.999815.000091 339.999677.000183 509.999738-71.499939.000214-142.999939.000214-214.999939.000214m-86.596268-54.707306c-13.058014-8.64035-12.918625-22.592285-14.032303-35.818146-11.6389 0-22.867645 0-34.088821 0 .07309 47.989441 26.624512 71.781861 73.166214 69.213959 0-9.176666 0-18.355469 0-26.150543-8.613449-2.398071-16.531219-4.602448-25.04509-7.24527m-9.857238-94.571411c.892196-4.783661.639007-9.391998-3.082367-12.974152-3.387177-3.260498-11.179413-3.594574-15.527893-.98172-4.059418 2.439148-5.695878 7.951294-4.231888 14.254334 1.177322 5.068848 4.075363 7.328186 10.078949 7.857574 6.267135.552643 10.148758-1.723846 12.763199-8.156036m-20.497223-151.152939c-.963761 2.76947-2.423767 5.474625-2.792786 8.321213-.895966 6.911484 2.826599 11.520492 9.231247 12.139419 9.041489.873734 13.900299-2.44313 14.39267-10.155471.291198-4.561539-.176606-9.256882-4.824875-11.631241-5.143814-2.627472-10.456635-2.593048-16.006256 1.32608m103.245285-10.438049c1.690338 8.005691 6.269043 11.004715 14.958587 9.797775 5.651123-.784912 8.526551-4.355102 8.743409-10.855926.236511-7.089768-2.467133-11.356858-8.212464-12.242173-11.305115-1.742035-15.730102 3.350495-15.489532 13.300324m-116.640488 113.854629c-8.882919 1.306794-11.945496 5.585541-10.705643 14.956971.702057 5.306457 3.957474 8.089752 10.312867 8.817291 5.644653.646118 11.145126-1.84668 12.265777-6.33841 1.937561-7.76593 1.23027-17.503631-11.873001-17.435852m172.320908 20.460999c2.871673 1.12204 5.671417 2.91922 8.629028 3.234222 7.609222.810364 12.240112-3.460357 12.504517-10.769562.30722-8.493011-3.456818-12.741973-11.475373-12.953704-10.697876-.282532-15.564575 9.32492-9.658172 20.489044m-115.070389-124.59639c7.576874-2.324722 9.919311-6.723526 8.202728-15.403732-1.120987-5.668411-6.149094-8.786972-12.905441-8.004257-7.277451.843063-10.324372 4.397735-10.313599 12.032272.012131 8.600067 4.051346 11.870071 15.016312 11.375717m117.151657 51.7621c3.882172.41977 7.825165 1.4664 11.630737 1.096955 4.521973-.439026 7.059662-4.500275 7.378906-9.888016.397004-6.700028-1.550384-10.68924-6.070312-12.43486-5.18811-2.003693-12.93219-.285492-15.541443 3.448166-3.299499 4.721359-2.392029 12.590744 2.602112 17.777755m-45.564026 105.476013c-1.637634.267975-3.312225.399109-4.906036.829438-4.846131 1.30838-6.777924 4.938995-7.229615 9.574524-.418975 4.299896.014191 8.499359 4.109345 10.953094 4.882141 2.925324 10.236908 3.081391 15.147644.316406 4.794434-2.699524 4.743317-7.656952 4.136139-12.382537-.770447-5.996613-2.966309-7.815461-11.257477-9.290925m-116.320404-114.021698c.237091-4.786148.193588-9.667129-4.940125-12.001281-4.707763-2.140488-9.708999-2.230728-14.297561.570297-4.143814 2.529526-4.362839 6.764252-4.112427 11.020996.407684 6.929764 3.982605 10.274094 11.221634 10.618118 7.477219.355378 10.920746-2.338928 12.128479-10.20813m143.391754 93.693787c-5.718689 1.562836-6.9711 6.168396-7.254547 11.147583-.379974 6.674744 2.900757 10.556122 9.479523 11.765198 6.148285 1.129944 11.913025-1.385986 13.106018-6.248139 2.426147-9.887908-.644562-19.59613-15.330994-16.664642m-6.427338-132.794037c-.251007 1.472885-.575439 2.937622-.739929 4.420105-.61972 5.585495 1.726563 10.111496 6.106262 11.896027 4.953553 2.018387 12.184693.789642 14.820893-2.518448 3.784515-4.749069 2.885956-14.878922-1.614533-18.201294-5.402557-3.988296-14.36087-2.157486-18.572693 4.40361m-146.663391 82.942536c3.201218-5.733277 3.225281-12.508942.058213-16.387665-2.719376-3.330414-9.613358-4.571015-14.857163-2.673584-4.477447 1.620117-6.948471 5.987182-6.58432 11.636383.36348 5.638306 2.985825 9.43573 7.654663 10.30896 4.618683.86383 9.275696 1.027313 13.728607-2.884094m59.449677 72.540313c-2.329529-.781311-4.609146-1.975647-6.998215-2.264373-6.445907-.779023-11.356048 2.461608-12.641907 7.905914-1.590087 6.732391.624772 12.625305 5.471375 14.55722 5.205124 2.07486 12.879333.543579 15.593948-3.111572 3.386658-4.560089 3.054169-11.328552-1.425201-17.087189m17.876129-174.898773c.922806 5.902908 5.191086 7.633194 10.317291 8.09082 7.526429.671891 12.052399-3.525924 12.455078-11.374404.398621-7.768784-3.414489-12.081391-10.912429-12.341813-9.307099-.323272-13.57898 4.960724-11.85994 15.625397m22.77713 191.940399c-1.186371-9.81961-5.875366-13.288635-15.451324-11.431274-4.912918.952881-7.83696 5.026092-7.961609 11.090546-.121994 5.93518 2.72229 10.562408 7.231933 11.765289 9.14975 2.440582 14.75412-1.243103 16.181-11.424561m77.338684-106.03302c-3.901336 4.430695-2.898926 14.322357.865204 17.368714 3.644318 2.949402 12.05011 3.265716 15.951111.478912 3.607513-2.577148 5.099762-9.559784 3.214081-15.039398-1.537293-4.467468-6.198212-7.002655-12.242279-6.103302-2.513703.374054-4.875183 1.771088-7.788117 3.295074z" fill="#fff"/><path d="m207.701782 456.511902c8.215821 2.423614 16.133591 4.627991 24.74704 7.026062v26.150543c-46.541702 2.567902-73.093124-21.224518-73.166214-69.213959h34.088821c1.113678 13.225861.974289 27.177796 14.330353 36.037354z" fill="#030303"/><path d="m197.447784 362.114563c-2.515731 6.03891-6.397354 8.315399-12.664489 7.762756-6.003586-.529388-8.901627-2.788726-10.078949-7.857574-1.46399-6.30304.17247-11.815186 4.231888-14.254334 4.34848-2.612854 12.140716-2.278778 15.527893.98172 3.721374 3.582154 3.974563 8.190491 2.983657 13.367432z" fill="#050505"/><path d="m177.336166 210.317215c5.262726-3.667999 10.575547-3.702423 15.719361-1.074951 4.648269 2.374359 5.116073 7.069702 4.824875 11.631241-.492371 7.712341-5.351181 11.029205-14.39267 10.155471-6.404648-.618927-10.127213-5.227935-9.231247-12.139419.369019-2.846588 1.829025-5.551743 3.079681-8.572342z" fill="#050505"/><path d="m280.233093 199.7211c-.179107-9.540634 4.24588-14.633164 15.550995-12.891129 5.745331.885315 8.448975 5.152405 8.212464 12.242173-.216858 6.500824-3.092286 10.071014-8.743409 10.855926-8.689544 1.20694-13.268249-1.792084-15.02005-10.20697z" fill="#050505"/><path d="m164.080154 313.964233c12.677185-.047088 13.384476 9.690613 11.446915 17.456543-1.120651 4.49173-6.621124 6.984528-12.265777 6.33841-6.355393-.727539-9.61081-3.510834-10.312867-8.817291-1.239853-9.37143 1.822724-13.650177 11.131729-14.977662z" fill="#050505"/><path d="m335.783325 334.112915c-5.714752-10.831116-.848053-20.438568 9.849823-20.156036 8.018555.211731 11.782593 4.460693 11.475373 12.953704-.264405 7.309205-4.895295 11.579926-12.504517 10.769562-2.957611-.315002-5.757355-2.112182-8.820679-3.56723z" fill="#050505"/><path d="m220.484985 209.900299c-10.545364.443588-14.584579-2.826416-14.59671-11.426483-.010773-7.634537 3.036148-11.189209 10.313599-12.032272 6.756347-.782715 11.784454 2.335846 12.905441 8.004257 1.716583 8.680206-.625854 13.07901-8.62233 15.454498z" fill="#050505"/><path d="m337.75354 261.380035c-4.691437-4.955413-5.598907-12.824798-2.299408-17.546157 2.609253-3.733658 10.353333-5.451859 15.541443-3.448166 4.519928 1.74562 6.467316 5.734832 6.070312 12.43486-.319244 5.387741-2.856933 9.44899-7.378906 9.888016-3.805572.369445-7.748565-.677185-11.933441-1.328553z" fill="#030303"/><path d="m292.906677 367.103088c7.876709 1.460022 10.072571 3.27887 10.843018 9.275483.607178 4.725585.658295 9.683013-4.136139 12.382537-4.910736 2.764985-10.265503 2.608918-15.147644-.316406-4.095154-2.453735-4.52832-6.653198-4.109345-10.953094.451691-4.635529 2.383484-8.266144 7.229615-9.574524 1.593811-.430329 3.268402-.561463 5.320495-.813996z" fill="#050505"/><path d="m176.133896 253.454865c-1.169815 7.480285-4.613342 10.174591-12.090561 9.819213-7.239029-.344024-10.81395-3.688354-11.221634-10.618118-.250412-4.256744-.031387-8.49147 4.112427-11.020996 4.588562-2.801025 9.589798-2.710785 14.297561-.570297 5.133713 2.334152 5.177216 7.215133 4.902207 12.390198z" fill="#030303"/><g fill="#050505"><path d="m319.964111 346.682922c14.285889-2.854675 17.356598 6.853547 14.930451 16.741455-1.192993 4.862153-6.957733 7.378083-13.106018 6.248139-6.578766-1.209076-9.859497-5.090454-9.479523-11.765198.283447-4.979187 1.535858-9.584747 7.65509-11.224396z"/><path d="m313.32428 213.623322c4.023773-6.21872 12.982086-8.04953 18.384643-4.061234 4.500489 3.322372 5.399048 13.452225 1.614533 18.201294-2.6362 3.30809-9.86734 4.536835-14.820893 2.518448-4.379699-1.784531-6.725982-6.310532-6.106262-11.896027.16449-1.482483.488922-2.94722.927979-4.762481z"/><path d="m166.232925 297.208252c-4.212997 3.611389-8.87001 3.447906-13.488693 2.584076-4.668838-.87323-7.291183-4.670654-7.654663-10.30896-.364151-5.649201 2.106873-10.016266 6.58432-11.636383 5.243805-1.897431 12.137787-.65683 14.857163 2.673584 3.167068 3.878723 3.143005 10.654388-.298127 16.687683z"/><path d="m226.226868 369.681641c4.175018 5.525543 4.507507 12.294006 1.120849 16.854095-2.714615 3.655151-10.388824 5.186432-15.593948 3.111572-4.846603-1.931915-7.061462-7.824829-5.471375-14.55722 1.285859-5.444306 6.196-8.684937 12.641907-7.905914 2.389069.288726 4.668686 1.483062 7.302567 2.497467z"/><path d="m243.737549 194.147552c-1.657944-10.262451 2.613937-15.546447 11.921036-15.223175 7.49794.260422 11.31105 4.573029 10.912429 12.341813-.402679 7.84848-4.928649 12.046295-12.455078 11.374404-5.126205-.457626-9.394485-2.187912-10.378387-8.493042z"/><path d="m266.560333 386.894806c-1.411438 9.776825-7.015808 13.46051-16.165558 11.019928-4.509643-1.202881-7.353927-5.830109-7.231933-11.765289.124649-6.064454 3.048691-10.137665 7.961609-11.090546 9.575958-1.857361 14.264953 1.611664 15.435882 11.835907z"/><path d="m344.155579 280.161072c2.671814-1.227905 5.033294-2.624939 7.546997-2.998993 6.044067-.899353 10.704986 1.635834 12.242279 6.103302 1.885681 5.479614.393432 12.46225-3.214081 15.039398-3.901001 2.786804-12.306793 2.47049-15.951111-.478912-3.76413-3.046357-4.76654-12.938019-.624084-17.664795z"/></g></svg>