<svg enable-background="new 0 0 508 510" viewBox="0 0 508 510" xmlns="http://www.w3.org/2000/svg"><path d="m231 511c-76.999985 0-153.499962 0-229.999959 0-.000014-169.999939-.000014-339.999878-.000027-509.999868 169.333223-.000044 338.666459-.000044 507.999742-.000088.000091 169.999819.000091 339.999681.000183 509.999742-92.499939.000214-184.999939.000214-277.999939.000214m-72.485733-320.92775c11.301971-20.086822 22.603958-40.17366 34.093277-60.593429-10.461273-4.445343-20.467407-8.697289-30.657929-13.02758-15.325469 27.237083-30.375167 53.984062-45.652793 81.1361 10.381042 4.420563 20.376091 8.676743 30.637107 13.046173 3.898575-6.944488 7.54448-13.438903 11.580338-20.561264m29.556702 156.129746c-7.161942-.342041-11.2034 1.534942-12.960617 6.019287-2.058472 5.253143-.774216 12.569244 2.689086 15.318848 3.489228 2.770233 10.858735 3.128479 15.177536.686004 4.844208-2.739654 5.257874-7.355591 4.830979-12.141327-.483276-5.417755-3.297043-8.919372-9.736984-9.882812m-7.86232-137.794327c-6.94484 4.639816-8.306717 16.120712-2.444352 20.606262 3.83725 2.936066 12.757142 2.872513 16.562836-.117965 3.3909-2.664551 4.689285-9.647858 2.766281-14.87819-1.726593-4.696029-6.304641-6.993072-12.696426-6.353347-1.159424.116043-2.313019.290359-4.188339.74324m118.027282.750015c7.195862-4.569473 7.876526-16.925277 1.164612-21.139999-3.950439-2.480667-12.040375-1.997665-15.589477.930756-3.17984 2.623748-4.535523 9.38594-2.887635 14.403396 1.445984 4.40268 5.576325 6.844071 11.62674 6.732971 1.651611-.030319 3.297272-.384613 5.68576-.927124m52.181916 105.568421c-3.125397-.092163-6.327179-.654419-9.357605-.162079-4.15036.674255-6.611725 3.551086-7.145966 7.847351-.627594 5.046997-1.003235 10.118042 3.917359 13.448212 5.25415 3.555969 14.503173 2.04898 17.561004-2.653565 3.840027-5.905426 1.877289-14.364837-4.974792-18.479919m-195.668885 18.935302c3.037415 1.390473 5.969269 3.601227 9.13324 4.008423 7.671677.987366 12.211868-3.451355 12.390259-11.154602.194519-8.399017-3.70723-12.604278-11.66153-12.568603-10.274917.04602-14.840545 8.49414-9.861969 19.714782m61.916718-123.598571c5.315018.166977 10.370148-.806595 12.133697-6.515641 1.541367-4.989852 1.570084-10.315963-2.517349-14.467727-2.933319-2.979462-10.967682-3.52652-15.080047-1.378159-4.297882 2.245285-6.222031 7.490433-5.055451 13.986572.962677 5.360627 4.370438 7.950074 10.51915 8.374955m134.772308 52.078613c6.595795-4.230835 7.850159-15.655533 2.214966-20.174057-3.676544-2.948013-11.954803-3.085388-16.036896-.266174-3.649841 2.520691-5.272949 9.631729-3.43518 15.050003 1.514312 4.464721 5.581878 6.768524 11.679809 6.484131 1.647064-.076813 3.279816-.460663 5.577301-1.093903m-70.778106 120.516785c2.237426 6.494354 6.485534 8.692596 14.575927 7.54248 5.802368-.82486 8.445771-3.882202 8.74585-10.115173.336151-6.983582-2.364746-11.190033-7.991669-12.446381-10.436096-2.330139-16.641571 3.365143-15.330108 15.019074m-118.425904-119.595429c1.324951.050995 2.649811.142487 3.974869.145691 4.690002.011261 8.341202-2.102844 9.40126-6.611664 1.171952-4.984726 1.780411-10.35643-2.599639-14.46167-3.043503-2.852569-11.047638-3.29396-15.153306-1.092727-5.176864 2.775573-5.328826 7.527527-4.95874 12.511917.40065 5.39621 3.332474 8.455932 9.335556 9.508453m163.858246 83.074188c-1.810821.132477-3.639862.146393-5.428741.42154-3.980225.612243-6.743409 2.902923-7.634034 6.810699-1.128265 4.950623-1.408081 9.993378 2.748566 13.874481 3.348725 3.126679 10.790436 3.547547 15.059631 1.132233 4.659058-2.635803 5.022156-7.175842 4.707001-11.702057-.459411-6.597351-2.39096-8.681549-9.452423-10.536896m-159.188095-49.866302c.612183-3.348511 1.92157-6.746948 1.68602-10.034729-.440048-6.141754-4.274475-9.035553-10.803482-9.253601-7.117279-.237732-11.123871 2.628174-12.336655 8.82431-1.089264 5.565064.580582 10.474884 4.348175 12.784943 4.601807 2.821563 11.72435 2.102203 17.105942-2.320923m154.441849-65.281418c1.49173.034668 2.985779.140091 4.474762.091003 4.864654-.160339 8.185302-2.352233 9.3078-7.29779 1.51355-6.668625.010101-12.481308-4.243988-14.689453-4.698395-2.438767-9.646606-2.322022-14.171265.481979-4.22586 2.61882-4.487793 7.083466-4.248443 11.454407.283661 5.180878 2.738739 8.780518 8.881134 9.959854m-54.761841-40.490829c-1.244202-9.43657-5.620667-12.828644-14.674103-11.373459-5.650192.908157-8.778793 4.993408-8.770447 11.452194.008484 6.561508 2.940812 10.540665 8.484497 11.613586 7.48288 1.448273 14.688355-.890655 14.960053-11.692321m-58.72081 181.044067c-4.901871 10.08551-.963379 18.558624 8.850113 19.039795 6.19429.303711 10.959824-2.478973 12.285324-7.173615 1.763077-6.244445.040772-12.286071-4.177582-14.654205-5.081207-2.852569-11.538345-2.041443-16.957855 2.788025m35.44577 13.330749c-.082382 5.155762.350357 10.374482 5.928879 12.489899 4.750076 1.801239 9.86087 1.860169 14.134979-1.642181 3.220429-2.638916 4.181549-10.919464 2.104248-15.44223-2.001464-4.357605-6.405304-6.123963-13.249618-5.314331-5.360565.634094-7.494278 2.858306-8.918488 9.908843m120.133316-102.601074c-3.277527-4.781616-8.030761-6.290558-14.326172-4.782867-5.438598 1.30246-7.243164 5.212799-7.703308 10.185394-.506439 5.471924 1.500977 9.825318 5.865174 11.449555 4.612884 1.716796 9.502868 2.130737 13.705658-1.041565 3.867187-2.919007 3.982086-7.323731 3.482727-11.722199-.130219-1.147156-.405609-2.277801-1.024079-4.088318z" fill="#fff"/><path d="m158.31929 190.38623c-3.840881 6.808381-7.486786 13.302796-11.385361 20.247284-10.261016-4.36943-20.256065-8.62561-30.637107-13.046173 15.277626-27.152038 30.327324-53.899017 45.652793-81.1361 10.190522 4.330291 20.196656 8.582237 30.657929 13.02758-11.489319 20.419769-22.791306 40.506607-34.288254 60.907409z" fill="#020202"/><g fill="#050505"><path d="m188.478088 346.277649c6.032822.887787 8.846589 4.389404 9.329865 9.807159.426895 4.785736.013229 9.401673-4.830979 12.141327-4.318801 2.442475-11.688308 2.084229-15.177536-.686004-3.463302-2.749604-4.747558-10.065705-2.689086-15.318848 1.757217-4.484345 5.798675-6.361328 13.367736-5.943634z"/><path d="m180.568161 208.254944c1.515808-.300156 2.669403-.474472 3.828827-.590515 6.391785-.639725 10.969833 1.657318 12.696426 6.353347 1.923004 5.230332.624619 12.213639-2.766281 14.87819-3.805694 2.990478-12.725586 3.054031-16.562836.117965-5.862365-4.48555-4.500488-15.966446 2.803864-20.758987z"/><path d="m297.865906 209.326141c-2.018463.374054-3.664124.728348-5.315735.758667-6.050415.1111-10.180756-2.330291-11.62674-6.732971-1.647888-5.017456-.292205-11.779648 2.887635-14.403396 3.549102-2.928421 11.639038-3.411423 15.589477-.930756 6.711914 4.214722 6.03125 16.570526-1.534637 21.308456z"/><path d="m350.793274 314.863403c6.476654 3.977784 8.439392 12.437195 4.599365 18.342621-3.057831 4.702545-12.306854 6.209534-17.561004 2.653565-4.920594-3.33017-4.544953-8.401215-3.917359-13.448212.534241-4.296265 2.995606-7.173096 7.145966-7.847351 3.030426-.49234 6.232208.069916 9.733032.299377z"/><path d="m154.516357 333.358551c-4.745971-10.917786-.180343-19.365906 10.094574-19.411926 7.9543-.035675 11.856049 4.169586 11.66153 12.568603-.178391 7.703247-4.718582 12.141968-12.390259 11.154602-3.163971-.407196-6.095825-2.61795-9.365845-4.311279z"/><path d="m216.237274 210.033173c-5.720306-.395218-9.128067-2.984665-10.090744-8.345292-1.16658-6.496139.757569-11.741287 5.055451-13.986572 4.112365-2.148361 12.146728-1.601303 15.080047 1.378159 4.087433 4.151764 4.058716 9.477875 2.517349 14.467727-1.763549 5.709046-6.818679 6.682618-12.562103 6.485978z"/><path d="m351.108917 262.336609c-1.968414.43808-3.601166.82193-5.24823.898743-6.097931.284393-10.165497-2.01941-11.679809-6.484131-1.837769-5.418274-.214661-12.529312 3.43518-15.050003 4.082093-2.819214 12.360352-2.681839 16.036896.266174 5.635193 4.518524 4.380829 15.943222-2.544037 20.369217z"/><path d="m280.572021 382.26416c-1.223602-11.259857 4.981873-16.955139 15.417969-14.625 5.626923 1.256348 8.32782 5.462799 7.991669 12.446381-.300079 6.232971-2.943482 9.290313-8.74585 10.115173-8.090393 1.150116-12.338501-1.048126-14.663788-7.936554z"/></g><path d="m161.850952 263.030334c-5.620056-1.02005-8.55188-4.079772-8.95253-9.475982-.370086-4.98439-.218124-9.736344 4.95874-12.511917 4.105668-2.201233 12.109803-1.759842 15.153306 1.092727 4.38005 4.10524 3.771591 9.476944 2.599639 14.46167-1.060058 4.50882-4.711258 6.622925-9.40126 6.611664-1.325058-.003204-2.649918-.094696-4.357895-.178162z" fill="#020202"/><path d="m326.500671 346.207062c6.653016 1.785278 8.584565 3.869476 9.043976 10.466827.315155 4.526215-.047943 9.066254-4.707001 11.702057-4.269195 2.415314-11.710906 1.994446-15.059631-1.132233-4.156647-3.881103-3.876831-8.923858-2.748566-13.874481.890625-3.907776 3.653809-6.198456 7.634034-6.810699 1.788879-.275147 3.61792-.289063 5.837188-.351471z" fill="#050505"/><path d="m166.689697 296.588989c-5.16716 4.104828-12.289703 4.824188-16.89151 2.002625-3.767593-2.310059-5.437439-7.219879-4.348175-12.784943 1.212784-6.196136 5.219376-9.062042 12.336655-8.82431 6.529007.218048 10.363434 3.111847 10.803482 9.253601.23555 3.287781-1.073837 6.686218-1.900452 10.353027z" fill="#050505"/><path d="m320.969177 230.936432c-5.765594-1.126495-8.220672-4.726135-8.504333-9.907013-.23935-4.370941.022583-8.835587 4.248443-11.454407 4.524659-2.804001 9.47287-2.920746 14.171265-.481979 4.254089 2.208145 5.757538 8.020828 4.243988 14.689453-1.122498 4.945557-4.443146 7.137451-9.3078 7.29779-1.488983.049088-2.983032-.056335-4.851563-.143844z" fill="#050505"/><path d="m266.577698 190.903961c-.265259 10.396149-7.470734 12.735077-14.953614 11.286804-5.543685-1.072921-8.476013-5.052078-8.484497-11.613586-.008346-6.458786 3.120255-10.544037 8.770447-11.452194 9.053436-1.455185 13.429901 1.936889 14.667664 11.778976z" fill="#050505"/><path d="m208.029633 371.192719c5.253204-4.479676 11.710342-5.290802 16.791549-2.438233 4.218354 2.368134 5.940659 8.40976 4.177582 14.654205-1.3255 4.694642-6.091034 7.477326-12.285324 7.173615-9.813492-.481171-13.751984-8.954285-8.683807-19.389587z" fill="#050505"/><path d="m243.399292 384.473267c1.334015-6.650544 3.467728-8.874756 8.828293-9.50885 6.844314-.809632 11.248154.956726 13.249618 5.314331 2.077301 4.522766 1.116181 12.803314-2.104248 15.44223-4.274109 3.50235-9.384903 3.44342-14.134979 1.642181-5.578522-2.115417-6.011261-7.334137-5.838684-12.889892z" fill="#050505"/><path d="m363.647278 282.608337c.413605 1.474366.688995 2.605011.819214 3.752167.499359 4.398468.38446 8.803192-3.482727 11.722199-4.20279 3.172302-9.092774 2.758361-13.705658 1.041565-4.364197-1.624237-6.371613-5.977631-5.865174-11.449555.460144-4.972595 2.26471-8.882934 7.703308-10.185394 6.295411-1.507691 11.048645.001251 14.531037 5.119018z" fill="#050505"/></svg>