<svg enable-background="new 0 0 496 496" viewBox="0 0 496 496" xmlns="http://www.w3.org/2000/svg"><path d="m167.973511 117.990585c7.535492 3.219094 14.689666 6.392266 21.942215 9.321884 3.175262 1.282639 4.040466 2.688187 2.194961 5.942368-14.045074 24.765625-27.973037 49.597794-41.874023 74.444748-1.501053 2.682999-3.127701 3.371963-6.053665 2.050873-7.583786-3.424164-15.229157-6.73021-22.967026-9.786988-3.783478-1.494598-4.21917-3.161697-2.21933-6.678741 13.908722-24.460693 27.720062-48.978104 41.335373-73.602959 2.107574-3.81176 4.35643-3.272789 7.641495-1.691185z"/><path d="m88.263062 120.423721c1.598686-3.884041 3.868034-4.373985 7.303588-2.8041 7.411095 3.386513 14.911805 6.589386 22.465546 9.645684 3.407364 1.378631 4.168251 2.867401 2.218041 6.293853-13.99128 24.58223-27.853768 49.238266-41.626069 73.943955-1.671569 2.998581-3.352447 3.529526-6.394577 2.154403-7.274467-3.288192-14.585838-6.524551-22.033622-9.38832-4.482483-1.723557-4.804524-3.719895-2.504795-7.755722 13.592376-23.853394 26.948795-47.841233 40.571888-72.089753z"/><path d="m174.855179 213.283478c4.167358-6.579666 13.372909-8.307694 19.306686-3.968308 4.714966 3.44812 5.78418 13.084732 2.014252 18.154465-2.750122 3.698273-9.256302 5.371658-15.116715 3.622055-4.90776-1.465195-7.092819-5.131622-7.33609-10.096527-.122726-2.504776.046692-4.972656 1.131867-7.711685z"/><path d="m334.466064 258.150726c-.65097-2.772796-1.545471-5.20668-1.487884-7.617813.146057-6.111297 3.097076-9.714294 8.276398-10.851211 7.005462-1.537781 12.377075.178619 14.901611 4.761612 2.348663 4.263794 1.556305 12.718368-1.497345 15.975998-5.01239 5.347198-15.369934 4.353363-20.19278-2.268586z"/><path d="m192.563324 369.001801c-13.071152 3.908203-21.187515-2.68982-18.536987-14.567505.997482-4.469941 3.518844-7.547242 8.092605-8.384827 4.858933-.889771 9.771271-.826019 13.426026 3.123688 4.872467 5.265716 3.38826 15.482116-2.981644 19.828644z"/><path d="m176.804779 250.241821c-.048706 9.333496-3.047317 14.309662-13.708069 13.33844-7.792618-.70993-11.519974-5.784851-10.714737-13.646438.784424-7.658326 5.20813-11.288987 13.136246-10.781311 7.177811.45964 9.959702 3.110519 11.28656 11.089309z"/><path d="m283.703186 188.570435c10.077728-5.346009 19.121521-2.320694 20.504791 6.515289 1.120789 7.159332-1.045501 12.422684-5.968719 14.501816-5.082306 2.146331-12.904724.749756-15.834961-2.827057-3.905945-4.767807-3.5065-12.034348 1.298889-18.190048z"/><path d="m355.847107 318.567139c2.136536 5.716095 3.046295 11.311859-.923187 15.910614-3.716339 4.305481-8.982697 4.390594-14.320923 3.049316-5.283447-1.327454-7.094544-5.294464-7.506531-9.989685-.41748-4.757751.323944-9.392914 4.925263-12.224274 5.466369-3.363617 13.153472-2.047546 17.825378 3.254029z"/><path d="m214.634674 186.195404c11.894104-1.103531 18.183334 6.629395 14.612473 17.360901-1.759034 5.286407-6.795456 7.639877-14.448273 6.751511-5.349594-.620987-8.668976-4.081208-9.114655-9.501374-.728439-8.858993 1.36351-12.407654 8.950455-14.611038z"/><path d="m162.467422 338.088989c-10.028594-1.452057-11.500747-9.610748-9.509124-17.162719 1.63237-6.189667 9.353698-9.128418 16.632766-6.697663 4.710328 1.572968 7.300766 5.758362 7.318207 11.824127.017288 6.003876-2.614593 9.937958-7.624862 11.488404-2.101044.650116-4.222916.886139-6.816987.547851z"/><path d="m319.022217 346.479797c12.914001-2.625274 19.53183 4.019562 16.605713 15.865448-1.174683 4.755524-4.171143 7.144593-8.627411 7.741761-4.921662.659576-9.810761.236389-13.047302-4.25705-4.44394-6.169708-2.065918-15.572937 5.069-19.350159z"/><path d="m300.727051 369.195068c3.844909 4.038422 4.063751 8.68158 3.411468 13.388428-.703766 5.078583-4.068939 7.701996-10.249145 8.49411-5.689575.729187-11.18866-1.809418-13.03714-6.228943-2.08844-4.993316-1.71875-10.030731 1.695648-14.156585 3.534424-4.270905 8.675812-4.545624 13.802582-3.541138 1.419983.278198 2.718811 1.174469 4.376587 2.044128z"/><path d="m222.761292 390.219025c-1.695817.362243-2.988648.742553-4.306351.874359-6.934006.693573-12.276383-3.333008-12.781449-9.567566-.758422-9.362061 2.680161-14.127838 10.666626-14.7836 6.831772-.560944 11.443619 2.050964 13.08136 7.408661 2.145676 7.019409-.033783 12.572327-6.660186 16.068146z"/><path d="m328.062988 207.574799c7.043671 2.609008 9.788239 9.233429 7.346222 16.829116-1.974243 6.140839-7.64978 8.619553-15.560638 6.795945-5.508332-1.269776-8.954529-7.286454-7.868012-13.736649 1.374695-8.160797 6.865967-11.646469 16.082428-9.888412z"/><path d="m263.843781 377.124451c2.252532 2.502777 2.874145 5.29541 3.260101 8.084198.775543 5.60382-2.168671 11.099975-6.622009 12.772308-6.160874 2.313507-12.905472.652771-15.66832-3.858063-3.121399-5.096252-2.602326-13.150177 1.085525-16.8432 3.784592-3.789948 11.590027-3.97876 17.944703-.155243z"/><path d="m155.263641 276.702454c9.809265.038055 13.642365 3.056762 14.034302 10.726471.260346 5.094421-.595688 9.841278-5.880188 12.040679-5.14183 2.140046-10.576187 2.321656-14.999374-1.487854-4.19133-3.609832-4.461579-8.653167-3.040009-13.763214 1.322067-4.752411 4.729859-6.972808 9.885269-7.516082z"/><path d="m266.415588 194.975403c-1.630005 6.247009-6.163513 8.038223-11.433883 8.156174-4.924271.110214-9.225891-1.604981-11.11734-6.714753-1.978775-5.345718-1.556626-10.558593 2.201583-14.982422 2.853791-3.359237 11.54065-3.907272 15.926423-1.414672 4.254852 2.418182 5.9794 7.998138 4.423217 14.955673z"/><path d="m346.872589 299.482483c-6.162933-4.353363-7.781036-12.332581-4.019928-18.247803 2.930542-4.608948 11.810028-6.249359 17.259308-3.188507 4.133911 2.322022 6.184052 8.883728 4.589813 14.690186-1.511932 5.506622-5.40094 8.27359-11.615173 7.997955-1.965363-.087158-3.907166-.705078-6.21402-1.251831z"/></svg>