<svg enable-background="new 0 0 508 510" viewBox="0 0 508 510" xmlns="http://www.w3.org/2000/svg"><path d="m327 511c-108.999969 0-217.499947 0-325.999942 0-.000019-169.999939-.000019-339.999863-.000039-509.999851 169.333202-.000049 338.666424-.000049 507.999737-.000099.000061 169.999813.000061 339.999675.000152 509.999736-60.499908.000214-120.999908.000214-181.999908.000214m-27.982666-438.409027c-1.869476.938812-4.578674 1.378807-5.478546 2.893623-8.992981 15.137993-17.706696 30.442314-26.450592 45.727501-1.651428 2.886856-3.088776 5.896187-4.304993 8.233994-7.382614-17.728714-14.72763-35.472489-22.216736-53.155236-.611816-1.44458-2.176468-3.498603-3.349243-3.532974-9.732284-.285232-19.476547-.161629-29.424011-.161629.248947 1.170289.266724 1.676232.460113 2.102501 10.902512 24.03241 21.77002 48.081162 32.859391 72.027153.660843 1.426972 3.08876 2.830597 4.732605 2.876511 9.654922.269684 19.326645-.052917 28.980789.230316 3.515411.103134 5.335968-1.208496 7.067139-4.054123 13.99472-23.004135 28.129821-45.922844 42.208892-68.875709.732605-1.194275 1.345093-2.462189 2.347382-4.311989-9.315399 0-17.927368 0-27.43219.000061m-118.304321 274.272827c-5.517304 2.03241-6.592026 6.749908-6.526581 11.710297.0531 4.024261.978348 8.101562 5.317245 9.943237 5.036911 2.137939 10.256089 2.218842 14.684311-1.109375 4.187607-3.1474 4.320496-8.006439 3.355835-12.774292-1.441711-7.125641-6.834762-9.745636-16.83081-7.769867m123.288604-149.235001c-1.036285-8.013092-3.693512-10.852844-10.596649-11.324401-6.004364-.410187-10.984649 2.402435-12.437988 7.024292-1.98938 6.326477-.256958 12.63945 4.160004 15.158981 9.091827 5.186142 17.980194.473877 18.874633-10.858872m-125.689025 31.653244c2.534759.63234 5.046081 1.655503 7.609558 1.809311 4.306213.258423 8.476501-.655578 10.570053-5.029876 2.29721-4.799881 2.203445-9.762192-.654679-14.314789-2.543533-4.051438-6.845336-4.271012-11.065963-4.132538-4.045884.132751-7.686493 1.409698-9.220673 5.529663-2.0643 5.54361-2.447815 11.040451 2.761704 16.138229m178.085266 102.13028c.188446-2.799927.708923-5.625977.490783-8.39389-.366424-4.649811-3.133422-7.510224-7.692901-8.605866-5.628052-1.352417-11.182984.131409-13.63385 3.662903-3.539765 5.100647-2.432923 14.6698 2.045837 17.687286 5.704834 3.843537 14.472992 2.117951 18.790131-4.350433m-201.283585 2.940277c2.700897 1.132507 5.310074 2.836731 8.120331 3.287598 7.659744 1.228821 12.660049-3.068451 12.999298-10.603028.39476-8.767303-3.55864-13.03891-11.729248-13.124725-11.998962-.125946-14.223206 11.480438-9.390381 20.440155m50.863632-137.567306c1.138321 3.658996 1.423355 7.982925 3.627426 10.811447 2.860764 3.67128 11.66626 3.310638 15.863587.464752 3.654846-2.478073 5.267364-9.558487 3.42749-15.049652-1.47197-4.393097-6.43663-7.121292-12.159546-6.681961-6.707519.514923-9.201431 2.754883-10.758957 10.455414m147.563874 45.111892c-5.32013-3.145202-10.844391-3.348709-15.975678-.035354-4.772003 3.081344-4.339416 8.187484-3.629547 13.041641.793426 5.425506 4.332764 8.152405 10.556885 8.365967 6.751342.231628 11.287048-2.441254 12.237671-7.73851.829742-4.623612 1.027526-9.335022-3.189331-13.633744m-40.849671 118.935486c1.252777 6.057831 3.680756 8.458222 10.063019 8.962677 4.565674.36084 9.249329-.135895 11.461365-5.051147 2.297821-5.105774 2.42868-10.545044-1.048035-15.080475-3.337616-4.353913-8.403259-4.162293-13.274017-2.937775-5.609467 1.410248-7.733673 5.394379-7.202332 14.10672m-154.910812-119.756225c-5.329148 3.923172-6.816468 12.131347-3.203079 17.677093 2.957443 4.539063 12.120101 6.142395 17.150543 3.001099 4.004349-2.50055 5.866318-8.665406 4.157287-14.864487-1.234924-4.479431-4.364761-7.035461-9.113769-6.980835-2.768128.03183-5.53064.553864-8.990982 1.16713m130.692367 126.691467c-5.799621.994812-7.776092 5.159485-8.190826 10.310638-.346008 4.297547.381103 8.551453 4.666534 10.703949 4.988404 2.505524 10.396424 2.86734 15.164643-.33789 4.475738-3.008576 4.326446-7.962006 3.533203-12.660492-1.158844-6.864167-6.024597-9.526917-15.173554-8.016205m-120.526458-84.88974c-2.451752-5.225311-7.048401-6.1362-12.100083-5.812805-7.321396.468628-11.082733 4.800628-10.776428 12.138397.304962 7.306274 4.278503 11.026611 11.833145 11.07901 7.741119.053741 11.679291-3.392426 11.984863-10.74762.081162-1.953369-.452804-3.93222-.941497-6.656982m38.306305 92.332245c-.096619 1.821045-.337281 3.648102-.261933 5.462005.200119 4.818604 2.371414 8.212677 7.314316 9.338044 6.918671 1.575195 12.462921-.243195 14.880493-4.825226 3.077744-5.833252 1.216782-14.385895-3.811981-16.670929-6.629181-3.012238-16.552734-1.214081-18.120895 6.696106m53.71109.085846c-2.310791-.133179-4.634552-.489167-6.929734-.355164-5.523437.322357-8.216629 2.712006-9.290634 7.861633-1.399139 6.708619.425965 12.021973 4.930695 14.354523 5.479934 2.837494 13.775848.935242 16.368652-3.753357 3.337463-6.035217 1.304871-14.255462-5.078979-18.107635m-16.262757-188.014038c-1.188385 6.985763.595383 12.331604 5.223587 14.164718 4.444351 1.76033 9.101151 1.927826 13.329727-.763305 4.239045-2.6978 4.442994-7.155213 4.168396-11.499985-.398162-6.299683-3.246734-9.351883-8.881103-10.105881-7.415665-.992355-11.434952 1.178391-13.840607 8.204453m70.21875 25.334899c-.558136 2.22995-1.461212 4.437699-1.606537 6.694245-.362854 5.633957 2.435028 9.850174 7.069062 11.285385 5.809478 1.799255 12.001922.258728 14.475555-3.601166 3.197785-4.989837 2.07428-14.278442-2.104553-17.399322-4.830322-3.607407-12.978912-2.518647-17.833527 3.020858m41.077576 87.519562c7.900055-1.04541 11.04541-6.233673 9.222839-15.213104-1.083343-5.33728-4.680053-7.975616-10.850677-7.959442-6.482483.016998-10.44455 2.751465-11.477753 7.956238-1.897278 9.557373 2.37561 16.091735 13.105591 15.216308z" fill="#fff"/><path d="m299.463745 72.590942c9.058411-.00003 17.67038-.00003 26.985779-.00003-1.002289 1.8498-1.614777 3.117714-2.347382 4.311989-14.079071 22.952865-28.214172 45.871574-42.208892 68.875709-1.731171 2.845627-3.551728 4.157257-7.067139 4.054123-9.654144-.283233-19.325867.039368-28.980789-.230316-1.643845-.045914-4.071762-1.449539-4.732605-2.876511-11.089371-23.945991-21.956879-47.994743-32.859391-72.027153-.193389-.426269-.211166-.932212-.460113-2.102501 9.947464 0 19.691727-.123603 29.424011.161629 1.172775.034371 2.737427 2.088394 3.349243 3.532974 7.489106 17.682747 14.834122 35.426522 22.216736 53.155236 1.216217-2.337807 2.653565-5.347138 4.304993-8.233994 8.743896-15.285187 17.457611-30.589508 26.450592-45.727501.899872-1.514816 3.60907-1.954811 5.924957-2.893654z" fill="#030303"/><path d="m181.109283 346.778961c9.599778-1.89093 14.992829.729065 16.43454 7.854706.964661 4.767853.831772 9.626892-3.355835 12.774292-4.428222 3.328217-9.6474 3.247314-14.684311 1.109375-4.338897-1.841675-5.264145-5.918976-5.317245-9.943237-.065445-4.960389 1.009277-9.677887 6.922851-11.795136z" fill="#050505"/><path d="m303.995117 198.05838c-.887939 10.903168-9.776306 15.615433-18.868133 10.429291-4.416962-2.519531-6.149384-8.832504-4.160004-15.158981 1.453339-4.621857 6.433624-7.434479 12.437988-7.024292 6.903137.471557 9.560364 3.311309 10.590149 11.753982z" fill="#050505"/><path d="m177.968002 229.114288c-4.864929-4.930023-4.481414-10.426864-2.417114-15.970474 1.53418-4.119965 5.174789-5.396912 9.220673-5.529663 4.220627-.138474 8.52243.0811 11.065963 4.132538 2.858124 4.552597 2.951889 9.514908.654679 14.314789-2.093552 4.374298-6.26384 5.288299-10.570053 5.029876-2.563477-.153808-5.074799-1.176971-7.954148-1.977066z" fill="#050505"/><path d="m356.218689 331.773865c-4.13797 6.106842-12.906128 7.832428-18.610962 3.988891-4.47876-3.017486-5.585602-12.586639-2.045837-17.687286 2.450866-3.531494 8.005798-5.01532 13.63385-3.662903 4.559479 1.095642 7.326477 3.956055 7.692901 8.605866.21814 2.767913-.302337 5.593963-.669952 8.755432z" fill="#050505"/><path d="m154.936798 334.014343c-4.65535-8.62146-2.431106-20.227844 9.567856-20.101898 8.170608.085815 12.124008 4.357422 11.729248 13.124725-.339249 7.534577-5.339554 11.831849-12.999298 10.603028-2.810257-.450867-5.419434-2.155091-8.297806-3.625855z" fill="#040404"/><path d="m206.011597 196.359039c1.523834-7.274276 4.017746-9.514236 10.725265-10.029159 5.722916-.439331 10.687576 2.288864 12.159546 6.681961 1.839874 5.491165.227356 12.571579-3.42749 15.049652-4.197327 2.845886-13.002823 3.206528-15.863587-.464752-2.204071-2.828522-2.489105-7.152451-3.593734-11.237702z" fill="#040404"/><path d="m353.863037 242.110565c3.895599 4.085343 3.697815 8.796753 2.868073 13.420365-.950623 5.297256-5.486329 7.970138-12.237671 7.73851-6.224121-.213562-9.763459-2.940461-10.556885-8.365967-.709869-4.854157-1.142456-9.960297 3.629547-13.041641 5.131287-3.313355 10.655548-3.109848 16.296936.248733z" fill="#040404"/><path d="m312.610748 360.436127c-.449981-8.315796 1.674225-12.299927 7.283692-13.710175 4.870758-1.224518 9.936401-1.416138 13.274017 2.937775 3.476715 4.535431 3.345856 9.974701 1.048035 15.080475-2.212036 4.915252-6.895691 5.411987-11.461365 5.051147-6.382263-.504455-8.810242-2.904846-10.144379-9.359222z" fill="#050505"/><path d="m158.128952 240.920563c3.112686-.457382 5.875198-.979416 8.643326-1.011246 4.749008-.054626 7.878845 2.501404 9.113769 6.980835 1.709031 6.199081-.152938 12.363937-4.157287 14.864487-5.030442 3.141296-14.1931 1.537964-17.150543-3.001099-3.613389-5.545746-2.126069-13.753921 3.550735-17.832977z" fill="#030303"/><g fill="#050505"><path d="m288.874329 367.700684c8.748291-1.443482 13.614044 1.219268 14.772888 8.083435.793243 4.698486.942535 9.651916-3.533203 12.660492-4.768219 3.20523-10.176239 2.843414-15.164643.33789-4.285431-2.152496-5.012542-6.406402-4.666534-10.703949.414734-5.151153 2.391205-9.315826 8.591492-10.377868z"/><path d="m168.065781 283.256958c.370117 2.345978.904083 4.324829.822921 6.278198-.305572 7.355194-4.243744 10.801361-11.984863 10.74762-7.554642-.052399-11.528183-3.772736-11.833145-11.07901-.306305-7.337769 3.455032-11.669769 10.776428-12.138397 5.051682-.323395 9.648331.587494 12.218659 6.191589z"/><path d="m206.348267 374.81073c1.473404-7.510498 11.396957-9.308655 18.026138-6.296417 5.028763 2.285034 6.889725 10.837677 3.811981 16.670929-2.417572 4.582031-7.961822 6.400421-14.880493 4.825226-4.942902-1.125367-7.114197-4.51944-7.314316-9.338044-.075348-1.813903.165314-3.64096.35669-5.861694z"/><path d="m260.307739 375.46759c6.040711 3.680848 8.073303 11.901093 4.73584 17.93631-2.592804 4.688599-10.888718 6.590851-16.368652 3.753357-4.50473-2.33255-6.329834-7.645904-4.930695-14.354523 1.074005-5.149627 3.767197-7.539276 9.290634-7.861633 2.295182-.134003 4.618943.221985 7.272873.526489z"/><path d="m243.76123 186.885406c2.346268-6.629241 6.365555-8.799987 13.78122-7.807632 5.634369.753998 8.482941 3.806198 8.881103 10.105881.274598 4.344772.070649 8.802185-4.168396 11.499985-4.228576 2.691131-8.885376 2.523635-13.329727.763305-4.628204-1.833114-6.411972-7.178955-5.1642-14.561539z"/><path d="m314.096985 212.274536c4.678223-5.196915 12.826813-6.285675 17.657135-2.678268 4.178833 3.12088 5.302338 12.409485 2.104553 17.399322-2.473633 3.859894-8.666077 5.400421-14.475555 3.601166-4.634034-1.435211-7.431916-5.651428-7.069062-11.285385.145325-2.256546 1.048401-4.464295 1.782929-7.036835z"/><path d="m354.614899 300.177338c-10.346711.834777-14.619599-5.699585-12.722321-15.256958 1.033203-5.204773 4.99527-7.93924 11.477753-7.956238 6.170624-.016174 9.767334 2.622162 10.850677 7.959442 1.822571 8.979431-1.322784 14.167694-9.606109 15.253754z"/></g></svg>