<svg enable-background="new 0 0 496 496" viewBox="0 0 496 496" xmlns="http://www.w3.org/2000/svg"><path d="m362.6203 400.00528c-2.058227-5.135895-2.421508-10.106781-1.622802-15.092316 1.959747-12.233215 12.368164-19.631867 25.953765-18.643341 12.924714.94046 20.940827 6.132812 22.757233 16.327209 2.354035 13.211945.538727 23.191681-12.711853 28.425965-13.79718 5.450225-28.247528.810363-34.376343-11.017517z"/><path d="m393.019501 227.580444c14.162597 3.942337 19.301727 12.425309 17.21936 27.791275-1.417023 10.456101-10.824768 17.725296-23.006348 18.015335-5.945221.141541-11.625518-.560211-16.707824-3.863037-8.259156-5.367248-11.726074-15.566299-9.085572-26.466003 2.303193-9.507217 9.581879-15.26532 20.772706-16.242188 3.470642-.302948 6.983947-.394119 10.807678.764618z"/><path d="m303.304749 316.218567c5.54132-3.559021 11.048889-3.613037 16.303741-.731934 4.283722 2.348572 4.871399 6.77295 4.722687 11.267975-.246216 7.444977-4.383789 11.397461-12.054657 11.483399-7.760285.086975-12.383728-4.132172-12.534577-11.593445-.075256-3.721924.745819-7.233673 3.562806-10.425995z"/><path d="m126.289978 239.831512c1.69648-.305557 2.995544-.62442 4.310715-.718765 7.825592-.561462 12.597748 3.594834 12.747467 11.042679.189819 9.442505-3.919663 14.116333-12.109818 13.772827-8.123047-.340668-13.112503-5.763153-12.353119-13.563995.456986-4.694397 2.062111-8.719177 7.404755-10.532746z"/><path d="m161.494934 367.593445c-2.527344 1.884003-5.067947 2.549011-7.781403 2.685608-8.779327.441925-13.213867-3.968079-13.04039-12.970948.161316-8.371948 4.913056-12.370819 13.808289-11.56137 8.029205.730713 11.095032 5.745941 10.566116 14.472412-.159729 2.635406-1.17044 5.201324-3.552612 7.374298z"/><path d="m141.662643 225.790649c-1.510482-3.399505-1.205383-6.598419-.777252-9.67604.80571-5.792008 4.72316-8.835266 11.2043-9.162247 6.406601-.323227 10.829987 2.646912 12.387909 8.318054 1.897659 6.907807-.307251 13.053635-5.507629 15.351578-6.0103 2.655838-13.537232.701767-17.307328-4.831345z"/><path d="m195.751892 204.339767c-4.21228 6.252213-13.420822 8.172394-19.09227 4.289963-4.783462-3.274551-6.049591-12.675995-2.446808-18.168411 2.726685-4.156815 9.111832-5.688675 15.401856-3.695068 4.968826 1.574844 7.48056 5.827926 7.129303 12.311462-.089279 1.647751-.527024 3.276627-.992081 5.262054z"/><path d="m270.614502 193.887299c1.998901 11.338974-2.059876 16.688079-12.105591 16.5083-6.977615-.124878-11.154388-3.547058-11.780029-9.651748-.804657-7.851654 2.016693-12.59317 8.457138-14.213059 7.778915-1.956527 12.63591.251328 15.428482 7.356507z"/><path d="m320.878662 260.947784c-6.124756 3.679078-13.050445 3.74292-17.179169.409882-3.688964-2.978027-5.041961-9.708771-3.070007-15.272873 1.694824-4.782211 6.465637-7.422821 12.517426-6.928406 6.412719.523896 9.982818 3.066315 10.888244 8.373444.797028 4.671631.739655 9.353592-3.156494 13.417953z"/><path d="m119.907532 331.628021c-.952156-3.464966-1.322426-6.475677-.402252-9.69635 1.817314-6.360565 6.331817-9.062103 14.386688-8.196991 5.859436.629364 9.258087 4.523499 9.447494 10.824799.23642 7.866272-1.675018 11.247711-7.324157 12.956848-6.617295 2.001984-12.441582-.004517-16.107773-5.888306z"/><path d="m252.531403 389.867065c-7.218277-2.807556-7.053666-14.527862-3.498734-19.075195 3.589508-4.591583 13.407761-5.502075 18.348404-1.651398 3.67984 2.868073 5.058197 10.4711 2.857605 15.762604-1.837585 4.41861-6.59845 6.851807-12.479218 6.230042-1.641662-.173554-3.243789-.720581-5.228057-1.266053z"/><path d="m300.393188 210.744659c2.191681 3.210282 2.680115 6.534974 2.480286 9.850296-.377319 6.259873-3.083069 9.68306-7.916992 10.663804-6.66391 1.35205-12.176148-.416047-14.662323-4.703034-2.625549-4.527344-2.032593-12.48967 1.196716-16.069794 3.203949-3.552002 10.723969-4.582016 15.84494-2.083984 1.026062.500504 1.886902 1.339676 3.057373 2.342712z"/><path d="m210.416779 380.998505c3.67308-6.534333 12.596603-8.746827 18.666473-4.972748 4.849335 3.015137 6.290726 13.175384 2.622177 18.483154-3.391418 4.90683-12.982742 6.13855-18.010986 2.017639-4.940445-4.049011-4.505905-9.587982-3.277664-15.528045z"/><path d="m278.743378 356.28894c2.040619-8.887634 8.643921-12.646331 16.871307-10.015747 4.947174 1.581757 7.540527 5.830262 7.44101 12.190094-.092469 5.907654-2.90857 9.971955-7.865967 11.352417-9.824433 2.735779-16.391113-2.483764-16.44635-13.526764z"/><path d="m172.252014 380.59613c.6577-10.231384 3.970398-13.898742 12.122589-13.90628 8.593415-.007935 12.976349 4.803863 12.350403 13.154327-.695648 9.280182-6.932602 11.727051-14.482208 11.053894-6.376694-.568542-8.616318-3.224365-9.990784-10.301941z"/><path d="m122.232666 276.691467c11.291336.090515 16.348831 6.807038 13.135284 16.84491-1.697235 5.301453-6.431472 7.869507-13.149078 7.13266-6.613113-.725403-10.055862-3.932068-10.533668-9.811371-.718453-8.840546 1.998237-12.645294 10.547462-14.166199z"/><path d="m210.400589 196.005402c-.343933-2.526139-.75412-4.66803-.68486-6.794281.222183-6.820527 4.097214-10.404831 11.169616-10.563294 8.219346-.184158 11.891098 2.724228 12.601746 9.981781.759613 7.757752-1.551849 12.05838-7.435486 13.834335-6.857422 2.069901-12.17897-.013412-15.651016-6.458541z"/><path d="m320.796082 300.812866c-9.227082-1.065246-12.486023-3.715057-13.029786-10.457306-.360107-4.465271.301178-8.819885 4.298676-11.513916 4.424347-2.981689 9.437256-3.066711 14.251373-1.028503 4.446503 1.882568 6.356476 7.087036 5.363129 13.234222-1.066132 6.597626-3.094757 8.474915-10.883392 9.765503z"/></svg>