<svg enable-background="new 0 0 496 496" viewBox="0 0 496 496" xmlns="http://www.w3.org/2000/svg"><path d="m292.021667 72.917038c15.300263 13.638771 18.261689 30.552933 13.041687 48.947174-5.136993 18.101822-18.794281 27.259796-36.652771 30.36644-15.123031 2.630783-29.508789.508942-42.316818-8.70874-14.406021-10.367737-18.463562-25.026505-16.930252-41.75438 2.976196-32.46891 34.159317-44.688404 61.983765-38.778152 7.628448 1.620376 14.418152 5.004722 20.874389 9.927658m-16.328735 14.827171c-4.720184-3.504348-10.187775-4.812004-15.899475-5.271835-18.773331-1.511375-31.646027 13.366798-27.372208 31.584907 2.818604 12.014939 12.692231 18.383591 27.471817 17.871476 10.64737-.368927 18.620819-4.87059 22.703827-14.933998 4.216797-10.39312 1.675721-21.178231-6.903961-29.25055z"/><path d="m193.540482 229.822052c-5.83638 2.436172-11.492737 3.106201-16.285935-.884796-4.494522-3.742325-4.08345-9.050446-2.794998-14.27832 1.349503-5.475525 5.515335-7.36731 10.39476-7.558411 4.667572-.182816 9.343048.524872 11.990295 5.344818 3.011536 5.483246 1.775132 12.713837-3.304122 17.376709z"/><path d="m173.20192 241.687958c4.646469 5.03981 4.360015 10.665451 2.39505 16.097259-2.595856 7.175721-15.841156 8.437958-20.679718 2.088806-3.549988-4.658294-3.379685-9.941787-1.288178-15.092681 1.924103-4.738663 6.441238-5.490281 10.787216-5.628205 2.906647-.092239 5.987809.291336 8.78563 2.534821z"/><path d="m345.035522 263.904724c-10.166412-1.782806-13.694183-7.087433-11.445709-16.614731 1.33252-5.646026 6.320404-8.761184 13.015229-8.128524 7.063323.66748 10.409027 3.804351 10.743164 10.07257.533142 10.00293-1.831177 12.918488-12.312684 14.670685z"/><path d="m183.435822 370.179749c-5.92035-.995362-8.980332-4.353791-9.565354-9.786652-.535385-4.971924-.133316-9.961487 4.674698-12.83429 4.941299-2.952423 10.344406-2.83258 15.212158.177735 4.771332 2.950744 4.936676 8.002258 4.464325 12.936493-.41449 4.329895-2.62265 7.426361-6.953705 8.835357-2.440826.794068-4.904083.851441-7.832122.671357z"/><path d="m286.434326 186.977264c1.840851-.459899 3.289185-.894775 4.76883-1.082077 7.236755-.916107 12.536468 3.31334 13.100128 10.3853.739746 9.281097-2.906433 13.91246-11.142273 14.152832-7.262055.211945-11.134888-2.139023-12.861389-7.807465-1.818024-5.96907.449493-12.07817 6.134704-15.64859z"/><path d="m152.845612 330.742859c-1.903382-12.367798 3.12091-18.198761 14.239669-17.014282 6.01355.640625 9.049866 4.170013 9.695038 11.269378.573319 6.308747-2.151459 10.888489-7.442337 12.508972-7.110428 2.177704-13.106399-.153198-16.49237-6.764068z"/><path d="m356.223297 332.718323c-4.713501 5.907928-13.49173 7.28894-18.986175 3.317901-4.483338-3.240265-5.711823-11.739257-2.510254-17.366546 2.446624-4.300415 8.31076-6.183777 14.641845-4.702454 4.683258 1.095764 7.731812 4.625824 7.923035 9.580811.113709 2.947509.636017 5.995666-1.068451 9.170288z"/><path d="m220.561493 210.264648c-11.427734.317856-15.061524-2.85086-14.912689-12.593627.120468-7.885849 4.944519-12.404313 12.660156-11.858185 7.734848.547485 12.484024 6.027008 11.824081 13.64241-.537551 6.203064-2.715179 8.771347-9.571548 10.809402z"/><path d="m333.770477 366.617737c-5.711425 4.28775-12.68457 4.920288-17.423858 1.55899-4.310761-3.057464-5.124512-7.584045-4.228943-12.461151 1.4039-7.645264 6.29718-10.92749 14.510834-9.933014 6.369323.77121 9.980468 5.581726 9.581787 12.92865-.144959 2.672241-.79065 5.255432-2.43982 7.906525z"/><path d="m287.97467 390.437714c-6.956848-2.648194-9.527313-7.7594-7.788452-14.781708 1.582581-6.391113 6.685028-9.605805 14.115143-8.892975 6.402802.614288 9.812561 4.506958 10.028534 11.448822.313324 10.071259-5.44455 14.514343-16.355225 12.225861z"/><path d="m217.081665 366.706146c10.944046.857147 15.09137 6.592621 12.30249 16.406037-1.560699 5.491729-6.882324 8.702942-13.254196 7.997924-6.952148-.769195-10.327896-4.275604-10.500442-10.90689-.232239-8.926453 2.313018-12.040223 11.452148-13.497071z"/><path d="m319.235352 207.810913c11.029602-2.226257 16.87622 1.921494 16.98941 11.67659.089478 7.707626-4.276032 12.180252-11.904511 12.196671-7.927337.017059-12.769439-4.552262-12.480804-12.219895.188232-5.001434 1.647034-9.54155 7.395905-11.653366z"/><path d="m250.229156 374.835327c13.247101-1.786377 19.522217 4.80072 16.142273 16.393799-1.256713 4.310394-4.020782 6.570831-8.451202 7.313446-4.704987.788635-9.077042.485138-12.316101-3.317993-5.426468-6.371491-3.243774-16.348694 4.62503-20.389252z"/><path d="m159.635803 276.735413c7.155777 1.815124 9.577378 4.838714 9.686234 11.580963.100158 6.203582-2.389084 10.316681-7.134064 11.787903-6.005432 1.86203-12.666351.201019-15.391479-3.838196-3.010743-4.462464-2.805588-11.953797.547225-15.922791 3.144608-3.722595 7.462571-3.865478 12.292084-3.607879z"/><path d="m244.049316 184.492432c3.927994-6.032563 12.859711-7.844757 18.532196-4.099091 4.898438 3.234543 6.12735 12.344605 2.434205 18.044754-3.111817 4.802872-11.609406 6.278854-17.06041 2.963242-4.664932-2.837464-6.127457-8.786942-3.905991-16.908905z"/><path d="m345.077026 278.881226c2.236847-1.301667 4.210816-2.112641 6.44748-2.184723 4.417266-.142426 8.955383-.189362 11.527832 4.18518 2.772216 4.714264 3.122802 9.798645.511352 14.784943-2.347259 4.481903-8.624298 6.271759-15.081085 4.450928-4.856567-1.369599-8.155334-6.409394-7.543121-12.102478.352295-3.275788.881714-6.657227 4.137542-9.13385z"/></svg>