<svg enable-background="new 0 0 508 510" viewBox="0 0 508 510" xmlns="http://www.w3.org/2000/svg"><path d="m242 511c-80.666641 0-160.833298 0-240.999957 0-.000014-169.999939-.000014-339.999878-.000029-509.999866 169.333223-.000044 338.666459-.000044 507.999742-.000089.000091 169.999818.000091 339.99968.000183 509.999741-88.833283.000214-177.666595.000214-266.999939.000214m91.985168-167.455261c-1.782592-7.894043-2.236236-16.438904-5.699218-23.509949-3.93216-8.028931-4.266602-14.056274.651184-21.747528 4.273437-6.683502 6.340393-14.777802 9.493866-22.522156 9.699066 2.815705 17.749176 8.285279 23.811554 16.638855 4.916229 6.774384 7.75653 14.361847 7.795135 22.732208.023071 4.995179 1.857544 6.737183 6.854737 6.267151 4.791076-.450622 9.65866-.16333 14.490386-.076172 2.581818.04657 3.784699-.780822 3.13498-3.550354-.301178-1.283996-.269196-2.645172-.399811-3.970245-2.79895-28.397186-16.950439-48.737854-43.022675-60.617477-11.632263-.497071-14.64685-8.451477-16.780029-18.144547-1.464477-6.65451-4.807678-12.895553-7.373047-19.480392 8.198181-4.769364 16.832398-6.031983 26.032898-4.96846 9.965698 1.151962 18.169312 5.871978 25.983093 11.731689 1.216065.911942 4.150116 1.472778 4.90271.750549 5.183625-4.974197 9.998627-10.33255 15.097443-15.742691-12.589386-11.072555-26.304413-18.634063-42.298523-21.171814-15.960449-2.532394-31.107666.521637-45.059936 8.796021-2.832581 1.67987-4.894318 1.019745-7.726349-.332611-8.184479-3.908219-16.665741-7.194779-25.028962-10.729004-1.158081-.489395-2.307647-.998993-3.836914-1.662216 8.598175-18.856293 20.911042-32.001816 42.535798-33.232193 2.501709-.142319 4.179016-.720108 4.137542-3.675721-.079498-5.665481.148804-11.343246-.183838-16.990402-.065429-1.110832-2.137298-3.064422-3.199829-3.009361-12.962524.671692-25.311432 3.821709-36.437866 10.684258-15.990753 9.862716-26.150314 24.21997-31.884811 41.981277-.586853 1.817627-2.519379 3.820358-4.305847 4.525894-8.602204 3.397308-17.424424 6.235809-26.041169 9.598984-2.462356.961075-3.773071 1.325439-5.02127-1.494446-3.359452-7.5896-5.293808-15.324676-4.1474-23.713959 1.350143-9.880142 5.700714-18.286514 11.791351-26.017196.96167-1.220612 1.645157-4.145203.937607-4.956375-4.785202-5.485978-9.979279-10.615311-15.959107-16.81115-5.240341 8.35463-10.299087 15.363045-14.262726 22.944023-10.427215 19.943329-11.507644 40.593933-1.177459 60.735092 3.603576 7.026062 3.354507 11.724716-.633728 18.232666-4.076142 6.651413-6.17041 14.51735-9.42186 22.568711-20.885406-7.67067-32.21814-22.642044-32.935165-45.379151-8.197312 0-15.794999 0-23.807496 0 .458512 14.448899 3.46991 27.937836 11.090699 39.99321 9.621383 15.220093 23.45317 25.214691 40.60643 30.470276 3.828033 1.172821 5.241043 3.119202 6.182495 7.016602 1.859207 7.696502 4.746567 15.147308 7.2742 22.677734.602814 1.795959 1.462983 3.505554 2.846299 6.7677-8.629944 1.164154-16.223191 2.811249-23.863221 3.068237-10.579635.355896-19.527053-4.429748-27.688476-10.87387-1.360947-1.074555-4.312546-2.35962-4.938233-1.79242-5.602264 5.078522-10.847999 10.550354-15.979713 15.687378.529373 1.096222.593407 1.495483.825935 1.669189 2.398239 1.791749 4.768349 3.629303 7.250168 5.299805 25.563156 17.206543 52.071854 21.624878 80.178055 6.088745 1.474274-.814941 4.066925-.639923 5.714127.065735 8.196563 3.511383 16.059112 7.893616 24.429641 10.872223 4.737854 1.685974 4.672943 3.542511 2.96402 7.182282-7.967514 16.969665-20.989212 26.52185-39.92128 27.81369-1.380981.094269-3.714249 1.960388-3.774475 3.099518-.358063 6.77304-.176926 13.574615-.176926 21.621398 7.591889-1.419494 14.639359-2.241455 21.405335-4.092376 23.216415-6.351166 39.558441-20.737427 47.58139-43.521057 2.444733-6.942566 4.380738-12.678498 13.164856-11.850769.931091.087738 1.940521-.432953 2.885712-.753601 6.851227-2.324128 13.695251-4.669434 20.816498-7.10196 9.600769 20.159241 4.632293 37.721161-8.635895 52.562012 5.892761 6.161377 11.35199 11.869415 16.990021 17.764465 13.172149-15.323333 21.792816-32.601257 21.767089-54.415954z" fill="#fff"/><path d="m333.985535 344.02475c.02536 21.334686-8.595307 38.61261-21.767456 53.935943-5.638031-5.89505-11.09726-11.603088-16.990021-17.764465 13.268188-14.840851 18.236664-32.402771 8.635895-52.562012-7.121247 2.432526-13.965271 4.777832-20.816498 7.10196-.945191.320648-1.954621.841339-2.885712.753601-8.784118-.827729-10.720123 4.908203-13.164856 11.850769-8.022949 22.78363-24.364975 37.169891-47.58139 43.521057-6.765976 1.850921-13.813446 2.672882-21.405335 4.092376 0-8.046783-.181137-14.848358.176926-21.621398.060226-1.13913 2.393494-3.005249 3.774475-3.099518 18.932068-1.29184 31.953766-10.844025 39.92128-27.81369 1.708923-3.639771 1.773834-5.496308-2.96402-7.182282-8.370529-2.978607-16.233078-7.36084-24.429641-10.872223-1.647202-.705658-4.239853-.880676-5.714127-.065735-28.106201 15.536133-54.614899 11.117798-80.178055-6.088745-2.481819-1.670502-4.851929-3.508056-7.250168-5.299805-.232528-.173706-.296562-.572967-.825935-1.669189 5.131714-5.137024 10.377449-10.608856 15.979713-15.687378.625687-.5672 3.577286.717865 4.938233 1.79242 8.161423 6.444122 17.108841 11.229766 27.688476 10.87387 7.64003-.256988 15.233277-1.904083 23.863221-3.068237-1.383316-3.262146-2.243485-4.971741-2.846299-6.7677-2.527633-7.530426-5.414993-14.981232-7.2742-22.677734-.941452-3.8974-2.354462-5.843781-6.182495-7.016602-17.15326-5.255585-30.985047-15.250183-40.60643-30.470276-7.620789-12.055374-10.632187-25.544311-11.090699-39.99321h23.807496c.717025 22.737107 12.049759 37.708481 32.935165 45.379151 3.25145-8.051361 5.345718-15.917298 9.42186-22.568711 3.988235-6.50795 4.237304-11.206604.633728-18.232666-10.330185-20.141159-9.249756-40.791763 1.177459-60.735092 3.963639-7.580978 9.022385-14.589393 14.262726-22.944023 5.979828 6.195839 11.173905 11.325172 15.959107 16.81115.70755.811172.024063 3.735763-.937607 4.956375-6.090637 7.730682-10.441208 16.137054-11.791351 26.017196-1.146408 8.389283.787948 16.124359 4.1474 23.713959 1.248199 2.819885 2.558914 2.455521 5.02127 1.494446 8.616745-3.363175 17.438965-6.201676 26.041169-9.598984 1.786468-.705536 3.718994-2.708267 4.305847-4.525894 5.734497-17.761307 15.894058-32.118561 31.884811-41.981277 11.126434-6.862549 23.475342-10.012566 36.437866-10.684258 1.062531-.055061 3.1344 1.898529 3.199829 3.009361.332642 5.647156.10434 11.324921.183838 16.990402.041474 2.955613-1.635833 3.533402-4.137542 3.675721-21.624756 1.230377-33.937623 14.3759-42.535798 33.232193 1.529267.663223 2.678833 1.172821 3.836914 1.662216 8.363221 3.534225 16.844483 6.820785 25.028962 10.729004 2.832031 1.352356 4.893768 2.012481 7.726349.332611 13.95227-8.274384 29.099487-11.328415 45.059936-8.796021 15.99411 2.537751 29.709137 10.099259 42.298523 21.171814-5.098816 5.410141-9.913818 10.768494-15.097443 15.742691-.752594.722229-3.686645.161393-4.90271-.750549-7.813781-5.859711-16.017395-10.579727-25.983093-11.731689-9.2005-1.063523-17.834717.199096-26.032898 4.96846 2.565369 6.584839 5.90857 12.825882 7.373047 19.480392 2.133179 9.69307 5.147766 17.647476 16.780029 18.144547 26.072236 11.879623 40.223725 32.220291 43.022675 60.617477.130615 1.325073.098633 2.686249.399811 3.970245.649719 2.769532-.553162 3.596924-3.13498 3.550354-4.831726-.087158-9.69931-.37445-14.490386.076172-4.997193.470032-6.831666-1.271972-6.854737-6.267151-.038605-8.370361-2.878906-15.957824-7.795135-22.732208-6.062378-8.353576-14.112488-13.82315-23.811554-16.638855-3.153473 7.744354-5.220429 15.838654-9.493866 22.522156-4.917786 7.691254-4.583344 13.718597-.651184 21.747528 3.462982 7.071045 3.916626 15.615906 5.699585 23.98996m-111.860199-120.358063c-14.775528 20.423126-15.985291 42.283356-5.115998 64.386841 8.509476 17.304596 23.59137 25.818359 42.893006 25.700805 19.208099-.117004 33.746887-8.839904 42.981933-25.773651 6.447388-11.822082 7.609497-24.66278 5.893463-37.783462-2.630676-20.114395-12.806488-35.069595-32.212097-41.812851-21.02124-7.304672-40.743805-1.327469-54.440307 15.282318z" fill="#030303"/><path d="m222.356689 223.393005c13.465149-16.336105 33.187714-22.313308 54.208954-15.008636 19.405609 6.743256 29.581421 21.698456 32.212097 41.812851 1.716034 13.120682.553925 25.96138-5.893463 37.783462-9.235046 16.933747-23.773834 25.656647-42.981933 25.773651-19.301636.117554-34.38353-8.396209-42.893006-25.700805-10.869293-22.103485-9.65953-43.963715 5.347351-64.660523z" fill="#fdfdfd"/></svg>