<svg version="1.1" id="Layer_1" xmlns="http://www.w3.org/2000/svg" xmlns:xlink="http://www.w3.org/1999/xlink" x="0px" y="0px"
	 width="100%" viewBox="0 0 512 512" enable-background="new 0 0 512 512" xml:space="preserve">
<path fill="#000000" opacity="1.000000" stroke="none" 
	d="
M199.009262,88.684555 
	C230.661774,91.245308 260.607391,98.120155 287.614960,114.687782 
	C305.831390,125.862549 320.322388,140.782257 330.817596,159.474121 
	C331.526154,160.736069 332.633850,161.930740 332.025482,163.772400 
	C329.396057,165.478058 326.334686,164.808273 323.413269,164.813263 
	C317.426453,164.823486 311.189697,165.689804 305.520782,164.303101 
	C299.557220,162.844315 297.582550,155.897202 293.348694,151.786789 
	C274.944366,133.919281 252.284088,125.315430 227.723862,120.308220 
	C211.671738,117.035591 195.421417,116.246986 179.159317,115.496994 
	C175.220749,115.315361 173.843124,113.949226 173.959274,110.170174 
	C174.133148,104.514114 174.127274,98.847519 174.010880,93.189255 
	C173.929199,89.218323 175.402054,87.391983 179.606476,87.719719 
	C185.903854,88.210609 192.226654,88.375076 199.009262,88.684555 
z"/>
<path fill="#000000" opacity="1.000000" stroke="none" 
	d="
M339.805359,329.086365 
	C331.225708,327.754120 326.649658,322.376587 328.103882,315.841064 
	C329.274475,310.580261 334.004669,306.656281 339.081726,306.734344 
	C344.376099,306.815765 349.052338,310.673737 350.098236,315.823242 
	C351.052826,320.523254 348.227570,325.815826 343.511993,328.006317 
	C342.472260,328.489319 341.309998,328.708557 339.805359,329.086365 
z"/>
<path fill="#000000" opacity="1.000000" stroke="none" 
	d="
M166.159317,311.349548 
	C171.217804,306.520447 174.980011,305.579529 179.771179,307.884033 
	C184.272202,310.048920 186.559814,313.830170 186.139877,318.708130 
	C185.702927,323.783752 182.691696,327.216400 177.713226,328.634338 
	C173.233200,329.910339 169.441269,328.351929 166.612564,324.965332 
	C163.163818,320.836395 162.924789,316.259186 166.159317,311.349548 
z"/>
<path fill="#000000" opacity="1.000000" stroke="none" 
	d="
M262.637085,363.889465 
	C267.992126,368.313354 269.386322,372.586334 267.376770,377.524658 
	C265.398529,382.385986 261.439178,384.770721 255.962708,384.399292 
	C251.126251,384.071259 247.371567,380.866821 246.141708,375.984955 
	C245.104187,371.866577 246.529510,368.440369 249.407059,365.613678 
	C253.179092,361.908234 257.617401,361.834961 262.637085,363.889465 
z"/>
<path fill="#000000" opacity="1.000000" stroke="none" 
	d="
M170.241333,273.611389 
	C176.955460,275.993134 180.196793,281.045624 178.836212,286.462494 
	C177.356079,292.355347 172.027847,296.068237 166.221756,295.252686 
	C160.636932,294.468262 156.486481,289.419617 156.719238,283.693817 
	C156.986450,277.120880 162.401550,272.943787 170.241333,273.611389 
z"/>
<path fill="#000000" opacity="1.000000" stroke="none" 
	d="
M316.856628,231.607758 
	C310.372009,228.460037 307.851532,223.346802 309.707642,217.753494 
	C311.462738,212.464554 317.056824,209.098145 322.217957,210.224991 
	C328.214020,211.534119 331.613892,216.158905 331.355194,222.101425 
	C331.114014,227.641739 323.742035,234.388184 316.856628,231.607758 
z"/>
<path fill="#000000" opacity="1.000000" stroke="none" 
	d="
M167.329651,258.702637 
	C163.526871,254.323746 162.695221,249.853104 165.606537,245.112701 
	C168.090698,241.067780 171.792709,239.111038 176.593262,239.774399 
	C181.374771,240.435104 184.428146,243.259811 185.782776,247.832687 
	C187.183655,252.561768 185.433807,256.373352 181.812668,259.339386 
	C177.569641,262.814819 173.151932,262.610413 167.329651,258.702637 
z"/>
<path fill="#000000" opacity="1.000000" stroke="none" 
	d="
M332.270050,242.065918 
	C338.218414,238.639816 343.392975,239.073776 347.125183,243.046753 
	C350.835541,246.996460 351.252808,252.259674 348.215363,256.797668 
	C345.273132,261.193390 340.174103,262.806091 335.047913,261.057739 
	C329.109833,259.032471 324.081085,249.510269 332.270050,242.065918 
z"/>
<path fill="#000000" opacity="1.000000" stroke="none" 
	d="
M203.596924,226.313568 
	C199.521378,231.747208 195.117691,233.375885 190.139984,231.538513 
	C185.547272,229.843277 182.641342,225.656464 182.723145,220.852554 
	C182.804749,216.060226 186.193481,211.783325 191.135910,210.399231 
	C195.374588,209.212219 199.162506,210.489288 201.959656,213.586166 
	C205.170792,217.141373 206.093430,221.421951 203.596924,226.313568 
z"/>
<path fill="#000000" opacity="1.000000" stroke="none" 
	d="
M338.654846,292.423553 
	C334.962372,288.056427 333.944733,283.630127 336.720886,278.804596 
	C338.898743,275.019104 342.246948,273.052917 346.631287,273.323486 
	C351.327881,273.613342 354.854156,275.792450 356.626862,280.349121 
	C358.343445,284.761444 356.932556,289.925751 353.191376,292.946045 
	C349.089752,296.257324 344.454620,296.175568 338.654846,292.423553 
z"/>
<path fill="#000000" opacity="1.000000" stroke="none" 
	d="
M296.089050,356.640015 
	C301.100433,359.822937 302.549072,364.224335 301.224274,369.365051 
	C300.099609,373.729156 297.039673,376.531647 292.480194,377.221405 
	C287.538544,377.969025 283.538727,376.165680 281.059174,371.824860 
	C278.709656,367.711700 278.978760,363.497833 281.847229,359.645386 
	C285.024872,355.377716 289.219604,354.469971 296.089050,356.640015 
z"/>
<path fill="#000000" opacity="1.000000" stroke="none" 
	d="
M287.628967,213.015045 
	C280.706268,209.529297 278.182526,204.586990 280.063751,198.868286 
	C281.646393,194.057205 286.585785,190.899979 291.711700,191.423050 
	C297.955048,192.060135 301.926178,196.629944 301.685883,202.900879 
	C301.468842,208.564636 296.885925,213.043518 291.003540,213.289993 
	C290.014801,213.331421 289.018158,213.183182 287.628967,213.015045 
z"/>
<path fill="#000000" opacity="1.000000" stroke="none" 
	d="
M324.208740,337.160461 
	C330.251129,340.634979 332.653076,345.832550 330.895630,350.952332 
	C329.194458,355.908264 324.666077,358.804138 319.233704,358.410126 
	C314.047211,358.033936 310.041260,354.243835 309.208740,348.925232 
	C307.976532,341.053253 314.264069,335.925476 324.208740,337.160461 
z"/>
<path fill="#000000" opacity="1.000000" stroke="none" 
	d="
M267.102234,199.663177 
	C264.196259,204.579559 260.366913,207.119995 254.904892,205.922699 
	C248.782684,204.580658 244.706253,198.350479 246.117676,192.866272 
	C247.759796,186.485718 253.752380,182.835556 259.780548,184.544022 
	C266.644165,186.489258 269.441406,192.006927 267.102234,199.663177 
z"/>
<path fill="#000000" opacity="1.000000" stroke="none" 
	d="
M230.914505,194.066711 
	C234.838730,198.329147 235.578598,202.861740 233.044800,207.588776 
	C230.820374,211.738678 227.133575,213.719360 222.318542,213.277573 
	C215.959167,212.694107 211.922180,207.381546 212.693146,200.613663 
	C213.375137,194.626633 219.126221,190.474731 225.194031,191.499695 
	C227.215439,191.841187 228.975174,192.658463 230.914505,194.066711 
z"/>
<path fill="#000000" opacity="1.000000" stroke="none" 
	d="
M234.352173,366.898193 
	C233.095688,374.268372 228.336655,378.078400 221.917191,377.271454 
	C216.097015,376.539825 212.398224,371.941132 212.632065,365.727264 
	C212.851135,359.905762 217.538834,355.180573 223.099899,355.175629 
	C229.652237,355.169830 233.828751,359.360504 234.352173,366.898193 
z"/>
<path fill="#000000" opacity="1.000000" stroke="none" 
	d="
M185.344925,340.447968 
	C189.547211,335.253571 197.382477,335.811340 201.327820,339.275421 
	C204.946564,342.452789 206.032440,348.078888 203.745544,352.417633 
	C200.749496,358.101746 194.030029,360.129425 188.393021,357.050446 
	C182.609451,353.891418 181.342911,347.624054 185.344925,340.447968 
z"/>
</svg>