<svg version="1.1" id="Layer_1" xmlns="http://www.w3.org/2000/svg" xmlns:xlink="http://www.w3.org/1999/xlink" x="0px" y="0px"
	 width="100%" viewBox="0 0 512 512" enable-background="new 0 0 512 512" xml:space="preserve">
<path fill="#000000" opacity="1.000000" stroke="none" 
	d="
M270.071259,104.455780 
	C277.131470,103.139435 283.906006,103.786644 290.567932,103.760803 
	C291.844238,106.072838 291.110291,107.941513 290.634369,109.865555 
	C284.332092,135.344604 267.664154,149.490814 242.322021,154.290634 
	C223.560837,157.844009 204.833862,156.309647 186.152359,153.879532 
	C171.146759,151.927597 156.375946,148.605667 141.575378,145.472153 
	C137.616806,144.634064 135.750366,143.152130 135.943527,138.932266 
	C136.202316,133.278976 135.966721,127.604813 136.043106,121.940956 
	C136.120743,116.186005 136.695206,115.646431 142.027298,116.890541 
	C156.438934,120.253128 170.916229,123.367386 185.587479,125.237190 
	C205.569275,127.783821 225.623276,129.906525 245.607788,124.988960 
	C256.966278,122.193985 265.640472,116.194374 270.071259,104.455780 
z"/>
<path fill="#000000" opacity="1.000000" stroke="none" 
	d="
M349.762573,314.752869 
	C350.614777,321.742249 348.210999,326.201355 342.812317,328.300903 
	C338.502899,329.976807 333.186737,328.492126 330.374359,324.726288 
	C327.680847,321.119690 326.947937,317.202301 329.136230,313.098267 
	C331.230530,309.170441 334.465698,306.653137 339.051971,306.787628 
	C344.147461,306.937012 347.813629,309.450104 349.762573,314.752869 
z"/>
<path fill="#000000" opacity="1.000000" stroke="none" 
	d="
M249.409668,381.622986 
	C245.619370,377.335205 244.608017,372.962463 247.420242,368.142578 
	C250.074249,363.593933 254.160629,361.953918 259.230438,362.747925 
	C263.812134,363.465454 266.581940,366.380981 267.802521,370.703857 
	C269.114990,375.352051 267.524414,379.223328 263.894318,382.183777 
	C259.880951,385.456787 254.953247,385.260773 249.409668,381.622986 
z"/>
<path fill="#000000" opacity="1.000000" stroke="none" 
	d="
M164.008286,316.416321 
	C167.443130,306.806030 175.834564,303.759644 182.339920,309.538361 
	C185.683289,312.508331 187.127472,316.348938 185.754608,320.815063 
	C184.286942,325.589569 180.875351,328.490814 176.012344,328.964447 
	C171.582016,329.395844 167.897339,327.470734 165.563354,323.477631 
	C164.365143,321.427734 163.617447,319.241791 164.008286,316.416321 
z"/>
<path fill="#000000" opacity="1.000000" stroke="none" 
	d="
M162.756195,274.489197 
	C169.928314,272.340332 175.091888,274.004578 177.685974,279.001190 
	C180.080658,283.613739 179.079269,289.113403 175.218231,292.554199 
	C170.530197,296.731995 163.237762,296.163483 159.277802,291.311493 
	C154.877579,285.920074 156.098221,279.477661 162.756195,274.489197 
z"/>
<path fill="#000000" opacity="1.000000" stroke="none" 
	d="
M189.983582,231.469437 
	C183.633789,227.813416 181.332031,222.573151 183.437714,217.283661 
	C185.417984,212.309128 190.485886,209.262024 195.296295,210.153564 
	C201.876770,211.373138 206.147675,217.165314 204.843445,223.101318 
	C203.390076,229.716095 197.627869,233.099426 189.983582,231.469437 
z"/>
<path fill="#000000" opacity="1.000000" stroke="none" 
	d="
M317.640930,231.846039 
	C310.760956,229.050781 307.902802,223.914062 309.645355,218.059189 
	C311.227112,212.744720 316.803650,209.151382 321.916260,210.152206 
	C328.122620,211.367172 331.870697,216.210266 331.305084,222.284012 
	C330.727356,228.487595 325.192139,232.522552 317.640930,231.846039 
z"/>
<path fill="#000000" opacity="1.000000" stroke="none" 
	d="
M184.145386,256.898163 
	C179.450134,261.792725 175.464203,262.932922 170.572052,260.835724 
	C166.322830,259.014160 164.072876,255.504166 163.940643,251.054184 
	C163.800690,246.343307 166.233475,242.817108 170.488281,240.680634 
	C174.471573,238.680511 179.760620,239.627731 182.941666,242.857162 
	C186.634689,246.606323 187.080399,250.919342 184.145386,256.898163 
z"/>
<path fill="#000000" opacity="1.000000" stroke="none" 
	d="
M331.664734,242.564774 
	C338.447601,238.155518 344.922272,239.134018 348.458862,244.801926 
	C351.849762,250.236313 350.112885,256.982361 344.465027,260.314087 
	C340.079681,262.901062 334.239380,261.965485 330.815369,258.127502 
	C326.748932,253.569443 326.925110,248.704559 331.664734,242.564774 
z"/>
<path fill="#000000" opacity="1.000000" stroke="none" 
	d="
M357.325348,284.020386 
	C356.401215,291.126251 352.748901,295.007812 347.099548,295.313477 
	C341.424255,295.620483 337.051056,292.476471 335.606018,287.050262 
	C334.271027,282.037231 336.574249,276.873901 341.226624,274.450287 
	C348.210358,270.812164 355.638306,275.034882 357.325348,284.020386 
z"/>
<path fill="#000000" opacity="1.000000" stroke="none" 
	d="
M246.187057,197.394775 
	C244.687866,190.824326 249.977554,184.823090 255.658646,183.998642 
	C260.795044,183.253265 266.229340,187.021240 267.769806,192.309250 
	C269.320648,197.632874 266.267792,203.386169 260.750580,205.537399 
	C254.973038,207.790161 249.078033,204.626648 246.187057,197.394775 
z"/>
<path fill="#000000" opacity="1.000000" stroke="none" 
	d="
M280.437744,198.020020 
	C285.077026,190.988663 292.038910,189.299988 297.556122,193.548004 
	C302.359833,197.246643 303.054230,204.891769 299.011017,209.566238 
	C295.827820,213.246445 290.133606,214.430405 285.839111,212.304947 
	C280.743195,209.782883 278.948608,205.307526 280.437744,198.020020 
z"/>
<path fill="#000000" opacity="1.000000" stroke="none" 
	d="
M286.841003,376.770630 
	C280.612701,373.081024 278.541077,368.973938 279.862213,363.516937 
	C280.873535,359.339508 285.129395,355.731812 289.549225,355.305206 
	C296.021210,354.680573 301.206207,359.157318 301.639221,365.743805 
	C302.055328,372.073883 297.175903,377.245880 290.671234,377.301727 
	C289.521027,377.311615 288.368591,377.063354 286.841003,376.770630 
z"/>
<path fill="#000000" opacity="1.000000" stroke="none" 
	d="
M309.071625,347.892273 
	C310.453979,339.827209 314.157990,336.417999 320.826935,336.653687 
	C326.429016,336.851685 330.573059,340.619080 331.267395,346.145264 
	C331.969818,351.735779 327.929260,357.387360 322.568817,358.312134 
	C315.762604,359.486328 311.006287,355.946075 309.071625,347.892273 
z"/>
<path fill="#000000" opacity="1.000000" stroke="none" 
	d="
M223.923218,377.314819 
	C216.853683,376.575012 213.138687,373.313171 212.668564,367.809265 
	C212.162476,361.884003 215.339386,356.966705 220.563324,355.589478 
	C225.708786,354.232941 231.246872,356.758789 233.421799,361.576721 
	C236.826050,369.117828 231.519775,377.033112 223.923218,377.314819 
z"/>
<path fill="#000000" opacity="1.000000" stroke="none" 
	d="
M222.202805,191.326965 
	C232.347412,192.472336 237.264740,199.797882 233.310684,207.261978 
	C230.828262,211.948059 225.706024,214.319626 220.764267,213.070953 
	C215.796661,211.815704 212.673386,207.764420 212.632629,202.523117 
	C212.586533,196.595261 215.466797,193.098785 222.202805,191.326965 
z"/>
<path fill="#000000" opacity="1.000000" stroke="none" 
	d="
M204.353546,350.969696 
	C200.298874,360.886261 188.835953,359.800964 184.835037,353.919067 
	C181.842377,349.519470 182.087967,344.094360 185.609207,340.131012 
	C188.802139,336.537170 194.366806,335.514252 198.819077,337.702759 
	C203.744644,340.123901 205.685318,344.559143 204.353546,350.969696 
z"/>
</svg>