<svg version="1.1" id="Layer_1" xmlns="http://www.w3.org/2000/svg" xmlns:xlink="http://www.w3.org/1999/xlink" x="0px" y="0px"
	 width="100%" viewBox="0 0 512 512" enable-background="new 0 0 512 512" xml:space="preserve">
<path fill="#000000" opacity="1.000000" stroke="none" 
	d="
M374.252136,112.806091 
	C373.568237,115.834961 371.446411,115.332886 369.726288,115.334480 
	C332.780731,115.368744 295.835114,115.334198 258.889679,115.411171 
	C255.543762,115.418152 253.933563,114.325905 253.988937,110.864243 
	C254.087418,104.708282 254.070389,98.550034 254.054367,92.392860 
	C254.045837,89.113060 255.418518,87.679970 258.883209,87.687370 
	C295.828613,87.766312 332.774323,87.764824 369.719727,87.694748 
	C373.137268,87.688255 374.493134,88.884148 374.396606,92.356445 
	C374.211639,99.008278 374.319275,105.668236 374.252136,112.806091 
z"/>
<path fill="#000000" opacity="1.000000" stroke="none" 
	d="
M340.591675,328.968872 
	C335.089355,329.135284 331.224945,327.089111 328.959717,322.401703 
	C327.028656,318.405670 327.640717,314.598083 330.305908,311.218018 
	C333.205292,307.540924 337.016388,305.880402 341.728363,307.137115 
	C346.548187,308.422577 349.520996,311.645569 350.127960,316.520630 
	C350.707214,321.172974 348.724884,324.926880 344.631104,327.362701 
	C343.510284,328.029602 342.206268,328.388672 340.591675,328.968872 
z"/>
<path fill="#000000" opacity="1.000000" stroke="none" 
	d="
M247.478073,379.219055 
	C243.445114,373.085815 247.246078,365.198517 253.434769,363.025055 
	C259.680176,360.831757 266.087250,364.392303 267.871765,370.801422 
	C269.206848,375.596344 266.783783,380.908600 262.151917,383.341644 
	C257.256470,385.913116 252.043076,384.547485 247.478073,379.219055 
z"/>
<path fill="#000000" opacity="1.000000" stroke="none" 
	d="
M355.990601,289.550018 
	C351.842285,294.941162 347.828766,296.557922 342.868744,294.898499 
	C338.298615,293.369568 335.737091,289.975342 335.255493,285.294373 
	C334.766510,280.542084 336.890320,276.839203 341.071503,274.571106 
	C345.507874,272.164612 349.810272,272.917419 353.616882,276.026733 
	C357.468872,279.173157 358.211151,283.510498 355.990601,289.550018 
z"/>
<path fill="#000000" opacity="1.000000" stroke="none" 
	d="
M202.758911,227.614731 
	C197.794098,232.428192 193.852753,233.426376 189.164444,231.129456 
	C184.693878,228.939240 182.550598,225.219437 182.764450,220.281586 
	C182.962936,215.698578 186.502472,211.564682 191.187302,210.365860 
	C195.621460,209.231216 199.566986,210.559021 202.329102,213.998276 
	C205.611191,218.084961 206.173660,222.699249 202.758911,227.614731 
z"/>
<path fill="#000000" opacity="1.000000" stroke="none" 
	d="
M326.132904,230.424103 
	C319.255585,233.445587 313.658630,231.970963 310.672668,226.653122 
	C307.854156,221.633514 309.039978,215.898804 313.622345,212.388031 
	C318.449036,208.690079 325.015045,209.379913 328.816650,213.984406 
	C332.902496,218.933151 332.023102,224.997284 326.132904,230.424103 
z"/>
<path fill="#000000" opacity="1.000000" stroke="none" 
	d="
M164.044342,252.556641 
	C164.144577,245.709076 167.110321,241.312637 172.204514,239.927841 
	C176.714798,238.701797 181.867905,240.723282 184.405273,244.714081 
	C187.875320,250.171860 186.212509,256.860443 180.544495,260.243683 
	C175.274338,263.389435 168.528381,261.605286 165.430527,256.185242 
	C164.859863,255.186829 164.561523,254.032791 164.044342,252.556641 
z"/>
<path fill="#000000" opacity="1.000000" stroke="none" 
	d="
M335.998352,261.280884 
	C329.669891,258.382233 326.952698,253.837234 328.127228,248.695679 
	C329.312439,243.507477 333.685486,239.776413 338.695557,239.678848 
	C344.089081,239.573837 348.206451,242.753738 349.867767,247.901642 
	C352.042328,254.640015 344.912018,263.991730 335.998352,261.280884 
z"/>
<path fill="#000000" opacity="1.000000" stroke="none" 
	d="
M172.724182,294.205811 
	C166.474762,296.148346 161.934677,295.033630 158.996933,290.877686 
	C156.138718,286.834198 155.721222,282.591949 158.599686,278.318634 
	C161.494629,274.020844 166.188080,272.307526 171.278702,273.793091 
	C175.760681,275.100983 178.194092,278.352722 178.880249,282.793762 
	C179.658646,287.831696 177.180191,291.393433 172.724182,294.205811 
z"/>
<path fill="#000000" opacity="1.000000" stroke="none" 
	d="
M185.147003,313.299133 
	C187.300262,320.406555 184.828430,325.956604 178.776825,328.299164 
	C173.514221,330.336273 167.512619,327.804474 165.013504,322.493073 
	C162.568954,317.297638 164.516800,311.396362 169.693451,308.314453 
	C175.108597,305.090576 180.755585,306.791718 185.147003,313.299133 
z"/>
<path fill="#000000" opacity="1.000000" stroke="none" 
	d="
M291.680481,355.382874 
	C299.062469,357.035492 302.582489,361.813843 301.497650,368.272461 
	C300.534485,374.006744 295.637238,377.731750 289.621124,377.306152 
	C283.906860,376.901886 279.650269,372.172363 279.667877,366.247009 
	C279.687012,359.803558 283.793060,355.942657 291.680481,355.382874 
z"/>
<path fill="#000000" opacity="1.000000" stroke="none" 
	d="
M257.883118,206.241516 
	C247.147171,204.745773 242.574417,196.084808 248.242035,188.532639 
	C250.781204,185.149155 254.246017,183.322601 258.685699,184.215622 
	C263.541260,185.192291 266.816589,187.929855 267.937653,192.852890 
	C268.923920,197.183929 267.272827,200.693512 264.105774,203.553192 
	C262.473328,205.027237 260.499542,205.920959 257.883118,206.241516 
z"/>
<path fill="#000000" opacity="1.000000" stroke="none" 
	d="
M299.713745,208.570496 
	C296.247345,213.036392 291.941376,214.378784 287.080994,212.763016 
	C282.871765,211.363708 280.176392,208.253967 279.704376,203.609711 
	C279.216766,198.811920 281.120148,195.188049 285.229462,192.751312 
	C289.218353,190.386017 294.901367,191.017975 298.236450,194.104141 
	C301.950775,197.541245 302.571716,202.703552 299.713745,208.570496 
z"/>
<path fill="#000000" opacity="1.000000" stroke="none" 
	d="
M316.396698,357.891113 
	C310.154724,354.311218 308.055786,350.111816 309.528931,344.693390 
	C310.889191,339.690063 314.907623,336.653534 320.183228,336.642365 
	C326.706238,336.628571 331.251007,341.063995 331.325439,347.516541 
	C331.397064,353.725952 326.614105,358.449402 320.205811,358.431641 
	C319.051697,358.428436 317.898285,358.179596 316.396698,357.891113 
z"/>
<path fill="#000000" opacity="1.000000" stroke="none" 
	d="
M234.128876,205.392212 
	C232.230621,209.819061 229.471649,212.728973 224.873672,213.257874 
	C218.500305,213.991013 213.124420,209.725906 212.661942,203.683762 
	C212.148407,196.974747 216.518982,191.508163 222.629608,191.216446 
	C229.394012,190.893509 234.258331,195.571136 234.348831,202.506531 
	C234.359619,203.333145 234.268112,204.161118 234.128876,205.392212 
z"/>
<path fill="#000000" opacity="1.000000" stroke="none" 
	d="
M213.087982,370.228516 
	C212.058105,360.668976 216.604202,354.642578 223.941299,355.247467 
	C229.437820,355.700623 233.611130,359.365356 234.292557,364.337311 
	C235.070389,370.012665 231.970612,375.262207 226.853485,376.935425 
	C221.610641,378.649750 216.599609,376.324493 213.087982,370.228516 
z"/>
<path fill="#000000" opacity="1.000000" stroke="none" 
	d="
M203.436523,341.831177 
	C207.626266,349.164001 202.568024,356.289124 197.332565,357.991943 
	C191.523666,359.881287 185.334671,356.692078 183.335403,350.861420 
	C181.669693,346.003540 183.680954,340.785431 188.282028,338.027863 
	C193.217377,335.069855 198.564301,336.307220 203.436523,341.831177 
z"/>
</svg>