<svg version="1.1" id="Layer_1" xmlns="http://www.w3.org/2000/svg" xmlns:xlink="http://www.w3.org/1999/xlink" x="0px" y="0px"
	 width="100%" viewBox="0 0 512 512" enable-background="new 0 0 512 512" xml:space="preserve">
<path fill="#000000" opacity="1.000000" stroke="none" 
	d="
M160.000031,88.749435 
	C236.277679,88.750595 312.055298,88.751328 387.832947,88.753784 
	C395.339203,88.754028 395.342285,88.758957 395.347076,96.455582 
	C395.350189,101.451904 395.202026,106.453461 395.388031,111.442749 
	C395.518158,114.934151 394.045319,116.343246 390.683228,116.125496 
	C389.688568,116.061066 388.685516,116.130783 387.686310,116.130745 
	C300.417114,116.127663 213.147934,116.124184 125.878754,116.119171 
	C118.679024,116.118759 118.672310,116.113800 118.658501,109.095070 
	C118.648338,103.932228 118.818436,98.762756 118.605988,93.608696 
	C118.454109,89.923897 119.854492,88.628487 123.527489,88.677086 
	C135.516556,88.835709 147.508926,88.744560 160.000031,88.749435 
z"/>
<path fill="#000000" opacity="1.000000" stroke="none" 
	d="
M343.727966,307.831970 
	C349.422638,311.665314 351.333344,316.065491 349.725281,320.952209 
	C348.167816,325.685089 343.551727,329.191925 338.979736,329.115601 
	C333.996613,329.032410 329.515442,325.401337 328.213257,320.319489 
	C327.162048,316.216949 328.546844,312.739166 331.440704,309.936676 
	C334.842560,306.642151 338.893372,305.824219 343.727966,307.831970 
z"/>
<path fill="#000000" opacity="1.000000" stroke="none" 
	d="
M247.174988,368.532776 
	C251.365128,362.971008 255.385193,361.286804 260.616455,363.004547 
	C265.147552,364.492401 267.744629,367.905548 268.157043,372.562775 
	C268.571747,377.245575 266.536591,381.057495 262.293640,383.199799 
	C257.969269,385.383209 253.514603,385.216248 249.792206,381.893127 
	C245.819656,378.346741 244.642334,373.920135 247.174988,368.532776 
z"/>
<path fill="#000000" opacity="1.000000" stroke="none" 
	d="
M193.127258,232.234177 
	C183.061417,229.514328 179.528152,220.343674 185.697495,213.720535 
	C188.905823,210.276184 192.832138,209.109909 197.497849,210.696777 
	C202.212006,212.300125 204.485138,215.828247 204.932022,220.401962 
	C205.373215,224.917236 203.187332,228.413727 199.230667,230.694611 
	C197.478928,231.704422 195.614059,232.396759 193.127258,232.234177 
z"/>
<path fill="#000000" opacity="1.000000" stroke="none" 
	d="
M321.609985,210.094574 
	C329.468903,212.448517 333.152740,218.597824 330.752106,224.793167 
	C328.359406,230.968002 321.595642,233.804642 315.579071,231.156540 
	C311.156158,229.209869 308.492676,224.090088 309.384338,219.248886 
	C310.405975,213.701660 314.694214,210.351654 321.609985,210.094574 
z"/>
<path fill="#000000" opacity="1.000000" stroke="none" 
	d="
M164.914337,246.327286 
	C168.743835,240.600845 172.524933,238.708344 177.570145,239.916855 
	C182.479294,241.092758 185.401047,244.416397 186.104645,249.269806 
	C186.824509,254.235291 184.468857,258.036499 180.173355,260.433472 
	C175.956589,262.786530 171.665390,262.241394 168.057022,259.252747 
	C164.115372,255.987991 162.782822,251.685806 164.914337,246.327286 
z"/>
<path fill="#000000" opacity="1.000000" stroke="none" 
	d="
M345.211731,241.472626 
	C350.244568,246.277527 351.413544,250.313171 349.222717,254.966736 
	C347.120117,259.432892 343.596802,261.959900 338.569763,261.738403 
	C333.294678,261.506042 329.488892,258.227234 328.238312,253.138092 
	C327.172150,248.799500 328.723724,245.223099 331.913483,242.409195 
	C335.875671,238.913849 340.302399,238.805466 345.211731,241.472626 
z"/>
<path fill="#000000" opacity="1.000000" stroke="none" 
	d="
M170.240784,273.617126 
	C176.592712,275.875336 179.811172,280.437988 179.040451,285.597900 
	C178.296341,290.579651 173.812927,294.911804 168.997009,295.302551 
	C163.497498,295.748749 158.771500,292.552185 157.170898,287.303650 
	C154.839142,279.657593 161.099686,272.878510 170.240784,273.617126 
z"/>
<path fill="#000000" opacity="1.000000" stroke="none" 
	d="
M337.063446,278.250580 
	C340.555573,273.406982 345.031464,272.322449 350.086670,273.991669 
	C354.413086,275.420288 356.876526,278.713440 357.279449,283.292297 
	C357.701996,288.093750 355.561432,291.671295 351.481110,294.065430 
	C347.658295,296.308441 342.264435,295.641876 338.905060,292.654663 
	C335.058563,289.234314 334.331177,284.242462 337.063446,278.250580 
z"/>
<path fill="#000000" opacity="1.000000" stroke="none" 
	d="
M168.372879,309.192230 
	C173.028503,305.793396 177.467056,306.033508 181.668411,309.030365 
	C185.181427,311.536194 186.821045,315.223022 186.059586,319.507233 
	C185.238586,324.126434 182.411530,327.249359 177.815109,328.614075 
	C173.435013,329.914490 168.262817,327.847382 165.738434,323.782013 
	C162.659409,318.823395 163.335556,314.648315 168.372879,309.192230 
z"/>
<path fill="#000000" opacity="1.000000" stroke="none" 
	d="
M280.791687,361.293091 
	C284.919708,355.808838 289.137390,354.107727 294.304871,355.863495 
	C298.864075,357.412628 301.290680,360.783112 301.609772,365.580627 
	C301.946075,370.636963 299.644135,374.299896 295.151886,376.371033 
	C291.045746,378.264191 286.991058,377.763062 283.512909,374.748901 
	C279.353943,371.144714 278.630554,366.670715 280.791687,361.293091 
z"/>
<path fill="#000000" opacity="1.000000" stroke="none" 
	d="
M247.456421,189.748886 
	C250.709244,185.019958 254.645554,182.930862 260.067535,184.605377 
	C264.999268,186.128464 268.217529,189.894958 268.193848,194.753036 
	C268.169800,199.691162 265.715179,203.301117 261.202423,205.342026 
	C256.675568,207.389328 252.571518,206.062820 249.306076,202.831512 
	C245.682861,199.246155 244.654144,194.859756 247.456421,189.748886 
z"/>
<path fill="#000000" opacity="1.000000" stroke="none" 
	d="
M300.361145,196.947540 
	C302.412842,202.409119 302.100189,207.146362 297.629028,210.812866 
	C293.959473,213.821976 289.734222,214.340775 285.532135,212.083008 
	C281.173737,209.741241 279.116028,205.903641 279.724182,200.914627 
	C280.308350,196.122574 283.169220,192.929108 287.705414,191.770630 
	C292.806671,190.467850 297.234161,191.873474 300.361145,196.947540 
z"/>
<path fill="#000000" opacity="1.000000" stroke="none" 
	d="
M309.340210,349.427307 
	C309.194122,341.237762 313.278503,336.633026 320.242645,336.641693 
	C326.933075,336.650055 331.528961,341.386780 331.321533,348.060089 
	C331.165466,353.080750 327.038147,357.711121 322.144165,358.356049 
	C315.868774,359.183014 311.695251,356.374756 309.340210,349.427307 
z"/>
<path fill="#000000" opacity="1.000000" stroke="none" 
	d="
M212.654358,365.231689 
	C214.465668,357.620575 219.096268,354.271912 225.480179,355.546143 
	C231.924362,356.832458 235.526550,362.316925 234.239197,368.882050 
	C233.202194,374.170410 227.513321,378.019653 221.846039,377.267609 
	C216.126770,376.508606 212.915421,372.460754 212.654358,365.231689 
z"/>
<path fill="#000000" opacity="1.000000" stroke="none" 
	d="
M218.368973,212.061249 
	C213.098022,208.264389 211.312698,204.120453 212.966583,199.061584 
	C214.343872,194.848770 217.231064,191.975616 221.840530,191.388260 
	C226.729111,190.765320 231.442871,193.192535 233.343414,197.434631 
	C235.256104,201.703812 234.947571,205.897766 231.760498,209.475510 
	C228.160553,213.516769 223.733917,214.445892 218.368973,212.061249 
z"/>
<path fill="#000000" opacity="1.000000" stroke="none" 
	d="
M194.790558,336.658203 
	C201.755417,338.254517 205.273361,342.243042 205.087753,347.867767 
	C204.919617,352.962952 200.470688,357.786865 195.439346,358.329498 
	C189.584610,358.960907 184.846436,355.919281 183.188492,350.465149 
	C181.051544,343.435211 186.221115,337.041840 194.790558,336.658203 
z"/>
</svg>