<?xml version="1.0" standalone="no"?>
<!DOCTYPE svg PUBLIC "-//W3C//DTD SVG 20010904//EN"
 "http://www.w3.org/TR/2001/REC-SVG-20010904/DTD/svg10.dtd">
<svg version="1.0" xmlns="http://www.w3.org/2000/svg"
 width="512.000000pt" height="514.000000pt" viewBox="0 0 512.000000 514.000000"
 preserveAspectRatio="xMidYMid meet">

<g transform="translate(0.000000,514.000000) scale(0.100000,-0.100000)"
fill="#000000" stroke="none">
<path d="M2534 3302 c-12 -2 -34 -16 -49 -32 -79 -82 15 -214 118 -165 116 55
60 216 -69 197z"/>
<path d="M2151 3199 c-63 -63 -25 -164 66 -176 39 -5 46 -2 78 30 25 25 35 44
35 67 0 65 -43 109 -107 110 -33 0 -48 -6 -72 -31z"/>
<path d="M2840 3217 c-83 -65 -54 -180 47 -194 39 -5 46 -2 78 30 29 29 35 42
35 77 0 59 -41 100 -102 100 -24 0 -50 -6 -58 -13z"/>
<path d="M1905 3041 c-46 -14 -85 -58 -85 -99 0 -64 69 -120 130 -107 104 23
108 176 5 203 -16 5 -39 6 -50 3z"/>
<path d="M3154 3035 c-67 -28 -85 -108 -38 -164 48 -57 135 -47 169 19 19 37
19 63 0 100 -25 48 -81 67 -131 45z"/>
<path d="M1689 2735 c-15 -8 -34 -30 -43 -50 -48 -100 77 -191 162 -120 38 32
48 72 28 118 -24 59 -91 82 -147 52z"/>
<path d="M3329 2735 c-15 -8 -34 -30 -43 -50 -48 -100 77 -191 162 -120 38 32
48 72 28 118 -24 59 -91 82 -147 52z"/>
<path d="M1601 2384 c-57 -48 -47 -135 19 -169 36 -19 63 -19 98 -1 61 32 73
117 23 167 -39 39 -96 40 -140 3z"/>
<path d="M3379 2381 c-64 -64 -18 -181 71 -181 53 0 110 57 110 110 0 87 -118
133 -181 71z"/>
<path d="M1694 2064 c-38 -19 -58 -54 -57 -100 2 -58 66 -108 125 -97 35 7 75
46 83 83 10 44 -18 98 -59 115 -44 19 -53 18 -92 -1z"/>
<path d="M3334 2064 c-38 -19 -58 -54 -57 -100 2 -58 66 -108 125 -97 35 7 75
46 83 83 10 44 -18 98 -59 115 -44 19 -53 18 -92 -1z"/>
<path d="M1872 1764 c-60 -41 -65 -123 -11 -168 80 -67 195 8 168 109 -18 64
-104 96 -157 59z"/>
<path d="M3145 1768 c-35 -19 -55 -52 -55 -91 0 -49 13 -73 50 -92 45 -23 85
-19 122 14 28 25 33 36 33 76 0 40 -5 51 -33 76 -34 31 -80 38 -117 17z"/>
<path d="M2151 1559 c-63 -63 -25 -164 66 -176 39 -5 46 -2 78 30 25 25 35 44
35 67 0 65 -43 109 -107 110 -33 0 -48 -6 -72 -31z"/>
<path d="M2840 1577 c-83 -65 -54 -180 47 -194 39 -5 46 -2 78 30 29 29 35 42
35 77 0 59 -41 100 -102 100 -24 0 -50 -6 -58 -13z"/>
<path d="M2498 1497 c-38 -31 -51 -71 -38 -113 32 -96 161 -99 200 -5 16 39 6
76 -30 112 -36 37 -92 40 -132 6z"/>
<path d="M1790 1042 c0 -16 72 -127 124 -192 282 -348 723 -532 1329 -553
l117 -4 0 133 0 134 -72 0 c-120 1 -355 27 -488 55 -216 46 -395 123 -538 232
-65 50 -167 158 -179 190 -4 10 -42 13 -149 13 -79 0 -144 -4 -144 -8z"/>
</g>
</svg>
