<svg version="1.1" id="Layer_1" xmlns="http://www.w3.org/2000/svg" xmlns:xlink="http://www.w3.org/1999/xlink" x="0px" y="0px"
	 width="100%" viewBox="0 0 512 512" enable-background="new 0 0 512 512" xml:space="preserve">
<path fill="#000000" opacity="1.000000" stroke="none" 
	d="
M265.589539,415.533600 
	C266.046448,414.806549 266.251495,414.317810 266.601715,413.979218 
	C268.824432,411.830383 267.851868,407.168854 271.697296,406.565094 
	C277.623901,405.634613 283.685822,405.677856 289.621948,406.470428 
	C292.545349,406.860779 291.378571,409.667969 290.963257,411.433472 
	C285.922394,432.863922 273.541565,447.850403 252.202988,454.546722 
	C237.889221,459.038544 223.104782,459.777374 208.220963,458.903870 
	C185.731735,457.583954 163.757141,453.034637 141.793564,448.351624 
	C137.434921,447.422272 135.630951,445.607666 135.934677,441.002136 
	C136.328598,435.028656 136.019608,429.010132 136.057465,423.011292 
	C136.076981,419.917969 137.093552,418.585876 140.679504,419.406403 
	C155.747940,422.854156 170.853928,426.208923 186.213516,428.105408 
	C206.218903,430.575531 226.251816,432.870728 246.219070,427.690430 
	C253.838120,425.713715 260.471802,422.158783 265.589539,415.533600 
z"/>
<path fill="#000000" opacity="1.000000" stroke="none" 
	d="
M348.658691,323.299561 
	C344.668427,328.469482 340.802338,329.998260 336.083832,328.514771 
	C331.400116,327.042175 327.909546,322.957581 327.910156,318.380280 
	C327.910797,313.492310 330.272949,309.804962 334.723724,307.721100 
	C339.124939,305.660522 343.288147,306.675079 346.657898,309.852203 
	C350.557098,313.528564 351.380951,318.049225 348.658691,323.299561 
z"/>
<path fill="#000000" opacity="1.000000" stroke="none" 
	d="
M199.242783,211.431244 
	C204.501205,215.484848 206.093353,219.737244 204.398041,224.477798 
	C202.684830,229.268356 198.177597,232.463882 193.429504,232.254227 
	C188.510254,232.037018 184.256897,228.572510 183.034943,223.703384 
	C181.960709,219.423004 183.332138,215.778885 186.449249,212.898071 
	C190.129059,209.497208 194.405090,209.204086 199.242783,211.431244 
z"/>
<path fill="#000000" opacity="1.000000" stroke="none" 
	d="
M167.991882,295.322784 
	C159.937805,294.142120 155.491669,288.577850 156.889404,281.954102 
	C158.158966,275.937714 164.357712,272.228455 170.715134,273.680908 
	C175.673660,274.813751 179.308456,279.567444 179.133972,284.691345 
	C178.949677,290.103027 174.758179,294.259338 167.991882,295.322784 
z"/>
<path fill="#000000" opacity="1.000000" stroke="none" 
	d="
M331.246979,219.345062 
	C331.179291,226.091934 328.235779,230.390869 322.987518,231.887436 
	C318.753265,233.094849 313.649658,231.175705 311.151825,227.436829 
	C308.286804,223.148315 308.554932,217.835083 311.829193,214.013443 
	C317.947479,206.872345 327.630646,209.328629 331.246979,219.345062 
z"/>
<path fill="#000000" opacity="1.000000" stroke="none" 
	d="
M175.052887,261.824432 
	C167.177567,260.252869 162.961731,255.318558 163.976334,249.289688 
	C165.004410,243.180756 170.531479,238.995819 176.574326,239.750885 
	C181.830246,240.407623 186.011734,244.935715 186.262009,250.241547 
	C186.529617,255.915131 182.387878,260.358734 175.052887,261.824432 
z"/>
<path fill="#000000" opacity="1.000000" stroke="none" 
	d="
M328.421051,247.823792 
	C331.397552,241.505524 335.140625,239.092789 340.506653,239.741913 
	C345.241943,240.314728 349.050385,243.878647 350.060852,248.682571 
	C350.982758,253.065475 348.552216,258.058319 344.276031,260.428436 
	C340.402740,262.575195 336.426758,262.253845 332.929901,259.898590 
	C328.888733,257.176727 327.087677,253.190262 328.421051,247.823792 
z"/>
<path fill="#000000" opacity="1.000000" stroke="none" 
	d="
M345.224182,295.298431 
	C338.439209,293.553925 334.875092,289.331055 335.114777,283.801178 
	C335.331726,278.795685 339.368439,274.254395 344.335815,273.427521 
	C349.733246,272.529083 354.784058,275.421967 356.680756,280.498230 
	C359.424866,287.842316 354.211365,294.842072 345.224182,295.298431 
z"/>
<path fill="#000000" opacity="1.000000" stroke="none" 
	d="
M180.433594,308.219513 
	C185.737747,312.357666 187.301163,316.578430 185.559006,321.341248 
	C183.843338,326.031677 178.974838,329.432800 174.470901,329.087341 
	C169.574921,328.711823 165.409439,325.151245 164.209351,320.214813 
	C163.202637,316.073822 164.688889,312.610321 167.637604,309.848206 
	C171.286469,306.430176 175.526688,305.802704 180.433594,308.219513 
z"/>
<path fill="#000000" opacity="1.000000" stroke="none" 
	d="
M301.167511,369.872986 
	C297.601135,376.099854 294.037109,378.200470 288.606232,377.187653 
	C283.906860,376.311279 280.836243,373.347595 279.839905,368.698181 
	C278.439636,362.163818 282.895752,356.081543 289.342896,355.329590 
	C295.981903,354.555237 301.325165,359.168030 301.663483,366.050476 
	C301.719635,367.192261 301.410858,368.352020 301.167511,369.872986 
z"/>
<path fill="#000000" opacity="1.000000" stroke="none" 
	d="
M248.994965,365.979645 
	C253.110519,362.014130 257.591064,361.632172 262.190399,363.724335 
	C266.173889,365.536316 268.164429,369.081970 268.189331,373.378510 
	C268.215485,377.892975 266.034210,381.349854 261.931335,383.413422 
	C257.561249,385.611298 251.853287,384.476196 248.656525,380.845764 
	C244.934631,376.618958 244.956070,372.035065 248.994965,365.979645 
z"/>
<path fill="#000000" opacity="1.000000" stroke="none" 
	d="
M261.726746,205.142029 
	C254.493469,207.361816 248.543533,204.602829 246.489807,198.412537 
	C244.573166,192.635406 247.718536,186.643784 253.779099,184.527161 
	C258.471466,182.888412 264.713470,185.480408 266.952026,189.997208 
	C269.711243,195.564484 268.074097,200.604233 261.726746,205.142029 
z"/>
<path fill="#000000" opacity="1.000000" stroke="none" 
	d="
M280.436066,198.018646 
	C284.357300,192.038467 288.460480,190.163071 294.010468,191.806107 
	C298.644745,193.178009 301.113281,196.436615 301.555573,201.259262 
	C302.012177,206.238251 299.665100,210.463623 294.998352,212.441269 
	C291.031830,214.122192 287.171631,213.713547 283.764740,210.942688 
	C279.664581,207.608002 278.818054,203.298172 280.436066,198.018646 
z"/>
<path fill="#000000" opacity="1.000000" stroke="none" 
	d="
M330.442108,351.914795 
	C325.691498,358.821106 319.277435,360.427094 313.692566,356.428955 
	C308.707367,352.860107 307.645782,345.968994 311.310486,340.965881 
	C314.378357,336.777557 320.386505,335.320129 325.189270,337.599182 
	C330.150665,339.953552 332.117340,345.012970 330.442108,351.914795 
z"/>
<path fill="#000000" opacity="1.000000" stroke="none" 
	d="
M219.096329,212.423859 
	C213.078201,208.634155 211.146378,203.849915 213.132233,198.398071 
	C214.828293,193.741745 219.623535,190.780945 224.481903,191.390213 
	C231.511826,192.271835 235.608917,197.933380 234.233109,204.864899 
	C233.006470,211.044861 226.805481,214.289093 219.096329,212.423859 
z"/>
<path fill="#000000" opacity="1.000000" stroke="none" 
	d="
M228.980789,356.752594 
	C235.099777,361.694977 236.179001,367.753082 232.194504,372.999207 
	C228.554932,377.791168 222.253357,378.765350 217.119080,375.329681 
	C212.586517,372.296661 211.129471,366.172455 213.752274,361.178589 
	C216.692245,355.580841 221.472382,354.104584 228.980789,356.752594 
z"/>
<path fill="#000000" opacity="1.000000" stroke="none" 
	d="
M198.037140,337.330231 
	C203.976425,340.942078 206.056808,345.192688 204.600464,350.174316 
	C203.138596,355.174835 199.053894,358.360504 194.062515,358.392883 
	C188.663315,358.427887 184.439438,355.244019 183.063446,350.102051 
	C180.845367,341.813263 187.869293,335.583466 198.037140,337.330231 
z"/>
</svg>