<svg version="1.1" id="Layer_1" xmlns="http://www.w3.org/2000/svg" xmlns:xlink="http://www.w3.org/1999/xlink" x="0px" y="0px"
	 width="100%" viewBox="0 0 512 512" enable-background="new 0 0 512 512" xml:space="preserve">
<path fill="#000000" opacity="1.000000" stroke="none" 
	d="
M259.973938,470.024841 
	C259.972717,474.018646 259.871368,477.522064 259.995422,481.017487 
	C260.130157,484.813538 258.574463,486.353973 254.665573,486.303162 
	C242.501343,486.144989 230.333694,486.250824 218.167374,486.250519 
	C194.334686,486.249908 170.501999,486.253448 146.669312,486.240631 
	C139.632660,486.236816 139.628021,486.214325 139.619324,478.981049 
	C139.613113,473.814514 139.802170,468.639618 139.562927,463.484283 
	C139.389771,459.753113 140.817490,458.560852 144.471207,458.594818 
	C159.469467,458.734467 174.469833,458.647125 189.469421,458.646606 
	C210.302200,458.645844 231.134964,458.645508 251.967743,458.650299 
	C259.953979,458.652130 259.954193,458.658752 259.971802,466.530884 
	C259.974030,467.530884 259.972748,468.530884 259.973938,470.024841 
z"/>
<path fill="#000000" opacity="1.000000" stroke="none" 
	d="
M333.733032,327.551208 
	C328.356873,323.384186 326.845398,319.374054 328.562439,314.539642 
	C330.234344,309.832428 334.409882,306.707611 338.991791,306.734772 
	C343.981537,306.764343 348.252991,309.950714 349.777344,314.782654 
	C351.123199,319.048889 349.791016,322.786774 346.832092,325.703003 
	C343.216919,329.266052 338.821899,330.176453 333.733032,327.551208 
z"/>
<path fill="#000000" opacity="1.000000" stroke="none" 
	d="
M196.349335,231.949341 
	C189.169434,232.353241 184.934265,229.751724 183.211182,224.236725 
	C181.738480,219.523102 183.654236,214.479691 187.961502,211.731018 
	C192.784637,208.653107 199.837112,210.039917 202.964737,214.681274 
	C206.430054,219.823746 205.269806,226.643585 200.276108,230.053131 
	C199.195923,230.790665 197.922791,231.245621 196.349335,231.949341 
z"/>
<path fill="#000000" opacity="1.000000" stroke="none" 
	d="
M164.880096,273.666687 
	C171.833054,272.981720 176.012344,274.985718 178.041626,279.722443 
	C180.016205,284.331482 178.789307,289.549194 174.978546,292.749207 
	C171.141037,295.971680 165.800217,296.274872 161.618851,293.419739 
	C154.340683,288.450043 154.998352,277.010406 164.880096,273.666687 
z"/>
<path fill="#000000" opacity="1.000000" stroke="none" 
	d="
M183.344238,325.241516 
	C176.376709,330.506714 169.759445,329.935638 165.897491,324.061371 
	C162.351364,318.667450 163.801361,312.021545 169.293533,308.495819 
	C173.641891,305.704437 179.233505,306.344360 182.950851,310.058838 
	C187.000854,314.105743 187.206070,318.932343 183.344238,325.241516 
z"/>
<path fill="#000000" opacity="1.000000" stroke="none" 
	d="
M330.255188,216.239578 
	C332.201569,222.817230 330.936890,227.100754 326.384399,230.258469 
	C322.434814,232.997986 317.096161,232.843033 313.313080,229.879105 
	C309.724579,227.067627 308.151093,221.464569 309.885986,217.229065 
	C311.528351,213.219467 314.625549,210.573303 318.828705,210.063980 
	C323.648102,209.479996 327.606049,211.473969 330.255188,216.239578 
z"/>
<path fill="#000000" opacity="1.000000" stroke="none" 
	d="
M171.996002,261.284973 
	C165.675369,258.385712 162.941986,253.817978 164.116089,248.698578 
	C165.306519,243.508057 169.670425,239.785660 174.688171,239.680664 
	C180.091003,239.567581 184.155014,242.723358 185.868729,247.892120 
	C188.077744,254.554733 180.957047,263.954468 171.996002,261.284973 
z"/>
<path fill="#000000" opacity="1.000000" stroke="none" 
	d="
M349.493652,246.967041 
	C351.008087,254.143707 347.901123,259.780914 341.894470,261.386841 
	C336.272278,262.889984 330.679260,259.964386 328.639893,254.453659 
	C326.672028,249.136261 329.136841,243.315216 334.477020,240.668228 
	C340.012756,237.924301 345.708496,240.190063 349.493652,246.967041 
z"/>
<path fill="#000000" opacity="1.000000" stroke="none" 
	d="
M350.879272,294.405579 
	C345.629364,296.240234 341.224304,295.503784 337.852875,291.470825 
	C334.975433,288.028778 334.170807,283.965607 336.174530,279.807098 
	C338.309082,275.377045 341.872406,272.943268 346.977783,273.359985 
	C351.973145,273.767731 355.383118,276.364075 356.928864,281.133881 
	C358.532379,286.081970 356.574860,290.416382 350.879272,294.405579 
z"/>
<path fill="#000000" opacity="1.000000" stroke="none" 
	d="
M257.007507,362.640839 
	C264.218506,363.385101 268.515472,367.862854 268.240356,373.903931 
	C267.968109,379.882629 263.181702,384.390137 257.102142,384.393188 
	C250.932755,384.396271 246.179398,380.038361 245.827225,374.056244 
	C245.485016,368.243469 250.025330,363.422028 257.007507,362.640839 
z"/>
<path fill="#000000" opacity="1.000000" stroke="none" 
	d="
M247.686127,201.050659 
	C243.249954,194.572937 247.626816,186.295517 254.083282,184.380310 
	C259.796234,182.685638 266.200897,186.395905 267.861481,192.542618 
	C269.099487,197.125015 266.841705,202.197403 262.420898,204.765488 
	C257.573425,207.581436 252.800507,206.472565 247.686127,201.050659 
z"/>
<path fill="#000000" opacity="1.000000" stroke="none" 
	d="
M301.454163,200.553757 
	C301.580933,207.812637 298.202667,212.409470 292.469482,213.237381 
	C287.105652,214.011963 281.863556,210.948242 280.144440,206.034058 
	C278.318481,200.814514 280.663696,195.045929 285.658844,192.470078 
	C292.227142,189.082993 299.181244,192.484100 301.454163,200.553757 
z"/>
<path fill="#000000" opacity="1.000000" stroke="none" 
	d="
M290.913147,355.274475 
	C298.152863,356.620453 301.403595,359.974731 301.664856,366.015411 
	C301.874207,370.854675 298.506500,375.588043 293.853302,376.994629 
	C288.983032,378.466858 283.528656,376.328400 280.994965,371.752716 
	C276.751099,364.088562 282.398987,355.256256 290.913147,355.274475 
z"/>
<path fill="#000000" opacity="1.000000" stroke="none" 
	d="
M313.723633,356.431702 
	C308.818512,351.379852 307.897736,346.483398 310.715179,341.894531 
	C313.514557,337.334991 319.075897,335.386322 324.189575,337.173218 
	C328.724915,338.758026 331.682770,343.494690 331.307892,348.572449 
	C330.706085,356.723358 322.286041,360.660187 313.723633,356.431702 
z"/>
<path fill="#000000" opacity="1.000000" stroke="none" 
	d="
M231.193848,210.188965 
	C227.102051,213.657593 222.932587,214.351974 218.443558,212.094193 
	C214.736191,210.229538 212.702026,207.254364 212.621368,202.985840 
	C212.524719,197.871216 215.103271,193.575302 219.432724,191.896179 
	C223.586716,190.285080 229.297867,191.824753 232.088303,195.307953 
	C234.984650,198.923340 235.217728,204.050690 232.655930,208.312408 
	C232.316147,208.877655 231.870789,209.379456 231.193848,210.188965 
z"/>
<path fill="#000000" opacity="1.000000" stroke="none" 
	d="
M224.752777,377.281616 
	C217.509811,376.974609 213.307312,373.668884 212.683044,368.138489 
	C211.998276,362.071960 215.301773,356.902344 220.723953,355.555298 
	C225.876068,354.275330 231.336121,356.908325 233.502594,361.717560 
	C236.511520,368.396881 233.105148,374.750153 224.752777,377.281616 
z"/>
<path fill="#000000" opacity="1.000000" stroke="none" 
	d="
M203.409500,341.869476 
	C207.594498,348.937592 202.736267,356.223633 197.308212,357.990875 
	C191.507904,359.879303 185.322510,356.678192 183.334549,350.848175 
	C181.676956,345.987030 183.691498,340.767761 188.284485,338.023956 
	C193.244278,335.060974 198.544495,336.306091 203.409500,341.869476 
z"/>
</svg>