<svg version="1.1" id="Layer_1" xmlns="http://www.w3.org/2000/svg" xmlns:xlink="http://www.w3.org/1999/xlink" x="0px" y="0px"
	 width="100%" viewBox="0 0 512 512" enable-background="new 0 0 512 512" xml:space="preserve">
<path fill="#000000" opacity="1.000000" stroke="none" 
	d="
M193.000000,459.105103 
	C258.297943,459.103607 323.095917,459.101654 387.893860,459.099670 
	C395.336456,459.099426 395.342499,459.099457 395.346222,466.454559 
	C395.348907,471.784912 395.267242,477.116333 395.352203,482.445221 
	C395.396057,485.194427 394.244965,486.438171 391.499329,486.313934 
	C390.003723,486.246216 388.501801,486.326752 387.002716,486.326782 
	C300.050201,486.328613 213.097672,486.329254 126.145142,486.329041 
	C118.676270,486.329010 118.672050,486.325897 118.660446,479.070282 
	C118.652718,474.239594 118.886719,469.394897 118.590446,464.582458 
	C118.332962,460.399933 120.010582,458.981018 124.038223,459.037048 
	C134.863663,459.187683 145.692322,459.110504 156.519714,459.113342 
	C168.513138,459.116455 180.506577,459.108002 193.000000,459.105103 
z"/>
<path fill="#000000" opacity="1.000000" stroke="none" 
	d="
M181.116348,308.617126 
	C186.145874,313.217926 187.359161,317.294708 185.317673,321.987610 
	C183.334915,326.545563 179.727356,328.951324 174.860458,329.053711 
	C170.021927,329.155579 165.784164,325.586517 164.338516,320.677429 
	C163.078812,316.399658 164.463120,312.769012 167.535217,309.869293 
	C171.492294,306.134277 176.017273,305.752655 181.116348,308.617126 
z"/>
<path fill="#000000" opacity="1.000000" stroke="none" 
	d="
M328.739075,321.859009 
	C326.944244,314.575867 330.462402,308.344055 336.822021,306.937500 
	C342.527435,305.675659 348.636414,309.656189 350.020416,315.537476 
	C351.335754,321.126709 347.415466,327.169800 341.460266,328.732941 
	C336.628815,330.001160 332.270599,327.749634 328.739075,321.859009 
z"/>
<path fill="#000000" opacity="1.000000" stroke="none" 
	d="
M190.812531,210.459442 
	C198.528458,209.400482 203.331329,212.579483 204.794373,219.339630 
	C205.923126,224.555161 202.293274,230.148056 196.673050,231.852966 
	C191.428864,233.443802 185.528580,230.347748 183.472809,224.926422 
	C181.246521,219.055405 183.785141,213.825974 190.812531,210.459442 
z"/>
<path fill="#000000" opacity="1.000000" stroke="none" 
	d="
M163.940765,294.624146 
	C158.003555,291.214935 155.621277,286.415436 157.057648,281.328186 
	C158.433716,276.454498 163.363007,272.970276 168.402618,273.309113 
	C174.117737,273.693359 177.948196,277.165253 178.951126,282.870178 
	C180.299576,290.540497 173.237015,296.294495 163.940765,294.624146 
z"/>
<path fill="#000000" opacity="1.000000" stroke="none" 
	d="
M330.891022,217.748108 
	C331.667084,225.017792 329.401855,229.345367 324.052917,231.478043 
	C319.856567,233.151169 314.612579,231.876083 311.835663,228.345734 
	C309.053955,224.809250 308.172363,220.831314 310.151917,216.655060 
	C312.075073,212.597794 315.445801,209.972305 319.943085,209.967224 
	C324.975372,209.961517 328.870728,212.374527 330.891022,217.748108 
z"/>
<path fill="#000000" opacity="1.000000" stroke="none" 
	d="
M181.473816,259.618103 
	C174.298157,263.356628 167.563080,261.384979 164.846680,255.062195 
	C162.322815,249.187546 165.537842,242.180710 171.711288,240.101395 
	C177.728699,238.074646 184.446259,241.909760 185.952942,248.363617 
	C187.013260,252.905472 185.204071,256.485992 181.473816,259.618103 
z"/>
<path fill="#000000" opacity="1.000000" stroke="none" 
	d="
M348.151001,256.902588 
	C344.541199,261.558441 340.140106,262.779419 335.048187,261.002777 
	C330.680725,259.478912 328.318695,255.990234 327.971191,251.550003 
	C327.602112,246.833481 329.911926,243.223801 334.047119,240.897598 
	C337.910065,238.724579 343.268219,239.441086 346.598755,242.493729 
	C350.535156,246.101685 351.121094,250.776627 348.151001,256.902588 
z"/>
<path fill="#000000" opacity="1.000000" stroke="none" 
	d="
M351.597504,294.023926 
	C346.279999,296.374939 341.697144,295.766418 338.063660,291.701782 
	C334.940308,288.207825 334.121521,283.996460 336.256622,279.643463 
	C338.340607,275.394623 341.817780,273.032135 346.666290,273.327454 
	C351.603638,273.628174 355.161163,276.047119 356.819611,280.840271 
	C358.484589,285.652191 356.885498,289.810089 351.597504,294.023926 
z"/>
<path fill="#000000" opacity="1.000000" stroke="none" 
	d="
M249.148865,202.869263 
	C245.456421,198.453506 244.689835,194.033203 247.680206,189.348465 
	C250.095688,185.564316 253.568039,183.433319 258.114319,184.105759 
	C263.083099,184.840744 266.705902,187.495895 267.897095,192.677628 
	C268.984467,197.407639 267.206512,201.155838 263.526337,204.003448 
	C259.227692,207.329620 255.289581,207.007156 249.148865,202.869263 
z"/>
<path fill="#000000" opacity="1.000000" stroke="none" 
	d="
M290.147217,191.289429 
	C298.251007,192.409256 302.121460,196.560440 301.665314,203.218887 
	C301.262634,209.096771 296.244324,213.502625 290.172546,213.309158 
	C284.789795,213.137634 280.233124,208.991882 279.708008,203.788300 
	C279.040619,197.174911 282.442108,192.950867 290.147217,191.289429 
z"/>
<path fill="#000000" opacity="1.000000" stroke="none" 
	d="
M279.671387,366.061798 
	C279.514526,359.395905 286.349213,354.759857 291.379913,355.298187 
	C297.827057,355.988068 301.871399,360.506226 301.592560,367.076294 
	C301.359528,372.568451 296.873962,377.039124 291.326324,377.308441 
	C284.810974,377.624725 280.460815,373.585114 279.671387,366.061798 
z"/>
<path fill="#000000" opacity="1.000000" stroke="none" 
	d="
M267.810883,376.289429 
	C263.954681,384.349579 256.654968,386.862915 250.660568,382.531769 
	C246.151047,379.273407 244.630707,373.581940 247.006073,368.851044 
	C249.515717,363.852753 255.023224,361.431793 260.453308,362.939972 
	C265.685852,364.393311 268.529755,369.318817 267.810883,376.289429 
z"/>
<path fill="#000000" opacity="1.000000" stroke="none" 
	d="
M330.367615,343.156433 
	C332.278168,350.334564 329.554749,356.193604 323.778320,358.025879 
	C318.378876,359.738556 312.199158,356.978485 310.036591,351.888367 
	C307.686371,346.356628 309.998688,340.282288 315.468872,337.618225 
	C320.972900,334.937714 326.515411,336.876648 330.367615,343.156433 
z"/>
<path fill="#000000" opacity="1.000000" stroke="none" 
	d="
M215.159210,209.711060 
	C209.931870,201.000031 214.102173,191.445969 222.838852,191.216110 
	C227.716095,191.087814 232.389114,193.949707 233.781403,198.326004 
	C235.246078,202.929810 234.514313,207.206100 230.751434,210.590652 
	C227.149582,213.830368 222.271713,214.257812 217.831909,211.754486 
	C216.973557,211.270538 216.222946,210.595520 215.159210,209.711060 
z"/>
<path fill="#000000" opacity="1.000000" stroke="none" 
	d="
M228.285599,356.415680 
	C234.950745,360.911072 236.398422,367.207886 232.341019,372.749084 
	C228.534439,377.947723 221.705460,378.893188 216.531647,374.937897 
	C212.608276,371.938538 211.353485,366.067719 213.647217,361.442139 
	C216.344681,356.002319 220.783051,354.384613 228.285599,356.415680 
z"/>
<path fill="#000000" opacity="1.000000" stroke="none" 
	d="
M188.403366,337.957703 
	C195.059631,335.519470 200.240326,336.888947 203.221146,341.570923 
	C206.017456,345.963104 205.398544,351.476929 201.688126,355.228729 
	C198.136612,358.819824 192.404587,359.478668 187.959625,356.806641 
	C181.008743,352.628235 181.055389,343.785522 188.403366,337.957703 
z"/>
</svg>