<svg version="1.1" id="Layer_1" xmlns="http://www.w3.org/2000/svg" xmlns:xlink="http://www.w3.org/1999/xlink" x="0px" y="0px"
	 width="100%" viewBox="0 0 512 512" enable-background="new 0 0 512 512" xml:space="preserve">
<path fill="#000000" opacity="1.000000" stroke="none" 
	d="
M307.000000,87.764832 
	C322.825287,87.757782 338.152649,87.887497 353.474670,87.660217 
	C358.078766,87.591919 359.711182,89.143608 359.421814,93.716125 
	C359.096313,98.859505 359.070618,104.058426 359.426910,109.197662 
	C359.754913,113.928825 358.243195,115.528305 353.326080,115.479675 
	C329.674133,115.245796 306.018555,115.378288 282.364288,115.375374 
	C268.038483,115.373604 253.711807,115.443672 239.387436,115.295876 
	C235.939789,115.260307 234.057495,116.032158 232.934479,119.742104 
	C229.946198,129.614182 220.773727,132.172150 208.389389,129.877747 
	C197.815414,127.918762 194.498306,118.489723 195.226410,108.223534 
	C196.271622,93.485970 202.831360,87.877510 218.546310,87.793564 
	C247.863419,87.636940 277.182037,87.758781 307.000000,87.764832 
z"/>
<path fill="#000000" opacity="1.000000" stroke="none" 
	d="
M346.392944,309.502930 
	C350.771393,314.905457 351.326324,318.701324 348.620575,323.355682 
	C346.327484,327.300140 342.767456,329.389465 338.319550,328.987885 
	C333.274994,328.532349 329.727844,325.651581 328.316437,320.621887 
	C326.996704,315.918671 328.696320,312.089294 332.336029,309.182953 
	C336.849640,305.578766 341.525177,306.099030 346.392944,309.502930 
z"/>
<path fill="#000000" opacity="1.000000" stroke="none" 
	d="
M245.808258,373.112518 
	C248.413651,363.130493 256.848022,359.325104 263.791382,364.703125 
	C267.511139,367.584229 269.095490,371.501282 267.843658,376.132721 
	C266.624390,380.643646 263.713806,383.684967 258.918762,384.341553 
	C253.861221,385.034088 249.767609,383.375610 247.218567,378.738190 
	C246.336395,377.133209 245.804810,375.384552 245.808258,373.112518 
z"/>
<path fill="#000000" opacity="1.000000" stroke="none" 
	d="
M202.285248,213.814362 
	C205.570374,218.691391 206.177170,223.349182 202.541489,227.857681 
	C199.607162,231.496460 195.731155,233.111389 191.085953,231.838699 
	C186.299408,230.527298 183.444931,227.219879 182.823380,222.333069 
	C182.219147,217.582382 184.352112,213.933441 188.412857,211.554932 
	C193.402588,208.632202 197.917816,209.898895 202.285248,213.814362 
z"/>
<path fill="#000000" opacity="1.000000" stroke="none" 
	d="
M324.751770,231.191803 
	C318.594086,232.997635 313.959686,231.624557 311.151886,227.427780 
	C308.296387,223.159821 308.573517,217.813080 311.847534,214.005310 
	C315.219513,210.083603 320.206726,208.951645 324.948303,211.031815 
	C329.225800,212.908371 331.856293,217.579056 331.280365,222.454239 
	C330.811798,226.420883 328.424255,229.072296 324.751770,231.191803 
z"/>
<path fill="#000000" opacity="1.000000" stroke="none" 
	d="
M163.903717,251.769745 
	C164.687363,244.753571 167.897064,240.678787 172.989120,239.773636 
	C177.745316,238.928177 182.546860,241.210495 184.824066,245.399170 
	C187.769547,250.817047 185.808456,257.306152 180.288162,260.408112 
	C174.974442,263.393982 168.129669,261.384216 165.280701,255.924011 
	C164.672745,254.758820 164.386856,253.425568 163.903717,251.769745 
z"/>
<path fill="#000000" opacity="1.000000" stroke="none" 
	d="
M327.915558,251.769562 
	C328.672729,244.944778 331.592468,240.856461 336.511475,239.911606 
	C341.308685,238.990158 345.452118,240.353668 348.287811,244.563248 
	C351.892731,249.914810 350.305939,256.665375 344.708435,260.154633 
	C339.379242,263.476654 332.221832,261.550690 329.277100,255.926804 
	C328.668243,254.764008 328.393494,253.426270 327.915558,251.769562 
z"/>
<path fill="#000000" opacity="1.000000" stroke="none" 
	d="
M163.944412,294.616150 
	C158.009674,291.208466 155.594299,286.334656 157.077744,281.334412 
	C158.543076,276.395203 163.385056,272.974548 168.425461,273.317780 
	C174.128860,273.706146 177.966370,277.192261 178.956451,282.884430 
	C180.290802,290.555878 173.218735,296.305786 163.944412,294.616150 
z"/>
<path fill="#000000" opacity="1.000000" stroke="none" 
	d="
M351.912109,274.783142 
	C357.274994,279.248993 358.618286,283.585449 356.453583,288.517456 
	C354.262146,293.510376 349.711975,296.037750 344.353821,295.238159 
	C339.565491,294.523590 335.867645,290.491302 335.205750,285.332367 
	C334.361267,278.750244 341.427399,269.868805 351.912109,274.783142 
z"/>
<path fill="#000000" opacity="1.000000" stroke="none" 
	d="
M169.732483,327.550537 
	C164.199738,323.271454 162.731598,319.026855 164.765106,313.978302 
	C166.573166,309.489441 171.229446,306.419220 175.706741,306.763702 
	C180.741776,307.151093 184.760284,310.580505 185.961548,315.591644 
	C186.956238,319.741058 185.495316,323.293152 182.537827,325.986145 
	C178.921768,329.278809 174.644516,330.130646 169.732483,327.550537 
z"/>
<path fill="#000000" opacity="1.000000" stroke="none" 
	d="
M300.144226,371.927032 
	C295.679260,377.487793 290.002411,378.887695 285.058136,375.927826 
	C280.257294,373.053864 278.231781,367.004272 280.407806,362.038696 
	C282.728668,356.742676 288.405487,354.149506 294.089844,355.788696 
	C300.548645,357.651215 303.129242,364.177521 300.144226,371.927032 
z"/>
<path fill="#000000" opacity="1.000000" stroke="none" 
	d="
M267.871796,192.610901 
	C268.359680,199.528198 265.541565,204.087906 260.082458,205.810699 
	C255.674332,207.201828 250.080963,204.964478 247.550583,200.797897 
	C244.142365,195.185913 246.260132,188.167831 252.273148,185.147858 
	C258.339355,182.101166 264.840271,185.077011 267.871796,192.610901 
z"/>
<path fill="#000000" opacity="1.000000" stroke="none" 
	d="
M291.681885,191.419662 
	C299.069733,193.014618 302.508820,197.681503 301.468689,204.251694 
	C300.576965,209.884399 295.547394,213.724533 289.624847,213.294617 
	C283.940521,212.881989 279.654480,208.122314 279.672852,202.242874 
	C279.692963,195.810867 283.864624,191.905151 291.681885,191.419662 
z"/>
<path fill="#000000" opacity="1.000000" stroke="none" 
	d="
M309.308258,345.547241 
	C311.691254,338.800385 315.126770,336.320770 321.182526,336.665314 
	C326.151703,336.948059 329.939636,340.136841 331.109131,345.021820 
	C332.246399,349.772247 329.966064,354.818970 325.471527,357.246796 
	C318.472473,361.027527 308.166321,356.170563 309.308258,345.547241 
z"/>
<path fill="#000000" opacity="1.000000" stroke="none" 
	d="
M219.843842,212.762360 
	C213.563705,209.252930 211.603516,205.455002 212.793701,199.661835 
	C213.675262,195.370865 217.799469,191.693054 222.192505,191.280350 
	C226.941193,190.834244 231.729568,193.457520 233.486877,197.744247 
	C235.092865,201.661804 234.896408,205.519119 232.180099,208.985840 
	C229.078934,212.943710 225.014954,214.069305 219.843842,212.762360 
z"/>
<path fill="#000000" opacity="1.000000" stroke="none" 
	d="
M234.352936,366.898071 
	C233.092072,374.268890 228.332962,378.079010 221.917374,377.271667 
	C216.096664,376.539185 212.399643,371.941345 212.634171,365.726562 
	C212.853821,359.905579 217.539108,355.182434 223.100891,355.175232 
	C229.648117,355.166748 233.829559,359.362427 234.352936,366.898071 
z"/>
<path fill="#000000" opacity="1.000000" stroke="none" 
	d="
M197.292633,358.018860 
	C191.944565,358.949463 187.594467,358.000214 184.655350,353.574921 
	C182.260544,349.969177 182.002274,346.137482 184.162796,342.294312 
	C186.512177,338.115204 190.105133,336.210510 194.894104,336.667480 
	C199.426682,337.099976 202.614777,339.350159 204.256073,343.674225 
	C205.996124,348.258514 204.731873,352.151672 201.396088,355.444366 
	C200.362045,356.465057 198.936615,357.089203 197.292633,358.018860 
z"/>
</svg>