<svg version="1.1" id="Layer_1" xmlns="http://www.w3.org/2000/svg" xmlns:xlink="http://www.w3.org/1999/xlink" x="0px" y="0px"
	 width="100%" viewBox="0 0 512 512" enable-background="new 0 0 512 512" xml:space="preserve">
<path fill="#000000" opacity="1.000000" stroke="none" 
	d="
M263.193542,422.572937 
	C272.316437,422.414429 280.970642,422.208557 289.626038,422.118164 
	C293.403198,422.078705 297.516632,422.369904 297.851868,427.245361 
	C298.304443,433.827271 294.084259,439.438141 289.197296,439.318146 
	C272.257507,438.902222 255.270340,440.540894 238.390274,437.437836 
	C219.008820,433.874908 208.082733,421.742096 206.490433,402.209045 
	C205.969528,395.818878 205.964844,389.541473 207.276855,383.401184 
	C211.086899,365.569733 221.288956,356.521515 239.691147,353.679230 
	C256.903046,351.020813 274.223083,351.869415 291.513397,351.861237 
	C296.703857,351.858795 298.543884,354.645050 297.294067,359.692413 
	C296.895050,361.303711 296.267090,362.857666 295.851227,364.465607 
	C294.922058,368.058014 292.799316,369.422546 288.969177,369.352356 
	C277.482330,369.141785 265.988037,369.372986 254.497955,369.276886 
	C250.459381,369.243103 246.523758,369.864197 242.626007,370.643951 
	C228.380676,373.493805 223.822937,382.924866 224.756592,398.036560 
	C225.799088,414.909760 233.213913,420.909454 250.268707,421.766876 
	C254.423920,421.975739 258.573273,422.300781 263.193542,422.572937 
z"/>
</svg>