<svg version="1.1" id="Layer_1" xmlns="http://www.w3.org/2000/svg" xmlns:xlink="http://www.w3.org/1999/xlink" x="0px" y="0px"
	 width="100%" viewBox="0 0 512 514" enable-background="new 0 0 512 514" xml:space="preserve">
<path fill="#FFFFFF" opacity="1.000000" stroke="none" 
	d="
M507.150696,515.000000 
	C338.133392,515.000000 169.636795,515.000000 1.070094,515.000000 
	C1.070094,343.716888 1.070094,172.433716 1.070094,1.075272 
	C171.613007,1.075272 342.226074,1.075272 512.919556,1.075272 
	C512.919556,172.276230 512.919556,343.552521 512.919556,515.000000 
	C511.225067,515.000000 509.448242,515.000000 507.150696,515.000000 
M249.921478,369.024597 
	C261.579315,368.890350 273.236877,368.713013 284.895081,368.635132 
	C294.619446,368.570190 294.619781,368.621857 296.922363,359.130066 
	C297.929443,354.978729 296.376495,352.524719 292.125916,352.606689 
	C275.324402,352.930511 258.489838,352.953094 241.742050,354.139404 
	C231.171585,354.888184 221.225647,358.417358 214.487885,367.705566 
	C209.098694,375.134735 207.239914,383.582764 206.737106,392.540039 
	C205.176132,420.348480 218.651871,436.117035 246.377441,437.954803 
	C259.653625,438.834808 272.998840,438.718903 286.314697,438.937317 
	C294.059967,439.064392 294.061707,438.960419 296.252380,431.484924 
	C298.361877,424.286377 297.328278,422.987915 289.861755,422.865204 
	C275.382751,422.627350 260.881256,422.691071 246.435196,421.843597 
	C234.618652,421.150391 227.411331,415.650574 225.512802,405.973267 
	C224.356369,400.078644 224.212936,393.699341 225.088257,387.754761 
	C226.654663,377.116760 232.161636,372.137421 242.602676,370.084259 
	C244.722641,369.667450 246.872955,369.405029 249.921478,369.024597 
M266.499756,483.628510 
	C273.153534,483.628540 279.807312,483.628571 286.461090,483.628540 
	C294.071533,483.628510 294.071533,483.628479 296.312439,475.990906 
	C298.318359,469.154266 297.157654,467.541321 290.129547,467.537628 
	C266.841370,467.525421 243.553162,467.533020 220.264969,467.533020 
	C212.164551,467.533020 212.164581,467.533020 209.990265,475.390778 
	C208.187744,481.904999 209.551834,483.621277 216.594513,483.625336 
	C232.896255,483.634735 249.197983,483.628387 266.499756,483.628510 
z"/>
<path fill="#040404" opacity="1.000000" stroke="none" 
	d="
M249.465363,369.048035 
	C246.872955,369.405029 244.722641,369.667450 242.602676,370.084259 
	C232.161636,372.137421 226.654663,377.116760 225.088257,387.754761 
	C224.212936,393.699341 224.356369,400.078644 225.512802,405.973267 
	C227.411331,415.650574 234.618652,421.150391 246.435196,421.843597 
	C260.881256,422.691071 275.382751,422.627350 289.861755,422.865204 
	C297.328278,422.987915 298.361877,424.286377 296.252380,431.484924 
	C294.061707,438.960419 294.059967,439.064392 286.314697,438.937317 
	C272.998840,438.718903 259.653625,438.834808 246.377441,437.954803 
	C218.651871,436.117035 205.176132,420.348480 206.737106,392.540039 
	C207.239914,383.582764 209.098694,375.134735 214.487885,367.705566 
	C221.225647,358.417358 231.171585,354.888184 241.742050,354.139404 
	C258.489838,352.953094 275.324402,352.930511 292.125916,352.606689 
	C296.376495,352.524719 297.929443,354.978729 296.922363,359.130066 
	C294.619781,368.621857 294.619446,368.570190 284.895081,368.635132 
	C273.236877,368.713013 261.579315,368.890350 249.465363,369.048035 
z"/>
<path fill="#070707" opacity="1.000000" stroke="none" 
	d="
M265.999756,483.628479 
	C249.197983,483.628387 232.896255,483.634735 216.594513,483.625336 
	C209.551834,483.621277 208.187744,481.904999 209.990265,475.390778 
	C212.164581,467.533020 212.164551,467.533020 220.264969,467.533020 
	C243.553162,467.533020 266.841370,467.525421 290.129547,467.537628 
	C297.157654,467.541321 298.318359,469.154266 296.312439,475.990906 
	C294.071533,483.628479 294.071533,483.628510 286.461090,483.628540 
	C279.807312,483.628571 273.153534,483.628540 265.999756,483.628479 
z"/>
</svg>