<svg version="1.1" id="Layer_1" xmlns="http://www.w3.org/2000/svg" xmlns:xlink="http://www.w3.org/1999/xlink" x="0px" y="0px"
	 width="100%" viewBox="0 0 512 514" enable-background="new 0 0 512 514" xml:space="preserve">
<path fill="#FFFFFF" opacity="1.000000" stroke="none" 
	d="
M339.000000,515.000000 
	C226.027390,515.000000 113.554787,515.000000 1.041088,515.000000 
	C1.041088,343.735779 1.041088,172.471558 1.041088,1.103664 
	C171.555954,1.103664 342.112000,1.103664 512.833984,1.103664 
	C512.833984,172.333206 512.833984,343.666595 512.833984,515.000000 
	C455.138184,515.000000 397.319092,515.000000 339.000000,515.000000 
M239.653839,131.800491 
	C255.439651,132.437607 271.222290,133.176727 287.012604,133.668854 
	C294.923737,133.915421 294.930084,133.711792 297.155060,125.738831 
	C298.958282,119.277252 297.740570,117.719528 291.027588,117.628693 
	C277.043518,117.439461 263.041809,117.561020 249.081833,116.864113 
	C234.628876,116.142601 227.563782,110.059959 225.359924,97.292061 
	C224.744629,93.727409 224.902863,89.982002 225.076340,86.337135 
	C225.642822,74.435829 231.680496,66.447342 243.460632,65.137802 
	C257.465332,63.580952 271.664001,63.663528 285.785370,63.298378 
	C295.410919,63.049488 295.416107,63.250851 297.745605,53.705467 
	C298.643616,50.025730 296.952759,47.168930 293.217804,47.266457 
	C275.428619,47.730942 257.602386,47.901867 239.878372,49.303127 
	C229.773300,50.102032 220.577621,54.387920 214.519592,63.369476 
	C209.719437,70.486145 207.757828,78.531258 207.490997,86.942947 
	C206.803391,108.619377 213.357697,127.145470 239.653839,131.800491 
z"/>
<path fill="#040404" opacity="1.000000" stroke="none" 
	d="
M239.244812,131.689484 
	C213.357697,127.145470 206.803391,108.619377 207.490997,86.942947 
	C207.757828,78.531258 209.719437,70.486145 214.519592,63.369476 
	C220.577621,54.387920 229.773300,50.102032 239.878372,49.303127 
	C257.602386,47.901867 275.428619,47.730942 293.217804,47.266457 
	C296.952759,47.168930 298.643616,50.025730 297.745605,53.705467 
	C295.416107,63.250851 295.410919,63.049488 285.785370,63.298378 
	C271.664001,63.663528 257.465332,63.580952 243.460632,65.137802 
	C231.680496,66.447342 225.642822,74.435829 225.076340,86.337135 
	C224.902863,89.982002 224.744629,93.727409 225.359924,97.292061 
	C227.563782,110.059959 234.628876,116.142601 249.081833,116.864113 
	C263.041809,117.561020 277.043518,117.439461 291.027588,117.628693 
	C297.740570,117.719528 298.958282,119.277252 297.155060,125.738831 
	C294.930084,133.711792 294.923737,133.915421 287.012604,133.668854 
	C271.222290,133.176727 255.439651,132.437607 239.244812,131.689484 
z"/>
</svg>