<svg version="1.1" id="Layer_1" xmlns="http://www.w3.org/2000/svg" xmlns:xlink="http://www.w3.org/1999/xlink" x="0px" y="0px"
	 width="100%" viewBox="0 0 512 514" enable-background="new 0 0 512 514" xml:space="preserve">
<path fill="#FFFFFF" opacity="1.000000" stroke="none" 
	d="
M340.000000,515.000000 
	C226.694138,515.000000 113.888283,515.000000 1.041210,515.000000 
	C1.041210,343.735870 1.041210,172.471725 1.041210,1.103786 
	C171.555878,1.103786 342.111816,1.103786 512.833862,1.103786 
	C512.833862,172.333206 512.833862,343.666595 512.833862,515.000000 
	C455.471680,515.000000 397.985840,515.000000 340.000000,515.000000 
M216.558182,119.953865 
	C222.909012,128.040573 232.035477,131.083969 241.523590,131.872330 
	C256.595886,133.124710 271.766571,133.257156 286.900909,133.672714 
	C294.925385,133.893051 294.930328,133.711685 297.130646,125.842735 
	C299.015137,119.103127 297.865173,117.717278 290.630402,117.625626 
	C276.808655,117.450531 262.972229,117.522308 249.171982,116.862663 
	C239.066727,116.379639 229.555099,113.302483 226.748672,102.152039 
	C225.174515,95.897629 225.099091,88.968491 225.811768,82.504707 
	C226.921463,72.440201 233.233353,65.916100 243.380234,65.067467 
	C257.448669,63.890854 271.604645,63.665638 285.730042,63.298649 
	C295.376190,63.048035 295.308716,63.231895 297.761688,53.759087 
	C298.827118,49.644592 296.910095,47.227432 293.264496,47.305172 
	C275.468903,47.684662 257.623993,47.782661 239.910583,49.306366 
	C227.017151,50.415451 216.244461,56.667664 211.313446,69.514740 
	C209.147980,75.156548 207.842270,81.395622 207.549698,87.431541 
	C206.996384,98.846092 208.438644,110.042717 216.558182,119.953865 
M221.615967,162.187332 
	C213.077744,162.187347 213.077744,162.187347 210.866348,169.996628 
	C208.939926,176.799545 210.059448,178.248978 217.288803,178.250549 
	C240.567780,178.255630 263.846771,178.252350 287.125732,178.252380 
	C294.967224,178.252396 294.967224,178.252548 297.079224,170.776993 
	C299.030396,163.870712 297.736511,162.190475 290.429016,162.189011 
	C267.815155,162.184433 245.201279,162.187332 221.615967,162.187332 
z"/>
<path fill="#040404" opacity="1.000000" stroke="none" 
	d="
M216.322144,119.684555 
	C208.438644,110.042717 206.996384,98.846092 207.549698,87.431541 
	C207.842270,81.395622 209.147980,75.156548 211.313446,69.514740 
	C216.244461,56.667664 227.017151,50.415451 239.910583,49.306366 
	C257.623993,47.782661 275.468903,47.684662 293.264496,47.305172 
	C296.910095,47.227432 298.827118,49.644592 297.761688,53.759087 
	C295.308716,63.231895 295.376190,63.048035 285.730042,63.298649 
	C271.604645,63.665638 257.448669,63.890854 243.380234,65.067467 
	C233.233353,65.916100 226.921463,72.440201 225.811768,82.504707 
	C225.099091,88.968491 225.174515,95.897629 226.748672,102.152039 
	C229.555099,113.302483 239.066727,116.379639 249.171982,116.862663 
	C262.972229,117.522308 276.808655,117.450531 290.630402,117.625626 
	C297.865173,117.717278 299.015137,119.103127 297.130646,125.842735 
	C294.930328,133.711685 294.925385,133.893051 286.900909,133.672714 
	C271.766571,133.257156 256.595886,133.124710 241.523590,131.872330 
	C232.035477,131.083969 222.909012,128.040573 216.322144,119.684555 
z"/>
<path fill="#050505" opacity="1.000000" stroke="none" 
	d="
M222.101685,162.187332 
	C245.201279,162.187332 267.815155,162.184433 290.429016,162.189011 
	C297.736511,162.190475 299.030396,163.870712 297.079224,170.776993 
	C294.967224,178.252548 294.967224,178.252396 287.125732,178.252380 
	C263.846771,178.252350 240.567780,178.255630 217.288803,178.250549 
	C210.059448,178.248978 208.939926,176.799545 210.866348,169.996628 
	C213.077744,162.187347 213.077744,162.187347 222.101685,162.187332 
z"/>
</svg>