<svg version="1.1" id="Layer_1" xmlns="http://www.w3.org/2000/svg" xmlns:xlink="http://www.w3.org/1999/xlink" x="0px" y="0px"
	 width="100%" viewBox="0 0 512 514" enable-background="new 0 0 512 514" xml:space="preserve">
<path fill="#FFFFFF" opacity="1.000000" stroke="none" 
	d="
M339.000000,515.000000 
	C226.027390,515.000000 113.554787,515.000000 1.041088,515.000000 
	C1.041088,343.735779 1.041088,172.471558 1.041088,1.103664 
	C171.555954,1.103664 342.112000,1.103664 512.833984,1.103664 
	C512.833984,172.333206 512.833984,343.666595 512.833984,515.000000 
	C455.138184,515.000000 397.319092,515.000000 339.000000,515.000000 
M267.190613,131.651230 
	C276.084991,129.696655 284.429016,126.890724 290.390167,119.251465 
	C295.965729,112.106354 298.238098,103.868744 298.675720,95.151299 
	C299.910797,70.545807 291.688507,51.808838 264.106079,48.980049 
	C249.243484,47.455776 234.199280,47.632202 219.231995,47.227169 
	C211.231583,47.010670 211.226776,47.188759 209.016815,55.147896 
	C207.188110,61.733978 208.319687,63.161194 215.169266,63.263618 
	C229.321152,63.475235 243.492691,63.370731 257.617340,64.124084 
	C271.557678,64.867615 278.832153,71.102119 280.768768,83.097031 
	C281.398071,86.994743 281.299438,91.074310 281.042267,95.038811 
	C280.254730,107.177231 274.446167,114.593925 262.319458,115.865875 
	C247.965485,117.371452 233.430283,117.217621 218.968826,117.602402 
	C211.180145,117.809639 211.173615,117.638657 209.033691,125.310738 
	C208.899933,125.790306 208.859802,126.295525 208.734314,126.777931 
	C207.550003,131.330078 209.219818,133.798828 213.985336,133.662552 
	C231.446732,133.163300 248.902512,132.467804 267.190613,131.651230 
z"/>
<path fill="#040404" opacity="1.000000" stroke="none" 
	d="
M266.775513,131.748718 
	C248.902512,132.467804 231.446732,133.163300 213.985336,133.662552 
	C209.219818,133.798828 207.550003,131.330078 208.734314,126.777931 
	C208.859802,126.295525 208.899933,125.790306 209.033691,125.310738 
	C211.173615,117.638657 211.180145,117.809639 218.968826,117.602402 
	C233.430283,117.217621 247.965485,117.371452 262.319458,115.865875 
	C274.446167,114.593925 280.254730,107.177231 281.042267,95.038811 
	C281.299438,91.074310 281.398071,86.994743 280.768768,83.097031 
	C278.832153,71.102119 271.557678,64.867615 257.617340,64.124084 
	C243.492691,63.370731 229.321152,63.475235 215.169266,63.263618 
	C208.319687,63.161194 207.188110,61.733978 209.016815,55.147896 
	C211.226776,47.188759 211.231583,47.010670 219.231995,47.227169 
	C234.199280,47.632202 249.243484,47.455776 264.106079,48.980049 
	C291.688507,51.808838 299.910797,70.545807 298.675720,95.151299 
	C298.238098,103.868744 295.965729,112.106354 290.390167,119.251465 
	C284.429016,126.890724 276.084991,129.696655 266.775513,131.748718 
z"/>
</svg>