<svg version="1.1" id="Layer_1" xmlns="http://www.w3.org/2000/svg" xmlns:xlink="http://www.w3.org/1999/xlink" x="0px" y="0px"
	 width="100%" viewBox="0 0 512 512" enable-background="new 0 0 512 512" xml:space="preserve">
<path fill="#000000" opacity="1.000000" stroke="none" 
	d="
M234.965836,422.578796 
	C244.446381,422.549347 253.451797,422.479614 262.296234,420.734619 
	C273.748260,418.475128 279.499023,411.983276 280.561157,400.262512 
	C280.996307,395.460663 280.886414,390.628784 279.576538,385.898529 
	C277.503906,378.413940 273.055695,373.375671 265.357513,371.310669 
	C258.194336,369.389191 250.915970,369.202332 243.582718,369.248077 
	C234.091736,369.307312 224.599854,369.308167 215.108856,369.252136 
	C208.273193,369.211761 206.448303,366.664764 208.394333,360.117035 
	C210.866409,351.799377 210.866745,351.753937 219.698822,351.816681 
	C234.493835,351.921814 249.271057,351.519226 264.042358,353.475220 
	C292.903931,357.296997 300.932922,377.200439 298.895325,402.626007 
	C298.511810,407.411865 297.346436,412.092682 295.506744,416.609406 
	C289.306854,431.831329 276.295563,436.347595 261.666229,438.273346 
	C245.750687,440.368408 229.744431,439.083405 213.779846,439.284607 
	C208.451157,439.351776 206.759384,436.684967 208.180801,431.430481 
	C210.569382,422.600800 210.569366,422.597565 219.485382,422.583099 
	C224.480865,422.575012 229.476364,422.579803 234.965836,422.578796 
z"/>
</svg>