<svg version="1.1" id="Layer_1" xmlns="http://www.w3.org/2000/svg" xmlns:xlink="http://www.w3.org/1999/xlink" x="0px" y="0px"
	 width="100%" viewBox="0 0 512 514" enable-background="new 0 0 512 514" xml:space="preserve">
<path fill="#FFFFFF" opacity="1.000000" stroke="none" 
	d="
M507.150696,515.000000 
	C338.133392,515.000000 169.636795,515.000000 1.070094,515.000000 
	C1.070094,343.716888 1.070094,172.433716 1.070094,1.075272 
	C171.613007,1.075272 342.226074,1.075272 512.919556,1.075272 
	C512.919556,172.276230 512.919556,343.552521 512.919556,515.000000 
	C511.225067,515.000000 509.448242,515.000000 507.150696,515.000000 
M214.940628,368.622681 
	C228.427551,368.756683 241.924774,368.620850 255.397232,369.134338 
	C262.521057,369.405853 270.024994,370.284210 274.990021,376.252686 
	C283.041321,385.931183 282.595245,397.151276 279.087769,408.350250 
	C275.905975,418.509308 267.285370,421.440857 257.917694,421.935364 
	C244.630234,422.636749 231.290695,423.058105 218.000565,422.669586 
	C212.339203,422.504089 210.307266,424.781952 209.206711,429.416534 
	C209.053085,430.063507 208.958542,430.725494 208.784317,431.366333 
	C207.281586,436.892883 208.845612,438.926086 214.715256,438.954254 
	C221.043777,438.984650 227.391815,439.277710 233.697113,438.893982 
	C246.122559,438.137817 258.620361,437.639099 270.906677,435.812531 
	C281.419220,434.249634 289.505341,428.181000 294.156158,418.183228 
	C298.571930,408.690857 299.169006,398.771332 298.264282,388.486298 
	C296.697815,370.678284 287.339508,357.818024 269.896210,355.464539 
	C251.364777,352.964233 232.438690,353.365814 213.679214,352.650146 
	C212.776260,352.615662 211.426346,353.840240 210.966370,354.803955 
	C209.975266,356.880402 209.346237,359.145691 208.716476,361.375366 
	C207.281448,366.456116 208.409515,367.946564 214.940628,368.622681 
M264.499756,483.628326 
	C271.318665,483.628326 278.137543,483.628387 284.956451,483.628387 
	C292.995453,483.628387 292.995483,483.628357 295.217834,475.869293 
	C297.151184,469.119232 295.961273,467.539032 288.870148,467.536377 
	C265.752380,467.527771 242.634613,467.533142 219.516846,467.533142 
	C211.108917,467.533142 211.108917,467.533203 208.898544,475.516876 
	C207.170792,481.757355 208.575516,483.617920 215.102112,483.623718 
	C231.234634,483.637970 247.367188,483.628296 264.499756,483.628326 
z"/>
<path fill="#040404" opacity="1.000000" stroke="none" 
	d="
M214.495026,368.622437 
	C208.409515,367.946564 207.281448,366.456116 208.716476,361.375366 
	C209.346237,359.145691 209.975266,356.880402 210.966370,354.803955 
	C211.426346,353.840240 212.776260,352.615662 213.679214,352.650146 
	C232.438690,353.365814 251.364777,352.964233 269.896210,355.464539 
	C287.339508,357.818024 296.697815,370.678284 298.264282,388.486298 
	C299.169006,398.771332 298.571930,408.690857 294.156158,418.183228 
	C289.505341,428.181000 281.419220,434.249634 270.906677,435.812531 
	C258.620361,437.639099 246.122559,438.137817 233.697113,438.893982 
	C227.391815,439.277710 221.043777,438.984650 214.715256,438.954254 
	C208.845612,438.926086 207.281586,436.892883 208.784317,431.366333 
	C208.958542,430.725494 209.053085,430.063507 209.206711,429.416534 
	C210.307266,424.781952 212.339203,422.504089 218.000565,422.669586 
	C231.290695,423.058105 244.630234,422.636749 257.917694,421.935364 
	C267.285370,421.440857 275.905975,418.509308 279.087769,408.350250 
	C282.595245,397.151276 283.041321,385.931183 274.990021,376.252686 
	C270.024994,370.284210 262.521057,369.405853 255.397232,369.134338 
	C241.924774,368.620850 228.427551,368.756683 214.495026,368.622437 
z"/>
<path fill="#070707" opacity="1.000000" stroke="none" 
	d="
M263.999756,483.628296 
	C247.367188,483.628296 231.234634,483.637970 215.102112,483.623718 
	C208.575516,483.617920 207.170792,481.757355 208.898544,475.516876 
	C211.108917,467.533203 211.108917,467.533142 219.516846,467.533142 
	C242.634613,467.533142 265.752380,467.527771 288.870148,467.536377 
	C295.961273,467.539032 297.151184,469.119232 295.217834,475.869293 
	C292.995483,483.628357 292.995453,483.628387 284.956451,483.628387 
	C278.137543,483.628387 271.318665,483.628326 263.999756,483.628296 
z"/>
</svg>