<svg version="1.1" id="Layer_1" xmlns="http://www.w3.org/2000/svg" xmlns:xlink="http://www.w3.org/1999/xlink" x="0px" y="0px"
	 width="100%" viewBox="0 0 512 512" enable-background="new 0 0 512 512" xml:space="preserve">
<path fill="#000000" opacity="1.000000" stroke="none" 
	d="
M272.683746,267.999939 
	C272.683319,199.706497 272.683105,131.913086 272.683044,64.119675 
	C272.683044,61.291370 272.578339,58.470402 273.562225,55.724373 
	C275.585388,50.077522 279.580017,47.421490 285.851990,47.681244 
	C291.370483,47.909794 294.816528,50.863544 296.503815,56.466965 
	C297.243103,58.922035 297.318817,61.375061 297.318756,63.870888 
	C297.315674,171.141052 297.315430,278.411194 297.299103,385.681366 
	C297.297455,396.501312 290.512695,402.851410 281.729858,400.358856 
	C276.106049,398.762878 272.777679,393.972778 272.718689,386.929779 
	C272.625214,375.770447 272.686066,364.609833 272.685455,353.449738 
	C272.683838,325.133148 272.684357,296.816528 272.683746,267.999939 
z"/>
<path fill="#000000" opacity="1.000000" stroke="none" 
	d="
M216.559021,47.819492 
	C229.300156,47.317432 236.331329,52.569038 237.460526,63.044754 
	C238.448151,72.207085 233.025360,79.996170 224.258606,82.007507 
	C215.448837,84.028709 206.438934,78.914986 203.683746,70.329895 
	C200.816422,61.395306 204.739609,52.597713 213.293732,48.841103 
	C214.204041,48.441330 215.184433,48.201153 216.559021,47.819492 
z"/>
</svg>