<svg version="1.1" id="Layer_1" xmlns="http://www.w3.org/2000/svg" xmlns:xlink="http://www.w3.org/1999/xlink" x="0px" y="0px"
	 width="100%" viewBox="0 0 512 514" enable-background="new 0 0 512 514" xml:space="preserve">
<path fill="#FFFFFF" opacity="1.000000" stroke="none" 
	d="
M339.000000,515.000000 
	C226.027390,515.000000 113.554787,515.000000 1.041088,515.000000 
	C1.041088,343.735779 1.041088,172.471558 1.041088,1.103664 
	C171.555954,1.103664 342.112000,1.103664 512.833984,1.103664 
	C512.833984,172.333206 512.833984,343.666595 512.833984,515.000000 
	C455.138184,515.000000 397.319092,515.000000 339.000000,515.000000 
M273.153107,133.499939 
	C273.153107,216.994949 273.146362,300.489960 273.184113,383.984955 
	C273.185303,386.626678 273.257080,389.379059 273.973480,391.886230 
	C275.357605,396.730133 278.554291,399.763611 283.876129,400.197632 
	C292.084961,400.867065 296.842468,395.298889 296.843109,384.800903 
	C296.849304,277.973938 296.851135,171.146957 296.818573,64.319992 
	C296.817871,62.008995 296.555817,59.668598 296.138153,57.392857 
	C294.984253,51.105831 289.853241,47.349335 283.581787,48.039524 
	C276.905182,48.774303 273.174988,53.872101 273.163605,62.504093 
	C273.132843,85.835999 273.153107,109.167969 273.153107,133.499939 
M232.782043,132.758789 
	C225.391571,125.573036 215.486679,125.254341 208.325104,131.971863 
	C201.929535,137.970886 201.529816,148.691086 207.450104,155.438126 
	C213.537186,162.375229 223.772720,163.154617 231.169968,157.244278 
	C238.380615,151.483063 239.295654,141.180069 232.782043,132.758789 
z"/>
<path fill="#050505" opacity="1.000000" stroke="none" 
	d="
M273.153107,132.999924 
	C273.153107,109.167969 273.132843,85.835999 273.163605,62.504093 
	C273.174988,53.872101 276.905182,48.774303 283.581787,48.039524 
	C289.853241,47.349335 294.984253,51.105831 296.138153,57.392857 
	C296.555817,59.668598 296.817871,62.008995 296.818573,64.319992 
	C296.851135,171.146957 296.849304,277.973938 296.843109,384.800903 
	C296.842468,395.298889 292.084961,400.867065 283.876129,400.197632 
	C278.554291,399.763611 275.357605,396.730133 273.973480,391.886230 
	C273.257080,389.379059 273.185303,386.626678 273.184113,383.984955 
	C273.146362,300.489960 273.153107,216.994949 273.153107,132.999924 
z"/>
<path fill="#050505" opacity="1.000000" stroke="none" 
	d="
M233.040405,133.017151 
	C239.295654,141.180069 238.380615,151.483063 231.169968,157.244278 
	C223.772720,163.154617 213.537186,162.375229 207.450104,155.438126 
	C201.529816,148.691086 201.929535,137.970886 208.325104,131.971863 
	C215.486679,125.254341 225.391571,125.573036 233.040405,133.017151 
z"/>
</svg>