<svg version="1.1" id="Layer_1" xmlns="http://www.w3.org/2000/svg" xmlns:xlink="http://www.w3.org/1999/xlink" x="0px" y="0px"
	 width="100%" viewBox="0 0 512 512" enable-background="new 0 0 512 512" xml:space="preserve">
<path fill="#000000" opacity="1.000000" stroke="none" 
	d="
M272.682831,232.999939 
	C272.682190,176.201645 272.683563,119.903358 272.676361,63.605080 
	C272.676025,60.935860 272.663269,58.288078 273.580841,55.712551 
	C275.578552,50.105015 279.669342,47.404121 285.885956,47.682304 
	C291.367004,47.927570 294.845703,50.929737 296.506378,56.519135 
	C297.235718,58.973946 297.319122,61.428432 297.319031,63.925385 
	C297.315826,171.191925 297.316193,278.458466 297.300323,385.725006 
	C297.298737,396.316559 290.789429,402.606812 282.189819,400.439331 
	C276.818481,399.085510 273.346344,394.895355 272.786224,388.899078 
	C272.600983,386.915741 272.688385,384.904907 272.688202,382.906647 
	C272.683472,333.104401 272.683746,283.302185 272.682831,232.999939 
z"/>
<path fill="#000000" opacity="1.000000" stroke="none" 
	d="
M230.782883,237.975754 
	C222.354630,243.139679 213.788696,242.324997 207.714386,236.057236 
	C202.138809,230.304153 201.093933,221.490814 205.238617,214.867889 
	C209.305862,208.368759 215.383804,205.953354 222.754242,206.731247 
	C229.733627,207.467865 234.518936,211.610321 236.754990,217.993027 
	C239.042358,224.522156 238.020355,230.829834 232.866531,235.994995 
	C232.278198,236.584641 231.665771,237.150269 230.782883,237.975754 
z"/>
</svg>