<svg version="1.1" id="Layer_1" xmlns="http://www.w3.org/2000/svg" xmlns:xlink="http://www.w3.org/1999/xlink" x="0px" y="0px"
	 width="100%" viewBox="0 0 512 512" enable-background="new 0 0 512 512" xml:space="preserve">
<path fill="#000000" opacity="1.000000" stroke="none" 
	d="
M297.309692,307.000061 
	C297.309448,333.483765 297.300293,359.467468 297.319122,385.451141 
	C297.321564,388.813965 297.150940,392.141663 295.337799,395.084503 
	C292.694824,399.374359 287.636536,401.571228 282.940094,400.613464 
	C277.385071,399.480560 273.704742,395.565338 272.877472,389.656586 
	C272.602264,387.690948 272.691467,385.667908 272.691315,383.671112 
	C272.683136,277.071350 272.684235,170.471573 272.676666,63.871803 
	C272.676483,61.035938 272.635742,58.216866 273.650177,55.490585 
	C275.638336,50.147419 279.661865,47.492496 285.617188,47.674911 
	C291.196411,47.845806 294.760315,50.779919 296.454620,56.251316 
	C297.417114,59.359482 297.312439,62.496742 297.312592,65.651199 
	C297.316315,145.934158 297.312164,226.217102 297.309692,307.000061 
z"/>
<path fill="#000000" opacity="1.000000" stroke="none" 
	d="
M208.641785,396.405151 
	C202.128174,389.175781 200.984650,381.825104 205.038681,374.741669 
	C208.786835,368.192688 216.415665,364.616943 223.689148,366.188293 
	C230.599747,367.681213 235.422180,371.763214 237.148911,378.691895 
	C239.138657,386.675995 236.425278,393.664093 230.086182,397.925964 
	C223.778061,402.166992 217.346024,402.135406 210.914963,398.142761 
	C210.211670,397.706177 209.579285,397.155365 208.641785,396.405151 
z"/>
</svg>