<svg version="1.1" id="Layer_1" xmlns="http://www.w3.org/2000/svg" xmlns:xlink="http://www.w3.org/1999/xlink" x="0px" y="0px"
	 width="100%" viewBox="0 0 512 514" enable-background="new 0 0 512 514" xml:space="preserve">
<path fill="#FFFFFF" opacity="1.000000" stroke="none" 
	d="
M339.000000,515.000000 
	C226.027390,515.000000 113.554787,515.000000 1.041088,515.000000 
	C1.041088,343.735779 1.041088,172.471558 1.041088,1.103664 
	C171.555954,1.103664 342.112000,1.103664 512.833984,1.103664 
	C512.833984,172.333206 512.833984,343.666595 512.833984,515.000000 
	C455.138184,515.000000 397.319092,515.000000 339.000000,515.000000 
M204.153076,268.499939 
	C204.153076,307.166138 204.139496,345.832397 204.184814,384.498535 
	C204.187714,386.973816 204.280655,389.556183 204.969879,391.901154 
	C206.390854,396.735870 209.566574,399.770508 214.890625,400.199585 
	C223.071701,400.858917 227.844070,395.442230 227.844452,385.300995 
	C227.848465,278.302338 227.849243,171.303665 227.830521,64.305008 
	C227.830154,62.147789 227.774872,59.958611 227.418503,57.839279 
	C226.249969,50.890129 220.568039,47.019344 213.618774,48.287392 
	C207.329697,49.434967 204.158569,54.321011 204.157547,63.002499 
	C204.149506,131.168304 204.153076,199.334122 204.153076,268.499939 
M263.816956,64.513298 
	C264.304260,74.758049 271.429169,82.037399 280.933990,82.001366 
	C289.691437,81.968155 297.488342,74.424385 297.839630,65.644577 
	C298.198578,56.673733 291.173035,48.599895 282.478424,47.991306 
	C272.409729,47.286549 265.170898,53.389610 263.816956,64.513298 
z"/>
<path fill="#060606" opacity="1.000000" stroke="none" 
	d="
M204.153076,267.999939 
	C204.153076,199.334122 204.149506,131.168304 204.157547,63.002499 
	C204.158569,54.321011 207.329697,49.434967 213.618774,48.287392 
	C220.568039,47.019344 226.249969,50.890129 227.418503,57.839279 
	C227.774872,59.958611 227.830154,62.147789 227.830521,64.305008 
	C227.849243,171.303665 227.848465,278.302338 227.844452,385.300995 
	C227.844070,395.442230 223.071701,400.858917 214.890625,400.199585 
	C209.566574,399.770508 206.390854,396.735870 204.969879,391.901154 
	C204.280655,389.556183 204.187714,386.973816 204.184814,384.498535 
	C204.139496,345.832397 204.153076,307.166138 204.153076,267.999939 
z"/>
<path fill="#050505" opacity="1.000000" stroke="none" 
	d="
M263.817322,64.118736 
	C265.170898,53.389610 272.409729,47.286549 282.478424,47.991306 
	C291.173035,48.599895 298.198578,56.673733 297.839630,65.644577 
	C297.488342,74.424385 289.691437,81.968155 280.933990,82.001366 
	C271.429169,82.037399 264.304260,74.758049 263.817322,64.118736 
z"/>
</svg>