<svg version="1.1" id="Layer_1" xmlns="http://www.w3.org/2000/svg" xmlns:xlink="http://www.w3.org/1999/xlink" x="0px" y="0px"
	 width="100%" viewBox="0 0 512 512" enable-background="new 0 0 512 512" xml:space="preserve">
<path fill="#000000" opacity="1.000000" stroke="none" 
	d="
M203.683655,134.999969 
	C203.680496,111.002121 203.694733,87.504265 203.653000,64.006500 
	C203.647919,61.150860 203.821976,58.354946 204.714081,55.631390 
	C206.294464,50.806587 210.089508,47.889912 215.054184,47.680744 
	C220.684311,47.443539 225.160324,50.048328 227.066925,54.805676 
	C228.132095,57.463467 228.336838,60.269264 228.336121,63.134995 
	C228.309280,170.791733 228.309464,278.448456 228.324265,386.105194 
	C228.325043,391.769470 227.027802,396.720123 221.488327,399.481476 
	C217.077805,401.680023 212.791229,401.339935 208.831848,398.384369 
	C205.549973,395.934540 204.090591,392.443848 203.759705,388.473572 
	C203.594086,386.486359 203.680740,384.476746 203.680725,382.477264 
	C203.679901,300.151489 203.682190,217.825729 203.683655,134.999969 
z"/>
<path fill="#000000" opacity="1.000000" stroke="none" 
	d="
M272.922394,128.490997 
	C280.160156,125.388596 286.677155,126.179230 292.319855,131.058914 
	C297.327454,135.389389 299.190399,141.168198 297.957550,147.686584 
	C296.457214,155.618973 290.195465,160.896774 281.942505,161.531631 
	C274.101440,162.134796 266.880310,157.449432 264.079559,149.941467 
	C261.497864,143.020721 264.183044,134.669525 270.497040,130.039978 
	C271.163757,129.551117 271.898804,129.155502 272.922394,128.490997 
z"/>
</svg>