<svg version="1.1" id="Layer_1" xmlns="http://www.w3.org/2000/svg" xmlns:xlink="http://www.w3.org/1999/xlink" x="0px" y="0px"
	 width="100%" viewBox="0 0 512 514" enable-background="new 0 0 512 514" xml:space="preserve">
<path fill="#FFFFFF" opacity="1.000000" stroke="none" 
	d="
M223.000000,515.000000 
	C148.684647,515.000000 74.869286,515.000000 1.026966,515.000000 
	C1.026966,343.726379 1.026966,172.452728 1.026966,1.089542 
	C171.565369,1.089542 342.130798,1.089542 512.848145,1.089542 
	C512.848145,172.333237 512.848145,343.666595 512.848145,515.000000 
	C416.452667,515.000000 319.976349,515.000000 223.000000,515.000000 
M227.846924,158.500061 
	C227.846924,127.167091 227.856186,95.834114 227.828079,64.501167 
	C227.825989,62.178246 227.775970,59.815945 227.367645,57.540249 
	C226.175980,50.899178 220.519485,47.096165 213.806366,48.230106 
	C207.311615,49.327160 204.156082,54.228062 204.155731,63.306343 
	C204.151596,170.471664 204.147705,277.636993 204.186523,384.802307 
	C204.187424,387.275421 204.287811,389.877563 205.038177,392.193939 
	C206.515320,396.753937 209.581161,399.722198 214.694351,400.188843 
	C219.675949,400.643524 223.805603,398.936340 225.948471,394.573273 
	C227.334488,391.751221 227.768890,388.214661 227.772980,384.997192 
	C227.868546,309.831573 227.846924,234.665817 227.846924,158.500061 
M269.750732,236.774429 
	C277.968414,242.923004 287.830200,242.184845 293.746918,234.978348 
	C299.665497,227.769592 298.947327,217.237839 292.124634,211.188278 
	C285.093262,204.953674 274.926575,205.739502 267.988586,212.608734 
	C262.071411,218.467270 262.449463,231.531998 269.750732,236.774429 
z"/>
<path fill="#060606" opacity="1.000000" stroke="none" 
	d="
M227.846924,159.000076 
	C227.846924,234.665817 227.868546,309.831573 227.772980,384.997192 
	C227.768890,388.214661 227.334488,391.751221 225.948471,394.573273 
	C223.805603,398.936340 219.675949,400.643524 214.694351,400.188843 
	C209.581161,399.722198 206.515320,396.753937 205.038177,392.193939 
	C204.287811,389.877563 204.187424,387.275421 204.186523,384.802307 
	C204.147705,277.636993 204.151596,170.471664 204.155731,63.306343 
	C204.156082,54.228062 207.311615,49.327160 213.806366,48.230106 
	C220.519485,47.096165 226.175980,50.899178 227.367645,57.540249 
	C227.775970,59.815945 227.825989,62.178246 227.828079,64.501167 
	C227.856186,95.834114 227.846924,127.167091 227.846924,159.000076 
z"/>
<path fill="#050505" opacity="1.000000" stroke="none" 
	d="
M269.495148,236.519135 
	C262.449463,231.531998 262.071411,218.467270 267.988586,212.608734 
	C274.926575,205.739502 285.093262,204.953674 292.124634,211.188278 
	C298.947327,217.237839 299.665497,227.769592 293.746918,234.978348 
	C287.830200,242.184845 277.968414,242.923004 269.495148,236.519135 
z"/>
</svg>