<svg version="1.1" id="Layer_1" xmlns="http://www.w3.org/2000/svg" xmlns:xlink="http://www.w3.org/1999/xlink" x="0px" y="0px"
	 width="100%" viewBox="0 0 512 512" enable-background="new 0 0 512 512" xml:space="preserve">
<path fill="#000000" opacity="1.000000" stroke="none" 
	d="
M217.930054,253.000000 
	C217.942047,296.480164 217.963211,339.460297 217.945053,382.440460 
	C217.943939,385.093933 217.815048,387.774017 217.430115,390.395386 
	C216.489609,396.800171 211.429672,401.275391 205.628494,401.052917 
	C199.154465,400.804596 194.073624,395.797455 193.694580,389.243927 
	C193.608124,387.749115 193.653564,386.246185 193.653549,384.746979 
	C193.651901,277.629761 193.650970,170.512512 193.652756,63.395287 
	C193.652954,51.487263 197.287399,47.248707 209.290573,47.140732 
	C238.774292,46.875511 268.262787,46.947502 297.747833,47.129799 
	C306.918945,47.186501 311.247040,50.508820 312.752350,57.323956 
	C314.159882,63.696461 309.710449,70.336571 303.227112,71.283966 
	C300.276215,71.715164 297.268311,71.936295 294.285706,71.941887 
	C271.129883,71.985291 247.973969,71.953079 224.818069,71.943619 
	C218.157074,71.940895 217.977798,72.109566 217.975540,79.080956 
	C217.956726,136.887299 217.944519,194.693649 217.930054,253.000000 
z"/>
</svg>