<svg version="1.1" id="Layer_1" xmlns="http://www.w3.org/2000/svg" xmlns:xlink="http://www.w3.org/1999/xlink" x="0px" y="0px"
	 width="100%" viewBox="0 0 512 512" enable-background="new 0 0 512 512" xml:space="preserve">
<path fill="#000000" opacity="1.000000" stroke="none" 
	d="
M300.317444,129.347565 
	C308.059204,130.369431 311.778748,133.562988 312.896454,139.860107 
	C313.772705,144.796768 310.893311,150.382126 305.985718,152.510330 
	C302.591492,153.982300 298.843536,153.932083 295.187195,153.935089 
	C271.860474,153.954330 248.533737,153.948944 225.207001,153.939728 
	C218.137238,153.936935 217.970490,154.084763 217.970474,161.210205 
	C217.970306,234.856216 217.977921,308.502228 217.946304,382.148254 
	C217.945023,385.133087 217.798828,388.153381 217.330551,391.095123 
	C216.384079,397.040741 211.018982,401.386993 205.425323,401.028717 
	C199.227325,400.631683 194.319687,396.043121 193.738846,390.037781 
	C193.610931,388.715332 193.655548,387.374237 193.655502,386.041718 
	C193.652130,278.071899 193.649597,170.102097 193.656494,62.132294 
	C193.657120,52.284817 198.243103,47.220188 206.650497,47.686287 
	C212.241013,47.996220 216.375092,51.512314 217.326889,57.084858 
	C217.772446,59.693474 217.897949,62.382557 217.906006,65.035965 
	C217.964630,84.363708 218.056198,103.692482 217.895218,123.018913 
	C217.857651,127.527199 219.272369,129.100555 223.919724,129.081940 
	C249.241135,128.980438 274.563721,129.173233 300.317444,129.347565 
z"/>
</svg>