<svg version="1.1" id="Layer_1" xmlns="http://www.w3.org/2000/svg" xmlns:xlink="http://www.w3.org/1999/xlink" x="0px" y="0px"
	 width="100%" viewBox="0 0 512 514" enable-background="new 0 0 512 514" xml:space="preserve">
<path fill="#FFFFFF" opacity="1.000000" stroke="none" 
	d="
M224.000000,515.000000 
	C149.351395,515.000000 75.202782,515.000000 1.027088,515.000000 
	C1.027088,343.726440 1.027088,172.452881 1.027088,1.089663 
	C171.565292,1.089663 342.130646,1.089663 512.848022,1.089663 
	C512.848022,172.333237 512.848022,343.666595 512.848022,515.000000 
	C416.786163,515.000000 320.643097,515.000000 224.000000,515.000000 
M227.556152,294.831451 
	C224.267563,294.831451 220.978989,294.831451 217.168579,294.831451 
	C217.168579,292.385834 217.168594,290.431305 217.168594,288.476776 
	C217.168594,213.329498 217.170410,138.182236 217.158493,63.034962 
	C217.158188,61.040550 217.231750,59.006340 216.884811,57.059483 
	C215.968430,51.917412 211.749222,48.370045 206.445496,48.019745 
	C201.178513,47.671864 196.366013,50.693176 194.938126,55.645161 
	C194.263916,57.983376 194.036667,60.523499 194.035706,62.972305 
	C193.993454,170.444565 193.997025,277.916840 194.017883,385.389099 
	C194.018234,387.201904 193.889206,389.180573 194.542114,390.788940 
	C195.550644,393.273438 196.771271,395.926453 198.640518,397.751648 
	C202.072021,401.102356 206.483612,401.153900 210.684296,399.260315 
	C215.467331,397.104248 217.195221,392.986786 217.185516,387.889252 
	C217.144608,366.394867 217.168427,344.900360 217.168579,323.405914 
	C217.168594,321.654083 217.168579,319.902252 217.168579,318.000763 
	C219.704803,318.000763 221.533859,318.000763 223.362915,318.000763 
	C248.356461,318.000763 273.350098,318.030365 298.343414,317.954041 
	C300.789795,317.946594 303.406891,317.725189 305.644806,316.842560 
	C310.846436,314.791107 313.191223,309.594604 312.050262,303.741638 
	C310.959167,298.144653 306.746857,294.877594 300.021149,294.858398 
	C276.194153,294.790344 252.366837,294.831604 227.556152,294.831451 
z"/>
<path fill="#010101" opacity="1.000000" stroke="none" 
	d="
M228.047913,294.831451 
	C252.366837,294.831604 276.194153,294.790344 300.021149,294.858398 
	C306.746857,294.877594 310.959167,298.144653 312.050262,303.741638 
	C313.191223,309.594604 310.846436,314.791107 305.644806,316.842560 
	C303.406891,317.725189 300.789795,317.946594 298.343414,317.954041 
	C273.350098,318.030365 248.356461,318.000763 223.362915,318.000763 
	C221.533859,318.000763 219.704803,318.000763 217.168579,318.000763 
	C217.168579,319.902252 217.168594,321.654083 217.168579,323.405914 
	C217.168427,344.900360 217.144608,366.394867 217.185516,387.889252 
	C217.195221,392.986786 215.467331,397.104248 210.684296,399.260315 
	C206.483612,401.153900 202.072021,401.102356 198.640518,397.751648 
	C196.771271,395.926453 195.550644,393.273438 194.542114,390.788940 
	C193.889206,389.180573 194.018234,387.201904 194.017883,385.389099 
	C193.997025,277.916840 193.993454,170.444565 194.035706,62.972305 
	C194.036667,60.523499 194.263916,57.983376 194.938126,55.645161 
	C196.366013,50.693176 201.178513,47.671864 206.445496,48.019745 
	C211.749222,48.370045 215.968430,51.917412 216.884811,57.059483 
	C217.231750,59.006340 217.158188,61.040550 217.158493,63.034962 
	C217.170410,138.182236 217.168594,213.329498 217.168594,288.476776 
	C217.168594,290.431305 217.168579,292.385834 217.168579,294.831451 
	C220.978989,294.831451 224.267563,294.831451 228.047913,294.831451 
z"/>
</svg>