<svg version="1.1" id="Layer_1" xmlns="http://www.w3.org/2000/svg" xmlns:xlink="http://www.w3.org/1999/xlink" x="0px" y="0px"
	 width="100%" viewBox="0 0 512 514" enable-background="new 0 0 512 514" xml:space="preserve">
<path fill="#FFFFFF" opacity="1.000000" stroke="none" 
	d="
M323.000000,515.000000 
	C215.359421,515.000000 108.218857,515.000000 1.039140,515.000000 
	C1.039140,343.734497 1.039140,172.468964 1.039140,1.101716 
	C171.557236,1.101716 342.114563,1.101716 512.835938,1.101716 
	C512.835938,172.333206 512.835938,343.666595 512.835938,515.000000 
	C449.802246,515.000000 386.651123,515.000000 323.000000,515.000000 
M287.093903,122.500023 
	C287.093903,90.530258 287.100861,58.560497 287.088135,26.590742 
	C287.085510,20.034969 282.757294,16.724998 276.497650,18.549175 
	C272.517151,19.709164 268.625885,21.178375 264.637268,22.306210 
	C261.399292,23.221781 260.481018,25.028620 260.502899,28.439390 
	C260.674866,55.246277 260.598236,82.054764 260.598206,108.862755 
	C260.598175,123.848587 260.567810,138.834503 260.613647,153.820206 
	C260.630981,159.481308 264.555481,162.499207 269.965363,160.948517 
	C274.584564,159.624481 279.112274,157.984344 283.702576,156.555237 
	C286.260834,155.758774 287.247650,154.342453 287.178192,151.471542 
	C286.952728,142.152481 287.093903,132.824554 287.093903,122.500023 
M229.621124,105.236748 
	C236.324722,102.444984 239.708740,97.347969 239.738953,90.156837 
	C239.765747,83.776413 235.472275,77.282753 229.834091,75.263306 
	C223.670654,73.055733 218.043808,74.187912 213.273544,78.799286 
	C207.999557,83.897575 206.691544,91.303482 209.908875,97.506371 
	C213.498779,104.427574 219.903931,107.132492 229.621124,105.236748 
z"/>
<path fill="#010101" opacity="1.000000" stroke="none" 
	d="
M287.093903,123.000031 
	C287.093903,132.824554 286.952728,142.152481 287.178192,151.471542 
	C287.247650,154.342453 286.260834,155.758774 283.702576,156.555237 
	C279.112274,157.984344 274.584564,159.624481 269.965363,160.948517 
	C264.555481,162.499207 260.630981,159.481308 260.613647,153.820206 
	C260.567810,138.834503 260.598175,123.848587 260.598206,108.862755 
	C260.598236,82.054764 260.674866,55.246277 260.502899,28.439390 
	C260.481018,25.028620 261.399292,23.221781 264.637268,22.306210 
	C268.625885,21.178375 272.517151,19.709164 276.497650,18.549175 
	C282.757294,16.724998 287.085510,20.034969 287.088135,26.590742 
	C287.100861,58.560497 287.093903,90.530258 287.093903,123.000031 
z"/>
<path fill="#050505" opacity="1.000000" stroke="none" 
	d="
M229.270325,105.385689 
	C219.903931,107.132492 213.498779,104.427574 209.908875,97.506371 
	C206.691544,91.303482 207.999557,83.897575 213.273544,78.799286 
	C218.043808,74.187912 223.670654,73.055733 229.834091,75.263306 
	C235.472275,77.282753 239.765747,83.776413 239.738953,90.156837 
	C239.708740,97.347969 236.324722,102.444984 229.270325,105.385689 
z"/>
</svg>