<svg version="1.1" id="Layer_1" xmlns="http://www.w3.org/2000/svg" xmlns:xlink="http://www.w3.org/1999/xlink" x="0px" y="0px"
	 width="100%" viewBox="0 0 512 512" enable-background="new 0 0 512 512" xml:space="preserve">
<path fill="#000000" opacity="1.000000" stroke="none" 
	d="
M265.159912,150.000000 
	C265.165466,166.831955 265.030579,183.165939 265.268219,199.494507 
	C265.332520,203.914871 264.184662,206.852325 259.896149,208.401413 
	C257.243317,209.359680 254.768402,210.816666 252.107132,211.744202 
	C247.921906,213.202881 243.205765,210.050659 242.740784,205.604141 
	C242.585510,204.119247 242.678940,202.607101 242.678665,201.107422 
	C242.673599,172.609818 242.671509,144.112213 242.668854,115.614609 
	C242.668640,113.299072 242.668823,110.983536 242.668823,108.450027 
	C239.974686,108.304779 238.282913,109.743523 236.499954,110.789787 
	C228.453323,115.511688 220.393509,120.215096 212.447678,125.102737 
	C209.462173,126.939171 207.848114,126.559929 206.333679,123.270119 
	C200.420731,110.425339 200.084595,114.001213 210.252502,105.955673 
	C222.926987,95.926750 235.809708,86.158096 248.374725,75.995407 
	C252.253510,72.858200 254.930298,72.469742 259.074585,75.843361 
	C273.157196,87.307198 287.547150,98.399529 301.990295,109.409973 
	C305.294495,111.928856 305.793121,114.092873 303.989380,117.786552 
	C299.242371,127.507248 299.412079,127.553925 290.372955,122.170525 
	C282.383453,117.412270 274.351135,112.725914 265.159515,107.314110 
	C265.159515,122.070236 265.159515,135.785110 265.159912,150.000000 
z"/>
</svg>