<svg version="1.1" id="Layer_1" xmlns="http://www.w3.org/2000/svg" xmlns:xlink="http://www.w3.org/1999/xlink" x="0px" y="0px"
	 width="100%" viewBox="0 0 512 512" enable-background="new 0 0 512 512" xml:space="preserve">
<path fill="#000000" opacity="1.000000" stroke="none" 
	d="
M204.333939,174.600998 
	C202.174469,173.000702 201.863708,171.450821 202.764191,169.184845 
	C207.481827,157.313431 207.447021,157.248199 218.251740,163.518097 
	C225.739365,167.863098 233.147018,172.345810 240.599762,176.751175 
	C240.869354,176.910507 241.238434,176.901566 241.689468,176.998657 
	C243.421600,175.427521 242.610703,173.305298 242.614899,171.463593 
	C242.680115,142.814407 242.770111,114.164314 242.565887,85.516487 
	C242.533981,81.042473 244.066910,78.684723 247.867935,76.520378 
	C259.097443,70.126205 265.705475,72.544426 265.363129,86.674240 
	C264.689575,114.474319 265.170441,142.302368 265.173645,170.118851 
	C265.173889,172.254486 265.173706,174.390121 265.173706,177.060272 
	C270.455505,175.442749 274.192657,172.353119 278.312714,170.057648 
	C284.128723,166.817276 289.827576,163.357193 295.478668,159.834106 
	C298.259705,158.100327 299.934296,158.495117 301.273224,161.569809 
	C306.953369,174.613556 307.681396,170.945816 297.501862,179.079330 
	C284.494324,189.472443 271.169220,199.468369 258.175476,209.878235 
	C254.928116,212.479858 252.652100,212.402252 249.492706,209.898819 
	C234.613434,198.108734 219.589539,186.501175 204.333939,174.600998 
z"/>
</svg>