<svg version="1.1" id="Layer_1" xmlns="http://www.w3.org/2000/svg" xmlns:xlink="http://www.w3.org/1999/xlink" x="0px" y="0px"
	 width="100%" viewBox="0 0 512 514" enable-background="new 0 0 512 514" xml:space="preserve">
<path fill="#FFFFFF" opacity="1.000000" stroke="none" 
	d="
M236.000000,515.000000 
	C157.683228,515.000000 79.366447,515.000000 1.024835,515.000000 
	C1.024835,343.719452 1.024835,172.438873 1.024835,1.079154 
	C171.577789,1.079154 342.155609,1.079154 512.866699,1.079154 
	C512.866699,172.333267 512.866699,343.666626 512.870972,515.000000 
	C426.226837,515.000000 339.578430,515.000000 252.521606,514.632812 
	C255.170822,512.974426 258.260193,511.752960 261.280365,510.379303 
	C271.934357,505.533539 271.924713,505.513855 271.227966,494.022614 
	C271.177551,493.191254 271.154968,492.358246 271.107056,491.526703 
	C268.749695,450.624237 266.421478,409.719940 263.911102,368.826843 
	C263.818878,367.324707 261.746368,364.588684 260.928894,364.707764 
	C255.835449,365.449799 250.616013,366.319977 245.926285,368.302124 
	C244.281937,368.997101 243.369339,372.915924 243.219879,375.427917 
	C241.419586,405.686340 239.772568,435.954315 238.198441,466.225647 
	C237.353317,482.477936 236.725739,498.741516 236.000000,515.000000 
M270.467987,336.858521 
	C271.212006,334.845795 272.207916,332.887543 272.656982,330.811035 
	C274.740997,321.174255 271.114227,313.374725 263.329376,311.531342 
	C255.115601,309.586304 247.379044,310.896240 241.335693,317.315460 
	C235.233032,323.797607 233.896515,331.642456 236.246307,340.024689 
	C237.441940,344.289825 240.620193,346.920898 244.992264,348.054504 
	C255.103897,350.676422 263.726471,347.080139 270.467987,336.858521 
z"/>
<path fill="#020202" opacity="1.000000" stroke="none" 
	d="
M236.466858,515.000000 
	C236.725739,498.741516 237.353317,482.477936 238.198441,466.225647 
	C239.772568,435.954315 241.419586,405.686340 243.219879,375.427917 
	C243.369339,372.915924 244.281937,368.997101 245.926285,368.302124 
	C250.616013,366.319977 255.835449,365.449799 260.928894,364.707764 
	C261.746368,364.588684 263.818878,367.324707 263.911102,368.826843 
	C266.421478,409.719940 268.749695,450.624237 271.107056,491.526703 
	C271.154968,492.358246 271.177551,493.191254 271.227966,494.022614 
	C271.924713,505.513855 271.934357,505.533539 261.280365,510.379303 
	C258.260193,511.752960 255.170822,512.974426 252.056580,514.632812 
	C246.977905,515.000000 241.955811,515.000000 236.466858,515.000000 
z"/>
<path fill="#030303" opacity="1.000000" stroke="none" 
	d="
M270.283264,337.185669 
	C263.726471,347.080139 255.103897,350.676422 244.992264,348.054504 
	C240.620193,346.920898 237.441940,344.289825 236.246307,340.024689 
	C233.896515,331.642456 235.233032,323.797607 241.335693,317.315460 
	C247.379044,310.896240 255.115601,309.586304 263.329376,311.531342 
	C271.114227,313.374725 274.740997,321.174255 272.656982,330.811035 
	C272.207916,332.887543 271.212006,334.845795 270.283264,337.185669 
z"/>
</svg>